<?xml version="1.0" encoding="utf-8" standalone="no"?>
<!DOCTYPE svg PUBLIC "-//W3C//DTD SVG 1.1//EN"
  "http://www.w3.org/Graphics/SVG/1.1/DTD/svg11.dtd">
<svg xmlns:xlink="http://www.w3.org/1999/xlink" width="864pt" height="432pt" viewBox="0 0 864 432" xmlns="http://www.w3.org/2000/svg" version="1.1">
 <metadata>
  <rdf:RDF xmlns:dc="http://purl.org/dc/elements/1.1/" xmlns:cc="http://creativecommons.org/ns#" xmlns:rdf="http://www.w3.org/1999/02/22-rdf-syntax-ns#">
   <cc:Work>
    <dc:type rdf:resource="http://purl.org/dc/dcmitype/StillImage"/>
    <dc:date>2026-03-21T14:06:20.243071</dc:date>
    <dc:format>image/svg+xml</dc:format>
    <dc:creator>
     <cc:Agent>
      <dc:title>Matplotlib v3.6.3, https://matplotlib.org/</dc:title>
     </cc:Agent>
    </dc:creator>
   </cc:Work>
  </rdf:RDF>
 </metadata>
 <defs>
  <style type="text/css">*{stroke-linejoin: round; stroke-linecap: butt}</style>
 </defs>
 <g id="figure_1">
  <g id="patch_1">
   <path d="M 0 432 
L 864 432 
L 864 0 
L 0 0 
z
" style="fill: #ffffff"/>
  </g>
  <g id="axes_1">
   <g id="patch_2">
    <path d="M 58.32 373.416875 
L 851.04 373.416875 
L 851.04 27.6 
L 58.32 27.6 
z
" style="fill: #ffffff"/>
   </g>
   <g id="matplotlib.axis_1">
    <g id="xtick_1">
     <g id="text_1">
      <!-- P-256 -->
      <g style="fill: #262626" transform="translate(103.911421 400.575919) rotate(-15) scale(0.12 -0.12)">
       <defs>
        <path id="DejaVuSans-50" d="M 1259 4147 
L 1259 2394 
L 2053 2394 
Q 2494 2394 2734 2622 
Q 2975 2850 2975 3272 
Q 2975 3691 2734 3919 
Q 2494 4147 2053 4147 
L 1259 4147 
z
M 628 4666 
L 2053 4666 
Q 2838 4666 3239 4311 
Q 3641 3956 3641 3272 
Q 3641 2581 3239 2228 
Q 2838 1875 2053 1875 
L 1259 1875 
L 1259 0 
L 628 0 
L 628 4666 
z
" transform="scale(0.015625)"/>
        <path id="DejaVuSans-2d" d="M 313 2009 
L 1997 2009 
L 1997 1497 
L 313 1497 
L 313 2009 
z
" transform="scale(0.015625)"/>
        <path id="DejaVuSans-32" d="M 1228 531 
L 3431 531 
L 3431 0 
L 469 0 
L 469 531 
Q 828 903 1448 1529 
Q 2069 2156 2228 2338 
Q 2531 2678 2651 2914 
Q 2772 3150 2772 3378 
Q 2772 3750 2511 3984 
Q 2250 4219 1831 4219 
Q 1534 4219 1204 4116 
Q 875 4013 500 3803 
L 500 4441 
Q 881 4594 1212 4672 
Q 1544 4750 1819 4750 
Q 2544 4750 2975 4387 
Q 3406 4025 3406 3419 
Q 3406 3131 3298 2873 
Q 3191 2616 2906 2266 
Q 2828 2175 2409 1742 
Q 1991 1309 1228 531 
z
" transform="scale(0.015625)"/>
        <path id="DejaVuSans-35" d="M 691 4666 
L 3169 4666 
L 3169 4134 
L 1269 4134 
L 1269 2991 
Q 1406 3038 1543 3061 
Q 1681 3084 1819 3084 
Q 2600 3084 3056 2656 
Q 3513 2228 3513 1497 
Q 3513 744 3044 326 
Q 2575 -91 1722 -91 
Q 1428 -91 1123 -41 
Q 819 9 494 109 
L 494 744 
Q 775 591 1075 516 
Q 1375 441 1709 441 
Q 2250 441 2565 725 
Q 2881 1009 2881 1497 
Q 2881 1984 2565 2268 
Q 2250 2553 1709 2553 
Q 1456 2553 1204 2497 
Q 953 2441 691 2322 
L 691 4666 
z
" transform="scale(0.015625)"/>
        <path id="DejaVuSans-36" d="M 2113 2584 
Q 1688 2584 1439 2293 
Q 1191 2003 1191 1497 
Q 1191 994 1439 701 
Q 1688 409 2113 409 
Q 2538 409 2786 701 
Q 3034 994 3034 1497 
Q 3034 2003 2786 2293 
Q 2538 2584 2113 2584 
z
M 3366 4563 
L 3366 3988 
Q 3128 4100 2886 4159 
Q 2644 4219 2406 4219 
Q 1781 4219 1451 3797 
Q 1122 3375 1075 2522 
Q 1259 2794 1537 2939 
Q 1816 3084 2150 3084 
Q 2853 3084 3261 2657 
Q 3669 2231 3669 1497 
Q 3669 778 3244 343 
Q 2819 -91 2113 -91 
Q 1303 -91 875 529 
Q 447 1150 447 2328 
Q 447 3434 972 4092 
Q 1497 4750 2381 4750 
Q 2619 4750 2861 4703 
Q 3103 4656 3366 4563 
z
" transform="scale(0.015625)"/>
       </defs>
       <use xlink:href="#DejaVuSans-50"/>
       <use xlink:href="#DejaVuSans-2d" x="58.052734"/>
       <use xlink:href="#DejaVuSans-32" x="94.136719"/>
       <use xlink:href="#DejaVuSans-35" x="157.759766"/>
       <use xlink:href="#DejaVuSans-36" x="221.382812"/>
      </g>
     </g>
    </g>
    <g id="xtick_2">
     <g id="text_2">
      <!-- x25519 -->
      <g style="fill: #262626" transform="translate(251.755378 403.442987) rotate(-15) scale(0.12 -0.12)">
       <defs>
        <path id="DejaVuSans-78" d="M 3513 3500 
L 2247 1797 
L 3578 0 
L 2900 0 
L 1881 1375 
L 863 0 
L 184 0 
L 1544 1831 
L 300 3500 
L 978 3500 
L 1906 2253 
L 2834 3500 
L 3513 3500 
z
" transform="scale(0.015625)"/>
        <path id="DejaVuSans-31" d="M 794 531 
L 1825 531 
L 1825 4091 
L 703 3866 
L 703 4441 
L 1819 4666 
L 2450 4666 
L 2450 531 
L 3481 531 
L 3481 0 
L 794 0 
L 794 531 
z
" transform="scale(0.015625)"/>
        <path id="DejaVuSans-39" d="M 703 97 
L 703 672 
Q 941 559 1184 500 
Q 1428 441 1663 441 
Q 2288 441 2617 861 
Q 2947 1281 2994 2138 
Q 2813 1869 2534 1725 
Q 2256 1581 1919 1581 
Q 1219 1581 811 2004 
Q 403 2428 403 3163 
Q 403 3881 828 4315 
Q 1253 4750 1959 4750 
Q 2769 4750 3195 4129 
Q 3622 3509 3622 2328 
Q 3622 1225 3098 567 
Q 2575 -91 1691 -91 
Q 1453 -91 1209 -44 
Q 966 3 703 97 
z
M 1959 2075 
Q 2384 2075 2632 2365 
Q 2881 2656 2881 3163 
Q 2881 3666 2632 3958 
Q 2384 4250 1959 4250 
Q 1534 4250 1286 3958 
Q 1038 3666 1038 3163 
Q 1038 2656 1286 2365 
Q 1534 2075 1959 2075 
z
" transform="scale(0.015625)"/>
       </defs>
       <use xlink:href="#DejaVuSans-78"/>
       <use xlink:href="#DejaVuSans-32" x="59.179688"/>
       <use xlink:href="#DejaVuSans-35" x="122.802734"/>
       <use xlink:href="#DejaVuSans-35" x="186.425781"/>
       <use xlink:href="#DejaVuSans-31" x="250.048828"/>
       <use xlink:href="#DejaVuSans-39" x="313.671875"/>
      </g>
     </g>
    </g>
    <g id="xtick_3">
     <g id="text_3">
      <!-- hqc128 -->
      <g style="fill: #262626" transform="translate(410.831845 403.300313) rotate(-15) scale(0.12 -0.12)">
       <defs>
        <path id="DejaVuSans-68" d="M 3513 2113 
L 3513 0 
L 2938 0 
L 2938 2094 
Q 2938 2591 2744 2837 
Q 2550 3084 2163 3084 
Q 1697 3084 1428 2787 
Q 1159 2491 1159 1978 
L 1159 0 
L 581 0 
L 581 4863 
L 1159 4863 
L 1159 2956 
Q 1366 3272 1645 3428 
Q 1925 3584 2291 3584 
Q 2894 3584 3203 3211 
Q 3513 2838 3513 2113 
z
" transform="scale(0.015625)"/>
        <path id="DejaVuSans-71" d="M 947 1747 
Q 947 1113 1208 752 
Q 1469 391 1925 391 
Q 2381 391 2643 752 
Q 2906 1113 2906 1747 
Q 2906 2381 2643 2742 
Q 2381 3103 1925 3103 
Q 1469 3103 1208 2742 
Q 947 2381 947 1747 
z
M 2906 525 
Q 2725 213 2448 61 
Q 2172 -91 1784 -91 
Q 1150 -91 751 415 
Q 353 922 353 1747 
Q 353 2572 751 3078 
Q 1150 3584 1784 3584 
Q 2172 3584 2448 3432 
Q 2725 3281 2906 2969 
L 2906 3500 
L 3481 3500 
L 3481 -1331 
L 2906 -1331 
L 2906 525 
z
" transform="scale(0.015625)"/>
        <path id="DejaVuSans-63" d="M 3122 3366 
L 3122 2828 
Q 2878 2963 2633 3030 
Q 2388 3097 2138 3097 
Q 1578 3097 1268 2742 
Q 959 2388 959 1747 
Q 959 1106 1268 751 
Q 1578 397 2138 397 
Q 2388 397 2633 464 
Q 2878 531 3122 666 
L 3122 134 
Q 2881 22 2623 -34 
Q 2366 -91 2075 -91 
Q 1284 -91 818 406 
Q 353 903 353 1747 
Q 353 2603 823 3093 
Q 1294 3584 2113 3584 
Q 2378 3584 2631 3529 
Q 2884 3475 3122 3366 
z
" transform="scale(0.015625)"/>
        <path id="DejaVuSans-38" d="M 2034 2216 
Q 1584 2216 1326 1975 
Q 1069 1734 1069 1313 
Q 1069 891 1326 650 
Q 1584 409 2034 409 
Q 2484 409 2743 651 
Q 3003 894 3003 1313 
Q 3003 1734 2745 1975 
Q 2488 2216 2034 2216 
z
M 1403 2484 
Q 997 2584 770 2862 
Q 544 3141 544 3541 
Q 544 4100 942 4425 
Q 1341 4750 2034 4750 
Q 2731 4750 3128 4425 
Q 3525 4100 3525 3541 
Q 3525 3141 3298 2862 
Q 3072 2584 2669 2484 
Q 3125 2378 3379 2068 
Q 3634 1759 3634 1313 
Q 3634 634 3220 271 
Q 2806 -91 2034 -91 
Q 1263 -91 848 271 
Q 434 634 434 1313 
Q 434 1759 690 2068 
Q 947 2378 1403 2484 
z
M 1172 3481 
Q 1172 3119 1398 2916 
Q 1625 2713 2034 2713 
Q 2441 2713 2670 2916 
Q 2900 3119 2900 3481 
Q 2900 3844 2670 4047 
Q 2441 4250 2034 4250 
Q 1625 4250 1398 4047 
Q 1172 3844 1172 3481 
z
" transform="scale(0.015625)"/>
       </defs>
       <use xlink:href="#DejaVuSans-68"/>
       <use xlink:href="#DejaVuSans-71" x="63.378906"/>
       <use xlink:href="#DejaVuSans-63" x="126.855469"/>
       <use xlink:href="#DejaVuSans-31" x="181.835938"/>
       <use xlink:href="#DejaVuSans-32" x="245.458984"/>
       <use xlink:href="#DejaVuSans-38" x="309.082031"/>
      </g>
     </g>
    </g>
    <g id="xtick_4">
     <g id="text_4">
      <!-- p256_hqc128 -->
      <g style="fill: #262626" transform="translate(534.010834 412.753193) rotate(-15) scale(0.12 -0.12)">
       <defs>
        <path id="DejaVuSans-70" d="M 1159 525 
L 1159 -1331 
L 581 -1331 
L 581 3500 
L 1159 3500 
L 1159 2969 
Q 1341 3281 1617 3432 
Q 1894 3584 2278 3584 
Q 2916 3584 3314 3078 
Q 3713 2572 3713 1747 
Q 3713 922 3314 415 
Q 2916 -91 2278 -91 
Q 1894 -91 1617 61 
Q 1341 213 1159 525 
z
M 3116 1747 
Q 3116 2381 2855 2742 
Q 2594 3103 2138 3103 
Q 1681 3103 1420 2742 
Q 1159 2381 1159 1747 
Q 1159 1113 1420 752 
Q 1681 391 2138 391 
Q 2594 391 2855 752 
Q 3116 1113 3116 1747 
z
" transform="scale(0.015625)"/>
        <path id="DejaVuSans-5f" d="M 3263 -1063 
L 3263 -1509 
L -63 -1509 
L -63 -1063 
L 3263 -1063 
z
" transform="scale(0.015625)"/>
       </defs>
       <use xlink:href="#DejaVuSans-70"/>
       <use xlink:href="#DejaVuSans-32" x="63.476562"/>
       <use xlink:href="#DejaVuSans-35" x="127.099609"/>
       <use xlink:href="#DejaVuSans-36" x="190.722656"/>
       <use xlink:href="#DejaVuSans-5f" x="254.345703"/>
       <use xlink:href="#DejaVuSans-68" x="304.345703"/>
       <use xlink:href="#DejaVuSans-71" x="367.724609"/>
       <use xlink:href="#DejaVuSans-63" x="431.201172"/>
       <use xlink:href="#DejaVuSans-31" x="486.181641"/>
       <use xlink:href="#DejaVuSans-32" x="549.804688"/>
       <use xlink:href="#DejaVuSans-38" x="613.427734"/>
      </g>
     </g>
    </g>
    <g id="xtick_5">
     <g id="text_5">
      <!-- x25519_hqc128 -->
      <g style="fill: #262626" transform="translate(678.303202 416.571906) rotate(-15) scale(0.12 -0.12)">
       <use xlink:href="#DejaVuSans-78"/>
       <use xlink:href="#DejaVuSans-32" x="59.179688"/>
       <use xlink:href="#DejaVuSans-35" x="122.802734"/>
       <use xlink:href="#DejaVuSans-35" x="186.425781"/>
       <use xlink:href="#DejaVuSans-31" x="250.048828"/>
       <use xlink:href="#DejaVuSans-39" x="313.671875"/>
       <use xlink:href="#DejaVuSans-5f" x="377.294922"/>
       <use xlink:href="#DejaVuSans-68" x="427.294922"/>
       <use xlink:href="#DejaVuSans-71" x="490.673828"/>
       <use xlink:href="#DejaVuSans-63" x="554.150391"/>
       <use xlink:href="#DejaVuSans-31" x="609.130859"/>
       <use xlink:href="#DejaVuSans-32" x="672.753906"/>
       <use xlink:href="#DejaVuSans-38" x="736.376953"/>
      </g>
     </g>
    </g>
   </g>
   <g id="matplotlib.axis_2">
    <g id="ytick_1">
     <g id="line2d_1">
      <path d="M 58.32 366.007731 
L 851.04 366.007731 
" clip-path="url(#p8807cb1e3e)" style="fill: none; stroke: #cccccc; stroke-linecap: round"/>
     </g>
     <g id="text_6">
      <!-- 100 -->
      <g style="fill: #262626" transform="translate(27.82375 370.186871) scale(0.11 -0.11)">
       <defs>
        <path id="DejaVuSans-30" d="M 2034 4250 
Q 1547 4250 1301 3770 
Q 1056 3291 1056 2328 
Q 1056 1369 1301 889 
Q 1547 409 2034 409 
Q 2525 409 2770 889 
Q 3016 1369 3016 2328 
Q 3016 3291 2770 3770 
Q 2525 4250 2034 4250 
z
M 2034 4750 
Q 2819 4750 3233 4129 
Q 3647 3509 3647 2328 
Q 3647 1150 3233 529 
Q 2819 -91 2034 -91 
Q 1250 -91 836 529 
Q 422 1150 422 2328 
Q 422 3509 836 4129 
Q 1250 4750 2034 4750 
z
" transform="scale(0.015625)"/>
       </defs>
       <use xlink:href="#DejaVuSans-31"/>
       <use xlink:href="#DejaVuSans-30" x="63.623047"/>
       <use xlink:href="#DejaVuSans-30" x="127.246094"/>
      </g>
     </g>
    </g>
    <g id="ytick_2">
     <g id="line2d_2">
      <path d="M 58.32 321.833189 
L 851.04 321.833189 
" clip-path="url(#p8807cb1e3e)" style="fill: none; stroke: #cccccc; stroke-linecap: round"/>
     </g>
     <g id="text_7">
      <!-- 200 -->
      <g style="fill: #262626" transform="translate(27.82375 326.012329) scale(0.11 -0.11)">
       <use xlink:href="#DejaVuSans-32"/>
       <use xlink:href="#DejaVuSans-30" x="63.623047"/>
       <use xlink:href="#DejaVuSans-30" x="127.246094"/>
      </g>
     </g>
    </g>
    <g id="ytick_3">
     <g id="line2d_3">
      <path d="M 58.32 277.658647 
L 851.04 277.658647 
" clip-path="url(#p8807cb1e3e)" style="fill: none; stroke: #cccccc; stroke-linecap: round"/>
     </g>
     <g id="text_8">
      <!-- 300 -->
      <g style="fill: #262626" transform="translate(27.82375 281.837787) scale(0.11 -0.11)">
       <defs>
        <path id="DejaVuSans-33" d="M 2597 2516 
Q 3050 2419 3304 2112 
Q 3559 1806 3559 1356 
Q 3559 666 3084 287 
Q 2609 -91 1734 -91 
Q 1441 -91 1130 -33 
Q 819 25 488 141 
L 488 750 
Q 750 597 1062 519 
Q 1375 441 1716 441 
Q 2309 441 2620 675 
Q 2931 909 2931 1356 
Q 2931 1769 2642 2001 
Q 2353 2234 1838 2234 
L 1294 2234 
L 1294 2753 
L 1863 2753 
Q 2328 2753 2575 2939 
Q 2822 3125 2822 3475 
Q 2822 3834 2567 4026 
Q 2313 4219 1838 4219 
Q 1578 4219 1281 4162 
Q 984 4106 628 3988 
L 628 4550 
Q 988 4650 1302 4700 
Q 1616 4750 1894 4750 
Q 2613 4750 3031 4423 
Q 3450 4097 3450 3541 
Q 3450 3153 3228 2886 
Q 3006 2619 2597 2516 
z
" transform="scale(0.015625)"/>
       </defs>
       <use xlink:href="#DejaVuSans-33"/>
       <use xlink:href="#DejaVuSans-30" x="63.623047"/>
       <use xlink:href="#DejaVuSans-30" x="127.246094"/>
      </g>
     </g>
    </g>
    <g id="ytick_4">
     <g id="line2d_4">
      <path d="M 58.32 233.484105 
L 851.04 233.484105 
" clip-path="url(#p8807cb1e3e)" style="fill: none; stroke: #cccccc; stroke-linecap: round"/>
     </g>
     <g id="text_9">
      <!-- 400 -->
      <g style="fill: #262626" transform="translate(27.82375 237.663245) scale(0.11 -0.11)">
       <defs>
        <path id="DejaVuSans-34" d="M 2419 4116 
L 825 1625 
L 2419 1625 
L 2419 4116 
z
M 2253 4666 
L 3047 4666 
L 3047 1625 
L 3713 1625 
L 3713 1100 
L 3047 1100 
L 3047 0 
L 2419 0 
L 2419 1100 
L 313 1100 
L 313 1709 
L 2253 4666 
z
" transform="scale(0.015625)"/>
       </defs>
       <use xlink:href="#DejaVuSans-34"/>
       <use xlink:href="#DejaVuSans-30" x="63.623047"/>
       <use xlink:href="#DejaVuSans-30" x="127.246094"/>
      </g>
     </g>
    </g>
    <g id="ytick_5">
     <g id="line2d_5">
      <path d="M 58.32 189.309563 
L 851.04 189.309563 
" clip-path="url(#p8807cb1e3e)" style="fill: none; stroke: #cccccc; stroke-linecap: round"/>
     </g>
     <g id="text_10">
      <!-- 500 -->
      <g style="fill: #262626" transform="translate(27.82375 193.488704) scale(0.11 -0.11)">
       <use xlink:href="#DejaVuSans-35"/>
       <use xlink:href="#DejaVuSans-30" x="63.623047"/>
       <use xlink:href="#DejaVuSans-30" x="127.246094"/>
      </g>
     </g>
    </g>
    <g id="ytick_6">
     <g id="line2d_6">
      <path d="M 58.32 145.135021 
L 851.04 145.135021 
" clip-path="url(#p8807cb1e3e)" style="fill: none; stroke: #cccccc; stroke-linecap: round"/>
     </g>
     <g id="text_11">
      <!-- 600 -->
      <g style="fill: #262626" transform="translate(27.82375 149.314162) scale(0.11 -0.11)">
       <use xlink:href="#DejaVuSans-36"/>
       <use xlink:href="#DejaVuSans-30" x="63.623047"/>
       <use xlink:href="#DejaVuSans-30" x="127.246094"/>
      </g>
     </g>
    </g>
    <g id="ytick_7">
     <g id="line2d_7">
      <path d="M 58.32 100.960479 
L 851.04 100.960479 
" clip-path="url(#p8807cb1e3e)" style="fill: none; stroke: #cccccc; stroke-linecap: round"/>
     </g>
     <g id="text_12">
      <!-- 700 -->
      <g style="fill: #262626" transform="translate(27.82375 105.13962) scale(0.11 -0.11)">
       <defs>
        <path id="DejaVuSans-37" d="M 525 4666 
L 3525 4666 
L 3525 4397 
L 1831 0 
L 1172 0 
L 2766 4134 
L 525 4134 
L 525 4666 
z
" transform="scale(0.015625)"/>
       </defs>
       <use xlink:href="#DejaVuSans-37"/>
       <use xlink:href="#DejaVuSans-30" x="63.623047"/>
       <use xlink:href="#DejaVuSans-30" x="127.246094"/>
      </g>
     </g>
    </g>
    <g id="ytick_8">
     <g id="line2d_8">
      <path d="M 58.32 56.785937 
L 851.04 56.785937 
" clip-path="url(#p8807cb1e3e)" style="fill: none; stroke: #cccccc; stroke-linecap: round"/>
     </g>
     <g id="text_13">
      <!-- 800 -->
      <g style="fill: #262626" transform="translate(27.82375 60.965078) scale(0.11 -0.11)">
       <use xlink:href="#DejaVuSans-38"/>
       <use xlink:href="#DejaVuSans-30" x="63.623047"/>
       <use xlink:href="#DejaVuSans-30" x="127.246094"/>
      </g>
     </g>
    </g>
    <g id="text_14">
     <!-- Handshake duration (ms) -->
     <g style="fill: #262626" transform="translate(21.328125 276.57625) rotate(-90) scale(0.12 -0.12)">
      <defs>
       <path id="DejaVuSans-48" d="M 628 4666 
L 1259 4666 
L 1259 2753 
L 3553 2753 
L 3553 4666 
L 4184 4666 
L 4184 0 
L 3553 0 
L 3553 2222 
L 1259 2222 
L 1259 0 
L 628 0 
L 628 4666 
z
" transform="scale(0.015625)"/>
       <path id="DejaVuSans-61" d="M 2194 1759 
Q 1497 1759 1228 1600 
Q 959 1441 959 1056 
Q 959 750 1161 570 
Q 1363 391 1709 391 
Q 2188 391 2477 730 
Q 2766 1069 2766 1631 
L 2766 1759 
L 2194 1759 
z
M 3341 1997 
L 3341 0 
L 2766 0 
L 2766 531 
Q 2569 213 2275 61 
Q 1981 -91 1556 -91 
Q 1019 -91 701 211 
Q 384 513 384 1019 
Q 384 1609 779 1909 
Q 1175 2209 1959 2209 
L 2766 2209 
L 2766 2266 
Q 2766 2663 2505 2880 
Q 2244 3097 1772 3097 
Q 1472 3097 1187 3025 
Q 903 2953 641 2809 
L 641 3341 
Q 956 3463 1253 3523 
Q 1550 3584 1831 3584 
Q 2591 3584 2966 3190 
Q 3341 2797 3341 1997 
z
" transform="scale(0.015625)"/>
       <path id="DejaVuSans-6e" d="M 3513 2113 
L 3513 0 
L 2938 0 
L 2938 2094 
Q 2938 2591 2744 2837 
Q 2550 3084 2163 3084 
Q 1697 3084 1428 2787 
Q 1159 2491 1159 1978 
L 1159 0 
L 581 0 
L 581 3500 
L 1159 3500 
L 1159 2956 
Q 1366 3272 1645 3428 
Q 1925 3584 2291 3584 
Q 2894 3584 3203 3211 
Q 3513 2838 3513 2113 
z
" transform="scale(0.015625)"/>
       <path id="DejaVuSans-64" d="M 2906 2969 
L 2906 4863 
L 3481 4863 
L 3481 0 
L 2906 0 
L 2906 525 
Q 2725 213 2448 61 
Q 2172 -91 1784 -91 
Q 1150 -91 751 415 
Q 353 922 353 1747 
Q 353 2572 751 3078 
Q 1150 3584 1784 3584 
Q 2172 3584 2448 3432 
Q 2725 3281 2906 2969 
z
M 947 1747 
Q 947 1113 1208 752 
Q 1469 391 1925 391 
Q 2381 391 2643 752 
Q 2906 1113 2906 1747 
Q 2906 2381 2643 2742 
Q 2381 3103 1925 3103 
Q 1469 3103 1208 2742 
Q 947 2381 947 1747 
z
" transform="scale(0.015625)"/>
       <path id="DejaVuSans-73" d="M 2834 3397 
L 2834 2853 
Q 2591 2978 2328 3040 
Q 2066 3103 1784 3103 
Q 1356 3103 1142 2972 
Q 928 2841 928 2578 
Q 928 2378 1081 2264 
Q 1234 2150 1697 2047 
L 1894 2003 
Q 2506 1872 2764 1633 
Q 3022 1394 3022 966 
Q 3022 478 2636 193 
Q 2250 -91 1575 -91 
Q 1294 -91 989 -36 
Q 684 19 347 128 
L 347 722 
Q 666 556 975 473 
Q 1284 391 1588 391 
Q 1994 391 2212 530 
Q 2431 669 2431 922 
Q 2431 1156 2273 1281 
Q 2116 1406 1581 1522 
L 1381 1569 
Q 847 1681 609 1914 
Q 372 2147 372 2553 
Q 372 3047 722 3315 
Q 1072 3584 1716 3584 
Q 2034 3584 2315 3537 
Q 2597 3491 2834 3397 
z
" transform="scale(0.015625)"/>
       <path id="DejaVuSans-6b" d="M 581 4863 
L 1159 4863 
L 1159 1991 
L 2875 3500 
L 3609 3500 
L 1753 1863 
L 3688 0 
L 2938 0 
L 1159 1709 
L 1159 0 
L 581 0 
L 581 4863 
z
" transform="scale(0.015625)"/>
       <path id="DejaVuSans-65" d="M 3597 1894 
L 3597 1613 
L 953 1613 
Q 991 1019 1311 708 
Q 1631 397 2203 397 
Q 2534 397 2845 478 
Q 3156 559 3463 722 
L 3463 178 
Q 3153 47 2828 -22 
Q 2503 -91 2169 -91 
Q 1331 -91 842 396 
Q 353 884 353 1716 
Q 353 2575 817 3079 
Q 1281 3584 2069 3584 
Q 2775 3584 3186 3129 
Q 3597 2675 3597 1894 
z
M 3022 2063 
Q 3016 2534 2758 2815 
Q 2500 3097 2075 3097 
Q 1594 3097 1305 2825 
Q 1016 2553 972 2059 
L 3022 2063 
z
" transform="scale(0.015625)"/>
       <path id="DejaVuSans-20" transform="scale(0.015625)"/>
       <path id="DejaVuSans-75" d="M 544 1381 
L 544 3500 
L 1119 3500 
L 1119 1403 
Q 1119 906 1312 657 
Q 1506 409 1894 409 
Q 2359 409 2629 706 
Q 2900 1003 2900 1516 
L 2900 3500 
L 3475 3500 
L 3475 0 
L 2900 0 
L 2900 538 
Q 2691 219 2414 64 
Q 2138 -91 1772 -91 
Q 1169 -91 856 284 
Q 544 659 544 1381 
z
M 1991 3584 
L 1991 3584 
z
" transform="scale(0.015625)"/>
       <path id="DejaVuSans-72" d="M 2631 2963 
Q 2534 3019 2420 3045 
Q 2306 3072 2169 3072 
Q 1681 3072 1420 2755 
Q 1159 2438 1159 1844 
L 1159 0 
L 581 0 
L 581 3500 
L 1159 3500 
L 1159 2956 
Q 1341 3275 1631 3429 
Q 1922 3584 2338 3584 
Q 2397 3584 2469 3576 
Q 2541 3569 2628 3553 
L 2631 2963 
z
" transform="scale(0.015625)"/>
       <path id="DejaVuSans-74" d="M 1172 4494 
L 1172 3500 
L 2356 3500 
L 2356 3053 
L 1172 3053 
L 1172 1153 
Q 1172 725 1289 603 
Q 1406 481 1766 481 
L 2356 481 
L 2356 0 
L 1766 0 
Q 1100 0 847 248 
Q 594 497 594 1153 
L 594 3053 
L 172 3053 
L 172 3500 
L 594 3500 
L 594 4494 
L 1172 4494 
z
" transform="scale(0.015625)"/>
       <path id="DejaVuSans-69" d="M 603 3500 
L 1178 3500 
L 1178 0 
L 603 0 
L 603 3500 
z
M 603 4863 
L 1178 4863 
L 1178 4134 
L 603 4134 
L 603 4863 
z
" transform="scale(0.015625)"/>
       <path id="DejaVuSans-6f" d="M 1959 3097 
Q 1497 3097 1228 2736 
Q 959 2375 959 1747 
Q 959 1119 1226 758 
Q 1494 397 1959 397 
Q 2419 397 2687 759 
Q 2956 1122 2956 1747 
Q 2956 2369 2687 2733 
Q 2419 3097 1959 3097 
z
M 1959 3584 
Q 2709 3584 3137 3096 
Q 3566 2609 3566 1747 
Q 3566 888 3137 398 
Q 2709 -91 1959 -91 
Q 1206 -91 779 398 
Q 353 888 353 1747 
Q 353 2609 779 3096 
Q 1206 3584 1959 3584 
z
" transform="scale(0.015625)"/>
       <path id="DejaVuSans-28" d="M 1984 4856 
Q 1566 4138 1362 3434 
Q 1159 2731 1159 2009 
Q 1159 1288 1364 580 
Q 1569 -128 1984 -844 
L 1484 -844 
Q 1016 -109 783 600 
Q 550 1309 550 2009 
Q 550 2706 781 3412 
Q 1013 4119 1484 4856 
L 1984 4856 
z
" transform="scale(0.015625)"/>
       <path id="DejaVuSans-6d" d="M 3328 2828 
Q 3544 3216 3844 3400 
Q 4144 3584 4550 3584 
Q 5097 3584 5394 3201 
Q 5691 2819 5691 2113 
L 5691 0 
L 5113 0 
L 5113 2094 
Q 5113 2597 4934 2840 
Q 4756 3084 4391 3084 
Q 3944 3084 3684 2787 
Q 3425 2491 3425 1978 
L 3425 0 
L 2847 0 
L 2847 2094 
Q 2847 2600 2669 2842 
Q 2491 3084 2119 3084 
Q 1678 3084 1418 2786 
Q 1159 2488 1159 1978 
L 1159 0 
L 581 0 
L 581 3500 
L 1159 3500 
L 1159 2956 
Q 1356 3278 1631 3431 
Q 1906 3584 2284 3584 
Q 2666 3584 2933 3390 
Q 3200 3197 3328 2828 
z
" transform="scale(0.015625)"/>
       <path id="DejaVuSans-29" d="M 513 4856 
L 1013 4856 
Q 1481 4119 1714 3412 
Q 1947 2706 1947 2009 
Q 1947 1309 1714 600 
Q 1481 -109 1013 -844 
L 513 -844 
Q 928 -128 1133 580 
Q 1338 1288 1338 2009 
Q 1338 2731 1133 3434 
Q 928 4138 513 4856 
z
" transform="scale(0.015625)"/>
      </defs>
      <use xlink:href="#DejaVuSans-48"/>
      <use xlink:href="#DejaVuSans-61" x="75.195312"/>
      <use xlink:href="#DejaVuSans-6e" x="136.474609"/>
      <use xlink:href="#DejaVuSans-64" x="199.853516"/>
      <use xlink:href="#DejaVuSans-73" x="263.330078"/>
      <use xlink:href="#DejaVuSans-68" x="315.429688"/>
      <use xlink:href="#DejaVuSans-61" x="378.808594"/>
      <use xlink:href="#DejaVuSans-6b" x="440.087891"/>
      <use xlink:href="#DejaVuSans-65" x="494.373047"/>
      <use xlink:href="#DejaVuSans-20" x="555.896484"/>
      <use xlink:href="#DejaVuSans-64" x="587.683594"/>
      <use xlink:href="#DejaVuSans-75" x="651.160156"/>
      <use xlink:href="#DejaVuSans-72" x="714.539062"/>
      <use xlink:href="#DejaVuSans-61" x="755.652344"/>
      <use xlink:href="#DejaVuSans-74" x="816.931641"/>
      <use xlink:href="#DejaVuSans-69" x="856.140625"/>
      <use xlink:href="#DejaVuSans-6f" x="883.923828"/>
      <use xlink:href="#DejaVuSans-6e" x="945.105469"/>
      <use xlink:href="#DejaVuSans-20" x="1008.484375"/>
      <use xlink:href="#DejaVuSans-28" x="1040.271484"/>
      <use xlink:href="#DejaVuSans-6d" x="1079.285156"/>
      <use xlink:href="#DejaVuSans-73" x="1176.697266"/>
      <use xlink:href="#DejaVuSans-29" x="1228.796875"/>
     </g>
    </g>
   </g>
   <g id="PolyCollection_1">
    <defs>
     <path id="mc123e9544c" d="M 141.978891 -74.302074 
L 133.205109 -74.302074 
L 129.505806 -75.771736 
L 123.822244 -77.241398 
L 115.930923 -78.71106 
L 106.115804 -80.180722 
L 95.343681 -81.650384 
L 85.215271 -83.120046 
L 77.620344 -84.589708 
L 74.1744 -86.05937 
L 75.661079 -87.529032 
L 81.7427 -88.998694 
L 91.084868 -90.468356 
L 101.832375 -91.938018 
L 112.204572 -93.40768 
L 120.951028 -94.877343 
L 127.521366 -96.347005 
L 131.965426 -97.816667 
L 134.689554 -99.286329 
L 136.209043 -100.755991 
L 136.981852 -102.225653 
L 137.339584 -103.695315 
L 137.487983 -105.164977 
L 137.53899 -106.634639 
L 137.546804 -108.104301 
L 137.535426 -109.573963 
L 137.515571 -111.043625 
L 137.493355 -112.513287 
L 137.473735 -113.982949 
L 137.461033 -115.452611 
L 137.45818 -116.922273 
L 137.465862 -118.391935 
L 137.482324 -119.861597 
L 137.504033 -121.331259 
L 137.526917 -122.800921 
L 137.547582 -124.270583 
L 137.564037 -125.740245 
L 137.575761 -127.209907 
L 137.583301 -128.679569 
L 137.587702 -130.149232 
L 137.590041 -131.618894 
L 137.591176 -133.088556 
L 137.59168 -134.558218 
L 137.591886 -136.02788 
L 137.591962 -137.497542 
L 137.591989 -138.967204 
L 137.591997 -140.436866 
L 137.591999 -141.906528 
L 137.592 -143.37619 
L 137.592 -144.845852 
L 137.592 -146.315514 
L 137.592 -147.785176 
L 137.592 -149.254838 
L 137.592 -150.7245 
L 137.592 -152.194162 
L 137.592 -153.663824 
L 137.592 -155.133486 
L 137.592 -156.603148 
L 137.592 -158.07281 
L 137.592 -159.542472 
L 137.592 -161.012134 
L 137.592 -162.481796 
L 137.592 -163.951458 
L 137.592 -165.421121 
L 137.592 -166.890783 
L 137.592 -168.360445 
L 137.592 -169.830107 
L 137.592 -171.299769 
L 137.592 -172.769431 
L 137.592 -174.239093 
L 137.592 -175.708755 
L 137.592 -177.178417 
L 137.592 -178.648079 
L 137.591998 -180.117741 
L 137.591992 -181.587403 
L 137.59197 -183.057065 
L 137.591895 -184.526727 
L 137.591662 -185.996389 
L 137.590992 -187.466051 
L 137.589217 -188.935713 
L 137.584896 -190.405375 
L 137.575222 -191.875037 
L 137.55534 -193.344699 
L 137.517879 -194.814361 
L 137.45331 -196.284023 
L 137.351804 -197.753685 
L 137.206914 -199.223347 
L 137.020423 -200.69301 
L 136.806462 -202.162672 
L 136.592276 -203.632334 
L 136.413704 -205.101996 
L 136.305757 -206.571658 
L 136.291494 -208.04132 
L 136.374017 -209.510982 
L 136.535377 -210.980644 
L 136.742918 -212.450306 
L 136.959992 -213.919968 
L 137.156263 -215.38963 
L 137.313754 -216.859292 
L 137.427448 -218.328954 
L 137.501882 -219.798616 
L 137.682118 -219.798616 
L 137.682118 -219.798616 
L 137.756552 -218.328954 
L 137.870246 -216.859292 
L 138.027737 -215.38963 
L 138.224008 -213.919968 
L 138.441082 -212.450306 
L 138.648623 -210.980644 
L 138.809983 -209.510982 
L 138.892506 -208.04132 
L 138.878243 -206.571658 
L 138.770296 -205.101996 
L 138.591724 -203.632334 
L 138.377538 -202.162672 
L 138.163577 -200.69301 
L 137.977086 -199.223347 
L 137.832196 -197.753685 
L 137.73069 -196.284023 
L 137.666121 -194.814361 
L 137.62866 -193.344699 
L 137.608778 -191.875037 
L 137.599104 -190.405375 
L 137.594783 -188.935713 
L 137.593008 -187.466051 
L 137.592338 -185.996389 
L 137.592105 -184.526727 
L 137.59203 -183.057065 
L 137.592008 -181.587403 
L 137.592002 -180.117741 
L 137.592 -178.648079 
L 137.592 -177.178417 
L 137.592 -175.708755 
L 137.592 -174.239093 
L 137.592 -172.769431 
L 137.592 -171.299769 
L 137.592 -169.830107 
L 137.592 -168.360445 
L 137.592 -166.890783 
L 137.592 -165.421121 
L 137.592 -163.951458 
L 137.592 -162.481796 
L 137.592 -161.012134 
L 137.592 -159.542472 
L 137.592 -158.07281 
L 137.592 -156.603148 
L 137.592 -155.133486 
L 137.592 -153.663824 
L 137.592 -152.194162 
L 137.592 -150.7245 
L 137.592 -149.254838 
L 137.592 -147.785176 
L 137.592 -146.315514 
L 137.592 -144.845852 
L 137.592 -143.37619 
L 137.592001 -141.906528 
L 137.592003 -140.436866 
L 137.592011 -138.967204 
L 137.592038 -137.497542 
L 137.592114 -136.02788 
L 137.59232 -134.558218 
L 137.592824 -133.088556 
L 137.593959 -131.618894 
L 137.596298 -130.149232 
L 137.600699 -128.679569 
L 137.608239 -127.209907 
L 137.619963 -125.740245 
L 137.636418 -124.270583 
L 137.657083 -122.800921 
L 137.679967 -121.331259 
L 137.701676 -119.861597 
L 137.718138 -118.391935 
L 137.72582 -116.922273 
L 137.722967 -115.452611 
L 137.710265 -113.982949 
L 137.690645 -112.513287 
L 137.668429 -111.043625 
L 137.648574 -109.573963 
L 137.637196 -108.104301 
L 137.64501 -106.634639 
L 137.696017 -105.164977 
L 137.844416 -103.695315 
L 138.202148 -102.225653 
L 138.974957 -100.755991 
L 140.494446 -99.286329 
L 143.218574 -97.816667 
L 147.662634 -96.347005 
L 154.232972 -94.877343 
L 162.979428 -93.40768 
L 173.351625 -91.938018 
L 184.099132 -90.468356 
L 193.4413 -88.998694 
L 199.522921 -87.529032 
L 201.0096 -86.05937 
L 197.563656 -84.589708 
L 189.968729 -83.120046 
L 179.840319 -81.650384 
L 169.068196 -80.180722 
L 159.253077 -78.71106 
L 151.361756 -77.241398 
L 145.678194 -75.771736 
L 141.978891 -74.302074 
z
" style="stroke: #595959; stroke-width: 1.25"/>
    </defs>
    <g clip-path="url(#p8807cb1e3e)">
     <use xlink:href="#mc123e9544c" x="0" y="432" style="fill: #72b6a1; stroke: #595959; stroke-width: 1.25"/>
    </g>
   </g>
   <g id="PolyCollection_2">
    <defs>
     <path id="mfff98114d3" d="M 299.238319 -76.445868 
L 293.033681 -76.445868 
L 289.26063 -77.860843 
L 282.639418 -79.275818 
L 272.672455 -80.690793 
L 260.016938 -82.105767 
L 246.910535 -83.520742 
L 236.748146 -84.935717 
L 232.7184 -86.350692 
L 236.200809 -87.765667 
L 246.00866 -89.180641 
L 259.03773 -90.595616 
L 271.842571 -92.010591 
L 282.060817 -93.425566 
L 288.921156 -94.84054 
L 292.864189 -96.255515 
L 294.823431 -97.67049 
L 295.670181 -99.085465 
L 295.989746 -100.500439 
L 296.095317 -101.915414 
L 296.125755 -103.330389 
L 296.132961 -104.745364 
L 296.13309 -106.160339 
L 296.129621 -107.575313 
L 296.121885 -108.990288 
L 296.108123 -110.405263 
L 296.087304 -111.820238 
L 296.060808 -113.235212 
L 296.033377 -114.650187 
L 296.0122 -116.065162 
L 296.003992 -117.480137 
L 296.011583 -118.895112 
L 296.032352 -120.310086 
L 296.059679 -121.725061 
L 296.086326 -123.140036 
L 296.107423 -124.555011 
L 296.121469 -125.969985 
L 296.129469 -127.38496 
L 296.133405 -128.799935 
L 296.135089 -130.21491 
L 296.135717 -131.629884 
L 296.135922 -133.044859 
L 296.135981 -134.459834 
L 296.135996 -135.874809 
L 296.135999 -137.289784 
L 296.136 -138.704758 
L 296.136 -140.119733 
L 296.136 -141.534708 
L 296.136 -142.949683 
L 296.136 -144.364657 
L 296.136 -145.779632 
L 296.136 -147.194607 
L 296.136 -148.609582 
L 296.136 -150.024557 
L 296.136 -151.439531 
L 296.136 -152.854506 
L 296.136 -154.269481 
L 296.136 -155.684456 
L 296.136 -157.09943 
L 296.136 -158.514405 
L 296.136 -159.92938 
L 296.136 -161.344355 
L 296.136 -162.759329 
L 296.136 -164.174304 
L 296.136 -165.589279 
L 296.136 -167.004254 
L 296.136 -168.419229 
L 296.136 -169.834203 
L 296.136 -171.249178 
L 296.136 -172.664153 
L 296.136 -174.079128 
L 296.136 -175.494102 
L 296.136 -176.909077 
L 296.136 -178.324052 
L 296.136 -179.739027 
L 296.136 -181.154002 
L 296.136 -182.568976 
L 296.136 -183.983951 
L 296.136 -185.398926 
L 296.135998 -186.813901 
L 296.135991 -188.228875 
L 296.135954 -189.64385 
L 296.1358 -191.058825 
L 296.13523 -192.4738 
L 296.133369 -193.888774 
L 296.128031 -195.303749 
L 296.114595 -196.718724 
L 296.085004 -198.133699 
L 296.028234 -199.548674 
L 295.933977 -200.963648 
L 295.800009 -202.378623 
L 295.640218 -203.793598 
L 295.486906 -205.208573 
L 295.381982 -206.623547 
L 295.358842 -208.038522 
L 295.425321 -209.453497 
L 295.559436 -210.868472 
L 295.721051 -212.283447 
L 295.871106 -213.698421 
L 295.986023 -215.113396 
L 296.0607 -216.528371 
L 296.2113 -216.528371 
L 296.2113 -216.528371 
L 296.285977 -215.113396 
L 296.400894 -213.698421 
L 296.550949 -212.283447 
L 296.712564 -210.868472 
L 296.846679 -209.453497 
L 296.913158 -208.038522 
L 296.890018 -206.623547 
L 296.785094 -205.208573 
L 296.631782 -203.793598 
L 296.471991 -202.378623 
L 296.338023 -200.963648 
L 296.243766 -199.548674 
L 296.186996 -198.133699 
L 296.157405 -196.718724 
L 296.143969 -195.303749 
L 296.138631 -193.888774 
L 296.13677 -192.4738 
L 296.1362 -191.058825 
L 296.136046 -189.64385 
L 296.136009 -188.228875 
L 296.136002 -186.813901 
L 296.136 -185.398926 
L 296.136 -183.983951 
L 296.136 -182.568976 
L 296.136 -181.154002 
L 296.136 -179.739027 
L 296.136 -178.324052 
L 296.136 -176.909077 
L 296.136 -175.494102 
L 296.136 -174.079128 
L 296.136 -172.664153 
L 296.136 -171.249178 
L 296.136 -169.834203 
L 296.136 -168.419229 
L 296.136 -167.004254 
L 296.136 -165.589279 
L 296.136 -164.174304 
L 296.136 -162.759329 
L 296.136 -161.344355 
L 296.136 -159.92938 
L 296.136 -158.514405 
L 296.136 -157.09943 
L 296.136 -155.684456 
L 296.136 -154.269481 
L 296.136 -152.854506 
L 296.136 -151.439531 
L 296.136 -150.024557 
L 296.136 -148.609582 
L 296.136 -147.194607 
L 296.136 -145.779632 
L 296.136 -144.364657 
L 296.136 -142.949683 
L 296.136 -141.534708 
L 296.136 -140.119733 
L 296.136 -138.704758 
L 296.136001 -137.289784 
L 296.136004 -135.874809 
L 296.136019 -134.459834 
L 296.136078 -133.044859 
L 296.136283 -131.629884 
L 296.136911 -130.21491 
L 296.138595 -128.799935 
L 296.142531 -127.38496 
L 296.150531 -125.969985 
L 296.164577 -124.555011 
L 296.185674 -123.140036 
L 296.212321 -121.725061 
L 296.239648 -120.310086 
L 296.260417 -118.895112 
L 296.268008 -117.480137 
L 296.2598 -116.065162 
L 296.238623 -114.650187 
L 296.211192 -113.235212 
L 296.184696 -111.820238 
L 296.163877 -110.405263 
L 296.150115 -108.990288 
L 296.142379 -107.575313 
L 296.13891 -106.160339 
L 296.139039 -104.745364 
L 296.146245 -103.330389 
L 296.176683 -101.915414 
L 296.282254 -100.500439 
L 296.601819 -99.085465 
L 297.448569 -97.67049 
L 299.407811 -96.255515 
L 303.350844 -94.84054 
L 310.211183 -93.425566 
L 320.429429 -92.010591 
L 333.23427 -90.595616 
L 346.26334 -89.180641 
L 356.071191 -87.765667 
L 359.5536 -86.350692 
L 355.523854 -84.935717 
L 345.361465 -83.520742 
L 332.255062 -82.105767 
L 319.599545 -80.690793 
L 309.632582 -79.275818 
L 303.01137 -77.860843 
L 299.238319 -76.445868 
z
" style="stroke: #595959; stroke-width: 1.25"/>
    </defs>
    <g clip-path="url(#p8807cb1e3e)">
     <use xlink:href="#mfff98114d3" x="0" y="432" style="fill: #e99675; stroke: #595959; stroke-width: 1.25"/>
    </g>
   </g>
   <g id="PolyCollection_3">
    <defs>
     <path id="m94967467cc" d="M 454.839891 -77.115586 
L 454.520109 -77.115586 
L 454.371262 -79.038469 
L 454.11672 -80.961352 
L 453.704494 -82.884236 
L 453.067404 -84.807119 
L 452.118957 -86.730002 
L 450.745052 -88.652885 
L 448.791519 -90.575768 
L 446.053094 -92.498652 
L 442.277907 -94.421535 
L 437.208418 -96.344418 
L 430.676538 -98.267301 
L 422.748959 -100.190184 
L 413.879456 -102.113068 
L 404.98656 -104.035951 
L 397.369794 -105.958834 
L 392.430414 -107.881717 
L 391.2624 -109.8046 
L 394.272209 -111.727484 
L 401.004154 -113.650367 
L 410.264636 -115.57325 
L 420.494806 -117.496133 
L 430.224877 -119.419016 
L 438.423174 -121.3419 
L 444.630811 -123.264783 
L 448.888743 -125.187666 
L 451.547023 -127.110549 
L 453.062455 -129.033432 
L 453.854517 -130.956316 
L 454.238169 -132.879199 
L 454.41619 -134.802082 
L 454.502252 -136.724965 
L 454.551444 -138.647848 
L 454.585871 -140.570732 
L 454.611737 -142.493615 
L 454.628812 -144.416498 
L 454.634614 -146.339381 
L 454.625575 -148.262264 
L 454.596947 -150.185148 
L 454.542652 -152.108031 
L 454.455736 -154.030914 
L 454.329557 -155.953797 
L 454.159436 -157.87668 
L 453.944308 -159.799564 
L 453.687985 -161.722447 
L 453.399833 -163.64533 
L 453.094803 -165.568213 
L 452.79271 -167.491096 
L 452.516616 -169.41398 
L 452.290337 -171.336863 
L 452.135506 -173.259746 
L 452.068857 -175.182629 
L 452.100156 -177.105512 
L 452.230683 -179.028396 
L 452.452059 -180.951279 
L 452.745715 -182.874162 
L 453.084037 -184.797045 
L 453.434088 -186.719928 
L 453.763585 -188.642812 
L 454.047273 -190.565695 
L 454.271221 -192.488578 
L 454.433515 -194.411461 
L 454.541567 -196.334344 
L 454.607699 -198.257228 
L 454.644927 -200.180111 
L 454.664211 -202.102994 
L 454.673409 -204.025877 
L 454.67745 -205.94876 
L 454.679086 -207.871644 
L 454.679696 -209.794527 
L 454.679903 -211.71741 
L 454.67996 -213.640293 
L 454.67995 -215.563176 
L 454.679869 -217.48606 
L 454.679635 -219.408943 
L 454.679044 -221.331826 
L 454.677665 -223.254709 
L 454.674677 -225.177592 
L 454.668637 -227.100476 
L 454.657229 -229.023359 
L 454.637039 -230.946242 
L 454.603477 -232.869125 
L 454.551014 -234.792008 
L 454.473929 -236.714892 
L 454.367774 -238.637775 
L 454.231589 -240.560658 
L 454.07048 -242.483541 
L 453.897573 -244.406425 
L 453.733945 -246.329308 
L 453.605402 -248.252191 
L 453.536221 -250.175074 
L 453.541735 -252.097957 
L 453.62284 -254.020841 
L 453.76509 -255.943724 
L 453.943052 -257.866607 
L 454.128034 -259.78949 
L 454.295856 -261.712373 
L 454.431718 -263.635257 
L 454.531036 -265.55814 
L 454.59706 -267.481023 
L 454.76294 -267.481023 
L 454.76294 -267.481023 
L 454.828964 -265.55814 
L 454.928282 -263.635257 
L 455.064144 -261.712373 
L 455.231966 -259.78949 
L 455.416948 -257.866607 
L 455.59491 -255.943724 
L 455.73716 -254.020841 
L 455.818265 -252.097957 
L 455.823779 -250.175074 
L 455.754598 -248.252191 
L 455.626055 -246.329308 
L 455.462427 -244.406425 
L 455.28952 -242.483541 
L 455.128411 -240.560658 
L 454.992226 -238.637775 
L 454.886071 -236.714892 
L 454.808986 -234.792008 
L 454.756523 -232.869125 
L 454.722961 -230.946242 
L 454.702771 -229.023359 
L 454.691363 -227.100476 
L 454.685323 -225.177592 
L 454.682335 -223.254709 
L 454.680956 -221.331826 
L 454.680365 -219.408943 
L 454.680131 -217.48606 
L 454.68005 -215.563176 
L 454.68004 -213.640293 
L 454.680097 -211.71741 
L 454.680304 -209.794527 
L 454.680914 -207.871644 
L 454.68255 -205.94876 
L 454.686591 -204.025877 
L 454.695789 -202.102994 
L 454.715073 -200.180111 
L 454.752301 -198.257228 
L 454.818433 -196.334344 
L 454.926485 -194.411461 
L 455.088779 -192.488578 
L 455.312727 -190.565695 
L 455.596415 -188.642812 
L 455.925912 -186.719928 
L 456.275963 -184.797045 
L 456.614285 -182.874162 
L 456.907941 -180.951279 
L 457.129317 -179.028396 
L 457.259844 -177.105512 
L 457.291143 -175.182629 
L 457.224494 -173.259746 
L 457.069663 -171.336863 
L 456.843384 -169.41398 
L 456.56729 -167.491096 
L 456.265197 -165.568213 
L 455.960167 -163.64533 
L 455.672015 -161.722447 
L 455.415692 -159.799564 
L 455.200564 -157.87668 
L 455.030443 -155.953797 
L 454.904264 -154.030914 
L 454.817348 -152.108031 
L 454.763053 -150.185148 
L 454.734425 -148.262264 
L 454.725386 -146.339381 
L 454.731188 -144.416498 
L 454.748263 -142.493615 
L 454.774129 -140.570732 
L 454.808556 -138.647848 
L 454.857748 -136.724965 
L 454.94381 -134.802082 
L 455.121831 -132.879199 
L 455.505483 -130.956316 
L 456.297545 -129.033432 
L 457.812977 -127.110549 
L 460.471257 -125.187666 
L 464.729189 -123.264783 
L 470.936826 -121.3419 
L 479.135123 -119.419016 
L 488.865194 -117.496133 
L 499.095364 -115.57325 
L 508.355846 -113.650367 
L 515.087791 -111.727484 
L 518.0976 -109.8046 
L 516.929586 -107.881717 
L 511.990206 -105.958834 
L 504.37344 -104.035951 
L 495.480544 -102.113068 
L 486.611041 -100.190184 
L 478.683462 -98.267301 
L 472.151582 -96.344418 
L 467.082093 -94.421535 
L 463.306906 -92.498652 
L 460.568481 -90.575768 
L 458.614948 -88.652885 
L 457.241043 -86.730002 
L 456.292596 -84.807119 
L 455.655506 -82.884236 
L 455.24328 -80.961352 
L 454.988738 -79.038469 
L 454.839891 -77.115586 
z
" style="stroke: #595959; stroke-width: 1.25"/>
    </defs>
    <g clip-path="url(#p8807cb1e3e)">
     <use xlink:href="#m94967467cc" x="0" y="432" style="fill: #95a3c3; stroke: #595959; stroke-width: 1.25"/>
    </g>
   </g>
   <g id="PolyCollection_4">
    <defs>
     <path id="mc1e3de4ae6" d="M 613.506756 -79.308306 
L 612.941244 -79.308306 
L 612.481803 -82.433283 
L 611.541894 -85.55826 
L 609.883377 -88.683238 
L 607.284482 -91.808215 
L 603.493996 -94.933192 
L 598.0692 -98.058169 
L 590.309297 -101.183146 
L 579.713168 -104.308124 
L 567.106359 -107.433101 
L 555.595287 -110.558078 
L 549.8064 -113.683055 
L 553.059849 -116.808033 
L 564.670756 -119.93301 
L 580.160009 -123.057987 
L 594.315198 -126.182964 
L 604.1689 -129.307942 
L 609.599219 -132.432919 
L 612.012388 -135.557896 
L 612.885964 -138.682873 
L 613.144785 -141.80785 
L 613.205891 -144.932828 
L 613.210208 -148.057805 
L 613.186249 -151.182782 
L 613.120654 -154.307759 
L 612.984823 -157.432737 
L 612.756964 -160.557714 
L 612.447173 -163.682691 
L 612.105579 -166.807668 
L 611.796159 -169.932645 
L 611.556813 -173.057623 
L 611.391179 -176.1826 
L 611.302704 -179.307577 
L 611.324625 -182.432554 
L 611.499927 -185.557532 
L 611.827753 -188.682509 
L 612.237998 -191.807486 
L 612.626491 -194.932463 
L 612.916583 -198.05744 
L 613.090657 -201.182418 
L 613.175467 -204.307395 
L 613.209223 -207.432372 
L 613.220237 -210.557349 
L 613.223156 -213.682327 
L 613.223606 -216.807304 
L 613.222873 -219.932281 
L 613.219961 -223.057258 
L 613.211613 -226.182235 
L 613.191708 -229.307213 
L 613.151402 -232.43219 
L 613.080411 -235.557167 
L 612.968757 -238.682144 
L 612.810178 -241.807122 
L 612.611752 -244.932099 
L 612.408476 -248.057076 
L 612.265241 -251.182053 
L 612.247407 -254.30703 
L 612.373847 -257.432008 
L 612.597166 -260.556985 
L 612.834734 -263.681962 
L 613.021108 -266.806939 
L 613.135441 -269.931917 
L 613.19168 -273.056894 
L 613.214149 -276.181871 
L 613.221495 -279.306848 
L 613.223469 -282.431826 
L 613.223906 -285.556803 
L 613.223986 -288.68178 
L 613.223998 -291.806757 
L 613.224 -294.931734 
L 613.224 -298.056712 
L 613.224 -301.181689 
L 613.224 -304.306666 
L 613.224 -307.431643 
L 613.224 -310.556621 
L 613.224 -313.681598 
L 613.224 -316.806575 
L 613.224 -319.931552 
L 613.224 -323.056529 
L 613.224 -326.181507 
L 613.224 -329.306484 
L 613.224 -332.431461 
L 613.224 -335.556438 
L 613.223999 -338.681416 
L 613.223993 -341.806393 
L 613.223957 -344.93137 
L 613.223773 -348.056347 
L 613.22301 -351.181324 
L 613.220418 -354.306302 
L 613.213251 -357.431279 
L 613.197249 -360.556256 
L 613.168779 -363.681233 
L 613.129454 -366.806211 
L 613.089736 -369.931188 
L 613.065855 -373.056165 
L 613.069501 -376.181142 
L 613.098809 -379.306119 
L 613.13986 -382.431097 
L 613.177097 -385.556074 
L 613.202314 -388.681051 
L 613.245686 -388.681051 
L 613.245686 -388.681051 
L 613.270903 -385.556074 
L 613.30814 -382.431097 
L 613.349191 -379.306119 
L 613.378499 -376.181142 
L 613.382145 -373.056165 
L 613.358264 -369.931188 
L 613.318546 -366.806211 
L 613.279221 -363.681233 
L 613.250751 -360.556256 
L 613.234749 -357.431279 
L 613.227582 -354.306302 
L 613.22499 -351.181324 
L 613.224227 -348.056347 
L 613.224043 -344.93137 
L 613.224007 -341.806393 
L 613.224001 -338.681416 
L 613.224 -335.556438 
L 613.224 -332.431461 
L 613.224 -329.306484 
L 613.224 -326.181507 
L 613.224 -323.056529 
L 613.224 -319.931552 
L 613.224 -316.806575 
L 613.224 -313.681598 
L 613.224 -310.556621 
L 613.224 -307.431643 
L 613.224 -304.306666 
L 613.224 -301.181689 
L 613.224 -298.056712 
L 613.224 -294.931734 
L 613.224002 -291.806757 
L 613.224014 -288.68178 
L 613.224094 -285.556803 
L 613.224531 -282.431826 
L 613.226505 -279.306848 
L 613.233851 -276.181871 
L 613.25632 -273.056894 
L 613.312559 -269.931917 
L 613.426892 -266.806939 
L 613.613266 -263.681962 
L 613.850834 -260.556985 
L 614.074153 -257.432008 
L 614.200593 -254.30703 
L 614.182759 -251.182053 
L 614.039524 -248.057076 
L 613.836248 -244.932099 
L 613.637822 -241.807122 
L 613.479243 -238.682144 
L 613.367589 -235.557167 
L 613.296598 -232.43219 
L 613.256292 -229.307213 
L 613.236387 -226.182235 
L 613.228039 -223.057258 
L 613.225127 -219.932281 
L 613.224394 -216.807304 
L 613.224844 -213.682327 
L 613.227763 -210.557349 
L 613.238777 -207.432372 
L 613.272533 -204.307395 
L 613.357343 -201.182418 
L 613.531417 -198.05744 
L 613.821509 -194.932463 
L 614.210002 -191.807486 
L 614.620247 -188.682509 
L 614.948073 -185.557532 
L 615.123375 -182.432554 
L 615.145296 -179.307577 
L 615.056821 -176.1826 
L 614.891187 -173.057623 
L 614.651841 -169.932645 
L 614.342421 -166.807668 
L 614.000827 -163.682691 
L 613.691036 -160.557714 
L 613.463177 -157.432737 
L 613.327346 -154.307759 
L 613.261751 -151.182782 
L 613.237792 -148.057805 
L 613.242109 -144.932828 
L 613.303215 -141.80785 
L 613.562036 -138.682873 
L 614.435612 -135.557896 
L 616.848781 -132.432919 
L 622.2791 -129.307942 
L 632.132802 -126.182964 
L 646.287991 -123.057987 
L 661.777244 -119.93301 
L 673.388151 -116.808033 
L 676.6416 -113.683055 
L 670.852713 -110.558078 
L 659.341641 -107.433101 
L 646.734832 -104.308124 
L 636.138703 -101.183146 
L 628.3788 -98.058169 
L 622.954004 -94.933192 
L 619.163518 -91.808215 
L 616.564623 -88.683238 
L 614.906106 -85.55826 
L 613.966197 -82.433283 
L 613.506756 -79.308306 
z
" style="stroke: #595959; stroke-width: 1.25"/>
    </defs>
    <g clip-path="url(#p8807cb1e3e)">
     <use xlink:href="#mc1e3de4ae6" x="0" y="432" style="fill: #db96c0; stroke: #595959; stroke-width: 1.25"/>
    </g>
   </g>
   <g id="PolyCollection_5">
    <defs>
     <path id="mc8ceedee6b" d="M 771.897466 -76.01534 
L 771.638534 -76.01534 
L 771.40639 -78.988914 
L 770.841681 -81.962488 
L 769.583402 -84.936062 
L 767.022793 -87.909637 
L 762.307618 -90.883211 
L 754.573384 -93.856785 
L 743.523195 -96.830359 
L 730.212057 -99.803933 
L 717.452356 -102.777507 
L 709.124408 -105.751081 
L 708.3504 -108.724655 
L 715.632915 -111.698229 
L 728.442994 -114.671803 
L 742.668369 -117.645377 
L 754.778513 -120.618951 
L 763.145641 -123.592525 
L 767.949875 -126.566099 
L 770.263987 -129.539673 
L 771.19677 -132.513247 
L 771.505618 -135.486821 
L 771.588502 -138.460395 
L 771.612817 -141.433969 
L 771.62977 -144.407543 
L 771.639366 -147.381117 
L 771.621485 -150.354691 
L 771.551268 -153.328265 
L 771.408574 -156.301839 
L 771.185826 -159.275413 
L 770.895101 -162.248988 
L 770.572124 -165.222562 
L 770.273343 -168.196136 
L 770.06355 -171.16971 
L 769.995817 -174.143284 
L 770.091098 -177.116858 
L 770.32801 -180.090432 
L 770.64978 -183.064006 
L 770.985948 -186.03758 
L 771.277602 -189.011154 
L 771.493553 -191.984728 
L 771.631549 -194.958302 
L 771.707988 -197.931876 
L 771.744743 -200.90545 
L 771.760085 -203.879024 
L 771.765641 -206.852598 
L 771.767384 -209.826172 
L 771.767849 -212.799746 
L 771.767908 -215.77332 
L 771.76768 -218.746894 
L 771.766657 -221.720468 
L 771.763019 -224.694042 
L 771.751875 -227.667616 
L 771.722446 -230.64119 
L 771.655682 -233.614765 
L 771.526341 -236.588339 
L 771.314416 -239.561913 
L 771.025642 -242.535487 
L 770.709194 -245.509061 
L 770.452847 -248.482635 
L 770.346392 -251.456209 
L 770.431694 -254.429783 
L 770.676467 -257.403357 
L 770.993777 -260.376931 
L 771.291452 -263.350505 
L 771.513615 -266.324079 
L 771.650299 -269.297653 
L 771.720821 -272.271227 
L 771.751624 -275.244801 
L 771.76308 -278.218375 
L 771.766721 -281.191949 
L 771.767712 -284.165523 
L 771.767944 -287.139097 
L 771.767991 -290.112671 
L 771.767999 -293.086245 
L 771.768 -296.059819 
L 771.768 -299.033393 
L 771.768 -302.006967 
L 771.768 -304.980541 
L 771.768 -307.954116 
L 771.768 -310.92769 
L 771.768 -313.901264 
L 771.767999 -316.874838 
L 771.767995 -319.848412 
L 771.767974 -322.821986 
L 771.76788 -325.79556 
L 771.767525 -328.769134 
L 771.766377 -331.742708 
L 771.763219 -334.716282 
L 771.755857 -337.689856 
L 771.741398 -340.66343 
L 771.717738 -343.637004 
L 771.686094 -346.610578 
L 771.652885 -349.584152 
L 771.628461 -352.557726 
L 771.622118 -355.5313 
L 771.636462 -358.504874 
L 771.665707 -361.478448 
L 771.69939 -364.452022 
L 771.728311 -367.425596 
L 771.748199 -370.39917 
L 771.787801 -370.39917 
L 771.787801 -370.39917 
L 771.807689 -367.425596 
L 771.83661 -364.452022 
L 771.870293 -361.478448 
L 771.899538 -358.504874 
L 771.913882 -355.5313 
L 771.907539 -352.557726 
L 771.883115 -349.584152 
L 771.849906 -346.610578 
L 771.818262 -343.637004 
L 771.794602 -340.66343 
L 771.780143 -337.689856 
L 771.772781 -334.716282 
L 771.769623 -331.742708 
L 771.768475 -328.769134 
L 771.76812 -325.79556 
L 771.768026 -322.821986 
L 771.768005 -319.848412 
L 771.768001 -316.874838 
L 771.768 -313.901264 
L 771.768 -310.92769 
L 771.768 -307.954116 
L 771.768 -304.980541 
L 771.768 -302.006967 
L 771.768 -299.033393 
L 771.768 -296.059819 
L 771.768001 -293.086245 
L 771.768009 -290.112671 
L 771.768056 -287.139097 
L 771.768288 -284.165523 
L 771.769279 -281.191949 
L 771.77292 -278.218375 
L 771.784376 -275.244801 
L 771.815179 -272.271227 
L 771.885701 -269.297653 
L 772.022385 -266.324079 
L 772.244548 -263.350505 
L 772.542223 -260.376931 
L 772.859533 -257.403357 
L 773.104306 -254.429783 
L 773.189608 -251.456209 
L 773.083153 -248.482635 
L 772.826806 -245.509061 
L 772.510358 -242.535487 
L 772.221584 -239.561913 
L 772.009659 -236.588339 
L 771.880318 -233.614765 
L 771.813554 -230.64119 
L 771.784125 -227.667616 
L 771.772981 -224.694042 
L 771.769343 -221.720468 
L 771.76832 -218.746894 
L 771.768092 -215.77332 
L 771.768151 -212.799746 
L 771.768616 -209.826172 
L 771.770359 -206.852598 
L 771.775915 -203.879024 
L 771.791257 -200.90545 
L 771.828012 -197.931876 
L 771.904451 -194.958302 
L 772.042447 -191.984728 
L 772.258398 -189.011154 
L 772.550052 -186.03758 
L 772.88622 -183.064006 
L 773.20799 -180.090432 
L 773.444902 -177.116858 
L 773.540183 -174.143284 
L 773.47245 -171.16971 
L 773.262657 -168.196136 
L 772.963876 -165.222562 
L 772.640899 -162.248988 
L 772.350174 -159.275413 
L 772.127426 -156.301839 
L 771.984732 -153.328265 
L 771.914515 -150.354691 
L 771.896634 -147.381117 
L 771.90623 -144.407543 
L 771.923183 -141.433969 
L 771.947498 -138.460395 
L 772.030382 -135.486821 
L 772.33923 -132.513247 
L 773.272013 -129.539673 
L 775.586125 -126.566099 
L 780.390359 -123.592525 
L 788.757487 -120.618951 
L 800.867631 -117.645377 
L 815.093006 -114.671803 
L 827.903085 -111.698229 
L 835.1856 -108.724655 
L 834.411592 -105.751081 
L 826.083644 -102.777507 
L 813.323943 -99.803933 
L 800.012805 -96.830359 
L 788.962616 -93.856785 
L 781.228382 -90.883211 
L 776.513207 -87.909637 
L 773.952598 -84.936062 
L 772.694319 -81.962488 
L 772.12961 -78.988914 
L 771.897466 -76.01534 
z
" style="stroke: #595959; stroke-width: 1.25"/>
    </defs>
    <g clip-path="url(#p8807cb1e3e)">
     <use xlink:href="#mc8ceedee6b" x="0" y="432" style="fill: #a2c865; stroke: #595959; stroke-width: 1.25"/>
    </g>
   </g>
   <g id="line2d_9">
    <path d="M 137.592 345.660937 
L 137.592 346.213119 
" clip-path="url(#p8807cb1e3e)" style="fill: none; stroke: #000000"/>
   </g>
   <g id="line2d_10">
    <path d="M 137.592 345.281036 
L 137.592 344.750941 
" clip-path="url(#p8807cb1e3e)" style="fill: none; stroke: #000000"/>
   </g>
   <g id="line2d_11">
    <path d="M 131.6466 346.213119 
L 143.5374 346.213119 
" clip-path="url(#p8807cb1e3e)" style="fill: none; stroke: #000000; stroke-linecap: round"/>
   </g>
   <g id="line2d_12">
    <path d="M 131.6466 344.750941 
L 143.5374 344.750941 
" clip-path="url(#p8807cb1e3e)" style="fill: none; stroke: #000000; stroke-linecap: round"/>
   </g>
   <g id="line2d_13">
    <path d="M 296.136 345.705111 
L 296.136 346.168944 
" clip-path="url(#p8807cb1e3e)" style="fill: none; stroke: #000000"/>
   </g>
   <g id="line2d_14">
    <path d="M 296.136 345.383742 
L 296.136 344.971814 
" clip-path="url(#p8807cb1e3e)" style="fill: none; stroke: #000000"/>
   </g>
   <g id="line2d_15">
    <path d="M 290.1906 346.168944 
L 302.0814 346.168944 
" clip-path="url(#p8807cb1e3e)" style="fill: none; stroke: #000000; stroke-linecap: round"/>
   </g>
   <g id="line2d_16">
    <path d="M 290.1906 344.971814 
L 302.0814 344.971814 
" clip-path="url(#p8807cb1e3e)" style="fill: none; stroke: #000000; stroke-linecap: round"/>
   </g>
   <g id="line2d_17">
    <path d="M 454.68 323.737112 
L 454.68 327.24457 
" clip-path="url(#p8807cb1e3e)" style="fill: none; stroke: #000000"/>
   </g>
   <g id="line2d_18">
    <path d="M 454.68 321.295364 
L 454.68 318.966261 
" clip-path="url(#p8807cb1e3e)" style="fill: none; stroke: #000000"/>
   </g>
   <g id="line2d_19">
    <path d="M 448.7346 327.24457 
L 460.6254 327.24457 
" clip-path="url(#p8807cb1e3e)" style="fill: none; stroke: #000000; stroke-linecap: round"/>
   </g>
   <g id="line2d_20">
    <path d="M 448.7346 318.966261 
L 460.6254 318.966261 
" clip-path="url(#p8807cb1e3e)" style="fill: none; stroke: #000000; stroke-linecap: round"/>
   </g>
   <g id="line2d_21">
    <path d="M 613.224 319.520652 
L 613.224 324.633855 
" clip-path="url(#p8807cb1e3e)" style="fill: none; stroke: #000000"/>
   </g>
   <g id="line2d_22">
    <path d="M 613.224 316.094916 
L 613.224 313.064542 
" clip-path="url(#p8807cb1e3e)" style="fill: none; stroke: #000000"/>
   </g>
   <g id="line2d_23">
    <path d="M 607.2786 324.633855 
L 619.1694 324.633855 
" clip-path="url(#p8807cb1e3e)" style="fill: none; stroke: #000000; stroke-linecap: round"/>
   </g>
   <g id="line2d_24">
    <path d="M 607.2786 313.064542 
L 619.1694 313.064542 
" clip-path="url(#p8807cb1e3e)" style="fill: none; stroke: #000000; stroke-linecap: round"/>
   </g>
   <g id="line2d_25">
    <path d="M 771.768 324.914363 
L 771.768 327.461025 
" clip-path="url(#p8807cb1e3e)" style="fill: none; stroke: #000000"/>
   </g>
   <g id="line2d_26">
    <path d="M 771.768 323.027006 
L 771.768 320.622806 
" clip-path="url(#p8807cb1e3e)" style="fill: none; stroke: #000000"/>
   </g>
   <g id="line2d_27">
    <path d="M 765.8226 327.461025 
L 777.7134 327.461025 
" clip-path="url(#p8807cb1e3e)" style="fill: none; stroke: #000000; stroke-linecap: round"/>
   </g>
   <g id="line2d_28">
    <path d="M 765.8226 320.622806 
L 777.7134 320.622806 
" clip-path="url(#p8807cb1e3e)" style="fill: none; stroke: #000000; stroke-linecap: round"/>
   </g>
   <g id="line2d_29">
    <path d="M 125.7012 345.475404 
L 149.4828 345.475404 
" clip-path="url(#p8807cb1e3e)" style="fill: none; stroke: #ff0000; stroke-width: 2"/>
   </g>
   <g id="line2d_30">
    <path d="M 284.2452 345.548292 
L 308.0268 345.548292 
" clip-path="url(#p8807cb1e3e)" style="fill: none; stroke: #ff0000; stroke-width: 2"/>
   </g>
   <g id="line2d_31">
    <path d="M 442.7892 321.846441 
L 466.5708 321.846441 
" clip-path="url(#p8807cb1e3e)" style="fill: none; stroke: #ff0000; stroke-width: 2"/>
   </g>
   <g id="line2d_32">
    <path d="M 601.3332 316.894475 
L 625.1148 316.894475 
" clip-path="url(#p8807cb1e3e)" style="fill: none; stroke: #ff0000; stroke-width: 2"/>
   </g>
   <g id="line2d_33">
    <path d="M 759.8772 324.08609 
L 783.6588 324.08609 
" clip-path="url(#p8807cb1e3e)" style="fill: none; stroke: #ff0000; stroke-width: 2"/>
   </g>
   <g id="patch_3">
    <path d="M 58.32 373.416875 
L 58.32 27.6 
" style="fill: none; stroke: #cccccc; stroke-width: 1.25; stroke-linejoin: miter; stroke-linecap: square"/>
   </g>
   <g id="patch_4">
    <path d="M 851.04 373.416875 
L 851.04 27.6 
" style="fill: none; stroke: #cccccc; stroke-width: 1.25; stroke-linejoin: miter; stroke-linecap: square"/>
   </g>
   <g id="patch_5">
    <path d="M 58.32 373.416875 
L 851.04 373.416875 
" style="fill: none; stroke: #cccccc; stroke-width: 1.25; stroke-linejoin: miter; stroke-linecap: square"/>
   </g>
   <g id="patch_6">
    <path d="M 58.32 27.6 
L 851.04 27.6 
" style="fill: none; stroke: #cccccc; stroke-width: 1.25; stroke-linejoin: miter; stroke-linecap: square"/>
   </g>
   <g id="text_15">
    <!-- Handshake duration on TLS with ed25519 signature algorithm — Local YDE (35ms/2%) -->
    <g style="fill: #262626" transform="translate(193.824375 21.6) scale(0.12 -0.12)">
     <defs>
      <path id="DejaVuSans-54" d="M -19 4666 
L 3928 4666 
L 3928 4134 
L 2272 4134 
L 2272 0 
L 1638 0 
L 1638 4134 
L -19 4134 
L -19 4666 
z
" transform="scale(0.015625)"/>
      <path id="DejaVuSans-4c" d="M 628 4666 
L 1259 4666 
L 1259 531 
L 3531 531 
L 3531 0 
L 628 0 
L 628 4666 
z
" transform="scale(0.015625)"/>
      <path id="DejaVuSans-53" d="M 3425 4513 
L 3425 3897 
Q 3066 4069 2747 4153 
Q 2428 4238 2131 4238 
Q 1616 4238 1336 4038 
Q 1056 3838 1056 3469 
Q 1056 3159 1242 3001 
Q 1428 2844 1947 2747 
L 2328 2669 
Q 3034 2534 3370 2195 
Q 3706 1856 3706 1288 
Q 3706 609 3251 259 
Q 2797 -91 1919 -91 
Q 1588 -91 1214 -16 
Q 841 59 441 206 
L 441 856 
Q 825 641 1194 531 
Q 1563 422 1919 422 
Q 2459 422 2753 634 
Q 3047 847 3047 1241 
Q 3047 1584 2836 1778 
Q 2625 1972 2144 2069 
L 1759 2144 
Q 1053 2284 737 2584 
Q 422 2884 422 3419 
Q 422 4038 858 4394 
Q 1294 4750 2059 4750 
Q 2388 4750 2728 4690 
Q 3069 4631 3425 4513 
z
" transform="scale(0.015625)"/>
      <path id="DejaVuSans-77" d="M 269 3500 
L 844 3500 
L 1563 769 
L 2278 3500 
L 2956 3500 
L 3675 769 
L 4391 3500 
L 4966 3500 
L 4050 0 
L 3372 0 
L 2619 2869 
L 1863 0 
L 1184 0 
L 269 3500 
z
" transform="scale(0.015625)"/>
      <path id="DejaVuSans-67" d="M 2906 1791 
Q 2906 2416 2648 2759 
Q 2391 3103 1925 3103 
Q 1463 3103 1205 2759 
Q 947 2416 947 1791 
Q 947 1169 1205 825 
Q 1463 481 1925 481 
Q 2391 481 2648 825 
Q 2906 1169 2906 1791 
z
M 3481 434 
Q 3481 -459 3084 -895 
Q 2688 -1331 1869 -1331 
Q 1566 -1331 1297 -1286 
Q 1028 -1241 775 -1147 
L 775 -588 
Q 1028 -725 1275 -790 
Q 1522 -856 1778 -856 
Q 2344 -856 2625 -561 
Q 2906 -266 2906 331 
L 2906 616 
Q 2728 306 2450 153 
Q 2172 0 1784 0 
Q 1141 0 747 490 
Q 353 981 353 1791 
Q 353 2603 747 3093 
Q 1141 3584 1784 3584 
Q 2172 3584 2450 3431 
Q 2728 3278 2906 2969 
L 2906 3500 
L 3481 3500 
L 3481 434 
z
" transform="scale(0.015625)"/>
      <path id="DejaVuSans-6c" d="M 603 4863 
L 1178 4863 
L 1178 0 
L 603 0 
L 603 4863 
z
" transform="scale(0.015625)"/>
      <path id="DejaVuSans-2014" d="M 313 1978 
L 6088 1978 
L 6088 1528 
L 313 1528 
L 313 1978 
z
" transform="scale(0.015625)"/>
      <path id="DejaVuSans-59" d="M -13 4666 
L 666 4666 
L 1959 2747 
L 3244 4666 
L 3922 4666 
L 2272 2222 
L 2272 0 
L 1638 0 
L 1638 2222 
L -13 4666 
z
" transform="scale(0.015625)"/>
      <path id="DejaVuSans-44" d="M 1259 4147 
L 1259 519 
L 2022 519 
Q 2988 519 3436 956 
Q 3884 1394 3884 2338 
Q 3884 3275 3436 3711 
Q 2988 4147 2022 4147 
L 1259 4147 
z
M 628 4666 
L 1925 4666 
Q 3281 4666 3915 4102 
Q 4550 3538 4550 2338 
Q 4550 1131 3912 565 
Q 3275 0 1925 0 
L 628 0 
L 628 4666 
z
" transform="scale(0.015625)"/>
      <path id="DejaVuSans-45" d="M 628 4666 
L 3578 4666 
L 3578 4134 
L 1259 4134 
L 1259 2753 
L 3481 2753 
L 3481 2222 
L 1259 2222 
L 1259 531 
L 3634 531 
L 3634 0 
L 628 0 
L 628 4666 
z
" transform="scale(0.015625)"/>
      <path id="DejaVuSans-2f" d="M 1625 4666 
L 2156 4666 
L 531 -594 
L 0 -594 
L 1625 4666 
z
" transform="scale(0.015625)"/>
      <path id="DejaVuSans-25" d="M 4653 2053 
Q 4381 2053 4226 1822 
Q 4072 1591 4072 1178 
Q 4072 772 4226 539 
Q 4381 306 4653 306 
Q 4919 306 5073 539 
Q 5228 772 5228 1178 
Q 5228 1588 5073 1820 
Q 4919 2053 4653 2053 
z
M 4653 2450 
Q 5147 2450 5437 2106 
Q 5728 1763 5728 1178 
Q 5728 594 5436 251 
Q 5144 -91 4653 -91 
Q 4153 -91 3862 251 
Q 3572 594 3572 1178 
Q 3572 1766 3864 2108 
Q 4156 2450 4653 2450 
z
M 1428 4353 
Q 1159 4353 1004 4120 
Q 850 3888 850 3481 
Q 850 3069 1003 2837 
Q 1156 2606 1428 2606 
Q 1700 2606 1854 2837 
Q 2009 3069 2009 3481 
Q 2009 3884 1853 4118 
Q 1697 4353 1428 4353 
z
M 4250 4750 
L 4750 4750 
L 1831 -91 
L 1331 -91 
L 4250 4750 
z
M 1428 4750 
Q 1922 4750 2215 4408 
Q 2509 4066 2509 3481 
Q 2509 2891 2217 2550 
Q 1925 2209 1428 2209 
Q 931 2209 642 2551 
Q 353 2894 353 3481 
Q 353 4063 643 4406 
Q 934 4750 1428 4750 
z
" transform="scale(0.015625)"/>
     </defs>
     <use xlink:href="#DejaVuSans-48"/>
     <use xlink:href="#DejaVuSans-61" x="75.195312"/>
     <use xlink:href="#DejaVuSans-6e" x="136.474609"/>
     <use xlink:href="#DejaVuSans-64" x="199.853516"/>
     <use xlink:href="#DejaVuSans-73" x="263.330078"/>
     <use xlink:href="#DejaVuSans-68" x="315.429688"/>
     <use xlink:href="#DejaVuSans-61" x="378.808594"/>
     <use xlink:href="#DejaVuSans-6b" x="440.087891"/>
     <use xlink:href="#DejaVuSans-65" x="494.373047"/>
     <use xlink:href="#DejaVuSans-20" x="555.896484"/>
     <use xlink:href="#DejaVuSans-64" x="587.683594"/>
     <use xlink:href="#DejaVuSans-75" x="651.160156"/>
     <use xlink:href="#DejaVuSans-72" x="714.539062"/>
     <use xlink:href="#DejaVuSans-61" x="755.652344"/>
     <use xlink:href="#DejaVuSans-74" x="816.931641"/>
     <use xlink:href="#DejaVuSans-69" x="856.140625"/>
     <use xlink:href="#DejaVuSans-6f" x="883.923828"/>
     <use xlink:href="#DejaVuSans-6e" x="945.105469"/>
     <use xlink:href="#DejaVuSans-20" x="1008.484375"/>
     <use xlink:href="#DejaVuSans-6f" x="1040.271484"/>
     <use xlink:href="#DejaVuSans-6e" x="1101.453125"/>
     <use xlink:href="#DejaVuSans-20" x="1164.832031"/>
     <use xlink:href="#DejaVuSans-54" x="1196.619141"/>
     <use xlink:href="#DejaVuSans-4c" x="1257.703125"/>
     <use xlink:href="#DejaVuSans-53" x="1313.416016"/>
     <use xlink:href="#DejaVuSans-20" x="1376.892578"/>
     <use xlink:href="#DejaVuSans-77" x="1408.679688"/>
     <use xlink:href="#DejaVuSans-69" x="1490.466797"/>
     <use xlink:href="#DejaVuSans-74" x="1518.25"/>
     <use xlink:href="#DejaVuSans-68" x="1557.458984"/>
     <use xlink:href="#DejaVuSans-20" x="1620.837891"/>
     <use xlink:href="#DejaVuSans-65" x="1652.625"/>
     <use xlink:href="#DejaVuSans-64" x="1714.148438"/>
     <use xlink:href="#DejaVuSans-32" x="1777.625"/>
     <use xlink:href="#DejaVuSans-35" x="1841.248047"/>
     <use xlink:href="#DejaVuSans-35" x="1904.871094"/>
     <use xlink:href="#DejaVuSans-31" x="1968.494141"/>
     <use xlink:href="#DejaVuSans-39" x="2032.117188"/>
     <use xlink:href="#DejaVuSans-20" x="2095.740234"/>
     <use xlink:href="#DejaVuSans-73" x="2127.527344"/>
     <use xlink:href="#DejaVuSans-69" x="2179.626953"/>
     <use xlink:href="#DejaVuSans-67" x="2207.410156"/>
     <use xlink:href="#DejaVuSans-6e" x="2270.886719"/>
     <use xlink:href="#DejaVuSans-61" x="2334.265625"/>
     <use xlink:href="#DejaVuSans-74" x="2395.544922"/>
     <use xlink:href="#DejaVuSans-75" x="2434.753906"/>
     <use xlink:href="#DejaVuSans-72" x="2498.132812"/>
     <use xlink:href="#DejaVuSans-65" x="2536.996094"/>
     <use xlink:href="#DejaVuSans-20" x="2598.519531"/>
     <use xlink:href="#DejaVuSans-61" x="2630.306641"/>
     <use xlink:href="#DejaVuSans-6c" x="2691.585938"/>
     <use xlink:href="#DejaVuSans-67" x="2719.369141"/>
     <use xlink:href="#DejaVuSans-6f" x="2782.845703"/>
     <use xlink:href="#DejaVuSans-72" x="2844.027344"/>
     <use xlink:href="#DejaVuSans-69" x="2885.140625"/>
     <use xlink:href="#DejaVuSans-74" x="2912.923828"/>
     <use xlink:href="#DejaVuSans-68" x="2952.132812"/>
     <use xlink:href="#DejaVuSans-6d" x="3015.511719"/>
     <use xlink:href="#DejaVuSans-20" x="3112.923828"/>
     <use xlink:href="#DejaVuSans-2014" x="3144.710938"/>
     <use xlink:href="#DejaVuSans-20" x="3244.710938"/>
     <use xlink:href="#DejaVuSans-4c" x="3276.498047"/>
     <use xlink:href="#DejaVuSans-6f" x="3330.460938"/>
     <use xlink:href="#DejaVuSans-63" x="3391.642578"/>
     <use xlink:href="#DejaVuSans-61" x="3446.623047"/>
     <use xlink:href="#DejaVuSans-6c" x="3507.902344"/>
     <use xlink:href="#DejaVuSans-20" x="3535.685547"/>
     <use xlink:href="#DejaVuSans-59" x="3567.472656"/>
     <use xlink:href="#DejaVuSans-44" x="3628.556641"/>
     <use xlink:href="#DejaVuSans-45" x="3705.558594"/>
     <use xlink:href="#DejaVuSans-20" x="3768.742188"/>
     <use xlink:href="#DejaVuSans-28" x="3800.529297"/>
     <use xlink:href="#DejaVuSans-33" x="3839.542969"/>
     <use xlink:href="#DejaVuSans-35" x="3903.166016"/>
     <use xlink:href="#DejaVuSans-6d" x="3966.789062"/>
     <use xlink:href="#DejaVuSans-73" x="4064.201172"/>
     <use xlink:href="#DejaVuSans-2f" x="4116.300781"/>
     <use xlink:href="#DejaVuSans-32" x="4149.992188"/>
     <use xlink:href="#DejaVuSans-25" x="4213.615234"/>
     <use xlink:href="#DejaVuSans-29" x="4308.634766"/>
    </g>
   </g>
  </g>
 </g>
 <defs>
  <clipPath id="p8807cb1e3e">
   <rect x="58.32" y="27.6" width="792.72" height="345.816875"/>
  </clipPath>
 </defs>
</svg>
