<?xml version="1.0" encoding="utf-8" standalone="no"?>
<!DOCTYPE svg PUBLIC "-//W3C//DTD SVG 1.1//EN"
  "http://www.w3.org/Graphics/SVG/1.1/DTD/svg11.dtd">
<svg xmlns:xlink="http://www.w3.org/1999/xlink" width="864pt" height="432pt" viewBox="0 0 864 432" xmlns="http://www.w3.org/2000/svg" version="1.1">
 <metadata>
  <rdf:RDF xmlns:dc="http://purl.org/dc/elements/1.1/" xmlns:cc="http://creativecommons.org/ns#" xmlns:rdf="http://www.w3.org/1999/02/22-rdf-syntax-ns#">
   <cc:Work>
    <dc:type rdf:resource="http://purl.org/dc/dcmitype/StillImage"/>
    <dc:date>2026-03-21T14:06:23.063517</dc:date>
    <dc:format>image/svg+xml</dc:format>
    <dc:creator>
     <cc:Agent>
      <dc:title>Matplotlib v3.6.3, https://matplotlib.org/</dc:title>
     </cc:Agent>
    </dc:creator>
   </cc:Work>
  </rdf:RDF>
 </metadata>
 <defs>
  <style type="text/css">*{stroke-linejoin: round; stroke-linecap: butt}</style>
 </defs>
 <g id="figure_1">
  <g id="patch_1">
   <path d="M 0 432 
L 864 432 
L 864 0 
L 0 0 
z
" style="fill: #ffffff"/>
  </g>
  <g id="axes_1">
   <g id="patch_2">
    <path d="M 58.32 373.416875 
L 851.04 373.416875 
L 851.04 27.6 
L 58.32 27.6 
z
" style="fill: #ffffff"/>
   </g>
   <g id="matplotlib.axis_1">
    <g id="xtick_1">
     <g id="text_1">
      <!-- P-256 -->
      <g style="fill: #262626" transform="translate(103.911421 400.575919) rotate(-15) scale(0.12 -0.12)">
       <defs>
        <path id="DejaVuSans-50" d="M 1259 4147 
L 1259 2394 
L 2053 2394 
Q 2494 2394 2734 2622 
Q 2975 2850 2975 3272 
Q 2975 3691 2734 3919 
Q 2494 4147 2053 4147 
L 1259 4147 
z
M 628 4666 
L 2053 4666 
Q 2838 4666 3239 4311 
Q 3641 3956 3641 3272 
Q 3641 2581 3239 2228 
Q 2838 1875 2053 1875 
L 1259 1875 
L 1259 0 
L 628 0 
L 628 4666 
z
" transform="scale(0.015625)"/>
        <path id="DejaVuSans-2d" d="M 313 2009 
L 1997 2009 
L 1997 1497 
L 313 1497 
L 313 2009 
z
" transform="scale(0.015625)"/>
        <path id="DejaVuSans-32" d="M 1228 531 
L 3431 531 
L 3431 0 
L 469 0 
L 469 531 
Q 828 903 1448 1529 
Q 2069 2156 2228 2338 
Q 2531 2678 2651 2914 
Q 2772 3150 2772 3378 
Q 2772 3750 2511 3984 
Q 2250 4219 1831 4219 
Q 1534 4219 1204 4116 
Q 875 4013 500 3803 
L 500 4441 
Q 881 4594 1212 4672 
Q 1544 4750 1819 4750 
Q 2544 4750 2975 4387 
Q 3406 4025 3406 3419 
Q 3406 3131 3298 2873 
Q 3191 2616 2906 2266 
Q 2828 2175 2409 1742 
Q 1991 1309 1228 531 
z
" transform="scale(0.015625)"/>
        <path id="DejaVuSans-35" d="M 691 4666 
L 3169 4666 
L 3169 4134 
L 1269 4134 
L 1269 2991 
Q 1406 3038 1543 3061 
Q 1681 3084 1819 3084 
Q 2600 3084 3056 2656 
Q 3513 2228 3513 1497 
Q 3513 744 3044 326 
Q 2575 -91 1722 -91 
Q 1428 -91 1123 -41 
Q 819 9 494 109 
L 494 744 
Q 775 591 1075 516 
Q 1375 441 1709 441 
Q 2250 441 2565 725 
Q 2881 1009 2881 1497 
Q 2881 1984 2565 2268 
Q 2250 2553 1709 2553 
Q 1456 2553 1204 2497 
Q 953 2441 691 2322 
L 691 4666 
z
" transform="scale(0.015625)"/>
        <path id="DejaVuSans-36" d="M 2113 2584 
Q 1688 2584 1439 2293 
Q 1191 2003 1191 1497 
Q 1191 994 1439 701 
Q 1688 409 2113 409 
Q 2538 409 2786 701 
Q 3034 994 3034 1497 
Q 3034 2003 2786 2293 
Q 2538 2584 2113 2584 
z
M 3366 4563 
L 3366 3988 
Q 3128 4100 2886 4159 
Q 2644 4219 2406 4219 
Q 1781 4219 1451 3797 
Q 1122 3375 1075 2522 
Q 1259 2794 1537 2939 
Q 1816 3084 2150 3084 
Q 2853 3084 3261 2657 
Q 3669 2231 3669 1497 
Q 3669 778 3244 343 
Q 2819 -91 2113 -91 
Q 1303 -91 875 529 
Q 447 1150 447 2328 
Q 447 3434 972 4092 
Q 1497 4750 2381 4750 
Q 2619 4750 2861 4703 
Q 3103 4656 3366 4563 
z
" transform="scale(0.015625)"/>
       </defs>
       <use xlink:href="#DejaVuSans-50"/>
       <use xlink:href="#DejaVuSans-2d" x="58.052734"/>
       <use xlink:href="#DejaVuSans-32" x="94.136719"/>
       <use xlink:href="#DejaVuSans-35" x="157.759766"/>
       <use xlink:href="#DejaVuSans-36" x="221.382812"/>
      </g>
     </g>
    </g>
    <g id="xtick_2">
     <g id="text_2">
      <!-- x25519 -->
      <g style="fill: #262626" transform="translate(251.755378 403.442987) rotate(-15) scale(0.12 -0.12)">
       <defs>
        <path id="DejaVuSans-78" d="M 3513 3500 
L 2247 1797 
L 3578 0 
L 2900 0 
L 1881 1375 
L 863 0 
L 184 0 
L 1544 1831 
L 300 3500 
L 978 3500 
L 1906 2253 
L 2834 3500 
L 3513 3500 
z
" transform="scale(0.015625)"/>
        <path id="DejaVuSans-31" d="M 794 531 
L 1825 531 
L 1825 4091 
L 703 3866 
L 703 4441 
L 1819 4666 
L 2450 4666 
L 2450 531 
L 3481 531 
L 3481 0 
L 794 0 
L 794 531 
z
" transform="scale(0.015625)"/>
        <path id="DejaVuSans-39" d="M 703 97 
L 703 672 
Q 941 559 1184 500 
Q 1428 441 1663 441 
Q 2288 441 2617 861 
Q 2947 1281 2994 2138 
Q 2813 1869 2534 1725 
Q 2256 1581 1919 1581 
Q 1219 1581 811 2004 
Q 403 2428 403 3163 
Q 403 3881 828 4315 
Q 1253 4750 1959 4750 
Q 2769 4750 3195 4129 
Q 3622 3509 3622 2328 
Q 3622 1225 3098 567 
Q 2575 -91 1691 -91 
Q 1453 -91 1209 -44 
Q 966 3 703 97 
z
M 1959 2075 
Q 2384 2075 2632 2365 
Q 2881 2656 2881 3163 
Q 2881 3666 2632 3958 
Q 2384 4250 1959 4250 
Q 1534 4250 1286 3958 
Q 1038 3666 1038 3163 
Q 1038 2656 1286 2365 
Q 1534 2075 1959 2075 
z
" transform="scale(0.015625)"/>
       </defs>
       <use xlink:href="#DejaVuSans-78"/>
       <use xlink:href="#DejaVuSans-32" x="59.179688"/>
       <use xlink:href="#DejaVuSans-35" x="122.802734"/>
       <use xlink:href="#DejaVuSans-35" x="186.425781"/>
       <use xlink:href="#DejaVuSans-31" x="250.048828"/>
       <use xlink:href="#DejaVuSans-39" x="313.671875"/>
      </g>
     </g>
    </g>
    <g id="xtick_3">
     <g id="text_3">
      <!-- hqc128 -->
      <g style="fill: #262626" transform="translate(410.831845 403.300313) rotate(-15) scale(0.12 -0.12)">
       <defs>
        <path id="DejaVuSans-68" d="M 3513 2113 
L 3513 0 
L 2938 0 
L 2938 2094 
Q 2938 2591 2744 2837 
Q 2550 3084 2163 3084 
Q 1697 3084 1428 2787 
Q 1159 2491 1159 1978 
L 1159 0 
L 581 0 
L 581 4863 
L 1159 4863 
L 1159 2956 
Q 1366 3272 1645 3428 
Q 1925 3584 2291 3584 
Q 2894 3584 3203 3211 
Q 3513 2838 3513 2113 
z
" transform="scale(0.015625)"/>
        <path id="DejaVuSans-71" d="M 947 1747 
Q 947 1113 1208 752 
Q 1469 391 1925 391 
Q 2381 391 2643 752 
Q 2906 1113 2906 1747 
Q 2906 2381 2643 2742 
Q 2381 3103 1925 3103 
Q 1469 3103 1208 2742 
Q 947 2381 947 1747 
z
M 2906 525 
Q 2725 213 2448 61 
Q 2172 -91 1784 -91 
Q 1150 -91 751 415 
Q 353 922 353 1747 
Q 353 2572 751 3078 
Q 1150 3584 1784 3584 
Q 2172 3584 2448 3432 
Q 2725 3281 2906 2969 
L 2906 3500 
L 3481 3500 
L 3481 -1331 
L 2906 -1331 
L 2906 525 
z
" transform="scale(0.015625)"/>
        <path id="DejaVuSans-63" d="M 3122 3366 
L 3122 2828 
Q 2878 2963 2633 3030 
Q 2388 3097 2138 3097 
Q 1578 3097 1268 2742 
Q 959 2388 959 1747 
Q 959 1106 1268 751 
Q 1578 397 2138 397 
Q 2388 397 2633 464 
Q 2878 531 3122 666 
L 3122 134 
Q 2881 22 2623 -34 
Q 2366 -91 2075 -91 
Q 1284 -91 818 406 
Q 353 903 353 1747 
Q 353 2603 823 3093 
Q 1294 3584 2113 3584 
Q 2378 3584 2631 3529 
Q 2884 3475 3122 3366 
z
" transform="scale(0.015625)"/>
        <path id="DejaVuSans-38" d="M 2034 2216 
Q 1584 2216 1326 1975 
Q 1069 1734 1069 1313 
Q 1069 891 1326 650 
Q 1584 409 2034 409 
Q 2484 409 2743 651 
Q 3003 894 3003 1313 
Q 3003 1734 2745 1975 
Q 2488 2216 2034 2216 
z
M 1403 2484 
Q 997 2584 770 2862 
Q 544 3141 544 3541 
Q 544 4100 942 4425 
Q 1341 4750 2034 4750 
Q 2731 4750 3128 4425 
Q 3525 4100 3525 3541 
Q 3525 3141 3298 2862 
Q 3072 2584 2669 2484 
Q 3125 2378 3379 2068 
Q 3634 1759 3634 1313 
Q 3634 634 3220 271 
Q 2806 -91 2034 -91 
Q 1263 -91 848 271 
Q 434 634 434 1313 
Q 434 1759 690 2068 
Q 947 2378 1403 2484 
z
M 1172 3481 
Q 1172 3119 1398 2916 
Q 1625 2713 2034 2713 
Q 2441 2713 2670 2916 
Q 2900 3119 2900 3481 
Q 2900 3844 2670 4047 
Q 2441 4250 2034 4250 
Q 1625 4250 1398 4047 
Q 1172 3844 1172 3481 
z
" transform="scale(0.015625)"/>
       </defs>
       <use xlink:href="#DejaVuSans-68"/>
       <use xlink:href="#DejaVuSans-71" x="63.378906"/>
       <use xlink:href="#DejaVuSans-63" x="126.855469"/>
       <use xlink:href="#DejaVuSans-31" x="181.835938"/>
       <use xlink:href="#DejaVuSans-32" x="245.458984"/>
       <use xlink:href="#DejaVuSans-38" x="309.082031"/>
      </g>
     </g>
    </g>
    <g id="xtick_4">
     <g id="text_4">
      <!-- p256_hqc128 -->
      <g style="fill: #262626" transform="translate(534.010834 412.753193) rotate(-15) scale(0.12 -0.12)">
       <defs>
        <path id="DejaVuSans-70" d="M 1159 525 
L 1159 -1331 
L 581 -1331 
L 581 3500 
L 1159 3500 
L 1159 2969 
Q 1341 3281 1617 3432 
Q 1894 3584 2278 3584 
Q 2916 3584 3314 3078 
Q 3713 2572 3713 1747 
Q 3713 922 3314 415 
Q 2916 -91 2278 -91 
Q 1894 -91 1617 61 
Q 1341 213 1159 525 
z
M 3116 1747 
Q 3116 2381 2855 2742 
Q 2594 3103 2138 3103 
Q 1681 3103 1420 2742 
Q 1159 2381 1159 1747 
Q 1159 1113 1420 752 
Q 1681 391 2138 391 
Q 2594 391 2855 752 
Q 3116 1113 3116 1747 
z
" transform="scale(0.015625)"/>
        <path id="DejaVuSans-5f" d="M 3263 -1063 
L 3263 -1509 
L -63 -1509 
L -63 -1063 
L 3263 -1063 
z
" transform="scale(0.015625)"/>
       </defs>
       <use xlink:href="#DejaVuSans-70"/>
       <use xlink:href="#DejaVuSans-32" x="63.476562"/>
       <use xlink:href="#DejaVuSans-35" x="127.099609"/>
       <use xlink:href="#DejaVuSans-36" x="190.722656"/>
       <use xlink:href="#DejaVuSans-5f" x="254.345703"/>
       <use xlink:href="#DejaVuSans-68" x="304.345703"/>
       <use xlink:href="#DejaVuSans-71" x="367.724609"/>
       <use xlink:href="#DejaVuSans-63" x="431.201172"/>
       <use xlink:href="#DejaVuSans-31" x="486.181641"/>
       <use xlink:href="#DejaVuSans-32" x="549.804688"/>
       <use xlink:href="#DejaVuSans-38" x="613.427734"/>
      </g>
     </g>
    </g>
    <g id="xtick_5">
     <g id="text_5">
      <!-- x25519_hqc128 -->
      <g style="fill: #262626" transform="translate(678.303202 416.571906) rotate(-15) scale(0.12 -0.12)">
       <use xlink:href="#DejaVuSans-78"/>
       <use xlink:href="#DejaVuSans-32" x="59.179688"/>
       <use xlink:href="#DejaVuSans-35" x="122.802734"/>
       <use xlink:href="#DejaVuSans-35" x="186.425781"/>
       <use xlink:href="#DejaVuSans-31" x="250.048828"/>
       <use xlink:href="#DejaVuSans-39" x="313.671875"/>
       <use xlink:href="#DejaVuSans-5f" x="377.294922"/>
       <use xlink:href="#DejaVuSans-68" x="427.294922"/>
       <use xlink:href="#DejaVuSans-71" x="490.673828"/>
       <use xlink:href="#DejaVuSans-63" x="554.150391"/>
       <use xlink:href="#DejaVuSans-31" x="609.130859"/>
       <use xlink:href="#DejaVuSans-32" x="672.753906"/>
       <use xlink:href="#DejaVuSans-38" x="736.376953"/>
      </g>
     </g>
    </g>
   </g>
   <g id="matplotlib.axis_2">
    <g id="ytick_1">
     <g id="line2d_1">
      <path d="M 58.32 364.600612 
L 851.04 364.600612 
" clip-path="url(#pe1844a210b)" style="fill: none; stroke: #cccccc; stroke-linecap: round"/>
     </g>
     <g id="text_6">
      <!-- 800 -->
      <g style="fill: #262626" transform="translate(27.82375 368.779753) scale(0.11 -0.11)">
       <defs>
        <path id="DejaVuSans-30" d="M 2034 4250 
Q 1547 4250 1301 3770 
Q 1056 3291 1056 2328 
Q 1056 1369 1301 889 
Q 1547 409 2034 409 
Q 2525 409 2770 889 
Q 3016 1369 3016 2328 
Q 3016 3291 2770 3770 
Q 2525 4250 2034 4250 
z
M 2034 4750 
Q 2819 4750 3233 4129 
Q 3647 3509 3647 2328 
Q 3647 1150 3233 529 
Q 2819 -91 2034 -91 
Q 1250 -91 836 529 
Q 422 1150 422 2328 
Q 422 3509 836 4129 
Q 1250 4750 2034 4750 
z
" transform="scale(0.015625)"/>
       </defs>
       <use xlink:href="#DejaVuSans-38"/>
       <use xlink:href="#DejaVuSans-30" x="63.623047"/>
       <use xlink:href="#DejaVuSans-30" x="127.246094"/>
      </g>
     </g>
    </g>
    <g id="ytick_2">
     <g id="line2d_2">
      <path d="M 58.32 319.900547 
L 851.04 319.900547 
" clip-path="url(#pe1844a210b)" style="fill: none; stroke: #cccccc; stroke-linecap: round"/>
     </g>
     <g id="text_7">
      <!-- 810 -->
      <g style="fill: #262626" transform="translate(27.82375 324.079688) scale(0.11 -0.11)">
       <use xlink:href="#DejaVuSans-38"/>
       <use xlink:href="#DejaVuSans-31" x="63.623047"/>
       <use xlink:href="#DejaVuSans-30" x="127.246094"/>
      </g>
     </g>
    </g>
    <g id="ytick_3">
     <g id="line2d_3">
      <path d="M 58.32 275.200482 
L 851.04 275.200482 
" clip-path="url(#pe1844a210b)" style="fill: none; stroke: #cccccc; stroke-linecap: round"/>
     </g>
     <g id="text_8">
      <!-- 820 -->
      <g style="fill: #262626" transform="translate(27.82375 279.379622) scale(0.11 -0.11)">
       <use xlink:href="#DejaVuSans-38"/>
       <use xlink:href="#DejaVuSans-32" x="63.623047"/>
       <use xlink:href="#DejaVuSans-30" x="127.246094"/>
      </g>
     </g>
    </g>
    <g id="ytick_4">
     <g id="line2d_4">
      <path d="M 58.32 230.500417 
L 851.04 230.500417 
" clip-path="url(#pe1844a210b)" style="fill: none; stroke: #cccccc; stroke-linecap: round"/>
     </g>
     <g id="text_9">
      <!-- 830 -->
      <g style="fill: #262626" transform="translate(27.82375 234.679557) scale(0.11 -0.11)">
       <defs>
        <path id="DejaVuSans-33" d="M 2597 2516 
Q 3050 2419 3304 2112 
Q 3559 1806 3559 1356 
Q 3559 666 3084 287 
Q 2609 -91 1734 -91 
Q 1441 -91 1130 -33 
Q 819 25 488 141 
L 488 750 
Q 750 597 1062 519 
Q 1375 441 1716 441 
Q 2309 441 2620 675 
Q 2931 909 2931 1356 
Q 2931 1769 2642 2001 
Q 2353 2234 1838 2234 
L 1294 2234 
L 1294 2753 
L 1863 2753 
Q 2328 2753 2575 2939 
Q 2822 3125 2822 3475 
Q 2822 3834 2567 4026 
Q 2313 4219 1838 4219 
Q 1578 4219 1281 4162 
Q 984 4106 628 3988 
L 628 4550 
Q 988 4650 1302 4700 
Q 1616 4750 1894 4750 
Q 2613 4750 3031 4423 
Q 3450 4097 3450 3541 
Q 3450 3153 3228 2886 
Q 3006 2619 2597 2516 
z
" transform="scale(0.015625)"/>
       </defs>
       <use xlink:href="#DejaVuSans-38"/>
       <use xlink:href="#DejaVuSans-33" x="63.623047"/>
       <use xlink:href="#DejaVuSans-30" x="127.246094"/>
      </g>
     </g>
    </g>
    <g id="ytick_5">
     <g id="line2d_5">
      <path d="M 58.32 185.800351 
L 851.04 185.800351 
" clip-path="url(#pe1844a210b)" style="fill: none; stroke: #cccccc; stroke-linecap: round"/>
     </g>
     <g id="text_10">
      <!-- 840 -->
      <g style="fill: #262626" transform="translate(27.82375 189.979492) scale(0.11 -0.11)">
       <defs>
        <path id="DejaVuSans-34" d="M 2419 4116 
L 825 1625 
L 2419 1625 
L 2419 4116 
z
M 2253 4666 
L 3047 4666 
L 3047 1625 
L 3713 1625 
L 3713 1100 
L 3047 1100 
L 3047 0 
L 2419 0 
L 2419 1100 
L 313 1100 
L 313 1709 
L 2253 4666 
z
" transform="scale(0.015625)"/>
       </defs>
       <use xlink:href="#DejaVuSans-38"/>
       <use xlink:href="#DejaVuSans-34" x="63.623047"/>
       <use xlink:href="#DejaVuSans-30" x="127.246094"/>
      </g>
     </g>
    </g>
    <g id="ytick_6">
     <g id="line2d_6">
      <path d="M 58.32 141.100286 
L 851.04 141.100286 
" clip-path="url(#pe1844a210b)" style="fill: none; stroke: #cccccc; stroke-linecap: round"/>
     </g>
     <g id="text_11">
      <!-- 850 -->
      <g style="fill: #262626" transform="translate(27.82375 145.279427) scale(0.11 -0.11)">
       <use xlink:href="#DejaVuSans-38"/>
       <use xlink:href="#DejaVuSans-35" x="63.623047"/>
       <use xlink:href="#DejaVuSans-30" x="127.246094"/>
      </g>
     </g>
    </g>
    <g id="ytick_7">
     <g id="line2d_7">
      <path d="M 58.32 96.400221 
L 851.04 96.400221 
" clip-path="url(#pe1844a210b)" style="fill: none; stroke: #cccccc; stroke-linecap: round"/>
     </g>
     <g id="text_12">
      <!-- 860 -->
      <g style="fill: #262626" transform="translate(27.82375 100.579362) scale(0.11 -0.11)">
       <use xlink:href="#DejaVuSans-38"/>
       <use xlink:href="#DejaVuSans-36" x="63.623047"/>
       <use xlink:href="#DejaVuSans-30" x="127.246094"/>
      </g>
     </g>
    </g>
    <g id="ytick_8">
     <g id="line2d_8">
      <path d="M 58.32 51.700156 
L 851.04 51.700156 
" clip-path="url(#pe1844a210b)" style="fill: none; stroke: #cccccc; stroke-linecap: round"/>
     </g>
     <g id="text_13">
      <!-- 870 -->
      <g style="fill: #262626" transform="translate(27.82375 55.879297) scale(0.11 -0.11)">
       <defs>
        <path id="DejaVuSans-37" d="M 525 4666 
L 3525 4666 
L 3525 4397 
L 1831 0 
L 1172 0 
L 2766 4134 
L 525 4134 
L 525 4666 
z
" transform="scale(0.015625)"/>
       </defs>
       <use xlink:href="#DejaVuSans-38"/>
       <use xlink:href="#DejaVuSans-37" x="63.623047"/>
       <use xlink:href="#DejaVuSans-30" x="127.246094"/>
      </g>
     </g>
    </g>
    <g id="text_14">
     <!-- Handshake duration (ms) -->
     <g style="fill: #262626" transform="translate(21.328125 276.57625) rotate(-90) scale(0.12 -0.12)">
      <defs>
       <path id="DejaVuSans-48" d="M 628 4666 
L 1259 4666 
L 1259 2753 
L 3553 2753 
L 3553 4666 
L 4184 4666 
L 4184 0 
L 3553 0 
L 3553 2222 
L 1259 2222 
L 1259 0 
L 628 0 
L 628 4666 
z
" transform="scale(0.015625)"/>
       <path id="DejaVuSans-61" d="M 2194 1759 
Q 1497 1759 1228 1600 
Q 959 1441 959 1056 
Q 959 750 1161 570 
Q 1363 391 1709 391 
Q 2188 391 2477 730 
Q 2766 1069 2766 1631 
L 2766 1759 
L 2194 1759 
z
M 3341 1997 
L 3341 0 
L 2766 0 
L 2766 531 
Q 2569 213 2275 61 
Q 1981 -91 1556 -91 
Q 1019 -91 701 211 
Q 384 513 384 1019 
Q 384 1609 779 1909 
Q 1175 2209 1959 2209 
L 2766 2209 
L 2766 2266 
Q 2766 2663 2505 2880 
Q 2244 3097 1772 3097 
Q 1472 3097 1187 3025 
Q 903 2953 641 2809 
L 641 3341 
Q 956 3463 1253 3523 
Q 1550 3584 1831 3584 
Q 2591 3584 2966 3190 
Q 3341 2797 3341 1997 
z
" transform="scale(0.015625)"/>
       <path id="DejaVuSans-6e" d="M 3513 2113 
L 3513 0 
L 2938 0 
L 2938 2094 
Q 2938 2591 2744 2837 
Q 2550 3084 2163 3084 
Q 1697 3084 1428 2787 
Q 1159 2491 1159 1978 
L 1159 0 
L 581 0 
L 581 3500 
L 1159 3500 
L 1159 2956 
Q 1366 3272 1645 3428 
Q 1925 3584 2291 3584 
Q 2894 3584 3203 3211 
Q 3513 2838 3513 2113 
z
" transform="scale(0.015625)"/>
       <path id="DejaVuSans-64" d="M 2906 2969 
L 2906 4863 
L 3481 4863 
L 3481 0 
L 2906 0 
L 2906 525 
Q 2725 213 2448 61 
Q 2172 -91 1784 -91 
Q 1150 -91 751 415 
Q 353 922 353 1747 
Q 353 2572 751 3078 
Q 1150 3584 1784 3584 
Q 2172 3584 2448 3432 
Q 2725 3281 2906 2969 
z
M 947 1747 
Q 947 1113 1208 752 
Q 1469 391 1925 391 
Q 2381 391 2643 752 
Q 2906 1113 2906 1747 
Q 2906 2381 2643 2742 
Q 2381 3103 1925 3103 
Q 1469 3103 1208 2742 
Q 947 2381 947 1747 
z
" transform="scale(0.015625)"/>
       <path id="DejaVuSans-73" d="M 2834 3397 
L 2834 2853 
Q 2591 2978 2328 3040 
Q 2066 3103 1784 3103 
Q 1356 3103 1142 2972 
Q 928 2841 928 2578 
Q 928 2378 1081 2264 
Q 1234 2150 1697 2047 
L 1894 2003 
Q 2506 1872 2764 1633 
Q 3022 1394 3022 966 
Q 3022 478 2636 193 
Q 2250 -91 1575 -91 
Q 1294 -91 989 -36 
Q 684 19 347 128 
L 347 722 
Q 666 556 975 473 
Q 1284 391 1588 391 
Q 1994 391 2212 530 
Q 2431 669 2431 922 
Q 2431 1156 2273 1281 
Q 2116 1406 1581 1522 
L 1381 1569 
Q 847 1681 609 1914 
Q 372 2147 372 2553 
Q 372 3047 722 3315 
Q 1072 3584 1716 3584 
Q 2034 3584 2315 3537 
Q 2597 3491 2834 3397 
z
" transform="scale(0.015625)"/>
       <path id="DejaVuSans-6b" d="M 581 4863 
L 1159 4863 
L 1159 1991 
L 2875 3500 
L 3609 3500 
L 1753 1863 
L 3688 0 
L 2938 0 
L 1159 1709 
L 1159 0 
L 581 0 
L 581 4863 
z
" transform="scale(0.015625)"/>
       <path id="DejaVuSans-65" d="M 3597 1894 
L 3597 1613 
L 953 1613 
Q 991 1019 1311 708 
Q 1631 397 2203 397 
Q 2534 397 2845 478 
Q 3156 559 3463 722 
L 3463 178 
Q 3153 47 2828 -22 
Q 2503 -91 2169 -91 
Q 1331 -91 842 396 
Q 353 884 353 1716 
Q 353 2575 817 3079 
Q 1281 3584 2069 3584 
Q 2775 3584 3186 3129 
Q 3597 2675 3597 1894 
z
M 3022 2063 
Q 3016 2534 2758 2815 
Q 2500 3097 2075 3097 
Q 1594 3097 1305 2825 
Q 1016 2553 972 2059 
L 3022 2063 
z
" transform="scale(0.015625)"/>
       <path id="DejaVuSans-20" transform="scale(0.015625)"/>
       <path id="DejaVuSans-75" d="M 544 1381 
L 544 3500 
L 1119 3500 
L 1119 1403 
Q 1119 906 1312 657 
Q 1506 409 1894 409 
Q 2359 409 2629 706 
Q 2900 1003 2900 1516 
L 2900 3500 
L 3475 3500 
L 3475 0 
L 2900 0 
L 2900 538 
Q 2691 219 2414 64 
Q 2138 -91 1772 -91 
Q 1169 -91 856 284 
Q 544 659 544 1381 
z
M 1991 3584 
L 1991 3584 
z
" transform="scale(0.015625)"/>
       <path id="DejaVuSans-72" d="M 2631 2963 
Q 2534 3019 2420 3045 
Q 2306 3072 2169 3072 
Q 1681 3072 1420 2755 
Q 1159 2438 1159 1844 
L 1159 0 
L 581 0 
L 581 3500 
L 1159 3500 
L 1159 2956 
Q 1341 3275 1631 3429 
Q 1922 3584 2338 3584 
Q 2397 3584 2469 3576 
Q 2541 3569 2628 3553 
L 2631 2963 
z
" transform="scale(0.015625)"/>
       <path id="DejaVuSans-74" d="M 1172 4494 
L 1172 3500 
L 2356 3500 
L 2356 3053 
L 1172 3053 
L 1172 1153 
Q 1172 725 1289 603 
Q 1406 481 1766 481 
L 2356 481 
L 2356 0 
L 1766 0 
Q 1100 0 847 248 
Q 594 497 594 1153 
L 594 3053 
L 172 3053 
L 172 3500 
L 594 3500 
L 594 4494 
L 1172 4494 
z
" transform="scale(0.015625)"/>
       <path id="DejaVuSans-69" d="M 603 3500 
L 1178 3500 
L 1178 0 
L 603 0 
L 603 3500 
z
M 603 4863 
L 1178 4863 
L 1178 4134 
L 603 4134 
L 603 4863 
z
" transform="scale(0.015625)"/>
       <path id="DejaVuSans-6f" d="M 1959 3097 
Q 1497 3097 1228 2736 
Q 959 2375 959 1747 
Q 959 1119 1226 758 
Q 1494 397 1959 397 
Q 2419 397 2687 759 
Q 2956 1122 2956 1747 
Q 2956 2369 2687 2733 
Q 2419 3097 1959 3097 
z
M 1959 3584 
Q 2709 3584 3137 3096 
Q 3566 2609 3566 1747 
Q 3566 888 3137 398 
Q 2709 -91 1959 -91 
Q 1206 -91 779 398 
Q 353 888 353 1747 
Q 353 2609 779 3096 
Q 1206 3584 1959 3584 
z
" transform="scale(0.015625)"/>
       <path id="DejaVuSans-28" d="M 1984 4856 
Q 1566 4138 1362 3434 
Q 1159 2731 1159 2009 
Q 1159 1288 1364 580 
Q 1569 -128 1984 -844 
L 1484 -844 
Q 1016 -109 783 600 
Q 550 1309 550 2009 
Q 550 2706 781 3412 
Q 1013 4119 1484 4856 
L 1984 4856 
z
" transform="scale(0.015625)"/>
       <path id="DejaVuSans-6d" d="M 3328 2828 
Q 3544 3216 3844 3400 
Q 4144 3584 4550 3584 
Q 5097 3584 5394 3201 
Q 5691 2819 5691 2113 
L 5691 0 
L 5113 0 
L 5113 2094 
Q 5113 2597 4934 2840 
Q 4756 3084 4391 3084 
Q 3944 3084 3684 2787 
Q 3425 2491 3425 1978 
L 3425 0 
L 2847 0 
L 2847 2094 
Q 2847 2600 2669 2842 
Q 2491 3084 2119 3084 
Q 1678 3084 1418 2786 
Q 1159 2488 1159 1978 
L 1159 0 
L 581 0 
L 581 3500 
L 1159 3500 
L 1159 2956 
Q 1356 3278 1631 3431 
Q 1906 3584 2284 3584 
Q 2666 3584 2933 3390 
Q 3200 3197 3328 2828 
z
" transform="scale(0.015625)"/>
       <path id="DejaVuSans-29" d="M 513 4856 
L 1013 4856 
Q 1481 4119 1714 3412 
Q 1947 2706 1947 2009 
Q 1947 1309 1714 600 
Q 1481 -109 1013 -844 
L 513 -844 
Q 928 -128 1133 580 
Q 1338 1288 1338 2009 
Q 1338 2731 1133 3434 
Q 928 4138 513 4856 
z
" transform="scale(0.015625)"/>
      </defs>
      <use xlink:href="#DejaVuSans-48"/>
      <use xlink:href="#DejaVuSans-61" x="75.195312"/>
      <use xlink:href="#DejaVuSans-6e" x="136.474609"/>
      <use xlink:href="#DejaVuSans-64" x="199.853516"/>
      <use xlink:href="#DejaVuSans-73" x="263.330078"/>
      <use xlink:href="#DejaVuSans-68" x="315.429688"/>
      <use xlink:href="#DejaVuSans-61" x="378.808594"/>
      <use xlink:href="#DejaVuSans-6b" x="440.087891"/>
      <use xlink:href="#DejaVuSans-65" x="494.373047"/>
      <use xlink:href="#DejaVuSans-20" x="555.896484"/>
      <use xlink:href="#DejaVuSans-64" x="587.683594"/>
      <use xlink:href="#DejaVuSans-75" x="651.160156"/>
      <use xlink:href="#DejaVuSans-72" x="714.539062"/>
      <use xlink:href="#DejaVuSans-61" x="755.652344"/>
      <use xlink:href="#DejaVuSans-74" x="816.931641"/>
      <use xlink:href="#DejaVuSans-69" x="856.140625"/>
      <use xlink:href="#DejaVuSans-6f" x="883.923828"/>
      <use xlink:href="#DejaVuSans-6e" x="945.105469"/>
      <use xlink:href="#DejaVuSans-20" x="1008.484375"/>
      <use xlink:href="#DejaVuSans-28" x="1040.271484"/>
      <use xlink:href="#DejaVuSans-6d" x="1079.285156"/>
      <use xlink:href="#DejaVuSans-73" x="1176.697266"/>
      <use xlink:href="#DejaVuSans-29" x="1228.796875"/>
     </g>
    </g>
   </g>
   <g id="PolyCollection_1">
    <defs>
     <path id="me7a2e08266" d="M 137.669219 -74.302074 
L 137.514781 -74.302074 
L 137.45869 -74.682772 
L 137.378344 -75.06347 
L 137.274009 -75.444168 
L 137.152255 -75.824866 
L 137.026431 -76.205564 
L 136.914336 -76.586262 
L 136.833187 -76.96696 
L 136.793503 -77.347658 
L 136.794534 -77.728356 
L 136.823534 -78.109054 
L 136.859413 -78.489752 
L 136.879244 -78.87045 
L 136.864869 -79.251148 
L 136.807187 -79.631846 
L 136.707232 -80.012544 
L 136.574539 -80.393242 
L 136.423896 -80.77394 
L 136.271193 -81.154638 
L 136.128768 -81.535336 
L 136.000998 -81.916034 
L 135.881598 -82.296732 
L 135.754235 -82.67743 
L 135.596766 -83.058128 
L 135.387323 -83.438826 
L 135.109148 -83.819524 
L 134.751844 -84.200222 
L 134.309264 -84.58092 
L 133.776671 -84.961618 
L 133.150179 -85.342316 
L 132.429479 -85.723014 
L 131.621969 -86.103712 
L 130.744987 -86.48441 
L 129.823884 -86.865108 
L 128.886162 -87.245806 
L 127.95365 -87.626504 
L 127.034226 -88.007202 
L 126.112875 -88.3879 
L 125.14127 -88.768598 
L 124.027402 -89.149296 
L 122.630935 -89.529994 
L 120.772476 -89.910692 
L 118.262333 -90.29139 
L 114.946457 -90.672088 
L 110.757699 -91.052786 
L 105.754962 -91.433484 
L 100.135606 -91.814182 
L 94.216919 -92.19488 
L 88.395043 -92.575578 
L 83.096486 -92.956276 
L 78.73401 -93.336974 
L 75.668892 -93.717672 
L 74.1744 -94.09837 
L 74.397865 -94.479068 
L 76.328779 -94.859766 
L 79.787932 -95.240465 
L 84.448843 -95.621163 
L 89.888817 -96.001861 
L 95.653132 -96.382559 
L 101.312444 -96.763257 
L 106.501898 -97.143955 
L 110.942735 -97.524653 
L 114.454094 -97.905351 
L 116.961017 -98.286049 
L 118.498458 -98.666747 
L 119.206775 -99.047445 
L 119.314555 -99.428143 
L 119.108194 -99.808841 
L 118.891088 -100.189539 
L 118.937319 -100.570237 
L 119.446317 -100.950935 
L 120.507104 -101.331633 
L 122.08218 -101.712331 
L 124.018997 -102.093029 
L 126.089906 -102.473727 
L 128.051353 -102.854425 
L 129.70498 -103.235123 
L 130.941715 -103.615821 
L 131.756232 -103.996519 
L 132.230381 -104.377217 
L 132.495051 -104.757915 
L 132.685915 -105.138613 
L 132.907742 -105.519311 
L 133.216084 -105.900009 
L 133.617508 -106.280707 
L 134.083448 -106.661405 
L 134.569904 -107.042103 
L 135.035561 -107.422801 
L 135.453334 -107.803499 
L 135.813678 -108.184197 
L 136.121004 -108.564895 
L 136.386514 -108.945593 
L 136.621123 -109.326291 
L 136.831123 -109.706989 
L 137.017403 -110.087687 
L 137.177407 -110.468385 
L 137.308132 -110.849083 
L 137.408538 -111.229781 
L 137.480532 -111.610479 
L 137.528527 -111.991177 
L 137.655473 -111.991177 
L 137.655473 -111.991177 
L 137.703468 -111.610479 
L 137.775462 -111.229781 
L 137.875868 -110.849083 
L 138.006593 -110.468385 
L 138.166597 -110.087687 
L 138.352877 -109.706989 
L 138.562877 -109.326291 
L 138.797486 -108.945593 
L 139.062996 -108.564895 
L 139.370322 -108.184197 
L 139.730666 -107.803499 
L 140.148439 -107.422801 
L 140.614096 -107.042103 
L 141.100552 -106.661405 
L 141.566492 -106.280707 
L 141.967916 -105.900009 
L 142.276258 -105.519311 
L 142.498085 -105.138613 
L 142.688949 -104.757915 
L 142.953619 -104.377217 
L 143.427768 -103.996519 
L 144.242285 -103.615821 
L 145.47902 -103.235123 
L 147.132647 -102.854425 
L 149.094094 -102.473727 
L 151.165003 -102.093029 
L 153.10182 -101.712331 
L 154.676896 -101.331633 
L 155.737683 -100.950935 
L 156.246681 -100.570237 
L 156.292912 -100.189539 
L 156.075806 -99.808841 
L 155.869445 -99.428143 
L 155.977225 -99.047445 
L 156.685542 -98.666747 
L 158.222983 -98.286049 
L 160.729906 -97.905351 
L 164.241265 -97.524653 
L 168.682102 -97.143955 
L 173.871556 -96.763257 
L 179.530868 -96.382559 
L 185.295183 -96.001861 
L 190.735157 -95.621163 
L 195.396068 -95.240465 
L 198.855221 -94.859766 
L 200.786135 -94.479068 
L 201.0096 -94.09837 
L 199.515108 -93.717672 
L 196.44999 -93.336974 
L 192.087514 -92.956276 
L 186.788957 -92.575578 
L 180.967081 -92.19488 
L 175.048394 -91.814182 
L 169.429038 -91.433484 
L 164.426301 -91.052786 
L 160.237543 -90.672088 
L 156.921667 -90.29139 
L 154.411524 -89.910692 
L 152.553065 -89.529994 
L 151.156598 -89.149296 
L 150.04273 -88.768598 
L 149.071125 -88.3879 
L 148.149774 -88.007202 
L 147.23035 -87.626504 
L 146.297838 -87.245806 
L 145.360116 -86.865108 
L 144.439013 -86.48441 
L 143.562031 -86.103712 
L 142.754521 -85.723014 
L 142.033821 -85.342316 
L 141.407329 -84.961618 
L 140.874736 -84.58092 
L 140.432156 -84.200222 
L 140.074852 -83.819524 
L 139.796677 -83.438826 
L 139.587234 -83.058128 
L 139.429765 -82.67743 
L 139.302402 -82.296732 
L 139.183002 -81.916034 
L 139.055232 -81.535336 
L 138.912807 -81.154638 
L 138.760104 -80.77394 
L 138.609461 -80.393242 
L 138.476768 -80.012544 
L 138.376813 -79.631846 
L 138.319131 -79.251148 
L 138.304756 -78.87045 
L 138.324587 -78.489752 
L 138.360466 -78.109054 
L 138.389466 -77.728356 
L 138.390497 -77.347658 
L 138.350813 -76.96696 
L 138.269664 -76.586262 
L 138.157569 -76.205564 
L 138.031745 -75.824866 
L 137.909991 -75.444168 
L 137.805656 -75.06347 
L 137.72531 -74.682772 
L 137.669219 -74.302074 
z
" style="stroke: #595959; stroke-width: 1.25"/>
    </defs>
    <g clip-path="url(#pe1844a210b)">
     <use xlink:href="#me7a2e08266" x="0" y="432" style="fill: #72b6a1; stroke: #595959; stroke-width: 1.25"/>
    </g>
   </g>
   <g id="PolyCollection_2">
    <defs>
     <path id="m360a491e29" d="M 296.19938 -74.74059 
L 296.07262 -74.74059 
L 296.028356 -75.115138 
L 295.967453 -75.489686 
L 295.892686 -75.864235 
L 295.812133 -76.238783 
L 295.738412 -76.613331 
L 295.685547 -76.987879 
L 295.664213 -77.362427 
L 295.677253 -77.736975 
L 295.71747 -78.111524 
L 295.768737 -78.486072 
L 295.809999 -78.86062 
L 295.820703 -79.235168 
L 295.786135 -79.609716 
L 295.701583 -79.984265 
L 295.574517 -80.358813 
L 295.423927 -80.733361 
L 295.276158 -81.107909 
L 295.157719 -81.482457 
L 295.087307 -81.857006 
L 295.0704 -82.231554 
L 295.098821 -82.606102 
L 295.154882 -82.98065 
L 295.216839 -83.355198 
L 295.261708 -83.729747 
L 295.26375 -84.104295 
L 295.190493 -84.478843 
L 295.000525 -84.853391 
L 294.64657 -85.227939 
L 294.084116 -85.602488 
L 293.282137 -85.977036 
L 292.230795 -86.351584 
L 290.942598 -86.726132 
L 289.447541 -87.10068 
L 287.786597 -87.475229 
L 286.008812 -87.849777 
L 284.173598 -88.224325 
L 282.35359 -88.598873 
L 280.628935 -88.973421 
L 279.065774 -89.34797 
L 277.680812 -89.722518 
L 276.405931 -90.097066 
L 275.073998 -90.471614 
L 273.443086 -90.846162 
L 271.261234 -91.220711 
L 268.354242 -91.595259 
L 264.705085 -91.969807 
L 260.493219 -92.344355 
L 256.076504 -92.718903 
L 251.920577 -93.093452 
L 248.498804 -93.468 
L 246.191528 -93.842548 
L 245.206129 -94.217096 
L 245.527691 -94.591644 
L 246.903421 -94.966193 
L 248.864682 -95.340741 
L 250.792508 -95.715289 
L 252.027577 -96.089837 
L 252.01209 -96.464385 
L 250.43487 -96.838934 
L 247.341333 -97.213482 
L 243.17187 -97.58803 
L 238.705662 -97.962578 
L 234.909364 -98.337126 
L 232.7184 -98.711674 
L 232.806174 -99.086223 
L 235.411544 -99.460771 
L 240.284225 -99.835319 
L 246.768459 -100.209867 
L 253.992657 -100.584415 
L 261.093655 -100.958964 
L 267.399632 -101.333512 
L 272.524898 -101.70806 
L 276.37249 -102.082608 
L 279.072584 -102.457156 
L 280.894303 -102.831705 
L 282.159609 -103.206253 
L 283.173181 -103.580801 
L 284.171945 -103.955349 
L 285.29527 -104.329897 
L 286.5779 -104.704446 
L 287.966818 -105.078994 
L 289.357786 -105.453542 
L 290.639733 -105.82809 
L 291.73152 -106.202638 
L 292.599495 -106.577187 
L 293.254196 -106.951735 
L 293.734016 -107.326283 
L 294.087012 -107.700831 
L 294.358397 -108.075379 
L 294.584899 -108.449928 
L 294.793021 -108.824476 
L 294.998358 -109.199024 
L 295.205432 -109.573572 
L 295.409178 -109.94812 
L 295.598761 -110.322669 
L 295.762715 -110.697217 
L 295.893387 -111.071765 
L 295.989017 -111.446313 
L 296.053201 -111.820861 
L 296.218799 -111.820861 
L 296.218799 -111.820861 
L 296.282983 -111.446313 
L 296.378613 -111.071765 
L 296.509285 -110.697217 
L 296.673239 -110.322669 
L 296.862822 -109.94812 
L 297.066568 -109.573572 
L 297.273642 -109.199024 
L 297.478979 -108.824476 
L 297.687101 -108.449928 
L 297.913603 -108.075379 
L 298.184988 -107.700831 
L 298.537984 -107.326283 
L 299.017804 -106.951735 
L 299.672505 -106.577187 
L 300.54048 -106.202638 
L 301.632267 -105.82809 
L 302.914214 -105.453542 
L 304.305182 -105.078994 
L 305.6941 -104.704446 
L 306.97673 -104.329897 
L 308.100055 -103.955349 
L 309.098819 -103.580801 
L 310.112391 -103.206253 
L 311.377697 -102.831705 
L 313.199416 -102.457156 
L 315.89951 -102.082608 
L 319.747102 -101.70806 
L 324.872368 -101.333512 
L 331.178345 -100.958964 
L 338.279343 -100.584415 
L 345.503541 -100.209867 
L 351.987775 -99.835319 
L 356.860456 -99.460771 
L 359.465826 -99.086223 
L 359.5536 -98.711674 
L 357.362636 -98.337126 
L 353.566338 -97.962578 
L 349.10013 -97.58803 
L 344.930667 -97.213482 
L 341.83713 -96.838934 
L 340.25991 -96.464385 
L 340.244423 -96.089837 
L 341.479492 -95.715289 
L 343.407318 -95.340741 
L 345.368579 -94.966193 
L 346.744309 -94.591644 
L 347.065871 -94.217096 
L 346.080472 -93.842548 
L 343.773196 -93.468 
L 340.351423 -93.093452 
L 336.195496 -92.718903 
L 331.778781 -92.344355 
L 327.566915 -91.969807 
L 323.917758 -91.595259 
L 321.010766 -91.220711 
L 318.828914 -90.846162 
L 317.198002 -90.471614 
L 315.866069 -90.097066 
L 314.591188 -89.722518 
L 313.206226 -89.34797 
L 311.643065 -88.973421 
L 309.91841 -88.598873 
L 308.098402 -88.224325 
L 306.263188 -87.849777 
L 304.485403 -87.475229 
L 302.824459 -87.10068 
L 301.329402 -86.726132 
L 300.041205 -86.351584 
L 298.989863 -85.977036 
L 298.187884 -85.602488 
L 297.62543 -85.227939 
L 297.271475 -84.853391 
L 297.081507 -84.478843 
L 297.00825 -84.104295 
L 297.010292 -83.729747 
L 297.055161 -83.355198 
L 297.117118 -82.98065 
L 297.173179 -82.606102 
L 297.2016 -82.231554 
L 297.184693 -81.857006 
L 297.114281 -81.482457 
L 296.995842 -81.107909 
L 296.848073 -80.733361 
L 296.697483 -80.358813 
L 296.570417 -79.984265 
L 296.485865 -79.609716 
L 296.451297 -79.235168 
L 296.462001 -78.86062 
L 296.503263 -78.486072 
L 296.55453 -78.111524 
L 296.594747 -77.736975 
L 296.607787 -77.362427 
L 296.586453 -76.987879 
L 296.533588 -76.613331 
L 296.459867 -76.238783 
L 296.379314 -75.864235 
L 296.304547 -75.489686 
L 296.243644 -75.115138 
L 296.19938 -74.74059 
z
" style="stroke: #595959; stroke-width: 1.25"/>
    </defs>
    <g clip-path="url(#pe1844a210b)">
     <use xlink:href="#m360a491e29" x="0" y="432" style="fill: #e99675; stroke: #595959; stroke-width: 1.25"/>
    </g>
   </g>
   <g id="PolyCollection_3">
    <defs>
     <path id="ma0b1c5e9bd" d="M 454.741769 -135.300855 
L 454.618231 -135.300855 
L 454.586173 -137.060822 
L 454.542547 -138.820789 
L 454.485361 -140.580756 
L 454.412814 -142.340723 
L 454.323134 -144.100689 
L 454.214106 -145.860656 
L 454.082243 -147.620623 
L 453.921616 -149.38059 
L 453.722437 -151.140557 
L 453.469533 -152.900524 
L 453.140902 -154.660491 
L 452.706525 -156.420457 
L 452.127645 -158.180424 
L 451.356751 -159.940391 
L 450.338478 -161.700358 
L 449.011638 -163.460325 
L 447.31246 -165.220292 
L 445.179024 -166.980258 
L 442.556691 -168.740225 
L 439.404348 -170.500192 
L 435.7013 -172.260159 
L 431.454766 -174.020126 
L 426.707869 -175.780093 
L 421.547724 -177.540059 
L 416.112486 -179.300026 
L 410.595402 -181.059993 
L 405.243182 -182.81996 
L 400.345989 -184.579927 
L 396.217355 -186.339894 
L 393.164387 -188.09986 
L 391.451367 -189.859827 
L 391.2624 -191.619794 
L 392.670318 -193.379761 
L 395.618826 -195.139728 
L 399.922702 -196.899695 
L 405.287188 -198.659662 
L 411.343474 -200.419628 
L 417.693597 -202.179595 
L 423.956188 -203.939562 
L 429.804805 -205.699529 
L 434.992873 -207.459496 
L 439.362776 -209.219463 
L 442.840288 -210.979429 
L 445.418339 -212.739396 
L 447.135525 -214.499363 
L 448.054703 -216.25933 
L 448.245839 -218.019297 
L 447.775507 -219.779264 
L 446.703641 -221.53923 
L 445.08657 -223.299197 
L 442.984295 -225.059164 
L 440.469406 -226.819131 
L 437.634946 -228.579098 
L 434.598911 -230.339065 
L 431.503841 -232.099031 
L 428.510964 -233.858998 
L 425.789441 -235.618965 
L 423.502299 -237.378932 
L 421.791277 -239.138899 
L 420.76308 -240.898866 
L 420.479199 -242.658833 
L 420.95077 -244.418799 
L 422.138981 -246.178766 
L 423.960595 -247.938733 
L 426.297472 -249.6987 
L 429.0086 -251.458667 
L 431.943088 -253.218634 
L 434.952751 -254.9786 
L 437.903118 -256.738567 
L 440.682003 -258.498534 
L 443.205008 -260.258501 
L 445.41772 -262.018468 
L 447.294708 -263.778435 
L 448.83585 -265.538401 
L 450.060865 -267.298368 
L 451.003064 -269.058335 
L 451.703334 -270.818302 
L 452.205065 -272.578269 
L 452.550433 -274.338236 
L 452.778047 -276.098202 
L 452.921739 -277.858169 
L 453.010152 -279.618136 
L 453.066808 -281.378103 
L 453.110408 -283.13807 
L 453.155202 -284.898037 
L 453.211345 -286.658003 
L 453.285199 -288.41797 
L 453.379584 -290.177937 
L 453.494055 -291.937904 
L 453.625292 -293.697871 
L 453.767707 -295.457838 
L 453.914294 -297.217805 
L 454.057651 -298.977771 
L 454.191029 -300.737738 
L 454.309187 -302.497705 
L 454.408924 -304.257672 
L 454.489178 -306.017639 
L 454.550764 -307.777606 
L 454.595854 -309.537572 
L 454.764146 -309.537572 
L 454.764146 -309.537572 
L 454.809236 -307.777606 
L 454.870822 -306.017639 
L 454.951076 -304.257672 
L 455.050813 -302.497705 
L 455.168971 -300.737738 
L 455.302349 -298.977771 
L 455.445706 -297.217805 
L 455.592293 -295.457838 
L 455.734708 -293.697871 
L 455.865945 -291.937904 
L 455.980416 -290.177937 
L 456.074801 -288.41797 
L 456.148655 -286.658003 
L 456.204798 -284.898037 
L 456.249592 -283.13807 
L 456.293192 -281.378103 
L 456.349848 -279.618136 
L 456.438261 -277.858169 
L 456.581953 -276.098202 
L 456.809567 -274.338236 
L 457.154935 -272.578269 
L 457.656666 -270.818302 
L 458.356936 -269.058335 
L 459.299135 -267.298368 
L 460.52415 -265.538401 
L 462.065292 -263.778435 
L 463.94228 -262.018468 
L 466.154992 -260.258501 
L 468.677997 -258.498534 
L 471.456882 -256.738567 
L 474.407249 -254.9786 
L 477.416912 -253.218634 
L 480.3514 -251.458667 
L 483.062528 -249.6987 
L 485.399405 -247.938733 
L 487.221019 -246.178766 
L 488.40923 -244.418799 
L 488.880801 -242.658833 
L 488.59692 -240.898866 
L 487.568723 -239.138899 
L 485.857701 -237.378932 
L 483.570559 -235.618965 
L 480.849036 -233.858998 
L 477.856159 -232.099031 
L 474.761089 -230.339065 
L 471.725054 -228.579098 
L 468.890594 -226.819131 
L 466.375705 -225.059164 
L 464.27343 -223.299197 
L 462.656359 -221.53923 
L 461.584493 -219.779264 
L 461.114161 -218.019297 
L 461.305297 -216.25933 
L 462.224475 -214.499363 
L 463.941661 -212.739396 
L 466.519712 -210.979429 
L 469.997224 -209.219463 
L 474.367127 -207.459496 
L 479.555195 -205.699529 
L 485.403812 -203.939562 
L 491.666403 -202.179595 
L 498.016526 -200.419628 
L 504.072812 -198.659662 
L 509.437298 -196.899695 
L 513.741174 -195.139728 
L 516.689682 -193.379761 
L 518.0976 -191.619794 
L 517.908633 -189.859827 
L 516.195613 -188.09986 
L 513.142645 -186.339894 
L 509.014011 -184.579927 
L 504.116818 -182.81996 
L 498.764598 -181.059993 
L 493.247514 -179.300026 
L 487.812276 -177.540059 
L 482.652131 -175.780093 
L 477.905234 -174.020126 
L 473.6587 -172.260159 
L 469.955652 -170.500192 
L 466.803309 -168.740225 
L 464.180976 -166.980258 
L 462.04754 -165.220292 
L 460.348362 -163.460325 
L 459.021522 -161.700358 
L 458.003249 -159.940391 
L 457.232355 -158.180424 
L 456.653475 -156.420457 
L 456.219098 -154.660491 
L 455.890467 -152.900524 
L 455.637563 -151.140557 
L 455.438384 -149.38059 
L 455.277757 -147.620623 
L 455.145894 -145.860656 
L 455.036866 -144.100689 
L 454.947186 -142.340723 
L 454.874639 -140.580756 
L 454.817453 -138.820789 
L 454.773827 -137.060822 
L 454.741769 -135.300855 
z
" style="stroke: #595959; stroke-width: 1.25"/>
    </defs>
    <g clip-path="url(#pe1844a210b)">
     <use xlink:href="#ma0b1c5e9bd" x="0" y="432" style="fill: #95a3c3; stroke: #595959; stroke-width: 1.25"/>
    </g>
   </g>
   <g id="PolyCollection_4">
    <defs>
     <path id="m140800dc83" d="M 613.439097 -169.606142 
L 613.008903 -169.606142 
L 612.868871 -171.81902 
L 612.653628 -174.031898 
L 612.331401 -176.244776 
L 611.860736 -178.457653 
L 611.18888 -180.670531 
L 610.250497 -182.883409 
L 608.967244 -185.096287 
L 607.249106 -187.309165 
L 604.998626 -189.522043 
L 602.119343 -191.734921 
L 598.529386 -193.947798 
L 594.180299 -196.160676 
L 589.0796 -198.373554 
L 583.31362 -200.586432 
L 577.065314 -202.79931 
L 570.620764 -205.012188 
L 564.358781 -207.225066 
L 558.72065 -209.437944 
L 554.161491 -211.650821 
L 551.089857 -213.863699 
L 549.8064 -216.076577 
L 550.45434 -218.289455 
L 552.992931 -220.502333 
L 557.200354 -222.715211 
L 562.705795 -224.928089 
L 569.043737 -227.140967 
L 575.718852 -229.353844 
L 582.268424 -231.566722 
L 588.311193 -233.7796 
L 593.575905 -235.992478 
L 597.908152 -238.205356 
L 601.258706 -240.418234 
L 603.659511 -242.631112 
L 605.19441 -244.84399 
L 605.970885 -247.056867 
L 606.09729 -249.269745 
L 605.667974 -251.482623 
L 604.756834 -253.695501 
L 603.418536 -255.908379 
L 601.695754 -258.121257 
L 599.630277 -260.334135 
L 597.275481 -262.547012 
L 594.707483 -264.75989 
L 592.032342 -266.972768 
L 589.387136 -269.185646 
L 586.933659 -271.398524 
L 584.844907 -273.611402 
L 583.28612 -275.82428 
L 582.393591 -278.037158 
L 582.255309 -280.250035 
L 582.89742 -282.462913 
L 584.279455 -284.675791 
L 586.299446 -286.888669 
L 588.807927 -289.101547 
L 591.62797 -291.314425 
L 594.577308 -293.527303 
L 597.488525 -295.740181 
L 600.224127 -297.953058 
L 602.684826 -300.165936 
L 604.810982 -302.378814 
L 606.578516 -304.591692 
L 607.991398 -306.80457 
L 609.072934 -309.017448 
L 609.857735 -311.230326 
L 610.385521 -313.443204 
L 610.697204 -315.656081 
L 610.833031 -317.868959 
L 610.832183 -320.081837 
L 610.733038 -322.294715 
L 610.573363 -324.507593 
L 610.389864 -326.720471 
L 610.216882 -328.933349 
L 610.084318 -331.146226 
L 610.015213 -333.359104 
L 610.023608 -335.571982 
L 610.113318 -337.78486 
L 610.278092 -339.997738 
L 610.503263 -342.210616 
L 610.768632 -344.423494 
L 611.051991 -346.636372 
L 611.332553 -348.849249 
L 611.593664 -351.062127 
L 611.824366 -353.275005 
L 612.01975 -355.487883 
L 612.180268 -357.700761 
L 612.310352 -359.913639 
L 612.416729 -362.126517 
L 612.506769 -364.339395 
L 612.587114 -366.552272 
L 612.662744 -368.76515 
L 612.736531 -370.978028 
L 612.809273 -373.190906 
L 612.880112 -375.403784 
L 612.947191 -377.616662 
L 613.008363 -379.82954 
L 613.061804 -382.042418 
L 613.10641 -384.255295 
L 613.141936 -386.468173 
L 613.168925 -388.681051 
L 613.279075 -388.681051 
L 613.279075 -388.681051 
L 613.306064 -386.468173 
L 613.34159 -384.255295 
L 613.386196 -382.042418 
L 613.439637 -379.82954 
L 613.500809 -377.616662 
L 613.567888 -375.403784 
L 613.638727 -373.190906 
L 613.711469 -370.978028 
L 613.785256 -368.76515 
L 613.860886 -366.552272 
L 613.941231 -364.339395 
L 614.031271 -362.126517 
L 614.137648 -359.913639 
L 614.267732 -357.700761 
L 614.42825 -355.487883 
L 614.623634 -353.275005 
L 614.854336 -351.062127 
L 615.115447 -348.849249 
L 615.396009 -346.636372 
L 615.679368 -344.423494 
L 615.944737 -342.210616 
L 616.169908 -339.997738 
L 616.334682 -337.78486 
L 616.424392 -335.571982 
L 616.432787 -333.359104 
L 616.363682 -331.146226 
L 616.231118 -328.933349 
L 616.058136 -326.720471 
L 615.874637 -324.507593 
L 615.714962 -322.294715 
L 615.615817 -320.081837 
L 615.614969 -317.868959 
L 615.750796 -315.656081 
L 616.062479 -313.443204 
L 616.590265 -311.230326 
L 617.375066 -309.017448 
L 618.456602 -306.80457 
L 619.869484 -304.591692 
L 621.637018 -302.378814 
L 623.763174 -300.165936 
L 626.223873 -297.953058 
L 628.959475 -295.740181 
L 631.870692 -293.527303 
L 634.82003 -291.314425 
L 637.640073 -289.101547 
L 640.148554 -286.888669 
L 642.168545 -284.675791 
L 643.55058 -282.462913 
L 644.192691 -280.250035 
L 644.054409 -278.037158 
L 643.16188 -275.82428 
L 641.603093 -273.611402 
L 639.514341 -271.398524 
L 637.060864 -269.185646 
L 634.415658 -266.972768 
L 631.740517 -264.75989 
L 629.172519 -262.547012 
L 626.817723 -260.334135 
L 624.752246 -258.121257 
L 623.029464 -255.908379 
L 621.691166 -253.695501 
L 620.780026 -251.482623 
L 620.35071 -249.269745 
L 620.477115 -247.056867 
L 621.25359 -244.84399 
L 622.788489 -242.631112 
L 625.189294 -240.418234 
L 628.539848 -238.205356 
L 632.872095 -235.992478 
L 638.136807 -233.7796 
L 644.179576 -231.566722 
L 650.729148 -229.353844 
L 657.404263 -227.140967 
L 663.742205 -224.928089 
L 669.247646 -222.715211 
L 673.455069 -220.502333 
L 675.99366 -218.289455 
L 676.6416 -216.076577 
L 675.358143 -213.863699 
L 672.286509 -211.650821 
L 667.72735 -209.437944 
L 662.089219 -207.225066 
L 655.827236 -205.012188 
L 649.382686 -202.79931 
L 643.13438 -200.586432 
L 637.3684 -198.373554 
L 632.267701 -196.160676 
L 627.918614 -193.947798 
L 624.328657 -191.734921 
L 621.449374 -189.522043 
L 619.198894 -187.309165 
L 617.480756 -185.096287 
L 616.197503 -182.883409 
L 615.25912 -180.670531 
L 614.587264 -178.457653 
L 614.116599 -176.244776 
L 613.794372 -174.031898 
L 613.579129 -171.81902 
L 613.439097 -169.606142 
z
" style="stroke: #595959; stroke-width: 1.25"/>
    </defs>
    <g clip-path="url(#pe1844a210b)">
     <use xlink:href="#m140800dc83" x="0" y="432" style="fill: #db96c0; stroke: #595959; stroke-width: 1.25"/>
    </g>
   </g>
   <g id="PolyCollection_5">
    <defs>
     <path id="m6a0298bb69" d="M 771.880793 -137.439229 
L 771.655207 -137.439229 
L 771.594285 -139.304545 
L 771.50948 -141.169861 
L 771.395713 -143.035177 
L 771.248262 -144.900493 
L 771.062932 -146.765809 
L 770.835833 -148.631125 
L 770.562575 -150.496441 
L 770.236805 -152.361757 
L 769.848149 -154.227073 
L 769.379785 -156.092389 
L 768.806001 -157.957706 
L 768.090116 -159.823022 
L 767.183153 -161.688338 
L 766.023589 -163.553654 
L 764.538551 -165.41897 
L 762.646908 -167.284286 
L 760.264864 -169.149602 
L 757.314679 -171.014918 
L 753.736889 -172.880234 
L 749.505702 -174.74555 
L 744.646083 -176.610866 
L 739.249767 -178.476182 
L 733.486317 -180.341498 
L 727.605078 -182.206815 
L 721.924689 -184.072131 
L 716.808843 -185.937447 
L 712.629868 -187.802763 
L 709.724726 -189.668079 
L 708.3504 -191.533395 
L 708.646599 -193.398711 
L 710.612937 -195.264027 
L 714.105255 -197.129343 
L 718.85218 -198.994659 
L 724.489079 -200.859975 
L 730.603289 -202.725291 
L 736.782537 -204.590608 
L 742.658285 -206.455924 
L 747.937311 -208.32124 
L 752.417664 -210.186556 
L 755.98858 -212.051872 
L 758.617162 -213.917188 
L 760.326882 -215.782504 
L 761.17394 -217.64782 
L 761.227076 -219.513136 
L 760.55477 -221.378452 
L 759.221497 -223.243768 
L 757.292153 -225.109084 
L 754.841762 -226.9744 
L 751.966289 -228.839717 
L 748.790364 -230.705033 
L 745.468626 -232.570349 
L 742.179299 -234.435665 
L 739.110729 -236.300981 
L 736.443532 -238.166297 
L 734.332161 -240.031613 
L 732.889772 -241.896929 
L 732.179287 -243.762245 
L 732.211871 -245.627561 
L 732.952182 -247.492877 
L 734.328277 -249.358193 
L 736.243434 -251.223509 
L 738.587378 -253.088826 
L 741.245334 -254.954142 
L 744.104456 -256.819458 
L 747.058101 -258.684774 
L 750.008775 -260.55009 
L 752.870492 -262.415406 
L 755.570791 -264.280722 
L 758.052308 -266.146038 
L 760.273572 -268.011354 
L 762.208824 -269.87667 
L 763.846951 -271.741986 
L 765.189873 -273.607302 
L 766.250795 -275.472618 
L 767.052605 -277.337935 
L 767.626403 -279.203251 
L 768.009932 -281.068567 
L 768.245571 -282.933883 
L 768.377696 -284.799199 
L 768.449502 -286.664515 
L 768.499666 -288.529831 
L 768.559447 -290.395147 
L 768.650781 -292.260463 
L 768.785707 -294.125779 
L 768.967129 -295.991095 
L 769.190614 -297.856411 
L 769.446714 -299.721728 
L 769.723306 -301.587044 
L 770.007593 -303.45236 
L 770.287564 -305.317676 
L 770.552944 -307.182992 
L 770.795712 -309.048308 
L 771.010329 -310.913624 
L 771.193744 -312.77894 
L 771.34523 -314.644256 
L 771.466061 -316.509572 
L 771.559061 -318.374888 
L 771.628068 -320.240204 
L 771.677391 -322.10552 
L 771.858609 -322.10552 
L 771.858609 -322.10552 
L 771.907932 -320.240204 
L 771.976939 -318.374888 
L 772.069939 -316.509572 
L 772.19077 -314.644256 
L 772.342256 -312.77894 
L 772.525671 -310.913624 
L 772.740288 -309.048308 
L 772.983056 -307.182992 
L 773.248436 -305.317676 
L 773.528407 -303.45236 
L 773.812694 -301.587044 
L 774.089286 -299.721728 
L 774.345386 -297.856411 
L 774.568871 -295.991095 
L 774.750293 -294.125779 
L 774.885219 -292.260463 
L 774.976553 -290.395147 
L 775.036334 -288.529831 
L 775.086498 -286.664515 
L 775.158304 -284.799199 
L 775.290429 -282.933883 
L 775.526068 -281.068567 
L 775.909597 -279.203251 
L 776.483395 -277.337935 
L 777.285205 -275.472618 
L 778.346127 -273.607302 
L 779.689049 -271.741986 
L 781.327176 -269.87667 
L 783.262428 -268.011354 
L 785.483692 -266.146038 
L 787.965209 -264.280722 
L 790.665508 -262.415406 
L 793.527225 -260.55009 
L 796.477899 -258.684774 
L 799.431544 -256.819458 
L 802.290666 -254.954142 
L 804.948622 -253.088826 
L 807.292566 -251.223509 
L 809.207723 -249.358193 
L 810.583818 -247.492877 
L 811.324129 -245.627561 
L 811.356713 -243.762245 
L 810.646228 -241.896929 
L 809.203839 -240.031613 
L 807.092468 -238.166297 
L 804.425271 -236.300981 
L 801.356701 -234.435665 
L 798.067374 -232.570349 
L 794.745636 -230.705033 
L 791.569711 -228.839717 
L 788.694238 -226.9744 
L 786.243847 -225.109084 
L 784.314503 -223.243768 
L 782.98123 -221.378452 
L 782.308924 -219.513136 
L 782.36206 -217.64782 
L 783.209118 -215.782504 
L 784.918838 -213.917188 
L 787.54742 -212.051872 
L 791.118336 -210.186556 
L 795.598689 -208.32124 
L 800.877715 -206.455924 
L 806.753463 -204.590608 
L 812.932711 -202.725291 
L 819.046921 -200.859975 
L 824.68382 -198.994659 
L 829.430745 -197.129343 
L 832.923063 -195.264027 
L 834.889401 -193.398711 
L 835.1856 -191.533395 
L 833.811274 -189.668079 
L 830.906132 -187.802763 
L 826.727157 -185.937447 
L 821.611311 -184.072131 
L 815.930922 -182.206815 
L 810.049683 -180.341498 
L 804.286233 -178.476182 
L 798.889917 -176.610866 
L 794.030298 -174.74555 
L 789.799111 -172.880234 
L 786.221321 -171.014918 
L 783.271136 -169.149602 
L 780.889092 -167.284286 
L 778.997449 -165.41897 
L 777.512411 -163.553654 
L 776.352847 -161.688338 
L 775.445884 -159.823022 
L 774.729999 -157.957706 
L 774.156215 -156.092389 
L 773.687851 -154.227073 
L 773.299195 -152.361757 
L 772.973425 -150.496441 
L 772.700167 -148.631125 
L 772.473068 -146.765809 
L 772.287738 -144.900493 
L 772.140287 -143.035177 
L 772.02652 -141.169861 
L 771.941715 -139.304545 
L 771.880793 -137.439229 
z
" style="stroke: #595959; stroke-width: 1.25"/>
    </defs>
    <g clip-path="url(#pe1844a210b)">
     <use xlink:href="#m6a0298bb69" x="0" y="432" style="fill: #a2c865; stroke: #595959; stroke-width: 1.25"/>
    </g>
   </g>
   <g id="line2d_9">
    <path d="M 137.592 339.345075 
L 137.592 345.424284 
" clip-path="url(#pe1844a210b)" style="fill: none; stroke: #000000"/>
   </g>
   <g id="line2d_10">
    <path d="M 137.592 335.243844 
L 137.592 329.376961 
" clip-path="url(#pe1844a210b)" style="fill: none; stroke: #000000"/>
   </g>
   <g id="line2d_11">
    <path d="M 131.6466 345.424284 
L 143.5374 345.424284 
" clip-path="url(#pe1844a210b)" style="fill: none; stroke: #000000; stroke-linecap: round"/>
   </g>
   <g id="line2d_12">
    <path d="M 131.6466 329.376961 
L 143.5374 329.376961 
" clip-path="url(#pe1844a210b)" style="fill: none; stroke: #000000; stroke-linecap: round"/>
   </g>
   <g id="line2d_13">
    <path d="M 296.136 338.473424 
L 296.136 345.245484 
" clip-path="url(#pe1844a210b)" style="fill: none; stroke: #000000"/>
   </g>
   <g id="line2d_14">
    <path d="M 296.136 332.729466 
L 296.136 324.906954 
" clip-path="url(#pe1844a210b)" style="fill: none; stroke: #000000"/>
   </g>
   <g id="line2d_15">
    <path d="M 290.1906 345.245484 
L 302.0814 345.245484 
" clip-path="url(#pe1844a210b)" style="fill: none; stroke: #000000; stroke-linecap: round"/>
   </g>
   <g id="line2d_16">
    <path d="M 290.1906 324.906954 
L 302.0814 324.906954 
" clip-path="url(#pe1844a210b)" style="fill: none; stroke: #000000; stroke-linecap: round"/>
   </g>
   <g id="line2d_17">
    <path d="M 454.68 243.284635 
L 454.68 279.804588 
" clip-path="url(#pe1844a210b)" style="fill: none; stroke: #000000"/>
   </g>
   <g id="line2d_18">
    <path d="M 454.68 192.415961 
L 454.68 139.356984 
" clip-path="url(#pe1844a210b)" style="fill: none; stroke: #000000"/>
   </g>
   <g id="line2d_19">
    <path d="M 448.7346 279.804588 
L 460.6254 279.804588 
" clip-path="url(#pe1844a210b)" style="fill: none; stroke: #000000; stroke-linecap: round"/>
   </g>
   <g id="line2d_20">
    <path d="M 448.7346 139.356984 
L 460.6254 139.356984 
" clip-path="url(#pe1844a210b)" style="fill: none; stroke: #000000; stroke-linecap: round"/>
   </g>
   <g id="line2d_21">
    <path d="M 613.224 216.866897 
L 613.224 240.826132 
" clip-path="url(#pe1844a210b)" style="fill: none; stroke: #000000"/>
   </g>
   <g id="line2d_22">
    <path d="M 613.224 155.270207 
L 613.224 64.886675 
" clip-path="url(#pe1844a210b)" style="fill: none; stroke: #000000"/>
   </g>
   <g id="line2d_23">
    <path d="M 607.2786 240.826132 
L 619.1694 240.826132 
" clip-path="url(#pe1844a210b)" style="fill: none; stroke: #000000; stroke-linecap: round"/>
   </g>
   <g id="line2d_24">
    <path d="M 607.2786 64.886675 
L 619.1694 64.886675 
" clip-path="url(#pe1844a210b)" style="fill: none; stroke: #000000; stroke-linecap: round"/>
   </g>
   <g id="line2d_25">
    <path d="M 771.768 241.183732 
L 771.768 276.049783 
" clip-path="url(#pe1844a210b)" style="fill: none; stroke: #000000"/>
   </g>
   <g id="line2d_26">
    <path d="M 771.768 188.527055 
L 771.768 128.405468 
" clip-path="url(#pe1844a210b)" style="fill: none; stroke: #000000"/>
   </g>
   <g id="line2d_27">
    <path d="M 765.8226 276.049783 
L 777.7134 276.049783 
" clip-path="url(#pe1844a210b)" style="fill: none; stroke: #000000; stroke-linecap: round"/>
   </g>
   <g id="line2d_28">
    <path d="M 765.8226 128.405468 
L 777.7134 128.405468 
" clip-path="url(#pe1844a210b)" style="fill: none; stroke: #000000; stroke-linecap: round"/>
   </g>
   <g id="line2d_29">
    <path d="M 125.7012 337.422972 
L 149.4828 337.422972 
" clip-path="url(#pe1844a210b)" style="fill: none; stroke: #ff0000; stroke-width: 2"/>
   </g>
   <g id="line2d_30">
    <path d="M 284.2452 334.964469 
L 308.0268 334.964469 
" clip-path="url(#pe1844a210b)" style="fill: none; stroke: #ff0000; stroke-width: 2"/>
   </g>
   <g id="line2d_31">
    <path d="M 442.7892 236.356125 
L 466.5708 236.356125 
" clip-path="url(#pe1844a210b)" style="fill: none; stroke: #ff0000; stroke-width: 2"/>
   </g>
   <g id="line2d_32">
    <path d="M 601.3332 210.474787 
L 625.1148 210.474787 
" clip-path="url(#pe1844a210b)" style="fill: none; stroke: #ff0000; stroke-width: 2"/>
   </g>
   <g id="line2d_33">
    <path d="M 759.8772 232.82482 
L 783.6588 232.82482 
" clip-path="url(#pe1844a210b)" style="fill: none; stroke: #ff0000; stroke-width: 2"/>
   </g>
   <g id="patch_3">
    <path d="M 58.32 373.416875 
L 58.32 27.6 
" style="fill: none; stroke: #cccccc; stroke-width: 1.25; stroke-linejoin: miter; stroke-linecap: square"/>
   </g>
   <g id="patch_4">
    <path d="M 851.04 373.416875 
L 851.04 27.6 
" style="fill: none; stroke: #cccccc; stroke-width: 1.25; stroke-linejoin: miter; stroke-linecap: square"/>
   </g>
   <g id="patch_5">
    <path d="M 58.32 373.416875 
L 851.04 373.416875 
" style="fill: none; stroke: #cccccc; stroke-width: 1.25; stroke-linejoin: miter; stroke-linecap: square"/>
   </g>
   <g id="patch_6">
    <path d="M 58.32 27.6 
L 851.04 27.6 
" style="fill: none; stroke: #cccccc; stroke-width: 1.25; stroke-linejoin: miter; stroke-linecap: square"/>
   </g>
   <g id="text_15">
    <!-- Handshake duration on TLS with ed25519 signature algorithm — Degraded (200ms/10%) -->
    <g style="fill: #262626" transform="translate(186.15 21.6) scale(0.12 -0.12)">
     <defs>
      <path id="DejaVuSans-54" d="M -19 4666 
L 3928 4666 
L 3928 4134 
L 2272 4134 
L 2272 0 
L 1638 0 
L 1638 4134 
L -19 4134 
L -19 4666 
z
" transform="scale(0.015625)"/>
      <path id="DejaVuSans-4c" d="M 628 4666 
L 1259 4666 
L 1259 531 
L 3531 531 
L 3531 0 
L 628 0 
L 628 4666 
z
" transform="scale(0.015625)"/>
      <path id="DejaVuSans-53" d="M 3425 4513 
L 3425 3897 
Q 3066 4069 2747 4153 
Q 2428 4238 2131 4238 
Q 1616 4238 1336 4038 
Q 1056 3838 1056 3469 
Q 1056 3159 1242 3001 
Q 1428 2844 1947 2747 
L 2328 2669 
Q 3034 2534 3370 2195 
Q 3706 1856 3706 1288 
Q 3706 609 3251 259 
Q 2797 -91 1919 -91 
Q 1588 -91 1214 -16 
Q 841 59 441 206 
L 441 856 
Q 825 641 1194 531 
Q 1563 422 1919 422 
Q 2459 422 2753 634 
Q 3047 847 3047 1241 
Q 3047 1584 2836 1778 
Q 2625 1972 2144 2069 
L 1759 2144 
Q 1053 2284 737 2584 
Q 422 2884 422 3419 
Q 422 4038 858 4394 
Q 1294 4750 2059 4750 
Q 2388 4750 2728 4690 
Q 3069 4631 3425 4513 
z
" transform="scale(0.015625)"/>
      <path id="DejaVuSans-77" d="M 269 3500 
L 844 3500 
L 1563 769 
L 2278 3500 
L 2956 3500 
L 3675 769 
L 4391 3500 
L 4966 3500 
L 4050 0 
L 3372 0 
L 2619 2869 
L 1863 0 
L 1184 0 
L 269 3500 
z
" transform="scale(0.015625)"/>
      <path id="DejaVuSans-67" d="M 2906 1791 
Q 2906 2416 2648 2759 
Q 2391 3103 1925 3103 
Q 1463 3103 1205 2759 
Q 947 2416 947 1791 
Q 947 1169 1205 825 
Q 1463 481 1925 481 
Q 2391 481 2648 825 
Q 2906 1169 2906 1791 
z
M 3481 434 
Q 3481 -459 3084 -895 
Q 2688 -1331 1869 -1331 
Q 1566 -1331 1297 -1286 
Q 1028 -1241 775 -1147 
L 775 -588 
Q 1028 -725 1275 -790 
Q 1522 -856 1778 -856 
Q 2344 -856 2625 -561 
Q 2906 -266 2906 331 
L 2906 616 
Q 2728 306 2450 153 
Q 2172 0 1784 0 
Q 1141 0 747 490 
Q 353 981 353 1791 
Q 353 2603 747 3093 
Q 1141 3584 1784 3584 
Q 2172 3584 2450 3431 
Q 2728 3278 2906 2969 
L 2906 3500 
L 3481 3500 
L 3481 434 
z
" transform="scale(0.015625)"/>
      <path id="DejaVuSans-6c" d="M 603 4863 
L 1178 4863 
L 1178 0 
L 603 0 
L 603 4863 
z
" transform="scale(0.015625)"/>
      <path id="DejaVuSans-2014" d="M 313 1978 
L 6088 1978 
L 6088 1528 
L 313 1528 
L 313 1978 
z
" transform="scale(0.015625)"/>
      <path id="DejaVuSans-44" d="M 1259 4147 
L 1259 519 
L 2022 519 
Q 2988 519 3436 956 
Q 3884 1394 3884 2338 
Q 3884 3275 3436 3711 
Q 2988 4147 2022 4147 
L 1259 4147 
z
M 628 4666 
L 1925 4666 
Q 3281 4666 3915 4102 
Q 4550 3538 4550 2338 
Q 4550 1131 3912 565 
Q 3275 0 1925 0 
L 628 0 
L 628 4666 
z
" transform="scale(0.015625)"/>
      <path id="DejaVuSans-2f" d="M 1625 4666 
L 2156 4666 
L 531 -594 
L 0 -594 
L 1625 4666 
z
" transform="scale(0.015625)"/>
      <path id="DejaVuSans-25" d="M 4653 2053 
Q 4381 2053 4226 1822 
Q 4072 1591 4072 1178 
Q 4072 772 4226 539 
Q 4381 306 4653 306 
Q 4919 306 5073 539 
Q 5228 772 5228 1178 
Q 5228 1588 5073 1820 
Q 4919 2053 4653 2053 
z
M 4653 2450 
Q 5147 2450 5437 2106 
Q 5728 1763 5728 1178 
Q 5728 594 5436 251 
Q 5144 -91 4653 -91 
Q 4153 -91 3862 251 
Q 3572 594 3572 1178 
Q 3572 1766 3864 2108 
Q 4156 2450 4653 2450 
z
M 1428 4353 
Q 1159 4353 1004 4120 
Q 850 3888 850 3481 
Q 850 3069 1003 2837 
Q 1156 2606 1428 2606 
Q 1700 2606 1854 2837 
Q 2009 3069 2009 3481 
Q 2009 3884 1853 4118 
Q 1697 4353 1428 4353 
z
M 4250 4750 
L 4750 4750 
L 1831 -91 
L 1331 -91 
L 4250 4750 
z
M 1428 4750 
Q 1922 4750 2215 4408 
Q 2509 4066 2509 3481 
Q 2509 2891 2217 2550 
Q 1925 2209 1428 2209 
Q 931 2209 642 2551 
Q 353 2894 353 3481 
Q 353 4063 643 4406 
Q 934 4750 1428 4750 
z
" transform="scale(0.015625)"/>
     </defs>
     <use xlink:href="#DejaVuSans-48"/>
     <use xlink:href="#DejaVuSans-61" x="75.195312"/>
     <use xlink:href="#DejaVuSans-6e" x="136.474609"/>
     <use xlink:href="#DejaVuSans-64" x="199.853516"/>
     <use xlink:href="#DejaVuSans-73" x="263.330078"/>
     <use xlink:href="#DejaVuSans-68" x="315.429688"/>
     <use xlink:href="#DejaVuSans-61" x="378.808594"/>
     <use xlink:href="#DejaVuSans-6b" x="440.087891"/>
     <use xlink:href="#DejaVuSans-65" x="494.373047"/>
     <use xlink:href="#DejaVuSans-20" x="555.896484"/>
     <use xlink:href="#DejaVuSans-64" x="587.683594"/>
     <use xlink:href="#DejaVuSans-75" x="651.160156"/>
     <use xlink:href="#DejaVuSans-72" x="714.539062"/>
     <use xlink:href="#DejaVuSans-61" x="755.652344"/>
     <use xlink:href="#DejaVuSans-74" x="816.931641"/>
     <use xlink:href="#DejaVuSans-69" x="856.140625"/>
     <use xlink:href="#DejaVuSans-6f" x="883.923828"/>
     <use xlink:href="#DejaVuSans-6e" x="945.105469"/>
     <use xlink:href="#DejaVuSans-20" x="1008.484375"/>
     <use xlink:href="#DejaVuSans-6f" x="1040.271484"/>
     <use xlink:href="#DejaVuSans-6e" x="1101.453125"/>
     <use xlink:href="#DejaVuSans-20" x="1164.832031"/>
     <use xlink:href="#DejaVuSans-54" x="1196.619141"/>
     <use xlink:href="#DejaVuSans-4c" x="1257.703125"/>
     <use xlink:href="#DejaVuSans-53" x="1313.416016"/>
     <use xlink:href="#DejaVuSans-20" x="1376.892578"/>
     <use xlink:href="#DejaVuSans-77" x="1408.679688"/>
     <use xlink:href="#DejaVuSans-69" x="1490.466797"/>
     <use xlink:href="#DejaVuSans-74" x="1518.25"/>
     <use xlink:href="#DejaVuSans-68" x="1557.458984"/>
     <use xlink:href="#DejaVuSans-20" x="1620.837891"/>
     <use xlink:href="#DejaVuSans-65" x="1652.625"/>
     <use xlink:href="#DejaVuSans-64" x="1714.148438"/>
     <use xlink:href="#DejaVuSans-32" x="1777.625"/>
     <use xlink:href="#DejaVuSans-35" x="1841.248047"/>
     <use xlink:href="#DejaVuSans-35" x="1904.871094"/>
     <use xlink:href="#DejaVuSans-31" x="1968.494141"/>
     <use xlink:href="#DejaVuSans-39" x="2032.117188"/>
     <use xlink:href="#DejaVuSans-20" x="2095.740234"/>
     <use xlink:href="#DejaVuSans-73" x="2127.527344"/>
     <use xlink:href="#DejaVuSans-69" x="2179.626953"/>
     <use xlink:href="#DejaVuSans-67" x="2207.410156"/>
     <use xlink:href="#DejaVuSans-6e" x="2270.886719"/>
     <use xlink:href="#DejaVuSans-61" x="2334.265625"/>
     <use xlink:href="#DejaVuSans-74" x="2395.544922"/>
     <use xlink:href="#DejaVuSans-75" x="2434.753906"/>
     <use xlink:href="#DejaVuSans-72" x="2498.132812"/>
     <use xlink:href="#DejaVuSans-65" x="2536.996094"/>
     <use xlink:href="#DejaVuSans-20" x="2598.519531"/>
     <use xlink:href="#DejaVuSans-61" x="2630.306641"/>
     <use xlink:href="#DejaVuSans-6c" x="2691.585938"/>
     <use xlink:href="#DejaVuSans-67" x="2719.369141"/>
     <use xlink:href="#DejaVuSans-6f" x="2782.845703"/>
     <use xlink:href="#DejaVuSans-72" x="2844.027344"/>
     <use xlink:href="#DejaVuSans-69" x="2885.140625"/>
     <use xlink:href="#DejaVuSans-74" x="2912.923828"/>
     <use xlink:href="#DejaVuSans-68" x="2952.132812"/>
     <use xlink:href="#DejaVuSans-6d" x="3015.511719"/>
     <use xlink:href="#DejaVuSans-20" x="3112.923828"/>
     <use xlink:href="#DejaVuSans-2014" x="3144.710938"/>
     <use xlink:href="#DejaVuSans-20" x="3244.710938"/>
     <use xlink:href="#DejaVuSans-44" x="3276.498047"/>
     <use xlink:href="#DejaVuSans-65" x="3353.5"/>
     <use xlink:href="#DejaVuSans-67" x="3415.023438"/>
     <use xlink:href="#DejaVuSans-72" x="3478.5"/>
     <use xlink:href="#DejaVuSans-61" x="3519.613281"/>
     <use xlink:href="#DejaVuSans-64" x="3580.892578"/>
     <use xlink:href="#DejaVuSans-65" x="3644.369141"/>
     <use xlink:href="#DejaVuSans-64" x="3705.892578"/>
     <use xlink:href="#DejaVuSans-20" x="3769.369141"/>
     <use xlink:href="#DejaVuSans-28" x="3801.15625"/>
     <use xlink:href="#DejaVuSans-32" x="3840.169922"/>
     <use xlink:href="#DejaVuSans-30" x="3903.792969"/>
     <use xlink:href="#DejaVuSans-30" x="3967.416016"/>
     <use xlink:href="#DejaVuSans-6d" x="4031.039062"/>
     <use xlink:href="#DejaVuSans-73" x="4128.451172"/>
     <use xlink:href="#DejaVuSans-2f" x="4180.550781"/>
     <use xlink:href="#DejaVuSans-31" x="4214.242188"/>
     <use xlink:href="#DejaVuSans-30" x="4277.865234"/>
     <use xlink:href="#DejaVuSans-25" x="4341.488281"/>
     <use xlink:href="#DejaVuSans-29" x="4436.507812"/>
    </g>
   </g>
  </g>
 </g>
 <defs>
  <clipPath id="pe1844a210b">
   <rect x="58.32" y="27.6" width="792.72" height="345.816875"/>
  </clipPath>
 </defs>
</svg>
