<?xml version="1.0" encoding="utf-8" standalone="no"?>
<!DOCTYPE svg PUBLIC "-//W3C//DTD SVG 1.1//EN"
  "http://www.w3.org/Graphics/SVG/1.1/DTD/svg11.dtd">
<svg xmlns:xlink="http://www.w3.org/1999/xlink" width="864pt" height="432pt" viewBox="0 0 864 432" xmlns="http://www.w3.org/2000/svg" version="1.1">
 <metadata>
  <rdf:RDF xmlns:dc="http://purl.org/dc/elements/1.1/" xmlns:cc="http://creativecommons.org/ns#" xmlns:rdf="http://www.w3.org/1999/02/22-rdf-syntax-ns#">
   <cc:Work>
    <dc:type rdf:resource="http://purl.org/dc/dcmitype/StillImage"/>
    <dc:date>2026-03-21T14:06:21.690256</dc:date>
    <dc:format>image/svg+xml</dc:format>
    <dc:creator>
     <cc:Agent>
      <dc:title>Matplotlib v3.6.3, https://matplotlib.org/</dc:title>
     </cc:Agent>
    </dc:creator>
   </cc:Work>
  </rdf:RDF>
 </metadata>
 <defs>
  <style type="text/css">*{stroke-linejoin: round; stroke-linecap: butt}</style>
 </defs>
 <g id="figure_1">
  <g id="patch_1">
   <path d="M 0 432 
L 864 432 
L 864 0 
L 0 0 
z
" style="fill: #ffffff"/>
  </g>
  <g id="axes_1">
   <g id="patch_2">
    <path d="M 58.32 373.416875 
L 851.04 373.416875 
L 851.04 27.6 
L 58.32 27.6 
z
" style="fill: #ffffff"/>
   </g>
   <g id="matplotlib.axis_1">
    <g id="xtick_1">
     <g id="text_1">
      <!-- P-256 -->
      <g style="fill: #262626" transform="translate(103.911421 400.575919) rotate(-15) scale(0.12 -0.12)">
       <defs>
        <path id="DejaVuSans-50" d="M 1259 4147 
L 1259 2394 
L 2053 2394 
Q 2494 2394 2734 2622 
Q 2975 2850 2975 3272 
Q 2975 3691 2734 3919 
Q 2494 4147 2053 4147 
L 1259 4147 
z
M 628 4666 
L 2053 4666 
Q 2838 4666 3239 4311 
Q 3641 3956 3641 3272 
Q 3641 2581 3239 2228 
Q 2838 1875 2053 1875 
L 1259 1875 
L 1259 0 
L 628 0 
L 628 4666 
z
" transform="scale(0.015625)"/>
        <path id="DejaVuSans-2d" d="M 313 2009 
L 1997 2009 
L 1997 1497 
L 313 1497 
L 313 2009 
z
" transform="scale(0.015625)"/>
        <path id="DejaVuSans-32" d="M 1228 531 
L 3431 531 
L 3431 0 
L 469 0 
L 469 531 
Q 828 903 1448 1529 
Q 2069 2156 2228 2338 
Q 2531 2678 2651 2914 
Q 2772 3150 2772 3378 
Q 2772 3750 2511 3984 
Q 2250 4219 1831 4219 
Q 1534 4219 1204 4116 
Q 875 4013 500 3803 
L 500 4441 
Q 881 4594 1212 4672 
Q 1544 4750 1819 4750 
Q 2544 4750 2975 4387 
Q 3406 4025 3406 3419 
Q 3406 3131 3298 2873 
Q 3191 2616 2906 2266 
Q 2828 2175 2409 1742 
Q 1991 1309 1228 531 
z
" transform="scale(0.015625)"/>
        <path id="DejaVuSans-35" d="M 691 4666 
L 3169 4666 
L 3169 4134 
L 1269 4134 
L 1269 2991 
Q 1406 3038 1543 3061 
Q 1681 3084 1819 3084 
Q 2600 3084 3056 2656 
Q 3513 2228 3513 1497 
Q 3513 744 3044 326 
Q 2575 -91 1722 -91 
Q 1428 -91 1123 -41 
Q 819 9 494 109 
L 494 744 
Q 775 591 1075 516 
Q 1375 441 1709 441 
Q 2250 441 2565 725 
Q 2881 1009 2881 1497 
Q 2881 1984 2565 2268 
Q 2250 2553 1709 2553 
Q 1456 2553 1204 2497 
Q 953 2441 691 2322 
L 691 4666 
z
" transform="scale(0.015625)"/>
        <path id="DejaVuSans-36" d="M 2113 2584 
Q 1688 2584 1439 2293 
Q 1191 2003 1191 1497 
Q 1191 994 1439 701 
Q 1688 409 2113 409 
Q 2538 409 2786 701 
Q 3034 994 3034 1497 
Q 3034 2003 2786 2293 
Q 2538 2584 2113 2584 
z
M 3366 4563 
L 3366 3988 
Q 3128 4100 2886 4159 
Q 2644 4219 2406 4219 
Q 1781 4219 1451 3797 
Q 1122 3375 1075 2522 
Q 1259 2794 1537 2939 
Q 1816 3084 2150 3084 
Q 2853 3084 3261 2657 
Q 3669 2231 3669 1497 
Q 3669 778 3244 343 
Q 2819 -91 2113 -91 
Q 1303 -91 875 529 
Q 447 1150 447 2328 
Q 447 3434 972 4092 
Q 1497 4750 2381 4750 
Q 2619 4750 2861 4703 
Q 3103 4656 3366 4563 
z
" transform="scale(0.015625)"/>
       </defs>
       <use xlink:href="#DejaVuSans-50"/>
       <use xlink:href="#DejaVuSans-2d" x="58.052734"/>
       <use xlink:href="#DejaVuSans-32" x="94.136719"/>
       <use xlink:href="#DejaVuSans-35" x="157.759766"/>
       <use xlink:href="#DejaVuSans-36" x="221.382812"/>
      </g>
     </g>
    </g>
    <g id="xtick_2">
     <g id="text_2">
      <!-- x25519 -->
      <g style="fill: #262626" transform="translate(251.755378 403.442987) rotate(-15) scale(0.12 -0.12)">
       <defs>
        <path id="DejaVuSans-78" d="M 3513 3500 
L 2247 1797 
L 3578 0 
L 2900 0 
L 1881 1375 
L 863 0 
L 184 0 
L 1544 1831 
L 300 3500 
L 978 3500 
L 1906 2253 
L 2834 3500 
L 3513 3500 
z
" transform="scale(0.015625)"/>
        <path id="DejaVuSans-31" d="M 794 531 
L 1825 531 
L 1825 4091 
L 703 3866 
L 703 4441 
L 1819 4666 
L 2450 4666 
L 2450 531 
L 3481 531 
L 3481 0 
L 794 0 
L 794 531 
z
" transform="scale(0.015625)"/>
        <path id="DejaVuSans-39" d="M 703 97 
L 703 672 
Q 941 559 1184 500 
Q 1428 441 1663 441 
Q 2288 441 2617 861 
Q 2947 1281 2994 2138 
Q 2813 1869 2534 1725 
Q 2256 1581 1919 1581 
Q 1219 1581 811 2004 
Q 403 2428 403 3163 
Q 403 3881 828 4315 
Q 1253 4750 1959 4750 
Q 2769 4750 3195 4129 
Q 3622 3509 3622 2328 
Q 3622 1225 3098 567 
Q 2575 -91 1691 -91 
Q 1453 -91 1209 -44 
Q 966 3 703 97 
z
M 1959 2075 
Q 2384 2075 2632 2365 
Q 2881 2656 2881 3163 
Q 2881 3666 2632 3958 
Q 2384 4250 1959 4250 
Q 1534 4250 1286 3958 
Q 1038 3666 1038 3163 
Q 1038 2656 1286 2365 
Q 1534 2075 1959 2075 
z
" transform="scale(0.015625)"/>
       </defs>
       <use xlink:href="#DejaVuSans-78"/>
       <use xlink:href="#DejaVuSans-32" x="59.179688"/>
       <use xlink:href="#DejaVuSans-35" x="122.802734"/>
       <use xlink:href="#DejaVuSans-35" x="186.425781"/>
       <use xlink:href="#DejaVuSans-31" x="250.048828"/>
       <use xlink:href="#DejaVuSans-39" x="313.671875"/>
      </g>
     </g>
    </g>
    <g id="xtick_3">
     <g id="text_3">
      <!-- hqc128 -->
      <g style="fill: #262626" transform="translate(410.831845 403.300313) rotate(-15) scale(0.12 -0.12)">
       <defs>
        <path id="DejaVuSans-68" d="M 3513 2113 
L 3513 0 
L 2938 0 
L 2938 2094 
Q 2938 2591 2744 2837 
Q 2550 3084 2163 3084 
Q 1697 3084 1428 2787 
Q 1159 2491 1159 1978 
L 1159 0 
L 581 0 
L 581 4863 
L 1159 4863 
L 1159 2956 
Q 1366 3272 1645 3428 
Q 1925 3584 2291 3584 
Q 2894 3584 3203 3211 
Q 3513 2838 3513 2113 
z
" transform="scale(0.015625)"/>
        <path id="DejaVuSans-71" d="M 947 1747 
Q 947 1113 1208 752 
Q 1469 391 1925 391 
Q 2381 391 2643 752 
Q 2906 1113 2906 1747 
Q 2906 2381 2643 2742 
Q 2381 3103 1925 3103 
Q 1469 3103 1208 2742 
Q 947 2381 947 1747 
z
M 2906 525 
Q 2725 213 2448 61 
Q 2172 -91 1784 -91 
Q 1150 -91 751 415 
Q 353 922 353 1747 
Q 353 2572 751 3078 
Q 1150 3584 1784 3584 
Q 2172 3584 2448 3432 
Q 2725 3281 2906 2969 
L 2906 3500 
L 3481 3500 
L 3481 -1331 
L 2906 -1331 
L 2906 525 
z
" transform="scale(0.015625)"/>
        <path id="DejaVuSans-63" d="M 3122 3366 
L 3122 2828 
Q 2878 2963 2633 3030 
Q 2388 3097 2138 3097 
Q 1578 3097 1268 2742 
Q 959 2388 959 1747 
Q 959 1106 1268 751 
Q 1578 397 2138 397 
Q 2388 397 2633 464 
Q 2878 531 3122 666 
L 3122 134 
Q 2881 22 2623 -34 
Q 2366 -91 2075 -91 
Q 1284 -91 818 406 
Q 353 903 353 1747 
Q 353 2603 823 3093 
Q 1294 3584 2113 3584 
Q 2378 3584 2631 3529 
Q 2884 3475 3122 3366 
z
" transform="scale(0.015625)"/>
        <path id="DejaVuSans-38" d="M 2034 2216 
Q 1584 2216 1326 1975 
Q 1069 1734 1069 1313 
Q 1069 891 1326 650 
Q 1584 409 2034 409 
Q 2484 409 2743 651 
Q 3003 894 3003 1313 
Q 3003 1734 2745 1975 
Q 2488 2216 2034 2216 
z
M 1403 2484 
Q 997 2584 770 2862 
Q 544 3141 544 3541 
Q 544 4100 942 4425 
Q 1341 4750 2034 4750 
Q 2731 4750 3128 4425 
Q 3525 4100 3525 3541 
Q 3525 3141 3298 2862 
Q 3072 2584 2669 2484 
Q 3125 2378 3379 2068 
Q 3634 1759 3634 1313 
Q 3634 634 3220 271 
Q 2806 -91 2034 -91 
Q 1263 -91 848 271 
Q 434 634 434 1313 
Q 434 1759 690 2068 
Q 947 2378 1403 2484 
z
M 1172 3481 
Q 1172 3119 1398 2916 
Q 1625 2713 2034 2713 
Q 2441 2713 2670 2916 
Q 2900 3119 2900 3481 
Q 2900 3844 2670 4047 
Q 2441 4250 2034 4250 
Q 1625 4250 1398 4047 
Q 1172 3844 1172 3481 
z
" transform="scale(0.015625)"/>
       </defs>
       <use xlink:href="#DejaVuSans-68"/>
       <use xlink:href="#DejaVuSans-71" x="63.378906"/>
       <use xlink:href="#DejaVuSans-63" x="126.855469"/>
       <use xlink:href="#DejaVuSans-31" x="181.835938"/>
       <use xlink:href="#DejaVuSans-32" x="245.458984"/>
       <use xlink:href="#DejaVuSans-38" x="309.082031"/>
      </g>
     </g>
    </g>
    <g id="xtick_4">
     <g id="text_4">
      <!-- p256_hqc128 -->
      <g style="fill: #262626" transform="translate(534.010834 412.753193) rotate(-15) scale(0.12 -0.12)">
       <defs>
        <path id="DejaVuSans-70" d="M 1159 525 
L 1159 -1331 
L 581 -1331 
L 581 3500 
L 1159 3500 
L 1159 2969 
Q 1341 3281 1617 3432 
Q 1894 3584 2278 3584 
Q 2916 3584 3314 3078 
Q 3713 2572 3713 1747 
Q 3713 922 3314 415 
Q 2916 -91 2278 -91 
Q 1894 -91 1617 61 
Q 1341 213 1159 525 
z
M 3116 1747 
Q 3116 2381 2855 2742 
Q 2594 3103 2138 3103 
Q 1681 3103 1420 2742 
Q 1159 2381 1159 1747 
Q 1159 1113 1420 752 
Q 1681 391 2138 391 
Q 2594 391 2855 752 
Q 3116 1113 3116 1747 
z
" transform="scale(0.015625)"/>
        <path id="DejaVuSans-5f" d="M 3263 -1063 
L 3263 -1509 
L -63 -1509 
L -63 -1063 
L 3263 -1063 
z
" transform="scale(0.015625)"/>
       </defs>
       <use xlink:href="#DejaVuSans-70"/>
       <use xlink:href="#DejaVuSans-32" x="63.476562"/>
       <use xlink:href="#DejaVuSans-35" x="127.099609"/>
       <use xlink:href="#DejaVuSans-36" x="190.722656"/>
       <use xlink:href="#DejaVuSans-5f" x="254.345703"/>
       <use xlink:href="#DejaVuSans-68" x="304.345703"/>
       <use xlink:href="#DejaVuSans-71" x="367.724609"/>
       <use xlink:href="#DejaVuSans-63" x="431.201172"/>
       <use xlink:href="#DejaVuSans-31" x="486.181641"/>
       <use xlink:href="#DejaVuSans-32" x="549.804688"/>
       <use xlink:href="#DejaVuSans-38" x="613.427734"/>
      </g>
     </g>
    </g>
    <g id="xtick_5">
     <g id="text_5">
      <!-- x25519_hqc128 -->
      <g style="fill: #262626" transform="translate(678.303202 416.571906) rotate(-15) scale(0.12 -0.12)">
       <use xlink:href="#DejaVuSans-78"/>
       <use xlink:href="#DejaVuSans-32" x="59.179688"/>
       <use xlink:href="#DejaVuSans-35" x="122.802734"/>
       <use xlink:href="#DejaVuSans-35" x="186.425781"/>
       <use xlink:href="#DejaVuSans-31" x="250.048828"/>
       <use xlink:href="#DejaVuSans-39" x="313.671875"/>
       <use xlink:href="#DejaVuSans-5f" x="377.294922"/>
       <use xlink:href="#DejaVuSans-68" x="427.294922"/>
       <use xlink:href="#DejaVuSans-71" x="490.673828"/>
       <use xlink:href="#DejaVuSans-63" x="554.150391"/>
       <use xlink:href="#DejaVuSans-31" x="609.130859"/>
       <use xlink:href="#DejaVuSans-32" x="672.753906"/>
       <use xlink:href="#DejaVuSans-38" x="736.376953"/>
      </g>
     </g>
    </g>
   </g>
   <g id="matplotlib.axis_2">
    <g id="ytick_1">
     <g id="line2d_1">
      <path d="M 58.32 361.472585 
L 851.04 361.472585 
" clip-path="url(#p41e695326a)" style="fill: none; stroke: #cccccc; stroke-linecap: round"/>
     </g>
     <g id="text_6">
      <!-- 800 -->
      <g style="fill: #262626" transform="translate(27.82375 365.651726) scale(0.11 -0.11)">
       <defs>
        <path id="DejaVuSans-30" d="M 2034 4250 
Q 1547 4250 1301 3770 
Q 1056 3291 1056 2328 
Q 1056 1369 1301 889 
Q 1547 409 2034 409 
Q 2525 409 2770 889 
Q 3016 1369 3016 2328 
Q 3016 3291 2770 3770 
Q 2525 4250 2034 4250 
z
M 2034 4750 
Q 2819 4750 3233 4129 
Q 3647 3509 3647 2328 
Q 3647 1150 3233 529 
Q 2819 -91 2034 -91 
Q 1250 -91 836 529 
Q 422 1150 422 2328 
Q 422 3509 836 4129 
Q 1250 4750 2034 4750 
z
" transform="scale(0.015625)"/>
       </defs>
       <use xlink:href="#DejaVuSans-38"/>
       <use xlink:href="#DejaVuSans-30" x="63.623047"/>
       <use xlink:href="#DejaVuSans-30" x="127.246094"/>
      </g>
     </g>
    </g>
    <g id="ytick_2">
     <g id="line2d_2">
      <path d="M 58.32 307.149372 
L 851.04 307.149372 
" clip-path="url(#p41e695326a)" style="fill: none; stroke: #cccccc; stroke-linecap: round"/>
     </g>
     <g id="text_7">
      <!-- 820 -->
      <g style="fill: #262626" transform="translate(27.82375 311.328512) scale(0.11 -0.11)">
       <use xlink:href="#DejaVuSans-38"/>
       <use xlink:href="#DejaVuSans-32" x="63.623047"/>
       <use xlink:href="#DejaVuSans-30" x="127.246094"/>
      </g>
     </g>
    </g>
    <g id="ytick_3">
     <g id="line2d_3">
      <path d="M 58.32 252.826158 
L 851.04 252.826158 
" clip-path="url(#p41e695326a)" style="fill: none; stroke: #cccccc; stroke-linecap: round"/>
     </g>
     <g id="text_8">
      <!-- 840 -->
      <g style="fill: #262626" transform="translate(27.82375 257.005299) scale(0.11 -0.11)">
       <defs>
        <path id="DejaVuSans-34" d="M 2419 4116 
L 825 1625 
L 2419 1625 
L 2419 4116 
z
M 2253 4666 
L 3047 4666 
L 3047 1625 
L 3713 1625 
L 3713 1100 
L 3047 1100 
L 3047 0 
L 2419 0 
L 2419 1100 
L 313 1100 
L 313 1709 
L 2253 4666 
z
" transform="scale(0.015625)"/>
       </defs>
       <use xlink:href="#DejaVuSans-38"/>
       <use xlink:href="#DejaVuSans-34" x="63.623047"/>
       <use xlink:href="#DejaVuSans-30" x="127.246094"/>
      </g>
     </g>
    </g>
    <g id="ytick_4">
     <g id="line2d_4">
      <path d="M 58.32 198.502944 
L 851.04 198.502944 
" clip-path="url(#p41e695326a)" style="fill: none; stroke: #cccccc; stroke-linecap: round"/>
     </g>
     <g id="text_9">
      <!-- 860 -->
      <g style="fill: #262626" transform="translate(27.82375 202.682085) scale(0.11 -0.11)">
       <use xlink:href="#DejaVuSans-38"/>
       <use xlink:href="#DejaVuSans-36" x="63.623047"/>
       <use xlink:href="#DejaVuSans-30" x="127.246094"/>
      </g>
     </g>
    </g>
    <g id="ytick_5">
     <g id="line2d_5">
      <path d="M 58.32 144.179731 
L 851.04 144.179731 
" clip-path="url(#p41e695326a)" style="fill: none; stroke: #cccccc; stroke-linecap: round"/>
     </g>
     <g id="text_10">
      <!-- 880 -->
      <g style="fill: #262626" transform="translate(27.82375 148.358871) scale(0.11 -0.11)">
       <use xlink:href="#DejaVuSans-38"/>
       <use xlink:href="#DejaVuSans-38" x="63.623047"/>
       <use xlink:href="#DejaVuSans-30" x="127.246094"/>
      </g>
     </g>
    </g>
    <g id="ytick_6">
     <g id="line2d_6">
      <path d="M 58.32 89.856517 
L 851.04 89.856517 
" clip-path="url(#p41e695326a)" style="fill: none; stroke: #cccccc; stroke-linecap: round"/>
     </g>
     <g id="text_11">
      <!-- 900 -->
      <g style="fill: #262626" transform="translate(27.82375 94.035658) scale(0.11 -0.11)">
       <use xlink:href="#DejaVuSans-39"/>
       <use xlink:href="#DejaVuSans-30" x="63.623047"/>
       <use xlink:href="#DejaVuSans-30" x="127.246094"/>
      </g>
     </g>
    </g>
    <g id="ytick_7">
     <g id="line2d_7">
      <path d="M 58.32 35.533303 
L 851.04 35.533303 
" clip-path="url(#p41e695326a)" style="fill: none; stroke: #cccccc; stroke-linecap: round"/>
     </g>
     <g id="text_12">
      <!-- 920 -->
      <g style="fill: #262626" transform="translate(27.82375 39.712444) scale(0.11 -0.11)">
       <use xlink:href="#DejaVuSans-39"/>
       <use xlink:href="#DejaVuSans-32" x="63.623047"/>
       <use xlink:href="#DejaVuSans-30" x="127.246094"/>
      </g>
     </g>
    </g>
    <g id="text_13">
     <!-- Handshake duration (ms) -->
     <g style="fill: #262626" transform="translate(21.328125 276.57625) rotate(-90) scale(0.12 -0.12)">
      <defs>
       <path id="DejaVuSans-48" d="M 628 4666 
L 1259 4666 
L 1259 2753 
L 3553 2753 
L 3553 4666 
L 4184 4666 
L 4184 0 
L 3553 0 
L 3553 2222 
L 1259 2222 
L 1259 0 
L 628 0 
L 628 4666 
z
" transform="scale(0.015625)"/>
       <path id="DejaVuSans-61" d="M 2194 1759 
Q 1497 1759 1228 1600 
Q 959 1441 959 1056 
Q 959 750 1161 570 
Q 1363 391 1709 391 
Q 2188 391 2477 730 
Q 2766 1069 2766 1631 
L 2766 1759 
L 2194 1759 
z
M 3341 1997 
L 3341 0 
L 2766 0 
L 2766 531 
Q 2569 213 2275 61 
Q 1981 -91 1556 -91 
Q 1019 -91 701 211 
Q 384 513 384 1019 
Q 384 1609 779 1909 
Q 1175 2209 1959 2209 
L 2766 2209 
L 2766 2266 
Q 2766 2663 2505 2880 
Q 2244 3097 1772 3097 
Q 1472 3097 1187 3025 
Q 903 2953 641 2809 
L 641 3341 
Q 956 3463 1253 3523 
Q 1550 3584 1831 3584 
Q 2591 3584 2966 3190 
Q 3341 2797 3341 1997 
z
" transform="scale(0.015625)"/>
       <path id="DejaVuSans-6e" d="M 3513 2113 
L 3513 0 
L 2938 0 
L 2938 2094 
Q 2938 2591 2744 2837 
Q 2550 3084 2163 3084 
Q 1697 3084 1428 2787 
Q 1159 2491 1159 1978 
L 1159 0 
L 581 0 
L 581 3500 
L 1159 3500 
L 1159 2956 
Q 1366 3272 1645 3428 
Q 1925 3584 2291 3584 
Q 2894 3584 3203 3211 
Q 3513 2838 3513 2113 
z
" transform="scale(0.015625)"/>
       <path id="DejaVuSans-64" d="M 2906 2969 
L 2906 4863 
L 3481 4863 
L 3481 0 
L 2906 0 
L 2906 525 
Q 2725 213 2448 61 
Q 2172 -91 1784 -91 
Q 1150 -91 751 415 
Q 353 922 353 1747 
Q 353 2572 751 3078 
Q 1150 3584 1784 3584 
Q 2172 3584 2448 3432 
Q 2725 3281 2906 2969 
z
M 947 1747 
Q 947 1113 1208 752 
Q 1469 391 1925 391 
Q 2381 391 2643 752 
Q 2906 1113 2906 1747 
Q 2906 2381 2643 2742 
Q 2381 3103 1925 3103 
Q 1469 3103 1208 2742 
Q 947 2381 947 1747 
z
" transform="scale(0.015625)"/>
       <path id="DejaVuSans-73" d="M 2834 3397 
L 2834 2853 
Q 2591 2978 2328 3040 
Q 2066 3103 1784 3103 
Q 1356 3103 1142 2972 
Q 928 2841 928 2578 
Q 928 2378 1081 2264 
Q 1234 2150 1697 2047 
L 1894 2003 
Q 2506 1872 2764 1633 
Q 3022 1394 3022 966 
Q 3022 478 2636 193 
Q 2250 -91 1575 -91 
Q 1294 -91 989 -36 
Q 684 19 347 128 
L 347 722 
Q 666 556 975 473 
Q 1284 391 1588 391 
Q 1994 391 2212 530 
Q 2431 669 2431 922 
Q 2431 1156 2273 1281 
Q 2116 1406 1581 1522 
L 1381 1569 
Q 847 1681 609 1914 
Q 372 2147 372 2553 
Q 372 3047 722 3315 
Q 1072 3584 1716 3584 
Q 2034 3584 2315 3537 
Q 2597 3491 2834 3397 
z
" transform="scale(0.015625)"/>
       <path id="DejaVuSans-6b" d="M 581 4863 
L 1159 4863 
L 1159 1991 
L 2875 3500 
L 3609 3500 
L 1753 1863 
L 3688 0 
L 2938 0 
L 1159 1709 
L 1159 0 
L 581 0 
L 581 4863 
z
" transform="scale(0.015625)"/>
       <path id="DejaVuSans-65" d="M 3597 1894 
L 3597 1613 
L 953 1613 
Q 991 1019 1311 708 
Q 1631 397 2203 397 
Q 2534 397 2845 478 
Q 3156 559 3463 722 
L 3463 178 
Q 3153 47 2828 -22 
Q 2503 -91 2169 -91 
Q 1331 -91 842 396 
Q 353 884 353 1716 
Q 353 2575 817 3079 
Q 1281 3584 2069 3584 
Q 2775 3584 3186 3129 
Q 3597 2675 3597 1894 
z
M 3022 2063 
Q 3016 2534 2758 2815 
Q 2500 3097 2075 3097 
Q 1594 3097 1305 2825 
Q 1016 2553 972 2059 
L 3022 2063 
z
" transform="scale(0.015625)"/>
       <path id="DejaVuSans-20" transform="scale(0.015625)"/>
       <path id="DejaVuSans-75" d="M 544 1381 
L 544 3500 
L 1119 3500 
L 1119 1403 
Q 1119 906 1312 657 
Q 1506 409 1894 409 
Q 2359 409 2629 706 
Q 2900 1003 2900 1516 
L 2900 3500 
L 3475 3500 
L 3475 0 
L 2900 0 
L 2900 538 
Q 2691 219 2414 64 
Q 2138 -91 1772 -91 
Q 1169 -91 856 284 
Q 544 659 544 1381 
z
M 1991 3584 
L 1991 3584 
z
" transform="scale(0.015625)"/>
       <path id="DejaVuSans-72" d="M 2631 2963 
Q 2534 3019 2420 3045 
Q 2306 3072 2169 3072 
Q 1681 3072 1420 2755 
Q 1159 2438 1159 1844 
L 1159 0 
L 581 0 
L 581 3500 
L 1159 3500 
L 1159 2956 
Q 1341 3275 1631 3429 
Q 1922 3584 2338 3584 
Q 2397 3584 2469 3576 
Q 2541 3569 2628 3553 
L 2631 2963 
z
" transform="scale(0.015625)"/>
       <path id="DejaVuSans-74" d="M 1172 4494 
L 1172 3500 
L 2356 3500 
L 2356 3053 
L 1172 3053 
L 1172 1153 
Q 1172 725 1289 603 
Q 1406 481 1766 481 
L 2356 481 
L 2356 0 
L 1766 0 
Q 1100 0 847 248 
Q 594 497 594 1153 
L 594 3053 
L 172 3053 
L 172 3500 
L 594 3500 
L 594 4494 
L 1172 4494 
z
" transform="scale(0.015625)"/>
       <path id="DejaVuSans-69" d="M 603 3500 
L 1178 3500 
L 1178 0 
L 603 0 
L 603 3500 
z
M 603 4863 
L 1178 4863 
L 1178 4134 
L 603 4134 
L 603 4863 
z
" transform="scale(0.015625)"/>
       <path id="DejaVuSans-6f" d="M 1959 3097 
Q 1497 3097 1228 2736 
Q 959 2375 959 1747 
Q 959 1119 1226 758 
Q 1494 397 1959 397 
Q 2419 397 2687 759 
Q 2956 1122 2956 1747 
Q 2956 2369 2687 2733 
Q 2419 3097 1959 3097 
z
M 1959 3584 
Q 2709 3584 3137 3096 
Q 3566 2609 3566 1747 
Q 3566 888 3137 398 
Q 2709 -91 1959 -91 
Q 1206 -91 779 398 
Q 353 888 353 1747 
Q 353 2609 779 3096 
Q 1206 3584 1959 3584 
z
" transform="scale(0.015625)"/>
       <path id="DejaVuSans-28" d="M 1984 4856 
Q 1566 4138 1362 3434 
Q 1159 2731 1159 2009 
Q 1159 1288 1364 580 
Q 1569 -128 1984 -844 
L 1484 -844 
Q 1016 -109 783 600 
Q 550 1309 550 2009 
Q 550 2706 781 3412 
Q 1013 4119 1484 4856 
L 1984 4856 
z
" transform="scale(0.015625)"/>
       <path id="DejaVuSans-6d" d="M 3328 2828 
Q 3544 3216 3844 3400 
Q 4144 3584 4550 3584 
Q 5097 3584 5394 3201 
Q 5691 2819 5691 2113 
L 5691 0 
L 5113 0 
L 5113 2094 
Q 5113 2597 4934 2840 
Q 4756 3084 4391 3084 
Q 3944 3084 3684 2787 
Q 3425 2491 3425 1978 
L 3425 0 
L 2847 0 
L 2847 2094 
Q 2847 2600 2669 2842 
Q 2491 3084 2119 3084 
Q 1678 3084 1418 2786 
Q 1159 2488 1159 1978 
L 1159 0 
L 581 0 
L 581 3500 
L 1159 3500 
L 1159 2956 
Q 1356 3278 1631 3431 
Q 1906 3584 2284 3584 
Q 2666 3584 2933 3390 
Q 3200 3197 3328 2828 
z
" transform="scale(0.015625)"/>
       <path id="DejaVuSans-29" d="M 513 4856 
L 1013 4856 
Q 1481 4119 1714 3412 
Q 1947 2706 1947 2009 
Q 1947 1309 1714 600 
Q 1481 -109 1013 -844 
L 513 -844 
Q 928 -128 1133 580 
Q 1338 1288 1338 2009 
Q 1338 2731 1133 3434 
Q 928 4138 513 4856 
z
" transform="scale(0.015625)"/>
      </defs>
      <use xlink:href="#DejaVuSans-48"/>
      <use xlink:href="#DejaVuSans-61" x="75.195312"/>
      <use xlink:href="#DejaVuSans-6e" x="136.474609"/>
      <use xlink:href="#DejaVuSans-64" x="199.853516"/>
      <use xlink:href="#DejaVuSans-73" x="263.330078"/>
      <use xlink:href="#DejaVuSans-68" x="315.429688"/>
      <use xlink:href="#DejaVuSans-61" x="378.808594"/>
      <use xlink:href="#DejaVuSans-6b" x="440.087891"/>
      <use xlink:href="#DejaVuSans-65" x="494.373047"/>
      <use xlink:href="#DejaVuSans-20" x="555.896484"/>
      <use xlink:href="#DejaVuSans-64" x="587.683594"/>
      <use xlink:href="#DejaVuSans-75" x="651.160156"/>
      <use xlink:href="#DejaVuSans-72" x="714.539062"/>
      <use xlink:href="#DejaVuSans-61" x="755.652344"/>
      <use xlink:href="#DejaVuSans-74" x="816.931641"/>
      <use xlink:href="#DejaVuSans-69" x="856.140625"/>
      <use xlink:href="#DejaVuSans-6f" x="883.923828"/>
      <use xlink:href="#DejaVuSans-6e" x="945.105469"/>
      <use xlink:href="#DejaVuSans-20" x="1008.484375"/>
      <use xlink:href="#DejaVuSans-28" x="1040.271484"/>
      <use xlink:href="#DejaVuSans-6d" x="1079.285156"/>
      <use xlink:href="#DejaVuSans-73" x="1176.697266"/>
      <use xlink:href="#DejaVuSans-29" x="1228.796875"/>
     </g>
    </g>
   </g>
   <g id="PolyCollection_1">
    <defs>
     <path id="ma2bcf6178e" d="M 137.632578 -74.302074 
L 137.551422 -74.302074 
L 137.521895 -74.526242 
L 137.47994 -74.75041 
L 137.425692 -74.974578 
L 137.361621 -75.198746 
L 137.291859 -75.422914 
L 137.22055 -75.647082 
L 137.150176 -75.871251 
L 137.08114 -76.095419 
L 137.013123 -76.319587 
L 136.947317 -76.543755 
L 136.887561 -76.767923 
L 136.838959 -76.992091 
L 136.804513 -77.216259 
L 136.782148 -77.440427 
L 136.764512 -77.664595 
L 136.741829 -77.888763 
L 136.705525 -78.112931 
L 136.649642 -78.3371 
L 136.56886 -78.561268 
L 136.454917 -78.785436 
L 136.294902 -79.009604 
L 136.073857 -79.233772 
L 135.781148 -79.45794 
L 135.417123 -79.682108 
L 134.995722 -79.906276 
L 134.540606 -80.130444 
L 134.076109 -80.354612 
L 133.617804 -80.57878 
L 133.168368 -80.802949 
L 132.721686 -81.027117 
L 132.272967 -81.251285 
L 131.828288 -81.475453 
L 131.406543 -81.699621 
L 131.031049 -81.923789 
L 130.714382 -82.147957 
L 130.444611 -82.372125 
L 130.180909 -82.596293 
L 129.861826 -82.820461 
L 129.422794 -83.044629 
L 128.814226 -83.268798 
L 128.010353 -83.492966 
L 127.002867 -83.717134 
L 125.781067 -83.941302 
L 124.308311 -84.16547 
L 122.508199 -84.389638 
L 120.269818 -84.613806 
L 117.471239 -84.837974 
L 114.010915 -85.062142 
L 109.83515 -85.28631 
L 104.957683 -85.510478 
L 99.477495 -85.734647 
L 93.602637 -85.958815 
L 87.676647 -86.182983 
L 82.187139 -86.407151 
L 77.728345 -86.631319 
L 74.902273 -86.855487 
L 74.1744 -87.079655 
L 75.732494 -87.303823 
L 79.409349 -87.527991 
L 84.710281 -87.752159 
L 90.941563 -87.976327 
L 97.390291 -88.200496 
L 103.485021 -88.424664 
L 108.881004 -88.648832 
L 113.454153 -88.873 
L 117.229971 -89.097168 
L 120.295374 -89.321336 
L 122.735322 -89.545504 
L 124.611895 -89.769672 
L 125.978002 -89.99384 
L 126.904166 -90.218008 
L 127.497209 -90.442176 
L 127.899117 -90.666345 
L 128.26572 -90.890513 
L 128.733657 -91.114681 
L 129.388504 -91.338849 
L 130.246362 -91.563017 
L 131.25584 -91.787185 
L 132.319186 -92.011353 
L 133.323987 -92.235521 
L 134.173972 -92.459689 
L 134.809998 -92.683857 
L 135.217877 -92.908025 
L 135.424656 -93.132194 
L 135.487199 -93.356362 
L 135.476786 -93.58053 
L 135.462869 -93.804698 
L 135.499014 -94.028866 
L 135.614001 -94.253034 
L 135.810067 -94.477202 
L 136.068077 -94.70137 
L 136.357092 -94.925538 
L 136.64463 -95.149706 
L 136.90445 -95.373874 
L 137.12043 -95.598043 
L 137.286801 -95.822211 
L 137.405994 -96.046379 
L 137.485508 -96.270547 
L 137.534879 -96.494715 
L 137.649121 -96.494715 
L 137.649121 -96.494715 
L 137.698492 -96.270547 
L 137.778006 -96.046379 
L 137.897199 -95.822211 
L 138.06357 -95.598043 
L 138.27955 -95.373874 
L 138.53937 -95.149706 
L 138.826908 -94.925538 
L 139.115923 -94.70137 
L 139.373933 -94.477202 
L 139.569999 -94.253034 
L 139.684986 -94.028866 
L 139.721131 -93.804698 
L 139.707214 -93.58053 
L 139.696801 -93.356362 
L 139.759344 -93.132194 
L 139.966123 -92.908025 
L 140.374002 -92.683857 
L 141.010028 -92.459689 
L 141.860013 -92.235521 
L 142.864814 -92.011353 
L 143.92816 -91.787185 
L 144.937638 -91.563017 
L 145.795496 -91.338849 
L 146.450343 -91.114681 
L 146.91828 -90.890513 
L 147.284883 -90.666345 
L 147.686791 -90.442176 
L 148.279834 -90.218008 
L 149.205998 -89.99384 
L 150.572105 -89.769672 
L 152.448678 -89.545504 
L 154.888626 -89.321336 
L 157.954029 -89.097168 
L 161.729847 -88.873 
L 166.302996 -88.648832 
L 171.698979 -88.424664 
L 177.793709 -88.200496 
L 184.242437 -87.976327 
L 190.473719 -87.752159 
L 195.774651 -87.527991 
L 199.451506 -87.303823 
L 201.0096 -87.079655 
L 200.281727 -86.855487 
L 197.455655 -86.631319 
L 192.996861 -86.407151 
L 187.507353 -86.182983 
L 181.581363 -85.958815 
L 175.706505 -85.734647 
L 170.226317 -85.510478 
L 165.34885 -85.28631 
L 161.173085 -85.062142 
L 157.712761 -84.837974 
L 154.914182 -84.613806 
L 152.675801 -84.389638 
L 150.875689 -84.16547 
L 149.402933 -83.941302 
L 148.181133 -83.717134 
L 147.173647 -83.492966 
L 146.369774 -83.268798 
L 145.761206 -83.044629 
L 145.322174 -82.820461 
L 145.003091 -82.596293 
L 144.739389 -82.372125 
L 144.469618 -82.147957 
L 144.152951 -81.923789 
L 143.777457 -81.699621 
L 143.355712 -81.475453 
L 142.911033 -81.251285 
L 142.462314 -81.027117 
L 142.015632 -80.802949 
L 141.566196 -80.57878 
L 141.107891 -80.354612 
L 140.643394 -80.130444 
L 140.188278 -79.906276 
L 139.766877 -79.682108 
L 139.402852 -79.45794 
L 139.110143 -79.233772 
L 138.889098 -79.009604 
L 138.729083 -78.785436 
L 138.61514 -78.561268 
L 138.534358 -78.3371 
L 138.478475 -78.112931 
L 138.442171 -77.888763 
L 138.419488 -77.664595 
L 138.401852 -77.440427 
L 138.379487 -77.216259 
L 138.345041 -76.992091 
L 138.296439 -76.767923 
L 138.236683 -76.543755 
L 138.170877 -76.319587 
L 138.10286 -76.095419 
L 138.033824 -75.871251 
L 137.96345 -75.647082 
L 137.892141 -75.422914 
L 137.822379 -75.198746 
L 137.758308 -74.974578 
L 137.70406 -74.75041 
L 137.662105 -74.526242 
L 137.632578 -74.302074 
z
" style="stroke: #595959; stroke-width: 1.25"/>
    </defs>
    <g clip-path="url(#p41e695326a)">
     <use xlink:href="#ma2bcf6178e" x="0" y="432" style="fill: #72b6a1; stroke: #595959; stroke-width: 1.25"/>
    </g>
   </g>
   <g id="PolyCollection_2">
    <defs>
     <path id="mda8cdad8cd" d="M 296.194906 -75.409588 
L 296.077094 -75.409588 
L 296.021908 -75.717834 
L 295.938388 -76.02608 
L 295.826895 -76.334325 
L 295.692252 -76.642571 
L 295.537326 -76.950817 
L 295.355082 -77.259062 
L 295.12799 -77.567308 
L 294.840697 -77.875553 
L 294.5004 -78.183799 
L 294.148458 -78.492045 
L 293.848284 -78.80029 
L 293.650458 -79.108536 
L 293.55487 -79.416781 
L 293.495882 -79.725027 
L 293.363639 -80.033273 
L 293.051078 -80.341518 
L 292.497857 -80.649764 
L 291.702237 -80.958009 
L 290.691375 -81.266255 
L 289.467994 -81.574501 
L 287.967949 -81.882746 
L 286.056388 -82.190992 
L 283.567634 -82.499237 
L 280.374724 -82.807483 
L 276.466063 -83.115729 
L 271.999308 -83.423974 
L 267.295119 -83.73222 
L 262.746172 -84.040466 
L 258.663106 -84.348711 
L 255.131487 -84.656957 
L 251.965681 -84.965202 
L 248.802338 -85.273448 
L 245.308697 -85.581694 
L 241.423099 -85.889939 
L 237.510506 -86.198185 
L 234.321339 -86.50643 
L 232.7184 -86.814676 
L 233.275174 -87.122922 
L 235.957907 -87.431167 
L 240.077293 -87.739413 
L 244.536965 -88.047658 
L 248.241621 -88.355904 
L 250.476295 -88.66415 
L 251.12938 -88.972395 
L 250.718036 -89.280641 
L 250.222321 -89.588887 
L 250.75774 -89.897132 
L 253.16275 -90.205378 
L 257.650136 -90.513623 
L 263.698063 -90.821869 
L 270.265082 -91.130115 
L 276.231914 -91.43836 
L 280.835998 -91.746606 
L 283.885276 -92.054851 
L 285.690272 -92.363097 
L 286.810424 -92.671343 
L 287.772427 -92.979588 
L 288.884 -93.287834 
L 290.191057 -93.596079 
L 291.555744 -93.904325 
L 292.788524 -94.212571 
L 293.75962 -94.520816 
L 294.443711 -94.829062 
L 294.898149 -95.137308 
L 295.209378 -95.445553 
L 295.446944 -95.753799 
L 295.645394 -96.062044 
L 295.811216 -96.37029 
L 295.939864 -96.678536 
L 296.029183 -96.986781 
L 296.083898 -97.295027 
L 296.113337 -97.603272 
L 296.127234 -97.911518 
L 296.132991 -98.219764 
L 296.135085 -98.528009 
L 296.135753 -98.836255 
L 296.135941 -99.1445 
L 296.135987 -99.452746 
L 296.135997 -99.760992 
L 296.135993 -100.069237 
L 296.135968 -100.377483 
L 296.13586 -100.685728 
L 296.135459 -100.993974 
L 296.134154 -101.30222 
L 296.130439 -101.610465 
L 296.121212 -101.918711 
L 296.101289 -102.226957 
L 296.064083 -102.535202 
L 296.004475 -102.843448 
L 295.923678 -103.151693 
L 295.833454 -103.459939 
L 295.755463 -103.768185 
L 295.713513 -104.07643 
L 295.721963 -104.384676 
L 295.777841 -104.692921 
L 295.862522 -105.001167 
L 295.951677 -105.309413 
L 296.026341 -105.617658 
L 296.078413 -105.925904 
L 296.193587 -105.925904 
L 296.193587 -105.925904 
L 296.245659 -105.617658 
L 296.320323 -105.309413 
L 296.409478 -105.001167 
L 296.494159 -104.692921 
L 296.550037 -104.384676 
L 296.558487 -104.07643 
L 296.516537 -103.768185 
L 296.438546 -103.459939 
L 296.348322 -103.151693 
L 296.267525 -102.843448 
L 296.207917 -102.535202 
L 296.170711 -102.226957 
L 296.150788 -101.918711 
L 296.141561 -101.610465 
L 296.137846 -101.30222 
L 296.136541 -100.993974 
L 296.13614 -100.685728 
L 296.136032 -100.377483 
L 296.136007 -100.069237 
L 296.136003 -99.760992 
L 296.136013 -99.452746 
L 296.136059 -99.1445 
L 296.136247 -98.836255 
L 296.136915 -98.528009 
L 296.139009 -98.219764 
L 296.144766 -97.911518 
L 296.158663 -97.603272 
L 296.188102 -97.295027 
L 296.242817 -96.986781 
L 296.332136 -96.678536 
L 296.460784 -96.37029 
L 296.626606 -96.062044 
L 296.825056 -95.753799 
L 297.062622 -95.445553 
L 297.373851 -95.137308 
L 297.828289 -94.829062 
L 298.51238 -94.520816 
L 299.483476 -94.212571 
L 300.716256 -93.904325 
L 302.080943 -93.596079 
L 303.388 -93.287834 
L 304.499573 -92.979588 
L 305.461576 -92.671343 
L 306.581728 -92.363097 
L 308.386724 -92.054851 
L 311.436002 -91.746606 
L 316.040086 -91.43836 
L 322.006918 -91.130115 
L 328.573937 -90.821869 
L 334.621864 -90.513623 
L 339.10925 -90.205378 
L 341.51426 -89.897132 
L 342.049679 -89.588887 
L 341.553964 -89.280641 
L 341.14262 -88.972395 
L 341.795705 -88.66415 
L 344.030379 -88.355904 
L 347.735035 -88.047658 
L 352.194707 -87.739413 
L 356.314093 -87.431167 
L 358.996826 -87.122922 
L 359.5536 -86.814676 
L 357.950661 -86.50643 
L 354.761494 -86.198185 
L 350.848901 -85.889939 
L 346.963303 -85.581694 
L 343.469662 -85.273448 
L 340.306319 -84.965202 
L 337.140513 -84.656957 
L 333.608894 -84.348711 
L 329.525828 -84.040466 
L 324.976881 -83.73222 
L 320.272692 -83.423974 
L 315.805937 -83.115729 
L 311.897276 -82.807483 
L 308.704366 -82.499237 
L 306.215612 -82.190992 
L 304.304051 -81.882746 
L 302.804006 -81.574501 
L 301.580625 -81.266255 
L 300.569763 -80.958009 
L 299.774143 -80.649764 
L 299.220922 -80.341518 
L 298.908361 -80.033273 
L 298.776118 -79.725027 
L 298.71713 -79.416781 
L 298.621542 -79.108536 
L 298.423716 -78.80029 
L 298.123542 -78.492045 
L 297.7716 -78.183799 
L 297.431303 -77.875553 
L 297.14401 -77.567308 
L 296.916918 -77.259062 
L 296.734674 -76.950817 
L 296.579748 -76.642571 
L 296.445105 -76.334325 
L 296.333612 -76.02608 
L 296.250092 -75.717834 
L 296.194906 -75.409588 
z
" style="stroke: #595959; stroke-width: 1.25"/>
    </defs>
    <g clip-path="url(#p41e695326a)">
     <use xlink:href="#mda8cdad8cd" x="0" y="432" style="fill: #e99675; stroke: #595959; stroke-width: 1.25"/>
    </g>
   </g>
   <g id="PolyCollection_3">
    <defs>
     <path id="m5a73bf1ace" d="M 455.152509 -97.86267 
L 454.207491 -97.86267 
L 453.899345 -100.274625 
L 453.43513 -102.686579 
L 452.762382 -105.098533 
L 451.823981 -107.510488 
L 450.563458 -109.922442 
L 448.932142 -112.334397 
L 446.897494 -114.746351 
L 444.451645 -117.158306 
L 441.618936 -119.57026 
L 438.46132 -121.982215 
L 435.080531 -124.394169 
L 431.616114 -126.806123 
L 428.238543 -129.218078 
L 425.136949 -131.630032 
L 422.501543 -134.041987 
L 420.501803 -136.453941 
L 419.262819 -138.865896 
L 418.843481 -141.27785 
L 419.220946 -143.689804 
L 420.285478 -146.101759 
L 421.848216 -148.513713 
L 423.66188 -150.925668 
L 425.45172 -153.337622 
L 426.9518 -155.749577 
L 427.940647 -158.161531 
L 428.270496 -160.573486 
L 427.885602 -162.98544 
L 426.826961 -165.397394 
L 425.22292 -167.809349 
L 423.267379 -170.221303 
L 421.189344 -172.633258 
L 419.219206 -175.045212 
L 417.557792 -177.457167 
L 416.353577 -179.869121 
L 415.691272 -182.281075 
L 415.591955 -184.69303 
L 416.021737 -187.104984 
L 416.904074 -189.516939 
L 418.130759 -191.928893 
L 419.568572 -194.340848 
L 421.061537 -196.752802 
L 422.431571 -199.164757 
L 423.481808 -201.576711 
L 424.006517 -203.988665 
L 423.809506 -206.40062 
L 422.73014 -208.812574 
L 420.673329 -211.224529 
L 417.638031 -213.636483 
L 413.738096 -216.048438 
L 409.20981 -218.460392 
L 404.402089 -220.872346 
L 399.747824 -223.284301 
L 395.718208 -225.696255 
L 392.76543 -228.10821 
L 391.2624 -230.520164 
L 391.449938 -232.932119 
L 393.401609 -235.344073 
L 397.013491 -237.756028 
L 402.021304 -240.167982 
L 408.041539 -242.579936 
L 414.628171 -244.991891 
L 421.333675 -247.403845 
L 427.763005 -249.8158 
L 433.61191 -252.227754 
L 438.685349 -254.639709 
L 442.896506 -257.051663 
L 446.250681 -259.463618 
L 448.820369 -261.875572 
L 450.718017 -264.287526 
L 452.071578 -266.699481 
L 453.005977 -269.111435 
L 453.631434 -271.52339 
L 454.038001 -273.935344 
L 454.294773 -276.347299 
L 454.451958 -278.759253 
L 454.544289 -281.171207 
L 454.594658 -283.583162 
L 454.617384 -285.995116 
L 454.620894 -288.407071 
L 454.609812 -290.819025 
L 454.586588 -293.23098 
L 454.552773 -295.642934 
L 454.510006 -298.054889 
L 454.460702 -300.466843 
L 454.408387 -302.878797 
L 454.357644 -305.290752 
L 454.313647 -307.702706 
L 454.281396 -310.114661 
L 454.264831 -312.526615 
L 454.26606 -314.93857 
L 454.284929 -317.350524 
L 454.319059 -319.762478 
L 454.364339 -322.174433 
L 454.415742 -324.586387 
L 454.468233 -326.998342 
L 454.517553 -329.410296 
L 454.560715 -331.822251 
L 454.596154 -334.234205 
L 454.623584 -336.64616 
L 454.736416 -336.64616 
L 454.736416 -336.64616 
L 454.763846 -334.234205 
L 454.799285 -331.822251 
L 454.842447 -329.410296 
L 454.891767 -326.998342 
L 454.944258 -324.586387 
L 454.995661 -322.174433 
L 455.040941 -319.762478 
L 455.075071 -317.350524 
L 455.09394 -314.93857 
L 455.095169 -312.526615 
L 455.078604 -310.114661 
L 455.046353 -307.702706 
L 455.002356 -305.290752 
L 454.951613 -302.878797 
L 454.899298 -300.466843 
L 454.849994 -298.054889 
L 454.807227 -295.642934 
L 454.773412 -293.23098 
L 454.750188 -290.819025 
L 454.739106 -288.407071 
L 454.742616 -285.995116 
L 454.765342 -283.583162 
L 454.815711 -281.171207 
L 454.908042 -278.759253 
L 455.065227 -276.347299 
L 455.321999 -273.935344 
L 455.728566 -271.52339 
L 456.354023 -269.111435 
L 457.288422 -266.699481 
L 458.641983 -264.287526 
L 460.539631 -261.875572 
L 463.109319 -259.463618 
L 466.463494 -257.051663 
L 470.674651 -254.639709 
L 475.74809 -252.227754 
L 481.596995 -249.8158 
L 488.026325 -247.403845 
L 494.731829 -244.991891 
L 501.318461 -242.579936 
L 507.338696 -240.167982 
L 512.346509 -237.756028 
L 515.958391 -235.344073 
L 517.910062 -232.932119 
L 518.0976 -230.520164 
L 516.59457 -228.10821 
L 513.641792 -225.696255 
L 509.612176 -223.284301 
L 504.957911 -220.872346 
L 500.15019 -218.460392 
L 495.621904 -216.048438 
L 491.721969 -213.636483 
L 488.686671 -211.224529 
L 486.62986 -208.812574 
L 485.550494 -206.40062 
L 485.353483 -203.988665 
L 485.878192 -201.576711 
L 486.928429 -199.164757 
L 488.298463 -196.752802 
L 489.791428 -194.340848 
L 491.229241 -191.928893 
L 492.455926 -189.516939 
L 493.338263 -187.104984 
L 493.768045 -184.69303 
L 493.668728 -182.281075 
L 493.006423 -179.869121 
L 491.802208 -177.457167 
L 490.140794 -175.045212 
L 488.170656 -172.633258 
L 486.092621 -170.221303 
L 484.13708 -167.809349 
L 482.533039 -165.397394 
L 481.474398 -162.98544 
L 481.089504 -160.573486 
L 481.419353 -158.161531 
L 482.4082 -155.749577 
L 483.90828 -153.337622 
L 485.69812 -150.925668 
L 487.511784 -148.513713 
L 489.074522 -146.101759 
L 490.139054 -143.689804 
L 490.516519 -141.27785 
L 490.097181 -138.865896 
L 488.858197 -136.453941 
L 486.858457 -134.041987 
L 484.223051 -131.630032 
L 481.121457 -129.218078 
L 477.743886 -126.806123 
L 474.279469 -124.394169 
L 470.89868 -121.982215 
L 467.741064 -119.57026 
L 464.908355 -117.158306 
L 462.462506 -114.746351 
L 460.427858 -112.334397 
L 458.796542 -109.922442 
L 457.536019 -107.510488 
L 456.597618 -105.098533 
L 455.92487 -102.686579 
L 455.460655 -100.274625 
L 455.152509 -97.86267 
z
" style="stroke: #595959; stroke-width: 1.25"/>
    </defs>
    <g clip-path="url(#p41e695326a)">
     <use xlink:href="#m5a73bf1ace" x="0" y="432" style="fill: #95a3c3; stroke: #595959; stroke-width: 1.25"/>
    </g>
   </g>
   <g id="PolyCollection_4">
    <defs>
     <path id="m812d98d60c" d="M 614.408761 -109.902009 
L 612.039239 -109.902009 
L 611.327683 -112.717959 
L 610.280636 -115.533909 
L 608.792067 -118.349859 
L 606.748026 -121.165809 
L 604.038433 -123.981759 
L 600.573768 -126.797709 
L 596.305555 -129.613658 
L 591.248159 -132.429608 
L 585.498035 -135.245558 
L 579.245581 -138.061508 
L 572.774708 -140.877458 
L 566.446397 -143.693408 
L 560.665203 -146.509358 
L 555.831324 -149.325308 
L 552.284928 -152.141258 
L 550.252536 -154.957208 
L 549.8064 -157.773158 
L 550.846228 -160.589108 
L 553.108402 -163.405058 
L 556.202025 -166.221007 
L 559.665341 -169.036957 
L 563.031879 -171.852907 
L 565.89425 -174.668857 
L 567.954999 -177.484807 
L 569.057492 -180.300757 
L 569.194336 -183.116707 
L 568.494885 -185.932657 
L 567.196186 -188.748607 
L 565.603176 -191.564557 
L 564.044115 -194.380507 
L 562.826871 -197.196457 
L 562.200936 -200.012406 
L 562.329161 -202.828356 
L 563.272069 -205.644306 
L 564.986128 -208.460256 
L 567.335483 -211.276206 
L 570.114784 -214.092156 
L 573.079008 -216.908106 
L 575.975293 -219.724056 
L 578.571744 -222.540006 
L 580.679172 -225.355956 
L 582.163445 -228.171906 
L 582.948183 -230.987856 
L 583.009415 -233.803806 
L 582.365174 -236.619755 
L 581.063605 -239.435705 
L 579.172895 -242.251655 
L 576.775428 -245.067605 
L 573.967141 -247.883555 
L 570.8615 -250.699505 
L 567.59598 -253.515455 
L 564.337878 -256.331405 
L 561.28587 -259.147355 
L 558.664199 -261.963305 
L 556.707889 -264.779255 
L 555.639566 -267.595205 
L 555.64101 -270.411154 
L 556.824652 -273.227104 
L 559.211247 -276.043054 
L 562.7193 -278.859004 
L 567.169676 -281.674954 
L 572.305439 -284.490904 
L 577.823568 -287.306854 
L 583.412479 -290.122804 
L 588.788241 -292.938754 
L 593.723115 -295.754704 
L 598.062258 -298.570654 
L 601.727431 -301.386604 
L 604.709339 -304.202554 
L 607.0522 -307.018503 
L 608.834898 -309.834453 
L 610.152683 -312.650403 
L 611.102207 -315.466353 
L 611.771273 -318.282303 
L 612.233315 -321.098253 
L 612.545799 -323.914203 
L 612.751291 -326.730153 
L 612.879985 -329.546103 
L 612.952709 -332.362053 
L 612.983798 -335.178003 
L 612.983514 -337.993953 
L 612.959895 -340.809902 
L 612.920033 -343.625852 
L 612.870801 -346.441802 
L 612.819098 -349.257752 
L 612.771666 -352.073702 
L 612.734605 -354.889652 
L 612.712746 -357.705602 
L 612.709058 -360.521552 
L 612.72429 -363.337502 
L 612.756947 -366.153452 
L 612.80363 -368.969402 
L 612.859683 -371.785352 
L 612.919986 -374.601302 
L 612.979733 -377.417251 
L 613.035032 -380.233201 
L 613.083246 -383.049151 
L 613.123055 -385.865101 
L 613.154296 -388.681051 
L 613.293704 -388.681051 
L 613.293704 -388.681051 
L 613.324945 -385.865101 
L 613.364754 -383.049151 
L 613.412968 -380.233201 
L 613.468267 -377.417251 
L 613.528014 -374.601302 
L 613.588317 -371.785352 
L 613.64437 -368.969402 
L 613.691053 -366.153452 
L 613.72371 -363.337502 
L 613.738942 -360.521552 
L 613.735254 -357.705602 
L 613.713395 -354.889652 
L 613.676334 -352.073702 
L 613.628902 -349.257752 
L 613.577199 -346.441802 
L 613.527967 -343.625852 
L 613.488105 -340.809902 
L 613.464486 -337.993953 
L 613.464202 -335.178003 
L 613.495291 -332.362053 
L 613.568015 -329.546103 
L 613.696709 -326.730153 
L 613.902201 -323.914203 
L 614.214685 -321.098253 
L 614.676727 -318.282303 
L 615.345793 -315.466353 
L 616.295317 -312.650403 
L 617.613102 -309.834453 
L 619.3958 -307.018503 
L 621.738661 -304.202554 
L 624.720569 -301.386604 
L 628.385742 -298.570654 
L 632.724885 -295.754704 
L 637.659759 -292.938754 
L 643.035521 -290.122804 
L 648.624432 -287.306854 
L 654.142561 -284.490904 
L 659.278324 -281.674954 
L 663.7287 -278.859004 
L 667.236753 -276.043054 
L 669.623348 -273.227104 
L 670.80699 -270.411154 
L 670.808434 -267.595205 
L 669.740111 -264.779255 
L 667.783801 -261.963305 
L 665.16213 -259.147355 
L 662.110122 -256.331405 
L 658.85202 -253.515455 
L 655.5865 -250.699505 
L 652.480859 -247.883555 
L 649.672572 -245.067605 
L 647.275105 -242.251655 
L 645.384395 -239.435705 
L 644.082826 -236.619755 
L 643.438585 -233.803806 
L 643.499817 -230.987856 
L 644.284555 -228.171906 
L 645.768828 -225.355956 
L 647.876256 -222.540006 
L 650.472707 -219.724056 
L 653.368992 -216.908106 
L 656.333216 -214.092156 
L 659.112517 -211.276206 
L 661.461872 -208.460256 
L 663.175931 -205.644306 
L 664.118839 -202.828356 
L 664.247064 -200.012406 
L 663.621129 -197.196457 
L 662.403885 -194.380507 
L 660.844824 -191.564557 
L 659.251814 -188.748607 
L 657.953115 -185.932657 
L 657.253664 -183.116707 
L 657.390508 -180.300757 
L 658.493001 -177.484807 
L 660.55375 -174.668857 
L 663.416121 -171.852907 
L 666.782659 -169.036957 
L 670.245975 -166.221007 
L 673.339598 -163.405058 
L 675.601772 -160.589108 
L 676.6416 -157.773158 
L 676.195464 -154.957208 
L 674.163072 -152.141258 
L 670.616676 -149.325308 
L 665.782797 -146.509358 
L 660.001603 -143.693408 
L 653.673292 -140.877458 
L 647.202419 -138.061508 
L 640.949965 -135.245558 
L 635.199841 -132.429608 
L 630.142445 -129.613658 
L 625.874232 -126.797709 
L 622.409567 -123.981759 
L 619.699974 -121.165809 
L 617.655933 -118.349859 
L 616.167364 -115.533909 
L 615.120317 -112.717959 
L 614.408761 -109.902009 
z
" style="stroke: #595959; stroke-width: 1.25"/>
    </defs>
    <g clip-path="url(#p41e695326a)">
     <use xlink:href="#m812d98d60c" x="0" y="432" style="fill: #db96c0; stroke: #595959; stroke-width: 1.25"/>
    </g>
   </g>
   <g id="PolyCollection_5">
    <defs>
     <path id="m5cf9c325a2" d="M 771.821805 -141.328215 
L 771.714195 -141.328215 
L 771.664244 -143.421222 
L 771.588365 -145.51423 
L 771.487735 -147.607237 
L 771.372213 -149.700245 
L 771.259655 -151.793253 
L 771.171405 -153.88626 
L 771.125866 -155.979268 
L 771.132913 -158.072276 
L 771.191001 -160.165283 
L 771.287609 -162.258291 
L 771.402905 -164.351298 
L 771.515725 -166.444306 
L 771.609577 -168.537314 
L 771.675784 -170.630321 
L 771.712274 -172.723329 
L 771.718993 -174.816337 
L 771.692707 -176.909344 
L 771.624011 -179.002352 
L 771.498242 -181.09536 
L 771.300396 -183.188367 
L 771.02228 -185.281375 
L 770.668642 -187.374382 
L 770.259076 -189.46739 
L 769.8247 -191.560398 
L 769.40163 -193.653405 
L 769.024697 -195.746413 
L 768.723353 -197.839421 
L 768.518729 -199.932428 
L 768.419577 -202.025436 
L 768.416821 -204.118443 
L 768.479536 -206.211451 
L 768.555763 -208.304459 
L 768.579221 -210.397466 
L 768.480381 -212.490474 
L 768.198613 -214.583482 
L 767.689389 -216.676489 
L 766.917216 -218.769497 
L 765.828133 -220.862504 
L 764.312177 -222.955512 
L 762.189671 -225.04852 
L 759.262393 -227.141527 
L 755.439524 -229.234535 
L 750.88495 -231.327543 
L 746.082976 -233.42055 
L 741.739417 -235.513558 
L 738.532779 -237.606565 
L 736.836747 -239.699573 
L 736.556517 -241.792581 
L 737.13836 -243.885588 
L 737.710564 -245.978596 
L 737.29238 -248.071604 
L 735.056083 -250.164611 
L 730.639294 -252.257619 
L 724.419493 -254.350627 
L 717.564764 -256.443634 
L 711.717193 -258.536642 
L 708.384463 -260.629649 
L 708.3504 -262.722657 
L 711.444799 -264.815665 
L 716.780925 -266.908672 
L 723.259522 -269.00168 
L 730.003647 -271.094688 
L 736.512254 -273.187695 
L 742.559498 -275.280703 
L 748.01645 -277.37371 
L 752.751373 -279.466718 
L 756.646027 -281.559726 
L 759.665936 -283.652733 
L 761.902037 -285.745741 
L 763.544816 -287.838749 
L 764.809874 -289.931756 
L 765.86401 -292.024764 
L 766.791147 -294.117771 
L 767.60509 -296.210779 
L 768.288667 -298.303787 
L 768.831995 -300.396794 
L 769.252556 -302.489802 
L 769.593429 -304.58281 
L 769.905609 -306.675817 
L 770.225608 -308.768825 
L 770.560936 -310.861833 
L 770.891471 -312.95484 
L 771.184707 -315.047848 
L 771.414186 -317.140855 
L 771.569946 -319.233863 
L 771.657331 -321.326871 
L 771.688851 -323.419878 
L 771.676743 -325.512886 
L 771.631003 -327.605894 
L 771.562515 -329.698901 
L 771.486984 -331.791909 
L 771.42485 -333.884916 
L 771.395466 -335.977924 
L 771.408747 -338.070932 
L 771.460313 -340.163939 
L 771.533966 -342.256947 
L 771.60991 -344.349955 
L 771.673161 -346.442962 
L 771.717473 -348.53597 
L 771.818527 -348.53597 
L 771.818527 -348.53597 
L 771.862839 -346.442962 
L 771.92609 -344.349955 
L 772.002034 -342.256947 
L 772.075687 -340.163939 
L 772.127253 -338.070932 
L 772.140534 -335.977924 
L 772.11115 -333.884916 
L 772.049016 -331.791909 
L 771.973485 -329.698901 
L 771.904997 -327.605894 
L 771.859257 -325.512886 
L 771.847149 -323.419878 
L 771.878669 -321.326871 
L 771.966054 -319.233863 
L 772.121814 -317.140855 
L 772.351293 -315.047848 
L 772.644529 -312.95484 
L 772.975064 -310.861833 
L 773.310392 -308.768825 
L 773.630391 -306.675817 
L 773.942571 -304.58281 
L 774.283444 -302.489802 
L 774.704005 -300.396794 
L 775.247333 -298.303787 
L 775.93091 -296.210779 
L 776.744853 -294.117771 
L 777.67199 -292.024764 
L 778.726126 -289.931756 
L 779.991184 -287.838749 
L 781.633963 -285.745741 
L 783.870064 -283.652733 
L 786.889973 -281.559726 
L 790.784627 -279.466718 
L 795.51955 -277.37371 
L 800.976502 -275.280703 
L 807.023746 -273.187695 
L 813.532353 -271.094688 
L 820.276478 -269.00168 
L 826.755075 -266.908672 
L 832.091201 -264.815665 
L 835.1856 -262.722657 
L 835.151537 -260.629649 
L 831.818807 -258.536642 
L 825.971236 -256.443634 
L 819.116507 -254.350627 
L 812.896706 -252.257619 
L 808.479917 -250.164611 
L 806.24362 -248.071604 
L 805.825436 -245.978596 
L 806.39764 -243.885588 
L 806.979483 -241.792581 
L 806.699253 -239.699573 
L 805.003221 -237.606565 
L 801.796583 -235.513558 
L 797.453024 -233.42055 
L 792.65105 -231.327543 
L 788.096476 -229.234535 
L 784.273607 -227.141527 
L 781.346329 -225.04852 
L 779.223823 -222.955512 
L 777.707867 -220.862504 
L 776.618784 -218.769497 
L 775.846611 -216.676489 
L 775.337387 -214.583482 
L 775.055619 -212.490474 
L 774.956779 -210.397466 
L 774.980237 -208.304459 
L 775.056464 -206.211451 
L 775.119179 -204.118443 
L 775.116423 -202.025436 
L 775.017271 -199.932428 
L 774.812647 -197.839421 
L 774.511303 -195.746413 
L 774.13437 -193.653405 
L 773.7113 -191.560398 
L 773.276924 -189.46739 
L 772.867358 -187.374382 
L 772.51372 -185.281375 
L 772.235604 -183.188367 
L 772.037758 -181.09536 
L 771.911989 -179.002352 
L 771.843293 -176.909344 
L 771.817007 -174.816337 
L 771.823726 -172.723329 
L 771.860216 -170.630321 
L 771.926423 -168.537314 
L 772.020275 -166.444306 
L 772.133095 -164.351298 
L 772.248391 -162.258291 
L 772.344999 -160.165283 
L 772.403087 -158.072276 
L 772.410134 -155.979268 
L 772.364595 -153.88626 
L 772.276345 -151.793253 
L 772.163787 -149.700245 
L 772.048265 -147.607237 
L 771.947635 -145.51423 
L 771.871756 -143.421222 
L 771.821805 -141.328215 
z
" style="stroke: #595959; stroke-width: 1.25"/>
    </defs>
    <g clip-path="url(#p41e695326a)">
     <use xlink:href="#m5cf9c325a2" x="0" y="432" style="fill: #a2c865; stroke: #595959; stroke-width: 1.25"/>
    </g>
   </g>
   <g id="line2d_8">
    <path d="M 137.592 346.126277 
L 137.592 349.086893 
" clip-path="url(#p41e695326a)" style="fill: none; stroke: #000000"/>
   </g>
   <g id="line2d_9">
    <path d="M 137.592 344.14348 
L 137.592 341.318673 
" clip-path="url(#p41e695326a)" style="fill: none; stroke: #000000"/>
   </g>
   <g id="line2d_10">
    <path d="M 131.6466 349.086893 
L 143.5374 349.086893 
" clip-path="url(#p41e695326a)" style="fill: none; stroke: #000000; stroke-linecap: round"/>
   </g>
   <g id="line2d_11">
    <path d="M 131.6466 341.318673 
L 143.5374 341.318673 
" clip-path="url(#p41e695326a)" style="fill: none; stroke: #000000; stroke-linecap: round"/>
   </g>
   <g id="line2d_12">
    <path d="M 296.136 346.533702 
L 296.136 352.101831 
" clip-path="url(#p41e695326a)" style="fill: none; stroke: #000000"/>
   </g>
   <g id="line2d_13">
    <path d="M 296.136 342.554526 
L 296.136 337.298755 
" clip-path="url(#p41e695326a)" style="fill: none; stroke: #000000"/>
   </g>
   <g id="line2d_14">
    <path d="M 290.1906 352.101831 
L 302.0814 352.101831 
" clip-path="url(#p41e695326a)" style="fill: none; stroke: #000000; stroke-linecap: round"/>
   </g>
   <g id="line2d_15">
    <path d="M 290.1906 337.298755 
L 302.0814 337.298755 
" clip-path="url(#p41e695326a)" style="fill: none; stroke: #000000; stroke-linecap: round"/>
   </g>
   <g id="line2d_16">
    <path d="M 454.68 271.45223 
L 454.68 311.060643 
" clip-path="url(#p41e695326a)" style="fill: none; stroke: #000000"/>
   </g>
   <g id="line2d_17">
    <path d="M 454.68 201.334542 
L 454.68 118.430527 
" clip-path="url(#p41e695326a)" style="fill: none; stroke: #000000"/>
   </g>
   <g id="line2d_18">
    <path d="M 448.7346 311.060643 
L 460.6254 311.060643 
" clip-path="url(#p41e695326a)" style="fill: none; stroke: #000000; stroke-linecap: round"/>
   </g>
   <g id="line2d_19">
    <path d="M 448.7346 118.430527 
L 460.6254 118.430527 
" clip-path="url(#p41e695326a)" style="fill: none; stroke: #000000; stroke-linecap: round"/>
   </g>
   <g id="line2d_20">
    <path d="M 613.224 272.430048 
L 613.224 293.161144 
" clip-path="url(#p41e695326a)" style="fill: none; stroke: #000000"/>
   </g>
   <g id="line2d_21">
    <path d="M 613.224 170.621555 
L 613.224 72.255796 
" clip-path="url(#p41e695326a)" style="fill: none; stroke: #000000"/>
   </g>
   <g id="line2d_22">
    <path d="M 607.2786 293.161144 
L 619.1694 293.161144 
" clip-path="url(#p41e695326a)" style="fill: none; stroke: #000000; stroke-linecap: round"/>
   </g>
   <g id="line2d_23">
    <path d="M 607.2786 72.255796 
L 619.1694 72.255796 
" clip-path="url(#p41e695326a)" style="fill: none; stroke: #000000; stroke-linecap: round"/>
   </g>
   <g id="line2d_24">
    <path d="M 771.768 189.29516 
L 771.768 223.247168 
" clip-path="url(#p41e695326a)" style="fill: none; stroke: #000000"/>
   </g>
   <g id="line2d_25">
    <path d="M 771.768 165.97692 
L 771.768 133.559542 
" clip-path="url(#p41e695326a)" style="fill: none; stroke: #000000"/>
   </g>
   <g id="line2d_26">
    <path d="M 765.8226 223.247168 
L 777.7134 223.247168 
" clip-path="url(#p41e695326a)" style="fill: none; stroke: #000000; stroke-linecap: round"/>
   </g>
   <g id="line2d_27">
    <path d="M 765.8226 133.559542 
L 777.7134 133.559542 
" clip-path="url(#p41e695326a)" style="fill: none; stroke: #000000; stroke-linecap: round"/>
   </g>
   <g id="line2d_28">
    <path d="M 125.7012 345.012652 
L 149.4828 345.012652 
" clip-path="url(#p41e695326a)" style="fill: none; stroke: #ff0000; stroke-width: 2"/>
   </g>
   <g id="line2d_29">
    <path d="M 284.2452 344.931167 
L 308.0268 344.931167 
" clip-path="url(#p41e695326a)" style="fill: none; stroke: #ff0000; stroke-width: 2"/>
   </g>
   <g id="line2d_30">
    <path d="M 442.7892 235.741507 
L 466.5708 235.741507 
" clip-path="url(#p41e695326a)" style="fill: none; stroke: #ff0000; stroke-width: 2"/>
   </g>
   <g id="line2d_31">
    <path d="M 601.3332 227.593025 
L 625.1148 227.593025 
" clip-path="url(#p41e695326a)" style="fill: none; stroke: #ff0000; stroke-width: 2"/>
   </g>
   <g id="line2d_32">
    <path d="M 759.8772 172.604352 
L 783.6588 172.604352 
" clip-path="url(#p41e695326a)" style="fill: none; stroke: #ff0000; stroke-width: 2"/>
   </g>
   <g id="patch_3">
    <path d="M 58.32 373.416875 
L 58.32 27.6 
" style="fill: none; stroke: #cccccc; stroke-width: 1.25; stroke-linejoin: miter; stroke-linecap: square"/>
   </g>
   <g id="patch_4">
    <path d="M 851.04 373.416875 
L 851.04 27.6 
" style="fill: none; stroke: #cccccc; stroke-width: 1.25; stroke-linejoin: miter; stroke-linecap: square"/>
   </g>
   <g id="patch_5">
    <path d="M 58.32 373.416875 
L 851.04 373.416875 
" style="fill: none; stroke: #cccccc; stroke-width: 1.25; stroke-linejoin: miter; stroke-linecap: square"/>
   </g>
   <g id="patch_6">
    <path d="M 58.32 27.6 
L 851.04 27.6 
" style="fill: none; stroke: #cccccc; stroke-width: 1.25; stroke-linejoin: miter; stroke-linecap: square"/>
   </g>
   <g id="text_14">
    <!-- Handshake duration on TLS with ed25519 signature algorithm — Backbone (200ms/4%) -->
    <g style="fill: #262626" transform="translate(190.000312 21.6) scale(0.12 -0.12)">
     <defs>
      <path id="DejaVuSans-54" d="M -19 4666 
L 3928 4666 
L 3928 4134 
L 2272 4134 
L 2272 0 
L 1638 0 
L 1638 4134 
L -19 4134 
L -19 4666 
z
" transform="scale(0.015625)"/>
      <path id="DejaVuSans-4c" d="M 628 4666 
L 1259 4666 
L 1259 531 
L 3531 531 
L 3531 0 
L 628 0 
L 628 4666 
z
" transform="scale(0.015625)"/>
      <path id="DejaVuSans-53" d="M 3425 4513 
L 3425 3897 
Q 3066 4069 2747 4153 
Q 2428 4238 2131 4238 
Q 1616 4238 1336 4038 
Q 1056 3838 1056 3469 
Q 1056 3159 1242 3001 
Q 1428 2844 1947 2747 
L 2328 2669 
Q 3034 2534 3370 2195 
Q 3706 1856 3706 1288 
Q 3706 609 3251 259 
Q 2797 -91 1919 -91 
Q 1588 -91 1214 -16 
Q 841 59 441 206 
L 441 856 
Q 825 641 1194 531 
Q 1563 422 1919 422 
Q 2459 422 2753 634 
Q 3047 847 3047 1241 
Q 3047 1584 2836 1778 
Q 2625 1972 2144 2069 
L 1759 2144 
Q 1053 2284 737 2584 
Q 422 2884 422 3419 
Q 422 4038 858 4394 
Q 1294 4750 2059 4750 
Q 2388 4750 2728 4690 
Q 3069 4631 3425 4513 
z
" transform="scale(0.015625)"/>
      <path id="DejaVuSans-77" d="M 269 3500 
L 844 3500 
L 1563 769 
L 2278 3500 
L 2956 3500 
L 3675 769 
L 4391 3500 
L 4966 3500 
L 4050 0 
L 3372 0 
L 2619 2869 
L 1863 0 
L 1184 0 
L 269 3500 
z
" transform="scale(0.015625)"/>
      <path id="DejaVuSans-67" d="M 2906 1791 
Q 2906 2416 2648 2759 
Q 2391 3103 1925 3103 
Q 1463 3103 1205 2759 
Q 947 2416 947 1791 
Q 947 1169 1205 825 
Q 1463 481 1925 481 
Q 2391 481 2648 825 
Q 2906 1169 2906 1791 
z
M 3481 434 
Q 3481 -459 3084 -895 
Q 2688 -1331 1869 -1331 
Q 1566 -1331 1297 -1286 
Q 1028 -1241 775 -1147 
L 775 -588 
Q 1028 -725 1275 -790 
Q 1522 -856 1778 -856 
Q 2344 -856 2625 -561 
Q 2906 -266 2906 331 
L 2906 616 
Q 2728 306 2450 153 
Q 2172 0 1784 0 
Q 1141 0 747 490 
Q 353 981 353 1791 
Q 353 2603 747 3093 
Q 1141 3584 1784 3584 
Q 2172 3584 2450 3431 
Q 2728 3278 2906 2969 
L 2906 3500 
L 3481 3500 
L 3481 434 
z
" transform="scale(0.015625)"/>
      <path id="DejaVuSans-6c" d="M 603 4863 
L 1178 4863 
L 1178 0 
L 603 0 
L 603 4863 
z
" transform="scale(0.015625)"/>
      <path id="DejaVuSans-2014" d="M 313 1978 
L 6088 1978 
L 6088 1528 
L 313 1528 
L 313 1978 
z
" transform="scale(0.015625)"/>
      <path id="DejaVuSans-42" d="M 1259 2228 
L 1259 519 
L 2272 519 
Q 2781 519 3026 730 
Q 3272 941 3272 1375 
Q 3272 1813 3026 2020 
Q 2781 2228 2272 2228 
L 1259 2228 
z
M 1259 4147 
L 1259 2741 
L 2194 2741 
Q 2656 2741 2882 2914 
Q 3109 3088 3109 3444 
Q 3109 3797 2882 3972 
Q 2656 4147 2194 4147 
L 1259 4147 
z
M 628 4666 
L 2241 4666 
Q 2963 4666 3353 4366 
Q 3744 4066 3744 3513 
Q 3744 3084 3544 2831 
Q 3344 2578 2956 2516 
Q 3422 2416 3680 2098 
Q 3938 1781 3938 1306 
Q 3938 681 3513 340 
Q 3088 0 2303 0 
L 628 0 
L 628 4666 
z
" transform="scale(0.015625)"/>
      <path id="DejaVuSans-62" d="M 3116 1747 
Q 3116 2381 2855 2742 
Q 2594 3103 2138 3103 
Q 1681 3103 1420 2742 
Q 1159 2381 1159 1747 
Q 1159 1113 1420 752 
Q 1681 391 2138 391 
Q 2594 391 2855 752 
Q 3116 1113 3116 1747 
z
M 1159 2969 
Q 1341 3281 1617 3432 
Q 1894 3584 2278 3584 
Q 2916 3584 3314 3078 
Q 3713 2572 3713 1747 
Q 3713 922 3314 415 
Q 2916 -91 2278 -91 
Q 1894 -91 1617 61 
Q 1341 213 1159 525 
L 1159 0 
L 581 0 
L 581 4863 
L 1159 4863 
L 1159 2969 
z
" transform="scale(0.015625)"/>
      <path id="DejaVuSans-2f" d="M 1625 4666 
L 2156 4666 
L 531 -594 
L 0 -594 
L 1625 4666 
z
" transform="scale(0.015625)"/>
      <path id="DejaVuSans-25" d="M 4653 2053 
Q 4381 2053 4226 1822 
Q 4072 1591 4072 1178 
Q 4072 772 4226 539 
Q 4381 306 4653 306 
Q 4919 306 5073 539 
Q 5228 772 5228 1178 
Q 5228 1588 5073 1820 
Q 4919 2053 4653 2053 
z
M 4653 2450 
Q 5147 2450 5437 2106 
Q 5728 1763 5728 1178 
Q 5728 594 5436 251 
Q 5144 -91 4653 -91 
Q 4153 -91 3862 251 
Q 3572 594 3572 1178 
Q 3572 1766 3864 2108 
Q 4156 2450 4653 2450 
z
M 1428 4353 
Q 1159 4353 1004 4120 
Q 850 3888 850 3481 
Q 850 3069 1003 2837 
Q 1156 2606 1428 2606 
Q 1700 2606 1854 2837 
Q 2009 3069 2009 3481 
Q 2009 3884 1853 4118 
Q 1697 4353 1428 4353 
z
M 4250 4750 
L 4750 4750 
L 1831 -91 
L 1331 -91 
L 4250 4750 
z
M 1428 4750 
Q 1922 4750 2215 4408 
Q 2509 4066 2509 3481 
Q 2509 2891 2217 2550 
Q 1925 2209 1428 2209 
Q 931 2209 642 2551 
Q 353 2894 353 3481 
Q 353 4063 643 4406 
Q 934 4750 1428 4750 
z
" transform="scale(0.015625)"/>
     </defs>
     <use xlink:href="#DejaVuSans-48"/>
     <use xlink:href="#DejaVuSans-61" x="75.195312"/>
     <use xlink:href="#DejaVuSans-6e" x="136.474609"/>
     <use xlink:href="#DejaVuSans-64" x="199.853516"/>
     <use xlink:href="#DejaVuSans-73" x="263.330078"/>
     <use xlink:href="#DejaVuSans-68" x="315.429688"/>
     <use xlink:href="#DejaVuSans-61" x="378.808594"/>
     <use xlink:href="#DejaVuSans-6b" x="440.087891"/>
     <use xlink:href="#DejaVuSans-65" x="494.373047"/>
     <use xlink:href="#DejaVuSans-20" x="555.896484"/>
     <use xlink:href="#DejaVuSans-64" x="587.683594"/>
     <use xlink:href="#DejaVuSans-75" x="651.160156"/>
     <use xlink:href="#DejaVuSans-72" x="714.539062"/>
     <use xlink:href="#DejaVuSans-61" x="755.652344"/>
     <use xlink:href="#DejaVuSans-74" x="816.931641"/>
     <use xlink:href="#DejaVuSans-69" x="856.140625"/>
     <use xlink:href="#DejaVuSans-6f" x="883.923828"/>
     <use xlink:href="#DejaVuSans-6e" x="945.105469"/>
     <use xlink:href="#DejaVuSans-20" x="1008.484375"/>
     <use xlink:href="#DejaVuSans-6f" x="1040.271484"/>
     <use xlink:href="#DejaVuSans-6e" x="1101.453125"/>
     <use xlink:href="#DejaVuSans-20" x="1164.832031"/>
     <use xlink:href="#DejaVuSans-54" x="1196.619141"/>
     <use xlink:href="#DejaVuSans-4c" x="1257.703125"/>
     <use xlink:href="#DejaVuSans-53" x="1313.416016"/>
     <use xlink:href="#DejaVuSans-20" x="1376.892578"/>
     <use xlink:href="#DejaVuSans-77" x="1408.679688"/>
     <use xlink:href="#DejaVuSans-69" x="1490.466797"/>
     <use xlink:href="#DejaVuSans-74" x="1518.25"/>
     <use xlink:href="#DejaVuSans-68" x="1557.458984"/>
     <use xlink:href="#DejaVuSans-20" x="1620.837891"/>
     <use xlink:href="#DejaVuSans-65" x="1652.625"/>
     <use xlink:href="#DejaVuSans-64" x="1714.148438"/>
     <use xlink:href="#DejaVuSans-32" x="1777.625"/>
     <use xlink:href="#DejaVuSans-35" x="1841.248047"/>
     <use xlink:href="#DejaVuSans-35" x="1904.871094"/>
     <use xlink:href="#DejaVuSans-31" x="1968.494141"/>
     <use xlink:href="#DejaVuSans-39" x="2032.117188"/>
     <use xlink:href="#DejaVuSans-20" x="2095.740234"/>
     <use xlink:href="#DejaVuSans-73" x="2127.527344"/>
     <use xlink:href="#DejaVuSans-69" x="2179.626953"/>
     <use xlink:href="#DejaVuSans-67" x="2207.410156"/>
     <use xlink:href="#DejaVuSans-6e" x="2270.886719"/>
     <use xlink:href="#DejaVuSans-61" x="2334.265625"/>
     <use xlink:href="#DejaVuSans-74" x="2395.544922"/>
     <use xlink:href="#DejaVuSans-75" x="2434.753906"/>
     <use xlink:href="#DejaVuSans-72" x="2498.132812"/>
     <use xlink:href="#DejaVuSans-65" x="2536.996094"/>
     <use xlink:href="#DejaVuSans-20" x="2598.519531"/>
     <use xlink:href="#DejaVuSans-61" x="2630.306641"/>
     <use xlink:href="#DejaVuSans-6c" x="2691.585938"/>
     <use xlink:href="#DejaVuSans-67" x="2719.369141"/>
     <use xlink:href="#DejaVuSans-6f" x="2782.845703"/>
     <use xlink:href="#DejaVuSans-72" x="2844.027344"/>
     <use xlink:href="#DejaVuSans-69" x="2885.140625"/>
     <use xlink:href="#DejaVuSans-74" x="2912.923828"/>
     <use xlink:href="#DejaVuSans-68" x="2952.132812"/>
     <use xlink:href="#DejaVuSans-6d" x="3015.511719"/>
     <use xlink:href="#DejaVuSans-20" x="3112.923828"/>
     <use xlink:href="#DejaVuSans-2014" x="3144.710938"/>
     <use xlink:href="#DejaVuSans-20" x="3244.710938"/>
     <use xlink:href="#DejaVuSans-42" x="3276.498047"/>
     <use xlink:href="#DejaVuSans-61" x="3345.101562"/>
     <use xlink:href="#DejaVuSans-63" x="3406.380859"/>
     <use xlink:href="#DejaVuSans-6b" x="3461.361328"/>
     <use xlink:href="#DejaVuSans-62" x="3519.271484"/>
     <use xlink:href="#DejaVuSans-6f" x="3582.748047"/>
     <use xlink:href="#DejaVuSans-6e" x="3643.929688"/>
     <use xlink:href="#DejaVuSans-65" x="3707.308594"/>
     <use xlink:href="#DejaVuSans-20" x="3768.832031"/>
     <use xlink:href="#DejaVuSans-28" x="3800.619141"/>
     <use xlink:href="#DejaVuSans-32" x="3839.632812"/>
     <use xlink:href="#DejaVuSans-30" x="3903.255859"/>
     <use xlink:href="#DejaVuSans-30" x="3966.878906"/>
     <use xlink:href="#DejaVuSans-6d" x="4030.501953"/>
     <use xlink:href="#DejaVuSans-73" x="4127.914062"/>
     <use xlink:href="#DejaVuSans-2f" x="4180.013672"/>
     <use xlink:href="#DejaVuSans-34" x="4213.705078"/>
     <use xlink:href="#DejaVuSans-25" x="4277.328125"/>
     <use xlink:href="#DejaVuSans-29" x="4372.347656"/>
    </g>
   </g>
  </g>
 </g>
 <defs>
  <clipPath id="p41e695326a">
   <rect x="58.32" y="27.6" width="792.72" height="345.816875"/>
  </clipPath>
 </defs>
</svg>
