<?xml version="1.0" encoding="utf-8" standalone="no"?>
<!DOCTYPE svg PUBLIC "-//W3C//DTD SVG 1.1//EN"
  "http://www.w3.org/Graphics/SVG/1.1/DTD/svg11.dtd">
<svg xmlns:xlink="http://www.w3.org/1999/xlink" width="864pt" height="432pt" viewBox="0 0 864 432" xmlns="http://www.w3.org/2000/svg" version="1.1">
 <metadata>
  <rdf:RDF xmlns:dc="http://purl.org/dc/elements/1.1/" xmlns:cc="http://creativecommons.org/ns#" xmlns:rdf="http://www.w3.org/1999/02/22-rdf-syntax-ns#">
   <cc:Work>
    <dc:type rdf:resource="http://purl.org/dc/dcmitype/StillImage"/>
    <dc:date>2026-03-21T14:06:18.783354</dc:date>
    <dc:format>image/svg+xml</dc:format>
    <dc:creator>
     <cc:Agent>
      <dc:title>Matplotlib v3.6.3, https://matplotlib.org/</dc:title>
     </cc:Agent>
    </dc:creator>
   </cc:Work>
  </rdf:RDF>
 </metadata>
 <defs>
  <style type="text/css">*{stroke-linejoin: round; stroke-linecap: butt}</style>
 </defs>
 <g id="figure_1">
  <g id="patch_1">
   <path d="M 0 432 
L 864 432 
L 864 0 
L 0 0 
z
" style="fill: #ffffff"/>
  </g>
  <g id="axes_1">
   <g id="patch_2">
    <path d="M 58.32 373.416875 
L 851.04 373.416875 
L 851.04 27.6 
L 58.32 27.6 
z
" style="fill: #ffffff"/>
   </g>
   <g id="matplotlib.axis_1">
    <g id="xtick_1">
     <g id="text_1">
      <!-- P-256 -->
      <g style="fill: #262626" transform="translate(103.911421 400.575919) rotate(-15) scale(0.12 -0.12)">
       <defs>
        <path id="DejaVuSans-50" d="M 1259 4147 
L 1259 2394 
L 2053 2394 
Q 2494 2394 2734 2622 
Q 2975 2850 2975 3272 
Q 2975 3691 2734 3919 
Q 2494 4147 2053 4147 
L 1259 4147 
z
M 628 4666 
L 2053 4666 
Q 2838 4666 3239 4311 
Q 3641 3956 3641 3272 
Q 3641 2581 3239 2228 
Q 2838 1875 2053 1875 
L 1259 1875 
L 1259 0 
L 628 0 
L 628 4666 
z
" transform="scale(0.015625)"/>
        <path id="DejaVuSans-2d" d="M 313 2009 
L 1997 2009 
L 1997 1497 
L 313 1497 
L 313 2009 
z
" transform="scale(0.015625)"/>
        <path id="DejaVuSans-32" d="M 1228 531 
L 3431 531 
L 3431 0 
L 469 0 
L 469 531 
Q 828 903 1448 1529 
Q 2069 2156 2228 2338 
Q 2531 2678 2651 2914 
Q 2772 3150 2772 3378 
Q 2772 3750 2511 3984 
Q 2250 4219 1831 4219 
Q 1534 4219 1204 4116 
Q 875 4013 500 3803 
L 500 4441 
Q 881 4594 1212 4672 
Q 1544 4750 1819 4750 
Q 2544 4750 2975 4387 
Q 3406 4025 3406 3419 
Q 3406 3131 3298 2873 
Q 3191 2616 2906 2266 
Q 2828 2175 2409 1742 
Q 1991 1309 1228 531 
z
" transform="scale(0.015625)"/>
        <path id="DejaVuSans-35" d="M 691 4666 
L 3169 4666 
L 3169 4134 
L 1269 4134 
L 1269 2991 
Q 1406 3038 1543 3061 
Q 1681 3084 1819 3084 
Q 2600 3084 3056 2656 
Q 3513 2228 3513 1497 
Q 3513 744 3044 326 
Q 2575 -91 1722 -91 
Q 1428 -91 1123 -41 
Q 819 9 494 109 
L 494 744 
Q 775 591 1075 516 
Q 1375 441 1709 441 
Q 2250 441 2565 725 
Q 2881 1009 2881 1497 
Q 2881 1984 2565 2268 
Q 2250 2553 1709 2553 
Q 1456 2553 1204 2497 
Q 953 2441 691 2322 
L 691 4666 
z
" transform="scale(0.015625)"/>
        <path id="DejaVuSans-36" d="M 2113 2584 
Q 1688 2584 1439 2293 
Q 1191 2003 1191 1497 
Q 1191 994 1439 701 
Q 1688 409 2113 409 
Q 2538 409 2786 701 
Q 3034 994 3034 1497 
Q 3034 2003 2786 2293 
Q 2538 2584 2113 2584 
z
M 3366 4563 
L 3366 3988 
Q 3128 4100 2886 4159 
Q 2644 4219 2406 4219 
Q 1781 4219 1451 3797 
Q 1122 3375 1075 2522 
Q 1259 2794 1537 2939 
Q 1816 3084 2150 3084 
Q 2853 3084 3261 2657 
Q 3669 2231 3669 1497 
Q 3669 778 3244 343 
Q 2819 -91 2113 -91 
Q 1303 -91 875 529 
Q 447 1150 447 2328 
Q 447 3434 972 4092 
Q 1497 4750 2381 4750 
Q 2619 4750 2861 4703 
Q 3103 4656 3366 4563 
z
" transform="scale(0.015625)"/>
       </defs>
       <use xlink:href="#DejaVuSans-50"/>
       <use xlink:href="#DejaVuSans-2d" x="58.052734"/>
       <use xlink:href="#DejaVuSans-32" x="94.136719"/>
       <use xlink:href="#DejaVuSans-35" x="157.759766"/>
       <use xlink:href="#DejaVuSans-36" x="221.382812"/>
      </g>
     </g>
    </g>
    <g id="xtick_2">
     <g id="text_2">
      <!-- x25519 -->
      <g style="fill: #262626" transform="translate(251.755378 403.442987) rotate(-15) scale(0.12 -0.12)">
       <defs>
        <path id="DejaVuSans-78" d="M 3513 3500 
L 2247 1797 
L 3578 0 
L 2900 0 
L 1881 1375 
L 863 0 
L 184 0 
L 1544 1831 
L 300 3500 
L 978 3500 
L 1906 2253 
L 2834 3500 
L 3513 3500 
z
" transform="scale(0.015625)"/>
        <path id="DejaVuSans-31" d="M 794 531 
L 1825 531 
L 1825 4091 
L 703 3866 
L 703 4441 
L 1819 4666 
L 2450 4666 
L 2450 531 
L 3481 531 
L 3481 0 
L 794 0 
L 794 531 
z
" transform="scale(0.015625)"/>
        <path id="DejaVuSans-39" d="M 703 97 
L 703 672 
Q 941 559 1184 500 
Q 1428 441 1663 441 
Q 2288 441 2617 861 
Q 2947 1281 2994 2138 
Q 2813 1869 2534 1725 
Q 2256 1581 1919 1581 
Q 1219 1581 811 2004 
Q 403 2428 403 3163 
Q 403 3881 828 4315 
Q 1253 4750 1959 4750 
Q 2769 4750 3195 4129 
Q 3622 3509 3622 2328 
Q 3622 1225 3098 567 
Q 2575 -91 1691 -91 
Q 1453 -91 1209 -44 
Q 966 3 703 97 
z
M 1959 2075 
Q 2384 2075 2632 2365 
Q 2881 2656 2881 3163 
Q 2881 3666 2632 3958 
Q 2384 4250 1959 4250 
Q 1534 4250 1286 3958 
Q 1038 3666 1038 3163 
Q 1038 2656 1286 2365 
Q 1534 2075 1959 2075 
z
" transform="scale(0.015625)"/>
       </defs>
       <use xlink:href="#DejaVuSans-78"/>
       <use xlink:href="#DejaVuSans-32" x="59.179688"/>
       <use xlink:href="#DejaVuSans-35" x="122.802734"/>
       <use xlink:href="#DejaVuSans-35" x="186.425781"/>
       <use xlink:href="#DejaVuSans-31" x="250.048828"/>
       <use xlink:href="#DejaVuSans-39" x="313.671875"/>
      </g>
     </g>
    </g>
    <g id="xtick_3">
     <g id="text_3">
      <!-- hqc128 -->
      <g style="fill: #262626" transform="translate(410.831845 403.300313) rotate(-15) scale(0.12 -0.12)">
       <defs>
        <path id="DejaVuSans-68" d="M 3513 2113 
L 3513 0 
L 2938 0 
L 2938 2094 
Q 2938 2591 2744 2837 
Q 2550 3084 2163 3084 
Q 1697 3084 1428 2787 
Q 1159 2491 1159 1978 
L 1159 0 
L 581 0 
L 581 4863 
L 1159 4863 
L 1159 2956 
Q 1366 3272 1645 3428 
Q 1925 3584 2291 3584 
Q 2894 3584 3203 3211 
Q 3513 2838 3513 2113 
z
" transform="scale(0.015625)"/>
        <path id="DejaVuSans-71" d="M 947 1747 
Q 947 1113 1208 752 
Q 1469 391 1925 391 
Q 2381 391 2643 752 
Q 2906 1113 2906 1747 
Q 2906 2381 2643 2742 
Q 2381 3103 1925 3103 
Q 1469 3103 1208 2742 
Q 947 2381 947 1747 
z
M 2906 525 
Q 2725 213 2448 61 
Q 2172 -91 1784 -91 
Q 1150 -91 751 415 
Q 353 922 353 1747 
Q 353 2572 751 3078 
Q 1150 3584 1784 3584 
Q 2172 3584 2448 3432 
Q 2725 3281 2906 2969 
L 2906 3500 
L 3481 3500 
L 3481 -1331 
L 2906 -1331 
L 2906 525 
z
" transform="scale(0.015625)"/>
        <path id="DejaVuSans-63" d="M 3122 3366 
L 3122 2828 
Q 2878 2963 2633 3030 
Q 2388 3097 2138 3097 
Q 1578 3097 1268 2742 
Q 959 2388 959 1747 
Q 959 1106 1268 751 
Q 1578 397 2138 397 
Q 2388 397 2633 464 
Q 2878 531 3122 666 
L 3122 134 
Q 2881 22 2623 -34 
Q 2366 -91 2075 -91 
Q 1284 -91 818 406 
Q 353 903 353 1747 
Q 353 2603 823 3093 
Q 1294 3584 2113 3584 
Q 2378 3584 2631 3529 
Q 2884 3475 3122 3366 
z
" transform="scale(0.015625)"/>
        <path id="DejaVuSans-38" d="M 2034 2216 
Q 1584 2216 1326 1975 
Q 1069 1734 1069 1313 
Q 1069 891 1326 650 
Q 1584 409 2034 409 
Q 2484 409 2743 651 
Q 3003 894 3003 1313 
Q 3003 1734 2745 1975 
Q 2488 2216 2034 2216 
z
M 1403 2484 
Q 997 2584 770 2862 
Q 544 3141 544 3541 
Q 544 4100 942 4425 
Q 1341 4750 2034 4750 
Q 2731 4750 3128 4425 
Q 3525 4100 3525 3541 
Q 3525 3141 3298 2862 
Q 3072 2584 2669 2484 
Q 3125 2378 3379 2068 
Q 3634 1759 3634 1313 
Q 3634 634 3220 271 
Q 2806 -91 2034 -91 
Q 1263 -91 848 271 
Q 434 634 434 1313 
Q 434 1759 690 2068 
Q 947 2378 1403 2484 
z
M 1172 3481 
Q 1172 3119 1398 2916 
Q 1625 2713 2034 2713 
Q 2441 2713 2670 2916 
Q 2900 3119 2900 3481 
Q 2900 3844 2670 4047 
Q 2441 4250 2034 4250 
Q 1625 4250 1398 4047 
Q 1172 3844 1172 3481 
z
" transform="scale(0.015625)"/>
       </defs>
       <use xlink:href="#DejaVuSans-68"/>
       <use xlink:href="#DejaVuSans-71" x="63.378906"/>
       <use xlink:href="#DejaVuSans-63" x="126.855469"/>
       <use xlink:href="#DejaVuSans-31" x="181.835938"/>
       <use xlink:href="#DejaVuSans-32" x="245.458984"/>
       <use xlink:href="#DejaVuSans-38" x="309.082031"/>
      </g>
     </g>
    </g>
    <g id="xtick_4">
     <g id="text_4">
      <!-- p256_hqc128 -->
      <g style="fill: #262626" transform="translate(534.010834 412.753193) rotate(-15) scale(0.12 -0.12)">
       <defs>
        <path id="DejaVuSans-70" d="M 1159 525 
L 1159 -1331 
L 581 -1331 
L 581 3500 
L 1159 3500 
L 1159 2969 
Q 1341 3281 1617 3432 
Q 1894 3584 2278 3584 
Q 2916 3584 3314 3078 
Q 3713 2572 3713 1747 
Q 3713 922 3314 415 
Q 2916 -91 2278 -91 
Q 1894 -91 1617 61 
Q 1341 213 1159 525 
z
M 3116 1747 
Q 3116 2381 2855 2742 
Q 2594 3103 2138 3103 
Q 1681 3103 1420 2742 
Q 1159 2381 1159 1747 
Q 1159 1113 1420 752 
Q 1681 391 2138 391 
Q 2594 391 2855 752 
Q 3116 1113 3116 1747 
z
" transform="scale(0.015625)"/>
        <path id="DejaVuSans-5f" d="M 3263 -1063 
L 3263 -1509 
L -63 -1509 
L -63 -1063 
L 3263 -1063 
z
" transform="scale(0.015625)"/>
       </defs>
       <use xlink:href="#DejaVuSans-70"/>
       <use xlink:href="#DejaVuSans-32" x="63.476562"/>
       <use xlink:href="#DejaVuSans-35" x="127.099609"/>
       <use xlink:href="#DejaVuSans-36" x="190.722656"/>
       <use xlink:href="#DejaVuSans-5f" x="254.345703"/>
       <use xlink:href="#DejaVuSans-68" x="304.345703"/>
       <use xlink:href="#DejaVuSans-71" x="367.724609"/>
       <use xlink:href="#DejaVuSans-63" x="431.201172"/>
       <use xlink:href="#DejaVuSans-31" x="486.181641"/>
       <use xlink:href="#DejaVuSans-32" x="549.804688"/>
       <use xlink:href="#DejaVuSans-38" x="613.427734"/>
      </g>
     </g>
    </g>
    <g id="xtick_5">
     <g id="text_5">
      <!-- x25519_hqc128 -->
      <g style="fill: #262626" transform="translate(678.303202 416.571906) rotate(-15) scale(0.12 -0.12)">
       <use xlink:href="#DejaVuSans-78"/>
       <use xlink:href="#DejaVuSans-32" x="59.179688"/>
       <use xlink:href="#DejaVuSans-35" x="122.802734"/>
       <use xlink:href="#DejaVuSans-35" x="186.425781"/>
       <use xlink:href="#DejaVuSans-31" x="250.048828"/>
       <use xlink:href="#DejaVuSans-39" x="313.671875"/>
       <use xlink:href="#DejaVuSans-5f" x="377.294922"/>
       <use xlink:href="#DejaVuSans-68" x="427.294922"/>
       <use xlink:href="#DejaVuSans-71" x="490.673828"/>
       <use xlink:href="#DejaVuSans-63" x="554.150391"/>
       <use xlink:href="#DejaVuSans-31" x="609.130859"/>
       <use xlink:href="#DejaVuSans-32" x="672.753906"/>
       <use xlink:href="#DejaVuSans-38" x="736.376953"/>
      </g>
     </g>
    </g>
   </g>
   <g id="matplotlib.axis_2">
    <g id="ytick_1">
     <g id="line2d_1">
      <path d="M 58.32 360.95324 
L 851.04 360.95324 
" clip-path="url(#p2c3a3c2b20)" style="fill: none; stroke: #cccccc; stroke-linecap: round"/>
     </g>
     <g id="text_6">
      <!-- 0 -->
      <g style="fill: #262626" transform="translate(41.82125 365.13238) scale(0.11 -0.11)">
       <defs>
        <path id="DejaVuSans-30" d="M 2034 4250 
Q 1547 4250 1301 3770 
Q 1056 3291 1056 2328 
Q 1056 1369 1301 889 
Q 1547 409 2034 409 
Q 2525 409 2770 889 
Q 3016 1369 3016 2328 
Q 3016 3291 2770 3770 
Q 2525 4250 2034 4250 
z
M 2034 4750 
Q 2819 4750 3233 4129 
Q 3647 3509 3647 2328 
Q 3647 1150 3233 529 
Q 2819 -91 2034 -91 
Q 1250 -91 836 529 
Q 422 1150 422 2328 
Q 422 3509 836 4129 
Q 1250 4750 2034 4750 
z
" transform="scale(0.015625)"/>
       </defs>
       <use xlink:href="#DejaVuSans-30"/>
      </g>
     </g>
    </g>
    <g id="ytick_2">
     <g id="line2d_2">
      <path d="M 58.32 303.12005 
L 851.04 303.12005 
" clip-path="url(#p2c3a3c2b20)" style="fill: none; stroke: #cccccc; stroke-linecap: round"/>
     </g>
     <g id="text_7">
      <!-- 20 -->
      <g style="fill: #262626" transform="translate(34.8225 307.299191) scale(0.11 -0.11)">
       <use xlink:href="#DejaVuSans-32"/>
       <use xlink:href="#DejaVuSans-30" x="63.623047"/>
      </g>
     </g>
    </g>
    <g id="ytick_3">
     <g id="line2d_3">
      <path d="M 58.32 245.286861 
L 851.04 245.286861 
" clip-path="url(#p2c3a3c2b20)" style="fill: none; stroke: #cccccc; stroke-linecap: round"/>
     </g>
     <g id="text_8">
      <!-- 40 -->
      <g style="fill: #262626" transform="translate(34.8225 249.466002) scale(0.11 -0.11)">
       <defs>
        <path id="DejaVuSans-34" d="M 2419 4116 
L 825 1625 
L 2419 1625 
L 2419 4116 
z
M 2253 4666 
L 3047 4666 
L 3047 1625 
L 3713 1625 
L 3713 1100 
L 3047 1100 
L 3047 0 
L 2419 0 
L 2419 1100 
L 313 1100 
L 313 1709 
L 2253 4666 
z
" transform="scale(0.015625)"/>
       </defs>
       <use xlink:href="#DejaVuSans-34"/>
       <use xlink:href="#DejaVuSans-30" x="63.623047"/>
      </g>
     </g>
    </g>
    <g id="ytick_4">
     <g id="line2d_4">
      <path d="M 58.32 187.453672 
L 851.04 187.453672 
" clip-path="url(#p2c3a3c2b20)" style="fill: none; stroke: #cccccc; stroke-linecap: round"/>
     </g>
     <g id="text_9">
      <!-- 60 -->
      <g style="fill: #262626" transform="translate(34.8225 191.632812) scale(0.11 -0.11)">
       <use xlink:href="#DejaVuSans-36"/>
       <use xlink:href="#DejaVuSans-30" x="63.623047"/>
      </g>
     </g>
    </g>
    <g id="ytick_5">
     <g id="line2d_5">
      <path d="M 58.32 129.620482 
L 851.04 129.620482 
" clip-path="url(#p2c3a3c2b20)" style="fill: none; stroke: #cccccc; stroke-linecap: round"/>
     </g>
     <g id="text_10">
      <!-- 80 -->
      <g style="fill: #262626" transform="translate(34.8225 133.799623) scale(0.11 -0.11)">
       <use xlink:href="#DejaVuSans-38"/>
       <use xlink:href="#DejaVuSans-30" x="63.623047"/>
      </g>
     </g>
    </g>
    <g id="ytick_6">
     <g id="line2d_6">
      <path d="M 58.32 71.787293 
L 851.04 71.787293 
" clip-path="url(#p2c3a3c2b20)" style="fill: none; stroke: #cccccc; stroke-linecap: round"/>
     </g>
     <g id="text_11">
      <!-- 100 -->
      <g style="fill: #262626" transform="translate(27.82375 75.966434) scale(0.11 -0.11)">
       <use xlink:href="#DejaVuSans-31"/>
       <use xlink:href="#DejaVuSans-30" x="63.623047"/>
       <use xlink:href="#DejaVuSans-30" x="127.246094"/>
      </g>
     </g>
    </g>
    <g id="text_12">
     <!-- Handshake duration (ms) -->
     <g style="fill: #262626" transform="translate(21.328125 276.57625) rotate(-90) scale(0.12 -0.12)">
      <defs>
       <path id="DejaVuSans-48" d="M 628 4666 
L 1259 4666 
L 1259 2753 
L 3553 2753 
L 3553 4666 
L 4184 4666 
L 4184 0 
L 3553 0 
L 3553 2222 
L 1259 2222 
L 1259 0 
L 628 0 
L 628 4666 
z
" transform="scale(0.015625)"/>
       <path id="DejaVuSans-61" d="M 2194 1759 
Q 1497 1759 1228 1600 
Q 959 1441 959 1056 
Q 959 750 1161 570 
Q 1363 391 1709 391 
Q 2188 391 2477 730 
Q 2766 1069 2766 1631 
L 2766 1759 
L 2194 1759 
z
M 3341 1997 
L 3341 0 
L 2766 0 
L 2766 531 
Q 2569 213 2275 61 
Q 1981 -91 1556 -91 
Q 1019 -91 701 211 
Q 384 513 384 1019 
Q 384 1609 779 1909 
Q 1175 2209 1959 2209 
L 2766 2209 
L 2766 2266 
Q 2766 2663 2505 2880 
Q 2244 3097 1772 3097 
Q 1472 3097 1187 3025 
Q 903 2953 641 2809 
L 641 3341 
Q 956 3463 1253 3523 
Q 1550 3584 1831 3584 
Q 2591 3584 2966 3190 
Q 3341 2797 3341 1997 
z
" transform="scale(0.015625)"/>
       <path id="DejaVuSans-6e" d="M 3513 2113 
L 3513 0 
L 2938 0 
L 2938 2094 
Q 2938 2591 2744 2837 
Q 2550 3084 2163 3084 
Q 1697 3084 1428 2787 
Q 1159 2491 1159 1978 
L 1159 0 
L 581 0 
L 581 3500 
L 1159 3500 
L 1159 2956 
Q 1366 3272 1645 3428 
Q 1925 3584 2291 3584 
Q 2894 3584 3203 3211 
Q 3513 2838 3513 2113 
z
" transform="scale(0.015625)"/>
       <path id="DejaVuSans-64" d="M 2906 2969 
L 2906 4863 
L 3481 4863 
L 3481 0 
L 2906 0 
L 2906 525 
Q 2725 213 2448 61 
Q 2172 -91 1784 -91 
Q 1150 -91 751 415 
Q 353 922 353 1747 
Q 353 2572 751 3078 
Q 1150 3584 1784 3584 
Q 2172 3584 2448 3432 
Q 2725 3281 2906 2969 
z
M 947 1747 
Q 947 1113 1208 752 
Q 1469 391 1925 391 
Q 2381 391 2643 752 
Q 2906 1113 2906 1747 
Q 2906 2381 2643 2742 
Q 2381 3103 1925 3103 
Q 1469 3103 1208 2742 
Q 947 2381 947 1747 
z
" transform="scale(0.015625)"/>
       <path id="DejaVuSans-73" d="M 2834 3397 
L 2834 2853 
Q 2591 2978 2328 3040 
Q 2066 3103 1784 3103 
Q 1356 3103 1142 2972 
Q 928 2841 928 2578 
Q 928 2378 1081 2264 
Q 1234 2150 1697 2047 
L 1894 2003 
Q 2506 1872 2764 1633 
Q 3022 1394 3022 966 
Q 3022 478 2636 193 
Q 2250 -91 1575 -91 
Q 1294 -91 989 -36 
Q 684 19 347 128 
L 347 722 
Q 666 556 975 473 
Q 1284 391 1588 391 
Q 1994 391 2212 530 
Q 2431 669 2431 922 
Q 2431 1156 2273 1281 
Q 2116 1406 1581 1522 
L 1381 1569 
Q 847 1681 609 1914 
Q 372 2147 372 2553 
Q 372 3047 722 3315 
Q 1072 3584 1716 3584 
Q 2034 3584 2315 3537 
Q 2597 3491 2834 3397 
z
" transform="scale(0.015625)"/>
       <path id="DejaVuSans-6b" d="M 581 4863 
L 1159 4863 
L 1159 1991 
L 2875 3500 
L 3609 3500 
L 1753 1863 
L 3688 0 
L 2938 0 
L 1159 1709 
L 1159 0 
L 581 0 
L 581 4863 
z
" transform="scale(0.015625)"/>
       <path id="DejaVuSans-65" d="M 3597 1894 
L 3597 1613 
L 953 1613 
Q 991 1019 1311 708 
Q 1631 397 2203 397 
Q 2534 397 2845 478 
Q 3156 559 3463 722 
L 3463 178 
Q 3153 47 2828 -22 
Q 2503 -91 2169 -91 
Q 1331 -91 842 396 
Q 353 884 353 1716 
Q 353 2575 817 3079 
Q 1281 3584 2069 3584 
Q 2775 3584 3186 3129 
Q 3597 2675 3597 1894 
z
M 3022 2063 
Q 3016 2534 2758 2815 
Q 2500 3097 2075 3097 
Q 1594 3097 1305 2825 
Q 1016 2553 972 2059 
L 3022 2063 
z
" transform="scale(0.015625)"/>
       <path id="DejaVuSans-20" transform="scale(0.015625)"/>
       <path id="DejaVuSans-75" d="M 544 1381 
L 544 3500 
L 1119 3500 
L 1119 1403 
Q 1119 906 1312 657 
Q 1506 409 1894 409 
Q 2359 409 2629 706 
Q 2900 1003 2900 1516 
L 2900 3500 
L 3475 3500 
L 3475 0 
L 2900 0 
L 2900 538 
Q 2691 219 2414 64 
Q 2138 -91 1772 -91 
Q 1169 -91 856 284 
Q 544 659 544 1381 
z
M 1991 3584 
L 1991 3584 
z
" transform="scale(0.015625)"/>
       <path id="DejaVuSans-72" d="M 2631 2963 
Q 2534 3019 2420 3045 
Q 2306 3072 2169 3072 
Q 1681 3072 1420 2755 
Q 1159 2438 1159 1844 
L 1159 0 
L 581 0 
L 581 3500 
L 1159 3500 
L 1159 2956 
Q 1341 3275 1631 3429 
Q 1922 3584 2338 3584 
Q 2397 3584 2469 3576 
Q 2541 3569 2628 3553 
L 2631 2963 
z
" transform="scale(0.015625)"/>
       <path id="DejaVuSans-74" d="M 1172 4494 
L 1172 3500 
L 2356 3500 
L 2356 3053 
L 1172 3053 
L 1172 1153 
Q 1172 725 1289 603 
Q 1406 481 1766 481 
L 2356 481 
L 2356 0 
L 1766 0 
Q 1100 0 847 248 
Q 594 497 594 1153 
L 594 3053 
L 172 3053 
L 172 3500 
L 594 3500 
L 594 4494 
L 1172 4494 
z
" transform="scale(0.015625)"/>
       <path id="DejaVuSans-69" d="M 603 3500 
L 1178 3500 
L 1178 0 
L 603 0 
L 603 3500 
z
M 603 4863 
L 1178 4863 
L 1178 4134 
L 603 4134 
L 603 4863 
z
" transform="scale(0.015625)"/>
       <path id="DejaVuSans-6f" d="M 1959 3097 
Q 1497 3097 1228 2736 
Q 959 2375 959 1747 
Q 959 1119 1226 758 
Q 1494 397 1959 397 
Q 2419 397 2687 759 
Q 2956 1122 2956 1747 
Q 2956 2369 2687 2733 
Q 2419 3097 1959 3097 
z
M 1959 3584 
Q 2709 3584 3137 3096 
Q 3566 2609 3566 1747 
Q 3566 888 3137 398 
Q 2709 -91 1959 -91 
Q 1206 -91 779 398 
Q 353 888 353 1747 
Q 353 2609 779 3096 
Q 1206 3584 1959 3584 
z
" transform="scale(0.015625)"/>
       <path id="DejaVuSans-28" d="M 1984 4856 
Q 1566 4138 1362 3434 
Q 1159 2731 1159 2009 
Q 1159 1288 1364 580 
Q 1569 -128 1984 -844 
L 1484 -844 
Q 1016 -109 783 600 
Q 550 1309 550 2009 
Q 550 2706 781 3412 
Q 1013 4119 1484 4856 
L 1984 4856 
z
" transform="scale(0.015625)"/>
       <path id="DejaVuSans-6d" d="M 3328 2828 
Q 3544 3216 3844 3400 
Q 4144 3584 4550 3584 
Q 5097 3584 5394 3201 
Q 5691 2819 5691 2113 
L 5691 0 
L 5113 0 
L 5113 2094 
Q 5113 2597 4934 2840 
Q 4756 3084 4391 3084 
Q 3944 3084 3684 2787 
Q 3425 2491 3425 1978 
L 3425 0 
L 2847 0 
L 2847 2094 
Q 2847 2600 2669 2842 
Q 2491 3084 2119 3084 
Q 1678 3084 1418 2786 
Q 1159 2488 1159 1978 
L 1159 0 
L 581 0 
L 581 3500 
L 1159 3500 
L 1159 2956 
Q 1356 3278 1631 3431 
Q 1906 3584 2284 3584 
Q 2666 3584 2933 3390 
Q 3200 3197 3328 2828 
z
" transform="scale(0.015625)"/>
       <path id="DejaVuSans-29" d="M 513 4856 
L 1013 4856 
Q 1481 4119 1714 3412 
Q 1947 2706 1947 2009 
Q 1947 1309 1714 600 
Q 1481 -109 1013 -844 
L 513 -844 
Q 928 -128 1133 580 
Q 1338 1288 1338 2009 
Q 1338 2731 1133 3434 
Q 928 4138 513 4856 
z
" transform="scale(0.015625)"/>
      </defs>
      <use xlink:href="#DejaVuSans-48"/>
      <use xlink:href="#DejaVuSans-61" x="75.195312"/>
      <use xlink:href="#DejaVuSans-6e" x="136.474609"/>
      <use xlink:href="#DejaVuSans-64" x="199.853516"/>
      <use xlink:href="#DejaVuSans-73" x="263.330078"/>
      <use xlink:href="#DejaVuSans-68" x="315.429688"/>
      <use xlink:href="#DejaVuSans-61" x="378.808594"/>
      <use xlink:href="#DejaVuSans-6b" x="440.087891"/>
      <use xlink:href="#DejaVuSans-65" x="494.373047"/>
      <use xlink:href="#DejaVuSans-20" x="555.896484"/>
      <use xlink:href="#DejaVuSans-64" x="587.683594"/>
      <use xlink:href="#DejaVuSans-75" x="651.160156"/>
      <use xlink:href="#DejaVuSans-72" x="714.539062"/>
      <use xlink:href="#DejaVuSans-61" x="755.652344"/>
      <use xlink:href="#DejaVuSans-74" x="816.931641"/>
      <use xlink:href="#DejaVuSans-69" x="856.140625"/>
      <use xlink:href="#DejaVuSans-6f" x="883.923828"/>
      <use xlink:href="#DejaVuSans-6e" x="945.105469"/>
      <use xlink:href="#DejaVuSans-20" x="1008.484375"/>
      <use xlink:href="#DejaVuSans-28" x="1040.271484"/>
      <use xlink:href="#DejaVuSans-6d" x="1079.285156"/>
      <use xlink:href="#DejaVuSans-73" x="1176.697266"/>
      <use xlink:href="#DejaVuSans-29" x="1228.796875"/>
     </g>
    </g>
   </g>
   <g id="PolyCollection_1">
    <defs>
     <path id="m5a33217943" d="M 138.266813 -75.068081 
L 136.917187 -75.068081 
L 136.467361 -75.344649 
L 135.782226 -75.621216 
L 134.777854 -75.897784 
L 133.360442 -76.174352 
L 131.434707 -76.450919 
L 128.916436 -76.727487 
L 125.748474 -77.004054 
L 121.918299 -77.280622 
L 117.474221 -77.557189 
L 112.536415 -77.833757 
L 107.298943 -78.110324 
L 102.019923 -78.386892 
L 96.999106 -78.663459 
L 92.544981 -78.940027 
L 88.936407 -79.216594 
L 86.385599 -79.493162 
L 85.009497 -79.76973 
L 84.814809 -80.046297 
L 85.698999 -80.322865 
L 87.466201 -80.599432 
L 89.854403 -80.876 
L 92.569059 -81.152567 
L 95.318186 -81.429135 
L 97.844669 -81.705702 
L 99.95216 -81.98227 
L 101.521476 -82.258837 
L 102.514956 -82.535405 
L 102.967398 -82.811972 
L 102.964319 -83.08854 
L 102.611162 -83.365108 
L 102.000022 -83.641675 
L 101.182192 -83.918243 
L 100.154409 -84.19481 
L 98.86361 -84.471378 
L 97.229949 -84.747945 
L 95.182144 -85.024513 
L 92.694879 -85.30108 
L 89.816695 -85.577648 
L 86.67919 -85.854215 
L 83.483974 -86.130783 
L 80.470755 -86.40735 
L 77.875745 -86.683918 
L 75.892213 -86.960485 
L 74.643547 -87.237053 
L 74.1744 -87.513621 
L 74.459333 -87.790188 
L 75.42332 -88.066756 
L 76.966103 -88.343323 
L 78.983234 -88.619891 
L 81.379624 -88.896458 
L 84.074955 -89.173026 
L 87.002941 -89.449593 
L 90.107355 -89.726161 
L 93.337338 -90.002728 
L 96.643452 -90.279296 
L 99.975041 -90.555863 
L 103.279081 -90.832431 
L 106.500691 -91.108999 
L 109.585467 -91.385566 
L 112.483524 -91.662134 
L 115.154569 -91.938701 
L 117.572805 -92.215269 
L 119.730295 -92.491836 
L 121.637669 -92.768404 
L 123.321803 -93.044971 
L 124.820873 -93.321539 
L 126.177805 -93.598106 
L 127.433431 -93.874674 
L 128.620602 -94.151241 
L 129.760209 -94.427809 
L 130.859666 -94.704377 
L 131.913921 -94.980944 
L 132.908623 -95.257512 
L 133.824638 -95.534079 
L 134.642899 -95.810647 
L 135.348563 -96.087214 
L 135.933701 -96.363782 
L 136.398208 -96.640349 
L 136.749082 -96.916917 
L 136.998622 -97.193484 
L 137.162223 -97.470052 
L 137.256375 -97.746619 
L 137.297245 -98.023187 
L 137.2999 -98.299755 
L 137.278026 -98.576322 
L 137.24384 -98.85289 
L 137.207964 -99.129457 
L 137.179111 -99.406025 
L 137.163646 -99.682592 
L 137.165176 -99.95916 
L 137.184391 -100.235727 
L 137.219291 -100.512295 
L 137.265836 -100.788862 
L 137.318877 -101.06543 
L 137.373176 -101.341997 
L 137.424263 -101.618565 
L 137.468987 -101.895133 
L 137.50569 -102.1717 
L 137.534063 -102.448268 
L 137.649937 -102.448268 
L 137.649937 -102.448268 
L 137.67831 -102.1717 
L 137.715013 -101.895133 
L 137.759737 -101.618565 
L 137.810824 -101.341997 
L 137.865123 -101.06543 
L 137.918164 -100.788862 
L 137.964709 -100.512295 
L 137.999609 -100.235727 
L 138.018824 -99.95916 
L 138.020354 -99.682592 
L 138.004889 -99.406025 
L 137.976036 -99.129457 
L 137.94016 -98.85289 
L 137.905974 -98.576322 
L 137.8841 -98.299755 
L 137.886755 -98.023187 
L 137.927625 -97.746619 
L 138.021777 -97.470052 
L 138.185378 -97.193484 
L 138.434918 -96.916917 
L 138.785792 -96.640349 
L 139.250299 -96.363782 
L 139.835437 -96.087214 
L 140.541101 -95.810647 
L 141.359362 -95.534079 
L 142.275377 -95.257512 
L 143.270079 -94.980944 
L 144.324334 -94.704377 
L 145.423791 -94.427809 
L 146.563398 -94.151241 
L 147.750569 -93.874674 
L 149.006195 -93.598106 
L 150.363127 -93.321539 
L 151.862197 -93.044971 
L 153.546331 -92.768404 
L 155.453705 -92.491836 
L 157.611195 -92.215269 
L 160.029431 -91.938701 
L 162.700476 -91.662134 
L 165.598533 -91.385566 
L 168.683309 -91.108999 
L 171.904919 -90.832431 
L 175.208959 -90.555863 
L 178.540548 -90.279296 
L 181.846662 -90.002728 
L 185.076645 -89.726161 
L 188.181059 -89.449593 
L 191.109045 -89.173026 
L 193.804376 -88.896458 
L 196.200766 -88.619891 
L 198.217897 -88.343323 
L 199.76068 -88.066756 
L 200.724667 -87.790188 
L 201.0096 -87.513621 
L 200.540453 -87.237053 
L 199.291787 -86.960485 
L 197.308255 -86.683918 
L 194.713245 -86.40735 
L 191.700026 -86.130783 
L 188.50481 -85.854215 
L 185.367305 -85.577648 
L 182.489121 -85.30108 
L 180.001856 -85.024513 
L 177.954051 -84.747945 
L 176.32039 -84.471378 
L 175.029591 -84.19481 
L 174.001808 -83.918243 
L 173.183978 -83.641675 
L 172.572838 -83.365108 
L 172.219681 -83.08854 
L 172.216602 -82.811972 
L 172.669044 -82.535405 
L 173.662524 -82.258837 
L 175.23184 -81.98227 
L 177.339331 -81.705702 
L 179.865814 -81.429135 
L 182.614941 -81.152567 
L 185.329597 -80.876 
L 187.717799 -80.599432 
L 189.485001 -80.322865 
L 190.369191 -80.046297 
L 190.174503 -79.76973 
L 188.798401 -79.493162 
L 186.247593 -79.216594 
L 182.639019 -78.940027 
L 178.184894 -78.663459 
L 173.164077 -78.386892 
L 167.885057 -78.110324 
L 162.647585 -77.833757 
L 157.709779 -77.557189 
L 153.265701 -77.280622 
L 149.435526 -77.004054 
L 146.267564 -76.727487 
L 143.749293 -76.450919 
L 141.823558 -76.174352 
L 140.406146 -75.897784 
L 139.401774 -75.621216 
L 138.716639 -75.344649 
L 138.266813 -75.068081 
z
" style="stroke: #595959; stroke-width: 1.25"/>
    </defs>
    <g clip-path="url(#p2c3a3c2b20)">
     <use xlink:href="#m5a33217943" x="0" y="432" style="fill: #72b6a1; stroke: #595959; stroke-width: 1.25"/>
    </g>
   </g>
   <g id="PolyCollection_2">
    <defs>
     <path id="mf80b6dd57e" d="M 296.622897 -74.302074 
L 295.649103 -74.302074 
L 295.281953 -74.60726 
L 294.711449 -74.912447 
L 293.873776 -75.217633 
L 292.71131 -75.522819 
L 291.186578 -75.828006 
L 289.296766 -76.133192 
L 287.084871 -76.438378 
L 284.643515 -76.743565 
L 282.108753 -77.048751 
L 279.643572 -77.353937 
L 277.413475 -77.659124 
L 275.558944 -77.96431 
L 274.170898 -78.269496 
L 273.275332 -78.574683 
L 272.831787 -78.879869 
L 272.747213 -79.185055 
L 272.90261 -79.490242 
L 273.185446 -79.795428 
L 273.517937 -80.100614 
L 273.871396 -80.405801 
L 274.260756 -80.710987 
L 274.720243 -81.016173 
L 275.268539 -81.32136 
L 275.876348 -81.626546 
L 276.448619 -81.931732 
L 276.827909 -82.236919 
L 276.816979 -82.542105 
L 276.212009 -82.847292 
L 274.836009 -83.152478 
L 272.565509 -83.457664 
L 269.349666 -83.762851 
L 265.225066 -84.068037 
L 260.328555 -84.373223 
L 254.905125 -84.67841 
L 249.302286 -84.983596 
L 243.941875 -85.288782 
L 239.267149 -85.593969 
L 235.674446 -85.899155 
L 233.44809 -86.204341 
L 232.7184 -86.509528 
L 233.454354 -86.814714 
L 235.489196 -87.1199 
L 238.566168 -87.425087 
L 242.38783 -87.730273 
L 246.656369 -88.035459 
L 251.100051 -88.340646 
L 255.487624 -88.645832 
L 259.635331 -88.951018 
L 263.410397 -89.256205 
L 266.732521 -89.561391 
L 269.573068 -89.866577 
L 271.95113 -90.171764 
L 273.926052 -90.47695 
L 275.586661 -90.782136 
L 277.037889 -91.087323 
L 278.385805 -91.392509 
L 279.722596 -91.697695 
L 281.11368 -92.002882 
L 282.589533 -92.308068 
L 284.144265 -92.613254 
L 285.741489 -92.918441 
L 287.325878 -93.223627 
L 288.8371 -93.528813 
L 290.222262 -93.834 
L 291.44396 -94.139186 
L 292.482996 -94.444373 
L 293.336734 -94.749559 
L 294.015191 -95.054745 
L 294.536854 -95.359932 
L 294.92528 -95.665118 
L 295.206537 -95.970304 
L 295.407004 -96.275491 
L 295.551159 -96.580677 
L 295.659469 -96.885863 
L 295.746869 -97.19105 
L 295.822312 -97.496236 
L 295.889513 -97.801422 
L 295.948547 -98.106609 
L 295.997665 -98.411795 
L 296.034777 -98.716981 
L 296.058279 -99.022168 
L 296.067305 -99.327354 
L 296.061697 -99.63254 
L 296.042024 -99.937727 
L 296.009827 -100.242913 
L 295.968007 -100.548099 
L 295.921121 -100.853286 
L 295.875219 -101.158472 
L 295.837084 -101.463658 
L 295.812923 -101.768845 
L 295.806925 -102.074031 
L 295.82019 -102.379217 
L 295.85046 -102.684404 
L 295.892775 -102.98959 
L 295.940816 -103.294776 
L 295.988438 -103.599963 
L 296.030901 -103.905149 
L 296.06548 -104.210335 
L 296.091421 -104.515522 
L 296.180579 -104.515522 
L 296.180579 -104.515522 
L 296.20652 -104.210335 
L 296.241099 -103.905149 
L 296.283562 -103.599963 
L 296.331184 -103.294776 
L 296.379225 -102.98959 
L 296.42154 -102.684404 
L 296.45181 -102.379217 
L 296.465075 -102.074031 
L 296.459077 -101.768845 
L 296.434916 -101.463658 
L 296.396781 -101.158472 
L 296.350879 -100.853286 
L 296.303993 -100.548099 
L 296.262173 -100.242913 
L 296.229976 -99.937727 
L 296.210303 -99.63254 
L 296.204695 -99.327354 
L 296.213721 -99.022168 
L 296.237223 -98.716981 
L 296.274335 -98.411795 
L 296.323453 -98.106609 
L 296.382487 -97.801422 
L 296.449688 -97.496236 
L 296.525131 -97.19105 
L 296.612531 -96.885863 
L 296.720841 -96.580677 
L 296.864996 -96.275491 
L 297.065463 -95.970304 
L 297.34672 -95.665118 
L 297.735146 -95.359932 
L 298.256809 -95.054745 
L 298.935266 -94.749559 
L 299.789004 -94.444373 
L 300.82804 -94.139186 
L 302.049738 -93.834 
L 303.4349 -93.528813 
L 304.946122 -93.223627 
L 306.530511 -92.918441 
L 308.127735 -92.613254 
L 309.682467 -92.308068 
L 311.15832 -92.002882 
L 312.549404 -91.697695 
L 313.886195 -91.392509 
L 315.234111 -91.087323 
L 316.685339 -90.782136 
L 318.345948 -90.47695 
L 320.32087 -90.171764 
L 322.698932 -89.866577 
L 325.539479 -89.561391 
L 328.861603 -89.256205 
L 332.636669 -88.951018 
L 336.784376 -88.645832 
L 341.171949 -88.340646 
L 345.615631 -88.035459 
L 349.88417 -87.730273 
L 353.705832 -87.425087 
L 356.782804 -87.1199 
L 358.817646 -86.814714 
L 359.5536 -86.509528 
L 358.82391 -86.204341 
L 356.597554 -85.899155 
L 353.004851 -85.593969 
L 348.330125 -85.288782 
L 342.969714 -84.983596 
L 337.366875 -84.67841 
L 331.943445 -84.373223 
L 327.046934 -84.068037 
L 322.922334 -83.762851 
L 319.706491 -83.457664 
L 317.435991 -83.152478 
L 316.059991 -82.847292 
L 315.455021 -82.542105 
L 315.444091 -82.236919 
L 315.823381 -81.931732 
L 316.395652 -81.626546 
L 317.003461 -81.32136 
L 317.551757 -81.016173 
L 318.011244 -80.710987 
L 318.400604 -80.405801 
L 318.754063 -80.100614 
L 319.086554 -79.795428 
L 319.36939 -79.490242 
L 319.524787 -79.185055 
L 319.440213 -78.879869 
L 318.996668 -78.574683 
L 318.101102 -78.269496 
L 316.713056 -77.96431 
L 314.858525 -77.659124 
L 312.628428 -77.353937 
L 310.163247 -77.048751 
L 307.628485 -76.743565 
L 305.187129 -76.438378 
L 302.975234 -76.133192 
L 301.085422 -75.828006 
L 299.56069 -75.522819 
L 298.398224 -75.217633 
L 297.560551 -74.912447 
L 296.990047 -74.60726 
L 296.622897 -74.302074 
z
" style="stroke: #595959; stroke-width: 1.25"/>
    </defs>
    <g clip-path="url(#p2c3a3c2b20)">
     <use xlink:href="#mf80b6dd57e" x="0" y="432" style="fill: #e99675; stroke: #595959; stroke-width: 1.25"/>
    </g>
   </g>
   <g id="PolyCollection_3">
    <defs>
     <path id="m92d86efd30" d="M 454.831036 -124.016756 
L 454.528964 -124.016756 
L 454.427396 -125.950768 
L 454.273459 -127.88478 
L 454.049998 -129.818792 
L 453.739345 -131.752804 
L 453.325893 -133.686816 
L 452.799345 -135.620828 
L 452.158124 -137.55484 
L 451.412168 -139.488852 
L 450.584253 -141.422864 
L 449.709184 -143.356876 
L 448.830625 -145.290888 
L 447.99597 -147.2249 
L 447.250234 -149.158912 
L 446.630303 -151.092924 
L 446.160812 -153.026936 
L 445.852471 -154.960948 
L 445.702966 -156.89496 
L 445.699867 -158.828972 
L 445.82453 -160.762983 
L 446.055876 -162.696995 
L 446.373201 -164.631007 
L 446.75759 -166.565019 
L 447.192041 -168.499031 
L 447.660747 -170.433043 
L 448.148159 -172.367055 
L 448.63843 -174.301067 
L 449.115559 -176.235079 
L 449.564283 -178.169091 
L 449.971414 -180.103103 
L 450.327107 -182.037115 
L 450.625473 -183.971127 
L 450.864051 -185.905139 
L 451.041912 -187.839151 
L 451.156519 -189.773163 
L 451.199884 -191.707175 
L 451.154855 -193.641187 
L 450.992495 -195.575199 
L 450.67135 -197.509211 
L 450.138918 -199.443223 
L 449.33501 -201.377235 
L 448.196032 -203.311247 
L 446.65905 -205.245259 
L 444.664828 -207.179271 
L 442.160055 -209.113283 
L 439.100205 -211.047294 
L 435.455269 -212.981306 
L 431.220274 -214.915318 
L 426.430651 -216.84933 
L 421.179568 -218.783342 
L 415.63144 -220.717354 
L 410.024521 -222.651366 
L 404.656886 -224.585378 
L 399.85448 -226.51939 
L 395.925846 -228.453402 
L 393.113565 -230.387414 
L 391.554892 -232.321426 
L 391.2624 -234.255438 
L 392.129868 -236.18945 
L 393.961214 -238.123462 
L 396.513691 -240.057474 
L 399.543134 -241.991486 
L 402.839901 -243.925498 
L 406.24847 -245.85951 
L 409.669615 -247.793522 
L 413.049336 -249.727534 
L 416.3615 -251.661546 
L 419.591109 -253.595558 
L 422.722766 -255.52957 
L 425.735793 -257.463582 
L 428.604893 -259.397594 
L 431.303916 -261.331605 
L 433.810364 -263.265617 
L 436.109034 -265.199629 
L 438.194135 -267.133641 
L 440.069817 -269.067653 
L 441.749278 -271.001665 
L 443.252637 -272.935677 
L 444.603839 -274.869689 
L 445.827025 -276.803701 
L 446.943039 -278.737713 
L 447.966856 -280.671725 
L 448.906577 -282.605737 
L 449.764223 -284.539749 
L 450.538001 -286.473761 
L 451.22527 -288.407773 
L 451.825235 -290.341785 
L 452.340567 -292.275797 
L 452.777612 -294.209809 
L 453.145373 -296.143821 
L 453.453842 -298.077833 
L 453.712379 -300.011845 
L 453.928665 -301.945857 
L 454.108431 -303.879869 
L 454.255833 -305.813881 
L 454.374151 -307.747893 
L 454.466461 -309.681904 
L 454.536053 -311.615916 
L 454.586527 -313.549928 
L 454.621638 -315.48394 
L 454.738362 -315.48394 
L 454.738362 -315.48394 
L 454.773473 -313.549928 
L 454.823947 -311.615916 
L 454.893539 -309.681904 
L 454.985849 -307.747893 
L 455.104167 -305.813881 
L 455.251569 -303.879869 
L 455.431335 -301.945857 
L 455.647621 -300.011845 
L 455.906158 -298.077833 
L 456.214627 -296.143821 
L 456.582388 -294.209809 
L 457.019433 -292.275797 
L 457.534765 -290.341785 
L 458.13473 -288.407773 
L 458.821999 -286.473761 
L 459.595777 -284.539749 
L 460.453423 -282.605737 
L 461.393144 -280.671725 
L 462.416961 -278.737713 
L 463.532975 -276.803701 
L 464.756161 -274.869689 
L 466.107363 -272.935677 
L 467.610722 -271.001665 
L 469.290183 -269.067653 
L 471.165865 -267.133641 
L 473.250966 -265.199629 
L 475.549636 -263.265617 
L 478.056084 -261.331605 
L 480.755107 -259.397594 
L 483.624207 -257.463582 
L 486.637234 -255.52957 
L 489.768891 -253.595558 
L 492.9985 -251.661546 
L 496.310664 -249.727534 
L 499.690385 -247.793522 
L 503.11153 -245.85951 
L 506.520099 -243.925498 
L 509.816866 -241.991486 
L 512.846309 -240.057474 
L 515.398786 -238.123462 
L 517.230132 -236.18945 
L 518.0976 -234.255438 
L 517.805108 -232.321426 
L 516.246435 -230.387414 
L 513.434154 -228.453402 
L 509.50552 -226.51939 
L 504.703114 -224.585378 
L 499.335479 -222.651366 
L 493.72856 -220.717354 
L 488.180432 -218.783342 
L 482.929349 -216.84933 
L 478.139726 -214.915318 
L 473.904731 -212.981306 
L 470.259795 -211.047294 
L 467.199945 -209.113283 
L 464.695172 -207.179271 
L 462.70095 -205.245259 
L 461.163968 -203.311247 
L 460.02499 -201.377235 
L 459.221082 -199.443223 
L 458.68865 -197.509211 
L 458.367505 -195.575199 
L 458.205145 -193.641187 
L 458.160116 -191.707175 
L 458.203481 -189.773163 
L 458.318088 -187.839151 
L 458.495949 -185.905139 
L 458.734527 -183.971127 
L 459.032893 -182.037115 
L 459.388586 -180.103103 
L 459.795717 -178.169091 
L 460.244441 -176.235079 
L 460.72157 -174.301067 
L 461.211841 -172.367055 
L 461.699253 -170.433043 
L 462.167959 -168.499031 
L 462.60241 -166.565019 
L 462.986799 -164.631007 
L 463.304124 -162.696995 
L 463.53547 -160.762983 
L 463.660133 -158.828972 
L 463.657034 -156.89496 
L 463.507529 -154.960948 
L 463.199188 -153.026936 
L 462.729697 -151.092924 
L 462.109766 -149.158912 
L 461.36403 -147.2249 
L 460.529375 -145.290888 
L 459.650816 -143.356876 
L 458.775747 -141.422864 
L 457.947832 -139.488852 
L 457.201876 -137.55484 
L 456.560655 -135.620828 
L 456.034107 -133.686816 
L 455.620655 -131.752804 
L 455.310002 -129.818792 
L 455.086541 -127.88478 
L 454.932604 -125.950768 
L 454.831036 -124.016756 
z
" style="stroke: #595959; stroke-width: 1.25"/>
    </defs>
    <g clip-path="url(#p2c3a3c2b20)">
     <use xlink:href="#m92d86efd30" x="0" y="432" style="fill: #95a3c3; stroke: #595959; stroke-width: 1.25"/>
    </g>
   </g>
   <g id="PolyCollection_4">
    <defs>
     <path id="meb635cd6c1" d="M 613.413911 -142.861166 
L 613.034089 -142.861166 
L 612.891174 -145.344195 
L 612.67123 -147.827225 
L 612.352944 -150.310254 
L 611.91984 -152.793283 
L 611.365709 -155.276312 
L 610.699198 -157.759341 
L 609.945868 -160.24237 
L 609.146616 -162.725399 
L 608.352552 -165.208429 
L 607.617655 -167.691458 
L 606.991236 -170.174487 
L 606.51193 -172.657516 
L 606.204001 -175.140545 
L 606.075647 -177.623574 
L 606.118538 -180.106603 
L 606.308102 -182.589632 
L 606.604773 -185.072662 
L 606.956902 -187.555691 
L 607.305859 -190.03872 
L 607.593103 -192.521749 
L 607.768143 -195.004778 
L 607.795879 -197.487807 
L 607.661972 -199.970836 
L 607.375433 -202.453866 
L 606.968023 -204.936895 
L 606.490232 -207.419924 
L 606.003723 -209.902953 
L 605.570657 -212.385982 
L 605.241518 -214.869011 
L 605.044268 -217.35204 
L 604.978106 -219.83507 
L 605.013855 -222.318099 
L 605.100421 -224.801128 
L 605.174073 -227.284157 
L 605.166077 -229.767186 
L 605.005466 -232.250215 
L 604.616931 -234.733244 
L 603.917362 -237.216274 
L 602.816479 -239.699303 
L 601.225993 -242.182332 
L 599.077853 -244.665361 
L 596.346883 -247.14839 
L 593.068784 -249.631419 
L 589.343651 -252.114448 
L 585.319063 -254.597478 
L 581.154956 -257.080507 
L 576.98187 -259.563536 
L 572.870411 -262.046565 
L 568.828876 -264.529594 
L 564.836394 -267.012623 
L 560.90351 -269.495652 
L 557.136996 -271.978682 
L 553.778714 -274.461711 
L 551.194379 -276.94474 
L 549.8064 -279.427769 
L 549.988283 -281.910798 
L 551.955802 -284.393827 
L 555.693591 -286.876856 
L 560.943039 -289.359886 
L 567.254226 -291.842915 
L 574.081866 -294.325944 
L 580.892429 -296.808973 
L 587.250924 -299.292002 
L 592.86827 -301.775031 
L 597.606677 -304.25806 
L 601.453548 -306.74109 
L 604.480317 -309.224119 
L 606.801265 -311.707148 
L 608.541833 -314.190177 
L 609.819548 -316.673206 
L 610.73602 -319.156235 
L 611.376192 -321.639264 
L 611.810834 -324.122293 
L 612.099313 -326.605323 
L 612.291114 -329.088352 
L 612.425893 -331.571381 
L 612.532778 -334.05441 
L 612.62997 -336.537439 
L 612.725496 -339.020468 
L 612.819342 -341.503497 
L 612.906547 -343.986527 
L 612.98046 -346.469556 
L 613.035359 -348.952585 
L 613.068057 -351.435614 
L 613.078495 -353.918643 
L 613.069632 -356.401672 
L 613.046927 -358.884701 
L 613.017528 -361.367731 
L 612.9892 -363.85076 
L 612.969031 -366.333789 
L 612.962121 -368.816818 
L 612.970615 -371.299847 
L 612.993434 -373.782876 
L 613.026829 -376.265905 
L 613.065584 -378.748935 
L 613.104433 -381.231964 
L 613.139227 -383.714993 
L 613.167541 -386.198022 
L 613.188679 -388.681051 
L 613.259321 -388.681051 
L 613.259321 -388.681051 
L 613.280459 -386.198022 
L 613.308773 -383.714993 
L 613.343567 -381.231964 
L 613.382416 -378.748935 
L 613.421171 -376.265905 
L 613.454566 -373.782876 
L 613.477385 -371.299847 
L 613.485879 -368.816818 
L 613.478969 -366.333789 
L 613.4588 -363.85076 
L 613.430472 -361.367731 
L 613.401073 -358.884701 
L 613.378368 -356.401672 
L 613.369505 -353.918643 
L 613.379943 -351.435614 
L 613.412641 -348.952585 
L 613.46754 -346.469556 
L 613.541453 -343.986527 
L 613.628658 -341.503497 
L 613.722504 -339.020468 
L 613.81803 -336.537439 
L 613.915222 -334.05441 
L 614.022107 -331.571381 
L 614.156886 -329.088352 
L 614.348687 -326.605323 
L 614.637166 -324.122293 
L 615.071808 -321.639264 
L 615.71198 -319.156235 
L 616.628452 -316.673206 
L 617.906167 -314.190177 
L 619.646735 -311.707148 
L 621.967683 -309.224119 
L 624.994452 -306.74109 
L 628.841323 -304.25806 
L 633.57973 -301.775031 
L 639.197076 -299.292002 
L 645.555571 -296.808973 
L 652.366134 -294.325944 
L 659.193774 -291.842915 
L 665.504961 -289.359886 
L 670.754409 -286.876856 
L 674.492198 -284.393827 
L 676.459717 -281.910798 
L 676.6416 -279.427769 
L 675.253621 -276.94474 
L 672.669286 -274.461711 
L 669.311004 -271.978682 
L 665.54449 -269.495652 
L 661.611606 -267.012623 
L 657.619124 -264.529594 
L 653.577589 -262.046565 
L 649.46613 -259.563536 
L 645.293044 -257.080507 
L 641.128937 -254.597478 
L 637.104349 -252.114448 
L 633.379216 -249.631419 
L 630.101117 -247.14839 
L 627.370147 -244.665361 
L 625.222007 -242.182332 
L 623.631521 -239.699303 
L 622.530638 -237.216274 
L 621.831069 -234.733244 
L 621.442534 -232.250215 
L 621.281923 -229.767186 
L 621.273927 -227.284157 
L 621.347579 -224.801128 
L 621.434145 -222.318099 
L 621.469894 -219.83507 
L 621.403732 -217.35204 
L 621.206482 -214.869011 
L 620.877343 -212.385982 
L 620.444277 -209.902953 
L 619.957768 -207.419924 
L 619.479977 -204.936895 
L 619.072567 -202.453866 
L 618.786028 -199.970836 
L 618.652121 -197.487807 
L 618.679857 -195.004778 
L 618.854897 -192.521749 
L 619.142141 -190.03872 
L 619.491098 -187.555691 
L 619.843227 -185.072662 
L 620.139898 -182.589632 
L 620.329462 -180.106603 
L 620.372353 -177.623574 
L 620.243999 -175.140545 
L 619.93607 -172.657516 
L 619.456764 -170.174487 
L 618.830345 -167.691458 
L 618.095448 -165.208429 
L 617.301384 -162.725399 
L 616.502132 -160.24237 
L 615.748802 -157.759341 
L 615.082291 -155.276312 
L 614.52816 -152.793283 
L 614.095056 -150.310254 
L 613.77677 -147.827225 
L 613.556826 -145.344195 
L 613.413911 -142.861166 
z
" style="stroke: #595959; stroke-width: 1.25"/>
    </defs>
    <g clip-path="url(#p2c3a3c2b20)">
     <use xlink:href="#meb635cd6c1" x="0" y="432" style="fill: #db96c0; stroke: #595959; stroke-width: 1.25"/>
    </g>
   </g>
   <g id="PolyCollection_5">
    <defs>
     <path id="mb3d26f9591" d="M 771.891575 -126.760142 
L 771.644425 -126.760142 
L 771.545442 -128.660931 
L 771.386004 -130.561719 
L 771.142961 -132.462508 
L 770.792709 -134.363296 
L 770.316195 -136.264085 
L 769.705299 -138.164874 
L 768.969134 -140.065662 
L 768.138181 -141.966451 
L 767.26417 -143.86724 
L 766.414576 -145.768028 
L 765.662261 -147.668817 
L 765.072624 -149.569605 
L 764.691731 -151.470394 
L 764.538721 -153.371183 
L 764.604302 -155.271971 
L 764.855094 -157.17276 
L 765.241833 -159.073549 
L 765.708832 -160.974337 
L 766.202539 -162.875126 
L 766.678013 -164.775914 
L 767.102962 -166.676703 
L 767.459269 -168.577492 
L 767.741907 -170.47828 
L 767.955299 -172.379069 
L 768.107752 -174.279858 
L 768.205441 -176.180646 
L 768.247932 -178.081435 
L 768.227019 -179.982223 
L 768.129454 -181.883012 
L 767.942594 -183.783801 
L 767.660705 -185.684589 
L 767.289231 -187.585378 
L 766.845081 -189.486167 
L 766.352352 -191.386955 
L 765.834483 -193.287744 
L 765.304938 -195.188532 
L 764.758918 -197.089321 
L 764.168393 -198.99011 
L 763.482117 -200.890898 
L 762.6312 -202.791687 
L 761.539365 -204.692476 
L 760.135208 -206.593264 
L 758.362308 -208.494053 
L 756.182997 -210.394841 
L 753.573763 -212.29563 
L 750.514627 -214.196419 
L 746.979643 -216.097207 
L 742.938123 -217.997996 
L 738.373951 -219.898785 
L 733.322854 -221.799573 
L 727.917306 -223.700362 
L 722.420459 -225.60115 
L 717.229094 -227.501939 
L 712.833319 -229.402728 
L 709.735875 -231.303516 
L 708.3504 -233.204305 
L 708.908553 -235.105094 
L 711.405134 -237.005882 
L 715.598115 -238.906671 
L 721.06195 -240.807459 
L 727.275626 -242.708248 
L 733.718354 -244.609037 
L 739.947867 -246.509825 
L 745.646379 -248.410614 
L 750.631773 -250.311403 
L 754.841491 -252.212191 
L 758.301195 -254.11298 
L 761.089832 -256.013768 
L 763.309279 -257.914557 
L 765.062544 -259.815346 
L 766.441059 -261.716134 
L 767.519456 -263.616923 
L 768.355472 -265.517712 
L 768.992725 -267.4185 
L 769.464713 -269.319289 
L 769.798958 -271.220077 
L 770.02059 -273.120866 
L 770.154819 -275.021655 
L 770.227832 -276.922443 
L 770.26598 -278.823232 
L 770.293587 -280.724021 
L 770.330213 -282.624809 
L 770.388412 -284.525598 
L 770.472857 -286.426386 
L 770.581146 -288.327175 
L 770.706015 -290.227964 
L 770.838202 -292.128752 
L 770.969079 -294.029541 
L 771.09238 -295.93033 
L 771.20474 -297.831118 
L 771.305211 -299.731907 
L 771.394237 -301.632695 
L 771.472612 -303.533484 
L 771.540842 -305.434273 
L 771.599012 -307.335061 
L 771.647051 -309.23585 
L 771.6851 -311.136639 
L 771.713791 -313.037427 
L 771.73428 -314.938216 
L 771.80172 -314.938216 
L 771.80172 -314.938216 
L 771.822209 -313.037427 
L 771.8509 -311.136639 
L 771.888949 -309.23585 
L 771.936988 -307.335061 
L 771.995158 -305.434273 
L 772.063388 -303.533484 
L 772.141763 -301.632695 
L 772.230789 -299.731907 
L 772.33126 -297.831118 
L 772.44362 -295.93033 
L 772.566921 -294.029541 
L 772.697798 -292.128752 
L 772.829985 -290.227964 
L 772.954854 -288.327175 
L 773.063143 -286.426386 
L 773.147588 -284.525598 
L 773.205787 -282.624809 
L 773.242413 -280.724021 
L 773.27002 -278.823232 
L 773.308168 -276.922443 
L 773.381181 -275.021655 
L 773.51541 -273.120866 
L 773.737042 -271.220077 
L 774.071287 -269.319289 
L 774.543275 -267.4185 
L 775.180528 -265.517712 
L 776.016544 -263.616923 
L 777.094941 -261.716134 
L 778.473456 -259.815346 
L 780.226721 -257.914557 
L 782.446168 -256.013768 
L 785.234805 -254.11298 
L 788.694509 -252.212191 
L 792.904227 -250.311403 
L 797.889621 -248.410614 
L 803.588133 -246.509825 
L 809.817646 -244.609037 
L 816.260374 -242.708248 
L 822.47405 -240.807459 
L 827.937885 -238.906671 
L 832.130866 -237.005882 
L 834.627447 -235.105094 
L 835.1856 -233.204305 
L 833.800125 -231.303516 
L 830.702681 -229.402728 
L 826.306906 -227.501939 
L 821.115541 -225.60115 
L 815.618694 -223.700362 
L 810.213146 -221.799573 
L 805.162049 -219.898785 
L 800.597877 -217.997996 
L 796.556357 -216.097207 
L 793.021373 -214.196419 
L 789.962237 -212.29563 
L 787.353003 -210.394841 
L 785.173692 -208.494053 
L 783.400792 -206.593264 
L 781.996635 -204.692476 
L 780.9048 -202.791687 
L 780.053883 -200.890898 
L 779.367607 -198.99011 
L 778.777082 -197.089321 
L 778.231062 -195.188532 
L 777.701517 -193.287744 
L 777.183648 -191.386955 
L 776.690919 -189.486167 
L 776.246769 -187.585378 
L 775.875295 -185.684589 
L 775.593406 -183.783801 
L 775.406546 -181.883012 
L 775.308981 -179.982223 
L 775.288068 -178.081435 
L 775.330559 -176.180646 
L 775.428248 -174.279858 
L 775.580701 -172.379069 
L 775.794093 -170.47828 
L 776.076731 -168.577492 
L 776.433038 -166.676703 
L 776.857987 -164.775914 
L 777.333461 -162.875126 
L 777.827168 -160.974337 
L 778.294167 -159.073549 
L 778.680906 -157.17276 
L 778.931698 -155.271971 
L 778.997279 -153.371183 
L 778.844269 -151.470394 
L 778.463376 -149.569605 
L 777.873739 -147.668817 
L 777.121424 -145.768028 
L 776.27183 -143.86724 
L 775.397819 -141.966451 
L 774.566866 -140.065662 
L 773.830701 -138.164874 
L 773.219805 -136.264085 
L 772.743291 -134.363296 
L 772.393039 -132.462508 
L 772.149996 -130.561719 
L 771.990558 -128.660931 
L 771.891575 -126.760142 
z
" style="stroke: #595959; stroke-width: 1.25"/>
    </defs>
    <g clip-path="url(#p2c3a3c2b20)">
     <use xlink:href="#mb3d26f9591" x="0" y="432" style="fill: #a2c865; stroke: #595959; stroke-width: 1.25"/>
    </g>
   </g>
   <g id="line2d_7">
    <path d="M 137.592 351.078223 
L 137.592 354.302423 
" clip-path="url(#p2c3a3c2b20)" style="fill: none; stroke: #000000"/>
   </g>
   <g id="line2d_8">
    <path d="M 137.592 343.37195 
L 137.592 332.181228 
" clip-path="url(#p2c3a3c2b20)" style="fill: none; stroke: #000000"/>
   </g>
   <g id="line2d_9">
    <path d="M 131.6466 354.302423 
L 143.5374 354.302423 
" clip-path="url(#p2c3a3c2b20)" style="fill: none; stroke: #000000; stroke-linecap: round"/>
   </g>
   <g id="line2d_10">
    <path d="M 131.6466 332.181228 
L 143.5374 332.181228 
" clip-path="url(#p2c3a3c2b20)" style="fill: none; stroke: #000000; stroke-linecap: round"/>
   </g>
   <g id="line2d_11">
    <path d="M 296.136 349.82758 
L 296.136 355.198837 
" clip-path="url(#p2c3a3c2b20)" style="fill: none; stroke: #000000"/>
   </g>
   <g id="line2d_12">
    <path d="M 296.136 344.116552 
L 296.136 337.617548 
" clip-path="url(#p2c3a3c2b20)" style="fill: none; stroke: #000000"/>
   </g>
   <g id="line2d_13">
    <path d="M 290.1906 355.198837 
L 302.0814 355.198837 
" clip-path="url(#p2c3a3c2b20)" style="fill: none; stroke: #000000; stroke-linecap: round"/>
   </g>
   <g id="line2d_14">
    <path d="M 290.1906 337.617548 
L 302.0814 337.617548 
" clip-path="url(#p2c3a3c2b20)" style="fill: none; stroke: #000000; stroke-linecap: round"/>
   </g>
   <g id="line2d_15">
    <path d="M 454.68 206.357896 
L 454.68 239.301126 
" clip-path="url(#p2c3a3c2b20)" style="fill: none; stroke: #000000"/>
   </g>
   <g id="line2d_16">
    <path d="M 454.68 184.092118 
L 454.68 150.903096 
" clip-path="url(#p2c3a3c2b20)" style="fill: none; stroke: #000000"/>
   </g>
   <g id="line2d_17">
    <path d="M 448.7346 239.301126 
L 460.6254 239.301126 
" clip-path="url(#p2c3a3c2b20)" style="fill: none; stroke: #000000; stroke-linecap: round"/>
   </g>
   <g id="line2d_18">
    <path d="M 448.7346 150.903096 
L 460.6254 150.903096 
" clip-path="url(#p2c3a3c2b20)" style="fill: none; stroke: #000000; stroke-linecap: round"/>
   </g>
   <g id="line2d_19">
    <path d="M 613.224 174.679766 
L 613.224 214.98227 
" clip-path="url(#p2c3a3c2b20)" style="fill: none; stroke: #000000"/>
   </g>
   <g id="line2d_20">
    <path d="M 613.224 147.628292 
L 613.224 112.877774 
" clip-path="url(#p2c3a3c2b20)" style="fill: none; stroke: #000000"/>
   </g>
   <g id="line2d_21">
    <path d="M 607.2786 214.98227 
L 619.1694 214.98227 
" clip-path="url(#p2c3a3c2b20)" style="fill: none; stroke: #000000; stroke-linecap: round"/>
   </g>
   <g id="line2d_22">
    <path d="M 607.2786 112.877774 
L 619.1694 112.877774 
" clip-path="url(#p2c3a3c2b20)" style="fill: none; stroke: #000000; stroke-linecap: round"/>
   </g>
   <g id="line2d_23">
    <path d="M 771.768 213.066546 
L 771.768 239.127626 
" clip-path="url(#p2c3a3c2b20)" style="fill: none; stroke: #000000"/>
   </g>
   <g id="line2d_24">
    <path d="M 771.768 194.798487 
L 771.768 167.501221 
" clip-path="url(#p2c3a3c2b20)" style="fill: none; stroke: #000000"/>
   </g>
   <g id="line2d_25">
    <path d="M 765.8226 239.127626 
L 777.7134 239.127626 
" clip-path="url(#p2c3a3c2b20)" style="fill: none; stroke: #000000; stroke-linecap: round"/>
   </g>
   <g id="line2d_26">
    <path d="M 765.8226 167.501221 
L 777.7134 167.501221 
" clip-path="url(#p2c3a3c2b20)" style="fill: none; stroke: #000000; stroke-linecap: round"/>
   </g>
   <g id="line2d_27">
    <path d="M 125.7012 345.641903 
L 149.4828 345.641903 
" clip-path="url(#p2c3a3c2b20)" style="fill: none; stroke: #ff0000; stroke-width: 2"/>
   </g>
   <g id="line2d_28">
    <path d="M 284.2452 346.00336 
L 308.0268 346.00336 
" clip-path="url(#p2c3a3c2b20)" style="fill: none; stroke: #ff0000; stroke-width: 2"/>
   </g>
   <g id="line2d_29">
    <path d="M 442.7892 198.297395 
L 466.5708 198.297395 
" clip-path="url(#p2c3a3c2b20)" style="fill: none; stroke: #ff0000; stroke-width: 2"/>
   </g>
   <g id="line2d_30">
    <path d="M 601.3332 156.180375 
L 625.1148 156.180375 
" clip-path="url(#p2c3a3c2b20)" style="fill: none; stroke: #ff0000; stroke-width: 2"/>
   </g>
   <g id="line2d_31">
    <path d="M 759.8772 199.815516 
L 783.6588 199.815516 
" clip-path="url(#p2c3a3c2b20)" style="fill: none; stroke: #ff0000; stroke-width: 2"/>
   </g>
   <g id="patch_3">
    <path d="M 58.32 373.416875 
L 58.32 27.6 
" style="fill: none; stroke: #cccccc; stroke-width: 1.25; stroke-linejoin: miter; stroke-linecap: square"/>
   </g>
   <g id="patch_4">
    <path d="M 851.04 373.416875 
L 851.04 27.6 
" style="fill: none; stroke: #cccccc; stroke-width: 1.25; stroke-linejoin: miter; stroke-linecap: square"/>
   </g>
   <g id="patch_5">
    <path d="M 58.32 373.416875 
L 851.04 373.416875 
" style="fill: none; stroke: #cccccc; stroke-width: 1.25; stroke-linejoin: miter; stroke-linecap: square"/>
   </g>
   <g id="patch_6">
    <path d="M 58.32 27.6 
L 851.04 27.6 
" style="fill: none; stroke: #cccccc; stroke-width: 1.25; stroke-linejoin: miter; stroke-linecap: square"/>
   </g>
   <g id="text_13">
    <!-- Handshake duration on TLS with ed25519 signature algorithm — ideal conditions -->
    <g style="fill: #262626" transform="translate(210.807187 21.6) scale(0.12 -0.12)">
     <defs>
      <path id="DejaVuSans-54" d="M -19 4666 
L 3928 4666 
L 3928 4134 
L 2272 4134 
L 2272 0 
L 1638 0 
L 1638 4134 
L -19 4134 
L -19 4666 
z
" transform="scale(0.015625)"/>
      <path id="DejaVuSans-4c" d="M 628 4666 
L 1259 4666 
L 1259 531 
L 3531 531 
L 3531 0 
L 628 0 
L 628 4666 
z
" transform="scale(0.015625)"/>
      <path id="DejaVuSans-53" d="M 3425 4513 
L 3425 3897 
Q 3066 4069 2747 4153 
Q 2428 4238 2131 4238 
Q 1616 4238 1336 4038 
Q 1056 3838 1056 3469 
Q 1056 3159 1242 3001 
Q 1428 2844 1947 2747 
L 2328 2669 
Q 3034 2534 3370 2195 
Q 3706 1856 3706 1288 
Q 3706 609 3251 259 
Q 2797 -91 1919 -91 
Q 1588 -91 1214 -16 
Q 841 59 441 206 
L 441 856 
Q 825 641 1194 531 
Q 1563 422 1919 422 
Q 2459 422 2753 634 
Q 3047 847 3047 1241 
Q 3047 1584 2836 1778 
Q 2625 1972 2144 2069 
L 1759 2144 
Q 1053 2284 737 2584 
Q 422 2884 422 3419 
Q 422 4038 858 4394 
Q 1294 4750 2059 4750 
Q 2388 4750 2728 4690 
Q 3069 4631 3425 4513 
z
" transform="scale(0.015625)"/>
      <path id="DejaVuSans-77" d="M 269 3500 
L 844 3500 
L 1563 769 
L 2278 3500 
L 2956 3500 
L 3675 769 
L 4391 3500 
L 4966 3500 
L 4050 0 
L 3372 0 
L 2619 2869 
L 1863 0 
L 1184 0 
L 269 3500 
z
" transform="scale(0.015625)"/>
      <path id="DejaVuSans-67" d="M 2906 1791 
Q 2906 2416 2648 2759 
Q 2391 3103 1925 3103 
Q 1463 3103 1205 2759 
Q 947 2416 947 1791 
Q 947 1169 1205 825 
Q 1463 481 1925 481 
Q 2391 481 2648 825 
Q 2906 1169 2906 1791 
z
M 3481 434 
Q 3481 -459 3084 -895 
Q 2688 -1331 1869 -1331 
Q 1566 -1331 1297 -1286 
Q 1028 -1241 775 -1147 
L 775 -588 
Q 1028 -725 1275 -790 
Q 1522 -856 1778 -856 
Q 2344 -856 2625 -561 
Q 2906 -266 2906 331 
L 2906 616 
Q 2728 306 2450 153 
Q 2172 0 1784 0 
Q 1141 0 747 490 
Q 353 981 353 1791 
Q 353 2603 747 3093 
Q 1141 3584 1784 3584 
Q 2172 3584 2450 3431 
Q 2728 3278 2906 2969 
L 2906 3500 
L 3481 3500 
L 3481 434 
z
" transform="scale(0.015625)"/>
      <path id="DejaVuSans-6c" d="M 603 4863 
L 1178 4863 
L 1178 0 
L 603 0 
L 603 4863 
z
" transform="scale(0.015625)"/>
      <path id="DejaVuSans-2014" d="M 313 1978 
L 6088 1978 
L 6088 1528 
L 313 1528 
L 313 1978 
z
" transform="scale(0.015625)"/>
     </defs>
     <use xlink:href="#DejaVuSans-48"/>
     <use xlink:href="#DejaVuSans-61" x="75.195312"/>
     <use xlink:href="#DejaVuSans-6e" x="136.474609"/>
     <use xlink:href="#DejaVuSans-64" x="199.853516"/>
     <use xlink:href="#DejaVuSans-73" x="263.330078"/>
     <use xlink:href="#DejaVuSans-68" x="315.429688"/>
     <use xlink:href="#DejaVuSans-61" x="378.808594"/>
     <use xlink:href="#DejaVuSans-6b" x="440.087891"/>
     <use xlink:href="#DejaVuSans-65" x="494.373047"/>
     <use xlink:href="#DejaVuSans-20" x="555.896484"/>
     <use xlink:href="#DejaVuSans-64" x="587.683594"/>
     <use xlink:href="#DejaVuSans-75" x="651.160156"/>
     <use xlink:href="#DejaVuSans-72" x="714.539062"/>
     <use xlink:href="#DejaVuSans-61" x="755.652344"/>
     <use xlink:href="#DejaVuSans-74" x="816.931641"/>
     <use xlink:href="#DejaVuSans-69" x="856.140625"/>
     <use xlink:href="#DejaVuSans-6f" x="883.923828"/>
     <use xlink:href="#DejaVuSans-6e" x="945.105469"/>
     <use xlink:href="#DejaVuSans-20" x="1008.484375"/>
     <use xlink:href="#DejaVuSans-6f" x="1040.271484"/>
     <use xlink:href="#DejaVuSans-6e" x="1101.453125"/>
     <use xlink:href="#DejaVuSans-20" x="1164.832031"/>
     <use xlink:href="#DejaVuSans-54" x="1196.619141"/>
     <use xlink:href="#DejaVuSans-4c" x="1257.703125"/>
     <use xlink:href="#DejaVuSans-53" x="1313.416016"/>
     <use xlink:href="#DejaVuSans-20" x="1376.892578"/>
     <use xlink:href="#DejaVuSans-77" x="1408.679688"/>
     <use xlink:href="#DejaVuSans-69" x="1490.466797"/>
     <use xlink:href="#DejaVuSans-74" x="1518.25"/>
     <use xlink:href="#DejaVuSans-68" x="1557.458984"/>
     <use xlink:href="#DejaVuSans-20" x="1620.837891"/>
     <use xlink:href="#DejaVuSans-65" x="1652.625"/>
     <use xlink:href="#DejaVuSans-64" x="1714.148438"/>
     <use xlink:href="#DejaVuSans-32" x="1777.625"/>
     <use xlink:href="#DejaVuSans-35" x="1841.248047"/>
     <use xlink:href="#DejaVuSans-35" x="1904.871094"/>
     <use xlink:href="#DejaVuSans-31" x="1968.494141"/>
     <use xlink:href="#DejaVuSans-39" x="2032.117188"/>
     <use xlink:href="#DejaVuSans-20" x="2095.740234"/>
     <use xlink:href="#DejaVuSans-73" x="2127.527344"/>
     <use xlink:href="#DejaVuSans-69" x="2179.626953"/>
     <use xlink:href="#DejaVuSans-67" x="2207.410156"/>
     <use xlink:href="#DejaVuSans-6e" x="2270.886719"/>
     <use xlink:href="#DejaVuSans-61" x="2334.265625"/>
     <use xlink:href="#DejaVuSans-74" x="2395.544922"/>
     <use xlink:href="#DejaVuSans-75" x="2434.753906"/>
     <use xlink:href="#DejaVuSans-72" x="2498.132812"/>
     <use xlink:href="#DejaVuSans-65" x="2536.996094"/>
     <use xlink:href="#DejaVuSans-20" x="2598.519531"/>
     <use xlink:href="#DejaVuSans-61" x="2630.306641"/>
     <use xlink:href="#DejaVuSans-6c" x="2691.585938"/>
     <use xlink:href="#DejaVuSans-67" x="2719.369141"/>
     <use xlink:href="#DejaVuSans-6f" x="2782.845703"/>
     <use xlink:href="#DejaVuSans-72" x="2844.027344"/>
     <use xlink:href="#DejaVuSans-69" x="2885.140625"/>
     <use xlink:href="#DejaVuSans-74" x="2912.923828"/>
     <use xlink:href="#DejaVuSans-68" x="2952.132812"/>
     <use xlink:href="#DejaVuSans-6d" x="3015.511719"/>
     <use xlink:href="#DejaVuSans-20" x="3112.923828"/>
     <use xlink:href="#DejaVuSans-2014" x="3144.710938"/>
     <use xlink:href="#DejaVuSans-20" x="3244.710938"/>
     <use xlink:href="#DejaVuSans-69" x="3276.498047"/>
     <use xlink:href="#DejaVuSans-64" x="3304.28125"/>
     <use xlink:href="#DejaVuSans-65" x="3367.757812"/>
     <use xlink:href="#DejaVuSans-61" x="3429.28125"/>
     <use xlink:href="#DejaVuSans-6c" x="3490.560547"/>
     <use xlink:href="#DejaVuSans-20" x="3518.34375"/>
     <use xlink:href="#DejaVuSans-63" x="3550.130859"/>
     <use xlink:href="#DejaVuSans-6f" x="3605.111328"/>
     <use xlink:href="#DejaVuSans-6e" x="3666.292969"/>
     <use xlink:href="#DejaVuSans-64" x="3729.671875"/>
     <use xlink:href="#DejaVuSans-69" x="3793.148438"/>
     <use xlink:href="#DejaVuSans-74" x="3820.931641"/>
     <use xlink:href="#DejaVuSans-69" x="3860.140625"/>
     <use xlink:href="#DejaVuSans-6f" x="3887.923828"/>
     <use xlink:href="#DejaVuSans-6e" x="3949.105469"/>
     <use xlink:href="#DejaVuSans-73" x="4012.484375"/>
    </g>
   </g>
  </g>
 </g>
 <defs>
  <clipPath id="p2c3a3c2b20">
   <rect x="58.32" y="27.6" width="792.72" height="345.816875"/>
  </clipPath>
 </defs>
</svg>
