<?xml version="1.0" encoding="utf-8" standalone="no"?>
<!DOCTYPE svg PUBLIC "-//W3C//DTD SVG 1.1//EN"
  "http://www.w3.org/Graphics/SVG/1.1/DTD/svg11.dtd">
<svg xmlns:xlink="http://www.w3.org/1999/xlink" width="864pt" height="432pt" viewBox="0 0 864 432" xmlns="http://www.w3.org/2000/svg" version="1.1">
 <metadata>
  <rdf:RDF xmlns:dc="http://purl.org/dc/elements/1.1/" xmlns:cc="http://creativecommons.org/ns#" xmlns:rdf="http://www.w3.org/1999/02/22-rdf-syntax-ns#">
   <cc:Work>
    <dc:type rdf:resource="http://purl.org/dc/dcmitype/StillImage"/>
    <dc:date>2026-03-21T14:06:19.271585</dc:date>
    <dc:format>image/svg+xml</dc:format>
    <dc:creator>
     <cc:Agent>
      <dc:title>Matplotlib v3.6.3, https://matplotlib.org/</dc:title>
     </cc:Agent>
    </dc:creator>
   </cc:Work>
  </rdf:RDF>
 </metadata>
 <defs>
  <style type="text/css">*{stroke-linejoin: round; stroke-linecap: butt}</style>
 </defs>
 <g id="figure_1">
  <g id="patch_1">
   <path d="M 0 432 
L 864 432 
L 864 0 
L 0 0 
z
" style="fill: #ffffff"/>
  </g>
  <g id="axes_1">
   <g id="patch_2">
    <path d="M 51.3 377.237044 
L 851.04 377.237044 
L 851.04 27.6 
L 51.3 27.6 
z
" style="fill: #ffffff"/>
   </g>
   <g id="matplotlib.axis_1">
    <g id="xtick_1">
     <g id="text_1">
      <!-- P-384 -->
      <g style="fill: #262626" transform="translate(97.593421 404.396088) rotate(-15) scale(0.12 -0.12)">
       <defs>
        <path id="DejaVuSans-50" d="M 1259 4147 
L 1259 2394 
L 2053 2394 
Q 2494 2394 2734 2622 
Q 2975 2850 2975 3272 
Q 2975 3691 2734 3919 
Q 2494 4147 2053 4147 
L 1259 4147 
z
M 628 4666 
L 2053 4666 
Q 2838 4666 3239 4311 
Q 3641 3956 3641 3272 
Q 3641 2581 3239 2228 
Q 2838 1875 2053 1875 
L 1259 1875 
L 1259 0 
L 628 0 
L 628 4666 
z
" transform="scale(0.015625)"/>
        <path id="DejaVuSans-2d" d="M 313 2009 
L 1997 2009 
L 1997 1497 
L 313 1497 
L 313 2009 
z
" transform="scale(0.015625)"/>
        <path id="DejaVuSans-33" d="M 2597 2516 
Q 3050 2419 3304 2112 
Q 3559 1806 3559 1356 
Q 3559 666 3084 287 
Q 2609 -91 1734 -91 
Q 1441 -91 1130 -33 
Q 819 25 488 141 
L 488 750 
Q 750 597 1062 519 
Q 1375 441 1716 441 
Q 2309 441 2620 675 
Q 2931 909 2931 1356 
Q 2931 1769 2642 2001 
Q 2353 2234 1838 2234 
L 1294 2234 
L 1294 2753 
L 1863 2753 
Q 2328 2753 2575 2939 
Q 2822 3125 2822 3475 
Q 2822 3834 2567 4026 
Q 2313 4219 1838 4219 
Q 1578 4219 1281 4162 
Q 984 4106 628 3988 
L 628 4550 
Q 988 4650 1302 4700 
Q 1616 4750 1894 4750 
Q 2613 4750 3031 4423 
Q 3450 4097 3450 3541 
Q 3450 3153 3228 2886 
Q 3006 2619 2597 2516 
z
" transform="scale(0.015625)"/>
        <path id="DejaVuSans-38" d="M 2034 2216 
Q 1584 2216 1326 1975 
Q 1069 1734 1069 1313 
Q 1069 891 1326 650 
Q 1584 409 2034 409 
Q 2484 409 2743 651 
Q 3003 894 3003 1313 
Q 3003 1734 2745 1975 
Q 2488 2216 2034 2216 
z
M 1403 2484 
Q 997 2584 770 2862 
Q 544 3141 544 3541 
Q 544 4100 942 4425 
Q 1341 4750 2034 4750 
Q 2731 4750 3128 4425 
Q 3525 4100 3525 3541 
Q 3525 3141 3298 2862 
Q 3072 2584 2669 2484 
Q 3125 2378 3379 2068 
Q 3634 1759 3634 1313 
Q 3634 634 3220 271 
Q 2806 -91 2034 -91 
Q 1263 -91 848 271 
Q 434 634 434 1313 
Q 434 1759 690 2068 
Q 947 2378 1403 2484 
z
M 1172 3481 
Q 1172 3119 1398 2916 
Q 1625 2713 2034 2713 
Q 2441 2713 2670 2916 
Q 2900 3119 2900 3481 
Q 2900 3844 2670 4047 
Q 2441 4250 2034 4250 
Q 1625 4250 1398 4047 
Q 1172 3844 1172 3481 
z
" transform="scale(0.015625)"/>
        <path id="DejaVuSans-34" d="M 2419 4116 
L 825 1625 
L 2419 1625 
L 2419 4116 
z
M 2253 4666 
L 3047 4666 
L 3047 1625 
L 3713 1625 
L 3713 1100 
L 3047 1100 
L 3047 0 
L 2419 0 
L 2419 1100 
L 313 1100 
L 313 1709 
L 2253 4666 
z
" transform="scale(0.015625)"/>
       </defs>
       <use xlink:href="#DejaVuSans-50"/>
       <use xlink:href="#DejaVuSans-2d" x="58.052734"/>
       <use xlink:href="#DejaVuSans-33" x="94.136719"/>
       <use xlink:href="#DejaVuSans-38" x="157.759766"/>
       <use xlink:href="#DejaVuSans-34" x="221.382812"/>
      </g>
     </g>
    </g>
    <g id="xtick_2">
     <g id="text_2">
      <!-- x448 -->
      <g style="fill: #262626" transform="translate(261.591065 403.310989) rotate(-15) scale(0.12 -0.12)">
       <defs>
        <path id="DejaVuSans-78" d="M 3513 3500 
L 2247 1797 
L 3578 0 
L 2900 0 
L 1881 1375 
L 863 0 
L 184 0 
L 1544 1831 
L 300 3500 
L 978 3500 
L 1906 2253 
L 2834 3500 
L 3513 3500 
z
" transform="scale(0.015625)"/>
       </defs>
       <use xlink:href="#DejaVuSans-78"/>
       <use xlink:href="#DejaVuSans-34" x="59.179688"/>
       <use xlink:href="#DejaVuSans-34" x="122.802734"/>
       <use xlink:href="#DejaVuSans-38" x="186.425781"/>
      </g>
     </g>
    </g>
    <g id="xtick_3">
     <g id="text_3">
      <!-- hqc192 -->
      <g style="fill: #262626" transform="translate(407.321845 407.120482) rotate(-15) scale(0.12 -0.12)">
       <defs>
        <path id="DejaVuSans-68" d="M 3513 2113 
L 3513 0 
L 2938 0 
L 2938 2094 
Q 2938 2591 2744 2837 
Q 2550 3084 2163 3084 
Q 1697 3084 1428 2787 
Q 1159 2491 1159 1978 
L 1159 0 
L 581 0 
L 581 4863 
L 1159 4863 
L 1159 2956 
Q 1366 3272 1645 3428 
Q 1925 3584 2291 3584 
Q 2894 3584 3203 3211 
Q 3513 2838 3513 2113 
z
" transform="scale(0.015625)"/>
        <path id="DejaVuSans-71" d="M 947 1747 
Q 947 1113 1208 752 
Q 1469 391 1925 391 
Q 2381 391 2643 752 
Q 2906 1113 2906 1747 
Q 2906 2381 2643 2742 
Q 2381 3103 1925 3103 
Q 1469 3103 1208 2742 
Q 947 2381 947 1747 
z
M 2906 525 
Q 2725 213 2448 61 
Q 2172 -91 1784 -91 
Q 1150 -91 751 415 
Q 353 922 353 1747 
Q 353 2572 751 3078 
Q 1150 3584 1784 3584 
Q 2172 3584 2448 3432 
Q 2725 3281 2906 2969 
L 2906 3500 
L 3481 3500 
L 3481 -1331 
L 2906 -1331 
L 2906 525 
z
" transform="scale(0.015625)"/>
        <path id="DejaVuSans-63" d="M 3122 3366 
L 3122 2828 
Q 2878 2963 2633 3030 
Q 2388 3097 2138 3097 
Q 1578 3097 1268 2742 
Q 959 2388 959 1747 
Q 959 1106 1268 751 
Q 1578 397 2138 397 
Q 2388 397 2633 464 
Q 2878 531 3122 666 
L 3122 134 
Q 2881 22 2623 -34 
Q 2366 -91 2075 -91 
Q 1284 -91 818 406 
Q 353 903 353 1747 
Q 353 2603 823 3093 
Q 1294 3584 2113 3584 
Q 2378 3584 2631 3529 
Q 2884 3475 3122 3366 
z
" transform="scale(0.015625)"/>
        <path id="DejaVuSans-31" d="M 794 531 
L 1825 531 
L 1825 4091 
L 703 3866 
L 703 4441 
L 1819 4666 
L 2450 4666 
L 2450 531 
L 3481 531 
L 3481 0 
L 794 0 
L 794 531 
z
" transform="scale(0.015625)"/>
        <path id="DejaVuSans-39" d="M 703 97 
L 703 672 
Q 941 559 1184 500 
Q 1428 441 1663 441 
Q 2288 441 2617 861 
Q 2947 1281 2994 2138 
Q 2813 1869 2534 1725 
Q 2256 1581 1919 1581 
Q 1219 1581 811 2004 
Q 403 2428 403 3163 
Q 403 3881 828 4315 
Q 1253 4750 1959 4750 
Q 2769 4750 3195 4129 
Q 3622 3509 3622 2328 
Q 3622 1225 3098 567 
Q 2575 -91 1691 -91 
Q 1453 -91 1209 -44 
Q 966 3 703 97 
z
M 1959 2075 
Q 2384 2075 2632 2365 
Q 2881 2656 2881 3163 
Q 2881 3666 2632 3958 
Q 2384 4250 1959 4250 
Q 1534 4250 1286 3958 
Q 1038 3666 1038 3163 
Q 1038 2656 1286 2365 
Q 1534 2075 1959 2075 
z
" transform="scale(0.015625)"/>
        <path id="DejaVuSans-32" d="M 1228 531 
L 3431 531 
L 3431 0 
L 469 0 
L 469 531 
Q 828 903 1448 1529 
Q 2069 2156 2228 2338 
Q 2531 2678 2651 2914 
Q 2772 3150 2772 3378 
Q 2772 3750 2511 3984 
Q 2250 4219 1831 4219 
Q 1534 4219 1204 4116 
Q 875 4013 500 3803 
L 500 4441 
Q 881 4594 1212 4672 
Q 1544 4750 1819 4750 
Q 2544 4750 2975 4387 
Q 3406 4025 3406 3419 
Q 3406 3131 3298 2873 
Q 3191 2616 2906 2266 
Q 2828 2175 2409 1742 
Q 1991 1309 1228 531 
z
" transform="scale(0.015625)"/>
       </defs>
       <use xlink:href="#DejaVuSans-68"/>
       <use xlink:href="#DejaVuSans-71" x="63.378906"/>
       <use xlink:href="#DejaVuSans-63" x="126.855469"/>
       <use xlink:href="#DejaVuSans-31" x="181.835938"/>
       <use xlink:href="#DejaVuSans-39" x="245.458984"/>
       <use xlink:href="#DejaVuSans-32" x="309.082031"/>
      </g>
     </g>
    </g>
    <g id="xtick_4">
     <g id="text_4">
      <!-- p384_hqc192 -->
      <g style="fill: #262626" transform="translate(531.904834 416.573362) rotate(-15) scale(0.12 -0.12)">
       <defs>
        <path id="DejaVuSans-70" d="M 1159 525 
L 1159 -1331 
L 581 -1331 
L 581 3500 
L 1159 3500 
L 1159 2969 
Q 1341 3281 1617 3432 
Q 1894 3584 2278 3584 
Q 2916 3584 3314 3078 
Q 3713 2572 3713 1747 
Q 3713 922 3314 415 
Q 2916 -91 2278 -91 
Q 1894 -91 1617 61 
Q 1341 213 1159 525 
z
M 3116 1747 
Q 3116 2381 2855 2742 
Q 2594 3103 2138 3103 
Q 1681 3103 1420 2742 
Q 1159 2381 1159 1747 
Q 1159 1113 1420 752 
Q 1681 391 2138 391 
Q 2594 391 2855 752 
Q 3116 1113 3116 1747 
z
" transform="scale(0.015625)"/>
        <path id="DejaVuSans-5f" d="M 3263 -1063 
L 3263 -1509 
L -63 -1509 
L -63 -1063 
L 3263 -1063 
z
" transform="scale(0.015625)"/>
       </defs>
       <use xlink:href="#DejaVuSans-70"/>
       <use xlink:href="#DejaVuSans-33" x="63.476562"/>
       <use xlink:href="#DejaVuSans-38" x="127.099609"/>
       <use xlink:href="#DejaVuSans-34" x="190.722656"/>
       <use xlink:href="#DejaVuSans-5f" x="254.345703"/>
       <use xlink:href="#DejaVuSans-68" x="304.345703"/>
       <use xlink:href="#DejaVuSans-71" x="367.724609"/>
       <use xlink:href="#DejaVuSans-63" x="431.201172"/>
       <use xlink:href="#DejaVuSans-31" x="486.181641"/>
       <use xlink:href="#DejaVuSans-39" x="549.804688"/>
       <use xlink:href="#DejaVuSans-32" x="613.427734"/>
      </g>
     </g>
    </g>
    <g id="xtick_5">
     <g id="text_5">
      <!-- x448_hqc192 -->
      <g style="fill: #262626" transform="translate(692.35089 416.439909) rotate(-15) scale(0.12 -0.12)">
       <use xlink:href="#DejaVuSans-78"/>
       <use xlink:href="#DejaVuSans-34" x="59.179688"/>
       <use xlink:href="#DejaVuSans-34" x="122.802734"/>
       <use xlink:href="#DejaVuSans-38" x="186.425781"/>
       <use xlink:href="#DejaVuSans-5f" x="250.048828"/>
       <use xlink:href="#DejaVuSans-68" x="300.048828"/>
       <use xlink:href="#DejaVuSans-71" x="363.427734"/>
       <use xlink:href="#DejaVuSans-63" x="426.904297"/>
       <use xlink:href="#DejaVuSans-31" x="481.884766"/>
       <use xlink:href="#DejaVuSans-39" x="545.507812"/>
       <use xlink:href="#DejaVuSans-32" x="609.130859"/>
      </g>
     </g>
    </g>
   </g>
   <g id="matplotlib.axis_2">
    <g id="ytick_1">
     <g id="line2d_1">
      <path d="M 51.3 371.306751 
L 851.04 371.306751 
" clip-path="url(#pd28d04fffd)" style="fill: none; stroke: #cccccc; stroke-linecap: round"/>
     </g>
     <g id="text_6">
      <!-- 0 -->
      <g style="fill: #262626" transform="translate(34.80125 375.485892) scale(0.11 -0.11)">
       <defs>
        <path id="DejaVuSans-30" d="M 2034 4250 
Q 1547 4250 1301 3770 
Q 1056 3291 1056 2328 
Q 1056 1369 1301 889 
Q 1547 409 2034 409 
Q 2525 409 2770 889 
Q 3016 1369 3016 2328 
Q 3016 3291 2770 3770 
Q 2525 4250 2034 4250 
z
M 2034 4750 
Q 2819 4750 3233 4129 
Q 3647 3509 3647 2328 
Q 3647 1150 3233 529 
Q 2819 -91 2034 -91 
Q 1250 -91 836 529 
Q 422 1150 422 2328 
Q 422 3509 836 4129 
Q 1250 4750 2034 4750 
z
" transform="scale(0.015625)"/>
       </defs>
       <use xlink:href="#DejaVuSans-30"/>
      </g>
     </g>
    </g>
    <g id="ytick_2">
     <g id="line2d_2">
      <path d="M 51.3 319.495663 
L 851.04 319.495663 
" clip-path="url(#pd28d04fffd)" style="fill: none; stroke: #cccccc; stroke-linecap: round"/>
     </g>
     <g id="text_7">
      <!-- 10 -->
      <g style="fill: #262626" transform="translate(27.8025 323.674803) scale(0.11 -0.11)">
       <use xlink:href="#DejaVuSans-31"/>
       <use xlink:href="#DejaVuSans-30" x="63.623047"/>
      </g>
     </g>
    </g>
    <g id="ytick_3">
     <g id="line2d_3">
      <path d="M 51.3 267.684574 
L 851.04 267.684574 
" clip-path="url(#pd28d04fffd)" style="fill: none; stroke: #cccccc; stroke-linecap: round"/>
     </g>
     <g id="text_8">
      <!-- 20 -->
      <g style="fill: #262626" transform="translate(27.8025 271.863715) scale(0.11 -0.11)">
       <use xlink:href="#DejaVuSans-32"/>
       <use xlink:href="#DejaVuSans-30" x="63.623047"/>
      </g>
     </g>
    </g>
    <g id="ytick_4">
     <g id="line2d_4">
      <path d="M 51.3 215.873485 
L 851.04 215.873485 
" clip-path="url(#pd28d04fffd)" style="fill: none; stroke: #cccccc; stroke-linecap: round"/>
     </g>
     <g id="text_9">
      <!-- 30 -->
      <g style="fill: #262626" transform="translate(27.8025 220.052626) scale(0.11 -0.11)">
       <use xlink:href="#DejaVuSans-33"/>
       <use xlink:href="#DejaVuSans-30" x="63.623047"/>
      </g>
     </g>
    </g>
    <g id="ytick_5">
     <g id="line2d_5">
      <path d="M 51.3 164.062397 
L 851.04 164.062397 
" clip-path="url(#pd28d04fffd)" style="fill: none; stroke: #cccccc; stroke-linecap: round"/>
     </g>
     <g id="text_10">
      <!-- 40 -->
      <g style="fill: #262626" transform="translate(27.8025 168.241537) scale(0.11 -0.11)">
       <use xlink:href="#DejaVuSans-34"/>
       <use xlink:href="#DejaVuSans-30" x="63.623047"/>
      </g>
     </g>
    </g>
    <g id="ytick_6">
     <g id="line2d_6">
      <path d="M 51.3 112.251308 
L 851.04 112.251308 
" clip-path="url(#pd28d04fffd)" style="fill: none; stroke: #cccccc; stroke-linecap: round"/>
     </g>
     <g id="text_11">
      <!-- 50 -->
      <g style="fill: #262626" transform="translate(27.8025 116.430449) scale(0.11 -0.11)">
       <defs>
        <path id="DejaVuSans-35" d="M 691 4666 
L 3169 4666 
L 3169 4134 
L 1269 4134 
L 1269 2991 
Q 1406 3038 1543 3061 
Q 1681 3084 1819 3084 
Q 2600 3084 3056 2656 
Q 3513 2228 3513 1497 
Q 3513 744 3044 326 
Q 2575 -91 1722 -91 
Q 1428 -91 1123 -41 
Q 819 9 494 109 
L 494 744 
Q 775 591 1075 516 
Q 1375 441 1709 441 
Q 2250 441 2565 725 
Q 2881 1009 2881 1497 
Q 2881 1984 2565 2268 
Q 2250 2553 1709 2553 
Q 1456 2553 1204 2497 
Q 953 2441 691 2322 
L 691 4666 
z
" transform="scale(0.015625)"/>
       </defs>
       <use xlink:href="#DejaVuSans-35"/>
       <use xlink:href="#DejaVuSans-30" x="63.623047"/>
      </g>
     </g>
    </g>
    <g id="ytick_7">
     <g id="line2d_7">
      <path d="M 51.3 60.440219 
L 851.04 60.440219 
" clip-path="url(#pd28d04fffd)" style="fill: none; stroke: #cccccc; stroke-linecap: round"/>
     </g>
     <g id="text_12">
      <!-- 60 -->
      <g style="fill: #262626" transform="translate(27.8025 64.61936) scale(0.11 -0.11)">
       <defs>
        <path id="DejaVuSans-36" d="M 2113 2584 
Q 1688 2584 1439 2293 
Q 1191 2003 1191 1497 
Q 1191 994 1439 701 
Q 1688 409 2113 409 
Q 2538 409 2786 701 
Q 3034 994 3034 1497 
Q 3034 2003 2786 2293 
Q 2538 2584 2113 2584 
z
M 3366 4563 
L 3366 3988 
Q 3128 4100 2886 4159 
Q 2644 4219 2406 4219 
Q 1781 4219 1451 3797 
Q 1122 3375 1075 2522 
Q 1259 2794 1537 2939 
Q 1816 3084 2150 3084 
Q 2853 3084 3261 2657 
Q 3669 2231 3669 1497 
Q 3669 778 3244 343 
Q 2819 -91 2113 -91 
Q 1303 -91 875 529 
Q 447 1150 447 2328 
Q 447 3434 972 4092 
Q 1497 4750 2381 4750 
Q 2619 4750 2861 4703 
Q 3103 4656 3366 4563 
z
" transform="scale(0.015625)"/>
       </defs>
       <use xlink:href="#DejaVuSans-36"/>
       <use xlink:href="#DejaVuSans-30" x="63.623047"/>
      </g>
     </g>
    </g>
    <g id="text_13">
     <!-- Handshake duration (ms) -->
     <g style="fill: #262626" transform="translate(21.306875 278.486335) rotate(-90) scale(0.12 -0.12)">
      <defs>
       <path id="DejaVuSans-48" d="M 628 4666 
L 1259 4666 
L 1259 2753 
L 3553 2753 
L 3553 4666 
L 4184 4666 
L 4184 0 
L 3553 0 
L 3553 2222 
L 1259 2222 
L 1259 0 
L 628 0 
L 628 4666 
z
" transform="scale(0.015625)"/>
       <path id="DejaVuSans-61" d="M 2194 1759 
Q 1497 1759 1228 1600 
Q 959 1441 959 1056 
Q 959 750 1161 570 
Q 1363 391 1709 391 
Q 2188 391 2477 730 
Q 2766 1069 2766 1631 
L 2766 1759 
L 2194 1759 
z
M 3341 1997 
L 3341 0 
L 2766 0 
L 2766 531 
Q 2569 213 2275 61 
Q 1981 -91 1556 -91 
Q 1019 -91 701 211 
Q 384 513 384 1019 
Q 384 1609 779 1909 
Q 1175 2209 1959 2209 
L 2766 2209 
L 2766 2266 
Q 2766 2663 2505 2880 
Q 2244 3097 1772 3097 
Q 1472 3097 1187 3025 
Q 903 2953 641 2809 
L 641 3341 
Q 956 3463 1253 3523 
Q 1550 3584 1831 3584 
Q 2591 3584 2966 3190 
Q 3341 2797 3341 1997 
z
" transform="scale(0.015625)"/>
       <path id="DejaVuSans-6e" d="M 3513 2113 
L 3513 0 
L 2938 0 
L 2938 2094 
Q 2938 2591 2744 2837 
Q 2550 3084 2163 3084 
Q 1697 3084 1428 2787 
Q 1159 2491 1159 1978 
L 1159 0 
L 581 0 
L 581 3500 
L 1159 3500 
L 1159 2956 
Q 1366 3272 1645 3428 
Q 1925 3584 2291 3584 
Q 2894 3584 3203 3211 
Q 3513 2838 3513 2113 
z
" transform="scale(0.015625)"/>
       <path id="DejaVuSans-64" d="M 2906 2969 
L 2906 4863 
L 3481 4863 
L 3481 0 
L 2906 0 
L 2906 525 
Q 2725 213 2448 61 
Q 2172 -91 1784 -91 
Q 1150 -91 751 415 
Q 353 922 353 1747 
Q 353 2572 751 3078 
Q 1150 3584 1784 3584 
Q 2172 3584 2448 3432 
Q 2725 3281 2906 2969 
z
M 947 1747 
Q 947 1113 1208 752 
Q 1469 391 1925 391 
Q 2381 391 2643 752 
Q 2906 1113 2906 1747 
Q 2906 2381 2643 2742 
Q 2381 3103 1925 3103 
Q 1469 3103 1208 2742 
Q 947 2381 947 1747 
z
" transform="scale(0.015625)"/>
       <path id="DejaVuSans-73" d="M 2834 3397 
L 2834 2853 
Q 2591 2978 2328 3040 
Q 2066 3103 1784 3103 
Q 1356 3103 1142 2972 
Q 928 2841 928 2578 
Q 928 2378 1081 2264 
Q 1234 2150 1697 2047 
L 1894 2003 
Q 2506 1872 2764 1633 
Q 3022 1394 3022 966 
Q 3022 478 2636 193 
Q 2250 -91 1575 -91 
Q 1294 -91 989 -36 
Q 684 19 347 128 
L 347 722 
Q 666 556 975 473 
Q 1284 391 1588 391 
Q 1994 391 2212 530 
Q 2431 669 2431 922 
Q 2431 1156 2273 1281 
Q 2116 1406 1581 1522 
L 1381 1569 
Q 847 1681 609 1914 
Q 372 2147 372 2553 
Q 372 3047 722 3315 
Q 1072 3584 1716 3584 
Q 2034 3584 2315 3537 
Q 2597 3491 2834 3397 
z
" transform="scale(0.015625)"/>
       <path id="DejaVuSans-6b" d="M 581 4863 
L 1159 4863 
L 1159 1991 
L 2875 3500 
L 3609 3500 
L 1753 1863 
L 3688 0 
L 2938 0 
L 1159 1709 
L 1159 0 
L 581 0 
L 581 4863 
z
" transform="scale(0.015625)"/>
       <path id="DejaVuSans-65" d="M 3597 1894 
L 3597 1613 
L 953 1613 
Q 991 1019 1311 708 
Q 1631 397 2203 397 
Q 2534 397 2845 478 
Q 3156 559 3463 722 
L 3463 178 
Q 3153 47 2828 -22 
Q 2503 -91 2169 -91 
Q 1331 -91 842 396 
Q 353 884 353 1716 
Q 353 2575 817 3079 
Q 1281 3584 2069 3584 
Q 2775 3584 3186 3129 
Q 3597 2675 3597 1894 
z
M 3022 2063 
Q 3016 2534 2758 2815 
Q 2500 3097 2075 3097 
Q 1594 3097 1305 2825 
Q 1016 2553 972 2059 
L 3022 2063 
z
" transform="scale(0.015625)"/>
       <path id="DejaVuSans-20" transform="scale(0.015625)"/>
       <path id="DejaVuSans-75" d="M 544 1381 
L 544 3500 
L 1119 3500 
L 1119 1403 
Q 1119 906 1312 657 
Q 1506 409 1894 409 
Q 2359 409 2629 706 
Q 2900 1003 2900 1516 
L 2900 3500 
L 3475 3500 
L 3475 0 
L 2900 0 
L 2900 538 
Q 2691 219 2414 64 
Q 2138 -91 1772 -91 
Q 1169 -91 856 284 
Q 544 659 544 1381 
z
M 1991 3584 
L 1991 3584 
z
" transform="scale(0.015625)"/>
       <path id="DejaVuSans-72" d="M 2631 2963 
Q 2534 3019 2420 3045 
Q 2306 3072 2169 3072 
Q 1681 3072 1420 2755 
Q 1159 2438 1159 1844 
L 1159 0 
L 581 0 
L 581 3500 
L 1159 3500 
L 1159 2956 
Q 1341 3275 1631 3429 
Q 1922 3584 2338 3584 
Q 2397 3584 2469 3576 
Q 2541 3569 2628 3553 
L 2631 2963 
z
" transform="scale(0.015625)"/>
       <path id="DejaVuSans-74" d="M 1172 4494 
L 1172 3500 
L 2356 3500 
L 2356 3053 
L 1172 3053 
L 1172 1153 
Q 1172 725 1289 603 
Q 1406 481 1766 481 
L 2356 481 
L 2356 0 
L 1766 0 
Q 1100 0 847 248 
Q 594 497 594 1153 
L 594 3053 
L 172 3053 
L 172 3500 
L 594 3500 
L 594 4494 
L 1172 4494 
z
" transform="scale(0.015625)"/>
       <path id="DejaVuSans-69" d="M 603 3500 
L 1178 3500 
L 1178 0 
L 603 0 
L 603 3500 
z
M 603 4863 
L 1178 4863 
L 1178 4134 
L 603 4134 
L 603 4863 
z
" transform="scale(0.015625)"/>
       <path id="DejaVuSans-6f" d="M 1959 3097 
Q 1497 3097 1228 2736 
Q 959 2375 959 1747 
Q 959 1119 1226 758 
Q 1494 397 1959 397 
Q 2419 397 2687 759 
Q 2956 1122 2956 1747 
Q 2956 2369 2687 2733 
Q 2419 3097 1959 3097 
z
M 1959 3584 
Q 2709 3584 3137 3096 
Q 3566 2609 3566 1747 
Q 3566 888 3137 398 
Q 2709 -91 1959 -91 
Q 1206 -91 779 398 
Q 353 888 353 1747 
Q 353 2609 779 3096 
Q 1206 3584 1959 3584 
z
" transform="scale(0.015625)"/>
       <path id="DejaVuSans-28" d="M 1984 4856 
Q 1566 4138 1362 3434 
Q 1159 2731 1159 2009 
Q 1159 1288 1364 580 
Q 1569 -128 1984 -844 
L 1484 -844 
Q 1016 -109 783 600 
Q 550 1309 550 2009 
Q 550 2706 781 3412 
Q 1013 4119 1484 4856 
L 1984 4856 
z
" transform="scale(0.015625)"/>
       <path id="DejaVuSans-6d" d="M 3328 2828 
Q 3544 3216 3844 3400 
Q 4144 3584 4550 3584 
Q 5097 3584 5394 3201 
Q 5691 2819 5691 2113 
L 5691 0 
L 5113 0 
L 5113 2094 
Q 5113 2597 4934 2840 
Q 4756 3084 4391 3084 
Q 3944 3084 3684 2787 
Q 3425 2491 3425 1978 
L 3425 0 
L 2847 0 
L 2847 2094 
Q 2847 2600 2669 2842 
Q 2491 3084 2119 3084 
Q 1678 3084 1418 2786 
Q 1159 2488 1159 1978 
L 1159 0 
L 581 0 
L 581 3500 
L 1159 3500 
L 1159 2956 
Q 1356 3278 1631 3431 
Q 1906 3584 2284 3584 
Q 2666 3584 2933 3390 
Q 3200 3197 3328 2828 
z
" transform="scale(0.015625)"/>
       <path id="DejaVuSans-29" d="M 513 4856 
L 1013 4856 
Q 1481 4119 1714 3412 
Q 1947 2706 1947 2009 
Q 1947 1309 1714 600 
Q 1481 -109 1013 -844 
L 513 -844 
Q 928 -128 1133 580 
Q 1338 1288 1338 2009 
Q 1338 2731 1133 3434 
Q 928 4138 513 4856 
z
" transform="scale(0.015625)"/>
      </defs>
      <use xlink:href="#DejaVuSans-48"/>
      <use xlink:href="#DejaVuSans-61" x="75.195312"/>
      <use xlink:href="#DejaVuSans-6e" x="136.474609"/>
      <use xlink:href="#DejaVuSans-64" x="199.853516"/>
      <use xlink:href="#DejaVuSans-73" x="263.330078"/>
      <use xlink:href="#DejaVuSans-68" x="315.429688"/>
      <use xlink:href="#DejaVuSans-61" x="378.808594"/>
      <use xlink:href="#DejaVuSans-6b" x="440.087891"/>
      <use xlink:href="#DejaVuSans-65" x="494.373047"/>
      <use xlink:href="#DejaVuSans-20" x="555.896484"/>
      <use xlink:href="#DejaVuSans-64" x="587.683594"/>
      <use xlink:href="#DejaVuSans-75" x="651.160156"/>
      <use xlink:href="#DejaVuSans-72" x="714.539062"/>
      <use xlink:href="#DejaVuSans-61" x="755.652344"/>
      <use xlink:href="#DejaVuSans-74" x="816.931641"/>
      <use xlink:href="#DejaVuSans-69" x="856.140625"/>
      <use xlink:href="#DejaVuSans-6f" x="883.923828"/>
      <use xlink:href="#DejaVuSans-6e" x="945.105469"/>
      <use xlink:href="#DejaVuSans-20" x="1008.484375"/>
      <use xlink:href="#DejaVuSans-28" x="1040.271484"/>
      <use xlink:href="#DejaVuSans-6d" x="1079.285156"/>
      <use xlink:href="#DejaVuSans-73" x="1176.697266"/>
      <use xlink:href="#DejaVuSans-29" x="1228.796875"/>
     </g>
    </g>
   </g>
   <g id="PolyCollection_1">
    <defs>
     <path id="m748dbe8cf1" d="M 131.558089 -86.694954 
L 130.989911 -86.694954 
L 130.7158 -86.898685 
L 130.23398 -87.102417 
L 129.430752 -87.306149 
L 128.157724 -87.50988 
L 126.23721 -87.713612 
L 123.479896 -87.917344 
L 119.718671 -88.121075 
L 114.857591 -88.324807 
L 108.926018 -88.528539 
L 102.118855 -88.732271 
L 94.801703 -88.936002 
L 87.469977 -89.139734 
L 80.671069 -89.343466 
L 74.916537 -89.547197 
L 70.613997 -89.750929 
L 68.032742 -89.954661 
L 67.2948 -90.158392 
L 68.372112 -90.362124 
L 71.079032 -90.565856 
L 75.069089 -90.769587 
L 79.857593 -90.973319 
L 84.885361 -91.177051 
L 89.617067 -91.380782 
L 93.645407 -91.584514 
L 96.763675 -91.788246 
L 98.979475 -91.991977 
L 100.465788 -92.195709 
L 101.471366 -92.399441 
L 102.228457 -92.603173 
L 102.894305 -92.806904 
L 103.543898 -93.010636 
L 104.204612 -93.214368 
L 104.903595 -93.418099 
L 105.696879 -93.621831 
L 106.665045 -93.825563 
L 107.88248 -94.029294 
L 109.381643 -94.233026 
L 111.133246 -94.436758 
L 113.051245 -94.640489 
L 115.017743 -94.844221 
L 116.915101 -95.047953 
L 118.652738 -95.251684 
L 120.181031 -95.455416 
L 121.490904 -95.659148 
L 122.602659 -95.862879 
L 123.550675 -96.066611 
L 124.370747 -96.270343 
L 125.093985 -96.474074 
L 125.746668 -96.677806 
L 126.352015 -96.881538 
L 126.92992 -97.08527 
L 127.493699 -97.289001 
L 128.046267 -97.492733 
L 128.579061 -97.696465 
L 129.075116 -97.900196 
L 129.514946 -98.103928 
L 129.882482 -98.30766 
L 130.168987 -98.511391 
L 130.374473 -98.715123 
L 130.507206 -98.918855 
L 130.58198 -99.122586 
L 130.617422 -99.326318 
L 130.632463 -99.53005 
L 130.642493 -99.733781 
L 130.656141 -99.937513 
L 130.673826 -100.141245 
L 130.688805 -100.344976 
L 130.690685 -100.548708 
L 130.67042 -100.75244 
L 130.625101 -100.956172 
L 130.560684 -101.159903 
L 130.491454 -101.363635 
L 130.436272 -101.567367 
L 130.412948 -101.771098 
L 130.432839 -101.97483 
L 130.497638 -102.178562 
L 130.599322 -102.382293 
L 130.722979 -102.586025 
L 130.851184 -102.789757 
L 130.968199 -102.993488 
L 131.062619 -103.19722 
L 131.127926 -103.400952 
L 131.1614 -103.604683 
L 131.162468 -103.808415 
L 131.131736 -104.012147 
L 131.071389 -104.215878 
L 130.986775 -104.41961 
L 130.888064 -104.623342 
L 130.79046 -104.827074 
L 130.711952 -105.030805 
L 130.668833 -105.234537 
L 130.670694 -105.438269 
L 130.717199 -105.642 
L 130.798289 -105.845732 
L 130.897764 -106.049464 
L 130.998546 -106.253195 
L 131.087317 -106.456927 
L 131.156882 -106.660659 
L 131.205985 -106.86439 
L 131.342015 -106.86439 
L 131.342015 -106.86439 
L 131.391118 -106.660659 
L 131.460683 -106.456927 
L 131.549454 -106.253195 
L 131.650236 -106.049464 
L 131.749711 -105.845732 
L 131.830801 -105.642 
L 131.877306 -105.438269 
L 131.879167 -105.234537 
L 131.836048 -105.030805 
L 131.75754 -104.827074 
L 131.659936 -104.623342 
L 131.561225 -104.41961 
L 131.476611 -104.215878 
L 131.416264 -104.012147 
L 131.385532 -103.808415 
L 131.3866 -103.604683 
L 131.420074 -103.400952 
L 131.485381 -103.19722 
L 131.579801 -102.993488 
L 131.696816 -102.789757 
L 131.825021 -102.586025 
L 131.948678 -102.382293 
L 132.050362 -102.178562 
L 132.115161 -101.97483 
L 132.135052 -101.771098 
L 132.111728 -101.567367 
L 132.056546 -101.363635 
L 131.987316 -101.159903 
L 131.922899 -100.956172 
L 131.87758 -100.75244 
L 131.857315 -100.548708 
L 131.859195 -100.344976 
L 131.874174 -100.141245 
L 131.891859 -99.937513 
L 131.905507 -99.733781 
L 131.915537 -99.53005 
L 131.930578 -99.326318 
L 131.96602 -99.122586 
L 132.040794 -98.918855 
L 132.173527 -98.715123 
L 132.379013 -98.511391 
L 132.665518 -98.30766 
L 133.033054 -98.103928 
L 133.472884 -97.900196 
L 133.968939 -97.696465 
L 134.501733 -97.492733 
L 135.054301 -97.289001 
L 135.61808 -97.08527 
L 136.195985 -96.881538 
L 136.801332 -96.677806 
L 137.454015 -96.474074 
L 138.177253 -96.270343 
L 138.997325 -96.066611 
L 139.945341 -95.862879 
L 141.057096 -95.659148 
L 142.366969 -95.455416 
L 143.895262 -95.251684 
L 145.632899 -95.047953 
L 147.530257 -94.844221 
L 149.496755 -94.640489 
L 151.414754 -94.436758 
L 153.166357 -94.233026 
L 154.66552 -94.029294 
L 155.882955 -93.825563 
L 156.851121 -93.621831 
L 157.644405 -93.418099 
L 158.343388 -93.214368 
L 159.004102 -93.010636 
L 159.653695 -92.806904 
L 160.319543 -92.603173 
L 161.076634 -92.399441 
L 162.082212 -92.195709 
L 163.568525 -91.991977 
L 165.784325 -91.788246 
L 168.902593 -91.584514 
L 172.930933 -91.380782 
L 177.662639 -91.177051 
L 182.690407 -90.973319 
L 187.478911 -90.769587 
L 191.468968 -90.565856 
L 194.175888 -90.362124 
L 195.2532 -90.158392 
L 194.515258 -89.954661 
L 191.934003 -89.750929 
L 187.631463 -89.547197 
L 181.876931 -89.343466 
L 175.078023 -89.139734 
L 167.746297 -88.936002 
L 160.429145 -88.732271 
L 153.621982 -88.528539 
L 147.690409 -88.324807 
L 142.829329 -88.121075 
L 139.068104 -87.917344 
L 136.31079 -87.713612 
L 134.390276 -87.50988 
L 133.117248 -87.306149 
L 132.31402 -87.102417 
L 131.8322 -86.898685 
L 131.558089 -86.694954 
z
" style="stroke: #595959; stroke-width: 1.25"/>
    </defs>
    <g clip-path="url(#pd28d04fffd)">
     <use xlink:href="#m748dbe8cf1" x="0" y="432" style="fill: #72b6a1; stroke: #595959; stroke-width: 1.25"/>
    </g>
   </g>
   <g id="PolyCollection_2">
    <defs>
     <path id="mbeb7b26f67" d="M 291.464096 -70.655549 
L 290.979904 -70.655549 
L 290.803477 -70.738466 
L 290.519325 -70.821384 
L 290.075899 -70.904301 
L 289.405522 -70.987218 
L 288.423914 -71.070136 
L 287.0323 -71.153053 
L 285.123116 -71.235971 
L 282.59006 -71.318888 
L 279.342574 -71.401805 
L 275.323929 -71.484723 
L 270.530878 -71.56764 
L 265.031754 -71.650557 
L 258.979108 -71.733475 
L 252.612876 -71.816392 
L 246.2509 -71.89931 
L 240.265484 -71.982227 
L 235.047299 -72.065144 
L 230.960953 -72.148062 
L 228.299034 -72.230979 
L 227.2428 -72.313897 
L 227.837169 -72.396814 
L 229.985233 -72.479731 
L 233.463666 -72.562649 
L 237.955992 -72.645566 
L 243.097074 -72.728483 
L 248.520212 -72.811401 
L 253.898456 -72.894318 
L 258.973877 -72.977236 
L 263.571832 -73.060153 
L 267.600671 -73.14307 
L 271.040051 -73.225988 
L 273.922423 -73.308905 
L 276.312425 -73.391823 
L 278.288031 -73.47474 
L 279.925908 -73.557657 
L 281.291995 -73.640575 
L 282.437102 -73.723492 
L 283.396544 -73.806409 
L 284.192519 -73.889327 
L 284.837887 -73.972244 
L 285.340297 -74.055162 
L 285.705877 -74.138079 
L 285.942061 -74.220996 
L 286.059314 -74.303914 
L 286.071721 -74.386831 
L 285.996478 -74.469749 
L 285.852455 -74.552666 
L 285.658175 -74.635583 
L 285.429675 -74.718501 
L 285.178881 -74.801418 
L 284.91301 -74.884335 
L 284.635331 -74.967253 
L 284.347188 -75.05017 
L 284.050731 -75.133088 
L 283.751543 -75.216005 
L 283.460249 -75.298922 
L 283.192508 -75.38184 
L 282.967245 -75.464757 
L 282.803584 -75.547674 
L 282.717337 -75.630592 
L 282.718055 -75.713509 
L 282.807494 -75.796427 
L 282.979855 -75.879344 
L 283.223671 -75.962261 
L 283.524731 -76.045179 
L 283.869154 -76.128096 
L 284.245818 -76.211014 
L 284.647527 -76.293931 
L 285.070769 -76.376848 
L 285.51428 -76.459766 
L 285.976965 -76.542683 
L 286.45586 -76.6256 
L 286.944742 -76.708518 
L 287.433806 -76.791435 
L 287.910451 -76.874353 
L 288.36096 -76.95727 
L 288.772574 -77.040187 
L 289.135433 -77.123105 
L 289.443898 -77.206022 
L 289.697034 -77.28894 
L 289.898243 -77.371857 
L 290.054267 -77.454774 
L 290.173886 -77.537692 
L 290.26662 -77.620609 
L 290.34164 -77.703526 
L 290.406981 -77.786444 
L 290.469038 -77.869361 
L 290.532293 -77.952279 
L 290.599231 -78.035196 
L 290.670428 -78.118113 
L 290.744821 -78.201031 
L 290.820144 -78.283948 
L 290.893491 -78.366866 
L 290.961914 -78.449783 
L 291.022944 -78.5327 
L 291.074944 -78.615618 
L 291.117258 -78.698535 
L 291.15014 -78.781452 
L 291.174548 -78.86437 
L 291.269452 -78.86437 
L 291.269452 -78.86437 
L 291.29386 -78.781452 
L 291.326742 -78.698535 
L 291.369056 -78.615618 
L 291.421056 -78.5327 
L 291.482086 -78.449783 
L 291.550509 -78.366866 
L 291.623856 -78.283948 
L 291.699179 -78.201031 
L 291.773572 -78.118113 
L 291.844769 -78.035196 
L 291.911707 -77.952279 
L 291.974962 -77.869361 
L 292.037019 -77.786444 
L 292.10236 -77.703526 
L 292.17738 -77.620609 
L 292.270114 -77.537692 
L 292.389733 -77.454774 
L 292.545757 -77.371857 
L 292.746966 -77.28894 
L 293.000102 -77.206022 
L 293.308567 -77.123105 
L 293.671426 -77.040187 
L 294.08304 -76.95727 
L 294.533549 -76.874353 
L 295.010194 -76.791435 
L 295.499258 -76.708518 
L 295.98814 -76.6256 
L 296.467035 -76.542683 
L 296.92972 -76.459766 
L 297.373231 -76.376848 
L 297.796473 -76.293931 
L 298.198182 -76.211014 
L 298.574846 -76.128096 
L 298.919269 -76.045179 
L 299.220329 -75.962261 
L 299.464145 -75.879344 
L 299.636506 -75.796427 
L 299.725945 -75.713509 
L 299.726663 -75.630592 
L 299.640416 -75.547674 
L 299.476755 -75.464757 
L 299.251492 -75.38184 
L 298.983751 -75.298922 
L 298.692457 -75.216005 
L 298.393269 -75.133088 
L 298.096812 -75.05017 
L 297.808669 -74.967253 
L 297.53099 -74.884335 
L 297.265119 -74.801418 
L 297.014325 -74.718501 
L 296.785825 -74.635583 
L 296.591545 -74.552666 
L 296.447522 -74.469749 
L 296.372279 -74.386831 
L 296.384686 -74.303914 
L 296.501939 -74.220996 
L 296.738123 -74.138079 
L 297.103703 -74.055162 
L 297.606113 -73.972244 
L 298.251481 -73.889327 
L 299.047456 -73.806409 
L 300.006898 -73.723492 
L 301.152005 -73.640575 
L 302.518092 -73.557657 
L 304.155969 -73.47474 
L 306.131575 -73.391823 
L 308.521577 -73.308905 
L 311.403949 -73.225988 
L 314.843329 -73.14307 
L 318.872168 -73.060153 
L 323.470123 -72.977236 
L 328.545544 -72.894318 
L 333.923788 -72.811401 
L 339.346926 -72.728483 
L 344.488008 -72.645566 
L 348.980334 -72.562649 
L 352.458767 -72.479731 
L 354.606831 -72.396814 
L 355.2012 -72.313897 
L 354.144966 -72.230979 
L 351.483047 -72.148062 
L 347.396701 -72.065144 
L 342.178516 -71.982227 
L 336.1931 -71.89931 
L 329.831124 -71.816392 
L 323.464892 -71.733475 
L 317.412246 -71.650557 
L 311.913122 -71.56764 
L 307.120071 -71.484723 
L 303.101426 -71.401805 
L 299.85394 -71.318888 
L 297.320884 -71.235971 
L 295.4117 -71.153053 
L 294.020086 -71.070136 
L 293.038478 -70.987218 
L 292.368101 -70.904301 
L 291.924675 -70.821384 
L 291.640523 -70.738466 
L 291.464096 -70.655549 
z
" style="stroke: #595959; stroke-width: 1.25"/>
    </defs>
    <g clip-path="url(#pd28d04fffd)">
     <use xlink:href="#mbeb7b26f67" x="0" y="432" style="fill: #e99675; stroke: #595959; stroke-width: 1.25"/>
    </g>
   </g>
   <g id="PolyCollection_3">
    <defs>
     <path id="m35c8d05cf4" d="M 451.54748 -283.881975 
L 450.79252 -283.881975 
L 450.399642 -284.286791 
L 449.698654 -284.691608 
L 448.532957 -285.096425 
L 446.721867 -285.501242 
L 444.086139 -285.906058 
L 440.48389 -286.310875 
L 435.850353 -286.715692 
L 430.232748 -287.120509 
L 423.811191 -287.525325 
L 416.897417 -287.930142 
L 409.905556 -288.334959 
L 403.295374 -288.739776 
L 397.498944 -289.144592 
L 392.852409 -289.549409 
L 389.556813 -289.954226 
L 387.68007 -290.359043 
L 387.1908 -290.76386 
L 387.998154 -291.168676 
L 389.973177 -291.573493 
L 392.946593 -291.97831 
L 396.70002 -292.383127 
L 400.97414 -292.787943 
L 405.502499 -293.19276 
L 410.055926 -293.597577 
L 414.470573 -294.002394 
L 418.642977 -294.40721 
L 422.499932 -294.812027 
L 425.969365 -295.216844 
L 428.976303 -295.621661 
L 431.46772 -296.026478 
L 433.447387 -296.431294 
L 434.993383 -296.836111 
L 436.241791 -297.240928 
L 437.342066 -297.645745 
L 438.40739 -298.050561 
L 439.485701 -298.455378 
L 440.563465 -298.860195 
L 441.594739 -299.265012 
L 442.535647 -299.669828 
L 443.365685 -300.074645 
L 444.089046 -300.479462 
L 444.721896 -300.884279 
L 445.277294 -301.289095 
L 445.75698 -301.693912 
L 446.152681 -302.098729 
L 446.454294 -302.503546 
L 446.660166 -302.908363 
L 446.78497 -303.313179 
L 446.861721 -303.717996 
L 446.936315 -304.122813 
L 447.055807 -304.52763 
L 447.254746 -304.932446 
L 447.545223 -305.337263 
L 447.914669 -305.74208 
L 448.331685 -306.146897 
L 448.756742 -306.551713 
L 449.153218 -306.95653 
L 449.495166 -307.361347 
L 449.770236 -307.766164 
L 449.978184 -308.170981 
L 450.126639 -308.575797 
L 450.226236 -308.980614 
L 450.286858 -309.385431 
L 450.315942 -309.790248 
L 450.318796 -310.195064 
L 450.300174 -310.599881 
L 450.266061 -311.004698 
L 450.224873 -311.409515 
L 450.187658 -311.814331 
L 450.167169 -312.219148 
L 450.17578 -312.623965 
L 450.222471 -313.028782 
L 450.309709 -313.433599 
L 450.431627 -313.838415 
L 450.574793 -314.243232 
L 450.721736 -314.648049 
L 450.855899 -315.052866 
L 450.965862 -315.457682 
L 451.047161 -315.862499 
L 451.101419 -316.267316 
L 451.133794 -316.672133 
L 451.150146 -317.076949 
L 451.154971 -317.481766 
L 451.150458 -317.886583 
L 451.136597 -318.2914 
L 451.112118 -318.696216 
L 451.07605 -319.101033 
L 451.029528 -319.50585 
L 450.977146 -319.910667 
L 450.927036 -320.315484 
L 450.889146 -320.7203 
L 450.872124 -321.125117 
L 450.880131 -321.529934 
L 450.911189 -321.934751 
L 450.957981 -322.339567 
L 451.01064 -322.744384 
L 451.0601 -323.149201 
L 451.100461 -323.554018 
L 451.129628 -323.958834 
L 451.210372 -323.958834 
L 451.210372 -323.958834 
L 451.239539 -323.554018 
L 451.2799 -323.149201 
L 451.32936 -322.744384 
L 451.382019 -322.339567 
L 451.428811 -321.934751 
L 451.459869 -321.529934 
L 451.467876 -321.125117 
L 451.450854 -320.7203 
L 451.412964 -320.315484 
L 451.362854 -319.910667 
L 451.310472 -319.50585 
L 451.26395 -319.101033 
L 451.227882 -318.696216 
L 451.203403 -318.2914 
L 451.189542 -317.886583 
L 451.185029 -317.481766 
L 451.189854 -317.076949 
L 451.206206 -316.672133 
L 451.238581 -316.267316 
L 451.292839 -315.862499 
L 451.374138 -315.457682 
L 451.484101 -315.052866 
L 451.618264 -314.648049 
L 451.765207 -314.243232 
L 451.908373 -313.838415 
L 452.030291 -313.433599 
L 452.117529 -313.028782 
L 452.16422 -312.623965 
L 452.172831 -312.219148 
L 452.152342 -311.814331 
L 452.115127 -311.409515 
L 452.073939 -311.004698 
L 452.039826 -310.599881 
L 452.021204 -310.195064 
L 452.024058 -309.790248 
L 452.053142 -309.385431 
L 452.113764 -308.980614 
L 452.213361 -308.575797 
L 452.361816 -308.170981 
L 452.569764 -307.766164 
L 452.844834 -307.361347 
L 453.186782 -306.95653 
L 453.583258 -306.551713 
L 454.008315 -306.146897 
L 454.425331 -305.74208 
L 454.794777 -305.337263 
L 455.085254 -304.932446 
L 455.284193 -304.52763 
L 455.403685 -304.122813 
L 455.478279 -303.717996 
L 455.55503 -303.313179 
L 455.679834 -302.908363 
L 455.885706 -302.503546 
L 456.187319 -302.098729 
L 456.58302 -301.693912 
L 457.062706 -301.289095 
L 457.618104 -300.884279 
L 458.250954 -300.479462 
L 458.974315 -300.074645 
L 459.804353 -299.669828 
L 460.745261 -299.265012 
L 461.776535 -298.860195 
L 462.854299 -298.455378 
L 463.93261 -298.050561 
L 464.997934 -297.645745 
L 466.098209 -297.240928 
L 467.346617 -296.836111 
L 468.892613 -296.431294 
L 470.87228 -296.026478 
L 473.363697 -295.621661 
L 476.370635 -295.216844 
L 479.840068 -294.812027 
L 483.697023 -294.40721 
L 487.869427 -294.002394 
L 492.284074 -293.597577 
L 496.837501 -293.19276 
L 501.36586 -292.787943 
L 505.63998 -292.383127 
L 509.393407 -291.97831 
L 512.366823 -291.573493 
L 514.341846 -291.168676 
L 515.1492 -290.76386 
L 514.65993 -290.359043 
L 512.783187 -289.954226 
L 509.487591 -289.549409 
L 504.841056 -289.144592 
L 499.044626 -288.739776 
L 492.434444 -288.334959 
L 485.442583 -287.930142 
L 478.528809 -287.525325 
L 472.107252 -287.120509 
L 466.489647 -286.715692 
L 461.85611 -286.310875 
L 458.253861 -285.906058 
L 455.618133 -285.501242 
L 453.807043 -285.096425 
L 452.641346 -284.691608 
L 451.940358 -284.286791 
L 451.54748 -283.881975 
z
" style="stroke: #595959; stroke-width: 1.25"/>
    </defs>
    <g clip-path="url(#pd28d04fffd)">
     <use xlink:href="#m35c8d05cf4" x="0" y="432" style="fill: #95a3c3; stroke: #595959; stroke-width: 1.25"/>
    </g>
   </g>
   <g id="PolyCollection_4">
    <defs>
     <path id="mc5407530d3" d="M 611.596279 -332.799686 
L 610.639721 -332.799686 
L 610.0778 -333.36239 
L 609.034415 -333.925095 
L 607.258033 -334.487799 
L 604.475387 -335.050503 
L 600.452179 -335.613207 
L 595.070358 -336.175912 
L 588.400653 -336.738616 
L 580.743688 -337.30132 
L 572.617725 -337.864024 
L 564.687848 -338.426729 
L 557.654276 -338.989433 
L 552.133202 -339.552137 
L 548.56135 -340.114841 
L 547.1388 -340.677546 
L 547.809996 -341.24025 
L 550.28121 -341.802954 
L 554.078024 -342.365658 
L 558.641949 -342.928363 
L 563.445885 -343.491067 
L 568.089489 -344.053771 
L 572.339621 -344.616475 
L 576.110666 -345.17918 
L 579.411872 -345.741884 
L 582.298274 -346.304588 
L 584.845002 -346.867292 
L 587.140959 -347.429997 
L 589.286118 -347.992701 
L 591.379873 -348.555405 
L 593.497929 -349.118109 
L 595.665489 -349.680814 
L 597.841517 -350.243518 
L 599.928007 -350.806222 
L 601.80606 -351.368926 
L 603.383068 -351.931631 
L 604.626447 -352.494335 
L 605.56784 -353.057039 
L 606.280685 -353.619743 
L 606.847717 -354.182448 
L 607.334501 -354.745152 
L 607.775923 -355.307856 
L 608.175078 -355.87056 
L 608.512315 -356.433265 
L 608.762099 -356.995969 
L 608.912744 -357.558673 
L 608.980449 -358.121377 
L 609.009269 -358.684082 
L 609.054864 -359.246786 
L 609.159149 -359.80949 
L 609.329322 -360.372194 
L 609.533429 -360.934899 
L 609.715749 -361.497603 
L 609.82407 -362.060307 
L 609.834526 -362.623011 
L 609.761762 -363.185716 
L 609.650785 -363.74842 
L 609.55608 -364.311124 
L 609.518725 -364.873828 
L 609.551729 -365.436533 
L 609.639272 -365.999237 
L 609.749073 -366.561941 
L 609.851161 -367.124645 
L 609.933252 -367.68735 
L 610.004709 -368.250054 
L 610.087634 -368.812758 
L 610.201361 -369.375462 
L 610.350176 -369.938167 
L 610.521074 -370.500871 
L 610.691198 -371.063575 
L 610.838886 -371.626279 
L 610.951619 -372.188984 
L 611.0278 -372.751688 
L 611.073601 -373.314392 
L 611.098184 -373.877097 
L 611.10999 -374.439801 
L 611.115071 -375.002505 
L 611.117032 -375.565209 
L 611.117711 -376.127914 
L 611.117921 -376.690618 
L 611.117973 -377.253322 
L 611.11796 -377.816026 
L 611.117861 -378.378731 
L 611.117527 -378.941435 
L 611.116545 -379.504139 
L 611.11398 -380.066843 
L 611.10803 -380.629548 
L 611.095801 -381.192252 
L 611.073632 -381.754956 
L 611.038399 -382.31766 
L 610.989803 -382.880365 
L 610.932672 -383.443069 
L 610.877502 -384.005773 
L 610.83785 -384.568477 
L 610.82506 -385.131182 
L 610.843038 -385.693886 
L 610.886327 -386.25659 
L 610.942779 -386.819294 
L 610.999039 -387.381999 
L 611.045501 -387.944703 
L 611.078339 -388.507407 
L 611.157661 -388.507407 
L 611.157661 -388.507407 
L 611.190499 -387.944703 
L 611.236961 -387.381999 
L 611.293221 -386.819294 
L 611.349673 -386.25659 
L 611.392962 -385.693886 
L 611.41094 -385.131182 
L 611.39815 -384.568477 
L 611.358498 -384.005773 
L 611.303328 -383.443069 
L 611.246197 -382.880365 
L 611.197601 -382.31766 
L 611.162368 -381.754956 
L 611.140199 -381.192252 
L 611.12797 -380.629548 
L 611.12202 -380.066843 
L 611.119455 -379.504139 
L 611.118473 -378.941435 
L 611.118139 -378.378731 
L 611.11804 -377.816026 
L 611.118027 -377.253322 
L 611.118079 -376.690618 
L 611.118289 -376.127914 
L 611.118968 -375.565209 
L 611.120929 -375.002505 
L 611.12601 -374.439801 
L 611.137816 -373.877097 
L 611.162399 -373.314392 
L 611.2082 -372.751688 
L 611.284381 -372.188984 
L 611.397114 -371.626279 
L 611.544802 -371.063575 
L 611.714926 -370.500871 
L 611.885824 -369.938167 
L 612.034639 -369.375462 
L 612.148366 -368.812758 
L 612.231291 -368.250054 
L 612.302748 -367.68735 
L 612.384839 -367.124645 
L 612.486927 -366.561941 
L 612.596728 -365.999237 
L 612.684271 -365.436533 
L 612.717275 -364.873828 
L 612.67992 -364.311124 
L 612.585215 -363.74842 
L 612.474238 -363.185716 
L 612.401474 -362.623011 
L 612.41193 -362.060307 
L 612.520251 -361.497603 
L 612.702571 -360.934899 
L 612.906678 -360.372194 
L 613.076851 -359.80949 
L 613.181136 -359.246786 
L 613.226731 -358.684082 
L 613.255551 -358.121377 
L 613.323256 -357.558673 
L 613.473901 -356.995969 
L 613.723685 -356.433265 
L 614.060922 -355.87056 
L 614.460077 -355.307856 
L 614.901499 -354.745152 
L 615.388283 -354.182448 
L 615.955315 -353.619743 
L 616.66816 -353.057039 
L 617.609553 -352.494335 
L 618.852932 -351.931631 
L 620.42994 -351.368926 
L 622.307993 -350.806222 
L 624.394483 -350.243518 
L 626.570511 -349.680814 
L 628.738071 -349.118109 
L 630.856127 -348.555405 
L 632.949882 -347.992701 
L 635.095041 -347.429997 
L 637.390998 -346.867292 
L 639.937726 -346.304588 
L 642.824128 -345.741884 
L 646.125334 -345.17918 
L 649.896379 -344.616475 
L 654.146511 -344.053771 
L 658.790115 -343.491067 
L 663.594051 -342.928363 
L 668.157976 -342.365658 
L 671.95479 -341.802954 
L 674.426004 -341.24025 
L 675.0972 -340.677546 
L 673.67465 -340.114841 
L 670.102798 -339.552137 
L 664.581724 -338.989433 
L 657.548152 -338.426729 
L 649.618275 -337.864024 
L 641.492312 -337.30132 
L 633.835347 -336.738616 
L 627.165642 -336.175912 
L 621.783821 -335.613207 
L 617.760613 -335.050503 
L 614.977967 -334.487799 
L 613.201585 -333.925095 
L 612.1582 -333.36239 
L 611.596279 -332.799686 
z
" style="stroke: #595959; stroke-width: 1.25"/>
    </defs>
    <g clip-path="url(#pd28d04fffd)">
     <use xlink:href="#mc5407530d3" x="0" y="432" style="fill: #db96c0; stroke: #595959; stroke-width: 1.25"/>
    </g>
   </g>
   <g id="PolyCollection_5">
    <defs>
     <path id="maae26eedf6" d="M 771.310648 -290.188816 
L 770.821352 -290.188816 
L 770.537697 -290.634215 
L 770.00541 -291.079615 
L 769.08234 -291.525014 
L 767.600177 -291.970413 
L 765.3905 -292.415813 
L 762.320142 -292.861212 
L 758.324075 -293.306611 
L 753.423605 -293.752011 
L 747.725928 -294.19741 
L 741.412904 -294.642809 
L 734.732309 -295.088209 
L 727.9975 -295.533608 
L 721.586293 -295.979008 
L 715.920701 -296.424407 
L 711.416151 -296.869806 
L 708.408731 -297.315206 
L 707.0868 -297.760605 
L 707.455589 -298.206004 
L 709.348761 -298.651404 
L 712.479899 -299.096803 
L 716.511918 -299.542202 
L 721.11969 -299.987602 
L 726.028943 -300.433001 
L 731.026956 -300.878401 
L 735.951704 -301.3238 
L 740.672076 -301.769199 
L 745.071367 -302.214599 
L 749.041047 -302.659998 
L 752.485254 -303.105397 
L 755.331911 -303.550797 
L 757.545317 -303.996196 
L 759.136516 -304.441595 
L 760.169141 -304.886995 
L 760.758311 -305.332394 
L 761.059427 -305.777793 
L 761.244901 -306.223193 
L 761.471503 -306.668592 
L 761.847313 -307.113992 
L 762.410745 -307.559391 
L 763.131198 -308.00479 
L 763.931815 -308.45019 
L 764.724804 -308.895589 
L 765.444318 -309.340988 
L 766.064172 -309.786388 
L 766.595707 -310.231787 
L 767.07033 -310.677186 
L 767.517202 -311.122586 
L 767.946839 -311.567985 
L 768.347079 -312.013385 
L 768.691475 -312.458784 
L 768.954741 -312.904183 
L 769.127355 -313.349583 
L 769.222444 -313.794982 
L 769.27204 -314.240381 
L 769.314942 -314.685781 
L 769.382323 -315.13118 
L 769.487723 -315.576579 
L 769.625144 -316.021979 
L 769.774558 -316.467378 
L 769.911091 -316.912777 
L 770.013915 -317.358177 
L 770.072531 -317.803576 
L 770.089814 -318.248976 
L 770.081567 -318.694375 
L 770.072151 -319.139774 
L 770.086429 -319.585174 
L 770.140267 -320.030573 
L 770.233567 -320.475972 
L 770.349505 -320.921372 
L 770.460893 -321.366771 
L 770.541063 -321.81217 
L 770.57458 -322.25757 
L 770.563336 -322.702969 
L 770.525687 -323.148369 
L 770.489064 -323.593768 
L 770.479203 -324.039167 
L 770.510585 -324.484567 
L 770.582217 -324.929966 
L 770.680154 -325.375365 
L 770.784747 -325.820765 
L 770.878492 -326.266164 
L 770.950829 -326.711563 
L 770.998642 -327.156963 
L 771.023674 -327.602362 
L 771.02915 -328.047762 
L 771.017566 -328.493161 
L 770.990439 -328.93856 
L 770.949713 -329.38396 
L 770.89974 -329.829359 
L 770.84837 -330.274758 
L 770.806051 -330.720158 
L 770.782875 -331.165557 
L 770.784864 -331.610956 
L 770.8115 -332.056356 
L 770.855966 -332.501755 
L 770.907976 -332.947154 
L 770.957612 -333.392554 
L 770.998225 -333.837953 
L 771.027364 -334.283353 
L 771.104636 -334.283353 
L 771.104636 -334.283353 
L 771.133775 -333.837953 
L 771.174388 -333.392554 
L 771.224024 -332.947154 
L 771.276034 -332.501755 
L 771.3205 -332.056356 
L 771.347136 -331.610956 
L 771.349125 -331.165557 
L 771.325949 -330.720158 
L 771.28363 -330.274758 
L 771.23226 -329.829359 
L 771.182287 -329.38396 
L 771.141561 -328.93856 
L 771.114434 -328.493161 
L 771.10285 -328.047762 
L 771.108326 -327.602362 
L 771.133358 -327.156963 
L 771.181171 -326.711563 
L 771.253508 -326.266164 
L 771.347253 -325.820765 
L 771.451846 -325.375365 
L 771.549783 -324.929966 
L 771.621415 -324.484567 
L 771.652797 -324.039167 
L 771.642936 -323.593768 
L 771.606313 -323.148369 
L 771.568664 -322.702969 
L 771.55742 -322.25757 
L 771.590937 -321.81217 
L 771.671107 -321.366771 
L 771.782495 -320.921372 
L 771.898433 -320.475972 
L 771.991733 -320.030573 
L 772.045571 -319.585174 
L 772.059849 -319.139774 
L 772.050433 -318.694375 
L 772.042186 -318.248976 
L 772.059469 -317.803576 
L 772.118085 -317.358177 
L 772.220909 -316.912777 
L 772.357442 -316.467378 
L 772.506856 -316.021979 
L 772.644277 -315.576579 
L 772.749677 -315.13118 
L 772.817058 -314.685781 
L 772.85996 -314.240381 
L 772.909556 -313.794982 
L 773.004645 -313.349583 
L 773.177259 -312.904183 
L 773.440525 -312.458784 
L 773.784921 -312.013385 
L 774.185161 -311.567985 
L 774.614798 -311.122586 
L 775.06167 -310.677186 
L 775.536293 -310.231787 
L 776.067828 -309.786388 
L 776.687682 -309.340988 
L 777.407196 -308.895589 
L 778.200185 -308.45019 
L 779.000802 -308.00479 
L 779.721255 -307.559391 
L 780.284687 -307.113992 
L 780.660497 -306.668592 
L 780.887099 -306.223193 
L 781.072573 -305.777793 
L 781.373689 -305.332394 
L 781.962859 -304.886995 
L 782.995484 -304.441595 
L 784.586683 -303.996196 
L 786.800089 -303.550797 
L 789.646746 -303.105397 
L 793.090953 -302.659998 
L 797.060633 -302.214599 
L 801.459924 -301.769199 
L 806.180296 -301.3238 
L 811.105044 -300.878401 
L 816.103057 -300.433001 
L 821.01231 -299.987602 
L 825.620082 -299.542202 
L 829.652101 -299.096803 
L 832.783239 -298.651404 
L 834.676411 -298.206004 
L 835.0452 -297.760605 
L 833.723269 -297.315206 
L 830.715849 -296.869806 
L 826.211299 -296.424407 
L 820.545707 -295.979008 
L 814.1345 -295.533608 
L 807.399691 -295.088209 
L 800.719096 -294.642809 
L 794.406072 -294.19741 
L 788.708395 -293.752011 
L 783.807925 -293.306611 
L 779.811858 -292.861212 
L 776.7415 -292.415813 
L 774.531823 -291.970413 
L 773.04966 -291.525014 
L 772.12659 -291.079615 
L 771.594303 -290.634215 
L 771.310648 -290.188816 
z
" style="stroke: #595959; stroke-width: 1.25"/>
    </defs>
    <g clip-path="url(#pd28d04fffd)">
     <use xlink:href="#maae26eedf6" x="0" y="432" style="fill: #a2c865; stroke: #595959; stroke-width: 1.25"/>
    </g>
   </g>
   <g id="line2d_8">
    <path d="M 131.274 342.137108 
L 131.274 343.846874 
" clip-path="url(#pd28d04fffd)" style="fill: none; stroke: #000000"/>
   </g>
   <g id="line2d_9">
    <path d="M 131.274 339.119112 
L 131.274 334.676312 
" clip-path="url(#pd28d04fffd)" style="fill: none; stroke: #000000"/>
   </g>
   <g id="line2d_10">
    <path d="M 125.27595 343.846874 
L 137.27205 343.846874 
" clip-path="url(#pd28d04fffd)" style="fill: none; stroke: #000000; stroke-linecap: round"/>
   </g>
   <g id="line2d_11">
    <path d="M 125.27595 334.676312 
L 137.27205 334.676312 
" clip-path="url(#pd28d04fffd)" style="fill: none; stroke: #000000; stroke-linecap: round"/>
   </g>
   <g id="line2d_12">
    <path d="M 291.222 359.752878 
L 291.222 360.530045 
" clip-path="url(#pd28d04fffd)" style="fill: none; stroke: #000000"/>
   </g>
   <g id="line2d_13">
    <path d="M 291.222 358.768468 
L 291.222 357.317757 
" clip-path="url(#pd28d04fffd)" style="fill: none; stroke: #000000"/>
   </g>
   <g id="line2d_14">
    <path d="M 285.22395 360.530045 
L 297.22005 360.530045 
" clip-path="url(#pd28d04fffd)" style="fill: none; stroke: #000000; stroke-linecap: round"/>
   </g>
   <g id="line2d_15">
    <path d="M 285.22395 357.317757 
L 297.22005 357.317757 
" clip-path="url(#pd28d04fffd)" style="fill: none; stroke: #000000; stroke-linecap: round"/>
   </g>
   <g id="line2d_16">
    <path d="M 451.17 142.198117 
L 451.17 145.358594 
" clip-path="url(#pd28d04fffd)" style="fill: none; stroke: #000000"/>
   </g>
   <g id="line2d_17">
    <path d="M 451.17 137.6776 
L 451.17 130.955111 
" clip-path="url(#pd28d04fffd)" style="fill: none; stroke: #000000"/>
   </g>
   <g id="line2d_18">
    <path d="M 445.17195 145.358594 
L 457.16805 145.358594 
" clip-path="url(#pd28d04fffd)" style="fill: none; stroke: #000000; stroke-linecap: round"/>
   </g>
   <g id="line2d_19">
    <path d="M 445.17195 130.955111 
L 457.16805 130.955111 
" clip-path="url(#pd28d04fffd)" style="fill: none; stroke: #000000; stroke-linecap: round"/>
   </g>
   <g id="line2d_20">
    <path d="M 611.118 92.057936 
L 611.118 95.775382 
" clip-path="url(#pd28d04fffd)" style="fill: none; stroke: #000000"/>
   </g>
   <g id="line2d_21">
    <path d="M 611.118 86.540055 
L 611.118 78.315045 
" clip-path="url(#pd28d04fffd)" style="fill: none; stroke: #000000"/>
   </g>
   <g id="line2d_22">
    <path d="M 605.11995 95.775382 
L 617.11605 95.775382 
" clip-path="url(#pd28d04fffd)" style="fill: none; stroke: #000000; stroke-linecap: round"/>
   </g>
   <g id="line2d_23">
    <path d="M 605.11995 78.315045 
L 617.11605 78.315045 
" clip-path="url(#pd28d04fffd)" style="fill: none; stroke: #000000; stroke-linecap: round"/>
   </g>
   <g id="line2d_24">
    <path d="M 771.066 135.099998 
L 771.066 138.882208 
" clip-path="url(#pd28d04fffd)" style="fill: none; stroke: #000000"/>
   </g>
   <g id="line2d_25">
    <path d="M 771.066 130.851489 
L 771.066 124.530536 
" clip-path="url(#pd28d04fffd)" style="fill: none; stroke: #000000"/>
   </g>
   <g id="line2d_26">
    <path d="M 765.06795 138.882208 
L 777.06405 138.882208 
" clip-path="url(#pd28d04fffd)" style="fill: none; stroke: #000000; stroke-linecap: round"/>
   </g>
   <g id="line2d_27">
    <path d="M 765.06795 124.530536 
L 777.06405 124.530536 
" clip-path="url(#pd28d04fffd)" style="fill: none; stroke: #000000; stroke-linecap: round"/>
   </g>
   <g id="line2d_28">
    <path d="M 119.2779 341.230414 
L 143.2701 341.230414 
" clip-path="url(#pd28d04fffd)" style="fill: none; stroke: #ff0000; stroke-width: 2"/>
   </g>
   <g id="line2d_29">
    <path d="M 279.2259 359.545634 
L 303.2181 359.545634 
" clip-path="url(#pd28d04fffd)" style="fill: none; stroke: #ff0000; stroke-width: 2"/>
   </g>
   <g id="line2d_30">
    <path d="M 439.1739 140.281107 
L 463.1661 140.281107 
" clip-path="url(#pd28d04fffd)" style="fill: none; stroke: #ff0000; stroke-width: 2"/>
   </g>
   <g id="line2d_31">
    <path d="M 599.1219 90.076162 
L 623.1141 90.076162 
" clip-path="url(#pd28d04fffd)" style="fill: none; stroke: #ff0000; stroke-width: 2"/>
   </g>
   <g id="line2d_32">
    <path d="M 759.0699 133.364327 
L 783.0621 133.364327 
" clip-path="url(#pd28d04fffd)" style="fill: none; stroke: #ff0000; stroke-width: 2"/>
   </g>
   <g id="patch_3">
    <path d="M 51.3 377.237044 
L 51.3 27.6 
" style="fill: none; stroke: #cccccc; stroke-width: 1.25; stroke-linejoin: miter; stroke-linecap: square"/>
   </g>
   <g id="patch_4">
    <path d="M 851.04 377.237044 
L 851.04 27.6 
" style="fill: none; stroke: #cccccc; stroke-width: 1.25; stroke-linejoin: miter; stroke-linecap: square"/>
   </g>
   <g id="patch_5">
    <path d="M 51.3 377.237044 
L 851.04 377.237044 
" style="fill: none; stroke: #cccccc; stroke-width: 1.25; stroke-linejoin: miter; stroke-linecap: square"/>
   </g>
   <g id="patch_6">
    <path d="M 51.3 27.6 
L 851.04 27.6 
" style="fill: none; stroke: #cccccc; stroke-width: 1.25; stroke-linejoin: miter; stroke-linecap: square"/>
   </g>
   <g id="text_14">
    <!-- Handshake duration on TLS with mldsa65 signature algorithm — ideal conditions -->
    <g style="fill: #262626" transform="translate(208.127812 21.6) scale(0.12 -0.12)">
     <defs>
      <path id="DejaVuSans-54" d="M -19 4666 
L 3928 4666 
L 3928 4134 
L 2272 4134 
L 2272 0 
L 1638 0 
L 1638 4134 
L -19 4134 
L -19 4666 
z
" transform="scale(0.015625)"/>
      <path id="DejaVuSans-4c" d="M 628 4666 
L 1259 4666 
L 1259 531 
L 3531 531 
L 3531 0 
L 628 0 
L 628 4666 
z
" transform="scale(0.015625)"/>
      <path id="DejaVuSans-53" d="M 3425 4513 
L 3425 3897 
Q 3066 4069 2747 4153 
Q 2428 4238 2131 4238 
Q 1616 4238 1336 4038 
Q 1056 3838 1056 3469 
Q 1056 3159 1242 3001 
Q 1428 2844 1947 2747 
L 2328 2669 
Q 3034 2534 3370 2195 
Q 3706 1856 3706 1288 
Q 3706 609 3251 259 
Q 2797 -91 1919 -91 
Q 1588 -91 1214 -16 
Q 841 59 441 206 
L 441 856 
Q 825 641 1194 531 
Q 1563 422 1919 422 
Q 2459 422 2753 634 
Q 3047 847 3047 1241 
Q 3047 1584 2836 1778 
Q 2625 1972 2144 2069 
L 1759 2144 
Q 1053 2284 737 2584 
Q 422 2884 422 3419 
Q 422 4038 858 4394 
Q 1294 4750 2059 4750 
Q 2388 4750 2728 4690 
Q 3069 4631 3425 4513 
z
" transform="scale(0.015625)"/>
      <path id="DejaVuSans-77" d="M 269 3500 
L 844 3500 
L 1563 769 
L 2278 3500 
L 2956 3500 
L 3675 769 
L 4391 3500 
L 4966 3500 
L 4050 0 
L 3372 0 
L 2619 2869 
L 1863 0 
L 1184 0 
L 269 3500 
z
" transform="scale(0.015625)"/>
      <path id="DejaVuSans-6c" d="M 603 4863 
L 1178 4863 
L 1178 0 
L 603 0 
L 603 4863 
z
" transform="scale(0.015625)"/>
      <path id="DejaVuSans-67" d="M 2906 1791 
Q 2906 2416 2648 2759 
Q 2391 3103 1925 3103 
Q 1463 3103 1205 2759 
Q 947 2416 947 1791 
Q 947 1169 1205 825 
Q 1463 481 1925 481 
Q 2391 481 2648 825 
Q 2906 1169 2906 1791 
z
M 3481 434 
Q 3481 -459 3084 -895 
Q 2688 -1331 1869 -1331 
Q 1566 -1331 1297 -1286 
Q 1028 -1241 775 -1147 
L 775 -588 
Q 1028 -725 1275 -790 
Q 1522 -856 1778 -856 
Q 2344 -856 2625 -561 
Q 2906 -266 2906 331 
L 2906 616 
Q 2728 306 2450 153 
Q 2172 0 1784 0 
Q 1141 0 747 490 
Q 353 981 353 1791 
Q 353 2603 747 3093 
Q 1141 3584 1784 3584 
Q 2172 3584 2450 3431 
Q 2728 3278 2906 2969 
L 2906 3500 
L 3481 3500 
L 3481 434 
z
" transform="scale(0.015625)"/>
      <path id="DejaVuSans-2014" d="M 313 1978 
L 6088 1978 
L 6088 1528 
L 313 1528 
L 313 1978 
z
" transform="scale(0.015625)"/>
     </defs>
     <use xlink:href="#DejaVuSans-48"/>
     <use xlink:href="#DejaVuSans-61" x="75.195312"/>
     <use xlink:href="#DejaVuSans-6e" x="136.474609"/>
     <use xlink:href="#DejaVuSans-64" x="199.853516"/>
     <use xlink:href="#DejaVuSans-73" x="263.330078"/>
     <use xlink:href="#DejaVuSans-68" x="315.429688"/>
     <use xlink:href="#DejaVuSans-61" x="378.808594"/>
     <use xlink:href="#DejaVuSans-6b" x="440.087891"/>
     <use xlink:href="#DejaVuSans-65" x="494.373047"/>
     <use xlink:href="#DejaVuSans-20" x="555.896484"/>
     <use xlink:href="#DejaVuSans-64" x="587.683594"/>
     <use xlink:href="#DejaVuSans-75" x="651.160156"/>
     <use xlink:href="#DejaVuSans-72" x="714.539062"/>
     <use xlink:href="#DejaVuSans-61" x="755.652344"/>
     <use xlink:href="#DejaVuSans-74" x="816.931641"/>
     <use xlink:href="#DejaVuSans-69" x="856.140625"/>
     <use xlink:href="#DejaVuSans-6f" x="883.923828"/>
     <use xlink:href="#DejaVuSans-6e" x="945.105469"/>
     <use xlink:href="#DejaVuSans-20" x="1008.484375"/>
     <use xlink:href="#DejaVuSans-6f" x="1040.271484"/>
     <use xlink:href="#DejaVuSans-6e" x="1101.453125"/>
     <use xlink:href="#DejaVuSans-20" x="1164.832031"/>
     <use xlink:href="#DejaVuSans-54" x="1196.619141"/>
     <use xlink:href="#DejaVuSans-4c" x="1257.703125"/>
     <use xlink:href="#DejaVuSans-53" x="1313.416016"/>
     <use xlink:href="#DejaVuSans-20" x="1376.892578"/>
     <use xlink:href="#DejaVuSans-77" x="1408.679688"/>
     <use xlink:href="#DejaVuSans-69" x="1490.466797"/>
     <use xlink:href="#DejaVuSans-74" x="1518.25"/>
     <use xlink:href="#DejaVuSans-68" x="1557.458984"/>
     <use xlink:href="#DejaVuSans-20" x="1620.837891"/>
     <use xlink:href="#DejaVuSans-6d" x="1652.625"/>
     <use xlink:href="#DejaVuSans-6c" x="1750.037109"/>
     <use xlink:href="#DejaVuSans-64" x="1777.820312"/>
     <use xlink:href="#DejaVuSans-73" x="1841.296875"/>
     <use xlink:href="#DejaVuSans-61" x="1893.396484"/>
     <use xlink:href="#DejaVuSans-36" x="1954.675781"/>
     <use xlink:href="#DejaVuSans-35" x="2018.298828"/>
     <use xlink:href="#DejaVuSans-20" x="2081.921875"/>
     <use xlink:href="#DejaVuSans-73" x="2113.708984"/>
     <use xlink:href="#DejaVuSans-69" x="2165.808594"/>
     <use xlink:href="#DejaVuSans-67" x="2193.591797"/>
     <use xlink:href="#DejaVuSans-6e" x="2257.068359"/>
     <use xlink:href="#DejaVuSans-61" x="2320.447266"/>
     <use xlink:href="#DejaVuSans-74" x="2381.726562"/>
     <use xlink:href="#DejaVuSans-75" x="2420.935547"/>
     <use xlink:href="#DejaVuSans-72" x="2484.314453"/>
     <use xlink:href="#DejaVuSans-65" x="2523.177734"/>
     <use xlink:href="#DejaVuSans-20" x="2584.701172"/>
     <use xlink:href="#DejaVuSans-61" x="2616.488281"/>
     <use xlink:href="#DejaVuSans-6c" x="2677.767578"/>
     <use xlink:href="#DejaVuSans-67" x="2705.550781"/>
     <use xlink:href="#DejaVuSans-6f" x="2769.027344"/>
     <use xlink:href="#DejaVuSans-72" x="2830.208984"/>
     <use xlink:href="#DejaVuSans-69" x="2871.322266"/>
     <use xlink:href="#DejaVuSans-74" x="2899.105469"/>
     <use xlink:href="#DejaVuSans-68" x="2938.314453"/>
     <use xlink:href="#DejaVuSans-6d" x="3001.693359"/>
     <use xlink:href="#DejaVuSans-20" x="3099.105469"/>
     <use xlink:href="#DejaVuSans-2014" x="3130.892578"/>
     <use xlink:href="#DejaVuSans-20" x="3230.892578"/>
     <use xlink:href="#DejaVuSans-69" x="3262.679688"/>
     <use xlink:href="#DejaVuSans-64" x="3290.462891"/>
     <use xlink:href="#DejaVuSans-65" x="3353.939453"/>
     <use xlink:href="#DejaVuSans-61" x="3415.462891"/>
     <use xlink:href="#DejaVuSans-6c" x="3476.742188"/>
     <use xlink:href="#DejaVuSans-20" x="3504.525391"/>
     <use xlink:href="#DejaVuSans-63" x="3536.3125"/>
     <use xlink:href="#DejaVuSans-6f" x="3591.292969"/>
     <use xlink:href="#DejaVuSans-6e" x="3652.474609"/>
     <use xlink:href="#DejaVuSans-64" x="3715.853516"/>
     <use xlink:href="#DejaVuSans-69" x="3779.330078"/>
     <use xlink:href="#DejaVuSans-74" x="3807.113281"/>
     <use xlink:href="#DejaVuSans-69" x="3846.322266"/>
     <use xlink:href="#DejaVuSans-6f" x="3874.105469"/>
     <use xlink:href="#DejaVuSans-6e" x="3935.287109"/>
     <use xlink:href="#DejaVuSans-73" x="3998.666016"/>
    </g>
   </g>
  </g>
 </g>
 <defs>
  <clipPath id="pd28d04fffd">
   <rect x="51.3" y="27.6" width="799.74" height="349.637044"/>
  </clipPath>
 </defs>
</svg>
