<?xml version="1.0" encoding="utf-8" standalone="no"?>
<!DOCTYPE svg PUBLIC "-//W3C//DTD SVG 1.1//EN"
  "http://www.w3.org/Graphics/SVG/1.1/DTD/svg11.dtd">
<svg xmlns:xlink="http://www.w3.org/1999/xlink" width="864pt" height="432pt" viewBox="0 0 864 432" xmlns="http://www.w3.org/2000/svg" version="1.1">
 <metadata>
  <rdf:RDF xmlns:dc="http://purl.org/dc/elements/1.1/" xmlns:cc="http://creativecommons.org/ns#" xmlns:rdf="http://www.w3.org/1999/02/22-rdf-syntax-ns#">
   <cc:Work>
    <dc:type rdf:resource="http://purl.org/dc/dcmitype/StillImage"/>
    <dc:date>2026-03-21T14:06:20.495509</dc:date>
    <dc:format>image/svg+xml</dc:format>
    <dc:creator>
     <cc:Agent>
      <dc:title>Matplotlib v3.6.3, https://matplotlib.org/</dc:title>
     </cc:Agent>
    </dc:creator>
   </cc:Work>
  </rdf:RDF>
 </metadata>
 <defs>
  <style type="text/css">*{stroke-linejoin: round; stroke-linecap: butt}</style>
 </defs>
 <g id="figure_1">
  <g id="patch_1">
   <path d="M 0 432 
L 864 432 
L 864 0 
L 0 0 
z
" style="fill: #ffffff"/>
  </g>
  <g id="axes_1">
   <g id="patch_2">
    <path d="M 58.32 373.416875 
L 851.04 373.416875 
L 851.04 27.6 
L 58.32 27.6 
z
" style="fill: #ffffff"/>
   </g>
   <g id="matplotlib.axis_1">
    <g id="xtick_1">
     <g id="text_1">
      <!-- P-256 -->
      <g style="fill: #262626" transform="translate(103.911421 400.575919) rotate(-15) scale(0.12 -0.12)">
       <defs>
        <path id="DejaVuSans-50" d="M 1259 4147 
L 1259 2394 
L 2053 2394 
Q 2494 2394 2734 2622 
Q 2975 2850 2975 3272 
Q 2975 3691 2734 3919 
Q 2494 4147 2053 4147 
L 1259 4147 
z
M 628 4666 
L 2053 4666 
Q 2838 4666 3239 4311 
Q 3641 3956 3641 3272 
Q 3641 2581 3239 2228 
Q 2838 1875 2053 1875 
L 1259 1875 
L 1259 0 
L 628 0 
L 628 4666 
z
" transform="scale(0.015625)"/>
        <path id="DejaVuSans-2d" d="M 313 2009 
L 1997 2009 
L 1997 1497 
L 313 1497 
L 313 2009 
z
" transform="scale(0.015625)"/>
        <path id="DejaVuSans-32" d="M 1228 531 
L 3431 531 
L 3431 0 
L 469 0 
L 469 531 
Q 828 903 1448 1529 
Q 2069 2156 2228 2338 
Q 2531 2678 2651 2914 
Q 2772 3150 2772 3378 
Q 2772 3750 2511 3984 
Q 2250 4219 1831 4219 
Q 1534 4219 1204 4116 
Q 875 4013 500 3803 
L 500 4441 
Q 881 4594 1212 4672 
Q 1544 4750 1819 4750 
Q 2544 4750 2975 4387 
Q 3406 4025 3406 3419 
Q 3406 3131 3298 2873 
Q 3191 2616 2906 2266 
Q 2828 2175 2409 1742 
Q 1991 1309 1228 531 
z
" transform="scale(0.015625)"/>
        <path id="DejaVuSans-35" d="M 691 4666 
L 3169 4666 
L 3169 4134 
L 1269 4134 
L 1269 2991 
Q 1406 3038 1543 3061 
Q 1681 3084 1819 3084 
Q 2600 3084 3056 2656 
Q 3513 2228 3513 1497 
Q 3513 744 3044 326 
Q 2575 -91 1722 -91 
Q 1428 -91 1123 -41 
Q 819 9 494 109 
L 494 744 
Q 775 591 1075 516 
Q 1375 441 1709 441 
Q 2250 441 2565 725 
Q 2881 1009 2881 1497 
Q 2881 1984 2565 2268 
Q 2250 2553 1709 2553 
Q 1456 2553 1204 2497 
Q 953 2441 691 2322 
L 691 4666 
z
" transform="scale(0.015625)"/>
        <path id="DejaVuSans-36" d="M 2113 2584 
Q 1688 2584 1439 2293 
Q 1191 2003 1191 1497 
Q 1191 994 1439 701 
Q 1688 409 2113 409 
Q 2538 409 2786 701 
Q 3034 994 3034 1497 
Q 3034 2003 2786 2293 
Q 2538 2584 2113 2584 
z
M 3366 4563 
L 3366 3988 
Q 3128 4100 2886 4159 
Q 2644 4219 2406 4219 
Q 1781 4219 1451 3797 
Q 1122 3375 1075 2522 
Q 1259 2794 1537 2939 
Q 1816 3084 2150 3084 
Q 2853 3084 3261 2657 
Q 3669 2231 3669 1497 
Q 3669 778 3244 343 
Q 2819 -91 2113 -91 
Q 1303 -91 875 529 
Q 447 1150 447 2328 
Q 447 3434 972 4092 
Q 1497 4750 2381 4750 
Q 2619 4750 2861 4703 
Q 3103 4656 3366 4563 
z
" transform="scale(0.015625)"/>
       </defs>
       <use xlink:href="#DejaVuSans-50"/>
       <use xlink:href="#DejaVuSans-2d" x="58.052734"/>
       <use xlink:href="#DejaVuSans-32" x="94.136719"/>
       <use xlink:href="#DejaVuSans-35" x="157.759766"/>
       <use xlink:href="#DejaVuSans-36" x="221.382812"/>
      </g>
     </g>
    </g>
    <g id="xtick_2">
     <g id="text_2">
      <!-- x25519 -->
      <g style="fill: #262626" transform="translate(251.755378 403.442987) rotate(-15) scale(0.12 -0.12)">
       <defs>
        <path id="DejaVuSans-78" d="M 3513 3500 
L 2247 1797 
L 3578 0 
L 2900 0 
L 1881 1375 
L 863 0 
L 184 0 
L 1544 1831 
L 300 3500 
L 978 3500 
L 1906 2253 
L 2834 3500 
L 3513 3500 
z
" transform="scale(0.015625)"/>
        <path id="DejaVuSans-31" d="M 794 531 
L 1825 531 
L 1825 4091 
L 703 3866 
L 703 4441 
L 1819 4666 
L 2450 4666 
L 2450 531 
L 3481 531 
L 3481 0 
L 794 0 
L 794 531 
z
" transform="scale(0.015625)"/>
        <path id="DejaVuSans-39" d="M 703 97 
L 703 672 
Q 941 559 1184 500 
Q 1428 441 1663 441 
Q 2288 441 2617 861 
Q 2947 1281 2994 2138 
Q 2813 1869 2534 1725 
Q 2256 1581 1919 1581 
Q 1219 1581 811 2004 
Q 403 2428 403 3163 
Q 403 3881 828 4315 
Q 1253 4750 1959 4750 
Q 2769 4750 3195 4129 
Q 3622 3509 3622 2328 
Q 3622 1225 3098 567 
Q 2575 -91 1691 -91 
Q 1453 -91 1209 -44 
Q 966 3 703 97 
z
M 1959 2075 
Q 2384 2075 2632 2365 
Q 2881 2656 2881 3163 
Q 2881 3666 2632 3958 
Q 2384 4250 1959 4250 
Q 1534 4250 1286 3958 
Q 1038 3666 1038 3163 
Q 1038 2656 1286 2365 
Q 1534 2075 1959 2075 
z
" transform="scale(0.015625)"/>
       </defs>
       <use xlink:href="#DejaVuSans-78"/>
       <use xlink:href="#DejaVuSans-32" x="59.179688"/>
       <use xlink:href="#DejaVuSans-35" x="122.802734"/>
       <use xlink:href="#DejaVuSans-35" x="186.425781"/>
       <use xlink:href="#DejaVuSans-31" x="250.048828"/>
       <use xlink:href="#DejaVuSans-39" x="313.671875"/>
      </g>
     </g>
    </g>
    <g id="xtick_3">
     <g id="text_3">
      <!-- hqc128 -->
      <g style="fill: #262626" transform="translate(410.831845 403.300313) rotate(-15) scale(0.12 -0.12)">
       <defs>
        <path id="DejaVuSans-68" d="M 3513 2113 
L 3513 0 
L 2938 0 
L 2938 2094 
Q 2938 2591 2744 2837 
Q 2550 3084 2163 3084 
Q 1697 3084 1428 2787 
Q 1159 2491 1159 1978 
L 1159 0 
L 581 0 
L 581 4863 
L 1159 4863 
L 1159 2956 
Q 1366 3272 1645 3428 
Q 1925 3584 2291 3584 
Q 2894 3584 3203 3211 
Q 3513 2838 3513 2113 
z
" transform="scale(0.015625)"/>
        <path id="DejaVuSans-71" d="M 947 1747 
Q 947 1113 1208 752 
Q 1469 391 1925 391 
Q 2381 391 2643 752 
Q 2906 1113 2906 1747 
Q 2906 2381 2643 2742 
Q 2381 3103 1925 3103 
Q 1469 3103 1208 2742 
Q 947 2381 947 1747 
z
M 2906 525 
Q 2725 213 2448 61 
Q 2172 -91 1784 -91 
Q 1150 -91 751 415 
Q 353 922 353 1747 
Q 353 2572 751 3078 
Q 1150 3584 1784 3584 
Q 2172 3584 2448 3432 
Q 2725 3281 2906 2969 
L 2906 3500 
L 3481 3500 
L 3481 -1331 
L 2906 -1331 
L 2906 525 
z
" transform="scale(0.015625)"/>
        <path id="DejaVuSans-63" d="M 3122 3366 
L 3122 2828 
Q 2878 2963 2633 3030 
Q 2388 3097 2138 3097 
Q 1578 3097 1268 2742 
Q 959 2388 959 1747 
Q 959 1106 1268 751 
Q 1578 397 2138 397 
Q 2388 397 2633 464 
Q 2878 531 3122 666 
L 3122 134 
Q 2881 22 2623 -34 
Q 2366 -91 2075 -91 
Q 1284 -91 818 406 
Q 353 903 353 1747 
Q 353 2603 823 3093 
Q 1294 3584 2113 3584 
Q 2378 3584 2631 3529 
Q 2884 3475 3122 3366 
z
" transform="scale(0.015625)"/>
        <path id="DejaVuSans-38" d="M 2034 2216 
Q 1584 2216 1326 1975 
Q 1069 1734 1069 1313 
Q 1069 891 1326 650 
Q 1584 409 2034 409 
Q 2484 409 2743 651 
Q 3003 894 3003 1313 
Q 3003 1734 2745 1975 
Q 2488 2216 2034 2216 
z
M 1403 2484 
Q 997 2584 770 2862 
Q 544 3141 544 3541 
Q 544 4100 942 4425 
Q 1341 4750 2034 4750 
Q 2731 4750 3128 4425 
Q 3525 4100 3525 3541 
Q 3525 3141 3298 2862 
Q 3072 2584 2669 2484 
Q 3125 2378 3379 2068 
Q 3634 1759 3634 1313 
Q 3634 634 3220 271 
Q 2806 -91 2034 -91 
Q 1263 -91 848 271 
Q 434 634 434 1313 
Q 434 1759 690 2068 
Q 947 2378 1403 2484 
z
M 1172 3481 
Q 1172 3119 1398 2916 
Q 1625 2713 2034 2713 
Q 2441 2713 2670 2916 
Q 2900 3119 2900 3481 
Q 2900 3844 2670 4047 
Q 2441 4250 2034 4250 
Q 1625 4250 1398 4047 
Q 1172 3844 1172 3481 
z
" transform="scale(0.015625)"/>
       </defs>
       <use xlink:href="#DejaVuSans-68"/>
       <use xlink:href="#DejaVuSans-71" x="63.378906"/>
       <use xlink:href="#DejaVuSans-63" x="126.855469"/>
       <use xlink:href="#DejaVuSans-31" x="181.835938"/>
       <use xlink:href="#DejaVuSans-32" x="245.458984"/>
       <use xlink:href="#DejaVuSans-38" x="309.082031"/>
      </g>
     </g>
    </g>
    <g id="xtick_4">
     <g id="text_4">
      <!-- p256_hqc128 -->
      <g style="fill: #262626" transform="translate(534.010834 412.753193) rotate(-15) scale(0.12 -0.12)">
       <defs>
        <path id="DejaVuSans-70" d="M 1159 525 
L 1159 -1331 
L 581 -1331 
L 581 3500 
L 1159 3500 
L 1159 2969 
Q 1341 3281 1617 3432 
Q 1894 3584 2278 3584 
Q 2916 3584 3314 3078 
Q 3713 2572 3713 1747 
Q 3713 922 3314 415 
Q 2916 -91 2278 -91 
Q 1894 -91 1617 61 
Q 1341 213 1159 525 
z
M 3116 1747 
Q 3116 2381 2855 2742 
Q 2594 3103 2138 3103 
Q 1681 3103 1420 2742 
Q 1159 2381 1159 1747 
Q 1159 1113 1420 752 
Q 1681 391 2138 391 
Q 2594 391 2855 752 
Q 3116 1113 3116 1747 
z
" transform="scale(0.015625)"/>
        <path id="DejaVuSans-5f" d="M 3263 -1063 
L 3263 -1509 
L -63 -1509 
L -63 -1063 
L 3263 -1063 
z
" transform="scale(0.015625)"/>
       </defs>
       <use xlink:href="#DejaVuSans-70"/>
       <use xlink:href="#DejaVuSans-32" x="63.476562"/>
       <use xlink:href="#DejaVuSans-35" x="127.099609"/>
       <use xlink:href="#DejaVuSans-36" x="190.722656"/>
       <use xlink:href="#DejaVuSans-5f" x="254.345703"/>
       <use xlink:href="#DejaVuSans-68" x="304.345703"/>
       <use xlink:href="#DejaVuSans-71" x="367.724609"/>
       <use xlink:href="#DejaVuSans-63" x="431.201172"/>
       <use xlink:href="#DejaVuSans-31" x="486.181641"/>
       <use xlink:href="#DejaVuSans-32" x="549.804688"/>
       <use xlink:href="#DejaVuSans-38" x="613.427734"/>
      </g>
     </g>
    </g>
    <g id="xtick_5">
     <g id="text_5">
      <!-- x25519_hqc128 -->
      <g style="fill: #262626" transform="translate(678.303202 416.571906) rotate(-15) scale(0.12 -0.12)">
       <use xlink:href="#DejaVuSans-78"/>
       <use xlink:href="#DejaVuSans-32" x="59.179688"/>
       <use xlink:href="#DejaVuSans-35" x="122.802734"/>
       <use xlink:href="#DejaVuSans-35" x="186.425781"/>
       <use xlink:href="#DejaVuSans-31" x="250.048828"/>
       <use xlink:href="#DejaVuSans-39" x="313.671875"/>
       <use xlink:href="#DejaVuSans-5f" x="377.294922"/>
       <use xlink:href="#DejaVuSans-68" x="427.294922"/>
       <use xlink:href="#DejaVuSans-71" x="490.673828"/>
       <use xlink:href="#DejaVuSans-63" x="554.150391"/>
       <use xlink:href="#DejaVuSans-31" x="609.130859"/>
       <use xlink:href="#DejaVuSans-32" x="672.753906"/>
       <use xlink:href="#DejaVuSans-38" x="736.376953"/>
      </g>
     </g>
    </g>
   </g>
   <g id="matplotlib.axis_2">
    <g id="ytick_1">
     <g id="line2d_1">
      <path d="M 58.32 358.009494 
L 851.04 358.009494 
" clip-path="url(#p048db6eba3)" style="fill: none; stroke: #cccccc; stroke-linecap: round"/>
     </g>
     <g id="text_6">
      <!-- 100 -->
      <g style="fill: #262626" transform="translate(27.82375 362.188635) scale(0.11 -0.11)">
       <defs>
        <path id="DejaVuSans-30" d="M 2034 4250 
Q 1547 4250 1301 3770 
Q 1056 3291 1056 2328 
Q 1056 1369 1301 889 
Q 1547 409 2034 409 
Q 2525 409 2770 889 
Q 3016 1369 3016 2328 
Q 3016 3291 2770 3770 
Q 2525 4250 2034 4250 
z
M 2034 4750 
Q 2819 4750 3233 4129 
Q 3647 3509 3647 2328 
Q 3647 1150 3233 529 
Q 2819 -91 2034 -91 
Q 1250 -91 836 529 
Q 422 1150 422 2328 
Q 422 3509 836 4129 
Q 1250 4750 2034 4750 
z
" transform="scale(0.015625)"/>
       </defs>
       <use xlink:href="#DejaVuSans-31"/>
       <use xlink:href="#DejaVuSans-30" x="63.623047"/>
       <use xlink:href="#DejaVuSans-30" x="127.246094"/>
      </g>
     </g>
    </g>
    <g id="ytick_2">
     <g id="line2d_2">
      <path d="M 58.32 309.351293 
L 851.04 309.351293 
" clip-path="url(#p048db6eba3)" style="fill: none; stroke: #cccccc; stroke-linecap: round"/>
     </g>
     <g id="text_7">
      <!-- 200 -->
      <g style="fill: #262626" transform="translate(27.82375 313.530433) scale(0.11 -0.11)">
       <use xlink:href="#DejaVuSans-32"/>
       <use xlink:href="#DejaVuSans-30" x="63.623047"/>
       <use xlink:href="#DejaVuSans-30" x="127.246094"/>
      </g>
     </g>
    </g>
    <g id="ytick_3">
     <g id="line2d_3">
      <path d="M 58.32 260.693091 
L 851.04 260.693091 
" clip-path="url(#p048db6eba3)" style="fill: none; stroke: #cccccc; stroke-linecap: round"/>
     </g>
     <g id="text_8">
      <!-- 300 -->
      <g style="fill: #262626" transform="translate(27.82375 264.872232) scale(0.11 -0.11)">
       <defs>
        <path id="DejaVuSans-33" d="M 2597 2516 
Q 3050 2419 3304 2112 
Q 3559 1806 3559 1356 
Q 3559 666 3084 287 
Q 2609 -91 1734 -91 
Q 1441 -91 1130 -33 
Q 819 25 488 141 
L 488 750 
Q 750 597 1062 519 
Q 1375 441 1716 441 
Q 2309 441 2620 675 
Q 2931 909 2931 1356 
Q 2931 1769 2642 2001 
Q 2353 2234 1838 2234 
L 1294 2234 
L 1294 2753 
L 1863 2753 
Q 2328 2753 2575 2939 
Q 2822 3125 2822 3475 
Q 2822 3834 2567 4026 
Q 2313 4219 1838 4219 
Q 1578 4219 1281 4162 
Q 984 4106 628 3988 
L 628 4550 
Q 988 4650 1302 4700 
Q 1616 4750 1894 4750 
Q 2613 4750 3031 4423 
Q 3450 4097 3450 3541 
Q 3450 3153 3228 2886 
Q 3006 2619 2597 2516 
z
" transform="scale(0.015625)"/>
       </defs>
       <use xlink:href="#DejaVuSans-33"/>
       <use xlink:href="#DejaVuSans-30" x="63.623047"/>
       <use xlink:href="#DejaVuSans-30" x="127.246094"/>
      </g>
     </g>
    </g>
    <g id="ytick_4">
     <g id="line2d_4">
      <path d="M 58.32 212.034889 
L 851.04 212.034889 
" clip-path="url(#p048db6eba3)" style="fill: none; stroke: #cccccc; stroke-linecap: round"/>
     </g>
     <g id="text_9">
      <!-- 400 -->
      <g style="fill: #262626" transform="translate(27.82375 216.21403) scale(0.11 -0.11)">
       <defs>
        <path id="DejaVuSans-34" d="M 2419 4116 
L 825 1625 
L 2419 1625 
L 2419 4116 
z
M 2253 4666 
L 3047 4666 
L 3047 1625 
L 3713 1625 
L 3713 1100 
L 3047 1100 
L 3047 0 
L 2419 0 
L 2419 1100 
L 313 1100 
L 313 1709 
L 2253 4666 
z
" transform="scale(0.015625)"/>
       </defs>
       <use xlink:href="#DejaVuSans-34"/>
       <use xlink:href="#DejaVuSans-30" x="63.623047"/>
       <use xlink:href="#DejaVuSans-30" x="127.246094"/>
      </g>
     </g>
    </g>
    <g id="ytick_5">
     <g id="line2d_5">
      <path d="M 58.32 163.376688 
L 851.04 163.376688 
" clip-path="url(#p048db6eba3)" style="fill: none; stroke: #cccccc; stroke-linecap: round"/>
     </g>
     <g id="text_10">
      <!-- 500 -->
      <g style="fill: #262626" transform="translate(27.82375 167.555828) scale(0.11 -0.11)">
       <use xlink:href="#DejaVuSans-35"/>
       <use xlink:href="#DejaVuSans-30" x="63.623047"/>
       <use xlink:href="#DejaVuSans-30" x="127.246094"/>
      </g>
     </g>
    </g>
    <g id="ytick_6">
     <g id="line2d_6">
      <path d="M 58.32 114.718486 
L 851.04 114.718486 
" clip-path="url(#p048db6eba3)" style="fill: none; stroke: #cccccc; stroke-linecap: round"/>
     </g>
     <g id="text_11">
      <!-- 600 -->
      <g style="fill: #262626" transform="translate(27.82375 118.897627) scale(0.11 -0.11)">
       <use xlink:href="#DejaVuSans-36"/>
       <use xlink:href="#DejaVuSans-30" x="63.623047"/>
       <use xlink:href="#DejaVuSans-30" x="127.246094"/>
      </g>
     </g>
    </g>
    <g id="ytick_7">
     <g id="line2d_7">
      <path d="M 58.32 66.060285 
L 851.04 66.060285 
" clip-path="url(#p048db6eba3)" style="fill: none; stroke: #cccccc; stroke-linecap: round"/>
     </g>
     <g id="text_12">
      <!-- 700 -->
      <g style="fill: #262626" transform="translate(27.82375 70.239425) scale(0.11 -0.11)">
       <defs>
        <path id="DejaVuSans-37" d="M 525 4666 
L 3525 4666 
L 3525 4397 
L 1831 0 
L 1172 0 
L 2766 4134 
L 525 4134 
L 525 4666 
z
" transform="scale(0.015625)"/>
       </defs>
       <use xlink:href="#DejaVuSans-37"/>
       <use xlink:href="#DejaVuSans-30" x="63.623047"/>
       <use xlink:href="#DejaVuSans-30" x="127.246094"/>
      </g>
     </g>
    </g>
    <g id="text_13">
     <!-- Handshake duration (ms) -->
     <g style="fill: #262626" transform="translate(21.328125 276.57625) rotate(-90) scale(0.12 -0.12)">
      <defs>
       <path id="DejaVuSans-48" d="M 628 4666 
L 1259 4666 
L 1259 2753 
L 3553 2753 
L 3553 4666 
L 4184 4666 
L 4184 0 
L 3553 0 
L 3553 2222 
L 1259 2222 
L 1259 0 
L 628 0 
L 628 4666 
z
" transform="scale(0.015625)"/>
       <path id="DejaVuSans-61" d="M 2194 1759 
Q 1497 1759 1228 1600 
Q 959 1441 959 1056 
Q 959 750 1161 570 
Q 1363 391 1709 391 
Q 2188 391 2477 730 
Q 2766 1069 2766 1631 
L 2766 1759 
L 2194 1759 
z
M 3341 1997 
L 3341 0 
L 2766 0 
L 2766 531 
Q 2569 213 2275 61 
Q 1981 -91 1556 -91 
Q 1019 -91 701 211 
Q 384 513 384 1019 
Q 384 1609 779 1909 
Q 1175 2209 1959 2209 
L 2766 2209 
L 2766 2266 
Q 2766 2663 2505 2880 
Q 2244 3097 1772 3097 
Q 1472 3097 1187 3025 
Q 903 2953 641 2809 
L 641 3341 
Q 956 3463 1253 3523 
Q 1550 3584 1831 3584 
Q 2591 3584 2966 3190 
Q 3341 2797 3341 1997 
z
" transform="scale(0.015625)"/>
       <path id="DejaVuSans-6e" d="M 3513 2113 
L 3513 0 
L 2938 0 
L 2938 2094 
Q 2938 2591 2744 2837 
Q 2550 3084 2163 3084 
Q 1697 3084 1428 2787 
Q 1159 2491 1159 1978 
L 1159 0 
L 581 0 
L 581 3500 
L 1159 3500 
L 1159 2956 
Q 1366 3272 1645 3428 
Q 1925 3584 2291 3584 
Q 2894 3584 3203 3211 
Q 3513 2838 3513 2113 
z
" transform="scale(0.015625)"/>
       <path id="DejaVuSans-64" d="M 2906 2969 
L 2906 4863 
L 3481 4863 
L 3481 0 
L 2906 0 
L 2906 525 
Q 2725 213 2448 61 
Q 2172 -91 1784 -91 
Q 1150 -91 751 415 
Q 353 922 353 1747 
Q 353 2572 751 3078 
Q 1150 3584 1784 3584 
Q 2172 3584 2448 3432 
Q 2725 3281 2906 2969 
z
M 947 1747 
Q 947 1113 1208 752 
Q 1469 391 1925 391 
Q 2381 391 2643 752 
Q 2906 1113 2906 1747 
Q 2906 2381 2643 2742 
Q 2381 3103 1925 3103 
Q 1469 3103 1208 2742 
Q 947 2381 947 1747 
z
" transform="scale(0.015625)"/>
       <path id="DejaVuSans-73" d="M 2834 3397 
L 2834 2853 
Q 2591 2978 2328 3040 
Q 2066 3103 1784 3103 
Q 1356 3103 1142 2972 
Q 928 2841 928 2578 
Q 928 2378 1081 2264 
Q 1234 2150 1697 2047 
L 1894 2003 
Q 2506 1872 2764 1633 
Q 3022 1394 3022 966 
Q 3022 478 2636 193 
Q 2250 -91 1575 -91 
Q 1294 -91 989 -36 
Q 684 19 347 128 
L 347 722 
Q 666 556 975 473 
Q 1284 391 1588 391 
Q 1994 391 2212 530 
Q 2431 669 2431 922 
Q 2431 1156 2273 1281 
Q 2116 1406 1581 1522 
L 1381 1569 
Q 847 1681 609 1914 
Q 372 2147 372 2553 
Q 372 3047 722 3315 
Q 1072 3584 1716 3584 
Q 2034 3584 2315 3537 
Q 2597 3491 2834 3397 
z
" transform="scale(0.015625)"/>
       <path id="DejaVuSans-6b" d="M 581 4863 
L 1159 4863 
L 1159 1991 
L 2875 3500 
L 3609 3500 
L 1753 1863 
L 3688 0 
L 2938 0 
L 1159 1709 
L 1159 0 
L 581 0 
L 581 4863 
z
" transform="scale(0.015625)"/>
       <path id="DejaVuSans-65" d="M 3597 1894 
L 3597 1613 
L 953 1613 
Q 991 1019 1311 708 
Q 1631 397 2203 397 
Q 2534 397 2845 478 
Q 3156 559 3463 722 
L 3463 178 
Q 3153 47 2828 -22 
Q 2503 -91 2169 -91 
Q 1331 -91 842 396 
Q 353 884 353 1716 
Q 353 2575 817 3079 
Q 1281 3584 2069 3584 
Q 2775 3584 3186 3129 
Q 3597 2675 3597 1894 
z
M 3022 2063 
Q 3016 2534 2758 2815 
Q 2500 3097 2075 3097 
Q 1594 3097 1305 2825 
Q 1016 2553 972 2059 
L 3022 2063 
z
" transform="scale(0.015625)"/>
       <path id="DejaVuSans-20" transform="scale(0.015625)"/>
       <path id="DejaVuSans-75" d="M 544 1381 
L 544 3500 
L 1119 3500 
L 1119 1403 
Q 1119 906 1312 657 
Q 1506 409 1894 409 
Q 2359 409 2629 706 
Q 2900 1003 2900 1516 
L 2900 3500 
L 3475 3500 
L 3475 0 
L 2900 0 
L 2900 538 
Q 2691 219 2414 64 
Q 2138 -91 1772 -91 
Q 1169 -91 856 284 
Q 544 659 544 1381 
z
M 1991 3584 
L 1991 3584 
z
" transform="scale(0.015625)"/>
       <path id="DejaVuSans-72" d="M 2631 2963 
Q 2534 3019 2420 3045 
Q 2306 3072 2169 3072 
Q 1681 3072 1420 2755 
Q 1159 2438 1159 1844 
L 1159 0 
L 581 0 
L 581 3500 
L 1159 3500 
L 1159 2956 
Q 1341 3275 1631 3429 
Q 1922 3584 2338 3584 
Q 2397 3584 2469 3576 
Q 2541 3569 2628 3553 
L 2631 2963 
z
" transform="scale(0.015625)"/>
       <path id="DejaVuSans-74" d="M 1172 4494 
L 1172 3500 
L 2356 3500 
L 2356 3053 
L 1172 3053 
L 1172 1153 
Q 1172 725 1289 603 
Q 1406 481 1766 481 
L 2356 481 
L 2356 0 
L 1766 0 
Q 1100 0 847 248 
Q 594 497 594 1153 
L 594 3053 
L 172 3053 
L 172 3500 
L 594 3500 
L 594 4494 
L 1172 4494 
z
" transform="scale(0.015625)"/>
       <path id="DejaVuSans-69" d="M 603 3500 
L 1178 3500 
L 1178 0 
L 603 0 
L 603 3500 
z
M 603 4863 
L 1178 4863 
L 1178 4134 
L 603 4134 
L 603 4863 
z
" transform="scale(0.015625)"/>
       <path id="DejaVuSans-6f" d="M 1959 3097 
Q 1497 3097 1228 2736 
Q 959 2375 959 1747 
Q 959 1119 1226 758 
Q 1494 397 1959 397 
Q 2419 397 2687 759 
Q 2956 1122 2956 1747 
Q 2956 2369 2687 2733 
Q 2419 3097 1959 3097 
z
M 1959 3584 
Q 2709 3584 3137 3096 
Q 3566 2609 3566 1747 
Q 3566 888 3137 398 
Q 2709 -91 1959 -91 
Q 1206 -91 779 398 
Q 353 888 353 1747 
Q 353 2609 779 3096 
Q 1206 3584 1959 3584 
z
" transform="scale(0.015625)"/>
       <path id="DejaVuSans-28" d="M 1984 4856 
Q 1566 4138 1362 3434 
Q 1159 2731 1159 2009 
Q 1159 1288 1364 580 
Q 1569 -128 1984 -844 
L 1484 -844 
Q 1016 -109 783 600 
Q 550 1309 550 2009 
Q 550 2706 781 3412 
Q 1013 4119 1484 4856 
L 1984 4856 
z
" transform="scale(0.015625)"/>
       <path id="DejaVuSans-6d" d="M 3328 2828 
Q 3544 3216 3844 3400 
Q 4144 3584 4550 3584 
Q 5097 3584 5394 3201 
Q 5691 2819 5691 2113 
L 5691 0 
L 5113 0 
L 5113 2094 
Q 5113 2597 4934 2840 
Q 4756 3084 4391 3084 
Q 3944 3084 3684 2787 
Q 3425 2491 3425 1978 
L 3425 0 
L 2847 0 
L 2847 2094 
Q 2847 2600 2669 2842 
Q 2491 3084 2119 3084 
Q 1678 3084 1418 2786 
Q 1159 2488 1159 1978 
L 1159 0 
L 581 0 
L 581 3500 
L 1159 3500 
L 1159 2956 
Q 1356 3278 1631 3431 
Q 1906 3584 2284 3584 
Q 2666 3584 2933 3390 
Q 3200 3197 3328 2828 
z
" transform="scale(0.015625)"/>
       <path id="DejaVuSans-29" d="M 513 4856 
L 1013 4856 
Q 1481 4119 1714 3412 
Q 1947 2706 1947 2009 
Q 1947 1309 1714 600 
Q 1481 -109 1013 -844 
L 513 -844 
Q 928 -128 1133 580 
Q 1338 1288 1338 2009 
Q 1338 2731 1133 3434 
Q 928 4138 513 4856 
z
" transform="scale(0.015625)"/>
      </defs>
      <use xlink:href="#DejaVuSans-48"/>
      <use xlink:href="#DejaVuSans-61" x="75.195312"/>
      <use xlink:href="#DejaVuSans-6e" x="136.474609"/>
      <use xlink:href="#DejaVuSans-64" x="199.853516"/>
      <use xlink:href="#DejaVuSans-73" x="263.330078"/>
      <use xlink:href="#DejaVuSans-68" x="315.429688"/>
      <use xlink:href="#DejaVuSans-61" x="378.808594"/>
      <use xlink:href="#DejaVuSans-6b" x="440.087891"/>
      <use xlink:href="#DejaVuSans-65" x="494.373047"/>
      <use xlink:href="#DejaVuSans-20" x="555.896484"/>
      <use xlink:href="#DejaVuSans-64" x="587.683594"/>
      <use xlink:href="#DejaVuSans-75" x="651.160156"/>
      <use xlink:href="#DejaVuSans-72" x="714.539062"/>
      <use xlink:href="#DejaVuSans-61" x="755.652344"/>
      <use xlink:href="#DejaVuSans-74" x="816.931641"/>
      <use xlink:href="#DejaVuSans-69" x="856.140625"/>
      <use xlink:href="#DejaVuSans-6f" x="883.923828"/>
      <use xlink:href="#DejaVuSans-6e" x="945.105469"/>
      <use xlink:href="#DejaVuSans-20" x="1008.484375"/>
      <use xlink:href="#DejaVuSans-28" x="1040.271484"/>
      <use xlink:href="#DejaVuSans-6d" x="1079.285156"/>
      <use xlink:href="#DejaVuSans-73" x="1176.697266"/>
      <use xlink:href="#DejaVuSans-29" x="1228.796875"/>
     </g>
    </g>
   </g>
   <g id="PolyCollection_1">
    <defs>
     <path id="m484ce25eef" d="M 143.55841 -74.302074 
L 131.62559 -74.302074 
L 127.005164 -77.132307 
L 120.240818 -79.96254 
L 111.325786 -82.792773 
L 100.866534 -85.623006 
L 90.164004 -88.453239 
L 81.020602 -91.283473 
L 75.268297 -94.113706 
L 74.1744 -96.943939 
L 77.98599 -99.774172 
L 85.835561 -102.604405 
L 96.055522 -105.434638 
L 106.744173 -108.264871 
L 116.319904 -111.095104 
L 123.848487 -113.925337 
L 129.077866 -116.75557 
L 132.259141 -119.585804 
L 133.894327 -122.416037 
L 134.525477 -125.24627 
L 134.61286 -128.076503 
L 134.492855 -130.906736 
L 134.382264 -133.736969 
L 134.399367 -136.567202 
L 134.586335 -139.397435 
L 134.929577 -142.227668 
L 135.379523 -145.057901 
L 135.870745 -147.888135 
L 136.340659 -150.718368 
L 136.743387 -153.548601 
L 137.056037 -156.378834 
L 137.277222 -159.209067 
L 137.420308 -162.0393 
L 137.505127 -164.869533 
L 137.551262 -167.699766 
L 137.574308 -170.529999 
L 137.584889 -173.360232 
L 137.589356 -176.190466 
L 137.591091 -179.020699 
L 137.59171 -181.850932 
L 137.591912 -184.681165 
L 137.591963 -187.511398 
L 137.591943 -190.341631 
L 137.591827 -193.171864 
L 137.591462 -196.002097 
L 137.590445 -198.83233 
L 137.587838 -201.662563 
L 137.581689 -204.492797 
L 137.56835 -207.32303 
L 137.541783 -210.153263 
L 137.493277 -212.983496 
L 137.412287 -215.813729 
L 137.28906 -218.643962 
L 137.119084 -221.474195 
L 136.908275 -224.304428 
L 136.676484 -227.134661 
L 136.456606 -229.964894 
L 136.287855 -232.795128 
L 136.204609 -235.625361 
L 136.225047 -238.455594 
L 136.344698 -241.285827 
L 136.538032 -244.11606 
L 136.767311 -246.946293 
L 136.99452 -249.776526 
L 137.191239 -252.606759 
L 137.343153 -255.436992 
L 137.448975 -258.267225 
L 137.515918 -261.097459 
L 137.554548 -263.927692 
L 137.574941 -266.757925 
L 137.584811 -269.588158 
L 137.589198 -272.418391 
L 137.59099 -275.248624 
L 137.591663 -278.078857 
L 137.591895 -280.90909 
L 137.591966 -283.739323 
L 137.591976 -286.569556 
L 137.59194 -289.39979 
L 137.591808 -292.230023 
L 137.591417 -295.060256 
L 137.59036 -297.890489 
L 137.587739 -300.720722 
L 137.581768 -303.550955 
L 137.569299 -306.381188 
L 137.545467 -309.211421 
L 137.503874 -312.041654 
L 137.437804 -314.871887 
L 137.342738 -317.702121 
L 137.219739 -320.532354 
L 137.078385 -323.362587 
L 136.937337 -326.19282 
L 136.82113 -329.023053 
L 136.753473 -331.853286 
L 136.749405 -334.683519 
L 136.809873 -337.513752 
L 136.921369 -340.343985 
L 137.060833 -343.174218 
L 137.203393 -346.004452 
L 137.329388 -348.834685 
L 137.428078 -351.664918 
L 137.497492 -354.495151 
L 137.686508 -354.495151 
L 137.686508 -354.495151 
L 137.755922 -351.664918 
L 137.854612 -348.834685 
L 137.980607 -346.004452 
L 138.123167 -343.174218 
L 138.262631 -340.343985 
L 138.374127 -337.513752 
L 138.434595 -334.683519 
L 138.430527 -331.853286 
L 138.36287 -329.023053 
L 138.246663 -326.19282 
L 138.105615 -323.362587 
L 137.964261 -320.532354 
L 137.841262 -317.702121 
L 137.746196 -314.871887 
L 137.680126 -312.041654 
L 137.638533 -309.211421 
L 137.614701 -306.381188 
L 137.602232 -303.550955 
L 137.596261 -300.720722 
L 137.59364 -297.890489 
L 137.592583 -295.060256 
L 137.592192 -292.230023 
L 137.59206 -289.39979 
L 137.592024 -286.569556 
L 137.592034 -283.739323 
L 137.592105 -280.90909 
L 137.592337 -278.078857 
L 137.59301 -275.248624 
L 137.594802 -272.418391 
L 137.599189 -269.588158 
L 137.609059 -266.757925 
L 137.629452 -263.927692 
L 137.668082 -261.097459 
L 137.735025 -258.267225 
L 137.840847 -255.436992 
L 137.992761 -252.606759 
L 138.18948 -249.776526 
L 138.416689 -246.946293 
L 138.645968 -244.11606 
L 138.839302 -241.285827 
L 138.958953 -238.455594 
L 138.979391 -235.625361 
L 138.896145 -232.795128 
L 138.727394 -229.964894 
L 138.507516 -227.134661 
L 138.275725 -224.304428 
L 138.064916 -221.474195 
L 137.89494 -218.643962 
L 137.771713 -215.813729 
L 137.690723 -212.983496 
L 137.642217 -210.153263 
L 137.61565 -207.32303 
L 137.602311 -204.492797 
L 137.596162 -201.662563 
L 137.593555 -198.83233 
L 137.592538 -196.002097 
L 137.592173 -193.171864 
L 137.592057 -190.341631 
L 137.592037 -187.511398 
L 137.592088 -184.681165 
L 137.59229 -181.850932 
L 137.592909 -179.020699 
L 137.594644 -176.190466 
L 137.599111 -173.360232 
L 137.609692 -170.529999 
L 137.632738 -167.699766 
L 137.678873 -164.869533 
L 137.763692 -162.0393 
L 137.906778 -159.209067 
L 138.127963 -156.378834 
L 138.440613 -153.548601 
L 138.843341 -150.718368 
L 139.313255 -147.888135 
L 139.804477 -145.057901 
L 140.254423 -142.227668 
L 140.597665 -139.397435 
L 140.784633 -136.567202 
L 140.801736 -133.736969 
L 140.691145 -130.906736 
L 140.57114 -128.076503 
L 140.658523 -125.24627 
L 141.289673 -122.416037 
L 142.924859 -119.585804 
L 146.106134 -116.75557 
L 151.335513 -113.925337 
L 158.864096 -111.095104 
L 168.439827 -108.264871 
L 179.128478 -105.434638 
L 189.348439 -102.604405 
L 197.19801 -99.774172 
L 201.0096 -96.943939 
L 199.915703 -94.113706 
L 194.163398 -91.283473 
L 185.019996 -88.453239 
L 174.317466 -85.623006 
L 163.858214 -82.792773 
L 154.943182 -79.96254 
L 148.178836 -77.132307 
L 143.55841 -74.302074 
z
" style="stroke: #595959; stroke-width: 1.25"/>
    </defs>
    <g clip-path="url(#p048db6eba3)">
     <use xlink:href="#m484ce25eef" x="0" y="432" style="fill: #72b6a1; stroke: #595959; stroke-width: 1.25"/>
    </g>
   </g>
   <g id="PolyCollection_2">
    <defs>
     <path id="m4143ecaf33" d="M 302.320001 -74.940849 
L 289.951999 -74.940849 
L 284.245593 -78.109941 
L 275.594821 -81.279034 
L 264.253473 -84.448127 
L 251.675321 -87.61722 
L 240.431129 -90.786313 
L 233.430863 -93.955406 
L 232.7184 -97.124499 
L 238.508103 -100.293592 
L 249.076887 -103.462685 
L 261.582704 -106.631778 
L 273.27954 -109.800871 
L 282.42569 -112.969964 
L 288.514021 -116.139057 
L 291.940506 -119.30815 
L 293.485156 -122.477243 
L 293.9159 -125.646336 
L 293.814375 -128.815429 
L 293.56228 -131.984522 
L 293.387173 -135.153615 
L 293.404107 -138.322708 
L 293.639312 -141.491801 
L 294.048834 -144.660894 
L 294.545555 -147.829987 
L 295.034475 -150.999079 
L 295.444311 -154.168172 
L 295.743024 -157.337265 
L 295.934338 -160.506358 
L 296.042653 -163.675451 
L 296.097065 -166.844544 
L 296.121378 -170.013637 
L 296.131059 -173.18273 
L 296.134498 -176.351823 
L 296.13559 -179.520916 
L 296.135899 -182.690009 
L 296.135977 -185.859102 
L 296.135994 -189.028195 
L 296.135991 -192.197288 
L 296.135963 -195.366381 
L 296.135857 -198.535474 
L 296.135499 -201.704567 
L 296.134421 -204.87366 
L 296.131526 -208.042753 
L 296.124619 -211.211846 
L 296.11 -214.380939 
L 296.082655 -217.550032 
L 296.037708 -220.719124 
L 295.97335 -223.888217 
L 295.89429 -227.05731 
L 295.813416 -230.226403 
L 295.749365 -233.395496 
L 295.719835 -236.564589 
L 295.73371 -239.733682 
L 295.786763 -242.902775 
L 295.863724 -246.071868 
L 295.945364 -249.240961 
L 296.016131 -252.410054 
L 296.068311 -255.579147 
L 296.101673 -258.74824 
L 296.120366 -261.917333 
L 296.129606 -265.086426 
L 296.133651 -268.255519 
L 296.135225 -271.424612 
L 296.13577 -274.593705 
L 296.135939 -277.762798 
L 296.135985 -280.931891 
L 296.135996 -284.100984 
L 296.135993 -287.270077 
L 296.135971 -290.43917 
L 296.135881 -293.608262 
L 296.135567 -296.777355 
L 296.134575 -299.946448 
L 296.131783 -303.115541 
L 296.124763 -306.284634 
L 296.109043 -309.453727 
L 296.077775 -312.62282 
L 296.02275 -315.791913 
L 295.937611 -318.961006 
L 295.822964 -322.130099 
L 295.691035 -325.299192 
L 295.566139 -328.468285 
L 295.478326 -331.637378 
L 295.451715 -334.806471 
L 295.493388 -337.975564 
L 295.589465 -341.144657 
L 295.710797 -344.31375 
L 295.824729 -347.482843 
L 295.906396 -350.651936 
L 295.944867 -353.821029 
L 295.943469 -356.990122 
L 295.916247 -360.159215 
L 295.882529 -363.328307 
L 295.860746 -366.4974 
L 295.862775 -369.666493 
L 295.890696 -372.835586 
L 295.937513 -376.004679 
L 295.99143 -379.173772 
L 296.041253 -382.342865 
L 296.080137 -385.511958 
L 296.10637 -388.681051 
L 296.16563 -388.681051 
L 296.16563 -388.681051 
L 296.191863 -385.511958 
L 296.230747 -382.342865 
L 296.28057 -379.173772 
L 296.334487 -376.004679 
L 296.381304 -372.835586 
L 296.409225 -369.666493 
L 296.411254 -366.4974 
L 296.389471 -363.328307 
L 296.355753 -360.159215 
L 296.328531 -356.990122 
L 296.327133 -353.821029 
L 296.365604 -350.651936 
L 296.447271 -347.482843 
L 296.561203 -344.31375 
L 296.682535 -341.144657 
L 296.778612 -337.975564 
L 296.820285 -334.806471 
L 296.793674 -331.637378 
L 296.705861 -328.468285 
L 296.580965 -325.299192 
L 296.449036 -322.130099 
L 296.334389 -318.961006 
L 296.24925 -315.791913 
L 296.194225 -312.62282 
L 296.162957 -309.453727 
L 296.147237 -306.284634 
L 296.140217 -303.115541 
L 296.137425 -299.946448 
L 296.136433 -296.777355 
L 296.136119 -293.608262 
L 296.136029 -290.43917 
L 296.136007 -287.270077 
L 296.136004 -284.100984 
L 296.136015 -280.931891 
L 296.136061 -277.762798 
L 296.13623 -274.593705 
L 296.136775 -271.424612 
L 296.138349 -268.255519 
L 296.142394 -265.086426 
L 296.151634 -261.917333 
L 296.170327 -258.74824 
L 296.203689 -255.579147 
L 296.255869 -252.410054 
L 296.326636 -249.240961 
L 296.408276 -246.071868 
L 296.485237 -242.902775 
L 296.53829 -239.733682 
L 296.552165 -236.564589 
L 296.522635 -233.395496 
L 296.458584 -230.226403 
L 296.37771 -227.05731 
L 296.29865 -223.888217 
L 296.234292 -220.719124 
L 296.189345 -217.550032 
L 296.162 -214.380939 
L 296.147381 -211.211846 
L 296.140474 -208.042753 
L 296.137579 -204.87366 
L 296.136501 -201.704567 
L 296.136143 -198.535474 
L 296.136037 -195.366381 
L 296.136009 -192.197288 
L 296.136006 -189.028195 
L 296.136023 -185.859102 
L 296.136101 -182.690009 
L 296.13641 -179.520916 
L 296.137502 -176.351823 
L 296.140941 -173.18273 
L 296.150622 -170.013637 
L 296.174935 -166.844544 
L 296.229347 -163.675451 
L 296.337662 -160.506358 
L 296.528976 -157.337265 
L 296.827689 -154.168172 
L 297.237525 -150.999079 
L 297.726445 -147.829987 
L 298.223166 -144.660894 
L 298.632688 -141.491801 
L 298.867893 -138.322708 
L 298.884827 -135.153615 
L 298.70972 -131.984522 
L 298.457625 -128.815429 
L 298.3561 -125.646336 
L 298.786844 -122.477243 
L 300.331494 -119.30815 
L 303.757979 -116.139057 
L 309.84631 -112.969964 
L 318.99246 -109.800871 
L 330.689296 -106.631778 
L 343.195113 -103.462685 
L 353.763897 -100.293592 
L 359.5536 -97.124499 
L 358.841137 -93.955406 
L 351.840871 -90.786313 
L 340.596679 -87.61722 
L 328.018527 -84.448127 
L 316.677179 -81.279034 
L 308.026407 -78.109941 
L 302.320001 -74.940849 
z
" style="stroke: #595959; stroke-width: 1.25"/>
    </defs>
    <g clip-path="url(#p048db6eba3)">
     <use xlink:href="#m4143ecaf33" x="0" y="432" style="fill: #e99675; stroke: #595959; stroke-width: 1.25"/>
    </g>
   </g>
   <g id="PolyCollection_3">
    <defs>
     <path id="m40c419d6d7" d="M 455.120783 -86.277309 
L 454.239217 -86.277309 
L 453.659365 -89.099915 
L 452.488835 -91.922521 
L 450.307881 -94.745126 
L 446.568801 -97.567732 
L 440.711241 -100.390338 
L 432.416901 -103.212944 
L 421.965123 -106.035549 
L 410.520775 -108.858155 
L 400.102181 -111.680761 
L 393.069713 -114.503367 
L 391.2624 -117.325973 
L 395.205598 -120.148578 
L 403.852381 -122.971184 
L 415.021922 -125.79379 
L 426.274153 -128.616396 
L 435.736595 -131.439001 
L 442.514035 -134.261607 
L 446.620596 -137.084213 
L 448.626441 -139.906819 
L 449.272871 -142.729424 
L 449.217646 -145.55203 
L 448.94095 -148.374636 
L 448.755219 -151.197242 
L 448.842561 -154.019848 
L 449.274774 -156.842453 
L 450.017771 -159.665059 
L 450.948186 -162.487665 
L 451.899313 -165.310271 
L 452.72308 -168.132876 
L 453.336605 -170.955482 
L 453.732069 -173.778088 
L 453.954217 -176.600694 
L 454.066878 -179.4233 
L 454.127711 -182.245905 
L 454.177095 -185.068511 
L 454.236787 -187.891117 
L 454.312555 -190.713723 
L 454.398524 -193.536328 
L 454.48307 -196.358934 
L 454.555133 -199.18154 
L 454.60861 -202.004146 
L 454.643296 -204.826751 
L 454.662957 -207.649357 
L 454.672461 -210.471963 
L 454.675567 -213.294569 
L 454.673754 -216.117175 
L 454.665672 -218.93978 
L 454.646727 -221.762386 
L 454.608812 -224.584992 
L 454.540726 -227.407598 
L 454.430033 -230.230203 
L 454.266901 -233.052809 
L 454.049949 -235.875415 
L 453.79296 -238.698021 
L 453.529394 -241.520626 
L 453.309822 -244.343232 
L 453.188742 -247.165838 
L 453.203454 -249.988444 
L 453.355596 -252.81105 
L 453.607686 -255.633655 
L 453.898519 -258.456261 
L 454.168473 -261.278867 
L 454.379754 -264.101473 
L 454.522153 -266.924078 
L 454.605735 -269.746684 
L 454.648749 -272.56929 
L 454.668243 -275.391896 
L 454.676047 -278.214502 
L 454.678812 -281.037107 
L 454.679681 -283.859713 
L 454.679924 -286.682319 
L 454.679984 -289.504925 
L 454.679997 -292.32753 
L 454.679999 -295.150136 
L 454.68 -297.972742 
L 454.68 -300.795348 
L 454.679999 -303.617953 
L 454.679993 -306.440559 
L 454.679967 -309.263165 
L 454.679866 -312.085771 
L 454.679514 -314.908377 
L 454.678417 -317.730982 
L 454.675391 -320.553588 
L 454.667993 -323.376194 
L 454.652003 -326.1988 
L 454.621556 -329.021405 
L 454.570745 -331.844011 
L 454.497051 -334.666617 
L 454.405513 -337.489223 
L 454.31091 -340.311829 
L 454.235091 -343.134434 
L 454.199117 -345.95704 
L 454.213852 -348.779646 
L 454.274683 -351.602252 
L 454.363839 -354.424857 
L 454.458744 -357.247463 
L 454.541079 -360.070069 
L 454.601744 -362.892675 
L 454.640454 -365.71528 
L 454.719546 -365.71528 
L 454.719546 -365.71528 
L 454.758256 -362.892675 
L 454.818921 -360.070069 
L 454.901256 -357.247463 
L 454.996161 -354.424857 
L 455.085317 -351.602252 
L 455.146148 -348.779646 
L 455.160883 -345.95704 
L 455.124909 -343.134434 
L 455.04909 -340.311829 
L 454.954487 -337.489223 
L 454.862949 -334.666617 
L 454.789255 -331.844011 
L 454.738444 -329.021405 
L 454.707997 -326.1988 
L 454.692007 -323.376194 
L 454.684609 -320.553588 
L 454.681583 -317.730982 
L 454.680486 -314.908377 
L 454.680134 -312.085771 
L 454.680033 -309.263165 
L 454.680007 -306.440559 
L 454.680001 -303.617953 
L 454.68 -300.795348 
L 454.68 -297.972742 
L 454.680001 -295.150136 
L 454.680003 -292.32753 
L 454.680016 -289.504925 
L 454.680076 -286.682319 
L 454.680319 -283.859713 
L 454.681188 -281.037107 
L 454.683953 -278.214502 
L 454.691757 -275.391896 
L 454.711251 -272.56929 
L 454.754265 -269.746684 
L 454.837847 -266.924078 
L 454.980246 -264.101473 
L 455.191527 -261.278867 
L 455.461481 -258.456261 
L 455.752314 -255.633655 
L 456.004404 -252.81105 
L 456.156546 -249.988444 
L 456.171258 -247.165838 
L 456.050178 -244.343232 
L 455.830606 -241.520626 
L 455.56704 -238.698021 
L 455.310051 -235.875415 
L 455.093099 -233.052809 
L 454.929967 -230.230203 
L 454.819274 -227.407598 
L 454.751188 -224.584992 
L 454.713273 -221.762386 
L 454.694328 -218.93978 
L 454.686246 -216.117175 
L 454.684433 -213.294569 
L 454.687539 -210.471963 
L 454.697043 -207.649357 
L 454.716704 -204.826751 
L 454.75139 -202.004146 
L 454.804867 -199.18154 
L 454.87693 -196.358934 
L 454.961476 -193.536328 
L 455.047445 -190.713723 
L 455.123213 -187.891117 
L 455.182905 -185.068511 
L 455.232289 -182.245905 
L 455.293122 -179.4233 
L 455.405783 -176.600694 
L 455.627931 -173.778088 
L 456.023395 -170.955482 
L 456.63692 -168.132876 
L 457.460687 -165.310271 
L 458.411814 -162.487665 
L 459.342229 -159.665059 
L 460.085226 -156.842453 
L 460.517439 -154.019848 
L 460.604781 -151.197242 
L 460.41905 -148.374636 
L 460.142354 -145.55203 
L 460.087129 -142.729424 
L 460.733559 -139.906819 
L 462.739404 -137.084213 
L 466.845965 -134.261607 
L 473.623405 -131.439001 
L 483.085847 -128.616396 
L 494.338078 -125.79379 
L 505.507619 -122.971184 
L 514.154402 -120.148578 
L 518.0976 -117.325973 
L 516.290287 -114.503367 
L 509.257819 -111.680761 
L 498.839225 -108.858155 
L 487.394877 -106.035549 
L 476.943099 -103.212944 
L 468.648759 -100.390338 
L 462.791199 -97.567732 
L 459.052119 -94.745126 
L 456.871165 -91.922521 
L 455.700635 -89.099915 
L 455.120783 -86.277309 
z
" style="stroke: #595959; stroke-width: 1.25"/>
    </defs>
    <g clip-path="url(#p048db6eba3)">
     <use xlink:href="#m40c419d6d7" x="0" y="432" style="fill: #95a3c3; stroke: #595959; stroke-width: 1.25"/>
    </g>
   </g>
   <g id="PolyCollection_4">
    <defs>
     <path id="m021113e447" d="M 613.459857 -92.315721 
L 612.988143 -92.315721 
L 612.688124 -94.576793 
L 612.121363 -96.837865 
L 611.143627 -99.098937 
L 609.563921 -101.360009 
L 607.104012 -103.621081 
L 603.345589 -105.882153 
L 597.750759 -108.143225 
L 589.877252 -110.404297 
L 579.810152 -112.665368 
L 568.597051 -114.92644 
L 558.29849 -117.187512 
L 551.403096 -119.448584 
L 549.8064 -121.709656 
L 553.949116 -123.970728 
L 562.656548 -126.2318 
L 573.732965 -128.492872 
L 584.880413 -130.753944 
L 594.417975 -133.015015 
L 601.547447 -135.276087 
L 606.233154 -137.537159 
L 608.906774 -139.798231 
L 610.174337 -142.059303 
L 610.608001 -144.320375 
L 610.634744 -146.581447 
L 610.506182 -148.842519 
L 610.329576 -151.103591 
L 610.136141 -153.364662 
L 609.952531 -155.625734 
L 609.839199 -157.886806 
L 609.878841 -160.147878 
L 610.131039 -162.40895 
L 610.590837 -164.670022 
L 611.182772 -166.931094 
L 611.794026 -169.192166 
L 612.323299 -171.453238 
L 612.715158 -173.714309 
L 612.964854 -175.975381 
L 613.100118 -178.236453 
L 613.157486 -180.497525 
L 613.166965 -182.758597 
L 613.148503 -185.019669 
L 613.115874 -187.280741 
L 613.081407 -189.541813 
L 613.057132 -191.802885 
L 613.05194 -194.063956 
L 613.067882 -196.325028 
L 613.099382 -198.5861 
L 613.136491 -200.847172 
L 613.169943 -203.108244 
L 613.194624 -205.369316 
L 613.209957 -207.630388 
L 613.218094 -209.89146 
L 613.221815 -212.152532 
L 613.223289 -214.413603 
L 613.223796 -216.674675 
L 613.223947 -218.935747 
L 613.22398 -221.196819 
L 613.223952 -223.457891 
L 613.22379 -225.718963 
L 613.22315 -227.980035 
L 613.220955 -230.241107 
L 613.214352 -232.502179 
L 613.196942 -234.76325 
L 613.15681 -237.024322 
L 613.076204 -239.285394 
L 612.935887 -241.546466 
L 612.726083 -243.807538 
L 612.460914 -246.06861 
L 612.186712 -248.329682 
L 611.973226 -250.590754 
L 611.886134 -252.851825 
L 611.954724 -255.112897 
L 612.156118 -257.373969 
L 612.42749 -259.635041 
L 612.697489 -261.896113 
L 612.915684 -264.157185 
L 613.06413 -266.418257 
L 613.15063 -268.679329 
L 613.194211 -270.940401 
L 613.213304 -273.201472 
L 613.220597 -275.462544 
L 613.223008 -277.723616 
L 613.223599 -279.984688 
L 613.223358 -282.24576 
L 613.22214 -284.506832 
L 613.218896 -286.767904 
L 613.211623 -289.028976 
L 613.197589 -291.290048 
L 613.17442 -293.551119 
L 613.142123 -295.812191 
L 613.105054 -298.073263 
L 613.071989 -300.334335 
L 613.053103 -302.595407 
L 613.054984 -304.856479 
L 613.076953 -307.117551 
L 613.111457 -309.378623 
L 613.148227 -311.639695 
L 613.179121 -313.900766 
L 613.200617 -316.161838 
L 613.247383 -316.161838 
L 613.247383 -316.161838 
L 613.268879 -313.900766 
L 613.299773 -311.639695 
L 613.336543 -309.378623 
L 613.371047 -307.117551 
L 613.393016 -304.856479 
L 613.394897 -302.595407 
L 613.376011 -300.334335 
L 613.342946 -298.073263 
L 613.305877 -295.812191 
L 613.27358 -293.551119 
L 613.250411 -291.290048 
L 613.236377 -289.028976 
L 613.229104 -286.767904 
L 613.22586 -284.506832 
L 613.224642 -282.24576 
L 613.224401 -279.984688 
L 613.224992 -277.723616 
L 613.227403 -275.462544 
L 613.234696 -273.201472 
L 613.253789 -270.940401 
L 613.29737 -268.679329 
L 613.38387 -266.418257 
L 613.532316 -264.157185 
L 613.750511 -261.896113 
L 614.02051 -259.635041 
L 614.291882 -257.373969 
L 614.493276 -255.112897 
L 614.561866 -252.851825 
L 614.474774 -250.590754 
L 614.261288 -248.329682 
L 613.987086 -246.06861 
L 613.721917 -243.807538 
L 613.512113 -241.546466 
L 613.371796 -239.285394 
L 613.29119 -237.024322 
L 613.251058 -234.76325 
L 613.233648 -232.502179 
L 613.227045 -230.241107 
L 613.22485 -227.980035 
L 613.22421 -225.718963 
L 613.224048 -223.457891 
L 613.22402 -221.196819 
L 613.224053 -218.935747 
L 613.224204 -216.674675 
L 613.224711 -214.413603 
L 613.226185 -212.152532 
L 613.229906 -209.89146 
L 613.238043 -207.630388 
L 613.253376 -205.369316 
L 613.278057 -203.108244 
L 613.311509 -200.847172 
L 613.348618 -198.5861 
L 613.380118 -196.325028 
L 613.39606 -194.063956 
L 613.390868 -191.802885 
L 613.366593 -189.541813 
L 613.332126 -187.280741 
L 613.299497 -185.019669 
L 613.281035 -182.758597 
L 613.290514 -180.497525 
L 613.347882 -178.236453 
L 613.483146 -175.975381 
L 613.732842 -173.714309 
L 614.124701 -171.453238 
L 614.653974 -169.192166 
L 615.265228 -166.931094 
L 615.857163 -164.670022 
L 616.316961 -162.40895 
L 616.569159 -160.147878 
L 616.608801 -157.886806 
L 616.495469 -155.625734 
L 616.311859 -153.364662 
L 616.118424 -151.103591 
L 615.941818 -148.842519 
L 615.813256 -146.581447 
L 615.839999 -144.320375 
L 616.273663 -142.059303 
L 617.541226 -139.798231 
L 620.214846 -137.537159 
L 624.900553 -135.276087 
L 632.030025 -133.015015 
L 641.567587 -130.753944 
L 652.715035 -128.492872 
L 663.791452 -126.2318 
L 672.498884 -123.970728 
L 676.6416 -121.709656 
L 675.044904 -119.448584 
L 668.14951 -117.187512 
L 657.850949 -114.92644 
L 646.637848 -112.665368 
L 636.570748 -110.404297 
L 628.697241 -108.143225 
L 623.102411 -105.882153 
L 619.343988 -103.621081 
L 616.884079 -101.360009 
L 615.304373 -99.098937 
L 614.326637 -96.837865 
L 613.759876 -94.576793 
L 613.459857 -92.315721 
z
" style="stroke: #595959; stroke-width: 1.25"/>
    </defs>
    <g clip-path="url(#p048db6eba3)">
     <use xlink:href="#m021113e447" x="0" y="432" style="fill: #db96c0; stroke: #595959; stroke-width: 1.25"/>
    </g>
   </g>
   <g id="PolyCollection_5">
    <defs>
     <path id="m1f073abc09" d="M 773.276826 -87.980211 
L 770.259174 -87.980211 
L 768.345679 -90.764286 
L 764.934497 -93.548361 
L 759.654966 -96.332436 
L 752.487564 -99.116511 
L 743.817865 -101.900586 
L 734.309355 -104.684661 
L 724.790331 -107.468737 
L 716.328686 -110.252812 
L 710.339192 -113.036887 
L 708.3504 -115.820962 
L 711.336817 -118.605037 
L 719.041663 -121.389112 
L 729.859162 -124.173187 
L 741.43264 -126.957263 
L 751.590272 -129.741338 
L 759.061934 -132.525413 
L 763.656691 -135.309488 
L 765.957918 -138.093563 
L 766.828297 -140.877638 
L 767.013363 -143.661713 
L 766.977738 -146.445789 
L 766.944702 -149.229864 
L 767.019764 -152.013939 
L 767.278145 -154.798014 
L 767.767034 -157.582089 
L 768.462839 -160.366164 
L 769.258214 -163.15024 
L 770.009073 -165.934315 
L 770.605177 -168.71839 
L 771.010146 -171.502465 
L 771.252783 -174.28654 
L 771.391242 -177.070615 
L 771.479492 -179.85469 
L 771.550373 -182.638766 
L 771.614762 -185.422841 
L 771.670057 -188.206916 
L 771.710156 -190.990991 
L 771.731221 -193.775066 
L 771.732287 -196.559141 
L 771.714025 -199.343216 
L 771.679254 -202.127292 
L 771.635392 -204.911367 
L 771.595384 -207.695442 
L 771.573807 -210.479517 
L 771.579354 -213.263592 
L 771.60932 -216.047667 
L 771.650739 -218.831742 
L 771.686756 -221.615818 
L 771.702559 -224.399893 
L 771.687404 -227.183968 
L 771.634686 -229.968043 
L 771.543897 -232.752118 
L 771.424517 -235.536193 
L 771.297353 -238.320268 
L 771.189646 -241.104344 
L 771.126037 -243.888419 
L 771.120937 -246.672494 
L 771.175231 -249.456569 
L 771.276422 -252.240644 
L 771.401716 -255.024719 
L 771.524917 -257.808794 
L 771.625495 -260.59287 
L 771.694696 -263.376945 
L 771.735081 -266.16102 
L 771.755139 -268.945095 
L 771.76364 -271.72917 
L 771.766719 -274.513245 
L 771.767674 -277.297321 
L 771.767928 -280.081396 
L 771.767986 -282.865471 
L 771.767998 -285.649546 
L 771.767998 -288.433621 
L 771.76799 -291.217696 
L 771.76795 -294.001771 
L 771.76778 -296.785847 
L 771.767157 -299.569922 
L 771.765215 -302.353997 
L 771.760057 -305.138072 
L 771.748446 -307.922147 
L 771.726417 -310.706222 
L 771.691485 -313.490297 
L 771.645776 -316.274373 
L 771.59738 -319.058448 
L 771.557163 -321.842523 
L 771.532022 -324.626598 
L 771.520204 -327.410673 
L 771.513666 -330.194748 
L 771.50552 -332.978823 
L 771.49505 -335.762899 
L 771.486014 -338.546974 
L 771.482108 -341.331049 
L 771.485688 -344.115124 
L 771.499724 -346.899199 
L 771.527857 -349.683274 
L 771.570651 -352.467349 
L 771.622437 -355.251425 
L 771.673185 -358.0355 
L 771.714015 -360.819575 
L 771.741292 -363.60365 
L 771.794708 -363.60365 
L 771.794708 -363.60365 
L 771.821985 -360.819575 
L 771.862815 -358.0355 
L 771.913563 -355.251425 
L 771.965349 -352.467349 
L 772.008143 -349.683274 
L 772.036276 -346.899199 
L 772.050312 -344.115124 
L 772.053892 -341.331049 
L 772.049986 -338.546974 
L 772.04095 -335.762899 
L 772.03048 -332.978823 
L 772.022334 -330.194748 
L 772.015796 -327.410673 
L 772.003978 -324.626598 
L 771.978837 -321.842523 
L 771.93862 -319.058448 
L 771.890224 -316.274373 
L 771.844515 -313.490297 
L 771.809583 -310.706222 
L 771.787554 -307.922147 
L 771.775943 -305.138072 
L 771.770785 -302.353997 
L 771.768843 -299.569922 
L 771.76822 -296.785847 
L 771.76805 -294.001771 
L 771.76801 -291.217696 
L 771.768002 -288.433621 
L 771.768002 -285.649546 
L 771.768014 -282.865471 
L 771.768072 -280.081396 
L 771.768326 -277.297321 
L 771.769281 -274.513245 
L 771.77236 -271.72917 
L 771.780861 -268.945095 
L 771.800919 -266.16102 
L 771.841304 -263.376945 
L 771.910505 -260.59287 
L 772.011083 -257.808794 
L 772.134284 -255.024719 
L 772.259578 -252.240644 
L 772.360769 -249.456569 
L 772.415063 -246.672494 
L 772.409963 -243.888419 
L 772.346354 -241.104344 
L 772.238647 -238.320268 
L 772.111483 -235.536193 
L 771.992103 -232.752118 
L 771.901314 -229.968043 
L 771.848596 -227.183968 
L 771.833441 -224.399893 
L 771.849244 -221.615818 
L 771.885261 -218.831742 
L 771.92668 -216.047667 
L 771.956646 -213.263592 
L 771.962193 -210.479517 
L 771.940616 -207.695442 
L 771.900608 -204.911367 
L 771.856746 -202.127292 
L 771.821975 -199.343216 
L 771.803713 -196.559141 
L 771.804779 -193.775066 
L 771.825844 -190.990991 
L 771.865943 -188.206916 
L 771.921238 -185.422841 
L 771.985627 -182.638766 
L 772.056508 -179.85469 
L 772.144758 -177.070615 
L 772.283217 -174.28654 
L 772.525854 -171.502465 
L 772.930823 -168.71839 
L 773.526927 -165.934315 
L 774.277786 -163.15024 
L 775.073161 -160.366164 
L 775.768966 -157.582089 
L 776.257855 -154.798014 
L 776.516236 -152.013939 
L 776.591298 -149.229864 
L 776.558262 -146.445789 
L 776.522637 -143.661713 
L 776.707703 -140.877638 
L 777.578082 -138.093563 
L 779.879309 -135.309488 
L 784.474066 -132.525413 
L 791.945728 -129.741338 
L 802.10336 -126.957263 
L 813.676838 -124.173187 
L 824.494337 -121.389112 
L 832.199183 -118.605037 
L 835.1856 -115.820962 
L 833.196808 -113.036887 
L 827.207314 -110.252812 
L 818.745669 -107.468737 
L 809.226645 -104.684661 
L 799.718135 -101.900586 
L 791.048436 -99.116511 
L 783.881034 -96.332436 
L 778.601503 -93.548361 
L 775.190321 -90.764286 
L 773.276826 -87.980211 
z
" style="stroke: #595959; stroke-width: 1.25"/>
    </defs>
    <g clip-path="url(#p048db6eba3)">
     <use xlink:href="#m1f073abc09" x="0" y="432" style="fill: #a2c865; stroke: #595959; stroke-width: 1.25"/>
    </g>
   </g>
   <g id="line2d_8">
    <path d="M 137.592 335.996524 
L 137.592 337.047541 
" clip-path="url(#p048db6eba3)" style="fill: none; stroke: #000000"/>
   </g>
   <g id="line2d_9">
    <path d="M 137.592 335.295846 
L 137.592 334.614631 
" clip-path="url(#p048db6eba3)" style="fill: none; stroke: #000000"/>
   </g>
   <g id="line2d_10">
    <path d="M 131.6466 337.047541 
L 143.5374 337.047541 
" clip-path="url(#p048db6eba3)" style="fill: none; stroke: #000000; stroke-linecap: round"/>
   </g>
   <g id="line2d_11">
    <path d="M 131.6466 334.614631 
L 143.5374 334.614631 
" clip-path="url(#p048db6eba3)" style="fill: none; stroke: #000000; stroke-linecap: round"/>
   </g>
   <g id="line2d_12">
    <path d="M 296.136 336.400387 
L 296.136 337.436806 
" clip-path="url(#p048db6eba3)" style="fill: none; stroke: #000000"/>
   </g>
   <g id="line2d_13">
    <path d="M 296.136 335.694843 
L 296.136 334.673021 
" clip-path="url(#p048db6eba3)" style="fill: none; stroke: #000000"/>
   </g>
   <g id="line2d_14">
    <path d="M 290.1906 337.436806 
L 302.0814 337.436806 
" clip-path="url(#p048db6eba3)" style="fill: none; stroke: #000000; stroke-linecap: round"/>
   </g>
   <g id="line2d_15">
    <path d="M 290.1906 334.673021 
L 302.0814 334.673021 
" clip-path="url(#p048db6eba3)" style="fill: none; stroke: #000000; stroke-linecap: round"/>
   </g>
   <g id="line2d_16">
    <path d="M 454.68 317.112276 
L 454.68 325.729643 
" clip-path="url(#p048db6eba3)" style="fill: none; stroke: #000000"/>
   </g>
   <g id="line2d_17">
    <path d="M 454.68 311.180841 
L 454.68 306.28096 
" clip-path="url(#p048db6eba3)" style="fill: none; stroke: #000000"/>
   </g>
   <g id="line2d_18">
    <path d="M 448.7346 325.729643 
L 460.6254 325.729643 
" clip-path="url(#p048db6eba3)" style="fill: none; stroke: #000000; stroke-linecap: round"/>
   </g>
   <g id="line2d_19">
    <path d="M 448.7346 306.28096 
L 460.6254 306.28096 
" clip-path="url(#p048db6eba3)" style="fill: none; stroke: #000000; stroke-linecap: round"/>
   </g>
   <g id="line2d_20">
    <path d="M 613.224 313.02377 
L 613.224 321.399063 
" clip-path="url(#p048db6eba3)" style="fill: none; stroke: #000000"/>
   </g>
   <g id="line2d_21">
    <path d="M 613.224 307.339276 
L 613.224 298.826524 
" clip-path="url(#p048db6eba3)" style="fill: none; stroke: #000000"/>
   </g>
   <g id="line2d_22">
    <path d="M 607.2786 321.399063 
L 619.1694 321.399063 
" clip-path="url(#p048db6eba3)" style="fill: none; stroke: #000000; stroke-linecap: round"/>
   </g>
   <g id="line2d_23">
    <path d="M 607.2786 298.826524 
L 619.1694 298.826524 
" clip-path="url(#p048db6eba3)" style="fill: none; stroke: #000000; stroke-linecap: round"/>
   </g>
   <g id="line2d_24">
    <path d="M 771.768 320.474557 
L 771.768 329.53958 
" clip-path="url(#p048db6eba3)" style="fill: none; stroke: #000000"/>
   </g>
   <g id="line2d_25">
    <path d="M 771.768 311.000806 
L 771.768 297.697653 
" clip-path="url(#p048db6eba3)" style="fill: none; stroke: #000000"/>
   </g>
   <g id="line2d_26">
    <path d="M 765.8226 329.53958 
L 777.7134 329.53958 
" clip-path="url(#p048db6eba3)" style="fill: none; stroke: #000000; stroke-linecap: round"/>
   </g>
   <g id="line2d_27">
    <path d="M 765.8226 297.697653 
L 777.7134 297.697653 
" clip-path="url(#p048db6eba3)" style="fill: none; stroke: #000000; stroke-linecap: round"/>
   </g>
   <g id="line2d_28">
    <path d="M 125.7012 335.553734 
L 149.4828 335.553734 
" clip-path="url(#p048db6eba3)" style="fill: none; stroke: #ff0000; stroke-width: 2"/>
   </g>
   <g id="line2d_29">
    <path d="M 284.2452 335.918671 
L 308.0268 335.918671 
" clip-path="url(#p048db6eba3)" style="fill: none; stroke: #ff0000; stroke-width: 2"/>
   </g>
   <g id="line2d_30">
    <path d="M 442.7892 314.917791 
L 466.5708 314.917791 
" clip-path="url(#p048db6eba3)" style="fill: none; stroke: #ff0000; stroke-width: 2"/>
   </g>
   <g id="line2d_31">
    <path d="M 601.3332 310.869428 
L 625.1148 310.869428 
" clip-path="url(#p048db6eba3)" style="fill: none; stroke: #ff0000; stroke-width: 2"/>
   </g>
   <g id="line2d_32">
    <path d="M 759.8772 315.822833 
L 783.6588 315.822833 
" clip-path="url(#p048db6eba3)" style="fill: none; stroke: #ff0000; stroke-width: 2"/>
   </g>
   <g id="patch_3">
    <path d="M 58.32 373.416875 
L 58.32 27.6 
" style="fill: none; stroke: #cccccc; stroke-width: 1.25; stroke-linejoin: miter; stroke-linecap: square"/>
   </g>
   <g id="patch_4">
    <path d="M 851.04 373.416875 
L 851.04 27.6 
" style="fill: none; stroke: #cccccc; stroke-width: 1.25; stroke-linejoin: miter; stroke-linecap: square"/>
   </g>
   <g id="patch_5">
    <path d="M 58.32 373.416875 
L 851.04 373.416875 
" style="fill: none; stroke: #cccccc; stroke-width: 1.25; stroke-linejoin: miter; stroke-linecap: square"/>
   </g>
   <g id="patch_6">
    <path d="M 58.32 27.6 
L 851.04 27.6 
" style="fill: none; stroke: #cccccc; stroke-width: 1.25; stroke-linejoin: miter; stroke-linecap: square"/>
   </g>
   <g id="text_14">
    <!-- Handshake duration on TLS with mldsa44 signature algorithm — Local YDE (35ms/2%) -->
    <g style="fill: #262626" transform="translate(194.655 21.6) scale(0.12 -0.12)">
     <defs>
      <path id="DejaVuSans-54" d="M -19 4666 
L 3928 4666 
L 3928 4134 
L 2272 4134 
L 2272 0 
L 1638 0 
L 1638 4134 
L -19 4134 
L -19 4666 
z
" transform="scale(0.015625)"/>
      <path id="DejaVuSans-4c" d="M 628 4666 
L 1259 4666 
L 1259 531 
L 3531 531 
L 3531 0 
L 628 0 
L 628 4666 
z
" transform="scale(0.015625)"/>
      <path id="DejaVuSans-53" d="M 3425 4513 
L 3425 3897 
Q 3066 4069 2747 4153 
Q 2428 4238 2131 4238 
Q 1616 4238 1336 4038 
Q 1056 3838 1056 3469 
Q 1056 3159 1242 3001 
Q 1428 2844 1947 2747 
L 2328 2669 
Q 3034 2534 3370 2195 
Q 3706 1856 3706 1288 
Q 3706 609 3251 259 
Q 2797 -91 1919 -91 
Q 1588 -91 1214 -16 
Q 841 59 441 206 
L 441 856 
Q 825 641 1194 531 
Q 1563 422 1919 422 
Q 2459 422 2753 634 
Q 3047 847 3047 1241 
Q 3047 1584 2836 1778 
Q 2625 1972 2144 2069 
L 1759 2144 
Q 1053 2284 737 2584 
Q 422 2884 422 3419 
Q 422 4038 858 4394 
Q 1294 4750 2059 4750 
Q 2388 4750 2728 4690 
Q 3069 4631 3425 4513 
z
" transform="scale(0.015625)"/>
      <path id="DejaVuSans-77" d="M 269 3500 
L 844 3500 
L 1563 769 
L 2278 3500 
L 2956 3500 
L 3675 769 
L 4391 3500 
L 4966 3500 
L 4050 0 
L 3372 0 
L 2619 2869 
L 1863 0 
L 1184 0 
L 269 3500 
z
" transform="scale(0.015625)"/>
      <path id="DejaVuSans-6c" d="M 603 4863 
L 1178 4863 
L 1178 0 
L 603 0 
L 603 4863 
z
" transform="scale(0.015625)"/>
      <path id="DejaVuSans-67" d="M 2906 1791 
Q 2906 2416 2648 2759 
Q 2391 3103 1925 3103 
Q 1463 3103 1205 2759 
Q 947 2416 947 1791 
Q 947 1169 1205 825 
Q 1463 481 1925 481 
Q 2391 481 2648 825 
Q 2906 1169 2906 1791 
z
M 3481 434 
Q 3481 -459 3084 -895 
Q 2688 -1331 1869 -1331 
Q 1566 -1331 1297 -1286 
Q 1028 -1241 775 -1147 
L 775 -588 
Q 1028 -725 1275 -790 
Q 1522 -856 1778 -856 
Q 2344 -856 2625 -561 
Q 2906 -266 2906 331 
L 2906 616 
Q 2728 306 2450 153 
Q 2172 0 1784 0 
Q 1141 0 747 490 
Q 353 981 353 1791 
Q 353 2603 747 3093 
Q 1141 3584 1784 3584 
Q 2172 3584 2450 3431 
Q 2728 3278 2906 2969 
L 2906 3500 
L 3481 3500 
L 3481 434 
z
" transform="scale(0.015625)"/>
      <path id="DejaVuSans-2014" d="M 313 1978 
L 6088 1978 
L 6088 1528 
L 313 1528 
L 313 1978 
z
" transform="scale(0.015625)"/>
      <path id="DejaVuSans-59" d="M -13 4666 
L 666 4666 
L 1959 2747 
L 3244 4666 
L 3922 4666 
L 2272 2222 
L 2272 0 
L 1638 0 
L 1638 2222 
L -13 4666 
z
" transform="scale(0.015625)"/>
      <path id="DejaVuSans-44" d="M 1259 4147 
L 1259 519 
L 2022 519 
Q 2988 519 3436 956 
Q 3884 1394 3884 2338 
Q 3884 3275 3436 3711 
Q 2988 4147 2022 4147 
L 1259 4147 
z
M 628 4666 
L 1925 4666 
Q 3281 4666 3915 4102 
Q 4550 3538 4550 2338 
Q 4550 1131 3912 565 
Q 3275 0 1925 0 
L 628 0 
L 628 4666 
z
" transform="scale(0.015625)"/>
      <path id="DejaVuSans-45" d="M 628 4666 
L 3578 4666 
L 3578 4134 
L 1259 4134 
L 1259 2753 
L 3481 2753 
L 3481 2222 
L 1259 2222 
L 1259 531 
L 3634 531 
L 3634 0 
L 628 0 
L 628 4666 
z
" transform="scale(0.015625)"/>
      <path id="DejaVuSans-2f" d="M 1625 4666 
L 2156 4666 
L 531 -594 
L 0 -594 
L 1625 4666 
z
" transform="scale(0.015625)"/>
      <path id="DejaVuSans-25" d="M 4653 2053 
Q 4381 2053 4226 1822 
Q 4072 1591 4072 1178 
Q 4072 772 4226 539 
Q 4381 306 4653 306 
Q 4919 306 5073 539 
Q 5228 772 5228 1178 
Q 5228 1588 5073 1820 
Q 4919 2053 4653 2053 
z
M 4653 2450 
Q 5147 2450 5437 2106 
Q 5728 1763 5728 1178 
Q 5728 594 5436 251 
Q 5144 -91 4653 -91 
Q 4153 -91 3862 251 
Q 3572 594 3572 1178 
Q 3572 1766 3864 2108 
Q 4156 2450 4653 2450 
z
M 1428 4353 
Q 1159 4353 1004 4120 
Q 850 3888 850 3481 
Q 850 3069 1003 2837 
Q 1156 2606 1428 2606 
Q 1700 2606 1854 2837 
Q 2009 3069 2009 3481 
Q 2009 3884 1853 4118 
Q 1697 4353 1428 4353 
z
M 4250 4750 
L 4750 4750 
L 1831 -91 
L 1331 -91 
L 4250 4750 
z
M 1428 4750 
Q 1922 4750 2215 4408 
Q 2509 4066 2509 3481 
Q 2509 2891 2217 2550 
Q 1925 2209 1428 2209 
Q 931 2209 642 2551 
Q 353 2894 353 3481 
Q 353 4063 643 4406 
Q 934 4750 1428 4750 
z
" transform="scale(0.015625)"/>
     </defs>
     <use xlink:href="#DejaVuSans-48"/>
     <use xlink:href="#DejaVuSans-61" x="75.195312"/>
     <use xlink:href="#DejaVuSans-6e" x="136.474609"/>
     <use xlink:href="#DejaVuSans-64" x="199.853516"/>
     <use xlink:href="#DejaVuSans-73" x="263.330078"/>
     <use xlink:href="#DejaVuSans-68" x="315.429688"/>
     <use xlink:href="#DejaVuSans-61" x="378.808594"/>
     <use xlink:href="#DejaVuSans-6b" x="440.087891"/>
     <use xlink:href="#DejaVuSans-65" x="494.373047"/>
     <use xlink:href="#DejaVuSans-20" x="555.896484"/>
     <use xlink:href="#DejaVuSans-64" x="587.683594"/>
     <use xlink:href="#DejaVuSans-75" x="651.160156"/>
     <use xlink:href="#DejaVuSans-72" x="714.539062"/>
     <use xlink:href="#DejaVuSans-61" x="755.652344"/>
     <use xlink:href="#DejaVuSans-74" x="816.931641"/>
     <use xlink:href="#DejaVuSans-69" x="856.140625"/>
     <use xlink:href="#DejaVuSans-6f" x="883.923828"/>
     <use xlink:href="#DejaVuSans-6e" x="945.105469"/>
     <use xlink:href="#DejaVuSans-20" x="1008.484375"/>
     <use xlink:href="#DejaVuSans-6f" x="1040.271484"/>
     <use xlink:href="#DejaVuSans-6e" x="1101.453125"/>
     <use xlink:href="#DejaVuSans-20" x="1164.832031"/>
     <use xlink:href="#DejaVuSans-54" x="1196.619141"/>
     <use xlink:href="#DejaVuSans-4c" x="1257.703125"/>
     <use xlink:href="#DejaVuSans-53" x="1313.416016"/>
     <use xlink:href="#DejaVuSans-20" x="1376.892578"/>
     <use xlink:href="#DejaVuSans-77" x="1408.679688"/>
     <use xlink:href="#DejaVuSans-69" x="1490.466797"/>
     <use xlink:href="#DejaVuSans-74" x="1518.25"/>
     <use xlink:href="#DejaVuSans-68" x="1557.458984"/>
     <use xlink:href="#DejaVuSans-20" x="1620.837891"/>
     <use xlink:href="#DejaVuSans-6d" x="1652.625"/>
     <use xlink:href="#DejaVuSans-6c" x="1750.037109"/>
     <use xlink:href="#DejaVuSans-64" x="1777.820312"/>
     <use xlink:href="#DejaVuSans-73" x="1841.296875"/>
     <use xlink:href="#DejaVuSans-61" x="1893.396484"/>
     <use xlink:href="#DejaVuSans-34" x="1954.675781"/>
     <use xlink:href="#DejaVuSans-34" x="2018.298828"/>
     <use xlink:href="#DejaVuSans-20" x="2081.921875"/>
     <use xlink:href="#DejaVuSans-73" x="2113.708984"/>
     <use xlink:href="#DejaVuSans-69" x="2165.808594"/>
     <use xlink:href="#DejaVuSans-67" x="2193.591797"/>
     <use xlink:href="#DejaVuSans-6e" x="2257.068359"/>
     <use xlink:href="#DejaVuSans-61" x="2320.447266"/>
     <use xlink:href="#DejaVuSans-74" x="2381.726562"/>
     <use xlink:href="#DejaVuSans-75" x="2420.935547"/>
     <use xlink:href="#DejaVuSans-72" x="2484.314453"/>
     <use xlink:href="#DejaVuSans-65" x="2523.177734"/>
     <use xlink:href="#DejaVuSans-20" x="2584.701172"/>
     <use xlink:href="#DejaVuSans-61" x="2616.488281"/>
     <use xlink:href="#DejaVuSans-6c" x="2677.767578"/>
     <use xlink:href="#DejaVuSans-67" x="2705.550781"/>
     <use xlink:href="#DejaVuSans-6f" x="2769.027344"/>
     <use xlink:href="#DejaVuSans-72" x="2830.208984"/>
     <use xlink:href="#DejaVuSans-69" x="2871.322266"/>
     <use xlink:href="#DejaVuSans-74" x="2899.105469"/>
     <use xlink:href="#DejaVuSans-68" x="2938.314453"/>
     <use xlink:href="#DejaVuSans-6d" x="3001.693359"/>
     <use xlink:href="#DejaVuSans-20" x="3099.105469"/>
     <use xlink:href="#DejaVuSans-2014" x="3130.892578"/>
     <use xlink:href="#DejaVuSans-20" x="3230.892578"/>
     <use xlink:href="#DejaVuSans-4c" x="3262.679688"/>
     <use xlink:href="#DejaVuSans-6f" x="3316.642578"/>
     <use xlink:href="#DejaVuSans-63" x="3377.824219"/>
     <use xlink:href="#DejaVuSans-61" x="3432.804688"/>
     <use xlink:href="#DejaVuSans-6c" x="3494.083984"/>
     <use xlink:href="#DejaVuSans-20" x="3521.867188"/>
     <use xlink:href="#DejaVuSans-59" x="3553.654297"/>
     <use xlink:href="#DejaVuSans-44" x="3614.738281"/>
     <use xlink:href="#DejaVuSans-45" x="3691.740234"/>
     <use xlink:href="#DejaVuSans-20" x="3754.923828"/>
     <use xlink:href="#DejaVuSans-28" x="3786.710938"/>
     <use xlink:href="#DejaVuSans-33" x="3825.724609"/>
     <use xlink:href="#DejaVuSans-35" x="3889.347656"/>
     <use xlink:href="#DejaVuSans-6d" x="3952.970703"/>
     <use xlink:href="#DejaVuSans-73" x="4050.382812"/>
     <use xlink:href="#DejaVuSans-2f" x="4102.482422"/>
     <use xlink:href="#DejaVuSans-32" x="4136.173828"/>
     <use xlink:href="#DejaVuSans-25" x="4199.796875"/>
     <use xlink:href="#DejaVuSans-29" x="4294.816406"/>
    </g>
   </g>
  </g>
 </g>
 <defs>
  <clipPath id="p048db6eba3">
   <rect x="58.32" y="27.6" width="792.72" height="345.816875"/>
  </clipPath>
 </defs>
</svg>
