<?xml version="1.0" encoding="utf-8" standalone="no"?>
<!DOCTYPE svg PUBLIC "-//W3C//DTD SVG 1.1//EN"
  "http://www.w3.org/Graphics/SVG/1.1/DTD/svg11.dtd">
<svg xmlns:xlink="http://www.w3.org/1999/xlink" width="864pt" height="432pt" viewBox="0 0 864 432" xmlns="http://www.w3.org/2000/svg" version="1.1">
 <metadata>
  <rdf:RDF xmlns:dc="http://purl.org/dc/elements/1.1/" xmlns:cc="http://creativecommons.org/ns#" xmlns:rdf="http://www.w3.org/1999/02/22-rdf-syntax-ns#">
   <cc:Work>
    <dc:type rdf:resource="http://purl.org/dc/dcmitype/StillImage"/>
    <dc:date>2026-03-21T14:06:19.030231</dc:date>
    <dc:format>image/svg+xml</dc:format>
    <dc:creator>
     <cc:Agent>
      <dc:title>Matplotlib v3.6.3, https://matplotlib.org/</dc:title>
     </cc:Agent>
    </dc:creator>
   </cc:Work>
  </rdf:RDF>
 </metadata>
 <defs>
  <style type="text/css">*{stroke-linejoin: round; stroke-linecap: butt}</style>
 </defs>
 <g id="figure_1">
  <g id="patch_1">
   <path d="M 0 432 
L 864 432 
L 864 0 
L 0 0 
z
" style="fill: #ffffff"/>
  </g>
  <g id="axes_1">
   <g id="patch_2">
    <path d="M 51.3 373.416875 
L 851.04 373.416875 
L 851.04 27.6 
L 51.3 27.6 
z
" style="fill: #ffffff"/>
   </g>
   <g id="matplotlib.axis_1">
    <g id="xtick_1">
     <g id="text_1">
      <!-- P-256 -->
      <g style="fill: #262626" transform="translate(97.593421 400.575919) rotate(-15) scale(0.12 -0.12)">
       <defs>
        <path id="DejaVuSans-50" d="M 1259 4147 
L 1259 2394 
L 2053 2394 
Q 2494 2394 2734 2622 
Q 2975 2850 2975 3272 
Q 2975 3691 2734 3919 
Q 2494 4147 2053 4147 
L 1259 4147 
z
M 628 4666 
L 2053 4666 
Q 2838 4666 3239 4311 
Q 3641 3956 3641 3272 
Q 3641 2581 3239 2228 
Q 2838 1875 2053 1875 
L 1259 1875 
L 1259 0 
L 628 0 
L 628 4666 
z
" transform="scale(0.015625)"/>
        <path id="DejaVuSans-2d" d="M 313 2009 
L 1997 2009 
L 1997 1497 
L 313 1497 
L 313 2009 
z
" transform="scale(0.015625)"/>
        <path id="DejaVuSans-32" d="M 1228 531 
L 3431 531 
L 3431 0 
L 469 0 
L 469 531 
Q 828 903 1448 1529 
Q 2069 2156 2228 2338 
Q 2531 2678 2651 2914 
Q 2772 3150 2772 3378 
Q 2772 3750 2511 3984 
Q 2250 4219 1831 4219 
Q 1534 4219 1204 4116 
Q 875 4013 500 3803 
L 500 4441 
Q 881 4594 1212 4672 
Q 1544 4750 1819 4750 
Q 2544 4750 2975 4387 
Q 3406 4025 3406 3419 
Q 3406 3131 3298 2873 
Q 3191 2616 2906 2266 
Q 2828 2175 2409 1742 
Q 1991 1309 1228 531 
z
" transform="scale(0.015625)"/>
        <path id="DejaVuSans-35" d="M 691 4666 
L 3169 4666 
L 3169 4134 
L 1269 4134 
L 1269 2991 
Q 1406 3038 1543 3061 
Q 1681 3084 1819 3084 
Q 2600 3084 3056 2656 
Q 3513 2228 3513 1497 
Q 3513 744 3044 326 
Q 2575 -91 1722 -91 
Q 1428 -91 1123 -41 
Q 819 9 494 109 
L 494 744 
Q 775 591 1075 516 
Q 1375 441 1709 441 
Q 2250 441 2565 725 
Q 2881 1009 2881 1497 
Q 2881 1984 2565 2268 
Q 2250 2553 1709 2553 
Q 1456 2553 1204 2497 
Q 953 2441 691 2322 
L 691 4666 
z
" transform="scale(0.015625)"/>
        <path id="DejaVuSans-36" d="M 2113 2584 
Q 1688 2584 1439 2293 
Q 1191 2003 1191 1497 
Q 1191 994 1439 701 
Q 1688 409 2113 409 
Q 2538 409 2786 701 
Q 3034 994 3034 1497 
Q 3034 2003 2786 2293 
Q 2538 2584 2113 2584 
z
M 3366 4563 
L 3366 3988 
Q 3128 4100 2886 4159 
Q 2644 4219 2406 4219 
Q 1781 4219 1451 3797 
Q 1122 3375 1075 2522 
Q 1259 2794 1537 2939 
Q 1816 3084 2150 3084 
Q 2853 3084 3261 2657 
Q 3669 2231 3669 1497 
Q 3669 778 3244 343 
Q 2819 -91 2113 -91 
Q 1303 -91 875 529 
Q 447 1150 447 2328 
Q 447 3434 972 4092 
Q 1497 4750 2381 4750 
Q 2619 4750 2861 4703 
Q 3103 4656 3366 4563 
z
" transform="scale(0.015625)"/>
       </defs>
       <use xlink:href="#DejaVuSans-50"/>
       <use xlink:href="#DejaVuSans-2d" x="58.052734"/>
       <use xlink:href="#DejaVuSans-32" x="94.136719"/>
       <use xlink:href="#DejaVuSans-35" x="157.759766"/>
       <use xlink:href="#DejaVuSans-36" x="221.382812"/>
      </g>
     </g>
    </g>
    <g id="xtick_2">
     <g id="text_2">
      <!-- x25519 -->
      <g style="fill: #262626" transform="translate(246.841378 403.442987) rotate(-15) scale(0.12 -0.12)">
       <defs>
        <path id="DejaVuSans-78" d="M 3513 3500 
L 2247 1797 
L 3578 0 
L 2900 0 
L 1881 1375 
L 863 0 
L 184 0 
L 1544 1831 
L 300 3500 
L 978 3500 
L 1906 2253 
L 2834 3500 
L 3513 3500 
z
" transform="scale(0.015625)"/>
        <path id="DejaVuSans-31" d="M 794 531 
L 1825 531 
L 1825 4091 
L 703 3866 
L 703 4441 
L 1819 4666 
L 2450 4666 
L 2450 531 
L 3481 531 
L 3481 0 
L 794 0 
L 794 531 
z
" transform="scale(0.015625)"/>
        <path id="DejaVuSans-39" d="M 703 97 
L 703 672 
Q 941 559 1184 500 
Q 1428 441 1663 441 
Q 2288 441 2617 861 
Q 2947 1281 2994 2138 
Q 2813 1869 2534 1725 
Q 2256 1581 1919 1581 
Q 1219 1581 811 2004 
Q 403 2428 403 3163 
Q 403 3881 828 4315 
Q 1253 4750 1959 4750 
Q 2769 4750 3195 4129 
Q 3622 3509 3622 2328 
Q 3622 1225 3098 567 
Q 2575 -91 1691 -91 
Q 1453 -91 1209 -44 
Q 966 3 703 97 
z
M 1959 2075 
Q 2384 2075 2632 2365 
Q 2881 2656 2881 3163 
Q 2881 3666 2632 3958 
Q 2384 4250 1959 4250 
Q 1534 4250 1286 3958 
Q 1038 3666 1038 3163 
Q 1038 2656 1286 2365 
Q 1534 2075 1959 2075 
z
" transform="scale(0.015625)"/>
       </defs>
       <use xlink:href="#DejaVuSans-78"/>
       <use xlink:href="#DejaVuSans-32" x="59.179688"/>
       <use xlink:href="#DejaVuSans-35" x="122.802734"/>
       <use xlink:href="#DejaVuSans-35" x="186.425781"/>
       <use xlink:href="#DejaVuSans-31" x="250.048828"/>
       <use xlink:href="#DejaVuSans-39" x="313.671875"/>
      </g>
     </g>
    </g>
    <g id="xtick_3">
     <g id="text_3">
      <!-- hqc128 -->
      <g style="fill: #262626" transform="translate(407.321845 403.300313) rotate(-15) scale(0.12 -0.12)">
       <defs>
        <path id="DejaVuSans-68" d="M 3513 2113 
L 3513 0 
L 2938 0 
L 2938 2094 
Q 2938 2591 2744 2837 
Q 2550 3084 2163 3084 
Q 1697 3084 1428 2787 
Q 1159 2491 1159 1978 
L 1159 0 
L 581 0 
L 581 4863 
L 1159 4863 
L 1159 2956 
Q 1366 3272 1645 3428 
Q 1925 3584 2291 3584 
Q 2894 3584 3203 3211 
Q 3513 2838 3513 2113 
z
" transform="scale(0.015625)"/>
        <path id="DejaVuSans-71" d="M 947 1747 
Q 947 1113 1208 752 
Q 1469 391 1925 391 
Q 2381 391 2643 752 
Q 2906 1113 2906 1747 
Q 2906 2381 2643 2742 
Q 2381 3103 1925 3103 
Q 1469 3103 1208 2742 
Q 947 2381 947 1747 
z
M 2906 525 
Q 2725 213 2448 61 
Q 2172 -91 1784 -91 
Q 1150 -91 751 415 
Q 353 922 353 1747 
Q 353 2572 751 3078 
Q 1150 3584 1784 3584 
Q 2172 3584 2448 3432 
Q 2725 3281 2906 2969 
L 2906 3500 
L 3481 3500 
L 3481 -1331 
L 2906 -1331 
L 2906 525 
z
" transform="scale(0.015625)"/>
        <path id="DejaVuSans-63" d="M 3122 3366 
L 3122 2828 
Q 2878 2963 2633 3030 
Q 2388 3097 2138 3097 
Q 1578 3097 1268 2742 
Q 959 2388 959 1747 
Q 959 1106 1268 751 
Q 1578 397 2138 397 
Q 2388 397 2633 464 
Q 2878 531 3122 666 
L 3122 134 
Q 2881 22 2623 -34 
Q 2366 -91 2075 -91 
Q 1284 -91 818 406 
Q 353 903 353 1747 
Q 353 2603 823 3093 
Q 1294 3584 2113 3584 
Q 2378 3584 2631 3529 
Q 2884 3475 3122 3366 
z
" transform="scale(0.015625)"/>
        <path id="DejaVuSans-38" d="M 2034 2216 
Q 1584 2216 1326 1975 
Q 1069 1734 1069 1313 
Q 1069 891 1326 650 
Q 1584 409 2034 409 
Q 2484 409 2743 651 
Q 3003 894 3003 1313 
Q 3003 1734 2745 1975 
Q 2488 2216 2034 2216 
z
M 1403 2484 
Q 997 2584 770 2862 
Q 544 3141 544 3541 
Q 544 4100 942 4425 
Q 1341 4750 2034 4750 
Q 2731 4750 3128 4425 
Q 3525 4100 3525 3541 
Q 3525 3141 3298 2862 
Q 3072 2584 2669 2484 
Q 3125 2378 3379 2068 
Q 3634 1759 3634 1313 
Q 3634 634 3220 271 
Q 2806 -91 2034 -91 
Q 1263 -91 848 271 
Q 434 634 434 1313 
Q 434 1759 690 2068 
Q 947 2378 1403 2484 
z
M 1172 3481 
Q 1172 3119 1398 2916 
Q 1625 2713 2034 2713 
Q 2441 2713 2670 2916 
Q 2900 3119 2900 3481 
Q 2900 3844 2670 4047 
Q 2441 4250 2034 4250 
Q 1625 4250 1398 4047 
Q 1172 3844 1172 3481 
z
" transform="scale(0.015625)"/>
       </defs>
       <use xlink:href="#DejaVuSans-68"/>
       <use xlink:href="#DejaVuSans-71" x="63.378906"/>
       <use xlink:href="#DejaVuSans-63" x="126.855469"/>
       <use xlink:href="#DejaVuSans-31" x="181.835938"/>
       <use xlink:href="#DejaVuSans-32" x="245.458984"/>
       <use xlink:href="#DejaVuSans-38" x="309.082031"/>
      </g>
     </g>
    </g>
    <g id="xtick_4">
     <g id="text_4">
      <!-- p256_hqc128 -->
      <g style="fill: #262626" transform="translate(531.904834 412.753193) rotate(-15) scale(0.12 -0.12)">
       <defs>
        <path id="DejaVuSans-70" d="M 1159 525 
L 1159 -1331 
L 581 -1331 
L 581 3500 
L 1159 3500 
L 1159 2969 
Q 1341 3281 1617 3432 
Q 1894 3584 2278 3584 
Q 2916 3584 3314 3078 
Q 3713 2572 3713 1747 
Q 3713 922 3314 415 
Q 2916 -91 2278 -91 
Q 1894 -91 1617 61 
Q 1341 213 1159 525 
z
M 3116 1747 
Q 3116 2381 2855 2742 
Q 2594 3103 2138 3103 
Q 1681 3103 1420 2742 
Q 1159 2381 1159 1747 
Q 1159 1113 1420 752 
Q 1681 391 2138 391 
Q 2594 391 2855 752 
Q 3116 1113 3116 1747 
z
" transform="scale(0.015625)"/>
        <path id="DejaVuSans-5f" d="M 3263 -1063 
L 3263 -1509 
L -63 -1509 
L -63 -1063 
L 3263 -1063 
z
" transform="scale(0.015625)"/>
       </defs>
       <use xlink:href="#DejaVuSans-70"/>
       <use xlink:href="#DejaVuSans-32" x="63.476562"/>
       <use xlink:href="#DejaVuSans-35" x="127.099609"/>
       <use xlink:href="#DejaVuSans-36" x="190.722656"/>
       <use xlink:href="#DejaVuSans-5f" x="254.345703"/>
       <use xlink:href="#DejaVuSans-68" x="304.345703"/>
       <use xlink:href="#DejaVuSans-71" x="367.724609"/>
       <use xlink:href="#DejaVuSans-63" x="431.201172"/>
       <use xlink:href="#DejaVuSans-31" x="486.181641"/>
       <use xlink:href="#DejaVuSans-32" x="549.804688"/>
       <use xlink:href="#DejaVuSans-38" x="613.427734"/>
      </g>
     </g>
    </g>
    <g id="xtick_5">
     <g id="text_5">
      <!-- x25519_hqc128 -->
      <g style="fill: #262626" transform="translate(677.601202 416.571906) rotate(-15) scale(0.12 -0.12)">
       <use xlink:href="#DejaVuSans-78"/>
       <use xlink:href="#DejaVuSans-32" x="59.179688"/>
       <use xlink:href="#DejaVuSans-35" x="122.802734"/>
       <use xlink:href="#DejaVuSans-35" x="186.425781"/>
       <use xlink:href="#DejaVuSans-31" x="250.048828"/>
       <use xlink:href="#DejaVuSans-39" x="313.671875"/>
       <use xlink:href="#DejaVuSans-5f" x="377.294922"/>
       <use xlink:href="#DejaVuSans-68" x="427.294922"/>
       <use xlink:href="#DejaVuSans-71" x="490.673828"/>
       <use xlink:href="#DejaVuSans-63" x="554.150391"/>
       <use xlink:href="#DejaVuSans-31" x="609.130859"/>
       <use xlink:href="#DejaVuSans-32" x="672.753906"/>
       <use xlink:href="#DejaVuSans-38" x="736.376953"/>
      </g>
     </g>
    </g>
   </g>
   <g id="matplotlib.axis_2">
    <g id="ytick_1">
     <g id="line2d_1">
      <path d="M 51.3 371.56808 
L 851.04 371.56808 
" clip-path="url(#p5d8490b7b2)" style="fill: none; stroke: #cccccc; stroke-linecap: round"/>
     </g>
     <g id="text_6">
      <!-- 0 -->
      <g style="fill: #262626" transform="translate(34.80125 375.74722) scale(0.11 -0.11)">
       <defs>
        <path id="DejaVuSans-30" d="M 2034 4250 
Q 1547 4250 1301 3770 
Q 1056 3291 1056 2328 
Q 1056 1369 1301 889 
Q 1547 409 2034 409 
Q 2525 409 2770 889 
Q 3016 1369 3016 2328 
Q 3016 3291 2770 3770 
Q 2525 4250 2034 4250 
z
M 2034 4750 
Q 2819 4750 3233 4129 
Q 3647 3509 3647 2328 
Q 3647 1150 3233 529 
Q 2819 -91 2034 -91 
Q 1250 -91 836 529 
Q 422 1150 422 2328 
Q 422 3509 836 4129 
Q 1250 4750 2034 4750 
z
" transform="scale(0.015625)"/>
       </defs>
       <use xlink:href="#DejaVuSans-30"/>
      </g>
     </g>
    </g>
    <g id="ytick_2">
     <g id="line2d_2">
      <path d="M 51.3 309.321562 
L 851.04 309.321562 
" clip-path="url(#p5d8490b7b2)" style="fill: none; stroke: #cccccc; stroke-linecap: round"/>
     </g>
     <g id="text_7">
      <!-- 5 -->
      <g style="fill: #262626" transform="translate(34.80125 313.500703) scale(0.11 -0.11)">
       <use xlink:href="#DejaVuSans-35"/>
      </g>
     </g>
    </g>
    <g id="ytick_3">
     <g id="line2d_3">
      <path d="M 51.3 247.075045 
L 851.04 247.075045 
" clip-path="url(#p5d8490b7b2)" style="fill: none; stroke: #cccccc; stroke-linecap: round"/>
     </g>
     <g id="text_8">
      <!-- 10 -->
      <g style="fill: #262626" transform="translate(27.8025 251.254185) scale(0.11 -0.11)">
       <use xlink:href="#DejaVuSans-31"/>
       <use xlink:href="#DejaVuSans-30" x="63.623047"/>
      </g>
     </g>
    </g>
    <g id="ytick_4">
     <g id="line2d_4">
      <path d="M 51.3 184.828527 
L 851.04 184.828527 
" clip-path="url(#p5d8490b7b2)" style="fill: none; stroke: #cccccc; stroke-linecap: round"/>
     </g>
     <g id="text_9">
      <!-- 15 -->
      <g style="fill: #262626" transform="translate(27.8025 189.007668) scale(0.11 -0.11)">
       <use xlink:href="#DejaVuSans-31"/>
       <use xlink:href="#DejaVuSans-35" x="63.623047"/>
      </g>
     </g>
    </g>
    <g id="ytick_5">
     <g id="line2d_5">
      <path d="M 51.3 122.58201 
L 851.04 122.58201 
" clip-path="url(#p5d8490b7b2)" style="fill: none; stroke: #cccccc; stroke-linecap: round"/>
     </g>
     <g id="text_10">
      <!-- 20 -->
      <g style="fill: #262626" transform="translate(27.8025 126.76115) scale(0.11 -0.11)">
       <use xlink:href="#DejaVuSans-32"/>
       <use xlink:href="#DejaVuSans-30" x="63.623047"/>
      </g>
     </g>
    </g>
    <g id="ytick_6">
     <g id="line2d_6">
      <path d="M 51.3 60.335492 
L 851.04 60.335492 
" clip-path="url(#p5d8490b7b2)" style="fill: none; stroke: #cccccc; stroke-linecap: round"/>
     </g>
     <g id="text_11">
      <!-- 25 -->
      <g style="fill: #262626" transform="translate(27.8025 64.514633) scale(0.11 -0.11)">
       <use xlink:href="#DejaVuSans-32"/>
       <use xlink:href="#DejaVuSans-35" x="63.623047"/>
      </g>
     </g>
    </g>
    <g id="text_12">
     <!-- Handshake duration (ms) -->
     <g style="fill: #262626" transform="translate(21.306875 276.57625) rotate(-90) scale(0.12 -0.12)">
      <defs>
       <path id="DejaVuSans-48" d="M 628 4666 
L 1259 4666 
L 1259 2753 
L 3553 2753 
L 3553 4666 
L 4184 4666 
L 4184 0 
L 3553 0 
L 3553 2222 
L 1259 2222 
L 1259 0 
L 628 0 
L 628 4666 
z
" transform="scale(0.015625)"/>
       <path id="DejaVuSans-61" d="M 2194 1759 
Q 1497 1759 1228 1600 
Q 959 1441 959 1056 
Q 959 750 1161 570 
Q 1363 391 1709 391 
Q 2188 391 2477 730 
Q 2766 1069 2766 1631 
L 2766 1759 
L 2194 1759 
z
M 3341 1997 
L 3341 0 
L 2766 0 
L 2766 531 
Q 2569 213 2275 61 
Q 1981 -91 1556 -91 
Q 1019 -91 701 211 
Q 384 513 384 1019 
Q 384 1609 779 1909 
Q 1175 2209 1959 2209 
L 2766 2209 
L 2766 2266 
Q 2766 2663 2505 2880 
Q 2244 3097 1772 3097 
Q 1472 3097 1187 3025 
Q 903 2953 641 2809 
L 641 3341 
Q 956 3463 1253 3523 
Q 1550 3584 1831 3584 
Q 2591 3584 2966 3190 
Q 3341 2797 3341 1997 
z
" transform="scale(0.015625)"/>
       <path id="DejaVuSans-6e" d="M 3513 2113 
L 3513 0 
L 2938 0 
L 2938 2094 
Q 2938 2591 2744 2837 
Q 2550 3084 2163 3084 
Q 1697 3084 1428 2787 
Q 1159 2491 1159 1978 
L 1159 0 
L 581 0 
L 581 3500 
L 1159 3500 
L 1159 2956 
Q 1366 3272 1645 3428 
Q 1925 3584 2291 3584 
Q 2894 3584 3203 3211 
Q 3513 2838 3513 2113 
z
" transform="scale(0.015625)"/>
       <path id="DejaVuSans-64" d="M 2906 2969 
L 2906 4863 
L 3481 4863 
L 3481 0 
L 2906 0 
L 2906 525 
Q 2725 213 2448 61 
Q 2172 -91 1784 -91 
Q 1150 -91 751 415 
Q 353 922 353 1747 
Q 353 2572 751 3078 
Q 1150 3584 1784 3584 
Q 2172 3584 2448 3432 
Q 2725 3281 2906 2969 
z
M 947 1747 
Q 947 1113 1208 752 
Q 1469 391 1925 391 
Q 2381 391 2643 752 
Q 2906 1113 2906 1747 
Q 2906 2381 2643 2742 
Q 2381 3103 1925 3103 
Q 1469 3103 1208 2742 
Q 947 2381 947 1747 
z
" transform="scale(0.015625)"/>
       <path id="DejaVuSans-73" d="M 2834 3397 
L 2834 2853 
Q 2591 2978 2328 3040 
Q 2066 3103 1784 3103 
Q 1356 3103 1142 2972 
Q 928 2841 928 2578 
Q 928 2378 1081 2264 
Q 1234 2150 1697 2047 
L 1894 2003 
Q 2506 1872 2764 1633 
Q 3022 1394 3022 966 
Q 3022 478 2636 193 
Q 2250 -91 1575 -91 
Q 1294 -91 989 -36 
Q 684 19 347 128 
L 347 722 
Q 666 556 975 473 
Q 1284 391 1588 391 
Q 1994 391 2212 530 
Q 2431 669 2431 922 
Q 2431 1156 2273 1281 
Q 2116 1406 1581 1522 
L 1381 1569 
Q 847 1681 609 1914 
Q 372 2147 372 2553 
Q 372 3047 722 3315 
Q 1072 3584 1716 3584 
Q 2034 3584 2315 3537 
Q 2597 3491 2834 3397 
z
" transform="scale(0.015625)"/>
       <path id="DejaVuSans-6b" d="M 581 4863 
L 1159 4863 
L 1159 1991 
L 2875 3500 
L 3609 3500 
L 1753 1863 
L 3688 0 
L 2938 0 
L 1159 1709 
L 1159 0 
L 581 0 
L 581 4863 
z
" transform="scale(0.015625)"/>
       <path id="DejaVuSans-65" d="M 3597 1894 
L 3597 1613 
L 953 1613 
Q 991 1019 1311 708 
Q 1631 397 2203 397 
Q 2534 397 2845 478 
Q 3156 559 3463 722 
L 3463 178 
Q 3153 47 2828 -22 
Q 2503 -91 2169 -91 
Q 1331 -91 842 396 
Q 353 884 353 1716 
Q 353 2575 817 3079 
Q 1281 3584 2069 3584 
Q 2775 3584 3186 3129 
Q 3597 2675 3597 1894 
z
M 3022 2063 
Q 3016 2534 2758 2815 
Q 2500 3097 2075 3097 
Q 1594 3097 1305 2825 
Q 1016 2553 972 2059 
L 3022 2063 
z
" transform="scale(0.015625)"/>
       <path id="DejaVuSans-20" transform="scale(0.015625)"/>
       <path id="DejaVuSans-75" d="M 544 1381 
L 544 3500 
L 1119 3500 
L 1119 1403 
Q 1119 906 1312 657 
Q 1506 409 1894 409 
Q 2359 409 2629 706 
Q 2900 1003 2900 1516 
L 2900 3500 
L 3475 3500 
L 3475 0 
L 2900 0 
L 2900 538 
Q 2691 219 2414 64 
Q 2138 -91 1772 -91 
Q 1169 -91 856 284 
Q 544 659 544 1381 
z
M 1991 3584 
L 1991 3584 
z
" transform="scale(0.015625)"/>
       <path id="DejaVuSans-72" d="M 2631 2963 
Q 2534 3019 2420 3045 
Q 2306 3072 2169 3072 
Q 1681 3072 1420 2755 
Q 1159 2438 1159 1844 
L 1159 0 
L 581 0 
L 581 3500 
L 1159 3500 
L 1159 2956 
Q 1341 3275 1631 3429 
Q 1922 3584 2338 3584 
Q 2397 3584 2469 3576 
Q 2541 3569 2628 3553 
L 2631 2963 
z
" transform="scale(0.015625)"/>
       <path id="DejaVuSans-74" d="M 1172 4494 
L 1172 3500 
L 2356 3500 
L 2356 3053 
L 1172 3053 
L 1172 1153 
Q 1172 725 1289 603 
Q 1406 481 1766 481 
L 2356 481 
L 2356 0 
L 1766 0 
Q 1100 0 847 248 
Q 594 497 594 1153 
L 594 3053 
L 172 3053 
L 172 3500 
L 594 3500 
L 594 4494 
L 1172 4494 
z
" transform="scale(0.015625)"/>
       <path id="DejaVuSans-69" d="M 603 3500 
L 1178 3500 
L 1178 0 
L 603 0 
L 603 3500 
z
M 603 4863 
L 1178 4863 
L 1178 4134 
L 603 4134 
L 603 4863 
z
" transform="scale(0.015625)"/>
       <path id="DejaVuSans-6f" d="M 1959 3097 
Q 1497 3097 1228 2736 
Q 959 2375 959 1747 
Q 959 1119 1226 758 
Q 1494 397 1959 397 
Q 2419 397 2687 759 
Q 2956 1122 2956 1747 
Q 2956 2369 2687 2733 
Q 2419 3097 1959 3097 
z
M 1959 3584 
Q 2709 3584 3137 3096 
Q 3566 2609 3566 1747 
Q 3566 888 3137 398 
Q 2709 -91 1959 -91 
Q 1206 -91 779 398 
Q 353 888 353 1747 
Q 353 2609 779 3096 
Q 1206 3584 1959 3584 
z
" transform="scale(0.015625)"/>
       <path id="DejaVuSans-28" d="M 1984 4856 
Q 1566 4138 1362 3434 
Q 1159 2731 1159 2009 
Q 1159 1288 1364 580 
Q 1569 -128 1984 -844 
L 1484 -844 
Q 1016 -109 783 600 
Q 550 1309 550 2009 
Q 550 2706 781 3412 
Q 1013 4119 1484 4856 
L 1984 4856 
z
" transform="scale(0.015625)"/>
       <path id="DejaVuSans-6d" d="M 3328 2828 
Q 3544 3216 3844 3400 
Q 4144 3584 4550 3584 
Q 5097 3584 5394 3201 
Q 5691 2819 5691 2113 
L 5691 0 
L 5113 0 
L 5113 2094 
Q 5113 2597 4934 2840 
Q 4756 3084 4391 3084 
Q 3944 3084 3684 2787 
Q 3425 2491 3425 1978 
L 3425 0 
L 2847 0 
L 2847 2094 
Q 2847 2600 2669 2842 
Q 2491 3084 2119 3084 
Q 1678 3084 1418 2786 
Q 1159 2488 1159 1978 
L 1159 0 
L 581 0 
L 581 3500 
L 1159 3500 
L 1159 2956 
Q 1356 3278 1631 3431 
Q 1906 3584 2284 3584 
Q 2666 3584 2933 3390 
Q 3200 3197 3328 2828 
z
" transform="scale(0.015625)"/>
       <path id="DejaVuSans-29" d="M 513 4856 
L 1013 4856 
Q 1481 4119 1714 3412 
Q 1947 2706 1947 2009 
Q 1947 1309 1714 600 
Q 1481 -109 1013 -844 
L 513 -844 
Q 928 -128 1133 580 
Q 1338 1288 1338 2009 
Q 1338 2731 1133 3434 
Q 928 4138 513 4856 
z
" transform="scale(0.015625)"/>
      </defs>
      <use xlink:href="#DejaVuSans-48"/>
      <use xlink:href="#DejaVuSans-61" x="75.195312"/>
      <use xlink:href="#DejaVuSans-6e" x="136.474609"/>
      <use xlink:href="#DejaVuSans-64" x="199.853516"/>
      <use xlink:href="#DejaVuSans-73" x="263.330078"/>
      <use xlink:href="#DejaVuSans-68" x="315.429688"/>
      <use xlink:href="#DejaVuSans-61" x="378.808594"/>
      <use xlink:href="#DejaVuSans-6b" x="440.087891"/>
      <use xlink:href="#DejaVuSans-65" x="494.373047"/>
      <use xlink:href="#DejaVuSans-20" x="555.896484"/>
      <use xlink:href="#DejaVuSans-64" x="587.683594"/>
      <use xlink:href="#DejaVuSans-75" x="651.160156"/>
      <use xlink:href="#DejaVuSans-72" x="714.539062"/>
      <use xlink:href="#DejaVuSans-61" x="755.652344"/>
      <use xlink:href="#DejaVuSans-74" x="816.931641"/>
      <use xlink:href="#DejaVuSans-69" x="856.140625"/>
      <use xlink:href="#DejaVuSans-6f" x="883.923828"/>
      <use xlink:href="#DejaVuSans-6e" x="945.105469"/>
      <use xlink:href="#DejaVuSans-20" x="1008.484375"/>
      <use xlink:href="#DejaVuSans-28" x="1040.271484"/>
      <use xlink:href="#DejaVuSans-6d" x="1079.285156"/>
      <use xlink:href="#DejaVuSans-73" x="1176.697266"/>
      <use xlink:href="#DejaVuSans-29" x="1228.796875"/>
     </g>
    </g>
   </g>
   <g id="PolyCollection_1">
    <defs>
     <path id="m16411303a7" d="M 131.513382 -75.416879 
L 131.034618 -75.416879 
L 130.807303 -75.671227 
L 130.400922 -75.925576 
L 129.706366 -76.179924 
L 128.572621 -76.434273 
L 126.807744 -76.688621 
L 124.192841 -76.94297 
L 120.514265 -77.197318 
L 115.615493 -77.451666 
L 109.462836 -77.706015 
L 102.20984 -77.960363 
L 94.237796 -78.214712 
L 86.14903 -78.46906 
L 78.699266 -78.723409 
L 72.67428 -78.977757 
L 68.738058 -79.232106 
L 67.2948 -79.486454 
L 68.407048 -79.740803 
L 71.795167 -79.995151 
L 76.915956 -80.2495 
L 83.092189 -80.503848 
L 89.65141 -80.758196 
L 96.035676 -81.012545 
L 101.860419 -81.266893 
L 106.921125 -81.521242 
L 111.162182 -81.77559 
L 114.628459 -82.029939 
L 117.417565 -82.284287 
L 119.643367 -82.538636 
L 121.413692 -82.792984 
L 122.819992 -83.047333 
L 123.934698 -83.301681 
L 124.812324 -83.55603 
L 125.491719 -83.810378 
L 125.998511 -84.064726 
L 126.347859 -84.319075 
L 126.548168 -84.573423 
L 126.606086 -84.827772 
L 126.532335 -85.08212 
L 126.346946 -85.336469 
L 126.082036 -85.590817 
L 125.780578 -85.845166 
L 125.49082 -86.099514 
L 125.257605 -86.353863 
L 125.113157 -86.608211 
L 125.070341 -86.86256 
L 125.120714 -87.116908 
L 125.238143 -87.371256 
L 125.386891 -87.625605 
L 125.531702 -87.879953 
L 125.646914 -88.134302 
L 125.722182 -88.38865 
L 125.763516 -88.642999 
L 125.789784 -88.897347 
L 125.825996 -89.151696 
L 125.895535 -89.406044 
L 126.013777 -89.660393 
L 126.185095 -89.914741 
L 126.404077 -90.16909 
L 126.660123 -90.423438 
L 126.943139 -90.677786 
L 127.24757 -90.932135 
L 127.572911 -91.186483 
L 127.92072 -91.440832 
L 128.289983 -91.69518 
L 128.673525 -91.949529 
L 129.057474 -92.203877 
L 129.424109 -92.458226 
L 129.756672 -92.712574 
L 130.043875 -92.966923 
L 130.282208 -93.221271 
L 130.475388 -93.47562 
L 130.631623 -93.729968 
L 130.760157 -93.984316 
L 130.868528 -94.238665 
L 130.961319 -94.493013 
L 131.040385 -94.747362 
L 131.105944 -95.00171 
L 131.157798 -95.256059 
L 131.196136 -95.510407 
L 131.22176 -95.764756 
L 131.235872 -96.019104 
L 131.23971 -96.273453 
L 131.234306 -96.527801 
L 131.220537 -96.78215 
L 131.199447 -97.036498 
L 131.172699 -97.290846 
L 131.142926 -97.545195 
L 131.113745 -97.799543 
L 131.089323 -98.053892 
L 131.07357 -98.30824 
L 131.069188 -98.562589 
L 131.076961 -98.816937 
L 131.09554 -99.071286 
L 131.121834 -99.325634 
L 131.151853 -99.579983 
L 131.181693 -99.834331 
L 131.208329 -100.08868 
L 131.230015 -100.343028 
L 131.246266 -100.597376 
L 131.301734 -100.597376 
L 131.301734 -100.597376 
L 131.317985 -100.343028 
L 131.339671 -100.08868 
L 131.366307 -99.834331 
L 131.396147 -99.579983 
L 131.426166 -99.325634 
L 131.45246 -99.071286 
L 131.471039 -98.816937 
L 131.478812 -98.562589 
L 131.47443 -98.30824 
L 131.458677 -98.053892 
L 131.434255 -97.799543 
L 131.405074 -97.545195 
L 131.375301 -97.290846 
L 131.348553 -97.036498 
L 131.327463 -96.78215 
L 131.313694 -96.527801 
L 131.30829 -96.273453 
L 131.312128 -96.019104 
L 131.32624 -95.764756 
L 131.351864 -95.510407 
L 131.390202 -95.256059 
L 131.442056 -95.00171 
L 131.507615 -94.747362 
L 131.586681 -94.493013 
L 131.679472 -94.238665 
L 131.787843 -93.984316 
L 131.916377 -93.729968 
L 132.072612 -93.47562 
L 132.265792 -93.221271 
L 132.504125 -92.966923 
L 132.791328 -92.712574 
L 133.123891 -92.458226 
L 133.490526 -92.203877 
L 133.874475 -91.949529 
L 134.258017 -91.69518 
L 134.62728 -91.440832 
L 134.975089 -91.186483 
L 135.30043 -90.932135 
L 135.604861 -90.677786 
L 135.887877 -90.423438 
L 136.143923 -90.16909 
L 136.362905 -89.914741 
L 136.534223 -89.660393 
L 136.652465 -89.406044 
L 136.722004 -89.151696 
L 136.758216 -88.897347 
L 136.784484 -88.642999 
L 136.825818 -88.38865 
L 136.901086 -88.134302 
L 137.016298 -87.879953 
L 137.161109 -87.625605 
L 137.309857 -87.371256 
L 137.427286 -87.116908 
L 137.477659 -86.86256 
L 137.434843 -86.608211 
L 137.290395 -86.353863 
L 137.05718 -86.099514 
L 136.767422 -85.845166 
L 136.465964 -85.590817 
L 136.201054 -85.336469 
L 136.015665 -85.08212 
L 135.941914 -84.827772 
L 135.999832 -84.573423 
L 136.200141 -84.319075 
L 136.549489 -84.064726 
L 137.056281 -83.810378 
L 137.735676 -83.55603 
L 138.613302 -83.301681 
L 139.728008 -83.047333 
L 141.134308 -82.792984 
L 142.904633 -82.538636 
L 145.130435 -82.284287 
L 147.919541 -82.029939 
L 151.385818 -81.77559 
L 155.626875 -81.521242 
L 160.687581 -81.266893 
L 166.512324 -81.012545 
L 172.89659 -80.758196 
L 179.455811 -80.503848 
L 185.632044 -80.2495 
L 190.752833 -79.995151 
L 194.140952 -79.740803 
L 195.2532 -79.486454 
L 193.809942 -79.232106 
L 189.87372 -78.977757 
L 183.848734 -78.723409 
L 176.39897 -78.46906 
L 168.310204 -78.214712 
L 160.33816 -77.960363 
L 153.085164 -77.706015 
L 146.932507 -77.451666 
L 142.033735 -77.197318 
L 138.355159 -76.94297 
L 135.740256 -76.688621 
L 133.975379 -76.434273 
L 132.841634 -76.179924 
L 132.147078 -75.925576 
L 131.740697 -75.671227 
L 131.513382 -75.416879 
z
" style="stroke: #595959; stroke-width: 1.25"/>
    </defs>
    <g clip-path="url(#p5d8490b7b2)">
     <use xlink:href="#m16411303a7" x="0" y="432" style="fill: #72b6a1; stroke: #595959; stroke-width: 1.25"/>
    </g>
   </g>
   <g id="PolyCollection_2">
    <defs>
     <path id="m26975b99f7" d="M 291.40325 -74.302074 
L 291.04075 -74.302074 
L 290.873681 -74.523613 
L 290.576003 -74.745153 
L 290.066629 -74.966693 
L 289.230883 -75.188232 
L 287.918298 -75.409772 
L 285.948497 -75.631311 
L 283.129241 -75.852851 
L 279.289003 -76.07439 
L 274.322509 -76.29593 
L 268.242135 -76.517469 
L 261.222417 -76.739009 
L 253.621902 -76.960548 
L 245.968469 -77.182088 
L 238.902074 -77.403627 
L 233.081094 -77.625167 
L 229.071083 -77.846706 
L 227.2428 -78.068246 
L 227.70604 -78.289786 
L 230.296462 -78.511325 
L 234.617474 -78.732865 
L 240.123804 -78.954404 
L 246.223242 -79.175944 
L 252.37121 -79.397483 
L 258.138862 -79.619023 
L 263.245923 -79.840562 
L 267.560161 -80.062102 
L 271.072676 -80.283641 
L 273.860885 -80.505181 
L 276.049778 -80.72672 
L 277.778609 -80.94826 
L 279.176547 -81.169799 
L 280.348065 -81.391339 
L 281.367199 -81.612879 
L 282.278977 -81.834418 
L 283.105806 -82.055958 
L 283.85626 -82.277497 
L 284.533684 -82.499037 
L 285.142429 -82.720576 
L 285.690515 -82.942116 
L 286.188761 -83.163655 
L 286.647598 -83.385195 
L 287.073385 -83.606734 
L 287.465947 -83.828274 
L 287.818363 -84.049813 
L 288.119026 -84.271353 
L 288.355188 -84.492892 
L 288.516756 -84.714432 
L 288.59917 -84.935972 
L 288.604628 -85.157511 
L 288.541543 -85.379051 
L 288.422654 -85.60059 
L 288.262603 -85.82213 
L 288.075817 -86.043669 
L 287.87532 -86.265209 
L 287.672651 -86.486748 
L 287.478587 -86.708288 
L 287.304074 -86.929827 
L 287.160715 -87.151367 
L 287.060407 -87.372906 
L 287.014123 -87.594446 
L 287.030162 -87.815985 
L 287.112429 -88.037525 
L 287.259293 -88.259065 
L 287.463381 -88.480604 
L 287.712426 -88.702144 
L 287.990959 -88.923683 
L 288.282428 -89.145223 
L 288.571221 -89.366762 
L 288.844164 -89.588302 
L 289.091285 -89.809841 
L 289.305957 -90.031381 
L 289.484701 -90.25292 
L 289.626998 -90.47446 
L 289.735211 -90.695999 
L 289.814524 -90.917539 
L 289.872572 -91.139078 
L 289.918483 -91.360618 
L 289.961332 -91.582158 
L 290.008317 -91.803697 
L 290.063264 -92.025237 
L 290.126047 -92.246776 
L 290.193231 -92.468316 
L 290.259763 -92.689855 
L 290.321129 -92.911395 
L 290.375175 -93.132934 
L 290.422921 -93.354474 
L 290.468143 -93.576013 
L 290.515938 -93.797553 
L 290.570874 -94.019092 
L 290.635438 -94.240632 
L 290.70926 -94.462171 
L 290.789305 -94.683711 
L 290.870811 -94.905251 
L 290.948585 -95.12679 
L 291.018192 -95.34833 
L 291.076731 -95.569869 
L 291.123084 -95.791409 
L 291.157702 -96.012948 
L 291.182123 -96.234488 
L 291.261877 -96.234488 
L 291.261877 -96.234488 
L 291.286298 -96.012948 
L 291.320916 -95.791409 
L 291.367269 -95.569869 
L 291.425808 -95.34833 
L 291.495415 -95.12679 
L 291.573189 -94.905251 
L 291.654695 -94.683711 
L 291.73474 -94.462171 
L 291.808562 -94.240632 
L 291.873126 -94.019092 
L 291.928062 -93.797553 
L 291.975857 -93.576013 
L 292.021079 -93.354474 
L 292.068825 -93.132934 
L 292.122871 -92.911395 
L 292.184237 -92.689855 
L 292.250769 -92.468316 
L 292.317953 -92.246776 
L 292.380736 -92.025237 
L 292.435683 -91.803697 
L 292.482668 -91.582158 
L 292.525517 -91.360618 
L 292.571428 -91.139078 
L 292.629476 -90.917539 
L 292.708789 -90.695999 
L 292.817002 -90.47446 
L 292.959299 -90.25292 
L 293.138043 -90.031381 
L 293.352715 -89.809841 
L 293.599836 -89.588302 
L 293.872779 -89.366762 
L 294.161572 -89.145223 
L 294.453041 -88.923683 
L 294.731574 -88.702144 
L 294.980619 -88.480604 
L 295.184707 -88.259065 
L 295.331571 -88.037525 
L 295.413838 -87.815985 
L 295.429877 -87.594446 
L 295.383593 -87.372906 
L 295.283285 -87.151367 
L 295.139926 -86.929827 
L 294.965413 -86.708288 
L 294.771349 -86.486748 
L 294.56868 -86.265209 
L 294.368183 -86.043669 
L 294.181397 -85.82213 
L 294.021346 -85.60059 
L 293.902457 -85.379051 
L 293.839372 -85.157511 
L 293.84483 -84.935972 
L 293.927244 -84.714432 
L 294.088812 -84.492892 
L 294.324974 -84.271353 
L 294.625637 -84.049813 
L 294.978053 -83.828274 
L 295.370615 -83.606734 
L 295.796402 -83.385195 
L 296.255239 -83.163655 
L 296.753485 -82.942116 
L 297.301571 -82.720576 
L 297.910316 -82.499037 
L 298.58774 -82.277497 
L 299.338194 -82.055958 
L 300.165023 -81.834418 
L 301.076801 -81.612879 
L 302.095935 -81.391339 
L 303.267453 -81.169799 
L 304.665391 -80.94826 
L 306.394222 -80.72672 
L 308.583115 -80.505181 
L 311.371324 -80.283641 
L 314.883839 -80.062102 
L 319.198077 -79.840562 
L 324.305138 -79.619023 
L 330.07279 -79.397483 
L 336.220758 -79.175944 
L 342.320196 -78.954404 
L 347.826526 -78.732865 
L 352.147538 -78.511325 
L 354.73796 -78.289786 
L 355.2012 -78.068246 
L 353.372917 -77.846706 
L 349.362906 -77.625167 
L 343.541926 -77.403627 
L 336.475531 -77.182088 
L 328.822098 -76.960548 
L 321.221583 -76.739009 
L 314.201865 -76.517469 
L 308.121491 -76.29593 
L 303.154997 -76.07439 
L 299.314759 -75.852851 
L 296.495503 -75.631311 
L 294.525702 -75.409772 
L 293.213117 -75.188232 
L 292.377371 -74.966693 
L 291.867997 -74.745153 
L 291.570319 -74.523613 
L 291.40325 -74.302074 
z
" style="stroke: #595959; stroke-width: 1.25"/>
    </defs>
    <g clip-path="url(#p5d8490b7b2)">
     <use xlink:href="#m26975b99f7" x="0" y="432" style="fill: #e99675; stroke: #595959; stroke-width: 1.25"/>
    </g>
   </g>
   <g id="PolyCollection_3">
    <defs>
     <path id="m986b30e447" d="M 451.295819 -246.351706 
L 451.044181 -246.351706 
L 450.946893 -246.914024 
L 450.793122 -247.476342 
L 450.561761 -248.038661 
L 450.229078 -248.600979 
L 449.769868 -249.163297 
L 449.158572 -249.725615 
L 448.370232 -250.287934 
L 447.381402 -250.850252 
L 446.171305 -251.41257 
L 444.723558 -251.974889 
L 443.028517 -252.537207 
L 441.085988 -253.099525 
L 438.907617 -253.661844 
L 436.517975 -254.224162 
L 433.953183 -254.78648 
L 431.25624 -255.348798 
L 428.469381 -255.911117 
L 425.625537 -256.473435 
L 422.742567 -257.035753 
L 419.823868 -257.598072 
L 416.866531 -258.16039 
L 413.874311 -258.722708 
L 410.869388 -259.285026 
L 407.896668 -259.847345 
L 405.01762 -260.409663 
L 402.295776 -260.971981 
L 399.780056 -261.5343 
L 397.493098 -262.096618 
L 395.429564 -262.658936 
L 393.565493 -263.221255 
L 391.875936 -263.783573 
L 390.355516 -264.345891 
L 389.035373 -264.908209 
L 387.990402 -265.470528 
L 387.33272 -266.032846 
L 387.1908 -266.595164 
L 387.678207 -267.157483 
L 388.859942 -267.719801 
L 390.726626 -268.282119 
L 393.1857 -268.844438 
L 396.074096 -269.406756 
L 399.189745 -269.969074 
L 402.332436 -270.531392 
L 405.341052 -271.093711 
L 408.116028 -271.656029 
L 410.622218 -272.218347 
L 412.875269 -272.780666 
L 414.920236 -273.342984 
L 416.812077 -273.905302 
L 418.604118 -274.46762 
L 420.344836 -275.029939 
L 422.078787 -275.592257 
L 423.846258 -276.154575 
L 425.678525 -276.716894 
L 427.589647 -277.279212 
L 429.569068 -277.84153 
L 431.579943 -278.403849 
L 433.565826 -278.966167 
L 435.464404 -279.528485 
L 437.223537 -280.090803 
L 438.813696 -280.653122 
L 440.232434 -281.21544 
L 441.499943 -281.777758 
L 442.648275 -282.340077 
L 443.70884 -282.902395 
L 444.702635 -283.464713 
L 445.635839 -284.027031 
L 446.500929 -284.58935 
L 447.281725 -285.151668 
L 447.960034 -285.713986 
L 448.521839 -286.276305 
L 448.961599 -286.838623 
L 449.283929 -287.400941 
L 449.502577 -287.96326 
L 449.637294 -288.525578 
L 449.709832 -289.087896 
L 449.740501 -289.650214 
L 449.746368 -290.212533 
L 449.741256 -290.774851 
L 449.736758 -291.337169 
L 449.743052 -291.899488 
L 449.768622 -292.461806 
L 449.818875 -293.024124 
L 449.894535 -293.586443 
L 449.991023 -294.148761 
L 450.099612 -294.711079 
L 450.210208 -295.273397 
L 450.31464 -295.835716 
L 450.409046 -296.398034 
L 450.494281 -296.960352 
L 450.574328 -297.522671 
L 450.653603 -298.084989 
L 450.734513 -298.647307 
L 450.816329 -299.209625 
L 450.895648 -299.771944 
L 450.967945 -300.334262 
L 451.029317 -300.89658 
L 451.077663 -301.458899 
L 451.112977 -302.021217 
L 451.227023 -302.021217 
L 451.227023 -302.021217 
L 451.262337 -301.458899 
L 451.310683 -300.89658 
L 451.372055 -300.334262 
L 451.444352 -299.771944 
L 451.523671 -299.209625 
L 451.605487 -298.647307 
L 451.686397 -298.084989 
L 451.765672 -297.522671 
L 451.845719 -296.960352 
L 451.930954 -296.398034 
L 452.02536 -295.835716 
L 452.129792 -295.273397 
L 452.240388 -294.711079 
L 452.348977 -294.148761 
L 452.445465 -293.586443 
L 452.521125 -293.024124 
L 452.571378 -292.461806 
L 452.596948 -291.899488 
L 452.603242 -291.337169 
L 452.598744 -290.774851 
L 452.593632 -290.212533 
L 452.599499 -289.650214 
L 452.630168 -289.087896 
L 452.702706 -288.525578 
L 452.837423 -287.96326 
L 453.056071 -287.400941 
L 453.378401 -286.838623 
L 453.818161 -286.276305 
L 454.379966 -285.713986 
L 455.058275 -285.151668 
L 455.839071 -284.58935 
L 456.704161 -284.027031 
L 457.637365 -283.464713 
L 458.63116 -282.902395 
L 459.691725 -282.340077 
L 460.840057 -281.777758 
L 462.107566 -281.21544 
L 463.526304 -280.653122 
L 465.116463 -280.090803 
L 466.875596 -279.528485 
L 468.774174 -278.966167 
L 470.760057 -278.403849 
L 472.770932 -277.84153 
L 474.750353 -277.279212 
L 476.661475 -276.716894 
L 478.493742 -276.154575 
L 480.261213 -275.592257 
L 481.995164 -275.029939 
L 483.735882 -274.46762 
L 485.527923 -273.905302 
L 487.419764 -273.342984 
L 489.464731 -272.780666 
L 491.717782 -272.218347 
L 494.223972 -271.656029 
L 496.998948 -271.093711 
L 500.007564 -270.531392 
L 503.150255 -269.969074 
L 506.265904 -269.406756 
L 509.1543 -268.844438 
L 511.613374 -268.282119 
L 513.480058 -267.719801 
L 514.661793 -267.157483 
L 515.1492 -266.595164 
L 515.00728 -266.032846 
L 514.349598 -265.470528 
L 513.304627 -264.908209 
L 511.984484 -264.345891 
L 510.464064 -263.783573 
L 508.774507 -263.221255 
L 506.910436 -262.658936 
L 504.846902 -262.096618 
L 502.559944 -261.5343 
L 500.044224 -260.971981 
L 497.32238 -260.409663 
L 494.443332 -259.847345 
L 491.470612 -259.285026 
L 488.465689 -258.722708 
L 485.473469 -258.16039 
L 482.516132 -257.598072 
L 479.597433 -257.035753 
L 476.714463 -256.473435 
L 473.870619 -255.911117 
L 471.08376 -255.348798 
L 468.386817 -254.78648 
L 465.822025 -254.224162 
L 463.432383 -253.661844 
L 461.254012 -253.099525 
L 459.311483 -252.537207 
L 457.616442 -251.974889 
L 456.168695 -251.41257 
L 454.958598 -250.850252 
L 453.969768 -250.287934 
L 453.181428 -249.725615 
L 452.570132 -249.163297 
L 452.110922 -248.600979 
L 451.778239 -248.038661 
L 451.546878 -247.476342 
L 451.393107 -246.914024 
L 451.295819 -246.351706 
z
" style="stroke: #595959; stroke-width: 1.25"/>
    </defs>
    <g clip-path="url(#p5d8490b7b2)">
     <use xlink:href="#m986b30e447" x="0" y="432" style="fill: #95a3c3; stroke: #595959; stroke-width: 1.25"/>
    </g>
   </g>
   <g id="PolyCollection_4">
    <defs>
     <path id="m40de886a9e" d="M 611.871948 -303.979299 
L 610.364052 -303.979299 
L 609.821966 -304.834872 
L 608.980112 -305.690445 
L 607.730738 -306.546019 
L 605.958014 -307.401592 
L 603.552036 -308.257165 
L 600.427129 -309.112738 
L 596.541776 -309.968312 
L 591.916345 -310.823885 
L 586.644508 -311.679458 
L 580.89497 -312.535031 
L 574.901757 -313.390605 
L 568.94345 -314.246178 
L 563.313873 -315.101751 
L 558.288455 -315.957325 
L 554.091508 -316.812898 
L 550.869865 -317.668471 
L 548.677547 -318.524044 
L 547.474375 -319.379618 
L 547.1388 -320.235191 
L 547.492192 -321.090764 
L 548.329227 -321.946337 
L 549.44766 -322.801911 
L 550.671387 -323.657484 
L 551.863173 -324.513057 
L 552.926906 -325.36863 
L 553.802543 -326.224204 
L 554.458613 -327.079777 
L 554.886739 -327.93535 
L 555.100381 -328.790923 
L 555.136919 -329.646497 
L 555.059871 -330.50207 
L 554.95738 -331.357643 
L 554.934485 -332.213216 
L 555.099366 -333.06879 
L 555.546465 -333.924363 
L 556.340961 -334.779936 
L 557.50888 -335.635509 
L 559.035375 -336.491083 
L 560.871237 -337.346656 
L 562.945378 -338.202229 
L 565.179692 -339.057802 
L 567.502463 -339.913376 
L 569.857323 -340.768949 
L 572.206333 -341.624522 
L 574.527527 -342.480095 
L 576.80883 -343.335669 
L 579.041144 -344.191242 
L 581.213289 -345.046815 
L 583.310438 -345.902388 
L 585.316113 -346.757962 
L 587.216301 -347.613535 
L 589.003503 -348.469108 
L 590.678731 -349.324681 
L 592.250566 -350.180255 
L 593.731773 -351.035828 
L 595.13502 -351.891401 
L 596.469499 -352.746974 
L 597.739627 -353.602548 
L 598.945944 -354.458121 
L 600.08729 -355.313694 
L 601.162921 -356.169267 
L 602.17347 -357.024841 
L 603.120409 -357.880414 
L 604.004451 -358.735987 
L 604.823774 -359.59156 
L 605.572925 -360.447134 
L 606.24291 -361.302707 
L 606.822533 -362.15828 
L 607.300727 -363.013854 
L 607.669452 -363.869427 
L 607.926637 -364.725 
L 608.078574 -365.580573 
L 608.141117 -366.436147 
L 608.139122 -367.29172 
L 608.103885 -368.147293 
L 608.068816 -369.002866 
L 608.064155 -369.85844 
L 608.111944 -370.714013 
L 608.222502 -371.569586 
L 608.393341 -372.425159 
L 608.61083 -373.280733 
L 608.854179 -374.136306 
L 609.100695 -374.991879 
L 609.330943 -375.847452 
L 609.532534 -376.703026 
L 609.701675 -377.558599 
L 609.842341 -378.414172 
L 609.963572 -379.269745 
L 610.075908 -380.125319 
L 610.18808 -380.980892 
L 610.304848 -381.836465 
L 610.426394 -382.692038 
L 610.549121 -383.547612 
L 610.667344 -384.403185 
L 610.775185 -385.258758 
L 610.868094 -386.114331 
L 610.943667 -386.969905 
L 611.001739 -387.825478 
L 611.043933 -388.681051 
L 611.192067 -388.681051 
L 611.192067 -388.681051 
L 611.234261 -387.825478 
L 611.292333 -386.969905 
L 611.367906 -386.114331 
L 611.460815 -385.258758 
L 611.568656 -384.403185 
L 611.686879 -383.547612 
L 611.809606 -382.692038 
L 611.931152 -381.836465 
L 612.04792 -380.980892 
L 612.160092 -380.125319 
L 612.272428 -379.269745 
L 612.393659 -378.414172 
L 612.534325 -377.558599 
L 612.703466 -376.703026 
L 612.905057 -375.847452 
L 613.135305 -374.991879 
L 613.381821 -374.136306 
L 613.62517 -373.280733 
L 613.842659 -372.425159 
L 614.013498 -371.569586 
L 614.124056 -370.714013 
L 614.171845 -369.85844 
L 614.167184 -369.002866 
L 614.132115 -368.147293 
L 614.096878 -367.29172 
L 614.094883 -366.436147 
L 614.157426 -365.580573 
L 614.309363 -364.725 
L 614.566548 -363.869427 
L 614.935273 -363.013854 
L 615.413467 -362.15828 
L 615.99309 -361.302707 
L 616.663075 -360.447134 
L 617.412226 -359.59156 
L 618.231549 -358.735987 
L 619.115591 -357.880414 
L 620.06253 -357.024841 
L 621.073079 -356.169267 
L 622.14871 -355.313694 
L 623.290056 -354.458121 
L 624.496373 -353.602548 
L 625.766501 -352.746974 
L 627.10098 -351.891401 
L 628.504227 -351.035828 
L 629.985434 -350.180255 
L 631.557269 -349.324681 
L 633.232497 -348.469108 
L 635.019699 -347.613535 
L 636.919887 -346.757962 
L 638.925562 -345.902388 
L 641.022711 -345.046815 
L 643.194856 -344.191242 
L 645.42717 -343.335669 
L 647.708473 -342.480095 
L 650.029667 -341.624522 
L 652.378677 -340.768949 
L 654.733537 -339.913376 
L 657.056308 -339.057802 
L 659.290622 -338.202229 
L 661.364763 -337.346656 
L 663.200625 -336.491083 
L 664.72712 -335.635509 
L 665.895039 -334.779936 
L 666.689535 -333.924363 
L 667.136634 -333.06879 
L 667.301515 -332.213216 
L 667.27862 -331.357643 
L 667.176129 -330.50207 
L 667.099081 -329.646497 
L 667.135619 -328.790923 
L 667.349261 -327.93535 
L 667.777387 -327.079777 
L 668.433457 -326.224204 
L 669.309094 -325.36863 
L 670.372827 -324.513057 
L 671.564613 -323.657484 
L 672.78834 -322.801911 
L 673.906773 -321.946337 
L 674.743808 -321.090764 
L 675.0972 -320.235191 
L 674.761625 -319.379618 
L 673.558453 -318.524044 
L 671.366135 -317.668471 
L 668.144492 -316.812898 
L 663.947545 -315.957325 
L 658.922127 -315.101751 
L 653.29255 -314.246178 
L 647.334243 -313.390605 
L 641.34103 -312.535031 
L 635.591492 -311.679458 
L 630.319655 -310.823885 
L 625.694224 -309.968312 
L 621.808871 -309.112738 
L 618.683964 -308.257165 
L 616.277986 -307.401592 
L 614.505262 -306.546019 
L 613.255888 -305.690445 
L 612.414034 -304.834872 
L 611.871948 -303.979299 
z
" style="stroke: #595959; stroke-width: 1.25"/>
    </defs>
    <g clip-path="url(#p5d8490b7b2)">
     <use xlink:href="#m40de886a9e" x="0" y="432" style="fill: #db96c0; stroke: #595959; stroke-width: 1.25"/>
    </g>
   </g>
   <g id="PolyCollection_5">
    <defs>
     <path id="m1ee7722b9f" d="M 771.600688 -249.774884 
L 770.531312 -249.774884 
L 769.99703 -250.410145 
L 769.076181 -251.045406 
L 767.612958 -251.680668 
L 765.471324 -252.315929 
L 762.587874 -252.95119 
L 759.023435 -253.586452 
L 754.988233 -254.221713 
L 750.818589 -254.856974 
L 746.900777 -255.492235 
L 743.563281 -256.127497 
L 740.97827 -256.762758 
L 739.1136 -257.398019 
L 737.755601 -258.033281 
L 736.591302 -258.668542 
L 735.314141 -259.303803 
L 733.712198 -259.939064 
L 731.712427 -260.574326 
L 729.377171 -261.209587 
L 726.86646 -261.844848 
L 724.384199 -262.48011 
L 722.121298 -263.115371 
L 720.203216 -263.750632 
L 718.64991 -264.385894 
L 717.361256 -265.021155 
L 716.142265 -265.656416 
L 714.772852 -266.291677 
L 713.107563 -266.926939 
L 711.171427 -267.5622 
L 709.210867 -268.197461 
L 707.669688 -268.832723 
L 707.0868 -269.467984 
L 707.944002 -270.103245 
L 710.515276 -270.738506 
L 714.77235 -271.373768 
L 720.381529 -272.009029 
L 726.791239 -272.64429 
L 733.374567 -273.279552 
L 739.573349 -273.914813 
L 744.997881 -274.550074 
L 749.46253 -275.185335 
L 752.965753 -275.820597 
L 755.638273 -276.455858 
L 757.682217 -277.091119 
L 759.314897 -277.726381 
L 760.723838 -278.361642 
L 762.037709 -278.996903 
L 763.316926 -279.632165 
L 764.563635 -280.267426 
L 765.744412 -280.902687 
L 766.815267 -281.537948 
L 767.74022 -282.17321 
L 768.500189 -282.808471 
L 769.093924 -283.443732 
L 769.534623 -284.078994 
L 769.84507 -284.714255 
L 770.052699 -285.349516 
L 770.185141 -285.984777 
L 770.266759 -286.620039 
L 770.316649 -287.2553 
L 770.348204 -287.890561 
L 770.369741 -288.525823 
L 770.385469 -289.161084 
L 770.396409 -289.796345 
L 770.401438 -290.431607 
L 770.398749 -291.066868 
L 770.387504 -291.702129 
L 770.368954 -292.33739 
L 770.346428 -292.972652 
L 770.324321 -293.607913 
L 770.306875 -294.243174 
L 770.297549 -294.878436 
L 770.299162 -295.513697 
L 770.314356 -296.148958 
L 770.345647 -296.784219 
L 770.394599 -297.419481 
L 770.46023 -298.054742 
L 770.537431 -298.690003 
L 770.61652 -299.325265 
L 770.68473 -299.960526 
L 770.729493 -300.595787 
L 770.742292 -301.231049 
L 770.721327 -301.86631 
L 770.671638 -302.501571 
L 770.602593 -303.136832 
L 770.52407 -303.772094 
L 770.44355 -304.407355 
L 770.365877 -305.042616 
L 770.295642 -305.677878 
L 770.240175 -306.313139 
L 770.210321 -306.9484 
L 770.21761 -307.583661 
L 770.269009 -308.218923 
L 770.362437 -308.854184 
L 770.485969 -309.489445 
L 770.621363 -310.124707 
L 770.750001 -310.759968 
L 770.858204 -311.395229 
L 770.939733 -312.030491 
L 770.995164 -312.665752 
L 771.136836 -312.665752 
L 771.136836 -312.665752 
L 771.192267 -312.030491 
L 771.273796 -311.395229 
L 771.381999 -310.759968 
L 771.510637 -310.124707 
L 771.646031 -309.489445 
L 771.769563 -308.854184 
L 771.862991 -308.218923 
L 771.91439 -307.583661 
L 771.921679 -306.9484 
L 771.891825 -306.313139 
L 771.836358 -305.677878 
L 771.766123 -305.042616 
L 771.68845 -304.407355 
L 771.60793 -303.772094 
L 771.529407 -303.136832 
L 771.460362 -302.501571 
L 771.410673 -301.86631 
L 771.389708 -301.231049 
L 771.402507 -300.595787 
L 771.44727 -299.960526 
L 771.51548 -299.325265 
L 771.594569 -298.690003 
L 771.67177 -298.054742 
L 771.737401 -297.419481 
L 771.786353 -296.784219 
L 771.817644 -296.148958 
L 771.832838 -295.513697 
L 771.834451 -294.878436 
L 771.825125 -294.243174 
L 771.807679 -293.607913 
L 771.785572 -292.972652 
L 771.763046 -292.33739 
L 771.744496 -291.702129 
L 771.733251 -291.066868 
L 771.730562 -290.431607 
L 771.735591 -289.796345 
L 771.746531 -289.161084 
L 771.762259 -288.525823 
L 771.783796 -287.890561 
L 771.815351 -287.2553 
L 771.865241 -286.620039 
L 771.946859 -285.984777 
L 772.079301 -285.349516 
L 772.28693 -284.714255 
L 772.597377 -284.078994 
L 773.038076 -283.443732 
L 773.631811 -282.808471 
L 774.39178 -282.17321 
L 775.316733 -281.537948 
L 776.387588 -280.902687 
L 777.568365 -280.267426 
L 778.815074 -279.632165 
L 780.094291 -278.996903 
L 781.408162 -278.361642 
L 782.817103 -277.726381 
L 784.449783 -277.091119 
L 786.493727 -276.455858 
L 789.166247 -275.820597 
L 792.66947 -275.185335 
L 797.134119 -274.550074 
L 802.558651 -273.914813 
L 808.757433 -273.279552 
L 815.340761 -272.64429 
L 821.750471 -272.009029 
L 827.35965 -271.373768 
L 831.616724 -270.738506 
L 834.187998 -270.103245 
L 835.0452 -269.467984 
L 834.462312 -268.832723 
L 832.921133 -268.197461 
L 830.960573 -267.5622 
L 829.024437 -266.926939 
L 827.359148 -266.291677 
L 825.989735 -265.656416 
L 824.770744 -265.021155 
L 823.48209 -264.385894 
L 821.928784 -263.750632 
L 820.010702 -263.115371 
L 817.747801 -262.48011 
L 815.26554 -261.844848 
L 812.754829 -261.209587 
L 810.419573 -260.574326 
L 808.419802 -259.939064 
L 806.817859 -259.303803 
L 805.540698 -258.668542 
L 804.376399 -258.033281 
L 803.0184 -257.398019 
L 801.15373 -256.762758 
L 798.568719 -256.127497 
L 795.231223 -255.492235 
L 791.313411 -254.856974 
L 787.143767 -254.221713 
L 783.108565 -253.586452 
L 779.544126 -252.95119 
L 776.660676 -252.315929 
L 774.519042 -251.680668 
L 773.055819 -251.045406 
L 772.13497 -250.410145 
L 771.600688 -249.774884 
z
" style="stroke: #595959; stroke-width: 1.25"/>
    </defs>
    <g clip-path="url(#p5d8490b7b2)">
     <use xlink:href="#m1ee7722b9f" x="0" y="432" style="fill: #a2c865; stroke: #595959; stroke-width: 1.25"/>
    </g>
   </g>
   <g id="line2d_7">
    <path d="M 131.274 352.769631 
L 131.274 354.512534 
" clip-path="url(#p5d8490b7b2)" style="fill: none; stroke: #000000"/>
   </g>
   <g id="line2d_8">
    <path d="M 131.274 350.65325 
L 131.274 347.540924 
" clip-path="url(#p5d8490b7b2)" style="fill: none; stroke: #000000"/>
   </g>
   <g id="line2d_9">
    <path d="M 125.27595 354.512534 
L 137.27205 354.512534 
" clip-path="url(#p5d8490b7b2)" style="fill: none; stroke: #000000; stroke-linecap: round"/>
   </g>
   <g id="line2d_10">
    <path d="M 125.27595 347.540924 
L 137.27205 347.540924 
" clip-path="url(#p5d8490b7b2)" style="fill: none; stroke: #000000; stroke-linecap: round"/>
   </g>
   <g id="line2d_11">
    <path d="M 291.222 354.139055 
L 291.222 355.757464 
" clip-path="url(#p5d8490b7b2)" style="fill: none; stroke: #000000"/>
   </g>
   <g id="line2d_12">
    <path d="M 291.222 352.147166 
L 291.222 349.283826 
" clip-path="url(#p5d8490b7b2)" style="fill: none; stroke: #000000"/>
   </g>
   <g id="line2d_13">
    <path d="M 285.22395 355.757464 
L 297.22005 355.757464 
" clip-path="url(#p5d8490b7b2)" style="fill: none; stroke: #000000; stroke-linecap: round"/>
   </g>
   <g id="line2d_14">
    <path d="M 285.22395 349.283826 
L 297.22005 349.283826 
" clip-path="url(#p5d8490b7b2)" style="fill: none; stroke: #000000; stroke-linecap: round"/>
   </g>
   <g id="line2d_15">
    <path d="M 451.17 170.013856 
L 451.17 181.218229 
" clip-path="url(#p5d8490b7b2)" style="fill: none; stroke: #000000"/>
   </g>
   <g id="line2d_16">
    <path d="M 451.17 160.303399 
L 451.17 146.609166 
" clip-path="url(#p5d8490b7b2)" style="fill: none; stroke: #000000"/>
   </g>
   <g id="line2d_17">
    <path d="M 445.17195 181.218229 
L 457.16805 181.218229 
" clip-path="url(#p5d8490b7b2)" style="fill: none; stroke: #000000; stroke-linecap: round"/>
   </g>
   <g id="line2d_18">
    <path d="M 445.17195 146.609166 
L 457.16805 146.609166 
" clip-path="url(#p5d8490b7b2)" style="fill: none; stroke: #000000; stroke-linecap: round"/>
   </g>
   <g id="line2d_19">
    <path d="M 611.118 111.626623 
L 611.118 120.341135 
" clip-path="url(#p5d8490b7b2)" style="fill: none; stroke: #000000"/>
   </g>
   <g id="line2d_20">
    <path d="M 611.118 93.575133 
L 611.118 67.929567 
" clip-path="url(#p5d8490b7b2)" style="fill: none; stroke: #000000"/>
   </g>
   <g id="line2d_21">
    <path d="M 605.11995 120.341135 
L 617.11605 120.341135 
" clip-path="url(#p5d8490b7b2)" style="fill: none; stroke: #000000; stroke-linecap: round"/>
   </g>
   <g id="line2d_22">
    <path d="M 605.11995 67.929567 
L 617.11605 67.929567 
" clip-path="url(#p5d8490b7b2)" style="fill: none; stroke: #000000; stroke-linecap: round"/>
   </g>
   <g id="line2d_23">
    <path d="M 771.066 170.138349 
L 771.066 177.856917 
" clip-path="url(#p5d8490b7b2)" style="fill: none; stroke: #000000"/>
   </g>
   <g id="line2d_24">
    <path d="M 771.066 161.174851 
L 771.066 148.227575 
" clip-path="url(#p5d8490b7b2)" style="fill: none; stroke: #000000"/>
   </g>
   <g id="line2d_25">
    <path d="M 765.06795 177.856917 
L 777.06405 177.856917 
" clip-path="url(#p5d8490b7b2)" style="fill: none; stroke: #000000; stroke-linecap: round"/>
   </g>
   <g id="line2d_26">
    <path d="M 765.06795 148.227575 
L 777.06405 148.227575 
" clip-path="url(#p5d8490b7b2)" style="fill: none; stroke: #000000; stroke-linecap: round"/>
   </g>
   <g id="line2d_27">
    <path d="M 119.2779 352.271659 
L 143.2701 352.271659 
" clip-path="url(#p5d8490b7b2)" style="fill: none; stroke: #ff0000; stroke-width: 2"/>
   </g>
   <g id="line2d_28">
    <path d="M 279.2259 353.641083 
L 303.2181 353.641083 
" clip-path="url(#p5d8490b7b2)" style="fill: none; stroke: #ff0000; stroke-width: 2"/>
   </g>
   <g id="line2d_29">
    <path d="M 439.1739 165.345367 
L 463.1661 165.345367 
" clip-path="url(#p5d8490b7b2)" style="fill: none; stroke: #ff0000; stroke-width: 2"/>
   </g>
   <g id="line2d_30">
    <path d="M 599.1219 102.289645 
L 623.1141 102.289645 
" clip-path="url(#p5d8490b7b2)" style="fill: none; stroke: #ff0000; stroke-width: 2"/>
   </g>
   <g id="line2d_31">
    <path d="M 759.0699 165.158628 
L 783.0621 165.158628 
" clip-path="url(#p5d8490b7b2)" style="fill: none; stroke: #ff0000; stroke-width: 2"/>
   </g>
   <g id="patch_3">
    <path d="M 51.3 373.416875 
L 51.3 27.6 
" style="fill: none; stroke: #cccccc; stroke-width: 1.25; stroke-linejoin: miter; stroke-linecap: square"/>
   </g>
   <g id="patch_4">
    <path d="M 851.04 373.416875 
L 851.04 27.6 
" style="fill: none; stroke: #cccccc; stroke-width: 1.25; stroke-linejoin: miter; stroke-linecap: square"/>
   </g>
   <g id="patch_5">
    <path d="M 51.3 373.416875 
L 851.04 373.416875 
" style="fill: none; stroke: #cccccc; stroke-width: 1.25; stroke-linejoin: miter; stroke-linecap: square"/>
   </g>
   <g id="patch_6">
    <path d="M 51.3 27.6 
L 851.04 27.6 
" style="fill: none; stroke: #cccccc; stroke-width: 1.25; stroke-linejoin: miter; stroke-linecap: square"/>
   </g>
   <g id="text_13">
    <!-- Handshake duration on TLS with mldsa44 signature algorithm — ideal conditions -->
    <g style="fill: #262626" transform="translate(208.127812 21.6) scale(0.12 -0.12)">
     <defs>
      <path id="DejaVuSans-54" d="M -19 4666 
L 3928 4666 
L 3928 4134 
L 2272 4134 
L 2272 0 
L 1638 0 
L 1638 4134 
L -19 4134 
L -19 4666 
z
" transform="scale(0.015625)"/>
      <path id="DejaVuSans-4c" d="M 628 4666 
L 1259 4666 
L 1259 531 
L 3531 531 
L 3531 0 
L 628 0 
L 628 4666 
z
" transform="scale(0.015625)"/>
      <path id="DejaVuSans-53" d="M 3425 4513 
L 3425 3897 
Q 3066 4069 2747 4153 
Q 2428 4238 2131 4238 
Q 1616 4238 1336 4038 
Q 1056 3838 1056 3469 
Q 1056 3159 1242 3001 
Q 1428 2844 1947 2747 
L 2328 2669 
Q 3034 2534 3370 2195 
Q 3706 1856 3706 1288 
Q 3706 609 3251 259 
Q 2797 -91 1919 -91 
Q 1588 -91 1214 -16 
Q 841 59 441 206 
L 441 856 
Q 825 641 1194 531 
Q 1563 422 1919 422 
Q 2459 422 2753 634 
Q 3047 847 3047 1241 
Q 3047 1584 2836 1778 
Q 2625 1972 2144 2069 
L 1759 2144 
Q 1053 2284 737 2584 
Q 422 2884 422 3419 
Q 422 4038 858 4394 
Q 1294 4750 2059 4750 
Q 2388 4750 2728 4690 
Q 3069 4631 3425 4513 
z
" transform="scale(0.015625)"/>
      <path id="DejaVuSans-77" d="M 269 3500 
L 844 3500 
L 1563 769 
L 2278 3500 
L 2956 3500 
L 3675 769 
L 4391 3500 
L 4966 3500 
L 4050 0 
L 3372 0 
L 2619 2869 
L 1863 0 
L 1184 0 
L 269 3500 
z
" transform="scale(0.015625)"/>
      <path id="DejaVuSans-6c" d="M 603 4863 
L 1178 4863 
L 1178 0 
L 603 0 
L 603 4863 
z
" transform="scale(0.015625)"/>
      <path id="DejaVuSans-34" d="M 2419 4116 
L 825 1625 
L 2419 1625 
L 2419 4116 
z
M 2253 4666 
L 3047 4666 
L 3047 1625 
L 3713 1625 
L 3713 1100 
L 3047 1100 
L 3047 0 
L 2419 0 
L 2419 1100 
L 313 1100 
L 313 1709 
L 2253 4666 
z
" transform="scale(0.015625)"/>
      <path id="DejaVuSans-67" d="M 2906 1791 
Q 2906 2416 2648 2759 
Q 2391 3103 1925 3103 
Q 1463 3103 1205 2759 
Q 947 2416 947 1791 
Q 947 1169 1205 825 
Q 1463 481 1925 481 
Q 2391 481 2648 825 
Q 2906 1169 2906 1791 
z
M 3481 434 
Q 3481 -459 3084 -895 
Q 2688 -1331 1869 -1331 
Q 1566 -1331 1297 -1286 
Q 1028 -1241 775 -1147 
L 775 -588 
Q 1028 -725 1275 -790 
Q 1522 -856 1778 -856 
Q 2344 -856 2625 -561 
Q 2906 -266 2906 331 
L 2906 616 
Q 2728 306 2450 153 
Q 2172 0 1784 0 
Q 1141 0 747 490 
Q 353 981 353 1791 
Q 353 2603 747 3093 
Q 1141 3584 1784 3584 
Q 2172 3584 2450 3431 
Q 2728 3278 2906 2969 
L 2906 3500 
L 3481 3500 
L 3481 434 
z
" transform="scale(0.015625)"/>
      <path id="DejaVuSans-2014" d="M 313 1978 
L 6088 1978 
L 6088 1528 
L 313 1528 
L 313 1978 
z
" transform="scale(0.015625)"/>
     </defs>
     <use xlink:href="#DejaVuSans-48"/>
     <use xlink:href="#DejaVuSans-61" x="75.195312"/>
     <use xlink:href="#DejaVuSans-6e" x="136.474609"/>
     <use xlink:href="#DejaVuSans-64" x="199.853516"/>
     <use xlink:href="#DejaVuSans-73" x="263.330078"/>
     <use xlink:href="#DejaVuSans-68" x="315.429688"/>
     <use xlink:href="#DejaVuSans-61" x="378.808594"/>
     <use xlink:href="#DejaVuSans-6b" x="440.087891"/>
     <use xlink:href="#DejaVuSans-65" x="494.373047"/>
     <use xlink:href="#DejaVuSans-20" x="555.896484"/>
     <use xlink:href="#DejaVuSans-64" x="587.683594"/>
     <use xlink:href="#DejaVuSans-75" x="651.160156"/>
     <use xlink:href="#DejaVuSans-72" x="714.539062"/>
     <use xlink:href="#DejaVuSans-61" x="755.652344"/>
     <use xlink:href="#DejaVuSans-74" x="816.931641"/>
     <use xlink:href="#DejaVuSans-69" x="856.140625"/>
     <use xlink:href="#DejaVuSans-6f" x="883.923828"/>
     <use xlink:href="#DejaVuSans-6e" x="945.105469"/>
     <use xlink:href="#DejaVuSans-20" x="1008.484375"/>
     <use xlink:href="#DejaVuSans-6f" x="1040.271484"/>
     <use xlink:href="#DejaVuSans-6e" x="1101.453125"/>
     <use xlink:href="#DejaVuSans-20" x="1164.832031"/>
     <use xlink:href="#DejaVuSans-54" x="1196.619141"/>
     <use xlink:href="#DejaVuSans-4c" x="1257.703125"/>
     <use xlink:href="#DejaVuSans-53" x="1313.416016"/>
     <use xlink:href="#DejaVuSans-20" x="1376.892578"/>
     <use xlink:href="#DejaVuSans-77" x="1408.679688"/>
     <use xlink:href="#DejaVuSans-69" x="1490.466797"/>
     <use xlink:href="#DejaVuSans-74" x="1518.25"/>
     <use xlink:href="#DejaVuSans-68" x="1557.458984"/>
     <use xlink:href="#DejaVuSans-20" x="1620.837891"/>
     <use xlink:href="#DejaVuSans-6d" x="1652.625"/>
     <use xlink:href="#DejaVuSans-6c" x="1750.037109"/>
     <use xlink:href="#DejaVuSans-64" x="1777.820312"/>
     <use xlink:href="#DejaVuSans-73" x="1841.296875"/>
     <use xlink:href="#DejaVuSans-61" x="1893.396484"/>
     <use xlink:href="#DejaVuSans-34" x="1954.675781"/>
     <use xlink:href="#DejaVuSans-34" x="2018.298828"/>
     <use xlink:href="#DejaVuSans-20" x="2081.921875"/>
     <use xlink:href="#DejaVuSans-73" x="2113.708984"/>
     <use xlink:href="#DejaVuSans-69" x="2165.808594"/>
     <use xlink:href="#DejaVuSans-67" x="2193.591797"/>
     <use xlink:href="#DejaVuSans-6e" x="2257.068359"/>
     <use xlink:href="#DejaVuSans-61" x="2320.447266"/>
     <use xlink:href="#DejaVuSans-74" x="2381.726562"/>
     <use xlink:href="#DejaVuSans-75" x="2420.935547"/>
     <use xlink:href="#DejaVuSans-72" x="2484.314453"/>
     <use xlink:href="#DejaVuSans-65" x="2523.177734"/>
     <use xlink:href="#DejaVuSans-20" x="2584.701172"/>
     <use xlink:href="#DejaVuSans-61" x="2616.488281"/>
     <use xlink:href="#DejaVuSans-6c" x="2677.767578"/>
     <use xlink:href="#DejaVuSans-67" x="2705.550781"/>
     <use xlink:href="#DejaVuSans-6f" x="2769.027344"/>
     <use xlink:href="#DejaVuSans-72" x="2830.208984"/>
     <use xlink:href="#DejaVuSans-69" x="2871.322266"/>
     <use xlink:href="#DejaVuSans-74" x="2899.105469"/>
     <use xlink:href="#DejaVuSans-68" x="2938.314453"/>
     <use xlink:href="#DejaVuSans-6d" x="3001.693359"/>
     <use xlink:href="#DejaVuSans-20" x="3099.105469"/>
     <use xlink:href="#DejaVuSans-2014" x="3130.892578"/>
     <use xlink:href="#DejaVuSans-20" x="3230.892578"/>
     <use xlink:href="#DejaVuSans-69" x="3262.679688"/>
     <use xlink:href="#DejaVuSans-64" x="3290.462891"/>
     <use xlink:href="#DejaVuSans-65" x="3353.939453"/>
     <use xlink:href="#DejaVuSans-61" x="3415.462891"/>
     <use xlink:href="#DejaVuSans-6c" x="3476.742188"/>
     <use xlink:href="#DejaVuSans-20" x="3504.525391"/>
     <use xlink:href="#DejaVuSans-63" x="3536.3125"/>
     <use xlink:href="#DejaVuSans-6f" x="3591.292969"/>
     <use xlink:href="#DejaVuSans-6e" x="3652.474609"/>
     <use xlink:href="#DejaVuSans-64" x="3715.853516"/>
     <use xlink:href="#DejaVuSans-69" x="3779.330078"/>
     <use xlink:href="#DejaVuSans-74" x="3807.113281"/>
     <use xlink:href="#DejaVuSans-69" x="3846.322266"/>
     <use xlink:href="#DejaVuSans-6f" x="3874.105469"/>
     <use xlink:href="#DejaVuSans-6e" x="3935.287109"/>
     <use xlink:href="#DejaVuSans-73" x="3998.666016"/>
    </g>
   </g>
  </g>
 </g>
 <defs>
  <clipPath id="p5d8490b7b2">
   <rect x="51.3" y="27.6" width="799.74" height="345.816875"/>
  </clipPath>
 </defs>
</svg>
