<?xml version="1.0" encoding="utf-8" standalone="no"?>
<!DOCTYPE svg PUBLIC "-//W3C//DTD SVG 1.1//EN"
  "http://www.w3.org/Graphics/SVG/1.1/DTD/svg11.dtd">
<svg xmlns:xlink="http://www.w3.org/1999/xlink" width="864pt" height="432pt" viewBox="0 0 864 432" xmlns="http://www.w3.org/2000/svg" version="1.1">
 <metadata>
  <rdf:RDF xmlns:dc="http://purl.org/dc/elements/1.1/" xmlns:cc="http://creativecommons.org/ns#" xmlns:rdf="http://www.w3.org/1999/02/22-rdf-syntax-ns#">
   <cc:Work>
    <dc:type rdf:resource="http://purl.org/dc/dcmitype/StillImage"/>
    <dc:date>2026-03-21T14:06:19.480471</dc:date>
    <dc:format>image/svg+xml</dc:format>
    <dc:creator>
     <cc:Agent>
      <dc:title>Matplotlib v3.6.3, https://matplotlib.org/</dc:title>
     </cc:Agent>
    </dc:creator>
   </cc:Work>
  </rdf:RDF>
 </metadata>
 <defs>
  <style type="text/css">*{stroke-linejoin: round; stroke-linecap: butt}</style>
 </defs>
 <g id="figure_1">
  <g id="patch_1">
   <path d="M 0 432 
L 864 432 
L 864 0 
L 0 0 
z
" style="fill: #ffffff"/>
  </g>
  <g id="axes_1">
   <g id="patch_2">
    <path d="M 58.32 377.237044 
L 851.04 377.237044 
L 851.04 27.6 
L 58.32 27.6 
z
" style="fill: #ffffff"/>
   </g>
   <g id="matplotlib.axis_1">
    <g id="xtick_1">
     <g id="text_1">
      <!-- P-521 -->
      <g style="fill: #262626" transform="translate(156.759421 404.396088) rotate(-15) scale(0.12 -0.12)">
       <defs>
        <path id="DejaVuSans-50" d="M 1259 4147 
L 1259 2394 
L 2053 2394 
Q 2494 2394 2734 2622 
Q 2975 2850 2975 3272 
Q 2975 3691 2734 3919 
Q 2494 4147 2053 4147 
L 1259 4147 
z
M 628 4666 
L 2053 4666 
Q 2838 4666 3239 4311 
Q 3641 3956 3641 3272 
Q 3641 2581 3239 2228 
Q 2838 1875 2053 1875 
L 1259 1875 
L 1259 0 
L 628 0 
L 628 4666 
z
" transform="scale(0.015625)"/>
        <path id="DejaVuSans-2d" d="M 313 2009 
L 1997 2009 
L 1997 1497 
L 313 1497 
L 313 2009 
z
" transform="scale(0.015625)"/>
        <path id="DejaVuSans-35" d="M 691 4666 
L 3169 4666 
L 3169 4134 
L 1269 4134 
L 1269 2991 
Q 1406 3038 1543 3061 
Q 1681 3084 1819 3084 
Q 2600 3084 3056 2656 
Q 3513 2228 3513 1497 
Q 3513 744 3044 326 
Q 2575 -91 1722 -91 
Q 1428 -91 1123 -41 
Q 819 9 494 109 
L 494 744 
Q 775 591 1075 516 
Q 1375 441 1709 441 
Q 2250 441 2565 725 
Q 2881 1009 2881 1497 
Q 2881 1984 2565 2268 
Q 2250 2553 1709 2553 
Q 1456 2553 1204 2497 
Q 953 2441 691 2322 
L 691 4666 
z
" transform="scale(0.015625)"/>
        <path id="DejaVuSans-32" d="M 1228 531 
L 3431 531 
L 3431 0 
L 469 0 
L 469 531 
Q 828 903 1448 1529 
Q 2069 2156 2228 2338 
Q 2531 2678 2651 2914 
Q 2772 3150 2772 3378 
Q 2772 3750 2511 3984 
Q 2250 4219 1831 4219 
Q 1534 4219 1204 4116 
Q 875 4013 500 3803 
L 500 4441 
Q 881 4594 1212 4672 
Q 1544 4750 1819 4750 
Q 2544 4750 2975 4387 
Q 3406 4025 3406 3419 
Q 3406 3131 3298 2873 
Q 3191 2616 2906 2266 
Q 2828 2175 2409 1742 
Q 1991 1309 1228 531 
z
" transform="scale(0.015625)"/>
        <path id="DejaVuSans-31" d="M 794 531 
L 1825 531 
L 1825 4091 
L 703 3866 
L 703 4441 
L 1819 4666 
L 2450 4666 
L 2450 531 
L 3481 531 
L 3481 0 
L 794 0 
L 794 531 
z
" transform="scale(0.015625)"/>
       </defs>
       <use xlink:href="#DejaVuSans-50"/>
       <use xlink:href="#DejaVuSans-2d" x="58.052734"/>
       <use xlink:href="#DejaVuSans-35" x="94.136719"/>
       <use xlink:href="#DejaVuSans-32" x="157.759766"/>
       <use xlink:href="#DejaVuSans-31" x="221.382812"/>
      </g>
     </g>
    </g>
    <g id="xtick_2">
     <g id="text_2">
      <!-- hqc256 -->
      <g style="fill: #262626" transform="translate(410.831845 407.120482) rotate(-15) scale(0.12 -0.12)">
       <defs>
        <path id="DejaVuSans-68" d="M 3513 2113 
L 3513 0 
L 2938 0 
L 2938 2094 
Q 2938 2591 2744 2837 
Q 2550 3084 2163 3084 
Q 1697 3084 1428 2787 
Q 1159 2491 1159 1978 
L 1159 0 
L 581 0 
L 581 4863 
L 1159 4863 
L 1159 2956 
Q 1366 3272 1645 3428 
Q 1925 3584 2291 3584 
Q 2894 3584 3203 3211 
Q 3513 2838 3513 2113 
z
" transform="scale(0.015625)"/>
        <path id="DejaVuSans-71" d="M 947 1747 
Q 947 1113 1208 752 
Q 1469 391 1925 391 
Q 2381 391 2643 752 
Q 2906 1113 2906 1747 
Q 2906 2381 2643 2742 
Q 2381 3103 1925 3103 
Q 1469 3103 1208 2742 
Q 947 2381 947 1747 
z
M 2906 525 
Q 2725 213 2448 61 
Q 2172 -91 1784 -91 
Q 1150 -91 751 415 
Q 353 922 353 1747 
Q 353 2572 751 3078 
Q 1150 3584 1784 3584 
Q 2172 3584 2448 3432 
Q 2725 3281 2906 2969 
L 2906 3500 
L 3481 3500 
L 3481 -1331 
L 2906 -1331 
L 2906 525 
z
" transform="scale(0.015625)"/>
        <path id="DejaVuSans-63" d="M 3122 3366 
L 3122 2828 
Q 2878 2963 2633 3030 
Q 2388 3097 2138 3097 
Q 1578 3097 1268 2742 
Q 959 2388 959 1747 
Q 959 1106 1268 751 
Q 1578 397 2138 397 
Q 2388 397 2633 464 
Q 2878 531 3122 666 
L 3122 134 
Q 2881 22 2623 -34 
Q 2366 -91 2075 -91 
Q 1284 -91 818 406 
Q 353 903 353 1747 
Q 353 2603 823 3093 
Q 1294 3584 2113 3584 
Q 2378 3584 2631 3529 
Q 2884 3475 3122 3366 
z
" transform="scale(0.015625)"/>
        <path id="DejaVuSans-36" d="M 2113 2584 
Q 1688 2584 1439 2293 
Q 1191 2003 1191 1497 
Q 1191 994 1439 701 
Q 1688 409 2113 409 
Q 2538 409 2786 701 
Q 3034 994 3034 1497 
Q 3034 2003 2786 2293 
Q 2538 2584 2113 2584 
z
M 3366 4563 
L 3366 3988 
Q 3128 4100 2886 4159 
Q 2644 4219 2406 4219 
Q 1781 4219 1451 3797 
Q 1122 3375 1075 2522 
Q 1259 2794 1537 2939 
Q 1816 3084 2150 3084 
Q 2853 3084 3261 2657 
Q 3669 2231 3669 1497 
Q 3669 778 3244 343 
Q 2819 -91 2113 -91 
Q 1303 -91 875 529 
Q 447 1150 447 2328 
Q 447 3434 972 4092 
Q 1497 4750 2381 4750 
Q 2619 4750 2861 4703 
Q 3103 4656 3366 4563 
z
" transform="scale(0.015625)"/>
       </defs>
       <use xlink:href="#DejaVuSans-68"/>
       <use xlink:href="#DejaVuSans-71" x="63.378906"/>
       <use xlink:href="#DejaVuSans-63" x="126.855469"/>
       <use xlink:href="#DejaVuSans-32" x="181.835938"/>
       <use xlink:href="#DejaVuSans-35" x="245.458984"/>
       <use xlink:href="#DejaVuSans-36" x="309.082031"/>
      </g>
     </g>
    </g>
    <g id="xtick_3">
     <g id="text_3">
      <!-- p521_hqc256 -->
      <g style="fill: #262626" transform="translate(639.706834 416.573362) rotate(-15) scale(0.12 -0.12)">
       <defs>
        <path id="DejaVuSans-70" d="M 1159 525 
L 1159 -1331 
L 581 -1331 
L 581 3500 
L 1159 3500 
L 1159 2969 
Q 1341 3281 1617 3432 
Q 1894 3584 2278 3584 
Q 2916 3584 3314 3078 
Q 3713 2572 3713 1747 
Q 3713 922 3314 415 
Q 2916 -91 2278 -91 
Q 1894 -91 1617 61 
Q 1341 213 1159 525 
z
M 3116 1747 
Q 3116 2381 2855 2742 
Q 2594 3103 2138 3103 
Q 1681 3103 1420 2742 
Q 1159 2381 1159 1747 
Q 1159 1113 1420 752 
Q 1681 391 2138 391 
Q 2594 391 2855 752 
Q 3116 1113 3116 1747 
z
" transform="scale(0.015625)"/>
        <path id="DejaVuSans-5f" d="M 3263 -1063 
L 3263 -1509 
L -63 -1509 
L -63 -1063 
L 3263 -1063 
z
" transform="scale(0.015625)"/>
       </defs>
       <use xlink:href="#DejaVuSans-70"/>
       <use xlink:href="#DejaVuSans-35" x="63.476562"/>
       <use xlink:href="#DejaVuSans-32" x="127.099609"/>
       <use xlink:href="#DejaVuSans-31" x="190.722656"/>
       <use xlink:href="#DejaVuSans-5f" x="254.345703"/>
       <use xlink:href="#DejaVuSans-68" x="304.345703"/>
       <use xlink:href="#DejaVuSans-71" x="367.724609"/>
       <use xlink:href="#DejaVuSans-63" x="431.201172"/>
       <use xlink:href="#DejaVuSans-32" x="486.181641"/>
       <use xlink:href="#DejaVuSans-35" x="549.804688"/>
       <use xlink:href="#DejaVuSans-36" x="613.427734"/>
      </g>
     </g>
    </g>
   </g>
   <g id="matplotlib.axis_2">
    <g id="ytick_1">
     <g id="line2d_1">
      <path d="M 58.32 329.428915 
L 851.04 329.428915 
" clip-path="url(#p0a81fa1538)" style="fill: none; stroke: #cccccc; stroke-linecap: round"/>
     </g>
     <g id="text_4">
      <!-- 20 -->
      <g style="fill: #262626" transform="translate(34.8225 333.608055) scale(0.11 -0.11)">
       <defs>
        <path id="DejaVuSans-30" d="M 2034 4250 
Q 1547 4250 1301 3770 
Q 1056 3291 1056 2328 
Q 1056 1369 1301 889 
Q 1547 409 2034 409 
Q 2525 409 2770 889 
Q 3016 1369 3016 2328 
Q 3016 3291 2770 3770 
Q 2525 4250 2034 4250 
z
M 2034 4750 
Q 2819 4750 3233 4129 
Q 3647 3509 3647 2328 
Q 3647 1150 3233 529 
Q 2819 -91 2034 -91 
Q 1250 -91 836 529 
Q 422 1150 422 2328 
Q 422 3509 836 4129 
Q 1250 4750 2034 4750 
z
" transform="scale(0.015625)"/>
       </defs>
       <use xlink:href="#DejaVuSans-32"/>
       <use xlink:href="#DejaVuSans-30" x="63.623047"/>
      </g>
     </g>
    </g>
    <g id="ytick_2">
     <g id="line2d_2">
      <path d="M 58.32 267.027197 
L 851.04 267.027197 
" clip-path="url(#p0a81fa1538)" style="fill: none; stroke: #cccccc; stroke-linecap: round"/>
     </g>
     <g id="text_5">
      <!-- 40 -->
      <g style="fill: #262626" transform="translate(34.8225 271.206337) scale(0.11 -0.11)">
       <defs>
        <path id="DejaVuSans-34" d="M 2419 4116 
L 825 1625 
L 2419 1625 
L 2419 4116 
z
M 2253 4666 
L 3047 4666 
L 3047 1625 
L 3713 1625 
L 3713 1100 
L 3047 1100 
L 3047 0 
L 2419 0 
L 2419 1100 
L 313 1100 
L 313 1709 
L 2253 4666 
z
" transform="scale(0.015625)"/>
       </defs>
       <use xlink:href="#DejaVuSans-34"/>
       <use xlink:href="#DejaVuSans-30" x="63.623047"/>
      </g>
     </g>
    </g>
    <g id="ytick_3">
     <g id="line2d_3">
      <path d="M 58.32 204.625479 
L 851.04 204.625479 
" clip-path="url(#p0a81fa1538)" style="fill: none; stroke: #cccccc; stroke-linecap: round"/>
     </g>
     <g id="text_6">
      <!-- 60 -->
      <g style="fill: #262626" transform="translate(34.8225 208.804619) scale(0.11 -0.11)">
       <use xlink:href="#DejaVuSans-36"/>
       <use xlink:href="#DejaVuSans-30" x="63.623047"/>
      </g>
     </g>
    </g>
    <g id="ytick_4">
     <g id="line2d_4">
      <path d="M 58.32 142.223761 
L 851.04 142.223761 
" clip-path="url(#p0a81fa1538)" style="fill: none; stroke: #cccccc; stroke-linecap: round"/>
     </g>
     <g id="text_7">
      <!-- 80 -->
      <g style="fill: #262626" transform="translate(34.8225 146.402901) scale(0.11 -0.11)">
       <defs>
        <path id="DejaVuSans-38" d="M 2034 2216 
Q 1584 2216 1326 1975 
Q 1069 1734 1069 1313 
Q 1069 891 1326 650 
Q 1584 409 2034 409 
Q 2484 409 2743 651 
Q 3003 894 3003 1313 
Q 3003 1734 2745 1975 
Q 2488 2216 2034 2216 
z
M 1403 2484 
Q 997 2584 770 2862 
Q 544 3141 544 3541 
Q 544 4100 942 4425 
Q 1341 4750 2034 4750 
Q 2731 4750 3128 4425 
Q 3525 4100 3525 3541 
Q 3525 3141 3298 2862 
Q 3072 2584 2669 2484 
Q 3125 2378 3379 2068 
Q 3634 1759 3634 1313 
Q 3634 634 3220 271 
Q 2806 -91 2034 -91 
Q 1263 -91 848 271 
Q 434 634 434 1313 
Q 434 1759 690 2068 
Q 947 2378 1403 2484 
z
M 1172 3481 
Q 1172 3119 1398 2916 
Q 1625 2713 2034 2713 
Q 2441 2713 2670 2916 
Q 2900 3119 2900 3481 
Q 2900 3844 2670 4047 
Q 2441 4250 2034 4250 
Q 1625 4250 1398 4047 
Q 1172 3844 1172 3481 
z
" transform="scale(0.015625)"/>
       </defs>
       <use xlink:href="#DejaVuSans-38"/>
       <use xlink:href="#DejaVuSans-30" x="63.623047"/>
      </g>
     </g>
    </g>
    <g id="ytick_5">
     <g id="line2d_5">
      <path d="M 58.32 79.822042 
L 851.04 79.822042 
" clip-path="url(#p0a81fa1538)" style="fill: none; stroke: #cccccc; stroke-linecap: round"/>
     </g>
     <g id="text_8">
      <!-- 100 -->
      <g style="fill: #262626" transform="translate(27.82375 84.001183) scale(0.11 -0.11)">
       <use xlink:href="#DejaVuSans-31"/>
       <use xlink:href="#DejaVuSans-30" x="63.623047"/>
       <use xlink:href="#DejaVuSans-30" x="127.246094"/>
      </g>
     </g>
    </g>
    <g id="text_9">
     <!-- Handshake duration (ms) -->
     <g style="fill: #262626" transform="translate(21.328125 278.486335) rotate(-90) scale(0.12 -0.12)">
      <defs>
       <path id="DejaVuSans-48" d="M 628 4666 
L 1259 4666 
L 1259 2753 
L 3553 2753 
L 3553 4666 
L 4184 4666 
L 4184 0 
L 3553 0 
L 3553 2222 
L 1259 2222 
L 1259 0 
L 628 0 
L 628 4666 
z
" transform="scale(0.015625)"/>
       <path id="DejaVuSans-61" d="M 2194 1759 
Q 1497 1759 1228 1600 
Q 959 1441 959 1056 
Q 959 750 1161 570 
Q 1363 391 1709 391 
Q 2188 391 2477 730 
Q 2766 1069 2766 1631 
L 2766 1759 
L 2194 1759 
z
M 3341 1997 
L 3341 0 
L 2766 0 
L 2766 531 
Q 2569 213 2275 61 
Q 1981 -91 1556 -91 
Q 1019 -91 701 211 
Q 384 513 384 1019 
Q 384 1609 779 1909 
Q 1175 2209 1959 2209 
L 2766 2209 
L 2766 2266 
Q 2766 2663 2505 2880 
Q 2244 3097 1772 3097 
Q 1472 3097 1187 3025 
Q 903 2953 641 2809 
L 641 3341 
Q 956 3463 1253 3523 
Q 1550 3584 1831 3584 
Q 2591 3584 2966 3190 
Q 3341 2797 3341 1997 
z
" transform="scale(0.015625)"/>
       <path id="DejaVuSans-6e" d="M 3513 2113 
L 3513 0 
L 2938 0 
L 2938 2094 
Q 2938 2591 2744 2837 
Q 2550 3084 2163 3084 
Q 1697 3084 1428 2787 
Q 1159 2491 1159 1978 
L 1159 0 
L 581 0 
L 581 3500 
L 1159 3500 
L 1159 2956 
Q 1366 3272 1645 3428 
Q 1925 3584 2291 3584 
Q 2894 3584 3203 3211 
Q 3513 2838 3513 2113 
z
" transform="scale(0.015625)"/>
       <path id="DejaVuSans-64" d="M 2906 2969 
L 2906 4863 
L 3481 4863 
L 3481 0 
L 2906 0 
L 2906 525 
Q 2725 213 2448 61 
Q 2172 -91 1784 -91 
Q 1150 -91 751 415 
Q 353 922 353 1747 
Q 353 2572 751 3078 
Q 1150 3584 1784 3584 
Q 2172 3584 2448 3432 
Q 2725 3281 2906 2969 
z
M 947 1747 
Q 947 1113 1208 752 
Q 1469 391 1925 391 
Q 2381 391 2643 752 
Q 2906 1113 2906 1747 
Q 2906 2381 2643 2742 
Q 2381 3103 1925 3103 
Q 1469 3103 1208 2742 
Q 947 2381 947 1747 
z
" transform="scale(0.015625)"/>
       <path id="DejaVuSans-73" d="M 2834 3397 
L 2834 2853 
Q 2591 2978 2328 3040 
Q 2066 3103 1784 3103 
Q 1356 3103 1142 2972 
Q 928 2841 928 2578 
Q 928 2378 1081 2264 
Q 1234 2150 1697 2047 
L 1894 2003 
Q 2506 1872 2764 1633 
Q 3022 1394 3022 966 
Q 3022 478 2636 193 
Q 2250 -91 1575 -91 
Q 1294 -91 989 -36 
Q 684 19 347 128 
L 347 722 
Q 666 556 975 473 
Q 1284 391 1588 391 
Q 1994 391 2212 530 
Q 2431 669 2431 922 
Q 2431 1156 2273 1281 
Q 2116 1406 1581 1522 
L 1381 1569 
Q 847 1681 609 1914 
Q 372 2147 372 2553 
Q 372 3047 722 3315 
Q 1072 3584 1716 3584 
Q 2034 3584 2315 3537 
Q 2597 3491 2834 3397 
z
" transform="scale(0.015625)"/>
       <path id="DejaVuSans-6b" d="M 581 4863 
L 1159 4863 
L 1159 1991 
L 2875 3500 
L 3609 3500 
L 1753 1863 
L 3688 0 
L 2938 0 
L 1159 1709 
L 1159 0 
L 581 0 
L 581 4863 
z
" transform="scale(0.015625)"/>
       <path id="DejaVuSans-65" d="M 3597 1894 
L 3597 1613 
L 953 1613 
Q 991 1019 1311 708 
Q 1631 397 2203 397 
Q 2534 397 2845 478 
Q 3156 559 3463 722 
L 3463 178 
Q 3153 47 2828 -22 
Q 2503 -91 2169 -91 
Q 1331 -91 842 396 
Q 353 884 353 1716 
Q 353 2575 817 3079 
Q 1281 3584 2069 3584 
Q 2775 3584 3186 3129 
Q 3597 2675 3597 1894 
z
M 3022 2063 
Q 3016 2534 2758 2815 
Q 2500 3097 2075 3097 
Q 1594 3097 1305 2825 
Q 1016 2553 972 2059 
L 3022 2063 
z
" transform="scale(0.015625)"/>
       <path id="DejaVuSans-20" transform="scale(0.015625)"/>
       <path id="DejaVuSans-75" d="M 544 1381 
L 544 3500 
L 1119 3500 
L 1119 1403 
Q 1119 906 1312 657 
Q 1506 409 1894 409 
Q 2359 409 2629 706 
Q 2900 1003 2900 1516 
L 2900 3500 
L 3475 3500 
L 3475 0 
L 2900 0 
L 2900 538 
Q 2691 219 2414 64 
Q 2138 -91 1772 -91 
Q 1169 -91 856 284 
Q 544 659 544 1381 
z
M 1991 3584 
L 1991 3584 
z
" transform="scale(0.015625)"/>
       <path id="DejaVuSans-72" d="M 2631 2963 
Q 2534 3019 2420 3045 
Q 2306 3072 2169 3072 
Q 1681 3072 1420 2755 
Q 1159 2438 1159 1844 
L 1159 0 
L 581 0 
L 581 3500 
L 1159 3500 
L 1159 2956 
Q 1341 3275 1631 3429 
Q 1922 3584 2338 3584 
Q 2397 3584 2469 3576 
Q 2541 3569 2628 3553 
L 2631 2963 
z
" transform="scale(0.015625)"/>
       <path id="DejaVuSans-74" d="M 1172 4494 
L 1172 3500 
L 2356 3500 
L 2356 3053 
L 1172 3053 
L 1172 1153 
Q 1172 725 1289 603 
Q 1406 481 1766 481 
L 2356 481 
L 2356 0 
L 1766 0 
Q 1100 0 847 248 
Q 594 497 594 1153 
L 594 3053 
L 172 3053 
L 172 3500 
L 594 3500 
L 594 4494 
L 1172 4494 
z
" transform="scale(0.015625)"/>
       <path id="DejaVuSans-69" d="M 603 3500 
L 1178 3500 
L 1178 0 
L 603 0 
L 603 3500 
z
M 603 4863 
L 1178 4863 
L 1178 4134 
L 603 4134 
L 603 4863 
z
" transform="scale(0.015625)"/>
       <path id="DejaVuSans-6f" d="M 1959 3097 
Q 1497 3097 1228 2736 
Q 959 2375 959 1747 
Q 959 1119 1226 758 
Q 1494 397 1959 397 
Q 2419 397 2687 759 
Q 2956 1122 2956 1747 
Q 2956 2369 2687 2733 
Q 2419 3097 1959 3097 
z
M 1959 3584 
Q 2709 3584 3137 3096 
Q 3566 2609 3566 1747 
Q 3566 888 3137 398 
Q 2709 -91 1959 -91 
Q 1206 -91 779 398 
Q 353 888 353 1747 
Q 353 2609 779 3096 
Q 1206 3584 1959 3584 
z
" transform="scale(0.015625)"/>
       <path id="DejaVuSans-28" d="M 1984 4856 
Q 1566 4138 1362 3434 
Q 1159 2731 1159 2009 
Q 1159 1288 1364 580 
Q 1569 -128 1984 -844 
L 1484 -844 
Q 1016 -109 783 600 
Q 550 1309 550 2009 
Q 550 2706 781 3412 
Q 1013 4119 1484 4856 
L 1984 4856 
z
" transform="scale(0.015625)"/>
       <path id="DejaVuSans-6d" d="M 3328 2828 
Q 3544 3216 3844 3400 
Q 4144 3584 4550 3584 
Q 5097 3584 5394 3201 
Q 5691 2819 5691 2113 
L 5691 0 
L 5113 0 
L 5113 2094 
Q 5113 2597 4934 2840 
Q 4756 3084 4391 3084 
Q 3944 3084 3684 2787 
Q 3425 2491 3425 1978 
L 3425 0 
L 2847 0 
L 2847 2094 
Q 2847 2600 2669 2842 
Q 2491 3084 2119 3084 
Q 1678 3084 1418 2786 
Q 1159 2488 1159 1978 
L 1159 0 
L 581 0 
L 581 3500 
L 1159 3500 
L 1159 2956 
Q 1356 3278 1631 3431 
Q 1906 3584 2284 3584 
Q 2666 3584 2933 3390 
Q 3200 3197 3328 2828 
z
" transform="scale(0.015625)"/>
       <path id="DejaVuSans-29" d="M 513 4856 
L 1013 4856 
Q 1481 4119 1714 3412 
Q 1947 2706 1947 2009 
Q 1947 1309 1714 600 
Q 1481 -109 1013 -844 
L 513 -844 
Q 928 -128 1133 580 
Q 1338 1288 1338 2009 
Q 1338 2731 1133 3434 
Q 928 4138 513 4856 
z
" transform="scale(0.015625)"/>
      </defs>
      <use xlink:href="#DejaVuSans-48"/>
      <use xlink:href="#DejaVuSans-61" x="75.195312"/>
      <use xlink:href="#DejaVuSans-6e" x="136.474609"/>
      <use xlink:href="#DejaVuSans-64" x="199.853516"/>
      <use xlink:href="#DejaVuSans-73" x="263.330078"/>
      <use xlink:href="#DejaVuSans-68" x="315.429688"/>
      <use xlink:href="#DejaVuSans-61" x="378.808594"/>
      <use xlink:href="#DejaVuSans-6b" x="440.087891"/>
      <use xlink:href="#DejaVuSans-65" x="494.373047"/>
      <use xlink:href="#DejaVuSans-20" x="555.896484"/>
      <use xlink:href="#DejaVuSans-64" x="587.683594"/>
      <use xlink:href="#DejaVuSans-75" x="651.160156"/>
      <use xlink:href="#DejaVuSans-72" x="714.539062"/>
      <use xlink:href="#DejaVuSans-61" x="755.652344"/>
      <use xlink:href="#DejaVuSans-74" x="816.931641"/>
      <use xlink:href="#DejaVuSans-69" x="856.140625"/>
      <use xlink:href="#DejaVuSans-6f" x="883.923828"/>
      <use xlink:href="#DejaVuSans-6e" x="945.105469"/>
      <use xlink:href="#DejaVuSans-20" x="1008.484375"/>
      <use xlink:href="#DejaVuSans-28" x="1040.271484"/>
      <use xlink:href="#DejaVuSans-6d" x="1079.285156"/>
      <use xlink:href="#DejaVuSans-73" x="1176.697266"/>
      <use xlink:href="#DejaVuSans-29" x="1228.796875"/>
     </g>
    </g>
   </g>
   <g id="PolyCollection_1">
    <defs>
     <path id="mfb73f522af" d="M 190.655478 -70.655549 
L 190.224522 -70.655549 
L 189.992135 -70.851834 
L 189.577276 -71.04812 
L 188.888772 -71.244405 
L 187.820002 -71.44069 
L 186.263926 -71.636976 
L 184.140792 -71.833261 
L 181.433253 -72.029546 
L 178.208536 -72.225832 
L 174.600792 -72.422117 
L 170.746919 -72.618402 
L 166.710536 -72.814688 
L 162.452502 -73.010973 
L 157.875535 -73.207258 
L 152.901827 -73.403544 
L 147.506289 -73.599829 
L 141.67584 -73.796115 
L 135.358155 -73.9924 
L 128.497366 -74.188685 
L 121.171982 -74.384971 
L 113.721298 -74.581256 
L 106.710556 -74.777541 
L 100.703622 -74.973827 
L 95.987457 -75.170112 
L 92.456773 -75.366397 
L 89.751698 -75.562683 
L 87.547682 -75.758968 
L 85.792535 -75.955253 
L 84.744 -76.151539 
L 84.812504 -76.347824 
L 86.332847 -76.54411 
L 89.406753 -76.740395 
L 93.891056 -76.93668 
L 99.511307 -77.132966 
L 106.011306 -77.329251 
L 113.238385 -77.525536 
L 121.11504 -77.721822 
L 129.527481 -77.918107 
L 138.218617 -78.114392 
L 146.76962 -78.310678 
L 154.694297 -78.506963 
L 161.594729 -78.703248 
L 167.286097 -78.899534 
L 171.820704 -79.095819 
L 175.409016 -79.292104 
L 178.298051 -79.48839 
L 180.680217 -79.684675 
L 182.667234 -79.880961 
L 184.313244 -80.077246 
L 185.648817 -80.273531 
L 186.700422 -80.469817 
L 187.494598 -80.666102 
L 188.057969 -80.862387 
L 188.420025 -81.058673 
L 188.617256 -81.254958 
L 188.694667 -81.451243 
L 188.702996 -81.647529 
L 188.692639 -81.843814 
L 188.706047 -82.040099 
L 188.770274 -82.236385 
L 188.891187 -82.43267 
L 189.051104 -82.628955 
L 189.212408 -82.825241 
L 189.32932 -83.021526 
L 189.366862 -83.217812 
L 189.320039 -83.414097 
L 189.222121 -83.610382 
L 189.133892 -83.806668 
L 189.116374 -84.002953 
L 189.201131 -84.199238 
L 189.375186 -84.395524 
L 189.58869 -84.591809 
L 189.779413 -84.788094 
L 189.899718 -84.98438 
L 189.933523 -85.180665 
L 189.898508 -85.37695 
L 189.835569 -85.573236 
L 189.790884 -85.769521 
L 189.797584 -85.965807 
L 189.864395 -86.162092 
L 189.975935 -86.358377 
L 190.103235 -86.554663 
L 190.217367 -86.750948 
L 190.298237 -86.947233 
L 190.335202 -87.143519 
L 190.32217 -87.339804 
L 190.25301 -87.536089 
L 190.122191 -87.732375 
L 189.93163 -87.92866 
L 189.699807 -88.124945 
L 189.465919 -88.321231 
L 189.282877 -88.517516 
L 189.199373 -88.713801 
L 189.239435 -88.910087 
L 189.391445 -89.106372 
L 189.6136 -89.302658 
L 189.852413 -89.498943 
L 190.063222 -89.695228 
L 190.222205 -89.891514 
L 190.326563 -90.087799 
L 190.553437 -90.087799 
L 190.553437 -90.087799 
L 190.657795 -89.891514 
L 190.816778 -89.695228 
L 191.027587 -89.498943 
L 191.2664 -89.302658 
L 191.488555 -89.106372 
L 191.640565 -88.910087 
L 191.680627 -88.713801 
L 191.597123 -88.517516 
L 191.414081 -88.321231 
L 191.180193 -88.124945 
L 190.94837 -87.92866 
L 190.757809 -87.732375 
L 190.62699 -87.536089 
L 190.55783 -87.339804 
L 190.544798 -87.143519 
L 190.581763 -86.947233 
L 190.662633 -86.750948 
L 190.776765 -86.554663 
L 190.904065 -86.358377 
L 191.015605 -86.162092 
L 191.082416 -85.965807 
L 191.089116 -85.769521 
L 191.044431 -85.573236 
L 190.981492 -85.37695 
L 190.946477 -85.180665 
L 190.980282 -84.98438 
L 191.100587 -84.788094 
L 191.29131 -84.591809 
L 191.504814 -84.395524 
L 191.678869 -84.199238 
L 191.763626 -84.002953 
L 191.746108 -83.806668 
L 191.657879 -83.610382 
L 191.559961 -83.414097 
L 191.513138 -83.217812 
L 191.55068 -83.021526 
L 191.667592 -82.825241 
L 191.828896 -82.628955 
L 191.988813 -82.43267 
L 192.109726 -82.236385 
L 192.173953 -82.040099 
L 192.187361 -81.843814 
L 192.177004 -81.647529 
L 192.185333 -81.451243 
L 192.262744 -81.254958 
L 192.459975 -81.058673 
L 192.822031 -80.862387 
L 193.385402 -80.666102 
L 194.179578 -80.469817 
L 195.231183 -80.273531 
L 196.566756 -80.077246 
L 198.212766 -79.880961 
L 200.199783 -79.684675 
L 202.581949 -79.48839 
L 205.470984 -79.292104 
L 209.059296 -79.095819 
L 213.593903 -78.899534 
L 219.285271 -78.703248 
L 226.185703 -78.506963 
L 234.11038 -78.310678 
L 242.661383 -78.114392 
L 251.352519 -77.918107 
L 259.76496 -77.721822 
L 267.641615 -77.525536 
L 274.868694 -77.329251 
L 281.368693 -77.132966 
L 286.988944 -76.93668 
L 291.473247 -76.740395 
L 294.547153 -76.54411 
L 296.067496 -76.347824 
L 296.136 -76.151539 
L 295.087465 -75.955253 
L 293.332318 -75.758968 
L 291.128302 -75.562683 
L 288.423227 -75.366397 
L 284.892543 -75.170112 
L 280.176378 -74.973827 
L 274.169444 -74.777541 
L 267.158702 -74.581256 
L 259.708018 -74.384971 
L 252.382634 -74.188685 
L 245.521845 -73.9924 
L 239.20416 -73.796115 
L 233.373711 -73.599829 
L 227.978173 -73.403544 
L 223.004465 -73.207258 
L 218.427498 -73.010973 
L 214.169464 -72.814688 
L 210.133081 -72.618402 
L 206.279208 -72.422117 
L 202.671464 -72.225832 
L 199.446747 -72.029546 
L 196.739208 -71.833261 
L 194.616074 -71.636976 
L 193.059998 -71.44069 
L 191.991228 -71.244405 
L 191.302724 -71.04812 
L 190.887865 -70.851834 
L 190.655478 -70.655549 
z
" style="stroke: #595959; stroke-width: 1.25"/>
    </defs>
    <g clip-path="url(#p0a81fa1538)">
     <use xlink:href="#mfb73f522af" x="0" y="432" style="fill: #72b6a1; stroke: #595959; stroke-width: 1.25"/>
    </g>
   </g>
   <g id="PolyCollection_2">
    <defs>
     <path id="m2635ac786f" d="M 455.4743 -282.646211 
L 453.8857 -282.646211 
L 451.963476 -283.499993 
L 446.993144 -284.353774 
L 436.580907 -285.207556 
L 419.000117 -286.061338 
L 395.386636 -286.91512 
L 370.985903 -287.768901 
L 353.49637 -288.622683 
L 348.984 -289.476465 
L 358.459309 -290.330246 
L 377.71192 -291.184028 
L 400.052256 -292.03781 
L 419.647839 -292.891592 
L 433.491422 -293.745373 
L 441.47632 -294.599155 
L 445.260413 -295.452937 
L 446.93338 -296.306719 
L 448.082257 -297.1605 
L 449.404704 -298.014282 
L 450.848629 -298.868064 
L 452.073156 -299.721846 
L 452.853113 -300.575627 
L 453.189789 -301.429409 
L 453.218735 -302.283191 
L 453.117753 -303.136973 
L 453.063346 -303.990754 
L 453.167024 -304.844536 
L 453.406755 -305.698318 
L 453.658683 -306.552099 
L 453.830085 -307.405881 
L 453.943147 -308.259663 
L 454.075542 -309.113445 
L 454.253781 -309.967226 
L 454.434519 -310.821008 
L 454.566569 -311.67479 
L 454.636464 -312.528572 
L 454.658879 -313.382353 
L 454.647804 -314.236135 
L 454.604941 -315.089917 
L 454.531017 -315.943699 
L 454.445258 -316.79748 
L 454.387934 -317.651262 
L 454.393159 -318.505044 
L 454.457637 -319.358825 
L 454.543936 -320.212607 
L 454.614282 -321.066389 
L 454.654946 -321.920171 
L 454.672461 -322.773952 
L 454.678209 -323.627734 
L 454.679664 -324.481516 
L 454.67995 -325.335298 
L 454.679994 -326.189079 
L 454.679999 -327.042861 
L 454.68 -327.896643 
L 454.68 -328.750425 
L 454.68 -329.604206 
L 454.68 -330.457988 
L 454.68 -331.31177 
L 454.68 -332.165551 
L 454.68 -333.019333 
L 454.68 -333.873115 
L 454.679997 -334.726897 
L 454.679975 -335.580678 
L 454.679819 -336.43446 
L 454.678957 -337.288242 
L 454.675242 -338.142024 
L 454.66287 -338.995805 
L 454.63132 -339.849587 
L 454.570804 -340.703369 
L 454.48666 -341.557151 
L 454.409793 -342.410932 
L 454.381922 -343.264714 
L 454.420448 -344.118496 
L 454.5016 -344.972278 
L 454.583153 -345.826059 
L 454.638119 -346.679841 
L 454.663737 -347.533623 
L 454.667099 -348.387404 
L 454.649823 -349.241186 
L 454.605465 -350.094968 
L 454.531301 -350.94875 
L 454.445478 -351.802531 
L 454.388014 -352.656313 
L 454.393053 -353.510095 
L 454.457412 -354.363877 
L 454.543709 -355.217658 
L 454.614106 -356.07144 
L 454.654682 -356.925222 
L 454.671344 -357.779004 
L 454.673261 -358.632785 
L 454.661989 -359.486567 
L 454.630045 -360.340349 
L 454.56876 -361.19413 
L 454.484302 -362.047912 
L 454.408236 -362.901694 
L 454.382109 -363.755476 
L 454.422259 -364.609257 
L 454.503978 -365.463039 
L 454.585112 -366.316821 
L 454.639625 -367.170603 
L 454.720375 -367.170603 
L 454.720375 -367.170603 
L 454.774888 -366.316821 
L 454.856022 -365.463039 
L 454.937741 -364.609257 
L 454.977891 -363.755476 
L 454.951764 -362.901694 
L 454.875698 -362.047912 
L 454.79124 -361.19413 
L 454.729955 -360.340349 
L 454.698011 -359.486567 
L 454.686739 -358.632785 
L 454.688656 -357.779004 
L 454.705318 -356.925222 
L 454.745894 -356.07144 
L 454.816291 -355.217658 
L 454.902588 -354.363877 
L 454.966947 -353.510095 
L 454.971986 -352.656313 
L 454.914522 -351.802531 
L 454.828699 -350.94875 
L 454.754535 -350.094968 
L 454.710177 -349.241186 
L 454.692901 -348.387404 
L 454.696263 -347.533623 
L 454.721881 -346.679841 
L 454.776847 -345.826059 
L 454.8584 -344.972278 
L 454.939552 -344.118496 
L 454.978078 -343.264714 
L 454.950207 -342.410932 
L 454.87334 -341.557151 
L 454.789196 -340.703369 
L 454.72868 -339.849587 
L 454.69713 -338.995805 
L 454.684758 -338.142024 
L 454.681043 -337.288242 
L 454.680181 -336.43446 
L 454.680025 -335.580678 
L 454.680003 -334.726897 
L 454.68 -333.873115 
L 454.68 -333.019333 
L 454.68 -332.165551 
L 454.68 -331.31177 
L 454.68 -330.457988 
L 454.68 -329.604206 
L 454.68 -328.750425 
L 454.68 -327.896643 
L 454.680001 -327.042861 
L 454.680006 -326.189079 
L 454.68005 -325.335298 
L 454.680336 -324.481516 
L 454.681791 -323.627734 
L 454.687539 -322.773952 
L 454.705054 -321.920171 
L 454.745718 -321.066389 
L 454.816064 -320.212607 
L 454.902363 -319.358825 
L 454.966841 -318.505044 
L 454.972066 -317.651262 
L 454.914742 -316.79748 
L 454.828983 -315.943699 
L 454.755059 -315.089917 
L 454.712196 -314.236135 
L 454.701121 -313.382353 
L 454.723536 -312.528572 
L 454.793431 -311.67479 
L 454.925481 -310.821008 
L 455.106219 -309.967226 
L 455.284458 -309.113445 
L 455.416853 -308.259663 
L 455.529915 -307.405881 
L 455.701317 -306.552099 
L 455.953245 -305.698318 
L 456.192976 -304.844536 
L 456.296654 -303.990754 
L 456.242247 -303.136973 
L 456.141265 -302.283191 
L 456.170211 -301.429409 
L 456.506887 -300.575627 
L 457.286844 -299.721846 
L 458.511371 -298.868064 
L 459.955296 -298.014282 
L 461.277743 -297.1605 
L 462.42662 -296.306719 
L 464.099587 -295.452937 
L 467.88368 -294.599155 
L 475.868578 -293.745373 
L 489.712161 -292.891592 
L 509.307744 -292.03781 
L 531.64808 -291.184028 
L 550.900691 -290.330246 
L 560.376 -289.476465 
L 555.86363 -288.622683 
L 538.374097 -287.768901 
L 513.973364 -286.91512 
L 490.359883 -286.061338 
L 472.779093 -285.207556 
L 462.366856 -284.353774 
L 457.396524 -283.499993 
L 455.4743 -282.646211 
z
" style="stroke: #595959; stroke-width: 1.25"/>
    </defs>
    <g clip-path="url(#p0a81fa1538)">
     <use xlink:href="#m2635ac786f" x="0" y="432" style="fill: #e99675; stroke: #595959; stroke-width: 1.25"/>
    </g>
   </g>
   <g id="PolyCollection_3">
    <defs>
     <path id="m019b12a79a" d="M 719.188002 -332.915378 
L 718.651998 -332.915378 
L 717.983126 -333.476914 
L 716.183982 -334.038449 
L 712.165244 -334.599985 
L 704.674669 -335.161521 
L 692.994209 -335.723056 
L 677.676847 -336.284592 
L 660.537718 -336.846127 
L 643.755018 -337.407663 
L 629.128946 -337.969199 
L 618.319142 -338.530734 
L 613.224 -339.09227 
L 615.29375 -339.653806 
L 624.292337 -340.215341 
L 638.067141 -340.776877 
L 653.648719 -341.338413 
L 668.560089 -341.899948 
L 681.387736 -342.461484 
L 691.601934 -343.02302 
L 699.129982 -343.584555 
L 704.118679 -344.146091 
L 706.940958 -344.707627 
L 708.245693 -345.269162 
L 708.903479 -345.830698 
L 709.782859 -346.392233 
L 711.351247 -346.953769 
L 713.389264 -347.515305 
L 715.228331 -348.07684 
L 716.366767 -348.638376 
L 716.828312 -349.199912 
L 716.983073 -349.761447 
L 717.164391 -350.322983 
L 717.480913 -350.884519 
L 717.875929 -351.446054 
L 718.25183 -352.00759 
L 718.531504 -352.569126 
L 718.670518 -353.130661 
L 718.667042 -353.692197 
L 718.573717 -354.253733 
L 718.485751 -354.815268 
L 718.486036 -355.376804 
L 718.584072 -355.93834 
L 718.719599 -356.499875 
L 718.82795 -357.061411 
L 718.887451 -357.622946 
L 718.91114 -358.184482 
L 718.918143 -358.746018 
L 718.919701 -359.307553 
L 718.919963 -359.869089 
L 718.919996 -360.430625 
L 718.92 -360.99216 
L 718.92 -361.553696 
L 718.92 -362.115232 
L 718.92 -362.676767 
L 718.92 -363.238303 
L 718.92 -363.799839 
L 718.92 -364.361374 
L 718.92 -364.92291 
L 718.92 -365.484446 
L 718.92 -366.045981 
L 718.92 -366.607517 
L 718.92 -367.169052 
L 718.92 -367.730588 
L 718.919995 -368.292124 
L 718.919947 -368.853659 
L 718.919588 -369.415195 
L 718.917554 -369.976731 
L 718.908821 -370.538266 
L 718.880665 -371.099802 
L 718.813455 -371.661338 
L 718.697841 -372.222873 
L 718.563404 -372.784409 
L 718.479373 -373.345945 
L 718.500872 -373.90748 
L 718.613095 -374.469016 
L 718.747001 -375.030552 
L 718.844931 -375.592087 
L 718.894924 -376.153623 
L 718.913552 -376.715158 
L 718.918724 -377.276694 
L 718.919805 -377.83823 
L 718.919977 -378.399765 
L 718.919998 -378.961301 
L 718.92 -379.522837 
L 718.92 -380.084372 
L 718.919999 -380.645908 
L 718.919991 -381.207444 
L 718.919915 -381.768979 
L 718.919378 -382.330515 
L 718.916511 -382.892051 
L 718.904942 -383.453586 
L 718.869966 -384.015122 
L 718.792023 -384.576658 
L 718.66801 -385.138193 
L 718.538042 -385.699729 
L 718.474313 -386.261264 
L 718.519664 -386.8228 
L 718.643178 -387.384336 
L 718.772647 -387.945871 
L 718.859619 -388.507407 
L 718.980381 -388.507407 
L 718.980381 -388.507407 
L 719.067353 -387.945871 
L 719.196822 -387.384336 
L 719.320336 -386.8228 
L 719.365687 -386.261264 
L 719.301958 -385.699729 
L 719.17199 -385.138193 
L 719.047977 -384.576658 
L 718.970034 -384.015122 
L 718.935058 -383.453586 
L 718.923489 -382.892051 
L 718.920622 -382.330515 
L 718.920085 -381.768979 
L 718.920009 -381.207444 
L 718.920001 -380.645908 
L 718.92 -380.084372 
L 718.92 -379.522837 
L 718.920002 -378.961301 
L 718.920023 -378.399765 
L 718.920195 -377.83823 
L 718.921276 -377.276694 
L 718.926448 -376.715158 
L 718.945076 -376.153623 
L 718.995069 -375.592087 
L 719.092999 -375.030552 
L 719.226905 -374.469016 
L 719.339128 -373.90748 
L 719.360627 -373.345945 
L 719.276596 -372.784409 
L 719.142159 -372.222873 
L 719.026545 -371.661338 
L 718.959335 -371.099802 
L 718.931179 -370.538266 
L 718.922446 -369.976731 
L 718.920412 -369.415195 
L 718.920053 -368.853659 
L 718.920005 -368.292124 
L 718.92 -367.730588 
L 718.92 -367.169052 
L 718.92 -366.607517 
L 718.92 -366.045981 
L 718.92 -365.484446 
L 718.92 -364.92291 
L 718.92 -364.361374 
L 718.92 -363.799839 
L 718.92 -363.238303 
L 718.92 -362.676767 
L 718.92 -362.115232 
L 718.92 -361.553696 
L 718.92 -360.99216 
L 718.920004 -360.430625 
L 718.920037 -359.869089 
L 718.920299 -359.307553 
L 718.921857 -358.746018 
L 718.92886 -358.184482 
L 718.952549 -357.622946 
L 719.01205 -357.061411 
L 719.120401 -356.499875 
L 719.255928 -355.93834 
L 719.353964 -355.376804 
L 719.354249 -354.815268 
L 719.266283 -354.253733 
L 719.172958 -353.692197 
L 719.169482 -353.130661 
L 719.308496 -352.569126 
L 719.58817 -352.00759 
L 719.964071 -351.446054 
L 720.359087 -350.884519 
L 720.675609 -350.322983 
L 720.856927 -349.761447 
L 721.011688 -349.199912 
L 721.473233 -348.638376 
L 722.611669 -348.07684 
L 724.450736 -347.515305 
L 726.488753 -346.953769 
L 728.057141 -346.392233 
L 728.936521 -345.830698 
L 729.594307 -345.269162 
L 730.899042 -344.707627 
L 733.721321 -344.146091 
L 738.710018 -343.584555 
L 746.238066 -343.02302 
L 756.452264 -342.461484 
L 769.279911 -341.899948 
L 784.191281 -341.338413 
L 799.772859 -340.776877 
L 813.547663 -340.215341 
L 822.54625 -339.653806 
L 824.616 -339.09227 
L 819.520858 -338.530734 
L 808.711054 -337.969199 
L 794.084982 -337.407663 
L 777.302282 -336.846127 
L 760.163153 -336.284592 
L 744.845791 -335.723056 
L 733.165331 -335.161521 
L 725.674756 -334.599985 
L 721.656018 -334.038449 
L 719.856874 -333.476914 
L 719.188002 -332.915378 
z
" style="stroke: #595959; stroke-width: 1.25"/>
    </defs>
    <g clip-path="url(#p0a81fa1538)">
     <use xlink:href="#m019b12a79a" x="0" y="432" style="fill: #95a3c3; stroke: #595959; stroke-width: 1.25"/>
    </g>
   </g>
   <g id="line2d_6">
    <path d="M 190.44 357.104077 
L 190.44 360.161761 
" clip-path="url(#p0a81fa1538)" style="fill: none; stroke: #000000"/>
   </g>
   <g id="line2d_7">
    <path d="M 190.44 354.826414 
L 190.44 351.706328 
" clip-path="url(#p0a81fa1538)" style="fill: none; stroke: #000000"/>
   </g>
   <g id="line2d_8">
    <path d="M 180.531 360.161761 
L 200.349 360.161761 
" clip-path="url(#p0a81fa1538)" style="fill: none; stroke: #000000; stroke-linecap: round"/>
   </g>
   <g id="line2d_9">
    <path d="M 180.531 351.706328 
L 200.349 351.706328 
" clip-path="url(#p0a81fa1538)" style="fill: none; stroke: #000000; stroke-linecap: round"/>
   </g>
   <g id="line2d_10">
    <path d="M 454.68 143.502996 
L 454.68 145.84306 
" clip-path="url(#p0a81fa1538)" style="fill: none; stroke: #000000"/>
   </g>
   <g id="line2d_11">
    <path d="M 454.68 141.225333 
L 454.68 137.85564 
" clip-path="url(#p0a81fa1538)" style="fill: none; stroke: #000000"/>
   </g>
   <g id="line2d_12">
    <path d="M 444.771 145.84306 
L 464.589 145.84306 
" clip-path="url(#p0a81fa1538)" style="fill: none; stroke: #000000; stroke-linecap: round"/>
   </g>
   <g id="line2d_13">
    <path d="M 444.771 137.85564 
L 464.589 137.85564 
" clip-path="url(#p0a81fa1538)" style="fill: none; stroke: #000000; stroke-linecap: round"/>
   </g>
   <g id="line2d_14">
    <path d="M 718.92 93.839028 
L 718.92 96.888912 
" clip-path="url(#p0a81fa1538)" style="fill: none; stroke: #000000"/>
   </g>
   <g id="line2d_15">
    <path d="M 718.92 91.069952 
L 718.92 86.967039 
" clip-path="url(#p0a81fa1538)" style="fill: none; stroke: #000000"/>
   </g>
   <g id="line2d_16">
    <path d="M 709.011 96.888912 
L 728.829 96.888912 
" clip-path="url(#p0a81fa1538)" style="fill: none; stroke: #000000; stroke-linecap: round"/>
   </g>
   <g id="line2d_17">
    <path d="M 709.011 86.967039 
L 728.829 86.967039 
" clip-path="url(#p0a81fa1538)" style="fill: none; stroke: #000000; stroke-linecap: round"/>
   </g>
   <g id="line2d_18">
    <path d="M 170.622 355.949645 
L 210.258 355.949645 
" clip-path="url(#p0a81fa1538)" style="fill: none; stroke: #ff0000; stroke-width: 2"/>
   </g>
   <g id="line2d_19">
    <path d="M 434.862 142.55137 
L 474.498 142.55137 
" clip-path="url(#p0a81fa1538)" style="fill: none; stroke: #ff0000; stroke-width: 2"/>
   </g>
   <g id="line2d_20">
    <path d="M 699.102 92.551993 
L 738.738 92.551993 
" clip-path="url(#p0a81fa1538)" style="fill: none; stroke: #ff0000; stroke-width: 2"/>
   </g>
   <g id="patch_3">
    <path d="M 58.32 377.237044 
L 58.32 27.6 
" style="fill: none; stroke: #cccccc; stroke-width: 1.25; stroke-linejoin: miter; stroke-linecap: square"/>
   </g>
   <g id="patch_4">
    <path d="M 851.04 377.237044 
L 851.04 27.6 
" style="fill: none; stroke: #cccccc; stroke-width: 1.25; stroke-linejoin: miter; stroke-linecap: square"/>
   </g>
   <g id="patch_5">
    <path d="M 58.32 377.237044 
L 851.04 377.237044 
" style="fill: none; stroke: #cccccc; stroke-width: 1.25; stroke-linejoin: miter; stroke-linecap: square"/>
   </g>
   <g id="patch_6">
    <path d="M 58.32 27.6 
L 851.04 27.6 
" style="fill: none; stroke: #cccccc; stroke-width: 1.25; stroke-linejoin: miter; stroke-linecap: square"/>
   </g>
   <g id="text_10">
    <!-- Handshake duration on TLS with mldsa87 signature algorithm — ideal conditions -->
    <g style="fill: #262626" transform="translate(211.637812 21.6) scale(0.12 -0.12)">
     <defs>
      <path id="DejaVuSans-54" d="M -19 4666 
L 3928 4666 
L 3928 4134 
L 2272 4134 
L 2272 0 
L 1638 0 
L 1638 4134 
L -19 4134 
L -19 4666 
z
" transform="scale(0.015625)"/>
      <path id="DejaVuSans-4c" d="M 628 4666 
L 1259 4666 
L 1259 531 
L 3531 531 
L 3531 0 
L 628 0 
L 628 4666 
z
" transform="scale(0.015625)"/>
      <path id="DejaVuSans-53" d="M 3425 4513 
L 3425 3897 
Q 3066 4069 2747 4153 
Q 2428 4238 2131 4238 
Q 1616 4238 1336 4038 
Q 1056 3838 1056 3469 
Q 1056 3159 1242 3001 
Q 1428 2844 1947 2747 
L 2328 2669 
Q 3034 2534 3370 2195 
Q 3706 1856 3706 1288 
Q 3706 609 3251 259 
Q 2797 -91 1919 -91 
Q 1588 -91 1214 -16 
Q 841 59 441 206 
L 441 856 
Q 825 641 1194 531 
Q 1563 422 1919 422 
Q 2459 422 2753 634 
Q 3047 847 3047 1241 
Q 3047 1584 2836 1778 
Q 2625 1972 2144 2069 
L 1759 2144 
Q 1053 2284 737 2584 
Q 422 2884 422 3419 
Q 422 4038 858 4394 
Q 1294 4750 2059 4750 
Q 2388 4750 2728 4690 
Q 3069 4631 3425 4513 
z
" transform="scale(0.015625)"/>
      <path id="DejaVuSans-77" d="M 269 3500 
L 844 3500 
L 1563 769 
L 2278 3500 
L 2956 3500 
L 3675 769 
L 4391 3500 
L 4966 3500 
L 4050 0 
L 3372 0 
L 2619 2869 
L 1863 0 
L 1184 0 
L 269 3500 
z
" transform="scale(0.015625)"/>
      <path id="DejaVuSans-6c" d="M 603 4863 
L 1178 4863 
L 1178 0 
L 603 0 
L 603 4863 
z
" transform="scale(0.015625)"/>
      <path id="DejaVuSans-37" d="M 525 4666 
L 3525 4666 
L 3525 4397 
L 1831 0 
L 1172 0 
L 2766 4134 
L 525 4134 
L 525 4666 
z
" transform="scale(0.015625)"/>
      <path id="DejaVuSans-67" d="M 2906 1791 
Q 2906 2416 2648 2759 
Q 2391 3103 1925 3103 
Q 1463 3103 1205 2759 
Q 947 2416 947 1791 
Q 947 1169 1205 825 
Q 1463 481 1925 481 
Q 2391 481 2648 825 
Q 2906 1169 2906 1791 
z
M 3481 434 
Q 3481 -459 3084 -895 
Q 2688 -1331 1869 -1331 
Q 1566 -1331 1297 -1286 
Q 1028 -1241 775 -1147 
L 775 -588 
Q 1028 -725 1275 -790 
Q 1522 -856 1778 -856 
Q 2344 -856 2625 -561 
Q 2906 -266 2906 331 
L 2906 616 
Q 2728 306 2450 153 
Q 2172 0 1784 0 
Q 1141 0 747 490 
Q 353 981 353 1791 
Q 353 2603 747 3093 
Q 1141 3584 1784 3584 
Q 2172 3584 2450 3431 
Q 2728 3278 2906 2969 
L 2906 3500 
L 3481 3500 
L 3481 434 
z
" transform="scale(0.015625)"/>
      <path id="DejaVuSans-2014" d="M 313 1978 
L 6088 1978 
L 6088 1528 
L 313 1528 
L 313 1978 
z
" transform="scale(0.015625)"/>
     </defs>
     <use xlink:href="#DejaVuSans-48"/>
     <use xlink:href="#DejaVuSans-61" x="75.195312"/>
     <use xlink:href="#DejaVuSans-6e" x="136.474609"/>
     <use xlink:href="#DejaVuSans-64" x="199.853516"/>
     <use xlink:href="#DejaVuSans-73" x="263.330078"/>
     <use xlink:href="#DejaVuSans-68" x="315.429688"/>
     <use xlink:href="#DejaVuSans-61" x="378.808594"/>
     <use xlink:href="#DejaVuSans-6b" x="440.087891"/>
     <use xlink:href="#DejaVuSans-65" x="494.373047"/>
     <use xlink:href="#DejaVuSans-20" x="555.896484"/>
     <use xlink:href="#DejaVuSans-64" x="587.683594"/>
     <use xlink:href="#DejaVuSans-75" x="651.160156"/>
     <use xlink:href="#DejaVuSans-72" x="714.539062"/>
     <use xlink:href="#DejaVuSans-61" x="755.652344"/>
     <use xlink:href="#DejaVuSans-74" x="816.931641"/>
     <use xlink:href="#DejaVuSans-69" x="856.140625"/>
     <use xlink:href="#DejaVuSans-6f" x="883.923828"/>
     <use xlink:href="#DejaVuSans-6e" x="945.105469"/>
     <use xlink:href="#DejaVuSans-20" x="1008.484375"/>
     <use xlink:href="#DejaVuSans-6f" x="1040.271484"/>
     <use xlink:href="#DejaVuSans-6e" x="1101.453125"/>
     <use xlink:href="#DejaVuSans-20" x="1164.832031"/>
     <use xlink:href="#DejaVuSans-54" x="1196.619141"/>
     <use xlink:href="#DejaVuSans-4c" x="1257.703125"/>
     <use xlink:href="#DejaVuSans-53" x="1313.416016"/>
     <use xlink:href="#DejaVuSans-20" x="1376.892578"/>
     <use xlink:href="#DejaVuSans-77" x="1408.679688"/>
     <use xlink:href="#DejaVuSans-69" x="1490.466797"/>
     <use xlink:href="#DejaVuSans-74" x="1518.25"/>
     <use xlink:href="#DejaVuSans-68" x="1557.458984"/>
     <use xlink:href="#DejaVuSans-20" x="1620.837891"/>
     <use xlink:href="#DejaVuSans-6d" x="1652.625"/>
     <use xlink:href="#DejaVuSans-6c" x="1750.037109"/>
     <use xlink:href="#DejaVuSans-64" x="1777.820312"/>
     <use xlink:href="#DejaVuSans-73" x="1841.296875"/>
     <use xlink:href="#DejaVuSans-61" x="1893.396484"/>
     <use xlink:href="#DejaVuSans-38" x="1954.675781"/>
     <use xlink:href="#DejaVuSans-37" x="2018.298828"/>
     <use xlink:href="#DejaVuSans-20" x="2081.921875"/>
     <use xlink:href="#DejaVuSans-73" x="2113.708984"/>
     <use xlink:href="#DejaVuSans-69" x="2165.808594"/>
     <use xlink:href="#DejaVuSans-67" x="2193.591797"/>
     <use xlink:href="#DejaVuSans-6e" x="2257.068359"/>
     <use xlink:href="#DejaVuSans-61" x="2320.447266"/>
     <use xlink:href="#DejaVuSans-74" x="2381.726562"/>
     <use xlink:href="#DejaVuSans-75" x="2420.935547"/>
     <use xlink:href="#DejaVuSans-72" x="2484.314453"/>
     <use xlink:href="#DejaVuSans-65" x="2523.177734"/>
     <use xlink:href="#DejaVuSans-20" x="2584.701172"/>
     <use xlink:href="#DejaVuSans-61" x="2616.488281"/>
     <use xlink:href="#DejaVuSans-6c" x="2677.767578"/>
     <use xlink:href="#DejaVuSans-67" x="2705.550781"/>
     <use xlink:href="#DejaVuSans-6f" x="2769.027344"/>
     <use xlink:href="#DejaVuSans-72" x="2830.208984"/>
     <use xlink:href="#DejaVuSans-69" x="2871.322266"/>
     <use xlink:href="#DejaVuSans-74" x="2899.105469"/>
     <use xlink:href="#DejaVuSans-68" x="2938.314453"/>
     <use xlink:href="#DejaVuSans-6d" x="3001.693359"/>
     <use xlink:href="#DejaVuSans-20" x="3099.105469"/>
     <use xlink:href="#DejaVuSans-2014" x="3130.892578"/>
     <use xlink:href="#DejaVuSans-20" x="3230.892578"/>
     <use xlink:href="#DejaVuSans-69" x="3262.679688"/>
     <use xlink:href="#DejaVuSans-64" x="3290.462891"/>
     <use xlink:href="#DejaVuSans-65" x="3353.939453"/>
     <use xlink:href="#DejaVuSans-61" x="3415.462891"/>
     <use xlink:href="#DejaVuSans-6c" x="3476.742188"/>
     <use xlink:href="#DejaVuSans-20" x="3504.525391"/>
     <use xlink:href="#DejaVuSans-63" x="3536.3125"/>
     <use xlink:href="#DejaVuSans-6f" x="3591.292969"/>
     <use xlink:href="#DejaVuSans-6e" x="3652.474609"/>
     <use xlink:href="#DejaVuSans-64" x="3715.853516"/>
     <use xlink:href="#DejaVuSans-69" x="3779.330078"/>
     <use xlink:href="#DejaVuSans-74" x="3807.113281"/>
     <use xlink:href="#DejaVuSans-69" x="3846.322266"/>
     <use xlink:href="#DejaVuSans-6f" x="3874.105469"/>
     <use xlink:href="#DejaVuSans-6e" x="3935.287109"/>
     <use xlink:href="#DejaVuSans-73" x="3998.666016"/>
    </g>
   </g>
  </g>
 </g>
 <defs>
  <clipPath id="p0a81fa1538">
   <rect x="58.32" y="27.6" width="792.72" height="349.637044"/>
  </clipPath>
 </defs>
</svg>
