<?xml version="1.0" encoding="utf-8" standalone="no"?>
<!DOCTYPE svg PUBLIC "-//W3C//DTD SVG 1.1//EN"
  "http://www.w3.org/Graphics/SVG/1.1/DTD/svg11.dtd">
<svg xmlns:xlink="http://www.w3.org/1999/xlink" width="864pt" height="432pt" viewBox="0 0 864 432" xmlns="http://www.w3.org/2000/svg" version="1.1">
 <metadata>
  <rdf:RDF xmlns:dc="http://purl.org/dc/elements/1.1/" xmlns:cc="http://creativecommons.org/ns#" xmlns:rdf="http://www.w3.org/1999/02/22-rdf-syntax-ns#">
   <cc:Work>
    <dc:type rdf:resource="http://purl.org/dc/dcmitype/StillImage"/>
    <dc:date>2026-03-21T14:06:23.431747</dc:date>
    <dc:format>image/svg+xml</dc:format>
    <dc:creator>
     <cc:Agent>
      <dc:title>Matplotlib v3.6.3, https://matplotlib.org/</dc:title>
     </cc:Agent>
    </dc:creator>
   </cc:Work>
  </rdf:RDF>
 </metadata>
 <defs>
  <style type="text/css">*{stroke-linejoin: round; stroke-linecap: butt}</style>
 </defs>
 <g id="figure_1">
  <g id="patch_1">
   <path d="M 0 432 
L 864 432 
L 864 0 
L 0 0 
z
" style="fill: #ffffff"/>
  </g>
  <g id="axes_1">
   <g id="patch_2">
    <path d="M 58.32 373.416875 
L 851.04 373.416875 
L 851.04 27.6 
L 58.32 27.6 
z
" style="fill: #ffffff"/>
   </g>
   <g id="matplotlib.axis_1">
    <g id="xtick_1">
     <g id="text_1">
      <!-- P-256 -->
      <g style="fill: #262626" transform="translate(103.911421 400.575919) rotate(-15) scale(0.12 -0.12)">
       <defs>
        <path id="DejaVuSans-50" d="M 1259 4147 
L 1259 2394 
L 2053 2394 
Q 2494 2394 2734 2622 
Q 2975 2850 2975 3272 
Q 2975 3691 2734 3919 
Q 2494 4147 2053 4147 
L 1259 4147 
z
M 628 4666 
L 2053 4666 
Q 2838 4666 3239 4311 
Q 3641 3956 3641 3272 
Q 3641 2581 3239 2228 
Q 2838 1875 2053 1875 
L 1259 1875 
L 1259 0 
L 628 0 
L 628 4666 
z
" transform="scale(0.015625)"/>
        <path id="DejaVuSans-2d" d="M 313 2009 
L 1997 2009 
L 1997 1497 
L 313 1497 
L 313 2009 
z
" transform="scale(0.015625)"/>
        <path id="DejaVuSans-32" d="M 1228 531 
L 3431 531 
L 3431 0 
L 469 0 
L 469 531 
Q 828 903 1448 1529 
Q 2069 2156 2228 2338 
Q 2531 2678 2651 2914 
Q 2772 3150 2772 3378 
Q 2772 3750 2511 3984 
Q 2250 4219 1831 4219 
Q 1534 4219 1204 4116 
Q 875 4013 500 3803 
L 500 4441 
Q 881 4594 1212 4672 
Q 1544 4750 1819 4750 
Q 2544 4750 2975 4387 
Q 3406 4025 3406 3419 
Q 3406 3131 3298 2873 
Q 3191 2616 2906 2266 
Q 2828 2175 2409 1742 
Q 1991 1309 1228 531 
z
" transform="scale(0.015625)"/>
        <path id="DejaVuSans-35" d="M 691 4666 
L 3169 4666 
L 3169 4134 
L 1269 4134 
L 1269 2991 
Q 1406 3038 1543 3061 
Q 1681 3084 1819 3084 
Q 2600 3084 3056 2656 
Q 3513 2228 3513 1497 
Q 3513 744 3044 326 
Q 2575 -91 1722 -91 
Q 1428 -91 1123 -41 
Q 819 9 494 109 
L 494 744 
Q 775 591 1075 516 
Q 1375 441 1709 441 
Q 2250 441 2565 725 
Q 2881 1009 2881 1497 
Q 2881 1984 2565 2268 
Q 2250 2553 1709 2553 
Q 1456 2553 1204 2497 
Q 953 2441 691 2322 
L 691 4666 
z
" transform="scale(0.015625)"/>
        <path id="DejaVuSans-36" d="M 2113 2584 
Q 1688 2584 1439 2293 
Q 1191 2003 1191 1497 
Q 1191 994 1439 701 
Q 1688 409 2113 409 
Q 2538 409 2786 701 
Q 3034 994 3034 1497 
Q 3034 2003 2786 2293 
Q 2538 2584 2113 2584 
z
M 3366 4563 
L 3366 3988 
Q 3128 4100 2886 4159 
Q 2644 4219 2406 4219 
Q 1781 4219 1451 3797 
Q 1122 3375 1075 2522 
Q 1259 2794 1537 2939 
Q 1816 3084 2150 3084 
Q 2853 3084 3261 2657 
Q 3669 2231 3669 1497 
Q 3669 778 3244 343 
Q 2819 -91 2113 -91 
Q 1303 -91 875 529 
Q 447 1150 447 2328 
Q 447 3434 972 4092 
Q 1497 4750 2381 4750 
Q 2619 4750 2861 4703 
Q 3103 4656 3366 4563 
z
" transform="scale(0.015625)"/>
       </defs>
       <use xlink:href="#DejaVuSans-50"/>
       <use xlink:href="#DejaVuSans-2d" x="58.052734"/>
       <use xlink:href="#DejaVuSans-32" x="94.136719"/>
       <use xlink:href="#DejaVuSans-35" x="157.759766"/>
       <use xlink:href="#DejaVuSans-36" x="221.382812"/>
      </g>
     </g>
    </g>
    <g id="xtick_2">
     <g id="text_2">
      <!-- x25519 -->
      <g style="fill: #262626" transform="translate(251.755378 403.442987) rotate(-15) scale(0.12 -0.12)">
       <defs>
        <path id="DejaVuSans-78" d="M 3513 3500 
L 2247 1797 
L 3578 0 
L 2900 0 
L 1881 1375 
L 863 0 
L 184 0 
L 1544 1831 
L 300 3500 
L 978 3500 
L 1906 2253 
L 2834 3500 
L 3513 3500 
z
" transform="scale(0.015625)"/>
        <path id="DejaVuSans-31" d="M 794 531 
L 1825 531 
L 1825 4091 
L 703 3866 
L 703 4441 
L 1819 4666 
L 2450 4666 
L 2450 531 
L 3481 531 
L 3481 0 
L 794 0 
L 794 531 
z
" transform="scale(0.015625)"/>
        <path id="DejaVuSans-39" d="M 703 97 
L 703 672 
Q 941 559 1184 500 
Q 1428 441 1663 441 
Q 2288 441 2617 861 
Q 2947 1281 2994 2138 
Q 2813 1869 2534 1725 
Q 2256 1581 1919 1581 
Q 1219 1581 811 2004 
Q 403 2428 403 3163 
Q 403 3881 828 4315 
Q 1253 4750 1959 4750 
Q 2769 4750 3195 4129 
Q 3622 3509 3622 2328 
Q 3622 1225 3098 567 
Q 2575 -91 1691 -91 
Q 1453 -91 1209 -44 
Q 966 3 703 97 
z
M 1959 2075 
Q 2384 2075 2632 2365 
Q 2881 2656 2881 3163 
Q 2881 3666 2632 3958 
Q 2384 4250 1959 4250 
Q 1534 4250 1286 3958 
Q 1038 3666 1038 3163 
Q 1038 2656 1286 2365 
Q 1534 2075 1959 2075 
z
" transform="scale(0.015625)"/>
       </defs>
       <use xlink:href="#DejaVuSans-78"/>
       <use xlink:href="#DejaVuSans-32" x="59.179688"/>
       <use xlink:href="#DejaVuSans-35" x="122.802734"/>
       <use xlink:href="#DejaVuSans-35" x="186.425781"/>
       <use xlink:href="#DejaVuSans-31" x="250.048828"/>
       <use xlink:href="#DejaVuSans-39" x="313.671875"/>
      </g>
     </g>
    </g>
    <g id="xtick_3">
     <g id="text_3">
      <!-- hqc128 -->
      <g style="fill: #262626" transform="translate(410.831845 403.300313) rotate(-15) scale(0.12 -0.12)">
       <defs>
        <path id="DejaVuSans-68" d="M 3513 2113 
L 3513 0 
L 2938 0 
L 2938 2094 
Q 2938 2591 2744 2837 
Q 2550 3084 2163 3084 
Q 1697 3084 1428 2787 
Q 1159 2491 1159 1978 
L 1159 0 
L 581 0 
L 581 4863 
L 1159 4863 
L 1159 2956 
Q 1366 3272 1645 3428 
Q 1925 3584 2291 3584 
Q 2894 3584 3203 3211 
Q 3513 2838 3513 2113 
z
" transform="scale(0.015625)"/>
        <path id="DejaVuSans-71" d="M 947 1747 
Q 947 1113 1208 752 
Q 1469 391 1925 391 
Q 2381 391 2643 752 
Q 2906 1113 2906 1747 
Q 2906 2381 2643 2742 
Q 2381 3103 1925 3103 
Q 1469 3103 1208 2742 
Q 947 2381 947 1747 
z
M 2906 525 
Q 2725 213 2448 61 
Q 2172 -91 1784 -91 
Q 1150 -91 751 415 
Q 353 922 353 1747 
Q 353 2572 751 3078 
Q 1150 3584 1784 3584 
Q 2172 3584 2448 3432 
Q 2725 3281 2906 2969 
L 2906 3500 
L 3481 3500 
L 3481 -1331 
L 2906 -1331 
L 2906 525 
z
" transform="scale(0.015625)"/>
        <path id="DejaVuSans-63" d="M 3122 3366 
L 3122 2828 
Q 2878 2963 2633 3030 
Q 2388 3097 2138 3097 
Q 1578 3097 1268 2742 
Q 959 2388 959 1747 
Q 959 1106 1268 751 
Q 1578 397 2138 397 
Q 2388 397 2633 464 
Q 2878 531 3122 666 
L 3122 134 
Q 2881 22 2623 -34 
Q 2366 -91 2075 -91 
Q 1284 -91 818 406 
Q 353 903 353 1747 
Q 353 2603 823 3093 
Q 1294 3584 2113 3584 
Q 2378 3584 2631 3529 
Q 2884 3475 3122 3366 
z
" transform="scale(0.015625)"/>
        <path id="DejaVuSans-38" d="M 2034 2216 
Q 1584 2216 1326 1975 
Q 1069 1734 1069 1313 
Q 1069 891 1326 650 
Q 1584 409 2034 409 
Q 2484 409 2743 651 
Q 3003 894 3003 1313 
Q 3003 1734 2745 1975 
Q 2488 2216 2034 2216 
z
M 1403 2484 
Q 997 2584 770 2862 
Q 544 3141 544 3541 
Q 544 4100 942 4425 
Q 1341 4750 2034 4750 
Q 2731 4750 3128 4425 
Q 3525 4100 3525 3541 
Q 3525 3141 3298 2862 
Q 3072 2584 2669 2484 
Q 3125 2378 3379 2068 
Q 3634 1759 3634 1313 
Q 3634 634 3220 271 
Q 2806 -91 2034 -91 
Q 1263 -91 848 271 
Q 434 634 434 1313 
Q 434 1759 690 2068 
Q 947 2378 1403 2484 
z
M 1172 3481 
Q 1172 3119 1398 2916 
Q 1625 2713 2034 2713 
Q 2441 2713 2670 2916 
Q 2900 3119 2900 3481 
Q 2900 3844 2670 4047 
Q 2441 4250 2034 4250 
Q 1625 4250 1398 4047 
Q 1172 3844 1172 3481 
z
" transform="scale(0.015625)"/>
       </defs>
       <use xlink:href="#DejaVuSans-68"/>
       <use xlink:href="#DejaVuSans-71" x="63.378906"/>
       <use xlink:href="#DejaVuSans-63" x="126.855469"/>
       <use xlink:href="#DejaVuSans-31" x="181.835938"/>
       <use xlink:href="#DejaVuSans-32" x="245.458984"/>
       <use xlink:href="#DejaVuSans-38" x="309.082031"/>
      </g>
     </g>
    </g>
    <g id="xtick_4">
     <g id="text_4">
      <!-- p256_hqc128 -->
      <g style="fill: #262626" transform="translate(534.010834 412.753193) rotate(-15) scale(0.12 -0.12)">
       <defs>
        <path id="DejaVuSans-70" d="M 1159 525 
L 1159 -1331 
L 581 -1331 
L 581 3500 
L 1159 3500 
L 1159 2969 
Q 1341 3281 1617 3432 
Q 1894 3584 2278 3584 
Q 2916 3584 3314 3078 
Q 3713 2572 3713 1747 
Q 3713 922 3314 415 
Q 2916 -91 2278 -91 
Q 1894 -91 1617 61 
Q 1341 213 1159 525 
z
M 3116 1747 
Q 3116 2381 2855 2742 
Q 2594 3103 2138 3103 
Q 1681 3103 1420 2742 
Q 1159 2381 1159 1747 
Q 1159 1113 1420 752 
Q 1681 391 2138 391 
Q 2594 391 2855 752 
Q 3116 1113 3116 1747 
z
" transform="scale(0.015625)"/>
        <path id="DejaVuSans-5f" d="M 3263 -1063 
L 3263 -1509 
L -63 -1509 
L -63 -1063 
L 3263 -1063 
z
" transform="scale(0.015625)"/>
       </defs>
       <use xlink:href="#DejaVuSans-70"/>
       <use xlink:href="#DejaVuSans-32" x="63.476562"/>
       <use xlink:href="#DejaVuSans-35" x="127.099609"/>
       <use xlink:href="#DejaVuSans-36" x="190.722656"/>
       <use xlink:href="#DejaVuSans-5f" x="254.345703"/>
       <use xlink:href="#DejaVuSans-68" x="304.345703"/>
       <use xlink:href="#DejaVuSans-71" x="367.724609"/>
       <use xlink:href="#DejaVuSans-63" x="431.201172"/>
       <use xlink:href="#DejaVuSans-31" x="486.181641"/>
       <use xlink:href="#DejaVuSans-32" x="549.804688"/>
       <use xlink:href="#DejaVuSans-38" x="613.427734"/>
      </g>
     </g>
    </g>
    <g id="xtick_5">
     <g id="text_5">
      <!-- x25519_hqc128 -->
      <g style="fill: #262626" transform="translate(678.303202 416.571906) rotate(-15) scale(0.12 -0.12)">
       <use xlink:href="#DejaVuSans-78"/>
       <use xlink:href="#DejaVuSans-32" x="59.179688"/>
       <use xlink:href="#DejaVuSans-35" x="122.802734"/>
       <use xlink:href="#DejaVuSans-35" x="186.425781"/>
       <use xlink:href="#DejaVuSans-31" x="250.048828"/>
       <use xlink:href="#DejaVuSans-39" x="313.671875"/>
       <use xlink:href="#DejaVuSans-5f" x="377.294922"/>
       <use xlink:href="#DejaVuSans-68" x="427.294922"/>
       <use xlink:href="#DejaVuSans-71" x="490.673828"/>
       <use xlink:href="#DejaVuSans-63" x="554.150391"/>
       <use xlink:href="#DejaVuSans-31" x="609.130859"/>
       <use xlink:href="#DejaVuSans-32" x="672.753906"/>
       <use xlink:href="#DejaVuSans-38" x="736.376953"/>
      </g>
     </g>
    </g>
   </g>
   <g id="matplotlib.axis_2">
    <g id="ytick_1">
     <g id="line2d_1">
      <path d="M 58.32 364.67138 
L 851.04 364.67138 
" clip-path="url(#p4203deb8e8)" style="fill: none; stroke: #cccccc; stroke-linecap: round"/>
     </g>
     <g id="text_6">
      <!-- 800 -->
      <g style="fill: #262626" transform="translate(27.82375 368.85052) scale(0.11 -0.11)">
       <defs>
        <path id="DejaVuSans-30" d="M 2034 4250 
Q 1547 4250 1301 3770 
Q 1056 3291 1056 2328 
Q 1056 1369 1301 889 
Q 1547 409 2034 409 
Q 2525 409 2770 889 
Q 3016 1369 3016 2328 
Q 3016 3291 2770 3770 
Q 2525 4250 2034 4250 
z
M 2034 4750 
Q 2819 4750 3233 4129 
Q 3647 3509 3647 2328 
Q 3647 1150 3233 529 
Q 2819 -91 2034 -91 
Q 1250 -91 836 529 
Q 422 1150 422 2328 
Q 422 3509 836 4129 
Q 1250 4750 2034 4750 
z
" transform="scale(0.015625)"/>
       </defs>
       <use xlink:href="#DejaVuSans-38"/>
       <use xlink:href="#DejaVuSans-30" x="63.623047"/>
       <use xlink:href="#DejaVuSans-30" x="127.246094"/>
      </g>
     </g>
    </g>
    <g id="ytick_2">
     <g id="line2d_2">
      <path d="M 58.32 316.906948 
L 851.04 316.906948 
" clip-path="url(#p4203deb8e8)" style="fill: none; stroke: #cccccc; stroke-linecap: round"/>
     </g>
     <g id="text_7">
      <!-- 810 -->
      <g style="fill: #262626" transform="translate(27.82375 321.086088) scale(0.11 -0.11)">
       <use xlink:href="#DejaVuSans-38"/>
       <use xlink:href="#DejaVuSans-31" x="63.623047"/>
       <use xlink:href="#DejaVuSans-30" x="127.246094"/>
      </g>
     </g>
    </g>
    <g id="ytick_3">
     <g id="line2d_3">
      <path d="M 58.32 269.142515 
L 851.04 269.142515 
" clip-path="url(#p4203deb8e8)" style="fill: none; stroke: #cccccc; stroke-linecap: round"/>
     </g>
     <g id="text_8">
      <!-- 820 -->
      <g style="fill: #262626" transform="translate(27.82375 273.321656) scale(0.11 -0.11)">
       <use xlink:href="#DejaVuSans-38"/>
       <use xlink:href="#DejaVuSans-32" x="63.623047"/>
       <use xlink:href="#DejaVuSans-30" x="127.246094"/>
      </g>
     </g>
    </g>
    <g id="ytick_4">
     <g id="line2d_4">
      <path d="M 58.32 221.378083 
L 851.04 221.378083 
" clip-path="url(#p4203deb8e8)" style="fill: none; stroke: #cccccc; stroke-linecap: round"/>
     </g>
     <g id="text_9">
      <!-- 830 -->
      <g style="fill: #262626" transform="translate(27.82375 225.557224) scale(0.11 -0.11)">
       <defs>
        <path id="DejaVuSans-33" d="M 2597 2516 
Q 3050 2419 3304 2112 
Q 3559 1806 3559 1356 
Q 3559 666 3084 287 
Q 2609 -91 1734 -91 
Q 1441 -91 1130 -33 
Q 819 25 488 141 
L 488 750 
Q 750 597 1062 519 
Q 1375 441 1716 441 
Q 2309 441 2620 675 
Q 2931 909 2931 1356 
Q 2931 1769 2642 2001 
Q 2353 2234 1838 2234 
L 1294 2234 
L 1294 2753 
L 1863 2753 
Q 2328 2753 2575 2939 
Q 2822 3125 2822 3475 
Q 2822 3834 2567 4026 
Q 2313 4219 1838 4219 
Q 1578 4219 1281 4162 
Q 984 4106 628 3988 
L 628 4550 
Q 988 4650 1302 4700 
Q 1616 4750 1894 4750 
Q 2613 4750 3031 4423 
Q 3450 4097 3450 3541 
Q 3450 3153 3228 2886 
Q 3006 2619 2597 2516 
z
" transform="scale(0.015625)"/>
       </defs>
       <use xlink:href="#DejaVuSans-38"/>
       <use xlink:href="#DejaVuSans-33" x="63.623047"/>
       <use xlink:href="#DejaVuSans-30" x="127.246094"/>
      </g>
     </g>
    </g>
    <g id="ytick_5">
     <g id="line2d_5">
      <path d="M 58.32 173.613651 
L 851.04 173.613651 
" clip-path="url(#p4203deb8e8)" style="fill: none; stroke: #cccccc; stroke-linecap: round"/>
     </g>
     <g id="text_10">
      <!-- 840 -->
      <g style="fill: #262626" transform="translate(27.82375 177.792791) scale(0.11 -0.11)">
       <defs>
        <path id="DejaVuSans-34" d="M 2419 4116 
L 825 1625 
L 2419 1625 
L 2419 4116 
z
M 2253 4666 
L 3047 4666 
L 3047 1625 
L 3713 1625 
L 3713 1100 
L 3047 1100 
L 3047 0 
L 2419 0 
L 2419 1100 
L 313 1100 
L 313 1709 
L 2253 4666 
z
" transform="scale(0.015625)"/>
       </defs>
       <use xlink:href="#DejaVuSans-38"/>
       <use xlink:href="#DejaVuSans-34" x="63.623047"/>
       <use xlink:href="#DejaVuSans-30" x="127.246094"/>
      </g>
     </g>
    </g>
    <g id="ytick_6">
     <g id="line2d_6">
      <path d="M 58.32 125.849218 
L 851.04 125.849218 
" clip-path="url(#p4203deb8e8)" style="fill: none; stroke: #cccccc; stroke-linecap: round"/>
     </g>
     <g id="text_11">
      <!-- 850 -->
      <g style="fill: #262626" transform="translate(27.82375 130.028359) scale(0.11 -0.11)">
       <use xlink:href="#DejaVuSans-38"/>
       <use xlink:href="#DejaVuSans-35" x="63.623047"/>
       <use xlink:href="#DejaVuSans-30" x="127.246094"/>
      </g>
     </g>
    </g>
    <g id="ytick_7">
     <g id="line2d_7">
      <path d="M 58.32 78.084786 
L 851.04 78.084786 
" clip-path="url(#p4203deb8e8)" style="fill: none; stroke: #cccccc; stroke-linecap: round"/>
     </g>
     <g id="text_12">
      <!-- 860 -->
      <g style="fill: #262626" transform="translate(27.82375 82.263927) scale(0.11 -0.11)">
       <use xlink:href="#DejaVuSans-38"/>
       <use xlink:href="#DejaVuSans-36" x="63.623047"/>
       <use xlink:href="#DejaVuSans-30" x="127.246094"/>
      </g>
     </g>
    </g>
    <g id="ytick_8">
     <g id="line2d_8">
      <path d="M 58.32 30.320354 
L 851.04 30.320354 
" clip-path="url(#p4203deb8e8)" style="fill: none; stroke: #cccccc; stroke-linecap: round"/>
     </g>
     <g id="text_13">
      <!-- 870 -->
      <g style="fill: #262626" transform="translate(27.82375 34.499494) scale(0.11 -0.11)">
       <defs>
        <path id="DejaVuSans-37" d="M 525 4666 
L 3525 4666 
L 3525 4397 
L 1831 0 
L 1172 0 
L 2766 4134 
L 525 4134 
L 525 4666 
z
" transform="scale(0.015625)"/>
       </defs>
       <use xlink:href="#DejaVuSans-38"/>
       <use xlink:href="#DejaVuSans-37" x="63.623047"/>
       <use xlink:href="#DejaVuSans-30" x="127.246094"/>
      </g>
     </g>
    </g>
    <g id="text_14">
     <!-- Handshake duration (ms) -->
     <g style="fill: #262626" transform="translate(21.328125 276.57625) rotate(-90) scale(0.12 -0.12)">
      <defs>
       <path id="DejaVuSans-48" d="M 628 4666 
L 1259 4666 
L 1259 2753 
L 3553 2753 
L 3553 4666 
L 4184 4666 
L 4184 0 
L 3553 0 
L 3553 2222 
L 1259 2222 
L 1259 0 
L 628 0 
L 628 4666 
z
" transform="scale(0.015625)"/>
       <path id="DejaVuSans-61" d="M 2194 1759 
Q 1497 1759 1228 1600 
Q 959 1441 959 1056 
Q 959 750 1161 570 
Q 1363 391 1709 391 
Q 2188 391 2477 730 
Q 2766 1069 2766 1631 
L 2766 1759 
L 2194 1759 
z
M 3341 1997 
L 3341 0 
L 2766 0 
L 2766 531 
Q 2569 213 2275 61 
Q 1981 -91 1556 -91 
Q 1019 -91 701 211 
Q 384 513 384 1019 
Q 384 1609 779 1909 
Q 1175 2209 1959 2209 
L 2766 2209 
L 2766 2266 
Q 2766 2663 2505 2880 
Q 2244 3097 1772 3097 
Q 1472 3097 1187 3025 
Q 903 2953 641 2809 
L 641 3341 
Q 956 3463 1253 3523 
Q 1550 3584 1831 3584 
Q 2591 3584 2966 3190 
Q 3341 2797 3341 1997 
z
" transform="scale(0.015625)"/>
       <path id="DejaVuSans-6e" d="M 3513 2113 
L 3513 0 
L 2938 0 
L 2938 2094 
Q 2938 2591 2744 2837 
Q 2550 3084 2163 3084 
Q 1697 3084 1428 2787 
Q 1159 2491 1159 1978 
L 1159 0 
L 581 0 
L 581 3500 
L 1159 3500 
L 1159 2956 
Q 1366 3272 1645 3428 
Q 1925 3584 2291 3584 
Q 2894 3584 3203 3211 
Q 3513 2838 3513 2113 
z
" transform="scale(0.015625)"/>
       <path id="DejaVuSans-64" d="M 2906 2969 
L 2906 4863 
L 3481 4863 
L 3481 0 
L 2906 0 
L 2906 525 
Q 2725 213 2448 61 
Q 2172 -91 1784 -91 
Q 1150 -91 751 415 
Q 353 922 353 1747 
Q 353 2572 751 3078 
Q 1150 3584 1784 3584 
Q 2172 3584 2448 3432 
Q 2725 3281 2906 2969 
z
M 947 1747 
Q 947 1113 1208 752 
Q 1469 391 1925 391 
Q 2381 391 2643 752 
Q 2906 1113 2906 1747 
Q 2906 2381 2643 2742 
Q 2381 3103 1925 3103 
Q 1469 3103 1208 2742 
Q 947 2381 947 1747 
z
" transform="scale(0.015625)"/>
       <path id="DejaVuSans-73" d="M 2834 3397 
L 2834 2853 
Q 2591 2978 2328 3040 
Q 2066 3103 1784 3103 
Q 1356 3103 1142 2972 
Q 928 2841 928 2578 
Q 928 2378 1081 2264 
Q 1234 2150 1697 2047 
L 1894 2003 
Q 2506 1872 2764 1633 
Q 3022 1394 3022 966 
Q 3022 478 2636 193 
Q 2250 -91 1575 -91 
Q 1294 -91 989 -36 
Q 684 19 347 128 
L 347 722 
Q 666 556 975 473 
Q 1284 391 1588 391 
Q 1994 391 2212 530 
Q 2431 669 2431 922 
Q 2431 1156 2273 1281 
Q 2116 1406 1581 1522 
L 1381 1569 
Q 847 1681 609 1914 
Q 372 2147 372 2553 
Q 372 3047 722 3315 
Q 1072 3584 1716 3584 
Q 2034 3584 2315 3537 
Q 2597 3491 2834 3397 
z
" transform="scale(0.015625)"/>
       <path id="DejaVuSans-6b" d="M 581 4863 
L 1159 4863 
L 1159 1991 
L 2875 3500 
L 3609 3500 
L 1753 1863 
L 3688 0 
L 2938 0 
L 1159 1709 
L 1159 0 
L 581 0 
L 581 4863 
z
" transform="scale(0.015625)"/>
       <path id="DejaVuSans-65" d="M 3597 1894 
L 3597 1613 
L 953 1613 
Q 991 1019 1311 708 
Q 1631 397 2203 397 
Q 2534 397 2845 478 
Q 3156 559 3463 722 
L 3463 178 
Q 3153 47 2828 -22 
Q 2503 -91 2169 -91 
Q 1331 -91 842 396 
Q 353 884 353 1716 
Q 353 2575 817 3079 
Q 1281 3584 2069 3584 
Q 2775 3584 3186 3129 
Q 3597 2675 3597 1894 
z
M 3022 2063 
Q 3016 2534 2758 2815 
Q 2500 3097 2075 3097 
Q 1594 3097 1305 2825 
Q 1016 2553 972 2059 
L 3022 2063 
z
" transform="scale(0.015625)"/>
       <path id="DejaVuSans-20" transform="scale(0.015625)"/>
       <path id="DejaVuSans-75" d="M 544 1381 
L 544 3500 
L 1119 3500 
L 1119 1403 
Q 1119 906 1312 657 
Q 1506 409 1894 409 
Q 2359 409 2629 706 
Q 2900 1003 2900 1516 
L 2900 3500 
L 3475 3500 
L 3475 0 
L 2900 0 
L 2900 538 
Q 2691 219 2414 64 
Q 2138 -91 1772 -91 
Q 1169 -91 856 284 
Q 544 659 544 1381 
z
M 1991 3584 
L 1991 3584 
z
" transform="scale(0.015625)"/>
       <path id="DejaVuSans-72" d="M 2631 2963 
Q 2534 3019 2420 3045 
Q 2306 3072 2169 3072 
Q 1681 3072 1420 2755 
Q 1159 2438 1159 1844 
L 1159 0 
L 581 0 
L 581 3500 
L 1159 3500 
L 1159 2956 
Q 1341 3275 1631 3429 
Q 1922 3584 2338 3584 
Q 2397 3584 2469 3576 
Q 2541 3569 2628 3553 
L 2631 2963 
z
" transform="scale(0.015625)"/>
       <path id="DejaVuSans-74" d="M 1172 4494 
L 1172 3500 
L 2356 3500 
L 2356 3053 
L 1172 3053 
L 1172 1153 
Q 1172 725 1289 603 
Q 1406 481 1766 481 
L 2356 481 
L 2356 0 
L 1766 0 
Q 1100 0 847 248 
Q 594 497 594 1153 
L 594 3053 
L 172 3053 
L 172 3500 
L 594 3500 
L 594 4494 
L 1172 4494 
z
" transform="scale(0.015625)"/>
       <path id="DejaVuSans-69" d="M 603 3500 
L 1178 3500 
L 1178 0 
L 603 0 
L 603 3500 
z
M 603 4863 
L 1178 4863 
L 1178 4134 
L 603 4134 
L 603 4863 
z
" transform="scale(0.015625)"/>
       <path id="DejaVuSans-6f" d="M 1959 3097 
Q 1497 3097 1228 2736 
Q 959 2375 959 1747 
Q 959 1119 1226 758 
Q 1494 397 1959 397 
Q 2419 397 2687 759 
Q 2956 1122 2956 1747 
Q 2956 2369 2687 2733 
Q 2419 3097 1959 3097 
z
M 1959 3584 
Q 2709 3584 3137 3096 
Q 3566 2609 3566 1747 
Q 3566 888 3137 398 
Q 2709 -91 1959 -91 
Q 1206 -91 779 398 
Q 353 888 353 1747 
Q 353 2609 779 3096 
Q 1206 3584 1959 3584 
z
" transform="scale(0.015625)"/>
       <path id="DejaVuSans-28" d="M 1984 4856 
Q 1566 4138 1362 3434 
Q 1159 2731 1159 2009 
Q 1159 1288 1364 580 
Q 1569 -128 1984 -844 
L 1484 -844 
Q 1016 -109 783 600 
Q 550 1309 550 2009 
Q 550 2706 781 3412 
Q 1013 4119 1484 4856 
L 1984 4856 
z
" transform="scale(0.015625)"/>
       <path id="DejaVuSans-6d" d="M 3328 2828 
Q 3544 3216 3844 3400 
Q 4144 3584 4550 3584 
Q 5097 3584 5394 3201 
Q 5691 2819 5691 2113 
L 5691 0 
L 5113 0 
L 5113 2094 
Q 5113 2597 4934 2840 
Q 4756 3084 4391 3084 
Q 3944 3084 3684 2787 
Q 3425 2491 3425 1978 
L 3425 0 
L 2847 0 
L 2847 2094 
Q 2847 2600 2669 2842 
Q 2491 3084 2119 3084 
Q 1678 3084 1418 2786 
Q 1159 2488 1159 1978 
L 1159 0 
L 581 0 
L 581 3500 
L 1159 3500 
L 1159 2956 
Q 1356 3278 1631 3431 
Q 1906 3584 2284 3584 
Q 2666 3584 2933 3390 
Q 3200 3197 3328 2828 
z
" transform="scale(0.015625)"/>
       <path id="DejaVuSans-29" d="M 513 4856 
L 1013 4856 
Q 1481 4119 1714 3412 
Q 1947 2706 1947 2009 
Q 1947 1309 1714 600 
Q 1481 -109 1013 -844 
L 513 -844 
Q 928 -128 1133 580 
Q 1338 1288 1338 2009 
Q 1338 2731 1133 3434 
Q 928 4138 513 4856 
z
" transform="scale(0.015625)"/>
      </defs>
      <use xlink:href="#DejaVuSans-48"/>
      <use xlink:href="#DejaVuSans-61" x="75.195312"/>
      <use xlink:href="#DejaVuSans-6e" x="136.474609"/>
      <use xlink:href="#DejaVuSans-64" x="199.853516"/>
      <use xlink:href="#DejaVuSans-73" x="263.330078"/>
      <use xlink:href="#DejaVuSans-68" x="315.429688"/>
      <use xlink:href="#DejaVuSans-61" x="378.808594"/>
      <use xlink:href="#DejaVuSans-6b" x="440.087891"/>
      <use xlink:href="#DejaVuSans-65" x="494.373047"/>
      <use xlink:href="#DejaVuSans-20" x="555.896484"/>
      <use xlink:href="#DejaVuSans-64" x="587.683594"/>
      <use xlink:href="#DejaVuSans-75" x="651.160156"/>
      <use xlink:href="#DejaVuSans-72" x="714.539062"/>
      <use xlink:href="#DejaVuSans-61" x="755.652344"/>
      <use xlink:href="#DejaVuSans-74" x="816.931641"/>
      <use xlink:href="#DejaVuSans-69" x="856.140625"/>
      <use xlink:href="#DejaVuSans-6f" x="883.923828"/>
      <use xlink:href="#DejaVuSans-6e" x="945.105469"/>
      <use xlink:href="#DejaVuSans-20" x="1008.484375"/>
      <use xlink:href="#DejaVuSans-28" x="1040.271484"/>
      <use xlink:href="#DejaVuSans-6d" x="1079.285156"/>
      <use xlink:href="#DejaVuSans-73" x="1176.697266"/>
      <use xlink:href="#DejaVuSans-29" x="1228.796875"/>
     </g>
    </g>
   </g>
   <g id="PolyCollection_1">
    <defs>
     <path id="mf245768505" d="M 137.828229 -74.302074 
L 137.355771 -74.302074 
L 137.201004 -74.723755 
L 136.983606 -75.145436 
L 136.701808 -75.567117 
L 136.36672 -75.988798 
L 136.00457 -76.410479 
L 135.654445 -76.83216 
L 135.360836 -77.253841 
L 135.162558 -77.675522 
L 135.081595 -78.097203 
L 135.116054 -78.518884 
L 135.240029 -78.940565 
L 135.410366 -79.362246 
L 135.577595 -79.783927 
L 135.697058 -80.205608 
L 135.736969 -80.627289 
L 135.682113 -81.04897 
L 135.533684 -81.470651 
L 135.30652 -81.892332 
L 135.024636 -82.314013 
L 134.71532 -82.735694 
L 134.40199 -83.157375 
L 134.096614 -83.579056 
L 133.793444 -84.000737 
L 133.466197 -84.422418 
L 133.070247 -84.844099 
L 132.549942 -85.26578 
L 131.849297 -85.687461 
L 130.922979 -86.109142 
L 129.744286 -86.530823 
L 128.307928 -86.952504 
L 126.627309 -87.374185 
L 124.727676 -87.795866 
L 122.637152 -88.217547 
L 120.377323 -88.639228 
L 117.954588 -89.060909 
L 115.353838 -89.482591 
L 112.536911 -89.904272 
L 109.448722 -90.325953 
L 106.032395 -90.747634 
L 102.251637 -91.169315 
L 98.115313 -91.590996 
L 93.698035 -92.012677 
L 89.151885 -92.434358 
L 84.706761 -92.856039 
L 80.658191 -93.27772 
L 77.34119 -93.699401 
L 75.088551 -94.121082 
L 74.1744 -94.542763 
L 74.750052 -94.964444 
L 76.786886 -95.386125 
L 80.045726 -95.807806 
L 84.089764 -96.229487 
L 88.347476 -96.651168 
L 92.216498 -97.072849 
L 95.185146 -97.49453 
L 96.940937 -97.916211 
L 97.437803 -98.337892 
L 96.904212 -98.759573 
L 95.789313 -99.181254 
L 94.659039 -99.602935 
L 94.065989 -100.024616 
L 94.423858 -100.446297 
L 95.917609 -100.867978 
L 98.473044 -101.289659 
L 101.793943 -101.71134 
L 105.454973 -102.133021 
L 109.020887 -102.554702 
L 112.154769 -102.976383 
L 114.684007 -103.398064 
L 116.610089 -103.819745 
L 118.069043 -104.241426 
L 119.264565 -104.663107 
L 120.399883 -105.084788 
L 121.628078 -105.506469 
L 123.028895 -105.92815 
L 124.609503 -106.349831 
L 126.320778 -106.771512 
L 128.079997 -107.193193 
L 129.793135 -107.614874 
L 131.372996 -108.036555 
L 132.751763 -108.458236 
L 133.887881 -108.879917 
L 134.767921 -109.301598 
L 135.404337 -109.723279 
L 135.830198 -110.14496 
L 136.091993 -110.566641 
L 136.241649 -110.988322 
L 136.328909 -111.410003 
L 136.395143 -111.831684 
L 136.46938 -112.253365 
L 136.566964 -112.675046 
L 136.6907 -113.096727 
L 136.833942 -113.518408 
L 136.984734 -113.940089 
L 137.130003 -114.36177 
L 137.25891 -114.783451 
L 137.364795 -115.205132 
L 137.445576 -115.626813 
L 137.502949 -116.048495 
L 137.681051 -116.048495 
L 137.681051 -116.048495 
L 137.738424 -115.626813 
L 137.819205 -115.205132 
L 137.92509 -114.783451 
L 138.053997 -114.36177 
L 138.199266 -113.940089 
L 138.350058 -113.518408 
L 138.4933 -113.096727 
L 138.617036 -112.675046 
L 138.71462 -112.253365 
L 138.788857 -111.831684 
L 138.855091 -111.410003 
L 138.942351 -110.988322 
L 139.092007 -110.566641 
L 139.353802 -110.14496 
L 139.779663 -109.723279 
L 140.416079 -109.301598 
L 141.296119 -108.879917 
L 142.432237 -108.458236 
L 143.811004 -108.036555 
L 145.390865 -107.614874 
L 147.104003 -107.193193 
L 148.863222 -106.771512 
L 150.574497 -106.349831 
L 152.155105 -105.92815 
L 153.555922 -105.506469 
L 154.784117 -105.084788 
L 155.919435 -104.663107 
L 157.114957 -104.241426 
L 158.573911 -103.819745 
L 160.499993 -103.398064 
L 163.029231 -102.976383 
L 166.163113 -102.554702 
L 169.729027 -102.133021 
L 173.390057 -101.71134 
L 176.710956 -101.289659 
L 179.266391 -100.867978 
L 180.760142 -100.446297 
L 181.118011 -100.024616 
L 180.524961 -99.602935 
L 179.394687 -99.181254 
L 178.279788 -98.759573 
L 177.746197 -98.337892 
L 178.243063 -97.916211 
L 179.998854 -97.49453 
L 182.967502 -97.072849 
L 186.836524 -96.651168 
L 191.094236 -96.229487 
L 195.138274 -95.807806 
L 198.397114 -95.386125 
L 200.433948 -94.964444 
L 201.0096 -94.542763 
L 200.095449 -94.121082 
L 197.84281 -93.699401 
L 194.525809 -93.27772 
L 190.477239 -92.856039 
L 186.032115 -92.434358 
L 181.485965 -92.012677 
L 177.068687 -91.590996 
L 172.932363 -91.169315 
L 169.151605 -90.747634 
L 165.735278 -90.325953 
L 162.647089 -89.904272 
L 159.830162 -89.482591 
L 157.229412 -89.060909 
L 154.806677 -88.639228 
L 152.546848 -88.217547 
L 150.456324 -87.795866 
L 148.556691 -87.374185 
L 146.876072 -86.952504 
L 145.439714 -86.530823 
L 144.261021 -86.109142 
L 143.334703 -85.687461 
L 142.634058 -85.26578 
L 142.113753 -84.844099 
L 141.717803 -84.422418 
L 141.390556 -84.000737 
L 141.087386 -83.579056 
L 140.78201 -83.157375 
L 140.46868 -82.735694 
L 140.159364 -82.314013 
L 139.87748 -81.892332 
L 139.650316 -81.470651 
L 139.501887 -81.04897 
L 139.447031 -80.627289 
L 139.486942 -80.205608 
L 139.606405 -79.783927 
L 139.773634 -79.362246 
L 139.943971 -78.940565 
L 140.067946 -78.518884 
L 140.102405 -78.097203 
L 140.021442 -77.675522 
L 139.823164 -77.253841 
L 139.529555 -76.83216 
L 139.17943 -76.410479 
L 138.81728 -75.988798 
L 138.482192 -75.567117 
L 138.200394 -75.145436 
L 137.982996 -74.723755 
L 137.828229 -74.302074 
z
" style="stroke: #595959; stroke-width: 1.25"/>
    </defs>
    <g clip-path="url(#p4203deb8e8)">
     <use xlink:href="#mf245768505" x="0" y="432" style="fill: #72b6a1; stroke: #595959; stroke-width: 1.25"/>
    </g>
   </g>
   <g id="PolyCollection_2">
    <defs>
     <path id="m391a546eb9" d="M 296.287989 -80.8502 
L 295.984011 -80.8502 
L 295.88004 -81.2303 
L 295.728121 -81.6104 
L 295.519692 -81.990499 
L 295.250641 -82.370599 
L 294.92275 -82.750699 
L 294.54321 -83.130799 
L 294.121578 -83.510899 
L 293.664385 -83.890999 
L 293.16864 -84.271098 
L 292.616504 -84.651198 
L 291.973772 -85.031298 
L 291.194329 -85.411398 
L 290.231054 -85.791498 
L 289.051111 -86.171597 
L 287.651026 -86.551697 
L 286.065809 -86.931797 
L 284.367474 -87.311897 
L 282.651572 -87.691997 
L 281.014297 -88.072096 
L 279.525572 -88.452196 
L 278.20434 -88.832296 
L 277.001554 -89.212396 
L 275.795467 -89.592496 
L 274.403305 -89.972596 
L 272.612322 -90.352695 
L 270.229545 -90.732795 
L 267.142514 -91.112895 
L 263.375126 -91.492995 
L 259.118126 -91.873095 
L 254.7175 -92.253194 
L 250.616574 -92.633294 
L 247.264321 -93.013394 
L 245.015131 -93.393494 
L 244.047826 -93.773594 
L 244.323571 -94.153694 
L 245.588808 -94.533793 
L 247.417793 -94.913893 
L 249.283771 -95.293993 
L 250.647379 -95.674093 
L 251.051387 -96.054193 
L 250.209461 -96.434292 
L 248.073735 -96.814392 
L 244.865125 -97.194492 
L 241.054458 -97.574592 
L 237.2921 -97.954692 
L 234.295938 -98.334792 
L 232.7184 -98.714891 
L 233.019595 -99.094991 
L 235.374165 -99.475091 
L 239.633893 -99.855191 
L 245.356901 -100.235291 
L 251.89884 -100.61539 
L 258.545256 -100.99549 
L 264.652472 -101.37559 
L 269.761847 -101.75569 
L 273.66092 -102.13579 
L 276.381811 -102.515889 
L 278.145744 -102.895989 
L 279.276071 -103.276089 
L 280.106748 -103.656189 
L 280.90925 -104.036289 
L 281.851462 -104.416389 
L 282.991024 -104.796488 
L 284.296414 -105.176588 
L 285.683465 -105.556688 
L 287.053966 -105.936788 
L 288.325849 -106.316888 
L 289.449669 -106.696987 
L 290.411408 -107.077087 
L 291.225329 -107.457187 
L 291.921811 -107.837287 
L 292.534542 -108.217387 
L 293.090062 -108.597487 
L 293.601371 -108.977586 
L 294.066305 -109.357686 
L 294.470433 -109.737786 
L 294.793268 -110.117886 
L 295.015865 -110.497986 
L 295.127711 -110.878085 
L 295.131202 -111.258185 
L 295.042819 -111.638285 
L 294.890925 -112.018385 
L 294.710884 -112.398485 
L 294.538749 -112.778585 
L 294.405133 -113.158684 
L 294.330805 -113.538784 
L 294.324998 -113.918884 
L 294.386408 -114.298984 
L 294.506004 -114.679084 
L 294.670297 -115.059183 
L 294.864035 -115.439283 
L 295.071939 -115.819383 
L 295.279742 -116.199483 
L 295.475008 -116.579583 
L 295.648005 -116.959682 
L 295.792489 -117.339782 
L 295.9061 -117.719882 
L 295.990076 -118.099982 
L 296.048344 -118.480082 
L 296.223656 -118.480082 
L 296.223656 -118.480082 
L 296.281924 -118.099982 
L 296.3659 -117.719882 
L 296.479511 -117.339782 
L 296.623995 -116.959682 
L 296.796992 -116.579583 
L 296.992258 -116.199483 
L 297.200061 -115.819383 
L 297.407965 -115.439283 
L 297.601703 -115.059183 
L 297.765996 -114.679084 
L 297.885592 -114.298984 
L 297.947002 -113.918884 
L 297.941195 -113.538784 
L 297.866867 -113.158684 
L 297.733251 -112.778585 
L 297.561116 -112.398485 
L 297.381075 -112.018385 
L 297.229181 -111.638285 
L 297.140798 -111.258185 
L 297.144289 -110.878085 
L 297.256135 -110.497986 
L 297.478732 -110.117886 
L 297.801567 -109.737786 
L 298.205695 -109.357686 
L 298.670629 -108.977586 
L 299.181938 -108.597487 
L 299.737458 -108.217387 
L 300.350189 -107.837287 
L 301.046671 -107.457187 
L 301.860592 -107.077087 
L 302.822331 -106.696987 
L 303.946151 -106.316888 
L 305.218034 -105.936788 
L 306.588535 -105.556688 
L 307.975586 -105.176588 
L 309.280976 -104.796488 
L 310.420538 -104.416389 
L 311.36275 -104.036289 
L 312.165252 -103.656189 
L 312.995929 -103.276089 
L 314.126256 -102.895989 
L 315.890189 -102.515889 
L 318.61108 -102.13579 
L 322.510153 -101.75569 
L 327.619528 -101.37559 
L 333.726744 -100.99549 
L 340.37316 -100.61539 
L 346.915099 -100.235291 
L 352.638107 -99.855191 
L 356.897835 -99.475091 
L 359.252405 -99.094991 
L 359.5536 -98.714891 
L 357.976062 -98.334792 
L 354.9799 -97.954692 
L 351.217542 -97.574592 
L 347.406875 -97.194492 
L 344.198265 -96.814392 
L 342.062539 -96.434292 
L 341.220613 -96.054193 
L 341.624621 -95.674093 
L 342.988229 -95.293993 
L 344.854207 -94.913893 
L 346.683192 -94.533793 
L 347.948429 -94.153694 
L 348.224174 -93.773594 
L 347.256869 -93.393494 
L 345.007679 -93.013394 
L 341.655426 -92.633294 
L 337.5545 -92.253194 
L 333.153874 -91.873095 
L 328.896874 -91.492995 
L 325.129486 -91.112895 
L 322.042455 -90.732795 
L 319.659678 -90.352695 
L 317.868695 -89.972596 
L 316.476533 -89.592496 
L 315.270446 -89.212396 
L 314.06766 -88.832296 
L 312.746428 -88.452196 
L 311.257703 -88.072096 
L 309.620428 -87.691997 
L 307.904526 -87.311897 
L 306.206191 -86.931797 
L 304.620974 -86.551697 
L 303.220889 -86.171597 
L 302.040946 -85.791498 
L 301.077671 -85.411398 
L 300.298228 -85.031298 
L 299.655496 -84.651198 
L 299.10336 -84.271098 
L 298.607615 -83.890999 
L 298.150422 -83.510899 
L 297.72879 -83.130799 
L 297.34925 -82.750699 
L 297.021359 -82.370599 
L 296.752308 -81.990499 
L 296.543879 -81.6104 
L 296.39196 -81.2303 
L 296.287989 -80.8502 
z
" style="stroke: #595959; stroke-width: 1.25"/>
    </defs>
    <g clip-path="url(#p4203deb8e8)">
     <use xlink:href="#m391a546eb9" x="0" y="432" style="fill: #e99675; stroke: #595959; stroke-width: 1.25"/>
    </g>
   </g>
   <g id="PolyCollection_3">
    <defs>
     <path id="mbeea9388dd" d="M 454.856976 -146.113468 
L 454.503024 -146.113468 
L 454.402128 -148.038572 
L 454.261569 -149.963675 
L 454.074194 -151.888779 
L 453.83383 -153.813882 
L 453.534503 -155.738986 
L 453.168052 -157.664089 
L 452.719929 -159.589193 
L 452.163615 -161.514296 
L 451.454751 -163.4394 
L 450.526694 -165.364504 
L 449.289422 -167.289607 
L 447.633496 -169.214711 
L 445.440077 -171.139814 
L 442.596887 -173.064918 
L 439.01879 -174.990021 
L 434.670347 -176.915125 
L 429.586711 -178.840228 
L 423.88858 -180.765332 
L 417.787116 -182.690436 
L 411.575774 -184.615539 
L 405.608077 -186.540643 
L 400.263177 -188.465746 
L 395.903882 -190.39085 
L 392.833993 -192.315953 
L 391.2624 -194.241057 
L 391.280164 -196.16616 
L 392.854058 -198.091264 
L 395.836496 -200.016367 
L 399.988651 -201.941471 
L 405.011535 -203.866575 
L 410.5794 -205.791678 
L 416.370623 -207.716782 
L 422.092802 -209.641885 
L 427.500406 -211.566989 
L 432.404598 -213.492092 
L 436.675767 -215.417196 
L 440.239843 -217.342299 
L 443.06991 -219.267403 
L 445.174933 -221.192506 
L 446.58756 -223.11761 
L 447.352927 -225.042714 
L 447.520087 -226.967817 
L 447.137182 -228.892921 
L 446.250838 -230.818024 
L 444.909572 -232.743128 
L 443.170254 -234.668231 
L 441.106004 -236.593335 
L 438.813345 -238.518438 
L 436.416216 -240.443542 
L 434.064701 -242.368646 
L 431.927132 -244.293749 
L 430.17562 -246.218853 
L 428.966693 -248.143956 
L 428.420279 -250.06906 
L 428.601262 -251.994163 
L 429.507837 -253.919267 
L 431.069762 -255.84437 
L 433.157547 -257.769474 
L 435.601091 -259.694577 
L 438.214064 -261.619681 
L 440.819021 -263.544785 
L 443.268336 -265.469888 
L 445.457357 -267.394992 
L 447.328397 -269.320095 
L 448.866445 -271.245199 
L 450.089188 -273.170302 
L 451.034664 -275.095406 
L 451.74957 -277.020509 
L 452.280254 -278.945613 
L 452.667232 -280.870716 
L 452.943032 -282.79582 
L 453.132547 -284.720924 
L 453.25483 -286.646027 
L 453.325347 -288.571131 
L 453.357878 -290.496234 
L 453.365569 -292.421338 
L 453.360979 -294.346441 
L 453.3553 -296.271545 
L 453.357219 -298.196648 
L 453.371984 -300.121752 
L 453.40114 -302.046856 
L 453.443103 -303.971959 
L 453.494414 -305.897063 
L 453.551255 -307.822166 
L 453.610766 -309.74727 
L 453.671795 -311.672373 
L 453.734938 -313.597477 
L 453.801965 -315.52258 
L 453.874878 -317.447684 
L 453.95492 -319.372787 
L 454.041848 -321.297891 
L 454.133666 -323.222995 
L 454.226887 -325.148098 
L 454.317205 -327.073202 
L 454.400372 -328.998305 
L 454.473007 -330.923409 
L 454.533112 -332.848512 
L 454.580222 -334.773616 
L 454.615196 -336.698719 
L 454.744804 -336.698719 
L 454.744804 -336.698719 
L 454.779778 -334.773616 
L 454.826888 -332.848512 
L 454.886993 -330.923409 
L 454.959628 -328.998305 
L 455.042795 -327.073202 
L 455.133113 -325.148098 
L 455.226334 -323.222995 
L 455.318152 -321.297891 
L 455.40508 -319.372787 
L 455.485122 -317.447684 
L 455.558035 -315.52258 
L 455.625062 -313.597477 
L 455.688205 -311.672373 
L 455.749234 -309.74727 
L 455.808745 -307.822166 
L 455.865586 -305.897063 
L 455.916897 -303.971959 
L 455.95886 -302.046856 
L 455.988016 -300.121752 
L 456.002781 -298.196648 
L 456.0047 -296.271545 
L 455.999021 -294.346441 
L 455.994431 -292.421338 
L 456.002122 -290.496234 
L 456.034653 -288.571131 
L 456.10517 -286.646027 
L 456.227453 -284.720924 
L 456.416968 -282.79582 
L 456.692768 -280.870716 
L 457.079746 -278.945613 
L 457.61043 -277.020509 
L 458.325336 -275.095406 
L 459.270812 -273.170302 
L 460.493555 -271.245199 
L 462.031603 -269.320095 
L 463.902643 -267.394992 
L 466.091664 -265.469888 
L 468.540979 -263.544785 
L 471.145936 -261.619681 
L 473.758909 -259.694577 
L 476.202453 -257.769474 
L 478.290238 -255.84437 
L 479.852163 -253.919267 
L 480.758738 -251.994163 
L 480.939721 -250.06906 
L 480.393307 -248.143956 
L 479.18438 -246.218853 
L 477.432868 -244.293749 
L 475.295299 -242.368646 
L 472.943784 -240.443542 
L 470.546655 -238.518438 
L 468.253996 -236.593335 
L 466.189746 -234.668231 
L 464.450428 -232.743128 
L 463.109162 -230.818024 
L 462.222818 -228.892921 
L 461.839913 -226.967817 
L 462.007073 -225.042714 
L 462.77244 -223.11761 
L 464.185067 -221.192506 
L 466.29009 -219.267403 
L 469.120157 -217.342299 
L 472.684233 -215.417196 
L 476.955402 -213.492092 
L 481.859594 -211.566989 
L 487.267198 -209.641885 
L 492.989377 -207.716782 
L 498.7806 -205.791678 
L 504.348465 -203.866575 
L 509.371349 -201.941471 
L 513.523504 -200.016367 
L 516.505942 -198.091264 
L 518.079836 -196.16616 
L 518.0976 -194.241057 
L 516.526007 -192.315953 
L 513.456118 -190.39085 
L 509.096823 -188.465746 
L 503.751923 -186.540643 
L 497.784226 -184.615539 
L 491.572884 -182.690436 
L 485.47142 -180.765332 
L 479.773289 -178.840228 
L 474.689653 -176.915125 
L 470.34121 -174.990021 
L 466.763113 -173.064918 
L 463.919923 -171.139814 
L 461.726504 -169.214711 
L 460.070578 -167.289607 
L 458.833306 -165.364504 
L 457.905249 -163.4394 
L 457.196385 -161.514296 
L 456.640071 -159.589193 
L 456.191948 -157.664089 
L 455.825497 -155.738986 
L 455.52617 -153.813882 
L 455.285806 -151.888779 
L 455.098431 -149.963675 
L 454.957872 -148.038572 
L 454.856976 -146.113468 
z
" style="stroke: #595959; stroke-width: 1.25"/>
    </defs>
    <g clip-path="url(#p4203deb8e8)">
     <use xlink:href="#mbeea9388dd" x="0" y="432" style="fill: #95a3c3; stroke: #595959; stroke-width: 1.25"/>
    </g>
   </g>
   <g id="PolyCollection_4">
    <defs>
     <path id="mbdd871c947" d="M 613.316001 -172.733739 
L 613.131999 -172.733739 
L 613.07946 -174.864062 
L 613.001621 -176.994385 
L 612.887879 -179.124707 
L 612.723326 -181.25503 
L 612.487016 -183.385352 
L 612.149804 -185.515675 
L 611.672003 -187.645997 
L 611.001308 -189.77632 
L 610.071692 -191.906643 
L 608.804143 -194.036965 
L 607.110162 -196.167288 
L 604.898687 -198.29761 
L 602.086666 -200.427933 
L 598.61275 -202.558255 
L 594.452738 -204.688578 
L 589.634605 -206.818901 
L 584.250367 -208.949223 
L 578.461999 -211.079546 
L 572.499079 -213.209868 
L 566.646942 -215.340191 
L 561.22563 -217.470513 
L 556.561592 -219.600836 
L 552.955535 -221.731159 
L 550.650749 -223.861481 
L 549.8064 -225.991804 
L 550.479615 -228.122126 
L 552.618912 -230.252449 
L 556.069784 -232.382771 
L 560.59148 -234.513094 
L 565.882477 -236.643417 
L 571.611071 -238.773739 
L 577.447023 -240.904062 
L 583.090332 -243.034384 
L 588.293878 -245.164707 
L 592.877728 -247.295029 
L 596.73421 -249.425352 
L 599.824144 -251.555675 
L 602.165775 -253.685997 
L 603.818783 -255.81632 
L 604.866176 -257.946642 
L 605.396898 -260.076965 
L 605.491574 -262.207287 
L 605.213153 -264.33761 
L 604.60334 -266.467932 
L 603.684742 -268.598255 
L 602.467793 -270.728578 
L 600.960778 -272.8589 
L 599.180844 -274.989223 
L 597.163731 -277.119545 
L 594.970213 -279.249868 
L 592.687875 -281.38019 
L 590.427647 -283.510513 
L 588.315581 -285.640836 
L 586.481181 -287.771158 
L 585.044233 -289.901481 
L 584.102277 -292.031803 
L 583.720623 -294.162126 
L 583.926252 -296.292448 
L 584.70621 -298.422771 
L 586.010358 -300.553094 
L 587.757749 -302.683416 
L 589.845504 -304.813739 
L 592.15891 -306.944061 
L 594.581459 -309.074384 
L 597.003756 -311.204706 
L 599.330542 -313.335029 
L 601.485417 -315.465352 
L 603.41326 -317.595674 
L 605.080577 -319.725997 
L 606.474248 -321.856319 
L 607.599116 -323.986642 
L 608.474843 -326.116964 
L 609.132317 -328.247287 
L 609.609821 -330.37761 
L 609.949127 -332.507932 
L 610.191698 -334.638255 
L 610.375256 -336.768577 
L 610.531014 -338.8989 
L 610.68186 -341.029222 
L 610.841716 -343.159545 
L 611.01611 -345.289868 
L 611.203795 -347.42019 
L 611.399081 -349.550513 
L 611.594367 -351.680835 
L 611.782395 -353.811158 
L 611.957831 -355.94148 
L 612.11796 -358.071803 
L 612.262549 -360.202126 
L 612.3931 -362.332448 
L 612.511836 -364.462771 
L 612.62078 -366.593093 
L 612.721147 -368.723416 
L 612.813176 -370.853738 
L 612.896324 -372.984061 
L 612.969689 -375.114384 
L 613.03247 -377.244706 
L 613.084322 -379.375029 
L 613.125527 -381.505351 
L 613.156972 -383.635674 
L 613.291028 -383.635674 
L 613.291028 -383.635674 
L 613.322473 -381.505351 
L 613.363678 -379.375029 
L 613.41553 -377.244706 
L 613.478311 -375.114384 
L 613.551676 -372.984061 
L 613.634824 -370.853738 
L 613.726853 -368.723416 
L 613.82722 -366.593093 
L 613.936164 -364.462771 
L 614.0549 -362.332448 
L 614.185451 -360.202126 
L 614.33004 -358.071803 
L 614.490169 -355.94148 
L 614.665605 -353.811158 
L 614.853633 -351.680835 
L 615.048919 -349.550513 
L 615.244205 -347.42019 
L 615.43189 -345.289868 
L 615.606284 -343.159545 
L 615.76614 -341.029222 
L 615.916986 -338.8989 
L 616.072744 -336.768577 
L 616.256302 -334.638255 
L 616.498873 -332.507932 
L 616.838179 -330.37761 
L 617.315683 -328.247287 
L 617.973157 -326.116964 
L 618.848884 -323.986642 
L 619.973752 -321.856319 
L 621.367423 -319.725997 
L 623.03474 -317.595674 
L 624.962583 -315.465352 
L 627.117458 -313.335029 
L 629.444244 -311.204706 
L 631.866541 -309.074384 
L 634.28909 -306.944061 
L 636.602496 -304.813739 
L 638.690251 -302.683416 
L 640.437642 -300.553094 
L 641.74179 -298.422771 
L 642.521748 -296.292448 
L 642.727377 -294.162126 
L 642.345723 -292.031803 
L 641.403767 -289.901481 
L 639.966819 -287.771158 
L 638.132419 -285.640836 
L 636.020353 -283.510513 
L 633.760125 -281.38019 
L 631.477787 -279.249868 
L 629.284269 -277.119545 
L 627.267156 -274.989223 
L 625.487222 -272.8589 
L 623.980207 -270.728578 
L 622.763258 -268.598255 
L 621.84466 -266.467932 
L 621.234847 -264.33761 
L 620.956426 -262.207287 
L 621.051102 -260.076965 
L 621.581824 -257.946642 
L 622.629217 -255.81632 
L 624.282225 -253.685997 
L 626.623856 -251.555675 
L 629.71379 -249.425352 
L 633.570272 -247.295029 
L 638.154122 -245.164707 
L 643.357668 -243.034384 
L 649.000977 -240.904062 
L 654.836929 -238.773739 
L 660.565523 -236.643417 
L 665.85652 -234.513094 
L 670.378216 -232.382771 
L 673.829088 -230.252449 
L 675.968385 -228.122126 
L 676.6416 -225.991804 
L 675.797251 -223.861481 
L 673.492465 -221.731159 
L 669.886408 -219.600836 
L 665.22237 -217.470513 
L 659.801058 -215.340191 
L 653.948921 -213.209868 
L 647.986001 -211.079546 
L 642.197633 -208.949223 
L 636.813395 -206.818901 
L 631.995262 -204.688578 
L 627.83525 -202.558255 
L 624.361334 -200.427933 
L 621.549313 -198.29761 
L 619.337838 -196.167288 
L 617.643857 -194.036965 
L 616.376308 -191.906643 
L 615.446692 -189.77632 
L 614.775997 -187.645997 
L 614.298196 -185.515675 
L 613.960984 -183.385352 
L 613.724674 -181.25503 
L 613.560121 -179.124707 
L 613.446379 -176.994385 
L 613.36854 -174.864062 
L 613.316001 -172.733739 
z
" style="stroke: #595959; stroke-width: 1.25"/>
    </defs>
    <g clip-path="url(#p4203deb8e8)">
     <use xlink:href="#mbdd871c947" x="0" y="432" style="fill: #db96c0; stroke: #595959; stroke-width: 1.25"/>
    </g>
   </g>
   <g id="PolyCollection_5">
    <defs>
     <path id="m6bdaf84e70" d="M 771.837334 -131.291865 
L 771.698666 -131.291865 
L 771.653152 -133.891755 
L 771.590826 -136.491646 
L 771.513129 -139.091537 
L 771.42532 -141.691428 
L 771.335515 -144.291319 
L 771.251559 -146.891209 
L 771.176072 -149.4911 
L 771.100783 -152.090991 
L 771.001365 -154.690882 
L 770.833161 -157.290772 
L 770.526806 -159.890663 
L 769.982153 -162.490554 
L 769.06019 -165.090445 
L 767.576248 -167.690335 
L 765.302485 -170.290226 
L 761.990485 -172.890117 
L 757.422524 -175.490008 
L 751.490435 -178.089899 
L 744.285696 -180.689789 
L 736.169264 -183.28968 
L 727.783957 -185.889571 
L 719.983356 -188.489462 
L 713.679625 -191.089352 
L 709.648012 -193.689243 
L 708.3504 -196.289134 
L 709.838664 -198.889025 
L 713.768577 -201.488916 
L 719.511001 -204.088806 
L 726.312016 -206.688697 
L 733.444351 -209.288588 
L 740.309442 -211.888479 
L 746.478463 -214.488369 
L 751.684549 -217.08826 
L 755.787988 -219.688151 
L 758.733781 -222.288042 
L 760.514325 -224.887932 
L 761.14515 -227.487823 
L 760.65884 -230.087714 
L 759.118601 -232.687605 
L 756.646337 -235.287496 
L 753.452423 -237.887386 
L 749.850014 -240.487277 
L 746.239691 -243.087168 
L 743.060656 -245.687059 
L 740.71833 -248.286949 
L 739.50886 -250.88684 
L 739.563612 -253.486731 
L 740.830364 -256.086622 
L 743.095655 -258.686513 
L 746.039992 -261.286403 
L 749.308927 -263.886294 
L 752.580796 -266.486185 
L 755.615485 -269.086076 
L 758.275856 -271.685966 
L 760.521721 -274.285857 
L 762.383435 -276.885748 
L 763.926575 -279.485639 
L 765.2198 -282.085529 
L 766.314669 -284.68542 
L 767.240253 -287.285311 
L 768.009382 -289.885202 
L 768.629903 -292.485093 
L 769.114372 -295.084983 
L 769.484445 -297.684874 
L 769.769574 -300.284765 
L 770.001946 -302.884656 
L 770.210284 -305.484546 
L 770.414738 -308.084437 
L 770.624307 -310.684328 
L 770.837327 -313.284219 
L 771.044644 -315.88411 
L 771.234251 -318.484 
L 771.395795 -321.083891 
L 771.523534 -323.683782 
L 771.617139 -326.283673 
L 771.680658 -328.883563 
L 771.720507 -331.483454 
L 771.74343 -334.083345 
L 771.755044 -336.683236 
L 771.759082 -339.283126 
L 771.757183 -341.883017 
L 771.748997 -344.482908 
L 771.73249 -347.082799 
L 771.704541 -349.68269 
L 771.661978 -352.28258 
L 771.603118 -354.882471 
L 771.529509 -357.482362 
L 771.447204 -360.082253 
L 771.366733 -362.682143 
L 771.301252 -365.282034 
L 771.263135 -367.881925 
L 771.260177 -370.481816 
L 771.293 -373.081707 
L 771.35484 -375.681597 
L 771.433815 -378.281488 
L 771.516638 -380.881379 
L 771.592185 -383.48127 
L 771.653645 -386.08116 
L 771.698833 -388.681051 
L 771.837167 -388.681051 
L 771.837167 -388.681051 
L 771.882355 -386.08116 
L 771.943815 -383.48127 
L 772.019362 -380.881379 
L 772.102185 -378.281488 
L 772.18116 -375.681597 
L 772.243 -373.081707 
L 772.275823 -370.481816 
L 772.272865 -367.881925 
L 772.234748 -365.282034 
L 772.169267 -362.682143 
L 772.088796 -360.082253 
L 772.006491 -357.482362 
L 771.932882 -354.882471 
L 771.874022 -352.28258 
L 771.831459 -349.68269 
L 771.80351 -347.082799 
L 771.787003 -344.482908 
L 771.778817 -341.883017 
L 771.776918 -339.283126 
L 771.780956 -336.683236 
L 771.79257 -334.083345 
L 771.815493 -331.483454 
L 771.855342 -328.883563 
L 771.918861 -326.283673 
L 772.012466 -323.683782 
L 772.140205 -321.083891 
L 772.301749 -318.484 
L 772.491356 -315.88411 
L 772.698673 -313.284219 
L 772.911693 -310.684328 
L 773.121262 -308.084437 
L 773.325716 -305.484546 
L 773.534054 -302.884656 
L 773.766426 -300.284765 
L 774.051555 -297.684874 
L 774.421628 -295.084983 
L 774.906097 -292.485093 
L 775.526618 -289.885202 
L 776.295747 -287.285311 
L 777.221331 -284.68542 
L 778.3162 -282.085529 
L 779.609425 -279.485639 
L 781.152565 -276.885748 
L 783.014279 -274.285857 
L 785.260144 -271.685966 
L 787.920515 -269.086076 
L 790.955204 -266.486185 
L 794.227073 -263.886294 
L 797.496008 -261.286403 
L 800.440345 -258.686513 
L 802.705636 -256.086622 
L 803.972388 -253.486731 
L 804.02714 -250.88684 
L 802.81767 -248.286949 
L 800.475344 -245.687059 
L 797.296309 -243.087168 
L 793.685986 -240.487277 
L 790.083577 -237.887386 
L 786.889663 -235.287496 
L 784.417399 -232.687605 
L 782.87716 -230.087714 
L 782.39085 -227.487823 
L 783.021675 -224.887932 
L 784.802219 -222.288042 
L 787.748012 -219.688151 
L 791.851451 -217.08826 
L 797.057537 -214.488369 
L 803.226558 -211.888479 
L 810.091649 -209.288588 
L 817.223984 -206.688697 
L 824.024999 -204.088806 
L 829.767423 -201.488916 
L 833.697336 -198.889025 
L 835.1856 -196.289134 
L 833.887988 -193.689243 
L 829.856375 -191.089352 
L 823.552644 -188.489462 
L 815.752043 -185.889571 
L 807.366736 -183.28968 
L 799.250304 -180.689789 
L 792.045565 -178.089899 
L 786.113476 -175.490008 
L 781.545515 -172.890117 
L 778.233515 -170.290226 
L 775.959752 -167.690335 
L 774.47581 -165.090445 
L 773.553847 -162.490554 
L 773.009194 -159.890663 
L 772.702839 -157.290772 
L 772.534635 -154.690882 
L 772.435217 -152.090991 
L 772.359928 -149.4911 
L 772.284441 -146.891209 
L 772.200485 -144.291319 
L 772.11068 -141.691428 
L 772.022871 -139.091537 
L 771.945174 -136.491646 
L 771.882848 -133.891755 
L 771.837334 -131.291865 
z
" style="stroke: #595959; stroke-width: 1.25"/>
    </defs>
    <g clip-path="url(#p4203deb8e8)">
     <use xlink:href="#m6bdaf84e70" x="0" y="432" style="fill: #a2c865; stroke: #595959; stroke-width: 1.25"/>
    </g>
   </g>
   <g id="line2d_9">
    <path d="M 137.592 338.962174 
L 137.592 349.147939 
" clip-path="url(#p4203deb8e8)" style="fill: none; stroke: #000000"/>
   </g>
   <g id="line2d_10">
    <path d="M 137.592 331.582569 
L 137.592 320.823631 
" clip-path="url(#p4203deb8e8)" style="fill: none; stroke: #000000"/>
   </g>
   <g id="line2d_11">
    <path d="M 131.6466 349.147939 
L 143.5374 349.147939 
" clip-path="url(#p4203deb8e8)" style="fill: none; stroke: #000000; stroke-linecap: round"/>
   </g>
   <g id="line2d_12">
    <path d="M 131.6466 320.823631 
L 143.5374 320.823631 
" clip-path="url(#p4203deb8e8)" style="fill: none; stroke: #000000; stroke-linecap: round"/>
   </g>
   <g id="line2d_13">
    <path d="M 296.136 338.830822 
L 296.136 348.144886 
" clip-path="url(#p4203deb8e8)" style="fill: none; stroke: #000000"/>
   </g>
   <g id="line2d_14">
    <path d="M 296.136 332.430388 
L 296.136 323.259617 
" clip-path="url(#p4203deb8e8)" style="fill: none; stroke: #000000"/>
   </g>
   <g id="line2d_15">
    <path d="M 290.1906 348.144886 
L 302.0814 348.144886 
" clip-path="url(#p4203deb8e8)" style="fill: none; stroke: #000000; stroke-linecap: round"/>
   </g>
   <g id="line2d_16">
    <path d="M 290.1906 323.259617 
L 302.0814 323.259617 
" clip-path="url(#p4203deb8e8)" style="fill: none; stroke: #000000; stroke-linecap: round"/>
   </g>
   <g id="line2d_17">
    <path d="M 454.68 239.791272 
L 454.68 268.473813 
" clip-path="url(#p4203deb8e8)" style="fill: none; stroke: #000000"/>
   </g>
   <g id="line2d_18">
    <path d="M 454.68 189.352031 
L 454.68 122.983352 
" clip-path="url(#p4203deb8e8)" style="fill: none; stroke: #000000"/>
   </g>
   <g id="line2d_19">
    <path d="M 448.7346 268.473813 
L 460.6254 268.473813 
" clip-path="url(#p4203deb8e8)" style="fill: none; stroke: #000000; stroke-linecap: round"/>
   </g>
   <g id="line2d_20">
    <path d="M 448.7346 122.983352 
L 460.6254 122.983352 
" clip-path="url(#p4203deb8e8)" style="fill: none; stroke: #000000; stroke-linecap: round"/>
   </g>
   <g id="line2d_21">
    <path d="M 613.224 208.433922 
L 613.224 237.61799 
" clip-path="url(#p4203deb8e8)" style="fill: none; stroke: #000000"/>
   </g>
   <g id="line2d_22">
    <path d="M 613.224 142.56677 
L 613.224 70.012597 
" clip-path="url(#p4203deb8e8)" style="fill: none; stroke: #000000"/>
   </g>
   <g id="line2d_23">
    <path d="M 607.2786 237.61799 
L 619.1694 237.61799 
" clip-path="url(#p4203deb8e8)" style="fill: none; stroke: #000000; stroke-linecap: round"/>
   </g>
   <g id="line2d_24">
    <path d="M 607.2786 70.012597 
L 619.1694 70.012597 
" clip-path="url(#p4203deb8e8)" style="fill: none; stroke: #000000; stroke-linecap: round"/>
   </g>
   <g id="line2d_25">
    <path d="M 771.768 237.379168 
L 771.768 281.417974 
" clip-path="url(#p4203deb8e8)" style="fill: none; stroke: #000000"/>
   </g>
   <g id="line2d_26">
    <path d="M 771.768 183.047126 
L 771.768 122.457944 
" clip-path="url(#p4203deb8e8)" style="fill: none; stroke: #000000"/>
   </g>
   <g id="line2d_27">
    <path d="M 765.8226 281.417974 
L 777.7134 281.417974 
" clip-path="url(#p4203deb8e8)" style="fill: none; stroke: #000000; stroke-linecap: round"/>
   </g>
   <g id="line2d_28">
    <path d="M 765.8226 122.457944 
L 777.7134 122.457944 
" clip-path="url(#p4203deb8e8)" style="fill: none; stroke: #000000; stroke-linecap: round"/>
   </g>
   <g id="line2d_29">
    <path d="M 125.7012 336.347071 
L 149.4828 336.347071 
" clip-path="url(#p4203deb8e8)" style="fill: none; stroke: #ff0000; stroke-width: 2"/>
   </g>
   <g id="line2d_30">
    <path d="M 284.2452 334.914138 
L 308.0268 334.914138 
" clip-path="url(#p4203deb8e8)" style="fill: none; stroke: #ff0000; stroke-width: 2"/>
   </g>
   <g id="line2d_31">
    <path d="M 442.7892 232.077316 
L 466.5708 232.077316 
" clip-path="url(#p4203deb8e8)" style="fill: none; stroke: #ff0000; stroke-width: 2"/>
   </g>
   <g id="line2d_32">
    <path d="M 601.3332 199.215386 
L 625.1148 199.215386 
" clip-path="url(#p4203deb8e8)" style="fill: none; stroke: #ff0000; stroke-width: 2"/>
   </g>
   <g id="line2d_33">
    <path d="M 759.8772 227.444166 
L 783.6588 227.444166 
" clip-path="url(#p4203deb8e8)" style="fill: none; stroke: #ff0000; stroke-width: 2"/>
   </g>
   <g id="patch_3">
    <path d="M 58.32 373.416875 
L 58.32 27.6 
" style="fill: none; stroke: #cccccc; stroke-width: 1.25; stroke-linejoin: miter; stroke-linecap: square"/>
   </g>
   <g id="patch_4">
    <path d="M 851.04 373.416875 
L 851.04 27.6 
" style="fill: none; stroke: #cccccc; stroke-width: 1.25; stroke-linejoin: miter; stroke-linecap: square"/>
   </g>
   <g id="patch_5">
    <path d="M 58.32 373.416875 
L 851.04 373.416875 
" style="fill: none; stroke: #cccccc; stroke-width: 1.25; stroke-linejoin: miter; stroke-linecap: square"/>
   </g>
   <g id="patch_6">
    <path d="M 58.32 27.6 
L 851.04 27.6 
" style="fill: none; stroke: #cccccc; stroke-width: 1.25; stroke-linejoin: miter; stroke-linecap: square"/>
   </g>
   <g id="text_15">
    <!-- Handshake duration on TLS with mldsa44 signature algorithm — Degraded (200ms/10%) -->
    <g style="fill: #262626" transform="translate(186.980625 21.6) scale(0.12 -0.12)">
     <defs>
      <path id="DejaVuSans-54" d="M -19 4666 
L 3928 4666 
L 3928 4134 
L 2272 4134 
L 2272 0 
L 1638 0 
L 1638 4134 
L -19 4134 
L -19 4666 
z
" transform="scale(0.015625)"/>
      <path id="DejaVuSans-4c" d="M 628 4666 
L 1259 4666 
L 1259 531 
L 3531 531 
L 3531 0 
L 628 0 
L 628 4666 
z
" transform="scale(0.015625)"/>
      <path id="DejaVuSans-53" d="M 3425 4513 
L 3425 3897 
Q 3066 4069 2747 4153 
Q 2428 4238 2131 4238 
Q 1616 4238 1336 4038 
Q 1056 3838 1056 3469 
Q 1056 3159 1242 3001 
Q 1428 2844 1947 2747 
L 2328 2669 
Q 3034 2534 3370 2195 
Q 3706 1856 3706 1288 
Q 3706 609 3251 259 
Q 2797 -91 1919 -91 
Q 1588 -91 1214 -16 
Q 841 59 441 206 
L 441 856 
Q 825 641 1194 531 
Q 1563 422 1919 422 
Q 2459 422 2753 634 
Q 3047 847 3047 1241 
Q 3047 1584 2836 1778 
Q 2625 1972 2144 2069 
L 1759 2144 
Q 1053 2284 737 2584 
Q 422 2884 422 3419 
Q 422 4038 858 4394 
Q 1294 4750 2059 4750 
Q 2388 4750 2728 4690 
Q 3069 4631 3425 4513 
z
" transform="scale(0.015625)"/>
      <path id="DejaVuSans-77" d="M 269 3500 
L 844 3500 
L 1563 769 
L 2278 3500 
L 2956 3500 
L 3675 769 
L 4391 3500 
L 4966 3500 
L 4050 0 
L 3372 0 
L 2619 2869 
L 1863 0 
L 1184 0 
L 269 3500 
z
" transform="scale(0.015625)"/>
      <path id="DejaVuSans-6c" d="M 603 4863 
L 1178 4863 
L 1178 0 
L 603 0 
L 603 4863 
z
" transform="scale(0.015625)"/>
      <path id="DejaVuSans-67" d="M 2906 1791 
Q 2906 2416 2648 2759 
Q 2391 3103 1925 3103 
Q 1463 3103 1205 2759 
Q 947 2416 947 1791 
Q 947 1169 1205 825 
Q 1463 481 1925 481 
Q 2391 481 2648 825 
Q 2906 1169 2906 1791 
z
M 3481 434 
Q 3481 -459 3084 -895 
Q 2688 -1331 1869 -1331 
Q 1566 -1331 1297 -1286 
Q 1028 -1241 775 -1147 
L 775 -588 
Q 1028 -725 1275 -790 
Q 1522 -856 1778 -856 
Q 2344 -856 2625 -561 
Q 2906 -266 2906 331 
L 2906 616 
Q 2728 306 2450 153 
Q 2172 0 1784 0 
Q 1141 0 747 490 
Q 353 981 353 1791 
Q 353 2603 747 3093 
Q 1141 3584 1784 3584 
Q 2172 3584 2450 3431 
Q 2728 3278 2906 2969 
L 2906 3500 
L 3481 3500 
L 3481 434 
z
" transform="scale(0.015625)"/>
      <path id="DejaVuSans-2014" d="M 313 1978 
L 6088 1978 
L 6088 1528 
L 313 1528 
L 313 1978 
z
" transform="scale(0.015625)"/>
      <path id="DejaVuSans-44" d="M 1259 4147 
L 1259 519 
L 2022 519 
Q 2988 519 3436 956 
Q 3884 1394 3884 2338 
Q 3884 3275 3436 3711 
Q 2988 4147 2022 4147 
L 1259 4147 
z
M 628 4666 
L 1925 4666 
Q 3281 4666 3915 4102 
Q 4550 3538 4550 2338 
Q 4550 1131 3912 565 
Q 3275 0 1925 0 
L 628 0 
L 628 4666 
z
" transform="scale(0.015625)"/>
      <path id="DejaVuSans-2f" d="M 1625 4666 
L 2156 4666 
L 531 -594 
L 0 -594 
L 1625 4666 
z
" transform="scale(0.015625)"/>
      <path id="DejaVuSans-25" d="M 4653 2053 
Q 4381 2053 4226 1822 
Q 4072 1591 4072 1178 
Q 4072 772 4226 539 
Q 4381 306 4653 306 
Q 4919 306 5073 539 
Q 5228 772 5228 1178 
Q 5228 1588 5073 1820 
Q 4919 2053 4653 2053 
z
M 4653 2450 
Q 5147 2450 5437 2106 
Q 5728 1763 5728 1178 
Q 5728 594 5436 251 
Q 5144 -91 4653 -91 
Q 4153 -91 3862 251 
Q 3572 594 3572 1178 
Q 3572 1766 3864 2108 
Q 4156 2450 4653 2450 
z
M 1428 4353 
Q 1159 4353 1004 4120 
Q 850 3888 850 3481 
Q 850 3069 1003 2837 
Q 1156 2606 1428 2606 
Q 1700 2606 1854 2837 
Q 2009 3069 2009 3481 
Q 2009 3884 1853 4118 
Q 1697 4353 1428 4353 
z
M 4250 4750 
L 4750 4750 
L 1831 -91 
L 1331 -91 
L 4250 4750 
z
M 1428 4750 
Q 1922 4750 2215 4408 
Q 2509 4066 2509 3481 
Q 2509 2891 2217 2550 
Q 1925 2209 1428 2209 
Q 931 2209 642 2551 
Q 353 2894 353 3481 
Q 353 4063 643 4406 
Q 934 4750 1428 4750 
z
" transform="scale(0.015625)"/>
     </defs>
     <use xlink:href="#DejaVuSans-48"/>
     <use xlink:href="#DejaVuSans-61" x="75.195312"/>
     <use xlink:href="#DejaVuSans-6e" x="136.474609"/>
     <use xlink:href="#DejaVuSans-64" x="199.853516"/>
     <use xlink:href="#DejaVuSans-73" x="263.330078"/>
     <use xlink:href="#DejaVuSans-68" x="315.429688"/>
     <use xlink:href="#DejaVuSans-61" x="378.808594"/>
     <use xlink:href="#DejaVuSans-6b" x="440.087891"/>
     <use xlink:href="#DejaVuSans-65" x="494.373047"/>
     <use xlink:href="#DejaVuSans-20" x="555.896484"/>
     <use xlink:href="#DejaVuSans-64" x="587.683594"/>
     <use xlink:href="#DejaVuSans-75" x="651.160156"/>
     <use xlink:href="#DejaVuSans-72" x="714.539062"/>
     <use xlink:href="#DejaVuSans-61" x="755.652344"/>
     <use xlink:href="#DejaVuSans-74" x="816.931641"/>
     <use xlink:href="#DejaVuSans-69" x="856.140625"/>
     <use xlink:href="#DejaVuSans-6f" x="883.923828"/>
     <use xlink:href="#DejaVuSans-6e" x="945.105469"/>
     <use xlink:href="#DejaVuSans-20" x="1008.484375"/>
     <use xlink:href="#DejaVuSans-6f" x="1040.271484"/>
     <use xlink:href="#DejaVuSans-6e" x="1101.453125"/>
     <use xlink:href="#DejaVuSans-20" x="1164.832031"/>
     <use xlink:href="#DejaVuSans-54" x="1196.619141"/>
     <use xlink:href="#DejaVuSans-4c" x="1257.703125"/>
     <use xlink:href="#DejaVuSans-53" x="1313.416016"/>
     <use xlink:href="#DejaVuSans-20" x="1376.892578"/>
     <use xlink:href="#DejaVuSans-77" x="1408.679688"/>
     <use xlink:href="#DejaVuSans-69" x="1490.466797"/>
     <use xlink:href="#DejaVuSans-74" x="1518.25"/>
     <use xlink:href="#DejaVuSans-68" x="1557.458984"/>
     <use xlink:href="#DejaVuSans-20" x="1620.837891"/>
     <use xlink:href="#DejaVuSans-6d" x="1652.625"/>
     <use xlink:href="#DejaVuSans-6c" x="1750.037109"/>
     <use xlink:href="#DejaVuSans-64" x="1777.820312"/>
     <use xlink:href="#DejaVuSans-73" x="1841.296875"/>
     <use xlink:href="#DejaVuSans-61" x="1893.396484"/>
     <use xlink:href="#DejaVuSans-34" x="1954.675781"/>
     <use xlink:href="#DejaVuSans-34" x="2018.298828"/>
     <use xlink:href="#DejaVuSans-20" x="2081.921875"/>
     <use xlink:href="#DejaVuSans-73" x="2113.708984"/>
     <use xlink:href="#DejaVuSans-69" x="2165.808594"/>
     <use xlink:href="#DejaVuSans-67" x="2193.591797"/>
     <use xlink:href="#DejaVuSans-6e" x="2257.068359"/>
     <use xlink:href="#DejaVuSans-61" x="2320.447266"/>
     <use xlink:href="#DejaVuSans-74" x="2381.726562"/>
     <use xlink:href="#DejaVuSans-75" x="2420.935547"/>
     <use xlink:href="#DejaVuSans-72" x="2484.314453"/>
     <use xlink:href="#DejaVuSans-65" x="2523.177734"/>
     <use xlink:href="#DejaVuSans-20" x="2584.701172"/>
     <use xlink:href="#DejaVuSans-61" x="2616.488281"/>
     <use xlink:href="#DejaVuSans-6c" x="2677.767578"/>
     <use xlink:href="#DejaVuSans-67" x="2705.550781"/>
     <use xlink:href="#DejaVuSans-6f" x="2769.027344"/>
     <use xlink:href="#DejaVuSans-72" x="2830.208984"/>
     <use xlink:href="#DejaVuSans-69" x="2871.322266"/>
     <use xlink:href="#DejaVuSans-74" x="2899.105469"/>
     <use xlink:href="#DejaVuSans-68" x="2938.314453"/>
     <use xlink:href="#DejaVuSans-6d" x="3001.693359"/>
     <use xlink:href="#DejaVuSans-20" x="3099.105469"/>
     <use xlink:href="#DejaVuSans-2014" x="3130.892578"/>
     <use xlink:href="#DejaVuSans-20" x="3230.892578"/>
     <use xlink:href="#DejaVuSans-44" x="3262.679688"/>
     <use xlink:href="#DejaVuSans-65" x="3339.681641"/>
     <use xlink:href="#DejaVuSans-67" x="3401.205078"/>
     <use xlink:href="#DejaVuSans-72" x="3464.681641"/>
     <use xlink:href="#DejaVuSans-61" x="3505.794922"/>
     <use xlink:href="#DejaVuSans-64" x="3567.074219"/>
     <use xlink:href="#DejaVuSans-65" x="3630.550781"/>
     <use xlink:href="#DejaVuSans-64" x="3692.074219"/>
     <use xlink:href="#DejaVuSans-20" x="3755.550781"/>
     <use xlink:href="#DejaVuSans-28" x="3787.337891"/>
     <use xlink:href="#DejaVuSans-32" x="3826.351562"/>
     <use xlink:href="#DejaVuSans-30" x="3889.974609"/>
     <use xlink:href="#DejaVuSans-30" x="3953.597656"/>
     <use xlink:href="#DejaVuSans-6d" x="4017.220703"/>
     <use xlink:href="#DejaVuSans-73" x="4114.632812"/>
     <use xlink:href="#DejaVuSans-2f" x="4166.732422"/>
     <use xlink:href="#DejaVuSans-31" x="4200.423828"/>
     <use xlink:href="#DejaVuSans-30" x="4264.046875"/>
     <use xlink:href="#DejaVuSans-25" x="4327.669922"/>
     <use xlink:href="#DejaVuSans-29" x="4422.689453"/>
    </g>
   </g>
  </g>
 </g>
 <defs>
  <clipPath id="p4203deb8e8">
   <rect x="58.32" y="27.6" width="792.72" height="345.816875"/>
  </clipPath>
 </defs>
</svg>
