<?xml version="1.0" encoding="utf-8" standalone="no"?>
<!DOCTYPE svg PUBLIC "-//W3C//DTD SVG 1.1//EN"
  "http://www.w3.org/Graphics/SVG/1.1/DTD/svg11.dtd">
<svg xmlns:xlink="http://www.w3.org/1999/xlink" width="864pt" height="432pt" viewBox="0 0 864 432" xmlns="http://www.w3.org/2000/svg" version="1.1">
 <metadata>
  <rdf:RDF xmlns:dc="http://purl.org/dc/elements/1.1/" xmlns:cc="http://creativecommons.org/ns#" xmlns:rdf="http://www.w3.org/1999/02/22-rdf-syntax-ns#">
   <cc:Work>
    <dc:type rdf:resource="http://purl.org/dc/dcmitype/StillImage"/>
    <dc:date>2026-03-21T14:06:21.931869</dc:date>
    <dc:format>image/svg+xml</dc:format>
    <dc:creator>
     <cc:Agent>
      <dc:title>Matplotlib v3.6.3, https://matplotlib.org/</dc:title>
     </cc:Agent>
    </dc:creator>
   </cc:Work>
  </rdf:RDF>
 </metadata>
 <defs>
  <style type="text/css">*{stroke-linejoin: round; stroke-linecap: butt}</style>
 </defs>
 <g id="figure_1">
  <g id="patch_1">
   <path d="M 0 432 
L 864 432 
L 864 0 
L 0 0 
z
" style="fill: #ffffff"/>
  </g>
  <g id="axes_1">
   <g id="patch_2">
    <path d="M 58.32 373.416875 
L 851.04 373.416875 
L 851.04 27.6 
L 58.32 27.6 
z
" style="fill: #ffffff"/>
   </g>
   <g id="matplotlib.axis_1">
    <g id="xtick_1">
     <g id="text_1">
      <!-- P-256 -->
      <g style="fill: #262626" transform="translate(103.911421 400.575919) rotate(-15) scale(0.12 -0.12)">
       <defs>
        <path id="DejaVuSans-50" d="M 1259 4147 
L 1259 2394 
L 2053 2394 
Q 2494 2394 2734 2622 
Q 2975 2850 2975 3272 
Q 2975 3691 2734 3919 
Q 2494 4147 2053 4147 
L 1259 4147 
z
M 628 4666 
L 2053 4666 
Q 2838 4666 3239 4311 
Q 3641 3956 3641 3272 
Q 3641 2581 3239 2228 
Q 2838 1875 2053 1875 
L 1259 1875 
L 1259 0 
L 628 0 
L 628 4666 
z
" transform="scale(0.015625)"/>
        <path id="DejaVuSans-2d" d="M 313 2009 
L 1997 2009 
L 1997 1497 
L 313 1497 
L 313 2009 
z
" transform="scale(0.015625)"/>
        <path id="DejaVuSans-32" d="M 1228 531 
L 3431 531 
L 3431 0 
L 469 0 
L 469 531 
Q 828 903 1448 1529 
Q 2069 2156 2228 2338 
Q 2531 2678 2651 2914 
Q 2772 3150 2772 3378 
Q 2772 3750 2511 3984 
Q 2250 4219 1831 4219 
Q 1534 4219 1204 4116 
Q 875 4013 500 3803 
L 500 4441 
Q 881 4594 1212 4672 
Q 1544 4750 1819 4750 
Q 2544 4750 2975 4387 
Q 3406 4025 3406 3419 
Q 3406 3131 3298 2873 
Q 3191 2616 2906 2266 
Q 2828 2175 2409 1742 
Q 1991 1309 1228 531 
z
" transform="scale(0.015625)"/>
        <path id="DejaVuSans-35" d="M 691 4666 
L 3169 4666 
L 3169 4134 
L 1269 4134 
L 1269 2991 
Q 1406 3038 1543 3061 
Q 1681 3084 1819 3084 
Q 2600 3084 3056 2656 
Q 3513 2228 3513 1497 
Q 3513 744 3044 326 
Q 2575 -91 1722 -91 
Q 1428 -91 1123 -41 
Q 819 9 494 109 
L 494 744 
Q 775 591 1075 516 
Q 1375 441 1709 441 
Q 2250 441 2565 725 
Q 2881 1009 2881 1497 
Q 2881 1984 2565 2268 
Q 2250 2553 1709 2553 
Q 1456 2553 1204 2497 
Q 953 2441 691 2322 
L 691 4666 
z
" transform="scale(0.015625)"/>
        <path id="DejaVuSans-36" d="M 2113 2584 
Q 1688 2584 1439 2293 
Q 1191 2003 1191 1497 
Q 1191 994 1439 701 
Q 1688 409 2113 409 
Q 2538 409 2786 701 
Q 3034 994 3034 1497 
Q 3034 2003 2786 2293 
Q 2538 2584 2113 2584 
z
M 3366 4563 
L 3366 3988 
Q 3128 4100 2886 4159 
Q 2644 4219 2406 4219 
Q 1781 4219 1451 3797 
Q 1122 3375 1075 2522 
Q 1259 2794 1537 2939 
Q 1816 3084 2150 3084 
Q 2853 3084 3261 2657 
Q 3669 2231 3669 1497 
Q 3669 778 3244 343 
Q 2819 -91 2113 -91 
Q 1303 -91 875 529 
Q 447 1150 447 2328 
Q 447 3434 972 4092 
Q 1497 4750 2381 4750 
Q 2619 4750 2861 4703 
Q 3103 4656 3366 4563 
z
" transform="scale(0.015625)"/>
       </defs>
       <use xlink:href="#DejaVuSans-50"/>
       <use xlink:href="#DejaVuSans-2d" x="58.052734"/>
       <use xlink:href="#DejaVuSans-32" x="94.136719"/>
       <use xlink:href="#DejaVuSans-35" x="157.759766"/>
       <use xlink:href="#DejaVuSans-36" x="221.382812"/>
      </g>
     </g>
    </g>
    <g id="xtick_2">
     <g id="text_2">
      <!-- x25519 -->
      <g style="fill: #262626" transform="translate(251.755378 403.442987) rotate(-15) scale(0.12 -0.12)">
       <defs>
        <path id="DejaVuSans-78" d="M 3513 3500 
L 2247 1797 
L 3578 0 
L 2900 0 
L 1881 1375 
L 863 0 
L 184 0 
L 1544 1831 
L 300 3500 
L 978 3500 
L 1906 2253 
L 2834 3500 
L 3513 3500 
z
" transform="scale(0.015625)"/>
        <path id="DejaVuSans-31" d="M 794 531 
L 1825 531 
L 1825 4091 
L 703 3866 
L 703 4441 
L 1819 4666 
L 2450 4666 
L 2450 531 
L 3481 531 
L 3481 0 
L 794 0 
L 794 531 
z
" transform="scale(0.015625)"/>
        <path id="DejaVuSans-39" d="M 703 97 
L 703 672 
Q 941 559 1184 500 
Q 1428 441 1663 441 
Q 2288 441 2617 861 
Q 2947 1281 2994 2138 
Q 2813 1869 2534 1725 
Q 2256 1581 1919 1581 
Q 1219 1581 811 2004 
Q 403 2428 403 3163 
Q 403 3881 828 4315 
Q 1253 4750 1959 4750 
Q 2769 4750 3195 4129 
Q 3622 3509 3622 2328 
Q 3622 1225 3098 567 
Q 2575 -91 1691 -91 
Q 1453 -91 1209 -44 
Q 966 3 703 97 
z
M 1959 2075 
Q 2384 2075 2632 2365 
Q 2881 2656 2881 3163 
Q 2881 3666 2632 3958 
Q 2384 4250 1959 4250 
Q 1534 4250 1286 3958 
Q 1038 3666 1038 3163 
Q 1038 2656 1286 2365 
Q 1534 2075 1959 2075 
z
" transform="scale(0.015625)"/>
       </defs>
       <use xlink:href="#DejaVuSans-78"/>
       <use xlink:href="#DejaVuSans-32" x="59.179688"/>
       <use xlink:href="#DejaVuSans-35" x="122.802734"/>
       <use xlink:href="#DejaVuSans-35" x="186.425781"/>
       <use xlink:href="#DejaVuSans-31" x="250.048828"/>
       <use xlink:href="#DejaVuSans-39" x="313.671875"/>
      </g>
     </g>
    </g>
    <g id="xtick_3">
     <g id="text_3">
      <!-- hqc128 -->
      <g style="fill: #262626" transform="translate(410.831845 403.300313) rotate(-15) scale(0.12 -0.12)">
       <defs>
        <path id="DejaVuSans-68" d="M 3513 2113 
L 3513 0 
L 2938 0 
L 2938 2094 
Q 2938 2591 2744 2837 
Q 2550 3084 2163 3084 
Q 1697 3084 1428 2787 
Q 1159 2491 1159 1978 
L 1159 0 
L 581 0 
L 581 4863 
L 1159 4863 
L 1159 2956 
Q 1366 3272 1645 3428 
Q 1925 3584 2291 3584 
Q 2894 3584 3203 3211 
Q 3513 2838 3513 2113 
z
" transform="scale(0.015625)"/>
        <path id="DejaVuSans-71" d="M 947 1747 
Q 947 1113 1208 752 
Q 1469 391 1925 391 
Q 2381 391 2643 752 
Q 2906 1113 2906 1747 
Q 2906 2381 2643 2742 
Q 2381 3103 1925 3103 
Q 1469 3103 1208 2742 
Q 947 2381 947 1747 
z
M 2906 525 
Q 2725 213 2448 61 
Q 2172 -91 1784 -91 
Q 1150 -91 751 415 
Q 353 922 353 1747 
Q 353 2572 751 3078 
Q 1150 3584 1784 3584 
Q 2172 3584 2448 3432 
Q 2725 3281 2906 2969 
L 2906 3500 
L 3481 3500 
L 3481 -1331 
L 2906 -1331 
L 2906 525 
z
" transform="scale(0.015625)"/>
        <path id="DejaVuSans-63" d="M 3122 3366 
L 3122 2828 
Q 2878 2963 2633 3030 
Q 2388 3097 2138 3097 
Q 1578 3097 1268 2742 
Q 959 2388 959 1747 
Q 959 1106 1268 751 
Q 1578 397 2138 397 
Q 2388 397 2633 464 
Q 2878 531 3122 666 
L 3122 134 
Q 2881 22 2623 -34 
Q 2366 -91 2075 -91 
Q 1284 -91 818 406 
Q 353 903 353 1747 
Q 353 2603 823 3093 
Q 1294 3584 2113 3584 
Q 2378 3584 2631 3529 
Q 2884 3475 3122 3366 
z
" transform="scale(0.015625)"/>
        <path id="DejaVuSans-38" d="M 2034 2216 
Q 1584 2216 1326 1975 
Q 1069 1734 1069 1313 
Q 1069 891 1326 650 
Q 1584 409 2034 409 
Q 2484 409 2743 651 
Q 3003 894 3003 1313 
Q 3003 1734 2745 1975 
Q 2488 2216 2034 2216 
z
M 1403 2484 
Q 997 2584 770 2862 
Q 544 3141 544 3541 
Q 544 4100 942 4425 
Q 1341 4750 2034 4750 
Q 2731 4750 3128 4425 
Q 3525 4100 3525 3541 
Q 3525 3141 3298 2862 
Q 3072 2584 2669 2484 
Q 3125 2378 3379 2068 
Q 3634 1759 3634 1313 
Q 3634 634 3220 271 
Q 2806 -91 2034 -91 
Q 1263 -91 848 271 
Q 434 634 434 1313 
Q 434 1759 690 2068 
Q 947 2378 1403 2484 
z
M 1172 3481 
Q 1172 3119 1398 2916 
Q 1625 2713 2034 2713 
Q 2441 2713 2670 2916 
Q 2900 3119 2900 3481 
Q 2900 3844 2670 4047 
Q 2441 4250 2034 4250 
Q 1625 4250 1398 4047 
Q 1172 3844 1172 3481 
z
" transform="scale(0.015625)"/>
       </defs>
       <use xlink:href="#DejaVuSans-68"/>
       <use xlink:href="#DejaVuSans-71" x="63.378906"/>
       <use xlink:href="#DejaVuSans-63" x="126.855469"/>
       <use xlink:href="#DejaVuSans-31" x="181.835938"/>
       <use xlink:href="#DejaVuSans-32" x="245.458984"/>
       <use xlink:href="#DejaVuSans-38" x="309.082031"/>
      </g>
     </g>
    </g>
    <g id="xtick_4">
     <g id="text_4">
      <!-- p256_hqc128 -->
      <g style="fill: #262626" transform="translate(534.010834 412.753193) rotate(-15) scale(0.12 -0.12)">
       <defs>
        <path id="DejaVuSans-70" d="M 1159 525 
L 1159 -1331 
L 581 -1331 
L 581 3500 
L 1159 3500 
L 1159 2969 
Q 1341 3281 1617 3432 
Q 1894 3584 2278 3584 
Q 2916 3584 3314 3078 
Q 3713 2572 3713 1747 
Q 3713 922 3314 415 
Q 2916 -91 2278 -91 
Q 1894 -91 1617 61 
Q 1341 213 1159 525 
z
M 3116 1747 
Q 3116 2381 2855 2742 
Q 2594 3103 2138 3103 
Q 1681 3103 1420 2742 
Q 1159 2381 1159 1747 
Q 1159 1113 1420 752 
Q 1681 391 2138 391 
Q 2594 391 2855 752 
Q 3116 1113 3116 1747 
z
" transform="scale(0.015625)"/>
        <path id="DejaVuSans-5f" d="M 3263 -1063 
L 3263 -1509 
L -63 -1509 
L -63 -1063 
L 3263 -1063 
z
" transform="scale(0.015625)"/>
       </defs>
       <use xlink:href="#DejaVuSans-70"/>
       <use xlink:href="#DejaVuSans-32" x="63.476562"/>
       <use xlink:href="#DejaVuSans-35" x="127.099609"/>
       <use xlink:href="#DejaVuSans-36" x="190.722656"/>
       <use xlink:href="#DejaVuSans-5f" x="254.345703"/>
       <use xlink:href="#DejaVuSans-68" x="304.345703"/>
       <use xlink:href="#DejaVuSans-71" x="367.724609"/>
       <use xlink:href="#DejaVuSans-63" x="431.201172"/>
       <use xlink:href="#DejaVuSans-31" x="486.181641"/>
       <use xlink:href="#DejaVuSans-32" x="549.804688"/>
       <use xlink:href="#DejaVuSans-38" x="613.427734"/>
      </g>
     </g>
    </g>
    <g id="xtick_5">
     <g id="text_5">
      <!-- x25519_hqc128 -->
      <g style="fill: #262626" transform="translate(678.303202 416.571906) rotate(-15) scale(0.12 -0.12)">
       <use xlink:href="#DejaVuSans-78"/>
       <use xlink:href="#DejaVuSans-32" x="59.179688"/>
       <use xlink:href="#DejaVuSans-35" x="122.802734"/>
       <use xlink:href="#DejaVuSans-35" x="186.425781"/>
       <use xlink:href="#DejaVuSans-31" x="250.048828"/>
       <use xlink:href="#DejaVuSans-39" x="313.671875"/>
       <use xlink:href="#DejaVuSans-5f" x="377.294922"/>
       <use xlink:href="#DejaVuSans-68" x="427.294922"/>
       <use xlink:href="#DejaVuSans-71" x="490.673828"/>
       <use xlink:href="#DejaVuSans-63" x="554.150391"/>
       <use xlink:href="#DejaVuSans-31" x="609.130859"/>
       <use xlink:href="#DejaVuSans-32" x="672.753906"/>
       <use xlink:href="#DejaVuSans-38" x="736.376953"/>
      </g>
     </g>
    </g>
   </g>
   <g id="matplotlib.axis_2">
    <g id="ytick_1">
     <g id="line2d_1">
      <path d="M 58.32 365.868411 
L 851.04 365.868411 
" clip-path="url(#pce7a70d213)" style="fill: none; stroke: #cccccc; stroke-linecap: round"/>
     </g>
     <g id="text_6">
      <!-- 800 -->
      <g style="fill: #262626" transform="translate(27.82375 370.047551) scale(0.11 -0.11)">
       <defs>
        <path id="DejaVuSans-30" d="M 2034 4250 
Q 1547 4250 1301 3770 
Q 1056 3291 1056 2328 
Q 1056 1369 1301 889 
Q 1547 409 2034 409 
Q 2525 409 2770 889 
Q 3016 1369 3016 2328 
Q 3016 3291 2770 3770 
Q 2525 4250 2034 4250 
z
M 2034 4750 
Q 2819 4750 3233 4129 
Q 3647 3509 3647 2328 
Q 3647 1150 3233 529 
Q 2819 -91 2034 -91 
Q 1250 -91 836 529 
Q 422 1150 422 2328 
Q 422 3509 836 4129 
Q 1250 4750 2034 4750 
z
" transform="scale(0.015625)"/>
       </defs>
       <use xlink:href="#DejaVuSans-38"/>
       <use xlink:href="#DejaVuSans-30" x="63.623047"/>
       <use xlink:href="#DejaVuSans-30" x="127.246094"/>
      </g>
     </g>
    </g>
    <g id="ytick_2">
     <g id="line2d_2">
      <path d="M 58.32 295.613786 
L 851.04 295.613786 
" clip-path="url(#pce7a70d213)" style="fill: none; stroke: #cccccc; stroke-linecap: round"/>
     </g>
     <g id="text_7">
      <!-- 820 -->
      <g style="fill: #262626" transform="translate(27.82375 299.792927) scale(0.11 -0.11)">
       <use xlink:href="#DejaVuSans-38"/>
       <use xlink:href="#DejaVuSans-32" x="63.623047"/>
       <use xlink:href="#DejaVuSans-30" x="127.246094"/>
      </g>
     </g>
    </g>
    <g id="ytick_3">
     <g id="line2d_3">
      <path d="M 58.32 225.359162 
L 851.04 225.359162 
" clip-path="url(#pce7a70d213)" style="fill: none; stroke: #cccccc; stroke-linecap: round"/>
     </g>
     <g id="text_8">
      <!-- 840 -->
      <g style="fill: #262626" transform="translate(27.82375 229.538303) scale(0.11 -0.11)">
       <defs>
        <path id="DejaVuSans-34" d="M 2419 4116 
L 825 1625 
L 2419 1625 
L 2419 4116 
z
M 2253 4666 
L 3047 4666 
L 3047 1625 
L 3713 1625 
L 3713 1100 
L 3047 1100 
L 3047 0 
L 2419 0 
L 2419 1100 
L 313 1100 
L 313 1709 
L 2253 4666 
z
" transform="scale(0.015625)"/>
       </defs>
       <use xlink:href="#DejaVuSans-38"/>
       <use xlink:href="#DejaVuSans-34" x="63.623047"/>
       <use xlink:href="#DejaVuSans-30" x="127.246094"/>
      </g>
     </g>
    </g>
    <g id="ytick_4">
     <g id="line2d_4">
      <path d="M 58.32 155.104538 
L 851.04 155.104538 
" clip-path="url(#pce7a70d213)" style="fill: none; stroke: #cccccc; stroke-linecap: round"/>
     </g>
     <g id="text_9">
      <!-- 860 -->
      <g style="fill: #262626" transform="translate(27.82375 159.283679) scale(0.11 -0.11)">
       <use xlink:href="#DejaVuSans-38"/>
       <use xlink:href="#DejaVuSans-36" x="63.623047"/>
       <use xlink:href="#DejaVuSans-30" x="127.246094"/>
      </g>
     </g>
    </g>
    <g id="ytick_5">
     <g id="line2d_5">
      <path d="M 58.32 84.849914 
L 851.04 84.849914 
" clip-path="url(#pce7a70d213)" style="fill: none; stroke: #cccccc; stroke-linecap: round"/>
     </g>
     <g id="text_10">
      <!-- 880 -->
      <g style="fill: #262626" transform="translate(27.82375 89.029054) scale(0.11 -0.11)">
       <use xlink:href="#DejaVuSans-38"/>
       <use xlink:href="#DejaVuSans-38" x="63.623047"/>
       <use xlink:href="#DejaVuSans-30" x="127.246094"/>
      </g>
     </g>
    </g>
    <g id="text_11">
     <!-- Handshake duration (ms) -->
     <g style="fill: #262626" transform="translate(21.328125 276.57625) rotate(-90) scale(0.12 -0.12)">
      <defs>
       <path id="DejaVuSans-48" d="M 628 4666 
L 1259 4666 
L 1259 2753 
L 3553 2753 
L 3553 4666 
L 4184 4666 
L 4184 0 
L 3553 0 
L 3553 2222 
L 1259 2222 
L 1259 0 
L 628 0 
L 628 4666 
z
" transform="scale(0.015625)"/>
       <path id="DejaVuSans-61" d="M 2194 1759 
Q 1497 1759 1228 1600 
Q 959 1441 959 1056 
Q 959 750 1161 570 
Q 1363 391 1709 391 
Q 2188 391 2477 730 
Q 2766 1069 2766 1631 
L 2766 1759 
L 2194 1759 
z
M 3341 1997 
L 3341 0 
L 2766 0 
L 2766 531 
Q 2569 213 2275 61 
Q 1981 -91 1556 -91 
Q 1019 -91 701 211 
Q 384 513 384 1019 
Q 384 1609 779 1909 
Q 1175 2209 1959 2209 
L 2766 2209 
L 2766 2266 
Q 2766 2663 2505 2880 
Q 2244 3097 1772 3097 
Q 1472 3097 1187 3025 
Q 903 2953 641 2809 
L 641 3341 
Q 956 3463 1253 3523 
Q 1550 3584 1831 3584 
Q 2591 3584 2966 3190 
Q 3341 2797 3341 1997 
z
" transform="scale(0.015625)"/>
       <path id="DejaVuSans-6e" d="M 3513 2113 
L 3513 0 
L 2938 0 
L 2938 2094 
Q 2938 2591 2744 2837 
Q 2550 3084 2163 3084 
Q 1697 3084 1428 2787 
Q 1159 2491 1159 1978 
L 1159 0 
L 581 0 
L 581 3500 
L 1159 3500 
L 1159 2956 
Q 1366 3272 1645 3428 
Q 1925 3584 2291 3584 
Q 2894 3584 3203 3211 
Q 3513 2838 3513 2113 
z
" transform="scale(0.015625)"/>
       <path id="DejaVuSans-64" d="M 2906 2969 
L 2906 4863 
L 3481 4863 
L 3481 0 
L 2906 0 
L 2906 525 
Q 2725 213 2448 61 
Q 2172 -91 1784 -91 
Q 1150 -91 751 415 
Q 353 922 353 1747 
Q 353 2572 751 3078 
Q 1150 3584 1784 3584 
Q 2172 3584 2448 3432 
Q 2725 3281 2906 2969 
z
M 947 1747 
Q 947 1113 1208 752 
Q 1469 391 1925 391 
Q 2381 391 2643 752 
Q 2906 1113 2906 1747 
Q 2906 2381 2643 2742 
Q 2381 3103 1925 3103 
Q 1469 3103 1208 2742 
Q 947 2381 947 1747 
z
" transform="scale(0.015625)"/>
       <path id="DejaVuSans-73" d="M 2834 3397 
L 2834 2853 
Q 2591 2978 2328 3040 
Q 2066 3103 1784 3103 
Q 1356 3103 1142 2972 
Q 928 2841 928 2578 
Q 928 2378 1081 2264 
Q 1234 2150 1697 2047 
L 1894 2003 
Q 2506 1872 2764 1633 
Q 3022 1394 3022 966 
Q 3022 478 2636 193 
Q 2250 -91 1575 -91 
Q 1294 -91 989 -36 
Q 684 19 347 128 
L 347 722 
Q 666 556 975 473 
Q 1284 391 1588 391 
Q 1994 391 2212 530 
Q 2431 669 2431 922 
Q 2431 1156 2273 1281 
Q 2116 1406 1581 1522 
L 1381 1569 
Q 847 1681 609 1914 
Q 372 2147 372 2553 
Q 372 3047 722 3315 
Q 1072 3584 1716 3584 
Q 2034 3584 2315 3537 
Q 2597 3491 2834 3397 
z
" transform="scale(0.015625)"/>
       <path id="DejaVuSans-6b" d="M 581 4863 
L 1159 4863 
L 1159 1991 
L 2875 3500 
L 3609 3500 
L 1753 1863 
L 3688 0 
L 2938 0 
L 1159 1709 
L 1159 0 
L 581 0 
L 581 4863 
z
" transform="scale(0.015625)"/>
       <path id="DejaVuSans-65" d="M 3597 1894 
L 3597 1613 
L 953 1613 
Q 991 1019 1311 708 
Q 1631 397 2203 397 
Q 2534 397 2845 478 
Q 3156 559 3463 722 
L 3463 178 
Q 3153 47 2828 -22 
Q 2503 -91 2169 -91 
Q 1331 -91 842 396 
Q 353 884 353 1716 
Q 353 2575 817 3079 
Q 1281 3584 2069 3584 
Q 2775 3584 3186 3129 
Q 3597 2675 3597 1894 
z
M 3022 2063 
Q 3016 2534 2758 2815 
Q 2500 3097 2075 3097 
Q 1594 3097 1305 2825 
Q 1016 2553 972 2059 
L 3022 2063 
z
" transform="scale(0.015625)"/>
       <path id="DejaVuSans-20" transform="scale(0.015625)"/>
       <path id="DejaVuSans-75" d="M 544 1381 
L 544 3500 
L 1119 3500 
L 1119 1403 
Q 1119 906 1312 657 
Q 1506 409 1894 409 
Q 2359 409 2629 706 
Q 2900 1003 2900 1516 
L 2900 3500 
L 3475 3500 
L 3475 0 
L 2900 0 
L 2900 538 
Q 2691 219 2414 64 
Q 2138 -91 1772 -91 
Q 1169 -91 856 284 
Q 544 659 544 1381 
z
M 1991 3584 
L 1991 3584 
z
" transform="scale(0.015625)"/>
       <path id="DejaVuSans-72" d="M 2631 2963 
Q 2534 3019 2420 3045 
Q 2306 3072 2169 3072 
Q 1681 3072 1420 2755 
Q 1159 2438 1159 1844 
L 1159 0 
L 581 0 
L 581 3500 
L 1159 3500 
L 1159 2956 
Q 1341 3275 1631 3429 
Q 1922 3584 2338 3584 
Q 2397 3584 2469 3576 
Q 2541 3569 2628 3553 
L 2631 2963 
z
" transform="scale(0.015625)"/>
       <path id="DejaVuSans-74" d="M 1172 4494 
L 1172 3500 
L 2356 3500 
L 2356 3053 
L 1172 3053 
L 1172 1153 
Q 1172 725 1289 603 
Q 1406 481 1766 481 
L 2356 481 
L 2356 0 
L 1766 0 
Q 1100 0 847 248 
Q 594 497 594 1153 
L 594 3053 
L 172 3053 
L 172 3500 
L 594 3500 
L 594 4494 
L 1172 4494 
z
" transform="scale(0.015625)"/>
       <path id="DejaVuSans-69" d="M 603 3500 
L 1178 3500 
L 1178 0 
L 603 0 
L 603 3500 
z
M 603 4863 
L 1178 4863 
L 1178 4134 
L 603 4134 
L 603 4863 
z
" transform="scale(0.015625)"/>
       <path id="DejaVuSans-6f" d="M 1959 3097 
Q 1497 3097 1228 2736 
Q 959 2375 959 1747 
Q 959 1119 1226 758 
Q 1494 397 1959 397 
Q 2419 397 2687 759 
Q 2956 1122 2956 1747 
Q 2956 2369 2687 2733 
Q 2419 3097 1959 3097 
z
M 1959 3584 
Q 2709 3584 3137 3096 
Q 3566 2609 3566 1747 
Q 3566 888 3137 398 
Q 2709 -91 1959 -91 
Q 1206 -91 779 398 
Q 353 888 353 1747 
Q 353 2609 779 3096 
Q 1206 3584 1959 3584 
z
" transform="scale(0.015625)"/>
       <path id="DejaVuSans-28" d="M 1984 4856 
Q 1566 4138 1362 3434 
Q 1159 2731 1159 2009 
Q 1159 1288 1364 580 
Q 1569 -128 1984 -844 
L 1484 -844 
Q 1016 -109 783 600 
Q 550 1309 550 2009 
Q 550 2706 781 3412 
Q 1013 4119 1484 4856 
L 1984 4856 
z
" transform="scale(0.015625)"/>
       <path id="DejaVuSans-6d" d="M 3328 2828 
Q 3544 3216 3844 3400 
Q 4144 3584 4550 3584 
Q 5097 3584 5394 3201 
Q 5691 2819 5691 2113 
L 5691 0 
L 5113 0 
L 5113 2094 
Q 5113 2597 4934 2840 
Q 4756 3084 4391 3084 
Q 3944 3084 3684 2787 
Q 3425 2491 3425 1978 
L 3425 0 
L 2847 0 
L 2847 2094 
Q 2847 2600 2669 2842 
Q 2491 3084 2119 3084 
Q 1678 3084 1418 2786 
Q 1159 2488 1159 1978 
L 1159 0 
L 581 0 
L 581 3500 
L 1159 3500 
L 1159 2956 
Q 1356 3278 1631 3431 
Q 1906 3584 2284 3584 
Q 2666 3584 2933 3390 
Q 3200 3197 3328 2828 
z
" transform="scale(0.015625)"/>
       <path id="DejaVuSans-29" d="M 513 4856 
L 1013 4856 
Q 1481 4119 1714 3412 
Q 1947 2706 1947 2009 
Q 1947 1309 1714 600 
Q 1481 -109 1013 -844 
L 513 -844 
Q 928 -128 1133 580 
Q 1338 1288 1338 2009 
Q 1338 2731 1133 3434 
Q 928 4138 513 4856 
z
" transform="scale(0.015625)"/>
      </defs>
      <use xlink:href="#DejaVuSans-48"/>
      <use xlink:href="#DejaVuSans-61" x="75.195312"/>
      <use xlink:href="#DejaVuSans-6e" x="136.474609"/>
      <use xlink:href="#DejaVuSans-64" x="199.853516"/>
      <use xlink:href="#DejaVuSans-73" x="263.330078"/>
      <use xlink:href="#DejaVuSans-68" x="315.429688"/>
      <use xlink:href="#DejaVuSans-61" x="378.808594"/>
      <use xlink:href="#DejaVuSans-6b" x="440.087891"/>
      <use xlink:href="#DejaVuSans-65" x="494.373047"/>
      <use xlink:href="#DejaVuSans-20" x="555.896484"/>
      <use xlink:href="#DejaVuSans-64" x="587.683594"/>
      <use xlink:href="#DejaVuSans-75" x="651.160156"/>
      <use xlink:href="#DejaVuSans-72" x="714.539062"/>
      <use xlink:href="#DejaVuSans-61" x="755.652344"/>
      <use xlink:href="#DejaVuSans-74" x="816.931641"/>
      <use xlink:href="#DejaVuSans-69" x="856.140625"/>
      <use xlink:href="#DejaVuSans-6f" x="883.923828"/>
      <use xlink:href="#DejaVuSans-6e" x="945.105469"/>
      <use xlink:href="#DejaVuSans-20" x="1008.484375"/>
      <use xlink:href="#DejaVuSans-28" x="1040.271484"/>
      <use xlink:href="#DejaVuSans-6d" x="1079.285156"/>
      <use xlink:href="#DejaVuSans-73" x="1176.697266"/>
      <use xlink:href="#DejaVuSans-29" x="1228.796875"/>
     </g>
    </g>
   </g>
   <g id="PolyCollection_1">
    <defs>
     <path id="maa3fc2f76d" d="M 137.644401 -74.987607 
L 137.539599 -74.987607 
L 137.474995 -75.257192 
L 137.379199 -75.526777 
L 137.276754 -75.796361 
L 137.211609 -76.065946 
L 137.218131 -76.335531 
L 137.292678 -76.605116 
L 137.396685 -76.8747 
L 137.487528 -77.144285 
L 137.543549 -77.41387 
L 137.563192 -77.683454 
L 137.549261 -77.953039 
L 137.499507 -78.222624 
L 137.413389 -78.492209 
L 137.307521 -78.761793 
L 137.21867 -79.031378 
L 137.178558 -79.300963 
L 137.175817 -79.570547 
L 137.145418 -79.840132 
L 137.007939 -80.109717 
L 136.736619 -80.379302 
L 136.402155 -80.648886 
L 136.149759 -80.918471 
L 136.104018 -81.188056 
L 136.26655 -81.45764 
L 136.502377 -81.727225 
L 136.637791 -81.99681 
L 136.579134 -82.266395 
L 136.345631 -82.535979 
L 136.00942 -82.805564 
L 135.626544 -83.075149 
L 135.219656 -83.344733 
L 134.784449 -83.614318 
L 134.273433 -83.883903 
L 133.580206 -84.153488 
L 132.564924 -84.423072 
L 131.083305 -84.692657 
L 128.967413 -84.962242 
L 126.021156 -85.231826 
L 122.131152 -85.501411 
L 117.421502 -85.770996 
L 112.230736 -86.040581 
L 106.852663 -86.310165 
L 101.322204 -86.57975 
L 95.546631 -86.849335 
L 89.645088 -87.118919 
L 84.062707 -87.388504 
L 79.351596 -87.658089 
L 75.950951 -87.927674 
L 74.1744 -88.197258 
L 74.245719 -88.466843 
L 76.260914 -88.736428 
L 80.190153 -89.006012 
L 85.943073 -89.275597 
L 93.31388 -89.545182 
L 101.783756 -89.814767 
L 110.459507 -90.084351 
L 118.326529 -90.353936 
L 124.631055 -90.623521 
L 129.106577 -90.893105 
L 131.949019 -91.16269 
L 133.615811 -91.432275 
L 134.584263 -91.70186 
L 135.197296 -91.971444 
L 135.645108 -92.241029 
L 136.025365 -92.510614 
L 136.389895 -92.780198 
L 136.746903 -93.049783 
L 137.05893 -93.319368 
L 137.269914 -93.588953 
L 137.341689 -93.858537 
L 137.272567 -94.128122 
L 137.102862 -94.397707 
L 136.912618 -94.667291 
L 136.792396 -94.936876 
L 136.787634 -95.206461 
L 136.868692 -95.476046 
L 136.968892 -95.74563 
L 137.051745 -96.015215 
L 137.130868 -96.2848 
L 137.230602 -96.554384 
L 137.347129 -96.823969 
L 137.453284 -97.093554 
L 137.5273 -97.363139 
L 137.567309 -97.632723 
L 137.584282 -97.902308 
L 137.589848 -98.171893 
L 137.590536 -98.441477 
L 137.587397 -98.711062 
L 137.576189 -98.980647 
L 137.547155 -99.250232 
L 137.488342 -99.519816 
L 137.396835 -99.789401 
L 137.292701 -100.058986 
L 137.218134 -100.32857 
L 137.211609 -100.598155 
L 137.276754 -100.86774 
L 137.379199 -101.137325 
L 137.474995 -101.406909 
L 137.539599 -101.676494 
L 137.644401 -101.676494 
L 137.644401 -101.676494 
L 137.709005 -101.406909 
L 137.804801 -101.137325 
L 137.907246 -100.86774 
L 137.972391 -100.598155 
L 137.965866 -100.32857 
L 137.891299 -100.058986 
L 137.787165 -99.789401 
L 137.695658 -99.519816 
L 137.636845 -99.250232 
L 137.607811 -98.980647 
L 137.596603 -98.711062 
L 137.593464 -98.441477 
L 137.594152 -98.171893 
L 137.599718 -97.902308 
L 137.616691 -97.632723 
L 137.6567 -97.363139 
L 137.730716 -97.093554 
L 137.836871 -96.823969 
L 137.953398 -96.554384 
L 138.053132 -96.2848 
L 138.132255 -96.015215 
L 138.215108 -95.74563 
L 138.315308 -95.476046 
L 138.396366 -95.206461 
L 138.391604 -94.936876 
L 138.271382 -94.667291 
L 138.081138 -94.397707 
L 137.911433 -94.128122 
L 137.842311 -93.858537 
L 137.914086 -93.588953 
L 138.12507 -93.319368 
L 138.437097 -93.049783 
L 138.794105 -92.780198 
L 139.158635 -92.510614 
L 139.538892 -92.241029 
L 139.986704 -91.971444 
L 140.599737 -91.70186 
L 141.568189 -91.432275 
L 143.234981 -91.16269 
L 146.077423 -90.893105 
L 150.552945 -90.623521 
L 156.857471 -90.353936 
L 164.724493 -90.084351 
L 173.400244 -89.814767 
L 181.87012 -89.545182 
L 189.240927 -89.275597 
L 194.993847 -89.006012 
L 198.923086 -88.736428 
L 200.938281 -88.466843 
L 201.0096 -88.197258 
L 199.233049 -87.927674 
L 195.832404 -87.658089 
L 191.121293 -87.388504 
L 185.538912 -87.118919 
L 179.637369 -86.849335 
L 173.861796 -86.57975 
L 168.331337 -86.310165 
L 162.953264 -86.040581 
L 157.762498 -85.770996 
L 153.052848 -85.501411 
L 149.162844 -85.231826 
L 146.216587 -84.962242 
L 144.100695 -84.692657 
L 142.619076 -84.423072 
L 141.603794 -84.153488 
L 140.910567 -83.883903 
L 140.399551 -83.614318 
L 139.964344 -83.344733 
L 139.557456 -83.075149 
L 139.17458 -82.805564 
L 138.838369 -82.535979 
L 138.604866 -82.266395 
L 138.546209 -81.99681 
L 138.681623 -81.727225 
L 138.91745 -81.45764 
L 139.079982 -81.188056 
L 139.034241 -80.918471 
L 138.781845 -80.648886 
L 138.447381 -80.379302 
L 138.176061 -80.109717 
L 138.038582 -79.840132 
L 138.008183 -79.570547 
L 138.005442 -79.300963 
L 137.96533 -79.031378 
L 137.876479 -78.761793 
L 137.770611 -78.492209 
L 137.684493 -78.222624 
L 137.634739 -77.953039 
L 137.620808 -77.683454 
L 137.640451 -77.41387 
L 137.696472 -77.144285 
L 137.787315 -76.8747 
L 137.891322 -76.605116 
L 137.965869 -76.335531 
L 137.972391 -76.065946 
L 137.907246 -75.796361 
L 137.804801 -75.526777 
L 137.709005 -75.257192 
L 137.644401 -74.987607 
z
" style="stroke: #595959; stroke-width: 1.25"/>
    </defs>
    <g clip-path="url(#pce7a70d213)">
     <use xlink:href="#maa3fc2f76d" x="0" y="432" style="fill: #72b6a1; stroke: #595959; stroke-width: 1.25"/>
    </g>
   </g>
   <g id="PolyCollection_2">
    <defs>
     <path id="mf4948de68d" d="M 296.184199 -74.302074 
L 296.087801 -74.302074 
L 296.023984 -74.573089 
L 295.927099 -74.844104 
L 295.820169 -75.115119 
L 295.739265 -75.386134 
L 295.699502 -75.65715 
L 295.677561 -75.928165 
L 295.639804 -76.19918 
L 295.583264 -76.470195 
L 295.539675 -76.74121 
L 295.546126 -77.012225 
L 295.618482 -77.28324 
L 295.741546 -77.554255 
L 295.873713 -77.825271 
L 295.965906 -78.096286 
L 295.985076 -78.367301 
L 295.927997 -78.638316 
L 295.822019 -78.909331 
L 295.711656 -79.180346 
L 295.632347 -79.451361 
L 295.591835 -79.722376 
L 295.576199 -79.993392 
L 295.562508 -80.264407 
L 295.520475 -80.535422 
L 295.420368 -80.806437 
L 295.251398 -81.077452 
L 295.018122 -81.348467 
L 294.715321 -81.619482 
L 294.329964 -81.890497 
L 293.869073 -82.161513 
L 293.341015 -82.432528 
L 292.680063 -82.703543 
L 291.726285 -82.974558 
L 290.33542 -83.245573 
L 288.513261 -83.516588 
L 286.403044 -83.787603 
L 284.098661 -84.058618 
L 281.426088 -84.329634 
L 277.871399 -84.600649 
L 272.763048 -84.871664 
L 265.690029 -85.142679 
L 256.966534 -85.413694 
L 247.809493 -85.684709 
L 239.946227 -85.955724 
L 234.773038 -86.226739 
L 232.7184 -86.497755 
L 233.39981 -86.76877 
L 236.306119 -87.039785 
L 241.173195 -87.3108 
L 247.750378 -87.581815 
L 255.441465 -87.85283 
L 263.345902 -88.123845 
L 270.680884 -88.39486 
L 277.101422 -88.665876 
L 282.569227 -88.936891 
L 287.019621 -89.207906 
L 290.294562 -89.478921 
L 292.364449 -89.749936 
L 293.482022 -90.020951 
L 294.067492 -90.291966 
L 294.464546 -90.562981 
L 294.803654 -90.833997 
L 295.05232 -91.105012 
L 295.156441 -91.376027 
L 295.140841 -91.647042 
L 295.10953 -91.918057 
L 295.16936 -92.189072 
L 295.348671 -92.460087 
L 295.580553 -92.731102 
L 295.76224 -93.002118 
L 295.834223 -93.273133 
L 295.815366 -93.544148 
L 295.777627 -93.815163 
L 295.787379 -94.086178 
L 295.859612 -94.357193 
L 295.960414 -94.628208 
L 296.046974 -94.899223 
L 296.100009 -95.170239 
L 296.124401 -95.441254 
L 296.13302 -95.712269 
L 296.13539 -95.983284 
L 296.1359 -96.254299 
L 296.135987 -96.525314 
L 296.135999 -96.796329 
L 296.135999 -97.067344 
L 296.135993 -97.33836 
L 296.135945 -97.609375 
L 296.135641 -97.88039 
L 296.134123 -98.151405 
L 296.128166 -98.42242 
L 296.109943 -98.693435 
L 296.066914 -98.96445 
L 295.98999 -99.235465 
L 295.890024 -99.506481 
L 295.805689 -99.777496 
L 295.782434 -100.048511 
L 295.834326 -100.319526 
L 295.930826 -100.590541 
L 296.024769 -100.861556 
L 296.087933 -101.132571 
L 296.184067 -101.132571 
L 296.184067 -101.132571 
L 296.247231 -100.861556 
L 296.341174 -100.590541 
L 296.437674 -100.319526 
L 296.489566 -100.048511 
L 296.466311 -99.777496 
L 296.381976 -99.506481 
L 296.28201 -99.235465 
L 296.205086 -98.96445 
L 296.162057 -98.693435 
L 296.143834 -98.42242 
L 296.137877 -98.151405 
L 296.136359 -97.88039 
L 296.136055 -97.609375 
L 296.136007 -97.33836 
L 296.136001 -97.067344 
L 296.136001 -96.796329 
L 296.136013 -96.525314 
L 296.1361 -96.254299 
L 296.13661 -95.983284 
L 296.13898 -95.712269 
L 296.147599 -95.441254 
L 296.171991 -95.170239 
L 296.225026 -94.899223 
L 296.311586 -94.628208 
L 296.412388 -94.357193 
L 296.484621 -94.086178 
L 296.494373 -93.815163 
L 296.456634 -93.544148 
L 296.437777 -93.273133 
L 296.50976 -93.002118 
L 296.691447 -92.731102 
L 296.923329 -92.460087 
L 297.10264 -92.189072 
L 297.16247 -91.918057 
L 297.131159 -91.647042 
L 297.115559 -91.376027 
L 297.21968 -91.105012 
L 297.468346 -90.833997 
L 297.807454 -90.562981 
L 298.204508 -90.291966 
L 298.789978 -90.020951 
L 299.907551 -89.749936 
L 301.977438 -89.478921 
L 305.252379 -89.207906 
L 309.702773 -88.936891 
L 315.170578 -88.665876 
L 321.591116 -88.39486 
L 328.926098 -88.123845 
L 336.830535 -87.85283 
L 344.521622 -87.581815 
L 351.098805 -87.3108 
L 355.965881 -87.039785 
L 358.87219 -86.76877 
L 359.5536 -86.497755 
L 357.498962 -86.226739 
L 352.325773 -85.955724 
L 344.462507 -85.684709 
L 335.305466 -85.413694 
L 326.581971 -85.142679 
L 319.508952 -84.871664 
L 314.400601 -84.600649 
L 310.845912 -84.329634 
L 308.173339 -84.058618 
L 305.868956 -83.787603 
L 303.758739 -83.516588 
L 301.93658 -83.245573 
L 300.545715 -82.974558 
L 299.591937 -82.703543 
L 298.930985 -82.432528 
L 298.402927 -82.161513 
L 297.942036 -81.890497 
L 297.556679 -81.619482 
L 297.253878 -81.348467 
L 297.020602 -81.077452 
L 296.851632 -80.806437 
L 296.751525 -80.535422 
L 296.709492 -80.264407 
L 296.695801 -79.993392 
L 296.680165 -79.722376 
L 296.639653 -79.451361 
L 296.560344 -79.180346 
L 296.449981 -78.909331 
L 296.344003 -78.638316 
L 296.286924 -78.367301 
L 296.306094 -78.096286 
L 296.398287 -77.825271 
L 296.530454 -77.554255 
L 296.653518 -77.28324 
L 296.725874 -77.012225 
L 296.732325 -76.74121 
L 296.688736 -76.470195 
L 296.632196 -76.19918 
L 296.594439 -75.928165 
L 296.572498 -75.65715 
L 296.532735 -75.386134 
L 296.451831 -75.115119 
L 296.344901 -74.844104 
L 296.248016 -74.573089 
L 296.184199 -74.302074 
z
" style="stroke: #595959; stroke-width: 1.25"/>
    </defs>
    <g clip-path="url(#pce7a70d213)">
     <use xlink:href="#mf4948de68d" x="0" y="432" style="fill: #e99675; stroke: #595959; stroke-width: 1.25"/>
    </g>
   </g>
   <g id="PolyCollection_3">
    <defs>
     <path id="mdc0b70fc02" d="M 454.725924 -194.022901 
L 454.634076 -194.022901 
L 454.583566 -195.563326 
L 454.506891 -197.103752 
L 454.412071 -198.644177 
L 454.31679 -200.184603 
L 454.237039 -201.725028 
L 454.17443 -203.265454 
L 454.115253 -204.805879 
L 454.042265 -206.346305 
L 453.946086 -207.88673 
L 453.826623 -209.427156 
L 453.69007 -210.967581 
L 453.550558 -212.508007 
L 453.432443 -214.048432 
L 453.36001 -215.588858 
L 453.33211 -217.129283 
L 453.300334 -218.669709 
L 453.176203 -220.210134 
L 452.875558 -221.75056 
L 452.381259 -223.290985 
L 451.786583 -224.831411 
L 451.281156 -226.371836 
L 451.067669 -227.912262 
L 451.248958 -229.452688 
L 451.761707 -230.993113 
L 452.405601 -232.533539 
L 452.939536 -234.073964 
L 453.169439 -235.61439 
L 452.981769 -237.154815 
L 452.335849 -238.695241 
L 451.250209 -240.235666 
L 449.800838 -241.776092 
L 448.129372 -243.316517 
L 446.445897 -244.856943 
L 444.995111 -246.397368 
L 443.954959 -247.937794 
L 443.281586 -249.478219 
L 442.580946 -251.018645 
L 441.113402 -252.55907 
L 437.994106 -254.099496 
L 432.560287 -255.639921 
L 424.766879 -257.180347 
L 415.394516 -258.720772 
L 405.901375 -260.261198 
L 397.951805 -261.801623 
L 392.864995 -263.342049 
L 391.2624 -264.882474 
L 393.046405 -266.4229 
L 397.643195 -267.963325 
L 404.302846 -269.503751 
L 412.259671 -271.044176 
L 420.733153 -272.584602 
L 428.922024 -274.125027 
L 436.112534 -275.665453 
L 441.848405 -277.205878 
L 446.024287 -278.746304 
L 448.83857 -280.286729 
L 450.650077 -281.827155 
L 451.823045 -283.36758 
L 452.625515 -284.908006 
L 453.206079 -286.448432 
L 453.629691 -287.988857 
L 453.926105 -289.529283 
L 454.116827 -291.069708 
L 454.222278 -292.610134 
L 454.266679 -294.150559 
L 454.282999 -295.690985 
L 454.306949 -297.23141 
L 454.360254 -298.771836 
L 454.43984 -300.312261 
L 454.524929 -301.852687 
L 454.59465 -303.393112 
L 454.640104 -304.933538 
L 454.664187 -306.473963 
L 454.674689 -308.014389 
L 454.678489 -309.554814 
L 454.679636 -311.09524 
L 454.679926 -312.635665 
L 454.679987 -314.176091 
L 454.679998 -315.716516 
L 454.68 -317.256942 
L 454.68 -318.797367 
L 454.679998 -320.337793 
L 454.679988 -321.878218 
L 454.679929 -323.418644 
L 454.67965 -324.959069 
L 454.678541 -326.499495 
L 454.674849 -328.03992 
L 454.664605 -329.580346 
L 454.641025 -331.120771 
L 454.59643 -332.661197 
L 454.52823 -334.201622 
L 454.446552 -335.742048 
L 454.375869 -337.282473 
L 454.344416 -338.822899 
L 454.366376 -340.363324 
L 454.431753 -341.90375 
L 454.513571 -343.444176 
L 454.585498 -344.984601 
L 454.634551 -346.525027 
L 454.725449 -346.525027 
L 454.725449 -346.525027 
L 454.774502 -344.984601 
L 454.846429 -343.444176 
L 454.928247 -341.90375 
L 454.993624 -340.363324 
L 455.015584 -338.822899 
L 454.984131 -337.282473 
L 454.913448 -335.742048 
L 454.83177 -334.201622 
L 454.76357 -332.661197 
L 454.718975 -331.120771 
L 454.695395 -329.580346 
L 454.685151 -328.03992 
L 454.681459 -326.499495 
L 454.68035 -324.959069 
L 454.680071 -323.418644 
L 454.680012 -321.878218 
L 454.680002 -320.337793 
L 454.68 -318.797367 
L 454.68 -317.256942 
L 454.680002 -315.716516 
L 454.680013 -314.176091 
L 454.680074 -312.635665 
L 454.680364 -311.09524 
L 454.681511 -309.554814 
L 454.685311 -308.014389 
L 454.695813 -306.473963 
L 454.719896 -304.933538 
L 454.76535 -303.393112 
L 454.835071 -301.852687 
L 454.92016 -300.312261 
L 454.999746 -298.771836 
L 455.053051 -297.23141 
L 455.077001 -295.690985 
L 455.093321 -294.150559 
L 455.137722 -292.610134 
L 455.243173 -291.069708 
L 455.433895 -289.529283 
L 455.730309 -287.988857 
L 456.153921 -286.448432 
L 456.734485 -284.908006 
L 457.536955 -283.36758 
L 458.709923 -281.827155 
L 460.52143 -280.286729 
L 463.335713 -278.746304 
L 467.511595 -277.205878 
L 473.247466 -275.665453 
L 480.437976 -274.125027 
L 488.626847 -272.584602 
L 497.100329 -271.044176 
L 505.057154 -269.503751 
L 511.716805 -267.963325 
L 516.313595 -266.4229 
L 518.0976 -264.882474 
L 516.495005 -263.342049 
L 511.408195 -261.801623 
L 503.458625 -260.261198 
L 493.965484 -258.720772 
L 484.593121 -257.180347 
L 476.799713 -255.639921 
L 471.365894 -254.099496 
L 468.246598 -252.55907 
L 466.779054 -251.018645 
L 466.078414 -249.478219 
L 465.405041 -247.937794 
L 464.364889 -246.397368 
L 462.914103 -244.856943 
L 461.230628 -243.316517 
L 459.559162 -241.776092 
L 458.109791 -240.235666 
L 457.024151 -238.695241 
L 456.378231 -237.154815 
L 456.190561 -235.61439 
L 456.420464 -234.073964 
L 456.954399 -232.533539 
L 457.598293 -230.993113 
L 458.111042 -229.452688 
L 458.292331 -227.912262 
L 458.078844 -226.371836 
L 457.573417 -224.831411 
L 456.978741 -223.290985 
L 456.484442 -221.75056 
L 456.183797 -220.210134 
L 456.059666 -218.669709 
L 456.02789 -217.129283 
L 455.99999 -215.588858 
L 455.927557 -214.048432 
L 455.809442 -212.508007 
L 455.66993 -210.967581 
L 455.533377 -209.427156 
L 455.413914 -207.88673 
L 455.317735 -206.346305 
L 455.244747 -204.805879 
L 455.18557 -203.265454 
L 455.122961 -201.725028 
L 455.04321 -200.184603 
L 454.947929 -198.644177 
L 454.853109 -197.103752 
L 454.776434 -195.563326 
L 454.725924 -194.022901 
z
" style="stroke: #595959; stroke-width: 1.25"/>
    </defs>
    <g clip-path="url(#pce7a70d213)">
     <use xlink:href="#mdc0b70fc02" x="0" y="432" style="fill: #95a3c3; stroke: #595959; stroke-width: 1.25"/>
    </g>
   </g>
   <g id="PolyCollection_4">
    <defs>
     <path id="md48b67b971" d="M 613.272043 -140.555882 
L 613.175957 -140.555882 
L 613.144276 -143.062196 
L 613.095498 -145.568511 
L 613.022454 -148.074826 
L 612.916081 -150.581141 
L 612.76568 -153.087456 
L 612.559872 -155.593771 
L 612.288499 -158.100086 
L 611.945542 -160.6064 
L 611.532677 -163.112715 
L 611.062632 -165.61903 
L 610.561077 -168.125345 
L 610.06582 -170.63166 
L 609.622604 -173.137975 
L 609.277866 -175.644289 
L 609.069981 -178.150604 
L 609.021308 -180.656919 
L 609.133398 -183.163234 
L 609.386787 -185.669549 
L 609.745375 -188.175864 
L 610.163908 -190.682178 
L 610.596265 -193.188493 
L 611.002318 -195.694808 
L 611.352009 -198.201123 
L 611.626443 -200.707438 
L 611.816787 -203.213753 
L 611.922167 -205.720068 
L 611.947557 -208.226382 
L 611.902145 -210.732697 
L 611.798137 -213.239012 
L 611.649678 -215.745327 
L 611.471679 -218.251642 
L 611.278577 -220.757957 
L 611.083294 -223.264271 
L 610.896741 -225.770586 
L 610.727952 -228.276901 
L 610.584684 -230.783216 
L 610.473982 -233.289531 
L 610.402234 -235.795846 
L 610.374435 -238.302161 
L 610.392753 -240.808475 
L 610.454881 -243.31479 
L 610.552751 -245.821105 
L 610.672079 -248.32742 
L 610.792894 -250.833735 
L 610.890859 -253.34005 
L 610.939018 -255.846364 
L 610.909673 -258.352679 
L 610.776251 -260.858994 
L 610.515266 -263.365309 
L 610.108567 -265.871624 
L 609.545903 -268.377939 
L 608.827576 -270.884253 
L 607.966616 -273.390568 
L 606.989627 -275.896883 
L 605.935408 -278.403198 
L 604.850594 -280.909513 
L 603.781947 -283.415828 
L 602.765516 -285.922143 
L 601.813655 -288.428457 
L 600.901749 -290.934772 
L 599.957418 -293.441087 
L 598.855627 -295.947402 
L 597.423434 -298.453717 
L 595.457409 -300.960032 
L 592.754947 -303.466346 
L 589.157451 -305.972661 
L 584.599289 -308.478976 
L 579.152392 -310.985291 
L 573.054046 -313.491606 
L 566.70634 -315.997921 
L 560.640613 -318.504236 
L 555.448616 -321.01055 
L 551.691626 -323.516865 
L 549.8064 -326.02318 
L 550.029509 -328.529495 
L 552.357951 -331.03581 
L 556.554757 -333.542125 
L 562.196696 -336.048439 
L 568.75088 -338.554754 
L 575.661409 -341.061069 
L 582.427289 -343.567384 
L 588.657889 -346.073699 
L 594.099824 -348.580014 
L 598.636513 -351.086328 
L 602.267031 -353.592643 
L 605.073274 -356.098958 
L 607.184261 -358.605273 
L 608.744459 -361.111588 
L 609.890275 -363.617903 
L 610.736109 -366.124218 
L 611.369142 -368.630532 
L 611.85065 -371.136847 
L 612.221092 -373.643162 
L 612.506428 -376.149477 
L 612.723852 -378.655792 
L 612.885969 -381.162107 
L 613.003249 -383.668421 
L 613.085072 -386.174736 
L 613.139905 -388.681051 
L 613.308095 -388.681051 
L 613.308095 -388.681051 
L 613.362928 -386.174736 
L 613.444751 -383.668421 
L 613.562031 -381.162107 
L 613.724148 -378.655792 
L 613.941572 -376.149477 
L 614.226908 -373.643162 
L 614.59735 -371.136847 
L 615.078858 -368.630532 
L 615.711891 -366.124218 
L 616.557725 -363.617903 
L 617.703541 -361.111588 
L 619.263739 -358.605273 
L 621.374726 -356.098958 
L 624.180969 -353.592643 
L 627.811487 -351.086328 
L 632.348176 -348.580014 
L 637.790111 -346.073699 
L 644.020711 -343.567384 
L 650.786591 -341.061069 
L 657.69712 -338.554754 
L 664.251304 -336.048439 
L 669.893243 -333.542125 
L 674.090049 -331.03581 
L 676.418491 -328.529495 
L 676.6416 -326.02318 
L 674.756374 -323.516865 
L 670.999384 -321.01055 
L 665.807387 -318.504236 
L 659.74166 -315.997921 
L 653.393954 -313.491606 
L 647.295608 -310.985291 
L 641.848711 -308.478976 
L 637.290549 -305.972661 
L 633.693053 -303.466346 
L 630.990591 -300.960032 
L 629.024566 -298.453717 
L 627.592373 -295.947402 
L 626.490582 -293.441087 
L 625.546251 -290.934772 
L 624.634345 -288.428457 
L 623.682484 -285.922143 
L 622.666053 -283.415828 
L 621.597406 -280.909513 
L 620.512592 -278.403198 
L 619.458373 -275.896883 
L 618.481384 -273.390568 
L 617.620424 -270.884253 
L 616.902097 -268.377939 
L 616.339433 -265.871624 
L 615.932734 -263.365309 
L 615.671749 -260.858994 
L 615.538327 -258.352679 
L 615.508982 -255.846364 
L 615.557141 -253.34005 
L 615.655106 -250.833735 
L 615.775921 -248.32742 
L 615.895249 -245.821105 
L 615.993119 -243.31479 
L 616.055247 -240.808475 
L 616.073565 -238.302161 
L 616.045766 -235.795846 
L 615.974018 -233.289531 
L 615.863316 -230.783216 
L 615.720048 -228.276901 
L 615.551259 -225.770586 
L 615.364706 -223.264271 
L 615.169423 -220.757957 
L 614.976321 -218.251642 
L 614.798322 -215.745327 
L 614.649863 -213.239012 
L 614.545855 -210.732697 
L 614.500443 -208.226382 
L 614.525833 -205.720068 
L 614.631213 -203.213753 
L 614.821557 -200.707438 
L 615.095991 -198.201123 
L 615.445682 -195.694808 
L 615.851735 -193.188493 
L 616.284092 -190.682178 
L 616.702625 -188.175864 
L 617.061213 -185.669549 
L 617.314602 -183.163234 
L 617.426692 -180.656919 
L 617.378019 -178.150604 
L 617.170134 -175.644289 
L 616.825396 -173.137975 
L 616.38218 -170.63166 
L 615.886923 -168.125345 
L 615.385368 -165.61903 
L 614.915323 -163.112715 
L 614.502458 -160.6064 
L 614.159501 -158.100086 
L 613.888128 -155.593771 
L 613.68232 -153.087456 
L 613.531919 -150.581141 
L 613.425546 -148.074826 
L 613.352502 -145.568511 
L 613.303724 -143.062196 
L 613.272043 -140.555882 
z
" style="stroke: #595959; stroke-width: 1.25"/>
    </defs>
    <g clip-path="url(#pce7a70d213)">
     <use xlink:href="#md48b67b971" x="0" y="432" style="fill: #db96c0; stroke: #595959; stroke-width: 1.25"/>
    </g>
   </g>
   <g id="PolyCollection_5">
    <defs>
     <path id="m91ebe5a3b6" d="M 771.846072 -106.536053 
L 771.689928 -106.536053 
L 771.640068 -108.430281 
L 771.569047 -110.32451 
L 771.473783 -112.218738 
L 771.353227 -114.112967 
L 771.208899 -116.007195 
L 771.044761 -117.901423 
L 770.866339 -119.795652 
L 770.679201 -121.68988 
L 770.486984 -123.584108 
L 770.289029 -125.478337 
L 770.077401 -127.372565 
L 769.83285 -129.266794 
L 769.519322 -131.161022 
L 769.077138 -133.05525 
L 768.41577 -134.949479 
L 767.408191 -136.843707 
L 765.889876 -138.737936 
L 763.66648 -140.632164 
L 760.534618 -142.526392 
L 756.319015 -144.420621 
L 750.925619 -146.314849 
L 744.403586 -148.209077 
L 737.000703 -150.103306 
L 729.190426 -151.997534 
L 721.649047 -153.891763 
L 715.171996 -155.785991 
L 710.537832 -157.680219 
L 708.3504 -159.574448 
L 708.903803 -161.468676 
L 712.112852 -163.362904 
L 717.532208 -165.257133 
L 724.457939 -167.151361 
L 732.078372 -169.04559 
L 739.628253 -170.939818 
L 746.505327 -172.834046 
L 752.326968 -174.728275 
L 756.926763 -176.622503 
L 760.30796 -178.516732 
L 762.577789 -180.41096 
L 763.884603 -182.305188 
L 764.372313 -184.199417 
L 764.15782 -186.093645 
L 763.329873 -187.987873 
L 761.963145 -189.882102 
L 760.139295 -191.77633 
L 757.966953 -193.670559 
L 755.594158 -195.564787 
L 753.209244 -197.459015 
L 751.028855 -199.353244 
L 749.27457 -201.247472 
L 748.142235 -203.1417 
L 747.770266 -205.035929 
L 748.214301 -206.930157 
L 749.434992 -208.824386 
L 751.303054 -210.718614 
L 753.621439 -212.612842 
L 756.159892 -214.507071 
L 758.693711 -216.401299 
L 761.03757 -218.295528 
L 763.067073 -220.189756 
L 764.724649 -222.083984 
L 766.011041 -223.978213 
L 766.967459 -225.872441 
L 767.655143 -227.766669 
L 768.138447 -229.660898 
L 768.474841 -231.555126 
L 768.711975 -233.449355 
L 768.889247 -235.343583 
L 769.040351 -237.237811 
L 769.194112 -239.13204 
L 769.372841 -241.026268 
L 769.589357 -242.920497 
L 769.844715 -244.814725 
L 770.128318 -246.708953 
L 770.420809 -248.603182 
L 770.698856 -250.49741 
L 770.940219 -252.391638 
L 771.127677 -254.285867 
L 771.251109 -256.180095 
L 771.307893 -258.074324 
L 771.302227 -259.968552 
L 771.244064 -261.86278 
L 771.147949 -263.757009 
L 771.031726 -265.651237 
L 770.914855 -267.545465 
L 770.816233 -269.439694 
L 770.751689 -271.333922 
L 770.731665 -273.228151 
L 770.759705 -275.122379 
L 770.832224 -277.016607 
L 770.93967 -278.910836 
L 771.068764 -280.805064 
L 771.205232 -282.699293 
L 771.33632 -284.593521 
L 771.452567 -286.487749 
L 771.548567 -288.381978 
L 771.622775 -290.276206 
L 771.676632 -292.170434 
L 771.713397 -294.064663 
L 771.822603 -294.064663 
L 771.822603 -294.064663 
L 771.859368 -292.170434 
L 771.913225 -290.276206 
L 771.987433 -288.381978 
L 772.083433 -286.487749 
L 772.19968 -284.593521 
L 772.330768 -282.699293 
L 772.467236 -280.805064 
L 772.59633 -278.910836 
L 772.703776 -277.016607 
L 772.776295 -275.122379 
L 772.804335 -273.228151 
L 772.784311 -271.333922 
L 772.719767 -269.439694 
L 772.621145 -267.545465 
L 772.504274 -265.651237 
L 772.388051 -263.757009 
L 772.291936 -261.86278 
L 772.233773 -259.968552 
L 772.228107 -258.074324 
L 772.284891 -256.180095 
L 772.408323 -254.285867 
L 772.595781 -252.391638 
L 772.837144 -250.49741 
L 773.115191 -248.603182 
L 773.407682 -246.708953 
L 773.691285 -244.814725 
L 773.946643 -242.920497 
L 774.163159 -241.026268 
L 774.341888 -239.13204 
L 774.495649 -237.237811 
L 774.646753 -235.343583 
L 774.824025 -233.449355 
L 775.061159 -231.555126 
L 775.397553 -229.660898 
L 775.880857 -227.766669 
L 776.568541 -225.872441 
L 777.524959 -223.978213 
L 778.811351 -222.083984 
L 780.468927 -220.189756 
L 782.49843 -218.295528 
L 784.842289 -216.401299 
L 787.376108 -214.507071 
L 789.914561 -212.612842 
L 792.232946 -210.718614 
L 794.101008 -208.824386 
L 795.321699 -206.930157 
L 795.765734 -205.035929 
L 795.393765 -203.1417 
L 794.26143 -201.247472 
L 792.507145 -199.353244 
L 790.326756 -197.459015 
L 787.941842 -195.564787 
L 785.569047 -193.670559 
L 783.396705 -191.77633 
L 781.572855 -189.882102 
L 780.206127 -187.987873 
L 779.37818 -186.093645 
L 779.163687 -184.199417 
L 779.651397 -182.305188 
L 780.958211 -180.41096 
L 783.22804 -178.516732 
L 786.609237 -176.622503 
L 791.209032 -174.728275 
L 797.030673 -172.834046 
L 803.907747 -170.939818 
L 811.457628 -169.04559 
L 819.078061 -167.151361 
L 826.003792 -165.257133 
L 831.423148 -163.362904 
L 834.632197 -161.468676 
L 835.1856 -159.574448 
L 832.998168 -157.680219 
L 828.364004 -155.785991 
L 821.886953 -153.891763 
L 814.345574 -151.997534 
L 806.535297 -150.103306 
L 799.132414 -148.209077 
L 792.610381 -146.314849 
L 787.216985 -144.420621 
L 783.001382 -142.526392 
L 779.86952 -140.632164 
L 777.646124 -138.737936 
L 776.127809 -136.843707 
L 775.12023 -134.949479 
L 774.458862 -133.05525 
L 774.016678 -131.161022 
L 773.70315 -129.266794 
L 773.458599 -127.372565 
L 773.246971 -125.478337 
L 773.049016 -123.584108 
L 772.856799 -121.68988 
L 772.669661 -119.795652 
L 772.491239 -117.901423 
L 772.327101 -116.007195 
L 772.182773 -114.112967 
L 772.062217 -112.218738 
L 771.966953 -110.32451 
L 771.895932 -108.430281 
L 771.846072 -106.536053 
z
" style="stroke: #595959; stroke-width: 1.25"/>
    </defs>
    <g clip-path="url(#pce7a70d213)">
     <use xlink:href="#m91ebe5a3b6" x="0" y="432" style="fill: #a2c865; stroke: #595959; stroke-width: 1.25"/>
    </g>
   </g>
   <g id="line2d_6">
    <path d="M 137.592 344.862278 
L 137.592 347.672463 
" clip-path="url(#pce7a70d213)" style="fill: none; stroke: #000000"/>
   </g>
   <g id="line2d_7">
    <path d="M 137.592 342.939058 
L 137.592 340.190346 
" clip-path="url(#pce7a70d213)" style="fill: none; stroke: #000000"/>
   </g>
   <g id="line2d_8">
    <path d="M 131.6466 347.672463 
L 143.5374 347.672463 
" clip-path="url(#pce7a70d213)" style="fill: none; stroke: #000000; stroke-linecap: round"/>
   </g>
   <g id="line2d_9">
    <path d="M 131.6466 340.190346 
L 143.5374 340.190346 
" clip-path="url(#pce7a70d213)" style="fill: none; stroke: #000000; stroke-linecap: round"/>
   </g>
   <g id="line2d_10">
    <path d="M 296.136 346.232243 
L 296.136 348.6209 
" clip-path="url(#pce7a70d213)" style="fill: none; stroke: #000000"/>
   </g>
   <g id="line2d_11">
    <path d="M 296.136 344.58126 
L 296.136 342.508748 
" clip-path="url(#pce7a70d213)" style="fill: none; stroke: #000000"/>
   </g>
   <g id="line2d_12">
    <path d="M 290.1906 348.6209 
L 302.0814 348.6209 
" clip-path="url(#pce7a70d213)" style="fill: none; stroke: #000000; stroke-linecap: round"/>
   </g>
   <g id="line2d_13">
    <path d="M 290.1906 342.508748 
L 302.0814 342.508748 
" clip-path="url(#pce7a70d213)" style="fill: none; stroke: #000000; stroke-linecap: round"/>
   </g>
   <g id="line2d_14">
    <path d="M 454.68 172.062248 
L 454.68 184.962753 
" clip-path="url(#pce7a70d213)" style="fill: none; stroke: #000000"/>
   </g>
   <g id="line2d_15">
    <path d="M 454.68 163.420929 
L 454.68 150.889261 
" clip-path="url(#pce7a70d213)" style="fill: none; stroke: #000000"/>
   </g>
   <g id="line2d_16">
    <path d="M 448.7346 184.962753 
L 460.6254 184.962753 
" clip-path="url(#pce7a70d213)" style="fill: none; stroke: #000000; stroke-linecap: round"/>
   </g>
   <g id="line2d_17">
    <path d="M 448.7346 150.889261 
L 460.6254 150.889261 
" clip-path="url(#pce7a70d213)" style="fill: none; stroke: #000000; stroke-linecap: round"/>
   </g>
   <g id="line2d_18">
    <path d="M 613.224 118.897061 
L 613.224 144.285326 
" clip-path="url(#pce7a70d213)" style="fill: none; stroke: #000000"/>
   </g>
   <g id="line2d_19">
    <path d="M 613.224 101.860315 
L 613.224 76.489614 
" clip-path="url(#pce7a70d213)" style="fill: none; stroke: #000000"/>
   </g>
   <g id="line2d_20">
    <path d="M 607.2786 144.285326 
L 619.1694 144.285326 
" clip-path="url(#pce7a70d213)" style="fill: none; stroke: #000000; stroke-linecap: round"/>
   </g>
   <g id="line2d_21">
    <path d="M 607.2786 76.489614 
L 619.1694 76.489614 
" clip-path="url(#pce7a70d213)" style="fill: none; stroke: #000000; stroke-linecap: round"/>
   </g>
   <g id="line2d_22">
    <path d="M 771.768 272.983016 
L 771.768 309.94573 
" clip-path="url(#pce7a70d213)" style="fill: none; stroke: #000000"/>
   </g>
   <g id="line2d_23">
    <path d="M 771.768 231.78746 
L 771.768 185.595045 
" clip-path="url(#pce7a70d213)" style="fill: none; stroke: #000000"/>
   </g>
   <g id="line2d_24">
    <path d="M 765.8226 309.94573 
L 777.7134 309.94573 
" clip-path="url(#pce7a70d213)" style="fill: none; stroke: #000000; stroke-linecap: round"/>
   </g>
   <g id="line2d_25">
    <path d="M 765.8226 185.595045 
L 777.7134 185.595045 
" clip-path="url(#pce7a70d213)" style="fill: none; stroke: #000000; stroke-linecap: round"/>
   </g>
   <g id="line2d_26">
    <path d="M 125.7012 343.878713 
L 149.4828 343.878713 
" clip-path="url(#pce7a70d213)" style="fill: none; stroke: #ff0000; stroke-width: 2"/>
   </g>
   <g id="line2d_27">
    <path d="M 284.2452 345.424315 
L 308.0268 345.424315 
" clip-path="url(#pce7a70d213)" style="fill: none; stroke: #ff0000; stroke-width: 2"/>
   </g>
   <g id="line2d_28">
    <path d="M 442.7892 167.767934 
L 466.5708 167.767934 
" clip-path="url(#pce7a70d213)" style="fill: none; stroke: #ff0000; stroke-width: 2"/>
   </g>
   <g id="line2d_29">
    <path d="M 601.3332 106.98012 
L 625.1148 106.98012 
" clip-path="url(#pce7a70d213)" style="fill: none; stroke: #ff0000; stroke-width: 2"/>
   </g>
   <g id="line2d_30">
    <path d="M 759.8772 269.426375 
L 783.6588 269.426375 
" clip-path="url(#pce7a70d213)" style="fill: none; stroke: #ff0000; stroke-width: 2"/>
   </g>
   <g id="patch_3">
    <path d="M 58.32 373.416875 
L 58.32 27.6 
" style="fill: none; stroke: #cccccc; stroke-width: 1.25; stroke-linejoin: miter; stroke-linecap: square"/>
   </g>
   <g id="patch_4">
    <path d="M 851.04 373.416875 
L 851.04 27.6 
" style="fill: none; stroke: #cccccc; stroke-width: 1.25; stroke-linejoin: miter; stroke-linecap: square"/>
   </g>
   <g id="patch_5">
    <path d="M 58.32 373.416875 
L 851.04 373.416875 
" style="fill: none; stroke: #cccccc; stroke-width: 1.25; stroke-linejoin: miter; stroke-linecap: square"/>
   </g>
   <g id="patch_6">
    <path d="M 58.32 27.6 
L 851.04 27.6 
" style="fill: none; stroke: #cccccc; stroke-width: 1.25; stroke-linejoin: miter; stroke-linecap: square"/>
   </g>
   <g id="text_12">
    <!-- Handshake duration on TLS with mldsa44 signature algorithm — Backbone (200ms/4%) -->
    <g style="fill: #262626" transform="translate(190.830937 21.6) scale(0.12 -0.12)">
     <defs>
      <path id="DejaVuSans-54" d="M -19 4666 
L 3928 4666 
L 3928 4134 
L 2272 4134 
L 2272 0 
L 1638 0 
L 1638 4134 
L -19 4134 
L -19 4666 
z
" transform="scale(0.015625)"/>
      <path id="DejaVuSans-4c" d="M 628 4666 
L 1259 4666 
L 1259 531 
L 3531 531 
L 3531 0 
L 628 0 
L 628 4666 
z
" transform="scale(0.015625)"/>
      <path id="DejaVuSans-53" d="M 3425 4513 
L 3425 3897 
Q 3066 4069 2747 4153 
Q 2428 4238 2131 4238 
Q 1616 4238 1336 4038 
Q 1056 3838 1056 3469 
Q 1056 3159 1242 3001 
Q 1428 2844 1947 2747 
L 2328 2669 
Q 3034 2534 3370 2195 
Q 3706 1856 3706 1288 
Q 3706 609 3251 259 
Q 2797 -91 1919 -91 
Q 1588 -91 1214 -16 
Q 841 59 441 206 
L 441 856 
Q 825 641 1194 531 
Q 1563 422 1919 422 
Q 2459 422 2753 634 
Q 3047 847 3047 1241 
Q 3047 1584 2836 1778 
Q 2625 1972 2144 2069 
L 1759 2144 
Q 1053 2284 737 2584 
Q 422 2884 422 3419 
Q 422 4038 858 4394 
Q 1294 4750 2059 4750 
Q 2388 4750 2728 4690 
Q 3069 4631 3425 4513 
z
" transform="scale(0.015625)"/>
      <path id="DejaVuSans-77" d="M 269 3500 
L 844 3500 
L 1563 769 
L 2278 3500 
L 2956 3500 
L 3675 769 
L 4391 3500 
L 4966 3500 
L 4050 0 
L 3372 0 
L 2619 2869 
L 1863 0 
L 1184 0 
L 269 3500 
z
" transform="scale(0.015625)"/>
      <path id="DejaVuSans-6c" d="M 603 4863 
L 1178 4863 
L 1178 0 
L 603 0 
L 603 4863 
z
" transform="scale(0.015625)"/>
      <path id="DejaVuSans-67" d="M 2906 1791 
Q 2906 2416 2648 2759 
Q 2391 3103 1925 3103 
Q 1463 3103 1205 2759 
Q 947 2416 947 1791 
Q 947 1169 1205 825 
Q 1463 481 1925 481 
Q 2391 481 2648 825 
Q 2906 1169 2906 1791 
z
M 3481 434 
Q 3481 -459 3084 -895 
Q 2688 -1331 1869 -1331 
Q 1566 -1331 1297 -1286 
Q 1028 -1241 775 -1147 
L 775 -588 
Q 1028 -725 1275 -790 
Q 1522 -856 1778 -856 
Q 2344 -856 2625 -561 
Q 2906 -266 2906 331 
L 2906 616 
Q 2728 306 2450 153 
Q 2172 0 1784 0 
Q 1141 0 747 490 
Q 353 981 353 1791 
Q 353 2603 747 3093 
Q 1141 3584 1784 3584 
Q 2172 3584 2450 3431 
Q 2728 3278 2906 2969 
L 2906 3500 
L 3481 3500 
L 3481 434 
z
" transform="scale(0.015625)"/>
      <path id="DejaVuSans-2014" d="M 313 1978 
L 6088 1978 
L 6088 1528 
L 313 1528 
L 313 1978 
z
" transform="scale(0.015625)"/>
      <path id="DejaVuSans-42" d="M 1259 2228 
L 1259 519 
L 2272 519 
Q 2781 519 3026 730 
Q 3272 941 3272 1375 
Q 3272 1813 3026 2020 
Q 2781 2228 2272 2228 
L 1259 2228 
z
M 1259 4147 
L 1259 2741 
L 2194 2741 
Q 2656 2741 2882 2914 
Q 3109 3088 3109 3444 
Q 3109 3797 2882 3972 
Q 2656 4147 2194 4147 
L 1259 4147 
z
M 628 4666 
L 2241 4666 
Q 2963 4666 3353 4366 
Q 3744 4066 3744 3513 
Q 3744 3084 3544 2831 
Q 3344 2578 2956 2516 
Q 3422 2416 3680 2098 
Q 3938 1781 3938 1306 
Q 3938 681 3513 340 
Q 3088 0 2303 0 
L 628 0 
L 628 4666 
z
" transform="scale(0.015625)"/>
      <path id="DejaVuSans-62" d="M 3116 1747 
Q 3116 2381 2855 2742 
Q 2594 3103 2138 3103 
Q 1681 3103 1420 2742 
Q 1159 2381 1159 1747 
Q 1159 1113 1420 752 
Q 1681 391 2138 391 
Q 2594 391 2855 752 
Q 3116 1113 3116 1747 
z
M 1159 2969 
Q 1341 3281 1617 3432 
Q 1894 3584 2278 3584 
Q 2916 3584 3314 3078 
Q 3713 2572 3713 1747 
Q 3713 922 3314 415 
Q 2916 -91 2278 -91 
Q 1894 -91 1617 61 
Q 1341 213 1159 525 
L 1159 0 
L 581 0 
L 581 4863 
L 1159 4863 
L 1159 2969 
z
" transform="scale(0.015625)"/>
      <path id="DejaVuSans-2f" d="M 1625 4666 
L 2156 4666 
L 531 -594 
L 0 -594 
L 1625 4666 
z
" transform="scale(0.015625)"/>
      <path id="DejaVuSans-25" d="M 4653 2053 
Q 4381 2053 4226 1822 
Q 4072 1591 4072 1178 
Q 4072 772 4226 539 
Q 4381 306 4653 306 
Q 4919 306 5073 539 
Q 5228 772 5228 1178 
Q 5228 1588 5073 1820 
Q 4919 2053 4653 2053 
z
M 4653 2450 
Q 5147 2450 5437 2106 
Q 5728 1763 5728 1178 
Q 5728 594 5436 251 
Q 5144 -91 4653 -91 
Q 4153 -91 3862 251 
Q 3572 594 3572 1178 
Q 3572 1766 3864 2108 
Q 4156 2450 4653 2450 
z
M 1428 4353 
Q 1159 4353 1004 4120 
Q 850 3888 850 3481 
Q 850 3069 1003 2837 
Q 1156 2606 1428 2606 
Q 1700 2606 1854 2837 
Q 2009 3069 2009 3481 
Q 2009 3884 1853 4118 
Q 1697 4353 1428 4353 
z
M 4250 4750 
L 4750 4750 
L 1831 -91 
L 1331 -91 
L 4250 4750 
z
M 1428 4750 
Q 1922 4750 2215 4408 
Q 2509 4066 2509 3481 
Q 2509 2891 2217 2550 
Q 1925 2209 1428 2209 
Q 931 2209 642 2551 
Q 353 2894 353 3481 
Q 353 4063 643 4406 
Q 934 4750 1428 4750 
z
" transform="scale(0.015625)"/>
     </defs>
     <use xlink:href="#DejaVuSans-48"/>
     <use xlink:href="#DejaVuSans-61" x="75.195312"/>
     <use xlink:href="#DejaVuSans-6e" x="136.474609"/>
     <use xlink:href="#DejaVuSans-64" x="199.853516"/>
     <use xlink:href="#DejaVuSans-73" x="263.330078"/>
     <use xlink:href="#DejaVuSans-68" x="315.429688"/>
     <use xlink:href="#DejaVuSans-61" x="378.808594"/>
     <use xlink:href="#DejaVuSans-6b" x="440.087891"/>
     <use xlink:href="#DejaVuSans-65" x="494.373047"/>
     <use xlink:href="#DejaVuSans-20" x="555.896484"/>
     <use xlink:href="#DejaVuSans-64" x="587.683594"/>
     <use xlink:href="#DejaVuSans-75" x="651.160156"/>
     <use xlink:href="#DejaVuSans-72" x="714.539062"/>
     <use xlink:href="#DejaVuSans-61" x="755.652344"/>
     <use xlink:href="#DejaVuSans-74" x="816.931641"/>
     <use xlink:href="#DejaVuSans-69" x="856.140625"/>
     <use xlink:href="#DejaVuSans-6f" x="883.923828"/>
     <use xlink:href="#DejaVuSans-6e" x="945.105469"/>
     <use xlink:href="#DejaVuSans-20" x="1008.484375"/>
     <use xlink:href="#DejaVuSans-6f" x="1040.271484"/>
     <use xlink:href="#DejaVuSans-6e" x="1101.453125"/>
     <use xlink:href="#DejaVuSans-20" x="1164.832031"/>
     <use xlink:href="#DejaVuSans-54" x="1196.619141"/>
     <use xlink:href="#DejaVuSans-4c" x="1257.703125"/>
     <use xlink:href="#DejaVuSans-53" x="1313.416016"/>
     <use xlink:href="#DejaVuSans-20" x="1376.892578"/>
     <use xlink:href="#DejaVuSans-77" x="1408.679688"/>
     <use xlink:href="#DejaVuSans-69" x="1490.466797"/>
     <use xlink:href="#DejaVuSans-74" x="1518.25"/>
     <use xlink:href="#DejaVuSans-68" x="1557.458984"/>
     <use xlink:href="#DejaVuSans-20" x="1620.837891"/>
     <use xlink:href="#DejaVuSans-6d" x="1652.625"/>
     <use xlink:href="#DejaVuSans-6c" x="1750.037109"/>
     <use xlink:href="#DejaVuSans-64" x="1777.820312"/>
     <use xlink:href="#DejaVuSans-73" x="1841.296875"/>
     <use xlink:href="#DejaVuSans-61" x="1893.396484"/>
     <use xlink:href="#DejaVuSans-34" x="1954.675781"/>
     <use xlink:href="#DejaVuSans-34" x="2018.298828"/>
     <use xlink:href="#DejaVuSans-20" x="2081.921875"/>
     <use xlink:href="#DejaVuSans-73" x="2113.708984"/>
     <use xlink:href="#DejaVuSans-69" x="2165.808594"/>
     <use xlink:href="#DejaVuSans-67" x="2193.591797"/>
     <use xlink:href="#DejaVuSans-6e" x="2257.068359"/>
     <use xlink:href="#DejaVuSans-61" x="2320.447266"/>
     <use xlink:href="#DejaVuSans-74" x="2381.726562"/>
     <use xlink:href="#DejaVuSans-75" x="2420.935547"/>
     <use xlink:href="#DejaVuSans-72" x="2484.314453"/>
     <use xlink:href="#DejaVuSans-65" x="2523.177734"/>
     <use xlink:href="#DejaVuSans-20" x="2584.701172"/>
     <use xlink:href="#DejaVuSans-61" x="2616.488281"/>
     <use xlink:href="#DejaVuSans-6c" x="2677.767578"/>
     <use xlink:href="#DejaVuSans-67" x="2705.550781"/>
     <use xlink:href="#DejaVuSans-6f" x="2769.027344"/>
     <use xlink:href="#DejaVuSans-72" x="2830.208984"/>
     <use xlink:href="#DejaVuSans-69" x="2871.322266"/>
     <use xlink:href="#DejaVuSans-74" x="2899.105469"/>
     <use xlink:href="#DejaVuSans-68" x="2938.314453"/>
     <use xlink:href="#DejaVuSans-6d" x="3001.693359"/>
     <use xlink:href="#DejaVuSans-20" x="3099.105469"/>
     <use xlink:href="#DejaVuSans-2014" x="3130.892578"/>
     <use xlink:href="#DejaVuSans-20" x="3230.892578"/>
     <use xlink:href="#DejaVuSans-42" x="3262.679688"/>
     <use xlink:href="#DejaVuSans-61" x="3331.283203"/>
     <use xlink:href="#DejaVuSans-63" x="3392.5625"/>
     <use xlink:href="#DejaVuSans-6b" x="3447.542969"/>
     <use xlink:href="#DejaVuSans-62" x="3505.453125"/>
     <use xlink:href="#DejaVuSans-6f" x="3568.929688"/>
     <use xlink:href="#DejaVuSans-6e" x="3630.111328"/>
     <use xlink:href="#DejaVuSans-65" x="3693.490234"/>
     <use xlink:href="#DejaVuSans-20" x="3755.013672"/>
     <use xlink:href="#DejaVuSans-28" x="3786.800781"/>
     <use xlink:href="#DejaVuSans-32" x="3825.814453"/>
     <use xlink:href="#DejaVuSans-30" x="3889.4375"/>
     <use xlink:href="#DejaVuSans-30" x="3953.060547"/>
     <use xlink:href="#DejaVuSans-6d" x="4016.683594"/>
     <use xlink:href="#DejaVuSans-73" x="4114.095703"/>
     <use xlink:href="#DejaVuSans-2f" x="4166.195312"/>
     <use xlink:href="#DejaVuSans-34" x="4199.886719"/>
     <use xlink:href="#DejaVuSans-25" x="4263.509766"/>
     <use xlink:href="#DejaVuSans-29" x="4358.529297"/>
    </g>
   </g>
  </g>
 </g>
 <defs>
  <clipPath id="pce7a70d213">
   <rect x="58.32" y="27.6" width="792.72" height="345.816875"/>
  </clipPath>
 </defs>
</svg>
