<?xml version="1.0" encoding="utf-8" standalone="no"?>
<!DOCTYPE svg PUBLIC "-//W3C//DTD SVG 1.1//EN"
  "http://www.w3.org/Graphics/SVG/1.1/DTD/svg11.dtd">
<svg xmlns:xlink="http://www.w3.org/1999/xlink" width="864pt" height="432pt" viewBox="0 0 864 432" xmlns="http://www.w3.org/2000/svg" version="1.1">
 <metadata>
  <rdf:RDF xmlns:dc="http://purl.org/dc/elements/1.1/" xmlns:cc="http://creativecommons.org/ns#" xmlns:rdf="http://www.w3.org/1999/02/22-rdf-syntax-ns#">
   <cc:Work>
    <dc:type rdf:resource="http://purl.org/dc/dcmitype/StillImage"/>
    <dc:date>2026-03-21T14:06:20.965915</dc:date>
    <dc:format>image/svg+xml</dc:format>
    <dc:creator>
     <cc:Agent>
      <dc:title>Matplotlib v3.6.3, https://matplotlib.org/</dc:title>
     </cc:Agent>
    </dc:creator>
   </cc:Work>
  </rdf:RDF>
 </metadata>
 <defs>
  <style type="text/css">*{stroke-linejoin: round; stroke-linecap: butt}</style>
 </defs>
 <g id="figure_1">
  <g id="patch_1">
   <path d="M 0 432 
L 864 432 
L 864 0 
L 0 0 
z
" style="fill: #ffffff"/>
  </g>
  <g id="axes_1">
   <g id="patch_2">
    <path d="M 58.32 377.237044 
L 851.04 377.237044 
L 851.04 27.6 
L 58.32 27.6 
z
" style="fill: #ffffff"/>
   </g>
   <g id="matplotlib.axis_1">
    <g id="xtick_1">
     <g id="text_1">
      <!-- P-521 -->
      <g style="fill: #262626" transform="translate(156.759421 404.396088) rotate(-15) scale(0.12 -0.12)">
       <defs>
        <path id="DejaVuSans-50" d="M 1259 4147 
L 1259 2394 
L 2053 2394 
Q 2494 2394 2734 2622 
Q 2975 2850 2975 3272 
Q 2975 3691 2734 3919 
Q 2494 4147 2053 4147 
L 1259 4147 
z
M 628 4666 
L 2053 4666 
Q 2838 4666 3239 4311 
Q 3641 3956 3641 3272 
Q 3641 2581 3239 2228 
Q 2838 1875 2053 1875 
L 1259 1875 
L 1259 0 
L 628 0 
L 628 4666 
z
" transform="scale(0.015625)"/>
        <path id="DejaVuSans-2d" d="M 313 2009 
L 1997 2009 
L 1997 1497 
L 313 1497 
L 313 2009 
z
" transform="scale(0.015625)"/>
        <path id="DejaVuSans-35" d="M 691 4666 
L 3169 4666 
L 3169 4134 
L 1269 4134 
L 1269 2991 
Q 1406 3038 1543 3061 
Q 1681 3084 1819 3084 
Q 2600 3084 3056 2656 
Q 3513 2228 3513 1497 
Q 3513 744 3044 326 
Q 2575 -91 1722 -91 
Q 1428 -91 1123 -41 
Q 819 9 494 109 
L 494 744 
Q 775 591 1075 516 
Q 1375 441 1709 441 
Q 2250 441 2565 725 
Q 2881 1009 2881 1497 
Q 2881 1984 2565 2268 
Q 2250 2553 1709 2553 
Q 1456 2553 1204 2497 
Q 953 2441 691 2322 
L 691 4666 
z
" transform="scale(0.015625)"/>
        <path id="DejaVuSans-32" d="M 1228 531 
L 3431 531 
L 3431 0 
L 469 0 
L 469 531 
Q 828 903 1448 1529 
Q 2069 2156 2228 2338 
Q 2531 2678 2651 2914 
Q 2772 3150 2772 3378 
Q 2772 3750 2511 3984 
Q 2250 4219 1831 4219 
Q 1534 4219 1204 4116 
Q 875 4013 500 3803 
L 500 4441 
Q 881 4594 1212 4672 
Q 1544 4750 1819 4750 
Q 2544 4750 2975 4387 
Q 3406 4025 3406 3419 
Q 3406 3131 3298 2873 
Q 3191 2616 2906 2266 
Q 2828 2175 2409 1742 
Q 1991 1309 1228 531 
z
" transform="scale(0.015625)"/>
        <path id="DejaVuSans-31" d="M 794 531 
L 1825 531 
L 1825 4091 
L 703 3866 
L 703 4441 
L 1819 4666 
L 2450 4666 
L 2450 531 
L 3481 531 
L 3481 0 
L 794 0 
L 794 531 
z
" transform="scale(0.015625)"/>
       </defs>
       <use xlink:href="#DejaVuSans-50"/>
       <use xlink:href="#DejaVuSans-2d" x="58.052734"/>
       <use xlink:href="#DejaVuSans-35" x="94.136719"/>
       <use xlink:href="#DejaVuSans-32" x="157.759766"/>
       <use xlink:href="#DejaVuSans-31" x="221.382812"/>
      </g>
     </g>
    </g>
    <g id="xtick_2">
     <g id="text_2">
      <!-- hqc256 -->
      <g style="fill: #262626" transform="translate(410.831845 407.120482) rotate(-15) scale(0.12 -0.12)">
       <defs>
        <path id="DejaVuSans-68" d="M 3513 2113 
L 3513 0 
L 2938 0 
L 2938 2094 
Q 2938 2591 2744 2837 
Q 2550 3084 2163 3084 
Q 1697 3084 1428 2787 
Q 1159 2491 1159 1978 
L 1159 0 
L 581 0 
L 581 4863 
L 1159 4863 
L 1159 2956 
Q 1366 3272 1645 3428 
Q 1925 3584 2291 3584 
Q 2894 3584 3203 3211 
Q 3513 2838 3513 2113 
z
" transform="scale(0.015625)"/>
        <path id="DejaVuSans-71" d="M 947 1747 
Q 947 1113 1208 752 
Q 1469 391 1925 391 
Q 2381 391 2643 752 
Q 2906 1113 2906 1747 
Q 2906 2381 2643 2742 
Q 2381 3103 1925 3103 
Q 1469 3103 1208 2742 
Q 947 2381 947 1747 
z
M 2906 525 
Q 2725 213 2448 61 
Q 2172 -91 1784 -91 
Q 1150 -91 751 415 
Q 353 922 353 1747 
Q 353 2572 751 3078 
Q 1150 3584 1784 3584 
Q 2172 3584 2448 3432 
Q 2725 3281 2906 2969 
L 2906 3500 
L 3481 3500 
L 3481 -1331 
L 2906 -1331 
L 2906 525 
z
" transform="scale(0.015625)"/>
        <path id="DejaVuSans-63" d="M 3122 3366 
L 3122 2828 
Q 2878 2963 2633 3030 
Q 2388 3097 2138 3097 
Q 1578 3097 1268 2742 
Q 959 2388 959 1747 
Q 959 1106 1268 751 
Q 1578 397 2138 397 
Q 2388 397 2633 464 
Q 2878 531 3122 666 
L 3122 134 
Q 2881 22 2623 -34 
Q 2366 -91 2075 -91 
Q 1284 -91 818 406 
Q 353 903 353 1747 
Q 353 2603 823 3093 
Q 1294 3584 2113 3584 
Q 2378 3584 2631 3529 
Q 2884 3475 3122 3366 
z
" transform="scale(0.015625)"/>
        <path id="DejaVuSans-36" d="M 2113 2584 
Q 1688 2584 1439 2293 
Q 1191 2003 1191 1497 
Q 1191 994 1439 701 
Q 1688 409 2113 409 
Q 2538 409 2786 701 
Q 3034 994 3034 1497 
Q 3034 2003 2786 2293 
Q 2538 2584 2113 2584 
z
M 3366 4563 
L 3366 3988 
Q 3128 4100 2886 4159 
Q 2644 4219 2406 4219 
Q 1781 4219 1451 3797 
Q 1122 3375 1075 2522 
Q 1259 2794 1537 2939 
Q 1816 3084 2150 3084 
Q 2853 3084 3261 2657 
Q 3669 2231 3669 1497 
Q 3669 778 3244 343 
Q 2819 -91 2113 -91 
Q 1303 -91 875 529 
Q 447 1150 447 2328 
Q 447 3434 972 4092 
Q 1497 4750 2381 4750 
Q 2619 4750 2861 4703 
Q 3103 4656 3366 4563 
z
" transform="scale(0.015625)"/>
       </defs>
       <use xlink:href="#DejaVuSans-68"/>
       <use xlink:href="#DejaVuSans-71" x="63.378906"/>
       <use xlink:href="#DejaVuSans-63" x="126.855469"/>
       <use xlink:href="#DejaVuSans-32" x="181.835938"/>
       <use xlink:href="#DejaVuSans-35" x="245.458984"/>
       <use xlink:href="#DejaVuSans-36" x="309.082031"/>
      </g>
     </g>
    </g>
    <g id="xtick_3">
     <g id="text_3">
      <!-- p521_hqc256 -->
      <g style="fill: #262626" transform="translate(639.706834 416.573362) rotate(-15) scale(0.12 -0.12)">
       <defs>
        <path id="DejaVuSans-70" d="M 1159 525 
L 1159 -1331 
L 581 -1331 
L 581 3500 
L 1159 3500 
L 1159 2969 
Q 1341 3281 1617 3432 
Q 1894 3584 2278 3584 
Q 2916 3584 3314 3078 
Q 3713 2572 3713 1747 
Q 3713 922 3314 415 
Q 2916 -91 2278 -91 
Q 1894 -91 1617 61 
Q 1341 213 1159 525 
z
M 3116 1747 
Q 3116 2381 2855 2742 
Q 2594 3103 2138 3103 
Q 1681 3103 1420 2742 
Q 1159 2381 1159 1747 
Q 1159 1113 1420 752 
Q 1681 391 2138 391 
Q 2594 391 2855 752 
Q 3116 1113 3116 1747 
z
" transform="scale(0.015625)"/>
        <path id="DejaVuSans-5f" d="M 3263 -1063 
L 3263 -1509 
L -63 -1509 
L -63 -1063 
L 3263 -1063 
z
" transform="scale(0.015625)"/>
       </defs>
       <use xlink:href="#DejaVuSans-70"/>
       <use xlink:href="#DejaVuSans-35" x="63.476562"/>
       <use xlink:href="#DejaVuSans-32" x="127.099609"/>
       <use xlink:href="#DejaVuSans-31" x="190.722656"/>
       <use xlink:href="#DejaVuSans-5f" x="254.345703"/>
       <use xlink:href="#DejaVuSans-68" x="304.345703"/>
       <use xlink:href="#DejaVuSans-71" x="367.724609"/>
       <use xlink:href="#DejaVuSans-63" x="431.201172"/>
       <use xlink:href="#DejaVuSans-32" x="486.181641"/>
       <use xlink:href="#DejaVuSans-35" x="549.804688"/>
       <use xlink:href="#DejaVuSans-36" x="613.427734"/>
      </g>
     </g>
    </g>
   </g>
   <g id="matplotlib.axis_2">
    <g id="ytick_1">
     <g id="line2d_1">
      <path d="M 58.32 370.502003 
L 851.04 370.502003 
" clip-path="url(#pc43f9e8579)" style="fill: none; stroke: #cccccc; stroke-linecap: round"/>
     </g>
     <g id="text_4">
      <!-- 100 -->
      <g style="fill: #262626" transform="translate(27.82375 374.681144) scale(0.11 -0.11)">
       <defs>
        <path id="DejaVuSans-30" d="M 2034 4250 
Q 1547 4250 1301 3770 
Q 1056 3291 1056 2328 
Q 1056 1369 1301 889 
Q 1547 409 2034 409 
Q 2525 409 2770 889 
Q 3016 1369 3016 2328 
Q 3016 3291 2770 3770 
Q 2525 4250 2034 4250 
z
M 2034 4750 
Q 2819 4750 3233 4129 
Q 3647 3509 3647 2328 
Q 3647 1150 3233 529 
Q 2819 -91 2034 -91 
Q 1250 -91 836 529 
Q 422 1150 422 2328 
Q 422 3509 836 4129 
Q 1250 4750 2034 4750 
z
" transform="scale(0.015625)"/>
       </defs>
       <use xlink:href="#DejaVuSans-31"/>
       <use xlink:href="#DejaVuSans-30" x="63.623047"/>
       <use xlink:href="#DejaVuSans-30" x="127.246094"/>
      </g>
     </g>
    </g>
    <g id="ytick_2">
     <g id="line2d_2">
      <path d="M 58.32 320.472107 
L 851.04 320.472107 
" clip-path="url(#pc43f9e8579)" style="fill: none; stroke: #cccccc; stroke-linecap: round"/>
     </g>
     <g id="text_5">
      <!-- 200 -->
      <g style="fill: #262626" transform="translate(27.82375 324.651248) scale(0.11 -0.11)">
       <use xlink:href="#DejaVuSans-32"/>
       <use xlink:href="#DejaVuSans-30" x="63.623047"/>
       <use xlink:href="#DejaVuSans-30" x="127.246094"/>
      </g>
     </g>
    </g>
    <g id="ytick_3">
     <g id="line2d_3">
      <path d="M 58.32 270.442211 
L 851.04 270.442211 
" clip-path="url(#pc43f9e8579)" style="fill: none; stroke: #cccccc; stroke-linecap: round"/>
     </g>
     <g id="text_6">
      <!-- 300 -->
      <g style="fill: #262626" transform="translate(27.82375 274.621352) scale(0.11 -0.11)">
       <defs>
        <path id="DejaVuSans-33" d="M 2597 2516 
Q 3050 2419 3304 2112 
Q 3559 1806 3559 1356 
Q 3559 666 3084 287 
Q 2609 -91 1734 -91 
Q 1441 -91 1130 -33 
Q 819 25 488 141 
L 488 750 
Q 750 597 1062 519 
Q 1375 441 1716 441 
Q 2309 441 2620 675 
Q 2931 909 2931 1356 
Q 2931 1769 2642 2001 
Q 2353 2234 1838 2234 
L 1294 2234 
L 1294 2753 
L 1863 2753 
Q 2328 2753 2575 2939 
Q 2822 3125 2822 3475 
Q 2822 3834 2567 4026 
Q 2313 4219 1838 4219 
Q 1578 4219 1281 4162 
Q 984 4106 628 3988 
L 628 4550 
Q 988 4650 1302 4700 
Q 1616 4750 1894 4750 
Q 2613 4750 3031 4423 
Q 3450 4097 3450 3541 
Q 3450 3153 3228 2886 
Q 3006 2619 2597 2516 
z
" transform="scale(0.015625)"/>
       </defs>
       <use xlink:href="#DejaVuSans-33"/>
       <use xlink:href="#DejaVuSans-30" x="63.623047"/>
       <use xlink:href="#DejaVuSans-30" x="127.246094"/>
      </g>
     </g>
    </g>
    <g id="ytick_4">
     <g id="line2d_4">
      <path d="M 58.32 220.412316 
L 851.04 220.412316 
" clip-path="url(#pc43f9e8579)" style="fill: none; stroke: #cccccc; stroke-linecap: round"/>
     </g>
     <g id="text_7">
      <!-- 400 -->
      <g style="fill: #262626" transform="translate(27.82375 224.591456) scale(0.11 -0.11)">
       <defs>
        <path id="DejaVuSans-34" d="M 2419 4116 
L 825 1625 
L 2419 1625 
L 2419 4116 
z
M 2253 4666 
L 3047 4666 
L 3047 1625 
L 3713 1625 
L 3713 1100 
L 3047 1100 
L 3047 0 
L 2419 0 
L 2419 1100 
L 313 1100 
L 313 1709 
L 2253 4666 
z
" transform="scale(0.015625)"/>
       </defs>
       <use xlink:href="#DejaVuSans-34"/>
       <use xlink:href="#DejaVuSans-30" x="63.623047"/>
       <use xlink:href="#DejaVuSans-30" x="127.246094"/>
      </g>
     </g>
    </g>
    <g id="ytick_5">
     <g id="line2d_5">
      <path d="M 58.32 170.38242 
L 851.04 170.38242 
" clip-path="url(#pc43f9e8579)" style="fill: none; stroke: #cccccc; stroke-linecap: round"/>
     </g>
     <g id="text_8">
      <!-- 500 -->
      <g style="fill: #262626" transform="translate(27.82375 174.56156) scale(0.11 -0.11)">
       <use xlink:href="#DejaVuSans-35"/>
       <use xlink:href="#DejaVuSans-30" x="63.623047"/>
       <use xlink:href="#DejaVuSans-30" x="127.246094"/>
      </g>
     </g>
    </g>
    <g id="ytick_6">
     <g id="line2d_6">
      <path d="M 58.32 120.352524 
L 851.04 120.352524 
" clip-path="url(#pc43f9e8579)" style="fill: none; stroke: #cccccc; stroke-linecap: round"/>
     </g>
     <g id="text_9">
      <!-- 600 -->
      <g style="fill: #262626" transform="translate(27.82375 124.531665) scale(0.11 -0.11)">
       <use xlink:href="#DejaVuSans-36"/>
       <use xlink:href="#DejaVuSans-30" x="63.623047"/>
       <use xlink:href="#DejaVuSans-30" x="127.246094"/>
      </g>
     </g>
    </g>
    <g id="ytick_7">
     <g id="line2d_7">
      <path d="M 58.32 70.322628 
L 851.04 70.322628 
" clip-path="url(#pc43f9e8579)" style="fill: none; stroke: #cccccc; stroke-linecap: round"/>
     </g>
     <g id="text_10">
      <!-- 700 -->
      <g style="fill: #262626" transform="translate(27.82375 74.501769) scale(0.11 -0.11)">
       <defs>
        <path id="DejaVuSans-37" d="M 525 4666 
L 3525 4666 
L 3525 4397 
L 1831 0 
L 1172 0 
L 2766 4134 
L 525 4134 
L 525 4666 
z
" transform="scale(0.015625)"/>
       </defs>
       <use xlink:href="#DejaVuSans-37"/>
       <use xlink:href="#DejaVuSans-30" x="63.623047"/>
       <use xlink:href="#DejaVuSans-30" x="127.246094"/>
      </g>
     </g>
    </g>
    <g id="text_11">
     <!-- Handshake duration (ms) -->
     <g style="fill: #262626" transform="translate(21.328125 278.486335) rotate(-90) scale(0.12 -0.12)">
      <defs>
       <path id="DejaVuSans-48" d="M 628 4666 
L 1259 4666 
L 1259 2753 
L 3553 2753 
L 3553 4666 
L 4184 4666 
L 4184 0 
L 3553 0 
L 3553 2222 
L 1259 2222 
L 1259 0 
L 628 0 
L 628 4666 
z
" transform="scale(0.015625)"/>
       <path id="DejaVuSans-61" d="M 2194 1759 
Q 1497 1759 1228 1600 
Q 959 1441 959 1056 
Q 959 750 1161 570 
Q 1363 391 1709 391 
Q 2188 391 2477 730 
Q 2766 1069 2766 1631 
L 2766 1759 
L 2194 1759 
z
M 3341 1997 
L 3341 0 
L 2766 0 
L 2766 531 
Q 2569 213 2275 61 
Q 1981 -91 1556 -91 
Q 1019 -91 701 211 
Q 384 513 384 1019 
Q 384 1609 779 1909 
Q 1175 2209 1959 2209 
L 2766 2209 
L 2766 2266 
Q 2766 2663 2505 2880 
Q 2244 3097 1772 3097 
Q 1472 3097 1187 3025 
Q 903 2953 641 2809 
L 641 3341 
Q 956 3463 1253 3523 
Q 1550 3584 1831 3584 
Q 2591 3584 2966 3190 
Q 3341 2797 3341 1997 
z
" transform="scale(0.015625)"/>
       <path id="DejaVuSans-6e" d="M 3513 2113 
L 3513 0 
L 2938 0 
L 2938 2094 
Q 2938 2591 2744 2837 
Q 2550 3084 2163 3084 
Q 1697 3084 1428 2787 
Q 1159 2491 1159 1978 
L 1159 0 
L 581 0 
L 581 3500 
L 1159 3500 
L 1159 2956 
Q 1366 3272 1645 3428 
Q 1925 3584 2291 3584 
Q 2894 3584 3203 3211 
Q 3513 2838 3513 2113 
z
" transform="scale(0.015625)"/>
       <path id="DejaVuSans-64" d="M 2906 2969 
L 2906 4863 
L 3481 4863 
L 3481 0 
L 2906 0 
L 2906 525 
Q 2725 213 2448 61 
Q 2172 -91 1784 -91 
Q 1150 -91 751 415 
Q 353 922 353 1747 
Q 353 2572 751 3078 
Q 1150 3584 1784 3584 
Q 2172 3584 2448 3432 
Q 2725 3281 2906 2969 
z
M 947 1747 
Q 947 1113 1208 752 
Q 1469 391 1925 391 
Q 2381 391 2643 752 
Q 2906 1113 2906 1747 
Q 2906 2381 2643 2742 
Q 2381 3103 1925 3103 
Q 1469 3103 1208 2742 
Q 947 2381 947 1747 
z
" transform="scale(0.015625)"/>
       <path id="DejaVuSans-73" d="M 2834 3397 
L 2834 2853 
Q 2591 2978 2328 3040 
Q 2066 3103 1784 3103 
Q 1356 3103 1142 2972 
Q 928 2841 928 2578 
Q 928 2378 1081 2264 
Q 1234 2150 1697 2047 
L 1894 2003 
Q 2506 1872 2764 1633 
Q 3022 1394 3022 966 
Q 3022 478 2636 193 
Q 2250 -91 1575 -91 
Q 1294 -91 989 -36 
Q 684 19 347 128 
L 347 722 
Q 666 556 975 473 
Q 1284 391 1588 391 
Q 1994 391 2212 530 
Q 2431 669 2431 922 
Q 2431 1156 2273 1281 
Q 2116 1406 1581 1522 
L 1381 1569 
Q 847 1681 609 1914 
Q 372 2147 372 2553 
Q 372 3047 722 3315 
Q 1072 3584 1716 3584 
Q 2034 3584 2315 3537 
Q 2597 3491 2834 3397 
z
" transform="scale(0.015625)"/>
       <path id="DejaVuSans-6b" d="M 581 4863 
L 1159 4863 
L 1159 1991 
L 2875 3500 
L 3609 3500 
L 1753 1863 
L 3688 0 
L 2938 0 
L 1159 1709 
L 1159 0 
L 581 0 
L 581 4863 
z
" transform="scale(0.015625)"/>
       <path id="DejaVuSans-65" d="M 3597 1894 
L 3597 1613 
L 953 1613 
Q 991 1019 1311 708 
Q 1631 397 2203 397 
Q 2534 397 2845 478 
Q 3156 559 3463 722 
L 3463 178 
Q 3153 47 2828 -22 
Q 2503 -91 2169 -91 
Q 1331 -91 842 396 
Q 353 884 353 1716 
Q 353 2575 817 3079 
Q 1281 3584 2069 3584 
Q 2775 3584 3186 3129 
Q 3597 2675 3597 1894 
z
M 3022 2063 
Q 3016 2534 2758 2815 
Q 2500 3097 2075 3097 
Q 1594 3097 1305 2825 
Q 1016 2553 972 2059 
L 3022 2063 
z
" transform="scale(0.015625)"/>
       <path id="DejaVuSans-20" transform="scale(0.015625)"/>
       <path id="DejaVuSans-75" d="M 544 1381 
L 544 3500 
L 1119 3500 
L 1119 1403 
Q 1119 906 1312 657 
Q 1506 409 1894 409 
Q 2359 409 2629 706 
Q 2900 1003 2900 1516 
L 2900 3500 
L 3475 3500 
L 3475 0 
L 2900 0 
L 2900 538 
Q 2691 219 2414 64 
Q 2138 -91 1772 -91 
Q 1169 -91 856 284 
Q 544 659 544 1381 
z
M 1991 3584 
L 1991 3584 
z
" transform="scale(0.015625)"/>
       <path id="DejaVuSans-72" d="M 2631 2963 
Q 2534 3019 2420 3045 
Q 2306 3072 2169 3072 
Q 1681 3072 1420 2755 
Q 1159 2438 1159 1844 
L 1159 0 
L 581 0 
L 581 3500 
L 1159 3500 
L 1159 2956 
Q 1341 3275 1631 3429 
Q 1922 3584 2338 3584 
Q 2397 3584 2469 3576 
Q 2541 3569 2628 3553 
L 2631 2963 
z
" transform="scale(0.015625)"/>
       <path id="DejaVuSans-74" d="M 1172 4494 
L 1172 3500 
L 2356 3500 
L 2356 3053 
L 1172 3053 
L 1172 1153 
Q 1172 725 1289 603 
Q 1406 481 1766 481 
L 2356 481 
L 2356 0 
L 1766 0 
Q 1100 0 847 248 
Q 594 497 594 1153 
L 594 3053 
L 172 3053 
L 172 3500 
L 594 3500 
L 594 4494 
L 1172 4494 
z
" transform="scale(0.015625)"/>
       <path id="DejaVuSans-69" d="M 603 3500 
L 1178 3500 
L 1178 0 
L 603 0 
L 603 3500 
z
M 603 4863 
L 1178 4863 
L 1178 4134 
L 603 4134 
L 603 4863 
z
" transform="scale(0.015625)"/>
       <path id="DejaVuSans-6f" d="M 1959 3097 
Q 1497 3097 1228 2736 
Q 959 2375 959 1747 
Q 959 1119 1226 758 
Q 1494 397 1959 397 
Q 2419 397 2687 759 
Q 2956 1122 2956 1747 
Q 2956 2369 2687 2733 
Q 2419 3097 1959 3097 
z
M 1959 3584 
Q 2709 3584 3137 3096 
Q 3566 2609 3566 1747 
Q 3566 888 3137 398 
Q 2709 -91 1959 -91 
Q 1206 -91 779 398 
Q 353 888 353 1747 
Q 353 2609 779 3096 
Q 1206 3584 1959 3584 
z
" transform="scale(0.015625)"/>
       <path id="DejaVuSans-28" d="M 1984 4856 
Q 1566 4138 1362 3434 
Q 1159 2731 1159 2009 
Q 1159 1288 1364 580 
Q 1569 -128 1984 -844 
L 1484 -844 
Q 1016 -109 783 600 
Q 550 1309 550 2009 
Q 550 2706 781 3412 
Q 1013 4119 1484 4856 
L 1984 4856 
z
" transform="scale(0.015625)"/>
       <path id="DejaVuSans-6d" d="M 3328 2828 
Q 3544 3216 3844 3400 
Q 4144 3584 4550 3584 
Q 5097 3584 5394 3201 
Q 5691 2819 5691 2113 
L 5691 0 
L 5113 0 
L 5113 2094 
Q 5113 2597 4934 2840 
Q 4756 3084 4391 3084 
Q 3944 3084 3684 2787 
Q 3425 2491 3425 1978 
L 3425 0 
L 2847 0 
L 2847 2094 
Q 2847 2600 2669 2842 
Q 2491 3084 2119 3084 
Q 1678 3084 1418 2786 
Q 1159 2488 1159 1978 
L 1159 0 
L 581 0 
L 581 3500 
L 1159 3500 
L 1159 2956 
Q 1356 3278 1631 3431 
Q 1906 3584 2284 3584 
Q 2666 3584 2933 3390 
Q 3200 3197 3328 2828 
z
" transform="scale(0.015625)"/>
       <path id="DejaVuSans-29" d="M 513 4856 
L 1013 4856 
Q 1481 4119 1714 3412 
Q 1947 2706 1947 2009 
Q 1947 1309 1714 600 
Q 1481 -109 1013 -844 
L 513 -844 
Q 928 -128 1133 580 
Q 1338 1288 1338 2009 
Q 1338 2731 1133 3434 
Q 928 4138 513 4856 
z
" transform="scale(0.015625)"/>
      </defs>
      <use xlink:href="#DejaVuSans-48"/>
      <use xlink:href="#DejaVuSans-61" x="75.195312"/>
      <use xlink:href="#DejaVuSans-6e" x="136.474609"/>
      <use xlink:href="#DejaVuSans-64" x="199.853516"/>
      <use xlink:href="#DejaVuSans-73" x="263.330078"/>
      <use xlink:href="#DejaVuSans-68" x="315.429688"/>
      <use xlink:href="#DejaVuSans-61" x="378.808594"/>
      <use xlink:href="#DejaVuSans-6b" x="440.087891"/>
      <use xlink:href="#DejaVuSans-65" x="494.373047"/>
      <use xlink:href="#DejaVuSans-20" x="555.896484"/>
      <use xlink:href="#DejaVuSans-64" x="587.683594"/>
      <use xlink:href="#DejaVuSans-75" x="651.160156"/>
      <use xlink:href="#DejaVuSans-72" x="714.539062"/>
      <use xlink:href="#DejaVuSans-61" x="755.652344"/>
      <use xlink:href="#DejaVuSans-74" x="816.931641"/>
      <use xlink:href="#DejaVuSans-69" x="856.140625"/>
      <use xlink:href="#DejaVuSans-6f" x="883.923828"/>
      <use xlink:href="#DejaVuSans-6e" x="945.105469"/>
      <use xlink:href="#DejaVuSans-20" x="1008.484375"/>
      <use xlink:href="#DejaVuSans-28" x="1040.271484"/>
      <use xlink:href="#DejaVuSans-6d" x="1079.285156"/>
      <use xlink:href="#DejaVuSans-73" x="1176.697266"/>
      <use xlink:href="#DejaVuSans-29" x="1228.796875"/>
     </g>
    </g>
   </g>
   <g id="PolyCollection_1">
    <defs>
     <path id="m6a2c54b592" d="M 192.322477 -70.655549 
L 188.557523 -70.655549 
L 186.642947 -73.281066 
L 183.321781 -75.906582 
L 177.991354 -78.532099 
L 170.061717 -81.157616 
L 159.135245 -83.783133 
L 145.254914 -86.40865 
L 129.175141 -89.034166 
L 112.541595 -91.659683 
L 97.810519 -94.2852 
L 87.774736 -96.910717 
L 84.744 -99.536234 
L 89.680069 -102.16175 
L 101.721666 -104.787267 
L 118.395283 -107.412784 
L 136.443409 -110.038301 
L 152.862328 -112.663817 
L 165.670189 -115.289334 
L 174.148873 -117.914851 
L 178.624147 -120.540368 
L 180.039167 -123.165885 
L 179.557722 -125.791401 
L 178.295813 -128.416918 
L 177.16256 -131.042435 
L 176.763357 -133.667952 
L 177.352527 -136.293469 
L 178.853378 -138.918985 
L 180.953591 -141.544502 
L 183.247478 -144.170019 
L 185.371526 -146.795536 
L 187.087599 -149.421052 
L 188.300159 -152.046569 
L 189.025271 -154.672086 
L 189.342347 -157.297603 
L 189.353671 -159.92312 
L 189.161991 -162.548636 
L 188.863423 -165.174153 
L 188.546959 -167.79967 
L 188.292407 -170.425187 
L 188.163054 -173.050704 
L 188.194785 -175.67622 
L 188.387494 -178.301737 
L 188.705264 -180.927254 
L 189.087954 -183.552771 
L 189.4705 -186.178287 
L 189.801711 -188.803804 
L 190.054827 -191.429321 
L 190.227258 -194.054838 
L 190.332572 -196.680355 
L 190.390447 -199.305871 
L 190.419136 -201.931388 
L 190.431985 -204.556905 
L 190.437192 -207.182422 
L 190.439103 -209.807939 
L 190.439739 -212.433455 
L 190.439931 -215.058972 
L 190.439982 -217.684489 
L 190.439992 -220.310006 
L 190.43998 -222.935523 
L 190.439928 -225.561039 
L 190.439752 -228.186556 
L 190.439212 -230.812073 
L 190.437699 -233.43759 
L 190.433818 -236.063106 
L 190.424689 -238.688623 
L 190.40497 -241.31414 
L 190.365802 -243.939657 
L 190.294252 -246.565174 
L 190.174139 -249.19069 
L 189.989324 -251.816207 
L 189.729952 -254.441724 
L 189.400701 -257.067241 
L 189.027879 -259.692758 
L 188.660633 -262.318274 
L 188.362461 -264.943791 
L 188.19355 -267.569308 
L 188.190366 -270.194825 
L 188.352222 -272.820341 
L 188.641925 -275.445858 
L 189.000027 -278.071375 
L 189.36502 -280.696892 
L 189.68984 -283.322409 
L 189.948975 -285.947925 
L 190.136457 -288.573442 
L 190.25888 -291.198959 
L 190.327954 -293.824476 
L 190.355341 -296.449993 
L 190.350609 -299.075509 
L 190.321796 -301.701026 
L 190.277317 -304.326543 
L 190.227541 -306.95206 
L 190.18454 -309.577576 
L 190.159629 -312.203093 
L 190.159803 -314.82861 
L 190.185186 -317.454127 
L 190.229169 -320.079644 
L 190.281302 -322.70516 
L 190.331325 -325.330677 
L 190.372297 -327.956194 
L 190.401629 -330.581711 
L 190.478371 -330.581711 
L 190.478371 -330.581711 
L 190.507703 -327.956194 
L 190.548675 -325.330677 
L 190.598698 -322.70516 
L 190.650831 -320.079644 
L 190.694814 -317.454127 
L 190.720197 -314.82861 
L 190.720371 -312.203093 
L 190.69546 -309.577576 
L 190.652459 -306.95206 
L 190.602683 -304.326543 
L 190.558204 -301.701026 
L 190.529391 -299.075509 
L 190.524659 -296.449993 
L 190.552046 -293.824476 
L 190.62112 -291.198959 
L 190.743543 -288.573442 
L 190.931025 -285.947925 
L 191.19016 -283.322409 
L 191.51498 -280.696892 
L 191.879973 -278.071375 
L 192.238075 -275.445858 
L 192.527778 -272.820341 
L 192.689634 -270.194825 
L 192.68645 -267.569308 
L 192.517539 -264.943791 
L 192.219367 -262.318274 
L 191.852121 -259.692758 
L 191.479299 -257.067241 
L 191.150048 -254.441724 
L 190.890676 -251.816207 
L 190.705861 -249.19069 
L 190.585748 -246.565174 
L 190.514198 -243.939657 
L 190.47503 -241.31414 
L 190.455311 -238.688623 
L 190.446182 -236.063106 
L 190.442301 -233.43759 
L 190.440788 -230.812073 
L 190.440248 -228.186556 
L 190.440072 -225.561039 
L 190.44002 -222.935523 
L 190.440008 -220.310006 
L 190.440018 -217.684489 
L 190.440069 -215.058972 
L 190.440261 -212.433455 
L 190.440897 -209.807939 
L 190.442808 -207.182422 
L 190.448015 -204.556905 
L 190.460864 -201.931388 
L 190.489553 -199.305871 
L 190.547428 -196.680355 
L 190.652742 -194.054838 
L 190.825173 -191.429321 
L 191.078289 -188.803804 
L 191.4095 -186.178287 
L 191.792046 -183.552771 
L 192.174736 -180.927254 
L 192.492506 -178.301737 
L 192.685215 -175.67622 
L 192.716946 -173.050704 
L 192.587593 -170.425187 
L 192.333041 -167.79967 
L 192.016577 -165.174153 
L 191.718009 -162.548636 
L 191.526329 -159.92312 
L 191.537653 -157.297603 
L 191.854729 -154.672086 
L 192.579841 -152.046569 
L 193.792401 -149.421052 
L 195.508474 -146.795536 
L 197.632522 -144.170019 
L 199.926409 -141.544502 
L 202.026622 -138.918985 
L 203.527473 -136.293469 
L 204.116643 -133.667952 
L 203.71744 -131.042435 
L 202.584187 -128.416918 
L 201.322278 -125.791401 
L 200.840833 -123.165885 
L 202.255853 -120.540368 
L 206.731127 -117.914851 
L 215.209811 -115.289334 
L 228.017672 -112.663817 
L 244.436591 -110.038301 
L 262.484717 -107.412784 
L 279.158334 -104.787267 
L 291.199931 -102.16175 
L 296.136 -99.536234 
L 293.105264 -96.910717 
L 283.069481 -94.2852 
L 268.338405 -91.659683 
L 251.704859 -89.034166 
L 235.625086 -86.40865 
L 221.744755 -83.783133 
L 210.818283 -81.157616 
L 202.888646 -78.532099 
L 197.558219 -75.906582 
L 194.237053 -73.281066 
L 192.322477 -70.655549 
z
" style="stroke: #595959; stroke-width: 1.25"/>
    </defs>
    <g clip-path="url(#pc43f9e8579)">
     <use xlink:href="#m6a2c54b592" x="0" y="432" style="fill: #72b6a1; stroke: #595959; stroke-width: 1.25"/>
    </g>
   </g>
   <g id="PolyCollection_2">
    <defs>
     <path id="ma9124906fa" d="M 454.770612 -144.768754 
L 454.589388 -144.768754 
L 454.500057 -147.23076 
L 454.347487 -149.692767 
L 454.104239 -152.154773 
L 453.737455 -154.61678 
L 453.204781 -157.078787 
L 452.44207 -159.540793 
L 451.337567 -162.0028 
L 449.688573 -164.464806 
L 447.143883 -166.926813 
L 443.154372 -169.38882 
L 436.984438 -171.850826 
L 427.859754 -174.312833 
L 415.30298 -176.774839 
L 399.606847 -179.236846 
L 382.238701 -181.698853 
L 365.87078 -184.160859 
L 353.819649 -186.622866 
L 348.984 -189.084872 
L 352.727048 -191.546879 
L 364.283985 -194.008886 
L 381.033727 -196.470892 
L 399.492167 -198.932899 
L 416.497968 -201.394905 
L 430.030829 -203.856912 
L 439.402112 -206.318919 
L 444.935211 -208.780925 
L 447.458223 -211.242932 
L 447.895317 -213.704938 
L 447.069442 -216.166945 
L 445.667402 -218.628952 
L 444.255374 -221.090958 
L 443.266602 -223.552965 
L 442.956715 -226.014971 
L 443.373305 -228.476978 
L 444.383241 -230.938985 
L 445.756976 -233.400991 
L 447.266384 -235.862998 
L 448.746864 -238.325004 
L 450.105551 -240.787011 
L 451.295035 -243.249018 
L 452.285855 -245.711024 
L 453.057217 -248.173031 
L 453.603026 -250.635037 
L 453.939282 -253.097044 
L 454.10303 -255.559051 
L 454.143226 -258.021057 
L 454.109801 -260.483064 
L 454.046328 -262.94507 
L 453.987322 -265.407077 
L 453.957795 -267.869084 
L 453.972493 -270.33109 
L 454.034464 -272.793097 
L 454.134876 -275.255103 
L 454.256039 -277.71711 
L 454.377487 -280.179117 
L 454.482542 -282.641123 
L 454.562356 -285.10313 
L 454.616121 -287.565136 
L 454.648411 -290.027143 
L 454.665728 -292.48915 
L 454.673891 -294.951156 
L 454.676749 -297.413163 
L 454.675736 -299.875169 
L 454.669397 -302.337176 
L 454.652234 -304.799183 
L 454.612726 -307.261189 
L 454.531466 -309.723196 
L 454.381626 -312.185202 
L 454.134765 -314.647209 
L 453.773668 -317.109216 
L 453.309528 -319.571222 
L 452.79493 -322.033229 
L 452.32141 -324.495235 
L 451.995673 -326.957242 
L 451.901139 -329.419249 
L 452.063387 -331.881255 
L 452.438873 -334.343262 
L 452.933608 -336.805268 
L 453.440719 -339.267275 
L 453.876227 -341.729282 
L 454.19699 -344.191288 
L 454.398001 -346.653295 
L 454.497601 -349.115301 
L 454.521966 -351.577308 
L 454.495755 -354.039315 
L 454.439427 -356.501321 
L 454.370057 -358.963328 
L 454.302336 -361.425334 
L 454.248451 -363.887341 
L 454.217255 -366.349348 
L 454.213594 -368.811354 
L 454.238089 -371.273361 
L 454.287213 -373.735367 
L 454.353741 -376.197374 
L 454.427967 -378.659381 
L 454.499828 -381.121387 
L 454.561345 -383.583394 
L 454.608284 -386.0454 
L 454.640338 -388.507407 
L 454.719662 -388.507407 
L 454.719662 -388.507407 
L 454.751716 -386.0454 
L 454.798655 -383.583394 
L 454.860172 -381.121387 
L 454.932033 -378.659381 
L 455.006259 -376.197374 
L 455.072787 -373.735367 
L 455.121911 -371.273361 
L 455.146406 -368.811354 
L 455.142745 -366.349348 
L 455.111549 -363.887341 
L 455.057664 -361.425334 
L 454.989943 -358.963328 
L 454.920573 -356.501321 
L 454.864245 -354.039315 
L 454.838034 -351.577308 
L 454.862399 -349.115301 
L 454.961999 -346.653295 
L 455.16301 -344.191288 
L 455.483773 -341.729282 
L 455.919281 -339.267275 
L 456.426392 -336.805268 
L 456.921127 -334.343262 
L 457.296613 -331.881255 
L 457.458861 -329.419249 
L 457.364327 -326.957242 
L 457.03859 -324.495235 
L 456.56507 -322.033229 
L 456.050472 -319.571222 
L 455.586332 -317.109216 
L 455.225235 -314.647209 
L 454.978374 -312.185202 
L 454.828534 -309.723196 
L 454.747274 -307.261189 
L 454.707766 -304.799183 
L 454.690603 -302.337176 
L 454.684264 -299.875169 
L 454.683251 -297.413163 
L 454.686109 -294.951156 
L 454.694272 -292.48915 
L 454.711589 -290.027143 
L 454.743879 -287.565136 
L 454.797644 -285.10313 
L 454.877458 -282.641123 
L 454.982513 -280.179117 
L 455.103961 -277.71711 
L 455.225124 -275.255103 
L 455.325536 -272.793097 
L 455.387507 -270.33109 
L 455.402205 -267.869084 
L 455.372678 -265.407077 
L 455.313672 -262.94507 
L 455.250199 -260.483064 
L 455.216774 -258.021057 
L 455.25697 -255.559051 
L 455.420718 -253.097044 
L 455.756974 -250.635037 
L 456.302783 -248.173031 
L 457.074145 -245.711024 
L 458.064965 -243.249018 
L 459.254449 -240.787011 
L 460.613136 -238.325004 
L 462.093616 -235.862998 
L 463.603024 -233.400991 
L 464.976759 -230.938985 
L 465.986695 -228.476978 
L 466.403285 -226.014971 
L 466.093398 -223.552965 
L 465.104626 -221.090958 
L 463.692598 -218.628952 
L 462.290558 -216.166945 
L 461.464683 -213.704938 
L 461.901777 -211.242932 
L 464.424789 -208.780925 
L 469.957888 -206.318919 
L 479.329171 -203.856912 
L 492.862032 -201.394905 
L 509.867833 -198.932899 
L 528.326273 -196.470892 
L 545.076015 -194.008886 
L 556.632952 -191.546879 
L 560.376 -189.084872 
L 555.540351 -186.622866 
L 543.48922 -184.160859 
L 527.121299 -181.698853 
L 509.753153 -179.236846 
L 494.05702 -176.774839 
L 481.500246 -174.312833 
L 472.375562 -171.850826 
L 466.205628 -169.38882 
L 462.216117 -166.926813 
L 459.671427 -164.464806 
L 458.022433 -162.0028 
L 456.91793 -159.540793 
L 456.155219 -157.078787 
L 455.622545 -154.61678 
L 455.255761 -152.154773 
L 455.012513 -149.692767 
L 454.859943 -147.23076 
L 454.770612 -144.768754 
z
" style="stroke: #595959; stroke-width: 1.25"/>
    </defs>
    <g clip-path="url(#pc43f9e8579)">
     <use xlink:href="#ma9124906fa" x="0" y="432" style="fill: #e99675; stroke: #595959; stroke-width: 1.25"/>
    </g>
   </g>
   <g id="PolyCollection_3">
    <defs>
     <path id="m14af0a14c4" d="M 718.964622 -157.536634 
L 718.875378 -157.536634 
L 718.827378 -159.826007 
L 718.745766 -162.11538 
L 718.618298 -164.404753 
L 718.42814 -166.694126 
L 718.142776 -168.983499 
L 717.693507 -171.272873 
L 716.94835 -173.562246 
L 715.68288 -175.851619 
L 713.548054 -178.140992 
L 710.026838 -180.430365 
L 704.388071 -182.719738 
L 695.713955 -185.009111 
L 683.164785 -187.298484 
L 666.61192 -189.587858 
L 647.474781 -191.877231 
L 629.156782 -194.166604 
L 616.364449 -196.455977 
L 613.224 -198.74535 
L 621.16689 -201.034723 
L 638.037859 -203.324096 
L 659.126845 -205.613469 
L 679.412763 -207.902843 
L 695.526264 -210.192216 
L 706.406457 -212.481589 
L 712.720644 -214.770962 
L 715.818023 -217.060335 
L 716.9261 -219.349708 
L 716.840109 -221.639081 
L 715.989045 -223.928454 
L 714.651329 -226.217828 
L 713.137519 -228.507201 
L 711.839224 -230.796574 
L 711.133221 -233.085947 
L 711.222448 -235.37532 
L 712.042525 -237.664693 
L 713.312328 -239.954066 
L 714.690931 -242.243439 
L 715.926015 -244.532813 
L 716.907797 -246.822186 
L 717.633276 -249.111559 
L 718.143597 -251.400932 
L 718.48457 -253.690305 
L 718.696682 -255.979678 
L 718.816677 -258.269051 
L 718.877295 -260.558424 
L 718.904335 -262.847798 
L 718.914921 -265.137171 
L 718.918548 -267.426544 
L 718.919635 -269.715917 
L 718.919919 -272.00529 
L 718.919984 -274.294663 
L 718.919997 -276.584036 
L 718.92 -278.873409 
L 718.92 -281.162783 
L 718.92 -283.452156 
L 718.92 -285.741529 
L 718.92 -288.030902 
L 718.92 -290.320275 
L 718.92 -292.609648 
L 718.919999 -294.899021 
L 718.919996 -297.188394 
L 718.91998 -299.477768 
L 718.919908 -301.767141 
L 718.91963 -304.056514 
L 718.918691 -306.345887 
L 718.915901 -308.63526 
L 718.908621 -310.924633 
L 718.891862 -313.214006 
L 718.857637 -315.503379 
L 718.795163 -317.792753 
L 718.692361 -320.082126 
L 718.53885 -322.371499 
L 718.330832 -324.660872 
L 718.078204 -326.950245 
L 717.81193 -329.239618 
L 717.585088 -331.528991 
L 717.459824 -333.818364 
L 717.480838 -336.107738 
L 717.650025 -338.397111 
L 717.921514 -340.686484 
L 718.223013 -342.975857 
L 718.48901 -345.26523 
L 718.683896 -347.554603 
L 718.804048 -349.843976 
L 718.864414 -352.133349 
L 718.882339 -354.422723 
L 718.867726 -356.712096 
L 718.821841 -359.001469 
L 718.743024 -361.290842 
L 718.635848 -363.580215 
L 718.518294 -365.869588 
L 718.420778 -368.158961 
L 718.374732 -370.448334 
L 718.396586 -372.737708 
L 718.478433 -375.027081 
L 718.592612 -377.316454 
L 718.706677 -379.605827 
L 718.797843 -381.8952 
L 718.858525 -384.184573 
L 718.981475 -384.184573 
L 718.981475 -384.184573 
L 719.042157 -381.8952 
L 719.133323 -379.605827 
L 719.247388 -377.316454 
L 719.361567 -375.027081 
L 719.443414 -372.737708 
L 719.465268 -370.448334 
L 719.419222 -368.158961 
L 719.321706 -365.869588 
L 719.204152 -363.580215 
L 719.096976 -361.290842 
L 719.018159 -359.001469 
L 718.972274 -356.712096 
L 718.957661 -354.422723 
L 718.975586 -352.133349 
L 719.035952 -349.843976 
L 719.156104 -347.554603 
L 719.35099 -345.26523 
L 719.616987 -342.975857 
L 719.918486 -340.686484 
L 720.189975 -338.397111 
L 720.359162 -336.107738 
L 720.380176 -333.818364 
L 720.254912 -331.528991 
L 720.02807 -329.239618 
L 719.761796 -326.950245 
L 719.509168 -324.660872 
L 719.30115 -322.371499 
L 719.147639 -320.082126 
L 719.044837 -317.792753 
L 718.982363 -315.503379 
L 718.948138 -313.214006 
L 718.931379 -310.924633 
L 718.924099 -308.63526 
L 718.921309 -306.345887 
L 718.92037 -304.056514 
L 718.920092 -301.767141 
L 718.92002 -299.477768 
L 718.920004 -297.188394 
L 718.920001 -294.899021 
L 718.92 -292.609648 
L 718.92 -290.320275 
L 718.92 -288.030902 
L 718.92 -285.741529 
L 718.92 -283.452156 
L 718.92 -281.162783 
L 718.92 -278.873409 
L 718.920003 -276.584036 
L 718.920016 -274.294663 
L 718.920081 -272.00529 
L 718.920365 -269.715917 
L 718.921452 -267.426544 
L 718.925079 -265.137171 
L 718.935665 -262.847798 
L 718.962705 -260.558424 
L 719.023323 -258.269051 
L 719.143318 -255.979678 
L 719.35543 -253.690305 
L 719.696403 -251.400932 
L 720.206724 -249.111559 
L 720.932203 -246.822186 
L 721.913985 -244.532813 
L 723.149069 -242.243439 
L 724.527672 -239.954066 
L 725.797475 -237.664693 
L 726.617552 -235.37532 
L 726.706779 -233.085947 
L 726.000776 -230.796574 
L 724.702481 -228.507201 
L 723.188671 -226.217828 
L 721.850955 -223.928454 
L 720.999891 -221.639081 
L 720.9139 -219.349708 
L 722.021977 -217.060335 
L 725.119356 -214.770962 
L 731.433543 -212.481589 
L 742.313736 -210.192216 
L 758.427237 -207.902843 
L 778.713155 -205.613469 
L 799.802141 -203.324096 
L 816.67311 -201.034723 
L 824.616 -198.74535 
L 821.475551 -196.455977 
L 808.683218 -194.166604 
L 790.365219 -191.877231 
L 771.22808 -189.587858 
L 754.675215 -187.298484 
L 742.126045 -185.009111 
L 733.451929 -182.719738 
L 727.813162 -180.430365 
L 724.291946 -178.140992 
L 722.15712 -175.851619 
L 720.89165 -173.562246 
L 720.146493 -171.272873 
L 719.697224 -168.983499 
L 719.41186 -166.694126 
L 719.221702 -164.404753 
L 719.094234 -162.11538 
L 719.012622 -159.826007 
L 718.964622 -157.536634 
z
" style="stroke: #595959; stroke-width: 1.25"/>
    </defs>
    <g clip-path="url(#pc43f9e8579)">
     <use xlink:href="#m14af0a14c4" x="0" y="432" style="fill: #95a3c3; stroke: #595959; stroke-width: 1.25"/>
    </g>
   </g>
   <g id="line2d_8">
    <path d="M 190.44 334.025206 
L 190.44 340.919326 
" clip-path="url(#pc43f9e8579)" style="fill: none; stroke: #000000"/>
   </g>
   <g id="line2d_9">
    <path d="M 190.44 329.384933 
L 190.44 325.650201 
" clip-path="url(#pc43f9e8579)" style="fill: none; stroke: #000000"/>
   </g>
   <g id="line2d_10">
    <path d="M 180.531 340.919326 
L 200.349 340.919326 
" clip-path="url(#pc43f9e8579)" style="fill: none; stroke: #000000; stroke-linecap: round"/>
   </g>
   <g id="line2d_11">
    <path d="M 180.531 325.650201 
L 200.349 325.650201 
" clip-path="url(#pc43f9e8579)" style="fill: none; stroke: #000000; stroke-linecap: round"/>
   </g>
   <g id="line2d_12">
    <path d="M 454.68 244.310346 
L 454.68 250.640379 
" clip-path="url(#pc43f9e8579)" style="fill: none; stroke: #000000"/>
   </g>
   <g id="line2d_13">
    <path d="M 454.68 239.841426 
L 454.68 235.416281 
" clip-path="url(#pc43f9e8579)" style="fill: none; stroke: #000000"/>
   </g>
   <g id="line2d_14">
    <path d="M 444.771 250.640379 
L 464.589 250.640379 
" clip-path="url(#pc43f9e8579)" style="fill: none; stroke: #000000; stroke-linecap: round"/>
   </g>
   <g id="line2d_15">
    <path d="M 444.771 235.416281 
L 464.589 235.416281 
" clip-path="url(#pc43f9e8579)" style="fill: none; stroke: #000000; stroke-linecap: round"/>
   </g>
   <g id="line2d_16">
    <path d="M 718.92 235.123606 
L 718.92 240.079068 
" clip-path="url(#pc43f9e8579)" style="fill: none; stroke: #000000"/>
   </g>
   <g id="line2d_17">
    <path d="M 718.92 231.679048 
L 718.92 227.146339 
" clip-path="url(#pc43f9e8579)" style="fill: none; stroke: #000000"/>
   </g>
   <g id="line2d_18">
    <path d="M 709.011 240.079068 
L 728.829 240.079068 
" clip-path="url(#pc43f9e8579)" style="fill: none; stroke: #000000; stroke-linecap: round"/>
   </g>
   <g id="line2d_19">
    <path d="M 709.011 227.146339 
L 728.829 227.146339 
" clip-path="url(#pc43f9e8579)" style="fill: none; stroke: #000000; stroke-linecap: round"/>
   </g>
   <g id="line2d_20">
    <path d="M 170.622 331.498696 
L 210.258 331.498696 
" clip-path="url(#pc43f9e8579)" style="fill: none; stroke: #ff0000; stroke-width: 2"/>
   </g>
   <g id="line2d_21">
    <path d="M 434.862 242.032735 
L 474.498 242.032735 
" clip-path="url(#pc43f9e8579)" style="fill: none; stroke: #ff0000; stroke-width: 2"/>
   </g>
   <g id="line2d_22">
    <path d="M 699.102 233.310023 
L 738.738 233.310023 
" clip-path="url(#pc43f9e8579)" style="fill: none; stroke: #ff0000; stroke-width: 2"/>
   </g>
   <g id="patch_3">
    <path d="M 58.32 377.237044 
L 58.32 27.6 
" style="fill: none; stroke: #cccccc; stroke-width: 1.25; stroke-linejoin: miter; stroke-linecap: square"/>
   </g>
   <g id="patch_4">
    <path d="M 851.04 377.237044 
L 851.04 27.6 
" style="fill: none; stroke: #cccccc; stroke-width: 1.25; stroke-linejoin: miter; stroke-linecap: square"/>
   </g>
   <g id="patch_5">
    <path d="M 58.32 377.237044 
L 851.04 377.237044 
" style="fill: none; stroke: #cccccc; stroke-width: 1.25; stroke-linejoin: miter; stroke-linecap: square"/>
   </g>
   <g id="patch_6">
    <path d="M 58.32 27.6 
L 851.04 27.6 
" style="fill: none; stroke: #cccccc; stroke-width: 1.25; stroke-linejoin: miter; stroke-linecap: square"/>
   </g>
   <g id="text_12">
    <!-- Handshake duration on TLS with mldsa87 signature algorithm — Local YDE (35ms/2%) -->
    <g style="fill: #262626" transform="translate(194.655 21.6) scale(0.12 -0.12)">
     <defs>
      <path id="DejaVuSans-54" d="M -19 4666 
L 3928 4666 
L 3928 4134 
L 2272 4134 
L 2272 0 
L 1638 0 
L 1638 4134 
L -19 4134 
L -19 4666 
z
" transform="scale(0.015625)"/>
      <path id="DejaVuSans-4c" d="M 628 4666 
L 1259 4666 
L 1259 531 
L 3531 531 
L 3531 0 
L 628 0 
L 628 4666 
z
" transform="scale(0.015625)"/>
      <path id="DejaVuSans-53" d="M 3425 4513 
L 3425 3897 
Q 3066 4069 2747 4153 
Q 2428 4238 2131 4238 
Q 1616 4238 1336 4038 
Q 1056 3838 1056 3469 
Q 1056 3159 1242 3001 
Q 1428 2844 1947 2747 
L 2328 2669 
Q 3034 2534 3370 2195 
Q 3706 1856 3706 1288 
Q 3706 609 3251 259 
Q 2797 -91 1919 -91 
Q 1588 -91 1214 -16 
Q 841 59 441 206 
L 441 856 
Q 825 641 1194 531 
Q 1563 422 1919 422 
Q 2459 422 2753 634 
Q 3047 847 3047 1241 
Q 3047 1584 2836 1778 
Q 2625 1972 2144 2069 
L 1759 2144 
Q 1053 2284 737 2584 
Q 422 2884 422 3419 
Q 422 4038 858 4394 
Q 1294 4750 2059 4750 
Q 2388 4750 2728 4690 
Q 3069 4631 3425 4513 
z
" transform="scale(0.015625)"/>
      <path id="DejaVuSans-77" d="M 269 3500 
L 844 3500 
L 1563 769 
L 2278 3500 
L 2956 3500 
L 3675 769 
L 4391 3500 
L 4966 3500 
L 4050 0 
L 3372 0 
L 2619 2869 
L 1863 0 
L 1184 0 
L 269 3500 
z
" transform="scale(0.015625)"/>
      <path id="DejaVuSans-6c" d="M 603 4863 
L 1178 4863 
L 1178 0 
L 603 0 
L 603 4863 
z
" transform="scale(0.015625)"/>
      <path id="DejaVuSans-38" d="M 2034 2216 
Q 1584 2216 1326 1975 
Q 1069 1734 1069 1313 
Q 1069 891 1326 650 
Q 1584 409 2034 409 
Q 2484 409 2743 651 
Q 3003 894 3003 1313 
Q 3003 1734 2745 1975 
Q 2488 2216 2034 2216 
z
M 1403 2484 
Q 997 2584 770 2862 
Q 544 3141 544 3541 
Q 544 4100 942 4425 
Q 1341 4750 2034 4750 
Q 2731 4750 3128 4425 
Q 3525 4100 3525 3541 
Q 3525 3141 3298 2862 
Q 3072 2584 2669 2484 
Q 3125 2378 3379 2068 
Q 3634 1759 3634 1313 
Q 3634 634 3220 271 
Q 2806 -91 2034 -91 
Q 1263 -91 848 271 
Q 434 634 434 1313 
Q 434 1759 690 2068 
Q 947 2378 1403 2484 
z
M 1172 3481 
Q 1172 3119 1398 2916 
Q 1625 2713 2034 2713 
Q 2441 2713 2670 2916 
Q 2900 3119 2900 3481 
Q 2900 3844 2670 4047 
Q 2441 4250 2034 4250 
Q 1625 4250 1398 4047 
Q 1172 3844 1172 3481 
z
" transform="scale(0.015625)"/>
      <path id="DejaVuSans-67" d="M 2906 1791 
Q 2906 2416 2648 2759 
Q 2391 3103 1925 3103 
Q 1463 3103 1205 2759 
Q 947 2416 947 1791 
Q 947 1169 1205 825 
Q 1463 481 1925 481 
Q 2391 481 2648 825 
Q 2906 1169 2906 1791 
z
M 3481 434 
Q 3481 -459 3084 -895 
Q 2688 -1331 1869 -1331 
Q 1566 -1331 1297 -1286 
Q 1028 -1241 775 -1147 
L 775 -588 
Q 1028 -725 1275 -790 
Q 1522 -856 1778 -856 
Q 2344 -856 2625 -561 
Q 2906 -266 2906 331 
L 2906 616 
Q 2728 306 2450 153 
Q 2172 0 1784 0 
Q 1141 0 747 490 
Q 353 981 353 1791 
Q 353 2603 747 3093 
Q 1141 3584 1784 3584 
Q 2172 3584 2450 3431 
Q 2728 3278 2906 2969 
L 2906 3500 
L 3481 3500 
L 3481 434 
z
" transform="scale(0.015625)"/>
      <path id="DejaVuSans-2014" d="M 313 1978 
L 6088 1978 
L 6088 1528 
L 313 1528 
L 313 1978 
z
" transform="scale(0.015625)"/>
      <path id="DejaVuSans-59" d="M -13 4666 
L 666 4666 
L 1959 2747 
L 3244 4666 
L 3922 4666 
L 2272 2222 
L 2272 0 
L 1638 0 
L 1638 2222 
L -13 4666 
z
" transform="scale(0.015625)"/>
      <path id="DejaVuSans-44" d="M 1259 4147 
L 1259 519 
L 2022 519 
Q 2988 519 3436 956 
Q 3884 1394 3884 2338 
Q 3884 3275 3436 3711 
Q 2988 4147 2022 4147 
L 1259 4147 
z
M 628 4666 
L 1925 4666 
Q 3281 4666 3915 4102 
Q 4550 3538 4550 2338 
Q 4550 1131 3912 565 
Q 3275 0 1925 0 
L 628 0 
L 628 4666 
z
" transform="scale(0.015625)"/>
      <path id="DejaVuSans-45" d="M 628 4666 
L 3578 4666 
L 3578 4134 
L 1259 4134 
L 1259 2753 
L 3481 2753 
L 3481 2222 
L 1259 2222 
L 1259 531 
L 3634 531 
L 3634 0 
L 628 0 
L 628 4666 
z
" transform="scale(0.015625)"/>
      <path id="DejaVuSans-2f" d="M 1625 4666 
L 2156 4666 
L 531 -594 
L 0 -594 
L 1625 4666 
z
" transform="scale(0.015625)"/>
      <path id="DejaVuSans-25" d="M 4653 2053 
Q 4381 2053 4226 1822 
Q 4072 1591 4072 1178 
Q 4072 772 4226 539 
Q 4381 306 4653 306 
Q 4919 306 5073 539 
Q 5228 772 5228 1178 
Q 5228 1588 5073 1820 
Q 4919 2053 4653 2053 
z
M 4653 2450 
Q 5147 2450 5437 2106 
Q 5728 1763 5728 1178 
Q 5728 594 5436 251 
Q 5144 -91 4653 -91 
Q 4153 -91 3862 251 
Q 3572 594 3572 1178 
Q 3572 1766 3864 2108 
Q 4156 2450 4653 2450 
z
M 1428 4353 
Q 1159 4353 1004 4120 
Q 850 3888 850 3481 
Q 850 3069 1003 2837 
Q 1156 2606 1428 2606 
Q 1700 2606 1854 2837 
Q 2009 3069 2009 3481 
Q 2009 3884 1853 4118 
Q 1697 4353 1428 4353 
z
M 4250 4750 
L 4750 4750 
L 1831 -91 
L 1331 -91 
L 4250 4750 
z
M 1428 4750 
Q 1922 4750 2215 4408 
Q 2509 4066 2509 3481 
Q 2509 2891 2217 2550 
Q 1925 2209 1428 2209 
Q 931 2209 642 2551 
Q 353 2894 353 3481 
Q 353 4063 643 4406 
Q 934 4750 1428 4750 
z
" transform="scale(0.015625)"/>
     </defs>
     <use xlink:href="#DejaVuSans-48"/>
     <use xlink:href="#DejaVuSans-61" x="75.195312"/>
     <use xlink:href="#DejaVuSans-6e" x="136.474609"/>
     <use xlink:href="#DejaVuSans-64" x="199.853516"/>
     <use xlink:href="#DejaVuSans-73" x="263.330078"/>
     <use xlink:href="#DejaVuSans-68" x="315.429688"/>
     <use xlink:href="#DejaVuSans-61" x="378.808594"/>
     <use xlink:href="#DejaVuSans-6b" x="440.087891"/>
     <use xlink:href="#DejaVuSans-65" x="494.373047"/>
     <use xlink:href="#DejaVuSans-20" x="555.896484"/>
     <use xlink:href="#DejaVuSans-64" x="587.683594"/>
     <use xlink:href="#DejaVuSans-75" x="651.160156"/>
     <use xlink:href="#DejaVuSans-72" x="714.539062"/>
     <use xlink:href="#DejaVuSans-61" x="755.652344"/>
     <use xlink:href="#DejaVuSans-74" x="816.931641"/>
     <use xlink:href="#DejaVuSans-69" x="856.140625"/>
     <use xlink:href="#DejaVuSans-6f" x="883.923828"/>
     <use xlink:href="#DejaVuSans-6e" x="945.105469"/>
     <use xlink:href="#DejaVuSans-20" x="1008.484375"/>
     <use xlink:href="#DejaVuSans-6f" x="1040.271484"/>
     <use xlink:href="#DejaVuSans-6e" x="1101.453125"/>
     <use xlink:href="#DejaVuSans-20" x="1164.832031"/>
     <use xlink:href="#DejaVuSans-54" x="1196.619141"/>
     <use xlink:href="#DejaVuSans-4c" x="1257.703125"/>
     <use xlink:href="#DejaVuSans-53" x="1313.416016"/>
     <use xlink:href="#DejaVuSans-20" x="1376.892578"/>
     <use xlink:href="#DejaVuSans-77" x="1408.679688"/>
     <use xlink:href="#DejaVuSans-69" x="1490.466797"/>
     <use xlink:href="#DejaVuSans-74" x="1518.25"/>
     <use xlink:href="#DejaVuSans-68" x="1557.458984"/>
     <use xlink:href="#DejaVuSans-20" x="1620.837891"/>
     <use xlink:href="#DejaVuSans-6d" x="1652.625"/>
     <use xlink:href="#DejaVuSans-6c" x="1750.037109"/>
     <use xlink:href="#DejaVuSans-64" x="1777.820312"/>
     <use xlink:href="#DejaVuSans-73" x="1841.296875"/>
     <use xlink:href="#DejaVuSans-61" x="1893.396484"/>
     <use xlink:href="#DejaVuSans-38" x="1954.675781"/>
     <use xlink:href="#DejaVuSans-37" x="2018.298828"/>
     <use xlink:href="#DejaVuSans-20" x="2081.921875"/>
     <use xlink:href="#DejaVuSans-73" x="2113.708984"/>
     <use xlink:href="#DejaVuSans-69" x="2165.808594"/>
     <use xlink:href="#DejaVuSans-67" x="2193.591797"/>
     <use xlink:href="#DejaVuSans-6e" x="2257.068359"/>
     <use xlink:href="#DejaVuSans-61" x="2320.447266"/>
     <use xlink:href="#DejaVuSans-74" x="2381.726562"/>
     <use xlink:href="#DejaVuSans-75" x="2420.935547"/>
     <use xlink:href="#DejaVuSans-72" x="2484.314453"/>
     <use xlink:href="#DejaVuSans-65" x="2523.177734"/>
     <use xlink:href="#DejaVuSans-20" x="2584.701172"/>
     <use xlink:href="#DejaVuSans-61" x="2616.488281"/>
     <use xlink:href="#DejaVuSans-6c" x="2677.767578"/>
     <use xlink:href="#DejaVuSans-67" x="2705.550781"/>
     <use xlink:href="#DejaVuSans-6f" x="2769.027344"/>
     <use xlink:href="#DejaVuSans-72" x="2830.208984"/>
     <use xlink:href="#DejaVuSans-69" x="2871.322266"/>
     <use xlink:href="#DejaVuSans-74" x="2899.105469"/>
     <use xlink:href="#DejaVuSans-68" x="2938.314453"/>
     <use xlink:href="#DejaVuSans-6d" x="3001.693359"/>
     <use xlink:href="#DejaVuSans-20" x="3099.105469"/>
     <use xlink:href="#DejaVuSans-2014" x="3130.892578"/>
     <use xlink:href="#DejaVuSans-20" x="3230.892578"/>
     <use xlink:href="#DejaVuSans-4c" x="3262.679688"/>
     <use xlink:href="#DejaVuSans-6f" x="3316.642578"/>
     <use xlink:href="#DejaVuSans-63" x="3377.824219"/>
     <use xlink:href="#DejaVuSans-61" x="3432.804688"/>
     <use xlink:href="#DejaVuSans-6c" x="3494.083984"/>
     <use xlink:href="#DejaVuSans-20" x="3521.867188"/>
     <use xlink:href="#DejaVuSans-59" x="3553.654297"/>
     <use xlink:href="#DejaVuSans-44" x="3614.738281"/>
     <use xlink:href="#DejaVuSans-45" x="3691.740234"/>
     <use xlink:href="#DejaVuSans-20" x="3754.923828"/>
     <use xlink:href="#DejaVuSans-28" x="3786.710938"/>
     <use xlink:href="#DejaVuSans-33" x="3825.724609"/>
     <use xlink:href="#DejaVuSans-35" x="3889.347656"/>
     <use xlink:href="#DejaVuSans-6d" x="3952.970703"/>
     <use xlink:href="#DejaVuSans-73" x="4050.382812"/>
     <use xlink:href="#DejaVuSans-2f" x="4102.482422"/>
     <use xlink:href="#DejaVuSans-32" x="4136.173828"/>
     <use xlink:href="#DejaVuSans-25" x="4199.796875"/>
     <use xlink:href="#DejaVuSans-29" x="4294.816406"/>
    </g>
   </g>
  </g>
 </g>
 <defs>
  <clipPath id="pc43f9e8579">
   <rect x="58.32" y="27.6" width="792.72" height="349.637044"/>
  </clipPath>
 </defs>
</svg>
