<?xml version="1.0" encoding="utf-8" standalone="no"?>
<!DOCTYPE svg PUBLIC "-//W3C//DTD SVG 1.1//EN"
  "http://www.w3.org/Graphics/SVG/1.1/DTD/svg11.dtd">
<svg xmlns:xlink="http://www.w3.org/1999/xlink" width="864pt" height="432pt" viewBox="0 0 864 432" xmlns="http://www.w3.org/2000/svg" version="1.1">
 <metadata>
  <rdf:RDF xmlns:dc="http://purl.org/dc/elements/1.1/" xmlns:cc="http://creativecommons.org/ns#" xmlns:rdf="http://www.w3.org/1999/02/22-rdf-syntax-ns#">
   <cc:Work>
    <dc:type rdf:resource="http://purl.org/dc/dcmitype/StillImage"/>
    <dc:date>2026-03-21T14:06:20.745422</dc:date>
    <dc:format>image/svg+xml</dc:format>
    <dc:creator>
     <cc:Agent>
      <dc:title>Matplotlib v3.6.3, https://matplotlib.org/</dc:title>
     </cc:Agent>
    </dc:creator>
   </cc:Work>
  </rdf:RDF>
 </metadata>
 <defs>
  <style type="text/css">*{stroke-linejoin: round; stroke-linecap: butt}</style>
 </defs>
 <g id="figure_1">
  <g id="patch_1">
   <path d="M 0 432 
L 864 432 
L 864 0 
L 0 0 
z
" style="fill: #ffffff"/>
  </g>
  <g id="axes_1">
   <g id="patch_2">
    <path d="M 58.32 377.237044 
L 851.04 377.237044 
L 851.04 27.6 
L 58.32 27.6 
z
" style="fill: #ffffff"/>
   </g>
   <g id="matplotlib.axis_1">
    <g id="xtick_1">
     <g id="text_1">
      <!-- P-384 -->
      <g style="fill: #262626" transform="translate(103.911421 404.396088) rotate(-15) scale(0.12 -0.12)">
       <defs>
        <path id="DejaVuSans-50" d="M 1259 4147 
L 1259 2394 
L 2053 2394 
Q 2494 2394 2734 2622 
Q 2975 2850 2975 3272 
Q 2975 3691 2734 3919 
Q 2494 4147 2053 4147 
L 1259 4147 
z
M 628 4666 
L 2053 4666 
Q 2838 4666 3239 4311 
Q 3641 3956 3641 3272 
Q 3641 2581 3239 2228 
Q 2838 1875 2053 1875 
L 1259 1875 
L 1259 0 
L 628 0 
L 628 4666 
z
" transform="scale(0.015625)"/>
        <path id="DejaVuSans-2d" d="M 313 2009 
L 1997 2009 
L 1997 1497 
L 313 1497 
L 313 2009 
z
" transform="scale(0.015625)"/>
        <path id="DejaVuSans-33" d="M 2597 2516 
Q 3050 2419 3304 2112 
Q 3559 1806 3559 1356 
Q 3559 666 3084 287 
Q 2609 -91 1734 -91 
Q 1441 -91 1130 -33 
Q 819 25 488 141 
L 488 750 
Q 750 597 1062 519 
Q 1375 441 1716 441 
Q 2309 441 2620 675 
Q 2931 909 2931 1356 
Q 2931 1769 2642 2001 
Q 2353 2234 1838 2234 
L 1294 2234 
L 1294 2753 
L 1863 2753 
Q 2328 2753 2575 2939 
Q 2822 3125 2822 3475 
Q 2822 3834 2567 4026 
Q 2313 4219 1838 4219 
Q 1578 4219 1281 4162 
Q 984 4106 628 3988 
L 628 4550 
Q 988 4650 1302 4700 
Q 1616 4750 1894 4750 
Q 2613 4750 3031 4423 
Q 3450 4097 3450 3541 
Q 3450 3153 3228 2886 
Q 3006 2619 2597 2516 
z
" transform="scale(0.015625)"/>
        <path id="DejaVuSans-38" d="M 2034 2216 
Q 1584 2216 1326 1975 
Q 1069 1734 1069 1313 
Q 1069 891 1326 650 
Q 1584 409 2034 409 
Q 2484 409 2743 651 
Q 3003 894 3003 1313 
Q 3003 1734 2745 1975 
Q 2488 2216 2034 2216 
z
M 1403 2484 
Q 997 2584 770 2862 
Q 544 3141 544 3541 
Q 544 4100 942 4425 
Q 1341 4750 2034 4750 
Q 2731 4750 3128 4425 
Q 3525 4100 3525 3541 
Q 3525 3141 3298 2862 
Q 3072 2584 2669 2484 
Q 3125 2378 3379 2068 
Q 3634 1759 3634 1313 
Q 3634 634 3220 271 
Q 2806 -91 2034 -91 
Q 1263 -91 848 271 
Q 434 634 434 1313 
Q 434 1759 690 2068 
Q 947 2378 1403 2484 
z
M 1172 3481 
Q 1172 3119 1398 2916 
Q 1625 2713 2034 2713 
Q 2441 2713 2670 2916 
Q 2900 3119 2900 3481 
Q 2900 3844 2670 4047 
Q 2441 4250 2034 4250 
Q 1625 4250 1398 4047 
Q 1172 3844 1172 3481 
z
" transform="scale(0.015625)"/>
        <path id="DejaVuSans-34" d="M 2419 4116 
L 825 1625 
L 2419 1625 
L 2419 4116 
z
M 2253 4666 
L 3047 4666 
L 3047 1625 
L 3713 1625 
L 3713 1100 
L 3047 1100 
L 3047 0 
L 2419 0 
L 2419 1100 
L 313 1100 
L 313 1709 
L 2253 4666 
z
" transform="scale(0.015625)"/>
       </defs>
       <use xlink:href="#DejaVuSans-50"/>
       <use xlink:href="#DejaVuSans-2d" x="58.052734"/>
       <use xlink:href="#DejaVuSans-33" x="94.136719"/>
       <use xlink:href="#DejaVuSans-38" x="157.759766"/>
       <use xlink:href="#DejaVuSans-34" x="221.382812"/>
      </g>
     </g>
    </g>
    <g id="xtick_2">
     <g id="text_2">
      <!-- x448 -->
      <g style="fill: #262626" transform="translate(266.505065 403.310989) rotate(-15) scale(0.12 -0.12)">
       <defs>
        <path id="DejaVuSans-78" d="M 3513 3500 
L 2247 1797 
L 3578 0 
L 2900 0 
L 1881 1375 
L 863 0 
L 184 0 
L 1544 1831 
L 300 3500 
L 978 3500 
L 1906 2253 
L 2834 3500 
L 3513 3500 
z
" transform="scale(0.015625)"/>
       </defs>
       <use xlink:href="#DejaVuSans-78"/>
       <use xlink:href="#DejaVuSans-34" x="59.179688"/>
       <use xlink:href="#DejaVuSans-34" x="122.802734"/>
       <use xlink:href="#DejaVuSans-38" x="186.425781"/>
      </g>
     </g>
    </g>
    <g id="xtick_3">
     <g id="text_3">
      <!-- hqc192 -->
      <g style="fill: #262626" transform="translate(410.831845 407.120482) rotate(-15) scale(0.12 -0.12)">
       <defs>
        <path id="DejaVuSans-68" d="M 3513 2113 
L 3513 0 
L 2938 0 
L 2938 2094 
Q 2938 2591 2744 2837 
Q 2550 3084 2163 3084 
Q 1697 3084 1428 2787 
Q 1159 2491 1159 1978 
L 1159 0 
L 581 0 
L 581 4863 
L 1159 4863 
L 1159 2956 
Q 1366 3272 1645 3428 
Q 1925 3584 2291 3584 
Q 2894 3584 3203 3211 
Q 3513 2838 3513 2113 
z
" transform="scale(0.015625)"/>
        <path id="DejaVuSans-71" d="M 947 1747 
Q 947 1113 1208 752 
Q 1469 391 1925 391 
Q 2381 391 2643 752 
Q 2906 1113 2906 1747 
Q 2906 2381 2643 2742 
Q 2381 3103 1925 3103 
Q 1469 3103 1208 2742 
Q 947 2381 947 1747 
z
M 2906 525 
Q 2725 213 2448 61 
Q 2172 -91 1784 -91 
Q 1150 -91 751 415 
Q 353 922 353 1747 
Q 353 2572 751 3078 
Q 1150 3584 1784 3584 
Q 2172 3584 2448 3432 
Q 2725 3281 2906 2969 
L 2906 3500 
L 3481 3500 
L 3481 -1331 
L 2906 -1331 
L 2906 525 
z
" transform="scale(0.015625)"/>
        <path id="DejaVuSans-63" d="M 3122 3366 
L 3122 2828 
Q 2878 2963 2633 3030 
Q 2388 3097 2138 3097 
Q 1578 3097 1268 2742 
Q 959 2388 959 1747 
Q 959 1106 1268 751 
Q 1578 397 2138 397 
Q 2388 397 2633 464 
Q 2878 531 3122 666 
L 3122 134 
Q 2881 22 2623 -34 
Q 2366 -91 2075 -91 
Q 1284 -91 818 406 
Q 353 903 353 1747 
Q 353 2603 823 3093 
Q 1294 3584 2113 3584 
Q 2378 3584 2631 3529 
Q 2884 3475 3122 3366 
z
" transform="scale(0.015625)"/>
        <path id="DejaVuSans-31" d="M 794 531 
L 1825 531 
L 1825 4091 
L 703 3866 
L 703 4441 
L 1819 4666 
L 2450 4666 
L 2450 531 
L 3481 531 
L 3481 0 
L 794 0 
L 794 531 
z
" transform="scale(0.015625)"/>
        <path id="DejaVuSans-39" d="M 703 97 
L 703 672 
Q 941 559 1184 500 
Q 1428 441 1663 441 
Q 2288 441 2617 861 
Q 2947 1281 2994 2138 
Q 2813 1869 2534 1725 
Q 2256 1581 1919 1581 
Q 1219 1581 811 2004 
Q 403 2428 403 3163 
Q 403 3881 828 4315 
Q 1253 4750 1959 4750 
Q 2769 4750 3195 4129 
Q 3622 3509 3622 2328 
Q 3622 1225 3098 567 
Q 2575 -91 1691 -91 
Q 1453 -91 1209 -44 
Q 966 3 703 97 
z
M 1959 2075 
Q 2384 2075 2632 2365 
Q 2881 2656 2881 3163 
Q 2881 3666 2632 3958 
Q 2384 4250 1959 4250 
Q 1534 4250 1286 3958 
Q 1038 3666 1038 3163 
Q 1038 2656 1286 2365 
Q 1534 2075 1959 2075 
z
" transform="scale(0.015625)"/>
        <path id="DejaVuSans-32" d="M 1228 531 
L 3431 531 
L 3431 0 
L 469 0 
L 469 531 
Q 828 903 1448 1529 
Q 2069 2156 2228 2338 
Q 2531 2678 2651 2914 
Q 2772 3150 2772 3378 
Q 2772 3750 2511 3984 
Q 2250 4219 1831 4219 
Q 1534 4219 1204 4116 
Q 875 4013 500 3803 
L 500 4441 
Q 881 4594 1212 4672 
Q 1544 4750 1819 4750 
Q 2544 4750 2975 4387 
Q 3406 4025 3406 3419 
Q 3406 3131 3298 2873 
Q 3191 2616 2906 2266 
Q 2828 2175 2409 1742 
Q 1991 1309 1228 531 
z
" transform="scale(0.015625)"/>
       </defs>
       <use xlink:href="#DejaVuSans-68"/>
       <use xlink:href="#DejaVuSans-71" x="63.378906"/>
       <use xlink:href="#DejaVuSans-63" x="126.855469"/>
       <use xlink:href="#DejaVuSans-31" x="181.835938"/>
       <use xlink:href="#DejaVuSans-39" x="245.458984"/>
       <use xlink:href="#DejaVuSans-32" x="309.082031"/>
      </g>
     </g>
    </g>
    <g id="xtick_4">
     <g id="text_4">
      <!-- p384_hqc192 -->
      <g style="fill: #262626" transform="translate(534.010834 416.573362) rotate(-15) scale(0.12 -0.12)">
       <defs>
        <path id="DejaVuSans-70" d="M 1159 525 
L 1159 -1331 
L 581 -1331 
L 581 3500 
L 1159 3500 
L 1159 2969 
Q 1341 3281 1617 3432 
Q 1894 3584 2278 3584 
Q 2916 3584 3314 3078 
Q 3713 2572 3713 1747 
Q 3713 922 3314 415 
Q 2916 -91 2278 -91 
Q 1894 -91 1617 61 
Q 1341 213 1159 525 
z
M 3116 1747 
Q 3116 2381 2855 2742 
Q 2594 3103 2138 3103 
Q 1681 3103 1420 2742 
Q 1159 2381 1159 1747 
Q 1159 1113 1420 752 
Q 1681 391 2138 391 
Q 2594 391 2855 752 
Q 3116 1113 3116 1747 
z
" transform="scale(0.015625)"/>
        <path id="DejaVuSans-5f" d="M 3263 -1063 
L 3263 -1509 
L -63 -1509 
L -63 -1063 
L 3263 -1063 
z
" transform="scale(0.015625)"/>
       </defs>
       <use xlink:href="#DejaVuSans-70"/>
       <use xlink:href="#DejaVuSans-33" x="63.476562"/>
       <use xlink:href="#DejaVuSans-38" x="127.099609"/>
       <use xlink:href="#DejaVuSans-34" x="190.722656"/>
       <use xlink:href="#DejaVuSans-5f" x="254.345703"/>
       <use xlink:href="#DejaVuSans-68" x="304.345703"/>
       <use xlink:href="#DejaVuSans-71" x="367.724609"/>
       <use xlink:href="#DejaVuSans-63" x="431.201172"/>
       <use xlink:href="#DejaVuSans-31" x="486.181641"/>
       <use xlink:href="#DejaVuSans-39" x="549.804688"/>
       <use xlink:href="#DejaVuSans-32" x="613.427734"/>
      </g>
     </g>
    </g>
    <g id="xtick_5">
     <g id="text_5">
      <!-- x448_hqc192 -->
      <g style="fill: #262626" transform="translate(693.05289 416.439909) rotate(-15) scale(0.12 -0.12)">
       <use xlink:href="#DejaVuSans-78"/>
       <use xlink:href="#DejaVuSans-34" x="59.179688"/>
       <use xlink:href="#DejaVuSans-34" x="122.802734"/>
       <use xlink:href="#DejaVuSans-38" x="186.425781"/>
       <use xlink:href="#DejaVuSans-5f" x="250.048828"/>
       <use xlink:href="#DejaVuSans-68" x="300.048828"/>
       <use xlink:href="#DejaVuSans-71" x="363.427734"/>
       <use xlink:href="#DejaVuSans-63" x="426.904297"/>
       <use xlink:href="#DejaVuSans-31" x="481.884766"/>
       <use xlink:href="#DejaVuSans-39" x="545.507812"/>
       <use xlink:href="#DejaVuSans-32" x="609.130859"/>
      </g>
     </g>
    </g>
   </g>
   <g id="matplotlib.axis_2">
    <g id="ytick_1">
     <g id="line2d_1">
      <path d="M 58.32 366.728329 
L 851.04 366.728329 
" clip-path="url(#p4154b526f3)" style="fill: none; stroke: #cccccc; stroke-linecap: round"/>
     </g>
     <g id="text_6">
      <!-- 100 -->
      <g style="fill: #262626" transform="translate(27.82375 370.90747) scale(0.11 -0.11)">
       <defs>
        <path id="DejaVuSans-30" d="M 2034 4250 
Q 1547 4250 1301 3770 
Q 1056 3291 1056 2328 
Q 1056 1369 1301 889 
Q 1547 409 2034 409 
Q 2525 409 2770 889 
Q 3016 1369 3016 2328 
Q 3016 3291 2770 3770 
Q 2525 4250 2034 4250 
z
M 2034 4750 
Q 2819 4750 3233 4129 
Q 3647 3509 3647 2328 
Q 3647 1150 3233 529 
Q 2819 -91 2034 -91 
Q 1250 -91 836 529 
Q 422 1150 422 2328 
Q 422 3509 836 4129 
Q 1250 4750 2034 4750 
z
" transform="scale(0.015625)"/>
       </defs>
       <use xlink:href="#DejaVuSans-31"/>
       <use xlink:href="#DejaVuSans-30" x="63.623047"/>
       <use xlink:href="#DejaVuSans-30" x="127.246094"/>
      </g>
     </g>
    </g>
    <g id="ytick_2">
     <g id="line2d_2">
      <path d="M 58.32 324.201366 
L 851.04 324.201366 
" clip-path="url(#p4154b526f3)" style="fill: none; stroke: #cccccc; stroke-linecap: round"/>
     </g>
     <g id="text_7">
      <!-- 200 -->
      <g style="fill: #262626" transform="translate(27.82375 328.380507) scale(0.11 -0.11)">
       <use xlink:href="#DejaVuSans-32"/>
       <use xlink:href="#DejaVuSans-30" x="63.623047"/>
       <use xlink:href="#DejaVuSans-30" x="127.246094"/>
      </g>
     </g>
    </g>
    <g id="ytick_3">
     <g id="line2d_3">
      <path d="M 58.32 281.674403 
L 851.04 281.674403 
" clip-path="url(#p4154b526f3)" style="fill: none; stroke: #cccccc; stroke-linecap: round"/>
     </g>
     <g id="text_8">
      <!-- 300 -->
      <g style="fill: #262626" transform="translate(27.82375 285.853543) scale(0.11 -0.11)">
       <use xlink:href="#DejaVuSans-33"/>
       <use xlink:href="#DejaVuSans-30" x="63.623047"/>
       <use xlink:href="#DejaVuSans-30" x="127.246094"/>
      </g>
     </g>
    </g>
    <g id="ytick_4">
     <g id="line2d_4">
      <path d="M 58.32 239.147439 
L 851.04 239.147439 
" clip-path="url(#p4154b526f3)" style="fill: none; stroke: #cccccc; stroke-linecap: round"/>
     </g>
     <g id="text_9">
      <!-- 400 -->
      <g style="fill: #262626" transform="translate(27.82375 243.32658) scale(0.11 -0.11)">
       <use xlink:href="#DejaVuSans-34"/>
       <use xlink:href="#DejaVuSans-30" x="63.623047"/>
       <use xlink:href="#DejaVuSans-30" x="127.246094"/>
      </g>
     </g>
    </g>
    <g id="ytick_5">
     <g id="line2d_5">
      <path d="M 58.32 196.620476 
L 851.04 196.620476 
" clip-path="url(#p4154b526f3)" style="fill: none; stroke: #cccccc; stroke-linecap: round"/>
     </g>
     <g id="text_10">
      <!-- 500 -->
      <g style="fill: #262626" transform="translate(27.82375 200.799617) scale(0.11 -0.11)">
       <defs>
        <path id="DejaVuSans-35" d="M 691 4666 
L 3169 4666 
L 3169 4134 
L 1269 4134 
L 1269 2991 
Q 1406 3038 1543 3061 
Q 1681 3084 1819 3084 
Q 2600 3084 3056 2656 
Q 3513 2228 3513 1497 
Q 3513 744 3044 326 
Q 2575 -91 1722 -91 
Q 1428 -91 1123 -41 
Q 819 9 494 109 
L 494 744 
Q 775 591 1075 516 
Q 1375 441 1709 441 
Q 2250 441 2565 725 
Q 2881 1009 2881 1497 
Q 2881 1984 2565 2268 
Q 2250 2553 1709 2553 
Q 1456 2553 1204 2497 
Q 953 2441 691 2322 
L 691 4666 
z
" transform="scale(0.015625)"/>
       </defs>
       <use xlink:href="#DejaVuSans-35"/>
       <use xlink:href="#DejaVuSans-30" x="63.623047"/>
       <use xlink:href="#DejaVuSans-30" x="127.246094"/>
      </g>
     </g>
    </g>
    <g id="ytick_6">
     <g id="line2d_6">
      <path d="M 58.32 154.093513 
L 851.04 154.093513 
" clip-path="url(#p4154b526f3)" style="fill: none; stroke: #cccccc; stroke-linecap: round"/>
     </g>
     <g id="text_11">
      <!-- 600 -->
      <g style="fill: #262626" transform="translate(27.82375 158.272654) scale(0.11 -0.11)">
       <defs>
        <path id="DejaVuSans-36" d="M 2113 2584 
Q 1688 2584 1439 2293 
Q 1191 2003 1191 1497 
Q 1191 994 1439 701 
Q 1688 409 2113 409 
Q 2538 409 2786 701 
Q 3034 994 3034 1497 
Q 3034 2003 2786 2293 
Q 2538 2584 2113 2584 
z
M 3366 4563 
L 3366 3988 
Q 3128 4100 2886 4159 
Q 2644 4219 2406 4219 
Q 1781 4219 1451 3797 
Q 1122 3375 1075 2522 
Q 1259 2794 1537 2939 
Q 1816 3084 2150 3084 
Q 2853 3084 3261 2657 
Q 3669 2231 3669 1497 
Q 3669 778 3244 343 
Q 2819 -91 2113 -91 
Q 1303 -91 875 529 
Q 447 1150 447 2328 
Q 447 3434 972 4092 
Q 1497 4750 2381 4750 
Q 2619 4750 2861 4703 
Q 3103 4656 3366 4563 
z
" transform="scale(0.015625)"/>
       </defs>
       <use xlink:href="#DejaVuSans-36"/>
       <use xlink:href="#DejaVuSans-30" x="63.623047"/>
       <use xlink:href="#DejaVuSans-30" x="127.246094"/>
      </g>
     </g>
    </g>
    <g id="ytick_7">
     <g id="line2d_7">
      <path d="M 58.32 111.56655 
L 851.04 111.56655 
" clip-path="url(#p4154b526f3)" style="fill: none; stroke: #cccccc; stroke-linecap: round"/>
     </g>
     <g id="text_12">
      <!-- 700 -->
      <g style="fill: #262626" transform="translate(27.82375 115.74569) scale(0.11 -0.11)">
       <defs>
        <path id="DejaVuSans-37" d="M 525 4666 
L 3525 4666 
L 3525 4397 
L 1831 0 
L 1172 0 
L 2766 4134 
L 525 4134 
L 525 4666 
z
" transform="scale(0.015625)"/>
       </defs>
       <use xlink:href="#DejaVuSans-37"/>
       <use xlink:href="#DejaVuSans-30" x="63.623047"/>
       <use xlink:href="#DejaVuSans-30" x="127.246094"/>
      </g>
     </g>
    </g>
    <g id="ytick_8">
     <g id="line2d_8">
      <path d="M 58.32 69.039587 
L 851.04 69.039587 
" clip-path="url(#p4154b526f3)" style="fill: none; stroke: #cccccc; stroke-linecap: round"/>
     </g>
     <g id="text_13">
      <!-- 800 -->
      <g style="fill: #262626" transform="translate(27.82375 73.218727) scale(0.11 -0.11)">
       <use xlink:href="#DejaVuSans-38"/>
       <use xlink:href="#DejaVuSans-30" x="63.623047"/>
       <use xlink:href="#DejaVuSans-30" x="127.246094"/>
      </g>
     </g>
    </g>
    <g id="text_14">
     <!-- Handshake duration (ms) -->
     <g style="fill: #262626" transform="translate(21.328125 278.486335) rotate(-90) scale(0.12 -0.12)">
      <defs>
       <path id="DejaVuSans-48" d="M 628 4666 
L 1259 4666 
L 1259 2753 
L 3553 2753 
L 3553 4666 
L 4184 4666 
L 4184 0 
L 3553 0 
L 3553 2222 
L 1259 2222 
L 1259 0 
L 628 0 
L 628 4666 
z
" transform="scale(0.015625)"/>
       <path id="DejaVuSans-61" d="M 2194 1759 
Q 1497 1759 1228 1600 
Q 959 1441 959 1056 
Q 959 750 1161 570 
Q 1363 391 1709 391 
Q 2188 391 2477 730 
Q 2766 1069 2766 1631 
L 2766 1759 
L 2194 1759 
z
M 3341 1997 
L 3341 0 
L 2766 0 
L 2766 531 
Q 2569 213 2275 61 
Q 1981 -91 1556 -91 
Q 1019 -91 701 211 
Q 384 513 384 1019 
Q 384 1609 779 1909 
Q 1175 2209 1959 2209 
L 2766 2209 
L 2766 2266 
Q 2766 2663 2505 2880 
Q 2244 3097 1772 3097 
Q 1472 3097 1187 3025 
Q 903 2953 641 2809 
L 641 3341 
Q 956 3463 1253 3523 
Q 1550 3584 1831 3584 
Q 2591 3584 2966 3190 
Q 3341 2797 3341 1997 
z
" transform="scale(0.015625)"/>
       <path id="DejaVuSans-6e" d="M 3513 2113 
L 3513 0 
L 2938 0 
L 2938 2094 
Q 2938 2591 2744 2837 
Q 2550 3084 2163 3084 
Q 1697 3084 1428 2787 
Q 1159 2491 1159 1978 
L 1159 0 
L 581 0 
L 581 3500 
L 1159 3500 
L 1159 2956 
Q 1366 3272 1645 3428 
Q 1925 3584 2291 3584 
Q 2894 3584 3203 3211 
Q 3513 2838 3513 2113 
z
" transform="scale(0.015625)"/>
       <path id="DejaVuSans-64" d="M 2906 2969 
L 2906 4863 
L 3481 4863 
L 3481 0 
L 2906 0 
L 2906 525 
Q 2725 213 2448 61 
Q 2172 -91 1784 -91 
Q 1150 -91 751 415 
Q 353 922 353 1747 
Q 353 2572 751 3078 
Q 1150 3584 1784 3584 
Q 2172 3584 2448 3432 
Q 2725 3281 2906 2969 
z
M 947 1747 
Q 947 1113 1208 752 
Q 1469 391 1925 391 
Q 2381 391 2643 752 
Q 2906 1113 2906 1747 
Q 2906 2381 2643 2742 
Q 2381 3103 1925 3103 
Q 1469 3103 1208 2742 
Q 947 2381 947 1747 
z
" transform="scale(0.015625)"/>
       <path id="DejaVuSans-73" d="M 2834 3397 
L 2834 2853 
Q 2591 2978 2328 3040 
Q 2066 3103 1784 3103 
Q 1356 3103 1142 2972 
Q 928 2841 928 2578 
Q 928 2378 1081 2264 
Q 1234 2150 1697 2047 
L 1894 2003 
Q 2506 1872 2764 1633 
Q 3022 1394 3022 966 
Q 3022 478 2636 193 
Q 2250 -91 1575 -91 
Q 1294 -91 989 -36 
Q 684 19 347 128 
L 347 722 
Q 666 556 975 473 
Q 1284 391 1588 391 
Q 1994 391 2212 530 
Q 2431 669 2431 922 
Q 2431 1156 2273 1281 
Q 2116 1406 1581 1522 
L 1381 1569 
Q 847 1681 609 1914 
Q 372 2147 372 2553 
Q 372 3047 722 3315 
Q 1072 3584 1716 3584 
Q 2034 3584 2315 3537 
Q 2597 3491 2834 3397 
z
" transform="scale(0.015625)"/>
       <path id="DejaVuSans-6b" d="M 581 4863 
L 1159 4863 
L 1159 1991 
L 2875 3500 
L 3609 3500 
L 1753 1863 
L 3688 0 
L 2938 0 
L 1159 1709 
L 1159 0 
L 581 0 
L 581 4863 
z
" transform="scale(0.015625)"/>
       <path id="DejaVuSans-65" d="M 3597 1894 
L 3597 1613 
L 953 1613 
Q 991 1019 1311 708 
Q 1631 397 2203 397 
Q 2534 397 2845 478 
Q 3156 559 3463 722 
L 3463 178 
Q 3153 47 2828 -22 
Q 2503 -91 2169 -91 
Q 1331 -91 842 396 
Q 353 884 353 1716 
Q 353 2575 817 3079 
Q 1281 3584 2069 3584 
Q 2775 3584 3186 3129 
Q 3597 2675 3597 1894 
z
M 3022 2063 
Q 3016 2534 2758 2815 
Q 2500 3097 2075 3097 
Q 1594 3097 1305 2825 
Q 1016 2553 972 2059 
L 3022 2063 
z
" transform="scale(0.015625)"/>
       <path id="DejaVuSans-20" transform="scale(0.015625)"/>
       <path id="DejaVuSans-75" d="M 544 1381 
L 544 3500 
L 1119 3500 
L 1119 1403 
Q 1119 906 1312 657 
Q 1506 409 1894 409 
Q 2359 409 2629 706 
Q 2900 1003 2900 1516 
L 2900 3500 
L 3475 3500 
L 3475 0 
L 2900 0 
L 2900 538 
Q 2691 219 2414 64 
Q 2138 -91 1772 -91 
Q 1169 -91 856 284 
Q 544 659 544 1381 
z
M 1991 3584 
L 1991 3584 
z
" transform="scale(0.015625)"/>
       <path id="DejaVuSans-72" d="M 2631 2963 
Q 2534 3019 2420 3045 
Q 2306 3072 2169 3072 
Q 1681 3072 1420 2755 
Q 1159 2438 1159 1844 
L 1159 0 
L 581 0 
L 581 3500 
L 1159 3500 
L 1159 2956 
Q 1341 3275 1631 3429 
Q 1922 3584 2338 3584 
Q 2397 3584 2469 3576 
Q 2541 3569 2628 3553 
L 2631 2963 
z
" transform="scale(0.015625)"/>
       <path id="DejaVuSans-74" d="M 1172 4494 
L 1172 3500 
L 2356 3500 
L 2356 3053 
L 1172 3053 
L 1172 1153 
Q 1172 725 1289 603 
Q 1406 481 1766 481 
L 2356 481 
L 2356 0 
L 1766 0 
Q 1100 0 847 248 
Q 594 497 594 1153 
L 594 3053 
L 172 3053 
L 172 3500 
L 594 3500 
L 594 4494 
L 1172 4494 
z
" transform="scale(0.015625)"/>
       <path id="DejaVuSans-69" d="M 603 3500 
L 1178 3500 
L 1178 0 
L 603 0 
L 603 3500 
z
M 603 4863 
L 1178 4863 
L 1178 4134 
L 603 4134 
L 603 4863 
z
" transform="scale(0.015625)"/>
       <path id="DejaVuSans-6f" d="M 1959 3097 
Q 1497 3097 1228 2736 
Q 959 2375 959 1747 
Q 959 1119 1226 758 
Q 1494 397 1959 397 
Q 2419 397 2687 759 
Q 2956 1122 2956 1747 
Q 2956 2369 2687 2733 
Q 2419 3097 1959 3097 
z
M 1959 3584 
Q 2709 3584 3137 3096 
Q 3566 2609 3566 1747 
Q 3566 888 3137 398 
Q 2709 -91 1959 -91 
Q 1206 -91 779 398 
Q 353 888 353 1747 
Q 353 2609 779 3096 
Q 1206 3584 1959 3584 
z
" transform="scale(0.015625)"/>
       <path id="DejaVuSans-28" d="M 1984 4856 
Q 1566 4138 1362 3434 
Q 1159 2731 1159 2009 
Q 1159 1288 1364 580 
Q 1569 -128 1984 -844 
L 1484 -844 
Q 1016 -109 783 600 
Q 550 1309 550 2009 
Q 550 2706 781 3412 
Q 1013 4119 1484 4856 
L 1984 4856 
z
" transform="scale(0.015625)"/>
       <path id="DejaVuSans-6d" d="M 3328 2828 
Q 3544 3216 3844 3400 
Q 4144 3584 4550 3584 
Q 5097 3584 5394 3201 
Q 5691 2819 5691 2113 
L 5691 0 
L 5113 0 
L 5113 2094 
Q 5113 2597 4934 2840 
Q 4756 3084 4391 3084 
Q 3944 3084 3684 2787 
Q 3425 2491 3425 1978 
L 3425 0 
L 2847 0 
L 2847 2094 
Q 2847 2600 2669 2842 
Q 2491 3084 2119 3084 
Q 1678 3084 1418 2786 
Q 1159 2488 1159 1978 
L 1159 0 
L 581 0 
L 581 3500 
L 1159 3500 
L 1159 2956 
Q 1356 3278 1631 3431 
Q 1906 3584 2284 3584 
Q 2666 3584 2933 3390 
Q 3200 3197 3328 2828 
z
" transform="scale(0.015625)"/>
       <path id="DejaVuSans-29" d="M 513 4856 
L 1013 4856 
Q 1481 4119 1714 3412 
Q 1947 2706 1947 2009 
Q 1947 1309 1714 600 
Q 1481 -109 1013 -844 
L 513 -844 
Q 928 -128 1133 580 
Q 1338 1288 1338 2009 
Q 1338 2731 1133 3434 
Q 928 4138 513 4856 
z
" transform="scale(0.015625)"/>
      </defs>
      <use xlink:href="#DejaVuSans-48"/>
      <use xlink:href="#DejaVuSans-61" x="75.195312"/>
      <use xlink:href="#DejaVuSans-6e" x="136.474609"/>
      <use xlink:href="#DejaVuSans-64" x="199.853516"/>
      <use xlink:href="#DejaVuSans-73" x="263.330078"/>
      <use xlink:href="#DejaVuSans-68" x="315.429688"/>
      <use xlink:href="#DejaVuSans-61" x="378.808594"/>
      <use xlink:href="#DejaVuSans-6b" x="440.087891"/>
      <use xlink:href="#DejaVuSans-65" x="494.373047"/>
      <use xlink:href="#DejaVuSans-20" x="555.896484"/>
      <use xlink:href="#DejaVuSans-64" x="587.683594"/>
      <use xlink:href="#DejaVuSans-75" x="651.160156"/>
      <use xlink:href="#DejaVuSans-72" x="714.539062"/>
      <use xlink:href="#DejaVuSans-61" x="755.652344"/>
      <use xlink:href="#DejaVuSans-74" x="816.931641"/>
      <use xlink:href="#DejaVuSans-69" x="856.140625"/>
      <use xlink:href="#DejaVuSans-6f" x="883.923828"/>
      <use xlink:href="#DejaVuSans-6e" x="945.105469"/>
      <use xlink:href="#DejaVuSans-20" x="1008.484375"/>
      <use xlink:href="#DejaVuSans-28" x="1040.271484"/>
      <use xlink:href="#DejaVuSans-6d" x="1079.285156"/>
      <use xlink:href="#DejaVuSans-73" x="1176.697266"/>
      <use xlink:href="#DejaVuSans-29" x="1228.796875"/>
     </g>
    </g>
   </g>
   <g id="PolyCollection_1">
    <defs>
     <path id="m6c5a8e58f0" d="M 138.964561 -71.018009 
L 136.219439 -71.018009 
L 134.553879 -73.2266 
L 131.448227 -75.43519 
L 126.249964 -77.643781 
L 118.492378 -79.852372 
L 108.277184 -82.060963 
L 96.614978 -84.269554 
L 85.464468 -86.478145 
L 77.283718 -88.686735 
L 74.1744 -90.895326 
L 77.01049 -93.103917 
L 85.040376 -95.312508 
L 96.206838 -97.521099 
L 107.997109 -99.729689 
L 118.340708 -101.93828 
L 126.12149 -104.146871 
L 131.177368 -106.355462 
L 133.962888 -108.564053 
L 135.153009 -110.772644 
L 135.37612 -112.981234 
L 135.112207 -115.189825 
L 134.695044 -117.398416 
L 134.344278 -119.607007 
L 134.188408 -121.815598 
L 134.276252 -124.024188 
L 134.589114 -126.232779 
L 135.061276 -128.44137 
L 135.606335 -130.649961 
L 136.141852 -132.858552 
L 136.606094 -135.067143 
L 136.964523 -137.275733 
L 137.207115 -139.484324 
L 137.339845 -141.692915 
L 137.375179 -143.901506 
L 137.326324 -146.110097 
L 137.20772 -148.318687 
L 137.04027 -150.527278 
L 136.856098 -152.735869 
L 136.696943 -154.94446 
L 136.604021 -157.153051 
L 136.603455 -159.361642 
L 136.695652 -161.570232 
L 136.855513 -163.778823 
L 137.043644 -165.987414 
L 137.222023 -168.196005 
L 137.365792 -170.404596 
L 137.466667 -172.613186 
L 137.529071 -174.821777 
L 137.563367 -177.030368 
L 137.580194 -179.238959 
L 137.587589 -181.44755 
L 137.590506 -183.65614 
L 137.591542 -185.864731 
L 137.591873 -188.073322 
L 137.591968 -190.281913 
L 137.591993 -192.490504 
L 137.591998 -194.699095 
L 137.591999 -196.907685 
L 137.591998 -199.116276 
L 137.591989 -201.324867 
L 137.591953 -203.533458 
L 137.591817 -205.742049 
L 137.59136 -207.950639 
L 137.589962 -210.15923 
L 137.586098 -212.367821 
L 137.576465 -214.576412 
L 137.554835 -216.785003 
L 137.511196 -218.993594 
L 137.432365 -221.202184 
L 137.305479 -223.410775 
L 137.124862 -225.619366 
L 136.900308 -227.827957 
L 136.662009 -230.036548 
L 136.456836 -232.245138 
L 136.334324 -234.453729 
L 136.327477 -236.66232 
L 136.438406 -238.870911 
L 136.637292 -241.079502 
L 136.875348 -243.288093 
L 137.104131 -245.496683 
L 137.290817 -247.705274 
L 137.42332 -249.913865 
L 137.506029 -252.122456 
L 137.551364 -254.331047 
L 137.572299 -256.539637 
L 137.578288 -258.748228 
L 137.574443 -260.956819 
L 137.562682 -263.16541 
L 137.543681 -265.374001 
L 137.518814 -267.582592 
L 137.491444 -269.791182 
L 137.466944 -271.999773 
L 137.451281 -274.208364 
L 137.448738 -276.416955 
L 137.460042 -278.625546 
L 137.482034 -280.834136 
L 137.50909 -283.042727 
L 137.535444 -285.251318 
L 137.557097 -287.459909 
L 137.572511 -289.6685 
L 137.611489 -289.6685 
L 137.611489 -289.6685 
L 137.626903 -287.459909 
L 137.648556 -285.251318 
L 137.67491 -283.042727 
L 137.701966 -280.834136 
L 137.723958 -278.625546 
L 137.735262 -276.416955 
L 137.732719 -274.208364 
L 137.717056 -271.999773 
L 137.692556 -269.791182 
L 137.665186 -267.582592 
L 137.640319 -265.374001 
L 137.621318 -263.16541 
L 137.609557 -260.956819 
L 137.605712 -258.748228 
L 137.611701 -256.539637 
L 137.632636 -254.331047 
L 137.677971 -252.122456 
L 137.76068 -249.913865 
L 137.893183 -247.705274 
L 138.079869 -245.496683 
L 138.308652 -243.288093 
L 138.546708 -241.079502 
L 138.745594 -238.870911 
L 138.856523 -236.66232 
L 138.849676 -234.453729 
L 138.727164 -232.245138 
L 138.521991 -230.036548 
L 138.283692 -227.827957 
L 138.059138 -225.619366 
L 137.878521 -223.410775 
L 137.751635 -221.202184 
L 137.672804 -218.993594 
L 137.629165 -216.785003 
L 137.607535 -214.576412 
L 137.597902 -212.367821 
L 137.594038 -210.15923 
L 137.59264 -207.950639 
L 137.592183 -205.742049 
L 137.592047 -203.533458 
L 137.592011 -201.324867 
L 137.592002 -199.116276 
L 137.592001 -196.907685 
L 137.592002 -194.699095 
L 137.592007 -192.490504 
L 137.592032 -190.281913 
L 137.592127 -188.073322 
L 137.592458 -185.864731 
L 137.593494 -183.65614 
L 137.596411 -181.44755 
L 137.603806 -179.238959 
L 137.620633 -177.030368 
L 137.654929 -174.821777 
L 137.717333 -172.613186 
L 137.818208 -170.404596 
L 137.961977 -168.196005 
L 138.140356 -165.987414 
L 138.328487 -163.778823 
L 138.488348 -161.570232 
L 138.580545 -159.361642 
L 138.579979 -157.153051 
L 138.487057 -154.94446 
L 138.327902 -152.735869 
L 138.14373 -150.527278 
L 137.97628 -148.318687 
L 137.857676 -146.110097 
L 137.808821 -143.901506 
L 137.844155 -141.692915 
L 137.976885 -139.484324 
L 138.219477 -137.275733 
L 138.577906 -135.067143 
L 139.042148 -132.858552 
L 139.577665 -130.649961 
L 140.122724 -128.44137 
L 140.594886 -126.232779 
L 140.907748 -124.024188 
L 140.995592 -121.815598 
L 140.839722 -119.607007 
L 140.488956 -117.398416 
L 140.071793 -115.189825 
L 139.80788 -112.981234 
L 140.030991 -110.772644 
L 141.221112 -108.564053 
L 144.006632 -106.355462 
L 149.06251 -104.146871 
L 156.843292 -101.93828 
L 167.186891 -99.729689 
L 178.977162 -97.521099 
L 190.143624 -95.312508 
L 198.17351 -93.103917 
L 201.0096 -90.895326 
L 197.900282 -88.686735 
L 189.719532 -86.478145 
L 178.569022 -84.269554 
L 166.906816 -82.060963 
L 156.691622 -79.852372 
L 148.934036 -77.643781 
L 143.735773 -75.43519 
L 140.630121 -73.2266 
L 138.964561 -71.018009 
z
" style="stroke: #595959; stroke-width: 1.25"/>
    </defs>
    <g clip-path="url(#p4154b526f3)">
     <use xlink:href="#m6c5a8e58f0" x="0" y="432" style="fill: #72b6a1; stroke: #595959; stroke-width: 1.25"/>
    </g>
   </g>
   <g id="PolyCollection_2">
    <defs>
     <path id="mc91a955257" d="M 301.110133 -70.655549 
L 291.161867 -70.655549 
L 287.238355 -72.427292 
L 281.373769 -74.199034 
L 273.418893 -75.970777 
L 263.710967 -77.74252 
L 253.208673 -79.514263 
L 243.423886 -81.286005 
L 236.100942 -83.057748 
L 232.7184 -84.829491 
L 234.003969 -86.601233 
L 239.679819 -88.372976 
L 248.559991 -90.144719 
L 258.953016 -91.916462 
L 269.182472 -93.688204 
L 278.00704 -95.459947 
L 284.804686 -97.23169 
L 289.517238 -99.003433 
L 292.450844 -100.775175 
L 294.053116 -102.546918 
L 294.751161 -104.318661 
L 294.87676 -106.090404 
L 294.660768 -107.862146 
L 294.261574 -109.633889 
L 293.7968 -111.405632 
L 293.361637 -113.177375 
L 293.03163 -114.949117 
L 292.856883 -116.72086 
L 292.856893 -118.492603 
L 293.021736 -120.264345 
L 293.3197 -122.036088 
L 293.707605 -123.807831 
L 294.13981 -125.579574 
L 294.574264 -127.351316 
L 294.976183 -129.123059 
L 295.320448 -130.894802 
L 295.592844 -132.666545 
L 295.789507 -134.438287 
L 295.914226 -136.21003 
L 295.974371 -137.981773 
L 295.977158 -139.753516 
L 295.92798 -141.525258 
L 295.831628 -143.297001 
L 295.695763 -145.068744 
L 295.534698 -146.840486 
L 295.370938 -148.612229 
L 295.23266 -150.383972 
L 295.147185 -152.155715 
L 295.132821 -153.927457 
L 295.192762 -155.6992 
L 295.314045 -157.470943 
L 295.47215 -159.242686 
L 295.639065 -161.014428 
L 295.791215 -162.786171 
L 295.914268 -164.557914 
L 296.003825 -166.329657 
L 296.062967 -168.101399 
L 296.098593 -169.873142 
L 296.11824 -171.644885 
L 296.128183 -173.416628 
L 296.132811 -175.18837 
L 296.134794 -176.960113 
L 296.135577 -178.731856 
L 296.135863 -180.503598 
L 296.135959 -182.275341 
L 296.135988 -184.047084 
L 296.135997 -185.818827 
L 296.135999 -187.590569 
L 296.136 -189.362312 
L 296.136 -191.134055 
L 296.136 -192.905798 
L 296.136 -194.67754 
L 296.135999 -196.449283 
L 296.135996 -198.221026 
L 296.135984 -199.992769 
L 296.135943 -201.764511 
L 296.135815 -203.536254 
L 296.135441 -205.307997 
L 296.134435 -207.079739 
L 296.131938 -208.851482 
L 296.126216 -210.623225 
L 296.114138 -212.394968 
L 296.090674 -214.16671 
L 296.048798 -215.938453 
L 295.980295 -217.710196 
L 295.877941 -219.481939 
L 295.738954 -221.253681 
L 295.568815 -223.025424 
L 295.383635 -224.797167 
L 295.209147 -226.56891 
L 295.07546 -228.340652 
L 295.008724 -230.112395 
L 295.022807 -231.884138 
L 295.114606 -233.655881 
L 295.265159 -235.427623 
L 295.446013 -237.199366 
L 295.627927 -238.971109 
L 295.788293 -240.742851 
L 295.914837 -242.514594 
L 296.005254 -244.286337 
L 296.064162 -246.05808 
L 296.207838 -246.05808 
L 296.207838 -246.05808 
L 296.266746 -244.286337 
L 296.357163 -242.514594 
L 296.483707 -240.742851 
L 296.644073 -238.971109 
L 296.825987 -237.199366 
L 297.006841 -235.427623 
L 297.157394 -233.655881 
L 297.249193 -231.884138 
L 297.263276 -230.112395 
L 297.19654 -228.340652 
L 297.062853 -226.56891 
L 296.888365 -224.797167 
L 296.703185 -223.025424 
L 296.533046 -221.253681 
L 296.394059 -219.481939 
L 296.291705 -217.710196 
L 296.223202 -215.938453 
L 296.181326 -214.16671 
L 296.157862 -212.394968 
L 296.145784 -210.623225 
L 296.140062 -208.851482 
L 296.137565 -207.079739 
L 296.136559 -205.307997 
L 296.136185 -203.536254 
L 296.136057 -201.764511 
L 296.136016 -199.992769 
L 296.136004 -198.221026 
L 296.136001 -196.449283 
L 296.136 -194.67754 
L 296.136 -192.905798 
L 296.136 -191.134055 
L 296.136 -189.362312 
L 296.136001 -187.590569 
L 296.136003 -185.818827 
L 296.136012 -184.047084 
L 296.136041 -182.275341 
L 296.136137 -180.503598 
L 296.136423 -178.731856 
L 296.137206 -176.960113 
L 296.139189 -175.18837 
L 296.143817 -173.416628 
L 296.15376 -171.644885 
L 296.173407 -169.873142 
L 296.209033 -168.101399 
L 296.268175 -166.329657 
L 296.357732 -164.557914 
L 296.480785 -162.786171 
L 296.632935 -161.014428 
L 296.79985 -159.242686 
L 296.957955 -157.470943 
L 297.079238 -155.6992 
L 297.139179 -153.927457 
L 297.124815 -152.155715 
L 297.03934 -150.383972 
L 296.901062 -148.612229 
L 296.737302 -146.840486 
L 296.576237 -145.068744 
L 296.440372 -143.297001 
L 296.34402 -141.525258 
L 296.294842 -139.753516 
L 296.297629 -137.981773 
L 296.357774 -136.21003 
L 296.482493 -134.438287 
L 296.679156 -132.666545 
L 296.951552 -130.894802 
L 297.295817 -129.123059 
L 297.697736 -127.351316 
L 298.13219 -125.579574 
L 298.564395 -123.807831 
L 298.9523 -122.036088 
L 299.250264 -120.264345 
L 299.415107 -118.492603 
L 299.415117 -116.72086 
L 299.24037 -114.949117 
L 298.910363 -113.177375 
L 298.4752 -111.405632 
L 298.010426 -109.633889 
L 297.611232 -107.862146 
L 297.39524 -106.090404 
L 297.520839 -104.318661 
L 298.218884 -102.546918 
L 299.821156 -100.775175 
L 302.754762 -99.003433 
L 307.467314 -97.23169 
L 314.26496 -95.459947 
L 323.089528 -93.688204 
L 333.318984 -91.916462 
L 343.712009 -90.144719 
L 352.592181 -88.372976 
L 358.268031 -86.601233 
L 359.5536 -84.829491 
L 356.171058 -83.057748 
L 348.848114 -81.286005 
L 339.063327 -79.514263 
L 328.561033 -77.74252 
L 318.853107 -75.970777 
L 310.898231 -74.199034 
L 305.033645 -72.427292 
L 301.110133 -70.655549 
z
" style="stroke: #595959; stroke-width: 1.25"/>
    </defs>
    <g clip-path="url(#p4154b526f3)">
     <use xlink:href="#mc91a955257" x="0" y="432" style="fill: #e99675; stroke: #595959; stroke-width: 1.25"/>
    </g>
   </g>
   <g id="PolyCollection_3">
    <defs>
     <path id="m92acd9a2dd" d="M 455.611074 -109.97922 
L 453.748926 -109.97922 
L 452.468792 -112.792636 
L 450.002245 -115.606052 
L 445.786411 -118.419468 
L 439.336786 -121.232885 
L 430.458478 -124.046301 
L 419.520884 -126.859717 
L 407.764787 -129.673133 
L 397.422396 -132.486549 
L 391.2624 -135.299965 
L 391.433419 -138.113381 
L 398.187433 -140.926797 
L 409.490747 -143.740213 
L 421.987557 -146.553629 
L 432.669053 -149.367045 
L 440.066386 -152.180461 
L 444.326648 -154.993877 
L 446.473301 -157.807293 
L 447.58592 -160.620709 
L 448.379239 -163.434125 
L 449.185471 -166.247541 
L 450.098016 -169.060957 
L 451.088218 -171.874373 
L 452.062817 -174.687789 
L 452.906183 -177.501205 
L 453.528354 -180.314621 
L 453.899934 -183.128037 
L 454.053923 -185.941453 
L 454.058768 -188.754869 
L 453.983363 -191.568285 
L 453.874367 -194.381701 
L 453.755799 -197.195117 
L 453.645758 -200.008533 
L 453.571958 -202.821949 
L 453.568936 -205.635365 
L 453.658069 -208.448781 
L 453.829728 -211.262197 
L 454.045115 -214.075613 
L 454.256225 -216.889029 
L 454.427608 -219.702445 
L 454.546008 -222.515861 
L 454.616501 -225.329278 
L 454.652421 -228.142694 
L 454.666359 -230.95611 
L 454.665061 -233.769526 
L 454.64758 -236.582942 
L 454.605598 -239.396358 
L 454.526319 -242.209774 
L 454.399141 -245.02319 
L 454.225433 -247.836606 
L 454.026955 -250.650022 
L 453.846022 -253.463438 
L 453.733086 -256.276854 
L 453.725177 -259.09027 
L 453.826813 -261.903686 
L 454.006339 -264.717102 
L 454.21143 -267.530518 
L 454.393746 -270.343934 
L 454.526816 -273.15735 
L 454.608356 -275.970766 
L 454.650768 -278.784182 
L 454.66961 -281.597598 
L 454.676786 -284.411014 
L 454.679136 -287.22443 
L 454.679798 -290.037846 
L 454.679959 -292.851262 
L 454.679993 -295.664678 
L 454.679999 -298.478094 
L 454.68 -301.29151 
L 454.68 -304.104926 
L 454.679999 -306.918342 
L 454.679997 -309.731758 
L 454.679982 -312.545174 
L 454.679911 -315.35859 
L 454.679621 -318.172006 
L 454.678607 -320.985422 
L 454.675549 -323.798838 
L 454.667632 -326.612254 
L 454.650093 -329.425671 
L 454.616998 -332.239087 
L 454.564281 -335.052503 
L 454.49452 -337.865919 
L 454.420375 -340.679335 
L 454.362441 -343.492751 
L 454.340389 -346.306167 
L 454.36212 -349.119583 
L 454.418675 -351.932999 
L 454.488715 -354.746415 
L 454.548958 -357.559831 
L 454.583395 -360.373247 
L 454.587227 -363.186663 
L 454.566392 -366.000079 
L 454.534792 -368.813495 
L 454.509498 -371.626911 
L 454.504004 -374.440327 
L 454.522255 -377.253743 
L 454.557631 -380.067159 
L 454.597913 -382.880575 
L 454.632394 -385.693991 
L 454.656131 -388.507407 
L 454.703869 -388.507407 
L 454.703869 -388.507407 
L 454.727606 -385.693991 
L 454.762087 -382.880575 
L 454.802369 -380.067159 
L 454.837745 -377.253743 
L 454.855996 -374.440327 
L 454.850502 -371.626911 
L 454.825208 -368.813495 
L 454.793608 -366.000079 
L 454.772773 -363.186663 
L 454.776605 -360.373247 
L 454.811042 -357.559831 
L 454.871285 -354.746415 
L 454.941325 -351.932999 
L 454.99788 -349.119583 
L 455.019611 -346.306167 
L 454.997559 -343.492751 
L 454.939625 -340.679335 
L 454.86548 -337.865919 
L 454.795719 -335.052503 
L 454.743002 -332.239087 
L 454.709907 -329.425671 
L 454.692368 -326.612254 
L 454.684451 -323.798838 
L 454.681393 -320.985422 
L 454.680379 -318.172006 
L 454.680089 -315.35859 
L 454.680018 -312.545174 
L 454.680003 -309.731758 
L 454.680001 -306.918342 
L 454.68 -304.104926 
L 454.68 -301.29151 
L 454.680001 -298.478094 
L 454.680007 -295.664678 
L 454.680041 -292.851262 
L 454.680202 -290.037846 
L 454.680864 -287.22443 
L 454.683214 -284.411014 
L 454.69039 -281.597598 
L 454.709232 -278.784182 
L 454.751644 -275.970766 
L 454.833184 -273.15735 
L 454.966254 -270.343934 
L 455.14857 -267.530518 
L 455.353661 -264.717102 
L 455.533187 -261.903686 
L 455.634823 -259.09027 
L 455.626914 -256.276854 
L 455.513978 -253.463438 
L 455.333045 -250.650022 
L 455.134567 -247.836606 
L 454.960859 -245.02319 
L 454.833681 -242.209774 
L 454.754402 -239.396358 
L 454.71242 -236.582942 
L 454.694939 -233.769526 
L 454.693641 -230.95611 
L 454.707579 -228.142694 
L 454.743499 -225.329278 
L 454.813992 -222.515861 
L 454.932392 -219.702445 
L 455.103775 -216.889029 
L 455.314885 -214.075613 
L 455.530272 -211.262197 
L 455.701931 -208.448781 
L 455.791064 -205.635365 
L 455.788042 -202.821949 
L 455.714242 -200.008533 
L 455.604201 -197.195117 
L 455.485633 -194.381701 
L 455.376637 -191.568285 
L 455.301232 -188.754869 
L 455.306077 -185.941453 
L 455.460066 -183.128037 
L 455.831646 -180.314621 
L 456.453817 -177.501205 
L 457.297183 -174.687789 
L 458.271782 -171.874373 
L 459.261984 -169.060957 
L 460.174529 -166.247541 
L 460.980761 -163.434125 
L 461.77408 -160.620709 
L 462.886699 -157.807293 
L 465.033352 -154.993877 
L 469.293614 -152.180461 
L 476.690947 -149.367045 
L 487.372443 -146.553629 
L 499.869253 -143.740213 
L 511.172567 -140.926797 
L 517.926581 -138.113381 
L 518.0976 -135.299965 
L 511.937604 -132.486549 
L 501.595213 -129.673133 
L 489.839116 -126.859717 
L 478.901522 -124.046301 
L 470.023214 -121.232885 
L 463.573589 -118.419468 
L 459.357755 -115.606052 
L 456.891208 -112.792636 
L 455.611074 -109.97922 
z
" style="stroke: #595959; stroke-width: 1.25"/>
    </defs>
    <g clip-path="url(#p4154b526f3)">
     <use xlink:href="#m92acd9a2dd" x="0" y="432" style="fill: #95a3c3; stroke: #595959; stroke-width: 1.25"/>
    </g>
   </g>
   <g id="PolyCollection_4">
    <defs>
     <path id="mfe9863c0f8" d="M 613.76747 -112.089855 
L 612.68053 -112.089855 
L 611.839756 -114.633392 
L 610.083532 -117.176929 
L 606.857495 -119.720466 
L 601.639907 -122.264002 
L 594.194536 -124.807539 
L 584.798395 -127.351076 
L 574.309417 -129.894613 
L 564.046467 -132.43815 
L 555.570249 -134.981687 
L 550.42744 -137.525224 
L 549.8064 -140.068761 
L 554.084795 -142.612298 
L 562.479194 -145.155835 
L 573.137325 -147.699372 
L 583.775864 -150.242908 
L 592.537231 -152.786445 
L 598.561615 -155.329982 
L 602.011657 -157.873519 
L 603.675457 -160.417056 
L 604.468245 -162.960593 
L 605.084999 -165.50413 
L 605.881059 -168.047667 
L 606.925527 -170.591204 
L 608.126182 -173.134741 
L 609.342864 -175.678278 
L 610.453209 -178.221815 
L 611.37613 -180.765351 
L 612.074025 -183.308888 
L 612.54776 -185.852425 
L 612.827862 -188.395962 
L 612.962327 -190.939499 
L 613.003333 -193.483036 
L 612.995711 -196.026573 
L 612.969189 -198.57011 
L 612.936449 -201.113647 
L 612.89876 -203.657184 
L 612.857047 -206.200721 
L 612.820841 -208.744257 
L 612.807383 -211.287794 
L 612.831047 -213.831331 
L 612.892346 -216.374868 
L 612.976319 -218.918405 
L 613.06127 -221.461942 
L 613.130101 -224.005479 
L 613.176034 -226.549016 
L 613.200811 -229.092553 
L 613.209057 -231.63609 
L 613.203214 -234.179627 
L 613.181167 -236.723164 
L 613.136775 -239.2667 
L 613.062923 -241.810237 
L 612.956122 -244.353774 
L 612.820507 -246.897311 
L 612.668548 -249.440848 
L 612.517616 -251.984385 
L 612.385069 -254.527922 
L 612.285929 -257.071459 
L 612.233967 -259.614996 
L 612.24204 -262.158533 
L 612.317285 -264.70207 
L 612.453093 -267.245606 
L 612.625512 -269.789143 
L 612.799502 -272.33268 
L 612.941993 -274.876217 
L 613.033373 -277.419754 
L 613.071674 -279.963291 
L 613.069816 -282.506828 
L 613.049149 -285.050365 
L 613.031676 -287.593902 
L 613.032592 -290.137439 
L 613.055717 -292.680976 
L 613.094264 -295.224513 
L 613.13649 -297.768049 
L 613.172389 -300.311586 
L 613.197391 -302.855123 
L 613.212008 -305.39866 
L 613.219276 -307.942197 
L 613.222373 -310.485734 
L 613.22351 -313.029271 
L 613.223867 -315.572808 
L 613.223947 -318.116345 
L 613.223884 -320.659882 
L 613.223553 -323.203419 
L 613.222414 -325.746955 
L 613.219063 -328.290492 
L 613.210529 -330.834029 
L 613.191786 -333.377566 
L 613.156471 -335.921103 
L 613.099903 -338.46464 
L 613.024059 -341.008177 
L 612.941551 -343.551714 
L 612.874137 -346.095251 
L 612.843995 -348.638788 
L 612.862073 -351.182325 
L 612.921735 -353.725862 
L 613.002651 -356.269398 
L 613.081874 -358.812935 
L 613.14399 -361.356472 
L 613.184513 -363.900009 
L 613.263487 -363.900009 
L 613.263487 -363.900009 
L 613.30401 -361.356472 
L 613.366126 -358.812935 
L 613.445349 -356.269398 
L 613.526265 -353.725862 
L 613.585927 -351.182325 
L 613.604005 -348.638788 
L 613.573863 -346.095251 
L 613.506449 -343.551714 
L 613.423941 -341.008177 
L 613.348097 -338.46464 
L 613.291529 -335.921103 
L 613.256214 -333.377566 
L 613.237471 -330.834029 
L 613.228937 -328.290492 
L 613.225586 -325.746955 
L 613.224447 -323.203419 
L 613.224116 -320.659882 
L 613.224053 -318.116345 
L 613.224133 -315.572808 
L 613.22449 -313.029271 
L 613.225627 -310.485734 
L 613.228724 -307.942197 
L 613.235992 -305.39866 
L 613.250609 -302.855123 
L 613.275611 -300.311586 
L 613.31151 -297.768049 
L 613.353736 -295.224513 
L 613.392283 -292.680976 
L 613.415408 -290.137439 
L 613.416324 -287.593902 
L 613.398851 -285.050365 
L 613.378184 -282.506828 
L 613.376326 -279.963291 
L 613.414627 -277.419754 
L 613.506007 -274.876217 
L 613.648498 -272.33268 
L 613.822488 -269.789143 
L 613.994907 -267.245606 
L 614.130715 -264.70207 
L 614.20596 -262.158533 
L 614.214033 -259.614996 
L 614.162071 -257.071459 
L 614.062931 -254.527922 
L 613.930384 -251.984385 
L 613.779452 -249.440848 
L 613.627493 -246.897311 
L 613.491878 -244.353774 
L 613.385077 -241.810237 
L 613.311225 -239.2667 
L 613.266833 -236.723164 
L 613.244786 -234.179627 
L 613.238943 -231.63609 
L 613.247189 -229.092553 
L 613.271966 -226.549016 
L 613.317899 -224.005479 
L 613.38673 -221.461942 
L 613.471681 -218.918405 
L 613.555654 -216.374868 
L 613.616953 -213.831331 
L 613.640617 -211.287794 
L 613.627159 -208.744257 
L 613.590953 -206.200721 
L 613.54924 -203.657184 
L 613.511551 -201.113647 
L 613.478811 -198.57011 
L 613.452289 -196.026573 
L 613.444667 -193.483036 
L 613.485673 -190.939499 
L 613.620138 -188.395962 
L 613.90024 -185.852425 
L 614.373975 -183.308888 
L 615.07187 -180.765351 
L 615.994791 -178.221815 
L 617.105136 -175.678278 
L 618.321818 -173.134741 
L 619.522473 -170.591204 
L 620.566941 -168.047667 
L 621.363001 -165.50413 
L 621.979755 -162.960593 
L 622.772543 -160.417056 
L 624.436343 -157.873519 
L 627.886385 -155.329982 
L 633.910769 -152.786445 
L 642.672136 -150.242908 
L 653.310675 -147.699372 
L 663.968806 -145.155835 
L 672.363205 -142.612298 
L 676.6416 -140.068761 
L 676.02056 -137.525224 
L 670.877751 -134.981687 
L 662.401533 -132.43815 
L 652.138583 -129.894613 
L 641.649605 -127.351076 
L 632.253464 -124.807539 
L 624.808093 -122.264002 
L 619.590505 -119.720466 
L 616.364468 -117.176929 
L 614.608244 -114.633392 
L 613.76747 -112.089855 
z
" style="stroke: #595959; stroke-width: 1.25"/>
    </defs>
    <g clip-path="url(#p4154b526f3)">
     <use xlink:href="#mfe9863c0f8" x="0" y="432" style="fill: #db96c0; stroke: #595959; stroke-width: 1.25"/>
    </g>
   </g>
   <g id="PolyCollection_5">
    <defs>
     <path id="m0f393ca666" d="M 773.32685 -109.399196 
L 770.20915 -109.399196 
L 768.486917 -111.943609 
L 765.473707 -114.488022 
L 760.728719 -117.032434 
L 754.001082 -119.576847 
L 745.417452 -122.12126 
L 735.59448 -124.665673 
L 725.613595 -127.210086 
L 716.854281 -129.754498 
L 710.726385 -132.298911 
L 708.3504 -134.843324 
L 710.242253 -137.387737 
L 716.098169 -139.932149 
L 724.80423 -142.476562 
L 734.733982 -145.020975 
L 744.243425 -147.565388 
L 752.140796 -150.109801 
L 757.920039 -152.654213 
L 761.697286 -155.198626 
L 763.955318 -157.743039 
L 765.264775 -160.287452 
L 766.100004 -162.831864 
L 766.772986 -165.376277 
L 767.445036 -167.92069 
L 768.165999 -170.465103 
L 768.913313 -173.009516 
L 769.626094 -175.553928 
L 770.236476 -178.098341 
L 770.695736 -180.642754 
L 770.988671 -183.187167 
L 771.132592 -185.731579 
L 771.164335 -188.275992 
L 771.123554 -190.820405 
L 771.040622 -193.364818 
L 770.933794 -195.909231 
L 770.815231 -198.453643 
L 770.700663 -200.998056 
L 770.614861 -203.542469 
L 770.587361 -206.086882 
L 770.639827 -208.631294 
L 770.773407 -211.175707 
L 770.965431 -213.72012 
L 771.178255 -216.264533 
L 771.374604 -218.808945 
L 771.530125 -221.353358 
L 771.63735 -223.897771 
L 771.701535 -226.442184 
L 771.732962 -228.986597 
L 771.740126 -231.531009 
L 771.725873 -234.075422 
L 771.686641 -236.619835 
L 771.614404 -239.164248 
L 771.50115 -241.70866 
L 771.345165 -244.253073 
L 771.157005 -246.797486 
L 770.961703 -249.341899 
L 770.794447 -251.886312 
L 770.690147 -254.430724 
L 770.671241 -256.975137 
L 770.739798 -259.51955 
L 770.877783 -262.063963 
L 771.054722 -264.608375 
L 771.238348 -267.152788 
L 771.403314 -269.697201 
L 771.535298 -272.241614 
L 771.630619 -274.786027 
L 771.693147 -277.330439 
L 771.730477 -279.874852 
L 771.750752 -282.419265 
L 771.760753 -284.963678 
L 771.765225 -287.50809 
L 771.767033 -290.052503 
L 771.767689 -292.596916 
L 771.767885 -295.141329 
L 771.767872 -297.685742 
L 771.767641 -300.230154 
L 771.766927 -302.774567 
L 771.765067 -305.31898 
L 771.760759 -307.863393 
L 771.751837 -310.407805 
L 771.735332 -312.952218 
L 771.708078 -315.496631 
L 771.667959 -318.041044 
L 771.615377 -320.585456 
L 771.554086 -323.129869 
L 771.490526 -325.674282 
L 771.431611 -328.218695 
L 771.382093 -330.763108 
L 771.343296 -333.30752 
L 771.314342 -335.851933 
L 771.295194 -338.396346 
L 771.289117 -340.940759 
L 771.302154 -343.485171 
L 771.339354 -346.029584 
L 771.400298 -348.573997 
L 771.477334 -351.11841 
L 771.558027 -353.662823 
L 771.63017 -356.207235 
L 771.686092 -358.751648 
L 771.724038 -361.296061 
L 771.811962 -361.296061 
L 771.811962 -361.296061 
L 771.849908 -358.751648 
L 771.90583 -356.207235 
L 771.977973 -353.662823 
L 772.058666 -351.11841 
L 772.135702 -348.573997 
L 772.196646 -346.029584 
L 772.233846 -343.485171 
L 772.246883 -340.940759 
L 772.240806 -338.396346 
L 772.221658 -335.851933 
L 772.192704 -333.30752 
L 772.153907 -330.763108 
L 772.104389 -328.218695 
L 772.045474 -325.674282 
L 771.981914 -323.129869 
L 771.920623 -320.585456 
L 771.868041 -318.041044 
L 771.827922 -315.496631 
L 771.800668 -312.952218 
L 771.784163 -310.407805 
L 771.775241 -307.863393 
L 771.770933 -305.31898 
L 771.769073 -302.774567 
L 771.768359 -300.230154 
L 771.768128 -297.685742 
L 771.768115 -295.141329 
L 771.768311 -292.596916 
L 771.768967 -290.052503 
L 771.770775 -287.50809 
L 771.775247 -284.963678 
L 771.785248 -282.419265 
L 771.805523 -279.874852 
L 771.842853 -277.330439 
L 771.905381 -274.786027 
L 772.000702 -272.241614 
L 772.132686 -269.697201 
L 772.297652 -267.152788 
L 772.481278 -264.608375 
L 772.658217 -262.063963 
L 772.796202 -259.51955 
L 772.864759 -256.975137 
L 772.845853 -254.430724 
L 772.741553 -251.886312 
L 772.574297 -249.341899 
L 772.378995 -246.797486 
L 772.190835 -244.253073 
L 772.03485 -241.70866 
L 771.921596 -239.164248 
L 771.849359 -236.619835 
L 771.810127 -234.075422 
L 771.795874 -231.531009 
L 771.803038 -228.986597 
L 771.834465 -226.442184 
L 771.89865 -223.897771 
L 772.005875 -221.353358 
L 772.161396 -218.808945 
L 772.357745 -216.264533 
L 772.570569 -213.72012 
L 772.762593 -211.175707 
L 772.896173 -208.631294 
L 772.948639 -206.086882 
L 772.921139 -203.542469 
L 772.835337 -200.998056 
L 772.720769 -198.453643 
L 772.602206 -195.909231 
L 772.495378 -193.364818 
L 772.412446 -190.820405 
L 772.371665 -188.275992 
L 772.403408 -185.731579 
L 772.547329 -183.187167 
L 772.840264 -180.642754 
L 773.299524 -178.098341 
L 773.909906 -175.553928 
L 774.622687 -173.009516 
L 775.370001 -170.465103 
L 776.090964 -167.92069 
L 776.763014 -165.376277 
L 777.435996 -162.831864 
L 778.271225 -160.287452 
L 779.580682 -157.743039 
L 781.838714 -155.198626 
L 785.615961 -152.654213 
L 791.395204 -150.109801 
L 799.292575 -147.565388 
L 808.802018 -145.020975 
L 818.73177 -142.476562 
L 827.437831 -139.932149 
L 833.293747 -137.387737 
L 835.1856 -134.843324 
L 832.809615 -132.298911 
L 826.681719 -129.754498 
L 817.922405 -127.210086 
L 807.94152 -124.665673 
L 798.118548 -122.12126 
L 789.534918 -119.576847 
L 782.807281 -117.032434 
L 778.062293 -114.488022 
L 775.049083 -111.943609 
L 773.32685 -109.399196 
z
" style="stroke: #595959; stroke-width: 1.25"/>
    </defs>
    <g clip-path="url(#p4154b526f3)">
     <use xlink:href="#m0f393ca666" x="0" y="432" style="fill: #a2c865; stroke: #595959; stroke-width: 1.25"/>
    </g>
   </g>
   <g id="line2d_9">
    <path d="M 137.592 341.193014 
L 137.592 342.798407 
" clip-path="url(#p4154b526f3)" style="fill: none; stroke: #000000"/>
   </g>
   <g id="line2d_10">
    <path d="M 137.592 340.103261 
L 137.592 338.59249 
" clip-path="url(#p4154b526f3)" style="fill: none; stroke: #000000"/>
   </g>
   <g id="line2d_11">
    <path d="M 131.6466 342.798407 
L 143.5374 342.798407 
" clip-path="url(#p4154b526f3)" style="fill: none; stroke: #000000; stroke-linecap: round"/>
   </g>
   <g id="line2d_12">
    <path d="M 131.6466 338.59249 
L 143.5374 338.59249 
" clip-path="url(#p4154b526f3)" style="fill: none; stroke: #000000; stroke-linecap: round"/>
   </g>
   <g id="line2d_13">
    <path d="M 296.136 347.729408 
L 296.136 348.599085 
" clip-path="url(#p4154b526f3)" style="fill: none; stroke: #000000"/>
   </g>
   <g id="line2d_14">
    <path d="M 296.136 345.865664 
L 296.136 343.738253 
" clip-path="url(#p4154b526f3)" style="fill: none; stroke: #000000"/>
   </g>
   <g id="line2d_15">
    <path d="M 290.1906 348.599085 
L 302.0814 348.599085 
" clip-path="url(#p4154b526f3)" style="fill: none; stroke: #000000; stroke-linecap: round"/>
   </g>
   <g id="line2d_16">
    <path d="M 290.1906 343.738253 
L 302.0814 343.738253 
" clip-path="url(#p4154b526f3)" style="fill: none; stroke: #000000; stroke-linecap: round"/>
   </g>
   <g id="line2d_17">
    <path d="M 454.68 296.754464 
L 454.68 303.779918 
" clip-path="url(#p4154b526f3)" style="fill: none; stroke: #000000"/>
   </g>
   <g id="line2d_18">
    <path d="M 454.68 292.067993 
L 454.68 288.848701 
" clip-path="url(#p4154b526f3)" style="fill: none; stroke: #000000"/>
   </g>
   <g id="line2d_19">
    <path d="M 448.7346 303.779918 
L 460.6254 303.779918 
" clip-path="url(#p4154b526f3)" style="fill: none; stroke: #000000; stroke-linecap: round"/>
   </g>
   <g id="line2d_20">
    <path d="M 448.7346 288.848701 
L 460.6254 288.848701 
" clip-path="url(#p4154b526f3)" style="fill: none; stroke: #000000; stroke-linecap: round"/>
   </g>
   <g id="line2d_21">
    <path d="M 613.224 297.391305 
L 613.224 306.042353 
" clip-path="url(#p4154b526f3)" style="fill: none; stroke: #000000"/>
   </g>
   <g id="line2d_22">
    <path d="M 613.224 287.957762 
L 613.224 274.155636 
" clip-path="url(#p4154b526f3)" style="fill: none; stroke: #000000"/>
   </g>
   <g id="line2d_23">
    <path d="M 607.2786 306.042353 
L 619.1694 306.042353 
" clip-path="url(#p4154b526f3)" style="fill: none; stroke: #000000; stroke-linecap: round"/>
   </g>
   <g id="line2d_24">
    <path d="M 607.2786 274.155636 
L 619.1694 274.155636 
" clip-path="url(#p4154b526f3)" style="fill: none; stroke: #000000; stroke-linecap: round"/>
   </g>
   <g id="line2d_25">
    <path d="M 771.768 301.666328 
L 771.768 306.994957 
" clip-path="url(#p4154b526f3)" style="fill: none; stroke: #000000"/>
   </g>
   <g id="line2d_26">
    <path d="M 771.768 292.157299 
L 771.768 278.131907 
" clip-path="url(#p4154b526f3)" style="fill: none; stroke: #000000"/>
   </g>
   <g id="line2d_27">
    <path d="M 765.8226 306.994957 
L 777.7134 306.994957 
" clip-path="url(#p4154b526f3)" style="fill: none; stroke: #000000; stroke-linecap: round"/>
   </g>
   <g id="line2d_28">
    <path d="M 765.8226 278.131907 
L 777.7134 278.131907 
" clip-path="url(#p4154b526f3)" style="fill: none; stroke: #000000; stroke-linecap: round"/>
   </g>
   <g id="line2d_29">
    <path d="M 125.7012 340.691196 
L 149.4828 340.691196 
" clip-path="url(#p4154b526f3)" style="fill: none; stroke: #ff0000; stroke-width: 2"/>
   </g>
   <g id="line2d_30">
    <path d="M 284.2452 346.238838 
L 308.0268 346.238838 
" clip-path="url(#p4154b526f3)" style="fill: none; stroke: #ff0000; stroke-width: 2"/>
   </g>
   <g id="line2d_31">
    <path d="M 442.7892 294.419734 
L 466.5708 294.419734 
" clip-path="url(#p4154b526f3)" style="fill: none; stroke: #ff0000; stroke-width: 2"/>
   </g>
   <g id="line2d_32">
    <path d="M 601.3332 291.194063 
L 625.1148 291.194063 
" clip-path="url(#p4154b526f3)" style="fill: none; stroke: #ff0000; stroke-width: 2"/>
   </g>
   <g id="line2d_33">
    <path d="M 759.8772 295.070396 
L 783.6588 295.070396 
" clip-path="url(#p4154b526f3)" style="fill: none; stroke: #ff0000; stroke-width: 2"/>
   </g>
   <g id="patch_3">
    <path d="M 58.32 377.237044 
L 58.32 27.6 
" style="fill: none; stroke: #cccccc; stroke-width: 1.25; stroke-linejoin: miter; stroke-linecap: square"/>
   </g>
   <g id="patch_4">
    <path d="M 851.04 377.237044 
L 851.04 27.6 
" style="fill: none; stroke: #cccccc; stroke-width: 1.25; stroke-linejoin: miter; stroke-linecap: square"/>
   </g>
   <g id="patch_5">
    <path d="M 58.32 377.237044 
L 851.04 377.237044 
" style="fill: none; stroke: #cccccc; stroke-width: 1.25; stroke-linejoin: miter; stroke-linecap: square"/>
   </g>
   <g id="patch_6">
    <path d="M 58.32 27.6 
L 851.04 27.6 
" style="fill: none; stroke: #cccccc; stroke-width: 1.25; stroke-linejoin: miter; stroke-linecap: square"/>
   </g>
   <g id="text_15">
    <!-- Handshake duration on TLS with mldsa65 signature algorithm — Local YDE (35ms/2%) -->
    <g style="fill: #262626" transform="translate(194.655 21.6) scale(0.12 -0.12)">
     <defs>
      <path id="DejaVuSans-54" d="M -19 4666 
L 3928 4666 
L 3928 4134 
L 2272 4134 
L 2272 0 
L 1638 0 
L 1638 4134 
L -19 4134 
L -19 4666 
z
" transform="scale(0.015625)"/>
      <path id="DejaVuSans-4c" d="M 628 4666 
L 1259 4666 
L 1259 531 
L 3531 531 
L 3531 0 
L 628 0 
L 628 4666 
z
" transform="scale(0.015625)"/>
      <path id="DejaVuSans-53" d="M 3425 4513 
L 3425 3897 
Q 3066 4069 2747 4153 
Q 2428 4238 2131 4238 
Q 1616 4238 1336 4038 
Q 1056 3838 1056 3469 
Q 1056 3159 1242 3001 
Q 1428 2844 1947 2747 
L 2328 2669 
Q 3034 2534 3370 2195 
Q 3706 1856 3706 1288 
Q 3706 609 3251 259 
Q 2797 -91 1919 -91 
Q 1588 -91 1214 -16 
Q 841 59 441 206 
L 441 856 
Q 825 641 1194 531 
Q 1563 422 1919 422 
Q 2459 422 2753 634 
Q 3047 847 3047 1241 
Q 3047 1584 2836 1778 
Q 2625 1972 2144 2069 
L 1759 2144 
Q 1053 2284 737 2584 
Q 422 2884 422 3419 
Q 422 4038 858 4394 
Q 1294 4750 2059 4750 
Q 2388 4750 2728 4690 
Q 3069 4631 3425 4513 
z
" transform="scale(0.015625)"/>
      <path id="DejaVuSans-77" d="M 269 3500 
L 844 3500 
L 1563 769 
L 2278 3500 
L 2956 3500 
L 3675 769 
L 4391 3500 
L 4966 3500 
L 4050 0 
L 3372 0 
L 2619 2869 
L 1863 0 
L 1184 0 
L 269 3500 
z
" transform="scale(0.015625)"/>
      <path id="DejaVuSans-6c" d="M 603 4863 
L 1178 4863 
L 1178 0 
L 603 0 
L 603 4863 
z
" transform="scale(0.015625)"/>
      <path id="DejaVuSans-67" d="M 2906 1791 
Q 2906 2416 2648 2759 
Q 2391 3103 1925 3103 
Q 1463 3103 1205 2759 
Q 947 2416 947 1791 
Q 947 1169 1205 825 
Q 1463 481 1925 481 
Q 2391 481 2648 825 
Q 2906 1169 2906 1791 
z
M 3481 434 
Q 3481 -459 3084 -895 
Q 2688 -1331 1869 -1331 
Q 1566 -1331 1297 -1286 
Q 1028 -1241 775 -1147 
L 775 -588 
Q 1028 -725 1275 -790 
Q 1522 -856 1778 -856 
Q 2344 -856 2625 -561 
Q 2906 -266 2906 331 
L 2906 616 
Q 2728 306 2450 153 
Q 2172 0 1784 0 
Q 1141 0 747 490 
Q 353 981 353 1791 
Q 353 2603 747 3093 
Q 1141 3584 1784 3584 
Q 2172 3584 2450 3431 
Q 2728 3278 2906 2969 
L 2906 3500 
L 3481 3500 
L 3481 434 
z
" transform="scale(0.015625)"/>
      <path id="DejaVuSans-2014" d="M 313 1978 
L 6088 1978 
L 6088 1528 
L 313 1528 
L 313 1978 
z
" transform="scale(0.015625)"/>
      <path id="DejaVuSans-59" d="M -13 4666 
L 666 4666 
L 1959 2747 
L 3244 4666 
L 3922 4666 
L 2272 2222 
L 2272 0 
L 1638 0 
L 1638 2222 
L -13 4666 
z
" transform="scale(0.015625)"/>
      <path id="DejaVuSans-44" d="M 1259 4147 
L 1259 519 
L 2022 519 
Q 2988 519 3436 956 
Q 3884 1394 3884 2338 
Q 3884 3275 3436 3711 
Q 2988 4147 2022 4147 
L 1259 4147 
z
M 628 4666 
L 1925 4666 
Q 3281 4666 3915 4102 
Q 4550 3538 4550 2338 
Q 4550 1131 3912 565 
Q 3275 0 1925 0 
L 628 0 
L 628 4666 
z
" transform="scale(0.015625)"/>
      <path id="DejaVuSans-45" d="M 628 4666 
L 3578 4666 
L 3578 4134 
L 1259 4134 
L 1259 2753 
L 3481 2753 
L 3481 2222 
L 1259 2222 
L 1259 531 
L 3634 531 
L 3634 0 
L 628 0 
L 628 4666 
z
" transform="scale(0.015625)"/>
      <path id="DejaVuSans-2f" d="M 1625 4666 
L 2156 4666 
L 531 -594 
L 0 -594 
L 1625 4666 
z
" transform="scale(0.015625)"/>
      <path id="DejaVuSans-25" d="M 4653 2053 
Q 4381 2053 4226 1822 
Q 4072 1591 4072 1178 
Q 4072 772 4226 539 
Q 4381 306 4653 306 
Q 4919 306 5073 539 
Q 5228 772 5228 1178 
Q 5228 1588 5073 1820 
Q 4919 2053 4653 2053 
z
M 4653 2450 
Q 5147 2450 5437 2106 
Q 5728 1763 5728 1178 
Q 5728 594 5436 251 
Q 5144 -91 4653 -91 
Q 4153 -91 3862 251 
Q 3572 594 3572 1178 
Q 3572 1766 3864 2108 
Q 4156 2450 4653 2450 
z
M 1428 4353 
Q 1159 4353 1004 4120 
Q 850 3888 850 3481 
Q 850 3069 1003 2837 
Q 1156 2606 1428 2606 
Q 1700 2606 1854 2837 
Q 2009 3069 2009 3481 
Q 2009 3884 1853 4118 
Q 1697 4353 1428 4353 
z
M 4250 4750 
L 4750 4750 
L 1831 -91 
L 1331 -91 
L 4250 4750 
z
M 1428 4750 
Q 1922 4750 2215 4408 
Q 2509 4066 2509 3481 
Q 2509 2891 2217 2550 
Q 1925 2209 1428 2209 
Q 931 2209 642 2551 
Q 353 2894 353 3481 
Q 353 4063 643 4406 
Q 934 4750 1428 4750 
z
" transform="scale(0.015625)"/>
     </defs>
     <use xlink:href="#DejaVuSans-48"/>
     <use xlink:href="#DejaVuSans-61" x="75.195312"/>
     <use xlink:href="#DejaVuSans-6e" x="136.474609"/>
     <use xlink:href="#DejaVuSans-64" x="199.853516"/>
     <use xlink:href="#DejaVuSans-73" x="263.330078"/>
     <use xlink:href="#DejaVuSans-68" x="315.429688"/>
     <use xlink:href="#DejaVuSans-61" x="378.808594"/>
     <use xlink:href="#DejaVuSans-6b" x="440.087891"/>
     <use xlink:href="#DejaVuSans-65" x="494.373047"/>
     <use xlink:href="#DejaVuSans-20" x="555.896484"/>
     <use xlink:href="#DejaVuSans-64" x="587.683594"/>
     <use xlink:href="#DejaVuSans-75" x="651.160156"/>
     <use xlink:href="#DejaVuSans-72" x="714.539062"/>
     <use xlink:href="#DejaVuSans-61" x="755.652344"/>
     <use xlink:href="#DejaVuSans-74" x="816.931641"/>
     <use xlink:href="#DejaVuSans-69" x="856.140625"/>
     <use xlink:href="#DejaVuSans-6f" x="883.923828"/>
     <use xlink:href="#DejaVuSans-6e" x="945.105469"/>
     <use xlink:href="#DejaVuSans-20" x="1008.484375"/>
     <use xlink:href="#DejaVuSans-6f" x="1040.271484"/>
     <use xlink:href="#DejaVuSans-6e" x="1101.453125"/>
     <use xlink:href="#DejaVuSans-20" x="1164.832031"/>
     <use xlink:href="#DejaVuSans-54" x="1196.619141"/>
     <use xlink:href="#DejaVuSans-4c" x="1257.703125"/>
     <use xlink:href="#DejaVuSans-53" x="1313.416016"/>
     <use xlink:href="#DejaVuSans-20" x="1376.892578"/>
     <use xlink:href="#DejaVuSans-77" x="1408.679688"/>
     <use xlink:href="#DejaVuSans-69" x="1490.466797"/>
     <use xlink:href="#DejaVuSans-74" x="1518.25"/>
     <use xlink:href="#DejaVuSans-68" x="1557.458984"/>
     <use xlink:href="#DejaVuSans-20" x="1620.837891"/>
     <use xlink:href="#DejaVuSans-6d" x="1652.625"/>
     <use xlink:href="#DejaVuSans-6c" x="1750.037109"/>
     <use xlink:href="#DejaVuSans-64" x="1777.820312"/>
     <use xlink:href="#DejaVuSans-73" x="1841.296875"/>
     <use xlink:href="#DejaVuSans-61" x="1893.396484"/>
     <use xlink:href="#DejaVuSans-36" x="1954.675781"/>
     <use xlink:href="#DejaVuSans-35" x="2018.298828"/>
     <use xlink:href="#DejaVuSans-20" x="2081.921875"/>
     <use xlink:href="#DejaVuSans-73" x="2113.708984"/>
     <use xlink:href="#DejaVuSans-69" x="2165.808594"/>
     <use xlink:href="#DejaVuSans-67" x="2193.591797"/>
     <use xlink:href="#DejaVuSans-6e" x="2257.068359"/>
     <use xlink:href="#DejaVuSans-61" x="2320.447266"/>
     <use xlink:href="#DejaVuSans-74" x="2381.726562"/>
     <use xlink:href="#DejaVuSans-75" x="2420.935547"/>
     <use xlink:href="#DejaVuSans-72" x="2484.314453"/>
     <use xlink:href="#DejaVuSans-65" x="2523.177734"/>
     <use xlink:href="#DejaVuSans-20" x="2584.701172"/>
     <use xlink:href="#DejaVuSans-61" x="2616.488281"/>
     <use xlink:href="#DejaVuSans-6c" x="2677.767578"/>
     <use xlink:href="#DejaVuSans-67" x="2705.550781"/>
     <use xlink:href="#DejaVuSans-6f" x="2769.027344"/>
     <use xlink:href="#DejaVuSans-72" x="2830.208984"/>
     <use xlink:href="#DejaVuSans-69" x="2871.322266"/>
     <use xlink:href="#DejaVuSans-74" x="2899.105469"/>
     <use xlink:href="#DejaVuSans-68" x="2938.314453"/>
     <use xlink:href="#DejaVuSans-6d" x="3001.693359"/>
     <use xlink:href="#DejaVuSans-20" x="3099.105469"/>
     <use xlink:href="#DejaVuSans-2014" x="3130.892578"/>
     <use xlink:href="#DejaVuSans-20" x="3230.892578"/>
     <use xlink:href="#DejaVuSans-4c" x="3262.679688"/>
     <use xlink:href="#DejaVuSans-6f" x="3316.642578"/>
     <use xlink:href="#DejaVuSans-63" x="3377.824219"/>
     <use xlink:href="#DejaVuSans-61" x="3432.804688"/>
     <use xlink:href="#DejaVuSans-6c" x="3494.083984"/>
     <use xlink:href="#DejaVuSans-20" x="3521.867188"/>
     <use xlink:href="#DejaVuSans-59" x="3553.654297"/>
     <use xlink:href="#DejaVuSans-44" x="3614.738281"/>
     <use xlink:href="#DejaVuSans-45" x="3691.740234"/>
     <use xlink:href="#DejaVuSans-20" x="3754.923828"/>
     <use xlink:href="#DejaVuSans-28" x="3786.710938"/>
     <use xlink:href="#DejaVuSans-33" x="3825.724609"/>
     <use xlink:href="#DejaVuSans-35" x="3889.347656"/>
     <use xlink:href="#DejaVuSans-6d" x="3952.970703"/>
     <use xlink:href="#DejaVuSans-73" x="4050.382812"/>
     <use xlink:href="#DejaVuSans-2f" x="4102.482422"/>
     <use xlink:href="#DejaVuSans-32" x="4136.173828"/>
     <use xlink:href="#DejaVuSans-25" x="4199.796875"/>
     <use xlink:href="#DejaVuSans-29" x="4294.816406"/>
    </g>
   </g>
  </g>
 </g>
 <defs>
  <clipPath id="p4154b526f3">
   <rect x="58.32" y="27.6" width="792.72" height="349.637044"/>
  </clipPath>
 </defs>
</svg>
