<?xml version="1.0" encoding="utf-8" standalone="no"?>
<!DOCTYPE svg PUBLIC "-//W3C//DTD SVG 1.1//EN"
  "http://www.w3.org/Graphics/SVG/1.1/DTD/svg11.dtd">
<svg xmlns:xlink="http://www.w3.org/1999/xlink" width="864pt" height="432pt" viewBox="0 0 864 432" xmlns="http://www.w3.org/2000/svg" version="1.1">
 <metadata>
  <rdf:RDF xmlns:dc="http://purl.org/dc/elements/1.1/" xmlns:cc="http://creativecommons.org/ns#" xmlns:rdf="http://www.w3.org/1999/02/22-rdf-syntax-ns#">
   <cc:Work>
    <dc:type rdf:resource="http://purl.org/dc/dcmitype/StillImage"/>
    <dc:date>2026-03-21T14:06:22.614663</dc:date>
    <dc:format>image/svg+xml</dc:format>
    <dc:creator>
     <cc:Agent>
      <dc:title>Matplotlib v3.6.3, https://matplotlib.org/</dc:title>
     </cc:Agent>
    </dc:creator>
   </cc:Work>
  </rdf:RDF>
 </metadata>
 <defs>
  <style type="text/css">*{stroke-linejoin: round; stroke-linecap: butt}</style>
 </defs>
 <g id="figure_1">
  <g id="patch_1">
   <path d="M 0 432 
L 864 432 
L 864 0 
L 0 0 
z
" style="fill: #ffffff"/>
  </g>
  <g id="axes_1">
   <g id="patch_2">
    <path d="M 65.34 377.237044 
L 851.04 377.237044 
L 851.04 27.6 
L 65.34 27.6 
z
" style="fill: #ffffff"/>
   </g>
   <g id="matplotlib.axis_1">
    <g id="xtick_1">
     <g id="text_1">
      <!-- P-384 -->
      <g style="fill: #262626" transform="translate(110.229421 404.396088) rotate(-15) scale(0.12 -0.12)">
       <defs>
        <path id="DejaVuSans-50" d="M 1259 4147 
L 1259 2394 
L 2053 2394 
Q 2494 2394 2734 2622 
Q 2975 2850 2975 3272 
Q 2975 3691 2734 3919 
Q 2494 4147 2053 4147 
L 1259 4147 
z
M 628 4666 
L 2053 4666 
Q 2838 4666 3239 4311 
Q 3641 3956 3641 3272 
Q 3641 2581 3239 2228 
Q 2838 1875 2053 1875 
L 1259 1875 
L 1259 0 
L 628 0 
L 628 4666 
z
" transform="scale(0.015625)"/>
        <path id="DejaVuSans-2d" d="M 313 2009 
L 1997 2009 
L 1997 1497 
L 313 1497 
L 313 2009 
z
" transform="scale(0.015625)"/>
        <path id="DejaVuSans-33" d="M 2597 2516 
Q 3050 2419 3304 2112 
Q 3559 1806 3559 1356 
Q 3559 666 3084 287 
Q 2609 -91 1734 -91 
Q 1441 -91 1130 -33 
Q 819 25 488 141 
L 488 750 
Q 750 597 1062 519 
Q 1375 441 1716 441 
Q 2309 441 2620 675 
Q 2931 909 2931 1356 
Q 2931 1769 2642 2001 
Q 2353 2234 1838 2234 
L 1294 2234 
L 1294 2753 
L 1863 2753 
Q 2328 2753 2575 2939 
Q 2822 3125 2822 3475 
Q 2822 3834 2567 4026 
Q 2313 4219 1838 4219 
Q 1578 4219 1281 4162 
Q 984 4106 628 3988 
L 628 4550 
Q 988 4650 1302 4700 
Q 1616 4750 1894 4750 
Q 2613 4750 3031 4423 
Q 3450 4097 3450 3541 
Q 3450 3153 3228 2886 
Q 3006 2619 2597 2516 
z
" transform="scale(0.015625)"/>
        <path id="DejaVuSans-38" d="M 2034 2216 
Q 1584 2216 1326 1975 
Q 1069 1734 1069 1313 
Q 1069 891 1326 650 
Q 1584 409 2034 409 
Q 2484 409 2743 651 
Q 3003 894 3003 1313 
Q 3003 1734 2745 1975 
Q 2488 2216 2034 2216 
z
M 1403 2484 
Q 997 2584 770 2862 
Q 544 3141 544 3541 
Q 544 4100 942 4425 
Q 1341 4750 2034 4750 
Q 2731 4750 3128 4425 
Q 3525 4100 3525 3541 
Q 3525 3141 3298 2862 
Q 3072 2584 2669 2484 
Q 3125 2378 3379 2068 
Q 3634 1759 3634 1313 
Q 3634 634 3220 271 
Q 2806 -91 2034 -91 
Q 1263 -91 848 271 
Q 434 634 434 1313 
Q 434 1759 690 2068 
Q 947 2378 1403 2484 
z
M 1172 3481 
Q 1172 3119 1398 2916 
Q 1625 2713 2034 2713 
Q 2441 2713 2670 2916 
Q 2900 3119 2900 3481 
Q 2900 3844 2670 4047 
Q 2441 4250 2034 4250 
Q 1625 4250 1398 4047 
Q 1172 3844 1172 3481 
z
" transform="scale(0.015625)"/>
        <path id="DejaVuSans-34" d="M 2419 4116 
L 825 1625 
L 2419 1625 
L 2419 4116 
z
M 2253 4666 
L 3047 4666 
L 3047 1625 
L 3713 1625 
L 3713 1100 
L 3047 1100 
L 3047 0 
L 2419 0 
L 2419 1100 
L 313 1100 
L 313 1709 
L 2253 4666 
z
" transform="scale(0.015625)"/>
       </defs>
       <use xlink:href="#DejaVuSans-50"/>
       <use xlink:href="#DejaVuSans-2d" x="58.052734"/>
       <use xlink:href="#DejaVuSans-33" x="94.136719"/>
       <use xlink:href="#DejaVuSans-38" x="157.759766"/>
       <use xlink:href="#DejaVuSans-34" x="221.382812"/>
      </g>
     </g>
    </g>
    <g id="xtick_2">
     <g id="text_2">
      <!-- x448 -->
      <g style="fill: #262626" transform="translate(271.419065 403.310989) rotate(-15) scale(0.12 -0.12)">
       <defs>
        <path id="DejaVuSans-78" d="M 3513 3500 
L 2247 1797 
L 3578 0 
L 2900 0 
L 1881 1375 
L 863 0 
L 184 0 
L 1544 1831 
L 300 3500 
L 978 3500 
L 1906 2253 
L 2834 3500 
L 3513 3500 
z
" transform="scale(0.015625)"/>
       </defs>
       <use xlink:href="#DejaVuSans-78"/>
       <use xlink:href="#DejaVuSans-34" x="59.179688"/>
       <use xlink:href="#DejaVuSans-34" x="122.802734"/>
       <use xlink:href="#DejaVuSans-38" x="186.425781"/>
      </g>
     </g>
    </g>
    <g id="xtick_3">
     <g id="text_3">
      <!-- hqc192 -->
      <g style="fill: #262626" transform="translate(414.341845 407.120482) rotate(-15) scale(0.12 -0.12)">
       <defs>
        <path id="DejaVuSans-68" d="M 3513 2113 
L 3513 0 
L 2938 0 
L 2938 2094 
Q 2938 2591 2744 2837 
Q 2550 3084 2163 3084 
Q 1697 3084 1428 2787 
Q 1159 2491 1159 1978 
L 1159 0 
L 581 0 
L 581 4863 
L 1159 4863 
L 1159 2956 
Q 1366 3272 1645 3428 
Q 1925 3584 2291 3584 
Q 2894 3584 3203 3211 
Q 3513 2838 3513 2113 
z
" transform="scale(0.015625)"/>
        <path id="DejaVuSans-71" d="M 947 1747 
Q 947 1113 1208 752 
Q 1469 391 1925 391 
Q 2381 391 2643 752 
Q 2906 1113 2906 1747 
Q 2906 2381 2643 2742 
Q 2381 3103 1925 3103 
Q 1469 3103 1208 2742 
Q 947 2381 947 1747 
z
M 2906 525 
Q 2725 213 2448 61 
Q 2172 -91 1784 -91 
Q 1150 -91 751 415 
Q 353 922 353 1747 
Q 353 2572 751 3078 
Q 1150 3584 1784 3584 
Q 2172 3584 2448 3432 
Q 2725 3281 2906 2969 
L 2906 3500 
L 3481 3500 
L 3481 -1331 
L 2906 -1331 
L 2906 525 
z
" transform="scale(0.015625)"/>
        <path id="DejaVuSans-63" d="M 3122 3366 
L 3122 2828 
Q 2878 2963 2633 3030 
Q 2388 3097 2138 3097 
Q 1578 3097 1268 2742 
Q 959 2388 959 1747 
Q 959 1106 1268 751 
Q 1578 397 2138 397 
Q 2388 397 2633 464 
Q 2878 531 3122 666 
L 3122 134 
Q 2881 22 2623 -34 
Q 2366 -91 2075 -91 
Q 1284 -91 818 406 
Q 353 903 353 1747 
Q 353 2603 823 3093 
Q 1294 3584 2113 3584 
Q 2378 3584 2631 3529 
Q 2884 3475 3122 3366 
z
" transform="scale(0.015625)"/>
        <path id="DejaVuSans-31" d="M 794 531 
L 1825 531 
L 1825 4091 
L 703 3866 
L 703 4441 
L 1819 4666 
L 2450 4666 
L 2450 531 
L 3481 531 
L 3481 0 
L 794 0 
L 794 531 
z
" transform="scale(0.015625)"/>
        <path id="DejaVuSans-39" d="M 703 97 
L 703 672 
Q 941 559 1184 500 
Q 1428 441 1663 441 
Q 2288 441 2617 861 
Q 2947 1281 2994 2138 
Q 2813 1869 2534 1725 
Q 2256 1581 1919 1581 
Q 1219 1581 811 2004 
Q 403 2428 403 3163 
Q 403 3881 828 4315 
Q 1253 4750 1959 4750 
Q 2769 4750 3195 4129 
Q 3622 3509 3622 2328 
Q 3622 1225 3098 567 
Q 2575 -91 1691 -91 
Q 1453 -91 1209 -44 
Q 966 3 703 97 
z
M 1959 2075 
Q 2384 2075 2632 2365 
Q 2881 2656 2881 3163 
Q 2881 3666 2632 3958 
Q 2384 4250 1959 4250 
Q 1534 4250 1286 3958 
Q 1038 3666 1038 3163 
Q 1038 2656 1286 2365 
Q 1534 2075 1959 2075 
z
" transform="scale(0.015625)"/>
        <path id="DejaVuSans-32" d="M 1228 531 
L 3431 531 
L 3431 0 
L 469 0 
L 469 531 
Q 828 903 1448 1529 
Q 2069 2156 2228 2338 
Q 2531 2678 2651 2914 
Q 2772 3150 2772 3378 
Q 2772 3750 2511 3984 
Q 2250 4219 1831 4219 
Q 1534 4219 1204 4116 
Q 875 4013 500 3803 
L 500 4441 
Q 881 4594 1212 4672 
Q 1544 4750 1819 4750 
Q 2544 4750 2975 4387 
Q 3406 4025 3406 3419 
Q 3406 3131 3298 2873 
Q 3191 2616 2906 2266 
Q 2828 2175 2409 1742 
Q 1991 1309 1228 531 
z
" transform="scale(0.015625)"/>
       </defs>
       <use xlink:href="#DejaVuSans-68"/>
       <use xlink:href="#DejaVuSans-71" x="63.378906"/>
       <use xlink:href="#DejaVuSans-63" x="126.855469"/>
       <use xlink:href="#DejaVuSans-31" x="181.835938"/>
       <use xlink:href="#DejaVuSans-39" x="245.458984"/>
       <use xlink:href="#DejaVuSans-32" x="309.082031"/>
      </g>
     </g>
    </g>
    <g id="xtick_4">
     <g id="text_4">
      <!-- p384_hqc192 -->
      <g style="fill: #262626" transform="translate(536.116834 416.573362) rotate(-15) scale(0.12 -0.12)">
       <defs>
        <path id="DejaVuSans-70" d="M 1159 525 
L 1159 -1331 
L 581 -1331 
L 581 3500 
L 1159 3500 
L 1159 2969 
Q 1341 3281 1617 3432 
Q 1894 3584 2278 3584 
Q 2916 3584 3314 3078 
Q 3713 2572 3713 1747 
Q 3713 922 3314 415 
Q 2916 -91 2278 -91 
Q 1894 -91 1617 61 
Q 1341 213 1159 525 
z
M 3116 1747 
Q 3116 2381 2855 2742 
Q 2594 3103 2138 3103 
Q 1681 3103 1420 2742 
Q 1159 2381 1159 1747 
Q 1159 1113 1420 752 
Q 1681 391 2138 391 
Q 2594 391 2855 752 
Q 3116 1113 3116 1747 
z
" transform="scale(0.015625)"/>
        <path id="DejaVuSans-5f" d="M 3263 -1063 
L 3263 -1509 
L -63 -1509 
L -63 -1063 
L 3263 -1063 
z
" transform="scale(0.015625)"/>
       </defs>
       <use xlink:href="#DejaVuSans-70"/>
       <use xlink:href="#DejaVuSans-33" x="63.476562"/>
       <use xlink:href="#DejaVuSans-38" x="127.099609"/>
       <use xlink:href="#DejaVuSans-34" x="190.722656"/>
       <use xlink:href="#DejaVuSans-5f" x="254.345703"/>
       <use xlink:href="#DejaVuSans-68" x="304.345703"/>
       <use xlink:href="#DejaVuSans-71" x="367.724609"/>
       <use xlink:href="#DejaVuSans-63" x="431.201172"/>
       <use xlink:href="#DejaVuSans-31" x="486.181641"/>
       <use xlink:href="#DejaVuSans-39" x="549.804688"/>
       <use xlink:href="#DejaVuSans-32" x="613.427734"/>
      </g>
     </g>
    </g>
    <g id="xtick_5">
     <g id="text_5">
      <!-- x448_hqc192 -->
      <g style="fill: #262626" transform="translate(693.75489 416.439909) rotate(-15) scale(0.12 -0.12)">
       <use xlink:href="#DejaVuSans-78"/>
       <use xlink:href="#DejaVuSans-34" x="59.179688"/>
       <use xlink:href="#DejaVuSans-34" x="122.802734"/>
       <use xlink:href="#DejaVuSans-38" x="186.425781"/>
       <use xlink:href="#DejaVuSans-5f" x="250.048828"/>
       <use xlink:href="#DejaVuSans-68" x="300.048828"/>
       <use xlink:href="#DejaVuSans-71" x="363.427734"/>
       <use xlink:href="#DejaVuSans-63" x="426.904297"/>
       <use xlink:href="#DejaVuSans-31" x="481.884766"/>
       <use xlink:href="#DejaVuSans-39" x="545.507812"/>
       <use xlink:href="#DejaVuSans-32" x="609.130859"/>
      </g>
     </g>
    </g>
   </g>
   <g id="matplotlib.axis_2">
    <g id="ytick_1">
     <g id="line2d_1">
      <path d="M 65.34 374.636559 
L 851.04 374.636559 
" clip-path="url(#peadf94155c)" style="fill: none; stroke: #cccccc; stroke-linecap: round"/>
     </g>
     <g id="text_6">
      <!-- 800 -->
      <g style="fill: #262626" transform="translate(34.84375 378.8157) scale(0.11 -0.11)">
       <defs>
        <path id="DejaVuSans-30" d="M 2034 4250 
Q 1547 4250 1301 3770 
Q 1056 3291 1056 2328 
Q 1056 1369 1301 889 
Q 1547 409 2034 409 
Q 2525 409 2770 889 
Q 3016 1369 3016 2328 
Q 3016 3291 2770 3770 
Q 2525 4250 2034 4250 
z
M 2034 4750 
Q 2819 4750 3233 4129 
Q 3647 3509 3647 2328 
Q 3647 1150 3233 529 
Q 2819 -91 2034 -91 
Q 1250 -91 836 529 
Q 422 1150 422 2328 
Q 422 3509 836 4129 
Q 1250 4750 2034 4750 
z
" transform="scale(0.015625)"/>
       </defs>
       <use xlink:href="#DejaVuSans-38"/>
       <use xlink:href="#DejaVuSans-30" x="63.623047"/>
       <use xlink:href="#DejaVuSans-30" x="127.246094"/>
      </g>
     </g>
    </g>
    <g id="ytick_2">
     <g id="line2d_2">
      <path d="M 65.34 335.197446 
L 851.04 335.197446 
" clip-path="url(#peadf94155c)" style="fill: none; stroke: #cccccc; stroke-linecap: round"/>
     </g>
     <g id="text_7">
      <!-- 825 -->
      <g style="fill: #262626" transform="translate(34.84375 339.376587) scale(0.11 -0.11)">
       <defs>
        <path id="DejaVuSans-35" d="M 691 4666 
L 3169 4666 
L 3169 4134 
L 1269 4134 
L 1269 2991 
Q 1406 3038 1543 3061 
Q 1681 3084 1819 3084 
Q 2600 3084 3056 2656 
Q 3513 2228 3513 1497 
Q 3513 744 3044 326 
Q 2575 -91 1722 -91 
Q 1428 -91 1123 -41 
Q 819 9 494 109 
L 494 744 
Q 775 591 1075 516 
Q 1375 441 1709 441 
Q 2250 441 2565 725 
Q 2881 1009 2881 1497 
Q 2881 1984 2565 2268 
Q 2250 2553 1709 2553 
Q 1456 2553 1204 2497 
Q 953 2441 691 2322 
L 691 4666 
z
" transform="scale(0.015625)"/>
       </defs>
       <use xlink:href="#DejaVuSans-38"/>
       <use xlink:href="#DejaVuSans-32" x="63.623047"/>
       <use xlink:href="#DejaVuSans-35" x="127.246094"/>
      </g>
     </g>
    </g>
    <g id="ytick_3">
     <g id="line2d_3">
      <path d="M 65.34 295.758333 
L 851.04 295.758333 
" clip-path="url(#peadf94155c)" style="fill: none; stroke: #cccccc; stroke-linecap: round"/>
     </g>
     <g id="text_8">
      <!-- 850 -->
      <g style="fill: #262626" transform="translate(34.84375 299.937474) scale(0.11 -0.11)">
       <use xlink:href="#DejaVuSans-38"/>
       <use xlink:href="#DejaVuSans-35" x="63.623047"/>
       <use xlink:href="#DejaVuSans-30" x="127.246094"/>
      </g>
     </g>
    </g>
    <g id="ytick_4">
     <g id="line2d_4">
      <path d="M 65.34 256.31922 
L 851.04 256.31922 
" clip-path="url(#peadf94155c)" style="fill: none; stroke: #cccccc; stroke-linecap: round"/>
     </g>
     <g id="text_9">
      <!-- 875 -->
      <g style="fill: #262626" transform="translate(34.84375 260.498361) scale(0.11 -0.11)">
       <defs>
        <path id="DejaVuSans-37" d="M 525 4666 
L 3525 4666 
L 3525 4397 
L 1831 0 
L 1172 0 
L 2766 4134 
L 525 4134 
L 525 4666 
z
" transform="scale(0.015625)"/>
       </defs>
       <use xlink:href="#DejaVuSans-38"/>
       <use xlink:href="#DejaVuSans-37" x="63.623047"/>
       <use xlink:href="#DejaVuSans-35" x="127.246094"/>
      </g>
     </g>
    </g>
    <g id="ytick_5">
     <g id="line2d_5">
      <path d="M 65.34 216.880107 
L 851.04 216.880107 
" clip-path="url(#peadf94155c)" style="fill: none; stroke: #cccccc; stroke-linecap: round"/>
     </g>
     <g id="text_10">
      <!-- 900 -->
      <g style="fill: #262626" transform="translate(34.84375 221.059248) scale(0.11 -0.11)">
       <use xlink:href="#DejaVuSans-39"/>
       <use xlink:href="#DejaVuSans-30" x="63.623047"/>
       <use xlink:href="#DejaVuSans-30" x="127.246094"/>
      </g>
     </g>
    </g>
    <g id="ytick_6">
     <g id="line2d_6">
      <path d="M 65.34 177.440994 
L 851.04 177.440994 
" clip-path="url(#peadf94155c)" style="fill: none; stroke: #cccccc; stroke-linecap: round"/>
     </g>
     <g id="text_11">
      <!-- 925 -->
      <g style="fill: #262626" transform="translate(34.84375 181.620135) scale(0.11 -0.11)">
       <use xlink:href="#DejaVuSans-39"/>
       <use xlink:href="#DejaVuSans-32" x="63.623047"/>
       <use xlink:href="#DejaVuSans-35" x="127.246094"/>
      </g>
     </g>
    </g>
    <g id="ytick_7">
     <g id="line2d_7">
      <path d="M 65.34 138.001882 
L 851.04 138.001882 
" clip-path="url(#peadf94155c)" style="fill: none; stroke: #cccccc; stroke-linecap: round"/>
     </g>
     <g id="text_12">
      <!-- 950 -->
      <g style="fill: #262626" transform="translate(34.84375 142.181022) scale(0.11 -0.11)">
       <use xlink:href="#DejaVuSans-39"/>
       <use xlink:href="#DejaVuSans-35" x="63.623047"/>
       <use xlink:href="#DejaVuSans-30" x="127.246094"/>
      </g>
     </g>
    </g>
    <g id="ytick_8">
     <g id="line2d_8">
      <path d="M 65.34 98.562769 
L 851.04 98.562769 
" clip-path="url(#peadf94155c)" style="fill: none; stroke: #cccccc; stroke-linecap: round"/>
     </g>
     <g id="text_13">
      <!-- 975 -->
      <g style="fill: #262626" transform="translate(34.84375 102.741909) scale(0.11 -0.11)">
       <use xlink:href="#DejaVuSans-39"/>
       <use xlink:href="#DejaVuSans-37" x="63.623047"/>
       <use xlink:href="#DejaVuSans-35" x="127.246094"/>
      </g>
     </g>
    </g>
    <g id="ytick_9">
     <g id="line2d_9">
      <path d="M 65.34 59.123656 
L 851.04 59.123656 
" clip-path="url(#peadf94155c)" style="fill: none; stroke: #cccccc; stroke-linecap: round"/>
     </g>
     <g id="text_14">
      <!-- 1000 -->
      <g style="fill: #262626" transform="translate(27.845 63.302796) scale(0.11 -0.11)">
       <use xlink:href="#DejaVuSans-31"/>
       <use xlink:href="#DejaVuSans-30" x="63.623047"/>
       <use xlink:href="#DejaVuSans-30" x="127.246094"/>
       <use xlink:href="#DejaVuSans-30" x="190.869141"/>
      </g>
     </g>
    </g>
    <g id="text_15">
     <!-- Handshake duration (ms) -->
     <g style="fill: #262626" transform="translate(21.349375 278.486335) rotate(-90) scale(0.12 -0.12)">
      <defs>
       <path id="DejaVuSans-48" d="M 628 4666 
L 1259 4666 
L 1259 2753 
L 3553 2753 
L 3553 4666 
L 4184 4666 
L 4184 0 
L 3553 0 
L 3553 2222 
L 1259 2222 
L 1259 0 
L 628 0 
L 628 4666 
z
" transform="scale(0.015625)"/>
       <path id="DejaVuSans-61" d="M 2194 1759 
Q 1497 1759 1228 1600 
Q 959 1441 959 1056 
Q 959 750 1161 570 
Q 1363 391 1709 391 
Q 2188 391 2477 730 
Q 2766 1069 2766 1631 
L 2766 1759 
L 2194 1759 
z
M 3341 1997 
L 3341 0 
L 2766 0 
L 2766 531 
Q 2569 213 2275 61 
Q 1981 -91 1556 -91 
Q 1019 -91 701 211 
Q 384 513 384 1019 
Q 384 1609 779 1909 
Q 1175 2209 1959 2209 
L 2766 2209 
L 2766 2266 
Q 2766 2663 2505 2880 
Q 2244 3097 1772 3097 
Q 1472 3097 1187 3025 
Q 903 2953 641 2809 
L 641 3341 
Q 956 3463 1253 3523 
Q 1550 3584 1831 3584 
Q 2591 3584 2966 3190 
Q 3341 2797 3341 1997 
z
" transform="scale(0.015625)"/>
       <path id="DejaVuSans-6e" d="M 3513 2113 
L 3513 0 
L 2938 0 
L 2938 2094 
Q 2938 2591 2744 2837 
Q 2550 3084 2163 3084 
Q 1697 3084 1428 2787 
Q 1159 2491 1159 1978 
L 1159 0 
L 581 0 
L 581 3500 
L 1159 3500 
L 1159 2956 
Q 1366 3272 1645 3428 
Q 1925 3584 2291 3584 
Q 2894 3584 3203 3211 
Q 3513 2838 3513 2113 
z
" transform="scale(0.015625)"/>
       <path id="DejaVuSans-64" d="M 2906 2969 
L 2906 4863 
L 3481 4863 
L 3481 0 
L 2906 0 
L 2906 525 
Q 2725 213 2448 61 
Q 2172 -91 1784 -91 
Q 1150 -91 751 415 
Q 353 922 353 1747 
Q 353 2572 751 3078 
Q 1150 3584 1784 3584 
Q 2172 3584 2448 3432 
Q 2725 3281 2906 2969 
z
M 947 1747 
Q 947 1113 1208 752 
Q 1469 391 1925 391 
Q 2381 391 2643 752 
Q 2906 1113 2906 1747 
Q 2906 2381 2643 2742 
Q 2381 3103 1925 3103 
Q 1469 3103 1208 2742 
Q 947 2381 947 1747 
z
" transform="scale(0.015625)"/>
       <path id="DejaVuSans-73" d="M 2834 3397 
L 2834 2853 
Q 2591 2978 2328 3040 
Q 2066 3103 1784 3103 
Q 1356 3103 1142 2972 
Q 928 2841 928 2578 
Q 928 2378 1081 2264 
Q 1234 2150 1697 2047 
L 1894 2003 
Q 2506 1872 2764 1633 
Q 3022 1394 3022 966 
Q 3022 478 2636 193 
Q 2250 -91 1575 -91 
Q 1294 -91 989 -36 
Q 684 19 347 128 
L 347 722 
Q 666 556 975 473 
Q 1284 391 1588 391 
Q 1994 391 2212 530 
Q 2431 669 2431 922 
Q 2431 1156 2273 1281 
Q 2116 1406 1581 1522 
L 1381 1569 
Q 847 1681 609 1914 
Q 372 2147 372 2553 
Q 372 3047 722 3315 
Q 1072 3584 1716 3584 
Q 2034 3584 2315 3537 
Q 2597 3491 2834 3397 
z
" transform="scale(0.015625)"/>
       <path id="DejaVuSans-6b" d="M 581 4863 
L 1159 4863 
L 1159 1991 
L 2875 3500 
L 3609 3500 
L 1753 1863 
L 3688 0 
L 2938 0 
L 1159 1709 
L 1159 0 
L 581 0 
L 581 4863 
z
" transform="scale(0.015625)"/>
       <path id="DejaVuSans-65" d="M 3597 1894 
L 3597 1613 
L 953 1613 
Q 991 1019 1311 708 
Q 1631 397 2203 397 
Q 2534 397 2845 478 
Q 3156 559 3463 722 
L 3463 178 
Q 3153 47 2828 -22 
Q 2503 -91 2169 -91 
Q 1331 -91 842 396 
Q 353 884 353 1716 
Q 353 2575 817 3079 
Q 1281 3584 2069 3584 
Q 2775 3584 3186 3129 
Q 3597 2675 3597 1894 
z
M 3022 2063 
Q 3016 2534 2758 2815 
Q 2500 3097 2075 3097 
Q 1594 3097 1305 2825 
Q 1016 2553 972 2059 
L 3022 2063 
z
" transform="scale(0.015625)"/>
       <path id="DejaVuSans-20" transform="scale(0.015625)"/>
       <path id="DejaVuSans-75" d="M 544 1381 
L 544 3500 
L 1119 3500 
L 1119 1403 
Q 1119 906 1312 657 
Q 1506 409 1894 409 
Q 2359 409 2629 706 
Q 2900 1003 2900 1516 
L 2900 3500 
L 3475 3500 
L 3475 0 
L 2900 0 
L 2900 538 
Q 2691 219 2414 64 
Q 2138 -91 1772 -91 
Q 1169 -91 856 284 
Q 544 659 544 1381 
z
M 1991 3584 
L 1991 3584 
z
" transform="scale(0.015625)"/>
       <path id="DejaVuSans-72" d="M 2631 2963 
Q 2534 3019 2420 3045 
Q 2306 3072 2169 3072 
Q 1681 3072 1420 2755 
Q 1159 2438 1159 1844 
L 1159 0 
L 581 0 
L 581 3500 
L 1159 3500 
L 1159 2956 
Q 1341 3275 1631 3429 
Q 1922 3584 2338 3584 
Q 2397 3584 2469 3576 
Q 2541 3569 2628 3553 
L 2631 2963 
z
" transform="scale(0.015625)"/>
       <path id="DejaVuSans-74" d="M 1172 4494 
L 1172 3500 
L 2356 3500 
L 2356 3053 
L 1172 3053 
L 1172 1153 
Q 1172 725 1289 603 
Q 1406 481 1766 481 
L 2356 481 
L 2356 0 
L 1766 0 
Q 1100 0 847 248 
Q 594 497 594 1153 
L 594 3053 
L 172 3053 
L 172 3500 
L 594 3500 
L 594 4494 
L 1172 4494 
z
" transform="scale(0.015625)"/>
       <path id="DejaVuSans-69" d="M 603 3500 
L 1178 3500 
L 1178 0 
L 603 0 
L 603 3500 
z
M 603 4863 
L 1178 4863 
L 1178 4134 
L 603 4134 
L 603 4863 
z
" transform="scale(0.015625)"/>
       <path id="DejaVuSans-6f" d="M 1959 3097 
Q 1497 3097 1228 2736 
Q 959 2375 959 1747 
Q 959 1119 1226 758 
Q 1494 397 1959 397 
Q 2419 397 2687 759 
Q 2956 1122 2956 1747 
Q 2956 2369 2687 2733 
Q 2419 3097 1959 3097 
z
M 1959 3584 
Q 2709 3584 3137 3096 
Q 3566 2609 3566 1747 
Q 3566 888 3137 398 
Q 2709 -91 1959 -91 
Q 1206 -91 779 398 
Q 353 888 353 1747 
Q 353 2609 779 3096 
Q 1206 3584 1959 3584 
z
" transform="scale(0.015625)"/>
       <path id="DejaVuSans-28" d="M 1984 4856 
Q 1566 4138 1362 3434 
Q 1159 2731 1159 2009 
Q 1159 1288 1364 580 
Q 1569 -128 1984 -844 
L 1484 -844 
Q 1016 -109 783 600 
Q 550 1309 550 2009 
Q 550 2706 781 3412 
Q 1013 4119 1484 4856 
L 1984 4856 
z
" transform="scale(0.015625)"/>
       <path id="DejaVuSans-6d" d="M 3328 2828 
Q 3544 3216 3844 3400 
Q 4144 3584 4550 3584 
Q 5097 3584 5394 3201 
Q 5691 2819 5691 2113 
L 5691 0 
L 5113 0 
L 5113 2094 
Q 5113 2597 4934 2840 
Q 4756 3084 4391 3084 
Q 3944 3084 3684 2787 
Q 3425 2491 3425 1978 
L 3425 0 
L 2847 0 
L 2847 2094 
Q 2847 2600 2669 2842 
Q 2491 3084 2119 3084 
Q 1678 3084 1418 2786 
Q 1159 2488 1159 1978 
L 1159 0 
L 581 0 
L 581 3500 
L 1159 3500 
L 1159 2956 
Q 1356 3278 1631 3431 
Q 1906 3584 2284 3584 
Q 2666 3584 2933 3390 
Q 3200 3197 3328 2828 
z
" transform="scale(0.015625)"/>
       <path id="DejaVuSans-29" d="M 513 4856 
L 1013 4856 
Q 1481 4119 1714 3412 
Q 1947 2706 1947 2009 
Q 1947 1309 1714 600 
Q 1481 -109 1013 -844 
L 513 -844 
Q 928 -128 1133 580 
Q 1338 1288 1338 2009 
Q 1338 2731 1133 3434 
Q 928 4138 513 4856 
z
" transform="scale(0.015625)"/>
      </defs>
      <use xlink:href="#DejaVuSans-48"/>
      <use xlink:href="#DejaVuSans-61" x="75.195312"/>
      <use xlink:href="#DejaVuSans-6e" x="136.474609"/>
      <use xlink:href="#DejaVuSans-64" x="199.853516"/>
      <use xlink:href="#DejaVuSans-73" x="263.330078"/>
      <use xlink:href="#DejaVuSans-68" x="315.429688"/>
      <use xlink:href="#DejaVuSans-61" x="378.808594"/>
      <use xlink:href="#DejaVuSans-6b" x="440.087891"/>
      <use xlink:href="#DejaVuSans-65" x="494.373047"/>
      <use xlink:href="#DejaVuSans-20" x="555.896484"/>
      <use xlink:href="#DejaVuSans-64" x="587.683594"/>
      <use xlink:href="#DejaVuSans-75" x="651.160156"/>
      <use xlink:href="#DejaVuSans-72" x="714.539062"/>
      <use xlink:href="#DejaVuSans-61" x="755.652344"/>
      <use xlink:href="#DejaVuSans-74" x="816.931641"/>
      <use xlink:href="#DejaVuSans-69" x="856.140625"/>
      <use xlink:href="#DejaVuSans-6f" x="883.923828"/>
      <use xlink:href="#DejaVuSans-6e" x="945.105469"/>
      <use xlink:href="#DejaVuSans-20" x="1008.484375"/>
      <use xlink:href="#DejaVuSans-28" x="1040.271484"/>
      <use xlink:href="#DejaVuSans-6d" x="1079.285156"/>
      <use xlink:href="#DejaVuSans-73" x="1176.697266"/>
      <use xlink:href="#DejaVuSans-29" x="1228.796875"/>
     </g>
    </g>
   </g>
   <g id="PolyCollection_1">
    <defs>
     <path id="m3523ff4a0f" d="M 144.023236 -90.761278 
L 143.796764 -90.761278 
L 143.712066 -91.261621 
L 143.588868 -91.761964 
L 143.426197 -92.262306 
L 143.232668 -92.762649 
L 143.027654 -93.262992 
L 142.838147 -93.763335 
L 142.691272 -94.263677 
L 142.604948 -94.76402 
L 142.581017 -95.264363 
L 142.604638 -95.764706 
L 142.650728 -96.265048 
L 142.694242 -96.765391 
L 142.718506 -97.265734 
L 142.716357 -97.766077 
L 142.682278 -98.266419 
L 142.597985 -98.766762 
L 142.416812 -99.267105 
L 142.052596 -99.767448 
L 141.377281 -100.26779 
L 140.22946 -100.768133 
L 138.434531 -101.268476 
L 135.835405 -101.768819 
L 132.329833 -102.269162 
L 127.906303 -102.769504 
L 122.667083 -103.269847 
L 116.827372 -103.77019 
L 110.685893 -104.270533 
L 104.573203 -104.770875 
L 98.794975 -105.271218 
L 93.591842 -105.771561 
L 89.131167 -106.271904 
L 85.530783 -106.772246 
L 82.897983 -107.272589 
L 81.358368 -107.772932 
L 81.054 -108.273275 
L 82.106431 -108.773617 
L 84.5588 -109.27396 
L 88.323078 -109.774303 
L 93.158228 -110.274646 
L 98.693274 -110.774989 
L 104.491224 -111.275331 
L 110.133086 -111.775674 
L 115.293127 -112.276017 
L 119.78092 -112.77636 
L 123.540739 -113.276702 
L 126.616997 -113.777045 
L 129.10631 -114.277388 
L 131.117051 -114.777731 
L 132.74731 -115.278073 
L 134.079431 -115.778416 
L 135.18139 -116.278759 
L 136.105969 -116.779102 
L 136.885323 -117.279444 
L 137.52549 -117.779787 
L 138.007541 -118.28013 
L 138.298601 -118.780473 
L 138.369876 -119.280815 
L 138.214509 -119.781158 
L 137.858172 -120.281501 
L 137.359007 -120.781844 
L 136.798225 -121.282187 
L 136.265494 -121.782529 
L 135.843674 -122.282872 
L 135.596209 -122.783215 
L 135.559087 -123.283558 
L 135.738196 -123.7839 
L 136.112077 -124.284243 
L 136.639078 -124.784586 
L 137.266961 -125.284929 
L 137.942595 -125.785271 
L 138.619718 -126.285614 
L 139.263826 -126.785957 
L 139.854185 -127.2863 
L 140.383495 -127.786642 
L 140.855598 -128.286985 
L 141.281517 -128.787328 
L 141.674316 -129.287671 
L 142.043978 -129.788013 
L 142.39385 -130.288356 
L 142.719897 -130.788699 
L 143.012847 -131.289042 
L 143.262052 -131.789385 
L 143.459286 -132.289727 
L 143.601077 -132.79007 
L 143.689191 -133.290413 
L 143.72983 -133.790756 
L 143.732464 -134.291098 
L 143.708838 -134.791441 
L 143.672093 -135.291784 
L 143.635531 -135.792127 
L 143.610765 -136.292469 
L 143.605582 -136.792812 
L 143.622393 -137.293155 
L 143.658094 -137.793498 
L 143.705588 -138.29384 
L 143.756362 -138.794183 
L 143.80305 -139.294526 
L 143.841051 -139.794869 
L 143.868833 -140.295211 
L 143.951167 -140.295211 
L 143.951167 -140.295211 
L 143.978949 -139.794869 
L 144.01695 -139.294526 
L 144.063638 -138.794183 
L 144.114412 -138.29384 
L 144.161906 -137.793498 
L 144.197607 -137.293155 
L 144.214418 -136.792812 
L 144.209235 -136.292469 
L 144.184469 -135.792127 
L 144.147907 -135.291784 
L 144.111162 -134.791441 
L 144.087536 -134.291098 
L 144.09017 -133.790756 
L 144.130809 -133.290413 
L 144.218923 -132.79007 
L 144.360714 -132.289727 
L 144.557948 -131.789385 
L 144.807153 -131.289042 
L 145.100103 -130.788699 
L 145.42615 -130.288356 
L 145.776022 -129.788013 
L 146.145684 -129.287671 
L 146.538483 -128.787328 
L 146.964402 -128.286985 
L 147.436505 -127.786642 
L 147.965815 -127.2863 
L 148.556174 -126.785957 
L 149.200282 -126.285614 
L 149.877405 -125.785271 
L 150.553039 -125.284929 
L 151.180922 -124.784586 
L 151.707923 -124.284243 
L 152.081804 -123.7839 
L 152.260913 -123.283558 
L 152.223791 -122.783215 
L 151.976326 -122.282872 
L 151.554506 -121.782529 
L 151.021775 -121.282187 
L 150.460993 -120.781844 
L 149.961828 -120.281501 
L 149.605491 -119.781158 
L 149.450124 -119.280815 
L 149.521399 -118.780473 
L 149.812459 -118.28013 
L 150.29451 -117.779787 
L 150.934677 -117.279444 
L 151.714031 -116.779102 
L 152.63861 -116.278759 
L 153.740569 -115.778416 
L 155.07269 -115.278073 
L 156.702949 -114.777731 
L 158.71369 -114.277388 
L 161.203003 -113.777045 
L 164.279261 -113.276702 
L 168.03908 -112.77636 
L 172.526873 -112.276017 
L 177.686914 -111.775674 
L 183.328776 -111.275331 
L 189.126726 -110.774989 
L 194.661772 -110.274646 
L 199.496922 -109.774303 
L 203.2612 -109.27396 
L 205.713569 -108.773617 
L 206.766 -108.273275 
L 206.461632 -107.772932 
L 204.922017 -107.272589 
L 202.289217 -106.772246 
L 198.688833 -106.271904 
L 194.228158 -105.771561 
L 189.025025 -105.271218 
L 183.246797 -104.770875 
L 177.134107 -104.270533 
L 170.992628 -103.77019 
L 165.152917 -103.269847 
L 159.913697 -102.769504 
L 155.490167 -102.269162 
L 151.984595 -101.768819 
L 149.385469 -101.268476 
L 147.59054 -100.768133 
L 146.442719 -100.26779 
L 145.767404 -99.767448 
L 145.403188 -99.267105 
L 145.222015 -98.766762 
L 145.137722 -98.266419 
L 145.103643 -97.766077 
L 145.101494 -97.265734 
L 145.125758 -96.765391 
L 145.169272 -96.265048 
L 145.215362 -95.764706 
L 145.238983 -95.264363 
L 145.215052 -94.76402 
L 145.128728 -94.263677 
L 144.981853 -93.763335 
L 144.792346 -93.262992 
L 144.587332 -92.762649 
L 144.393803 -92.262306 
L 144.231132 -91.761964 
L 144.107934 -91.261621 
L 144.023236 -90.761278 
z
" style="stroke: #595959; stroke-width: 1.25"/>
    </defs>
    <g clip-path="url(#peadf94155c)">
     <use xlink:href="#m3523ff4a0f" x="0" y="432" style="fill: #72b6a1; stroke: #595959; stroke-width: 1.25"/>
    </g>
   </g>
   <g id="PolyCollection_2">
    <defs>
     <path id="mbf89557893" d="M 301.086068 -70.655549 
L 301.013932 -70.655549 
L 300.981048 -71.067286 
L 300.93015 -71.479024 
L 300.859487 -71.890761 
L 300.771217 -72.302499 
L 300.671981 -72.714236 
L 300.572512 -73.125974 
L 300.486536 -73.537711 
L 300.428641 -73.949449 
L 300.410254 -74.361186 
L 300.433991 -74.772924 
L 300.489257 -75.184661 
L 300.553168 -75.596399 
L 300.598352 -76.008137 
L 300.604317 -76.419874 
L 300.565856 -76.831612 
L 300.493411 -77.243349 
L 300.405468 -77.655087 
L 300.318164 -78.066824 
L 300.238781 -78.478562 
L 300.166662 -78.890299 
L 300.099731 -79.302037 
L 300.041282 -79.713774 
L 300.002164 -80.125512 
L 299.99698 -80.537249 
L 300.036159 -80.948987 
L 300.116895 -81.360724 
L 300.21494 -81.772462 
L 300.277439 -82.184199 
L 300.216184 -82.595937 
L 299.901938 -83.007674 
L 299.163892 -83.419412 
L 297.801143 -83.831149 
L 295.611523 -84.242887 
L 292.435366 -84.654624 
L 288.201007 -85.066362 
L 282.9521 -85.478099 
L 276.84163 -85.889837 
L 270.096731 -86.301574 
L 262.984804 -86.713312 
L 255.82354 -87.125049 
L 249.050442 -87.536787 
L 243.302947 -87.948524 
L 239.406723 -88.360262 
L 238.194 -88.771999 
L 240.188844 -89.183737 
L 245.322192 -89.595474 
L 252.861524 -90.007212 
L 261.620661 -90.418949 
L 270.34163 -90.830687 
L 278.04789 -91.242424 
L 284.217245 -91.654162 
L 288.754683 -92.065899 
L 291.850251 -92.477637 
L 293.824069 -92.889374 
L 295.013587 -93.301112 
L 295.708373 -93.712849 
L 296.119881 -94.124587 
L 296.378091 -94.536324 
L 296.549877 -94.948062 
L 296.668098 -95.359799 
L 296.75586 -95.771537 
L 296.835933 -96.183275 
L 296.92705 -96.595012 
L 297.036452 -97.00675 
L 297.156779 -97.418487 
L 297.269337 -97.830225 
L 297.351524 -98.241962 
L 297.38564 -98.6537 
L 297.367109 -99.065437 
L 297.309905 -99.477175 
L 297.246534 -99.888912 
L 297.221178 -100.30065 
L 297.277617 -100.712387 
L 297.446066 -101.124125 
L 297.733337 -101.535862 
L 298.119305 -101.9476 
L 298.560884 -102.359337 
L 299.002812 -102.771075 
L 299.392367 -103.182812 
L 299.693415 -103.59455 
L 299.895371 -104.006287 
L 300.014329 -104.418025 
L 300.085711 -104.829762 
L 300.150182 -105.2415 
L 300.237616 -105.653237 
L 300.356103 -106.064975 
L 300.491557 -106.476712 
L 300.617884 -106.88845 
L 300.711732 -107.300187 
L 300.763759 -107.711925 
L 300.781388 -108.123662 
L 300.783163 -108.5354 
L 300.788853 -108.947137 
L 300.810737 -109.358875 
L 300.850055 -109.770612 
L 300.899332 -110.18235 
L 300.948105 -110.594087 
L 300.988272 -111.005825 
L 301.016529 -111.417562 
L 301.083471 -111.417562 
L 301.083471 -111.417562 
L 301.111728 -111.005825 
L 301.151895 -110.594087 
L 301.200668 -110.18235 
L 301.249945 -109.770612 
L 301.289263 -109.358875 
L 301.311147 -108.947137 
L 301.316837 -108.5354 
L 301.318612 -108.123662 
L 301.336241 -107.711925 
L 301.388268 -107.300187 
L 301.482116 -106.88845 
L 301.608443 -106.476712 
L 301.743897 -106.064975 
L 301.862384 -105.653237 
L 301.949818 -105.2415 
L 302.014289 -104.829762 
L 302.085671 -104.418025 
L 302.204629 -104.006287 
L 302.406585 -103.59455 
L 302.707633 -103.182812 
L 303.097188 -102.771075 
L 303.539116 -102.359337 
L 303.980695 -101.9476 
L 304.366663 -101.535862 
L 304.653934 -101.124125 
L 304.822383 -100.712387 
L 304.878822 -100.30065 
L 304.853466 -99.888912 
L 304.790095 -99.477175 
L 304.732891 -99.065437 
L 304.71436 -98.6537 
L 304.748476 -98.241962 
L 304.830663 -97.830225 
L 304.943221 -97.418487 
L 305.063548 -97.00675 
L 305.17295 -96.595012 
L 305.264067 -96.183275 
L 305.34414 -95.771537 
L 305.431902 -95.359799 
L 305.550123 -94.948062 
L 305.721909 -94.536324 
L 305.980119 -94.124587 
L 306.391627 -93.712849 
L 307.086413 -93.301112 
L 308.275931 -92.889374 
L 310.249749 -92.477637 
L 313.345317 -92.065899 
L 317.882755 -91.654162 
L 324.05211 -91.242424 
L 331.75837 -90.830687 
L 340.479339 -90.418949 
L 349.238476 -90.007212 
L 356.777808 -89.595474 
L 361.911156 -89.183737 
L 363.906 -88.771999 
L 362.693277 -88.360262 
L 358.797053 -87.948524 
L 353.049558 -87.536787 
L 346.27646 -87.125049 
L 339.115196 -86.713312 
L 332.003269 -86.301574 
L 325.25837 -85.889837 
L 319.1479 -85.478099 
L 313.898993 -85.066362 
L 309.664634 -84.654624 
L 306.488477 -84.242887 
L 304.298857 -83.831149 
L 302.936108 -83.419412 
L 302.198062 -83.007674 
L 301.883816 -82.595937 
L 301.822561 -82.184199 
L 301.88506 -81.772462 
L 301.983105 -81.360724 
L 302.063841 -80.948987 
L 302.10302 -80.537249 
L 302.097836 -80.125512 
L 302.058718 -79.713774 
L 302.000269 -79.302037 
L 301.933338 -78.890299 
L 301.861219 -78.478562 
L 301.781836 -78.066824 
L 301.694532 -77.655087 
L 301.606589 -77.243349 
L 301.534144 -76.831612 
L 301.495683 -76.419874 
L 301.501648 -76.008137 
L 301.546832 -75.596399 
L 301.610743 -75.184661 
L 301.666009 -74.772924 
L 301.689746 -74.361186 
L 301.671359 -73.949449 
L 301.613464 -73.537711 
L 301.527488 -73.125974 
L 301.428019 -72.714236 
L 301.328783 -72.302499 
L 301.240513 -71.890761 
L 301.16985 -71.479024 
L 301.118952 -71.067286 
L 301.086068 -70.655549 
z
" style="stroke: #595959; stroke-width: 1.25"/>
    </defs>
    <g clip-path="url(#peadf94155c)">
     <use xlink:href="#mbf89557893" x="0" y="432" style="fill: #e99675; stroke: #595959; stroke-width: 1.25"/>
    </g>
   </g>
   <g id="PolyCollection_3">
    <defs>
     <path id="mb1fe1598f7" d="M 458.247451 -147.302996 
L 458.132549 -147.302996 
L 458.092048 -149.739404 
L 458.036218 -152.175812 
L 457.967654 -154.61222 
L 457.893846 -157.048628 
L 457.826373 -159.485037 
L 457.777803 -161.921445 
L 457.757137 -164.357853 
L 457.76567 -166.794261 
L 457.795328 -169.230669 
L 457.830489 -171.667077 
L 457.852716 -174.103486 
L 457.846583 -176.539894 
L 457.804483 -178.976302 
L 457.728919 -181.41271 
L 457.631733 -183.849118 
L 457.530648 -186.285527 
L 457.444178 -188.721935 
L 457.386437 -191.158343 
L 457.363484 -193.594751 
L 457.372482 -196.031159 
L 457.403998 -198.467568 
L 457.446514 -200.903976 
L 457.491017 -203.340384 
L 457.533314 -205.776792 
L 457.572677 -208.2132 
L 457.607448 -210.649609 
L 457.630082 -213.086017 
L 457.624624 -215.522425 
L 457.568494 -217.958833 
L 457.438357 -220.395241 
L 457.217964 -222.83165 
L 456.904979 -225.268058 
L 456.514066 -227.704466 
L 456.074723 -230.140874 
L 455.624185 -232.577282 
L 455.197734 -235.013691 
L 454.819944 -237.450099 
L 454.499888 -239.886507 
L 454.23111 -242.322915 
L 453.994558 -244.759323 
L 453.761422 -247.195732 
L 453.493636 -249.63214 
L 453.142105 -252.068548 
L 452.644916 -254.504956 
L 451.928661 -256.941364 
L 450.915128 -259.377773 
L 449.533299 -261.814181 
L 447.733648 -264.250589 
L 445.499295 -266.686997 
L 442.847836 -269.123405 
L 439.819496 -271.559814 
L 436.45234 -273.996222 
L 432.753219 -276.43263 
L 428.681284 -278.869038 
L 424.163398 -281.305446 
L 419.151788 -283.741855 
L 413.712736 -286.178263 
L 408.10986 -288.614671 
L 402.832504 -291.051079 
L 398.532755 -293.487487 
L 395.873229 -295.923896 
L 395.334 -298.360304 
L 397.053887 -300.796712 
L 400.770751 -303.23312 
L 405.882038 -305.669528 
L 411.595502 -308.105937 
L 417.109135 -310.542345 
L 421.761933 -312.978753 
L 425.124509 -315.415161 
L 427.029777 -317.851569 
L 427.561344 -320.287978 
L 427.016547 -322.724386 
L 425.85038 -325.160794 
L 424.598614 -327.597202 
L 423.781608 -330.03361 
L 423.803236 -332.470019 
L 424.87198 -334.906427 
L 426.971451 -337.342835 
L 429.891159 -339.779243 
L 433.303572 -342.215651 
L 436.855698 -344.65206 
L 440.243605 -347.088468 
L 443.253894 -349.524876 
L 445.774355 -351.961284 
L 447.78523 -354.397692 
L 449.340655 -356.834101 
L 450.544051 -359.270509 
L 451.518897 -361.706917 
L 452.378735 -364.143325 
L 453.203379 -366.579733 
L 454.027781 -369.016142 
L 454.84551 -371.45255 
L 455.623336 -373.888958 
L 456.320041 -376.325366 
L 456.902632 -378.761774 
L 457.355627 -381.198182 
L 457.682481 -383.634591 
L 457.901052 -386.070999 
L 458.036377 -388.507407 
L 458.343623 -388.507407 
L 458.343623 -388.507407 
L 458.478948 -386.070999 
L 458.697519 -383.634591 
L 459.024373 -381.198182 
L 459.477368 -378.761774 
L 460.059959 -376.325366 
L 460.756664 -373.888958 
L 461.53449 -371.45255 
L 462.352219 -369.016142 
L 463.176621 -366.579733 
L 464.001265 -364.143325 
L 464.861103 -361.706917 
L 465.835949 -359.270509 
L 467.039345 -356.834101 
L 468.59477 -354.397692 
L 470.605645 -351.961284 
L 473.126106 -349.524876 
L 476.136395 -347.088468 
L 479.524302 -344.65206 
L 483.076428 -342.215651 
L 486.488841 -339.779243 
L 489.408549 -337.342835 
L 491.50802 -334.906427 
L 492.576764 -332.470019 
L 492.598392 -330.03361 
L 491.781386 -327.597202 
L 490.52962 -325.160794 
L 489.363453 -322.724386 
L 488.818656 -320.287978 
L 489.350223 -317.851569 
L 491.255491 -315.415161 
L 494.618067 -312.978753 
L 499.270865 -310.542345 
L 504.784498 -308.105937 
L 510.497962 -305.669528 
L 515.609249 -303.23312 
L 519.326113 -300.796712 
L 521.046 -298.360304 
L 520.506771 -295.923896 
L 517.847245 -293.487487 
L 513.547496 -291.051079 
L 508.27014 -288.614671 
L 502.667264 -286.178263 
L 497.228212 -283.741855 
L 492.216602 -281.305446 
L 487.698716 -278.869038 
L 483.626781 -276.43263 
L 479.92766 -273.996222 
L 476.560504 -271.559814 
L 473.532164 -269.123405 
L 470.880705 -266.686997 
L 468.646352 -264.250589 
L 466.846701 -261.814181 
L 465.464872 -259.377773 
L 464.451339 -256.941364 
L 463.735084 -254.504956 
L 463.237895 -252.068548 
L 462.886364 -249.63214 
L 462.618578 -247.195732 
L 462.385442 -244.759323 
L 462.14889 -242.322915 
L 461.880112 -239.886507 
L 461.560056 -237.450099 
L 461.182266 -235.013691 
L 460.755815 -232.577282 
L 460.305277 -230.140874 
L 459.865934 -227.704466 
L 459.475021 -225.268058 
L 459.162036 -222.83165 
L 458.941643 -220.395241 
L 458.811506 -217.958833 
L 458.755376 -215.522425 
L 458.749918 -213.086017 
L 458.772552 -210.649609 
L 458.807323 -208.2132 
L 458.846686 -205.776792 
L 458.888983 -203.340384 
L 458.933486 -200.903976 
L 458.976002 -198.467568 
L 459.007518 -196.031159 
L 459.016516 -193.594751 
L 458.993563 -191.158343 
L 458.935822 -188.721935 
L 458.849352 -186.285527 
L 458.748267 -183.849118 
L 458.651081 -181.41271 
L 458.575517 -178.976302 
L 458.533417 -176.539894 
L 458.527284 -174.103486 
L 458.549511 -171.667077 
L 458.584672 -169.230669 
L 458.61433 -166.794261 
L 458.622863 -164.357853 
L 458.602197 -161.921445 
L 458.553627 -159.485037 
L 458.486154 -157.048628 
L 458.412346 -154.61222 
L 458.343782 -152.175812 
L 458.287952 -149.739404 
L 458.247451 -147.302996 
z
" style="stroke: #595959; stroke-width: 1.25"/>
    </defs>
    <g clip-path="url(#peadf94155c)">
     <use xlink:href="#mb1fe1598f7" x="0" y="432" style="fill: #95a3c3; stroke: #595959; stroke-width: 1.25"/>
    </g>
   </g>
   <g id="PolyCollection_4">
    <defs>
     <path id="m3bdbb6b728" d="M 615.380732 -218.457712 
L 615.279268 -218.457712 
L 615.244952 -220.140104 
L 615.197178 -221.822495 
L 615.136381 -223.504886 
L 615.06579 -225.187277 
L 614.991087 -226.869668 
L 614.918926 -228.552059 
L 614.85479 -230.23445 
L 614.801166 -231.916841 
L 614.756954 -233.599232 
L 614.718377 -235.281624 
L 614.680764 -236.964015 
L 614.640169 -238.646406 
L 614.59405 -240.328797 
L 614.540993 -242.011188 
L 614.48008 -243.693579 
L 614.410602 -245.37597 
L 614.332378 -247.058361 
L 614.246445 -248.740752 
L 614.155594 -250.423143 
L 614.064287 -252.105535 
L 613.977795 -253.787926 
L 613.900734 -255.470317 
L 613.835466 -257.152708 
L 613.780943 -258.835099 
L 613.732442 -260.51749 
L 613.682416 -262.199881 
L 613.622463 -263.882272 
L 613.54616 -265.564663 
L 613.452207 -267.247055 
L 613.346848 -268.929446 
L 613.244246 -270.611837 
L 613.163855 -272.294228 
L 613.125003 -273.976619 
L 613.140467 -275.65901 
L 613.211715 -277.341401 
L 613.328032 -279.023792 
L 613.469937 -280.706183 
L 613.615228 -282.388575 
L 613.744731 -284.070966 
L 613.845203 -285.753357 
L 613.908405 -287.435748 
L 613.927312 -289.118139 
L 613.891553 -290.80053 
L 613.784181 -292.482921 
L 613.580862 -294.165312 
L 613.251583 -295.847703 
L 612.764579 -297.530095 
L 612.092275 -299.212486 
L 611.219116 -300.894877 
L 610.150318 -302.577268 
L 608.91917 -304.259659 
L 607.589277 -305.94205 
L 606.248259 -307.624441 
L 604.991344 -309.306832 
L 603.896554 -310.989223 
L 602.996636 -312.671615 
L 602.255164 -314.354006 
L 601.554408 -316.036397 
L 600.7005 -317.718788 
L 599.447657 -319.401179 
L 597.538849 -321.08357 
L 594.756406 -322.765961 
L 590.973405 -324.448352 
L 586.195802 -326.130743 
L 580.586094 -327.813135 
L 574.461692 -329.495526 
L 568.265027 -331.177917 
L 562.507735 -332.860308 
L 557.697638 -334.542699 
L 554.262641 -336.22509 
L 552.487285 -337.907481 
L 552.474 -339.589872 
L 554.133923 -341.272263 
L 557.205773 -342.954655 
L 561.298757 -344.637046 
L 565.955439 -346.319437 
L 570.728434 -348.001828 
L 575.258359 -349.684219 
L 579.333094 -351.36661 
L 582.907706 -353.049001 
L 586.075235 -354.731392 
L 588.997965 -356.413783 
L 591.826253 -358.096175 
L 594.637269 -359.778566 
L 597.415428 -361.460957 
L 600.076053 -363.143348 
L 602.514725 -364.825739 
L 604.656214 -366.50813 
L 606.481524 -368.190521 
L 608.025308 -369.872912 
L 609.350839 -371.555303 
L 610.518588 -373.237695 
L 611.56412 -374.920086 
L 612.493176 -376.602477 
L 613.291877 -378.284868 
L 613.943325 -379.967259 
L 614.441251 -381.64965 
L 614.795432 -383.332041 
L 615.029058 -385.014432 
L 615.630942 -385.014432 
L 615.630942 -385.014432 
L 615.864568 -383.332041 
L 616.218749 -381.64965 
L 616.716675 -379.967259 
L 617.368123 -378.284868 
L 618.166824 -376.602477 
L 619.09588 -374.920086 
L 620.141412 -373.237695 
L 621.309161 -371.555303 
L 622.634692 -369.872912 
L 624.178476 -368.190521 
L 626.003786 -366.50813 
L 628.145275 -364.825739 
L 630.583947 -363.143348 
L 633.244572 -361.460957 
L 636.022731 -359.778566 
L 638.833747 -358.096175 
L 641.662035 -356.413783 
L 644.584765 -354.731392 
L 647.752294 -353.049001 
L 651.326906 -351.36661 
L 655.401641 -349.684219 
L 659.931566 -348.001828 
L 664.704561 -346.319437 
L 669.361243 -344.637046 
L 673.454227 -342.954655 
L 676.526077 -341.272263 
L 678.186 -339.589872 
L 678.172715 -337.907481 
L 676.397359 -336.22509 
L 672.962362 -334.542699 
L 668.152265 -332.860308 
L 662.394973 -331.177917 
L 656.198308 -329.495526 
L 650.073906 -327.813135 
L 644.464198 -326.130743 
L 639.686595 -324.448352 
L 635.903594 -322.765961 
L 633.121151 -321.08357 
L 631.212343 -319.401179 
L 629.9595 -317.718788 
L 629.105592 -316.036397 
L 628.404836 -314.354006 
L 627.663364 -312.671615 
L 626.763446 -310.989223 
L 625.668656 -309.306832 
L 624.411741 -307.624441 
L 623.070723 -305.94205 
L 621.74083 -304.259659 
L 620.509682 -302.577268 
L 619.440884 -300.894877 
L 618.567725 -299.212486 
L 617.895421 -297.530095 
L 617.408417 -295.847703 
L 617.079138 -294.165312 
L 616.875819 -292.482921 
L 616.768447 -290.80053 
L 616.732688 -289.118139 
L 616.751595 -287.435748 
L 616.814797 -285.753357 
L 616.915269 -284.070966 
L 617.044772 -282.388575 
L 617.190063 -280.706183 
L 617.331968 -279.023792 
L 617.448285 -277.341401 
L 617.519533 -275.65901 
L 617.534997 -273.976619 
L 617.496145 -272.294228 
L 617.415754 -270.611837 
L 617.313152 -268.929446 
L 617.207793 -267.247055 
L 617.11384 -265.564663 
L 617.037537 -263.882272 
L 616.977584 -262.199881 
L 616.927558 -260.51749 
L 616.879057 -258.835099 
L 616.824534 -257.152708 
L 616.759266 -255.470317 
L 616.682205 -253.787926 
L 616.595713 -252.105535 
L 616.504406 -250.423143 
L 616.413555 -248.740752 
L 616.327622 -247.058361 
L 616.249398 -245.37597 
L 616.17992 -243.693579 
L 616.119007 -242.011188 
L 616.06595 -240.328797 
L 616.019831 -238.646406 
L 615.979236 -236.964015 
L 615.941623 -235.281624 
L 615.903046 -233.599232 
L 615.858834 -231.916841 
L 615.80521 -230.23445 
L 615.741074 -228.552059 
L 615.668913 -226.869668 
L 615.59421 -225.187277 
L 615.523619 -223.504886 
L 615.462822 -221.822495 
L 615.415048 -220.140104 
L 615.380732 -218.457712 
z
" style="stroke: #595959; stroke-width: 1.25"/>
    </defs>
    <g clip-path="url(#peadf94155c)">
     <use xlink:href="#m3bdbb6b728" x="0" y="432" style="fill: #db96c0; stroke: #595959; stroke-width: 1.25"/>
    </g>
   </g>
   <g id="PolyCollection_5">
    <defs>
     <path id="m81a50c3490" d="M 772.518242 -172.65549 
L 772.421758 -172.65549 
L 772.380026 -174.553753 
L 772.315712 -176.452015 
L 772.225295 -178.350278 
L 772.108541 -180.248541 
L 771.969179 -182.146803 
L 771.815154 -184.045066 
L 771.659163 -185.943328 
L 771.519335 -187.841591 
L 771.418333 -189.739853 
L 771.378772 -191.638116 
L 771.415169 -193.536378 
L 771.526233 -195.434641 
L 771.692723 -197.332903 
L 771.883266 -199.231166 
L 772.065372 -201.129429 
L 772.215673 -203.027691 
L 772.324553 -204.925954 
L 772.394405 -206.824216 
L 772.434296 -208.722479 
L 772.45457 -210.620741 
L 772.463488 -212.519004 
L 772.466016 -214.417266 
L 772.463756 -216.315529 
L 772.454915 -218.213791 
L 772.433778 -220.112054 
L 772.389897 -222.010316 
L 772.307918 -223.908579 
L 772.169238 -225.806842 
L 771.956037 -227.705104 
L 771.656762 -229.603367 
L 771.270624 -231.501629 
L 770.8087 -233.399892 
L 770.29128 -235.298154 
L 769.743908 -237.196417 
L 769.195382 -239.094679 
L 768.678781 -240.992942 
L 768.232844 -242.891204 
L 767.899121 -244.789467 
L 767.712318 -246.68773 
L 767.686278 -248.585992 
L 767.802509 -250.484255 
L 768.008499 -252.382517 
L 768.228439 -254.28078 
L 768.382294 -256.179042 
L 768.405002 -258.077305 
L 768.257857 -259.975567 
L 767.92786 -261.87383 
L 767.415908 -263.772092 
L 766.720095 -265.670355 
L 765.824395 -267.568617 
L 764.701766 -269.46688 
L 763.331415 -271.365143 
L 761.715965 -273.263405 
L 759.876181 -275.161668 
L 757.809516 -277.05993 
L 755.425137 -278.958193 
L 752.498537 -280.856455 
L 748.69982 -282.754718 
L 743.722817 -284.65298 
L 737.482274 -286.551243 
L 730.286925 -288.449505 
L 722.882467 -290.347768 
L 716.311523 -292.246031 
L 711.632294 -294.144293 
L 709.614 -296.042556 
L 710.535808 -297.940818 
L 714.155742 -299.839081 
L 719.832043 -301.737343 
L 726.723814 -303.635606 
L 733.991403 -305.533868 
L 740.944451 -307.432131 
L 747.119075 -309.330393 
L 752.288731 -311.228656 
L 756.425312 -313.126919 
L 759.63305 -315.025181 
L 762.079023 -316.923444 
L 763.93901 -318.821706 
L 765.366677 -320.719969 
L 766.483264 -322.618231 
L 767.379454 -324.516494 
L 768.121667 -326.414756 
L 768.75795 -328.313019 
L 769.321152 -330.211281 
L 769.829257 -332.109544 
L 770.285232 -334.007806 
L 770.679965 -335.906069 
L 771.000016 -337.804332 
L 771.237891 -339.702594 
L 771.399873 -341.600857 
L 771.507158 -343.499119 
L 771.589618 -345.397382 
L 771.675314 -347.295644 
L 771.780913 -349.193907 
L 771.907534 -351.092169 
L 772.043559 -352.990432 
L 772.172198 -354.888694 
L 772.279434 -356.786957 
L 772.358625 -358.68522 
L 772.410678 -360.583482 
L 772.529322 -360.583482 
L 772.529322 -360.583482 
L 772.581375 -358.68522 
L 772.660566 -356.786957 
L 772.767802 -354.888694 
L 772.896441 -352.990432 
L 773.032466 -351.092169 
L 773.159087 -349.193907 
L 773.264686 -347.295644 
L 773.350382 -345.397382 
L 773.432842 -343.499119 
L 773.540127 -341.600857 
L 773.702109 -339.702594 
L 773.939984 -337.804332 
L 774.260035 -335.906069 
L 774.654768 -334.007806 
L 775.110743 -332.109544 
L 775.618848 -330.211281 
L 776.18205 -328.313019 
L 776.818333 -326.414756 
L 777.560546 -324.516494 
L 778.456736 -322.618231 
L 779.573323 -320.719969 
L 781.00099 -318.821706 
L 782.860977 -316.923444 
L 785.30695 -315.025181 
L 788.514688 -313.126919 
L 792.651269 -311.228656 
L 797.820925 -309.330393 
L 803.995549 -307.432131 
L 810.948597 -305.533868 
L 818.216186 -303.635606 
L 825.107957 -301.737343 
L 830.784258 -299.839081 
L 834.404192 -297.940818 
L 835.326 -296.042556 
L 833.307706 -294.144293 
L 828.628477 -292.246031 
L 822.057533 -290.347768 
L 814.653075 -288.449505 
L 807.457726 -286.551243 
L 801.217183 -284.65298 
L 796.24018 -282.754718 
L 792.441463 -280.856455 
L 789.514863 -278.958193 
L 787.130484 -277.05993 
L 785.063819 -275.161668 
L 783.224035 -273.263405 
L 781.608585 -271.365143 
L 780.238234 -269.46688 
L 779.115605 -267.568617 
L 778.219905 -265.670355 
L 777.524092 -263.772092 
L 777.01214 -261.87383 
L 776.682143 -259.975567 
L 776.534998 -258.077305 
L 776.557706 -256.179042 
L 776.711561 -254.28078 
L 776.931501 -252.382517 
L 777.137491 -250.484255 
L 777.253722 -248.585992 
L 777.227682 -246.68773 
L 777.040879 -244.789467 
L 776.707156 -242.891204 
L 776.261219 -240.992942 
L 775.744618 -239.094679 
L 775.196092 -237.196417 
L 774.64872 -235.298154 
L 774.1313 -233.399892 
L 773.669376 -231.501629 
L 773.283238 -229.603367 
L 772.983963 -227.705104 
L 772.770762 -225.806842 
L 772.632082 -223.908579 
L 772.550103 -222.010316 
L 772.506222 -220.112054 
L 772.485085 -218.213791 
L 772.476244 -216.315529 
L 772.473984 -214.417266 
L 772.476512 -212.519004 
L 772.48543 -210.620741 
L 772.505704 -208.722479 
L 772.545595 -206.824216 
L 772.615447 -204.925954 
L 772.724327 -203.027691 
L 772.874628 -201.129429 
L 773.056734 -199.231166 
L 773.247277 -197.332903 
L 773.413767 -195.434641 
L 773.524831 -193.536378 
L 773.561228 -191.638116 
L 773.521667 -189.739853 
L 773.420665 -187.841591 
L 773.280837 -185.943328 
L 773.124846 -184.045066 
L 772.970821 -182.146803 
L 772.831459 -180.248541 
L 772.714705 -178.350278 
L 772.624288 -176.452015 
L 772.559974 -174.553753 
L 772.518242 -172.65549 
z
" style="stroke: #595959; stroke-width: 1.25"/>
    </defs>
    <g clip-path="url(#peadf94155c)">
     <use xlink:href="#m81a50c3490" x="0" y="432" style="fill: #a2c865; stroke: #595959; stroke-width: 1.25"/>
    </g>
   </g>
   <g id="line2d_10">
    <path d="M 143.91 325.613742 
L 143.91 333.004631 
" clip-path="url(#peadf94155c)" style="fill: none; stroke: #000000"/>
   </g>
   <g id="line2d_11">
    <path d="M 143.91 320.675965 
L 143.91 313.711017 
" clip-path="url(#peadf94155c)" style="fill: none; stroke: #000000"/>
   </g>
   <g id="line2d_12">
    <path d="M 138.01725 333.004631 
L 149.80275 333.004631 
" clip-path="url(#peadf94155c)" style="fill: none; stroke: #000000; stroke-linecap: round"/>
   </g>
   <g id="line2d_13">
    <path d="M 138.01725 313.711017 
L 149.80275 313.711017 
" clip-path="url(#peadf94155c)" style="fill: none; stroke: #000000; stroke-linecap: round"/>
   </g>
   <g id="line2d_14">
    <path d="M 301.05 344.426198 
L 301.05 346.997629 
" clip-path="url(#peadf94155c)" style="fill: none; stroke: #000000"/>
   </g>
   <g id="line2d_15">
    <path d="M 301.05 342.0283 
L 301.05 338.573434 
" clip-path="url(#peadf94155c)" style="fill: none; stroke: #000000"/>
   </g>
   <g id="line2d_16">
    <path d="M 295.15725 346.997629 
L 306.94275 346.997629 
" clip-path="url(#peadf94155c)" style="fill: none; stroke: #000000; stroke-linecap: round"/>
   </g>
   <g id="line2d_17">
    <path d="M 295.15725 338.573434 
L 306.94275 338.573434 
" clip-path="url(#peadf94155c)" style="fill: none; stroke: #000000; stroke-linecap: round"/>
   </g>
   <g id="line2d_18">
    <path d="M 458.19 140.999254 
L 458.19 195.488333 
" clip-path="url(#peadf94155c)" style="fill: none; stroke: #000000"/>
   </g>
   <g id="line2d_19">
    <path d="M 458.19 104.494411 
L 458.19 60.44881 
" clip-path="url(#peadf94155c)" style="fill: none; stroke: #000000"/>
   </g>
   <g id="line2d_20">
    <path d="M 452.29725 195.488333 
L 464.08275 195.488333 
" clip-path="url(#peadf94155c)" style="fill: none; stroke: #000000; stroke-linecap: round"/>
   </g>
   <g id="line2d_21">
    <path d="M 452.29725 60.44881 
L 464.08275 60.44881 
" clip-path="url(#peadf94155c)" style="fill: none; stroke: #000000; stroke-linecap: round"/>
   </g>
   <g id="line2d_22">
    <path d="M 615.33 101.362946 
L 615.33 122.447095 
" clip-path="url(#peadf94155c)" style="fill: none; stroke: #000000"/>
   </g>
   <g id="line2d_23">
    <path d="M 615.33 85.737169 
L 615.33 63.682817 
" clip-path="url(#peadf94155c)" style="fill: none; stroke: #000000"/>
   </g>
   <g id="line2d_24">
    <path d="M 609.43725 122.447095 
L 621.22275 122.447095 
" clip-path="url(#peadf94155c)" style="fill: none; stroke: #000000; stroke-linecap: round"/>
   </g>
   <g id="line2d_25">
    <path d="M 609.43725 63.682817 
L 621.22275 63.682817 
" clip-path="url(#peadf94155c)" style="fill: none; stroke: #000000; stroke-linecap: round"/>
   </g>
   <g id="line2d_26">
    <path d="M 772.47 142.908107 
L 772.47 160.261317 
" clip-path="url(#peadf94155c)" style="fill: none; stroke: #000000"/>
   </g>
   <g id="line2d_27">
    <path d="M 772.47 130.697758 
L 772.47 113.15524 
" clip-path="url(#peadf94155c)" style="fill: none; stroke: #000000"/>
   </g>
   <g id="line2d_28">
    <path d="M 766.57725 160.261317 
L 778.36275 160.261317 
" clip-path="url(#peadf94155c)" style="fill: none; stroke: #000000; stroke-linecap: round"/>
   </g>
   <g id="line2d_29">
    <path d="M 766.57725 113.15524 
L 778.36275 113.15524 
" clip-path="url(#peadf94155c)" style="fill: none; stroke: #000000; stroke-linecap: round"/>
   </g>
   <g id="line2d_30">
    <path d="M 132.1245 323.19218 
L 155.6955 323.19218 
" clip-path="url(#peadf94155c)" style="fill: none; stroke: #ff0000; stroke-width: 2"/>
   </g>
   <g id="line2d_31">
    <path d="M 289.2645 343.101044 
L 312.8355 343.101044 
" clip-path="url(#peadf94155c)" style="fill: none; stroke: #ff0000; stroke-width: 2"/>
   </g>
   <g id="line2d_32">
    <path d="M 446.4045 131.281457 
L 469.9755 131.281457 
" clip-path="url(#peadf94155c)" style="fill: none; stroke: #ff0000; stroke-width: 2"/>
   </g>
   <g id="line2d_33">
    <path d="M 603.5445 93.483011 
L 627.1155 93.483011 
" clip-path="url(#peadf94155c)" style="fill: none; stroke: #ff0000; stroke-width: 2"/>
   </g>
   <g id="line2d_34">
    <path d="M 760.6845 136.787157 
L 784.2555 136.787157 
" clip-path="url(#peadf94155c)" style="fill: none; stroke: #ff0000; stroke-width: 2"/>
   </g>
   <g id="patch_3">
    <path d="M 65.34 377.237044 
L 65.34 27.6 
" style="fill: none; stroke: #cccccc; stroke-width: 1.25; stroke-linejoin: miter; stroke-linecap: square"/>
   </g>
   <g id="patch_4">
    <path d="M 851.04 377.237044 
L 851.04 27.6 
" style="fill: none; stroke: #cccccc; stroke-width: 1.25; stroke-linejoin: miter; stroke-linecap: square"/>
   </g>
   <g id="patch_5">
    <path d="M 65.34 377.237044 
L 851.04 377.237044 
" style="fill: none; stroke: #cccccc; stroke-width: 1.25; stroke-linejoin: miter; stroke-linecap: square"/>
   </g>
   <g id="patch_6">
    <path d="M 65.34 27.6 
L 851.04 27.6 
" style="fill: none; stroke: #cccccc; stroke-width: 1.25; stroke-linejoin: miter; stroke-linecap: square"/>
   </g>
   <g id="text_16">
    <!-- Handshake duration on TLS with secp384r1 signature algorithm — Backbone (200ms/4%) -->
    <g style="fill: #262626" transform="translate(188.436562 21.6) scale(0.12 -0.12)">
     <defs>
      <path id="DejaVuSans-54" d="M -19 4666 
L 3928 4666 
L 3928 4134 
L 2272 4134 
L 2272 0 
L 1638 0 
L 1638 4134 
L -19 4134 
L -19 4666 
z
" transform="scale(0.015625)"/>
      <path id="DejaVuSans-4c" d="M 628 4666 
L 1259 4666 
L 1259 531 
L 3531 531 
L 3531 0 
L 628 0 
L 628 4666 
z
" transform="scale(0.015625)"/>
      <path id="DejaVuSans-53" d="M 3425 4513 
L 3425 3897 
Q 3066 4069 2747 4153 
Q 2428 4238 2131 4238 
Q 1616 4238 1336 4038 
Q 1056 3838 1056 3469 
Q 1056 3159 1242 3001 
Q 1428 2844 1947 2747 
L 2328 2669 
Q 3034 2534 3370 2195 
Q 3706 1856 3706 1288 
Q 3706 609 3251 259 
Q 2797 -91 1919 -91 
Q 1588 -91 1214 -16 
Q 841 59 441 206 
L 441 856 
Q 825 641 1194 531 
Q 1563 422 1919 422 
Q 2459 422 2753 634 
Q 3047 847 3047 1241 
Q 3047 1584 2836 1778 
Q 2625 1972 2144 2069 
L 1759 2144 
Q 1053 2284 737 2584 
Q 422 2884 422 3419 
Q 422 4038 858 4394 
Q 1294 4750 2059 4750 
Q 2388 4750 2728 4690 
Q 3069 4631 3425 4513 
z
" transform="scale(0.015625)"/>
      <path id="DejaVuSans-77" d="M 269 3500 
L 844 3500 
L 1563 769 
L 2278 3500 
L 2956 3500 
L 3675 769 
L 4391 3500 
L 4966 3500 
L 4050 0 
L 3372 0 
L 2619 2869 
L 1863 0 
L 1184 0 
L 269 3500 
z
" transform="scale(0.015625)"/>
      <path id="DejaVuSans-67" d="M 2906 1791 
Q 2906 2416 2648 2759 
Q 2391 3103 1925 3103 
Q 1463 3103 1205 2759 
Q 947 2416 947 1791 
Q 947 1169 1205 825 
Q 1463 481 1925 481 
Q 2391 481 2648 825 
Q 2906 1169 2906 1791 
z
M 3481 434 
Q 3481 -459 3084 -895 
Q 2688 -1331 1869 -1331 
Q 1566 -1331 1297 -1286 
Q 1028 -1241 775 -1147 
L 775 -588 
Q 1028 -725 1275 -790 
Q 1522 -856 1778 -856 
Q 2344 -856 2625 -561 
Q 2906 -266 2906 331 
L 2906 616 
Q 2728 306 2450 153 
Q 2172 0 1784 0 
Q 1141 0 747 490 
Q 353 981 353 1791 
Q 353 2603 747 3093 
Q 1141 3584 1784 3584 
Q 2172 3584 2450 3431 
Q 2728 3278 2906 2969 
L 2906 3500 
L 3481 3500 
L 3481 434 
z
" transform="scale(0.015625)"/>
      <path id="DejaVuSans-6c" d="M 603 4863 
L 1178 4863 
L 1178 0 
L 603 0 
L 603 4863 
z
" transform="scale(0.015625)"/>
      <path id="DejaVuSans-2014" d="M 313 1978 
L 6088 1978 
L 6088 1528 
L 313 1528 
L 313 1978 
z
" transform="scale(0.015625)"/>
      <path id="DejaVuSans-42" d="M 1259 2228 
L 1259 519 
L 2272 519 
Q 2781 519 3026 730 
Q 3272 941 3272 1375 
Q 3272 1813 3026 2020 
Q 2781 2228 2272 2228 
L 1259 2228 
z
M 1259 4147 
L 1259 2741 
L 2194 2741 
Q 2656 2741 2882 2914 
Q 3109 3088 3109 3444 
Q 3109 3797 2882 3972 
Q 2656 4147 2194 4147 
L 1259 4147 
z
M 628 4666 
L 2241 4666 
Q 2963 4666 3353 4366 
Q 3744 4066 3744 3513 
Q 3744 3084 3544 2831 
Q 3344 2578 2956 2516 
Q 3422 2416 3680 2098 
Q 3938 1781 3938 1306 
Q 3938 681 3513 340 
Q 3088 0 2303 0 
L 628 0 
L 628 4666 
z
" transform="scale(0.015625)"/>
      <path id="DejaVuSans-62" d="M 3116 1747 
Q 3116 2381 2855 2742 
Q 2594 3103 2138 3103 
Q 1681 3103 1420 2742 
Q 1159 2381 1159 1747 
Q 1159 1113 1420 752 
Q 1681 391 2138 391 
Q 2594 391 2855 752 
Q 3116 1113 3116 1747 
z
M 1159 2969 
Q 1341 3281 1617 3432 
Q 1894 3584 2278 3584 
Q 2916 3584 3314 3078 
Q 3713 2572 3713 1747 
Q 3713 922 3314 415 
Q 2916 -91 2278 -91 
Q 1894 -91 1617 61 
Q 1341 213 1159 525 
L 1159 0 
L 581 0 
L 581 4863 
L 1159 4863 
L 1159 2969 
z
" transform="scale(0.015625)"/>
      <path id="DejaVuSans-2f" d="M 1625 4666 
L 2156 4666 
L 531 -594 
L 0 -594 
L 1625 4666 
z
" transform="scale(0.015625)"/>
      <path id="DejaVuSans-25" d="M 4653 2053 
Q 4381 2053 4226 1822 
Q 4072 1591 4072 1178 
Q 4072 772 4226 539 
Q 4381 306 4653 306 
Q 4919 306 5073 539 
Q 5228 772 5228 1178 
Q 5228 1588 5073 1820 
Q 4919 2053 4653 2053 
z
M 4653 2450 
Q 5147 2450 5437 2106 
Q 5728 1763 5728 1178 
Q 5728 594 5436 251 
Q 5144 -91 4653 -91 
Q 4153 -91 3862 251 
Q 3572 594 3572 1178 
Q 3572 1766 3864 2108 
Q 4156 2450 4653 2450 
z
M 1428 4353 
Q 1159 4353 1004 4120 
Q 850 3888 850 3481 
Q 850 3069 1003 2837 
Q 1156 2606 1428 2606 
Q 1700 2606 1854 2837 
Q 2009 3069 2009 3481 
Q 2009 3884 1853 4118 
Q 1697 4353 1428 4353 
z
M 4250 4750 
L 4750 4750 
L 1831 -91 
L 1331 -91 
L 4250 4750 
z
M 1428 4750 
Q 1922 4750 2215 4408 
Q 2509 4066 2509 3481 
Q 2509 2891 2217 2550 
Q 1925 2209 1428 2209 
Q 931 2209 642 2551 
Q 353 2894 353 3481 
Q 353 4063 643 4406 
Q 934 4750 1428 4750 
z
" transform="scale(0.015625)"/>
     </defs>
     <use xlink:href="#DejaVuSans-48"/>
     <use xlink:href="#DejaVuSans-61" x="75.195312"/>
     <use xlink:href="#DejaVuSans-6e" x="136.474609"/>
     <use xlink:href="#DejaVuSans-64" x="199.853516"/>
     <use xlink:href="#DejaVuSans-73" x="263.330078"/>
     <use xlink:href="#DejaVuSans-68" x="315.429688"/>
     <use xlink:href="#DejaVuSans-61" x="378.808594"/>
     <use xlink:href="#DejaVuSans-6b" x="440.087891"/>
     <use xlink:href="#DejaVuSans-65" x="494.373047"/>
     <use xlink:href="#DejaVuSans-20" x="555.896484"/>
     <use xlink:href="#DejaVuSans-64" x="587.683594"/>
     <use xlink:href="#DejaVuSans-75" x="651.160156"/>
     <use xlink:href="#DejaVuSans-72" x="714.539062"/>
     <use xlink:href="#DejaVuSans-61" x="755.652344"/>
     <use xlink:href="#DejaVuSans-74" x="816.931641"/>
     <use xlink:href="#DejaVuSans-69" x="856.140625"/>
     <use xlink:href="#DejaVuSans-6f" x="883.923828"/>
     <use xlink:href="#DejaVuSans-6e" x="945.105469"/>
     <use xlink:href="#DejaVuSans-20" x="1008.484375"/>
     <use xlink:href="#DejaVuSans-6f" x="1040.271484"/>
     <use xlink:href="#DejaVuSans-6e" x="1101.453125"/>
     <use xlink:href="#DejaVuSans-20" x="1164.832031"/>
     <use xlink:href="#DejaVuSans-54" x="1196.619141"/>
     <use xlink:href="#DejaVuSans-4c" x="1257.703125"/>
     <use xlink:href="#DejaVuSans-53" x="1313.416016"/>
     <use xlink:href="#DejaVuSans-20" x="1376.892578"/>
     <use xlink:href="#DejaVuSans-77" x="1408.679688"/>
     <use xlink:href="#DejaVuSans-69" x="1490.466797"/>
     <use xlink:href="#DejaVuSans-74" x="1518.25"/>
     <use xlink:href="#DejaVuSans-68" x="1557.458984"/>
     <use xlink:href="#DejaVuSans-20" x="1620.837891"/>
     <use xlink:href="#DejaVuSans-73" x="1652.625"/>
     <use xlink:href="#DejaVuSans-65" x="1704.724609"/>
     <use xlink:href="#DejaVuSans-63" x="1766.248047"/>
     <use xlink:href="#DejaVuSans-70" x="1821.228516"/>
     <use xlink:href="#DejaVuSans-33" x="1884.705078"/>
     <use xlink:href="#DejaVuSans-38" x="1948.328125"/>
     <use xlink:href="#DejaVuSans-34" x="2011.951172"/>
     <use xlink:href="#DejaVuSans-72" x="2075.574219"/>
     <use xlink:href="#DejaVuSans-31" x="2116.6875"/>
     <use xlink:href="#DejaVuSans-20" x="2180.310547"/>
     <use xlink:href="#DejaVuSans-73" x="2212.097656"/>
     <use xlink:href="#DejaVuSans-69" x="2264.197266"/>
     <use xlink:href="#DejaVuSans-67" x="2291.980469"/>
     <use xlink:href="#DejaVuSans-6e" x="2355.457031"/>
     <use xlink:href="#DejaVuSans-61" x="2418.835938"/>
     <use xlink:href="#DejaVuSans-74" x="2480.115234"/>
     <use xlink:href="#DejaVuSans-75" x="2519.324219"/>
     <use xlink:href="#DejaVuSans-72" x="2582.703125"/>
     <use xlink:href="#DejaVuSans-65" x="2621.566406"/>
     <use xlink:href="#DejaVuSans-20" x="2683.089844"/>
     <use xlink:href="#DejaVuSans-61" x="2714.876953"/>
     <use xlink:href="#DejaVuSans-6c" x="2776.15625"/>
     <use xlink:href="#DejaVuSans-67" x="2803.939453"/>
     <use xlink:href="#DejaVuSans-6f" x="2867.416016"/>
     <use xlink:href="#DejaVuSans-72" x="2928.597656"/>
     <use xlink:href="#DejaVuSans-69" x="2969.710938"/>
     <use xlink:href="#DejaVuSans-74" x="2997.494141"/>
     <use xlink:href="#DejaVuSans-68" x="3036.703125"/>
     <use xlink:href="#DejaVuSans-6d" x="3100.082031"/>
     <use xlink:href="#DejaVuSans-20" x="3197.494141"/>
     <use xlink:href="#DejaVuSans-2014" x="3229.28125"/>
     <use xlink:href="#DejaVuSans-20" x="3329.28125"/>
     <use xlink:href="#DejaVuSans-42" x="3361.068359"/>
     <use xlink:href="#DejaVuSans-61" x="3429.671875"/>
     <use xlink:href="#DejaVuSans-63" x="3490.951172"/>
     <use xlink:href="#DejaVuSans-6b" x="3545.931641"/>
     <use xlink:href="#DejaVuSans-62" x="3603.841797"/>
     <use xlink:href="#DejaVuSans-6f" x="3667.318359"/>
     <use xlink:href="#DejaVuSans-6e" x="3728.5"/>
     <use xlink:href="#DejaVuSans-65" x="3791.878906"/>
     <use xlink:href="#DejaVuSans-20" x="3853.402344"/>
     <use xlink:href="#DejaVuSans-28" x="3885.189453"/>
     <use xlink:href="#DejaVuSans-32" x="3924.203125"/>
     <use xlink:href="#DejaVuSans-30" x="3987.826172"/>
     <use xlink:href="#DejaVuSans-30" x="4051.449219"/>
     <use xlink:href="#DejaVuSans-6d" x="4115.072266"/>
     <use xlink:href="#DejaVuSans-73" x="4212.484375"/>
     <use xlink:href="#DejaVuSans-2f" x="4264.583984"/>
     <use xlink:href="#DejaVuSans-34" x="4298.275391"/>
     <use xlink:href="#DejaVuSans-25" x="4361.898438"/>
     <use xlink:href="#DejaVuSans-29" x="4456.917969"/>
    </g>
   </g>
  </g>
 </g>
 <defs>
  <clipPath id="peadf94155c">
   <rect x="65.34" y="27.6" width="785.7" height="349.637044"/>
  </clipPath>
 </defs>
</svg>
