<?xml version="1.0" encoding="utf-8" standalone="no"?>
<!DOCTYPE svg PUBLIC "-//W3C//DTD SVG 1.1//EN"
  "http://www.w3.org/Graphics/SVG/1.1/DTD/svg11.dtd">
<svg xmlns:xlink="http://www.w3.org/1999/xlink" width="864pt" height="432pt" viewBox="0 0 864 432" xmlns="http://www.w3.org/2000/svg" version="1.1">
 <metadata>
  <rdf:RDF xmlns:dc="http://purl.org/dc/elements/1.1/" xmlns:cc="http://creativecommons.org/ns#" xmlns:rdf="http://www.w3.org/1999/02/22-rdf-syntax-ns#">
   <cc:Work>
    <dc:type rdf:resource="http://purl.org/dc/dcmitype/StillImage"/>
    <dc:date>2026-03-21T14:06:19.933119</dc:date>
    <dc:format>image/svg+xml</dc:format>
    <dc:creator>
     <cc:Agent>
      <dc:title>Matplotlib v3.6.3, https://matplotlib.org/</dc:title>
     </cc:Agent>
    </dc:creator>
   </cc:Work>
  </rdf:RDF>
 </metadata>
 <defs>
  <style type="text/css">*{stroke-linejoin: round; stroke-linecap: butt}</style>
 </defs>
 <g id="figure_1">
  <g id="patch_1">
   <path d="M 0 432 
L 864 432 
L 864 0 
L 0 0 
z
" style="fill: #ffffff"/>
  </g>
  <g id="axes_1">
   <g id="patch_2">
    <path d="M 58.32 377.237044 
L 851.04 377.237044 
L 851.04 27.6 
L 58.32 27.6 
z
" style="fill: #ffffff"/>
   </g>
   <g id="matplotlib.axis_1">
    <g id="xtick_1">
     <g id="text_1">
      <!-- P-521 -->
      <g style="fill: #262626" transform="translate(156.759421 404.396088) rotate(-15) scale(0.12 -0.12)">
       <defs>
        <path id="DejaVuSans-50" d="M 1259 4147 
L 1259 2394 
L 2053 2394 
Q 2494 2394 2734 2622 
Q 2975 2850 2975 3272 
Q 2975 3691 2734 3919 
Q 2494 4147 2053 4147 
L 1259 4147 
z
M 628 4666 
L 2053 4666 
Q 2838 4666 3239 4311 
Q 3641 3956 3641 3272 
Q 3641 2581 3239 2228 
Q 2838 1875 2053 1875 
L 1259 1875 
L 1259 0 
L 628 0 
L 628 4666 
z
" transform="scale(0.015625)"/>
        <path id="DejaVuSans-2d" d="M 313 2009 
L 1997 2009 
L 1997 1497 
L 313 1497 
L 313 2009 
z
" transform="scale(0.015625)"/>
        <path id="DejaVuSans-35" d="M 691 4666 
L 3169 4666 
L 3169 4134 
L 1269 4134 
L 1269 2991 
Q 1406 3038 1543 3061 
Q 1681 3084 1819 3084 
Q 2600 3084 3056 2656 
Q 3513 2228 3513 1497 
Q 3513 744 3044 326 
Q 2575 -91 1722 -91 
Q 1428 -91 1123 -41 
Q 819 9 494 109 
L 494 744 
Q 775 591 1075 516 
Q 1375 441 1709 441 
Q 2250 441 2565 725 
Q 2881 1009 2881 1497 
Q 2881 1984 2565 2268 
Q 2250 2553 1709 2553 
Q 1456 2553 1204 2497 
Q 953 2441 691 2322 
L 691 4666 
z
" transform="scale(0.015625)"/>
        <path id="DejaVuSans-32" d="M 1228 531 
L 3431 531 
L 3431 0 
L 469 0 
L 469 531 
Q 828 903 1448 1529 
Q 2069 2156 2228 2338 
Q 2531 2678 2651 2914 
Q 2772 3150 2772 3378 
Q 2772 3750 2511 3984 
Q 2250 4219 1831 4219 
Q 1534 4219 1204 4116 
Q 875 4013 500 3803 
L 500 4441 
Q 881 4594 1212 4672 
Q 1544 4750 1819 4750 
Q 2544 4750 2975 4387 
Q 3406 4025 3406 3419 
Q 3406 3131 3298 2873 
Q 3191 2616 2906 2266 
Q 2828 2175 2409 1742 
Q 1991 1309 1228 531 
z
" transform="scale(0.015625)"/>
        <path id="DejaVuSans-31" d="M 794 531 
L 1825 531 
L 1825 4091 
L 703 3866 
L 703 4441 
L 1819 4666 
L 2450 4666 
L 2450 531 
L 3481 531 
L 3481 0 
L 794 0 
L 794 531 
z
" transform="scale(0.015625)"/>
       </defs>
       <use xlink:href="#DejaVuSans-50"/>
       <use xlink:href="#DejaVuSans-2d" x="58.052734"/>
       <use xlink:href="#DejaVuSans-35" x="94.136719"/>
       <use xlink:href="#DejaVuSans-32" x="157.759766"/>
       <use xlink:href="#DejaVuSans-31" x="221.382812"/>
      </g>
     </g>
    </g>
    <g id="xtick_2">
     <g id="text_2">
      <!-- hqc256 -->
      <g style="fill: #262626" transform="translate(410.831845 407.120482) rotate(-15) scale(0.12 -0.12)">
       <defs>
        <path id="DejaVuSans-68" d="M 3513 2113 
L 3513 0 
L 2938 0 
L 2938 2094 
Q 2938 2591 2744 2837 
Q 2550 3084 2163 3084 
Q 1697 3084 1428 2787 
Q 1159 2491 1159 1978 
L 1159 0 
L 581 0 
L 581 4863 
L 1159 4863 
L 1159 2956 
Q 1366 3272 1645 3428 
Q 1925 3584 2291 3584 
Q 2894 3584 3203 3211 
Q 3513 2838 3513 2113 
z
" transform="scale(0.015625)"/>
        <path id="DejaVuSans-71" d="M 947 1747 
Q 947 1113 1208 752 
Q 1469 391 1925 391 
Q 2381 391 2643 752 
Q 2906 1113 2906 1747 
Q 2906 2381 2643 2742 
Q 2381 3103 1925 3103 
Q 1469 3103 1208 2742 
Q 947 2381 947 1747 
z
M 2906 525 
Q 2725 213 2448 61 
Q 2172 -91 1784 -91 
Q 1150 -91 751 415 
Q 353 922 353 1747 
Q 353 2572 751 3078 
Q 1150 3584 1784 3584 
Q 2172 3584 2448 3432 
Q 2725 3281 2906 2969 
L 2906 3500 
L 3481 3500 
L 3481 -1331 
L 2906 -1331 
L 2906 525 
z
" transform="scale(0.015625)"/>
        <path id="DejaVuSans-63" d="M 3122 3366 
L 3122 2828 
Q 2878 2963 2633 3030 
Q 2388 3097 2138 3097 
Q 1578 3097 1268 2742 
Q 959 2388 959 1747 
Q 959 1106 1268 751 
Q 1578 397 2138 397 
Q 2388 397 2633 464 
Q 2878 531 3122 666 
L 3122 134 
Q 2881 22 2623 -34 
Q 2366 -91 2075 -91 
Q 1284 -91 818 406 
Q 353 903 353 1747 
Q 353 2603 823 3093 
Q 1294 3584 2113 3584 
Q 2378 3584 2631 3529 
Q 2884 3475 3122 3366 
z
" transform="scale(0.015625)"/>
        <path id="DejaVuSans-36" d="M 2113 2584 
Q 1688 2584 1439 2293 
Q 1191 2003 1191 1497 
Q 1191 994 1439 701 
Q 1688 409 2113 409 
Q 2538 409 2786 701 
Q 3034 994 3034 1497 
Q 3034 2003 2786 2293 
Q 2538 2584 2113 2584 
z
M 3366 4563 
L 3366 3988 
Q 3128 4100 2886 4159 
Q 2644 4219 2406 4219 
Q 1781 4219 1451 3797 
Q 1122 3375 1075 2522 
Q 1259 2794 1537 2939 
Q 1816 3084 2150 3084 
Q 2853 3084 3261 2657 
Q 3669 2231 3669 1497 
Q 3669 778 3244 343 
Q 2819 -91 2113 -91 
Q 1303 -91 875 529 
Q 447 1150 447 2328 
Q 447 3434 972 4092 
Q 1497 4750 2381 4750 
Q 2619 4750 2861 4703 
Q 3103 4656 3366 4563 
z
" transform="scale(0.015625)"/>
       </defs>
       <use xlink:href="#DejaVuSans-68"/>
       <use xlink:href="#DejaVuSans-71" x="63.378906"/>
       <use xlink:href="#DejaVuSans-63" x="126.855469"/>
       <use xlink:href="#DejaVuSans-32" x="181.835938"/>
       <use xlink:href="#DejaVuSans-35" x="245.458984"/>
       <use xlink:href="#DejaVuSans-36" x="309.082031"/>
      </g>
     </g>
    </g>
    <g id="xtick_3">
     <g id="text_3">
      <!-- p521_hqc256 -->
      <g style="fill: #262626" transform="translate(639.706834 416.573362) rotate(-15) scale(0.12 -0.12)">
       <defs>
        <path id="DejaVuSans-70" d="M 1159 525 
L 1159 -1331 
L 581 -1331 
L 581 3500 
L 1159 3500 
L 1159 2969 
Q 1341 3281 1617 3432 
Q 1894 3584 2278 3584 
Q 2916 3584 3314 3078 
Q 3713 2572 3713 1747 
Q 3713 922 3314 415 
Q 2916 -91 2278 -91 
Q 1894 -91 1617 61 
Q 1341 213 1159 525 
z
M 3116 1747 
Q 3116 2381 2855 2742 
Q 2594 3103 2138 3103 
Q 1681 3103 1420 2742 
Q 1159 2381 1159 1747 
Q 1159 1113 1420 752 
Q 1681 391 2138 391 
Q 2594 391 2855 752 
Q 3116 1113 3116 1747 
z
" transform="scale(0.015625)"/>
        <path id="DejaVuSans-5f" d="M 3263 -1063 
L 3263 -1509 
L -63 -1509 
L -63 -1063 
L 3263 -1063 
z
" transform="scale(0.015625)"/>
       </defs>
       <use xlink:href="#DejaVuSans-70"/>
       <use xlink:href="#DejaVuSans-35" x="63.476562"/>
       <use xlink:href="#DejaVuSans-32" x="127.099609"/>
       <use xlink:href="#DejaVuSans-31" x="190.722656"/>
       <use xlink:href="#DejaVuSans-5f" x="254.345703"/>
       <use xlink:href="#DejaVuSans-68" x="304.345703"/>
       <use xlink:href="#DejaVuSans-71" x="367.724609"/>
       <use xlink:href="#DejaVuSans-63" x="431.201172"/>
       <use xlink:href="#DejaVuSans-32" x="486.181641"/>
       <use xlink:href="#DejaVuSans-35" x="549.804688"/>
       <use xlink:href="#DejaVuSans-36" x="613.427734"/>
      </g>
     </g>
    </g>
   </g>
   <g id="matplotlib.axis_2">
    <g id="ytick_1">
     <g id="line2d_1">
      <path d="M 58.32 351.327039 
L 851.04 351.327039 
" clip-path="url(#p86f87f3c07)" style="fill: none; stroke: #cccccc; stroke-linecap: round"/>
     </g>
     <g id="text_4">
      <!-- 20 -->
      <g style="fill: #262626" transform="translate(34.8225 355.50618) scale(0.11 -0.11)">
       <defs>
        <path id="DejaVuSans-30" d="M 2034 4250 
Q 1547 4250 1301 3770 
Q 1056 3291 1056 2328 
Q 1056 1369 1301 889 
Q 1547 409 2034 409 
Q 2525 409 2770 889 
Q 3016 1369 3016 2328 
Q 3016 3291 2770 3770 
Q 2525 4250 2034 4250 
z
M 2034 4750 
Q 2819 4750 3233 4129 
Q 3647 3509 3647 2328 
Q 3647 1150 3233 529 
Q 2819 -91 2034 -91 
Q 1250 -91 836 529 
Q 422 1150 422 2328 
Q 422 3509 836 4129 
Q 1250 4750 2034 4750 
z
" transform="scale(0.015625)"/>
       </defs>
       <use xlink:href="#DejaVuSans-32"/>
       <use xlink:href="#DejaVuSans-30" x="63.623047"/>
      </g>
     </g>
    </g>
    <g id="ytick_2">
     <g id="line2d_2">
      <path d="M 58.32 309.663063 
L 851.04 309.663063 
" clip-path="url(#p86f87f3c07)" style="fill: none; stroke: #cccccc; stroke-linecap: round"/>
     </g>
     <g id="text_5">
      <!-- 40 -->
      <g style="fill: #262626" transform="translate(34.8225 313.842203) scale(0.11 -0.11)">
       <defs>
        <path id="DejaVuSans-34" d="M 2419 4116 
L 825 1625 
L 2419 1625 
L 2419 4116 
z
M 2253 4666 
L 3047 4666 
L 3047 1625 
L 3713 1625 
L 3713 1100 
L 3047 1100 
L 3047 0 
L 2419 0 
L 2419 1100 
L 313 1100 
L 313 1709 
L 2253 4666 
z
" transform="scale(0.015625)"/>
       </defs>
       <use xlink:href="#DejaVuSans-34"/>
       <use xlink:href="#DejaVuSans-30" x="63.623047"/>
      </g>
     </g>
    </g>
    <g id="ytick_3">
     <g id="line2d_3">
      <path d="M 58.32 267.999086 
L 851.04 267.999086 
" clip-path="url(#p86f87f3c07)" style="fill: none; stroke: #cccccc; stroke-linecap: round"/>
     </g>
     <g id="text_6">
      <!-- 60 -->
      <g style="fill: #262626" transform="translate(34.8225 272.178226) scale(0.11 -0.11)">
       <use xlink:href="#DejaVuSans-36"/>
       <use xlink:href="#DejaVuSans-30" x="63.623047"/>
      </g>
     </g>
    </g>
    <g id="ytick_4">
     <g id="line2d_4">
      <path d="M 58.32 226.335109 
L 851.04 226.335109 
" clip-path="url(#p86f87f3c07)" style="fill: none; stroke: #cccccc; stroke-linecap: round"/>
     </g>
     <g id="text_7">
      <!-- 80 -->
      <g style="fill: #262626" transform="translate(34.8225 230.514249) scale(0.11 -0.11)">
       <defs>
        <path id="DejaVuSans-38" d="M 2034 2216 
Q 1584 2216 1326 1975 
Q 1069 1734 1069 1313 
Q 1069 891 1326 650 
Q 1584 409 2034 409 
Q 2484 409 2743 651 
Q 3003 894 3003 1313 
Q 3003 1734 2745 1975 
Q 2488 2216 2034 2216 
z
M 1403 2484 
Q 997 2584 770 2862 
Q 544 3141 544 3541 
Q 544 4100 942 4425 
Q 1341 4750 2034 4750 
Q 2731 4750 3128 4425 
Q 3525 4100 3525 3541 
Q 3525 3141 3298 2862 
Q 3072 2584 2669 2484 
Q 3125 2378 3379 2068 
Q 3634 1759 3634 1313 
Q 3634 634 3220 271 
Q 2806 -91 2034 -91 
Q 1263 -91 848 271 
Q 434 634 434 1313 
Q 434 1759 690 2068 
Q 947 2378 1403 2484 
z
M 1172 3481 
Q 1172 3119 1398 2916 
Q 1625 2713 2034 2713 
Q 2441 2713 2670 2916 
Q 2900 3119 2900 3481 
Q 2900 3844 2670 4047 
Q 2441 4250 2034 4250 
Q 1625 4250 1398 4047 
Q 1172 3844 1172 3481 
z
" transform="scale(0.015625)"/>
       </defs>
       <use xlink:href="#DejaVuSans-38"/>
       <use xlink:href="#DejaVuSans-30" x="63.623047"/>
      </g>
     </g>
    </g>
    <g id="ytick_5">
     <g id="line2d_5">
      <path d="M 58.32 184.671132 
L 851.04 184.671132 
" clip-path="url(#p86f87f3c07)" style="fill: none; stroke: #cccccc; stroke-linecap: round"/>
     </g>
     <g id="text_8">
      <!-- 100 -->
      <g style="fill: #262626" transform="translate(27.82375 188.850273) scale(0.11 -0.11)">
       <use xlink:href="#DejaVuSans-31"/>
       <use xlink:href="#DejaVuSans-30" x="63.623047"/>
       <use xlink:href="#DejaVuSans-30" x="127.246094"/>
      </g>
     </g>
    </g>
    <g id="ytick_6">
     <g id="line2d_6">
      <path d="M 58.32 143.007155 
L 851.04 143.007155 
" clip-path="url(#p86f87f3c07)" style="fill: none; stroke: #cccccc; stroke-linecap: round"/>
     </g>
     <g id="text_9">
      <!-- 120 -->
      <g style="fill: #262626" transform="translate(27.82375 147.186296) scale(0.11 -0.11)">
       <use xlink:href="#DejaVuSans-31"/>
       <use xlink:href="#DejaVuSans-32" x="63.623047"/>
       <use xlink:href="#DejaVuSans-30" x="127.246094"/>
      </g>
     </g>
    </g>
    <g id="ytick_7">
     <g id="line2d_7">
      <path d="M 58.32 101.343178 
L 851.04 101.343178 
" clip-path="url(#p86f87f3c07)" style="fill: none; stroke: #cccccc; stroke-linecap: round"/>
     </g>
     <g id="text_10">
      <!-- 140 -->
      <g style="fill: #262626" transform="translate(27.82375 105.522319) scale(0.11 -0.11)">
       <use xlink:href="#DejaVuSans-31"/>
       <use xlink:href="#DejaVuSans-34" x="63.623047"/>
       <use xlink:href="#DejaVuSans-30" x="127.246094"/>
      </g>
     </g>
    </g>
    <g id="ytick_8">
     <g id="line2d_8">
      <path d="M 58.32 59.679201 
L 851.04 59.679201 
" clip-path="url(#p86f87f3c07)" style="fill: none; stroke: #cccccc; stroke-linecap: round"/>
     </g>
     <g id="text_11">
      <!-- 160 -->
      <g style="fill: #262626" transform="translate(27.82375 63.858342) scale(0.11 -0.11)">
       <use xlink:href="#DejaVuSans-31"/>
       <use xlink:href="#DejaVuSans-36" x="63.623047"/>
       <use xlink:href="#DejaVuSans-30" x="127.246094"/>
      </g>
     </g>
    </g>
    <g id="text_12">
     <!-- Handshake duration (ms) -->
     <g style="fill: #262626" transform="translate(21.328125 278.486335) rotate(-90) scale(0.12 -0.12)">
      <defs>
       <path id="DejaVuSans-48" d="M 628 4666 
L 1259 4666 
L 1259 2753 
L 3553 2753 
L 3553 4666 
L 4184 4666 
L 4184 0 
L 3553 0 
L 3553 2222 
L 1259 2222 
L 1259 0 
L 628 0 
L 628 4666 
z
" transform="scale(0.015625)"/>
       <path id="DejaVuSans-61" d="M 2194 1759 
Q 1497 1759 1228 1600 
Q 959 1441 959 1056 
Q 959 750 1161 570 
Q 1363 391 1709 391 
Q 2188 391 2477 730 
Q 2766 1069 2766 1631 
L 2766 1759 
L 2194 1759 
z
M 3341 1997 
L 3341 0 
L 2766 0 
L 2766 531 
Q 2569 213 2275 61 
Q 1981 -91 1556 -91 
Q 1019 -91 701 211 
Q 384 513 384 1019 
Q 384 1609 779 1909 
Q 1175 2209 1959 2209 
L 2766 2209 
L 2766 2266 
Q 2766 2663 2505 2880 
Q 2244 3097 1772 3097 
Q 1472 3097 1187 3025 
Q 903 2953 641 2809 
L 641 3341 
Q 956 3463 1253 3523 
Q 1550 3584 1831 3584 
Q 2591 3584 2966 3190 
Q 3341 2797 3341 1997 
z
" transform="scale(0.015625)"/>
       <path id="DejaVuSans-6e" d="M 3513 2113 
L 3513 0 
L 2938 0 
L 2938 2094 
Q 2938 2591 2744 2837 
Q 2550 3084 2163 3084 
Q 1697 3084 1428 2787 
Q 1159 2491 1159 1978 
L 1159 0 
L 581 0 
L 581 3500 
L 1159 3500 
L 1159 2956 
Q 1366 3272 1645 3428 
Q 1925 3584 2291 3584 
Q 2894 3584 3203 3211 
Q 3513 2838 3513 2113 
z
" transform="scale(0.015625)"/>
       <path id="DejaVuSans-64" d="M 2906 2969 
L 2906 4863 
L 3481 4863 
L 3481 0 
L 2906 0 
L 2906 525 
Q 2725 213 2448 61 
Q 2172 -91 1784 -91 
Q 1150 -91 751 415 
Q 353 922 353 1747 
Q 353 2572 751 3078 
Q 1150 3584 1784 3584 
Q 2172 3584 2448 3432 
Q 2725 3281 2906 2969 
z
M 947 1747 
Q 947 1113 1208 752 
Q 1469 391 1925 391 
Q 2381 391 2643 752 
Q 2906 1113 2906 1747 
Q 2906 2381 2643 2742 
Q 2381 3103 1925 3103 
Q 1469 3103 1208 2742 
Q 947 2381 947 1747 
z
" transform="scale(0.015625)"/>
       <path id="DejaVuSans-73" d="M 2834 3397 
L 2834 2853 
Q 2591 2978 2328 3040 
Q 2066 3103 1784 3103 
Q 1356 3103 1142 2972 
Q 928 2841 928 2578 
Q 928 2378 1081 2264 
Q 1234 2150 1697 2047 
L 1894 2003 
Q 2506 1872 2764 1633 
Q 3022 1394 3022 966 
Q 3022 478 2636 193 
Q 2250 -91 1575 -91 
Q 1294 -91 989 -36 
Q 684 19 347 128 
L 347 722 
Q 666 556 975 473 
Q 1284 391 1588 391 
Q 1994 391 2212 530 
Q 2431 669 2431 922 
Q 2431 1156 2273 1281 
Q 2116 1406 1581 1522 
L 1381 1569 
Q 847 1681 609 1914 
Q 372 2147 372 2553 
Q 372 3047 722 3315 
Q 1072 3584 1716 3584 
Q 2034 3584 2315 3537 
Q 2597 3491 2834 3397 
z
" transform="scale(0.015625)"/>
       <path id="DejaVuSans-6b" d="M 581 4863 
L 1159 4863 
L 1159 1991 
L 2875 3500 
L 3609 3500 
L 1753 1863 
L 3688 0 
L 2938 0 
L 1159 1709 
L 1159 0 
L 581 0 
L 581 4863 
z
" transform="scale(0.015625)"/>
       <path id="DejaVuSans-65" d="M 3597 1894 
L 3597 1613 
L 953 1613 
Q 991 1019 1311 708 
Q 1631 397 2203 397 
Q 2534 397 2845 478 
Q 3156 559 3463 722 
L 3463 178 
Q 3153 47 2828 -22 
Q 2503 -91 2169 -91 
Q 1331 -91 842 396 
Q 353 884 353 1716 
Q 353 2575 817 3079 
Q 1281 3584 2069 3584 
Q 2775 3584 3186 3129 
Q 3597 2675 3597 1894 
z
M 3022 2063 
Q 3016 2534 2758 2815 
Q 2500 3097 2075 3097 
Q 1594 3097 1305 2825 
Q 1016 2553 972 2059 
L 3022 2063 
z
" transform="scale(0.015625)"/>
       <path id="DejaVuSans-20" transform="scale(0.015625)"/>
       <path id="DejaVuSans-75" d="M 544 1381 
L 544 3500 
L 1119 3500 
L 1119 1403 
Q 1119 906 1312 657 
Q 1506 409 1894 409 
Q 2359 409 2629 706 
Q 2900 1003 2900 1516 
L 2900 3500 
L 3475 3500 
L 3475 0 
L 2900 0 
L 2900 538 
Q 2691 219 2414 64 
Q 2138 -91 1772 -91 
Q 1169 -91 856 284 
Q 544 659 544 1381 
z
M 1991 3584 
L 1991 3584 
z
" transform="scale(0.015625)"/>
       <path id="DejaVuSans-72" d="M 2631 2963 
Q 2534 3019 2420 3045 
Q 2306 3072 2169 3072 
Q 1681 3072 1420 2755 
Q 1159 2438 1159 1844 
L 1159 0 
L 581 0 
L 581 3500 
L 1159 3500 
L 1159 2956 
Q 1341 3275 1631 3429 
Q 1922 3584 2338 3584 
Q 2397 3584 2469 3576 
Q 2541 3569 2628 3553 
L 2631 2963 
z
" transform="scale(0.015625)"/>
       <path id="DejaVuSans-74" d="M 1172 4494 
L 1172 3500 
L 2356 3500 
L 2356 3053 
L 1172 3053 
L 1172 1153 
Q 1172 725 1289 603 
Q 1406 481 1766 481 
L 2356 481 
L 2356 0 
L 1766 0 
Q 1100 0 847 248 
Q 594 497 594 1153 
L 594 3053 
L 172 3053 
L 172 3500 
L 594 3500 
L 594 4494 
L 1172 4494 
z
" transform="scale(0.015625)"/>
       <path id="DejaVuSans-69" d="M 603 3500 
L 1178 3500 
L 1178 0 
L 603 0 
L 603 3500 
z
M 603 4863 
L 1178 4863 
L 1178 4134 
L 603 4134 
L 603 4863 
z
" transform="scale(0.015625)"/>
       <path id="DejaVuSans-6f" d="M 1959 3097 
Q 1497 3097 1228 2736 
Q 959 2375 959 1747 
Q 959 1119 1226 758 
Q 1494 397 1959 397 
Q 2419 397 2687 759 
Q 2956 1122 2956 1747 
Q 2956 2369 2687 2733 
Q 2419 3097 1959 3097 
z
M 1959 3584 
Q 2709 3584 3137 3096 
Q 3566 2609 3566 1747 
Q 3566 888 3137 398 
Q 2709 -91 1959 -91 
Q 1206 -91 779 398 
Q 353 888 353 1747 
Q 353 2609 779 3096 
Q 1206 3584 1959 3584 
z
" transform="scale(0.015625)"/>
       <path id="DejaVuSans-28" d="M 1984 4856 
Q 1566 4138 1362 3434 
Q 1159 2731 1159 2009 
Q 1159 1288 1364 580 
Q 1569 -128 1984 -844 
L 1484 -844 
Q 1016 -109 783 600 
Q 550 1309 550 2009 
Q 550 2706 781 3412 
Q 1013 4119 1484 4856 
L 1984 4856 
z
" transform="scale(0.015625)"/>
       <path id="DejaVuSans-6d" d="M 3328 2828 
Q 3544 3216 3844 3400 
Q 4144 3584 4550 3584 
Q 5097 3584 5394 3201 
Q 5691 2819 5691 2113 
L 5691 0 
L 5113 0 
L 5113 2094 
Q 5113 2597 4934 2840 
Q 4756 3084 4391 3084 
Q 3944 3084 3684 2787 
Q 3425 2491 3425 1978 
L 3425 0 
L 2847 0 
L 2847 2094 
Q 2847 2600 2669 2842 
Q 2491 3084 2119 3084 
Q 1678 3084 1418 2786 
Q 1159 2488 1159 1978 
L 1159 0 
L 581 0 
L 581 3500 
L 1159 3500 
L 1159 2956 
Q 1356 3278 1631 3431 
Q 1906 3584 2284 3584 
Q 2666 3584 2933 3390 
Q 3200 3197 3328 2828 
z
" transform="scale(0.015625)"/>
       <path id="DejaVuSans-29" d="M 513 4856 
L 1013 4856 
Q 1481 4119 1714 3412 
Q 1947 2706 1947 2009 
Q 1947 1309 1714 600 
Q 1481 -109 1013 -844 
L 513 -844 
Q 928 -128 1133 580 
Q 1338 1288 1338 2009 
Q 1338 2731 1133 3434 
Q 928 4138 513 4856 
z
" transform="scale(0.015625)"/>
      </defs>
      <use xlink:href="#DejaVuSans-48"/>
      <use xlink:href="#DejaVuSans-61" x="75.195312"/>
      <use xlink:href="#DejaVuSans-6e" x="136.474609"/>
      <use xlink:href="#DejaVuSans-64" x="199.853516"/>
      <use xlink:href="#DejaVuSans-73" x="263.330078"/>
      <use xlink:href="#DejaVuSans-68" x="315.429688"/>
      <use xlink:href="#DejaVuSans-61" x="378.808594"/>
      <use xlink:href="#DejaVuSans-6b" x="440.087891"/>
      <use xlink:href="#DejaVuSans-65" x="494.373047"/>
      <use xlink:href="#DejaVuSans-20" x="555.896484"/>
      <use xlink:href="#DejaVuSans-64" x="587.683594"/>
      <use xlink:href="#DejaVuSans-75" x="651.160156"/>
      <use xlink:href="#DejaVuSans-72" x="714.539062"/>
      <use xlink:href="#DejaVuSans-61" x="755.652344"/>
      <use xlink:href="#DejaVuSans-74" x="816.931641"/>
      <use xlink:href="#DejaVuSans-69" x="856.140625"/>
      <use xlink:href="#DejaVuSans-6f" x="883.923828"/>
      <use xlink:href="#DejaVuSans-6e" x="945.105469"/>
      <use xlink:href="#DejaVuSans-20" x="1008.484375"/>
      <use xlink:href="#DejaVuSans-28" x="1040.271484"/>
      <use xlink:href="#DejaVuSans-6d" x="1079.285156"/>
      <use xlink:href="#DejaVuSans-73" x="1176.697266"/>
      <use xlink:href="#DejaVuSans-29" x="1228.796875"/>
     </g>
    </g>
   </g>
   <g id="PolyCollection_1">
    <defs>
     <path id="m5c08777611" d="M 191.422433 -70.655549 
L 189.457567 -70.655549 
L 188.22771 -70.915787 
L 185.902699 -71.176026 
L 181.943464 -71.436265 
L 175.867567 -71.696503 
L 167.457491 -71.956742 
L 156.940661 -72.21698 
L 145.024496 -72.477219 
L 132.728665 -72.737458 
L 121.07721 -72.997696 
L 110.808504 -73.257935 
L 102.252056 -73.518173 
L 95.413904 -73.778412 
L 90.190429 -74.038651 
L 86.574488 -74.298889 
L 84.744 -74.559128 
L 84.997729 -74.819366 
L 87.585408 -75.079605 
L 92.53505 -75.339843 
L 99.578151 -75.600082 
L 108.206414 -75.860321 
L 117.805191 -76.120559 
L 127.770258 -76.380798 
L 137.556969 -76.641036 
L 146.687751 -76.901275 
L 154.776188 -77.161514 
L 161.585782 -77.421752 
L 167.079855 -77.681991 
L 171.406629 -77.942229 
L 174.812966 -78.202468 
L 177.538677 -78.462707 
L 179.753851 -78.722945 
L 181.56065 -78.983184 
L 183.031949 -79.243422 
L 184.243093 -79.503661 
L 185.273626 -79.763899 
L 186.186886 -80.024138 
L 187.010758 -80.284377 
L 187.736476 -80.544615 
L 188.33544 -80.804854 
L 188.781512 -81.065092 
L 189.065615 -81.325331 
L 189.198008 -81.58557 
L 189.202676 -81.845808 
L 189.110481 -82.106047 
L 188.953628 -82.366285 
L 188.760351 -82.626524 
L 188.550398 -82.886763 
L 188.335176 -83.147001 
L 188.124596 -83.40724 
L 187.935735 -83.667478 
L 187.794302 -83.927717 
L 187.725025 -84.187955 
L 187.737495 -84.448194 
L 187.819597 -84.708433 
L 187.945537 -84.968671 
L 188.093677 -85.22891 
L 188.260901 -85.489148 
L 188.462073 -85.749387 
L 188.714491 -86.009626 
L 189.019035 -86.269864 
L 189.352274 -86.530103 
L 189.674884 -86.790341 
L 189.949372 -87.05058 
L 190.154697 -87.310818 
L 190.290053 -87.571057 
L 190.368854 -87.831296 
L 190.409261 -88.091534 
L 190.426857 -88.351773 
L 190.431307 -88.612011 
L 190.425808 -88.87225 
L 190.407545 -89.132489 
L 190.368449 -89.392727 
L 190.297129 -89.652966 
L 190.183351 -89.913204 
L 190.025116 -90.173443 
L 189.835402 -90.433682 
L 189.643314 -90.69392 
L 189.485933 -90.954159 
L 189.393325 -91.214397 
L 189.375593 -91.474636 
L 189.421045 -91.734874 
L 189.50655 -91.995113 
L 189.611583 -92.255352 
L 189.725151 -92.51559 
L 189.842072 -92.775829 
L 189.954531 -93.036067 
L 190.047893 -93.296306 
L 190.104813 -93.556545 
L 190.114592 -93.816783 
L 190.081208 -94.077022 
L 190.024723 -94.33726 
L 189.974571 -94.597499 
L 189.957604 -94.857738 
L 189.98691 -95.117976 
L 190.057429 -95.378215 
L 190.15049 -95.638453 
L 190.243871 -95.898692 
L 190.321106 -96.15893 
L 190.375515 -96.419169 
L 190.504485 -96.419169 
L 190.504485 -96.419169 
L 190.558894 -96.15893 
L 190.636129 -95.898692 
L 190.72951 -95.638453 
L 190.822571 -95.378215 
L 190.89309 -95.117976 
L 190.922396 -94.857738 
L 190.905429 -94.597499 
L 190.855277 -94.33726 
L 190.798792 -94.077022 
L 190.765408 -93.816783 
L 190.775187 -93.556545 
L 190.832107 -93.296306 
L 190.925469 -93.036067 
L 191.037928 -92.775829 
L 191.154849 -92.51559 
L 191.268417 -92.255352 
L 191.37345 -91.995113 
L 191.458955 -91.734874 
L 191.504407 -91.474636 
L 191.486675 -91.214397 
L 191.394067 -90.954159 
L 191.236686 -90.69392 
L 191.044598 -90.433682 
L 190.854884 -90.173443 
L 190.696649 -89.913204 
L 190.582871 -89.652966 
L 190.511551 -89.392727 
L 190.472455 -89.132489 
L 190.454192 -88.87225 
L 190.448693 -88.612011 
L 190.453143 -88.351773 
L 190.470739 -88.091534 
L 190.511146 -87.831296 
L 190.589947 -87.571057 
L 190.725303 -87.310818 
L 190.930628 -87.05058 
L 191.205116 -86.790341 
L 191.527726 -86.530103 
L 191.860965 -86.269864 
L 192.165509 -86.009626 
L 192.417927 -85.749387 
L 192.619099 -85.489148 
L 192.786323 -85.22891 
L 192.934463 -84.968671 
L 193.060403 -84.708433 
L 193.142505 -84.448194 
L 193.154975 -84.187955 
L 193.085698 -83.927717 
L 192.944265 -83.667478 
L 192.755404 -83.40724 
L 192.544824 -83.147001 
L 192.329602 -82.886763 
L 192.119649 -82.626524 
L 191.926372 -82.366285 
L 191.769519 -82.106047 
L 191.677324 -81.845808 
L 191.681992 -81.58557 
L 191.814385 -81.325331 
L 192.098488 -81.065092 
L 192.54456 -80.804854 
L 193.143524 -80.544615 
L 193.869242 -80.284377 
L 194.693114 -80.024138 
L 195.606374 -79.763899 
L 196.636907 -79.503661 
L 197.848051 -79.243422 
L 199.31935 -78.983184 
L 201.126149 -78.722945 
L 203.341323 -78.462707 
L 206.067034 -78.202468 
L 209.473371 -77.942229 
L 213.800145 -77.681991 
L 219.294218 -77.421752 
L 226.103812 -77.161514 
L 234.192249 -76.901275 
L 243.323031 -76.641036 
L 253.109742 -76.380798 
L 263.074809 -76.120559 
L 272.673586 -75.860321 
L 281.301849 -75.600082 
L 288.34495 -75.339843 
L 293.294592 -75.079605 
L 295.882271 -74.819366 
L 296.136 -74.559128 
L 294.305512 -74.298889 
L 290.689571 -74.038651 
L 285.466096 -73.778412 
L 278.627944 -73.518173 
L 270.071496 -73.257935 
L 259.80279 -72.997696 
L 248.151335 -72.737458 
L 235.855504 -72.477219 
L 223.939339 -72.21698 
L 213.422509 -71.956742 
L 205.012433 -71.696503 
L 198.936536 -71.436265 
L 194.977301 -71.176026 
L 192.65229 -70.915787 
L 191.422433 -70.655549 
z
" style="stroke: #595959; stroke-width: 1.25"/>
    </defs>
    <g clip-path="url(#p86f87f3c07)">
     <use xlink:href="#m5c08777611" x="0" y="432" style="fill: #72b6a1; stroke: #595959; stroke-width: 1.25"/>
    </g>
   </g>
   <g id="PolyCollection_2">
    <defs>
     <path id="m20e871867c" d="M 457.443516 -202.310788 
L 451.916484 -202.310788 
L 447.023441 -204.191562 
L 436.930758 -206.072336 
L 420.078553 -207.95311 
L 397.565075 -209.833883 
L 374.108712 -211.714657 
L 356.313733 -213.595431 
L 348.984 -215.476205 
L 352.503422 -217.356979 
L 363.383892 -219.237753 
L 377.008536 -221.118527 
L 390.027596 -222.999301 
L 401.005597 -224.880075 
L 409.794555 -226.760849 
L 416.769996 -228.641623 
L 422.459797 -230.522397 
L 427.36944 -232.403171 
L 431.780184 -234.283945 
L 435.652217 -236.164719 
L 438.790952 -238.045492 
L 441.129162 -239.926266 
L 442.845759 -241.80704 
L 444.243336 -243.687814 
L 445.551532 -245.568588 
L 446.841359 -247.449362 
L 448.071023 -249.330136 
L 449.172568 -251.21091 
L 450.113785 -253.091684 
L 450.913057 -254.972458 
L 451.604591 -256.853232 
L 452.19647 -258.734006 
L 452.678732 -260.61478 
L 453.066828 -262.495554 
L 453.409975 -264.376328 
L 453.746207 -266.257101 
L 454.063273 -268.137875 
L 454.312596 -270.018649 
L 454.453335 -271.899423 
L 454.480072 -273.780197 
L 454.423758 -275.660971 
L 454.34038 -277.541745 
L 454.290631 -279.422519 
L 454.310236 -281.303293 
L 454.389996 -283.184067 
L 454.486164 -285.064841 
L 454.551241 -286.945615 
L 454.556844 -288.826389 
L 454.499044 -290.707163 
L 454.396574 -292.587937 
L 454.283908 -294.46871 
L 454.19074 -296.349484 
L 454.118431 -298.230258 
L 454.044484 -300.111032 
L 453.960368 -301.991806 
L 453.89956 -303.87258 
L 453.915751 -305.753354 
L 454.031311 -307.634128 
L 454.212945 -309.514902 
L 454.397776 -311.395676 
L 454.537704 -313.27645 
L 454.620366 -315.157224 
L 454.659289 -317.037998 
L 454.674054 -318.918772 
L 454.678592 -320.799546 
L 454.679725 -322.680319 
L 454.679956 -324.561093 
L 454.679994 -326.441867 
L 454.679999 -328.322641 
L 454.68 -330.203415 
L 454.68 -332.084189 
L 454.68 -333.964963 
L 454.68 -335.845737 
L 454.68 -337.726511 
L 454.68 -339.607285 
L 454.68 -341.488059 
L 454.68 -343.368833 
L 454.68 -345.249607 
L 454.68 -347.130381 
L 454.68 -349.011155 
L 454.68 -350.891928 
L 454.68 -352.772702 
L 454.68 -354.653476 
L 454.68 -356.53425 
L 454.679999 -358.415024 
L 454.679994 -360.295798 
L 454.679958 -362.176572 
L 454.67974 -364.057346 
L 454.678695 -365.93812 
L 454.67464 -367.818894 
L 454.661993 -369.699668 
L 454.630512 -371.580442 
L 454.568729 -373.461216 
L 454.475316 -375.34199 
L 454.371963 -377.222763 
L 454.300738 -379.103537 
L 454.297973 -380.984311 
L 454.365178 -382.865085 
L 454.467747 -384.745859 
L 454.562926 -386.626633 
L 454.62717 -388.507407 
L 454.73283 -388.507407 
L 454.73283 -388.507407 
L 454.797074 -386.626633 
L 454.892253 -384.745859 
L 454.994822 -382.865085 
L 455.062027 -380.984311 
L 455.059262 -379.103537 
L 454.988037 -377.222763 
L 454.884684 -375.34199 
L 454.791271 -373.461216 
L 454.729488 -371.580442 
L 454.698007 -369.699668 
L 454.68536 -367.818894 
L 454.681305 -365.93812 
L 454.68026 -364.057346 
L 454.680042 -362.176572 
L 454.680006 -360.295798 
L 454.680001 -358.415024 
L 454.68 -356.53425 
L 454.68 -354.653476 
L 454.68 -352.772702 
L 454.68 -350.891928 
L 454.68 -349.011155 
L 454.68 -347.130381 
L 454.68 -345.249607 
L 454.68 -343.368833 
L 454.68 -341.488059 
L 454.68 -339.607285 
L 454.68 -337.726511 
L 454.68 -335.845737 
L 454.68 -333.964963 
L 454.68 -332.084189 
L 454.68 -330.203415 
L 454.680001 -328.322641 
L 454.680006 -326.441867 
L 454.680044 -324.561093 
L 454.680275 -322.680319 
L 454.681408 -320.799546 
L 454.685946 -318.918772 
L 454.700711 -317.037998 
L 454.739634 -315.157224 
L 454.822296 -313.27645 
L 454.962224 -311.395676 
L 455.147055 -309.514902 
L 455.328689 -307.634128 
L 455.444249 -305.753354 
L 455.46044 -303.87258 
L 455.399632 -301.991806 
L 455.315516 -300.111032 
L 455.241569 -298.230258 
L 455.16926 -296.349484 
L 455.076092 -294.46871 
L 454.963426 -292.587937 
L 454.860956 -290.707163 
L 454.803156 -288.826389 
L 454.808759 -286.945615 
L 454.873836 -285.064841 
L 454.970004 -283.184067 
L 455.049764 -281.303293 
L 455.069369 -279.422519 
L 455.01962 -277.541745 
L 454.936242 -275.660971 
L 454.879928 -273.780197 
L 454.906665 -271.899423 
L 455.047404 -270.018649 
L 455.296727 -268.137875 
L 455.613793 -266.257101 
L 455.950025 -264.376328 
L 456.293172 -262.495554 
L 456.681268 -260.61478 
L 457.16353 -258.734006 
L 457.755409 -256.853232 
L 458.446943 -254.972458 
L 459.246215 -253.091684 
L 460.187432 -251.21091 
L 461.288977 -249.330136 
L 462.518641 -247.449362 
L 463.808468 -245.568588 
L 465.116664 -243.687814 
L 466.514241 -241.80704 
L 468.230838 -239.926266 
L 470.569048 -238.045492 
L 473.707783 -236.164719 
L 477.579816 -234.283945 
L 481.99056 -232.403171 
L 486.900203 -230.522397 
L 492.590004 -228.641623 
L 499.565445 -226.760849 
L 508.354403 -224.880075 
L 519.332404 -222.999301 
L 532.351464 -221.118527 
L 545.976108 -219.237753 
L 556.856578 -217.356979 
L 560.376 -215.476205 
L 553.046267 -213.595431 
L 535.251288 -211.714657 
L 511.794925 -209.833883 
L 489.281447 -207.95311 
L 472.429242 -206.072336 
L 462.336559 -204.191562 
L 457.443516 -202.310788 
z
" style="stroke: #595959; stroke-width: 1.25"/>
    </defs>
    <g clip-path="url(#p86f87f3c07)">
     <use xlink:href="#m20e871867c" x="0" y="432" style="fill: #e99675; stroke: #595959; stroke-width: 1.25"/>
    </g>
   </g>
   <g id="PolyCollection_3">
    <defs>
     <path id="m4989a7039f" d="M 719.831088 -241.217381 
L 718.008912 -241.217381 
L 716.788829 -241.583675 
L 714.402603 -241.949969 
L 710.211681 -242.316263 
L 703.587388 -242.682556 
L 694.140933 -243.04885 
L 681.958905 -243.415144 
L 667.731233 -243.781438 
L 652.694866 -244.147732 
L 638.40027 -244.514026 
L 626.382123 -244.880319 
L 617.842384 -245.246613 
L 613.437776 -245.612907 
L 613.224 -245.979201 
L 616.754133 -246.345495 
L 623.270649 -246.711789 
L 631.899812 -247.078082 
L 641.779932 -247.444376 
L 652.11719 -247.81067 
L 662.213551 -248.176964 
L 671.510242 -248.543258 
L 679.646225 -248.909551 
L 686.491776 -249.275845 
L 692.12065 -249.642139 
L 696.724548 -250.008433 
L 700.512231 -250.374727 
L 703.64129 -250.741021 
L 706.204478 -251.107314 
L 708.2597 -251.473608 
L 709.874144 -251.839902 
L 711.152094 -252.206196 
L 712.227312 -252.57249 
L 713.221209 -252.938784 
L 714.191655 -253.305077 
L 715.109313 -253.671371 
L 715.884366 -254.037665 
L 716.431253 -254.403959 
L 716.729084 -254.770253 
L 716.836503 -255.136546 
L 716.852922 -255.50284 
L 716.857594 -255.869134 
L 716.872668 -256.235428 
L 716.874613 -256.601722 
L 716.838646 -256.968016 
L 716.776428 -257.334309 
L 716.737407 -257.700603 
L 716.776934 -258.066897 
L 716.919792 -258.433191 
L 717.146557 -258.799485 
L 717.40841 -259.165779 
L 717.655203 -259.532072 
L 717.857173 -259.898366 
L 718.010806 -260.26466 
L 718.131481 -260.630954 
L 718.240541 -260.997248 
L 718.353341 -261.363541 
L 718.472205 -261.729835 
L 718.586 -262.096129 
L 718.675194 -262.462423 
L 718.718797 -262.828717 
L 718.700066 -263.195011 
L 718.610779 -263.561304 
L 718.455252 -263.927598 
L 718.253077 -264.293892 
L 718.036891 -264.660186 
L 717.843531 -265.02648 
L 717.703013 -265.392774 
L 717.632786 -265.759067 
L 717.639609 -266.125361 
L 717.723377 -266.491655 
L 717.876388 -266.857949 
L 718.079254 -267.224243 
L 718.300953 -267.590536 
L 718.507179 -267.95683 
L 718.672385 -268.323124 
L 718.787057 -268.689418 
L 718.856306 -269.055712 
L 718.89277 -269.422006 
L 718.909406 -269.788299 
L 718.91548 -270.154593 
L 718.915669 -270.520887 
L 718.910577 -270.887181 
L 718.897376 -271.253475 
L 718.870538 -271.619769 
L 718.823509 -271.986062 
L 718.751955 -272.352356 
L 718.65772 -272.71865 
L 718.550868 -273.084944 
L 718.447387 -273.451238 
L 718.363209 -273.817531 
L 718.308758 -274.183825 
L 718.288048 -274.550119 
L 718.30174 -274.916413 
L 718.34946 -275.282707 
L 718.428182 -275.649001 
L 718.528894 -276.015294 
L 718.636456 -276.381588 
L 718.734344 -276.747882 
L 718.810943 -277.114176 
L 718.862783 -277.48047 
L 718.977217 -277.48047 
L 718.977217 -277.48047 
L 719.029057 -277.114176 
L 719.105656 -276.747882 
L 719.203544 -276.381588 
L 719.311106 -276.015294 
L 719.411818 -275.649001 
L 719.49054 -275.282707 
L 719.53826 -274.916413 
L 719.551952 -274.550119 
L 719.531242 -274.183825 
L 719.476791 -273.817531 
L 719.392613 -273.451238 
L 719.289132 -273.084944 
L 719.18228 -272.71865 
L 719.088045 -272.352356 
L 719.016491 -271.986062 
L 718.969462 -271.619769 
L 718.942624 -271.253475 
L 718.929423 -270.887181 
L 718.924331 -270.520887 
L 718.92452 -270.154593 
L 718.930594 -269.788299 
L 718.94723 -269.422006 
L 718.983694 -269.055712 
L 719.052943 -268.689418 
L 719.167615 -268.323124 
L 719.332821 -267.95683 
L 719.539047 -267.590536 
L 719.760746 -267.224243 
L 719.963612 -266.857949 
L 720.116623 -266.491655 
L 720.200391 -266.125361 
L 720.207214 -265.759067 
L 720.136987 -265.392774 
L 719.996469 -265.02648 
L 719.803109 -264.660186 
L 719.586923 -264.293892 
L 719.384748 -263.927598 
L 719.229221 -263.561304 
L 719.139934 -263.195011 
L 719.121203 -262.828717 
L 719.164806 -262.462423 
L 719.254 -262.096129 
L 719.367795 -261.729835 
L 719.486659 -261.363541 
L 719.599459 -260.997248 
L 719.708519 -260.630954 
L 719.829194 -260.26466 
L 719.982827 -259.898366 
L 720.184797 -259.532072 
L 720.43159 -259.165779 
L 720.693443 -258.799485 
L 720.920208 -258.433191 
L 721.063066 -258.066897 
L 721.102593 -257.700603 
L 721.063572 -257.334309 
L 721.001354 -256.968016 
L 720.965387 -256.601722 
L 720.967332 -256.235428 
L 720.982406 -255.869134 
L 720.987078 -255.50284 
L 721.003497 -255.136546 
L 721.110916 -254.770253 
L 721.408747 -254.403959 
L 721.955634 -254.037665 
L 722.730687 -253.671371 
L 723.648345 -253.305077 
L 724.618791 -252.938784 
L 725.612688 -252.57249 
L 726.687906 -252.206196 
L 727.965856 -251.839902 
L 729.5803 -251.473608 
L 731.635522 -251.107314 
L 734.19871 -250.741021 
L 737.327769 -250.374727 
L 741.115452 -250.008433 
L 745.71935 -249.642139 
L 751.348224 -249.275845 
L 758.193775 -248.909551 
L 766.329758 -248.543258 
L 775.626449 -248.176964 
L 785.72281 -247.81067 
L 796.060068 -247.444376 
L 805.940188 -247.078082 
L 814.569351 -246.711789 
L 821.085867 -246.345495 
L 824.616 -245.979201 
L 824.402224 -245.612907 
L 819.997616 -245.246613 
L 811.457877 -244.880319 
L 799.43973 -244.514026 
L 785.145134 -244.147732 
L 770.108767 -243.781438 
L 755.881095 -243.415144 
L 743.699067 -243.04885 
L 734.252612 -242.682556 
L 727.628319 -242.316263 
L 723.437397 -241.949969 
L 721.051171 -241.583675 
L 719.831088 -241.217381 
z
" style="stroke: #595959; stroke-width: 1.25"/>
    </defs>
    <g clip-path="url(#p86f87f3c07)">
     <use xlink:href="#m4989a7039f" x="0" y="432" style="fill: #95a3c3; stroke: #595959; stroke-width: 1.25"/>
    </g>
   </g>
   <g id="line2d_9">
    <path d="M 190.44 358.24326 
L 190.44 359.784827 
" clip-path="url(#p86f87f3c07)" style="fill: none; stroke: #000000"/>
   </g>
   <g id="line2d_10">
    <path d="M 190.44 356.113189 
L 190.44 353.035262 
" clip-path="url(#p86f87f3c07)" style="fill: none; stroke: #000000"/>
   </g>
   <g id="line2d_11">
    <path d="M 180.531 359.784827 
L 200.349 359.784827 
" clip-path="url(#p86f87f3c07)" style="fill: none; stroke: #000000; stroke-linecap: round"/>
   </g>
   <g id="line2d_12">
    <path d="M 180.531 353.035262 
L 200.349 353.035262 
" clip-path="url(#p86f87f3c07)" style="fill: none; stroke: #000000; stroke-linecap: round"/>
   </g>
   <g id="line2d_13">
    <path d="M 454.68 217.840865 
L 454.68 221.293768 
" clip-path="url(#p86f87f3c07)" style="fill: none; stroke: #000000"/>
   </g>
   <g id="line2d_14">
    <path d="M 454.68 206.331192 
L 454.68 189.774969 
" clip-path="url(#p86f87f3c07)" style="fill: none; stroke: #000000"/>
   </g>
   <g id="line2d_15">
    <path d="M 444.771 221.293768 
L 464.589 221.293768 
" clip-path="url(#p86f87f3c07)" style="fill: none; stroke: #000000; stroke-linecap: round"/>
   </g>
   <g id="line2d_16">
    <path d="M 444.771 189.774969 
L 464.589 189.774969 
" clip-path="url(#p86f87f3c07)" style="fill: none; stroke: #000000; stroke-linecap: round"/>
   </g>
   <g id="line2d_17">
    <path d="M 718.92 186.837659 
L 718.92 188.670874 
" clip-path="url(#p86f87f3c07)" style="fill: none; stroke: #000000"/>
   </g>
   <g id="line2d_18">
    <path d="M 718.92 184.254492 
L 718.92 180.379742 
" clip-path="url(#p86f87f3c07)" style="fill: none; stroke: #000000"/>
   </g>
   <g id="line2d_19">
    <path d="M 709.011 188.670874 
L 728.829 188.670874 
" clip-path="url(#p86f87f3c07)" style="fill: none; stroke: #000000; stroke-linecap: round"/>
   </g>
   <g id="line2d_20">
    <path d="M 709.011 180.379742 
L 728.829 180.379742 
" clip-path="url(#p86f87f3c07)" style="fill: none; stroke: #000000; stroke-linecap: round"/>
   </g>
   <g id="line2d_21">
    <path d="M 170.622 357.139164 
L 210.258 357.139164 
" clip-path="url(#p86f87f3c07)" style="fill: none; stroke: #ff0000; stroke-width: 2"/>
   </g>
   <g id="line2d_22">
    <path d="M 434.862 214.044236 
L 474.498 214.044236 
" clip-path="url(#p86f87f3c07)" style="fill: none; stroke: #ff0000; stroke-width: 2"/>
   </g>
   <g id="line2d_23">
    <path d="M 699.102 185.764811 
L 738.738 185.764811 
" clip-path="url(#p86f87f3c07)" style="fill: none; stroke: #ff0000; stroke-width: 2"/>
   </g>
   <g id="patch_3">
    <path d="M 58.32 377.237044 
L 58.32 27.6 
" style="fill: none; stroke: #cccccc; stroke-width: 1.25; stroke-linejoin: miter; stroke-linecap: square"/>
   </g>
   <g id="patch_4">
    <path d="M 851.04 377.237044 
L 851.04 27.6 
" style="fill: none; stroke: #cccccc; stroke-width: 1.25; stroke-linejoin: miter; stroke-linecap: square"/>
   </g>
   <g id="patch_5">
    <path d="M 58.32 377.237044 
L 851.04 377.237044 
" style="fill: none; stroke: #cccccc; stroke-width: 1.25; stroke-linejoin: miter; stroke-linecap: square"/>
   </g>
   <g id="patch_6">
    <path d="M 58.32 27.6 
L 851.04 27.6 
" style="fill: none; stroke: #cccccc; stroke-width: 1.25; stroke-linejoin: miter; stroke-linecap: square"/>
   </g>
   <g id="text_13">
    <!-- Handshake duration on TLS with secp521r1 signature algorithm — ideal conditions -->
    <g style="fill: #262626" transform="translate(205.733437 21.6) scale(0.12 -0.12)">
     <defs>
      <path id="DejaVuSans-54" d="M -19 4666 
L 3928 4666 
L 3928 4134 
L 2272 4134 
L 2272 0 
L 1638 0 
L 1638 4134 
L -19 4134 
L -19 4666 
z
" transform="scale(0.015625)"/>
      <path id="DejaVuSans-4c" d="M 628 4666 
L 1259 4666 
L 1259 531 
L 3531 531 
L 3531 0 
L 628 0 
L 628 4666 
z
" transform="scale(0.015625)"/>
      <path id="DejaVuSans-53" d="M 3425 4513 
L 3425 3897 
Q 3066 4069 2747 4153 
Q 2428 4238 2131 4238 
Q 1616 4238 1336 4038 
Q 1056 3838 1056 3469 
Q 1056 3159 1242 3001 
Q 1428 2844 1947 2747 
L 2328 2669 
Q 3034 2534 3370 2195 
Q 3706 1856 3706 1288 
Q 3706 609 3251 259 
Q 2797 -91 1919 -91 
Q 1588 -91 1214 -16 
Q 841 59 441 206 
L 441 856 
Q 825 641 1194 531 
Q 1563 422 1919 422 
Q 2459 422 2753 634 
Q 3047 847 3047 1241 
Q 3047 1584 2836 1778 
Q 2625 1972 2144 2069 
L 1759 2144 
Q 1053 2284 737 2584 
Q 422 2884 422 3419 
Q 422 4038 858 4394 
Q 1294 4750 2059 4750 
Q 2388 4750 2728 4690 
Q 3069 4631 3425 4513 
z
" transform="scale(0.015625)"/>
      <path id="DejaVuSans-77" d="M 269 3500 
L 844 3500 
L 1563 769 
L 2278 3500 
L 2956 3500 
L 3675 769 
L 4391 3500 
L 4966 3500 
L 4050 0 
L 3372 0 
L 2619 2869 
L 1863 0 
L 1184 0 
L 269 3500 
z
" transform="scale(0.015625)"/>
      <path id="DejaVuSans-67" d="M 2906 1791 
Q 2906 2416 2648 2759 
Q 2391 3103 1925 3103 
Q 1463 3103 1205 2759 
Q 947 2416 947 1791 
Q 947 1169 1205 825 
Q 1463 481 1925 481 
Q 2391 481 2648 825 
Q 2906 1169 2906 1791 
z
M 3481 434 
Q 3481 -459 3084 -895 
Q 2688 -1331 1869 -1331 
Q 1566 -1331 1297 -1286 
Q 1028 -1241 775 -1147 
L 775 -588 
Q 1028 -725 1275 -790 
Q 1522 -856 1778 -856 
Q 2344 -856 2625 -561 
Q 2906 -266 2906 331 
L 2906 616 
Q 2728 306 2450 153 
Q 2172 0 1784 0 
Q 1141 0 747 490 
Q 353 981 353 1791 
Q 353 2603 747 3093 
Q 1141 3584 1784 3584 
Q 2172 3584 2450 3431 
Q 2728 3278 2906 2969 
L 2906 3500 
L 3481 3500 
L 3481 434 
z
" transform="scale(0.015625)"/>
      <path id="DejaVuSans-6c" d="M 603 4863 
L 1178 4863 
L 1178 0 
L 603 0 
L 603 4863 
z
" transform="scale(0.015625)"/>
      <path id="DejaVuSans-2014" d="M 313 1978 
L 6088 1978 
L 6088 1528 
L 313 1528 
L 313 1978 
z
" transform="scale(0.015625)"/>
     </defs>
     <use xlink:href="#DejaVuSans-48"/>
     <use xlink:href="#DejaVuSans-61" x="75.195312"/>
     <use xlink:href="#DejaVuSans-6e" x="136.474609"/>
     <use xlink:href="#DejaVuSans-64" x="199.853516"/>
     <use xlink:href="#DejaVuSans-73" x="263.330078"/>
     <use xlink:href="#DejaVuSans-68" x="315.429688"/>
     <use xlink:href="#DejaVuSans-61" x="378.808594"/>
     <use xlink:href="#DejaVuSans-6b" x="440.087891"/>
     <use xlink:href="#DejaVuSans-65" x="494.373047"/>
     <use xlink:href="#DejaVuSans-20" x="555.896484"/>
     <use xlink:href="#DejaVuSans-64" x="587.683594"/>
     <use xlink:href="#DejaVuSans-75" x="651.160156"/>
     <use xlink:href="#DejaVuSans-72" x="714.539062"/>
     <use xlink:href="#DejaVuSans-61" x="755.652344"/>
     <use xlink:href="#DejaVuSans-74" x="816.931641"/>
     <use xlink:href="#DejaVuSans-69" x="856.140625"/>
     <use xlink:href="#DejaVuSans-6f" x="883.923828"/>
     <use xlink:href="#DejaVuSans-6e" x="945.105469"/>
     <use xlink:href="#DejaVuSans-20" x="1008.484375"/>
     <use xlink:href="#DejaVuSans-6f" x="1040.271484"/>
     <use xlink:href="#DejaVuSans-6e" x="1101.453125"/>
     <use xlink:href="#DejaVuSans-20" x="1164.832031"/>
     <use xlink:href="#DejaVuSans-54" x="1196.619141"/>
     <use xlink:href="#DejaVuSans-4c" x="1257.703125"/>
     <use xlink:href="#DejaVuSans-53" x="1313.416016"/>
     <use xlink:href="#DejaVuSans-20" x="1376.892578"/>
     <use xlink:href="#DejaVuSans-77" x="1408.679688"/>
     <use xlink:href="#DejaVuSans-69" x="1490.466797"/>
     <use xlink:href="#DejaVuSans-74" x="1518.25"/>
     <use xlink:href="#DejaVuSans-68" x="1557.458984"/>
     <use xlink:href="#DejaVuSans-20" x="1620.837891"/>
     <use xlink:href="#DejaVuSans-73" x="1652.625"/>
     <use xlink:href="#DejaVuSans-65" x="1704.724609"/>
     <use xlink:href="#DejaVuSans-63" x="1766.248047"/>
     <use xlink:href="#DejaVuSans-70" x="1821.228516"/>
     <use xlink:href="#DejaVuSans-35" x="1884.705078"/>
     <use xlink:href="#DejaVuSans-32" x="1948.328125"/>
     <use xlink:href="#DejaVuSans-31" x="2011.951172"/>
     <use xlink:href="#DejaVuSans-72" x="2075.574219"/>
     <use xlink:href="#DejaVuSans-31" x="2116.6875"/>
     <use xlink:href="#DejaVuSans-20" x="2180.310547"/>
     <use xlink:href="#DejaVuSans-73" x="2212.097656"/>
     <use xlink:href="#DejaVuSans-69" x="2264.197266"/>
     <use xlink:href="#DejaVuSans-67" x="2291.980469"/>
     <use xlink:href="#DejaVuSans-6e" x="2355.457031"/>
     <use xlink:href="#DejaVuSans-61" x="2418.835938"/>
     <use xlink:href="#DejaVuSans-74" x="2480.115234"/>
     <use xlink:href="#DejaVuSans-75" x="2519.324219"/>
     <use xlink:href="#DejaVuSans-72" x="2582.703125"/>
     <use xlink:href="#DejaVuSans-65" x="2621.566406"/>
     <use xlink:href="#DejaVuSans-20" x="2683.089844"/>
     <use xlink:href="#DejaVuSans-61" x="2714.876953"/>
     <use xlink:href="#DejaVuSans-6c" x="2776.15625"/>
     <use xlink:href="#DejaVuSans-67" x="2803.939453"/>
     <use xlink:href="#DejaVuSans-6f" x="2867.416016"/>
     <use xlink:href="#DejaVuSans-72" x="2928.597656"/>
     <use xlink:href="#DejaVuSans-69" x="2969.710938"/>
     <use xlink:href="#DejaVuSans-74" x="2997.494141"/>
     <use xlink:href="#DejaVuSans-68" x="3036.703125"/>
     <use xlink:href="#DejaVuSans-6d" x="3100.082031"/>
     <use xlink:href="#DejaVuSans-20" x="3197.494141"/>
     <use xlink:href="#DejaVuSans-2014" x="3229.28125"/>
     <use xlink:href="#DejaVuSans-20" x="3329.28125"/>
     <use xlink:href="#DejaVuSans-69" x="3361.068359"/>
     <use xlink:href="#DejaVuSans-64" x="3388.851562"/>
     <use xlink:href="#DejaVuSans-65" x="3452.328125"/>
     <use xlink:href="#DejaVuSans-61" x="3513.851562"/>
     <use xlink:href="#DejaVuSans-6c" x="3575.130859"/>
     <use xlink:href="#DejaVuSans-20" x="3602.914062"/>
     <use xlink:href="#DejaVuSans-63" x="3634.701172"/>
     <use xlink:href="#DejaVuSans-6f" x="3689.681641"/>
     <use xlink:href="#DejaVuSans-6e" x="3750.863281"/>
     <use xlink:href="#DejaVuSans-64" x="3814.242188"/>
     <use xlink:href="#DejaVuSans-69" x="3877.71875"/>
     <use xlink:href="#DejaVuSans-74" x="3905.501953"/>
     <use xlink:href="#DejaVuSans-69" x="3944.710938"/>
     <use xlink:href="#DejaVuSans-6f" x="3972.494141"/>
     <use xlink:href="#DejaVuSans-6e" x="4033.675781"/>
     <use xlink:href="#DejaVuSans-73" x="4097.054688"/>
    </g>
   </g>
  </g>
 </g>
 <defs>
  <clipPath id="p86f87f3c07">
   <rect x="58.32" y="27.6" width="792.72" height="349.637044"/>
  </clipPath>
 </defs>
</svg>
