<?xml version="1.0" encoding="utf-8" standalone="no"?>
<!DOCTYPE svg PUBLIC "-//W3C//DTD SVG 1.1//EN"
  "http://www.w3.org/Graphics/SVG/1.1/DTD/svg11.dtd">
<svg xmlns:xlink="http://www.w3.org/1999/xlink" width="864pt" height="432pt" viewBox="0 0 864 432" xmlns="http://www.w3.org/2000/svg" version="1.1">
 <metadata>
  <rdf:RDF xmlns:dc="http://purl.org/dc/elements/1.1/" xmlns:cc="http://creativecommons.org/ns#" xmlns:rdf="http://www.w3.org/1999/02/22-rdf-syntax-ns#">
   <cc:Work>
    <dc:type rdf:resource="http://purl.org/dc/dcmitype/StillImage"/>
    <dc:date>2026-03-21T14:06:19.714127</dc:date>
    <dc:format>image/svg+xml</dc:format>
    <dc:creator>
     <cc:Agent>
      <dc:title>Matplotlib v3.6.3, https://matplotlib.org/</dc:title>
     </cc:Agent>
    </dc:creator>
   </cc:Work>
  </rdf:RDF>
 </metadata>
 <defs>
  <style type="text/css">*{stroke-linejoin: round; stroke-linecap: butt}</style>
 </defs>
 <g id="figure_1">
  <g id="patch_1">
   <path d="M 0 432 
L 864 432 
L 864 0 
L 0 0 
z
" style="fill: #ffffff"/>
  </g>
  <g id="axes_1">
   <g id="patch_2">
    <path d="M 58.32 377.237044 
L 851.04 377.237044 
L 851.04 27.6 
L 58.32 27.6 
z
" style="fill: #ffffff"/>
   </g>
   <g id="matplotlib.axis_1">
    <g id="xtick_1">
     <g id="text_1">
      <!-- P-384 -->
      <g style="fill: #262626" transform="translate(103.911421 404.396088) rotate(-15) scale(0.12 -0.12)">
       <defs>
        <path id="DejaVuSans-50" d="M 1259 4147 
L 1259 2394 
L 2053 2394 
Q 2494 2394 2734 2622 
Q 2975 2850 2975 3272 
Q 2975 3691 2734 3919 
Q 2494 4147 2053 4147 
L 1259 4147 
z
M 628 4666 
L 2053 4666 
Q 2838 4666 3239 4311 
Q 3641 3956 3641 3272 
Q 3641 2581 3239 2228 
Q 2838 1875 2053 1875 
L 1259 1875 
L 1259 0 
L 628 0 
L 628 4666 
z
" transform="scale(0.015625)"/>
        <path id="DejaVuSans-2d" d="M 313 2009 
L 1997 2009 
L 1997 1497 
L 313 1497 
L 313 2009 
z
" transform="scale(0.015625)"/>
        <path id="DejaVuSans-33" d="M 2597 2516 
Q 3050 2419 3304 2112 
Q 3559 1806 3559 1356 
Q 3559 666 3084 287 
Q 2609 -91 1734 -91 
Q 1441 -91 1130 -33 
Q 819 25 488 141 
L 488 750 
Q 750 597 1062 519 
Q 1375 441 1716 441 
Q 2309 441 2620 675 
Q 2931 909 2931 1356 
Q 2931 1769 2642 2001 
Q 2353 2234 1838 2234 
L 1294 2234 
L 1294 2753 
L 1863 2753 
Q 2328 2753 2575 2939 
Q 2822 3125 2822 3475 
Q 2822 3834 2567 4026 
Q 2313 4219 1838 4219 
Q 1578 4219 1281 4162 
Q 984 4106 628 3988 
L 628 4550 
Q 988 4650 1302 4700 
Q 1616 4750 1894 4750 
Q 2613 4750 3031 4423 
Q 3450 4097 3450 3541 
Q 3450 3153 3228 2886 
Q 3006 2619 2597 2516 
z
" transform="scale(0.015625)"/>
        <path id="DejaVuSans-38" d="M 2034 2216 
Q 1584 2216 1326 1975 
Q 1069 1734 1069 1313 
Q 1069 891 1326 650 
Q 1584 409 2034 409 
Q 2484 409 2743 651 
Q 3003 894 3003 1313 
Q 3003 1734 2745 1975 
Q 2488 2216 2034 2216 
z
M 1403 2484 
Q 997 2584 770 2862 
Q 544 3141 544 3541 
Q 544 4100 942 4425 
Q 1341 4750 2034 4750 
Q 2731 4750 3128 4425 
Q 3525 4100 3525 3541 
Q 3525 3141 3298 2862 
Q 3072 2584 2669 2484 
Q 3125 2378 3379 2068 
Q 3634 1759 3634 1313 
Q 3634 634 3220 271 
Q 2806 -91 2034 -91 
Q 1263 -91 848 271 
Q 434 634 434 1313 
Q 434 1759 690 2068 
Q 947 2378 1403 2484 
z
M 1172 3481 
Q 1172 3119 1398 2916 
Q 1625 2713 2034 2713 
Q 2441 2713 2670 2916 
Q 2900 3119 2900 3481 
Q 2900 3844 2670 4047 
Q 2441 4250 2034 4250 
Q 1625 4250 1398 4047 
Q 1172 3844 1172 3481 
z
" transform="scale(0.015625)"/>
        <path id="DejaVuSans-34" d="M 2419 4116 
L 825 1625 
L 2419 1625 
L 2419 4116 
z
M 2253 4666 
L 3047 4666 
L 3047 1625 
L 3713 1625 
L 3713 1100 
L 3047 1100 
L 3047 0 
L 2419 0 
L 2419 1100 
L 313 1100 
L 313 1709 
L 2253 4666 
z
" transform="scale(0.015625)"/>
       </defs>
       <use xlink:href="#DejaVuSans-50"/>
       <use xlink:href="#DejaVuSans-2d" x="58.052734"/>
       <use xlink:href="#DejaVuSans-33" x="94.136719"/>
       <use xlink:href="#DejaVuSans-38" x="157.759766"/>
       <use xlink:href="#DejaVuSans-34" x="221.382812"/>
      </g>
     </g>
    </g>
    <g id="xtick_2">
     <g id="text_2">
      <!-- x448 -->
      <g style="fill: #262626" transform="translate(266.505065 403.310989) rotate(-15) scale(0.12 -0.12)">
       <defs>
        <path id="DejaVuSans-78" d="M 3513 3500 
L 2247 1797 
L 3578 0 
L 2900 0 
L 1881 1375 
L 863 0 
L 184 0 
L 1544 1831 
L 300 3500 
L 978 3500 
L 1906 2253 
L 2834 3500 
L 3513 3500 
z
" transform="scale(0.015625)"/>
       </defs>
       <use xlink:href="#DejaVuSans-78"/>
       <use xlink:href="#DejaVuSans-34" x="59.179688"/>
       <use xlink:href="#DejaVuSans-34" x="122.802734"/>
       <use xlink:href="#DejaVuSans-38" x="186.425781"/>
      </g>
     </g>
    </g>
    <g id="xtick_3">
     <g id="text_3">
      <!-- hqc192 -->
      <g style="fill: #262626" transform="translate(410.831845 407.120482) rotate(-15) scale(0.12 -0.12)">
       <defs>
        <path id="DejaVuSans-68" d="M 3513 2113 
L 3513 0 
L 2938 0 
L 2938 2094 
Q 2938 2591 2744 2837 
Q 2550 3084 2163 3084 
Q 1697 3084 1428 2787 
Q 1159 2491 1159 1978 
L 1159 0 
L 581 0 
L 581 4863 
L 1159 4863 
L 1159 2956 
Q 1366 3272 1645 3428 
Q 1925 3584 2291 3584 
Q 2894 3584 3203 3211 
Q 3513 2838 3513 2113 
z
" transform="scale(0.015625)"/>
        <path id="DejaVuSans-71" d="M 947 1747 
Q 947 1113 1208 752 
Q 1469 391 1925 391 
Q 2381 391 2643 752 
Q 2906 1113 2906 1747 
Q 2906 2381 2643 2742 
Q 2381 3103 1925 3103 
Q 1469 3103 1208 2742 
Q 947 2381 947 1747 
z
M 2906 525 
Q 2725 213 2448 61 
Q 2172 -91 1784 -91 
Q 1150 -91 751 415 
Q 353 922 353 1747 
Q 353 2572 751 3078 
Q 1150 3584 1784 3584 
Q 2172 3584 2448 3432 
Q 2725 3281 2906 2969 
L 2906 3500 
L 3481 3500 
L 3481 -1331 
L 2906 -1331 
L 2906 525 
z
" transform="scale(0.015625)"/>
        <path id="DejaVuSans-63" d="M 3122 3366 
L 3122 2828 
Q 2878 2963 2633 3030 
Q 2388 3097 2138 3097 
Q 1578 3097 1268 2742 
Q 959 2388 959 1747 
Q 959 1106 1268 751 
Q 1578 397 2138 397 
Q 2388 397 2633 464 
Q 2878 531 3122 666 
L 3122 134 
Q 2881 22 2623 -34 
Q 2366 -91 2075 -91 
Q 1284 -91 818 406 
Q 353 903 353 1747 
Q 353 2603 823 3093 
Q 1294 3584 2113 3584 
Q 2378 3584 2631 3529 
Q 2884 3475 3122 3366 
z
" transform="scale(0.015625)"/>
        <path id="DejaVuSans-31" d="M 794 531 
L 1825 531 
L 1825 4091 
L 703 3866 
L 703 4441 
L 1819 4666 
L 2450 4666 
L 2450 531 
L 3481 531 
L 3481 0 
L 794 0 
L 794 531 
z
" transform="scale(0.015625)"/>
        <path id="DejaVuSans-39" d="M 703 97 
L 703 672 
Q 941 559 1184 500 
Q 1428 441 1663 441 
Q 2288 441 2617 861 
Q 2947 1281 2994 2138 
Q 2813 1869 2534 1725 
Q 2256 1581 1919 1581 
Q 1219 1581 811 2004 
Q 403 2428 403 3163 
Q 403 3881 828 4315 
Q 1253 4750 1959 4750 
Q 2769 4750 3195 4129 
Q 3622 3509 3622 2328 
Q 3622 1225 3098 567 
Q 2575 -91 1691 -91 
Q 1453 -91 1209 -44 
Q 966 3 703 97 
z
M 1959 2075 
Q 2384 2075 2632 2365 
Q 2881 2656 2881 3163 
Q 2881 3666 2632 3958 
Q 2384 4250 1959 4250 
Q 1534 4250 1286 3958 
Q 1038 3666 1038 3163 
Q 1038 2656 1286 2365 
Q 1534 2075 1959 2075 
z
" transform="scale(0.015625)"/>
        <path id="DejaVuSans-32" d="M 1228 531 
L 3431 531 
L 3431 0 
L 469 0 
L 469 531 
Q 828 903 1448 1529 
Q 2069 2156 2228 2338 
Q 2531 2678 2651 2914 
Q 2772 3150 2772 3378 
Q 2772 3750 2511 3984 
Q 2250 4219 1831 4219 
Q 1534 4219 1204 4116 
Q 875 4013 500 3803 
L 500 4441 
Q 881 4594 1212 4672 
Q 1544 4750 1819 4750 
Q 2544 4750 2975 4387 
Q 3406 4025 3406 3419 
Q 3406 3131 3298 2873 
Q 3191 2616 2906 2266 
Q 2828 2175 2409 1742 
Q 1991 1309 1228 531 
z
" transform="scale(0.015625)"/>
       </defs>
       <use xlink:href="#DejaVuSans-68"/>
       <use xlink:href="#DejaVuSans-71" x="63.378906"/>
       <use xlink:href="#DejaVuSans-63" x="126.855469"/>
       <use xlink:href="#DejaVuSans-31" x="181.835938"/>
       <use xlink:href="#DejaVuSans-39" x="245.458984"/>
       <use xlink:href="#DejaVuSans-32" x="309.082031"/>
      </g>
     </g>
    </g>
    <g id="xtick_4">
     <g id="text_4">
      <!-- p384_hqc192 -->
      <g style="fill: #262626" transform="translate(534.010834 416.573362) rotate(-15) scale(0.12 -0.12)">
       <defs>
        <path id="DejaVuSans-70" d="M 1159 525 
L 1159 -1331 
L 581 -1331 
L 581 3500 
L 1159 3500 
L 1159 2969 
Q 1341 3281 1617 3432 
Q 1894 3584 2278 3584 
Q 2916 3584 3314 3078 
Q 3713 2572 3713 1747 
Q 3713 922 3314 415 
Q 2916 -91 2278 -91 
Q 1894 -91 1617 61 
Q 1341 213 1159 525 
z
M 3116 1747 
Q 3116 2381 2855 2742 
Q 2594 3103 2138 3103 
Q 1681 3103 1420 2742 
Q 1159 2381 1159 1747 
Q 1159 1113 1420 752 
Q 1681 391 2138 391 
Q 2594 391 2855 752 
Q 3116 1113 3116 1747 
z
" transform="scale(0.015625)"/>
        <path id="DejaVuSans-5f" d="M 3263 -1063 
L 3263 -1509 
L -63 -1509 
L -63 -1063 
L 3263 -1063 
z
" transform="scale(0.015625)"/>
       </defs>
       <use xlink:href="#DejaVuSans-70"/>
       <use xlink:href="#DejaVuSans-33" x="63.476562"/>
       <use xlink:href="#DejaVuSans-38" x="127.099609"/>
       <use xlink:href="#DejaVuSans-34" x="190.722656"/>
       <use xlink:href="#DejaVuSans-5f" x="254.345703"/>
       <use xlink:href="#DejaVuSans-68" x="304.345703"/>
       <use xlink:href="#DejaVuSans-71" x="367.724609"/>
       <use xlink:href="#DejaVuSans-63" x="431.201172"/>
       <use xlink:href="#DejaVuSans-31" x="486.181641"/>
       <use xlink:href="#DejaVuSans-39" x="549.804688"/>
       <use xlink:href="#DejaVuSans-32" x="613.427734"/>
      </g>
     </g>
    </g>
    <g id="xtick_5">
     <g id="text_5">
      <!-- x448_hqc192 -->
      <g style="fill: #262626" transform="translate(693.05289 416.439909) rotate(-15) scale(0.12 -0.12)">
       <use xlink:href="#DejaVuSans-78"/>
       <use xlink:href="#DejaVuSans-34" x="59.179688"/>
       <use xlink:href="#DejaVuSans-34" x="122.802734"/>
       <use xlink:href="#DejaVuSans-38" x="186.425781"/>
       <use xlink:href="#DejaVuSans-5f" x="250.048828"/>
       <use xlink:href="#DejaVuSans-68" x="300.048828"/>
       <use xlink:href="#DejaVuSans-71" x="363.427734"/>
       <use xlink:href="#DejaVuSans-63" x="426.904297"/>
       <use xlink:href="#DejaVuSans-31" x="481.884766"/>
       <use xlink:href="#DejaVuSans-39" x="545.507812"/>
       <use xlink:href="#DejaVuSans-32" x="609.130859"/>
      </g>
     </g>
    </g>
   </g>
   <g id="matplotlib.axis_2">
    <g id="ytick_1">
     <g id="line2d_1">
      <path d="M 58.32 367.24012 
L 851.04 367.24012 
" clip-path="url(#p7783827c23)" style="fill: none; stroke: #cccccc; stroke-linecap: round"/>
     </g>
     <g id="text_6">
      <!-- 0 -->
      <g style="fill: #262626" transform="translate(41.82125 371.41926) scale(0.11 -0.11)">
       <defs>
        <path id="DejaVuSans-30" d="M 2034 4250 
Q 1547 4250 1301 3770 
Q 1056 3291 1056 2328 
Q 1056 1369 1301 889 
Q 1547 409 2034 409 
Q 2525 409 2770 889 
Q 3016 1369 3016 2328 
Q 3016 3291 2770 3770 
Q 2525 4250 2034 4250 
z
M 2034 4750 
Q 2819 4750 3233 4129 
Q 3647 3509 3647 2328 
Q 3647 1150 3233 529 
Q 2819 -91 2034 -91 
Q 1250 -91 836 529 
Q 422 1150 422 2328 
Q 422 3509 836 4129 
Q 1250 4750 2034 4750 
z
" transform="scale(0.015625)"/>
       </defs>
       <use xlink:href="#DejaVuSans-30"/>
      </g>
     </g>
    </g>
    <g id="ytick_2">
     <g id="line2d_2">
      <path d="M 58.32 315.867892 
L 851.04 315.867892 
" clip-path="url(#p7783827c23)" style="fill: none; stroke: #cccccc; stroke-linecap: round"/>
     </g>
     <g id="text_7">
      <!-- 50 -->
      <g style="fill: #262626" transform="translate(34.8225 320.047032) scale(0.11 -0.11)">
       <defs>
        <path id="DejaVuSans-35" d="M 691 4666 
L 3169 4666 
L 3169 4134 
L 1269 4134 
L 1269 2991 
Q 1406 3038 1543 3061 
Q 1681 3084 1819 3084 
Q 2600 3084 3056 2656 
Q 3513 2228 3513 1497 
Q 3513 744 3044 326 
Q 2575 -91 1722 -91 
Q 1428 -91 1123 -41 
Q 819 9 494 109 
L 494 744 
Q 775 591 1075 516 
Q 1375 441 1709 441 
Q 2250 441 2565 725 
Q 2881 1009 2881 1497 
Q 2881 1984 2565 2268 
Q 2250 2553 1709 2553 
Q 1456 2553 1204 2497 
Q 953 2441 691 2322 
L 691 4666 
z
" transform="scale(0.015625)"/>
       </defs>
       <use xlink:href="#DejaVuSans-35"/>
       <use xlink:href="#DejaVuSans-30" x="63.623047"/>
      </g>
     </g>
    </g>
    <g id="ytick_3">
     <g id="line2d_3">
      <path d="M 58.32 264.495664 
L 851.04 264.495664 
" clip-path="url(#p7783827c23)" style="fill: none; stroke: #cccccc; stroke-linecap: round"/>
     </g>
     <g id="text_8">
      <!-- 100 -->
      <g style="fill: #262626" transform="translate(27.82375 268.674804) scale(0.11 -0.11)">
       <use xlink:href="#DejaVuSans-31"/>
       <use xlink:href="#DejaVuSans-30" x="63.623047"/>
       <use xlink:href="#DejaVuSans-30" x="127.246094"/>
      </g>
     </g>
    </g>
    <g id="ytick_4">
     <g id="line2d_4">
      <path d="M 58.32 213.123436 
L 851.04 213.123436 
" clip-path="url(#p7783827c23)" style="fill: none; stroke: #cccccc; stroke-linecap: round"/>
     </g>
     <g id="text_9">
      <!-- 150 -->
      <g style="fill: #262626" transform="translate(27.82375 217.302576) scale(0.11 -0.11)">
       <use xlink:href="#DejaVuSans-31"/>
       <use xlink:href="#DejaVuSans-35" x="63.623047"/>
       <use xlink:href="#DejaVuSans-30" x="127.246094"/>
      </g>
     </g>
    </g>
    <g id="ytick_5">
     <g id="line2d_5">
      <path d="M 58.32 161.751207 
L 851.04 161.751207 
" clip-path="url(#p7783827c23)" style="fill: none; stroke: #cccccc; stroke-linecap: round"/>
     </g>
     <g id="text_10">
      <!-- 200 -->
      <g style="fill: #262626" transform="translate(27.82375 165.930348) scale(0.11 -0.11)">
       <use xlink:href="#DejaVuSans-32"/>
       <use xlink:href="#DejaVuSans-30" x="63.623047"/>
       <use xlink:href="#DejaVuSans-30" x="127.246094"/>
      </g>
     </g>
    </g>
    <g id="ytick_6">
     <g id="line2d_6">
      <path d="M 58.32 110.378979 
L 851.04 110.378979 
" clip-path="url(#p7783827c23)" style="fill: none; stroke: #cccccc; stroke-linecap: round"/>
     </g>
     <g id="text_11">
      <!-- 250 -->
      <g style="fill: #262626" transform="translate(27.82375 114.55812) scale(0.11 -0.11)">
       <use xlink:href="#DejaVuSans-32"/>
       <use xlink:href="#DejaVuSans-35" x="63.623047"/>
       <use xlink:href="#DejaVuSans-30" x="127.246094"/>
      </g>
     </g>
    </g>
    <g id="ytick_7">
     <g id="line2d_7">
      <path d="M 58.32 59.006751 
L 851.04 59.006751 
" clip-path="url(#p7783827c23)" style="fill: none; stroke: #cccccc; stroke-linecap: round"/>
     </g>
     <g id="text_12">
      <!-- 300 -->
      <g style="fill: #262626" transform="translate(27.82375 63.185892) scale(0.11 -0.11)">
       <use xlink:href="#DejaVuSans-33"/>
       <use xlink:href="#DejaVuSans-30" x="63.623047"/>
       <use xlink:href="#DejaVuSans-30" x="127.246094"/>
      </g>
     </g>
    </g>
    <g id="text_13">
     <!-- Handshake duration (ms) -->
     <g style="fill: #262626" transform="translate(21.328125 278.486335) rotate(-90) scale(0.12 -0.12)">
      <defs>
       <path id="DejaVuSans-48" d="M 628 4666 
L 1259 4666 
L 1259 2753 
L 3553 2753 
L 3553 4666 
L 4184 4666 
L 4184 0 
L 3553 0 
L 3553 2222 
L 1259 2222 
L 1259 0 
L 628 0 
L 628 4666 
z
" transform="scale(0.015625)"/>
       <path id="DejaVuSans-61" d="M 2194 1759 
Q 1497 1759 1228 1600 
Q 959 1441 959 1056 
Q 959 750 1161 570 
Q 1363 391 1709 391 
Q 2188 391 2477 730 
Q 2766 1069 2766 1631 
L 2766 1759 
L 2194 1759 
z
M 3341 1997 
L 3341 0 
L 2766 0 
L 2766 531 
Q 2569 213 2275 61 
Q 1981 -91 1556 -91 
Q 1019 -91 701 211 
Q 384 513 384 1019 
Q 384 1609 779 1909 
Q 1175 2209 1959 2209 
L 2766 2209 
L 2766 2266 
Q 2766 2663 2505 2880 
Q 2244 3097 1772 3097 
Q 1472 3097 1187 3025 
Q 903 2953 641 2809 
L 641 3341 
Q 956 3463 1253 3523 
Q 1550 3584 1831 3584 
Q 2591 3584 2966 3190 
Q 3341 2797 3341 1997 
z
" transform="scale(0.015625)"/>
       <path id="DejaVuSans-6e" d="M 3513 2113 
L 3513 0 
L 2938 0 
L 2938 2094 
Q 2938 2591 2744 2837 
Q 2550 3084 2163 3084 
Q 1697 3084 1428 2787 
Q 1159 2491 1159 1978 
L 1159 0 
L 581 0 
L 581 3500 
L 1159 3500 
L 1159 2956 
Q 1366 3272 1645 3428 
Q 1925 3584 2291 3584 
Q 2894 3584 3203 3211 
Q 3513 2838 3513 2113 
z
" transform="scale(0.015625)"/>
       <path id="DejaVuSans-64" d="M 2906 2969 
L 2906 4863 
L 3481 4863 
L 3481 0 
L 2906 0 
L 2906 525 
Q 2725 213 2448 61 
Q 2172 -91 1784 -91 
Q 1150 -91 751 415 
Q 353 922 353 1747 
Q 353 2572 751 3078 
Q 1150 3584 1784 3584 
Q 2172 3584 2448 3432 
Q 2725 3281 2906 2969 
z
M 947 1747 
Q 947 1113 1208 752 
Q 1469 391 1925 391 
Q 2381 391 2643 752 
Q 2906 1113 2906 1747 
Q 2906 2381 2643 2742 
Q 2381 3103 1925 3103 
Q 1469 3103 1208 2742 
Q 947 2381 947 1747 
z
" transform="scale(0.015625)"/>
       <path id="DejaVuSans-73" d="M 2834 3397 
L 2834 2853 
Q 2591 2978 2328 3040 
Q 2066 3103 1784 3103 
Q 1356 3103 1142 2972 
Q 928 2841 928 2578 
Q 928 2378 1081 2264 
Q 1234 2150 1697 2047 
L 1894 2003 
Q 2506 1872 2764 1633 
Q 3022 1394 3022 966 
Q 3022 478 2636 193 
Q 2250 -91 1575 -91 
Q 1294 -91 989 -36 
Q 684 19 347 128 
L 347 722 
Q 666 556 975 473 
Q 1284 391 1588 391 
Q 1994 391 2212 530 
Q 2431 669 2431 922 
Q 2431 1156 2273 1281 
Q 2116 1406 1581 1522 
L 1381 1569 
Q 847 1681 609 1914 
Q 372 2147 372 2553 
Q 372 3047 722 3315 
Q 1072 3584 1716 3584 
Q 2034 3584 2315 3537 
Q 2597 3491 2834 3397 
z
" transform="scale(0.015625)"/>
       <path id="DejaVuSans-6b" d="M 581 4863 
L 1159 4863 
L 1159 1991 
L 2875 3500 
L 3609 3500 
L 1753 1863 
L 3688 0 
L 2938 0 
L 1159 1709 
L 1159 0 
L 581 0 
L 581 4863 
z
" transform="scale(0.015625)"/>
       <path id="DejaVuSans-65" d="M 3597 1894 
L 3597 1613 
L 953 1613 
Q 991 1019 1311 708 
Q 1631 397 2203 397 
Q 2534 397 2845 478 
Q 3156 559 3463 722 
L 3463 178 
Q 3153 47 2828 -22 
Q 2503 -91 2169 -91 
Q 1331 -91 842 396 
Q 353 884 353 1716 
Q 353 2575 817 3079 
Q 1281 3584 2069 3584 
Q 2775 3584 3186 3129 
Q 3597 2675 3597 1894 
z
M 3022 2063 
Q 3016 2534 2758 2815 
Q 2500 3097 2075 3097 
Q 1594 3097 1305 2825 
Q 1016 2553 972 2059 
L 3022 2063 
z
" transform="scale(0.015625)"/>
       <path id="DejaVuSans-20" transform="scale(0.015625)"/>
       <path id="DejaVuSans-75" d="M 544 1381 
L 544 3500 
L 1119 3500 
L 1119 1403 
Q 1119 906 1312 657 
Q 1506 409 1894 409 
Q 2359 409 2629 706 
Q 2900 1003 2900 1516 
L 2900 3500 
L 3475 3500 
L 3475 0 
L 2900 0 
L 2900 538 
Q 2691 219 2414 64 
Q 2138 -91 1772 -91 
Q 1169 -91 856 284 
Q 544 659 544 1381 
z
M 1991 3584 
L 1991 3584 
z
" transform="scale(0.015625)"/>
       <path id="DejaVuSans-72" d="M 2631 2963 
Q 2534 3019 2420 3045 
Q 2306 3072 2169 3072 
Q 1681 3072 1420 2755 
Q 1159 2438 1159 1844 
L 1159 0 
L 581 0 
L 581 3500 
L 1159 3500 
L 1159 2956 
Q 1341 3275 1631 3429 
Q 1922 3584 2338 3584 
Q 2397 3584 2469 3576 
Q 2541 3569 2628 3553 
L 2631 2963 
z
" transform="scale(0.015625)"/>
       <path id="DejaVuSans-74" d="M 1172 4494 
L 1172 3500 
L 2356 3500 
L 2356 3053 
L 1172 3053 
L 1172 1153 
Q 1172 725 1289 603 
Q 1406 481 1766 481 
L 2356 481 
L 2356 0 
L 1766 0 
Q 1100 0 847 248 
Q 594 497 594 1153 
L 594 3053 
L 172 3053 
L 172 3500 
L 594 3500 
L 594 4494 
L 1172 4494 
z
" transform="scale(0.015625)"/>
       <path id="DejaVuSans-69" d="M 603 3500 
L 1178 3500 
L 1178 0 
L 603 0 
L 603 3500 
z
M 603 4863 
L 1178 4863 
L 1178 4134 
L 603 4134 
L 603 4863 
z
" transform="scale(0.015625)"/>
       <path id="DejaVuSans-6f" d="M 1959 3097 
Q 1497 3097 1228 2736 
Q 959 2375 959 1747 
Q 959 1119 1226 758 
Q 1494 397 1959 397 
Q 2419 397 2687 759 
Q 2956 1122 2956 1747 
Q 2956 2369 2687 2733 
Q 2419 3097 1959 3097 
z
M 1959 3584 
Q 2709 3584 3137 3096 
Q 3566 2609 3566 1747 
Q 3566 888 3137 398 
Q 2709 -91 1959 -91 
Q 1206 -91 779 398 
Q 353 888 353 1747 
Q 353 2609 779 3096 
Q 1206 3584 1959 3584 
z
" transform="scale(0.015625)"/>
       <path id="DejaVuSans-28" d="M 1984 4856 
Q 1566 4138 1362 3434 
Q 1159 2731 1159 2009 
Q 1159 1288 1364 580 
Q 1569 -128 1984 -844 
L 1484 -844 
Q 1016 -109 783 600 
Q 550 1309 550 2009 
Q 550 2706 781 3412 
Q 1013 4119 1484 4856 
L 1984 4856 
z
" transform="scale(0.015625)"/>
       <path id="DejaVuSans-6d" d="M 3328 2828 
Q 3544 3216 3844 3400 
Q 4144 3584 4550 3584 
Q 5097 3584 5394 3201 
Q 5691 2819 5691 2113 
L 5691 0 
L 5113 0 
L 5113 2094 
Q 5113 2597 4934 2840 
Q 4756 3084 4391 3084 
Q 3944 3084 3684 2787 
Q 3425 2491 3425 1978 
L 3425 0 
L 2847 0 
L 2847 2094 
Q 2847 2600 2669 2842 
Q 2491 3084 2119 3084 
Q 1678 3084 1418 2786 
Q 1159 2488 1159 1978 
L 1159 0 
L 581 0 
L 581 3500 
L 1159 3500 
L 1159 2956 
Q 1356 3278 1631 3431 
Q 1906 3584 2284 3584 
Q 2666 3584 2933 3390 
Q 3200 3197 3328 2828 
z
" transform="scale(0.015625)"/>
       <path id="DejaVuSans-29" d="M 513 4856 
L 1013 4856 
Q 1481 4119 1714 3412 
Q 1947 2706 1947 2009 
Q 1947 1309 1714 600 
Q 1481 -109 1013 -844 
L 513 -844 
Q 928 -128 1133 580 
Q 1338 1288 1338 2009 
Q 1338 2731 1133 3434 
Q 928 4138 513 4856 
z
" transform="scale(0.015625)"/>
      </defs>
      <use xlink:href="#DejaVuSans-48"/>
      <use xlink:href="#DejaVuSans-61" x="75.195312"/>
      <use xlink:href="#DejaVuSans-6e" x="136.474609"/>
      <use xlink:href="#DejaVuSans-64" x="199.853516"/>
      <use xlink:href="#DejaVuSans-73" x="263.330078"/>
      <use xlink:href="#DejaVuSans-68" x="315.429688"/>
      <use xlink:href="#DejaVuSans-61" x="378.808594"/>
      <use xlink:href="#DejaVuSans-6b" x="440.087891"/>
      <use xlink:href="#DejaVuSans-65" x="494.373047"/>
      <use xlink:href="#DejaVuSans-20" x="555.896484"/>
      <use xlink:href="#DejaVuSans-64" x="587.683594"/>
      <use xlink:href="#DejaVuSans-75" x="651.160156"/>
      <use xlink:href="#DejaVuSans-72" x="714.539062"/>
      <use xlink:href="#DejaVuSans-61" x="755.652344"/>
      <use xlink:href="#DejaVuSans-74" x="816.931641"/>
      <use xlink:href="#DejaVuSans-69" x="856.140625"/>
      <use xlink:href="#DejaVuSans-6f" x="883.923828"/>
      <use xlink:href="#DejaVuSans-6e" x="945.105469"/>
      <use xlink:href="#DejaVuSans-20" x="1008.484375"/>
      <use xlink:href="#DejaVuSans-28" x="1040.271484"/>
      <use xlink:href="#DejaVuSans-6d" x="1079.285156"/>
      <use xlink:href="#DejaVuSans-73" x="1176.697266"/>
      <use xlink:href="#DejaVuSans-29" x="1228.796875"/>
     </g>
    </g>
   </g>
   <g id="PolyCollection_1">
    <defs>
     <path id="mdfb5cef5b0" d="M 137.691163 -74.102618 
L 137.492837 -74.102618 
L 137.419697 -74.454685 
L 137.307299 -74.806753 
L 137.14399 -75.15882 
L 136.919394 -75.510887 
L 136.626553 -75.862955 
L 136.263763 -76.215022 
L 135.835412 -76.567089 
L 135.351407 -76.919156 
L 134.825259 -77.271224 
L 134.271518 -77.623291 
L 133.703637 -77.975358 
L 133.133273 -78.327425 
L 132.57149 -78.679493 
L 132.031372 -79.03156 
L 131.530664 -79.383627 
L 131.092651 -79.735695 
L 130.743926 -80.087762 
L 130.508925 -80.439829 
L 130.402726 -80.791896 
L 130.424794 -81.143964 
L 130.556424 -81.496031 
L 130.763439 -81.848098 
L 131.003583 -82.200166 
L 131.236151 -82.552233 
L 131.430527 -82.9043 
L 131.570943 -83.256367 
L 131.65652 -83.608435 
L 131.697631 -83.960502 
L 131.71084 -84.312569 
L 131.714678 -84.664636 
L 131.727415 -85.016704 
L 131.766472 -85.368771 
L 131.848033 -85.720838 
L 131.985283 -86.072906 
L 132.184547 -86.424973 
L 132.439902 -86.77704 
L 132.727728 -87.129107 
L 133.002643 -87.481175 
L 133.195423 -87.833242 
L 133.212609 -88.185309 
L 132.937481 -88.537377 
L 132.233288 -88.889444 
L 130.951332 -89.241511 
L 128.947162 -89.593578 
L 126.106461 -89.945646 
L 122.37781 -90.297713 
L 117.804155 -90.64978 
L 112.541232 -91.001847 
L 106.852054 -91.353915 
L 101.072883 -91.705982 
L 95.555807 -92.058049 
L 90.602511 -92.410117 
L 86.408587 -92.762184 
L 83.035642 -93.114251 
L 80.420022 -93.466318 
L 78.415519 -93.818386 
L 76.857099 -94.170453 
L 75.626696 -94.52252 
L 74.702015 -94.874587 
L 74.1744 -95.226655 
L 74.230671 -95.578722 
L 75.103821 -95.930789 
L 77.006154 -96.282857 
L 80.063394 -96.634924 
L 84.267939 -96.986991 
L 89.463821 -97.339058 
L 95.366683 -97.691126 
L 101.612134 -98.043193 
L 107.818479 -98.39526 
L 113.647129 -98.747328 
L 118.846622 -99.099395 
L 123.272671 -99.451462 
L 126.884386 -99.803529 
L 129.723093 -100.155597 
L 131.883063 -100.507664 
L 133.482881 -100.859731 
L 134.643105 -101.211798 
L 135.472209 -101.563866 
L 136.059925 -101.915933 
L 136.4758 -102.268 
L 136.770732 -102.620068 
L 136.979928 -102.972135 
L 137.126452 -103.324202 
L 137.224925 -103.676269 
L 137.285049 -104.028337 
L 137.314574 -104.380404 
L 137.321323 -104.732471 
L 137.314018 -105.084538 
L 137.301923 -105.436606 
L 137.293635 -105.788673 
L 137.295602 -106.14074 
L 137.310995 -106.492808 
L 137.339405 -106.844875 
L 137.377461 -107.196942 
L 137.420141 -107.549009 
L 137.462278 -107.901077 
L 137.49978 -108.253144 
L 137.530271 -108.605211 
L 137.5531 -108.957279 
L 137.6309 -108.957279 
L 137.6309 -108.957279 
L 137.653729 -108.605211 
L 137.68422 -108.253144 
L 137.721722 -107.901077 
L 137.763859 -107.549009 
L 137.806539 -107.196942 
L 137.844595 -106.844875 
L 137.873005 -106.492808 
L 137.888398 -106.14074 
L 137.890365 -105.788673 
L 137.882077 -105.436606 
L 137.869982 -105.084538 
L 137.862677 -104.732471 
L 137.869426 -104.380404 
L 137.898951 -104.028337 
L 137.959075 -103.676269 
L 138.057548 -103.324202 
L 138.204072 -102.972135 
L 138.413268 -102.620068 
L 138.7082 -102.268 
L 139.124075 -101.915933 
L 139.711791 -101.563866 
L 140.540895 -101.211798 
L 141.701119 -100.859731 
L 143.300937 -100.507664 
L 145.460907 -100.155597 
L 148.299614 -99.803529 
L 151.911329 -99.451462 
L 156.337378 -99.099395 
L 161.536871 -98.747328 
L 167.365521 -98.39526 
L 173.571866 -98.043193 
L 179.817317 -97.691126 
L 185.720179 -97.339058 
L 190.916061 -96.986991 
L 195.120606 -96.634924 
L 198.177846 -96.282857 
L 200.080179 -95.930789 
L 200.953329 -95.578722 
L 201.0096 -95.226655 
L 200.481985 -94.874587 
L 199.557304 -94.52252 
L 198.326901 -94.170453 
L 196.768481 -93.818386 
L 194.763978 -93.466318 
L 192.148358 -93.114251 
L 188.775413 -92.762184 
L 184.581489 -92.410117 
L 179.628193 -92.058049 
L 174.111117 -91.705982 
L 168.331946 -91.353915 
L 162.642768 -91.001847 
L 157.379845 -90.64978 
L 152.80619 -90.297713 
L 149.077539 -89.945646 
L 146.236838 -89.593578 
L 144.232668 -89.241511 
L 142.950712 -88.889444 
L 142.246519 -88.537377 
L 141.971391 -88.185309 
L 141.988577 -87.833242 
L 142.181357 -87.481175 
L 142.456272 -87.129107 
L 142.744098 -86.77704 
L 142.999453 -86.424973 
L 143.198717 -86.072906 
L 143.335967 -85.720838 
L 143.417528 -85.368771 
L 143.456585 -85.016704 
L 143.469322 -84.664636 
L 143.47316 -84.312569 
L 143.486369 -83.960502 
L 143.52748 -83.608435 
L 143.613057 -83.256367 
L 143.753473 -82.9043 
L 143.947849 -82.552233 
L 144.180417 -82.200166 
L 144.420561 -81.848098 
L 144.627576 -81.496031 
L 144.759206 -81.143964 
L 144.781274 -80.791896 
L 144.675075 -80.439829 
L 144.440074 -80.087762 
L 144.091349 -79.735695 
L 143.653336 -79.383627 
L 143.152628 -79.03156 
L 142.61251 -78.679493 
L 142.050727 -78.327425 
L 141.480363 -77.975358 
L 140.912482 -77.623291 
L 140.358741 -77.271224 
L 139.832593 -76.919156 
L 139.348588 -76.567089 
L 138.920237 -76.215022 
L 138.557447 -75.862955 
L 138.264606 -75.510887 
L 138.04001 -75.15882 
L 137.876701 -74.806753 
L 137.764303 -74.454685 
L 137.691163 -74.102618 
z
" style="stroke: #595959; stroke-width: 1.25"/>
    </defs>
    <g clip-path="url(#p7783827c23)">
     <use xlink:href="#mdfb5cef5b0" x="0" y="432" style="fill: #72b6a1; stroke: #595959; stroke-width: 1.25"/>
    </g>
   </g>
   <g id="PolyCollection_2">
    <defs>
     <path id="m6650c6798a" d="M 296.182655 -70.655549 
L 296.089345 -70.655549 
L 296.052927 -70.869482 
L 295.993765 -71.083415 
L 295.901021 -71.297348 
L 295.760536 -71.511281 
L 295.555147 -71.725213 
L 295.266373 -71.939146 
L 294.878039 -72.153079 
L 294.381852 -72.367012 
L 293.783842 -72.580945 
L 293.109496 -72.794878 
L 292.404901 -73.008811 
L 291.732055 -73.222744 
L 291.158426 -73.436677 
L 290.743263 -73.65061 
L 290.524613 -73.864543 
L 290.510869 -74.078476 
L 290.678829 -74.292408 
L 290.977946 -74.506341 
L 291.338804 -74.720274 
L 291.683598 -74.934207 
L 291.937189 -75.14814 
L 292.038122 -75.362073 
L 291.949042 -75.576006 
L 291.664946 -75.789939 
L 291.216599 -76.003872 
L 290.666407 -76.217805 
L 290.095883 -76.431738 
L 289.587206 -76.645671 
L 289.204556 -76.859603 
L 288.981829 -77.073536 
L 288.921023 -77.287469 
L 289.000863 -77.501402 
L 289.190555 -77.715335 
L 289.461632 -77.929268 
L 289.792374 -78.143201 
L 290.163336 -78.357134 
L 290.546583 -78.571067 
L 290.893494 -78.785 
L 291.126033 -78.998933 
L 291.135068 -79.212866 
L 290.787844 -79.426798 
L 289.945246 -79.640731 
L 288.487545 -79.854664 
L 286.34426 -80.068597 
L 283.520021 -80.28253 
L 280.105861 -80.496463 
L 276.266777 -80.710396 
L 272.203183 -80.924329 
L 268.094846 -81.138262 
L 264.046726 -81.352195 
L 260.060915 -81.566128 
L 256.053071 -81.780061 
L 251.915366 -81.993994 
L 247.606861 -82.207926 
L 243.235892 -82.421859 
L 239.096797 -82.635792 
L 235.638192 -82.849725 
L 233.366882 -83.063658 
L 232.7184 -83.277591 
L 233.939336 -83.491524 
L 237.021561 -83.705457 
L 241.706963 -83.91939 
L 247.554341 -84.133323 
L 254.039827 -84.347256 
L 260.656412 -84.561189 
L 266.986311 -84.775121 
L 272.735633 -84.989054 
L 277.735609 -85.202987 
L 281.922894 -85.41692 
L 285.312199 -85.630853 
L 287.970221 -85.844786 
L 289.994538 -86.058719 
L 291.497405 -86.272652 
L 292.593093 -86.486585 
L 293.387823 -86.700518 
L 293.972228 -86.914451 
L 294.416826 -87.128384 
L 294.770841 -87.342316 
L 295.064175 -87.556249 
L 295.311665 -87.770182 
L 295.518369 -87.984115 
L 295.684588 -88.198048 
L 295.809727 -88.411981 
L 295.894642 -88.625914 
L 295.94264 -88.839847 
L 295.959566 -89.05378 
L 295.953378 -89.267713 
L 295.933417 -89.481646 
L 295.909392 -89.695579 
L 295.890116 -89.909511 
L 295.882175 -90.123444 
L 295.888885 -90.337377 
L 295.909959 -90.55131 
L 295.942043 -90.765243 
L 295.979988 -90.979176 
L 296.018397 -91.193109 
L 296.052932 -91.407042 
L 296.081023 -91.620975 
L 296.101908 -91.834908 
L 296.170092 -91.834908 
L 296.170092 -91.834908 
L 296.190977 -91.620975 
L 296.219068 -91.407042 
L 296.253603 -91.193109 
L 296.292012 -90.979176 
L 296.329957 -90.765243 
L 296.362041 -90.55131 
L 296.383115 -90.337377 
L 296.389825 -90.123444 
L 296.381884 -89.909511 
L 296.362608 -89.695579 
L 296.338583 -89.481646 
L 296.318622 -89.267713 
L 296.312434 -89.05378 
L 296.32936 -88.839847 
L 296.377358 -88.625914 
L 296.462273 -88.411981 
L 296.587412 -88.198048 
L 296.753631 -87.984115 
L 296.960335 -87.770182 
L 297.207825 -87.556249 
L 297.501159 -87.342316 
L 297.855174 -87.128384 
L 298.299772 -86.914451 
L 298.884177 -86.700518 
L 299.678907 -86.486585 
L 300.774595 -86.272652 
L 302.277462 -86.058719 
L 304.301779 -85.844786 
L 306.959801 -85.630853 
L 310.349106 -85.41692 
L 314.536391 -85.202987 
L 319.536367 -84.989054 
L 325.285689 -84.775121 
L 331.615588 -84.561189 
L 338.232173 -84.347256 
L 344.717659 -84.133323 
L 350.565037 -83.91939 
L 355.250439 -83.705457 
L 358.332664 -83.491524 
L 359.5536 -83.277591 
L 358.905118 -83.063658 
L 356.633808 -82.849725 
L 353.175203 -82.635792 
L 349.036108 -82.421859 
L 344.665139 -82.207926 
L 340.356634 -81.993994 
L 336.218929 -81.780061 
L 332.211085 -81.566128 
L 328.225274 -81.352195 
L 324.177154 -81.138262 
L 320.068817 -80.924329 
L 316.005223 -80.710396 
L 312.166139 -80.496463 
L 308.751979 -80.28253 
L 305.92774 -80.068597 
L 303.784455 -79.854664 
L 302.326754 -79.640731 
L 301.484156 -79.426798 
L 301.136932 -79.212866 
L 301.145967 -78.998933 
L 301.378506 -78.785 
L 301.725417 -78.571067 
L 302.108664 -78.357134 
L 302.479626 -78.143201 
L 302.810368 -77.929268 
L 303.081445 -77.715335 
L 303.271137 -77.501402 
L 303.350977 -77.287469 
L 303.290171 -77.073536 
L 303.067444 -76.859603 
L 302.684794 -76.645671 
L 302.176117 -76.431738 
L 301.605593 -76.217805 
L 301.055401 -76.003872 
L 300.607054 -75.789939 
L 300.322958 -75.576006 
L 300.233878 -75.362073 
L 300.334811 -75.14814 
L 300.588402 -74.934207 
L 300.933196 -74.720274 
L 301.294054 -74.506341 
L 301.593171 -74.292408 
L 301.761131 -74.078476 
L 301.747387 -73.864543 
L 301.528737 -73.65061 
L 301.113574 -73.436677 
L 300.539945 -73.222744 
L 299.867099 -73.008811 
L 299.162504 -72.794878 
L 298.488158 -72.580945 
L 297.890148 -72.367012 
L 297.393961 -72.153079 
L 297.005627 -71.939146 
L 296.716853 -71.725213 
L 296.511464 -71.511281 
L 296.370979 -71.297348 
L 296.278235 -71.083415 
L 296.219073 -70.869482 
L 296.182655 -70.655549 
z
" style="stroke: #595959; stroke-width: 1.25"/>
    </defs>
    <g clip-path="url(#p7783827c23)">
     <use xlink:href="#m6650c6798a" x="0" y="432" style="fill: #e99675; stroke: #595959; stroke-width: 1.25"/>
    </g>
   </g>
   <g id="PolyCollection_3">
    <defs>
     <path id="m63d2ca857f" d="M 455.439875 -109.778776 
L 453.920125 -109.778776 
L 453.424746 -112.139898 
L 452.676232 -114.50102 
L 451.587775 -116.862142 
L 450.064635 -119.223265 
L 448.013727 -121.584387 
L 445.356799 -123.945509 
L 442.045651 -126.306631 
L 438.076778 -128.667753 
L 433.502212 -131.028875 
L 428.433447 -133.389997 
L 423.036472 -135.751119 
L 417.51782 -138.112241 
L 412.103736 -140.473363 
L 407.016453 -142.834486 
L 402.452341 -145.195608 
L 398.566184 -147.55673 
L 395.464052 -149.917852 
L 393.204753 -152.278974 
L 391.807545 -154.640096 
L 391.2624 -157.001218 
L 391.539102 -159.36234 
L 392.59262 -161.723462 
L 394.364171 -164.084584 
L 396.779205 -166.445706 
L 399.744716 -168.806829 
L 403.148365 -171.167951 
L 406.861129 -173.529073 
L 410.743822 -175.890195 
L 414.656586 -178.251317 
L 418.469533 -180.612439 
L 422.072482 -182.973561 
L 425.382015 -185.334683 
L 428.344781 -187.695805 
L 430.936759 -190.056927 
L 433.159035 -192.418049 
L 435.031198 -194.779172 
L 436.583873 -197.140294 
L 437.851897 -199.501416 
L 438.869403 -201.862538 
L 439.667504 -204.22366 
L 440.274579 -206.584782 
L 440.718451 -208.945904 
L 441.029262 -211.307026 
L 441.241703 -213.668148 
L 441.395511 -216.02927 
L 441.533739 -218.390392 
L 441.699011 -220.751515 
L 441.92862 -223.112637 
L 442.249652 -225.473759 
L 442.675272 -227.834881 
L 443.203014 -230.196003 
L 443.815346 -232.557125 
L 444.482322 -234.918247 
L 445.165753 -237.279369 
L 445.824164 -239.640491 
L 446.417797 -242.001613 
L 446.913068 -244.362735 
L 447.286033 -246.723858 
L 447.524616 -249.08498 
L 447.629485 -251.446102 
L 447.613605 -253.807224 
L 447.500584 -256.168346 
L 447.322041 -258.529468 
L 447.114308 -260.89059 
L 446.914848 -263.251712 
L 446.758811 -265.612834 
L 446.67611 -267.973956 
L 446.689274 -270.335079 
L 446.812214 -272.696201 
L 447.049857 -275.057323 
L 447.398507 -277.418445 
L 447.846748 -279.779567 
L 448.376742 -282.140689 
L 448.965823 -284.501811 
L 449.588331 -286.862933 
L 450.217634 -289.224055 
L 450.828218 -291.585177 
L 451.39769 -293.946299 
L 451.908461 -296.307422 
L 452.348925 -298.668544 
L 452.713969 -301.029666 
L 453.00479 -303.390788 
L 453.228066 -305.75191 
L 453.394623 -308.113032 
L 453.517795 -310.474154 
L 453.611673 -312.835276 
L 453.689456 -315.196398 
L 453.762076 -317.55752 
L 453.837269 -319.918642 
L 453.919178 -322.279765 
L 454.008506 -324.640887 
L 454.103174 -327.002009 
L 454.199301 -329.363131 
L 454.292307 -331.724253 
L 454.37792 -334.085375 
L 454.452905 -336.446497 
L 454.515444 -338.807619 
L 454.565154 -341.168741 
L 454.602847 -343.529863 
L 454.757153 -343.529863 
L 454.757153 -343.529863 
L 454.794846 -341.168741 
L 454.844556 -338.807619 
L 454.907095 -336.446497 
L 454.98208 -334.085375 
L 455.067693 -331.724253 
L 455.160699 -329.363131 
L 455.256826 -327.002009 
L 455.351494 -324.640887 
L 455.440822 -322.279765 
L 455.522731 -319.918642 
L 455.597924 -317.55752 
L 455.670544 -315.196398 
L 455.748327 -312.835276 
L 455.842205 -310.474154 
L 455.965377 -308.113032 
L 456.131934 -305.75191 
L 456.35521 -303.390788 
L 456.646031 -301.029666 
L 457.011075 -298.668544 
L 457.451539 -296.307422 
L 457.96231 -293.946299 
L 458.531782 -291.585177 
L 459.142366 -289.224055 
L 459.771669 -286.862933 
L 460.394177 -284.501811 
L 460.983258 -282.140689 
L 461.513252 -279.779567 
L 461.961493 -277.418445 
L 462.310143 -275.057323 
L 462.547786 -272.696201 
L 462.670726 -270.335079 
L 462.68389 -267.973956 
L 462.601189 -265.612834 
L 462.445152 -263.251712 
L 462.245692 -260.89059 
L 462.037959 -258.529468 
L 461.859416 -256.168346 
L 461.746395 -253.807224 
L 461.730515 -251.446102 
L 461.835384 -249.08498 
L 462.073967 -246.723858 
L 462.446932 -244.362735 
L 462.942203 -242.001613 
L 463.535836 -239.640491 
L 464.194247 -237.279369 
L 464.877678 -234.918247 
L 465.544654 -232.557125 
L 466.156986 -230.196003 
L 466.684728 -227.834881 
L 467.110348 -225.473759 
L 467.43138 -223.112637 
L 467.660989 -220.751515 
L 467.826261 -218.390392 
L 467.964489 -216.02927 
L 468.118297 -213.668148 
L 468.330738 -211.307026 
L 468.641549 -208.945904 
L 469.085421 -206.584782 
L 469.692496 -204.22366 
L 470.490597 -201.862538 
L 471.508103 -199.501416 
L 472.776127 -197.140294 
L 474.328802 -194.779172 
L 476.200965 -192.418049 
L 478.423241 -190.056927 
L 481.015219 -187.695805 
L 483.977985 -185.334683 
L 487.287518 -182.973561 
L 490.890467 -180.612439 
L 494.703414 -178.251317 
L 498.616178 -175.890195 
L 502.498871 -173.529073 
L 506.211635 -171.167951 
L 509.615284 -168.806829 
L 512.580795 -166.445706 
L 514.995829 -164.084584 
L 516.76738 -161.723462 
L 517.820898 -159.36234 
L 518.0976 -157.001218 
L 517.552455 -154.640096 
L 516.155247 -152.278974 
L 513.895948 -149.917852 
L 510.793816 -147.55673 
L 506.907659 -145.195608 
L 502.343547 -142.834486 
L 497.256264 -140.473363 
L 491.84218 -138.112241 
L 486.323528 -135.751119 
L 480.926553 -133.389997 
L 475.857788 -131.028875 
L 471.283222 -128.667753 
L 467.314349 -126.306631 
L 464.003201 -123.945509 
L 461.346273 -121.584387 
L 459.295365 -119.223265 
L 457.772225 -116.862142 
L 456.683768 -114.50102 
L 455.935254 -112.139898 
L 455.439875 -109.778776 
z
" style="stroke: #595959; stroke-width: 1.25"/>
    </defs>
    <g clip-path="url(#p7783827c23)">
     <use xlink:href="#m63d2ca857f" x="0" y="432" style="fill: #95a3c3; stroke: #595959; stroke-width: 1.25"/>
    </g>
   </g>
   <g id="PolyCollection_4">
    <defs>
     <path id="m470c7de935" d="M 616.702092 -102.46735 
L 609.745908 -102.46735 
L 606.537142 -105.356644 
L 601.441474 -108.245937 
L 594.174207 -111.135231 
L 584.921679 -114.024524 
L 574.509178 -116.913818 
L 564.33907 -119.803111 
L 556.048043 -122.692405 
L 550.993739 -125.581698 
L 549.8064 -128.470992 
L 552.227346 -131.360285 
L 557.298428 -134.249579 
L 563.773719 -137.138872 
L 570.530179 -140.028166 
L 576.806416 -142.917459 
L 582.234005 -145.806753 
L 586.737417 -148.696046 
L 590.405888 -151.58534 
L 593.399149 -154.474633 
L 595.893669 -157.363927 
L 598.048738 -160.25322 
L 599.977454 -163.142514 
L 601.726275 -166.031807 
L 603.276207 -168.921101 
L 604.571102 -171.810394 
L 605.561595 -174.699688 
L 606.241508 -177.588981 
L 606.657218 -180.478275 
L 606.887623 -183.367568 
L 607.010957 -186.256862 
L 607.081388 -189.146155 
L 607.128779 -192.035449 
L 607.176817 -194.924742 
L 607.26138 -197.814036 
L 607.432025 -200.703329 
L 607.733023 -203.592623 
L 608.176237 -206.481916 
L 608.72491 -209.37121 
L 609.300928 -212.260503 
L 609.813588 -215.149797 
L 610.195199 -218.03909 
L 610.425694 -220.928384 
L 610.535493 -223.817677 
L 610.587713 -226.706971 
L 610.650446 -229.596264 
L 610.772505 -232.485558 
L 610.971812 -235.374851 
L 611.23788 -238.264145 
L 611.543351 -241.153438 
L 611.857179 -244.042732 
L 612.153907 -246.932025 
L 612.41725 -249.821319 
L 612.639369 -252.710612 
L 612.818378 -255.599906 
L 612.956086 -258.489199 
L 613.056636 -261.378493 
L 613.12577 -264.267786 
L 613.170161 -267.15708 
L 613.196576 -270.046373 
L 613.211029 -272.935667 
L 613.218173 -275.82496 
L 613.221082 -278.714254 
L 613.22133 -281.603547 
L 613.219173 -284.492841 
L 613.213736 -287.382134 
L 613.203249 -290.271428 
L 613.185554 -293.160721 
L 613.159027 -296.050015 
L 613.123805 -298.939308 
L 613.082726 -301.828602 
L 613.04112 -304.717895 
L 613.004943 -307.607189 
L 612.977763 -310.496482 
L 612.958271 -313.385776 
L 612.94023 -316.275069 
L 612.915711 -319.164363 
L 612.880285 -322.053656 
L 612.837219 -324.94295 
L 612.797767 -327.832243 
L 612.776799 -330.721537 
L 612.785889 -333.61083 
L 612.827686 -336.500124 
L 612.894603 -339.389418 
L 612.97216 -342.278711 
L 613.044631 -345.168005 
L 613.099863 -348.057298 
L 613.131422 -350.946592 
L 613.138332 -353.835885 
L 613.12385 -356.725179 
L 613.094447 -359.614472 
L 613.059047 -362.503766 
L 613.027786 -365.393059 
L 613.009804 -368.282353 
L 613.010604 -371.171646 
L 613.030303 -374.06094 
L 613.063897 -376.950233 
L 613.10351 -379.839527 
L 613.141443 -382.72882 
L 613.1725 -385.618114 
L 613.194752 -388.507407 
L 613.253248 -388.507407 
L 613.253248 -388.507407 
L 613.2755 -385.618114 
L 613.306557 -382.72882 
L 613.34449 -379.839527 
L 613.384103 -376.950233 
L 613.417697 -374.06094 
L 613.437396 -371.171646 
L 613.438196 -368.282353 
L 613.420214 -365.393059 
L 613.388953 -362.503766 
L 613.353553 -359.614472 
L 613.32415 -356.725179 
L 613.309668 -353.835885 
L 613.316578 -350.946592 
L 613.348137 -348.057298 
L 613.403369 -345.168005 
L 613.47584 -342.278711 
L 613.553397 -339.389418 
L 613.620314 -336.500124 
L 613.662111 -333.61083 
L 613.671201 -330.721537 
L 613.650233 -327.832243 
L 613.610781 -324.94295 
L 613.567715 -322.053656 
L 613.532289 -319.164363 
L 613.50777 -316.275069 
L 613.489729 -313.385776 
L 613.470237 -310.496482 
L 613.443057 -307.607189 
L 613.40688 -304.717895 
L 613.365274 -301.828602 
L 613.324195 -298.939308 
L 613.288973 -296.050015 
L 613.262446 -293.160721 
L 613.244751 -290.271428 
L 613.234264 -287.382134 
L 613.228827 -284.492841 
L 613.22667 -281.603547 
L 613.226918 -278.714254 
L 613.229827 -275.82496 
L 613.236971 -272.935667 
L 613.251424 -270.046373 
L 613.277839 -267.15708 
L 613.32223 -264.267786 
L 613.391364 -261.378493 
L 613.491914 -258.489199 
L 613.629622 -255.599906 
L 613.808631 -252.710612 
L 614.03075 -249.821319 
L 614.294093 -246.932025 
L 614.590821 -244.042732 
L 614.904649 -241.153438 
L 615.21012 -238.264145 
L 615.476188 -235.374851 
L 615.675495 -232.485558 
L 615.797554 -229.596264 
L 615.860287 -226.706971 
L 615.912507 -223.817677 
L 616.022306 -220.928384 
L 616.252801 -218.03909 
L 616.634412 -215.149797 
L 617.147072 -212.260503 
L 617.72309 -209.37121 
L 618.271763 -206.481916 
L 618.714977 -203.592623 
L 619.015975 -200.703329 
L 619.18662 -197.814036 
L 619.271183 -194.924742 
L 619.319221 -192.035449 
L 619.366612 -189.146155 
L 619.437043 -186.256862 
L 619.560377 -183.367568 
L 619.790782 -180.478275 
L 620.206492 -177.588981 
L 620.886405 -174.699688 
L 621.876898 -171.810394 
L 623.171793 -168.921101 
L 624.721725 -166.031807 
L 626.470546 -163.142514 
L 628.399262 -160.25322 
L 630.554331 -157.363927 
L 633.048851 -154.474633 
L 636.042112 -151.58534 
L 639.710583 -148.696046 
L 644.213995 -145.806753 
L 649.641584 -142.917459 
L 655.917821 -140.028166 
L 662.674281 -137.138872 
L 669.149572 -134.249579 
L 674.220654 -131.360285 
L 676.6416 -128.470992 
L 675.454261 -125.581698 
L 670.399957 -122.692405 
L 662.10893 -119.803111 
L 651.938822 -116.913818 
L 641.526321 -114.024524 
L 632.273793 -111.135231 
L 625.006526 -108.245937 
L 619.910858 -105.356644 
L 616.702092 -102.46735 
z
" style="stroke: #595959; stroke-width: 1.25"/>
    </defs>
    <g clip-path="url(#p7783827c23)">
     <use xlink:href="#m470c7de935" x="0" y="432" style="fill: #db96c0; stroke: #595959; stroke-width: 1.25"/>
    </g>
   </g>
   <g id="PolyCollection_5">
    <defs>
     <path id="mda492d9e1c" d="M 773.816596 -107.309639 
L 769.719404 -107.309639 
L 768.27458 -107.901859 
L 766.089741 -108.494078 
L 762.966095 -109.086297 
L 758.7484 -109.678516 
L 753.377929 -110.270735 
L 746.942923 -110.862955 
L 739.709904 -111.455174 
L 732.120405 -112.047393 
L 724.745375 -112.639612 
L 718.202156 -113.231831 
L 713.05199 -113.824051 
L 709.703963 -114.41627 
L 708.3504 -115.008489 
L 708.949077 -115.600708 
L 711.253042 -116.192928 
L 714.875323 -116.785147 
L 719.368132 -117.377366 
L 724.296158 -117.969585 
L 729.289667 -118.561804 
L 734.071846 -119.154024 
L 738.462619 -119.746243 
L 742.365998 -120.338462 
L 745.749415 -120.930681 
L 748.622263 -121.5229 
L 751.01828 -122.11512 
L 752.983559 -122.707339 
L 754.56973 -123.299558 
L 755.830613 -123.891777 
L 756.82043 -124.483996 
L 757.592284 -125.076216 
L 758.196495 -125.668435 
L 758.679048 -126.260654 
L 759.080682 -126.852873 
L 759.436805 -127.445092 
L 759.777967 -128.037312 
L 760.130239 -128.629531 
L 760.514847 -129.22175 
L 760.946872 -129.813969 
L 761.433391 -130.406188 
L 761.971939 -130.998408 
L 762.550242 -131.590627 
L 763.147833 -132.182846 
L 763.739549 -132.775065 
L 764.300292 -133.367285 
L 764.810013 -133.959504 
L 765.257767 -134.551723 
L 765.643887 -135.143942 
L 765.979736 -135.736161 
L 766.28501 -136.328381 
L 766.583177 -136.9206 
L 766.896077 -137.512819 
L 767.238959 -138.105038 
L 767.617126 -138.697257 
L 768.024954 -139.289477 
L 768.447426 -139.881696 
L 768.863718 -140.473915 
L 769.25191 -141.066134 
L 769.593723 -141.658353 
L 769.878188 -142.250573 
L 770.103451 -142.842792 
L 770.276306 -143.435011 
L 770.409606 -144.02723 
L 770.518245 -144.619449 
L 770.614842 -145.211669 
L 770.70633 -145.803888 
L 770.792435 -146.396107 
L 770.866388 -146.988326 
L 770.91757 -147.580545 
L 770.935204 -148.172765 
L 770.911997 -148.764984 
L 770.846766 -149.357203 
L 770.745436 -149.949422 
L 770.620309 -150.541641 
L 770.487887 -151.133861 
L 770.365842 -151.72608 
L 770.269857 -152.318299 
L 770.211055 -152.910518 
L 770.194573 -153.502738 
L 770.219515 -154.094957 
L 770.280158 -154.687176 
L 770.367923 -155.279395 
L 770.473463 -155.871614 
L 770.588302 -156.463834 
L 770.705726 -157.056053 
L 770.820975 -157.648272 
L 770.931006 -158.240491 
L 771.034123 -158.83271 
L 771.129664 -159.42493 
L 771.217731 -160.017149 
L 771.298899 -160.609368 
L 771.373865 -161.201587 
L 771.443082 -161.793806 
L 771.506519 -162.386026 
L 771.563652 -162.978245 
L 771.613676 -163.570464 
L 771.655862 -164.162683 
L 771.689878 -164.754902 
L 771.715971 -165.347122 
L 771.734948 -165.939341 
L 771.801052 -165.939341 
L 771.801052 -165.939341 
L 771.820029 -165.347122 
L 771.846122 -164.754902 
L 771.880138 -164.162683 
L 771.922324 -163.570464 
L 771.972348 -162.978245 
L 772.029481 -162.386026 
L 772.092918 -161.793806 
L 772.162135 -161.201587 
L 772.237101 -160.609368 
L 772.318269 -160.017149 
L 772.406336 -159.42493 
L 772.501877 -158.83271 
L 772.604994 -158.240491 
L 772.715025 -157.648272 
L 772.830274 -157.056053 
L 772.947698 -156.463834 
L 773.062537 -155.871614 
L 773.168077 -155.279395 
L 773.255842 -154.687176 
L 773.316485 -154.094957 
L 773.341427 -153.502738 
L 773.324945 -152.910518 
L 773.266143 -152.318299 
L 773.170158 -151.72608 
L 773.048113 -151.133861 
L 772.915691 -150.541641 
L 772.790564 -149.949422 
L 772.689234 -149.357203 
L 772.624003 -148.764984 
L 772.600796 -148.172765 
L 772.61843 -147.580545 
L 772.669612 -146.988326 
L 772.743565 -146.396107 
L 772.82967 -145.803888 
L 772.921158 -145.211669 
L 773.017755 -144.619449 
L 773.126394 -144.02723 
L 773.259694 -143.435011 
L 773.432549 -142.842792 
L 773.657812 -142.250573 
L 773.942277 -141.658353 
L 774.28409 -141.066134 
L 774.672282 -140.473915 
L 775.088574 -139.881696 
L 775.511046 -139.289477 
L 775.918874 -138.697257 
L 776.297041 -138.105038 
L 776.639923 -137.512819 
L 776.952823 -136.9206 
L 777.25099 -136.328381 
L 777.556264 -135.736161 
L 777.892113 -135.143942 
L 778.278233 -134.551723 
L 778.725987 -133.959504 
L 779.235708 -133.367285 
L 779.796451 -132.775065 
L 780.388167 -132.182846 
L 780.985758 -131.590627 
L 781.564061 -130.998408 
L 782.102609 -130.406188 
L 782.589128 -129.813969 
L 783.021153 -129.22175 
L 783.405761 -128.629531 
L 783.758033 -128.037312 
L 784.099195 -127.445092 
L 784.455318 -126.852873 
L 784.856952 -126.260654 
L 785.339505 -125.668435 
L 785.943716 -125.076216 
L 786.71557 -124.483996 
L 787.705387 -123.891777 
L 788.96627 -123.299558 
L 790.552441 -122.707339 
L 792.51772 -122.11512 
L 794.913737 -121.5229 
L 797.786585 -120.930681 
L 801.170002 -120.338462 
L 805.073381 -119.746243 
L 809.464154 -119.154024 
L 814.246333 -118.561804 
L 819.239842 -117.969585 
L 824.167868 -117.377366 
L 828.660677 -116.785147 
L 832.282958 -116.192928 
L 834.586923 -115.600708 
L 835.1856 -115.008489 
L 833.832037 -114.41627 
L 830.48401 -113.824051 
L 825.333844 -113.231831 
L 818.790625 -112.639612 
L 811.415595 -112.047393 
L 803.826096 -111.455174 
L 796.593077 -110.862955 
L 790.158071 -110.270735 
L 784.7876 -109.678516 
L 780.569905 -109.086297 
L 777.446259 -108.494078 
L 775.26142 -107.901859 
L 773.816596 -107.309639 
z
" style="stroke: #595959; stroke-width: 1.25"/>
    </defs>
    <g clip-path="url(#p7783827c23)">
     <use xlink:href="#mda492d9e1c" x="0" y="432" style="fill: #a2c865; stroke: #595959; stroke-width: 1.25"/>
    </g>
   </g>
   <g id="line2d_8">
    <path d="M 137.592 339.627547 
L 137.592 345.530216 
" clip-path="url(#p7783827c23)" style="fill: none; stroke: #000000"/>
   </g>
   <g id="line2d_9">
    <path d="M 137.592 335.677023 
L 137.592 330.991876 
" clip-path="url(#p7783827c23)" style="fill: none; stroke: #000000"/>
   </g>
   <g id="line2d_10">
    <path d="M 131.6466 345.530216 
L 143.5374 345.530216 
" clip-path="url(#p7783827c23)" style="fill: none; stroke: #000000; stroke-linecap: round"/>
   </g>
   <g id="line2d_11">
    <path d="M 131.6466 330.991876 
L 143.5374 330.991876 
" clip-path="url(#p7783827c23)" style="fill: none; stroke: #000000; stroke-linecap: round"/>
   </g>
   <g id="line2d_12">
    <path d="M 296.136 350.598086 
L 296.136 353.914164 
" clip-path="url(#p7783827c23)" style="fill: none; stroke: #000000"/>
   </g>
   <g id="line2d_13">
    <path d="M 296.136 348.386512 
L 296.136 345.376099 
" clip-path="url(#p7783827c23)" style="fill: none; stroke: #000000"/>
   </g>
   <g id="line2d_14">
    <path d="M 290.1906 353.914164 
L 302.0814 353.914164 
" clip-path="url(#p7783827c23)" style="fill: none; stroke: #000000; stroke-linecap: round"/>
   </g>
   <g id="line2d_15">
    <path d="M 290.1906 345.376099 
L 302.0814 345.376099 
" clip-path="url(#p7783827c23)" style="fill: none; stroke: #000000; stroke-linecap: round"/>
   </g>
   <g id="line2d_16">
    <path d="M 454.68 280.695896 
L 454.68 298.802037 
" clip-path="url(#p7783827c23)" style="fill: none; stroke: #000000"/>
   </g>
   <g id="line2d_17">
    <path d="M 454.68 238.894314 
L 454.68 178.344437 
" clip-path="url(#p7783827c23)" style="fill: none; stroke: #000000"/>
   </g>
   <g id="line2d_18">
    <path d="M 448.7346 298.802037 
L 460.6254 298.802037 
" clip-path="url(#p7783827c23)" style="fill: none; stroke: #000000; stroke-linecap: round"/>
   </g>
   <g id="line2d_19">
    <path d="M 448.7346 178.344437 
L 460.6254 178.344437 
" clip-path="url(#p7783827c23)" style="fill: none; stroke: #000000; stroke-linecap: round"/>
   </g>
   <g id="line2d_20">
    <path d="M 613.224 307.201397 
L 613.224 310.669022 
" clip-path="url(#p7783827c23)" style="fill: none; stroke: #000000"/>
   </g>
   <g id="line2d_21">
    <path d="M 613.224 282.257611 
L 613.224 244.994766 
" clip-path="url(#p7783827c23)" style="fill: none; stroke: #000000"/>
   </g>
   <g id="line2d_22">
    <path d="M 607.2786 310.669022 
L 619.1694 310.669022 
" clip-path="url(#p7783827c23)" style="fill: none; stroke: #000000; stroke-linecap: round"/>
   </g>
   <g id="line2d_23">
    <path d="M 607.2786 244.994766 
L 619.1694 244.994766 
" clip-path="url(#p7783827c23)" style="fill: none; stroke: #000000; stroke-linecap: round"/>
   </g>
   <g id="line2d_24">
    <path d="M 771.768 317.760958 
L 771.768 319.576966 
" clip-path="url(#p7783827c23)" style="fill: none; stroke: #000000"/>
   </g>
   <g id="line2d_25">
    <path d="M 771.768 309.677538 
L 771.768 298.000631 
" clip-path="url(#p7783827c23)" style="fill: none; stroke: #000000"/>
   </g>
   <g id="line2d_26">
    <path d="M 765.8226 319.576966 
L 777.7134 319.576966 
" clip-path="url(#p7783827c23)" style="fill: none; stroke: #000000; stroke-linecap: round"/>
   </g>
   <g id="line2d_27">
    <path d="M 765.8226 298.000631 
L 777.7134 298.000631 
" clip-path="url(#p7783827c23)" style="fill: none; stroke: #000000; stroke-linecap: round"/>
   </g>
   <g id="line2d_28">
    <path d="M 125.7012 337.613756 
L 149.4828 337.613756 
" clip-path="url(#p7783827c23)" style="fill: none; stroke: #ff0000; stroke-width: 2"/>
   </g>
   <g id="line2d_29">
    <path d="M 284.2452 349.028665 
L 308.0268 349.028665 
" clip-path="url(#p7783827c23)" style="fill: none; stroke: #ff0000; stroke-width: 2"/>
   </g>
   <g id="line2d_30">
    <path d="M 442.7892 266.293692 
L 466.5708 266.293692 
" clip-path="url(#p7783827c23)" style="fill: none; stroke: #ff0000; stroke-width: 2"/>
   </g>
   <g id="line2d_31">
    <path d="M 601.3332 300.70281 
L 625.1148 300.70281 
" clip-path="url(#p7783827c23)" style="fill: none; stroke: #ff0000; stroke-width: 2"/>
   </g>
   <g id="line2d_32">
    <path d="M 759.8772 315.277111 
L 783.6588 315.277111 
" clip-path="url(#p7783827c23)" style="fill: none; stroke: #ff0000; stroke-width: 2"/>
   </g>
   <g id="patch_3">
    <path d="M 58.32 377.237044 
L 58.32 27.6 
" style="fill: none; stroke: #cccccc; stroke-width: 1.25; stroke-linejoin: miter; stroke-linecap: square"/>
   </g>
   <g id="patch_4">
    <path d="M 851.04 377.237044 
L 851.04 27.6 
" style="fill: none; stroke: #cccccc; stroke-width: 1.25; stroke-linejoin: miter; stroke-linecap: square"/>
   </g>
   <g id="patch_5">
    <path d="M 58.32 377.237044 
L 851.04 377.237044 
" style="fill: none; stroke: #cccccc; stroke-width: 1.25; stroke-linejoin: miter; stroke-linecap: square"/>
   </g>
   <g id="patch_6">
    <path d="M 58.32 27.6 
L 851.04 27.6 
" style="fill: none; stroke: #cccccc; stroke-width: 1.25; stroke-linejoin: miter; stroke-linecap: square"/>
   </g>
   <g id="text_14">
    <!-- Handshake duration on TLS with secp384r1 signature algorithm — ideal conditions -->
    <g style="fill: #262626" transform="translate(205.733437 21.6) scale(0.12 -0.12)">
     <defs>
      <path id="DejaVuSans-54" d="M -19 4666 
L 3928 4666 
L 3928 4134 
L 2272 4134 
L 2272 0 
L 1638 0 
L 1638 4134 
L -19 4134 
L -19 4666 
z
" transform="scale(0.015625)"/>
      <path id="DejaVuSans-4c" d="M 628 4666 
L 1259 4666 
L 1259 531 
L 3531 531 
L 3531 0 
L 628 0 
L 628 4666 
z
" transform="scale(0.015625)"/>
      <path id="DejaVuSans-53" d="M 3425 4513 
L 3425 3897 
Q 3066 4069 2747 4153 
Q 2428 4238 2131 4238 
Q 1616 4238 1336 4038 
Q 1056 3838 1056 3469 
Q 1056 3159 1242 3001 
Q 1428 2844 1947 2747 
L 2328 2669 
Q 3034 2534 3370 2195 
Q 3706 1856 3706 1288 
Q 3706 609 3251 259 
Q 2797 -91 1919 -91 
Q 1588 -91 1214 -16 
Q 841 59 441 206 
L 441 856 
Q 825 641 1194 531 
Q 1563 422 1919 422 
Q 2459 422 2753 634 
Q 3047 847 3047 1241 
Q 3047 1584 2836 1778 
Q 2625 1972 2144 2069 
L 1759 2144 
Q 1053 2284 737 2584 
Q 422 2884 422 3419 
Q 422 4038 858 4394 
Q 1294 4750 2059 4750 
Q 2388 4750 2728 4690 
Q 3069 4631 3425 4513 
z
" transform="scale(0.015625)"/>
      <path id="DejaVuSans-77" d="M 269 3500 
L 844 3500 
L 1563 769 
L 2278 3500 
L 2956 3500 
L 3675 769 
L 4391 3500 
L 4966 3500 
L 4050 0 
L 3372 0 
L 2619 2869 
L 1863 0 
L 1184 0 
L 269 3500 
z
" transform="scale(0.015625)"/>
      <path id="DejaVuSans-67" d="M 2906 1791 
Q 2906 2416 2648 2759 
Q 2391 3103 1925 3103 
Q 1463 3103 1205 2759 
Q 947 2416 947 1791 
Q 947 1169 1205 825 
Q 1463 481 1925 481 
Q 2391 481 2648 825 
Q 2906 1169 2906 1791 
z
M 3481 434 
Q 3481 -459 3084 -895 
Q 2688 -1331 1869 -1331 
Q 1566 -1331 1297 -1286 
Q 1028 -1241 775 -1147 
L 775 -588 
Q 1028 -725 1275 -790 
Q 1522 -856 1778 -856 
Q 2344 -856 2625 -561 
Q 2906 -266 2906 331 
L 2906 616 
Q 2728 306 2450 153 
Q 2172 0 1784 0 
Q 1141 0 747 490 
Q 353 981 353 1791 
Q 353 2603 747 3093 
Q 1141 3584 1784 3584 
Q 2172 3584 2450 3431 
Q 2728 3278 2906 2969 
L 2906 3500 
L 3481 3500 
L 3481 434 
z
" transform="scale(0.015625)"/>
      <path id="DejaVuSans-6c" d="M 603 4863 
L 1178 4863 
L 1178 0 
L 603 0 
L 603 4863 
z
" transform="scale(0.015625)"/>
      <path id="DejaVuSans-2014" d="M 313 1978 
L 6088 1978 
L 6088 1528 
L 313 1528 
L 313 1978 
z
" transform="scale(0.015625)"/>
     </defs>
     <use xlink:href="#DejaVuSans-48"/>
     <use xlink:href="#DejaVuSans-61" x="75.195312"/>
     <use xlink:href="#DejaVuSans-6e" x="136.474609"/>
     <use xlink:href="#DejaVuSans-64" x="199.853516"/>
     <use xlink:href="#DejaVuSans-73" x="263.330078"/>
     <use xlink:href="#DejaVuSans-68" x="315.429688"/>
     <use xlink:href="#DejaVuSans-61" x="378.808594"/>
     <use xlink:href="#DejaVuSans-6b" x="440.087891"/>
     <use xlink:href="#DejaVuSans-65" x="494.373047"/>
     <use xlink:href="#DejaVuSans-20" x="555.896484"/>
     <use xlink:href="#DejaVuSans-64" x="587.683594"/>
     <use xlink:href="#DejaVuSans-75" x="651.160156"/>
     <use xlink:href="#DejaVuSans-72" x="714.539062"/>
     <use xlink:href="#DejaVuSans-61" x="755.652344"/>
     <use xlink:href="#DejaVuSans-74" x="816.931641"/>
     <use xlink:href="#DejaVuSans-69" x="856.140625"/>
     <use xlink:href="#DejaVuSans-6f" x="883.923828"/>
     <use xlink:href="#DejaVuSans-6e" x="945.105469"/>
     <use xlink:href="#DejaVuSans-20" x="1008.484375"/>
     <use xlink:href="#DejaVuSans-6f" x="1040.271484"/>
     <use xlink:href="#DejaVuSans-6e" x="1101.453125"/>
     <use xlink:href="#DejaVuSans-20" x="1164.832031"/>
     <use xlink:href="#DejaVuSans-54" x="1196.619141"/>
     <use xlink:href="#DejaVuSans-4c" x="1257.703125"/>
     <use xlink:href="#DejaVuSans-53" x="1313.416016"/>
     <use xlink:href="#DejaVuSans-20" x="1376.892578"/>
     <use xlink:href="#DejaVuSans-77" x="1408.679688"/>
     <use xlink:href="#DejaVuSans-69" x="1490.466797"/>
     <use xlink:href="#DejaVuSans-74" x="1518.25"/>
     <use xlink:href="#DejaVuSans-68" x="1557.458984"/>
     <use xlink:href="#DejaVuSans-20" x="1620.837891"/>
     <use xlink:href="#DejaVuSans-73" x="1652.625"/>
     <use xlink:href="#DejaVuSans-65" x="1704.724609"/>
     <use xlink:href="#DejaVuSans-63" x="1766.248047"/>
     <use xlink:href="#DejaVuSans-70" x="1821.228516"/>
     <use xlink:href="#DejaVuSans-33" x="1884.705078"/>
     <use xlink:href="#DejaVuSans-38" x="1948.328125"/>
     <use xlink:href="#DejaVuSans-34" x="2011.951172"/>
     <use xlink:href="#DejaVuSans-72" x="2075.574219"/>
     <use xlink:href="#DejaVuSans-31" x="2116.6875"/>
     <use xlink:href="#DejaVuSans-20" x="2180.310547"/>
     <use xlink:href="#DejaVuSans-73" x="2212.097656"/>
     <use xlink:href="#DejaVuSans-69" x="2264.197266"/>
     <use xlink:href="#DejaVuSans-67" x="2291.980469"/>
     <use xlink:href="#DejaVuSans-6e" x="2355.457031"/>
     <use xlink:href="#DejaVuSans-61" x="2418.835938"/>
     <use xlink:href="#DejaVuSans-74" x="2480.115234"/>
     <use xlink:href="#DejaVuSans-75" x="2519.324219"/>
     <use xlink:href="#DejaVuSans-72" x="2582.703125"/>
     <use xlink:href="#DejaVuSans-65" x="2621.566406"/>
     <use xlink:href="#DejaVuSans-20" x="2683.089844"/>
     <use xlink:href="#DejaVuSans-61" x="2714.876953"/>
     <use xlink:href="#DejaVuSans-6c" x="2776.15625"/>
     <use xlink:href="#DejaVuSans-67" x="2803.939453"/>
     <use xlink:href="#DejaVuSans-6f" x="2867.416016"/>
     <use xlink:href="#DejaVuSans-72" x="2928.597656"/>
     <use xlink:href="#DejaVuSans-69" x="2969.710938"/>
     <use xlink:href="#DejaVuSans-74" x="2997.494141"/>
     <use xlink:href="#DejaVuSans-68" x="3036.703125"/>
     <use xlink:href="#DejaVuSans-6d" x="3100.082031"/>
     <use xlink:href="#DejaVuSans-20" x="3197.494141"/>
     <use xlink:href="#DejaVuSans-2014" x="3229.28125"/>
     <use xlink:href="#DejaVuSans-20" x="3329.28125"/>
     <use xlink:href="#DejaVuSans-69" x="3361.068359"/>
     <use xlink:href="#DejaVuSans-64" x="3388.851562"/>
     <use xlink:href="#DejaVuSans-65" x="3452.328125"/>
     <use xlink:href="#DejaVuSans-61" x="3513.851562"/>
     <use xlink:href="#DejaVuSans-6c" x="3575.130859"/>
     <use xlink:href="#DejaVuSans-20" x="3602.914062"/>
     <use xlink:href="#DejaVuSans-63" x="3634.701172"/>
     <use xlink:href="#DejaVuSans-6f" x="3689.681641"/>
     <use xlink:href="#DejaVuSans-6e" x="3750.863281"/>
     <use xlink:href="#DejaVuSans-64" x="3814.242188"/>
     <use xlink:href="#DejaVuSans-69" x="3877.71875"/>
     <use xlink:href="#DejaVuSans-74" x="3905.501953"/>
     <use xlink:href="#DejaVuSans-69" x="3944.710938"/>
     <use xlink:href="#DejaVuSans-6f" x="3972.494141"/>
     <use xlink:href="#DejaVuSans-6e" x="4033.675781"/>
     <use xlink:href="#DejaVuSans-73" x="4097.054688"/>
    </g>
   </g>
  </g>
 </g>
 <defs>
  <clipPath id="p7783827c23">
   <rect x="58.32" y="27.6" width="792.72" height="349.637044"/>
  </clipPath>
 </defs>
</svg>
