<?xml version="1.0" encoding="utf-8" standalone="no"?>
<!DOCTYPE svg PUBLIC "-//W3C//DTD SVG 1.1//EN"
  "http://www.w3.org/Graphics/SVG/1.1/DTD/svg11.dtd">
<svg xmlns:xlink="http://www.w3.org/1999/xlink" width="864pt" height="432pt" viewBox="0 0 864 432" xmlns="http://www.w3.org/2000/svg" version="1.1">
 <metadata>
  <rdf:RDF xmlns:dc="http://purl.org/dc/elements/1.1/" xmlns:cc="http://creativecommons.org/ns#" xmlns:rdf="http://www.w3.org/1999/02/22-rdf-syntax-ns#">
   <cc:Work>
    <dc:type rdf:resource="http://purl.org/dc/dcmitype/StillImage"/>
    <dc:date>2026-03-21T14:06:21.442575</dc:date>
    <dc:format>image/svg+xml</dc:format>
    <dc:creator>
     <cc:Agent>
      <dc:title>Matplotlib v3.6.3, https://matplotlib.org/</dc:title>
     </cc:Agent>
    </dc:creator>
   </cc:Work>
  </rdf:RDF>
 </metadata>
 <defs>
  <style type="text/css">*{stroke-linejoin: round; stroke-linecap: butt}</style>
 </defs>
 <g id="figure_1">
  <g id="patch_1">
   <path d="M 0 432 
L 864 432 
L 864 0 
L 0 0 
z
" style="fill: #ffffff"/>
  </g>
  <g id="axes_1">
   <g id="patch_2">
    <path d="M 58.32 377.237044 
L 851.04 377.237044 
L 851.04 27.6 
L 58.32 27.6 
z
" style="fill: #ffffff"/>
   </g>
   <g id="matplotlib.axis_1">
    <g id="xtick_1">
     <g id="text_1">
      <!-- P-521 -->
      <g style="fill: #262626" transform="translate(156.759421 404.396088) rotate(-15) scale(0.12 -0.12)">
       <defs>
        <path id="DejaVuSans-50" d="M 1259 4147 
L 1259 2394 
L 2053 2394 
Q 2494 2394 2734 2622 
Q 2975 2850 2975 3272 
Q 2975 3691 2734 3919 
Q 2494 4147 2053 4147 
L 1259 4147 
z
M 628 4666 
L 2053 4666 
Q 2838 4666 3239 4311 
Q 3641 3956 3641 3272 
Q 3641 2581 3239 2228 
Q 2838 1875 2053 1875 
L 1259 1875 
L 1259 0 
L 628 0 
L 628 4666 
z
" transform="scale(0.015625)"/>
        <path id="DejaVuSans-2d" d="M 313 2009 
L 1997 2009 
L 1997 1497 
L 313 1497 
L 313 2009 
z
" transform="scale(0.015625)"/>
        <path id="DejaVuSans-35" d="M 691 4666 
L 3169 4666 
L 3169 4134 
L 1269 4134 
L 1269 2991 
Q 1406 3038 1543 3061 
Q 1681 3084 1819 3084 
Q 2600 3084 3056 2656 
Q 3513 2228 3513 1497 
Q 3513 744 3044 326 
Q 2575 -91 1722 -91 
Q 1428 -91 1123 -41 
Q 819 9 494 109 
L 494 744 
Q 775 591 1075 516 
Q 1375 441 1709 441 
Q 2250 441 2565 725 
Q 2881 1009 2881 1497 
Q 2881 1984 2565 2268 
Q 2250 2553 1709 2553 
Q 1456 2553 1204 2497 
Q 953 2441 691 2322 
L 691 4666 
z
" transform="scale(0.015625)"/>
        <path id="DejaVuSans-32" d="M 1228 531 
L 3431 531 
L 3431 0 
L 469 0 
L 469 531 
Q 828 903 1448 1529 
Q 2069 2156 2228 2338 
Q 2531 2678 2651 2914 
Q 2772 3150 2772 3378 
Q 2772 3750 2511 3984 
Q 2250 4219 1831 4219 
Q 1534 4219 1204 4116 
Q 875 4013 500 3803 
L 500 4441 
Q 881 4594 1212 4672 
Q 1544 4750 1819 4750 
Q 2544 4750 2975 4387 
Q 3406 4025 3406 3419 
Q 3406 3131 3298 2873 
Q 3191 2616 2906 2266 
Q 2828 2175 2409 1742 
Q 1991 1309 1228 531 
z
" transform="scale(0.015625)"/>
        <path id="DejaVuSans-31" d="M 794 531 
L 1825 531 
L 1825 4091 
L 703 3866 
L 703 4441 
L 1819 4666 
L 2450 4666 
L 2450 531 
L 3481 531 
L 3481 0 
L 794 0 
L 794 531 
z
" transform="scale(0.015625)"/>
       </defs>
       <use xlink:href="#DejaVuSans-50"/>
       <use xlink:href="#DejaVuSans-2d" x="58.052734"/>
       <use xlink:href="#DejaVuSans-35" x="94.136719"/>
       <use xlink:href="#DejaVuSans-32" x="157.759766"/>
       <use xlink:href="#DejaVuSans-31" x="221.382812"/>
      </g>
     </g>
    </g>
    <g id="xtick_2">
     <g id="text_2">
      <!-- hqc256 -->
      <g style="fill: #262626" transform="translate(410.831845 407.120482) rotate(-15) scale(0.12 -0.12)">
       <defs>
        <path id="DejaVuSans-68" d="M 3513 2113 
L 3513 0 
L 2938 0 
L 2938 2094 
Q 2938 2591 2744 2837 
Q 2550 3084 2163 3084 
Q 1697 3084 1428 2787 
Q 1159 2491 1159 1978 
L 1159 0 
L 581 0 
L 581 4863 
L 1159 4863 
L 1159 2956 
Q 1366 3272 1645 3428 
Q 1925 3584 2291 3584 
Q 2894 3584 3203 3211 
Q 3513 2838 3513 2113 
z
" transform="scale(0.015625)"/>
        <path id="DejaVuSans-71" d="M 947 1747 
Q 947 1113 1208 752 
Q 1469 391 1925 391 
Q 2381 391 2643 752 
Q 2906 1113 2906 1747 
Q 2906 2381 2643 2742 
Q 2381 3103 1925 3103 
Q 1469 3103 1208 2742 
Q 947 2381 947 1747 
z
M 2906 525 
Q 2725 213 2448 61 
Q 2172 -91 1784 -91 
Q 1150 -91 751 415 
Q 353 922 353 1747 
Q 353 2572 751 3078 
Q 1150 3584 1784 3584 
Q 2172 3584 2448 3432 
Q 2725 3281 2906 2969 
L 2906 3500 
L 3481 3500 
L 3481 -1331 
L 2906 -1331 
L 2906 525 
z
" transform="scale(0.015625)"/>
        <path id="DejaVuSans-63" d="M 3122 3366 
L 3122 2828 
Q 2878 2963 2633 3030 
Q 2388 3097 2138 3097 
Q 1578 3097 1268 2742 
Q 959 2388 959 1747 
Q 959 1106 1268 751 
Q 1578 397 2138 397 
Q 2388 397 2633 464 
Q 2878 531 3122 666 
L 3122 134 
Q 2881 22 2623 -34 
Q 2366 -91 2075 -91 
Q 1284 -91 818 406 
Q 353 903 353 1747 
Q 353 2603 823 3093 
Q 1294 3584 2113 3584 
Q 2378 3584 2631 3529 
Q 2884 3475 3122 3366 
z
" transform="scale(0.015625)"/>
        <path id="DejaVuSans-36" d="M 2113 2584 
Q 1688 2584 1439 2293 
Q 1191 2003 1191 1497 
Q 1191 994 1439 701 
Q 1688 409 2113 409 
Q 2538 409 2786 701 
Q 3034 994 3034 1497 
Q 3034 2003 2786 2293 
Q 2538 2584 2113 2584 
z
M 3366 4563 
L 3366 3988 
Q 3128 4100 2886 4159 
Q 2644 4219 2406 4219 
Q 1781 4219 1451 3797 
Q 1122 3375 1075 2522 
Q 1259 2794 1537 2939 
Q 1816 3084 2150 3084 
Q 2853 3084 3261 2657 
Q 3669 2231 3669 1497 
Q 3669 778 3244 343 
Q 2819 -91 2113 -91 
Q 1303 -91 875 529 
Q 447 1150 447 2328 
Q 447 3434 972 4092 
Q 1497 4750 2381 4750 
Q 2619 4750 2861 4703 
Q 3103 4656 3366 4563 
z
" transform="scale(0.015625)"/>
       </defs>
       <use xlink:href="#DejaVuSans-68"/>
       <use xlink:href="#DejaVuSans-71" x="63.378906"/>
       <use xlink:href="#DejaVuSans-63" x="126.855469"/>
       <use xlink:href="#DejaVuSans-32" x="181.835938"/>
       <use xlink:href="#DejaVuSans-35" x="245.458984"/>
       <use xlink:href="#DejaVuSans-36" x="309.082031"/>
      </g>
     </g>
    </g>
    <g id="xtick_3">
     <g id="text_3">
      <!-- p521_hqc256 -->
      <g style="fill: #262626" transform="translate(639.706834 416.573362) rotate(-15) scale(0.12 -0.12)">
       <defs>
        <path id="DejaVuSans-70" d="M 1159 525 
L 1159 -1331 
L 581 -1331 
L 581 3500 
L 1159 3500 
L 1159 2969 
Q 1341 3281 1617 3432 
Q 1894 3584 2278 3584 
Q 2916 3584 3314 3078 
Q 3713 2572 3713 1747 
Q 3713 922 3314 415 
Q 2916 -91 2278 -91 
Q 1894 -91 1617 61 
Q 1341 213 1159 525 
z
M 3116 1747 
Q 3116 2381 2855 2742 
Q 2594 3103 2138 3103 
Q 1681 3103 1420 2742 
Q 1159 2381 1159 1747 
Q 1159 1113 1420 752 
Q 1681 391 2138 391 
Q 2594 391 2855 752 
Q 3116 1113 3116 1747 
z
" transform="scale(0.015625)"/>
        <path id="DejaVuSans-5f" d="M 3263 -1063 
L 3263 -1509 
L -63 -1509 
L -63 -1063 
L 3263 -1063 
z
" transform="scale(0.015625)"/>
       </defs>
       <use xlink:href="#DejaVuSans-70"/>
       <use xlink:href="#DejaVuSans-35" x="63.476562"/>
       <use xlink:href="#DejaVuSans-32" x="127.099609"/>
       <use xlink:href="#DejaVuSans-31" x="190.722656"/>
       <use xlink:href="#DejaVuSans-5f" x="254.345703"/>
       <use xlink:href="#DejaVuSans-68" x="304.345703"/>
       <use xlink:href="#DejaVuSans-71" x="367.724609"/>
       <use xlink:href="#DejaVuSans-63" x="431.201172"/>
       <use xlink:href="#DejaVuSans-32" x="486.181641"/>
       <use xlink:href="#DejaVuSans-35" x="549.804688"/>
       <use xlink:href="#DejaVuSans-36" x="613.427734"/>
      </g>
     </g>
    </g>
   </g>
   <g id="matplotlib.axis_2">
    <g id="ytick_1">
     <g id="line2d_1">
      <path d="M 58.32 371.779594 
L 851.04 371.779594 
" clip-path="url(#p297a5c38db)" style="fill: none; stroke: #cccccc; stroke-linecap: round"/>
     </g>
     <g id="text_4">
      <!-- 100 -->
      <g style="fill: #262626" transform="translate(27.82375 375.958734) scale(0.11 -0.11)">
       <defs>
        <path id="DejaVuSans-30" d="M 2034 4250 
Q 1547 4250 1301 3770 
Q 1056 3291 1056 2328 
Q 1056 1369 1301 889 
Q 1547 409 2034 409 
Q 2525 409 2770 889 
Q 3016 1369 3016 2328 
Q 3016 3291 2770 3770 
Q 2525 4250 2034 4250 
z
M 2034 4750 
Q 2819 4750 3233 4129 
Q 3647 3509 3647 2328 
Q 3647 1150 3233 529 
Q 2819 -91 2034 -91 
Q 1250 -91 836 529 
Q 422 1150 422 2328 
Q 422 3509 836 4129 
Q 1250 4750 2034 4750 
z
" transform="scale(0.015625)"/>
       </defs>
       <use xlink:href="#DejaVuSans-31"/>
       <use xlink:href="#DejaVuSans-30" x="63.623047"/>
       <use xlink:href="#DejaVuSans-30" x="127.246094"/>
      </g>
     </g>
    </g>
    <g id="ytick_2">
     <g id="line2d_2">
      <path d="M 58.32 332.634632 
L 851.04 332.634632 
" clip-path="url(#p297a5c38db)" style="fill: none; stroke: #cccccc; stroke-linecap: round"/>
     </g>
     <g id="text_5">
      <!-- 200 -->
      <g style="fill: #262626" transform="translate(27.82375 336.813773) scale(0.11 -0.11)">
       <use xlink:href="#DejaVuSans-32"/>
       <use xlink:href="#DejaVuSans-30" x="63.623047"/>
       <use xlink:href="#DejaVuSans-30" x="127.246094"/>
      </g>
     </g>
    </g>
    <g id="ytick_3">
     <g id="line2d_3">
      <path d="M 58.32 293.48967 
L 851.04 293.48967 
" clip-path="url(#p297a5c38db)" style="fill: none; stroke: #cccccc; stroke-linecap: round"/>
     </g>
     <g id="text_6">
      <!-- 300 -->
      <g style="fill: #262626" transform="translate(27.82375 297.668811) scale(0.11 -0.11)">
       <defs>
        <path id="DejaVuSans-33" d="M 2597 2516 
Q 3050 2419 3304 2112 
Q 3559 1806 3559 1356 
Q 3559 666 3084 287 
Q 2609 -91 1734 -91 
Q 1441 -91 1130 -33 
Q 819 25 488 141 
L 488 750 
Q 750 597 1062 519 
Q 1375 441 1716 441 
Q 2309 441 2620 675 
Q 2931 909 2931 1356 
Q 2931 1769 2642 2001 
Q 2353 2234 1838 2234 
L 1294 2234 
L 1294 2753 
L 1863 2753 
Q 2328 2753 2575 2939 
Q 2822 3125 2822 3475 
Q 2822 3834 2567 4026 
Q 2313 4219 1838 4219 
Q 1578 4219 1281 4162 
Q 984 4106 628 3988 
L 628 4550 
Q 988 4650 1302 4700 
Q 1616 4750 1894 4750 
Q 2613 4750 3031 4423 
Q 3450 4097 3450 3541 
Q 3450 3153 3228 2886 
Q 3006 2619 2597 2516 
z
" transform="scale(0.015625)"/>
       </defs>
       <use xlink:href="#DejaVuSans-33"/>
       <use xlink:href="#DejaVuSans-30" x="63.623047"/>
       <use xlink:href="#DejaVuSans-30" x="127.246094"/>
      </g>
     </g>
    </g>
    <g id="ytick_4">
     <g id="line2d_4">
      <path d="M 58.32 254.344708 
L 851.04 254.344708 
" clip-path="url(#p297a5c38db)" style="fill: none; stroke: #cccccc; stroke-linecap: round"/>
     </g>
     <g id="text_7">
      <!-- 400 -->
      <g style="fill: #262626" transform="translate(27.82375 258.523849) scale(0.11 -0.11)">
       <defs>
        <path id="DejaVuSans-34" d="M 2419 4116 
L 825 1625 
L 2419 1625 
L 2419 4116 
z
M 2253 4666 
L 3047 4666 
L 3047 1625 
L 3713 1625 
L 3713 1100 
L 3047 1100 
L 3047 0 
L 2419 0 
L 2419 1100 
L 313 1100 
L 313 1709 
L 2253 4666 
z
" transform="scale(0.015625)"/>
       </defs>
       <use xlink:href="#DejaVuSans-34"/>
       <use xlink:href="#DejaVuSans-30" x="63.623047"/>
       <use xlink:href="#DejaVuSans-30" x="127.246094"/>
      </g>
     </g>
    </g>
    <g id="ytick_5">
     <g id="line2d_5">
      <path d="M 58.32 215.199746 
L 851.04 215.199746 
" clip-path="url(#p297a5c38db)" style="fill: none; stroke: #cccccc; stroke-linecap: round"/>
     </g>
     <g id="text_8">
      <!-- 500 -->
      <g style="fill: #262626" transform="translate(27.82375 219.378887) scale(0.11 -0.11)">
       <use xlink:href="#DejaVuSans-35"/>
       <use xlink:href="#DejaVuSans-30" x="63.623047"/>
       <use xlink:href="#DejaVuSans-30" x="127.246094"/>
      </g>
     </g>
    </g>
    <g id="ytick_6">
     <g id="line2d_6">
      <path d="M 58.32 176.054784 
L 851.04 176.054784 
" clip-path="url(#p297a5c38db)" style="fill: none; stroke: #cccccc; stroke-linecap: round"/>
     </g>
     <g id="text_9">
      <!-- 600 -->
      <g style="fill: #262626" transform="translate(27.82375 180.233925) scale(0.11 -0.11)">
       <use xlink:href="#DejaVuSans-36"/>
       <use xlink:href="#DejaVuSans-30" x="63.623047"/>
       <use xlink:href="#DejaVuSans-30" x="127.246094"/>
      </g>
     </g>
    </g>
    <g id="ytick_7">
     <g id="line2d_7">
      <path d="M 58.32 136.909822 
L 851.04 136.909822 
" clip-path="url(#p297a5c38db)" style="fill: none; stroke: #cccccc; stroke-linecap: round"/>
     </g>
     <g id="text_10">
      <!-- 700 -->
      <g style="fill: #262626" transform="translate(27.82375 141.088963) scale(0.11 -0.11)">
       <defs>
        <path id="DejaVuSans-37" d="M 525 4666 
L 3525 4666 
L 3525 4397 
L 1831 0 
L 1172 0 
L 2766 4134 
L 525 4134 
L 525 4666 
z
" transform="scale(0.015625)"/>
       </defs>
       <use xlink:href="#DejaVuSans-37"/>
       <use xlink:href="#DejaVuSans-30" x="63.623047"/>
       <use xlink:href="#DejaVuSans-30" x="127.246094"/>
      </g>
     </g>
    </g>
    <g id="ytick_8">
     <g id="line2d_8">
      <path d="M 58.32 97.76486 
L 851.04 97.76486 
" clip-path="url(#p297a5c38db)" style="fill: none; stroke: #cccccc; stroke-linecap: round"/>
     </g>
     <g id="text_11">
      <!-- 800 -->
      <g style="fill: #262626" transform="translate(27.82375 101.944001) scale(0.11 -0.11)">
       <defs>
        <path id="DejaVuSans-38" d="M 2034 2216 
Q 1584 2216 1326 1975 
Q 1069 1734 1069 1313 
Q 1069 891 1326 650 
Q 1584 409 2034 409 
Q 2484 409 2743 651 
Q 3003 894 3003 1313 
Q 3003 1734 2745 1975 
Q 2488 2216 2034 2216 
z
M 1403 2484 
Q 997 2584 770 2862 
Q 544 3141 544 3541 
Q 544 4100 942 4425 
Q 1341 4750 2034 4750 
Q 2731 4750 3128 4425 
Q 3525 4100 3525 3541 
Q 3525 3141 3298 2862 
Q 3072 2584 2669 2484 
Q 3125 2378 3379 2068 
Q 3634 1759 3634 1313 
Q 3634 634 3220 271 
Q 2806 -91 2034 -91 
Q 1263 -91 848 271 
Q 434 634 434 1313 
Q 434 1759 690 2068 
Q 947 2378 1403 2484 
z
M 1172 3481 
Q 1172 3119 1398 2916 
Q 1625 2713 2034 2713 
Q 2441 2713 2670 2916 
Q 2900 3119 2900 3481 
Q 2900 3844 2670 4047 
Q 2441 4250 2034 4250 
Q 1625 4250 1398 4047 
Q 1172 3844 1172 3481 
z
" transform="scale(0.015625)"/>
       </defs>
       <use xlink:href="#DejaVuSans-38"/>
       <use xlink:href="#DejaVuSans-30" x="63.623047"/>
       <use xlink:href="#DejaVuSans-30" x="127.246094"/>
      </g>
     </g>
    </g>
    <g id="ytick_9">
     <g id="line2d_9">
      <path d="M 58.32 58.619898 
L 851.04 58.619898 
" clip-path="url(#p297a5c38db)" style="fill: none; stroke: #cccccc; stroke-linecap: round"/>
     </g>
     <g id="text_12">
      <!-- 900 -->
      <g style="fill: #262626" transform="translate(27.82375 62.799039) scale(0.11 -0.11)">
       <defs>
        <path id="DejaVuSans-39" d="M 703 97 
L 703 672 
Q 941 559 1184 500 
Q 1428 441 1663 441 
Q 2288 441 2617 861 
Q 2947 1281 2994 2138 
Q 2813 1869 2534 1725 
Q 2256 1581 1919 1581 
Q 1219 1581 811 2004 
Q 403 2428 403 3163 
Q 403 3881 828 4315 
Q 1253 4750 1959 4750 
Q 2769 4750 3195 4129 
Q 3622 3509 3622 2328 
Q 3622 1225 3098 567 
Q 2575 -91 1691 -91 
Q 1453 -91 1209 -44 
Q 966 3 703 97 
z
M 1959 2075 
Q 2384 2075 2632 2365 
Q 2881 2656 2881 3163 
Q 2881 3666 2632 3958 
Q 2384 4250 1959 4250 
Q 1534 4250 1286 3958 
Q 1038 3666 1038 3163 
Q 1038 2656 1286 2365 
Q 1534 2075 1959 2075 
z
" transform="scale(0.015625)"/>
       </defs>
       <use xlink:href="#DejaVuSans-39"/>
       <use xlink:href="#DejaVuSans-30" x="63.623047"/>
       <use xlink:href="#DejaVuSans-30" x="127.246094"/>
      </g>
     </g>
    </g>
    <g id="text_13">
     <!-- Handshake duration (ms) -->
     <g style="fill: #262626" transform="translate(21.328125 278.486335) rotate(-90) scale(0.12 -0.12)">
      <defs>
       <path id="DejaVuSans-48" d="M 628 4666 
L 1259 4666 
L 1259 2753 
L 3553 2753 
L 3553 4666 
L 4184 4666 
L 4184 0 
L 3553 0 
L 3553 2222 
L 1259 2222 
L 1259 0 
L 628 0 
L 628 4666 
z
" transform="scale(0.015625)"/>
       <path id="DejaVuSans-61" d="M 2194 1759 
Q 1497 1759 1228 1600 
Q 959 1441 959 1056 
Q 959 750 1161 570 
Q 1363 391 1709 391 
Q 2188 391 2477 730 
Q 2766 1069 2766 1631 
L 2766 1759 
L 2194 1759 
z
M 3341 1997 
L 3341 0 
L 2766 0 
L 2766 531 
Q 2569 213 2275 61 
Q 1981 -91 1556 -91 
Q 1019 -91 701 211 
Q 384 513 384 1019 
Q 384 1609 779 1909 
Q 1175 2209 1959 2209 
L 2766 2209 
L 2766 2266 
Q 2766 2663 2505 2880 
Q 2244 3097 1772 3097 
Q 1472 3097 1187 3025 
Q 903 2953 641 2809 
L 641 3341 
Q 956 3463 1253 3523 
Q 1550 3584 1831 3584 
Q 2591 3584 2966 3190 
Q 3341 2797 3341 1997 
z
" transform="scale(0.015625)"/>
       <path id="DejaVuSans-6e" d="M 3513 2113 
L 3513 0 
L 2938 0 
L 2938 2094 
Q 2938 2591 2744 2837 
Q 2550 3084 2163 3084 
Q 1697 3084 1428 2787 
Q 1159 2491 1159 1978 
L 1159 0 
L 581 0 
L 581 3500 
L 1159 3500 
L 1159 2956 
Q 1366 3272 1645 3428 
Q 1925 3584 2291 3584 
Q 2894 3584 3203 3211 
Q 3513 2838 3513 2113 
z
" transform="scale(0.015625)"/>
       <path id="DejaVuSans-64" d="M 2906 2969 
L 2906 4863 
L 3481 4863 
L 3481 0 
L 2906 0 
L 2906 525 
Q 2725 213 2448 61 
Q 2172 -91 1784 -91 
Q 1150 -91 751 415 
Q 353 922 353 1747 
Q 353 2572 751 3078 
Q 1150 3584 1784 3584 
Q 2172 3584 2448 3432 
Q 2725 3281 2906 2969 
z
M 947 1747 
Q 947 1113 1208 752 
Q 1469 391 1925 391 
Q 2381 391 2643 752 
Q 2906 1113 2906 1747 
Q 2906 2381 2643 2742 
Q 2381 3103 1925 3103 
Q 1469 3103 1208 2742 
Q 947 2381 947 1747 
z
" transform="scale(0.015625)"/>
       <path id="DejaVuSans-73" d="M 2834 3397 
L 2834 2853 
Q 2591 2978 2328 3040 
Q 2066 3103 1784 3103 
Q 1356 3103 1142 2972 
Q 928 2841 928 2578 
Q 928 2378 1081 2264 
Q 1234 2150 1697 2047 
L 1894 2003 
Q 2506 1872 2764 1633 
Q 3022 1394 3022 966 
Q 3022 478 2636 193 
Q 2250 -91 1575 -91 
Q 1294 -91 989 -36 
Q 684 19 347 128 
L 347 722 
Q 666 556 975 473 
Q 1284 391 1588 391 
Q 1994 391 2212 530 
Q 2431 669 2431 922 
Q 2431 1156 2273 1281 
Q 2116 1406 1581 1522 
L 1381 1569 
Q 847 1681 609 1914 
Q 372 2147 372 2553 
Q 372 3047 722 3315 
Q 1072 3584 1716 3584 
Q 2034 3584 2315 3537 
Q 2597 3491 2834 3397 
z
" transform="scale(0.015625)"/>
       <path id="DejaVuSans-6b" d="M 581 4863 
L 1159 4863 
L 1159 1991 
L 2875 3500 
L 3609 3500 
L 1753 1863 
L 3688 0 
L 2938 0 
L 1159 1709 
L 1159 0 
L 581 0 
L 581 4863 
z
" transform="scale(0.015625)"/>
       <path id="DejaVuSans-65" d="M 3597 1894 
L 3597 1613 
L 953 1613 
Q 991 1019 1311 708 
Q 1631 397 2203 397 
Q 2534 397 2845 478 
Q 3156 559 3463 722 
L 3463 178 
Q 3153 47 2828 -22 
Q 2503 -91 2169 -91 
Q 1331 -91 842 396 
Q 353 884 353 1716 
Q 353 2575 817 3079 
Q 1281 3584 2069 3584 
Q 2775 3584 3186 3129 
Q 3597 2675 3597 1894 
z
M 3022 2063 
Q 3016 2534 2758 2815 
Q 2500 3097 2075 3097 
Q 1594 3097 1305 2825 
Q 1016 2553 972 2059 
L 3022 2063 
z
" transform="scale(0.015625)"/>
       <path id="DejaVuSans-20" transform="scale(0.015625)"/>
       <path id="DejaVuSans-75" d="M 544 1381 
L 544 3500 
L 1119 3500 
L 1119 1403 
Q 1119 906 1312 657 
Q 1506 409 1894 409 
Q 2359 409 2629 706 
Q 2900 1003 2900 1516 
L 2900 3500 
L 3475 3500 
L 3475 0 
L 2900 0 
L 2900 538 
Q 2691 219 2414 64 
Q 2138 -91 1772 -91 
Q 1169 -91 856 284 
Q 544 659 544 1381 
z
M 1991 3584 
L 1991 3584 
z
" transform="scale(0.015625)"/>
       <path id="DejaVuSans-72" d="M 2631 2963 
Q 2534 3019 2420 3045 
Q 2306 3072 2169 3072 
Q 1681 3072 1420 2755 
Q 1159 2438 1159 1844 
L 1159 0 
L 581 0 
L 581 3500 
L 1159 3500 
L 1159 2956 
Q 1341 3275 1631 3429 
Q 1922 3584 2338 3584 
Q 2397 3584 2469 3576 
Q 2541 3569 2628 3553 
L 2631 2963 
z
" transform="scale(0.015625)"/>
       <path id="DejaVuSans-74" d="M 1172 4494 
L 1172 3500 
L 2356 3500 
L 2356 3053 
L 1172 3053 
L 1172 1153 
Q 1172 725 1289 603 
Q 1406 481 1766 481 
L 2356 481 
L 2356 0 
L 1766 0 
Q 1100 0 847 248 
Q 594 497 594 1153 
L 594 3053 
L 172 3053 
L 172 3500 
L 594 3500 
L 594 4494 
L 1172 4494 
z
" transform="scale(0.015625)"/>
       <path id="DejaVuSans-69" d="M 603 3500 
L 1178 3500 
L 1178 0 
L 603 0 
L 603 3500 
z
M 603 4863 
L 1178 4863 
L 1178 4134 
L 603 4134 
L 603 4863 
z
" transform="scale(0.015625)"/>
       <path id="DejaVuSans-6f" d="M 1959 3097 
Q 1497 3097 1228 2736 
Q 959 2375 959 1747 
Q 959 1119 1226 758 
Q 1494 397 1959 397 
Q 2419 397 2687 759 
Q 2956 1122 2956 1747 
Q 2956 2369 2687 2733 
Q 2419 3097 1959 3097 
z
M 1959 3584 
Q 2709 3584 3137 3096 
Q 3566 2609 3566 1747 
Q 3566 888 3137 398 
Q 2709 -91 1959 -91 
Q 1206 -91 779 398 
Q 353 888 353 1747 
Q 353 2609 779 3096 
Q 1206 3584 1959 3584 
z
" transform="scale(0.015625)"/>
       <path id="DejaVuSans-28" d="M 1984 4856 
Q 1566 4138 1362 3434 
Q 1159 2731 1159 2009 
Q 1159 1288 1364 580 
Q 1569 -128 1984 -844 
L 1484 -844 
Q 1016 -109 783 600 
Q 550 1309 550 2009 
Q 550 2706 781 3412 
Q 1013 4119 1484 4856 
L 1984 4856 
z
" transform="scale(0.015625)"/>
       <path id="DejaVuSans-6d" d="M 3328 2828 
Q 3544 3216 3844 3400 
Q 4144 3584 4550 3584 
Q 5097 3584 5394 3201 
Q 5691 2819 5691 2113 
L 5691 0 
L 5113 0 
L 5113 2094 
Q 5113 2597 4934 2840 
Q 4756 3084 4391 3084 
Q 3944 3084 3684 2787 
Q 3425 2491 3425 1978 
L 3425 0 
L 2847 0 
L 2847 2094 
Q 2847 2600 2669 2842 
Q 2491 3084 2119 3084 
Q 1678 3084 1418 2786 
Q 1159 2488 1159 1978 
L 1159 0 
L 581 0 
L 581 3500 
L 1159 3500 
L 1159 2956 
Q 1356 3278 1631 3431 
Q 1906 3584 2284 3584 
Q 2666 3584 2933 3390 
Q 3200 3197 3328 2828 
z
" transform="scale(0.015625)"/>
       <path id="DejaVuSans-29" d="M 513 4856 
L 1013 4856 
Q 1481 4119 1714 3412 
Q 1947 2706 1947 2009 
Q 1947 1309 1714 600 
Q 1481 -109 1013 -844 
L 513 -844 
Q 928 -128 1133 580 
Q 1338 1288 1338 2009 
Q 1338 2731 1133 3434 
Q 928 4138 513 4856 
z
" transform="scale(0.015625)"/>
      </defs>
      <use xlink:href="#DejaVuSans-48"/>
      <use xlink:href="#DejaVuSans-61" x="75.195312"/>
      <use xlink:href="#DejaVuSans-6e" x="136.474609"/>
      <use xlink:href="#DejaVuSans-64" x="199.853516"/>
      <use xlink:href="#DejaVuSans-73" x="263.330078"/>
      <use xlink:href="#DejaVuSans-68" x="315.429688"/>
      <use xlink:href="#DejaVuSans-61" x="378.808594"/>
      <use xlink:href="#DejaVuSans-6b" x="440.087891"/>
      <use xlink:href="#DejaVuSans-65" x="494.373047"/>
      <use xlink:href="#DejaVuSans-20" x="555.896484"/>
      <use xlink:href="#DejaVuSans-64" x="587.683594"/>
      <use xlink:href="#DejaVuSans-75" x="651.160156"/>
      <use xlink:href="#DejaVuSans-72" x="714.539062"/>
      <use xlink:href="#DejaVuSans-61" x="755.652344"/>
      <use xlink:href="#DejaVuSans-74" x="816.931641"/>
      <use xlink:href="#DejaVuSans-69" x="856.140625"/>
      <use xlink:href="#DejaVuSans-6f" x="883.923828"/>
      <use xlink:href="#DejaVuSans-6e" x="945.105469"/>
      <use xlink:href="#DejaVuSans-20" x="1008.484375"/>
      <use xlink:href="#DejaVuSans-28" x="1040.271484"/>
      <use xlink:href="#DejaVuSans-6d" x="1079.285156"/>
      <use xlink:href="#DejaVuSans-73" x="1176.697266"/>
      <use xlink:href="#DejaVuSans-29" x="1228.796875"/>
     </g>
    </g>
   </g>
   <g id="PolyCollection_1">
    <defs>
     <path id="m84c397d4f1" d="M 190.698438 -70.655549 
L 190.181562 -70.655549 
L 189.685791 -73.489069 
L 188.553985 -76.32259 
L 186.222918 -79.15611 
L 181.602645 -81.98963 
L 172.644596 -84.823151 
L 156.616199 -87.656671 
L 132.502874 -90.490192 
L 105.004383 -93.323712 
L 85.38303 -96.157233 
L 84.744 -98.990753 
L 104.362455 -101.824273 
L 134.033251 -104.657794 
L 160.795953 -107.491314 
L 177.969061 -110.324835 
L 186.24472 -113.158355 
L 189.312113 -115.991875 
L 190.197751 -118.825396 
L 190.398442 -121.658916 
L 190.434307 -124.492437 
L 190.439377 -127.325957 
L 190.439946 -130.159477 
L 190.439996 -132.992998 
L 190.44 -135.826518 
L 190.44 -138.660039 
L 190.44 -141.493559 
L 190.44 -144.327079 
L 190.44 -147.1606 
L 190.44 -149.99412 
L 190.44 -152.827641 
L 190.44 -155.661161 
L 190.44 -158.494681 
L 190.44 -161.328202 
L 190.44 -164.161722 
L 190.44 -166.995243 
L 190.439999 -169.828763 
L 190.439994 -172.662283 
L 190.439939 -175.495804 
L 190.439535 -178.329324 
L 190.437163 -181.162845 
L 190.426205 -183.996365 
L 190.386483 -186.829885 
L 190.274267 -189.663406 
L 190.030064 -192.496926 
L 189.629721 -195.330447 
L 189.159541 -198.163967 
L 188.821575 -200.997487 
L 188.803274 -203.831008 
L 189.115199 -206.664528 
L 189.581542 -209.498049 
L 189.994603 -212.331569 
L 190.254965 -215.165089 
L 190.378453 -217.99861 
L 190.423612 -220.83213 
L 190.436508 -223.665651 
L 190.439405 -226.499171 
L 190.439919 -229.332691 
L 190.439991 -232.166212 
L 190.439999 -234.999732 
L 190.44 -237.833253 
L 190.44 -240.666773 
L 190.44 -243.500293 
L 190.44 -246.333814 
L 190.44 -249.167334 
L 190.44 -252.000855 
L 190.44 -254.834375 
L 190.44 -257.667896 
L 190.44 -260.501416 
L 190.44 -263.334936 
L 190.44 -266.168457 
L 190.44 -269.001977 
L 190.44 -271.835498 
L 190.44 -274.669018 
L 190.44 -277.502538 
L 190.44 -280.336059 
L 190.44 -283.169579 
L 190.439998 -286.0031 
L 190.439977 -288.83662 
L 190.439837 -291.67014 
L 190.439072 -294.503661 
L 190.435828 -297.337181 
L 190.425178 -300.170702 
L 190.398383 -303.004222 
L 190.347669 -305.837742 
L 190.278137 -308.671263 
L 190.215779 -311.504783 
L 190.194551 -314.338304 
L 190.227562 -317.171824 
L 190.293989 -320.005344 
L 190.357453 -322.838865 
L 190.391659 -325.672385 
L 190.386916 -328.505906 
L 190.344347 -331.339426 
L 190.27714 -334.172946 
L 190.21544 -337.006467 
L 190.194595 -339.839987 
L 190.22801 -342.673508 
L 190.295292 -345.507028 
L 190.361946 -348.340548 
L 190.406732 -351.174069 
L 190.473268 -351.174069 
L 190.473268 -351.174069 
L 190.518054 -348.340548 
L 190.584708 -345.507028 
L 190.65199 -342.673508 
L 190.685405 -339.839987 
L 190.66456 -337.006467 
L 190.60286 -334.172946 
L 190.535653 -331.339426 
L 190.493084 -328.505906 
L 190.488341 -325.672385 
L 190.522547 -322.838865 
L 190.586011 -320.005344 
L 190.652438 -317.171824 
L 190.685449 -314.338304 
L 190.664221 -311.504783 
L 190.601863 -308.671263 
L 190.532331 -305.837742 
L 190.481617 -303.004222 
L 190.454822 -300.170702 
L 190.444172 -297.337181 
L 190.440928 -294.503661 
L 190.440163 -291.67014 
L 190.440023 -288.83662 
L 190.440002 -286.0031 
L 190.44 -283.169579 
L 190.44 -280.336059 
L 190.44 -277.502538 
L 190.44 -274.669018 
L 190.44 -271.835498 
L 190.44 -269.001977 
L 190.44 -266.168457 
L 190.44 -263.334936 
L 190.44 -260.501416 
L 190.44 -257.667896 
L 190.44 -254.834375 
L 190.44 -252.000855 
L 190.44 -249.167334 
L 190.44 -246.333814 
L 190.44 -243.500293 
L 190.44 -240.666773 
L 190.44 -237.833253 
L 190.440001 -234.999732 
L 190.440009 -232.166212 
L 190.440081 -229.332691 
L 190.440595 -226.499171 
L 190.443492 -223.665651 
L 190.456388 -220.83213 
L 190.501547 -217.99861 
L 190.625035 -215.165089 
L 190.885397 -212.331569 
L 191.298458 -209.498049 
L 191.764801 -206.664528 
L 192.076726 -203.831008 
L 192.058425 -200.997487 
L 191.720459 -198.163967 
L 191.250279 -195.330447 
L 190.849936 -192.496926 
L 190.605733 -189.663406 
L 190.493517 -186.829885 
L 190.453795 -183.996365 
L 190.442837 -181.162845 
L 190.440465 -178.329324 
L 190.440061 -175.495804 
L 190.440006 -172.662283 
L 190.440001 -169.828763 
L 190.44 -166.995243 
L 190.44 -164.161722 
L 190.44 -161.328202 
L 190.44 -158.494681 
L 190.44 -155.661161 
L 190.44 -152.827641 
L 190.44 -149.99412 
L 190.44 -147.1606 
L 190.44 -144.327079 
L 190.44 -141.493559 
L 190.44 -138.660039 
L 190.44 -135.826518 
L 190.440004 -132.992998 
L 190.440054 -130.159477 
L 190.440623 -127.325957 
L 190.445693 -124.492437 
L 190.481558 -121.658916 
L 190.682249 -118.825396 
L 191.567887 -115.991875 
L 194.63528 -113.158355 
L 202.910939 -110.324835 
L 220.084047 -107.491314 
L 246.846749 -104.657794 
L 276.517545 -101.824273 
L 296.136 -98.990753 
L 295.49697 -96.157233 
L 275.875617 -93.323712 
L 248.377126 -90.490192 
L 224.263801 -87.656671 
L 208.235404 -84.823151 
L 199.277355 -81.98963 
L 194.657082 -79.15611 
L 192.326015 -76.32259 
L 191.194209 -73.489069 
L 190.698438 -70.655549 
z
" style="stroke: #595959; stroke-width: 1.25"/>
    </defs>
    <g clip-path="url(#p297a5c38db)">
     <use xlink:href="#m84c397d4f1" x="0" y="432" style="fill: #72b6a1; stroke: #595959; stroke-width: 1.25"/>
    </g>
   </g>
   <g id="PolyCollection_2">
    <defs>
     <path id="me5a2816e4f" d="M 454.880818 -124.886113 
L 454.479182 -124.886113 
L 454.199438 -127.287316 
L 453.651445 -129.68852 
L 452.688462 -132.089723 
L 451.133846 -134.490927 
L 448.755825 -136.89213 
L 445.219908 -139.293334 
L 440.086954 -141.694537 
L 432.93307 -144.095741 
L 423.54043 -146.496945 
L 411.970607 -148.898148 
L 398.463771 -151.299352 
L 383.481146 -153.700555 
L 368.247858 -156.101759 
L 355.448387 -158.502962 
L 348.984 -160.904166 
L 352.18503 -163.305369 
L 365.513115 -165.706573 
L 385.744793 -168.107777 
L 407.523446 -170.50898 
L 426.078752 -172.910184 
L 439.088387 -175.311387 
L 446.732388 -177.712591 
L 450.537632 -180.113794 
L 452.160966 -182.514998 
L 452.770547 -184.916201 
L 452.997961 -187.317405 
L 453.13087 -189.718609 
L 453.286853 -192.119812 
L 453.494223 -194.521016 
L 453.721279 -196.922219 
L 453.905824 -199.323423 
L 453.994825 -201.724626 
L 453.973053 -204.12583 
L 453.86382 -206.527033 
L 453.70837 -208.928237 
L 453.545908 -211.32944 
L 453.409636 -213.730644 
L 453.333376 -216.131848 
L 453.350677 -218.533051 
L 453.478721 -220.934255 
L 453.70091 -223.335458 
L 453.968193 -225.736662 
L 454.221813 -228.137865 
L 454.42003 -230.539069 
L 454.550026 -232.940272 
L 454.621483 -235.341476 
L 454.651557 -237.74268 
L 454.65167 -240.143883 
L 454.619725 -242.545087 
L 454.536597 -244.94629 
L 454.367159 -247.347494 
L 454.070337 -249.748697 
L 453.623089 -252.149901 
L 453.053961 -254.551104 
L 452.465456 -256.952308 
L 452.016863 -259.353512 
L 451.85893 -261.754715 
L 452.053255 -264.155919 
L 452.534012 -266.557122 
L 453.143727 -268.958326 
L 453.71647 -271.359529 
L 454.147993 -273.760733 
L 454.413419 -276.161936 
L 454.540338 -278.56314 
L 454.571707 -280.964343 
L 454.54463 -283.365547 
L 454.488203 -285.766751 
L 454.42874 -288.167954 
L 454.390525 -290.569158 
L 454.389522 -292.970361 
L 454.426569 -295.371565 
L 454.487818 -297.772768 
L 454.553339 -300.173972 
L 454.607448 -302.575175 
L 454.643882 -304.976379 
L 454.664372 -307.377583 
L 454.674117 -309.778786 
L 454.678044 -312.17999 
L 454.679292 -314.581193 
L 454.679217 -316.982397 
L 454.677728 -319.3836 
L 454.673247 -321.784804 
L 454.662332 -324.186007 
L 454.639713 -326.587211 
L 454.599842 -328.988414 
L 454.540404 -331.389618 
L 454.466053 -333.790822 
L 454.388806 -336.192025 
L 454.323085 -338.593229 
L 454.278541 -340.994432 
L 454.257149 -343.395636 
L 454.257127 -345.796839 
L 454.278472 -348.198043 
L 454.322966 -350.599246 
L 454.38865 -353.00045 
L 454.465888 -355.401654 
L 454.540259 -357.802857 
L 454.599737 -360.204061 
L 454.639649 -362.605264 
L 454.720351 -362.605264 
L 454.720351 -362.605264 
L 454.760263 -360.204061 
L 454.819741 -357.802857 
L 454.894112 -355.401654 
L 454.97135 -353.00045 
L 455.037034 -350.599246 
L 455.081528 -348.198043 
L 455.102873 -345.796839 
L 455.102851 -343.395636 
L 455.081459 -340.994432 
L 455.036915 -338.593229 
L 454.971194 -336.192025 
L 454.893947 -333.790822 
L 454.819596 -331.389618 
L 454.760158 -328.988414 
L 454.720287 -326.587211 
L 454.697668 -324.186007 
L 454.686753 -321.784804 
L 454.682272 -319.3836 
L 454.680783 -316.982397 
L 454.680708 -314.581193 
L 454.681956 -312.17999 
L 454.685883 -309.778786 
L 454.695628 -307.377583 
L 454.716118 -304.976379 
L 454.752552 -302.575175 
L 454.806661 -300.173972 
L 454.872182 -297.772768 
L 454.933431 -295.371565 
L 454.970478 -292.970361 
L 454.969475 -290.569158 
L 454.93126 -288.167954 
L 454.871797 -285.766751 
L 454.81537 -283.365547 
L 454.788293 -280.964343 
L 454.819662 -278.56314 
L 454.946581 -276.161936 
L 455.212007 -273.760733 
L 455.64353 -271.359529 
L 456.216273 -268.958326 
L 456.825988 -266.557122 
L 457.306745 -264.155919 
L 457.50107 -261.754715 
L 457.343137 -259.353512 
L 456.894544 -256.952308 
L 456.306039 -254.551104 
L 455.736911 -252.149901 
L 455.289663 -249.748697 
L 454.992841 -247.347494 
L 454.823403 -244.94629 
L 454.740275 -242.545087 
L 454.70833 -240.143883 
L 454.708443 -237.74268 
L 454.738517 -235.341476 
L 454.809974 -232.940272 
L 454.93997 -230.539069 
L 455.138187 -228.137865 
L 455.391807 -225.736662 
L 455.65909 -223.335458 
L 455.881279 -220.934255 
L 456.009323 -218.533051 
L 456.026624 -216.131848 
L 455.950364 -213.730644 
L 455.814092 -211.32944 
L 455.65163 -208.928237 
L 455.49618 -206.527033 
L 455.386947 -204.12583 
L 455.365175 -201.724626 
L 455.454176 -199.323423 
L 455.638721 -196.922219 
L 455.865777 -194.521016 
L 456.073147 -192.119812 
L 456.22913 -189.718609 
L 456.362039 -187.317405 
L 456.589453 -184.916201 
L 457.199034 -182.514998 
L 458.822368 -180.113794 
L 462.627612 -177.712591 
L 470.271613 -175.311387 
L 483.281248 -172.910184 
L 501.836554 -170.50898 
L 523.615207 -168.107777 
L 543.846885 -165.706573 
L 557.17497 -163.305369 
L 560.376 -160.904166 
L 553.911613 -158.502962 
L 541.112142 -156.101759 
L 525.878854 -153.700555 
L 510.896229 -151.299352 
L 497.389393 -148.898148 
L 485.81957 -146.496945 
L 476.42693 -144.095741 
L 469.273046 -141.694537 
L 464.140092 -139.293334 
L 460.604175 -136.89213 
L 458.226154 -134.490927 
L 456.671538 -132.089723 
L 455.708555 -129.68852 
L 455.160562 -127.287316 
L 454.880818 -124.886113 
z
" style="stroke: #595959; stroke-width: 1.25"/>
    </defs>
    <g clip-path="url(#p297a5c38db)">
     <use xlink:href="#me5a2816e4f" x="0" y="432" style="fill: #e99675; stroke: #595959; stroke-width: 1.25"/>
    </g>
   </g>
   <g id="PolyCollection_3">
    <defs>
     <path id="md1c3824295" d="M 719.045475 -129.716679 
L 718.794525 -129.716679 
L 718.563982 -132.330727 
L 718.025302 -134.944775 
L 716.90539 -137.558823 
L 714.795368 -140.17287 
L 711.121113 -142.786918 
L 705.144257 -145.400966 
L 696.124903 -148.015014 
L 683.759463 -150.629061 
L 668.671757 -153.243109 
L 652.408246 -155.857157 
L 636.809043 -158.471205 
L 623.577574 -161.085252 
L 614.762279 -163.6993 
L 613.224 -166.313348 
L 621.420448 -168.927396 
L 638.919259 -171.541443 
L 661.404647 -174.155491 
L 682.799479 -176.769539 
L 698.678983 -179.383587 
L 707.985048 -181.997634 
L 712.23551 -184.611682 
L 713.706054 -187.22573 
L 714.153647 -189.839778 
L 714.482271 -192.453825 
L 714.958556 -195.067873 
L 715.530294 -197.681921 
L 716.048323 -200.295969 
L 716.384867 -202.910016 
L 716.494598 -205.524064 
L 716.438679 -208.138112 
L 716.361063 -210.75216 
L 716.410871 -213.366208 
L 716.650183 -215.980255 
L 717.02276 -218.594303 
L 717.415964 -221.208351 
L 717.753493 -223.822399 
L 718.029432 -226.436446 
L 718.27022 -229.050494 
L 718.486514 -231.664542 
L 718.665009 -234.27859 
L 718.790576 -236.892637 
L 718.863328 -239.506685 
L 718.895863 -242.120733 
L 718.900515 -244.734781 
L 718.879424 -247.348828 
L 718.821977 -249.962876 
L 718.709744 -252.576924 
L 718.528256 -255.190972 
L 718.281994 -257.805019 
L 718.004569 -260.419067 
L 717.755745 -263.033115 
L 717.602492 -265.647163 
L 717.590563 -268.26121 
L 717.722367 -270.875258 
L 717.956429 -273.489306 
L 718.228583 -276.103354 
L 718.479372 -278.717401 
L 718.672099 -281.331449 
L 718.796395 -283.945497 
L 718.860185 -286.559545 
L 718.876556 -289.173592 
L 718.854028 -291.78764 
L 718.796988 -294.401688 
L 718.715555 -297.015736 
L 718.634363 -299.629783 
L 718.587176 -302.243831 
L 718.596908 -304.857879 
L 718.658729 -307.471927 
L 718.744004 -310.085974 
L 718.821245 -312.700022 
L 718.873841 -315.31407 
L 718.902028 -317.928118 
L 718.91417 -320.542165 
L 718.918415 -323.156213 
L 718.91958 -325.770261 
L 718.919583 -328.384309 
L 718.918432 -330.998356 
L 718.914224 -333.612404 
L 718.902169 -336.226452 
L 718.874141 -338.8405 
L 718.821749 -341.454548 
L 718.744658 -344.068595 
L 718.659333 -346.682643 
L 718.597189 -349.296691 
L 718.58691 -351.910739 
L 718.633288 -354.524786 
L 718.712699 -357.138834 
L 718.789162 -359.752882 
L 718.834049 -362.36693 
L 718.83384 -364.980977 
L 718.788591 -367.595025 
L 718.711955 -370.209073 
L 718.632681 -372.823121 
L 718.586736 -375.437168 
L 718.597542 -378.051216 
L 718.660039 -380.665264 
L 718.745416 -383.279312 
L 718.822333 -385.893359 
L 718.874487 -388.507407 
L 718.965513 -388.507407 
L 718.965513 -388.507407 
L 719.017667 -385.893359 
L 719.094584 -383.279312 
L 719.179961 -380.665264 
L 719.242458 -378.051216 
L 719.253264 -375.437168 
L 719.207319 -372.823121 
L 719.128045 -370.209073 
L 719.051409 -367.595025 
L 719.00616 -364.980977 
L 719.005951 -362.36693 
L 719.050838 -359.752882 
L 719.127301 -357.138834 
L 719.206712 -354.524786 
L 719.25309 -351.910739 
L 719.242811 -349.296691 
L 719.180667 -346.682643 
L 719.095342 -344.068595 
L 719.018251 -341.454548 
L 718.965859 -338.8405 
L 718.937831 -336.226452 
L 718.925776 -333.612404 
L 718.921568 -330.998356 
L 718.920417 -328.384309 
L 718.92042 -325.770261 
L 718.921585 -323.156213 
L 718.92583 -320.542165 
L 718.937972 -317.928118 
L 718.966159 -315.31407 
L 719.018755 -312.700022 
L 719.095996 -310.085974 
L 719.181271 -307.471927 
L 719.243092 -304.857879 
L 719.252824 -302.243831 
L 719.205637 -299.629783 
L 719.124445 -297.015736 
L 719.043012 -294.401688 
L 718.985972 -291.78764 
L 718.963444 -289.173592 
L 718.979815 -286.559545 
L 719.043605 -283.945497 
L 719.167901 -281.331449 
L 719.360628 -278.717401 
L 719.611417 -276.103354 
L 719.883571 -273.489306 
L 720.117633 -270.875258 
L 720.249437 -268.26121 
L 720.237508 -265.647163 
L 720.084255 -263.033115 
L 719.835431 -260.419067 
L 719.558006 -257.805019 
L 719.311744 -255.190972 
L 719.130256 -252.576924 
L 719.018023 -249.962876 
L 718.960576 -247.348828 
L 718.939485 -244.734781 
L 718.944137 -242.120733 
L 718.976672 -239.506685 
L 719.049424 -236.892637 
L 719.174991 -234.27859 
L 719.353486 -231.664542 
L 719.56978 -229.050494 
L 719.810568 -226.436446 
L 720.086507 -223.822399 
L 720.424036 -221.208351 
L 720.81724 -218.594303 
L 721.189817 -215.980255 
L 721.429129 -213.366208 
L 721.478937 -210.75216 
L 721.401321 -208.138112 
L 721.345402 -205.524064 
L 721.455133 -202.910016 
L 721.791677 -200.295969 
L 722.309706 -197.681921 
L 722.881444 -195.067873 
L 723.357729 -192.453825 
L 723.686353 -189.839778 
L 724.133946 -187.22573 
L 725.60449 -184.611682 
L 729.854952 -181.997634 
L 739.161017 -179.383587 
L 755.040521 -176.769539 
L 776.435353 -174.155491 
L 798.920741 -171.541443 
L 816.419552 -168.927396 
L 824.616 -166.313348 
L 823.077721 -163.6993 
L 814.262426 -161.085252 
L 801.030957 -158.471205 
L 785.431754 -155.857157 
L 769.168243 -153.243109 
L 754.080537 -150.629061 
L 741.715097 -148.015014 
L 732.695743 -145.400966 
L 726.718887 -142.786918 
L 723.044632 -140.17287 
L 720.93461 -137.558823 
L 719.814698 -134.944775 
L 719.276018 -132.330727 
L 719.045475 -129.716679 
z
" style="stroke: #595959; stroke-width: 1.25"/>
    </defs>
    <g clip-path="url(#p297a5c38db)">
     <use xlink:href="#md1c3824295" x="0" y="432" style="fill: #95a3c3; stroke: #595959; stroke-width: 1.25"/>
    </g>
   </g>
   <g id="line2d_10">
    <path d="M 190.44 335.004859 
L 190.44 337.288968 
" clip-path="url(#p297a5c38db)" style="fill: none; stroke: #000000"/>
   </g>
   <g id="line2d_11">
    <path d="M 190.44 333.282481 
L 190.44 330.916168 
" clip-path="url(#p297a5c38db)" style="fill: none; stroke: #000000"/>
   </g>
   <g id="line2d_12">
    <path d="M 180.531 337.288968 
L 200.349 337.288968 
" clip-path="url(#p297a5c38db)" style="fill: none; stroke: #000000; stroke-linecap: round"/>
   </g>
   <g id="line2d_13">
    <path d="M 180.531 330.916168 
L 200.349 330.916168 
" clip-path="url(#p297a5c38db)" style="fill: none; stroke: #000000; stroke-linecap: round"/>
   </g>
   <g id="line2d_14">
    <path d="M 454.68 277.996094 
L 454.68 291.407158 
" clip-path="url(#p297a5c38db)" style="fill: none; stroke: #000000"/>
   </g>
   <g id="line2d_15">
    <path d="M 454.68 268.656106 
L 454.68 262.494689 
" clip-path="url(#p297a5c38db)" style="fill: none; stroke: #000000"/>
   </g>
   <g id="line2d_16">
    <path d="M 444.771 291.407158 
L 464.589 291.407158 
" clip-path="url(#p297a5c38db)" style="fill: none; stroke: #000000; stroke-linecap: round"/>
   </g>
   <g id="line2d_17">
    <path d="M 444.771 262.494689 
L 464.589 262.494689 
" clip-path="url(#p297a5c38db)" style="fill: none; stroke: #000000; stroke-linecap: round"/>
   </g>
   <g id="line2d_18">
    <path d="M 718.92 273.278148 
L 718.92 287.089469 
" clip-path="url(#p297a5c38db)" style="fill: none; stroke: #000000"/>
   </g>
   <g id="line2d_19">
    <path d="M 718.92 262.876353 
L 718.92 255.276358 
" clip-path="url(#p297a5c38db)" style="fill: none; stroke: #000000"/>
   </g>
   <g id="line2d_20">
    <path d="M 709.011 287.089469 
L 728.829 287.089469 
" clip-path="url(#p297a5c38db)" style="fill: none; stroke: #000000; stroke-linecap: round"/>
   </g>
   <g id="line2d_21">
    <path d="M 709.011 255.276358 
L 728.829 255.276358 
" clip-path="url(#p297a5c38db)" style="fill: none; stroke: #000000; stroke-linecap: round"/>
   </g>
   <g id="line2d_22">
    <path d="M 170.622 334.1652 
L 210.258 334.1652 
" clip-path="url(#p297a5c38db)" style="fill: none; stroke: #ff0000; stroke-width: 2"/>
   </g>
   <g id="line2d_23">
    <path d="M 434.862 269.810883 
L 474.498 269.810883 
" clip-path="url(#p297a5c38db)" style="fill: none; stroke: #ff0000; stroke-width: 2"/>
   </g>
   <g id="line2d_24">
    <path d="M 699.102 265.8866 
L 738.738 265.8866 
" clip-path="url(#p297a5c38db)" style="fill: none; stroke: #ff0000; stroke-width: 2"/>
   </g>
   <g id="patch_3">
    <path d="M 58.32 377.237044 
L 58.32 27.6 
" style="fill: none; stroke: #cccccc; stroke-width: 1.25; stroke-linejoin: miter; stroke-linecap: square"/>
   </g>
   <g id="patch_4">
    <path d="M 851.04 377.237044 
L 851.04 27.6 
" style="fill: none; stroke: #cccccc; stroke-width: 1.25; stroke-linejoin: miter; stroke-linecap: square"/>
   </g>
   <g id="patch_5">
    <path d="M 58.32 377.237044 
L 851.04 377.237044 
" style="fill: none; stroke: #cccccc; stroke-width: 1.25; stroke-linejoin: miter; stroke-linecap: square"/>
   </g>
   <g id="patch_6">
    <path d="M 58.32 27.6 
L 851.04 27.6 
" style="fill: none; stroke: #cccccc; stroke-width: 1.25; stroke-linejoin: miter; stroke-linecap: square"/>
   </g>
   <g id="text_14">
    <!-- Handshake duration on TLS with secp521r1 signature algorithm — Local YDE (35ms/2%) -->
    <g style="fill: #262626" transform="translate(188.750625 21.6) scale(0.12 -0.12)">
     <defs>
      <path id="DejaVuSans-54" d="M -19 4666 
L 3928 4666 
L 3928 4134 
L 2272 4134 
L 2272 0 
L 1638 0 
L 1638 4134 
L -19 4134 
L -19 4666 
z
" transform="scale(0.015625)"/>
      <path id="DejaVuSans-4c" d="M 628 4666 
L 1259 4666 
L 1259 531 
L 3531 531 
L 3531 0 
L 628 0 
L 628 4666 
z
" transform="scale(0.015625)"/>
      <path id="DejaVuSans-53" d="M 3425 4513 
L 3425 3897 
Q 3066 4069 2747 4153 
Q 2428 4238 2131 4238 
Q 1616 4238 1336 4038 
Q 1056 3838 1056 3469 
Q 1056 3159 1242 3001 
Q 1428 2844 1947 2747 
L 2328 2669 
Q 3034 2534 3370 2195 
Q 3706 1856 3706 1288 
Q 3706 609 3251 259 
Q 2797 -91 1919 -91 
Q 1588 -91 1214 -16 
Q 841 59 441 206 
L 441 856 
Q 825 641 1194 531 
Q 1563 422 1919 422 
Q 2459 422 2753 634 
Q 3047 847 3047 1241 
Q 3047 1584 2836 1778 
Q 2625 1972 2144 2069 
L 1759 2144 
Q 1053 2284 737 2584 
Q 422 2884 422 3419 
Q 422 4038 858 4394 
Q 1294 4750 2059 4750 
Q 2388 4750 2728 4690 
Q 3069 4631 3425 4513 
z
" transform="scale(0.015625)"/>
      <path id="DejaVuSans-77" d="M 269 3500 
L 844 3500 
L 1563 769 
L 2278 3500 
L 2956 3500 
L 3675 769 
L 4391 3500 
L 4966 3500 
L 4050 0 
L 3372 0 
L 2619 2869 
L 1863 0 
L 1184 0 
L 269 3500 
z
" transform="scale(0.015625)"/>
      <path id="DejaVuSans-67" d="M 2906 1791 
Q 2906 2416 2648 2759 
Q 2391 3103 1925 3103 
Q 1463 3103 1205 2759 
Q 947 2416 947 1791 
Q 947 1169 1205 825 
Q 1463 481 1925 481 
Q 2391 481 2648 825 
Q 2906 1169 2906 1791 
z
M 3481 434 
Q 3481 -459 3084 -895 
Q 2688 -1331 1869 -1331 
Q 1566 -1331 1297 -1286 
Q 1028 -1241 775 -1147 
L 775 -588 
Q 1028 -725 1275 -790 
Q 1522 -856 1778 -856 
Q 2344 -856 2625 -561 
Q 2906 -266 2906 331 
L 2906 616 
Q 2728 306 2450 153 
Q 2172 0 1784 0 
Q 1141 0 747 490 
Q 353 981 353 1791 
Q 353 2603 747 3093 
Q 1141 3584 1784 3584 
Q 2172 3584 2450 3431 
Q 2728 3278 2906 2969 
L 2906 3500 
L 3481 3500 
L 3481 434 
z
" transform="scale(0.015625)"/>
      <path id="DejaVuSans-6c" d="M 603 4863 
L 1178 4863 
L 1178 0 
L 603 0 
L 603 4863 
z
" transform="scale(0.015625)"/>
      <path id="DejaVuSans-2014" d="M 313 1978 
L 6088 1978 
L 6088 1528 
L 313 1528 
L 313 1978 
z
" transform="scale(0.015625)"/>
      <path id="DejaVuSans-59" d="M -13 4666 
L 666 4666 
L 1959 2747 
L 3244 4666 
L 3922 4666 
L 2272 2222 
L 2272 0 
L 1638 0 
L 1638 2222 
L -13 4666 
z
" transform="scale(0.015625)"/>
      <path id="DejaVuSans-44" d="M 1259 4147 
L 1259 519 
L 2022 519 
Q 2988 519 3436 956 
Q 3884 1394 3884 2338 
Q 3884 3275 3436 3711 
Q 2988 4147 2022 4147 
L 1259 4147 
z
M 628 4666 
L 1925 4666 
Q 3281 4666 3915 4102 
Q 4550 3538 4550 2338 
Q 4550 1131 3912 565 
Q 3275 0 1925 0 
L 628 0 
L 628 4666 
z
" transform="scale(0.015625)"/>
      <path id="DejaVuSans-45" d="M 628 4666 
L 3578 4666 
L 3578 4134 
L 1259 4134 
L 1259 2753 
L 3481 2753 
L 3481 2222 
L 1259 2222 
L 1259 531 
L 3634 531 
L 3634 0 
L 628 0 
L 628 4666 
z
" transform="scale(0.015625)"/>
      <path id="DejaVuSans-2f" d="M 1625 4666 
L 2156 4666 
L 531 -594 
L 0 -594 
L 1625 4666 
z
" transform="scale(0.015625)"/>
      <path id="DejaVuSans-25" d="M 4653 2053 
Q 4381 2053 4226 1822 
Q 4072 1591 4072 1178 
Q 4072 772 4226 539 
Q 4381 306 4653 306 
Q 4919 306 5073 539 
Q 5228 772 5228 1178 
Q 5228 1588 5073 1820 
Q 4919 2053 4653 2053 
z
M 4653 2450 
Q 5147 2450 5437 2106 
Q 5728 1763 5728 1178 
Q 5728 594 5436 251 
Q 5144 -91 4653 -91 
Q 4153 -91 3862 251 
Q 3572 594 3572 1178 
Q 3572 1766 3864 2108 
Q 4156 2450 4653 2450 
z
M 1428 4353 
Q 1159 4353 1004 4120 
Q 850 3888 850 3481 
Q 850 3069 1003 2837 
Q 1156 2606 1428 2606 
Q 1700 2606 1854 2837 
Q 2009 3069 2009 3481 
Q 2009 3884 1853 4118 
Q 1697 4353 1428 4353 
z
M 4250 4750 
L 4750 4750 
L 1831 -91 
L 1331 -91 
L 4250 4750 
z
M 1428 4750 
Q 1922 4750 2215 4408 
Q 2509 4066 2509 3481 
Q 2509 2891 2217 2550 
Q 1925 2209 1428 2209 
Q 931 2209 642 2551 
Q 353 2894 353 3481 
Q 353 4063 643 4406 
Q 934 4750 1428 4750 
z
" transform="scale(0.015625)"/>
     </defs>
     <use xlink:href="#DejaVuSans-48"/>
     <use xlink:href="#DejaVuSans-61" x="75.195312"/>
     <use xlink:href="#DejaVuSans-6e" x="136.474609"/>
     <use xlink:href="#DejaVuSans-64" x="199.853516"/>
     <use xlink:href="#DejaVuSans-73" x="263.330078"/>
     <use xlink:href="#DejaVuSans-68" x="315.429688"/>
     <use xlink:href="#DejaVuSans-61" x="378.808594"/>
     <use xlink:href="#DejaVuSans-6b" x="440.087891"/>
     <use xlink:href="#DejaVuSans-65" x="494.373047"/>
     <use xlink:href="#DejaVuSans-20" x="555.896484"/>
     <use xlink:href="#DejaVuSans-64" x="587.683594"/>
     <use xlink:href="#DejaVuSans-75" x="651.160156"/>
     <use xlink:href="#DejaVuSans-72" x="714.539062"/>
     <use xlink:href="#DejaVuSans-61" x="755.652344"/>
     <use xlink:href="#DejaVuSans-74" x="816.931641"/>
     <use xlink:href="#DejaVuSans-69" x="856.140625"/>
     <use xlink:href="#DejaVuSans-6f" x="883.923828"/>
     <use xlink:href="#DejaVuSans-6e" x="945.105469"/>
     <use xlink:href="#DejaVuSans-20" x="1008.484375"/>
     <use xlink:href="#DejaVuSans-6f" x="1040.271484"/>
     <use xlink:href="#DejaVuSans-6e" x="1101.453125"/>
     <use xlink:href="#DejaVuSans-20" x="1164.832031"/>
     <use xlink:href="#DejaVuSans-54" x="1196.619141"/>
     <use xlink:href="#DejaVuSans-4c" x="1257.703125"/>
     <use xlink:href="#DejaVuSans-53" x="1313.416016"/>
     <use xlink:href="#DejaVuSans-20" x="1376.892578"/>
     <use xlink:href="#DejaVuSans-77" x="1408.679688"/>
     <use xlink:href="#DejaVuSans-69" x="1490.466797"/>
     <use xlink:href="#DejaVuSans-74" x="1518.25"/>
     <use xlink:href="#DejaVuSans-68" x="1557.458984"/>
     <use xlink:href="#DejaVuSans-20" x="1620.837891"/>
     <use xlink:href="#DejaVuSans-73" x="1652.625"/>
     <use xlink:href="#DejaVuSans-65" x="1704.724609"/>
     <use xlink:href="#DejaVuSans-63" x="1766.248047"/>
     <use xlink:href="#DejaVuSans-70" x="1821.228516"/>
     <use xlink:href="#DejaVuSans-35" x="1884.705078"/>
     <use xlink:href="#DejaVuSans-32" x="1948.328125"/>
     <use xlink:href="#DejaVuSans-31" x="2011.951172"/>
     <use xlink:href="#DejaVuSans-72" x="2075.574219"/>
     <use xlink:href="#DejaVuSans-31" x="2116.6875"/>
     <use xlink:href="#DejaVuSans-20" x="2180.310547"/>
     <use xlink:href="#DejaVuSans-73" x="2212.097656"/>
     <use xlink:href="#DejaVuSans-69" x="2264.197266"/>
     <use xlink:href="#DejaVuSans-67" x="2291.980469"/>
     <use xlink:href="#DejaVuSans-6e" x="2355.457031"/>
     <use xlink:href="#DejaVuSans-61" x="2418.835938"/>
     <use xlink:href="#DejaVuSans-74" x="2480.115234"/>
     <use xlink:href="#DejaVuSans-75" x="2519.324219"/>
     <use xlink:href="#DejaVuSans-72" x="2582.703125"/>
     <use xlink:href="#DejaVuSans-65" x="2621.566406"/>
     <use xlink:href="#DejaVuSans-20" x="2683.089844"/>
     <use xlink:href="#DejaVuSans-61" x="2714.876953"/>
     <use xlink:href="#DejaVuSans-6c" x="2776.15625"/>
     <use xlink:href="#DejaVuSans-67" x="2803.939453"/>
     <use xlink:href="#DejaVuSans-6f" x="2867.416016"/>
     <use xlink:href="#DejaVuSans-72" x="2928.597656"/>
     <use xlink:href="#DejaVuSans-69" x="2969.710938"/>
     <use xlink:href="#DejaVuSans-74" x="2997.494141"/>
     <use xlink:href="#DejaVuSans-68" x="3036.703125"/>
     <use xlink:href="#DejaVuSans-6d" x="3100.082031"/>
     <use xlink:href="#DejaVuSans-20" x="3197.494141"/>
     <use xlink:href="#DejaVuSans-2014" x="3229.28125"/>
     <use xlink:href="#DejaVuSans-20" x="3329.28125"/>
     <use xlink:href="#DejaVuSans-4c" x="3361.068359"/>
     <use xlink:href="#DejaVuSans-6f" x="3415.03125"/>
     <use xlink:href="#DejaVuSans-63" x="3476.212891"/>
     <use xlink:href="#DejaVuSans-61" x="3531.193359"/>
     <use xlink:href="#DejaVuSans-6c" x="3592.472656"/>
     <use xlink:href="#DejaVuSans-20" x="3620.255859"/>
     <use xlink:href="#DejaVuSans-59" x="3652.042969"/>
     <use xlink:href="#DejaVuSans-44" x="3713.126953"/>
     <use xlink:href="#DejaVuSans-45" x="3790.128906"/>
     <use xlink:href="#DejaVuSans-20" x="3853.3125"/>
     <use xlink:href="#DejaVuSans-28" x="3885.099609"/>
     <use xlink:href="#DejaVuSans-33" x="3924.113281"/>
     <use xlink:href="#DejaVuSans-35" x="3987.736328"/>
     <use xlink:href="#DejaVuSans-6d" x="4051.359375"/>
     <use xlink:href="#DejaVuSans-73" x="4148.771484"/>
     <use xlink:href="#DejaVuSans-2f" x="4200.871094"/>
     <use xlink:href="#DejaVuSans-32" x="4234.5625"/>
     <use xlink:href="#DejaVuSans-25" x="4298.185547"/>
     <use xlink:href="#DejaVuSans-29" x="4393.205078"/>
    </g>
   </g>
  </g>
 </g>
 <defs>
  <clipPath id="p297a5c38db">
   <rect x="58.32" y="27.6" width="792.72" height="349.637044"/>
  </clipPath>
 </defs>
</svg>
