<?xml version="1.0" encoding="utf-8" standalone="no"?>
<!DOCTYPE svg PUBLIC "-//W3C//DTD SVG 1.1//EN"
  "http://www.w3.org/Graphics/SVG/1.1/DTD/svg11.dtd">
<svg xmlns:xlink="http://www.w3.org/1999/xlink" width="864pt" height="432pt" viewBox="0 0 864 432" xmlns="http://www.w3.org/2000/svg" version="1.1">
 <metadata>
  <rdf:RDF xmlns:dc="http://purl.org/dc/elements/1.1/" xmlns:cc="http://creativecommons.org/ns#" xmlns:rdf="http://www.w3.org/1999/02/22-rdf-syntax-ns#">
   <cc:Work>
    <dc:type rdf:resource="http://purl.org/dc/dcmitype/StillImage"/>
    <dc:date>2026-03-21T14:06:21.214467</dc:date>
    <dc:format>image/svg+xml</dc:format>
    <dc:creator>
     <cc:Agent>
      <dc:title>Matplotlib v3.6.3, https://matplotlib.org/</dc:title>
     </cc:Agent>
    </dc:creator>
   </cc:Work>
  </rdf:RDF>
 </metadata>
 <defs>
  <style type="text/css">*{stroke-linejoin: round; stroke-linecap: butt}</style>
 </defs>
 <g id="figure_1">
  <g id="patch_1">
   <path d="M 0 432 
L 864 432 
L 864 0 
L 0 0 
z
" style="fill: #ffffff"/>
  </g>
  <g id="axes_1">
   <g id="patch_2">
    <path d="M 58.32 377.237044 
L 851.04 377.237044 
L 851.04 27.6 
L 58.32 27.6 
z
" style="fill: #ffffff"/>
   </g>
   <g id="matplotlib.axis_1">
    <g id="xtick_1">
     <g id="text_1">
      <!-- P-384 -->
      <g style="fill: #262626" transform="translate(103.911421 404.396088) rotate(-15) scale(0.12 -0.12)">
       <defs>
        <path id="DejaVuSans-50" d="M 1259 4147 
L 1259 2394 
L 2053 2394 
Q 2494 2394 2734 2622 
Q 2975 2850 2975 3272 
Q 2975 3691 2734 3919 
Q 2494 4147 2053 4147 
L 1259 4147 
z
M 628 4666 
L 2053 4666 
Q 2838 4666 3239 4311 
Q 3641 3956 3641 3272 
Q 3641 2581 3239 2228 
Q 2838 1875 2053 1875 
L 1259 1875 
L 1259 0 
L 628 0 
L 628 4666 
z
" transform="scale(0.015625)"/>
        <path id="DejaVuSans-2d" d="M 313 2009 
L 1997 2009 
L 1997 1497 
L 313 1497 
L 313 2009 
z
" transform="scale(0.015625)"/>
        <path id="DejaVuSans-33" d="M 2597 2516 
Q 3050 2419 3304 2112 
Q 3559 1806 3559 1356 
Q 3559 666 3084 287 
Q 2609 -91 1734 -91 
Q 1441 -91 1130 -33 
Q 819 25 488 141 
L 488 750 
Q 750 597 1062 519 
Q 1375 441 1716 441 
Q 2309 441 2620 675 
Q 2931 909 2931 1356 
Q 2931 1769 2642 2001 
Q 2353 2234 1838 2234 
L 1294 2234 
L 1294 2753 
L 1863 2753 
Q 2328 2753 2575 2939 
Q 2822 3125 2822 3475 
Q 2822 3834 2567 4026 
Q 2313 4219 1838 4219 
Q 1578 4219 1281 4162 
Q 984 4106 628 3988 
L 628 4550 
Q 988 4650 1302 4700 
Q 1616 4750 1894 4750 
Q 2613 4750 3031 4423 
Q 3450 4097 3450 3541 
Q 3450 3153 3228 2886 
Q 3006 2619 2597 2516 
z
" transform="scale(0.015625)"/>
        <path id="DejaVuSans-38" d="M 2034 2216 
Q 1584 2216 1326 1975 
Q 1069 1734 1069 1313 
Q 1069 891 1326 650 
Q 1584 409 2034 409 
Q 2484 409 2743 651 
Q 3003 894 3003 1313 
Q 3003 1734 2745 1975 
Q 2488 2216 2034 2216 
z
M 1403 2484 
Q 997 2584 770 2862 
Q 544 3141 544 3541 
Q 544 4100 942 4425 
Q 1341 4750 2034 4750 
Q 2731 4750 3128 4425 
Q 3525 4100 3525 3541 
Q 3525 3141 3298 2862 
Q 3072 2584 2669 2484 
Q 3125 2378 3379 2068 
Q 3634 1759 3634 1313 
Q 3634 634 3220 271 
Q 2806 -91 2034 -91 
Q 1263 -91 848 271 
Q 434 634 434 1313 
Q 434 1759 690 2068 
Q 947 2378 1403 2484 
z
M 1172 3481 
Q 1172 3119 1398 2916 
Q 1625 2713 2034 2713 
Q 2441 2713 2670 2916 
Q 2900 3119 2900 3481 
Q 2900 3844 2670 4047 
Q 2441 4250 2034 4250 
Q 1625 4250 1398 4047 
Q 1172 3844 1172 3481 
z
" transform="scale(0.015625)"/>
        <path id="DejaVuSans-34" d="M 2419 4116 
L 825 1625 
L 2419 1625 
L 2419 4116 
z
M 2253 4666 
L 3047 4666 
L 3047 1625 
L 3713 1625 
L 3713 1100 
L 3047 1100 
L 3047 0 
L 2419 0 
L 2419 1100 
L 313 1100 
L 313 1709 
L 2253 4666 
z
" transform="scale(0.015625)"/>
       </defs>
       <use xlink:href="#DejaVuSans-50"/>
       <use xlink:href="#DejaVuSans-2d" x="58.052734"/>
       <use xlink:href="#DejaVuSans-33" x="94.136719"/>
       <use xlink:href="#DejaVuSans-38" x="157.759766"/>
       <use xlink:href="#DejaVuSans-34" x="221.382812"/>
      </g>
     </g>
    </g>
    <g id="xtick_2">
     <g id="text_2">
      <!-- x448 -->
      <g style="fill: #262626" transform="translate(266.505065 403.310989) rotate(-15) scale(0.12 -0.12)">
       <defs>
        <path id="DejaVuSans-78" d="M 3513 3500 
L 2247 1797 
L 3578 0 
L 2900 0 
L 1881 1375 
L 863 0 
L 184 0 
L 1544 1831 
L 300 3500 
L 978 3500 
L 1906 2253 
L 2834 3500 
L 3513 3500 
z
" transform="scale(0.015625)"/>
       </defs>
       <use xlink:href="#DejaVuSans-78"/>
       <use xlink:href="#DejaVuSans-34" x="59.179688"/>
       <use xlink:href="#DejaVuSans-34" x="122.802734"/>
       <use xlink:href="#DejaVuSans-38" x="186.425781"/>
      </g>
     </g>
    </g>
    <g id="xtick_3">
     <g id="text_3">
      <!-- hqc192 -->
      <g style="fill: #262626" transform="translate(410.831845 407.120482) rotate(-15) scale(0.12 -0.12)">
       <defs>
        <path id="DejaVuSans-68" d="M 3513 2113 
L 3513 0 
L 2938 0 
L 2938 2094 
Q 2938 2591 2744 2837 
Q 2550 3084 2163 3084 
Q 1697 3084 1428 2787 
Q 1159 2491 1159 1978 
L 1159 0 
L 581 0 
L 581 4863 
L 1159 4863 
L 1159 2956 
Q 1366 3272 1645 3428 
Q 1925 3584 2291 3584 
Q 2894 3584 3203 3211 
Q 3513 2838 3513 2113 
z
" transform="scale(0.015625)"/>
        <path id="DejaVuSans-71" d="M 947 1747 
Q 947 1113 1208 752 
Q 1469 391 1925 391 
Q 2381 391 2643 752 
Q 2906 1113 2906 1747 
Q 2906 2381 2643 2742 
Q 2381 3103 1925 3103 
Q 1469 3103 1208 2742 
Q 947 2381 947 1747 
z
M 2906 525 
Q 2725 213 2448 61 
Q 2172 -91 1784 -91 
Q 1150 -91 751 415 
Q 353 922 353 1747 
Q 353 2572 751 3078 
Q 1150 3584 1784 3584 
Q 2172 3584 2448 3432 
Q 2725 3281 2906 2969 
L 2906 3500 
L 3481 3500 
L 3481 -1331 
L 2906 -1331 
L 2906 525 
z
" transform="scale(0.015625)"/>
        <path id="DejaVuSans-63" d="M 3122 3366 
L 3122 2828 
Q 2878 2963 2633 3030 
Q 2388 3097 2138 3097 
Q 1578 3097 1268 2742 
Q 959 2388 959 1747 
Q 959 1106 1268 751 
Q 1578 397 2138 397 
Q 2388 397 2633 464 
Q 2878 531 3122 666 
L 3122 134 
Q 2881 22 2623 -34 
Q 2366 -91 2075 -91 
Q 1284 -91 818 406 
Q 353 903 353 1747 
Q 353 2603 823 3093 
Q 1294 3584 2113 3584 
Q 2378 3584 2631 3529 
Q 2884 3475 3122 3366 
z
" transform="scale(0.015625)"/>
        <path id="DejaVuSans-31" d="M 794 531 
L 1825 531 
L 1825 4091 
L 703 3866 
L 703 4441 
L 1819 4666 
L 2450 4666 
L 2450 531 
L 3481 531 
L 3481 0 
L 794 0 
L 794 531 
z
" transform="scale(0.015625)"/>
        <path id="DejaVuSans-39" d="M 703 97 
L 703 672 
Q 941 559 1184 500 
Q 1428 441 1663 441 
Q 2288 441 2617 861 
Q 2947 1281 2994 2138 
Q 2813 1869 2534 1725 
Q 2256 1581 1919 1581 
Q 1219 1581 811 2004 
Q 403 2428 403 3163 
Q 403 3881 828 4315 
Q 1253 4750 1959 4750 
Q 2769 4750 3195 4129 
Q 3622 3509 3622 2328 
Q 3622 1225 3098 567 
Q 2575 -91 1691 -91 
Q 1453 -91 1209 -44 
Q 966 3 703 97 
z
M 1959 2075 
Q 2384 2075 2632 2365 
Q 2881 2656 2881 3163 
Q 2881 3666 2632 3958 
Q 2384 4250 1959 4250 
Q 1534 4250 1286 3958 
Q 1038 3666 1038 3163 
Q 1038 2656 1286 2365 
Q 1534 2075 1959 2075 
z
" transform="scale(0.015625)"/>
        <path id="DejaVuSans-32" d="M 1228 531 
L 3431 531 
L 3431 0 
L 469 0 
L 469 531 
Q 828 903 1448 1529 
Q 2069 2156 2228 2338 
Q 2531 2678 2651 2914 
Q 2772 3150 2772 3378 
Q 2772 3750 2511 3984 
Q 2250 4219 1831 4219 
Q 1534 4219 1204 4116 
Q 875 4013 500 3803 
L 500 4441 
Q 881 4594 1212 4672 
Q 1544 4750 1819 4750 
Q 2544 4750 2975 4387 
Q 3406 4025 3406 3419 
Q 3406 3131 3298 2873 
Q 3191 2616 2906 2266 
Q 2828 2175 2409 1742 
Q 1991 1309 1228 531 
z
" transform="scale(0.015625)"/>
       </defs>
       <use xlink:href="#DejaVuSans-68"/>
       <use xlink:href="#DejaVuSans-71" x="63.378906"/>
       <use xlink:href="#DejaVuSans-63" x="126.855469"/>
       <use xlink:href="#DejaVuSans-31" x="181.835938"/>
       <use xlink:href="#DejaVuSans-39" x="245.458984"/>
       <use xlink:href="#DejaVuSans-32" x="309.082031"/>
      </g>
     </g>
    </g>
    <g id="xtick_4">
     <g id="text_4">
      <!-- p384_hqc192 -->
      <g style="fill: #262626" transform="translate(534.010834 416.573362) rotate(-15) scale(0.12 -0.12)">
       <defs>
        <path id="DejaVuSans-70" d="M 1159 525 
L 1159 -1331 
L 581 -1331 
L 581 3500 
L 1159 3500 
L 1159 2969 
Q 1341 3281 1617 3432 
Q 1894 3584 2278 3584 
Q 2916 3584 3314 3078 
Q 3713 2572 3713 1747 
Q 3713 922 3314 415 
Q 2916 -91 2278 -91 
Q 1894 -91 1617 61 
Q 1341 213 1159 525 
z
M 3116 1747 
Q 3116 2381 2855 2742 
Q 2594 3103 2138 3103 
Q 1681 3103 1420 2742 
Q 1159 2381 1159 1747 
Q 1159 1113 1420 752 
Q 1681 391 2138 391 
Q 2594 391 2855 752 
Q 3116 1113 3116 1747 
z
" transform="scale(0.015625)"/>
        <path id="DejaVuSans-5f" d="M 3263 -1063 
L 3263 -1509 
L -63 -1509 
L -63 -1063 
L 3263 -1063 
z
" transform="scale(0.015625)"/>
       </defs>
       <use xlink:href="#DejaVuSans-70"/>
       <use xlink:href="#DejaVuSans-33" x="63.476562"/>
       <use xlink:href="#DejaVuSans-38" x="127.099609"/>
       <use xlink:href="#DejaVuSans-34" x="190.722656"/>
       <use xlink:href="#DejaVuSans-5f" x="254.345703"/>
       <use xlink:href="#DejaVuSans-68" x="304.345703"/>
       <use xlink:href="#DejaVuSans-71" x="367.724609"/>
       <use xlink:href="#DejaVuSans-63" x="431.201172"/>
       <use xlink:href="#DejaVuSans-31" x="486.181641"/>
       <use xlink:href="#DejaVuSans-39" x="549.804688"/>
       <use xlink:href="#DejaVuSans-32" x="613.427734"/>
      </g>
     </g>
    </g>
    <g id="xtick_5">
     <g id="text_5">
      <!-- x448_hqc192 -->
      <g style="fill: #262626" transform="translate(693.05289 416.439909) rotate(-15) scale(0.12 -0.12)">
       <use xlink:href="#DejaVuSans-78"/>
       <use xlink:href="#DejaVuSans-34" x="59.179688"/>
       <use xlink:href="#DejaVuSans-34" x="122.802734"/>
       <use xlink:href="#DejaVuSans-38" x="186.425781"/>
       <use xlink:href="#DejaVuSans-5f" x="250.048828"/>
       <use xlink:href="#DejaVuSans-68" x="300.048828"/>
       <use xlink:href="#DejaVuSans-71" x="363.427734"/>
       <use xlink:href="#DejaVuSans-63" x="426.904297"/>
       <use xlink:href="#DejaVuSans-31" x="481.884766"/>
       <use xlink:href="#DejaVuSans-39" x="545.507812"/>
       <use xlink:href="#DejaVuSans-32" x="609.130859"/>
      </g>
     </g>
    </g>
   </g>
   <g id="matplotlib.axis_2">
    <g id="ytick_1">
     <g id="line2d_1">
      <path d="M 58.32 369.538352 
L 851.04 369.538352 
" clip-path="url(#p24a35f538d)" style="fill: none; stroke: #cccccc; stroke-linecap: round"/>
     </g>
     <g id="text_6">
      <!-- 100 -->
      <g style="fill: #262626" transform="translate(27.82375 373.717493) scale(0.11 -0.11)">
       <defs>
        <path id="DejaVuSans-30" d="M 2034 4250 
Q 1547 4250 1301 3770 
Q 1056 3291 1056 2328 
Q 1056 1369 1301 889 
Q 1547 409 2034 409 
Q 2525 409 2770 889 
Q 3016 1369 3016 2328 
Q 3016 3291 2770 3770 
Q 2525 4250 2034 4250 
z
M 2034 4750 
Q 2819 4750 3233 4129 
Q 3647 3509 3647 2328 
Q 3647 1150 3233 529 
Q 2819 -91 2034 -91 
Q 1250 -91 836 529 
Q 422 1150 422 2328 
Q 422 3509 836 4129 
Q 1250 4750 2034 4750 
z
" transform="scale(0.015625)"/>
       </defs>
       <use xlink:href="#DejaVuSans-31"/>
       <use xlink:href="#DejaVuSans-30" x="63.623047"/>
       <use xlink:href="#DejaVuSans-30" x="127.246094"/>
      </g>
     </g>
    </g>
    <g id="ytick_2">
     <g id="line2d_2">
      <path d="M 58.32 326.932411 
L 851.04 326.932411 
" clip-path="url(#p24a35f538d)" style="fill: none; stroke: #cccccc; stroke-linecap: round"/>
     </g>
     <g id="text_7">
      <!-- 200 -->
      <g style="fill: #262626" transform="translate(27.82375 331.111552) scale(0.11 -0.11)">
       <use xlink:href="#DejaVuSans-32"/>
       <use xlink:href="#DejaVuSans-30" x="63.623047"/>
       <use xlink:href="#DejaVuSans-30" x="127.246094"/>
      </g>
     </g>
    </g>
    <g id="ytick_3">
     <g id="line2d_3">
      <path d="M 58.32 284.326469 
L 851.04 284.326469 
" clip-path="url(#p24a35f538d)" style="fill: none; stroke: #cccccc; stroke-linecap: round"/>
     </g>
     <g id="text_8">
      <!-- 300 -->
      <g style="fill: #262626" transform="translate(27.82375 288.50561) scale(0.11 -0.11)">
       <use xlink:href="#DejaVuSans-33"/>
       <use xlink:href="#DejaVuSans-30" x="63.623047"/>
       <use xlink:href="#DejaVuSans-30" x="127.246094"/>
      </g>
     </g>
    </g>
    <g id="ytick_4">
     <g id="line2d_4">
      <path d="M 58.32 241.720528 
L 851.04 241.720528 
" clip-path="url(#p24a35f538d)" style="fill: none; stroke: #cccccc; stroke-linecap: round"/>
     </g>
     <g id="text_9">
      <!-- 400 -->
      <g style="fill: #262626" transform="translate(27.82375 245.899669) scale(0.11 -0.11)">
       <use xlink:href="#DejaVuSans-34"/>
       <use xlink:href="#DejaVuSans-30" x="63.623047"/>
       <use xlink:href="#DejaVuSans-30" x="127.246094"/>
      </g>
     </g>
    </g>
    <g id="ytick_5">
     <g id="line2d_5">
      <path d="M 58.32 199.114587 
L 851.04 199.114587 
" clip-path="url(#p24a35f538d)" style="fill: none; stroke: #cccccc; stroke-linecap: round"/>
     </g>
     <g id="text_10">
      <!-- 500 -->
      <g style="fill: #262626" transform="translate(27.82375 203.293727) scale(0.11 -0.11)">
       <defs>
        <path id="DejaVuSans-35" d="M 691 4666 
L 3169 4666 
L 3169 4134 
L 1269 4134 
L 1269 2991 
Q 1406 3038 1543 3061 
Q 1681 3084 1819 3084 
Q 2600 3084 3056 2656 
Q 3513 2228 3513 1497 
Q 3513 744 3044 326 
Q 2575 -91 1722 -91 
Q 1428 -91 1123 -41 
Q 819 9 494 109 
L 494 744 
Q 775 591 1075 516 
Q 1375 441 1709 441 
Q 2250 441 2565 725 
Q 2881 1009 2881 1497 
Q 2881 1984 2565 2268 
Q 2250 2553 1709 2553 
Q 1456 2553 1204 2497 
Q 953 2441 691 2322 
L 691 4666 
z
" transform="scale(0.015625)"/>
       </defs>
       <use xlink:href="#DejaVuSans-35"/>
       <use xlink:href="#DejaVuSans-30" x="63.623047"/>
       <use xlink:href="#DejaVuSans-30" x="127.246094"/>
      </g>
     </g>
    </g>
    <g id="ytick_6">
     <g id="line2d_6">
      <path d="M 58.32 156.508645 
L 851.04 156.508645 
" clip-path="url(#p24a35f538d)" style="fill: none; stroke: #cccccc; stroke-linecap: round"/>
     </g>
     <g id="text_11">
      <!-- 600 -->
      <g style="fill: #262626" transform="translate(27.82375 160.687786) scale(0.11 -0.11)">
       <defs>
        <path id="DejaVuSans-36" d="M 2113 2584 
Q 1688 2584 1439 2293 
Q 1191 2003 1191 1497 
Q 1191 994 1439 701 
Q 1688 409 2113 409 
Q 2538 409 2786 701 
Q 3034 994 3034 1497 
Q 3034 2003 2786 2293 
Q 2538 2584 2113 2584 
z
M 3366 4563 
L 3366 3988 
Q 3128 4100 2886 4159 
Q 2644 4219 2406 4219 
Q 1781 4219 1451 3797 
Q 1122 3375 1075 2522 
Q 1259 2794 1537 2939 
Q 1816 3084 2150 3084 
Q 2853 3084 3261 2657 
Q 3669 2231 3669 1497 
Q 3669 778 3244 343 
Q 2819 -91 2113 -91 
Q 1303 -91 875 529 
Q 447 1150 447 2328 
Q 447 3434 972 4092 
Q 1497 4750 2381 4750 
Q 2619 4750 2861 4703 
Q 3103 4656 3366 4563 
z
" transform="scale(0.015625)"/>
       </defs>
       <use xlink:href="#DejaVuSans-36"/>
       <use xlink:href="#DejaVuSans-30" x="63.623047"/>
       <use xlink:href="#DejaVuSans-30" x="127.246094"/>
      </g>
     </g>
    </g>
    <g id="ytick_7">
     <g id="line2d_7">
      <path d="M 58.32 113.902704 
L 851.04 113.902704 
" clip-path="url(#p24a35f538d)" style="fill: none; stroke: #cccccc; stroke-linecap: round"/>
     </g>
     <g id="text_12">
      <!-- 700 -->
      <g style="fill: #262626" transform="translate(27.82375 118.081844) scale(0.11 -0.11)">
       <defs>
        <path id="DejaVuSans-37" d="M 525 4666 
L 3525 4666 
L 3525 4397 
L 1831 0 
L 1172 0 
L 2766 4134 
L 525 4134 
L 525 4666 
z
" transform="scale(0.015625)"/>
       </defs>
       <use xlink:href="#DejaVuSans-37"/>
       <use xlink:href="#DejaVuSans-30" x="63.623047"/>
       <use xlink:href="#DejaVuSans-30" x="127.246094"/>
      </g>
     </g>
    </g>
    <g id="ytick_8">
     <g id="line2d_8">
      <path d="M 58.32 71.296762 
L 851.04 71.296762 
" clip-path="url(#p24a35f538d)" style="fill: none; stroke: #cccccc; stroke-linecap: round"/>
     </g>
     <g id="text_13">
      <!-- 800 -->
      <g style="fill: #262626" transform="translate(27.82375 75.475903) scale(0.11 -0.11)">
       <use xlink:href="#DejaVuSans-38"/>
       <use xlink:href="#DejaVuSans-30" x="63.623047"/>
       <use xlink:href="#DejaVuSans-30" x="127.246094"/>
      </g>
     </g>
    </g>
    <g id="ytick_9">
     <g id="line2d_9">
      <path d="M 58.32 28.690821 
L 851.04 28.690821 
" clip-path="url(#p24a35f538d)" style="fill: none; stroke: #cccccc; stroke-linecap: round"/>
     </g>
     <g id="text_14">
      <!-- 900 -->
      <g style="fill: #262626" transform="translate(27.82375 32.869961) scale(0.11 -0.11)">
       <use xlink:href="#DejaVuSans-39"/>
       <use xlink:href="#DejaVuSans-30" x="63.623047"/>
       <use xlink:href="#DejaVuSans-30" x="127.246094"/>
      </g>
     </g>
    </g>
    <g id="text_15">
     <!-- Handshake duration (ms) -->
     <g style="fill: #262626" transform="translate(21.328125 278.486335) rotate(-90) scale(0.12 -0.12)">
      <defs>
       <path id="DejaVuSans-48" d="M 628 4666 
L 1259 4666 
L 1259 2753 
L 3553 2753 
L 3553 4666 
L 4184 4666 
L 4184 0 
L 3553 0 
L 3553 2222 
L 1259 2222 
L 1259 0 
L 628 0 
L 628 4666 
z
" transform="scale(0.015625)"/>
       <path id="DejaVuSans-61" d="M 2194 1759 
Q 1497 1759 1228 1600 
Q 959 1441 959 1056 
Q 959 750 1161 570 
Q 1363 391 1709 391 
Q 2188 391 2477 730 
Q 2766 1069 2766 1631 
L 2766 1759 
L 2194 1759 
z
M 3341 1997 
L 3341 0 
L 2766 0 
L 2766 531 
Q 2569 213 2275 61 
Q 1981 -91 1556 -91 
Q 1019 -91 701 211 
Q 384 513 384 1019 
Q 384 1609 779 1909 
Q 1175 2209 1959 2209 
L 2766 2209 
L 2766 2266 
Q 2766 2663 2505 2880 
Q 2244 3097 1772 3097 
Q 1472 3097 1187 3025 
Q 903 2953 641 2809 
L 641 3341 
Q 956 3463 1253 3523 
Q 1550 3584 1831 3584 
Q 2591 3584 2966 3190 
Q 3341 2797 3341 1997 
z
" transform="scale(0.015625)"/>
       <path id="DejaVuSans-6e" d="M 3513 2113 
L 3513 0 
L 2938 0 
L 2938 2094 
Q 2938 2591 2744 2837 
Q 2550 3084 2163 3084 
Q 1697 3084 1428 2787 
Q 1159 2491 1159 1978 
L 1159 0 
L 581 0 
L 581 3500 
L 1159 3500 
L 1159 2956 
Q 1366 3272 1645 3428 
Q 1925 3584 2291 3584 
Q 2894 3584 3203 3211 
Q 3513 2838 3513 2113 
z
" transform="scale(0.015625)"/>
       <path id="DejaVuSans-64" d="M 2906 2969 
L 2906 4863 
L 3481 4863 
L 3481 0 
L 2906 0 
L 2906 525 
Q 2725 213 2448 61 
Q 2172 -91 1784 -91 
Q 1150 -91 751 415 
Q 353 922 353 1747 
Q 353 2572 751 3078 
Q 1150 3584 1784 3584 
Q 2172 3584 2448 3432 
Q 2725 3281 2906 2969 
z
M 947 1747 
Q 947 1113 1208 752 
Q 1469 391 1925 391 
Q 2381 391 2643 752 
Q 2906 1113 2906 1747 
Q 2906 2381 2643 2742 
Q 2381 3103 1925 3103 
Q 1469 3103 1208 2742 
Q 947 2381 947 1747 
z
" transform="scale(0.015625)"/>
       <path id="DejaVuSans-73" d="M 2834 3397 
L 2834 2853 
Q 2591 2978 2328 3040 
Q 2066 3103 1784 3103 
Q 1356 3103 1142 2972 
Q 928 2841 928 2578 
Q 928 2378 1081 2264 
Q 1234 2150 1697 2047 
L 1894 2003 
Q 2506 1872 2764 1633 
Q 3022 1394 3022 966 
Q 3022 478 2636 193 
Q 2250 -91 1575 -91 
Q 1294 -91 989 -36 
Q 684 19 347 128 
L 347 722 
Q 666 556 975 473 
Q 1284 391 1588 391 
Q 1994 391 2212 530 
Q 2431 669 2431 922 
Q 2431 1156 2273 1281 
Q 2116 1406 1581 1522 
L 1381 1569 
Q 847 1681 609 1914 
Q 372 2147 372 2553 
Q 372 3047 722 3315 
Q 1072 3584 1716 3584 
Q 2034 3584 2315 3537 
Q 2597 3491 2834 3397 
z
" transform="scale(0.015625)"/>
       <path id="DejaVuSans-6b" d="M 581 4863 
L 1159 4863 
L 1159 1991 
L 2875 3500 
L 3609 3500 
L 1753 1863 
L 3688 0 
L 2938 0 
L 1159 1709 
L 1159 0 
L 581 0 
L 581 4863 
z
" transform="scale(0.015625)"/>
       <path id="DejaVuSans-65" d="M 3597 1894 
L 3597 1613 
L 953 1613 
Q 991 1019 1311 708 
Q 1631 397 2203 397 
Q 2534 397 2845 478 
Q 3156 559 3463 722 
L 3463 178 
Q 3153 47 2828 -22 
Q 2503 -91 2169 -91 
Q 1331 -91 842 396 
Q 353 884 353 1716 
Q 353 2575 817 3079 
Q 1281 3584 2069 3584 
Q 2775 3584 3186 3129 
Q 3597 2675 3597 1894 
z
M 3022 2063 
Q 3016 2534 2758 2815 
Q 2500 3097 2075 3097 
Q 1594 3097 1305 2825 
Q 1016 2553 972 2059 
L 3022 2063 
z
" transform="scale(0.015625)"/>
       <path id="DejaVuSans-20" transform="scale(0.015625)"/>
       <path id="DejaVuSans-75" d="M 544 1381 
L 544 3500 
L 1119 3500 
L 1119 1403 
Q 1119 906 1312 657 
Q 1506 409 1894 409 
Q 2359 409 2629 706 
Q 2900 1003 2900 1516 
L 2900 3500 
L 3475 3500 
L 3475 0 
L 2900 0 
L 2900 538 
Q 2691 219 2414 64 
Q 2138 -91 1772 -91 
Q 1169 -91 856 284 
Q 544 659 544 1381 
z
M 1991 3584 
L 1991 3584 
z
" transform="scale(0.015625)"/>
       <path id="DejaVuSans-72" d="M 2631 2963 
Q 2534 3019 2420 3045 
Q 2306 3072 2169 3072 
Q 1681 3072 1420 2755 
Q 1159 2438 1159 1844 
L 1159 0 
L 581 0 
L 581 3500 
L 1159 3500 
L 1159 2956 
Q 1341 3275 1631 3429 
Q 1922 3584 2338 3584 
Q 2397 3584 2469 3576 
Q 2541 3569 2628 3553 
L 2631 2963 
z
" transform="scale(0.015625)"/>
       <path id="DejaVuSans-74" d="M 1172 4494 
L 1172 3500 
L 2356 3500 
L 2356 3053 
L 1172 3053 
L 1172 1153 
Q 1172 725 1289 603 
Q 1406 481 1766 481 
L 2356 481 
L 2356 0 
L 1766 0 
Q 1100 0 847 248 
Q 594 497 594 1153 
L 594 3053 
L 172 3053 
L 172 3500 
L 594 3500 
L 594 4494 
L 1172 4494 
z
" transform="scale(0.015625)"/>
       <path id="DejaVuSans-69" d="M 603 3500 
L 1178 3500 
L 1178 0 
L 603 0 
L 603 3500 
z
M 603 4863 
L 1178 4863 
L 1178 4134 
L 603 4134 
L 603 4863 
z
" transform="scale(0.015625)"/>
       <path id="DejaVuSans-6f" d="M 1959 3097 
Q 1497 3097 1228 2736 
Q 959 2375 959 1747 
Q 959 1119 1226 758 
Q 1494 397 1959 397 
Q 2419 397 2687 759 
Q 2956 1122 2956 1747 
Q 2956 2369 2687 2733 
Q 2419 3097 1959 3097 
z
M 1959 3584 
Q 2709 3584 3137 3096 
Q 3566 2609 3566 1747 
Q 3566 888 3137 398 
Q 2709 -91 1959 -91 
Q 1206 -91 779 398 
Q 353 888 353 1747 
Q 353 2609 779 3096 
Q 1206 3584 1959 3584 
z
" transform="scale(0.015625)"/>
       <path id="DejaVuSans-28" d="M 1984 4856 
Q 1566 4138 1362 3434 
Q 1159 2731 1159 2009 
Q 1159 1288 1364 580 
Q 1569 -128 1984 -844 
L 1484 -844 
Q 1016 -109 783 600 
Q 550 1309 550 2009 
Q 550 2706 781 3412 
Q 1013 4119 1484 4856 
L 1984 4856 
z
" transform="scale(0.015625)"/>
       <path id="DejaVuSans-6d" d="M 3328 2828 
Q 3544 3216 3844 3400 
Q 4144 3584 4550 3584 
Q 5097 3584 5394 3201 
Q 5691 2819 5691 2113 
L 5691 0 
L 5113 0 
L 5113 2094 
Q 5113 2597 4934 2840 
Q 4756 3084 4391 3084 
Q 3944 3084 3684 2787 
Q 3425 2491 3425 1978 
L 3425 0 
L 2847 0 
L 2847 2094 
Q 2847 2600 2669 2842 
Q 2491 3084 2119 3084 
Q 1678 3084 1418 2786 
Q 1159 2488 1159 1978 
L 1159 0 
L 581 0 
L 581 3500 
L 1159 3500 
L 1159 2956 
Q 1356 3278 1631 3431 
Q 1906 3584 2284 3584 
Q 2666 3584 2933 3390 
Q 3200 3197 3328 2828 
z
" transform="scale(0.015625)"/>
       <path id="DejaVuSans-29" d="M 513 4856 
L 1013 4856 
Q 1481 4119 1714 3412 
Q 1947 2706 1947 2009 
Q 1947 1309 1714 600 
Q 1481 -109 1013 -844 
L 513 -844 
Q 928 -128 1133 580 
Q 1338 1288 1338 2009 
Q 1338 2731 1133 3434 
Q 928 4138 513 4856 
z
" transform="scale(0.015625)"/>
      </defs>
      <use xlink:href="#DejaVuSans-48"/>
      <use xlink:href="#DejaVuSans-61" x="75.195312"/>
      <use xlink:href="#DejaVuSans-6e" x="136.474609"/>
      <use xlink:href="#DejaVuSans-64" x="199.853516"/>
      <use xlink:href="#DejaVuSans-73" x="263.330078"/>
      <use xlink:href="#DejaVuSans-68" x="315.429688"/>
      <use xlink:href="#DejaVuSans-61" x="378.808594"/>
      <use xlink:href="#DejaVuSans-6b" x="440.087891"/>
      <use xlink:href="#DejaVuSans-65" x="494.373047"/>
      <use xlink:href="#DejaVuSans-20" x="555.896484"/>
      <use xlink:href="#DejaVuSans-64" x="587.683594"/>
      <use xlink:href="#DejaVuSans-75" x="651.160156"/>
      <use xlink:href="#DejaVuSans-72" x="714.539062"/>
      <use xlink:href="#DejaVuSans-61" x="755.652344"/>
      <use xlink:href="#DejaVuSans-74" x="816.931641"/>
      <use xlink:href="#DejaVuSans-69" x="856.140625"/>
      <use xlink:href="#DejaVuSans-6f" x="883.923828"/>
      <use xlink:href="#DejaVuSans-6e" x="945.105469"/>
      <use xlink:href="#DejaVuSans-20" x="1008.484375"/>
      <use xlink:href="#DejaVuSans-28" x="1040.271484"/>
      <use xlink:href="#DejaVuSans-6d" x="1079.285156"/>
      <use xlink:href="#DejaVuSans-73" x="1176.697266"/>
      <use xlink:href="#DejaVuSans-29" x="1228.796875"/>
     </g>
    </g>
   </g>
   <g id="PolyCollection_1">
    <defs>
     <path id="m92b1dd2808" d="M 137.784756 -72.950737 
L 137.399244 -72.950737 
L 136.736464 -75.633329 
L 134.466438 -78.315921 
L 128.356115 -80.998513 
L 115.885795 -83.681105 
L 97.562443 -86.363697 
L 80.234922 -89.046289 
L 74.1744 -91.728881 
L 83.741751 -94.411473 
L 102.58957 -97.094065 
L 120.216039 -99.776657 
L 131.014813 -102.459248 
L 135.695362 -105.14184 
L 137.173011 -107.824432 
L 137.511034 -110.507024 
L 137.550377 -113.189616 
L 137.521076 -115.872208 
L 137.479169 -118.5548 
L 137.455191 -121.237392 
L 137.466881 -123.919984 
L 137.505734 -126.602576 
L 137.547161 -129.285168 
L 137.57443 -131.96776 
L 137.58681 -134.650352 
L 137.590844 -137.332944 
L 137.591806 -140.015536 
L 137.591975 -142.698127 
L 137.591998 -145.380719 
L 137.592 -148.063311 
L 137.592 -150.745903 
L 137.592 -153.428495 
L 137.592 -156.111087 
L 137.592 -158.793679 
L 137.592 -161.476271 
L 137.592 -164.158863 
L 137.592 -166.841455 
L 137.592 -169.524047 
L 137.592 -172.206639 
L 137.592 -174.889231 
L 137.591999 -177.571823 
L 137.591989 -180.254415 
L 137.591898 -182.937006 
L 137.591311 -185.619598 
L 137.588429 -188.30219 
L 137.577699 -190.984782 
L 137.547122 -193.667374 
L 137.479487 -196.349966 
L 137.361386 -199.032558 
L 137.197481 -201.71515 
L 137.023284 -204.397742 
L 136.905444 -207.080334 
L 136.910152 -209.762926 
L 137.04643 -212.445518 
L 137.246608 -215.12811 
L 137.421308 -217.810702 
L 137.52677 -220.493293 
L 137.57285 -223.175885 
L 137.587701 -225.858477 
L 137.591264 -228.541069 
L 137.591904 -231.223661 
L 137.591991 -233.906253 
L 137.591999 -236.588845 
L 137.592 -239.271437 
L 137.592 -241.954029 
L 137.592 -244.636621 
L 137.592 -247.319213 
L 137.592 -250.001805 
L 137.592 -252.684397 
L 137.592 -255.366989 
L 137.592 -258.049581 
L 137.592 -260.732172 
L 137.592 -263.414764 
L 137.592 -266.097356 
L 137.592 -268.779948 
L 137.592 -271.46254 
L 137.592 -274.145132 
L 137.592 -276.827724 
L 137.592 -279.510316 
L 137.592 -282.192908 
L 137.592 -284.8755 
L 137.592 -287.558092 
L 137.592 -290.240684 
L 137.592 -292.923276 
L 137.592 -295.605868 
L 137.592 -298.28846 
L 137.592 -300.971051 
L 137.591999 -303.653643 
L 137.591991 -306.336235 
L 137.591916 -309.018827 
L 137.591436 -311.701419 
L 137.589146 -314.384011 
L 137.581119 -317.066603 
L 137.560722 -319.749195 
L 137.52422 -322.431787 
L 137.481271 -325.114379 
L 137.455628 -327.796971 
L 137.465383 -330.479563 
L 137.503375 -333.162155 
L 137.545235 -335.844747 
L 137.573397 -338.527339 
L 137.610603 -338.527339 
L 137.610603 -338.527339 
L 137.638765 -335.844747 
L 137.680625 -333.162155 
L 137.718617 -330.479563 
L 137.728372 -327.796971 
L 137.702729 -325.114379 
L 137.65978 -322.431787 
L 137.623278 -319.749195 
L 137.602881 -317.066603 
L 137.594854 -314.384011 
L 137.592564 -311.701419 
L 137.592084 -309.018827 
L 137.592009 -306.336235 
L 137.592001 -303.653643 
L 137.592 -300.971051 
L 137.592 -298.28846 
L 137.592 -295.605868 
L 137.592 -292.923276 
L 137.592 -290.240684 
L 137.592 -287.558092 
L 137.592 -284.8755 
L 137.592 -282.192908 
L 137.592 -279.510316 
L 137.592 -276.827724 
L 137.592 -274.145132 
L 137.592 -271.46254 
L 137.592 -268.779948 
L 137.592 -266.097356 
L 137.592 -263.414764 
L 137.592 -260.732172 
L 137.592 -258.049581 
L 137.592 -255.366989 
L 137.592 -252.684397 
L 137.592 -250.001805 
L 137.592 -247.319213 
L 137.592 -244.636621 
L 137.592 -241.954029 
L 137.592 -239.271437 
L 137.592001 -236.588845 
L 137.592009 -233.906253 
L 137.592096 -231.223661 
L 137.592736 -228.541069 
L 137.596299 -225.858477 
L 137.61115 -223.175885 
L 137.65723 -220.493293 
L 137.762692 -217.810702 
L 137.937392 -215.12811 
L 138.13757 -212.445518 
L 138.273848 -209.762926 
L 138.278556 -207.080334 
L 138.160716 -204.397742 
L 137.986519 -201.71515 
L 137.822614 -199.032558 
L 137.704513 -196.349966 
L 137.636878 -193.667374 
L 137.606301 -190.984782 
L 137.595571 -188.30219 
L 137.592689 -185.619598 
L 137.592102 -182.937006 
L 137.592011 -180.254415 
L 137.592001 -177.571823 
L 137.592 -174.889231 
L 137.592 -172.206639 
L 137.592 -169.524047 
L 137.592 -166.841455 
L 137.592 -164.158863 
L 137.592 -161.476271 
L 137.592 -158.793679 
L 137.592 -156.111087 
L 137.592 -153.428495 
L 137.592 -150.745903 
L 137.592 -148.063311 
L 137.592002 -145.380719 
L 137.592025 -142.698127 
L 137.592194 -140.015536 
L 137.593156 -137.332944 
L 137.59719 -134.650352 
L 137.60957 -131.96776 
L 137.636839 -129.285168 
L 137.678266 -126.602576 
L 137.717119 -123.919984 
L 137.728809 -121.237392 
L 137.704831 -118.5548 
L 137.662924 -115.872208 
L 137.633623 -113.189616 
L 137.672966 -110.507024 
L 138.010989 -107.824432 
L 139.488638 -105.14184 
L 144.169187 -102.459248 
L 154.967961 -99.776657 
L 172.59443 -97.094065 
L 191.442249 -94.411473 
L 201.0096 -91.728881 
L 194.949078 -89.046289 
L 177.621557 -86.363697 
L 159.298205 -83.681105 
L 146.827885 -80.998513 
L 140.717562 -78.315921 
L 138.447536 -75.633329 
L 137.784756 -72.950737 
z
" style="stroke: #595959; stroke-width: 1.25"/>
    </defs>
    <g clip-path="url(#p24a35f538d)">
     <use xlink:href="#m92b1dd2808" x="0" y="432" style="fill: #72b6a1; stroke: #595959; stroke-width: 1.25"/>
    </g>
   </g>
   <g id="PolyCollection_2">
    <defs>
     <path id="mbce35e13f0" d="M 297.12069 -70.655549 
L 295.15131 -70.655549 
L 294.120637 -72.143858 
L 292.272933 -73.632166 
L 289.206187 -75.120475 
L 284.510425 -76.608784 
L 277.908738 -78.097093 
L 269.4444 -79.585402 
L 259.649622 -81.07371 
L 249.601782 -82.562019 
L 240.787278 -84.050328 
L 234.764249 -85.538637 
L 232.7184 -87.026946 
L 235.083077 -88.515254 
L 241.390088 -90.003563 
L 250.421411 -91.491872 
L 260.594203 -92.980181 
L 270.411814 -94.468489 
L 278.805538 -95.956798 
L 285.269013 -97.445107 
L 289.793846 -98.933416 
L 292.690091 -100.421725 
L 294.390753 -101.910033 
L 295.30771 -103.398342 
L 295.759875 -104.886651 
L 295.960061 -106.37496 
L 296.034141 -107.863269 
L 296.049611 -109.351577 
L 296.040413 -110.839886 
L 296.023586 -112.328195 
L 296.008342 -113.816504 
L 295.999962 -115.304812 
L 296.000968 -116.793121 
L 296.011382 -118.28143 
L 296.029121 -119.769739 
L 296.050824 -121.258048 
L 296.072927 -122.746356 
L 296.092601 -124.234665 
L 296.108253 -125.722974 
L 296.119517 -127.211283 
L 296.126901 -128.699592 
L 296.131333 -130.1879 
L 296.133776 -131.676209 
L 296.135015 -133.164518 
L 296.135595 -134.652827 
L 296.135845 -136.141135 
L 296.135945 -137.629444 
L 296.135982 -139.117753 
L 296.135994 -140.606062 
L 296.135998 -142.094371 
L 296.136 -143.582679 
L 296.136 -145.070988 
L 296.136 -146.559297 
L 296.136 -148.047606 
L 296.136 -149.535915 
L 296.136 -151.024223 
L 296.136 -152.512532 
L 296.136 -154.000841 
L 296.136 -155.48915 
L 296.136 -156.977459 
L 296.136 -158.465767 
L 296.136 -159.954076 
L 296.136 -161.442385 
L 296.136 -162.930694 
L 296.136 -164.419002 
L 296.136 -165.907311 
L 296.136 -167.39562 
L 296.136 -168.883929 
L 296.136 -170.372238 
L 296.136 -171.860546 
L 296.135999 -173.348855 
L 296.135997 -174.837164 
L 296.13599 -176.325473 
L 296.135967 -177.813782 
L 296.135891 -179.30209 
L 296.135667 -180.790399 
L 296.135053 -182.278708 
L 296.13349 -183.767017 
L 296.129797 -185.255325 
L 296.121698 -186.743634 
L 296.105232 -188.231943 
L 296.074212 -189.720252 
L 296.020147 -191.208561 
L 295.933122 -192.696869 
L 295.804108 -194.185178 
L 295.628668 -195.673487 
L 295.41122 -197.161796 
L 295.168139 -198.650105 
L 294.927726 -200.138413 
L 294.725744 -201.626722 
L 294.597045 -203.115031 
L 294.565844 -204.60334 
L 294.638304 -206.091648 
L 294.800559 -207.579957 
L 295.023024 -209.068266 
L 295.269173 -210.556575 
L 295.505218 -212.044884 
L 295.707223 -213.533192 
L 295.863799 -215.021501 
L 295.974657 -216.50981 
L 296.046729 -217.998119 
L 296.225271 -217.998119 
L 296.225271 -217.998119 
L 296.297343 -216.50981 
L 296.408201 -215.021501 
L 296.564777 -213.533192 
L 296.766782 -212.044884 
L 297.002827 -210.556575 
L 297.248976 -209.068266 
L 297.471441 -207.579957 
L 297.633696 -206.091648 
L 297.706156 -204.60334 
L 297.674955 -203.115031 
L 297.546256 -201.626722 
L 297.344274 -200.138413 
L 297.103861 -198.650105 
L 296.86078 -197.161796 
L 296.643332 -195.673487 
L 296.467892 -194.185178 
L 296.338878 -192.696869 
L 296.251853 -191.208561 
L 296.197788 -189.720252 
L 296.166768 -188.231943 
L 296.150302 -186.743634 
L 296.142203 -185.255325 
L 296.13851 -183.767017 
L 296.136947 -182.278708 
L 296.136333 -180.790399 
L 296.136109 -179.30209 
L 296.136033 -177.813782 
L 296.13601 -176.325473 
L 296.136003 -174.837164 
L 296.136001 -173.348855 
L 296.136 -171.860546 
L 296.136 -170.372238 
L 296.136 -168.883929 
L 296.136 -167.39562 
L 296.136 -165.907311 
L 296.136 -164.419002 
L 296.136 -162.930694 
L 296.136 -161.442385 
L 296.136 -159.954076 
L 296.136 -158.465767 
L 296.136 -156.977459 
L 296.136 -155.48915 
L 296.136 -154.000841 
L 296.136 -152.512532 
L 296.136 -151.024223 
L 296.136 -149.535915 
L 296.136 -148.047606 
L 296.136 -146.559297 
L 296.136 -145.070988 
L 296.136 -143.582679 
L 296.136002 -142.094371 
L 296.136006 -140.606062 
L 296.136018 -139.117753 
L 296.136055 -137.629444 
L 296.136155 -136.141135 
L 296.136405 -134.652827 
L 296.136985 -133.164518 
L 296.138224 -131.676209 
L 296.140667 -130.1879 
L 296.145099 -128.699592 
L 296.152483 -127.211283 
L 296.163747 -125.722974 
L 296.179399 -124.234665 
L 296.199073 -122.746356 
L 296.221176 -121.258048 
L 296.242879 -119.769739 
L 296.260618 -118.28143 
L 296.271032 -116.793121 
L 296.272038 -115.304812 
L 296.263658 -113.816504 
L 296.248414 -112.328195 
L 296.231587 -110.839886 
L 296.222389 -109.351577 
L 296.237859 -107.863269 
L 296.311939 -106.37496 
L 296.512125 -104.886651 
L 296.96429 -103.398342 
L 297.881247 -101.910033 
L 299.581909 -100.421725 
L 302.478154 -98.933416 
L 307.002987 -97.445107 
L 313.466462 -95.956798 
L 321.860186 -94.468489 
L 331.677797 -92.980181 
L 341.850589 -91.491872 
L 350.881912 -90.003563 
L 357.188923 -88.515254 
L 359.5536 -87.026946 
L 357.507751 -85.538637 
L 351.484722 -84.050328 
L 342.670218 -82.562019 
L 332.622378 -81.07371 
L 322.8276 -79.585402 
L 314.363262 -78.097093 
L 307.761575 -76.608784 
L 303.065813 -75.120475 
L 299.999067 -73.632166 
L 298.151363 -72.143858 
L 297.12069 -70.655549 
z
" style="stroke: #595959; stroke-width: 1.25"/>
    </defs>
    <g clip-path="url(#p24a35f538d)">
     <use xlink:href="#mbce35e13f0" x="0" y="432" style="fill: #e99675; stroke: #595959; stroke-width: 1.25"/>
    </g>
   </g>
   <g id="PolyCollection_3">
    <defs>
     <path id="m36f1157476" d="M 454.84543 -85.256728 
L 454.51457 -85.256728 
L 454.333485 -87.530576 
L 454.012041 -89.804424 
L 453.48054 -92.078272 
L 452.640593 -94.35212 
L 451.333797 -96.625968 
L 449.290812 -98.899816 
L 446.09004 -101.173664 
L 441.191838 -103.447512 
L 434.122723 -105.72136 
L 424.81985 -107.995208 
L 414.005576 -110.269056 
L 403.331159 -112.542904 
L 395.053801 -114.816752 
L 391.2624 -117.0906 
L 393.007445 -119.364448 
L 399.83544 -121.638296 
L 410.009691 -123.912144 
L 421.264392 -126.185991 
L 431.635431 -128.459839 
L 439.955548 -130.733687 
L 445.895124 -133.007535 
L 449.703255 -135.281383 
L 451.884428 -137.555231 
L 452.962843 -139.829079 
L 453.366755 -142.102927 
L 453.397712 -144.376775 
L 453.242219 -146.650623 
L 453.001573 -148.924471 
L 452.728838 -151.198319 
L 452.46264 -153.472167 
L 452.245759 -155.746015 
L 452.123466 -158.019863 
L 452.129438 -160.293711 
L 452.273413 -162.567559 
L 452.538591 -164.841407 
L 452.886575 -167.115255 
L 453.264504 -169.389103 
L 453.613073 -171.662951 
L 453.877081 -173.936799 
L 454.017754 -176.210647 
L 454.022388 -178.484495 
L 453.906597 -180.758343 
L 453.707827 -183.032191 
L 453.47335 -185.306039 
L 453.248934 -187.579887 
L 453.073412 -189.853735 
L 452.978656 -192.127583 
L 452.988841 -194.401431 
L 453.113959 -196.675278 
L 453.340849 -198.949126 
L 453.631255 -201.222974 
L 453.932671 -203.496822 
L 454.196989 -205.77067 
L 454.395452 -208.044518 
L 454.522065 -210.318366 
L 454.586818 -212.592214 
L 454.605934 -214.866062 
L 454.595418 -217.13991 
L 454.56936 -219.413758 
L 454.540508 -221.687606 
L 454.520053 -223.961454 
L 454.515646 -226.235302 
L 454.529124 -228.50915 
L 454.556111 -230.782998 
L 454.588153 -233.056846 
L 454.615909 -235.330694 
L 454.631119 -237.604542 
L 454.626335 -239.87839 
L 454.593568 -242.152238 
L 454.524449 -244.426086 
L 454.413986 -246.699934 
L 454.26732 -248.973782 
L 454.10532 -251.24763 
L 453.96324 -253.521478 
L 453.879685 -255.795326 
L 453.880078 -258.069174 
L 453.964322 -260.343022 
L 454.106868 -262.61687 
L 454.269196 -264.890717 
L 454.416467 -267.164565 
L 454.528684 -269.438413 
L 454.602149 -271.712261 
L 454.643801 -273.986109 
L 454.663854 -276.259957 
L 454.670689 -278.533805 
L 454.668905 -280.807653 
L 454.659677 -283.081501 
L 454.642343 -285.355349 
L 454.616558 -287.629197 
L 454.584415 -289.903045 
L 454.551504 -292.176893 
L 454.525926 -294.450741 
L 454.515227 -296.724589 
L 454.522833 -298.998437 
L 454.546294 -301.272285 
L 454.578548 -303.546133 
L 454.611343 -305.819981 
L 454.638559 -308.093829 
L 454.657691 -310.367677 
L 454.702309 -310.367677 
L 454.702309 -310.367677 
L 454.721441 -308.093829 
L 454.748657 -305.819981 
L 454.781452 -303.546133 
L 454.813706 -301.272285 
L 454.837167 -298.998437 
L 454.844773 -296.724589 
L 454.834074 -294.450741 
L 454.808496 -292.176893 
L 454.775585 -289.903045 
L 454.743442 -287.629197 
L 454.717657 -285.355349 
L 454.700323 -283.081501 
L 454.691095 -280.807653 
L 454.689311 -278.533805 
L 454.696146 -276.259957 
L 454.716199 -273.986109 
L 454.757851 -271.712261 
L 454.831316 -269.438413 
L 454.943533 -267.164565 
L 455.090804 -264.890717 
L 455.253132 -262.61687 
L 455.395678 -260.343022 
L 455.479922 -258.069174 
L 455.480315 -255.795326 
L 455.39676 -253.521478 
L 455.25468 -251.24763 
L 455.09268 -248.973782 
L 454.946014 -246.699934 
L 454.835551 -244.426086 
L 454.766432 -242.152238 
L 454.733665 -239.87839 
L 454.728881 -237.604542 
L 454.744091 -235.330694 
L 454.771847 -233.056846 
L 454.803889 -230.782998 
L 454.830876 -228.50915 
L 454.844354 -226.235302 
L 454.839947 -223.961454 
L 454.819492 -221.687606 
L 454.79064 -219.413758 
L 454.764582 -217.13991 
L 454.754066 -214.866062 
L 454.773182 -212.592214 
L 454.837935 -210.318366 
L 454.964548 -208.044518 
L 455.163011 -205.77067 
L 455.427329 -203.496822 
L 455.728745 -201.222974 
L 456.019151 -198.949126 
L 456.246041 -196.675278 
L 456.371159 -194.401431 
L 456.381344 -192.127583 
L 456.286588 -189.853735 
L 456.111066 -187.579887 
L 455.88665 -185.306039 
L 455.652173 -183.032191 
L 455.453403 -180.758343 
L 455.337612 -178.484495 
L 455.342246 -176.210647 
L 455.482919 -173.936799 
L 455.746927 -171.662951 
L 456.095496 -169.389103 
L 456.473425 -167.115255 
L 456.821409 -164.841407 
L 457.086587 -162.567559 
L 457.230562 -160.293711 
L 457.236534 -158.019863 
L 457.114241 -155.746015 
L 456.89736 -153.472167 
L 456.631162 -151.198319 
L 456.358427 -148.924471 
L 456.117781 -146.650623 
L 455.962288 -144.376775 
L 455.993245 -142.102927 
L 456.397157 -139.829079 
L 457.475572 -137.555231 
L 459.656745 -135.281383 
L 463.464876 -133.007535 
L 469.404452 -130.733687 
L 477.724569 -128.459839 
L 488.095608 -126.185991 
L 499.350309 -123.912144 
L 509.52456 -121.638296 
L 516.352555 -119.364448 
L 518.0976 -117.0906 
L 514.306199 -114.816752 
L 506.028841 -112.542904 
L 495.354424 -110.269056 
L 484.54015 -107.995208 
L 475.237277 -105.72136 
L 468.168162 -103.447512 
L 463.26996 -101.173664 
L 460.069188 -98.899816 
L 458.026203 -96.625968 
L 456.719407 -94.35212 
L 455.87946 -92.078272 
L 455.347959 -89.804424 
L 455.026515 -87.530576 
L 454.84543 -85.256728 
z
" style="stroke: #595959; stroke-width: 1.25"/>
    </defs>
    <g clip-path="url(#p24a35f538d)">
     <use xlink:href="#m36f1157476" x="0" y="432" style="fill: #95a3c3; stroke: #595959; stroke-width: 1.25"/>
    </g>
   </g>
   <g id="PolyCollection_4">
    <defs>
     <path id="m82bb505f98" d="M 613.298144 -87.972275 
L 613.149856 -87.972275 
L 613.057228 -90.47044 
L 612.866214 -92.968605 
L 612.481194 -95.46677 
L 611.719881 -97.964935 
L 610.259895 -100.4631 
L 607.600718 -102.961265 
L 603.104213 -105.45943 
L 596.189099 -107.957595 
L 586.697777 -110.45576 
L 575.312734 -112.953925 
L 563.750715 -115.45209 
L 554.461581 -117.950255 
L 549.8064 -120.44842 
L 551.071145 -122.946584 
L 557.880678 -125.444749 
L 568.381312 -127.942914 
L 580.071491 -130.441079 
L 590.768838 -132.939244 
L 599.205807 -135.437409 
L 605.080095 -137.935574 
L 608.733588 -140.433739 
L 610.754735 -142.931904 
L 611.702405 -145.430069 
L 611.992677 -147.928234 
L 611.896978 -150.426399 
L 611.586685 -152.924564 
L 611.181782 -155.422729 
L 610.782978 -157.920894 
L 610.480226 -160.419058 
L 610.341738 -162.917223 
L 610.396833 -165.415388 
L 610.627539 -167.913553 
L 610.976174 -170.411718 
L 611.3653 -172.909883 
L 611.720663 -175.408048 
L 611.988776 -177.906213 
L 612.14542 -180.404378 
L 612.195508 -182.902543 
L 612.166918 -185.400708 
L 612.100792 -187.898873 
L 612.040111 -190.397038 
L 612.018771 -192.895203 
L 612.054412 -195.393368 
L 612.147527 -197.891532 
L 612.286095 -200.389697 
L 612.452072 -202.887862 
L 612.62631 -205.386027 
L 612.791342 -207.884192 
L 612.933375 -210.382357 
L 613.044212 -212.880522 
L 613.122256 -215.378687 
L 613.171615 -217.876852 
L 613.19956 -220.375017 
L 613.213672 -222.873182 
L 613.21994 -225.371347 
L 613.222077 -227.869512 
L 613.221564 -230.367677 
L 613.217645 -232.865842 
L 613.206747 -235.364006 
L 613.181397 -237.862171 
L 613.129559 -240.360336 
L 613.036232 -242.858501 
L 612.889091 -245.356666 
L 612.687911 -247.854831 
L 612.453589 -250.352996 
L 612.22959 -252.851161 
L 612.070672 -255.349326 
L 612.021537 -257.847491 
L 612.096528 -260.345656 
L 612.272893 -262.843821 
L 612.501894 -265.341986 
L 612.730421 -267.840151 
L 612.920188 -270.338316 
L 613.055567 -272.83648 
L 613.139877 -275.334645 
L 613.186111 -277.83281 
L 613.208472 -280.330975 
L 613.217763 -282.82914 
L 613.220314 -285.327305 
L 613.218715 -287.82547 
L 613.212979 -290.323635 
L 613.201632 -292.8218 
L 613.182896 -295.319965 
L 613.156092 -297.81813 
L 613.122913 -300.316295 
L 613.087669 -302.81446 
L 613.055935 -305.312625 
L 613.032115 -307.81079 
L 613.017641 -310.308954 
L 613.011327 -312.807119 
L 613.0116 -315.305284 
L 613.01855 -317.803449 
L 613.033816 -320.301614 
L 613.058429 -322.799779 
L 613.090677 -325.297944 
L 613.12596 -327.796109 
L 613.158724 -330.294274 
L 613.184859 -332.792439 
L 613.20293 -335.290604 
L 613.24507 -335.290604 
L 613.24507 -335.290604 
L 613.263141 -332.792439 
L 613.289276 -330.294274 
L 613.32204 -327.796109 
L 613.357323 -325.297944 
L 613.389571 -322.799779 
L 613.414184 -320.301614 
L 613.42945 -317.803449 
L 613.4364 -315.305284 
L 613.436673 -312.807119 
L 613.430359 -310.308954 
L 613.415885 -307.81079 
L 613.392065 -305.312625 
L 613.360331 -302.81446 
L 613.325087 -300.316295 
L 613.291908 -297.81813 
L 613.265104 -295.319965 
L 613.246368 -292.8218 
L 613.235021 -290.323635 
L 613.229285 -287.82547 
L 613.227686 -285.327305 
L 613.230237 -282.82914 
L 613.239528 -280.330975 
L 613.261889 -277.83281 
L 613.308123 -275.334645 
L 613.392433 -272.83648 
L 613.527812 -270.338316 
L 613.717579 -267.840151 
L 613.946106 -265.341986 
L 614.175107 -262.843821 
L 614.351472 -260.345656 
L 614.426463 -257.847491 
L 614.377328 -255.349326 
L 614.21841 -252.851161 
L 613.994411 -250.352996 
L 613.760089 -247.854831 
L 613.558909 -245.356666 
L 613.411768 -242.858501 
L 613.318441 -240.360336 
L 613.266603 -237.862171 
L 613.241253 -235.364006 
L 613.230355 -232.865842 
L 613.226436 -230.367677 
L 613.225923 -227.869512 
L 613.22806 -225.371347 
L 613.234328 -222.873182 
L 613.24844 -220.375017 
L 613.276385 -217.876852 
L 613.325744 -215.378687 
L 613.403788 -212.880522 
L 613.514625 -210.382357 
L 613.656658 -207.884192 
L 613.82169 -205.386027 
L 613.995928 -202.887862 
L 614.161905 -200.389697 
L 614.300473 -197.891532 
L 614.393588 -195.393368 
L 614.429229 -192.895203 
L 614.407889 -190.397038 
L 614.347208 -187.898873 
L 614.281082 -185.400708 
L 614.252492 -182.902543 
L 614.30258 -180.404378 
L 614.459224 -177.906213 
L 614.727337 -175.408048 
L 615.0827 -172.909883 
L 615.471826 -170.411718 
L 615.820461 -167.913553 
L 616.051167 -165.415388 
L 616.106262 -162.917223 
L 615.967774 -160.419058 
L 615.665022 -157.920894 
L 615.266218 -155.422729 
L 614.861315 -152.924564 
L 614.551022 -150.426399 
L 614.455323 -147.928234 
L 614.745595 -145.430069 
L 615.693265 -142.931904 
L 617.714412 -140.433739 
L 621.367905 -137.935574 
L 627.242193 -135.437409 
L 635.679162 -132.939244 
L 646.376509 -130.441079 
L 658.066688 -127.942914 
L 668.567322 -125.444749 
L 675.376855 -122.946584 
L 676.6416 -120.44842 
L 671.986419 -117.950255 
L 662.697285 -115.45209 
L 651.135266 -112.953925 
L 639.750223 -110.45576 
L 630.258901 -107.957595 
L 623.343787 -105.45943 
L 618.847282 -102.961265 
L 616.188105 -100.4631 
L 614.728119 -97.964935 
L 613.966806 -95.46677 
L 613.581786 -92.968605 
L 613.390772 -90.47044 
L 613.298144 -87.972275 
z
" style="stroke: #595959; stroke-width: 1.25"/>
    </defs>
    <g clip-path="url(#p24a35f538d)">
     <use xlink:href="#m82bb505f98" x="0" y="432" style="fill: #db96c0; stroke: #595959; stroke-width: 1.25"/>
    </g>
   </g>
   <g id="PolyCollection_5">
    <defs>
     <path id="ma5342ba5ab" d="M 771.909557 -82.883144 
L 771.626443 -82.883144 
L 771.393713 -85.970257 
L 770.849931 -89.057371 
L 769.680657 -92.144485 
L 767.380021 -95.231599 
L 763.271297 -98.318712 
L 756.679647 -101.405826 
L 747.30492 -104.49294 
L 735.701567 -107.580054 
L 723.578953 -110.667168 
L 713.569394 -113.754281 
L 708.3504 -116.841395 
L 709.480403 -119.928509 
L 716.634984 -123.015623 
L 727.752957 -126.102736 
L 739.997805 -129.18985 
L 750.914061 -132.276964 
L 759.137495 -135.364078 
L 764.438446 -138.451191 
L 767.320669 -141.538305 
L 768.545004 -144.625419 
L 768.815119 -147.712533 
L 768.660207 -150.799647 
L 768.434865 -153.88676 
L 768.350305 -156.973874 
L 768.497514 -160.060988 
L 768.865225 -163.148102 
L 769.368225 -166.235215 
L 769.889773 -169.322329 
L 770.326605 -172.409443 
L 770.621051 -175.496557 
L 770.771635 -178.583671 
L 770.82236 -181.670784 
L 770.837415 -184.757898 
L 770.8726 -187.845012 
L 770.95596 -190.932126 
L 771.084889 -194.019239 
L 771.237265 -197.106353 
L 771.386993 -200.193467 
L 771.515005 -203.280581 
L 771.612705 -206.367694 
L 771.680123 -209.454808 
L 771.722276 -212.541922 
L 771.74584 -215.629036 
L 771.756687 -218.71615 
L 771.758147 -221.803263 
L 771.749566 -224.890377 
L 771.724749 -227.977491 
L 771.670239 -231.064605 
L 771.564615 -234.151718 
L 771.381479 -237.238832 
L 771.099378 -240.325946 
L 770.71898 -243.41306 
L 770.280653 -246.500174 
L 769.868549 -249.587287 
L 769.589196 -252.674401 
L 769.528136 -255.761515 
L 769.707762 -258.848629 
L 770.074487 -261.935742 
L 770.524968 -265.022856 
L 770.95372 -268.10997 
L 771.292058 -271.197084 
L 771.519704 -274.284197 
L 771.651968 -277.371311 
L 771.718172 -280.458425 
L 771.745084 -283.545539 
L 771.74998 -286.632653 
L 771.741083 -289.719766 
L 771.721369 -292.80688 
L 771.692919 -295.893994 
L 771.660145 -298.981108 
L 771.630605 -302.068221 
L 771.612926 -305.155335 
L 771.612945 -308.242449 
L 771.630657 -311.329563 
L 771.660229 -314.416677 
L 771.693086 -317.50379 
L 771.721868 -320.590904 
L 771.742834 -323.678018 
L 771.755838 -326.765132 
L 771.76279 -329.852245 
L 771.766008 -332.939359 
L 771.767264 -336.026473 
L 771.767533 -339.113587 
L 771.76707 -342.2007 
L 771.765452 -345.287814 
L 771.761509 -348.374928 
L 771.753288 -351.462042 
L 771.738453 -354.549156 
L 771.71543 -357.636269 
L 771.685141 -360.723383 
L 771.652305 -363.810497 
L 771.624892 -366.897611 
L 771.611187 -369.984724 
L 771.61578 -373.071838 
L 771.637101 -376.158952 
L 771.668283 -379.246066 
L 771.700706 -382.33318 
L 771.72777 -385.420293 
L 771.746694 -388.507407 
L 771.789306 -388.507407 
L 771.789306 -388.507407 
L 771.80823 -385.420293 
L 771.835294 -382.33318 
L 771.867717 -379.246066 
L 771.898899 -376.158952 
L 771.92022 -373.071838 
L 771.924813 -369.984724 
L 771.911108 -366.897611 
L 771.883695 -363.810497 
L 771.850859 -360.723383 
L 771.82057 -357.636269 
L 771.797547 -354.549156 
L 771.782712 -351.462042 
L 771.774491 -348.374928 
L 771.770548 -345.287814 
L 771.76893 -342.2007 
L 771.768467 -339.113587 
L 771.768736 -336.026473 
L 771.769992 -332.939359 
L 771.77321 -329.852245 
L 771.780162 -326.765132 
L 771.793166 -323.678018 
L 771.814132 -320.590904 
L 771.842914 -317.50379 
L 771.875771 -314.416677 
L 771.905343 -311.329563 
L 771.923055 -308.242449 
L 771.923074 -305.155335 
L 771.905395 -302.068221 
L 771.875855 -298.981108 
L 771.843081 -295.893994 
L 771.814631 -292.80688 
L 771.794917 -289.719766 
L 771.78602 -286.632653 
L 771.790916 -283.545539 
L 771.817828 -280.458425 
L 771.884032 -277.371311 
L 772.016296 -274.284197 
L 772.243942 -271.197084 
L 772.58228 -268.10997 
L 773.011032 -265.022856 
L 773.461513 -261.935742 
L 773.828238 -258.848629 
L 774.007864 -255.761515 
L 773.946804 -252.674401 
L 773.667451 -249.587287 
L 773.255347 -246.500174 
L 772.81702 -243.41306 
L 772.436622 -240.325946 
L 772.154521 -237.238832 
L 771.971385 -234.151718 
L 771.865761 -231.064605 
L 771.811251 -227.977491 
L 771.786434 -224.890377 
L 771.777853 -221.803263 
L 771.779313 -218.71615 
L 771.79016 -215.629036 
L 771.813724 -212.541922 
L 771.855877 -209.454808 
L 771.923295 -206.367694 
L 772.020995 -203.280581 
L 772.149007 -200.193467 
L 772.298735 -197.106353 
L 772.451111 -194.019239 
L 772.58004 -190.932126 
L 772.6634 -187.845012 
L 772.698585 -184.757898 
L 772.71364 -181.670784 
L 772.764365 -178.583671 
L 772.914949 -175.496557 
L 773.209395 -172.409443 
L 773.646227 -169.322329 
L 774.167775 -166.235215 
L 774.670775 -163.148102 
L 775.038486 -160.060988 
L 775.185695 -156.973874 
L 775.101135 -153.88676 
L 774.875793 -150.799647 
L 774.720881 -147.712533 
L 774.990996 -144.625419 
L 776.215331 -141.538305 
L 779.097554 -138.451191 
L 784.398505 -135.364078 
L 792.621939 -132.276964 
L 803.538195 -129.18985 
L 815.783043 -126.102736 
L 826.901016 -123.015623 
L 834.055597 -119.928509 
L 835.1856 -116.841395 
L 829.966606 -113.754281 
L 819.957047 -110.667168 
L 807.834433 -107.580054 
L 796.23108 -104.49294 
L 786.856353 -101.405826 
L 780.264703 -98.318712 
L 776.155979 -95.231599 
L 773.855343 -92.144485 
L 772.686069 -89.057371 
L 772.142287 -85.970257 
L 771.909557 -82.883144 
z
" style="stroke: #595959; stroke-width: 1.25"/>
    </defs>
    <g clip-path="url(#p24a35f538d)">
     <use xlink:href="#ma5342ba5ab" x="0" y="432" style="fill: #a2c865; stroke: #595959; stroke-width: 1.25"/>
    </g>
   </g>
   <g id="line2d_10">
    <path d="M 137.592 341.093561 
L 137.592 343.156753 
" clip-path="url(#p24a35f538d)" style="fill: none; stroke: #000000"/>
   </g>
   <g id="line2d_11">
    <path d="M 137.592 339.713128 
L 137.592 338.086646 
" clip-path="url(#p24a35f538d)" style="fill: none; stroke: #000000"/>
   </g>
   <g id="line2d_12">
    <path d="M 131.6466 343.156753 
L 143.5374 343.156753 
" clip-path="url(#p24a35f538d)" style="fill: none; stroke: #000000; stroke-linecap: round"/>
   </g>
   <g id="line2d_13">
    <path d="M 131.6466 338.086646 
L 143.5374 338.086646 
" clip-path="url(#p24a35f538d)" style="fill: none; stroke: #000000; stroke-linecap: round"/>
   </g>
   <g id="line2d_14">
    <path d="M 296.136 345.332852 
L 296.136 346.629138 
" clip-path="url(#p24a35f538d)" style="fill: none; stroke: #000000"/>
   </g>
   <g id="line2d_15">
    <path d="M 296.136 344.413629 
L 296.136 343.041717 
" clip-path="url(#p24a35f538d)" style="fill: none; stroke: #000000"/>
   </g>
   <g id="line2d_16">
    <path d="M 290.1906 346.629138 
L 302.0814 346.629138 
" clip-path="url(#p24a35f538d)" style="fill: none; stroke: #000000; stroke-linecap: round"/>
   </g>
   <g id="line2d_17">
    <path d="M 290.1906 343.041717 
L 302.0814 343.041717 
" clip-path="url(#p24a35f538d)" style="fill: none; stroke: #000000; stroke-linecap: round"/>
   </g>
   <g id="line2d_18">
    <path d="M 454.68 316.469457 
L 454.68 323.707141 
" clip-path="url(#p24a35f538d)" style="fill: none; stroke: #000000"/>
   </g>
   <g id="line2d_19">
    <path d="M 454.68 311.642204 
L 454.68 304.709152 
" clip-path="url(#p24a35f538d)" style="fill: none; stroke: #000000"/>
   </g>
   <g id="line2d_20">
    <path d="M 448.7346 323.707141 
L 460.6254 323.707141 
" clip-path="url(#p24a35f538d)" style="fill: none; stroke: #000000; stroke-linecap: round"/>
   </g>
   <g id="line2d_21">
    <path d="M 448.7346 304.709152 
L 460.6254 304.709152 
" clip-path="url(#p24a35f538d)" style="fill: none; stroke: #000000; stroke-linecap: round"/>
   </g>
   <g id="line2d_22">
    <path d="M 613.224 312.219514 
L 613.224 317.537801 
" clip-path="url(#p24a35f538d)" style="fill: none; stroke: #000000"/>
   </g>
   <g id="line2d_23">
    <path d="M 613.224 308.661918 
L 613.224 303.669567 
" clip-path="url(#p24a35f538d)" style="fill: none; stroke: #000000"/>
   </g>
   <g id="line2d_24">
    <path d="M 607.2786 317.537801 
L 619.1694 317.537801 
" clip-path="url(#p24a35f538d)" style="fill: none; stroke: #000000; stroke-linecap: round"/>
   </g>
   <g id="line2d_25">
    <path d="M 607.2786 303.669567 
L 619.1694 303.669567 
" clip-path="url(#p24a35f538d)" style="fill: none; stroke: #000000; stroke-linecap: round"/>
   </g>
   <g id="line2d_26">
    <path d="M 771.768 315.716397 
L 771.768 322.245757 
" clip-path="url(#p24a35f538d)" style="fill: none; stroke: #000000"/>
   </g>
   <g id="line2d_27">
    <path d="M 771.768 311.307747 
L 771.768 304.743237 
" clip-path="url(#p24a35f538d)" style="fill: none; stroke: #000000"/>
   </g>
   <g id="line2d_28">
    <path d="M 765.8226 322.245757 
L 777.7134 322.245757 
" clip-path="url(#p24a35f538d)" style="fill: none; stroke: #000000; stroke-linecap: round"/>
   </g>
   <g id="line2d_29">
    <path d="M 765.8226 304.743237 
L 777.7134 304.743237 
" clip-path="url(#p24a35f538d)" style="fill: none; stroke: #000000; stroke-linecap: round"/>
   </g>
   <g id="line2d_30">
    <path d="M 125.7012 340.472579 
L 149.4828 340.472579 
" clip-path="url(#p24a35f538d)" style="fill: none; stroke: #ff0000; stroke-width: 2"/>
   </g>
   <g id="line2d_31">
    <path d="M 284.2452 344.865252 
L 308.0268 344.865252 
" clip-path="url(#p24a35f538d)" style="fill: none; stroke: #ff0000; stroke-width: 2"/>
   </g>
   <g id="line2d_32">
    <path d="M 442.7892 314.195365 
L 466.5708 314.195365 
" clip-path="url(#p24a35f538d)" style="fill: none; stroke: #ff0000; stroke-width: 2"/>
   </g>
   <g id="line2d_33">
    <path d="M 601.3332 310.514211 
L 625.1148 310.514211 
" clip-path="url(#p24a35f538d)" style="fill: none; stroke: #ff0000; stroke-width: 2"/>
   </g>
   <g id="line2d_34">
    <path d="M 759.8772 313.579709 
L 783.6588 313.579709 
" clip-path="url(#p24a35f538d)" style="fill: none; stroke: #ff0000; stroke-width: 2"/>
   </g>
   <g id="patch_3">
    <path d="M 58.32 377.237044 
L 58.32 27.6 
" style="fill: none; stroke: #cccccc; stroke-width: 1.25; stroke-linejoin: miter; stroke-linecap: square"/>
   </g>
   <g id="patch_4">
    <path d="M 851.04 377.237044 
L 851.04 27.6 
" style="fill: none; stroke: #cccccc; stroke-width: 1.25; stroke-linejoin: miter; stroke-linecap: square"/>
   </g>
   <g id="patch_5">
    <path d="M 58.32 377.237044 
L 851.04 377.237044 
" style="fill: none; stroke: #cccccc; stroke-width: 1.25; stroke-linejoin: miter; stroke-linecap: square"/>
   </g>
   <g id="patch_6">
    <path d="M 58.32 27.6 
L 851.04 27.6 
" style="fill: none; stroke: #cccccc; stroke-width: 1.25; stroke-linejoin: miter; stroke-linecap: square"/>
   </g>
   <g id="text_16">
    <!-- Handshake duration on TLS with secp384r1 signature algorithm — Local YDE (35ms/2%) -->
    <g style="fill: #262626" transform="translate(188.750625 21.6) scale(0.12 -0.12)">
     <defs>
      <path id="DejaVuSans-54" d="M -19 4666 
L 3928 4666 
L 3928 4134 
L 2272 4134 
L 2272 0 
L 1638 0 
L 1638 4134 
L -19 4134 
L -19 4666 
z
" transform="scale(0.015625)"/>
      <path id="DejaVuSans-4c" d="M 628 4666 
L 1259 4666 
L 1259 531 
L 3531 531 
L 3531 0 
L 628 0 
L 628 4666 
z
" transform="scale(0.015625)"/>
      <path id="DejaVuSans-53" d="M 3425 4513 
L 3425 3897 
Q 3066 4069 2747 4153 
Q 2428 4238 2131 4238 
Q 1616 4238 1336 4038 
Q 1056 3838 1056 3469 
Q 1056 3159 1242 3001 
Q 1428 2844 1947 2747 
L 2328 2669 
Q 3034 2534 3370 2195 
Q 3706 1856 3706 1288 
Q 3706 609 3251 259 
Q 2797 -91 1919 -91 
Q 1588 -91 1214 -16 
Q 841 59 441 206 
L 441 856 
Q 825 641 1194 531 
Q 1563 422 1919 422 
Q 2459 422 2753 634 
Q 3047 847 3047 1241 
Q 3047 1584 2836 1778 
Q 2625 1972 2144 2069 
L 1759 2144 
Q 1053 2284 737 2584 
Q 422 2884 422 3419 
Q 422 4038 858 4394 
Q 1294 4750 2059 4750 
Q 2388 4750 2728 4690 
Q 3069 4631 3425 4513 
z
" transform="scale(0.015625)"/>
      <path id="DejaVuSans-77" d="M 269 3500 
L 844 3500 
L 1563 769 
L 2278 3500 
L 2956 3500 
L 3675 769 
L 4391 3500 
L 4966 3500 
L 4050 0 
L 3372 0 
L 2619 2869 
L 1863 0 
L 1184 0 
L 269 3500 
z
" transform="scale(0.015625)"/>
      <path id="DejaVuSans-67" d="M 2906 1791 
Q 2906 2416 2648 2759 
Q 2391 3103 1925 3103 
Q 1463 3103 1205 2759 
Q 947 2416 947 1791 
Q 947 1169 1205 825 
Q 1463 481 1925 481 
Q 2391 481 2648 825 
Q 2906 1169 2906 1791 
z
M 3481 434 
Q 3481 -459 3084 -895 
Q 2688 -1331 1869 -1331 
Q 1566 -1331 1297 -1286 
Q 1028 -1241 775 -1147 
L 775 -588 
Q 1028 -725 1275 -790 
Q 1522 -856 1778 -856 
Q 2344 -856 2625 -561 
Q 2906 -266 2906 331 
L 2906 616 
Q 2728 306 2450 153 
Q 2172 0 1784 0 
Q 1141 0 747 490 
Q 353 981 353 1791 
Q 353 2603 747 3093 
Q 1141 3584 1784 3584 
Q 2172 3584 2450 3431 
Q 2728 3278 2906 2969 
L 2906 3500 
L 3481 3500 
L 3481 434 
z
" transform="scale(0.015625)"/>
      <path id="DejaVuSans-6c" d="M 603 4863 
L 1178 4863 
L 1178 0 
L 603 0 
L 603 4863 
z
" transform="scale(0.015625)"/>
      <path id="DejaVuSans-2014" d="M 313 1978 
L 6088 1978 
L 6088 1528 
L 313 1528 
L 313 1978 
z
" transform="scale(0.015625)"/>
      <path id="DejaVuSans-59" d="M -13 4666 
L 666 4666 
L 1959 2747 
L 3244 4666 
L 3922 4666 
L 2272 2222 
L 2272 0 
L 1638 0 
L 1638 2222 
L -13 4666 
z
" transform="scale(0.015625)"/>
      <path id="DejaVuSans-44" d="M 1259 4147 
L 1259 519 
L 2022 519 
Q 2988 519 3436 956 
Q 3884 1394 3884 2338 
Q 3884 3275 3436 3711 
Q 2988 4147 2022 4147 
L 1259 4147 
z
M 628 4666 
L 1925 4666 
Q 3281 4666 3915 4102 
Q 4550 3538 4550 2338 
Q 4550 1131 3912 565 
Q 3275 0 1925 0 
L 628 0 
L 628 4666 
z
" transform="scale(0.015625)"/>
      <path id="DejaVuSans-45" d="M 628 4666 
L 3578 4666 
L 3578 4134 
L 1259 4134 
L 1259 2753 
L 3481 2753 
L 3481 2222 
L 1259 2222 
L 1259 531 
L 3634 531 
L 3634 0 
L 628 0 
L 628 4666 
z
" transform="scale(0.015625)"/>
      <path id="DejaVuSans-2f" d="M 1625 4666 
L 2156 4666 
L 531 -594 
L 0 -594 
L 1625 4666 
z
" transform="scale(0.015625)"/>
      <path id="DejaVuSans-25" d="M 4653 2053 
Q 4381 2053 4226 1822 
Q 4072 1591 4072 1178 
Q 4072 772 4226 539 
Q 4381 306 4653 306 
Q 4919 306 5073 539 
Q 5228 772 5228 1178 
Q 5228 1588 5073 1820 
Q 4919 2053 4653 2053 
z
M 4653 2450 
Q 5147 2450 5437 2106 
Q 5728 1763 5728 1178 
Q 5728 594 5436 251 
Q 5144 -91 4653 -91 
Q 4153 -91 3862 251 
Q 3572 594 3572 1178 
Q 3572 1766 3864 2108 
Q 4156 2450 4653 2450 
z
M 1428 4353 
Q 1159 4353 1004 4120 
Q 850 3888 850 3481 
Q 850 3069 1003 2837 
Q 1156 2606 1428 2606 
Q 1700 2606 1854 2837 
Q 2009 3069 2009 3481 
Q 2009 3884 1853 4118 
Q 1697 4353 1428 4353 
z
M 4250 4750 
L 4750 4750 
L 1831 -91 
L 1331 -91 
L 4250 4750 
z
M 1428 4750 
Q 1922 4750 2215 4408 
Q 2509 4066 2509 3481 
Q 2509 2891 2217 2550 
Q 1925 2209 1428 2209 
Q 931 2209 642 2551 
Q 353 2894 353 3481 
Q 353 4063 643 4406 
Q 934 4750 1428 4750 
z
" transform="scale(0.015625)"/>
     </defs>
     <use xlink:href="#DejaVuSans-48"/>
     <use xlink:href="#DejaVuSans-61" x="75.195312"/>
     <use xlink:href="#DejaVuSans-6e" x="136.474609"/>
     <use xlink:href="#DejaVuSans-64" x="199.853516"/>
     <use xlink:href="#DejaVuSans-73" x="263.330078"/>
     <use xlink:href="#DejaVuSans-68" x="315.429688"/>
     <use xlink:href="#DejaVuSans-61" x="378.808594"/>
     <use xlink:href="#DejaVuSans-6b" x="440.087891"/>
     <use xlink:href="#DejaVuSans-65" x="494.373047"/>
     <use xlink:href="#DejaVuSans-20" x="555.896484"/>
     <use xlink:href="#DejaVuSans-64" x="587.683594"/>
     <use xlink:href="#DejaVuSans-75" x="651.160156"/>
     <use xlink:href="#DejaVuSans-72" x="714.539062"/>
     <use xlink:href="#DejaVuSans-61" x="755.652344"/>
     <use xlink:href="#DejaVuSans-74" x="816.931641"/>
     <use xlink:href="#DejaVuSans-69" x="856.140625"/>
     <use xlink:href="#DejaVuSans-6f" x="883.923828"/>
     <use xlink:href="#DejaVuSans-6e" x="945.105469"/>
     <use xlink:href="#DejaVuSans-20" x="1008.484375"/>
     <use xlink:href="#DejaVuSans-6f" x="1040.271484"/>
     <use xlink:href="#DejaVuSans-6e" x="1101.453125"/>
     <use xlink:href="#DejaVuSans-20" x="1164.832031"/>
     <use xlink:href="#DejaVuSans-54" x="1196.619141"/>
     <use xlink:href="#DejaVuSans-4c" x="1257.703125"/>
     <use xlink:href="#DejaVuSans-53" x="1313.416016"/>
     <use xlink:href="#DejaVuSans-20" x="1376.892578"/>
     <use xlink:href="#DejaVuSans-77" x="1408.679688"/>
     <use xlink:href="#DejaVuSans-69" x="1490.466797"/>
     <use xlink:href="#DejaVuSans-74" x="1518.25"/>
     <use xlink:href="#DejaVuSans-68" x="1557.458984"/>
     <use xlink:href="#DejaVuSans-20" x="1620.837891"/>
     <use xlink:href="#DejaVuSans-73" x="1652.625"/>
     <use xlink:href="#DejaVuSans-65" x="1704.724609"/>
     <use xlink:href="#DejaVuSans-63" x="1766.248047"/>
     <use xlink:href="#DejaVuSans-70" x="1821.228516"/>
     <use xlink:href="#DejaVuSans-33" x="1884.705078"/>
     <use xlink:href="#DejaVuSans-38" x="1948.328125"/>
     <use xlink:href="#DejaVuSans-34" x="2011.951172"/>
     <use xlink:href="#DejaVuSans-72" x="2075.574219"/>
     <use xlink:href="#DejaVuSans-31" x="2116.6875"/>
     <use xlink:href="#DejaVuSans-20" x="2180.310547"/>
     <use xlink:href="#DejaVuSans-73" x="2212.097656"/>
     <use xlink:href="#DejaVuSans-69" x="2264.197266"/>
     <use xlink:href="#DejaVuSans-67" x="2291.980469"/>
     <use xlink:href="#DejaVuSans-6e" x="2355.457031"/>
     <use xlink:href="#DejaVuSans-61" x="2418.835938"/>
     <use xlink:href="#DejaVuSans-74" x="2480.115234"/>
     <use xlink:href="#DejaVuSans-75" x="2519.324219"/>
     <use xlink:href="#DejaVuSans-72" x="2582.703125"/>
     <use xlink:href="#DejaVuSans-65" x="2621.566406"/>
     <use xlink:href="#DejaVuSans-20" x="2683.089844"/>
     <use xlink:href="#DejaVuSans-61" x="2714.876953"/>
     <use xlink:href="#DejaVuSans-6c" x="2776.15625"/>
     <use xlink:href="#DejaVuSans-67" x="2803.939453"/>
     <use xlink:href="#DejaVuSans-6f" x="2867.416016"/>
     <use xlink:href="#DejaVuSans-72" x="2928.597656"/>
     <use xlink:href="#DejaVuSans-69" x="2969.710938"/>
     <use xlink:href="#DejaVuSans-74" x="2997.494141"/>
     <use xlink:href="#DejaVuSans-68" x="3036.703125"/>
     <use xlink:href="#DejaVuSans-6d" x="3100.082031"/>
     <use xlink:href="#DejaVuSans-20" x="3197.494141"/>
     <use xlink:href="#DejaVuSans-2014" x="3229.28125"/>
     <use xlink:href="#DejaVuSans-20" x="3329.28125"/>
     <use xlink:href="#DejaVuSans-4c" x="3361.068359"/>
     <use xlink:href="#DejaVuSans-6f" x="3415.03125"/>
     <use xlink:href="#DejaVuSans-63" x="3476.212891"/>
     <use xlink:href="#DejaVuSans-61" x="3531.193359"/>
     <use xlink:href="#DejaVuSans-6c" x="3592.472656"/>
     <use xlink:href="#DejaVuSans-20" x="3620.255859"/>
     <use xlink:href="#DejaVuSans-59" x="3652.042969"/>
     <use xlink:href="#DejaVuSans-44" x="3713.126953"/>
     <use xlink:href="#DejaVuSans-45" x="3790.128906"/>
     <use xlink:href="#DejaVuSans-20" x="3853.3125"/>
     <use xlink:href="#DejaVuSans-28" x="3885.099609"/>
     <use xlink:href="#DejaVuSans-33" x="3924.113281"/>
     <use xlink:href="#DejaVuSans-35" x="3987.736328"/>
     <use xlink:href="#DejaVuSans-6d" x="4051.359375"/>
     <use xlink:href="#DejaVuSans-73" x="4148.771484"/>
     <use xlink:href="#DejaVuSans-2f" x="4200.871094"/>
     <use xlink:href="#DejaVuSans-32" x="4234.5625"/>
     <use xlink:href="#DejaVuSans-25" x="4298.185547"/>
     <use xlink:href="#DejaVuSans-29" x="4393.205078"/>
    </g>
   </g>
  </g>
 </g>
 <defs>
  <clipPath id="p24a35f538d">
   <rect x="58.32" y="27.6" width="792.72" height="349.637044"/>
  </clipPath>
 </defs>
</svg>
