<?xml version="1.0" encoding="utf-8" standalone="no"?>
<!DOCTYPE svg PUBLIC "-//W3C//DTD SVG 1.1//EN"
  "http://www.w3.org/Graphics/SVG/1.1/DTD/svg11.dtd">
<svg xmlns:xlink="http://www.w3.org/1999/xlink" width="864pt" height="432pt" viewBox="0 0 864 432" xmlns="http://www.w3.org/2000/svg" version="1.1">
 <metadata>
  <rdf:RDF xmlns:dc="http://purl.org/dc/elements/1.1/" xmlns:cc="http://creativecommons.org/ns#" xmlns:rdf="http://www.w3.org/1999/02/22-rdf-syntax-ns#">
   <cc:Work>
    <dc:type rdf:resource="http://purl.org/dc/dcmitype/StillImage"/>
    <dc:date>2026-03-21T14:06:24.117072</dc:date>
    <dc:format>image/svg+xml</dc:format>
    <dc:creator>
     <cc:Agent>
      <dc:title>Matplotlib v3.6.3, https://matplotlib.org/</dc:title>
     </cc:Agent>
    </dc:creator>
   </cc:Work>
  </rdf:RDF>
 </metadata>
 <defs>
  <style type="text/css">*{stroke-linejoin: round; stroke-linecap: butt}</style>
 </defs>
 <g id="figure_1">
  <g id="patch_1">
   <path d="M 0 432 
L 864 432 
L 864 0 
L 0 0 
z
" style="fill: #ffffff"/>
  </g>
  <g id="axes_1">
   <g id="patch_2">
    <path d="M 58.32 377.237044 
L 851.04 377.237044 
L 851.04 27.6 
L 58.32 27.6 
z
" style="fill: #ffffff"/>
   </g>
   <g id="matplotlib.axis_1">
    <g id="xtick_1">
     <g id="text_1">
      <!-- P-384 -->
      <g style="fill: #262626" transform="translate(103.911421 404.396088) rotate(-15) scale(0.12 -0.12)">
       <defs>
        <path id="DejaVuSans-50" d="M 1259 4147 
L 1259 2394 
L 2053 2394 
Q 2494 2394 2734 2622 
Q 2975 2850 2975 3272 
Q 2975 3691 2734 3919 
Q 2494 4147 2053 4147 
L 1259 4147 
z
M 628 4666 
L 2053 4666 
Q 2838 4666 3239 4311 
Q 3641 3956 3641 3272 
Q 3641 2581 3239 2228 
Q 2838 1875 2053 1875 
L 1259 1875 
L 1259 0 
L 628 0 
L 628 4666 
z
" transform="scale(0.015625)"/>
        <path id="DejaVuSans-2d" d="M 313 2009 
L 1997 2009 
L 1997 1497 
L 313 1497 
L 313 2009 
z
" transform="scale(0.015625)"/>
        <path id="DejaVuSans-33" d="M 2597 2516 
Q 3050 2419 3304 2112 
Q 3559 1806 3559 1356 
Q 3559 666 3084 287 
Q 2609 -91 1734 -91 
Q 1441 -91 1130 -33 
Q 819 25 488 141 
L 488 750 
Q 750 597 1062 519 
Q 1375 441 1716 441 
Q 2309 441 2620 675 
Q 2931 909 2931 1356 
Q 2931 1769 2642 2001 
Q 2353 2234 1838 2234 
L 1294 2234 
L 1294 2753 
L 1863 2753 
Q 2328 2753 2575 2939 
Q 2822 3125 2822 3475 
Q 2822 3834 2567 4026 
Q 2313 4219 1838 4219 
Q 1578 4219 1281 4162 
Q 984 4106 628 3988 
L 628 4550 
Q 988 4650 1302 4700 
Q 1616 4750 1894 4750 
Q 2613 4750 3031 4423 
Q 3450 4097 3450 3541 
Q 3450 3153 3228 2886 
Q 3006 2619 2597 2516 
z
" transform="scale(0.015625)"/>
        <path id="DejaVuSans-38" d="M 2034 2216 
Q 1584 2216 1326 1975 
Q 1069 1734 1069 1313 
Q 1069 891 1326 650 
Q 1584 409 2034 409 
Q 2484 409 2743 651 
Q 3003 894 3003 1313 
Q 3003 1734 2745 1975 
Q 2488 2216 2034 2216 
z
M 1403 2484 
Q 997 2584 770 2862 
Q 544 3141 544 3541 
Q 544 4100 942 4425 
Q 1341 4750 2034 4750 
Q 2731 4750 3128 4425 
Q 3525 4100 3525 3541 
Q 3525 3141 3298 2862 
Q 3072 2584 2669 2484 
Q 3125 2378 3379 2068 
Q 3634 1759 3634 1313 
Q 3634 634 3220 271 
Q 2806 -91 2034 -91 
Q 1263 -91 848 271 
Q 434 634 434 1313 
Q 434 1759 690 2068 
Q 947 2378 1403 2484 
z
M 1172 3481 
Q 1172 3119 1398 2916 
Q 1625 2713 2034 2713 
Q 2441 2713 2670 2916 
Q 2900 3119 2900 3481 
Q 2900 3844 2670 4047 
Q 2441 4250 2034 4250 
Q 1625 4250 1398 4047 
Q 1172 3844 1172 3481 
z
" transform="scale(0.015625)"/>
        <path id="DejaVuSans-34" d="M 2419 4116 
L 825 1625 
L 2419 1625 
L 2419 4116 
z
M 2253 4666 
L 3047 4666 
L 3047 1625 
L 3713 1625 
L 3713 1100 
L 3047 1100 
L 3047 0 
L 2419 0 
L 2419 1100 
L 313 1100 
L 313 1709 
L 2253 4666 
z
" transform="scale(0.015625)"/>
       </defs>
       <use xlink:href="#DejaVuSans-50"/>
       <use xlink:href="#DejaVuSans-2d" x="58.052734"/>
       <use xlink:href="#DejaVuSans-33" x="94.136719"/>
       <use xlink:href="#DejaVuSans-38" x="157.759766"/>
       <use xlink:href="#DejaVuSans-34" x="221.382812"/>
      </g>
     </g>
    </g>
    <g id="xtick_2">
     <g id="text_2">
      <!-- x448 -->
      <g style="fill: #262626" transform="translate(266.505065 403.310989) rotate(-15) scale(0.12 -0.12)">
       <defs>
        <path id="DejaVuSans-78" d="M 3513 3500 
L 2247 1797 
L 3578 0 
L 2900 0 
L 1881 1375 
L 863 0 
L 184 0 
L 1544 1831 
L 300 3500 
L 978 3500 
L 1906 2253 
L 2834 3500 
L 3513 3500 
z
" transform="scale(0.015625)"/>
       </defs>
       <use xlink:href="#DejaVuSans-78"/>
       <use xlink:href="#DejaVuSans-34" x="59.179688"/>
       <use xlink:href="#DejaVuSans-34" x="122.802734"/>
       <use xlink:href="#DejaVuSans-38" x="186.425781"/>
      </g>
     </g>
    </g>
    <g id="xtick_3">
     <g id="text_3">
      <!-- hqc192 -->
      <g style="fill: #262626" transform="translate(410.831845 407.120482) rotate(-15) scale(0.12 -0.12)">
       <defs>
        <path id="DejaVuSans-68" d="M 3513 2113 
L 3513 0 
L 2938 0 
L 2938 2094 
Q 2938 2591 2744 2837 
Q 2550 3084 2163 3084 
Q 1697 3084 1428 2787 
Q 1159 2491 1159 1978 
L 1159 0 
L 581 0 
L 581 4863 
L 1159 4863 
L 1159 2956 
Q 1366 3272 1645 3428 
Q 1925 3584 2291 3584 
Q 2894 3584 3203 3211 
Q 3513 2838 3513 2113 
z
" transform="scale(0.015625)"/>
        <path id="DejaVuSans-71" d="M 947 1747 
Q 947 1113 1208 752 
Q 1469 391 1925 391 
Q 2381 391 2643 752 
Q 2906 1113 2906 1747 
Q 2906 2381 2643 2742 
Q 2381 3103 1925 3103 
Q 1469 3103 1208 2742 
Q 947 2381 947 1747 
z
M 2906 525 
Q 2725 213 2448 61 
Q 2172 -91 1784 -91 
Q 1150 -91 751 415 
Q 353 922 353 1747 
Q 353 2572 751 3078 
Q 1150 3584 1784 3584 
Q 2172 3584 2448 3432 
Q 2725 3281 2906 2969 
L 2906 3500 
L 3481 3500 
L 3481 -1331 
L 2906 -1331 
L 2906 525 
z
" transform="scale(0.015625)"/>
        <path id="DejaVuSans-63" d="M 3122 3366 
L 3122 2828 
Q 2878 2963 2633 3030 
Q 2388 3097 2138 3097 
Q 1578 3097 1268 2742 
Q 959 2388 959 1747 
Q 959 1106 1268 751 
Q 1578 397 2138 397 
Q 2388 397 2633 464 
Q 2878 531 3122 666 
L 3122 134 
Q 2881 22 2623 -34 
Q 2366 -91 2075 -91 
Q 1284 -91 818 406 
Q 353 903 353 1747 
Q 353 2603 823 3093 
Q 1294 3584 2113 3584 
Q 2378 3584 2631 3529 
Q 2884 3475 3122 3366 
z
" transform="scale(0.015625)"/>
        <path id="DejaVuSans-31" d="M 794 531 
L 1825 531 
L 1825 4091 
L 703 3866 
L 703 4441 
L 1819 4666 
L 2450 4666 
L 2450 531 
L 3481 531 
L 3481 0 
L 794 0 
L 794 531 
z
" transform="scale(0.015625)"/>
        <path id="DejaVuSans-39" d="M 703 97 
L 703 672 
Q 941 559 1184 500 
Q 1428 441 1663 441 
Q 2288 441 2617 861 
Q 2947 1281 2994 2138 
Q 2813 1869 2534 1725 
Q 2256 1581 1919 1581 
Q 1219 1581 811 2004 
Q 403 2428 403 3163 
Q 403 3881 828 4315 
Q 1253 4750 1959 4750 
Q 2769 4750 3195 4129 
Q 3622 3509 3622 2328 
Q 3622 1225 3098 567 
Q 2575 -91 1691 -91 
Q 1453 -91 1209 -44 
Q 966 3 703 97 
z
M 1959 2075 
Q 2384 2075 2632 2365 
Q 2881 2656 2881 3163 
Q 2881 3666 2632 3958 
Q 2384 4250 1959 4250 
Q 1534 4250 1286 3958 
Q 1038 3666 1038 3163 
Q 1038 2656 1286 2365 
Q 1534 2075 1959 2075 
z
" transform="scale(0.015625)"/>
        <path id="DejaVuSans-32" d="M 1228 531 
L 3431 531 
L 3431 0 
L 469 0 
L 469 531 
Q 828 903 1448 1529 
Q 2069 2156 2228 2338 
Q 2531 2678 2651 2914 
Q 2772 3150 2772 3378 
Q 2772 3750 2511 3984 
Q 2250 4219 1831 4219 
Q 1534 4219 1204 4116 
Q 875 4013 500 3803 
L 500 4441 
Q 881 4594 1212 4672 
Q 1544 4750 1819 4750 
Q 2544 4750 2975 4387 
Q 3406 4025 3406 3419 
Q 3406 3131 3298 2873 
Q 3191 2616 2906 2266 
Q 2828 2175 2409 1742 
Q 1991 1309 1228 531 
z
" transform="scale(0.015625)"/>
       </defs>
       <use xlink:href="#DejaVuSans-68"/>
       <use xlink:href="#DejaVuSans-71" x="63.378906"/>
       <use xlink:href="#DejaVuSans-63" x="126.855469"/>
       <use xlink:href="#DejaVuSans-31" x="181.835938"/>
       <use xlink:href="#DejaVuSans-39" x="245.458984"/>
       <use xlink:href="#DejaVuSans-32" x="309.082031"/>
      </g>
     </g>
    </g>
    <g id="xtick_4">
     <g id="text_4">
      <!-- p384_hqc192 -->
      <g style="fill: #262626" transform="translate(534.010834 416.573362) rotate(-15) scale(0.12 -0.12)">
       <defs>
        <path id="DejaVuSans-70" d="M 1159 525 
L 1159 -1331 
L 581 -1331 
L 581 3500 
L 1159 3500 
L 1159 2969 
Q 1341 3281 1617 3432 
Q 1894 3584 2278 3584 
Q 2916 3584 3314 3078 
Q 3713 2572 3713 1747 
Q 3713 922 3314 415 
Q 2916 -91 2278 -91 
Q 1894 -91 1617 61 
Q 1341 213 1159 525 
z
M 3116 1747 
Q 3116 2381 2855 2742 
Q 2594 3103 2138 3103 
Q 1681 3103 1420 2742 
Q 1159 2381 1159 1747 
Q 1159 1113 1420 752 
Q 1681 391 2138 391 
Q 2594 391 2855 752 
Q 3116 1113 3116 1747 
z
" transform="scale(0.015625)"/>
        <path id="DejaVuSans-5f" d="M 3263 -1063 
L 3263 -1509 
L -63 -1509 
L -63 -1063 
L 3263 -1063 
z
" transform="scale(0.015625)"/>
       </defs>
       <use xlink:href="#DejaVuSans-70"/>
       <use xlink:href="#DejaVuSans-33" x="63.476562"/>
       <use xlink:href="#DejaVuSans-38" x="127.099609"/>
       <use xlink:href="#DejaVuSans-34" x="190.722656"/>
       <use xlink:href="#DejaVuSans-5f" x="254.345703"/>
       <use xlink:href="#DejaVuSans-68" x="304.345703"/>
       <use xlink:href="#DejaVuSans-71" x="367.724609"/>
       <use xlink:href="#DejaVuSans-63" x="431.201172"/>
       <use xlink:href="#DejaVuSans-31" x="486.181641"/>
       <use xlink:href="#DejaVuSans-39" x="549.804688"/>
       <use xlink:href="#DejaVuSans-32" x="613.427734"/>
      </g>
     </g>
    </g>
    <g id="xtick_5">
     <g id="text_5">
      <!-- x448_hqc192 -->
      <g style="fill: #262626" transform="translate(693.05289 416.439909) rotate(-15) scale(0.12 -0.12)">
       <use xlink:href="#DejaVuSans-78"/>
       <use xlink:href="#DejaVuSans-34" x="59.179688"/>
       <use xlink:href="#DejaVuSans-34" x="122.802734"/>
       <use xlink:href="#DejaVuSans-38" x="186.425781"/>
       <use xlink:href="#DejaVuSans-5f" x="250.048828"/>
       <use xlink:href="#DejaVuSans-68" x="300.048828"/>
       <use xlink:href="#DejaVuSans-71" x="363.427734"/>
       <use xlink:href="#DejaVuSans-63" x="426.904297"/>
       <use xlink:href="#DejaVuSans-31" x="481.884766"/>
       <use xlink:href="#DejaVuSans-39" x="545.507812"/>
       <use xlink:href="#DejaVuSans-32" x="609.130859"/>
      </g>
     </g>
    </g>
   </g>
   <g id="matplotlib.axis_2">
    <g id="ytick_1">
     <g id="line2d_1">
      <path d="M 58.32 370.444038 
L 851.04 370.444038 
" clip-path="url(#p023b19e096)" style="fill: none; stroke: #cccccc; stroke-linecap: round"/>
     </g>
     <g id="text_6">
      <!-- 800 -->
      <g style="fill: #262626" transform="translate(27.82375 374.623179) scale(0.11 -0.11)">
       <defs>
        <path id="DejaVuSans-30" d="M 2034 4250 
Q 1547 4250 1301 3770 
Q 1056 3291 1056 2328 
Q 1056 1369 1301 889 
Q 1547 409 2034 409 
Q 2525 409 2770 889 
Q 3016 1369 3016 2328 
Q 3016 3291 2770 3770 
Q 2525 4250 2034 4250 
z
M 2034 4750 
Q 2819 4750 3233 4129 
Q 3647 3509 3647 2328 
Q 3647 1150 3233 529 
Q 2819 -91 2034 -91 
Q 1250 -91 836 529 
Q 422 1150 422 2328 
Q 422 3509 836 4129 
Q 1250 4750 2034 4750 
z
" transform="scale(0.015625)"/>
       </defs>
       <use xlink:href="#DejaVuSans-38"/>
       <use xlink:href="#DejaVuSans-30" x="63.623047"/>
       <use xlink:href="#DejaVuSans-30" x="127.246094"/>
      </g>
     </g>
    </g>
    <g id="ytick_2">
     <g id="line2d_2">
      <path d="M 58.32 320.536633 
L 851.04 320.536633 
" clip-path="url(#p023b19e096)" style="fill: none; stroke: #cccccc; stroke-linecap: round"/>
     </g>
     <g id="text_7">
      <!-- 820 -->
      <g style="fill: #262626" transform="translate(27.82375 324.715773) scale(0.11 -0.11)">
       <use xlink:href="#DejaVuSans-38"/>
       <use xlink:href="#DejaVuSans-32" x="63.623047"/>
       <use xlink:href="#DejaVuSans-30" x="127.246094"/>
      </g>
     </g>
    </g>
    <g id="ytick_3">
     <g id="line2d_3">
      <path d="M 58.32 270.629227 
L 851.04 270.629227 
" clip-path="url(#p023b19e096)" style="fill: none; stroke: #cccccc; stroke-linecap: round"/>
     </g>
     <g id="text_8">
      <!-- 840 -->
      <g style="fill: #262626" transform="translate(27.82375 274.808368) scale(0.11 -0.11)">
       <use xlink:href="#DejaVuSans-38"/>
       <use xlink:href="#DejaVuSans-34" x="63.623047"/>
       <use xlink:href="#DejaVuSans-30" x="127.246094"/>
      </g>
     </g>
    </g>
    <g id="ytick_4">
     <g id="line2d_4">
      <path d="M 58.32 220.721822 
L 851.04 220.721822 
" clip-path="url(#p023b19e096)" style="fill: none; stroke: #cccccc; stroke-linecap: round"/>
     </g>
     <g id="text_9">
      <!-- 860 -->
      <g style="fill: #262626" transform="translate(27.82375 224.900963) scale(0.11 -0.11)">
       <defs>
        <path id="DejaVuSans-36" d="M 2113 2584 
Q 1688 2584 1439 2293 
Q 1191 2003 1191 1497 
Q 1191 994 1439 701 
Q 1688 409 2113 409 
Q 2538 409 2786 701 
Q 3034 994 3034 1497 
Q 3034 2003 2786 2293 
Q 2538 2584 2113 2584 
z
M 3366 4563 
L 3366 3988 
Q 3128 4100 2886 4159 
Q 2644 4219 2406 4219 
Q 1781 4219 1451 3797 
Q 1122 3375 1075 2522 
Q 1259 2794 1537 2939 
Q 1816 3084 2150 3084 
Q 2853 3084 3261 2657 
Q 3669 2231 3669 1497 
Q 3669 778 3244 343 
Q 2819 -91 2113 -91 
Q 1303 -91 875 529 
Q 447 1150 447 2328 
Q 447 3434 972 4092 
Q 1497 4750 2381 4750 
Q 2619 4750 2861 4703 
Q 3103 4656 3366 4563 
z
" transform="scale(0.015625)"/>
       </defs>
       <use xlink:href="#DejaVuSans-38"/>
       <use xlink:href="#DejaVuSans-36" x="63.623047"/>
       <use xlink:href="#DejaVuSans-30" x="127.246094"/>
      </g>
     </g>
    </g>
    <g id="ytick_5">
     <g id="line2d_5">
      <path d="M 58.32 170.814417 
L 851.04 170.814417 
" clip-path="url(#p023b19e096)" style="fill: none; stroke: #cccccc; stroke-linecap: round"/>
     </g>
     <g id="text_10">
      <!-- 880 -->
      <g style="fill: #262626" transform="translate(27.82375 174.993557) scale(0.11 -0.11)">
       <use xlink:href="#DejaVuSans-38"/>
       <use xlink:href="#DejaVuSans-38" x="63.623047"/>
       <use xlink:href="#DejaVuSans-30" x="127.246094"/>
      </g>
     </g>
    </g>
    <g id="ytick_6">
     <g id="line2d_6">
      <path d="M 58.32 120.907011 
L 851.04 120.907011 
" clip-path="url(#p023b19e096)" style="fill: none; stroke: #cccccc; stroke-linecap: round"/>
     </g>
     <g id="text_11">
      <!-- 900 -->
      <g style="fill: #262626" transform="translate(27.82375 125.086152) scale(0.11 -0.11)">
       <use xlink:href="#DejaVuSans-39"/>
       <use xlink:href="#DejaVuSans-30" x="63.623047"/>
       <use xlink:href="#DejaVuSans-30" x="127.246094"/>
      </g>
     </g>
    </g>
    <g id="ytick_7">
     <g id="line2d_7">
      <path d="M 58.32 70.999606 
L 851.04 70.999606 
" clip-path="url(#p023b19e096)" style="fill: none; stroke: #cccccc; stroke-linecap: round"/>
     </g>
     <g id="text_12">
      <!-- 920 -->
      <g style="fill: #262626" transform="translate(27.82375 75.178746) scale(0.11 -0.11)">
       <use xlink:href="#DejaVuSans-39"/>
       <use xlink:href="#DejaVuSans-32" x="63.623047"/>
       <use xlink:href="#DejaVuSans-30" x="127.246094"/>
      </g>
     </g>
    </g>
    <g id="text_13">
     <!-- Handshake duration (ms) -->
     <g style="fill: #262626" transform="translate(21.328125 278.486335) rotate(-90) scale(0.12 -0.12)">
      <defs>
       <path id="DejaVuSans-48" d="M 628 4666 
L 1259 4666 
L 1259 2753 
L 3553 2753 
L 3553 4666 
L 4184 4666 
L 4184 0 
L 3553 0 
L 3553 2222 
L 1259 2222 
L 1259 0 
L 628 0 
L 628 4666 
z
" transform="scale(0.015625)"/>
       <path id="DejaVuSans-61" d="M 2194 1759 
Q 1497 1759 1228 1600 
Q 959 1441 959 1056 
Q 959 750 1161 570 
Q 1363 391 1709 391 
Q 2188 391 2477 730 
Q 2766 1069 2766 1631 
L 2766 1759 
L 2194 1759 
z
M 3341 1997 
L 3341 0 
L 2766 0 
L 2766 531 
Q 2569 213 2275 61 
Q 1981 -91 1556 -91 
Q 1019 -91 701 211 
Q 384 513 384 1019 
Q 384 1609 779 1909 
Q 1175 2209 1959 2209 
L 2766 2209 
L 2766 2266 
Q 2766 2663 2505 2880 
Q 2244 3097 1772 3097 
Q 1472 3097 1187 3025 
Q 903 2953 641 2809 
L 641 3341 
Q 956 3463 1253 3523 
Q 1550 3584 1831 3584 
Q 2591 3584 2966 3190 
Q 3341 2797 3341 1997 
z
" transform="scale(0.015625)"/>
       <path id="DejaVuSans-6e" d="M 3513 2113 
L 3513 0 
L 2938 0 
L 2938 2094 
Q 2938 2591 2744 2837 
Q 2550 3084 2163 3084 
Q 1697 3084 1428 2787 
Q 1159 2491 1159 1978 
L 1159 0 
L 581 0 
L 581 3500 
L 1159 3500 
L 1159 2956 
Q 1366 3272 1645 3428 
Q 1925 3584 2291 3584 
Q 2894 3584 3203 3211 
Q 3513 2838 3513 2113 
z
" transform="scale(0.015625)"/>
       <path id="DejaVuSans-64" d="M 2906 2969 
L 2906 4863 
L 3481 4863 
L 3481 0 
L 2906 0 
L 2906 525 
Q 2725 213 2448 61 
Q 2172 -91 1784 -91 
Q 1150 -91 751 415 
Q 353 922 353 1747 
Q 353 2572 751 3078 
Q 1150 3584 1784 3584 
Q 2172 3584 2448 3432 
Q 2725 3281 2906 2969 
z
M 947 1747 
Q 947 1113 1208 752 
Q 1469 391 1925 391 
Q 2381 391 2643 752 
Q 2906 1113 2906 1747 
Q 2906 2381 2643 2742 
Q 2381 3103 1925 3103 
Q 1469 3103 1208 2742 
Q 947 2381 947 1747 
z
" transform="scale(0.015625)"/>
       <path id="DejaVuSans-73" d="M 2834 3397 
L 2834 2853 
Q 2591 2978 2328 3040 
Q 2066 3103 1784 3103 
Q 1356 3103 1142 2972 
Q 928 2841 928 2578 
Q 928 2378 1081 2264 
Q 1234 2150 1697 2047 
L 1894 2003 
Q 2506 1872 2764 1633 
Q 3022 1394 3022 966 
Q 3022 478 2636 193 
Q 2250 -91 1575 -91 
Q 1294 -91 989 -36 
Q 684 19 347 128 
L 347 722 
Q 666 556 975 473 
Q 1284 391 1588 391 
Q 1994 391 2212 530 
Q 2431 669 2431 922 
Q 2431 1156 2273 1281 
Q 2116 1406 1581 1522 
L 1381 1569 
Q 847 1681 609 1914 
Q 372 2147 372 2553 
Q 372 3047 722 3315 
Q 1072 3584 1716 3584 
Q 2034 3584 2315 3537 
Q 2597 3491 2834 3397 
z
" transform="scale(0.015625)"/>
       <path id="DejaVuSans-6b" d="M 581 4863 
L 1159 4863 
L 1159 1991 
L 2875 3500 
L 3609 3500 
L 1753 1863 
L 3688 0 
L 2938 0 
L 1159 1709 
L 1159 0 
L 581 0 
L 581 4863 
z
" transform="scale(0.015625)"/>
       <path id="DejaVuSans-65" d="M 3597 1894 
L 3597 1613 
L 953 1613 
Q 991 1019 1311 708 
Q 1631 397 2203 397 
Q 2534 397 2845 478 
Q 3156 559 3463 722 
L 3463 178 
Q 3153 47 2828 -22 
Q 2503 -91 2169 -91 
Q 1331 -91 842 396 
Q 353 884 353 1716 
Q 353 2575 817 3079 
Q 1281 3584 2069 3584 
Q 2775 3584 3186 3129 
Q 3597 2675 3597 1894 
z
M 3022 2063 
Q 3016 2534 2758 2815 
Q 2500 3097 2075 3097 
Q 1594 3097 1305 2825 
Q 1016 2553 972 2059 
L 3022 2063 
z
" transform="scale(0.015625)"/>
       <path id="DejaVuSans-20" transform="scale(0.015625)"/>
       <path id="DejaVuSans-75" d="M 544 1381 
L 544 3500 
L 1119 3500 
L 1119 1403 
Q 1119 906 1312 657 
Q 1506 409 1894 409 
Q 2359 409 2629 706 
Q 2900 1003 2900 1516 
L 2900 3500 
L 3475 3500 
L 3475 0 
L 2900 0 
L 2900 538 
Q 2691 219 2414 64 
Q 2138 -91 1772 -91 
Q 1169 -91 856 284 
Q 544 659 544 1381 
z
M 1991 3584 
L 1991 3584 
z
" transform="scale(0.015625)"/>
       <path id="DejaVuSans-72" d="M 2631 2963 
Q 2534 3019 2420 3045 
Q 2306 3072 2169 3072 
Q 1681 3072 1420 2755 
Q 1159 2438 1159 1844 
L 1159 0 
L 581 0 
L 581 3500 
L 1159 3500 
L 1159 2956 
Q 1341 3275 1631 3429 
Q 1922 3584 2338 3584 
Q 2397 3584 2469 3576 
Q 2541 3569 2628 3553 
L 2631 2963 
z
" transform="scale(0.015625)"/>
       <path id="DejaVuSans-74" d="M 1172 4494 
L 1172 3500 
L 2356 3500 
L 2356 3053 
L 1172 3053 
L 1172 1153 
Q 1172 725 1289 603 
Q 1406 481 1766 481 
L 2356 481 
L 2356 0 
L 1766 0 
Q 1100 0 847 248 
Q 594 497 594 1153 
L 594 3053 
L 172 3053 
L 172 3500 
L 594 3500 
L 594 4494 
L 1172 4494 
z
" transform="scale(0.015625)"/>
       <path id="DejaVuSans-69" d="M 603 3500 
L 1178 3500 
L 1178 0 
L 603 0 
L 603 3500 
z
M 603 4863 
L 1178 4863 
L 1178 4134 
L 603 4134 
L 603 4863 
z
" transform="scale(0.015625)"/>
       <path id="DejaVuSans-6f" d="M 1959 3097 
Q 1497 3097 1228 2736 
Q 959 2375 959 1747 
Q 959 1119 1226 758 
Q 1494 397 1959 397 
Q 2419 397 2687 759 
Q 2956 1122 2956 1747 
Q 2956 2369 2687 2733 
Q 2419 3097 1959 3097 
z
M 1959 3584 
Q 2709 3584 3137 3096 
Q 3566 2609 3566 1747 
Q 3566 888 3137 398 
Q 2709 -91 1959 -91 
Q 1206 -91 779 398 
Q 353 888 353 1747 
Q 353 2609 779 3096 
Q 1206 3584 1959 3584 
z
" transform="scale(0.015625)"/>
       <path id="DejaVuSans-28" d="M 1984 4856 
Q 1566 4138 1362 3434 
Q 1159 2731 1159 2009 
Q 1159 1288 1364 580 
Q 1569 -128 1984 -844 
L 1484 -844 
Q 1016 -109 783 600 
Q 550 1309 550 2009 
Q 550 2706 781 3412 
Q 1013 4119 1484 4856 
L 1984 4856 
z
" transform="scale(0.015625)"/>
       <path id="DejaVuSans-6d" d="M 3328 2828 
Q 3544 3216 3844 3400 
Q 4144 3584 4550 3584 
Q 5097 3584 5394 3201 
Q 5691 2819 5691 2113 
L 5691 0 
L 5113 0 
L 5113 2094 
Q 5113 2597 4934 2840 
Q 4756 3084 4391 3084 
Q 3944 3084 3684 2787 
Q 3425 2491 3425 1978 
L 3425 0 
L 2847 0 
L 2847 2094 
Q 2847 2600 2669 2842 
Q 2491 3084 2119 3084 
Q 1678 3084 1418 2786 
Q 1159 2488 1159 1978 
L 1159 0 
L 581 0 
L 581 3500 
L 1159 3500 
L 1159 2956 
Q 1356 3278 1631 3431 
Q 1906 3584 2284 3584 
Q 2666 3584 2933 3390 
Q 3200 3197 3328 2828 
z
" transform="scale(0.015625)"/>
       <path id="DejaVuSans-29" d="M 513 4856 
L 1013 4856 
Q 1481 4119 1714 3412 
Q 1947 2706 1947 2009 
Q 1947 1309 1714 600 
Q 1481 -109 1013 -844 
L 513 -844 
Q 928 -128 1133 580 
Q 1338 1288 1338 2009 
Q 1338 2731 1133 3434 
Q 928 4138 513 4856 
z
" transform="scale(0.015625)"/>
      </defs>
      <use xlink:href="#DejaVuSans-48"/>
      <use xlink:href="#DejaVuSans-61" x="75.195312"/>
      <use xlink:href="#DejaVuSans-6e" x="136.474609"/>
      <use xlink:href="#DejaVuSans-64" x="199.853516"/>
      <use xlink:href="#DejaVuSans-73" x="263.330078"/>
      <use xlink:href="#DejaVuSans-68" x="315.429688"/>
      <use xlink:href="#DejaVuSans-61" x="378.808594"/>
      <use xlink:href="#DejaVuSans-6b" x="440.087891"/>
      <use xlink:href="#DejaVuSans-65" x="494.373047"/>
      <use xlink:href="#DejaVuSans-20" x="555.896484"/>
      <use xlink:href="#DejaVuSans-64" x="587.683594"/>
      <use xlink:href="#DejaVuSans-75" x="651.160156"/>
      <use xlink:href="#DejaVuSans-72" x="714.539062"/>
      <use xlink:href="#DejaVuSans-61" x="755.652344"/>
      <use xlink:href="#DejaVuSans-74" x="816.931641"/>
      <use xlink:href="#DejaVuSans-69" x="856.140625"/>
      <use xlink:href="#DejaVuSans-6f" x="883.923828"/>
      <use xlink:href="#DejaVuSans-6e" x="945.105469"/>
      <use xlink:href="#DejaVuSans-20" x="1008.484375"/>
      <use xlink:href="#DejaVuSans-28" x="1040.271484"/>
      <use xlink:href="#DejaVuSans-6d" x="1079.285156"/>
      <use xlink:href="#DejaVuSans-73" x="1176.697266"/>
      <use xlink:href="#DejaVuSans-29" x="1228.796875"/>
     </g>
    </g>
   </g>
   <g id="PolyCollection_1">
    <defs>
     <path id="m7e14919902" d="M 137.65686 -82.232381 
L 137.52714 -82.232381 
L 137.486284 -82.792155 
L 137.430353 -83.351929 
L 137.359648 -83.911703 
L 137.276995 -84.471477 
L 137.187082 -85.031251 
L 137.09453 -85.591025 
L 137.001209 -86.150799 
L 136.904025 -86.710573 
L 136.794537 -87.270347 
L 136.66114 -87.830121 
L 136.493175 -88.389894 
L 136.285012 -88.949668 
L 136.037836 -89.509442 
L 135.757835 -90.069216 
L 135.451562 -90.62899 
L 135.121 -91.188764 
L 134.761168 -91.748538 
L 134.361655 -92.308312 
L 133.911059 -92.868086 
L 133.401599 -93.42786 
L 132.831241 -93.987634 
L 132.202301 -94.547408 
L 131.517474 -95.107182 
L 130.775243 -95.666956 
L 129.966185 -96.22673 
L 129.070662 -96.786504 
L 128.057632 -97.346278 
L 126.884562 -97.906052 
L 125.499148 -98.465826 
L 123.843938 -99.025599 
L 121.864327 -99.585373 
L 119.518767 -100.145147 
L 116.78838 -100.704921 
L 113.682525 -101.264695 
L 110.238109 -101.824469 
L 106.51316 -102.384243 
L 102.578094 -102.944017 
L 98.509334 -103.503791 
L 94.388702 -104.063565 
L 90.308682 -104.623339 
L 86.380212 -105.183113 
L 82.737833 -105.742887 
L 79.537563 -106.302661 
L 76.945318 -106.862435 
L 75.116986 -107.422209 
L 74.1744 -107.981983 
L 74.18342 -108.541757 
L 75.140066 -109.10153 
L 76.967731 -109.661304 
L 79.524198 -110.221078 
L 82.614216 -110.780852 
L 86.004136 -111.340626 
L 89.43893 -111.9004 
L 92.665134 -112.460174 
L 95.461945 -113.019948 
L 97.676548 -113.579722 
L 99.253145 -114.139496 
L 100.243504 -114.69927 
L 100.792703 -115.259044 
L 101.103809 -115.818818 
L 101.393596 -116.378592 
L 101.853263 -116.938366 
L 102.623298 -117.49814 
L 103.783917 -118.057914 
L 105.356594 -118.617688 
L 107.3108 -119.177461 
L 109.572467 -119.737235 
L 112.034276 -120.297009 
L 114.569604 -120.856783 
L 117.050821 -121.416557 
L 119.369589 -121.976331 
L 121.45413 -122.536105 
L 123.2781 -123.095879 
L 124.858139 -123.655653 
L 126.241239 -124.215427 
L 127.48662 -124.775201 
L 128.648207 -125.334975 
L 129.762655 -125.894749 
L 130.844979 -126.454523 
L 131.890808 -127.014297 
L 132.882516 -127.574071 
L 133.796296 -128.133845 
L 134.6083 -128.693619 
L 135.299268 -129.253392 
L 135.857832 -129.813166 
L 136.282717 -130.37294 
L 136.583654 -130.932714 
L 136.780523 -131.492488 
L 136.900426 -132.052262 
L 136.973031 -132.612036 
L 137.025263 -133.17181 
L 137.076865 -133.731584 
L 137.138138 -134.291358 
L 137.21038 -134.851132 
L 137.288558 -135.410906 
L 137.364988 -135.97068 
L 137.432651 -136.530454 
L 137.487206 -137.090228 
L 137.527486 -137.650002 
L 137.656514 -137.650002 
L 137.656514 -137.650002 
L 137.696794 -137.090228 
L 137.751349 -136.530454 
L 137.819012 -135.97068 
L 137.895442 -135.410906 
L 137.97362 -134.851132 
L 138.045862 -134.291358 
L 138.107135 -133.731584 
L 138.158737 -133.17181 
L 138.210969 -132.612036 
L 138.283574 -132.052262 
L 138.403477 -131.492488 
L 138.600346 -130.932714 
L 138.901283 -130.37294 
L 139.326168 -129.813166 
L 139.884732 -129.253392 
L 140.5757 -128.693619 
L 141.387704 -128.133845 
L 142.301484 -127.574071 
L 143.293192 -127.014297 
L 144.339021 -126.454523 
L 145.421345 -125.894749 
L 146.535793 -125.334975 
L 147.69738 -124.775201 
L 148.942761 -124.215427 
L 150.325861 -123.655653 
L 151.9059 -123.095879 
L 153.72987 -122.536105 
L 155.814411 -121.976331 
L 158.133179 -121.416557 
L 160.614396 -120.856783 
L 163.149724 -120.297009 
L 165.611533 -119.737235 
L 167.8732 -119.177461 
L 169.827406 -118.617688 
L 171.400083 -118.057914 
L 172.560702 -117.49814 
L 173.330737 -116.938366 
L 173.790404 -116.378592 
L 174.080191 -115.818818 
L 174.391297 -115.259044 
L 174.940496 -114.69927 
L 175.930855 -114.139496 
L 177.507452 -113.579722 
L 179.722055 -113.019948 
L 182.518866 -112.460174 
L 185.74507 -111.9004 
L 189.179864 -111.340626 
L 192.569784 -110.780852 
L 195.659802 -110.221078 
L 198.216269 -109.661304 
L 200.043934 -109.10153 
L 201.00058 -108.541757 
L 201.0096 -107.981983 
L 200.067014 -107.422209 
L 198.238682 -106.862435 
L 195.646437 -106.302661 
L 192.446167 -105.742887 
L 188.803788 -105.183113 
L 184.875318 -104.623339 
L 180.795298 -104.063565 
L 176.674666 -103.503791 
L 172.605906 -102.944017 
L 168.67084 -102.384243 
L 164.945891 -101.824469 
L 161.501475 -101.264695 
L 158.39562 -100.704921 
L 155.665233 -100.145147 
L 153.319673 -99.585373 
L 151.340062 -99.025599 
L 149.684852 -98.465826 
L 148.299438 -97.906052 
L 147.126368 -97.346278 
L 146.113338 -96.786504 
L 145.217815 -96.22673 
L 144.408757 -95.666956 
L 143.666526 -95.107182 
L 142.981699 -94.547408 
L 142.352759 -93.987634 
L 141.782401 -93.42786 
L 141.272941 -92.868086 
L 140.822345 -92.308312 
L 140.422832 -91.748538 
L 140.063 -91.188764 
L 139.732438 -90.62899 
L 139.426165 -90.069216 
L 139.146164 -89.509442 
L 138.898988 -88.949668 
L 138.690825 -88.389894 
L 138.52286 -87.830121 
L 138.389463 -87.270347 
L 138.279975 -86.710573 
L 138.182791 -86.150799 
L 138.08947 -85.591025 
L 137.996918 -85.031251 
L 137.907005 -84.471477 
L 137.824352 -83.911703 
L 137.753647 -83.351929 
L 137.697716 -82.792155 
L 137.65686 -82.232381 
z
" style="stroke: #595959; stroke-width: 1.25"/>
    </defs>
    <g clip-path="url(#p023b19e096)">
     <use xlink:href="#m7e14919902" x="0" y="432" style="fill: #72b6a1; stroke: #595959; stroke-width: 1.25"/>
    </g>
   </g>
   <g id="PolyCollection_2">
    <defs>
     <path id="mfb50ffffcf" d="M 296.191464 -70.655549 
L 296.080536 -70.655549 
L 296.042667 -71.098586 
L 295.987929 -71.541623 
L 295.913313 -71.984661 
L 295.816247 -72.427698 
L 295.693899 -72.870735 
L 295.542215 -73.313772 
L 295.355705 -73.756809 
L 295.129118 -74.199847 
L 294.861391 -74.642884 
L 294.560708 -75.085921 
L 294.247952 -75.528958 
L 293.955721 -75.971995 
L 293.721819 -76.415033 
L 293.57908 -76.85807 
L 293.545765 -77.301107 
L 293.620764 -77.744144 
L 293.785397 -78.187182 
L 294.010161 -78.630219 
L 294.262557 -79.073256 
L 294.512369 -79.516293 
L 294.733085 -79.95933 
L 294.900605 -80.402368 
L 294.991603 -80.845405 
L 294.983226 -81.288442 
L 294.854303 -81.731479 
L 294.587038 -82.174517 
L 294.168231 -82.617554 
L 293.590074 -83.060591 
L 292.851516 -83.503628 
L 291.961088 -83.946665 
L 290.940656 -84.389703 
L 289.82772 -84.83274 
L 288.673151 -85.275777 
L 287.532741 -85.718814 
L 286.454241 -86.161851 
L 285.464805 -86.604889 
L 284.564625 -87.047926 
L 283.729963 -87.490963 
L 282.924072 -87.934 
L 282.110437 -88.377038 
L 281.261897 -88.820075 
L 280.361772 -89.263112 
L 279.397358 -89.706149 
L 278.349169 -90.149186 
L 277.179798 -90.592224 
L 275.82494 -91.035261 
L 274.188078 -91.478298 
L 272.141224 -91.921335 
L 269.536496 -92.364373 
L 266.234355 -92.80741 
L 262.150653 -93.250447 
L 257.31529 -93.693484 
L 251.923434 -94.136521 
L 246.353175 -94.579559 
L 241.128059 -95.022596 
L 236.821218 -95.465633 
L 233.923469 -95.90867 
L 232.7184 -96.351708 
L 233.210916 -96.794745 
L 235.137731 -97.237782 
L 238.055955 -97.680819 
L 241.474637 -98.123856 
L 244.979174 -98.566894 
L 248.306596 -99.009931 
L 251.35554 -99.452968 
L 254.144211 -99.896005 
L 256.747927 -100.339042 
L 259.24767 -100.78208 
L 261.705659 -101.225117 
L 264.164641 -101.668154 
L 266.656019 -102.111191 
L 269.202838 -102.554229 
L 271.813338 -102.997266 
L 274.470731 -103.440303 
L 277.128467 -103.88334 
L 279.71658 -104.326377 
L 282.157667 -104.769415 
L 284.385661 -105.212452 
L 286.359553 -105.655489 
L 288.067317 -106.098526 
L 289.520162 -106.541564 
L 290.741382 -106.984601 
L 291.755724 -107.427638 
L 292.583844 -107.870675 
L 293.243058 -108.313712 
L 293.751998 -108.75675 
L 294.135006 -109.199787 
L 294.422867 -109.642824 
L 294.649119 -110.085861 
L 294.843855 -110.528898 
L 295.028136 -110.971936 
L 295.211461 -111.414973 
L 295.392968 -111.85801 
L 295.565309 -112.301047 
L 295.71934 -112.744085 
L 295.847921 -113.187122 
L 295.947898 -113.630159 
L 296.020257 -114.073196 
L 296.069003 -114.516233 
L 296.202997 -114.516233 
L 296.202997 -114.516233 
L 296.251743 -114.073196 
L 296.324102 -113.630159 
L 296.424079 -113.187122 
L 296.55266 -112.744085 
L 296.706691 -112.301047 
L 296.879032 -111.85801 
L 297.060539 -111.414973 
L 297.243864 -110.971936 
L 297.428145 -110.528898 
L 297.622881 -110.085861 
L 297.849133 -109.642824 
L 298.136994 -109.199787 
L 298.520002 -108.75675 
L 299.028942 -108.313712 
L 299.688156 -107.870675 
L 300.516276 -107.427638 
L 301.530618 -106.984601 
L 302.751838 -106.541564 
L 304.204683 -106.098526 
L 305.912447 -105.655489 
L 307.886339 -105.212452 
L 310.114333 -104.769415 
L 312.55542 -104.326377 
L 315.143533 -103.88334 
L 317.801269 -103.440303 
L 320.458662 -102.997266 
L 323.069162 -102.554229 
L 325.615981 -102.111191 
L 328.107359 -101.668154 
L 330.566341 -101.225117 
L 333.02433 -100.78208 
L 335.524073 -100.339042 
L 338.127789 -99.896005 
L 340.91646 -99.452968 
L 343.965404 -99.009931 
L 347.292826 -98.566894 
L 350.797363 -98.123856 
L 354.216045 -97.680819 
L 357.134269 -97.237782 
L 359.061084 -96.794745 
L 359.5536 -96.351708 
L 358.348531 -95.90867 
L 355.450782 -95.465633 
L 351.143941 -95.022596 
L 345.918825 -94.579559 
L 340.348566 -94.136521 
L 334.95671 -93.693484 
L 330.121347 -93.250447 
L 326.037645 -92.80741 
L 322.735504 -92.364373 
L 320.130776 -91.921335 
L 318.083922 -91.478298 
L 316.44706 -91.035261 
L 315.092202 -90.592224 
L 313.922831 -90.149186 
L 312.874642 -89.706149 
L 311.910228 -89.263112 
L 311.010103 -88.820075 
L 310.161563 -88.377038 
L 309.347928 -87.934 
L 308.542037 -87.490963 
L 307.707375 -87.047926 
L 306.807195 -86.604889 
L 305.817759 -86.161851 
L 304.739259 -85.718814 
L 303.598849 -85.275777 
L 302.44428 -84.83274 
L 301.331344 -84.389703 
L 300.310912 -83.946665 
L 299.420484 -83.503628 
L 298.681926 -83.060591 
L 298.103769 -82.617554 
L 297.684962 -82.174517 
L 297.417697 -81.731479 
L 297.288774 -81.288442 
L 297.280397 -80.845405 
L 297.371395 -80.402368 
L 297.538915 -79.95933 
L 297.759631 -79.516293 
L 298.009443 -79.073256 
L 298.261839 -78.630219 
L 298.486603 -78.187182 
L 298.651236 -77.744144 
L 298.726235 -77.301107 
L 298.69292 -76.85807 
L 298.550181 -76.415033 
L 298.316279 -75.971995 
L 298.024048 -75.528958 
L 297.711292 -75.085921 
L 297.410609 -74.642884 
L 297.142882 -74.199847 
L 296.916295 -73.756809 
L 296.729785 -73.313772 
L 296.578101 -72.870735 
L 296.455753 -72.427698 
L 296.358687 -71.984661 
L 296.284071 -71.541623 
L 296.229333 -71.098586 
L 296.191464 -70.655549 
z
" style="stroke: #595959; stroke-width: 1.25"/>
    </defs>
    <g clip-path="url(#p023b19e096)">
     <use xlink:href="#mfb50ffffcf" x="0" y="432" style="fill: #e99675; stroke: #595959; stroke-width: 1.25"/>
    </g>
   </g>
   <g id="PolyCollection_3">
    <defs>
     <path id="mbaad911ae6" d="M 454.753466 -168.150695 
L 454.606534 -168.150695 
L 454.559896 -170.097992 
L 454.486825 -172.045288 
L 454.372699 -173.992584 
L 454.194412 -175.93988 
L 453.915919 -177.887176 
L 453.482656 -179.834473 
L 452.815623 -181.781769 
L 451.806819 -183.729065 
L 450.318637 -185.676361 
L 448.190471 -187.623657 
L 445.255584 -189.570953 
L 441.369732 -191.51825 
L 436.450069 -193.465546 
L 430.51862 -195.412842 
L 423.740489 -197.360138 
L 416.444404 -199.307434 
L 409.11408 -201.254731 
L 402.344057 -203.202027 
L 396.762543 -205.149323 
L 392.934015 -207.096619 
L 391.2624 -209.043915 
L 391.918136 -210.991211 
L 394.8078 -212.938508 
L 399.594137 -214.885804 
L 405.760836 -216.8331 
L 412.704881 -218.780396 
L 419.833474 -220.727692 
L 426.644075 -222.674989 
L 432.773505 -224.622285 
L 438.012294 -226.569581 
L 442.289617 -228.516877 
L 445.639773 -230.464173 
L 448.162305 -232.411469 
L 449.985439 -234.358766 
L 451.238365 -236.306062 
L 452.03373 -238.253358 
L 452.458869 -240.200654 
L 452.573049 -242.14795 
L 452.408172 -244.095247 
L 451.971365 -246.042543 
L 451.249067 -247.989839 
L 450.213099 -249.937135 
L 448.829495 -251.884431 
L 447.070455 -253.831727 
L 444.928765 -255.779024 
L 442.432722 -257.72632 
L 439.658421 -259.673616 
L 436.735715 -261.620912 
L 433.844643 -263.568208 
L 431.200724 -265.515505 
L 429.030107 -267.462801 
L 427.538299 -269.410097 
L 426.878455 -271.357393 
L 427.125975 -273.304689 
L 428.265187 -275.251985 
L 430.191228 -277.199282 
L 432.726724 -279.146578 
L 435.649453 -281.093874 
L 438.724931 -283.04117 
L 441.737297 -284.988466 
L 444.513029 -286.935763 
L 446.934342 -288.883059 
L 448.941784 -290.830355 
L 450.527831 -292.777651 
L 451.724638 -294.724947 
L 452.589426 -296.672243 
L 453.190496 -298.61954 
L 453.595876 -300.566836 
L 453.865542 -302.514132 
L 454.047269 -304.461428 
L 454.17554 -306.408724 
L 454.272647 -308.356021 
L 454.351051 -310.303317 
L 454.416183 -312.250613 
L 454.469061 -314.197909 
L 454.508364 -316.145205 
L 454.531858 -318.092501 
L 454.537261 -320.039798 
L 454.522755 -321.987094 
L 454.487377 -323.93439 
L 454.431436 -325.881686 
L 454.356996 -327.828982 
L 454.268292 -329.776279 
L 454.17189 -331.723575 
L 454.076392 -333.670871 
L 453.991563 -335.618167 
L 453.926983 -337.565463 
L 453.890463 -339.512759 
L 453.886622 -341.460056 
L 453.916005 -343.407352 
L 453.975006 -345.354648 
L 454.056617 -347.301944 
L 454.151809 -349.24924 
L 454.251169 -351.196537 
L 454.346396 -353.143833 
L 454.431334 -355.091129 
L 454.502405 -357.038425 
L 454.558476 -358.985721 
L 454.60033 -360.933017 
L 454.75967 -360.933017 
L 454.75967 -360.933017 
L 454.801524 -358.985721 
L 454.857595 -357.038425 
L 454.928666 -355.091129 
L 455.013604 -353.143833 
L 455.108831 -351.196537 
L 455.208191 -349.24924 
L 455.303383 -347.301944 
L 455.384994 -345.354648 
L 455.443995 -343.407352 
L 455.473378 -341.460056 
L 455.469537 -339.512759 
L 455.433017 -337.565463 
L 455.368437 -335.618167 
L 455.283608 -333.670871 
L 455.18811 -331.723575 
L 455.091708 -329.776279 
L 455.003004 -327.828982 
L 454.928564 -325.881686 
L 454.872623 -323.93439 
L 454.837245 -321.987094 
L 454.822739 -320.039798 
L 454.828142 -318.092501 
L 454.851636 -316.145205 
L 454.890939 -314.197909 
L 454.943817 -312.250613 
L 455.008949 -310.303317 
L 455.087353 -308.356021 
L 455.18446 -306.408724 
L 455.312731 -304.461428 
L 455.494458 -302.514132 
L 455.764124 -300.566836 
L 456.169504 -298.61954 
L 456.770574 -296.672243 
L 457.635362 -294.724947 
L 458.832169 -292.777651 
L 460.418216 -290.830355 
L 462.425658 -288.883059 
L 464.846971 -286.935763 
L 467.622703 -284.988466 
L 470.635069 -283.04117 
L 473.710547 -281.093874 
L 476.633276 -279.146578 
L 479.168772 -277.199282 
L 481.094813 -275.251985 
L 482.234025 -273.304689 
L 482.481545 -271.357393 
L 481.821701 -269.410097 
L 480.329893 -267.462801 
L 478.159276 -265.515505 
L 475.515357 -263.568208 
L 472.624285 -261.620912 
L 469.701579 -259.673616 
L 466.927278 -257.72632 
L 464.431235 -255.779024 
L 462.289545 -253.831727 
L 460.530505 -251.884431 
L 459.146901 -249.937135 
L 458.110933 -247.989839 
L 457.388635 -246.042543 
L 456.951828 -244.095247 
L 456.786951 -242.14795 
L 456.901131 -240.200654 
L 457.32627 -238.253358 
L 458.121635 -236.306062 
L 459.374561 -234.358766 
L 461.197695 -232.411469 
L 463.720227 -230.464173 
L 467.070383 -228.516877 
L 471.347706 -226.569581 
L 476.586495 -224.622285 
L 482.715925 -222.674989 
L 489.526526 -220.727692 
L 496.655119 -218.780396 
L 503.599164 -216.8331 
L 509.765863 -214.885804 
L 514.5522 -212.938508 
L 517.441864 -210.991211 
L 518.0976 -209.043915 
L 516.425985 -207.096619 
L 512.597457 -205.149323 
L 507.015943 -203.202027 
L 500.24592 -201.254731 
L 492.915596 -199.307434 
L 485.619511 -197.360138 
L 478.84138 -195.412842 
L 472.909931 -193.465546 
L 467.990268 -191.51825 
L 464.104416 -189.570953 
L 461.169529 -187.623657 
L 459.041363 -185.676361 
L 457.553181 -183.729065 
L 456.544377 -181.781769 
L 455.877344 -179.834473 
L 455.444081 -177.887176 
L 455.165588 -175.93988 
L 454.987301 -173.992584 
L 454.873175 -172.045288 
L 454.800104 -170.097992 
L 454.753466 -168.150695 
z
" style="stroke: #595959; stroke-width: 1.25"/>
    </defs>
    <g clip-path="url(#p023b19e096)">
     <use xlink:href="#mbaad911ae6" x="0" y="432" style="fill: #95a3c3; stroke: #595959; stroke-width: 1.25"/>
    </g>
   </g>
   <g id="PolyCollection_4">
    <defs>
     <path id="m19013d5a2d" d="M 613.278369 -178.980054 
L 613.169631 -178.980054 
L 613.142303 -181.096492 
L 613.106669 -183.21293 
L 613.062832 -185.329368 
L 613.011971 -187.445806 
L 612.956157 -189.562244 
L 612.897531 -191.678682 
L 612.836611 -193.79512 
L 612.769525 -195.911558 
L 612.68404 -198.027995 
L 612.554372 -200.144433 
L 612.334951 -202.260871 
L 611.953704 -204.377309 
L 611.306108 -206.493747 
L 610.252207 -208.610185 
L 608.61978 -210.726623 
L 606.217323 -212.843061 
L 602.85982 -214.959499 
L 598.407786 -217.075937 
L 592.815701 -219.192375 
L 586.180668 -221.308812 
L 578.777661 -223.42525 
L 571.066467 -225.541688 
L 563.659226 -227.658126 
L 557.246505 -229.774564 
L 552.492057 -231.891002 
L 549.917772 -234.00744 
L 549.8064 -236.123878 
L 552.147258 -238.240316 
L 556.639481 -240.356754 
L 562.751733 -242.473191 
L 569.822119 -244.589629 
L 577.172475 -246.706067 
L 584.210136 -248.822505 
L 590.497104 -250.938943 
L 595.778013 -253.055381 
L 599.969943 -255.171819 
L 603.125463 -257.288257 
L 605.383455 -259.404695 
L 606.920818 -261.521133 
L 607.913793 -263.637571 
L 608.512491 -265.754008 
L 608.828034 -267.870446 
L 608.929239 -269.986884 
L 608.845232 -272.103322 
L 608.571117 -274.21976 
L 608.075389 -276.336198 
L 607.309169 -278.452636 
L 606.218148 -280.569074 
L 604.757879 -282.685512 
L 602.911801 -284.80195 
L 600.709449 -286.918388 
L 598.240506 -289.034825 
L 595.659516 -291.151263 
L 593.176975 -293.267701 
L 591.035343 -295.384139 
L 589.472724 -297.500577 
L 588.681251 -299.617015 
L 588.769977 -301.733453 
L 589.741994 -303.849891 
L 591.492223 -305.966329 
L 593.826809 -308.082767 
L 596.499115 -310.199205 
L 599.253041 -312.315642 
L 601.863227 -314.43208 
L 604.163691 -316.548518 
L 606.060692 -318.664956 
L 607.530228 -320.781394 
L 608.60419 -322.897832 
L 609.350778 -325.01427 
L 609.854479 -327.130708 
L 610.199372 -329.247146 
L 610.457551 -331.363584 
L 610.682881 -333.480022 
L 610.909263 -335.596459 
L 611.152183 -337.712897 
L 611.412317 -339.829335 
L 611.680106 -341.945773 
L 611.940449 -344.062211 
L 612.176891 -346.178649 
L 612.374916 -348.295087 
L 612.524191 -350.411525 
L 612.619817 -352.527963 
L 612.662723 -354.644401 
L 612.659392 -356.760838 
L 612.621007 -358.877276 
L 612.562089 -360.993714 
L 612.498651 -363.110152 
L 612.446044 -365.22659 
L 612.416776 -367.343028 
L 612.418733 -369.459466 
L 612.454211 -371.575904 
L 612.520018 -373.692342 
L 612.608629 -375.80878 
L 612.710062 -377.925218 
L 612.813999 -380.041655 
L 612.9116 -382.158093 
L 612.996667 -384.274531 
L 613.06601 -386.390969 
L 613.119142 -388.507407 
L 613.328858 -388.507407 
L 613.328858 -388.507407 
L 613.38199 -386.390969 
L 613.451333 -384.274531 
L 613.5364 -382.158093 
L 613.634001 -380.041655 
L 613.737938 -377.925218 
L 613.839371 -375.80878 
L 613.927982 -373.692342 
L 613.993789 -371.575904 
L 614.029267 -369.459466 
L 614.031224 -367.343028 
L 614.001956 -365.22659 
L 613.949349 -363.110152 
L 613.885911 -360.993714 
L 613.826993 -358.877276 
L 613.788608 -356.760838 
L 613.785277 -354.644401 
L 613.828183 -352.527963 
L 613.923809 -350.411525 
L 614.073084 -348.295087 
L 614.271109 -346.178649 
L 614.507551 -344.062211 
L 614.767894 -341.945773 
L 615.035683 -339.829335 
L 615.295817 -337.712897 
L 615.538737 -335.596459 
L 615.765119 -333.480022 
L 615.990449 -331.363584 
L 616.248628 -329.247146 
L 616.593521 -327.130708 
L 617.097222 -325.01427 
L 617.84381 -322.897832 
L 618.917772 -320.781394 
L 620.387308 -318.664956 
L 622.284309 -316.548518 
L 624.584773 -314.43208 
L 627.194959 -312.315642 
L 629.948885 -310.199205 
L 632.621191 -308.082767 
L 634.955777 -305.966329 
L 636.706006 -303.849891 
L 637.678023 -301.733453 
L 637.766749 -299.617015 
L 636.975276 -297.500577 
L 635.412657 -295.384139 
L 633.271025 -293.267701 
L 630.788484 -291.151263 
L 628.207494 -289.034825 
L 625.738551 -286.918388 
L 623.536199 -284.80195 
L 621.690121 -282.685512 
L 620.229852 -280.569074 
L 619.138831 -278.452636 
L 618.372611 -276.336198 
L 617.876883 -274.21976 
L 617.602768 -272.103322 
L 617.518761 -269.986884 
L 617.619966 -267.870446 
L 617.935509 -265.754008 
L 618.534207 -263.637571 
L 619.527182 -261.521133 
L 621.064545 -259.404695 
L 623.322537 -257.288257 
L 626.478057 -255.171819 
L 630.669987 -253.055381 
L 635.950896 -250.938943 
L 642.237864 -248.822505 
L 649.275525 -246.706067 
L 656.625881 -244.589629 
L 663.696267 -242.473191 
L 669.808519 -240.356754 
L 674.300742 -238.240316 
L 676.6416 -236.123878 
L 676.530228 -234.00744 
L 673.955943 -231.891002 
L 669.201495 -229.774564 
L 662.788774 -227.658126 
L 655.381533 -225.541688 
L 647.670339 -223.42525 
L 640.267332 -221.308812 
L 633.632299 -219.192375 
L 628.040214 -217.075937 
L 623.58818 -214.959499 
L 620.230677 -212.843061 
L 617.82822 -210.726623 
L 616.195793 -208.610185 
L 615.141892 -206.493747 
L 614.494296 -204.377309 
L 614.113049 -202.260871 
L 613.893628 -200.144433 
L 613.76396 -198.027995 
L 613.678475 -195.911558 
L 613.611389 -193.79512 
L 613.550469 -191.678682 
L 613.491843 -189.562244 
L 613.436029 -187.445806 
L 613.385168 -185.329368 
L 613.341331 -183.21293 
L 613.305697 -181.096492 
L 613.278369 -178.980054 
z
" style="stroke: #595959; stroke-width: 1.25"/>
    </defs>
    <g clip-path="url(#p023b19e096)">
     <use xlink:href="#m19013d5a2d" x="0" y="432" style="fill: #db96c0; stroke: #595959; stroke-width: 1.25"/>
    </g>
   </g>
   <g id="PolyCollection_5">
    <defs>
     <path id="me64dd2343c" d="M 771.972435 -173.577146 
L 771.563565 -173.577146 
L 771.42663 -175.595038 
L 771.210972 -177.612931 
L 770.878818 -179.630823 
L 770.378344 -181.648715 
L 769.640846 -183.666607 
L 768.578968 -185.684499 
L 767.087334 -187.702391 
L 765.04721 -189.720283 
L 762.336877 -191.738175 
L 758.848771 -193.756067 
L 754.513067 -195.773959 
L 749.325374 -197.791851 
L 743.373821 -199.809744 
L 736.858895 -201.827636 
L 730.098757 -203.845528 
L 723.514166 -205.86342 
L 717.590758 -207.881312 
L 712.821745 -209.899204 
L 709.639714 -211.917096 
L 708.3504 -213.934988 
L 709.082502 -215.95288 
L 711.765005 -217.970772 
L 716.137577 -219.988665 
L 721.791971 -222.006557 
L 728.235238 -224.024449 
L 734.961065 -226.042341 
L 741.514774 -228.060233 
L 747.540502 -230.078125 
L 752.804522 -232.096017 
L 757.194747 -234.113909 
L 760.701453 -236.131801 
L 763.387006 -238.149693 
L 765.352734 -240.167586 
L 766.709423 -242.185478 
L 767.555412 -244.20337 
L 767.96364 -246.221262 
L 767.977096 -248.239154 
L 767.611081 -250.257046 
L 766.860456 -252.274938 
L 765.710219 -254.29283 
L 764.148008 -256.310722 
L 762.177233 -258.328614 
L 759.829348 -260.346507 
L 757.173484 -262.364399 
L 754.321482 -264.382291 
L 751.426483 -266.400183 
L 748.673965 -268.418075 
L 746.265331 -270.435967 
L 744.39573 -272.453859 
L 743.22938 -274.471751 
L 742.876673 -276.489643 
L 743.377555 -278.507535 
L 744.694686 -280.525428 
L 746.71807 -282.54332 
L 749.280428 -284.561212 
L 752.180354 -286.579104 
L 755.208793 -288.596996 
L 758.173962 -290.614888 
L 760.920632 -292.63278 
L 763.341269 -294.650672 
L 765.378487 -296.668564 
L 767.020046 -298.686456 
L 768.288755 -300.704348 
L 769.230116 -302.722241 
L 769.900262 -304.740133 
L 770.356063 -306.758025 
L 770.64836 -308.775917 
L 770.818466 -310.793809 
L 770.897432 -312.811701 
L 770.907239 -314.829593 
L 770.863007 -316.847485 
L 770.775458 -318.865377 
L 770.653108 -320.883269 
L 770.50394 -322.901162 
L 770.336485 -324.919054 
L 770.160373 -326.936946 
L 769.986413 -328.954838 
L 769.826247 -330.97273 
L 769.691619 -332.990622 
L 769.593327 -335.008514 
L 769.540012 -337.026406 
L 769.537029 -339.044298 
L 769.585662 -341.06219 
L 769.682908 -343.080083 
L 769.821932 -345.097975 
L 769.99309 -347.115867 
L 770.185301 -349.133759 
L 770.387439 -351.151651 
L 770.589478 -353.169543 
L 770.783229 -355.187435 
L 770.962625 -357.205327 
L 771.123671 -359.223219 
L 771.264175 -361.241111 
L 771.383424 -363.259004 
L 771.481862 -365.276896 
L 771.560812 -367.294788 
L 771.622242 -369.31268 
L 771.66853 -371.330572 
L 771.70225 -373.348464 
L 771.83375 -373.348464 
L 771.83375 -373.348464 
L 771.86747 -371.330572 
L 771.913758 -369.31268 
L 771.975188 -367.294788 
L 772.054138 -365.276896 
L 772.152576 -363.259004 
L 772.271825 -361.241111 
L 772.412329 -359.223219 
L 772.573375 -357.205327 
L 772.752771 -355.187435 
L 772.946522 -353.169543 
L 773.148561 -351.151651 
L 773.350699 -349.133759 
L 773.54291 -347.115867 
L 773.714068 -345.097975 
L 773.853092 -343.080083 
L 773.950338 -341.06219 
L 773.998971 -339.044298 
L 773.995988 -337.026406 
L 773.942673 -335.008514 
L 773.844381 -332.990622 
L 773.709753 -330.97273 
L 773.549587 -328.954838 
L 773.375627 -326.936946 
L 773.199515 -324.919054 
L 773.03206 -322.901162 
L 772.882892 -320.883269 
L 772.760542 -318.865377 
L 772.672993 -316.847485 
L 772.628761 -314.829593 
L 772.638568 -312.811701 
L 772.717534 -310.793809 
L 772.88764 -308.775917 
L 773.179937 -306.758025 
L 773.635738 -304.740133 
L 774.305884 -302.722241 
L 775.247245 -300.704348 
L 776.515954 -298.686456 
L 778.157513 -296.668564 
L 780.194731 -294.650672 
L 782.615368 -292.63278 
L 785.362038 -290.614888 
L 788.327207 -288.596996 
L 791.355646 -286.579104 
L 794.255572 -284.561212 
L 796.81793 -282.54332 
L 798.841314 -280.525428 
L 800.158445 -278.507535 
L 800.659327 -276.489643 
L 800.30662 -274.471751 
L 799.14027 -272.453859 
L 797.270669 -270.435967 
L 794.862035 -268.418075 
L 792.109517 -266.400183 
L 789.214518 -264.382291 
L 786.362516 -262.364399 
L 783.706652 -260.346507 
L 781.358767 -258.328614 
L 779.387992 -256.310722 
L 777.825781 -254.29283 
L 776.675544 -252.274938 
L 775.924919 -250.257046 
L 775.558904 -248.239154 
L 775.57236 -246.221262 
L 775.980588 -244.20337 
L 776.826577 -242.185478 
L 778.183266 -240.167586 
L 780.148994 -238.149693 
L 782.834547 -236.131801 
L 786.341253 -234.113909 
L 790.731478 -232.096017 
L 795.995498 -230.078125 
L 802.021226 -228.060233 
L 808.574935 -226.042341 
L 815.300762 -224.024449 
L 821.744029 -222.006557 
L 827.398423 -219.988665 
L 831.770995 -217.970772 
L 834.453498 -215.95288 
L 835.1856 -213.934988 
L 833.896286 -211.917096 
L 830.714255 -209.899204 
L 825.945242 -207.881312 
L 820.021834 -205.86342 
L 813.437243 -203.845528 
L 806.677105 -201.827636 
L 800.162179 -199.809744 
L 794.210626 -197.791851 
L 789.022933 -195.773959 
L 784.687229 -193.756067 
L 781.199123 -191.738175 
L 778.48879 -189.720283 
L 776.448666 -187.702391 
L 774.957032 -185.684499 
L 773.895154 -183.666607 
L 773.157656 -181.648715 
L 772.657182 -179.630823 
L 772.325028 -177.612931 
L 772.10937 -175.595038 
L 771.972435 -173.577146 
z
" style="stroke: #595959; stroke-width: 1.25"/>
    </defs>
    <g clip-path="url(#p023b19e096)">
     <use xlink:href="#me64dd2343c" x="0" y="432" style="fill: #a2c865; stroke: #595959; stroke-width: 1.25"/>
    </g>
   </g>
   <g id="line2d_8">
    <path d="M 137.592 326.263508 
L 137.592 340.898854 
" clip-path="url(#p023b19e096)" style="fill: none; stroke: #000000"/>
   </g>
   <g id="line2d_9">
    <path d="M 137.592 316.381841 
L 137.592 303.443346 
" clip-path="url(#p023b19e096)" style="fill: none; stroke: #000000"/>
   </g>
   <g id="line2d_10">
    <path d="M 131.6466 340.898854 
L 143.5374 340.898854 
" clip-path="url(#p023b19e096)" style="fill: none; stroke: #000000; stroke-linecap: round"/>
   </g>
   <g id="line2d_11">
    <path d="M 131.6466 303.443346 
L 143.5374 303.443346 
" clip-path="url(#p023b19e096)" style="fill: none; stroke: #000000; stroke-linecap: round"/>
   </g>
   <g id="line2d_12">
    <path d="M 296.136 337.923125 
L 296.136 346.189039 
" clip-path="url(#p023b19e096)" style="fill: none; stroke: #000000"/>
   </g>
   <g id="line2d_13">
    <path d="M 296.136 332.264873 
L 296.136 324.753809 
" clip-path="url(#p023b19e096)" style="fill: none; stroke: #000000"/>
   </g>
   <g id="line2d_14">
    <path d="M 290.1906 346.189039 
L 302.0814 346.189039 
" clip-path="url(#p023b19e096)" style="fill: none; stroke: #000000; stroke-linecap: round"/>
   </g>
   <g id="line2d_15">
    <path d="M 290.1906 324.753809 
L 302.0814 324.753809 
" clip-path="url(#p023b19e096)" style="fill: none; stroke: #000000; stroke-linecap: round"/>
   </g>
   <g id="line2d_16">
    <path d="M 454.68 223.341961 
L 454.68 245.301219 
" clip-path="url(#p023b19e096)" style="fill: none; stroke: #000000"/>
   </g>
   <g id="line2d_17">
    <path d="M 454.68 163.989579 
L 454.68 89.615068 
" clip-path="url(#p023b19e096)" style="fill: none; stroke: #000000"/>
   </g>
   <g id="line2d_18">
    <path d="M 448.7346 245.301219 
L 460.6254 245.301219 
" clip-path="url(#p023b19e096)" style="fill: none; stroke: #000000; stroke-linecap: round"/>
   </g>
   <g id="line2d_19">
    <path d="M 448.7346 89.615068 
L 460.6254 89.615068 
" clip-path="url(#p023b19e096)" style="fill: none; stroke: #000000; stroke-linecap: round"/>
   </g>
   <g id="line2d_20">
    <path d="M 613.224 198.076337 
L 613.224 233.298488 
" clip-path="url(#p023b19e096)" style="fill: none; stroke: #000000"/>
   </g>
   <g id="line2d_21">
    <path d="M 613.224 135.118145 
L 613.224 63.214051 
" clip-path="url(#p023b19e096)" style="fill: none; stroke: #000000"/>
   </g>
   <g id="line2d_22">
    <path d="M 607.2786 233.298488 
L 619.1694 233.298488 
" clip-path="url(#p023b19e096)" style="fill: none; stroke: #000000; stroke-linecap: round"/>
   </g>
   <g id="line2d_23">
    <path d="M 607.2786 63.214051 
L 619.1694 63.214051 
" clip-path="url(#p023b19e096)" style="fill: none; stroke: #000000; stroke-linecap: round"/>
   </g>
   <g id="line2d_24">
    <path d="M 771.768 219.02497 
L 771.768 238.189414 
" clip-path="url(#p023b19e096)" style="fill: none; stroke: #000000"/>
   </g>
   <g id="line2d_25">
    <path d="M 771.768 158.886547 
L 771.768 78.884976 
" clip-path="url(#p023b19e096)" style="fill: none; stroke: #000000"/>
   </g>
   <g id="line2d_26">
    <path d="M 765.8226 238.189414 
L 777.7134 238.189414 
" clip-path="url(#p023b19e096)" style="fill: none; stroke: #000000; stroke-linecap: round"/>
   </g>
   <g id="line2d_27">
    <path d="M 765.8226 78.884976 
L 777.7134 78.884976 
" clip-path="url(#p023b19e096)" style="fill: none; stroke: #000000; stroke-linecap: round"/>
   </g>
   <g id="line2d_28">
    <path d="M 125.7012 322.507975 
L 149.4828 322.507975 
" clip-path="url(#p023b19e096)" style="fill: none; stroke: #ff0000; stroke-width: 2"/>
   </g>
   <g id="line2d_29">
    <path d="M 284.2452 335.546285 
L 308.0268 335.546285 
" clip-path="url(#p023b19e096)" style="fill: none; stroke: #ff0000; stroke-width: 2"/>
   </g>
   <g id="line2d_30">
    <path d="M 442.7892 220.646961 
L 466.5708 220.646961 
" clip-path="url(#p023b19e096)" style="fill: none; stroke: #ff0000; stroke-width: 2"/>
   </g>
   <g id="line2d_31">
    <path d="M 601.3332 194.670156 
L 625.1148 194.670156 
" clip-path="url(#p023b19e096)" style="fill: none; stroke: #ff0000; stroke-width: 2"/>
   </g>
   <g id="line2d_32">
    <path d="M 759.8772 214.358628 
L 783.6588 214.358628 
" clip-path="url(#p023b19e096)" style="fill: none; stroke: #ff0000; stroke-width: 2"/>
   </g>
   <g id="patch_3">
    <path d="M 58.32 377.237044 
L 58.32 27.6 
" style="fill: none; stroke: #cccccc; stroke-width: 1.25; stroke-linejoin: miter; stroke-linecap: square"/>
   </g>
   <g id="patch_4">
    <path d="M 851.04 377.237044 
L 851.04 27.6 
" style="fill: none; stroke: #cccccc; stroke-width: 1.25; stroke-linejoin: miter; stroke-linecap: square"/>
   </g>
   <g id="patch_5">
    <path d="M 58.32 377.237044 
L 851.04 377.237044 
" style="fill: none; stroke: #cccccc; stroke-width: 1.25; stroke-linejoin: miter; stroke-linecap: square"/>
   </g>
   <g id="patch_6">
    <path d="M 58.32 27.6 
L 851.04 27.6 
" style="fill: none; stroke: #cccccc; stroke-width: 1.25; stroke-linejoin: miter; stroke-linecap: square"/>
   </g>
   <g id="text_14">
    <!-- Handshake duration on TLS with secp384r1 signature algorithm — Degraded (200ms/10%) -->
    <g style="fill: #262626" transform="translate(181.07625 21.6) scale(0.12 -0.12)">
     <defs>
      <path id="DejaVuSans-54" d="M -19 4666 
L 3928 4666 
L 3928 4134 
L 2272 4134 
L 2272 0 
L 1638 0 
L 1638 4134 
L -19 4134 
L -19 4666 
z
" transform="scale(0.015625)"/>
      <path id="DejaVuSans-4c" d="M 628 4666 
L 1259 4666 
L 1259 531 
L 3531 531 
L 3531 0 
L 628 0 
L 628 4666 
z
" transform="scale(0.015625)"/>
      <path id="DejaVuSans-53" d="M 3425 4513 
L 3425 3897 
Q 3066 4069 2747 4153 
Q 2428 4238 2131 4238 
Q 1616 4238 1336 4038 
Q 1056 3838 1056 3469 
Q 1056 3159 1242 3001 
Q 1428 2844 1947 2747 
L 2328 2669 
Q 3034 2534 3370 2195 
Q 3706 1856 3706 1288 
Q 3706 609 3251 259 
Q 2797 -91 1919 -91 
Q 1588 -91 1214 -16 
Q 841 59 441 206 
L 441 856 
Q 825 641 1194 531 
Q 1563 422 1919 422 
Q 2459 422 2753 634 
Q 3047 847 3047 1241 
Q 3047 1584 2836 1778 
Q 2625 1972 2144 2069 
L 1759 2144 
Q 1053 2284 737 2584 
Q 422 2884 422 3419 
Q 422 4038 858 4394 
Q 1294 4750 2059 4750 
Q 2388 4750 2728 4690 
Q 3069 4631 3425 4513 
z
" transform="scale(0.015625)"/>
      <path id="DejaVuSans-77" d="M 269 3500 
L 844 3500 
L 1563 769 
L 2278 3500 
L 2956 3500 
L 3675 769 
L 4391 3500 
L 4966 3500 
L 4050 0 
L 3372 0 
L 2619 2869 
L 1863 0 
L 1184 0 
L 269 3500 
z
" transform="scale(0.015625)"/>
      <path id="DejaVuSans-67" d="M 2906 1791 
Q 2906 2416 2648 2759 
Q 2391 3103 1925 3103 
Q 1463 3103 1205 2759 
Q 947 2416 947 1791 
Q 947 1169 1205 825 
Q 1463 481 1925 481 
Q 2391 481 2648 825 
Q 2906 1169 2906 1791 
z
M 3481 434 
Q 3481 -459 3084 -895 
Q 2688 -1331 1869 -1331 
Q 1566 -1331 1297 -1286 
Q 1028 -1241 775 -1147 
L 775 -588 
Q 1028 -725 1275 -790 
Q 1522 -856 1778 -856 
Q 2344 -856 2625 -561 
Q 2906 -266 2906 331 
L 2906 616 
Q 2728 306 2450 153 
Q 2172 0 1784 0 
Q 1141 0 747 490 
Q 353 981 353 1791 
Q 353 2603 747 3093 
Q 1141 3584 1784 3584 
Q 2172 3584 2450 3431 
Q 2728 3278 2906 2969 
L 2906 3500 
L 3481 3500 
L 3481 434 
z
" transform="scale(0.015625)"/>
      <path id="DejaVuSans-6c" d="M 603 4863 
L 1178 4863 
L 1178 0 
L 603 0 
L 603 4863 
z
" transform="scale(0.015625)"/>
      <path id="DejaVuSans-2014" d="M 313 1978 
L 6088 1978 
L 6088 1528 
L 313 1528 
L 313 1978 
z
" transform="scale(0.015625)"/>
      <path id="DejaVuSans-44" d="M 1259 4147 
L 1259 519 
L 2022 519 
Q 2988 519 3436 956 
Q 3884 1394 3884 2338 
Q 3884 3275 3436 3711 
Q 2988 4147 2022 4147 
L 1259 4147 
z
M 628 4666 
L 1925 4666 
Q 3281 4666 3915 4102 
Q 4550 3538 4550 2338 
Q 4550 1131 3912 565 
Q 3275 0 1925 0 
L 628 0 
L 628 4666 
z
" transform="scale(0.015625)"/>
      <path id="DejaVuSans-2f" d="M 1625 4666 
L 2156 4666 
L 531 -594 
L 0 -594 
L 1625 4666 
z
" transform="scale(0.015625)"/>
      <path id="DejaVuSans-25" d="M 4653 2053 
Q 4381 2053 4226 1822 
Q 4072 1591 4072 1178 
Q 4072 772 4226 539 
Q 4381 306 4653 306 
Q 4919 306 5073 539 
Q 5228 772 5228 1178 
Q 5228 1588 5073 1820 
Q 4919 2053 4653 2053 
z
M 4653 2450 
Q 5147 2450 5437 2106 
Q 5728 1763 5728 1178 
Q 5728 594 5436 251 
Q 5144 -91 4653 -91 
Q 4153 -91 3862 251 
Q 3572 594 3572 1178 
Q 3572 1766 3864 2108 
Q 4156 2450 4653 2450 
z
M 1428 4353 
Q 1159 4353 1004 4120 
Q 850 3888 850 3481 
Q 850 3069 1003 2837 
Q 1156 2606 1428 2606 
Q 1700 2606 1854 2837 
Q 2009 3069 2009 3481 
Q 2009 3884 1853 4118 
Q 1697 4353 1428 4353 
z
M 4250 4750 
L 4750 4750 
L 1831 -91 
L 1331 -91 
L 4250 4750 
z
M 1428 4750 
Q 1922 4750 2215 4408 
Q 2509 4066 2509 3481 
Q 2509 2891 2217 2550 
Q 1925 2209 1428 2209 
Q 931 2209 642 2551 
Q 353 2894 353 3481 
Q 353 4063 643 4406 
Q 934 4750 1428 4750 
z
" transform="scale(0.015625)"/>
     </defs>
     <use xlink:href="#DejaVuSans-48"/>
     <use xlink:href="#DejaVuSans-61" x="75.195312"/>
     <use xlink:href="#DejaVuSans-6e" x="136.474609"/>
     <use xlink:href="#DejaVuSans-64" x="199.853516"/>
     <use xlink:href="#DejaVuSans-73" x="263.330078"/>
     <use xlink:href="#DejaVuSans-68" x="315.429688"/>
     <use xlink:href="#DejaVuSans-61" x="378.808594"/>
     <use xlink:href="#DejaVuSans-6b" x="440.087891"/>
     <use xlink:href="#DejaVuSans-65" x="494.373047"/>
     <use xlink:href="#DejaVuSans-20" x="555.896484"/>
     <use xlink:href="#DejaVuSans-64" x="587.683594"/>
     <use xlink:href="#DejaVuSans-75" x="651.160156"/>
     <use xlink:href="#DejaVuSans-72" x="714.539062"/>
     <use xlink:href="#DejaVuSans-61" x="755.652344"/>
     <use xlink:href="#DejaVuSans-74" x="816.931641"/>
     <use xlink:href="#DejaVuSans-69" x="856.140625"/>
     <use xlink:href="#DejaVuSans-6f" x="883.923828"/>
     <use xlink:href="#DejaVuSans-6e" x="945.105469"/>
     <use xlink:href="#DejaVuSans-20" x="1008.484375"/>
     <use xlink:href="#DejaVuSans-6f" x="1040.271484"/>
     <use xlink:href="#DejaVuSans-6e" x="1101.453125"/>
     <use xlink:href="#DejaVuSans-20" x="1164.832031"/>
     <use xlink:href="#DejaVuSans-54" x="1196.619141"/>
     <use xlink:href="#DejaVuSans-4c" x="1257.703125"/>
     <use xlink:href="#DejaVuSans-53" x="1313.416016"/>
     <use xlink:href="#DejaVuSans-20" x="1376.892578"/>
     <use xlink:href="#DejaVuSans-77" x="1408.679688"/>
     <use xlink:href="#DejaVuSans-69" x="1490.466797"/>
     <use xlink:href="#DejaVuSans-74" x="1518.25"/>
     <use xlink:href="#DejaVuSans-68" x="1557.458984"/>
     <use xlink:href="#DejaVuSans-20" x="1620.837891"/>
     <use xlink:href="#DejaVuSans-73" x="1652.625"/>
     <use xlink:href="#DejaVuSans-65" x="1704.724609"/>
     <use xlink:href="#DejaVuSans-63" x="1766.248047"/>
     <use xlink:href="#DejaVuSans-70" x="1821.228516"/>
     <use xlink:href="#DejaVuSans-33" x="1884.705078"/>
     <use xlink:href="#DejaVuSans-38" x="1948.328125"/>
     <use xlink:href="#DejaVuSans-34" x="2011.951172"/>
     <use xlink:href="#DejaVuSans-72" x="2075.574219"/>
     <use xlink:href="#DejaVuSans-31" x="2116.6875"/>
     <use xlink:href="#DejaVuSans-20" x="2180.310547"/>
     <use xlink:href="#DejaVuSans-73" x="2212.097656"/>
     <use xlink:href="#DejaVuSans-69" x="2264.197266"/>
     <use xlink:href="#DejaVuSans-67" x="2291.980469"/>
     <use xlink:href="#DejaVuSans-6e" x="2355.457031"/>
     <use xlink:href="#DejaVuSans-61" x="2418.835938"/>
     <use xlink:href="#DejaVuSans-74" x="2480.115234"/>
     <use xlink:href="#DejaVuSans-75" x="2519.324219"/>
     <use xlink:href="#DejaVuSans-72" x="2582.703125"/>
     <use xlink:href="#DejaVuSans-65" x="2621.566406"/>
     <use xlink:href="#DejaVuSans-20" x="2683.089844"/>
     <use xlink:href="#DejaVuSans-61" x="2714.876953"/>
     <use xlink:href="#DejaVuSans-6c" x="2776.15625"/>
     <use xlink:href="#DejaVuSans-67" x="2803.939453"/>
     <use xlink:href="#DejaVuSans-6f" x="2867.416016"/>
     <use xlink:href="#DejaVuSans-72" x="2928.597656"/>
     <use xlink:href="#DejaVuSans-69" x="2969.710938"/>
     <use xlink:href="#DejaVuSans-74" x="2997.494141"/>
     <use xlink:href="#DejaVuSans-68" x="3036.703125"/>
     <use xlink:href="#DejaVuSans-6d" x="3100.082031"/>
     <use xlink:href="#DejaVuSans-20" x="3197.494141"/>
     <use xlink:href="#DejaVuSans-2014" x="3229.28125"/>
     <use xlink:href="#DejaVuSans-20" x="3329.28125"/>
     <use xlink:href="#DejaVuSans-44" x="3361.068359"/>
     <use xlink:href="#DejaVuSans-65" x="3438.070312"/>
     <use xlink:href="#DejaVuSans-67" x="3499.59375"/>
     <use xlink:href="#DejaVuSans-72" x="3563.070312"/>
     <use xlink:href="#DejaVuSans-61" x="3604.183594"/>
     <use xlink:href="#DejaVuSans-64" x="3665.462891"/>
     <use xlink:href="#DejaVuSans-65" x="3728.939453"/>
     <use xlink:href="#DejaVuSans-64" x="3790.462891"/>
     <use xlink:href="#DejaVuSans-20" x="3853.939453"/>
     <use xlink:href="#DejaVuSans-28" x="3885.726562"/>
     <use xlink:href="#DejaVuSans-32" x="3924.740234"/>
     <use xlink:href="#DejaVuSans-30" x="3988.363281"/>
     <use xlink:href="#DejaVuSans-30" x="4051.986328"/>
     <use xlink:href="#DejaVuSans-6d" x="4115.609375"/>
     <use xlink:href="#DejaVuSans-73" x="4213.021484"/>
     <use xlink:href="#DejaVuSans-2f" x="4265.121094"/>
     <use xlink:href="#DejaVuSans-31" x="4298.8125"/>
     <use xlink:href="#DejaVuSans-30" x="4362.435547"/>
     <use xlink:href="#DejaVuSans-25" x="4426.058594"/>
     <use xlink:href="#DejaVuSans-29" x="4521.078125"/>
    </g>
   </g>
  </g>
 </g>
 <defs>
  <clipPath id="p023b19e096">
   <rect x="58.32" y="27.6" width="792.72" height="349.637044"/>
  </clipPath>
 </defs>
</svg>
