<?xml version="1.0" encoding="utf-8" standalone="no"?>
<!DOCTYPE svg PUBLIC "-//W3C//DTD SVG 1.1//EN"
  "http://www.w3.org/Graphics/SVG/1.1/DTD/svg11.dtd">
<svg xmlns:xlink="http://www.w3.org/1999/xlink" width="864pt" height="432pt" viewBox="0 0 864 432" xmlns="http://www.w3.org/2000/svg" version="1.1">
 <metadata>
  <rdf:RDF xmlns:dc="http://purl.org/dc/elements/1.1/" xmlns:cc="http://creativecommons.org/ns#" xmlns:rdf="http://www.w3.org/1999/02/22-rdf-syntax-ns#">
   <cc:Work>
    <dc:type rdf:resource="http://purl.org/dc/dcmitype/StillImage"/>
    <dc:date>2026-03-21T13:58:40.720147</dc:date>
    <dc:format>image/svg+xml</dc:format>
    <dc:creator>
     <cc:Agent>
      <dc:title>Matplotlib v3.6.3, https://matplotlib.org/</dc:title>
     </cc:Agent>
    </dc:creator>
   </cc:Work>
  </rdf:RDF>
 </metadata>
 <defs>
  <style type="text/css">*{stroke-linejoin: round; stroke-linecap: butt}</style>
 </defs>
 <g id="figure_1">
  <g id="patch_1">
   <path d="M 0 432 
L 864 432 
L 864 0 
L 0 0 
z
" style="fill: #ffffff"/>
  </g>
  <g id="axes_1">
   <g id="patch_2">
    <path d="M 51.3 395.14 
L 851.04 395.14 
L 851.04 27.6 
L 51.3 27.6 
z
" style="fill: #ffffff"/>
   </g>
   <g id="matplotlib.axis_1">
    <g id="xtick_1">
     <g id="text_1">
      <!-- P-256 -->
      <g style="fill: #262626" transform="translate(111.324 415.277812) scale(0.14 -0.14)">
       <defs>
        <path id="DejaVuSans-50" d="M 1259 4147 
L 1259 2394 
L 2053 2394 
Q 2494 2394 2734 2622 
Q 2975 2850 2975 3272 
Q 2975 3691 2734 3919 
Q 2494 4147 2053 4147 
L 1259 4147 
z
M 628 4666 
L 2053 4666 
Q 2838 4666 3239 4311 
Q 3641 3956 3641 3272 
Q 3641 2581 3239 2228 
Q 2838 1875 2053 1875 
L 1259 1875 
L 1259 0 
L 628 0 
L 628 4666 
z
" transform="scale(0.015625)"/>
        <path id="DejaVuSans-2d" d="M 313 2009 
L 1997 2009 
L 1997 1497 
L 313 1497 
L 313 2009 
z
" transform="scale(0.015625)"/>
        <path id="DejaVuSans-32" d="M 1228 531 
L 3431 531 
L 3431 0 
L 469 0 
L 469 531 
Q 828 903 1448 1529 
Q 2069 2156 2228 2338 
Q 2531 2678 2651 2914 
Q 2772 3150 2772 3378 
Q 2772 3750 2511 3984 
Q 2250 4219 1831 4219 
Q 1534 4219 1204 4116 
Q 875 4013 500 3803 
L 500 4441 
Q 881 4594 1212 4672 
Q 1544 4750 1819 4750 
Q 2544 4750 2975 4387 
Q 3406 4025 3406 3419 
Q 3406 3131 3298 2873 
Q 3191 2616 2906 2266 
Q 2828 2175 2409 1742 
Q 1991 1309 1228 531 
z
" transform="scale(0.015625)"/>
        <path id="DejaVuSans-35" d="M 691 4666 
L 3169 4666 
L 3169 4134 
L 1269 4134 
L 1269 2991 
Q 1406 3038 1543 3061 
Q 1681 3084 1819 3084 
Q 2600 3084 3056 2656 
Q 3513 2228 3513 1497 
Q 3513 744 3044 326 
Q 2575 -91 1722 -91 
Q 1428 -91 1123 -41 
Q 819 9 494 109 
L 494 744 
Q 775 591 1075 516 
Q 1375 441 1709 441 
Q 2250 441 2565 725 
Q 2881 1009 2881 1497 
Q 2881 1984 2565 2268 
Q 2250 2553 1709 2553 
Q 1456 2553 1204 2497 
Q 953 2441 691 2322 
L 691 4666 
z
" transform="scale(0.015625)"/>
        <path id="DejaVuSans-36" d="M 2113 2584 
Q 1688 2584 1439 2293 
Q 1191 2003 1191 1497 
Q 1191 994 1439 701 
Q 1688 409 2113 409 
Q 2538 409 2786 701 
Q 3034 994 3034 1497 
Q 3034 2003 2786 2293 
Q 2538 2584 2113 2584 
z
M 3366 4563 
L 3366 3988 
Q 3128 4100 2886 4159 
Q 2644 4219 2406 4219 
Q 1781 4219 1451 3797 
Q 1122 3375 1075 2522 
Q 1259 2794 1537 2939 
Q 1816 3084 2150 3084 
Q 2853 3084 3261 2657 
Q 3669 2231 3669 1497 
Q 3669 778 3244 343 
Q 2819 -91 2113 -91 
Q 1303 -91 875 529 
Q 447 1150 447 2328 
Q 447 3434 972 4092 
Q 1497 4750 2381 4750 
Q 2619 4750 2861 4703 
Q 3103 4656 3366 4563 
z
" transform="scale(0.015625)"/>
       </defs>
       <use xlink:href="#DejaVuSans-50"/>
       <use xlink:href="#DejaVuSans-2d" x="58.052734"/>
       <use xlink:href="#DejaVuSans-32" x="94.136719"/>
       <use xlink:href="#DejaVuSans-35" x="157.759766"/>
       <use xlink:href="#DejaVuSans-36" x="221.382812"/>
      </g>
     </g>
    </g>
    <g id="xtick_2">
     <g id="text_2">
      <!-- x25519 -->
      <g style="fill: #262626" transform="translate(264.810125 415.277812) scale(0.14 -0.14)">
       <defs>
        <path id="DejaVuSans-78" d="M 3513 3500 
L 2247 1797 
L 3578 0 
L 2900 0 
L 1881 1375 
L 863 0 
L 184 0 
L 1544 1831 
L 300 3500 
L 978 3500 
L 1906 2253 
L 2834 3500 
L 3513 3500 
z
" transform="scale(0.015625)"/>
        <path id="DejaVuSans-31" d="M 794 531 
L 1825 531 
L 1825 4091 
L 703 3866 
L 703 4441 
L 1819 4666 
L 2450 4666 
L 2450 531 
L 3481 531 
L 3481 0 
L 794 0 
L 794 531 
z
" transform="scale(0.015625)"/>
        <path id="DejaVuSans-39" d="M 703 97 
L 703 672 
Q 941 559 1184 500 
Q 1428 441 1663 441 
Q 2288 441 2617 861 
Q 2947 1281 2994 2138 
Q 2813 1869 2534 1725 
Q 2256 1581 1919 1581 
Q 1219 1581 811 2004 
Q 403 2428 403 3163 
Q 403 3881 828 4315 
Q 1253 4750 1959 4750 
Q 2769 4750 3195 4129 
Q 3622 3509 3622 2328 
Q 3622 1225 3098 567 
Q 2575 -91 1691 -91 
Q 1453 -91 1209 -44 
Q 966 3 703 97 
z
M 1959 2075 
Q 2384 2075 2632 2365 
Q 2881 2656 2881 3163 
Q 2881 3666 2632 3958 
Q 2384 4250 1959 4250 
Q 1534 4250 1286 3958 
Q 1038 3666 1038 3163 
Q 1038 2656 1286 2365 
Q 1534 2075 1959 2075 
z
" transform="scale(0.015625)"/>
       </defs>
       <use xlink:href="#DejaVuSans-78"/>
       <use xlink:href="#DejaVuSans-32" x="59.179688"/>
       <use xlink:href="#DejaVuSans-35" x="122.802734"/>
       <use xlink:href="#DejaVuSans-35" x="186.425781"/>
       <use xlink:href="#DejaVuSans-31" x="250.048828"/>
       <use xlink:href="#DejaVuSans-39" x="313.671875"/>
      </g>
     </g>
    </g>
    <g id="xtick_3">
     <g id="text_3">
      <!-- p256_mlkem512 -->
      <g style="fill: #262626" transform="translate(392.815156 415.277812) scale(0.14 -0.14)">
       <defs>
        <path id="DejaVuSans-70" d="M 1159 525 
L 1159 -1331 
L 581 -1331 
L 581 3500 
L 1159 3500 
L 1159 2969 
Q 1341 3281 1617 3432 
Q 1894 3584 2278 3584 
Q 2916 3584 3314 3078 
Q 3713 2572 3713 1747 
Q 3713 922 3314 415 
Q 2916 -91 2278 -91 
Q 1894 -91 1617 61 
Q 1341 213 1159 525 
z
M 3116 1747 
Q 3116 2381 2855 2742 
Q 2594 3103 2138 3103 
Q 1681 3103 1420 2742 
Q 1159 2381 1159 1747 
Q 1159 1113 1420 752 
Q 1681 391 2138 391 
Q 2594 391 2855 752 
Q 3116 1113 3116 1747 
z
" transform="scale(0.015625)"/>
        <path id="DejaVuSans-5f" d="M 3263 -1063 
L 3263 -1509 
L -63 -1509 
L -63 -1063 
L 3263 -1063 
z
" transform="scale(0.015625)"/>
        <path id="DejaVuSans-6d" d="M 3328 2828 
Q 3544 3216 3844 3400 
Q 4144 3584 4550 3584 
Q 5097 3584 5394 3201 
Q 5691 2819 5691 2113 
L 5691 0 
L 5113 0 
L 5113 2094 
Q 5113 2597 4934 2840 
Q 4756 3084 4391 3084 
Q 3944 3084 3684 2787 
Q 3425 2491 3425 1978 
L 3425 0 
L 2847 0 
L 2847 2094 
Q 2847 2600 2669 2842 
Q 2491 3084 2119 3084 
Q 1678 3084 1418 2786 
Q 1159 2488 1159 1978 
L 1159 0 
L 581 0 
L 581 3500 
L 1159 3500 
L 1159 2956 
Q 1356 3278 1631 3431 
Q 1906 3584 2284 3584 
Q 2666 3584 2933 3390 
Q 3200 3197 3328 2828 
z
" transform="scale(0.015625)"/>
        <path id="DejaVuSans-6c" d="M 603 4863 
L 1178 4863 
L 1178 0 
L 603 0 
L 603 4863 
z
" transform="scale(0.015625)"/>
        <path id="DejaVuSans-6b" d="M 581 4863 
L 1159 4863 
L 1159 1991 
L 2875 3500 
L 3609 3500 
L 1753 1863 
L 3688 0 
L 2938 0 
L 1159 1709 
L 1159 0 
L 581 0 
L 581 4863 
z
" transform="scale(0.015625)"/>
        <path id="DejaVuSans-65" d="M 3597 1894 
L 3597 1613 
L 953 1613 
Q 991 1019 1311 708 
Q 1631 397 2203 397 
Q 2534 397 2845 478 
Q 3156 559 3463 722 
L 3463 178 
Q 3153 47 2828 -22 
Q 2503 -91 2169 -91 
Q 1331 -91 842 396 
Q 353 884 353 1716 
Q 353 2575 817 3079 
Q 1281 3584 2069 3584 
Q 2775 3584 3186 3129 
Q 3597 2675 3597 1894 
z
M 3022 2063 
Q 3016 2534 2758 2815 
Q 2500 3097 2075 3097 
Q 1594 3097 1305 2825 
Q 1016 2553 972 2059 
L 3022 2063 
z
" transform="scale(0.015625)"/>
       </defs>
       <use xlink:href="#DejaVuSans-70"/>
       <use xlink:href="#DejaVuSans-32" x="63.476562"/>
       <use xlink:href="#DejaVuSans-35" x="127.099609"/>
       <use xlink:href="#DejaVuSans-36" x="190.722656"/>
       <use xlink:href="#DejaVuSans-5f" x="254.345703"/>
       <use xlink:href="#DejaVuSans-6d" x="304.345703"/>
       <use xlink:href="#DejaVuSans-6c" x="401.757812"/>
       <use xlink:href="#DejaVuSans-6b" x="429.541016"/>
       <use xlink:href="#DejaVuSans-65" x="483.826172"/>
       <use xlink:href="#DejaVuSans-6d" x="545.349609"/>
       <use xlink:href="#DejaVuSans-35" x="642.761719"/>
       <use xlink:href="#DejaVuSans-31" x="706.384766"/>
       <use xlink:href="#DejaVuSans-32" x="770.007812"/>
      </g>
     </g>
    </g>
    <g id="xtick_4">
     <g id="text_4">
      <!-- x25519_mlkem512 -->
      <g style="fill: #262626" transform="translate(544.156437 415.277812) scale(0.14 -0.14)">
       <use xlink:href="#DejaVuSans-78"/>
       <use xlink:href="#DejaVuSans-32" x="59.179688"/>
       <use xlink:href="#DejaVuSans-35" x="122.802734"/>
       <use xlink:href="#DejaVuSans-35" x="186.425781"/>
       <use xlink:href="#DejaVuSans-31" x="250.048828"/>
       <use xlink:href="#DejaVuSans-39" x="313.671875"/>
       <use xlink:href="#DejaVuSans-5f" x="377.294922"/>
       <use xlink:href="#DejaVuSans-6d" x="427.294922"/>
       <use xlink:href="#DejaVuSans-6c" x="524.707031"/>
       <use xlink:href="#DejaVuSans-6b" x="552.490234"/>
       <use xlink:href="#DejaVuSans-65" x="606.775391"/>
       <use xlink:href="#DejaVuSans-6d" x="668.298828"/>
       <use xlink:href="#DejaVuSans-35" x="765.710938"/>
       <use xlink:href="#DejaVuSans-31" x="829.333984"/>
       <use xlink:href="#DejaVuSans-32" x="892.957031"/>
      </g>
     </g>
    </g>
    <g id="xtick_5">
     <g id="text_5">
      <!-- mlkem512 -->
      <g style="fill: #262626" transform="translate(734.016312 415.277812) scale(0.14 -0.14)">
       <use xlink:href="#DejaVuSans-6d"/>
       <use xlink:href="#DejaVuSans-6c" x="97.412109"/>
       <use xlink:href="#DejaVuSans-6b" x="125.195312"/>
       <use xlink:href="#DejaVuSans-65" x="179.480469"/>
       <use xlink:href="#DejaVuSans-6d" x="241.003906"/>
       <use xlink:href="#DejaVuSans-35" x="338.416016"/>
       <use xlink:href="#DejaVuSans-31" x="402.039062"/>
       <use xlink:href="#DejaVuSans-32" x="465.662109"/>
      </g>
     </g>
    </g>
   </g>
   <g id="matplotlib.axis_2">
    <g id="ytick_1">
     <g id="line2d_1">
      <path d="M 51.3 390.635427 
L 851.04 390.635427 
" clip-path="url(#p689be03ce4)" style="fill: none; stroke: #cccccc; stroke-linecap: round"/>
     </g>
     <g id="text_6">
      <!-- 0 -->
      <g style="fill: #262626" transform="translate(34.80125 394.814568) scale(0.11 -0.11)">
       <defs>
        <path id="DejaVuSans-30" d="M 2034 4250 
Q 1547 4250 1301 3770 
Q 1056 3291 1056 2328 
Q 1056 1369 1301 889 
Q 1547 409 2034 409 
Q 2525 409 2770 889 
Q 3016 1369 3016 2328 
Q 3016 3291 2770 3770 
Q 2525 4250 2034 4250 
z
M 2034 4750 
Q 2819 4750 3233 4129 
Q 3647 3509 3647 2328 
Q 3647 1150 3233 529 
Q 2819 -91 2034 -91 
Q 1250 -91 836 529 
Q 422 1150 422 2328 
Q 422 3509 836 4129 
Q 1250 4750 2034 4750 
z
" transform="scale(0.015625)"/>
       </defs>
       <use xlink:href="#DejaVuSans-30"/>
      </g>
     </g>
    </g>
    <g id="ytick_2">
     <g id="line2d_2">
      <path d="M 51.3 338.925053 
L 851.04 338.925053 
" clip-path="url(#p689be03ce4)" style="fill: none; stroke: #cccccc; stroke-linecap: round"/>
     </g>
     <g id="text_7">
      <!-- 5 -->
      <g style="fill: #262626" transform="translate(34.80125 343.104194) scale(0.11 -0.11)">
       <use xlink:href="#DejaVuSans-35"/>
      </g>
     </g>
    </g>
    <g id="ytick_3">
     <g id="line2d_3">
      <path d="M 51.3 287.214679 
L 851.04 287.214679 
" clip-path="url(#p689be03ce4)" style="fill: none; stroke: #cccccc; stroke-linecap: round"/>
     </g>
     <g id="text_8">
      <!-- 10 -->
      <g style="fill: #262626" transform="translate(27.8025 291.39382) scale(0.11 -0.11)">
       <use xlink:href="#DejaVuSans-31"/>
       <use xlink:href="#DejaVuSans-30" x="63.623047"/>
      </g>
     </g>
    </g>
    <g id="ytick_4">
     <g id="line2d_4">
      <path d="M 51.3 235.504305 
L 851.04 235.504305 
" clip-path="url(#p689be03ce4)" style="fill: none; stroke: #cccccc; stroke-linecap: round"/>
     </g>
     <g id="text_9">
      <!-- 15 -->
      <g style="fill: #262626" transform="translate(27.8025 239.683446) scale(0.11 -0.11)">
       <use xlink:href="#DejaVuSans-31"/>
       <use xlink:href="#DejaVuSans-35" x="63.623047"/>
      </g>
     </g>
    </g>
    <g id="ytick_5">
     <g id="line2d_5">
      <path d="M 51.3 183.793931 
L 851.04 183.793931 
" clip-path="url(#p689be03ce4)" style="fill: none; stroke: #cccccc; stroke-linecap: round"/>
     </g>
     <g id="text_10">
      <!-- 20 -->
      <g style="fill: #262626" transform="translate(27.8025 187.973072) scale(0.11 -0.11)">
       <use xlink:href="#DejaVuSans-32"/>
       <use xlink:href="#DejaVuSans-30" x="63.623047"/>
      </g>
     </g>
    </g>
    <g id="ytick_6">
     <g id="line2d_6">
      <path d="M 51.3 132.083557 
L 851.04 132.083557 
" clip-path="url(#p689be03ce4)" style="fill: none; stroke: #cccccc; stroke-linecap: round"/>
     </g>
     <g id="text_11">
      <!-- 25 -->
      <g style="fill: #262626" transform="translate(27.8025 136.262698) scale(0.11 -0.11)">
       <use xlink:href="#DejaVuSans-32"/>
       <use xlink:href="#DejaVuSans-35" x="63.623047"/>
      </g>
     </g>
    </g>
    <g id="ytick_7">
     <g id="line2d_7">
      <path d="M 51.3 80.373184 
L 851.04 80.373184 
" clip-path="url(#p689be03ce4)" style="fill: none; stroke: #cccccc; stroke-linecap: round"/>
     </g>
     <g id="text_12">
      <!-- 30 -->
      <g style="fill: #262626" transform="translate(27.8025 84.552324) scale(0.11 -0.11)">
       <defs>
        <path id="DejaVuSans-33" d="M 2597 2516 
Q 3050 2419 3304 2112 
Q 3559 1806 3559 1356 
Q 3559 666 3084 287 
Q 2609 -91 1734 -91 
Q 1441 -91 1130 -33 
Q 819 25 488 141 
L 488 750 
Q 750 597 1062 519 
Q 1375 441 1716 441 
Q 2309 441 2620 675 
Q 2931 909 2931 1356 
Q 2931 1769 2642 2001 
Q 2353 2234 1838 2234 
L 1294 2234 
L 1294 2753 
L 1863 2753 
Q 2328 2753 2575 2939 
Q 2822 3125 2822 3475 
Q 2822 3834 2567 4026 
Q 2313 4219 1838 4219 
Q 1578 4219 1281 4162 
Q 984 4106 628 3988 
L 628 4550 
Q 988 4650 1302 4700 
Q 1616 4750 1894 4750 
Q 2613 4750 3031 4423 
Q 3450 4097 3450 3541 
Q 3450 3153 3228 2886 
Q 3006 2619 2597 2516 
z
" transform="scale(0.015625)"/>
       </defs>
       <use xlink:href="#DejaVuSans-33"/>
       <use xlink:href="#DejaVuSans-30" x="63.623047"/>
      </g>
     </g>
    </g>
    <g id="ytick_8">
     <g id="line2d_8">
      <path d="M 51.3 28.66281 
L 851.04 28.66281 
" clip-path="url(#p689be03ce4)" style="fill: none; stroke: #cccccc; stroke-linecap: round"/>
     </g>
     <g id="text_13">
      <!-- 35 -->
      <g style="fill: #262626" transform="translate(27.8025 32.84195) scale(0.11 -0.11)">
       <use xlink:href="#DejaVuSans-33"/>
       <use xlink:href="#DejaVuSans-35" x="63.623047"/>
      </g>
     </g>
    </g>
    <g id="text_14">
     <!-- Handshake duration (ms) -->
     <g style="fill: #262626" transform="translate(21.306875 287.437813) rotate(-90) scale(0.12 -0.12)">
      <defs>
       <path id="DejaVuSans-48" d="M 628 4666 
L 1259 4666 
L 1259 2753 
L 3553 2753 
L 3553 4666 
L 4184 4666 
L 4184 0 
L 3553 0 
L 3553 2222 
L 1259 2222 
L 1259 0 
L 628 0 
L 628 4666 
z
" transform="scale(0.015625)"/>
       <path id="DejaVuSans-61" d="M 2194 1759 
Q 1497 1759 1228 1600 
Q 959 1441 959 1056 
Q 959 750 1161 570 
Q 1363 391 1709 391 
Q 2188 391 2477 730 
Q 2766 1069 2766 1631 
L 2766 1759 
L 2194 1759 
z
M 3341 1997 
L 3341 0 
L 2766 0 
L 2766 531 
Q 2569 213 2275 61 
Q 1981 -91 1556 -91 
Q 1019 -91 701 211 
Q 384 513 384 1019 
Q 384 1609 779 1909 
Q 1175 2209 1959 2209 
L 2766 2209 
L 2766 2266 
Q 2766 2663 2505 2880 
Q 2244 3097 1772 3097 
Q 1472 3097 1187 3025 
Q 903 2953 641 2809 
L 641 3341 
Q 956 3463 1253 3523 
Q 1550 3584 1831 3584 
Q 2591 3584 2966 3190 
Q 3341 2797 3341 1997 
z
" transform="scale(0.015625)"/>
       <path id="DejaVuSans-6e" d="M 3513 2113 
L 3513 0 
L 2938 0 
L 2938 2094 
Q 2938 2591 2744 2837 
Q 2550 3084 2163 3084 
Q 1697 3084 1428 2787 
Q 1159 2491 1159 1978 
L 1159 0 
L 581 0 
L 581 3500 
L 1159 3500 
L 1159 2956 
Q 1366 3272 1645 3428 
Q 1925 3584 2291 3584 
Q 2894 3584 3203 3211 
Q 3513 2838 3513 2113 
z
" transform="scale(0.015625)"/>
       <path id="DejaVuSans-64" d="M 2906 2969 
L 2906 4863 
L 3481 4863 
L 3481 0 
L 2906 0 
L 2906 525 
Q 2725 213 2448 61 
Q 2172 -91 1784 -91 
Q 1150 -91 751 415 
Q 353 922 353 1747 
Q 353 2572 751 3078 
Q 1150 3584 1784 3584 
Q 2172 3584 2448 3432 
Q 2725 3281 2906 2969 
z
M 947 1747 
Q 947 1113 1208 752 
Q 1469 391 1925 391 
Q 2381 391 2643 752 
Q 2906 1113 2906 1747 
Q 2906 2381 2643 2742 
Q 2381 3103 1925 3103 
Q 1469 3103 1208 2742 
Q 947 2381 947 1747 
z
" transform="scale(0.015625)"/>
       <path id="DejaVuSans-73" d="M 2834 3397 
L 2834 2853 
Q 2591 2978 2328 3040 
Q 2066 3103 1784 3103 
Q 1356 3103 1142 2972 
Q 928 2841 928 2578 
Q 928 2378 1081 2264 
Q 1234 2150 1697 2047 
L 1894 2003 
Q 2506 1872 2764 1633 
Q 3022 1394 3022 966 
Q 3022 478 2636 193 
Q 2250 -91 1575 -91 
Q 1294 -91 989 -36 
Q 684 19 347 128 
L 347 722 
Q 666 556 975 473 
Q 1284 391 1588 391 
Q 1994 391 2212 530 
Q 2431 669 2431 922 
Q 2431 1156 2273 1281 
Q 2116 1406 1581 1522 
L 1381 1569 
Q 847 1681 609 1914 
Q 372 2147 372 2553 
Q 372 3047 722 3315 
Q 1072 3584 1716 3584 
Q 2034 3584 2315 3537 
Q 2597 3491 2834 3397 
z
" transform="scale(0.015625)"/>
       <path id="DejaVuSans-68" d="M 3513 2113 
L 3513 0 
L 2938 0 
L 2938 2094 
Q 2938 2591 2744 2837 
Q 2550 3084 2163 3084 
Q 1697 3084 1428 2787 
Q 1159 2491 1159 1978 
L 1159 0 
L 581 0 
L 581 4863 
L 1159 4863 
L 1159 2956 
Q 1366 3272 1645 3428 
Q 1925 3584 2291 3584 
Q 2894 3584 3203 3211 
Q 3513 2838 3513 2113 
z
" transform="scale(0.015625)"/>
       <path id="DejaVuSans-20" transform="scale(0.015625)"/>
       <path id="DejaVuSans-75" d="M 544 1381 
L 544 3500 
L 1119 3500 
L 1119 1403 
Q 1119 906 1312 657 
Q 1506 409 1894 409 
Q 2359 409 2629 706 
Q 2900 1003 2900 1516 
L 2900 3500 
L 3475 3500 
L 3475 0 
L 2900 0 
L 2900 538 
Q 2691 219 2414 64 
Q 2138 -91 1772 -91 
Q 1169 -91 856 284 
Q 544 659 544 1381 
z
M 1991 3584 
L 1991 3584 
z
" transform="scale(0.015625)"/>
       <path id="DejaVuSans-72" d="M 2631 2963 
Q 2534 3019 2420 3045 
Q 2306 3072 2169 3072 
Q 1681 3072 1420 2755 
Q 1159 2438 1159 1844 
L 1159 0 
L 581 0 
L 581 3500 
L 1159 3500 
L 1159 2956 
Q 1341 3275 1631 3429 
Q 1922 3584 2338 3584 
Q 2397 3584 2469 3576 
Q 2541 3569 2628 3553 
L 2631 2963 
z
" transform="scale(0.015625)"/>
       <path id="DejaVuSans-74" d="M 1172 4494 
L 1172 3500 
L 2356 3500 
L 2356 3053 
L 1172 3053 
L 1172 1153 
Q 1172 725 1289 603 
Q 1406 481 1766 481 
L 2356 481 
L 2356 0 
L 1766 0 
Q 1100 0 847 248 
Q 594 497 594 1153 
L 594 3053 
L 172 3053 
L 172 3500 
L 594 3500 
L 594 4494 
L 1172 4494 
z
" transform="scale(0.015625)"/>
       <path id="DejaVuSans-69" d="M 603 3500 
L 1178 3500 
L 1178 0 
L 603 0 
L 603 3500 
z
M 603 4863 
L 1178 4863 
L 1178 4134 
L 603 4134 
L 603 4863 
z
" transform="scale(0.015625)"/>
       <path id="DejaVuSans-6f" d="M 1959 3097 
Q 1497 3097 1228 2736 
Q 959 2375 959 1747 
Q 959 1119 1226 758 
Q 1494 397 1959 397 
Q 2419 397 2687 759 
Q 2956 1122 2956 1747 
Q 2956 2369 2687 2733 
Q 2419 3097 1959 3097 
z
M 1959 3584 
Q 2709 3584 3137 3096 
Q 3566 2609 3566 1747 
Q 3566 888 3137 398 
Q 2709 -91 1959 -91 
Q 1206 -91 779 398 
Q 353 888 353 1747 
Q 353 2609 779 3096 
Q 1206 3584 1959 3584 
z
" transform="scale(0.015625)"/>
       <path id="DejaVuSans-28" d="M 1984 4856 
Q 1566 4138 1362 3434 
Q 1159 2731 1159 2009 
Q 1159 1288 1364 580 
Q 1569 -128 1984 -844 
L 1484 -844 
Q 1016 -109 783 600 
Q 550 1309 550 2009 
Q 550 2706 781 3412 
Q 1013 4119 1484 4856 
L 1984 4856 
z
" transform="scale(0.015625)"/>
       <path id="DejaVuSans-29" d="M 513 4856 
L 1013 4856 
Q 1481 4119 1714 3412 
Q 1947 2706 1947 2009 
Q 1947 1309 1714 600 
Q 1481 -109 1013 -844 
L 513 -844 
Q 928 -128 1133 580 
Q 1338 1288 1338 2009 
Q 1338 2731 1133 3434 
Q 928 4138 513 4856 
z
" transform="scale(0.015625)"/>
      </defs>
      <use xlink:href="#DejaVuSans-48"/>
      <use xlink:href="#DejaVuSans-61" x="75.195312"/>
      <use xlink:href="#DejaVuSans-6e" x="136.474609"/>
      <use xlink:href="#DejaVuSans-64" x="199.853516"/>
      <use xlink:href="#DejaVuSans-73" x="263.330078"/>
      <use xlink:href="#DejaVuSans-68" x="315.429688"/>
      <use xlink:href="#DejaVuSans-61" x="378.808594"/>
      <use xlink:href="#DejaVuSans-6b" x="440.087891"/>
      <use xlink:href="#DejaVuSans-65" x="494.373047"/>
      <use xlink:href="#DejaVuSans-20" x="555.896484"/>
      <use xlink:href="#DejaVuSans-64" x="587.683594"/>
      <use xlink:href="#DejaVuSans-75" x="651.160156"/>
      <use xlink:href="#DejaVuSans-72" x="714.539062"/>
      <use xlink:href="#DejaVuSans-61" x="755.652344"/>
      <use xlink:href="#DejaVuSans-74" x="816.931641"/>
      <use xlink:href="#DejaVuSans-69" x="856.140625"/>
      <use xlink:href="#DejaVuSans-6f" x="883.923828"/>
      <use xlink:href="#DejaVuSans-6e" x="945.105469"/>
      <use xlink:href="#DejaVuSans-20" x="1008.484375"/>
      <use xlink:href="#DejaVuSans-28" x="1040.271484"/>
      <use xlink:href="#DejaVuSans-6d" x="1079.285156"/>
      <use xlink:href="#DejaVuSans-73" x="1176.697266"/>
      <use xlink:href="#DejaVuSans-29" x="1228.796875"/>
     </g>
    </g>
   </g>
   <g id="PolyCollection_1">
    <defs>
     <path id="m491f97947d" d="M 131.357959 -55.630951 
L 131.190041 -55.630951 
L 131.118748 -56.662139 
L 130.996832 -57.693327 
L 130.795493 -58.724516 
L 130.474813 -59.755704 
L 129.983695 -60.786893 
L 129.263492 -61.818081 
L 128.256993 -62.849269 
L 126.922962 -63.880458 
L 125.253681 -64.911646 
L 123.289965 -65.942834 
L 121.12651 -66.974023 
L 118.902247 -68.005211 
L 116.775654 -69.0364 
L 114.891892 -70.067588 
L 113.35339 -71.098776 
L 112.204827 -72.129965 
L 111.436985 -73.161153 
L 111.004817 -74.192341 
L 110.848586 -75.22353 
L 110.906939 -76.254718 
L 111.117367 -77.285907 
L 111.408465 -78.317095 
L 111.694405 -79.348283 
L 111.881117 -80.379472 
L 111.886335 -81.41066 
L 111.665771 -82.441848 
L 111.23105 -83.473037 
L 110.645655 -84.504225 
L 109.993655 -85.535414 
L 109.328758 -86.566602 
L 108.622434 -87.59779 
L 107.734024 -88.628979 
L 106.420772 -89.660167 
L 104.392945 -90.691355 
L 101.403042 -91.722544 
L 97.343711 -92.753732 
L 92.321391 -93.78492 
L 86.675791 -94.816109 
L 80.930392 -95.847297 
L 75.682813 -96.878486 
L 71.467558 -97.909674 
L 68.636246 -98.940862 
L 67.2948 -99.972051 
L 67.314666 -101.003239 
L 68.406733 -102.034427 
L 70.225505 -103.065616 
L 72.465862 -104.096804 
L 74.924668 -105.127993 
L 77.517071 -106.159181 
L 80.253684 -107.190369 
L 83.194619 -108.221558 
L 86.398821 -109.252746 
L 89.884142 -110.283934 
L 93.607459 -111.315123 
L 97.466989 -112.346311 
L 101.322488 -113.3775 
L 105.02488 -114.408688 
L 108.4459 -115.439876 
L 111.500187 -116.471065 
L 114.155644 -117.502253 
L 116.431383 -118.533441 
L 118.385155 -119.56463 
L 120.094056 -120.595818 
L 121.633407 -121.627007 
L 123.0591 -122.658195 
L 124.397837 -123.689383 
L 125.647387 -124.720572 
L 126.785668 -125.75176 
L 127.784563 -126.782948 
L 128.623113 -127.814137 
L 129.295703 -128.845325 
L 129.813475 -129.876514 
L 130.200032 -130.907702 
L 130.484351 -131.93889 
L 130.694048 -132.970079 
L 130.85109 -134.001267 
L 130.970512 -135.032455 
L 131.06139 -136.063644 
L 131.128834 -137.094832 
L 131.175832 -138.12602 
L 131.204413 -139.157209 
L 131.216086 -140.188397 
L 131.211957 -141.219586 
L 131.192915 -142.250774 
L 131.160152 -143.281962 
L 131.115947 -144.313151 
L 131.064396 -145.344339 
L 131.011643 -146.375527 
L 130.96528 -147.406716 
L 130.932913 -148.437904 
L 130.920317 -149.469093 
L 130.929843 -150.500281 
L 130.959752 -151.531469 
L 131.004748 -152.562658 
L 131.057524 -153.593846 
L 131.110684 -154.625034 
L 131.158386 -155.656223 
L 131.1972 -156.687411 
L 131.226128 -157.7186 
L 131.321872 -157.7186 
L 131.321872 -157.7186 
L 131.3508 -156.687411 
L 131.389614 -155.656223 
L 131.437316 -154.625034 
L 131.490476 -153.593846 
L 131.543252 -152.562658 
L 131.588248 -151.531469 
L 131.618157 -150.500281 
L 131.627683 -149.469093 
L 131.615087 -148.437904 
L 131.58272 -147.406716 
L 131.536357 -146.375527 
L 131.483604 -145.344339 
L 131.432053 -144.313151 
L 131.387848 -143.281962 
L 131.355085 -142.250774 
L 131.336043 -141.219586 
L 131.331914 -140.188397 
L 131.343587 -139.157209 
L 131.372168 -138.12602 
L 131.419166 -137.094832 
L 131.48661 -136.063644 
L 131.577488 -135.032455 
L 131.69691 -134.001267 
L 131.853952 -132.970079 
L 132.063649 -131.93889 
L 132.347968 -130.907702 
L 132.734525 -129.876514 
L 133.252297 -128.845325 
L 133.924887 -127.814137 
L 134.763437 -126.782948 
L 135.762332 -125.75176 
L 136.900613 -124.720572 
L 138.150163 -123.689383 
L 139.4889 -122.658195 
L 140.914593 -121.627007 
L 142.453944 -120.595818 
L 144.162845 -119.56463 
L 146.116617 -118.533441 
L 148.392356 -117.502253 
L 151.047813 -116.471065 
L 154.1021 -115.439876 
L 157.52312 -114.408688 
L 161.225512 -113.3775 
L 165.081011 -112.346311 
L 168.940541 -111.315123 
L 172.663858 -110.283934 
L 176.149179 -109.252746 
L 179.353381 -108.221558 
L 182.294316 -107.190369 
L 185.030929 -106.159181 
L 187.623332 -105.127993 
L 190.082138 -104.096804 
L 192.322495 -103.065616 
L 194.141267 -102.034427 
L 195.233334 -101.003239 
L 195.2532 -99.972051 
L 193.911754 -98.940862 
L 191.080442 -97.909674 
L 186.865187 -96.878486 
L 181.617608 -95.847297 
L 175.872209 -94.816109 
L 170.226609 -93.78492 
L 165.204289 -92.753732 
L 161.144958 -91.722544 
L 158.155055 -90.691355 
L 156.127228 -89.660167 
L 154.813976 -88.628979 
L 153.925566 -87.59779 
L 153.219242 -86.566602 
L 152.554345 -85.535414 
L 151.902345 -84.504225 
L 151.31695 -83.473037 
L 150.882229 -82.441848 
L 150.661665 -81.41066 
L 150.666883 -80.379472 
L 150.853595 -79.348283 
L 151.139535 -78.317095 
L 151.430633 -77.285907 
L 151.641061 -76.254718 
L 151.699414 -75.22353 
L 151.543183 -74.192341 
L 151.111015 -73.161153 
L 150.343173 -72.129965 
L 149.19461 -71.098776 
L 147.656108 -70.067588 
L 145.772346 -69.0364 
L 143.645753 -68.005211 
L 141.42149 -66.974023 
L 139.258035 -65.942834 
L 137.294319 -64.911646 
L 135.625038 -63.880458 
L 134.291007 -62.849269 
L 133.284508 -61.818081 
L 132.564305 -60.786893 
L 132.073187 -59.755704 
L 131.752507 -58.724516 
L 131.551168 -57.693327 
L 131.429252 -56.662139 
L 131.357959 -55.630951 
z
" style="stroke: #595959; stroke-width: 1.25"/>
    </defs>
    <g clip-path="url(#p689be03ce4)">
     <use xlink:href="#m491f97947d" x="0" y="432" style="fill: #72b6a1; stroke: #595959; stroke-width: 1.25"/>
    </g>
   </g>
   <g id="PolyCollection_2">
    <defs>
     <path id="mc59a2f5e76" d="M 291.459201 -53.566364 
L 290.984799 -53.566364 
L 290.811435 -54.58076 
L 290.538389 -55.595157 
L 290.125945 -56.609553 
L 289.528144 -57.62395 
L 288.696509 -58.638347 
L 287.586015 -59.652743 
L 286.163031 -60.66714 
L 284.414261 -61.681536 
L 282.355112 -62.695933 
L 280.035423 -63.710329 
L 277.540533 -64.724726 
L 274.986268 -65.739123 
L 272.507661 -66.753519 
L 270.242769 -67.767916 
L 268.314395 -68.782312 
L 266.813396 -69.796709 
L 265.787176 -70.811105 
L 265.235952 -71.825502 
L 265.117584 -72.839899 
L 265.359704 -73.854295 
L 265.875976 -74.868692 
L 266.582286 -75.883088 
L 267.408698 -76.897485 
L 268.304322 -77.911881 
L 269.234392 -78.926278 
L 270.171107 -79.940675 
L 271.081415 -80.955071 
L 271.915253 -81.969468 
L 272.597154 -82.983864 
L 273.022976 -83.998261 
L 273.06269 -85.012658 
L 272.569863 -86.027054 
L 271.398294 -87.041451 
L 269.425427 -88.055847 
L 266.580115 -89.070244 
L 262.869539 -90.08464 
L 258.397845 -91.099037 
L 253.369117 -92.113434 
L 248.070485 -93.12783 
L 242.836859 -94.142227 
L 238.004863 -95.156623 
L 233.867418 -96.17102 
L 230.640203 -97.185416 
L 228.447044 -98.199813 
L 227.324854 -99.21421 
L 227.2428 -100.228606 
L 228.126997 -101.243003 
L 229.882254 -102.257399 
L 232.405368 -103.271796 
L 235.588767 -104.286192 
L 239.317049 -105.300589 
L 243.461201 -106.314986 
L 247.875374 -107.329382 
L 252.399585 -108.343779 
L 256.869176 -109.358175 
L 261.129364 -110.372572 
L 265.051355 -111.386969 
L 268.545939 -112.401365 
L 271.571133 -113.415762 
L 274.13203 -114.430158 
L 276.272985 -115.444555 
L 278.064064 -116.458951 
L 279.584896 -117.473348 
L 280.909418 -118.487745 
L 282.094629 -119.502141 
L 283.175256 -120.516538 
L 284.164722 -121.530934 
L 285.061109 -122.545331 
L 285.855636 -123.559727 
L 286.54074 -124.574124 
L 287.115426 -125.588521 
L 287.586841 -126.602917 
L 287.968586 -127.617314 
L 288.277335 -128.63171 
L 288.52963 -129.646107 
L 288.740064 -130.660504 
L 288.921073 -131.6749 
L 289.083578 -132.689297 
L 289.237446 -133.703693 
L 289.391098 -134.71809 
L 289.550317 -135.732486 
L 289.71694 -136.746883 
L 289.888342 -137.76128 
L 290.058222 -138.775676 
L 290.218601 -139.790073 
L 290.362326 -140.804469 
L 290.485174 -141.818866 
L 290.586814 -142.833262 
L 290.670416 -143.847659 
L 290.741191 -144.862056 
L 290.804543 -145.876452 
L 290.8645 -146.890849 
L 290.922918 -147.905245 
L 290.979539 -148.919642 
L 291.0327 -149.934038 
L 291.080287 -150.948435 
L 291.120583 -151.962832 
L 291.152757 -152.977228 
L 291.176956 -153.991625 
L 291.267044 -153.991625 
L 291.267044 -153.991625 
L 291.291243 -152.977228 
L 291.323417 -151.962832 
L 291.363713 -150.948435 
L 291.4113 -149.934038 
L 291.464461 -148.919642 
L 291.521082 -147.905245 
L 291.5795 -146.890849 
L 291.639457 -145.876452 
L 291.702809 -144.862056 
L 291.773584 -143.847659 
L 291.857186 -142.833262 
L 291.958826 -141.818866 
L 292.081674 -140.804469 
L 292.225399 -139.790073 
L 292.385778 -138.775676 
L 292.555658 -137.76128 
L 292.72706 -136.746883 
L 292.893683 -135.732486 
L 293.052902 -134.71809 
L 293.206554 -133.703693 
L 293.360422 -132.689297 
L 293.522927 -131.6749 
L 293.703936 -130.660504 
L 293.91437 -129.646107 
L 294.166665 -128.63171 
L 294.475414 -127.617314 
L 294.857159 -126.602917 
L 295.328574 -125.588521 
L 295.90326 -124.574124 
L 296.588364 -123.559727 
L 297.382891 -122.545331 
L 298.279278 -121.530934 
L 299.268744 -120.516538 
L 300.349371 -119.502141 
L 301.534582 -118.487745 
L 302.859104 -117.473348 
L 304.379936 -116.458951 
L 306.171015 -115.444555 
L 308.31197 -114.430158 
L 310.872867 -113.415762 
L 313.898061 -112.401365 
L 317.392645 -111.386969 
L 321.314636 -110.372572 
L 325.574824 -109.358175 
L 330.044415 -108.343779 
L 334.568626 -107.329382 
L 338.982799 -106.314986 
L 343.126951 -105.300589 
L 346.855233 -104.286192 
L 350.038632 -103.271796 
L 352.561746 -102.257399 
L 354.317003 -101.243003 
L 355.2012 -100.228606 
L 355.119146 -99.21421 
L 353.996956 -98.199813 
L 351.803797 -97.185416 
L 348.576582 -96.17102 
L 344.439137 -95.156623 
L 339.607141 -94.142227 
L 334.373515 -93.12783 
L 329.074883 -92.113434 
L 324.046155 -91.099037 
L 319.574461 -90.08464 
L 315.863885 -89.070244 
L 313.018573 -88.055847 
L 311.045706 -87.041451 
L 309.874137 -86.027054 
L 309.38131 -85.012658 
L 309.421024 -83.998261 
L 309.846846 -82.983864 
L 310.528747 -81.969468 
L 311.362585 -80.955071 
L 312.272893 -79.940675 
L 313.209608 -78.926278 
L 314.139678 -77.911881 
L 315.035302 -76.897485 
L 315.861714 -75.883088 
L 316.568024 -74.868692 
L 317.084296 -73.854295 
L 317.326416 -72.839899 
L 317.208048 -71.825502 
L 316.656824 -70.811105 
L 315.630604 -69.796709 
L 314.129605 -68.782312 
L 312.201231 -67.767916 
L 309.936339 -66.753519 
L 307.457732 -65.739123 
L 304.903467 -64.724726 
L 302.408577 -63.710329 
L 300.088888 -62.695933 
L 298.029739 -61.681536 
L 296.280969 -60.66714 
L 294.857985 -59.652743 
L 293.747491 -58.638347 
L 292.915856 -57.62395 
L 292.318055 -56.609553 
L 291.905611 -55.595157 
L 291.632565 -54.58076 
L 291.459201 -53.566364 
z
" style="stroke: #595959; stroke-width: 1.25"/>
    </defs>
    <g clip-path="url(#p689be03ce4)">
     <use xlink:href="#mc59a2f5e76" x="0" y="432" style="fill: #e99675; stroke: #595959; stroke-width: 1.25"/>
    </g>
   </g>
   <g id="PolyCollection_3">
    <defs>
     <path id="mdd891c8b09" d="M 451.696343 -105.305616 
L 450.643657 -105.305616 
L 450.362806 -108.15802 
L 449.971169 -111.010425 
L 449.444929 -113.862829 
L 448.763686 -116.715233 
L 447.914223 -119.567637 
L 446.894223 -122.420042 
L 445.715168 -125.272446 
L 444.40362 -128.12485 
L 443.000324 -130.977254 
L 441.556953 -133.829659 
L 440.130892 -136.682063 
L 438.77895 -139.534467 
L 437.551222 -142.386871 
L 436.486323 -145.239276 
L 435.608921 -148.09168 
L 434.929852 -150.944084 
L 434.448469 -153.796488 
L 434.156253 -156.648893 
L 434.040496 -159.501297 
L 434.086987 -162.353701 
L 434.281071 -165.206105 
L 434.607178 -168.05851 
L 435.047443 -170.910914 
L 435.580439 -173.763318 
L 436.180938 -176.615722 
L 436.821227 -179.468127 
L 437.473849 -182.320531 
L 438.115059 -185.172935 
L 438.727906 -188.025339 
L 439.303912 -190.877744 
L 439.842671 -193.730148 
L 440.349329 -196.582552 
L 440.830524 -199.434956 
L 441.289727 -202.28736 
L 441.723053 -205.139765 
L 442.116298 -207.992169 
L 442.443488 -210.844573 
L 442.666731 -213.696977 
L 442.736787 -216.549382 
L 442.59379 -219.401786 
L 442.167869 -222.25419 
L 441.379983 -225.106594 
L 440.14392 -227.958999 
L 438.370816 -230.811403 
L 435.977463 -233.663807 
L 432.898983 -236.516211 
L 429.10522 -239.368616 
L 424.618571 -242.22102 
L 419.529598 -245.073424 
L 414.006001 -247.925828 
L 408.290894 -250.778233 
L 402.687992 -253.630637 
L 397.534014 -256.483041 
L 393.16169 -259.335445 
L 389.859433 -262.18785 
L 387.835094 -265.040254 
L 387.1908 -267.892658 
L 387.913681 -270.745062 
L 389.883882 -273.597467 
L 392.897528 -276.449871 
L 396.699337 -279.302275 
L 401.018022 -282.154679 
L 405.59788 -285.007084 
L 410.22171 -287.859488 
L 414.722855 -290.711892 
L 418.986847 -293.564296 
L 422.945187 -296.416701 
L 426.564808 -299.269105 
L 429.836649 -302.121509 
L 432.765882 -304.973913 
L 435.365076 -307.826318 
L 437.650388 -310.678722 
L 439.640106 -313.531126 
L 441.354511 -316.38353 
L 442.816136 -319.235935 
L 444.049814 -322.088339 
L 445.082266 -324.940743 
L 445.941256 -327.793147 
L 446.654499 -330.645551 
L 447.248522 -333.497956 
L 447.747641 -336.35036 
L 448.173167 -339.202764 
L 448.542861 -342.055168 
L 448.870689 -344.907573 
L 449.166849 -347.759977 
L 449.438067 -350.612381 
L 449.688116 -353.464785 
L 449.918491 -356.31719 
L 450.129153 -359.169594 
L 450.319271 -362.021998 
L 450.487855 -364.874402 
L 450.634247 -367.726807 
L 450.758421 -370.579211 
L 450.861116 -373.431615 
L 450.943799 -376.284019 
L 451.008533 -379.136424 
L 451.057763 -381.988828 
L 451.094101 -384.841232 
L 451.12011 -387.693636 
L 451.21989 -387.693636 
L 451.21989 -387.693636 
L 451.245899 -384.841232 
L 451.282237 -381.988828 
L 451.331467 -379.136424 
L 451.396201 -376.284019 
L 451.478884 -373.431615 
L 451.581579 -370.579211 
L 451.705753 -367.726807 
L 451.852145 -364.874402 
L 452.020729 -362.021998 
L 452.210847 -359.169594 
L 452.421509 -356.31719 
L 452.651884 -353.464785 
L 452.901933 -350.612381 
L 453.173151 -347.759977 
L 453.469311 -344.907573 
L 453.797139 -342.055168 
L 454.166833 -339.202764 
L 454.592359 -336.35036 
L 455.091478 -333.497956 
L 455.685501 -330.645551 
L 456.398744 -327.793147 
L 457.257734 -324.940743 
L 458.290186 -322.088339 
L 459.523864 -319.235935 
L 460.985489 -316.38353 
L 462.699894 -313.531126 
L 464.689612 -310.678722 
L 466.974924 -307.826318 
L 469.574118 -304.973913 
L 472.503351 -302.121509 
L 475.775192 -299.269105 
L 479.394813 -296.416701 
L 483.353153 -293.564296 
L 487.617145 -290.711892 
L 492.11829 -287.859488 
L 496.74212 -285.007084 
L 501.321978 -282.154679 
L 505.640663 -279.302275 
L 509.442472 -276.449871 
L 512.456118 -273.597467 
L 514.426319 -270.745062 
L 515.1492 -267.892658 
L 514.504906 -265.040254 
L 512.480567 -262.18785 
L 509.17831 -259.335445 
L 504.805986 -256.483041 
L 499.652008 -253.630637 
L 494.049106 -250.778233 
L 488.333999 -247.925828 
L 482.810402 -245.073424 
L 477.721429 -242.22102 
L 473.23478 -239.368616 
L 469.441017 -236.516211 
L 466.362537 -233.663807 
L 463.969184 -230.811403 
L 462.19608 -227.958999 
L 460.960017 -225.106594 
L 460.172131 -222.25419 
L 459.74621 -219.401786 
L 459.603213 -216.549382 
L 459.673269 -213.696977 
L 459.896512 -210.844573 
L 460.223702 -207.992169 
L 460.616947 -205.139765 
L 461.050273 -202.28736 
L 461.509476 -199.434956 
L 461.990671 -196.582552 
L 462.497329 -193.730148 
L 463.036088 -190.877744 
L 463.612094 -188.025339 
L 464.224941 -185.172935 
L 464.866151 -182.320531 
L 465.518773 -179.468127 
L 466.159062 -176.615722 
L 466.759561 -173.763318 
L 467.292557 -170.910914 
L 467.732822 -168.05851 
L 468.058929 -165.206105 
L 468.253013 -162.353701 
L 468.299504 -159.501297 
L 468.183747 -156.648893 
L 467.891531 -153.796488 
L 467.410148 -150.944084 
L 466.731079 -148.09168 
L 465.853677 -145.239276 
L 464.788778 -142.386871 
L 463.56105 -139.534467 
L 462.209108 -136.682063 
L 460.783047 -133.829659 
L 459.339676 -130.977254 
L 457.93638 -128.12485 
L 456.624832 -125.272446 
L 455.445777 -122.420042 
L 454.425777 -119.567637 
L 453.576314 -116.715233 
L 452.895071 -113.862829 
L 452.368831 -111.010425 
L 451.977194 -108.15802 
L 451.696343 -105.305616 
z
" style="stroke: #595959; stroke-width: 1.25"/>
    </defs>
    <g clip-path="url(#p689be03ce4)">
     <use xlink:href="#mdd891c8b09" x="0" y="432" style="fill: #95a3c3; stroke: #595959; stroke-width: 1.25"/>
    </g>
   </g>
   <g id="PolyCollection_4">
    <defs>
     <path id="m6733af0527" d="M 611.283118 -62.741151 
L 610.952882 -62.741151 
L 610.802259 -63.575422 
L 610.562584 -64.409692 
L 610.218159 -65.243963 
L 609.773295 -66.078234 
L 609.260728 -66.912504 
L 608.740333 -67.746775 
L 608.284703 -68.581045 
L 607.955209 -69.415316 
L 607.779271 -70.249587 
L 607.741456 -71.083857 
L 607.794893 -71.918128 
L 607.887938 -72.752398 
L 607.991343 -73.586669 
L 608.110213 -74.42094 
L 608.274151 -75.25521 
L 608.512505 -76.089481 
L 608.830518 -76.923751 
L 609.200683 -77.758022 
L 609.573263 -78.592293 
L 609.8982 -79.426563 
L 610.144998 -80.260834 
L 610.310186 -81.095104 
L 610.410482 -81.929375 
L 610.467825 -82.763646 
L 610.495763 -83.597916 
L 610.494205 -84.432187 
L 610.453679 -85.266458 
L 610.364509 -86.100728 
L 610.223674 -86.934999 
L 610.033425 -87.769269 
L 609.789666 -88.60354 
L 609.461816 -89.437811 
L 608.967456 -90.272081 
L 608.145249 -91.106352 
L 606.732473 -91.940622 
L 604.362308 -92.774893 
L 600.607127 -93.609164 
L 595.09337 -94.443434 
L 587.685745 -95.277705 
L 578.684052 -96.111975 
L 568.925769 -96.946246 
L 559.689418 -97.780517 
L 552.37414 -98.614787 
L 548.058902 -99.449058 
L 547.1388 -100.283328 
L 549.221428 -101.117599 
L 553.337746 -101.95187 
L 558.35592 -102.78614 
L 563.387682 -103.620411 
L 568.002706 -104.454681 
L 572.191396 -105.288952 
L 576.155362 -106.123223 
L 580.075127 -106.957493 
L 583.978154 -107.791764 
L 587.742713 -108.626034 
L 591.189909 -109.460305 
L 594.184429 -110.294576 
L 596.686858 -111.128846 
L 598.745905 -111.963117 
L 600.453852 -112.797387 
L 601.898597 -113.631658 
L 603.135957 -114.465929 
L 604.18878 -115.300199 
L 605.064748 -116.13447 
L 605.777859 -116.96874 
L 606.360415 -117.803011 
L 606.860391 -118.637282 
L 607.327957 -119.471552 
L 607.799709 -120.305823 
L 608.288512 -121.140093 
L 608.782718 -121.974364 
L 609.25396 -122.808635 
L 609.669456 -123.642905 
L 610.003604 -124.477176 
L 610.244637 -125.311446 
L 610.394963 -126.145717 
L 610.466943 -126.979988 
L 610.477527 -127.814258 
L 610.444487 -128.648529 
L 610.384922 -129.482799 
L 610.314994 -130.31707 
L 610.249619 -131.151341 
L 610.201557 -131.985611 
L 610.180114 -132.819882 
L 610.189939 -133.654152 
L 610.230349 -134.488423 
L 610.295613 -135.322694 
L 610.376527 -136.156964 
L 610.463159 -136.991235 
L 610.54787 -137.825506 
L 610.627194 -138.659776 
L 610.701554 -139.494047 
L 610.773056 -140.328317 
L 610.842807 -141.162588 
L 610.909453 -141.996859 
L 610.969654 -142.831129 
L 611.019847 -143.6654 
L 611.057982 -144.49967 
L 611.084233 -145.333941 
L 611.151767 -145.333941 
L 611.151767 -145.333941 
L 611.178018 -144.49967 
L 611.216153 -143.6654 
L 611.266346 -142.831129 
L 611.326547 -141.996859 
L 611.393193 -141.162588 
L 611.462944 -140.328317 
L 611.534446 -139.494047 
L 611.608806 -138.659776 
L 611.68813 -137.825506 
L 611.772841 -136.991235 
L 611.859473 -136.156964 
L 611.940387 -135.322694 
L 612.005651 -134.488423 
L 612.046061 -133.654152 
L 612.055886 -132.819882 
L 612.034443 -131.985611 
L 611.986381 -131.151341 
L 611.921006 -130.31707 
L 611.851078 -129.482799 
L 611.791513 -128.648529 
L 611.758473 -127.814258 
L 611.769057 -126.979988 
L 611.841037 -126.145717 
L 611.991363 -125.311446 
L 612.232396 -124.477176 
L 612.566544 -123.642905 
L 612.98204 -122.808635 
L 613.453282 -121.974364 
L 613.947488 -121.140093 
L 614.436291 -120.305823 
L 614.908043 -119.471552 
L 615.375609 -118.637282 
L 615.875585 -117.803011 
L 616.458141 -116.96874 
L 617.171252 -116.13447 
L 618.04722 -115.300199 
L 619.100043 -114.465929 
L 620.337403 -113.631658 
L 621.782148 -112.797387 
L 623.490095 -111.963117 
L 625.549142 -111.128846 
L 628.051571 -110.294576 
L 631.046091 -109.460305 
L 634.493287 -108.626034 
L 638.257846 -107.791764 
L 642.160873 -106.957493 
L 646.080638 -106.123223 
L 650.044604 -105.288952 
L 654.233294 -104.454681 
L 658.848318 -103.620411 
L 663.88008 -102.78614 
L 668.898254 -101.95187 
L 673.014572 -101.117599 
L 675.0972 -100.283328 
L 674.177098 -99.449058 
L 669.86186 -98.614787 
L 662.546582 -97.780517 
L 653.310231 -96.946246 
L 643.551948 -96.111975 
L 634.550255 -95.277705 
L 627.14263 -94.443434 
L 621.628873 -93.609164 
L 617.873692 -92.774893 
L 615.503527 -91.940622 
L 614.090751 -91.106352 
L 613.268544 -90.272081 
L 612.774184 -89.437811 
L 612.446334 -88.60354 
L 612.202575 -87.769269 
L 612.012326 -86.934999 
L 611.871491 -86.100728 
L 611.782321 -85.266458 
L 611.741795 -84.432187 
L 611.740237 -83.597916 
L 611.768175 -82.763646 
L 611.825518 -81.929375 
L 611.925814 -81.095104 
L 612.091002 -80.260834 
L 612.3378 -79.426563 
L 612.662737 -78.592293 
L 613.035317 -77.758022 
L 613.405482 -76.923751 
L 613.723495 -76.089481 
L 613.961849 -75.25521 
L 614.125787 -74.42094 
L 614.244657 -73.586669 
L 614.348062 -72.752398 
L 614.441107 -71.918128 
L 614.494544 -71.083857 
L 614.456729 -70.249587 
L 614.280791 -69.415316 
L 613.951297 -68.581045 
L 613.495667 -67.746775 
L 612.975272 -66.912504 
L 612.462705 -66.078234 
L 612.017841 -65.243963 
L 611.673416 -64.409692 
L 611.433741 -63.575422 
L 611.283118 -62.741151 
z
" style="stroke: #595959; stroke-width: 1.25"/>
    </defs>
    <g clip-path="url(#p689be03ce4)">
     <use xlink:href="#m6733af0527" x="0" y="432" style="fill: #db96c0; stroke: #595959; stroke-width: 1.25"/>
    </g>
   </g>
   <g id="PolyCollection_5">
    <defs>
     <path id="m499712152d" d="M 771.231079 -57.962187 
L 770.900921 -57.962187 
L 770.771882 -58.648554 
L 770.569739 -59.33492 
L 770.271655 -60.021286 
L 769.857555 -60.707652 
L 769.315278 -61.394019 
L 768.645753 -62.080385 
L 767.866849 -62.766751 
L 767.014663 -63.453118 
L 766.141543 -64.139484 
L 765.310832 -64.82585 
L 764.589037 -65.512216 
L 764.036626 -66.198583 
L 763.698993 -66.884949 
L 763.599247 -67.571315 
L 763.73433 -68.257682 
L 764.075536 -68.944048 
L 764.573591 -69.630414 
L 765.167369 -70.31678 
L 765.794295 -71.003147 
L 766.400005 -71.689513 
L 766.945202 -72.375879 
L 767.408664 -73.062246 
L 767.786464 -73.748612 
L 768.088316 -74.434978 
L 768.332225 -75.121344 
L 768.538584 -75.807711 
L 768.724798 -76.494077 
L 768.901395 -77.180443 
L 769.070301 -77.86681 
L 769.225246 -78.553176 
L 769.353338 -79.239542 
L 769.435985 -79.925909 
L 769.446982 -80.612275 
L 769.346008 -81.298641 
L 769.06706 -81.985007 
L 768.503725 -82.671374 
L 767.49647 -83.35774 
L 765.830678 -84.044106 
L 763.255856 -84.730473 
L 759.533524 -85.416839 
L 754.511704 -86.103205 
L 748.209065 -86.789571 
L 740.877958 -87.475938 
L 733.012181 -88.162304 
L 725.279237 -88.84867 
L 718.386214 -89.535037 
L 712.920425 -90.221403 
L 709.222951 -90.907769 
L 707.34302 -91.594135 
L 707.0868 -92.280502 
L 708.132698 -92.966868 
L 710.158725 -93.653234 
L 712.92883 -94.339601 
L 716.311432 -95.025967 
L 720.238546 -95.712333 
L 724.639327 -96.398699 
L 729.38691 -97.085066 
L 734.283575 -97.771432 
L 739.087056 -98.457798 
L 743.562084 -99.144165 
L 747.533338 -99.830531 
L 750.919295 -100.516897 
L 753.736845 -101.203263 
L 756.078323 -101.88963 
L 758.071611 -102.575996 
L 759.837918 -103.262362 
L 761.460536 -103.948729 
L 762.972421 -104.635095 
L 764.363051 -105.321461 
L 765.598477 -106.007828 
L 766.644991 -106.694194 
L 767.487333 -107.38056 
L 768.136132 -108.066926 
L 768.624164 -108.753293 
L 768.995158 -109.439659 
L 769.290696 -110.126025 
L 769.540251 -110.812392 
L 769.757228 -111.498758 
L 769.941193 -112.185124 
L 770.084336 -112.87149 
L 770.179178 -113.557857 
L 770.224655 -114.244223 
L 770.228754 -114.930589 
L 770.207302 -115.616956 
L 770.179891 -116.303322 
L 770.164748 -116.989688 
L 770.174512 -117.676054 
L 770.214249 -118.362421 
L 770.281947 -119.048787 
L 770.370773 -119.735153 
L 770.471848 -120.42152 
L 770.576495 -121.107886 
L 770.677502 -121.794252 
L 770.769531 -122.480618 
L 770.849084 -123.166985 
L 770.914352 -123.853351 
L 770.965062 -124.539717 
L 771.002252 -125.226084 
L 771.027914 -125.91245 
L 771.104086 -125.91245 
L 771.104086 -125.91245 
L 771.129748 -125.226084 
L 771.166938 -124.539717 
L 771.217648 -123.853351 
L 771.282916 -123.166985 
L 771.362469 -122.480618 
L 771.454498 -121.794252 
L 771.555505 -121.107886 
L 771.660152 -120.42152 
L 771.761227 -119.735153 
L 771.850053 -119.048787 
L 771.917751 -118.362421 
L 771.957488 -117.676054 
L 771.967252 -116.989688 
L 771.952109 -116.303322 
L 771.924698 -115.616956 
L 771.903246 -114.930589 
L 771.907345 -114.244223 
L 771.952822 -113.557857 
L 772.047664 -112.87149 
L 772.190807 -112.185124 
L 772.374772 -111.498758 
L 772.591749 -110.812392 
L 772.841304 -110.126025 
L 773.136842 -109.439659 
L 773.507836 -108.753293 
L 773.995868 -108.066926 
L 774.644667 -107.38056 
L 775.487009 -106.694194 
L 776.533523 -106.007828 
L 777.768949 -105.321461 
L 779.159579 -104.635095 
L 780.671464 -103.948729 
L 782.294082 -103.262362 
L 784.060389 -102.575996 
L 786.053677 -101.88963 
L 788.395155 -101.203263 
L 791.212705 -100.516897 
L 794.598662 -99.830531 
L 798.569916 -99.144165 
L 803.044944 -98.457798 
L 807.848425 -97.771432 
L 812.74509 -97.085066 
L 817.492673 -96.398699 
L 821.893454 -95.712333 
L 825.820568 -95.025967 
L 829.20317 -94.339601 
L 831.973275 -93.653234 
L 833.999302 -92.966868 
L 835.0452 -92.280502 
L 834.78898 -91.594135 
L 832.909049 -90.907769 
L 829.211575 -90.221403 
L 823.745786 -89.535037 
L 816.852763 -88.84867 
L 809.119819 -88.162304 
L 801.254042 -87.475938 
L 793.922935 -86.789571 
L 787.620296 -86.103205 
L 782.598476 -85.416839 
L 778.876144 -84.730473 
L 776.301322 -84.044106 
L 774.63553 -83.35774 
L 773.628275 -82.671374 
L 773.06494 -81.985007 
L 772.785992 -81.298641 
L 772.685018 -80.612275 
L 772.696015 -79.925909 
L 772.778662 -79.239542 
L 772.906754 -78.553176 
L 773.061699 -77.86681 
L 773.230605 -77.180443 
L 773.407202 -76.494077 
L 773.593416 -75.807711 
L 773.799775 -75.121344 
L 774.043684 -74.434978 
L 774.345536 -73.748612 
L 774.723336 -73.062246 
L 775.186798 -72.375879 
L 775.731995 -71.689513 
L 776.337705 -71.003147 
L 776.964631 -70.31678 
L 777.558409 -69.630414 
L 778.056464 -68.944048 
L 778.39767 -68.257682 
L 778.532753 -67.571315 
L 778.433007 -66.884949 
L 778.095374 -66.198583 
L 777.542963 -65.512216 
L 776.821168 -64.82585 
L 775.990457 -64.139484 
L 775.117337 -63.453118 
L 774.265151 -62.766751 
L 773.486247 -62.080385 
L 772.816722 -61.394019 
L 772.274445 -60.707652 
L 771.860345 -60.021286 
L 771.562261 -59.33492 
L 771.360118 -58.648554 
L 771.231079 -57.962187 
z
" style="stroke: #595959; stroke-width: 1.25"/>
    </defs>
    <g clip-path="url(#p689be03ce4)">
     <use xlink:href="#m499712152d" x="0" y="432" style="fill: #a2c865; stroke: #595959; stroke-width: 1.25"/>
    </g>
   </g>
   <g id="line2d_9">
    <path d="M 131.274 343.811684 
L 131.274 368.193125 
" clip-path="url(#p689be03ce4)" style="fill: none; stroke: #000000"/>
   </g>
   <g id="line2d_10">
    <path d="M 131.274 324.963252 
L 131.274 300.866218 
" clip-path="url(#p689be03ce4)" style="fill: none; stroke: #000000"/>
   </g>
   <g id="line2d_11">
    <path d="M 125.27595 368.193125 
L 137.27205 368.193125 
" clip-path="url(#p689be03ce4)" style="fill: none; stroke: #000000; stroke-linecap: round"/>
   </g>
   <g id="line2d_12">
    <path d="M 125.27595 300.866218 
L 137.27205 300.866218 
" clip-path="url(#p689be03ce4)" style="fill: none; stroke: #000000; stroke-linecap: round"/>
   </g>
   <g id="line2d_13">
    <path d="M 291.222 349.318838 
L 291.222 369.434174 
" clip-path="url(#p689be03ce4)" style="fill: none; stroke: #000000"/>
   </g>
   <g id="line2d_14">
    <path d="M 291.222 327.729757 
L 291.222 296.625967 
" clip-path="url(#p689be03ce4)" style="fill: none; stroke: #000000"/>
   </g>
   <g id="line2d_15">
    <path d="M 285.22395 369.434174 
L 297.22005 369.434174 
" clip-path="url(#p689be03ce4)" style="fill: none; stroke: #000000; stroke-linecap: round"/>
   </g>
   <g id="line2d_16">
    <path d="M 285.22395 296.625967 
L 297.22005 296.625967 
" clip-path="url(#p689be03ce4)" style="fill: none; stroke: #000000; stroke-linecap: round"/>
   </g>
   <g id="line2d_17">
    <path d="M 451.17 221.439084 
L 451.17 296.729388 
" clip-path="url(#p689be03ce4)" style="fill: none; stroke: #000000"/>
   </g>
   <g id="line2d_18">
    <path d="M 451.17 157.188944 
L 451.17 74.271359 
" clip-path="url(#p689be03ce4)" style="fill: none; stroke: #000000"/>
   </g>
   <g id="line2d_19">
    <path d="M 445.17195 296.729388 
L 457.16805 296.729388 
" clip-path="url(#p689be03ce4)" style="fill: none; stroke: #000000; stroke-linecap: round"/>
   </g>
   <g id="line2d_20">
    <path d="M 445.17195 74.271359 
L 457.16805 74.271359 
" clip-path="url(#p689be03ce4)" style="fill: none; stroke: #000000; stroke-linecap: round"/>
   </g>
   <g id="line2d_21">
    <path d="M 611.118 333.030071 
L 611.118 342.131096 
" clip-path="url(#p689be03ce4)" style="fill: none; stroke: #000000"/>
   </g>
   <g id="line2d_22">
    <path d="M 611.118 326.411143 
L 611.118 316.999855 
" clip-path="url(#p689be03ce4)" style="fill: none; stroke: #000000"/>
   </g>
   <g id="line2d_23">
    <path d="M 605.11995 342.131096 
L 617.11605 342.131096 
" clip-path="url(#p689be03ce4)" style="fill: none; stroke: #000000; stroke-linecap: round"/>
   </g>
   <g id="line2d_24">
    <path d="M 605.11995 316.999855 
L 617.11605 316.999855 
" clip-path="url(#p689be03ce4)" style="fill: none; stroke: #000000; stroke-linecap: round"/>
   </g>
   <g id="line2d_25">
    <path d="M 771.066 342.131096 
L 771.066 350.094494 
" clip-path="url(#p689be03ce4)" style="fill: none; stroke: #000000"/>
   </g>
   <g id="line2d_26">
    <path d="M 771.066 336.132693 
L 771.066 327.341929 
" clip-path="url(#p689be03ce4)" style="fill: none; stroke: #000000"/>
   </g>
   <g id="line2d_27">
    <path d="M 765.06795 350.094494 
L 777.06405 350.094494 
" clip-path="url(#p689be03ce4)" style="fill: none; stroke: #000000; stroke-linecap: round"/>
   </g>
   <g id="line2d_28">
    <path d="M 765.06795 327.341929 
L 777.06405 327.341929 
" clip-path="url(#p689be03ce4)" style="fill: none; stroke: #000000; stroke-linecap: round"/>
   </g>
   <g id="line2d_29">
    <path d="M 119.2779 332.92665 
L 143.2701 332.92665 
" clip-path="url(#p689be03ce4)" style="fill: none; stroke: #ff0000; stroke-width: 2"/>
   </g>
   <g id="line2d_30">
    <path d="M 279.2259 334.529671 
L 303.2181 334.529671 
" clip-path="url(#p689be03ce4)" style="fill: none; stroke: #ff0000; stroke-width: 2"/>
   </g>
   <g id="line2d_31">
    <path d="M 439.1739 168.953054 
L 463.1661 168.953054 
" clip-path="url(#p689be03ce4)" style="fill: none; stroke: #ff0000; stroke-width: 2"/>
   </g>
   <g id="line2d_32">
    <path d="M 599.1219 331.168497 
L 623.1141 331.168497 
" clip-path="url(#p689be03ce4)" style="fill: none; stroke: #ff0000; stroke-width: 2"/>
   </g>
   <g id="line2d_33">
    <path d="M 759.0699 339.442157 
L 783.0621 339.442157 
" clip-path="url(#p689be03ce4)" style="fill: none; stroke: #ff0000; stroke-width: 2"/>
   </g>
   <g id="patch_3">
    <path d="M 51.3 395.14 
L 51.3 27.6 
" style="fill: none; stroke: #cccccc; stroke-width: 1.25; stroke-linejoin: miter; stroke-linecap: square"/>
   </g>
   <g id="patch_4">
    <path d="M 851.04 395.14 
L 851.04 27.6 
" style="fill: none; stroke: #cccccc; stroke-width: 1.25; stroke-linejoin: miter; stroke-linecap: square"/>
   </g>
   <g id="patch_5">
    <path d="M 51.3 395.14 
L 851.04 395.14 
" style="fill: none; stroke: #cccccc; stroke-width: 1.25; stroke-linejoin: miter; stroke-linecap: square"/>
   </g>
   <g id="patch_6">
    <path d="M 51.3 27.6 
L 851.04 27.6 
" style="fill: none; stroke: #cccccc; stroke-width: 1.25; stroke-linejoin: miter; stroke-linecap: square"/>
   </g>
   <g id="text_15">
    <!-- Handshake duration on TLS with ed25519 signature algorithm — ideal conditions -->
    <g style="fill: #262626" transform="translate(207.297187 21.6) scale(0.12 -0.12)">
     <defs>
      <path id="DejaVuSans-54" d="M -19 4666 
L 3928 4666 
L 3928 4134 
L 2272 4134 
L 2272 0 
L 1638 0 
L 1638 4134 
L -19 4134 
L -19 4666 
z
" transform="scale(0.015625)"/>
      <path id="DejaVuSans-4c" d="M 628 4666 
L 1259 4666 
L 1259 531 
L 3531 531 
L 3531 0 
L 628 0 
L 628 4666 
z
" transform="scale(0.015625)"/>
      <path id="DejaVuSans-53" d="M 3425 4513 
L 3425 3897 
Q 3066 4069 2747 4153 
Q 2428 4238 2131 4238 
Q 1616 4238 1336 4038 
Q 1056 3838 1056 3469 
Q 1056 3159 1242 3001 
Q 1428 2844 1947 2747 
L 2328 2669 
Q 3034 2534 3370 2195 
Q 3706 1856 3706 1288 
Q 3706 609 3251 259 
Q 2797 -91 1919 -91 
Q 1588 -91 1214 -16 
Q 841 59 441 206 
L 441 856 
Q 825 641 1194 531 
Q 1563 422 1919 422 
Q 2459 422 2753 634 
Q 3047 847 3047 1241 
Q 3047 1584 2836 1778 
Q 2625 1972 2144 2069 
L 1759 2144 
Q 1053 2284 737 2584 
Q 422 2884 422 3419 
Q 422 4038 858 4394 
Q 1294 4750 2059 4750 
Q 2388 4750 2728 4690 
Q 3069 4631 3425 4513 
z
" transform="scale(0.015625)"/>
      <path id="DejaVuSans-77" d="M 269 3500 
L 844 3500 
L 1563 769 
L 2278 3500 
L 2956 3500 
L 3675 769 
L 4391 3500 
L 4966 3500 
L 4050 0 
L 3372 0 
L 2619 2869 
L 1863 0 
L 1184 0 
L 269 3500 
z
" transform="scale(0.015625)"/>
      <path id="DejaVuSans-67" d="M 2906 1791 
Q 2906 2416 2648 2759 
Q 2391 3103 1925 3103 
Q 1463 3103 1205 2759 
Q 947 2416 947 1791 
Q 947 1169 1205 825 
Q 1463 481 1925 481 
Q 2391 481 2648 825 
Q 2906 1169 2906 1791 
z
M 3481 434 
Q 3481 -459 3084 -895 
Q 2688 -1331 1869 -1331 
Q 1566 -1331 1297 -1286 
Q 1028 -1241 775 -1147 
L 775 -588 
Q 1028 -725 1275 -790 
Q 1522 -856 1778 -856 
Q 2344 -856 2625 -561 
Q 2906 -266 2906 331 
L 2906 616 
Q 2728 306 2450 153 
Q 2172 0 1784 0 
Q 1141 0 747 490 
Q 353 981 353 1791 
Q 353 2603 747 3093 
Q 1141 3584 1784 3584 
Q 2172 3584 2450 3431 
Q 2728 3278 2906 2969 
L 2906 3500 
L 3481 3500 
L 3481 434 
z
" transform="scale(0.015625)"/>
      <path id="DejaVuSans-2014" d="M 313 1978 
L 6088 1978 
L 6088 1528 
L 313 1528 
L 313 1978 
z
" transform="scale(0.015625)"/>
      <path id="DejaVuSans-63" d="M 3122 3366 
L 3122 2828 
Q 2878 2963 2633 3030 
Q 2388 3097 2138 3097 
Q 1578 3097 1268 2742 
Q 959 2388 959 1747 
Q 959 1106 1268 751 
Q 1578 397 2138 397 
Q 2388 397 2633 464 
Q 2878 531 3122 666 
L 3122 134 
Q 2881 22 2623 -34 
Q 2366 -91 2075 -91 
Q 1284 -91 818 406 
Q 353 903 353 1747 
Q 353 2603 823 3093 
Q 1294 3584 2113 3584 
Q 2378 3584 2631 3529 
Q 2884 3475 3122 3366 
z
" transform="scale(0.015625)"/>
     </defs>
     <use xlink:href="#DejaVuSans-48"/>
     <use xlink:href="#DejaVuSans-61" x="75.195312"/>
     <use xlink:href="#DejaVuSans-6e" x="136.474609"/>
     <use xlink:href="#DejaVuSans-64" x="199.853516"/>
     <use xlink:href="#DejaVuSans-73" x="263.330078"/>
     <use xlink:href="#DejaVuSans-68" x="315.429688"/>
     <use xlink:href="#DejaVuSans-61" x="378.808594"/>
     <use xlink:href="#DejaVuSans-6b" x="440.087891"/>
     <use xlink:href="#DejaVuSans-65" x="494.373047"/>
     <use xlink:href="#DejaVuSans-20" x="555.896484"/>
     <use xlink:href="#DejaVuSans-64" x="587.683594"/>
     <use xlink:href="#DejaVuSans-75" x="651.160156"/>
     <use xlink:href="#DejaVuSans-72" x="714.539062"/>
     <use xlink:href="#DejaVuSans-61" x="755.652344"/>
     <use xlink:href="#DejaVuSans-74" x="816.931641"/>
     <use xlink:href="#DejaVuSans-69" x="856.140625"/>
     <use xlink:href="#DejaVuSans-6f" x="883.923828"/>
     <use xlink:href="#DejaVuSans-6e" x="945.105469"/>
     <use xlink:href="#DejaVuSans-20" x="1008.484375"/>
     <use xlink:href="#DejaVuSans-6f" x="1040.271484"/>
     <use xlink:href="#DejaVuSans-6e" x="1101.453125"/>
     <use xlink:href="#DejaVuSans-20" x="1164.832031"/>
     <use xlink:href="#DejaVuSans-54" x="1196.619141"/>
     <use xlink:href="#DejaVuSans-4c" x="1257.703125"/>
     <use xlink:href="#DejaVuSans-53" x="1313.416016"/>
     <use xlink:href="#DejaVuSans-20" x="1376.892578"/>
     <use xlink:href="#DejaVuSans-77" x="1408.679688"/>
     <use xlink:href="#DejaVuSans-69" x="1490.466797"/>
     <use xlink:href="#DejaVuSans-74" x="1518.25"/>
     <use xlink:href="#DejaVuSans-68" x="1557.458984"/>
     <use xlink:href="#DejaVuSans-20" x="1620.837891"/>
     <use xlink:href="#DejaVuSans-65" x="1652.625"/>
     <use xlink:href="#DejaVuSans-64" x="1714.148438"/>
     <use xlink:href="#DejaVuSans-32" x="1777.625"/>
     <use xlink:href="#DejaVuSans-35" x="1841.248047"/>
     <use xlink:href="#DejaVuSans-35" x="1904.871094"/>
     <use xlink:href="#DejaVuSans-31" x="1968.494141"/>
     <use xlink:href="#DejaVuSans-39" x="2032.117188"/>
     <use xlink:href="#DejaVuSans-20" x="2095.740234"/>
     <use xlink:href="#DejaVuSans-73" x="2127.527344"/>
     <use xlink:href="#DejaVuSans-69" x="2179.626953"/>
     <use xlink:href="#DejaVuSans-67" x="2207.410156"/>
     <use xlink:href="#DejaVuSans-6e" x="2270.886719"/>
     <use xlink:href="#DejaVuSans-61" x="2334.265625"/>
     <use xlink:href="#DejaVuSans-74" x="2395.544922"/>
     <use xlink:href="#DejaVuSans-75" x="2434.753906"/>
     <use xlink:href="#DejaVuSans-72" x="2498.132812"/>
     <use xlink:href="#DejaVuSans-65" x="2536.996094"/>
     <use xlink:href="#DejaVuSans-20" x="2598.519531"/>
     <use xlink:href="#DejaVuSans-61" x="2630.306641"/>
     <use xlink:href="#DejaVuSans-6c" x="2691.585938"/>
     <use xlink:href="#DejaVuSans-67" x="2719.369141"/>
     <use xlink:href="#DejaVuSans-6f" x="2782.845703"/>
     <use xlink:href="#DejaVuSans-72" x="2844.027344"/>
     <use xlink:href="#DejaVuSans-69" x="2885.140625"/>
     <use xlink:href="#DejaVuSans-74" x="2912.923828"/>
     <use xlink:href="#DejaVuSans-68" x="2952.132812"/>
     <use xlink:href="#DejaVuSans-6d" x="3015.511719"/>
     <use xlink:href="#DejaVuSans-20" x="3112.923828"/>
     <use xlink:href="#DejaVuSans-2014" x="3144.710938"/>
     <use xlink:href="#DejaVuSans-20" x="3244.710938"/>
     <use xlink:href="#DejaVuSans-69" x="3276.498047"/>
     <use xlink:href="#DejaVuSans-64" x="3304.28125"/>
     <use xlink:href="#DejaVuSans-65" x="3367.757812"/>
     <use xlink:href="#DejaVuSans-61" x="3429.28125"/>
     <use xlink:href="#DejaVuSans-6c" x="3490.560547"/>
     <use xlink:href="#DejaVuSans-20" x="3518.34375"/>
     <use xlink:href="#DejaVuSans-63" x="3550.130859"/>
     <use xlink:href="#DejaVuSans-6f" x="3605.111328"/>
     <use xlink:href="#DejaVuSans-6e" x="3666.292969"/>
     <use xlink:href="#DejaVuSans-64" x="3729.671875"/>
     <use xlink:href="#DejaVuSans-69" x="3793.148438"/>
     <use xlink:href="#DejaVuSans-74" x="3820.931641"/>
     <use xlink:href="#DejaVuSans-69" x="3860.140625"/>
     <use xlink:href="#DejaVuSans-6f" x="3887.923828"/>
     <use xlink:href="#DejaVuSans-6e" x="3949.105469"/>
     <use xlink:href="#DejaVuSans-73" x="4012.484375"/>
    </g>
   </g>
  </g>
 </g>
 <defs>
  <clipPath id="p689be03ce4">
   <rect x="51.3" y="27.6" width="799.74" height="367.54"/>
  </clipPath>
 </defs>
</svg>
