<?xml version="1.0" encoding="utf-8" standalone="no"?>
<!DOCTYPE svg PUBLIC "-//W3C//DTD SVG 1.1//EN"
  "http://www.w3.org/Graphics/SVG/1.1/DTD/svg11.dtd">
<svg xmlns:xlink="http://www.w3.org/1999/xlink" width="864pt" height="432pt" viewBox="0 0 864 432" xmlns="http://www.w3.org/2000/svg" version="1.1">
 <metadata>
  <rdf:RDF xmlns:dc="http://purl.org/dc/elements/1.1/" xmlns:cc="http://creativecommons.org/ns#" xmlns:rdf="http://www.w3.org/1999/02/22-rdf-syntax-ns#">
   <cc:Work>
    <dc:type rdf:resource="http://purl.org/dc/dcmitype/StillImage"/>
    <dc:date>2026-03-21T13:58:42.294183</dc:date>
    <dc:format>image/svg+xml</dc:format>
    <dc:creator>
     <cc:Agent>
      <dc:title>Matplotlib v3.6.3, https://matplotlib.org/</dc:title>
     </cc:Agent>
    </dc:creator>
   </cc:Work>
  </rdf:RDF>
 </metadata>
 <defs>
  <style type="text/css">*{stroke-linejoin: round; stroke-linecap: butt}</style>
 </defs>
 <g id="figure_1">
  <g id="patch_1">
   <path d="M 0 432 
L 864 432 
L 864 0 
L 0 0 
z
" style="fill: #ffffff"/>
  </g>
  <g id="axes_1">
   <g id="patch_2">
    <path d="M 58.32 395.14 
L 851.04 395.14 
L 851.04 27.6 
L 58.32 27.6 
z
" style="fill: #ffffff"/>
   </g>
   <g id="matplotlib.axis_1">
    <g id="xtick_1">
     <g id="text_1">
      <!-- P-256 -->
      <g style="fill: #262626" transform="translate(117.642 415.277812) scale(0.14 -0.14)">
       <defs>
        <path id="DejaVuSans-50" d="M 1259 4147 
L 1259 2394 
L 2053 2394 
Q 2494 2394 2734 2622 
Q 2975 2850 2975 3272 
Q 2975 3691 2734 3919 
Q 2494 4147 2053 4147 
L 1259 4147 
z
M 628 4666 
L 2053 4666 
Q 2838 4666 3239 4311 
Q 3641 3956 3641 3272 
Q 3641 2581 3239 2228 
Q 2838 1875 2053 1875 
L 1259 1875 
L 1259 0 
L 628 0 
L 628 4666 
z
" transform="scale(0.015625)"/>
        <path id="DejaVuSans-2d" d="M 313 2009 
L 1997 2009 
L 1997 1497 
L 313 1497 
L 313 2009 
z
" transform="scale(0.015625)"/>
        <path id="DejaVuSans-32" d="M 1228 531 
L 3431 531 
L 3431 0 
L 469 0 
L 469 531 
Q 828 903 1448 1529 
Q 2069 2156 2228 2338 
Q 2531 2678 2651 2914 
Q 2772 3150 2772 3378 
Q 2772 3750 2511 3984 
Q 2250 4219 1831 4219 
Q 1534 4219 1204 4116 
Q 875 4013 500 3803 
L 500 4441 
Q 881 4594 1212 4672 
Q 1544 4750 1819 4750 
Q 2544 4750 2975 4387 
Q 3406 4025 3406 3419 
Q 3406 3131 3298 2873 
Q 3191 2616 2906 2266 
Q 2828 2175 2409 1742 
Q 1991 1309 1228 531 
z
" transform="scale(0.015625)"/>
        <path id="DejaVuSans-35" d="M 691 4666 
L 3169 4666 
L 3169 4134 
L 1269 4134 
L 1269 2991 
Q 1406 3038 1543 3061 
Q 1681 3084 1819 3084 
Q 2600 3084 3056 2656 
Q 3513 2228 3513 1497 
Q 3513 744 3044 326 
Q 2575 -91 1722 -91 
Q 1428 -91 1123 -41 
Q 819 9 494 109 
L 494 744 
Q 775 591 1075 516 
Q 1375 441 1709 441 
Q 2250 441 2565 725 
Q 2881 1009 2881 1497 
Q 2881 1984 2565 2268 
Q 2250 2553 1709 2553 
Q 1456 2553 1204 2497 
Q 953 2441 691 2322 
L 691 4666 
z
" transform="scale(0.015625)"/>
        <path id="DejaVuSans-36" d="M 2113 2584 
Q 1688 2584 1439 2293 
Q 1191 2003 1191 1497 
Q 1191 994 1439 701 
Q 1688 409 2113 409 
Q 2538 409 2786 701 
Q 3034 994 3034 1497 
Q 3034 2003 2786 2293 
Q 2538 2584 2113 2584 
z
M 3366 4563 
L 3366 3988 
Q 3128 4100 2886 4159 
Q 2644 4219 2406 4219 
Q 1781 4219 1451 3797 
Q 1122 3375 1075 2522 
Q 1259 2794 1537 2939 
Q 1816 3084 2150 3084 
Q 2853 3084 3261 2657 
Q 3669 2231 3669 1497 
Q 3669 778 3244 343 
Q 2819 -91 2113 -91 
Q 1303 -91 875 529 
Q 447 1150 447 2328 
Q 447 3434 972 4092 
Q 1497 4750 2381 4750 
Q 2619 4750 2861 4703 
Q 3103 4656 3366 4563 
z
" transform="scale(0.015625)"/>
       </defs>
       <use xlink:href="#DejaVuSans-50"/>
       <use xlink:href="#DejaVuSans-2d" x="58.052734"/>
       <use xlink:href="#DejaVuSans-32" x="94.136719"/>
       <use xlink:href="#DejaVuSans-35" x="157.759766"/>
       <use xlink:href="#DejaVuSans-36" x="221.382812"/>
      </g>
     </g>
    </g>
    <g id="xtick_2">
     <g id="text_2">
      <!-- x25519 -->
      <g style="fill: #262626" transform="translate(269.724125 415.277812) scale(0.14 -0.14)">
       <defs>
        <path id="DejaVuSans-78" d="M 3513 3500 
L 2247 1797 
L 3578 0 
L 2900 0 
L 1881 1375 
L 863 0 
L 184 0 
L 1544 1831 
L 300 3500 
L 978 3500 
L 1906 2253 
L 2834 3500 
L 3513 3500 
z
" transform="scale(0.015625)"/>
        <path id="DejaVuSans-31" d="M 794 531 
L 1825 531 
L 1825 4091 
L 703 3866 
L 703 4441 
L 1819 4666 
L 2450 4666 
L 2450 531 
L 3481 531 
L 3481 0 
L 794 0 
L 794 531 
z
" transform="scale(0.015625)"/>
        <path id="DejaVuSans-39" d="M 703 97 
L 703 672 
Q 941 559 1184 500 
Q 1428 441 1663 441 
Q 2288 441 2617 861 
Q 2947 1281 2994 2138 
Q 2813 1869 2534 1725 
Q 2256 1581 1919 1581 
Q 1219 1581 811 2004 
Q 403 2428 403 3163 
Q 403 3881 828 4315 
Q 1253 4750 1959 4750 
Q 2769 4750 3195 4129 
Q 3622 3509 3622 2328 
Q 3622 1225 3098 567 
Q 2575 -91 1691 -91 
Q 1453 -91 1209 -44 
Q 966 3 703 97 
z
M 1959 2075 
Q 2384 2075 2632 2365 
Q 2881 2656 2881 3163 
Q 2881 3666 2632 3958 
Q 2384 4250 1959 4250 
Q 1534 4250 1286 3958 
Q 1038 3666 1038 3163 
Q 1038 2656 1286 2365 
Q 1534 2075 1959 2075 
z
" transform="scale(0.015625)"/>
       </defs>
       <use xlink:href="#DejaVuSans-78"/>
       <use xlink:href="#DejaVuSans-32" x="59.179688"/>
       <use xlink:href="#DejaVuSans-35" x="122.802734"/>
       <use xlink:href="#DejaVuSans-35" x="186.425781"/>
       <use xlink:href="#DejaVuSans-31" x="250.048828"/>
       <use xlink:href="#DejaVuSans-39" x="313.671875"/>
      </g>
     </g>
    </g>
    <g id="xtick_3">
     <g id="text_3">
      <!-- p256_mlkem512 -->
      <g style="fill: #262626" transform="translate(396.325156 415.277812) scale(0.14 -0.14)">
       <defs>
        <path id="DejaVuSans-70" d="M 1159 525 
L 1159 -1331 
L 581 -1331 
L 581 3500 
L 1159 3500 
L 1159 2969 
Q 1341 3281 1617 3432 
Q 1894 3584 2278 3584 
Q 2916 3584 3314 3078 
Q 3713 2572 3713 1747 
Q 3713 922 3314 415 
Q 2916 -91 2278 -91 
Q 1894 -91 1617 61 
Q 1341 213 1159 525 
z
M 3116 1747 
Q 3116 2381 2855 2742 
Q 2594 3103 2138 3103 
Q 1681 3103 1420 2742 
Q 1159 2381 1159 1747 
Q 1159 1113 1420 752 
Q 1681 391 2138 391 
Q 2594 391 2855 752 
Q 3116 1113 3116 1747 
z
" transform="scale(0.015625)"/>
        <path id="DejaVuSans-5f" d="M 3263 -1063 
L 3263 -1509 
L -63 -1509 
L -63 -1063 
L 3263 -1063 
z
" transform="scale(0.015625)"/>
        <path id="DejaVuSans-6d" d="M 3328 2828 
Q 3544 3216 3844 3400 
Q 4144 3584 4550 3584 
Q 5097 3584 5394 3201 
Q 5691 2819 5691 2113 
L 5691 0 
L 5113 0 
L 5113 2094 
Q 5113 2597 4934 2840 
Q 4756 3084 4391 3084 
Q 3944 3084 3684 2787 
Q 3425 2491 3425 1978 
L 3425 0 
L 2847 0 
L 2847 2094 
Q 2847 2600 2669 2842 
Q 2491 3084 2119 3084 
Q 1678 3084 1418 2786 
Q 1159 2488 1159 1978 
L 1159 0 
L 581 0 
L 581 3500 
L 1159 3500 
L 1159 2956 
Q 1356 3278 1631 3431 
Q 1906 3584 2284 3584 
Q 2666 3584 2933 3390 
Q 3200 3197 3328 2828 
z
" transform="scale(0.015625)"/>
        <path id="DejaVuSans-6c" d="M 603 4863 
L 1178 4863 
L 1178 0 
L 603 0 
L 603 4863 
z
" transform="scale(0.015625)"/>
        <path id="DejaVuSans-6b" d="M 581 4863 
L 1159 4863 
L 1159 1991 
L 2875 3500 
L 3609 3500 
L 1753 1863 
L 3688 0 
L 2938 0 
L 1159 1709 
L 1159 0 
L 581 0 
L 581 4863 
z
" transform="scale(0.015625)"/>
        <path id="DejaVuSans-65" d="M 3597 1894 
L 3597 1613 
L 953 1613 
Q 991 1019 1311 708 
Q 1631 397 2203 397 
Q 2534 397 2845 478 
Q 3156 559 3463 722 
L 3463 178 
Q 3153 47 2828 -22 
Q 2503 -91 2169 -91 
Q 1331 -91 842 396 
Q 353 884 353 1716 
Q 353 2575 817 3079 
Q 1281 3584 2069 3584 
Q 2775 3584 3186 3129 
Q 3597 2675 3597 1894 
z
M 3022 2063 
Q 3016 2534 2758 2815 
Q 2500 3097 2075 3097 
Q 1594 3097 1305 2825 
Q 1016 2553 972 2059 
L 3022 2063 
z
" transform="scale(0.015625)"/>
       </defs>
       <use xlink:href="#DejaVuSans-70"/>
       <use xlink:href="#DejaVuSans-32" x="63.476562"/>
       <use xlink:href="#DejaVuSans-35" x="127.099609"/>
       <use xlink:href="#DejaVuSans-36" x="190.722656"/>
       <use xlink:href="#DejaVuSans-5f" x="254.345703"/>
       <use xlink:href="#DejaVuSans-6d" x="304.345703"/>
       <use xlink:href="#DejaVuSans-6c" x="401.757812"/>
       <use xlink:href="#DejaVuSans-6b" x="429.541016"/>
       <use xlink:href="#DejaVuSans-65" x="483.826172"/>
       <use xlink:href="#DejaVuSans-6d" x="545.349609"/>
       <use xlink:href="#DejaVuSans-35" x="642.761719"/>
       <use xlink:href="#DejaVuSans-31" x="706.384766"/>
       <use xlink:href="#DejaVuSans-32" x="770.007812"/>
      </g>
     </g>
    </g>
    <g id="xtick_4">
     <g id="text_4">
      <!-- x25519_mlkem512 -->
      <g style="fill: #262626" transform="translate(546.262437 415.277812) scale(0.14 -0.14)">
       <use xlink:href="#DejaVuSans-78"/>
       <use xlink:href="#DejaVuSans-32" x="59.179688"/>
       <use xlink:href="#DejaVuSans-35" x="122.802734"/>
       <use xlink:href="#DejaVuSans-35" x="186.425781"/>
       <use xlink:href="#DejaVuSans-31" x="250.048828"/>
       <use xlink:href="#DejaVuSans-39" x="313.671875"/>
       <use xlink:href="#DejaVuSans-5f" x="377.294922"/>
       <use xlink:href="#DejaVuSans-6d" x="427.294922"/>
       <use xlink:href="#DejaVuSans-6c" x="524.707031"/>
       <use xlink:href="#DejaVuSans-6b" x="552.490234"/>
       <use xlink:href="#DejaVuSans-65" x="606.775391"/>
       <use xlink:href="#DejaVuSans-6d" x="668.298828"/>
       <use xlink:href="#DejaVuSans-35" x="765.710938"/>
       <use xlink:href="#DejaVuSans-31" x="829.333984"/>
       <use xlink:href="#DejaVuSans-32" x="892.957031"/>
      </g>
     </g>
    </g>
    <g id="xtick_5">
     <g id="text_5">
      <!-- mlkem512 -->
      <g style="fill: #262626" transform="translate(734.718312 415.277812) scale(0.14 -0.14)">
       <use xlink:href="#DejaVuSans-6d"/>
       <use xlink:href="#DejaVuSans-6c" x="97.412109"/>
       <use xlink:href="#DejaVuSans-6b" x="125.195312"/>
       <use xlink:href="#DejaVuSans-65" x="179.480469"/>
       <use xlink:href="#DejaVuSans-6d" x="241.003906"/>
       <use xlink:href="#DejaVuSans-35" x="338.416016"/>
       <use xlink:href="#DejaVuSans-31" x="402.039062"/>
       <use xlink:href="#DejaVuSans-32" x="465.662109"/>
      </g>
     </g>
    </g>
   </g>
   <g id="matplotlib.axis_2">
    <g id="ytick_1">
     <g id="line2d_1">
      <path d="M 58.32 386.068235 
L 851.04 386.068235 
" clip-path="url(#pd878c6500e)" style="fill: none; stroke: #cccccc; stroke-linecap: round"/>
     </g>
     <g id="text_6">
      <!-- 100 -->
      <g style="fill: #262626" transform="translate(27.82375 390.247376) scale(0.11 -0.11)">
       <defs>
        <path id="DejaVuSans-30" d="M 2034 4250 
Q 1547 4250 1301 3770 
Q 1056 3291 1056 2328 
Q 1056 1369 1301 889 
Q 1547 409 2034 409 
Q 2525 409 2770 889 
Q 3016 1369 3016 2328 
Q 3016 3291 2770 3770 
Q 2525 4250 2034 4250 
z
M 2034 4750 
Q 2819 4750 3233 4129 
Q 3647 3509 3647 2328 
Q 3647 1150 3233 529 
Q 2819 -91 2034 -91 
Q 1250 -91 836 529 
Q 422 1150 422 2328 
Q 422 3509 836 4129 
Q 1250 4750 2034 4750 
z
" transform="scale(0.015625)"/>
       </defs>
       <use xlink:href="#DejaVuSans-31"/>
       <use xlink:href="#DejaVuSans-30" x="63.623047"/>
       <use xlink:href="#DejaVuSans-30" x="127.246094"/>
      </g>
     </g>
    </g>
    <g id="ytick_2">
     <g id="line2d_2">
      <path d="M 58.32 331.302528 
L 851.04 331.302528 
" clip-path="url(#pd878c6500e)" style="fill: none; stroke: #cccccc; stroke-linecap: round"/>
     </g>
     <g id="text_7">
      <!-- 200 -->
      <g style="fill: #262626" transform="translate(27.82375 335.481669) scale(0.11 -0.11)">
       <use xlink:href="#DejaVuSans-32"/>
       <use xlink:href="#DejaVuSans-30" x="63.623047"/>
       <use xlink:href="#DejaVuSans-30" x="127.246094"/>
      </g>
     </g>
    </g>
    <g id="ytick_3">
     <g id="line2d_3">
      <path d="M 58.32 276.536821 
L 851.04 276.536821 
" clip-path="url(#pd878c6500e)" style="fill: none; stroke: #cccccc; stroke-linecap: round"/>
     </g>
     <g id="text_8">
      <!-- 300 -->
      <g style="fill: #262626" transform="translate(27.82375 280.715961) scale(0.11 -0.11)">
       <defs>
        <path id="DejaVuSans-33" d="M 2597 2516 
Q 3050 2419 3304 2112 
Q 3559 1806 3559 1356 
Q 3559 666 3084 287 
Q 2609 -91 1734 -91 
Q 1441 -91 1130 -33 
Q 819 25 488 141 
L 488 750 
Q 750 597 1062 519 
Q 1375 441 1716 441 
Q 2309 441 2620 675 
Q 2931 909 2931 1356 
Q 2931 1769 2642 2001 
Q 2353 2234 1838 2234 
L 1294 2234 
L 1294 2753 
L 1863 2753 
Q 2328 2753 2575 2939 
Q 2822 3125 2822 3475 
Q 2822 3834 2567 4026 
Q 2313 4219 1838 4219 
Q 1578 4219 1281 4162 
Q 984 4106 628 3988 
L 628 4550 
Q 988 4650 1302 4700 
Q 1616 4750 1894 4750 
Q 2613 4750 3031 4423 
Q 3450 4097 3450 3541 
Q 3450 3153 3228 2886 
Q 3006 2619 2597 2516 
z
" transform="scale(0.015625)"/>
       </defs>
       <use xlink:href="#DejaVuSans-33"/>
       <use xlink:href="#DejaVuSans-30" x="63.623047"/>
       <use xlink:href="#DejaVuSans-30" x="127.246094"/>
      </g>
     </g>
    </g>
    <g id="ytick_4">
     <g id="line2d_4">
      <path d="M 58.32 221.771114 
L 851.04 221.771114 
" clip-path="url(#pd878c6500e)" style="fill: none; stroke: #cccccc; stroke-linecap: round"/>
     </g>
     <g id="text_9">
      <!-- 400 -->
      <g style="fill: #262626" transform="translate(27.82375 225.950254) scale(0.11 -0.11)">
       <defs>
        <path id="DejaVuSans-34" d="M 2419 4116 
L 825 1625 
L 2419 1625 
L 2419 4116 
z
M 2253 4666 
L 3047 4666 
L 3047 1625 
L 3713 1625 
L 3713 1100 
L 3047 1100 
L 3047 0 
L 2419 0 
L 2419 1100 
L 313 1100 
L 313 1709 
L 2253 4666 
z
" transform="scale(0.015625)"/>
       </defs>
       <use xlink:href="#DejaVuSans-34"/>
       <use xlink:href="#DejaVuSans-30" x="63.623047"/>
       <use xlink:href="#DejaVuSans-30" x="127.246094"/>
      </g>
     </g>
    </g>
    <g id="ytick_5">
     <g id="line2d_5">
      <path d="M 58.32 167.005407 
L 851.04 167.005407 
" clip-path="url(#pd878c6500e)" style="fill: none; stroke: #cccccc; stroke-linecap: round"/>
     </g>
     <g id="text_10">
      <!-- 500 -->
      <g style="fill: #262626" transform="translate(27.82375 171.184547) scale(0.11 -0.11)">
       <use xlink:href="#DejaVuSans-35"/>
       <use xlink:href="#DejaVuSans-30" x="63.623047"/>
       <use xlink:href="#DejaVuSans-30" x="127.246094"/>
      </g>
     </g>
    </g>
    <g id="ytick_6">
     <g id="line2d_6">
      <path d="M 58.32 112.2397 
L 851.04 112.2397 
" clip-path="url(#pd878c6500e)" style="fill: none; stroke: #cccccc; stroke-linecap: round"/>
     </g>
     <g id="text_11">
      <!-- 600 -->
      <g style="fill: #262626" transform="translate(27.82375 116.41884) scale(0.11 -0.11)">
       <use xlink:href="#DejaVuSans-36"/>
       <use xlink:href="#DejaVuSans-30" x="63.623047"/>
       <use xlink:href="#DejaVuSans-30" x="127.246094"/>
      </g>
     </g>
    </g>
    <g id="ytick_7">
     <g id="line2d_7">
      <path d="M 58.32 57.473993 
L 851.04 57.473993 
" clip-path="url(#pd878c6500e)" style="fill: none; stroke: #cccccc; stroke-linecap: round"/>
     </g>
     <g id="text_12">
      <!-- 700 -->
      <g style="fill: #262626" transform="translate(27.82375 61.653133) scale(0.11 -0.11)">
       <defs>
        <path id="DejaVuSans-37" d="M 525 4666 
L 3525 4666 
L 3525 4397 
L 1831 0 
L 1172 0 
L 2766 4134 
L 525 4134 
L 525 4666 
z
" transform="scale(0.015625)"/>
       </defs>
       <use xlink:href="#DejaVuSans-37"/>
       <use xlink:href="#DejaVuSans-30" x="63.623047"/>
       <use xlink:href="#DejaVuSans-30" x="127.246094"/>
      </g>
     </g>
    </g>
    <g id="text_13">
     <!-- Handshake duration (ms) -->
     <g style="fill: #262626" transform="translate(21.328125 287.437813) rotate(-90) scale(0.12 -0.12)">
      <defs>
       <path id="DejaVuSans-48" d="M 628 4666 
L 1259 4666 
L 1259 2753 
L 3553 2753 
L 3553 4666 
L 4184 4666 
L 4184 0 
L 3553 0 
L 3553 2222 
L 1259 2222 
L 1259 0 
L 628 0 
L 628 4666 
z
" transform="scale(0.015625)"/>
       <path id="DejaVuSans-61" d="M 2194 1759 
Q 1497 1759 1228 1600 
Q 959 1441 959 1056 
Q 959 750 1161 570 
Q 1363 391 1709 391 
Q 2188 391 2477 730 
Q 2766 1069 2766 1631 
L 2766 1759 
L 2194 1759 
z
M 3341 1997 
L 3341 0 
L 2766 0 
L 2766 531 
Q 2569 213 2275 61 
Q 1981 -91 1556 -91 
Q 1019 -91 701 211 
Q 384 513 384 1019 
Q 384 1609 779 1909 
Q 1175 2209 1959 2209 
L 2766 2209 
L 2766 2266 
Q 2766 2663 2505 2880 
Q 2244 3097 1772 3097 
Q 1472 3097 1187 3025 
Q 903 2953 641 2809 
L 641 3341 
Q 956 3463 1253 3523 
Q 1550 3584 1831 3584 
Q 2591 3584 2966 3190 
Q 3341 2797 3341 1997 
z
" transform="scale(0.015625)"/>
       <path id="DejaVuSans-6e" d="M 3513 2113 
L 3513 0 
L 2938 0 
L 2938 2094 
Q 2938 2591 2744 2837 
Q 2550 3084 2163 3084 
Q 1697 3084 1428 2787 
Q 1159 2491 1159 1978 
L 1159 0 
L 581 0 
L 581 3500 
L 1159 3500 
L 1159 2956 
Q 1366 3272 1645 3428 
Q 1925 3584 2291 3584 
Q 2894 3584 3203 3211 
Q 3513 2838 3513 2113 
z
" transform="scale(0.015625)"/>
       <path id="DejaVuSans-64" d="M 2906 2969 
L 2906 4863 
L 3481 4863 
L 3481 0 
L 2906 0 
L 2906 525 
Q 2725 213 2448 61 
Q 2172 -91 1784 -91 
Q 1150 -91 751 415 
Q 353 922 353 1747 
Q 353 2572 751 3078 
Q 1150 3584 1784 3584 
Q 2172 3584 2448 3432 
Q 2725 3281 2906 2969 
z
M 947 1747 
Q 947 1113 1208 752 
Q 1469 391 1925 391 
Q 2381 391 2643 752 
Q 2906 1113 2906 1747 
Q 2906 2381 2643 2742 
Q 2381 3103 1925 3103 
Q 1469 3103 1208 2742 
Q 947 2381 947 1747 
z
" transform="scale(0.015625)"/>
       <path id="DejaVuSans-73" d="M 2834 3397 
L 2834 2853 
Q 2591 2978 2328 3040 
Q 2066 3103 1784 3103 
Q 1356 3103 1142 2972 
Q 928 2841 928 2578 
Q 928 2378 1081 2264 
Q 1234 2150 1697 2047 
L 1894 2003 
Q 2506 1872 2764 1633 
Q 3022 1394 3022 966 
Q 3022 478 2636 193 
Q 2250 -91 1575 -91 
Q 1294 -91 989 -36 
Q 684 19 347 128 
L 347 722 
Q 666 556 975 473 
Q 1284 391 1588 391 
Q 1994 391 2212 530 
Q 2431 669 2431 922 
Q 2431 1156 2273 1281 
Q 2116 1406 1581 1522 
L 1381 1569 
Q 847 1681 609 1914 
Q 372 2147 372 2553 
Q 372 3047 722 3315 
Q 1072 3584 1716 3584 
Q 2034 3584 2315 3537 
Q 2597 3491 2834 3397 
z
" transform="scale(0.015625)"/>
       <path id="DejaVuSans-68" d="M 3513 2113 
L 3513 0 
L 2938 0 
L 2938 2094 
Q 2938 2591 2744 2837 
Q 2550 3084 2163 3084 
Q 1697 3084 1428 2787 
Q 1159 2491 1159 1978 
L 1159 0 
L 581 0 
L 581 4863 
L 1159 4863 
L 1159 2956 
Q 1366 3272 1645 3428 
Q 1925 3584 2291 3584 
Q 2894 3584 3203 3211 
Q 3513 2838 3513 2113 
z
" transform="scale(0.015625)"/>
       <path id="DejaVuSans-20" transform="scale(0.015625)"/>
       <path id="DejaVuSans-75" d="M 544 1381 
L 544 3500 
L 1119 3500 
L 1119 1403 
Q 1119 906 1312 657 
Q 1506 409 1894 409 
Q 2359 409 2629 706 
Q 2900 1003 2900 1516 
L 2900 3500 
L 3475 3500 
L 3475 0 
L 2900 0 
L 2900 538 
Q 2691 219 2414 64 
Q 2138 -91 1772 -91 
Q 1169 -91 856 284 
Q 544 659 544 1381 
z
M 1991 3584 
L 1991 3584 
z
" transform="scale(0.015625)"/>
       <path id="DejaVuSans-72" d="M 2631 2963 
Q 2534 3019 2420 3045 
Q 2306 3072 2169 3072 
Q 1681 3072 1420 2755 
Q 1159 2438 1159 1844 
L 1159 0 
L 581 0 
L 581 3500 
L 1159 3500 
L 1159 2956 
Q 1341 3275 1631 3429 
Q 1922 3584 2338 3584 
Q 2397 3584 2469 3576 
Q 2541 3569 2628 3553 
L 2631 2963 
z
" transform="scale(0.015625)"/>
       <path id="DejaVuSans-74" d="M 1172 4494 
L 1172 3500 
L 2356 3500 
L 2356 3053 
L 1172 3053 
L 1172 1153 
Q 1172 725 1289 603 
Q 1406 481 1766 481 
L 2356 481 
L 2356 0 
L 1766 0 
Q 1100 0 847 248 
Q 594 497 594 1153 
L 594 3053 
L 172 3053 
L 172 3500 
L 594 3500 
L 594 4494 
L 1172 4494 
z
" transform="scale(0.015625)"/>
       <path id="DejaVuSans-69" d="M 603 3500 
L 1178 3500 
L 1178 0 
L 603 0 
L 603 3500 
z
M 603 4863 
L 1178 4863 
L 1178 4134 
L 603 4134 
L 603 4863 
z
" transform="scale(0.015625)"/>
       <path id="DejaVuSans-6f" d="M 1959 3097 
Q 1497 3097 1228 2736 
Q 959 2375 959 1747 
Q 959 1119 1226 758 
Q 1494 397 1959 397 
Q 2419 397 2687 759 
Q 2956 1122 2956 1747 
Q 2956 2369 2687 2733 
Q 2419 3097 1959 3097 
z
M 1959 3584 
Q 2709 3584 3137 3096 
Q 3566 2609 3566 1747 
Q 3566 888 3137 398 
Q 2709 -91 1959 -91 
Q 1206 -91 779 398 
Q 353 888 353 1747 
Q 353 2609 779 3096 
Q 1206 3584 1959 3584 
z
" transform="scale(0.015625)"/>
       <path id="DejaVuSans-28" d="M 1984 4856 
Q 1566 4138 1362 3434 
Q 1159 2731 1159 2009 
Q 1159 1288 1364 580 
Q 1569 -128 1984 -844 
L 1484 -844 
Q 1016 -109 783 600 
Q 550 1309 550 2009 
Q 550 2706 781 3412 
Q 1013 4119 1484 4856 
L 1984 4856 
z
" transform="scale(0.015625)"/>
       <path id="DejaVuSans-29" d="M 513 4856 
L 1013 4856 
Q 1481 4119 1714 3412 
Q 1947 2706 1947 2009 
Q 1947 1309 1714 600 
Q 1481 -109 1013 -844 
L 513 -844 
Q 928 -128 1133 580 
Q 1338 1288 1338 2009 
Q 1338 2731 1133 3434 
Q 928 4138 513 4856 
z
" transform="scale(0.015625)"/>
      </defs>
      <use xlink:href="#DejaVuSans-48"/>
      <use xlink:href="#DejaVuSans-61" x="75.195312"/>
      <use xlink:href="#DejaVuSans-6e" x="136.474609"/>
      <use xlink:href="#DejaVuSans-64" x="199.853516"/>
      <use xlink:href="#DejaVuSans-73" x="263.330078"/>
      <use xlink:href="#DejaVuSans-68" x="315.429688"/>
      <use xlink:href="#DejaVuSans-61" x="378.808594"/>
      <use xlink:href="#DejaVuSans-6b" x="440.087891"/>
      <use xlink:href="#DejaVuSans-65" x="494.373047"/>
      <use xlink:href="#DejaVuSans-20" x="555.896484"/>
      <use xlink:href="#DejaVuSans-64" x="587.683594"/>
      <use xlink:href="#DejaVuSans-75" x="651.160156"/>
      <use xlink:href="#DejaVuSans-72" x="714.539062"/>
      <use xlink:href="#DejaVuSans-61" x="755.652344"/>
      <use xlink:href="#DejaVuSans-74" x="816.931641"/>
      <use xlink:href="#DejaVuSans-69" x="856.140625"/>
      <use xlink:href="#DejaVuSans-6f" x="883.923828"/>
      <use xlink:href="#DejaVuSans-6e" x="945.105469"/>
      <use xlink:href="#DejaVuSans-20" x="1008.484375"/>
      <use xlink:href="#DejaVuSans-28" x="1040.271484"/>
      <use xlink:href="#DejaVuSans-6d" x="1079.285156"/>
      <use xlink:href="#DejaVuSans-73" x="1176.697266"/>
      <use xlink:href="#DejaVuSans-29" x="1228.796875"/>
     </g>
    </g>
   </g>
   <g id="PolyCollection_1">
    <defs>
     <path id="m3708dd4419" d="M 141.721511 -56.872938 
L 133.462489 -56.872938 
L 129.754121 -58.675801 
L 123.932654 -60.478665 
L 115.73679 -62.281528 
L 105.489799 -64.084391 
L 94.307754 -65.887255 
L 84.024627 -67.690118 
L 76.749551 -69.492981 
L 74.1744 -71.295845 
L 76.936323 -73.098708 
L 84.362245 -74.901571 
L 94.734883 -76.704435 
L 105.936989 -78.507298 
L 116.144329 -80.310161 
L 124.262778 -82.113025 
L 129.994206 -83.915888 
L 133.620047 -85.718751 
L 135.687624 -87.521615 
L 136.754352 -89.324478 
L 137.253245 -91.127341 
L 137.464255 -92.930205 
L 137.543239 -94.733068 
L 137.566015 -96.535931 
L 137.564922 -98.338795 
L 137.55219 -100.141658 
L 137.532561 -101.944521 
L 137.509249 -103.747385 
L 137.486156 -105.550248 
L 137.467911 -107.353111 
L 137.458707 -109.155975 
L 137.46082 -110.958838 
L 137.473721 -112.761701 
L 137.494293 -114.564565 
L 137.518052 -116.367428 
L 137.540725 -118.170291 
L 137.559427 -119.973155 
L 137.573042 -121.776018 
L 137.581891 -123.578881 
L 137.587061 -125.381745 
L 137.58979 -127.184608 
L 137.591094 -128.987471 
L 137.591659 -130.790335 
L 137.591883 -132.593198 
L 137.591963 -134.396061 
L 137.591989 -136.198925 
L 137.591997 -138.001788 
L 137.591999 -139.804651 
L 137.592 -141.607515 
L 137.592 -143.410378 
L 137.592 -145.213241 
L 137.592 -147.016105 
L 137.592 -148.818968 
L 137.592 -150.621831 
L 137.592 -152.424695 
L 137.592 -154.227558 
L 137.592 -156.030421 
L 137.592 -157.833285 
L 137.592 -159.636148 
L 137.592 -161.439011 
L 137.592 -163.241875 
L 137.592 -165.044738 
L 137.592 -166.847601 
L 137.592 -168.650465 
L 137.592 -170.453328 
L 137.592 -172.256191 
L 137.592 -174.059055 
L 137.592 -175.861918 
L 137.592 -177.664781 
L 137.592 -179.467645 
L 137.592 -181.270508 
L 137.592 -183.073371 
L 137.592 -184.876235 
L 137.592 -186.679098 
L 137.591999 -188.481961 
L 137.591996 -190.284825 
L 137.591984 -192.087688 
L 137.591939 -193.890551 
L 137.591788 -195.693415 
L 137.591318 -197.496278 
L 137.589987 -199.299141 
L 137.586543 -201.102005 
L 137.578415 -202.904868 
L 137.560937 -204.707731 
L 137.526751 -206.510595 
L 137.466084 -208.313458 
L 137.368735 -210.116321 
L 137.22822 -211.919185 
L 137.047278 -213.722048 
L 136.842346 -215.524911 
L 136.643748 -217.327775 
L 136.48949 -219.130638 
L 136.413721 -220.933501 
L 136.434493 -222.736365 
L 136.54679 -224.539228 
L 136.72449 -226.342091 
L 136.930217 -228.144955 
L 137.128019 -229.947818 
L 137.293054 -231.750681 
L 137.415007 -233.553545 
L 137.495718 -235.356408 
L 137.688282 -235.356408 
L 137.688282 -235.356408 
L 137.768993 -233.553545 
L 137.890946 -231.750681 
L 138.055981 -229.947818 
L 138.253783 -228.144955 
L 138.45951 -226.342091 
L 138.63721 -224.539228 
L 138.749507 -222.736365 
L 138.770279 -220.933501 
L 138.69451 -219.130638 
L 138.540252 -217.327775 
L 138.341654 -215.524911 
L 138.136722 -213.722048 
L 137.95578 -211.919185 
L 137.815265 -210.116321 
L 137.717916 -208.313458 
L 137.657249 -206.510595 
L 137.623063 -204.707731 
L 137.605585 -202.904868 
L 137.597457 -201.102005 
L 137.594013 -199.299141 
L 137.592682 -197.496278 
L 137.592212 -195.693415 
L 137.592061 -193.890551 
L 137.592016 -192.087688 
L 137.592004 -190.284825 
L 137.592001 -188.481961 
L 137.592 -186.679098 
L 137.592 -184.876235 
L 137.592 -183.073371 
L 137.592 -181.270508 
L 137.592 -179.467645 
L 137.592 -177.664781 
L 137.592 -175.861918 
L 137.592 -174.059055 
L 137.592 -172.256191 
L 137.592 -170.453328 
L 137.592 -168.650465 
L 137.592 -166.847601 
L 137.592 -165.044738 
L 137.592 -163.241875 
L 137.592 -161.439011 
L 137.592 -159.636148 
L 137.592 -157.833285 
L 137.592 -156.030421 
L 137.592 -154.227558 
L 137.592 -152.424695 
L 137.592 -150.621831 
L 137.592 -148.818968 
L 137.592 -147.016105 
L 137.592 -145.213241 
L 137.592 -143.410378 
L 137.592 -141.607515 
L 137.592001 -139.804651 
L 137.592003 -138.001788 
L 137.592011 -136.198925 
L 137.592037 -134.396061 
L 137.592117 -132.593198 
L 137.592341 -130.790335 
L 137.592906 -128.987471 
L 137.59421 -127.184608 
L 137.596939 -125.381745 
L 137.602109 -123.578881 
L 137.610958 -121.776018 
L 137.624573 -119.973155 
L 137.643275 -118.170291 
L 137.665948 -116.367428 
L 137.689707 -114.564565 
L 137.710279 -112.761701 
L 137.72318 -110.958838 
L 137.725293 -109.155975 
L 137.716089 -107.353111 
L 137.697844 -105.550248 
L 137.674751 -103.747385 
L 137.651439 -101.944521 
L 137.63181 -100.141658 
L 137.619078 -98.338795 
L 137.617985 -96.535931 
L 137.640761 -94.733068 
L 137.719745 -92.930205 
L 137.930755 -91.127341 
L 138.429648 -89.324478 
L 139.496376 -87.521615 
L 141.563953 -85.718751 
L 145.189794 -83.915888 
L 150.921222 -82.113025 
L 159.039671 -80.310161 
L 169.247011 -78.507298 
L 180.449117 -76.704435 
L 190.821755 -74.901571 
L 198.247677 -73.098708 
L 201.0096 -71.295845 
L 198.434449 -69.492981 
L 191.159373 -67.690118 
L 180.876246 -65.887255 
L 169.694201 -64.084391 
L 159.44721 -62.281528 
L 151.251346 -60.478665 
L 145.429879 -58.675801 
L 141.721511 -56.872938 
z
" style="stroke: #595959; stroke-width: 1.25"/>
    </defs>
    <g clip-path="url(#pd878c6500e)">
     <use xlink:href="#m3708dd4419" x="0" y="432" style="fill: #72b6a1; stroke: #595959; stroke-width: 1.25"/>
    </g>
   </g>
   <g id="PolyCollection_2">
    <defs>
     <path id="m76a19252d3" d="M 299.880995 -58.077462 
L 292.391005 -58.077462 
L 288.4241 -59.867664 
L 281.849533 -61.657866 
L 272.33064 -63.448068 
L 260.462649 -65.238269 
L 248.066922 -67.028471 
L 237.902168 -68.818673 
L 232.7184 -70.608875 
L 234.062108 -72.399077 
L 241.53307 -74.189278 
L 252.976419 -75.97948 
L 265.485117 -77.769682 
L 276.580575 -79.559884 
L 284.928523 -81.350086 
L 290.366654 -83.140287 
L 293.468588 -84.930489 
L 295.028414 -86.720691 
L 295.722897 -88.510893 
L 295.997309 -90.301095 
L 296.093222 -92.091296 
L 296.121637 -93.881498 
L 296.125939 -95.6717 
L 296.120016 -97.461902 
L 296.106933 -99.252104 
L 296.087134 -101.042305 
L 296.06207 -102.832507 
L 296.035634 -104.622709 
L 296.013771 -106.412911 
L 296.002473 -108.203113 
L 296.005151 -109.993314 
L 296.020979 -111.783516 
L 296.045303 -113.573718 
L 296.071847 -115.36392 
L 296.095295 -117.154122 
L 296.112832 -118.944323 
L 296.124172 -120.734525 
L 296.130583 -122.524727 
L 296.133774 -124.314929 
L 296.13518 -126.105131 
L 296.135729 -127.895332 
L 296.13592 -129.685534 
L 296.135979 -131.475736 
L 296.135995 -133.265938 
L 296.135999 -135.056139 
L 296.136 -136.846341 
L 296.136 -138.636543 
L 296.136 -140.426745 
L 296.136 -142.216947 
L 296.136 -144.007148 
L 296.136 -145.79735 
L 296.136 -147.587552 
L 296.136 -149.377754 
L 296.136 -151.167956 
L 296.136 -152.958157 
L 296.136 -154.748359 
L 296.136 -156.538561 
L 296.136 -158.328763 
L 296.136 -160.118965 
L 296.136 -161.909166 
L 296.136 -163.699368 
L 296.136 -165.48957 
L 296.136 -167.279772 
L 296.136 -169.069974 
L 296.136 -170.860175 
L 296.136 -172.650377 
L 296.136 -174.440579 
L 296.136 -176.230781 
L 296.136 -178.020983 
L 296.136 -179.811184 
L 296.136 -181.601386 
L 296.136 -183.391588 
L 296.136 -185.18179 
L 296.136 -186.971992 
L 296.136 -188.762193 
L 296.136 -190.552395 
L 296.136 -192.342597 
L 296.135998 -194.132799 
L 296.13599 -195.923001 
L 296.135954 -197.713202 
L 296.135816 -199.503404 
L 296.135333 -201.293606 
L 296.133824 -203.083808 
L 296.129615 -204.87401 
L 296.119153 -206.664211 
L 296.096012 -208.454413 
L 296.050602 -210.244615 
L 295.971873 -212.034817 
L 295.852055 -213.825018 
L 295.693706 -215.61522 
L 295.515542 -217.405422 
L 295.351953 -219.195624 
L 295.243317 -220.985826 
L 295.22005 -222.776027 
L 295.288868 -224.566229 
L 295.429663 -226.356431 
L 295.604971 -228.146633 
L 295.775985 -229.936835 
L 295.915882 -231.727036 
L 296.014622 -233.517238 
L 296.075636 -235.30744 
L 296.196364 -235.30744 
L 296.196364 -235.30744 
L 296.257378 -233.517238 
L 296.356118 -231.727036 
L 296.496015 -229.936835 
L 296.667029 -228.146633 
L 296.842337 -226.356431 
L 296.983132 -224.566229 
L 297.05195 -222.776027 
L 297.028683 -220.985826 
L 296.920047 -219.195624 
L 296.756458 -217.405422 
L 296.578294 -215.61522 
L 296.419945 -213.825018 
L 296.300127 -212.034817 
L 296.221398 -210.244615 
L 296.175988 -208.454413 
L 296.152847 -206.664211 
L 296.142385 -204.87401 
L 296.138176 -203.083808 
L 296.136667 -201.293606 
L 296.136184 -199.503404 
L 296.136046 -197.713202 
L 296.13601 -195.923001 
L 296.136002 -194.132799 
L 296.136 -192.342597 
L 296.136 -190.552395 
L 296.136 -188.762193 
L 296.136 -186.971992 
L 296.136 -185.18179 
L 296.136 -183.391588 
L 296.136 -181.601386 
L 296.136 -179.811184 
L 296.136 -178.020983 
L 296.136 -176.230781 
L 296.136 -174.440579 
L 296.136 -172.650377 
L 296.136 -170.860175 
L 296.136 -169.069974 
L 296.136 -167.279772 
L 296.136 -165.48957 
L 296.136 -163.699368 
L 296.136 -161.909166 
L 296.136 -160.118965 
L 296.136 -158.328763 
L 296.136 -156.538561 
L 296.136 -154.748359 
L 296.136 -152.958157 
L 296.136 -151.167956 
L 296.136 -149.377754 
L 296.136 -147.587552 
L 296.136 -145.79735 
L 296.136 -144.007148 
L 296.136 -142.216947 
L 296.136 -140.426745 
L 296.136 -138.636543 
L 296.136 -136.846341 
L 296.136001 -135.056139 
L 296.136005 -133.265938 
L 296.136021 -131.475736 
L 296.13608 -129.685534 
L 296.136271 -127.895332 
L 296.13682 -126.105131 
L 296.138226 -124.314929 
L 296.141417 -122.524727 
L 296.147828 -120.734525 
L 296.159168 -118.944323 
L 296.176705 -117.154122 
L 296.200153 -115.36392 
L 296.226697 -113.573718 
L 296.251021 -111.783516 
L 296.266849 -109.993314 
L 296.269527 -108.203113 
L 296.258229 -106.412911 
L 296.236366 -104.622709 
L 296.20993 -102.832507 
L 296.184866 -101.042305 
L 296.165067 -99.252104 
L 296.151984 -97.461902 
L 296.146061 -95.6717 
L 296.150363 -93.881498 
L 296.178778 -92.091296 
L 296.274691 -90.301095 
L 296.549103 -88.510893 
L 297.243586 -86.720691 
L 298.803412 -84.930489 
L 301.905346 -83.140287 
L 307.343477 -81.350086 
L 315.691425 -79.559884 
L 326.786883 -77.769682 
L 339.295581 -75.97948 
L 350.73893 -74.189278 
L 358.209892 -72.399077 
L 359.5536 -70.608875 
L 354.369832 -68.818673 
L 344.205078 -67.028471 
L 331.809351 -65.238269 
L 319.94136 -63.448068 
L 310.422467 -61.657866 
L 303.8479 -59.867664 
L 299.880995 -58.077462 
z
" style="stroke: #595959; stroke-width: 1.25"/>
    </defs>
    <g clip-path="url(#pd878c6500e)">
     <use xlink:href="#m76a19252d3" x="0" y="432" style="fill: #e99675; stroke: #595959; stroke-width: 1.25"/>
    </g>
   </g>
   <g id="PolyCollection_3">
    <defs>
     <path id="m5ab2311e8f" d="M 458.067918 -53.566364 
L 451.292082 -53.566364 
L 448.230876 -56.349397 
L 443.354396 -59.13243 
L 436.318939 -61.915463 
L 427.185488 -64.698496 
L 416.636419 -67.481529 
L 406.027223 -70.264562 
L 397.168999 -73.047595 
L 391.851077 -75.830628 
L 391.2624 -78.613662 
L 395.562522 -81.396695 
L 403.811975 -84.179728 
L 414.303091 -86.962761 
L 425.133498 -89.745794 
L 434.75914 -92.528827 
L 442.310115 -95.31186 
L 447.604255 -98.094893 
L 450.943411 -100.877926 
L 452.842827 -103.66096 
L 453.815607 -106.443993 
L 454.260716 -109.227026 
L 454.439983 -112.010059 
L 454.503403 -114.793092 
L 454.526867 -117.576125 
L 454.543481 -120.359158 
L 454.563992 -123.142191 
L 454.588666 -125.925224 
L 454.61399 -128.708258 
L 454.636331 -131.491291 
L 454.653579 -134.274324 
L 454.665385 -137.057357 
L 454.672609 -139.84039 
L 454.676583 -142.623423 
L 454.678556 -145.406456 
L 454.679442 -148.189489 
L 454.679803 -150.972522 
L 454.679936 -153.755555 
L 454.679981 -156.538589 
L 454.679995 -159.321622 
L 454.679999 -162.104655 
L 454.68 -164.887688 
L 454.68 -167.670721 
L 454.68 -170.453754 
L 454.68 -173.236787 
L 454.68 -176.01982 
L 454.68 -178.802853 
L 454.68 -181.585887 
L 454.68 -184.36892 
L 454.68 -187.151953 
L 454.68 -189.934986 
L 454.68 -192.718019 
L 454.68 -195.501052 
L 454.68 -198.284085 
L 454.68 -201.067118 
L 454.68 -203.850151 
L 454.68 -206.633184 
L 454.68 -209.416218 
L 454.68 -212.199251 
L 454.68 -214.982284 
L 454.68 -217.765317 
L 454.68 -220.54835 
L 454.68 -223.331383 
L 454.68 -226.114416 
L 454.68 -228.897449 
L 454.68 -231.680482 
L 454.68 -234.463516 
L 454.68 -237.246549 
L 454.68 -240.029582 
L 454.68 -242.812615 
L 454.68 -245.595648 
L 454.68 -248.378681 
L 454.68 -251.161714 
L 454.679999 -253.944747 
L 454.679998 -256.72778 
L 454.67999 -259.510814 
L 454.679961 -262.293847 
L 454.679862 -265.07688 
L 454.679555 -267.859913 
L 454.678677 -270.642946 
L 454.676382 -273.425979 
L 454.670887 -276.209012 
L 454.658849 -278.992045 
L 454.634735 -281.775078 
L 454.590627 -284.558111 
L 454.517105 -287.341145 
L 454.405794 -290.124178 
L 454.253535 -292.907211 
L 454.067027 -295.690244 
L 453.865655 -298.473277 
L 453.680047 -301.25631 
L 453.545281 -304.039343 
L 453.490377 -306.822376 
L 453.528232 -309.605409 
L 453.650717 -312.388443 
L 453.831472 -315.171476 
L 454.03511 -317.954509 
L 454.228448 -320.737542 
L 454.388897 -323.520575 
L 454.507328 -326.303608 
L 454.585819 -329.086641 
L 454.774181 -329.086641 
L 454.774181 -329.086641 
L 454.852672 -326.303608 
L 454.971103 -323.520575 
L 455.131552 -320.737542 
L 455.32489 -317.954509 
L 455.528528 -315.171476 
L 455.709283 -312.388443 
L 455.831768 -309.605409 
L 455.869623 -306.822376 
L 455.814719 -304.039343 
L 455.679953 -301.25631 
L 455.494345 -298.473277 
L 455.292973 -295.690244 
L 455.106465 -292.907211 
L 454.954206 -290.124178 
L 454.842895 -287.341145 
L 454.769373 -284.558111 
L 454.725265 -281.775078 
L 454.701151 -278.992045 
L 454.689113 -276.209012 
L 454.683618 -273.425979 
L 454.681323 -270.642946 
L 454.680445 -267.859913 
L 454.680138 -265.07688 
L 454.680039 -262.293847 
L 454.68001 -259.510814 
L 454.680002 -256.72778 
L 454.680001 -253.944747 
L 454.68 -251.161714 
L 454.68 -248.378681 
L 454.68 -245.595648 
L 454.68 -242.812615 
L 454.68 -240.029582 
L 454.68 -237.246549 
L 454.68 -234.463516 
L 454.68 -231.680482 
L 454.68 -228.897449 
L 454.68 -226.114416 
L 454.68 -223.331383 
L 454.68 -220.54835 
L 454.68 -217.765317 
L 454.68 -214.982284 
L 454.68 -212.199251 
L 454.68 -209.416218 
L 454.68 -206.633184 
L 454.68 -203.850151 
L 454.68 -201.067118 
L 454.68 -198.284085 
L 454.68 -195.501052 
L 454.68 -192.718019 
L 454.68 -189.934986 
L 454.68 -187.151953 
L 454.68 -184.36892 
L 454.68 -181.585887 
L 454.68 -178.802853 
L 454.68 -176.01982 
L 454.68 -173.236787 
L 454.68 -170.453754 
L 454.68 -167.670721 
L 454.68 -164.887688 
L 454.680001 -162.104655 
L 454.680005 -159.321622 
L 454.680019 -156.538589 
L 454.680064 -153.755555 
L 454.680197 -150.972522 
L 454.680558 -148.189489 
L 454.681444 -145.406456 
L 454.683417 -142.623423 
L 454.687391 -139.84039 
L 454.694615 -137.057357 
L 454.706421 -134.274324 
L 454.723669 -131.491291 
L 454.74601 -128.708258 
L 454.771334 -125.925224 
L 454.796008 -123.142191 
L 454.816519 -120.359158 
L 454.833133 -117.576125 
L 454.856597 -114.793092 
L 454.920017 -112.010059 
L 455.099284 -109.227026 
L 455.544393 -106.443993 
L 456.517173 -103.66096 
L 458.416589 -100.877926 
L 461.755745 -98.094893 
L 467.049885 -95.31186 
L 474.60086 -92.528827 
L 484.226502 -89.745794 
L 495.056909 -86.962761 
L 505.548025 -84.179728 
L 513.797478 -81.396695 
L 518.0976 -78.613662 
L 517.508923 -75.830628 
L 512.191001 -73.047595 
L 503.332777 -70.264562 
L 492.723581 -67.481529 
L 482.174512 -64.698496 
L 473.041061 -61.915463 
L 466.005604 -59.13243 
L 461.129124 -56.349397 
L 458.067918 -53.566364 
z
" style="stroke: #595959; stroke-width: 1.25"/>
    </defs>
    <g clip-path="url(#pd878c6500e)">
     <use xlink:href="#m5ab2311e8f" x="0" y="432" style="fill: #95a3c3; stroke: #595959; stroke-width: 1.25"/>
    </g>
   </g>
   <g id="PolyCollection_4">
    <defs>
     <path id="m13b66d1a28" d="M 618.469847 -55.10498 
L 607.978153 -55.10498 
L 599.814281 -58.446298 
L 585.717032 -61.787615 
L 567.941835 -65.128933 
L 553.401125 -68.47025 
L 549.8064 -71.811568 
L 559.290609 -75.152885 
L 576.43854 -78.494203 
L 593.109912 -81.83552 
L 604.410506 -85.176838 
L 610.130182 -88.518155 
L 612.352092 -91.859472 
L 613.019159 -95.20079 
L 613.163584 -98.542107 
L 613.165018 -101.883425 
L 613.131809 -105.224742 
L 613.100063 -108.56606 
L 613.090636 -111.907377 
L 613.109717 -115.248695 
L 613.146038 -118.590012 
L 613.181662 -121.93133 
L 613.205697 -125.272647 
L 613.217701 -128.613964 
L 613.222274 -131.955282 
L 613.223624 -135.296599 
L 613.223935 -138.637917 
L 613.223991 -141.979234 
L 613.223999 -145.320552 
L 613.224 -148.661869 
L 613.224 -152.003187 
L 613.224 -155.344504 
L 613.224 -158.685822 
L 613.224 -162.027139 
L 613.224 -165.368457 
L 613.224 -168.709774 
L 613.224 -172.051091 
L 613.224 -175.392409 
L 613.224 -178.733726 
L 613.224 -182.075044 
L 613.223995 -185.416361 
L 613.223955 -188.757679 
L 613.223677 -192.098996 
L 613.222144 -195.440314 
L 613.215386 -198.781631 
L 613.191727 -202.122949 
L 613.12633 -205.464266 
L 612.985101 -208.805583 
L 612.751517 -212.146901 
L 612.468194 -215.488218 
L 612.245959 -218.829536 
L 612.200133 -222.170853 
L 612.356978 -225.512171 
L 612.630223 -228.853488 
L 612.895243 -232.194806 
L 613.076911 -235.536123 
L 613.170852 -238.877441 
L 613.208502 -242.218758 
L 613.220356 -245.560075 
L 613.22331 -248.901393 
L 613.223895 -252.24271 
L 613.223987 -255.584028 
L 613.223999 -258.925345 
L 613.224 -262.266663 
L 613.224 -265.60798 
L 613.224 -268.949298 
L 613.224 -272.290615 
L 613.224 -275.631933 
L 613.224 -278.97325 
L 613.224 -282.314568 
L 613.224 -285.655885 
L 613.224 -288.997202 
L 613.224 -292.33852 
L 613.224 -295.679837 
L 613.224 -299.021155 
L 613.224 -302.362472 
L 613.224 -305.70379 
L 613.224 -309.045107 
L 613.224 -312.386425 
L 613.224 -315.727742 
L 613.224 -319.06906 
L 613.224 -322.410377 
L 613.224 -325.751694 
L 613.224 -329.093012 
L 613.224 -332.434329 
L 613.224 -335.775647 
L 613.223998 -339.116964 
L 613.223981 -342.458282 
L 613.223873 -345.799599 
L 613.223327 -349.140917 
L 613.221159 -352.482234 
L 613.214458 -355.823552 
L 613.198486 -359.164869 
L 613.16969 -362.506186 
L 613.131973 -365.847504 
L 613.099863 -369.188821 
L 613.090701 -372.530139 
L 613.110054 -375.871456 
L 613.146461 -379.212774 
L 613.181997 -382.554091 
L 613.205887 -385.895409 
L 613.242113 -385.895409 
L 613.242113 -385.895409 
L 613.266003 -382.554091 
L 613.301539 -379.212774 
L 613.337946 -375.871456 
L 613.357299 -372.530139 
L 613.348137 -369.188821 
L 613.316027 -365.847504 
L 613.27831 -362.506186 
L 613.249514 -359.164869 
L 613.233542 -355.823552 
L 613.226841 -352.482234 
L 613.224673 -349.140917 
L 613.224127 -345.799599 
L 613.224019 -342.458282 
L 613.224002 -339.116964 
L 613.224 -335.775647 
L 613.224 -332.434329 
L 613.224 -329.093012 
L 613.224 -325.751694 
L 613.224 -322.410377 
L 613.224 -319.06906 
L 613.224 -315.727742 
L 613.224 -312.386425 
L 613.224 -309.045107 
L 613.224 -305.70379 
L 613.224 -302.362472 
L 613.224 -299.021155 
L 613.224 -295.679837 
L 613.224 -292.33852 
L 613.224 -288.997202 
L 613.224 -285.655885 
L 613.224 -282.314568 
L 613.224 -278.97325 
L 613.224 -275.631933 
L 613.224 -272.290615 
L 613.224 -268.949298 
L 613.224 -265.60798 
L 613.224 -262.266663 
L 613.224001 -258.925345 
L 613.224013 -255.584028 
L 613.224105 -252.24271 
L 613.22469 -248.901393 
L 613.227644 -245.560075 
L 613.239498 -242.218758 
L 613.277148 -238.877441 
L 613.371089 -235.536123 
L 613.552757 -232.194806 
L 613.817777 -228.853488 
L 614.091022 -225.512171 
L 614.247867 -222.170853 
L 614.202041 -218.829536 
L 613.979806 -215.488218 
L 613.696483 -212.146901 
L 613.462899 -208.805583 
L 613.32167 -205.464266 
L 613.256273 -202.122949 
L 613.232614 -198.781631 
L 613.225856 -195.440314 
L 613.224323 -192.098996 
L 613.224045 -188.757679 
L 613.224005 -185.416361 
L 613.224 -182.075044 
L 613.224 -178.733726 
L 613.224 -175.392409 
L 613.224 -172.051091 
L 613.224 -168.709774 
L 613.224 -165.368457 
L 613.224 -162.027139 
L 613.224 -158.685822 
L 613.224 -155.344504 
L 613.224 -152.003187 
L 613.224 -148.661869 
L 613.224001 -145.320552 
L 613.224009 -141.979234 
L 613.224065 -138.637917 
L 613.224376 -135.296599 
L 613.225726 -131.955282 
L 613.230299 -128.613964 
L 613.242303 -125.272647 
L 613.266338 -121.93133 
L 613.301962 -118.590012 
L 613.338283 -115.248695 
L 613.357364 -111.907377 
L 613.347937 -108.56606 
L 613.316191 -105.224742 
L 613.282982 -101.883425 
L 613.284416 -98.542107 
L 613.428841 -95.20079 
L 614.095908 -91.859472 
L 616.317818 -88.518155 
L 622.037494 -85.176838 
L 633.338088 -81.83552 
L 650.00946 -78.494203 
L 667.157391 -75.152885 
L 676.6416 -71.811568 
L 673.046875 -68.47025 
L 658.506165 -65.128933 
L 640.730968 -61.787615 
L 626.633719 -58.446298 
L 618.469847 -55.10498 
z
" style="stroke: #595959; stroke-width: 1.25"/>
    </defs>
    <g clip-path="url(#pd878c6500e)">
     <use xlink:href="#m13b66d1a28" x="0" y="432" style="fill: #db96c0; stroke: #595959; stroke-width: 1.25"/>
    </g>
   </g>
   <g id="PolyCollection_5">
    <defs>
     <path id="me2e21189fd" d="M 777.143864 -54.259676 
L 766.392136 -54.259676 
L 758.471675 -57.627696 
L 745.002415 -60.995716 
L 727.918513 -64.363735 
L 713.307946 -67.731755 
L 708.3504 -71.099775 
L 715.798456 -74.467795 
L 731.588061 -77.835815 
L 748.309622 -81.203834 
L 760.631896 -84.571854 
L 767.469637 -87.939874 
L 770.416212 -91.307894 
L 771.412281 -94.675914 
L 771.666732 -98.043933 
L 771.695947 -101.411953 
L 771.669401 -104.779973 
L 771.641114 -108.147993 
L 771.6339 -111.516013 
L 771.653085 -114.884032 
L 771.688241 -118.252052 
L 771.723167 -121.620072 
L 771.747591 -124.988092 
L 771.760476 -128.356112 
L 771.765753 -131.724131 
L 771.767457 -135.092151 
L 771.767894 -138.460171 
L 771.767983 -141.828191 
L 771.767998 -145.196211 
L 771.768 -148.56423 
L 771.768 -151.93225 
L 771.768 -155.30027 
L 771.768 -158.66829 
L 771.768 -162.03631 
L 771.768 -165.404329 
L 771.768 -168.772349 
L 771.768 -172.140369 
L 771.768 -175.508389 
L 771.768 -178.876409 
L 771.767998 -182.244428 
L 771.767985 -185.612448 
L 771.767882 -188.980468 
L 771.767254 -192.348488 
L 771.764167 -195.716508 
L 771.751929 -199.084528 
L 771.71307 -202.452547 
L 771.615014 -205.820567 
L 771.420978 -209.188587 
L 771.127223 -212.556607 
L 770.805297 -215.924627 
L 770.591724 -219.292646 
L 770.599668 -222.660666 
L 770.825054 -226.028686 
L 771.149827 -229.396706 
L 771.438928 -232.764726 
L 771.6258 -236.132745 
L 771.718132 -239.500765 
L 771.753811 -242.868785 
L 771.764725 -246.236805 
L 771.767387 -249.604825 
L 771.767907 -252.972844 
L 771.767989 -256.340864 
L 771.767999 -259.708884 
L 771.768 -263.076904 
L 771.768 -266.444924 
L 771.768 -269.812943 
L 771.768 -273.180963 
L 771.768 -276.548983 
L 771.768 -279.917003 
L 771.768 -283.285023 
L 771.768 -286.653042 
L 771.768 -290.021062 
L 771.768 -293.389082 
L 771.768 -296.757102 
L 771.768 -300.125122 
L 771.768 -303.493141 
L 771.768 -306.861161 
L 771.768 -310.229181 
L 771.768 -313.597201 
L 771.768 -316.965221 
L 771.768 -320.33324 
L 771.768 -323.70126 
L 771.768 -327.06928 
L 771.768 -330.4373 
L 771.768 -333.80532 
L 771.767999 -337.173339 
L 771.767993 -340.541359 
L 771.767949 -343.909379 
L 771.767716 -347.277399 
L 771.766718 -350.645419 
L 771.763316 -354.013438 
L 771.754138 -357.381458 
L 771.734776 -360.749478 
L 771.70351 -364.117498 
L 771.666624 -367.485518 
L 771.638941 -370.853537 
L 771.634937 -374.221557 
L 771.656895 -377.589577 
L 771.692868 -380.957597 
L 771.726854 -384.325617 
L 771.749751 -387.693636 
L 771.786249 -387.693636 
L 771.786249 -387.693636 
L 771.809146 -384.325617 
L 771.843132 -380.957597 
L 771.879105 -377.589577 
L 771.901063 -374.221557 
L 771.897059 -370.853537 
L 771.869376 -367.485518 
L 771.83249 -364.117498 
L 771.801224 -360.749478 
L 771.781862 -357.381458 
L 771.772684 -354.013438 
L 771.769282 -350.645419 
L 771.768284 -347.277399 
L 771.768051 -343.909379 
L 771.768007 -340.541359 
L 771.768001 -337.173339 
L 771.768 -333.80532 
L 771.768 -330.4373 
L 771.768 -327.06928 
L 771.768 -323.70126 
L 771.768 -320.33324 
L 771.768 -316.965221 
L 771.768 -313.597201 
L 771.768 -310.229181 
L 771.768 -306.861161 
L 771.768 -303.493141 
L 771.768 -300.125122 
L 771.768 -296.757102 
L 771.768 -293.389082 
L 771.768 -290.021062 
L 771.768 -286.653042 
L 771.768 -283.285023 
L 771.768 -279.917003 
L 771.768 -276.548983 
L 771.768 -273.180963 
L 771.768 -269.812943 
L 771.768 -266.444924 
L 771.768 -263.076904 
L 771.768001 -259.708884 
L 771.768011 -256.340864 
L 771.768093 -252.972844 
L 771.768613 -249.604825 
L 771.771275 -246.236805 
L 771.782189 -242.868785 
L 771.817868 -239.500765 
L 771.9102 -236.132745 
L 772.097072 -232.764726 
L 772.386173 -229.396706 
L 772.710946 -226.028686 
L 772.936332 -222.660666 
L 772.944276 -219.292646 
L 772.730703 -215.924627 
L 772.408777 -212.556607 
L 772.115022 -209.188587 
L 771.920986 -205.820567 
L 771.82293 -202.452547 
L 771.784071 -199.084528 
L 771.771833 -195.716508 
L 771.768746 -192.348488 
L 771.768118 -188.980468 
L 771.768015 -185.612448 
L 771.768002 -182.244428 
L 771.768 -178.876409 
L 771.768 -175.508389 
L 771.768 -172.140369 
L 771.768 -168.772349 
L 771.768 -165.404329 
L 771.768 -162.03631 
L 771.768 -158.66829 
L 771.768 -155.30027 
L 771.768 -151.93225 
L 771.768 -148.56423 
L 771.768002 -145.196211 
L 771.768017 -141.828191 
L 771.768106 -138.460171 
L 771.768543 -135.092151 
L 771.770247 -131.724131 
L 771.775524 -128.356112 
L 771.788409 -124.988092 
L 771.812833 -121.620072 
L 771.847759 -118.252052 
L 771.882915 -114.884032 
L 771.9021 -111.516013 
L 771.894886 -108.147993 
L 771.866599 -104.779973 
L 771.840053 -101.411953 
L 771.869268 -98.043933 
L 772.123719 -94.675914 
L 773.119788 -91.307894 
L 776.066363 -87.939874 
L 782.904104 -84.571854 
L 795.226378 -81.203834 
L 811.947939 -77.835815 
L 827.737544 -74.467795 
L 835.1856 -71.099775 
L 830.228054 -67.731755 
L 815.617487 -64.363735 
L 798.533585 -60.995716 
L 785.064325 -57.627696 
L 777.143864 -54.259676 
z
" style="stroke: #595959; stroke-width: 1.25"/>
    </defs>
    <g clip-path="url(#pd878c6500e)">
     <use xlink:href="#me2e21189fd" x="0" y="432" style="fill: #a2c865; stroke: #595959; stroke-width: 1.25"/>
    </g>
   </g>
   <g id="line2d_8">
    <path d="M 137.592 360.829459 
L 137.592 361.692019 
" clip-path="url(#pd878c6500e)" style="fill: none; stroke: #000000"/>
   </g>
   <g id="line2d_9">
    <path d="M 137.592 360.218821 
L 137.592 359.430195 
" clip-path="url(#pd878c6500e)" style="fill: none; stroke: #000000"/>
   </g>
   <g id="line2d_10">
    <path d="M 131.6466 361.692019 
L 143.5374 361.692019 
" clip-path="url(#pd878c6500e)" style="fill: none; stroke: #000000; stroke-linecap: round"/>
   </g>
   <g id="line2d_11">
    <path d="M 131.6466 359.430195 
L 143.5374 359.430195 
" clip-path="url(#pd878c6500e)" style="fill: none; stroke: #000000; stroke-linecap: round"/>
   </g>
   <g id="line2d_12">
    <path d="M 296.136 360.87601 
L 296.136 361.527722 
" clip-path="url(#pd878c6500e)" style="fill: none; stroke: #000000"/>
   </g>
   <g id="line2d_13">
    <path d="M 296.136 360.437884 
L 296.136 359.961422 
" clip-path="url(#pd878c6500e)" style="fill: none; stroke: #000000"/>
   </g>
   <g id="line2d_14">
    <path d="M 290.1906 361.527722 
L 302.0814 361.527722 
" clip-path="url(#pd878c6500e)" style="fill: none; stroke: #000000; stroke-linecap: round"/>
   </g>
   <g id="line2d_15">
    <path d="M 290.1906 359.961422 
L 302.0814 359.961422 
" clip-path="url(#pd878c6500e)" style="fill: none; stroke: #000000; stroke-linecap: round"/>
   </g>
   <g id="line2d_16">
    <path d="M 454.68 357.989857 
L 454.68 359.851891 
" clip-path="url(#pd878c6500e)" style="fill: none; stroke: #000000"/>
   </g>
   <g id="line2d_17">
    <path d="M 454.68 351.965629 
L 454.68 347.496748 
" clip-path="url(#pd878c6500e)" style="fill: none; stroke: #000000"/>
   </g>
   <g id="line2d_18">
    <path d="M 448.7346 359.851891 
L 460.6254 359.851891 
" clip-path="url(#pd878c6500e)" style="fill: none; stroke: #000000; stroke-linecap: round"/>
   </g>
   <g id="line2d_19">
    <path d="M 448.7346 347.496748 
L 460.6254 347.496748 
" clip-path="url(#pd878c6500e)" style="fill: none; stroke: #000000; stroke-linecap: round"/>
   </g>
   <g id="line2d_20">
    <path d="M 613.224 362.571008 
L 613.224 362.902341 
" clip-path="url(#pd878c6500e)" style="fill: none; stroke: #000000"/>
   </g>
   <g id="line2d_21">
    <path d="M 613.224 359.906657 
L 613.224 358.291068 
" clip-path="url(#pd878c6500e)" style="fill: none; stroke: #000000"/>
   </g>
   <g id="line2d_22">
    <path d="M 607.2786 362.902341 
L 619.1694 362.902341 
" clip-path="url(#pd878c6500e)" style="fill: none; stroke: #000000; stroke-linecap: round"/>
   </g>
   <g id="line2d_23">
    <path d="M 607.2786 358.291068 
L 619.1694 358.291068 
" clip-path="url(#pd878c6500e)" style="fill: none; stroke: #000000; stroke-linecap: round"/>
   </g>
   <g id="line2d_24">
    <path d="M 771.768 362.494336 
L 771.768 363.072115 
" clip-path="url(#pd878c6500e)" style="fill: none; stroke: #000000"/>
   </g>
   <g id="line2d_25">
    <path d="M 771.768 360.350259 
L 771.768 359.238515 
" clip-path="url(#pd878c6500e)" style="fill: none; stroke: #000000"/>
   </g>
   <g id="line2d_26">
    <path d="M 765.8226 363.072115 
L 777.7134 363.072115 
" clip-path="url(#pd878c6500e)" style="fill: none; stroke: #000000; stroke-linecap: round"/>
   </g>
   <g id="line2d_27">
    <path d="M 765.8226 359.238515 
L 777.7134 359.238515 
" clip-path="url(#pd878c6500e)" style="fill: none; stroke: #000000; stroke-linecap: round"/>
   </g>
   <g id="line2d_28">
    <path d="M 125.7012 360.465267 
L 149.4828 360.465267 
" clip-path="url(#pd878c6500e)" style="fill: none; stroke: #ff0000; stroke-width: 2"/>
   </g>
   <g id="line2d_29">
    <path d="M 284.2452 360.640517 
L 308.0268 360.640517 
" clip-path="url(#pd878c6500e)" style="fill: none; stroke: #ff0000; stroke-width: 2"/>
   </g>
   <g id="line2d_30">
    <path d="M 442.7892 353.280006 
L 466.5708 353.280006 
" clip-path="url(#pd878c6500e)" style="fill: none; stroke: #ff0000; stroke-width: 2"/>
   </g>
   <g id="line2d_31">
    <path d="M 601.3332 360.279064 
L 625.1148 360.279064 
" clip-path="url(#pd878c6500e)" style="fill: none; stroke: #ff0000; stroke-width: 2"/>
   </g>
   <g id="line2d_32">
    <path d="M 759.8772 360.766478 
L 783.6588 360.766478 
" clip-path="url(#pd878c6500e)" style="fill: none; stroke: #ff0000; stroke-width: 2"/>
   </g>
   <g id="patch_3">
    <path d="M 58.32 395.14 
L 58.32 27.6 
" style="fill: none; stroke: #cccccc; stroke-width: 1.25; stroke-linejoin: miter; stroke-linecap: square"/>
   </g>
   <g id="patch_4">
    <path d="M 851.04 395.14 
L 851.04 27.6 
" style="fill: none; stroke: #cccccc; stroke-width: 1.25; stroke-linejoin: miter; stroke-linecap: square"/>
   </g>
   <g id="patch_5">
    <path d="M 58.32 395.14 
L 851.04 395.14 
" style="fill: none; stroke: #cccccc; stroke-width: 1.25; stroke-linejoin: miter; stroke-linecap: square"/>
   </g>
   <g id="patch_6">
    <path d="M 58.32 27.6 
L 851.04 27.6 
" style="fill: none; stroke: #cccccc; stroke-width: 1.25; stroke-linejoin: miter; stroke-linecap: square"/>
   </g>
   <g id="text_14">
    <!-- Handshake duration on TLS with ed25519 signature algorithm — Local YDE (35ms/2%) -->
    <g style="fill: #262626" transform="translate(193.824375 21.6) scale(0.12 -0.12)">
     <defs>
      <path id="DejaVuSans-54" d="M -19 4666 
L 3928 4666 
L 3928 4134 
L 2272 4134 
L 2272 0 
L 1638 0 
L 1638 4134 
L -19 4134 
L -19 4666 
z
" transform="scale(0.015625)"/>
      <path id="DejaVuSans-4c" d="M 628 4666 
L 1259 4666 
L 1259 531 
L 3531 531 
L 3531 0 
L 628 0 
L 628 4666 
z
" transform="scale(0.015625)"/>
      <path id="DejaVuSans-53" d="M 3425 4513 
L 3425 3897 
Q 3066 4069 2747 4153 
Q 2428 4238 2131 4238 
Q 1616 4238 1336 4038 
Q 1056 3838 1056 3469 
Q 1056 3159 1242 3001 
Q 1428 2844 1947 2747 
L 2328 2669 
Q 3034 2534 3370 2195 
Q 3706 1856 3706 1288 
Q 3706 609 3251 259 
Q 2797 -91 1919 -91 
Q 1588 -91 1214 -16 
Q 841 59 441 206 
L 441 856 
Q 825 641 1194 531 
Q 1563 422 1919 422 
Q 2459 422 2753 634 
Q 3047 847 3047 1241 
Q 3047 1584 2836 1778 
Q 2625 1972 2144 2069 
L 1759 2144 
Q 1053 2284 737 2584 
Q 422 2884 422 3419 
Q 422 4038 858 4394 
Q 1294 4750 2059 4750 
Q 2388 4750 2728 4690 
Q 3069 4631 3425 4513 
z
" transform="scale(0.015625)"/>
      <path id="DejaVuSans-77" d="M 269 3500 
L 844 3500 
L 1563 769 
L 2278 3500 
L 2956 3500 
L 3675 769 
L 4391 3500 
L 4966 3500 
L 4050 0 
L 3372 0 
L 2619 2869 
L 1863 0 
L 1184 0 
L 269 3500 
z
" transform="scale(0.015625)"/>
      <path id="DejaVuSans-67" d="M 2906 1791 
Q 2906 2416 2648 2759 
Q 2391 3103 1925 3103 
Q 1463 3103 1205 2759 
Q 947 2416 947 1791 
Q 947 1169 1205 825 
Q 1463 481 1925 481 
Q 2391 481 2648 825 
Q 2906 1169 2906 1791 
z
M 3481 434 
Q 3481 -459 3084 -895 
Q 2688 -1331 1869 -1331 
Q 1566 -1331 1297 -1286 
Q 1028 -1241 775 -1147 
L 775 -588 
Q 1028 -725 1275 -790 
Q 1522 -856 1778 -856 
Q 2344 -856 2625 -561 
Q 2906 -266 2906 331 
L 2906 616 
Q 2728 306 2450 153 
Q 2172 0 1784 0 
Q 1141 0 747 490 
Q 353 981 353 1791 
Q 353 2603 747 3093 
Q 1141 3584 1784 3584 
Q 2172 3584 2450 3431 
Q 2728 3278 2906 2969 
L 2906 3500 
L 3481 3500 
L 3481 434 
z
" transform="scale(0.015625)"/>
      <path id="DejaVuSans-2014" d="M 313 1978 
L 6088 1978 
L 6088 1528 
L 313 1528 
L 313 1978 
z
" transform="scale(0.015625)"/>
      <path id="DejaVuSans-63" d="M 3122 3366 
L 3122 2828 
Q 2878 2963 2633 3030 
Q 2388 3097 2138 3097 
Q 1578 3097 1268 2742 
Q 959 2388 959 1747 
Q 959 1106 1268 751 
Q 1578 397 2138 397 
Q 2388 397 2633 464 
Q 2878 531 3122 666 
L 3122 134 
Q 2881 22 2623 -34 
Q 2366 -91 2075 -91 
Q 1284 -91 818 406 
Q 353 903 353 1747 
Q 353 2603 823 3093 
Q 1294 3584 2113 3584 
Q 2378 3584 2631 3529 
Q 2884 3475 3122 3366 
z
" transform="scale(0.015625)"/>
      <path id="DejaVuSans-59" d="M -13 4666 
L 666 4666 
L 1959 2747 
L 3244 4666 
L 3922 4666 
L 2272 2222 
L 2272 0 
L 1638 0 
L 1638 2222 
L -13 4666 
z
" transform="scale(0.015625)"/>
      <path id="DejaVuSans-44" d="M 1259 4147 
L 1259 519 
L 2022 519 
Q 2988 519 3436 956 
Q 3884 1394 3884 2338 
Q 3884 3275 3436 3711 
Q 2988 4147 2022 4147 
L 1259 4147 
z
M 628 4666 
L 1925 4666 
Q 3281 4666 3915 4102 
Q 4550 3538 4550 2338 
Q 4550 1131 3912 565 
Q 3275 0 1925 0 
L 628 0 
L 628 4666 
z
" transform="scale(0.015625)"/>
      <path id="DejaVuSans-45" d="M 628 4666 
L 3578 4666 
L 3578 4134 
L 1259 4134 
L 1259 2753 
L 3481 2753 
L 3481 2222 
L 1259 2222 
L 1259 531 
L 3634 531 
L 3634 0 
L 628 0 
L 628 4666 
z
" transform="scale(0.015625)"/>
      <path id="DejaVuSans-2f" d="M 1625 4666 
L 2156 4666 
L 531 -594 
L 0 -594 
L 1625 4666 
z
" transform="scale(0.015625)"/>
      <path id="DejaVuSans-25" d="M 4653 2053 
Q 4381 2053 4226 1822 
Q 4072 1591 4072 1178 
Q 4072 772 4226 539 
Q 4381 306 4653 306 
Q 4919 306 5073 539 
Q 5228 772 5228 1178 
Q 5228 1588 5073 1820 
Q 4919 2053 4653 2053 
z
M 4653 2450 
Q 5147 2450 5437 2106 
Q 5728 1763 5728 1178 
Q 5728 594 5436 251 
Q 5144 -91 4653 -91 
Q 4153 -91 3862 251 
Q 3572 594 3572 1178 
Q 3572 1766 3864 2108 
Q 4156 2450 4653 2450 
z
M 1428 4353 
Q 1159 4353 1004 4120 
Q 850 3888 850 3481 
Q 850 3069 1003 2837 
Q 1156 2606 1428 2606 
Q 1700 2606 1854 2837 
Q 2009 3069 2009 3481 
Q 2009 3884 1853 4118 
Q 1697 4353 1428 4353 
z
M 4250 4750 
L 4750 4750 
L 1831 -91 
L 1331 -91 
L 4250 4750 
z
M 1428 4750 
Q 1922 4750 2215 4408 
Q 2509 4066 2509 3481 
Q 2509 2891 2217 2550 
Q 1925 2209 1428 2209 
Q 931 2209 642 2551 
Q 353 2894 353 3481 
Q 353 4063 643 4406 
Q 934 4750 1428 4750 
z
" transform="scale(0.015625)"/>
     </defs>
     <use xlink:href="#DejaVuSans-48"/>
     <use xlink:href="#DejaVuSans-61" x="75.195312"/>
     <use xlink:href="#DejaVuSans-6e" x="136.474609"/>
     <use xlink:href="#DejaVuSans-64" x="199.853516"/>
     <use xlink:href="#DejaVuSans-73" x="263.330078"/>
     <use xlink:href="#DejaVuSans-68" x="315.429688"/>
     <use xlink:href="#DejaVuSans-61" x="378.808594"/>
     <use xlink:href="#DejaVuSans-6b" x="440.087891"/>
     <use xlink:href="#DejaVuSans-65" x="494.373047"/>
     <use xlink:href="#DejaVuSans-20" x="555.896484"/>
     <use xlink:href="#DejaVuSans-64" x="587.683594"/>
     <use xlink:href="#DejaVuSans-75" x="651.160156"/>
     <use xlink:href="#DejaVuSans-72" x="714.539062"/>
     <use xlink:href="#DejaVuSans-61" x="755.652344"/>
     <use xlink:href="#DejaVuSans-74" x="816.931641"/>
     <use xlink:href="#DejaVuSans-69" x="856.140625"/>
     <use xlink:href="#DejaVuSans-6f" x="883.923828"/>
     <use xlink:href="#DejaVuSans-6e" x="945.105469"/>
     <use xlink:href="#DejaVuSans-20" x="1008.484375"/>
     <use xlink:href="#DejaVuSans-6f" x="1040.271484"/>
     <use xlink:href="#DejaVuSans-6e" x="1101.453125"/>
     <use xlink:href="#DejaVuSans-20" x="1164.832031"/>
     <use xlink:href="#DejaVuSans-54" x="1196.619141"/>
     <use xlink:href="#DejaVuSans-4c" x="1257.703125"/>
     <use xlink:href="#DejaVuSans-53" x="1313.416016"/>
     <use xlink:href="#DejaVuSans-20" x="1376.892578"/>
     <use xlink:href="#DejaVuSans-77" x="1408.679688"/>
     <use xlink:href="#DejaVuSans-69" x="1490.466797"/>
     <use xlink:href="#DejaVuSans-74" x="1518.25"/>
     <use xlink:href="#DejaVuSans-68" x="1557.458984"/>
     <use xlink:href="#DejaVuSans-20" x="1620.837891"/>
     <use xlink:href="#DejaVuSans-65" x="1652.625"/>
     <use xlink:href="#DejaVuSans-64" x="1714.148438"/>
     <use xlink:href="#DejaVuSans-32" x="1777.625"/>
     <use xlink:href="#DejaVuSans-35" x="1841.248047"/>
     <use xlink:href="#DejaVuSans-35" x="1904.871094"/>
     <use xlink:href="#DejaVuSans-31" x="1968.494141"/>
     <use xlink:href="#DejaVuSans-39" x="2032.117188"/>
     <use xlink:href="#DejaVuSans-20" x="2095.740234"/>
     <use xlink:href="#DejaVuSans-73" x="2127.527344"/>
     <use xlink:href="#DejaVuSans-69" x="2179.626953"/>
     <use xlink:href="#DejaVuSans-67" x="2207.410156"/>
     <use xlink:href="#DejaVuSans-6e" x="2270.886719"/>
     <use xlink:href="#DejaVuSans-61" x="2334.265625"/>
     <use xlink:href="#DejaVuSans-74" x="2395.544922"/>
     <use xlink:href="#DejaVuSans-75" x="2434.753906"/>
     <use xlink:href="#DejaVuSans-72" x="2498.132812"/>
     <use xlink:href="#DejaVuSans-65" x="2536.996094"/>
     <use xlink:href="#DejaVuSans-20" x="2598.519531"/>
     <use xlink:href="#DejaVuSans-61" x="2630.306641"/>
     <use xlink:href="#DejaVuSans-6c" x="2691.585938"/>
     <use xlink:href="#DejaVuSans-67" x="2719.369141"/>
     <use xlink:href="#DejaVuSans-6f" x="2782.845703"/>
     <use xlink:href="#DejaVuSans-72" x="2844.027344"/>
     <use xlink:href="#DejaVuSans-69" x="2885.140625"/>
     <use xlink:href="#DejaVuSans-74" x="2912.923828"/>
     <use xlink:href="#DejaVuSans-68" x="2952.132812"/>
     <use xlink:href="#DejaVuSans-6d" x="3015.511719"/>
     <use xlink:href="#DejaVuSans-20" x="3112.923828"/>
     <use xlink:href="#DejaVuSans-2014" x="3144.710938"/>
     <use xlink:href="#DejaVuSans-20" x="3244.710938"/>
     <use xlink:href="#DejaVuSans-4c" x="3276.498047"/>
     <use xlink:href="#DejaVuSans-6f" x="3330.460938"/>
     <use xlink:href="#DejaVuSans-63" x="3391.642578"/>
     <use xlink:href="#DejaVuSans-61" x="3446.623047"/>
     <use xlink:href="#DejaVuSans-6c" x="3507.902344"/>
     <use xlink:href="#DejaVuSans-20" x="3535.685547"/>
     <use xlink:href="#DejaVuSans-59" x="3567.472656"/>
     <use xlink:href="#DejaVuSans-44" x="3628.556641"/>
     <use xlink:href="#DejaVuSans-45" x="3705.558594"/>
     <use xlink:href="#DejaVuSans-20" x="3768.742188"/>
     <use xlink:href="#DejaVuSans-28" x="3800.529297"/>
     <use xlink:href="#DejaVuSans-33" x="3839.542969"/>
     <use xlink:href="#DejaVuSans-35" x="3903.166016"/>
     <use xlink:href="#DejaVuSans-6d" x="3966.789062"/>
     <use xlink:href="#DejaVuSans-73" x="4064.201172"/>
     <use xlink:href="#DejaVuSans-2f" x="4116.300781"/>
     <use xlink:href="#DejaVuSans-32" x="4149.992188"/>
     <use xlink:href="#DejaVuSans-25" x="4213.615234"/>
     <use xlink:href="#DejaVuSans-29" x="4308.634766"/>
    </g>
   </g>
  </g>
 </g>
 <defs>
  <clipPath id="pd878c6500e">
   <rect x="58.32" y="27.6" width="792.72" height="367.54"/>
  </clipPath>
 </defs>
</svg>
