<?xml version="1.0" encoding="utf-8" standalone="no"?>
<!DOCTYPE svg PUBLIC "-//W3C//DTD SVG 1.1//EN"
  "http://www.w3.org/Graphics/SVG/1.1/DTD/svg11.dtd">
<svg xmlns:xlink="http://www.w3.org/1999/xlink" width="864pt" height="432pt" viewBox="0 0 864 432" xmlns="http://www.w3.org/2000/svg" version="1.1">
 <metadata>
  <rdf:RDF xmlns:dc="http://purl.org/dc/elements/1.1/" xmlns:cc="http://creativecommons.org/ns#" xmlns:rdf="http://www.w3.org/1999/02/22-rdf-syntax-ns#">
   <cc:Work>
    <dc:type rdf:resource="http://purl.org/dc/dcmitype/StillImage"/>
    <dc:date>2026-03-21T13:58:43.767626</dc:date>
    <dc:format>image/svg+xml</dc:format>
    <dc:creator>
     <cc:Agent>
      <dc:title>Matplotlib v3.6.3, https://matplotlib.org/</dc:title>
     </cc:Agent>
    </dc:creator>
   </cc:Work>
  </rdf:RDF>
 </metadata>
 <defs>
  <style type="text/css">*{stroke-linejoin: round; stroke-linecap: butt}</style>
 </defs>
 <g id="figure_1">
  <g id="patch_1">
   <path d="M 0 432 
L 864 432 
L 864 0 
L 0 0 
z
" style="fill: #ffffff"/>
  </g>
  <g id="axes_1">
   <g id="patch_2">
    <path d="M 58.32 395.14 
L 851.04 395.14 
L 851.04 27.6 
L 58.32 27.6 
z
" style="fill: #ffffff"/>
   </g>
   <g id="matplotlib.axis_1">
    <g id="xtick_1">
     <g id="text_1">
      <!-- P-256 -->
      <g style="fill: #262626" transform="translate(117.642 415.277812) scale(0.14 -0.14)">
       <defs>
        <path id="DejaVuSans-50" d="M 1259 4147 
L 1259 2394 
L 2053 2394 
Q 2494 2394 2734 2622 
Q 2975 2850 2975 3272 
Q 2975 3691 2734 3919 
Q 2494 4147 2053 4147 
L 1259 4147 
z
M 628 4666 
L 2053 4666 
Q 2838 4666 3239 4311 
Q 3641 3956 3641 3272 
Q 3641 2581 3239 2228 
Q 2838 1875 2053 1875 
L 1259 1875 
L 1259 0 
L 628 0 
L 628 4666 
z
" transform="scale(0.015625)"/>
        <path id="DejaVuSans-2d" d="M 313 2009 
L 1997 2009 
L 1997 1497 
L 313 1497 
L 313 2009 
z
" transform="scale(0.015625)"/>
        <path id="DejaVuSans-32" d="M 1228 531 
L 3431 531 
L 3431 0 
L 469 0 
L 469 531 
Q 828 903 1448 1529 
Q 2069 2156 2228 2338 
Q 2531 2678 2651 2914 
Q 2772 3150 2772 3378 
Q 2772 3750 2511 3984 
Q 2250 4219 1831 4219 
Q 1534 4219 1204 4116 
Q 875 4013 500 3803 
L 500 4441 
Q 881 4594 1212 4672 
Q 1544 4750 1819 4750 
Q 2544 4750 2975 4387 
Q 3406 4025 3406 3419 
Q 3406 3131 3298 2873 
Q 3191 2616 2906 2266 
Q 2828 2175 2409 1742 
Q 1991 1309 1228 531 
z
" transform="scale(0.015625)"/>
        <path id="DejaVuSans-35" d="M 691 4666 
L 3169 4666 
L 3169 4134 
L 1269 4134 
L 1269 2991 
Q 1406 3038 1543 3061 
Q 1681 3084 1819 3084 
Q 2600 3084 3056 2656 
Q 3513 2228 3513 1497 
Q 3513 744 3044 326 
Q 2575 -91 1722 -91 
Q 1428 -91 1123 -41 
Q 819 9 494 109 
L 494 744 
Q 775 591 1075 516 
Q 1375 441 1709 441 
Q 2250 441 2565 725 
Q 2881 1009 2881 1497 
Q 2881 1984 2565 2268 
Q 2250 2553 1709 2553 
Q 1456 2553 1204 2497 
Q 953 2441 691 2322 
L 691 4666 
z
" transform="scale(0.015625)"/>
        <path id="DejaVuSans-36" d="M 2113 2584 
Q 1688 2584 1439 2293 
Q 1191 2003 1191 1497 
Q 1191 994 1439 701 
Q 1688 409 2113 409 
Q 2538 409 2786 701 
Q 3034 994 3034 1497 
Q 3034 2003 2786 2293 
Q 2538 2584 2113 2584 
z
M 3366 4563 
L 3366 3988 
Q 3128 4100 2886 4159 
Q 2644 4219 2406 4219 
Q 1781 4219 1451 3797 
Q 1122 3375 1075 2522 
Q 1259 2794 1537 2939 
Q 1816 3084 2150 3084 
Q 2853 3084 3261 2657 
Q 3669 2231 3669 1497 
Q 3669 778 3244 343 
Q 2819 -91 2113 -91 
Q 1303 -91 875 529 
Q 447 1150 447 2328 
Q 447 3434 972 4092 
Q 1497 4750 2381 4750 
Q 2619 4750 2861 4703 
Q 3103 4656 3366 4563 
z
" transform="scale(0.015625)"/>
       </defs>
       <use xlink:href="#DejaVuSans-50"/>
       <use xlink:href="#DejaVuSans-2d" x="58.052734"/>
       <use xlink:href="#DejaVuSans-32" x="94.136719"/>
       <use xlink:href="#DejaVuSans-35" x="157.759766"/>
       <use xlink:href="#DejaVuSans-36" x="221.382812"/>
      </g>
     </g>
    </g>
    <g id="xtick_2">
     <g id="text_2">
      <!-- x25519 -->
      <g style="fill: #262626" transform="translate(269.724125 415.277812) scale(0.14 -0.14)">
       <defs>
        <path id="DejaVuSans-78" d="M 3513 3500 
L 2247 1797 
L 3578 0 
L 2900 0 
L 1881 1375 
L 863 0 
L 184 0 
L 1544 1831 
L 300 3500 
L 978 3500 
L 1906 2253 
L 2834 3500 
L 3513 3500 
z
" transform="scale(0.015625)"/>
        <path id="DejaVuSans-31" d="M 794 531 
L 1825 531 
L 1825 4091 
L 703 3866 
L 703 4441 
L 1819 4666 
L 2450 4666 
L 2450 531 
L 3481 531 
L 3481 0 
L 794 0 
L 794 531 
z
" transform="scale(0.015625)"/>
        <path id="DejaVuSans-39" d="M 703 97 
L 703 672 
Q 941 559 1184 500 
Q 1428 441 1663 441 
Q 2288 441 2617 861 
Q 2947 1281 2994 2138 
Q 2813 1869 2534 1725 
Q 2256 1581 1919 1581 
Q 1219 1581 811 2004 
Q 403 2428 403 3163 
Q 403 3881 828 4315 
Q 1253 4750 1959 4750 
Q 2769 4750 3195 4129 
Q 3622 3509 3622 2328 
Q 3622 1225 3098 567 
Q 2575 -91 1691 -91 
Q 1453 -91 1209 -44 
Q 966 3 703 97 
z
M 1959 2075 
Q 2384 2075 2632 2365 
Q 2881 2656 2881 3163 
Q 2881 3666 2632 3958 
Q 2384 4250 1959 4250 
Q 1534 4250 1286 3958 
Q 1038 3666 1038 3163 
Q 1038 2656 1286 2365 
Q 1534 2075 1959 2075 
z
" transform="scale(0.015625)"/>
       </defs>
       <use xlink:href="#DejaVuSans-78"/>
       <use xlink:href="#DejaVuSans-32" x="59.179688"/>
       <use xlink:href="#DejaVuSans-35" x="122.802734"/>
       <use xlink:href="#DejaVuSans-35" x="186.425781"/>
       <use xlink:href="#DejaVuSans-31" x="250.048828"/>
       <use xlink:href="#DejaVuSans-39" x="313.671875"/>
      </g>
     </g>
    </g>
    <g id="xtick_3">
     <g id="text_3">
      <!-- p256_mlkem512 -->
      <g style="fill: #262626" transform="translate(396.325156 415.277812) scale(0.14 -0.14)">
       <defs>
        <path id="DejaVuSans-70" d="M 1159 525 
L 1159 -1331 
L 581 -1331 
L 581 3500 
L 1159 3500 
L 1159 2969 
Q 1341 3281 1617 3432 
Q 1894 3584 2278 3584 
Q 2916 3584 3314 3078 
Q 3713 2572 3713 1747 
Q 3713 922 3314 415 
Q 2916 -91 2278 -91 
Q 1894 -91 1617 61 
Q 1341 213 1159 525 
z
M 3116 1747 
Q 3116 2381 2855 2742 
Q 2594 3103 2138 3103 
Q 1681 3103 1420 2742 
Q 1159 2381 1159 1747 
Q 1159 1113 1420 752 
Q 1681 391 2138 391 
Q 2594 391 2855 752 
Q 3116 1113 3116 1747 
z
" transform="scale(0.015625)"/>
        <path id="DejaVuSans-5f" d="M 3263 -1063 
L 3263 -1509 
L -63 -1509 
L -63 -1063 
L 3263 -1063 
z
" transform="scale(0.015625)"/>
        <path id="DejaVuSans-6d" d="M 3328 2828 
Q 3544 3216 3844 3400 
Q 4144 3584 4550 3584 
Q 5097 3584 5394 3201 
Q 5691 2819 5691 2113 
L 5691 0 
L 5113 0 
L 5113 2094 
Q 5113 2597 4934 2840 
Q 4756 3084 4391 3084 
Q 3944 3084 3684 2787 
Q 3425 2491 3425 1978 
L 3425 0 
L 2847 0 
L 2847 2094 
Q 2847 2600 2669 2842 
Q 2491 3084 2119 3084 
Q 1678 3084 1418 2786 
Q 1159 2488 1159 1978 
L 1159 0 
L 581 0 
L 581 3500 
L 1159 3500 
L 1159 2956 
Q 1356 3278 1631 3431 
Q 1906 3584 2284 3584 
Q 2666 3584 2933 3390 
Q 3200 3197 3328 2828 
z
" transform="scale(0.015625)"/>
        <path id="DejaVuSans-6c" d="M 603 4863 
L 1178 4863 
L 1178 0 
L 603 0 
L 603 4863 
z
" transform="scale(0.015625)"/>
        <path id="DejaVuSans-6b" d="M 581 4863 
L 1159 4863 
L 1159 1991 
L 2875 3500 
L 3609 3500 
L 1753 1863 
L 3688 0 
L 2938 0 
L 1159 1709 
L 1159 0 
L 581 0 
L 581 4863 
z
" transform="scale(0.015625)"/>
        <path id="DejaVuSans-65" d="M 3597 1894 
L 3597 1613 
L 953 1613 
Q 991 1019 1311 708 
Q 1631 397 2203 397 
Q 2534 397 2845 478 
Q 3156 559 3463 722 
L 3463 178 
Q 3153 47 2828 -22 
Q 2503 -91 2169 -91 
Q 1331 -91 842 396 
Q 353 884 353 1716 
Q 353 2575 817 3079 
Q 1281 3584 2069 3584 
Q 2775 3584 3186 3129 
Q 3597 2675 3597 1894 
z
M 3022 2063 
Q 3016 2534 2758 2815 
Q 2500 3097 2075 3097 
Q 1594 3097 1305 2825 
Q 1016 2553 972 2059 
L 3022 2063 
z
" transform="scale(0.015625)"/>
       </defs>
       <use xlink:href="#DejaVuSans-70"/>
       <use xlink:href="#DejaVuSans-32" x="63.476562"/>
       <use xlink:href="#DejaVuSans-35" x="127.099609"/>
       <use xlink:href="#DejaVuSans-36" x="190.722656"/>
       <use xlink:href="#DejaVuSans-5f" x="254.345703"/>
       <use xlink:href="#DejaVuSans-6d" x="304.345703"/>
       <use xlink:href="#DejaVuSans-6c" x="401.757812"/>
       <use xlink:href="#DejaVuSans-6b" x="429.541016"/>
       <use xlink:href="#DejaVuSans-65" x="483.826172"/>
       <use xlink:href="#DejaVuSans-6d" x="545.349609"/>
       <use xlink:href="#DejaVuSans-35" x="642.761719"/>
       <use xlink:href="#DejaVuSans-31" x="706.384766"/>
       <use xlink:href="#DejaVuSans-32" x="770.007812"/>
      </g>
     </g>
    </g>
    <g id="xtick_4">
     <g id="text_4">
      <!-- x25519_mlkem512 -->
      <g style="fill: #262626" transform="translate(546.262437 415.277812) scale(0.14 -0.14)">
       <use xlink:href="#DejaVuSans-78"/>
       <use xlink:href="#DejaVuSans-32" x="59.179688"/>
       <use xlink:href="#DejaVuSans-35" x="122.802734"/>
       <use xlink:href="#DejaVuSans-35" x="186.425781"/>
       <use xlink:href="#DejaVuSans-31" x="250.048828"/>
       <use xlink:href="#DejaVuSans-39" x="313.671875"/>
       <use xlink:href="#DejaVuSans-5f" x="377.294922"/>
       <use xlink:href="#DejaVuSans-6d" x="427.294922"/>
       <use xlink:href="#DejaVuSans-6c" x="524.707031"/>
       <use xlink:href="#DejaVuSans-6b" x="552.490234"/>
       <use xlink:href="#DejaVuSans-65" x="606.775391"/>
       <use xlink:href="#DejaVuSans-6d" x="668.298828"/>
       <use xlink:href="#DejaVuSans-35" x="765.710938"/>
       <use xlink:href="#DejaVuSans-31" x="829.333984"/>
       <use xlink:href="#DejaVuSans-32" x="892.957031"/>
      </g>
     </g>
    </g>
    <g id="xtick_5">
     <g id="text_5">
      <!-- mlkem512 -->
      <g style="fill: #262626" transform="translate(734.718312 415.277812) scale(0.14 -0.14)">
       <use xlink:href="#DejaVuSans-6d"/>
       <use xlink:href="#DejaVuSans-6c" x="97.412109"/>
       <use xlink:href="#DejaVuSans-6b" x="125.195312"/>
       <use xlink:href="#DejaVuSans-65" x="179.480469"/>
       <use xlink:href="#DejaVuSans-6d" x="241.003906"/>
       <use xlink:href="#DejaVuSans-35" x="338.416016"/>
       <use xlink:href="#DejaVuSans-31" x="402.039062"/>
       <use xlink:href="#DejaVuSans-32" x="465.662109"/>
      </g>
     </g>
    </g>
   </g>
   <g id="matplotlib.axis_2">
    <g id="ytick_1">
     <g id="line2d_1">
      <path d="M 58.32 395.108487 
L 851.04 395.108487 
" clip-path="url(#pa52e8f8d9c)" style="fill: none; stroke: #cccccc; stroke-linecap: round"/>
     </g>
     <g id="text_6">
      <!-- 800 -->
      <g style="fill: #262626" transform="translate(27.82375 399.287628) scale(0.11 -0.11)">
       <defs>
        <path id="DejaVuSans-38" d="M 2034 2216 
Q 1584 2216 1326 1975 
Q 1069 1734 1069 1313 
Q 1069 891 1326 650 
Q 1584 409 2034 409 
Q 2484 409 2743 651 
Q 3003 894 3003 1313 
Q 3003 1734 2745 1975 
Q 2488 2216 2034 2216 
z
M 1403 2484 
Q 997 2584 770 2862 
Q 544 3141 544 3541 
Q 544 4100 942 4425 
Q 1341 4750 2034 4750 
Q 2731 4750 3128 4425 
Q 3525 4100 3525 3541 
Q 3525 3141 3298 2862 
Q 3072 2584 2669 2484 
Q 3125 2378 3379 2068 
Q 3634 1759 3634 1313 
Q 3634 634 3220 271 
Q 2806 -91 2034 -91 
Q 1263 -91 848 271 
Q 434 634 434 1313 
Q 434 1759 690 2068 
Q 947 2378 1403 2484 
z
M 1172 3481 
Q 1172 3119 1398 2916 
Q 1625 2713 2034 2713 
Q 2441 2713 2670 2916 
Q 2900 3119 2900 3481 
Q 2900 3844 2670 4047 
Q 2441 4250 2034 4250 
Q 1625 4250 1398 4047 
Q 1172 3844 1172 3481 
z
" transform="scale(0.015625)"/>
        <path id="DejaVuSans-30" d="M 2034 4250 
Q 1547 4250 1301 3770 
Q 1056 3291 1056 2328 
Q 1056 1369 1301 889 
Q 1547 409 2034 409 
Q 2525 409 2770 889 
Q 3016 1369 3016 2328 
Q 3016 3291 2770 3770 
Q 2525 4250 2034 4250 
z
M 2034 4750 
Q 2819 4750 3233 4129 
Q 3647 3509 3647 2328 
Q 3647 1150 3233 529 
Q 2819 -91 2034 -91 
Q 1250 -91 836 529 
Q 422 1150 422 2328 
Q 422 3509 836 4129 
Q 1250 4750 2034 4750 
z
" transform="scale(0.015625)"/>
       </defs>
       <use xlink:href="#DejaVuSans-38"/>
       <use xlink:href="#DejaVuSans-30" x="63.623047"/>
       <use xlink:href="#DejaVuSans-30" x="127.246094"/>
      </g>
     </g>
    </g>
    <g id="ytick_2">
     <g id="line2d_2">
      <path d="M 58.32 322.583981 
L 851.04 322.583981 
" clip-path="url(#pa52e8f8d9c)" style="fill: none; stroke: #cccccc; stroke-linecap: round"/>
     </g>
     <g id="text_7">
      <!-- 805 -->
      <g style="fill: #262626" transform="translate(27.82375 326.763121) scale(0.11 -0.11)">
       <use xlink:href="#DejaVuSans-38"/>
       <use xlink:href="#DejaVuSans-30" x="63.623047"/>
       <use xlink:href="#DejaVuSans-35" x="127.246094"/>
      </g>
     </g>
    </g>
    <g id="ytick_3">
     <g id="line2d_3">
      <path d="M 58.32 250.059474 
L 851.04 250.059474 
" clip-path="url(#pa52e8f8d9c)" style="fill: none; stroke: #cccccc; stroke-linecap: round"/>
     </g>
     <g id="text_8">
      <!-- 810 -->
      <g style="fill: #262626" transform="translate(27.82375 254.238615) scale(0.11 -0.11)">
       <use xlink:href="#DejaVuSans-38"/>
       <use xlink:href="#DejaVuSans-31" x="63.623047"/>
       <use xlink:href="#DejaVuSans-30" x="127.246094"/>
      </g>
     </g>
    </g>
    <g id="ytick_4">
     <g id="line2d_4">
      <path d="M 58.32 177.534967 
L 851.04 177.534967 
" clip-path="url(#pa52e8f8d9c)" style="fill: none; stroke: #cccccc; stroke-linecap: round"/>
     </g>
     <g id="text_9">
      <!-- 815 -->
      <g style="fill: #262626" transform="translate(27.82375 181.714108) scale(0.11 -0.11)">
       <use xlink:href="#DejaVuSans-38"/>
       <use xlink:href="#DejaVuSans-31" x="63.623047"/>
       <use xlink:href="#DejaVuSans-35" x="127.246094"/>
      </g>
     </g>
    </g>
    <g id="ytick_5">
     <g id="line2d_5">
      <path d="M 58.32 105.010461 
L 851.04 105.010461 
" clip-path="url(#pa52e8f8d9c)" style="fill: none; stroke: #cccccc; stroke-linecap: round"/>
     </g>
     <g id="text_10">
      <!-- 820 -->
      <g style="fill: #262626" transform="translate(27.82375 109.189602) scale(0.11 -0.11)">
       <use xlink:href="#DejaVuSans-38"/>
       <use xlink:href="#DejaVuSans-32" x="63.623047"/>
       <use xlink:href="#DejaVuSans-30" x="127.246094"/>
      </g>
     </g>
    </g>
    <g id="ytick_6">
     <g id="line2d_6">
      <path d="M 58.32 32.485954 
L 851.04 32.485954 
" clip-path="url(#pa52e8f8d9c)" style="fill: none; stroke: #cccccc; stroke-linecap: round"/>
     </g>
     <g id="text_11">
      <!-- 825 -->
      <g style="fill: #262626" transform="translate(27.82375 36.665095) scale(0.11 -0.11)">
       <use xlink:href="#DejaVuSans-38"/>
       <use xlink:href="#DejaVuSans-32" x="63.623047"/>
       <use xlink:href="#DejaVuSans-35" x="127.246094"/>
      </g>
     </g>
    </g>
    <g id="text_12">
     <!-- Handshake duration (ms) -->
     <g style="fill: #262626" transform="translate(21.328125 287.437813) rotate(-90) scale(0.12 -0.12)">
      <defs>
       <path id="DejaVuSans-48" d="M 628 4666 
L 1259 4666 
L 1259 2753 
L 3553 2753 
L 3553 4666 
L 4184 4666 
L 4184 0 
L 3553 0 
L 3553 2222 
L 1259 2222 
L 1259 0 
L 628 0 
L 628 4666 
z
" transform="scale(0.015625)"/>
       <path id="DejaVuSans-61" d="M 2194 1759 
Q 1497 1759 1228 1600 
Q 959 1441 959 1056 
Q 959 750 1161 570 
Q 1363 391 1709 391 
Q 2188 391 2477 730 
Q 2766 1069 2766 1631 
L 2766 1759 
L 2194 1759 
z
M 3341 1997 
L 3341 0 
L 2766 0 
L 2766 531 
Q 2569 213 2275 61 
Q 1981 -91 1556 -91 
Q 1019 -91 701 211 
Q 384 513 384 1019 
Q 384 1609 779 1909 
Q 1175 2209 1959 2209 
L 2766 2209 
L 2766 2266 
Q 2766 2663 2505 2880 
Q 2244 3097 1772 3097 
Q 1472 3097 1187 3025 
Q 903 2953 641 2809 
L 641 3341 
Q 956 3463 1253 3523 
Q 1550 3584 1831 3584 
Q 2591 3584 2966 3190 
Q 3341 2797 3341 1997 
z
" transform="scale(0.015625)"/>
       <path id="DejaVuSans-6e" d="M 3513 2113 
L 3513 0 
L 2938 0 
L 2938 2094 
Q 2938 2591 2744 2837 
Q 2550 3084 2163 3084 
Q 1697 3084 1428 2787 
Q 1159 2491 1159 1978 
L 1159 0 
L 581 0 
L 581 3500 
L 1159 3500 
L 1159 2956 
Q 1366 3272 1645 3428 
Q 1925 3584 2291 3584 
Q 2894 3584 3203 3211 
Q 3513 2838 3513 2113 
z
" transform="scale(0.015625)"/>
       <path id="DejaVuSans-64" d="M 2906 2969 
L 2906 4863 
L 3481 4863 
L 3481 0 
L 2906 0 
L 2906 525 
Q 2725 213 2448 61 
Q 2172 -91 1784 -91 
Q 1150 -91 751 415 
Q 353 922 353 1747 
Q 353 2572 751 3078 
Q 1150 3584 1784 3584 
Q 2172 3584 2448 3432 
Q 2725 3281 2906 2969 
z
M 947 1747 
Q 947 1113 1208 752 
Q 1469 391 1925 391 
Q 2381 391 2643 752 
Q 2906 1113 2906 1747 
Q 2906 2381 2643 2742 
Q 2381 3103 1925 3103 
Q 1469 3103 1208 2742 
Q 947 2381 947 1747 
z
" transform="scale(0.015625)"/>
       <path id="DejaVuSans-73" d="M 2834 3397 
L 2834 2853 
Q 2591 2978 2328 3040 
Q 2066 3103 1784 3103 
Q 1356 3103 1142 2972 
Q 928 2841 928 2578 
Q 928 2378 1081 2264 
Q 1234 2150 1697 2047 
L 1894 2003 
Q 2506 1872 2764 1633 
Q 3022 1394 3022 966 
Q 3022 478 2636 193 
Q 2250 -91 1575 -91 
Q 1294 -91 989 -36 
Q 684 19 347 128 
L 347 722 
Q 666 556 975 473 
Q 1284 391 1588 391 
Q 1994 391 2212 530 
Q 2431 669 2431 922 
Q 2431 1156 2273 1281 
Q 2116 1406 1581 1522 
L 1381 1569 
Q 847 1681 609 1914 
Q 372 2147 372 2553 
Q 372 3047 722 3315 
Q 1072 3584 1716 3584 
Q 2034 3584 2315 3537 
Q 2597 3491 2834 3397 
z
" transform="scale(0.015625)"/>
       <path id="DejaVuSans-68" d="M 3513 2113 
L 3513 0 
L 2938 0 
L 2938 2094 
Q 2938 2591 2744 2837 
Q 2550 3084 2163 3084 
Q 1697 3084 1428 2787 
Q 1159 2491 1159 1978 
L 1159 0 
L 581 0 
L 581 4863 
L 1159 4863 
L 1159 2956 
Q 1366 3272 1645 3428 
Q 1925 3584 2291 3584 
Q 2894 3584 3203 3211 
Q 3513 2838 3513 2113 
z
" transform="scale(0.015625)"/>
       <path id="DejaVuSans-20" transform="scale(0.015625)"/>
       <path id="DejaVuSans-75" d="M 544 1381 
L 544 3500 
L 1119 3500 
L 1119 1403 
Q 1119 906 1312 657 
Q 1506 409 1894 409 
Q 2359 409 2629 706 
Q 2900 1003 2900 1516 
L 2900 3500 
L 3475 3500 
L 3475 0 
L 2900 0 
L 2900 538 
Q 2691 219 2414 64 
Q 2138 -91 1772 -91 
Q 1169 -91 856 284 
Q 544 659 544 1381 
z
M 1991 3584 
L 1991 3584 
z
" transform="scale(0.015625)"/>
       <path id="DejaVuSans-72" d="M 2631 2963 
Q 2534 3019 2420 3045 
Q 2306 3072 2169 3072 
Q 1681 3072 1420 2755 
Q 1159 2438 1159 1844 
L 1159 0 
L 581 0 
L 581 3500 
L 1159 3500 
L 1159 2956 
Q 1341 3275 1631 3429 
Q 1922 3584 2338 3584 
Q 2397 3584 2469 3576 
Q 2541 3569 2628 3553 
L 2631 2963 
z
" transform="scale(0.015625)"/>
       <path id="DejaVuSans-74" d="M 1172 4494 
L 1172 3500 
L 2356 3500 
L 2356 3053 
L 1172 3053 
L 1172 1153 
Q 1172 725 1289 603 
Q 1406 481 1766 481 
L 2356 481 
L 2356 0 
L 1766 0 
Q 1100 0 847 248 
Q 594 497 594 1153 
L 594 3053 
L 172 3053 
L 172 3500 
L 594 3500 
L 594 4494 
L 1172 4494 
z
" transform="scale(0.015625)"/>
       <path id="DejaVuSans-69" d="M 603 3500 
L 1178 3500 
L 1178 0 
L 603 0 
L 603 3500 
z
M 603 4863 
L 1178 4863 
L 1178 4134 
L 603 4134 
L 603 4863 
z
" transform="scale(0.015625)"/>
       <path id="DejaVuSans-6f" d="M 1959 3097 
Q 1497 3097 1228 2736 
Q 959 2375 959 1747 
Q 959 1119 1226 758 
Q 1494 397 1959 397 
Q 2419 397 2687 759 
Q 2956 1122 2956 1747 
Q 2956 2369 2687 2733 
Q 2419 3097 1959 3097 
z
M 1959 3584 
Q 2709 3584 3137 3096 
Q 3566 2609 3566 1747 
Q 3566 888 3137 398 
Q 2709 -91 1959 -91 
Q 1206 -91 779 398 
Q 353 888 353 1747 
Q 353 2609 779 3096 
Q 1206 3584 1959 3584 
z
" transform="scale(0.015625)"/>
       <path id="DejaVuSans-28" d="M 1984 4856 
Q 1566 4138 1362 3434 
Q 1159 2731 1159 2009 
Q 1159 1288 1364 580 
Q 1569 -128 1984 -844 
L 1484 -844 
Q 1016 -109 783 600 
Q 550 1309 550 2009 
Q 550 2706 781 3412 
Q 1013 4119 1484 4856 
L 1984 4856 
z
" transform="scale(0.015625)"/>
       <path id="DejaVuSans-29" d="M 513 4856 
L 1013 4856 
Q 1481 4119 1714 3412 
Q 1947 2706 1947 2009 
Q 1947 1309 1714 600 
Q 1481 -109 1013 -844 
L 513 -844 
Q 928 -128 1133 580 
Q 1338 1288 1338 2009 
Q 1338 2731 1133 3434 
Q 928 4138 513 4856 
z
" transform="scale(0.015625)"/>
      </defs>
      <use xlink:href="#DejaVuSans-48"/>
      <use xlink:href="#DejaVuSans-61" x="75.195312"/>
      <use xlink:href="#DejaVuSans-6e" x="136.474609"/>
      <use xlink:href="#DejaVuSans-64" x="199.853516"/>
      <use xlink:href="#DejaVuSans-73" x="263.330078"/>
      <use xlink:href="#DejaVuSans-68" x="315.429688"/>
      <use xlink:href="#DejaVuSans-61" x="378.808594"/>
      <use xlink:href="#DejaVuSans-6b" x="440.087891"/>
      <use xlink:href="#DejaVuSans-65" x="494.373047"/>
      <use xlink:href="#DejaVuSans-20" x="555.896484"/>
      <use xlink:href="#DejaVuSans-64" x="587.683594"/>
      <use xlink:href="#DejaVuSans-75" x="651.160156"/>
      <use xlink:href="#DejaVuSans-72" x="714.539062"/>
      <use xlink:href="#DejaVuSans-61" x="755.652344"/>
      <use xlink:href="#DejaVuSans-74" x="816.931641"/>
      <use xlink:href="#DejaVuSans-69" x="856.140625"/>
      <use xlink:href="#DejaVuSans-6f" x="883.923828"/>
      <use xlink:href="#DejaVuSans-6e" x="945.105469"/>
      <use xlink:href="#DejaVuSans-20" x="1008.484375"/>
      <use xlink:href="#DejaVuSans-28" x="1040.271484"/>
      <use xlink:href="#DejaVuSans-6d" x="1079.285156"/>
      <use xlink:href="#DejaVuSans-73" x="1176.697266"/>
      <use xlink:href="#DejaVuSans-29" x="1228.796875"/>
     </g>
    </g>
   </g>
   <g id="PolyCollection_1">
    <defs>
     <path id="mf9ee0d208f" d="M 137.639799 -57.430305 
L 137.544201 -57.430305 
L 137.503269 -58.588942 
L 137.440655 -59.747579 
L 137.354051 -60.906216 
L 137.24578 -62.064852 
L 137.123514 -63.223489 
L 136.99905 -64.382126 
L 136.885503 -65.540763 
L 136.794277 -66.6994 
L 136.733187 -67.858037 
L 136.706085 -69.016674 
L 136.713197 -70.175311 
L 136.751161 -71.333948 
L 136.812715 -72.492585 
L 136.887086 -73.651222 
L 136.962117 -74.809859 
L 137.027656 -75.968496 
L 137.07808 -77.127133 
L 137.111814 -78.28577 
L 137.127744 -79.444406 
L 137.121083 -80.603043 
L 137.082029 -81.76168 
L 136.998728 -82.920317 
L 136.862838 -84.078954 
L 136.673955 -85.237591 
L 136.439715 -86.396228 
L 136.171177 -87.554865 
L 135.876151 -88.713502 
L 135.554635 -89.872139 
L 135.199326 -91.030776 
L 134.801006 -92.189413 
L 134.355747 -93.34805 
L 133.870386 -94.506687 
L 133.36461 -95.665324 
L 132.87005 -96.82396 
L 132.42698 -97.982597 
L 132.07814 -99.141234 
L 131.859325 -100.299871 
L 131.788475 -101.458508 
L 131.857145 -102.617145 
L 132.027539 -103.775782 
L 132.234799 -104.934419 
L 132.391089 -106.093056 
L 132.388701 -107.251693 
L 132.10367 -108.41033 
L 131.405024 -109.568967 
L 130.17266 -110.727604 
L 128.318407 -111.886241 
L 125.79675 -113.044878 
L 122.593823 -114.203514 
L 118.699482 -115.362151 
L 114.087518 -116.520788 
L 108.734402 -117.679425 
L 102.685819 -118.838062 
L 96.143181 -119.996699 
L 89.51668 -121.155336 
L 83.399452 -122.313973 
L 78.456266 -123.47261 
L 75.26512 -124.631247 
L 74.1744 -125.789884 
L 75.230527 -126.948521 
L 78.19817 -128.107158 
L 82.654491 -129.265795 
L 88.110364 -130.424432 
L 94.108472 -131.583068 
L 100.27031 -132.741705 
L 106.295717 -133.900342 
L 111.939964 -135.058979 
L 116.99506 -136.217616 
L 121.289116 -137.376253 
L 124.702393 -138.53489 
L 127.189548 -139.693527 
L 128.796162 -140.852164 
L 129.660943 -142.010801 
L 129.999577 -143.169438 
L 130.070303 -144.328075 
L 130.125863 -145.486712 
L 130.362304 -146.645349 
L 130.88012 -147.803985 
L 131.67236 -148.962622 
L 132.645011 -150.121259 
L 133.660945 -151.279896 
L 134.588819 -152.438533 
L 135.338503 -153.59717 
L 135.874002 -154.755807 
L 136.206492 -155.914444 
L 136.377181 -157.073081 
L 136.43983 -158.231718 
L 136.448181 -159.390355 
L 136.448473 -160.548992 
L 136.474892 -161.707629 
L 136.546504 -162.866266 
L 136.666097 -164.024903 
L 136.82216 -165.183539 
L 136.994266 -166.342176 
L 137.16029 -167.500813 
L 137.302858 -168.65945 
L 137.41289 -169.818087 
L 137.489624 -170.976724 
L 137.538122 -172.135361 
L 137.645878 -172.135361 
L 137.645878 -172.135361 
L 137.694376 -170.976724 
L 137.77111 -169.818087 
L 137.881142 -168.65945 
L 138.02371 -167.500813 
L 138.189734 -166.342176 
L 138.36184 -165.183539 
L 138.517903 -164.024903 
L 138.637496 -162.866266 
L 138.709108 -161.707629 
L 138.735527 -160.548992 
L 138.735819 -159.390355 
L 138.74417 -158.231718 
L 138.806819 -157.073081 
L 138.977508 -155.914444 
L 139.309998 -154.755807 
L 139.845497 -153.59717 
L 140.595181 -152.438533 
L 141.523055 -151.279896 
L 142.538989 -150.121259 
L 143.51164 -148.962622 
L 144.30388 -147.803985 
L 144.821696 -146.645349 
L 145.058137 -145.486712 
L 145.113697 -144.328075 
L 145.184423 -143.169438 
L 145.523057 -142.010801 
L 146.387838 -140.852164 
L 147.994452 -139.693527 
L 150.481607 -138.53489 
L 153.894884 -137.376253 
L 158.18894 -136.217616 
L 163.244036 -135.058979 
L 168.888283 -133.900342 
L 174.91369 -132.741705 
L 181.075528 -131.583068 
L 187.073636 -130.424432 
L 192.529509 -129.265795 
L 196.98583 -128.107158 
L 199.953473 -126.948521 
L 201.0096 -125.789884 
L 199.91888 -124.631247 
L 196.727734 -123.47261 
L 191.784548 -122.313973 
L 185.66732 -121.155336 
L 179.040819 -119.996699 
L 172.498181 -118.838062 
L 166.449598 -117.679425 
L 161.096482 -116.520788 
L 156.484518 -115.362151 
L 152.590177 -114.203514 
L 149.38725 -113.044878 
L 146.865593 -111.886241 
L 145.01134 -110.727604 
L 143.778976 -109.568967 
L 143.08033 -108.41033 
L 142.795299 -107.251693 
L 142.792911 -106.093056 
L 142.949201 -104.934419 
L 143.156461 -103.775782 
L 143.326855 -102.617145 
L 143.395525 -101.458508 
L 143.324675 -100.299871 
L 143.10586 -99.141234 
L 142.75702 -97.982597 
L 142.31395 -96.82396 
L 141.81939 -95.665324 
L 141.313614 -94.506687 
L 140.828253 -93.34805 
L 140.382994 -92.189413 
L 139.984674 -91.030776 
L 139.629365 -89.872139 
L 139.307849 -88.713502 
L 139.012823 -87.554865 
L 138.744285 -86.396228 
L 138.510045 -85.237591 
L 138.321162 -84.078954 
L 138.185272 -82.920317 
L 138.101971 -81.76168 
L 138.062917 -80.603043 
L 138.056256 -79.444406 
L 138.072186 -78.28577 
L 138.10592 -77.127133 
L 138.156344 -75.968496 
L 138.221883 -74.809859 
L 138.296914 -73.651222 
L 138.371285 -72.492585 
L 138.432839 -71.333948 
L 138.470803 -70.175311 
L 138.477915 -69.016674 
L 138.450813 -67.858037 
L 138.389723 -66.6994 
L 138.298497 -65.540763 
L 138.18495 -64.382126 
L 138.060486 -63.223489 
L 137.93822 -62.064852 
L 137.829949 -60.906216 
L 137.743345 -59.747579 
L 137.680731 -58.588942 
L 137.639799 -57.430305 
z
" style="stroke: #595959; stroke-width: 1.25"/>
    </defs>
    <g clip-path="url(#pa52e8f8d9c)">
     <use xlink:href="#mf9ee0d208f" x="0" y="432" style="fill: #72b6a1; stroke: #595959; stroke-width: 1.25"/>
    </g>
   </g>
   <g id="PolyCollection_2">
    <defs>
     <path id="m63f2f875cf" d="M 296.207468 -57.834584 
L 296.064532 -57.834584 
L 296.011625 -58.94403 
L 295.930634 -60.053475 
L 295.813418 -61.162921 
L 295.652559 -62.272367 
L 295.442536 -63.381812 
L 295.180739 -64.491258 
L 294.868142 -65.600704 
L 294.509637 -66.71015 
L 294.114143 -67.819595 
L 293.694592 -68.929041 
L 293.267807 -70.038487 
L 292.85407 -71.147932 
L 292.476063 -72.257378 
L 292.156866 -73.366824 
L 291.916949 -74.47627 
L 291.77047 -75.585715 
L 291.721701 -76.695161 
L 291.762689 -77.804607 
L 291.873088 -78.914052 
L 292.022537 -80.023498 
L 292.175057 -81.132944 
L 292.294328 -82.24239 
L 292.348528 -83.351835 
L 292.313828 -84.461281 
L 292.176331 -85.570727 
L 291.932791 -86.680172 
L 291.590521 -87.789618 
L 291.166607 -88.899064 
L 290.68614 -90.00851 
L 290.179077 -91.117955 
L 289.6758 -92.227401 
L 289.202037 -93.336847 
L 288.774257 -94.446292 
L 288.396457 -95.555738 
L 288.05869 -96.665184 
L 287.737057 -97.77463 
L 287.394732 -98.884075 
L 286.983776 -99.993521 
L 286.447665 -101.102967 
L 285.724255 -102.212412 
L 284.748517 -103.321858 
L 283.454172 -104.431304 
L 281.773945 -105.54075 
L 279.639365 -106.650195 
L 276.982403 -107.759641 
L 273.741946 -108.869087 
L 269.877503 -109.978532 
L 265.390415 -111.087978 
L 260.34947 -112.197424 
L 254.914005 -113.30687 
L 249.345171 -114.416315 
L 243.996639 -115.525761 
L 239.280667 -116.635207 
L 235.613031 -117.744652 
L 233.347937 -118.854098 
L 232.7184 -119.963544 
L 233.796668 -121.07299 
L 236.483668 -122.182435 
L 240.528592 -123.291881 
L 245.572405 -124.401327 
L 251.204479 -125.510772 
L 257.020146 -126.620218 
L 262.668589 -127.729664 
L 267.884115 -128.83911 
L 272.498452 -129.948555 
L 276.436102 -131.058001 
L 279.697859 -132.167447 
L 282.33876 -133.276892 
L 284.445904 -134.386338 
L 286.11956 -135.495784 
L 287.458821 -136.60523 
L 288.551679 -137.714675 
L 289.468863 -138.824121 
L 290.260966 -139.933567 
L 290.958493 -141.043012 
L 291.574526 -142.152458 
L 292.109461 -143.261904 
L 292.557134 -144.37135 
L 292.911444 -145.480795 
L 293.172323 -146.590241 
L 293.349781 -147.699687 
L 293.464802 -148.809132 
L 293.546618 -149.918578 
L 293.626993 -151.028024 
L 293.733323 -152.13747 
L 293.882869 -153.246915 
L 294.080019 -154.356361 
L 294.317225 -155.465807 
L 294.578863 -156.575252 
L 294.846308 -157.684698 
L 295.102444 -158.794144 
L 295.334464 -159.90359 
L 295.534742 -161.013035 
L 295.700309 -162.122481 
L 295.831695 -163.231927 
L 295.931752 -164.341372 
L 296.004708 -165.450818 
L 296.055459 -166.560264 
L 296.089008 -167.66971 
L 296.182992 -167.66971 
L 296.182992 -167.66971 
L 296.216541 -166.560264 
L 296.267292 -165.450818 
L 296.340248 -164.341372 
L 296.440305 -163.231927 
L 296.571691 -162.122481 
L 296.737258 -161.013035 
L 296.937536 -159.90359 
L 297.169556 -158.794144 
L 297.425692 -157.684698 
L 297.693137 -156.575252 
L 297.954775 -155.465807 
L 298.191981 -154.356361 
L 298.389131 -153.246915 
L 298.538677 -152.13747 
L 298.645007 -151.028024 
L 298.725382 -149.918578 
L 298.807198 -148.809132 
L 298.922219 -147.699687 
L 299.099677 -146.590241 
L 299.360556 -145.480795 
L 299.714866 -144.37135 
L 300.162539 -143.261904 
L 300.697474 -142.152458 
L 301.313507 -141.043012 
L 302.011034 -139.933567 
L 302.803137 -138.824121 
L 303.720321 -137.714675 
L 304.813179 -136.60523 
L 306.15244 -135.495784 
L 307.826096 -134.386338 
L 309.93324 -133.276892 
L 312.574141 -132.167447 
L 315.835898 -131.058001 
L 319.773548 -129.948555 
L 324.387885 -128.83911 
L 329.603411 -127.729664 
L 335.251854 -126.620218 
L 341.067521 -125.510772 
L 346.699595 -124.401327 
L 351.743408 -123.291881 
L 355.788332 -122.182435 
L 358.475332 -121.07299 
L 359.5536 -119.963544 
L 358.924063 -118.854098 
L 356.658969 -117.744652 
L 352.991333 -116.635207 
L 348.275361 -115.525761 
L 342.926829 -114.416315 
L 337.357995 -113.30687 
L 331.92253 -112.197424 
L 326.881585 -111.087978 
L 322.394497 -109.978532 
L 318.530054 -108.869087 
L 315.289597 -107.759641 
L 312.632635 -106.650195 
L 310.498055 -105.54075 
L 308.817828 -104.431304 
L 307.523483 -103.321858 
L 306.547745 -102.212412 
L 305.824335 -101.102967 
L 305.288224 -99.993521 
L 304.877268 -98.884075 
L 304.534943 -97.77463 
L 304.21331 -96.665184 
L 303.875543 -95.555738 
L 303.497743 -94.446292 
L 303.069963 -93.336847 
L 302.5962 -92.227401 
L 302.092923 -91.117955 
L 301.58586 -90.00851 
L 301.105393 -88.899064 
L 300.681479 -87.789618 
L 300.339209 -86.680172 
L 300.095669 -85.570727 
L 299.958172 -84.461281 
L 299.923472 -83.351835 
L 299.977672 -82.24239 
L 300.096943 -81.132944 
L 300.249463 -80.023498 
L 300.398912 -78.914052 
L 300.509311 -77.804607 
L 300.550299 -76.695161 
L 300.50153 -75.585715 
L 300.355051 -74.47627 
L 300.115134 -73.366824 
L 299.795937 -72.257378 
L 299.41793 -71.147932 
L 299.004193 -70.038487 
L 298.577408 -68.929041 
L 298.157857 -67.819595 
L 297.762363 -66.71015 
L 297.403858 -65.600704 
L 297.091261 -64.491258 
L 296.829464 -63.381812 
L 296.619441 -62.272367 
L 296.458582 -61.162921 
L 296.341366 -60.053475 
L 296.260375 -58.94403 
L 296.207468 -57.834584 
z
" style="stroke: #595959; stroke-width: 1.25"/>
    </defs>
    <g clip-path="url(#pa52e8f8d9c)">
     <use xlink:href="#m63f2f875cf" x="0" y="432" style="fill: #e99675; stroke: #595959; stroke-width: 1.25"/>
    </g>
   </g>
   <g id="PolyCollection_3">
    <defs>
     <path id="mf31cef2e1c" d="M 454.721551 -157.643731 
L 454.638449 -157.643731 
L 454.605511 -159.967467 
L 454.558827 -162.291204 
L 454.500649 -164.61494 
L 454.437111 -166.938677 
L 454.37569 -169.262413 
L 454.320015 -171.586149 
L 454.264585 -173.909886 
L 454.193505 -176.233622 
L 454.086141 -178.557359 
L 453.92855 -180.881095 
L 453.724756 -183.204832 
L 453.500129 -185.528568 
L 453.29257 -187.852304 
L 453.134624 -190.176041 
L 453.035991 -192.499777 
L 452.976208 -194.823514 
L 452.910977 -197.14725 
L 452.787809 -199.470986 
L 452.562935 -201.794723 
L 452.213266 -204.118459 
L 451.741207 -206.442196 
L 451.17243 -208.765932 
L 450.547198 -211.089669 
L 449.906473 -213.413405 
L 449.27661 -215.737141 
L 448.659133 -218.060878 
L 448.031799 -220.384614 
L 447.362071 -222.708351 
L 446.62685 -225.032087 
L 445.827448 -227.355824 
L 444.989694 -229.67956 
L 444.145263 -232.003296 
L 443.299366 -234.327033 
L 442.398973 -236.650769 
L 441.320314 -238.974506 
L 439.888223 -241.298242 
L 437.921629 -243.621978 
L 435.279793 -245.945715 
L 431.881426 -248.269451 
L 427.692178 -250.593188 
L 422.709282 -252.916924 
L 416.984442 -255.240661 
L 410.699227 -257.564397 
L 404.256652 -259.888133 
L 398.316878 -262.21187 
L 393.715747 -264.535606 
L 391.2624 -266.859343 
L 391.484514 -269.183079 
L 394.432109 -271.506815 
L 399.634048 -273.830552 
L 406.231333 -276.154288 
L 413.228491 -278.478025 
L 419.756969 -280.801761 
L 425.254895 -283.125498 
L 429.519803 -285.449234 
L 432.648453 -287.77297 
L 434.913176 -290.096707 
L 436.631046 -292.420443 
L 438.068514 -294.74418 
L 439.39992 -297.067916 
L 440.713006 -299.391652 
L 442.038168 -301.715389 
L 443.377196 -304.039125 
L 444.718741 -306.362862 
L 446.041469 -308.686598 
L 447.31283 -311.010335 
L 448.490609 -313.334071 
L 449.529911 -315.657807 
L 450.393756 -317.981544 
L 451.062981 -320.30528 
L 451.541375 -322.629017 
L 451.854727 -324.952753 
L 452.045367 -327.276489 
L 452.164638 -329.600226 
L 452.264609 -331.923962 
L 452.389473 -334.247699 
L 452.567822 -336.571435 
L 452.808125 -338.895172 
L 453.099326 -341.218908 
L 453.41641 -343.542644 
L 453.728776 -345.866381 
L 454.008528 -348.190117 
L 454.23636 -350.513854 
L 454.40381 -352.83759 
L 454.511929 -355.161327 
L 454.567725 -357.485063 
L 454.580503 -359.808799 
L 454.559959 -362.132536 
L 454.516496 -364.456272 
L 454.462471 -366.780009 
L 454.412286 -369.103745 
L 454.380014 -371.427481 
L 454.375251 -373.751218 
L 454.399654 -376.074954 
L 454.446533 -378.398691 
L 454.504006 -380.722427 
L 454.559911 -383.046164 
L 454.605828 -385.3699 
L 454.638533 -387.693636 
L 454.721467 -387.693636 
L 454.721467 -387.693636 
L 454.754172 -385.3699 
L 454.800089 -383.046164 
L 454.855994 -380.722427 
L 454.913467 -378.398691 
L 454.960346 -376.074954 
L 454.984749 -373.751218 
L 454.979986 -371.427481 
L 454.947714 -369.103745 
L 454.897529 -366.780009 
L 454.843504 -364.456272 
L 454.800041 -362.132536 
L 454.779497 -359.808799 
L 454.792275 -357.485063 
L 454.848071 -355.161327 
L 454.95619 -352.83759 
L 455.12364 -350.513854 
L 455.351472 -348.190117 
L 455.631224 -345.866381 
L 455.94359 -343.542644 
L 456.260674 -341.218908 
L 456.551875 -338.895172 
L 456.792178 -336.571435 
L 456.970527 -334.247699 
L 457.095391 -331.923962 
L 457.195362 -329.600226 
L 457.314633 -327.276489 
L 457.505273 -324.952753 
L 457.818625 -322.629017 
L 458.297019 -320.30528 
L 458.966244 -317.981544 
L 459.830089 -315.657807 
L 460.869391 -313.334071 
L 462.04717 -311.010335 
L 463.318531 -308.686598 
L 464.641259 -306.362862 
L 465.982804 -304.039125 
L 467.321832 -301.715389 
L 468.646994 -299.391652 
L 469.96008 -297.067916 
L 471.291486 -294.74418 
L 472.728954 -292.420443 
L 474.446824 -290.096707 
L 476.711547 -287.77297 
L 479.840197 -285.449234 
L 484.105105 -283.125498 
L 489.603031 -280.801761 
L 496.131509 -278.478025 
L 503.128667 -276.154288 
L 509.725952 -273.830552 
L 514.927891 -271.506815 
L 517.875486 -269.183079 
L 518.0976 -266.859343 
L 515.644253 -264.535606 
L 511.043122 -262.21187 
L 505.103348 -259.888133 
L 498.660773 -257.564397 
L 492.375558 -255.240661 
L 486.650718 -252.916924 
L 481.667822 -250.593188 
L 477.478574 -248.269451 
L 474.080207 -245.945715 
L 471.438371 -243.621978 
L 469.471777 -241.298242 
L 468.039686 -238.974506 
L 466.961027 -236.650769 
L 466.060634 -234.327033 
L 465.214737 -232.003296 
L 464.370306 -229.67956 
L 463.532552 -227.355824 
L 462.73315 -225.032087 
L 461.997929 -222.708351 
L 461.328201 -220.384614 
L 460.700867 -218.060878 
L 460.08339 -215.737141 
L 459.453527 -213.413405 
L 458.812802 -211.089669 
L 458.18757 -208.765932 
L 457.618793 -206.442196 
L 457.146734 -204.118459 
L 456.797065 -201.794723 
L 456.572191 -199.470986 
L 456.449023 -197.14725 
L 456.383792 -194.823514 
L 456.324009 -192.499777 
L 456.225376 -190.176041 
L 456.06743 -187.852304 
L 455.859871 -185.528568 
L 455.635244 -183.204832 
L 455.43145 -180.881095 
L 455.273859 -178.557359 
L 455.166495 -176.233622 
L 455.095415 -173.909886 
L 455.039985 -171.586149 
L 454.98431 -169.262413 
L 454.922889 -166.938677 
L 454.859351 -164.61494 
L 454.801173 -162.291204 
L 454.754489 -159.967467 
L 454.721551 -157.643731 
z
" style="stroke: #595959; stroke-width: 1.25"/>
    </defs>
    <g clip-path="url(#pa52e8f8d9c)">
     <use xlink:href="#mf31cef2e1c" x="0" y="432" style="fill: #95a3c3; stroke: #595959; stroke-width: 1.25"/>
    </g>
   </g>
   <g id="PolyCollection_4">
    <defs>
     <path id="mc99ea281b9" d="M 613.261952 -73.170491 
L 613.186048 -73.170491 
L 613.153472 -74.062424 
L 613.104639 -74.954358 
L 613.038935 -75.846291 
L 612.958925 -76.738224 
L 612.86938 -77.630157 
L 612.775169 -78.522091 
L 612.679889 -79.414024 
L 612.586959 -80.305957 
L 612.502853 -81.197891 
L 612.439545 -82.089824 
L 612.412878 -82.981757 
L 612.436225 -83.873691 
L 612.512751 -84.765624 
L 612.631338 -85.657557 
L 612.769018 -86.549491 
L 612.898312 -87.441424 
L 612.994771 -88.333357 
L 613.040799 -89.225291 
L 613.025529 -90.117224 
L 612.943888 -91.009157 
L 612.798111 -91.901091 
L 612.601786 -92.793024 
L 612.382626 -93.684957 
L 612.17909 -94.576891 
L 612.029427 -95.468824 
L 611.957624 -96.360757 
L 611.964262 -97.252691 
L 612.027934 -98.144624 
L 612.116106 -99.036557 
L 612.198549 -99.928491 
L 612.255905 -100.820424 
L 612.28012 -101.712357 
L 612.268428 -102.604291 
L 612.215529 -103.496224 
L 612.109059 -104.388157 
L 611.932248 -105.280091 
L 611.674301 -106.172024 
L 611.343979 -107.063957 
L 610.977599 -107.955891 
L 610.633228 -108.847824 
L 610.370038 -109.739757 
L 610.222007 -110.631691 
L 610.181351 -111.523624 
L 610.203589 -112.415557 
L 610.233507 -113.307491 
L 610.237174 -114.199424 
L 610.219683 -115.091357 
L 610.216673 -115.983291 
L 610.264714 -116.875224 
L 610.368934 -117.767157 
L 610.486279 -118.659091 
L 610.53076 -119.551024 
L 610.393845 -120.442957 
L 609.967959 -121.334891 
L 609.164058 -122.226824 
L 607.918757 -123.118757 
L 606.188732 -124.010691 
L 603.932778 -124.902624 
L 601.089023 -125.794557 
L 597.563129 -126.686491 
L 593.244133 -127.578424 
L 588.053521 -128.470357 
L 582.015708 -129.362291 
L 575.324145 -130.254224 
L 568.37271 -131.146157 
L 561.72897 -132.038091 
L 556.044809 -132.930024 
L 551.926388 -133.821957 
L 549.8064 -134.713891 
L 549.863102 -135.605824 
L 552.010537 -136.497757 
L 555.954463 -137.389691 
L 561.283605 -138.281624 
L 567.556008 -139.173557 
L 574.34996 -140.065491 
L 581.274718 -140.957424 
L 587.963142 -141.849357 
L 594.076736 -142.741291 
L 599.336866 -143.633224 
L 603.568918 -144.525157 
L 606.731976 -145.41709 
L 608.914788 -146.309024 
L 610.299174 -147.200957 
L 611.107625 -148.09289 
L 611.554206 -148.984824 
L 611.810692 -149.876757 
L 611.991336 -150.76869 
L 612.154396 -151.660624 
L 612.315945 -152.552557 
L 612.469679 -153.44449 
L 612.605272 -154.336424 
L 612.719081 -155.228357 
L 612.815292 -156.12029 
L 612.900784 -157.012224 
L 612.979515 -157.904157 
L 613.050621 -158.79609 
L 613.110467 -159.688024 
L 613.156047 -160.579957 
L 613.187059 -161.47189 
L 613.260941 -161.47189 
L 613.260941 -161.47189 
L 613.291953 -160.579957 
L 613.337533 -159.688024 
L 613.397379 -158.79609 
L 613.468485 -157.904157 
L 613.547216 -157.012224 
L 613.632708 -156.12029 
L 613.728919 -155.228357 
L 613.842728 -154.336424 
L 613.978321 -153.44449 
L 614.132055 -152.552557 
L 614.293604 -151.660624 
L 614.456664 -150.76869 
L 614.637308 -149.876757 
L 614.893794 -148.984824 
L 615.340375 -148.09289 
L 616.148826 -147.200957 
L 617.533212 -146.309024 
L 619.716024 -145.41709 
L 622.879082 -144.525157 
L 627.111134 -143.633224 
L 632.371264 -142.741291 
L 638.484858 -141.849357 
L 645.173282 -140.957424 
L 652.09804 -140.065491 
L 658.891992 -139.173557 
L 665.164395 -138.281624 
L 670.493537 -137.389691 
L 674.437463 -136.497757 
L 676.584898 -135.605824 
L 676.6416 -134.713891 
L 674.521612 -133.821957 
L 670.403191 -132.930024 
L 664.71903 -132.038091 
L 658.07529 -131.146157 
L 651.123855 -130.254224 
L 644.432292 -129.362291 
L 638.394479 -128.470357 
L 633.203867 -127.578424 
L 628.884871 -126.686491 
L 625.358977 -125.794557 
L 622.515222 -124.902624 
L 620.259268 -124.010691 
L 618.529243 -123.118757 
L 617.283942 -122.226824 
L 616.480041 -121.334891 
L 616.054155 -120.442957 
L 615.91724 -119.551024 
L 615.961721 -118.659091 
L 616.079066 -117.767157 
L 616.183286 -116.875224 
L 616.231327 -115.983291 
L 616.228317 -115.091357 
L 616.210826 -114.199424 
L 616.214493 -113.307491 
L 616.244411 -112.415557 
L 616.266649 -111.523624 
L 616.225993 -110.631691 
L 616.077962 -109.739757 
L 615.814772 -108.847824 
L 615.470401 -107.955891 
L 615.104021 -107.063957 
L 614.773699 -106.172024 
L 614.515752 -105.280091 
L 614.338941 -104.388157 
L 614.232471 -103.496224 
L 614.179572 -102.604291 
L 614.16788 -101.712357 
L 614.192095 -100.820424 
L 614.249451 -99.928491 
L 614.331894 -99.036557 
L 614.420066 -98.144624 
L 614.483738 -97.252691 
L 614.490376 -96.360757 
L 614.418573 -95.468824 
L 614.26891 -94.576891 
L 614.065374 -93.684957 
L 613.846214 -92.793024 
L 613.649889 -91.901091 
L 613.504112 -91.009157 
L 613.422471 -90.117224 
L 613.407201 -89.225291 
L 613.453229 -88.333357 
L 613.549688 -87.441424 
L 613.678982 -86.549491 
L 613.816662 -85.657557 
L 613.935249 -84.765624 
L 614.011775 -83.873691 
L 614.035122 -82.981757 
L 614.008455 -82.089824 
L 613.945147 -81.197891 
L 613.861041 -80.305957 
L 613.768111 -79.414024 
L 613.672831 -78.522091 
L 613.57862 -77.630157 
L 613.489075 -76.738224 
L 613.409065 -75.846291 
L 613.343361 -74.954358 
L 613.294528 -74.062424 
L 613.261952 -73.170491 
z
" style="stroke: #595959; stroke-width: 1.25"/>
    </defs>
    <g clip-path="url(#pa52e8f8d9c)">
     <use xlink:href="#mc99ea281b9" x="0" y="432" style="fill: #db96c0; stroke: #595959; stroke-width: 1.25"/>
    </g>
   </g>
   <g id="PolyCollection_5">
    <defs>
     <path id="m38b340490e" d="M 772.068173 -53.566364 
L 771.467827 -53.566364 
L 771.280459 -54.750315 
L 771.005924 -55.934266 
L 770.62087 -57.118217 
L 770.104024 -58.302169 
L 769.440389 -59.48612 
L 768.625874 -60.670071 
L 767.671422 -61.854022 
L 766.605611 -63.037974 
L 765.474754 -64.221925 
L 764.339947 -65.405876 
L 763.271117 -66.589827 
L 762.338844 -67.773779 
L 761.605298 -68.95773 
L 761.115991 -70.141681 
L 760.893889 -71.325632 
L 760.937008 -72.509584 
L 761.2198 -73.693535 
L 761.697854 -74.877486 
L 762.314749 -76.061437 
L 763.009603 -77.245389 
L 763.723954 -78.42934 
L 764.407026 -79.613291 
L 765.019017 -80.797242 
L 765.532569 -81.981194 
L 765.932835 -83.165145 
L 766.216607 -84.349096 
L 766.39076 -85.533047 
L 766.470039 -86.716999 
L 766.474188 -87.90095 
L 766.424535 -89.084901 
L 766.340435 -90.268852 
L 766.236252 -91.452804 
L 766.119528 -92.636755 
L 765.990745 -93.820706 
L 765.844485 -95.004657 
L 765.671302 -96.188609 
L 765.459265 -97.37256 
L 765.194222 -98.556511 
L 764.858227 -99.740463 
L 764.426242 -100.924414 
L 763.86181 -102.108365 
L 763.112887 -103.292316 
L 762.109255 -104.476268 
L 760.762931 -105.660219 
L 758.972826 -106.84417 
L 756.634485 -108.028121 
L 753.655038 -109.212073 
L 749.972444 -110.396024 
L 745.576844 -111.579975 
L 740.530541 -112.763926 
L 734.982221 -113.947878 
L 729.17097 -115.131829 
L 723.416676 -116.31578 
L 718.095552 -117.499731 
L 713.60246 -118.683683 
L 710.304791 -119.867634 
L 708.495048 -121.051585 
L 708.3504 -122.235536 
L 709.906735 -123.419488 
L 713.052373 -124.603439 
L 717.542878 -125.78739 
L 723.034315 -126.971341 
L 729.128788 -128.155293 
L 735.423928 -129.339244 
L 741.557852 -130.523195 
L 747.242688 -131.707146 
L 752.282749 -132.891098 
L 756.576872 -134.075049 
L 760.107454 -135.259 
L 762.920721 -136.442951 
L 765.103456 -137.626903 
L 766.760833 -138.810854 
L 767.998681 -139.994805 
L 768.911747 -141.178756 
L 769.577979 -142.362708 
L 770.057679 -143.546659 
L 770.395799 -144.73061 
L 770.625618 -145.914561 
L 770.772409 -147.098513 
L 770.856287 -148.282464 
L 770.894001 -149.466415 
L 770.899852 -150.650366 
L 770.886125 -151.834318 
L 770.863362 -153.018269 
L 770.840609 -154.20222 
L 770.825625 -155.386171 
L 770.824875 -156.570123 
L 770.843255 -157.754074 
L 770.883581 -158.938025 
L 770.946084 -160.121976 
L 771.028188 -161.305928 
L 771.124782 -162.489879 
L 771.229025 -163.67383 
L 771.333519 -164.857781 
L 771.431529 -166.041733 
L 771.517954 -167.225684 
L 771.589837 -168.409635 
L 771.646363 -169.593586 
L 771.688467 -170.777538 
L 771.847533 -170.777538 
L 771.847533 -170.777538 
L 771.889637 -169.593586 
L 771.946163 -168.409635 
L 772.018046 -167.225684 
L 772.104471 -166.041733 
L 772.202481 -164.857781 
L 772.306975 -163.67383 
L 772.411218 -162.489879 
L 772.507812 -161.305928 
L 772.589916 -160.121976 
L 772.652419 -158.938025 
L 772.692745 -157.754074 
L 772.711125 -156.570123 
L 772.710375 -155.386171 
L 772.695391 -154.20222 
L 772.672638 -153.018269 
L 772.649875 -151.834318 
L 772.636148 -150.650366 
L 772.641999 -149.466415 
L 772.679713 -148.282464 
L 772.763591 -147.098513 
L 772.910382 -145.914561 
L 773.140201 -144.73061 
L 773.478321 -143.546659 
L 773.958021 -142.362708 
L 774.624253 -141.178756 
L 775.537319 -139.994805 
L 776.775167 -138.810854 
L 778.432544 -137.626903 
L 780.615279 -136.442951 
L 783.428546 -135.259 
L 786.959128 -134.075049 
L 791.253251 -132.891098 
L 796.293312 -131.707146 
L 801.978148 -130.523195 
L 808.112072 -129.339244 
L 814.407212 -128.155293 
L 820.501685 -126.971341 
L 825.993122 -125.78739 
L 830.483627 -124.603439 
L 833.629265 -123.419488 
L 835.1856 -122.235536 
L 835.040952 -121.051585 
L 833.231209 -119.867634 
L 829.93354 -118.683683 
L 825.440448 -117.499731 
L 820.119324 -116.31578 
L 814.36503 -115.131829 
L 808.553779 -113.947878 
L 803.005459 -112.763926 
L 797.959156 -111.579975 
L 793.563556 -110.396024 
L 789.880962 -109.212073 
L 786.901515 -108.028121 
L 784.563174 -106.84417 
L 782.773069 -105.660219 
L 781.426745 -104.476268 
L 780.423113 -103.292316 
L 779.67419 -102.108365 
L 779.109758 -100.924414 
L 778.677773 -99.740463 
L 778.341778 -98.556511 
L 778.076735 -97.37256 
L 777.864698 -96.188609 
L 777.691515 -95.004657 
L 777.545255 -93.820706 
L 777.416472 -92.636755 
L 777.299748 -91.452804 
L 777.195565 -90.268852 
L 777.111465 -89.084901 
L 777.061812 -87.90095 
L 777.065961 -86.716999 
L 777.14524 -85.533047 
L 777.319393 -84.349096 
L 777.603165 -83.165145 
L 778.003431 -81.981194 
L 778.516983 -80.797242 
L 779.128974 -79.613291 
L 779.812046 -78.42934 
L 780.526397 -77.245389 
L 781.221251 -76.061437 
L 781.838146 -74.877486 
L 782.3162 -73.693535 
L 782.598992 -72.509584 
L 782.642111 -71.325632 
L 782.420009 -70.141681 
L 781.930702 -68.95773 
L 781.197156 -67.773779 
L 780.264883 -66.589827 
L 779.196053 -65.405876 
L 778.061246 -64.221925 
L 776.930389 -63.037974 
L 775.864578 -61.854022 
L 774.910126 -60.670071 
L 774.095611 -59.48612 
L 773.431976 -58.302169 
L 772.91513 -57.118217 
L 772.530076 -55.934266 
L 772.255541 -54.750315 
L 772.068173 -53.566364 
z
" style="stroke: #595959; stroke-width: 1.25"/>
    </defs>
    <g clip-path="url(#pa52e8f8d9c)">
     <use xlink:href="#m38b340490e" x="0" y="432" style="fill: #a2c865; stroke: #595959; stroke-width: 1.25"/>
    </g>
   </g>
   <g id="line2d_7">
    <path d="M 137.592 310.835011 
L 137.592 324.759716 
" clip-path="url(#pa52e8f8d9c)" style="fill: none; stroke: #000000"/>
   </g>
   <g id="line2d_8">
    <path d="M 137.592 301.515611 
L 137.592 287.627168 
" clip-path="url(#pa52e8f8d9c)" style="fill: none; stroke: #000000"/>
   </g>
   <g id="line2d_9">
    <path d="M 131.6466 324.759716 
L 143.5374 324.759716 
" clip-path="url(#pa52e8f8d9c)" style="fill: none; stroke: #000000; stroke-linecap: round"/>
   </g>
   <g id="line2d_10">
    <path d="M 131.6466 287.627168 
L 143.5374 287.627168 
" clip-path="url(#pa52e8f8d9c)" style="fill: none; stroke: #000000; stroke-linecap: round"/>
   </g>
   <g id="line2d_11">
    <path d="M 296.136 319.102804 
L 296.136 334.478 
" clip-path="url(#pa52e8f8d9c)" style="fill: none; stroke: #000000"/>
   </g>
   <g id="line2d_12">
    <path d="M 296.136 308.514226 
L 296.136 292.848933 
" clip-path="url(#pa52e8f8d9c)" style="fill: none; stroke: #000000"/>
   </g>
   <g id="line2d_13">
    <path d="M 290.1906 334.478 
L 302.0814 334.478 
" clip-path="url(#pa52e8f8d9c)" style="fill: none; stroke: #000000; stroke-linecap: round"/>
   </g>
   <g id="line2d_14">
    <path d="M 290.1906 292.848933 
L 302.0814 292.848933 
" clip-path="url(#pa52e8f8d9c)" style="fill: none; stroke: #000000; stroke-linecap: round"/>
   </g>
   <g id="line2d_15">
    <path d="M 454.68 174.633987 
L 454.68 203.353692 
" clip-path="url(#pa52e8f8d9c)" style="fill: none; stroke: #000000"/>
   </g>
   <g id="line2d_16">
    <path d="M 454.68 155.342468 
L 454.68 126.912862 
" clip-path="url(#pa52e8f8d9c)" style="fill: none; stroke: #000000"/>
   </g>
   <g id="line2d_17">
    <path d="M 448.7346 203.353692 
L 460.6254 203.353692 
" clip-path="url(#pa52e8f8d9c)" style="fill: none; stroke: #000000; stroke-linecap: round"/>
   </g>
   <g id="line2d_18">
    <path d="M 448.7346 126.912862 
L 460.6254 126.912862 
" clip-path="url(#pa52e8f8d9c)" style="fill: none; stroke: #000000; stroke-linecap: round"/>
   </g>
   <g id="line2d_19">
    <path d="M 613.224 300.391482 
L 613.224 308.949373 
" clip-path="url(#pa52e8f8d9c)" style="fill: none; stroke: #000000"/>
   </g>
   <g id="line2d_20">
    <path d="M 613.224 294.335685 
L 613.224 287.33707 
" clip-path="url(#pa52e8f8d9c)" style="fill: none; stroke: #000000"/>
   </g>
   <g id="line2d_21">
    <path d="M 607.2786 308.949373 
L 619.1694 308.949373 
" clip-path="url(#pa52e8f8d9c)" style="fill: none; stroke: #000000; stroke-linecap: round"/>
   </g>
   <g id="line2d_22">
    <path d="M 607.2786 287.33707 
L 619.1694 287.33707 
" clip-path="url(#pa52e8f8d9c)" style="fill: none; stroke: #000000; stroke-linecap: round"/>
   </g>
   <g id="line2d_23">
    <path d="M 771.768 320.081885 
L 771.768 336.508686 
" clip-path="url(#pa52e8f8d9c)" style="fill: none; stroke: #000000"/>
   </g>
   <g id="line2d_24">
    <path d="M 771.768 307.970293 
L 771.768 290.673198 
" clip-path="url(#pa52e8f8d9c)" style="fill: none; stroke: #000000"/>
   </g>
   <g id="line2d_25">
    <path d="M 765.8226 336.508686 
L 777.7134 336.508686 
" clip-path="url(#pa52e8f8d9c)" style="fill: none; stroke: #000000; stroke-linecap: round"/>
   </g>
   <g id="line2d_26">
    <path d="M 765.8226 290.673198 
L 777.7134 290.673198 
" clip-path="url(#pa52e8f8d9c)" style="fill: none; stroke: #000000; stroke-linecap: round"/>
   </g>
   <g id="line2d_27">
    <path d="M 125.7012 306.120918 
L 149.4828 306.120918 
" clip-path="url(#pa52e8f8d9c)" style="fill: none; stroke: #ff0000; stroke-width: 2"/>
   </g>
   <g id="line2d_28">
    <path d="M 284.2452 313.155795 
L 308.0268 313.155795 
" clip-path="url(#pa52e8f8d9c)" style="fill: none; stroke: #ff0000; stroke-width: 2"/>
   </g>
   <g id="line2d_29">
    <path d="M 442.7892 163.90036 
L 466.5708 163.90036 
" clip-path="url(#pa52e8f8d9c)" style="fill: none; stroke: #ff0000; stroke-width: 2"/>
   </g>
   <g id="line2d_30">
    <path d="M 601.3332 297.200403 
L 625.1148 297.200403 
" clip-path="url(#pa52e8f8d9c)" style="fill: none; stroke: #ff0000; stroke-width: 2"/>
   </g>
   <g id="line2d_31">
    <path d="M 759.8772 311.995403 
L 783.6588 311.995403 
" clip-path="url(#pa52e8f8d9c)" style="fill: none; stroke: #ff0000; stroke-width: 2"/>
   </g>
   <g id="patch_3">
    <path d="M 58.32 395.14 
L 58.32 27.6 
" style="fill: none; stroke: #cccccc; stroke-width: 1.25; stroke-linejoin: miter; stroke-linecap: square"/>
   </g>
   <g id="patch_4">
    <path d="M 851.04 395.14 
L 851.04 27.6 
" style="fill: none; stroke: #cccccc; stroke-width: 1.25; stroke-linejoin: miter; stroke-linecap: square"/>
   </g>
   <g id="patch_5">
    <path d="M 58.32 395.14 
L 851.04 395.14 
" style="fill: none; stroke: #cccccc; stroke-width: 1.25; stroke-linejoin: miter; stroke-linecap: square"/>
   </g>
   <g id="patch_6">
    <path d="M 58.32 27.6 
L 851.04 27.6 
" style="fill: none; stroke: #cccccc; stroke-width: 1.25; stroke-linejoin: miter; stroke-linecap: square"/>
   </g>
   <g id="text_13">
    <!-- Handshake duration on TLS with ed25519 signature algorithm — Backbone (200ms/4%) -->
    <g style="fill: #262626" transform="translate(190.000312 21.6) scale(0.12 -0.12)">
     <defs>
      <path id="DejaVuSans-54" d="M -19 4666 
L 3928 4666 
L 3928 4134 
L 2272 4134 
L 2272 0 
L 1638 0 
L 1638 4134 
L -19 4134 
L -19 4666 
z
" transform="scale(0.015625)"/>
      <path id="DejaVuSans-4c" d="M 628 4666 
L 1259 4666 
L 1259 531 
L 3531 531 
L 3531 0 
L 628 0 
L 628 4666 
z
" transform="scale(0.015625)"/>
      <path id="DejaVuSans-53" d="M 3425 4513 
L 3425 3897 
Q 3066 4069 2747 4153 
Q 2428 4238 2131 4238 
Q 1616 4238 1336 4038 
Q 1056 3838 1056 3469 
Q 1056 3159 1242 3001 
Q 1428 2844 1947 2747 
L 2328 2669 
Q 3034 2534 3370 2195 
Q 3706 1856 3706 1288 
Q 3706 609 3251 259 
Q 2797 -91 1919 -91 
Q 1588 -91 1214 -16 
Q 841 59 441 206 
L 441 856 
Q 825 641 1194 531 
Q 1563 422 1919 422 
Q 2459 422 2753 634 
Q 3047 847 3047 1241 
Q 3047 1584 2836 1778 
Q 2625 1972 2144 2069 
L 1759 2144 
Q 1053 2284 737 2584 
Q 422 2884 422 3419 
Q 422 4038 858 4394 
Q 1294 4750 2059 4750 
Q 2388 4750 2728 4690 
Q 3069 4631 3425 4513 
z
" transform="scale(0.015625)"/>
      <path id="DejaVuSans-77" d="M 269 3500 
L 844 3500 
L 1563 769 
L 2278 3500 
L 2956 3500 
L 3675 769 
L 4391 3500 
L 4966 3500 
L 4050 0 
L 3372 0 
L 2619 2869 
L 1863 0 
L 1184 0 
L 269 3500 
z
" transform="scale(0.015625)"/>
      <path id="DejaVuSans-67" d="M 2906 1791 
Q 2906 2416 2648 2759 
Q 2391 3103 1925 3103 
Q 1463 3103 1205 2759 
Q 947 2416 947 1791 
Q 947 1169 1205 825 
Q 1463 481 1925 481 
Q 2391 481 2648 825 
Q 2906 1169 2906 1791 
z
M 3481 434 
Q 3481 -459 3084 -895 
Q 2688 -1331 1869 -1331 
Q 1566 -1331 1297 -1286 
Q 1028 -1241 775 -1147 
L 775 -588 
Q 1028 -725 1275 -790 
Q 1522 -856 1778 -856 
Q 2344 -856 2625 -561 
Q 2906 -266 2906 331 
L 2906 616 
Q 2728 306 2450 153 
Q 2172 0 1784 0 
Q 1141 0 747 490 
Q 353 981 353 1791 
Q 353 2603 747 3093 
Q 1141 3584 1784 3584 
Q 2172 3584 2450 3431 
Q 2728 3278 2906 2969 
L 2906 3500 
L 3481 3500 
L 3481 434 
z
" transform="scale(0.015625)"/>
      <path id="DejaVuSans-2014" d="M 313 1978 
L 6088 1978 
L 6088 1528 
L 313 1528 
L 313 1978 
z
" transform="scale(0.015625)"/>
      <path id="DejaVuSans-42" d="M 1259 2228 
L 1259 519 
L 2272 519 
Q 2781 519 3026 730 
Q 3272 941 3272 1375 
Q 3272 1813 3026 2020 
Q 2781 2228 2272 2228 
L 1259 2228 
z
M 1259 4147 
L 1259 2741 
L 2194 2741 
Q 2656 2741 2882 2914 
Q 3109 3088 3109 3444 
Q 3109 3797 2882 3972 
Q 2656 4147 2194 4147 
L 1259 4147 
z
M 628 4666 
L 2241 4666 
Q 2963 4666 3353 4366 
Q 3744 4066 3744 3513 
Q 3744 3084 3544 2831 
Q 3344 2578 2956 2516 
Q 3422 2416 3680 2098 
Q 3938 1781 3938 1306 
Q 3938 681 3513 340 
Q 3088 0 2303 0 
L 628 0 
L 628 4666 
z
" transform="scale(0.015625)"/>
      <path id="DejaVuSans-63" d="M 3122 3366 
L 3122 2828 
Q 2878 2963 2633 3030 
Q 2388 3097 2138 3097 
Q 1578 3097 1268 2742 
Q 959 2388 959 1747 
Q 959 1106 1268 751 
Q 1578 397 2138 397 
Q 2388 397 2633 464 
Q 2878 531 3122 666 
L 3122 134 
Q 2881 22 2623 -34 
Q 2366 -91 2075 -91 
Q 1284 -91 818 406 
Q 353 903 353 1747 
Q 353 2603 823 3093 
Q 1294 3584 2113 3584 
Q 2378 3584 2631 3529 
Q 2884 3475 3122 3366 
z
" transform="scale(0.015625)"/>
      <path id="DejaVuSans-62" d="M 3116 1747 
Q 3116 2381 2855 2742 
Q 2594 3103 2138 3103 
Q 1681 3103 1420 2742 
Q 1159 2381 1159 1747 
Q 1159 1113 1420 752 
Q 1681 391 2138 391 
Q 2594 391 2855 752 
Q 3116 1113 3116 1747 
z
M 1159 2969 
Q 1341 3281 1617 3432 
Q 1894 3584 2278 3584 
Q 2916 3584 3314 3078 
Q 3713 2572 3713 1747 
Q 3713 922 3314 415 
Q 2916 -91 2278 -91 
Q 1894 -91 1617 61 
Q 1341 213 1159 525 
L 1159 0 
L 581 0 
L 581 4863 
L 1159 4863 
L 1159 2969 
z
" transform="scale(0.015625)"/>
      <path id="DejaVuSans-2f" d="M 1625 4666 
L 2156 4666 
L 531 -594 
L 0 -594 
L 1625 4666 
z
" transform="scale(0.015625)"/>
      <path id="DejaVuSans-34" d="M 2419 4116 
L 825 1625 
L 2419 1625 
L 2419 4116 
z
M 2253 4666 
L 3047 4666 
L 3047 1625 
L 3713 1625 
L 3713 1100 
L 3047 1100 
L 3047 0 
L 2419 0 
L 2419 1100 
L 313 1100 
L 313 1709 
L 2253 4666 
z
" transform="scale(0.015625)"/>
      <path id="DejaVuSans-25" d="M 4653 2053 
Q 4381 2053 4226 1822 
Q 4072 1591 4072 1178 
Q 4072 772 4226 539 
Q 4381 306 4653 306 
Q 4919 306 5073 539 
Q 5228 772 5228 1178 
Q 5228 1588 5073 1820 
Q 4919 2053 4653 2053 
z
M 4653 2450 
Q 5147 2450 5437 2106 
Q 5728 1763 5728 1178 
Q 5728 594 5436 251 
Q 5144 -91 4653 -91 
Q 4153 -91 3862 251 
Q 3572 594 3572 1178 
Q 3572 1766 3864 2108 
Q 4156 2450 4653 2450 
z
M 1428 4353 
Q 1159 4353 1004 4120 
Q 850 3888 850 3481 
Q 850 3069 1003 2837 
Q 1156 2606 1428 2606 
Q 1700 2606 1854 2837 
Q 2009 3069 2009 3481 
Q 2009 3884 1853 4118 
Q 1697 4353 1428 4353 
z
M 4250 4750 
L 4750 4750 
L 1831 -91 
L 1331 -91 
L 4250 4750 
z
M 1428 4750 
Q 1922 4750 2215 4408 
Q 2509 4066 2509 3481 
Q 2509 2891 2217 2550 
Q 1925 2209 1428 2209 
Q 931 2209 642 2551 
Q 353 2894 353 3481 
Q 353 4063 643 4406 
Q 934 4750 1428 4750 
z
" transform="scale(0.015625)"/>
     </defs>
     <use xlink:href="#DejaVuSans-48"/>
     <use xlink:href="#DejaVuSans-61" x="75.195312"/>
     <use xlink:href="#DejaVuSans-6e" x="136.474609"/>
     <use xlink:href="#DejaVuSans-64" x="199.853516"/>
     <use xlink:href="#DejaVuSans-73" x="263.330078"/>
     <use xlink:href="#DejaVuSans-68" x="315.429688"/>
     <use xlink:href="#DejaVuSans-61" x="378.808594"/>
     <use xlink:href="#DejaVuSans-6b" x="440.087891"/>
     <use xlink:href="#DejaVuSans-65" x="494.373047"/>
     <use xlink:href="#DejaVuSans-20" x="555.896484"/>
     <use xlink:href="#DejaVuSans-64" x="587.683594"/>
     <use xlink:href="#DejaVuSans-75" x="651.160156"/>
     <use xlink:href="#DejaVuSans-72" x="714.539062"/>
     <use xlink:href="#DejaVuSans-61" x="755.652344"/>
     <use xlink:href="#DejaVuSans-74" x="816.931641"/>
     <use xlink:href="#DejaVuSans-69" x="856.140625"/>
     <use xlink:href="#DejaVuSans-6f" x="883.923828"/>
     <use xlink:href="#DejaVuSans-6e" x="945.105469"/>
     <use xlink:href="#DejaVuSans-20" x="1008.484375"/>
     <use xlink:href="#DejaVuSans-6f" x="1040.271484"/>
     <use xlink:href="#DejaVuSans-6e" x="1101.453125"/>
     <use xlink:href="#DejaVuSans-20" x="1164.832031"/>
     <use xlink:href="#DejaVuSans-54" x="1196.619141"/>
     <use xlink:href="#DejaVuSans-4c" x="1257.703125"/>
     <use xlink:href="#DejaVuSans-53" x="1313.416016"/>
     <use xlink:href="#DejaVuSans-20" x="1376.892578"/>
     <use xlink:href="#DejaVuSans-77" x="1408.679688"/>
     <use xlink:href="#DejaVuSans-69" x="1490.466797"/>
     <use xlink:href="#DejaVuSans-74" x="1518.25"/>
     <use xlink:href="#DejaVuSans-68" x="1557.458984"/>
     <use xlink:href="#DejaVuSans-20" x="1620.837891"/>
     <use xlink:href="#DejaVuSans-65" x="1652.625"/>
     <use xlink:href="#DejaVuSans-64" x="1714.148438"/>
     <use xlink:href="#DejaVuSans-32" x="1777.625"/>
     <use xlink:href="#DejaVuSans-35" x="1841.248047"/>
     <use xlink:href="#DejaVuSans-35" x="1904.871094"/>
     <use xlink:href="#DejaVuSans-31" x="1968.494141"/>
     <use xlink:href="#DejaVuSans-39" x="2032.117188"/>
     <use xlink:href="#DejaVuSans-20" x="2095.740234"/>
     <use xlink:href="#DejaVuSans-73" x="2127.527344"/>
     <use xlink:href="#DejaVuSans-69" x="2179.626953"/>
     <use xlink:href="#DejaVuSans-67" x="2207.410156"/>
     <use xlink:href="#DejaVuSans-6e" x="2270.886719"/>
     <use xlink:href="#DejaVuSans-61" x="2334.265625"/>
     <use xlink:href="#DejaVuSans-74" x="2395.544922"/>
     <use xlink:href="#DejaVuSans-75" x="2434.753906"/>
     <use xlink:href="#DejaVuSans-72" x="2498.132812"/>
     <use xlink:href="#DejaVuSans-65" x="2536.996094"/>
     <use xlink:href="#DejaVuSans-20" x="2598.519531"/>
     <use xlink:href="#DejaVuSans-61" x="2630.306641"/>
     <use xlink:href="#DejaVuSans-6c" x="2691.585938"/>
     <use xlink:href="#DejaVuSans-67" x="2719.369141"/>
     <use xlink:href="#DejaVuSans-6f" x="2782.845703"/>
     <use xlink:href="#DejaVuSans-72" x="2844.027344"/>
     <use xlink:href="#DejaVuSans-69" x="2885.140625"/>
     <use xlink:href="#DejaVuSans-74" x="2912.923828"/>
     <use xlink:href="#DejaVuSans-68" x="2952.132812"/>
     <use xlink:href="#DejaVuSans-6d" x="3015.511719"/>
     <use xlink:href="#DejaVuSans-20" x="3112.923828"/>
     <use xlink:href="#DejaVuSans-2014" x="3144.710938"/>
     <use xlink:href="#DejaVuSans-20" x="3244.710938"/>
     <use xlink:href="#DejaVuSans-42" x="3276.498047"/>
     <use xlink:href="#DejaVuSans-61" x="3345.101562"/>
     <use xlink:href="#DejaVuSans-63" x="3406.380859"/>
     <use xlink:href="#DejaVuSans-6b" x="3461.361328"/>
     <use xlink:href="#DejaVuSans-62" x="3519.271484"/>
     <use xlink:href="#DejaVuSans-6f" x="3582.748047"/>
     <use xlink:href="#DejaVuSans-6e" x="3643.929688"/>
     <use xlink:href="#DejaVuSans-65" x="3707.308594"/>
     <use xlink:href="#DejaVuSans-20" x="3768.832031"/>
     <use xlink:href="#DejaVuSans-28" x="3800.619141"/>
     <use xlink:href="#DejaVuSans-32" x="3839.632812"/>
     <use xlink:href="#DejaVuSans-30" x="3903.255859"/>
     <use xlink:href="#DejaVuSans-30" x="3966.878906"/>
     <use xlink:href="#DejaVuSans-6d" x="4030.501953"/>
     <use xlink:href="#DejaVuSans-73" x="4127.914062"/>
     <use xlink:href="#DejaVuSans-2f" x="4180.013672"/>
     <use xlink:href="#DejaVuSans-34" x="4213.705078"/>
     <use xlink:href="#DejaVuSans-25" x="4277.328125"/>
     <use xlink:href="#DejaVuSans-29" x="4372.347656"/>
    </g>
   </g>
  </g>
 </g>
 <defs>
  <clipPath id="pa52e8f8d9c">
   <rect x="58.32" y="27.6" width="792.72" height="367.54"/>
  </clipPath>
 </defs>
</svg>
