<?xml version="1.0" encoding="utf-8" standalone="no"?>
<!DOCTYPE svg PUBLIC "-//W3C//DTD SVG 1.1//EN"
  "http://www.w3.org/Graphics/SVG/1.1/DTD/svg11.dtd">
<svg xmlns:xlink="http://www.w3.org/1999/xlink" width="864pt" height="432pt" viewBox="0 0 864 432" xmlns="http://www.w3.org/2000/svg" version="1.1">
 <metadata>
  <rdf:RDF xmlns:dc="http://purl.org/dc/elements/1.1/" xmlns:cc="http://creativecommons.org/ns#" xmlns:rdf="http://www.w3.org/1999/02/22-rdf-syntax-ns#">
   <cc:Work>
    <dc:type rdf:resource="http://purl.org/dc/dcmitype/StillImage"/>
    <dc:date>2026-03-21T13:58:45.193775</dc:date>
    <dc:format>image/svg+xml</dc:format>
    <dc:creator>
     <cc:Agent>
      <dc:title>Matplotlib v3.6.3, https://matplotlib.org/</dc:title>
     </cc:Agent>
    </dc:creator>
   </cc:Work>
  </rdf:RDF>
 </metadata>
 <defs>
  <style type="text/css">*{stroke-linejoin: round; stroke-linecap: butt}</style>
 </defs>
 <g id="figure_1">
  <g id="patch_1">
   <path d="M 0 432 
L 864 432 
L 864 0 
L 0 0 
z
" style="fill: #ffffff"/>
  </g>
  <g id="axes_1">
   <g id="patch_2">
    <path d="M 58.32 395.14 
L 851.04 395.14 
L 851.04 27.6 
L 58.32 27.6 
z
" style="fill: #ffffff"/>
   </g>
   <g id="matplotlib.axis_1">
    <g id="xtick_1">
     <g id="text_1">
      <!-- P-256 -->
      <g style="fill: #262626" transform="translate(117.642 415.277812) scale(0.14 -0.14)">
       <defs>
        <path id="DejaVuSans-50" d="M 1259 4147 
L 1259 2394 
L 2053 2394 
Q 2494 2394 2734 2622 
Q 2975 2850 2975 3272 
Q 2975 3691 2734 3919 
Q 2494 4147 2053 4147 
L 1259 4147 
z
M 628 4666 
L 2053 4666 
Q 2838 4666 3239 4311 
Q 3641 3956 3641 3272 
Q 3641 2581 3239 2228 
Q 2838 1875 2053 1875 
L 1259 1875 
L 1259 0 
L 628 0 
L 628 4666 
z
" transform="scale(0.015625)"/>
        <path id="DejaVuSans-2d" d="M 313 2009 
L 1997 2009 
L 1997 1497 
L 313 1497 
L 313 2009 
z
" transform="scale(0.015625)"/>
        <path id="DejaVuSans-32" d="M 1228 531 
L 3431 531 
L 3431 0 
L 469 0 
L 469 531 
Q 828 903 1448 1529 
Q 2069 2156 2228 2338 
Q 2531 2678 2651 2914 
Q 2772 3150 2772 3378 
Q 2772 3750 2511 3984 
Q 2250 4219 1831 4219 
Q 1534 4219 1204 4116 
Q 875 4013 500 3803 
L 500 4441 
Q 881 4594 1212 4672 
Q 1544 4750 1819 4750 
Q 2544 4750 2975 4387 
Q 3406 4025 3406 3419 
Q 3406 3131 3298 2873 
Q 3191 2616 2906 2266 
Q 2828 2175 2409 1742 
Q 1991 1309 1228 531 
z
" transform="scale(0.015625)"/>
        <path id="DejaVuSans-35" d="M 691 4666 
L 3169 4666 
L 3169 4134 
L 1269 4134 
L 1269 2991 
Q 1406 3038 1543 3061 
Q 1681 3084 1819 3084 
Q 2600 3084 3056 2656 
Q 3513 2228 3513 1497 
Q 3513 744 3044 326 
Q 2575 -91 1722 -91 
Q 1428 -91 1123 -41 
Q 819 9 494 109 
L 494 744 
Q 775 591 1075 516 
Q 1375 441 1709 441 
Q 2250 441 2565 725 
Q 2881 1009 2881 1497 
Q 2881 1984 2565 2268 
Q 2250 2553 1709 2553 
Q 1456 2553 1204 2497 
Q 953 2441 691 2322 
L 691 4666 
z
" transform="scale(0.015625)"/>
        <path id="DejaVuSans-36" d="M 2113 2584 
Q 1688 2584 1439 2293 
Q 1191 2003 1191 1497 
Q 1191 994 1439 701 
Q 1688 409 2113 409 
Q 2538 409 2786 701 
Q 3034 994 3034 1497 
Q 3034 2003 2786 2293 
Q 2538 2584 2113 2584 
z
M 3366 4563 
L 3366 3988 
Q 3128 4100 2886 4159 
Q 2644 4219 2406 4219 
Q 1781 4219 1451 3797 
Q 1122 3375 1075 2522 
Q 1259 2794 1537 2939 
Q 1816 3084 2150 3084 
Q 2853 3084 3261 2657 
Q 3669 2231 3669 1497 
Q 3669 778 3244 343 
Q 2819 -91 2113 -91 
Q 1303 -91 875 529 
Q 447 1150 447 2328 
Q 447 3434 972 4092 
Q 1497 4750 2381 4750 
Q 2619 4750 2861 4703 
Q 3103 4656 3366 4563 
z
" transform="scale(0.015625)"/>
       </defs>
       <use xlink:href="#DejaVuSans-50"/>
       <use xlink:href="#DejaVuSans-2d" x="58.052734"/>
       <use xlink:href="#DejaVuSans-32" x="94.136719"/>
       <use xlink:href="#DejaVuSans-35" x="157.759766"/>
       <use xlink:href="#DejaVuSans-36" x="221.382812"/>
      </g>
     </g>
    </g>
    <g id="xtick_2">
     <g id="text_2">
      <!-- x25519 -->
      <g style="fill: #262626" transform="translate(269.724125 415.277812) scale(0.14 -0.14)">
       <defs>
        <path id="DejaVuSans-78" d="M 3513 3500 
L 2247 1797 
L 3578 0 
L 2900 0 
L 1881 1375 
L 863 0 
L 184 0 
L 1544 1831 
L 300 3500 
L 978 3500 
L 1906 2253 
L 2834 3500 
L 3513 3500 
z
" transform="scale(0.015625)"/>
        <path id="DejaVuSans-31" d="M 794 531 
L 1825 531 
L 1825 4091 
L 703 3866 
L 703 4441 
L 1819 4666 
L 2450 4666 
L 2450 531 
L 3481 531 
L 3481 0 
L 794 0 
L 794 531 
z
" transform="scale(0.015625)"/>
        <path id="DejaVuSans-39" d="M 703 97 
L 703 672 
Q 941 559 1184 500 
Q 1428 441 1663 441 
Q 2288 441 2617 861 
Q 2947 1281 2994 2138 
Q 2813 1869 2534 1725 
Q 2256 1581 1919 1581 
Q 1219 1581 811 2004 
Q 403 2428 403 3163 
Q 403 3881 828 4315 
Q 1253 4750 1959 4750 
Q 2769 4750 3195 4129 
Q 3622 3509 3622 2328 
Q 3622 1225 3098 567 
Q 2575 -91 1691 -91 
Q 1453 -91 1209 -44 
Q 966 3 703 97 
z
M 1959 2075 
Q 2384 2075 2632 2365 
Q 2881 2656 2881 3163 
Q 2881 3666 2632 3958 
Q 2384 4250 1959 4250 
Q 1534 4250 1286 3958 
Q 1038 3666 1038 3163 
Q 1038 2656 1286 2365 
Q 1534 2075 1959 2075 
z
" transform="scale(0.015625)"/>
       </defs>
       <use xlink:href="#DejaVuSans-78"/>
       <use xlink:href="#DejaVuSans-32" x="59.179688"/>
       <use xlink:href="#DejaVuSans-35" x="122.802734"/>
       <use xlink:href="#DejaVuSans-35" x="186.425781"/>
       <use xlink:href="#DejaVuSans-31" x="250.048828"/>
       <use xlink:href="#DejaVuSans-39" x="313.671875"/>
      </g>
     </g>
    </g>
    <g id="xtick_3">
     <g id="text_3">
      <!-- p256_mlkem512 -->
      <g style="fill: #262626" transform="translate(396.325156 415.277812) scale(0.14 -0.14)">
       <defs>
        <path id="DejaVuSans-70" d="M 1159 525 
L 1159 -1331 
L 581 -1331 
L 581 3500 
L 1159 3500 
L 1159 2969 
Q 1341 3281 1617 3432 
Q 1894 3584 2278 3584 
Q 2916 3584 3314 3078 
Q 3713 2572 3713 1747 
Q 3713 922 3314 415 
Q 2916 -91 2278 -91 
Q 1894 -91 1617 61 
Q 1341 213 1159 525 
z
M 3116 1747 
Q 3116 2381 2855 2742 
Q 2594 3103 2138 3103 
Q 1681 3103 1420 2742 
Q 1159 2381 1159 1747 
Q 1159 1113 1420 752 
Q 1681 391 2138 391 
Q 2594 391 2855 752 
Q 3116 1113 3116 1747 
z
" transform="scale(0.015625)"/>
        <path id="DejaVuSans-5f" d="M 3263 -1063 
L 3263 -1509 
L -63 -1509 
L -63 -1063 
L 3263 -1063 
z
" transform="scale(0.015625)"/>
        <path id="DejaVuSans-6d" d="M 3328 2828 
Q 3544 3216 3844 3400 
Q 4144 3584 4550 3584 
Q 5097 3584 5394 3201 
Q 5691 2819 5691 2113 
L 5691 0 
L 5113 0 
L 5113 2094 
Q 5113 2597 4934 2840 
Q 4756 3084 4391 3084 
Q 3944 3084 3684 2787 
Q 3425 2491 3425 1978 
L 3425 0 
L 2847 0 
L 2847 2094 
Q 2847 2600 2669 2842 
Q 2491 3084 2119 3084 
Q 1678 3084 1418 2786 
Q 1159 2488 1159 1978 
L 1159 0 
L 581 0 
L 581 3500 
L 1159 3500 
L 1159 2956 
Q 1356 3278 1631 3431 
Q 1906 3584 2284 3584 
Q 2666 3584 2933 3390 
Q 3200 3197 3328 2828 
z
" transform="scale(0.015625)"/>
        <path id="DejaVuSans-6c" d="M 603 4863 
L 1178 4863 
L 1178 0 
L 603 0 
L 603 4863 
z
" transform="scale(0.015625)"/>
        <path id="DejaVuSans-6b" d="M 581 4863 
L 1159 4863 
L 1159 1991 
L 2875 3500 
L 3609 3500 
L 1753 1863 
L 3688 0 
L 2938 0 
L 1159 1709 
L 1159 0 
L 581 0 
L 581 4863 
z
" transform="scale(0.015625)"/>
        <path id="DejaVuSans-65" d="M 3597 1894 
L 3597 1613 
L 953 1613 
Q 991 1019 1311 708 
Q 1631 397 2203 397 
Q 2534 397 2845 478 
Q 3156 559 3463 722 
L 3463 178 
Q 3153 47 2828 -22 
Q 2503 -91 2169 -91 
Q 1331 -91 842 396 
Q 353 884 353 1716 
Q 353 2575 817 3079 
Q 1281 3584 2069 3584 
Q 2775 3584 3186 3129 
Q 3597 2675 3597 1894 
z
M 3022 2063 
Q 3016 2534 2758 2815 
Q 2500 3097 2075 3097 
Q 1594 3097 1305 2825 
Q 1016 2553 972 2059 
L 3022 2063 
z
" transform="scale(0.015625)"/>
       </defs>
       <use xlink:href="#DejaVuSans-70"/>
       <use xlink:href="#DejaVuSans-32" x="63.476562"/>
       <use xlink:href="#DejaVuSans-35" x="127.099609"/>
       <use xlink:href="#DejaVuSans-36" x="190.722656"/>
       <use xlink:href="#DejaVuSans-5f" x="254.345703"/>
       <use xlink:href="#DejaVuSans-6d" x="304.345703"/>
       <use xlink:href="#DejaVuSans-6c" x="401.757812"/>
       <use xlink:href="#DejaVuSans-6b" x="429.541016"/>
       <use xlink:href="#DejaVuSans-65" x="483.826172"/>
       <use xlink:href="#DejaVuSans-6d" x="545.349609"/>
       <use xlink:href="#DejaVuSans-35" x="642.761719"/>
       <use xlink:href="#DejaVuSans-31" x="706.384766"/>
       <use xlink:href="#DejaVuSans-32" x="770.007812"/>
      </g>
     </g>
    </g>
    <g id="xtick_4">
     <g id="text_4">
      <!-- x25519_mlkem512 -->
      <g style="fill: #262626" transform="translate(546.262437 415.277812) scale(0.14 -0.14)">
       <use xlink:href="#DejaVuSans-78"/>
       <use xlink:href="#DejaVuSans-32" x="59.179688"/>
       <use xlink:href="#DejaVuSans-35" x="122.802734"/>
       <use xlink:href="#DejaVuSans-35" x="186.425781"/>
       <use xlink:href="#DejaVuSans-31" x="250.048828"/>
       <use xlink:href="#DejaVuSans-39" x="313.671875"/>
       <use xlink:href="#DejaVuSans-5f" x="377.294922"/>
       <use xlink:href="#DejaVuSans-6d" x="427.294922"/>
       <use xlink:href="#DejaVuSans-6c" x="524.707031"/>
       <use xlink:href="#DejaVuSans-6b" x="552.490234"/>
       <use xlink:href="#DejaVuSans-65" x="606.775391"/>
       <use xlink:href="#DejaVuSans-6d" x="668.298828"/>
       <use xlink:href="#DejaVuSans-35" x="765.710938"/>
       <use xlink:href="#DejaVuSans-31" x="829.333984"/>
       <use xlink:href="#DejaVuSans-32" x="892.957031"/>
      </g>
     </g>
    </g>
    <g id="xtick_5">
     <g id="text_5">
      <!-- mlkem512 -->
      <g style="fill: #262626" transform="translate(734.718312 415.277812) scale(0.14 -0.14)">
       <use xlink:href="#DejaVuSans-6d"/>
       <use xlink:href="#DejaVuSans-6c" x="97.412109"/>
       <use xlink:href="#DejaVuSans-6b" x="125.195312"/>
       <use xlink:href="#DejaVuSans-65" x="179.480469"/>
       <use xlink:href="#DejaVuSans-6d" x="241.003906"/>
       <use xlink:href="#DejaVuSans-35" x="338.416016"/>
       <use xlink:href="#DejaVuSans-31" x="402.039062"/>
       <use xlink:href="#DejaVuSans-32" x="465.662109"/>
      </g>
     </g>
    </g>
   </g>
   <g id="matplotlib.axis_2">
    <g id="ytick_1">
     <g id="line2d_1">
      <path d="M 58.32 391.754258 
L 851.04 391.754258 
" clip-path="url(#p05f83ad9fc)" style="fill: none; stroke: #cccccc; stroke-linecap: round"/>
     </g>
     <g id="text_6">
      <!-- 800 -->
      <g style="fill: #262626" transform="translate(27.82375 395.933398) scale(0.11 -0.11)">
       <defs>
        <path id="DejaVuSans-38" d="M 2034 2216 
Q 1584 2216 1326 1975 
Q 1069 1734 1069 1313 
Q 1069 891 1326 650 
Q 1584 409 2034 409 
Q 2484 409 2743 651 
Q 3003 894 3003 1313 
Q 3003 1734 2745 1975 
Q 2488 2216 2034 2216 
z
M 1403 2484 
Q 997 2584 770 2862 
Q 544 3141 544 3541 
Q 544 4100 942 4425 
Q 1341 4750 2034 4750 
Q 2731 4750 3128 4425 
Q 3525 4100 3525 3541 
Q 3525 3141 3298 2862 
Q 3072 2584 2669 2484 
Q 3125 2378 3379 2068 
Q 3634 1759 3634 1313 
Q 3634 634 3220 271 
Q 2806 -91 2034 -91 
Q 1263 -91 848 271 
Q 434 634 434 1313 
Q 434 1759 690 2068 
Q 947 2378 1403 2484 
z
M 1172 3481 
Q 1172 3119 1398 2916 
Q 1625 2713 2034 2713 
Q 2441 2713 2670 2916 
Q 2900 3119 2900 3481 
Q 2900 3844 2670 4047 
Q 2441 4250 2034 4250 
Q 1625 4250 1398 4047 
Q 1172 3844 1172 3481 
z
" transform="scale(0.015625)"/>
        <path id="DejaVuSans-30" d="M 2034 4250 
Q 1547 4250 1301 3770 
Q 1056 3291 1056 2328 
Q 1056 1369 1301 889 
Q 1547 409 2034 409 
Q 2525 409 2770 889 
Q 3016 1369 3016 2328 
Q 3016 3291 2770 3770 
Q 2525 4250 2034 4250 
z
M 2034 4750 
Q 2819 4750 3233 4129 
Q 3647 3509 3647 2328 
Q 3647 1150 3233 529 
Q 2819 -91 2034 -91 
Q 1250 -91 836 529 
Q 422 1150 422 2328 
Q 422 3509 836 4129 
Q 1250 4750 2034 4750 
z
" transform="scale(0.015625)"/>
       </defs>
       <use xlink:href="#DejaVuSans-38"/>
       <use xlink:href="#DejaVuSans-30" x="63.623047"/>
       <use xlink:href="#DejaVuSans-30" x="127.246094"/>
      </g>
     </g>
    </g>
    <g id="ytick_2">
     <g id="line2d_2">
      <path d="M 58.32 350.623482 
L 851.04 350.623482 
" clip-path="url(#p05f83ad9fc)" style="fill: none; stroke: #cccccc; stroke-linecap: round"/>
     </g>
     <g id="text_7">
      <!-- 805 -->
      <g style="fill: #262626" transform="translate(27.82375 354.802622) scale(0.11 -0.11)">
       <use xlink:href="#DejaVuSans-38"/>
       <use xlink:href="#DejaVuSans-30" x="63.623047"/>
       <use xlink:href="#DejaVuSans-35" x="127.246094"/>
      </g>
     </g>
    </g>
    <g id="ytick_3">
     <g id="line2d_3">
      <path d="M 58.32 309.492706 
L 851.04 309.492706 
" clip-path="url(#p05f83ad9fc)" style="fill: none; stroke: #cccccc; stroke-linecap: round"/>
     </g>
     <g id="text_8">
      <!-- 810 -->
      <g style="fill: #262626" transform="translate(27.82375 313.671846) scale(0.11 -0.11)">
       <use xlink:href="#DejaVuSans-38"/>
       <use xlink:href="#DejaVuSans-31" x="63.623047"/>
       <use xlink:href="#DejaVuSans-30" x="127.246094"/>
      </g>
     </g>
    </g>
    <g id="ytick_4">
     <g id="line2d_4">
      <path d="M 58.32 268.36193 
L 851.04 268.36193 
" clip-path="url(#p05f83ad9fc)" style="fill: none; stroke: #cccccc; stroke-linecap: round"/>
     </g>
     <g id="text_9">
      <!-- 815 -->
      <g style="fill: #262626" transform="translate(27.82375 272.541071) scale(0.11 -0.11)">
       <use xlink:href="#DejaVuSans-38"/>
       <use xlink:href="#DejaVuSans-31" x="63.623047"/>
       <use xlink:href="#DejaVuSans-35" x="127.246094"/>
      </g>
     </g>
    </g>
    <g id="ytick_5">
     <g id="line2d_5">
      <path d="M 58.32 227.231154 
L 851.04 227.231154 
" clip-path="url(#p05f83ad9fc)" style="fill: none; stroke: #cccccc; stroke-linecap: round"/>
     </g>
     <g id="text_10">
      <!-- 820 -->
      <g style="fill: #262626" transform="translate(27.82375 231.410295) scale(0.11 -0.11)">
       <use xlink:href="#DejaVuSans-38"/>
       <use xlink:href="#DejaVuSans-32" x="63.623047"/>
       <use xlink:href="#DejaVuSans-30" x="127.246094"/>
      </g>
     </g>
    </g>
    <g id="ytick_6">
     <g id="line2d_6">
      <path d="M 58.32 186.100378 
L 851.04 186.100378 
" clip-path="url(#p05f83ad9fc)" style="fill: none; stroke: #cccccc; stroke-linecap: round"/>
     </g>
     <g id="text_11">
      <!-- 825 -->
      <g style="fill: #262626" transform="translate(27.82375 190.279519) scale(0.11 -0.11)">
       <use xlink:href="#DejaVuSans-38"/>
       <use xlink:href="#DejaVuSans-32" x="63.623047"/>
       <use xlink:href="#DejaVuSans-35" x="127.246094"/>
      </g>
     </g>
    </g>
    <g id="ytick_7">
     <g id="line2d_7">
      <path d="M 58.32 144.969602 
L 851.04 144.969602 
" clip-path="url(#p05f83ad9fc)" style="fill: none; stroke: #cccccc; stroke-linecap: round"/>
     </g>
     <g id="text_12">
      <!-- 830 -->
      <g style="fill: #262626" transform="translate(27.82375 149.148743) scale(0.11 -0.11)">
       <defs>
        <path id="DejaVuSans-33" d="M 2597 2516 
Q 3050 2419 3304 2112 
Q 3559 1806 3559 1356 
Q 3559 666 3084 287 
Q 2609 -91 1734 -91 
Q 1441 -91 1130 -33 
Q 819 25 488 141 
L 488 750 
Q 750 597 1062 519 
Q 1375 441 1716 441 
Q 2309 441 2620 675 
Q 2931 909 2931 1356 
Q 2931 1769 2642 2001 
Q 2353 2234 1838 2234 
L 1294 2234 
L 1294 2753 
L 1863 2753 
Q 2328 2753 2575 2939 
Q 2822 3125 2822 3475 
Q 2822 3834 2567 4026 
Q 2313 4219 1838 4219 
Q 1578 4219 1281 4162 
Q 984 4106 628 3988 
L 628 4550 
Q 988 4650 1302 4700 
Q 1616 4750 1894 4750 
Q 2613 4750 3031 4423 
Q 3450 4097 3450 3541 
Q 3450 3153 3228 2886 
Q 3006 2619 2597 2516 
z
" transform="scale(0.015625)"/>
       </defs>
       <use xlink:href="#DejaVuSans-38"/>
       <use xlink:href="#DejaVuSans-33" x="63.623047"/>
       <use xlink:href="#DejaVuSans-30" x="127.246094"/>
      </g>
     </g>
    </g>
    <g id="ytick_8">
     <g id="line2d_8">
      <path d="M 58.32 103.838826 
L 851.04 103.838826 
" clip-path="url(#p05f83ad9fc)" style="fill: none; stroke: #cccccc; stroke-linecap: round"/>
     </g>
     <g id="text_13">
      <!-- 835 -->
      <g style="fill: #262626" transform="translate(27.82375 108.017967) scale(0.11 -0.11)">
       <use xlink:href="#DejaVuSans-38"/>
       <use xlink:href="#DejaVuSans-33" x="63.623047"/>
       <use xlink:href="#DejaVuSans-35" x="127.246094"/>
      </g>
     </g>
    </g>
    <g id="ytick_9">
     <g id="line2d_9">
      <path d="M 58.32 62.70805 
L 851.04 62.70805 
" clip-path="url(#p05f83ad9fc)" style="fill: none; stroke: #cccccc; stroke-linecap: round"/>
     </g>
     <g id="text_14">
      <!-- 840 -->
      <g style="fill: #262626" transform="translate(27.82375 66.887191) scale(0.11 -0.11)">
       <defs>
        <path id="DejaVuSans-34" d="M 2419 4116 
L 825 1625 
L 2419 1625 
L 2419 4116 
z
M 2253 4666 
L 3047 4666 
L 3047 1625 
L 3713 1625 
L 3713 1100 
L 3047 1100 
L 3047 0 
L 2419 0 
L 2419 1100 
L 313 1100 
L 313 1709 
L 2253 4666 
z
" transform="scale(0.015625)"/>
       </defs>
       <use xlink:href="#DejaVuSans-38"/>
       <use xlink:href="#DejaVuSans-34" x="63.623047"/>
       <use xlink:href="#DejaVuSans-30" x="127.246094"/>
      </g>
     </g>
    </g>
    <g id="text_15">
     <!-- Handshake duration (ms) -->
     <g style="fill: #262626" transform="translate(21.328125 287.437813) rotate(-90) scale(0.12 -0.12)">
      <defs>
       <path id="DejaVuSans-48" d="M 628 4666 
L 1259 4666 
L 1259 2753 
L 3553 2753 
L 3553 4666 
L 4184 4666 
L 4184 0 
L 3553 0 
L 3553 2222 
L 1259 2222 
L 1259 0 
L 628 0 
L 628 4666 
z
" transform="scale(0.015625)"/>
       <path id="DejaVuSans-61" d="M 2194 1759 
Q 1497 1759 1228 1600 
Q 959 1441 959 1056 
Q 959 750 1161 570 
Q 1363 391 1709 391 
Q 2188 391 2477 730 
Q 2766 1069 2766 1631 
L 2766 1759 
L 2194 1759 
z
M 3341 1997 
L 3341 0 
L 2766 0 
L 2766 531 
Q 2569 213 2275 61 
Q 1981 -91 1556 -91 
Q 1019 -91 701 211 
Q 384 513 384 1019 
Q 384 1609 779 1909 
Q 1175 2209 1959 2209 
L 2766 2209 
L 2766 2266 
Q 2766 2663 2505 2880 
Q 2244 3097 1772 3097 
Q 1472 3097 1187 3025 
Q 903 2953 641 2809 
L 641 3341 
Q 956 3463 1253 3523 
Q 1550 3584 1831 3584 
Q 2591 3584 2966 3190 
Q 3341 2797 3341 1997 
z
" transform="scale(0.015625)"/>
       <path id="DejaVuSans-6e" d="M 3513 2113 
L 3513 0 
L 2938 0 
L 2938 2094 
Q 2938 2591 2744 2837 
Q 2550 3084 2163 3084 
Q 1697 3084 1428 2787 
Q 1159 2491 1159 1978 
L 1159 0 
L 581 0 
L 581 3500 
L 1159 3500 
L 1159 2956 
Q 1366 3272 1645 3428 
Q 1925 3584 2291 3584 
Q 2894 3584 3203 3211 
Q 3513 2838 3513 2113 
z
" transform="scale(0.015625)"/>
       <path id="DejaVuSans-64" d="M 2906 2969 
L 2906 4863 
L 3481 4863 
L 3481 0 
L 2906 0 
L 2906 525 
Q 2725 213 2448 61 
Q 2172 -91 1784 -91 
Q 1150 -91 751 415 
Q 353 922 353 1747 
Q 353 2572 751 3078 
Q 1150 3584 1784 3584 
Q 2172 3584 2448 3432 
Q 2725 3281 2906 2969 
z
M 947 1747 
Q 947 1113 1208 752 
Q 1469 391 1925 391 
Q 2381 391 2643 752 
Q 2906 1113 2906 1747 
Q 2906 2381 2643 2742 
Q 2381 3103 1925 3103 
Q 1469 3103 1208 2742 
Q 947 2381 947 1747 
z
" transform="scale(0.015625)"/>
       <path id="DejaVuSans-73" d="M 2834 3397 
L 2834 2853 
Q 2591 2978 2328 3040 
Q 2066 3103 1784 3103 
Q 1356 3103 1142 2972 
Q 928 2841 928 2578 
Q 928 2378 1081 2264 
Q 1234 2150 1697 2047 
L 1894 2003 
Q 2506 1872 2764 1633 
Q 3022 1394 3022 966 
Q 3022 478 2636 193 
Q 2250 -91 1575 -91 
Q 1294 -91 989 -36 
Q 684 19 347 128 
L 347 722 
Q 666 556 975 473 
Q 1284 391 1588 391 
Q 1994 391 2212 530 
Q 2431 669 2431 922 
Q 2431 1156 2273 1281 
Q 2116 1406 1581 1522 
L 1381 1569 
Q 847 1681 609 1914 
Q 372 2147 372 2553 
Q 372 3047 722 3315 
Q 1072 3584 1716 3584 
Q 2034 3584 2315 3537 
Q 2597 3491 2834 3397 
z
" transform="scale(0.015625)"/>
       <path id="DejaVuSans-68" d="M 3513 2113 
L 3513 0 
L 2938 0 
L 2938 2094 
Q 2938 2591 2744 2837 
Q 2550 3084 2163 3084 
Q 1697 3084 1428 2787 
Q 1159 2491 1159 1978 
L 1159 0 
L 581 0 
L 581 4863 
L 1159 4863 
L 1159 2956 
Q 1366 3272 1645 3428 
Q 1925 3584 2291 3584 
Q 2894 3584 3203 3211 
Q 3513 2838 3513 2113 
z
" transform="scale(0.015625)"/>
       <path id="DejaVuSans-20" transform="scale(0.015625)"/>
       <path id="DejaVuSans-75" d="M 544 1381 
L 544 3500 
L 1119 3500 
L 1119 1403 
Q 1119 906 1312 657 
Q 1506 409 1894 409 
Q 2359 409 2629 706 
Q 2900 1003 2900 1516 
L 2900 3500 
L 3475 3500 
L 3475 0 
L 2900 0 
L 2900 538 
Q 2691 219 2414 64 
Q 2138 -91 1772 -91 
Q 1169 -91 856 284 
Q 544 659 544 1381 
z
M 1991 3584 
L 1991 3584 
z
" transform="scale(0.015625)"/>
       <path id="DejaVuSans-72" d="M 2631 2963 
Q 2534 3019 2420 3045 
Q 2306 3072 2169 3072 
Q 1681 3072 1420 2755 
Q 1159 2438 1159 1844 
L 1159 0 
L 581 0 
L 581 3500 
L 1159 3500 
L 1159 2956 
Q 1341 3275 1631 3429 
Q 1922 3584 2338 3584 
Q 2397 3584 2469 3576 
Q 2541 3569 2628 3553 
L 2631 2963 
z
" transform="scale(0.015625)"/>
       <path id="DejaVuSans-74" d="M 1172 4494 
L 1172 3500 
L 2356 3500 
L 2356 3053 
L 1172 3053 
L 1172 1153 
Q 1172 725 1289 603 
Q 1406 481 1766 481 
L 2356 481 
L 2356 0 
L 1766 0 
Q 1100 0 847 248 
Q 594 497 594 1153 
L 594 3053 
L 172 3053 
L 172 3500 
L 594 3500 
L 594 4494 
L 1172 4494 
z
" transform="scale(0.015625)"/>
       <path id="DejaVuSans-69" d="M 603 3500 
L 1178 3500 
L 1178 0 
L 603 0 
L 603 3500 
z
M 603 4863 
L 1178 4863 
L 1178 4134 
L 603 4134 
L 603 4863 
z
" transform="scale(0.015625)"/>
       <path id="DejaVuSans-6f" d="M 1959 3097 
Q 1497 3097 1228 2736 
Q 959 2375 959 1747 
Q 959 1119 1226 758 
Q 1494 397 1959 397 
Q 2419 397 2687 759 
Q 2956 1122 2956 1747 
Q 2956 2369 2687 2733 
Q 2419 3097 1959 3097 
z
M 1959 3584 
Q 2709 3584 3137 3096 
Q 3566 2609 3566 1747 
Q 3566 888 3137 398 
Q 2709 -91 1959 -91 
Q 1206 -91 779 398 
Q 353 888 353 1747 
Q 353 2609 779 3096 
Q 1206 3584 1959 3584 
z
" transform="scale(0.015625)"/>
       <path id="DejaVuSans-28" d="M 1984 4856 
Q 1566 4138 1362 3434 
Q 1159 2731 1159 2009 
Q 1159 1288 1364 580 
Q 1569 -128 1984 -844 
L 1484 -844 
Q 1016 -109 783 600 
Q 550 1309 550 2009 
Q 550 2706 781 3412 
Q 1013 4119 1484 4856 
L 1984 4856 
z
" transform="scale(0.015625)"/>
       <path id="DejaVuSans-29" d="M 513 4856 
L 1013 4856 
Q 1481 4119 1714 3412 
Q 1947 2706 1947 2009 
Q 1947 1309 1714 600 
Q 1481 -109 1013 -844 
L 513 -844 
Q 928 -128 1133 580 
Q 1338 1288 1338 2009 
Q 1338 2731 1133 3434 
Q 928 4138 513 4856 
z
" transform="scale(0.015625)"/>
      </defs>
      <use xlink:href="#DejaVuSans-48"/>
      <use xlink:href="#DejaVuSans-61" x="75.195312"/>
      <use xlink:href="#DejaVuSans-6e" x="136.474609"/>
      <use xlink:href="#DejaVuSans-64" x="199.853516"/>
      <use xlink:href="#DejaVuSans-73" x="263.330078"/>
      <use xlink:href="#DejaVuSans-68" x="315.429688"/>
      <use xlink:href="#DejaVuSans-61" x="378.808594"/>
      <use xlink:href="#DejaVuSans-6b" x="440.087891"/>
      <use xlink:href="#DejaVuSans-65" x="494.373047"/>
      <use xlink:href="#DejaVuSans-20" x="555.896484"/>
      <use xlink:href="#DejaVuSans-64" x="587.683594"/>
      <use xlink:href="#DejaVuSans-75" x="651.160156"/>
      <use xlink:href="#DejaVuSans-72" x="714.539062"/>
      <use xlink:href="#DejaVuSans-61" x="755.652344"/>
      <use xlink:href="#DejaVuSans-74" x="816.931641"/>
      <use xlink:href="#DejaVuSans-69" x="856.140625"/>
      <use xlink:href="#DejaVuSans-6f" x="883.923828"/>
      <use xlink:href="#DejaVuSans-6e" x="945.105469"/>
      <use xlink:href="#DejaVuSans-20" x="1008.484375"/>
      <use xlink:href="#DejaVuSans-28" x="1040.271484"/>
      <use xlink:href="#DejaVuSans-6d" x="1079.285156"/>
      <use xlink:href="#DejaVuSans-73" x="1176.697266"/>
      <use xlink:href="#DejaVuSans-29" x="1228.796875"/>
     </g>
    </g>
   </g>
   <g id="PolyCollection_1">
    <defs>
     <path id="mbeab3335e7" d="M 137.6413 -58.902141 
L 137.5427 -58.902141 
L 137.497378 -59.995981 
L 137.428397 -61.089821 
L 137.335059 -62.183661 
L 137.221088 -63.2775 
L 137.09223 -64.37134 
L 136.952661 -65.46518 
L 136.80378 -66.55902 
L 136.646851 -67.65286 
L 136.486328 -68.7467 
L 136.328721 -69.84054 
L 136.175909 -70.93438 
L 136.018004 -72.02822 
L 135.832756 -73.12206 
L 135.593683 -74.215899 
L 135.28207 -75.309739 
L 134.8944 -76.403579 
L 134.439234 -77.497419 
L 133.924245 -78.591259 
L 133.340114 -79.685099 
L 132.648829 -80.778939 
L 131.779482 -81.872779 
L 130.63016 -82.966619 
L 129.074832 -84.060458 
L 126.977257 -85.154298 
L 124.212787 -86.248138 
L 120.691355 -87.341978 
L 116.370258 -88.435818 
L 111.255166 -89.529658 
L 105.407722 -90.623498 
L 98.983404 -91.717338 
L 92.294174 -92.811178 
L 85.844674 -93.905018 
L 80.279827 -94.998857 
L 76.236647 -96.092697 
L 74.1744 -97.186537 
L 74.282186 -98.280377 
L 76.496446 -99.374217 
L 80.568165 -100.468057 
L 86.099556 -101.561897 
L 92.541512 -102.655737 
L 99.220048 -103.749577 
L 105.451123 -104.843416 
L 110.71632 -105.937256 
L 114.799911 -107.031096 
L 117.803289 -108.124936 
L 120.035471 -109.218776 
L 121.850986 -110.312616 
L 123.517936 -111.406456 
L 125.160949 -112.500296 
L 126.777516 -113.594136 
L 128.298214 -114.687976 
L 129.653474 -115.781815 
L 130.816221 -116.875655 
L 131.806807 -117.969495 
L 132.667915 -119.063335 
L 133.431323 -120.157175 
L 134.098163 -121.251015 
L 134.642577 -122.344855 
L 135.034087 -123.438695 
L 135.264133 -124.532535 
L 135.360346 -125.626374 
L 135.378945 -126.720214 
L 135.378485 -127.814054 
L 135.390962 -128.907894 
L 135.410613 -130.001734 
L 135.4107 -131.095574 
L 135.377895 -132.189414 
L 135.337866 -133.283254 
L 135.350145 -134.377094 
L 135.474203 -135.470934 
L 135.731642 -136.564773 
L 136.091352 -137.658613 
L 136.485261 -138.752453 
L 136.840387 -139.846293 
L 137.106004 -140.940133 
L 137.264152 -142.033973 
L 137.325439 -143.127813 
L 137.318655 -144.221653 
L 137.280326 -145.315493 
L 137.245379 -146.409332 
L 137.238582 -147.503172 
L 137.268627 -148.597012 
L 137.327966 -149.690852 
L 137.398963 -150.784692 
L 137.462738 -151.878532 
L 137.505534 -152.972372 
L 137.52025 -154.066212 
L 137.504904 -155.160052 
L 137.461573 -156.253892 
L 137.39751 -157.347731 
L 137.32669 -158.441571 
L 137.268317 -159.535411 
L 137.240716 -160.629251 
L 137.253289 -161.723091 
L 137.301926 -162.816931 
L 137.371369 -163.910771 
L 137.442962 -165.004611 
L 137.502587 -166.098451 
L 137.54436 -167.19229 
L 137.63964 -167.19229 
L 137.63964 -167.19229 
L 137.681413 -166.098451 
L 137.741038 -165.004611 
L 137.812631 -163.910771 
L 137.882074 -162.816931 
L 137.930711 -161.723091 
L 137.943284 -160.629251 
L 137.915683 -159.535411 
L 137.85731 -158.441571 
L 137.78649 -157.347731 
L 137.722427 -156.253892 
L 137.679096 -155.160052 
L 137.66375 -154.066212 
L 137.678466 -152.972372 
L 137.721262 -151.878532 
L 137.785037 -150.784692 
L 137.856034 -149.690852 
L 137.915373 -148.597012 
L 137.945418 -147.503172 
L 137.938621 -146.409332 
L 137.903674 -145.315493 
L 137.865345 -144.221653 
L 137.858561 -143.127813 
L 137.919848 -142.033973 
L 138.077996 -140.940133 
L 138.343613 -139.846293 
L 138.698739 -138.752453 
L 139.092648 -137.658613 
L 139.452358 -136.564773 
L 139.709797 -135.470934 
L 139.833855 -134.377094 
L 139.846134 -133.283254 
L 139.806105 -132.189414 
L 139.7733 -131.095574 
L 139.773387 -130.001734 
L 139.793038 -128.907894 
L 139.805515 -127.814054 
L 139.805055 -126.720214 
L 139.823654 -125.626374 
L 139.919867 -124.532535 
L 140.149913 -123.438695 
L 140.541423 -122.344855 
L 141.085837 -121.251015 
L 141.752677 -120.157175 
L 142.516085 -119.063335 
L 143.377193 -117.969495 
L 144.367779 -116.875655 
L 145.530526 -115.781815 
L 146.885786 -114.687976 
L 148.406484 -113.594136 
L 150.023051 -112.500296 
L 151.666064 -111.406456 
L 153.333014 -110.312616 
L 155.148529 -109.218776 
L 157.380711 -108.124936 
L 160.384089 -107.031096 
L 164.46768 -105.937256 
L 169.732877 -104.843416 
L 175.963952 -103.749577 
L 182.642488 -102.655737 
L 189.084444 -101.561897 
L 194.615835 -100.468057 
L 198.687554 -99.374217 
L 200.901814 -98.280377 
L 201.0096 -97.186537 
L 198.947353 -96.092697 
L 194.904173 -94.998857 
L 189.339326 -93.905018 
L 182.889826 -92.811178 
L 176.200596 -91.717338 
L 169.776278 -90.623498 
L 163.928834 -89.529658 
L 158.813742 -88.435818 
L 154.492645 -87.341978 
L 150.971213 -86.248138 
L 148.206743 -85.154298 
L 146.109168 -84.060458 
L 144.55384 -82.966619 
L 143.404518 -81.872779 
L 142.535171 -80.778939 
L 141.843886 -79.685099 
L 141.259755 -78.591259 
L 140.744766 -77.497419 
L 140.2896 -76.403579 
L 139.90193 -75.309739 
L 139.590317 -74.215899 
L 139.351244 -73.12206 
L 139.165996 -72.02822 
L 139.008091 -70.93438 
L 138.855279 -69.84054 
L 138.697672 -68.7467 
L 138.537149 -67.65286 
L 138.38022 -66.55902 
L 138.231339 -65.46518 
L 138.09177 -64.37134 
L 137.962912 -63.2775 
L 137.848941 -62.183661 
L 137.755603 -61.089821 
L 137.686622 -59.995981 
L 137.6413 -58.902141 
z
" style="stroke: #595959; stroke-width: 1.25"/>
    </defs>
    <g clip-path="url(#p05f83ad9fc)">
     <use xlink:href="#mbeab3335e7" x="0" y="432" style="fill: #72b6a1; stroke: #595959; stroke-width: 1.25"/>
    </g>
   </g>
   <g id="PolyCollection_2">
    <defs>
     <path id="m6c62195cf5" d="M 296.29271 -53.566364 
L 295.97929 -53.566364 
L 295.835067 -54.6176 
L 295.598311 -55.668836 
L 295.2401 -56.720072 
L 294.74037 -57.771308 
L 294.09752 -58.822544 
L 293.335508 -59.87378 
L 292.504866 -60.925016 
L 291.675733 -61.976252 
L 290.923791 -63.027488 
L 290.312706 -64.078724 
L 289.87835 -65.12996 
L 289.620225 -66.181196 
L 289.503667 -67.232432 
L 289.472858 -68.283668 
L 289.470222 -69.334904 
L 289.454686 -70.38614 
L 289.411412 -71.437375 
L 289.349332 -72.488611 
L 289.288354 -73.539847 
L 289.242432 -74.591083 
L 289.205714 -75.642319 
L 289.146564 -76.693555 
L 289.010021 -77.744791 
L 288.725537 -78.796027 
L 288.215101 -79.847263 
L 287.397366 -80.898499 
L 286.185741 -81.949735 
L 284.481904 -83.000971 
L 282.170071 -84.052207 
L 279.120339 -85.103443 
L 275.209346 -86.154679 
L 270.361752 -87.205915 
L 264.606921 -88.257151 
L 258.134487 -89.308387 
L 251.325558 -90.359623 
L 244.737659 -91.410859 
L 239.033274 -92.462095 
L 234.861009 -93.513331 
L 232.7184 -94.564567 
L 232.837651 -95.615803 
L 235.133416 -96.667039 
L 239.232829 -97.718275 
L 244.577827 -98.769511 
L 250.561643 -99.820747 
L 256.650216 -100.871983 
L 262.452128 -101.923219 
L 267.729487 -102.974455 
L 272.368803 -104.025691 
L 276.340525 -105.076927 
L 279.667369 -106.128163 
L 282.405901 -107.179399 
L 284.635197 -108.230635 
L 286.44553 -109.281871 
L 287.925324 -110.333107 
L 289.149733 -111.384343 
L 290.175196 -112.435579 
L 291.041231 -113.486815 
L 291.776644 -114.538051 
L 292.405427 -115.589287 
L 292.949246 -116.640523 
L 293.426701 -117.691759 
L 293.851764 -118.742995 
L 294.233429 -119.794231 
L 294.576796 -120.845467 
L 294.884508 -121.896703 
L 295.157585 -122.947939 
L 295.395671 -123.999175 
L 295.597347 -125.050411 
L 295.760906 -126.101647 
L 295.885351 -127.152883 
L 295.970967 -128.204119 
L 296.019053 -129.255355 
L 296.031103 -130.306591 
L 296.008295 -131.357827 
L 295.952136 -132.409063 
L 295.866418 -133.460299 
L 295.75953 -134.511535 
L 295.645383 -135.562771 
L 295.541469 -136.614007 
L 295.463995 -137.665243 
L 295.42199 -138.716479 
L 295.413457 -139.767715 
L 295.425929 -140.818951 
L 295.44151 -141.870187 
L 295.444067 -142.921423 
L 295.425224 -143.972659 
L 295.386923 -145.023895 
L 295.340206 -146.075131 
L 295.301429 -147.126367 
L 295.28738 -148.177603 
L 295.310504 -149.228839 
L 295.375232 -150.280075 
L 295.476476 -151.331311 
L 295.601046 -152.382547 
L 295.731685 -153.433783 
L 295.852166 -154.485019 
L 295.951374 -155.536255 
L 296.024931 -156.587491 
L 296.07429 -157.638727 
L 296.19771 -157.638727 
L 296.19771 -157.638727 
L 296.247069 -156.587491 
L 296.320626 -155.536255 
L 296.419834 -154.485019 
L 296.540315 -153.433783 
L 296.670954 -152.382547 
L 296.795524 -151.331311 
L 296.896768 -150.280075 
L 296.961496 -149.228839 
L 296.98462 -148.177603 
L 296.970571 -147.126367 
L 296.931794 -146.075131 
L 296.885077 -145.023895 
L 296.846776 -143.972659 
L 296.827933 -142.921423 
L 296.83049 -141.870187 
L 296.846071 -140.818951 
L 296.858543 -139.767715 
L 296.85001 -138.716479 
L 296.808005 -137.665243 
L 296.730531 -136.614007 
L 296.626617 -135.562771 
L 296.51247 -134.511535 
L 296.405582 -133.460299 
L 296.319864 -132.409063 
L 296.263705 -131.357827 
L 296.240897 -130.306591 
L 296.252947 -129.255355 
L 296.301033 -128.204119 
L 296.386649 -127.152883 
L 296.511094 -126.101647 
L 296.674653 -125.050411 
L 296.876329 -123.999175 
L 297.114415 -122.947939 
L 297.387492 -121.896703 
L 297.695204 -120.845467 
L 298.038571 -119.794231 
L 298.420236 -118.742995 
L 298.845299 -117.691759 
L 299.322754 -116.640523 
L 299.866573 -115.589287 
L 300.495356 -114.538051 
L 301.230769 -113.486815 
L 302.096804 -112.435579 
L 303.122267 -111.384343 
L 304.346676 -110.333107 
L 305.82647 -109.281871 
L 307.636803 -108.230635 
L 309.866099 -107.179399 
L 312.604631 -106.128163 
L 315.931475 -105.076927 
L 319.903197 -104.025691 
L 324.542513 -102.974455 
L 329.819872 -101.923219 
L 335.621784 -100.871983 
L 341.710357 -99.820747 
L 347.694173 -98.769511 
L 353.039171 -97.718275 
L 357.138584 -96.667039 
L 359.434349 -95.615803 
L 359.5536 -94.564567 
L 357.410991 -93.513331 
L 353.238726 -92.462095 
L 347.534341 -91.410859 
L 340.946442 -90.359623 
L 334.137513 -89.308387 
L 327.665079 -88.257151 
L 321.910248 -87.205915 
L 317.062654 -86.154679 
L 313.151661 -85.103443 
L 310.101929 -84.052207 
L 307.790096 -83.000971 
L 306.086259 -81.949735 
L 304.874634 -80.898499 
L 304.056899 -79.847263 
L 303.546463 -78.796027 
L 303.261979 -77.744791 
L 303.125436 -76.693555 
L 303.066286 -75.642319 
L 303.029568 -74.591083 
L 302.983646 -73.539847 
L 302.922668 -72.488611 
L 302.860588 -71.437375 
L 302.817314 -70.38614 
L 302.801778 -69.334904 
L 302.799142 -68.283668 
L 302.768333 -67.232432 
L 302.651775 -66.181196 
L 302.39365 -65.12996 
L 301.959294 -64.078724 
L 301.348209 -63.027488 
L 300.596267 -61.976252 
L 299.767134 -60.925016 
L 298.936492 -59.87378 
L 298.17448 -58.822544 
L 297.53163 -57.771308 
L 297.0319 -56.720072 
L 296.673689 -55.668836 
L 296.436933 -54.6176 
L 296.29271 -53.566364 
z
" style="stroke: #595959; stroke-width: 1.25"/>
    </defs>
    <g clip-path="url(#p05f83ad9fc)">
     <use xlink:href="#m6c62195cf5" x="0" y="432" style="fill: #e99675; stroke: #595959; stroke-width: 1.25"/>
    </g>
   </g>
   <g id="PolyCollection_3">
    <defs>
     <path id="m4b4f5cbb18" d="M 454.724299 -164.567848 
L 454.635701 -164.567848 
L 454.593506 -166.821644 
L 454.532564 -169.07544 
L 454.460595 -171.329236 
L 454.394957 -173.583031 
L 454.356704 -175.836827 
L 454.359877 -178.090623 
L 454.403259 -180.344419 
L 454.471091 -182.598215 
L 454.542105 -184.852011 
L 454.599702 -187.105806 
L 454.636371 -189.359602 
L 454.651076 -191.613398 
L 454.643383 -193.867194 
L 454.609002 -196.12099 
L 454.539778 -198.374786 
L 454.428766 -200.628582 
L 454.278319 -202.882377 
L 454.106284 -205.136173 
L 453.944626 -207.389969 
L 453.828429 -209.643765 
L 453.779717 -211.897561 
L 453.795254 -214.151357 
L 453.846607 -216.405152 
L 453.894177 -218.658948 
L 453.907361 -220.912744 
L 453.875758 -223.16654 
L 453.798852 -225.420336 
L 453.657181 -227.674132 
L 453.38732 -229.927927 
L 452.888036 -232.181723 
L 452.065896 -234.435519 
L 450.897922 -236.689315 
L 449.472063 -238.943111 
L 447.978849 -241.196907 
L 446.658536 -243.450703 
L 445.729281 -245.704498 
L 445.316708 -247.958294 
L 445.387964 -250.21209 
L 445.692183 -252.465886 
L 445.730265 -254.719682 
L 444.794979 -256.973478 
L 442.113145 -259.227273 
L 437.085352 -261.481069 
L 429.568969 -263.734865 
L 420.099209 -265.988661 
L 409.915944 -268.242457 
L 400.708275 -270.496253 
L 394.12569 -272.750048 
L 391.2624 -275.003844 
L 392.362976 -277.25764 
L 396.861483 -279.511436 
L 403.663766 -281.765232 
L 411.490933 -284.019028 
L 419.164899 -286.272824 
L 425.812291 -288.526619 
L 430.981152 -290.780415 
L 434.640182 -293.034211 
L 437.054491 -295.288007 
L 438.604127 -297.541803 
L 439.644405 -299.795599 
L 440.455519 -302.049394 
L 441.249423 -304.30319 
L 442.174665 -306.556986 
L 443.297788 -308.810782 
L 444.588258 -311.064578 
L 445.939981 -313.318374 
L 447.22773 -315.572169 
L 448.363984 -317.825965 
L 449.323029 -320.079761 
L 450.127188 -322.333557 
L 450.815416 -324.587353 
L 451.419033 -326.841149 
L 451.955875 -329.094944 
L 452.436902 -331.34874 
L 452.871653 -333.602536 
L 453.265032 -335.856332 
L 453.609873 -338.110128 
L 453.885358 -340.363924 
L 454.066667 -342.61772 
L 454.142007 -344.871515 
L 454.126991 -347.125311 
L 454.066122 -349.379107 
L 454.017324 -351.632903 
L 454.026164 -353.886699 
L 454.105177 -356.140495 
L 454.23165 -358.39429 
L 454.36394 -360.648086 
L 454.463522 -362.901882 
L 454.509359 -365.155678 
L 454.500977 -367.409474 
L 454.454755 -369.66327 
L 454.397593 -371.917065 
L 454.35816 -374.170861 
L 454.356249 -376.424657 
L 454.394851 -378.678453 
L 454.460574 -380.932249 
L 454.53256 -383.186045 
L 454.593505 -385.439841 
L 454.635701 -387.693636 
L 454.724299 -387.693636 
L 454.724299 -387.693636 
L 454.766495 -385.439841 
L 454.82744 -383.186045 
L 454.899426 -380.932249 
L 454.965149 -378.678453 
L 455.003751 -376.424657 
L 455.00184 -374.170861 
L 454.962407 -371.917065 
L 454.905245 -369.66327 
L 454.859023 -367.409474 
L 454.850641 -365.155678 
L 454.896478 -362.901882 
L 454.99606 -360.648086 
L 455.12835 -358.39429 
L 455.254823 -356.140495 
L 455.333836 -353.886699 
L 455.342676 -351.632903 
L 455.293878 -349.379107 
L 455.233009 -347.125311 
L 455.217993 -344.871515 
L 455.293333 -342.61772 
L 455.474642 -340.363924 
L 455.750127 -338.110128 
L 456.094968 -335.856332 
L 456.488347 -333.602536 
L 456.923098 -331.34874 
L 457.404125 -329.094944 
L 457.940967 -326.841149 
L 458.544584 -324.587353 
L 459.232812 -322.333557 
L 460.036971 -320.079761 
L 460.996016 -317.825965 
L 462.13227 -315.572169 
L 463.420019 -313.318374 
L 464.771742 -311.064578 
L 466.062212 -308.810782 
L 467.185335 -306.556986 
L 468.110577 -304.30319 
L 468.904481 -302.049394 
L 469.715595 -299.795599 
L 470.755873 -297.541803 
L 472.305509 -295.288007 
L 474.719818 -293.034211 
L 478.378848 -290.780415 
L 483.547709 -288.526619 
L 490.195101 -286.272824 
L 497.869067 -284.019028 
L 505.696234 -281.765232 
L 512.498517 -279.511436 
L 516.997024 -277.25764 
L 518.0976 -275.003844 
L 515.23431 -272.750048 
L 508.651725 -270.496253 
L 499.444056 -268.242457 
L 489.260791 -265.988661 
L 479.791031 -263.734865 
L 472.274648 -261.481069 
L 467.246855 -259.227273 
L 464.565021 -256.973478 
L 463.629735 -254.719682 
L 463.667817 -252.465886 
L 463.972036 -250.21209 
L 464.043292 -247.958294 
L 463.630719 -245.704498 
L 462.701464 -243.450703 
L 461.381151 -241.196907 
L 459.887937 -238.943111 
L 458.462078 -236.689315 
L 457.294104 -234.435519 
L 456.471964 -232.181723 
L 455.97268 -229.927927 
L 455.702819 -227.674132 
L 455.561148 -225.420336 
L 455.484242 -223.16654 
L 455.452639 -220.912744 
L 455.465823 -218.658948 
L 455.513393 -216.405152 
L 455.564746 -214.151357 
L 455.580283 -211.897561 
L 455.531571 -209.643765 
L 455.415374 -207.389969 
L 455.253716 -205.136173 
L 455.081681 -202.882377 
L 454.931234 -200.628582 
L 454.820222 -198.374786 
L 454.750998 -196.12099 
L 454.716617 -193.867194 
L 454.708924 -191.613398 
L 454.723629 -189.359602 
L 454.760298 -187.105806 
L 454.817895 -184.852011 
L 454.888909 -182.598215 
L 454.956741 -180.344419 
L 455.000123 -178.090623 
L 455.003296 -175.836827 
L 454.965043 -173.583031 
L 454.899405 -171.329236 
L 454.827436 -169.07544 
L 454.766494 -166.821644 
L 454.724299 -164.567848 
z
" style="stroke: #595959; stroke-width: 1.25"/>
    </defs>
    <g clip-path="url(#p05f83ad9fc)">
     <use xlink:href="#m4b4f5cbb18" x="0" y="432" style="fill: #95a3c3; stroke: #595959; stroke-width: 1.25"/>
    </g>
   </g>
   <g id="PolyCollection_4">
    <defs>
     <path id="me3bff20744" d="M 613.335248 -63.813019 
L 613.112752 -63.813019 
L 613.027086 -64.69215 
L 612.892836 -65.571282 
L 612.694208 -66.450414 
L 612.416807 -67.329545 
L 612.051334 -68.208677 
L 611.597577 -69.087809 
L 611.067549 -69.966941 
L 610.486416 -70.846072 
L 609.890203 -71.725204 
L 609.320137 -72.604336 
L 608.814642 -73.483467 
L 608.401019 -74.362599 
L 608.089136 -75.241731 
L 607.868965 -76.120862 
L 607.712644 -76.999994 
L 607.58059 -77.879126 
L 607.430458 -78.758258 
L 607.227304 -79.637389 
L 606.953024 -80.516521 
L 606.612574 -81.395653 
L 606.234153 -82.274784 
L 605.861232 -83.153916 
L 605.536703 -84.033048 
L 605.283024 -84.912179 
L 605.085287 -85.791311 
L 604.88457 -86.670443 
L 604.585772 -87.549575 
L 604.078409 -88.428706 
L 603.263418 -89.307838 
L 602.076567 -90.18697 
L 600.500899 -91.066101 
L 598.565413 -91.945233 
L 596.332337 -92.824365 
L 593.878419 -93.703496 
L 591.275772 -94.582628 
L 588.576055 -95.46176 
L 585.799938 -96.340892 
L 582.933218 -97.220023 
L 579.931452 -98.099155 
L 576.734934 -98.978287 
L 573.293898 -99.857418 
L 569.599613 -100.73655 
L 565.712585 -101.615682 
L 561.777153 -102.494813 
L 558.014469 -103.373945 
L 554.692804 -104.253077 
L 552.082304 -105.132209 
L 550.406866 -106.01134 
L 549.8064 -106.890472 
L 550.318375 -107.769604 
L 551.880751 -108.648735 
L 554.352046 -109.527867 
L 557.540626 -110.406999 
L 561.234803 -111.28613 
L 565.227535 -112.165262 
L 569.332899 -113.044394 
L 573.394803 -113.923526 
L 577.290356 -114.802657 
L 580.930681 -115.681789 
L 584.260925 -116.560921 
L 587.259744 -117.440052 
L 589.937289 -118.319184 
L 592.330283 -119.198316 
L 594.493281 -120.077447 
L 596.486419 -120.956579 
L 598.361634 -121.835711 
L 600.150664 -122.714843 
L 601.85846 -123.593974 
L 603.464326 -124.473106 
L 604.930589 -125.352238 
L 606.215911 -126.231369 
L 607.288767 -127.110501 
L 608.136904 -127.989633 
L 608.77049 -128.868764 
L 609.219075 -129.747896 
L 609.524411 -130.627028 
L 609.731933 -131.50616 
L 609.883417 -132.385291 
L 610.012276 -133.264423 
L 610.141826 -134.143555 
L 610.285825 -135.022686 
L 610.450163 -135.901818 
L 610.634694 -136.78095 
L 610.834841 -137.660081 
L 611.043176 -138.539213 
L 611.251367 -139.418345 
L 611.452462 -140.297477 
L 611.642855 -141.176608 
L 611.822997 -142.05574 
L 611.996319 -142.934872 
L 612.166777 -143.814003 
L 612.336183 -144.693135 
L 612.502681 -145.572267 
L 612.661014 -146.451398 
L 612.804338 -147.33053 
L 612.926575 -148.209662 
L 613.024255 -149.088794 
L 613.097191 -149.967925 
L 613.148029 -150.847057 
L 613.299971 -150.847057 
L 613.299971 -150.847057 
L 613.350809 -149.967925 
L 613.423745 -149.088794 
L 613.521425 -148.209662 
L 613.643662 -147.33053 
L 613.786986 -146.451398 
L 613.945319 -145.572267 
L 614.111817 -144.693135 
L 614.281223 -143.814003 
L 614.451681 -142.934872 
L 614.625003 -142.05574 
L 614.805145 -141.176608 
L 614.995538 -140.297477 
L 615.196633 -139.418345 
L 615.404824 -138.539213 
L 615.613159 -137.660081 
L 615.813306 -136.78095 
L 615.997837 -135.901818 
L 616.162175 -135.022686 
L 616.306174 -134.143555 
L 616.435724 -133.264423 
L 616.564583 -132.385291 
L 616.716067 -131.50616 
L 616.923589 -130.627028 
L 617.228925 -129.747896 
L 617.67751 -128.868764 
L 618.311096 -127.989633 
L 619.159233 -127.110501 
L 620.232089 -126.231369 
L 621.517411 -125.352238 
L 622.983674 -124.473106 
L 624.58954 -123.593974 
L 626.297336 -122.714843 
L 628.086366 -121.835711 
L 629.961581 -120.956579 
L 631.954719 -120.077447 
L 634.117717 -119.198316 
L 636.510711 -118.319184 
L 639.188256 -117.440052 
L 642.187075 -116.560921 
L 645.517319 -115.681789 
L 649.157644 -114.802657 
L 653.053197 -113.923526 
L 657.115101 -113.044394 
L 661.220465 -112.165262 
L 665.213197 -111.28613 
L 668.907374 -110.406999 
L 672.095954 -109.527867 
L 674.567249 -108.648735 
L 676.129625 -107.769604 
L 676.6416 -106.890472 
L 676.041134 -106.01134 
L 674.365696 -105.132209 
L 671.755196 -104.253077 
L 668.433531 -103.373945 
L 664.670847 -102.494813 
L 660.735415 -101.615682 
L 656.848387 -100.73655 
L 653.154102 -99.857418 
L 649.713066 -98.978287 
L 646.516548 -98.099155 
L 643.514782 -97.220023 
L 640.648062 -96.340892 
L 637.871945 -95.46176 
L 635.172228 -94.582628 
L 632.569581 -93.703496 
L 630.115663 -92.824365 
L 627.882587 -91.945233 
L 625.947101 -91.066101 
L 624.371433 -90.18697 
L 623.184582 -89.307838 
L 622.369591 -88.428706 
L 621.862228 -87.549575 
L 621.56343 -86.670443 
L 621.362713 -85.791311 
L 621.164976 -84.912179 
L 620.911297 -84.033048 
L 620.586768 -83.153916 
L 620.213847 -82.274784 
L 619.835426 -81.395653 
L 619.494976 -80.516521 
L 619.220696 -79.637389 
L 619.017542 -78.758258 
L 618.86741 -77.879126 
L 618.735356 -76.999994 
L 618.579035 -76.120862 
L 618.358864 -75.241731 
L 618.046981 -74.362599 
L 617.633358 -73.483467 
L 617.127863 -72.604336 
L 616.557797 -71.725204 
L 615.961584 -70.846072 
L 615.380451 -69.966941 
L 614.850423 -69.087809 
L 614.396666 -68.208677 
L 614.031193 -67.329545 
L 613.753792 -66.450414 
L 613.555164 -65.571282 
L 613.420914 -64.69215 
L 613.335248 -63.813019 
z
" style="stroke: #595959; stroke-width: 1.25"/>
    </defs>
    <g clip-path="url(#p05f83ad9fc)">
     <use xlink:href="#me3bff20744" x="0" y="432" style="fill: #db96c0; stroke: #595959; stroke-width: 1.25"/>
    </g>
   </g>
   <g id="PolyCollection_5">
    <defs>
     <path id="md8b3783df1" d="M 771.827789 -59.65702 
L 771.708211 -59.65702 
L 771.653394 -60.551975 
L 771.565429 -61.446931 
L 771.436096 -62.341886 
L 771.261182 -63.236842 
L 771.04307 -64.131797 
L 770.792411 -65.026753 
L 770.527877 -65.921708 
L 770.272787 -66.816664 
L 770.048045 -67.711619 
L 769.862986 -68.606574 
L 769.70813 -69.50153 
L 769.554233 -70.396485 
L 769.359297 -71.291441 
L 769.081093 -72.186396 
L 768.690521 -73.081352 
L 768.181703 -73.976307 
L 767.576832 -74.871262 
L 766.925103 -75.766218 
L 766.295028 -76.661173 
L 765.759344 -77.556129 
L 765.373559 -78.451084 
L 765.153298 -79.34604 
L 765.059614 -80.240995 
L 765.001044 -81.135951 
L 764.85385 -82.030906 
L 764.490644 -82.925861 
L 763.800634 -83.820817 
L 762.689363 -84.715772 
L 761.061043 -85.610728 
L 758.801891 -86.505683 
L 755.786127 -87.400639 
L 751.913404 -88.295594 
L 747.165189 -89.190549 
L 741.651765 -90.085505 
L 735.622252 -90.98046 
L 729.428817 -91.875416 
L 723.462541 -92.770371 
L 718.094398 -93.665327 
L 713.646947 -94.560282 
L 710.395298 -95.455238 
L 708.571958 -96.350193 
L 708.3504 -97.245148 
L 709.805182 -98.140104 
L 712.870288 -99.035059 
L 717.322185 -99.930015 
L 722.800368 -100.82497 
L 728.860035 -101.719926 
L 735.040353 -102.614881 
L 740.929026 -103.509836 
L 746.208044 -104.404792 
L 750.675243 -105.299747 
L 754.246894 -106.194703 
L 756.949758 -107.089658 
L 758.904525 -107.984614 
L 760.29584 -108.879569 
L 761.328207 -109.774525 
L 762.179478 -110.66948 
L 762.97011 -111.564435 
L 763.758282 -112.459391 
L 764.555689 -113.354346 
L 765.349853 -114.249302 
L 766.121225 -115.144257 
L 766.851452 -116.039213 
L 767.525568 -116.934168 
L 768.132521 -117.829123 
L 768.666572 -118.724079 
L 769.128917 -119.619034 
L 769.527219 -120.51399 
L 769.871938 -121.408945 
L 770.171364 -122.303901 
L 770.428824 -123.198856 
L 770.643847 -124.093812 
L 770.815706 -124.988767 
L 770.946119 -125.883722 
L 771.039369 -126.778678 
L 771.100886 -127.673633 
L 771.13641 -128.568589 
L 771.152341 -129.463544 
L 771.156151 -130.3585 
L 771.155815 -131.253455 
L 771.158716 -132.14841 
L 771.171105 -133.043366 
L 771.197948 -133.938321 
L 771.241895 -134.833277 
L 771.300918 -135.728232 
L 771.366375 -136.623188 
L 771.424143 -137.518143 
L 771.459711 -138.413099 
L 771.465134 -139.308054 
L 771.443938 -140.203009 
L 771.410859 -141.097965 
L 771.386029 -141.99292 
L 771.386355 -142.887876 
L 771.418536 -143.782831 
L 771.47726 -144.677787 
L 771.549047 -145.572742 
L 771.618975 -146.467697 
L 771.67639 -147.362653 
L 771.717151 -148.257608 
L 771.818849 -148.257608 
L 771.818849 -148.257608 
L 771.85961 -147.362653 
L 771.917025 -146.467697 
L 771.986953 -145.572742 
L 772.05874 -144.677787 
L 772.117464 -143.782831 
L 772.149645 -142.887876 
L 772.149971 -141.99292 
L 772.125141 -141.097965 
L 772.092062 -140.203009 
L 772.070866 -139.308054 
L 772.076289 -138.413099 
L 772.111857 -137.518143 
L 772.169625 -136.623188 
L 772.235082 -135.728232 
L 772.294105 -134.833277 
L 772.338052 -133.938321 
L 772.364895 -133.043366 
L 772.377284 -132.14841 
L 772.380185 -131.253455 
L 772.379849 -130.3585 
L 772.383659 -129.463544 
L 772.39959 -128.568589 
L 772.435114 -127.673633 
L 772.496631 -126.778678 
L 772.589881 -125.883722 
L 772.720294 -124.988767 
L 772.892153 -124.093812 
L 773.107176 -123.198856 
L 773.364636 -122.303901 
L 773.664062 -121.408945 
L 774.008781 -120.51399 
L 774.407083 -119.619034 
L 774.869428 -118.724079 
L 775.403479 -117.829123 
L 776.010432 -116.934168 
L 776.684548 -116.039213 
L 777.414775 -115.144257 
L 778.186147 -114.249302 
L 778.980311 -113.354346 
L 779.777718 -112.459391 
L 780.56589 -111.564435 
L 781.356522 -110.66948 
L 782.207793 -109.774525 
L 783.24016 -108.879569 
L 784.631475 -107.984614 
L 786.586242 -107.089658 
L 789.289106 -106.194703 
L 792.860757 -105.299747 
L 797.327956 -104.404792 
L 802.606974 -103.509836 
L 808.495647 -102.614881 
L 814.675965 -101.719926 
L 820.735632 -100.82497 
L 826.213815 -99.930015 
L 830.665712 -99.035059 
L 833.730818 -98.140104 
L 835.1856 -97.245148 
L 834.964042 -96.350193 
L 833.140702 -95.455238 
L 829.889053 -94.560282 
L 825.441602 -93.665327 
L 820.073459 -92.770371 
L 814.107183 -91.875416 
L 807.913748 -90.98046 
L 801.884235 -90.085505 
L 796.370811 -89.190549 
L 791.622596 -88.295594 
L 787.749873 -87.400639 
L 784.734109 -86.505683 
L 782.474957 -85.610728 
L 780.846637 -84.715772 
L 779.735366 -83.820817 
L 779.045356 -82.925861 
L 778.68215 -82.030906 
L 778.534956 -81.135951 
L 778.476386 -80.240995 
L 778.382702 -79.34604 
L 778.162441 -78.451084 
L 777.776656 -77.556129 
L 777.240972 -76.661173 
L 776.610897 -75.766218 
L 775.959168 -74.871262 
L 775.354297 -73.976307 
L 774.845479 -73.081352 
L 774.454907 -72.186396 
L 774.176703 -71.291441 
L 773.981767 -70.396485 
L 773.82787 -69.50153 
L 773.673014 -68.606574 
L 773.487955 -67.711619 
L 773.263213 -66.816664 
L 773.008123 -65.921708 
L 772.743589 -65.026753 
L 772.49293 -64.131797 
L 772.274818 -63.236842 
L 772.099904 -62.341886 
L 771.970571 -61.446931 
L 771.882606 -60.551975 
L 771.827789 -59.65702 
z
" style="stroke: #595959; stroke-width: 1.25"/>
    </defs>
    <g clip-path="url(#p05f83ad9fc)">
     <use xlink:href="#md8b3783df1" x="0" y="432" style="fill: #a2c865; stroke: #595959; stroke-width: 1.25"/>
    </g>
   </g>
   <g id="line2d_10">
    <path d="M 137.592 337.626157 
L 137.592 350.047651 
" clip-path="url(#p05f83ad9fc)" style="fill: none; stroke: #000000"/>
   </g>
   <g id="line2d_11">
    <path d="M 137.592 329.214913 
L 137.592 316.649461 
" clip-path="url(#p05f83ad9fc)" style="fill: none; stroke: #000000"/>
   </g>
   <g id="line2d_12">
    <path d="M 131.6466 350.047651 
L 143.5374 350.047651 
" clip-path="url(#p05f83ad9fc)" style="fill: none; stroke: #000000; stroke-linecap: round"/>
   </g>
   <g id="line2d_13">
    <path d="M 131.6466 316.649461 
L 143.5374 316.649461 
" clip-path="url(#p05f83ad9fc)" style="fill: none; stroke: #000000; stroke-linecap: round"/>
   </g>
   <g id="line2d_14">
    <path d="M 296.136 341.307361 
L 296.136 352.762282 
" clip-path="url(#p05f83ad9fc)" style="fill: none; stroke: #000000"/>
   </g>
   <g id="line2d_15">
    <path d="M 296.136 333.348556 
L 296.136 322.160985 
" clip-path="url(#p05f83ad9fc)" style="fill: none; stroke: #000000"/>
   </g>
   <g id="line2d_16">
    <path d="M 290.1906 352.762282 
L 302.0814 352.762282 
" clip-path="url(#p05f83ad9fc)" style="fill: none; stroke: #000000; stroke-linecap: round"/>
   </g>
   <g id="line2d_17">
    <path d="M 290.1906 322.160985 
L 302.0814 322.160985 
" clip-path="url(#p05f83ad9fc)" style="fill: none; stroke: #000000; stroke-linecap: round"/>
   </g>
   <g id="line2d_18">
    <path d="M 454.68 160.928343 
L 454.68 182.563131 
" clip-path="url(#p05f83ad9fc)" style="fill: none; stroke: #000000"/>
   </g>
   <g id="line2d_19">
    <path d="M 454.68 146.368049 
L 454.68 124.650999 
" clip-path="url(#p05f83ad9fc)" style="fill: none; stroke: #000000"/>
   </g>
   <g id="line2d_20">
    <path d="M 448.7346 182.563131 
L 460.6254 182.563131 
" clip-path="url(#p05f83ad9fc)" style="fill: none; stroke: #000000; stroke-linecap: round"/>
   </g>
   <g id="line2d_21">
    <path d="M 448.7346 124.650999 
L 460.6254 124.650999 
" clip-path="url(#p05f83ad9fc)" style="fill: none; stroke: #000000; stroke-linecap: round"/>
   </g>
   <g id="line2d_22">
    <path d="M 613.224 331.99124 
L 613.224 349.965389 
" clip-path="url(#p05f83ad9fc)" style="fill: none; stroke: #000000"/>
   </g>
   <g id="line2d_23">
    <path d="M 613.224 319.837096 
L 613.224 303.734397 
" clip-path="url(#p05f83ad9fc)" style="fill: none; stroke: #000000"/>
   </g>
   <g id="line2d_24">
    <path d="M 607.2786 349.965389 
L 619.1694 349.965389 
" clip-path="url(#p05f83ad9fc)" style="fill: none; stroke: #000000; stroke-linecap: round"/>
   </g>
   <g id="line2d_25">
    <path d="M 607.2786 303.734397 
L 619.1694 303.734397 
" clip-path="url(#p05f83ad9fc)" style="fill: none; stroke: #000000; stroke-linecap: round"/>
   </g>
   <g id="line2d_26">
    <path d="M 771.768 339.189126 
L 771.768 351.199313 
" clip-path="url(#p05f83ad9fc)" style="fill: none; stroke: #000000"/>
   </g>
   <g id="line2d_27">
    <path d="M 771.768 331.127494 
L 771.768 319.035046 
" clip-path="url(#p05f83ad9fc)" style="fill: none; stroke: #000000"/>
   </g>
   <g id="line2d_28">
    <path d="M 765.8226 351.199313 
L 777.7134 351.199313 
" clip-path="url(#p05f83ad9fc)" style="fill: none; stroke: #000000; stroke-linecap: round"/>
   </g>
   <g id="line2d_29">
    <path d="M 765.8226 319.035046 
L 777.7134 319.035046 
" clip-path="url(#p05f83ad9fc)" style="fill: none; stroke: #000000; stroke-linecap: round"/>
   </g>
   <g id="line2d_30">
    <path d="M 125.7012 333.759864 
L 149.4828 333.759864 
" clip-path="url(#p05f83ad9fc)" style="fill: none; stroke: #ff0000; stroke-width: 2"/>
   </g>
   <g id="line2d_31">
    <path d="M 284.2452 337.214849 
L 308.0268 337.214849 
" clip-path="url(#p05f83ad9fc)" style="fill: none; stroke: #ff0000; stroke-width: 2"/>
   </g>
   <g id="line2d_32">
    <path d="M 442.7892 154.964381 
L 466.5708 154.964381 
" clip-path="url(#p05f83ad9fc)" style="fill: none; stroke: #ff0000; stroke-width: 2"/>
   </g>
   <g id="line2d_33">
    <path d="M 601.3332 325.574839 
L 625.1148 325.574839 
" clip-path="url(#p05f83ad9fc)" style="fill: none; stroke: #ff0000; stroke-width: 2"/>
   </g>
   <g id="line2d_34">
    <path d="M 759.8772 335.076048 
L 783.6588 335.076048 
" clip-path="url(#p05f83ad9fc)" style="fill: none; stroke: #ff0000; stroke-width: 2"/>
   </g>
   <g id="patch_3">
    <path d="M 58.32 395.14 
L 58.32 27.6 
" style="fill: none; stroke: #cccccc; stroke-width: 1.25; stroke-linejoin: miter; stroke-linecap: square"/>
   </g>
   <g id="patch_4">
    <path d="M 851.04 395.14 
L 851.04 27.6 
" style="fill: none; stroke: #cccccc; stroke-width: 1.25; stroke-linejoin: miter; stroke-linecap: square"/>
   </g>
   <g id="patch_5">
    <path d="M 58.32 395.14 
L 851.04 395.14 
" style="fill: none; stroke: #cccccc; stroke-width: 1.25; stroke-linejoin: miter; stroke-linecap: square"/>
   </g>
   <g id="patch_6">
    <path d="M 58.32 27.6 
L 851.04 27.6 
" style="fill: none; stroke: #cccccc; stroke-width: 1.25; stroke-linejoin: miter; stroke-linecap: square"/>
   </g>
   <g id="text_16">
    <!-- Handshake duration on TLS with ed25519 signature algorithm — Degraded (200ms/10%) -->
    <g style="fill: #262626" transform="translate(186.15 21.6) scale(0.12 -0.12)">
     <defs>
      <path id="DejaVuSans-54" d="M -19 4666 
L 3928 4666 
L 3928 4134 
L 2272 4134 
L 2272 0 
L 1638 0 
L 1638 4134 
L -19 4134 
L -19 4666 
z
" transform="scale(0.015625)"/>
      <path id="DejaVuSans-4c" d="M 628 4666 
L 1259 4666 
L 1259 531 
L 3531 531 
L 3531 0 
L 628 0 
L 628 4666 
z
" transform="scale(0.015625)"/>
      <path id="DejaVuSans-53" d="M 3425 4513 
L 3425 3897 
Q 3066 4069 2747 4153 
Q 2428 4238 2131 4238 
Q 1616 4238 1336 4038 
Q 1056 3838 1056 3469 
Q 1056 3159 1242 3001 
Q 1428 2844 1947 2747 
L 2328 2669 
Q 3034 2534 3370 2195 
Q 3706 1856 3706 1288 
Q 3706 609 3251 259 
Q 2797 -91 1919 -91 
Q 1588 -91 1214 -16 
Q 841 59 441 206 
L 441 856 
Q 825 641 1194 531 
Q 1563 422 1919 422 
Q 2459 422 2753 634 
Q 3047 847 3047 1241 
Q 3047 1584 2836 1778 
Q 2625 1972 2144 2069 
L 1759 2144 
Q 1053 2284 737 2584 
Q 422 2884 422 3419 
Q 422 4038 858 4394 
Q 1294 4750 2059 4750 
Q 2388 4750 2728 4690 
Q 3069 4631 3425 4513 
z
" transform="scale(0.015625)"/>
      <path id="DejaVuSans-77" d="M 269 3500 
L 844 3500 
L 1563 769 
L 2278 3500 
L 2956 3500 
L 3675 769 
L 4391 3500 
L 4966 3500 
L 4050 0 
L 3372 0 
L 2619 2869 
L 1863 0 
L 1184 0 
L 269 3500 
z
" transform="scale(0.015625)"/>
      <path id="DejaVuSans-67" d="M 2906 1791 
Q 2906 2416 2648 2759 
Q 2391 3103 1925 3103 
Q 1463 3103 1205 2759 
Q 947 2416 947 1791 
Q 947 1169 1205 825 
Q 1463 481 1925 481 
Q 2391 481 2648 825 
Q 2906 1169 2906 1791 
z
M 3481 434 
Q 3481 -459 3084 -895 
Q 2688 -1331 1869 -1331 
Q 1566 -1331 1297 -1286 
Q 1028 -1241 775 -1147 
L 775 -588 
Q 1028 -725 1275 -790 
Q 1522 -856 1778 -856 
Q 2344 -856 2625 -561 
Q 2906 -266 2906 331 
L 2906 616 
Q 2728 306 2450 153 
Q 2172 0 1784 0 
Q 1141 0 747 490 
Q 353 981 353 1791 
Q 353 2603 747 3093 
Q 1141 3584 1784 3584 
Q 2172 3584 2450 3431 
Q 2728 3278 2906 2969 
L 2906 3500 
L 3481 3500 
L 3481 434 
z
" transform="scale(0.015625)"/>
      <path id="DejaVuSans-2014" d="M 313 1978 
L 6088 1978 
L 6088 1528 
L 313 1528 
L 313 1978 
z
" transform="scale(0.015625)"/>
      <path id="DejaVuSans-44" d="M 1259 4147 
L 1259 519 
L 2022 519 
Q 2988 519 3436 956 
Q 3884 1394 3884 2338 
Q 3884 3275 3436 3711 
Q 2988 4147 2022 4147 
L 1259 4147 
z
M 628 4666 
L 1925 4666 
Q 3281 4666 3915 4102 
Q 4550 3538 4550 2338 
Q 4550 1131 3912 565 
Q 3275 0 1925 0 
L 628 0 
L 628 4666 
z
" transform="scale(0.015625)"/>
      <path id="DejaVuSans-2f" d="M 1625 4666 
L 2156 4666 
L 531 -594 
L 0 -594 
L 1625 4666 
z
" transform="scale(0.015625)"/>
      <path id="DejaVuSans-25" d="M 4653 2053 
Q 4381 2053 4226 1822 
Q 4072 1591 4072 1178 
Q 4072 772 4226 539 
Q 4381 306 4653 306 
Q 4919 306 5073 539 
Q 5228 772 5228 1178 
Q 5228 1588 5073 1820 
Q 4919 2053 4653 2053 
z
M 4653 2450 
Q 5147 2450 5437 2106 
Q 5728 1763 5728 1178 
Q 5728 594 5436 251 
Q 5144 -91 4653 -91 
Q 4153 -91 3862 251 
Q 3572 594 3572 1178 
Q 3572 1766 3864 2108 
Q 4156 2450 4653 2450 
z
M 1428 4353 
Q 1159 4353 1004 4120 
Q 850 3888 850 3481 
Q 850 3069 1003 2837 
Q 1156 2606 1428 2606 
Q 1700 2606 1854 2837 
Q 2009 3069 2009 3481 
Q 2009 3884 1853 4118 
Q 1697 4353 1428 4353 
z
M 4250 4750 
L 4750 4750 
L 1831 -91 
L 1331 -91 
L 4250 4750 
z
M 1428 4750 
Q 1922 4750 2215 4408 
Q 2509 4066 2509 3481 
Q 2509 2891 2217 2550 
Q 1925 2209 1428 2209 
Q 931 2209 642 2551 
Q 353 2894 353 3481 
Q 353 4063 643 4406 
Q 934 4750 1428 4750 
z
" transform="scale(0.015625)"/>
     </defs>
     <use xlink:href="#DejaVuSans-48"/>
     <use xlink:href="#DejaVuSans-61" x="75.195312"/>
     <use xlink:href="#DejaVuSans-6e" x="136.474609"/>
     <use xlink:href="#DejaVuSans-64" x="199.853516"/>
     <use xlink:href="#DejaVuSans-73" x="263.330078"/>
     <use xlink:href="#DejaVuSans-68" x="315.429688"/>
     <use xlink:href="#DejaVuSans-61" x="378.808594"/>
     <use xlink:href="#DejaVuSans-6b" x="440.087891"/>
     <use xlink:href="#DejaVuSans-65" x="494.373047"/>
     <use xlink:href="#DejaVuSans-20" x="555.896484"/>
     <use xlink:href="#DejaVuSans-64" x="587.683594"/>
     <use xlink:href="#DejaVuSans-75" x="651.160156"/>
     <use xlink:href="#DejaVuSans-72" x="714.539062"/>
     <use xlink:href="#DejaVuSans-61" x="755.652344"/>
     <use xlink:href="#DejaVuSans-74" x="816.931641"/>
     <use xlink:href="#DejaVuSans-69" x="856.140625"/>
     <use xlink:href="#DejaVuSans-6f" x="883.923828"/>
     <use xlink:href="#DejaVuSans-6e" x="945.105469"/>
     <use xlink:href="#DejaVuSans-20" x="1008.484375"/>
     <use xlink:href="#DejaVuSans-6f" x="1040.271484"/>
     <use xlink:href="#DejaVuSans-6e" x="1101.453125"/>
     <use xlink:href="#DejaVuSans-20" x="1164.832031"/>
     <use xlink:href="#DejaVuSans-54" x="1196.619141"/>
     <use xlink:href="#DejaVuSans-4c" x="1257.703125"/>
     <use xlink:href="#DejaVuSans-53" x="1313.416016"/>
     <use xlink:href="#DejaVuSans-20" x="1376.892578"/>
     <use xlink:href="#DejaVuSans-77" x="1408.679688"/>
     <use xlink:href="#DejaVuSans-69" x="1490.466797"/>
     <use xlink:href="#DejaVuSans-74" x="1518.25"/>
     <use xlink:href="#DejaVuSans-68" x="1557.458984"/>
     <use xlink:href="#DejaVuSans-20" x="1620.837891"/>
     <use xlink:href="#DejaVuSans-65" x="1652.625"/>
     <use xlink:href="#DejaVuSans-64" x="1714.148438"/>
     <use xlink:href="#DejaVuSans-32" x="1777.625"/>
     <use xlink:href="#DejaVuSans-35" x="1841.248047"/>
     <use xlink:href="#DejaVuSans-35" x="1904.871094"/>
     <use xlink:href="#DejaVuSans-31" x="1968.494141"/>
     <use xlink:href="#DejaVuSans-39" x="2032.117188"/>
     <use xlink:href="#DejaVuSans-20" x="2095.740234"/>
     <use xlink:href="#DejaVuSans-73" x="2127.527344"/>
     <use xlink:href="#DejaVuSans-69" x="2179.626953"/>
     <use xlink:href="#DejaVuSans-67" x="2207.410156"/>
     <use xlink:href="#DejaVuSans-6e" x="2270.886719"/>
     <use xlink:href="#DejaVuSans-61" x="2334.265625"/>
     <use xlink:href="#DejaVuSans-74" x="2395.544922"/>
     <use xlink:href="#DejaVuSans-75" x="2434.753906"/>
     <use xlink:href="#DejaVuSans-72" x="2498.132812"/>
     <use xlink:href="#DejaVuSans-65" x="2536.996094"/>
     <use xlink:href="#DejaVuSans-20" x="2598.519531"/>
     <use xlink:href="#DejaVuSans-61" x="2630.306641"/>
     <use xlink:href="#DejaVuSans-6c" x="2691.585938"/>
     <use xlink:href="#DejaVuSans-67" x="2719.369141"/>
     <use xlink:href="#DejaVuSans-6f" x="2782.845703"/>
     <use xlink:href="#DejaVuSans-72" x="2844.027344"/>
     <use xlink:href="#DejaVuSans-69" x="2885.140625"/>
     <use xlink:href="#DejaVuSans-74" x="2912.923828"/>
     <use xlink:href="#DejaVuSans-68" x="2952.132812"/>
     <use xlink:href="#DejaVuSans-6d" x="3015.511719"/>
     <use xlink:href="#DejaVuSans-20" x="3112.923828"/>
     <use xlink:href="#DejaVuSans-2014" x="3144.710938"/>
     <use xlink:href="#DejaVuSans-20" x="3244.710938"/>
     <use xlink:href="#DejaVuSans-44" x="3276.498047"/>
     <use xlink:href="#DejaVuSans-65" x="3353.5"/>
     <use xlink:href="#DejaVuSans-67" x="3415.023438"/>
     <use xlink:href="#DejaVuSans-72" x="3478.5"/>
     <use xlink:href="#DejaVuSans-61" x="3519.613281"/>
     <use xlink:href="#DejaVuSans-64" x="3580.892578"/>
     <use xlink:href="#DejaVuSans-65" x="3644.369141"/>
     <use xlink:href="#DejaVuSans-64" x="3705.892578"/>
     <use xlink:href="#DejaVuSans-20" x="3769.369141"/>
     <use xlink:href="#DejaVuSans-28" x="3801.15625"/>
     <use xlink:href="#DejaVuSans-32" x="3840.169922"/>
     <use xlink:href="#DejaVuSans-30" x="3903.792969"/>
     <use xlink:href="#DejaVuSans-30" x="3967.416016"/>
     <use xlink:href="#DejaVuSans-6d" x="4031.039062"/>
     <use xlink:href="#DejaVuSans-73" x="4128.451172"/>
     <use xlink:href="#DejaVuSans-2f" x="4180.550781"/>
     <use xlink:href="#DejaVuSans-31" x="4214.242188"/>
     <use xlink:href="#DejaVuSans-30" x="4277.865234"/>
     <use xlink:href="#DejaVuSans-25" x="4341.488281"/>
     <use xlink:href="#DejaVuSans-29" x="4436.507812"/>
    </g>
   </g>
  </g>
 </g>
 <defs>
  <clipPath id="p05f83ad9fc">
   <rect x="58.32" y="27.6" width="792.72" height="367.54"/>
  </clipPath>
 </defs>
</svg>
