<?xml version="1.0" encoding="utf-8" standalone="no"?>
<!DOCTYPE svg PUBLIC "-//W3C//DTD SVG 1.1//EN"
  "http://www.w3.org/Graphics/SVG/1.1/DTD/svg11.dtd">
<svg xmlns:xlink="http://www.w3.org/1999/xlink" width="864pt" height="432pt" viewBox="0 0 864 432" xmlns="http://www.w3.org/2000/svg" version="1.1">
 <metadata>
  <rdf:RDF xmlns:dc="http://purl.org/dc/elements/1.1/" xmlns:cc="http://creativecommons.org/ns#" xmlns:rdf="http://www.w3.org/1999/02/22-rdf-syntax-ns#">
   <cc:Work>
    <dc:type rdf:resource="http://purl.org/dc/dcmitype/StillImage"/>
    <dc:date>2026-03-21T13:58:45.813037</dc:date>
    <dc:format>image/svg+xml</dc:format>
    <dc:creator>
     <cc:Agent>
      <dc:title>Matplotlib v3.6.3, https://matplotlib.org/</dc:title>
     </cc:Agent>
    </dc:creator>
   </cc:Work>
  </rdf:RDF>
 </metadata>
 <defs>
  <style type="text/css">*{stroke-linejoin: round; stroke-linecap: butt}</style>
 </defs>
 <g id="figure_1">
  <g id="patch_1">
   <path d="M 0 432 
L 864 432 
L 864 0 
L 0 0 
z
" style="fill: #ffffff"/>
  </g>
  <g id="axes_1">
   <g id="patch_2">
    <path d="M 58.32 395.14 
L 851.04 395.14 
L 851.04 27.6 
L 58.32 27.6 
z
" style="fill: #ffffff"/>
   </g>
   <g id="matplotlib.axis_1">
    <g id="xtick_1">
     <g id="text_1">
      <!-- P-384 -->
      <g style="fill: #262626" transform="translate(117.642 415.277812) scale(0.14 -0.14)">
       <defs>
        <path id="DejaVuSans-50" d="M 1259 4147 
L 1259 2394 
L 2053 2394 
Q 2494 2394 2734 2622 
Q 2975 2850 2975 3272 
Q 2975 3691 2734 3919 
Q 2494 4147 2053 4147 
L 1259 4147 
z
M 628 4666 
L 2053 4666 
Q 2838 4666 3239 4311 
Q 3641 3956 3641 3272 
Q 3641 2581 3239 2228 
Q 2838 1875 2053 1875 
L 1259 1875 
L 1259 0 
L 628 0 
L 628 4666 
z
" transform="scale(0.015625)"/>
        <path id="DejaVuSans-2d" d="M 313 2009 
L 1997 2009 
L 1997 1497 
L 313 1497 
L 313 2009 
z
" transform="scale(0.015625)"/>
        <path id="DejaVuSans-33" d="M 2597 2516 
Q 3050 2419 3304 2112 
Q 3559 1806 3559 1356 
Q 3559 666 3084 287 
Q 2609 -91 1734 -91 
Q 1441 -91 1130 -33 
Q 819 25 488 141 
L 488 750 
Q 750 597 1062 519 
Q 1375 441 1716 441 
Q 2309 441 2620 675 
Q 2931 909 2931 1356 
Q 2931 1769 2642 2001 
Q 2353 2234 1838 2234 
L 1294 2234 
L 1294 2753 
L 1863 2753 
Q 2328 2753 2575 2939 
Q 2822 3125 2822 3475 
Q 2822 3834 2567 4026 
Q 2313 4219 1838 4219 
Q 1578 4219 1281 4162 
Q 984 4106 628 3988 
L 628 4550 
Q 988 4650 1302 4700 
Q 1616 4750 1894 4750 
Q 2613 4750 3031 4423 
Q 3450 4097 3450 3541 
Q 3450 3153 3228 2886 
Q 3006 2619 2597 2516 
z
" transform="scale(0.015625)"/>
        <path id="DejaVuSans-38" d="M 2034 2216 
Q 1584 2216 1326 1975 
Q 1069 1734 1069 1313 
Q 1069 891 1326 650 
Q 1584 409 2034 409 
Q 2484 409 2743 651 
Q 3003 894 3003 1313 
Q 3003 1734 2745 1975 
Q 2488 2216 2034 2216 
z
M 1403 2484 
Q 997 2584 770 2862 
Q 544 3141 544 3541 
Q 544 4100 942 4425 
Q 1341 4750 2034 4750 
Q 2731 4750 3128 4425 
Q 3525 4100 3525 3541 
Q 3525 3141 3298 2862 
Q 3072 2584 2669 2484 
Q 3125 2378 3379 2068 
Q 3634 1759 3634 1313 
Q 3634 634 3220 271 
Q 2806 -91 2034 -91 
Q 1263 -91 848 271 
Q 434 634 434 1313 
Q 434 1759 690 2068 
Q 947 2378 1403 2484 
z
M 1172 3481 
Q 1172 3119 1398 2916 
Q 1625 2713 2034 2713 
Q 2441 2713 2670 2916 
Q 2900 3119 2900 3481 
Q 2900 3844 2670 4047 
Q 2441 4250 2034 4250 
Q 1625 4250 1398 4047 
Q 1172 3844 1172 3481 
z
" transform="scale(0.015625)"/>
        <path id="DejaVuSans-34" d="M 2419 4116 
L 825 1625 
L 2419 1625 
L 2419 4116 
z
M 2253 4666 
L 3047 4666 
L 3047 1625 
L 3713 1625 
L 3713 1100 
L 3047 1100 
L 3047 0 
L 2419 0 
L 2419 1100 
L 313 1100 
L 313 1709 
L 2253 4666 
z
" transform="scale(0.015625)"/>
       </defs>
       <use xlink:href="#DejaVuSans-50"/>
       <use xlink:href="#DejaVuSans-2d" x="58.052734"/>
       <use xlink:href="#DejaVuSans-33" x="94.136719"/>
       <use xlink:href="#DejaVuSans-38" x="157.759766"/>
       <use xlink:href="#DejaVuSans-34" x="221.382812"/>
      </g>
     </g>
    </g>
    <g id="xtick_2">
     <g id="text_2">
      <!-- x448 -->
      <g style="fill: #262626" transform="translate(278.631625 415.277812) scale(0.14 -0.14)">
       <defs>
        <path id="DejaVuSans-78" d="M 3513 3500 
L 2247 1797 
L 3578 0 
L 2900 0 
L 1881 1375 
L 863 0 
L 184 0 
L 1544 1831 
L 300 3500 
L 978 3500 
L 1906 2253 
L 2834 3500 
L 3513 3500 
z
" transform="scale(0.015625)"/>
       </defs>
       <use xlink:href="#DejaVuSans-78"/>
       <use xlink:href="#DejaVuSans-34" x="59.179688"/>
       <use xlink:href="#DejaVuSans-34" x="122.802734"/>
       <use xlink:href="#DejaVuSans-38" x="186.425781"/>
      </g>
     </g>
    </g>
    <g id="xtick_3">
     <g id="text_3">
      <!-- p384_mlkem768 -->
      <g style="fill: #262626" transform="translate(396.325156 415.277812) scale(0.14 -0.14)">
       <defs>
        <path id="DejaVuSans-70" d="M 1159 525 
L 1159 -1331 
L 581 -1331 
L 581 3500 
L 1159 3500 
L 1159 2969 
Q 1341 3281 1617 3432 
Q 1894 3584 2278 3584 
Q 2916 3584 3314 3078 
Q 3713 2572 3713 1747 
Q 3713 922 3314 415 
Q 2916 -91 2278 -91 
Q 1894 -91 1617 61 
Q 1341 213 1159 525 
z
M 3116 1747 
Q 3116 2381 2855 2742 
Q 2594 3103 2138 3103 
Q 1681 3103 1420 2742 
Q 1159 2381 1159 1747 
Q 1159 1113 1420 752 
Q 1681 391 2138 391 
Q 2594 391 2855 752 
Q 3116 1113 3116 1747 
z
" transform="scale(0.015625)"/>
        <path id="DejaVuSans-5f" d="M 3263 -1063 
L 3263 -1509 
L -63 -1509 
L -63 -1063 
L 3263 -1063 
z
" transform="scale(0.015625)"/>
        <path id="DejaVuSans-6d" d="M 3328 2828 
Q 3544 3216 3844 3400 
Q 4144 3584 4550 3584 
Q 5097 3584 5394 3201 
Q 5691 2819 5691 2113 
L 5691 0 
L 5113 0 
L 5113 2094 
Q 5113 2597 4934 2840 
Q 4756 3084 4391 3084 
Q 3944 3084 3684 2787 
Q 3425 2491 3425 1978 
L 3425 0 
L 2847 0 
L 2847 2094 
Q 2847 2600 2669 2842 
Q 2491 3084 2119 3084 
Q 1678 3084 1418 2786 
Q 1159 2488 1159 1978 
L 1159 0 
L 581 0 
L 581 3500 
L 1159 3500 
L 1159 2956 
Q 1356 3278 1631 3431 
Q 1906 3584 2284 3584 
Q 2666 3584 2933 3390 
Q 3200 3197 3328 2828 
z
" transform="scale(0.015625)"/>
        <path id="DejaVuSans-6c" d="M 603 4863 
L 1178 4863 
L 1178 0 
L 603 0 
L 603 4863 
z
" transform="scale(0.015625)"/>
        <path id="DejaVuSans-6b" d="M 581 4863 
L 1159 4863 
L 1159 1991 
L 2875 3500 
L 3609 3500 
L 1753 1863 
L 3688 0 
L 2938 0 
L 1159 1709 
L 1159 0 
L 581 0 
L 581 4863 
z
" transform="scale(0.015625)"/>
        <path id="DejaVuSans-65" d="M 3597 1894 
L 3597 1613 
L 953 1613 
Q 991 1019 1311 708 
Q 1631 397 2203 397 
Q 2534 397 2845 478 
Q 3156 559 3463 722 
L 3463 178 
Q 3153 47 2828 -22 
Q 2503 -91 2169 -91 
Q 1331 -91 842 396 
Q 353 884 353 1716 
Q 353 2575 817 3079 
Q 1281 3584 2069 3584 
Q 2775 3584 3186 3129 
Q 3597 2675 3597 1894 
z
M 3022 2063 
Q 3016 2534 2758 2815 
Q 2500 3097 2075 3097 
Q 1594 3097 1305 2825 
Q 1016 2553 972 2059 
L 3022 2063 
z
" transform="scale(0.015625)"/>
        <path id="DejaVuSans-37" d="M 525 4666 
L 3525 4666 
L 3525 4397 
L 1831 0 
L 1172 0 
L 2766 4134 
L 525 4134 
L 525 4666 
z
" transform="scale(0.015625)"/>
        <path id="DejaVuSans-36" d="M 2113 2584 
Q 1688 2584 1439 2293 
Q 1191 2003 1191 1497 
Q 1191 994 1439 701 
Q 1688 409 2113 409 
Q 2538 409 2786 701 
Q 3034 994 3034 1497 
Q 3034 2003 2786 2293 
Q 2538 2584 2113 2584 
z
M 3366 4563 
L 3366 3988 
Q 3128 4100 2886 4159 
Q 2644 4219 2406 4219 
Q 1781 4219 1451 3797 
Q 1122 3375 1075 2522 
Q 1259 2794 1537 2939 
Q 1816 3084 2150 3084 
Q 2853 3084 3261 2657 
Q 3669 2231 3669 1497 
Q 3669 778 3244 343 
Q 2819 -91 2113 -91 
Q 1303 -91 875 529 
Q 447 1150 447 2328 
Q 447 3434 972 4092 
Q 1497 4750 2381 4750 
Q 2619 4750 2861 4703 
Q 3103 4656 3366 4563 
z
" transform="scale(0.015625)"/>
       </defs>
       <use xlink:href="#DejaVuSans-70"/>
       <use xlink:href="#DejaVuSans-33" x="63.476562"/>
       <use xlink:href="#DejaVuSans-38" x="127.099609"/>
       <use xlink:href="#DejaVuSans-34" x="190.722656"/>
       <use xlink:href="#DejaVuSans-5f" x="254.345703"/>
       <use xlink:href="#DejaVuSans-6d" x="304.345703"/>
       <use xlink:href="#DejaVuSans-6c" x="401.757812"/>
       <use xlink:href="#DejaVuSans-6b" x="429.541016"/>
       <use xlink:href="#DejaVuSans-65" x="483.826172"/>
       <use xlink:href="#DejaVuSans-6d" x="545.349609"/>
       <use xlink:href="#DejaVuSans-37" x="642.761719"/>
       <use xlink:href="#DejaVuSans-36" x="706.384766"/>
       <use xlink:href="#DejaVuSans-38" x="770.007812"/>
      </g>
     </g>
    </g>
    <g id="xtick_4">
     <g id="text_4">
      <!-- x448_mlkem768 -->
      <g style="fill: #262626" transform="translate(555.169937 415.277812) scale(0.14 -0.14)">
       <use xlink:href="#DejaVuSans-78"/>
       <use xlink:href="#DejaVuSans-34" x="59.179688"/>
       <use xlink:href="#DejaVuSans-34" x="122.802734"/>
       <use xlink:href="#DejaVuSans-38" x="186.425781"/>
       <use xlink:href="#DejaVuSans-5f" x="250.048828"/>
       <use xlink:href="#DejaVuSans-6d" x="300.048828"/>
       <use xlink:href="#DejaVuSans-6c" x="397.460938"/>
       <use xlink:href="#DejaVuSans-6b" x="425.244141"/>
       <use xlink:href="#DejaVuSans-65" x="479.529297"/>
       <use xlink:href="#DejaVuSans-6d" x="541.052734"/>
       <use xlink:href="#DejaVuSans-37" x="638.464844"/>
       <use xlink:href="#DejaVuSans-36" x="702.087891"/>
       <use xlink:href="#DejaVuSans-38" x="765.710938"/>
      </g>
     </g>
    </g>
    <g id="xtick_5">
     <g id="text_5">
      <!-- mlkem768 -->
      <g style="fill: #262626" transform="translate(734.718312 415.277812) scale(0.14 -0.14)">
       <use xlink:href="#DejaVuSans-6d"/>
       <use xlink:href="#DejaVuSans-6c" x="97.412109"/>
       <use xlink:href="#DejaVuSans-6b" x="125.195312"/>
       <use xlink:href="#DejaVuSans-65" x="179.480469"/>
       <use xlink:href="#DejaVuSans-6d" x="241.003906"/>
       <use xlink:href="#DejaVuSans-37" x="338.416016"/>
       <use xlink:href="#DejaVuSans-36" x="402.039062"/>
       <use xlink:href="#DejaVuSans-38" x="465.662109"/>
      </g>
     </g>
    </g>
   </g>
   <g id="matplotlib.axis_2">
    <g id="ytick_1">
     <g id="line2d_1">
      <path d="M 58.32 353.715966 
L 851.04 353.715966 
" clip-path="url(#p37e635c15d)" style="fill: none; stroke: #cccccc; stroke-linecap: round"/>
     </g>
     <g id="text_6">
      <!-- 805 -->
      <g style="fill: #262626" transform="translate(27.82375 357.895106) scale(0.11 -0.11)">
       <defs>
        <path id="DejaVuSans-30" d="M 2034 4250 
Q 1547 4250 1301 3770 
Q 1056 3291 1056 2328 
Q 1056 1369 1301 889 
Q 1547 409 2034 409 
Q 2525 409 2770 889 
Q 3016 1369 3016 2328 
Q 3016 3291 2770 3770 
Q 2525 4250 2034 4250 
z
M 2034 4750 
Q 2819 4750 3233 4129 
Q 3647 3509 3647 2328 
Q 3647 1150 3233 529 
Q 2819 -91 2034 -91 
Q 1250 -91 836 529 
Q 422 1150 422 2328 
Q 422 3509 836 4129 
Q 1250 4750 2034 4750 
z
" transform="scale(0.015625)"/>
        <path id="DejaVuSans-35" d="M 691 4666 
L 3169 4666 
L 3169 4134 
L 1269 4134 
L 1269 2991 
Q 1406 3038 1543 3061 
Q 1681 3084 1819 3084 
Q 2600 3084 3056 2656 
Q 3513 2228 3513 1497 
Q 3513 744 3044 326 
Q 2575 -91 1722 -91 
Q 1428 -91 1123 -41 
Q 819 9 494 109 
L 494 744 
Q 775 591 1075 516 
Q 1375 441 1709 441 
Q 2250 441 2565 725 
Q 2881 1009 2881 1497 
Q 2881 1984 2565 2268 
Q 2250 2553 1709 2553 
Q 1456 2553 1204 2497 
Q 953 2441 691 2322 
L 691 4666 
z
" transform="scale(0.015625)"/>
       </defs>
       <use xlink:href="#DejaVuSans-38"/>
       <use xlink:href="#DejaVuSans-30" x="63.623047"/>
       <use xlink:href="#DejaVuSans-35" x="127.246094"/>
      </g>
     </g>
    </g>
    <g id="ytick_2">
     <g id="line2d_2">
      <path d="M 58.32 306.844062 
L 851.04 306.844062 
" clip-path="url(#p37e635c15d)" style="fill: none; stroke: #cccccc; stroke-linecap: round"/>
     </g>
     <g id="text_7">
      <!-- 810 -->
      <g style="fill: #262626" transform="translate(27.82375 311.023203) scale(0.11 -0.11)">
       <defs>
        <path id="DejaVuSans-31" d="M 794 531 
L 1825 531 
L 1825 4091 
L 703 3866 
L 703 4441 
L 1819 4666 
L 2450 4666 
L 2450 531 
L 3481 531 
L 3481 0 
L 794 0 
L 794 531 
z
" transform="scale(0.015625)"/>
       </defs>
       <use xlink:href="#DejaVuSans-38"/>
       <use xlink:href="#DejaVuSans-31" x="63.623047"/>
       <use xlink:href="#DejaVuSans-30" x="127.246094"/>
      </g>
     </g>
    </g>
    <g id="ytick_3">
     <g id="line2d_3">
      <path d="M 58.32 259.972159 
L 851.04 259.972159 
" clip-path="url(#p37e635c15d)" style="fill: none; stroke: #cccccc; stroke-linecap: round"/>
     </g>
     <g id="text_8">
      <!-- 815 -->
      <g style="fill: #262626" transform="translate(27.82375 264.151299) scale(0.11 -0.11)">
       <use xlink:href="#DejaVuSans-38"/>
       <use xlink:href="#DejaVuSans-31" x="63.623047"/>
       <use xlink:href="#DejaVuSans-35" x="127.246094"/>
      </g>
     </g>
    </g>
    <g id="ytick_4">
     <g id="line2d_4">
      <path d="M 58.32 213.100255 
L 851.04 213.100255 
" clip-path="url(#p37e635c15d)" style="fill: none; stroke: #cccccc; stroke-linecap: round"/>
     </g>
     <g id="text_9">
      <!-- 820 -->
      <g style="fill: #262626" transform="translate(27.82375 217.279396) scale(0.11 -0.11)">
       <defs>
        <path id="DejaVuSans-32" d="M 1228 531 
L 3431 531 
L 3431 0 
L 469 0 
L 469 531 
Q 828 903 1448 1529 
Q 2069 2156 2228 2338 
Q 2531 2678 2651 2914 
Q 2772 3150 2772 3378 
Q 2772 3750 2511 3984 
Q 2250 4219 1831 4219 
Q 1534 4219 1204 4116 
Q 875 4013 500 3803 
L 500 4441 
Q 881 4594 1212 4672 
Q 1544 4750 1819 4750 
Q 2544 4750 2975 4387 
Q 3406 4025 3406 3419 
Q 3406 3131 3298 2873 
Q 3191 2616 2906 2266 
Q 2828 2175 2409 1742 
Q 1991 1309 1228 531 
z
" transform="scale(0.015625)"/>
       </defs>
       <use xlink:href="#DejaVuSans-38"/>
       <use xlink:href="#DejaVuSans-32" x="63.623047"/>
       <use xlink:href="#DejaVuSans-30" x="127.246094"/>
      </g>
     </g>
    </g>
    <g id="ytick_5">
     <g id="line2d_5">
      <path d="M 58.32 166.228352 
L 851.04 166.228352 
" clip-path="url(#p37e635c15d)" style="fill: none; stroke: #cccccc; stroke-linecap: round"/>
     </g>
     <g id="text_10">
      <!-- 825 -->
      <g style="fill: #262626" transform="translate(27.82375 170.407492) scale(0.11 -0.11)">
       <use xlink:href="#DejaVuSans-38"/>
       <use xlink:href="#DejaVuSans-32" x="63.623047"/>
       <use xlink:href="#DejaVuSans-35" x="127.246094"/>
      </g>
     </g>
    </g>
    <g id="ytick_6">
     <g id="line2d_6">
      <path d="M 58.32 119.356448 
L 851.04 119.356448 
" clip-path="url(#p37e635c15d)" style="fill: none; stroke: #cccccc; stroke-linecap: round"/>
     </g>
     <g id="text_11">
      <!-- 830 -->
      <g style="fill: #262626" transform="translate(27.82375 123.535589) scale(0.11 -0.11)">
       <use xlink:href="#DejaVuSans-38"/>
       <use xlink:href="#DejaVuSans-33" x="63.623047"/>
       <use xlink:href="#DejaVuSans-30" x="127.246094"/>
      </g>
     </g>
    </g>
    <g id="ytick_7">
     <g id="line2d_7">
      <path d="M 58.32 72.484545 
L 851.04 72.484545 
" clip-path="url(#p37e635c15d)" style="fill: none; stroke: #cccccc; stroke-linecap: round"/>
     </g>
     <g id="text_12">
      <!-- 835 -->
      <g style="fill: #262626" transform="translate(27.82375 76.663685) scale(0.11 -0.11)">
       <use xlink:href="#DejaVuSans-38"/>
       <use xlink:href="#DejaVuSans-33" x="63.623047"/>
       <use xlink:href="#DejaVuSans-35" x="127.246094"/>
      </g>
     </g>
    </g>
    <g id="text_13">
     <!-- Handshake duration (ms) -->
     <g style="fill: #262626" transform="translate(21.328125 287.437813) rotate(-90) scale(0.12 -0.12)">
      <defs>
       <path id="DejaVuSans-48" d="M 628 4666 
L 1259 4666 
L 1259 2753 
L 3553 2753 
L 3553 4666 
L 4184 4666 
L 4184 0 
L 3553 0 
L 3553 2222 
L 1259 2222 
L 1259 0 
L 628 0 
L 628 4666 
z
" transform="scale(0.015625)"/>
       <path id="DejaVuSans-61" d="M 2194 1759 
Q 1497 1759 1228 1600 
Q 959 1441 959 1056 
Q 959 750 1161 570 
Q 1363 391 1709 391 
Q 2188 391 2477 730 
Q 2766 1069 2766 1631 
L 2766 1759 
L 2194 1759 
z
M 3341 1997 
L 3341 0 
L 2766 0 
L 2766 531 
Q 2569 213 2275 61 
Q 1981 -91 1556 -91 
Q 1019 -91 701 211 
Q 384 513 384 1019 
Q 384 1609 779 1909 
Q 1175 2209 1959 2209 
L 2766 2209 
L 2766 2266 
Q 2766 2663 2505 2880 
Q 2244 3097 1772 3097 
Q 1472 3097 1187 3025 
Q 903 2953 641 2809 
L 641 3341 
Q 956 3463 1253 3523 
Q 1550 3584 1831 3584 
Q 2591 3584 2966 3190 
Q 3341 2797 3341 1997 
z
" transform="scale(0.015625)"/>
       <path id="DejaVuSans-6e" d="M 3513 2113 
L 3513 0 
L 2938 0 
L 2938 2094 
Q 2938 2591 2744 2837 
Q 2550 3084 2163 3084 
Q 1697 3084 1428 2787 
Q 1159 2491 1159 1978 
L 1159 0 
L 581 0 
L 581 3500 
L 1159 3500 
L 1159 2956 
Q 1366 3272 1645 3428 
Q 1925 3584 2291 3584 
Q 2894 3584 3203 3211 
Q 3513 2838 3513 2113 
z
" transform="scale(0.015625)"/>
       <path id="DejaVuSans-64" d="M 2906 2969 
L 2906 4863 
L 3481 4863 
L 3481 0 
L 2906 0 
L 2906 525 
Q 2725 213 2448 61 
Q 2172 -91 1784 -91 
Q 1150 -91 751 415 
Q 353 922 353 1747 
Q 353 2572 751 3078 
Q 1150 3584 1784 3584 
Q 2172 3584 2448 3432 
Q 2725 3281 2906 2969 
z
M 947 1747 
Q 947 1113 1208 752 
Q 1469 391 1925 391 
Q 2381 391 2643 752 
Q 2906 1113 2906 1747 
Q 2906 2381 2643 2742 
Q 2381 3103 1925 3103 
Q 1469 3103 1208 2742 
Q 947 2381 947 1747 
z
" transform="scale(0.015625)"/>
       <path id="DejaVuSans-73" d="M 2834 3397 
L 2834 2853 
Q 2591 2978 2328 3040 
Q 2066 3103 1784 3103 
Q 1356 3103 1142 2972 
Q 928 2841 928 2578 
Q 928 2378 1081 2264 
Q 1234 2150 1697 2047 
L 1894 2003 
Q 2506 1872 2764 1633 
Q 3022 1394 3022 966 
Q 3022 478 2636 193 
Q 2250 -91 1575 -91 
Q 1294 -91 989 -36 
Q 684 19 347 128 
L 347 722 
Q 666 556 975 473 
Q 1284 391 1588 391 
Q 1994 391 2212 530 
Q 2431 669 2431 922 
Q 2431 1156 2273 1281 
Q 2116 1406 1581 1522 
L 1381 1569 
Q 847 1681 609 1914 
Q 372 2147 372 2553 
Q 372 3047 722 3315 
Q 1072 3584 1716 3584 
Q 2034 3584 2315 3537 
Q 2597 3491 2834 3397 
z
" transform="scale(0.015625)"/>
       <path id="DejaVuSans-68" d="M 3513 2113 
L 3513 0 
L 2938 0 
L 2938 2094 
Q 2938 2591 2744 2837 
Q 2550 3084 2163 3084 
Q 1697 3084 1428 2787 
Q 1159 2491 1159 1978 
L 1159 0 
L 581 0 
L 581 4863 
L 1159 4863 
L 1159 2956 
Q 1366 3272 1645 3428 
Q 1925 3584 2291 3584 
Q 2894 3584 3203 3211 
Q 3513 2838 3513 2113 
z
" transform="scale(0.015625)"/>
       <path id="DejaVuSans-20" transform="scale(0.015625)"/>
       <path id="DejaVuSans-75" d="M 544 1381 
L 544 3500 
L 1119 3500 
L 1119 1403 
Q 1119 906 1312 657 
Q 1506 409 1894 409 
Q 2359 409 2629 706 
Q 2900 1003 2900 1516 
L 2900 3500 
L 3475 3500 
L 3475 0 
L 2900 0 
L 2900 538 
Q 2691 219 2414 64 
Q 2138 -91 1772 -91 
Q 1169 -91 856 284 
Q 544 659 544 1381 
z
M 1991 3584 
L 1991 3584 
z
" transform="scale(0.015625)"/>
       <path id="DejaVuSans-72" d="M 2631 2963 
Q 2534 3019 2420 3045 
Q 2306 3072 2169 3072 
Q 1681 3072 1420 2755 
Q 1159 2438 1159 1844 
L 1159 0 
L 581 0 
L 581 3500 
L 1159 3500 
L 1159 2956 
Q 1341 3275 1631 3429 
Q 1922 3584 2338 3584 
Q 2397 3584 2469 3576 
Q 2541 3569 2628 3553 
L 2631 2963 
z
" transform="scale(0.015625)"/>
       <path id="DejaVuSans-74" d="M 1172 4494 
L 1172 3500 
L 2356 3500 
L 2356 3053 
L 1172 3053 
L 1172 1153 
Q 1172 725 1289 603 
Q 1406 481 1766 481 
L 2356 481 
L 2356 0 
L 1766 0 
Q 1100 0 847 248 
Q 594 497 594 1153 
L 594 3053 
L 172 3053 
L 172 3500 
L 594 3500 
L 594 4494 
L 1172 4494 
z
" transform="scale(0.015625)"/>
       <path id="DejaVuSans-69" d="M 603 3500 
L 1178 3500 
L 1178 0 
L 603 0 
L 603 3500 
z
M 603 4863 
L 1178 4863 
L 1178 4134 
L 603 4134 
L 603 4863 
z
" transform="scale(0.015625)"/>
       <path id="DejaVuSans-6f" d="M 1959 3097 
Q 1497 3097 1228 2736 
Q 959 2375 959 1747 
Q 959 1119 1226 758 
Q 1494 397 1959 397 
Q 2419 397 2687 759 
Q 2956 1122 2956 1747 
Q 2956 2369 2687 2733 
Q 2419 3097 1959 3097 
z
M 1959 3584 
Q 2709 3584 3137 3096 
Q 3566 2609 3566 1747 
Q 3566 888 3137 398 
Q 2709 -91 1959 -91 
Q 1206 -91 779 398 
Q 353 888 353 1747 
Q 353 2609 779 3096 
Q 1206 3584 1959 3584 
z
" transform="scale(0.015625)"/>
       <path id="DejaVuSans-28" d="M 1984 4856 
Q 1566 4138 1362 3434 
Q 1159 2731 1159 2009 
Q 1159 1288 1364 580 
Q 1569 -128 1984 -844 
L 1484 -844 
Q 1016 -109 783 600 
Q 550 1309 550 2009 
Q 550 2706 781 3412 
Q 1013 4119 1484 4856 
L 1984 4856 
z
" transform="scale(0.015625)"/>
       <path id="DejaVuSans-29" d="M 513 4856 
L 1013 4856 
Q 1481 4119 1714 3412 
Q 1947 2706 1947 2009 
Q 1947 1309 1714 600 
Q 1481 -109 1013 -844 
L 513 -844 
Q 928 -128 1133 580 
Q 1338 1288 1338 2009 
Q 1338 2731 1133 3434 
Q 928 4138 513 4856 
z
" transform="scale(0.015625)"/>
      </defs>
      <use xlink:href="#DejaVuSans-48"/>
      <use xlink:href="#DejaVuSans-61" x="75.195312"/>
      <use xlink:href="#DejaVuSans-6e" x="136.474609"/>
      <use xlink:href="#DejaVuSans-64" x="199.853516"/>
      <use xlink:href="#DejaVuSans-73" x="263.330078"/>
      <use xlink:href="#DejaVuSans-68" x="315.429688"/>
      <use xlink:href="#DejaVuSans-61" x="378.808594"/>
      <use xlink:href="#DejaVuSans-6b" x="440.087891"/>
      <use xlink:href="#DejaVuSans-65" x="494.373047"/>
      <use xlink:href="#DejaVuSans-20" x="555.896484"/>
      <use xlink:href="#DejaVuSans-64" x="587.683594"/>
      <use xlink:href="#DejaVuSans-75" x="651.160156"/>
      <use xlink:href="#DejaVuSans-72" x="714.539062"/>
      <use xlink:href="#DejaVuSans-61" x="755.652344"/>
      <use xlink:href="#DejaVuSans-74" x="816.931641"/>
      <use xlink:href="#DejaVuSans-69" x="856.140625"/>
      <use xlink:href="#DejaVuSans-6f" x="883.923828"/>
      <use xlink:href="#DejaVuSans-6e" x="945.105469"/>
      <use xlink:href="#DejaVuSans-20" x="1008.484375"/>
      <use xlink:href="#DejaVuSans-28" x="1040.271484"/>
      <use xlink:href="#DejaVuSans-6d" x="1079.285156"/>
      <use xlink:href="#DejaVuSans-73" x="1176.697266"/>
      <use xlink:href="#DejaVuSans-29" x="1228.796875"/>
     </g>
    </g>
   </g>
   <g id="PolyCollection_1">
    <defs>
     <path id="maa9fc474dd" d="M 137.685632 -73.885463 
L 137.498368 -73.885463 
L 137.409782 -75.847305 
L 137.266782 -77.809148 
L 137.058283 -79.77099 
L 136.784682 -81.732832 
L 136.464134 -83.694675 
L 136.13431 -85.656517 
L 135.846536 -87.61836 
L 135.651963 -89.580202 
L 135.583975 -91.542044 
L 135.644794 -93.503887 
L 135.803693 -95.465729 
L 136.008119 -97.427571 
L 136.201104 -99.389414 
L 136.335339 -101.351256 
L 136.379191 -103.313098 
L 136.31754 -105.274941 
L 136.152897 -107.236783 
L 135.907237 -109.198625 
L 135.618827 -111.160468 
L 135.328588 -113.12231 
L 135.058476 -115.084152 
L 134.793221 -117.045995 
L 134.479016 -119.007837 
L 134.045589 -120.96968 
L 133.444749 -122.931522 
L 132.686285 -124.893364 
L 131.849423 -126.855207 
L 131.059432 -128.817049 
L 130.439022 -130.778891 
L 130.05849 -132.740734 
L 129.906431 -134.702576 
L 129.888282 -136.664418 
L 129.847066 -138.626261 
L 129.597205 -140.588103 
L 128.963308 -142.549945 
L 127.814612 -144.511788 
L 126.084296 -146.47363 
L 123.767279 -148.435472 
L 120.898962 -150.397315 
L 117.524099 -152.359157 
L 113.667096 -154.321 
L 109.316767 -156.282842 
L 104.44038 -158.244684 
L 99.036038 -160.206527 
L 93.213782 -162.168369 
L 87.27247 -164.130211 
L 81.728068 -166.092054 
L 77.259431 -168.053896 
L 74.566596 -170.015738 
L 74.1744 -171.977581 
L 76.249174 -173.939423 
L 80.510847 -175.901265 
L 86.297076 -177.863108 
L 92.767787 -179.82495 
L 99.161714 -181.786792 
L 104.985253 -183.748635 
L 110.056868 -185.710477 
L 114.419048 -187.67232 
L 118.199257 -189.634162 
L 121.506072 -191.596004 
L 124.396717 -193.557847 
L 126.896298 -195.519689 
L 129.027279 -197.481531 
L 130.822471 -199.443374 
L 132.320569 -201.405216 
L 133.556601 -203.367058 
L 134.556942 -205.328901 
L 135.340283 -207.290743 
L 135.921779 -209.252585 
L 136.318267 -211.214428 
L 136.553428 -213.17627 
L 136.661074 -215.138112 
L 136.684194 -217.099955 
L 136.669173 -219.061797 
L 136.657522 -221.02364 
L 136.678705 -222.985482 
L 136.746405 -224.947324 
L 136.858562 -226.909167 
L 137.000657 -228.871009 
L 137.151523 -230.832851 
L 137.29029 -232.794694 
L 137.402167 -234.756536 
L 137.480816 -236.718378 
L 137.526749 -238.680221 
L 137.543327 -240.642063 
L 137.532944 -242.603905 
L 137.495653 -244.565748 
L 137.431065 -246.52759 
L 137.342608 -248.489432 
L 137.241561 -250.451275 
L 137.147586 -252.413117 
L 137.083849 -254.37496 
L 137.068225 -256.336802 
L 137.105338 -258.298644 
L 137.184398 -260.260487 
L 137.284269 -262.222329 
L 137.382574 -264.184171 
L 137.463525 -266.146014 
L 137.520955 -268.107856 
L 137.663045 -268.107856 
L 137.663045 -268.107856 
L 137.720475 -266.146014 
L 137.801426 -264.184171 
L 137.899731 -262.222329 
L 137.999602 -260.260487 
L 138.078662 -258.298644 
L 138.115775 -256.336802 
L 138.100151 -254.37496 
L 138.036414 -252.413117 
L 137.942439 -250.451275 
L 137.841392 -248.489432 
L 137.752935 -246.52759 
L 137.688347 -244.565748 
L 137.651056 -242.603905 
L 137.640673 -240.642063 
L 137.657251 -238.680221 
L 137.703184 -236.718378 
L 137.781833 -234.756536 
L 137.89371 -232.794694 
L 138.032477 -230.832851 
L 138.183343 -228.871009 
L 138.325438 -226.909167 
L 138.437595 -224.947324 
L 138.505295 -222.985482 
L 138.526478 -221.02364 
L 138.514827 -219.061797 
L 138.499806 -217.099955 
L 138.522926 -215.138112 
L 138.630572 -213.17627 
L 138.865733 -211.214428 
L 139.262221 -209.252585 
L 139.843717 -207.290743 
L 140.627058 -205.328901 
L 141.627399 -203.367058 
L 142.863431 -201.405216 
L 144.361529 -199.443374 
L 146.156721 -197.481531 
L 148.287702 -195.519689 
L 150.787283 -193.557847 
L 153.677928 -191.596004 
L 156.984743 -189.634162 
L 160.764952 -187.67232 
L 165.127132 -185.710477 
L 170.198747 -183.748635 
L 176.022286 -181.786792 
L 182.416213 -179.82495 
L 188.886924 -177.863108 
L 194.673153 -175.901265 
L 198.934826 -173.939423 
L 201.0096 -171.977581 
L 200.617404 -170.015738 
L 197.924569 -168.053896 
L 193.455932 -166.092054 
L 187.91153 -164.130211 
L 181.970218 -162.168369 
L 176.147962 -160.206527 
L 170.74362 -158.244684 
L 165.867233 -156.282842 
L 161.516904 -154.321 
L 157.659901 -152.359157 
L 154.285038 -150.397315 
L 151.416721 -148.435472 
L 149.099704 -146.47363 
L 147.369388 -144.511788 
L 146.220692 -142.549945 
L 145.586795 -140.588103 
L 145.336934 -138.626261 
L 145.295718 -136.664418 
L 145.277569 -134.702576 
L 145.12551 -132.740734 
L 144.744978 -130.778891 
L 144.124568 -128.817049 
L 143.334577 -126.855207 
L 142.497715 -124.893364 
L 141.739251 -122.931522 
L 141.138411 -120.96968 
L 140.704984 -119.007837 
L 140.390779 -117.045995 
L 140.125524 -115.084152 
L 139.855412 -113.12231 
L 139.565173 -111.160468 
L 139.276763 -109.198625 
L 139.031103 -107.236783 
L 138.86646 -105.274941 
L 138.804809 -103.313098 
L 138.848661 -101.351256 
L 138.982896 -99.389414 
L 139.175881 -97.427571 
L 139.380307 -95.465729 
L 139.539206 -93.503887 
L 139.600025 -91.542044 
L 139.532037 -89.580202 
L 139.337464 -87.61836 
L 139.04969 -85.656517 
L 138.719866 -83.694675 
L 138.399318 -81.732832 
L 138.125717 -79.77099 
L 137.917218 -77.809148 
L 137.774218 -75.847305 
L 137.685632 -73.885463 
z
" style="stroke: #595959; stroke-width: 1.25"/>
    </defs>
    <g clip-path="url(#p37e635c15d)">
     <use xlink:href="#maa9fc474dd" x="0" y="432" style="fill: #72b6a1; stroke: #595959; stroke-width: 1.25"/>
    </g>
   </g>
   <g id="PolyCollection_2">
    <defs>
     <path id="m84cc4b38e8" d="M 296.209818 -55.393654 
L 296.062182 -55.393654 
L 296.010638 -56.197919 
L 295.939726 -57.002185 
L 295.852697 -57.80645 
L 295.759005 -58.610715 
L 295.673499 -59.414981 
L 295.612901 -60.219246 
L 295.590557 -61.023512 
L 295.611665 -61.827777 
L 295.671308 -62.632042 
L 295.75631 -63.436308 
L 295.849944 -64.240573 
L 295.937176 -65.044839 
L 296.008181 -65.849104 
L 296.059084 -66.65337 
L 296.090341 -67.457635 
L 296.103977 -68.2619 
L 296.100894 -69.066166 
L 296.078992 -69.870431 
L 296.03238 -70.674697 
L 295.951794 -71.478962 
L 295.82622 -72.283227 
L 295.645599 -73.087493 
L 295.404128 -73.891758 
L 295.103279 -74.696024 
L 294.753377 -75.500289 
L 294.372703 -76.304554 
L 293.983669 -77.10882 
L 293.606717 -77.913085 
L 293.253989 -78.717351 
L 292.925712 -79.521616 
L 292.611922 -80.325881 
L 292.300029 -81.130147 
L 291.985567 -81.934412 
L 291.680847 -82.738678 
L 291.416078 -83.542943 
L 291.230491 -84.347209 
L 291.156008 -85.151474 
L 291.200319 -85.955739 
L 291.337163 -86.760005 
L 291.50835 -87.56427 
L 291.636546 -88.368536 
L 291.643191 -89.172801 
L 291.464198 -89.977066 
L 291.057054 -90.781332 
L 290.395443 -91.585597 
L 289.451283 -92.389863 
L 288.169789 -93.194128 
L 286.449661 -93.998393 
L 284.143421 -94.802659 
L 281.087475 -95.606924 
L 277.157382 -96.41119 
L 272.32841 -97.215455 
L 266.715308 -98.019721 
L 260.573573 -98.823986 
L 254.262494 -99.628251 
L 248.186459 -100.432517 
L 242.736433 -101.236782 
L 238.247669 -102.041048 
L 234.978444 -102.845313 
L 233.104459 -103.649578 
L 232.7184 -104.453844 
L 233.825376 -105.258109 
L 236.332137 -106.062375 
L 240.03733 -106.86664 
L 244.635599 -107.670905 
L 249.745109 -108.475171 
L 254.957586 -109.279436 
L 259.898753 -110.083702 
L 264.282013 -110.887967 
L 267.941177 -111.692232 
L 270.835919 -112.496498 
L 273.032381 -113.300763 
L 274.667986 -114.105029 
L 275.912374 -114.909294 
L 276.934594 -115.71356 
L 277.880998 -116.517825 
L 278.862366 -117.32209 
L 279.946383 -118.126356 
L 281.153756 -118.930621 
L 282.459766 -119.734887 
L 283.804046 -120.539152 
L 285.108597 -121.343417 
L 286.299944 -122.147683 
L 287.329035 -122.951948 
L 288.183164 -123.756214 
L 288.887001 -124.560479 
L 289.493144 -125.364744 
L 290.065505 -126.16901 
L 290.660665 -126.973275 
L 291.312635 -127.777541 
L 292.025196 -128.581806 
L 292.773479 -129.386071 
L 293.51355 -130.190337 
L 294.196411 -130.994602 
L 294.781629 -131.798868 
L 295.246431 -132.603133 
L 295.588116 -133.407399 
L 295.820399 -134.211664 
L 295.966336 -135.015929 
L 296.305664 -135.015929 
L 296.305664 -135.015929 
L 296.451601 -134.211664 
L 296.683884 -133.407399 
L 297.025569 -132.603133 
L 297.490371 -131.798868 
L 298.075589 -130.994602 
L 298.75845 -130.190337 
L 299.498521 -129.386071 
L 300.246804 -128.581806 
L 300.959365 -127.777541 
L 301.611335 -126.973275 
L 302.206495 -126.16901 
L 302.778856 -125.364744 
L 303.384999 -124.560479 
L 304.088836 -123.756214 
L 304.942965 -122.951948 
L 305.972056 -122.147683 
L 307.163403 -121.343417 
L 308.467954 -120.539152 
L 309.812234 -119.734887 
L 311.118244 -118.930621 
L 312.325617 -118.126356 
L 313.409634 -117.32209 
L 314.391002 -116.517825 
L 315.337406 -115.71356 
L 316.359626 -114.909294 
L 317.604014 -114.105029 
L 319.239619 -113.300763 
L 321.436081 -112.496498 
L 324.330823 -111.692232 
L 327.989987 -110.887967 
L 332.373247 -110.083702 
L 337.314414 -109.279436 
L 342.526891 -108.475171 
L 347.636401 -107.670905 
L 352.23467 -106.86664 
L 355.939863 -106.062375 
L 358.446624 -105.258109 
L 359.5536 -104.453844 
L 359.167541 -103.649578 
L 357.293556 -102.845313 
L 354.024331 -102.041048 
L 349.535567 -101.236782 
L 344.085541 -100.432517 
L 338.009506 -99.628251 
L 331.698427 -98.823986 
L 325.556692 -98.019721 
L 319.94359 -97.215455 
L 315.114618 -96.41119 
L 311.184525 -95.606924 
L 308.128579 -94.802659 
L 305.822339 -93.998393 
L 304.102211 -93.194128 
L 302.820717 -92.389863 
L 301.876557 -91.585597 
L 301.214946 -90.781332 
L 300.807802 -89.977066 
L 300.628809 -89.172801 
L 300.635454 -88.368536 
L 300.76365 -87.56427 
L 300.934837 -86.760005 
L 301.071681 -85.955739 
L 301.115992 -85.151474 
L 301.041509 -84.347209 
L 300.855922 -83.542943 
L 300.591153 -82.738678 
L 300.286433 -81.934412 
L 299.971971 -81.130147 
L 299.660078 -80.325881 
L 299.346288 -79.521616 
L 299.018011 -78.717351 
L 298.665283 -77.913085 
L 298.288331 -77.10882 
L 297.899297 -76.304554 
L 297.518623 -75.500289 
L 297.168721 -74.696024 
L 296.867872 -73.891758 
L 296.626401 -73.087493 
L 296.44578 -72.283227 
L 296.320206 -71.478962 
L 296.23962 -70.674697 
L 296.193008 -69.870431 
L 296.171106 -69.066166 
L 296.168023 -68.2619 
L 296.181659 -67.457635 
L 296.212916 -66.65337 
L 296.263819 -65.849104 
L 296.334824 -65.044839 
L 296.422056 -64.240573 
L 296.51569 -63.436308 
L 296.600692 -62.632042 
L 296.660335 -61.827777 
L 296.681443 -61.023512 
L 296.659099 -60.219246 
L 296.598501 -59.414981 
L 296.512995 -58.610715 
L 296.419303 -57.80645 
L 296.332274 -57.002185 
L 296.261362 -56.197919 
L 296.209818 -55.393654 
z
" style="stroke: #595959; stroke-width: 1.25"/>
    </defs>
    <g clip-path="url(#p37e635c15d)">
     <use xlink:href="#m84cc4b38e8" x="0" y="432" style="fill: #e99675; stroke: #595959; stroke-width: 1.25"/>
    </g>
   </g>
   <g id="PolyCollection_3">
    <defs>
     <path id="m259f3319da" d="M 454.828934 -138.600007 
L 454.531066 -138.600007 
L 454.439414 -141.116105 
L 454.312712 -143.632202 
L 454.149542 -146.148299 
L 453.954146 -148.664396 
L 453.736975 -151.180494 
L 453.513265 -153.696591 
L 453.299634 -156.212688 
L 453.109601 -158.728785 
L 452.949596 -161.244883 
L 452.816949 -163.76098 
L 452.700564 -166.277077 
L 452.583779 -168.793174 
L 452.448096 -171.309272 
L 452.276404 -173.825369 
L 452.054973 -176.341466 
L 451.774232 -178.857563 
L 451.428642 -181.373661 
L 451.015653 -183.889758 
L 450.533375 -186.405855 
L 449.97675 -188.921953 
L 449.332919 -191.43805 
L 448.577481 -193.954147 
L 447.673527 -196.470244 
L 446.574241 -198.986342 
L 445.227949 -201.502439 
L 443.583173 -204.018536 
L 441.591565 -206.534633 
L 439.20873 -209.050731 
L 436.395477 -211.566828 
L 433.123094 -214.082925 
L 429.384571 -216.599022 
L 425.209764 -219.11512 
L 420.67853 -221.631217 
L 415.92466 -224.147314 
L 411.126353 -226.663412 
L 406.485035 -229.179509 
L 402.200103 -231.695606 
L 398.448936 -234.211703 
L 395.377861 -236.727801 
L 393.10272 -239.243898 
L 391.711711 -241.759995 
L 391.2624 -244.276092 
L 391.769693 -246.79219 
L 393.189132 -249.308287 
L 395.405032 -251.824384 
L 398.232692 -254.340481 
L 401.438218 -256.856579 
L 404.77201 -259.372676 
L 408.006386 -261.888773 
L 410.966828 -264.40487 
L 413.549503 -266.920968 
L 415.723097 -269.437065 
L 417.517888 -271.953162 
L 419.007691 -274.46926 
L 420.29032 -276.985357 
L 421.470353 -279.501454 
L 422.645628 -282.017551 
L 423.89722 -284.533649 
L 425.282232 -287.049746 
L 426.829279 -289.565843 
L 428.537207 -292.08194 
L 430.377759 -294.598038 
L 432.302077 -297.114135 
L 434.249764 -299.630232 
L 436.158319 -302.146329 
L 437.970844 -304.662427 
L 439.641 -307.178524 
L 441.135519 -309.694621 
L 442.435363 -312.210718 
L 443.53632 -314.726816 
L 444.448863 -317.242913 
L 445.196397 -319.75901 
L 445.8112 -322.275108 
L 446.328483 -324.791205 
L 446.780238 -327.307302 
L 447.190989 -329.823399 
L 447.576849 -332.339497 
L 447.94773 -334.855594 
L 448.311081 -337.371691 
L 448.67491 -339.887788 
L 449.04843 -342.403886 
L 449.440115 -344.919983 
L 449.854435 -347.43608 
L 450.289293 -349.952177 
L 450.735827 -352.468275 
L 451.180916 -354.984372 
L 451.611289 -357.500469 
L 452.017302 -360.016566 
L 452.394695 -362.532664 
L 452.743793 -365.048761 
L 453.066899 -367.564858 
L 453.365449 -370.080956 
L 453.63833 -372.597053 
L 453.882003 -375.11315 
L 454.092042 -377.629247 
L 454.265148 -380.145345 
L 454.40065 -382.661442 
L 454.500957 -385.177539 
L 454.570998 -387.693636 
L 454.789002 -387.693636 
L 454.789002 -387.693636 
L 454.859043 -385.177539 
L 454.95935 -382.661442 
L 455.094852 -380.145345 
L 455.267958 -377.629247 
L 455.477997 -375.11315 
L 455.72167 -372.597053 
L 455.994551 -370.080956 
L 456.293101 -367.564858 
L 456.616207 -365.048761 
L 456.965305 -362.532664 
L 457.342698 -360.016566 
L 457.748711 -357.500469 
L 458.179084 -354.984372 
L 458.624173 -352.468275 
L 459.070707 -349.952177 
L 459.505565 -347.43608 
L 459.919885 -344.919983 
L 460.31157 -342.403886 
L 460.68509 -339.887788 
L 461.048919 -337.371691 
L 461.41227 -334.855594 
L 461.783151 -332.339497 
L 462.169011 -329.823399 
L 462.579762 -327.307302 
L 463.031517 -324.791205 
L 463.5488 -322.275108 
L 464.163603 -319.75901 
L 464.911137 -317.242913 
L 465.82368 -314.726816 
L 466.924637 -312.210718 
L 468.224481 -309.694621 
L 469.719 -307.178524 
L 471.389156 -304.662427 
L 473.201681 -302.146329 
L 475.110236 -299.630232 
L 477.057923 -297.114135 
L 478.982241 -294.598038 
L 480.822793 -292.08194 
L 482.530721 -289.565843 
L 484.077768 -287.049746 
L 485.46278 -284.533649 
L 486.714372 -282.017551 
L 487.889647 -279.501454 
L 489.06968 -276.985357 
L 490.352309 -274.46926 
L 491.842112 -271.953162 
L 493.636903 -269.437065 
L 495.810497 -266.920968 
L 498.393172 -264.40487 
L 501.353614 -261.888773 
L 504.58799 -259.372676 
L 507.921782 -256.856579 
L 511.127308 -254.340481 
L 513.954968 -251.824384 
L 516.170868 -249.308287 
L 517.590307 -246.79219 
L 518.0976 -244.276092 
L 517.648289 -241.759995 
L 516.25728 -239.243898 
L 513.982139 -236.727801 
L 510.911064 -234.211703 
L 507.159897 -231.695606 
L 502.874965 -229.179509 
L 498.233647 -226.663412 
L 493.43534 -224.147314 
L 488.68147 -221.631217 
L 484.150236 -219.11512 
L 479.975429 -216.599022 
L 476.236906 -214.082925 
L 472.964523 -211.566828 
L 470.15127 -209.050731 
L 467.768435 -206.534633 
L 465.776827 -204.018536 
L 464.132051 -201.502439 
L 462.785759 -198.986342 
L 461.686473 -196.470244 
L 460.782519 -193.954147 
L 460.027081 -191.43805 
L 459.38325 -188.921953 
L 458.826625 -186.405855 
L 458.344347 -183.889758 
L 457.931358 -181.373661 
L 457.585768 -178.857563 
L 457.305027 -176.341466 
L 457.083596 -173.825369 
L 456.911904 -171.309272 
L 456.776221 -168.793174 
L 456.659436 -166.277077 
L 456.543051 -163.76098 
L 456.410404 -161.244883 
L 456.250399 -158.728785 
L 456.060366 -156.212688 
L 455.846735 -153.696591 
L 455.623025 -151.180494 
L 455.405854 -148.664396 
L 455.210458 -146.148299 
L 455.047288 -143.632202 
L 454.920586 -141.116105 
L 454.828934 -138.600007 
z
" style="stroke: #595959; stroke-width: 1.25"/>
    </defs>
    <g clip-path="url(#p37e635c15d)">
     <use xlink:href="#m259f3319da" x="0" y="432" style="fill: #95a3c3; stroke: #595959; stroke-width: 1.25"/>
    </g>
   </g>
   <g id="PolyCollection_4">
    <defs>
     <path id="m3edf5b50b7" d="M 613.329775 -69.648853 
L 613.118225 -69.648853 
L 613.043554 -70.688774 
L 612.940592 -71.728695 
L 612.814137 -72.768617 
L 612.678033 -73.808538 
L 612.553641 -74.848459 
L 612.464084 -75.88838 
L 612.425789 -76.928302 
L 612.440852 -77.968223 
L 612.494013 -79.008144 
L 612.556054 -80.048065 
L 612.59239 -81.087986 
L 612.573279 -82.127908 
L 612.481651 -83.167829 
L 612.316005 -84.20775 
L 612.088191 -85.247671 
L 611.817958 -86.287593 
L 611.527261 -87.327514 
L 611.236837 -88.367435 
L 610.965828 -89.407356 
L 610.733003 -90.447278 
L 610.556911 -91.487199 
L 610.4528 -92.52712 
L 610.426217 -93.567041 
L 610.46552 -94.606963 
L 610.537028 -95.646884 
L 610.586419 -96.686805 
L 610.548193 -97.726726 
L 610.36162 -98.766648 
L 609.987488 -99.806569 
L 609.417412 -100.84649 
L 608.669235 -101.886411 
L 607.76914 -102.926333 
L 606.730094 -103.966254 
L 605.5407 -105.006175 
L 604.173517 -106.046096 
L 602.609228 -107.086017 
L 600.861319 -108.125939 
L 598.984101 -109.16586 
L 597.05689 -110.205781 
L 595.151658 -111.245702 
L 593.300445 -112.285624 
L 591.477267 -113.325545 
L 589.60054 -114.365466 
L 587.553461 -115.405387 
L 585.215419 -116.445309 
L 582.496436 -117.48523 
L 579.365958 -118.525151 
L 575.867227 -119.565072 
L 572.111743 -120.604994 
L 568.256222 -121.644915 
L 564.472925 -122.684836 
L 560.926465 -123.724757 
L 557.762892 -124.764679 
L 555.104883 -125.8046 
L 553.04044 -126.844521 
L 551.59904 -127.884442 
L 550.72561 -128.924364 
L 550.276468 -129.964285 
L 550.058705 -131.004206 
L 549.912521 -132.044127 
L 549.8064 -133.084048 
L 549.897469 -134.12397 
L 550.518112 -135.163891 
L 552.082095 -136.203812 
L 554.94142 -137.243733 
L 559.248015 -138.283655 
L 564.872241 -139.323576 
L 571.407527 -140.363497 
L 578.259389 -141.403418 
L 584.788905 -142.44334 
L 590.463427 -143.483261 
L 594.966446 -144.523182 
L 598.235858 -145.563103 
L 600.428665 -146.603025 
L 601.836729 -147.642946 
L 602.789746 -148.682867 
L 603.575736 -149.722788 
L 604.394073 -150.76271 
L 605.341877 -151.802631 
L 606.426388 -152.842552 
L 607.592811 -153.882473 
L 608.756868 -154.922395 
L 609.833096 -155.962316 
L 610.753742 -157.002237 
L 611.477678 -158.042158 
L 611.991869 -159.082079 
L 612.308682 -160.122001 
L 612.461173 -161.161922 
L 612.496913 -162.201843 
L 612.470147 -163.241764 
L 612.43245 -164.281686 
L 612.423347 -165.321607 
L 612.463592 -166.361528 
L 612.553642 -167.401449 
L 612.678098 -168.441371 
L 612.814178 -169.481292 
L 612.94061 -170.521213 
L 613.043561 -171.561134 
L 613.118227 -172.601056 
L 613.329773 -172.601056 
L 613.329773 -172.601056 
L 613.404439 -171.561134 
L 613.50739 -170.521213 
L 613.633822 -169.481292 
L 613.769902 -168.441371 
L 613.894358 -167.401449 
L 613.984408 -166.361528 
L 614.024653 -165.321607 
L 614.01555 -164.281686 
L 613.977853 -163.241764 
L 613.951087 -162.201843 
L 613.986827 -161.161922 
L 614.139318 -160.122001 
L 614.456131 -159.082079 
L 614.970322 -158.042158 
L 615.694258 -157.002237 
L 616.614904 -155.962316 
L 617.691132 -154.922395 
L 618.855189 -153.882473 
L 620.021612 -152.842552 
L 621.106123 -151.802631 
L 622.053927 -150.76271 
L 622.872264 -149.722788 
L 623.658254 -148.682867 
L 624.611271 -147.642946 
L 626.019335 -146.603025 
L 628.212142 -145.563103 
L 631.481554 -144.523182 
L 635.984573 -143.483261 
L 641.659095 -142.44334 
L 648.188611 -141.403418 
L 655.040473 -140.363497 
L 661.575759 -139.323576 
L 667.199985 -138.283655 
L 671.50658 -137.243733 
L 674.365905 -136.203812 
L 675.929888 -135.163891 
L 676.550531 -134.12397 
L 676.6416 -133.084048 
L 676.535479 -132.044127 
L 676.389295 -131.004206 
L 676.171532 -129.964285 
L 675.72239 -128.924364 
L 674.84896 -127.884442 
L 673.40756 -126.844521 
L 671.343117 -125.8046 
L 668.685108 -124.764679 
L 665.521535 -123.724757 
L 661.975075 -122.684836 
L 658.191778 -121.644915 
L 654.336257 -120.604994 
L 650.580773 -119.565072 
L 647.082042 -118.525151 
L 643.951564 -117.48523 
L 641.232581 -116.445309 
L 638.894539 -115.405387 
L 636.84746 -114.365466 
L 634.970733 -113.325545 
L 633.147555 -112.285624 
L 631.296342 -111.245702 
L 629.39111 -110.205781 
L 627.463899 -109.16586 
L 625.586681 -108.125939 
L 623.838772 -107.086017 
L 622.274483 -106.046096 
L 620.9073 -105.006175 
L 619.717906 -103.966254 
L 618.67886 -102.926333 
L 617.778765 -101.886411 
L 617.030588 -100.84649 
L 616.460512 -99.806569 
L 616.08638 -98.766648 
L 615.899807 -97.726726 
L 615.861581 -96.686805 
L 615.910972 -95.646884 
L 615.98248 -94.606963 
L 616.021783 -93.567041 
L 615.9952 -92.52712 
L 615.891089 -91.487199 
L 615.714997 -90.447278 
L 615.482172 -89.407356 
L 615.211163 -88.367435 
L 614.920739 -87.327514 
L 614.630042 -86.287593 
L 614.359809 -85.247671 
L 614.131995 -84.20775 
L 613.966349 -83.167829 
L 613.874721 -82.127908 
L 613.85561 -81.087986 
L 613.891946 -80.048065 
L 613.953987 -79.008144 
L 614.007148 -77.968223 
L 614.022211 -76.928302 
L 613.983916 -75.88838 
L 613.894359 -74.848459 
L 613.769967 -73.808538 
L 613.633863 -72.768617 
L 613.507408 -71.728695 
L 613.404446 -70.688774 
L 613.329775 -69.648853 
z
" style="stroke: #595959; stroke-width: 1.25"/>
    </defs>
    <g clip-path="url(#p37e635c15d)">
     <use xlink:href="#m3edf5b50b7" x="0" y="432" style="fill: #db96c0; stroke: #595959; stroke-width: 1.25"/>
    </g>
   </g>
   <g id="PolyCollection_5">
    <defs>
     <path id="m0ab7d35bdd" d="M 771.885351 -53.566364 
L 771.650649 -53.566364 
L 771.573362 -54.279712 
L 771.461722 -54.993059 
L 771.309569 -55.706407 
L 771.113382 -56.419755 
L 770.873348 -57.133103 
L 770.593923 -57.846451 
L 770.283899 -58.559799 
L 769.95613 -59.273147 
L 769.626935 -59.986495 
L 769.314898 -60.699843 
L 769.038592 -61.413191 
L 768.813153 -62.126538 
L 768.646349 -62.839886 
L 768.535659 -63.553234 
L 768.467891 -64.266582 
L 768.421963 -64.97993 
L 768.373772 -65.693278 
L 768.300729 -66.406626 
L 768.18335 -67.119974 
L 768.002594 -67.833322 
L 767.733928 -68.546669 
L 767.341101 -69.260017 
L 766.773417 -69.973365 
L 765.969279 -70.686713 
L 764.866356 -71.400061 
L 763.415881 -72.113409 
L 761.596603 -72.826757 
L 759.423676 -73.540105 
L 756.949419 -74.253453 
L 754.255796 -74.966801 
L 751.441202 -75.680148 
L 748.605573 -76.393496 
L 745.837256 -77.106844 
L 743.202944 -77.820192 
L 740.739848 -78.53354 
L 738.448632 -79.246888 
L 736.28745 -79.960236 
L 734.170531 -80.673584 
L 731.976869 -81.386932 
L 729.573402 -82.10028 
L 726.851969 -82.813627 
L 723.772492 -83.526975 
L 720.399503 -84.240323 
L 716.918459 -84.953671 
L 713.622794 -85.667019 
L 710.870722 -86.380367 
L 709.01939 -87.093715 
L 708.3504 -87.807063 
L 709.003467 -88.520411 
L 710.9338 -89.233759 
L 713.904074 -89.947106 
L 717.514558 -90.660454 
L 721.266572 -91.373802 
L 724.646866 -92.08715 
L 727.216031 -92.800498 
L 728.683736 -93.513846 
L 728.957419 -94.227194 
L 728.157058 -94.940542 
L 726.594935 -95.65389 
L 724.724246 -96.367238 
L 723.064331 -97.080585 
L 722.113636 -97.793933 
L 722.264687 -98.507281 
L 723.736957 -99.220629 
L 726.541885 -99.933977 
L 730.488283 -100.647325 
L 735.226959 -101.360673 
L 740.323558 -102.074021 
L 745.341712 -102.787369 
L 749.917142 -103.500717 
L 753.807404 -104.214064 
L 756.909923 -104.927412 
L 759.249889 -105.64076 
L 760.946616 -106.354108 
L 762.170296 -107.067456 
L 763.100301 -107.780804 
L 763.892712 -108.494152 
L 764.660368 -109.2075 
L 765.465335 -109.920848 
L 766.321721 -110.634195 
L 767.206015 -111.347543 
L 768.071849 -112.060891 
L 768.865973 -112.774239 
L 769.54241 -113.487587 
L 770.072447 -114.200935 
L 770.449248 -114.914283 
L 770.687141 -115.627631 
L 770.81663 -116.340979 
L 770.876773 -117.054327 
L 770.906768 -117.767674 
L 770.938595 -118.481022 
L 770.992224 -119.19437 
L 771.074268 -119.907718 
L 771.180016 -120.621066 
L 771.297799 -121.334414 
L 771.414059 -122.047762 
L 771.517508 -122.76111 
L 771.601426 -123.474458 
L 771.663951 -124.187806 
L 771.872049 -124.187806 
L 771.872049 -124.187806 
L 771.934574 -123.474458 
L 772.018492 -122.76111 
L 772.121941 -122.047762 
L 772.238201 -121.334414 
L 772.355984 -120.621066 
L 772.461732 -119.907718 
L 772.543776 -119.19437 
L 772.597405 -118.481022 
L 772.629232 -117.767674 
L 772.659227 -117.054327 
L 772.71937 -116.340979 
L 772.848859 -115.627631 
L 773.086752 -114.914283 
L 773.463553 -114.200935 
L 773.99359 -113.487587 
L 774.670027 -112.774239 
L 775.464151 -112.060891 
L 776.329985 -111.347543 
L 777.214279 -110.634195 
L 778.070665 -109.920848 
L 778.875632 -109.2075 
L 779.643288 -108.494152 
L 780.435699 -107.780804 
L 781.365704 -107.067456 
L 782.589384 -106.354108 
L 784.286111 -105.64076 
L 786.626077 -104.927412 
L 789.728596 -104.214064 
L 793.618858 -103.500717 
L 798.194288 -102.787369 
L 803.212442 -102.074021 
L 808.309041 -101.360673 
L 813.047717 -100.647325 
L 816.994115 -99.933977 
L 819.799043 -99.220629 
L 821.271313 -98.507281 
L 821.422364 -97.793933 
L 820.471669 -97.080585 
L 818.811754 -96.367238 
L 816.941065 -95.65389 
L 815.378942 -94.940542 
L 814.578581 -94.227194 
L 814.852264 -93.513846 
L 816.319969 -92.800498 
L 818.889134 -92.08715 
L 822.269428 -91.373802 
L 826.021442 -90.660454 
L 829.631926 -89.947106 
L 832.6022 -89.233759 
L 834.532533 -88.520411 
L 835.1856 -87.807063 
L 834.51661 -87.093715 
L 832.665278 -86.380367 
L 829.913206 -85.667019 
L 826.617541 -84.953671 
L 823.136497 -84.240323 
L 819.763508 -83.526975 
L 816.684031 -82.813627 
L 813.962598 -82.10028 
L 811.559131 -81.386932 
L 809.365469 -80.673584 
L 807.24855 -79.960236 
L 805.087368 -79.246888 
L 802.796152 -78.53354 
L 800.333056 -77.820192 
L 797.698744 -77.106844 
L 794.930427 -76.393496 
L 792.094798 -75.680148 
L 789.280204 -74.966801 
L 786.586581 -74.253453 
L 784.112324 -73.540105 
L 781.939397 -72.826757 
L 780.120119 -72.113409 
L 778.669644 -71.400061 
L 777.566721 -70.686713 
L 776.762583 -69.973365 
L 776.194899 -69.260017 
L 775.802072 -68.546669 
L 775.533406 -67.833322 
L 775.35265 -67.119974 
L 775.235271 -66.406626 
L 775.162228 -65.693278 
L 775.114037 -64.97993 
L 775.068109 -64.266582 
L 775.000341 -63.553234 
L 774.889651 -62.839886 
L 774.722847 -62.126538 
L 774.497408 -61.413191 
L 774.221102 -60.699843 
L 773.909065 -59.986495 
L 773.57987 -59.273147 
L 773.252101 -58.559799 
L 772.942077 -57.846451 
L 772.662652 -57.133103 
L 772.422618 -56.419755 
L 772.226431 -55.706407 
L 772.074278 -54.993059 
L 771.962638 -54.279712 
L 771.885351 -53.566364 
z
" style="stroke: #595959; stroke-width: 1.25"/>
    </defs>
    <g clip-path="url(#p37e635c15d)">
     <use xlink:href="#m0ab7d35bdd" x="0" y="432" style="fill: #a2c865; stroke: #595959; stroke-width: 1.25"/>
    </g>
   </g>
   <g id="line2d_8">
    <path d="M 137.592 271.549519 
L 137.592 295.032342 
" clip-path="url(#p37e635c15d)" style="fill: none; stroke: #000000"/>
   </g>
   <g id="line2d_9">
    <path d="M 137.592 255.659943 
L 137.592 232.598967 
" clip-path="url(#p37e635c15d)" style="fill: none; stroke: #000000"/>
   </g>
   <g id="line2d_10">
    <path d="M 131.6466 295.032342 
L 143.5374 295.032342 
" clip-path="url(#p37e635c15d)" style="fill: none; stroke: #000000; stroke-linecap: round"/>
   </g>
   <g id="line2d_11">
    <path d="M 131.6466 232.598967 
L 143.5374 232.598967 
" clip-path="url(#p37e635c15d)" style="fill: none; stroke: #000000; stroke-linecap: round"/>
   </g>
   <g id="line2d_12">
    <path d="M 296.136 330.608117 
L 296.136 343.122915 
" clip-path="url(#p37e635c15d)" style="fill: none; stroke: #000000"/>
   </g>
   <g id="line2d_13">
    <path d="M 296.136 321.889943 
L 296.136 309.375145 
" clip-path="url(#p37e635c15d)" style="fill: none; stroke: #000000"/>
   </g>
   <g id="line2d_14">
    <path d="M 290.1906 343.122915 
L 302.0814 343.122915 
" clip-path="url(#p37e635c15d)" style="fill: none; stroke: #000000; stroke-linecap: round"/>
   </g>
   <g id="line2d_15">
    <path d="M 290.1906 309.375145 
L 302.0814 309.375145 
" clip-path="url(#p37e635c15d)" style="fill: none; stroke: #000000; stroke-linecap: round"/>
   </g>
   <g id="line2d_16">
    <path d="M 454.68 198.31217 
L 454.68 256.878613 
" clip-path="url(#p37e635c15d)" style="fill: none; stroke: #000000"/>
   </g>
   <g id="line2d_17">
    <path d="M 454.68 153.315142 
L 454.68 89.452174 
" clip-path="url(#p37e635c15d)" style="fill: none; stroke: #000000"/>
   </g>
   <g id="line2d_18">
    <path d="M 448.7346 256.878613 
L 460.6254 256.878613 
" clip-path="url(#p37e635c15d)" style="fill: none; stroke: #000000; stroke-linecap: round"/>
   </g>
   <g id="line2d_19">
    <path d="M 448.7346 89.452174 
L 460.6254 89.452174 
" clip-path="url(#p37e635c15d)" style="fill: none; stroke: #000000; stroke-linecap: round"/>
   </g>
   <g id="line2d_20">
    <path d="M 613.224 309.890736 
L 613.224 329.248832 
" clip-path="url(#p37e635c15d)" style="fill: none; stroke: #000000"/>
   </g>
   <g id="line2d_21">
    <path d="M 613.224 295.876037 
L 613.224 277.502251 
" clip-path="url(#p37e635c15d)" style="fill: none; stroke: #000000"/>
   </g>
   <g id="line2d_22">
    <path d="M 607.2786 329.248832 
L 619.1694 329.248832 
" clip-path="url(#p37e635c15d)" style="fill: none; stroke: #000000; stroke-linecap: round"/>
   </g>
   <g id="line2d_23">
    <path d="M 607.2786 277.502251 
L 619.1694 277.502251 
" clip-path="url(#p37e635c15d)" style="fill: none; stroke: #000000; stroke-linecap: round"/>
   </g>
   <g id="line2d_24">
    <path d="M 771.768 347.997593 
L 771.768 368.433743 
" clip-path="url(#p37e635c15d)" style="fill: none; stroke: #000000"/>
   </g>
   <g id="line2d_25">
    <path d="M 771.768 334.357869 
L 771.768 320.530658 
" clip-path="url(#p37e635c15d)" style="fill: none; stroke: #000000"/>
   </g>
   <g id="line2d_26">
    <path d="M 765.8226 368.433743 
L 777.7134 368.433743 
" clip-path="url(#p37e635c15d)" style="fill: none; stroke: #000000; stroke-linecap: round"/>
   </g>
   <g id="line2d_27">
    <path d="M 765.8226 320.530658 
L 777.7134 320.530658 
" clip-path="url(#p37e635c15d)" style="fill: none; stroke: #000000; stroke-linecap: round"/>
   </g>
   <g id="line2d_28">
    <path d="M 125.7012 261.940779 
L 149.4828 261.940779 
" clip-path="url(#p37e635c15d)" style="fill: none; stroke: #ff0000; stroke-width: 2"/>
   </g>
   <g id="line2d_29">
    <path d="M 284.2452 326.811493 
L 308.0268 326.811493 
" clip-path="url(#p37e635c15d)" style="fill: none; stroke: #ff0000; stroke-width: 2"/>
   </g>
   <g id="line2d_30">
    <path d="M 442.7892 180.618026 
L 466.5708 180.618026 
" clip-path="url(#p37e635c15d)" style="fill: none; stroke: #ff0000; stroke-width: 2"/>
   </g>
   <g id="line2d_31">
    <path d="M 601.3332 303.000566 
L 625.1148 303.000566 
" clip-path="url(#p37e635c15d)" style="fill: none; stroke: #ff0000; stroke-width: 2"/>
   </g>
   <g id="line2d_32">
    <path d="M 759.8772 342.841684 
L 783.6588 342.841684 
" clip-path="url(#p37e635c15d)" style="fill: none; stroke: #ff0000; stroke-width: 2"/>
   </g>
   <g id="patch_3">
    <path d="M 58.32 395.14 
L 58.32 27.6 
" style="fill: none; stroke: #cccccc; stroke-width: 1.25; stroke-linejoin: miter; stroke-linecap: square"/>
   </g>
   <g id="patch_4">
    <path d="M 851.04 395.14 
L 851.04 27.6 
" style="fill: none; stroke: #cccccc; stroke-width: 1.25; stroke-linejoin: miter; stroke-linecap: square"/>
   </g>
   <g id="patch_5">
    <path d="M 58.32 395.14 
L 851.04 395.14 
" style="fill: none; stroke: #cccccc; stroke-width: 1.25; stroke-linejoin: miter; stroke-linecap: square"/>
   </g>
   <g id="patch_6">
    <path d="M 58.32 27.6 
L 851.04 27.6 
" style="fill: none; stroke: #cccccc; stroke-width: 1.25; stroke-linejoin: miter; stroke-linecap: square"/>
   </g>
   <g id="text_14">
    <!-- Handshake duration on TLS with mldsa65 signature algorithm — Degraded (200ms/10%) -->
    <g style="fill: #262626" transform="translate(186.980625 21.6) scale(0.12 -0.12)">
     <defs>
      <path id="DejaVuSans-54" d="M -19 4666 
L 3928 4666 
L 3928 4134 
L 2272 4134 
L 2272 0 
L 1638 0 
L 1638 4134 
L -19 4134 
L -19 4666 
z
" transform="scale(0.015625)"/>
      <path id="DejaVuSans-4c" d="M 628 4666 
L 1259 4666 
L 1259 531 
L 3531 531 
L 3531 0 
L 628 0 
L 628 4666 
z
" transform="scale(0.015625)"/>
      <path id="DejaVuSans-53" d="M 3425 4513 
L 3425 3897 
Q 3066 4069 2747 4153 
Q 2428 4238 2131 4238 
Q 1616 4238 1336 4038 
Q 1056 3838 1056 3469 
Q 1056 3159 1242 3001 
Q 1428 2844 1947 2747 
L 2328 2669 
Q 3034 2534 3370 2195 
Q 3706 1856 3706 1288 
Q 3706 609 3251 259 
Q 2797 -91 1919 -91 
Q 1588 -91 1214 -16 
Q 841 59 441 206 
L 441 856 
Q 825 641 1194 531 
Q 1563 422 1919 422 
Q 2459 422 2753 634 
Q 3047 847 3047 1241 
Q 3047 1584 2836 1778 
Q 2625 1972 2144 2069 
L 1759 2144 
Q 1053 2284 737 2584 
Q 422 2884 422 3419 
Q 422 4038 858 4394 
Q 1294 4750 2059 4750 
Q 2388 4750 2728 4690 
Q 3069 4631 3425 4513 
z
" transform="scale(0.015625)"/>
      <path id="DejaVuSans-77" d="M 269 3500 
L 844 3500 
L 1563 769 
L 2278 3500 
L 2956 3500 
L 3675 769 
L 4391 3500 
L 4966 3500 
L 4050 0 
L 3372 0 
L 2619 2869 
L 1863 0 
L 1184 0 
L 269 3500 
z
" transform="scale(0.015625)"/>
      <path id="DejaVuSans-67" d="M 2906 1791 
Q 2906 2416 2648 2759 
Q 2391 3103 1925 3103 
Q 1463 3103 1205 2759 
Q 947 2416 947 1791 
Q 947 1169 1205 825 
Q 1463 481 1925 481 
Q 2391 481 2648 825 
Q 2906 1169 2906 1791 
z
M 3481 434 
Q 3481 -459 3084 -895 
Q 2688 -1331 1869 -1331 
Q 1566 -1331 1297 -1286 
Q 1028 -1241 775 -1147 
L 775 -588 
Q 1028 -725 1275 -790 
Q 1522 -856 1778 -856 
Q 2344 -856 2625 -561 
Q 2906 -266 2906 331 
L 2906 616 
Q 2728 306 2450 153 
Q 2172 0 1784 0 
Q 1141 0 747 490 
Q 353 981 353 1791 
Q 353 2603 747 3093 
Q 1141 3584 1784 3584 
Q 2172 3584 2450 3431 
Q 2728 3278 2906 2969 
L 2906 3500 
L 3481 3500 
L 3481 434 
z
" transform="scale(0.015625)"/>
      <path id="DejaVuSans-2014" d="M 313 1978 
L 6088 1978 
L 6088 1528 
L 313 1528 
L 313 1978 
z
" transform="scale(0.015625)"/>
      <path id="DejaVuSans-44" d="M 1259 4147 
L 1259 519 
L 2022 519 
Q 2988 519 3436 956 
Q 3884 1394 3884 2338 
Q 3884 3275 3436 3711 
Q 2988 4147 2022 4147 
L 1259 4147 
z
M 628 4666 
L 1925 4666 
Q 3281 4666 3915 4102 
Q 4550 3538 4550 2338 
Q 4550 1131 3912 565 
Q 3275 0 1925 0 
L 628 0 
L 628 4666 
z
" transform="scale(0.015625)"/>
      <path id="DejaVuSans-2f" d="M 1625 4666 
L 2156 4666 
L 531 -594 
L 0 -594 
L 1625 4666 
z
" transform="scale(0.015625)"/>
      <path id="DejaVuSans-25" d="M 4653 2053 
Q 4381 2053 4226 1822 
Q 4072 1591 4072 1178 
Q 4072 772 4226 539 
Q 4381 306 4653 306 
Q 4919 306 5073 539 
Q 5228 772 5228 1178 
Q 5228 1588 5073 1820 
Q 4919 2053 4653 2053 
z
M 4653 2450 
Q 5147 2450 5437 2106 
Q 5728 1763 5728 1178 
Q 5728 594 5436 251 
Q 5144 -91 4653 -91 
Q 4153 -91 3862 251 
Q 3572 594 3572 1178 
Q 3572 1766 3864 2108 
Q 4156 2450 4653 2450 
z
M 1428 4353 
Q 1159 4353 1004 4120 
Q 850 3888 850 3481 
Q 850 3069 1003 2837 
Q 1156 2606 1428 2606 
Q 1700 2606 1854 2837 
Q 2009 3069 2009 3481 
Q 2009 3884 1853 4118 
Q 1697 4353 1428 4353 
z
M 4250 4750 
L 4750 4750 
L 1831 -91 
L 1331 -91 
L 4250 4750 
z
M 1428 4750 
Q 1922 4750 2215 4408 
Q 2509 4066 2509 3481 
Q 2509 2891 2217 2550 
Q 1925 2209 1428 2209 
Q 931 2209 642 2551 
Q 353 2894 353 3481 
Q 353 4063 643 4406 
Q 934 4750 1428 4750 
z
" transform="scale(0.015625)"/>
     </defs>
     <use xlink:href="#DejaVuSans-48"/>
     <use xlink:href="#DejaVuSans-61" x="75.195312"/>
     <use xlink:href="#DejaVuSans-6e" x="136.474609"/>
     <use xlink:href="#DejaVuSans-64" x="199.853516"/>
     <use xlink:href="#DejaVuSans-73" x="263.330078"/>
     <use xlink:href="#DejaVuSans-68" x="315.429688"/>
     <use xlink:href="#DejaVuSans-61" x="378.808594"/>
     <use xlink:href="#DejaVuSans-6b" x="440.087891"/>
     <use xlink:href="#DejaVuSans-65" x="494.373047"/>
     <use xlink:href="#DejaVuSans-20" x="555.896484"/>
     <use xlink:href="#DejaVuSans-64" x="587.683594"/>
     <use xlink:href="#DejaVuSans-75" x="651.160156"/>
     <use xlink:href="#DejaVuSans-72" x="714.539062"/>
     <use xlink:href="#DejaVuSans-61" x="755.652344"/>
     <use xlink:href="#DejaVuSans-74" x="816.931641"/>
     <use xlink:href="#DejaVuSans-69" x="856.140625"/>
     <use xlink:href="#DejaVuSans-6f" x="883.923828"/>
     <use xlink:href="#DejaVuSans-6e" x="945.105469"/>
     <use xlink:href="#DejaVuSans-20" x="1008.484375"/>
     <use xlink:href="#DejaVuSans-6f" x="1040.271484"/>
     <use xlink:href="#DejaVuSans-6e" x="1101.453125"/>
     <use xlink:href="#DejaVuSans-20" x="1164.832031"/>
     <use xlink:href="#DejaVuSans-54" x="1196.619141"/>
     <use xlink:href="#DejaVuSans-4c" x="1257.703125"/>
     <use xlink:href="#DejaVuSans-53" x="1313.416016"/>
     <use xlink:href="#DejaVuSans-20" x="1376.892578"/>
     <use xlink:href="#DejaVuSans-77" x="1408.679688"/>
     <use xlink:href="#DejaVuSans-69" x="1490.466797"/>
     <use xlink:href="#DejaVuSans-74" x="1518.25"/>
     <use xlink:href="#DejaVuSans-68" x="1557.458984"/>
     <use xlink:href="#DejaVuSans-20" x="1620.837891"/>
     <use xlink:href="#DejaVuSans-6d" x="1652.625"/>
     <use xlink:href="#DejaVuSans-6c" x="1750.037109"/>
     <use xlink:href="#DejaVuSans-64" x="1777.820312"/>
     <use xlink:href="#DejaVuSans-73" x="1841.296875"/>
     <use xlink:href="#DejaVuSans-61" x="1893.396484"/>
     <use xlink:href="#DejaVuSans-36" x="1954.675781"/>
     <use xlink:href="#DejaVuSans-35" x="2018.298828"/>
     <use xlink:href="#DejaVuSans-20" x="2081.921875"/>
     <use xlink:href="#DejaVuSans-73" x="2113.708984"/>
     <use xlink:href="#DejaVuSans-69" x="2165.808594"/>
     <use xlink:href="#DejaVuSans-67" x="2193.591797"/>
     <use xlink:href="#DejaVuSans-6e" x="2257.068359"/>
     <use xlink:href="#DejaVuSans-61" x="2320.447266"/>
     <use xlink:href="#DejaVuSans-74" x="2381.726562"/>
     <use xlink:href="#DejaVuSans-75" x="2420.935547"/>
     <use xlink:href="#DejaVuSans-72" x="2484.314453"/>
     <use xlink:href="#DejaVuSans-65" x="2523.177734"/>
     <use xlink:href="#DejaVuSans-20" x="2584.701172"/>
     <use xlink:href="#DejaVuSans-61" x="2616.488281"/>
     <use xlink:href="#DejaVuSans-6c" x="2677.767578"/>
     <use xlink:href="#DejaVuSans-67" x="2705.550781"/>
     <use xlink:href="#DejaVuSans-6f" x="2769.027344"/>
     <use xlink:href="#DejaVuSans-72" x="2830.208984"/>
     <use xlink:href="#DejaVuSans-69" x="2871.322266"/>
     <use xlink:href="#DejaVuSans-74" x="2899.105469"/>
     <use xlink:href="#DejaVuSans-68" x="2938.314453"/>
     <use xlink:href="#DejaVuSans-6d" x="3001.693359"/>
     <use xlink:href="#DejaVuSans-20" x="3099.105469"/>
     <use xlink:href="#DejaVuSans-2014" x="3130.892578"/>
     <use xlink:href="#DejaVuSans-20" x="3230.892578"/>
     <use xlink:href="#DejaVuSans-44" x="3262.679688"/>
     <use xlink:href="#DejaVuSans-65" x="3339.681641"/>
     <use xlink:href="#DejaVuSans-67" x="3401.205078"/>
     <use xlink:href="#DejaVuSans-72" x="3464.681641"/>
     <use xlink:href="#DejaVuSans-61" x="3505.794922"/>
     <use xlink:href="#DejaVuSans-64" x="3567.074219"/>
     <use xlink:href="#DejaVuSans-65" x="3630.550781"/>
     <use xlink:href="#DejaVuSans-64" x="3692.074219"/>
     <use xlink:href="#DejaVuSans-20" x="3755.550781"/>
     <use xlink:href="#DejaVuSans-28" x="3787.337891"/>
     <use xlink:href="#DejaVuSans-32" x="3826.351562"/>
     <use xlink:href="#DejaVuSans-30" x="3889.974609"/>
     <use xlink:href="#DejaVuSans-30" x="3953.597656"/>
     <use xlink:href="#DejaVuSans-6d" x="4017.220703"/>
     <use xlink:href="#DejaVuSans-73" x="4114.632812"/>
     <use xlink:href="#DejaVuSans-2f" x="4166.732422"/>
     <use xlink:href="#DejaVuSans-31" x="4200.423828"/>
     <use xlink:href="#DejaVuSans-30" x="4264.046875"/>
     <use xlink:href="#DejaVuSans-25" x="4327.669922"/>
     <use xlink:href="#DejaVuSans-29" x="4422.689453"/>
    </g>
   </g>
  </g>
 </g>
 <defs>
  <clipPath id="p37e635c15d">
   <rect x="58.32" y="27.6" width="792.72" height="367.54"/>
  </clipPath>
 </defs>
</svg>
