<?xml version="1.0" encoding="utf-8" standalone="no"?>
<!DOCTYPE svg PUBLIC "-//W3C//DTD SVG 1.1//EN"
  "http://www.w3.org/Graphics/SVG/1.1/DTD/svg11.dtd">
<svg xmlns:xlink="http://www.w3.org/1999/xlink" width="864pt" height="432pt" viewBox="0 0 864 432" xmlns="http://www.w3.org/2000/svg" version="1.1">
 <metadata>
  <rdf:RDF xmlns:dc="http://purl.org/dc/elements/1.1/" xmlns:cc="http://creativecommons.org/ns#" xmlns:rdf="http://www.w3.org/1999/02/22-rdf-syntax-ns#">
   <cc:Work>
    <dc:type rdf:resource="http://purl.org/dc/dcmitype/StillImage"/>
    <dc:date>2026-03-21T13:58:40.987103</dc:date>
    <dc:format>image/svg+xml</dc:format>
    <dc:creator>
     <cc:Agent>
      <dc:title>Matplotlib v3.6.3, https://matplotlib.org/</dc:title>
     </cc:Agent>
    </dc:creator>
   </cc:Work>
  </rdf:RDF>
 </metadata>
 <defs>
  <style type="text/css">*{stroke-linejoin: round; stroke-linecap: butt}</style>
 </defs>
 <g id="figure_1">
  <g id="patch_1">
   <path d="M 0 432 
L 864 432 
L 864 0 
L 0 0 
z
" style="fill: #ffffff"/>
  </g>
  <g id="axes_1">
   <g id="patch_2">
    <path d="M 51.3 395.14 
L 851.04 395.14 
L 851.04 27.6 
L 51.3 27.6 
z
" style="fill: #ffffff"/>
   </g>
   <g id="matplotlib.axis_1">
    <g id="xtick_1">
     <g id="text_1">
      <!-- P-256 -->
      <g style="fill: #262626" transform="translate(111.324 415.277812) scale(0.14 -0.14)">
       <defs>
        <path id="DejaVuSans-50" d="M 1259 4147 
L 1259 2394 
L 2053 2394 
Q 2494 2394 2734 2622 
Q 2975 2850 2975 3272 
Q 2975 3691 2734 3919 
Q 2494 4147 2053 4147 
L 1259 4147 
z
M 628 4666 
L 2053 4666 
Q 2838 4666 3239 4311 
Q 3641 3956 3641 3272 
Q 3641 2581 3239 2228 
Q 2838 1875 2053 1875 
L 1259 1875 
L 1259 0 
L 628 0 
L 628 4666 
z
" transform="scale(0.015625)"/>
        <path id="DejaVuSans-2d" d="M 313 2009 
L 1997 2009 
L 1997 1497 
L 313 1497 
L 313 2009 
z
" transform="scale(0.015625)"/>
        <path id="DejaVuSans-32" d="M 1228 531 
L 3431 531 
L 3431 0 
L 469 0 
L 469 531 
Q 828 903 1448 1529 
Q 2069 2156 2228 2338 
Q 2531 2678 2651 2914 
Q 2772 3150 2772 3378 
Q 2772 3750 2511 3984 
Q 2250 4219 1831 4219 
Q 1534 4219 1204 4116 
Q 875 4013 500 3803 
L 500 4441 
Q 881 4594 1212 4672 
Q 1544 4750 1819 4750 
Q 2544 4750 2975 4387 
Q 3406 4025 3406 3419 
Q 3406 3131 3298 2873 
Q 3191 2616 2906 2266 
Q 2828 2175 2409 1742 
Q 1991 1309 1228 531 
z
" transform="scale(0.015625)"/>
        <path id="DejaVuSans-35" d="M 691 4666 
L 3169 4666 
L 3169 4134 
L 1269 4134 
L 1269 2991 
Q 1406 3038 1543 3061 
Q 1681 3084 1819 3084 
Q 2600 3084 3056 2656 
Q 3513 2228 3513 1497 
Q 3513 744 3044 326 
Q 2575 -91 1722 -91 
Q 1428 -91 1123 -41 
Q 819 9 494 109 
L 494 744 
Q 775 591 1075 516 
Q 1375 441 1709 441 
Q 2250 441 2565 725 
Q 2881 1009 2881 1497 
Q 2881 1984 2565 2268 
Q 2250 2553 1709 2553 
Q 1456 2553 1204 2497 
Q 953 2441 691 2322 
L 691 4666 
z
" transform="scale(0.015625)"/>
        <path id="DejaVuSans-36" d="M 2113 2584 
Q 1688 2584 1439 2293 
Q 1191 2003 1191 1497 
Q 1191 994 1439 701 
Q 1688 409 2113 409 
Q 2538 409 2786 701 
Q 3034 994 3034 1497 
Q 3034 2003 2786 2293 
Q 2538 2584 2113 2584 
z
M 3366 4563 
L 3366 3988 
Q 3128 4100 2886 4159 
Q 2644 4219 2406 4219 
Q 1781 4219 1451 3797 
Q 1122 3375 1075 2522 
Q 1259 2794 1537 2939 
Q 1816 3084 2150 3084 
Q 2853 3084 3261 2657 
Q 3669 2231 3669 1497 
Q 3669 778 3244 343 
Q 2819 -91 2113 -91 
Q 1303 -91 875 529 
Q 447 1150 447 2328 
Q 447 3434 972 4092 
Q 1497 4750 2381 4750 
Q 2619 4750 2861 4703 
Q 3103 4656 3366 4563 
z
" transform="scale(0.015625)"/>
       </defs>
       <use xlink:href="#DejaVuSans-50"/>
       <use xlink:href="#DejaVuSans-2d" x="58.052734"/>
       <use xlink:href="#DejaVuSans-32" x="94.136719"/>
       <use xlink:href="#DejaVuSans-35" x="157.759766"/>
       <use xlink:href="#DejaVuSans-36" x="221.382812"/>
      </g>
     </g>
    </g>
    <g id="xtick_2">
     <g id="text_2">
      <!-- x25519 -->
      <g style="fill: #262626" transform="translate(264.810125 415.277812) scale(0.14 -0.14)">
       <defs>
        <path id="DejaVuSans-78" d="M 3513 3500 
L 2247 1797 
L 3578 0 
L 2900 0 
L 1881 1375 
L 863 0 
L 184 0 
L 1544 1831 
L 300 3500 
L 978 3500 
L 1906 2253 
L 2834 3500 
L 3513 3500 
z
" transform="scale(0.015625)"/>
        <path id="DejaVuSans-31" d="M 794 531 
L 1825 531 
L 1825 4091 
L 703 3866 
L 703 4441 
L 1819 4666 
L 2450 4666 
L 2450 531 
L 3481 531 
L 3481 0 
L 794 0 
L 794 531 
z
" transform="scale(0.015625)"/>
        <path id="DejaVuSans-39" d="M 703 97 
L 703 672 
Q 941 559 1184 500 
Q 1428 441 1663 441 
Q 2288 441 2617 861 
Q 2947 1281 2994 2138 
Q 2813 1869 2534 1725 
Q 2256 1581 1919 1581 
Q 1219 1581 811 2004 
Q 403 2428 403 3163 
Q 403 3881 828 4315 
Q 1253 4750 1959 4750 
Q 2769 4750 3195 4129 
Q 3622 3509 3622 2328 
Q 3622 1225 3098 567 
Q 2575 -91 1691 -91 
Q 1453 -91 1209 -44 
Q 966 3 703 97 
z
M 1959 2075 
Q 2384 2075 2632 2365 
Q 2881 2656 2881 3163 
Q 2881 3666 2632 3958 
Q 2384 4250 1959 4250 
Q 1534 4250 1286 3958 
Q 1038 3666 1038 3163 
Q 1038 2656 1286 2365 
Q 1534 2075 1959 2075 
z
" transform="scale(0.015625)"/>
       </defs>
       <use xlink:href="#DejaVuSans-78"/>
       <use xlink:href="#DejaVuSans-32" x="59.179688"/>
       <use xlink:href="#DejaVuSans-35" x="122.802734"/>
       <use xlink:href="#DejaVuSans-35" x="186.425781"/>
       <use xlink:href="#DejaVuSans-31" x="250.048828"/>
       <use xlink:href="#DejaVuSans-39" x="313.671875"/>
      </g>
     </g>
    </g>
    <g id="xtick_3">
     <g id="text_3">
      <!-- p256_mlkem512 -->
      <g style="fill: #262626" transform="translate(392.815156 415.277812) scale(0.14 -0.14)">
       <defs>
        <path id="DejaVuSans-70" d="M 1159 525 
L 1159 -1331 
L 581 -1331 
L 581 3500 
L 1159 3500 
L 1159 2969 
Q 1341 3281 1617 3432 
Q 1894 3584 2278 3584 
Q 2916 3584 3314 3078 
Q 3713 2572 3713 1747 
Q 3713 922 3314 415 
Q 2916 -91 2278 -91 
Q 1894 -91 1617 61 
Q 1341 213 1159 525 
z
M 3116 1747 
Q 3116 2381 2855 2742 
Q 2594 3103 2138 3103 
Q 1681 3103 1420 2742 
Q 1159 2381 1159 1747 
Q 1159 1113 1420 752 
Q 1681 391 2138 391 
Q 2594 391 2855 752 
Q 3116 1113 3116 1747 
z
" transform="scale(0.015625)"/>
        <path id="DejaVuSans-5f" d="M 3263 -1063 
L 3263 -1509 
L -63 -1509 
L -63 -1063 
L 3263 -1063 
z
" transform="scale(0.015625)"/>
        <path id="DejaVuSans-6d" d="M 3328 2828 
Q 3544 3216 3844 3400 
Q 4144 3584 4550 3584 
Q 5097 3584 5394 3201 
Q 5691 2819 5691 2113 
L 5691 0 
L 5113 0 
L 5113 2094 
Q 5113 2597 4934 2840 
Q 4756 3084 4391 3084 
Q 3944 3084 3684 2787 
Q 3425 2491 3425 1978 
L 3425 0 
L 2847 0 
L 2847 2094 
Q 2847 2600 2669 2842 
Q 2491 3084 2119 3084 
Q 1678 3084 1418 2786 
Q 1159 2488 1159 1978 
L 1159 0 
L 581 0 
L 581 3500 
L 1159 3500 
L 1159 2956 
Q 1356 3278 1631 3431 
Q 1906 3584 2284 3584 
Q 2666 3584 2933 3390 
Q 3200 3197 3328 2828 
z
" transform="scale(0.015625)"/>
        <path id="DejaVuSans-6c" d="M 603 4863 
L 1178 4863 
L 1178 0 
L 603 0 
L 603 4863 
z
" transform="scale(0.015625)"/>
        <path id="DejaVuSans-6b" d="M 581 4863 
L 1159 4863 
L 1159 1991 
L 2875 3500 
L 3609 3500 
L 1753 1863 
L 3688 0 
L 2938 0 
L 1159 1709 
L 1159 0 
L 581 0 
L 581 4863 
z
" transform="scale(0.015625)"/>
        <path id="DejaVuSans-65" d="M 3597 1894 
L 3597 1613 
L 953 1613 
Q 991 1019 1311 708 
Q 1631 397 2203 397 
Q 2534 397 2845 478 
Q 3156 559 3463 722 
L 3463 178 
Q 3153 47 2828 -22 
Q 2503 -91 2169 -91 
Q 1331 -91 842 396 
Q 353 884 353 1716 
Q 353 2575 817 3079 
Q 1281 3584 2069 3584 
Q 2775 3584 3186 3129 
Q 3597 2675 3597 1894 
z
M 3022 2063 
Q 3016 2534 2758 2815 
Q 2500 3097 2075 3097 
Q 1594 3097 1305 2825 
Q 1016 2553 972 2059 
L 3022 2063 
z
" transform="scale(0.015625)"/>
       </defs>
       <use xlink:href="#DejaVuSans-70"/>
       <use xlink:href="#DejaVuSans-32" x="63.476562"/>
       <use xlink:href="#DejaVuSans-35" x="127.099609"/>
       <use xlink:href="#DejaVuSans-36" x="190.722656"/>
       <use xlink:href="#DejaVuSans-5f" x="254.345703"/>
       <use xlink:href="#DejaVuSans-6d" x="304.345703"/>
       <use xlink:href="#DejaVuSans-6c" x="401.757812"/>
       <use xlink:href="#DejaVuSans-6b" x="429.541016"/>
       <use xlink:href="#DejaVuSans-65" x="483.826172"/>
       <use xlink:href="#DejaVuSans-6d" x="545.349609"/>
       <use xlink:href="#DejaVuSans-35" x="642.761719"/>
       <use xlink:href="#DejaVuSans-31" x="706.384766"/>
       <use xlink:href="#DejaVuSans-32" x="770.007812"/>
      </g>
     </g>
    </g>
    <g id="xtick_4">
     <g id="text_4">
      <!-- x25519_mlkem512 -->
      <g style="fill: #262626" transform="translate(544.156437 415.277812) scale(0.14 -0.14)">
       <use xlink:href="#DejaVuSans-78"/>
       <use xlink:href="#DejaVuSans-32" x="59.179688"/>
       <use xlink:href="#DejaVuSans-35" x="122.802734"/>
       <use xlink:href="#DejaVuSans-35" x="186.425781"/>
       <use xlink:href="#DejaVuSans-31" x="250.048828"/>
       <use xlink:href="#DejaVuSans-39" x="313.671875"/>
       <use xlink:href="#DejaVuSans-5f" x="377.294922"/>
       <use xlink:href="#DejaVuSans-6d" x="427.294922"/>
       <use xlink:href="#DejaVuSans-6c" x="524.707031"/>
       <use xlink:href="#DejaVuSans-6b" x="552.490234"/>
       <use xlink:href="#DejaVuSans-65" x="606.775391"/>
       <use xlink:href="#DejaVuSans-6d" x="668.298828"/>
       <use xlink:href="#DejaVuSans-35" x="765.710938"/>
       <use xlink:href="#DejaVuSans-31" x="829.333984"/>
       <use xlink:href="#DejaVuSans-32" x="892.957031"/>
      </g>
     </g>
    </g>
    <g id="xtick_5">
     <g id="text_5">
      <!-- mlkem512 -->
      <g style="fill: #262626" transform="translate(734.016312 415.277812) scale(0.14 -0.14)">
       <use xlink:href="#DejaVuSans-6d"/>
       <use xlink:href="#DejaVuSans-6c" x="97.412109"/>
       <use xlink:href="#DejaVuSans-6b" x="125.195312"/>
       <use xlink:href="#DejaVuSans-65" x="179.480469"/>
       <use xlink:href="#DejaVuSans-6d" x="241.003906"/>
       <use xlink:href="#DejaVuSans-35" x="338.416016"/>
       <use xlink:href="#DejaVuSans-31" x="402.039062"/>
       <use xlink:href="#DejaVuSans-32" x="465.662109"/>
      </g>
     </g>
    </g>
   </g>
   <g id="matplotlib.axis_2">
    <g id="ytick_1">
     <g id="line2d_1">
      <path d="M 51.3 386.211444 
L 851.04 386.211444 
" clip-path="url(#p5b9969bf71)" style="fill: none; stroke: #cccccc; stroke-linecap: round"/>
     </g>
     <g id="text_6">
      <!-- 0 -->
      <g style="fill: #262626" transform="translate(34.80125 390.390585) scale(0.11 -0.11)">
       <defs>
        <path id="DejaVuSans-30" d="M 2034 4250 
Q 1547 4250 1301 3770 
Q 1056 3291 1056 2328 
Q 1056 1369 1301 889 
Q 1547 409 2034 409 
Q 2525 409 2770 889 
Q 3016 1369 3016 2328 
Q 3016 3291 2770 3770 
Q 2525 4250 2034 4250 
z
M 2034 4750 
Q 2819 4750 3233 4129 
Q 3647 3509 3647 2328 
Q 3647 1150 3233 529 
Q 2819 -91 2034 -91 
Q 1250 -91 836 529 
Q 422 1150 422 2328 
Q 422 3509 836 4129 
Q 1250 4750 2034 4750 
z
" transform="scale(0.015625)"/>
       </defs>
       <use xlink:href="#DejaVuSans-30"/>
      </g>
     </g>
    </g>
    <g id="ytick_2">
     <g id="line2d_2">
      <path d="M 51.3 308.218663 
L 851.04 308.218663 
" clip-path="url(#p5b9969bf71)" style="fill: none; stroke: #cccccc; stroke-linecap: round"/>
     </g>
     <g id="text_7">
      <!-- 10 -->
      <g style="fill: #262626" transform="translate(27.8025 312.397804) scale(0.11 -0.11)">
       <use xlink:href="#DejaVuSans-31"/>
       <use xlink:href="#DejaVuSans-30" x="63.623047"/>
      </g>
     </g>
    </g>
    <g id="ytick_3">
     <g id="line2d_3">
      <path d="M 51.3 230.225883 
L 851.04 230.225883 
" clip-path="url(#p5b9969bf71)" style="fill: none; stroke: #cccccc; stroke-linecap: round"/>
     </g>
     <g id="text_8">
      <!-- 20 -->
      <g style="fill: #262626" transform="translate(27.8025 234.405023) scale(0.11 -0.11)">
       <use xlink:href="#DejaVuSans-32"/>
       <use xlink:href="#DejaVuSans-30" x="63.623047"/>
      </g>
     </g>
    </g>
    <g id="ytick_4">
     <g id="line2d_4">
      <path d="M 51.3 152.233102 
L 851.04 152.233102 
" clip-path="url(#p5b9969bf71)" style="fill: none; stroke: #cccccc; stroke-linecap: round"/>
     </g>
     <g id="text_9">
      <!-- 30 -->
      <g style="fill: #262626" transform="translate(27.8025 156.412242) scale(0.11 -0.11)">
       <defs>
        <path id="DejaVuSans-33" d="M 2597 2516 
Q 3050 2419 3304 2112 
Q 3559 1806 3559 1356 
Q 3559 666 3084 287 
Q 2609 -91 1734 -91 
Q 1441 -91 1130 -33 
Q 819 25 488 141 
L 488 750 
Q 750 597 1062 519 
Q 1375 441 1716 441 
Q 2309 441 2620 675 
Q 2931 909 2931 1356 
Q 2931 1769 2642 2001 
Q 2353 2234 1838 2234 
L 1294 2234 
L 1294 2753 
L 1863 2753 
Q 2328 2753 2575 2939 
Q 2822 3125 2822 3475 
Q 2822 3834 2567 4026 
Q 2313 4219 1838 4219 
Q 1578 4219 1281 4162 
Q 984 4106 628 3988 
L 628 4550 
Q 988 4650 1302 4700 
Q 1616 4750 1894 4750 
Q 2613 4750 3031 4423 
Q 3450 4097 3450 3541 
Q 3450 3153 3228 2886 
Q 3006 2619 2597 2516 
z
" transform="scale(0.015625)"/>
       </defs>
       <use xlink:href="#DejaVuSans-33"/>
       <use xlink:href="#DejaVuSans-30" x="63.623047"/>
      </g>
     </g>
    </g>
    <g id="ytick_5">
     <g id="line2d_5">
      <path d="M 51.3 74.240321 
L 851.04 74.240321 
" clip-path="url(#p5b9969bf71)" style="fill: none; stroke: #cccccc; stroke-linecap: round"/>
     </g>
     <g id="text_10">
      <!-- 40 -->
      <g style="fill: #262626" transform="translate(27.8025 78.419462) scale(0.11 -0.11)">
       <defs>
        <path id="DejaVuSans-34" d="M 2419 4116 
L 825 1625 
L 2419 1625 
L 2419 4116 
z
M 2253 4666 
L 3047 4666 
L 3047 1625 
L 3713 1625 
L 3713 1100 
L 3047 1100 
L 3047 0 
L 2419 0 
L 2419 1100 
L 313 1100 
L 313 1709 
L 2253 4666 
z
" transform="scale(0.015625)"/>
       </defs>
       <use xlink:href="#DejaVuSans-34"/>
       <use xlink:href="#DejaVuSans-30" x="63.623047"/>
      </g>
     </g>
    </g>
    <g id="text_11">
     <!-- Handshake duration (ms) -->
     <g style="fill: #262626" transform="translate(21.306875 287.437813) rotate(-90) scale(0.12 -0.12)">
      <defs>
       <path id="DejaVuSans-48" d="M 628 4666 
L 1259 4666 
L 1259 2753 
L 3553 2753 
L 3553 4666 
L 4184 4666 
L 4184 0 
L 3553 0 
L 3553 2222 
L 1259 2222 
L 1259 0 
L 628 0 
L 628 4666 
z
" transform="scale(0.015625)"/>
       <path id="DejaVuSans-61" d="M 2194 1759 
Q 1497 1759 1228 1600 
Q 959 1441 959 1056 
Q 959 750 1161 570 
Q 1363 391 1709 391 
Q 2188 391 2477 730 
Q 2766 1069 2766 1631 
L 2766 1759 
L 2194 1759 
z
M 3341 1997 
L 3341 0 
L 2766 0 
L 2766 531 
Q 2569 213 2275 61 
Q 1981 -91 1556 -91 
Q 1019 -91 701 211 
Q 384 513 384 1019 
Q 384 1609 779 1909 
Q 1175 2209 1959 2209 
L 2766 2209 
L 2766 2266 
Q 2766 2663 2505 2880 
Q 2244 3097 1772 3097 
Q 1472 3097 1187 3025 
Q 903 2953 641 2809 
L 641 3341 
Q 956 3463 1253 3523 
Q 1550 3584 1831 3584 
Q 2591 3584 2966 3190 
Q 3341 2797 3341 1997 
z
" transform="scale(0.015625)"/>
       <path id="DejaVuSans-6e" d="M 3513 2113 
L 3513 0 
L 2938 0 
L 2938 2094 
Q 2938 2591 2744 2837 
Q 2550 3084 2163 3084 
Q 1697 3084 1428 2787 
Q 1159 2491 1159 1978 
L 1159 0 
L 581 0 
L 581 3500 
L 1159 3500 
L 1159 2956 
Q 1366 3272 1645 3428 
Q 1925 3584 2291 3584 
Q 2894 3584 3203 3211 
Q 3513 2838 3513 2113 
z
" transform="scale(0.015625)"/>
       <path id="DejaVuSans-64" d="M 2906 2969 
L 2906 4863 
L 3481 4863 
L 3481 0 
L 2906 0 
L 2906 525 
Q 2725 213 2448 61 
Q 2172 -91 1784 -91 
Q 1150 -91 751 415 
Q 353 922 353 1747 
Q 353 2572 751 3078 
Q 1150 3584 1784 3584 
Q 2172 3584 2448 3432 
Q 2725 3281 2906 2969 
z
M 947 1747 
Q 947 1113 1208 752 
Q 1469 391 1925 391 
Q 2381 391 2643 752 
Q 2906 1113 2906 1747 
Q 2906 2381 2643 2742 
Q 2381 3103 1925 3103 
Q 1469 3103 1208 2742 
Q 947 2381 947 1747 
z
" transform="scale(0.015625)"/>
       <path id="DejaVuSans-73" d="M 2834 3397 
L 2834 2853 
Q 2591 2978 2328 3040 
Q 2066 3103 1784 3103 
Q 1356 3103 1142 2972 
Q 928 2841 928 2578 
Q 928 2378 1081 2264 
Q 1234 2150 1697 2047 
L 1894 2003 
Q 2506 1872 2764 1633 
Q 3022 1394 3022 966 
Q 3022 478 2636 193 
Q 2250 -91 1575 -91 
Q 1294 -91 989 -36 
Q 684 19 347 128 
L 347 722 
Q 666 556 975 473 
Q 1284 391 1588 391 
Q 1994 391 2212 530 
Q 2431 669 2431 922 
Q 2431 1156 2273 1281 
Q 2116 1406 1581 1522 
L 1381 1569 
Q 847 1681 609 1914 
Q 372 2147 372 2553 
Q 372 3047 722 3315 
Q 1072 3584 1716 3584 
Q 2034 3584 2315 3537 
Q 2597 3491 2834 3397 
z
" transform="scale(0.015625)"/>
       <path id="DejaVuSans-68" d="M 3513 2113 
L 3513 0 
L 2938 0 
L 2938 2094 
Q 2938 2591 2744 2837 
Q 2550 3084 2163 3084 
Q 1697 3084 1428 2787 
Q 1159 2491 1159 1978 
L 1159 0 
L 581 0 
L 581 4863 
L 1159 4863 
L 1159 2956 
Q 1366 3272 1645 3428 
Q 1925 3584 2291 3584 
Q 2894 3584 3203 3211 
Q 3513 2838 3513 2113 
z
" transform="scale(0.015625)"/>
       <path id="DejaVuSans-20" transform="scale(0.015625)"/>
       <path id="DejaVuSans-75" d="M 544 1381 
L 544 3500 
L 1119 3500 
L 1119 1403 
Q 1119 906 1312 657 
Q 1506 409 1894 409 
Q 2359 409 2629 706 
Q 2900 1003 2900 1516 
L 2900 3500 
L 3475 3500 
L 3475 0 
L 2900 0 
L 2900 538 
Q 2691 219 2414 64 
Q 2138 -91 1772 -91 
Q 1169 -91 856 284 
Q 544 659 544 1381 
z
M 1991 3584 
L 1991 3584 
z
" transform="scale(0.015625)"/>
       <path id="DejaVuSans-72" d="M 2631 2963 
Q 2534 3019 2420 3045 
Q 2306 3072 2169 3072 
Q 1681 3072 1420 2755 
Q 1159 2438 1159 1844 
L 1159 0 
L 581 0 
L 581 3500 
L 1159 3500 
L 1159 2956 
Q 1341 3275 1631 3429 
Q 1922 3584 2338 3584 
Q 2397 3584 2469 3576 
Q 2541 3569 2628 3553 
L 2631 2963 
z
" transform="scale(0.015625)"/>
       <path id="DejaVuSans-74" d="M 1172 4494 
L 1172 3500 
L 2356 3500 
L 2356 3053 
L 1172 3053 
L 1172 1153 
Q 1172 725 1289 603 
Q 1406 481 1766 481 
L 2356 481 
L 2356 0 
L 1766 0 
Q 1100 0 847 248 
Q 594 497 594 1153 
L 594 3053 
L 172 3053 
L 172 3500 
L 594 3500 
L 594 4494 
L 1172 4494 
z
" transform="scale(0.015625)"/>
       <path id="DejaVuSans-69" d="M 603 3500 
L 1178 3500 
L 1178 0 
L 603 0 
L 603 3500 
z
M 603 4863 
L 1178 4863 
L 1178 4134 
L 603 4134 
L 603 4863 
z
" transform="scale(0.015625)"/>
       <path id="DejaVuSans-6f" d="M 1959 3097 
Q 1497 3097 1228 2736 
Q 959 2375 959 1747 
Q 959 1119 1226 758 
Q 1494 397 1959 397 
Q 2419 397 2687 759 
Q 2956 1122 2956 1747 
Q 2956 2369 2687 2733 
Q 2419 3097 1959 3097 
z
M 1959 3584 
Q 2709 3584 3137 3096 
Q 3566 2609 3566 1747 
Q 3566 888 3137 398 
Q 2709 -91 1959 -91 
Q 1206 -91 779 398 
Q 353 888 353 1747 
Q 353 2609 779 3096 
Q 1206 3584 1959 3584 
z
" transform="scale(0.015625)"/>
       <path id="DejaVuSans-28" d="M 1984 4856 
Q 1566 4138 1362 3434 
Q 1159 2731 1159 2009 
Q 1159 1288 1364 580 
Q 1569 -128 1984 -844 
L 1484 -844 
Q 1016 -109 783 600 
Q 550 1309 550 2009 
Q 550 2706 781 3412 
Q 1013 4119 1484 4856 
L 1984 4856 
z
" transform="scale(0.015625)"/>
       <path id="DejaVuSans-29" d="M 513 4856 
L 1013 4856 
Q 1481 4119 1714 3412 
Q 1947 2706 1947 2009 
Q 1947 1309 1714 600 
Q 1481 -109 1013 -844 
L 513 -844 
Q 928 -128 1133 580 
Q 1338 1288 1338 2009 
Q 1338 2731 1133 3434 
Q 928 4138 513 4856 
z
" transform="scale(0.015625)"/>
      </defs>
      <use xlink:href="#DejaVuSans-48"/>
      <use xlink:href="#DejaVuSans-61" x="75.195312"/>
      <use xlink:href="#DejaVuSans-6e" x="136.474609"/>
      <use xlink:href="#DejaVuSans-64" x="199.853516"/>
      <use xlink:href="#DejaVuSans-73" x="263.330078"/>
      <use xlink:href="#DejaVuSans-68" x="315.429688"/>
      <use xlink:href="#DejaVuSans-61" x="378.808594"/>
      <use xlink:href="#DejaVuSans-6b" x="440.087891"/>
      <use xlink:href="#DejaVuSans-65" x="494.373047"/>
      <use xlink:href="#DejaVuSans-20" x="555.896484"/>
      <use xlink:href="#DejaVuSans-64" x="587.683594"/>
      <use xlink:href="#DejaVuSans-75" x="651.160156"/>
      <use xlink:href="#DejaVuSans-72" x="714.539062"/>
      <use xlink:href="#DejaVuSans-61" x="755.652344"/>
      <use xlink:href="#DejaVuSans-74" x="816.931641"/>
      <use xlink:href="#DejaVuSans-69" x="856.140625"/>
      <use xlink:href="#DejaVuSans-6f" x="883.923828"/>
      <use xlink:href="#DejaVuSans-6e" x="945.105469"/>
      <use xlink:href="#DejaVuSans-20" x="1008.484375"/>
      <use xlink:href="#DejaVuSans-28" x="1040.271484"/>
      <use xlink:href="#DejaVuSans-6d" x="1079.285156"/>
      <use xlink:href="#DejaVuSans-73" x="1176.697266"/>
      <use xlink:href="#DejaVuSans-29" x="1228.796875"/>
     </g>
    </g>
   </g>
   <g id="PolyCollection_1">
    <defs>
     <path id="m6487c60ccd" d="M 131.916036 -54.333926 
L 130.631964 -54.333926 
L 130.230623 -55.020788 
L 129.637082 -55.707651 
L 128.793157 -56.394513 
L 127.639283 -57.081376 
L 126.121907 -57.768238 
L 124.202534 -58.455101 
L 121.867137 -59.141963 
L 119.134253 -59.828826 
L 116.060016 -60.515688 
L 112.738668 -61.20255 
L 109.297798 -61.889413 
L 105.888411 -62.576275 
L 102.670899 -63.263138 
L 99.798738 -63.95 
L 97.402306 -64.636863 
L 95.575362 -65.323725 
L 94.366409 -66.010588 
L 93.776402 -66.69745 
L 93.763049 -67.384313 
L 94.250635 -68.071175 
L 95.143127 -68.758038 
L 96.337695 -69.4449 
L 97.735913 -70.131762 
L 99.250699 -70.818625 
L 100.808301 -71.505487 
L 102.345892 -72.19235 
L 103.806251 -72.879212 
L 105.131391 -73.566075 
L 106.256902 -74.252937 
L 107.108326 -74.9398 
L 107.600394 -75.626662 
L 107.639553 -76.313525 
L 107.129973 -77.000387 
L 105.983092 -77.68725 
L 104.130449 -78.374112 
L 101.538992 -79.060974 
L 98.227024 -79.747837 
L 94.277801 -80.434699 
L 89.846944 -81.121562 
L 85.159837 -81.808424 
L 80.49663 -82.495287 
L 76.165122 -83.182149 
L 72.465176 -83.869012 
L 69.651216 -84.555874 
L 67.900616 -85.242737 
L 67.2948 -85.929599 
L 67.816815 -86.616462 
L 69.364883 -87.303324 
L 71.777579 -87.990186 
L 74.863897 -88.677049 
L 78.431243 -89.363911 
L 82.306122 -90.050774 
L 86.345092 -90.737636 
L 90.436512 -91.424499 
L 94.495641 -92.111361 
L 98.45662 -92.798224 
L 102.264578 -93.485086 
L 105.870108 -94.171949 
L 109.227044 -94.858811 
L 112.293316 -95.545673 
L 115.03387 -96.232536 
L 117.424319 -96.919398 
L 119.454083 -97.606261 
L 121.128083 -98.293123 
L 122.466563 -98.979986 
L 123.503038 -99.666848 
L 124.280791 -100.353711 
L 124.84858 -101.040573 
L 125.256281 -101.727436 
L 125.551114 -102.414298 
L 125.774834 -103.101161 
L 125.962004 -103.788023 
L 126.139198 -104.474885 
L 126.324874 -105.161748 
L 126.529707 -105.84861 
L 126.757286 -106.535473 
L 127.005216 -107.222335 
L 127.266711 -107.909198 
L 127.532636 -108.59606 
L 127.793808 -109.282923 
L 128.043124 -109.969785 
L 128.277075 -110.656648 
L 128.496265 -111.34351 
L 128.704828 -112.030373 
L 128.908935 -112.717235 
L 129.114843 -113.404097 
L 129.327031 -114.09096 
L 129.546927 -114.777822 
L 129.772485 -115.464685 
L 129.998654 -116.151547 
L 130.218499 -116.83841 
L 130.42463 -117.525272 
L 130.610549 -118.212135 
L 130.771646 -118.898997 
L 130.905676 -119.58586 
L 131.012734 -120.272722 
L 131.094838 -120.959585 
L 131.155304 -121.646447 
L 131.198071 -122.333309 
L 131.349929 -122.333309 
L 131.349929 -122.333309 
L 131.392696 -121.646447 
L 131.453162 -120.959585 
L 131.535266 -120.272722 
L 131.642324 -119.58586 
L 131.776354 -118.898997 
L 131.937451 -118.212135 
L 132.12337 -117.525272 
L 132.329501 -116.83841 
L 132.549346 -116.151547 
L 132.775515 -115.464685 
L 133.001073 -114.777822 
L 133.220969 -114.09096 
L 133.433157 -113.404097 
L 133.639065 -112.717235 
L 133.843172 -112.030373 
L 134.051735 -111.34351 
L 134.270925 -110.656648 
L 134.504876 -109.969785 
L 134.754192 -109.282923 
L 135.015364 -108.59606 
L 135.281289 -107.909198 
L 135.542784 -107.222335 
L 135.790714 -106.535473 
L 136.018293 -105.84861 
L 136.223126 -105.161748 
L 136.408802 -104.474885 
L 136.585996 -103.788023 
L 136.773166 -103.101161 
L 136.996886 -102.414298 
L 137.291719 -101.727436 
L 137.69942 -101.040573 
L 138.267209 -100.353711 
L 139.044962 -99.666848 
L 140.081437 -98.979986 
L 141.419917 -98.293123 
L 143.093917 -97.606261 
L 145.123681 -96.919398 
L 147.51413 -96.232536 
L 150.254684 -95.545673 
L 153.320956 -94.858811 
L 156.677892 -94.171949 
L 160.283422 -93.485086 
L 164.09138 -92.798224 
L 168.052359 -92.111361 
L 172.111488 -91.424499 
L 176.202908 -90.737636 
L 180.241878 -90.050774 
L 184.116757 -89.363911 
L 187.684103 -88.677049 
L 190.770421 -87.990186 
L 193.183117 -87.303324 
L 194.731185 -86.616462 
L 195.2532 -85.929599 
L 194.647384 -85.242737 
L 192.896784 -84.555874 
L 190.082824 -83.869012 
L 186.382878 -83.182149 
L 182.05137 -82.495287 
L 177.388163 -81.808424 
L 172.701056 -81.121562 
L 168.270199 -80.434699 
L 164.320976 -79.747837 
L 161.009008 -79.060974 
L 158.417551 -78.374112 
L 156.564908 -77.68725 
L 155.418027 -77.000387 
L 154.908447 -76.313525 
L 154.947606 -75.626662 
L 155.439674 -74.9398 
L 156.291098 -74.252937 
L 157.416609 -73.566075 
L 158.741749 -72.879212 
L 160.202108 -72.19235 
L 161.739699 -71.505487 
L 163.297301 -70.818625 
L 164.812087 -70.131762 
L 166.210305 -69.4449 
L 167.404873 -68.758038 
L 168.297365 -68.071175 
L 168.784951 -67.384313 
L 168.771598 -66.69745 
L 168.181591 -66.010588 
L 166.972638 -65.323725 
L 165.145694 -64.636863 
L 162.749262 -63.95 
L 159.877101 -63.263138 
L 156.659589 -62.576275 
L 153.250202 -61.889413 
L 149.809332 -61.20255 
L 146.487984 -60.515688 
L 143.413747 -59.828826 
L 140.680863 -59.141963 
L 138.345466 -58.455101 
L 136.426093 -57.768238 
L 134.908717 -57.081376 
L 133.754843 -56.394513 
L 132.910918 -55.707651 
L 132.317377 -55.020788 
L 131.916036 -54.333926 
z
" style="stroke: #595959; stroke-width: 1.25"/>
    </defs>
    <g clip-path="url(#p5b9969bf71)">
     <use xlink:href="#m6487c60ccd" x="0" y="432" style="fill: #72b6a1; stroke: #595959; stroke-width: 1.25"/>
    </g>
   </g>
   <g id="PolyCollection_2">
    <defs>
     <path id="m53b23dc77f" d="M 291.647298 -55.03289 
L 290.796702 -55.03289 
L 290.436981 -55.721388 
L 289.867048 -56.409886 
L 289.030856 -57.098384 
L 287.894287 -57.786882 
L 286.46241 -58.47538 
L 284.789754 -59.163878 
L 282.978163 -59.852377 
L 281.161557 -60.540875 
L 279.482335 -61.229373 
L 278.066977 -61.917871 
L 277.007331 -62.606369 
L 276.350665 -63.294867 
L 276.098667 -63.983365 
L 276.214193 -64.671863 
L 276.633601 -65.360361 
L 277.280622 -66.048859 
L 278.075661 -66.737357 
L 278.934854 -67.425856 
L 279.757474 -68.114354 
L 280.406711 -68.802852 
L 280.693633 -69.49135 
L 280.374579 -70.179848 
L 279.168588 -70.868346 
L 276.796579 -71.556844 
L 273.039904 -72.245342 
L 267.81242 -72.93384 
L 261.23446 -73.622338 
L 253.687468 -74.310836 
L 245.818812 -74.999335 
L 238.468198 -75.687833 
L 232.510383 -76.376331 
L 228.650175 -77.064829 
L 227.2428 -77.753327 
L 228.21627 -78.441825 
L 231.130755 -79.130323 
L 235.343992 -79.818821 
L 240.203368 -80.507319 
L 245.185037 -81.195817 
L 249.943814 -81.884316 
L 254.290732 -82.572814 
L 258.143386 -83.261312 
L 261.487135 -83.94981 
L 264.358583 -84.638308 
L 266.839985 -85.326806 
L 269.047844 -86.015304 
L 271.108438 -86.703802 
L 273.126358 -87.3923 
L 275.159046 -88.080798 
L 277.207818 -88.769296 
L 279.227217 -89.457795 
L 281.146219 -90.146293 
L 282.89155 -90.834791 
L 284.405658 -91.523289 
L 285.656735 -92.211787 
L 286.641782 -92.900285 
L 287.384605 -93.588783 
L 287.929811 -94.277281 
L 288.333442 -94.965779 
L 288.651631 -95.654277 
L 288.929925 -96.342775 
L 289.196181 -97.031274 
L 289.4588 -97.719772 
L 289.710062 -98.40827 
L 289.932772 -99.096768 
L 290.107922 -99.785266 
L 290.221553 -100.473764 
L 290.269607 -101.162262 
L 290.260043 -101.85076 
L 290.21171 -102.539258 
L 290.150047 -103.227756 
L 290.100555 -103.916254 
L 290.08198 -104.604753 
L 290.101616 -105.293251 
L 290.154584 -105.981749 
L 290.227475 -106.670247 
L 290.304846 -107.358745 
L 290.375739 -108.047243 
L 290.43739 -108.735741 
L 290.494685 -109.424239 
L 290.556043 -110.112737 
L 290.628058 -110.801235 
L 290.711554 -111.489733 
L 290.800678 -112.178232 
L 290.884997 -112.86673 
L 290.953245 -113.555228 
L 290.997077 -114.243726 
L 291.013571 -114.932224 
L 291.006012 -115.620722 
L 290.98298 -116.30922 
L 290.956088 -116.997718 
L 290.936912 -117.686216 
L 290.933939 -118.374714 
L 290.95049 -119.063212 
L 290.984354 -119.751711 
L 291.02921 -120.440209 
L 291.077158 -121.128707 
L 291.121257 -121.817205 
L 291.15714 -122.505703 
L 291.18335 -123.194201 
L 291.26065 -123.194201 
L 291.26065 -123.194201 
L 291.28686 -122.505703 
L 291.322743 -121.817205 
L 291.366842 -121.128707 
L 291.41479 -120.440209 
L 291.459646 -119.751711 
L 291.49351 -119.063212 
L 291.510061 -118.374714 
L 291.507088 -117.686216 
L 291.487912 -116.997718 
L 291.46102 -116.30922 
L 291.437988 -115.620722 
L 291.430429 -114.932224 
L 291.446923 -114.243726 
L 291.490755 -113.555228 
L 291.559003 -112.86673 
L 291.643322 -112.178232 
L 291.732446 -111.489733 
L 291.815942 -110.801235 
L 291.887957 -110.112737 
L 291.949315 -109.424239 
L 292.00661 -108.735741 
L 292.068261 -108.047243 
L 292.139154 -107.358745 
L 292.216525 -106.670247 
L 292.289416 -105.981749 
L 292.342384 -105.293251 
L 292.36202 -104.604753 
L 292.343445 -103.916254 
L 292.293953 -103.227756 
L 292.23229 -102.539258 
L 292.183957 -101.85076 
L 292.174393 -101.162262 
L 292.222447 -100.473764 
L 292.336078 -99.785266 
L 292.511228 -99.096768 
L 292.733938 -98.40827 
L 292.9852 -97.719772 
L 293.247819 -97.031274 
L 293.514075 -96.342775 
L 293.792369 -95.654277 
L 294.110558 -94.965779 
L 294.514189 -94.277281 
L 295.059395 -93.588783 
L 295.802218 -92.900285 
L 296.787265 -92.211787 
L 298.038342 -91.523289 
L 299.55245 -90.834791 
L 301.297781 -90.146293 
L 303.216783 -89.457795 
L 305.236182 -88.769296 
L 307.284954 -88.080798 
L 309.317642 -87.3923 
L 311.335562 -86.703802 
L 313.396156 -86.015304 
L 315.604015 -85.326806 
L 318.085417 -84.638308 
L 320.956865 -83.94981 
L 324.300614 -83.261312 
L 328.153268 -82.572814 
L 332.500186 -81.884316 
L 337.258963 -81.195817 
L 342.240632 -80.507319 
L 347.100008 -79.818821 
L 351.313245 -79.130323 
L 354.22773 -78.441825 
L 355.2012 -77.753327 
L 353.793825 -77.064829 
L 349.933617 -76.376331 
L 343.975802 -75.687833 
L 336.625188 -74.999335 
L 328.756532 -74.310836 
L 321.20954 -73.622338 
L 314.63158 -72.93384 
L 309.404096 -72.245342 
L 305.647421 -71.556844 
L 303.275412 -70.868346 
L 302.069421 -70.179848 
L 301.750367 -69.49135 
L 302.037289 -68.802852 
L 302.686526 -68.114354 
L 303.509146 -67.425856 
L 304.368339 -66.737357 
L 305.163378 -66.048859 
L 305.810399 -65.360361 
L 306.229807 -64.671863 
L 306.345333 -63.983365 
L 306.093335 -63.294867 
L 305.436669 -62.606369 
L 304.377023 -61.917871 
L 302.961665 -61.229373 
L 301.282443 -60.540875 
L 299.465837 -59.852377 
L 297.654246 -59.163878 
L 295.98159 -58.47538 
L 294.549713 -57.786882 
L 293.413144 -57.098384 
L 292.576952 -56.409886 
L 292.007019 -55.721388 
L 291.647298 -55.03289 
z
" style="stroke: #595959; stroke-width: 1.25"/>
    </defs>
    <g clip-path="url(#p5b9969bf71)">
     <use xlink:href="#m53b23dc77f" x="0" y="432" style="fill: #e99675; stroke: #595959; stroke-width: 1.25"/>
    </g>
   </g>
   <g id="PolyCollection_3">
    <defs>
     <path id="m5116eb68eb" d="M 452.357752 -86.750036 
L 449.982248 -86.750036 
L 449.230754 -89.78987 
L 448.110861 -92.829705 
L 446.505341 -95.869539 
L 444.291581 -98.909373 
L 441.357111 -101.949208 
L 437.620145 -104.989042 
L 433.052771 -108.028876 
L 427.702794 -111.068711 
L 421.709138 -114.108545 
L 415.305691 -117.14838 
L 408.809817 -120.188214 
L 402.594551 -123.228048 
L 397.04722 -126.267883 
L 392.520894 -129.307717 
L 389.287698 -132.347551 
L 387.503415 -135.387386 
L 387.1908 -138.42722 
L 388.244842 -141.467054 
L 390.458098 -144.506889 
L 393.55963 -147.546723 
L 397.258344 -150.586557 
L 401.281465 -153.626392 
L 405.401129 -156.666226 
L 409.445941 -159.70606 
L 413.298394 -162.745895 
L 416.88219 -165.785729 
L 420.145058 -168.825563 
L 423.042482 -171.865398 
L 425.526341 -174.905232 
L 427.540382 -177.945066 
L 429.02245 -180.984901 
L 429.911897 -184.024735 
L 430.159822 -187.064569 
L 429.739649 -190.104404 
L 428.655941 -193.144238 
L 426.949931 -196.184073 
L 424.700926 -199.223907 
L 422.02337 -202.263741 
L 419.059946 -205.303576 
L 415.971595 -208.34341 
L 412.925795 -211.383244 
L 410.084685 -214.423079 
L 407.594599 -217.462913 
L 405.578201 -220.502747 
L 404.129786 -223.542582 
L 403.313556 -226.582416 
L 403.16408 -229.62225 
L 403.687914 -232.662085 
L 404.865503 -235.701919 
L 406.652925 -238.741753 
L 408.983605 -241.781588 
L 411.770491 -244.821422 
L 414.909361 -247.861256 
L 418.283709 -250.901091 
L 421.771266 -253.940925 
L 425.251741 -256.980759 
L 428.614917 -260.020594 
L 431.767996 -263.060428 
L 434.641121 -266.100262 
L 437.190244 -269.140097 
L 439.397049 -272.179931 
L 441.26615 -275.219766 
L 442.820319 -278.2596 
L 444.094744 -281.299434 
L 445.131306 -284.339269 
L 445.973616 -287.379103 
L 446.663191 -290.418937 
L 447.236807 -293.458772 
L 447.724895 -296.498606 
L 448.150803 -299.53844 
L 448.530786 -302.578275 
L 448.874646 -305.618109 
L 449.186911 -308.657943 
L 449.468359 -311.697778 
L 449.717645 -314.737612 
L 449.932728 -317.777446 
L 450.11194 -320.817281 
L 450.254614 -323.857115 
L 450.361395 -326.896949 
L 450.434343 -329.936784 
L 450.476989 -332.976618 
L 450.494358 -336.016452 
L 450.492895 -339.056287 
L 450.480187 -342.096121 
L 450.464408 -345.135956 
L 450.453492 -348.17579 
L 450.454176 -351.215624 
L 450.471121 -354.255459 
L 450.50632 -357.295293 
L 450.558968 -360.335127 
L 450.625806 -363.374962 
L 450.701872 -366.414796 
L 450.781464 -369.45463 
L 450.859105 -372.494465 
L 450.930306 -375.534299 
L 450.992026 -378.574133 
L 451.042784 -381.613968 
L 451.082489 -384.653802 
L 451.112085 -387.693636 
L 451.227915 -387.693636 
L 451.227915 -387.693636 
L 451.257511 -384.653802 
L 451.297216 -381.613968 
L 451.347974 -378.574133 
L 451.409694 -375.534299 
L 451.480895 -372.494465 
L 451.558536 -369.45463 
L 451.638128 -366.414796 
L 451.714194 -363.374962 
L 451.781032 -360.335127 
L 451.83368 -357.295293 
L 451.868879 -354.255459 
L 451.885824 -351.215624 
L 451.886508 -348.17579 
L 451.875592 -345.135956 
L 451.859813 -342.096121 
L 451.847105 -339.056287 
L 451.845642 -336.016452 
L 451.863011 -332.976618 
L 451.905657 -329.936784 
L 451.978605 -326.896949 
L 452.085386 -323.857115 
L 452.22806 -320.817281 
L 452.407272 -317.777446 
L 452.622355 -314.737612 
L 452.871641 -311.697778 
L 453.153089 -308.657943 
L 453.465354 -305.618109 
L 453.809214 -302.578275 
L 454.189197 -299.53844 
L 454.615105 -296.498606 
L 455.103193 -293.458772 
L 455.676809 -290.418937 
L 456.366384 -287.379103 
L 457.208694 -284.339269 
L 458.245256 -281.299434 
L 459.519681 -278.2596 
L 461.07385 -275.219766 
L 462.942951 -272.179931 
L 465.149756 -269.140097 
L 467.698879 -266.100262 
L 470.572004 -263.060428 
L 473.725083 -260.020594 
L 477.088259 -256.980759 
L 480.568734 -253.940925 
L 484.056291 -250.901091 
L 487.430639 -247.861256 
L 490.569509 -244.821422 
L 493.356395 -241.781588 
L 495.687075 -238.741753 
L 497.474497 -235.701919 
L 498.652086 -232.662085 
L 499.17592 -229.62225 
L 499.026444 -226.582416 
L 498.210214 -223.542582 
L 496.761799 -220.502747 
L 494.745401 -217.462913 
L 492.255315 -214.423079 
L 489.414205 -211.383244 
L 486.368405 -208.34341 
L 483.280054 -205.303576 
L 480.31663 -202.263741 
L 477.639074 -199.223907 
L 475.390069 -196.184073 
L 473.684059 -193.144238 
L 472.600351 -190.104404 
L 472.180178 -187.064569 
L 472.428103 -184.024735 
L 473.31755 -180.984901 
L 474.799618 -177.945066 
L 476.813659 -174.905232 
L 479.297518 -171.865398 
L 482.194942 -168.825563 
L 485.45781 -165.785729 
L 489.041606 -162.745895 
L 492.894059 -159.70606 
L 496.938871 -156.666226 
L 501.058535 -153.626392 
L 505.081656 -150.586557 
L 508.78037 -147.546723 
L 511.881902 -144.506889 
L 514.095158 -141.467054 
L 515.1492 -138.42722 
L 514.836585 -135.387386 
L 513.052302 -132.347551 
L 509.819106 -129.307717 
L 505.29278 -126.267883 
L 499.745449 -123.228048 
L 493.530183 -120.188214 
L 487.034309 -117.14838 
L 480.630862 -114.108545 
L 474.637206 -111.068711 
L 469.287229 -108.028876 
L 464.719855 -104.989042 
L 460.982889 -101.949208 
L 458.048419 -98.909373 
L 455.834659 -95.869539 
L 454.229139 -92.829705 
L 453.109246 -89.78987 
L 452.357752 -86.750036 
z
" style="stroke: #595959; stroke-width: 1.25"/>
    </defs>
    <g clip-path="url(#p5b9969bf71)">
     <use xlink:href="#m5116eb68eb" x="0" y="432" style="fill: #95a3c3; stroke: #595959; stroke-width: 1.25"/>
    </g>
   </g>
   <g id="PolyCollection_4">
    <defs>
     <path id="m8f8910bf31" d="M 611.898743 -55.499865 
L 610.337257 -55.499865 
L 609.838085 -56.260073 
L 609.086107 -57.020281 
L 607.993296 -57.780489 
L 606.461484 -58.540698 
L 604.390866 -59.300906 
L 601.692426 -60.061114 
L 598.303324 -60.821323 
L 594.203193 -61.581531 
L 589.428446 -62.341739 
L 584.081364 -63.101947 
L 578.331135 -63.862156 
L 572.405265 -64.622364 
L 566.571621 -65.382572 
L 561.113365 -66.14278 
L 556.30068 -66.902989 
L 552.363956 -67.663197 
L 549.472797 -68.423405 
L 547.723889 -69.183613 
L 547.1388 -69.943822 
L 547.670761 -70.70403 
L 549.217886 -71.464238 
L 551.639486 -72.224446 
L 554.772224 -72.984655 
L 558.443676 -73.744863 
L 562.482029 -74.505071 
L 566.721895 -75.26528 
L 571.007137 -76.025488 
L 575.192123 -76.785696 
L 579.14282 -77.545904 
L 582.738791 -78.306113 
L 585.876547 -79.066321 
L 588.474042 -79.826529 
L 590.475595 -80.586737 
L 591.85619 -81.346946 
L 592.624145 -82.107154 
L 592.821332 -82.867362 
L 592.520534 -83.62757 
L 591.819966 -84.387779 
L 590.835363 -85.147987 
L 589.690377 -85.908195 
L 588.506261 -86.668403 
L 587.391988 -87.428612 
L 586.435986 -88.18882 
L 585.700576 -88.949028 
L 585.219862 -89.709237 
L 585.001269 -90.469445 
L 585.030287 -91.229653 
L 585.277334 -91.989861 
L 585.705302 -92.75007 
L 586.276335 -93.510278 
L 586.956748 -94.270486 
L 587.719595 -95.030694 
L 588.545038 -95.790903 
L 589.419147 -96.551111 
L 590.331962 -97.311319 
L 591.275582 -98.071527 
L 592.242812 -98.831736 
L 593.226567 -99.591944 
L 594.219968 -100.352152 
L 595.216867 -101.11236 
L 596.212469 -101.872569 
L 597.203705 -102.632777 
L 598.189133 -103.392985 
L 599.168293 -104.153193 
L 600.140625 -104.913402 
L 601.104225 -105.67361 
L 602.054821 -106.433818 
L 602.985274 -107.194027 
L 603.885802 -107.954235 
L 604.744886 -108.714443 
L 605.550609 -109.474651 
L 606.292102 -110.23486 
L 606.960725 -110.995068 
L 607.550799 -111.755276 
L 608.059822 -112.515484 
L 608.488285 -113.275693 
L 608.839283 -114.035901 
L 609.118098 -114.796109 
L 609.331859 -115.556317 
L 609.489294 -116.316526 
L 609.600495 -117.076734 
L 609.6766 -117.836942 
L 609.729307 -118.59715 
L 609.770199 -119.357359 
L 609.809916 -120.117567 
L 609.857303 -120.877775 
L 609.91866 -121.637984 
L 609.99726 -122.398192 
L 610.093236 -123.1584 
L 610.203887 -123.918608 
L 610.32435 -124.678817 
L 610.448531 -125.439025 
L 610.570116 -126.199233 
L 610.683475 -126.959441 
L 610.784334 -127.71965 
L 610.870112 -128.479858 
L 610.939937 -129.240066 
L 610.994394 -130.000274 
L 611.035118 -130.760483 
L 611.200882 -130.760483 
L 611.200882 -130.760483 
L 611.241606 -130.000274 
L 611.296063 -129.240066 
L 611.365888 -128.479858 
L 611.451666 -127.71965 
L 611.552525 -126.959441 
L 611.665884 -126.199233 
L 611.787469 -125.439025 
L 611.91165 -124.678817 
L 612.032113 -123.918608 
L 612.142764 -123.1584 
L 612.23874 -122.398192 
L 612.31734 -121.637984 
L 612.378697 -120.877775 
L 612.426084 -120.117567 
L 612.465801 -119.357359 
L 612.506693 -118.59715 
L 612.5594 -117.836942 
L 612.635505 -117.076734 
L 612.746706 -116.316526 
L 612.904141 -115.556317 
L 613.117902 -114.796109 
L 613.396717 -114.035901 
L 613.747715 -113.275693 
L 614.176178 -112.515484 
L 614.685201 -111.755276 
L 615.275275 -110.995068 
L 615.943898 -110.23486 
L 616.685391 -109.474651 
L 617.491114 -108.714443 
L 618.350198 -107.954235 
L 619.250726 -107.194027 
L 620.181179 -106.433818 
L 621.131775 -105.67361 
L 622.095375 -104.913402 
L 623.067707 -104.153193 
L 624.046867 -103.392985 
L 625.032295 -102.632777 
L 626.023531 -101.872569 
L 627.019133 -101.11236 
L 628.016032 -100.352152 
L 629.009433 -99.591944 
L 629.993188 -98.831736 
L 630.960418 -98.071527 
L 631.904038 -97.311319 
L 632.816853 -96.551111 
L 633.690962 -95.790903 
L 634.516405 -95.030694 
L 635.279252 -94.270486 
L 635.959665 -93.510278 
L 636.530698 -92.75007 
L 636.958666 -91.989861 
L 637.205713 -91.229653 
L 637.234731 -90.469445 
L 637.016138 -89.709237 
L 636.535424 -88.949028 
L 635.800014 -88.18882 
L 634.844012 -87.428612 
L 633.729739 -86.668403 
L 632.545623 -85.908195 
L 631.400637 -85.147987 
L 630.416034 -84.387779 
L 629.715466 -83.62757 
L 629.414668 -82.867362 
L 629.611855 -82.107154 
L 630.37981 -81.346946 
L 631.760405 -80.586737 
L 633.761958 -79.826529 
L 636.359453 -79.066321 
L 639.497209 -78.306113 
L 643.09318 -77.545904 
L 647.043877 -76.785696 
L 651.228863 -76.025488 
L 655.514105 -75.26528 
L 659.753971 -74.505071 
L 663.792324 -73.744863 
L 667.463776 -72.984655 
L 670.596514 -72.224446 
L 673.018114 -71.464238 
L 674.565239 -70.70403 
L 675.0972 -69.943822 
L 674.512111 -69.183613 
L 672.763203 -68.423405 
L 669.872044 -67.663197 
L 665.93532 -66.902989 
L 661.122635 -66.14278 
L 655.664379 -65.382572 
L 649.830735 -64.622364 
L 643.904865 -63.862156 
L 638.154636 -63.101947 
L 632.807554 -62.341739 
L 628.032807 -61.581531 
L 623.932676 -60.821323 
L 620.543574 -60.061114 
L 617.845134 -59.300906 
L 615.774516 -58.540698 
L 614.242704 -57.780489 
L 613.149893 -57.020281 
L 612.397915 -56.260073 
L 611.898743 -55.499865 
z
" style="stroke: #595959; stroke-width: 1.25"/>
    </defs>
    <g clip-path="url(#p5b9969bf71)">
     <use xlink:href="#m8f8910bf31" x="0" y="432" style="fill: #db96c0; stroke: #595959; stroke-width: 1.25"/>
    </g>
   </g>
   <g id="PolyCollection_5">
    <defs>
     <path id="mbefc8dcac5" d="M 771.981759 -53.566364 
L 770.150241 -53.566364 
L 769.50549 -54.242735 
L 768.504403 -54.919106 
L 767.014762 -55.595477 
L 764.891752 -56.271848 
L 761.996071 -56.94822 
L 758.219851 -57.624591 
L 753.517324 -58.300962 
L 747.934447 -58.977333 
L 741.629791 -59.653704 
L 734.878978 -60.330075 
L 728.05747 -61.006447 
L 721.601323 -61.682818 
L 715.951392 -62.359189 
L 711.491657 -63.03556 
L 708.494781 -63.711931 
L 707.0868 -64.388302 
L 707.23812 -65.064674 
L 708.781217 -65.741045 
L 711.448935 -66.417416 
L 714.922962 -67.093787 
L 718.881129 -67.770158 
L 723.034445 -68.446529 
L 727.149105 -69.122901 
L 731.053334 -69.799272 
L 734.632594 -70.475643 
L 737.81832 -71.152014 
L 740.575179 -71.828385 
L 742.890308 -72.504757 
L 744.766 -73.181128 
L 746.215618 -73.857499 
L 747.26164 -74.53387 
L 747.934616 -75.210241 
L 748.272208 -75.886612 
L 748.318071 -76.562984 
L 748.120581 -77.239355 
L 747.731531 -77.915726 
L 747.204738 -78.592097 
L 746.59445 -79.268468 
L 745.953509 -79.944839 
L 745.331504 -80.621211 
L 744.773335 -81.297582 
L 744.318566 -81.973953 
L 744.00165 -82.650324 
L 743.852575 -83.326695 
L 743.89719 -84.003066 
L 744.156462 -84.679438 
L 744.644419 -85.355809 
L 745.365241 -86.03218 
L 746.310556 -86.708551 
L 747.458148 -87.384922 
L 748.772927 -88.061294 
L 750.210264 -88.737665 
L 751.721 -89.414036 
L 753.256925 -90.090407 
L 754.775513 -90.766778 
L 756.24302 -91.443149 
L 757.635683 -92.119521 
L 758.939267 -92.795892 
L 760.147506 -93.472263 
L 761.260046 -94.148634 
L 762.280325 -94.825005 
L 763.21365 -95.501376 
L 764.06561 -96.177748 
L 764.840918 -96.854119 
L 765.542828 -97.53049 
L 766.173202 -98.206861 
L 766.733204 -98.883232 
L 767.224388 -99.559604 
L 767.649794 -100.235975 
L 768.014619 -100.912346 
L 768.326211 -101.588717 
L 768.593349 -102.265088 
L 768.825107 -102.941459 
L 769.029708 -103.617831 
L 769.213742 -104.294202 
L 769.381934 -104.970573 
L 769.537375 -105.646944 
L 769.681984 -106.323315 
L 769.816914 -106.999686 
L 769.942766 -107.676058 
L 770.059622 -108.352429 
L 770.167049 -109.0288 
L 770.264244 -109.705171 
L 770.350386 -110.381542 
L 770.425128 -111.057913 
L 770.489033 -111.734285 
L 770.543767 -112.410656 
L 770.591909 -113.087027 
L 770.63644 -113.763398 
L 770.680061 -114.439769 
L 770.724572 -115.116141 
L 770.770532 -115.792512 
L 770.817266 -116.468883 
L 770.863205 -117.145254 
L 770.906398 -117.821625 
L 770.945045 -118.497996 
L 770.977882 -119.174368 
L 771.004363 -119.850739 
L 771.02464 -120.52711 
L 771.10736 -120.52711 
L 771.10736 -120.52711 
L 771.127637 -119.850739 
L 771.154118 -119.174368 
L 771.186955 -118.497996 
L 771.225602 -117.821625 
L 771.268795 -117.145254 
L 771.314734 -116.468883 
L 771.361468 -115.792512 
L 771.407428 -115.116141 
L 771.451939 -114.439769 
L 771.49556 -113.763398 
L 771.540091 -113.087027 
L 771.588233 -112.410656 
L 771.642967 -111.734285 
L 771.706872 -111.057913 
L 771.781614 -110.381542 
L 771.867756 -109.705171 
L 771.964951 -109.0288 
L 772.072378 -108.352429 
L 772.189234 -107.676058 
L 772.315086 -106.999686 
L 772.450016 -106.323315 
L 772.594625 -105.646944 
L 772.750066 -104.970573 
L 772.918258 -104.294202 
L 773.102292 -103.617831 
L 773.306893 -102.941459 
L 773.538651 -102.265088 
L 773.805789 -101.588717 
L 774.117381 -100.912346 
L 774.482206 -100.235975 
L 774.907612 -99.559604 
L 775.398796 -98.883232 
L 775.958798 -98.206861 
L 776.589172 -97.53049 
L 777.291082 -96.854119 
L 778.06639 -96.177748 
L 778.91835 -95.501376 
L 779.851675 -94.825005 
L 780.871954 -94.148634 
L 781.984494 -93.472263 
L 783.192733 -92.795892 
L 784.496317 -92.119521 
L 785.88898 -91.443149 
L 787.356487 -90.766778 
L 788.875075 -90.090407 
L 790.411 -89.414036 
L 791.921736 -88.737665 
L 793.359073 -88.061294 
L 794.673852 -87.384922 
L 795.821444 -86.708551 
L 796.766759 -86.03218 
L 797.487581 -85.355809 
L 797.975538 -84.679438 
L 798.23481 -84.003066 
L 798.279425 -83.326695 
L 798.13035 -82.650324 
L 797.813434 -81.973953 
L 797.358665 -81.297582 
L 796.800496 -80.621211 
L 796.178491 -79.944839 
L 795.53755 -79.268468 
L 794.927262 -78.592097 
L 794.400469 -77.915726 
L 794.011419 -77.239355 
L 793.813929 -76.562984 
L 793.859792 -75.886612 
L 794.197384 -75.210241 
L 794.87036 -74.53387 
L 795.916382 -73.857499 
L 797.366 -73.181128 
L 799.241692 -72.504757 
L 801.556821 -71.828385 
L 804.31368 -71.152014 
L 807.499406 -70.475643 
L 811.078666 -69.799272 
L 814.982895 -69.122901 
L 819.097555 -68.446529 
L 823.250871 -67.770158 
L 827.209038 -67.093787 
L 830.683065 -66.417416 
L 833.350783 -65.741045 
L 834.89388 -65.064674 
L 835.0452 -64.388302 
L 833.637219 -63.711931 
L 830.640343 -63.03556 
L 826.180608 -62.359189 
L 820.530677 -61.682818 
L 814.07453 -61.006447 
L 807.253022 -60.330075 
L 800.502209 -59.653704 
L 794.197553 -58.977333 
L 788.614676 -58.300962 
L 783.912149 -57.624591 
L 780.135929 -56.94822 
L 777.240248 -56.271848 
L 775.117238 -55.595477 
L 773.627597 -54.919106 
L 772.62651 -54.242735 
L 771.981759 -53.566364 
z
" style="stroke: #595959; stroke-width: 1.25"/>
    </defs>
    <g clip-path="url(#p5b9969bf71)">
     <use xlink:href="#mbefc8dcac5" x="0" y="432" style="fill: #a2c865; stroke: #595959; stroke-width: 1.25"/>
    </g>
   </g>
   <g id="line2d_6">
    <path d="M 131.274 361.40974 
L 131.274 370.924859 
" clip-path="url(#p5b9969bf71)" style="fill: none; stroke: #000000"/>
   </g>
   <g id="line2d_7">
    <path d="M 131.274 343.763873 
L 131.274 318.435718 
" clip-path="url(#p5b9969bf71)" style="fill: none; stroke: #000000"/>
   </g>
   <g id="line2d_8">
    <path d="M 125.27595 370.924859 
L 137.27205 370.924859 
" clip-path="url(#p5b9969bf71)" style="fill: none; stroke: #000000; stroke-linecap: round"/>
   </g>
   <g id="line2d_9">
    <path d="M 125.27595 318.435718 
L 137.27205 318.435718 
" clip-path="url(#p5b9969bf71)" style="fill: none; stroke: #000000; stroke-linecap: round"/>
   </g>
   <g id="line2d_10">
    <path d="M 291.222 356.905657 
L 291.222 366.635256 
" clip-path="url(#p5b9969bf71)" style="fill: none; stroke: #000000"/>
   </g>
   <g id="line2d_11">
    <path d="M 291.222 350.256772 
L 291.222 340.897639 
" clip-path="url(#p5b9969bf71)" style="fill: none; stroke: #000000"/>
   </g>
   <g id="line2d_12">
    <path d="M 285.22395 366.635256 
L 297.22005 366.635256 
" clip-path="url(#p5b9969bf71)" style="fill: none; stroke: #000000; stroke-linecap: round"/>
   </g>
   <g id="line2d_13">
    <path d="M 285.22395 340.897639 
L 297.22005 340.897639 
" clip-path="url(#p5b9969bf71)" style="fill: none; stroke: #000000; stroke-linecap: round"/>
   </g>
   <g id="line2d_14">
    <path d="M 451.17 294.257956 
L 451.17 315.471992 
" clip-path="url(#p5b9969bf71)" style="fill: none; stroke: #000000"/>
   </g>
   <g id="line2d_15">
    <path d="M 451.17 204.00081 
L 451.17 74.084336 
" clip-path="url(#p5b9969bf71)" style="fill: none; stroke: #000000"/>
   </g>
   <g id="line2d_16">
    <path d="M 445.17195 315.471992 
L 457.16805 315.471992 
" clip-path="url(#p5b9969bf71)" style="fill: none; stroke: #000000; stroke-linecap: round"/>
   </g>
   <g id="line2d_17">
    <path d="M 445.17195 74.084336 
L 457.16805 74.084336 
" clip-path="url(#p5b9969bf71)" style="fill: none; stroke: #000000; stroke-linecap: round"/>
   </g>
   <g id="line2d_18">
    <path d="M 611.118 362.833108 
L 611.118 368.663069 
" clip-path="url(#p5b9969bf71)" style="fill: none; stroke: #000000"/>
   </g>
   <g id="line2d_19">
    <path d="M 611.118 342.048032 
L 611.118 311.572353 
" clip-path="url(#p5b9969bf71)" style="fill: none; stroke: #000000"/>
   </g>
   <g id="line2d_20">
    <path d="M 605.11995 368.663069 
L 617.11605 368.663069 
" clip-path="url(#p5b9969bf71)" style="fill: none; stroke: #000000; stroke-linecap: round"/>
   </g>
   <g id="line2d_21">
    <path d="M 605.11995 311.572353 
L 617.11605 311.572353 
" clip-path="url(#p5b9969bf71)" style="fill: none; stroke: #000000; stroke-linecap: round"/>
   </g>
   <g id="line2d_22">
    <path d="M 771.066 367.805148 
L 771.066 371.938765 
" clip-path="url(#p5b9969bf71)" style="fill: none; stroke: #000000"/>
   </g>
   <g id="line2d_23">
    <path d="M 771.066 350.100787 
L 771.066 323.583241 
" clip-path="url(#p5b9969bf71)" style="fill: none; stroke: #000000"/>
   </g>
   <g id="line2d_24">
    <path d="M 765.06795 371.938765 
L 777.06405 371.938765 
" clip-path="url(#p5b9969bf71)" style="fill: none; stroke: #000000; stroke-linecap: round"/>
   </g>
   <g id="line2d_25">
    <path d="M 765.06795 323.583241 
L 777.06405 323.583241 
" clip-path="url(#p5b9969bf71)" style="fill: none; stroke: #000000; stroke-linecap: round"/>
   </g>
   <g id="line2d_26">
    <path d="M 119.2779 348.072974 
L 143.2701 348.072974 
" clip-path="url(#p5b9969bf71)" style="fill: none; stroke: #ff0000; stroke-width: 2"/>
   </g>
   <g id="line2d_27">
    <path d="M 279.2259 354.39039 
L 303.2181 354.39039 
" clip-path="url(#p5b9969bf71)" style="fill: none; stroke: #ff0000; stroke-width: 2"/>
   </g>
   <g id="line2d_28">
    <path d="M 439.1739 258.498266 
L 463.1661 258.498266 
" clip-path="url(#p5b9969bf71)" style="fill: none; stroke: #ff0000; stroke-width: 2"/>
   </g>
   <g id="line2d_29">
    <path d="M 599.1219 357.510101 
L 623.1141 357.510101 
" clip-path="url(#p5b9969bf71)" style="fill: none; stroke: #ff0000; stroke-width: 2"/>
   </g>
   <g id="line2d_30">
    <path d="M 759.0699 362.501639 
L 783.0621 362.501639 
" clip-path="url(#p5b9969bf71)" style="fill: none; stroke: #ff0000; stroke-width: 2"/>
   </g>
   <g id="patch_3">
    <path d="M 51.3 395.14 
L 51.3 27.6 
" style="fill: none; stroke: #cccccc; stroke-width: 1.25; stroke-linejoin: miter; stroke-linecap: square"/>
   </g>
   <g id="patch_4">
    <path d="M 851.04 395.14 
L 851.04 27.6 
" style="fill: none; stroke: #cccccc; stroke-width: 1.25; stroke-linejoin: miter; stroke-linecap: square"/>
   </g>
   <g id="patch_5">
    <path d="M 51.3 395.14 
L 851.04 395.14 
" style="fill: none; stroke: #cccccc; stroke-width: 1.25; stroke-linejoin: miter; stroke-linecap: square"/>
   </g>
   <g id="patch_6">
    <path d="M 51.3 27.6 
L 851.04 27.6 
" style="fill: none; stroke: #cccccc; stroke-width: 1.25; stroke-linejoin: miter; stroke-linecap: square"/>
   </g>
   <g id="text_12">
    <!-- Handshake duration on TLS with mldsa44 signature algorithm — ideal conditions -->
    <g style="fill: #262626" transform="translate(208.127812 21.6) scale(0.12 -0.12)">
     <defs>
      <path id="DejaVuSans-54" d="M -19 4666 
L 3928 4666 
L 3928 4134 
L 2272 4134 
L 2272 0 
L 1638 0 
L 1638 4134 
L -19 4134 
L -19 4666 
z
" transform="scale(0.015625)"/>
      <path id="DejaVuSans-4c" d="M 628 4666 
L 1259 4666 
L 1259 531 
L 3531 531 
L 3531 0 
L 628 0 
L 628 4666 
z
" transform="scale(0.015625)"/>
      <path id="DejaVuSans-53" d="M 3425 4513 
L 3425 3897 
Q 3066 4069 2747 4153 
Q 2428 4238 2131 4238 
Q 1616 4238 1336 4038 
Q 1056 3838 1056 3469 
Q 1056 3159 1242 3001 
Q 1428 2844 1947 2747 
L 2328 2669 
Q 3034 2534 3370 2195 
Q 3706 1856 3706 1288 
Q 3706 609 3251 259 
Q 2797 -91 1919 -91 
Q 1588 -91 1214 -16 
Q 841 59 441 206 
L 441 856 
Q 825 641 1194 531 
Q 1563 422 1919 422 
Q 2459 422 2753 634 
Q 3047 847 3047 1241 
Q 3047 1584 2836 1778 
Q 2625 1972 2144 2069 
L 1759 2144 
Q 1053 2284 737 2584 
Q 422 2884 422 3419 
Q 422 4038 858 4394 
Q 1294 4750 2059 4750 
Q 2388 4750 2728 4690 
Q 3069 4631 3425 4513 
z
" transform="scale(0.015625)"/>
      <path id="DejaVuSans-77" d="M 269 3500 
L 844 3500 
L 1563 769 
L 2278 3500 
L 2956 3500 
L 3675 769 
L 4391 3500 
L 4966 3500 
L 4050 0 
L 3372 0 
L 2619 2869 
L 1863 0 
L 1184 0 
L 269 3500 
z
" transform="scale(0.015625)"/>
      <path id="DejaVuSans-67" d="M 2906 1791 
Q 2906 2416 2648 2759 
Q 2391 3103 1925 3103 
Q 1463 3103 1205 2759 
Q 947 2416 947 1791 
Q 947 1169 1205 825 
Q 1463 481 1925 481 
Q 2391 481 2648 825 
Q 2906 1169 2906 1791 
z
M 3481 434 
Q 3481 -459 3084 -895 
Q 2688 -1331 1869 -1331 
Q 1566 -1331 1297 -1286 
Q 1028 -1241 775 -1147 
L 775 -588 
Q 1028 -725 1275 -790 
Q 1522 -856 1778 -856 
Q 2344 -856 2625 -561 
Q 2906 -266 2906 331 
L 2906 616 
Q 2728 306 2450 153 
Q 2172 0 1784 0 
Q 1141 0 747 490 
Q 353 981 353 1791 
Q 353 2603 747 3093 
Q 1141 3584 1784 3584 
Q 2172 3584 2450 3431 
Q 2728 3278 2906 2969 
L 2906 3500 
L 3481 3500 
L 3481 434 
z
" transform="scale(0.015625)"/>
      <path id="DejaVuSans-2014" d="M 313 1978 
L 6088 1978 
L 6088 1528 
L 313 1528 
L 313 1978 
z
" transform="scale(0.015625)"/>
      <path id="DejaVuSans-63" d="M 3122 3366 
L 3122 2828 
Q 2878 2963 2633 3030 
Q 2388 3097 2138 3097 
Q 1578 3097 1268 2742 
Q 959 2388 959 1747 
Q 959 1106 1268 751 
Q 1578 397 2138 397 
Q 2388 397 2633 464 
Q 2878 531 3122 666 
L 3122 134 
Q 2881 22 2623 -34 
Q 2366 -91 2075 -91 
Q 1284 -91 818 406 
Q 353 903 353 1747 
Q 353 2603 823 3093 
Q 1294 3584 2113 3584 
Q 2378 3584 2631 3529 
Q 2884 3475 3122 3366 
z
" transform="scale(0.015625)"/>
     </defs>
     <use xlink:href="#DejaVuSans-48"/>
     <use xlink:href="#DejaVuSans-61" x="75.195312"/>
     <use xlink:href="#DejaVuSans-6e" x="136.474609"/>
     <use xlink:href="#DejaVuSans-64" x="199.853516"/>
     <use xlink:href="#DejaVuSans-73" x="263.330078"/>
     <use xlink:href="#DejaVuSans-68" x="315.429688"/>
     <use xlink:href="#DejaVuSans-61" x="378.808594"/>
     <use xlink:href="#DejaVuSans-6b" x="440.087891"/>
     <use xlink:href="#DejaVuSans-65" x="494.373047"/>
     <use xlink:href="#DejaVuSans-20" x="555.896484"/>
     <use xlink:href="#DejaVuSans-64" x="587.683594"/>
     <use xlink:href="#DejaVuSans-75" x="651.160156"/>
     <use xlink:href="#DejaVuSans-72" x="714.539062"/>
     <use xlink:href="#DejaVuSans-61" x="755.652344"/>
     <use xlink:href="#DejaVuSans-74" x="816.931641"/>
     <use xlink:href="#DejaVuSans-69" x="856.140625"/>
     <use xlink:href="#DejaVuSans-6f" x="883.923828"/>
     <use xlink:href="#DejaVuSans-6e" x="945.105469"/>
     <use xlink:href="#DejaVuSans-20" x="1008.484375"/>
     <use xlink:href="#DejaVuSans-6f" x="1040.271484"/>
     <use xlink:href="#DejaVuSans-6e" x="1101.453125"/>
     <use xlink:href="#DejaVuSans-20" x="1164.832031"/>
     <use xlink:href="#DejaVuSans-54" x="1196.619141"/>
     <use xlink:href="#DejaVuSans-4c" x="1257.703125"/>
     <use xlink:href="#DejaVuSans-53" x="1313.416016"/>
     <use xlink:href="#DejaVuSans-20" x="1376.892578"/>
     <use xlink:href="#DejaVuSans-77" x="1408.679688"/>
     <use xlink:href="#DejaVuSans-69" x="1490.466797"/>
     <use xlink:href="#DejaVuSans-74" x="1518.25"/>
     <use xlink:href="#DejaVuSans-68" x="1557.458984"/>
     <use xlink:href="#DejaVuSans-20" x="1620.837891"/>
     <use xlink:href="#DejaVuSans-6d" x="1652.625"/>
     <use xlink:href="#DejaVuSans-6c" x="1750.037109"/>
     <use xlink:href="#DejaVuSans-64" x="1777.820312"/>
     <use xlink:href="#DejaVuSans-73" x="1841.296875"/>
     <use xlink:href="#DejaVuSans-61" x="1893.396484"/>
     <use xlink:href="#DejaVuSans-34" x="1954.675781"/>
     <use xlink:href="#DejaVuSans-34" x="2018.298828"/>
     <use xlink:href="#DejaVuSans-20" x="2081.921875"/>
     <use xlink:href="#DejaVuSans-73" x="2113.708984"/>
     <use xlink:href="#DejaVuSans-69" x="2165.808594"/>
     <use xlink:href="#DejaVuSans-67" x="2193.591797"/>
     <use xlink:href="#DejaVuSans-6e" x="2257.068359"/>
     <use xlink:href="#DejaVuSans-61" x="2320.447266"/>
     <use xlink:href="#DejaVuSans-74" x="2381.726562"/>
     <use xlink:href="#DejaVuSans-75" x="2420.935547"/>
     <use xlink:href="#DejaVuSans-72" x="2484.314453"/>
     <use xlink:href="#DejaVuSans-65" x="2523.177734"/>
     <use xlink:href="#DejaVuSans-20" x="2584.701172"/>
     <use xlink:href="#DejaVuSans-61" x="2616.488281"/>
     <use xlink:href="#DejaVuSans-6c" x="2677.767578"/>
     <use xlink:href="#DejaVuSans-67" x="2705.550781"/>
     <use xlink:href="#DejaVuSans-6f" x="2769.027344"/>
     <use xlink:href="#DejaVuSans-72" x="2830.208984"/>
     <use xlink:href="#DejaVuSans-69" x="2871.322266"/>
     <use xlink:href="#DejaVuSans-74" x="2899.105469"/>
     <use xlink:href="#DejaVuSans-68" x="2938.314453"/>
     <use xlink:href="#DejaVuSans-6d" x="3001.693359"/>
     <use xlink:href="#DejaVuSans-20" x="3099.105469"/>
     <use xlink:href="#DejaVuSans-2014" x="3130.892578"/>
     <use xlink:href="#DejaVuSans-20" x="3230.892578"/>
     <use xlink:href="#DejaVuSans-69" x="3262.679688"/>
     <use xlink:href="#DejaVuSans-64" x="3290.462891"/>
     <use xlink:href="#DejaVuSans-65" x="3353.939453"/>
     <use xlink:href="#DejaVuSans-61" x="3415.462891"/>
     <use xlink:href="#DejaVuSans-6c" x="3476.742188"/>
     <use xlink:href="#DejaVuSans-20" x="3504.525391"/>
     <use xlink:href="#DejaVuSans-63" x="3536.3125"/>
     <use xlink:href="#DejaVuSans-6f" x="3591.292969"/>
     <use xlink:href="#DejaVuSans-6e" x="3652.474609"/>
     <use xlink:href="#DejaVuSans-64" x="3715.853516"/>
     <use xlink:href="#DejaVuSans-69" x="3779.330078"/>
     <use xlink:href="#DejaVuSans-74" x="3807.113281"/>
     <use xlink:href="#DejaVuSans-69" x="3846.322266"/>
     <use xlink:href="#DejaVuSans-6f" x="3874.105469"/>
     <use xlink:href="#DejaVuSans-6e" x="3935.287109"/>
     <use xlink:href="#DejaVuSans-73" x="3998.666016"/>
    </g>
   </g>
  </g>
 </g>
 <defs>
  <clipPath id="p5b9969bf71">
   <rect x="51.3" y="27.6" width="799.74" height="367.54"/>
  </clipPath>
 </defs>
</svg>
