<?xml version="1.0" encoding="utf-8" standalone="no"?>
<!DOCTYPE svg PUBLIC "-//W3C//DTD SVG 1.1//EN"
  "http://www.w3.org/Graphics/SVG/1.1/DTD/svg11.dtd">
<svg xmlns:xlink="http://www.w3.org/1999/xlink" width="864pt" height="432pt" viewBox="0 0 864 432" xmlns="http://www.w3.org/2000/svg" version="1.1">
 <metadata>
  <rdf:RDF xmlns:dc="http://purl.org/dc/elements/1.1/" xmlns:cc="http://creativecommons.org/ns#" xmlns:rdf="http://www.w3.org/1999/02/22-rdf-syntax-ns#">
   <cc:Work>
    <dc:type rdf:resource="http://purl.org/dc/dcmitype/StillImage"/>
    <dc:date>2026-03-21T13:58:44.261355</dc:date>
    <dc:format>image/svg+xml</dc:format>
    <dc:creator>
     <cc:Agent>
      <dc:title>Matplotlib v3.6.3, https://matplotlib.org/</dc:title>
     </cc:Agent>
    </dc:creator>
   </cc:Work>
  </rdf:RDF>
 </metadata>
 <defs>
  <style type="text/css">*{stroke-linejoin: round; stroke-linecap: butt}</style>
 </defs>
 <g id="figure_1">
  <g id="patch_1">
   <path d="M 0 432 
L 864 432 
L 864 0 
L 0 0 
z
" style="fill: #ffffff"/>
  </g>
  <g id="axes_1">
   <g id="patch_2">
    <path d="M 58.32 395.14 
L 851.04 395.14 
L 851.04 27.6 
L 58.32 27.6 
z
" style="fill: #ffffff"/>
   </g>
   <g id="matplotlib.axis_1">
    <g id="xtick_1">
     <g id="text_1">
      <!-- P-384 -->
      <g style="fill: #262626" transform="translate(117.642 415.277812) scale(0.14 -0.14)">
       <defs>
        <path id="DejaVuSans-50" d="M 1259 4147 
L 1259 2394 
L 2053 2394 
Q 2494 2394 2734 2622 
Q 2975 2850 2975 3272 
Q 2975 3691 2734 3919 
Q 2494 4147 2053 4147 
L 1259 4147 
z
M 628 4666 
L 2053 4666 
Q 2838 4666 3239 4311 
Q 3641 3956 3641 3272 
Q 3641 2581 3239 2228 
Q 2838 1875 2053 1875 
L 1259 1875 
L 1259 0 
L 628 0 
L 628 4666 
z
" transform="scale(0.015625)"/>
        <path id="DejaVuSans-2d" d="M 313 2009 
L 1997 2009 
L 1997 1497 
L 313 1497 
L 313 2009 
z
" transform="scale(0.015625)"/>
        <path id="DejaVuSans-33" d="M 2597 2516 
Q 3050 2419 3304 2112 
Q 3559 1806 3559 1356 
Q 3559 666 3084 287 
Q 2609 -91 1734 -91 
Q 1441 -91 1130 -33 
Q 819 25 488 141 
L 488 750 
Q 750 597 1062 519 
Q 1375 441 1716 441 
Q 2309 441 2620 675 
Q 2931 909 2931 1356 
Q 2931 1769 2642 2001 
Q 2353 2234 1838 2234 
L 1294 2234 
L 1294 2753 
L 1863 2753 
Q 2328 2753 2575 2939 
Q 2822 3125 2822 3475 
Q 2822 3834 2567 4026 
Q 2313 4219 1838 4219 
Q 1578 4219 1281 4162 
Q 984 4106 628 3988 
L 628 4550 
Q 988 4650 1302 4700 
Q 1616 4750 1894 4750 
Q 2613 4750 3031 4423 
Q 3450 4097 3450 3541 
Q 3450 3153 3228 2886 
Q 3006 2619 2597 2516 
z
" transform="scale(0.015625)"/>
        <path id="DejaVuSans-38" d="M 2034 2216 
Q 1584 2216 1326 1975 
Q 1069 1734 1069 1313 
Q 1069 891 1326 650 
Q 1584 409 2034 409 
Q 2484 409 2743 651 
Q 3003 894 3003 1313 
Q 3003 1734 2745 1975 
Q 2488 2216 2034 2216 
z
M 1403 2484 
Q 997 2584 770 2862 
Q 544 3141 544 3541 
Q 544 4100 942 4425 
Q 1341 4750 2034 4750 
Q 2731 4750 3128 4425 
Q 3525 4100 3525 3541 
Q 3525 3141 3298 2862 
Q 3072 2584 2669 2484 
Q 3125 2378 3379 2068 
Q 3634 1759 3634 1313 
Q 3634 634 3220 271 
Q 2806 -91 2034 -91 
Q 1263 -91 848 271 
Q 434 634 434 1313 
Q 434 1759 690 2068 
Q 947 2378 1403 2484 
z
M 1172 3481 
Q 1172 3119 1398 2916 
Q 1625 2713 2034 2713 
Q 2441 2713 2670 2916 
Q 2900 3119 2900 3481 
Q 2900 3844 2670 4047 
Q 2441 4250 2034 4250 
Q 1625 4250 1398 4047 
Q 1172 3844 1172 3481 
z
" transform="scale(0.015625)"/>
        <path id="DejaVuSans-34" d="M 2419 4116 
L 825 1625 
L 2419 1625 
L 2419 4116 
z
M 2253 4666 
L 3047 4666 
L 3047 1625 
L 3713 1625 
L 3713 1100 
L 3047 1100 
L 3047 0 
L 2419 0 
L 2419 1100 
L 313 1100 
L 313 1709 
L 2253 4666 
z
" transform="scale(0.015625)"/>
       </defs>
       <use xlink:href="#DejaVuSans-50"/>
       <use xlink:href="#DejaVuSans-2d" x="58.052734"/>
       <use xlink:href="#DejaVuSans-33" x="94.136719"/>
       <use xlink:href="#DejaVuSans-38" x="157.759766"/>
       <use xlink:href="#DejaVuSans-34" x="221.382812"/>
      </g>
     </g>
    </g>
    <g id="xtick_2">
     <g id="text_2">
      <!-- x448 -->
      <g style="fill: #262626" transform="translate(278.631625 415.277812) scale(0.14 -0.14)">
       <defs>
        <path id="DejaVuSans-78" d="M 3513 3500 
L 2247 1797 
L 3578 0 
L 2900 0 
L 1881 1375 
L 863 0 
L 184 0 
L 1544 1831 
L 300 3500 
L 978 3500 
L 1906 2253 
L 2834 3500 
L 3513 3500 
z
" transform="scale(0.015625)"/>
       </defs>
       <use xlink:href="#DejaVuSans-78"/>
       <use xlink:href="#DejaVuSans-34" x="59.179688"/>
       <use xlink:href="#DejaVuSans-34" x="122.802734"/>
       <use xlink:href="#DejaVuSans-38" x="186.425781"/>
      </g>
     </g>
    </g>
    <g id="xtick_3">
     <g id="text_3">
      <!-- p384_mlkem768 -->
      <g style="fill: #262626" transform="translate(396.325156 415.277812) scale(0.14 -0.14)">
       <defs>
        <path id="DejaVuSans-70" d="M 1159 525 
L 1159 -1331 
L 581 -1331 
L 581 3500 
L 1159 3500 
L 1159 2969 
Q 1341 3281 1617 3432 
Q 1894 3584 2278 3584 
Q 2916 3584 3314 3078 
Q 3713 2572 3713 1747 
Q 3713 922 3314 415 
Q 2916 -91 2278 -91 
Q 1894 -91 1617 61 
Q 1341 213 1159 525 
z
M 3116 1747 
Q 3116 2381 2855 2742 
Q 2594 3103 2138 3103 
Q 1681 3103 1420 2742 
Q 1159 2381 1159 1747 
Q 1159 1113 1420 752 
Q 1681 391 2138 391 
Q 2594 391 2855 752 
Q 3116 1113 3116 1747 
z
" transform="scale(0.015625)"/>
        <path id="DejaVuSans-5f" d="M 3263 -1063 
L 3263 -1509 
L -63 -1509 
L -63 -1063 
L 3263 -1063 
z
" transform="scale(0.015625)"/>
        <path id="DejaVuSans-6d" d="M 3328 2828 
Q 3544 3216 3844 3400 
Q 4144 3584 4550 3584 
Q 5097 3584 5394 3201 
Q 5691 2819 5691 2113 
L 5691 0 
L 5113 0 
L 5113 2094 
Q 5113 2597 4934 2840 
Q 4756 3084 4391 3084 
Q 3944 3084 3684 2787 
Q 3425 2491 3425 1978 
L 3425 0 
L 2847 0 
L 2847 2094 
Q 2847 2600 2669 2842 
Q 2491 3084 2119 3084 
Q 1678 3084 1418 2786 
Q 1159 2488 1159 1978 
L 1159 0 
L 581 0 
L 581 3500 
L 1159 3500 
L 1159 2956 
Q 1356 3278 1631 3431 
Q 1906 3584 2284 3584 
Q 2666 3584 2933 3390 
Q 3200 3197 3328 2828 
z
" transform="scale(0.015625)"/>
        <path id="DejaVuSans-6c" d="M 603 4863 
L 1178 4863 
L 1178 0 
L 603 0 
L 603 4863 
z
" transform="scale(0.015625)"/>
        <path id="DejaVuSans-6b" d="M 581 4863 
L 1159 4863 
L 1159 1991 
L 2875 3500 
L 3609 3500 
L 1753 1863 
L 3688 0 
L 2938 0 
L 1159 1709 
L 1159 0 
L 581 0 
L 581 4863 
z
" transform="scale(0.015625)"/>
        <path id="DejaVuSans-65" d="M 3597 1894 
L 3597 1613 
L 953 1613 
Q 991 1019 1311 708 
Q 1631 397 2203 397 
Q 2534 397 2845 478 
Q 3156 559 3463 722 
L 3463 178 
Q 3153 47 2828 -22 
Q 2503 -91 2169 -91 
Q 1331 -91 842 396 
Q 353 884 353 1716 
Q 353 2575 817 3079 
Q 1281 3584 2069 3584 
Q 2775 3584 3186 3129 
Q 3597 2675 3597 1894 
z
M 3022 2063 
Q 3016 2534 2758 2815 
Q 2500 3097 2075 3097 
Q 1594 3097 1305 2825 
Q 1016 2553 972 2059 
L 3022 2063 
z
" transform="scale(0.015625)"/>
        <path id="DejaVuSans-37" d="M 525 4666 
L 3525 4666 
L 3525 4397 
L 1831 0 
L 1172 0 
L 2766 4134 
L 525 4134 
L 525 4666 
z
" transform="scale(0.015625)"/>
        <path id="DejaVuSans-36" d="M 2113 2584 
Q 1688 2584 1439 2293 
Q 1191 2003 1191 1497 
Q 1191 994 1439 701 
Q 1688 409 2113 409 
Q 2538 409 2786 701 
Q 3034 994 3034 1497 
Q 3034 2003 2786 2293 
Q 2538 2584 2113 2584 
z
M 3366 4563 
L 3366 3988 
Q 3128 4100 2886 4159 
Q 2644 4219 2406 4219 
Q 1781 4219 1451 3797 
Q 1122 3375 1075 2522 
Q 1259 2794 1537 2939 
Q 1816 3084 2150 3084 
Q 2853 3084 3261 2657 
Q 3669 2231 3669 1497 
Q 3669 778 3244 343 
Q 2819 -91 2113 -91 
Q 1303 -91 875 529 
Q 447 1150 447 2328 
Q 447 3434 972 4092 
Q 1497 4750 2381 4750 
Q 2619 4750 2861 4703 
Q 3103 4656 3366 4563 
z
" transform="scale(0.015625)"/>
       </defs>
       <use xlink:href="#DejaVuSans-70"/>
       <use xlink:href="#DejaVuSans-33" x="63.476562"/>
       <use xlink:href="#DejaVuSans-38" x="127.099609"/>
       <use xlink:href="#DejaVuSans-34" x="190.722656"/>
       <use xlink:href="#DejaVuSans-5f" x="254.345703"/>
       <use xlink:href="#DejaVuSans-6d" x="304.345703"/>
       <use xlink:href="#DejaVuSans-6c" x="401.757812"/>
       <use xlink:href="#DejaVuSans-6b" x="429.541016"/>
       <use xlink:href="#DejaVuSans-65" x="483.826172"/>
       <use xlink:href="#DejaVuSans-6d" x="545.349609"/>
       <use xlink:href="#DejaVuSans-37" x="642.761719"/>
       <use xlink:href="#DejaVuSans-36" x="706.384766"/>
       <use xlink:href="#DejaVuSans-38" x="770.007812"/>
      </g>
     </g>
    </g>
    <g id="xtick_4">
     <g id="text_4">
      <!-- x448_mlkem768 -->
      <g style="fill: #262626" transform="translate(555.169937 415.277812) scale(0.14 -0.14)">
       <use xlink:href="#DejaVuSans-78"/>
       <use xlink:href="#DejaVuSans-34" x="59.179688"/>
       <use xlink:href="#DejaVuSans-34" x="122.802734"/>
       <use xlink:href="#DejaVuSans-38" x="186.425781"/>
       <use xlink:href="#DejaVuSans-5f" x="250.048828"/>
       <use xlink:href="#DejaVuSans-6d" x="300.048828"/>
       <use xlink:href="#DejaVuSans-6c" x="397.460938"/>
       <use xlink:href="#DejaVuSans-6b" x="425.244141"/>
       <use xlink:href="#DejaVuSans-65" x="479.529297"/>
       <use xlink:href="#DejaVuSans-6d" x="541.052734"/>
       <use xlink:href="#DejaVuSans-37" x="638.464844"/>
       <use xlink:href="#DejaVuSans-36" x="702.087891"/>
       <use xlink:href="#DejaVuSans-38" x="765.710938"/>
      </g>
     </g>
    </g>
    <g id="xtick_5">
     <g id="text_5">
      <!-- mlkem768 -->
      <g style="fill: #262626" transform="translate(734.718312 415.277812) scale(0.14 -0.14)">
       <use xlink:href="#DejaVuSans-6d"/>
       <use xlink:href="#DejaVuSans-6c" x="97.412109"/>
       <use xlink:href="#DejaVuSans-6b" x="125.195312"/>
       <use xlink:href="#DejaVuSans-65" x="179.480469"/>
       <use xlink:href="#DejaVuSans-6d" x="241.003906"/>
       <use xlink:href="#DejaVuSans-37" x="338.416016"/>
       <use xlink:href="#DejaVuSans-36" x="402.039062"/>
       <use xlink:href="#DejaVuSans-38" x="465.662109"/>
      </g>
     </g>
    </g>
   </g>
   <g id="matplotlib.axis_2">
    <g id="ytick_1">
     <g id="line2d_1">
      <path d="M 58.32 387.507561 
L 851.04 387.507561 
" clip-path="url(#p3d840985fc)" style="fill: none; stroke: #cccccc; stroke-linecap: round"/>
     </g>
     <g id="text_6">
      <!-- 800 -->
      <g style="fill: #262626" transform="translate(27.82375 391.686701) scale(0.11 -0.11)">
       <defs>
        <path id="DejaVuSans-30" d="M 2034 4250 
Q 1547 4250 1301 3770 
Q 1056 3291 1056 2328 
Q 1056 1369 1301 889 
Q 1547 409 2034 409 
Q 2525 409 2770 889 
Q 3016 1369 3016 2328 
Q 3016 3291 2770 3770 
Q 2525 4250 2034 4250 
z
M 2034 4750 
Q 2819 4750 3233 4129 
Q 3647 3509 3647 2328 
Q 3647 1150 3233 529 
Q 2819 -91 2034 -91 
Q 1250 -91 836 529 
Q 422 1150 422 2328 
Q 422 3509 836 4129 
Q 1250 4750 2034 4750 
z
" transform="scale(0.015625)"/>
       </defs>
       <use xlink:href="#DejaVuSans-38"/>
       <use xlink:href="#DejaVuSans-30" x="63.623047"/>
       <use xlink:href="#DejaVuSans-30" x="127.246094"/>
      </g>
     </g>
    </g>
    <g id="ytick_2">
     <g id="line2d_2">
      <path d="M 58.32 322.470071 
L 851.04 322.470071 
" clip-path="url(#p3d840985fc)" style="fill: none; stroke: #cccccc; stroke-linecap: round"/>
     </g>
     <g id="text_7">
      <!-- 810 -->
      <g style="fill: #262626" transform="translate(27.82375 326.649212) scale(0.11 -0.11)">
       <defs>
        <path id="DejaVuSans-31" d="M 794 531 
L 1825 531 
L 1825 4091 
L 703 3866 
L 703 4441 
L 1819 4666 
L 2450 4666 
L 2450 531 
L 3481 531 
L 3481 0 
L 794 0 
L 794 531 
z
" transform="scale(0.015625)"/>
       </defs>
       <use xlink:href="#DejaVuSans-38"/>
       <use xlink:href="#DejaVuSans-31" x="63.623047"/>
       <use xlink:href="#DejaVuSans-30" x="127.246094"/>
      </g>
     </g>
    </g>
    <g id="ytick_3">
     <g id="line2d_3">
      <path d="M 58.32 257.432582 
L 851.04 257.432582 
" clip-path="url(#p3d840985fc)" style="fill: none; stroke: #cccccc; stroke-linecap: round"/>
     </g>
     <g id="text_8">
      <!-- 820 -->
      <g style="fill: #262626" transform="translate(27.82375 261.611722) scale(0.11 -0.11)">
       <defs>
        <path id="DejaVuSans-32" d="M 1228 531 
L 3431 531 
L 3431 0 
L 469 0 
L 469 531 
Q 828 903 1448 1529 
Q 2069 2156 2228 2338 
Q 2531 2678 2651 2914 
Q 2772 3150 2772 3378 
Q 2772 3750 2511 3984 
Q 2250 4219 1831 4219 
Q 1534 4219 1204 4116 
Q 875 4013 500 3803 
L 500 4441 
Q 881 4594 1212 4672 
Q 1544 4750 1819 4750 
Q 2544 4750 2975 4387 
Q 3406 4025 3406 3419 
Q 3406 3131 3298 2873 
Q 3191 2616 2906 2266 
Q 2828 2175 2409 1742 
Q 1991 1309 1228 531 
z
" transform="scale(0.015625)"/>
       </defs>
       <use xlink:href="#DejaVuSans-38"/>
       <use xlink:href="#DejaVuSans-32" x="63.623047"/>
       <use xlink:href="#DejaVuSans-30" x="127.246094"/>
      </g>
     </g>
    </g>
    <g id="ytick_4">
     <g id="line2d_4">
      <path d="M 58.32 192.395092 
L 851.04 192.395092 
" clip-path="url(#p3d840985fc)" style="fill: none; stroke: #cccccc; stroke-linecap: round"/>
     </g>
     <g id="text_9">
      <!-- 830 -->
      <g style="fill: #262626" transform="translate(27.82375 196.574233) scale(0.11 -0.11)">
       <use xlink:href="#DejaVuSans-38"/>
       <use xlink:href="#DejaVuSans-33" x="63.623047"/>
       <use xlink:href="#DejaVuSans-30" x="127.246094"/>
      </g>
     </g>
    </g>
    <g id="ytick_5">
     <g id="line2d_5">
      <path d="M 58.32 127.357603 
L 851.04 127.357603 
" clip-path="url(#p3d840985fc)" style="fill: none; stroke: #cccccc; stroke-linecap: round"/>
     </g>
     <g id="text_10">
      <!-- 840 -->
      <g style="fill: #262626" transform="translate(27.82375 131.536744) scale(0.11 -0.11)">
       <use xlink:href="#DejaVuSans-38"/>
       <use xlink:href="#DejaVuSans-34" x="63.623047"/>
       <use xlink:href="#DejaVuSans-30" x="127.246094"/>
      </g>
     </g>
    </g>
    <g id="ytick_6">
     <g id="line2d_6">
      <path d="M 58.32 62.320114 
L 851.04 62.320114 
" clip-path="url(#p3d840985fc)" style="fill: none; stroke: #cccccc; stroke-linecap: round"/>
     </g>
     <g id="text_11">
      <!-- 850 -->
      <g style="fill: #262626" transform="translate(27.82375 66.499254) scale(0.11 -0.11)">
       <defs>
        <path id="DejaVuSans-35" d="M 691 4666 
L 3169 4666 
L 3169 4134 
L 1269 4134 
L 1269 2991 
Q 1406 3038 1543 3061 
Q 1681 3084 1819 3084 
Q 2600 3084 3056 2656 
Q 3513 2228 3513 1497 
Q 3513 744 3044 326 
Q 2575 -91 1722 -91 
Q 1428 -91 1123 -41 
Q 819 9 494 109 
L 494 744 
Q 775 591 1075 516 
Q 1375 441 1709 441 
Q 2250 441 2565 725 
Q 2881 1009 2881 1497 
Q 2881 1984 2565 2268 
Q 2250 2553 1709 2553 
Q 1456 2553 1204 2497 
Q 953 2441 691 2322 
L 691 4666 
z
" transform="scale(0.015625)"/>
       </defs>
       <use xlink:href="#DejaVuSans-38"/>
       <use xlink:href="#DejaVuSans-35" x="63.623047"/>
       <use xlink:href="#DejaVuSans-30" x="127.246094"/>
      </g>
     </g>
    </g>
    <g id="text_12">
     <!-- Handshake duration (ms) -->
     <g style="fill: #262626" transform="translate(21.328125 287.437813) rotate(-90) scale(0.12 -0.12)">
      <defs>
       <path id="DejaVuSans-48" d="M 628 4666 
L 1259 4666 
L 1259 2753 
L 3553 2753 
L 3553 4666 
L 4184 4666 
L 4184 0 
L 3553 0 
L 3553 2222 
L 1259 2222 
L 1259 0 
L 628 0 
L 628 4666 
z
" transform="scale(0.015625)"/>
       <path id="DejaVuSans-61" d="M 2194 1759 
Q 1497 1759 1228 1600 
Q 959 1441 959 1056 
Q 959 750 1161 570 
Q 1363 391 1709 391 
Q 2188 391 2477 730 
Q 2766 1069 2766 1631 
L 2766 1759 
L 2194 1759 
z
M 3341 1997 
L 3341 0 
L 2766 0 
L 2766 531 
Q 2569 213 2275 61 
Q 1981 -91 1556 -91 
Q 1019 -91 701 211 
Q 384 513 384 1019 
Q 384 1609 779 1909 
Q 1175 2209 1959 2209 
L 2766 2209 
L 2766 2266 
Q 2766 2663 2505 2880 
Q 2244 3097 1772 3097 
Q 1472 3097 1187 3025 
Q 903 2953 641 2809 
L 641 3341 
Q 956 3463 1253 3523 
Q 1550 3584 1831 3584 
Q 2591 3584 2966 3190 
Q 3341 2797 3341 1997 
z
" transform="scale(0.015625)"/>
       <path id="DejaVuSans-6e" d="M 3513 2113 
L 3513 0 
L 2938 0 
L 2938 2094 
Q 2938 2591 2744 2837 
Q 2550 3084 2163 3084 
Q 1697 3084 1428 2787 
Q 1159 2491 1159 1978 
L 1159 0 
L 581 0 
L 581 3500 
L 1159 3500 
L 1159 2956 
Q 1366 3272 1645 3428 
Q 1925 3584 2291 3584 
Q 2894 3584 3203 3211 
Q 3513 2838 3513 2113 
z
" transform="scale(0.015625)"/>
       <path id="DejaVuSans-64" d="M 2906 2969 
L 2906 4863 
L 3481 4863 
L 3481 0 
L 2906 0 
L 2906 525 
Q 2725 213 2448 61 
Q 2172 -91 1784 -91 
Q 1150 -91 751 415 
Q 353 922 353 1747 
Q 353 2572 751 3078 
Q 1150 3584 1784 3584 
Q 2172 3584 2448 3432 
Q 2725 3281 2906 2969 
z
M 947 1747 
Q 947 1113 1208 752 
Q 1469 391 1925 391 
Q 2381 391 2643 752 
Q 2906 1113 2906 1747 
Q 2906 2381 2643 2742 
Q 2381 3103 1925 3103 
Q 1469 3103 1208 2742 
Q 947 2381 947 1747 
z
" transform="scale(0.015625)"/>
       <path id="DejaVuSans-73" d="M 2834 3397 
L 2834 2853 
Q 2591 2978 2328 3040 
Q 2066 3103 1784 3103 
Q 1356 3103 1142 2972 
Q 928 2841 928 2578 
Q 928 2378 1081 2264 
Q 1234 2150 1697 2047 
L 1894 2003 
Q 2506 1872 2764 1633 
Q 3022 1394 3022 966 
Q 3022 478 2636 193 
Q 2250 -91 1575 -91 
Q 1294 -91 989 -36 
Q 684 19 347 128 
L 347 722 
Q 666 556 975 473 
Q 1284 391 1588 391 
Q 1994 391 2212 530 
Q 2431 669 2431 922 
Q 2431 1156 2273 1281 
Q 2116 1406 1581 1522 
L 1381 1569 
Q 847 1681 609 1914 
Q 372 2147 372 2553 
Q 372 3047 722 3315 
Q 1072 3584 1716 3584 
Q 2034 3584 2315 3537 
Q 2597 3491 2834 3397 
z
" transform="scale(0.015625)"/>
       <path id="DejaVuSans-68" d="M 3513 2113 
L 3513 0 
L 2938 0 
L 2938 2094 
Q 2938 2591 2744 2837 
Q 2550 3084 2163 3084 
Q 1697 3084 1428 2787 
Q 1159 2491 1159 1978 
L 1159 0 
L 581 0 
L 581 4863 
L 1159 4863 
L 1159 2956 
Q 1366 3272 1645 3428 
Q 1925 3584 2291 3584 
Q 2894 3584 3203 3211 
Q 3513 2838 3513 2113 
z
" transform="scale(0.015625)"/>
       <path id="DejaVuSans-20" transform="scale(0.015625)"/>
       <path id="DejaVuSans-75" d="M 544 1381 
L 544 3500 
L 1119 3500 
L 1119 1403 
Q 1119 906 1312 657 
Q 1506 409 1894 409 
Q 2359 409 2629 706 
Q 2900 1003 2900 1516 
L 2900 3500 
L 3475 3500 
L 3475 0 
L 2900 0 
L 2900 538 
Q 2691 219 2414 64 
Q 2138 -91 1772 -91 
Q 1169 -91 856 284 
Q 544 659 544 1381 
z
M 1991 3584 
L 1991 3584 
z
" transform="scale(0.015625)"/>
       <path id="DejaVuSans-72" d="M 2631 2963 
Q 2534 3019 2420 3045 
Q 2306 3072 2169 3072 
Q 1681 3072 1420 2755 
Q 1159 2438 1159 1844 
L 1159 0 
L 581 0 
L 581 3500 
L 1159 3500 
L 1159 2956 
Q 1341 3275 1631 3429 
Q 1922 3584 2338 3584 
Q 2397 3584 2469 3576 
Q 2541 3569 2628 3553 
L 2631 2963 
z
" transform="scale(0.015625)"/>
       <path id="DejaVuSans-74" d="M 1172 4494 
L 1172 3500 
L 2356 3500 
L 2356 3053 
L 1172 3053 
L 1172 1153 
Q 1172 725 1289 603 
Q 1406 481 1766 481 
L 2356 481 
L 2356 0 
L 1766 0 
Q 1100 0 847 248 
Q 594 497 594 1153 
L 594 3053 
L 172 3053 
L 172 3500 
L 594 3500 
L 594 4494 
L 1172 4494 
z
" transform="scale(0.015625)"/>
       <path id="DejaVuSans-69" d="M 603 3500 
L 1178 3500 
L 1178 0 
L 603 0 
L 603 3500 
z
M 603 4863 
L 1178 4863 
L 1178 4134 
L 603 4134 
L 603 4863 
z
" transform="scale(0.015625)"/>
       <path id="DejaVuSans-6f" d="M 1959 3097 
Q 1497 3097 1228 2736 
Q 959 2375 959 1747 
Q 959 1119 1226 758 
Q 1494 397 1959 397 
Q 2419 397 2687 759 
Q 2956 1122 2956 1747 
Q 2956 2369 2687 2733 
Q 2419 3097 1959 3097 
z
M 1959 3584 
Q 2709 3584 3137 3096 
Q 3566 2609 3566 1747 
Q 3566 888 3137 398 
Q 2709 -91 1959 -91 
Q 1206 -91 779 398 
Q 353 888 353 1747 
Q 353 2609 779 3096 
Q 1206 3584 1959 3584 
z
" transform="scale(0.015625)"/>
       <path id="DejaVuSans-28" d="M 1984 4856 
Q 1566 4138 1362 3434 
Q 1159 2731 1159 2009 
Q 1159 1288 1364 580 
Q 1569 -128 1984 -844 
L 1484 -844 
Q 1016 -109 783 600 
Q 550 1309 550 2009 
Q 550 2706 781 3412 
Q 1013 4119 1484 4856 
L 1984 4856 
z
" transform="scale(0.015625)"/>
       <path id="DejaVuSans-29" d="M 513 4856 
L 1013 4856 
Q 1481 4119 1714 3412 
Q 1947 2706 1947 2009 
Q 1947 1309 1714 600 
Q 1481 -109 1013 -844 
L 513 -844 
Q 928 -128 1133 580 
Q 1338 1288 1338 2009 
Q 1338 2731 1133 3434 
Q 928 4138 513 4856 
z
" transform="scale(0.015625)"/>
      </defs>
      <use xlink:href="#DejaVuSans-48"/>
      <use xlink:href="#DejaVuSans-61" x="75.195312"/>
      <use xlink:href="#DejaVuSans-6e" x="136.474609"/>
      <use xlink:href="#DejaVuSans-64" x="199.853516"/>
      <use xlink:href="#DejaVuSans-73" x="263.330078"/>
      <use xlink:href="#DejaVuSans-68" x="315.429688"/>
      <use xlink:href="#DejaVuSans-61" x="378.808594"/>
      <use xlink:href="#DejaVuSans-6b" x="440.087891"/>
      <use xlink:href="#DejaVuSans-65" x="494.373047"/>
      <use xlink:href="#DejaVuSans-20" x="555.896484"/>
      <use xlink:href="#DejaVuSans-64" x="587.683594"/>
      <use xlink:href="#DejaVuSans-75" x="651.160156"/>
      <use xlink:href="#DejaVuSans-72" x="714.539062"/>
      <use xlink:href="#DejaVuSans-61" x="755.652344"/>
      <use xlink:href="#DejaVuSans-74" x="816.931641"/>
      <use xlink:href="#DejaVuSans-69" x="856.140625"/>
      <use xlink:href="#DejaVuSans-6f" x="883.923828"/>
      <use xlink:href="#DejaVuSans-6e" x="945.105469"/>
      <use xlink:href="#DejaVuSans-20" x="1008.484375"/>
      <use xlink:href="#DejaVuSans-28" x="1040.271484"/>
      <use xlink:href="#DejaVuSans-6d" x="1079.285156"/>
      <use xlink:href="#DejaVuSans-73" x="1176.697266"/>
      <use xlink:href="#DejaVuSans-29" x="1228.796875"/>
     </g>
    </g>
   </g>
   <g id="PolyCollection_1">
    <defs>
     <path id="mbbe967593b" d="M 137.883757 -75.757978 
L 137.300243 -75.757978 
L 137.083239 -77.484125 
L 136.757837 -79.210271 
L 136.303771 -80.936417 
L 135.71417 -82.662563 
L 135.001834 -84.388709 
L 134.201426 -86.114855 
L 133.365986 -87.841002 
L 132.558249 -89.567148 
L 131.839255 -91.293294 
L 131.257454 -93.01944 
L 130.840644 -94.745586 
L 130.591558 -96.471733 
L 130.486849 -98.197879 
L 130.479137 -99.924025 
L 130.502317 -101.650171 
L 130.48036 -103.376317 
L 130.338854 -105.102463 
L 130.016899 -106.82861 
L 129.475715 -108.554756 
L 128.700556 -110.280902 
L 127.694726 -112.007048 
L 126.467878 -113.733194 
L 125.023651 -115.45934 
L 123.351816 -117.185487 
L 121.426915 -118.911633 
L 119.210668 -120.637779 
L 116.653118 -122.363925 
L 113.690662 -124.090071 
L 110.246479 -125.816218 
L 106.24491 -127.542364 
L 101.648975 -129.26851 
L 96.517224 -130.994656 
L 91.058291 -132.720802 
L 85.650413 -134.446948 
L 80.7994 -136.173095 
L 77.033343 -137.899241 
L 74.764924 -139.625387 
L 74.1744 -141.351533 
L 75.163725 -143.077679 
L 77.403294 -144.803826 
L 80.451536 -146.529972 
L 83.895462 -148.256118 
L 87.454028 -149.982264 
L 91.007864 -151.70841 
L 94.555836 -153.434556 
L 98.131383 -155.160703 
L 101.724436 -156.886849 
L 105.244429 -158.612995 
L 108.535033 -160.339141 
L 111.425795 -162.065287 
L 113.791886 -163.791433 
L 115.594863 -165.51758 
L 116.89068 -167.243726 
L 117.807523 -168.969872 
L 118.507225 -170.696018 
L 119.146394 -172.422164 
L 119.848518 -174.148311 
L 120.690787 -175.874457 
L 121.703426 -177.600603 
L 122.876903 -179.326749 
L 124.172731 -181.052895 
L 125.535041 -182.779041 
L 126.9015 -184.505188 
L 128.212964 -186.231334 
L 129.421589 -187.95748 
L 130.496936 -189.683626 
L 131.429178 -191.409772 
L 132.228305 -193.135918 
L 132.918851 -194.862065 
L 133.531168 -196.588211 
L 134.091952 -198.314357 
L 134.617389 -200.040503 
L 135.111259 -201.766649 
L 135.567993 -203.492796 
L 135.978463 -205.218942 
L 136.335373 -206.945088 
L 136.636081 -208.671234 
L 136.882486 -210.39738 
L 137.079175 -212.123526 
L 137.231405 -213.849673 
L 137.343877 -215.575819 
L 137.42041 -217.301965 
L 137.464102 -219.028111 
L 137.477686 -220.754257 
L 137.464044 -222.480404 
L 137.426983 -224.20655 
L 137.372208 -225.932696 
L 137.308009 -227.658842 
L 137.245076 -229.384988 
L 137.195021 -231.111134 
L 137.167858 -232.837281 
L 137.169341 -234.563427 
L 137.199317 -236.289573 
L 137.251895 -238.015719 
L 137.317411 -239.741865 
L 137.385345 -241.468011 
L 137.447023 -243.194158 
L 137.497192 -244.920304 
L 137.534207 -246.64645 
L 137.649793 -246.64645 
L 137.649793 -246.64645 
L 137.686808 -244.920304 
L 137.736977 -243.194158 
L 137.798655 -241.468011 
L 137.866589 -239.741865 
L 137.932105 -238.015719 
L 137.984683 -236.289573 
L 138.014659 -234.563427 
L 138.016142 -232.837281 
L 137.988979 -231.111134 
L 137.938924 -229.384988 
L 137.875991 -227.658842 
L 137.811792 -225.932696 
L 137.757017 -224.20655 
L 137.719956 -222.480404 
L 137.706314 -220.754257 
L 137.719898 -219.028111 
L 137.76359 -217.301965 
L 137.840123 -215.575819 
L 137.952595 -213.849673 
L 138.104825 -212.123526 
L 138.301514 -210.39738 
L 138.547919 -208.671234 
L 138.848627 -206.945088 
L 139.205537 -205.218942 
L 139.616007 -203.492796 
L 140.072741 -201.766649 
L 140.566611 -200.040503 
L 141.092048 -198.314357 
L 141.652832 -196.588211 
L 142.265149 -194.862065 
L 142.955695 -193.135918 
L 143.754822 -191.409772 
L 144.687064 -189.683626 
L 145.762411 -187.95748 
L 146.971036 -186.231334 
L 148.2825 -184.505188 
L 149.648959 -182.779041 
L 151.011269 -181.052895 
L 152.307097 -179.326749 
L 153.480574 -177.600603 
L 154.493213 -175.874457 
L 155.335482 -174.148311 
L 156.037606 -172.422164 
L 156.676775 -170.696018 
L 157.376477 -168.969872 
L 158.29332 -167.243726 
L 159.589137 -165.51758 
L 161.392114 -163.791433 
L 163.758205 -162.065287 
L 166.648967 -160.339141 
L 169.939571 -158.612995 
L 173.459564 -156.886849 
L 177.052617 -155.160703 
L 180.628164 -153.434556 
L 184.176136 -151.70841 
L 187.729972 -149.982264 
L 191.288538 -148.256118 
L 194.732464 -146.529972 
L 197.780706 -144.803826 
L 200.020275 -143.077679 
L 201.0096 -141.351533 
L 200.419076 -139.625387 
L 198.150657 -137.899241 
L 194.3846 -136.173095 
L 189.533587 -134.446948 
L 184.125709 -132.720802 
L 178.666776 -130.994656 
L 173.535025 -129.26851 
L 168.93909 -127.542364 
L 164.937521 -125.816218 
L 161.493338 -124.090071 
L 158.530882 -122.363925 
L 155.973332 -120.637779 
L 153.757085 -118.911633 
L 151.832184 -117.185487 
L 150.160349 -115.45934 
L 148.716122 -113.733194 
L 147.489274 -112.007048 
L 146.483444 -110.280902 
L 145.708285 -108.554756 
L 145.167101 -106.82861 
L 144.845146 -105.102463 
L 144.70364 -103.376317 
L 144.681683 -101.650171 
L 144.704863 -99.924025 
L 144.697151 -98.197879 
L 144.592442 -96.471733 
L 144.343356 -94.745586 
L 143.926546 -93.01944 
L 143.344745 -91.293294 
L 142.625751 -89.567148 
L 141.818014 -87.841002 
L 140.982574 -86.114855 
L 140.182166 -84.388709 
L 139.46983 -82.662563 
L 138.880229 -80.936417 
L 138.426163 -79.210271 
L 138.100761 -77.484125 
L 137.883757 -75.757978 
z
" style="stroke: #595959; stroke-width: 1.25"/>
    </defs>
    <g clip-path="url(#p3d840985fc)">
     <use xlink:href="#mbbe967593b" x="0" y="432" style="fill: #72b6a1; stroke: #595959; stroke-width: 1.25"/>
    </g>
   </g>
   <g id="PolyCollection_2">
    <defs>
     <path id="m02a68d6d86" d="M 296.198284 -59.241404 
L 296.073716 -59.241404 
L 296.03203 -59.848715 
L 295.971139 -60.456025 
L 295.886934 -61.063336 
L 295.776258 -61.670646 
L 295.637363 -62.277956 
L 295.470119 -62.885267 
L 295.276007 -63.492577 
L 295.057989 -64.099888 
L 294.820318 -64.707198 
L 294.568192 -65.314508 
L 294.307104 -65.921819 
L 294.041828 -66.529129 
L 293.775267 -67.13644 
L 293.507626 -67.74375 
L 293.23639 -68.35106 
L 292.957204 -68.958371 
L 292.665263 -69.565681 
L 292.356451 -70.172992 
L 292.027584 -70.780302 
L 291.675648 -71.387613 
L 291.296655 -71.994923 
L 290.88517 -72.602233 
L 290.435329 -73.209544 
L 289.943266 -73.816854 
L 289.409661 -74.424165 
L 288.840495 -75.031475 
L 288.244626 -75.638785 
L 287.628561 -76.246096 
L 286.990887 -76.853406 
L 286.319832 -77.460717 
L 285.596419 -78.068027 
L 284.802845 -78.675337 
L 283.932734 -79.282648 
L 282.998514 -79.889958 
L 282.032406 -80.497269 
L 281.080421 -81.104579 
L 280.191673 -81.71189 
L 279.406353 -82.3192 
L 278.744762 -82.92651 
L 278.198009 -83.533821 
L 277.719987 -84.141131 
L 277.221028 -84.748442 
L 276.565536 -85.355752 
L 275.57751 -85.963062 
L 274.057813 -86.570373 
L 271.814797 -87.177683 
L 268.705891 -87.784994 
L 264.683151 -88.392304 
L 259.831765 -88.999614 
L 254.388815 -89.606925 
L 248.731722 -90.214235 
L 243.332364 -90.821546 
L 238.682766 -91.428856 
L 235.208281 -92.036166 
L 233.190152 -92.643477 
L 232.7184 -93.250787 
L 233.687691 -93.858098 
L 235.836027 -94.465408 
L 238.813322 -95.072719 
L 242.258791 -95.680029 
L 245.865411 -96.287339 
L 249.416544 -96.89465 
L 252.791119 -97.50196 
L 255.944913 -98.109271 
L 258.881927 -98.716581 
L 261.629447 -99.323891 
L 264.224159 -99.931202 
L 266.708493 -100.538512 
L 269.130529 -101.145823 
L 271.540088 -101.753133 
L 273.977779 -102.360443 
L 276.459854 -102.967754 
L 278.966077 -103.575064 
L 281.437791 -104.182375 
L 283.789219 -104.789685 
L 285.928948 -105.396996 
L 287.783974 -106.004306 
L 289.317666 -106.611616 
L 290.53588 -107.218927 
L 291.480422 -107.826237 
L 292.213708 -108.433548 
L 292.800876 -109.040858 
L 293.295284 -109.648168 
L 293.730974 -110.255479 
L 294.122637 -110.862789 
L 294.471175 -111.4701 
L 294.771631 -112.07741 
L 295.020328 -112.68472 
L 295.219036 -113.292031 
L 295.37549 -113.899341 
L 295.501032 -114.506652 
L 295.607029 -115.113962 
L 295.701832 -115.721273 
L 295.789408 -116.328583 
L 295.869827 -116.935893 
L 295.94096 -117.543204 
L 296.000415 -118.150514 
L 296.046924 -118.757825 
L 296.080831 -119.365135 
L 296.191169 -119.365135 
L 296.191169 -119.365135 
L 296.225076 -118.757825 
L 296.271585 -118.150514 
L 296.33104 -117.543204 
L 296.402173 -116.935893 
L 296.482592 -116.328583 
L 296.570168 -115.721273 
L 296.664971 -115.113962 
L 296.770968 -114.506652 
L 296.89651 -113.899341 
L 297.052964 -113.292031 
L 297.251672 -112.68472 
L 297.500369 -112.07741 
L 297.800825 -111.4701 
L 298.149363 -110.862789 
L 298.541026 -110.255479 
L 298.976716 -109.648168 
L 299.471124 -109.040858 
L 300.058292 -108.433548 
L 300.791578 -107.826237 
L 301.73612 -107.218927 
L 302.954334 -106.611616 
L 304.488026 -106.004306 
L 306.343052 -105.396996 
L 308.482781 -104.789685 
L 310.834209 -104.182375 
L 313.305923 -103.575064 
L 315.812146 -102.967754 
L 318.294221 -102.360443 
L 320.731912 -101.753133 
L 323.141471 -101.145823 
L 325.563507 -100.538512 
L 328.047841 -99.931202 
L 330.642553 -99.323891 
L 333.390073 -98.716581 
L 336.327087 -98.109271 
L 339.480881 -97.50196 
L 342.855456 -96.89465 
L 346.406589 -96.287339 
L 350.013209 -95.680029 
L 353.458678 -95.072719 
L 356.435973 -94.465408 
L 358.584309 -93.858098 
L 359.5536 -93.250787 
L 359.081848 -92.643477 
L 357.063719 -92.036166 
L 353.589234 -91.428856 
L 348.939636 -90.821546 
L 343.540278 -90.214235 
L 337.883185 -89.606925 
L 332.440235 -88.999614 
L 327.588849 -88.392304 
L 323.566109 -87.784994 
L 320.457203 -87.177683 
L 318.214187 -86.570373 
L 316.69449 -85.963062 
L 315.706464 -85.355752 
L 315.050972 -84.748442 
L 314.552013 -84.141131 
L 314.073991 -83.533821 
L 313.527238 -82.92651 
L 312.865647 -82.3192 
L 312.080327 -81.71189 
L 311.191579 -81.104579 
L 310.239594 -80.497269 
L 309.273486 -79.889958 
L 308.339266 -79.282648 
L 307.469155 -78.675337 
L 306.675581 -78.068027 
L 305.952168 -77.460717 
L 305.281113 -76.853406 
L 304.643439 -76.246096 
L 304.027374 -75.638785 
L 303.431505 -75.031475 
L 302.862339 -74.424165 
L 302.328734 -73.816854 
L 301.836671 -73.209544 
L 301.38683 -72.602233 
L 300.975345 -71.994923 
L 300.596352 -71.387613 
L 300.244416 -70.780302 
L 299.915549 -70.172992 
L 299.606737 -69.565681 
L 299.314796 -68.958371 
L 299.03561 -68.35106 
L 298.764374 -67.74375 
L 298.496733 -67.13644 
L 298.230172 -66.529129 
L 297.964896 -65.921819 
L 297.703808 -65.314508 
L 297.451682 -64.707198 
L 297.214011 -64.099888 
L 296.995993 -63.492577 
L 296.801881 -62.885267 
L 296.634637 -62.277956 
L 296.495742 -61.670646 
L 296.385066 -61.063336 
L 296.300861 -60.456025 
L 296.23997 -59.848715 
L 296.198284 -59.241404 
z
" style="stroke: #595959; stroke-width: 1.25"/>
    </defs>
    <g clip-path="url(#p3d840985fc)">
     <use xlink:href="#m02a68d6d86" x="0" y="432" style="fill: #e99675; stroke: #595959; stroke-width: 1.25"/>
    </g>
   </g>
   <g id="PolyCollection_3">
    <defs>
     <path id="mc0e6fbf678" d="M 454.997229 -100.81654 
L 454.362771 -100.81654 
L 454.186023 -103.714288 
L 453.934276 -106.612037 
L 453.587947 -109.509785 
L 453.127589 -112.407534 
L 452.535992 -115.305282 
L 451.800403 -118.203031 
L 450.914372 -121.100779 
L 449.878665 -123.998528 
L 448.700749 -126.896276 
L 447.392563 -129.794024 
L 445.966656 -132.691773 
L 444.431137 -135.589521 
L 442.784305 -138.48727 
L 441.010014 -141.385018 
L 439.075004 -144.282767 
L 436.929287 -147.180515 
L 434.510445 -150.078264 
L 431.752236 -152.976012 
L 428.597229 -155.87376 
L 425.012307 -158.771509 
L 421.004869 -161.669257 
L 416.63666 -164.567006 
L 412.031633 -167.464754 
L 407.374544 -170.362503 
L 402.898264 -173.260251 
L 398.859975 -176.158 
L 395.50916 -179.055748 
L 393.05273 -181.953497 
L 391.624055 -184.851245 
L 391.2624 -187.748993 
L 391.907313 -190.646742 
L 393.409223 -193.54449 
L 395.553904 -196.442239 
L 398.095521 -199.339987 
L 400.791462 -202.237736 
L 403.432496 -205.135484 
L 405.863548 -208.033233 
L 407.993008 -210.930981 
L 409.791125 -213.828729 
L 411.279955 -216.726478 
L 412.518335 -219.624226 
L 413.585299 -222.521975 
L 414.564703 -225.419723 
L 415.532812 -228.317472 
L 416.549692 -231.21522 
L 417.654518 -234.112969 
L 418.864444 -237.010717 
L 420.176406 -239.908465 
L 421.571038 -242.806214 
L 423.017757 -245.703962 
L 424.480081 -248.601711 
L 425.920276 -251.499459 
L 427.302756 -254.397208 
L 428.595967 -257.294956 
L 429.772936 -260.192705 
L 430.810952 -263.090453 
L 431.690988 -265.988202 
L 432.397417 -268.88595 
L 432.918354 -271.783698 
L 433.246697 -274.681447 
L 433.381718 -277.579195 
L 433.330933 -280.476944 
L 433.111951 -283.374692 
L 432.753985 -286.272441 
L 432.298736 -289.170189 
L 431.800261 -292.067938 
L 431.323439 -294.965686 
L 430.940656 -297.863434 
L 430.726551 -300.761183 
L 430.751051 -303.658931 
L 431.071434 -306.55668 
L 431.724654 -309.454428 
L 432.721403 -312.352177 
L 434.043285 -315.249925 
L 435.643972 -318.147674 
L 437.454364 -321.045422 
L 439.390925 -323.94317 
L 441.365654 -326.840919 
L 443.295871 -329.738667 
L 445.112177 -332.636416 
L 446.763506 -335.534164 
L 448.218925 -338.431913 
L 449.466526 -341.329661 
L 450.510241 -344.22741 
L 451.365563 -347.125158 
L 452.055084 -350.022907 
L 452.604515 -352.920655 
L 453.039546 -355.818403 
L 453.383679 -358.716152 
L 453.656969 -361.6139 
L 453.875545 -364.511649 
L 454.051711 -367.409397 
L 454.194459 -370.307146 
L 454.310176 -373.204894 
L 454.403419 -376.102643 
L 454.477597 -379.000391 
L 454.535494 -381.898139 
L 454.579597 -384.795888 
L 454.612249 -387.693636 
L 454.747751 -387.693636 
L 454.747751 -387.693636 
L 454.780403 -384.795888 
L 454.824506 -381.898139 
L 454.882403 -379.000391 
L 454.956581 -376.102643 
L 455.049824 -373.204894 
L 455.165541 -370.307146 
L 455.308289 -367.409397 
L 455.484455 -364.511649 
L 455.703031 -361.6139 
L 455.976321 -358.716152 
L 456.320454 -355.818403 
L 456.755485 -352.920655 
L 457.304916 -350.022907 
L 457.994437 -347.125158 
L 458.849759 -344.22741 
L 459.893474 -341.329661 
L 461.141075 -338.431913 
L 462.596494 -335.534164 
L 464.247823 -332.636416 
L 466.064129 -329.738667 
L 467.994346 -326.840919 
L 469.969075 -323.94317 
L 471.905636 -321.045422 
L 473.716028 -318.147674 
L 475.316715 -315.249925 
L 476.638597 -312.352177 
L 477.635346 -309.454428 
L 478.288566 -306.55668 
L 478.608949 -303.658931 
L 478.633449 -300.761183 
L 478.419344 -297.863434 
L 478.036561 -294.965686 
L 477.559739 -292.067938 
L 477.061264 -289.170189 
L 476.606015 -286.272441 
L 476.248049 -283.374692 
L 476.029067 -280.476944 
L 475.978282 -277.579195 
L 476.113303 -274.681447 
L 476.441646 -271.783698 
L 476.962583 -268.88595 
L 477.669012 -265.988202 
L 478.549048 -263.090453 
L 479.587064 -260.192705 
L 480.764033 -257.294956 
L 482.057244 -254.397208 
L 483.439724 -251.499459 
L 484.879919 -248.601711 
L 486.342243 -245.703962 
L 487.788962 -242.806214 
L 489.183594 -239.908465 
L 490.495556 -237.010717 
L 491.705482 -234.112969 
L 492.810308 -231.21522 
L 493.827188 -228.317472 
L 494.795297 -225.419723 
L 495.774701 -222.521975 
L 496.841665 -219.624226 
L 498.080045 -216.726478 
L 499.568875 -213.828729 
L 501.366992 -210.930981 
L 503.496452 -208.033233 
L 505.927504 -205.135484 
L 508.568538 -202.237736 
L 511.264479 -199.339987 
L 513.806096 -196.442239 
L 515.950777 -193.54449 
L 517.452687 -190.646742 
L 518.0976 -187.748993 
L 517.735945 -184.851245 
L 516.30727 -181.953497 
L 513.85084 -179.055748 
L 510.500025 -176.158 
L 506.461736 -173.260251 
L 501.985456 -170.362503 
L 497.328367 -167.464754 
L 492.72334 -164.567006 
L 488.355131 -161.669257 
L 484.347693 -158.771509 
L 480.762771 -155.87376 
L 477.607764 -152.976012 
L 474.849555 -150.078264 
L 472.430713 -147.180515 
L 470.284996 -144.282767 
L 468.349986 -141.385018 
L 466.575695 -138.48727 
L 464.928863 -135.589521 
L 463.393344 -132.691773 
L 461.967437 -129.794024 
L 460.659251 -126.896276 
L 459.481335 -123.998528 
L 458.445628 -121.100779 
L 457.559597 -118.203031 
L 456.824008 -115.305282 
L 456.232411 -112.407534 
L 455.772053 -109.509785 
L 455.425724 -106.612037 
L 455.173977 -103.714288 
L 454.997229 -100.81654 
z
" style="stroke: #595959; stroke-width: 1.25"/>
    </defs>
    <g clip-path="url(#p3d840985fc)">
     <use xlink:href="#mc0e6fbf678" x="0" y="432" style="fill: #95a3c3; stroke: #595959; stroke-width: 1.25"/>
    </g>
   </g>
   <g id="PolyCollection_4">
    <defs>
     <path id="m2262441102" d="M 613.295776 -62.162846 
L 613.152224 -62.162846 
L 613.066498 -63.174283 
L 612.912042 -64.18572 
L 612.662987 -65.197158 
L 612.303606 -66.208595 
L 611.842505 -67.220032 
L 611.325338 -68.231469 
L 610.836615 -69.242906 
L 610.481 -70.254343 
L 610.344196 -71.26578 
L 610.450487 -72.277218 
L 610.744077 -73.288655 
L 611.111084 -74.300092 
L 611.432317 -75.311529 
L 611.6348 -76.322966 
L 611.711482 -77.334403 
L 611.702974 -78.34584 
L 611.660868 -79.357278 
L 611.61817 -80.368715 
L 611.578144 -81.380152 
L 611.517237 -82.391589 
L 611.394405 -83.403026 
L 611.162862 -84.414463 
L 610.780682 -85.4259 
L 610.215273 -86.437338 
L 609.442124 -87.448775 
L 608.448525 -88.460212 
L 607.253806 -89.471649 
L 605.939328 -90.483086 
L 604.656208 -91.494523 
L 603.575807 -92.50596 
L 602.783025 -93.517398 
L 602.162633 -94.528835 
L 601.350014 -95.540272 
L 599.792261 -96.551709 
L 596.917713 -97.563146 
L 592.369799 -98.574583 
L 586.222116 -99.58602 
L 579.054937 -100.597458 
L 571.789295 -101.608895 
L 565.305241 -102.620332 
L 560.063871 -103.631769 
L 556.01863 -104.643206 
L 552.907421 -105.654643 
L 550.696493 -106.66608 
L 549.8064 -107.677518 
L 550.932408 -108.688955 
L 554.596291 -109.700392 
L 560.746351 -110.711829 
L 568.65509 -111.723266 
L 577.158851 -112.734703 
L 585.092731 -113.74614 
L 591.68443 -114.757578 
L 596.713064 -115.769015 
L 600.392364 -116.780452 
L 603.106628 -117.791889 
L 605.188253 -118.803326 
L 606.840629 -119.814763 
L 608.173973 -120.8262 
L 609.259829 -121.837638 
L 610.149981 -122.849075 
L 610.872234 -123.860512 
L 611.435546 -124.871949 
L 611.850552 -125.883386 
L 612.145978 -126.894823 
L 612.365329 -127.90626 
L 612.548869 -128.917698 
L 612.717873 -129.929135 
L 612.872652 -130.940572 
L 613.002691 -131.952009 
L 613.099149 -132.963446 
L 613.161435 -133.974883 
L 613.1963 -134.98632 
L 613.213204 -135.997758 
L 613.220305 -137.009195 
L 613.222891 -138.020632 
L 613.223709 -139.032069 
L 613.223933 -140.043506 
L 613.223987 -141.054943 
L 613.223997 -142.06638 
L 613.223998 -143.077818 
L 613.223992 -144.089255 
L 613.22396 -145.100692 
L 613.223817 -146.112129 
L 613.22328 -147.123566 
L 613.221523 -148.135003 
L 613.21656 -149.14644 
L 613.204498 -150.157878 
L 613.17939 -151.169315 
L 613.134941 -152.180752 
L 613.068829 -153.192189 
L 612.988046 -154.203626 
L 612.910865 -155.215063 
L 612.861323 -156.2265 
L 612.857399 -157.237938 
L 612.900591 -158.249375 
L 612.975002 -159.260812 
L 613.056688 -160.272249 
L 613.125884 -161.283686 
L 613.173784 -162.295123 
L 613.274216 -162.295123 
L 613.274216 -162.295123 
L 613.322116 -161.283686 
L 613.391312 -160.272249 
L 613.472998 -159.260812 
L 613.547409 -158.249375 
L 613.590601 -157.237938 
L 613.586677 -156.2265 
L 613.537135 -155.215063 
L 613.459954 -154.203626 
L 613.379171 -153.192189 
L 613.313059 -152.180752 
L 613.26861 -151.169315 
L 613.243502 -150.157878 
L 613.23144 -149.14644 
L 613.226477 -148.135003 
L 613.22472 -147.123566 
L 613.224183 -146.112129 
L 613.22404 -145.100692 
L 613.224008 -144.089255 
L 613.224002 -143.077818 
L 613.224003 -142.06638 
L 613.224013 -141.054943 
L 613.224067 -140.043506 
L 613.224291 -139.032069 
L 613.225109 -138.020632 
L 613.227695 -137.009195 
L 613.234796 -135.997758 
L 613.2517 -134.98632 
L 613.286565 -133.974883 
L 613.348851 -132.963446 
L 613.445309 -131.952009 
L 613.575348 -130.940572 
L 613.730127 -129.929135 
L 613.899131 -128.917698 
L 614.082671 -127.90626 
L 614.302022 -126.894823 
L 614.597448 -125.883386 
L 615.012454 -124.871949 
L 615.575766 -123.860512 
L 616.298019 -122.849075 
L 617.188171 -121.837638 
L 618.274027 -120.8262 
L 619.607371 -119.814763 
L 621.259747 -118.803326 
L 623.341372 -117.791889 
L 626.055636 -116.780452 
L 629.734936 -115.769015 
L 634.76357 -114.757578 
L 641.355269 -113.74614 
L 649.289149 -112.734703 
L 657.79291 -111.723266 
L 665.701649 -110.711829 
L 671.851709 -109.700392 
L 675.515592 -108.688955 
L 676.6416 -107.677518 
L 675.751507 -106.66608 
L 673.540579 -105.654643 
L 670.42937 -104.643206 
L 666.384129 -103.631769 
L 661.142759 -102.620332 
L 654.658705 -101.608895 
L 647.393063 -100.597458 
L 640.225884 -99.58602 
L 634.078201 -98.574583 
L 629.530287 -97.563146 
L 626.655739 -96.551709 
L 625.097986 -95.540272 
L 624.285367 -94.528835 
L 623.664975 -93.517398 
L 622.872193 -92.50596 
L 621.791792 -91.494523 
L 620.508672 -90.483086 
L 619.194194 -89.471649 
L 617.999475 -88.460212 
L 617.005876 -87.448775 
L 616.232727 -86.437338 
L 615.667318 -85.4259 
L 615.285138 -84.414463 
L 615.053595 -83.403026 
L 614.930763 -82.391589 
L 614.869856 -81.380152 
L 614.82983 -80.368715 
L 614.787132 -79.357278 
L 614.745026 -78.34584 
L 614.736518 -77.334403 
L 614.8132 -76.322966 
L 615.015683 -75.311529 
L 615.336916 -74.300092 
L 615.703923 -73.288655 
L 615.997513 -72.277218 
L 616.103804 -71.26578 
L 615.967 -70.254343 
L 615.611385 -69.242906 
L 615.122662 -68.231469 
L 614.605495 -67.220032 
L 614.144394 -66.208595 
L 613.785013 -65.197158 
L 613.535958 -64.18572 
L 613.381502 -63.174283 
L 613.295776 -62.162846 
z
" style="stroke: #595959; stroke-width: 1.25"/>
    </defs>
    <g clip-path="url(#p3d840985fc)">
     <use xlink:href="#m2262441102" x="0" y="432" style="fill: #db96c0; stroke: #595959; stroke-width: 1.25"/>
    </g>
   </g>
   <g id="PolyCollection_5">
    <defs>
     <path id="meba95fcbd8" d="M 771.812262 -53.566364 
L 771.723738 -53.566364 
L 771.68213 -54.047223 
L 771.619739 -54.528082 
L 771.538418 -55.008941 
L 771.445255 -55.4898 
L 771.34896 -55.970659 
L 771.255345 -56.451518 
L 771.167212 -56.932378 
L 771.090297 -57.413237 
L 771.039207 -57.894096 
L 771.034606 -58.374955 
L 771.090525 -58.855814 
L 771.201577 -59.336673 
L 771.341429 -59.817532 
L 771.473861 -60.298391 
L 771.567171 -60.779251 
L 771.602363 -61.26011 
L 771.573965 -61.740969 
L 771.488964 -62.221828 
L 771.367503 -62.702687 
L 771.242391 -63.183546 
L 771.151377 -63.664405 
L 771.121325 -64.145264 
L 771.152071 -64.626124 
L 771.210954 -65.106983 
L 771.242872 -65.587842 
L 771.190947 -66.068701 
L 771.018027 -66.54956 
L 770.721092 -67.030419 
L 770.334622 -67.511278 
L 769.921296 -67.992137 
L 769.550783 -68.472997 
L 769.272654 -68.953856 
L 769.095663 -69.434715 
L 768.985936 -69.915574 
L 768.886803 -70.396433 
L 768.748523 -70.877292 
L 768.549251 -71.358151 
L 768.295501 -71.83901 
L 768.004054 -72.31987 
L 767.676449 -72.800729 
L 767.278287 -73.281588 
L 766.73241 -73.762447 
L 765.929126 -74.243306 
L 764.74622 -74.724165 
L 763.060945 -75.205024 
L 760.73798 -75.685883 
L 757.599791 -76.166743 
L 753.417762 -76.647602 
L 747.974384 -77.128461 
L 741.211438 -77.60932 
L 733.404679 -78.090179 
L 725.247281 -78.571038 
L 717.748462 -79.051897 
L 711.965614 -79.532756 
L 708.70576 -80.013616 
L 708.3504 -80.494475 
L 710.856299 -80.975334 
L 715.857047 -81.456193 
L 722.755246 -81.937052 
L 730.774073 -82.417911 
L 739.030009 -82.89877 
L 746.685116 -83.379629 
L 753.141381 -83.860489 
L 758.163894 -84.341348 
L 761.852446 -84.822207 
L 764.48903 -85.303066 
L 766.365762 -85.783925 
L 767.685006 -86.264784 
L 768.553352 -86.745643 
L 769.031178 -87.226502 
L 769.184666 -87.707362 
L 769.108109 -88.188221 
L 768.914833 -88.66908 
L 768.71446 -89.149939 
L 768.594685 -89.630798 
L 768.612915 -90.111657 
L 768.792388 -90.592516 
L 769.119282 -91.073375 
L 769.545824 -91.554235 
L 770.004917 -92.035094 
L 770.431999 -92.515953 
L 770.782127 -92.996812 
L 771.034706 -93.477671 
L 771.188743 -93.95853 
L 771.25592 -94.439389 
L 771.254776 -94.920248 
L 771.205166 -95.401108 
L 771.12362 -95.881967 
L 771.02323 -96.362826 
L 770.919313 -96.843685 
L 770.835361 -97.324544 
L 770.801003 -97.805403 
L 770.839875 -98.286262 
L 770.955298 -98.767121 
L 771.125382 -99.247981 
L 771.312328 -99.72884 
L 771.479612 -100.209699 
L 771.605632 -100.690558 
L 771.686867 -101.171417 
L 771.849133 -101.171417 
L 771.849133 -101.171417 
L 771.930368 -100.690558 
L 772.056388 -100.209699 
L 772.223672 -99.72884 
L 772.410618 -99.247981 
L 772.580702 -98.767121 
L 772.696125 -98.286262 
L 772.734997 -97.805403 
L 772.700639 -97.324544 
L 772.616687 -96.843685 
L 772.51277 -96.362826 
L 772.41238 -95.881967 
L 772.330834 -95.401108 
L 772.281224 -94.920248 
L 772.28008 -94.439389 
L 772.347257 -93.95853 
L 772.501294 -93.477671 
L 772.753873 -92.996812 
L 773.104001 -92.515953 
L 773.531083 -92.035094 
L 773.990176 -91.554235 
L 774.416718 -91.073375 
L 774.743612 -90.592516 
L 774.923085 -90.111657 
L 774.941315 -89.630798 
L 774.82154 -89.149939 
L 774.621167 -88.66908 
L 774.427891 -88.188221 
L 774.351334 -87.707362 
L 774.504822 -87.226502 
L 774.982648 -86.745643 
L 775.850994 -86.264784 
L 777.170238 -85.783925 
L 779.04697 -85.303066 
L 781.683554 -84.822207 
L 785.372106 -84.341348 
L 790.394619 -83.860489 
L 796.850884 -83.379629 
L 804.505991 -82.89877 
L 812.761927 -82.417911 
L 820.780754 -81.937052 
L 827.678953 -81.456193 
L 832.679701 -80.975334 
L 835.1856 -80.494475 
L 834.83024 -80.013616 
L 831.570386 -79.532756 
L 825.787538 -79.051897 
L 818.288719 -78.571038 
L 810.131321 -78.090179 
L 802.324562 -77.60932 
L 795.561616 -77.128461 
L 790.118238 -76.647602 
L 785.936209 -76.166743 
L 782.79802 -75.685883 
L 780.475055 -75.205024 
L 778.78978 -74.724165 
L 777.606874 -74.243306 
L 776.80359 -73.762447 
L 776.257713 -73.281588 
L 775.859551 -72.800729 
L 775.531946 -72.31987 
L 775.240499 -71.83901 
L 774.986749 -71.358151 
L 774.787477 -70.877292 
L 774.649197 -70.396433 
L 774.550064 -69.915574 
L 774.440337 -69.434715 
L 774.263346 -68.953856 
L 773.985217 -68.472997 
L 773.614704 -67.992137 
L 773.201378 -67.511278 
L 772.814908 -67.030419 
L 772.517973 -66.54956 
L 772.345053 -66.068701 
L 772.293128 -65.587842 
L 772.325046 -65.106983 
L 772.383929 -64.626124 
L 772.414675 -64.145264 
L 772.384623 -63.664405 
L 772.293609 -63.183546 
L 772.168497 -62.702687 
L 772.047036 -62.221828 
L 771.962035 -61.740969 
L 771.933637 -61.26011 
L 771.968829 -60.779251 
L 772.062139 -60.298391 
L 772.194571 -59.817532 
L 772.334423 -59.336673 
L 772.445475 -58.855814 
L 772.501394 -58.374955 
L 772.496793 -57.894096 
L 772.445703 -57.413237 
L 772.368788 -56.932378 
L 772.280655 -56.451518 
L 772.18704 -55.970659 
L 772.090745 -55.4898 
L 771.997582 -55.008941 
L 771.916261 -54.528082 
L 771.85387 -54.047223 
L 771.812262 -53.566364 
z
" style="stroke: #595959; stroke-width: 1.25"/>
    </defs>
    <g clip-path="url(#p3d840985fc)">
     <use xlink:href="#meba95fcbd8" x="0" y="432" style="fill: #a2c865; stroke: #595959; stroke-width: 1.25"/>
    </g>
   </g>
   <g id="line2d_7">
    <path d="M 137.592 297.235525 
L 137.592 328.063295 
" clip-path="url(#p3d840985fc)" style="fill: none; stroke: #000000"/>
   </g>
   <g id="line2d_8">
    <path d="M 137.592 276.098341 
L 137.592 245.075459 
" clip-path="url(#p3d840985fc)" style="fill: none; stroke: #000000"/>
   </g>
   <g id="line2d_9">
    <path d="M 131.6466 328.063295 
L 143.5374 328.063295 
" clip-path="url(#p3d840985fc)" style="fill: none; stroke: #000000; stroke-linecap: round"/>
   </g>
   <g id="line2d_10">
    <path d="M 131.6466 245.075459 
L 143.5374 245.075459 
" clip-path="url(#p3d840985fc)" style="fill: none; stroke: #000000; stroke-linecap: round"/>
   </g>
   <g id="line2d_11">
    <path d="M 296.136 343.103215 
L 296.136 355.118891 
" clip-path="url(#p3d840985fc)" style="fill: none; stroke: #000000"/>
   </g>
   <g id="line2d_12">
    <path d="M 296.136 335.022307 
L 296.136 323.250521 
" clip-path="url(#p3d840985fc)" style="fill: none; stroke: #000000"/>
   </g>
   <g id="line2d_13">
    <path d="M 290.1906 355.118891 
L 302.0814 355.118891 
" clip-path="url(#p3d840985fc)" style="fill: none; stroke: #000000; stroke-linecap: round"/>
   </g>
   <g id="line2d_14">
    <path d="M 290.1906 323.250521 
L 302.0814 323.250521 
" clip-path="url(#p3d840985fc)" style="fill: none; stroke: #000000; stroke-linecap: round"/>
   </g>
   <g id="line2d_15">
    <path d="M 454.68 247.823293 
L 454.68 301.0077 
" clip-path="url(#p3d840985fc)" style="fill: none; stroke: #000000"/>
   </g>
   <g id="line2d_16">
    <path d="M 454.68 175.843051 
L 454.68 74.482124 
" clip-path="url(#p3d840985fc)" style="fill: none; stroke: #000000"/>
   </g>
   <g id="line2d_17">
    <path d="M 448.7346 301.0077 
L 460.6254 301.0077 
" clip-path="url(#p3d840985fc)" style="fill: none; stroke: #000000; stroke-linecap: round"/>
   </g>
   <g id="line2d_18">
    <path d="M 448.7346 74.482124 
L 460.6254 74.482124 
" clip-path="url(#p3d840985fc)" style="fill: none; stroke: #000000; stroke-linecap: round"/>
   </g>
   <g id="line2d_19">
    <path d="M 613.224 329.559157 
L 613.224 340.615531 
" clip-path="url(#p3d840985fc)" style="fill: none; stroke: #000000"/>
   </g>
   <g id="line2d_20">
    <path d="M 613.224 322.112365 
L 613.224 311.283623 
" clip-path="url(#p3d840985fc)" style="fill: none; stroke: #000000"/>
   </g>
   <g id="line2d_21">
    <path d="M 607.2786 340.615531 
L 619.1694 340.615531 
" clip-path="url(#p3d840985fc)" style="fill: none; stroke: #000000; stroke-linecap: round"/>
   </g>
   <g id="line2d_22">
    <path d="M 607.2786 311.283623 
L 619.1694 311.283623 
" clip-path="url(#p3d840985fc)" style="fill: none; stroke: #000000; stroke-linecap: round"/>
   </g>
   <g id="line2d_23">
    <path d="M 771.768 353.167766 
L 771.768 357.265128 
" clip-path="url(#p3d840985fc)" style="fill: none; stroke: #000000"/>
   </g>
   <g id="line2d_24">
    <path d="M 771.768 350.241079 
L 771.768 346.07868 
" clip-path="url(#p3d840985fc)" style="fill: none; stroke: #000000"/>
   </g>
   <g id="line2d_25">
    <path d="M 765.8226 357.265128 
L 777.7134 357.265128 
" clip-path="url(#p3d840985fc)" style="fill: none; stroke: #000000; stroke-linecap: round"/>
   </g>
   <g id="line2d_26">
    <path d="M 765.8226 346.07868 
L 777.7134 346.07868 
" clip-path="url(#p3d840985fc)" style="fill: none; stroke: #000000; stroke-linecap: round"/>
   </g>
   <g id="line2d_27">
    <path d="M 125.7012 289.365989 
L 149.4828 289.365989 
" clip-path="url(#p3d840985fc)" style="fill: none; stroke: #ff0000; stroke-width: 2"/>
   </g>
   <g id="line2d_28">
    <path d="M 284.2452 338.989593 
L 308.0268 338.989593 
" clip-path="url(#p3d840985fc)" style="fill: none; stroke: #ff0000; stroke-width: 2"/>
   </g>
   <g id="line2d_29">
    <path d="M 442.7892 219.775875 
L 466.5708 219.775875 
" clip-path="url(#p3d840985fc)" style="fill: none; stroke: #ff0000; stroke-width: 2"/>
   </g>
   <g id="line2d_30">
    <path d="M 601.3332 325.266683 
L 625.1148 325.266683 
" clip-path="url(#p3d840985fc)" style="fill: none; stroke: #ff0000; stroke-width: 2"/>
   </g>
   <g id="line2d_31">
    <path d="M 759.8772 351.801979 
L 783.6588 351.801979 
" clip-path="url(#p3d840985fc)" style="fill: none; stroke: #ff0000; stroke-width: 2"/>
   </g>
   <g id="patch_3">
    <path d="M 58.32 395.14 
L 58.32 27.6 
" style="fill: none; stroke: #cccccc; stroke-width: 1.25; stroke-linejoin: miter; stroke-linecap: square"/>
   </g>
   <g id="patch_4">
    <path d="M 851.04 395.14 
L 851.04 27.6 
" style="fill: none; stroke: #cccccc; stroke-width: 1.25; stroke-linejoin: miter; stroke-linecap: square"/>
   </g>
   <g id="patch_5">
    <path d="M 58.32 395.14 
L 851.04 395.14 
" style="fill: none; stroke: #cccccc; stroke-width: 1.25; stroke-linejoin: miter; stroke-linecap: square"/>
   </g>
   <g id="patch_6">
    <path d="M 58.32 27.6 
L 851.04 27.6 
" style="fill: none; stroke: #cccccc; stroke-width: 1.25; stroke-linejoin: miter; stroke-linecap: square"/>
   </g>
   <g id="text_13">
    <!-- Handshake duration on TLS with mldsa65 signature algorithm — Backbone (200ms/4%) -->
    <g style="fill: #262626" transform="translate(190.830937 21.6) scale(0.12 -0.12)">
     <defs>
      <path id="DejaVuSans-54" d="M -19 4666 
L 3928 4666 
L 3928 4134 
L 2272 4134 
L 2272 0 
L 1638 0 
L 1638 4134 
L -19 4134 
L -19 4666 
z
" transform="scale(0.015625)"/>
      <path id="DejaVuSans-4c" d="M 628 4666 
L 1259 4666 
L 1259 531 
L 3531 531 
L 3531 0 
L 628 0 
L 628 4666 
z
" transform="scale(0.015625)"/>
      <path id="DejaVuSans-53" d="M 3425 4513 
L 3425 3897 
Q 3066 4069 2747 4153 
Q 2428 4238 2131 4238 
Q 1616 4238 1336 4038 
Q 1056 3838 1056 3469 
Q 1056 3159 1242 3001 
Q 1428 2844 1947 2747 
L 2328 2669 
Q 3034 2534 3370 2195 
Q 3706 1856 3706 1288 
Q 3706 609 3251 259 
Q 2797 -91 1919 -91 
Q 1588 -91 1214 -16 
Q 841 59 441 206 
L 441 856 
Q 825 641 1194 531 
Q 1563 422 1919 422 
Q 2459 422 2753 634 
Q 3047 847 3047 1241 
Q 3047 1584 2836 1778 
Q 2625 1972 2144 2069 
L 1759 2144 
Q 1053 2284 737 2584 
Q 422 2884 422 3419 
Q 422 4038 858 4394 
Q 1294 4750 2059 4750 
Q 2388 4750 2728 4690 
Q 3069 4631 3425 4513 
z
" transform="scale(0.015625)"/>
      <path id="DejaVuSans-77" d="M 269 3500 
L 844 3500 
L 1563 769 
L 2278 3500 
L 2956 3500 
L 3675 769 
L 4391 3500 
L 4966 3500 
L 4050 0 
L 3372 0 
L 2619 2869 
L 1863 0 
L 1184 0 
L 269 3500 
z
" transform="scale(0.015625)"/>
      <path id="DejaVuSans-67" d="M 2906 1791 
Q 2906 2416 2648 2759 
Q 2391 3103 1925 3103 
Q 1463 3103 1205 2759 
Q 947 2416 947 1791 
Q 947 1169 1205 825 
Q 1463 481 1925 481 
Q 2391 481 2648 825 
Q 2906 1169 2906 1791 
z
M 3481 434 
Q 3481 -459 3084 -895 
Q 2688 -1331 1869 -1331 
Q 1566 -1331 1297 -1286 
Q 1028 -1241 775 -1147 
L 775 -588 
Q 1028 -725 1275 -790 
Q 1522 -856 1778 -856 
Q 2344 -856 2625 -561 
Q 2906 -266 2906 331 
L 2906 616 
Q 2728 306 2450 153 
Q 2172 0 1784 0 
Q 1141 0 747 490 
Q 353 981 353 1791 
Q 353 2603 747 3093 
Q 1141 3584 1784 3584 
Q 2172 3584 2450 3431 
Q 2728 3278 2906 2969 
L 2906 3500 
L 3481 3500 
L 3481 434 
z
" transform="scale(0.015625)"/>
      <path id="DejaVuSans-2014" d="M 313 1978 
L 6088 1978 
L 6088 1528 
L 313 1528 
L 313 1978 
z
" transform="scale(0.015625)"/>
      <path id="DejaVuSans-42" d="M 1259 2228 
L 1259 519 
L 2272 519 
Q 2781 519 3026 730 
Q 3272 941 3272 1375 
Q 3272 1813 3026 2020 
Q 2781 2228 2272 2228 
L 1259 2228 
z
M 1259 4147 
L 1259 2741 
L 2194 2741 
Q 2656 2741 2882 2914 
Q 3109 3088 3109 3444 
Q 3109 3797 2882 3972 
Q 2656 4147 2194 4147 
L 1259 4147 
z
M 628 4666 
L 2241 4666 
Q 2963 4666 3353 4366 
Q 3744 4066 3744 3513 
Q 3744 3084 3544 2831 
Q 3344 2578 2956 2516 
Q 3422 2416 3680 2098 
Q 3938 1781 3938 1306 
Q 3938 681 3513 340 
Q 3088 0 2303 0 
L 628 0 
L 628 4666 
z
" transform="scale(0.015625)"/>
      <path id="DejaVuSans-63" d="M 3122 3366 
L 3122 2828 
Q 2878 2963 2633 3030 
Q 2388 3097 2138 3097 
Q 1578 3097 1268 2742 
Q 959 2388 959 1747 
Q 959 1106 1268 751 
Q 1578 397 2138 397 
Q 2388 397 2633 464 
Q 2878 531 3122 666 
L 3122 134 
Q 2881 22 2623 -34 
Q 2366 -91 2075 -91 
Q 1284 -91 818 406 
Q 353 903 353 1747 
Q 353 2603 823 3093 
Q 1294 3584 2113 3584 
Q 2378 3584 2631 3529 
Q 2884 3475 3122 3366 
z
" transform="scale(0.015625)"/>
      <path id="DejaVuSans-62" d="M 3116 1747 
Q 3116 2381 2855 2742 
Q 2594 3103 2138 3103 
Q 1681 3103 1420 2742 
Q 1159 2381 1159 1747 
Q 1159 1113 1420 752 
Q 1681 391 2138 391 
Q 2594 391 2855 752 
Q 3116 1113 3116 1747 
z
M 1159 2969 
Q 1341 3281 1617 3432 
Q 1894 3584 2278 3584 
Q 2916 3584 3314 3078 
Q 3713 2572 3713 1747 
Q 3713 922 3314 415 
Q 2916 -91 2278 -91 
Q 1894 -91 1617 61 
Q 1341 213 1159 525 
L 1159 0 
L 581 0 
L 581 4863 
L 1159 4863 
L 1159 2969 
z
" transform="scale(0.015625)"/>
      <path id="DejaVuSans-2f" d="M 1625 4666 
L 2156 4666 
L 531 -594 
L 0 -594 
L 1625 4666 
z
" transform="scale(0.015625)"/>
      <path id="DejaVuSans-25" d="M 4653 2053 
Q 4381 2053 4226 1822 
Q 4072 1591 4072 1178 
Q 4072 772 4226 539 
Q 4381 306 4653 306 
Q 4919 306 5073 539 
Q 5228 772 5228 1178 
Q 5228 1588 5073 1820 
Q 4919 2053 4653 2053 
z
M 4653 2450 
Q 5147 2450 5437 2106 
Q 5728 1763 5728 1178 
Q 5728 594 5436 251 
Q 5144 -91 4653 -91 
Q 4153 -91 3862 251 
Q 3572 594 3572 1178 
Q 3572 1766 3864 2108 
Q 4156 2450 4653 2450 
z
M 1428 4353 
Q 1159 4353 1004 4120 
Q 850 3888 850 3481 
Q 850 3069 1003 2837 
Q 1156 2606 1428 2606 
Q 1700 2606 1854 2837 
Q 2009 3069 2009 3481 
Q 2009 3884 1853 4118 
Q 1697 4353 1428 4353 
z
M 4250 4750 
L 4750 4750 
L 1831 -91 
L 1331 -91 
L 4250 4750 
z
M 1428 4750 
Q 1922 4750 2215 4408 
Q 2509 4066 2509 3481 
Q 2509 2891 2217 2550 
Q 1925 2209 1428 2209 
Q 931 2209 642 2551 
Q 353 2894 353 3481 
Q 353 4063 643 4406 
Q 934 4750 1428 4750 
z
" transform="scale(0.015625)"/>
     </defs>
     <use xlink:href="#DejaVuSans-48"/>
     <use xlink:href="#DejaVuSans-61" x="75.195312"/>
     <use xlink:href="#DejaVuSans-6e" x="136.474609"/>
     <use xlink:href="#DejaVuSans-64" x="199.853516"/>
     <use xlink:href="#DejaVuSans-73" x="263.330078"/>
     <use xlink:href="#DejaVuSans-68" x="315.429688"/>
     <use xlink:href="#DejaVuSans-61" x="378.808594"/>
     <use xlink:href="#DejaVuSans-6b" x="440.087891"/>
     <use xlink:href="#DejaVuSans-65" x="494.373047"/>
     <use xlink:href="#DejaVuSans-20" x="555.896484"/>
     <use xlink:href="#DejaVuSans-64" x="587.683594"/>
     <use xlink:href="#DejaVuSans-75" x="651.160156"/>
     <use xlink:href="#DejaVuSans-72" x="714.539062"/>
     <use xlink:href="#DejaVuSans-61" x="755.652344"/>
     <use xlink:href="#DejaVuSans-74" x="816.931641"/>
     <use xlink:href="#DejaVuSans-69" x="856.140625"/>
     <use xlink:href="#DejaVuSans-6f" x="883.923828"/>
     <use xlink:href="#DejaVuSans-6e" x="945.105469"/>
     <use xlink:href="#DejaVuSans-20" x="1008.484375"/>
     <use xlink:href="#DejaVuSans-6f" x="1040.271484"/>
     <use xlink:href="#DejaVuSans-6e" x="1101.453125"/>
     <use xlink:href="#DejaVuSans-20" x="1164.832031"/>
     <use xlink:href="#DejaVuSans-54" x="1196.619141"/>
     <use xlink:href="#DejaVuSans-4c" x="1257.703125"/>
     <use xlink:href="#DejaVuSans-53" x="1313.416016"/>
     <use xlink:href="#DejaVuSans-20" x="1376.892578"/>
     <use xlink:href="#DejaVuSans-77" x="1408.679688"/>
     <use xlink:href="#DejaVuSans-69" x="1490.466797"/>
     <use xlink:href="#DejaVuSans-74" x="1518.25"/>
     <use xlink:href="#DejaVuSans-68" x="1557.458984"/>
     <use xlink:href="#DejaVuSans-20" x="1620.837891"/>
     <use xlink:href="#DejaVuSans-6d" x="1652.625"/>
     <use xlink:href="#DejaVuSans-6c" x="1750.037109"/>
     <use xlink:href="#DejaVuSans-64" x="1777.820312"/>
     <use xlink:href="#DejaVuSans-73" x="1841.296875"/>
     <use xlink:href="#DejaVuSans-61" x="1893.396484"/>
     <use xlink:href="#DejaVuSans-36" x="1954.675781"/>
     <use xlink:href="#DejaVuSans-35" x="2018.298828"/>
     <use xlink:href="#DejaVuSans-20" x="2081.921875"/>
     <use xlink:href="#DejaVuSans-73" x="2113.708984"/>
     <use xlink:href="#DejaVuSans-69" x="2165.808594"/>
     <use xlink:href="#DejaVuSans-67" x="2193.591797"/>
     <use xlink:href="#DejaVuSans-6e" x="2257.068359"/>
     <use xlink:href="#DejaVuSans-61" x="2320.447266"/>
     <use xlink:href="#DejaVuSans-74" x="2381.726562"/>
     <use xlink:href="#DejaVuSans-75" x="2420.935547"/>
     <use xlink:href="#DejaVuSans-72" x="2484.314453"/>
     <use xlink:href="#DejaVuSans-65" x="2523.177734"/>
     <use xlink:href="#DejaVuSans-20" x="2584.701172"/>
     <use xlink:href="#DejaVuSans-61" x="2616.488281"/>
     <use xlink:href="#DejaVuSans-6c" x="2677.767578"/>
     <use xlink:href="#DejaVuSans-67" x="2705.550781"/>
     <use xlink:href="#DejaVuSans-6f" x="2769.027344"/>
     <use xlink:href="#DejaVuSans-72" x="2830.208984"/>
     <use xlink:href="#DejaVuSans-69" x="2871.322266"/>
     <use xlink:href="#DejaVuSans-74" x="2899.105469"/>
     <use xlink:href="#DejaVuSans-68" x="2938.314453"/>
     <use xlink:href="#DejaVuSans-6d" x="3001.693359"/>
     <use xlink:href="#DejaVuSans-20" x="3099.105469"/>
     <use xlink:href="#DejaVuSans-2014" x="3130.892578"/>
     <use xlink:href="#DejaVuSans-20" x="3230.892578"/>
     <use xlink:href="#DejaVuSans-42" x="3262.679688"/>
     <use xlink:href="#DejaVuSans-61" x="3331.283203"/>
     <use xlink:href="#DejaVuSans-63" x="3392.5625"/>
     <use xlink:href="#DejaVuSans-6b" x="3447.542969"/>
     <use xlink:href="#DejaVuSans-62" x="3505.453125"/>
     <use xlink:href="#DejaVuSans-6f" x="3568.929688"/>
     <use xlink:href="#DejaVuSans-6e" x="3630.111328"/>
     <use xlink:href="#DejaVuSans-65" x="3693.490234"/>
     <use xlink:href="#DejaVuSans-20" x="3755.013672"/>
     <use xlink:href="#DejaVuSans-28" x="3786.800781"/>
     <use xlink:href="#DejaVuSans-32" x="3825.814453"/>
     <use xlink:href="#DejaVuSans-30" x="3889.4375"/>
     <use xlink:href="#DejaVuSans-30" x="3953.060547"/>
     <use xlink:href="#DejaVuSans-6d" x="4016.683594"/>
     <use xlink:href="#DejaVuSans-73" x="4114.095703"/>
     <use xlink:href="#DejaVuSans-2f" x="4166.195312"/>
     <use xlink:href="#DejaVuSans-34" x="4199.886719"/>
     <use xlink:href="#DejaVuSans-25" x="4263.509766"/>
     <use xlink:href="#DejaVuSans-29" x="4358.529297"/>
    </g>
   </g>
  </g>
 </g>
 <defs>
  <clipPath id="p3d840985fc">
   <rect x="58.32" y="27.6" width="792.72" height="367.54"/>
  </clipPath>
 </defs>
</svg>
