<?xml version="1.0" encoding="utf-8" standalone="no"?>
<!DOCTYPE svg PUBLIC "-//W3C//DTD SVG 1.1//EN"
  "http://www.w3.org/Graphics/SVG/1.1/DTD/svg11.dtd">
<svg xmlns:xlink="http://www.w3.org/1999/xlink" width="864pt" height="432pt" viewBox="0 0 864 432" xmlns="http://www.w3.org/2000/svg" version="1.1">
 <metadata>
  <rdf:RDF xmlns:dc="http://purl.org/dc/elements/1.1/" xmlns:cc="http://creativecommons.org/ns#" xmlns:rdf="http://www.w3.org/1999/02/22-rdf-syntax-ns#">
   <cc:Work>
    <dc:type rdf:resource="http://purl.org/dc/dcmitype/StillImage"/>
    <dc:date>2026-03-21T13:58:45.444070</dc:date>
    <dc:format>image/svg+xml</dc:format>
    <dc:creator>
     <cc:Agent>
      <dc:title>Matplotlib v3.6.3, https://matplotlib.org/</dc:title>
     </cc:Agent>
    </dc:creator>
   </cc:Work>
  </rdf:RDF>
 </metadata>
 <defs>
  <style type="text/css">*{stroke-linejoin: round; stroke-linecap: butt}</style>
 </defs>
 <g id="figure_1">
  <g id="patch_1">
   <path d="M 0 432 
L 864 432 
L 864 0 
L 0 0 
z
" style="fill: #ffffff"/>
  </g>
  <g id="axes_1">
   <g id="patch_2">
    <path d="M 58.32 395.14 
L 851.04 395.14 
L 851.04 27.6 
L 58.32 27.6 
z
" style="fill: #ffffff"/>
   </g>
   <g id="matplotlib.axis_1">
    <g id="xtick_1">
     <g id="text_1">
      <!-- P-256 -->
      <g style="fill: #262626" transform="translate(117.642 415.277812) scale(0.14 -0.14)">
       <defs>
        <path id="DejaVuSans-50" d="M 1259 4147 
L 1259 2394 
L 2053 2394 
Q 2494 2394 2734 2622 
Q 2975 2850 2975 3272 
Q 2975 3691 2734 3919 
Q 2494 4147 2053 4147 
L 1259 4147 
z
M 628 4666 
L 2053 4666 
Q 2838 4666 3239 4311 
Q 3641 3956 3641 3272 
Q 3641 2581 3239 2228 
Q 2838 1875 2053 1875 
L 1259 1875 
L 1259 0 
L 628 0 
L 628 4666 
z
" transform="scale(0.015625)"/>
        <path id="DejaVuSans-2d" d="M 313 2009 
L 1997 2009 
L 1997 1497 
L 313 1497 
L 313 2009 
z
" transform="scale(0.015625)"/>
        <path id="DejaVuSans-32" d="M 1228 531 
L 3431 531 
L 3431 0 
L 469 0 
L 469 531 
Q 828 903 1448 1529 
Q 2069 2156 2228 2338 
Q 2531 2678 2651 2914 
Q 2772 3150 2772 3378 
Q 2772 3750 2511 3984 
Q 2250 4219 1831 4219 
Q 1534 4219 1204 4116 
Q 875 4013 500 3803 
L 500 4441 
Q 881 4594 1212 4672 
Q 1544 4750 1819 4750 
Q 2544 4750 2975 4387 
Q 3406 4025 3406 3419 
Q 3406 3131 3298 2873 
Q 3191 2616 2906 2266 
Q 2828 2175 2409 1742 
Q 1991 1309 1228 531 
z
" transform="scale(0.015625)"/>
        <path id="DejaVuSans-35" d="M 691 4666 
L 3169 4666 
L 3169 4134 
L 1269 4134 
L 1269 2991 
Q 1406 3038 1543 3061 
Q 1681 3084 1819 3084 
Q 2600 3084 3056 2656 
Q 3513 2228 3513 1497 
Q 3513 744 3044 326 
Q 2575 -91 1722 -91 
Q 1428 -91 1123 -41 
Q 819 9 494 109 
L 494 744 
Q 775 591 1075 516 
Q 1375 441 1709 441 
Q 2250 441 2565 725 
Q 2881 1009 2881 1497 
Q 2881 1984 2565 2268 
Q 2250 2553 1709 2553 
Q 1456 2553 1204 2497 
Q 953 2441 691 2322 
L 691 4666 
z
" transform="scale(0.015625)"/>
        <path id="DejaVuSans-36" d="M 2113 2584 
Q 1688 2584 1439 2293 
Q 1191 2003 1191 1497 
Q 1191 994 1439 701 
Q 1688 409 2113 409 
Q 2538 409 2786 701 
Q 3034 994 3034 1497 
Q 3034 2003 2786 2293 
Q 2538 2584 2113 2584 
z
M 3366 4563 
L 3366 3988 
Q 3128 4100 2886 4159 
Q 2644 4219 2406 4219 
Q 1781 4219 1451 3797 
Q 1122 3375 1075 2522 
Q 1259 2794 1537 2939 
Q 1816 3084 2150 3084 
Q 2853 3084 3261 2657 
Q 3669 2231 3669 1497 
Q 3669 778 3244 343 
Q 2819 -91 2113 -91 
Q 1303 -91 875 529 
Q 447 1150 447 2328 
Q 447 3434 972 4092 
Q 1497 4750 2381 4750 
Q 2619 4750 2861 4703 
Q 3103 4656 3366 4563 
z
" transform="scale(0.015625)"/>
       </defs>
       <use xlink:href="#DejaVuSans-50"/>
       <use xlink:href="#DejaVuSans-2d" x="58.052734"/>
       <use xlink:href="#DejaVuSans-32" x="94.136719"/>
       <use xlink:href="#DejaVuSans-35" x="157.759766"/>
       <use xlink:href="#DejaVuSans-36" x="221.382812"/>
      </g>
     </g>
    </g>
    <g id="xtick_2">
     <g id="text_2">
      <!-- x25519 -->
      <g style="fill: #262626" transform="translate(269.724125 415.277812) scale(0.14 -0.14)">
       <defs>
        <path id="DejaVuSans-78" d="M 3513 3500 
L 2247 1797 
L 3578 0 
L 2900 0 
L 1881 1375 
L 863 0 
L 184 0 
L 1544 1831 
L 300 3500 
L 978 3500 
L 1906 2253 
L 2834 3500 
L 3513 3500 
z
" transform="scale(0.015625)"/>
        <path id="DejaVuSans-31" d="M 794 531 
L 1825 531 
L 1825 4091 
L 703 3866 
L 703 4441 
L 1819 4666 
L 2450 4666 
L 2450 531 
L 3481 531 
L 3481 0 
L 794 0 
L 794 531 
z
" transform="scale(0.015625)"/>
        <path id="DejaVuSans-39" d="M 703 97 
L 703 672 
Q 941 559 1184 500 
Q 1428 441 1663 441 
Q 2288 441 2617 861 
Q 2947 1281 2994 2138 
Q 2813 1869 2534 1725 
Q 2256 1581 1919 1581 
Q 1219 1581 811 2004 
Q 403 2428 403 3163 
Q 403 3881 828 4315 
Q 1253 4750 1959 4750 
Q 2769 4750 3195 4129 
Q 3622 3509 3622 2328 
Q 3622 1225 3098 567 
Q 2575 -91 1691 -91 
Q 1453 -91 1209 -44 
Q 966 3 703 97 
z
M 1959 2075 
Q 2384 2075 2632 2365 
Q 2881 2656 2881 3163 
Q 2881 3666 2632 3958 
Q 2384 4250 1959 4250 
Q 1534 4250 1286 3958 
Q 1038 3666 1038 3163 
Q 1038 2656 1286 2365 
Q 1534 2075 1959 2075 
z
" transform="scale(0.015625)"/>
       </defs>
       <use xlink:href="#DejaVuSans-78"/>
       <use xlink:href="#DejaVuSans-32" x="59.179688"/>
       <use xlink:href="#DejaVuSans-35" x="122.802734"/>
       <use xlink:href="#DejaVuSans-35" x="186.425781"/>
       <use xlink:href="#DejaVuSans-31" x="250.048828"/>
       <use xlink:href="#DejaVuSans-39" x="313.671875"/>
      </g>
     </g>
    </g>
    <g id="xtick_3">
     <g id="text_3">
      <!-- p256_mlkem512 -->
      <g style="fill: #262626" transform="translate(396.325156 415.277812) scale(0.14 -0.14)">
       <defs>
        <path id="DejaVuSans-70" d="M 1159 525 
L 1159 -1331 
L 581 -1331 
L 581 3500 
L 1159 3500 
L 1159 2969 
Q 1341 3281 1617 3432 
Q 1894 3584 2278 3584 
Q 2916 3584 3314 3078 
Q 3713 2572 3713 1747 
Q 3713 922 3314 415 
Q 2916 -91 2278 -91 
Q 1894 -91 1617 61 
Q 1341 213 1159 525 
z
M 3116 1747 
Q 3116 2381 2855 2742 
Q 2594 3103 2138 3103 
Q 1681 3103 1420 2742 
Q 1159 2381 1159 1747 
Q 1159 1113 1420 752 
Q 1681 391 2138 391 
Q 2594 391 2855 752 
Q 3116 1113 3116 1747 
z
" transform="scale(0.015625)"/>
        <path id="DejaVuSans-5f" d="M 3263 -1063 
L 3263 -1509 
L -63 -1509 
L -63 -1063 
L 3263 -1063 
z
" transform="scale(0.015625)"/>
        <path id="DejaVuSans-6d" d="M 3328 2828 
Q 3544 3216 3844 3400 
Q 4144 3584 4550 3584 
Q 5097 3584 5394 3201 
Q 5691 2819 5691 2113 
L 5691 0 
L 5113 0 
L 5113 2094 
Q 5113 2597 4934 2840 
Q 4756 3084 4391 3084 
Q 3944 3084 3684 2787 
Q 3425 2491 3425 1978 
L 3425 0 
L 2847 0 
L 2847 2094 
Q 2847 2600 2669 2842 
Q 2491 3084 2119 3084 
Q 1678 3084 1418 2786 
Q 1159 2488 1159 1978 
L 1159 0 
L 581 0 
L 581 3500 
L 1159 3500 
L 1159 2956 
Q 1356 3278 1631 3431 
Q 1906 3584 2284 3584 
Q 2666 3584 2933 3390 
Q 3200 3197 3328 2828 
z
" transform="scale(0.015625)"/>
        <path id="DejaVuSans-6c" d="M 603 4863 
L 1178 4863 
L 1178 0 
L 603 0 
L 603 4863 
z
" transform="scale(0.015625)"/>
        <path id="DejaVuSans-6b" d="M 581 4863 
L 1159 4863 
L 1159 1991 
L 2875 3500 
L 3609 3500 
L 1753 1863 
L 3688 0 
L 2938 0 
L 1159 1709 
L 1159 0 
L 581 0 
L 581 4863 
z
" transform="scale(0.015625)"/>
        <path id="DejaVuSans-65" d="M 3597 1894 
L 3597 1613 
L 953 1613 
Q 991 1019 1311 708 
Q 1631 397 2203 397 
Q 2534 397 2845 478 
Q 3156 559 3463 722 
L 3463 178 
Q 3153 47 2828 -22 
Q 2503 -91 2169 -91 
Q 1331 -91 842 396 
Q 353 884 353 1716 
Q 353 2575 817 3079 
Q 1281 3584 2069 3584 
Q 2775 3584 3186 3129 
Q 3597 2675 3597 1894 
z
M 3022 2063 
Q 3016 2534 2758 2815 
Q 2500 3097 2075 3097 
Q 1594 3097 1305 2825 
Q 1016 2553 972 2059 
L 3022 2063 
z
" transform="scale(0.015625)"/>
       </defs>
       <use xlink:href="#DejaVuSans-70"/>
       <use xlink:href="#DejaVuSans-32" x="63.476562"/>
       <use xlink:href="#DejaVuSans-35" x="127.099609"/>
       <use xlink:href="#DejaVuSans-36" x="190.722656"/>
       <use xlink:href="#DejaVuSans-5f" x="254.345703"/>
       <use xlink:href="#DejaVuSans-6d" x="304.345703"/>
       <use xlink:href="#DejaVuSans-6c" x="401.757812"/>
       <use xlink:href="#DejaVuSans-6b" x="429.541016"/>
       <use xlink:href="#DejaVuSans-65" x="483.826172"/>
       <use xlink:href="#DejaVuSans-6d" x="545.349609"/>
       <use xlink:href="#DejaVuSans-35" x="642.761719"/>
       <use xlink:href="#DejaVuSans-31" x="706.384766"/>
       <use xlink:href="#DejaVuSans-32" x="770.007812"/>
      </g>
     </g>
    </g>
    <g id="xtick_4">
     <g id="text_4">
      <!-- x25519_mlkem512 -->
      <g style="fill: #262626" transform="translate(546.262437 415.277812) scale(0.14 -0.14)">
       <use xlink:href="#DejaVuSans-78"/>
       <use xlink:href="#DejaVuSans-32" x="59.179688"/>
       <use xlink:href="#DejaVuSans-35" x="122.802734"/>
       <use xlink:href="#DejaVuSans-35" x="186.425781"/>
       <use xlink:href="#DejaVuSans-31" x="250.048828"/>
       <use xlink:href="#DejaVuSans-39" x="313.671875"/>
       <use xlink:href="#DejaVuSans-5f" x="377.294922"/>
       <use xlink:href="#DejaVuSans-6d" x="427.294922"/>
       <use xlink:href="#DejaVuSans-6c" x="524.707031"/>
       <use xlink:href="#DejaVuSans-6b" x="552.490234"/>
       <use xlink:href="#DejaVuSans-65" x="606.775391"/>
       <use xlink:href="#DejaVuSans-6d" x="668.298828"/>
       <use xlink:href="#DejaVuSans-35" x="765.710938"/>
       <use xlink:href="#DejaVuSans-31" x="829.333984"/>
       <use xlink:href="#DejaVuSans-32" x="892.957031"/>
      </g>
     </g>
    </g>
    <g id="xtick_5">
     <g id="text_5">
      <!-- mlkem512 -->
      <g style="fill: #262626" transform="translate(734.718312 415.277812) scale(0.14 -0.14)">
       <use xlink:href="#DejaVuSans-6d"/>
       <use xlink:href="#DejaVuSans-6c" x="97.412109"/>
       <use xlink:href="#DejaVuSans-6b" x="125.195312"/>
       <use xlink:href="#DejaVuSans-65" x="179.480469"/>
       <use xlink:href="#DejaVuSans-6d" x="241.003906"/>
       <use xlink:href="#DejaVuSans-35" x="338.416016"/>
       <use xlink:href="#DejaVuSans-31" x="402.039062"/>
       <use xlink:href="#DejaVuSans-32" x="465.662109"/>
      </g>
     </g>
    </g>
   </g>
   <g id="matplotlib.axis_2">
    <g id="ytick_1">
     <g id="line2d_1">
      <path d="M 58.32 347.827963 
L 851.04 347.827963 
" clip-path="url(#pd3a906d0f9)" style="fill: none; stroke: #cccccc; stroke-linecap: round"/>
     </g>
     <g id="text_6">
      <!-- 805 -->
      <g style="fill: #262626" transform="translate(27.82375 352.007104) scale(0.11 -0.11)">
       <defs>
        <path id="DejaVuSans-38" d="M 2034 2216 
Q 1584 2216 1326 1975 
Q 1069 1734 1069 1313 
Q 1069 891 1326 650 
Q 1584 409 2034 409 
Q 2484 409 2743 651 
Q 3003 894 3003 1313 
Q 3003 1734 2745 1975 
Q 2488 2216 2034 2216 
z
M 1403 2484 
Q 997 2584 770 2862 
Q 544 3141 544 3541 
Q 544 4100 942 4425 
Q 1341 4750 2034 4750 
Q 2731 4750 3128 4425 
Q 3525 4100 3525 3541 
Q 3525 3141 3298 2862 
Q 3072 2584 2669 2484 
Q 3125 2378 3379 2068 
Q 3634 1759 3634 1313 
Q 3634 634 3220 271 
Q 2806 -91 2034 -91 
Q 1263 -91 848 271 
Q 434 634 434 1313 
Q 434 1759 690 2068 
Q 947 2378 1403 2484 
z
M 1172 3481 
Q 1172 3119 1398 2916 
Q 1625 2713 2034 2713 
Q 2441 2713 2670 2916 
Q 2900 3119 2900 3481 
Q 2900 3844 2670 4047 
Q 2441 4250 2034 4250 
Q 1625 4250 1398 4047 
Q 1172 3844 1172 3481 
z
" transform="scale(0.015625)"/>
        <path id="DejaVuSans-30" d="M 2034 4250 
Q 1547 4250 1301 3770 
Q 1056 3291 1056 2328 
Q 1056 1369 1301 889 
Q 1547 409 2034 409 
Q 2525 409 2770 889 
Q 3016 1369 3016 2328 
Q 3016 3291 2770 3770 
Q 2525 4250 2034 4250 
z
M 2034 4750 
Q 2819 4750 3233 4129 
Q 3647 3509 3647 2328 
Q 3647 1150 3233 529 
Q 2819 -91 2034 -91 
Q 1250 -91 836 529 
Q 422 1150 422 2328 
Q 422 3509 836 4129 
Q 1250 4750 2034 4750 
z
" transform="scale(0.015625)"/>
       </defs>
       <use xlink:href="#DejaVuSans-38"/>
       <use xlink:href="#DejaVuSans-30" x="63.623047"/>
       <use xlink:href="#DejaVuSans-35" x="127.246094"/>
      </g>
     </g>
    </g>
    <g id="ytick_2">
     <g id="line2d_2">
      <path d="M 58.32 299.701437 
L 851.04 299.701437 
" clip-path="url(#pd3a906d0f9)" style="fill: none; stroke: #cccccc; stroke-linecap: round"/>
     </g>
     <g id="text_7">
      <!-- 810 -->
      <g style="fill: #262626" transform="translate(27.82375 303.880578) scale(0.11 -0.11)">
       <use xlink:href="#DejaVuSans-38"/>
       <use xlink:href="#DejaVuSans-31" x="63.623047"/>
       <use xlink:href="#DejaVuSans-30" x="127.246094"/>
      </g>
     </g>
    </g>
    <g id="ytick_3">
     <g id="line2d_3">
      <path d="M 58.32 251.574912 
L 851.04 251.574912 
" clip-path="url(#pd3a906d0f9)" style="fill: none; stroke: #cccccc; stroke-linecap: round"/>
     </g>
     <g id="text_8">
      <!-- 815 -->
      <g style="fill: #262626" transform="translate(27.82375 255.754052) scale(0.11 -0.11)">
       <use xlink:href="#DejaVuSans-38"/>
       <use xlink:href="#DejaVuSans-31" x="63.623047"/>
       <use xlink:href="#DejaVuSans-35" x="127.246094"/>
      </g>
     </g>
    </g>
    <g id="ytick_4">
     <g id="line2d_4">
      <path d="M 58.32 203.448386 
L 851.04 203.448386 
" clip-path="url(#pd3a906d0f9)" style="fill: none; stroke: #cccccc; stroke-linecap: round"/>
     </g>
     <g id="text_9">
      <!-- 820 -->
      <g style="fill: #262626" transform="translate(27.82375 207.627526) scale(0.11 -0.11)">
       <use xlink:href="#DejaVuSans-38"/>
       <use xlink:href="#DejaVuSans-32" x="63.623047"/>
       <use xlink:href="#DejaVuSans-30" x="127.246094"/>
      </g>
     </g>
    </g>
    <g id="ytick_5">
     <g id="line2d_5">
      <path d="M 58.32 155.32186 
L 851.04 155.32186 
" clip-path="url(#pd3a906d0f9)" style="fill: none; stroke: #cccccc; stroke-linecap: round"/>
     </g>
     <g id="text_10">
      <!-- 825 -->
      <g style="fill: #262626" transform="translate(27.82375 159.501001) scale(0.11 -0.11)">
       <use xlink:href="#DejaVuSans-38"/>
       <use xlink:href="#DejaVuSans-32" x="63.623047"/>
       <use xlink:href="#DejaVuSans-35" x="127.246094"/>
      </g>
     </g>
    </g>
    <g id="ytick_6">
     <g id="line2d_6">
      <path d="M 58.32 107.195334 
L 851.04 107.195334 
" clip-path="url(#pd3a906d0f9)" style="fill: none; stroke: #cccccc; stroke-linecap: round"/>
     </g>
     <g id="text_11">
      <!-- 830 -->
      <g style="fill: #262626" transform="translate(27.82375 111.374475) scale(0.11 -0.11)">
       <defs>
        <path id="DejaVuSans-33" d="M 2597 2516 
Q 3050 2419 3304 2112 
Q 3559 1806 3559 1356 
Q 3559 666 3084 287 
Q 2609 -91 1734 -91 
Q 1441 -91 1130 -33 
Q 819 25 488 141 
L 488 750 
Q 750 597 1062 519 
Q 1375 441 1716 441 
Q 2309 441 2620 675 
Q 2931 909 2931 1356 
Q 2931 1769 2642 2001 
Q 2353 2234 1838 2234 
L 1294 2234 
L 1294 2753 
L 1863 2753 
Q 2328 2753 2575 2939 
Q 2822 3125 2822 3475 
Q 2822 3834 2567 4026 
Q 2313 4219 1838 4219 
Q 1578 4219 1281 4162 
Q 984 4106 628 3988 
L 628 4550 
Q 988 4650 1302 4700 
Q 1616 4750 1894 4750 
Q 2613 4750 3031 4423 
Q 3450 4097 3450 3541 
Q 3450 3153 3228 2886 
Q 3006 2619 2597 2516 
z
" transform="scale(0.015625)"/>
       </defs>
       <use xlink:href="#DejaVuSans-38"/>
       <use xlink:href="#DejaVuSans-33" x="63.623047"/>
       <use xlink:href="#DejaVuSans-30" x="127.246094"/>
      </g>
     </g>
    </g>
    <g id="ytick_7">
     <g id="line2d_7">
      <path d="M 58.32 59.068808 
L 851.04 59.068808 
" clip-path="url(#pd3a906d0f9)" style="fill: none; stroke: #cccccc; stroke-linecap: round"/>
     </g>
     <g id="text_12">
      <!-- 835 -->
      <g style="fill: #262626" transform="translate(27.82375 63.247949) scale(0.11 -0.11)">
       <use xlink:href="#DejaVuSans-38"/>
       <use xlink:href="#DejaVuSans-33" x="63.623047"/>
       <use xlink:href="#DejaVuSans-35" x="127.246094"/>
      </g>
     </g>
    </g>
    <g id="text_13">
     <!-- Handshake duration (ms) -->
     <g style="fill: #262626" transform="translate(21.328125 287.437813) rotate(-90) scale(0.12 -0.12)">
      <defs>
       <path id="DejaVuSans-48" d="M 628 4666 
L 1259 4666 
L 1259 2753 
L 3553 2753 
L 3553 4666 
L 4184 4666 
L 4184 0 
L 3553 0 
L 3553 2222 
L 1259 2222 
L 1259 0 
L 628 0 
L 628 4666 
z
" transform="scale(0.015625)"/>
       <path id="DejaVuSans-61" d="M 2194 1759 
Q 1497 1759 1228 1600 
Q 959 1441 959 1056 
Q 959 750 1161 570 
Q 1363 391 1709 391 
Q 2188 391 2477 730 
Q 2766 1069 2766 1631 
L 2766 1759 
L 2194 1759 
z
M 3341 1997 
L 3341 0 
L 2766 0 
L 2766 531 
Q 2569 213 2275 61 
Q 1981 -91 1556 -91 
Q 1019 -91 701 211 
Q 384 513 384 1019 
Q 384 1609 779 1909 
Q 1175 2209 1959 2209 
L 2766 2209 
L 2766 2266 
Q 2766 2663 2505 2880 
Q 2244 3097 1772 3097 
Q 1472 3097 1187 3025 
Q 903 2953 641 2809 
L 641 3341 
Q 956 3463 1253 3523 
Q 1550 3584 1831 3584 
Q 2591 3584 2966 3190 
Q 3341 2797 3341 1997 
z
" transform="scale(0.015625)"/>
       <path id="DejaVuSans-6e" d="M 3513 2113 
L 3513 0 
L 2938 0 
L 2938 2094 
Q 2938 2591 2744 2837 
Q 2550 3084 2163 3084 
Q 1697 3084 1428 2787 
Q 1159 2491 1159 1978 
L 1159 0 
L 581 0 
L 581 3500 
L 1159 3500 
L 1159 2956 
Q 1366 3272 1645 3428 
Q 1925 3584 2291 3584 
Q 2894 3584 3203 3211 
Q 3513 2838 3513 2113 
z
" transform="scale(0.015625)"/>
       <path id="DejaVuSans-64" d="M 2906 2969 
L 2906 4863 
L 3481 4863 
L 3481 0 
L 2906 0 
L 2906 525 
Q 2725 213 2448 61 
Q 2172 -91 1784 -91 
Q 1150 -91 751 415 
Q 353 922 353 1747 
Q 353 2572 751 3078 
Q 1150 3584 1784 3584 
Q 2172 3584 2448 3432 
Q 2725 3281 2906 2969 
z
M 947 1747 
Q 947 1113 1208 752 
Q 1469 391 1925 391 
Q 2381 391 2643 752 
Q 2906 1113 2906 1747 
Q 2906 2381 2643 2742 
Q 2381 3103 1925 3103 
Q 1469 3103 1208 2742 
Q 947 2381 947 1747 
z
" transform="scale(0.015625)"/>
       <path id="DejaVuSans-73" d="M 2834 3397 
L 2834 2853 
Q 2591 2978 2328 3040 
Q 2066 3103 1784 3103 
Q 1356 3103 1142 2972 
Q 928 2841 928 2578 
Q 928 2378 1081 2264 
Q 1234 2150 1697 2047 
L 1894 2003 
Q 2506 1872 2764 1633 
Q 3022 1394 3022 966 
Q 3022 478 2636 193 
Q 2250 -91 1575 -91 
Q 1294 -91 989 -36 
Q 684 19 347 128 
L 347 722 
Q 666 556 975 473 
Q 1284 391 1588 391 
Q 1994 391 2212 530 
Q 2431 669 2431 922 
Q 2431 1156 2273 1281 
Q 2116 1406 1581 1522 
L 1381 1569 
Q 847 1681 609 1914 
Q 372 2147 372 2553 
Q 372 3047 722 3315 
Q 1072 3584 1716 3584 
Q 2034 3584 2315 3537 
Q 2597 3491 2834 3397 
z
" transform="scale(0.015625)"/>
       <path id="DejaVuSans-68" d="M 3513 2113 
L 3513 0 
L 2938 0 
L 2938 2094 
Q 2938 2591 2744 2837 
Q 2550 3084 2163 3084 
Q 1697 3084 1428 2787 
Q 1159 2491 1159 1978 
L 1159 0 
L 581 0 
L 581 4863 
L 1159 4863 
L 1159 2956 
Q 1366 3272 1645 3428 
Q 1925 3584 2291 3584 
Q 2894 3584 3203 3211 
Q 3513 2838 3513 2113 
z
" transform="scale(0.015625)"/>
       <path id="DejaVuSans-20" transform="scale(0.015625)"/>
       <path id="DejaVuSans-75" d="M 544 1381 
L 544 3500 
L 1119 3500 
L 1119 1403 
Q 1119 906 1312 657 
Q 1506 409 1894 409 
Q 2359 409 2629 706 
Q 2900 1003 2900 1516 
L 2900 3500 
L 3475 3500 
L 3475 0 
L 2900 0 
L 2900 538 
Q 2691 219 2414 64 
Q 2138 -91 1772 -91 
Q 1169 -91 856 284 
Q 544 659 544 1381 
z
M 1991 3584 
L 1991 3584 
z
" transform="scale(0.015625)"/>
       <path id="DejaVuSans-72" d="M 2631 2963 
Q 2534 3019 2420 3045 
Q 2306 3072 2169 3072 
Q 1681 3072 1420 2755 
Q 1159 2438 1159 1844 
L 1159 0 
L 581 0 
L 581 3500 
L 1159 3500 
L 1159 2956 
Q 1341 3275 1631 3429 
Q 1922 3584 2338 3584 
Q 2397 3584 2469 3576 
Q 2541 3569 2628 3553 
L 2631 2963 
z
" transform="scale(0.015625)"/>
       <path id="DejaVuSans-74" d="M 1172 4494 
L 1172 3500 
L 2356 3500 
L 2356 3053 
L 1172 3053 
L 1172 1153 
Q 1172 725 1289 603 
Q 1406 481 1766 481 
L 2356 481 
L 2356 0 
L 1766 0 
Q 1100 0 847 248 
Q 594 497 594 1153 
L 594 3053 
L 172 3053 
L 172 3500 
L 594 3500 
L 594 4494 
L 1172 4494 
z
" transform="scale(0.015625)"/>
       <path id="DejaVuSans-69" d="M 603 3500 
L 1178 3500 
L 1178 0 
L 603 0 
L 603 3500 
z
M 603 4863 
L 1178 4863 
L 1178 4134 
L 603 4134 
L 603 4863 
z
" transform="scale(0.015625)"/>
       <path id="DejaVuSans-6f" d="M 1959 3097 
Q 1497 3097 1228 2736 
Q 959 2375 959 1747 
Q 959 1119 1226 758 
Q 1494 397 1959 397 
Q 2419 397 2687 759 
Q 2956 1122 2956 1747 
Q 2956 2369 2687 2733 
Q 2419 3097 1959 3097 
z
M 1959 3584 
Q 2709 3584 3137 3096 
Q 3566 2609 3566 1747 
Q 3566 888 3137 398 
Q 2709 -91 1959 -91 
Q 1206 -91 779 398 
Q 353 888 353 1747 
Q 353 2609 779 3096 
Q 1206 3584 1959 3584 
z
" transform="scale(0.015625)"/>
       <path id="DejaVuSans-28" d="M 1984 4856 
Q 1566 4138 1362 3434 
Q 1159 2731 1159 2009 
Q 1159 1288 1364 580 
Q 1569 -128 1984 -844 
L 1484 -844 
Q 1016 -109 783 600 
Q 550 1309 550 2009 
Q 550 2706 781 3412 
Q 1013 4119 1484 4856 
L 1984 4856 
z
" transform="scale(0.015625)"/>
       <path id="DejaVuSans-29" d="M 513 4856 
L 1013 4856 
Q 1481 4119 1714 3412 
Q 1947 2706 1947 2009 
Q 1947 1309 1714 600 
Q 1481 -109 1013 -844 
L 513 -844 
Q 928 -128 1133 580 
Q 1338 1288 1338 2009 
Q 1338 2731 1133 3434 
Q 928 4138 513 4856 
z
" transform="scale(0.015625)"/>
      </defs>
      <use xlink:href="#DejaVuSans-48"/>
      <use xlink:href="#DejaVuSans-61" x="75.195312"/>
      <use xlink:href="#DejaVuSans-6e" x="136.474609"/>
      <use xlink:href="#DejaVuSans-64" x="199.853516"/>
      <use xlink:href="#DejaVuSans-73" x="263.330078"/>
      <use xlink:href="#DejaVuSans-68" x="315.429688"/>
      <use xlink:href="#DejaVuSans-61" x="378.808594"/>
      <use xlink:href="#DejaVuSans-6b" x="440.087891"/>
      <use xlink:href="#DejaVuSans-65" x="494.373047"/>
      <use xlink:href="#DejaVuSans-20" x="555.896484"/>
      <use xlink:href="#DejaVuSans-64" x="587.683594"/>
      <use xlink:href="#DejaVuSans-75" x="651.160156"/>
      <use xlink:href="#DejaVuSans-72" x="714.539062"/>
      <use xlink:href="#DejaVuSans-61" x="755.652344"/>
      <use xlink:href="#DejaVuSans-74" x="816.931641"/>
      <use xlink:href="#DejaVuSans-69" x="856.140625"/>
      <use xlink:href="#DejaVuSans-6f" x="883.923828"/>
      <use xlink:href="#DejaVuSans-6e" x="945.105469"/>
      <use xlink:href="#DejaVuSans-20" x="1008.484375"/>
      <use xlink:href="#DejaVuSans-28" x="1040.271484"/>
      <use xlink:href="#DejaVuSans-6d" x="1079.285156"/>
      <use xlink:href="#DejaVuSans-73" x="1176.697266"/>
      <use xlink:href="#DejaVuSans-29" x="1228.796875"/>
     </g>
    </g>
   </g>
   <g id="PolyCollection_1">
    <defs>
     <path id="m9aa40a52af" d="M 137.699124 -71.991482 
L 137.484876 -71.991482 
L 137.373787 -72.561314 
L 137.204581 -73.131146 
L 136.991045 -73.700978 
L 136.773366 -74.27081 
L 136.602187 -74.840642 
L 136.507073 -75.410474 
L 136.473142 -75.980306 
L 136.449678 -76.550138 
L 136.388921 -77.11997 
L 136.284819 -77.689802 
L 136.179483 -78.259635 
L 136.132427 -78.829467 
L 136.178674 -79.399299 
L 136.309083 -79.969131 
L 136.484655 -80.538963 
L 136.666542 -81.108795 
L 136.83271 -81.678627 
L 136.969158 -82.248459 
L 137.049023 -82.818291 
L 137.021596 -83.388123 
L 136.821406 -83.957955 
L 136.390734 -84.527787 
L 135.699926 -85.09762 
L 134.750853 -85.667452 
L 133.55962 -86.237284 
L 132.131755 -86.807116 
L 130.453075 -87.376948 
L 128.508071 -87.94678 
L 126.310818 -88.516612 
L 123.917062 -89.086444 
L 121.399655 -89.656276 
L 118.80261 -90.226108 
L 116.107657 -90.79594 
L 113.231147 -91.365772 
L 110.041561 -91.935605 
L 106.387965 -92.505437 
L 102.151609 -93.075269 
L 97.326828 -93.645101 
L 92.091362 -94.214933 
L 86.803655 -94.784765 
L 81.919437 -95.354597 
L 77.900065 -95.924429 
L 75.181646 -96.494261 
L 74.1744 -97.064093 
L 75.194373 -97.633925 
L 78.305209 -98.203758 
L 83.191699 -98.77359 
L 89.212719 -99.343422 
L 95.634937 -99.913254 
L 101.88769 -100.483086 
L 107.674071 -101.052918 
L 112.909462 -101.62275 
L 117.587089 -102.192582 
L 121.6878 -102.762414 
L 125.176574 -103.332246 
L 128.043947 -103.902078 
L 130.325127 -104.47191 
L 132.073592 -105.041743 
L 133.326429 -105.611575 
L 134.110042 -106.181407 
L 134.487806 -106.751239 
L 134.599834 -107.321071 
L 134.643556 -107.890903 
L 134.794576 -108.460735 
L 135.123902 -109.030567 
L 135.577072 -109.600399 
L 136.030878 -110.170231 
L 136.380203 -110.740063 
L 136.591014 -111.309895 
L 136.695407 -111.879728 
L 136.75312 -112.44956 
L 136.816031 -113.019392 
L 136.911659 -113.589224 
L 137.04172 -114.159056 
L 137.188768 -114.728888 
L 137.327755 -115.29872 
L 137.438595 -115.868552 
L 137.51363 -116.438384 
L 137.556929 -117.008216 
L 137.578293 -117.578048 
L 137.587326 -118.14788 
L 137.590584 -118.717713 
L 137.591488 -119.287545 
L 137.591269 -119.857377 
L 137.589615 -120.427209 
L 137.584506 -120.997041 
L 137.571428 -121.566873 
L 137.542931 -122.136705 
L 137.490337 -122.706537 
L 137.409046 -123.276369 
L 137.306012 -123.846201 
L 137.203693 -124.416033 
L 137.134041 -124.985865 
L 137.122862 -125.555698 
L 137.174557 -126.12553 
L 137.26936 -126.695362 
L 137.375398 -127.265194 
L 137.465693 -127.835026 
L 137.528024 -128.404858 
L 137.655976 -128.404858 
L 137.655976 -128.404858 
L 137.718307 -127.835026 
L 137.808602 -127.265194 
L 137.91464 -126.695362 
L 138.009443 -126.12553 
L 138.061138 -125.555698 
L 138.049959 -124.985865 
L 137.980307 -124.416033 
L 137.877988 -123.846201 
L 137.774954 -123.276369 
L 137.693663 -122.706537 
L 137.641069 -122.136705 
L 137.612572 -121.566873 
L 137.599494 -120.997041 
L 137.594385 -120.427209 
L 137.592731 -119.857377 
L 137.592512 -119.287545 
L 137.593416 -118.717713 
L 137.596674 -118.14788 
L 137.605707 -117.578048 
L 137.627071 -117.008216 
L 137.67037 -116.438384 
L 137.745405 -115.868552 
L 137.856245 -115.29872 
L 137.995232 -114.728888 
L 138.14228 -114.159056 
L 138.272341 -113.589224 
L 138.367969 -113.019392 
L 138.43088 -112.44956 
L 138.488593 -111.879728 
L 138.592986 -111.309895 
L 138.803797 -110.740063 
L 139.153122 -110.170231 
L 139.606928 -109.600399 
L 140.060098 -109.030567 
L 140.389424 -108.460735 
L 140.540444 -107.890903 
L 140.584166 -107.321071 
L 140.696194 -106.751239 
L 141.073958 -106.181407 
L 141.857571 -105.611575 
L 143.110408 -105.041743 
L 144.858873 -104.47191 
L 147.140053 -103.902078 
L 150.007426 -103.332246 
L 153.4962 -102.762414 
L 157.596911 -102.192582 
L 162.274538 -101.62275 
L 167.509929 -101.052918 
L 173.29631 -100.483086 
L 179.549063 -99.913254 
L 185.971281 -99.343422 
L 191.992301 -98.77359 
L 196.878791 -98.203758 
L 199.989627 -97.633925 
L 201.0096 -97.064093 
L 200.002354 -96.494261 
L 197.283935 -95.924429 
L 193.264563 -95.354597 
L 188.380345 -94.784765 
L 183.092638 -94.214933 
L 177.857172 -93.645101 
L 173.032391 -93.075269 
L 168.796035 -92.505437 
L 165.142439 -91.935605 
L 161.952853 -91.365772 
L 159.076343 -90.79594 
L 156.38139 -90.226108 
L 153.784345 -89.656276 
L 151.266938 -89.086444 
L 148.873182 -88.516612 
L 146.675929 -87.94678 
L 144.730925 -87.376948 
L 143.052245 -86.807116 
L 141.62438 -86.237284 
L 140.433147 -85.667452 
L 139.484074 -85.09762 
L 138.793266 -84.527787 
L 138.362594 -83.957955 
L 138.162404 -83.388123 
L 138.134977 -82.818291 
L 138.214842 -82.248459 
L 138.35129 -81.678627 
L 138.517458 -81.108795 
L 138.699345 -80.538963 
L 138.874917 -79.969131 
L 139.005326 -79.399299 
L 139.051573 -78.829467 
L 139.004517 -78.259635 
L 138.899181 -77.689802 
L 138.795079 -77.11997 
L 138.734322 -76.550138 
L 138.710858 -75.980306 
L 138.676927 -75.410474 
L 138.581813 -74.840642 
L 138.410634 -74.27081 
L 138.192955 -73.700978 
L 137.979419 -73.131146 
L 137.810213 -72.561314 
L 137.699124 -71.991482 
z
" style="stroke: #595959; stroke-width: 1.25"/>
    </defs>
    <g clip-path="url(#pd3a906d0f9)">
     <use xlink:href="#m9aa40a52af" x="0" y="432" style="fill: #72b6a1; stroke: #595959; stroke-width: 1.25"/>
    </g>
   </g>
   <g id="PolyCollection_2">
    <defs>
     <path id="m04d3b4672b" d="M 296.279715 -56.928015 
L 295.992285 -56.928015 
L 295.870726 -57.708823 
L 295.68934 -58.489632 
L 295.448647 -59.27044 
L 295.166442 -60.051248 
L 294.876783 -60.832056 
L 294.620113 -61.612865 
L 294.428121 -62.393673 
L 294.311702 -63.174481 
L 294.25935 -63.955289 
L 294.24641 -64.736097 
L 294.248136 -65.516906 
L 294.247939 -66.297714 
L 294.237796 -67.078522 
L 294.21468 -67.85933 
L 294.178636 -68.640139 
L 294.133459 -69.420947 
L 294.085601 -70.201755 
L 294.037189 -70.982563 
L 293.975286 -71.763372 
L 293.865676 -72.54418 
L 293.658663 -73.324988 
L 293.30657 -74.105796 
L 292.784016 -74.886605 
L 292.099636 -75.667413 
L 291.292937 -76.448221 
L 290.417811 -77.229029 
L 289.519475 -78.009838 
L 288.612521 -78.790646 
L 287.666131 -79.571454 
L 286.600565 -80.352262 
L 285.297132 -81.133071 
L 283.620599 -81.913879 
L 281.448007 -82.694687 
L 278.693676 -83.475495 
L 275.320998 -84.256304 
L 271.339149 -85.037112 
L 266.793121 -85.81792 
L 261.760648 -86.598728 
L 256.364995 -87.379537 
L 250.800365 -88.160345 
L 245.354507 -88.941153 
L 240.408209 -89.721961 
L 236.396816 -90.50277 
L 233.73408 -91.283578 
L 232.7184 -92.064386 
L 233.456795 -92.845194 
L 235.84126 -93.626003 
L 239.590313 -94.406811 
L 244.334984 -95.187619 
L 249.705233 -95.968427 
L 255.377783 -96.749236 
L 261.077108 -97.530044 
L 266.55415 -98.310852 
L 271.577569 -99.09166 
L 275.954171 -99.872469 
L 279.565562 -100.653277 
L 282.391325 -101.434085 
L 284.497585 -102.214893 
L 285.99592 -102.995702 
L 286.999823 -103.77651 
L 287.606714 -104.557318 
L 287.91193 -105.338126 
L 288.034656 -106.118935 
L 288.125677 -106.899743 
L 288.341305 -107.680551 
L 288.795113 -108.461359 
L 289.517284 -109.242168 
L 290.447012 -110.022976 
L 291.461716 -110.803784 
L 292.425438 -111.584592 
L 293.232258 -112.365401 
L 293.82937 -113.146209 
L 294.218258 -113.927017 
L 294.441291 -114.707825 
L 294.562257 -115.488634 
L 294.646809 -116.269442 
L 294.746534 -117.05025 
L 294.889322 -117.831058 
L 295.077646 -118.611867 
L 295.294272 -119.392675 
L 295.51253 -120.173483 
L 295.706908 -120.954291 
L 295.860162 -121.7351 
L 295.965238 -122.515908 
L 296.022863 -123.296716 
L 296.037469 -124.077524 
L 296.014327 -124.858333 
L 295.959492 -125.639141 
L 295.882023 -126.419949 
L 295.796165 -127.200757 
L 295.720772 -127.981566 
L 295.674893 -128.762374 
L 295.671173 -129.543182 
L 295.71077 -130.32399 
L 295.783007 -131.104799 
L 295.870105 -131.885607 
L 295.954259 -132.666415 
L 296.023282 -133.447223 
L 296.072565 -134.228032 
L 296.199435 -134.228032 
L 296.199435 -134.228032 
L 296.248718 -133.447223 
L 296.317741 -132.666415 
L 296.401895 -131.885607 
L 296.488993 -131.104799 
L 296.56123 -130.32399 
L 296.600827 -129.543182 
L 296.597107 -128.762374 
L 296.551228 -127.981566 
L 296.475835 -127.200757 
L 296.389977 -126.419949 
L 296.312508 -125.639141 
L 296.257673 -124.858333 
L 296.234531 -124.077524 
L 296.249137 -123.296716 
L 296.306762 -122.515908 
L 296.411838 -121.7351 
L 296.565092 -120.954291 
L 296.75947 -120.173483 
L 296.977728 -119.392675 
L 297.194354 -118.611867 
L 297.382678 -117.831058 
L 297.525466 -117.05025 
L 297.625191 -116.269442 
L 297.709743 -115.488634 
L 297.830709 -114.707825 
L 298.053742 -113.927017 
L 298.44263 -113.146209 
L 299.039742 -112.365401 
L 299.846562 -111.584592 
L 300.810284 -110.803784 
L 301.824988 -110.022976 
L 302.754716 -109.242168 
L 303.476887 -108.461359 
L 303.930695 -107.680551 
L 304.146323 -106.899743 
L 304.237344 -106.118935 
L 304.36007 -105.338126 
L 304.665286 -104.557318 
L 305.272177 -103.77651 
L 306.27608 -102.995702 
L 307.774415 -102.214893 
L 309.880675 -101.434085 
L 312.706438 -100.653277 
L 316.317829 -99.872469 
L 320.694431 -99.09166 
L 325.71785 -98.310852 
L 331.194892 -97.530044 
L 336.894217 -96.749236 
L 342.566767 -95.968427 
L 347.937016 -95.187619 
L 352.681687 -94.406811 
L 356.43074 -93.626003 
L 358.815205 -92.845194 
L 359.5536 -92.064386 
L 358.53792 -91.283578 
L 355.875184 -90.50277 
L 351.863791 -89.721961 
L 346.917493 -88.941153 
L 341.471635 -88.160345 
L 335.907005 -87.379537 
L 330.511352 -86.598728 
L 325.478879 -85.81792 
L 320.932851 -85.037112 
L 316.951002 -84.256304 
L 313.578324 -83.475495 
L 310.823993 -82.694687 
L 308.651401 -81.913879 
L 306.974868 -81.133071 
L 305.671435 -80.352262 
L 304.605869 -79.571454 
L 303.659479 -78.790646 
L 302.752525 -78.009838 
L 301.854189 -77.229029 
L 300.979063 -76.448221 
L 300.172364 -75.667413 
L 299.487984 -74.886605 
L 298.96543 -74.105796 
L 298.613337 -73.324988 
L 298.406324 -72.54418 
L 298.296714 -71.763372 
L 298.234811 -70.982563 
L 298.186399 -70.201755 
L 298.138541 -69.420947 
L 298.093364 -68.640139 
L 298.05732 -67.85933 
L 298.034204 -67.078522 
L 298.024061 -66.297714 
L 298.023864 -65.516906 
L 298.02559 -64.736097 
L 298.01265 -63.955289 
L 297.960298 -63.174481 
L 297.843879 -62.393673 
L 297.651887 -61.612865 
L 297.395217 -60.832056 
L 297.105558 -60.051248 
L 296.823353 -59.27044 
L 296.58266 -58.489632 
L 296.401274 -57.708823 
L 296.279715 -56.928015 
z
" style="stroke: #595959; stroke-width: 1.25"/>
    </defs>
    <g clip-path="url(#pd3a906d0f9)">
     <use xlink:href="#m04d3b4672b" x="0" y="432" style="fill: #e99675; stroke: #595959; stroke-width: 1.25"/>
    </g>
   </g>
   <g id="PolyCollection_3">
    <defs>
     <path id="m0c0aa39619" d="M 454.753523 -165.373885 
L 454.606477 -165.373885 
L 454.549654 -167.619539 
L 454.466127 -169.865193 
L 454.354962 -172.110847 
L 454.22208 -174.356501 
L 454.081416 -176.602155 
L 453.9531 -178.847809 
L 453.858284 -181.093463 
L 453.811708 -183.339117 
L 453.814396 -185.584771 
L 453.848977 -187.830425 
L 453.879245 -190.076079 
L 453.854099 -192.321733 
L 453.714927 -194.567387 
L 453.405161 -196.813041 
L 452.880719 -199.058695 
L 452.119778 -201.304349 
L 451.129719 -203.550004 
L 449.948924 -205.795658 
L 448.642249 -208.041312 
L 447.291258 -210.286966 
L 445.982293 -212.53262 
L 444.79565 -214.778274 
L 443.79764 -217.023928 
L 443.03563 -219.269582 
L 442.535917 -221.515236 
L 442.304887 -223.76089 
L 442.333489 -226.006544 
L 442.602856 -228.252198 
L 443.086838 -230.497852 
L 443.748354 -232.743506 
L 444.531203 -234.98916 
L 445.353614 -237.234814 
L 446.109338 -239.480468 
L 446.675663 -241.726123 
L 446.920022 -243.971777 
L 446.695293 -246.217431 
L 445.822239 -248.463085 
L 444.072323 -250.708739 
L 441.175649 -252.954393 
L 436.876899 -255.200047 
L 431.042249 -257.445701 
L 423.788594 -259.691355 
L 415.578924 -261.937009 
L 407.223039 -264.182663 
L 399.751256 -266.428317 
L 394.182551 -268.673971 
L 391.2624 -270.919625 
L 391.268892 -273.165279 
L 393.961925 -275.410933 
L 398.689226 -277.656587 
L 404.596966 -279.902242 
L 410.856659 -282.147896 
L 416.829469 -284.39355 
L 422.132095 -286.639204 
L 426.616573 -288.884858 
L 430.304268 -291.130512 
L 433.314319 -293.376166 
L 435.808317 -295.62182 
L 437.953049 -297.867474 
L 439.893517 -300.113128 
L 441.730848 -302.358782 
L 443.50754 -304.604436 
L 445.207135 -306.85009 
L 446.772187 -309.095744 
L 448.135646 -311.341398 
L 449.252839 -313.587052 
L 450.120318 -315.832706 
L 450.774857 -318.078361 
L 451.276182 -320.324015 
L 451.684201 -322.569669 
L 452.041929 -324.815323 
L 452.370015 -327.060977 
L 452.671933 -329.306631 
L 452.94424 -331.552285 
L 453.18554 -333.797939 
L 453.40022 -336.043593 
L 453.596682 -338.289247 
L 453.782647 -340.534901 
L 453.961017 -342.780555 
L 454.128628 -345.026209 
L 454.278106 -347.271863 
L 454.401264 -349.517517 
L 454.491995 -351.763171 
L 454.547455 -354.008825 
L 454.567682 -356.25448 
L 454.554802 -358.500134 
L 454.512929 -360.745788 
L 454.449054 -362.991442 
L 454.374049 -365.237096 
L 454.302385 -367.48275 
L 454.249651 -369.728404 
L 454.228368 -371.974058 
L 454.243896 -374.219712 
L 454.292628 -376.465366 
L 454.363504 -378.71102 
L 454.442152 -380.956674 
L 454.515593 -383.202328 
L 454.575472 -385.447982 
L 454.618874 -387.693636 
L 454.741126 -387.693636 
L 454.741126 -387.693636 
L 454.784528 -385.447982 
L 454.844407 -383.202328 
L 454.917848 -380.956674 
L 454.996496 -378.71102 
L 455.067372 -376.465366 
L 455.116104 -374.219712 
L 455.131632 -371.974058 
L 455.110349 -369.728404 
L 455.057615 -367.48275 
L 454.985951 -365.237096 
L 454.910946 -362.991442 
L 454.847071 -360.745788 
L 454.805198 -358.500134 
L 454.792318 -356.25448 
L 454.812545 -354.008825 
L 454.868005 -351.763171 
L 454.958736 -349.517517 
L 455.081894 -347.271863 
L 455.231372 -345.026209 
L 455.398983 -342.780555 
L 455.577353 -340.534901 
L 455.763318 -338.289247 
L 455.95978 -336.043593 
L 456.17446 -333.797939 
L 456.41576 -331.552285 
L 456.688067 -329.306631 
L 456.989985 -327.060977 
L 457.318071 -324.815323 
L 457.675799 -322.569669 
L 458.083818 -320.324015 
L 458.585143 -318.078361 
L 459.239682 -315.832706 
L 460.107161 -313.587052 
L 461.224354 -311.341398 
L 462.587813 -309.095744 
L 464.152865 -306.85009 
L 465.85246 -304.604436 
L 467.629152 -302.358782 
L 469.466483 -300.113128 
L 471.406951 -297.867474 
L 473.551683 -295.62182 
L 476.045681 -293.376166 
L 479.055732 -291.130512 
L 482.743427 -288.884858 
L 487.227905 -286.639204 
L 492.530531 -284.39355 
L 498.503341 -282.147896 
L 504.763034 -279.902242 
L 510.670774 -277.656587 
L 515.398075 -275.410933 
L 518.091108 -273.165279 
L 518.0976 -270.919625 
L 515.177449 -268.673971 
L 509.608744 -266.428317 
L 502.136961 -264.182663 
L 493.781076 -261.937009 
L 485.571406 -259.691355 
L 478.317751 -257.445701 
L 472.483101 -255.200047 
L 468.184351 -252.954393 
L 465.287677 -250.708739 
L 463.537761 -248.463085 
L 462.664707 -246.217431 
L 462.439978 -243.971777 
L 462.684337 -241.726123 
L 463.250662 -239.480468 
L 464.006386 -237.234814 
L 464.828797 -234.98916 
L 465.611646 -232.743506 
L 466.273162 -230.497852 
L 466.757144 -228.252198 
L 467.026511 -226.006544 
L 467.055113 -223.76089 
L 466.824083 -221.515236 
L 466.32437 -219.269582 
L 465.56236 -217.023928 
L 464.56435 -214.778274 
L 463.377707 -212.53262 
L 462.068742 -210.286966 
L 460.717751 -208.041312 
L 459.411076 -205.795658 
L 458.230281 -203.550004 
L 457.240222 -201.304349 
L 456.479281 -199.058695 
L 455.954839 -196.813041 
L 455.645073 -194.567387 
L 455.505901 -192.321733 
L 455.480755 -190.076079 
L 455.511023 -187.830425 
L 455.545604 -185.584771 
L 455.548292 -183.339117 
L 455.501716 -181.093463 
L 455.4069 -178.847809 
L 455.278584 -176.602155 
L 455.13792 -174.356501 
L 455.005038 -172.110847 
L 454.893873 -169.865193 
L 454.810346 -167.619539 
L 454.753523 -165.373885 
z
" style="stroke: #595959; stroke-width: 1.25"/>
    </defs>
    <g clip-path="url(#pd3a906d0f9)">
     <use xlink:href="#m0c0aa39619" x="0" y="432" style="fill: #95a3c3; stroke: #595959; stroke-width: 1.25"/>
    </g>
   </g>
   <g id="PolyCollection_4">
    <defs>
     <path id="m6f7f231bb8" d="M 613.311984 -72.233038 
L 613.136016 -72.233038 
L 613.049467 -72.925355 
L 612.923861 -73.617672 
L 612.776381 -74.30999 
L 612.644353 -75.002307 
L 612.569833 -75.694624 
L 612.573427 -76.386942 
L 612.635496 -77.079259 
L 612.700661 -77.771576 
L 612.704969 -78.463894 
L 612.609852 -79.156211 
L 612.424789 -79.848528 
L 612.207695 -80.540845 
L 612.041509 -81.233163 
L 611.996081 -81.92548 
L 612.094316 -82.617797 
L 612.301676 -83.310115 
L 612.543569 -84.002432 
L 612.736214 -84.694749 
L 612.810805 -85.387067 
L 612.722878 -86.079384 
L 612.453588 -86.771701 
L 612.009245 -87.464019 
L 611.41181 -88.156336 
L 610.669128 -88.848653 
L 609.735655 -89.540971 
L 608.503892 -90.233288 
L 606.860711 -90.925605 
L 604.785438 -91.617922 
L 602.404573 -92.31024 
L 599.926184 -93.002557 
L 597.475404 -93.694874 
L 594.962485 -94.387192 
L 592.117537 -95.079509 
L 588.688798 -95.771826 
L 584.642532 -96.464144 
L 580.189116 -97.156461 
L 575.61671 -97.848778 
L 571.084655 -98.541096 
L 566.556256 -99.233413 
L 561.937678 -99.92573 
L 557.339243 -100.618048 
L 553.264102 -101.310365 
L 550.5191 -102.002682 
L 549.8064 -102.694999 
L 551.241997 -103.387317 
L 554.199594 -104.079634 
L 557.666861 -104.771951 
L 560.865425 -105.464269 
L 563.656523 -106.156586 
L 566.464331 -106.848903 
L 569.860966 -107.541221 
L 574.16394 -108.233538 
L 579.280456 -108.925855 
L 584.801455 -109.618173 
L 590.216159 -110.31049 
L 595.111555 -111.002807 
L 599.272454 -111.695125 
L 602.667105 -112.387442 
L 605.367872 -113.079759 
L 607.477587 -113.772076 
L 609.097336 -114.464394 
L 610.322813 -115.156711 
L 611.241914 -115.849028 
L 611.925607 -116.541346 
L 612.422439 -117.233663 
L 612.763922 -117.92598 
L 612.974609 -118.618298 
L 613.076344 -119.310615 
L 613.084497 -120.002932 
L 613.004173 -120.69525 
L 612.836059 -121.387567 
L 612.593413 -122.079884 
L 612.31928 -122.772202 
L 612.086529 -123.464519 
L 611.972037 -124.156836 
L 612.017769 -124.849153 
L 612.206773 -125.541471 
L 612.473335 -126.233788 
L 612.739454 -126.926105 
L 612.95057 -127.618423 
L 613.089194 -128.31074 
L 613.165947 -129.003057 
L 613.202039 -129.695375 
L 613.216106 -130.387692 
L 613.21911 -131.080009 
L 613.214249 -131.772327 
L 613.197952 -132.464644 
L 613.160914 -133.156961 
L 613.091101 -133.849278 
L 612.981273 -134.541596 
L 612.839755 -135.233913 
L 612.69679 -135.92623 
L 612.597034 -136.618548 
L 612.577767 -137.310865 
L 612.646678 -138.003182 
L 612.776974 -138.6955 
L 612.923993 -139.387817 
L 613.049492 -140.080134 
L 613.13602 -140.772452 
L 613.31198 -140.772452 
L 613.31198 -140.772452 
L 613.398508 -140.080134 
L 613.524007 -139.387817 
L 613.671026 -138.6955 
L 613.801322 -138.003182 
L 613.870233 -137.310865 
L 613.850966 -136.618548 
L 613.75121 -135.92623 
L 613.608245 -135.233913 
L 613.466727 -134.541596 
L 613.356899 -133.849278 
L 613.287086 -133.156961 
L 613.250048 -132.464644 
L 613.233751 -131.772327 
L 613.22889 -131.080009 
L 613.231894 -130.387692 
L 613.245961 -129.695375 
L 613.282053 -129.003057 
L 613.358806 -128.31074 
L 613.49743 -127.618423 
L 613.708546 -126.926105 
L 613.974665 -126.233788 
L 614.241227 -125.541471 
L 614.430231 -124.849153 
L 614.475963 -124.156836 
L 614.361471 -123.464519 
L 614.12872 -122.772202 
L 613.854587 -122.079884 
L 613.611941 -121.387567 
L 613.443827 -120.69525 
L 613.363503 -120.002932 
L 613.371656 -119.310615 
L 613.473391 -118.618298 
L 613.684078 -117.92598 
L 614.025561 -117.233663 
L 614.522393 -116.541346 
L 615.206086 -115.849028 
L 616.125187 -115.156711 
L 617.350664 -114.464394 
L 618.970413 -113.772076 
L 621.080128 -113.079759 
L 623.780895 -112.387442 
L 627.175546 -111.695125 
L 631.336445 -111.002807 
L 636.231841 -110.31049 
L 641.646545 -109.618173 
L 647.167544 -108.925855 
L 652.28406 -108.233538 
L 656.587034 -107.541221 
L 659.983669 -106.848903 
L 662.791477 -106.156586 
L 665.582575 -105.464269 
L 668.781139 -104.771951 
L 672.248406 -104.079634 
L 675.206003 -103.387317 
L 676.6416 -102.694999 
L 675.9289 -102.002682 
L 673.183898 -101.310365 
L 669.108757 -100.618048 
L 664.510322 -99.92573 
L 659.891744 -99.233413 
L 655.363345 -98.541096 
L 650.83129 -97.848778 
L 646.258884 -97.156461 
L 641.805468 -96.464144 
L 637.759202 -95.771826 
L 634.330463 -95.079509 
L 631.485515 -94.387192 
L 628.972596 -93.694874 
L 626.521816 -93.002557 
L 624.043427 -92.31024 
L 621.662562 -91.617922 
L 619.587289 -90.925605 
L 617.944108 -90.233288 
L 616.712345 -89.540971 
L 615.778872 -88.848653 
L 615.03619 -88.156336 
L 614.438755 -87.464019 
L 613.994412 -86.771701 
L 613.725122 -86.079384 
L 613.637195 -85.387067 
L 613.711786 -84.694749 
L 613.904431 -84.002432 
L 614.146324 -83.310115 
L 614.353684 -82.617797 
L 614.451919 -81.92548 
L 614.406491 -81.233163 
L 614.240305 -80.540845 
L 614.023211 -79.848528 
L 613.838148 -79.156211 
L 613.743031 -78.463894 
L 613.747339 -77.771576 
L 613.812504 -77.079259 
L 613.874573 -76.386942 
L 613.878167 -75.694624 
L 613.803647 -75.002307 
L 613.671619 -74.30999 
L 613.524139 -73.617672 
L 613.398533 -72.925355 
L 613.311984 -72.233038 
z
" style="stroke: #595959; stroke-width: 1.25"/>
    </defs>
    <g clip-path="url(#pd3a906d0f9)">
     <use xlink:href="#m6f7f231bb8" x="0" y="432" style="fill: #db96c0; stroke: #595959; stroke-width: 1.25"/>
    </g>
   </g>
   <g id="PolyCollection_5">
    <defs>
     <path id="m624e132305" d="M 771.857646 -53.566364 
L 771.678354 -53.566364 
L 771.59873 -54.200216 
L 771.484009 -54.834069 
L 771.343724 -55.467921 
L 771.20113 -56.101774 
L 771.085017 -56.735626 
L 771.014704 -57.369478 
L 770.988579 -58.003331 
L 770.986719 -58.637183 
L 770.98761 -59.271036 
L 770.986224 -59.904888 
L 770.99827 -60.538741 
L 771.046947 -61.172593 
L 771.143524 -61.806446 
L 771.277439 -62.440298 
L 771.422211 -63.074151 
L 771.550291 -63.708003 
L 771.644891 -64.341856 
L 771.701998 -64.975708 
L 771.723893 -65.609561 
L 771.709562 -66.243413 
L 771.64681 -66.877266 
L 771.509332 -67.511118 
L 771.261634 -68.144971 
L 770.873626 -68.778823 
L 770.341797 -69.412675 
L 769.70668 -70.046528 
L 769.053525 -70.68038 
L 768.490691 -71.314233 
L 768.114419 -71.948085 
L 767.977102 -72.581938 
L 768.071535 -73.21579 
L 768.332493 -73.849643 
L 768.651421 -74.483495 
L 768.901504 -75.117348 
L 768.969344 -75.7512 
L 768.781604 -76.385053 
L 768.309593 -77.018905 
L 767.543339 -77.652758 
L 766.446001 -78.28661 
L 764.91408 -78.920463 
L 762.768147 -79.554315 
L 759.786816 -80.188168 
L 755.782136 -80.82202 
L 750.697168 -81.455872 
L 744.684229 -82.089725 
L 738.110708 -82.723577 
L 731.467122 -83.35743 
L 725.219997 -83.991282 
L 719.704958 -84.625135 
L 715.126666 -85.258987 
L 711.631939 -85.89284 
L 709.35165 -86.526692 
L 708.3504 -87.160545 
L 708.537704 -87.794397 
L 709.649661 -88.42825 
L 711.341794 -89.062102 
L 713.321397 -89.695955 
L 715.416711 -90.329807 
L 717.555609 -90.96366 
L 719.715277 -91.597512 
L 721.911072 -92.231365 
L 724.224092 -92.865217 
L 726.810852 -93.49907 
L 729.855611 -94.132922 
L 733.485672 -94.766774 
L 737.701707 -95.400627 
L 742.355866 -96.034479 
L 747.177862 -96.668332 
L 751.837036 -97.302184 
L 756.026739 -97.936037 
L 759.54574 -98.569889 
L 762.34017 -99.203742 
L 764.483722 -99.837594 
L 766.111365 -100.471447 
L 767.350273 -101.105299 
L 768.28643 -101.739152 
L 768.973977 -102.373004 
L 769.464119 -103.006857 
L 769.822694 -103.640709 
L 770.121752 -104.274562 
L 770.414963 -104.908414 
L 770.71923 -105.542267 
L 771.017105 -106.176119 
L 771.276249 -106.809971 
L 771.470316 -107.443824 
L 771.588533 -108.077676 
L 771.632854 -108.711529 
L 771.610692 -109.345381 
L 771.531814 -109.979234 
L 771.411813 -110.613086 
L 771.277228 -111.246939 
L 771.164479 -111.880791 
L 771.10902 -112.514644 
L 771.129833 -113.148496 
L 771.220006 -113.782349 
L 771.350773 -114.416201 
L 771.486343 -115.050054 
L 771.599415 -115.683906 
L 771.678532 -116.317759 
L 771.857468 -116.317759 
L 771.857468 -116.317759 
L 771.936585 -115.683906 
L 772.049657 -115.050054 
L 772.185227 -114.416201 
L 772.315994 -113.782349 
L 772.406167 -113.148496 
L 772.42698 -112.514644 
L 772.371521 -111.880791 
L 772.258772 -111.246939 
L 772.124187 -110.613086 
L 772.004186 -109.979234 
L 771.925308 -109.345381 
L 771.903146 -108.711529 
L 771.947467 -108.077676 
L 772.065684 -107.443824 
L 772.259751 -106.809971 
L 772.518895 -106.176119 
L 772.81677 -105.542267 
L 773.121037 -104.908414 
L 773.414248 -104.274562 
L 773.713306 -103.640709 
L 774.071881 -103.006857 
L 774.562023 -102.373004 
L 775.24957 -101.739152 
L 776.185727 -101.105299 
L 777.424635 -100.471447 
L 779.052278 -99.837594 
L 781.19583 -99.203742 
L 783.99026 -98.569889 
L 787.509261 -97.936037 
L 791.698964 -97.302184 
L 796.358138 -96.668332 
L 801.180134 -96.034479 
L 805.834293 -95.400627 
L 810.050328 -94.766774 
L 813.680389 -94.132922 
L 816.725148 -93.49907 
L 819.311908 -92.865217 
L 821.624928 -92.231365 
L 823.820723 -91.597512 
L 825.980391 -90.96366 
L 828.119289 -90.329807 
L 830.214603 -89.695955 
L 832.194206 -89.062102 
L 833.886339 -88.42825 
L 834.998296 -87.794397 
L 835.1856 -87.160545 
L 834.18435 -86.526692 
L 831.904061 -85.89284 
L 828.409334 -85.258987 
L 823.831042 -84.625135 
L 818.316003 -83.991282 
L 812.068878 -83.35743 
L 805.425292 -82.723577 
L 798.851771 -82.089725 
L 792.838832 -81.455872 
L 787.753864 -80.82202 
L 783.749184 -80.188168 
L 780.767853 -79.554315 
L 778.62192 -78.920463 
L 777.089999 -78.28661 
L 775.992661 -77.652758 
L 775.226407 -77.018905 
L 774.754396 -76.385053 
L 774.566656 -75.7512 
L 774.634496 -75.117348 
L 774.884579 -74.483495 
L 775.203507 -73.849643 
L 775.464465 -73.21579 
L 775.558898 -72.581938 
L 775.421581 -71.948085 
L 775.045309 -71.314233 
L 774.482475 -70.68038 
L 773.82932 -70.046528 
L 773.194203 -69.412675 
L 772.662374 -68.778823 
L 772.274366 -68.144971 
L 772.026668 -67.511118 
L 771.88919 -66.877266 
L 771.826438 -66.243413 
L 771.812107 -65.609561 
L 771.834002 -64.975708 
L 771.891109 -64.341856 
L 771.985709 -63.708003 
L 772.113789 -63.074151 
L 772.258561 -62.440298 
L 772.392476 -61.806446 
L 772.489053 -61.172593 
L 772.53773 -60.538741 
L 772.549776 -59.904888 
L 772.54839 -59.271036 
L 772.549281 -58.637183 
L 772.547421 -58.003331 
L 772.521296 -57.369478 
L 772.450983 -56.735626 
L 772.33487 -56.101774 
L 772.192276 -55.467921 
L 772.051991 -54.834069 
L 771.93727 -54.200216 
L 771.857646 -53.566364 
z
" style="stroke: #595959; stroke-width: 1.25"/>
    </defs>
    <g clip-path="url(#pd3a906d0f9)">
     <use xlink:href="#m624e132305" x="0" y="432" style="fill: #a2c865; stroke: #595959; stroke-width: 1.25"/>
    </g>
   </g>
   <g id="line2d_8">
    <path d="M 137.592 337.962026 
L 137.592 344.362853 
" clip-path="url(#pd3a906d0f9)" style="fill: none; stroke: #000000"/>
   </g>
   <g id="line2d_9">
    <path d="M 137.592 333.197499 
L 137.592 326.748545 
" clip-path="url(#pd3a906d0f9)" style="fill: none; stroke: #000000"/>
   </g>
   <g id="line2d_10">
    <path d="M 131.6466 344.362853 
L 143.5374 344.362853 
" clip-path="url(#pd3a906d0f9)" style="fill: none; stroke: #000000; stroke-linecap: round"/>
   </g>
   <g id="line2d_11">
    <path d="M 131.6466 326.748545 
L 143.5374 326.748545 
" clip-path="url(#pd3a906d0f9)" style="fill: none; stroke: #000000; stroke-linecap: round"/>
   </g>
   <g id="line2d_12">
    <path d="M 296.136 343.592829 
L 296.136 354.084412 
" clip-path="url(#pd3a906d0f9)" style="fill: none; stroke: #000000"/>
   </g>
   <g id="line2d_13">
    <path d="M 296.136 336.277597 
L 296.136 326.941051 
" clip-path="url(#pd3a906d0f9)" style="fill: none; stroke: #000000"/>
   </g>
   <g id="line2d_14">
    <path d="M 290.1906 354.084412 
L 302.0814 354.084412 
" clip-path="url(#pd3a906d0f9)" style="fill: none; stroke: #000000; stroke-linecap: round"/>
   </g>
   <g id="line2d_15">
    <path d="M 290.1906 326.941051 
L 302.0814 326.941051 
" clip-path="url(#pd3a906d0f9)" style="fill: none; stroke: #000000; stroke-linecap: round"/>
   </g>
   <g id="line2d_16">
    <path d="M 454.68 167.642251 
L 454.68 188.047898 
" clip-path="url(#pd3a906d0f9)" style="fill: none; stroke: #000000"/>
   </g>
   <g id="line2d_17">
    <path d="M 454.68 151.279232 
L 454.68 127.023463 
" clip-path="url(#pd3a906d0f9)" style="fill: none; stroke: #000000"/>
   </g>
   <g id="line2d_18">
    <path d="M 448.7346 188.047898 
L 460.6254 188.047898 
" clip-path="url(#pd3a906d0f9)" style="fill: none; stroke: #000000; stroke-linecap: round"/>
   </g>
   <g id="line2d_19">
    <path d="M 448.7346 127.023463 
L 460.6254 127.023463 
" clip-path="url(#pd3a906d0f9)" style="fill: none; stroke: #000000; stroke-linecap: round"/>
   </g>
   <g id="line2d_20">
    <path d="M 613.224 332.668108 
L 613.224 343.111564 
" clip-path="url(#pd3a906d0f9)" style="fill: none; stroke: #000000"/>
   </g>
   <g id="line2d_21">
    <path d="M 613.224 325.593508 
L 613.224 316.353215 
" clip-path="url(#pd3a906d0f9)" style="fill: none; stroke: #000000"/>
   </g>
   <g id="line2d_22">
    <path d="M 607.2786 343.111564 
L 619.1694 343.111564 
" clip-path="url(#pd3a906d0f9)" style="fill: none; stroke: #000000; stroke-linecap: round"/>
   </g>
   <g id="line2d_23">
    <path d="M 607.2786 316.353215 
L 619.1694 316.353215 
" clip-path="url(#pd3a906d0f9)" style="fill: none; stroke: #000000; stroke-linecap: round"/>
   </g>
   <g id="line2d_24">
    <path d="M 771.768 346.672927 
L 771.768 357.453268 
" clip-path="url(#pd3a906d0f9)" style="fill: none; stroke: #000000"/>
   </g>
   <g id="line2d_25">
    <path d="M 771.768 339.261442 
L 771.768 328.384847 
" clip-path="url(#pd3a906d0f9)" style="fill: none; stroke: #000000"/>
   </g>
   <g id="line2d_26">
    <path d="M 765.8226 357.453268 
L 777.7134 357.453268 
" clip-path="url(#pd3a906d0f9)" style="fill: none; stroke: #000000; stroke-linecap: round"/>
   </g>
   <g id="line2d_27">
    <path d="M 765.8226 328.384847 
L 777.7134 328.384847 
" clip-path="url(#pd3a906d0f9)" style="fill: none; stroke: #000000; stroke-linecap: round"/>
   </g>
   <g id="line2d_28">
    <path d="M 125.7012 335.363193 
L 149.4828 335.363193 
" clip-path="url(#pd3a906d0f9)" style="fill: none; stroke: #ff0000; stroke-width: 2"/>
   </g>
   <g id="line2d_29">
    <path d="M 284.2452 339.83896 
L 308.0268 339.83896 
" clip-path="url(#pd3a906d0f9)" style="fill: none; stroke: #ff0000; stroke-width: 2"/>
   </g>
   <g id="line2d_30">
    <path d="M 442.7892 160.808284 
L 466.5708 160.808284 
" clip-path="url(#pd3a906d0f9)" style="fill: none; stroke: #ff0000; stroke-width: 2"/>
   </g>
   <g id="line2d_31">
    <path d="M 601.3332 329.154871 
L 625.1148 329.154871 
" clip-path="url(#pd3a906d0f9)" style="fill: none; stroke: #ff0000; stroke-width: 2"/>
   </g>
   <g id="line2d_32">
    <path d="M 759.8772 343.30407 
L 783.6588 343.30407 
" clip-path="url(#pd3a906d0f9)" style="fill: none; stroke: #ff0000; stroke-width: 2"/>
   </g>
   <g id="patch_3">
    <path d="M 58.32 395.14 
L 58.32 27.6 
" style="fill: none; stroke: #cccccc; stroke-width: 1.25; stroke-linejoin: miter; stroke-linecap: square"/>
   </g>
   <g id="patch_4">
    <path d="M 851.04 395.14 
L 851.04 27.6 
" style="fill: none; stroke: #cccccc; stroke-width: 1.25; stroke-linejoin: miter; stroke-linecap: square"/>
   </g>
   <g id="patch_5">
    <path d="M 58.32 395.14 
L 851.04 395.14 
" style="fill: none; stroke: #cccccc; stroke-width: 1.25; stroke-linejoin: miter; stroke-linecap: square"/>
   </g>
   <g id="patch_6">
    <path d="M 58.32 27.6 
L 851.04 27.6 
" style="fill: none; stroke: #cccccc; stroke-width: 1.25; stroke-linejoin: miter; stroke-linecap: square"/>
   </g>
   <g id="text_14">
    <!-- Handshake duration on TLS with mldsa44 signature algorithm — Degraded (200ms/10%) -->
    <g style="fill: #262626" transform="translate(186.980625 21.6) scale(0.12 -0.12)">
     <defs>
      <path id="DejaVuSans-54" d="M -19 4666 
L 3928 4666 
L 3928 4134 
L 2272 4134 
L 2272 0 
L 1638 0 
L 1638 4134 
L -19 4134 
L -19 4666 
z
" transform="scale(0.015625)"/>
      <path id="DejaVuSans-4c" d="M 628 4666 
L 1259 4666 
L 1259 531 
L 3531 531 
L 3531 0 
L 628 0 
L 628 4666 
z
" transform="scale(0.015625)"/>
      <path id="DejaVuSans-53" d="M 3425 4513 
L 3425 3897 
Q 3066 4069 2747 4153 
Q 2428 4238 2131 4238 
Q 1616 4238 1336 4038 
Q 1056 3838 1056 3469 
Q 1056 3159 1242 3001 
Q 1428 2844 1947 2747 
L 2328 2669 
Q 3034 2534 3370 2195 
Q 3706 1856 3706 1288 
Q 3706 609 3251 259 
Q 2797 -91 1919 -91 
Q 1588 -91 1214 -16 
Q 841 59 441 206 
L 441 856 
Q 825 641 1194 531 
Q 1563 422 1919 422 
Q 2459 422 2753 634 
Q 3047 847 3047 1241 
Q 3047 1584 2836 1778 
Q 2625 1972 2144 2069 
L 1759 2144 
Q 1053 2284 737 2584 
Q 422 2884 422 3419 
Q 422 4038 858 4394 
Q 1294 4750 2059 4750 
Q 2388 4750 2728 4690 
Q 3069 4631 3425 4513 
z
" transform="scale(0.015625)"/>
      <path id="DejaVuSans-77" d="M 269 3500 
L 844 3500 
L 1563 769 
L 2278 3500 
L 2956 3500 
L 3675 769 
L 4391 3500 
L 4966 3500 
L 4050 0 
L 3372 0 
L 2619 2869 
L 1863 0 
L 1184 0 
L 269 3500 
z
" transform="scale(0.015625)"/>
      <path id="DejaVuSans-34" d="M 2419 4116 
L 825 1625 
L 2419 1625 
L 2419 4116 
z
M 2253 4666 
L 3047 4666 
L 3047 1625 
L 3713 1625 
L 3713 1100 
L 3047 1100 
L 3047 0 
L 2419 0 
L 2419 1100 
L 313 1100 
L 313 1709 
L 2253 4666 
z
" transform="scale(0.015625)"/>
      <path id="DejaVuSans-67" d="M 2906 1791 
Q 2906 2416 2648 2759 
Q 2391 3103 1925 3103 
Q 1463 3103 1205 2759 
Q 947 2416 947 1791 
Q 947 1169 1205 825 
Q 1463 481 1925 481 
Q 2391 481 2648 825 
Q 2906 1169 2906 1791 
z
M 3481 434 
Q 3481 -459 3084 -895 
Q 2688 -1331 1869 -1331 
Q 1566 -1331 1297 -1286 
Q 1028 -1241 775 -1147 
L 775 -588 
Q 1028 -725 1275 -790 
Q 1522 -856 1778 -856 
Q 2344 -856 2625 -561 
Q 2906 -266 2906 331 
L 2906 616 
Q 2728 306 2450 153 
Q 2172 0 1784 0 
Q 1141 0 747 490 
Q 353 981 353 1791 
Q 353 2603 747 3093 
Q 1141 3584 1784 3584 
Q 2172 3584 2450 3431 
Q 2728 3278 2906 2969 
L 2906 3500 
L 3481 3500 
L 3481 434 
z
" transform="scale(0.015625)"/>
      <path id="DejaVuSans-2014" d="M 313 1978 
L 6088 1978 
L 6088 1528 
L 313 1528 
L 313 1978 
z
" transform="scale(0.015625)"/>
      <path id="DejaVuSans-44" d="M 1259 4147 
L 1259 519 
L 2022 519 
Q 2988 519 3436 956 
Q 3884 1394 3884 2338 
Q 3884 3275 3436 3711 
Q 2988 4147 2022 4147 
L 1259 4147 
z
M 628 4666 
L 1925 4666 
Q 3281 4666 3915 4102 
Q 4550 3538 4550 2338 
Q 4550 1131 3912 565 
Q 3275 0 1925 0 
L 628 0 
L 628 4666 
z
" transform="scale(0.015625)"/>
      <path id="DejaVuSans-2f" d="M 1625 4666 
L 2156 4666 
L 531 -594 
L 0 -594 
L 1625 4666 
z
" transform="scale(0.015625)"/>
      <path id="DejaVuSans-25" d="M 4653 2053 
Q 4381 2053 4226 1822 
Q 4072 1591 4072 1178 
Q 4072 772 4226 539 
Q 4381 306 4653 306 
Q 4919 306 5073 539 
Q 5228 772 5228 1178 
Q 5228 1588 5073 1820 
Q 4919 2053 4653 2053 
z
M 4653 2450 
Q 5147 2450 5437 2106 
Q 5728 1763 5728 1178 
Q 5728 594 5436 251 
Q 5144 -91 4653 -91 
Q 4153 -91 3862 251 
Q 3572 594 3572 1178 
Q 3572 1766 3864 2108 
Q 4156 2450 4653 2450 
z
M 1428 4353 
Q 1159 4353 1004 4120 
Q 850 3888 850 3481 
Q 850 3069 1003 2837 
Q 1156 2606 1428 2606 
Q 1700 2606 1854 2837 
Q 2009 3069 2009 3481 
Q 2009 3884 1853 4118 
Q 1697 4353 1428 4353 
z
M 4250 4750 
L 4750 4750 
L 1831 -91 
L 1331 -91 
L 4250 4750 
z
M 1428 4750 
Q 1922 4750 2215 4408 
Q 2509 4066 2509 3481 
Q 2509 2891 2217 2550 
Q 1925 2209 1428 2209 
Q 931 2209 642 2551 
Q 353 2894 353 3481 
Q 353 4063 643 4406 
Q 934 4750 1428 4750 
z
" transform="scale(0.015625)"/>
     </defs>
     <use xlink:href="#DejaVuSans-48"/>
     <use xlink:href="#DejaVuSans-61" x="75.195312"/>
     <use xlink:href="#DejaVuSans-6e" x="136.474609"/>
     <use xlink:href="#DejaVuSans-64" x="199.853516"/>
     <use xlink:href="#DejaVuSans-73" x="263.330078"/>
     <use xlink:href="#DejaVuSans-68" x="315.429688"/>
     <use xlink:href="#DejaVuSans-61" x="378.808594"/>
     <use xlink:href="#DejaVuSans-6b" x="440.087891"/>
     <use xlink:href="#DejaVuSans-65" x="494.373047"/>
     <use xlink:href="#DejaVuSans-20" x="555.896484"/>
     <use xlink:href="#DejaVuSans-64" x="587.683594"/>
     <use xlink:href="#DejaVuSans-75" x="651.160156"/>
     <use xlink:href="#DejaVuSans-72" x="714.539062"/>
     <use xlink:href="#DejaVuSans-61" x="755.652344"/>
     <use xlink:href="#DejaVuSans-74" x="816.931641"/>
     <use xlink:href="#DejaVuSans-69" x="856.140625"/>
     <use xlink:href="#DejaVuSans-6f" x="883.923828"/>
     <use xlink:href="#DejaVuSans-6e" x="945.105469"/>
     <use xlink:href="#DejaVuSans-20" x="1008.484375"/>
     <use xlink:href="#DejaVuSans-6f" x="1040.271484"/>
     <use xlink:href="#DejaVuSans-6e" x="1101.453125"/>
     <use xlink:href="#DejaVuSans-20" x="1164.832031"/>
     <use xlink:href="#DejaVuSans-54" x="1196.619141"/>
     <use xlink:href="#DejaVuSans-4c" x="1257.703125"/>
     <use xlink:href="#DejaVuSans-53" x="1313.416016"/>
     <use xlink:href="#DejaVuSans-20" x="1376.892578"/>
     <use xlink:href="#DejaVuSans-77" x="1408.679688"/>
     <use xlink:href="#DejaVuSans-69" x="1490.466797"/>
     <use xlink:href="#DejaVuSans-74" x="1518.25"/>
     <use xlink:href="#DejaVuSans-68" x="1557.458984"/>
     <use xlink:href="#DejaVuSans-20" x="1620.837891"/>
     <use xlink:href="#DejaVuSans-6d" x="1652.625"/>
     <use xlink:href="#DejaVuSans-6c" x="1750.037109"/>
     <use xlink:href="#DejaVuSans-64" x="1777.820312"/>
     <use xlink:href="#DejaVuSans-73" x="1841.296875"/>
     <use xlink:href="#DejaVuSans-61" x="1893.396484"/>
     <use xlink:href="#DejaVuSans-34" x="1954.675781"/>
     <use xlink:href="#DejaVuSans-34" x="2018.298828"/>
     <use xlink:href="#DejaVuSans-20" x="2081.921875"/>
     <use xlink:href="#DejaVuSans-73" x="2113.708984"/>
     <use xlink:href="#DejaVuSans-69" x="2165.808594"/>
     <use xlink:href="#DejaVuSans-67" x="2193.591797"/>
     <use xlink:href="#DejaVuSans-6e" x="2257.068359"/>
     <use xlink:href="#DejaVuSans-61" x="2320.447266"/>
     <use xlink:href="#DejaVuSans-74" x="2381.726562"/>
     <use xlink:href="#DejaVuSans-75" x="2420.935547"/>
     <use xlink:href="#DejaVuSans-72" x="2484.314453"/>
     <use xlink:href="#DejaVuSans-65" x="2523.177734"/>
     <use xlink:href="#DejaVuSans-20" x="2584.701172"/>
     <use xlink:href="#DejaVuSans-61" x="2616.488281"/>
     <use xlink:href="#DejaVuSans-6c" x="2677.767578"/>
     <use xlink:href="#DejaVuSans-67" x="2705.550781"/>
     <use xlink:href="#DejaVuSans-6f" x="2769.027344"/>
     <use xlink:href="#DejaVuSans-72" x="2830.208984"/>
     <use xlink:href="#DejaVuSans-69" x="2871.322266"/>
     <use xlink:href="#DejaVuSans-74" x="2899.105469"/>
     <use xlink:href="#DejaVuSans-68" x="2938.314453"/>
     <use xlink:href="#DejaVuSans-6d" x="3001.693359"/>
     <use xlink:href="#DejaVuSans-20" x="3099.105469"/>
     <use xlink:href="#DejaVuSans-2014" x="3130.892578"/>
     <use xlink:href="#DejaVuSans-20" x="3230.892578"/>
     <use xlink:href="#DejaVuSans-44" x="3262.679688"/>
     <use xlink:href="#DejaVuSans-65" x="3339.681641"/>
     <use xlink:href="#DejaVuSans-67" x="3401.205078"/>
     <use xlink:href="#DejaVuSans-72" x="3464.681641"/>
     <use xlink:href="#DejaVuSans-61" x="3505.794922"/>
     <use xlink:href="#DejaVuSans-64" x="3567.074219"/>
     <use xlink:href="#DejaVuSans-65" x="3630.550781"/>
     <use xlink:href="#DejaVuSans-64" x="3692.074219"/>
     <use xlink:href="#DejaVuSans-20" x="3755.550781"/>
     <use xlink:href="#DejaVuSans-28" x="3787.337891"/>
     <use xlink:href="#DejaVuSans-32" x="3826.351562"/>
     <use xlink:href="#DejaVuSans-30" x="3889.974609"/>
     <use xlink:href="#DejaVuSans-30" x="3953.597656"/>
     <use xlink:href="#DejaVuSans-6d" x="4017.220703"/>
     <use xlink:href="#DejaVuSans-73" x="4114.632812"/>
     <use xlink:href="#DejaVuSans-2f" x="4166.732422"/>
     <use xlink:href="#DejaVuSans-31" x="4200.423828"/>
     <use xlink:href="#DejaVuSans-30" x="4264.046875"/>
     <use xlink:href="#DejaVuSans-25" x="4327.669922"/>
     <use xlink:href="#DejaVuSans-29" x="4422.689453"/>
    </g>
   </g>
  </g>
 </g>
 <defs>
  <clipPath id="pd3a906d0f9">
   <rect x="58.32" y="27.6" width="792.72" height="367.54"/>
  </clipPath>
 </defs>
</svg>
