<?xml version="1.0" encoding="utf-8" standalone="no"?>
<!DOCTYPE svg PUBLIC "-//W3C//DTD SVG 1.1//EN"
  "http://www.w3.org/Graphics/SVG/1.1/DTD/svg11.dtd">
<svg xmlns:xlink="http://www.w3.org/1999/xlink" width="864pt" height="432pt" viewBox="0 0 864 432" xmlns="http://www.w3.org/2000/svg" version="1.1">
 <metadata>
  <rdf:RDF xmlns:dc="http://purl.org/dc/elements/1.1/" xmlns:cc="http://creativecommons.org/ns#" xmlns:rdf="http://www.w3.org/1999/02/22-rdf-syntax-ns#">
   <cc:Work>
    <dc:type rdf:resource="http://purl.org/dc/dcmitype/StillImage"/>
    <dc:date>2026-03-21T13:58:42.549536</dc:date>
    <dc:format>image/svg+xml</dc:format>
    <dc:creator>
     <cc:Agent>
      <dc:title>Matplotlib v3.6.3, https://matplotlib.org/</dc:title>
     </cc:Agent>
    </dc:creator>
   </cc:Work>
  </rdf:RDF>
 </metadata>
 <defs>
  <style type="text/css">*{stroke-linejoin: round; stroke-linecap: butt}</style>
 </defs>
 <g id="figure_1">
  <g id="patch_1">
   <path d="M 0 432 
L 864 432 
L 864 0 
L 0 0 
z
" style="fill: #ffffff"/>
  </g>
  <g id="axes_1">
   <g id="patch_2">
    <path d="M 58.32 395.14 
L 851.04 395.14 
L 851.04 27.6 
L 58.32 27.6 
z
" style="fill: #ffffff"/>
   </g>
   <g id="matplotlib.axis_1">
    <g id="xtick_1">
     <g id="text_1">
      <!-- P-256 -->
      <g style="fill: #262626" transform="translate(117.642 415.277812) scale(0.14 -0.14)">
       <defs>
        <path id="DejaVuSans-50" d="M 1259 4147 
L 1259 2394 
L 2053 2394 
Q 2494 2394 2734 2622 
Q 2975 2850 2975 3272 
Q 2975 3691 2734 3919 
Q 2494 4147 2053 4147 
L 1259 4147 
z
M 628 4666 
L 2053 4666 
Q 2838 4666 3239 4311 
Q 3641 3956 3641 3272 
Q 3641 2581 3239 2228 
Q 2838 1875 2053 1875 
L 1259 1875 
L 1259 0 
L 628 0 
L 628 4666 
z
" transform="scale(0.015625)"/>
        <path id="DejaVuSans-2d" d="M 313 2009 
L 1997 2009 
L 1997 1497 
L 313 1497 
L 313 2009 
z
" transform="scale(0.015625)"/>
        <path id="DejaVuSans-32" d="M 1228 531 
L 3431 531 
L 3431 0 
L 469 0 
L 469 531 
Q 828 903 1448 1529 
Q 2069 2156 2228 2338 
Q 2531 2678 2651 2914 
Q 2772 3150 2772 3378 
Q 2772 3750 2511 3984 
Q 2250 4219 1831 4219 
Q 1534 4219 1204 4116 
Q 875 4013 500 3803 
L 500 4441 
Q 881 4594 1212 4672 
Q 1544 4750 1819 4750 
Q 2544 4750 2975 4387 
Q 3406 4025 3406 3419 
Q 3406 3131 3298 2873 
Q 3191 2616 2906 2266 
Q 2828 2175 2409 1742 
Q 1991 1309 1228 531 
z
" transform="scale(0.015625)"/>
        <path id="DejaVuSans-35" d="M 691 4666 
L 3169 4666 
L 3169 4134 
L 1269 4134 
L 1269 2991 
Q 1406 3038 1543 3061 
Q 1681 3084 1819 3084 
Q 2600 3084 3056 2656 
Q 3513 2228 3513 1497 
Q 3513 744 3044 326 
Q 2575 -91 1722 -91 
Q 1428 -91 1123 -41 
Q 819 9 494 109 
L 494 744 
Q 775 591 1075 516 
Q 1375 441 1709 441 
Q 2250 441 2565 725 
Q 2881 1009 2881 1497 
Q 2881 1984 2565 2268 
Q 2250 2553 1709 2553 
Q 1456 2553 1204 2497 
Q 953 2441 691 2322 
L 691 4666 
z
" transform="scale(0.015625)"/>
        <path id="DejaVuSans-36" d="M 2113 2584 
Q 1688 2584 1439 2293 
Q 1191 2003 1191 1497 
Q 1191 994 1439 701 
Q 1688 409 2113 409 
Q 2538 409 2786 701 
Q 3034 994 3034 1497 
Q 3034 2003 2786 2293 
Q 2538 2584 2113 2584 
z
M 3366 4563 
L 3366 3988 
Q 3128 4100 2886 4159 
Q 2644 4219 2406 4219 
Q 1781 4219 1451 3797 
Q 1122 3375 1075 2522 
Q 1259 2794 1537 2939 
Q 1816 3084 2150 3084 
Q 2853 3084 3261 2657 
Q 3669 2231 3669 1497 
Q 3669 778 3244 343 
Q 2819 -91 2113 -91 
Q 1303 -91 875 529 
Q 447 1150 447 2328 
Q 447 3434 972 4092 
Q 1497 4750 2381 4750 
Q 2619 4750 2861 4703 
Q 3103 4656 3366 4563 
z
" transform="scale(0.015625)"/>
       </defs>
       <use xlink:href="#DejaVuSans-50"/>
       <use xlink:href="#DejaVuSans-2d" x="58.052734"/>
       <use xlink:href="#DejaVuSans-32" x="94.136719"/>
       <use xlink:href="#DejaVuSans-35" x="157.759766"/>
       <use xlink:href="#DejaVuSans-36" x="221.382812"/>
      </g>
     </g>
    </g>
    <g id="xtick_2">
     <g id="text_2">
      <!-- x25519 -->
      <g style="fill: #262626" transform="translate(269.724125 415.277812) scale(0.14 -0.14)">
       <defs>
        <path id="DejaVuSans-78" d="M 3513 3500 
L 2247 1797 
L 3578 0 
L 2900 0 
L 1881 1375 
L 863 0 
L 184 0 
L 1544 1831 
L 300 3500 
L 978 3500 
L 1906 2253 
L 2834 3500 
L 3513 3500 
z
" transform="scale(0.015625)"/>
        <path id="DejaVuSans-31" d="M 794 531 
L 1825 531 
L 1825 4091 
L 703 3866 
L 703 4441 
L 1819 4666 
L 2450 4666 
L 2450 531 
L 3481 531 
L 3481 0 
L 794 0 
L 794 531 
z
" transform="scale(0.015625)"/>
        <path id="DejaVuSans-39" d="M 703 97 
L 703 672 
Q 941 559 1184 500 
Q 1428 441 1663 441 
Q 2288 441 2617 861 
Q 2947 1281 2994 2138 
Q 2813 1869 2534 1725 
Q 2256 1581 1919 1581 
Q 1219 1581 811 2004 
Q 403 2428 403 3163 
Q 403 3881 828 4315 
Q 1253 4750 1959 4750 
Q 2769 4750 3195 4129 
Q 3622 3509 3622 2328 
Q 3622 1225 3098 567 
Q 2575 -91 1691 -91 
Q 1453 -91 1209 -44 
Q 966 3 703 97 
z
M 1959 2075 
Q 2384 2075 2632 2365 
Q 2881 2656 2881 3163 
Q 2881 3666 2632 3958 
Q 2384 4250 1959 4250 
Q 1534 4250 1286 3958 
Q 1038 3666 1038 3163 
Q 1038 2656 1286 2365 
Q 1534 2075 1959 2075 
z
" transform="scale(0.015625)"/>
       </defs>
       <use xlink:href="#DejaVuSans-78"/>
       <use xlink:href="#DejaVuSans-32" x="59.179688"/>
       <use xlink:href="#DejaVuSans-35" x="122.802734"/>
       <use xlink:href="#DejaVuSans-35" x="186.425781"/>
       <use xlink:href="#DejaVuSans-31" x="250.048828"/>
       <use xlink:href="#DejaVuSans-39" x="313.671875"/>
      </g>
     </g>
    </g>
    <g id="xtick_3">
     <g id="text_3">
      <!-- p256_mlkem512 -->
      <g style="fill: #262626" transform="translate(396.325156 415.277812) scale(0.14 -0.14)">
       <defs>
        <path id="DejaVuSans-70" d="M 1159 525 
L 1159 -1331 
L 581 -1331 
L 581 3500 
L 1159 3500 
L 1159 2969 
Q 1341 3281 1617 3432 
Q 1894 3584 2278 3584 
Q 2916 3584 3314 3078 
Q 3713 2572 3713 1747 
Q 3713 922 3314 415 
Q 2916 -91 2278 -91 
Q 1894 -91 1617 61 
Q 1341 213 1159 525 
z
M 3116 1747 
Q 3116 2381 2855 2742 
Q 2594 3103 2138 3103 
Q 1681 3103 1420 2742 
Q 1159 2381 1159 1747 
Q 1159 1113 1420 752 
Q 1681 391 2138 391 
Q 2594 391 2855 752 
Q 3116 1113 3116 1747 
z
" transform="scale(0.015625)"/>
        <path id="DejaVuSans-5f" d="M 3263 -1063 
L 3263 -1509 
L -63 -1509 
L -63 -1063 
L 3263 -1063 
z
" transform="scale(0.015625)"/>
        <path id="DejaVuSans-6d" d="M 3328 2828 
Q 3544 3216 3844 3400 
Q 4144 3584 4550 3584 
Q 5097 3584 5394 3201 
Q 5691 2819 5691 2113 
L 5691 0 
L 5113 0 
L 5113 2094 
Q 5113 2597 4934 2840 
Q 4756 3084 4391 3084 
Q 3944 3084 3684 2787 
Q 3425 2491 3425 1978 
L 3425 0 
L 2847 0 
L 2847 2094 
Q 2847 2600 2669 2842 
Q 2491 3084 2119 3084 
Q 1678 3084 1418 2786 
Q 1159 2488 1159 1978 
L 1159 0 
L 581 0 
L 581 3500 
L 1159 3500 
L 1159 2956 
Q 1356 3278 1631 3431 
Q 1906 3584 2284 3584 
Q 2666 3584 2933 3390 
Q 3200 3197 3328 2828 
z
" transform="scale(0.015625)"/>
        <path id="DejaVuSans-6c" d="M 603 4863 
L 1178 4863 
L 1178 0 
L 603 0 
L 603 4863 
z
" transform="scale(0.015625)"/>
        <path id="DejaVuSans-6b" d="M 581 4863 
L 1159 4863 
L 1159 1991 
L 2875 3500 
L 3609 3500 
L 1753 1863 
L 3688 0 
L 2938 0 
L 1159 1709 
L 1159 0 
L 581 0 
L 581 4863 
z
" transform="scale(0.015625)"/>
        <path id="DejaVuSans-65" d="M 3597 1894 
L 3597 1613 
L 953 1613 
Q 991 1019 1311 708 
Q 1631 397 2203 397 
Q 2534 397 2845 478 
Q 3156 559 3463 722 
L 3463 178 
Q 3153 47 2828 -22 
Q 2503 -91 2169 -91 
Q 1331 -91 842 396 
Q 353 884 353 1716 
Q 353 2575 817 3079 
Q 1281 3584 2069 3584 
Q 2775 3584 3186 3129 
Q 3597 2675 3597 1894 
z
M 3022 2063 
Q 3016 2534 2758 2815 
Q 2500 3097 2075 3097 
Q 1594 3097 1305 2825 
Q 1016 2553 972 2059 
L 3022 2063 
z
" transform="scale(0.015625)"/>
       </defs>
       <use xlink:href="#DejaVuSans-70"/>
       <use xlink:href="#DejaVuSans-32" x="63.476562"/>
       <use xlink:href="#DejaVuSans-35" x="127.099609"/>
       <use xlink:href="#DejaVuSans-36" x="190.722656"/>
       <use xlink:href="#DejaVuSans-5f" x="254.345703"/>
       <use xlink:href="#DejaVuSans-6d" x="304.345703"/>
       <use xlink:href="#DejaVuSans-6c" x="401.757812"/>
       <use xlink:href="#DejaVuSans-6b" x="429.541016"/>
       <use xlink:href="#DejaVuSans-65" x="483.826172"/>
       <use xlink:href="#DejaVuSans-6d" x="545.349609"/>
       <use xlink:href="#DejaVuSans-35" x="642.761719"/>
       <use xlink:href="#DejaVuSans-31" x="706.384766"/>
       <use xlink:href="#DejaVuSans-32" x="770.007812"/>
      </g>
     </g>
    </g>
    <g id="xtick_4">
     <g id="text_4">
      <!-- x25519_mlkem512 -->
      <g style="fill: #262626" transform="translate(546.262437 415.277812) scale(0.14 -0.14)">
       <use xlink:href="#DejaVuSans-78"/>
       <use xlink:href="#DejaVuSans-32" x="59.179688"/>
       <use xlink:href="#DejaVuSans-35" x="122.802734"/>
       <use xlink:href="#DejaVuSans-35" x="186.425781"/>
       <use xlink:href="#DejaVuSans-31" x="250.048828"/>
       <use xlink:href="#DejaVuSans-39" x="313.671875"/>
       <use xlink:href="#DejaVuSans-5f" x="377.294922"/>
       <use xlink:href="#DejaVuSans-6d" x="427.294922"/>
       <use xlink:href="#DejaVuSans-6c" x="524.707031"/>
       <use xlink:href="#DejaVuSans-6b" x="552.490234"/>
       <use xlink:href="#DejaVuSans-65" x="606.775391"/>
       <use xlink:href="#DejaVuSans-6d" x="668.298828"/>
       <use xlink:href="#DejaVuSans-35" x="765.710938"/>
       <use xlink:href="#DejaVuSans-31" x="829.333984"/>
       <use xlink:href="#DejaVuSans-32" x="892.957031"/>
      </g>
     </g>
    </g>
    <g id="xtick_5">
     <g id="text_5">
      <!-- mlkem512 -->
      <g style="fill: #262626" transform="translate(734.718312 415.277812) scale(0.14 -0.14)">
       <use xlink:href="#DejaVuSans-6d"/>
       <use xlink:href="#DejaVuSans-6c" x="97.412109"/>
       <use xlink:href="#DejaVuSans-6b" x="125.195312"/>
       <use xlink:href="#DejaVuSans-65" x="179.480469"/>
       <use xlink:href="#DejaVuSans-6d" x="241.003906"/>
       <use xlink:href="#DejaVuSans-35" x="338.416016"/>
       <use xlink:href="#DejaVuSans-31" x="402.039062"/>
       <use xlink:href="#DejaVuSans-32" x="465.662109"/>
      </g>
     </g>
    </g>
   </g>
   <g id="matplotlib.axis_2">
    <g id="ytick_1">
     <g id="line2d_1">
      <path d="M 58.32 380.146685 
L 851.04 380.146685 
" clip-path="url(#p572118b680)" style="fill: none; stroke: #cccccc; stroke-linecap: round"/>
     </g>
     <g id="text_6">
      <!-- 100 -->
      <g style="fill: #262626" transform="translate(27.82375 384.325825) scale(0.11 -0.11)">
       <defs>
        <path id="DejaVuSans-30" d="M 2034 4250 
Q 1547 4250 1301 3770 
Q 1056 3291 1056 2328 
Q 1056 1369 1301 889 
Q 1547 409 2034 409 
Q 2525 409 2770 889 
Q 3016 1369 3016 2328 
Q 3016 3291 2770 3770 
Q 2525 4250 2034 4250 
z
M 2034 4750 
Q 2819 4750 3233 4129 
Q 3647 3509 3647 2328 
Q 3647 1150 3233 529 
Q 2819 -91 2034 -91 
Q 1250 -91 836 529 
Q 422 1150 422 2328 
Q 422 3509 836 4129 
Q 1250 4750 2034 4750 
z
" transform="scale(0.015625)"/>
       </defs>
       <use xlink:href="#DejaVuSans-31"/>
       <use xlink:href="#DejaVuSans-30" x="63.623047"/>
       <use xlink:href="#DejaVuSans-30" x="127.246094"/>
      </g>
     </g>
    </g>
    <g id="ytick_2">
     <g id="line2d_2">
      <path d="M 58.32 332.659362 
L 851.04 332.659362 
" clip-path="url(#p572118b680)" style="fill: none; stroke: #cccccc; stroke-linecap: round"/>
     </g>
     <g id="text_7">
      <!-- 200 -->
      <g style="fill: #262626" transform="translate(27.82375 336.838503) scale(0.11 -0.11)">
       <use xlink:href="#DejaVuSans-32"/>
       <use xlink:href="#DejaVuSans-30" x="63.623047"/>
       <use xlink:href="#DejaVuSans-30" x="127.246094"/>
      </g>
     </g>
    </g>
    <g id="ytick_3">
     <g id="line2d_3">
      <path d="M 58.32 285.17204 
L 851.04 285.17204 
" clip-path="url(#p572118b680)" style="fill: none; stroke: #cccccc; stroke-linecap: round"/>
     </g>
     <g id="text_8">
      <!-- 300 -->
      <g style="fill: #262626" transform="translate(27.82375 289.351181) scale(0.11 -0.11)">
       <defs>
        <path id="DejaVuSans-33" d="M 2597 2516 
Q 3050 2419 3304 2112 
Q 3559 1806 3559 1356 
Q 3559 666 3084 287 
Q 2609 -91 1734 -91 
Q 1441 -91 1130 -33 
Q 819 25 488 141 
L 488 750 
Q 750 597 1062 519 
Q 1375 441 1716 441 
Q 2309 441 2620 675 
Q 2931 909 2931 1356 
Q 2931 1769 2642 2001 
Q 2353 2234 1838 2234 
L 1294 2234 
L 1294 2753 
L 1863 2753 
Q 2328 2753 2575 2939 
Q 2822 3125 2822 3475 
Q 2822 3834 2567 4026 
Q 2313 4219 1838 4219 
Q 1578 4219 1281 4162 
Q 984 4106 628 3988 
L 628 4550 
Q 988 4650 1302 4700 
Q 1616 4750 1894 4750 
Q 2613 4750 3031 4423 
Q 3450 4097 3450 3541 
Q 3450 3153 3228 2886 
Q 3006 2619 2597 2516 
z
" transform="scale(0.015625)"/>
       </defs>
       <use xlink:href="#DejaVuSans-33"/>
       <use xlink:href="#DejaVuSans-30" x="63.623047"/>
       <use xlink:href="#DejaVuSans-30" x="127.246094"/>
      </g>
     </g>
    </g>
    <g id="ytick_4">
     <g id="line2d_4">
      <path d="M 58.32 237.684718 
L 851.04 237.684718 
" clip-path="url(#p572118b680)" style="fill: none; stroke: #cccccc; stroke-linecap: round"/>
     </g>
     <g id="text_9">
      <!-- 400 -->
      <g style="fill: #262626" transform="translate(27.82375 241.863858) scale(0.11 -0.11)">
       <defs>
        <path id="DejaVuSans-34" d="M 2419 4116 
L 825 1625 
L 2419 1625 
L 2419 4116 
z
M 2253 4666 
L 3047 4666 
L 3047 1625 
L 3713 1625 
L 3713 1100 
L 3047 1100 
L 3047 0 
L 2419 0 
L 2419 1100 
L 313 1100 
L 313 1709 
L 2253 4666 
z
" transform="scale(0.015625)"/>
       </defs>
       <use xlink:href="#DejaVuSans-34"/>
       <use xlink:href="#DejaVuSans-30" x="63.623047"/>
       <use xlink:href="#DejaVuSans-30" x="127.246094"/>
      </g>
     </g>
    </g>
    <g id="ytick_5">
     <g id="line2d_5">
      <path d="M 58.32 190.197395 
L 851.04 190.197395 
" clip-path="url(#p572118b680)" style="fill: none; stroke: #cccccc; stroke-linecap: round"/>
     </g>
     <g id="text_10">
      <!-- 500 -->
      <g style="fill: #262626" transform="translate(27.82375 194.376536) scale(0.11 -0.11)">
       <use xlink:href="#DejaVuSans-35"/>
       <use xlink:href="#DejaVuSans-30" x="63.623047"/>
       <use xlink:href="#DejaVuSans-30" x="127.246094"/>
      </g>
     </g>
    </g>
    <g id="ytick_6">
     <g id="line2d_6">
      <path d="M 58.32 142.710073 
L 851.04 142.710073 
" clip-path="url(#p572118b680)" style="fill: none; stroke: #cccccc; stroke-linecap: round"/>
     </g>
     <g id="text_11">
      <!-- 600 -->
      <g style="fill: #262626" transform="translate(27.82375 146.889213) scale(0.11 -0.11)">
       <use xlink:href="#DejaVuSans-36"/>
       <use xlink:href="#DejaVuSans-30" x="63.623047"/>
       <use xlink:href="#DejaVuSans-30" x="127.246094"/>
      </g>
     </g>
    </g>
    <g id="ytick_7">
     <g id="line2d_7">
      <path d="M 58.32 95.22275 
L 851.04 95.22275 
" clip-path="url(#p572118b680)" style="fill: none; stroke: #cccccc; stroke-linecap: round"/>
     </g>
     <g id="text_12">
      <!-- 700 -->
      <g style="fill: #262626" transform="translate(27.82375 99.401891) scale(0.11 -0.11)">
       <defs>
        <path id="DejaVuSans-37" d="M 525 4666 
L 3525 4666 
L 3525 4397 
L 1831 0 
L 1172 0 
L 2766 4134 
L 525 4134 
L 525 4666 
z
" transform="scale(0.015625)"/>
       </defs>
       <use xlink:href="#DejaVuSans-37"/>
       <use xlink:href="#DejaVuSans-30" x="63.623047"/>
       <use xlink:href="#DejaVuSans-30" x="127.246094"/>
      </g>
     </g>
    </g>
    <g id="ytick_8">
     <g id="line2d_8">
      <path d="M 58.32 47.735428 
L 851.04 47.735428 
" clip-path="url(#p572118b680)" style="fill: none; stroke: #cccccc; stroke-linecap: round"/>
     </g>
     <g id="text_13">
      <!-- 800 -->
      <g style="fill: #262626" transform="translate(27.82375 51.914569) scale(0.11 -0.11)">
       <defs>
        <path id="DejaVuSans-38" d="M 2034 2216 
Q 1584 2216 1326 1975 
Q 1069 1734 1069 1313 
Q 1069 891 1326 650 
Q 1584 409 2034 409 
Q 2484 409 2743 651 
Q 3003 894 3003 1313 
Q 3003 1734 2745 1975 
Q 2488 2216 2034 2216 
z
M 1403 2484 
Q 997 2584 770 2862 
Q 544 3141 544 3541 
Q 544 4100 942 4425 
Q 1341 4750 2034 4750 
Q 2731 4750 3128 4425 
Q 3525 4100 3525 3541 
Q 3525 3141 3298 2862 
Q 3072 2584 2669 2484 
Q 3125 2378 3379 2068 
Q 3634 1759 3634 1313 
Q 3634 634 3220 271 
Q 2806 -91 2034 -91 
Q 1263 -91 848 271 
Q 434 634 434 1313 
Q 434 1759 690 2068 
Q 947 2378 1403 2484 
z
M 1172 3481 
Q 1172 3119 1398 2916 
Q 1625 2713 2034 2713 
Q 2441 2713 2670 2916 
Q 2900 3119 2900 3481 
Q 2900 3844 2670 4047 
Q 2441 4250 2034 4250 
Q 1625 4250 1398 4047 
Q 1172 3844 1172 3481 
z
" transform="scale(0.015625)"/>
       </defs>
       <use xlink:href="#DejaVuSans-38"/>
       <use xlink:href="#DejaVuSans-30" x="63.623047"/>
       <use xlink:href="#DejaVuSans-30" x="127.246094"/>
      </g>
     </g>
    </g>
    <g id="text_14">
     <!-- Handshake duration (ms) -->
     <g style="fill: #262626" transform="translate(21.328125 287.437813) rotate(-90) scale(0.12 -0.12)">
      <defs>
       <path id="DejaVuSans-48" d="M 628 4666 
L 1259 4666 
L 1259 2753 
L 3553 2753 
L 3553 4666 
L 4184 4666 
L 4184 0 
L 3553 0 
L 3553 2222 
L 1259 2222 
L 1259 0 
L 628 0 
L 628 4666 
z
" transform="scale(0.015625)"/>
       <path id="DejaVuSans-61" d="M 2194 1759 
Q 1497 1759 1228 1600 
Q 959 1441 959 1056 
Q 959 750 1161 570 
Q 1363 391 1709 391 
Q 2188 391 2477 730 
Q 2766 1069 2766 1631 
L 2766 1759 
L 2194 1759 
z
M 3341 1997 
L 3341 0 
L 2766 0 
L 2766 531 
Q 2569 213 2275 61 
Q 1981 -91 1556 -91 
Q 1019 -91 701 211 
Q 384 513 384 1019 
Q 384 1609 779 1909 
Q 1175 2209 1959 2209 
L 2766 2209 
L 2766 2266 
Q 2766 2663 2505 2880 
Q 2244 3097 1772 3097 
Q 1472 3097 1187 3025 
Q 903 2953 641 2809 
L 641 3341 
Q 956 3463 1253 3523 
Q 1550 3584 1831 3584 
Q 2591 3584 2966 3190 
Q 3341 2797 3341 1997 
z
" transform="scale(0.015625)"/>
       <path id="DejaVuSans-6e" d="M 3513 2113 
L 3513 0 
L 2938 0 
L 2938 2094 
Q 2938 2591 2744 2837 
Q 2550 3084 2163 3084 
Q 1697 3084 1428 2787 
Q 1159 2491 1159 1978 
L 1159 0 
L 581 0 
L 581 3500 
L 1159 3500 
L 1159 2956 
Q 1366 3272 1645 3428 
Q 1925 3584 2291 3584 
Q 2894 3584 3203 3211 
Q 3513 2838 3513 2113 
z
" transform="scale(0.015625)"/>
       <path id="DejaVuSans-64" d="M 2906 2969 
L 2906 4863 
L 3481 4863 
L 3481 0 
L 2906 0 
L 2906 525 
Q 2725 213 2448 61 
Q 2172 -91 1784 -91 
Q 1150 -91 751 415 
Q 353 922 353 1747 
Q 353 2572 751 3078 
Q 1150 3584 1784 3584 
Q 2172 3584 2448 3432 
Q 2725 3281 2906 2969 
z
M 947 1747 
Q 947 1113 1208 752 
Q 1469 391 1925 391 
Q 2381 391 2643 752 
Q 2906 1113 2906 1747 
Q 2906 2381 2643 2742 
Q 2381 3103 1925 3103 
Q 1469 3103 1208 2742 
Q 947 2381 947 1747 
z
" transform="scale(0.015625)"/>
       <path id="DejaVuSans-73" d="M 2834 3397 
L 2834 2853 
Q 2591 2978 2328 3040 
Q 2066 3103 1784 3103 
Q 1356 3103 1142 2972 
Q 928 2841 928 2578 
Q 928 2378 1081 2264 
Q 1234 2150 1697 2047 
L 1894 2003 
Q 2506 1872 2764 1633 
Q 3022 1394 3022 966 
Q 3022 478 2636 193 
Q 2250 -91 1575 -91 
Q 1294 -91 989 -36 
Q 684 19 347 128 
L 347 722 
Q 666 556 975 473 
Q 1284 391 1588 391 
Q 1994 391 2212 530 
Q 2431 669 2431 922 
Q 2431 1156 2273 1281 
Q 2116 1406 1581 1522 
L 1381 1569 
Q 847 1681 609 1914 
Q 372 2147 372 2553 
Q 372 3047 722 3315 
Q 1072 3584 1716 3584 
Q 2034 3584 2315 3537 
Q 2597 3491 2834 3397 
z
" transform="scale(0.015625)"/>
       <path id="DejaVuSans-68" d="M 3513 2113 
L 3513 0 
L 2938 0 
L 2938 2094 
Q 2938 2591 2744 2837 
Q 2550 3084 2163 3084 
Q 1697 3084 1428 2787 
Q 1159 2491 1159 1978 
L 1159 0 
L 581 0 
L 581 4863 
L 1159 4863 
L 1159 2956 
Q 1366 3272 1645 3428 
Q 1925 3584 2291 3584 
Q 2894 3584 3203 3211 
Q 3513 2838 3513 2113 
z
" transform="scale(0.015625)"/>
       <path id="DejaVuSans-20" transform="scale(0.015625)"/>
       <path id="DejaVuSans-75" d="M 544 1381 
L 544 3500 
L 1119 3500 
L 1119 1403 
Q 1119 906 1312 657 
Q 1506 409 1894 409 
Q 2359 409 2629 706 
Q 2900 1003 2900 1516 
L 2900 3500 
L 3475 3500 
L 3475 0 
L 2900 0 
L 2900 538 
Q 2691 219 2414 64 
Q 2138 -91 1772 -91 
Q 1169 -91 856 284 
Q 544 659 544 1381 
z
M 1991 3584 
L 1991 3584 
z
" transform="scale(0.015625)"/>
       <path id="DejaVuSans-72" d="M 2631 2963 
Q 2534 3019 2420 3045 
Q 2306 3072 2169 3072 
Q 1681 3072 1420 2755 
Q 1159 2438 1159 1844 
L 1159 0 
L 581 0 
L 581 3500 
L 1159 3500 
L 1159 2956 
Q 1341 3275 1631 3429 
Q 1922 3584 2338 3584 
Q 2397 3584 2469 3576 
Q 2541 3569 2628 3553 
L 2631 2963 
z
" transform="scale(0.015625)"/>
       <path id="DejaVuSans-74" d="M 1172 4494 
L 1172 3500 
L 2356 3500 
L 2356 3053 
L 1172 3053 
L 1172 1153 
Q 1172 725 1289 603 
Q 1406 481 1766 481 
L 2356 481 
L 2356 0 
L 1766 0 
Q 1100 0 847 248 
Q 594 497 594 1153 
L 594 3053 
L 172 3053 
L 172 3500 
L 594 3500 
L 594 4494 
L 1172 4494 
z
" transform="scale(0.015625)"/>
       <path id="DejaVuSans-69" d="M 603 3500 
L 1178 3500 
L 1178 0 
L 603 0 
L 603 3500 
z
M 603 4863 
L 1178 4863 
L 1178 4134 
L 603 4134 
L 603 4863 
z
" transform="scale(0.015625)"/>
       <path id="DejaVuSans-6f" d="M 1959 3097 
Q 1497 3097 1228 2736 
Q 959 2375 959 1747 
Q 959 1119 1226 758 
Q 1494 397 1959 397 
Q 2419 397 2687 759 
Q 2956 1122 2956 1747 
Q 2956 2369 2687 2733 
Q 2419 3097 1959 3097 
z
M 1959 3584 
Q 2709 3584 3137 3096 
Q 3566 2609 3566 1747 
Q 3566 888 3137 398 
Q 2709 -91 1959 -91 
Q 1206 -91 779 398 
Q 353 888 353 1747 
Q 353 2609 779 3096 
Q 1206 3584 1959 3584 
z
" transform="scale(0.015625)"/>
       <path id="DejaVuSans-28" d="M 1984 4856 
Q 1566 4138 1362 3434 
Q 1159 2731 1159 2009 
Q 1159 1288 1364 580 
Q 1569 -128 1984 -844 
L 1484 -844 
Q 1016 -109 783 600 
Q 550 1309 550 2009 
Q 550 2706 781 3412 
Q 1013 4119 1484 4856 
L 1984 4856 
z
" transform="scale(0.015625)"/>
       <path id="DejaVuSans-29" d="M 513 4856 
L 1013 4856 
Q 1481 4119 1714 3412 
Q 1947 2706 1947 2009 
Q 1947 1309 1714 600 
Q 1481 -109 1013 -844 
L 513 -844 
Q 928 -128 1133 580 
Q 1338 1288 1338 2009 
Q 1338 2731 1133 3434 
Q 928 4138 513 4856 
z
" transform="scale(0.015625)"/>
      </defs>
      <use xlink:href="#DejaVuSans-48"/>
      <use xlink:href="#DejaVuSans-61" x="75.195312"/>
      <use xlink:href="#DejaVuSans-6e" x="136.474609"/>
      <use xlink:href="#DejaVuSans-64" x="199.853516"/>
      <use xlink:href="#DejaVuSans-73" x="263.330078"/>
      <use xlink:href="#DejaVuSans-68" x="315.429688"/>
      <use xlink:href="#DejaVuSans-61" x="378.808594"/>
      <use xlink:href="#DejaVuSans-6b" x="440.087891"/>
      <use xlink:href="#DejaVuSans-65" x="494.373047"/>
      <use xlink:href="#DejaVuSans-20" x="555.896484"/>
      <use xlink:href="#DejaVuSans-64" x="587.683594"/>
      <use xlink:href="#DejaVuSans-75" x="651.160156"/>
      <use xlink:href="#DejaVuSans-72" x="714.539062"/>
      <use xlink:href="#DejaVuSans-61" x="755.652344"/>
      <use xlink:href="#DejaVuSans-74" x="816.931641"/>
      <use xlink:href="#DejaVuSans-69" x="856.140625"/>
      <use xlink:href="#DejaVuSans-6f" x="883.923828"/>
      <use xlink:href="#DejaVuSans-6e" x="945.105469"/>
      <use xlink:href="#DejaVuSans-20" x="1008.484375"/>
      <use xlink:href="#DejaVuSans-28" x="1040.271484"/>
      <use xlink:href="#DejaVuSans-6d" x="1079.285156"/>
      <use xlink:href="#DejaVuSans-73" x="1176.697266"/>
      <use xlink:href="#DejaVuSans-29" x="1228.796875"/>
     </g>
    </g>
   </g>
   <g id="PolyCollection_1">
    <defs>
     <path id="m6bff792ec6" d="M 143.110712 -53.566364 
L 132.073288 -53.566364 
L 126.603252 -56.658629 
L 118.055227 -59.750894 
L 106.578651 -62.843159 
L 93.634481 -65.935425 
L 81.962611 -69.02769 
L 74.733849 -72.119955 
L 74.1744 -75.21222 
L 80.461105 -78.304486 
L 91.626962 -81.396751 
L 104.541986 -84.489016 
L 116.304339 -87.581281 
L 125.207875 -90.673547 
L 130.902155 -93.765812 
L 133.948099 -96.858077 
L 135.228561 -99.950343 
L 135.543383 -103.042608 
L 135.457252 -106.134873 
L 135.308039 -109.227138 
L 135.267088 -112.319404 
L 135.394412 -115.411669 
L 135.67751 -118.503934 
L 136.060673 -121.596199 
L 136.471491 -124.688465 
L 136.844867 -127.78073 
L 137.139811 -130.872995 
L 137.344472 -133.96526 
L 137.469824 -137.057526 
L 137.537759 -140.149791 
L 137.570383 -143.242056 
L 137.584277 -146.334321 
L 137.589529 -149.426587 
L 137.591293 -152.518852 
L 137.591819 -155.611117 
L 137.591959 -158.703382 
L 137.591991 -161.795648 
L 137.591995 -164.887913 
L 137.591984 -167.980178 
L 137.591928 -171.072443 
L 137.591709 -174.164709 
L 137.590951 -177.256974 
L 137.588614 -180.349239 
L 137.582208 -183.441504 
L 137.566638 -186.53377 
L 137.533162 -189.626035 
L 137.469752 -192.7183 
L 137.364555 -195.810566 
L 137.213118 -198.902831 
L 137.026976 -201.995096 
L 136.837763 -205.087361 
L 136.69087 -208.179627 
L 136.628374 -211.271892 
L 136.66941 -214.364157 
L 136.800163 -217.456422 
L 136.98026 -220.548688 
L 137.161311 -223.640953 
L 137.306015 -226.733218 
L 137.398152 -229.825483 
L 137.441508 -232.917749 
L 137.452125 -236.010014 
L 137.449337 -239.102279 
L 137.448842 -242.194544 
L 137.458953 -245.28681 
L 137.48021 -248.379075 
L 137.507796 -251.47134 
L 137.535305 -254.563605 
L 137.557909 -257.655871 
L 137.573698 -260.748136 
L 137.58322 -263.840401 
L 137.588201 -266.932666 
L 137.590377 -270.024932 
L 137.590835 -273.117197 
L 137.589701 -276.209462 
L 137.585844 -279.301727 
L 137.576427 -282.393993 
L 137.556547 -285.486258 
L 137.519678 -288.578523 
L 137.459792 -291.670789 
L 137.375295 -294.763054 
L 137.273266 -297.855319 
L 137.17099 -300.947584 
L 137.092132 -304.03985 
L 137.057973 -307.132115 
L 137.078007 -310.22438 
L 137.145443 -313.316645 
L 137.240309 -316.408911 
L 137.337984 -319.501176 
L 137.418036 -322.593441 
L 137.469332 -325.685706 
L 137.490631 -328.777972 
L 137.488367 -331.870237 
L 137.473476 -334.962502 
L 137.458004 -338.054767 
L 137.451692 -341.147033 
L 137.459236 -344.239298 
L 137.479413 -347.331563 
L 137.506664 -350.423828 
L 137.53424 -353.516094 
L 137.557098 -356.608359 
L 137.573173 -359.700624 
L 137.610827 -359.700624 
L 137.610827 -359.700624 
L 137.626902 -356.608359 
L 137.64976 -353.516094 
L 137.677336 -350.423828 
L 137.704587 -347.331563 
L 137.724764 -344.239298 
L 137.732308 -341.147033 
L 137.725996 -338.054767 
L 137.710524 -334.962502 
L 137.695633 -331.870237 
L 137.693369 -328.777972 
L 137.714668 -325.685706 
L 137.765964 -322.593441 
L 137.846016 -319.501176 
L 137.943691 -316.408911 
L 138.038557 -313.316645 
L 138.105993 -310.22438 
L 138.126027 -307.132115 
L 138.091868 -304.03985 
L 138.01301 -300.947584 
L 137.910734 -297.855319 
L 137.808705 -294.763054 
L 137.724208 -291.670789 
L 137.664322 -288.578523 
L 137.627453 -285.486258 
L 137.607573 -282.393993 
L 137.598156 -279.301727 
L 137.594299 -276.209462 
L 137.593165 -273.117197 
L 137.593623 -270.024932 
L 137.595799 -266.932666 
L 137.60078 -263.840401 
L 137.610302 -260.748136 
L 137.626091 -257.655871 
L 137.648695 -254.563605 
L 137.676204 -251.47134 
L 137.70379 -248.379075 
L 137.725047 -245.28681 
L 137.735158 -242.194544 
L 137.734663 -239.102279 
L 137.731875 -236.010014 
L 137.742492 -232.917749 
L 137.785848 -229.825483 
L 137.877985 -226.733218 
L 138.022689 -223.640953 
L 138.20374 -220.548688 
L 138.383837 -217.456422 
L 138.51459 -214.364157 
L 138.555626 -211.271892 
L 138.49313 -208.179627 
L 138.346237 -205.087361 
L 138.157024 -201.995096 
L 137.970882 -198.902831 
L 137.819445 -195.810566 
L 137.714248 -192.7183 
L 137.650838 -189.626035 
L 137.617362 -186.53377 
L 137.601792 -183.441504 
L 137.595386 -180.349239 
L 137.593049 -177.256974 
L 137.592291 -174.164709 
L 137.592072 -171.072443 
L 137.592016 -167.980178 
L 137.592005 -164.887913 
L 137.592009 -161.795648 
L 137.592041 -158.703382 
L 137.592181 -155.611117 
L 137.592707 -152.518852 
L 137.594471 -149.426587 
L 137.599723 -146.334321 
L 137.613617 -143.242056 
L 137.646241 -140.149791 
L 137.714176 -137.057526 
L 137.839528 -133.96526 
L 138.044189 -130.872995 
L 138.339133 -127.78073 
L 138.712509 -124.688465 
L 139.123327 -121.596199 
L 139.50649 -118.503934 
L 139.789588 -115.411669 
L 139.916912 -112.319404 
L 139.875961 -109.227138 
L 139.726748 -106.134873 
L 139.640617 -103.042608 
L 139.955439 -99.950343 
L 141.235901 -96.858077 
L 144.281845 -93.765812 
L 149.976125 -90.673547 
L 158.879661 -87.581281 
L 170.642014 -84.489016 
L 183.557038 -81.396751 
L 194.722895 -78.304486 
L 201.0096 -75.21222 
L 200.450151 -72.119955 
L 193.221389 -69.02769 
L 181.549519 -65.935425 
L 168.605349 -62.843159 
L 157.128773 -59.750894 
L 148.580748 -56.658629 
L 143.110712 -53.566364 
z
" style="stroke: #595959; stroke-width: 1.25"/>
    </defs>
    <g clip-path="url(#p572118b680)">
     <use xlink:href="#m6bff792ec6" x="0" y="432" style="fill: #72b6a1; stroke: #595959; stroke-width: 1.25"/>
    </g>
   </g>
   <g id="PolyCollection_2">
    <defs>
     <path id="m60d8d22fc1" d="M 301.154625 -58.655148 
L 291.117375 -58.655148 
L 284.597004 -61.301454 
L 273.614487 -63.94776 
L 258.824322 -66.594065 
L 243.669601 -69.240371 
L 233.520937 -71.886677 
L 232.7184 -74.532982 
L 241.629605 -77.179288 
L 256.383161 -79.825594 
L 271.53414 -82.471899 
L 283.212023 -85.118205 
L 290.354636 -87.764511 
L 293.876918 -90.410816 
L 295.218343 -93.057122 
L 295.456255 -95.703428 
L 295.159022 -98.349733 
L 294.595277 -100.996039 
L 293.943679 -103.642345 
L 293.368655 -106.28865 
L 292.99708 -108.934956 
L 292.889845 -111.581262 
L 293.053704 -114.227567 
L 293.460975 -116.873873 
L 294.043061 -119.520179 
L 294.684443 -122.166484 
L 295.256835 -124.81279 
L 295.67609 -127.459096 
L 295.929717 -130.105401 
L 296.057029 -132.751707 
L 296.110266 -135.398013 
L 296.128874 -138.044318 
L 296.134324 -140.690624 
L 296.135666 -143.33693 
L 296.135943 -145.983235 
L 296.135992 -148.629541 
L 296.135999 -151.275847 
L 296.136 -153.922152 
L 296.136 -156.568458 
L 296.136 -159.214764 
L 296.136 -161.861069 
L 296.136 -164.507375 
L 296.136 -167.153681 
L 296.136 -169.799986 
L 296.136 -172.446292 
L 296.136 -175.092598 
L 296.135997 -177.738903 
L 296.135983 -180.385209 
L 296.135902 -183.031515 
L 296.135531 -185.67782 
L 296.134082 -188.324126 
L 296.12934 -190.970432 
L 296.116346 -193.616737 
L 296.086709 -196.263043 
L 296.030948 -198.909349 
L 295.945733 -201.555654 
L 295.843152 -204.20196 
L 295.752978 -206.848266 
L 295.71031 -209.494571 
L 295.733998 -212.140877 
L 295.813445 -214.787183 
L 295.916106 -217.433488 
L 296.008584 -220.079794 
L 296.072987 -222.7261 
L 296.108421 -225.372405 
L 296.122246 -228.018711 
L 296.121195 -230.665016 
L 296.107938 -233.311322 
L 296.083059 -235.957628 
L 296.049622 -238.603933 
L 296.016286 -241.250239 
L 295.995354 -243.896545 
L 295.995962 -246.54285 
L 296.017835 -249.189156 
L 296.0515 -251.835462 
L 296.08479 -254.481767 
L 296.109699 -257.128073 
L 296.124552 -259.774379 
L 296.131777 -262.420684 
L 296.13468 -265.06699 
L 296.13565 -267.713296 
L 296.135921 -270.359601 
L 296.135985 -273.005907 
L 296.135996 -275.652213 
L 296.135987 -278.298518 
L 296.135926 -280.944824 
L 296.135644 -283.59113 
L 296.134551 -286.237435 
L 296.130995 -288.883741 
L 296.121351 -291.530047 
L 296.099653 -294.176352 
L 296.059556 -296.822658 
L 295.999721 -299.468964 
L 295.930068 -302.115269 
L 295.872225 -304.761575 
L 295.849611 -307.407881 
L 295.872432 -310.054186 
L 295.930391 -312.700492 
L 296.000042 -315.346798 
L 296.059796 -317.993103 
L 296.099795 -320.639409 
L 296.172205 -320.639409 
L 296.172205 -320.639409 
L 296.212204 -317.993103 
L 296.271958 -315.346798 
L 296.341609 -312.700492 
L 296.399568 -310.054186 
L 296.422389 -307.407881 
L 296.399775 -304.761575 
L 296.341932 -302.115269 
L 296.272279 -299.468964 
L 296.212444 -296.822658 
L 296.172347 -294.176352 
L 296.150649 -291.530047 
L 296.141005 -288.883741 
L 296.137449 -286.237435 
L 296.136356 -283.59113 
L 296.136074 -280.944824 
L 296.136013 -278.298518 
L 296.136004 -275.652213 
L 296.136015 -273.005907 
L 296.136079 -270.359601 
L 296.13635 -267.713296 
L 296.13732 -265.06699 
L 296.140223 -262.420684 
L 296.147448 -259.774379 
L 296.162301 -257.128073 
L 296.18721 -254.481767 
L 296.2205 -251.835462 
L 296.254165 -249.189156 
L 296.276038 -246.54285 
L 296.276646 -243.896545 
L 296.255714 -241.250239 
L 296.222378 -238.603933 
L 296.188941 -235.957628 
L 296.164062 -233.311322 
L 296.150805 -230.665016 
L 296.149754 -228.018711 
L 296.163579 -225.372405 
L 296.199013 -222.7261 
L 296.263416 -220.079794 
L 296.355894 -217.433488 
L 296.458555 -214.787183 
L 296.538002 -212.140877 
L 296.56169 -209.494571 
L 296.519022 -206.848266 
L 296.428848 -204.20196 
L 296.326267 -201.555654 
L 296.241052 -198.909349 
L 296.185291 -196.263043 
L 296.155654 -193.616737 
L 296.14266 -190.970432 
L 296.137918 -188.324126 
L 296.136469 -185.67782 
L 296.136098 -183.031515 
L 296.136017 -180.385209 
L 296.136003 -177.738903 
L 296.136 -175.092598 
L 296.136 -172.446292 
L 296.136 -169.799986 
L 296.136 -167.153681 
L 296.136 -164.507375 
L 296.136 -161.861069 
L 296.136 -159.214764 
L 296.136 -156.568458 
L 296.136 -153.922152 
L 296.136001 -151.275847 
L 296.136008 -148.629541 
L 296.136057 -145.983235 
L 296.136334 -143.33693 
L 296.137676 -140.690624 
L 296.143126 -138.044318 
L 296.161734 -135.398013 
L 296.214971 -132.751707 
L 296.342283 -130.105401 
L 296.59591 -127.459096 
L 297.015165 -124.81279 
L 297.587557 -122.166484 
L 298.228939 -119.520179 
L 298.811025 -116.873873 
L 299.218296 -114.227567 
L 299.382155 -111.581262 
L 299.27492 -108.934956 
L 298.903345 -106.28865 
L 298.328321 -103.642345 
L 297.676723 -100.996039 
L 297.112978 -98.349733 
L 296.815745 -95.703428 
L 297.053657 -93.057122 
L 298.395082 -90.410816 
L 301.917364 -87.764511 
L 309.059977 -85.118205 
L 320.73786 -82.471899 
L 335.888839 -79.825594 
L 350.642395 -77.179288 
L 359.5536 -74.532982 
L 358.751063 -71.886677 
L 348.602399 -69.240371 
L 333.447678 -66.594065 
L 318.657513 -63.94776 
L 307.674996 -61.301454 
L 301.154625 -58.655148 
z
" style="stroke: #595959; stroke-width: 1.25"/>
    </defs>
    <g clip-path="url(#p572118b680)">
     <use xlink:href="#m60d8d22fc1" x="0" y="432" style="fill: #e99675; stroke: #595959; stroke-width: 1.25"/>
    </g>
   </g>
   <g id="PolyCollection_3">
    <defs>
     <path id="m337a083276" d="M 457.349126 -54.887276 
L 452.010874 -54.887276 
L 448.846338 -58.248956 
L 443.253931 -61.610636 
L 434.630159 -64.972317 
L 423.17014 -68.333997 
L 410.343654 -71.695678 
L 398.844833 -75.057358 
L 391.764503 -78.419038 
L 391.2624 -81.780719 
L 397.498672 -85.142399 
L 408.535119 -88.50408 
L 421.282301 -91.86576 
L 432.865121 -95.227441 
L 441.596431 -98.589121 
L 447.161641 -101.950801 
L 450.184672 -105.312482 
L 451.615479 -108.674162 
L 452.280818 -112.035843 
L 452.699261 -115.397523 
L 453.09444 -118.759203 
L 453.497728 -122.120884 
L 453.858122 -125.482564 
L 454.11773 -128.844245 
L 454.244683 -132.205925 
L 454.236449 -135.567605 
L 454.11304 -138.929286 
L 453.912724 -142.290966 
L 453.690368 -145.652647 
L 453.510638 -149.014327 
L 453.431109 -152.376008 
L 453.480783 -155.737688 
L 453.647502 -159.099368 
L 453.884306 -162.461049 
L 454.131807 -165.822729 
L 454.342668 -169.18441 
L 454.494721 -172.54609 
L 454.589214 -175.90777 
L 454.640328 -179.269451 
L 454.664544 -182.631131 
L 454.674632 -185.992812 
L 454.678336 -189.354492 
L 454.679527 -192.716172 
L 454.679817 -196.077853 
L 454.67967 -199.439533 
L 454.678804 -202.801214 
L 454.675852 -206.162894 
L 454.667094 -209.524575 
L 454.644107 -212.886255 
L 454.590788 -216.247935 
L 454.481838 -219.609616 
L 454.286643 -222.971296 
L 453.982241 -226.332977 
L 453.574014 -229.694657 
L 453.113641 -233.056337 
L 452.698034 -236.418018 
L 452.43959 -239.779698 
L 452.417726 -243.141379 
L 452.639638 -246.503059 
L 453.036501 -249.864739 
L 453.497811 -253.22642 
L 453.920699 -256.5881 
L 454.244583 -259.949781 
L 454.457097 -263.311461 
L 454.578141 -266.673142 
L 454.638456 -270.034822 
L 454.664878 -273.396502 
L 454.675088 -276.758183 
L 454.678576 -280.119863 
L 454.679632 -283.481544 
L 454.679915 -286.843224 
L 454.679983 -290.204904 
L 454.679997 -293.566585 
L 454.679999 -296.928265 
L 454.68 -300.289946 
L 454.68 -303.651626 
L 454.68 -307.013306 
L 454.68 -310.374987 
L 454.68 -313.736667 
L 454.68 -317.098348 
L 454.679999 -320.460028 
L 454.679993 -323.821709 
L 454.679971 -327.183389 
L 454.67989 -330.545069 
L 454.679622 -333.90675 
L 454.678847 -337.26843 
L 454.676863 -340.630111 
L 454.6724 -343.991791 
L 454.663606 -347.353471 
L 454.648508 -350.715152 
L 454.626134 -354.076832 
L 454.597953 -357.438513 
L 454.568717 -360.800193 
L 454.545592 -364.161873 
L 454.535442 -367.523554 
L 454.541552 -370.885234 
L 454.561927 -374.246915 
L 454.590331 -377.608595 
L 454.61936 -380.970276 
L 454.643483 -384.331956 
L 454.660418 -387.693636 
L 454.699582 -387.693636 
L 454.699582 -387.693636 
L 454.716517 -384.331956 
L 454.74064 -380.970276 
L 454.769669 -377.608595 
L 454.798073 -374.246915 
L 454.818448 -370.885234 
L 454.824558 -367.523554 
L 454.814408 -364.161873 
L 454.791283 -360.800193 
L 454.762047 -357.438513 
L 454.733866 -354.076832 
L 454.711492 -350.715152 
L 454.696394 -347.353471 
L 454.6876 -343.991791 
L 454.683137 -340.630111 
L 454.681153 -337.26843 
L 454.680378 -333.90675 
L 454.68011 -330.545069 
L 454.680029 -327.183389 
L 454.680007 -323.821709 
L 454.680001 -320.460028 
L 454.68 -317.098348 
L 454.68 -313.736667 
L 454.68 -310.374987 
L 454.68 -307.013306 
L 454.68 -303.651626 
L 454.68 -300.289946 
L 454.680001 -296.928265 
L 454.680003 -293.566585 
L 454.680017 -290.204904 
L 454.680085 -286.843224 
L 454.680368 -283.481544 
L 454.681424 -280.119863 
L 454.684912 -276.758183 
L 454.695122 -273.396502 
L 454.721544 -270.034822 
L 454.781859 -266.673142 
L 454.902903 -263.311461 
L 455.115417 -259.949781 
L 455.439301 -256.5881 
L 455.862189 -253.22642 
L 456.323499 -249.864739 
L 456.720362 -246.503059 
L 456.942274 -243.141379 
L 456.92041 -239.779698 
L 456.661966 -236.418018 
L 456.246359 -233.056337 
L 455.785986 -229.694657 
L 455.377759 -226.332977 
L 455.073357 -222.971296 
L 454.878162 -219.609616 
L 454.769212 -216.247935 
L 454.715893 -212.886255 
L 454.692906 -209.524575 
L 454.684148 -206.162894 
L 454.681196 -202.801214 
L 454.68033 -199.439533 
L 454.680183 -196.077853 
L 454.680473 -192.716172 
L 454.681664 -189.354492 
L 454.685368 -185.992812 
L 454.695456 -182.631131 
L 454.719672 -179.269451 
L 454.770786 -175.90777 
L 454.865279 -172.54609 
L 455.017332 -169.18441 
L 455.228193 -165.822729 
L 455.475694 -162.461049 
L 455.712498 -159.099368 
L 455.879217 -155.737688 
L 455.928891 -152.376008 
L 455.849362 -149.014327 
L 455.669632 -145.652647 
L 455.447276 -142.290966 
L 455.24696 -138.929286 
L 455.123551 -135.567605 
L 455.115317 -132.205925 
L 455.24227 -128.844245 
L 455.501878 -125.482564 
L 455.862272 -122.120884 
L 456.26556 -118.759203 
L 456.660739 -115.397523 
L 457.079182 -112.035843 
L 457.744521 -108.674162 
L 459.175328 -105.312482 
L 462.198359 -101.950801 
L 467.763569 -98.589121 
L 476.494879 -95.227441 
L 488.077699 -91.86576 
L 500.824881 -88.50408 
L 511.861328 -85.142399 
L 518.0976 -81.780719 
L 517.595497 -78.419038 
L 510.515167 -75.057358 
L 499.016346 -71.695678 
L 486.18986 -68.333997 
L 474.729841 -64.972317 
L 466.106069 -61.610636 
L 460.513662 -58.248956 
L 457.349126 -54.887276 
z
" style="stroke: #595959; stroke-width: 1.25"/>
    </defs>
    <g clip-path="url(#p572118b680)">
     <use xlink:href="#m337a083276" x="0" y="432" style="fill: #95a3c3; stroke: #595959; stroke-width: 1.25"/>
    </g>
   </g>
   <g id="PolyCollection_4">
    <defs>
     <path id="m865d4ccb5d" d="M 616.340846 -61.942673 
L 610.107154 -61.942673 
L 605.86056 -63.823493 
L 598.143863 -65.704313 
L 586.455887 -67.585133 
L 572.046939 -69.465953 
L 558.337792 -71.346774 
L 549.837837 -73.227594 
L 549.8064 -75.108414 
L 558.260089 -76.989234 
L 571.95975 -78.870054 
L 586.390169 -80.750874 
L 598.109417 -82.631694 
L 605.849739 -84.512514 
L 610.107269 -86.393334 
L 612.08153 -88.274154 
L 612.85571 -90.154974 
L 613.102279 -92.035794 
L 613.133877 -93.916614 
L 613.047585 -95.797435 
L 612.839454 -97.678255 
L 612.480217 -99.559075 
L 611.974985 -101.439895 
L 611.406226 -103.320715 
L 610.931566 -105.201535 
L 610.718871 -107.082355 
L 610.851892 -108.963175 
L 611.277721 -110.843995 
L 611.840315 -112.724815 
L 612.371637 -114.605635 
L 612.769052 -116.486455 
L 613.0136 -118.367275 
L 613.139681 -120.248096 
L 613.194667 -122.128916 
L 613.21493 -124.009736 
L 613.220749 -125.890556 
L 613.220499 -127.771376 
L 613.215801 -129.652196 
L 613.204762 -131.533016 
L 613.183749 -133.413836 
L 613.148619 -135.294656 
L 613.095184 -137.175476 
L 613.018443 -139.056296 
L 612.912136 -140.937116 
L 612.772811 -142.817936 
L 612.610145 -144.698756 
L 612.456147 -146.579577 
L 612.359718 -148.460397 
L 612.362365 -150.341217 
L 612.470804 -152.222037 
L 612.650088 -154.102857 
L 612.844074 -155.983677 
L 613.005886 -157.864497 
L 613.115513 -159.745317 
L 613.177275 -161.626137 
L 613.206578 -163.506957 
L 613.218378 -165.387777 
L 613.22243 -167.268597 
L 613.22362 -169.149417 
L 613.223921 -171.030238 
L 613.223986 -172.911058 
L 613.223998 -174.791878 
L 613.224 -176.672698 
L 613.224 -178.553518 
L 613.224 -180.434338 
L 613.224 -182.315158 
L 613.224 -184.195978 
L 613.224 -186.076798 
L 613.224 -187.957618 
L 613.224 -189.838438 
L 613.224 -191.719258 
L 613.224 -193.600078 
L 613.224 -195.480898 
L 613.224 -197.361719 
L 613.224 -199.242539 
L 613.224 -201.123359 
L 613.224 -203.004179 
L 613.224 -204.884999 
L 613.224 -206.765819 
L 613.224 -208.646639 
L 613.224 -210.527459 
L 613.223997 -212.408279 
L 613.223983 -214.289099 
L 613.223916 -216.169919 
L 613.223636 -218.050739 
L 613.222627 -219.931559 
L 613.219494 -221.81238 
L 613.211135 -223.6932 
L 613.19204 -225.57402 
L 613.154893 -227.45484 
L 613.093903 -229.33566 
L 613.010722 -231.21648 
L 612.919475 -233.0973 
L 612.845263 -234.97812 
L 612.813702 -236.85894 
L 612.836844 -238.73976 
L 612.905838 -240.62058 
L 612.99633 -242.5014 
L 613.082173 -244.38222 
L 613.147107 -246.26304 
L 613.187729 -248.143861 
L 613.260271 -248.143861 
L 613.260271 -248.143861 
L 613.300893 -246.26304 
L 613.365827 -244.38222 
L 613.45167 -242.5014 
L 613.542162 -240.62058 
L 613.611156 -238.73976 
L 613.634298 -236.85894 
L 613.602737 -234.97812 
L 613.528525 -233.0973 
L 613.437278 -231.21648 
L 613.354097 -229.33566 
L 613.293107 -227.45484 
L 613.25596 -225.57402 
L 613.236865 -223.6932 
L 613.228506 -221.81238 
L 613.225373 -219.931559 
L 613.224364 -218.050739 
L 613.224084 -216.169919 
L 613.224017 -214.289099 
L 613.224003 -212.408279 
L 613.224 -210.527459 
L 613.224 -208.646639 
L 613.224 -206.765819 
L 613.224 -204.884999 
L 613.224 -203.004179 
L 613.224 -201.123359 
L 613.224 -199.242539 
L 613.224 -197.361719 
L 613.224 -195.480898 
L 613.224 -193.600078 
L 613.224 -191.719258 
L 613.224 -189.838438 
L 613.224 -187.957618 
L 613.224 -186.076798 
L 613.224 -184.195978 
L 613.224 -182.315158 
L 613.224 -180.434338 
L 613.224 -178.553518 
L 613.224 -176.672698 
L 613.224002 -174.791878 
L 613.224014 -172.911058 
L 613.224079 -171.030238 
L 613.22438 -169.149417 
L 613.22557 -167.268597 
L 613.229622 -165.387777 
L 613.241422 -163.506957 
L 613.270725 -161.626137 
L 613.332487 -159.745317 
L 613.442114 -157.864497 
L 613.603926 -155.983677 
L 613.797912 -154.102857 
L 613.977196 -152.222037 
L 614.085635 -150.341217 
L 614.088282 -148.460397 
L 613.991853 -146.579577 
L 613.837855 -144.698756 
L 613.675189 -142.817936 
L 613.535864 -140.937116 
L 613.429557 -139.056296 
L 613.352816 -137.175476 
L 613.299381 -135.294656 
L 613.264251 -133.413836 
L 613.243238 -131.533016 
L 613.232199 -129.652196 
L 613.227501 -127.771376 
L 613.227251 -125.890556 
L 613.23307 -124.009736 
L 613.253333 -122.128916 
L 613.308319 -120.248096 
L 613.4344 -118.367275 
L 613.678948 -116.486455 
L 614.076363 -114.605635 
L 614.607685 -112.724815 
L 615.170279 -110.843995 
L 615.596108 -108.963175 
L 615.729129 -107.082355 
L 615.516434 -105.201535 
L 615.041774 -103.320715 
L 614.473015 -101.439895 
L 613.967783 -99.559075 
L 613.608546 -97.678255 
L 613.400415 -95.797435 
L 613.314123 -93.916614 
L 613.345721 -92.035794 
L 613.59229 -90.154974 
L 614.36647 -88.274154 
L 616.340731 -86.393334 
L 620.598261 -84.512514 
L 628.338583 -82.631694 
L 640.057831 -80.750874 
L 654.48825 -78.870054 
L 668.187911 -76.989234 
L 676.6416 -75.108414 
L 676.610163 -73.227594 
L 668.110208 -71.346774 
L 654.401061 -69.465953 
L 639.992113 -67.585133 
L 628.304137 -65.704313 
L 620.58744 -63.823493 
L 616.340846 -61.942673 
z
" style="stroke: #595959; stroke-width: 1.25"/>
    </defs>
    <g clip-path="url(#p572118b680)">
     <use xlink:href="#m865d4ccb5d" x="0" y="432" style="fill: #db96c0; stroke: #595959; stroke-width: 1.25"/>
    </g>
   </g>
   <g id="PolyCollection_5">
    <defs>
     <path id="meb39e055b5" d="M 776.828098 -56.676189 
L 766.707902 -56.676189 
L 762.935261 -58.660908 
L 757.378219 -60.645627 
L 749.888724 -62.630347 
L 740.720296 -64.615066 
L 730.649082 -66.599786 
L 720.944154 -68.584505 
L 713.139988 -70.569224 
L 708.650036 -72.553944 
L 708.3504 -74.538663 
L 712.301028 -76.523383 
L 719.725837 -78.508102 
L 729.260505 -80.492822 
L 739.35907 -82.477541 
L 748.692947 -84.46226 
L 756.403852 -86.44698 
L 762.158632 -88.431699 
L 766.044141 -90.416419 
L 768.38931 -92.401138 
L 769.598491 -94.385858 
L 770.043627 -96.370577 
L 770.021344 -98.355296 
L 769.754308 -100.340016 
L 769.409275 -102.324735 
L 769.111626 -104.309455 
L 768.949013 -106.294174 
L 768.967598 -108.278893 
L 769.16927 -110.263613 
L 769.516716 -112.248332 
L 769.947712 -114.233052 
L 770.394363 -116.217771 
L 770.800481 -118.202491 
L 771.131662 -120.18721 
L 771.376453 -122.171929 
L 771.540725 -124.156649 
L 771.639168 -126.141368 
L 771.687458 -128.126088 
L 771.697062 -130.110807 
L 771.673141 -132.095527 
L 771.615137 -134.080246 
L 771.519448 -136.064965 
L 771.383553 -138.049685 
L 771.210609 -140.034404 
L 771.013082 -142.019124 
L 770.81363 -144.003843 
L 770.64201 -145.988562 
L 770.528248 -147.973282 
L 770.494161 -149.958001 
L 770.546551 -151.942721 
L 770.674989 -153.92744 
L 770.855174 -155.91216 
L 771.056376 -157.896879 
L 771.24981 -159.881598 
L 771.414816 -161.866318 
L 771.541188 -163.851037 
L 771.627907 -165.835757 
L 771.679865 -167.820476 
L 771.704404 -169.805195 
L 771.70891 -171.789915 
L 771.69982 -173.774634 
L 771.68265 -175.759354 
L 771.662402 -177.744073 
L 771.643746 -179.728793 
L 771.630753 -181.713512 
L 771.626277 -183.698231 
L 771.631364 -185.682951 
L 771.645055 -187.66767 
L 771.664766 -189.65239 
L 771.687112 -191.637109 
L 771.708859 -193.621829 
L 771.72765 -195.606548 
L 771.74231 -197.591267 
L 771.752733 -199.575987 
L 771.759517 -201.560706 
L 771.763548 -203.545426 
L 771.765654 -205.530145 
L 771.766382 -207.514864 
L 771.765824 -209.499584 
L 771.763422 -211.484303 
L 771.757659 -213.469023 
L 771.745637 -215.453742 
L 771.72265 -217.438462 
L 771.682036 -219.423181 
L 771.615773 -221.4079 
L 771.516188 -223.39262 
L 771.378898 -225.377339 
L 771.206373 -227.362059 
L 771.01077 -229.346778 
L 770.814327 -231.331498 
L 770.646089 -233.316217 
L 770.535178 -235.300936 
L 770.502625 -237.285656 
L 770.554865 -239.270375 
L 770.681664 -241.255095 
L 770.859392 -243.239814 
L 771.058195 -245.224533 
L 771.250102 -247.209253 
L 771.415074 -249.193972 
L 771.54338 -251.178692 
L 771.634485 -253.163411 
L 771.901515 -253.163411 
L 771.901515 -253.163411 
L 771.99262 -251.178692 
L 772.120926 -249.193972 
L 772.285898 -247.209253 
L 772.477805 -245.224533 
L 772.676608 -243.239814 
L 772.854336 -241.255095 
L 772.981135 -239.270375 
L 773.033375 -237.285656 
L 773.000822 -235.300936 
L 772.889911 -233.316217 
L 772.721673 -231.331498 
L 772.52523 -229.346778 
L 772.329627 -227.362059 
L 772.157102 -225.377339 
L 772.019812 -223.39262 
L 771.920227 -221.4079 
L 771.853964 -219.423181 
L 771.81335 -217.438462 
L 771.790363 -215.453742 
L 771.778341 -213.469023 
L 771.772578 -211.484303 
L 771.770176 -209.499584 
L 771.769618 -207.514864 
L 771.770346 -205.530145 
L 771.772452 -203.545426 
L 771.776483 -201.560706 
L 771.783267 -199.575987 
L 771.79369 -197.591267 
L 771.80835 -195.606548 
L 771.827141 -193.621829 
L 771.848888 -191.637109 
L 771.871234 -189.65239 
L 771.890945 -187.66767 
L 771.904636 -185.682951 
L 771.909723 -183.698231 
L 771.905247 -181.713512 
L 771.892254 -179.728793 
L 771.873598 -177.744073 
L 771.85335 -175.759354 
L 771.83618 -173.774634 
L 771.82709 -171.789915 
L 771.831596 -169.805195 
L 771.856135 -167.820476 
L 771.908093 -165.835757 
L 771.994812 -163.851037 
L 772.121184 -161.866318 
L 772.28619 -159.881598 
L 772.479624 -157.896879 
L 772.680826 -155.91216 
L 772.861011 -153.92744 
L 772.989449 -151.942721 
L 773.041839 -149.958001 
L 773.007752 -147.973282 
L 772.89399 -145.988562 
L 772.72237 -144.003843 
L 772.522918 -142.019124 
L 772.325391 -140.034404 
L 772.152447 -138.049685 
L 772.016552 -136.064965 
L 771.920863 -134.080246 
L 771.862859 -132.095527 
L 771.838938 -130.110807 
L 771.848542 -128.126088 
L 771.896832 -126.141368 
L 771.995275 -124.156649 
L 772.159547 -122.171929 
L 772.404338 -120.18721 
L 772.735519 -118.202491 
L 773.141637 -116.217771 
L 773.588288 -114.233052 
L 774.019284 -112.248332 
L 774.36673 -110.263613 
L 774.568402 -108.278893 
L 774.586987 -106.294174 
L 774.424374 -104.309455 
L 774.126725 -102.324735 
L 773.781692 -100.340016 
L 773.514656 -98.355296 
L 773.492373 -96.370577 
L 773.937509 -94.385858 
L 775.14669 -92.401138 
L 777.491859 -90.416419 
L 781.377368 -88.431699 
L 787.132148 -86.44698 
L 794.843053 -84.46226 
L 804.17693 -82.477541 
L 814.275495 -80.492822 
L 823.810163 -78.508102 
L 831.234972 -76.523383 
L 835.1856 -74.538663 
L 834.885964 -72.553944 
L 830.396012 -70.569224 
L 822.591846 -68.584505 
L 812.886918 -66.599786 
L 802.815704 -64.615066 
L 793.647276 -62.630347 
L 786.157781 -60.645627 
L 780.600739 -58.660908 
L 776.828098 -56.676189 
z
" style="stroke: #595959; stroke-width: 1.25"/>
    </defs>
    <g clip-path="url(#p572118b680)">
     <use xlink:href="#meb39e055b5" x="0" y="432" style="fill: #a2c865; stroke: #595959; stroke-width: 1.25"/>
    </g>
   </g>
   <g id="line2d_9">
    <path d="M 137.592 358.198044 
L 137.592 358.748897 
" clip-path="url(#p572118b680)" style="fill: none; stroke: #000000"/>
   </g>
   <g id="line2d_10">
    <path d="M 137.592 357.827643 
L 137.592 357.300534 
" clip-path="url(#p572118b680)" style="fill: none; stroke: #000000"/>
   </g>
   <g id="line2d_11">
    <path d="M 131.6466 358.748897 
L 143.5374 358.748897 
" clip-path="url(#p572118b680)" style="fill: none; stroke: #000000; stroke-linecap: round"/>
   </g>
   <g id="line2d_12">
    <path d="M 131.6466 357.300534 
L 143.5374 357.300534 
" clip-path="url(#p572118b680)" style="fill: none; stroke: #000000; stroke-linecap: round"/>
   </g>
   <g id="line2d_13">
    <path d="M 296.136 358.662233 
L 296.136 359.394725 
" clip-path="url(#p572118b680)" style="fill: none; stroke: #000000"/>
   </g>
   <g id="line2d_14">
    <path d="M 296.136 358.156493 
L 296.136 357.447745 
" clip-path="url(#p572118b680)" style="fill: none; stroke: #000000"/>
   </g>
   <g id="line2d_15">
    <path d="M 290.1906 359.394725 
L 302.0814 359.394725 
" clip-path="url(#p572118b680)" style="fill: none; stroke: #000000; stroke-linecap: round"/>
   </g>
   <g id="line2d_16">
    <path d="M 290.1906 357.447745 
L 302.0814 357.447745 
" clip-path="url(#p572118b680)" style="fill: none; stroke: #000000; stroke-linecap: round"/>
   </g>
   <g id="line2d_17">
    <path d="M 454.68 352.16478 
L 454.68 354.91667 
" clip-path="url(#p572118b680)" style="fill: none; stroke: #000000"/>
   </g>
   <g id="line2d_18">
    <path d="M 454.68 350.17981 
L 454.68 348.106988 
" clip-path="url(#p572118b680)" style="fill: none; stroke: #000000"/>
   </g>
   <g id="line2d_19">
    <path d="M 448.7346 354.91667 
L 460.6254 354.91667 
" clip-path="url(#p572118b680)" style="fill: none; stroke: #000000; stroke-linecap: round"/>
   </g>
   <g id="line2d_20">
    <path d="M 448.7346 348.106988 
L 460.6254 348.106988 
" clip-path="url(#p572118b680)" style="fill: none; stroke: #000000; stroke-linecap: round"/>
   </g>
   <g id="line2d_21">
    <path d="M 613.224 357.946361 
L 613.224 358.535204 
" clip-path="url(#p572118b680)" style="fill: none; stroke: #000000"/>
   </g>
   <g id="line2d_22">
    <path d="M 613.224 357.547468 
L 613.224 356.972871 
" clip-path="url(#p572118b680)" style="fill: none; stroke: #000000"/>
   </g>
   <g id="line2d_23">
    <path d="M 607.2786 358.535204 
L 619.1694 358.535204 
" clip-path="url(#p572118b680)" style="fill: none; stroke: #000000; stroke-linecap: round"/>
   </g>
   <g id="line2d_24">
    <path d="M 607.2786 356.972871 
L 619.1694 356.972871 
" clip-path="url(#p572118b680)" style="fill: none; stroke: #000000; stroke-linecap: round"/>
   </g>
   <g id="line2d_25">
    <path d="M 771.768 358.405801 
L 771.768 358.839123 
" clip-path="url(#p572118b680)" style="fill: none; stroke: #000000"/>
   </g>
   <g id="line2d_26">
    <path d="M 771.768 358.10307 
L 771.768 357.65194 
" clip-path="url(#p572118b680)" style="fill: none; stroke: #000000"/>
   </g>
   <g id="line2d_27">
    <path d="M 765.8226 358.839123 
L 777.7134 358.839123 
" clip-path="url(#p572118b680)" style="fill: none; stroke: #000000; stroke-linecap: round"/>
   </g>
   <g id="line2d_28">
    <path d="M 765.8226 357.65194 
L 777.7134 357.65194 
" clip-path="url(#p572118b680)" style="fill: none; stroke: #000000; stroke-linecap: round"/>
   </g>
   <g id="line2d_29">
    <path d="M 125.7012 358.012844 
L 149.4828 358.012844 
" clip-path="url(#p572118b680)" style="fill: none; stroke: #ff0000; stroke-width: 2"/>
   </g>
   <g id="line2d_30">
    <path d="M 284.2452 358.406988 
L 308.0268 358.406988 
" clip-path="url(#p572118b680)" style="fill: none; stroke: #ff0000; stroke-width: 2"/>
   </g>
   <g id="line2d_31">
    <path d="M 442.7892 351.046454 
L 466.5708 351.046454 
" clip-path="url(#p572118b680)" style="fill: none; stroke: #ff0000; stroke-width: 2"/>
   </g>
   <g id="line2d_32">
    <path d="M 601.3332 357.756412 
L 625.1148 357.756412 
" clip-path="url(#p572118b680)" style="fill: none; stroke: #ff0000; stroke-width: 2"/>
   </g>
   <g id="line2d_33">
    <path d="M 759.8772 358.27165 
L 783.6588 358.27165 
" clip-path="url(#p572118b680)" style="fill: none; stroke: #ff0000; stroke-width: 2"/>
   </g>
   <g id="patch_3">
    <path d="M 58.32 395.14 
L 58.32 27.6 
" style="fill: none; stroke: #cccccc; stroke-width: 1.25; stroke-linejoin: miter; stroke-linecap: square"/>
   </g>
   <g id="patch_4">
    <path d="M 851.04 395.14 
L 851.04 27.6 
" style="fill: none; stroke: #cccccc; stroke-width: 1.25; stroke-linejoin: miter; stroke-linecap: square"/>
   </g>
   <g id="patch_5">
    <path d="M 58.32 395.14 
L 851.04 395.14 
" style="fill: none; stroke: #cccccc; stroke-width: 1.25; stroke-linejoin: miter; stroke-linecap: square"/>
   </g>
   <g id="patch_6">
    <path d="M 58.32 27.6 
L 851.04 27.6 
" style="fill: none; stroke: #cccccc; stroke-width: 1.25; stroke-linejoin: miter; stroke-linecap: square"/>
   </g>
   <g id="text_15">
    <!-- Handshake duration on TLS with mldsa44 signature algorithm — Local YDE (35ms/2%) -->
    <g style="fill: #262626" transform="translate(194.655 21.6) scale(0.12 -0.12)">
     <defs>
      <path id="DejaVuSans-54" d="M -19 4666 
L 3928 4666 
L 3928 4134 
L 2272 4134 
L 2272 0 
L 1638 0 
L 1638 4134 
L -19 4134 
L -19 4666 
z
" transform="scale(0.015625)"/>
      <path id="DejaVuSans-4c" d="M 628 4666 
L 1259 4666 
L 1259 531 
L 3531 531 
L 3531 0 
L 628 0 
L 628 4666 
z
" transform="scale(0.015625)"/>
      <path id="DejaVuSans-53" d="M 3425 4513 
L 3425 3897 
Q 3066 4069 2747 4153 
Q 2428 4238 2131 4238 
Q 1616 4238 1336 4038 
Q 1056 3838 1056 3469 
Q 1056 3159 1242 3001 
Q 1428 2844 1947 2747 
L 2328 2669 
Q 3034 2534 3370 2195 
Q 3706 1856 3706 1288 
Q 3706 609 3251 259 
Q 2797 -91 1919 -91 
Q 1588 -91 1214 -16 
Q 841 59 441 206 
L 441 856 
Q 825 641 1194 531 
Q 1563 422 1919 422 
Q 2459 422 2753 634 
Q 3047 847 3047 1241 
Q 3047 1584 2836 1778 
Q 2625 1972 2144 2069 
L 1759 2144 
Q 1053 2284 737 2584 
Q 422 2884 422 3419 
Q 422 4038 858 4394 
Q 1294 4750 2059 4750 
Q 2388 4750 2728 4690 
Q 3069 4631 3425 4513 
z
" transform="scale(0.015625)"/>
      <path id="DejaVuSans-77" d="M 269 3500 
L 844 3500 
L 1563 769 
L 2278 3500 
L 2956 3500 
L 3675 769 
L 4391 3500 
L 4966 3500 
L 4050 0 
L 3372 0 
L 2619 2869 
L 1863 0 
L 1184 0 
L 269 3500 
z
" transform="scale(0.015625)"/>
      <path id="DejaVuSans-67" d="M 2906 1791 
Q 2906 2416 2648 2759 
Q 2391 3103 1925 3103 
Q 1463 3103 1205 2759 
Q 947 2416 947 1791 
Q 947 1169 1205 825 
Q 1463 481 1925 481 
Q 2391 481 2648 825 
Q 2906 1169 2906 1791 
z
M 3481 434 
Q 3481 -459 3084 -895 
Q 2688 -1331 1869 -1331 
Q 1566 -1331 1297 -1286 
Q 1028 -1241 775 -1147 
L 775 -588 
Q 1028 -725 1275 -790 
Q 1522 -856 1778 -856 
Q 2344 -856 2625 -561 
Q 2906 -266 2906 331 
L 2906 616 
Q 2728 306 2450 153 
Q 2172 0 1784 0 
Q 1141 0 747 490 
Q 353 981 353 1791 
Q 353 2603 747 3093 
Q 1141 3584 1784 3584 
Q 2172 3584 2450 3431 
Q 2728 3278 2906 2969 
L 2906 3500 
L 3481 3500 
L 3481 434 
z
" transform="scale(0.015625)"/>
      <path id="DejaVuSans-2014" d="M 313 1978 
L 6088 1978 
L 6088 1528 
L 313 1528 
L 313 1978 
z
" transform="scale(0.015625)"/>
      <path id="DejaVuSans-63" d="M 3122 3366 
L 3122 2828 
Q 2878 2963 2633 3030 
Q 2388 3097 2138 3097 
Q 1578 3097 1268 2742 
Q 959 2388 959 1747 
Q 959 1106 1268 751 
Q 1578 397 2138 397 
Q 2388 397 2633 464 
Q 2878 531 3122 666 
L 3122 134 
Q 2881 22 2623 -34 
Q 2366 -91 2075 -91 
Q 1284 -91 818 406 
Q 353 903 353 1747 
Q 353 2603 823 3093 
Q 1294 3584 2113 3584 
Q 2378 3584 2631 3529 
Q 2884 3475 3122 3366 
z
" transform="scale(0.015625)"/>
      <path id="DejaVuSans-59" d="M -13 4666 
L 666 4666 
L 1959 2747 
L 3244 4666 
L 3922 4666 
L 2272 2222 
L 2272 0 
L 1638 0 
L 1638 2222 
L -13 4666 
z
" transform="scale(0.015625)"/>
      <path id="DejaVuSans-44" d="M 1259 4147 
L 1259 519 
L 2022 519 
Q 2988 519 3436 956 
Q 3884 1394 3884 2338 
Q 3884 3275 3436 3711 
Q 2988 4147 2022 4147 
L 1259 4147 
z
M 628 4666 
L 1925 4666 
Q 3281 4666 3915 4102 
Q 4550 3538 4550 2338 
Q 4550 1131 3912 565 
Q 3275 0 1925 0 
L 628 0 
L 628 4666 
z
" transform="scale(0.015625)"/>
      <path id="DejaVuSans-45" d="M 628 4666 
L 3578 4666 
L 3578 4134 
L 1259 4134 
L 1259 2753 
L 3481 2753 
L 3481 2222 
L 1259 2222 
L 1259 531 
L 3634 531 
L 3634 0 
L 628 0 
L 628 4666 
z
" transform="scale(0.015625)"/>
      <path id="DejaVuSans-2f" d="M 1625 4666 
L 2156 4666 
L 531 -594 
L 0 -594 
L 1625 4666 
z
" transform="scale(0.015625)"/>
      <path id="DejaVuSans-25" d="M 4653 2053 
Q 4381 2053 4226 1822 
Q 4072 1591 4072 1178 
Q 4072 772 4226 539 
Q 4381 306 4653 306 
Q 4919 306 5073 539 
Q 5228 772 5228 1178 
Q 5228 1588 5073 1820 
Q 4919 2053 4653 2053 
z
M 4653 2450 
Q 5147 2450 5437 2106 
Q 5728 1763 5728 1178 
Q 5728 594 5436 251 
Q 5144 -91 4653 -91 
Q 4153 -91 3862 251 
Q 3572 594 3572 1178 
Q 3572 1766 3864 2108 
Q 4156 2450 4653 2450 
z
M 1428 4353 
Q 1159 4353 1004 4120 
Q 850 3888 850 3481 
Q 850 3069 1003 2837 
Q 1156 2606 1428 2606 
Q 1700 2606 1854 2837 
Q 2009 3069 2009 3481 
Q 2009 3884 1853 4118 
Q 1697 4353 1428 4353 
z
M 4250 4750 
L 4750 4750 
L 1831 -91 
L 1331 -91 
L 4250 4750 
z
M 1428 4750 
Q 1922 4750 2215 4408 
Q 2509 4066 2509 3481 
Q 2509 2891 2217 2550 
Q 1925 2209 1428 2209 
Q 931 2209 642 2551 
Q 353 2894 353 3481 
Q 353 4063 643 4406 
Q 934 4750 1428 4750 
z
" transform="scale(0.015625)"/>
     </defs>
     <use xlink:href="#DejaVuSans-48"/>
     <use xlink:href="#DejaVuSans-61" x="75.195312"/>
     <use xlink:href="#DejaVuSans-6e" x="136.474609"/>
     <use xlink:href="#DejaVuSans-64" x="199.853516"/>
     <use xlink:href="#DejaVuSans-73" x="263.330078"/>
     <use xlink:href="#DejaVuSans-68" x="315.429688"/>
     <use xlink:href="#DejaVuSans-61" x="378.808594"/>
     <use xlink:href="#DejaVuSans-6b" x="440.087891"/>
     <use xlink:href="#DejaVuSans-65" x="494.373047"/>
     <use xlink:href="#DejaVuSans-20" x="555.896484"/>
     <use xlink:href="#DejaVuSans-64" x="587.683594"/>
     <use xlink:href="#DejaVuSans-75" x="651.160156"/>
     <use xlink:href="#DejaVuSans-72" x="714.539062"/>
     <use xlink:href="#DejaVuSans-61" x="755.652344"/>
     <use xlink:href="#DejaVuSans-74" x="816.931641"/>
     <use xlink:href="#DejaVuSans-69" x="856.140625"/>
     <use xlink:href="#DejaVuSans-6f" x="883.923828"/>
     <use xlink:href="#DejaVuSans-6e" x="945.105469"/>
     <use xlink:href="#DejaVuSans-20" x="1008.484375"/>
     <use xlink:href="#DejaVuSans-6f" x="1040.271484"/>
     <use xlink:href="#DejaVuSans-6e" x="1101.453125"/>
     <use xlink:href="#DejaVuSans-20" x="1164.832031"/>
     <use xlink:href="#DejaVuSans-54" x="1196.619141"/>
     <use xlink:href="#DejaVuSans-4c" x="1257.703125"/>
     <use xlink:href="#DejaVuSans-53" x="1313.416016"/>
     <use xlink:href="#DejaVuSans-20" x="1376.892578"/>
     <use xlink:href="#DejaVuSans-77" x="1408.679688"/>
     <use xlink:href="#DejaVuSans-69" x="1490.466797"/>
     <use xlink:href="#DejaVuSans-74" x="1518.25"/>
     <use xlink:href="#DejaVuSans-68" x="1557.458984"/>
     <use xlink:href="#DejaVuSans-20" x="1620.837891"/>
     <use xlink:href="#DejaVuSans-6d" x="1652.625"/>
     <use xlink:href="#DejaVuSans-6c" x="1750.037109"/>
     <use xlink:href="#DejaVuSans-64" x="1777.820312"/>
     <use xlink:href="#DejaVuSans-73" x="1841.296875"/>
     <use xlink:href="#DejaVuSans-61" x="1893.396484"/>
     <use xlink:href="#DejaVuSans-34" x="1954.675781"/>
     <use xlink:href="#DejaVuSans-34" x="2018.298828"/>
     <use xlink:href="#DejaVuSans-20" x="2081.921875"/>
     <use xlink:href="#DejaVuSans-73" x="2113.708984"/>
     <use xlink:href="#DejaVuSans-69" x="2165.808594"/>
     <use xlink:href="#DejaVuSans-67" x="2193.591797"/>
     <use xlink:href="#DejaVuSans-6e" x="2257.068359"/>
     <use xlink:href="#DejaVuSans-61" x="2320.447266"/>
     <use xlink:href="#DejaVuSans-74" x="2381.726562"/>
     <use xlink:href="#DejaVuSans-75" x="2420.935547"/>
     <use xlink:href="#DejaVuSans-72" x="2484.314453"/>
     <use xlink:href="#DejaVuSans-65" x="2523.177734"/>
     <use xlink:href="#DejaVuSans-20" x="2584.701172"/>
     <use xlink:href="#DejaVuSans-61" x="2616.488281"/>
     <use xlink:href="#DejaVuSans-6c" x="2677.767578"/>
     <use xlink:href="#DejaVuSans-67" x="2705.550781"/>
     <use xlink:href="#DejaVuSans-6f" x="2769.027344"/>
     <use xlink:href="#DejaVuSans-72" x="2830.208984"/>
     <use xlink:href="#DejaVuSans-69" x="2871.322266"/>
     <use xlink:href="#DejaVuSans-74" x="2899.105469"/>
     <use xlink:href="#DejaVuSans-68" x="2938.314453"/>
     <use xlink:href="#DejaVuSans-6d" x="3001.693359"/>
     <use xlink:href="#DejaVuSans-20" x="3099.105469"/>
     <use xlink:href="#DejaVuSans-2014" x="3130.892578"/>
     <use xlink:href="#DejaVuSans-20" x="3230.892578"/>
     <use xlink:href="#DejaVuSans-4c" x="3262.679688"/>
     <use xlink:href="#DejaVuSans-6f" x="3316.642578"/>
     <use xlink:href="#DejaVuSans-63" x="3377.824219"/>
     <use xlink:href="#DejaVuSans-61" x="3432.804688"/>
     <use xlink:href="#DejaVuSans-6c" x="3494.083984"/>
     <use xlink:href="#DejaVuSans-20" x="3521.867188"/>
     <use xlink:href="#DejaVuSans-59" x="3553.654297"/>
     <use xlink:href="#DejaVuSans-44" x="3614.738281"/>
     <use xlink:href="#DejaVuSans-45" x="3691.740234"/>
     <use xlink:href="#DejaVuSans-20" x="3754.923828"/>
     <use xlink:href="#DejaVuSans-28" x="3786.710938"/>
     <use xlink:href="#DejaVuSans-33" x="3825.724609"/>
     <use xlink:href="#DejaVuSans-35" x="3889.347656"/>
     <use xlink:href="#DejaVuSans-6d" x="3952.970703"/>
     <use xlink:href="#DejaVuSans-73" x="4050.382812"/>
     <use xlink:href="#DejaVuSans-2f" x="4102.482422"/>
     <use xlink:href="#DejaVuSans-32" x="4136.173828"/>
     <use xlink:href="#DejaVuSans-25" x="4199.796875"/>
     <use xlink:href="#DejaVuSans-29" x="4294.816406"/>
    </g>
   </g>
  </g>
 </g>
 <defs>
  <clipPath id="p572118b680">
   <rect x="58.32" y="27.6" width="792.72" height="367.54"/>
  </clipPath>
 </defs>
</svg>
