<?xml version="1.0" encoding="utf-8" standalone="no"?>
<!DOCTYPE svg PUBLIC "-//W3C//DTD SVG 1.1//EN"
  "http://www.w3.org/Graphics/SVG/1.1/DTD/svg11.dtd">
<svg xmlns:xlink="http://www.w3.org/1999/xlink" width="864pt" height="432pt" viewBox="0 0 864 432" xmlns="http://www.w3.org/2000/svg" version="1.1">
 <metadata>
  <rdf:RDF xmlns:dc="http://purl.org/dc/elements/1.1/" xmlns:cc="http://creativecommons.org/ns#" xmlns:rdf="http://www.w3.org/1999/02/22-rdf-syntax-ns#">
   <cc:Work>
    <dc:type rdf:resource="http://purl.org/dc/dcmitype/StillImage"/>
    <dc:date>2026-03-21T13:58:43.025651</dc:date>
    <dc:format>image/svg+xml</dc:format>
    <dc:creator>
     <cc:Agent>
      <dc:title>Matplotlib v3.6.3, https://matplotlib.org/</dc:title>
     </cc:Agent>
    </dc:creator>
   </cc:Work>
  </rdf:RDF>
 </metadata>
 <defs>
  <style type="text/css">*{stroke-linejoin: round; stroke-linecap: butt}</style>
 </defs>
 <g id="figure_1">
  <g id="patch_1">
   <path d="M 0 432 
L 864 432 
L 864 0 
L 0 0 
z
" style="fill: #ffffff"/>
  </g>
  <g id="axes_1">
   <g id="patch_2">
    <path d="M 58.32 395.14 
L 851.04 395.14 
L 851.04 27.6 
L 58.32 27.6 
z
" style="fill: #ffffff"/>
   </g>
   <g id="matplotlib.axis_1">
    <g id="xtick_1">
     <g id="text_1">
      <!-- P-521 -->
      <g style="fill: #262626" transform="translate(170.49 415.277812) scale(0.14 -0.14)">
       <defs>
        <path id="DejaVuSans-50" d="M 1259 4147 
L 1259 2394 
L 2053 2394 
Q 2494 2394 2734 2622 
Q 2975 2850 2975 3272 
Q 2975 3691 2734 3919 
Q 2494 4147 2053 4147 
L 1259 4147 
z
M 628 4666 
L 2053 4666 
Q 2838 4666 3239 4311 
Q 3641 3956 3641 3272 
Q 3641 2581 3239 2228 
Q 2838 1875 2053 1875 
L 1259 1875 
L 1259 0 
L 628 0 
L 628 4666 
z
" transform="scale(0.015625)"/>
        <path id="DejaVuSans-2d" d="M 313 2009 
L 1997 2009 
L 1997 1497 
L 313 1497 
L 313 2009 
z
" transform="scale(0.015625)"/>
        <path id="DejaVuSans-35" d="M 691 4666 
L 3169 4666 
L 3169 4134 
L 1269 4134 
L 1269 2991 
Q 1406 3038 1543 3061 
Q 1681 3084 1819 3084 
Q 2600 3084 3056 2656 
Q 3513 2228 3513 1497 
Q 3513 744 3044 326 
Q 2575 -91 1722 -91 
Q 1428 -91 1123 -41 
Q 819 9 494 109 
L 494 744 
Q 775 591 1075 516 
Q 1375 441 1709 441 
Q 2250 441 2565 725 
Q 2881 1009 2881 1497 
Q 2881 1984 2565 2268 
Q 2250 2553 1709 2553 
Q 1456 2553 1204 2497 
Q 953 2441 691 2322 
L 691 4666 
z
" transform="scale(0.015625)"/>
        <path id="DejaVuSans-32" d="M 1228 531 
L 3431 531 
L 3431 0 
L 469 0 
L 469 531 
Q 828 903 1448 1529 
Q 2069 2156 2228 2338 
Q 2531 2678 2651 2914 
Q 2772 3150 2772 3378 
Q 2772 3750 2511 3984 
Q 2250 4219 1831 4219 
Q 1534 4219 1204 4116 
Q 875 4013 500 3803 
L 500 4441 
Q 881 4594 1212 4672 
Q 1544 4750 1819 4750 
Q 2544 4750 2975 4387 
Q 3406 4025 3406 3419 
Q 3406 3131 3298 2873 
Q 3191 2616 2906 2266 
Q 2828 2175 2409 1742 
Q 1991 1309 1228 531 
z
" transform="scale(0.015625)"/>
        <path id="DejaVuSans-31" d="M 794 531 
L 1825 531 
L 1825 4091 
L 703 3866 
L 703 4441 
L 1819 4666 
L 2450 4666 
L 2450 531 
L 3481 531 
L 3481 0 
L 794 0 
L 794 531 
z
" transform="scale(0.015625)"/>
       </defs>
       <use xlink:href="#DejaVuSans-50"/>
       <use xlink:href="#DejaVuSans-2d" x="58.052734"/>
       <use xlink:href="#DejaVuSans-35" x="94.136719"/>
       <use xlink:href="#DejaVuSans-32" x="157.759766"/>
       <use xlink:href="#DejaVuSans-31" x="221.382812"/>
      </g>
     </g>
    </g>
    <g id="xtick_2">
     <g id="text_2">
      <!-- p521_mlkem1024 -->
      <g style="fill: #262626" transform="translate(391.871406 415.277812) scale(0.14 -0.14)">
       <defs>
        <path id="DejaVuSans-70" d="M 1159 525 
L 1159 -1331 
L 581 -1331 
L 581 3500 
L 1159 3500 
L 1159 2969 
Q 1341 3281 1617 3432 
Q 1894 3584 2278 3584 
Q 2916 3584 3314 3078 
Q 3713 2572 3713 1747 
Q 3713 922 3314 415 
Q 2916 -91 2278 -91 
Q 1894 -91 1617 61 
Q 1341 213 1159 525 
z
M 3116 1747 
Q 3116 2381 2855 2742 
Q 2594 3103 2138 3103 
Q 1681 3103 1420 2742 
Q 1159 2381 1159 1747 
Q 1159 1113 1420 752 
Q 1681 391 2138 391 
Q 2594 391 2855 752 
Q 3116 1113 3116 1747 
z
" transform="scale(0.015625)"/>
        <path id="DejaVuSans-5f" d="M 3263 -1063 
L 3263 -1509 
L -63 -1509 
L -63 -1063 
L 3263 -1063 
z
" transform="scale(0.015625)"/>
        <path id="DejaVuSans-6d" d="M 3328 2828 
Q 3544 3216 3844 3400 
Q 4144 3584 4550 3584 
Q 5097 3584 5394 3201 
Q 5691 2819 5691 2113 
L 5691 0 
L 5113 0 
L 5113 2094 
Q 5113 2597 4934 2840 
Q 4756 3084 4391 3084 
Q 3944 3084 3684 2787 
Q 3425 2491 3425 1978 
L 3425 0 
L 2847 0 
L 2847 2094 
Q 2847 2600 2669 2842 
Q 2491 3084 2119 3084 
Q 1678 3084 1418 2786 
Q 1159 2488 1159 1978 
L 1159 0 
L 581 0 
L 581 3500 
L 1159 3500 
L 1159 2956 
Q 1356 3278 1631 3431 
Q 1906 3584 2284 3584 
Q 2666 3584 2933 3390 
Q 3200 3197 3328 2828 
z
" transform="scale(0.015625)"/>
        <path id="DejaVuSans-6c" d="M 603 4863 
L 1178 4863 
L 1178 0 
L 603 0 
L 603 4863 
z
" transform="scale(0.015625)"/>
        <path id="DejaVuSans-6b" d="M 581 4863 
L 1159 4863 
L 1159 1991 
L 2875 3500 
L 3609 3500 
L 1753 1863 
L 3688 0 
L 2938 0 
L 1159 1709 
L 1159 0 
L 581 0 
L 581 4863 
z
" transform="scale(0.015625)"/>
        <path id="DejaVuSans-65" d="M 3597 1894 
L 3597 1613 
L 953 1613 
Q 991 1019 1311 708 
Q 1631 397 2203 397 
Q 2534 397 2845 478 
Q 3156 559 3463 722 
L 3463 178 
Q 3153 47 2828 -22 
Q 2503 -91 2169 -91 
Q 1331 -91 842 396 
Q 353 884 353 1716 
Q 353 2575 817 3079 
Q 1281 3584 2069 3584 
Q 2775 3584 3186 3129 
Q 3597 2675 3597 1894 
z
M 3022 2063 
Q 3016 2534 2758 2815 
Q 2500 3097 2075 3097 
Q 1594 3097 1305 2825 
Q 1016 2553 972 2059 
L 3022 2063 
z
" transform="scale(0.015625)"/>
        <path id="DejaVuSans-30" d="M 2034 4250 
Q 1547 4250 1301 3770 
Q 1056 3291 1056 2328 
Q 1056 1369 1301 889 
Q 1547 409 2034 409 
Q 2525 409 2770 889 
Q 3016 1369 3016 2328 
Q 3016 3291 2770 3770 
Q 2525 4250 2034 4250 
z
M 2034 4750 
Q 2819 4750 3233 4129 
Q 3647 3509 3647 2328 
Q 3647 1150 3233 529 
Q 2819 -91 2034 -91 
Q 1250 -91 836 529 
Q 422 1150 422 2328 
Q 422 3509 836 4129 
Q 1250 4750 2034 4750 
z
" transform="scale(0.015625)"/>
        <path id="DejaVuSans-34" d="M 2419 4116 
L 825 1625 
L 2419 1625 
L 2419 4116 
z
M 2253 4666 
L 3047 4666 
L 3047 1625 
L 3713 1625 
L 3713 1100 
L 3047 1100 
L 3047 0 
L 2419 0 
L 2419 1100 
L 313 1100 
L 313 1709 
L 2253 4666 
z
" transform="scale(0.015625)"/>
       </defs>
       <use xlink:href="#DejaVuSans-70"/>
       <use xlink:href="#DejaVuSans-35" x="63.476562"/>
       <use xlink:href="#DejaVuSans-32" x="127.099609"/>
       <use xlink:href="#DejaVuSans-31" x="190.722656"/>
       <use xlink:href="#DejaVuSans-5f" x="254.345703"/>
       <use xlink:href="#DejaVuSans-6d" x="304.345703"/>
       <use xlink:href="#DejaVuSans-6c" x="401.757812"/>
       <use xlink:href="#DejaVuSans-6b" x="429.541016"/>
       <use xlink:href="#DejaVuSans-65" x="483.826172"/>
       <use xlink:href="#DejaVuSans-6d" x="545.349609"/>
       <use xlink:href="#DejaVuSans-31" x="642.761719"/>
       <use xlink:href="#DejaVuSans-30" x="706.384766"/>
       <use xlink:href="#DejaVuSans-32" x="770.007812"/>
       <use xlink:href="#DejaVuSans-34" x="833.630859"/>
      </g>
     </g>
    </g>
    <g id="xtick_3">
     <g id="text_3">
      <!-- mlkem1024 -->
      <g style="fill: #262626" transform="translate(677.416562 415.277812) scale(0.14 -0.14)">
       <use xlink:href="#DejaVuSans-6d"/>
       <use xlink:href="#DejaVuSans-6c" x="97.412109"/>
       <use xlink:href="#DejaVuSans-6b" x="125.195312"/>
       <use xlink:href="#DejaVuSans-65" x="179.480469"/>
       <use xlink:href="#DejaVuSans-6d" x="241.003906"/>
       <use xlink:href="#DejaVuSans-31" x="338.416016"/>
       <use xlink:href="#DejaVuSans-30" x="402.039062"/>
       <use xlink:href="#DejaVuSans-32" x="465.662109"/>
       <use xlink:href="#DejaVuSans-34" x="529.285156"/>
      </g>
     </g>
    </g>
   </g>
   <g id="matplotlib.axis_2">
    <g id="ytick_1">
     <g id="line2d_1">
      <path d="M 58.32 393.233264 
L 851.04 393.233264 
" clip-path="url(#pf35b96ba81)" style="fill: none; stroke: #cccccc; stroke-linecap: round"/>
     </g>
     <g id="text_4">
      <!-- 100 -->
      <g style="fill: #262626" transform="translate(27.82375 397.412404) scale(0.11 -0.11)">
       <use xlink:href="#DejaVuSans-31"/>
       <use xlink:href="#DejaVuSans-30" x="63.623047"/>
       <use xlink:href="#DejaVuSans-30" x="127.246094"/>
      </g>
     </g>
    </g>
    <g id="ytick_2">
     <g id="line2d_2">
      <path d="M 58.32 328.449841 
L 851.04 328.449841 
" clip-path="url(#pf35b96ba81)" style="fill: none; stroke: #cccccc; stroke-linecap: round"/>
     </g>
     <g id="text_5">
      <!-- 200 -->
      <g style="fill: #262626" transform="translate(27.82375 332.628981) scale(0.11 -0.11)">
       <use xlink:href="#DejaVuSans-32"/>
       <use xlink:href="#DejaVuSans-30" x="63.623047"/>
       <use xlink:href="#DejaVuSans-30" x="127.246094"/>
      </g>
     </g>
    </g>
    <g id="ytick_3">
     <g id="line2d_3">
      <path d="M 58.32 263.666418 
L 851.04 263.666418 
" clip-path="url(#pf35b96ba81)" style="fill: none; stroke: #cccccc; stroke-linecap: round"/>
     </g>
     <g id="text_6">
      <!-- 300 -->
      <g style="fill: #262626" transform="translate(27.82375 267.845559) scale(0.11 -0.11)">
       <defs>
        <path id="DejaVuSans-33" d="M 2597 2516 
Q 3050 2419 3304 2112 
Q 3559 1806 3559 1356 
Q 3559 666 3084 287 
Q 2609 -91 1734 -91 
Q 1441 -91 1130 -33 
Q 819 25 488 141 
L 488 750 
Q 750 597 1062 519 
Q 1375 441 1716 441 
Q 2309 441 2620 675 
Q 2931 909 2931 1356 
Q 2931 1769 2642 2001 
Q 2353 2234 1838 2234 
L 1294 2234 
L 1294 2753 
L 1863 2753 
Q 2328 2753 2575 2939 
Q 2822 3125 2822 3475 
Q 2822 3834 2567 4026 
Q 2313 4219 1838 4219 
Q 1578 4219 1281 4162 
Q 984 4106 628 3988 
L 628 4550 
Q 988 4650 1302 4700 
Q 1616 4750 1894 4750 
Q 2613 4750 3031 4423 
Q 3450 4097 3450 3541 
Q 3450 3153 3228 2886 
Q 3006 2619 2597 2516 
z
" transform="scale(0.015625)"/>
       </defs>
       <use xlink:href="#DejaVuSans-33"/>
       <use xlink:href="#DejaVuSans-30" x="63.623047"/>
       <use xlink:href="#DejaVuSans-30" x="127.246094"/>
      </g>
     </g>
    </g>
    <g id="ytick_4">
     <g id="line2d_4">
      <path d="M 58.32 198.882995 
L 851.04 198.882995 
" clip-path="url(#pf35b96ba81)" style="fill: none; stroke: #cccccc; stroke-linecap: round"/>
     </g>
     <g id="text_7">
      <!-- 400 -->
      <g style="fill: #262626" transform="translate(27.82375 203.062136) scale(0.11 -0.11)">
       <use xlink:href="#DejaVuSans-34"/>
       <use xlink:href="#DejaVuSans-30" x="63.623047"/>
       <use xlink:href="#DejaVuSans-30" x="127.246094"/>
      </g>
     </g>
    </g>
    <g id="ytick_5">
     <g id="line2d_5">
      <path d="M 58.32 134.099572 
L 851.04 134.099572 
" clip-path="url(#pf35b96ba81)" style="fill: none; stroke: #cccccc; stroke-linecap: round"/>
     </g>
     <g id="text_8">
      <!-- 500 -->
      <g style="fill: #262626" transform="translate(27.82375 138.278713) scale(0.11 -0.11)">
       <use xlink:href="#DejaVuSans-35"/>
       <use xlink:href="#DejaVuSans-30" x="63.623047"/>
       <use xlink:href="#DejaVuSans-30" x="127.246094"/>
      </g>
     </g>
    </g>
    <g id="ytick_6">
     <g id="line2d_6">
      <path d="M 58.32 69.31615 
L 851.04 69.31615 
" clip-path="url(#pf35b96ba81)" style="fill: none; stroke: #cccccc; stroke-linecap: round"/>
     </g>
     <g id="text_9">
      <!-- 600 -->
      <g style="fill: #262626" transform="translate(27.82375 73.49529) scale(0.11 -0.11)">
       <defs>
        <path id="DejaVuSans-36" d="M 2113 2584 
Q 1688 2584 1439 2293 
Q 1191 2003 1191 1497 
Q 1191 994 1439 701 
Q 1688 409 2113 409 
Q 2538 409 2786 701 
Q 3034 994 3034 1497 
Q 3034 2003 2786 2293 
Q 2538 2584 2113 2584 
z
M 3366 4563 
L 3366 3988 
Q 3128 4100 2886 4159 
Q 2644 4219 2406 4219 
Q 1781 4219 1451 3797 
Q 1122 3375 1075 2522 
Q 1259 2794 1537 2939 
Q 1816 3084 2150 3084 
Q 2853 3084 3261 2657 
Q 3669 2231 3669 1497 
Q 3669 778 3244 343 
Q 2819 -91 2113 -91 
Q 1303 -91 875 529 
Q 447 1150 447 2328 
Q 447 3434 972 4092 
Q 1497 4750 2381 4750 
Q 2619 4750 2861 4703 
Q 3103 4656 3366 4563 
z
" transform="scale(0.015625)"/>
       </defs>
       <use xlink:href="#DejaVuSans-36"/>
       <use xlink:href="#DejaVuSans-30" x="63.623047"/>
       <use xlink:href="#DejaVuSans-30" x="127.246094"/>
      </g>
     </g>
    </g>
    <g id="text_10">
     <!-- Handshake duration (ms) -->
     <g style="fill: #262626" transform="translate(21.328125 287.437813) rotate(-90) scale(0.12 -0.12)">
      <defs>
       <path id="DejaVuSans-48" d="M 628 4666 
L 1259 4666 
L 1259 2753 
L 3553 2753 
L 3553 4666 
L 4184 4666 
L 4184 0 
L 3553 0 
L 3553 2222 
L 1259 2222 
L 1259 0 
L 628 0 
L 628 4666 
z
" transform="scale(0.015625)"/>
       <path id="DejaVuSans-61" d="M 2194 1759 
Q 1497 1759 1228 1600 
Q 959 1441 959 1056 
Q 959 750 1161 570 
Q 1363 391 1709 391 
Q 2188 391 2477 730 
Q 2766 1069 2766 1631 
L 2766 1759 
L 2194 1759 
z
M 3341 1997 
L 3341 0 
L 2766 0 
L 2766 531 
Q 2569 213 2275 61 
Q 1981 -91 1556 -91 
Q 1019 -91 701 211 
Q 384 513 384 1019 
Q 384 1609 779 1909 
Q 1175 2209 1959 2209 
L 2766 2209 
L 2766 2266 
Q 2766 2663 2505 2880 
Q 2244 3097 1772 3097 
Q 1472 3097 1187 3025 
Q 903 2953 641 2809 
L 641 3341 
Q 956 3463 1253 3523 
Q 1550 3584 1831 3584 
Q 2591 3584 2966 3190 
Q 3341 2797 3341 1997 
z
" transform="scale(0.015625)"/>
       <path id="DejaVuSans-6e" d="M 3513 2113 
L 3513 0 
L 2938 0 
L 2938 2094 
Q 2938 2591 2744 2837 
Q 2550 3084 2163 3084 
Q 1697 3084 1428 2787 
Q 1159 2491 1159 1978 
L 1159 0 
L 581 0 
L 581 3500 
L 1159 3500 
L 1159 2956 
Q 1366 3272 1645 3428 
Q 1925 3584 2291 3584 
Q 2894 3584 3203 3211 
Q 3513 2838 3513 2113 
z
" transform="scale(0.015625)"/>
       <path id="DejaVuSans-64" d="M 2906 2969 
L 2906 4863 
L 3481 4863 
L 3481 0 
L 2906 0 
L 2906 525 
Q 2725 213 2448 61 
Q 2172 -91 1784 -91 
Q 1150 -91 751 415 
Q 353 922 353 1747 
Q 353 2572 751 3078 
Q 1150 3584 1784 3584 
Q 2172 3584 2448 3432 
Q 2725 3281 2906 2969 
z
M 947 1747 
Q 947 1113 1208 752 
Q 1469 391 1925 391 
Q 2381 391 2643 752 
Q 2906 1113 2906 1747 
Q 2906 2381 2643 2742 
Q 2381 3103 1925 3103 
Q 1469 3103 1208 2742 
Q 947 2381 947 1747 
z
" transform="scale(0.015625)"/>
       <path id="DejaVuSans-73" d="M 2834 3397 
L 2834 2853 
Q 2591 2978 2328 3040 
Q 2066 3103 1784 3103 
Q 1356 3103 1142 2972 
Q 928 2841 928 2578 
Q 928 2378 1081 2264 
Q 1234 2150 1697 2047 
L 1894 2003 
Q 2506 1872 2764 1633 
Q 3022 1394 3022 966 
Q 3022 478 2636 193 
Q 2250 -91 1575 -91 
Q 1294 -91 989 -36 
Q 684 19 347 128 
L 347 722 
Q 666 556 975 473 
Q 1284 391 1588 391 
Q 1994 391 2212 530 
Q 2431 669 2431 922 
Q 2431 1156 2273 1281 
Q 2116 1406 1581 1522 
L 1381 1569 
Q 847 1681 609 1914 
Q 372 2147 372 2553 
Q 372 3047 722 3315 
Q 1072 3584 1716 3584 
Q 2034 3584 2315 3537 
Q 2597 3491 2834 3397 
z
" transform="scale(0.015625)"/>
       <path id="DejaVuSans-68" d="M 3513 2113 
L 3513 0 
L 2938 0 
L 2938 2094 
Q 2938 2591 2744 2837 
Q 2550 3084 2163 3084 
Q 1697 3084 1428 2787 
Q 1159 2491 1159 1978 
L 1159 0 
L 581 0 
L 581 4863 
L 1159 4863 
L 1159 2956 
Q 1366 3272 1645 3428 
Q 1925 3584 2291 3584 
Q 2894 3584 3203 3211 
Q 3513 2838 3513 2113 
z
" transform="scale(0.015625)"/>
       <path id="DejaVuSans-20" transform="scale(0.015625)"/>
       <path id="DejaVuSans-75" d="M 544 1381 
L 544 3500 
L 1119 3500 
L 1119 1403 
Q 1119 906 1312 657 
Q 1506 409 1894 409 
Q 2359 409 2629 706 
Q 2900 1003 2900 1516 
L 2900 3500 
L 3475 3500 
L 3475 0 
L 2900 0 
L 2900 538 
Q 2691 219 2414 64 
Q 2138 -91 1772 -91 
Q 1169 -91 856 284 
Q 544 659 544 1381 
z
M 1991 3584 
L 1991 3584 
z
" transform="scale(0.015625)"/>
       <path id="DejaVuSans-72" d="M 2631 2963 
Q 2534 3019 2420 3045 
Q 2306 3072 2169 3072 
Q 1681 3072 1420 2755 
Q 1159 2438 1159 1844 
L 1159 0 
L 581 0 
L 581 3500 
L 1159 3500 
L 1159 2956 
Q 1341 3275 1631 3429 
Q 1922 3584 2338 3584 
Q 2397 3584 2469 3576 
Q 2541 3569 2628 3553 
L 2631 2963 
z
" transform="scale(0.015625)"/>
       <path id="DejaVuSans-74" d="M 1172 4494 
L 1172 3500 
L 2356 3500 
L 2356 3053 
L 1172 3053 
L 1172 1153 
Q 1172 725 1289 603 
Q 1406 481 1766 481 
L 2356 481 
L 2356 0 
L 1766 0 
Q 1100 0 847 248 
Q 594 497 594 1153 
L 594 3053 
L 172 3053 
L 172 3500 
L 594 3500 
L 594 4494 
L 1172 4494 
z
" transform="scale(0.015625)"/>
       <path id="DejaVuSans-69" d="M 603 3500 
L 1178 3500 
L 1178 0 
L 603 0 
L 603 3500 
z
M 603 4863 
L 1178 4863 
L 1178 4134 
L 603 4134 
L 603 4863 
z
" transform="scale(0.015625)"/>
       <path id="DejaVuSans-6f" d="M 1959 3097 
Q 1497 3097 1228 2736 
Q 959 2375 959 1747 
Q 959 1119 1226 758 
Q 1494 397 1959 397 
Q 2419 397 2687 759 
Q 2956 1122 2956 1747 
Q 2956 2369 2687 2733 
Q 2419 3097 1959 3097 
z
M 1959 3584 
Q 2709 3584 3137 3096 
Q 3566 2609 3566 1747 
Q 3566 888 3137 398 
Q 2709 -91 1959 -91 
Q 1206 -91 779 398 
Q 353 888 353 1747 
Q 353 2609 779 3096 
Q 1206 3584 1959 3584 
z
" transform="scale(0.015625)"/>
       <path id="DejaVuSans-28" d="M 1984 4856 
Q 1566 4138 1362 3434 
Q 1159 2731 1159 2009 
Q 1159 1288 1364 580 
Q 1569 -128 1984 -844 
L 1484 -844 
Q 1016 -109 783 600 
Q 550 1309 550 2009 
Q 550 2706 781 3412 
Q 1013 4119 1484 4856 
L 1984 4856 
z
" transform="scale(0.015625)"/>
       <path id="DejaVuSans-29" d="M 513 4856 
L 1013 4856 
Q 1481 4119 1714 3412 
Q 1947 2706 1947 2009 
Q 1947 1309 1714 600 
Q 1481 -109 1013 -844 
L 513 -844 
Q 928 -128 1133 580 
Q 1338 1288 1338 2009 
Q 1338 2731 1133 3434 
Q 928 4138 513 4856 
z
" transform="scale(0.015625)"/>
      </defs>
      <use xlink:href="#DejaVuSans-48"/>
      <use xlink:href="#DejaVuSans-61" x="75.195312"/>
      <use xlink:href="#DejaVuSans-6e" x="136.474609"/>
      <use xlink:href="#DejaVuSans-64" x="199.853516"/>
      <use xlink:href="#DejaVuSans-73" x="263.330078"/>
      <use xlink:href="#DejaVuSans-68" x="315.429688"/>
      <use xlink:href="#DejaVuSans-61" x="378.808594"/>
      <use xlink:href="#DejaVuSans-6b" x="440.087891"/>
      <use xlink:href="#DejaVuSans-65" x="494.373047"/>
      <use xlink:href="#DejaVuSans-20" x="555.896484"/>
      <use xlink:href="#DejaVuSans-64" x="587.683594"/>
      <use xlink:href="#DejaVuSans-75" x="651.160156"/>
      <use xlink:href="#DejaVuSans-72" x="714.539062"/>
      <use xlink:href="#DejaVuSans-61" x="755.652344"/>
      <use xlink:href="#DejaVuSans-74" x="816.931641"/>
      <use xlink:href="#DejaVuSans-69" x="856.140625"/>
      <use xlink:href="#DejaVuSans-6f" x="883.923828"/>
      <use xlink:href="#DejaVuSans-6e" x="945.105469"/>
      <use xlink:href="#DejaVuSans-20" x="1008.484375"/>
      <use xlink:href="#DejaVuSans-28" x="1040.271484"/>
      <use xlink:href="#DejaVuSans-6d" x="1079.285156"/>
      <use xlink:href="#DejaVuSans-73" x="1176.697266"/>
      <use xlink:href="#DejaVuSans-29" x="1228.796875"/>
     </g>
    </g>
   </g>
   <g id="PolyCollection_1">
    <defs>
     <path id="mf4a6ab73b3" d="M 190.909259 -53.566364 
L 189.970741 -53.566364 
L 189.260707 -56.941387 
L 187.711221 -60.31641 
L 184.596947 -63.691433 
L 178.84567 -67.066455 
L 169.179414 -70.441478 
L 154.634215 -73.816501 
L 135.489592 -77.191524 
L 114.195808 -80.566547 
L 95.448134 -83.94157 
L 84.744 -87.316593 
L 85.826966 -90.691616 
L 98.591837 -94.066639 
L 119.017017 -97.441662 
L 141.233579 -100.816685 
L 160.241209 -104.191708 
L 173.536195 -107.566731 
L 181.059299 -110.941754 
L 184.131025 -114.316777 
L 184.383896 -117.6918 
L 183.215487 -121.066823 
L 181.687555 -124.441846 
L 180.565714 -127.816869 
L 180.310939 -131.191892 
L 181.037354 -134.566915 
L 182.536697 -137.941938 
L 184.411038 -141.316961 
L 186.254494 -144.691983 
L 187.788967 -148.067006 
L 188.904619 -151.442029 
L 189.622193 -154.817052 
L 190.025232 -158.192075 
L 190.200885 -161.567098 
L 190.205552 -164.942121 
L 190.05741 -168.317144 
L 189.753357 -171.692167 
L 189.303705 -175.06719 
L 188.767805 -178.442213 
L 188.264615 -181.817236 
L 187.939844 -185.192259 
L 187.900775 -188.567282 
L 188.160087 -191.942305 
L 188.629515 -195.317328 
L 189.167999 -198.692351 
L 189.649099 -202.067374 
L 190.004699 -205.442397 
L 190.227901 -208.81742 
L 190.348509 -212.192443 
L 190.405064 -215.567466 
L 190.428193 -218.942489 
L 190.436469 -222.317511 
L 190.439066 -225.692534 
L 190.439782 -229.067557 
L 190.439955 -232.44258 
L 190.439992 -235.817603 
L 190.439999 -239.192626 
L 190.44 -242.567649 
L 190.44 -245.942672 
L 190.44 -249.317695 
L 190.44 -252.692718 
L 190.44 -256.067741 
L 190.439998 -259.442764 
L 190.439991 -262.817787 
L 190.439955 -266.19281 
L 190.439804 -269.567833 
L 190.439247 -272.942856 
L 190.437455 -276.317879 
L 190.432424 -279.692902 
L 190.42012 -283.067925 
L 190.394001 -286.442948 
L 190.346116 -289.817971 
L 190.270912 -293.192994 
L 190.171185 -296.568017 
L 190.062665 -299.943039 
L 189.972236 -303.318062 
L 189.927833 -306.693085 
L 189.944655 -310.068108 
L 190.016834 -313.443131 
L 190.120698 -316.818154 
L 190.227151 -320.193177 
L 190.314362 -323.5682 
L 190.373276 -326.943223 
L 190.404957 -330.318246 
L 190.414035 -333.693269 
L 190.403191 -337.068292 
L 190.371216 -340.443315 
L 190.314679 -343.818338 
L 190.231692 -347.193361 
L 190.125641 -350.568384 
L 190.007094 -353.943407 
L 189.893329 -357.31843 
L 189.805769 -360.693453 
L 189.765235 -364.068476 
L 189.78496 -367.443499 
L 189.863667 -370.818522 
L 189.983594 -374.193545 
L 190.116687 -377.568567 
L 190.236134 -380.94359 
L 190.326001 -384.318613 
L 190.383619 -387.693636 
L 190.496381 -387.693636 
L 190.496381 -387.693636 
L 190.553999 -384.318613 
L 190.643866 -380.94359 
L 190.763313 -377.568567 
L 190.896406 -374.193545 
L 191.016333 -370.818522 
L 191.09504 -367.443499 
L 191.114765 -364.068476 
L 191.074231 -360.693453 
L 190.986671 -357.31843 
L 190.872906 -353.943407 
L 190.754359 -350.568384 
L 190.648308 -347.193361 
L 190.565321 -343.818338 
L 190.508784 -340.443315 
L 190.476809 -337.068292 
L 190.465965 -333.693269 
L 190.475043 -330.318246 
L 190.506724 -326.943223 
L 190.565638 -323.5682 
L 190.652849 -320.193177 
L 190.759302 -316.818154 
L 190.863166 -313.443131 
L 190.935345 -310.068108 
L 190.952167 -306.693085 
L 190.907764 -303.318062 
L 190.817335 -299.943039 
L 190.708815 -296.568017 
L 190.609088 -293.192994 
L 190.533884 -289.817971 
L 190.485999 -286.442948 
L 190.45988 -283.067925 
L 190.447576 -279.692902 
L 190.442545 -276.317879 
L 190.440753 -272.942856 
L 190.440196 -269.567833 
L 190.440045 -266.19281 
L 190.440009 -262.817787 
L 190.440002 -259.442764 
L 190.44 -256.067741 
L 190.44 -252.692718 
L 190.44 -249.317695 
L 190.44 -245.942672 
L 190.44 -242.567649 
L 190.440001 -239.192626 
L 190.440008 -235.817603 
L 190.440045 -232.44258 
L 190.440218 -229.067557 
L 190.440934 -225.692534 
L 190.443531 -222.317511 
L 190.451807 -218.942489 
L 190.474936 -215.567466 
L 190.531491 -212.192443 
L 190.652099 -208.81742 
L 190.875301 -205.442397 
L 191.230901 -202.067374 
L 191.712001 -198.692351 
L 192.250485 -195.317328 
L 192.719913 -191.942305 
L 192.979225 -188.567282 
L 192.940156 -185.192259 
L 192.615385 -181.817236 
L 192.112195 -178.442213 
L 191.576295 -175.06719 
L 191.126643 -171.692167 
L 190.82259 -168.317144 
L 190.674448 -164.942121 
L 190.679115 -161.567098 
L 190.854768 -158.192075 
L 191.257807 -154.817052 
L 191.975381 -151.442029 
L 193.091033 -148.067006 
L 194.625506 -144.691983 
L 196.468962 -141.316961 
L 198.343303 -137.941938 
L 199.842646 -134.566915 
L 200.569061 -131.191892 
L 200.314286 -127.816869 
L 199.192445 -124.441846 
L 197.664513 -121.066823 
L 196.496104 -117.6918 
L 196.748975 -114.316777 
L 199.820701 -110.941754 
L 207.343805 -107.566731 
L 220.638791 -104.191708 
L 239.646421 -100.816685 
L 261.862983 -97.441662 
L 282.288163 -94.066639 
L 295.053034 -90.691616 
L 296.136 -87.316593 
L 285.431866 -83.94157 
L 266.684192 -80.566547 
L 245.390408 -77.191524 
L 226.245785 -73.816501 
L 211.700586 -70.441478 
L 202.03433 -67.066455 
L 196.283053 -63.691433 
L 193.168779 -60.31641 
L 191.619293 -56.941387 
L 190.909259 -53.566364 
z
" style="stroke: #595959; stroke-width: 1.25"/>
    </defs>
    <g clip-path="url(#pf35b96ba81)">
     <use xlink:href="#mf4a6ab73b3" x="0" y="432" style="fill: #72b6a1; stroke: #595959; stroke-width: 1.25"/>
    </g>
   </g>
   <g id="PolyCollection_2">
    <defs>
     <path id="ma6a1e60fe9" d="M 455.367984 -102.225593 
L 453.992016 -102.225593 
L 453.356637 -104.58979 
L 452.280372 -106.953987 
L 450.562916 -109.318184 
L 447.965723 -111.682381 
L 444.217881 -114.046579 
L 439.022565 -116.410776 
L 432.074166 -118.774973 
L 423.110054 -121.13917 
L 412.023579 -123.503367 
L 399.040034 -125.867564 
L 384.90393 -128.231762 
L 370.971467 -130.595959 
L 359.09358 -132.960156 
L 351.244911 -135.324353 
L 348.984 -137.68855 
L 352.947245 -140.052747 
L 362.601158 -142.416945 
L 376.374674 -144.781142 
L 392.118658 -147.145339 
L 407.695309 -149.509536 
L 421.465855 -151.873733 
L 432.526262 -154.23793 
L 440.674926 -156.602127 
L 446.203599 -158.966325 
L 449.638759 -161.330522 
L 451.531969 -163.694719 
L 452.341683 -166.058916 
L 452.401001 -168.423113 
L 451.941562 -170.78731 
L 451.140064 -173.151508 
L 450.160673 -175.515705 
L 449.176611 -177.879902 
L 448.364997 -180.244099 
L 447.879978 -182.608296 
L 447.818176 -184.972493 
L 448.193928 -187.336691 
L 448.937208 -189.700888 
L 449.9165 -192.065085 
L 450.977493 -194.429282 
L 451.982496 -196.793479 
L 452.837244 -199.157676 
L 453.499251 -201.521874 
L 453.970147 -203.886071 
L 454.279486 -206.250268 
L 454.467873 -208.614465 
L 454.574525 -210.978662 
L 454.630763 -213.342859 
L 454.658423 -215.707057 
L 454.671126 -218.071254 
L 454.676575 -220.435451 
L 454.678761 -222.799648 
L 454.679579 -225.163845 
L 454.679866 -227.528042 
L 454.679959 -229.892239 
L 454.679986 -232.256437 
L 454.679987 -234.620634 
L 454.679967 -236.984831 
L 454.679903 -239.349028 
L 454.679724 -241.713225 
L 454.679274 -244.077422 
L 454.678224 -246.44162 
L 454.675961 -248.805817 
L 454.671465 -251.170014 
L 454.663237 -253.534211 
L 454.649405 -255.898408 
L 454.628102 -258.262605 
L 454.598184 -260.626803 
L 454.560122 -262.991 
L 454.516737 -265.355197 
L 454.473281 -267.719394 
L 454.43653 -270.083591 
L 454.412932 -272.447788 
L 454.406347 -274.811986 
L 454.416229 -277.176183 
L 454.43696 -279.54038 
L 454.458569 -281.904577 
L 454.468487 -284.268774 
L 454.453692 -286.632971 
L 454.402633 -288.997169 
L 454.306633 -291.361366 
L 454.160727 -293.725563 
L 453.964103 -296.08976 
L 453.720419 -298.453957 
L 453.438337 -300.818154 
L 453.13252 -303.182352 
L 452.824795 -305.546549 
L 452.544438 -307.910746 
L 452.326022 -310.274943 
L 452.203812 -312.63914 
L 452.20337 -315.003337 
L 452.333134 -317.367534 
L 452.579729 -319.731732 
L 452.909734 -322.095929 
L 453.277815 -324.460126 
L 453.638176 -326.824323 
L 453.954918 -329.18852 
L 454.207837 -331.552717 
L 454.392578 -333.916915 
L 454.51656 -336.281112 
L 454.84344 -336.281112 
L 454.84344 -336.281112 
L 454.967422 -333.916915 
L 455.152163 -331.552717 
L 455.405082 -329.18852 
L 455.721824 -326.824323 
L 456.082185 -324.460126 
L 456.450266 -322.095929 
L 456.780271 -319.731732 
L 457.026866 -317.367534 
L 457.15663 -315.003337 
L 457.156188 -312.63914 
L 457.033978 -310.274943 
L 456.815562 -307.910746 
L 456.535205 -305.546549 
L 456.22748 -303.182352 
L 455.921663 -300.818154 
L 455.639581 -298.453957 
L 455.395897 -296.08976 
L 455.199273 -293.725563 
L 455.053367 -291.361366 
L 454.957367 -288.997169 
L 454.906308 -286.632971 
L 454.891513 -284.268774 
L 454.901431 -281.904577 
L 454.92304 -279.54038 
L 454.943771 -277.176183 
L 454.953653 -274.811986 
L 454.947068 -272.447788 
L 454.92347 -270.083591 
L 454.886719 -267.719394 
L 454.843263 -265.355197 
L 454.799878 -262.991 
L 454.761816 -260.626803 
L 454.731898 -258.262605 
L 454.710595 -255.898408 
L 454.696763 -253.534211 
L 454.688535 -251.170014 
L 454.684039 -248.805817 
L 454.681776 -246.44162 
L 454.680726 -244.077422 
L 454.680276 -241.713225 
L 454.680097 -239.349028 
L 454.680033 -236.984831 
L 454.680013 -234.620634 
L 454.680014 -232.256437 
L 454.680041 -229.892239 
L 454.680134 -227.528042 
L 454.680421 -225.163845 
L 454.681239 -222.799648 
L 454.683425 -220.435451 
L 454.688874 -218.071254 
L 454.701577 -215.707057 
L 454.729237 -213.342859 
L 454.785475 -210.978662 
L 454.892127 -208.614465 
L 455.080514 -206.250268 
L 455.389853 -203.886071 
L 455.860749 -201.521874 
L 456.522756 -199.157676 
L 457.377504 -196.793479 
L 458.382507 -194.429282 
L 459.4435 -192.065085 
L 460.422792 -189.700888 
L 461.166072 -187.336691 
L 461.541824 -184.972493 
L 461.480022 -182.608296 
L 460.995003 -180.244099 
L 460.183389 -177.879902 
L 459.199327 -175.515705 
L 458.219936 -173.151508 
L 457.418438 -170.78731 
L 456.958999 -168.423113 
L 457.018317 -166.058916 
L 457.828031 -163.694719 
L 459.721241 -161.330522 
L 463.156401 -158.966325 
L 468.685074 -156.602127 
L 476.833738 -154.23793 
L 487.894145 -151.873733 
L 501.664691 -149.509536 
L 517.241342 -147.145339 
L 532.985326 -144.781142 
L 546.758842 -142.416945 
L 556.412755 -140.052747 
L 560.376 -137.68855 
L 558.115089 -135.324353 
L 550.26642 -132.960156 
L 538.388533 -130.595959 
L 524.45607 -128.231762 
L 510.319966 -125.867564 
L 497.336421 -123.503367 
L 486.249946 -121.13917 
L 477.285834 -118.774973 
L 470.337435 -116.410776 
L 465.142119 -114.046579 
L 461.394277 -111.682381 
L 458.797084 -109.318184 
L 457.079628 -106.953987 
L 456.003363 -104.58979 
L 455.367984 -102.225593 
z
" style="stroke: #595959; stroke-width: 1.25"/>
    </defs>
    <g clip-path="url(#pf35b96ba81)">
     <use xlink:href="#ma6a1e60fe9" x="0" y="432" style="fill: #e99675; stroke: #595959; stroke-width: 1.25"/>
    </g>
   </g>
   <g id="PolyCollection_3">
    <defs>
     <path id="mad61bdb6b4" d="M 727.376475 -96.772181 
L 710.463525 -96.772181 
L 703.322363 -98.90974 
L 692.487547 -101.047299 
L 677.764674 -103.184857 
L 660.045737 -105.322416 
L 641.538538 -107.459975 
L 625.473769 -109.597534 
L 615.238398 -111.735092 
L 613.224 -113.872651 
L 619.920164 -116.01021 
L 633.721518 -118.147768 
L 651.552047 -120.285327 
L 669.975713 -122.422886 
L 686.247529 -124.560445 
L 698.879761 -126.698003 
L 707.624469 -128.835562 
L 713.066285 -130.973121 
L 716.121569 -133.11068 
L 717.661195 -135.248238 
L 718.327212 -137.385797 
L 718.503833 -139.523356 
L 718.367842 -141.660915 
L 717.961262 -143.798473 
L 717.261741 -145.936032 
L 716.246902 -148.073591 
L 714.950908 -150.211149 
L 713.502034 -152.348708 
L 712.123138 -154.486267 
L 711.084243 -156.623826 
L 710.618706 -158.761384 
L 710.838384 -160.898943 
L 711.69007 -163.036502 
L 712.976401 -165.174061 
L 714.430057 -167.311619 
L 715.803232 -169.449178 
L 716.931901 -171.586737 
L 717.75468 -173.724296 
L 718.292278 -175.861854 
L 718.609053 -177.999413 
L 718.777762 -180.136972 
L 718.858337 -182.27453 
L 718.890854 -184.412089 
L 718.897383 -186.549648 
L 718.887112 -188.687207 
L 718.861544 -190.824765 
L 718.818825 -192.962324 
L 718.757398 -195.099883 
L 718.67905 -197.237442 
L 718.590706 -199.375 
L 718.504059 -201.512559 
L 718.432654 -203.650118 
L 718.387458 -205.787677 
L 718.373109 -207.925235 
L 718.386953 -210.062794 
L 718.421378 -212.200353 
L 718.467903 -214.337911 
L 718.52046 -216.47547 
L 718.576192 -218.613029 
L 718.633982 -220.750588 
L 718.692361 -222.888146 
L 718.748458 -225.025705 
L 718.798465 -227.163264 
L 718.838916 -229.300823 
L 718.867679 -231.438381 
L 718.884046 -233.57594 
L 718.888115 -235.713499 
L 718.880119 -237.851058 
L 718.860321 -239.988616 
L 718.829685 -242.126175 
L 718.790969 -244.263734 
L 718.749458 -246.401292 
L 718.712589 -248.538851 
L 718.688214 -250.67641 
L 718.682073 -252.813969 
L 718.695679 -254.951527 
L 718.725738 -257.089086 
L 718.765421 -259.226645 
L 718.806795 -261.364204 
L 718.843133 -263.501762 
L 718.87002 -265.639321 
L 718.884896 -267.77688 
L 718.885412 -269.914439 
L 718.867435 -272.051997 
L 718.823705 -274.189556 
L 718.744165 -276.327115 
L 718.618739 -278.464673 
L 718.442605 -280.602232 
L 718.222477 -282.739791 
L 717.980904 -284.87735 
L 717.755104 -287.014908 
L 717.588655 -289.152467 
L 717.518069 -291.290026 
L 717.559813 -293.427585 
L 717.70408 -295.565143 
L 717.918526 -297.702702 
L 718.160041 -299.840261 
L 718.388698 -301.97782 
L 718.577807 -304.115378 
L 718.716973 -306.252937 
L 718.809041 -308.390496 
L 719.030959 -308.390496 
L 719.030959 -308.390496 
L 719.123027 -306.252937 
L 719.262193 -304.115378 
L 719.451302 -301.97782 
L 719.679959 -299.840261 
L 719.921474 -297.702702 
L 720.13592 -295.565143 
L 720.280187 -293.427585 
L 720.321931 -291.290026 
L 720.251345 -289.152467 
L 720.084896 -287.014908 
L 719.859096 -284.87735 
L 719.617523 -282.739791 
L 719.397395 -280.602232 
L 719.221261 -278.464673 
L 719.095835 -276.327115 
L 719.016295 -274.189556 
L 718.972565 -272.051997 
L 718.954588 -269.914439 
L 718.955104 -267.77688 
L 718.96998 -265.639321 
L 718.996867 -263.501762 
L 719.033205 -261.364204 
L 719.074579 -259.226645 
L 719.114262 -257.089086 
L 719.144321 -254.951527 
L 719.157927 -252.813969 
L 719.151786 -250.67641 
L 719.127411 -248.538851 
L 719.090542 -246.401292 
L 719.049031 -244.263734 
L 719.010315 -242.126175 
L 718.979679 -239.988616 
L 718.959881 -237.851058 
L 718.951885 -235.713499 
L 718.955954 -233.57594 
L 718.972321 -231.438381 
L 719.001084 -229.300823 
L 719.041535 -227.163264 
L 719.091542 -225.025705 
L 719.147639 -222.888146 
L 719.206018 -220.750588 
L 719.263808 -218.613029 
L 719.31954 -216.47547 
L 719.372097 -214.337911 
L 719.418622 -212.200353 
L 719.453047 -210.062794 
L 719.466891 -207.925235 
L 719.452542 -205.787677 
L 719.407346 -203.650118 
L 719.335941 -201.512559 
L 719.249294 -199.375 
L 719.16095 -197.237442 
L 719.082602 -195.099883 
L 719.021175 -192.962324 
L 718.978456 -190.824765 
L 718.952888 -188.687207 
L 718.942617 -186.549648 
L 718.949146 -184.412089 
L 718.981663 -182.27453 
L 719.062238 -180.136972 
L 719.230947 -177.999413 
L 719.547722 -175.861854 
L 720.08532 -173.724296 
L 720.908099 -171.586737 
L 722.036768 -169.449178 
L 723.409943 -167.311619 
L 724.863599 -165.174061 
L 726.14993 -163.036502 
L 727.001616 -160.898943 
L 727.221294 -158.761384 
L 726.755757 -156.623826 
L 725.716862 -154.486267 
L 724.337966 -152.348708 
L 722.889092 -150.211149 
L 721.593098 -148.073591 
L 720.578259 -145.936032 
L 719.878738 -143.798473 
L 719.472158 -141.660915 
L 719.336167 -139.523356 
L 719.512788 -137.385797 
L 720.178805 -135.248238 
L 721.718431 -133.11068 
L 724.773715 -130.973121 
L 730.215531 -128.835562 
L 738.960239 -126.698003 
L 751.592471 -124.560445 
L 767.864287 -122.422886 
L 786.287953 -120.285327 
L 804.118482 -118.147768 
L 817.919836 -116.01021 
L 824.616 -113.872651 
L 822.601602 -111.735092 
L 812.366231 -109.597534 
L 796.301462 -107.459975 
L 777.794263 -105.322416 
L 760.075326 -103.184857 
L 745.352453 -101.047299 
L 734.517637 -98.90974 
L 727.376475 -96.772181 
z
" style="stroke: #595959; stroke-width: 1.25"/>
    </defs>
    <g clip-path="url(#pf35b96ba81)">
     <use xlink:href="#mad61bdb6b4" x="0" y="432" style="fill: #95a3c3; stroke: #595959; stroke-width: 1.25"/>
    </g>
   </g>
   <g id="line2d_7">
    <path d="M 190.44 343.69338 
L 190.44 347.489689 
" clip-path="url(#pf35b96ba81)" style="fill: none; stroke: #000000"/>
   </g>
   <g id="line2d_8">
    <path d="M 190.44 340.946563 
L 190.44 337.83048 
" clip-path="url(#pf35b96ba81)" style="fill: none; stroke: #000000"/>
   </g>
   <g id="line2d_9">
    <path d="M 180.531 347.489689 
L 200.349 347.489689 
" clip-path="url(#pf35b96ba81)" style="fill: none; stroke: #000000; stroke-linecap: round"/>
   </g>
   <g id="line2d_10">
    <path d="M 180.531 337.83048 
L 200.349 337.83048 
" clip-path="url(#pf35b96ba81)" style="fill: none; stroke: #000000; stroke-linecap: round"/>
   </g>
   <g id="line2d_11">
    <path d="M 454.68 296.077564 
L 454.68 302.160728 
" clip-path="url(#pf35b96ba81)" style="fill: none; stroke: #000000"/>
   </g>
   <g id="line2d_12">
    <path d="M 454.68 291.902273 
L 454.68 288.530296 
" clip-path="url(#pf35b96ba81)" style="fill: none; stroke: #000000"/>
   </g>
   <g id="line2d_13">
    <path d="M 444.771 302.160728 
L 464.589 302.160728 
" clip-path="url(#pf35b96ba81)" style="fill: none; stroke: #000000; stroke-linecap: round"/>
   </g>
   <g id="line2d_14">
    <path d="M 444.771 288.530296 
L 464.589 288.530296 
" clip-path="url(#pf35b96ba81)" style="fill: none; stroke: #000000; stroke-linecap: round"/>
   </g>
   <g id="line2d_15">
    <path d="M 718.92 318.952591 
L 718.92 319.788297 
" clip-path="url(#pf35b96ba81)" style="fill: none; stroke: #000000"/>
   </g>
   <g id="line2d_16">
    <path d="M 718.92 318.379258 
L 718.92 317.540312 
" clip-path="url(#pf35b96ba81)" style="fill: none; stroke: #000000"/>
   </g>
   <g id="line2d_17">
    <path d="M 709.011 319.788297 
L 728.829 319.788297 
" clip-path="url(#pf35b96ba81)" style="fill: none; stroke: #000000; stroke-linecap: round"/>
   </g>
   <g id="line2d_18">
    <path d="M 709.011 317.540312 
L 728.829 317.540312 
" clip-path="url(#pf35b96ba81)" style="fill: none; stroke: #000000; stroke-linecap: round"/>
   </g>
   <g id="line2d_19">
    <path d="M 170.622 342.825282 
L 210.258 342.825282 
" clip-path="url(#pf35b96ba81)" style="fill: none; stroke: #ff0000; stroke-width: 2"/>
   </g>
   <g id="line2d_20">
    <path d="M 434.862 294.419109 
L 474.498 294.419109 
" clip-path="url(#pf35b96ba81)" style="fill: none; stroke: #ff0000; stroke-width: 2"/>
   </g>
   <g id="line2d_21">
    <path d="M 699.102 318.712892 
L 738.738 318.712892 
" clip-path="url(#pf35b96ba81)" style="fill: none; stroke: #ff0000; stroke-width: 2"/>
   </g>
   <g id="patch_3">
    <path d="M 58.32 395.14 
L 58.32 27.6 
" style="fill: none; stroke: #cccccc; stroke-width: 1.25; stroke-linejoin: miter; stroke-linecap: square"/>
   </g>
   <g id="patch_4">
    <path d="M 851.04 395.14 
L 851.04 27.6 
" style="fill: none; stroke: #cccccc; stroke-width: 1.25; stroke-linejoin: miter; stroke-linecap: square"/>
   </g>
   <g id="patch_5">
    <path d="M 58.32 395.14 
L 851.04 395.14 
" style="fill: none; stroke: #cccccc; stroke-width: 1.25; stroke-linejoin: miter; stroke-linecap: square"/>
   </g>
   <g id="patch_6">
    <path d="M 58.32 27.6 
L 851.04 27.6 
" style="fill: none; stroke: #cccccc; stroke-width: 1.25; stroke-linejoin: miter; stroke-linecap: square"/>
   </g>
   <g id="text_11">
    <!-- Handshake duration on TLS with mldsa87 signature algorithm — Local YDE (35ms/2%) -->
    <g style="fill: #262626" transform="translate(194.655 21.6) scale(0.12 -0.12)">
     <defs>
      <path id="DejaVuSans-54" d="M -19 4666 
L 3928 4666 
L 3928 4134 
L 2272 4134 
L 2272 0 
L 1638 0 
L 1638 4134 
L -19 4134 
L -19 4666 
z
" transform="scale(0.015625)"/>
      <path id="DejaVuSans-4c" d="M 628 4666 
L 1259 4666 
L 1259 531 
L 3531 531 
L 3531 0 
L 628 0 
L 628 4666 
z
" transform="scale(0.015625)"/>
      <path id="DejaVuSans-53" d="M 3425 4513 
L 3425 3897 
Q 3066 4069 2747 4153 
Q 2428 4238 2131 4238 
Q 1616 4238 1336 4038 
Q 1056 3838 1056 3469 
Q 1056 3159 1242 3001 
Q 1428 2844 1947 2747 
L 2328 2669 
Q 3034 2534 3370 2195 
Q 3706 1856 3706 1288 
Q 3706 609 3251 259 
Q 2797 -91 1919 -91 
Q 1588 -91 1214 -16 
Q 841 59 441 206 
L 441 856 
Q 825 641 1194 531 
Q 1563 422 1919 422 
Q 2459 422 2753 634 
Q 3047 847 3047 1241 
Q 3047 1584 2836 1778 
Q 2625 1972 2144 2069 
L 1759 2144 
Q 1053 2284 737 2584 
Q 422 2884 422 3419 
Q 422 4038 858 4394 
Q 1294 4750 2059 4750 
Q 2388 4750 2728 4690 
Q 3069 4631 3425 4513 
z
" transform="scale(0.015625)"/>
      <path id="DejaVuSans-77" d="M 269 3500 
L 844 3500 
L 1563 769 
L 2278 3500 
L 2956 3500 
L 3675 769 
L 4391 3500 
L 4966 3500 
L 4050 0 
L 3372 0 
L 2619 2869 
L 1863 0 
L 1184 0 
L 269 3500 
z
" transform="scale(0.015625)"/>
      <path id="DejaVuSans-38" d="M 2034 2216 
Q 1584 2216 1326 1975 
Q 1069 1734 1069 1313 
Q 1069 891 1326 650 
Q 1584 409 2034 409 
Q 2484 409 2743 651 
Q 3003 894 3003 1313 
Q 3003 1734 2745 1975 
Q 2488 2216 2034 2216 
z
M 1403 2484 
Q 997 2584 770 2862 
Q 544 3141 544 3541 
Q 544 4100 942 4425 
Q 1341 4750 2034 4750 
Q 2731 4750 3128 4425 
Q 3525 4100 3525 3541 
Q 3525 3141 3298 2862 
Q 3072 2584 2669 2484 
Q 3125 2378 3379 2068 
Q 3634 1759 3634 1313 
Q 3634 634 3220 271 
Q 2806 -91 2034 -91 
Q 1263 -91 848 271 
Q 434 634 434 1313 
Q 434 1759 690 2068 
Q 947 2378 1403 2484 
z
M 1172 3481 
Q 1172 3119 1398 2916 
Q 1625 2713 2034 2713 
Q 2441 2713 2670 2916 
Q 2900 3119 2900 3481 
Q 2900 3844 2670 4047 
Q 2441 4250 2034 4250 
Q 1625 4250 1398 4047 
Q 1172 3844 1172 3481 
z
" transform="scale(0.015625)"/>
      <path id="DejaVuSans-37" d="M 525 4666 
L 3525 4666 
L 3525 4397 
L 1831 0 
L 1172 0 
L 2766 4134 
L 525 4134 
L 525 4666 
z
" transform="scale(0.015625)"/>
      <path id="DejaVuSans-67" d="M 2906 1791 
Q 2906 2416 2648 2759 
Q 2391 3103 1925 3103 
Q 1463 3103 1205 2759 
Q 947 2416 947 1791 
Q 947 1169 1205 825 
Q 1463 481 1925 481 
Q 2391 481 2648 825 
Q 2906 1169 2906 1791 
z
M 3481 434 
Q 3481 -459 3084 -895 
Q 2688 -1331 1869 -1331 
Q 1566 -1331 1297 -1286 
Q 1028 -1241 775 -1147 
L 775 -588 
Q 1028 -725 1275 -790 
Q 1522 -856 1778 -856 
Q 2344 -856 2625 -561 
Q 2906 -266 2906 331 
L 2906 616 
Q 2728 306 2450 153 
Q 2172 0 1784 0 
Q 1141 0 747 490 
Q 353 981 353 1791 
Q 353 2603 747 3093 
Q 1141 3584 1784 3584 
Q 2172 3584 2450 3431 
Q 2728 3278 2906 2969 
L 2906 3500 
L 3481 3500 
L 3481 434 
z
" transform="scale(0.015625)"/>
      <path id="DejaVuSans-2014" d="M 313 1978 
L 6088 1978 
L 6088 1528 
L 313 1528 
L 313 1978 
z
" transform="scale(0.015625)"/>
      <path id="DejaVuSans-63" d="M 3122 3366 
L 3122 2828 
Q 2878 2963 2633 3030 
Q 2388 3097 2138 3097 
Q 1578 3097 1268 2742 
Q 959 2388 959 1747 
Q 959 1106 1268 751 
Q 1578 397 2138 397 
Q 2388 397 2633 464 
Q 2878 531 3122 666 
L 3122 134 
Q 2881 22 2623 -34 
Q 2366 -91 2075 -91 
Q 1284 -91 818 406 
Q 353 903 353 1747 
Q 353 2603 823 3093 
Q 1294 3584 2113 3584 
Q 2378 3584 2631 3529 
Q 2884 3475 3122 3366 
z
" transform="scale(0.015625)"/>
      <path id="DejaVuSans-59" d="M -13 4666 
L 666 4666 
L 1959 2747 
L 3244 4666 
L 3922 4666 
L 2272 2222 
L 2272 0 
L 1638 0 
L 1638 2222 
L -13 4666 
z
" transform="scale(0.015625)"/>
      <path id="DejaVuSans-44" d="M 1259 4147 
L 1259 519 
L 2022 519 
Q 2988 519 3436 956 
Q 3884 1394 3884 2338 
Q 3884 3275 3436 3711 
Q 2988 4147 2022 4147 
L 1259 4147 
z
M 628 4666 
L 1925 4666 
Q 3281 4666 3915 4102 
Q 4550 3538 4550 2338 
Q 4550 1131 3912 565 
Q 3275 0 1925 0 
L 628 0 
L 628 4666 
z
" transform="scale(0.015625)"/>
      <path id="DejaVuSans-45" d="M 628 4666 
L 3578 4666 
L 3578 4134 
L 1259 4134 
L 1259 2753 
L 3481 2753 
L 3481 2222 
L 1259 2222 
L 1259 531 
L 3634 531 
L 3634 0 
L 628 0 
L 628 4666 
z
" transform="scale(0.015625)"/>
      <path id="DejaVuSans-2f" d="M 1625 4666 
L 2156 4666 
L 531 -594 
L 0 -594 
L 1625 4666 
z
" transform="scale(0.015625)"/>
      <path id="DejaVuSans-25" d="M 4653 2053 
Q 4381 2053 4226 1822 
Q 4072 1591 4072 1178 
Q 4072 772 4226 539 
Q 4381 306 4653 306 
Q 4919 306 5073 539 
Q 5228 772 5228 1178 
Q 5228 1588 5073 1820 
Q 4919 2053 4653 2053 
z
M 4653 2450 
Q 5147 2450 5437 2106 
Q 5728 1763 5728 1178 
Q 5728 594 5436 251 
Q 5144 -91 4653 -91 
Q 4153 -91 3862 251 
Q 3572 594 3572 1178 
Q 3572 1766 3864 2108 
Q 4156 2450 4653 2450 
z
M 1428 4353 
Q 1159 4353 1004 4120 
Q 850 3888 850 3481 
Q 850 3069 1003 2837 
Q 1156 2606 1428 2606 
Q 1700 2606 1854 2837 
Q 2009 3069 2009 3481 
Q 2009 3884 1853 4118 
Q 1697 4353 1428 4353 
z
M 4250 4750 
L 4750 4750 
L 1831 -91 
L 1331 -91 
L 4250 4750 
z
M 1428 4750 
Q 1922 4750 2215 4408 
Q 2509 4066 2509 3481 
Q 2509 2891 2217 2550 
Q 1925 2209 1428 2209 
Q 931 2209 642 2551 
Q 353 2894 353 3481 
Q 353 4063 643 4406 
Q 934 4750 1428 4750 
z
" transform="scale(0.015625)"/>
     </defs>
     <use xlink:href="#DejaVuSans-48"/>
     <use xlink:href="#DejaVuSans-61" x="75.195312"/>
     <use xlink:href="#DejaVuSans-6e" x="136.474609"/>
     <use xlink:href="#DejaVuSans-64" x="199.853516"/>
     <use xlink:href="#DejaVuSans-73" x="263.330078"/>
     <use xlink:href="#DejaVuSans-68" x="315.429688"/>
     <use xlink:href="#DejaVuSans-61" x="378.808594"/>
     <use xlink:href="#DejaVuSans-6b" x="440.087891"/>
     <use xlink:href="#DejaVuSans-65" x="494.373047"/>
     <use xlink:href="#DejaVuSans-20" x="555.896484"/>
     <use xlink:href="#DejaVuSans-64" x="587.683594"/>
     <use xlink:href="#DejaVuSans-75" x="651.160156"/>
     <use xlink:href="#DejaVuSans-72" x="714.539062"/>
     <use xlink:href="#DejaVuSans-61" x="755.652344"/>
     <use xlink:href="#DejaVuSans-74" x="816.931641"/>
     <use xlink:href="#DejaVuSans-69" x="856.140625"/>
     <use xlink:href="#DejaVuSans-6f" x="883.923828"/>
     <use xlink:href="#DejaVuSans-6e" x="945.105469"/>
     <use xlink:href="#DejaVuSans-20" x="1008.484375"/>
     <use xlink:href="#DejaVuSans-6f" x="1040.271484"/>
     <use xlink:href="#DejaVuSans-6e" x="1101.453125"/>
     <use xlink:href="#DejaVuSans-20" x="1164.832031"/>
     <use xlink:href="#DejaVuSans-54" x="1196.619141"/>
     <use xlink:href="#DejaVuSans-4c" x="1257.703125"/>
     <use xlink:href="#DejaVuSans-53" x="1313.416016"/>
     <use xlink:href="#DejaVuSans-20" x="1376.892578"/>
     <use xlink:href="#DejaVuSans-77" x="1408.679688"/>
     <use xlink:href="#DejaVuSans-69" x="1490.466797"/>
     <use xlink:href="#DejaVuSans-74" x="1518.25"/>
     <use xlink:href="#DejaVuSans-68" x="1557.458984"/>
     <use xlink:href="#DejaVuSans-20" x="1620.837891"/>
     <use xlink:href="#DejaVuSans-6d" x="1652.625"/>
     <use xlink:href="#DejaVuSans-6c" x="1750.037109"/>
     <use xlink:href="#DejaVuSans-64" x="1777.820312"/>
     <use xlink:href="#DejaVuSans-73" x="1841.296875"/>
     <use xlink:href="#DejaVuSans-61" x="1893.396484"/>
     <use xlink:href="#DejaVuSans-38" x="1954.675781"/>
     <use xlink:href="#DejaVuSans-37" x="2018.298828"/>
     <use xlink:href="#DejaVuSans-20" x="2081.921875"/>
     <use xlink:href="#DejaVuSans-73" x="2113.708984"/>
     <use xlink:href="#DejaVuSans-69" x="2165.808594"/>
     <use xlink:href="#DejaVuSans-67" x="2193.591797"/>
     <use xlink:href="#DejaVuSans-6e" x="2257.068359"/>
     <use xlink:href="#DejaVuSans-61" x="2320.447266"/>
     <use xlink:href="#DejaVuSans-74" x="2381.726562"/>
     <use xlink:href="#DejaVuSans-75" x="2420.935547"/>
     <use xlink:href="#DejaVuSans-72" x="2484.314453"/>
     <use xlink:href="#DejaVuSans-65" x="2523.177734"/>
     <use xlink:href="#DejaVuSans-20" x="2584.701172"/>
     <use xlink:href="#DejaVuSans-61" x="2616.488281"/>
     <use xlink:href="#DejaVuSans-6c" x="2677.767578"/>
     <use xlink:href="#DejaVuSans-67" x="2705.550781"/>
     <use xlink:href="#DejaVuSans-6f" x="2769.027344"/>
     <use xlink:href="#DejaVuSans-72" x="2830.208984"/>
     <use xlink:href="#DejaVuSans-69" x="2871.322266"/>
     <use xlink:href="#DejaVuSans-74" x="2899.105469"/>
     <use xlink:href="#DejaVuSans-68" x="2938.314453"/>
     <use xlink:href="#DejaVuSans-6d" x="3001.693359"/>
     <use xlink:href="#DejaVuSans-20" x="3099.105469"/>
     <use xlink:href="#DejaVuSans-2014" x="3130.892578"/>
     <use xlink:href="#DejaVuSans-20" x="3230.892578"/>
     <use xlink:href="#DejaVuSans-4c" x="3262.679688"/>
     <use xlink:href="#DejaVuSans-6f" x="3316.642578"/>
     <use xlink:href="#DejaVuSans-63" x="3377.824219"/>
     <use xlink:href="#DejaVuSans-61" x="3432.804688"/>
     <use xlink:href="#DejaVuSans-6c" x="3494.083984"/>
     <use xlink:href="#DejaVuSans-20" x="3521.867188"/>
     <use xlink:href="#DejaVuSans-59" x="3553.654297"/>
     <use xlink:href="#DejaVuSans-44" x="3614.738281"/>
     <use xlink:href="#DejaVuSans-45" x="3691.740234"/>
     <use xlink:href="#DejaVuSans-20" x="3754.923828"/>
     <use xlink:href="#DejaVuSans-28" x="3786.710938"/>
     <use xlink:href="#DejaVuSans-33" x="3825.724609"/>
     <use xlink:href="#DejaVuSans-35" x="3889.347656"/>
     <use xlink:href="#DejaVuSans-6d" x="3952.970703"/>
     <use xlink:href="#DejaVuSans-73" x="4050.382812"/>
     <use xlink:href="#DejaVuSans-2f" x="4102.482422"/>
     <use xlink:href="#DejaVuSans-32" x="4136.173828"/>
     <use xlink:href="#DejaVuSans-25" x="4199.796875"/>
     <use xlink:href="#DejaVuSans-29" x="4294.816406"/>
    </g>
   </g>
  </g>
 </g>
 <defs>
  <clipPath id="pf35b96ba81">
   <rect x="58.32" y="27.6" width="792.72" height="367.54"/>
  </clipPath>
 </defs>
</svg>
