<?xml version="1.0" encoding="utf-8" standalone="no"?>
<!DOCTYPE svg PUBLIC "-//W3C//DTD SVG 1.1//EN"
  "http://www.w3.org/Graphics/SVG/1.1/DTD/svg11.dtd">
<svg xmlns:xlink="http://www.w3.org/1999/xlink" width="864pt" height="432pt" viewBox="0 0 864 432" xmlns="http://www.w3.org/2000/svg" version="1.1">
 <metadata>
  <rdf:RDF xmlns:dc="http://purl.org/dc/elements/1.1/" xmlns:cc="http://creativecommons.org/ns#" xmlns:rdf="http://www.w3.org/1999/02/22-rdf-syntax-ns#">
   <cc:Work>
    <dc:type rdf:resource="http://purl.org/dc/dcmitype/StillImage"/>
    <dc:date>2026-03-21T13:58:42.807061</dc:date>
    <dc:format>image/svg+xml</dc:format>
    <dc:creator>
     <cc:Agent>
      <dc:title>Matplotlib v3.6.3, https://matplotlib.org/</dc:title>
     </cc:Agent>
    </dc:creator>
   </cc:Work>
  </rdf:RDF>
 </metadata>
 <defs>
  <style type="text/css">*{stroke-linejoin: round; stroke-linecap: butt}</style>
 </defs>
 <g id="figure_1">
  <g id="patch_1">
   <path d="M 0 432 
L 864 432 
L 864 0 
L 0 0 
z
" style="fill: #ffffff"/>
  </g>
  <g id="axes_1">
   <g id="patch_2">
    <path d="M 58.32 395.14 
L 851.04 395.14 
L 851.04 27.6 
L 58.32 27.6 
z
" style="fill: #ffffff"/>
   </g>
   <g id="matplotlib.axis_1">
    <g id="xtick_1">
     <g id="text_1">
      <!-- P-384 -->
      <g style="fill: #262626" transform="translate(117.642 415.277812) scale(0.14 -0.14)">
       <defs>
        <path id="DejaVuSans-50" d="M 1259 4147 
L 1259 2394 
L 2053 2394 
Q 2494 2394 2734 2622 
Q 2975 2850 2975 3272 
Q 2975 3691 2734 3919 
Q 2494 4147 2053 4147 
L 1259 4147 
z
M 628 4666 
L 2053 4666 
Q 2838 4666 3239 4311 
Q 3641 3956 3641 3272 
Q 3641 2581 3239 2228 
Q 2838 1875 2053 1875 
L 1259 1875 
L 1259 0 
L 628 0 
L 628 4666 
z
" transform="scale(0.015625)"/>
        <path id="DejaVuSans-2d" d="M 313 2009 
L 1997 2009 
L 1997 1497 
L 313 1497 
L 313 2009 
z
" transform="scale(0.015625)"/>
        <path id="DejaVuSans-33" d="M 2597 2516 
Q 3050 2419 3304 2112 
Q 3559 1806 3559 1356 
Q 3559 666 3084 287 
Q 2609 -91 1734 -91 
Q 1441 -91 1130 -33 
Q 819 25 488 141 
L 488 750 
Q 750 597 1062 519 
Q 1375 441 1716 441 
Q 2309 441 2620 675 
Q 2931 909 2931 1356 
Q 2931 1769 2642 2001 
Q 2353 2234 1838 2234 
L 1294 2234 
L 1294 2753 
L 1863 2753 
Q 2328 2753 2575 2939 
Q 2822 3125 2822 3475 
Q 2822 3834 2567 4026 
Q 2313 4219 1838 4219 
Q 1578 4219 1281 4162 
Q 984 4106 628 3988 
L 628 4550 
Q 988 4650 1302 4700 
Q 1616 4750 1894 4750 
Q 2613 4750 3031 4423 
Q 3450 4097 3450 3541 
Q 3450 3153 3228 2886 
Q 3006 2619 2597 2516 
z
" transform="scale(0.015625)"/>
        <path id="DejaVuSans-38" d="M 2034 2216 
Q 1584 2216 1326 1975 
Q 1069 1734 1069 1313 
Q 1069 891 1326 650 
Q 1584 409 2034 409 
Q 2484 409 2743 651 
Q 3003 894 3003 1313 
Q 3003 1734 2745 1975 
Q 2488 2216 2034 2216 
z
M 1403 2484 
Q 997 2584 770 2862 
Q 544 3141 544 3541 
Q 544 4100 942 4425 
Q 1341 4750 2034 4750 
Q 2731 4750 3128 4425 
Q 3525 4100 3525 3541 
Q 3525 3141 3298 2862 
Q 3072 2584 2669 2484 
Q 3125 2378 3379 2068 
Q 3634 1759 3634 1313 
Q 3634 634 3220 271 
Q 2806 -91 2034 -91 
Q 1263 -91 848 271 
Q 434 634 434 1313 
Q 434 1759 690 2068 
Q 947 2378 1403 2484 
z
M 1172 3481 
Q 1172 3119 1398 2916 
Q 1625 2713 2034 2713 
Q 2441 2713 2670 2916 
Q 2900 3119 2900 3481 
Q 2900 3844 2670 4047 
Q 2441 4250 2034 4250 
Q 1625 4250 1398 4047 
Q 1172 3844 1172 3481 
z
" transform="scale(0.015625)"/>
        <path id="DejaVuSans-34" d="M 2419 4116 
L 825 1625 
L 2419 1625 
L 2419 4116 
z
M 2253 4666 
L 3047 4666 
L 3047 1625 
L 3713 1625 
L 3713 1100 
L 3047 1100 
L 3047 0 
L 2419 0 
L 2419 1100 
L 313 1100 
L 313 1709 
L 2253 4666 
z
" transform="scale(0.015625)"/>
       </defs>
       <use xlink:href="#DejaVuSans-50"/>
       <use xlink:href="#DejaVuSans-2d" x="58.052734"/>
       <use xlink:href="#DejaVuSans-33" x="94.136719"/>
       <use xlink:href="#DejaVuSans-38" x="157.759766"/>
       <use xlink:href="#DejaVuSans-34" x="221.382812"/>
      </g>
     </g>
    </g>
    <g id="xtick_2">
     <g id="text_2">
      <!-- x448 -->
      <g style="fill: #262626" transform="translate(278.631625 415.277812) scale(0.14 -0.14)">
       <defs>
        <path id="DejaVuSans-78" d="M 3513 3500 
L 2247 1797 
L 3578 0 
L 2900 0 
L 1881 1375 
L 863 0 
L 184 0 
L 1544 1831 
L 300 3500 
L 978 3500 
L 1906 2253 
L 2834 3500 
L 3513 3500 
z
" transform="scale(0.015625)"/>
       </defs>
       <use xlink:href="#DejaVuSans-78"/>
       <use xlink:href="#DejaVuSans-34" x="59.179688"/>
       <use xlink:href="#DejaVuSans-34" x="122.802734"/>
       <use xlink:href="#DejaVuSans-38" x="186.425781"/>
      </g>
     </g>
    </g>
    <g id="xtick_3">
     <g id="text_3">
      <!-- p384_mlkem768 -->
      <g style="fill: #262626" transform="translate(396.325156 415.277812) scale(0.14 -0.14)">
       <defs>
        <path id="DejaVuSans-70" d="M 1159 525 
L 1159 -1331 
L 581 -1331 
L 581 3500 
L 1159 3500 
L 1159 2969 
Q 1341 3281 1617 3432 
Q 1894 3584 2278 3584 
Q 2916 3584 3314 3078 
Q 3713 2572 3713 1747 
Q 3713 922 3314 415 
Q 2916 -91 2278 -91 
Q 1894 -91 1617 61 
Q 1341 213 1159 525 
z
M 3116 1747 
Q 3116 2381 2855 2742 
Q 2594 3103 2138 3103 
Q 1681 3103 1420 2742 
Q 1159 2381 1159 1747 
Q 1159 1113 1420 752 
Q 1681 391 2138 391 
Q 2594 391 2855 752 
Q 3116 1113 3116 1747 
z
" transform="scale(0.015625)"/>
        <path id="DejaVuSans-5f" d="M 3263 -1063 
L 3263 -1509 
L -63 -1509 
L -63 -1063 
L 3263 -1063 
z
" transform="scale(0.015625)"/>
        <path id="DejaVuSans-6d" d="M 3328 2828 
Q 3544 3216 3844 3400 
Q 4144 3584 4550 3584 
Q 5097 3584 5394 3201 
Q 5691 2819 5691 2113 
L 5691 0 
L 5113 0 
L 5113 2094 
Q 5113 2597 4934 2840 
Q 4756 3084 4391 3084 
Q 3944 3084 3684 2787 
Q 3425 2491 3425 1978 
L 3425 0 
L 2847 0 
L 2847 2094 
Q 2847 2600 2669 2842 
Q 2491 3084 2119 3084 
Q 1678 3084 1418 2786 
Q 1159 2488 1159 1978 
L 1159 0 
L 581 0 
L 581 3500 
L 1159 3500 
L 1159 2956 
Q 1356 3278 1631 3431 
Q 1906 3584 2284 3584 
Q 2666 3584 2933 3390 
Q 3200 3197 3328 2828 
z
" transform="scale(0.015625)"/>
        <path id="DejaVuSans-6c" d="M 603 4863 
L 1178 4863 
L 1178 0 
L 603 0 
L 603 4863 
z
" transform="scale(0.015625)"/>
        <path id="DejaVuSans-6b" d="M 581 4863 
L 1159 4863 
L 1159 1991 
L 2875 3500 
L 3609 3500 
L 1753 1863 
L 3688 0 
L 2938 0 
L 1159 1709 
L 1159 0 
L 581 0 
L 581 4863 
z
" transform="scale(0.015625)"/>
        <path id="DejaVuSans-65" d="M 3597 1894 
L 3597 1613 
L 953 1613 
Q 991 1019 1311 708 
Q 1631 397 2203 397 
Q 2534 397 2845 478 
Q 3156 559 3463 722 
L 3463 178 
Q 3153 47 2828 -22 
Q 2503 -91 2169 -91 
Q 1331 -91 842 396 
Q 353 884 353 1716 
Q 353 2575 817 3079 
Q 1281 3584 2069 3584 
Q 2775 3584 3186 3129 
Q 3597 2675 3597 1894 
z
M 3022 2063 
Q 3016 2534 2758 2815 
Q 2500 3097 2075 3097 
Q 1594 3097 1305 2825 
Q 1016 2553 972 2059 
L 3022 2063 
z
" transform="scale(0.015625)"/>
        <path id="DejaVuSans-37" d="M 525 4666 
L 3525 4666 
L 3525 4397 
L 1831 0 
L 1172 0 
L 2766 4134 
L 525 4134 
L 525 4666 
z
" transform="scale(0.015625)"/>
        <path id="DejaVuSans-36" d="M 2113 2584 
Q 1688 2584 1439 2293 
Q 1191 2003 1191 1497 
Q 1191 994 1439 701 
Q 1688 409 2113 409 
Q 2538 409 2786 701 
Q 3034 994 3034 1497 
Q 3034 2003 2786 2293 
Q 2538 2584 2113 2584 
z
M 3366 4563 
L 3366 3988 
Q 3128 4100 2886 4159 
Q 2644 4219 2406 4219 
Q 1781 4219 1451 3797 
Q 1122 3375 1075 2522 
Q 1259 2794 1537 2939 
Q 1816 3084 2150 3084 
Q 2853 3084 3261 2657 
Q 3669 2231 3669 1497 
Q 3669 778 3244 343 
Q 2819 -91 2113 -91 
Q 1303 -91 875 529 
Q 447 1150 447 2328 
Q 447 3434 972 4092 
Q 1497 4750 2381 4750 
Q 2619 4750 2861 4703 
Q 3103 4656 3366 4563 
z
" transform="scale(0.015625)"/>
       </defs>
       <use xlink:href="#DejaVuSans-70"/>
       <use xlink:href="#DejaVuSans-33" x="63.476562"/>
       <use xlink:href="#DejaVuSans-38" x="127.099609"/>
       <use xlink:href="#DejaVuSans-34" x="190.722656"/>
       <use xlink:href="#DejaVuSans-5f" x="254.345703"/>
       <use xlink:href="#DejaVuSans-6d" x="304.345703"/>
       <use xlink:href="#DejaVuSans-6c" x="401.757812"/>
       <use xlink:href="#DejaVuSans-6b" x="429.541016"/>
       <use xlink:href="#DejaVuSans-65" x="483.826172"/>
       <use xlink:href="#DejaVuSans-6d" x="545.349609"/>
       <use xlink:href="#DejaVuSans-37" x="642.761719"/>
       <use xlink:href="#DejaVuSans-36" x="706.384766"/>
       <use xlink:href="#DejaVuSans-38" x="770.007812"/>
      </g>
     </g>
    </g>
    <g id="xtick_4">
     <g id="text_4">
      <!-- x448_mlkem768 -->
      <g style="fill: #262626" transform="translate(555.169937 415.277812) scale(0.14 -0.14)">
       <use xlink:href="#DejaVuSans-78"/>
       <use xlink:href="#DejaVuSans-34" x="59.179688"/>
       <use xlink:href="#DejaVuSans-34" x="122.802734"/>
       <use xlink:href="#DejaVuSans-38" x="186.425781"/>
       <use xlink:href="#DejaVuSans-5f" x="250.048828"/>
       <use xlink:href="#DejaVuSans-6d" x="300.048828"/>
       <use xlink:href="#DejaVuSans-6c" x="397.460938"/>
       <use xlink:href="#DejaVuSans-6b" x="425.244141"/>
       <use xlink:href="#DejaVuSans-65" x="479.529297"/>
       <use xlink:href="#DejaVuSans-6d" x="541.052734"/>
       <use xlink:href="#DejaVuSans-37" x="638.464844"/>
       <use xlink:href="#DejaVuSans-36" x="702.087891"/>
       <use xlink:href="#DejaVuSans-38" x="765.710938"/>
      </g>
     </g>
    </g>
    <g id="xtick_5">
     <g id="text_5">
      <!-- mlkem768 -->
      <g style="fill: #262626" transform="translate(734.718312 415.277812) scale(0.14 -0.14)">
       <use xlink:href="#DejaVuSans-6d"/>
       <use xlink:href="#DejaVuSans-6c" x="97.412109"/>
       <use xlink:href="#DejaVuSans-6b" x="125.195312"/>
       <use xlink:href="#DejaVuSans-65" x="179.480469"/>
       <use xlink:href="#DejaVuSans-6d" x="241.003906"/>
       <use xlink:href="#DejaVuSans-37" x="338.416016"/>
       <use xlink:href="#DejaVuSans-36" x="402.039062"/>
       <use xlink:href="#DejaVuSans-38" x="465.662109"/>
      </g>
     </g>
    </g>
   </g>
   <g id="matplotlib.axis_2">
    <g id="ytick_1">
     <g id="line2d_1">
      <path d="M 58.32 383.84978 
L 851.04 383.84978 
" clip-path="url(#p82025364ae)" style="fill: none; stroke: #cccccc; stroke-linecap: round"/>
     </g>
     <g id="text_6">
      <!-- 100 -->
      <g style="fill: #262626" transform="translate(27.82375 388.028921) scale(0.11 -0.11)">
       <defs>
        <path id="DejaVuSans-31" d="M 794 531 
L 1825 531 
L 1825 4091 
L 703 3866 
L 703 4441 
L 1819 4666 
L 2450 4666 
L 2450 531 
L 3481 531 
L 3481 0 
L 794 0 
L 794 531 
z
" transform="scale(0.015625)"/>
        <path id="DejaVuSans-30" d="M 2034 4250 
Q 1547 4250 1301 3770 
Q 1056 3291 1056 2328 
Q 1056 1369 1301 889 
Q 1547 409 2034 409 
Q 2525 409 2770 889 
Q 3016 1369 3016 2328 
Q 3016 3291 2770 3770 
Q 2525 4250 2034 4250 
z
M 2034 4750 
Q 2819 4750 3233 4129 
Q 3647 3509 3647 2328 
Q 3647 1150 3233 529 
Q 2819 -91 2034 -91 
Q 1250 -91 836 529 
Q 422 1150 422 2328 
Q 422 3509 836 4129 
Q 1250 4750 2034 4750 
z
" transform="scale(0.015625)"/>
       </defs>
       <use xlink:href="#DejaVuSans-31"/>
       <use xlink:href="#DejaVuSans-30" x="63.623047"/>
       <use xlink:href="#DejaVuSans-30" x="127.246094"/>
      </g>
     </g>
    </g>
    <g id="ytick_2">
     <g id="line2d_2">
      <path d="M 58.32 330.650129 
L 851.04 330.650129 
" clip-path="url(#p82025364ae)" style="fill: none; stroke: #cccccc; stroke-linecap: round"/>
     </g>
     <g id="text_7">
      <!-- 200 -->
      <g style="fill: #262626" transform="translate(27.82375 334.82927) scale(0.11 -0.11)">
       <defs>
        <path id="DejaVuSans-32" d="M 1228 531 
L 3431 531 
L 3431 0 
L 469 0 
L 469 531 
Q 828 903 1448 1529 
Q 2069 2156 2228 2338 
Q 2531 2678 2651 2914 
Q 2772 3150 2772 3378 
Q 2772 3750 2511 3984 
Q 2250 4219 1831 4219 
Q 1534 4219 1204 4116 
Q 875 4013 500 3803 
L 500 4441 
Q 881 4594 1212 4672 
Q 1544 4750 1819 4750 
Q 2544 4750 2975 4387 
Q 3406 4025 3406 3419 
Q 3406 3131 3298 2873 
Q 3191 2616 2906 2266 
Q 2828 2175 2409 1742 
Q 1991 1309 1228 531 
z
" transform="scale(0.015625)"/>
       </defs>
       <use xlink:href="#DejaVuSans-32"/>
       <use xlink:href="#DejaVuSans-30" x="63.623047"/>
       <use xlink:href="#DejaVuSans-30" x="127.246094"/>
      </g>
     </g>
    </g>
    <g id="ytick_3">
     <g id="line2d_3">
      <path d="M 58.32 277.450477 
L 851.04 277.450477 
" clip-path="url(#p82025364ae)" style="fill: none; stroke: #cccccc; stroke-linecap: round"/>
     </g>
     <g id="text_8">
      <!-- 300 -->
      <g style="fill: #262626" transform="translate(27.82375 281.629618) scale(0.11 -0.11)">
       <use xlink:href="#DejaVuSans-33"/>
       <use xlink:href="#DejaVuSans-30" x="63.623047"/>
       <use xlink:href="#DejaVuSans-30" x="127.246094"/>
      </g>
     </g>
    </g>
    <g id="ytick_4">
     <g id="line2d_4">
      <path d="M 58.32 224.250826 
L 851.04 224.250826 
" clip-path="url(#p82025364ae)" style="fill: none; stroke: #cccccc; stroke-linecap: round"/>
     </g>
     <g id="text_9">
      <!-- 400 -->
      <g style="fill: #262626" transform="translate(27.82375 228.429967) scale(0.11 -0.11)">
       <use xlink:href="#DejaVuSans-34"/>
       <use xlink:href="#DejaVuSans-30" x="63.623047"/>
       <use xlink:href="#DejaVuSans-30" x="127.246094"/>
      </g>
     </g>
    </g>
    <g id="ytick_5">
     <g id="line2d_5">
      <path d="M 58.32 171.051174 
L 851.04 171.051174 
" clip-path="url(#p82025364ae)" style="fill: none; stroke: #cccccc; stroke-linecap: round"/>
     </g>
     <g id="text_10">
      <!-- 500 -->
      <g style="fill: #262626" transform="translate(27.82375 175.230315) scale(0.11 -0.11)">
       <defs>
        <path id="DejaVuSans-35" d="M 691 4666 
L 3169 4666 
L 3169 4134 
L 1269 4134 
L 1269 2991 
Q 1406 3038 1543 3061 
Q 1681 3084 1819 3084 
Q 2600 3084 3056 2656 
Q 3513 2228 3513 1497 
Q 3513 744 3044 326 
Q 2575 -91 1722 -91 
Q 1428 -91 1123 -41 
Q 819 9 494 109 
L 494 744 
Q 775 591 1075 516 
Q 1375 441 1709 441 
Q 2250 441 2565 725 
Q 2881 1009 2881 1497 
Q 2881 1984 2565 2268 
Q 2250 2553 1709 2553 
Q 1456 2553 1204 2497 
Q 953 2441 691 2322 
L 691 4666 
z
" transform="scale(0.015625)"/>
       </defs>
       <use xlink:href="#DejaVuSans-35"/>
       <use xlink:href="#DejaVuSans-30" x="63.623047"/>
       <use xlink:href="#DejaVuSans-30" x="127.246094"/>
      </g>
     </g>
    </g>
    <g id="ytick_6">
     <g id="line2d_6">
      <path d="M 58.32 117.851523 
L 851.04 117.851523 
" clip-path="url(#p82025364ae)" style="fill: none; stroke: #cccccc; stroke-linecap: round"/>
     </g>
     <g id="text_11">
      <!-- 600 -->
      <g style="fill: #262626" transform="translate(27.82375 122.030664) scale(0.11 -0.11)">
       <use xlink:href="#DejaVuSans-36"/>
       <use xlink:href="#DejaVuSans-30" x="63.623047"/>
       <use xlink:href="#DejaVuSans-30" x="127.246094"/>
      </g>
     </g>
    </g>
    <g id="ytick_7">
     <g id="line2d_7">
      <path d="M 58.32 64.651872 
L 851.04 64.651872 
" clip-path="url(#p82025364ae)" style="fill: none; stroke: #cccccc; stroke-linecap: round"/>
     </g>
     <g id="text_12">
      <!-- 700 -->
      <g style="fill: #262626" transform="translate(27.82375 68.831012) scale(0.11 -0.11)">
       <use xlink:href="#DejaVuSans-37"/>
       <use xlink:href="#DejaVuSans-30" x="63.623047"/>
       <use xlink:href="#DejaVuSans-30" x="127.246094"/>
      </g>
     </g>
    </g>
    <g id="text_13">
     <!-- Handshake duration (ms) -->
     <g style="fill: #262626" transform="translate(21.328125 287.437813) rotate(-90) scale(0.12 -0.12)">
      <defs>
       <path id="DejaVuSans-48" d="M 628 4666 
L 1259 4666 
L 1259 2753 
L 3553 2753 
L 3553 4666 
L 4184 4666 
L 4184 0 
L 3553 0 
L 3553 2222 
L 1259 2222 
L 1259 0 
L 628 0 
L 628 4666 
z
" transform="scale(0.015625)"/>
       <path id="DejaVuSans-61" d="M 2194 1759 
Q 1497 1759 1228 1600 
Q 959 1441 959 1056 
Q 959 750 1161 570 
Q 1363 391 1709 391 
Q 2188 391 2477 730 
Q 2766 1069 2766 1631 
L 2766 1759 
L 2194 1759 
z
M 3341 1997 
L 3341 0 
L 2766 0 
L 2766 531 
Q 2569 213 2275 61 
Q 1981 -91 1556 -91 
Q 1019 -91 701 211 
Q 384 513 384 1019 
Q 384 1609 779 1909 
Q 1175 2209 1959 2209 
L 2766 2209 
L 2766 2266 
Q 2766 2663 2505 2880 
Q 2244 3097 1772 3097 
Q 1472 3097 1187 3025 
Q 903 2953 641 2809 
L 641 3341 
Q 956 3463 1253 3523 
Q 1550 3584 1831 3584 
Q 2591 3584 2966 3190 
Q 3341 2797 3341 1997 
z
" transform="scale(0.015625)"/>
       <path id="DejaVuSans-6e" d="M 3513 2113 
L 3513 0 
L 2938 0 
L 2938 2094 
Q 2938 2591 2744 2837 
Q 2550 3084 2163 3084 
Q 1697 3084 1428 2787 
Q 1159 2491 1159 1978 
L 1159 0 
L 581 0 
L 581 3500 
L 1159 3500 
L 1159 2956 
Q 1366 3272 1645 3428 
Q 1925 3584 2291 3584 
Q 2894 3584 3203 3211 
Q 3513 2838 3513 2113 
z
" transform="scale(0.015625)"/>
       <path id="DejaVuSans-64" d="M 2906 2969 
L 2906 4863 
L 3481 4863 
L 3481 0 
L 2906 0 
L 2906 525 
Q 2725 213 2448 61 
Q 2172 -91 1784 -91 
Q 1150 -91 751 415 
Q 353 922 353 1747 
Q 353 2572 751 3078 
Q 1150 3584 1784 3584 
Q 2172 3584 2448 3432 
Q 2725 3281 2906 2969 
z
M 947 1747 
Q 947 1113 1208 752 
Q 1469 391 1925 391 
Q 2381 391 2643 752 
Q 2906 1113 2906 1747 
Q 2906 2381 2643 2742 
Q 2381 3103 1925 3103 
Q 1469 3103 1208 2742 
Q 947 2381 947 1747 
z
" transform="scale(0.015625)"/>
       <path id="DejaVuSans-73" d="M 2834 3397 
L 2834 2853 
Q 2591 2978 2328 3040 
Q 2066 3103 1784 3103 
Q 1356 3103 1142 2972 
Q 928 2841 928 2578 
Q 928 2378 1081 2264 
Q 1234 2150 1697 2047 
L 1894 2003 
Q 2506 1872 2764 1633 
Q 3022 1394 3022 966 
Q 3022 478 2636 193 
Q 2250 -91 1575 -91 
Q 1294 -91 989 -36 
Q 684 19 347 128 
L 347 722 
Q 666 556 975 473 
Q 1284 391 1588 391 
Q 1994 391 2212 530 
Q 2431 669 2431 922 
Q 2431 1156 2273 1281 
Q 2116 1406 1581 1522 
L 1381 1569 
Q 847 1681 609 1914 
Q 372 2147 372 2553 
Q 372 3047 722 3315 
Q 1072 3584 1716 3584 
Q 2034 3584 2315 3537 
Q 2597 3491 2834 3397 
z
" transform="scale(0.015625)"/>
       <path id="DejaVuSans-68" d="M 3513 2113 
L 3513 0 
L 2938 0 
L 2938 2094 
Q 2938 2591 2744 2837 
Q 2550 3084 2163 3084 
Q 1697 3084 1428 2787 
Q 1159 2491 1159 1978 
L 1159 0 
L 581 0 
L 581 4863 
L 1159 4863 
L 1159 2956 
Q 1366 3272 1645 3428 
Q 1925 3584 2291 3584 
Q 2894 3584 3203 3211 
Q 3513 2838 3513 2113 
z
" transform="scale(0.015625)"/>
       <path id="DejaVuSans-20" transform="scale(0.015625)"/>
       <path id="DejaVuSans-75" d="M 544 1381 
L 544 3500 
L 1119 3500 
L 1119 1403 
Q 1119 906 1312 657 
Q 1506 409 1894 409 
Q 2359 409 2629 706 
Q 2900 1003 2900 1516 
L 2900 3500 
L 3475 3500 
L 3475 0 
L 2900 0 
L 2900 538 
Q 2691 219 2414 64 
Q 2138 -91 1772 -91 
Q 1169 -91 856 284 
Q 544 659 544 1381 
z
M 1991 3584 
L 1991 3584 
z
" transform="scale(0.015625)"/>
       <path id="DejaVuSans-72" d="M 2631 2963 
Q 2534 3019 2420 3045 
Q 2306 3072 2169 3072 
Q 1681 3072 1420 2755 
Q 1159 2438 1159 1844 
L 1159 0 
L 581 0 
L 581 3500 
L 1159 3500 
L 1159 2956 
Q 1341 3275 1631 3429 
Q 1922 3584 2338 3584 
Q 2397 3584 2469 3576 
Q 2541 3569 2628 3553 
L 2631 2963 
z
" transform="scale(0.015625)"/>
       <path id="DejaVuSans-74" d="M 1172 4494 
L 1172 3500 
L 2356 3500 
L 2356 3053 
L 1172 3053 
L 1172 1153 
Q 1172 725 1289 603 
Q 1406 481 1766 481 
L 2356 481 
L 2356 0 
L 1766 0 
Q 1100 0 847 248 
Q 594 497 594 1153 
L 594 3053 
L 172 3053 
L 172 3500 
L 594 3500 
L 594 4494 
L 1172 4494 
z
" transform="scale(0.015625)"/>
       <path id="DejaVuSans-69" d="M 603 3500 
L 1178 3500 
L 1178 0 
L 603 0 
L 603 3500 
z
M 603 4863 
L 1178 4863 
L 1178 4134 
L 603 4134 
L 603 4863 
z
" transform="scale(0.015625)"/>
       <path id="DejaVuSans-6f" d="M 1959 3097 
Q 1497 3097 1228 2736 
Q 959 2375 959 1747 
Q 959 1119 1226 758 
Q 1494 397 1959 397 
Q 2419 397 2687 759 
Q 2956 1122 2956 1747 
Q 2956 2369 2687 2733 
Q 2419 3097 1959 3097 
z
M 1959 3584 
Q 2709 3584 3137 3096 
Q 3566 2609 3566 1747 
Q 3566 888 3137 398 
Q 2709 -91 1959 -91 
Q 1206 -91 779 398 
Q 353 888 353 1747 
Q 353 2609 779 3096 
Q 1206 3584 1959 3584 
z
" transform="scale(0.015625)"/>
       <path id="DejaVuSans-28" d="M 1984 4856 
Q 1566 4138 1362 3434 
Q 1159 2731 1159 2009 
Q 1159 1288 1364 580 
Q 1569 -128 1984 -844 
L 1484 -844 
Q 1016 -109 783 600 
Q 550 1309 550 2009 
Q 550 2706 781 3412 
Q 1013 4119 1484 4856 
L 1984 4856 
z
" transform="scale(0.015625)"/>
       <path id="DejaVuSans-29" d="M 513 4856 
L 1013 4856 
Q 1481 4119 1714 3412 
Q 1947 2706 1947 2009 
Q 1947 1309 1714 600 
Q 1481 -109 1013 -844 
L 513 -844 
Q 928 -128 1133 580 
Q 1338 1288 1338 2009 
Q 1338 2731 1133 3434 
Q 928 4138 513 4856 
z
" transform="scale(0.015625)"/>
      </defs>
      <use xlink:href="#DejaVuSans-48"/>
      <use xlink:href="#DejaVuSans-61" x="75.195312"/>
      <use xlink:href="#DejaVuSans-6e" x="136.474609"/>
      <use xlink:href="#DejaVuSans-64" x="199.853516"/>
      <use xlink:href="#DejaVuSans-73" x="263.330078"/>
      <use xlink:href="#DejaVuSans-68" x="315.429688"/>
      <use xlink:href="#DejaVuSans-61" x="378.808594"/>
      <use xlink:href="#DejaVuSans-6b" x="440.087891"/>
      <use xlink:href="#DejaVuSans-65" x="494.373047"/>
      <use xlink:href="#DejaVuSans-20" x="555.896484"/>
      <use xlink:href="#DejaVuSans-64" x="587.683594"/>
      <use xlink:href="#DejaVuSans-75" x="651.160156"/>
      <use xlink:href="#DejaVuSans-72" x="714.539062"/>
      <use xlink:href="#DejaVuSans-61" x="755.652344"/>
      <use xlink:href="#DejaVuSans-74" x="816.931641"/>
      <use xlink:href="#DejaVuSans-69" x="856.140625"/>
      <use xlink:href="#DejaVuSans-6f" x="883.923828"/>
      <use xlink:href="#DejaVuSans-6e" x="945.105469"/>
      <use xlink:href="#DejaVuSans-20" x="1008.484375"/>
      <use xlink:href="#DejaVuSans-28" x="1040.271484"/>
      <use xlink:href="#DejaVuSans-6d" x="1079.285156"/>
      <use xlink:href="#DejaVuSans-73" x="1176.697266"/>
      <use xlink:href="#DejaVuSans-29" x="1228.796875"/>
     </g>
    </g>
   </g>
   <g id="PolyCollection_1">
    <defs>
     <path id="m613bbb2bb1" d="M 139.390911 -55.355607 
L 135.793089 -55.355607 
L 134.099338 -57.726817 
L 131.251616 -60.098027 
L 126.832958 -62.469237 
L 120.532283 -64.840448 
L 112.327294 -67.211658 
L 102.663645 -69.582868 
L 92.538946 -71.954078 
L 83.403588 -74.325288 
L 76.851244 -76.696498 
L 74.1744 -79.067708 
L 75.950266 -81.438918 
L 81.837736 -83.810128 
L 90.682513 -86.181338 
L 100.885586 -88.552548 
L 110.872148 -90.923758 
L 119.471132 -93.294968 
L 126.085782 -95.666178 
L 130.649501 -98.037388 
L 133.449419 -100.408598 
L 134.924534 -102.779808 
L 135.514162 -105.151018 
L 135.580797 -107.522228 
L 135.392127 -109.893438 
L 135.132822 -112.264648 
L 134.922529 -114.635858 
L 134.829652 -117.007068 
L 134.880742 -119.378278 
L 135.069028 -121.749488 
L 135.36441 -124.120698 
L 135.72452 -126.491908 
L 136.104959 -128.863118 
L 136.466939 -131.234328 
L 136.781533 -133.605538 
L 137.030641 -135.976748 
L 137.205296 -138.347958 
L 137.302326 -140.719168 
L 137.320837 -143.090378 
L 137.260215 -145.461588 
L 137.120996 -147.832798 
L 136.908794 -150.204008 
L 136.639721 -152.575218 
L 136.344191 -154.946428 
L 136.065792 -157.317638 
L 135.85362 -159.688848 
L 135.749683 -162.060058 
L 135.776117 -164.431268 
L 135.927862 -166.802478 
L 136.174377 -169.173688 
L 136.469719 -171.544898 
L 136.766504 -173.916108 
L 137.027961 -176.287319 
L 137.234071 -178.658529 
L 137.381091 -181.029739 
L 137.476621 -183.400949 
L 137.53341 -185.772159 
L 137.564387 -188.143369 
L 137.579923 -190.514579 
L 137.587099 -192.885789 
L 137.590155 -195.256999 
L 137.591356 -197.628209 
L 137.591791 -199.999419 
L 137.591937 -202.370629 
L 137.591983 -204.741839 
L 137.591995 -207.113049 
L 137.591999 -209.484259 
L 137.592 -211.855469 
L 137.592 -214.226679 
L 137.591998 -216.597889 
L 137.591994 -218.969099 
L 137.591976 -221.340309 
L 137.591918 -223.711519 
L 137.591739 -226.082729 
L 137.59123 -228.453939 
L 137.589891 -230.825149 
L 137.58664 -233.196359 
L 137.579359 -235.567569 
L 137.56433 -237.938779 
L 137.535777 -240.309989 
L 137.485942 -242.681199 
L 137.406238 -245.052409 
L 137.289839 -247.423619 
L 137.135431 -249.794829 
L 136.950913 -252.166039 
L 136.755069 -254.537249 
L 136.575457 -256.908459 
L 136.442161 -259.279669 
L 136.379214 -261.650879 
L 136.397152 -264.022089 
L 136.489964 -266.393299 
L 136.637763 -268.764509 
L 136.81367 -271.135719 
L 136.991702 -273.506929 
L 137.152504 -275.878139 
L 137.285498 -278.249349 
L 137.387891 -280.620559 
L 137.462092 -282.991769 
L 137.513043 -285.362979 
L 137.546284 -287.73419 
L 137.566873 -290.1054 
L 137.617127 -290.1054 
L 137.617127 -290.1054 
L 137.637716 -287.73419 
L 137.670957 -285.362979 
L 137.721908 -282.991769 
L 137.796109 -280.620559 
L 137.898502 -278.249349 
L 138.031496 -275.878139 
L 138.192298 -273.506929 
L 138.37033 -271.135719 
L 138.546237 -268.764509 
L 138.694036 -266.393299 
L 138.786848 -264.022089 
L 138.804786 -261.650879 
L 138.741839 -259.279669 
L 138.608543 -256.908459 
L 138.428931 -254.537249 
L 138.233087 -252.166039 
L 138.048569 -249.794829 
L 137.894161 -247.423619 
L 137.777762 -245.052409 
L 137.698058 -242.681199 
L 137.648223 -240.309989 
L 137.61967 -237.938779 
L 137.604641 -235.567569 
L 137.59736 -233.196359 
L 137.594109 -230.825149 
L 137.59277 -228.453939 
L 137.592261 -226.082729 
L 137.592082 -223.711519 
L 137.592024 -221.340309 
L 137.592006 -218.969099 
L 137.592002 -216.597889 
L 137.592 -214.226679 
L 137.592 -211.855469 
L 137.592001 -209.484259 
L 137.592005 -207.113049 
L 137.592017 -204.741839 
L 137.592063 -202.370629 
L 137.592209 -199.999419 
L 137.592644 -197.628209 
L 137.593845 -195.256999 
L 137.596901 -192.885789 
L 137.604077 -190.514579 
L 137.619613 -188.143369 
L 137.65059 -185.772159 
L 137.707379 -183.400949 
L 137.802909 -181.029739 
L 137.949929 -178.658529 
L 138.156039 -176.287319 
L 138.417496 -173.916108 
L 138.714281 -171.544898 
L 139.009623 -169.173688 
L 139.256138 -166.802478 
L 139.407883 -164.431268 
L 139.434317 -162.060058 
L 139.33038 -159.688848 
L 139.118208 -157.317638 
L 138.839809 -154.946428 
L 138.544279 -152.575218 
L 138.275206 -150.204008 
L 138.063004 -147.832798 
L 137.923785 -145.461588 
L 137.863163 -143.090378 
L 137.881674 -140.719168 
L 137.978704 -138.347958 
L 138.153359 -135.976748 
L 138.402467 -133.605538 
L 138.717061 -131.234328 
L 139.079041 -128.863118 
L 139.45948 -126.491908 
L 139.81959 -124.120698 
L 140.114972 -121.749488 
L 140.303258 -119.378278 
L 140.354348 -117.007068 
L 140.261471 -114.635858 
L 140.051178 -112.264648 
L 139.791873 -109.893438 
L 139.603203 -107.522228 
L 139.669838 -105.151018 
L 140.259466 -102.779808 
L 141.734581 -100.408598 
L 144.534499 -98.037388 
L 149.098218 -95.666178 
L 155.712868 -93.294968 
L 164.311852 -90.923758 
L 174.298414 -88.552548 
L 184.501487 -86.181338 
L 193.346264 -83.810128 
L 199.233734 -81.438918 
L 201.0096 -79.067708 
L 198.332756 -76.696498 
L 191.780412 -74.325288 
L 182.645054 -71.954078 
L 172.520355 -69.582868 
L 162.856706 -67.211658 
L 154.651717 -64.840448 
L 148.351042 -62.469237 
L 143.932384 -60.098027 
L 141.084662 -57.726817 
L 139.390911 -55.355607 
z
" style="stroke: #595959; stroke-width: 1.25"/>
    </defs>
    <g clip-path="url(#p82025364ae)">
     <use xlink:href="#m613bbb2bb1" x="0" y="432" style="fill: #72b6a1; stroke: #595959; stroke-width: 1.25"/>
    </g>
   </g>
   <g id="PolyCollection_2">
    <defs>
     <path id="m6c68bb16f9" d="M 300.305243 -53.566364 
L 291.966757 -53.566364 
L 288.804469 -55.818527 
L 284.060728 -58.070691 
L 277.508329 -60.322855 
L 269.222238 -62.575019 
L 259.716024 -64.827183 
L 249.9777 -67.079347 
L 241.34608 -69.331511 
L 235.226027 -71.583674 
L 232.7184 -73.835838 
L 234.296945 -76.088002 
L 239.661978 -78.340166 
L 247.832611 -80.59233 
L 257.438213 -82.844494 
L 267.089811 -85.096657 
L 275.693502 -87.348821 
L 282.613547 -89.600985 
L 287.669717 -91.853149 
L 291.018599 -94.105313 
L 292.994808 -96.357477 
L 293.975292 -98.60964 
L 294.296926 -100.861804 
L 294.225928 -103.113968 
L 293.960132 -105.366132 
L 293.642981 -107.618296 
L 293.375553 -109.87046 
L 293.222514 -112.122624 
L 293.214524 -114.374787 
L 293.351467 -116.626951 
L 293.609099 -118.879115 
L 293.948687 -121.131279 
L 294.32722 -123.383443 
L 294.705619 -125.635607 
L 295.053591 -127.88777 
L 295.351177 -130.139934 
L 295.58786 -132.392098 
L 295.760242 -134.644262 
L 295.869143 -136.896426 
L 295.91684 -139.14859 
L 295.90526 -141.400753 
L 295.835794 -143.652917 
L 295.711049 -145.905081 
L 295.538045 -148.157245 
L 295.331462 -150.409409 
L 295.115065 -152.661573 
L 294.919697 -154.913737 
L 294.777593 -157.1659 
L 294.714484 -159.418064 
L 294.742408 -161.670228 
L 294.856156 -163.922392 
L 295.034955 -166.174556 
L 295.248694 -168.42672 
L 295.466179 -170.678883 
L 295.662352 -172.931047 
L 295.822265 -175.183211 
L 295.941341 -177.435375 
L 296.022867 -179.687539 
L 296.074412 -181.939703 
L 296.104595 -184.191866 
L 296.121 -186.44403 
L 296.129289 -188.696194 
L 296.133188 -190.948358 
L 296.134896 -193.200522 
L 296.135594 -195.452686 
L 296.13586 -197.70485 
L 296.135955 -199.957013 
L 296.135986 -202.209177 
L 296.135996 -204.461341 
L 296.135999 -206.713505 
L 296.135999 -208.965669 
L 296.135997 -211.217833 
L 296.13599 -213.469996 
L 296.135966 -215.72216 
L 296.135893 -217.974324 
L 296.135685 -220.226488 
L 296.135132 -222.478652 
L 296.13376 -224.730816 
L 296.130587 -226.982979 
L 296.123739 -229.235143 
L 296.10998 -231.487307 
L 296.084254 -233.739471 
L 296.039566 -235.991635 
L 295.967584 -238.243799 
L 295.860354 -240.495963 
L 295.713179 -242.748126 
L 295.528126 -245.00029 
L 295.316891 -247.252454 
L 295.101433 -249.504618 
L 294.91115 -251.756782 
L 294.776645 -254.008946 
L 294.721746 -256.261109 
L 294.75662 -258.513273 
L 294.874693 -260.765437 
L 295.054677 -263.017601 
L 295.26683 -265.269765 
L 295.480935 -267.521929 
L 295.673075 -269.774092 
L 295.829241 -272.026256 
L 295.945385 -274.27842 
L 296.024928 -276.530584 
L 296.247072 -276.530584 
L 296.247072 -276.530584 
L 296.326615 -274.27842 
L 296.442759 -272.026256 
L 296.598925 -269.774092 
L 296.791065 -267.521929 
L 297.00517 -265.269765 
L 297.217323 -263.017601 
L 297.397307 -260.765437 
L 297.51538 -258.513273 
L 297.550254 -256.261109 
L 297.495355 -254.008946 
L 297.36085 -251.756782 
L 297.170567 -249.504618 
L 296.955109 -247.252454 
L 296.743874 -245.00029 
L 296.558821 -242.748126 
L 296.411646 -240.495963 
L 296.304416 -238.243799 
L 296.232434 -235.991635 
L 296.187746 -233.739471 
L 296.16202 -231.487307 
L 296.148261 -229.235143 
L 296.141413 -226.982979 
L 296.13824 -224.730816 
L 296.136868 -222.478652 
L 296.136315 -220.226488 
L 296.136107 -217.974324 
L 296.136034 -215.72216 
L 296.13601 -213.469996 
L 296.136003 -211.217833 
L 296.136001 -208.965669 
L 296.136001 -206.713505 
L 296.136004 -204.461341 
L 296.136014 -202.209177 
L 296.136045 -199.957013 
L 296.13614 -197.70485 
L 296.136406 -195.452686 
L 296.137104 -193.200522 
L 296.138812 -190.948358 
L 296.142711 -188.696194 
L 296.151 -186.44403 
L 296.167405 -184.191866 
L 296.197588 -181.939703 
L 296.249133 -179.687539 
L 296.330659 -177.435375 
L 296.449735 -175.183211 
L 296.609648 -172.931047 
L 296.805821 -170.678883 
L 297.023306 -168.42672 
L 297.237045 -166.174556 
L 297.415844 -163.922392 
L 297.529592 -161.670228 
L 297.557516 -159.418064 
L 297.494407 -157.1659 
L 297.352303 -154.913737 
L 297.156935 -152.661573 
L 296.940538 -150.409409 
L 296.733955 -148.157245 
L 296.560951 -145.905081 
L 296.436206 -143.652917 
L 296.36674 -141.400753 
L 296.35516 -139.14859 
L 296.402857 -136.896426 
L 296.511758 -134.644262 
L 296.68414 -132.392098 
L 296.920823 -130.139934 
L 297.218409 -127.88777 
L 297.566381 -125.635607 
L 297.94478 -123.383443 
L 298.323313 -121.131279 
L 298.662901 -118.879115 
L 298.920533 -116.626951 
L 299.057476 -114.374787 
L 299.049486 -112.122624 
L 298.896447 -109.87046 
L 298.629019 -107.618296 
L 298.311868 -105.366132 
L 298.046072 -103.113968 
L 297.975074 -100.861804 
L 298.296708 -98.60964 
L 299.277192 -96.357477 
L 301.253401 -94.105313 
L 304.602283 -91.853149 
L 309.658453 -89.600985 
L 316.578498 -87.348821 
L 325.182189 -85.096657 
L 334.833787 -82.844494 
L 344.439389 -80.59233 
L 352.610022 -78.340166 
L 357.975055 -76.088002 
L 359.5536 -73.835838 
L 357.045973 -71.583674 
L 350.92592 -69.331511 
L 342.2943 -67.079347 
L 332.555976 -64.827183 
L 323.049762 -62.575019 
L 314.763671 -60.322855 
L 308.211272 -58.070691 
L 303.467531 -55.818527 
L 300.305243 -53.566364 
z
" style="stroke: #595959; stroke-width: 1.25"/>
    </defs>
    <g clip-path="url(#p82025364ae)">
     <use xlink:href="#m6c68bb16f9" x="0" y="432" style="fill: #e99675; stroke: #595959; stroke-width: 1.25"/>
    </g>
   </g>
   <g id="PolyCollection_3">
    <defs>
     <path id="m9e0ff7913f" d="M 455.016147 -59.273973 
L 454.343853 -59.273973 
L 453.773223 -62.330648 
L 452.460342 -65.387324 
L 449.757795 -68.443999 
L 444.817526 -71.500674 
L 436.881928 -74.557349 
L 425.850396 -77.614024 
L 412.90187 -80.6707 
L 400.677653 -83.727375 
L 392.574515 -86.78405 
L 391.2624 -89.840725 
L 397.271262 -92.8974 
L 408.651034 -95.954076 
L 421.983209 -99.010751 
L 434.01769 -102.067426 
L 442.858424 -105.124101 
L 448.159659 -108.180776 
L 450.586141 -111.237452 
L 451.132567 -114.294127 
L 450.69843 -117.350802 
L 449.956123 -120.407477 
L 449.363289 -123.464152 
L 449.190297 -126.520828 
L 449.5281 -129.577503 
L 450.302374 -132.634178 
L 451.322521 -135.690853 
L 452.363255 -138.747528 
L 453.246521 -141.804204 
L 453.887174 -144.860879 
L 454.289158 -147.917554 
L 454.508684 -150.974229 
L 454.613369 -154.030904 
L 454.657044 -157.08758 
L 454.673004 -160.144255 
L 454.678116 -163.20093 
L 454.679551 -166.257605 
L 454.679903 -169.31428 
L 454.679965 -172.370956 
L 454.67992 -175.427631 
L 454.679704 -178.484306 
L 454.679004 -181.540981 
L 454.677052 -184.597656 
L 454.672352 -187.654332 
L 454.662602 -190.711007 
L 454.645291 -193.767682 
L 454.619269 -196.824357 
L 454.586757 -199.881032 
L 454.554177 -202.937708 
L 454.530001 -205.994383 
L 454.519403 -209.051058 
L 454.51795 -212.107733 
L 454.507751 -215.164408 
L 454.458738 -218.221084 
L 454.336656 -221.277759 
L 454.118349 -224.334434 
L 453.811416 -227.391109 
L 453.467994 -230.447784 
L 453.177832 -233.504459 
L 453.034412 -236.561135 
L 453.088937 -239.61781 
L 453.322227 -242.674485 
L 453.655287 -245.73116 
L 453.990712 -248.787835 
L 454.255732 -251.844511 
L 454.422293 -254.901186 
L 454.501168 -257.957861 
L 454.523331 -261.014536 
L 454.522256 -264.071211 
L 454.522844 -267.127887 
L 454.536962 -270.184562 
L 454.564402 -273.241237 
L 454.597777 -276.297912 
L 454.628662 -279.354587 
L 454.651884 -282.411263 
L 454.666496 -285.467938 
L 454.674313 -288.524613 
L 454.6779 -291.581288 
L 454.67932 -294.637963 
L 454.679807 -297.694639 
L 454.679952 -300.751314 
L 454.679989 -303.807989 
L 454.679993 -306.864664 
L 454.679973 -309.921339 
L 454.679888 -312.978015 
L 454.679583 -316.03469 
L 454.678644 -319.091365 
L 454.676128 -322.14804 
L 454.670308 -325.204715 
L 454.658727 -328.261391 
L 454.639057 -331.318066 
L 454.610903 -334.374741 
L 454.577747 -337.431416 
L 454.547314 -340.488091 
L 454.529024 -343.544767 
L 454.529367 -346.601442 
L 454.548215 -349.658117 
L 454.578902 -352.714792 
L 454.611993 -355.771467 
L 454.639886 -358.828143 
L 454.659252 -361.884818 
L 454.700748 -361.884818 
L 454.700748 -361.884818 
L 454.720114 -358.828143 
L 454.748007 -355.771467 
L 454.781098 -352.714792 
L 454.811785 -349.658117 
L 454.830633 -346.601442 
L 454.830976 -343.544767 
L 454.812686 -340.488091 
L 454.782253 -337.431416 
L 454.749097 -334.374741 
L 454.720943 -331.318066 
L 454.701273 -328.261391 
L 454.689692 -325.204715 
L 454.683872 -322.14804 
L 454.681356 -319.091365 
L 454.680417 -316.03469 
L 454.680112 -312.978015 
L 454.680027 -309.921339 
L 454.680007 -306.864664 
L 454.680011 -303.807989 
L 454.680048 -300.751314 
L 454.680193 -297.694639 
L 454.68068 -294.637963 
L 454.6821 -291.581288 
L 454.685687 -288.524613 
L 454.693504 -285.467938 
L 454.708116 -282.411263 
L 454.731338 -279.354587 
L 454.762223 -276.297912 
L 454.795598 -273.241237 
L 454.823038 -270.184562 
L 454.837156 -267.127887 
L 454.837744 -264.071211 
L 454.836669 -261.014536 
L 454.858832 -257.957861 
L 454.937707 -254.901186 
L 455.104268 -251.844511 
L 455.369288 -248.787835 
L 455.704713 -245.73116 
L 456.037773 -242.674485 
L 456.271063 -239.61781 
L 456.325588 -236.561135 
L 456.182168 -233.504459 
L 455.892006 -230.447784 
L 455.548584 -227.391109 
L 455.241651 -224.334434 
L 455.023344 -221.277759 
L 454.901262 -218.221084 
L 454.852249 -215.164408 
L 454.84205 -212.107733 
L 454.840597 -209.051058 
L 454.829999 -205.994383 
L 454.805823 -202.937708 
L 454.773243 -199.881032 
L 454.740731 -196.824357 
L 454.714709 -193.767682 
L 454.697398 -190.711007 
L 454.687648 -187.654332 
L 454.682948 -184.597656 
L 454.680996 -181.540981 
L 454.680296 -178.484306 
L 454.68008 -175.427631 
L 454.680035 -172.370956 
L 454.680097 -169.31428 
L 454.680449 -166.257605 
L 454.681884 -163.20093 
L 454.686996 -160.144255 
L 454.702956 -157.08758 
L 454.746631 -154.030904 
L 454.851316 -150.974229 
L 455.070842 -147.917554 
L 455.472826 -144.860879 
L 456.113479 -141.804204 
L 456.996745 -138.747528 
L 458.037479 -135.690853 
L 459.057626 -132.634178 
L 459.8319 -129.577503 
L 460.169703 -126.520828 
L 459.996711 -123.464152 
L 459.403877 -120.407477 
L 458.66157 -117.350802 
L 458.227433 -114.294127 
L 458.773859 -111.237452 
L 461.200341 -108.180776 
L 466.501576 -105.124101 
L 475.34231 -102.067426 
L 487.376791 -99.010751 
L 500.708966 -95.954076 
L 512.088738 -92.8974 
L 518.0976 -89.840725 
L 516.785485 -86.78405 
L 508.682347 -83.727375 
L 496.45813 -80.6707 
L 483.509604 -77.614024 
L 472.478072 -74.557349 
L 464.542474 -71.500674 
L 459.602205 -68.443999 
L 456.899658 -65.387324 
L 455.586777 -62.330648 
L 455.016147 -59.273973 
z
" style="stroke: #595959; stroke-width: 1.25"/>
    </defs>
    <g clip-path="url(#p82025364ae)">
     <use xlink:href="#m9e0ff7913f" x="0" y="432" style="fill: #95a3c3; stroke: #595959; stroke-width: 1.25"/>
    </g>
   </g>
   <g id="PolyCollection_4">
    <defs>
     <path id="me54168cdcb" d="M 616.217335 -55.042933 
L 610.230665 -55.042933 
L 605.682043 -58.403041 
L 597.122764 -61.76315 
L 584.107414 -65.123258 
L 568.637822 -68.483366 
L 555.42452 -71.843474 
L 549.8064 -75.203582 
L 554.343415 -78.56369 
L 566.968559 -81.923798 
L 582.469466 -85.283906 
L 595.871452 -88.644014 
L 604.774315 -92.004123 
L 609.321918 -95.364231 
L 610.820625 -98.724339 
L 610.574019 -102.084447 
L 609.519885 -105.444555 
L 608.329195 -108.804663 
L 607.4975 -112.164771 
L 607.301815 -115.524879 
L 607.758529 -118.884987 
L 608.68672 -122.245096 
L 609.829187 -125.605204 
L 610.945286 -128.965312 
L 611.86029 -132.32542 
L 612.491717 -135.685528 
L 612.850371 -139.045636 
L 613.009121 -142.405744 
L 613.057421 -145.765852 
L 613.067315 -149.12596 
L 613.079901 -152.486069 
L 613.10728 -155.846177 
L 613.143299 -159.206285 
L 613.176755 -162.566393 
L 613.200627 -165.926501 
L 613.214234 -169.286609 
L 613.220554 -172.646717 
L 613.222973 -176.006825 
L 613.223742 -179.366933 
L 613.223945 -182.727042 
L 613.223987 -186.08715 
L 613.223979 -189.447258 
L 613.223885 -192.807366 
L 613.223424 -196.167474 
L 613.221546 -199.527582 
L 613.215127 -202.88769 
L 613.196787 -206.247798 
L 613.153197 -209.607906 
L 613.067713 -212.968015 
L 612.931302 -216.328123 
L 612.75889 -219.688231 
L 612.596903 -223.048339 
L 612.506611 -226.408447 
L 612.527684 -229.768555 
L 612.650566 -233.128663 
L 612.823277 -236.488771 
L 612.98607 -239.848879 
L 613.10279 -243.208988 
L 613.167373 -246.569096 
L 613.190587 -249.929204 
L 613.185174 -253.289312 
L 613.160576 -256.64942 
L 613.125988 -260.009528 
L 613.093866 -263.369636 
L 613.077732 -266.729744 
L 613.08512 -270.089852 
L 613.112639 -273.449961 
L 613.148592 -276.810069 
L 613.180879 -280.170177 
L 613.203177 -283.530285 
L 613.215508 -286.890393 
L 613.221075 -290.250501 
L 613.223141 -293.610609 
L 613.223742 -296.970717 
L 613.223721 -300.330825 
L 613.223047 -303.690934 
L 613.220793 -307.051042 
L 613.214817 -310.41115 
L 613.201784 -313.771258 
L 613.178616 -317.131366 
L 613.145705 -320.491474 
L 613.109935 -323.851582 
L 613.083669 -327.21169 
L 613.078205 -330.571798 
L 613.096084 -333.931907 
L 613.129206 -337.292015 
L 613.16458 -340.652123 
L 613.192127 -344.012231 
L 613.208039 -347.372339 
L 613.212643 -350.732447 
L 613.206535 -354.092555 
L 613.188981 -357.452663 
L 613.159985 -360.812771 
L 613.124192 -364.17288 
L 613.092426 -367.532988 
L 613.077505 -370.893096 
L 613.086257 -374.253204 
L 613.114629 -377.613312 
L 613.150664 -380.97342 
L 613.182474 -384.333528 
L 613.204143 -387.693636 
L 613.243857 -387.693636 
L 613.243857 -387.693636 
L 613.265526 -384.333528 
L 613.297336 -380.97342 
L 613.333371 -377.613312 
L 613.361743 -374.253204 
L 613.370495 -370.893096 
L 613.355574 -367.532988 
L 613.323808 -364.17288 
L 613.288015 -360.812771 
L 613.259019 -357.452663 
L 613.241465 -354.092555 
L 613.235357 -350.732447 
L 613.239961 -347.372339 
L 613.255873 -344.012231 
L 613.28342 -340.652123 
L 613.318794 -337.292015 
L 613.351916 -333.931907 
L 613.369795 -330.571798 
L 613.364331 -327.21169 
L 613.338065 -323.851582 
L 613.302295 -320.491474 
L 613.269384 -317.131366 
L 613.246216 -313.771258 
L 613.233183 -310.41115 
L 613.227207 -307.051042 
L 613.224953 -303.690934 
L 613.224279 -300.330825 
L 613.224258 -296.970717 
L 613.224859 -293.610609 
L 613.226925 -290.250501 
L 613.232492 -286.890393 
L 613.244823 -283.530285 
L 613.267121 -280.170177 
L 613.299408 -276.810069 
L 613.335361 -273.449961 
L 613.36288 -270.089852 
L 613.370268 -266.729744 
L 613.354134 -263.369636 
L 613.322012 -260.009528 
L 613.287424 -256.64942 
L 613.262826 -253.289312 
L 613.257413 -249.929204 
L 613.280627 -246.569096 
L 613.34521 -243.208988 
L 613.46193 -239.848879 
L 613.624723 -236.488771 
L 613.797434 -233.128663 
L 613.920316 -229.768555 
L 613.941389 -226.408447 
L 613.851097 -223.048339 
L 613.68911 -219.688231 
L 613.516698 -216.328123 
L 613.380287 -212.968015 
L 613.294803 -209.607906 
L 613.251213 -206.247798 
L 613.232873 -202.88769 
L 613.226454 -199.527582 
L 613.224576 -196.167474 
L 613.224115 -192.807366 
L 613.224021 -189.447258 
L 613.224013 -186.08715 
L 613.224055 -182.727042 
L 613.224258 -179.366933 
L 613.225027 -176.006825 
L 613.227446 -172.646717 
L 613.233766 -169.286609 
L 613.247373 -165.926501 
L 613.271245 -162.566393 
L 613.304701 -159.206285 
L 613.34072 -155.846177 
L 613.368099 -152.486069 
L 613.380685 -149.12596 
L 613.390579 -145.765852 
L 613.438879 -142.405744 
L 613.597629 -139.045636 
L 613.956283 -135.685528 
L 614.58771 -132.32542 
L 615.502714 -128.965312 
L 616.618813 -125.605204 
L 617.76128 -122.245096 
L 618.689471 -118.884987 
L 619.146185 -115.524879 
L 618.9505 -112.164771 
L 618.118805 -108.804663 
L 616.928115 -105.444555 
L 615.873981 -102.084447 
L 615.627375 -98.724339 
L 617.126082 -95.364231 
L 621.673685 -92.004123 
L 630.576548 -88.644014 
L 643.978534 -85.283906 
L 659.479441 -81.923798 
L 672.104585 -78.56369 
L 676.6416 -75.203582 
L 671.02348 -71.843474 
L 657.810178 -68.483366 
L 642.340586 -65.123258 
L 629.325236 -61.76315 
L 620.765957 -58.403041 
L 616.217335 -55.042933 
z
" style="stroke: #595959; stroke-width: 1.25"/>
    </defs>
    <g clip-path="url(#p82025364ae)">
     <use xlink:href="#me54168cdcb" x="0" y="432" style="fill: #db96c0; stroke: #595959; stroke-width: 1.25"/>
    </g>
   </g>
   <g id="PolyCollection_5">
    <defs>
     <path id="m1e114b3528" d="M 775.855187 -57.080842 
L 767.680813 -57.080842 
L 764.225857 -58.944528 
L 758.882912 -60.808214 
L 751.388447 -62.6719 
L 741.927288 -64.535586 
L 731.317478 -66.399272 
L 721.006654 -68.262958 
L 712.798126 -70.126644 
L 708.3504 -71.99033 
L 708.633498 -73.854016 
L 713.584977 -75.717702 
L 722.132311 -77.581388 
L 732.570653 -79.445074 
L 743.114088 -81.30876 
L 752.377487 -83.172446 
L 759.618744 -85.036132 
L 764.713978 -86.899817 
L 767.957398 -88.763503 
L 769.817366 -90.627189 
L 770.746986 -92.490875 
L 771.086003 -94.354561 
L 771.042235 -96.218247 
L 770.721163 -98.081933 
L 770.174423 -99.945619 
L 769.447147 -101.809305 
L 768.611148 -103.672991 
L 767.775464 -105.536677 
L 767.071564 -107.400363 
L 766.619713 -109.264049 
L 766.492088 -111.127735 
L 766.690976 -112.991421 
L 767.153023 -114.855107 
L 767.7766 -116.718793 
L 768.457546 -118.582479 
L 769.116365 -120.446165 
L 769.707743 -122.309851 
L 770.214475 -124.173536 
L 770.634921 -126.037222 
L 770.972708 -127.900908 
L 771.23228 -129.764594 
L 771.418882 -131.62828 
L 771.539775 -133.491966 
L 771.604576 -135.355652 
L 771.624581 -137.219338 
L 771.611914 -139.083024 
L 771.579088 -140.94671 
L 771.538729 -142.810396 
L 771.502859 -144.674082 
L 771.481403 -146.537768 
L 771.480347 -148.401454 
L 771.500505 -150.26514 
L 771.537696 -152.128826 
L 771.584463 -153.992512 
L 771.632621 -155.856198 
L 771.67558 -157.719884 
L 771.709605 -159.583569 
L 771.733852 -161.447255 
L 771.749518 -163.310941 
L 771.758742 -165.174627 
L 771.763708 -167.038313 
L 771.766158 -168.901999 
L 771.767269 -170.765685 
L 771.767731 -172.629371 
L 771.767909 -174.493057 
L 771.767971 -176.356743 
L 771.767992 -178.220429 
L 771.767998 -180.084115 
L 771.767999 -181.947801 
L 771.768 -183.811487 
L 771.768 -185.675173 
L 771.768 -187.538859 
L 771.767999 -189.402545 
L 771.767997 -191.266231 
L 771.76799 -193.129917 
L 771.767964 -194.993603 
L 771.767878 -196.857288 
L 771.767616 -198.720974 
L 771.766886 -200.58466 
L 771.765005 -202.448346 
L 771.760538 -204.312032 
L 771.750773 -206.175718 
L 771.731151 -208.039404 
L 771.694959 -209.90309 
L 771.633831 -211.766776 
L 771.53959 -213.630462 
L 771.407599 -215.494148 
L 771.240889 -217.357834 
L 771.053345 -219.22152 
L 770.869731 -221.085206 
L 770.721186 -222.948892 
L 770.63684 -224.812578 
L 770.634533 -226.676264 
L 770.714672 -228.53995 
L 770.860123 -230.403636 
L 771.042164 -232.267321 
L 771.229686 -234.131007 
L 771.397612 -235.994693 
L 771.531552 -237.858379 
L 771.627943 -239.722065 
L 771.691016 -241.585751 
L 771.844984 -241.585751 
L 771.844984 -241.585751 
L 771.908057 -239.722065 
L 772.004448 -237.858379 
L 772.138388 -235.994693 
L 772.306314 -234.131007 
L 772.493836 -232.267321 
L 772.675877 -230.403636 
L 772.821328 -228.53995 
L 772.901467 -226.676264 
L 772.89916 -224.812578 
L 772.814814 -222.948892 
L 772.666269 -221.085206 
L 772.482655 -219.22152 
L 772.295111 -217.357834 
L 772.128401 -215.494148 
L 771.99641 -213.630462 
L 771.902169 -211.766776 
L 771.841041 -209.90309 
L 771.804849 -208.039404 
L 771.785227 -206.175718 
L 771.775462 -204.312032 
L 771.770995 -202.448346 
L 771.769114 -200.58466 
L 771.768384 -198.720974 
L 771.768122 -196.857288 
L 771.768036 -194.993603 
L 771.76801 -193.129917 
L 771.768003 -191.266231 
L 771.768001 -189.402545 
L 771.768 -187.538859 
L 771.768 -185.675173 
L 771.768 -183.811487 
L 771.768001 -181.947801 
L 771.768002 -180.084115 
L 771.768008 -178.220429 
L 771.768029 -176.356743 
L 771.768091 -174.493057 
L 771.768269 -172.629371 
L 771.768731 -170.765685 
L 771.769842 -168.901999 
L 771.772292 -167.038313 
L 771.777258 -165.174627 
L 771.786482 -163.310941 
L 771.802148 -161.447255 
L 771.826395 -159.583569 
L 771.86042 -157.719884 
L 771.903379 -155.856198 
L 771.951537 -153.992512 
L 771.998304 -152.128826 
L 772.035495 -150.26514 
L 772.055653 -148.401454 
L 772.054597 -146.537768 
L 772.033141 -144.674082 
L 771.997271 -142.810396 
L 771.956912 -140.94671 
L 771.924086 -139.083024 
L 771.911419 -137.219338 
L 771.931424 -135.355652 
L 771.996225 -133.491966 
L 772.117118 -131.62828 
L 772.30372 -129.764594 
L 772.563292 -127.900908 
L 772.901079 -126.037222 
L 773.321525 -124.173536 
L 773.828257 -122.309851 
L 774.419635 -120.446165 
L 775.078454 -118.582479 
L 775.7594 -116.718793 
L 776.382977 -114.855107 
L 776.845024 -112.991421 
L 777.043912 -111.127735 
L 776.916287 -109.264049 
L 776.464436 -107.400363 
L 775.760536 -105.536677 
L 774.924852 -103.672991 
L 774.088853 -101.809305 
L 773.361577 -99.945619 
L 772.814837 -98.081933 
L 772.493765 -96.218247 
L 772.449997 -94.354561 
L 772.789014 -92.490875 
L 773.718634 -90.627189 
L 775.578602 -88.763503 
L 778.822022 -86.899817 
L 783.917256 -85.036132 
L 791.158513 -83.172446 
L 800.421912 -81.30876 
L 810.965347 -79.445074 
L 821.403689 -77.581388 
L 829.951023 -75.717702 
L 834.902502 -73.854016 
L 835.1856 -71.99033 
L 830.737874 -70.126644 
L 822.529346 -68.262958 
L 812.218522 -66.399272 
L 801.608712 -64.535586 
L 792.147553 -62.6719 
L 784.653088 -60.808214 
L 779.310143 -58.944528 
L 775.855187 -57.080842 
z
" style="stroke: #595959; stroke-width: 1.25"/>
    </defs>
    <g clip-path="url(#p82025364ae)">
     <use xlink:href="#m1e114b3528" x="0" y="432" style="fill: #a2c865; stroke: #595959; stroke-width: 1.25"/>
    </g>
   </g>
   <g id="line2d_8">
    <path d="M 137.592 352.653505 
L 137.592 354.813411 
" clip-path="url(#p82025364ae)" style="fill: none; stroke: #000000"/>
   </g>
   <g id="line2d_9">
    <path d="M 137.592 351.202484 
L 137.592 349.051888 
" clip-path="url(#p82025364ae)" style="fill: none; stroke: #000000"/>
   </g>
   <g id="line2d_10">
    <path d="M 131.6466 354.813411 
L 143.5374 354.813411 
" clip-path="url(#p82025364ae)" style="fill: none; stroke: #000000; stroke-linecap: round"/>
   </g>
   <g id="line2d_11">
    <path d="M 131.6466 349.051888 
L 143.5374 349.051888 
" clip-path="url(#p82025364ae)" style="fill: none; stroke: #000000; stroke-linecap: round"/>
   </g>
   <g id="line2d_12">
    <path d="M 296.136 358.090509 
L 296.136 358.659745 
" clip-path="url(#p82025364ae)" style="fill: none; stroke: #000000"/>
   </g>
   <g id="line2d_13">
    <path d="M 296.136 357.525263 
L 296.136 356.717958 
" clip-path="url(#p82025364ae)" style="fill: none; stroke: #000000"/>
   </g>
   <g id="line2d_14">
    <path d="M 290.1906 358.659745 
L 302.0814 358.659745 
" clip-path="url(#p82025364ae)" style="fill: none; stroke: #000000; stroke-linecap: round"/>
   </g>
   <g id="line2d_15">
    <path d="M 290.1906 356.717958 
L 302.0814 356.717958 
" clip-path="url(#p82025364ae)" style="fill: none; stroke: #000000; stroke-linecap: round"/>
   </g>
   <g id="line2d_16">
    <path d="M 454.68 343.689363 
L 454.68 348.221974 
" clip-path="url(#p82025364ae)" style="fill: none; stroke: #000000"/>
   </g>
   <g id="line2d_17">
    <path d="M 454.68 340.659643 
L 454.68 336.188213 
" clip-path="url(#p82025364ae)" style="fill: none; stroke: #000000"/>
   </g>
   <g id="line2d_18">
    <path d="M 448.7346 348.221974 
L 460.6254 348.221974 
" clip-path="url(#p82025364ae)" style="fill: none; stroke: #000000; stroke-linecap: round"/>
   </g>
   <g id="line2d_19">
    <path d="M 448.7346 336.188213 
L 460.6254 336.188213 
" clip-path="url(#p82025364ae)" style="fill: none; stroke: #000000; stroke-linecap: round"/>
   </g>
   <g id="line2d_20">
    <path d="M 613.224 356.676728 
L 613.224 357.734071 
" clip-path="url(#p82025364ae)" style="fill: none; stroke: #000000"/>
   </g>
   <g id="line2d_21">
    <path d="M 613.224 355.966513 
L 613.224 355.031529 
" clip-path="url(#p82025364ae)" style="fill: none; stroke: #000000"/>
   </g>
   <g id="line2d_22">
    <path d="M 607.2786 357.734071 
L 619.1694 357.734071 
" clip-path="url(#p82025364ae)" style="fill: none; stroke: #000000; stroke-linecap: round"/>
   </g>
   <g id="line2d_23">
    <path d="M 607.2786 355.031529 
L 619.1694 355.031529 
" clip-path="url(#p82025364ae)" style="fill: none; stroke: #000000; stroke-linecap: round"/>
   </g>
   <g id="line2d_24">
    <path d="M 771.768 359.291491 
L 771.768 359.846098 
" clip-path="url(#p82025364ae)" style="fill: none; stroke: #000000"/>
   </g>
   <g id="line2d_25">
    <path d="M 771.768 358.883184 
L 771.768 358.340547 
" clip-path="url(#p82025364ae)" style="fill: none; stroke: #000000"/>
   </g>
   <g id="line2d_26">
    <path d="M 765.8226 359.846098 
L 777.7134 359.846098 
" clip-path="url(#p82025364ae)" style="fill: none; stroke: #000000; stroke-linecap: round"/>
   </g>
   <g id="line2d_27">
    <path d="M 765.8226 358.340547 
L 777.7134 358.340547 
" clip-path="url(#p82025364ae)" style="fill: none; stroke: #000000; stroke-linecap: round"/>
   </g>
   <g id="line2d_28">
    <path d="M 125.7012 351.929989 
L 149.4828 351.929989 
" clip-path="url(#p82025364ae)" style="fill: none; stroke: #ff0000; stroke-width: 2"/>
   </g>
   <g id="line2d_29">
    <path d="M 284.2452 357.840471 
L 308.0268 357.840471 
" clip-path="url(#p82025364ae)" style="fill: none; stroke: #ff0000; stroke-width: 2"/>
   </g>
   <g id="line2d_30">
    <path d="M 442.7892 342.957868 
L 466.5708 342.957868 
" clip-path="url(#p82025364ae)" style="fill: none; stroke: #ff0000; stroke-width: 2"/>
   </g>
   <g id="line2d_31">
    <path d="M 601.3332 356.3695 
L 625.1148 356.3695 
" clip-path="url(#p82025364ae)" style="fill: none; stroke: #ff0000; stroke-width: 2"/>
   </g>
   <g id="line2d_32">
    <path d="M 759.8772 359.109282 
L 783.6588 359.109282 
" clip-path="url(#p82025364ae)" style="fill: none; stroke: #ff0000; stroke-width: 2"/>
   </g>
   <g id="patch_3">
    <path d="M 58.32 395.14 
L 58.32 27.6 
" style="fill: none; stroke: #cccccc; stroke-width: 1.25; stroke-linejoin: miter; stroke-linecap: square"/>
   </g>
   <g id="patch_4">
    <path d="M 851.04 395.14 
L 851.04 27.6 
" style="fill: none; stroke: #cccccc; stroke-width: 1.25; stroke-linejoin: miter; stroke-linecap: square"/>
   </g>
   <g id="patch_5">
    <path d="M 58.32 395.14 
L 851.04 395.14 
" style="fill: none; stroke: #cccccc; stroke-width: 1.25; stroke-linejoin: miter; stroke-linecap: square"/>
   </g>
   <g id="patch_6">
    <path d="M 58.32 27.6 
L 851.04 27.6 
" style="fill: none; stroke: #cccccc; stroke-width: 1.25; stroke-linejoin: miter; stroke-linecap: square"/>
   </g>
   <g id="text_14">
    <!-- Handshake duration on TLS with mldsa65 signature algorithm — Local YDE (35ms/2%) -->
    <g style="fill: #262626" transform="translate(194.655 21.6) scale(0.12 -0.12)">
     <defs>
      <path id="DejaVuSans-54" d="M -19 4666 
L 3928 4666 
L 3928 4134 
L 2272 4134 
L 2272 0 
L 1638 0 
L 1638 4134 
L -19 4134 
L -19 4666 
z
" transform="scale(0.015625)"/>
      <path id="DejaVuSans-4c" d="M 628 4666 
L 1259 4666 
L 1259 531 
L 3531 531 
L 3531 0 
L 628 0 
L 628 4666 
z
" transform="scale(0.015625)"/>
      <path id="DejaVuSans-53" d="M 3425 4513 
L 3425 3897 
Q 3066 4069 2747 4153 
Q 2428 4238 2131 4238 
Q 1616 4238 1336 4038 
Q 1056 3838 1056 3469 
Q 1056 3159 1242 3001 
Q 1428 2844 1947 2747 
L 2328 2669 
Q 3034 2534 3370 2195 
Q 3706 1856 3706 1288 
Q 3706 609 3251 259 
Q 2797 -91 1919 -91 
Q 1588 -91 1214 -16 
Q 841 59 441 206 
L 441 856 
Q 825 641 1194 531 
Q 1563 422 1919 422 
Q 2459 422 2753 634 
Q 3047 847 3047 1241 
Q 3047 1584 2836 1778 
Q 2625 1972 2144 2069 
L 1759 2144 
Q 1053 2284 737 2584 
Q 422 2884 422 3419 
Q 422 4038 858 4394 
Q 1294 4750 2059 4750 
Q 2388 4750 2728 4690 
Q 3069 4631 3425 4513 
z
" transform="scale(0.015625)"/>
      <path id="DejaVuSans-77" d="M 269 3500 
L 844 3500 
L 1563 769 
L 2278 3500 
L 2956 3500 
L 3675 769 
L 4391 3500 
L 4966 3500 
L 4050 0 
L 3372 0 
L 2619 2869 
L 1863 0 
L 1184 0 
L 269 3500 
z
" transform="scale(0.015625)"/>
      <path id="DejaVuSans-67" d="M 2906 1791 
Q 2906 2416 2648 2759 
Q 2391 3103 1925 3103 
Q 1463 3103 1205 2759 
Q 947 2416 947 1791 
Q 947 1169 1205 825 
Q 1463 481 1925 481 
Q 2391 481 2648 825 
Q 2906 1169 2906 1791 
z
M 3481 434 
Q 3481 -459 3084 -895 
Q 2688 -1331 1869 -1331 
Q 1566 -1331 1297 -1286 
Q 1028 -1241 775 -1147 
L 775 -588 
Q 1028 -725 1275 -790 
Q 1522 -856 1778 -856 
Q 2344 -856 2625 -561 
Q 2906 -266 2906 331 
L 2906 616 
Q 2728 306 2450 153 
Q 2172 0 1784 0 
Q 1141 0 747 490 
Q 353 981 353 1791 
Q 353 2603 747 3093 
Q 1141 3584 1784 3584 
Q 2172 3584 2450 3431 
Q 2728 3278 2906 2969 
L 2906 3500 
L 3481 3500 
L 3481 434 
z
" transform="scale(0.015625)"/>
      <path id="DejaVuSans-2014" d="M 313 1978 
L 6088 1978 
L 6088 1528 
L 313 1528 
L 313 1978 
z
" transform="scale(0.015625)"/>
      <path id="DejaVuSans-63" d="M 3122 3366 
L 3122 2828 
Q 2878 2963 2633 3030 
Q 2388 3097 2138 3097 
Q 1578 3097 1268 2742 
Q 959 2388 959 1747 
Q 959 1106 1268 751 
Q 1578 397 2138 397 
Q 2388 397 2633 464 
Q 2878 531 3122 666 
L 3122 134 
Q 2881 22 2623 -34 
Q 2366 -91 2075 -91 
Q 1284 -91 818 406 
Q 353 903 353 1747 
Q 353 2603 823 3093 
Q 1294 3584 2113 3584 
Q 2378 3584 2631 3529 
Q 2884 3475 3122 3366 
z
" transform="scale(0.015625)"/>
      <path id="DejaVuSans-59" d="M -13 4666 
L 666 4666 
L 1959 2747 
L 3244 4666 
L 3922 4666 
L 2272 2222 
L 2272 0 
L 1638 0 
L 1638 2222 
L -13 4666 
z
" transform="scale(0.015625)"/>
      <path id="DejaVuSans-44" d="M 1259 4147 
L 1259 519 
L 2022 519 
Q 2988 519 3436 956 
Q 3884 1394 3884 2338 
Q 3884 3275 3436 3711 
Q 2988 4147 2022 4147 
L 1259 4147 
z
M 628 4666 
L 1925 4666 
Q 3281 4666 3915 4102 
Q 4550 3538 4550 2338 
Q 4550 1131 3912 565 
Q 3275 0 1925 0 
L 628 0 
L 628 4666 
z
" transform="scale(0.015625)"/>
      <path id="DejaVuSans-45" d="M 628 4666 
L 3578 4666 
L 3578 4134 
L 1259 4134 
L 1259 2753 
L 3481 2753 
L 3481 2222 
L 1259 2222 
L 1259 531 
L 3634 531 
L 3634 0 
L 628 0 
L 628 4666 
z
" transform="scale(0.015625)"/>
      <path id="DejaVuSans-2f" d="M 1625 4666 
L 2156 4666 
L 531 -594 
L 0 -594 
L 1625 4666 
z
" transform="scale(0.015625)"/>
      <path id="DejaVuSans-25" d="M 4653 2053 
Q 4381 2053 4226 1822 
Q 4072 1591 4072 1178 
Q 4072 772 4226 539 
Q 4381 306 4653 306 
Q 4919 306 5073 539 
Q 5228 772 5228 1178 
Q 5228 1588 5073 1820 
Q 4919 2053 4653 2053 
z
M 4653 2450 
Q 5147 2450 5437 2106 
Q 5728 1763 5728 1178 
Q 5728 594 5436 251 
Q 5144 -91 4653 -91 
Q 4153 -91 3862 251 
Q 3572 594 3572 1178 
Q 3572 1766 3864 2108 
Q 4156 2450 4653 2450 
z
M 1428 4353 
Q 1159 4353 1004 4120 
Q 850 3888 850 3481 
Q 850 3069 1003 2837 
Q 1156 2606 1428 2606 
Q 1700 2606 1854 2837 
Q 2009 3069 2009 3481 
Q 2009 3884 1853 4118 
Q 1697 4353 1428 4353 
z
M 4250 4750 
L 4750 4750 
L 1831 -91 
L 1331 -91 
L 4250 4750 
z
M 1428 4750 
Q 1922 4750 2215 4408 
Q 2509 4066 2509 3481 
Q 2509 2891 2217 2550 
Q 1925 2209 1428 2209 
Q 931 2209 642 2551 
Q 353 2894 353 3481 
Q 353 4063 643 4406 
Q 934 4750 1428 4750 
z
" transform="scale(0.015625)"/>
     </defs>
     <use xlink:href="#DejaVuSans-48"/>
     <use xlink:href="#DejaVuSans-61" x="75.195312"/>
     <use xlink:href="#DejaVuSans-6e" x="136.474609"/>
     <use xlink:href="#DejaVuSans-64" x="199.853516"/>
     <use xlink:href="#DejaVuSans-73" x="263.330078"/>
     <use xlink:href="#DejaVuSans-68" x="315.429688"/>
     <use xlink:href="#DejaVuSans-61" x="378.808594"/>
     <use xlink:href="#DejaVuSans-6b" x="440.087891"/>
     <use xlink:href="#DejaVuSans-65" x="494.373047"/>
     <use xlink:href="#DejaVuSans-20" x="555.896484"/>
     <use xlink:href="#DejaVuSans-64" x="587.683594"/>
     <use xlink:href="#DejaVuSans-75" x="651.160156"/>
     <use xlink:href="#DejaVuSans-72" x="714.539062"/>
     <use xlink:href="#DejaVuSans-61" x="755.652344"/>
     <use xlink:href="#DejaVuSans-74" x="816.931641"/>
     <use xlink:href="#DejaVuSans-69" x="856.140625"/>
     <use xlink:href="#DejaVuSans-6f" x="883.923828"/>
     <use xlink:href="#DejaVuSans-6e" x="945.105469"/>
     <use xlink:href="#DejaVuSans-20" x="1008.484375"/>
     <use xlink:href="#DejaVuSans-6f" x="1040.271484"/>
     <use xlink:href="#DejaVuSans-6e" x="1101.453125"/>
     <use xlink:href="#DejaVuSans-20" x="1164.832031"/>
     <use xlink:href="#DejaVuSans-54" x="1196.619141"/>
     <use xlink:href="#DejaVuSans-4c" x="1257.703125"/>
     <use xlink:href="#DejaVuSans-53" x="1313.416016"/>
     <use xlink:href="#DejaVuSans-20" x="1376.892578"/>
     <use xlink:href="#DejaVuSans-77" x="1408.679688"/>
     <use xlink:href="#DejaVuSans-69" x="1490.466797"/>
     <use xlink:href="#DejaVuSans-74" x="1518.25"/>
     <use xlink:href="#DejaVuSans-68" x="1557.458984"/>
     <use xlink:href="#DejaVuSans-20" x="1620.837891"/>
     <use xlink:href="#DejaVuSans-6d" x="1652.625"/>
     <use xlink:href="#DejaVuSans-6c" x="1750.037109"/>
     <use xlink:href="#DejaVuSans-64" x="1777.820312"/>
     <use xlink:href="#DejaVuSans-73" x="1841.296875"/>
     <use xlink:href="#DejaVuSans-61" x="1893.396484"/>
     <use xlink:href="#DejaVuSans-36" x="1954.675781"/>
     <use xlink:href="#DejaVuSans-35" x="2018.298828"/>
     <use xlink:href="#DejaVuSans-20" x="2081.921875"/>
     <use xlink:href="#DejaVuSans-73" x="2113.708984"/>
     <use xlink:href="#DejaVuSans-69" x="2165.808594"/>
     <use xlink:href="#DejaVuSans-67" x="2193.591797"/>
     <use xlink:href="#DejaVuSans-6e" x="2257.068359"/>
     <use xlink:href="#DejaVuSans-61" x="2320.447266"/>
     <use xlink:href="#DejaVuSans-74" x="2381.726562"/>
     <use xlink:href="#DejaVuSans-75" x="2420.935547"/>
     <use xlink:href="#DejaVuSans-72" x="2484.314453"/>
     <use xlink:href="#DejaVuSans-65" x="2523.177734"/>
     <use xlink:href="#DejaVuSans-20" x="2584.701172"/>
     <use xlink:href="#DejaVuSans-61" x="2616.488281"/>
     <use xlink:href="#DejaVuSans-6c" x="2677.767578"/>
     <use xlink:href="#DejaVuSans-67" x="2705.550781"/>
     <use xlink:href="#DejaVuSans-6f" x="2769.027344"/>
     <use xlink:href="#DejaVuSans-72" x="2830.208984"/>
     <use xlink:href="#DejaVuSans-69" x="2871.322266"/>
     <use xlink:href="#DejaVuSans-74" x="2899.105469"/>
     <use xlink:href="#DejaVuSans-68" x="2938.314453"/>
     <use xlink:href="#DejaVuSans-6d" x="3001.693359"/>
     <use xlink:href="#DejaVuSans-20" x="3099.105469"/>
     <use xlink:href="#DejaVuSans-2014" x="3130.892578"/>
     <use xlink:href="#DejaVuSans-20" x="3230.892578"/>
     <use xlink:href="#DejaVuSans-4c" x="3262.679688"/>
     <use xlink:href="#DejaVuSans-6f" x="3316.642578"/>
     <use xlink:href="#DejaVuSans-63" x="3377.824219"/>
     <use xlink:href="#DejaVuSans-61" x="3432.804688"/>
     <use xlink:href="#DejaVuSans-6c" x="3494.083984"/>
     <use xlink:href="#DejaVuSans-20" x="3521.867188"/>
     <use xlink:href="#DejaVuSans-59" x="3553.654297"/>
     <use xlink:href="#DejaVuSans-44" x="3614.738281"/>
     <use xlink:href="#DejaVuSans-45" x="3691.740234"/>
     <use xlink:href="#DejaVuSans-20" x="3754.923828"/>
     <use xlink:href="#DejaVuSans-28" x="3786.710938"/>
     <use xlink:href="#DejaVuSans-33" x="3825.724609"/>
     <use xlink:href="#DejaVuSans-35" x="3889.347656"/>
     <use xlink:href="#DejaVuSans-6d" x="3952.970703"/>
     <use xlink:href="#DejaVuSans-73" x="4050.382812"/>
     <use xlink:href="#DejaVuSans-2f" x="4102.482422"/>
     <use xlink:href="#DejaVuSans-32" x="4136.173828"/>
     <use xlink:href="#DejaVuSans-25" x="4199.796875"/>
     <use xlink:href="#DejaVuSans-29" x="4294.816406"/>
    </g>
   </g>
  </g>
 </g>
 <defs>
  <clipPath id="p82025364ae">
   <rect x="58.32" y="27.6" width="792.72" height="367.54"/>
  </clipPath>
 </defs>
</svg>
