<?xml version="1.0" encoding="utf-8" standalone="no"?>
<!DOCTYPE svg PUBLIC "-//W3C//DTD SVG 1.1//EN"
  "http://www.w3.org/Graphics/SVG/1.1/DTD/svg11.dtd">
<svg xmlns:xlink="http://www.w3.org/1999/xlink" width="864pt" height="432pt" viewBox="0 0 864 432" xmlns="http://www.w3.org/2000/svg" version="1.1">
 <metadata>
  <rdf:RDF xmlns:dc="http://purl.org/dc/elements/1.1/" xmlns:cc="http://creativecommons.org/ns#" xmlns:rdf="http://www.w3.org/1999/02/22-rdf-syntax-ns#">
   <cc:Work>
    <dc:type rdf:resource="http://purl.org/dc/dcmitype/StillImage"/>
    <dc:date>2026-03-21T13:58:44.015178</dc:date>
    <dc:format>image/svg+xml</dc:format>
    <dc:creator>
     <cc:Agent>
      <dc:title>Matplotlib v3.6.3, https://matplotlib.org/</dc:title>
     </cc:Agent>
    </dc:creator>
   </cc:Work>
  </rdf:RDF>
 </metadata>
 <defs>
  <style type="text/css">*{stroke-linejoin: round; stroke-linecap: butt}</style>
 </defs>
 <g id="figure_1">
  <g id="patch_1">
   <path d="M 0 432 
L 864 432 
L 864 0 
L 0 0 
z
" style="fill: #ffffff"/>
  </g>
  <g id="axes_1">
   <g id="patch_2">
    <path d="M 58.32 395.14 
L 851.04 395.14 
L 851.04 27.6 
L 58.32 27.6 
z
" style="fill: #ffffff"/>
   </g>
   <g id="matplotlib.axis_1">
    <g id="xtick_1">
     <g id="text_1">
      <!-- P-256 -->
      <g style="fill: #262626" transform="translate(117.642 415.277812) scale(0.14 -0.14)">
       <defs>
        <path id="DejaVuSans-50" d="M 1259 4147 
L 1259 2394 
L 2053 2394 
Q 2494 2394 2734 2622 
Q 2975 2850 2975 3272 
Q 2975 3691 2734 3919 
Q 2494 4147 2053 4147 
L 1259 4147 
z
M 628 4666 
L 2053 4666 
Q 2838 4666 3239 4311 
Q 3641 3956 3641 3272 
Q 3641 2581 3239 2228 
Q 2838 1875 2053 1875 
L 1259 1875 
L 1259 0 
L 628 0 
L 628 4666 
z
" transform="scale(0.015625)"/>
        <path id="DejaVuSans-2d" d="M 313 2009 
L 1997 2009 
L 1997 1497 
L 313 1497 
L 313 2009 
z
" transform="scale(0.015625)"/>
        <path id="DejaVuSans-32" d="M 1228 531 
L 3431 531 
L 3431 0 
L 469 0 
L 469 531 
Q 828 903 1448 1529 
Q 2069 2156 2228 2338 
Q 2531 2678 2651 2914 
Q 2772 3150 2772 3378 
Q 2772 3750 2511 3984 
Q 2250 4219 1831 4219 
Q 1534 4219 1204 4116 
Q 875 4013 500 3803 
L 500 4441 
Q 881 4594 1212 4672 
Q 1544 4750 1819 4750 
Q 2544 4750 2975 4387 
Q 3406 4025 3406 3419 
Q 3406 3131 3298 2873 
Q 3191 2616 2906 2266 
Q 2828 2175 2409 1742 
Q 1991 1309 1228 531 
z
" transform="scale(0.015625)"/>
        <path id="DejaVuSans-35" d="M 691 4666 
L 3169 4666 
L 3169 4134 
L 1269 4134 
L 1269 2991 
Q 1406 3038 1543 3061 
Q 1681 3084 1819 3084 
Q 2600 3084 3056 2656 
Q 3513 2228 3513 1497 
Q 3513 744 3044 326 
Q 2575 -91 1722 -91 
Q 1428 -91 1123 -41 
Q 819 9 494 109 
L 494 744 
Q 775 591 1075 516 
Q 1375 441 1709 441 
Q 2250 441 2565 725 
Q 2881 1009 2881 1497 
Q 2881 1984 2565 2268 
Q 2250 2553 1709 2553 
Q 1456 2553 1204 2497 
Q 953 2441 691 2322 
L 691 4666 
z
" transform="scale(0.015625)"/>
        <path id="DejaVuSans-36" d="M 2113 2584 
Q 1688 2584 1439 2293 
Q 1191 2003 1191 1497 
Q 1191 994 1439 701 
Q 1688 409 2113 409 
Q 2538 409 2786 701 
Q 3034 994 3034 1497 
Q 3034 2003 2786 2293 
Q 2538 2584 2113 2584 
z
M 3366 4563 
L 3366 3988 
Q 3128 4100 2886 4159 
Q 2644 4219 2406 4219 
Q 1781 4219 1451 3797 
Q 1122 3375 1075 2522 
Q 1259 2794 1537 2939 
Q 1816 3084 2150 3084 
Q 2853 3084 3261 2657 
Q 3669 2231 3669 1497 
Q 3669 778 3244 343 
Q 2819 -91 2113 -91 
Q 1303 -91 875 529 
Q 447 1150 447 2328 
Q 447 3434 972 4092 
Q 1497 4750 2381 4750 
Q 2619 4750 2861 4703 
Q 3103 4656 3366 4563 
z
" transform="scale(0.015625)"/>
       </defs>
       <use xlink:href="#DejaVuSans-50"/>
       <use xlink:href="#DejaVuSans-2d" x="58.052734"/>
       <use xlink:href="#DejaVuSans-32" x="94.136719"/>
       <use xlink:href="#DejaVuSans-35" x="157.759766"/>
       <use xlink:href="#DejaVuSans-36" x="221.382812"/>
      </g>
     </g>
    </g>
    <g id="xtick_2">
     <g id="text_2">
      <!-- x25519 -->
      <g style="fill: #262626" transform="translate(269.724125 415.277812) scale(0.14 -0.14)">
       <defs>
        <path id="DejaVuSans-78" d="M 3513 3500 
L 2247 1797 
L 3578 0 
L 2900 0 
L 1881 1375 
L 863 0 
L 184 0 
L 1544 1831 
L 300 3500 
L 978 3500 
L 1906 2253 
L 2834 3500 
L 3513 3500 
z
" transform="scale(0.015625)"/>
        <path id="DejaVuSans-31" d="M 794 531 
L 1825 531 
L 1825 4091 
L 703 3866 
L 703 4441 
L 1819 4666 
L 2450 4666 
L 2450 531 
L 3481 531 
L 3481 0 
L 794 0 
L 794 531 
z
" transform="scale(0.015625)"/>
        <path id="DejaVuSans-39" d="M 703 97 
L 703 672 
Q 941 559 1184 500 
Q 1428 441 1663 441 
Q 2288 441 2617 861 
Q 2947 1281 2994 2138 
Q 2813 1869 2534 1725 
Q 2256 1581 1919 1581 
Q 1219 1581 811 2004 
Q 403 2428 403 3163 
Q 403 3881 828 4315 
Q 1253 4750 1959 4750 
Q 2769 4750 3195 4129 
Q 3622 3509 3622 2328 
Q 3622 1225 3098 567 
Q 2575 -91 1691 -91 
Q 1453 -91 1209 -44 
Q 966 3 703 97 
z
M 1959 2075 
Q 2384 2075 2632 2365 
Q 2881 2656 2881 3163 
Q 2881 3666 2632 3958 
Q 2384 4250 1959 4250 
Q 1534 4250 1286 3958 
Q 1038 3666 1038 3163 
Q 1038 2656 1286 2365 
Q 1534 2075 1959 2075 
z
" transform="scale(0.015625)"/>
       </defs>
       <use xlink:href="#DejaVuSans-78"/>
       <use xlink:href="#DejaVuSans-32" x="59.179688"/>
       <use xlink:href="#DejaVuSans-35" x="122.802734"/>
       <use xlink:href="#DejaVuSans-35" x="186.425781"/>
       <use xlink:href="#DejaVuSans-31" x="250.048828"/>
       <use xlink:href="#DejaVuSans-39" x="313.671875"/>
      </g>
     </g>
    </g>
    <g id="xtick_3">
     <g id="text_3">
      <!-- p256_mlkem512 -->
      <g style="fill: #262626" transform="translate(396.325156 415.277812) scale(0.14 -0.14)">
       <defs>
        <path id="DejaVuSans-70" d="M 1159 525 
L 1159 -1331 
L 581 -1331 
L 581 3500 
L 1159 3500 
L 1159 2969 
Q 1341 3281 1617 3432 
Q 1894 3584 2278 3584 
Q 2916 3584 3314 3078 
Q 3713 2572 3713 1747 
Q 3713 922 3314 415 
Q 2916 -91 2278 -91 
Q 1894 -91 1617 61 
Q 1341 213 1159 525 
z
M 3116 1747 
Q 3116 2381 2855 2742 
Q 2594 3103 2138 3103 
Q 1681 3103 1420 2742 
Q 1159 2381 1159 1747 
Q 1159 1113 1420 752 
Q 1681 391 2138 391 
Q 2594 391 2855 752 
Q 3116 1113 3116 1747 
z
" transform="scale(0.015625)"/>
        <path id="DejaVuSans-5f" d="M 3263 -1063 
L 3263 -1509 
L -63 -1509 
L -63 -1063 
L 3263 -1063 
z
" transform="scale(0.015625)"/>
        <path id="DejaVuSans-6d" d="M 3328 2828 
Q 3544 3216 3844 3400 
Q 4144 3584 4550 3584 
Q 5097 3584 5394 3201 
Q 5691 2819 5691 2113 
L 5691 0 
L 5113 0 
L 5113 2094 
Q 5113 2597 4934 2840 
Q 4756 3084 4391 3084 
Q 3944 3084 3684 2787 
Q 3425 2491 3425 1978 
L 3425 0 
L 2847 0 
L 2847 2094 
Q 2847 2600 2669 2842 
Q 2491 3084 2119 3084 
Q 1678 3084 1418 2786 
Q 1159 2488 1159 1978 
L 1159 0 
L 581 0 
L 581 3500 
L 1159 3500 
L 1159 2956 
Q 1356 3278 1631 3431 
Q 1906 3584 2284 3584 
Q 2666 3584 2933 3390 
Q 3200 3197 3328 2828 
z
" transform="scale(0.015625)"/>
        <path id="DejaVuSans-6c" d="M 603 4863 
L 1178 4863 
L 1178 0 
L 603 0 
L 603 4863 
z
" transform="scale(0.015625)"/>
        <path id="DejaVuSans-6b" d="M 581 4863 
L 1159 4863 
L 1159 1991 
L 2875 3500 
L 3609 3500 
L 1753 1863 
L 3688 0 
L 2938 0 
L 1159 1709 
L 1159 0 
L 581 0 
L 581 4863 
z
" transform="scale(0.015625)"/>
        <path id="DejaVuSans-65" d="M 3597 1894 
L 3597 1613 
L 953 1613 
Q 991 1019 1311 708 
Q 1631 397 2203 397 
Q 2534 397 2845 478 
Q 3156 559 3463 722 
L 3463 178 
Q 3153 47 2828 -22 
Q 2503 -91 2169 -91 
Q 1331 -91 842 396 
Q 353 884 353 1716 
Q 353 2575 817 3079 
Q 1281 3584 2069 3584 
Q 2775 3584 3186 3129 
Q 3597 2675 3597 1894 
z
M 3022 2063 
Q 3016 2534 2758 2815 
Q 2500 3097 2075 3097 
Q 1594 3097 1305 2825 
Q 1016 2553 972 2059 
L 3022 2063 
z
" transform="scale(0.015625)"/>
       </defs>
       <use xlink:href="#DejaVuSans-70"/>
       <use xlink:href="#DejaVuSans-32" x="63.476562"/>
       <use xlink:href="#DejaVuSans-35" x="127.099609"/>
       <use xlink:href="#DejaVuSans-36" x="190.722656"/>
       <use xlink:href="#DejaVuSans-5f" x="254.345703"/>
       <use xlink:href="#DejaVuSans-6d" x="304.345703"/>
       <use xlink:href="#DejaVuSans-6c" x="401.757812"/>
       <use xlink:href="#DejaVuSans-6b" x="429.541016"/>
       <use xlink:href="#DejaVuSans-65" x="483.826172"/>
       <use xlink:href="#DejaVuSans-6d" x="545.349609"/>
       <use xlink:href="#DejaVuSans-35" x="642.761719"/>
       <use xlink:href="#DejaVuSans-31" x="706.384766"/>
       <use xlink:href="#DejaVuSans-32" x="770.007812"/>
      </g>
     </g>
    </g>
    <g id="xtick_4">
     <g id="text_4">
      <!-- x25519_mlkem512 -->
      <g style="fill: #262626" transform="translate(546.262437 415.277812) scale(0.14 -0.14)">
       <use xlink:href="#DejaVuSans-78"/>
       <use xlink:href="#DejaVuSans-32" x="59.179688"/>
       <use xlink:href="#DejaVuSans-35" x="122.802734"/>
       <use xlink:href="#DejaVuSans-35" x="186.425781"/>
       <use xlink:href="#DejaVuSans-31" x="250.048828"/>
       <use xlink:href="#DejaVuSans-39" x="313.671875"/>
       <use xlink:href="#DejaVuSans-5f" x="377.294922"/>
       <use xlink:href="#DejaVuSans-6d" x="427.294922"/>
       <use xlink:href="#DejaVuSans-6c" x="524.707031"/>
       <use xlink:href="#DejaVuSans-6b" x="552.490234"/>
       <use xlink:href="#DejaVuSans-65" x="606.775391"/>
       <use xlink:href="#DejaVuSans-6d" x="668.298828"/>
       <use xlink:href="#DejaVuSans-35" x="765.710938"/>
       <use xlink:href="#DejaVuSans-31" x="829.333984"/>
       <use xlink:href="#DejaVuSans-32" x="892.957031"/>
      </g>
     </g>
    </g>
    <g id="xtick_5">
     <g id="text_5">
      <!-- mlkem512 -->
      <g style="fill: #262626" transform="translate(734.718312 415.277812) scale(0.14 -0.14)">
       <use xlink:href="#DejaVuSans-6d"/>
       <use xlink:href="#DejaVuSans-6c" x="97.412109"/>
       <use xlink:href="#DejaVuSans-6b" x="125.195312"/>
       <use xlink:href="#DejaVuSans-65" x="179.480469"/>
       <use xlink:href="#DejaVuSans-6d" x="241.003906"/>
       <use xlink:href="#DejaVuSans-35" x="338.416016"/>
       <use xlink:href="#DejaVuSans-31" x="402.039062"/>
       <use xlink:href="#DejaVuSans-32" x="465.662109"/>
      </g>
     </g>
    </g>
   </g>
   <g id="matplotlib.axis_2">
    <g id="ytick_1">
     <g id="line2d_1">
      <path d="M 58.32 390.869914 
L 851.04 390.869914 
" clip-path="url(#p1910f59a04)" style="fill: none; stroke: #cccccc; stroke-linecap: round"/>
     </g>
     <g id="text_6">
      <!-- 800 -->
      <g style="fill: #262626" transform="translate(27.82375 395.049055) scale(0.11 -0.11)">
       <defs>
        <path id="DejaVuSans-38" d="M 2034 2216 
Q 1584 2216 1326 1975 
Q 1069 1734 1069 1313 
Q 1069 891 1326 650 
Q 1584 409 2034 409 
Q 2484 409 2743 651 
Q 3003 894 3003 1313 
Q 3003 1734 2745 1975 
Q 2488 2216 2034 2216 
z
M 1403 2484 
Q 997 2584 770 2862 
Q 544 3141 544 3541 
Q 544 4100 942 4425 
Q 1341 4750 2034 4750 
Q 2731 4750 3128 4425 
Q 3525 4100 3525 3541 
Q 3525 3141 3298 2862 
Q 3072 2584 2669 2484 
Q 3125 2378 3379 2068 
Q 3634 1759 3634 1313 
Q 3634 634 3220 271 
Q 2806 -91 2034 -91 
Q 1263 -91 848 271 
Q 434 634 434 1313 
Q 434 1759 690 2068 
Q 947 2378 1403 2484 
z
M 1172 3481 
Q 1172 3119 1398 2916 
Q 1625 2713 2034 2713 
Q 2441 2713 2670 2916 
Q 2900 3119 2900 3481 
Q 2900 3844 2670 4047 
Q 2441 4250 2034 4250 
Q 1625 4250 1398 4047 
Q 1172 3844 1172 3481 
z
" transform="scale(0.015625)"/>
        <path id="DejaVuSans-30" d="M 2034 4250 
Q 1547 4250 1301 3770 
Q 1056 3291 1056 2328 
Q 1056 1369 1301 889 
Q 1547 409 2034 409 
Q 2525 409 2770 889 
Q 3016 1369 3016 2328 
Q 3016 3291 2770 3770 
Q 2525 4250 2034 4250 
z
M 2034 4750 
Q 2819 4750 3233 4129 
Q 3647 3509 3647 2328 
Q 3647 1150 3233 529 
Q 2819 -91 2034 -91 
Q 1250 -91 836 529 
Q 422 1150 422 2328 
Q 422 3509 836 4129 
Q 1250 4750 2034 4750 
z
" transform="scale(0.015625)"/>
       </defs>
       <use xlink:href="#DejaVuSans-38"/>
       <use xlink:href="#DejaVuSans-30" x="63.623047"/>
       <use xlink:href="#DejaVuSans-30" x="127.246094"/>
      </g>
     </g>
    </g>
    <g id="ytick_2">
     <g id="line2d_2">
      <path d="M 58.32 325.356939 
L 851.04 325.356939 
" clip-path="url(#p1910f59a04)" style="fill: none; stroke: #cccccc; stroke-linecap: round"/>
     </g>
     <g id="text_7">
      <!-- 805 -->
      <g style="fill: #262626" transform="translate(27.82375 329.536079) scale(0.11 -0.11)">
       <use xlink:href="#DejaVuSans-38"/>
       <use xlink:href="#DejaVuSans-30" x="63.623047"/>
       <use xlink:href="#DejaVuSans-35" x="127.246094"/>
      </g>
     </g>
    </g>
    <g id="ytick_3">
     <g id="line2d_3">
      <path d="M 58.32 259.843963 
L 851.04 259.843963 
" clip-path="url(#p1910f59a04)" style="fill: none; stroke: #cccccc; stroke-linecap: round"/>
     </g>
     <g id="text_8">
      <!-- 810 -->
      <g style="fill: #262626" transform="translate(27.82375 264.023104) scale(0.11 -0.11)">
       <use xlink:href="#DejaVuSans-38"/>
       <use xlink:href="#DejaVuSans-31" x="63.623047"/>
       <use xlink:href="#DejaVuSans-30" x="127.246094"/>
      </g>
     </g>
    </g>
    <g id="ytick_4">
     <g id="line2d_4">
      <path d="M 58.32 194.330988 
L 851.04 194.330988 
" clip-path="url(#p1910f59a04)" style="fill: none; stroke: #cccccc; stroke-linecap: round"/>
     </g>
     <g id="text_9">
      <!-- 815 -->
      <g style="fill: #262626" transform="translate(27.82375 198.510129) scale(0.11 -0.11)">
       <use xlink:href="#DejaVuSans-38"/>
       <use xlink:href="#DejaVuSans-31" x="63.623047"/>
       <use xlink:href="#DejaVuSans-35" x="127.246094"/>
      </g>
     </g>
    </g>
    <g id="ytick_5">
     <g id="line2d_5">
      <path d="M 58.32 128.818013 
L 851.04 128.818013 
" clip-path="url(#p1910f59a04)" style="fill: none; stroke: #cccccc; stroke-linecap: round"/>
     </g>
     <g id="text_10">
      <!-- 820 -->
      <g style="fill: #262626" transform="translate(27.82375 132.997153) scale(0.11 -0.11)">
       <use xlink:href="#DejaVuSans-38"/>
       <use xlink:href="#DejaVuSans-32" x="63.623047"/>
       <use xlink:href="#DejaVuSans-30" x="127.246094"/>
      </g>
     </g>
    </g>
    <g id="ytick_6">
     <g id="line2d_6">
      <path d="M 58.32 63.305037 
L 851.04 63.305037 
" clip-path="url(#p1910f59a04)" style="fill: none; stroke: #cccccc; stroke-linecap: round"/>
     </g>
     <g id="text_11">
      <!-- 825 -->
      <g style="fill: #262626" transform="translate(27.82375 67.484178) scale(0.11 -0.11)">
       <use xlink:href="#DejaVuSans-38"/>
       <use xlink:href="#DejaVuSans-32" x="63.623047"/>
       <use xlink:href="#DejaVuSans-35" x="127.246094"/>
      </g>
     </g>
    </g>
    <g id="text_12">
     <!-- Handshake duration (ms) -->
     <g style="fill: #262626" transform="translate(21.328125 287.437813) rotate(-90) scale(0.12 -0.12)">
      <defs>
       <path id="DejaVuSans-48" d="M 628 4666 
L 1259 4666 
L 1259 2753 
L 3553 2753 
L 3553 4666 
L 4184 4666 
L 4184 0 
L 3553 0 
L 3553 2222 
L 1259 2222 
L 1259 0 
L 628 0 
L 628 4666 
z
" transform="scale(0.015625)"/>
       <path id="DejaVuSans-61" d="M 2194 1759 
Q 1497 1759 1228 1600 
Q 959 1441 959 1056 
Q 959 750 1161 570 
Q 1363 391 1709 391 
Q 2188 391 2477 730 
Q 2766 1069 2766 1631 
L 2766 1759 
L 2194 1759 
z
M 3341 1997 
L 3341 0 
L 2766 0 
L 2766 531 
Q 2569 213 2275 61 
Q 1981 -91 1556 -91 
Q 1019 -91 701 211 
Q 384 513 384 1019 
Q 384 1609 779 1909 
Q 1175 2209 1959 2209 
L 2766 2209 
L 2766 2266 
Q 2766 2663 2505 2880 
Q 2244 3097 1772 3097 
Q 1472 3097 1187 3025 
Q 903 2953 641 2809 
L 641 3341 
Q 956 3463 1253 3523 
Q 1550 3584 1831 3584 
Q 2591 3584 2966 3190 
Q 3341 2797 3341 1997 
z
" transform="scale(0.015625)"/>
       <path id="DejaVuSans-6e" d="M 3513 2113 
L 3513 0 
L 2938 0 
L 2938 2094 
Q 2938 2591 2744 2837 
Q 2550 3084 2163 3084 
Q 1697 3084 1428 2787 
Q 1159 2491 1159 1978 
L 1159 0 
L 581 0 
L 581 3500 
L 1159 3500 
L 1159 2956 
Q 1366 3272 1645 3428 
Q 1925 3584 2291 3584 
Q 2894 3584 3203 3211 
Q 3513 2838 3513 2113 
z
" transform="scale(0.015625)"/>
       <path id="DejaVuSans-64" d="M 2906 2969 
L 2906 4863 
L 3481 4863 
L 3481 0 
L 2906 0 
L 2906 525 
Q 2725 213 2448 61 
Q 2172 -91 1784 -91 
Q 1150 -91 751 415 
Q 353 922 353 1747 
Q 353 2572 751 3078 
Q 1150 3584 1784 3584 
Q 2172 3584 2448 3432 
Q 2725 3281 2906 2969 
z
M 947 1747 
Q 947 1113 1208 752 
Q 1469 391 1925 391 
Q 2381 391 2643 752 
Q 2906 1113 2906 1747 
Q 2906 2381 2643 2742 
Q 2381 3103 1925 3103 
Q 1469 3103 1208 2742 
Q 947 2381 947 1747 
z
" transform="scale(0.015625)"/>
       <path id="DejaVuSans-73" d="M 2834 3397 
L 2834 2853 
Q 2591 2978 2328 3040 
Q 2066 3103 1784 3103 
Q 1356 3103 1142 2972 
Q 928 2841 928 2578 
Q 928 2378 1081 2264 
Q 1234 2150 1697 2047 
L 1894 2003 
Q 2506 1872 2764 1633 
Q 3022 1394 3022 966 
Q 3022 478 2636 193 
Q 2250 -91 1575 -91 
Q 1294 -91 989 -36 
Q 684 19 347 128 
L 347 722 
Q 666 556 975 473 
Q 1284 391 1588 391 
Q 1994 391 2212 530 
Q 2431 669 2431 922 
Q 2431 1156 2273 1281 
Q 2116 1406 1581 1522 
L 1381 1569 
Q 847 1681 609 1914 
Q 372 2147 372 2553 
Q 372 3047 722 3315 
Q 1072 3584 1716 3584 
Q 2034 3584 2315 3537 
Q 2597 3491 2834 3397 
z
" transform="scale(0.015625)"/>
       <path id="DejaVuSans-68" d="M 3513 2113 
L 3513 0 
L 2938 0 
L 2938 2094 
Q 2938 2591 2744 2837 
Q 2550 3084 2163 3084 
Q 1697 3084 1428 2787 
Q 1159 2491 1159 1978 
L 1159 0 
L 581 0 
L 581 4863 
L 1159 4863 
L 1159 2956 
Q 1366 3272 1645 3428 
Q 1925 3584 2291 3584 
Q 2894 3584 3203 3211 
Q 3513 2838 3513 2113 
z
" transform="scale(0.015625)"/>
       <path id="DejaVuSans-20" transform="scale(0.015625)"/>
       <path id="DejaVuSans-75" d="M 544 1381 
L 544 3500 
L 1119 3500 
L 1119 1403 
Q 1119 906 1312 657 
Q 1506 409 1894 409 
Q 2359 409 2629 706 
Q 2900 1003 2900 1516 
L 2900 3500 
L 3475 3500 
L 3475 0 
L 2900 0 
L 2900 538 
Q 2691 219 2414 64 
Q 2138 -91 1772 -91 
Q 1169 -91 856 284 
Q 544 659 544 1381 
z
M 1991 3584 
L 1991 3584 
z
" transform="scale(0.015625)"/>
       <path id="DejaVuSans-72" d="M 2631 2963 
Q 2534 3019 2420 3045 
Q 2306 3072 2169 3072 
Q 1681 3072 1420 2755 
Q 1159 2438 1159 1844 
L 1159 0 
L 581 0 
L 581 3500 
L 1159 3500 
L 1159 2956 
Q 1341 3275 1631 3429 
Q 1922 3584 2338 3584 
Q 2397 3584 2469 3576 
Q 2541 3569 2628 3553 
L 2631 2963 
z
" transform="scale(0.015625)"/>
       <path id="DejaVuSans-74" d="M 1172 4494 
L 1172 3500 
L 2356 3500 
L 2356 3053 
L 1172 3053 
L 1172 1153 
Q 1172 725 1289 603 
Q 1406 481 1766 481 
L 2356 481 
L 2356 0 
L 1766 0 
Q 1100 0 847 248 
Q 594 497 594 1153 
L 594 3053 
L 172 3053 
L 172 3500 
L 594 3500 
L 594 4494 
L 1172 4494 
z
" transform="scale(0.015625)"/>
       <path id="DejaVuSans-69" d="M 603 3500 
L 1178 3500 
L 1178 0 
L 603 0 
L 603 3500 
z
M 603 4863 
L 1178 4863 
L 1178 4134 
L 603 4134 
L 603 4863 
z
" transform="scale(0.015625)"/>
       <path id="DejaVuSans-6f" d="M 1959 3097 
Q 1497 3097 1228 2736 
Q 959 2375 959 1747 
Q 959 1119 1226 758 
Q 1494 397 1959 397 
Q 2419 397 2687 759 
Q 2956 1122 2956 1747 
Q 2956 2369 2687 2733 
Q 2419 3097 1959 3097 
z
M 1959 3584 
Q 2709 3584 3137 3096 
Q 3566 2609 3566 1747 
Q 3566 888 3137 398 
Q 2709 -91 1959 -91 
Q 1206 -91 779 398 
Q 353 888 353 1747 
Q 353 2609 779 3096 
Q 1206 3584 1959 3584 
z
" transform="scale(0.015625)"/>
       <path id="DejaVuSans-28" d="M 1984 4856 
Q 1566 4138 1362 3434 
Q 1159 2731 1159 2009 
Q 1159 1288 1364 580 
Q 1569 -128 1984 -844 
L 1484 -844 
Q 1016 -109 783 600 
Q 550 1309 550 2009 
Q 550 2706 781 3412 
Q 1013 4119 1484 4856 
L 1984 4856 
z
" transform="scale(0.015625)"/>
       <path id="DejaVuSans-29" d="M 513 4856 
L 1013 4856 
Q 1481 4119 1714 3412 
Q 1947 2706 1947 2009 
Q 1947 1309 1714 600 
Q 1481 -109 1013 -844 
L 513 -844 
Q 928 -128 1133 580 
Q 1338 1288 1338 2009 
Q 1338 2731 1133 3434 
Q 928 4138 513 4856 
z
" transform="scale(0.015625)"/>
      </defs>
      <use xlink:href="#DejaVuSans-48"/>
      <use xlink:href="#DejaVuSans-61" x="75.195312"/>
      <use xlink:href="#DejaVuSans-6e" x="136.474609"/>
      <use xlink:href="#DejaVuSans-64" x="199.853516"/>
      <use xlink:href="#DejaVuSans-73" x="263.330078"/>
      <use xlink:href="#DejaVuSans-68" x="315.429688"/>
      <use xlink:href="#DejaVuSans-61" x="378.808594"/>
      <use xlink:href="#DejaVuSans-6b" x="440.087891"/>
      <use xlink:href="#DejaVuSans-65" x="494.373047"/>
      <use xlink:href="#DejaVuSans-20" x="555.896484"/>
      <use xlink:href="#DejaVuSans-64" x="587.683594"/>
      <use xlink:href="#DejaVuSans-75" x="651.160156"/>
      <use xlink:href="#DejaVuSans-72" x="714.539062"/>
      <use xlink:href="#DejaVuSans-61" x="755.652344"/>
      <use xlink:href="#DejaVuSans-74" x="816.931641"/>
      <use xlink:href="#DejaVuSans-69" x="856.140625"/>
      <use xlink:href="#DejaVuSans-6f" x="883.923828"/>
      <use xlink:href="#DejaVuSans-6e" x="945.105469"/>
      <use xlink:href="#DejaVuSans-20" x="1008.484375"/>
      <use xlink:href="#DejaVuSans-28" x="1040.271484"/>
      <use xlink:href="#DejaVuSans-6d" x="1079.285156"/>
      <use xlink:href="#DejaVuSans-73" x="1176.697266"/>
      <use xlink:href="#DejaVuSans-29" x="1228.796875"/>
     </g>
    </g>
   </g>
   <g id="PolyCollection_1">
    <defs>
     <path id="m3b6cf4a16f" d="M 138.900316 -53.566364 
L 136.283684 -53.566364 
L 135.635775 -54.667737 
L 134.753272 -55.76911 
L 133.59322 -56.870484 
L 132.122555 -57.971857 
L 130.325921 -59.073231 
L 128.213249 -60.174604 
L 125.825529 -61.275977 
L 123.237217 -62.377351 
L 120.554025 -63.478724 
L 117.905639 -64.580098 
L 115.433855 -65.681471 
L 113.277704 -66.782844 
L 111.557864 -67.884218 
L 110.362955 -68.985591 
L 109.740007 -70.086965 
L 109.690559 -71.188338 
L 110.172712 -72.289711 
L 111.108315 -73.391085 
L 112.393624 -74.492458 
L 113.911362 -75.593832 
L 115.542241 -76.695205 
L 117.174505 -77.796578 
L 118.710761 -78.897952 
L 120.072028 -79.999325 
L 121.199457 -81.100699 
L 122.054367 -82.202072 
L 122.617242 -83.303445 
L 122.886145 -84.404819 
L 122.874731 -85.506192 
L 122.609842 -86.607566 
L 122.128528 -87.708939 
L 121.474382 -88.810312 
L 120.693185 -89.911686 
L 119.828069 -91.013059 
L 118.914617 -92.114433 
L 117.976465 -93.215806 
L 117.022016 -94.317179 
L 116.042775 -95.418553 
L 115.013637 -96.519926 
L 113.895161 -97.6213 
L 112.637624 -98.722673 
L 111.186446 -99.824046 
L 109.488454 -100.92542 
L 107.498465 -102.026793 
L 105.185714 -103.128167 
L 102.539706 -104.22954 
L 99.575125 -105.330913 
L 96.335402 -106.432287 
L 92.894492 -107.53366 
L 89.356408 -108.635034 
L 85.852062 -109.736407 
L 82.533156 -110.83778 
L 79.563155 -111.939154 
L 77.105768 -113.040527 
L 75.311847 -114.141901 
L 74.305987 -115.243274 
L 74.1744 -116.344647 
L 74.955673 -117.446021 
L 76.635771 -118.547394 
L 79.14819 -119.648768 
L 82.379462 -120.750141 
L 86.179461 -121.851514 
L 90.375234 -122.952888 
L 94.78656 -124.054261 
L 99.241219 -125.155635 
L 103.588041 -126.257008 
L 107.706248 -127.358381 
L 111.510286 -128.459755 
L 114.950058 -129.561128 
L 118.007241 -130.662502 
L 120.688848 -131.763875 
L 123.019467 -132.865248 
L 125.033585 -133.966622 
L 126.769088 -135.067995 
L 128.262611 -136.169369 
L 129.546902 -137.270742 
L 130.649973 -138.372115 
L 131.595512 -139.473489 
L 132.403944 -140.574862 
L 133.093587 -141.676235 
L 133.681516 -142.777609 
L 134.183935 -143.878982 
L 134.616105 -144.980356 
L 134.991926 -146.081729 
L 135.32342 -147.183102 
L 135.620274 -148.284476 
L 135.889609 -149.385849 
L 136.136032 -150.487223 
L 136.361946 -151.588596 
L 136.568083 -152.689969 
L 136.754129 -153.791343 
L 136.919351 -154.892716 
L 137.063139 -155.99409 
L 137.185382 -157.095463 
L 137.286673 -158.196836 
L 137.368334 -159.29821 
L 137.432311 -160.399583 
L 137.48097 -161.500957 
L 137.516876 -162.60233 
L 137.667124 -162.60233 
L 137.667124 -162.60233 
L 137.70303 -161.500957 
L 137.751689 -160.399583 
L 137.815666 -159.29821 
L 137.897327 -158.196836 
L 137.998618 -157.095463 
L 138.120861 -155.99409 
L 138.264649 -154.892716 
L 138.429871 -153.791343 
L 138.615917 -152.689969 
L 138.822054 -151.588596 
L 139.047968 -150.487223 
L 139.294391 -149.385849 
L 139.563726 -148.284476 
L 139.86058 -147.183102 
L 140.192074 -146.081729 
L 140.567895 -144.980356 
L 141.000065 -143.878982 
L 141.502484 -142.777609 
L 142.090413 -141.676235 
L 142.780056 -140.574862 
L 143.588488 -139.473489 
L 144.534027 -138.372115 
L 145.637098 -137.270742 
L 146.921389 -136.169369 
L 148.414912 -135.067995 
L 150.150415 -133.966622 
L 152.164533 -132.865248 
L 154.495152 -131.763875 
L 157.176759 -130.662502 
L 160.233942 -129.561128 
L 163.673714 -128.459755 
L 167.477752 -127.358381 
L 171.595959 -126.257008 
L 175.942781 -125.155635 
L 180.39744 -124.054261 
L 184.808766 -122.952888 
L 189.004539 -121.851514 
L 192.804538 -120.750141 
L 196.03581 -119.648768 
L 198.548229 -118.547394 
L 200.228327 -117.446021 
L 201.0096 -116.344647 
L 200.878013 -115.243274 
L 199.872153 -114.141901 
L 198.078232 -113.040527 
L 195.620845 -111.939154 
L 192.650844 -110.83778 
L 189.331938 -109.736407 
L 185.827592 -108.635034 
L 182.289508 -107.53366 
L 178.848598 -106.432287 
L 175.608875 -105.330913 
L 172.644294 -104.22954 
L 169.998286 -103.128167 
L 167.685535 -102.026793 
L 165.695546 -100.92542 
L 163.997554 -99.824046 
L 162.546376 -98.722673 
L 161.288839 -97.6213 
L 160.170363 -96.519926 
L 159.141225 -95.418553 
L 158.161984 -94.317179 
L 157.207535 -93.215806 
L 156.269383 -92.114433 
L 155.355931 -91.013059 
L 154.490815 -89.911686 
L 153.709618 -88.810312 
L 153.055472 -87.708939 
L 152.574158 -86.607566 
L 152.309269 -85.506192 
L 152.297855 -84.404819 
L 152.566758 -83.303445 
L 153.129633 -82.202072 
L 153.984543 -81.100699 
L 155.111972 -79.999325 
L 156.473239 -78.897952 
L 158.009495 -77.796578 
L 159.641759 -76.695205 
L 161.272638 -75.593832 
L 162.790376 -74.492458 
L 164.075685 -73.391085 
L 165.011288 -72.289711 
L 165.493441 -71.188338 
L 165.443993 -70.086965 
L 164.821045 -68.985591 
L 163.626136 -67.884218 
L 161.906296 -66.782844 
L 159.750145 -65.681471 
L 157.278361 -64.580098 
L 154.629975 -63.478724 
L 151.946783 -62.377351 
L 149.358471 -61.275977 
L 146.970751 -60.174604 
L 144.858079 -59.073231 
L 143.061445 -57.971857 
L 141.59078 -56.870484 
L 140.430728 -55.76911 
L 139.548225 -54.667737 
L 138.900316 -53.566364 
z
" style="stroke: #595959; stroke-width: 1.25"/>
    </defs>
    <g clip-path="url(#p1910f59a04)">
     <use xlink:href="#m3b6cf4a16f" x="0" y="432" style="fill: #72b6a1; stroke: #595959; stroke-width: 1.25"/>
    </g>
   </g>
   <g id="PolyCollection_2">
    <defs>
     <path id="mcf4a9ee5dc" d="M 296.213829 -64.57491 
L 296.058171 -64.57491 
L 295.990241 -65.472418 
L 295.883897 -66.369925 
L 295.732038 -67.267432 
L 295.534104 -68.16494 
L 295.298661 -69.062447 
L 295.043608 -69.959955 
L 294.793469 -70.857462 
L 294.574191 -71.75497 
L 294.406422 -72.652477 
L 294.298737 -73.549985 
L 294.243092 -74.447492 
L 294.215435 -75.344999 
L 294.18341 -76.242507 
L 294.119663 -77.140014 
L 294.014927 -78.037522 
L 293.883413 -78.935029 
L 293.756191 -79.832537 
L 293.664972 -80.730044 
L 293.624545 -81.627552 
L 293.623089 -82.525059 
L 293.624857 -83.422566 
L 293.58261 -84.320074 
L 293.45235 -85.217581 
L 293.203532 -86.115089 
L 292.822666 -87.012596 
L 292.312683 -87.910104 
L 291.691049 -88.807611 
L 290.986862 -89.705119 
L 290.235346 -90.602626 
L 289.470096 -91.500133 
L 288.716869 -92.397641 
L 287.992611 -93.295148 
L 287.307935 -94.192656 
L 286.665382 -95.090163 
L 286.046624 -95.987671 
L 285.390954 -96.885178 
L 284.578238 -97.782685 
L 283.432252 -98.680193 
L 281.750929 -99.5777 
L 279.354303 -100.475208 
L 276.130067 -101.372715 
L 272.059011 -102.270223 
L 267.216368 -103.16773 
L 261.759633 -104.065238 
L 255.917589 -104.962745 
L 249.986929 -105.860252 
L 244.330397 -106.75776 
L 239.363983 -107.655267 
L 235.523624 -108.552775 
L 233.20995 -109.450282 
L 232.7184 -110.34779 
L 234.170729 -111.245297 
L 237.470796 -112.142805 
L 242.306267 -113.040312 
L 248.203262 -113.937819 
L 254.617979 -114.835327 
L 261.033203 -115.732834 
L 267.029883 -116.630342 
L 272.321711 -117.527849 
L 276.758777 -118.425357 
L 280.313024 -119.322864 
L 283.053912 -120.220372 
L 285.11689 -121.117879 
L 286.66689 -122.015386 
L 287.863023 -122.912894 
L 288.832861 -123.810401 
L 289.661871 -124.707909 
L 290.397277 -125.605416 
L 291.060285 -126.502924 
L 291.659253 -127.400431 
L 292.19885 -128.297938 
L 292.684096 -129.195446 
L 293.120848 -130.092953 
L 293.514795 -130.990461 
L 293.870234 -131.887968 
L 294.1893 -132.785476 
L 294.472185 -133.682983 
L 294.718495 -134.580491 
L 294.928982 -135.477998 
L 295.106262 -136.375505 
L 295.253828 -137.273013 
L 295.374288 -138.17052 
L 295.468627 -139.068028 
L 295.537384 -139.965535 
L 295.582752 -140.863043 
L 295.60962 -141.76055 
L 295.624572 -142.658058 
L 295.63385 -143.555565 
L 295.642209 -144.453072 
L 295.653518 -145.35058 
L 295.672014 -146.248087 
L 295.702334 -147.145595 
L 295.747678 -148.043102 
L 295.807415 -148.94061 
L 295.876226 -149.838117 
L 295.945728 -150.735625 
L 296.00763 -151.633132 
L 296.056531 -152.530639 
L 296.090968 -153.428147 
L 296.181032 -153.428147 
L 296.181032 -153.428147 
L 296.215469 -152.530639 
L 296.26437 -151.633132 
L 296.326272 -150.735625 
L 296.395774 -149.838117 
L 296.464585 -148.94061 
L 296.524322 -148.043102 
L 296.569666 -147.145595 
L 296.599986 -146.248087 
L 296.618482 -145.35058 
L 296.629791 -144.453072 
L 296.63815 -143.555565 
L 296.647428 -142.658058 
L 296.66238 -141.76055 
L 296.689248 -140.863043 
L 296.734616 -139.965535 
L 296.803373 -139.068028 
L 296.897712 -138.17052 
L 297.018172 -137.273013 
L 297.165738 -136.375505 
L 297.343018 -135.477998 
L 297.553505 -134.580491 
L 297.799815 -133.682983 
L 298.0827 -132.785476 
L 298.401766 -131.887968 
L 298.757205 -130.990461 
L 299.151152 -130.092953 
L 299.587904 -129.195446 
L 300.07315 -128.297938 
L 300.612747 -127.400431 
L 301.211715 -126.502924 
L 301.874723 -125.605416 
L 302.610129 -124.707909 
L 303.439139 -123.810401 
L 304.408977 -122.912894 
L 305.60511 -122.015386 
L 307.15511 -121.117879 
L 309.218088 -120.220372 
L 311.958976 -119.322864 
L 315.513223 -118.425357 
L 319.950289 -117.527849 
L 325.242117 -116.630342 
L 331.238797 -115.732834 
L 337.654021 -114.835327 
L 344.068738 -113.937819 
L 349.965733 -113.040312 
L 354.801204 -112.142805 
L 358.101271 -111.245297 
L 359.5536 -110.34779 
L 359.06205 -109.450282 
L 356.748376 -108.552775 
L 352.908017 -107.655267 
L 347.941603 -106.75776 
L 342.285071 -105.860252 
L 336.354411 -104.962745 
L 330.512367 -104.065238 
L 325.055632 -103.16773 
L 320.212989 -102.270223 
L 316.141933 -101.372715 
L 312.917697 -100.475208 
L 310.521071 -99.5777 
L 308.839748 -98.680193 
L 307.693762 -97.782685 
L 306.881046 -96.885178 
L 306.225376 -95.987671 
L 305.606618 -95.090163 
L 304.964065 -94.192656 
L 304.279389 -93.295148 
L 303.555131 -92.397641 
L 302.801904 -91.500133 
L 302.036654 -90.602626 
L 301.285138 -89.705119 
L 300.580951 -88.807611 
L 299.959317 -87.910104 
L 299.449334 -87.012596 
L 299.068468 -86.115089 
L 298.81965 -85.217581 
L 298.68939 -84.320074 
L 298.647143 -83.422566 
L 298.648911 -82.525059 
L 298.647455 -81.627552 
L 298.607028 -80.730044 
L 298.515809 -79.832537 
L 298.388587 -78.935029 
L 298.257073 -78.037522 
L 298.152337 -77.140014 
L 298.08859 -76.242507 
L 298.056565 -75.344999 
L 298.028908 -74.447492 
L 297.973263 -73.549985 
L 297.865578 -72.652477 
L 297.697809 -71.75497 
L 297.478531 -70.857462 
L 297.228392 -69.959955 
L 296.973339 -69.062447 
L 296.737896 -68.16494 
L 296.539962 -67.267432 
L 296.388103 -66.369925 
L 296.281759 -65.472418 
L 296.213829 -64.57491 
z
" style="stroke: #595959; stroke-width: 1.25"/>
    </defs>
    <g clip-path="url(#p1910f59a04)">
     <use xlink:href="#mcf4a9ee5dc" x="0" y="432" style="fill: #e99675; stroke: #595959; stroke-width: 1.25"/>
    </g>
   </g>
   <g id="PolyCollection_3">
    <defs>
     <path id="mb42e880206" d="M 454.734578 -131.931159 
L 454.625422 -131.931159 
L 454.585888 -134.514618 
L 454.529495 -137.098078 
L 454.456174 -139.681537 
L 454.369292 -142.264996 
L 454.275354 -144.848456 
L 454.18233 -147.431915 
L 454.097241 -150.015375 
L 454.024149 -152.598834 
L 453.963439 -155.182293 
L 453.912354 -157.765753 
L 453.865837 -160.349212 
L 453.816585 -162.932671 
L 453.753977 -165.516131 
L 453.662751 -168.09959 
L 453.52308 -170.683049 
L 453.31344 -173.266509 
L 453.016329 -175.849968 
L 452.624859 -178.433428 
L 452.146693 -181.016887 
L 451.601882 -183.600346 
L 451.013545 -186.183806 
L 450.394154 -188.767265 
L 449.733373 -191.350724 
L 448.993657 -193.934184 
L 448.116539 -196.517643 
L 447.037317 -199.101103 
L 445.701632 -201.684562 
L 444.07677 -204.268021 
L 442.153462 -206.851481 
L 439.938761 -209.43494 
L 437.444114 -212.018399 
L 434.673365 -214.601859 
L 431.61348 -217.185318 
L 428.228968 -219.768777 
L 424.462331 -222.352237 
L 420.247339 -224.935696 
L 415.544814 -227.519156 
L 410.404079 -230.102615 
L 405.034313 -232.686074 
L 399.847471 -235.269534 
L 395.427397 -237.852993 
L 392.404024 -240.436452 
L 391.2624 -243.019912 
L 392.164593 -245.603371 
L 394.872659 -248.186831 
L 398.818706 -250.77029 
L 403.295268 -253.353749 
L 407.679868 -255.937209 
L 411.597035 -258.520668 
L 414.961772 -261.104127 
L 417.911391 -263.687587 
L 420.679927 -266.271046 
L 423.479148 -268.854505 
L 426.427039 -271.437965 
L 429.530231 -274.021424 
L 432.703146 -276.604884 
L 435.802093 -279.188343 
L 438.661262 -281.771802 
L 441.127027 -284.355262 
L 443.089319 -286.938721 
L 444.505274 -289.52218 
L 445.407837 -292.10564 
L 445.895497 -294.689099 
L 446.107154 -297.272558 
L 446.191983 -299.856018 
L 446.283684 -302.439477 
L 446.482967 -305.022937 
L 446.847113 -307.606396 
L 447.384996 -310.189855 
L 448.058933 -312.773315 
L 448.796449 -315.356774 
L 449.512122 -317.940233 
L 450.133661 -320.523693 
L 450.622437 -323.107152 
L 450.98041 -325.690612 
L 451.242033 -328.274071 
L 451.456645 -330.85753 
L 451.669864 -333.44099 
L 451.910736 -336.024449 
L 452.187121 -338.607908 
L 452.488119 -341.191368 
L 452.790678 -343.774827 
L 453.067687 -346.358286 
L 453.295572 -348.941746 
L 453.460077 -351.525205 
L 453.559366 -354.108665 
L 453.604063 -356.692124 
L 453.614521 -359.275583 
L 453.616026 -361.859043 
L 453.632998 -364.442502 
L 453.683361 -367.025961 
L 453.774479 -369.609421 
L 453.901948 -372.19288 
L 454.051828 -374.77634 
L 454.205611 -377.359799 
L 454.345992 -379.943258 
L 454.461275 -382.526718 
L 454.547019 -385.110177 
L 454.605037 -387.693636 
L 454.754963 -387.693636 
L 454.754963 -387.693636 
L 454.812981 -385.110177 
L 454.898725 -382.526718 
L 455.014008 -379.943258 
L 455.154389 -377.359799 
L 455.308172 -374.77634 
L 455.458052 -372.19288 
L 455.585521 -369.609421 
L 455.676639 -367.025961 
L 455.727002 -364.442502 
L 455.743974 -361.859043 
L 455.745479 -359.275583 
L 455.755937 -356.692124 
L 455.800634 -354.108665 
L 455.899923 -351.525205 
L 456.064428 -348.941746 
L 456.292313 -346.358286 
L 456.569322 -343.774827 
L 456.871881 -341.191368 
L 457.172879 -338.607908 
L 457.449264 -336.024449 
L 457.690136 -333.44099 
L 457.903355 -330.85753 
L 458.117967 -328.274071 
L 458.37959 -325.690612 
L 458.737563 -323.107152 
L 459.226339 -320.523693 
L 459.847878 -317.940233 
L 460.563551 -315.356774 
L 461.301067 -312.773315 
L 461.975004 -310.189855 
L 462.512887 -307.606396 
L 462.877033 -305.022937 
L 463.076316 -302.439477 
L 463.168017 -299.856018 
L 463.252846 -297.272558 
L 463.464503 -294.689099 
L 463.952163 -292.10564 
L 464.854726 -289.52218 
L 466.270681 -286.938721 
L 468.232973 -284.355262 
L 470.698738 -281.771802 
L 473.557907 -279.188343 
L 476.656854 -276.604884 
L 479.829769 -274.021424 
L 482.932961 -271.437965 
L 485.880852 -268.854505 
L 488.680073 -266.271046 
L 491.448609 -263.687587 
L 494.398228 -261.104127 
L 497.762965 -258.520668 
L 501.680132 -255.937209 
L 506.064732 -253.353749 
L 510.541294 -250.77029 
L 514.487341 -248.186831 
L 517.195407 -245.603371 
L 518.0976 -243.019912 
L 516.955976 -240.436452 
L 513.932603 -237.852993 
L 509.512529 -235.269534 
L 504.325687 -232.686074 
L 498.955921 -230.102615 
L 493.815186 -227.519156 
L 489.112661 -224.935696 
L 484.897669 -222.352237 
L 481.131032 -219.768777 
L 477.74652 -217.185318 
L 474.686635 -214.601859 
L 471.915886 -212.018399 
L 469.421239 -209.43494 
L 467.206538 -206.851481 
L 465.28323 -204.268021 
L 463.658368 -201.684562 
L 462.322683 -199.101103 
L 461.243461 -196.517643 
L 460.366343 -193.934184 
L 459.626627 -191.350724 
L 458.965846 -188.767265 
L 458.346455 -186.183806 
L 457.758118 -183.600346 
L 457.213307 -181.016887 
L 456.735141 -178.433428 
L 456.343671 -175.849968 
L 456.04656 -173.266509 
L 455.83692 -170.683049 
L 455.697249 -168.09959 
L 455.606023 -165.516131 
L 455.543415 -162.932671 
L 455.494163 -160.349212 
L 455.447646 -157.765753 
L 455.396561 -155.182293 
L 455.335851 -152.598834 
L 455.262759 -150.015375 
L 455.17767 -147.431915 
L 455.084646 -144.848456 
L 454.990708 -142.264996 
L 454.903826 -139.681537 
L 454.830505 -137.098078 
L 454.774112 -134.514618 
L 454.734578 -131.931159 
z
" style="stroke: #595959; stroke-width: 1.25"/>
    </defs>
    <g clip-path="url(#p1910f59a04)">
     <use xlink:href="#mb42e880206" x="0" y="432" style="fill: #95a3c3; stroke: #595959; stroke-width: 1.25"/>
    </g>
   </g>
   <g id="PolyCollection_4">
    <defs>
     <path id="maa86edc0b0" d="M 613.420889 -61.331559 
L 613.027111 -61.331559 
L 612.899802 -62.297236 
L 612.713898 -63.262912 
L 612.456396 -64.228589 
L 612.118151 -65.194266 
L 611.696955 -66.159942 
L 611.200013 -67.125619 
L 610.644993 -68.091296 
L 610.059084 -69.056972 
L 609.476046 -70.022649 
L 608.931853 -70.988326 
L 608.459907 -71.954002 
L 608.086866 -72.919679 
L 607.829795 -73.885356 
L 607.694907 -74.851033 
L 607.677732 -75.816709 
L 607.764428 -76.782386 
L 607.933963 -77.748063 
L 608.161003 -78.713739 
L 608.419291 -79.679416 
L 608.685114 -80.645093 
L 608.940259 -81.610769 
L 609.173718 -82.576446 
L 609.381647 -83.542123 
L 609.565484 -84.507799 
L 609.728677 -85.473476 
L 609.872918 -86.439153 
L 609.994963 -87.404829 
L 610.084966 -88.370506 
L 610.126897 -89.336183 
L 610.101037 -90.301859 
L 609.988009 -91.267536 
L 609.773419 -92.233213 
L 609.452003 -93.198889 
L 609.030317 -94.164566 
L 608.52736 -95.130243 
L 607.973048 -96.095919 
L 607.404868 -97.061596 
L 606.863294 -98.027273 
L 606.38657 -98.992949 
L 606.005208 -99.958626 
L 605.736424 -100.924303 
L 605.578747 -101.889979 
L 605.507291 -102.855656 
L 605.4706 -103.821333 
L 605.390172 -104.787009 
L 605.163504 -105.752686 
L 604.670828 -106.718363 
L 603.784786 -107.684039 
L 602.381692 -108.649716 
L 600.353055 -109.615393 
L 597.616667 -110.581069 
L 594.127495 -111.546746 
L 589.888957 -112.512423 
L 584.964675 -113.478099 
L 579.489131 -114.443776 
L 573.673834 -115.409453 
L 567.804406 -116.37513 
L 562.224761 -117.340806 
L 557.307315 -118.306483 
L 553.412282 -119.27216 
L 550.843024 -120.237836 
L 549.8064 -121.203513 
L 550.386203 -122.16919 
L 552.534566 -123.134866 
L 556.081791 -124.100543 
L 560.761249 -125.06622 
L 566.243743 -126.031896 
L 572.175286 -126.997573 
L 578.213 -127.96325 
L 584.055095 -128.928926 
L 589.462196 -129.894603 
L 594.268585 -130.86028 
L 598.383342 -131.825956 
L 601.782842 -132.791633 
L 604.497278 -133.75731 
L 606.594471 -134.722986 
L 608.163969 -135.688663 
L 609.303541 -136.65434 
L 610.10897 -137.620016 
L 610.667124 -138.585693 
L 611.051781 -139.55137 
L 611.321655 -140.517046 
L 611.520247 -141.482723 
L 611.677256 -142.4484 
L 611.811203 -143.414076 
L 611.932703 -144.379753 
L 612.047646 -145.34543 
L 612.159609 -146.311106 
L 612.271124 -147.276783 
L 612.383877 -148.24246 
L 612.498301 -149.208136 
L 612.613143 -150.173813 
L 612.725489 -151.13949 
L 612.831346 -152.105166 
L 612.926614 -153.070843 
L 613.00807 -154.03652 
L 613.074038 -155.002196 
L 613.124557 -155.967873 
L 613.161119 -156.93355 
L 613.286881 -156.93355 
L 613.286881 -156.93355 
L 613.323443 -155.967873 
L 613.373962 -155.002196 
L 613.43993 -154.03652 
L 613.521386 -153.070843 
L 613.616654 -152.105166 
L 613.722511 -151.13949 
L 613.834857 -150.173813 
L 613.949699 -149.208136 
L 614.064123 -148.24246 
L 614.176876 -147.276783 
L 614.288391 -146.311106 
L 614.400354 -145.34543 
L 614.515297 -144.379753 
L 614.636797 -143.414076 
L 614.770744 -142.4484 
L 614.927753 -141.482723 
L 615.126345 -140.517046 
L 615.396219 -139.55137 
L 615.780876 -138.585693 
L 616.33903 -137.620016 
L 617.144459 -136.65434 
L 618.284031 -135.688663 
L 619.853529 -134.722986 
L 621.950722 -133.75731 
L 624.665158 -132.791633 
L 628.064658 -131.825956 
L 632.179415 -130.86028 
L 636.985804 -129.894603 
L 642.392905 -128.928926 
L 648.235 -127.96325 
L 654.272714 -126.997573 
L 660.204257 -126.031896 
L 665.686751 -125.06622 
L 670.366209 -124.100543 
L 673.913434 -123.134866 
L 676.061797 -122.16919 
L 676.6416 -121.203513 
L 675.604976 -120.237836 
L 673.035718 -119.27216 
L 669.140685 -118.306483 
L 664.223239 -117.340806 
L 658.643594 -116.37513 
L 652.774166 -115.409453 
L 646.958869 -114.443776 
L 641.483325 -113.478099 
L 636.559043 -112.512423 
L 632.320505 -111.546746 
L 628.831333 -110.581069 
L 626.094945 -109.615393 
L 624.066308 -108.649716 
L 622.663214 -107.684039 
L 621.777172 -106.718363 
L 621.284496 -105.752686 
L 621.057828 -104.787009 
L 620.9774 -103.821333 
L 620.940709 -102.855656 
L 620.869253 -101.889979 
L 620.711576 -100.924303 
L 620.442792 -99.958626 
L 620.06143 -98.992949 
L 619.584706 -98.027273 
L 619.043132 -97.061596 
L 618.474952 -96.095919 
L 617.92064 -95.130243 
L 617.417683 -94.164566 
L 616.995997 -93.198889 
L 616.674581 -92.233213 
L 616.459991 -91.267536 
L 616.346963 -90.301859 
L 616.321103 -89.336183 
L 616.363034 -88.370506 
L 616.453037 -87.404829 
L 616.575082 -86.439153 
L 616.719323 -85.473476 
L 616.882516 -84.507799 
L 617.066353 -83.542123 
L 617.274282 -82.576446 
L 617.507741 -81.610769 
L 617.762886 -80.645093 
L 618.028709 -79.679416 
L 618.286997 -78.713739 
L 618.514037 -77.748063 
L 618.683572 -76.782386 
L 618.770268 -75.816709 
L 618.753093 -74.851033 
L 618.618205 -73.885356 
L 618.361134 -72.919679 
L 617.988093 -71.954002 
L 617.516147 -70.988326 
L 616.971954 -70.022649 
L 616.388916 -69.056972 
L 615.803007 -68.091296 
L 615.247987 -67.125619 
L 614.751045 -66.159942 
L 614.329849 -65.194266 
L 613.991604 -64.228589 
L 613.734102 -63.262912 
L 613.548198 -62.297236 
L 613.420889 -61.331559 
z
" style="stroke: #595959; stroke-width: 1.25"/>
    </defs>
    <g clip-path="url(#p1910f59a04)">
     <use xlink:href="#maa86edc0b0" x="0" y="432" style="fill: #db96c0; stroke: #595959; stroke-width: 1.25"/>
    </g>
   </g>
   <g id="PolyCollection_5">
    <defs>
     <path id="m3cbbf11462" d="M 771.826542 -62.162547 
L 771.709458 -62.162547 
L 771.656957 -62.983057 
L 771.577177 -63.803567 
L 771.470661 -64.624077 
L 771.347537 -65.444587 
L 771.227883 -66.265097 
L 771.136818 -67.085608 
L 771.095139 -67.906118 
L 771.109508 -68.726628 
L 771.167429 -69.547138 
L 771.240302 -70.367648 
L 771.293914 -71.188158 
L 771.302213 -72.008668 
L 771.258611 -72.829178 
L 771.179754 -73.649688 
L 771.099189 -74.470198 
L 771.052556 -75.290708 
L 771.060427 -76.111218 
L 771.117003 -76.931728 
L 771.190266 -77.752239 
L 771.233138 -78.572749 
L 771.199897 -79.393259 
L 771.060733 -80.213769 
L 770.80927 -81.034279 
L 770.460985 -81.854789 
L 770.043748 -82.675299 
L 769.585339 -83.495809 
L 769.105145 -84.316319 
L 768.615104 -85.136829 
L 768.1281 -85.957339 
L 767.665384 -86.777849 
L 767.254661 -87.598359 
L 766.9179 -88.41887 
L 766.656762 -89.23938 
L 766.446413 -90.05989 
L 766.243313 -90.8804 
L 766.004001 -91.70091 
L 765.70603 -92.52142 
L 765.360938 -93.34193 
L 765.010988 -94.16244 
L 764.705897 -94.98295 
L 764.464856 -95.80346 
L 764.24057 -96.62397 
L 763.905971 -97.44448 
L 763.272232 -98.26499 
L 762.125494 -99.085501 
L 760.258828 -99.906011 
L 757.488219 -100.726521 
L 753.666369 -101.547031 
L 748.719312 -102.367541 
L 742.712085 -103.188051 
L 735.913249 -104.008561 
L 728.806967 -104.829071 
L 722.02023 -105.649581 
L 716.184386 -106.470091 
L 711.796648 -107.290601 
L 709.14977 -108.111111 
L 708.3504 -108.931621 
L 709.384712 -109.752132 
L 712.164597 -110.572642 
L 716.519455 -111.393152 
L 722.157726 -112.213662 
L 728.654898 -113.034172 
L 735.503541 -113.854682 
L 742.208704 -114.675192 
L 748.377137 -115.495702 
L 753.758029 -116.316212 
L 758.231337 -117.136722 
L 761.771058 -117.957232 
L 764.413498 -118.777742 
L 766.242066 -119.598252 
L 767.381809 -120.418762 
L 767.991973 -121.239273 
L 768.250552 -122.059783 
L 768.33194 -122.880293 
L 768.38272 -123.700803 
L 768.50202 -124.521313 
L 768.732793 -125.341823 
L 769.067318 -126.162333 
L 769.464132 -126.982843 
L 769.868206 -127.803353 
L 770.226668 -128.623863 
L 770.498242 -129.444373 
L 770.659854 -130.264883 
L 770.712917 -131.085393 
L 770.68618 -131.905904 
L 770.629102 -132.726414 
L 770.594285 -133.546924 
L 770.616628 -134.367434 
L 770.70156 -135.187944 
L 770.829499 -136.008454 
L 770.972228 -136.828964 
L 771.109044 -137.649474 
L 771.232794 -138.469984 
L 771.345236 -139.290494 
L 771.44878 -140.111004 
L 771.541868 -140.931514 
L 771.620002 -141.752024 
L 771.679459 -142.572535 
L 771.719905 -143.393045 
L 771.816095 -143.393045 
L 771.816095 -143.393045 
L 771.856541 -142.572535 
L 771.915998 -141.752024 
L 771.994132 -140.931514 
L 772.08722 -140.111004 
L 772.190764 -139.290494 
L 772.303206 -138.469984 
L 772.426956 -137.649474 
L 772.563772 -136.828964 
L 772.706501 -136.008454 
L 772.83444 -135.187944 
L 772.919372 -134.367434 
L 772.941715 -133.546924 
L 772.906898 -132.726414 
L 772.84982 -131.905904 
L 772.823083 -131.085393 
L 772.876146 -130.264883 
L 773.037758 -129.444373 
L 773.309332 -128.623863 
L 773.667794 -127.803353 
L 774.071868 -126.982843 
L 774.468682 -126.162333 
L 774.803207 -125.341823 
L 775.03398 -124.521313 
L 775.15328 -123.700803 
L 775.20406 -122.880293 
L 775.285448 -122.059783 
L 775.544027 -121.239273 
L 776.154191 -120.418762 
L 777.293934 -119.598252 
L 779.122502 -118.777742 
L 781.764942 -117.957232 
L 785.304663 -117.136722 
L 789.777971 -116.316212 
L 795.158863 -115.495702 
L 801.327296 -114.675192 
L 808.032459 -113.854682 
L 814.881102 -113.034172 
L 821.378274 -112.213662 
L 827.016545 -111.393152 
L 831.371403 -110.572642 
L 834.151288 -109.752132 
L 835.1856 -108.931621 
L 834.38623 -108.111111 
L 831.739352 -107.290601 
L 827.351614 -106.470091 
L 821.51577 -105.649581 
L 814.729033 -104.829071 
L 807.622751 -104.008561 
L 800.823915 -103.188051 
L 794.816688 -102.367541 
L 789.869631 -101.547031 
L 786.047781 -100.726521 
L 783.277172 -99.906011 
L 781.410506 -99.085501 
L 780.263768 -98.26499 
L 779.630029 -97.44448 
L 779.29543 -96.62397 
L 779.071144 -95.80346 
L 778.830103 -94.98295 
L 778.525012 -94.16244 
L 778.175062 -93.34193 
L 777.82997 -92.52142 
L 777.531999 -91.70091 
L 777.292687 -90.8804 
L 777.089587 -90.05989 
L 776.879238 -89.23938 
L 776.6181 -88.41887 
L 776.281339 -87.598359 
L 775.870616 -86.777849 
L 775.4079 -85.957339 
L 774.920896 -85.136829 
L 774.430855 -84.316319 
L 773.950661 -83.495809 
L 773.492252 -82.675299 
L 773.075015 -81.854789 
L 772.72673 -81.034279 
L 772.475267 -80.213769 
L 772.336103 -79.393259 
L 772.302862 -78.572749 
L 772.345734 -77.752239 
L 772.418997 -76.931728 
L 772.475573 -76.111218 
L 772.483444 -75.290708 
L 772.436811 -74.470198 
L 772.356246 -73.649688 
L 772.277389 -72.829178 
L 772.233787 -72.008668 
L 772.242086 -71.188158 
L 772.295698 -70.367648 
L 772.368571 -69.547138 
L 772.426492 -68.726628 
L 772.440861 -67.906118 
L 772.399182 -67.085608 
L 772.308117 -66.265097 
L 772.188463 -65.444587 
L 772.065339 -64.624077 
L 771.958823 -63.803567 
L 771.879043 -62.983057 
L 771.826542 -62.162547 
z
" style="stroke: #595959; stroke-width: 1.25"/>
    </defs>
    <g clip-path="url(#p1910f59a04)">
     <use xlink:href="#m3cbbf11462" x="0" y="432" style="fill: #a2c865; stroke: #595959; stroke-width: 1.25"/>
    </g>
   </g>
   <g id="line2d_7">
    <path d="M 137.592 342.390312 
L 137.592 366.237035 
" clip-path="url(#p1910f59a04)" style="fill: none; stroke: #000000"/>
   </g>
   <g id="line2d_8">
    <path d="M 137.592 313.826655 
L 137.592 281.594271 
" clip-path="url(#p1910f59a04)" style="fill: none; stroke: #000000"/>
   </g>
   <g id="line2d_9">
    <path d="M 131.6466 366.237035 
L 143.5374 366.237035 
" clip-path="url(#p1910f59a04)" style="fill: none; stroke: #000000; stroke-linecap: round"/>
   </g>
   <g id="line2d_10">
    <path d="M 131.6466 281.594271 
L 143.5374 281.594271 
" clip-path="url(#p1910f59a04)" style="fill: none; stroke: #000000; stroke-linecap: round"/>
   </g>
   <g id="line2d_11">
    <path d="M 296.136 326.601685 
L 296.136 337.804404 
" clip-path="url(#p1910f59a04)" style="fill: none; stroke: #000000"/>
   </g>
   <g id="line2d_12">
    <path d="M 296.136 318.936667 
L 296.136 307.930487 
" clip-path="url(#p1910f59a04)" style="fill: none; stroke: #000000"/>
   </g>
   <g id="line2d_13">
    <path d="M 290.1906 337.804404 
L 302.0814 337.804404 
" clip-path="url(#p1910f59a04)" style="fill: none; stroke: #000000; stroke-linecap: round"/>
   </g>
   <g id="line2d_14">
    <path d="M 290.1906 307.930487 
L 302.0814 307.930487 
" clip-path="url(#p1910f59a04)" style="fill: none; stroke: #000000; stroke-linecap: round"/>
   </g>
   <g id="line2d_15">
    <path d="M 454.68 198.261767 
L 454.68 244.382901 
" clip-path="url(#p1910f59a04)" style="fill: none; stroke: #000000"/>
   </g>
   <g id="line2d_16">
    <path d="M 454.68 167.339642 
L 454.68 121.218508 
" clip-path="url(#p1910f59a04)" style="fill: none; stroke: #000000"/>
   </g>
   <g id="line2d_17">
    <path d="M 448.7346 244.382901 
L 460.6254 244.382901 
" clip-path="url(#p1910f59a04)" style="fill: none; stroke: #000000; stroke-linecap: round"/>
   </g>
   <g id="line2d_18">
    <path d="M 448.7346 121.218508 
L 460.6254 121.218508 
" clip-path="url(#p1910f59a04)" style="fill: none; stroke: #000000; stroke-linecap: round"/>
   </g>
   <g id="line2d_19">
    <path d="M 613.224 316.709226 
L 613.224 329.418743 
" clip-path="url(#p1910f59a04)" style="fill: none; stroke: #000000"/>
   </g>
   <g id="line2d_20">
    <path d="M 613.224 308.061513 
L 613.224 295.351996 
" clip-path="url(#p1910f59a04)" style="fill: none; stroke: #000000"/>
   </g>
   <g id="line2d_21">
    <path d="M 607.2786 329.418743 
L 619.1694 329.418743 
" clip-path="url(#p1910f59a04)" style="fill: none; stroke: #000000; stroke-linecap: round"/>
   </g>
   <g id="line2d_22">
    <path d="M 607.2786 295.351996 
L 619.1694 295.351996 
" clip-path="url(#p1910f59a04)" style="fill: none; stroke: #000000; stroke-linecap: round"/>
   </g>
   <g id="line2d_23">
    <path d="M 771.768 326.667198 
L 771.768 336.101067 
" clip-path="url(#p1910f59a04)" style="fill: none; stroke: #000000"/>
   </g>
   <g id="line2d_24">
    <path d="M 771.768 320.377952 
L 771.768 311.337162 
" clip-path="url(#p1910f59a04)" style="fill: none; stroke: #000000"/>
   </g>
   <g id="line2d_25">
    <path d="M 765.8226 336.101067 
L 777.7134 336.101067 
" clip-path="url(#p1910f59a04)" style="fill: none; stroke: #000000; stroke-linecap: round"/>
   </g>
   <g id="line2d_26">
    <path d="M 765.8226 311.337162 
L 777.7134 311.337162 
" clip-path="url(#p1910f59a04)" style="fill: none; stroke: #000000; stroke-linecap: round"/>
   </g>
   <g id="line2d_27">
    <path d="M 125.7012 321.033082 
L 149.4828 321.033082 
" clip-path="url(#p1910f59a04)" style="fill: none; stroke: #ff0000; stroke-width: 2"/>
   </g>
   <g id="line2d_28">
    <path d="M 284.2452 322.212316 
L 308.0268 322.212316 
" clip-path="url(#p1910f59a04)" style="fill: none; stroke: #ff0000; stroke-width: 2"/>
   </g>
   <g id="line2d_29">
    <path d="M 442.7892 187.255587 
L 466.5708 187.255587 
" clip-path="url(#p1910f59a04)" style="fill: none; stroke: #ff0000; stroke-width: 2"/>
   </g>
   <g id="line2d_30">
    <path d="M 601.3332 311.73024 
L 625.1148 311.73024 
" clip-path="url(#p1910f59a04)" style="fill: none; stroke: #ff0000; stroke-width: 2"/>
   </g>
   <g id="line2d_31">
    <path d="M 759.8772 323.588088 
L 783.6588 323.588088 
" clip-path="url(#p1910f59a04)" style="fill: none; stroke: #ff0000; stroke-width: 2"/>
   </g>
   <g id="patch_3">
    <path d="M 58.32 395.14 
L 58.32 27.6 
" style="fill: none; stroke: #cccccc; stroke-width: 1.25; stroke-linejoin: miter; stroke-linecap: square"/>
   </g>
   <g id="patch_4">
    <path d="M 851.04 395.14 
L 851.04 27.6 
" style="fill: none; stroke: #cccccc; stroke-width: 1.25; stroke-linejoin: miter; stroke-linecap: square"/>
   </g>
   <g id="patch_5">
    <path d="M 58.32 395.14 
L 851.04 395.14 
" style="fill: none; stroke: #cccccc; stroke-width: 1.25; stroke-linejoin: miter; stroke-linecap: square"/>
   </g>
   <g id="patch_6">
    <path d="M 58.32 27.6 
L 851.04 27.6 
" style="fill: none; stroke: #cccccc; stroke-width: 1.25; stroke-linejoin: miter; stroke-linecap: square"/>
   </g>
   <g id="text_13">
    <!-- Handshake duration on TLS with mldsa44 signature algorithm — Backbone (200ms/4%) -->
    <g style="fill: #262626" transform="translate(190.830937 21.6) scale(0.12 -0.12)">
     <defs>
      <path id="DejaVuSans-54" d="M -19 4666 
L 3928 4666 
L 3928 4134 
L 2272 4134 
L 2272 0 
L 1638 0 
L 1638 4134 
L -19 4134 
L -19 4666 
z
" transform="scale(0.015625)"/>
      <path id="DejaVuSans-4c" d="M 628 4666 
L 1259 4666 
L 1259 531 
L 3531 531 
L 3531 0 
L 628 0 
L 628 4666 
z
" transform="scale(0.015625)"/>
      <path id="DejaVuSans-53" d="M 3425 4513 
L 3425 3897 
Q 3066 4069 2747 4153 
Q 2428 4238 2131 4238 
Q 1616 4238 1336 4038 
Q 1056 3838 1056 3469 
Q 1056 3159 1242 3001 
Q 1428 2844 1947 2747 
L 2328 2669 
Q 3034 2534 3370 2195 
Q 3706 1856 3706 1288 
Q 3706 609 3251 259 
Q 2797 -91 1919 -91 
Q 1588 -91 1214 -16 
Q 841 59 441 206 
L 441 856 
Q 825 641 1194 531 
Q 1563 422 1919 422 
Q 2459 422 2753 634 
Q 3047 847 3047 1241 
Q 3047 1584 2836 1778 
Q 2625 1972 2144 2069 
L 1759 2144 
Q 1053 2284 737 2584 
Q 422 2884 422 3419 
Q 422 4038 858 4394 
Q 1294 4750 2059 4750 
Q 2388 4750 2728 4690 
Q 3069 4631 3425 4513 
z
" transform="scale(0.015625)"/>
      <path id="DejaVuSans-77" d="M 269 3500 
L 844 3500 
L 1563 769 
L 2278 3500 
L 2956 3500 
L 3675 769 
L 4391 3500 
L 4966 3500 
L 4050 0 
L 3372 0 
L 2619 2869 
L 1863 0 
L 1184 0 
L 269 3500 
z
" transform="scale(0.015625)"/>
      <path id="DejaVuSans-34" d="M 2419 4116 
L 825 1625 
L 2419 1625 
L 2419 4116 
z
M 2253 4666 
L 3047 4666 
L 3047 1625 
L 3713 1625 
L 3713 1100 
L 3047 1100 
L 3047 0 
L 2419 0 
L 2419 1100 
L 313 1100 
L 313 1709 
L 2253 4666 
z
" transform="scale(0.015625)"/>
      <path id="DejaVuSans-67" d="M 2906 1791 
Q 2906 2416 2648 2759 
Q 2391 3103 1925 3103 
Q 1463 3103 1205 2759 
Q 947 2416 947 1791 
Q 947 1169 1205 825 
Q 1463 481 1925 481 
Q 2391 481 2648 825 
Q 2906 1169 2906 1791 
z
M 3481 434 
Q 3481 -459 3084 -895 
Q 2688 -1331 1869 -1331 
Q 1566 -1331 1297 -1286 
Q 1028 -1241 775 -1147 
L 775 -588 
Q 1028 -725 1275 -790 
Q 1522 -856 1778 -856 
Q 2344 -856 2625 -561 
Q 2906 -266 2906 331 
L 2906 616 
Q 2728 306 2450 153 
Q 2172 0 1784 0 
Q 1141 0 747 490 
Q 353 981 353 1791 
Q 353 2603 747 3093 
Q 1141 3584 1784 3584 
Q 2172 3584 2450 3431 
Q 2728 3278 2906 2969 
L 2906 3500 
L 3481 3500 
L 3481 434 
z
" transform="scale(0.015625)"/>
      <path id="DejaVuSans-2014" d="M 313 1978 
L 6088 1978 
L 6088 1528 
L 313 1528 
L 313 1978 
z
" transform="scale(0.015625)"/>
      <path id="DejaVuSans-42" d="M 1259 2228 
L 1259 519 
L 2272 519 
Q 2781 519 3026 730 
Q 3272 941 3272 1375 
Q 3272 1813 3026 2020 
Q 2781 2228 2272 2228 
L 1259 2228 
z
M 1259 4147 
L 1259 2741 
L 2194 2741 
Q 2656 2741 2882 2914 
Q 3109 3088 3109 3444 
Q 3109 3797 2882 3972 
Q 2656 4147 2194 4147 
L 1259 4147 
z
M 628 4666 
L 2241 4666 
Q 2963 4666 3353 4366 
Q 3744 4066 3744 3513 
Q 3744 3084 3544 2831 
Q 3344 2578 2956 2516 
Q 3422 2416 3680 2098 
Q 3938 1781 3938 1306 
Q 3938 681 3513 340 
Q 3088 0 2303 0 
L 628 0 
L 628 4666 
z
" transform="scale(0.015625)"/>
      <path id="DejaVuSans-63" d="M 3122 3366 
L 3122 2828 
Q 2878 2963 2633 3030 
Q 2388 3097 2138 3097 
Q 1578 3097 1268 2742 
Q 959 2388 959 1747 
Q 959 1106 1268 751 
Q 1578 397 2138 397 
Q 2388 397 2633 464 
Q 2878 531 3122 666 
L 3122 134 
Q 2881 22 2623 -34 
Q 2366 -91 2075 -91 
Q 1284 -91 818 406 
Q 353 903 353 1747 
Q 353 2603 823 3093 
Q 1294 3584 2113 3584 
Q 2378 3584 2631 3529 
Q 2884 3475 3122 3366 
z
" transform="scale(0.015625)"/>
      <path id="DejaVuSans-62" d="M 3116 1747 
Q 3116 2381 2855 2742 
Q 2594 3103 2138 3103 
Q 1681 3103 1420 2742 
Q 1159 2381 1159 1747 
Q 1159 1113 1420 752 
Q 1681 391 2138 391 
Q 2594 391 2855 752 
Q 3116 1113 3116 1747 
z
M 1159 2969 
Q 1341 3281 1617 3432 
Q 1894 3584 2278 3584 
Q 2916 3584 3314 3078 
Q 3713 2572 3713 1747 
Q 3713 922 3314 415 
Q 2916 -91 2278 -91 
Q 1894 -91 1617 61 
Q 1341 213 1159 525 
L 1159 0 
L 581 0 
L 581 4863 
L 1159 4863 
L 1159 2969 
z
" transform="scale(0.015625)"/>
      <path id="DejaVuSans-2f" d="M 1625 4666 
L 2156 4666 
L 531 -594 
L 0 -594 
L 1625 4666 
z
" transform="scale(0.015625)"/>
      <path id="DejaVuSans-25" d="M 4653 2053 
Q 4381 2053 4226 1822 
Q 4072 1591 4072 1178 
Q 4072 772 4226 539 
Q 4381 306 4653 306 
Q 4919 306 5073 539 
Q 5228 772 5228 1178 
Q 5228 1588 5073 1820 
Q 4919 2053 4653 2053 
z
M 4653 2450 
Q 5147 2450 5437 2106 
Q 5728 1763 5728 1178 
Q 5728 594 5436 251 
Q 5144 -91 4653 -91 
Q 4153 -91 3862 251 
Q 3572 594 3572 1178 
Q 3572 1766 3864 2108 
Q 4156 2450 4653 2450 
z
M 1428 4353 
Q 1159 4353 1004 4120 
Q 850 3888 850 3481 
Q 850 3069 1003 2837 
Q 1156 2606 1428 2606 
Q 1700 2606 1854 2837 
Q 2009 3069 2009 3481 
Q 2009 3884 1853 4118 
Q 1697 4353 1428 4353 
z
M 4250 4750 
L 4750 4750 
L 1831 -91 
L 1331 -91 
L 4250 4750 
z
M 1428 4750 
Q 1922 4750 2215 4408 
Q 2509 4066 2509 3481 
Q 2509 2891 2217 2550 
Q 1925 2209 1428 2209 
Q 931 2209 642 2551 
Q 353 2894 353 3481 
Q 353 4063 643 4406 
Q 934 4750 1428 4750 
z
" transform="scale(0.015625)"/>
     </defs>
     <use xlink:href="#DejaVuSans-48"/>
     <use xlink:href="#DejaVuSans-61" x="75.195312"/>
     <use xlink:href="#DejaVuSans-6e" x="136.474609"/>
     <use xlink:href="#DejaVuSans-64" x="199.853516"/>
     <use xlink:href="#DejaVuSans-73" x="263.330078"/>
     <use xlink:href="#DejaVuSans-68" x="315.429688"/>
     <use xlink:href="#DejaVuSans-61" x="378.808594"/>
     <use xlink:href="#DejaVuSans-6b" x="440.087891"/>
     <use xlink:href="#DejaVuSans-65" x="494.373047"/>
     <use xlink:href="#DejaVuSans-20" x="555.896484"/>
     <use xlink:href="#DejaVuSans-64" x="587.683594"/>
     <use xlink:href="#DejaVuSans-75" x="651.160156"/>
     <use xlink:href="#DejaVuSans-72" x="714.539062"/>
     <use xlink:href="#DejaVuSans-61" x="755.652344"/>
     <use xlink:href="#DejaVuSans-74" x="816.931641"/>
     <use xlink:href="#DejaVuSans-69" x="856.140625"/>
     <use xlink:href="#DejaVuSans-6f" x="883.923828"/>
     <use xlink:href="#DejaVuSans-6e" x="945.105469"/>
     <use xlink:href="#DejaVuSans-20" x="1008.484375"/>
     <use xlink:href="#DejaVuSans-6f" x="1040.271484"/>
     <use xlink:href="#DejaVuSans-6e" x="1101.453125"/>
     <use xlink:href="#DejaVuSans-20" x="1164.832031"/>
     <use xlink:href="#DejaVuSans-54" x="1196.619141"/>
     <use xlink:href="#DejaVuSans-4c" x="1257.703125"/>
     <use xlink:href="#DejaVuSans-53" x="1313.416016"/>
     <use xlink:href="#DejaVuSans-20" x="1376.892578"/>
     <use xlink:href="#DejaVuSans-77" x="1408.679688"/>
     <use xlink:href="#DejaVuSans-69" x="1490.466797"/>
     <use xlink:href="#DejaVuSans-74" x="1518.25"/>
     <use xlink:href="#DejaVuSans-68" x="1557.458984"/>
     <use xlink:href="#DejaVuSans-20" x="1620.837891"/>
     <use xlink:href="#DejaVuSans-6d" x="1652.625"/>
     <use xlink:href="#DejaVuSans-6c" x="1750.037109"/>
     <use xlink:href="#DejaVuSans-64" x="1777.820312"/>
     <use xlink:href="#DejaVuSans-73" x="1841.296875"/>
     <use xlink:href="#DejaVuSans-61" x="1893.396484"/>
     <use xlink:href="#DejaVuSans-34" x="1954.675781"/>
     <use xlink:href="#DejaVuSans-34" x="2018.298828"/>
     <use xlink:href="#DejaVuSans-20" x="2081.921875"/>
     <use xlink:href="#DejaVuSans-73" x="2113.708984"/>
     <use xlink:href="#DejaVuSans-69" x="2165.808594"/>
     <use xlink:href="#DejaVuSans-67" x="2193.591797"/>
     <use xlink:href="#DejaVuSans-6e" x="2257.068359"/>
     <use xlink:href="#DejaVuSans-61" x="2320.447266"/>
     <use xlink:href="#DejaVuSans-74" x="2381.726562"/>
     <use xlink:href="#DejaVuSans-75" x="2420.935547"/>
     <use xlink:href="#DejaVuSans-72" x="2484.314453"/>
     <use xlink:href="#DejaVuSans-65" x="2523.177734"/>
     <use xlink:href="#DejaVuSans-20" x="2584.701172"/>
     <use xlink:href="#DejaVuSans-61" x="2616.488281"/>
     <use xlink:href="#DejaVuSans-6c" x="2677.767578"/>
     <use xlink:href="#DejaVuSans-67" x="2705.550781"/>
     <use xlink:href="#DejaVuSans-6f" x="2769.027344"/>
     <use xlink:href="#DejaVuSans-72" x="2830.208984"/>
     <use xlink:href="#DejaVuSans-69" x="2871.322266"/>
     <use xlink:href="#DejaVuSans-74" x="2899.105469"/>
     <use xlink:href="#DejaVuSans-68" x="2938.314453"/>
     <use xlink:href="#DejaVuSans-6d" x="3001.693359"/>
     <use xlink:href="#DejaVuSans-20" x="3099.105469"/>
     <use xlink:href="#DejaVuSans-2014" x="3130.892578"/>
     <use xlink:href="#DejaVuSans-20" x="3230.892578"/>
     <use xlink:href="#DejaVuSans-42" x="3262.679688"/>
     <use xlink:href="#DejaVuSans-61" x="3331.283203"/>
     <use xlink:href="#DejaVuSans-63" x="3392.5625"/>
     <use xlink:href="#DejaVuSans-6b" x="3447.542969"/>
     <use xlink:href="#DejaVuSans-62" x="3505.453125"/>
     <use xlink:href="#DejaVuSans-6f" x="3568.929688"/>
     <use xlink:href="#DejaVuSans-6e" x="3630.111328"/>
     <use xlink:href="#DejaVuSans-65" x="3693.490234"/>
     <use xlink:href="#DejaVuSans-20" x="3755.013672"/>
     <use xlink:href="#DejaVuSans-28" x="3786.800781"/>
     <use xlink:href="#DejaVuSans-32" x="3825.814453"/>
     <use xlink:href="#DejaVuSans-30" x="3889.4375"/>
     <use xlink:href="#DejaVuSans-30" x="3953.060547"/>
     <use xlink:href="#DejaVuSans-6d" x="4016.683594"/>
     <use xlink:href="#DejaVuSans-73" x="4114.095703"/>
     <use xlink:href="#DejaVuSans-2f" x="4166.195312"/>
     <use xlink:href="#DejaVuSans-34" x="4199.886719"/>
     <use xlink:href="#DejaVuSans-25" x="4263.509766"/>
     <use xlink:href="#DejaVuSans-29" x="4358.529297"/>
    </g>
   </g>
  </g>
 </g>
 <defs>
  <clipPath id="p1910f59a04">
   <rect x="58.32" y="27.6" width="792.72" height="367.54"/>
  </clipPath>
 </defs>
</svg>
