<?xml version="1.0" encoding="utf-8" standalone="no"?>
<!DOCTYPE svg PUBLIC "-//W3C//DTD SVG 1.1//EN"
  "http://www.w3.org/Graphics/SVG/1.1/DTD/svg11.dtd">
<svg xmlns:xlink="http://www.w3.org/1999/xlink" width="864pt" height="432pt" viewBox="0 0 864 432" xmlns="http://www.w3.org/2000/svg" version="1.1">
 <metadata>
  <rdf:RDF xmlns:dc="http://purl.org/dc/elements/1.1/" xmlns:cc="http://creativecommons.org/ns#" xmlns:rdf="http://www.w3.org/1999/02/22-rdf-syntax-ns#">
   <cc:Work>
    <dc:type rdf:resource="http://purl.org/dc/dcmitype/StillImage"/>
    <dc:date>2026-03-21T13:58:41.234116</dc:date>
    <dc:format>image/svg+xml</dc:format>
    <dc:creator>
     <cc:Agent>
      <dc:title>Matplotlib v3.6.3, https://matplotlib.org/</dc:title>
     </cc:Agent>
    </dc:creator>
   </cc:Work>
  </rdf:RDF>
 </metadata>
 <defs>
  <style type="text/css">*{stroke-linejoin: round; stroke-linecap: butt}</style>
 </defs>
 <g id="figure_1">
  <g id="patch_1">
   <path d="M 0 432 
L 864 432 
L 864 0 
L 0 0 
z
" style="fill: #ffffff"/>
  </g>
  <g id="axes_1">
   <g id="patch_2">
    <path d="M 51.3 395.14 
L 851.04 395.14 
L 851.04 27.6 
L 51.3 27.6 
z
" style="fill: #ffffff"/>
   </g>
   <g id="matplotlib.axis_1">
    <g id="xtick_1">
     <g id="text_1">
      <!-- P-384 -->
      <g style="fill: #262626" transform="translate(111.324 415.277812) scale(0.14 -0.14)">
       <defs>
        <path id="DejaVuSans-50" d="M 1259 4147 
L 1259 2394 
L 2053 2394 
Q 2494 2394 2734 2622 
Q 2975 2850 2975 3272 
Q 2975 3691 2734 3919 
Q 2494 4147 2053 4147 
L 1259 4147 
z
M 628 4666 
L 2053 4666 
Q 2838 4666 3239 4311 
Q 3641 3956 3641 3272 
Q 3641 2581 3239 2228 
Q 2838 1875 2053 1875 
L 1259 1875 
L 1259 0 
L 628 0 
L 628 4666 
z
" transform="scale(0.015625)"/>
        <path id="DejaVuSans-2d" d="M 313 2009 
L 1997 2009 
L 1997 1497 
L 313 1497 
L 313 2009 
z
" transform="scale(0.015625)"/>
        <path id="DejaVuSans-33" d="M 2597 2516 
Q 3050 2419 3304 2112 
Q 3559 1806 3559 1356 
Q 3559 666 3084 287 
Q 2609 -91 1734 -91 
Q 1441 -91 1130 -33 
Q 819 25 488 141 
L 488 750 
Q 750 597 1062 519 
Q 1375 441 1716 441 
Q 2309 441 2620 675 
Q 2931 909 2931 1356 
Q 2931 1769 2642 2001 
Q 2353 2234 1838 2234 
L 1294 2234 
L 1294 2753 
L 1863 2753 
Q 2328 2753 2575 2939 
Q 2822 3125 2822 3475 
Q 2822 3834 2567 4026 
Q 2313 4219 1838 4219 
Q 1578 4219 1281 4162 
Q 984 4106 628 3988 
L 628 4550 
Q 988 4650 1302 4700 
Q 1616 4750 1894 4750 
Q 2613 4750 3031 4423 
Q 3450 4097 3450 3541 
Q 3450 3153 3228 2886 
Q 3006 2619 2597 2516 
z
" transform="scale(0.015625)"/>
        <path id="DejaVuSans-38" d="M 2034 2216 
Q 1584 2216 1326 1975 
Q 1069 1734 1069 1313 
Q 1069 891 1326 650 
Q 1584 409 2034 409 
Q 2484 409 2743 651 
Q 3003 894 3003 1313 
Q 3003 1734 2745 1975 
Q 2488 2216 2034 2216 
z
M 1403 2484 
Q 997 2584 770 2862 
Q 544 3141 544 3541 
Q 544 4100 942 4425 
Q 1341 4750 2034 4750 
Q 2731 4750 3128 4425 
Q 3525 4100 3525 3541 
Q 3525 3141 3298 2862 
Q 3072 2584 2669 2484 
Q 3125 2378 3379 2068 
Q 3634 1759 3634 1313 
Q 3634 634 3220 271 
Q 2806 -91 2034 -91 
Q 1263 -91 848 271 
Q 434 634 434 1313 
Q 434 1759 690 2068 
Q 947 2378 1403 2484 
z
M 1172 3481 
Q 1172 3119 1398 2916 
Q 1625 2713 2034 2713 
Q 2441 2713 2670 2916 
Q 2900 3119 2900 3481 
Q 2900 3844 2670 4047 
Q 2441 4250 2034 4250 
Q 1625 4250 1398 4047 
Q 1172 3844 1172 3481 
z
" transform="scale(0.015625)"/>
        <path id="DejaVuSans-34" d="M 2419 4116 
L 825 1625 
L 2419 1625 
L 2419 4116 
z
M 2253 4666 
L 3047 4666 
L 3047 1625 
L 3713 1625 
L 3713 1100 
L 3047 1100 
L 3047 0 
L 2419 0 
L 2419 1100 
L 313 1100 
L 313 1709 
L 2253 4666 
z
" transform="scale(0.015625)"/>
       </defs>
       <use xlink:href="#DejaVuSans-50"/>
       <use xlink:href="#DejaVuSans-2d" x="58.052734"/>
       <use xlink:href="#DejaVuSans-33" x="94.136719"/>
       <use xlink:href="#DejaVuSans-38" x="157.759766"/>
       <use xlink:href="#DejaVuSans-34" x="221.382812"/>
      </g>
     </g>
    </g>
    <g id="xtick_2">
     <g id="text_2">
      <!-- x448 -->
      <g style="fill: #262626" transform="translate(273.717625 415.277812) scale(0.14 -0.14)">
       <defs>
        <path id="DejaVuSans-78" d="M 3513 3500 
L 2247 1797 
L 3578 0 
L 2900 0 
L 1881 1375 
L 863 0 
L 184 0 
L 1544 1831 
L 300 3500 
L 978 3500 
L 1906 2253 
L 2834 3500 
L 3513 3500 
z
" transform="scale(0.015625)"/>
       </defs>
       <use xlink:href="#DejaVuSans-78"/>
       <use xlink:href="#DejaVuSans-34" x="59.179688"/>
       <use xlink:href="#DejaVuSans-34" x="122.802734"/>
       <use xlink:href="#DejaVuSans-38" x="186.425781"/>
      </g>
     </g>
    </g>
    <g id="xtick_3">
     <g id="text_3">
      <!-- p384_mlkem768 -->
      <g style="fill: #262626" transform="translate(392.815156 415.277812) scale(0.14 -0.14)">
       <defs>
        <path id="DejaVuSans-70" d="M 1159 525 
L 1159 -1331 
L 581 -1331 
L 581 3500 
L 1159 3500 
L 1159 2969 
Q 1341 3281 1617 3432 
Q 1894 3584 2278 3584 
Q 2916 3584 3314 3078 
Q 3713 2572 3713 1747 
Q 3713 922 3314 415 
Q 2916 -91 2278 -91 
Q 1894 -91 1617 61 
Q 1341 213 1159 525 
z
M 3116 1747 
Q 3116 2381 2855 2742 
Q 2594 3103 2138 3103 
Q 1681 3103 1420 2742 
Q 1159 2381 1159 1747 
Q 1159 1113 1420 752 
Q 1681 391 2138 391 
Q 2594 391 2855 752 
Q 3116 1113 3116 1747 
z
" transform="scale(0.015625)"/>
        <path id="DejaVuSans-5f" d="M 3263 -1063 
L 3263 -1509 
L -63 -1509 
L -63 -1063 
L 3263 -1063 
z
" transform="scale(0.015625)"/>
        <path id="DejaVuSans-6d" d="M 3328 2828 
Q 3544 3216 3844 3400 
Q 4144 3584 4550 3584 
Q 5097 3584 5394 3201 
Q 5691 2819 5691 2113 
L 5691 0 
L 5113 0 
L 5113 2094 
Q 5113 2597 4934 2840 
Q 4756 3084 4391 3084 
Q 3944 3084 3684 2787 
Q 3425 2491 3425 1978 
L 3425 0 
L 2847 0 
L 2847 2094 
Q 2847 2600 2669 2842 
Q 2491 3084 2119 3084 
Q 1678 3084 1418 2786 
Q 1159 2488 1159 1978 
L 1159 0 
L 581 0 
L 581 3500 
L 1159 3500 
L 1159 2956 
Q 1356 3278 1631 3431 
Q 1906 3584 2284 3584 
Q 2666 3584 2933 3390 
Q 3200 3197 3328 2828 
z
" transform="scale(0.015625)"/>
        <path id="DejaVuSans-6c" d="M 603 4863 
L 1178 4863 
L 1178 0 
L 603 0 
L 603 4863 
z
" transform="scale(0.015625)"/>
        <path id="DejaVuSans-6b" d="M 581 4863 
L 1159 4863 
L 1159 1991 
L 2875 3500 
L 3609 3500 
L 1753 1863 
L 3688 0 
L 2938 0 
L 1159 1709 
L 1159 0 
L 581 0 
L 581 4863 
z
" transform="scale(0.015625)"/>
        <path id="DejaVuSans-65" d="M 3597 1894 
L 3597 1613 
L 953 1613 
Q 991 1019 1311 708 
Q 1631 397 2203 397 
Q 2534 397 2845 478 
Q 3156 559 3463 722 
L 3463 178 
Q 3153 47 2828 -22 
Q 2503 -91 2169 -91 
Q 1331 -91 842 396 
Q 353 884 353 1716 
Q 353 2575 817 3079 
Q 1281 3584 2069 3584 
Q 2775 3584 3186 3129 
Q 3597 2675 3597 1894 
z
M 3022 2063 
Q 3016 2534 2758 2815 
Q 2500 3097 2075 3097 
Q 1594 3097 1305 2825 
Q 1016 2553 972 2059 
L 3022 2063 
z
" transform="scale(0.015625)"/>
        <path id="DejaVuSans-37" d="M 525 4666 
L 3525 4666 
L 3525 4397 
L 1831 0 
L 1172 0 
L 2766 4134 
L 525 4134 
L 525 4666 
z
" transform="scale(0.015625)"/>
        <path id="DejaVuSans-36" d="M 2113 2584 
Q 1688 2584 1439 2293 
Q 1191 2003 1191 1497 
Q 1191 994 1439 701 
Q 1688 409 2113 409 
Q 2538 409 2786 701 
Q 3034 994 3034 1497 
Q 3034 2003 2786 2293 
Q 2538 2584 2113 2584 
z
M 3366 4563 
L 3366 3988 
Q 3128 4100 2886 4159 
Q 2644 4219 2406 4219 
Q 1781 4219 1451 3797 
Q 1122 3375 1075 2522 
Q 1259 2794 1537 2939 
Q 1816 3084 2150 3084 
Q 2853 3084 3261 2657 
Q 3669 2231 3669 1497 
Q 3669 778 3244 343 
Q 2819 -91 2113 -91 
Q 1303 -91 875 529 
Q 447 1150 447 2328 
Q 447 3434 972 4092 
Q 1497 4750 2381 4750 
Q 2619 4750 2861 4703 
Q 3103 4656 3366 4563 
z
" transform="scale(0.015625)"/>
       </defs>
       <use xlink:href="#DejaVuSans-70"/>
       <use xlink:href="#DejaVuSans-33" x="63.476562"/>
       <use xlink:href="#DejaVuSans-38" x="127.099609"/>
       <use xlink:href="#DejaVuSans-34" x="190.722656"/>
       <use xlink:href="#DejaVuSans-5f" x="254.345703"/>
       <use xlink:href="#DejaVuSans-6d" x="304.345703"/>
       <use xlink:href="#DejaVuSans-6c" x="401.757812"/>
       <use xlink:href="#DejaVuSans-6b" x="429.541016"/>
       <use xlink:href="#DejaVuSans-65" x="483.826172"/>
       <use xlink:href="#DejaVuSans-6d" x="545.349609"/>
       <use xlink:href="#DejaVuSans-37" x="642.761719"/>
       <use xlink:href="#DejaVuSans-36" x="706.384766"/>
       <use xlink:href="#DejaVuSans-38" x="770.007812"/>
      </g>
     </g>
    </g>
    <g id="xtick_4">
     <g id="text_4">
      <!-- x448_mlkem768 -->
      <g style="fill: #262626" transform="translate(553.063937 415.277812) scale(0.14 -0.14)">
       <use xlink:href="#DejaVuSans-78"/>
       <use xlink:href="#DejaVuSans-34" x="59.179688"/>
       <use xlink:href="#DejaVuSans-34" x="122.802734"/>
       <use xlink:href="#DejaVuSans-38" x="186.425781"/>
       <use xlink:href="#DejaVuSans-5f" x="250.048828"/>
       <use xlink:href="#DejaVuSans-6d" x="300.048828"/>
       <use xlink:href="#DejaVuSans-6c" x="397.460938"/>
       <use xlink:href="#DejaVuSans-6b" x="425.244141"/>
       <use xlink:href="#DejaVuSans-65" x="479.529297"/>
       <use xlink:href="#DejaVuSans-6d" x="541.052734"/>
       <use xlink:href="#DejaVuSans-37" x="638.464844"/>
       <use xlink:href="#DejaVuSans-36" x="702.087891"/>
       <use xlink:href="#DejaVuSans-38" x="765.710938"/>
      </g>
     </g>
    </g>
    <g id="xtick_5">
     <g id="text_5">
      <!-- mlkem768 -->
      <g style="fill: #262626" transform="translate(734.016312 415.277812) scale(0.14 -0.14)">
       <use xlink:href="#DejaVuSans-6d"/>
       <use xlink:href="#DejaVuSans-6c" x="97.412109"/>
       <use xlink:href="#DejaVuSans-6b" x="125.195312"/>
       <use xlink:href="#DejaVuSans-65" x="179.480469"/>
       <use xlink:href="#DejaVuSans-6d" x="241.003906"/>
       <use xlink:href="#DejaVuSans-37" x="338.416016"/>
       <use xlink:href="#DejaVuSans-36" x="402.039062"/>
       <use xlink:href="#DejaVuSans-38" x="465.662109"/>
      </g>
     </g>
    </g>
   </g>
   <g id="matplotlib.axis_2">
    <g id="ytick_1">
     <g id="line2d_1">
      <path d="M 51.3 384.213572 
L 851.04 384.213572 
" clip-path="url(#pafa427fd69)" style="fill: none; stroke: #cccccc; stroke-linecap: round"/>
     </g>
     <g id="text_6">
      <!-- 0 -->
      <g style="fill: #262626" transform="translate(34.80125 388.392713) scale(0.11 -0.11)">
       <defs>
        <path id="DejaVuSans-30" d="M 2034 4250 
Q 1547 4250 1301 3770 
Q 1056 3291 1056 2328 
Q 1056 1369 1301 889 
Q 1547 409 2034 409 
Q 2525 409 2770 889 
Q 3016 1369 3016 2328 
Q 3016 3291 2770 3770 
Q 2525 4250 2034 4250 
z
M 2034 4750 
Q 2819 4750 3233 4129 
Q 3647 3509 3647 2328 
Q 3647 1150 3233 529 
Q 2819 -91 2034 -91 
Q 1250 -91 836 529 
Q 422 1150 422 2328 
Q 422 3509 836 4129 
Q 1250 4750 2034 4750 
z
" transform="scale(0.015625)"/>
       </defs>
       <use xlink:href="#DejaVuSans-30"/>
      </g>
     </g>
    </g>
    <g id="ytick_2">
     <g id="line2d_2">
      <path d="M 51.3 341.87781 
L 851.04 341.87781 
" clip-path="url(#pafa427fd69)" style="fill: none; stroke: #cccccc; stroke-linecap: round"/>
     </g>
     <g id="text_7">
      <!-- 10 -->
      <g style="fill: #262626" transform="translate(27.8025 346.056951) scale(0.11 -0.11)">
       <defs>
        <path id="DejaVuSans-31" d="M 794 531 
L 1825 531 
L 1825 4091 
L 703 3866 
L 703 4441 
L 1819 4666 
L 2450 4666 
L 2450 531 
L 3481 531 
L 3481 0 
L 794 0 
L 794 531 
z
" transform="scale(0.015625)"/>
       </defs>
       <use xlink:href="#DejaVuSans-31"/>
       <use xlink:href="#DejaVuSans-30" x="63.623047"/>
      </g>
     </g>
    </g>
    <g id="ytick_3">
     <g id="line2d_3">
      <path d="M 51.3 299.542048 
L 851.04 299.542048 
" clip-path="url(#pafa427fd69)" style="fill: none; stroke: #cccccc; stroke-linecap: round"/>
     </g>
     <g id="text_8">
      <!-- 20 -->
      <g style="fill: #262626" transform="translate(27.8025 303.721189) scale(0.11 -0.11)">
       <defs>
        <path id="DejaVuSans-32" d="M 1228 531 
L 3431 531 
L 3431 0 
L 469 0 
L 469 531 
Q 828 903 1448 1529 
Q 2069 2156 2228 2338 
Q 2531 2678 2651 2914 
Q 2772 3150 2772 3378 
Q 2772 3750 2511 3984 
Q 2250 4219 1831 4219 
Q 1534 4219 1204 4116 
Q 875 4013 500 3803 
L 500 4441 
Q 881 4594 1212 4672 
Q 1544 4750 1819 4750 
Q 2544 4750 2975 4387 
Q 3406 4025 3406 3419 
Q 3406 3131 3298 2873 
Q 3191 2616 2906 2266 
Q 2828 2175 2409 1742 
Q 1991 1309 1228 531 
z
" transform="scale(0.015625)"/>
       </defs>
       <use xlink:href="#DejaVuSans-32"/>
       <use xlink:href="#DejaVuSans-30" x="63.623047"/>
      </g>
     </g>
    </g>
    <g id="ytick_4">
     <g id="line2d_4">
      <path d="M 51.3 257.206286 
L 851.04 257.206286 
" clip-path="url(#pafa427fd69)" style="fill: none; stroke: #cccccc; stroke-linecap: round"/>
     </g>
     <g id="text_9">
      <!-- 30 -->
      <g style="fill: #262626" transform="translate(27.8025 261.385426) scale(0.11 -0.11)">
       <use xlink:href="#DejaVuSans-33"/>
       <use xlink:href="#DejaVuSans-30" x="63.623047"/>
      </g>
     </g>
    </g>
    <g id="ytick_5">
     <g id="line2d_5">
      <path d="M 51.3 214.870524 
L 851.04 214.870524 
" clip-path="url(#pafa427fd69)" style="fill: none; stroke: #cccccc; stroke-linecap: round"/>
     </g>
     <g id="text_10">
      <!-- 40 -->
      <g style="fill: #262626" transform="translate(27.8025 219.049664) scale(0.11 -0.11)">
       <use xlink:href="#DejaVuSans-34"/>
       <use xlink:href="#DejaVuSans-30" x="63.623047"/>
      </g>
     </g>
    </g>
    <g id="ytick_6">
     <g id="line2d_6">
      <path d="M 51.3 172.534762 
L 851.04 172.534762 
" clip-path="url(#pafa427fd69)" style="fill: none; stroke: #cccccc; stroke-linecap: round"/>
     </g>
     <g id="text_11">
      <!-- 50 -->
      <g style="fill: #262626" transform="translate(27.8025 176.713902) scale(0.11 -0.11)">
       <defs>
        <path id="DejaVuSans-35" d="M 691 4666 
L 3169 4666 
L 3169 4134 
L 1269 4134 
L 1269 2991 
Q 1406 3038 1543 3061 
Q 1681 3084 1819 3084 
Q 2600 3084 3056 2656 
Q 3513 2228 3513 1497 
Q 3513 744 3044 326 
Q 2575 -91 1722 -91 
Q 1428 -91 1123 -41 
Q 819 9 494 109 
L 494 744 
Q 775 591 1075 516 
Q 1375 441 1709 441 
Q 2250 441 2565 725 
Q 2881 1009 2881 1497 
Q 2881 1984 2565 2268 
Q 2250 2553 1709 2553 
Q 1456 2553 1204 2497 
Q 953 2441 691 2322 
L 691 4666 
z
" transform="scale(0.015625)"/>
       </defs>
       <use xlink:href="#DejaVuSans-35"/>
       <use xlink:href="#DejaVuSans-30" x="63.623047"/>
      </g>
     </g>
    </g>
    <g id="ytick_7">
     <g id="line2d_7">
      <path d="M 51.3 130.198999 
L 851.04 130.198999 
" clip-path="url(#pafa427fd69)" style="fill: none; stroke: #cccccc; stroke-linecap: round"/>
     </g>
     <g id="text_12">
      <!-- 60 -->
      <g style="fill: #262626" transform="translate(27.8025 134.37814) scale(0.11 -0.11)">
       <use xlink:href="#DejaVuSans-36"/>
       <use xlink:href="#DejaVuSans-30" x="63.623047"/>
      </g>
     </g>
    </g>
    <g id="ytick_8">
     <g id="line2d_8">
      <path d="M 51.3 87.863237 
L 851.04 87.863237 
" clip-path="url(#pafa427fd69)" style="fill: none; stroke: #cccccc; stroke-linecap: round"/>
     </g>
     <g id="text_13">
      <!-- 70 -->
      <g style="fill: #262626" transform="translate(27.8025 92.042378) scale(0.11 -0.11)">
       <use xlink:href="#DejaVuSans-37"/>
       <use xlink:href="#DejaVuSans-30" x="63.623047"/>
      </g>
     </g>
    </g>
    <g id="ytick_9">
     <g id="line2d_9">
      <path d="M 51.3 45.527475 
L 851.04 45.527475 
" clip-path="url(#pafa427fd69)" style="fill: none; stroke: #cccccc; stroke-linecap: round"/>
     </g>
     <g id="text_14">
      <!-- 80 -->
      <g style="fill: #262626" transform="translate(27.8025 49.706616) scale(0.11 -0.11)">
       <use xlink:href="#DejaVuSans-38"/>
       <use xlink:href="#DejaVuSans-30" x="63.623047"/>
      </g>
     </g>
    </g>
    <g id="text_15">
     <!-- Handshake duration (ms) -->
     <g style="fill: #262626" transform="translate(21.306875 287.437813) rotate(-90) scale(0.12 -0.12)">
      <defs>
       <path id="DejaVuSans-48" d="M 628 4666 
L 1259 4666 
L 1259 2753 
L 3553 2753 
L 3553 4666 
L 4184 4666 
L 4184 0 
L 3553 0 
L 3553 2222 
L 1259 2222 
L 1259 0 
L 628 0 
L 628 4666 
z
" transform="scale(0.015625)"/>
       <path id="DejaVuSans-61" d="M 2194 1759 
Q 1497 1759 1228 1600 
Q 959 1441 959 1056 
Q 959 750 1161 570 
Q 1363 391 1709 391 
Q 2188 391 2477 730 
Q 2766 1069 2766 1631 
L 2766 1759 
L 2194 1759 
z
M 3341 1997 
L 3341 0 
L 2766 0 
L 2766 531 
Q 2569 213 2275 61 
Q 1981 -91 1556 -91 
Q 1019 -91 701 211 
Q 384 513 384 1019 
Q 384 1609 779 1909 
Q 1175 2209 1959 2209 
L 2766 2209 
L 2766 2266 
Q 2766 2663 2505 2880 
Q 2244 3097 1772 3097 
Q 1472 3097 1187 3025 
Q 903 2953 641 2809 
L 641 3341 
Q 956 3463 1253 3523 
Q 1550 3584 1831 3584 
Q 2591 3584 2966 3190 
Q 3341 2797 3341 1997 
z
" transform="scale(0.015625)"/>
       <path id="DejaVuSans-6e" d="M 3513 2113 
L 3513 0 
L 2938 0 
L 2938 2094 
Q 2938 2591 2744 2837 
Q 2550 3084 2163 3084 
Q 1697 3084 1428 2787 
Q 1159 2491 1159 1978 
L 1159 0 
L 581 0 
L 581 3500 
L 1159 3500 
L 1159 2956 
Q 1366 3272 1645 3428 
Q 1925 3584 2291 3584 
Q 2894 3584 3203 3211 
Q 3513 2838 3513 2113 
z
" transform="scale(0.015625)"/>
       <path id="DejaVuSans-64" d="M 2906 2969 
L 2906 4863 
L 3481 4863 
L 3481 0 
L 2906 0 
L 2906 525 
Q 2725 213 2448 61 
Q 2172 -91 1784 -91 
Q 1150 -91 751 415 
Q 353 922 353 1747 
Q 353 2572 751 3078 
Q 1150 3584 1784 3584 
Q 2172 3584 2448 3432 
Q 2725 3281 2906 2969 
z
M 947 1747 
Q 947 1113 1208 752 
Q 1469 391 1925 391 
Q 2381 391 2643 752 
Q 2906 1113 2906 1747 
Q 2906 2381 2643 2742 
Q 2381 3103 1925 3103 
Q 1469 3103 1208 2742 
Q 947 2381 947 1747 
z
" transform="scale(0.015625)"/>
       <path id="DejaVuSans-73" d="M 2834 3397 
L 2834 2853 
Q 2591 2978 2328 3040 
Q 2066 3103 1784 3103 
Q 1356 3103 1142 2972 
Q 928 2841 928 2578 
Q 928 2378 1081 2264 
Q 1234 2150 1697 2047 
L 1894 2003 
Q 2506 1872 2764 1633 
Q 3022 1394 3022 966 
Q 3022 478 2636 193 
Q 2250 -91 1575 -91 
Q 1294 -91 989 -36 
Q 684 19 347 128 
L 347 722 
Q 666 556 975 473 
Q 1284 391 1588 391 
Q 1994 391 2212 530 
Q 2431 669 2431 922 
Q 2431 1156 2273 1281 
Q 2116 1406 1581 1522 
L 1381 1569 
Q 847 1681 609 1914 
Q 372 2147 372 2553 
Q 372 3047 722 3315 
Q 1072 3584 1716 3584 
Q 2034 3584 2315 3537 
Q 2597 3491 2834 3397 
z
" transform="scale(0.015625)"/>
       <path id="DejaVuSans-68" d="M 3513 2113 
L 3513 0 
L 2938 0 
L 2938 2094 
Q 2938 2591 2744 2837 
Q 2550 3084 2163 3084 
Q 1697 3084 1428 2787 
Q 1159 2491 1159 1978 
L 1159 0 
L 581 0 
L 581 4863 
L 1159 4863 
L 1159 2956 
Q 1366 3272 1645 3428 
Q 1925 3584 2291 3584 
Q 2894 3584 3203 3211 
Q 3513 2838 3513 2113 
z
" transform="scale(0.015625)"/>
       <path id="DejaVuSans-20" transform="scale(0.015625)"/>
       <path id="DejaVuSans-75" d="M 544 1381 
L 544 3500 
L 1119 3500 
L 1119 1403 
Q 1119 906 1312 657 
Q 1506 409 1894 409 
Q 2359 409 2629 706 
Q 2900 1003 2900 1516 
L 2900 3500 
L 3475 3500 
L 3475 0 
L 2900 0 
L 2900 538 
Q 2691 219 2414 64 
Q 2138 -91 1772 -91 
Q 1169 -91 856 284 
Q 544 659 544 1381 
z
M 1991 3584 
L 1991 3584 
z
" transform="scale(0.015625)"/>
       <path id="DejaVuSans-72" d="M 2631 2963 
Q 2534 3019 2420 3045 
Q 2306 3072 2169 3072 
Q 1681 3072 1420 2755 
Q 1159 2438 1159 1844 
L 1159 0 
L 581 0 
L 581 3500 
L 1159 3500 
L 1159 2956 
Q 1341 3275 1631 3429 
Q 1922 3584 2338 3584 
Q 2397 3584 2469 3576 
Q 2541 3569 2628 3553 
L 2631 2963 
z
" transform="scale(0.015625)"/>
       <path id="DejaVuSans-74" d="M 1172 4494 
L 1172 3500 
L 2356 3500 
L 2356 3053 
L 1172 3053 
L 1172 1153 
Q 1172 725 1289 603 
Q 1406 481 1766 481 
L 2356 481 
L 2356 0 
L 1766 0 
Q 1100 0 847 248 
Q 594 497 594 1153 
L 594 3053 
L 172 3053 
L 172 3500 
L 594 3500 
L 594 4494 
L 1172 4494 
z
" transform="scale(0.015625)"/>
       <path id="DejaVuSans-69" d="M 603 3500 
L 1178 3500 
L 1178 0 
L 603 0 
L 603 3500 
z
M 603 4863 
L 1178 4863 
L 1178 4134 
L 603 4134 
L 603 4863 
z
" transform="scale(0.015625)"/>
       <path id="DejaVuSans-6f" d="M 1959 3097 
Q 1497 3097 1228 2736 
Q 959 2375 959 1747 
Q 959 1119 1226 758 
Q 1494 397 1959 397 
Q 2419 397 2687 759 
Q 2956 1122 2956 1747 
Q 2956 2369 2687 2733 
Q 2419 3097 1959 3097 
z
M 1959 3584 
Q 2709 3584 3137 3096 
Q 3566 2609 3566 1747 
Q 3566 888 3137 398 
Q 2709 -91 1959 -91 
Q 1206 -91 779 398 
Q 353 888 353 1747 
Q 353 2609 779 3096 
Q 1206 3584 1959 3584 
z
" transform="scale(0.015625)"/>
       <path id="DejaVuSans-28" d="M 1984 4856 
Q 1566 4138 1362 3434 
Q 1159 2731 1159 2009 
Q 1159 1288 1364 580 
Q 1569 -128 1984 -844 
L 1484 -844 
Q 1016 -109 783 600 
Q 550 1309 550 2009 
Q 550 2706 781 3412 
Q 1013 4119 1484 4856 
L 1984 4856 
z
" transform="scale(0.015625)"/>
       <path id="DejaVuSans-29" d="M 513 4856 
L 1013 4856 
Q 1481 4119 1714 3412 
Q 1947 2706 1947 2009 
Q 1947 1309 1714 600 
Q 1481 -109 1013 -844 
L 513 -844 
Q 928 -128 1133 580 
Q 1338 1288 1338 2009 
Q 1338 2731 1133 3434 
Q 928 4138 513 4856 
z
" transform="scale(0.015625)"/>
      </defs>
      <use xlink:href="#DejaVuSans-48"/>
      <use xlink:href="#DejaVuSans-61" x="75.195312"/>
      <use xlink:href="#DejaVuSans-6e" x="136.474609"/>
      <use xlink:href="#DejaVuSans-64" x="199.853516"/>
      <use xlink:href="#DejaVuSans-73" x="263.330078"/>
      <use xlink:href="#DejaVuSans-68" x="315.429688"/>
      <use xlink:href="#DejaVuSans-61" x="378.808594"/>
      <use xlink:href="#DejaVuSans-6b" x="440.087891"/>
      <use xlink:href="#DejaVuSans-65" x="494.373047"/>
      <use xlink:href="#DejaVuSans-20" x="555.896484"/>
      <use xlink:href="#DejaVuSans-64" x="587.683594"/>
      <use xlink:href="#DejaVuSans-75" x="651.160156"/>
      <use xlink:href="#DejaVuSans-72" x="714.539062"/>
      <use xlink:href="#DejaVuSans-61" x="755.652344"/>
      <use xlink:href="#DejaVuSans-74" x="816.931641"/>
      <use xlink:href="#DejaVuSans-69" x="856.140625"/>
      <use xlink:href="#DejaVuSans-6f" x="883.923828"/>
      <use xlink:href="#DejaVuSans-6e" x="945.105469"/>
      <use xlink:href="#DejaVuSans-20" x="1008.484375"/>
      <use xlink:href="#DejaVuSans-28" x="1040.271484"/>
      <use xlink:href="#DejaVuSans-6d" x="1079.285156"/>
      <use xlink:href="#DejaVuSans-73" x="1176.697266"/>
      <use xlink:href="#DejaVuSans-29" x="1228.796875"/>
     </g>
    </g>
   </g>
   <g id="PolyCollection_1">
    <defs>
     <path id="m042c1f3f1e" d="M 132.022304 -66.613324 
L 130.525696 -66.613324 
L 130.082848 -67.945657 
L 129.444826 -69.27799 
L 128.562762 -70.610322 
L 127.392983 -71.942655 
L 125.905603 -73.274988 
L 124.093834 -74.60732 
L 121.982256 -75.939653 
L 119.632014 -77.271986 
L 117.141115 -78.604318 
L 114.638706 -79.936651 
L 112.273329 -81.268984 
L 110.19644 -82.601316 
L 108.543609 -83.933649 
L 107.416552 -85.265982 
L 106.869216 -86.598314 
L 106.900542 -87.930647 
L 107.455328 -89.26298 
L 108.433076 -90.595312 
L 109.703131 -91.927645 
L 111.123156 -93.259978 
L 112.557406 -94.59231 
L 113.891421 -95.924643 
L 115.040669 -97.256976 
L 115.952152 -98.589308 
L 116.599574 -99.921641 
L 116.9741 -101.253974 
L 117.073552 -102.586306 
L 116.893032 -103.918639 
L 116.419394 -105.250972 
L 115.630797 -106.583304 
L 114.501206 -107.915637 
L 113.008327 -109.24797 
L 111.142523 -110.580302 
L 108.913946 -111.912635 
L 106.355608 -113.244968 
L 103.521255 -114.5773 
L 100.478494 -115.909633 
L 97.299127 -117.241966 
L 94.049615 -118.574298 
L 90.784617 -119.906631 
L 87.545615 -121.238964 
L 84.36495 -122.571296 
L 81.273798 -123.903629 
L 78.311318 -125.235962 
L 75.531891 -126.568294 
L 73.008007 -127.900627 
L 70.827829 -129.23296 
L 69.087934 -130.565292 
L 67.883018 -131.897625 
L 67.2948 -133.229958 
L 67.382267 -134.56229 
L 68.174759 -135.894623 
L 69.66858 -137.226956 
L 71.827078 -138.559288 
L 74.58363 -139.891621 
L 77.846701 -141.223954 
L 81.506209 -142.556286 
L 85.44059 -143.888619 
L 89.524199 -145.220952 
L 93.634772 -146.553284 
L 97.660572 -147.885617 
L 101.506633 -149.21795 
L 105.099323 -150.550282 
L 108.3885 -151.882615 
L 111.346943 -153.214948 
L 113.967354 -154.54728 
L 116.257819 -155.879613 
L 118.236961 -157.211946 
L 119.929849 -158.544278 
L 121.365238 -159.876611 
L 122.574053 -161.208944 
L 123.588533 -162.541276 
L 124.441354 -163.873609 
L 125.164244 -165.205942 
L 125.786125 -166.538274 
L 126.331169 -167.870607 
L 126.817406 -169.20294 
L 127.25639 -170.535272 
L 127.654098 -171.867605 
L 128.012831 -173.199938 
L 128.333549 -174.53227 
L 128.617971 -175.864603 
L 128.869867 -177.196936 
L 129.095268 -178.529268 
L 129.301689 -179.861601 
L 129.496725 -181.193934 
L 129.686539 -182.526266 
L 129.874734 -183.858599 
L 130.061901 -185.190932 
L 130.245893 -186.523264 
L 130.422678 -187.855597 
L 130.587477 -189.18793 
L 130.735861 -190.520262 
L 130.864593 -191.852595 
L 130.972068 -193.184928 
L 131.058366 -194.51726 
L 131.124996 -195.849593 
L 131.174456 -197.181926 
L 131.209752 -198.514258 
L 131.338248 -198.514258 
L 131.338248 -198.514258 
L 131.373544 -197.181926 
L 131.423004 -195.849593 
L 131.489634 -194.51726 
L 131.575932 -193.184928 
L 131.683407 -191.852595 
L 131.812139 -190.520262 
L 131.960523 -189.18793 
L 132.125322 -187.855597 
L 132.302107 -186.523264 
L 132.486099 -185.190932 
L 132.673266 -183.858599 
L 132.861461 -182.526266 
L 133.051275 -181.193934 
L 133.246311 -179.861601 
L 133.452732 -178.529268 
L 133.678133 -177.196936 
L 133.930029 -175.864603 
L 134.214451 -174.53227 
L 134.535169 -173.199938 
L 134.893902 -171.867605 
L 135.29161 -170.535272 
L 135.730594 -169.20294 
L 136.216831 -167.870607 
L 136.761875 -166.538274 
L 137.383756 -165.205942 
L 138.106646 -163.873609 
L 138.959467 -162.541276 
L 139.973947 -161.208944 
L 141.182762 -159.876611 
L 142.618151 -158.544278 
L 144.311039 -157.211946 
L 146.290181 -155.879613 
L 148.580646 -154.54728 
L 151.201057 -153.214948 
L 154.1595 -151.882615 
L 157.448677 -150.550282 
L 161.041367 -149.21795 
L 164.887428 -147.885617 
L 168.913228 -146.553284 
L 173.023801 -145.220952 
L 177.10741 -143.888619 
L 181.041791 -142.556286 
L 184.701299 -141.223954 
L 187.96437 -139.891621 
L 190.720922 -138.559288 
L 192.87942 -137.226956 
L 194.373241 -135.894623 
L 195.165733 -134.56229 
L 195.2532 -133.229958 
L 194.664982 -131.897625 
L 193.460066 -130.565292 
L 191.720171 -129.23296 
L 189.539993 -127.900627 
L 187.016109 -126.568294 
L 184.236682 -125.235962 
L 181.274202 -123.903629 
L 178.18305 -122.571296 
L 175.002385 -121.238964 
L 171.763383 -119.906631 
L 168.498385 -118.574298 
L 165.248873 -117.241966 
L 162.069506 -115.909633 
L 159.026745 -114.5773 
L 156.192392 -113.244968 
L 153.634054 -111.912635 
L 151.405477 -110.580302 
L 149.539673 -109.24797 
L 148.046794 -107.915637 
L 146.917203 -106.583304 
L 146.128606 -105.250972 
L 145.654968 -103.918639 
L 145.474448 -102.586306 
L 145.5739 -101.253974 
L 145.948426 -99.921641 
L 146.595848 -98.589308 
L 147.507331 -97.256976 
L 148.656579 -95.924643 
L 149.990594 -94.59231 
L 151.424844 -93.259978 
L 152.844869 -91.927645 
L 154.114924 -90.595312 
L 155.092672 -89.26298 
L 155.647458 -87.930647 
L 155.678784 -86.598314 
L 155.131448 -85.265982 
L 154.004391 -83.933649 
L 152.35156 -82.601316 
L 150.274671 -81.268984 
L 147.909294 -79.936651 
L 145.406885 -78.604318 
L 142.915986 -77.271986 
L 140.565744 -75.939653 
L 138.454166 -74.60732 
L 136.642397 -73.274988 
L 135.155017 -71.942655 
L 133.985238 -70.610322 
L 133.103174 -69.27799 
L 132.465152 -67.945657 
L 132.022304 -66.613324 
z
" style="stroke: #595959; stroke-width: 1.25"/>
    </defs>
    <g clip-path="url(#pafa427fd69)">
     <use xlink:href="#m042c1f3f1e" x="0" y="432" style="fill: #72b6a1; stroke: #595959; stroke-width: 1.25"/>
    </g>
   </g>
   <g id="PolyCollection_2">
    <defs>
     <path id="m42e6f84b74" d="M 291.510347 -55.840857 
L 290.933653 -55.840857 
L 290.714614 -56.360217 
L 290.376642 -56.879578 
L 289.886156 -57.398938 
L 289.216057 -57.918299 
L 288.353357 -58.437659 
L 287.305529 -58.957019 
L 286.103314 -59.47638 
L 284.798656 -59.99574 
L 283.458114 -60.515101 
L 282.153797 -61.034461 
L 280.954707 -61.553822 
L 279.920849 -62.073182 
L 279.100767 -62.592542 
L 278.531303 -63.111903 
L 278.237367 -63.631263 
L 278.230039 -64.150624 
L 278.503031 -64.669984 
L 279.029288 -65.189345 
L 279.76026 -65.708705 
L 280.629606 -66.228065 
L 281.561378 -66.747426 
L 282.480788 -67.266786 
L 283.324573 -67.786147 
L 284.047781 -68.305507 
L 284.624772 -68.824868 
L 285.0438 -69.344228 
L 285.296455 -69.863588 
L 285.364926 -70.382949 
L 285.211193 -70.902309 
L 284.772499 -71.42167 
L 283.966505 -71.94103 
L 282.706775 -72.460391 
L 280.924762 -72.979751 
L 278.589545 -73.499111 
L 275.714322 -74.018472 
L 272.342731 -74.537832 
L 268.519032 -75.057193 
L 264.2595 -75.576553 
L 259.548758 -76.095914 
L 254.376509 -76.615274 
L 248.807651 -77.134634 
L 243.053582 -77.653995 
L 237.501509 -78.173355 
L 232.672105 -78.692716 
L 229.109498 -79.212076 
L 227.2428 -79.731437 
L 227.274519 -80.250797 
L 229.13884 -80.770157 
L 232.539949 -81.289518 
L 237.046527 -81.808878 
L 242.200686 -82.328239 
L 247.603739 -82.847599 
L 252.960041 -83.36696 
L 258.080885 -83.88632 
L 262.863038 -84.40568 
L 267.25869 -84.925041 
L 271.248711 -85.444401 
L 274.82469 -85.963762 
L 277.980431 -86.483122 
L 280.711136 -87.002482 
L 283.017413 -87.521843 
L 284.91078 -88.041203 
L 286.417557 -88.560564 
L 287.579129 -89.079924 
L 288.448362 -89.599285 
L 289.083552 -90.118645 
L 289.542022 -90.638005 
L 289.875005 -91.157366 
L 290.124485 -91.676726 
L 290.321852 -92.196087 
L 290.487974 -92.715447 
L 290.63438 -93.234808 
L 290.765359 -93.754168 
L 290.880664 -94.273528 
L 290.978267 -94.792889 
L 291.056544 -95.312249 
L 291.115465 -95.83161 
L 291.156737 -96.35097 
L 291.183186 -96.870331 
L 291.197858 -97.389691 
L 291.203207 -97.909051 
L 291.200636 -98.428412 
L 291.19048 -98.947772 
L 291.172383 -99.467133 
L 291.146019 -99.986493 
L 291.111943 -100.505854 
L 291.072333 -101.025214 
L 291.031278 -101.544574 
L 290.99437 -102.063935 
L 290.967575 -102.583295 
L 290.955696 -103.102656 
L 290.960976 -103.622016 
L 290.982411 -104.141377 
L 291.016062 -104.660737 
L 291.056237 -105.180097 
L 291.097054 -105.699458 
L 291.133805 -106.218818 
L 291.163703 -106.738179 
L 291.185915 -107.257539 
L 291.258085 -107.257539 
L 291.258085 -107.257539 
L 291.280297 -106.738179 
L 291.310195 -106.218818 
L 291.346946 -105.699458 
L 291.387763 -105.180097 
L 291.427938 -104.660737 
L 291.461589 -104.141377 
L 291.483024 -103.622016 
L 291.488304 -103.102656 
L 291.476425 -102.583295 
L 291.44963 -102.063935 
L 291.412722 -101.544574 
L 291.371667 -101.025214 
L 291.332057 -100.505854 
L 291.297981 -99.986493 
L 291.271617 -99.467133 
L 291.25352 -98.947772 
L 291.243364 -98.428412 
L 291.240793 -97.909051 
L 291.246142 -97.389691 
L 291.260814 -96.870331 
L 291.287263 -96.35097 
L 291.328535 -95.83161 
L 291.387456 -95.312249 
L 291.465733 -94.792889 
L 291.563336 -94.273528 
L 291.678641 -93.754168 
L 291.80962 -93.234808 
L 291.956026 -92.715447 
L 292.122148 -92.196087 
L 292.319515 -91.676726 
L 292.568995 -91.157366 
L 292.901978 -90.638005 
L 293.360448 -90.118645 
L 293.995638 -89.599285 
L 294.864871 -89.079924 
L 296.026443 -88.560564 
L 297.53322 -88.041203 
L 299.426587 -87.521843 
L 301.732864 -87.002482 
L 304.463569 -86.483122 
L 307.61931 -85.963762 
L 311.195289 -85.444401 
L 315.18531 -84.925041 
L 319.580962 -84.40568 
L 324.363115 -83.88632 
L 329.483959 -83.36696 
L 334.840261 -82.847599 
L 340.243314 -82.328239 
L 345.397473 -81.808878 
L 349.904051 -81.289518 
L 353.30516 -80.770157 
L 355.169481 -80.250797 
L 355.2012 -79.731437 
L 353.334502 -79.212076 
L 349.771895 -78.692716 
L 344.942491 -78.173355 
L 339.390418 -77.653995 
L 333.636349 -77.134634 
L 328.067491 -76.615274 
L 322.895242 -76.095914 
L 318.1845 -75.576553 
L 313.924968 -75.057193 
L 310.101269 -74.537832 
L 306.729678 -74.018472 
L 303.854455 -73.499111 
L 301.519238 -72.979751 
L 299.737225 -72.460391 
L 298.477495 -71.94103 
L 297.671501 -71.42167 
L 297.232807 -70.902309 
L 297.079074 -70.382949 
L 297.147545 -69.863588 
L 297.4002 -69.344228 
L 297.819228 -68.824868 
L 298.396219 -68.305507 
L 299.119427 -67.786147 
L 299.963212 -67.266786 
L 300.882622 -66.747426 
L 301.814394 -66.228065 
L 302.68374 -65.708705 
L 303.414712 -65.189345 
L 303.940969 -64.669984 
L 304.213961 -64.150624 
L 304.206633 -63.631263 
L 303.912697 -63.111903 
L 303.343233 -62.592542 
L 302.523151 -62.073182 
L 301.489293 -61.553822 
L 300.290203 -61.034461 
L 298.985886 -60.515101 
L 297.645344 -59.99574 
L 296.340686 -59.47638 
L 295.138471 -58.957019 
L 294.090643 -58.437659 
L 293.227943 -57.918299 
L 292.557844 -57.398938 
L 292.067358 -56.879578 
L 291.729386 -56.360217 
L 291.510347 -55.840857 
z
" style="stroke: #595959; stroke-width: 1.25"/>
    </defs>
    <g clip-path="url(#pafa427fd69)">
     <use xlink:href="#m42e6f84b74" x="0" y="432" style="fill: #e99675; stroke: #595959; stroke-width: 1.25"/>
    </g>
   </g>
   <g id="PolyCollection_3">
    <defs>
     <path id="m2f732e98a0" d="M 451.367746 -99.27334 
L 450.972254 -99.27334 
L 450.759549 -102.186676 
L 450.38125 -105.100013 
L 449.76592 -108.013349 
L 448.852746 -110.926685 
L 447.620445 -113.840022 
L 446.115782 -116.753358 
L 444.466654 -119.666694 
L 442.867037 -122.580031 
L 441.532538 -125.493367 
L 440.64062 -128.406703 
L 440.279103 -131.32004 
L 440.42364 -134.233376 
L 440.951623 -137.146712 
L 441.684686 -140.060049 
L 442.442856 -142.973385 
L 443.092392 -145.886721 
L 443.573914 -148.800058 
L 443.904331 -151.713394 
L 444.154099 -154.62673 
L 444.40935 -157.540067 
L 444.733682 -160.453403 
L 445.143308 -163.366739 
L 445.601593 -166.280076 
L 446.028828 -169.193412 
L 446.316605 -172.106748 
L 446.336293 -175.020085 
L 445.936095 -177.933421 
L 444.927741 -180.846757 
L 443.071443 -183.760094 
L 440.077237 -186.67343 
L 435.648109 -189.586766 
L 429.583767 -192.500103 
L 421.933444 -195.413439 
L 413.139833 -198.326775 
L 404.085197 -201.240112 
L 395.970034 -204.153448 
L 390.030213 -207.066784 
L 387.1908 -209.980121 
L 387.802188 -212.893457 
L 391.570263 -215.806793 
L 397.696862 -218.720129 
L 405.150313 -221.633466 
L 412.943738 -224.546802 
L 420.324108 -227.460138 
L 426.838169 -230.373475 
L 432.299434 -233.286811 
L 436.706966 -236.200147 
L 440.161475 -239.113484 
L 442.803521 -242.02682 
L 444.77868 -244.940156 
L 446.223051 -247.853493 
L 447.259238 -250.766829 
L 447.99479 -253.680165 
L 448.519417 -256.593502 
L 448.901766 -259.506838 
L 449.188811 -262.420174 
L 449.409878 -265.333511 
L 449.584124 -268.246847 
L 449.727688 -271.160183 
L 449.857056 -274.07352 
L 449.987837 -276.986856 
L 450.13098 -279.900192 
L 450.28955 -282.813529 
L 450.45818 -285.726865 
L 450.625548 -288.640201 
L 450.778653 -291.553538 
L 450.907068 -294.466874 
L 451.005596 -297.38021 
L 451.074666 -300.293547 
L 451.118867 -303.206883 
L 451.144647 -306.120219 
L 451.158263 -309.033556 
L 451.164537 -311.946892 
L 451.166448 -314.860228 
L 451.165228 -317.773565 
L 451.160644 -320.686901 
L 451.151352 -323.600237 
L 451.135411 -326.513574 
L 451.111128 -329.42691 
L 451.07821 -332.340246 
L 451.038847 -335.253583 
L 450.99802 -338.166919 
L 450.962441 -341.080255 
L 450.938176 -343.993591 
L 450.927917 -346.906928 
L 450.929475 -349.820264 
L 450.936601 -352.7336 
L 450.942035 -355.646937 
L 450.94126 -358.560273 
L 450.934895 -361.473609 
L 450.928368 -364.386946 
L 450.929047 -367.300282 
L 450.942463 -370.213618 
L 450.969683 -373.126955 
L 451.007049 -376.040291 
L 451.048101 -378.953627 
L 451.086349 -381.866964 
L 451.117407 -384.7803 
L 451.139724 -387.693636 
L 451.200276 -387.693636 
L 451.200276 -387.693636 
L 451.222593 -384.7803 
L 451.253651 -381.866964 
L 451.291899 -378.953627 
L 451.332951 -376.040291 
L 451.370317 -373.126955 
L 451.397537 -370.213618 
L 451.410953 -367.300282 
L 451.411632 -364.386946 
L 451.405105 -361.473609 
L 451.39874 -358.560273 
L 451.397965 -355.646937 
L 451.403399 -352.7336 
L 451.410525 -349.820264 
L 451.412083 -346.906928 
L 451.401824 -343.993591 
L 451.377559 -341.080255 
L 451.34198 -338.166919 
L 451.301153 -335.253583 
L 451.26179 -332.340246 
L 451.228872 -329.42691 
L 451.204589 -326.513574 
L 451.188648 -323.600237 
L 451.179356 -320.686901 
L 451.174772 -317.773565 
L 451.173552 -314.860228 
L 451.175463 -311.946892 
L 451.181737 -309.033556 
L 451.195353 -306.120219 
L 451.221133 -303.206883 
L 451.265334 -300.293547 
L 451.334404 -297.38021 
L 451.432932 -294.466874 
L 451.561347 -291.553538 
L 451.714452 -288.640201 
L 451.88182 -285.726865 
L 452.05045 -282.813529 
L 452.20902 -279.900192 
L 452.352163 -276.986856 
L 452.482944 -274.07352 
L 452.612312 -271.160183 
L 452.755876 -268.246847 
L 452.930122 -265.333511 
L 453.151189 -262.420174 
L 453.438234 -259.506838 
L 453.820583 -256.593502 
L 454.34521 -253.680165 
L 455.080762 -250.766829 
L 456.116949 -247.853493 
L 457.56132 -244.940156 
L 459.536479 -242.02682 
L 462.178525 -239.113484 
L 465.633034 -236.200147 
L 470.040566 -233.286811 
L 475.501831 -230.373475 
L 482.015892 -227.460138 
L 489.396262 -224.546802 
L 497.189687 -221.633466 
L 504.643138 -218.720129 
L 510.769737 -215.806793 
L 514.537812 -212.893457 
L 515.1492 -209.980121 
L 512.309787 -207.066784 
L 506.369966 -204.153448 
L 498.254803 -201.240112 
L 489.200167 -198.326775 
L 480.406556 -195.413439 
L 472.756233 -192.500103 
L 466.691891 -189.586766 
L 462.262763 -186.67343 
L 459.268557 -183.760094 
L 457.412259 -180.846757 
L 456.403905 -177.933421 
L 456.003707 -175.020085 
L 456.023395 -172.106748 
L 456.311172 -169.193412 
L 456.738407 -166.280076 
L 457.196692 -163.366739 
L 457.606318 -160.453403 
L 457.93065 -157.540067 
L 458.185901 -154.62673 
L 458.435669 -151.713394 
L 458.766086 -148.800058 
L 459.247608 -145.886721 
L 459.897144 -142.973385 
L 460.655314 -140.060049 
L 461.388377 -137.146712 
L 461.91636 -134.233376 
L 462.060897 -131.32004 
L 461.69938 -128.406703 
L 460.807462 -125.493367 
L 459.472963 -122.580031 
L 457.873346 -119.666694 
L 456.224218 -116.753358 
L 454.719555 -113.840022 
L 453.487254 -110.926685 
L 452.57408 -108.013349 
L 451.95875 -105.100013 
L 451.580451 -102.186676 
L 451.367746 -99.27334 
z
" style="stroke: #595959; stroke-width: 1.25"/>
    </defs>
    <g clip-path="url(#pafa427fd69)">
     <use xlink:href="#m2f732e98a0" x="0" y="432" style="fill: #95a3c3; stroke: #595959; stroke-width: 1.25"/>
    </g>
   </g>
   <g id="PolyCollection_4">
    <defs>
     <path id="md195247d81" d="M 611.220175 -61.690693 
L 611.015825 -61.690693 
L 610.942603 -62.179113 
L 610.832417 -62.667532 
L 610.676088 -63.155951 
L 610.466641 -63.64437 
L 610.20114 -64.13279 
L 609.882 -64.621209 
L 609.517385 -65.109628 
L 609.120573 -65.598047 
L 608.7086 -66.086467 
L 608.30066 -66.574886 
L 607.916749 -67.063305 
L 607.576688 -67.551724 
L 607.299278 -68.040144 
L 607.101032 -68.528563 
L 606.993989 -69.016982 
L 606.982584 -69.505401 
L 607.060354 -69.99382 
L 607.207933 -70.48224 
L 607.393943 -70.970659 
L 607.579655 -71.459078 
L 607.726794 -71.947497 
L 607.806367 -72.435917 
L 607.805615 -72.924336 
L 607.730672 -73.412755 
L 607.604115 -73.901174 
L 607.458342 -74.389594 
L 607.326792 -74.878013 
L 607.234951 -75.366432 
L 607.192072 -75.854851 
L 607.183577 -76.343271 
L 607.164022 -76.83169 
L 607.05149 -77.320109 
L 606.725918 -77.808528 
L 606.034665 -78.296948 
L 604.807641 -78.785367 
L 602.881056 -79.273786 
L 600.124606 -79.762205 
L 596.464328 -80.250625 
L 591.894875 -80.739044 
L 586.481224 -81.227463 
L 580.357421 -81.715882 
L 573.733064 -82.204301 
L 566.911985 -82.692721 
L 560.313114 -83.18114 
L 554.469623 -83.669559 
L 549.980828 -84.157978 
L 547.408452 -84.646398 
L 547.1388 -85.134817 
L 549.258521 -85.623236 
L 553.49661 -86.111655 
L 559.263119 -86.600075 
L 565.776114 -87.088494 
L 572.233302 -87.576913 
L 577.971197 -88.065332 
L 582.566843 -88.553752 
L 585.865125 -89.042171 
L 587.942537 -89.53059 
L 589.034084 -90.019009 
L 589.451361 -90.507429 
L 589.511833 -90.995848 
L 589.489146 -91.484267 
L 589.586315 -91.972686 
L 589.928879 -92.461105 
L 590.572584 -92.949525 
L 591.518979 -93.437944 
L 592.732543 -93.926363 
L 594.154774 -94.414782 
L 595.713636 -94.903202 
L 597.329648 -95.391621 
L 598.921317 -95.88004 
L 600.412084 -96.368459 
L 601.738999 -96.856879 
L 602.861245 -97.345298 
L 603.765711 -97.833717 
L 604.467398 -98.322136 
L 605.004156 -98.810556 
L 605.427156 -99.298975 
L 605.789763 -99.787394 
L 606.137626 -100.275813 
L 606.502069 -100.764233 
L 606.897586 -101.252652 
L 607.3231 -101.741071 
L 607.765906 -102.22949 
L 608.206973 -102.717909 
L 608.626424 -103.206329 
L 609.008156 -103.694748 
L 609.342856 -104.183167 
L 609.628918 -104.671586 
L 609.871242 -105.160006 
L 610.078477 -105.648425 
L 610.259708 -106.136844 
L 610.421745 -106.625263 
L 610.567824 -107.113683 
L 610.697918 -107.602102 
L 610.810178 -108.090521 
L 610.902696 -108.57894 
L 610.974844 -109.06736 
L 611.02779 -109.555779 
L 611.064244 -110.044198 
L 611.171756 -110.044198 
L 611.171756 -110.044198 
L 611.20821 -109.555779 
L 611.261156 -109.06736 
L 611.333304 -108.57894 
L 611.425822 -108.090521 
L 611.538082 -107.602102 
L 611.668176 -107.113683 
L 611.814255 -106.625263 
L 611.976292 -106.136844 
L 612.157523 -105.648425 
L 612.364758 -105.160006 
L 612.607082 -104.671586 
L 612.893144 -104.183167 
L 613.227844 -103.694748 
L 613.609576 -103.206329 
L 614.029027 -102.717909 
L 614.470094 -102.22949 
L 614.9129 -101.741071 
L 615.338414 -101.252652 
L 615.733931 -100.764233 
L 616.098374 -100.275813 
L 616.446237 -99.787394 
L 616.808844 -99.298975 
L 617.231844 -98.810556 
L 617.768602 -98.322136 
L 618.470289 -97.833717 
L 619.374755 -97.345298 
L 620.497001 -96.856879 
L 621.823916 -96.368459 
L 623.314683 -95.88004 
L 624.906352 -95.391621 
L 626.522364 -94.903202 
L 628.081226 -94.414782 
L 629.503457 -93.926363 
L 630.717021 -93.437944 
L 631.663416 -92.949525 
L 632.307121 -92.461105 
L 632.649685 -91.972686 
L 632.746854 -91.484267 
L 632.724167 -90.995848 
L 632.784639 -90.507429 
L 633.201916 -90.019009 
L 634.293463 -89.53059 
L 636.370875 -89.042171 
L 639.669157 -88.553752 
L 644.264803 -88.065332 
L 650.002698 -87.576913 
L 656.459886 -87.088494 
L 662.972881 -86.600075 
L 668.73939 -86.111655 
L 672.977479 -85.623236 
L 675.0972 -85.134817 
L 674.827548 -84.646398 
L 672.255172 -84.157978 
L 667.766377 -83.669559 
L 661.922886 -83.18114 
L 655.324015 -82.692721 
L 648.502936 -82.204301 
L 641.878579 -81.715882 
L 635.754776 -81.227463 
L 630.341125 -80.739044 
L 625.771672 -80.250625 
L 622.111394 -79.762205 
L 619.354944 -79.273786 
L 617.428359 -78.785367 
L 616.201335 -78.296948 
L 615.510082 -77.808528 
L 615.18451 -77.320109 
L 615.071978 -76.83169 
L 615.052423 -76.343271 
L 615.043928 -75.854851 
L 615.001049 -75.366432 
L 614.909208 -74.878013 
L 614.777658 -74.389594 
L 614.631885 -73.901174 
L 614.505328 -73.412755 
L 614.430385 -72.924336 
L 614.429633 -72.435917 
L 614.509206 -71.947497 
L 614.656345 -71.459078 
L 614.842057 -70.970659 
L 615.028067 -70.48224 
L 615.175646 -69.99382 
L 615.253416 -69.505401 
L 615.242011 -69.016982 
L 615.134968 -68.528563 
L 614.936722 -68.040144 
L 614.659312 -67.551724 
L 614.319251 -67.063305 
L 613.93534 -66.574886 
L 613.5274 -66.086467 
L 613.115427 -65.598047 
L 612.718615 -65.109628 
L 612.354 -64.621209 
L 612.03486 -64.13279 
L 611.769359 -63.64437 
L 611.559912 -63.155951 
L 611.403583 -62.667532 
L 611.293397 -62.179113 
L 611.220175 -61.690693 
z
" style="stroke: #595959; stroke-width: 1.25"/>
    </defs>
    <g clip-path="url(#pafa427fd69)">
     <use xlink:href="#md195247d81" x="0" y="432" style="fill: #db96c0; stroke: #595959; stroke-width: 1.25"/>
    </g>
   </g>
   <g id="PolyCollection_5">
    <defs>
     <path id="mc057f08642" d="M 771.357094 -53.566364 
L 770.774906 -53.566364 
L 770.5984 -53.853711 
L 770.344098 -54.141059 
L 769.993963 -54.428407 
L 769.533167 -54.715754 
L 768.953331 -55.003102 
L 768.255435 -55.29045 
L 767.451615 -55.577798 
L 766.565263 -55.865145 
L 765.629265 -56.152493 
L 764.682708 -56.439841 
L 763.766791 -56.727188 
L 762.920781 -57.014536 
L 762.178651 -57.301884 
L 761.566687 -57.589232 
L 761.101958 -57.876579 
L 760.791522 -58.163927 
L 760.632318 -58.451275 
L 760.611969 -58.738622 
L 760.710759 -59.02597 
L 760.904811 -59.313318 
L 761.169955 -59.600666 
L 761.485343 -59.888013 
L 761.835681 -60.175361 
L 762.211368 -60.462709 
L 762.606568 -60.750056 
L 763.016089 -61.037404 
L 763.432395 -61.324752 
L 763.843981 -61.6121 
L 764.235683 -61.899447 
L 764.590587 -62.186795 
L 764.892502 -62.474143 
L 765.127664 -62.76149 
L 765.284637 -63.048838 
L 765.352064 -63.336186 
L 765.314638 -63.623534 
L 765.148231 -63.910881 
L 764.815248 -64.198229 
L 764.261114 -64.485577 
L 763.412601 -64.772924 
L 762.17864 -65.060272 
L 760.454576 -65.34762 
L 758.131169 -65.634967 
L 755.109612 -65.922315 
L 751.322799 -66.209663 
L 746.760876 -66.497011 
L 741.496171 -66.784358 
L 735.700121 -67.071706 
L 729.644292 -67.359054 
L 723.680072 -67.646401 
L 718.196962 -67.933749 
L 713.566153 -68.221097 
L 710.081721 -68.508445 
L 707.91395 -68.795792 
L 707.0868 -69.08314 
L 707.485089 -69.370488 
L 708.888639 -69.657835 
L 711.023522 -69.945183 
L 713.616762 -70.232531 
L 716.441391 -70.519879 
L 719.342968 -70.807226 
L 722.244652 -71.094574 
L 725.133802 -71.381922 
L 728.037067 -71.669269 
L 730.992413 -71.956617 
L 734.025525 -72.243965 
L 737.135362 -72.531313 
L 740.290348 -72.81866 
L 743.43373 -73.106008 
L 746.49482 -73.393356 
L 749.402174 -73.680703 
L 752.095317 -73.968051 
L 754.532754 -74.255399 
L 756.695338 -74.542747 
L 758.585232 -74.830094 
L 760.221494 -75.117442 
L 761.633716 -75.40479 
L 762.855286 -75.692137 
L 763.917626 -75.979485 
L 764.846414 -76.266833 
L 765.660206 -76.55418 
L 766.371303 -76.841528 
L 766.98811 -77.128876 
L 767.518007 -77.416224 
L 767.969678 -77.703571 
L 768.354242 -77.990919 
L 768.684944 -78.278267 
L 768.975706 -78.565614 
L 769.239147 -78.852962 
L 769.484792 -79.14031 
L 769.718009 -79.427658 
L 769.939965 -79.715005 
L 770.148485 -80.002353 
L 770.339522 -80.289701 
L 770.508759 -80.577048 
L 770.652946 -80.864396 
L 770.770697 -81.151744 
L 770.862693 -81.439092 
L 770.931377 -81.726439 
L 770.980349 -82.013787 
L 771.151651 -82.013787 
L 771.151651 -82.013787 
L 771.200623 -81.726439 
L 771.269307 -81.439092 
L 771.361303 -81.151744 
L 771.479054 -80.864396 
L 771.623241 -80.577048 
L 771.792478 -80.289701 
L 771.983515 -80.002353 
L 772.192035 -79.715005 
L 772.413991 -79.427658 
L 772.647208 -79.14031 
L 772.892853 -78.852962 
L 773.156294 -78.565614 
L 773.447056 -78.278267 
L 773.777758 -77.990919 
L 774.162322 -77.703571 
L 774.613993 -77.416224 
L 775.14389 -77.128876 
L 775.760697 -76.841528 
L 776.471794 -76.55418 
L 777.285586 -76.266833 
L 778.214374 -75.979485 
L 779.276714 -75.692137 
L 780.498284 -75.40479 
L 781.910506 -75.117442 
L 783.546768 -74.830094 
L 785.436662 -74.542747 
L 787.599246 -74.255399 
L 790.036683 -73.968051 
L 792.729826 -73.680703 
L 795.63718 -73.393356 
L 798.69827 -73.106008 
L 801.841652 -72.81866 
L 804.996638 -72.531313 
L 808.106475 -72.243965 
L 811.139587 -71.956617 
L 814.094933 -71.669269 
L 816.998198 -71.381922 
L 819.887348 -71.094574 
L 822.789032 -70.807226 
L 825.690609 -70.519879 
L 828.515238 -70.232531 
L 831.108478 -69.945183 
L 833.243361 -69.657835 
L 834.646911 -69.370488 
L 835.0452 -69.08314 
L 834.21805 -68.795792 
L 832.050279 -68.508445 
L 828.565847 -68.221097 
L 823.935038 -67.933749 
L 818.451928 -67.646401 
L 812.487708 -67.359054 
L 806.431879 -67.071706 
L 800.635829 -66.784358 
L 795.371124 -66.497011 
L 790.809201 -66.209663 
L 787.022388 -65.922315 
L 784.000831 -65.634967 
L 781.677424 -65.34762 
L 779.95336 -65.060272 
L 778.719399 -64.772924 
L 777.870886 -64.485577 
L 777.316752 -64.198229 
L 776.983769 -63.910881 
L 776.817362 -63.623534 
L 776.779936 -63.336186 
L 776.847363 -63.048838 
L 777.004336 -62.76149 
L 777.239498 -62.474143 
L 777.541413 -62.186795 
L 777.896317 -61.899447 
L 778.288019 -61.6121 
L 778.699605 -61.324752 
L 779.115911 -61.037404 
L 779.525432 -60.750056 
L 779.920632 -60.462709 
L 780.296319 -60.175361 
L 780.646657 -59.888013 
L 780.962045 -59.600666 
L 781.227189 -59.313318 
L 781.421241 -59.02597 
L 781.520031 -58.738622 
L 781.499682 -58.451275 
L 781.340478 -58.163927 
L 781.030042 -57.876579 
L 780.565313 -57.589232 
L 779.953349 -57.301884 
L 779.211219 -57.014536 
L 778.365209 -56.727188 
L 777.449292 -56.439841 
L 776.502735 -56.152493 
L 775.566737 -55.865145 
L 774.680385 -55.577798 
L 773.876565 -55.29045 
L 773.178669 -55.003102 
L 772.598833 -54.715754 
L 772.138037 -54.428407 
L 771.787902 -54.141059 
L 771.5336 -53.853711 
L 771.357094 -53.566364 
z
" style="stroke: #595959; stroke-width: 1.25"/>
    </defs>
    <g clip-path="url(#pafa427fd69)">
     <use xlink:href="#mc057f08642" x="0" y="432" style="fill: #a2c865; stroke: #595959; stroke-width: 1.25"/>
    </g>
   </g>
   <g id="line2d_10">
    <path d="M 131.274 317.35482 
L 131.274 352.292408 
" clip-path="url(#pafa427fd69)" style="fill: none; stroke: #000000"/>
   </g>
   <g id="line2d_11">
    <path d="M 131.274 293.011757 
L 131.274 260.212125 
" clip-path="url(#pafa427fd69)" style="fill: none; stroke: #000000"/>
   </g>
   <g id="line2d_12">
    <path d="M 125.27595 352.292408 
L 137.27205 352.292408 
" clip-path="url(#pafa427fd69)" style="fill: none; stroke: #000000; stroke-linecap: round"/>
   </g>
   <g id="line2d_13">
    <path d="M 125.27595 260.212125 
L 137.27205 260.212125 
" clip-path="url(#pafa427fd69)" style="fill: none; stroke: #000000; stroke-linecap: round"/>
   </g>
   <g id="line2d_14">
    <path d="M 291.222 356.229634 
L 291.222 364.400436 
" clip-path="url(#pafa427fd69)" style="fill: none; stroke: #000000"/>
   </g>
   <g id="line2d_15">
    <path d="M 291.222 350.41905 
L 291.222 342.428175 
" clip-path="url(#pafa427fd69)" style="fill: none; stroke: #000000"/>
   </g>
   <g id="line2d_16">
    <path d="M 285.22395 364.400436 
L 297.22005 364.400436 
" clip-path="url(#pafa427fd69)" style="fill: none; stroke: #000000; stroke-linecap: round"/>
   </g>
   <g id="line2d_17">
    <path d="M 285.22395 342.428175 
L 297.22005 342.428175 
" clip-path="url(#pafa427fd69)" style="fill: none; stroke: #000000; stroke-linecap: round"/>
   </g>
   <g id="line2d_18">
    <path d="M 451.17 229.275267 
L 451.17 246.114316 
" clip-path="url(#pafa427fd69)" style="fill: none; stroke: #000000"/>
   </g>
   <g id="line2d_19">
    <path d="M 451.17 215.198626 
L 451.17 194.337679 
" clip-path="url(#pafa427fd69)" style="fill: none; stroke: #000000"/>
   </g>
   <g id="line2d_20">
    <path d="M 445.17195 246.114316 
L 457.16805 246.114316 
" clip-path="url(#pafa427fd69)" style="fill: none; stroke: #000000; stroke-linecap: round"/>
   </g>
   <g id="line2d_21">
    <path d="M 445.17195 194.337679 
L 457.16805 194.337679 
" clip-path="url(#pafa427fd69)" style="fill: none; stroke: #000000; stroke-linecap: round"/>
   </g>
   <g id="line2d_22">
    <path d="M 611.118 347.942408 
L 611.118 357.499706 
" clip-path="url(#pafa427fd69)" style="fill: none; stroke: #000000"/>
   </g>
   <g id="line2d_23">
    <path d="M 611.118 341.496788 
L 611.118 331.928906 
" clip-path="url(#pafa427fd69)" style="fill: none; stroke: #000000"/>
   </g>
   <g id="line2d_24">
    <path d="M 605.11995 357.499706 
L 617.11605 357.499706 
" clip-path="url(#pafa427fd69)" style="fill: none; stroke: #000000; stroke-linecap: round"/>
   </g>
   <g id="line2d_25">
    <path d="M 605.11995 331.928906 
L 617.11605 331.928906 
" clip-path="url(#pafa427fd69)" style="fill: none; stroke: #000000; stroke-linecap: round"/>
   </g>
   <g id="line2d_26">
    <path d="M 771.066 363.987662 
L 771.066 368.803355 
" clip-path="url(#pafa427fd69)" style="fill: none; stroke: #000000"/>
   </g>
   <g id="line2d_27">
    <path d="M 771.066 360.590217 
L 771.066 355.552261 
" clip-path="url(#pafa427fd69)" style="fill: none; stroke: #000000"/>
   </g>
   <g id="line2d_28">
    <path d="M 765.06795 368.803355 
L 777.06405 368.803355 
" clip-path="url(#pafa427fd69)" style="fill: none; stroke: #000000; stroke-linecap: round"/>
   </g>
   <g id="line2d_29">
    <path d="M 765.06795 355.552261 
L 777.06405 355.552261 
" clip-path="url(#pafa427fd69)" style="fill: none; stroke: #000000; stroke-linecap: round"/>
   </g>
   <g id="line2d_30">
    <path d="M 119.2779 302.526719 
L 143.2701 302.526719 
" clip-path="url(#pafa427fd69)" style="fill: none; stroke: #ff0000; stroke-width: 2"/>
   </g>
   <g id="line2d_31">
    <path d="M 279.2259 352.652262 
L 303.2181 352.652262 
" clip-path="url(#pafa427fd69)" style="fill: none; stroke: #ff0000; stroke-width: 2"/>
   </g>
   <g id="line2d_32">
    <path d="M 439.1739 223.210669 
L 463.1661 223.210669 
" clip-path="url(#pafa427fd69)" style="fill: none; stroke: #ff0000; stroke-width: 2"/>
   </g>
   <g id="line2d_33">
    <path d="M 599.1219 346.57708 
L 623.1141 346.57708 
" clip-path="url(#pafa427fd69)" style="fill: none; stroke: #ff0000; stroke-width: 2"/>
   </g>
   <g id="line2d_34">
    <path d="M 759.0699 362.96102 
L 783.0621 362.96102 
" clip-path="url(#pafa427fd69)" style="fill: none; stroke: #ff0000; stroke-width: 2"/>
   </g>
   <g id="patch_3">
    <path d="M 51.3 395.14 
L 51.3 27.6 
" style="fill: none; stroke: #cccccc; stroke-width: 1.25; stroke-linejoin: miter; stroke-linecap: square"/>
   </g>
   <g id="patch_4">
    <path d="M 851.04 395.14 
L 851.04 27.6 
" style="fill: none; stroke: #cccccc; stroke-width: 1.25; stroke-linejoin: miter; stroke-linecap: square"/>
   </g>
   <g id="patch_5">
    <path d="M 51.3 395.14 
L 851.04 395.14 
" style="fill: none; stroke: #cccccc; stroke-width: 1.25; stroke-linejoin: miter; stroke-linecap: square"/>
   </g>
   <g id="patch_6">
    <path d="M 51.3 27.6 
L 851.04 27.6 
" style="fill: none; stroke: #cccccc; stroke-width: 1.25; stroke-linejoin: miter; stroke-linecap: square"/>
   </g>
   <g id="text_16">
    <!-- Handshake duration on TLS with mldsa65 signature algorithm — ideal conditions -->
    <g style="fill: #262626" transform="translate(208.127812 21.6) scale(0.12 -0.12)">
     <defs>
      <path id="DejaVuSans-54" d="M -19 4666 
L 3928 4666 
L 3928 4134 
L 2272 4134 
L 2272 0 
L 1638 0 
L 1638 4134 
L -19 4134 
L -19 4666 
z
" transform="scale(0.015625)"/>
      <path id="DejaVuSans-4c" d="M 628 4666 
L 1259 4666 
L 1259 531 
L 3531 531 
L 3531 0 
L 628 0 
L 628 4666 
z
" transform="scale(0.015625)"/>
      <path id="DejaVuSans-53" d="M 3425 4513 
L 3425 3897 
Q 3066 4069 2747 4153 
Q 2428 4238 2131 4238 
Q 1616 4238 1336 4038 
Q 1056 3838 1056 3469 
Q 1056 3159 1242 3001 
Q 1428 2844 1947 2747 
L 2328 2669 
Q 3034 2534 3370 2195 
Q 3706 1856 3706 1288 
Q 3706 609 3251 259 
Q 2797 -91 1919 -91 
Q 1588 -91 1214 -16 
Q 841 59 441 206 
L 441 856 
Q 825 641 1194 531 
Q 1563 422 1919 422 
Q 2459 422 2753 634 
Q 3047 847 3047 1241 
Q 3047 1584 2836 1778 
Q 2625 1972 2144 2069 
L 1759 2144 
Q 1053 2284 737 2584 
Q 422 2884 422 3419 
Q 422 4038 858 4394 
Q 1294 4750 2059 4750 
Q 2388 4750 2728 4690 
Q 3069 4631 3425 4513 
z
" transform="scale(0.015625)"/>
      <path id="DejaVuSans-77" d="M 269 3500 
L 844 3500 
L 1563 769 
L 2278 3500 
L 2956 3500 
L 3675 769 
L 4391 3500 
L 4966 3500 
L 4050 0 
L 3372 0 
L 2619 2869 
L 1863 0 
L 1184 0 
L 269 3500 
z
" transform="scale(0.015625)"/>
      <path id="DejaVuSans-67" d="M 2906 1791 
Q 2906 2416 2648 2759 
Q 2391 3103 1925 3103 
Q 1463 3103 1205 2759 
Q 947 2416 947 1791 
Q 947 1169 1205 825 
Q 1463 481 1925 481 
Q 2391 481 2648 825 
Q 2906 1169 2906 1791 
z
M 3481 434 
Q 3481 -459 3084 -895 
Q 2688 -1331 1869 -1331 
Q 1566 -1331 1297 -1286 
Q 1028 -1241 775 -1147 
L 775 -588 
Q 1028 -725 1275 -790 
Q 1522 -856 1778 -856 
Q 2344 -856 2625 -561 
Q 2906 -266 2906 331 
L 2906 616 
Q 2728 306 2450 153 
Q 2172 0 1784 0 
Q 1141 0 747 490 
Q 353 981 353 1791 
Q 353 2603 747 3093 
Q 1141 3584 1784 3584 
Q 2172 3584 2450 3431 
Q 2728 3278 2906 2969 
L 2906 3500 
L 3481 3500 
L 3481 434 
z
" transform="scale(0.015625)"/>
      <path id="DejaVuSans-2014" d="M 313 1978 
L 6088 1978 
L 6088 1528 
L 313 1528 
L 313 1978 
z
" transform="scale(0.015625)"/>
      <path id="DejaVuSans-63" d="M 3122 3366 
L 3122 2828 
Q 2878 2963 2633 3030 
Q 2388 3097 2138 3097 
Q 1578 3097 1268 2742 
Q 959 2388 959 1747 
Q 959 1106 1268 751 
Q 1578 397 2138 397 
Q 2388 397 2633 464 
Q 2878 531 3122 666 
L 3122 134 
Q 2881 22 2623 -34 
Q 2366 -91 2075 -91 
Q 1284 -91 818 406 
Q 353 903 353 1747 
Q 353 2603 823 3093 
Q 1294 3584 2113 3584 
Q 2378 3584 2631 3529 
Q 2884 3475 3122 3366 
z
" transform="scale(0.015625)"/>
     </defs>
     <use xlink:href="#DejaVuSans-48"/>
     <use xlink:href="#DejaVuSans-61" x="75.195312"/>
     <use xlink:href="#DejaVuSans-6e" x="136.474609"/>
     <use xlink:href="#DejaVuSans-64" x="199.853516"/>
     <use xlink:href="#DejaVuSans-73" x="263.330078"/>
     <use xlink:href="#DejaVuSans-68" x="315.429688"/>
     <use xlink:href="#DejaVuSans-61" x="378.808594"/>
     <use xlink:href="#DejaVuSans-6b" x="440.087891"/>
     <use xlink:href="#DejaVuSans-65" x="494.373047"/>
     <use xlink:href="#DejaVuSans-20" x="555.896484"/>
     <use xlink:href="#DejaVuSans-64" x="587.683594"/>
     <use xlink:href="#DejaVuSans-75" x="651.160156"/>
     <use xlink:href="#DejaVuSans-72" x="714.539062"/>
     <use xlink:href="#DejaVuSans-61" x="755.652344"/>
     <use xlink:href="#DejaVuSans-74" x="816.931641"/>
     <use xlink:href="#DejaVuSans-69" x="856.140625"/>
     <use xlink:href="#DejaVuSans-6f" x="883.923828"/>
     <use xlink:href="#DejaVuSans-6e" x="945.105469"/>
     <use xlink:href="#DejaVuSans-20" x="1008.484375"/>
     <use xlink:href="#DejaVuSans-6f" x="1040.271484"/>
     <use xlink:href="#DejaVuSans-6e" x="1101.453125"/>
     <use xlink:href="#DejaVuSans-20" x="1164.832031"/>
     <use xlink:href="#DejaVuSans-54" x="1196.619141"/>
     <use xlink:href="#DejaVuSans-4c" x="1257.703125"/>
     <use xlink:href="#DejaVuSans-53" x="1313.416016"/>
     <use xlink:href="#DejaVuSans-20" x="1376.892578"/>
     <use xlink:href="#DejaVuSans-77" x="1408.679688"/>
     <use xlink:href="#DejaVuSans-69" x="1490.466797"/>
     <use xlink:href="#DejaVuSans-74" x="1518.25"/>
     <use xlink:href="#DejaVuSans-68" x="1557.458984"/>
     <use xlink:href="#DejaVuSans-20" x="1620.837891"/>
     <use xlink:href="#DejaVuSans-6d" x="1652.625"/>
     <use xlink:href="#DejaVuSans-6c" x="1750.037109"/>
     <use xlink:href="#DejaVuSans-64" x="1777.820312"/>
     <use xlink:href="#DejaVuSans-73" x="1841.296875"/>
     <use xlink:href="#DejaVuSans-61" x="1893.396484"/>
     <use xlink:href="#DejaVuSans-36" x="1954.675781"/>
     <use xlink:href="#DejaVuSans-35" x="2018.298828"/>
     <use xlink:href="#DejaVuSans-20" x="2081.921875"/>
     <use xlink:href="#DejaVuSans-73" x="2113.708984"/>
     <use xlink:href="#DejaVuSans-69" x="2165.808594"/>
     <use xlink:href="#DejaVuSans-67" x="2193.591797"/>
     <use xlink:href="#DejaVuSans-6e" x="2257.068359"/>
     <use xlink:href="#DejaVuSans-61" x="2320.447266"/>
     <use xlink:href="#DejaVuSans-74" x="2381.726562"/>
     <use xlink:href="#DejaVuSans-75" x="2420.935547"/>
     <use xlink:href="#DejaVuSans-72" x="2484.314453"/>
     <use xlink:href="#DejaVuSans-65" x="2523.177734"/>
     <use xlink:href="#DejaVuSans-20" x="2584.701172"/>
     <use xlink:href="#DejaVuSans-61" x="2616.488281"/>
     <use xlink:href="#DejaVuSans-6c" x="2677.767578"/>
     <use xlink:href="#DejaVuSans-67" x="2705.550781"/>
     <use xlink:href="#DejaVuSans-6f" x="2769.027344"/>
     <use xlink:href="#DejaVuSans-72" x="2830.208984"/>
     <use xlink:href="#DejaVuSans-69" x="2871.322266"/>
     <use xlink:href="#DejaVuSans-74" x="2899.105469"/>
     <use xlink:href="#DejaVuSans-68" x="2938.314453"/>
     <use xlink:href="#DejaVuSans-6d" x="3001.693359"/>
     <use xlink:href="#DejaVuSans-20" x="3099.105469"/>
     <use xlink:href="#DejaVuSans-2014" x="3130.892578"/>
     <use xlink:href="#DejaVuSans-20" x="3230.892578"/>
     <use xlink:href="#DejaVuSans-69" x="3262.679688"/>
     <use xlink:href="#DejaVuSans-64" x="3290.462891"/>
     <use xlink:href="#DejaVuSans-65" x="3353.939453"/>
     <use xlink:href="#DejaVuSans-61" x="3415.462891"/>
     <use xlink:href="#DejaVuSans-6c" x="3476.742188"/>
     <use xlink:href="#DejaVuSans-20" x="3504.525391"/>
     <use xlink:href="#DejaVuSans-63" x="3536.3125"/>
     <use xlink:href="#DejaVuSans-6f" x="3591.292969"/>
     <use xlink:href="#DejaVuSans-6e" x="3652.474609"/>
     <use xlink:href="#DejaVuSans-64" x="3715.853516"/>
     <use xlink:href="#DejaVuSans-69" x="3779.330078"/>
     <use xlink:href="#DejaVuSans-74" x="3807.113281"/>
     <use xlink:href="#DejaVuSans-69" x="3846.322266"/>
     <use xlink:href="#DejaVuSans-6f" x="3874.105469"/>
     <use xlink:href="#DejaVuSans-6e" x="3935.287109"/>
     <use xlink:href="#DejaVuSans-73" x="3998.666016"/>
    </g>
   </g>
  </g>
 </g>
 <defs>
  <clipPath id="pafa427fd69">
   <rect x="51.3" y="27.6" width="799.74" height="367.54"/>
  </clipPath>
 </defs>
</svg>
