<?xml version="1.0" encoding="utf-8" standalone="no"?>
<!DOCTYPE svg PUBLIC "-//W3C//DTD SVG 1.1//EN"
  "http://www.w3.org/Graphics/SVG/1.1/DTD/svg11.dtd">
<svg xmlns:xlink="http://www.w3.org/1999/xlink" width="864pt" height="432pt" viewBox="0 0 864 432" xmlns="http://www.w3.org/2000/svg" version="1.1">
 <metadata>
  <rdf:RDF xmlns:dc="http://purl.org/dc/elements/1.1/" xmlns:cc="http://creativecommons.org/ns#" xmlns:rdf="http://www.w3.org/1999/02/22-rdf-syntax-ns#">
   <cc:Work>
    <dc:type rdf:resource="http://purl.org/dc/dcmitype/StillImage"/>
    <dc:date>2026-03-21T13:58:41.451435</dc:date>
    <dc:format>image/svg+xml</dc:format>
    <dc:creator>
     <cc:Agent>
      <dc:title>Matplotlib v3.6.3, https://matplotlib.org/</dc:title>
     </cc:Agent>
    </dc:creator>
   </cc:Work>
  </rdf:RDF>
 </metadata>
 <defs>
  <style type="text/css">*{stroke-linejoin: round; stroke-linecap: butt}</style>
 </defs>
 <g id="figure_1">
  <g id="patch_1">
   <path d="M 0 432 
L 864 432 
L 864 0 
L 0 0 
z
" style="fill: #ffffff"/>
  </g>
  <g id="axes_1">
   <g id="patch_2">
    <path d="M 58.32 395.14 
L 851.04 395.14 
L 851.04 27.6 
L 58.32 27.6 
z
" style="fill: #ffffff"/>
   </g>
   <g id="matplotlib.axis_1">
    <g id="xtick_1">
     <g id="text_1">
      <!-- P-521 -->
      <g style="fill: #262626" transform="translate(170.49 415.277812) scale(0.14 -0.14)">
       <defs>
        <path id="DejaVuSans-50" d="M 1259 4147 
L 1259 2394 
L 2053 2394 
Q 2494 2394 2734 2622 
Q 2975 2850 2975 3272 
Q 2975 3691 2734 3919 
Q 2494 4147 2053 4147 
L 1259 4147 
z
M 628 4666 
L 2053 4666 
Q 2838 4666 3239 4311 
Q 3641 3956 3641 3272 
Q 3641 2581 3239 2228 
Q 2838 1875 2053 1875 
L 1259 1875 
L 1259 0 
L 628 0 
L 628 4666 
z
" transform="scale(0.015625)"/>
        <path id="DejaVuSans-2d" d="M 313 2009 
L 1997 2009 
L 1997 1497 
L 313 1497 
L 313 2009 
z
" transform="scale(0.015625)"/>
        <path id="DejaVuSans-35" d="M 691 4666 
L 3169 4666 
L 3169 4134 
L 1269 4134 
L 1269 2991 
Q 1406 3038 1543 3061 
Q 1681 3084 1819 3084 
Q 2600 3084 3056 2656 
Q 3513 2228 3513 1497 
Q 3513 744 3044 326 
Q 2575 -91 1722 -91 
Q 1428 -91 1123 -41 
Q 819 9 494 109 
L 494 744 
Q 775 591 1075 516 
Q 1375 441 1709 441 
Q 2250 441 2565 725 
Q 2881 1009 2881 1497 
Q 2881 1984 2565 2268 
Q 2250 2553 1709 2553 
Q 1456 2553 1204 2497 
Q 953 2441 691 2322 
L 691 4666 
z
" transform="scale(0.015625)"/>
        <path id="DejaVuSans-32" d="M 1228 531 
L 3431 531 
L 3431 0 
L 469 0 
L 469 531 
Q 828 903 1448 1529 
Q 2069 2156 2228 2338 
Q 2531 2678 2651 2914 
Q 2772 3150 2772 3378 
Q 2772 3750 2511 3984 
Q 2250 4219 1831 4219 
Q 1534 4219 1204 4116 
Q 875 4013 500 3803 
L 500 4441 
Q 881 4594 1212 4672 
Q 1544 4750 1819 4750 
Q 2544 4750 2975 4387 
Q 3406 4025 3406 3419 
Q 3406 3131 3298 2873 
Q 3191 2616 2906 2266 
Q 2828 2175 2409 1742 
Q 1991 1309 1228 531 
z
" transform="scale(0.015625)"/>
        <path id="DejaVuSans-31" d="M 794 531 
L 1825 531 
L 1825 4091 
L 703 3866 
L 703 4441 
L 1819 4666 
L 2450 4666 
L 2450 531 
L 3481 531 
L 3481 0 
L 794 0 
L 794 531 
z
" transform="scale(0.015625)"/>
       </defs>
       <use xlink:href="#DejaVuSans-50"/>
       <use xlink:href="#DejaVuSans-2d" x="58.052734"/>
       <use xlink:href="#DejaVuSans-35" x="94.136719"/>
       <use xlink:href="#DejaVuSans-32" x="157.759766"/>
       <use xlink:href="#DejaVuSans-31" x="221.382812"/>
      </g>
     </g>
    </g>
    <g id="xtick_2">
     <g id="text_2">
      <!-- p521_mlkem1024 -->
      <g style="fill: #262626" transform="translate(391.871406 415.277812) scale(0.14 -0.14)">
       <defs>
        <path id="DejaVuSans-70" d="M 1159 525 
L 1159 -1331 
L 581 -1331 
L 581 3500 
L 1159 3500 
L 1159 2969 
Q 1341 3281 1617 3432 
Q 1894 3584 2278 3584 
Q 2916 3584 3314 3078 
Q 3713 2572 3713 1747 
Q 3713 922 3314 415 
Q 2916 -91 2278 -91 
Q 1894 -91 1617 61 
Q 1341 213 1159 525 
z
M 3116 1747 
Q 3116 2381 2855 2742 
Q 2594 3103 2138 3103 
Q 1681 3103 1420 2742 
Q 1159 2381 1159 1747 
Q 1159 1113 1420 752 
Q 1681 391 2138 391 
Q 2594 391 2855 752 
Q 3116 1113 3116 1747 
z
" transform="scale(0.015625)"/>
        <path id="DejaVuSans-5f" d="M 3263 -1063 
L 3263 -1509 
L -63 -1509 
L -63 -1063 
L 3263 -1063 
z
" transform="scale(0.015625)"/>
        <path id="DejaVuSans-6d" d="M 3328 2828 
Q 3544 3216 3844 3400 
Q 4144 3584 4550 3584 
Q 5097 3584 5394 3201 
Q 5691 2819 5691 2113 
L 5691 0 
L 5113 0 
L 5113 2094 
Q 5113 2597 4934 2840 
Q 4756 3084 4391 3084 
Q 3944 3084 3684 2787 
Q 3425 2491 3425 1978 
L 3425 0 
L 2847 0 
L 2847 2094 
Q 2847 2600 2669 2842 
Q 2491 3084 2119 3084 
Q 1678 3084 1418 2786 
Q 1159 2488 1159 1978 
L 1159 0 
L 581 0 
L 581 3500 
L 1159 3500 
L 1159 2956 
Q 1356 3278 1631 3431 
Q 1906 3584 2284 3584 
Q 2666 3584 2933 3390 
Q 3200 3197 3328 2828 
z
" transform="scale(0.015625)"/>
        <path id="DejaVuSans-6c" d="M 603 4863 
L 1178 4863 
L 1178 0 
L 603 0 
L 603 4863 
z
" transform="scale(0.015625)"/>
        <path id="DejaVuSans-6b" d="M 581 4863 
L 1159 4863 
L 1159 1991 
L 2875 3500 
L 3609 3500 
L 1753 1863 
L 3688 0 
L 2938 0 
L 1159 1709 
L 1159 0 
L 581 0 
L 581 4863 
z
" transform="scale(0.015625)"/>
        <path id="DejaVuSans-65" d="M 3597 1894 
L 3597 1613 
L 953 1613 
Q 991 1019 1311 708 
Q 1631 397 2203 397 
Q 2534 397 2845 478 
Q 3156 559 3463 722 
L 3463 178 
Q 3153 47 2828 -22 
Q 2503 -91 2169 -91 
Q 1331 -91 842 396 
Q 353 884 353 1716 
Q 353 2575 817 3079 
Q 1281 3584 2069 3584 
Q 2775 3584 3186 3129 
Q 3597 2675 3597 1894 
z
M 3022 2063 
Q 3016 2534 2758 2815 
Q 2500 3097 2075 3097 
Q 1594 3097 1305 2825 
Q 1016 2553 972 2059 
L 3022 2063 
z
" transform="scale(0.015625)"/>
        <path id="DejaVuSans-30" d="M 2034 4250 
Q 1547 4250 1301 3770 
Q 1056 3291 1056 2328 
Q 1056 1369 1301 889 
Q 1547 409 2034 409 
Q 2525 409 2770 889 
Q 3016 1369 3016 2328 
Q 3016 3291 2770 3770 
Q 2525 4250 2034 4250 
z
M 2034 4750 
Q 2819 4750 3233 4129 
Q 3647 3509 3647 2328 
Q 3647 1150 3233 529 
Q 2819 -91 2034 -91 
Q 1250 -91 836 529 
Q 422 1150 422 2328 
Q 422 3509 836 4129 
Q 1250 4750 2034 4750 
z
" transform="scale(0.015625)"/>
        <path id="DejaVuSans-34" d="M 2419 4116 
L 825 1625 
L 2419 1625 
L 2419 4116 
z
M 2253 4666 
L 3047 4666 
L 3047 1625 
L 3713 1625 
L 3713 1100 
L 3047 1100 
L 3047 0 
L 2419 0 
L 2419 1100 
L 313 1100 
L 313 1709 
L 2253 4666 
z
" transform="scale(0.015625)"/>
       </defs>
       <use xlink:href="#DejaVuSans-70"/>
       <use xlink:href="#DejaVuSans-35" x="63.476562"/>
       <use xlink:href="#DejaVuSans-32" x="127.099609"/>
       <use xlink:href="#DejaVuSans-31" x="190.722656"/>
       <use xlink:href="#DejaVuSans-5f" x="254.345703"/>
       <use xlink:href="#DejaVuSans-6d" x="304.345703"/>
       <use xlink:href="#DejaVuSans-6c" x="401.757812"/>
       <use xlink:href="#DejaVuSans-6b" x="429.541016"/>
       <use xlink:href="#DejaVuSans-65" x="483.826172"/>
       <use xlink:href="#DejaVuSans-6d" x="545.349609"/>
       <use xlink:href="#DejaVuSans-31" x="642.761719"/>
       <use xlink:href="#DejaVuSans-30" x="706.384766"/>
       <use xlink:href="#DejaVuSans-32" x="770.007812"/>
       <use xlink:href="#DejaVuSans-34" x="833.630859"/>
      </g>
     </g>
    </g>
    <g id="xtick_3">
     <g id="text_3">
      <!-- mlkem1024 -->
      <g style="fill: #262626" transform="translate(677.416562 415.277812) scale(0.14 -0.14)">
       <use xlink:href="#DejaVuSans-6d"/>
       <use xlink:href="#DejaVuSans-6c" x="97.412109"/>
       <use xlink:href="#DejaVuSans-6b" x="125.195312"/>
       <use xlink:href="#DejaVuSans-65" x="179.480469"/>
       <use xlink:href="#DejaVuSans-6d" x="241.003906"/>
       <use xlink:href="#DejaVuSans-31" x="338.416016"/>
       <use xlink:href="#DejaVuSans-30" x="402.039062"/>
       <use xlink:href="#DejaVuSans-32" x="465.662109"/>
       <use xlink:href="#DejaVuSans-34" x="529.285156"/>
      </g>
     </g>
    </g>
   </g>
   <g id="matplotlib.axis_2">
    <g id="ytick_1">
     <g id="line2d_1">
      <path d="M 58.32 383.353421 
L 851.04 383.353421 
" clip-path="url(#p50fa63aa9f)" style="fill: none; stroke: #cccccc; stroke-linecap: round"/>
     </g>
     <g id="text_4">
      <!-- 0 -->
      <g style="fill: #262626" transform="translate(41.82125 387.532562) scale(0.11 -0.11)">
       <use xlink:href="#DejaVuSans-30"/>
      </g>
     </g>
    </g>
    <g id="ytick_2">
     <g id="line2d_2">
      <path d="M 58.32 312.748916 
L 851.04 312.748916 
" clip-path="url(#p50fa63aa9f)" style="fill: none; stroke: #cccccc; stroke-linecap: round"/>
     </g>
     <g id="text_5">
      <!-- 20 -->
      <g style="fill: #262626" transform="translate(34.8225 316.928057) scale(0.11 -0.11)">
       <use xlink:href="#DejaVuSans-32"/>
       <use xlink:href="#DejaVuSans-30" x="63.623047"/>
      </g>
     </g>
    </g>
    <g id="ytick_3">
     <g id="line2d_3">
      <path d="M 58.32 242.144411 
L 851.04 242.144411 
" clip-path="url(#p50fa63aa9f)" style="fill: none; stroke: #cccccc; stroke-linecap: round"/>
     </g>
     <g id="text_6">
      <!-- 40 -->
      <g style="fill: #262626" transform="translate(34.8225 246.323552) scale(0.11 -0.11)">
       <use xlink:href="#DejaVuSans-34"/>
       <use xlink:href="#DejaVuSans-30" x="63.623047"/>
      </g>
     </g>
    </g>
    <g id="ytick_4">
     <g id="line2d_4">
      <path d="M 58.32 171.539906 
L 851.04 171.539906 
" clip-path="url(#p50fa63aa9f)" style="fill: none; stroke: #cccccc; stroke-linecap: round"/>
     </g>
     <g id="text_7">
      <!-- 60 -->
      <g style="fill: #262626" transform="translate(34.8225 175.719047) scale(0.11 -0.11)">
       <defs>
        <path id="DejaVuSans-36" d="M 2113 2584 
Q 1688 2584 1439 2293 
Q 1191 2003 1191 1497 
Q 1191 994 1439 701 
Q 1688 409 2113 409 
Q 2538 409 2786 701 
Q 3034 994 3034 1497 
Q 3034 2003 2786 2293 
Q 2538 2584 2113 2584 
z
M 3366 4563 
L 3366 3988 
Q 3128 4100 2886 4159 
Q 2644 4219 2406 4219 
Q 1781 4219 1451 3797 
Q 1122 3375 1075 2522 
Q 1259 2794 1537 2939 
Q 1816 3084 2150 3084 
Q 2853 3084 3261 2657 
Q 3669 2231 3669 1497 
Q 3669 778 3244 343 
Q 2819 -91 2113 -91 
Q 1303 -91 875 529 
Q 447 1150 447 2328 
Q 447 3434 972 4092 
Q 1497 4750 2381 4750 
Q 2619 4750 2861 4703 
Q 3103 4656 3366 4563 
z
" transform="scale(0.015625)"/>
       </defs>
       <use xlink:href="#DejaVuSans-36"/>
       <use xlink:href="#DejaVuSans-30" x="63.623047"/>
      </g>
     </g>
    </g>
    <g id="ytick_5">
     <g id="line2d_5">
      <path d="M 58.32 100.935401 
L 851.04 100.935401 
" clip-path="url(#p50fa63aa9f)" style="fill: none; stroke: #cccccc; stroke-linecap: round"/>
     </g>
     <g id="text_8">
      <!-- 80 -->
      <g style="fill: #262626" transform="translate(34.8225 105.114541) scale(0.11 -0.11)">
       <defs>
        <path id="DejaVuSans-38" d="M 2034 2216 
Q 1584 2216 1326 1975 
Q 1069 1734 1069 1313 
Q 1069 891 1326 650 
Q 1584 409 2034 409 
Q 2484 409 2743 651 
Q 3003 894 3003 1313 
Q 3003 1734 2745 1975 
Q 2488 2216 2034 2216 
z
M 1403 2484 
Q 997 2584 770 2862 
Q 544 3141 544 3541 
Q 544 4100 942 4425 
Q 1341 4750 2034 4750 
Q 2731 4750 3128 4425 
Q 3525 4100 3525 3541 
Q 3525 3141 3298 2862 
Q 3072 2584 2669 2484 
Q 3125 2378 3379 2068 
Q 3634 1759 3634 1313 
Q 3634 634 3220 271 
Q 2806 -91 2034 -91 
Q 1263 -91 848 271 
Q 434 634 434 1313 
Q 434 1759 690 2068 
Q 947 2378 1403 2484 
z
M 1172 3481 
Q 1172 3119 1398 2916 
Q 1625 2713 2034 2713 
Q 2441 2713 2670 2916 
Q 2900 3119 2900 3481 
Q 2900 3844 2670 4047 
Q 2441 4250 2034 4250 
Q 1625 4250 1398 4047 
Q 1172 3844 1172 3481 
z
" transform="scale(0.015625)"/>
       </defs>
       <use xlink:href="#DejaVuSans-38"/>
       <use xlink:href="#DejaVuSans-30" x="63.623047"/>
      </g>
     </g>
    </g>
    <g id="ytick_6">
     <g id="line2d_6">
      <path d="M 58.32 30.330896 
L 851.04 30.330896 
" clip-path="url(#p50fa63aa9f)" style="fill: none; stroke: #cccccc; stroke-linecap: round"/>
     </g>
     <g id="text_9">
      <!-- 100 -->
      <g style="fill: #262626" transform="translate(27.82375 34.510036) scale(0.11 -0.11)">
       <use xlink:href="#DejaVuSans-31"/>
       <use xlink:href="#DejaVuSans-30" x="63.623047"/>
       <use xlink:href="#DejaVuSans-30" x="127.246094"/>
      </g>
     </g>
    </g>
    <g id="text_10">
     <!-- Handshake duration (ms) -->
     <g style="fill: #262626" transform="translate(21.328125 287.437813) rotate(-90) scale(0.12 -0.12)">
      <defs>
       <path id="DejaVuSans-48" d="M 628 4666 
L 1259 4666 
L 1259 2753 
L 3553 2753 
L 3553 4666 
L 4184 4666 
L 4184 0 
L 3553 0 
L 3553 2222 
L 1259 2222 
L 1259 0 
L 628 0 
L 628 4666 
z
" transform="scale(0.015625)"/>
       <path id="DejaVuSans-61" d="M 2194 1759 
Q 1497 1759 1228 1600 
Q 959 1441 959 1056 
Q 959 750 1161 570 
Q 1363 391 1709 391 
Q 2188 391 2477 730 
Q 2766 1069 2766 1631 
L 2766 1759 
L 2194 1759 
z
M 3341 1997 
L 3341 0 
L 2766 0 
L 2766 531 
Q 2569 213 2275 61 
Q 1981 -91 1556 -91 
Q 1019 -91 701 211 
Q 384 513 384 1019 
Q 384 1609 779 1909 
Q 1175 2209 1959 2209 
L 2766 2209 
L 2766 2266 
Q 2766 2663 2505 2880 
Q 2244 3097 1772 3097 
Q 1472 3097 1187 3025 
Q 903 2953 641 2809 
L 641 3341 
Q 956 3463 1253 3523 
Q 1550 3584 1831 3584 
Q 2591 3584 2966 3190 
Q 3341 2797 3341 1997 
z
" transform="scale(0.015625)"/>
       <path id="DejaVuSans-6e" d="M 3513 2113 
L 3513 0 
L 2938 0 
L 2938 2094 
Q 2938 2591 2744 2837 
Q 2550 3084 2163 3084 
Q 1697 3084 1428 2787 
Q 1159 2491 1159 1978 
L 1159 0 
L 581 0 
L 581 3500 
L 1159 3500 
L 1159 2956 
Q 1366 3272 1645 3428 
Q 1925 3584 2291 3584 
Q 2894 3584 3203 3211 
Q 3513 2838 3513 2113 
z
" transform="scale(0.015625)"/>
       <path id="DejaVuSans-64" d="M 2906 2969 
L 2906 4863 
L 3481 4863 
L 3481 0 
L 2906 0 
L 2906 525 
Q 2725 213 2448 61 
Q 2172 -91 1784 -91 
Q 1150 -91 751 415 
Q 353 922 353 1747 
Q 353 2572 751 3078 
Q 1150 3584 1784 3584 
Q 2172 3584 2448 3432 
Q 2725 3281 2906 2969 
z
M 947 1747 
Q 947 1113 1208 752 
Q 1469 391 1925 391 
Q 2381 391 2643 752 
Q 2906 1113 2906 1747 
Q 2906 2381 2643 2742 
Q 2381 3103 1925 3103 
Q 1469 3103 1208 2742 
Q 947 2381 947 1747 
z
" transform="scale(0.015625)"/>
       <path id="DejaVuSans-73" d="M 2834 3397 
L 2834 2853 
Q 2591 2978 2328 3040 
Q 2066 3103 1784 3103 
Q 1356 3103 1142 2972 
Q 928 2841 928 2578 
Q 928 2378 1081 2264 
Q 1234 2150 1697 2047 
L 1894 2003 
Q 2506 1872 2764 1633 
Q 3022 1394 3022 966 
Q 3022 478 2636 193 
Q 2250 -91 1575 -91 
Q 1294 -91 989 -36 
Q 684 19 347 128 
L 347 722 
Q 666 556 975 473 
Q 1284 391 1588 391 
Q 1994 391 2212 530 
Q 2431 669 2431 922 
Q 2431 1156 2273 1281 
Q 2116 1406 1581 1522 
L 1381 1569 
Q 847 1681 609 1914 
Q 372 2147 372 2553 
Q 372 3047 722 3315 
Q 1072 3584 1716 3584 
Q 2034 3584 2315 3537 
Q 2597 3491 2834 3397 
z
" transform="scale(0.015625)"/>
       <path id="DejaVuSans-68" d="M 3513 2113 
L 3513 0 
L 2938 0 
L 2938 2094 
Q 2938 2591 2744 2837 
Q 2550 3084 2163 3084 
Q 1697 3084 1428 2787 
Q 1159 2491 1159 1978 
L 1159 0 
L 581 0 
L 581 4863 
L 1159 4863 
L 1159 2956 
Q 1366 3272 1645 3428 
Q 1925 3584 2291 3584 
Q 2894 3584 3203 3211 
Q 3513 2838 3513 2113 
z
" transform="scale(0.015625)"/>
       <path id="DejaVuSans-20" transform="scale(0.015625)"/>
       <path id="DejaVuSans-75" d="M 544 1381 
L 544 3500 
L 1119 3500 
L 1119 1403 
Q 1119 906 1312 657 
Q 1506 409 1894 409 
Q 2359 409 2629 706 
Q 2900 1003 2900 1516 
L 2900 3500 
L 3475 3500 
L 3475 0 
L 2900 0 
L 2900 538 
Q 2691 219 2414 64 
Q 2138 -91 1772 -91 
Q 1169 -91 856 284 
Q 544 659 544 1381 
z
M 1991 3584 
L 1991 3584 
z
" transform="scale(0.015625)"/>
       <path id="DejaVuSans-72" d="M 2631 2963 
Q 2534 3019 2420 3045 
Q 2306 3072 2169 3072 
Q 1681 3072 1420 2755 
Q 1159 2438 1159 1844 
L 1159 0 
L 581 0 
L 581 3500 
L 1159 3500 
L 1159 2956 
Q 1341 3275 1631 3429 
Q 1922 3584 2338 3584 
Q 2397 3584 2469 3576 
Q 2541 3569 2628 3553 
L 2631 2963 
z
" transform="scale(0.015625)"/>
       <path id="DejaVuSans-74" d="M 1172 4494 
L 1172 3500 
L 2356 3500 
L 2356 3053 
L 1172 3053 
L 1172 1153 
Q 1172 725 1289 603 
Q 1406 481 1766 481 
L 2356 481 
L 2356 0 
L 1766 0 
Q 1100 0 847 248 
Q 594 497 594 1153 
L 594 3053 
L 172 3053 
L 172 3500 
L 594 3500 
L 594 4494 
L 1172 4494 
z
" transform="scale(0.015625)"/>
       <path id="DejaVuSans-69" d="M 603 3500 
L 1178 3500 
L 1178 0 
L 603 0 
L 603 3500 
z
M 603 4863 
L 1178 4863 
L 1178 4134 
L 603 4134 
L 603 4863 
z
" transform="scale(0.015625)"/>
       <path id="DejaVuSans-6f" d="M 1959 3097 
Q 1497 3097 1228 2736 
Q 959 2375 959 1747 
Q 959 1119 1226 758 
Q 1494 397 1959 397 
Q 2419 397 2687 759 
Q 2956 1122 2956 1747 
Q 2956 2369 2687 2733 
Q 2419 3097 1959 3097 
z
M 1959 3584 
Q 2709 3584 3137 3096 
Q 3566 2609 3566 1747 
Q 3566 888 3137 398 
Q 2709 -91 1959 -91 
Q 1206 -91 779 398 
Q 353 888 353 1747 
Q 353 2609 779 3096 
Q 1206 3584 1959 3584 
z
" transform="scale(0.015625)"/>
       <path id="DejaVuSans-28" d="M 1984 4856 
Q 1566 4138 1362 3434 
Q 1159 2731 1159 2009 
Q 1159 1288 1364 580 
Q 1569 -128 1984 -844 
L 1484 -844 
Q 1016 -109 783 600 
Q 550 1309 550 2009 
Q 550 2706 781 3412 
Q 1013 4119 1484 4856 
L 1984 4856 
z
" transform="scale(0.015625)"/>
       <path id="DejaVuSans-29" d="M 513 4856 
L 1013 4856 
Q 1481 4119 1714 3412 
Q 1947 2706 1947 2009 
Q 1947 1309 1714 600 
Q 1481 -109 1013 -844 
L 513 -844 
Q 928 -128 1133 580 
Q 1338 1288 1338 2009 
Q 1338 2731 1133 3434 
Q 928 4138 513 4856 
z
" transform="scale(0.015625)"/>
      </defs>
      <use xlink:href="#DejaVuSans-48"/>
      <use xlink:href="#DejaVuSans-61" x="75.195312"/>
      <use xlink:href="#DejaVuSans-6e" x="136.474609"/>
      <use xlink:href="#DejaVuSans-64" x="199.853516"/>
      <use xlink:href="#DejaVuSans-73" x="263.330078"/>
      <use xlink:href="#DejaVuSans-68" x="315.429688"/>
      <use xlink:href="#DejaVuSans-61" x="378.808594"/>
      <use xlink:href="#DejaVuSans-6b" x="440.087891"/>
      <use xlink:href="#DejaVuSans-65" x="494.373047"/>
      <use xlink:href="#DejaVuSans-20" x="555.896484"/>
      <use xlink:href="#DejaVuSans-64" x="587.683594"/>
      <use xlink:href="#DejaVuSans-75" x="651.160156"/>
      <use xlink:href="#DejaVuSans-72" x="714.539062"/>
      <use xlink:href="#DejaVuSans-61" x="755.652344"/>
      <use xlink:href="#DejaVuSans-74" x="816.931641"/>
      <use xlink:href="#DejaVuSans-69" x="856.140625"/>
      <use xlink:href="#DejaVuSans-6f" x="883.923828"/>
      <use xlink:href="#DejaVuSans-6e" x="945.105469"/>
      <use xlink:href="#DejaVuSans-20" x="1008.484375"/>
      <use xlink:href="#DejaVuSans-28" x="1040.271484"/>
      <use xlink:href="#DejaVuSans-6d" x="1079.285156"/>
      <use xlink:href="#DejaVuSans-73" x="1176.697266"/>
      <use xlink:href="#DejaVuSans-29" x="1228.796875"/>
     </g>
    </g>
   </g>
   <g id="PolyCollection_1">
    <defs>
     <path id="mc7c5dcf7b0" d="M 190.563612 -91.211855 
L 190.316388 -91.211855 
L 190.196646 -93.036704 
L 189.993881 -94.861554 
L 189.678 -96.686403 
L 189.226319 -98.511253 
L 188.635074 -100.336102 
L 187.928478 -102.160952 
L 187.159109 -103.985802 
L 186.395981 -105.810651 
L 185.703329 -107.635501 
L 185.120158 -109.46035 
L 184.652441 -111.2852 
L 184.283412 -113.110049 
L 183.995905 -114.934899 
L 183.792169 -116.759749 
L 183.697767 -118.584598 
L 183.746668 -120.409448 
L 183.956698 -122.234297 
L 184.309971 -124.059147 
L 184.748815 -125.883996 
L 185.188572 -127.708846 
L 185.540783 -129.533696 
L 185.737588 -131.358545 
L 185.74962 -133.183395 
L 185.593002 -135.008244 
L 185.324363 -136.833094 
L 185.025907 -138.657943 
L 184.785128 -140.482793 
L 184.674978 -142.307643 
L 184.739402 -144.132492 
L 184.98646 -145.957342 
L 185.387878 -147.782191 
L 185.88114 -149.607041 
L 186.368848 -151.431891 
L 186.710206 -153.25674 
L 186.701781 -155.08159 
L 186.050539 -156.906439 
L 184.352253 -158.731289 
L 181.099665 -160.556138 
L 175.748341 -162.380988 
L 167.854071 -164.205838 
L 157.261823 -166.030687 
L 144.286214 -167.855537 
L 129.801856 -169.680386 
L 115.178512 -171.505236 
L 102.049439 -173.330085 
L 91.967708 -175.154935 
L 86.05345 -176.979785 
L 84.744 -178.804634 
L 87.726376 -180.629484 
L 94.069602 -182.454333 
L 102.505553 -184.279183 
L 111.757964 -186.104032 
L 120.811883 -187.928882 
L 129.052894 -189.753732 
L 136.265599 -191.578581 
L 142.531598 -193.403431 
L 148.086969 -195.22828 
L 153.189852 -197.05313 
L 158.027234 -198.877979 
L 162.671492 -200.702829 
L 167.084804 -202.527679 
L 171.159602 -204.352528 
L 174.774739 -206.177378 
L 177.844179 -208.002227 
L 180.341653 -209.827077 
L 182.298349 -211.651926 
L 183.783302 -213.476776 
L 184.880818 -215.301626 
L 185.675113 -217.126475 
L 186.244296 -218.951325 
L 186.659739 -220.776174 
L 186.98568 -222.601024 
L 187.276352 -224.425873 
L 187.571256 -226.250723 
L 187.891035 -228.075573 
L 188.236295 -229.900422 
L 188.590291 -231.725272 
L 188.925067 -233.550121 
L 189.209787 -235.374971 
L 189.419739 -237.19982 
L 189.54412 -239.02467 
L 189.59035 -240.84952 
L 189.582777 -242.674369 
L 189.555201 -244.499219 
L 189.539443 -246.324068 
L 189.554745 -248.148918 
L 189.60307 -249.973767 
L 189.672521 -251.798617 
L 189.746608 -253.623467 
L 189.813865 -255.448316 
L 189.872607 -257.273166 
L 189.929058 -259.098015 
L 189.991244 -260.922865 
L 190.063052 -262.747715 
L 190.141867 -264.572564 
L 190.220318 -266.397414 
L 190.290174 -268.222263 
L 190.345785 -270.047113 
L 190.385495 -271.871962 
L 190.494505 -271.871962 
L 190.494505 -271.871962 
L 190.534215 -270.047113 
L 190.589826 -268.222263 
L 190.659682 -266.397414 
L 190.738133 -264.572564 
L 190.816948 -262.747715 
L 190.888756 -260.922865 
L 190.950942 -259.098015 
L 191.007393 -257.273166 
L 191.066135 -255.448316 
L 191.133392 -253.623467 
L 191.207479 -251.798617 
L 191.27693 -249.973767 
L 191.325255 -248.148918 
L 191.340557 -246.324068 
L 191.324799 -244.499219 
L 191.297223 -242.674369 
L 191.28965 -240.84952 
L 191.33588 -239.02467 
L 191.460261 -237.19982 
L 191.670213 -235.374971 
L 191.954933 -233.550121 
L 192.289709 -231.725272 
L 192.643705 -229.900422 
L 192.988965 -228.075573 
L 193.308744 -226.250723 
L 193.603648 -224.425873 
L 193.89432 -222.601024 
L 194.220261 -220.776174 
L 194.635704 -218.951325 
L 195.204887 -217.126475 
L 195.999182 -215.301626 
L 197.096698 -213.476776 
L 198.581651 -211.651926 
L 200.538347 -209.827077 
L 203.035821 -208.002227 
L 206.105261 -206.177378 
L 209.720398 -204.352528 
L 213.795196 -202.527679 
L 218.208508 -200.702829 
L 222.852766 -198.877979 
L 227.690148 -197.05313 
L 232.793031 -195.22828 
L 238.348402 -193.403431 
L 244.614401 -191.578581 
L 251.827106 -189.753732 
L 260.068117 -187.928882 
L 269.122036 -186.104032 
L 278.374447 -184.279183 
L 286.810398 -182.454333 
L 293.153624 -180.629484 
L 296.136 -178.804634 
L 294.82655 -176.979785 
L 288.912292 -175.154935 
L 278.830561 -173.330085 
L 265.701488 -171.505236 
L 251.078144 -169.680386 
L 236.593786 -167.855537 
L 223.618177 -166.030687 
L 213.025929 -164.205838 
L 205.131659 -162.380988 
L 199.780335 -160.556138 
L 196.527747 -158.731289 
L 194.829461 -156.906439 
L 194.178219 -155.08159 
L 194.169794 -153.25674 
L 194.511152 -151.431891 
L 194.99886 -149.607041 
L 195.492122 -147.782191 
L 195.89354 -145.957342 
L 196.140598 -144.132492 
L 196.205022 -142.307643 
L 196.094872 -140.482793 
L 195.854093 -138.657943 
L 195.555637 -136.833094 
L 195.286998 -135.008244 
L 195.13038 -133.183395 
L 195.142412 -131.358545 
L 195.339217 -129.533696 
L 195.691428 -127.708846 
L 196.131185 -125.883996 
L 196.570029 -124.059147 
L 196.923302 -122.234297 
L 197.133332 -120.409448 
L 197.182233 -118.584598 
L 197.087831 -116.759749 
L 196.884095 -114.934899 
L 196.596588 -113.110049 
L 196.227559 -111.2852 
L 195.759842 -109.46035 
L 195.176671 -107.635501 
L 194.484019 -105.810651 
L 193.720891 -103.985802 
L 192.951522 -102.160952 
L 192.244926 -100.336102 
L 191.653681 -98.511253 
L 191.202 -96.686403 
L 190.886119 -94.861554 
L 190.683354 -93.036704 
L 190.563612 -91.211855 
z
" style="stroke: #595959; stroke-width: 1.25"/>
    </defs>
    <g clip-path="url(#p50fa63aa9f)">
     <use xlink:href="#mc7c5dcf7b0" x="0" y="432" style="fill: #72b6a1; stroke: #595959; stroke-width: 1.25"/>
    </g>
   </g>
   <g id="PolyCollection_2">
    <defs>
     <path id="m6e5670b9e1" d="M 455.479213 -109.962367 
L 453.880787 -109.962367 
L 453.475588 -112.767734 
L 452.921101 -115.5731 
L 452.190161 -118.378466 
L 451.262601 -121.183833 
L 450.130503 -123.989199 
L 448.803091 -126.794565 
L 447.310197 -129.599932 
L 445.703172 -132.405298 
L 444.052534 -135.210664 
L 442.442171 -138.016031 
L 440.960759 -140.821397 
L 439.691699 -143.626764 
L 438.703381 -146.43213 
L 438.041577 -149.237496 
L 437.72533 -152.042863 
L 437.746939 -154.848229 
L 438.075694 -157.653595 
L 438.664256 -160.458962 
L 439.456111 -163.264328 
L 440.39254 -166.069694 
L 441.417946 -168.875061 
L 442.482995 -171.680427 
L 443.545673 -174.485793 
L 444.570824 -177.29116 
L 445.528942 -180.096526 
L 446.39491 -182.901893 
L 447.147157 -185.707259 
L 447.767427 -188.512625 
L 448.241133 -191.317992 
L 448.558166 -194.123358 
L 448.714017 -196.928724 
L 448.711043 -199.734091 
L 448.559702 -202.539457 
L 448.279438 -205.344823 
L 447.898813 -208.15019 
L 447.454398 -210.955556 
L 446.988045 -213.760922 
L 446.542452 -216.566289 
L 446.155358 -219.371655 
L 445.853176 -222.177021 
L 445.645207 -224.982388 
L 445.51957 -227.787754 
L 445.441741 -230.593121 
L 445.35598 -233.398487 
L 445.189268 -236.203853 
L 444.856885 -239.00922 
L 444.268543 -241.814586 
L 443.334225 -244.619952 
L 441.969384 -247.425319 
L 440.099757 -250.230685 
L 437.666362 -253.036051 
L 434.631128 -255.841418 
L 430.982924 -258.646784 
L 426.742811 -261.45215 
L 421.966466 -264.257517 
L 416.741582 -267.062883 
L 411.178836 -269.868249 
L 405.396942 -272.673616 
L 399.504697 -275.478982 
L 393.585153 -278.284349 
L 387.687874 -281.089715 
L 381.83413 -283.895081 
L 376.036599 -286.700448 
L 370.330482 -289.505814 
L 364.808267 -292.31118 
L 359.647366 -295.116547 
L 355.119906 -297.921913 
L 351.577459 -300.727279 
L 349.409784 -303.532646 
L 348.984 -306.338012 
L 350.576706 -309.143378 
L 354.314471 -311.948745 
L 360.136866 -314.754111 
L 367.791006 -317.559478 
L 376.859059 -320.364844 
L 386.812521 -323.17021 
L 397.081407 -325.975577 
L 407.12425 -328.780943 
L 416.486179 -331.586309 
L 424.836524 -334.391676 
L 431.982869 -337.197042 
L 437.863668 -340.002408 
L 442.525169 -342.807775 
L 446.089987 -345.613141 
L 448.724325 -348.418507 
L 450.609136 -351.223874 
L 451.918297 -354.02924 
L 452.804676 -356.834606 
L 453.393403 -359.639973 
L 453.780731 -362.445339 
L 454.036572 -365.250706 
L 454.208991 -368.056072 
L 454.329289 -370.861438 
L 454.416791 -373.666805 
L 454.482856 -376.472171 
L 454.533931 -379.277537 
L 454.573688 -382.082904 
L 454.604383 -384.88827 
L 454.627626 -387.693636 
L 454.732374 -387.693636 
L 454.732374 -387.693636 
L 454.755617 -384.88827 
L 454.786312 -382.082904 
L 454.826069 -379.277537 
L 454.877144 -376.472171 
L 454.943209 -373.666805 
L 455.030711 -370.861438 
L 455.151009 -368.056072 
L 455.323428 -365.250706 
L 455.579269 -362.445339 
L 455.966597 -359.639973 
L 456.555324 -356.834606 
L 457.441703 -354.02924 
L 458.750864 -351.223874 
L 460.635675 -348.418507 
L 463.270013 -345.613141 
L 466.834831 -342.807775 
L 471.496332 -340.002408 
L 477.377131 -337.197042 
L 484.523476 -334.391676 
L 492.873821 -331.586309 
L 502.23575 -328.780943 
L 512.278593 -325.975577 
L 522.547479 -323.17021 
L 532.500941 -320.364844 
L 541.568994 -317.559478 
L 549.223134 -314.754111 
L 555.045529 -311.948745 
L 558.783294 -309.143378 
L 560.376 -306.338012 
L 559.950216 -303.532646 
L 557.782541 -300.727279 
L 554.240094 -297.921913 
L 549.712634 -295.116547 
L 544.551733 -292.31118 
L 539.029518 -289.505814 
L 533.323401 -286.700448 
L 527.52587 -283.895081 
L 521.672126 -281.089715 
L 515.774847 -278.284349 
L 509.855303 -275.478982 
L 503.963058 -272.673616 
L 498.181164 -269.868249 
L 492.618418 -267.062883 
L 487.393534 -264.257517 
L 482.617189 -261.45215 
L 478.377076 -258.646784 
L 474.728872 -255.841418 
L 471.693638 -253.036051 
L 469.260243 -250.230685 
L 467.390616 -247.425319 
L 466.025775 -244.619952 
L 465.091457 -241.814586 
L 464.503115 -239.00922 
L 464.170732 -236.203853 
L 464.00402 -233.398487 
L 463.918259 -230.593121 
L 463.84043 -227.787754 
L 463.714793 -224.982388 
L 463.506824 -222.177021 
L 463.204642 -219.371655 
L 462.817548 -216.566289 
L 462.371955 -213.760922 
L 461.905602 -210.955556 
L 461.461187 -208.15019 
L 461.080562 -205.344823 
L 460.800298 -202.539457 
L 460.648957 -199.734091 
L 460.645983 -196.928724 
L 460.801834 -194.123358 
L 461.118867 -191.317992 
L 461.592573 -188.512625 
L 462.212843 -185.707259 
L 462.96509 -182.901893 
L 463.831058 -180.096526 
L 464.789176 -177.29116 
L 465.814327 -174.485793 
L 466.877005 -171.680427 
L 467.942054 -168.875061 
L 468.96746 -166.069694 
L 469.903889 -163.264328 
L 470.695744 -160.458962 
L 471.284306 -157.653595 
L 471.613061 -154.848229 
L 471.63467 -152.042863 
L 471.318423 -149.237496 
L 470.656619 -146.43213 
L 469.668301 -143.626764 
L 468.399241 -140.821397 
L 466.917829 -138.016031 
L 465.307466 -135.210664 
L 463.656828 -132.405298 
L 462.049803 -129.599932 
L 460.556909 -126.794565 
L 459.229497 -123.989199 
L 458.097399 -121.183833 
L 457.169839 -118.378466 
L 456.438899 -115.5731 
L 455.884412 -112.767734 
L 455.479213 -109.962367 
z
" style="stroke: #595959; stroke-width: 1.25"/>
    </defs>
    <g clip-path="url(#p50fa63aa9f)">
     <use xlink:href="#m6e5670b9e1" x="0" y="432" style="fill: #e99675; stroke: #595959; stroke-width: 1.25"/>
    </g>
   </g>
   <g id="PolyCollection_3">
    <defs>
     <path id="m7dbc41da05" d="M 719.438736 -53.566364 
L 718.401264 -53.566364 
L 718.061345 -53.861004 
L 717.563681 -54.155645 
L 716.872461 -54.450285 
L 715.960455 -54.744926 
L 714.815215 -55.039567 
L 713.443022 -55.334207 
L 711.869146 -55.628848 
L 710.134319 -55.923488 
L 708.288898 -56.218129 
L 706.387273 -56.51277 
L 704.484898 -56.80741 
L 702.638802 -57.102051 
L 700.910395 -57.396691 
L 699.367803 -57.691332 
L 698.0848 -57.985973 
L 697.134827 -58.280613 
L 696.580792 -58.575254 
L 696.463294 -58.869894 
L 696.790769 -59.164535 
L 697.534548 -59.459176 
L 698.630377 -59.753816 
L 699.986216 -60.048457 
L 701.49467 -60.343097 
L 703.047404 -60.637738 
L 704.548533 -60.932379 
L 705.924119 -61.227019 
L 707.125595 -61.52166 
L 708.126172 -61.8163 
L 708.910868 -62.110941 
L 709.462466 -62.405582 
L 709.746948 -62.700222 
L 709.70217 -62.994863 
L 709.232511 -63.289503 
L 708.210199 -63.584144 
L 706.481978 -63.878785 
L 703.878967 -64.173425 
L 700.228827 -64.468066 
L 695.372067 -64.762706 
L 689.186721 -65.057347 
L 681.624917 -65.351988 
L 672.759679 -65.646628 
L 662.831668 -65.941269 
L 652.277619 -66.235909 
L 641.720478 -66.53055 
L 631.9092 -66.825191 
L 623.612709 -67.119831 
L 617.491317 -67.414472 
L 613.98092 -67.709112 
L 613.224 -68.003753 
L 615.066439 -68.298394 
L 619.116714 -68.593034 
L 624.844229 -68.887675 
L 631.684513 -69.182315 
L 639.123232 -69.476956 
L 646.744517 -69.771597 
L 654.244469 -70.066237 
L 661.421037 -70.360878 
L 668.153865 -70.655518 
L 674.383751 -70.950159 
L 680.095189 -71.2448 
L 685.301232 -71.53944 
L 690.029133 -71.834081 
L 694.307082 -72.128721 
L 698.154399 -72.423362 
L 701.577828 -72.718003 
L 704.574806 -73.012643 
L 707.141804 -73.307284 
L 709.28392 -73.601924 
L 711.021756 -73.896565 
L 712.393195 -74.191206 
L 713.450026 -74.485846 
L 714.251244 -74.780487 
L 714.855642 -75.075127 
L 715.315932 -75.369768 
L 715.675552 -75.664409 
L 715.968144 -75.959049 
L 716.218789 -76.25369 
L 716.445816 -76.54833 
L 716.662203 -76.842971 
L 716.876166 -77.137612 
L 717.09113 -77.432252 
L 717.305697 -77.726893 
L 717.514274 -78.021533 
L 717.708685 -78.316174 
L 717.880606 -78.610815 
L 718.024167 -78.905455 
L 718.137865 -79.200096 
L 718.225121 -79.494736 
L 718.293266 -79.789377 
L 718.35136 -80.084018 
L 718.407635 -80.378658 
L 718.467455 -80.673299 
L 718.532416 -80.967939 
L 718.600705 -81.26258 
L 718.66839 -81.557221 
L 718.73103 -81.851861 
L 718.785051 -82.146502 
L 718.8285 -82.441142 
L 718.86115 -82.735783 
L 718.97885 -82.735783 
L 718.97885 -82.735783 
L 719.0115 -82.441142 
L 719.054949 -82.146502 
L 719.10897 -81.851861 
L 719.17161 -81.557221 
L 719.239295 -81.26258 
L 719.307584 -80.967939 
L 719.372545 -80.673299 
L 719.432365 -80.378658 
L 719.48864 -80.084018 
L 719.546734 -79.789377 
L 719.614879 -79.494736 
L 719.702135 -79.200096 
L 719.815833 -78.905455 
L 719.959394 -78.610815 
L 720.131315 -78.316174 
L 720.325726 -78.021533 
L 720.534303 -77.726893 
L 720.74887 -77.432252 
L 720.963834 -77.137612 
L 721.177797 -76.842971 
L 721.394184 -76.54833 
L 721.621211 -76.25369 
L 721.871856 -75.959049 
L 722.164448 -75.664409 
L 722.524068 -75.369768 
L 722.984358 -75.075127 
L 723.588756 -74.780487 
L 724.389974 -74.485846 
L 725.446805 -74.191206 
L 726.818244 -73.896565 
L 728.55608 -73.601924 
L 730.698196 -73.307284 
L 733.265194 -73.012643 
L 736.262172 -72.718003 
L 739.685601 -72.423362 
L 743.532918 -72.128721 
L 747.810867 -71.834081 
L 752.538768 -71.53944 
L 757.744811 -71.2448 
L 763.456249 -70.950159 
L 769.686135 -70.655518 
L 776.418963 -70.360878 
L 783.595531 -70.066237 
L 791.095483 -69.771597 
L 798.716768 -69.476956 
L 806.155487 -69.182315 
L 812.995771 -68.887675 
L 818.723286 -68.593034 
L 822.773561 -68.298394 
L 824.616 -68.003753 
L 823.85908 -67.709112 
L 820.348683 -67.414472 
L 814.227291 -67.119831 
L 805.9308 -66.825191 
L 796.119522 -66.53055 
L 785.562381 -66.235909 
L 775.008332 -65.941269 
L 765.080321 -65.646628 
L 756.215083 -65.351988 
L 748.653279 -65.057347 
L 742.467933 -64.762706 
L 737.611173 -64.468066 
L 733.961033 -64.173425 
L 731.358022 -63.878785 
L 729.629801 -63.584144 
L 728.607489 -63.289503 
L 728.13783 -62.994863 
L 728.093052 -62.700222 
L 728.377534 -62.405582 
L 728.929132 -62.110941 
L 729.713828 -61.8163 
L 730.714405 -61.52166 
L 731.915881 -61.227019 
L 733.291467 -60.932379 
L 734.792596 -60.637738 
L 736.34533 -60.343097 
L 737.853784 -60.048457 
L 739.209623 -59.753816 
L 740.305452 -59.459176 
L 741.049231 -59.164535 
L 741.376706 -58.869894 
L 741.259208 -58.575254 
L 740.705173 -58.280613 
L 739.7552 -57.985973 
L 738.472197 -57.691332 
L 736.929605 -57.396691 
L 735.201198 -57.102051 
L 733.355102 -56.80741 
L 731.452727 -56.51277 
L 729.551102 -56.218129 
L 727.705681 -55.923488 
L 725.970854 -55.628848 
L 724.396978 -55.334207 
L 723.024785 -55.039567 
L 721.879545 -54.744926 
L 720.967539 -54.450285 
L 720.276319 -54.155645 
L 719.778655 -53.861004 
L 719.438736 -53.566364 
z
" style="stroke: #595959; stroke-width: 1.25"/>
    </defs>
    <g clip-path="url(#p50fa63aa9f)">
     <use xlink:href="#m7dbc41da05" x="0" y="432" style="fill: #95a3c3; stroke: #595959; stroke-width: 1.25"/>
    </g>
   </g>
   <g id="line2d_7">
    <path d="M 190.44 257.915692 
L 190.44 278.717545 
" clip-path="url(#p50fa63aa9f)" style="fill: none; stroke: #000000"/>
   </g>
   <g id="line2d_8">
    <path d="M 190.44 243.900698 
L 190.44 223.151799 
" clip-path="url(#p50fa63aa9f)" style="fill: none; stroke: #000000"/>
   </g>
   <g id="line2d_9">
    <path d="M 180.531 278.717545 
L 200.349 278.717545 
" clip-path="url(#p50fa63aa9f)" style="fill: none; stroke: #000000; stroke-linecap: round"/>
   </g>
   <g id="line2d_10">
    <path d="M 180.531 223.151799 
L 200.349 223.151799 
" clip-path="url(#p50fa63aa9f)" style="fill: none; stroke: #000000; stroke-linecap: round"/>
   </g>
   <g id="line2d_11">
    <path d="M 454.68 155.000801 
L 454.68 203.664956 
" clip-path="url(#p50fa63aa9f)" style="fill: none; stroke: #000000"/>
   </g>
   <g id="line2d_12">
    <path d="M 454.68 122.107927 
L 454.68 74.741129 
" clip-path="url(#p50fa63aa9f)" style="fill: none; stroke: #000000"/>
   </g>
   <g id="line2d_13">
    <path d="M 444.771 203.664956 
L 464.589 203.664956 
" clip-path="url(#p50fa63aa9f)" style="fill: none; stroke: #000000; stroke-linecap: round"/>
   </g>
   <g id="line2d_14">
    <path d="M 444.771 74.741129 
L 464.589 74.741129 
" clip-path="url(#p50fa63aa9f)" style="fill: none; stroke: #000000; stroke-linecap: round"/>
   </g>
   <g id="line2d_15">
    <path d="M 718.92 365.719946 
L 718.92 369.585543 
" clip-path="url(#p50fa63aa9f)" style="fill: none; stroke: #000000"/>
   </g>
   <g id="line2d_16">
    <path d="M 718.92 362.763382 
L 718.92 358.359426 
" clip-path="url(#p50fa63aa9f)" style="fill: none; stroke: #000000"/>
   </g>
   <g id="line2d_17">
    <path d="M 709.011 369.585543 
L 728.829 369.585543 
" clip-path="url(#p50fa63aa9f)" style="fill: none; stroke: #000000; stroke-linecap: round"/>
   </g>
   <g id="line2d_18">
    <path d="M 709.011 358.359426 
L 728.829 358.359426 
" clip-path="url(#p50fa63aa9f)" style="fill: none; stroke: #000000; stroke-linecap: round"/>
   </g>
   <g id="line2d_19">
    <path d="M 170.622 252.752738 
L 210.258 252.752738 
" clip-path="url(#p50fa63aa9f)" style="fill: none; stroke: #ff0000; stroke-width: 2"/>
   </g>
   <g id="line2d_20">
    <path d="M 434.862 132.795684 
L 474.498 132.795684 
" clip-path="url(#p50fa63aa9f)" style="fill: none; stroke: #ff0000; stroke-width: 2"/>
   </g>
   <g id="line2d_21">
    <path d="M 699.102 364.325507 
L 738.738 364.325507 
" clip-path="url(#p50fa63aa9f)" style="fill: none; stroke: #ff0000; stroke-width: 2"/>
   </g>
   <g id="patch_3">
    <path d="M 58.32 395.14 
L 58.32 27.6 
" style="fill: none; stroke: #cccccc; stroke-width: 1.25; stroke-linejoin: miter; stroke-linecap: square"/>
   </g>
   <g id="patch_4">
    <path d="M 851.04 395.14 
L 851.04 27.6 
" style="fill: none; stroke: #cccccc; stroke-width: 1.25; stroke-linejoin: miter; stroke-linecap: square"/>
   </g>
   <g id="patch_5">
    <path d="M 58.32 395.14 
L 851.04 395.14 
" style="fill: none; stroke: #cccccc; stroke-width: 1.25; stroke-linejoin: miter; stroke-linecap: square"/>
   </g>
   <g id="patch_6">
    <path d="M 58.32 27.6 
L 851.04 27.6 
" style="fill: none; stroke: #cccccc; stroke-width: 1.25; stroke-linejoin: miter; stroke-linecap: square"/>
   </g>
   <g id="text_11">
    <!-- Handshake duration on TLS with mldsa87 signature algorithm — ideal conditions -->
    <g style="fill: #262626" transform="translate(211.637812 21.6) scale(0.12 -0.12)">
     <defs>
      <path id="DejaVuSans-54" d="M -19 4666 
L 3928 4666 
L 3928 4134 
L 2272 4134 
L 2272 0 
L 1638 0 
L 1638 4134 
L -19 4134 
L -19 4666 
z
" transform="scale(0.015625)"/>
      <path id="DejaVuSans-4c" d="M 628 4666 
L 1259 4666 
L 1259 531 
L 3531 531 
L 3531 0 
L 628 0 
L 628 4666 
z
" transform="scale(0.015625)"/>
      <path id="DejaVuSans-53" d="M 3425 4513 
L 3425 3897 
Q 3066 4069 2747 4153 
Q 2428 4238 2131 4238 
Q 1616 4238 1336 4038 
Q 1056 3838 1056 3469 
Q 1056 3159 1242 3001 
Q 1428 2844 1947 2747 
L 2328 2669 
Q 3034 2534 3370 2195 
Q 3706 1856 3706 1288 
Q 3706 609 3251 259 
Q 2797 -91 1919 -91 
Q 1588 -91 1214 -16 
Q 841 59 441 206 
L 441 856 
Q 825 641 1194 531 
Q 1563 422 1919 422 
Q 2459 422 2753 634 
Q 3047 847 3047 1241 
Q 3047 1584 2836 1778 
Q 2625 1972 2144 2069 
L 1759 2144 
Q 1053 2284 737 2584 
Q 422 2884 422 3419 
Q 422 4038 858 4394 
Q 1294 4750 2059 4750 
Q 2388 4750 2728 4690 
Q 3069 4631 3425 4513 
z
" transform="scale(0.015625)"/>
      <path id="DejaVuSans-77" d="M 269 3500 
L 844 3500 
L 1563 769 
L 2278 3500 
L 2956 3500 
L 3675 769 
L 4391 3500 
L 4966 3500 
L 4050 0 
L 3372 0 
L 2619 2869 
L 1863 0 
L 1184 0 
L 269 3500 
z
" transform="scale(0.015625)"/>
      <path id="DejaVuSans-37" d="M 525 4666 
L 3525 4666 
L 3525 4397 
L 1831 0 
L 1172 0 
L 2766 4134 
L 525 4134 
L 525 4666 
z
" transform="scale(0.015625)"/>
      <path id="DejaVuSans-67" d="M 2906 1791 
Q 2906 2416 2648 2759 
Q 2391 3103 1925 3103 
Q 1463 3103 1205 2759 
Q 947 2416 947 1791 
Q 947 1169 1205 825 
Q 1463 481 1925 481 
Q 2391 481 2648 825 
Q 2906 1169 2906 1791 
z
M 3481 434 
Q 3481 -459 3084 -895 
Q 2688 -1331 1869 -1331 
Q 1566 -1331 1297 -1286 
Q 1028 -1241 775 -1147 
L 775 -588 
Q 1028 -725 1275 -790 
Q 1522 -856 1778 -856 
Q 2344 -856 2625 -561 
Q 2906 -266 2906 331 
L 2906 616 
Q 2728 306 2450 153 
Q 2172 0 1784 0 
Q 1141 0 747 490 
Q 353 981 353 1791 
Q 353 2603 747 3093 
Q 1141 3584 1784 3584 
Q 2172 3584 2450 3431 
Q 2728 3278 2906 2969 
L 2906 3500 
L 3481 3500 
L 3481 434 
z
" transform="scale(0.015625)"/>
      <path id="DejaVuSans-2014" d="M 313 1978 
L 6088 1978 
L 6088 1528 
L 313 1528 
L 313 1978 
z
" transform="scale(0.015625)"/>
      <path id="DejaVuSans-63" d="M 3122 3366 
L 3122 2828 
Q 2878 2963 2633 3030 
Q 2388 3097 2138 3097 
Q 1578 3097 1268 2742 
Q 959 2388 959 1747 
Q 959 1106 1268 751 
Q 1578 397 2138 397 
Q 2388 397 2633 464 
Q 2878 531 3122 666 
L 3122 134 
Q 2881 22 2623 -34 
Q 2366 -91 2075 -91 
Q 1284 -91 818 406 
Q 353 903 353 1747 
Q 353 2603 823 3093 
Q 1294 3584 2113 3584 
Q 2378 3584 2631 3529 
Q 2884 3475 3122 3366 
z
" transform="scale(0.015625)"/>
     </defs>
     <use xlink:href="#DejaVuSans-48"/>
     <use xlink:href="#DejaVuSans-61" x="75.195312"/>
     <use xlink:href="#DejaVuSans-6e" x="136.474609"/>
     <use xlink:href="#DejaVuSans-64" x="199.853516"/>
     <use xlink:href="#DejaVuSans-73" x="263.330078"/>
     <use xlink:href="#DejaVuSans-68" x="315.429688"/>
     <use xlink:href="#DejaVuSans-61" x="378.808594"/>
     <use xlink:href="#DejaVuSans-6b" x="440.087891"/>
     <use xlink:href="#DejaVuSans-65" x="494.373047"/>
     <use xlink:href="#DejaVuSans-20" x="555.896484"/>
     <use xlink:href="#DejaVuSans-64" x="587.683594"/>
     <use xlink:href="#DejaVuSans-75" x="651.160156"/>
     <use xlink:href="#DejaVuSans-72" x="714.539062"/>
     <use xlink:href="#DejaVuSans-61" x="755.652344"/>
     <use xlink:href="#DejaVuSans-74" x="816.931641"/>
     <use xlink:href="#DejaVuSans-69" x="856.140625"/>
     <use xlink:href="#DejaVuSans-6f" x="883.923828"/>
     <use xlink:href="#DejaVuSans-6e" x="945.105469"/>
     <use xlink:href="#DejaVuSans-20" x="1008.484375"/>
     <use xlink:href="#DejaVuSans-6f" x="1040.271484"/>
     <use xlink:href="#DejaVuSans-6e" x="1101.453125"/>
     <use xlink:href="#DejaVuSans-20" x="1164.832031"/>
     <use xlink:href="#DejaVuSans-54" x="1196.619141"/>
     <use xlink:href="#DejaVuSans-4c" x="1257.703125"/>
     <use xlink:href="#DejaVuSans-53" x="1313.416016"/>
     <use xlink:href="#DejaVuSans-20" x="1376.892578"/>
     <use xlink:href="#DejaVuSans-77" x="1408.679688"/>
     <use xlink:href="#DejaVuSans-69" x="1490.466797"/>
     <use xlink:href="#DejaVuSans-74" x="1518.25"/>
     <use xlink:href="#DejaVuSans-68" x="1557.458984"/>
     <use xlink:href="#DejaVuSans-20" x="1620.837891"/>
     <use xlink:href="#DejaVuSans-6d" x="1652.625"/>
     <use xlink:href="#DejaVuSans-6c" x="1750.037109"/>
     <use xlink:href="#DejaVuSans-64" x="1777.820312"/>
     <use xlink:href="#DejaVuSans-73" x="1841.296875"/>
     <use xlink:href="#DejaVuSans-61" x="1893.396484"/>
     <use xlink:href="#DejaVuSans-38" x="1954.675781"/>
     <use xlink:href="#DejaVuSans-37" x="2018.298828"/>
     <use xlink:href="#DejaVuSans-20" x="2081.921875"/>
     <use xlink:href="#DejaVuSans-73" x="2113.708984"/>
     <use xlink:href="#DejaVuSans-69" x="2165.808594"/>
     <use xlink:href="#DejaVuSans-67" x="2193.591797"/>
     <use xlink:href="#DejaVuSans-6e" x="2257.068359"/>
     <use xlink:href="#DejaVuSans-61" x="2320.447266"/>
     <use xlink:href="#DejaVuSans-74" x="2381.726562"/>
     <use xlink:href="#DejaVuSans-75" x="2420.935547"/>
     <use xlink:href="#DejaVuSans-72" x="2484.314453"/>
     <use xlink:href="#DejaVuSans-65" x="2523.177734"/>
     <use xlink:href="#DejaVuSans-20" x="2584.701172"/>
     <use xlink:href="#DejaVuSans-61" x="2616.488281"/>
     <use xlink:href="#DejaVuSans-6c" x="2677.767578"/>
     <use xlink:href="#DejaVuSans-67" x="2705.550781"/>
     <use xlink:href="#DejaVuSans-6f" x="2769.027344"/>
     <use xlink:href="#DejaVuSans-72" x="2830.208984"/>
     <use xlink:href="#DejaVuSans-69" x="2871.322266"/>
     <use xlink:href="#DejaVuSans-74" x="2899.105469"/>
     <use xlink:href="#DejaVuSans-68" x="2938.314453"/>
     <use xlink:href="#DejaVuSans-6d" x="3001.693359"/>
     <use xlink:href="#DejaVuSans-20" x="3099.105469"/>
     <use xlink:href="#DejaVuSans-2014" x="3130.892578"/>
     <use xlink:href="#DejaVuSans-20" x="3230.892578"/>
     <use xlink:href="#DejaVuSans-69" x="3262.679688"/>
     <use xlink:href="#DejaVuSans-64" x="3290.462891"/>
     <use xlink:href="#DejaVuSans-65" x="3353.939453"/>
     <use xlink:href="#DejaVuSans-61" x="3415.462891"/>
     <use xlink:href="#DejaVuSans-6c" x="3476.742188"/>
     <use xlink:href="#DejaVuSans-20" x="3504.525391"/>
     <use xlink:href="#DejaVuSans-63" x="3536.3125"/>
     <use xlink:href="#DejaVuSans-6f" x="3591.292969"/>
     <use xlink:href="#DejaVuSans-6e" x="3652.474609"/>
     <use xlink:href="#DejaVuSans-64" x="3715.853516"/>
     <use xlink:href="#DejaVuSans-69" x="3779.330078"/>
     <use xlink:href="#DejaVuSans-74" x="3807.113281"/>
     <use xlink:href="#DejaVuSans-69" x="3846.322266"/>
     <use xlink:href="#DejaVuSans-6f" x="3874.105469"/>
     <use xlink:href="#DejaVuSans-6e" x="3935.287109"/>
     <use xlink:href="#DejaVuSans-73" x="3998.666016"/>
    </g>
   </g>
  </g>
 </g>
 <defs>
  <clipPath id="p50fa63aa9f">
   <rect x="58.32" y="27.6" width="792.72" height="367.54"/>
  </clipPath>
 </defs>
</svg>
