<?xml version="1.0" encoding="utf-8" standalone="no"?>
<!DOCTYPE svg PUBLIC "-//W3C//DTD SVG 1.1//EN"
  "http://www.w3.org/Graphics/SVG/1.1/DTD/svg11.dtd">
<svg xmlns:xlink="http://www.w3.org/1999/xlink" width="864pt" height="432pt" viewBox="0 0 864 432" xmlns="http://www.w3.org/2000/svg" version="1.1">
 <metadata>
  <rdf:RDF xmlns:dc="http://purl.org/dc/elements/1.1/" xmlns:cc="http://creativecommons.org/ns#" xmlns:rdf="http://www.w3.org/1999/02/22-rdf-syntax-ns#">
   <cc:Work>
    <dc:type rdf:resource="http://purl.org/dc/dcmitype/StillImage"/>
    <dc:date>2026-03-21T13:58:41.713826</dc:date>
    <dc:format>image/svg+xml</dc:format>
    <dc:creator>
     <cc:Agent>
      <dc:title>Matplotlib v3.6.3, https://matplotlib.org/</dc:title>
     </cc:Agent>
    </dc:creator>
   </cc:Work>
  </rdf:RDF>
 </metadata>
 <defs>
  <style type="text/css">*{stroke-linejoin: round; stroke-linecap: butt}</style>
 </defs>
 <g id="figure_1">
  <g id="patch_1">
   <path d="M 0 432 
L 864 432 
L 864 0 
L 0 0 
z
" style="fill: #ffffff"/>
  </g>
  <g id="axes_1">
   <g id="patch_2">
    <path d="M 51.3 395.14 
L 851.04 395.14 
L 851.04 27.6 
L 51.3 27.6 
z
" style="fill: #ffffff"/>
   </g>
   <g id="matplotlib.axis_1">
    <g id="xtick_1">
     <g id="text_1">
      <!-- P-384 -->
      <g style="fill: #262626" transform="translate(111.324 415.277812) scale(0.14 -0.14)">
       <defs>
        <path id="DejaVuSans-50" d="M 1259 4147 
L 1259 2394 
L 2053 2394 
Q 2494 2394 2734 2622 
Q 2975 2850 2975 3272 
Q 2975 3691 2734 3919 
Q 2494 4147 2053 4147 
L 1259 4147 
z
M 628 4666 
L 2053 4666 
Q 2838 4666 3239 4311 
Q 3641 3956 3641 3272 
Q 3641 2581 3239 2228 
Q 2838 1875 2053 1875 
L 1259 1875 
L 1259 0 
L 628 0 
L 628 4666 
z
" transform="scale(0.015625)"/>
        <path id="DejaVuSans-2d" d="M 313 2009 
L 1997 2009 
L 1997 1497 
L 313 1497 
L 313 2009 
z
" transform="scale(0.015625)"/>
        <path id="DejaVuSans-33" d="M 2597 2516 
Q 3050 2419 3304 2112 
Q 3559 1806 3559 1356 
Q 3559 666 3084 287 
Q 2609 -91 1734 -91 
Q 1441 -91 1130 -33 
Q 819 25 488 141 
L 488 750 
Q 750 597 1062 519 
Q 1375 441 1716 441 
Q 2309 441 2620 675 
Q 2931 909 2931 1356 
Q 2931 1769 2642 2001 
Q 2353 2234 1838 2234 
L 1294 2234 
L 1294 2753 
L 1863 2753 
Q 2328 2753 2575 2939 
Q 2822 3125 2822 3475 
Q 2822 3834 2567 4026 
Q 2313 4219 1838 4219 
Q 1578 4219 1281 4162 
Q 984 4106 628 3988 
L 628 4550 
Q 988 4650 1302 4700 
Q 1616 4750 1894 4750 
Q 2613 4750 3031 4423 
Q 3450 4097 3450 3541 
Q 3450 3153 3228 2886 
Q 3006 2619 2597 2516 
z
" transform="scale(0.015625)"/>
        <path id="DejaVuSans-38" d="M 2034 2216 
Q 1584 2216 1326 1975 
Q 1069 1734 1069 1313 
Q 1069 891 1326 650 
Q 1584 409 2034 409 
Q 2484 409 2743 651 
Q 3003 894 3003 1313 
Q 3003 1734 2745 1975 
Q 2488 2216 2034 2216 
z
M 1403 2484 
Q 997 2584 770 2862 
Q 544 3141 544 3541 
Q 544 4100 942 4425 
Q 1341 4750 2034 4750 
Q 2731 4750 3128 4425 
Q 3525 4100 3525 3541 
Q 3525 3141 3298 2862 
Q 3072 2584 2669 2484 
Q 3125 2378 3379 2068 
Q 3634 1759 3634 1313 
Q 3634 634 3220 271 
Q 2806 -91 2034 -91 
Q 1263 -91 848 271 
Q 434 634 434 1313 
Q 434 1759 690 2068 
Q 947 2378 1403 2484 
z
M 1172 3481 
Q 1172 3119 1398 2916 
Q 1625 2713 2034 2713 
Q 2441 2713 2670 2916 
Q 2900 3119 2900 3481 
Q 2900 3844 2670 4047 
Q 2441 4250 2034 4250 
Q 1625 4250 1398 4047 
Q 1172 3844 1172 3481 
z
" transform="scale(0.015625)"/>
        <path id="DejaVuSans-34" d="M 2419 4116 
L 825 1625 
L 2419 1625 
L 2419 4116 
z
M 2253 4666 
L 3047 4666 
L 3047 1625 
L 3713 1625 
L 3713 1100 
L 3047 1100 
L 3047 0 
L 2419 0 
L 2419 1100 
L 313 1100 
L 313 1709 
L 2253 4666 
z
" transform="scale(0.015625)"/>
       </defs>
       <use xlink:href="#DejaVuSans-50"/>
       <use xlink:href="#DejaVuSans-2d" x="58.052734"/>
       <use xlink:href="#DejaVuSans-33" x="94.136719"/>
       <use xlink:href="#DejaVuSans-38" x="157.759766"/>
       <use xlink:href="#DejaVuSans-34" x="221.382812"/>
      </g>
     </g>
    </g>
    <g id="xtick_2">
     <g id="text_2">
      <!-- x448 -->
      <g style="fill: #262626" transform="translate(273.717625 415.277812) scale(0.14 -0.14)">
       <defs>
        <path id="DejaVuSans-78" d="M 3513 3500 
L 2247 1797 
L 3578 0 
L 2900 0 
L 1881 1375 
L 863 0 
L 184 0 
L 1544 1831 
L 300 3500 
L 978 3500 
L 1906 2253 
L 2834 3500 
L 3513 3500 
z
" transform="scale(0.015625)"/>
       </defs>
       <use xlink:href="#DejaVuSans-78"/>
       <use xlink:href="#DejaVuSans-34" x="59.179688"/>
       <use xlink:href="#DejaVuSans-34" x="122.802734"/>
       <use xlink:href="#DejaVuSans-38" x="186.425781"/>
      </g>
     </g>
    </g>
    <g id="xtick_3">
     <g id="text_3">
      <!-- p384_mlkem768 -->
      <g style="fill: #262626" transform="translate(392.815156 415.277812) scale(0.14 -0.14)">
       <defs>
        <path id="DejaVuSans-70" d="M 1159 525 
L 1159 -1331 
L 581 -1331 
L 581 3500 
L 1159 3500 
L 1159 2969 
Q 1341 3281 1617 3432 
Q 1894 3584 2278 3584 
Q 2916 3584 3314 3078 
Q 3713 2572 3713 1747 
Q 3713 922 3314 415 
Q 2916 -91 2278 -91 
Q 1894 -91 1617 61 
Q 1341 213 1159 525 
z
M 3116 1747 
Q 3116 2381 2855 2742 
Q 2594 3103 2138 3103 
Q 1681 3103 1420 2742 
Q 1159 2381 1159 1747 
Q 1159 1113 1420 752 
Q 1681 391 2138 391 
Q 2594 391 2855 752 
Q 3116 1113 3116 1747 
z
" transform="scale(0.015625)"/>
        <path id="DejaVuSans-5f" d="M 3263 -1063 
L 3263 -1509 
L -63 -1509 
L -63 -1063 
L 3263 -1063 
z
" transform="scale(0.015625)"/>
        <path id="DejaVuSans-6d" d="M 3328 2828 
Q 3544 3216 3844 3400 
Q 4144 3584 4550 3584 
Q 5097 3584 5394 3201 
Q 5691 2819 5691 2113 
L 5691 0 
L 5113 0 
L 5113 2094 
Q 5113 2597 4934 2840 
Q 4756 3084 4391 3084 
Q 3944 3084 3684 2787 
Q 3425 2491 3425 1978 
L 3425 0 
L 2847 0 
L 2847 2094 
Q 2847 2600 2669 2842 
Q 2491 3084 2119 3084 
Q 1678 3084 1418 2786 
Q 1159 2488 1159 1978 
L 1159 0 
L 581 0 
L 581 3500 
L 1159 3500 
L 1159 2956 
Q 1356 3278 1631 3431 
Q 1906 3584 2284 3584 
Q 2666 3584 2933 3390 
Q 3200 3197 3328 2828 
z
" transform="scale(0.015625)"/>
        <path id="DejaVuSans-6c" d="M 603 4863 
L 1178 4863 
L 1178 0 
L 603 0 
L 603 4863 
z
" transform="scale(0.015625)"/>
        <path id="DejaVuSans-6b" d="M 581 4863 
L 1159 4863 
L 1159 1991 
L 2875 3500 
L 3609 3500 
L 1753 1863 
L 3688 0 
L 2938 0 
L 1159 1709 
L 1159 0 
L 581 0 
L 581 4863 
z
" transform="scale(0.015625)"/>
        <path id="DejaVuSans-65" d="M 3597 1894 
L 3597 1613 
L 953 1613 
Q 991 1019 1311 708 
Q 1631 397 2203 397 
Q 2534 397 2845 478 
Q 3156 559 3463 722 
L 3463 178 
Q 3153 47 2828 -22 
Q 2503 -91 2169 -91 
Q 1331 -91 842 396 
Q 353 884 353 1716 
Q 353 2575 817 3079 
Q 1281 3584 2069 3584 
Q 2775 3584 3186 3129 
Q 3597 2675 3597 1894 
z
M 3022 2063 
Q 3016 2534 2758 2815 
Q 2500 3097 2075 3097 
Q 1594 3097 1305 2825 
Q 1016 2553 972 2059 
L 3022 2063 
z
" transform="scale(0.015625)"/>
        <path id="DejaVuSans-37" d="M 525 4666 
L 3525 4666 
L 3525 4397 
L 1831 0 
L 1172 0 
L 2766 4134 
L 525 4134 
L 525 4666 
z
" transform="scale(0.015625)"/>
        <path id="DejaVuSans-36" d="M 2113 2584 
Q 1688 2584 1439 2293 
Q 1191 2003 1191 1497 
Q 1191 994 1439 701 
Q 1688 409 2113 409 
Q 2538 409 2786 701 
Q 3034 994 3034 1497 
Q 3034 2003 2786 2293 
Q 2538 2584 2113 2584 
z
M 3366 4563 
L 3366 3988 
Q 3128 4100 2886 4159 
Q 2644 4219 2406 4219 
Q 1781 4219 1451 3797 
Q 1122 3375 1075 2522 
Q 1259 2794 1537 2939 
Q 1816 3084 2150 3084 
Q 2853 3084 3261 2657 
Q 3669 2231 3669 1497 
Q 3669 778 3244 343 
Q 2819 -91 2113 -91 
Q 1303 -91 875 529 
Q 447 1150 447 2328 
Q 447 3434 972 4092 
Q 1497 4750 2381 4750 
Q 2619 4750 2861 4703 
Q 3103 4656 3366 4563 
z
" transform="scale(0.015625)"/>
       </defs>
       <use xlink:href="#DejaVuSans-70"/>
       <use xlink:href="#DejaVuSans-33" x="63.476562"/>
       <use xlink:href="#DejaVuSans-38" x="127.099609"/>
       <use xlink:href="#DejaVuSans-34" x="190.722656"/>
       <use xlink:href="#DejaVuSans-5f" x="254.345703"/>
       <use xlink:href="#DejaVuSans-6d" x="304.345703"/>
       <use xlink:href="#DejaVuSans-6c" x="401.757812"/>
       <use xlink:href="#DejaVuSans-6b" x="429.541016"/>
       <use xlink:href="#DejaVuSans-65" x="483.826172"/>
       <use xlink:href="#DejaVuSans-6d" x="545.349609"/>
       <use xlink:href="#DejaVuSans-37" x="642.761719"/>
       <use xlink:href="#DejaVuSans-36" x="706.384766"/>
       <use xlink:href="#DejaVuSans-38" x="770.007812"/>
      </g>
     </g>
    </g>
    <g id="xtick_4">
     <g id="text_4">
      <!-- x448_mlkem768 -->
      <g style="fill: #262626" transform="translate(553.063937 415.277812) scale(0.14 -0.14)">
       <use xlink:href="#DejaVuSans-78"/>
       <use xlink:href="#DejaVuSans-34" x="59.179688"/>
       <use xlink:href="#DejaVuSans-34" x="122.802734"/>
       <use xlink:href="#DejaVuSans-38" x="186.425781"/>
       <use xlink:href="#DejaVuSans-5f" x="250.048828"/>
       <use xlink:href="#DejaVuSans-6d" x="300.048828"/>
       <use xlink:href="#DejaVuSans-6c" x="397.460938"/>
       <use xlink:href="#DejaVuSans-6b" x="425.244141"/>
       <use xlink:href="#DejaVuSans-65" x="479.529297"/>
       <use xlink:href="#DejaVuSans-6d" x="541.052734"/>
       <use xlink:href="#DejaVuSans-37" x="638.464844"/>
       <use xlink:href="#DejaVuSans-36" x="702.087891"/>
       <use xlink:href="#DejaVuSans-38" x="765.710938"/>
      </g>
     </g>
    </g>
    <g id="xtick_5">
     <g id="text_5">
      <!-- mlkem768 -->
      <g style="fill: #262626" transform="translate(734.016312 415.277812) scale(0.14 -0.14)">
       <use xlink:href="#DejaVuSans-6d"/>
       <use xlink:href="#DejaVuSans-6c" x="97.412109"/>
       <use xlink:href="#DejaVuSans-6b" x="125.195312"/>
       <use xlink:href="#DejaVuSans-65" x="179.480469"/>
       <use xlink:href="#DejaVuSans-6d" x="241.003906"/>
       <use xlink:href="#DejaVuSans-37" x="338.416016"/>
       <use xlink:href="#DejaVuSans-36" x="402.039062"/>
       <use xlink:href="#DejaVuSans-38" x="465.662109"/>
      </g>
     </g>
    </g>
   </g>
   <g id="matplotlib.axis_2">
    <g id="ytick_1">
     <g id="line2d_1">
      <path d="M 51.3 394.469404 
L 851.04 394.469404 
" clip-path="url(#p042af79aa6)" style="fill: none; stroke: #cccccc; stroke-linecap: round"/>
     </g>
     <g id="text_6">
      <!-- 0 -->
      <g style="fill: #262626" transform="translate(34.80125 398.648544) scale(0.11 -0.11)">
       <defs>
        <path id="DejaVuSans-30" d="M 2034 4250 
Q 1547 4250 1301 3770 
Q 1056 3291 1056 2328 
Q 1056 1369 1301 889 
Q 1547 409 2034 409 
Q 2525 409 2770 889 
Q 3016 1369 3016 2328 
Q 3016 3291 2770 3770 
Q 2525 4250 2034 4250 
z
M 2034 4750 
Q 2819 4750 3233 4129 
Q 3647 3509 3647 2328 
Q 3647 1150 3233 529 
Q 2819 -91 2034 -91 
Q 1250 -91 836 529 
Q 422 1150 422 2328 
Q 422 3509 836 4129 
Q 1250 4750 2034 4750 
z
" transform="scale(0.015625)"/>
       </defs>
       <use xlink:href="#DejaVuSans-30"/>
      </g>
     </g>
    </g>
    <g id="ytick_2">
     <g id="line2d_2">
      <path d="M 51.3 315.118484 
L 851.04 315.118484 
" clip-path="url(#p042af79aa6)" style="fill: none; stroke: #cccccc; stroke-linecap: round"/>
     </g>
     <g id="text_7">
      <!-- 20 -->
      <g style="fill: #262626" transform="translate(27.8025 319.297625) scale(0.11 -0.11)">
       <defs>
        <path id="DejaVuSans-32" d="M 1228 531 
L 3431 531 
L 3431 0 
L 469 0 
L 469 531 
Q 828 903 1448 1529 
Q 2069 2156 2228 2338 
Q 2531 2678 2651 2914 
Q 2772 3150 2772 3378 
Q 2772 3750 2511 3984 
Q 2250 4219 1831 4219 
Q 1534 4219 1204 4116 
Q 875 4013 500 3803 
L 500 4441 
Q 881 4594 1212 4672 
Q 1544 4750 1819 4750 
Q 2544 4750 2975 4387 
Q 3406 4025 3406 3419 
Q 3406 3131 3298 2873 
Q 3191 2616 2906 2266 
Q 2828 2175 2409 1742 
Q 1991 1309 1228 531 
z
" transform="scale(0.015625)"/>
       </defs>
       <use xlink:href="#DejaVuSans-32"/>
       <use xlink:href="#DejaVuSans-30" x="63.623047"/>
      </g>
     </g>
    </g>
    <g id="ytick_3">
     <g id="line2d_3">
      <path d="M 51.3 235.767564 
L 851.04 235.767564 
" clip-path="url(#p042af79aa6)" style="fill: none; stroke: #cccccc; stroke-linecap: round"/>
     </g>
     <g id="text_8">
      <!-- 40 -->
      <g style="fill: #262626" transform="translate(27.8025 239.946705) scale(0.11 -0.11)">
       <use xlink:href="#DejaVuSans-34"/>
       <use xlink:href="#DejaVuSans-30" x="63.623047"/>
      </g>
     </g>
    </g>
    <g id="ytick_4">
     <g id="line2d_4">
      <path d="M 51.3 156.416645 
L 851.04 156.416645 
" clip-path="url(#p042af79aa6)" style="fill: none; stroke: #cccccc; stroke-linecap: round"/>
     </g>
     <g id="text_9">
      <!-- 60 -->
      <g style="fill: #262626" transform="translate(27.8025 160.595786) scale(0.11 -0.11)">
       <use xlink:href="#DejaVuSans-36"/>
       <use xlink:href="#DejaVuSans-30" x="63.623047"/>
      </g>
     </g>
    </g>
    <g id="ytick_5">
     <g id="line2d_5">
      <path d="M 51.3 77.065725 
L 851.04 77.065725 
" clip-path="url(#p042af79aa6)" style="fill: none; stroke: #cccccc; stroke-linecap: round"/>
     </g>
     <g id="text_10">
      <!-- 80 -->
      <g style="fill: #262626" transform="translate(27.8025 81.244866) scale(0.11 -0.11)">
       <use xlink:href="#DejaVuSans-38"/>
       <use xlink:href="#DejaVuSans-30" x="63.623047"/>
      </g>
     </g>
    </g>
    <g id="text_11">
     <!-- Handshake duration (ms) -->
     <g style="fill: #262626" transform="translate(21.306875 287.437813) rotate(-90) scale(0.12 -0.12)">
      <defs>
       <path id="DejaVuSans-48" d="M 628 4666 
L 1259 4666 
L 1259 2753 
L 3553 2753 
L 3553 4666 
L 4184 4666 
L 4184 0 
L 3553 0 
L 3553 2222 
L 1259 2222 
L 1259 0 
L 628 0 
L 628 4666 
z
" transform="scale(0.015625)"/>
       <path id="DejaVuSans-61" d="M 2194 1759 
Q 1497 1759 1228 1600 
Q 959 1441 959 1056 
Q 959 750 1161 570 
Q 1363 391 1709 391 
Q 2188 391 2477 730 
Q 2766 1069 2766 1631 
L 2766 1759 
L 2194 1759 
z
M 3341 1997 
L 3341 0 
L 2766 0 
L 2766 531 
Q 2569 213 2275 61 
Q 1981 -91 1556 -91 
Q 1019 -91 701 211 
Q 384 513 384 1019 
Q 384 1609 779 1909 
Q 1175 2209 1959 2209 
L 2766 2209 
L 2766 2266 
Q 2766 2663 2505 2880 
Q 2244 3097 1772 3097 
Q 1472 3097 1187 3025 
Q 903 2953 641 2809 
L 641 3341 
Q 956 3463 1253 3523 
Q 1550 3584 1831 3584 
Q 2591 3584 2966 3190 
Q 3341 2797 3341 1997 
z
" transform="scale(0.015625)"/>
       <path id="DejaVuSans-6e" d="M 3513 2113 
L 3513 0 
L 2938 0 
L 2938 2094 
Q 2938 2591 2744 2837 
Q 2550 3084 2163 3084 
Q 1697 3084 1428 2787 
Q 1159 2491 1159 1978 
L 1159 0 
L 581 0 
L 581 3500 
L 1159 3500 
L 1159 2956 
Q 1366 3272 1645 3428 
Q 1925 3584 2291 3584 
Q 2894 3584 3203 3211 
Q 3513 2838 3513 2113 
z
" transform="scale(0.015625)"/>
       <path id="DejaVuSans-64" d="M 2906 2969 
L 2906 4863 
L 3481 4863 
L 3481 0 
L 2906 0 
L 2906 525 
Q 2725 213 2448 61 
Q 2172 -91 1784 -91 
Q 1150 -91 751 415 
Q 353 922 353 1747 
Q 353 2572 751 3078 
Q 1150 3584 1784 3584 
Q 2172 3584 2448 3432 
Q 2725 3281 2906 2969 
z
M 947 1747 
Q 947 1113 1208 752 
Q 1469 391 1925 391 
Q 2381 391 2643 752 
Q 2906 1113 2906 1747 
Q 2906 2381 2643 2742 
Q 2381 3103 1925 3103 
Q 1469 3103 1208 2742 
Q 947 2381 947 1747 
z
" transform="scale(0.015625)"/>
       <path id="DejaVuSans-73" d="M 2834 3397 
L 2834 2853 
Q 2591 2978 2328 3040 
Q 2066 3103 1784 3103 
Q 1356 3103 1142 2972 
Q 928 2841 928 2578 
Q 928 2378 1081 2264 
Q 1234 2150 1697 2047 
L 1894 2003 
Q 2506 1872 2764 1633 
Q 3022 1394 3022 966 
Q 3022 478 2636 193 
Q 2250 -91 1575 -91 
Q 1294 -91 989 -36 
Q 684 19 347 128 
L 347 722 
Q 666 556 975 473 
Q 1284 391 1588 391 
Q 1994 391 2212 530 
Q 2431 669 2431 922 
Q 2431 1156 2273 1281 
Q 2116 1406 1581 1522 
L 1381 1569 
Q 847 1681 609 1914 
Q 372 2147 372 2553 
Q 372 3047 722 3315 
Q 1072 3584 1716 3584 
Q 2034 3584 2315 3537 
Q 2597 3491 2834 3397 
z
" transform="scale(0.015625)"/>
       <path id="DejaVuSans-68" d="M 3513 2113 
L 3513 0 
L 2938 0 
L 2938 2094 
Q 2938 2591 2744 2837 
Q 2550 3084 2163 3084 
Q 1697 3084 1428 2787 
Q 1159 2491 1159 1978 
L 1159 0 
L 581 0 
L 581 4863 
L 1159 4863 
L 1159 2956 
Q 1366 3272 1645 3428 
Q 1925 3584 2291 3584 
Q 2894 3584 3203 3211 
Q 3513 2838 3513 2113 
z
" transform="scale(0.015625)"/>
       <path id="DejaVuSans-20" transform="scale(0.015625)"/>
       <path id="DejaVuSans-75" d="M 544 1381 
L 544 3500 
L 1119 3500 
L 1119 1403 
Q 1119 906 1312 657 
Q 1506 409 1894 409 
Q 2359 409 2629 706 
Q 2900 1003 2900 1516 
L 2900 3500 
L 3475 3500 
L 3475 0 
L 2900 0 
L 2900 538 
Q 2691 219 2414 64 
Q 2138 -91 1772 -91 
Q 1169 -91 856 284 
Q 544 659 544 1381 
z
M 1991 3584 
L 1991 3584 
z
" transform="scale(0.015625)"/>
       <path id="DejaVuSans-72" d="M 2631 2963 
Q 2534 3019 2420 3045 
Q 2306 3072 2169 3072 
Q 1681 3072 1420 2755 
Q 1159 2438 1159 1844 
L 1159 0 
L 581 0 
L 581 3500 
L 1159 3500 
L 1159 2956 
Q 1341 3275 1631 3429 
Q 1922 3584 2338 3584 
Q 2397 3584 2469 3576 
Q 2541 3569 2628 3553 
L 2631 2963 
z
" transform="scale(0.015625)"/>
       <path id="DejaVuSans-74" d="M 1172 4494 
L 1172 3500 
L 2356 3500 
L 2356 3053 
L 1172 3053 
L 1172 1153 
Q 1172 725 1289 603 
Q 1406 481 1766 481 
L 2356 481 
L 2356 0 
L 1766 0 
Q 1100 0 847 248 
Q 594 497 594 1153 
L 594 3053 
L 172 3053 
L 172 3500 
L 594 3500 
L 594 4494 
L 1172 4494 
z
" transform="scale(0.015625)"/>
       <path id="DejaVuSans-69" d="M 603 3500 
L 1178 3500 
L 1178 0 
L 603 0 
L 603 3500 
z
M 603 4863 
L 1178 4863 
L 1178 4134 
L 603 4134 
L 603 4863 
z
" transform="scale(0.015625)"/>
       <path id="DejaVuSans-6f" d="M 1959 3097 
Q 1497 3097 1228 2736 
Q 959 2375 959 1747 
Q 959 1119 1226 758 
Q 1494 397 1959 397 
Q 2419 397 2687 759 
Q 2956 1122 2956 1747 
Q 2956 2369 2687 2733 
Q 2419 3097 1959 3097 
z
M 1959 3584 
Q 2709 3584 3137 3096 
Q 3566 2609 3566 1747 
Q 3566 888 3137 398 
Q 2709 -91 1959 -91 
Q 1206 -91 779 398 
Q 353 888 353 1747 
Q 353 2609 779 3096 
Q 1206 3584 1959 3584 
z
" transform="scale(0.015625)"/>
       <path id="DejaVuSans-28" d="M 1984 4856 
Q 1566 4138 1362 3434 
Q 1159 2731 1159 2009 
Q 1159 1288 1364 580 
Q 1569 -128 1984 -844 
L 1484 -844 
Q 1016 -109 783 600 
Q 550 1309 550 2009 
Q 550 2706 781 3412 
Q 1013 4119 1484 4856 
L 1984 4856 
z
" transform="scale(0.015625)"/>
       <path id="DejaVuSans-29" d="M 513 4856 
L 1013 4856 
Q 1481 4119 1714 3412 
Q 1947 2706 1947 2009 
Q 1947 1309 1714 600 
Q 1481 -109 1013 -844 
L 513 -844 
Q 928 -128 1133 580 
Q 1338 1288 1338 2009 
Q 1338 2731 1133 3434 
Q 928 4138 513 4856 
z
" transform="scale(0.015625)"/>
      </defs>
      <use xlink:href="#DejaVuSans-48"/>
      <use xlink:href="#DejaVuSans-61" x="75.195312"/>
      <use xlink:href="#DejaVuSans-6e" x="136.474609"/>
      <use xlink:href="#DejaVuSans-64" x="199.853516"/>
      <use xlink:href="#DejaVuSans-73" x="263.330078"/>
      <use xlink:href="#DejaVuSans-68" x="315.429688"/>
      <use xlink:href="#DejaVuSans-61" x="378.808594"/>
      <use xlink:href="#DejaVuSans-6b" x="440.087891"/>
      <use xlink:href="#DejaVuSans-65" x="494.373047"/>
      <use xlink:href="#DejaVuSans-20" x="555.896484"/>
      <use xlink:href="#DejaVuSans-64" x="587.683594"/>
      <use xlink:href="#DejaVuSans-75" x="651.160156"/>
      <use xlink:href="#DejaVuSans-72" x="714.539062"/>
      <use xlink:href="#DejaVuSans-61" x="755.652344"/>
      <use xlink:href="#DejaVuSans-74" x="816.931641"/>
      <use xlink:href="#DejaVuSans-69" x="856.140625"/>
      <use xlink:href="#DejaVuSans-6f" x="883.923828"/>
      <use xlink:href="#DejaVuSans-6e" x="945.105469"/>
      <use xlink:href="#DejaVuSans-20" x="1008.484375"/>
      <use xlink:href="#DejaVuSans-28" x="1040.271484"/>
      <use xlink:href="#DejaVuSans-6d" x="1079.285156"/>
      <use xlink:href="#DejaVuSans-73" x="1176.697266"/>
      <use xlink:href="#DejaVuSans-29" x="1228.796875"/>
     </g>
    </g>
   </g>
   <g id="PolyCollection_1">
    <defs>
     <path id="m2a97bbafb4" d="M 131.315233 -76.248285 
L 131.232767 -76.248285 
L 131.170724 -78.113945 
L 131.064431 -79.979606 
L 130.924896 -81.845266 
L 130.782735 -83.710927 
L 130.655683 -85.576587 
L 130.516931 -87.442248 
L 130.318625 -89.307908 
L 130.064746 -91.173569 
L 129.848913 -93.039229 
L 129.796387 -94.904889 
L 129.960093 -96.77055 
L 130.274093 -98.63621 
L 130.603198 -100.501871 
L 130.83538 -102.367531 
L 130.939091 -104.233192 
L 130.949432 -106.098852 
L 130.908958 -107.964513 
L 130.827924 -109.830173 
L 130.705535 -111.695834 
L 130.574833 -113.561494 
L 130.493148 -115.427155 
L 130.466629 -117.292815 
L 130.38066 -119.158476 
L 129.985846 -121.024136 
L 128.931248 -122.889796 
L 126.864372 -124.755457 
L 123.603295 -126.621117 
L 119.189237 -128.486778 
L 113.587321 -130.352438 
L 106.306284 -132.218099 
L 96.699008 -134.083759 
L 85.162641 -135.94942 
L 74.123551 -137.81508 
L 67.2948 -139.680741 
L 67.305786 -141.546401 
L 73.840477 -143.412062 
L 84.103174 -145.277722 
L 94.91592 -147.143382 
L 104.323598 -149.009043 
L 111.726438 -150.874703 
L 117.219251 -152.740364 
L 121.075422 -154.606024 
L 123.605084 -156.471685 
L 125.154006 -158.337345 
L 126.079301 -160.203006 
L 126.691462 -162.068666 
L 127.186013 -163.934327 
L 127.626376 -165.799987 
L 128.024824 -167.665648 
L 128.43143 -169.531308 
L 128.910054 -171.396968 
L 129.453141 -173.262629 
L 129.97628 -175.128289 
L 130.396382 -176.99395 
L 130.683926 -178.85961 
L 130.850882 -180.725271 
L 130.926591 -182.590931 
L 130.947947 -184.456592 
L 130.943194 -186.322252 
L 130.915085 -188.187913 
L 130.85776 -190.053573 
L 130.795266 -191.919234 
L 130.781944 -193.784894 
L 130.851634 -195.650554 
L 130.980394 -197.516215 
L 131.110677 -199.381875 
L 131.201617 -201.247536 
L 131.248481 -203.113196 
L 131.266834 -204.978857 
L 131.272299 -206.844517 
L 131.273078 -208.710178 
L 131.27097 -210.575838 
L 131.262927 -212.441499 
L 131.241519 -214.307159 
L 131.19844 -216.17282 
L 131.134659 -218.03848 
L 131.070298 -219.904141 
L 131.037931 -221.769801 
L 131.057124 -223.635461 
L 131.116053 -225.501122 
L 131.182812 -227.366782 
L 131.232266 -229.232443 
L 131.258858 -231.098103 
L 131.269645 -232.963764 
L 131.273004 -234.829424 
L 131.273794 -236.695085 
L 131.27379 -238.560745 
L 131.27298 -240.426406 
L 131.269555 -242.292066 
L 131.2586 -244.157727 
L 131.231702 -246.023387 
L 131.181901 -247.889047 
L 131.115029 -249.754708 
L 131.056476 -251.620368 
L 131.038048 -253.486029 
L 131.071106 -255.351689 
L 131.135694 -257.21735 
L 131.199262 -259.08301 
L 131.241984 -260.948671 
L 131.306016 -260.948671 
L 131.306016 -260.948671 
L 131.348738 -259.08301 
L 131.412306 -257.21735 
L 131.476894 -255.351689 
L 131.509952 -253.486029 
L 131.491524 -251.620368 
L 131.432971 -249.754708 
L 131.366099 -247.889047 
L 131.316298 -246.023387 
L 131.2894 -244.157727 
L 131.278445 -242.292066 
L 131.27502 -240.426406 
L 131.27421 -238.560745 
L 131.274206 -236.695085 
L 131.274996 -234.829424 
L 131.278355 -232.963764 
L 131.289142 -231.098103 
L 131.315734 -229.232443 
L 131.365188 -227.366782 
L 131.431947 -225.501122 
L 131.490876 -223.635461 
L 131.510069 -221.769801 
L 131.477702 -219.904141 
L 131.413341 -218.03848 
L 131.34956 -216.17282 
L 131.306481 -214.307159 
L 131.285073 -212.441499 
L 131.27703 -210.575838 
L 131.274922 -208.710178 
L 131.275701 -206.844517 
L 131.281166 -204.978857 
L 131.299519 -203.113196 
L 131.346383 -201.247536 
L 131.437323 -199.381875 
L 131.567606 -197.516215 
L 131.696366 -195.650554 
L 131.766056 -193.784894 
L 131.752734 -191.919234 
L 131.69024 -190.053573 
L 131.632915 -188.187913 
L 131.604806 -186.322252 
L 131.600053 -184.456592 
L 131.621409 -182.590931 
L 131.697118 -180.725271 
L 131.864074 -178.85961 
L 132.151618 -176.99395 
L 132.57172 -175.128289 
L 133.094859 -173.262629 
L 133.637946 -171.396968 
L 134.11657 -169.531308 
L 134.523176 -167.665648 
L 134.921624 -165.799987 
L 135.361987 -163.934327 
L 135.856538 -162.068666 
L 136.468699 -160.203006 
L 137.393994 -158.337345 
L 138.942916 -156.471685 
L 141.472578 -154.606024 
L 145.328749 -152.740364 
L 150.821562 -150.874703 
L 158.224402 -149.009043 
L 167.63208 -147.143382 
L 178.444826 -145.277722 
L 188.707523 -143.412062 
L 195.242214 -141.546401 
L 195.2532 -139.680741 
L 188.424449 -137.81508 
L 177.385359 -135.94942 
L 165.848992 -134.083759 
L 156.241716 -132.218099 
L 148.960679 -130.352438 
L 143.358763 -128.486778 
L 138.944705 -126.621117 
L 135.683628 -124.755457 
L 133.616752 -122.889796 
L 132.562154 -121.024136 
L 132.16734 -119.158476 
L 132.081371 -117.292815 
L 132.054852 -115.427155 
L 131.973167 -113.561494 
L 131.842465 -111.695834 
L 131.720076 -109.830173 
L 131.639042 -107.964513 
L 131.598568 -106.098852 
L 131.608909 -104.233192 
L 131.71262 -102.367531 
L 131.944802 -100.501871 
L 132.273907 -98.63621 
L 132.587907 -96.77055 
L 132.751613 -94.904889 
L 132.699087 -93.039229 
L 132.483254 -91.173569 
L 132.229375 -89.307908 
L 132.031069 -87.442248 
L 131.892317 -85.576587 
L 131.765265 -83.710927 
L 131.623104 -81.845266 
L 131.483569 -79.979606 
L 131.377276 -78.113945 
L 131.315233 -76.248285 
z
" style="stroke: #595959; stroke-width: 1.25"/>
    </defs>
    <g clip-path="url(#p042af79aa6)">
     <use xlink:href="#m2a97bbafb4" x="0" y="432" style="fill: #72b6a1; stroke: #595959; stroke-width: 1.25"/>
    </g>
   </g>
   <g id="PolyCollection_2">
    <defs>
     <path id="mf8345b50ea" d="M 291.327817 -58.490548 
L 291.116183 -58.490548 
L 291.026422 -59.298256 
L 290.889261 -60.105965 
L 290.699525 -60.913673 
L 290.461998 -61.721381 
L 290.192697 -62.529089 
L 289.915451 -63.336797 
L 289.654876 -64.144505 
L 289.42965 -64.952214 
L 289.250189 -65.759922 
L 289.121796 -66.56763 
L 289.050042 -67.375338 
L 289.043266 -68.183046 
L 289.109436 -68.990754 
L 289.249279 -69.798463 
L 289.450775 -70.606171 
L 289.68923 -71.413879 
L 289.933151 -72.221587 
L 290.152355 -73.029295 
L 290.323835 -73.837003 
L 290.43327 -74.644712 
L 290.47342 -75.45242 
L 290.442648 -76.260128 
L 290.345957 -77.067836 
L 290.198101 -77.875544 
L 290.025474 -78.683252 
L 289.863056 -79.490961 
L 289.74542 -80.298669 
L 289.69515 -81.106377 
L 289.714835 -81.914085 
L 289.78732 -82.721793 
L 289.883835 -83.529501 
L 289.974394 -84.33721 
L 290.033713 -85.144918 
L 290.039557 -85.952626 
L 289.965991 -86.760334 
L 289.776814 -87.568042 
L 289.421883 -88.37575 
L 288.832641 -89.183459 
L 287.908098 -89.991167 
L 286.485733 -90.798875 
L 284.30701 -91.606583 
L 281.009453 -92.414291 
L 276.189719 -93.221999 
L 269.563419 -94.029708 
L 261.190392 -94.837416 
L 251.66366 -95.645124 
L 242.129601 -96.452832 
L 234.060219 -97.26054 
L 228.825814 -98.068248 
L 227.2428 -98.875957 
L 229.306542 -99.683665 
L 234.230615 -100.491373 
L 240.758113 -101.299081 
L 247.587655 -102.106789 
L 253.732575 -102.914498 
L 258.698285 -103.722206 
L 262.462097 -104.529914 
L 265.316015 -105.337622 
L 267.663013 -106.14533 
L 269.846327 -106.953038 
L 272.056734 -107.760747 
L 274.322755 -108.568455 
L 276.558813 -109.376163 
L 278.635122 -110.183871 
L 280.438949 -110.991579 
L 281.910987 -111.799287 
L 283.053729 -112.606996 
L 283.917591 -113.414704 
L 284.575533 -114.222412 
L 285.098288 -115.03012 
L 285.539222 -115.837828 
L 285.93119 -116.645536 
L 286.29163 -117.453245 
L 286.630219 -118.260953 
L 286.955504 -119.068661 
L 287.279202 -119.876369 
L 287.617162 -120.684077 
L 287.985669 -121.491785 
L 288.393597 -122.299494 
L 288.834543 -123.107202 
L 289.284707 -123.91491 
L 289.709369 -124.722618 
L 290.074943 -125.530326 
L 290.359838 -126.338034 
L 290.558695 -127.145743 
L 290.679635 -127.953451 
L 290.738402 -128.761159 
L 290.753662 -129.568867 
L 290.744902 -130.376575 
L 290.731384 -131.184283 
L 290.730129 -131.991992 
L 290.75263 -132.7997 
L 290.802018 -133.607408 
L 290.872767 -134.415116 
L 290.953538 -135.222824 
L 291.031817 -136.030532 
L 291.098077 -136.838241 
L 291.147822 -137.645949 
L 291.181247 -138.453657 
L 291.262753 -138.453657 
L 291.262753 -138.453657 
L 291.296178 -137.645949 
L 291.345923 -136.838241 
L 291.412183 -136.030532 
L 291.490462 -135.222824 
L 291.571233 -134.415116 
L 291.641982 -133.607408 
L 291.69137 -132.7997 
L 291.713871 -131.991992 
L 291.712616 -131.184283 
L 291.699098 -130.376575 
L 291.690338 -129.568867 
L 291.705598 -128.761159 
L 291.764365 -127.953451 
L 291.885305 -127.145743 
L 292.084162 -126.338034 
L 292.369057 -125.530326 
L 292.734631 -124.722618 
L 293.159293 -123.91491 
L 293.609457 -123.107202 
L 294.050403 -122.299494 
L 294.458331 -121.491785 
L 294.826838 -120.684077 
L 295.164798 -119.876369 
L 295.488496 -119.068661 
L 295.813781 -118.260953 
L 296.15237 -117.453245 
L 296.51281 -116.645536 
L 296.904778 -115.837828 
L 297.345712 -115.03012 
L 297.868467 -114.222412 
L 298.526409 -113.414704 
L 299.390271 -112.606996 
L 300.533013 -111.799287 
L 302.005051 -110.991579 
L 303.808878 -110.183871 
L 305.885187 -109.376163 
L 308.121245 -108.568455 
L 310.387266 -107.760747 
L 312.597673 -106.953038 
L 314.780987 -106.14533 
L 317.127985 -105.337622 
L 319.981903 -104.529914 
L 323.745715 -103.722206 
L 328.711425 -102.914498 
L 334.856345 -102.106789 
L 341.685887 -101.299081 
L 348.213385 -100.491373 
L 353.137458 -99.683665 
L 355.2012 -98.875957 
L 353.618186 -98.068248 
L 348.383781 -97.26054 
L 340.314399 -96.452832 
L 330.78034 -95.645124 
L 321.253608 -94.837416 
L 312.880581 -94.029708 
L 306.254281 -93.221999 
L 301.434547 -92.414291 
L 298.13699 -91.606583 
L 295.958267 -90.798875 
L 294.535902 -89.991167 
L 293.611359 -89.183459 
L 293.022117 -88.37575 
L 292.667186 -87.568042 
L 292.478009 -86.760334 
L 292.404443 -85.952626 
L 292.410287 -85.144918 
L 292.469606 -84.33721 
L 292.560165 -83.529501 
L 292.65668 -82.721793 
L 292.729165 -81.914085 
L 292.74885 -81.106377 
L 292.69858 -80.298669 
L 292.580944 -79.490961 
L 292.418526 -78.683252 
L 292.245899 -77.875544 
L 292.098043 -77.067836 
L 292.001352 -76.260128 
L 291.97058 -75.45242 
L 292.01073 -74.644712 
L 292.120165 -73.837003 
L 292.291645 -73.029295 
L 292.510849 -72.221587 
L 292.75477 -71.413879 
L 292.993225 -70.606171 
L 293.194721 -69.798463 
L 293.334564 -68.990754 
L 293.400734 -68.183046 
L 293.393958 -67.375338 
L 293.322204 -66.56763 
L 293.193811 -65.759922 
L 293.01435 -64.952214 
L 292.789124 -64.144505 
L 292.528549 -63.336797 
L 292.251303 -62.529089 
L 291.982002 -61.721381 
L 291.744475 -60.913673 
L 291.554739 -60.105965 
L 291.417578 -59.298256 
L 291.327817 -58.490548 
z
" style="stroke: #595959; stroke-width: 1.25"/>
    </defs>
    <g clip-path="url(#p042af79aa6)">
     <use xlink:href="#mf8345b50ea" x="0" y="432" style="fill: #e99675; stroke: #595959; stroke-width: 1.25"/>
    </g>
   </g>
   <g id="PolyCollection_3">
    <defs>
     <path id="m312dce3373" d="M 451.695472 -88.605481 
L 450.644528 -88.605481 
L 450.298854 -91.626574 
L 449.776572 -94.647666 
L 449.018348 -97.668759 
L 447.960642 -100.689851 
L 446.542895 -103.710944 
L 444.717131 -106.732036 
L 442.45888 -109.753129 
L 439.777644 -112.774221 
L 436.724802 -115.795314 
L 433.396916 -118.816406 
L 429.932984 -121.837498 
L 426.505202 -124.858591 
L 423.303912 -127.879683 
L 420.518553 -130.900776 
L 418.317199 -133.921868 
L 416.827637 -136.942961 
L 416.122796 -139.964053 
L 416.212761 -142.985146 
L 417.044559 -146.006238 
L 418.509749 -149.027331 
L 420.458481 -152.048423 
L 422.717687 -155.069516 
L 425.110351 -158.090608 
L 427.472792 -161.111701 
L 429.667447 -164.132793 
L 431.589701 -167.153886 
L 433.16857 -170.174978 
L 434.36223 -173.196071 
L 435.150142 -176.217163 
L 435.523847 -179.238256 
L 435.478284 -182.259348 
L 435.005028 -185.28044 
L 434.088281 -188.301533 
L 432.704043 -191.322625 
L 430.822653 -194.343718 
L 428.414788 -197.36481 
L 425.460826 -200.385903 
L 421.962956 -203.406995 
L 417.958598 -206.428088 
L 413.532638 -209.44918 
L 408.825252 -212.470273 
L 404.032018 -215.491365 
L 399.394113 -218.512458 
L 395.178426 -221.53355 
L 391.649976 -224.554643 
L 389.041276 -227.575735 
L 387.524361 -230.596828 
L 387.1908 -233.61792 
L 388.043164 -236.639013 
L 389.998788 -239.660105 
L 392.904116 -242.681198 
L 396.556079 -245.70229 
L 400.726329 -248.723382 
L 405.184483 -251.744475 
L 409.717639 -254.765567 
L 414.144666 -257.78666 
L 418.324881 -260.807752 
L 422.161476 -263.828845 
L 425.600475 -266.849937 
L 428.626162 -269.87103 
L 431.253978 -272.892122 
L 433.521904 -275.913215 
L 435.481317 -278.934307 
L 437.1883 -281.9554 
L 438.696221 -284.976492 
L 440.050267 -287.997585 
L 441.284279 -291.018677 
L 442.419969 -294.03977 
L 443.468204 -297.060862 
L 444.431775 -300.081955 
L 445.308895 -303.103047 
L 446.09663 -306.12414 
L 446.793612 -309.145232 
L 447.401639 -312.166324 
L 447.926071 -315.187417 
L 448.375223 -318.208509 
L 448.75911 -321.229602 
L 449.087996 -324.250694 
L 449.371128 -327.271787 
L 449.615928 -330.292879 
L 449.82775 -333.313972 
L 450.010166 -336.335064 
L 450.165617 -339.356157 
L 450.29621 -342.377249 
L 450.404414 -345.398342 
L 450.493467 -348.419434 
L 450.567393 -351.440527 
L 450.630648 -354.461619 
L 450.687524 -357.482712 
L 450.741513 -360.503804 
L 450.794825 -363.524897 
L 450.8482 -366.545989 
L 450.901064 -369.567082 
L 450.951949 -372.588174 
L 450.99904 -375.609266 
L 451.040699 -378.630359 
L 451.07583 -381.651451 
L 451.104042 -384.672544 
L 451.125612 -387.693636 
L 451.214388 -387.693636 
L 451.214388 -387.693636 
L 451.235958 -384.672544 
L 451.26417 -381.651451 
L 451.299301 -378.630359 
L 451.34096 -375.609266 
L 451.388051 -372.588174 
L 451.438936 -369.567082 
L 451.4918 -366.545989 
L 451.545175 -363.524897 
L 451.598487 -360.503804 
L 451.652476 -357.482712 
L 451.709352 -354.461619 
L 451.772607 -351.440527 
L 451.846533 -348.419434 
L 451.935586 -345.398342 
L 452.04379 -342.377249 
L 452.174383 -339.356157 
L 452.329834 -336.335064 
L 452.51225 -333.313972 
L 452.724072 -330.292879 
L 452.968872 -327.271787 
L 453.252004 -324.250694 
L 453.58089 -321.229602 
L 453.964777 -318.208509 
L 454.413929 -315.187417 
L 454.938361 -312.166324 
L 455.546388 -309.145232 
L 456.24337 -306.12414 
L 457.031105 -303.103047 
L 457.908225 -300.081955 
L 458.871796 -297.060862 
L 459.920031 -294.03977 
L 461.055721 -291.018677 
L 462.289733 -287.997585 
L 463.643779 -284.976492 
L 465.1517 -281.9554 
L 466.858683 -278.934307 
L 468.818096 -275.913215 
L 471.086022 -272.892122 
L 473.713838 -269.87103 
L 476.739525 -266.849937 
L 480.178524 -263.828845 
L 484.015119 -260.807752 
L 488.195334 -257.78666 
L 492.622361 -254.765567 
L 497.155517 -251.744475 
L 501.613671 -248.723382 
L 505.783921 -245.70229 
L 509.435884 -242.681198 
L 512.341212 -239.660105 
L 514.296836 -236.639013 
L 515.1492 -233.61792 
L 514.815639 -230.596828 
L 513.298724 -227.575735 
L 510.690024 -224.554643 
L 507.161574 -221.53355 
L 502.945887 -218.512458 
L 498.307982 -215.491365 
L 493.514748 -212.470273 
L 488.807362 -209.44918 
L 484.381402 -206.428088 
L 480.377044 -203.406995 
L 476.879174 -200.385903 
L 473.925212 -197.36481 
L 471.517347 -194.343718 
L 469.635957 -191.322625 
L 468.251719 -188.301533 
L 467.334972 -185.28044 
L 466.861716 -182.259348 
L 466.816153 -179.238256 
L 467.189858 -176.217163 
L 467.97777 -173.196071 
L 469.17143 -170.174978 
L 470.750299 -167.153886 
L 472.672553 -164.132793 
L 474.867208 -161.111701 
L 477.229649 -158.090608 
L 479.622313 -155.069516 
L 481.881519 -152.048423 
L 483.830251 -149.027331 
L 485.295441 -146.006238 
L 486.127239 -142.985146 
L 486.217204 -139.964053 
L 485.512363 -136.942961 
L 484.022801 -133.921868 
L 481.821447 -130.900776 
L 479.036088 -127.879683 
L 475.834798 -124.858591 
L 472.407016 -121.837498 
L 468.943084 -118.816406 
L 465.615198 -115.795314 
L 462.562356 -112.774221 
L 459.88112 -109.753129 
L 457.622869 -106.732036 
L 455.797105 -103.710944 
L 454.379358 -100.689851 
L 453.321652 -97.668759 
L 452.563428 -94.647666 
L 452.041146 -91.626574 
L 451.695472 -88.605481 
z
" style="stroke: #595959; stroke-width: 1.25"/>
    </defs>
    <g clip-path="url(#p042af79aa6)">
     <use xlink:href="#m312dce3373" x="0" y="432" style="fill: #95a3c3; stroke: #595959; stroke-width: 1.25"/>
    </g>
   </g>
   <g id="PolyCollection_4">
    <defs>
     <path id="m239fdb5030" d="M 611.369783 -61.104904 
L 610.866217 -61.104904 
L 610.669642 -62.378383 
L 610.361347 -63.651863 
L 609.906495 -64.925342 
L 609.275217 -66.198821 
L 608.451153 -67.4723 
L 607.439641 -68.745779 
L 606.272812 -70.019259 
L 605.009243 -71.292738 
L 603.72737 -72.566217 
L 602.513952 -73.839696 
L 601.450601 -75.113176 
L 600.601915 -76.386655 
L 600.007828 -77.660134 
L 599.681037 -78.933613 
L 599.608634 -80.207092 
L 599.756299 -81.480572 
L 600.073647 -82.754051 
L 600.500142 -84.02753 
L 600.971702 -85.301009 
L 601.428086 -86.574488 
L 601.820444 -87.847968 
L 602.117386 -89.121447 
L 602.307277 -90.394926 
L 602.394576 -91.668405 
L 602.3893 -92.941884 
L 602.290777 -94.215364 
L 602.069262 -95.488843 
L 601.650874 -96.762322 
L 600.911906 -98.035801 
L 599.687442 -99.309281 
L 597.796248 -100.58276 
L 595.079491 -101.856239 
L 591.445619 -103.129718 
L 586.909229 -104.403197 
L 581.610318 -105.676677 
L 575.80429 -106.950156 
L 569.822943 -108.223635 
L 564.018971 -109.497114 
L 558.715009 -110.770593 
L 554.176584 -112.044073 
L 550.615581 -113.317552 
L 548.213149 -114.591031 
L 547.1388 -115.86451 
L 547.544127 -117.137989 
L 549.525123 -118.411469 
L 553.067592 -119.684948 
L 558.003461 -120.958427 
L 564.003907 -122.231906 
L 570.619206 -123.505385 
L 577.354355 -124.778865 
L 583.754787 -126.052344 
L 589.474644 -127.325823 
L 594.310277 -128.599302 
L 598.197014 -129.872782 
L 601.179837 -131.146261 
L 603.373643 -132.41974 
L 604.926197 -133.693219 
L 605.990492 -134.966698 
L 606.707212 -136.240178 
L 607.19491 -137.513657 
L 607.545318 -138.787136 
L 607.822364 -140.060615 
L 608.0644 -141.334094 
L 608.289204 -142.607574 
L 608.500742 -143.881053 
L 608.696212 -145.154532 
L 608.871846 -146.428011 
L 609.026435 -147.70149 
L 609.162255 -148.97497 
L 609.283793 -150.248449 
L 609.395254 -151.521928 
L 609.498091 -152.795407 
L 609.589748 -154.068886 
L 609.664276 -155.342366 
L 609.714728 -156.615845 
L 609.736375 -157.889324 
L 609.729401 -159.162803 
L 609.699846 -160.436283 
L 609.65833 -161.709762 
L 609.617047 -162.983241 
L 609.586301 -164.25672 
L 609.572011 -165.530199 
L 609.575156 -166.803679 
L 609.593213 -168.077158 
L 609.622789 -169.350637 
L 609.66219 -170.624116 
L 609.712807 -171.897595 
L 609.77876 -173.171075 
L 609.865023 -174.444554 
L 609.974865 -175.718033 
L 610.107671 -176.991512 
L 610.258063 -178.264991 
L 610.416649 -179.538471 
L 610.572113 -180.81195 
L 610.713829 -182.085429 
L 610.834062 -183.358908 
L 610.929106 -184.632387 
L 610.999182 -185.905867 
L 611.047417 -187.179346 
L 611.188583 -187.179346 
L 611.188583 -187.179346 
L 611.236818 -185.905867 
L 611.306894 -184.632387 
L 611.401938 -183.358908 
L 611.522171 -182.085429 
L 611.663887 -180.81195 
L 611.819351 -179.538471 
L 611.977937 -178.264991 
L 612.128329 -176.991512 
L 612.261135 -175.718033 
L 612.370977 -174.444554 
L 612.45724 -173.171075 
L 612.523193 -171.897595 
L 612.57381 -170.624116 
L 612.613211 -169.350637 
L 612.642787 -168.077158 
L 612.660844 -166.803679 
L 612.663989 -165.530199 
L 612.649699 -164.25672 
L 612.618953 -162.983241 
L 612.57767 -161.709762 
L 612.536154 -160.436283 
L 612.506599 -159.162803 
L 612.499625 -157.889324 
L 612.521272 -156.615845 
L 612.571724 -155.342366 
L 612.646252 -154.068886 
L 612.737909 -152.795407 
L 612.840746 -151.521928 
L 612.952207 -150.248449 
L 613.073745 -148.97497 
L 613.209565 -147.70149 
L 613.364154 -146.428011 
L 613.539788 -145.154532 
L 613.735258 -143.881053 
L 613.946796 -142.607574 
L 614.1716 -141.334094 
L 614.413636 -140.060615 
L 614.690682 -138.787136 
L 615.04109 -137.513657 
L 615.528788 -136.240178 
L 616.245508 -134.966698 
L 617.309803 -133.693219 
L 618.862357 -132.41974 
L 621.056163 -131.146261 
L 624.038986 -129.872782 
L 627.925723 -128.599302 
L 632.761356 -127.325823 
L 638.481213 -126.052344 
L 644.881645 -124.778865 
L 651.616794 -123.505385 
L 658.232093 -122.231906 
L 664.232539 -120.958427 
L 669.168408 -119.684948 
L 672.710877 -118.411469 
L 674.691873 -117.137989 
L 675.0972 -115.86451 
L 674.022851 -114.591031 
L 671.620419 -113.317552 
L 668.059416 -112.044073 
L 663.520991 -110.770593 
L 658.217029 -109.497114 
L 652.413057 -108.223635 
L 646.43171 -106.950156 
L 640.625682 -105.676677 
L 635.326771 -104.403197 
L 630.790381 -103.129718 
L 627.156509 -101.856239 
L 624.439752 -100.58276 
L 622.548558 -99.309281 
L 621.324094 -98.035801 
L 620.585126 -96.762322 
L 620.166738 -95.488843 
L 619.945223 -94.215364 
L 619.8467 -92.941884 
L 619.841424 -91.668405 
L 619.928723 -90.394926 
L 620.118614 -89.121447 
L 620.415556 -87.847968 
L 620.807914 -86.574488 
L 621.264298 -85.301009 
L 621.735858 -84.02753 
L 622.162353 -82.754051 
L 622.479701 -81.480572 
L 622.627366 -80.207092 
L 622.554963 -78.933613 
L 622.228172 -77.660134 
L 621.634085 -76.386655 
L 620.785399 -75.113176 
L 619.722048 -73.839696 
L 618.50863 -72.566217 
L 617.226757 -71.292738 
L 615.963188 -70.019259 
L 614.796359 -68.745779 
L 613.784847 -67.4723 
L 612.960783 -66.198821 
L 612.329505 -64.925342 
L 611.874653 -63.651863 
L 611.566358 -62.378383 
L 611.369783 -61.104904 
z
" style="stroke: #595959; stroke-width: 1.25"/>
    </defs>
    <g clip-path="url(#p042af79aa6)">
     <use xlink:href="#m239fdb5030" x="0" y="432" style="fill: #db96c0; stroke: #595959; stroke-width: 1.25"/>
    </g>
   </g>
   <g id="PolyCollection_5">
    <defs>
     <path id="m791f2a22b5" d="M 771.193626 -53.566364 
L 770.938374 -53.566364 
L 770.845476 -54.495191 
L 770.702708 -55.424019 
L 770.494009 -56.352847 
L 770.202897 -57.281675 
L 769.814002 -58.210503 
L 769.314572 -59.13933 
L 768.695943 -60.068158 
L 767.955301 -60.996986 
L 767.098161 -61.925814 
L 766.141631 -62.854642 
L 765.117631 -63.783469 
L 764.074232 -64.712297 
L 763.072911 -65.641125 
L 762.180419 -66.569953 
L 761.456074 -67.498781 
L 760.937903 -68.427609 
L 760.632616 -69.356436 
L 760.51395 -70.285264 
L 760.531132 -71.214092 
L 760.625231 -72.14292 
L 760.747805 -73.071748 
L 760.875063 -74.000575 
L 761.012394 -74.929403 
L 761.187784 -75.858231 
L 761.436645 -76.787059 
L 761.78329 -77.715887 
L 762.224748 -78.644714 
L 762.720998 -79.573542 
L 763.193018 -80.50237 
L 763.527747 -81.431198 
L 763.587848 -82.360026 
L 763.224433 -83.288853 
L 762.29173 -84.217681 
L 760.663223 -85.146509 
L 758.248256 -86.075337 
L 755.006815 -87.004165 
L 750.959268 -87.932992 
L 746.188546 -88.86182 
L 740.834952 -89.790648 
L 735.08713 -90.719476 
L 729.174431 -91.648304 
L 723.363908 -92.577131 
L 717.959987 -93.505959 
L 713.299237 -94.434787 
L 709.730936 -95.363615 
L 707.578573 -96.292443 
L 707.0868 -97.22127 
L 708.367915 -98.150098 
L 711.366106 -99.078926 
L 715.853671 -100.007754 
L 721.462813 -100.936582 
L 727.74446 -101.86541 
L 734.237526 -102.794237 
L 740.530884 -103.723065 
L 746.305547 -104.651893 
L 751.352685 -105.580721 
L 755.570521 -106.509549 
L 758.94728 -107.438376 
L 761.53804 -108.367204 
L 763.441437 -109.296032 
L 764.779482 -110.22486 
L 765.681459 -111.153688 
L 766.271637 -112.082515 
L 766.660272 -113.011343 
L 766.937604 -113.940171 
L 767.170731 -114.868999 
L 767.403251 -115.797827 
L 767.657241 -116.726654 
L 767.936965 -117.655482 
L 768.233542 -118.58431 
L 768.529983 -119.513138 
L 768.806077 -120.441966 
L 769.042734 -121.370793 
L 769.225403 -122.299621 
L 769.346178 -123.228449 
L 769.404438 -124.157277 
L 769.406093 -125.086105 
L 769.361834 -126.014932 
L 769.285004 -126.94376 
L 769.189629 -127.872588 
L 769.089018 -128.801416 
L 768.995058 -129.730244 
L 768.918101 -130.659071 
L 768.867184 -131.587899 
L 768.850255 -132.516727 
L 768.874093 -133.445555 
L 768.943719 -134.374383 
L 769.06134 -135.30321 
L 769.225127 -136.232038 
L 769.428381 -137.160866 
L 769.659589 -138.089694 
L 769.903684 -139.018522 
L 770.144308 -139.94735 
L 770.366503 -140.876177 
L 770.55905 -141.805005 
L 770.715808 -142.733833 
L 770.835794 -143.662661 
L 770.922183 -144.591489 
L 770.98071 -145.520316 
L 771.15129 -145.520316 
L 771.15129 -145.520316 
L 771.209817 -144.591489 
L 771.296206 -143.662661 
L 771.416192 -142.733833 
L 771.57295 -141.805005 
L 771.765497 -140.876177 
L 771.987692 -139.94735 
L 772.228316 -139.018522 
L 772.472411 -138.089694 
L 772.703619 -137.160866 
L 772.906873 -136.232038 
L 773.07066 -135.30321 
L 773.188281 -134.374383 
L 773.257907 -133.445555 
L 773.281745 -132.516727 
L 773.264816 -131.587899 
L 773.213899 -130.659071 
L 773.136942 -129.730244 
L 773.042982 -128.801416 
L 772.942371 -127.872588 
L 772.846996 -126.94376 
L 772.770166 -126.014932 
L 772.725907 -125.086105 
L 772.727562 -124.157277 
L 772.785822 -123.228449 
L 772.906597 -122.299621 
L 773.089266 -121.370793 
L 773.325923 -120.441966 
L 773.602017 -119.513138 
L 773.898458 -118.58431 
L 774.195035 -117.655482 
L 774.474759 -116.726654 
L 774.728749 -115.797827 
L 774.961269 -114.868999 
L 775.194396 -113.940171 
L 775.471728 -113.011343 
L 775.860363 -112.082515 
L 776.450541 -111.153688 
L 777.352518 -110.22486 
L 778.690563 -109.296032 
L 780.59396 -108.367204 
L 783.18472 -107.438376 
L 786.561479 -106.509549 
L 790.779315 -105.580721 
L 795.826453 -104.651893 
L 801.601116 -103.723065 
L 807.894474 -102.794237 
L 814.38754 -101.86541 
L 820.669187 -100.936582 
L 826.278329 -100.007754 
L 830.765894 -99.078926 
L 833.764085 -98.150098 
L 835.0452 -97.22127 
L 834.553427 -96.292443 
L 832.401064 -95.363615 
L 828.832763 -94.434787 
L 824.172013 -93.505959 
L 818.768092 -92.577131 
L 812.957569 -91.648304 
L 807.04487 -90.719476 
L 801.297048 -89.790648 
L 795.943454 -88.86182 
L 791.172732 -87.932992 
L 787.125185 -87.004165 
L 783.883744 -86.075337 
L 781.468777 -85.146509 
L 779.84027 -84.217681 
L 778.907567 -83.288853 
L 778.544152 -82.360026 
L 778.604253 -81.431198 
L 778.938982 -80.50237 
L 779.411002 -79.573542 
L 779.907252 -78.644714 
L 780.34871 -77.715887 
L 780.695355 -76.787059 
L 780.944216 -75.858231 
L 781.119606 -74.929403 
L 781.256937 -74.000575 
L 781.384195 -73.071748 
L 781.506769 -72.14292 
L 781.600868 -71.214092 
L 781.61805 -70.285264 
L 781.499384 -69.356436 
L 781.194097 -68.427609 
L 780.675926 -67.498781 
L 779.951581 -66.569953 
L 779.059089 -65.641125 
L 778.057768 -64.712297 
L 777.014369 -63.783469 
L 775.990369 -62.854642 
L 775.033839 -61.925814 
L 774.176699 -60.996986 
L 773.436057 -60.068158 
L 772.817428 -59.13933 
L 772.317998 -58.210503 
L 771.929103 -57.281675 
L 771.637991 -56.352847 
L 771.429292 -55.424019 
L 771.286524 -54.495191 
L 771.193626 -53.566364 
z
" style="stroke: #595959; stroke-width: 1.25"/>
    </defs>
    <g clip-path="url(#p042af79aa6)">
     <use xlink:href="#m791f2a22b5" x="0" y="432" style="fill: #a2c865; stroke: #595959; stroke-width: 1.25"/>
    </g>
   </g>
   <g id="line2d_6">
    <path d="M 131.274 294.030977 
L 131.274 303.572925 
" clip-path="url(#p042af79aa6)" style="fill: none; stroke: #000000"/>
   </g>
   <g id="line2d_7">
    <path d="M 131.274 286.869557 
L 131.274 276.157183 
" clip-path="url(#p042af79aa6)" style="fill: none; stroke: #000000"/>
   </g>
   <g id="line2d_8">
    <path d="M 125.27595 303.572925 
L 137.27205 303.572925 
" clip-path="url(#p042af79aa6)" style="fill: none; stroke: #000000; stroke-linecap: round"/>
   </g>
   <g id="line2d_9">
    <path d="M 125.27595 276.157183 
L 137.27205 276.157183 
" clip-path="url(#p042af79aa6)" style="fill: none; stroke: #000000; stroke-linecap: round"/>
   </g>
   <g id="line2d_10">
    <path d="M 291.222 334.20238 
L 291.222 343.288061 
" clip-path="url(#p042af79aa6)" style="fill: none; stroke: #000000"/>
   </g>
   <g id="line2d_11">
    <path d="M 291.222 327.189743 
L 291.222 316.864204 
" clip-path="url(#p042af79aa6)" style="fill: none; stroke: #000000"/>
   </g>
   <g id="line2d_12">
    <path d="M 285.22395 343.288061 
L 297.22005 343.288061 
" clip-path="url(#p042af79aa6)" style="fill: none; stroke: #000000; stroke-linecap: round"/>
   </g>
   <g id="line2d_13">
    <path d="M 285.22395 316.864204 
L 297.22005 316.864204 
" clip-path="url(#p042af79aa6)" style="fill: none; stroke: #000000; stroke-linecap: round"/>
   </g>
   <g id="line2d_14">
    <path d="M 451.17 274.193247 
L 451.17 314.007571 
" clip-path="url(#p042af79aa6)" style="fill: none; stroke: #000000"/>
   </g>
   <g id="line2d_15">
    <path d="M 451.17 190.150705 
L 451.17 73.693311 
" clip-path="url(#p042af79aa6)" style="fill: none; stroke: #000000"/>
   </g>
   <g id="line2d_16">
    <path d="M 445.17195 314.007571 
L 457.16805 314.007571 
" clip-path="url(#p042af79aa6)" style="fill: none; stroke: #000000; stroke-linecap: round"/>
   </g>
   <g id="line2d_17">
    <path d="M 445.17195 73.693311 
L 457.16805 73.693311 
" clip-path="url(#p042af79aa6)" style="fill: none; stroke: #000000; stroke-linecap: round"/>
   </g>
   <g id="line2d_18">
    <path d="M 611.118 323.450331 
L 611.118 339.637918 
" clip-path="url(#p042af79aa6)" style="fill: none; stroke: #000000"/>
   </g>
   <g id="line2d_19">
    <path d="M 611.118 312.222176 
L 611.118 296.034588 
" clip-path="url(#p042af79aa6)" style="fill: none; stroke: #000000"/>
   </g>
   <g id="line2d_20">
    <path d="M 605.11995 339.637918 
L 617.11605 339.637918 
" clip-path="url(#p042af79aa6)" style="fill: none; stroke: #000000; stroke-linecap: round"/>
   </g>
   <g id="line2d_21">
    <path d="M 605.11995 296.034588 
L 617.11605 296.034588 
" clip-path="url(#p042af79aa6)" style="fill: none; stroke: #000000; stroke-linecap: round"/>
   </g>
   <g id="line2d_22">
    <path d="M 771.066 340.986884 
L 771.066 353.325952 
" clip-path="url(#p042af79aa6)" style="fill: none; stroke: #000000"/>
   </g>
   <g id="line2d_23">
    <path d="M 771.066 332.486417 
L 771.066 319.839864 
" clip-path="url(#p042af79aa6)" style="fill: none; stroke: #000000"/>
   </g>
   <g id="line2d_24">
    <path d="M 765.06795 353.325952 
L 777.06405 353.325952 
" clip-path="url(#p042af79aa6)" style="fill: none; stroke: #000000; stroke-linecap: round"/>
   </g>
   <g id="line2d_25">
    <path d="M 765.06795 319.839864 
L 777.06405 319.839864 
" clip-path="url(#p042af79aa6)" style="fill: none; stroke: #000000; stroke-linecap: round"/>
   </g>
   <g id="line2d_26">
    <path d="M 119.2779 291.21402 
L 143.2701 291.21402 
" clip-path="url(#p042af79aa6)" style="fill: none; stroke: #ff0000; stroke-width: 2"/>
   </g>
   <g id="line2d_27">
    <path d="M 279.2259 332.615362 
L 303.2181 332.615362 
" clip-path="url(#p042af79aa6)" style="fill: none; stroke: #ff0000; stroke-width: 2"/>
   </g>
   <g id="line2d_28">
    <path d="M 439.1739 207.855879 
L 463.1661 207.855879 
" clip-path="url(#p042af79aa6)" style="fill: none; stroke: #ff0000; stroke-width: 2"/>
   </g>
   <g id="line2d_29">
    <path d="M 599.1219 317.241121 
L 623.1141 317.241121 
" clip-path="url(#p042af79aa6)" style="fill: none; stroke: #ff0000; stroke-width: 2"/>
   </g>
   <g id="line2d_30">
    <path d="M 759.0699 335.610859 
L 783.0621 335.610859 
" clip-path="url(#p042af79aa6)" style="fill: none; stroke: #ff0000; stroke-width: 2"/>
   </g>
   <g id="patch_3">
    <path d="M 51.3 395.14 
L 51.3 27.6 
" style="fill: none; stroke: #cccccc; stroke-width: 1.25; stroke-linejoin: miter; stroke-linecap: square"/>
   </g>
   <g id="patch_4">
    <path d="M 851.04 395.14 
L 851.04 27.6 
" style="fill: none; stroke: #cccccc; stroke-width: 1.25; stroke-linejoin: miter; stroke-linecap: square"/>
   </g>
   <g id="patch_5">
    <path d="M 51.3 395.14 
L 851.04 395.14 
" style="fill: none; stroke: #cccccc; stroke-width: 1.25; stroke-linejoin: miter; stroke-linecap: square"/>
   </g>
   <g id="patch_6">
    <path d="M 51.3 27.6 
L 851.04 27.6 
" style="fill: none; stroke: #cccccc; stroke-width: 1.25; stroke-linejoin: miter; stroke-linecap: square"/>
   </g>
   <g id="text_12">
    <!-- Handshake duration on TLS with secp384r1 signature algorithm — ideal conditions -->
    <g style="fill: #262626" transform="translate(202.223437 21.6) scale(0.12 -0.12)">
     <defs>
      <path id="DejaVuSans-54" d="M -19 4666 
L 3928 4666 
L 3928 4134 
L 2272 4134 
L 2272 0 
L 1638 0 
L 1638 4134 
L -19 4134 
L -19 4666 
z
" transform="scale(0.015625)"/>
      <path id="DejaVuSans-4c" d="M 628 4666 
L 1259 4666 
L 1259 531 
L 3531 531 
L 3531 0 
L 628 0 
L 628 4666 
z
" transform="scale(0.015625)"/>
      <path id="DejaVuSans-53" d="M 3425 4513 
L 3425 3897 
Q 3066 4069 2747 4153 
Q 2428 4238 2131 4238 
Q 1616 4238 1336 4038 
Q 1056 3838 1056 3469 
Q 1056 3159 1242 3001 
Q 1428 2844 1947 2747 
L 2328 2669 
Q 3034 2534 3370 2195 
Q 3706 1856 3706 1288 
Q 3706 609 3251 259 
Q 2797 -91 1919 -91 
Q 1588 -91 1214 -16 
Q 841 59 441 206 
L 441 856 
Q 825 641 1194 531 
Q 1563 422 1919 422 
Q 2459 422 2753 634 
Q 3047 847 3047 1241 
Q 3047 1584 2836 1778 
Q 2625 1972 2144 2069 
L 1759 2144 
Q 1053 2284 737 2584 
Q 422 2884 422 3419 
Q 422 4038 858 4394 
Q 1294 4750 2059 4750 
Q 2388 4750 2728 4690 
Q 3069 4631 3425 4513 
z
" transform="scale(0.015625)"/>
      <path id="DejaVuSans-77" d="M 269 3500 
L 844 3500 
L 1563 769 
L 2278 3500 
L 2956 3500 
L 3675 769 
L 4391 3500 
L 4966 3500 
L 4050 0 
L 3372 0 
L 2619 2869 
L 1863 0 
L 1184 0 
L 269 3500 
z
" transform="scale(0.015625)"/>
      <path id="DejaVuSans-63" d="M 3122 3366 
L 3122 2828 
Q 2878 2963 2633 3030 
Q 2388 3097 2138 3097 
Q 1578 3097 1268 2742 
Q 959 2388 959 1747 
Q 959 1106 1268 751 
Q 1578 397 2138 397 
Q 2388 397 2633 464 
Q 2878 531 3122 666 
L 3122 134 
Q 2881 22 2623 -34 
Q 2366 -91 2075 -91 
Q 1284 -91 818 406 
Q 353 903 353 1747 
Q 353 2603 823 3093 
Q 1294 3584 2113 3584 
Q 2378 3584 2631 3529 
Q 2884 3475 3122 3366 
z
" transform="scale(0.015625)"/>
      <path id="DejaVuSans-31" d="M 794 531 
L 1825 531 
L 1825 4091 
L 703 3866 
L 703 4441 
L 1819 4666 
L 2450 4666 
L 2450 531 
L 3481 531 
L 3481 0 
L 794 0 
L 794 531 
z
" transform="scale(0.015625)"/>
      <path id="DejaVuSans-67" d="M 2906 1791 
Q 2906 2416 2648 2759 
Q 2391 3103 1925 3103 
Q 1463 3103 1205 2759 
Q 947 2416 947 1791 
Q 947 1169 1205 825 
Q 1463 481 1925 481 
Q 2391 481 2648 825 
Q 2906 1169 2906 1791 
z
M 3481 434 
Q 3481 -459 3084 -895 
Q 2688 -1331 1869 -1331 
Q 1566 -1331 1297 -1286 
Q 1028 -1241 775 -1147 
L 775 -588 
Q 1028 -725 1275 -790 
Q 1522 -856 1778 -856 
Q 2344 -856 2625 -561 
Q 2906 -266 2906 331 
L 2906 616 
Q 2728 306 2450 153 
Q 2172 0 1784 0 
Q 1141 0 747 490 
Q 353 981 353 1791 
Q 353 2603 747 3093 
Q 1141 3584 1784 3584 
Q 2172 3584 2450 3431 
Q 2728 3278 2906 2969 
L 2906 3500 
L 3481 3500 
L 3481 434 
z
" transform="scale(0.015625)"/>
      <path id="DejaVuSans-2014" d="M 313 1978 
L 6088 1978 
L 6088 1528 
L 313 1528 
L 313 1978 
z
" transform="scale(0.015625)"/>
     </defs>
     <use xlink:href="#DejaVuSans-48"/>
     <use xlink:href="#DejaVuSans-61" x="75.195312"/>
     <use xlink:href="#DejaVuSans-6e" x="136.474609"/>
     <use xlink:href="#DejaVuSans-64" x="199.853516"/>
     <use xlink:href="#DejaVuSans-73" x="263.330078"/>
     <use xlink:href="#DejaVuSans-68" x="315.429688"/>
     <use xlink:href="#DejaVuSans-61" x="378.808594"/>
     <use xlink:href="#DejaVuSans-6b" x="440.087891"/>
     <use xlink:href="#DejaVuSans-65" x="494.373047"/>
     <use xlink:href="#DejaVuSans-20" x="555.896484"/>
     <use xlink:href="#DejaVuSans-64" x="587.683594"/>
     <use xlink:href="#DejaVuSans-75" x="651.160156"/>
     <use xlink:href="#DejaVuSans-72" x="714.539062"/>
     <use xlink:href="#DejaVuSans-61" x="755.652344"/>
     <use xlink:href="#DejaVuSans-74" x="816.931641"/>
     <use xlink:href="#DejaVuSans-69" x="856.140625"/>
     <use xlink:href="#DejaVuSans-6f" x="883.923828"/>
     <use xlink:href="#DejaVuSans-6e" x="945.105469"/>
     <use xlink:href="#DejaVuSans-20" x="1008.484375"/>
     <use xlink:href="#DejaVuSans-6f" x="1040.271484"/>
     <use xlink:href="#DejaVuSans-6e" x="1101.453125"/>
     <use xlink:href="#DejaVuSans-20" x="1164.832031"/>
     <use xlink:href="#DejaVuSans-54" x="1196.619141"/>
     <use xlink:href="#DejaVuSans-4c" x="1257.703125"/>
     <use xlink:href="#DejaVuSans-53" x="1313.416016"/>
     <use xlink:href="#DejaVuSans-20" x="1376.892578"/>
     <use xlink:href="#DejaVuSans-77" x="1408.679688"/>
     <use xlink:href="#DejaVuSans-69" x="1490.466797"/>
     <use xlink:href="#DejaVuSans-74" x="1518.25"/>
     <use xlink:href="#DejaVuSans-68" x="1557.458984"/>
     <use xlink:href="#DejaVuSans-20" x="1620.837891"/>
     <use xlink:href="#DejaVuSans-73" x="1652.625"/>
     <use xlink:href="#DejaVuSans-65" x="1704.724609"/>
     <use xlink:href="#DejaVuSans-63" x="1766.248047"/>
     <use xlink:href="#DejaVuSans-70" x="1821.228516"/>
     <use xlink:href="#DejaVuSans-33" x="1884.705078"/>
     <use xlink:href="#DejaVuSans-38" x="1948.328125"/>
     <use xlink:href="#DejaVuSans-34" x="2011.951172"/>
     <use xlink:href="#DejaVuSans-72" x="2075.574219"/>
     <use xlink:href="#DejaVuSans-31" x="2116.6875"/>
     <use xlink:href="#DejaVuSans-20" x="2180.310547"/>
     <use xlink:href="#DejaVuSans-73" x="2212.097656"/>
     <use xlink:href="#DejaVuSans-69" x="2264.197266"/>
     <use xlink:href="#DejaVuSans-67" x="2291.980469"/>
     <use xlink:href="#DejaVuSans-6e" x="2355.457031"/>
     <use xlink:href="#DejaVuSans-61" x="2418.835938"/>
     <use xlink:href="#DejaVuSans-74" x="2480.115234"/>
     <use xlink:href="#DejaVuSans-75" x="2519.324219"/>
     <use xlink:href="#DejaVuSans-72" x="2582.703125"/>
     <use xlink:href="#DejaVuSans-65" x="2621.566406"/>
     <use xlink:href="#DejaVuSans-20" x="2683.089844"/>
     <use xlink:href="#DejaVuSans-61" x="2714.876953"/>
     <use xlink:href="#DejaVuSans-6c" x="2776.15625"/>
     <use xlink:href="#DejaVuSans-67" x="2803.939453"/>
     <use xlink:href="#DejaVuSans-6f" x="2867.416016"/>
     <use xlink:href="#DejaVuSans-72" x="2928.597656"/>
     <use xlink:href="#DejaVuSans-69" x="2969.710938"/>
     <use xlink:href="#DejaVuSans-74" x="2997.494141"/>
     <use xlink:href="#DejaVuSans-68" x="3036.703125"/>
     <use xlink:href="#DejaVuSans-6d" x="3100.082031"/>
     <use xlink:href="#DejaVuSans-20" x="3197.494141"/>
     <use xlink:href="#DejaVuSans-2014" x="3229.28125"/>
     <use xlink:href="#DejaVuSans-20" x="3329.28125"/>
     <use xlink:href="#DejaVuSans-69" x="3361.068359"/>
     <use xlink:href="#DejaVuSans-64" x="3388.851562"/>
     <use xlink:href="#DejaVuSans-65" x="3452.328125"/>
     <use xlink:href="#DejaVuSans-61" x="3513.851562"/>
     <use xlink:href="#DejaVuSans-6c" x="3575.130859"/>
     <use xlink:href="#DejaVuSans-20" x="3602.914062"/>
     <use xlink:href="#DejaVuSans-63" x="3634.701172"/>
     <use xlink:href="#DejaVuSans-6f" x="3689.681641"/>
     <use xlink:href="#DejaVuSans-6e" x="3750.863281"/>
     <use xlink:href="#DejaVuSans-64" x="3814.242188"/>
     <use xlink:href="#DejaVuSans-69" x="3877.71875"/>
     <use xlink:href="#DejaVuSans-74" x="3905.501953"/>
     <use xlink:href="#DejaVuSans-69" x="3944.710938"/>
     <use xlink:href="#DejaVuSans-6f" x="3972.494141"/>
     <use xlink:href="#DejaVuSans-6e" x="4033.675781"/>
     <use xlink:href="#DejaVuSans-73" x="4097.054688"/>
    </g>
   </g>
  </g>
 </g>
 <defs>
  <clipPath id="p042af79aa6">
   <rect x="51.3" y="27.6" width="799.74" height="367.54"/>
  </clipPath>
 </defs>
</svg>
