<?xml version="1.0" encoding="utf-8" standalone="no"?>
<!DOCTYPE svg PUBLIC "-//W3C//DTD SVG 1.1//EN"
  "http://www.w3.org/Graphics/SVG/1.1/DTD/svg11.dtd">
<svg xmlns:xlink="http://www.w3.org/1999/xlink" width="864pt" height="432pt" viewBox="0 0 864 432" xmlns="http://www.w3.org/2000/svg" version="1.1">
 <metadata>
  <rdf:RDF xmlns:dc="http://purl.org/dc/elements/1.1/" xmlns:cc="http://creativecommons.org/ns#" xmlns:rdf="http://www.w3.org/1999/02/22-rdf-syntax-ns#">
   <cc:Work>
    <dc:type rdf:resource="http://purl.org/dc/dcmitype/StillImage"/>
    <dc:date>2026-03-21T13:58:44.697926</dc:date>
    <dc:format>image/svg+xml</dc:format>
    <dc:creator>
     <cc:Agent>
      <dc:title>Matplotlib v3.6.3, https://matplotlib.org/</dc:title>
     </cc:Agent>
    </dc:creator>
   </cc:Work>
  </rdf:RDF>
 </metadata>
 <defs>
  <style type="text/css">*{stroke-linejoin: round; stroke-linecap: butt}</style>
 </defs>
 <g id="figure_1">
  <g id="patch_1">
   <path d="M 0 432 
L 864 432 
L 864 0 
L 0 0 
z
" style="fill: #ffffff"/>
  </g>
  <g id="axes_1">
   <g id="patch_2">
    <path d="M 58.32 395.14 
L 851.04 395.14 
L 851.04 27.6 
L 58.32 27.6 
z
" style="fill: #ffffff"/>
   </g>
   <g id="matplotlib.axis_1">
    <g id="xtick_1">
     <g id="text_1">
      <!-- P-384 -->
      <g style="fill: #262626" transform="translate(117.642 415.277812) scale(0.14 -0.14)">
       <defs>
        <path id="DejaVuSans-50" d="M 1259 4147 
L 1259 2394 
L 2053 2394 
Q 2494 2394 2734 2622 
Q 2975 2850 2975 3272 
Q 2975 3691 2734 3919 
Q 2494 4147 2053 4147 
L 1259 4147 
z
M 628 4666 
L 2053 4666 
Q 2838 4666 3239 4311 
Q 3641 3956 3641 3272 
Q 3641 2581 3239 2228 
Q 2838 1875 2053 1875 
L 1259 1875 
L 1259 0 
L 628 0 
L 628 4666 
z
" transform="scale(0.015625)"/>
        <path id="DejaVuSans-2d" d="M 313 2009 
L 1997 2009 
L 1997 1497 
L 313 1497 
L 313 2009 
z
" transform="scale(0.015625)"/>
        <path id="DejaVuSans-33" d="M 2597 2516 
Q 3050 2419 3304 2112 
Q 3559 1806 3559 1356 
Q 3559 666 3084 287 
Q 2609 -91 1734 -91 
Q 1441 -91 1130 -33 
Q 819 25 488 141 
L 488 750 
Q 750 597 1062 519 
Q 1375 441 1716 441 
Q 2309 441 2620 675 
Q 2931 909 2931 1356 
Q 2931 1769 2642 2001 
Q 2353 2234 1838 2234 
L 1294 2234 
L 1294 2753 
L 1863 2753 
Q 2328 2753 2575 2939 
Q 2822 3125 2822 3475 
Q 2822 3834 2567 4026 
Q 2313 4219 1838 4219 
Q 1578 4219 1281 4162 
Q 984 4106 628 3988 
L 628 4550 
Q 988 4650 1302 4700 
Q 1616 4750 1894 4750 
Q 2613 4750 3031 4423 
Q 3450 4097 3450 3541 
Q 3450 3153 3228 2886 
Q 3006 2619 2597 2516 
z
" transform="scale(0.015625)"/>
        <path id="DejaVuSans-38" d="M 2034 2216 
Q 1584 2216 1326 1975 
Q 1069 1734 1069 1313 
Q 1069 891 1326 650 
Q 1584 409 2034 409 
Q 2484 409 2743 651 
Q 3003 894 3003 1313 
Q 3003 1734 2745 1975 
Q 2488 2216 2034 2216 
z
M 1403 2484 
Q 997 2584 770 2862 
Q 544 3141 544 3541 
Q 544 4100 942 4425 
Q 1341 4750 2034 4750 
Q 2731 4750 3128 4425 
Q 3525 4100 3525 3541 
Q 3525 3141 3298 2862 
Q 3072 2584 2669 2484 
Q 3125 2378 3379 2068 
Q 3634 1759 3634 1313 
Q 3634 634 3220 271 
Q 2806 -91 2034 -91 
Q 1263 -91 848 271 
Q 434 634 434 1313 
Q 434 1759 690 2068 
Q 947 2378 1403 2484 
z
M 1172 3481 
Q 1172 3119 1398 2916 
Q 1625 2713 2034 2713 
Q 2441 2713 2670 2916 
Q 2900 3119 2900 3481 
Q 2900 3844 2670 4047 
Q 2441 4250 2034 4250 
Q 1625 4250 1398 4047 
Q 1172 3844 1172 3481 
z
" transform="scale(0.015625)"/>
        <path id="DejaVuSans-34" d="M 2419 4116 
L 825 1625 
L 2419 1625 
L 2419 4116 
z
M 2253 4666 
L 3047 4666 
L 3047 1625 
L 3713 1625 
L 3713 1100 
L 3047 1100 
L 3047 0 
L 2419 0 
L 2419 1100 
L 313 1100 
L 313 1709 
L 2253 4666 
z
" transform="scale(0.015625)"/>
       </defs>
       <use xlink:href="#DejaVuSans-50"/>
       <use xlink:href="#DejaVuSans-2d" x="58.052734"/>
       <use xlink:href="#DejaVuSans-33" x="94.136719"/>
       <use xlink:href="#DejaVuSans-38" x="157.759766"/>
       <use xlink:href="#DejaVuSans-34" x="221.382812"/>
      </g>
     </g>
    </g>
    <g id="xtick_2">
     <g id="text_2">
      <!-- x448 -->
      <g style="fill: #262626" transform="translate(278.631625 415.277812) scale(0.14 -0.14)">
       <defs>
        <path id="DejaVuSans-78" d="M 3513 3500 
L 2247 1797 
L 3578 0 
L 2900 0 
L 1881 1375 
L 863 0 
L 184 0 
L 1544 1831 
L 300 3500 
L 978 3500 
L 1906 2253 
L 2834 3500 
L 3513 3500 
z
" transform="scale(0.015625)"/>
       </defs>
       <use xlink:href="#DejaVuSans-78"/>
       <use xlink:href="#DejaVuSans-34" x="59.179688"/>
       <use xlink:href="#DejaVuSans-34" x="122.802734"/>
       <use xlink:href="#DejaVuSans-38" x="186.425781"/>
      </g>
     </g>
    </g>
    <g id="xtick_3">
     <g id="text_3">
      <!-- p384_mlkem768 -->
      <g style="fill: #262626" transform="translate(396.325156 415.277812) scale(0.14 -0.14)">
       <defs>
        <path id="DejaVuSans-70" d="M 1159 525 
L 1159 -1331 
L 581 -1331 
L 581 3500 
L 1159 3500 
L 1159 2969 
Q 1341 3281 1617 3432 
Q 1894 3584 2278 3584 
Q 2916 3584 3314 3078 
Q 3713 2572 3713 1747 
Q 3713 922 3314 415 
Q 2916 -91 2278 -91 
Q 1894 -91 1617 61 
Q 1341 213 1159 525 
z
M 3116 1747 
Q 3116 2381 2855 2742 
Q 2594 3103 2138 3103 
Q 1681 3103 1420 2742 
Q 1159 2381 1159 1747 
Q 1159 1113 1420 752 
Q 1681 391 2138 391 
Q 2594 391 2855 752 
Q 3116 1113 3116 1747 
z
" transform="scale(0.015625)"/>
        <path id="DejaVuSans-5f" d="M 3263 -1063 
L 3263 -1509 
L -63 -1509 
L -63 -1063 
L 3263 -1063 
z
" transform="scale(0.015625)"/>
        <path id="DejaVuSans-6d" d="M 3328 2828 
Q 3544 3216 3844 3400 
Q 4144 3584 4550 3584 
Q 5097 3584 5394 3201 
Q 5691 2819 5691 2113 
L 5691 0 
L 5113 0 
L 5113 2094 
Q 5113 2597 4934 2840 
Q 4756 3084 4391 3084 
Q 3944 3084 3684 2787 
Q 3425 2491 3425 1978 
L 3425 0 
L 2847 0 
L 2847 2094 
Q 2847 2600 2669 2842 
Q 2491 3084 2119 3084 
Q 1678 3084 1418 2786 
Q 1159 2488 1159 1978 
L 1159 0 
L 581 0 
L 581 3500 
L 1159 3500 
L 1159 2956 
Q 1356 3278 1631 3431 
Q 1906 3584 2284 3584 
Q 2666 3584 2933 3390 
Q 3200 3197 3328 2828 
z
" transform="scale(0.015625)"/>
        <path id="DejaVuSans-6c" d="M 603 4863 
L 1178 4863 
L 1178 0 
L 603 0 
L 603 4863 
z
" transform="scale(0.015625)"/>
        <path id="DejaVuSans-6b" d="M 581 4863 
L 1159 4863 
L 1159 1991 
L 2875 3500 
L 3609 3500 
L 1753 1863 
L 3688 0 
L 2938 0 
L 1159 1709 
L 1159 0 
L 581 0 
L 581 4863 
z
" transform="scale(0.015625)"/>
        <path id="DejaVuSans-65" d="M 3597 1894 
L 3597 1613 
L 953 1613 
Q 991 1019 1311 708 
Q 1631 397 2203 397 
Q 2534 397 2845 478 
Q 3156 559 3463 722 
L 3463 178 
Q 3153 47 2828 -22 
Q 2503 -91 2169 -91 
Q 1331 -91 842 396 
Q 353 884 353 1716 
Q 353 2575 817 3079 
Q 1281 3584 2069 3584 
Q 2775 3584 3186 3129 
Q 3597 2675 3597 1894 
z
M 3022 2063 
Q 3016 2534 2758 2815 
Q 2500 3097 2075 3097 
Q 1594 3097 1305 2825 
Q 1016 2553 972 2059 
L 3022 2063 
z
" transform="scale(0.015625)"/>
        <path id="DejaVuSans-37" d="M 525 4666 
L 3525 4666 
L 3525 4397 
L 1831 0 
L 1172 0 
L 2766 4134 
L 525 4134 
L 525 4666 
z
" transform="scale(0.015625)"/>
        <path id="DejaVuSans-36" d="M 2113 2584 
Q 1688 2584 1439 2293 
Q 1191 2003 1191 1497 
Q 1191 994 1439 701 
Q 1688 409 2113 409 
Q 2538 409 2786 701 
Q 3034 994 3034 1497 
Q 3034 2003 2786 2293 
Q 2538 2584 2113 2584 
z
M 3366 4563 
L 3366 3988 
Q 3128 4100 2886 4159 
Q 2644 4219 2406 4219 
Q 1781 4219 1451 3797 
Q 1122 3375 1075 2522 
Q 1259 2794 1537 2939 
Q 1816 3084 2150 3084 
Q 2853 3084 3261 2657 
Q 3669 2231 3669 1497 
Q 3669 778 3244 343 
Q 2819 -91 2113 -91 
Q 1303 -91 875 529 
Q 447 1150 447 2328 
Q 447 3434 972 4092 
Q 1497 4750 2381 4750 
Q 2619 4750 2861 4703 
Q 3103 4656 3366 4563 
z
" transform="scale(0.015625)"/>
       </defs>
       <use xlink:href="#DejaVuSans-70"/>
       <use xlink:href="#DejaVuSans-33" x="63.476562"/>
       <use xlink:href="#DejaVuSans-38" x="127.099609"/>
       <use xlink:href="#DejaVuSans-34" x="190.722656"/>
       <use xlink:href="#DejaVuSans-5f" x="254.345703"/>
       <use xlink:href="#DejaVuSans-6d" x="304.345703"/>
       <use xlink:href="#DejaVuSans-6c" x="401.757812"/>
       <use xlink:href="#DejaVuSans-6b" x="429.541016"/>
       <use xlink:href="#DejaVuSans-65" x="483.826172"/>
       <use xlink:href="#DejaVuSans-6d" x="545.349609"/>
       <use xlink:href="#DejaVuSans-37" x="642.761719"/>
       <use xlink:href="#DejaVuSans-36" x="706.384766"/>
       <use xlink:href="#DejaVuSans-38" x="770.007812"/>
      </g>
     </g>
    </g>
    <g id="xtick_4">
     <g id="text_4">
      <!-- x448_mlkem768 -->
      <g style="fill: #262626" transform="translate(555.169937 415.277812) scale(0.14 -0.14)">
       <use xlink:href="#DejaVuSans-78"/>
       <use xlink:href="#DejaVuSans-34" x="59.179688"/>
       <use xlink:href="#DejaVuSans-34" x="122.802734"/>
       <use xlink:href="#DejaVuSans-38" x="186.425781"/>
       <use xlink:href="#DejaVuSans-5f" x="250.048828"/>
       <use xlink:href="#DejaVuSans-6d" x="300.048828"/>
       <use xlink:href="#DejaVuSans-6c" x="397.460938"/>
       <use xlink:href="#DejaVuSans-6b" x="425.244141"/>
       <use xlink:href="#DejaVuSans-65" x="479.529297"/>
       <use xlink:href="#DejaVuSans-6d" x="541.052734"/>
       <use xlink:href="#DejaVuSans-37" x="638.464844"/>
       <use xlink:href="#DejaVuSans-36" x="702.087891"/>
       <use xlink:href="#DejaVuSans-38" x="765.710938"/>
      </g>
     </g>
    </g>
    <g id="xtick_5">
     <g id="text_5">
      <!-- mlkem768 -->
      <g style="fill: #262626" transform="translate(734.718312 415.277812) scale(0.14 -0.14)">
       <use xlink:href="#DejaVuSans-6d"/>
       <use xlink:href="#DejaVuSans-6c" x="97.412109"/>
       <use xlink:href="#DejaVuSans-6b" x="125.195312"/>
       <use xlink:href="#DejaVuSans-65" x="179.480469"/>
       <use xlink:href="#DejaVuSans-6d" x="241.003906"/>
       <use xlink:href="#DejaVuSans-37" x="338.416016"/>
       <use xlink:href="#DejaVuSans-36" x="402.039062"/>
       <use xlink:href="#DejaVuSans-38" x="465.662109"/>
      </g>
     </g>
    </g>
   </g>
   <g id="matplotlib.axis_2">
    <g id="ytick_1">
     <g id="line2d_1">
      <path d="M 58.32 394.383037 
L 851.04 394.383037 
" clip-path="url(#p06ed29b53d)" style="fill: none; stroke: #cccccc; stroke-linecap: round"/>
     </g>
     <g id="text_6">
      <!-- 800 -->
      <g style="fill: #262626" transform="translate(27.82375 398.562177) scale(0.11 -0.11)">
       <defs>
        <path id="DejaVuSans-30" d="M 2034 4250 
Q 1547 4250 1301 3770 
Q 1056 3291 1056 2328 
Q 1056 1369 1301 889 
Q 1547 409 2034 409 
Q 2525 409 2770 889 
Q 3016 1369 3016 2328 
Q 3016 3291 2770 3770 
Q 2525 4250 2034 4250 
z
M 2034 4750 
Q 2819 4750 3233 4129 
Q 3647 3509 3647 2328 
Q 3647 1150 3233 529 
Q 2819 -91 2034 -91 
Q 1250 -91 836 529 
Q 422 1150 422 2328 
Q 422 3509 836 4129 
Q 1250 4750 2034 4750 
z
" transform="scale(0.015625)"/>
       </defs>
       <use xlink:href="#DejaVuSans-38"/>
       <use xlink:href="#DejaVuSans-30" x="63.623047"/>
       <use xlink:href="#DejaVuSans-30" x="127.246094"/>
      </g>
     </g>
    </g>
    <g id="ytick_2">
     <g id="line2d_2">
      <path d="M 58.32 341.962818 
L 851.04 341.962818 
" clip-path="url(#p06ed29b53d)" style="fill: none; stroke: #cccccc; stroke-linecap: round"/>
     </g>
     <g id="text_7">
      <!-- 810 -->
      <g style="fill: #262626" transform="translate(27.82375 346.141959) scale(0.11 -0.11)">
       <defs>
        <path id="DejaVuSans-31" d="M 794 531 
L 1825 531 
L 1825 4091 
L 703 3866 
L 703 4441 
L 1819 4666 
L 2450 4666 
L 2450 531 
L 3481 531 
L 3481 0 
L 794 0 
L 794 531 
z
" transform="scale(0.015625)"/>
       </defs>
       <use xlink:href="#DejaVuSans-38"/>
       <use xlink:href="#DejaVuSans-31" x="63.623047"/>
       <use xlink:href="#DejaVuSans-30" x="127.246094"/>
      </g>
     </g>
    </g>
    <g id="ytick_3">
     <g id="line2d_3">
      <path d="M 58.32 289.5426 
L 851.04 289.5426 
" clip-path="url(#p06ed29b53d)" style="fill: none; stroke: #cccccc; stroke-linecap: round"/>
     </g>
     <g id="text_8">
      <!-- 820 -->
      <g style="fill: #262626" transform="translate(27.82375 293.72174) scale(0.11 -0.11)">
       <defs>
        <path id="DejaVuSans-32" d="M 1228 531 
L 3431 531 
L 3431 0 
L 469 0 
L 469 531 
Q 828 903 1448 1529 
Q 2069 2156 2228 2338 
Q 2531 2678 2651 2914 
Q 2772 3150 2772 3378 
Q 2772 3750 2511 3984 
Q 2250 4219 1831 4219 
Q 1534 4219 1204 4116 
Q 875 4013 500 3803 
L 500 4441 
Q 881 4594 1212 4672 
Q 1544 4750 1819 4750 
Q 2544 4750 2975 4387 
Q 3406 4025 3406 3419 
Q 3406 3131 3298 2873 
Q 3191 2616 2906 2266 
Q 2828 2175 2409 1742 
Q 1991 1309 1228 531 
z
" transform="scale(0.015625)"/>
       </defs>
       <use xlink:href="#DejaVuSans-38"/>
       <use xlink:href="#DejaVuSans-32" x="63.623047"/>
       <use xlink:href="#DejaVuSans-30" x="127.246094"/>
      </g>
     </g>
    </g>
    <g id="ytick_4">
     <g id="line2d_4">
      <path d="M 58.32 237.122381 
L 851.04 237.122381 
" clip-path="url(#p06ed29b53d)" style="fill: none; stroke: #cccccc; stroke-linecap: round"/>
     </g>
     <g id="text_9">
      <!-- 830 -->
      <g style="fill: #262626" transform="translate(27.82375 241.301522) scale(0.11 -0.11)">
       <use xlink:href="#DejaVuSans-38"/>
       <use xlink:href="#DejaVuSans-33" x="63.623047"/>
       <use xlink:href="#DejaVuSans-30" x="127.246094"/>
      </g>
     </g>
    </g>
    <g id="ytick_5">
     <g id="line2d_5">
      <path d="M 58.32 184.702163 
L 851.04 184.702163 
" clip-path="url(#p06ed29b53d)" style="fill: none; stroke: #cccccc; stroke-linecap: round"/>
     </g>
     <g id="text_10">
      <!-- 840 -->
      <g style="fill: #262626" transform="translate(27.82375 188.881303) scale(0.11 -0.11)">
       <use xlink:href="#DejaVuSans-38"/>
       <use xlink:href="#DejaVuSans-34" x="63.623047"/>
       <use xlink:href="#DejaVuSans-30" x="127.246094"/>
      </g>
     </g>
    </g>
    <g id="ytick_6">
     <g id="line2d_6">
      <path d="M 58.32 132.281944 
L 851.04 132.281944 
" clip-path="url(#p06ed29b53d)" style="fill: none; stroke: #cccccc; stroke-linecap: round"/>
     </g>
     <g id="text_11">
      <!-- 850 -->
      <g style="fill: #262626" transform="translate(27.82375 136.461085) scale(0.11 -0.11)">
       <defs>
        <path id="DejaVuSans-35" d="M 691 4666 
L 3169 4666 
L 3169 4134 
L 1269 4134 
L 1269 2991 
Q 1406 3038 1543 3061 
Q 1681 3084 1819 3084 
Q 2600 3084 3056 2656 
Q 3513 2228 3513 1497 
Q 3513 744 3044 326 
Q 2575 -91 1722 -91 
Q 1428 -91 1123 -41 
Q 819 9 494 109 
L 494 744 
Q 775 591 1075 516 
Q 1375 441 1709 441 
Q 2250 441 2565 725 
Q 2881 1009 2881 1497 
Q 2881 1984 2565 2268 
Q 2250 2553 1709 2553 
Q 1456 2553 1204 2497 
Q 953 2441 691 2322 
L 691 4666 
z
" transform="scale(0.015625)"/>
       </defs>
       <use xlink:href="#DejaVuSans-38"/>
       <use xlink:href="#DejaVuSans-35" x="63.623047"/>
       <use xlink:href="#DejaVuSans-30" x="127.246094"/>
      </g>
     </g>
    </g>
    <g id="ytick_7">
     <g id="line2d_7">
      <path d="M 58.32 79.861726 
L 851.04 79.861726 
" clip-path="url(#p06ed29b53d)" style="fill: none; stroke: #cccccc; stroke-linecap: round"/>
     </g>
     <g id="text_12">
      <!-- 860 -->
      <g style="fill: #262626" transform="translate(27.82375 84.040866) scale(0.11 -0.11)">
       <use xlink:href="#DejaVuSans-38"/>
       <use xlink:href="#DejaVuSans-36" x="63.623047"/>
       <use xlink:href="#DejaVuSans-30" x="127.246094"/>
      </g>
     </g>
    </g>
    <g id="text_13">
     <!-- Handshake duration (ms) -->
     <g style="fill: #262626" transform="translate(21.328125 287.437813) rotate(-90) scale(0.12 -0.12)">
      <defs>
       <path id="DejaVuSans-48" d="M 628 4666 
L 1259 4666 
L 1259 2753 
L 3553 2753 
L 3553 4666 
L 4184 4666 
L 4184 0 
L 3553 0 
L 3553 2222 
L 1259 2222 
L 1259 0 
L 628 0 
L 628 4666 
z
" transform="scale(0.015625)"/>
       <path id="DejaVuSans-61" d="M 2194 1759 
Q 1497 1759 1228 1600 
Q 959 1441 959 1056 
Q 959 750 1161 570 
Q 1363 391 1709 391 
Q 2188 391 2477 730 
Q 2766 1069 2766 1631 
L 2766 1759 
L 2194 1759 
z
M 3341 1997 
L 3341 0 
L 2766 0 
L 2766 531 
Q 2569 213 2275 61 
Q 1981 -91 1556 -91 
Q 1019 -91 701 211 
Q 384 513 384 1019 
Q 384 1609 779 1909 
Q 1175 2209 1959 2209 
L 2766 2209 
L 2766 2266 
Q 2766 2663 2505 2880 
Q 2244 3097 1772 3097 
Q 1472 3097 1187 3025 
Q 903 2953 641 2809 
L 641 3341 
Q 956 3463 1253 3523 
Q 1550 3584 1831 3584 
Q 2591 3584 2966 3190 
Q 3341 2797 3341 1997 
z
" transform="scale(0.015625)"/>
       <path id="DejaVuSans-6e" d="M 3513 2113 
L 3513 0 
L 2938 0 
L 2938 2094 
Q 2938 2591 2744 2837 
Q 2550 3084 2163 3084 
Q 1697 3084 1428 2787 
Q 1159 2491 1159 1978 
L 1159 0 
L 581 0 
L 581 3500 
L 1159 3500 
L 1159 2956 
Q 1366 3272 1645 3428 
Q 1925 3584 2291 3584 
Q 2894 3584 3203 3211 
Q 3513 2838 3513 2113 
z
" transform="scale(0.015625)"/>
       <path id="DejaVuSans-64" d="M 2906 2969 
L 2906 4863 
L 3481 4863 
L 3481 0 
L 2906 0 
L 2906 525 
Q 2725 213 2448 61 
Q 2172 -91 1784 -91 
Q 1150 -91 751 415 
Q 353 922 353 1747 
Q 353 2572 751 3078 
Q 1150 3584 1784 3584 
Q 2172 3584 2448 3432 
Q 2725 3281 2906 2969 
z
M 947 1747 
Q 947 1113 1208 752 
Q 1469 391 1925 391 
Q 2381 391 2643 752 
Q 2906 1113 2906 1747 
Q 2906 2381 2643 2742 
Q 2381 3103 1925 3103 
Q 1469 3103 1208 2742 
Q 947 2381 947 1747 
z
" transform="scale(0.015625)"/>
       <path id="DejaVuSans-73" d="M 2834 3397 
L 2834 2853 
Q 2591 2978 2328 3040 
Q 2066 3103 1784 3103 
Q 1356 3103 1142 2972 
Q 928 2841 928 2578 
Q 928 2378 1081 2264 
Q 1234 2150 1697 2047 
L 1894 2003 
Q 2506 1872 2764 1633 
Q 3022 1394 3022 966 
Q 3022 478 2636 193 
Q 2250 -91 1575 -91 
Q 1294 -91 989 -36 
Q 684 19 347 128 
L 347 722 
Q 666 556 975 473 
Q 1284 391 1588 391 
Q 1994 391 2212 530 
Q 2431 669 2431 922 
Q 2431 1156 2273 1281 
Q 2116 1406 1581 1522 
L 1381 1569 
Q 847 1681 609 1914 
Q 372 2147 372 2553 
Q 372 3047 722 3315 
Q 1072 3584 1716 3584 
Q 2034 3584 2315 3537 
Q 2597 3491 2834 3397 
z
" transform="scale(0.015625)"/>
       <path id="DejaVuSans-68" d="M 3513 2113 
L 3513 0 
L 2938 0 
L 2938 2094 
Q 2938 2591 2744 2837 
Q 2550 3084 2163 3084 
Q 1697 3084 1428 2787 
Q 1159 2491 1159 1978 
L 1159 0 
L 581 0 
L 581 4863 
L 1159 4863 
L 1159 2956 
Q 1366 3272 1645 3428 
Q 1925 3584 2291 3584 
Q 2894 3584 3203 3211 
Q 3513 2838 3513 2113 
z
" transform="scale(0.015625)"/>
       <path id="DejaVuSans-20" transform="scale(0.015625)"/>
       <path id="DejaVuSans-75" d="M 544 1381 
L 544 3500 
L 1119 3500 
L 1119 1403 
Q 1119 906 1312 657 
Q 1506 409 1894 409 
Q 2359 409 2629 706 
Q 2900 1003 2900 1516 
L 2900 3500 
L 3475 3500 
L 3475 0 
L 2900 0 
L 2900 538 
Q 2691 219 2414 64 
Q 2138 -91 1772 -91 
Q 1169 -91 856 284 
Q 544 659 544 1381 
z
M 1991 3584 
L 1991 3584 
z
" transform="scale(0.015625)"/>
       <path id="DejaVuSans-72" d="M 2631 2963 
Q 2534 3019 2420 3045 
Q 2306 3072 2169 3072 
Q 1681 3072 1420 2755 
Q 1159 2438 1159 1844 
L 1159 0 
L 581 0 
L 581 3500 
L 1159 3500 
L 1159 2956 
Q 1341 3275 1631 3429 
Q 1922 3584 2338 3584 
Q 2397 3584 2469 3576 
Q 2541 3569 2628 3553 
L 2631 2963 
z
" transform="scale(0.015625)"/>
       <path id="DejaVuSans-74" d="M 1172 4494 
L 1172 3500 
L 2356 3500 
L 2356 3053 
L 1172 3053 
L 1172 1153 
Q 1172 725 1289 603 
Q 1406 481 1766 481 
L 2356 481 
L 2356 0 
L 1766 0 
Q 1100 0 847 248 
Q 594 497 594 1153 
L 594 3053 
L 172 3053 
L 172 3500 
L 594 3500 
L 594 4494 
L 1172 4494 
z
" transform="scale(0.015625)"/>
       <path id="DejaVuSans-69" d="M 603 3500 
L 1178 3500 
L 1178 0 
L 603 0 
L 603 3500 
z
M 603 4863 
L 1178 4863 
L 1178 4134 
L 603 4134 
L 603 4863 
z
" transform="scale(0.015625)"/>
       <path id="DejaVuSans-6f" d="M 1959 3097 
Q 1497 3097 1228 2736 
Q 959 2375 959 1747 
Q 959 1119 1226 758 
Q 1494 397 1959 397 
Q 2419 397 2687 759 
Q 2956 1122 2956 1747 
Q 2956 2369 2687 2733 
Q 2419 3097 1959 3097 
z
M 1959 3584 
Q 2709 3584 3137 3096 
Q 3566 2609 3566 1747 
Q 3566 888 3137 398 
Q 2709 -91 1959 -91 
Q 1206 -91 779 398 
Q 353 888 353 1747 
Q 353 2609 779 3096 
Q 1206 3584 1959 3584 
z
" transform="scale(0.015625)"/>
       <path id="DejaVuSans-28" d="M 1984 4856 
Q 1566 4138 1362 3434 
Q 1159 2731 1159 2009 
Q 1159 1288 1364 580 
Q 1569 -128 1984 -844 
L 1484 -844 
Q 1016 -109 783 600 
Q 550 1309 550 2009 
Q 550 2706 781 3412 
Q 1013 4119 1484 4856 
L 1984 4856 
z
" transform="scale(0.015625)"/>
       <path id="DejaVuSans-29" d="M 513 4856 
L 1013 4856 
Q 1481 4119 1714 3412 
Q 1947 2706 1947 2009 
Q 1947 1309 1714 600 
Q 1481 -109 1013 -844 
L 513 -844 
Q 928 -128 1133 580 
Q 1338 1288 1338 2009 
Q 1338 2731 1133 3434 
Q 928 4138 513 4856 
z
" transform="scale(0.015625)"/>
      </defs>
      <use xlink:href="#DejaVuSans-48"/>
      <use xlink:href="#DejaVuSans-61" x="75.195312"/>
      <use xlink:href="#DejaVuSans-6e" x="136.474609"/>
      <use xlink:href="#DejaVuSans-64" x="199.853516"/>
      <use xlink:href="#DejaVuSans-73" x="263.330078"/>
      <use xlink:href="#DejaVuSans-68" x="315.429688"/>
      <use xlink:href="#DejaVuSans-61" x="378.808594"/>
      <use xlink:href="#DejaVuSans-6b" x="440.087891"/>
      <use xlink:href="#DejaVuSans-65" x="494.373047"/>
      <use xlink:href="#DejaVuSans-20" x="555.896484"/>
      <use xlink:href="#DejaVuSans-64" x="587.683594"/>
      <use xlink:href="#DejaVuSans-75" x="651.160156"/>
      <use xlink:href="#DejaVuSans-72" x="714.539062"/>
      <use xlink:href="#DejaVuSans-61" x="755.652344"/>
      <use xlink:href="#DejaVuSans-74" x="816.931641"/>
      <use xlink:href="#DejaVuSans-69" x="856.140625"/>
      <use xlink:href="#DejaVuSans-6f" x="883.923828"/>
      <use xlink:href="#DejaVuSans-6e" x="945.105469"/>
      <use xlink:href="#DejaVuSans-20" x="1008.484375"/>
      <use xlink:href="#DejaVuSans-28" x="1040.271484"/>
      <use xlink:href="#DejaVuSans-6d" x="1079.285156"/>
      <use xlink:href="#DejaVuSans-73" x="1176.697266"/>
      <use xlink:href="#DejaVuSans-29" x="1228.796875"/>
     </g>
    </g>
   </g>
   <g id="PolyCollection_1">
    <defs>
     <path id="mbc718aeb4a" d="M 137.701729 -69.910282 
L 137.482271 -69.910282 
L 137.413733 -71.695167 
L 137.313122 -73.480053 
L 137.171126 -75.264938 
L 136.97803 -77.049823 
L 136.724416 -78.834708 
L 136.401921 -80.619593 
L 136.003976 -82.404478 
L 135.526497 -84.189363 
L 134.968474 -85.974249 
L 134.33242 -87.759134 
L 133.624494 -89.544019 
L 132.854107 -91.328904 
L 132.032739 -93.113789 
L 131.171795 -94.898674 
L 130.279417 -96.683559 
L 129.356332 -98.468444 
L 128.390909 -100.25333 
L 127.353756 -102.038215 
L 126.19246 -103.8231 
L 124.827597 -105.607985 
L 123.151863 -107.39287 
L 121.034887 -109.177755 
L 118.336457 -110.96264 
L 114.929962 -112.747525 
L 110.73547 -114.532411 
L 105.758171 -116.317296 
L 100.123831 -118.102181 
L 94.099923 -119.887066 
L 88.091045 -121.671951 
L 82.601247 -123.456836 
L 78.16394 -125.241721 
L 75.250103 -127.026606 
L 74.1744 -128.811492 
L 75.022819 -130.596377 
L 77.622299 -132.381262 
L 81.562861 -134.166147 
L 86.268983 -135.951032 
L 91.103982 -137.735917 
L 95.483262 -139.520802 
L 98.971525 -141.305688 
L 101.344806 -143.090573 
L 102.607844 -144.875458 
L 102.967635 -146.660343 
L 102.772524 -148.445228 
L 102.431827 -150.230113 
L 102.333214 -152.014998 
L 102.774152 -153.799883 
L 103.919634 -155.584769 
L 105.791862 -157.369654 
L 108.289757 -159.154539 
L 111.229279 -160.939424 
L 114.391611 -162.724309 
L 117.566457 -164.509194 
L 120.581661 -166.294079 
L 123.316192 -168.078964 
L 125.698956 -169.86385 
L 127.699048 -171.648735 
L 129.313473 -173.43362 
L 130.556668 -175.218505 
L 131.453733 -177.00339 
L 132.037181 -178.788275 
L 132.345863 -180.57316 
L 132.424517 -182.358045 
L 132.322748 -184.142931 
L 132.092855 -185.927816 
L 131.786601 -187.712701 
L 131.451492 -189.497586 
L 131.127472 -191.282471 
L 130.844871 -193.067356 
L 130.624077 -194.852241 
L 130.476785 -196.637126 
L 130.408129 -198.422012 
L 130.418711 -200.206897 
L 130.505731 -201.991782 
L 130.662992 -203.776667 
L 130.880288 -205.561552 
L 131.143098 -207.346437 
L 131.433523 -209.131322 
L 131.732853 -210.916208 
L 132.025304 -212.701093 
L 132.301765 -214.485978 
L 132.562153 -216.270863 
L 132.815335 -218.055748 
L 133.076405 -219.840633 
L 133.362083 -221.625518 
L 133.685594 -223.410403 
L 134.052613 -225.195289 
L 134.459334 -226.980174 
L 134.89308 -228.765059 
L 135.335007 -230.549944 
L 135.763968 -232.334829 
L 136.160424 -234.119714 
L 136.509458 -235.904599 
L 136.802397 -237.689484 
L 137.036975 -239.47437 
L 137.216325 -241.259255 
L 137.347324 -243.04414 
L 137.438767 -244.829025 
L 137.499783 -246.61391 
L 137.684217 -246.61391 
L 137.684217 -246.61391 
L 137.745233 -244.829025 
L 137.836676 -243.04414 
L 137.967675 -241.259255 
L 138.147025 -239.47437 
L 138.381603 -237.689484 
L 138.674542 -235.904599 
L 139.023576 -234.119714 
L 139.420032 -232.334829 
L 139.848993 -230.549944 
L 140.29092 -228.765059 
L 140.724666 -226.980174 
L 141.131387 -225.195289 
L 141.498406 -223.410403 
L 141.821917 -221.625518 
L 142.107595 -219.840633 
L 142.368665 -218.055748 
L 142.621847 -216.270863 
L 142.882235 -214.485978 
L 143.158696 -212.701093 
L 143.451147 -210.916208 
L 143.750477 -209.131322 
L 144.040902 -207.346437 
L 144.303712 -205.561552 
L 144.521008 -203.776667 
L 144.678269 -201.991782 
L 144.765289 -200.206897 
L 144.775871 -198.422012 
L 144.707215 -196.637126 
L 144.559923 -194.852241 
L 144.339129 -193.067356 
L 144.056528 -191.282471 
L 143.732508 -189.497586 
L 143.397399 -187.712701 
L 143.091145 -185.927816 
L 142.861252 -184.142931 
L 142.759483 -182.358045 
L 142.838137 -180.57316 
L 143.146819 -178.788275 
L 143.730267 -177.00339 
L 144.627332 -175.218505 
L 145.870527 -173.43362 
L 147.484952 -171.648735 
L 149.485044 -169.86385 
L 151.867808 -168.078964 
L 154.602339 -166.294079 
L 157.617543 -164.509194 
L 160.792389 -162.724309 
L 163.954721 -160.939424 
L 166.894243 -159.154539 
L 169.392138 -157.369654 
L 171.264366 -155.584769 
L 172.409848 -153.799883 
L 172.850786 -152.014998 
L 172.752173 -150.230113 
L 172.411476 -148.445228 
L 172.216365 -146.660343 
L 172.576156 -144.875458 
L 173.839194 -143.090573 
L 176.212475 -141.305688 
L 179.700738 -139.520802 
L 184.080018 -137.735917 
L 188.915017 -135.951032 
L 193.621139 -134.166147 
L 197.561701 -132.381262 
L 200.161181 -130.596377 
L 201.0096 -128.811492 
L 199.933897 -127.026606 
L 197.02006 -125.241721 
L 192.582753 -123.456836 
L 187.092955 -121.671951 
L 181.084077 -119.887066 
L 175.060169 -118.102181 
L 169.425829 -116.317296 
L 164.44853 -114.532411 
L 160.254038 -112.747525 
L 156.847543 -110.96264 
L 154.149113 -109.177755 
L 152.032137 -107.39287 
L 150.356403 -105.607985 
L 148.99154 -103.8231 
L 147.830244 -102.038215 
L 146.793091 -100.25333 
L 145.827668 -98.468444 
L 144.904583 -96.683559 
L 144.012205 -94.898674 
L 143.151261 -93.113789 
L 142.329893 -91.328904 
L 141.559506 -89.544019 
L 140.85158 -87.759134 
L 140.215526 -85.974249 
L 139.657503 -84.189363 
L 139.180024 -82.404478 
L 138.782079 -80.619593 
L 138.459584 -78.834708 
L 138.20597 -77.049823 
L 138.012874 -75.264938 
L 137.870878 -73.480053 
L 137.770267 -71.695167 
L 137.701729 -69.910282 
z
" style="stroke: #595959; stroke-width: 1.25"/>
    </defs>
    <g clip-path="url(#p06ed29b53d)">
     <use xlink:href="#mbc718aeb4a" x="0" y="432" style="fill: #72b6a1; stroke: #595959; stroke-width: 1.25"/>
    </g>
   </g>
   <g id="PolyCollection_2">
    <defs>
     <path id="m5b6563151b" d="M 296.712059 -53.566364 
L 295.559941 -53.566364 
L 295.21374 -54.927954 
L 294.713584 -56.289545 
L 294.021698 -57.651136 
L 293.105773 -59.012727 
L 291.946363 -60.374318 
L 290.544534 -61.735909 
L 288.92799 -63.0975 
L 287.15374 -64.45909 
L 285.305743 -65.820681 
L 283.486911 -67.182272 
L 281.806201 -68.543863 
L 280.362887 -69.905454 
L 279.231085 -71.267045 
L 278.447848 -72.628636 
L 278.007468 -73.990226 
L 277.863309 -75.351817 
L 277.936741 -76.713408 
L 278.1312 -78.074999 
L 278.348373 -79.43659 
L 278.503233 -80.798181 
L 278.53516 -82.159771 
L 278.413332 -83.521362 
L 278.135783 -84.882953 
L 277.72267 -86.244544 
L 277.205187 -87.606135 
L 276.612237 -88.967726 
L 275.957353 -90.329317 
L 275.228406 -91.690907 
L 274.382351 -93.052498 
L 273.346554 -94.414089 
L 272.027174 -95.77568 
L 270.32375 -97.137271 
L 268.14791 -98.498862 
L 265.443128 -99.860453 
L 262.202068 -101.222043 
L 258.478222 -102.583634 
L 254.389367 -103.945225 
L 250.111607 -105.306816 
L 245.864266 -106.668407 
L 241.887477 -108.029998 
L 238.415644 -109.391589 
L 235.650822 -110.753179 
L 233.740255 -112.11477 
L 232.761655 -113.476361 
L 232.7184 -114.837952 
L 233.544956 -116.199543 
L 235.120857 -117.561134 
L 237.290075 -118.922724 
L 239.881856 -120.284315 
L 242.72934 -121.645906 
L 245.683302 -123.007497 
L 248.619871 -124.369088 
L 251.442657 -125.730679 
L 254.080908 -127.09227 
L 256.485883 -128.45386 
L 258.627478 -129.815451 
L 260.49241 -131.177042 
L 262.08425 -132.538633 
L 263.424529 -133.900224 
L 264.553523 -135.261815 
L 265.529155 -136.623406 
L 266.422936 -137.984996 
L 267.312765 -139.346587 
L 268.273439 -140.708178 
L 269.366607 -142.069769 
L 270.632225 -143.43136 
L 272.083406 -144.792951 
L 273.70575 -146.154541 
L 275.461257 -147.516132 
L 277.295834 -148.877723 
L 279.148698 -150.239314 
L 280.961676 -151.600905 
L 282.68661 -152.962496 
L 284.289725 -154.324087 
L 285.752596 -155.685677 
L 287.070222 -157.047268 
L 288.247234 -158.408859 
L 289.293527 -159.77045 
L 290.220484 -161.132041 
L 291.038519 -162.493632 
L 291.756161 -163.855223 
L 292.380434 -165.216813 
L 292.917965 -166.578404 
L 293.376175 -167.939995 
L 293.764044 -169.301586 
L 294.092152 -170.663177 
L 294.372014 -172.024768 
L 294.614915 -173.386358 
L 294.830639 -174.747949 
L 295.026459 -176.10954 
L 295.206659 -177.471131 
L 295.372701 -178.832722 
L 295.523934 -180.194313 
L 295.658608 -181.555904 
L 295.774914 -182.917494 
L 295.871781 -184.279085 
L 295.949311 -185.640676 
L 296.008811 -187.002267 
L 296.052542 -188.363858 
L 296.219458 -188.363858 
L 296.219458 -188.363858 
L 296.263189 -187.002267 
L 296.322689 -185.640676 
L 296.400219 -184.279085 
L 296.497086 -182.917494 
L 296.613392 -181.555904 
L 296.748066 -180.194313 
L 296.899299 -178.832722 
L 297.065341 -177.471131 
L 297.245541 -176.10954 
L 297.441361 -174.747949 
L 297.657085 -173.386358 
L 297.899986 -172.024768 
L 298.179848 -170.663177 
L 298.507956 -169.301586 
L 298.895825 -167.939995 
L 299.354035 -166.578404 
L 299.891566 -165.216813 
L 300.515839 -163.855223 
L 301.233481 -162.493632 
L 302.051516 -161.132041 
L 302.978473 -159.77045 
L 304.024766 -158.408859 
L 305.201778 -157.047268 
L 306.519404 -155.685677 
L 307.982275 -154.324087 
L 309.58539 -152.962496 
L 311.310324 -151.600905 
L 313.123302 -150.239314 
L 314.976166 -148.877723 
L 316.810743 -147.516132 
L 318.56625 -146.154541 
L 320.188594 -144.792951 
L 321.639775 -143.43136 
L 322.905393 -142.069769 
L 323.998561 -140.708178 
L 324.959235 -139.346587 
L 325.849064 -137.984996 
L 326.742845 -136.623406 
L 327.718477 -135.261815 
L 328.847471 -133.900224 
L 330.18775 -132.538633 
L 331.77959 -131.177042 
L 333.644522 -129.815451 
L 335.786117 -128.45386 
L 338.191092 -127.09227 
L 340.829343 -125.730679 
L 343.652129 -124.369088 
L 346.588698 -123.007497 
L 349.54266 -121.645906 
L 352.390144 -120.284315 
L 354.981925 -118.922724 
L 357.151143 -117.561134 
L 358.727044 -116.199543 
L 359.5536 -114.837952 
L 359.510345 -113.476361 
L 358.531745 -112.11477 
L 356.621178 -110.753179 
L 353.856356 -109.391589 
L 350.384523 -108.029998 
L 346.407734 -106.668407 
L 342.160393 -105.306816 
L 337.882633 -103.945225 
L 333.793778 -102.583634 
L 330.069932 -101.222043 
L 326.828872 -99.860453 
L 324.12409 -98.498862 
L 321.94825 -97.137271 
L 320.244826 -95.77568 
L 318.925446 -94.414089 
L 317.889649 -93.052498 
L 317.043594 -91.690907 
L 316.314647 -90.329317 
L 315.659763 -88.967726 
L 315.066813 -87.606135 
L 314.54933 -86.244544 
L 314.136217 -84.882953 
L 313.858668 -83.521362 
L 313.73684 -82.159771 
L 313.768767 -80.798181 
L 313.923627 -79.43659 
L 314.1408 -78.074999 
L 314.335259 -76.713408 
L 314.408691 -75.351817 
L 314.264532 -73.990226 
L 313.824152 -72.628636 
L 313.040915 -71.267045 
L 311.909113 -69.905454 
L 310.465799 -68.543863 
L 308.785089 -67.182272 
L 306.966257 -65.820681 
L 305.11826 -64.45909 
L 303.34401 -63.0975 
L 301.727466 -61.735909 
L 300.325637 -60.374318 
L 299.166227 -59.012727 
L 298.250302 -57.651136 
L 297.558416 -56.289545 
L 297.05826 -54.927954 
L 296.712059 -53.566364 
z
" style="stroke: #595959; stroke-width: 1.25"/>
    </defs>
    <g clip-path="url(#p06ed29b53d)">
     <use xlink:href="#m5b6563151b" x="0" y="432" style="fill: #e99675; stroke: #595959; stroke-width: 1.25"/>
    </g>
   </g>
   <g id="PolyCollection_3">
    <defs>
     <path id="m784b55ad82" d="M 454.986899 -85.147648 
L 454.373101 -85.147648 
L 454.212331 -88.203668 
L 453.987082 -91.259688 
L 453.680778 -94.315708 
L 453.275887 -97.371728 
L 452.754562 -100.427748 
L 452.099016 -103.483768 
L 451.291319 -106.539788 
L 450.312409 -109.595808 
L 449.140286 -112.651829 
L 447.747625 -115.707849 
L 446.099428 -118.763869 
L 444.151617 -121.819889 
L 441.851681 -124.875909 
L 439.142472 -127.931929 
L 435.969872 -130.987949 
L 432.294423 -134.043969 
L 428.106002 -137.099989 
L 423.439502 -140.156009 
L 418.388463 -143.212029 
L 413.112909 -146.268049 
L 407.837799 -149.32407 
L 402.839567 -152.38009 
L 398.420311 -155.43611 
L 394.871944 -158.49213 
L 392.435445 -161.54815 
L 391.2624 -164.60417 
L 391.386629 -167.66019 
L 392.712419 -170.71621 
L 395.022895 -173.77223 
L 398.008003 -176.82825 
L 401.307502 -179.88427 
L 404.561309 -182.940291 
L 407.458234 -185.996311 
L 409.774827 -189.052331 
L 411.398461 -192.108351 
L 412.332064 -195.164371 
L 412.681413 -198.220391 
L 412.628754 -201.276411 
L 412.39833 -204.332431 
L 412.219982 -207.388451 
L 412.296473 -210.444471 
L 412.77888 -213.500491 
L 413.752514 -216.556511 
L 415.233934 -219.612532 
L 417.177813 -222.668552 
L 419.491114 -225.724572 
L 422.051297 -228.780592 
L 424.725165 -231.836612 
L 427.385427 -234.892632 
L 429.922909 -237.948652 
L 432.253423 -241.004672 
L 434.319324 -244.060692 
L 436.086741 -247.116712 
L 437.54002 -250.172732 
L 438.675202 -253.228753 
L 439.494273 -256.284773 
L 440.001478 -259.340793 
L 440.202375 -262.396813 
L 440.105521 -265.452833 
L 439.726026 -268.508853 
L 439.089722 -271.564873 
L 438.236528 -274.620893 
L 437.221835 -277.676913 
L 436.115213 -280.732933 
L 434.996413 -283.788953 
L 433.949259 -286.844973 
L 433.054502 -289.900994 
L 432.382845 -292.957014 
L 431.989232 -296.013034 
L 431.909143 -299.069054 
L 432.157167 -302.125074 
L 432.727708 -305.181094 
L 433.597364 -308.237114 
L 434.728391 -311.293134 
L 436.072671 -314.349154 
L 437.575744 -317.405174 
L 439.18061 -320.461194 
L 440.831135 -323.517215 
L 442.475021 -326.573235 
L 444.066257 -329.629255 
L 445.567023 -332.685275 
L 446.948931 -335.741295 
L 448.193535 -338.797315 
L 449.292049 -341.853335 
L 450.244319 -344.909355 
L 451.057167 -347.965375 
L 451.742363 -351.021395 
L 452.314494 -354.077415 
L 452.789027 -357.133435 
L 453.180797 -360.189456 
L 453.503035 -363.245476 
L 453.766939 -366.301496 
L 453.981702 -369.357516 
L 454.15482 -372.413536 
L 454.292525 -375.469556 
L 454.400192 -378.525576 
L 454.482633 -381.581596 
L 454.544257 -384.637616 
L 454.589105 -387.693636 
L 454.770895 -387.693636 
L 454.770895 -387.693636 
L 454.815743 -384.637616 
L 454.877367 -381.581596 
L 454.959808 -378.525576 
L 455.067475 -375.469556 
L 455.20518 -372.413536 
L 455.378298 -369.357516 
L 455.593061 -366.301496 
L 455.856965 -363.245476 
L 456.179203 -360.189456 
L 456.570973 -357.133435 
L 457.045506 -354.077415 
L 457.617637 -351.021395 
L 458.302833 -347.965375 
L 459.115681 -344.909355 
L 460.067951 -341.853335 
L 461.166465 -338.797315 
L 462.411069 -335.741295 
L 463.792977 -332.685275 
L 465.293743 -329.629255 
L 466.884979 -326.573235 
L 468.528865 -323.517215 
L 470.17939 -320.461194 
L 471.784256 -317.405174 
L 473.287329 -314.349154 
L 474.631609 -311.293134 
L 475.762636 -308.237114 
L 476.632292 -305.181094 
L 477.202833 -302.125074 
L 477.450857 -299.069054 
L 477.370768 -296.013034 
L 476.977155 -292.957014 
L 476.305498 -289.900994 
L 475.410741 -286.844973 
L 474.363587 -283.788953 
L 473.244787 -280.732933 
L 472.138165 -277.676913 
L 471.123472 -274.620893 
L 470.270278 -271.564873 
L 469.633974 -268.508853 
L 469.254479 -265.452833 
L 469.157625 -262.396813 
L 469.358522 -259.340793 
L 469.865727 -256.284773 
L 470.684798 -253.228753 
L 471.81998 -250.172732 
L 473.273259 -247.116712 
L 475.040676 -244.060692 
L 477.106577 -241.004672 
L 479.437091 -237.948652 
L 481.974573 -234.892632 
L 484.634835 -231.836612 
L 487.308703 -228.780592 
L 489.868886 -225.724572 
L 492.182187 -222.668552 
L 494.126066 -219.612532 
L 495.607486 -216.556511 
L 496.58112 -213.500491 
L 497.063527 -210.444471 
L 497.140018 -207.388451 
L 496.96167 -204.332431 
L 496.731246 -201.276411 
L 496.678587 -198.220391 
L 497.027936 -195.164371 
L 497.961539 -192.108351 
L 499.585173 -189.052331 
L 501.901766 -185.996311 
L 504.798691 -182.940291 
L 508.052498 -179.88427 
L 511.351997 -176.82825 
L 514.337105 -173.77223 
L 516.647581 -170.71621 
L 517.973371 -167.66019 
L 518.0976 -164.60417 
L 516.924555 -161.54815 
L 514.488056 -158.49213 
L 510.939689 -155.43611 
L 506.520433 -152.38009 
L 501.522201 -149.32407 
L 496.247091 -146.268049 
L 490.971537 -143.212029 
L 485.920498 -140.156009 
L 481.253998 -137.099989 
L 477.065577 -134.043969 
L 473.390128 -130.987949 
L 470.217528 -127.931929 
L 467.508319 -124.875909 
L 465.208383 -121.819889 
L 463.260572 -118.763869 
L 461.612375 -115.707849 
L 460.219714 -112.651829 
L 459.047591 -109.595808 
L 458.068681 -106.539788 
L 457.260984 -103.483768 
L 456.605438 -100.427748 
L 456.084113 -97.371728 
L 455.679222 -94.315708 
L 455.372918 -91.259688 
L 455.147669 -88.203668 
L 454.986899 -85.147648 
z
" style="stroke: #595959; stroke-width: 1.25"/>
    </defs>
    <g clip-path="url(#p06ed29b53d)">
     <use xlink:href="#m784b55ad82" x="0" y="432" style="fill: #95a3c3; stroke: #595959; stroke-width: 1.25"/>
    </g>
   </g>
   <g id="PolyCollection_4">
    <defs>
     <path id="m36328f89c8" d="M 613.354447 -59.728141 
L 613.093553 -59.728141 
L 612.990425 -61.062679 
L 612.827445 -62.397217 
L 612.584981 -63.731755 
L 612.245498 -65.066293 
L 611.798258 -66.400831 
L 611.243971 -67.735369 
L 610.59769 -69.069907 
L 609.888366 -70.404445 
L 609.154471 -71.738983 
L 608.436668 -73.073521 
L 607.769942 -74.408059 
L 607.178062 -75.742597 
L 606.672276 -77.077135 
L 606.254058 -78.411673 
L 605.919735 -79.746211 
L 605.663971 -81.080749 
L 605.479934 -82.415287 
L 605.356071 -83.749825 
L 605.271477 -85.084363 
L 605.192957 -86.4189 
L 605.076201 -87.753438 
L 604.871588 -89.087976 
L 604.532652 -90.422514 
L 604.023456 -91.757052 
L 603.320992 -93.09159 
L 602.41051 -94.426128 
L 601.274869 -95.760666 
L 599.881966 -97.095204 
L 598.17563 -98.429742 
L 596.074143 -99.76428 
L 593.477751 -101.098818 
L 590.284113 -102.433356 
L 586.41027 -103.767894 
L 581.820993 -105.102432 
L 576.563735 -106.43697 
L 570.806799 -107.771508 
L 564.86943 -109.106046 
L 559.224724 -110.440584 
L 554.455854 -111.775122 
L 551.158599 -113.10966 
L 549.8064 -114.444198 
L 550.61762 -115.778736 
L 553.474089 -117.113274 
L 557.926803 -118.447812 
L 563.292736 -119.78235 
L 568.811432 -121.116888 
L 573.809289 -122.451426 
L 577.822658 -123.785964 
L 580.653387 -125.120502 
L 582.358117 -126.45504 
L 583.191104 -127.789578 
L 583.524432 -129.124116 
L 583.763672 -130.458654 
L 584.270167 -131.793192 
L 585.298554 -133.12773 
L 586.958815 -134.462268 
L 589.210805 -135.796806 
L 591.892554 -137.131344 
L 594.773379 -138.465882 
L 597.614599 -139.80042 
L 600.219605 -141.134958 
L 602.461637 -142.469496 
L 604.287927 -143.804034 
L 605.707023 -145.138572 
L 606.768943 -146.47311 
L 607.545576 -147.807647 
L 608.114668 -149.142185 
L 608.547759 -150.476723 
L 608.901626 -151.811261 
L 609.21342 -153.145799 
L 609.500102 -154.480337 
L 609.762293 -155.814875 
L 609.991401 -157.149413 
L 610.177841 -158.483951 
L 610.31788 -159.818489 
L 610.417304 -161.153027 
L 610.491208 -162.487565 
L 610.560395 -163.822103 
L 610.645786 -165.156641 
L 610.762755 -166.491179 
L 610.917268 -167.825717 
L 611.105074 -169.160255 
L 611.314015 -170.494793 
L 611.528424 -171.829331 
L 611.733849 -173.163869 
L 611.920504 -174.498407 
L 612.084596 -175.832945 
L 612.227616 -177.167483 
L 612.354339 -178.502021 
L 612.470443 -179.836559 
L 612.580495 -181.171097 
L 612.686737 -182.505635 
L 612.788818 -183.840173 
L 612.884358 -185.174711 
L 612.970072 -186.509249 
L 613.043005 -187.843787 
L 613.101473 -189.178325 
L 613.145459 -190.512863 
L 613.17644 -191.847401 
L 613.27156 -191.847401 
L 613.27156 -191.847401 
L 613.302541 -190.512863 
L 613.346527 -189.178325 
L 613.404995 -187.843787 
L 613.477928 -186.509249 
L 613.563642 -185.174711 
L 613.659182 -183.840173 
L 613.761263 -182.505635 
L 613.867505 -181.171097 
L 613.977557 -179.836559 
L 614.093661 -178.502021 
L 614.220384 -177.167483 
L 614.363404 -175.832945 
L 614.527496 -174.498407 
L 614.714151 -173.163869 
L 614.919576 -171.829331 
L 615.133985 -170.494793 
L 615.342926 -169.160255 
L 615.530732 -167.825717 
L 615.685245 -166.491179 
L 615.802214 -165.156641 
L 615.887605 -163.822103 
L 615.956792 -162.487565 
L 616.030696 -161.153027 
L 616.13012 -159.818489 
L 616.270159 -158.483951 
L 616.456599 -157.149413 
L 616.685707 -155.814875 
L 616.947898 -154.480337 
L 617.23458 -153.145799 
L 617.546374 -151.811261 
L 617.900241 -150.476723 
L 618.333332 -149.142185 
L 618.902424 -147.807647 
L 619.679057 -146.47311 
L 620.740977 -145.138572 
L 622.160073 -143.804034 
L 623.986363 -142.469496 
L 626.228395 -141.134958 
L 628.833401 -139.80042 
L 631.674621 -138.465882 
L 634.555446 -137.131344 
L 637.237195 -135.796806 
L 639.489185 -134.462268 
L 641.149446 -133.12773 
L 642.177833 -131.793192 
L 642.684328 -130.458654 
L 642.923568 -129.124116 
L 643.256896 -127.789578 
L 644.089883 -126.45504 
L 645.794613 -125.120502 
L 648.625342 -123.785964 
L 652.638711 -122.451426 
L 657.636568 -121.116888 
L 663.155264 -119.78235 
L 668.521197 -118.447812 
L 672.973911 -117.113274 
L 675.83038 -115.778736 
L 676.6416 -114.444198 
L 675.289401 -113.10966 
L 671.992146 -111.775122 
L 667.223276 -110.440584 
L 661.57857 -109.106046 
L 655.641201 -107.771508 
L 649.884265 -106.43697 
L 644.627007 -105.102432 
L 640.03773 -103.767894 
L 636.163887 -102.433356 
L 632.970249 -101.098818 
L 630.373857 -99.76428 
L 628.27237 -98.429742 
L 626.566034 -97.095204 
L 625.173131 -95.760666 
L 624.03749 -94.426128 
L 623.127008 -93.09159 
L 622.424544 -91.757052 
L 621.915348 -90.422514 
L 621.576412 -89.087976 
L 621.371799 -87.753438 
L 621.255043 -86.4189 
L 621.176523 -85.084363 
L 621.091929 -83.749825 
L 620.968066 -82.415287 
L 620.784029 -81.080749 
L 620.528265 -79.746211 
L 620.193942 -78.411673 
L 619.775724 -77.077135 
L 619.269938 -75.742597 
L 618.678058 -74.408059 
L 618.011332 -73.073521 
L 617.293529 -71.738983 
L 616.559634 -70.404445 
L 615.85031 -69.069907 
L 615.204029 -67.735369 
L 614.649742 -66.400831 
L 614.202502 -65.066293 
L 613.863019 -63.731755 
L 613.620555 -62.397217 
L 613.457575 -61.062679 
L 613.354447 -59.728141 
z
" style="stroke: #595959; stroke-width: 1.25"/>
    </defs>
    <g clip-path="url(#p06ed29b53d)">
     <use xlink:href="#m36328f89c8" x="0" y="432" style="fill: #db96c0; stroke: #595959; stroke-width: 1.25"/>
    </g>
   </g>
   <g id="PolyCollection_5">
    <defs>
     <path id="m54eb0ce8ba" d="M 771.832236 -58.672439 
L 771.703764 -58.672439 
L 771.650374 -59.602589 
L 771.568867 -60.532738 
L 771.455901 -61.462888 
L 771.314407 -62.393037 
L 771.155465 -63.323187 
L 770.997591 -64.253336 
L 770.862964 -65.183486 
L 770.771712 -66.113636 
L 770.736459 -67.043785 
L 770.759255 -67.973935 
L 770.831582 -68.904084 
L 770.936543 -69.834234 
L 771.051496 -70.764383 
L 771.149899 -71.694533 
L 771.20224 -72.624683 
L 771.176898 -73.554832 
L 771.042248 -74.484982 
L 770.77114 -75.415131 
L 770.348212 -76.345281 
L 769.778901 -77.275431 
L 769.09683 -78.20558 
L 768.364508 -79.13573 
L 767.663183 -80.065879 
L 767.072046 -80.996029 
L 766.643277 -81.926178 
L 766.383689 -82.856328 
L 766.252385 -83.786478 
L 766.17653 -84.716627 
L 766.077856 -85.646777 
L 765.89656 -86.576926 
L 765.600811 -87.507076 
L 765.178613 -88.437225 
L 764.619305 -89.367375 
L 763.897791 -90.297525 
L 762.971646 -91.227674 
L 761.791327 -92.157824 
L 760.313647 -93.087973 
L 758.505652 -94.018123 
L 756.332425 -94.948272 
L 753.734207 -95.878422 
L 750.608043 -96.808572 
L 746.811942 -97.738721 
L 742.204296 -98.668871 
L 736.719914 -99.59902 
L 730.46781 -100.52917 
L 723.817179 -101.459319 
L 717.424181 -102.389469 
L 712.156927 -103.319619 
L 708.909492 -104.249768 
L 708.3504 -105.179918 
L 710.6976 -106.110067 
L 715.616607 -107.040217 
L 722.290122 -107.970367 
L 729.631126 -108.900516 
L 736.552701 -109.830666 
L 742.198865 -110.760815 
L 746.078398 -111.690965 
L 748.095894 -112.621114 
L 748.507608 -113.551264 
L 747.832666 -114.481414 
L 746.736346 -115.411563 
L 745.893269 -116.341713 
L 745.845637 -117.271862 
L 746.887611 -118.202012 
L 749.013433 -119.132161 
L 751.951417 -120.062311 
L 755.272914 -120.992461 
L 758.533735 -121.92261 
L 761.394776 -122.85276 
L 763.683917 -123.782909 
L 765.391562 -124.713059 
L 766.61912 -125.643208 
L 767.511524 -126.573358 
L 768.200782 -127.503508 
L 768.774939 -128.433657 
L 769.273562 -129.363807 
L 769.701771 -130.293956 
L 770.051187 -131.224106 
L 770.317353 -132.154255 
L 770.507692 -133.084405 
L 770.639639 -134.014555 
L 770.732973 -134.944704 
L 770.801948 -135.874854 
L 770.851597 -136.805003 
L 770.87971 -137.735153 
L 770.882953 -138.665303 
L 770.863593 -139.595452 
L 770.833099 -140.525602 
L 770.810497 -141.455751 
L 770.816167 -142.385901 
L 770.864173 -143.31605 
L 770.956978 -144.2462 
L 771.084902 -145.17635 
L 771.230158 -146.106499 
L 771.373165 -147.036649 
L 771.498248 -147.966798 
L 771.596744 -148.896948 
L 771.667107 -149.827097 
L 771.712915 -150.757247 
L 771.823085 -150.757247 
L 771.823085 -150.757247 
L 771.868893 -149.827097 
L 771.939256 -148.896948 
L 772.037752 -147.966798 
L 772.162835 -147.036649 
L 772.305842 -146.106499 
L 772.451098 -145.17635 
L 772.579022 -144.2462 
L 772.671827 -143.31605 
L 772.719833 -142.385901 
L 772.725503 -141.455751 
L 772.702901 -140.525602 
L 772.672407 -139.595452 
L 772.653047 -138.665303 
L 772.65629 -137.735153 
L 772.684403 -136.805003 
L 772.734052 -135.874854 
L 772.803027 -134.944704 
L 772.896361 -134.014555 
L 773.028308 -133.084405 
L 773.218647 -132.154255 
L 773.484813 -131.224106 
L 773.834229 -130.293956 
L 774.262438 -129.363807 
L 774.761061 -128.433657 
L 775.335218 -127.503508 
L 776.024476 -126.573358 
L 776.91688 -125.643208 
L 778.144438 -124.713059 
L 779.852083 -123.782909 
L 782.141224 -122.85276 
L 785.002265 -121.92261 
L 788.263086 -120.992461 
L 791.584583 -120.062311 
L 794.522567 -119.132161 
L 796.648389 -118.202012 
L 797.690363 -117.271862 
L 797.642731 -116.341713 
L 796.799654 -115.411563 
L 795.703334 -114.481414 
L 795.028392 -113.551264 
L 795.440106 -112.621114 
L 797.457602 -111.690965 
L 801.337135 -110.760815 
L 806.983299 -109.830666 
L 813.904874 -108.900516 
L 821.245878 -107.970367 
L 827.919393 -107.040217 
L 832.8384 -106.110067 
L 835.1856 -105.179918 
L 834.626508 -104.249768 
L 831.379073 -103.319619 
L 826.111819 -102.389469 
L 819.718821 -101.459319 
L 813.06819 -100.52917 
L 806.816086 -99.59902 
L 801.331704 -98.668871 
L 796.724058 -97.738721 
L 792.927957 -96.808572 
L 789.801793 -95.878422 
L 787.203575 -94.948272 
L 785.030348 -94.018123 
L 783.222353 -93.087973 
L 781.744673 -92.157824 
L 780.564354 -91.227674 
L 779.638209 -90.297525 
L 778.916695 -89.367375 
L 778.357387 -88.437225 
L 777.935189 -87.507076 
L 777.63944 -86.576926 
L 777.458144 -85.646777 
L 777.35947 -84.716627 
L 777.283615 -83.786478 
L 777.152311 -82.856328 
L 776.892723 -81.926178 
L 776.463954 -80.996029 
L 775.872817 -80.065879 
L 775.171492 -79.13573 
L 774.43917 -78.20558 
L 773.757099 -77.275431 
L 773.187788 -76.345281 
L 772.76486 -75.415131 
L 772.493752 -74.484982 
L 772.359102 -73.554832 
L 772.33376 -72.624683 
L 772.386101 -71.694533 
L 772.484504 -70.764383 
L 772.599457 -69.834234 
L 772.704418 -68.904084 
L 772.776745 -67.973935 
L 772.799541 -67.043785 
L 772.764288 -66.113636 
L 772.673036 -65.183486 
L 772.538409 -64.253336 
L 772.380535 -63.323187 
L 772.221593 -62.393037 
L 772.080099 -61.462888 
L 771.967133 -60.532738 
L 771.885626 -59.602589 
L 771.832236 -58.672439 
z
" style="stroke: #595959; stroke-width: 1.25"/>
    </defs>
    <g clip-path="url(#p06ed29b53d)">
     <use xlink:href="#m54eb0ce8ba" x="0" y="432" style="fill: #a2c865; stroke: #595959; stroke-width: 1.25"/>
    </g>
   </g>
   <g id="line2d_8">
    <path d="M 137.592 305.28177 
L 137.592 345.946755 
" clip-path="url(#p06ed29b53d)" style="fill: none; stroke: #000000"/>
   </g>
   <g id="line2d_9">
    <path d="M 137.592 277.865996 
L 137.592 236.96512 
" clip-path="url(#p06ed29b53d)" style="fill: none; stroke: #000000"/>
   </g>
   <g id="line2d_10">
    <path d="M 131.6466 345.946755 
L 143.5374 345.946755 
" clip-path="url(#p06ed29b53d)" style="fill: none; stroke: #000000; stroke-linecap: round"/>
   </g>
   <g id="line2d_11">
    <path d="M 131.6466 236.96512 
L 143.5374 236.96512 
" clip-path="url(#p06ed29b53d)" style="fill: none; stroke: #000000; stroke-linecap: round"/>
   </g>
   <g id="line2d_12">
    <path d="M 296.136 328.700503 
L 296.136 365.132555 
" clip-path="url(#p06ed29b53d)" style="fill: none; stroke: #000000"/>
   </g>
   <g id="line2d_13">
    <path d="M 296.136 303.381537 
L 296.136 265.63898 
" clip-path="url(#p06ed29b53d)" style="fill: none; stroke: #000000"/>
   </g>
   <g id="line2d_14">
    <path d="M 290.1906 365.132555 
L 302.0814 365.132555 
" clip-path="url(#p06ed29b53d)" style="fill: none; stroke: #000000; stroke-linecap: round"/>
   </g>
   <g id="line2d_15">
    <path d="M 290.1906 265.63898 
L 302.0814 265.63898 
" clip-path="url(#p06ed29b53d)" style="fill: none; stroke: #000000; stroke-linecap: round"/>
   </g>
   <g id="line2d_16">
    <path d="M 454.68 266.372863 
L 454.68 313.760741 
" clip-path="url(#p06ed29b53d)" style="fill: none; stroke: #000000"/>
   </g>
   <g id="line2d_17">
    <path d="M 454.68 195.605568 
L 454.68 91.865956 
" clip-path="url(#p06ed29b53d)" style="fill: none; stroke: #000000"/>
   </g>
   <g id="line2d_18">
    <path d="M 448.7346 313.760741 
L 460.6254 313.760741 
" clip-path="url(#p06ed29b53d)" style="fill: none; stroke: #000000; stroke-linecap: round"/>
   </g>
   <g id="line2d_19">
    <path d="M 448.7346 91.865956 
L 460.6254 91.865956 
" clip-path="url(#p06ed29b53d)" style="fill: none; stroke: #000000; stroke-linecap: round"/>
   </g>
   <g id="line2d_20">
    <path d="M 613.224 322.252816 
L 613.224 349.406489 
" clip-path="url(#p06ed29b53d)" style="fill: none; stroke: #000000"/>
   </g>
   <g id="line2d_21">
    <path d="M 613.224 303.95816 
L 613.224 277.905311 
" clip-path="url(#p06ed29b53d)" style="fill: none; stroke: #000000"/>
   </g>
   <g id="line2d_22">
    <path d="M 607.2786 349.406489 
L 619.1694 349.406489 
" clip-path="url(#p06ed29b53d)" style="fill: none; stroke: #000000; stroke-linecap: round"/>
   </g>
   <g id="line2d_23">
    <path d="M 607.2786 277.905311 
L 619.1694 277.905311 
" clip-path="url(#p06ed29b53d)" style="fill: none; stroke: #000000; stroke-linecap: round"/>
   </g>
   <g id="line2d_24">
    <path d="M 771.768 330.37795 
L 771.768 345.527393 
" clip-path="url(#p06ed29b53d)" style="fill: none; stroke: #000000"/>
   </g>
   <g id="line2d_25">
    <path d="M 771.768 320.103587 
L 771.768 304.796883 
" clip-path="url(#p06ed29b53d)" style="fill: none; stroke: #000000"/>
   </g>
   <g id="line2d_26">
    <path d="M 765.8226 345.527393 
L 777.7134 345.527393 
" clip-path="url(#p06ed29b53d)" style="fill: none; stroke: #000000; stroke-linecap: round"/>
   </g>
   <g id="line2d_27">
    <path d="M 765.8226 304.796883 
L 777.7134 304.796883 
" clip-path="url(#p06ed29b53d)" style="fill: none; stroke: #000000; stroke-linecap: round"/>
   </g>
   <g id="line2d_28">
    <path d="M 125.7012 300.052853 
L 149.4828 300.052853 
" clip-path="url(#p06ed29b53d)" style="fill: none; stroke: #ff0000; stroke-width: 2"/>
   </g>
   <g id="line2d_29">
    <path d="M 284.2452 317.325315 
L 308.0268 317.325315 
" clip-path="url(#p06ed29b53d)" style="fill: none; stroke: #ff0000; stroke-width: 2"/>
   </g>
   <g id="line2d_30">
    <path d="M 442.7892 231.723099 
L 466.5708 231.723099 
" clip-path="url(#p06ed29b53d)" style="fill: none; stroke: #ff0000; stroke-width: 2"/>
   </g>
   <g id="line2d_31">
    <path d="M 601.3332 316.434172 
L 625.1148 316.434172 
" clip-path="url(#p06ed29b53d)" style="fill: none; stroke: #ff0000; stroke-width: 2"/>
   </g>
   <g id="line2d_32">
    <path d="M 759.8772 326.656114 
L 783.6588 326.656114 
" clip-path="url(#p06ed29b53d)" style="fill: none; stroke: #ff0000; stroke-width: 2"/>
   </g>
   <g id="patch_3">
    <path d="M 58.32 395.14 
L 58.32 27.6 
" style="fill: none; stroke: #cccccc; stroke-width: 1.25; stroke-linejoin: miter; stroke-linecap: square"/>
   </g>
   <g id="patch_4">
    <path d="M 851.04 395.14 
L 851.04 27.6 
" style="fill: none; stroke: #cccccc; stroke-width: 1.25; stroke-linejoin: miter; stroke-linecap: square"/>
   </g>
   <g id="patch_5">
    <path d="M 58.32 395.14 
L 851.04 395.14 
" style="fill: none; stroke: #cccccc; stroke-width: 1.25; stroke-linejoin: miter; stroke-linecap: square"/>
   </g>
   <g id="patch_6">
    <path d="M 58.32 27.6 
L 851.04 27.6 
" style="fill: none; stroke: #cccccc; stroke-width: 1.25; stroke-linejoin: miter; stroke-linecap: square"/>
   </g>
   <g id="text_14">
    <!-- Handshake duration on TLS with secp384r1 signature algorithm — Backbone (200ms/4%) -->
    <g style="fill: #262626" transform="translate(184.926562 21.6) scale(0.12 -0.12)">
     <defs>
      <path id="DejaVuSans-54" d="M -19 4666 
L 3928 4666 
L 3928 4134 
L 2272 4134 
L 2272 0 
L 1638 0 
L 1638 4134 
L -19 4134 
L -19 4666 
z
" transform="scale(0.015625)"/>
      <path id="DejaVuSans-4c" d="M 628 4666 
L 1259 4666 
L 1259 531 
L 3531 531 
L 3531 0 
L 628 0 
L 628 4666 
z
" transform="scale(0.015625)"/>
      <path id="DejaVuSans-53" d="M 3425 4513 
L 3425 3897 
Q 3066 4069 2747 4153 
Q 2428 4238 2131 4238 
Q 1616 4238 1336 4038 
Q 1056 3838 1056 3469 
Q 1056 3159 1242 3001 
Q 1428 2844 1947 2747 
L 2328 2669 
Q 3034 2534 3370 2195 
Q 3706 1856 3706 1288 
Q 3706 609 3251 259 
Q 2797 -91 1919 -91 
Q 1588 -91 1214 -16 
Q 841 59 441 206 
L 441 856 
Q 825 641 1194 531 
Q 1563 422 1919 422 
Q 2459 422 2753 634 
Q 3047 847 3047 1241 
Q 3047 1584 2836 1778 
Q 2625 1972 2144 2069 
L 1759 2144 
Q 1053 2284 737 2584 
Q 422 2884 422 3419 
Q 422 4038 858 4394 
Q 1294 4750 2059 4750 
Q 2388 4750 2728 4690 
Q 3069 4631 3425 4513 
z
" transform="scale(0.015625)"/>
      <path id="DejaVuSans-77" d="M 269 3500 
L 844 3500 
L 1563 769 
L 2278 3500 
L 2956 3500 
L 3675 769 
L 4391 3500 
L 4966 3500 
L 4050 0 
L 3372 0 
L 2619 2869 
L 1863 0 
L 1184 0 
L 269 3500 
z
" transform="scale(0.015625)"/>
      <path id="DejaVuSans-63" d="M 3122 3366 
L 3122 2828 
Q 2878 2963 2633 3030 
Q 2388 3097 2138 3097 
Q 1578 3097 1268 2742 
Q 959 2388 959 1747 
Q 959 1106 1268 751 
Q 1578 397 2138 397 
Q 2388 397 2633 464 
Q 2878 531 3122 666 
L 3122 134 
Q 2881 22 2623 -34 
Q 2366 -91 2075 -91 
Q 1284 -91 818 406 
Q 353 903 353 1747 
Q 353 2603 823 3093 
Q 1294 3584 2113 3584 
Q 2378 3584 2631 3529 
Q 2884 3475 3122 3366 
z
" transform="scale(0.015625)"/>
      <path id="DejaVuSans-67" d="M 2906 1791 
Q 2906 2416 2648 2759 
Q 2391 3103 1925 3103 
Q 1463 3103 1205 2759 
Q 947 2416 947 1791 
Q 947 1169 1205 825 
Q 1463 481 1925 481 
Q 2391 481 2648 825 
Q 2906 1169 2906 1791 
z
M 3481 434 
Q 3481 -459 3084 -895 
Q 2688 -1331 1869 -1331 
Q 1566 -1331 1297 -1286 
Q 1028 -1241 775 -1147 
L 775 -588 
Q 1028 -725 1275 -790 
Q 1522 -856 1778 -856 
Q 2344 -856 2625 -561 
Q 2906 -266 2906 331 
L 2906 616 
Q 2728 306 2450 153 
Q 2172 0 1784 0 
Q 1141 0 747 490 
Q 353 981 353 1791 
Q 353 2603 747 3093 
Q 1141 3584 1784 3584 
Q 2172 3584 2450 3431 
Q 2728 3278 2906 2969 
L 2906 3500 
L 3481 3500 
L 3481 434 
z
" transform="scale(0.015625)"/>
      <path id="DejaVuSans-2014" d="M 313 1978 
L 6088 1978 
L 6088 1528 
L 313 1528 
L 313 1978 
z
" transform="scale(0.015625)"/>
      <path id="DejaVuSans-42" d="M 1259 2228 
L 1259 519 
L 2272 519 
Q 2781 519 3026 730 
Q 3272 941 3272 1375 
Q 3272 1813 3026 2020 
Q 2781 2228 2272 2228 
L 1259 2228 
z
M 1259 4147 
L 1259 2741 
L 2194 2741 
Q 2656 2741 2882 2914 
Q 3109 3088 3109 3444 
Q 3109 3797 2882 3972 
Q 2656 4147 2194 4147 
L 1259 4147 
z
M 628 4666 
L 2241 4666 
Q 2963 4666 3353 4366 
Q 3744 4066 3744 3513 
Q 3744 3084 3544 2831 
Q 3344 2578 2956 2516 
Q 3422 2416 3680 2098 
Q 3938 1781 3938 1306 
Q 3938 681 3513 340 
Q 3088 0 2303 0 
L 628 0 
L 628 4666 
z
" transform="scale(0.015625)"/>
      <path id="DejaVuSans-62" d="M 3116 1747 
Q 3116 2381 2855 2742 
Q 2594 3103 2138 3103 
Q 1681 3103 1420 2742 
Q 1159 2381 1159 1747 
Q 1159 1113 1420 752 
Q 1681 391 2138 391 
Q 2594 391 2855 752 
Q 3116 1113 3116 1747 
z
M 1159 2969 
Q 1341 3281 1617 3432 
Q 1894 3584 2278 3584 
Q 2916 3584 3314 3078 
Q 3713 2572 3713 1747 
Q 3713 922 3314 415 
Q 2916 -91 2278 -91 
Q 1894 -91 1617 61 
Q 1341 213 1159 525 
L 1159 0 
L 581 0 
L 581 4863 
L 1159 4863 
L 1159 2969 
z
" transform="scale(0.015625)"/>
      <path id="DejaVuSans-2f" d="M 1625 4666 
L 2156 4666 
L 531 -594 
L 0 -594 
L 1625 4666 
z
" transform="scale(0.015625)"/>
      <path id="DejaVuSans-25" d="M 4653 2053 
Q 4381 2053 4226 1822 
Q 4072 1591 4072 1178 
Q 4072 772 4226 539 
Q 4381 306 4653 306 
Q 4919 306 5073 539 
Q 5228 772 5228 1178 
Q 5228 1588 5073 1820 
Q 4919 2053 4653 2053 
z
M 4653 2450 
Q 5147 2450 5437 2106 
Q 5728 1763 5728 1178 
Q 5728 594 5436 251 
Q 5144 -91 4653 -91 
Q 4153 -91 3862 251 
Q 3572 594 3572 1178 
Q 3572 1766 3864 2108 
Q 4156 2450 4653 2450 
z
M 1428 4353 
Q 1159 4353 1004 4120 
Q 850 3888 850 3481 
Q 850 3069 1003 2837 
Q 1156 2606 1428 2606 
Q 1700 2606 1854 2837 
Q 2009 3069 2009 3481 
Q 2009 3884 1853 4118 
Q 1697 4353 1428 4353 
z
M 4250 4750 
L 4750 4750 
L 1831 -91 
L 1331 -91 
L 4250 4750 
z
M 1428 4750 
Q 1922 4750 2215 4408 
Q 2509 4066 2509 3481 
Q 2509 2891 2217 2550 
Q 1925 2209 1428 2209 
Q 931 2209 642 2551 
Q 353 2894 353 3481 
Q 353 4063 643 4406 
Q 934 4750 1428 4750 
z
" transform="scale(0.015625)"/>
     </defs>
     <use xlink:href="#DejaVuSans-48"/>
     <use xlink:href="#DejaVuSans-61" x="75.195312"/>
     <use xlink:href="#DejaVuSans-6e" x="136.474609"/>
     <use xlink:href="#DejaVuSans-64" x="199.853516"/>
     <use xlink:href="#DejaVuSans-73" x="263.330078"/>
     <use xlink:href="#DejaVuSans-68" x="315.429688"/>
     <use xlink:href="#DejaVuSans-61" x="378.808594"/>
     <use xlink:href="#DejaVuSans-6b" x="440.087891"/>
     <use xlink:href="#DejaVuSans-65" x="494.373047"/>
     <use xlink:href="#DejaVuSans-20" x="555.896484"/>
     <use xlink:href="#DejaVuSans-64" x="587.683594"/>
     <use xlink:href="#DejaVuSans-75" x="651.160156"/>
     <use xlink:href="#DejaVuSans-72" x="714.539062"/>
     <use xlink:href="#DejaVuSans-61" x="755.652344"/>
     <use xlink:href="#DejaVuSans-74" x="816.931641"/>
     <use xlink:href="#DejaVuSans-69" x="856.140625"/>
     <use xlink:href="#DejaVuSans-6f" x="883.923828"/>
     <use xlink:href="#DejaVuSans-6e" x="945.105469"/>
     <use xlink:href="#DejaVuSans-20" x="1008.484375"/>
     <use xlink:href="#DejaVuSans-6f" x="1040.271484"/>
     <use xlink:href="#DejaVuSans-6e" x="1101.453125"/>
     <use xlink:href="#DejaVuSans-20" x="1164.832031"/>
     <use xlink:href="#DejaVuSans-54" x="1196.619141"/>
     <use xlink:href="#DejaVuSans-4c" x="1257.703125"/>
     <use xlink:href="#DejaVuSans-53" x="1313.416016"/>
     <use xlink:href="#DejaVuSans-20" x="1376.892578"/>
     <use xlink:href="#DejaVuSans-77" x="1408.679688"/>
     <use xlink:href="#DejaVuSans-69" x="1490.466797"/>
     <use xlink:href="#DejaVuSans-74" x="1518.25"/>
     <use xlink:href="#DejaVuSans-68" x="1557.458984"/>
     <use xlink:href="#DejaVuSans-20" x="1620.837891"/>
     <use xlink:href="#DejaVuSans-73" x="1652.625"/>
     <use xlink:href="#DejaVuSans-65" x="1704.724609"/>
     <use xlink:href="#DejaVuSans-63" x="1766.248047"/>
     <use xlink:href="#DejaVuSans-70" x="1821.228516"/>
     <use xlink:href="#DejaVuSans-33" x="1884.705078"/>
     <use xlink:href="#DejaVuSans-38" x="1948.328125"/>
     <use xlink:href="#DejaVuSans-34" x="2011.951172"/>
     <use xlink:href="#DejaVuSans-72" x="2075.574219"/>
     <use xlink:href="#DejaVuSans-31" x="2116.6875"/>
     <use xlink:href="#DejaVuSans-20" x="2180.310547"/>
     <use xlink:href="#DejaVuSans-73" x="2212.097656"/>
     <use xlink:href="#DejaVuSans-69" x="2264.197266"/>
     <use xlink:href="#DejaVuSans-67" x="2291.980469"/>
     <use xlink:href="#DejaVuSans-6e" x="2355.457031"/>
     <use xlink:href="#DejaVuSans-61" x="2418.835938"/>
     <use xlink:href="#DejaVuSans-74" x="2480.115234"/>
     <use xlink:href="#DejaVuSans-75" x="2519.324219"/>
     <use xlink:href="#DejaVuSans-72" x="2582.703125"/>
     <use xlink:href="#DejaVuSans-65" x="2621.566406"/>
     <use xlink:href="#DejaVuSans-20" x="2683.089844"/>
     <use xlink:href="#DejaVuSans-61" x="2714.876953"/>
     <use xlink:href="#DejaVuSans-6c" x="2776.15625"/>
     <use xlink:href="#DejaVuSans-67" x="2803.939453"/>
     <use xlink:href="#DejaVuSans-6f" x="2867.416016"/>
     <use xlink:href="#DejaVuSans-72" x="2928.597656"/>
     <use xlink:href="#DejaVuSans-69" x="2969.710938"/>
     <use xlink:href="#DejaVuSans-74" x="2997.494141"/>
     <use xlink:href="#DejaVuSans-68" x="3036.703125"/>
     <use xlink:href="#DejaVuSans-6d" x="3100.082031"/>
     <use xlink:href="#DejaVuSans-20" x="3197.494141"/>
     <use xlink:href="#DejaVuSans-2014" x="3229.28125"/>
     <use xlink:href="#DejaVuSans-20" x="3329.28125"/>
     <use xlink:href="#DejaVuSans-42" x="3361.068359"/>
     <use xlink:href="#DejaVuSans-61" x="3429.671875"/>
     <use xlink:href="#DejaVuSans-63" x="3490.951172"/>
     <use xlink:href="#DejaVuSans-6b" x="3545.931641"/>
     <use xlink:href="#DejaVuSans-62" x="3603.841797"/>
     <use xlink:href="#DejaVuSans-6f" x="3667.318359"/>
     <use xlink:href="#DejaVuSans-6e" x="3728.5"/>
     <use xlink:href="#DejaVuSans-65" x="3791.878906"/>
     <use xlink:href="#DejaVuSans-20" x="3853.402344"/>
     <use xlink:href="#DejaVuSans-28" x="3885.189453"/>
     <use xlink:href="#DejaVuSans-32" x="3924.203125"/>
     <use xlink:href="#DejaVuSans-30" x="3987.826172"/>
     <use xlink:href="#DejaVuSans-30" x="4051.449219"/>
     <use xlink:href="#DejaVuSans-6d" x="4115.072266"/>
     <use xlink:href="#DejaVuSans-73" x="4212.484375"/>
     <use xlink:href="#DejaVuSans-2f" x="4264.583984"/>
     <use xlink:href="#DejaVuSans-34" x="4298.275391"/>
     <use xlink:href="#DejaVuSans-25" x="4361.898438"/>
     <use xlink:href="#DejaVuSans-29" x="4456.917969"/>
    </g>
   </g>
  </g>
 </g>
 <defs>
  <clipPath id="p06ed29b53d">
   <rect x="58.32" y="27.6" width="792.72" height="367.54"/>
  </clipPath>
 </defs>
</svg>
