<?xml version="1.0" encoding="utf-8" standalone="no"?>
<!DOCTYPE svg PUBLIC "-//W3C//DTD SVG 1.1//EN"
  "http://www.w3.org/Graphics/SVG/1.1/DTD/svg11.dtd">
<svg xmlns:xlink="http://www.w3.org/1999/xlink" width="864pt" height="432pt" viewBox="0 0 864 432" xmlns="http://www.w3.org/2000/svg" version="1.1">
 <metadata>
  <rdf:RDF xmlns:dc="http://purl.org/dc/elements/1.1/" xmlns:cc="http://creativecommons.org/ns#" xmlns:rdf="http://www.w3.org/1999/02/22-rdf-syntax-ns#">
   <cc:Work>
    <dc:type rdf:resource="http://purl.org/dc/dcmitype/StillImage"/>
    <dc:date>2026-03-21T13:58:41.944125</dc:date>
    <dc:format>image/svg+xml</dc:format>
    <dc:creator>
     <cc:Agent>
      <dc:title>Matplotlib v3.6.3, https://matplotlib.org/</dc:title>
     </cc:Agent>
    </dc:creator>
   </cc:Work>
  </rdf:RDF>
 </metadata>
 <defs>
  <style type="text/css">*{stroke-linejoin: round; stroke-linecap: butt}</style>
 </defs>
 <g id="figure_1">
  <g id="patch_1">
   <path d="M 0 432 
L 864 432 
L 864 0 
L 0 0 
z
" style="fill: #ffffff"/>
  </g>
  <g id="axes_1">
   <g id="patch_2">
    <path d="M 58.32 395.14 
L 851.04 395.14 
L 851.04 27.6 
L 58.32 27.6 
z
" style="fill: #ffffff"/>
   </g>
   <g id="matplotlib.axis_1">
    <g id="xtick_1">
     <g id="text_1">
      <!-- P-521 -->
      <g style="fill: #262626" transform="translate(170.49 415.277812) scale(0.14 -0.14)">
       <defs>
        <path id="DejaVuSans-50" d="M 1259 4147 
L 1259 2394 
L 2053 2394 
Q 2494 2394 2734 2622 
Q 2975 2850 2975 3272 
Q 2975 3691 2734 3919 
Q 2494 4147 2053 4147 
L 1259 4147 
z
M 628 4666 
L 2053 4666 
Q 2838 4666 3239 4311 
Q 3641 3956 3641 3272 
Q 3641 2581 3239 2228 
Q 2838 1875 2053 1875 
L 1259 1875 
L 1259 0 
L 628 0 
L 628 4666 
z
" transform="scale(0.015625)"/>
        <path id="DejaVuSans-2d" d="M 313 2009 
L 1997 2009 
L 1997 1497 
L 313 1497 
L 313 2009 
z
" transform="scale(0.015625)"/>
        <path id="DejaVuSans-35" d="M 691 4666 
L 3169 4666 
L 3169 4134 
L 1269 4134 
L 1269 2991 
Q 1406 3038 1543 3061 
Q 1681 3084 1819 3084 
Q 2600 3084 3056 2656 
Q 3513 2228 3513 1497 
Q 3513 744 3044 326 
Q 2575 -91 1722 -91 
Q 1428 -91 1123 -41 
Q 819 9 494 109 
L 494 744 
Q 775 591 1075 516 
Q 1375 441 1709 441 
Q 2250 441 2565 725 
Q 2881 1009 2881 1497 
Q 2881 1984 2565 2268 
Q 2250 2553 1709 2553 
Q 1456 2553 1204 2497 
Q 953 2441 691 2322 
L 691 4666 
z
" transform="scale(0.015625)"/>
        <path id="DejaVuSans-32" d="M 1228 531 
L 3431 531 
L 3431 0 
L 469 0 
L 469 531 
Q 828 903 1448 1529 
Q 2069 2156 2228 2338 
Q 2531 2678 2651 2914 
Q 2772 3150 2772 3378 
Q 2772 3750 2511 3984 
Q 2250 4219 1831 4219 
Q 1534 4219 1204 4116 
Q 875 4013 500 3803 
L 500 4441 
Q 881 4594 1212 4672 
Q 1544 4750 1819 4750 
Q 2544 4750 2975 4387 
Q 3406 4025 3406 3419 
Q 3406 3131 3298 2873 
Q 3191 2616 2906 2266 
Q 2828 2175 2409 1742 
Q 1991 1309 1228 531 
z
" transform="scale(0.015625)"/>
        <path id="DejaVuSans-31" d="M 794 531 
L 1825 531 
L 1825 4091 
L 703 3866 
L 703 4441 
L 1819 4666 
L 2450 4666 
L 2450 531 
L 3481 531 
L 3481 0 
L 794 0 
L 794 531 
z
" transform="scale(0.015625)"/>
       </defs>
       <use xlink:href="#DejaVuSans-50"/>
       <use xlink:href="#DejaVuSans-2d" x="58.052734"/>
       <use xlink:href="#DejaVuSans-35" x="94.136719"/>
       <use xlink:href="#DejaVuSans-32" x="157.759766"/>
       <use xlink:href="#DejaVuSans-31" x="221.382812"/>
      </g>
     </g>
    </g>
    <g id="xtick_2">
     <g id="text_2">
      <!-- p521_mlkem1024 -->
      <g style="fill: #262626" transform="translate(391.871406 415.277812) scale(0.14 -0.14)">
       <defs>
        <path id="DejaVuSans-70" d="M 1159 525 
L 1159 -1331 
L 581 -1331 
L 581 3500 
L 1159 3500 
L 1159 2969 
Q 1341 3281 1617 3432 
Q 1894 3584 2278 3584 
Q 2916 3584 3314 3078 
Q 3713 2572 3713 1747 
Q 3713 922 3314 415 
Q 2916 -91 2278 -91 
Q 1894 -91 1617 61 
Q 1341 213 1159 525 
z
M 3116 1747 
Q 3116 2381 2855 2742 
Q 2594 3103 2138 3103 
Q 1681 3103 1420 2742 
Q 1159 2381 1159 1747 
Q 1159 1113 1420 752 
Q 1681 391 2138 391 
Q 2594 391 2855 752 
Q 3116 1113 3116 1747 
z
" transform="scale(0.015625)"/>
        <path id="DejaVuSans-5f" d="M 3263 -1063 
L 3263 -1509 
L -63 -1509 
L -63 -1063 
L 3263 -1063 
z
" transform="scale(0.015625)"/>
        <path id="DejaVuSans-6d" d="M 3328 2828 
Q 3544 3216 3844 3400 
Q 4144 3584 4550 3584 
Q 5097 3584 5394 3201 
Q 5691 2819 5691 2113 
L 5691 0 
L 5113 0 
L 5113 2094 
Q 5113 2597 4934 2840 
Q 4756 3084 4391 3084 
Q 3944 3084 3684 2787 
Q 3425 2491 3425 1978 
L 3425 0 
L 2847 0 
L 2847 2094 
Q 2847 2600 2669 2842 
Q 2491 3084 2119 3084 
Q 1678 3084 1418 2786 
Q 1159 2488 1159 1978 
L 1159 0 
L 581 0 
L 581 3500 
L 1159 3500 
L 1159 2956 
Q 1356 3278 1631 3431 
Q 1906 3584 2284 3584 
Q 2666 3584 2933 3390 
Q 3200 3197 3328 2828 
z
" transform="scale(0.015625)"/>
        <path id="DejaVuSans-6c" d="M 603 4863 
L 1178 4863 
L 1178 0 
L 603 0 
L 603 4863 
z
" transform="scale(0.015625)"/>
        <path id="DejaVuSans-6b" d="M 581 4863 
L 1159 4863 
L 1159 1991 
L 2875 3500 
L 3609 3500 
L 1753 1863 
L 3688 0 
L 2938 0 
L 1159 1709 
L 1159 0 
L 581 0 
L 581 4863 
z
" transform="scale(0.015625)"/>
        <path id="DejaVuSans-65" d="M 3597 1894 
L 3597 1613 
L 953 1613 
Q 991 1019 1311 708 
Q 1631 397 2203 397 
Q 2534 397 2845 478 
Q 3156 559 3463 722 
L 3463 178 
Q 3153 47 2828 -22 
Q 2503 -91 2169 -91 
Q 1331 -91 842 396 
Q 353 884 353 1716 
Q 353 2575 817 3079 
Q 1281 3584 2069 3584 
Q 2775 3584 3186 3129 
Q 3597 2675 3597 1894 
z
M 3022 2063 
Q 3016 2534 2758 2815 
Q 2500 3097 2075 3097 
Q 1594 3097 1305 2825 
Q 1016 2553 972 2059 
L 3022 2063 
z
" transform="scale(0.015625)"/>
        <path id="DejaVuSans-30" d="M 2034 4250 
Q 1547 4250 1301 3770 
Q 1056 3291 1056 2328 
Q 1056 1369 1301 889 
Q 1547 409 2034 409 
Q 2525 409 2770 889 
Q 3016 1369 3016 2328 
Q 3016 3291 2770 3770 
Q 2525 4250 2034 4250 
z
M 2034 4750 
Q 2819 4750 3233 4129 
Q 3647 3509 3647 2328 
Q 3647 1150 3233 529 
Q 2819 -91 2034 -91 
Q 1250 -91 836 529 
Q 422 1150 422 2328 
Q 422 3509 836 4129 
Q 1250 4750 2034 4750 
z
" transform="scale(0.015625)"/>
        <path id="DejaVuSans-34" d="M 2419 4116 
L 825 1625 
L 2419 1625 
L 2419 4116 
z
M 2253 4666 
L 3047 4666 
L 3047 1625 
L 3713 1625 
L 3713 1100 
L 3047 1100 
L 3047 0 
L 2419 0 
L 2419 1100 
L 313 1100 
L 313 1709 
L 2253 4666 
z
" transform="scale(0.015625)"/>
       </defs>
       <use xlink:href="#DejaVuSans-70"/>
       <use xlink:href="#DejaVuSans-35" x="63.476562"/>
       <use xlink:href="#DejaVuSans-32" x="127.099609"/>
       <use xlink:href="#DejaVuSans-31" x="190.722656"/>
       <use xlink:href="#DejaVuSans-5f" x="254.345703"/>
       <use xlink:href="#DejaVuSans-6d" x="304.345703"/>
       <use xlink:href="#DejaVuSans-6c" x="401.757812"/>
       <use xlink:href="#DejaVuSans-6b" x="429.541016"/>
       <use xlink:href="#DejaVuSans-65" x="483.826172"/>
       <use xlink:href="#DejaVuSans-6d" x="545.349609"/>
       <use xlink:href="#DejaVuSans-31" x="642.761719"/>
       <use xlink:href="#DejaVuSans-30" x="706.384766"/>
       <use xlink:href="#DejaVuSans-32" x="770.007812"/>
       <use xlink:href="#DejaVuSans-34" x="833.630859"/>
      </g>
     </g>
    </g>
    <g id="xtick_3">
     <g id="text_3">
      <!-- mlkem1024 -->
      <g style="fill: #262626" transform="translate(677.416562 415.277812) scale(0.14 -0.14)">
       <use xlink:href="#DejaVuSans-6d"/>
       <use xlink:href="#DejaVuSans-6c" x="97.412109"/>
       <use xlink:href="#DejaVuSans-6b" x="125.195312"/>
       <use xlink:href="#DejaVuSans-65" x="179.480469"/>
       <use xlink:href="#DejaVuSans-6d" x="241.003906"/>
       <use xlink:href="#DejaVuSans-31" x="338.416016"/>
       <use xlink:href="#DejaVuSans-30" x="402.039062"/>
       <use xlink:href="#DejaVuSans-32" x="465.662109"/>
       <use xlink:href="#DejaVuSans-34" x="529.285156"/>
      </g>
     </g>
    </g>
   </g>
   <g id="matplotlib.axis_2">
    <g id="ytick_1">
     <g id="line2d_1">
      <path d="M 58.32 349.092746 
L 851.04 349.092746 
" clip-path="url(#p0c07f35c66)" style="fill: none; stroke: #cccccc; stroke-linecap: round"/>
     </g>
     <g id="text_4">
      <!-- 20 -->
      <g style="fill: #262626" transform="translate(34.8225 353.271887) scale(0.11 -0.11)">
       <use xlink:href="#DejaVuSans-32"/>
       <use xlink:href="#DejaVuSans-30" x="63.623047"/>
      </g>
     </g>
    </g>
    <g id="ytick_2">
     <g id="line2d_2">
      <path d="M 58.32 301.695927 
L 851.04 301.695927 
" clip-path="url(#p0c07f35c66)" style="fill: none; stroke: #cccccc; stroke-linecap: round"/>
     </g>
     <g id="text_5">
      <!-- 40 -->
      <g style="fill: #262626" transform="translate(34.8225 305.875068) scale(0.11 -0.11)">
       <use xlink:href="#DejaVuSans-34"/>
       <use xlink:href="#DejaVuSans-30" x="63.623047"/>
      </g>
     </g>
    </g>
    <g id="ytick_3">
     <g id="line2d_3">
      <path d="M 58.32 254.299109 
L 851.04 254.299109 
" clip-path="url(#p0c07f35c66)" style="fill: none; stroke: #cccccc; stroke-linecap: round"/>
     </g>
     <g id="text_6">
      <!-- 60 -->
      <g style="fill: #262626" transform="translate(34.8225 258.478249) scale(0.11 -0.11)">
       <defs>
        <path id="DejaVuSans-36" d="M 2113 2584 
Q 1688 2584 1439 2293 
Q 1191 2003 1191 1497 
Q 1191 994 1439 701 
Q 1688 409 2113 409 
Q 2538 409 2786 701 
Q 3034 994 3034 1497 
Q 3034 2003 2786 2293 
Q 2538 2584 2113 2584 
z
M 3366 4563 
L 3366 3988 
Q 3128 4100 2886 4159 
Q 2644 4219 2406 4219 
Q 1781 4219 1451 3797 
Q 1122 3375 1075 2522 
Q 1259 2794 1537 2939 
Q 1816 3084 2150 3084 
Q 2853 3084 3261 2657 
Q 3669 2231 3669 1497 
Q 3669 778 3244 343 
Q 2819 -91 2113 -91 
Q 1303 -91 875 529 
Q 447 1150 447 2328 
Q 447 3434 972 4092 
Q 1497 4750 2381 4750 
Q 2619 4750 2861 4703 
Q 3103 4656 3366 4563 
z
" transform="scale(0.015625)"/>
       </defs>
       <use xlink:href="#DejaVuSans-36"/>
       <use xlink:href="#DejaVuSans-30" x="63.623047"/>
      </g>
     </g>
    </g>
    <g id="ytick_4">
     <g id="line2d_4">
      <path d="M 58.32 206.90229 
L 851.04 206.90229 
" clip-path="url(#p0c07f35c66)" style="fill: none; stroke: #cccccc; stroke-linecap: round"/>
     </g>
     <g id="text_7">
      <!-- 80 -->
      <g style="fill: #262626" transform="translate(34.8225 211.081431) scale(0.11 -0.11)">
       <defs>
        <path id="DejaVuSans-38" d="M 2034 2216 
Q 1584 2216 1326 1975 
Q 1069 1734 1069 1313 
Q 1069 891 1326 650 
Q 1584 409 2034 409 
Q 2484 409 2743 651 
Q 3003 894 3003 1313 
Q 3003 1734 2745 1975 
Q 2488 2216 2034 2216 
z
M 1403 2484 
Q 997 2584 770 2862 
Q 544 3141 544 3541 
Q 544 4100 942 4425 
Q 1341 4750 2034 4750 
Q 2731 4750 3128 4425 
Q 3525 4100 3525 3541 
Q 3525 3141 3298 2862 
Q 3072 2584 2669 2484 
Q 3125 2378 3379 2068 
Q 3634 1759 3634 1313 
Q 3634 634 3220 271 
Q 2806 -91 2034 -91 
Q 1263 -91 848 271 
Q 434 634 434 1313 
Q 434 1759 690 2068 
Q 947 2378 1403 2484 
z
M 1172 3481 
Q 1172 3119 1398 2916 
Q 1625 2713 2034 2713 
Q 2441 2713 2670 2916 
Q 2900 3119 2900 3481 
Q 2900 3844 2670 4047 
Q 2441 4250 2034 4250 
Q 1625 4250 1398 4047 
Q 1172 3844 1172 3481 
z
" transform="scale(0.015625)"/>
       </defs>
       <use xlink:href="#DejaVuSans-38"/>
       <use xlink:href="#DejaVuSans-30" x="63.623047"/>
      </g>
     </g>
    </g>
    <g id="ytick_5">
     <g id="line2d_5">
      <path d="M 58.32 159.505471 
L 851.04 159.505471 
" clip-path="url(#p0c07f35c66)" style="fill: none; stroke: #cccccc; stroke-linecap: round"/>
     </g>
     <g id="text_8">
      <!-- 100 -->
      <g style="fill: #262626" transform="translate(27.82375 163.684612) scale(0.11 -0.11)">
       <use xlink:href="#DejaVuSans-31"/>
       <use xlink:href="#DejaVuSans-30" x="63.623047"/>
       <use xlink:href="#DejaVuSans-30" x="127.246094"/>
      </g>
     </g>
    </g>
    <g id="ytick_6">
     <g id="line2d_6">
      <path d="M 58.32 112.108652 
L 851.04 112.108652 
" clip-path="url(#p0c07f35c66)" style="fill: none; stroke: #cccccc; stroke-linecap: round"/>
     </g>
     <g id="text_9">
      <!-- 120 -->
      <g style="fill: #262626" transform="translate(27.82375 116.287793) scale(0.11 -0.11)">
       <use xlink:href="#DejaVuSans-31"/>
       <use xlink:href="#DejaVuSans-32" x="63.623047"/>
       <use xlink:href="#DejaVuSans-30" x="127.246094"/>
      </g>
     </g>
    </g>
    <g id="ytick_7">
     <g id="line2d_7">
      <path d="M 58.32 64.711834 
L 851.04 64.711834 
" clip-path="url(#p0c07f35c66)" style="fill: none; stroke: #cccccc; stroke-linecap: round"/>
     </g>
     <g id="text_10">
      <!-- 140 -->
      <g style="fill: #262626" transform="translate(27.82375 68.890974) scale(0.11 -0.11)">
       <use xlink:href="#DejaVuSans-31"/>
       <use xlink:href="#DejaVuSans-34" x="63.623047"/>
       <use xlink:href="#DejaVuSans-30" x="127.246094"/>
      </g>
     </g>
    </g>
    <g id="text_11">
     <!-- Handshake duration (ms) -->
     <g style="fill: #262626" transform="translate(21.328125 287.437813) rotate(-90) scale(0.12 -0.12)">
      <defs>
       <path id="DejaVuSans-48" d="M 628 4666 
L 1259 4666 
L 1259 2753 
L 3553 2753 
L 3553 4666 
L 4184 4666 
L 4184 0 
L 3553 0 
L 3553 2222 
L 1259 2222 
L 1259 0 
L 628 0 
L 628 4666 
z
" transform="scale(0.015625)"/>
       <path id="DejaVuSans-61" d="M 2194 1759 
Q 1497 1759 1228 1600 
Q 959 1441 959 1056 
Q 959 750 1161 570 
Q 1363 391 1709 391 
Q 2188 391 2477 730 
Q 2766 1069 2766 1631 
L 2766 1759 
L 2194 1759 
z
M 3341 1997 
L 3341 0 
L 2766 0 
L 2766 531 
Q 2569 213 2275 61 
Q 1981 -91 1556 -91 
Q 1019 -91 701 211 
Q 384 513 384 1019 
Q 384 1609 779 1909 
Q 1175 2209 1959 2209 
L 2766 2209 
L 2766 2266 
Q 2766 2663 2505 2880 
Q 2244 3097 1772 3097 
Q 1472 3097 1187 3025 
Q 903 2953 641 2809 
L 641 3341 
Q 956 3463 1253 3523 
Q 1550 3584 1831 3584 
Q 2591 3584 2966 3190 
Q 3341 2797 3341 1997 
z
" transform="scale(0.015625)"/>
       <path id="DejaVuSans-6e" d="M 3513 2113 
L 3513 0 
L 2938 0 
L 2938 2094 
Q 2938 2591 2744 2837 
Q 2550 3084 2163 3084 
Q 1697 3084 1428 2787 
Q 1159 2491 1159 1978 
L 1159 0 
L 581 0 
L 581 3500 
L 1159 3500 
L 1159 2956 
Q 1366 3272 1645 3428 
Q 1925 3584 2291 3584 
Q 2894 3584 3203 3211 
Q 3513 2838 3513 2113 
z
" transform="scale(0.015625)"/>
       <path id="DejaVuSans-64" d="M 2906 2969 
L 2906 4863 
L 3481 4863 
L 3481 0 
L 2906 0 
L 2906 525 
Q 2725 213 2448 61 
Q 2172 -91 1784 -91 
Q 1150 -91 751 415 
Q 353 922 353 1747 
Q 353 2572 751 3078 
Q 1150 3584 1784 3584 
Q 2172 3584 2448 3432 
Q 2725 3281 2906 2969 
z
M 947 1747 
Q 947 1113 1208 752 
Q 1469 391 1925 391 
Q 2381 391 2643 752 
Q 2906 1113 2906 1747 
Q 2906 2381 2643 2742 
Q 2381 3103 1925 3103 
Q 1469 3103 1208 2742 
Q 947 2381 947 1747 
z
" transform="scale(0.015625)"/>
       <path id="DejaVuSans-73" d="M 2834 3397 
L 2834 2853 
Q 2591 2978 2328 3040 
Q 2066 3103 1784 3103 
Q 1356 3103 1142 2972 
Q 928 2841 928 2578 
Q 928 2378 1081 2264 
Q 1234 2150 1697 2047 
L 1894 2003 
Q 2506 1872 2764 1633 
Q 3022 1394 3022 966 
Q 3022 478 2636 193 
Q 2250 -91 1575 -91 
Q 1294 -91 989 -36 
Q 684 19 347 128 
L 347 722 
Q 666 556 975 473 
Q 1284 391 1588 391 
Q 1994 391 2212 530 
Q 2431 669 2431 922 
Q 2431 1156 2273 1281 
Q 2116 1406 1581 1522 
L 1381 1569 
Q 847 1681 609 1914 
Q 372 2147 372 2553 
Q 372 3047 722 3315 
Q 1072 3584 1716 3584 
Q 2034 3584 2315 3537 
Q 2597 3491 2834 3397 
z
" transform="scale(0.015625)"/>
       <path id="DejaVuSans-68" d="M 3513 2113 
L 3513 0 
L 2938 0 
L 2938 2094 
Q 2938 2591 2744 2837 
Q 2550 3084 2163 3084 
Q 1697 3084 1428 2787 
Q 1159 2491 1159 1978 
L 1159 0 
L 581 0 
L 581 4863 
L 1159 4863 
L 1159 2956 
Q 1366 3272 1645 3428 
Q 1925 3584 2291 3584 
Q 2894 3584 3203 3211 
Q 3513 2838 3513 2113 
z
" transform="scale(0.015625)"/>
       <path id="DejaVuSans-20" transform="scale(0.015625)"/>
       <path id="DejaVuSans-75" d="M 544 1381 
L 544 3500 
L 1119 3500 
L 1119 1403 
Q 1119 906 1312 657 
Q 1506 409 1894 409 
Q 2359 409 2629 706 
Q 2900 1003 2900 1516 
L 2900 3500 
L 3475 3500 
L 3475 0 
L 2900 0 
L 2900 538 
Q 2691 219 2414 64 
Q 2138 -91 1772 -91 
Q 1169 -91 856 284 
Q 544 659 544 1381 
z
M 1991 3584 
L 1991 3584 
z
" transform="scale(0.015625)"/>
       <path id="DejaVuSans-72" d="M 2631 2963 
Q 2534 3019 2420 3045 
Q 2306 3072 2169 3072 
Q 1681 3072 1420 2755 
Q 1159 2438 1159 1844 
L 1159 0 
L 581 0 
L 581 3500 
L 1159 3500 
L 1159 2956 
Q 1341 3275 1631 3429 
Q 1922 3584 2338 3584 
Q 2397 3584 2469 3576 
Q 2541 3569 2628 3553 
L 2631 2963 
z
" transform="scale(0.015625)"/>
       <path id="DejaVuSans-74" d="M 1172 4494 
L 1172 3500 
L 2356 3500 
L 2356 3053 
L 1172 3053 
L 1172 1153 
Q 1172 725 1289 603 
Q 1406 481 1766 481 
L 2356 481 
L 2356 0 
L 1766 0 
Q 1100 0 847 248 
Q 594 497 594 1153 
L 594 3053 
L 172 3053 
L 172 3500 
L 594 3500 
L 594 4494 
L 1172 4494 
z
" transform="scale(0.015625)"/>
       <path id="DejaVuSans-69" d="M 603 3500 
L 1178 3500 
L 1178 0 
L 603 0 
L 603 3500 
z
M 603 4863 
L 1178 4863 
L 1178 4134 
L 603 4134 
L 603 4863 
z
" transform="scale(0.015625)"/>
       <path id="DejaVuSans-6f" d="M 1959 3097 
Q 1497 3097 1228 2736 
Q 959 2375 959 1747 
Q 959 1119 1226 758 
Q 1494 397 1959 397 
Q 2419 397 2687 759 
Q 2956 1122 2956 1747 
Q 2956 2369 2687 2733 
Q 2419 3097 1959 3097 
z
M 1959 3584 
Q 2709 3584 3137 3096 
Q 3566 2609 3566 1747 
Q 3566 888 3137 398 
Q 2709 -91 1959 -91 
Q 1206 -91 779 398 
Q 353 888 353 1747 
Q 353 2609 779 3096 
Q 1206 3584 1959 3584 
z
" transform="scale(0.015625)"/>
       <path id="DejaVuSans-28" d="M 1984 4856 
Q 1566 4138 1362 3434 
Q 1159 2731 1159 2009 
Q 1159 1288 1364 580 
Q 1569 -128 1984 -844 
L 1484 -844 
Q 1016 -109 783 600 
Q 550 1309 550 2009 
Q 550 2706 781 3412 
Q 1013 4119 1484 4856 
L 1984 4856 
z
" transform="scale(0.015625)"/>
       <path id="DejaVuSans-29" d="M 513 4856 
L 1013 4856 
Q 1481 4119 1714 3412 
Q 1947 2706 1947 2009 
Q 1947 1309 1714 600 
Q 1481 -109 1013 -844 
L 513 -844 
Q 928 -128 1133 580 
Q 1338 1288 1338 2009 
Q 1338 2731 1133 3434 
Q 928 4138 513 4856 
z
" transform="scale(0.015625)"/>
      </defs>
      <use xlink:href="#DejaVuSans-48"/>
      <use xlink:href="#DejaVuSans-61" x="75.195312"/>
      <use xlink:href="#DejaVuSans-6e" x="136.474609"/>
      <use xlink:href="#DejaVuSans-64" x="199.853516"/>
      <use xlink:href="#DejaVuSans-73" x="263.330078"/>
      <use xlink:href="#DejaVuSans-68" x="315.429688"/>
      <use xlink:href="#DejaVuSans-61" x="378.808594"/>
      <use xlink:href="#DejaVuSans-6b" x="440.087891"/>
      <use xlink:href="#DejaVuSans-65" x="494.373047"/>
      <use xlink:href="#DejaVuSans-20" x="555.896484"/>
      <use xlink:href="#DejaVuSans-64" x="587.683594"/>
      <use xlink:href="#DejaVuSans-75" x="651.160156"/>
      <use xlink:href="#DejaVuSans-72" x="714.539062"/>
      <use xlink:href="#DejaVuSans-61" x="755.652344"/>
      <use xlink:href="#DejaVuSans-74" x="816.931641"/>
      <use xlink:href="#DejaVuSans-69" x="856.140625"/>
      <use xlink:href="#DejaVuSans-6f" x="883.923828"/>
      <use xlink:href="#DejaVuSans-6e" x="945.105469"/>
      <use xlink:href="#DejaVuSans-20" x="1008.484375"/>
      <use xlink:href="#DejaVuSans-28" x="1040.271484"/>
      <use xlink:href="#DejaVuSans-6d" x="1079.285156"/>
      <use xlink:href="#DejaVuSans-73" x="1176.697266"/>
      <use xlink:href="#DejaVuSans-29" x="1228.796875"/>
     </g>
    </g>
   </g>
   <g id="PolyCollection_1">
    <defs>
     <path id="maf991d6bfe" d="M 191.23915 -77.473729 
L 189.64085 -77.473729 
L 189.089152 -79.353457 
L 188.263939 -81.233185 
L 187.097325 -83.112913 
L 185.540102 -84.992641 
L 183.580187 -86.872369 
L 181.25882 -88.752098 
L 178.678579 -90.631826 
L 175.998284 -92.511554 
L 173.413267 -94.391282 
L 171.124383 -96.27101 
L 169.303661 -98.150739 
L 168.066525 -100.030467 
L 167.458654 -101.910195 
L 167.460358 -103.789923 
L 168.004841 -105.669651 
L 169.001915 -107.549379 
L 170.357831 -109.429108 
L 171.985103 -111.308836 
L 173.801791 -113.188564 
L 175.724786 -115.068292 
L 177.663737 -116.94802 
L 179.52081 -118.827748 
L 181.197581 -120.707477 
L 182.606288 -122.587205 
L 183.680352 -124.466933 
L 184.379196 -126.346661 
L 184.684509 -128.226389 
L 184.587999 -130.106118 
L 184.073438 -131.985846 
L 183.097753 -133.865574 
L 181.577064 -135.745302 
L 179.383411 -137.62503 
L 176.35627 -139.504758 
L 172.329377 -141.384487 
L 167.168433 -143.264215 
L 160.810688 -145.143943 
L 153.295559 -147.023671 
L 144.777989 -148.903399 
L 135.522751 -150.783127 
L 125.885057 -152.662856 
L 116.286243 -154.542584 
L 107.190571 -156.422312 
L 99.081834 -158.30204 
L 92.43216 -160.181768 
L 87.656009 -162.061497 
L 85.051498 -163.941225 
L 84.744 -165.820953 
L 86.654727 -167.700681 
L 90.512775 -169.580409 
L 95.913035 -171.460137 
L 102.402454 -173.339866 
L 109.564284 -175.219594 
L 117.07156 -177.099322 
L 124.696219 -178.97905 
L 132.280686 -180.858778 
L 139.693879 -182.738506 
L 146.796614 -184.618235 
L 153.432325 -186.497963 
L 159.444154 -188.377691 
L 164.706609 -190.257419 
L 169.154896 -192.137147 
L 172.798508 -194.016876 
L 175.714327 -195.896604 
L 178.023543 -197.776332 
L 179.861979 -199.65606 
L 181.353778 -201.535788 
L 182.594944 -203.415516 
L 183.648439 -205.295245 
L 184.548632 -207.174973 
L 185.310966 -209.054701 
L 185.942679 -210.934429 
L 186.451522 -212.814157 
L 186.850886 -214.693885 
L 187.161082 -216.573614 
L 187.407471 -218.453342 
L 187.616708 -220.33307 
L 187.812485 -222.212798 
L 188.011971 -224.092526 
L 188.223663 -225.972255 
L 188.446962 -227.851983 
L 188.673418 -229.731711 
L 188.889383 -231.611439 
L 189.079668 -233.491167 
L 189.231567 -235.370895 
L 189.338422 -237.250624 
L 189.401806 -239.130352 
L 189.431635 -241.01008 
L 189.443999 -242.889808 
L 189.457258 -244.769536 
L 189.487519 -246.649264 
L 189.544879 -248.528993 
L 189.631532 -250.408721 
L 189.74219 -252.288449 
L 189.866422 -254.168177 
L 189.991957 -256.047905 
L 190.107817 -257.927634 
L 190.206415 -259.807362 
L 190.284285 -261.68709 
L 190.341617 -263.566818 
L 190.538383 -263.566818 
L 190.538383 -263.566818 
L 190.595715 -261.68709 
L 190.673585 -259.807362 
L 190.772183 -257.927634 
L 190.888043 -256.047905 
L 191.013578 -254.168177 
L 191.13781 -252.288449 
L 191.248468 -250.408721 
L 191.335121 -248.528993 
L 191.392481 -246.649264 
L 191.422742 -244.769536 
L 191.436001 -242.889808 
L 191.448365 -241.01008 
L 191.478194 -239.130352 
L 191.541578 -237.250624 
L 191.648433 -235.370895 
L 191.800332 -233.491167 
L 191.990617 -231.611439 
L 192.206582 -229.731711 
L 192.433038 -227.851983 
L 192.656337 -225.972255 
L 192.868029 -224.092526 
L 193.067515 -222.212798 
L 193.263292 -220.33307 
L 193.472529 -218.453342 
L 193.718918 -216.573614 
L 194.029114 -214.693885 
L 194.428478 -212.814157 
L 194.937321 -210.934429 
L 195.569034 -209.054701 
L 196.331368 -207.174973 
L 197.231561 -205.295245 
L 198.285056 -203.415516 
L 199.526222 -201.535788 
L 201.018021 -199.65606 
L 202.856457 -197.776332 
L 205.165673 -195.896604 
L 208.081492 -194.016876 
L 211.725104 -192.137147 
L 216.173391 -190.257419 
L 221.435846 -188.377691 
L 227.447675 -186.497963 
L 234.083386 -184.618235 
L 241.186121 -182.738506 
L 248.599314 -180.858778 
L 256.183781 -178.97905 
L 263.80844 -177.099322 
L 271.315716 -175.219594 
L 278.477546 -173.339866 
L 284.966965 -171.460137 
L 290.367225 -169.580409 
L 294.225273 -167.700681 
L 296.136 -165.820953 
L 295.828502 -163.941225 
L 293.223991 -162.061497 
L 288.44784 -160.181768 
L 281.798166 -158.30204 
L 273.689429 -156.422312 
L 264.593757 -154.542584 
L 254.994943 -152.662856 
L 245.357249 -150.783127 
L 236.102011 -148.903399 
L 227.584441 -147.023671 
L 220.069312 -145.143943 
L 213.711567 -143.264215 
L 208.550623 -141.384487 
L 204.52373 -139.504758 
L 201.496589 -137.62503 
L 199.302936 -135.745302 
L 197.782247 -133.865574 
L 196.806562 -131.985846 
L 196.292001 -130.106118 
L 196.195491 -128.226389 
L 196.500804 -126.346661 
L 197.199648 -124.466933 
L 198.273712 -122.587205 
L 199.682419 -120.707477 
L 201.35919 -118.827748 
L 203.216263 -116.94802 
L 205.155214 -115.068292 
L 207.078209 -113.188564 
L 208.894897 -111.308836 
L 210.522169 -109.429108 
L 211.878085 -107.549379 
L 212.875159 -105.669651 
L 213.419642 -103.789923 
L 213.421346 -101.910195 
L 212.813475 -100.030467 
L 211.576339 -98.150739 
L 209.755617 -96.27101 
L 207.466733 -94.391282 
L 204.881716 -92.511554 
L 202.201421 -90.631826 
L 199.62118 -88.752098 
L 197.299813 -86.872369 
L 195.339898 -84.992641 
L 193.782675 -83.112913 
L 192.616061 -81.233185 
L 191.790848 -79.353457 
L 191.23915 -77.473729 
z
" style="stroke: #595959; stroke-width: 1.25"/>
    </defs>
    <g clip-path="url(#p0c07f35c66)">
     <use xlink:href="#maf991d6bfe" x="0" y="432" style="fill: #72b6a1; stroke: #595959; stroke-width: 1.25"/>
    </g>
   </g>
   <g id="PolyCollection_2">
    <defs>
     <path id="m93d39c714c" d="M 456.575262 -83.617067 
L 452.784738 -83.617067 
L 451.832615 -86.688547 
L 450.533862 -89.760028 
L 448.826168 -92.831508 
L 446.662485 -95.902989 
L 444.022014 -98.974469 
L 440.920223 -102.04595 
L 437.415668 -105.11743 
L 433.611605 -108.188911 
L 429.651136 -111.260391 
L 425.705832 -114.331872 
L 421.959219 -117.403352 
L 418.587623 -120.474833 
L 415.741547 -123.546313 
L 413.530645 -126.617794 
L 412.014545 -129.689274 
L 411.200622 -132.760755 
L 411.048422 -135.832235 
L 411.479453 -138.903716 
L 412.390342 -141.975196 
L 413.667172 -145.046677 
L 415.198993 -148.118157 
L 416.888817 -151.189638 
L 418.66093 -154.261118 
L 420.463819 -157.332599 
L 422.268643 -160.404079 
L 424.063794 -163.47556 
L 425.846712 -166.54704 
L 427.61463 -169.618521 
L 429.356101 -172.690001 
L 431.044986 -175.761482 
L 432.637934 -178.832962 
L 434.07557 -181.904443 
L 435.286625 -184.975923 
L 436.193614 -188.047404 
L 436.718353 -191.118884 
L 436.785884 -194.190365 
L 436.326018 -197.261845 
L 435.272692 -200.333326 
L 433.562261 -203.404806 
L 431.132563 -206.476287 
L 427.924812 -209.547767 
L 423.889932 -212.619248 
L 418.999882 -215.690728 
L 413.262913 -218.762209 
L 406.739959 -221.833689 
L 399.558043 -224.90517 
L 391.916133 -227.97665 
L 384.079877 -231.048131 
L 376.363928 -234.119611 
L 369.103802 -237.191092 
L 362.622344 -240.262572 
L 357.197828 -243.334053 
L 353.040651 -246.405533 
L 350.283259 -249.477014 
L 348.984 -252.548494 
L 349.141424 -255.619975 
L 350.712581 -258.691455 
L 353.628281 -261.762936 
L 357.80028 -264.834416 
L 363.119121 -267.905897 
L 369.445429 -270.977377 
L 376.600297 -274.048858 
L 384.360925 -277.120338 
L 392.465868 -280.191819 
L 400.630885 -283.263299 
L 408.572793 -286.33478 
L 416.036177 -289.40626 
L 422.817061 -292.477741 
L 428.778708 -295.549221 
L 433.857036 -298.620702 
L 438.055778 -301.692182 
L 441.433713 -304.763663 
L 444.087482 -307.835143 
L 446.133618 -310.906624 
L 447.692693 -313.978104 
L 448.877343 -317.049585 
L 449.78474 -320.121065 
L 450.493176 -323.192546 
L 451.061863 -326.264026 
L 451.532898 -329.335507 
L 451.934393 -332.406987 
L 452.283981 -335.478468 
L 452.592159 -338.549948 
L 452.865102 -341.621429 
L 453.106799 -344.692909 
L 453.320441 -347.76439 
L 453.509143 -350.83587 
L 453.676121 -353.907351 
L 453.824527 -356.978831 
L 453.957136 -360.050312 
L 454.076079 -363.121792 
L 454.182716 -366.193273 
L 454.277701 -369.264753 
L 454.361205 -372.336234 
L 454.433207 -375.407714 
L 454.493784 -378.479195 
L 454.543311 -381.550675 
L 454.582543 -384.622156 
L 454.61259 -387.693636 
L 454.74741 -387.693636 
L 454.74741 -387.693636 
L 454.777457 -384.622156 
L 454.816689 -381.550675 
L 454.866216 -378.479195 
L 454.926793 -375.407714 
L 454.998795 -372.336234 
L 455.082299 -369.264753 
L 455.177284 -366.193273 
L 455.283921 -363.121792 
L 455.402864 -360.050312 
L 455.535473 -356.978831 
L 455.683879 -353.907351 
L 455.850857 -350.83587 
L 456.039559 -347.76439 
L 456.253201 -344.692909 
L 456.494898 -341.621429 
L 456.767841 -338.549948 
L 457.076019 -335.478468 
L 457.425607 -332.406987 
L 457.827102 -329.335507 
L 458.298137 -326.264026 
L 458.866824 -323.192546 
L 459.57526 -320.121065 
L 460.482657 -317.049585 
L 461.667307 -313.978104 
L 463.226382 -310.906624 
L 465.272518 -307.835143 
L 467.926287 -304.763663 
L 471.304222 -301.692182 
L 475.502964 -298.620702 
L 480.581292 -295.549221 
L 486.542939 -292.477741 
L 493.323823 -289.40626 
L 500.787207 -286.33478 
L 508.729115 -283.263299 
L 516.894132 -280.191819 
L 524.999075 -277.120338 
L 532.759703 -274.048858 
L 539.914571 -270.977377 
L 546.240879 -267.905897 
L 551.55972 -264.834416 
L 555.731719 -261.762936 
L 558.647419 -258.691455 
L 560.218576 -255.619975 
L 560.376 -252.548494 
L 559.076741 -249.477014 
L 556.319349 -246.405533 
L 552.162172 -243.334053 
L 546.737656 -240.262572 
L 540.256198 -237.191092 
L 532.996072 -234.119611 
L 525.280123 -231.048131 
L 517.443867 -227.97665 
L 509.801957 -224.90517 
L 502.620041 -221.833689 
L 496.097087 -218.762209 
L 490.360118 -215.690728 
L 485.470068 -212.619248 
L 481.435188 -209.547767 
L 478.227437 -206.476287 
L 475.797739 -203.404806 
L 474.087308 -200.333326 
L 473.033982 -197.261845 
L 472.574116 -194.190365 
L 472.641647 -191.118884 
L 473.166386 -188.047404 
L 474.073375 -184.975923 
L 475.28443 -181.904443 
L 476.722066 -178.832962 
L 478.315014 -175.761482 
L 480.003899 -172.690001 
L 481.74537 -169.618521 
L 483.513288 -166.54704 
L 485.296206 -163.47556 
L 487.091357 -160.404079 
L 488.896181 -157.332599 
L 490.69907 -154.261118 
L 492.471183 -151.189638 
L 494.161007 -148.118157 
L 495.692828 -145.046677 
L 496.969658 -141.975196 
L 497.880547 -138.903716 
L 498.311578 -135.832235 
L 498.159378 -132.760755 
L 497.345455 -129.689274 
L 495.829355 -126.617794 
L 493.618453 -123.546313 
L 490.772377 -120.474833 
L 487.400781 -117.403352 
L 483.654168 -114.331872 
L 479.708864 -111.260391 
L 475.748395 -108.188911 
L 471.944332 -105.11743 
L 468.439777 -102.04595 
L 465.337986 -98.974469 
L 462.697515 -95.902989 
L 460.533832 -92.831508 
L 458.826138 -89.760028 
L 457.527385 -86.688547 
L 456.575262 -83.617067 
z
" style="stroke: #595959; stroke-width: 1.25"/>
    </defs>
    <g clip-path="url(#p0c07f35c66)">
     <use xlink:href="#m93d39c714c" x="0" y="432" style="fill: #e99675; stroke: #595959; stroke-width: 1.25"/>
    </g>
   </g>
   <g id="PolyCollection_3">
    <defs>
     <path id="maa237838c2" d="M 720.312173 -53.566364 
L 717.527827 -53.566364 
L 716.57947 -54.607464 
L 715.122762 -55.648564 
L 712.972181 -56.689664 
L 709.921142 -57.730764 
L 705.762918 -58.771864 
L 700.321591 -59.812964 
L 693.490527 -60.854064 
L 685.272891 -61.895164 
L 675.816068 -62.936264 
L 665.43064 -63.977364 
L 654.585592 -65.018464 
L 643.87514 -66.059564 
L 633.958456 -67.100664 
L 625.480331 -68.141764 
L 618.986525 -69.182864 
L 614.85016 -70.223964 
L 613.224 -71.265064 
L 614.02781 -72.306164 
L 616.971936 -73.347264 
L 621.610083 -74.388364 
L 627.408605 -75.429464 
L 633.817734 -76.470564 
L 640.332267 -77.511664 
L 646.533821 -78.552764 
L 652.112071 -79.593864 
L 656.866693 -80.634964 
L 660.694207 -81.676064 
L 663.564867 -82.717164 
L 665.494809 -83.758264 
L 666.518588 -84.799364 
L 666.66718 -85.840464 
L 665.956029 -86.881564 
L 664.386198 -87.922664 
L 661.958829 -88.963764 
L 658.699457 -90.004864 
L 654.685274 -91.045964 
L 650.066839 -92.087064 
L 645.076583 -93.128164 
L 640.019915 -94.169264 
L 635.249511 -95.210364 
L 631.127893 -96.251464 
L 627.986085 -97.292564 
L 626.086393 -98.333664 
L 625.595508 -99.374764 
L 626.57112 -100.415864 
L 628.962339 -101.456964 
L 632.622089 -102.498064 
L 637.328501 -103.539164 
L 642.811898 -104.580264 
L 648.78389 -105.621364 
L 654.965151 -106.662464 
L 661.108764 -107.703564 
L 667.016688 -108.744664 
L 672.548026 -109.785764 
L 677.619188 -110.826864 
L 682.19737 -111.867964 
L 686.289644 -112.909064 
L 689.930219 -113.950164 
L 693.168065 -114.991264 
L 696.056477 -116.032364 
L 698.645358 -117.073464 
L 700.976489 -118.114564 
L 703.081577 -119.155664 
L 704.982636 -120.196764 
L 706.694048 -121.237864 
L 708.225485 -122.278964 
L 709.58486 -123.320064 
L 710.780571 -124.361164 
L 711.822601 -125.402264 
L 712.722406 -126.443365 
L 713.491951 -127.484465 
L 714.142498 -128.525565 
L 714.683772 -129.566665 
L 715.123921 -130.607765 
L 715.470281 -131.648865 
L 715.73058 -132.689965 
L 715.914019 -133.731065 
L 716.031728 -134.772165 
L 716.096413 -135.813265 
L 716.121414 -136.854365 
L 716.119662 -137.895465 
L 716.103067 -138.936565 
L 716.082583 -139.977665 
L 716.068799 -141.018765 
L 716.072558 -142.059865 
L 716.105003 -143.100965 
L 716.176689 -144.142065 
L 716.29582 -145.183165 
L 716.466171 -146.224265 
L 716.685455 -147.265365 
L 716.944865 -148.306465 
L 717.230079 -149.347565 
L 717.523567 -150.388665 
L 717.807551 -151.429765 
L 718.066821 -152.470865 
L 718.290739 -153.511965 
L 718.474042 -154.553065 
L 718.616501 -155.594165 
L 718.72175 -156.635265 
L 719.11825 -156.635265 
L 719.11825 -156.635265 
L 719.223499 -155.594165 
L 719.365958 -154.553065 
L 719.549261 -153.511965 
L 719.773179 -152.470865 
L 720.032449 -151.429765 
L 720.316433 -150.388665 
L 720.609921 -149.347565 
L 720.895135 -148.306465 
L 721.154545 -147.265365 
L 721.373829 -146.224265 
L 721.54418 -145.183165 
L 721.663311 -144.142065 
L 721.734997 -143.100965 
L 721.767442 -142.059865 
L 721.771201 -141.018765 
L 721.757417 -139.977665 
L 721.736933 -138.936565 
L 721.720338 -137.895465 
L 721.718586 -136.854365 
L 721.743587 -135.813265 
L 721.808272 -134.772165 
L 721.925981 -133.731065 
L 722.10942 -132.689965 
L 722.369719 -131.648865 
L 722.716079 -130.607765 
L 723.156228 -129.566665 
L 723.697502 -128.525565 
L 724.348049 -127.484465 
L 725.117594 -126.443365 
L 726.017399 -125.402264 
L 727.059429 -124.361164 
L 728.25514 -123.320064 
L 729.614515 -122.278964 
L 731.145952 -121.237864 
L 732.857364 -120.196764 
L 734.758423 -119.155664 
L 736.863511 -118.114564 
L 739.194642 -117.073464 
L 741.783523 -116.032364 
L 744.671935 -114.991264 
L 747.909781 -113.950164 
L 751.550356 -112.909064 
L 755.64263 -111.867964 
L 760.220812 -110.826864 
L 765.291974 -109.785764 
L 770.823312 -108.744664 
L 776.731236 -107.703564 
L 782.874849 -106.662464 
L 789.05611 -105.621364 
L 795.028102 -104.580264 
L 800.511499 -103.539164 
L 805.217911 -102.498064 
L 808.877661 -101.456964 
L 811.26888 -100.415864 
L 812.244492 -99.374764 
L 811.753607 -98.333664 
L 809.853915 -97.292564 
L 806.712107 -96.251464 
L 802.590489 -95.210364 
L 797.820085 -94.169264 
L 792.763417 -93.128164 
L 787.773161 -92.087064 
L 783.154726 -91.045964 
L 779.140543 -90.004864 
L 775.881171 -88.963764 
L 773.453802 -87.922664 
L 771.883971 -86.881564 
L 771.17282 -85.840464 
L 771.321412 -84.799364 
L 772.345191 -83.758264 
L 774.275133 -82.717164 
L 777.145793 -81.676064 
L 780.973307 -80.634964 
L 785.727929 -79.593864 
L 791.306179 -78.552764 
L 797.507733 -77.511664 
L 804.022266 -76.470564 
L 810.431395 -75.429464 
L 816.229917 -74.388364 
L 820.868064 -73.347264 
L 823.81219 -72.306164 
L 824.616 -71.265064 
L 822.98984 -70.223964 
L 818.853475 -69.182864 
L 812.359669 -68.141764 
L 803.881544 -67.100664 
L 793.96486 -66.059564 
L 783.254408 -65.018464 
L 772.40936 -63.977364 
L 762.023932 -62.936264 
L 752.567109 -61.895164 
L 744.349473 -60.854064 
L 737.518409 -59.812964 
L 732.077082 -58.771864 
L 727.918858 -57.730764 
L 724.867819 -56.689664 
L 722.717238 -55.648564 
L 721.26053 -54.607464 
L 720.312173 -53.566364 
z
" style="stroke: #595959; stroke-width: 1.25"/>
    </defs>
    <g clip-path="url(#p0c07f35c66)">
     <use xlink:href="#maa237838c2" x="0" y="432" style="fill: #95a3c3; stroke: #595959; stroke-width: 1.25"/>
    </g>
   </g>
   <g id="line2d_8">
    <path d="M 190.44 278.311522 
L 190.44 305.724657 
" clip-path="url(#p0c07f35c66)" style="fill: none; stroke: #000000"/>
   </g>
   <g id="line2d_9">
    <path d="M 190.44 258.031608 
L 190.44 231.596032 
" clip-path="url(#p0c07f35c66)" style="fill: none; stroke: #000000"/>
   </g>
   <g id="line2d_10">
    <path d="M 180.531 305.724657 
L 200.349 305.724657 
" clip-path="url(#p0c07f35c66)" style="fill: none; stroke: #000000; stroke-linecap: round"/>
   </g>
   <g id="line2d_11">
    <path d="M 180.531 231.596032 
L 200.349 231.596032 
" clip-path="url(#p0c07f35c66)" style="fill: none; stroke: #000000; stroke-linecap: round"/>
   </g>
   <g id="line2d_12">
    <path d="M 454.68 262.658723 
L 454.68 315.346211 
" clip-path="url(#p0c07f35c66)" style="fill: none; stroke: #000000"/>
   </g>
   <g id="line2d_13">
    <path d="M 454.68 166.058081 
L 454.68 77.343086 
" clip-path="url(#p0c07f35c66)" style="fill: none; stroke: #000000"/>
   </g>
   <g id="line2d_14">
    <path d="M 444.771 315.346211 
L 464.589 315.346211 
" clip-path="url(#p0c07f35c66)" style="fill: none; stroke: #000000; stroke-linecap: round"/>
   </g>
   <g id="line2d_15">
    <path d="M 444.771 77.343086 
L 464.589 77.343086 
" clip-path="url(#p0c07f35c66)" style="fill: none; stroke: #000000; stroke-linecap: round"/>
   </g>
   <g id="line2d_16">
    <path d="M 718.92 359.893296 
L 718.92 368.40695 
" clip-path="url(#p0c07f35c66)" style="fill: none; stroke: #000000"/>
   </g>
   <g id="line2d_17">
    <path d="M 718.92 331.194522 
L 718.92 291.932183 
" clip-path="url(#p0c07f35c66)" style="fill: none; stroke: #000000"/>
   </g>
   <g id="line2d_18">
    <path d="M 709.011 368.40695 
L 728.829 368.40695 
" clip-path="url(#p0c07f35c66)" style="fill: none; stroke: #000000; stroke-linecap: round"/>
   </g>
   <g id="line2d_19">
    <path d="M 709.011 291.932183 
L 728.829 291.932183 
" clip-path="url(#p0c07f35c66)" style="fill: none; stroke: #000000; stroke-linecap: round"/>
   </g>
   <g id="line2d_20">
    <path d="M 170.622 267.641313 
L 210.258 267.641313 
" clip-path="url(#p0c07f35c66)" style="fill: none; stroke: #ff0000; stroke-width: 2"/>
   </g>
   <g id="line2d_21">
    <path d="M 434.862 189.116634 
L 474.498 189.116634 
" clip-path="url(#p0c07f35c66)" style="fill: none; stroke: #ff0000; stroke-width: 2"/>
   </g>
   <g id="line2d_22">
    <path d="M 699.102 343.855398 
L 738.738 343.855398 
" clip-path="url(#p0c07f35c66)" style="fill: none; stroke: #ff0000; stroke-width: 2"/>
   </g>
   <g id="patch_3">
    <path d="M 58.32 395.14 
L 58.32 27.6 
" style="fill: none; stroke: #cccccc; stroke-width: 1.25; stroke-linejoin: miter; stroke-linecap: square"/>
   </g>
   <g id="patch_4">
    <path d="M 851.04 395.14 
L 851.04 27.6 
" style="fill: none; stroke: #cccccc; stroke-width: 1.25; stroke-linejoin: miter; stroke-linecap: square"/>
   </g>
   <g id="patch_5">
    <path d="M 58.32 395.14 
L 851.04 395.14 
" style="fill: none; stroke: #cccccc; stroke-width: 1.25; stroke-linejoin: miter; stroke-linecap: square"/>
   </g>
   <g id="patch_6">
    <path d="M 58.32 27.6 
L 851.04 27.6 
" style="fill: none; stroke: #cccccc; stroke-width: 1.25; stroke-linejoin: miter; stroke-linecap: square"/>
   </g>
   <g id="text_12">
    <!-- Handshake duration on TLS with secp521r1 signature algorithm — ideal conditions -->
    <g style="fill: #262626" transform="translate(205.733437 21.6) scale(0.12 -0.12)">
     <defs>
      <path id="DejaVuSans-54" d="M -19 4666 
L 3928 4666 
L 3928 4134 
L 2272 4134 
L 2272 0 
L 1638 0 
L 1638 4134 
L -19 4134 
L -19 4666 
z
" transform="scale(0.015625)"/>
      <path id="DejaVuSans-4c" d="M 628 4666 
L 1259 4666 
L 1259 531 
L 3531 531 
L 3531 0 
L 628 0 
L 628 4666 
z
" transform="scale(0.015625)"/>
      <path id="DejaVuSans-53" d="M 3425 4513 
L 3425 3897 
Q 3066 4069 2747 4153 
Q 2428 4238 2131 4238 
Q 1616 4238 1336 4038 
Q 1056 3838 1056 3469 
Q 1056 3159 1242 3001 
Q 1428 2844 1947 2747 
L 2328 2669 
Q 3034 2534 3370 2195 
Q 3706 1856 3706 1288 
Q 3706 609 3251 259 
Q 2797 -91 1919 -91 
Q 1588 -91 1214 -16 
Q 841 59 441 206 
L 441 856 
Q 825 641 1194 531 
Q 1563 422 1919 422 
Q 2459 422 2753 634 
Q 3047 847 3047 1241 
Q 3047 1584 2836 1778 
Q 2625 1972 2144 2069 
L 1759 2144 
Q 1053 2284 737 2584 
Q 422 2884 422 3419 
Q 422 4038 858 4394 
Q 1294 4750 2059 4750 
Q 2388 4750 2728 4690 
Q 3069 4631 3425 4513 
z
" transform="scale(0.015625)"/>
      <path id="DejaVuSans-77" d="M 269 3500 
L 844 3500 
L 1563 769 
L 2278 3500 
L 2956 3500 
L 3675 769 
L 4391 3500 
L 4966 3500 
L 4050 0 
L 3372 0 
L 2619 2869 
L 1863 0 
L 1184 0 
L 269 3500 
z
" transform="scale(0.015625)"/>
      <path id="DejaVuSans-63" d="M 3122 3366 
L 3122 2828 
Q 2878 2963 2633 3030 
Q 2388 3097 2138 3097 
Q 1578 3097 1268 2742 
Q 959 2388 959 1747 
Q 959 1106 1268 751 
Q 1578 397 2138 397 
Q 2388 397 2633 464 
Q 2878 531 3122 666 
L 3122 134 
Q 2881 22 2623 -34 
Q 2366 -91 2075 -91 
Q 1284 -91 818 406 
Q 353 903 353 1747 
Q 353 2603 823 3093 
Q 1294 3584 2113 3584 
Q 2378 3584 2631 3529 
Q 2884 3475 3122 3366 
z
" transform="scale(0.015625)"/>
      <path id="DejaVuSans-67" d="M 2906 1791 
Q 2906 2416 2648 2759 
Q 2391 3103 1925 3103 
Q 1463 3103 1205 2759 
Q 947 2416 947 1791 
Q 947 1169 1205 825 
Q 1463 481 1925 481 
Q 2391 481 2648 825 
Q 2906 1169 2906 1791 
z
M 3481 434 
Q 3481 -459 3084 -895 
Q 2688 -1331 1869 -1331 
Q 1566 -1331 1297 -1286 
Q 1028 -1241 775 -1147 
L 775 -588 
Q 1028 -725 1275 -790 
Q 1522 -856 1778 -856 
Q 2344 -856 2625 -561 
Q 2906 -266 2906 331 
L 2906 616 
Q 2728 306 2450 153 
Q 2172 0 1784 0 
Q 1141 0 747 490 
Q 353 981 353 1791 
Q 353 2603 747 3093 
Q 1141 3584 1784 3584 
Q 2172 3584 2450 3431 
Q 2728 3278 2906 2969 
L 2906 3500 
L 3481 3500 
L 3481 434 
z
" transform="scale(0.015625)"/>
      <path id="DejaVuSans-2014" d="M 313 1978 
L 6088 1978 
L 6088 1528 
L 313 1528 
L 313 1978 
z
" transform="scale(0.015625)"/>
     </defs>
     <use xlink:href="#DejaVuSans-48"/>
     <use xlink:href="#DejaVuSans-61" x="75.195312"/>
     <use xlink:href="#DejaVuSans-6e" x="136.474609"/>
     <use xlink:href="#DejaVuSans-64" x="199.853516"/>
     <use xlink:href="#DejaVuSans-73" x="263.330078"/>
     <use xlink:href="#DejaVuSans-68" x="315.429688"/>
     <use xlink:href="#DejaVuSans-61" x="378.808594"/>
     <use xlink:href="#DejaVuSans-6b" x="440.087891"/>
     <use xlink:href="#DejaVuSans-65" x="494.373047"/>
     <use xlink:href="#DejaVuSans-20" x="555.896484"/>
     <use xlink:href="#DejaVuSans-64" x="587.683594"/>
     <use xlink:href="#DejaVuSans-75" x="651.160156"/>
     <use xlink:href="#DejaVuSans-72" x="714.539062"/>
     <use xlink:href="#DejaVuSans-61" x="755.652344"/>
     <use xlink:href="#DejaVuSans-74" x="816.931641"/>
     <use xlink:href="#DejaVuSans-69" x="856.140625"/>
     <use xlink:href="#DejaVuSans-6f" x="883.923828"/>
     <use xlink:href="#DejaVuSans-6e" x="945.105469"/>
     <use xlink:href="#DejaVuSans-20" x="1008.484375"/>
     <use xlink:href="#DejaVuSans-6f" x="1040.271484"/>
     <use xlink:href="#DejaVuSans-6e" x="1101.453125"/>
     <use xlink:href="#DejaVuSans-20" x="1164.832031"/>
     <use xlink:href="#DejaVuSans-54" x="1196.619141"/>
     <use xlink:href="#DejaVuSans-4c" x="1257.703125"/>
     <use xlink:href="#DejaVuSans-53" x="1313.416016"/>
     <use xlink:href="#DejaVuSans-20" x="1376.892578"/>
     <use xlink:href="#DejaVuSans-77" x="1408.679688"/>
     <use xlink:href="#DejaVuSans-69" x="1490.466797"/>
     <use xlink:href="#DejaVuSans-74" x="1518.25"/>
     <use xlink:href="#DejaVuSans-68" x="1557.458984"/>
     <use xlink:href="#DejaVuSans-20" x="1620.837891"/>
     <use xlink:href="#DejaVuSans-73" x="1652.625"/>
     <use xlink:href="#DejaVuSans-65" x="1704.724609"/>
     <use xlink:href="#DejaVuSans-63" x="1766.248047"/>
     <use xlink:href="#DejaVuSans-70" x="1821.228516"/>
     <use xlink:href="#DejaVuSans-35" x="1884.705078"/>
     <use xlink:href="#DejaVuSans-32" x="1948.328125"/>
     <use xlink:href="#DejaVuSans-31" x="2011.951172"/>
     <use xlink:href="#DejaVuSans-72" x="2075.574219"/>
     <use xlink:href="#DejaVuSans-31" x="2116.6875"/>
     <use xlink:href="#DejaVuSans-20" x="2180.310547"/>
     <use xlink:href="#DejaVuSans-73" x="2212.097656"/>
     <use xlink:href="#DejaVuSans-69" x="2264.197266"/>
     <use xlink:href="#DejaVuSans-67" x="2291.980469"/>
     <use xlink:href="#DejaVuSans-6e" x="2355.457031"/>
     <use xlink:href="#DejaVuSans-61" x="2418.835938"/>
     <use xlink:href="#DejaVuSans-74" x="2480.115234"/>
     <use xlink:href="#DejaVuSans-75" x="2519.324219"/>
     <use xlink:href="#DejaVuSans-72" x="2582.703125"/>
     <use xlink:href="#DejaVuSans-65" x="2621.566406"/>
     <use xlink:href="#DejaVuSans-20" x="2683.089844"/>
     <use xlink:href="#DejaVuSans-61" x="2714.876953"/>
     <use xlink:href="#DejaVuSans-6c" x="2776.15625"/>
     <use xlink:href="#DejaVuSans-67" x="2803.939453"/>
     <use xlink:href="#DejaVuSans-6f" x="2867.416016"/>
     <use xlink:href="#DejaVuSans-72" x="2928.597656"/>
     <use xlink:href="#DejaVuSans-69" x="2969.710938"/>
     <use xlink:href="#DejaVuSans-74" x="2997.494141"/>
     <use xlink:href="#DejaVuSans-68" x="3036.703125"/>
     <use xlink:href="#DejaVuSans-6d" x="3100.082031"/>
     <use xlink:href="#DejaVuSans-20" x="3197.494141"/>
     <use xlink:href="#DejaVuSans-2014" x="3229.28125"/>
     <use xlink:href="#DejaVuSans-20" x="3329.28125"/>
     <use xlink:href="#DejaVuSans-69" x="3361.068359"/>
     <use xlink:href="#DejaVuSans-64" x="3388.851562"/>
     <use xlink:href="#DejaVuSans-65" x="3452.328125"/>
     <use xlink:href="#DejaVuSans-61" x="3513.851562"/>
     <use xlink:href="#DejaVuSans-6c" x="3575.130859"/>
     <use xlink:href="#DejaVuSans-20" x="3602.914062"/>
     <use xlink:href="#DejaVuSans-63" x="3634.701172"/>
     <use xlink:href="#DejaVuSans-6f" x="3689.681641"/>
     <use xlink:href="#DejaVuSans-6e" x="3750.863281"/>
     <use xlink:href="#DejaVuSans-64" x="3814.242188"/>
     <use xlink:href="#DejaVuSans-69" x="3877.71875"/>
     <use xlink:href="#DejaVuSans-74" x="3905.501953"/>
     <use xlink:href="#DejaVuSans-69" x="3944.710938"/>
     <use xlink:href="#DejaVuSans-6f" x="3972.494141"/>
     <use xlink:href="#DejaVuSans-6e" x="4033.675781"/>
     <use xlink:href="#DejaVuSans-73" x="4097.054688"/>
    </g>
   </g>
  </g>
 </g>
 <defs>
  <clipPath id="p0c07f35c66">
   <rect x="58.32" y="27.6" width="792.72" height="367.54"/>
  </clipPath>
 </defs>
</svg>
