<?xml version="1.0" encoding="utf-8" standalone="no"?>
<!DOCTYPE svg PUBLIC "-//W3C//DTD SVG 1.1//EN"
  "http://www.w3.org/Graphics/SVG/1.1/DTD/svg11.dtd">
<svg xmlns:xlink="http://www.w3.org/1999/xlink" width="864pt" height="432pt" viewBox="0 0 864 432" xmlns="http://www.w3.org/2000/svg" version="1.1">
 <metadata>
  <rdf:RDF xmlns:dc="http://purl.org/dc/elements/1.1/" xmlns:cc="http://creativecommons.org/ns#" xmlns:rdf="http://www.w3.org/1999/02/22-rdf-syntax-ns#">
   <cc:Work>
    <dc:type rdf:resource="http://purl.org/dc/dcmitype/StillImage"/>
    <dc:date>2026-03-21T13:58:43.265794</dc:date>
    <dc:format>image/svg+xml</dc:format>
    <dc:creator>
     <cc:Agent>
      <dc:title>Matplotlib v3.6.3, https://matplotlib.org/</dc:title>
     </cc:Agent>
    </dc:creator>
   </cc:Work>
  </rdf:RDF>
 </metadata>
 <defs>
  <style type="text/css">*{stroke-linejoin: round; stroke-linecap: butt}</style>
 </defs>
 <g id="figure_1">
  <g id="patch_1">
   <path d="M 0 432 
L 864 432 
L 864 0 
L 0 0 
z
" style="fill: #ffffff"/>
  </g>
  <g id="axes_1">
   <g id="patch_2">
    <path d="M 58.32 395.14 
L 851.04 395.14 
L 851.04 27.6 
L 58.32 27.6 
z
" style="fill: #ffffff"/>
   </g>
   <g id="matplotlib.axis_1">
    <g id="xtick_1">
     <g id="text_1">
      <!-- P-384 -->
      <g style="fill: #262626" transform="translate(117.642 415.277812) scale(0.14 -0.14)">
       <defs>
        <path id="DejaVuSans-50" d="M 1259 4147 
L 1259 2394 
L 2053 2394 
Q 2494 2394 2734 2622 
Q 2975 2850 2975 3272 
Q 2975 3691 2734 3919 
Q 2494 4147 2053 4147 
L 1259 4147 
z
M 628 4666 
L 2053 4666 
Q 2838 4666 3239 4311 
Q 3641 3956 3641 3272 
Q 3641 2581 3239 2228 
Q 2838 1875 2053 1875 
L 1259 1875 
L 1259 0 
L 628 0 
L 628 4666 
z
" transform="scale(0.015625)"/>
        <path id="DejaVuSans-2d" d="M 313 2009 
L 1997 2009 
L 1997 1497 
L 313 1497 
L 313 2009 
z
" transform="scale(0.015625)"/>
        <path id="DejaVuSans-33" d="M 2597 2516 
Q 3050 2419 3304 2112 
Q 3559 1806 3559 1356 
Q 3559 666 3084 287 
Q 2609 -91 1734 -91 
Q 1441 -91 1130 -33 
Q 819 25 488 141 
L 488 750 
Q 750 597 1062 519 
Q 1375 441 1716 441 
Q 2309 441 2620 675 
Q 2931 909 2931 1356 
Q 2931 1769 2642 2001 
Q 2353 2234 1838 2234 
L 1294 2234 
L 1294 2753 
L 1863 2753 
Q 2328 2753 2575 2939 
Q 2822 3125 2822 3475 
Q 2822 3834 2567 4026 
Q 2313 4219 1838 4219 
Q 1578 4219 1281 4162 
Q 984 4106 628 3988 
L 628 4550 
Q 988 4650 1302 4700 
Q 1616 4750 1894 4750 
Q 2613 4750 3031 4423 
Q 3450 4097 3450 3541 
Q 3450 3153 3228 2886 
Q 3006 2619 2597 2516 
z
" transform="scale(0.015625)"/>
        <path id="DejaVuSans-38" d="M 2034 2216 
Q 1584 2216 1326 1975 
Q 1069 1734 1069 1313 
Q 1069 891 1326 650 
Q 1584 409 2034 409 
Q 2484 409 2743 651 
Q 3003 894 3003 1313 
Q 3003 1734 2745 1975 
Q 2488 2216 2034 2216 
z
M 1403 2484 
Q 997 2584 770 2862 
Q 544 3141 544 3541 
Q 544 4100 942 4425 
Q 1341 4750 2034 4750 
Q 2731 4750 3128 4425 
Q 3525 4100 3525 3541 
Q 3525 3141 3298 2862 
Q 3072 2584 2669 2484 
Q 3125 2378 3379 2068 
Q 3634 1759 3634 1313 
Q 3634 634 3220 271 
Q 2806 -91 2034 -91 
Q 1263 -91 848 271 
Q 434 634 434 1313 
Q 434 1759 690 2068 
Q 947 2378 1403 2484 
z
M 1172 3481 
Q 1172 3119 1398 2916 
Q 1625 2713 2034 2713 
Q 2441 2713 2670 2916 
Q 2900 3119 2900 3481 
Q 2900 3844 2670 4047 
Q 2441 4250 2034 4250 
Q 1625 4250 1398 4047 
Q 1172 3844 1172 3481 
z
" transform="scale(0.015625)"/>
        <path id="DejaVuSans-34" d="M 2419 4116 
L 825 1625 
L 2419 1625 
L 2419 4116 
z
M 2253 4666 
L 3047 4666 
L 3047 1625 
L 3713 1625 
L 3713 1100 
L 3047 1100 
L 3047 0 
L 2419 0 
L 2419 1100 
L 313 1100 
L 313 1709 
L 2253 4666 
z
" transform="scale(0.015625)"/>
       </defs>
       <use xlink:href="#DejaVuSans-50"/>
       <use xlink:href="#DejaVuSans-2d" x="58.052734"/>
       <use xlink:href="#DejaVuSans-33" x="94.136719"/>
       <use xlink:href="#DejaVuSans-38" x="157.759766"/>
       <use xlink:href="#DejaVuSans-34" x="221.382812"/>
      </g>
     </g>
    </g>
    <g id="xtick_2">
     <g id="text_2">
      <!-- x448 -->
      <g style="fill: #262626" transform="translate(278.631625 415.277812) scale(0.14 -0.14)">
       <defs>
        <path id="DejaVuSans-78" d="M 3513 3500 
L 2247 1797 
L 3578 0 
L 2900 0 
L 1881 1375 
L 863 0 
L 184 0 
L 1544 1831 
L 300 3500 
L 978 3500 
L 1906 2253 
L 2834 3500 
L 3513 3500 
z
" transform="scale(0.015625)"/>
       </defs>
       <use xlink:href="#DejaVuSans-78"/>
       <use xlink:href="#DejaVuSans-34" x="59.179688"/>
       <use xlink:href="#DejaVuSans-34" x="122.802734"/>
       <use xlink:href="#DejaVuSans-38" x="186.425781"/>
      </g>
     </g>
    </g>
    <g id="xtick_3">
     <g id="text_3">
      <!-- p384_mlkem768 -->
      <g style="fill: #262626" transform="translate(396.325156 415.277812) scale(0.14 -0.14)">
       <defs>
        <path id="DejaVuSans-70" d="M 1159 525 
L 1159 -1331 
L 581 -1331 
L 581 3500 
L 1159 3500 
L 1159 2969 
Q 1341 3281 1617 3432 
Q 1894 3584 2278 3584 
Q 2916 3584 3314 3078 
Q 3713 2572 3713 1747 
Q 3713 922 3314 415 
Q 2916 -91 2278 -91 
Q 1894 -91 1617 61 
Q 1341 213 1159 525 
z
M 3116 1747 
Q 3116 2381 2855 2742 
Q 2594 3103 2138 3103 
Q 1681 3103 1420 2742 
Q 1159 2381 1159 1747 
Q 1159 1113 1420 752 
Q 1681 391 2138 391 
Q 2594 391 2855 752 
Q 3116 1113 3116 1747 
z
" transform="scale(0.015625)"/>
        <path id="DejaVuSans-5f" d="M 3263 -1063 
L 3263 -1509 
L -63 -1509 
L -63 -1063 
L 3263 -1063 
z
" transform="scale(0.015625)"/>
        <path id="DejaVuSans-6d" d="M 3328 2828 
Q 3544 3216 3844 3400 
Q 4144 3584 4550 3584 
Q 5097 3584 5394 3201 
Q 5691 2819 5691 2113 
L 5691 0 
L 5113 0 
L 5113 2094 
Q 5113 2597 4934 2840 
Q 4756 3084 4391 3084 
Q 3944 3084 3684 2787 
Q 3425 2491 3425 1978 
L 3425 0 
L 2847 0 
L 2847 2094 
Q 2847 2600 2669 2842 
Q 2491 3084 2119 3084 
Q 1678 3084 1418 2786 
Q 1159 2488 1159 1978 
L 1159 0 
L 581 0 
L 581 3500 
L 1159 3500 
L 1159 2956 
Q 1356 3278 1631 3431 
Q 1906 3584 2284 3584 
Q 2666 3584 2933 3390 
Q 3200 3197 3328 2828 
z
" transform="scale(0.015625)"/>
        <path id="DejaVuSans-6c" d="M 603 4863 
L 1178 4863 
L 1178 0 
L 603 0 
L 603 4863 
z
" transform="scale(0.015625)"/>
        <path id="DejaVuSans-6b" d="M 581 4863 
L 1159 4863 
L 1159 1991 
L 2875 3500 
L 3609 3500 
L 1753 1863 
L 3688 0 
L 2938 0 
L 1159 1709 
L 1159 0 
L 581 0 
L 581 4863 
z
" transform="scale(0.015625)"/>
        <path id="DejaVuSans-65" d="M 3597 1894 
L 3597 1613 
L 953 1613 
Q 991 1019 1311 708 
Q 1631 397 2203 397 
Q 2534 397 2845 478 
Q 3156 559 3463 722 
L 3463 178 
Q 3153 47 2828 -22 
Q 2503 -91 2169 -91 
Q 1331 -91 842 396 
Q 353 884 353 1716 
Q 353 2575 817 3079 
Q 1281 3584 2069 3584 
Q 2775 3584 3186 3129 
Q 3597 2675 3597 1894 
z
M 3022 2063 
Q 3016 2534 2758 2815 
Q 2500 3097 2075 3097 
Q 1594 3097 1305 2825 
Q 1016 2553 972 2059 
L 3022 2063 
z
" transform="scale(0.015625)"/>
        <path id="DejaVuSans-37" d="M 525 4666 
L 3525 4666 
L 3525 4397 
L 1831 0 
L 1172 0 
L 2766 4134 
L 525 4134 
L 525 4666 
z
" transform="scale(0.015625)"/>
        <path id="DejaVuSans-36" d="M 2113 2584 
Q 1688 2584 1439 2293 
Q 1191 2003 1191 1497 
Q 1191 994 1439 701 
Q 1688 409 2113 409 
Q 2538 409 2786 701 
Q 3034 994 3034 1497 
Q 3034 2003 2786 2293 
Q 2538 2584 2113 2584 
z
M 3366 4563 
L 3366 3988 
Q 3128 4100 2886 4159 
Q 2644 4219 2406 4219 
Q 1781 4219 1451 3797 
Q 1122 3375 1075 2522 
Q 1259 2794 1537 2939 
Q 1816 3084 2150 3084 
Q 2853 3084 3261 2657 
Q 3669 2231 3669 1497 
Q 3669 778 3244 343 
Q 2819 -91 2113 -91 
Q 1303 -91 875 529 
Q 447 1150 447 2328 
Q 447 3434 972 4092 
Q 1497 4750 2381 4750 
Q 2619 4750 2861 4703 
Q 3103 4656 3366 4563 
z
" transform="scale(0.015625)"/>
       </defs>
       <use xlink:href="#DejaVuSans-70"/>
       <use xlink:href="#DejaVuSans-33" x="63.476562"/>
       <use xlink:href="#DejaVuSans-38" x="127.099609"/>
       <use xlink:href="#DejaVuSans-34" x="190.722656"/>
       <use xlink:href="#DejaVuSans-5f" x="254.345703"/>
       <use xlink:href="#DejaVuSans-6d" x="304.345703"/>
       <use xlink:href="#DejaVuSans-6c" x="401.757812"/>
       <use xlink:href="#DejaVuSans-6b" x="429.541016"/>
       <use xlink:href="#DejaVuSans-65" x="483.826172"/>
       <use xlink:href="#DejaVuSans-6d" x="545.349609"/>
       <use xlink:href="#DejaVuSans-37" x="642.761719"/>
       <use xlink:href="#DejaVuSans-36" x="706.384766"/>
       <use xlink:href="#DejaVuSans-38" x="770.007812"/>
      </g>
     </g>
    </g>
    <g id="xtick_4">
     <g id="text_4">
      <!-- x448_mlkem768 -->
      <g style="fill: #262626" transform="translate(555.169937 415.277812) scale(0.14 -0.14)">
       <use xlink:href="#DejaVuSans-78"/>
       <use xlink:href="#DejaVuSans-34" x="59.179688"/>
       <use xlink:href="#DejaVuSans-34" x="122.802734"/>
       <use xlink:href="#DejaVuSans-38" x="186.425781"/>
       <use xlink:href="#DejaVuSans-5f" x="250.048828"/>
       <use xlink:href="#DejaVuSans-6d" x="300.048828"/>
       <use xlink:href="#DejaVuSans-6c" x="397.460938"/>
       <use xlink:href="#DejaVuSans-6b" x="425.244141"/>
       <use xlink:href="#DejaVuSans-65" x="479.529297"/>
       <use xlink:href="#DejaVuSans-6d" x="541.052734"/>
       <use xlink:href="#DejaVuSans-37" x="638.464844"/>
       <use xlink:href="#DejaVuSans-36" x="702.087891"/>
       <use xlink:href="#DejaVuSans-38" x="765.710938"/>
      </g>
     </g>
    </g>
    <g id="xtick_5">
     <g id="text_5">
      <!-- mlkem768 -->
      <g style="fill: #262626" transform="translate(734.718312 415.277812) scale(0.14 -0.14)">
       <use xlink:href="#DejaVuSans-6d"/>
       <use xlink:href="#DejaVuSans-6c" x="97.412109"/>
       <use xlink:href="#DejaVuSans-6b" x="125.195312"/>
       <use xlink:href="#DejaVuSans-65" x="179.480469"/>
       <use xlink:href="#DejaVuSans-6d" x="241.003906"/>
       <use xlink:href="#DejaVuSans-37" x="338.416016"/>
       <use xlink:href="#DejaVuSans-36" x="402.039062"/>
       <use xlink:href="#DejaVuSans-38" x="465.662109"/>
      </g>
     </g>
    </g>
   </g>
   <g id="matplotlib.axis_2">
    <g id="ytick_1">
     <g id="line2d_1">
      <path d="M 58.32 390.345304 
L 851.04 390.345304 
" clip-path="url(#p417130fb0b)" style="fill: none; stroke: #cccccc; stroke-linecap: round"/>
     </g>
     <g id="text_6">
      <!-- 100 -->
      <g style="fill: #262626" transform="translate(27.82375 394.524444) scale(0.11 -0.11)">
       <defs>
        <path id="DejaVuSans-31" d="M 794 531 
L 1825 531 
L 1825 4091 
L 703 3866 
L 703 4441 
L 1819 4666 
L 2450 4666 
L 2450 531 
L 3481 531 
L 3481 0 
L 794 0 
L 794 531 
z
" transform="scale(0.015625)"/>
        <path id="DejaVuSans-30" d="M 2034 4250 
Q 1547 4250 1301 3770 
Q 1056 3291 1056 2328 
Q 1056 1369 1301 889 
Q 1547 409 2034 409 
Q 2525 409 2770 889 
Q 3016 1369 3016 2328 
Q 3016 3291 2770 3770 
Q 2525 4250 2034 4250 
z
M 2034 4750 
Q 2819 4750 3233 4129 
Q 3647 3509 3647 2328 
Q 3647 1150 3233 529 
Q 2819 -91 2034 -91 
Q 1250 -91 836 529 
Q 422 1150 422 2328 
Q 422 3509 836 4129 
Q 1250 4750 2034 4750 
z
" transform="scale(0.015625)"/>
       </defs>
       <use xlink:href="#DejaVuSans-31"/>
       <use xlink:href="#DejaVuSans-30" x="63.623047"/>
       <use xlink:href="#DejaVuSans-30" x="127.246094"/>
      </g>
     </g>
    </g>
    <g id="ytick_2">
     <g id="line2d_2">
      <path d="M 58.32 330.318871 
L 851.04 330.318871 
" clip-path="url(#p417130fb0b)" style="fill: none; stroke: #cccccc; stroke-linecap: round"/>
     </g>
     <g id="text_7">
      <!-- 200 -->
      <g style="fill: #262626" transform="translate(27.82375 334.498012) scale(0.11 -0.11)">
       <defs>
        <path id="DejaVuSans-32" d="M 1228 531 
L 3431 531 
L 3431 0 
L 469 0 
L 469 531 
Q 828 903 1448 1529 
Q 2069 2156 2228 2338 
Q 2531 2678 2651 2914 
Q 2772 3150 2772 3378 
Q 2772 3750 2511 3984 
Q 2250 4219 1831 4219 
Q 1534 4219 1204 4116 
Q 875 4013 500 3803 
L 500 4441 
Q 881 4594 1212 4672 
Q 1544 4750 1819 4750 
Q 2544 4750 2975 4387 
Q 3406 4025 3406 3419 
Q 3406 3131 3298 2873 
Q 3191 2616 2906 2266 
Q 2828 2175 2409 1742 
Q 1991 1309 1228 531 
z
" transform="scale(0.015625)"/>
       </defs>
       <use xlink:href="#DejaVuSans-32"/>
       <use xlink:href="#DejaVuSans-30" x="63.623047"/>
       <use xlink:href="#DejaVuSans-30" x="127.246094"/>
      </g>
     </g>
    </g>
    <g id="ytick_3">
     <g id="line2d_3">
      <path d="M 58.32 270.292439 
L 851.04 270.292439 
" clip-path="url(#p417130fb0b)" style="fill: none; stroke: #cccccc; stroke-linecap: round"/>
     </g>
     <g id="text_8">
      <!-- 300 -->
      <g style="fill: #262626" transform="translate(27.82375 274.471579) scale(0.11 -0.11)">
       <use xlink:href="#DejaVuSans-33"/>
       <use xlink:href="#DejaVuSans-30" x="63.623047"/>
       <use xlink:href="#DejaVuSans-30" x="127.246094"/>
      </g>
     </g>
    </g>
    <g id="ytick_4">
     <g id="line2d_4">
      <path d="M 58.32 210.266006 
L 851.04 210.266006 
" clip-path="url(#p417130fb0b)" style="fill: none; stroke: #cccccc; stroke-linecap: round"/>
     </g>
     <g id="text_9">
      <!-- 400 -->
      <g style="fill: #262626" transform="translate(27.82375 214.445147) scale(0.11 -0.11)">
       <use xlink:href="#DejaVuSans-34"/>
       <use xlink:href="#DejaVuSans-30" x="63.623047"/>
       <use xlink:href="#DejaVuSans-30" x="127.246094"/>
      </g>
     </g>
    </g>
    <g id="ytick_5">
     <g id="line2d_5">
      <path d="M 58.32 150.239573 
L 851.04 150.239573 
" clip-path="url(#p417130fb0b)" style="fill: none; stroke: #cccccc; stroke-linecap: round"/>
     </g>
     <g id="text_10">
      <!-- 500 -->
      <g style="fill: #262626" transform="translate(27.82375 154.418714) scale(0.11 -0.11)">
       <defs>
        <path id="DejaVuSans-35" d="M 691 4666 
L 3169 4666 
L 3169 4134 
L 1269 4134 
L 1269 2991 
Q 1406 3038 1543 3061 
Q 1681 3084 1819 3084 
Q 2600 3084 3056 2656 
Q 3513 2228 3513 1497 
Q 3513 744 3044 326 
Q 2575 -91 1722 -91 
Q 1428 -91 1123 -41 
Q 819 9 494 109 
L 494 744 
Q 775 591 1075 516 
Q 1375 441 1709 441 
Q 2250 441 2565 725 
Q 2881 1009 2881 1497 
Q 2881 1984 2565 2268 
Q 2250 2553 1709 2553 
Q 1456 2553 1204 2497 
Q 953 2441 691 2322 
L 691 4666 
z
" transform="scale(0.015625)"/>
       </defs>
       <use xlink:href="#DejaVuSans-35"/>
       <use xlink:href="#DejaVuSans-30" x="63.623047"/>
       <use xlink:href="#DejaVuSans-30" x="127.246094"/>
      </g>
     </g>
    </g>
    <g id="ytick_6">
     <g id="line2d_6">
      <path d="M 58.32 90.213141 
L 851.04 90.213141 
" clip-path="url(#p417130fb0b)" style="fill: none; stroke: #cccccc; stroke-linecap: round"/>
     </g>
     <g id="text_11">
      <!-- 600 -->
      <g style="fill: #262626" transform="translate(27.82375 94.392281) scale(0.11 -0.11)">
       <use xlink:href="#DejaVuSans-36"/>
       <use xlink:href="#DejaVuSans-30" x="63.623047"/>
       <use xlink:href="#DejaVuSans-30" x="127.246094"/>
      </g>
     </g>
    </g>
    <g id="ytick_7">
     <g id="line2d_7">
      <path d="M 58.32 30.186708 
L 851.04 30.186708 
" clip-path="url(#p417130fb0b)" style="fill: none; stroke: #cccccc; stroke-linecap: round"/>
     </g>
     <g id="text_12">
      <!-- 700 -->
      <g style="fill: #262626" transform="translate(27.82375 34.365849) scale(0.11 -0.11)">
       <use xlink:href="#DejaVuSans-37"/>
       <use xlink:href="#DejaVuSans-30" x="63.623047"/>
       <use xlink:href="#DejaVuSans-30" x="127.246094"/>
      </g>
     </g>
    </g>
    <g id="text_13">
     <!-- Handshake duration (ms) -->
     <g style="fill: #262626" transform="translate(21.328125 287.437813) rotate(-90) scale(0.12 -0.12)">
      <defs>
       <path id="DejaVuSans-48" d="M 628 4666 
L 1259 4666 
L 1259 2753 
L 3553 2753 
L 3553 4666 
L 4184 4666 
L 4184 0 
L 3553 0 
L 3553 2222 
L 1259 2222 
L 1259 0 
L 628 0 
L 628 4666 
z
" transform="scale(0.015625)"/>
       <path id="DejaVuSans-61" d="M 2194 1759 
Q 1497 1759 1228 1600 
Q 959 1441 959 1056 
Q 959 750 1161 570 
Q 1363 391 1709 391 
Q 2188 391 2477 730 
Q 2766 1069 2766 1631 
L 2766 1759 
L 2194 1759 
z
M 3341 1997 
L 3341 0 
L 2766 0 
L 2766 531 
Q 2569 213 2275 61 
Q 1981 -91 1556 -91 
Q 1019 -91 701 211 
Q 384 513 384 1019 
Q 384 1609 779 1909 
Q 1175 2209 1959 2209 
L 2766 2209 
L 2766 2266 
Q 2766 2663 2505 2880 
Q 2244 3097 1772 3097 
Q 1472 3097 1187 3025 
Q 903 2953 641 2809 
L 641 3341 
Q 956 3463 1253 3523 
Q 1550 3584 1831 3584 
Q 2591 3584 2966 3190 
Q 3341 2797 3341 1997 
z
" transform="scale(0.015625)"/>
       <path id="DejaVuSans-6e" d="M 3513 2113 
L 3513 0 
L 2938 0 
L 2938 2094 
Q 2938 2591 2744 2837 
Q 2550 3084 2163 3084 
Q 1697 3084 1428 2787 
Q 1159 2491 1159 1978 
L 1159 0 
L 581 0 
L 581 3500 
L 1159 3500 
L 1159 2956 
Q 1366 3272 1645 3428 
Q 1925 3584 2291 3584 
Q 2894 3584 3203 3211 
Q 3513 2838 3513 2113 
z
" transform="scale(0.015625)"/>
       <path id="DejaVuSans-64" d="M 2906 2969 
L 2906 4863 
L 3481 4863 
L 3481 0 
L 2906 0 
L 2906 525 
Q 2725 213 2448 61 
Q 2172 -91 1784 -91 
Q 1150 -91 751 415 
Q 353 922 353 1747 
Q 353 2572 751 3078 
Q 1150 3584 1784 3584 
Q 2172 3584 2448 3432 
Q 2725 3281 2906 2969 
z
M 947 1747 
Q 947 1113 1208 752 
Q 1469 391 1925 391 
Q 2381 391 2643 752 
Q 2906 1113 2906 1747 
Q 2906 2381 2643 2742 
Q 2381 3103 1925 3103 
Q 1469 3103 1208 2742 
Q 947 2381 947 1747 
z
" transform="scale(0.015625)"/>
       <path id="DejaVuSans-73" d="M 2834 3397 
L 2834 2853 
Q 2591 2978 2328 3040 
Q 2066 3103 1784 3103 
Q 1356 3103 1142 2972 
Q 928 2841 928 2578 
Q 928 2378 1081 2264 
Q 1234 2150 1697 2047 
L 1894 2003 
Q 2506 1872 2764 1633 
Q 3022 1394 3022 966 
Q 3022 478 2636 193 
Q 2250 -91 1575 -91 
Q 1294 -91 989 -36 
Q 684 19 347 128 
L 347 722 
Q 666 556 975 473 
Q 1284 391 1588 391 
Q 1994 391 2212 530 
Q 2431 669 2431 922 
Q 2431 1156 2273 1281 
Q 2116 1406 1581 1522 
L 1381 1569 
Q 847 1681 609 1914 
Q 372 2147 372 2553 
Q 372 3047 722 3315 
Q 1072 3584 1716 3584 
Q 2034 3584 2315 3537 
Q 2597 3491 2834 3397 
z
" transform="scale(0.015625)"/>
       <path id="DejaVuSans-68" d="M 3513 2113 
L 3513 0 
L 2938 0 
L 2938 2094 
Q 2938 2591 2744 2837 
Q 2550 3084 2163 3084 
Q 1697 3084 1428 2787 
Q 1159 2491 1159 1978 
L 1159 0 
L 581 0 
L 581 4863 
L 1159 4863 
L 1159 2956 
Q 1366 3272 1645 3428 
Q 1925 3584 2291 3584 
Q 2894 3584 3203 3211 
Q 3513 2838 3513 2113 
z
" transform="scale(0.015625)"/>
       <path id="DejaVuSans-20" transform="scale(0.015625)"/>
       <path id="DejaVuSans-75" d="M 544 1381 
L 544 3500 
L 1119 3500 
L 1119 1403 
Q 1119 906 1312 657 
Q 1506 409 1894 409 
Q 2359 409 2629 706 
Q 2900 1003 2900 1516 
L 2900 3500 
L 3475 3500 
L 3475 0 
L 2900 0 
L 2900 538 
Q 2691 219 2414 64 
Q 2138 -91 1772 -91 
Q 1169 -91 856 284 
Q 544 659 544 1381 
z
M 1991 3584 
L 1991 3584 
z
" transform="scale(0.015625)"/>
       <path id="DejaVuSans-72" d="M 2631 2963 
Q 2534 3019 2420 3045 
Q 2306 3072 2169 3072 
Q 1681 3072 1420 2755 
Q 1159 2438 1159 1844 
L 1159 0 
L 581 0 
L 581 3500 
L 1159 3500 
L 1159 2956 
Q 1341 3275 1631 3429 
Q 1922 3584 2338 3584 
Q 2397 3584 2469 3576 
Q 2541 3569 2628 3553 
L 2631 2963 
z
" transform="scale(0.015625)"/>
       <path id="DejaVuSans-74" d="M 1172 4494 
L 1172 3500 
L 2356 3500 
L 2356 3053 
L 1172 3053 
L 1172 1153 
Q 1172 725 1289 603 
Q 1406 481 1766 481 
L 2356 481 
L 2356 0 
L 1766 0 
Q 1100 0 847 248 
Q 594 497 594 1153 
L 594 3053 
L 172 3053 
L 172 3500 
L 594 3500 
L 594 4494 
L 1172 4494 
z
" transform="scale(0.015625)"/>
       <path id="DejaVuSans-69" d="M 603 3500 
L 1178 3500 
L 1178 0 
L 603 0 
L 603 3500 
z
M 603 4863 
L 1178 4863 
L 1178 4134 
L 603 4134 
L 603 4863 
z
" transform="scale(0.015625)"/>
       <path id="DejaVuSans-6f" d="M 1959 3097 
Q 1497 3097 1228 2736 
Q 959 2375 959 1747 
Q 959 1119 1226 758 
Q 1494 397 1959 397 
Q 2419 397 2687 759 
Q 2956 1122 2956 1747 
Q 2956 2369 2687 2733 
Q 2419 3097 1959 3097 
z
M 1959 3584 
Q 2709 3584 3137 3096 
Q 3566 2609 3566 1747 
Q 3566 888 3137 398 
Q 2709 -91 1959 -91 
Q 1206 -91 779 398 
Q 353 888 353 1747 
Q 353 2609 779 3096 
Q 1206 3584 1959 3584 
z
" transform="scale(0.015625)"/>
       <path id="DejaVuSans-28" d="M 1984 4856 
Q 1566 4138 1362 3434 
Q 1159 2731 1159 2009 
Q 1159 1288 1364 580 
Q 1569 -128 1984 -844 
L 1484 -844 
Q 1016 -109 783 600 
Q 550 1309 550 2009 
Q 550 2706 781 3412 
Q 1013 4119 1484 4856 
L 1984 4856 
z
" transform="scale(0.015625)"/>
       <path id="DejaVuSans-29" d="M 513 4856 
L 1013 4856 
Q 1481 4119 1714 3412 
Q 1947 2706 1947 2009 
Q 1947 1309 1714 600 
Q 1481 -109 1013 -844 
L 513 -844 
Q 928 -128 1133 580 
Q 1338 1288 1338 2009 
Q 1338 2731 1133 3434 
Q 928 4138 513 4856 
z
" transform="scale(0.015625)"/>
      </defs>
      <use xlink:href="#DejaVuSans-48"/>
      <use xlink:href="#DejaVuSans-61" x="75.195312"/>
      <use xlink:href="#DejaVuSans-6e" x="136.474609"/>
      <use xlink:href="#DejaVuSans-64" x="199.853516"/>
      <use xlink:href="#DejaVuSans-73" x="263.330078"/>
      <use xlink:href="#DejaVuSans-68" x="315.429688"/>
      <use xlink:href="#DejaVuSans-61" x="378.808594"/>
      <use xlink:href="#DejaVuSans-6b" x="440.087891"/>
      <use xlink:href="#DejaVuSans-65" x="494.373047"/>
      <use xlink:href="#DejaVuSans-20" x="555.896484"/>
      <use xlink:href="#DejaVuSans-64" x="587.683594"/>
      <use xlink:href="#DejaVuSans-75" x="651.160156"/>
      <use xlink:href="#DejaVuSans-72" x="714.539062"/>
      <use xlink:href="#DejaVuSans-61" x="755.652344"/>
      <use xlink:href="#DejaVuSans-74" x="816.931641"/>
      <use xlink:href="#DejaVuSans-69" x="856.140625"/>
      <use xlink:href="#DejaVuSans-6f" x="883.923828"/>
      <use xlink:href="#DejaVuSans-6e" x="945.105469"/>
      <use xlink:href="#DejaVuSans-20" x="1008.484375"/>
      <use xlink:href="#DejaVuSans-28" x="1040.271484"/>
      <use xlink:href="#DejaVuSans-6d" x="1079.285156"/>
      <use xlink:href="#DejaVuSans-73" x="1176.697266"/>
      <use xlink:href="#DejaVuSans-29" x="1228.796875"/>
     </g>
    </g>
   </g>
   <g id="PolyCollection_1">
    <defs>
     <path id="m49c3a3614a" d="M 139.106077 -54.141526 
L 136.077923 -54.141526 
L 134.91825 -56.30245 
L 133.124546 -58.463375 
L 130.510618 -60.6243 
L 126.911698 -62.785224 
L 122.217385 -64.946149 
L 116.405413 -67.107074 
L 109.575966 -69.267998 
L 101.987527 -71.428923 
L 94.089514 -73.589848 
L 86.534022 -75.750772 
L 80.137868 -77.911697 
L 75.77085 -80.072622 
L 74.1744 -82.233546 
L 75.756934 -84.394471 
L 80.442978 -86.555396 
L 87.647513 -88.71632 
L 96.400495 -90.877245 
L 105.581854 -93.03817 
L 114.18058 -95.199094 
L 121.488031 -97.360019 
L 127.173523 -99.520944 
L 131.244627 -101.681869 
L 133.935753 -103.842793 
L 135.580777 -106.003718 
L 136.511738 -108.164643 
L 137.000857 -110.325567 
L 137.242107 -112.486492 
L 137.358167 -114.647417 
L 137.418167 -116.808341 
L 137.456299 -118.969266 
L 137.486652 -121.130191 
L 137.513296 -123.291115 
L 137.53632 -125.45204 
L 137.554964 -127.612965 
L 137.568909 -129.773889 
L 137.578523 -131.934814 
L 137.584641 -134.095739 
L 137.588241 -136.256663 
L 137.590204 -138.417588 
L 137.591198 -140.578513 
L 137.591665 -142.739437 
L 137.591869 -144.900362 
L 137.591952 -147.061287 
L 137.591984 -149.222211 
L 137.591995 -151.383136 
L 137.591998 -153.544061 
L 137.592 -155.704985 
L 137.592 -157.86591 
L 137.592 -160.026835 
L 137.592 -162.187759 
L 137.592 -164.348684 
L 137.592 -166.509609 
L 137.592 -168.670533 
L 137.592 -170.831458 
L 137.592 -172.992383 
L 137.592 -175.153308 
L 137.592 -177.314232 
L 137.592 -179.475157 
L 137.592 -181.636082 
L 137.592 -183.797006 
L 137.592 -185.957931 
L 137.592 -188.118856 
L 137.592 -190.27978 
L 137.592 -192.440705 
L 137.592 -194.60163 
L 137.591999 -196.762554 
L 137.591998 -198.923479 
L 137.591993 -201.084404 
L 137.591975 -203.245328 
L 137.591921 -205.406253 
L 137.591766 -207.567178 
L 137.591346 -209.728102 
L 137.590286 -211.889027 
L 137.587791 -214.049952 
L 137.582305 -216.210876 
L 137.571045 -218.371801 
L 137.54948 -220.532726 
L 137.510969 -222.69365 
L 137.446873 -224.854575 
L 137.347555 -227.0155 
L 137.204478 -229.176424 
L 137.013282 -231.337349 
L 136.777106 -233.498274 
L 136.509016 -235.659198 
L 136.232266 -237.820123 
L 135.977638 -239.981048 
L 135.778067 -242.141972 
L 135.661799 -244.302897 
L 135.646014 -246.463822 
L 135.732842 -248.624747 
L 135.908942 -250.785671 
L 136.148755 -252.946596 
L 136.420374 -255.107521 
L 136.692264 -257.268445 
L 136.938973 -259.42937 
L 137.144473 -261.590295 
L 137.302697 -263.751219 
L 137.415755 -265.912144 
L 137.490908 -268.073069 
L 137.693092 -268.073069 
L 137.693092 -268.073069 
L 137.768245 -265.912144 
L 137.881303 -263.751219 
L 138.039527 -261.590295 
L 138.245027 -259.42937 
L 138.491736 -257.268445 
L 138.763626 -255.107521 
L 139.035245 -252.946596 
L 139.275058 -250.785671 
L 139.451158 -248.624747 
L 139.537986 -246.463822 
L 139.522201 -244.302897 
L 139.405933 -242.141972 
L 139.206362 -239.981048 
L 138.951734 -237.820123 
L 138.674984 -235.659198 
L 138.406894 -233.498274 
L 138.170718 -231.337349 
L 137.979522 -229.176424 
L 137.836445 -227.0155 
L 137.737127 -224.854575 
L 137.673031 -222.69365 
L 137.63452 -220.532726 
L 137.612955 -218.371801 
L 137.601695 -216.210876 
L 137.596209 -214.049952 
L 137.593714 -211.889027 
L 137.592654 -209.728102 
L 137.592234 -207.567178 
L 137.592079 -205.406253 
L 137.592025 -203.245328 
L 137.592007 -201.084404 
L 137.592002 -198.923479 
L 137.592001 -196.762554 
L 137.592 -194.60163 
L 137.592 -192.440705 
L 137.592 -190.27978 
L 137.592 -188.118856 
L 137.592 -185.957931 
L 137.592 -183.797006 
L 137.592 -181.636082 
L 137.592 -179.475157 
L 137.592 -177.314232 
L 137.592 -175.153308 
L 137.592 -172.992383 
L 137.592 -170.831458 
L 137.592 -168.670533 
L 137.592 -166.509609 
L 137.592 -164.348684 
L 137.592 -162.187759 
L 137.592 -160.026835 
L 137.592 -157.86591 
L 137.592 -155.704985 
L 137.592002 -153.544061 
L 137.592005 -151.383136 
L 137.592016 -149.222211 
L 137.592048 -147.061287 
L 137.592131 -144.900362 
L 137.592335 -142.739437 
L 137.592802 -140.578513 
L 137.593796 -138.417588 
L 137.595759 -136.256663 
L 137.599359 -134.095739 
L 137.605477 -131.934814 
L 137.615091 -129.773889 
L 137.629036 -127.612965 
L 137.64768 -125.45204 
L 137.670704 -123.291115 
L 137.697348 -121.130191 
L 137.727701 -118.969266 
L 137.765833 -116.808341 
L 137.825833 -114.647417 
L 137.941893 -112.486492 
L 138.183143 -110.325567 
L 138.672262 -108.164643 
L 139.603223 -106.003718 
L 141.248247 -103.842793 
L 143.939373 -101.681869 
L 148.010477 -99.520944 
L 153.695969 -97.360019 
L 161.00342 -95.199094 
L 169.602146 -93.03817 
L 178.783505 -90.877245 
L 187.536487 -88.71632 
L 194.741022 -86.555396 
L 199.427066 -84.394471 
L 201.0096 -82.233546 
L 199.41315 -80.072622 
L 195.046132 -77.911697 
L 188.649978 -75.750772 
L 181.094486 -73.589848 
L 173.196473 -71.428923 
L 165.608034 -69.267998 
L 158.778587 -67.107074 
L 152.966615 -64.946149 
L 148.272302 -62.785224 
L 144.673382 -60.6243 
L 142.059454 -58.463375 
L 140.26575 -56.30245 
L 139.106077 -54.141526 
z
" style="stroke: #595959; stroke-width: 1.25"/>
    </defs>
    <g clip-path="url(#p417130fb0b)">
     <use xlink:href="#m49c3a3614a" x="0" y="432" style="fill: #72b6a1; stroke: #595959; stroke-width: 1.25"/>
    </g>
   </g>
   <g id="PolyCollection_2">
    <defs>
     <path id="m571fb21ec6" d="M 296.955603 -55.944742 
L 295.316397 -55.944742 
L 294.272801 -57.987687 
L 292.236157 -60.030632 
L 288.626271 -62.073577 
L 282.847463 -64.116522 
L 274.559791 -66.159467 
L 264.041828 -68.202412 
L 252.471723 -70.245357 
L 241.88629 -72.288302 
L 234.673158 -74.331247 
L 232.7184 -76.374192 
L 236.61139 -78.417137 
L 245.361086 -80.460082 
L 256.807449 -82.503027 
L 268.493938 -84.545972 
L 278.516861 -86.588917 
L 285.956132 -88.631862 
L 290.806678 -90.674807 
L 293.608809 -92.717752 
L 295.050677 -94.760697 
L 295.713718 -96.803642 
L 295.986451 -98.846587 
L 296.085951 -100.889532 
L 296.115944 -102.932477 
L 296.118921 -104.975422 
L 296.109476 -107.018367 
L 296.091818 -109.061312 
L 296.067973 -111.104257 
L 296.041241 -113.147202 
L 296.016906 -115.190147 
L 296.000997 -117.233092 
L 295.997975 -119.276037 
L 296.008728 -121.318982 
L 296.030156 -123.361927 
L 296.056611 -125.404872 
L 296.082295 -127.447817 
L 296.103234 -129.490762 
L 296.11797 -131.533707 
L 296.127052 -133.576652 
L 296.131995 -135.619597 
L 296.134383 -137.662542 
L 296.135411 -139.705487 
L 296.135807 -141.748432 
L 296.135943 -143.791377 
L 296.135985 -145.834322 
L 296.135996 -147.877267 
L 296.135999 -149.920212 
L 296.136 -151.963157 
L 296.136 -154.006102 
L 296.136 -156.049047 
L 296.136 -158.091992 
L 296.136 -160.134937 
L 296.136 -162.177882 
L 296.136 -164.220827 
L 296.136 -166.263772 
L 296.136 -168.306717 
L 296.136 -170.349662 
L 296.136 -172.392607 
L 296.136 -174.435552 
L 296.136 -176.478497 
L 296.136 -178.521442 
L 296.136 -180.564387 
L 296.136 -182.607332 
L 296.136 -184.650277 
L 296.136 -186.693222 
L 296.136 -188.736167 
L 296.136 -190.779112 
L 296.136 -192.822057 
L 296.136 -194.865002 
L 296.136 -196.907947 
L 296.136 -198.950892 
L 296.136 -200.993837 
L 296.136 -203.036782 
L 296.136 -205.079727 
L 296.135999 -207.122672 
L 296.135994 -209.165617 
L 296.135974 -211.208562 
L 296.135895 -213.251507 
L 296.135615 -215.294452 
L 296.134716 -217.337397 
L 296.13213 -219.380342 
L 296.125444 -221.423287 
L 296.109938 -223.466232 
L 296.077744 -225.509177 
L 296.018072 -227.552122 
L 295.919729 -229.595067 
L 295.776542 -231.638012 
L 295.5943 -233.680957 
L 295.395465 -235.723902 
L 295.217136 -237.766847 
L 295.100517 -239.809792 
L 295.075495 -241.852737 
L 295.148191 -243.895682 
L 295.298573 -245.938627 
L 295.489368 -247.981572 
L 295.680894 -250.024517 
L 295.843862 -252.067462 
L 295.964877 -254.110407 
L 296.044499 -256.153352 
L 296.09133 -258.196297 
L 296.18067 -258.196297 
L 296.18067 -258.196297 
L 296.227501 -256.153352 
L 296.307123 -254.110407 
L 296.428138 -252.067462 
L 296.591106 -250.024517 
L 296.782632 -247.981572 
L 296.973427 -245.938627 
L 297.123809 -243.895682 
L 297.196505 -241.852737 
L 297.171483 -239.809792 
L 297.054864 -237.766847 
L 296.876535 -235.723902 
L 296.6777 -233.680957 
L 296.495458 -231.638012 
L 296.352271 -229.595067 
L 296.253928 -227.552122 
L 296.194256 -225.509177 
L 296.162062 -223.466232 
L 296.146556 -221.423287 
L 296.13987 -219.380342 
L 296.137284 -217.337397 
L 296.136385 -215.294452 
L 296.136105 -213.251507 
L 296.136026 -211.208562 
L 296.136006 -209.165617 
L 296.136001 -207.122672 
L 296.136 -205.079727 
L 296.136 -203.036782 
L 296.136 -200.993837 
L 296.136 -198.950892 
L 296.136 -196.907947 
L 296.136 -194.865002 
L 296.136 -192.822057 
L 296.136 -190.779112 
L 296.136 -188.736167 
L 296.136 -186.693222 
L 296.136 -184.650277 
L 296.136 -182.607332 
L 296.136 -180.564387 
L 296.136 -178.521442 
L 296.136 -176.478497 
L 296.136 -174.435552 
L 296.136 -172.392607 
L 296.136 -170.349662 
L 296.136 -168.306717 
L 296.136 -166.263772 
L 296.136 -164.220827 
L 296.136 -162.177882 
L 296.136 -160.134937 
L 296.136 -158.091992 
L 296.136 -156.049047 
L 296.136 -154.006102 
L 296.136 -151.963157 
L 296.136001 -149.920212 
L 296.136004 -147.877267 
L 296.136015 -145.834322 
L 296.136057 -143.791377 
L 296.136193 -141.748432 
L 296.136589 -139.705487 
L 296.137617 -137.662542 
L 296.140005 -135.619597 
L 296.144948 -133.576652 
L 296.15403 -131.533707 
L 296.168766 -129.490762 
L 296.189705 -127.447817 
L 296.215389 -125.404872 
L 296.241844 -123.361927 
L 296.263272 -121.318982 
L 296.274025 -119.276037 
L 296.271003 -117.233092 
L 296.255094 -115.190147 
L 296.230759 -113.147202 
L 296.204027 -111.104257 
L 296.180182 -109.061312 
L 296.162524 -107.018367 
L 296.153079 -104.975422 
L 296.156056 -102.932477 
L 296.186049 -100.889532 
L 296.285549 -98.846587 
L 296.558282 -96.803642 
L 297.221323 -94.760697 
L 298.663191 -92.717752 
L 301.465322 -90.674807 
L 306.315868 -88.631862 
L 313.755139 -86.588917 
L 323.778062 -84.545972 
L 335.464551 -82.503027 
L 346.910914 -80.460082 
L 355.66061 -78.417137 
L 359.5536 -76.374192 
L 357.598842 -74.331247 
L 350.38571 -72.288302 
L 339.800277 -70.245357 
L 328.230172 -68.202412 
L 317.712209 -66.159467 
L 309.424537 -64.116522 
L 303.645729 -62.073577 
L 300.035843 -60.030632 
L 297.999199 -57.987687 
L 296.955603 -55.944742 
z
" style="stroke: #595959; stroke-width: 1.25"/>
    </defs>
    <g clip-path="url(#p417130fb0b)">
     <use xlink:href="#m571fb21ec6" x="0" y="432" style="fill: #e99675; stroke: #595959; stroke-width: 1.25"/>
    </g>
   </g>
   <g id="PolyCollection_3">
    <defs>
     <path id="m80bbb5dee8" d="M 454.992916 -63.328839 
L 454.367084 -63.328839 
L 453.732555 -66.23548 
L 452.337745 -69.142122 
L 449.856766 -72.048763 
L 446.155419 -74.955405 
L 441.18615 -77.862047 
L 434.560705 -80.768688 
L 425.384689 -83.67533 
L 413.241254 -86.581971 
L 400.153027 -89.488613 
L 391.2624 -92.395255 
L 391.937837 -95.301896 
L 403.093823 -98.208538 
L 419.885931 -101.115179 
L 435.559498 -104.021821 
L 446.147081 -106.928463 
L 451.590285 -109.835104 
L 453.77121 -112.741746 
L 454.46165 -115.648387 
L 454.634192 -118.555029 
L 454.661714 -121.461671 
L 454.646862 -124.368312 
L 454.608992 -127.274954 
L 454.558397 -130.181595 
L 454.517511 -133.088237 
L 454.510792 -135.994878 
L 454.542689 -138.90152 
L 454.593169 -141.808162 
L 454.637211 -144.714803 
L 454.663568 -147.621445 
L 454.675083 -150.528086 
L 454.678853 -153.434728 
L 454.679792 -156.34137 
L 454.67997 -159.248011 
L 454.679997 -162.154653 
L 454.68 -165.061294 
L 454.68 -167.967936 
L 454.68 -170.874578 
L 454.68 -173.781219 
L 454.68 -176.687861 
L 454.68 -179.594502 
L 454.68 -182.501144 
L 454.68 -185.407785 
L 454.679998 -188.314427 
L 454.679979 -191.221069 
L 454.679839 -194.12771 
L 454.679041 -197.034352 
L 454.675489 -199.940993 
L 454.663238 -202.847635 
L 454.630552 -205.754277 
L 454.563501 -208.660918 
L 454.459104 -211.56756 
L 454.339834 -214.474201 
L 454.250476 -217.380843 
L 454.23166 -220.287485 
L 454.291466 -223.194126 
L 454.400765 -226.100768 
L 454.514618 -229.007409 
L 454.600047 -231.914051 
L 454.648774 -234.820692 
L 454.67024 -237.727334 
L 454.677577 -240.633976 
L 454.679525 -243.540617 
L 454.679927 -246.447259 
L 454.679991 -249.3539 
L 454.679999 -252.260542 
L 454.68 -255.167184 
L 454.68 -258.073825 
L 454.68 -260.980467 
L 454.68 -263.887108 
L 454.68 -266.79375 
L 454.68 -269.700392 
L 454.68 -272.607033 
L 454.68 -275.513675 
L 454.68 -278.420316 
L 454.68 -281.326958 
L 454.68 -284.2336 
L 454.68 -287.140241 
L 454.68 -290.046883 
L 454.68 -292.953524 
L 454.68 -295.860166 
L 454.68 -298.766807 
L 454.68 -301.673449 
L 454.68 -304.580091 
L 454.68 -307.486732 
L 454.679995 -310.393374 
L 454.679953 -313.300015 
L 454.679669 -316.206657 
L 454.678176 -319.113299 
L 454.672105 -322.01994 
L 454.653172 -324.926582 
L 454.608371 -327.833223 
L 454.529651 -330.739865 
L 454.43176 -333.646507 
L 454.357469 -336.553148 
L 454.350166 -339.45979 
L 454.41451 -342.366431 
L 454.511828 -345.273073 
L 454.596198 -348.179714 
L 454.647166 -351.086356 
L 454.712834 -351.086356 
L 454.712834 -351.086356 
L 454.763802 -348.179714 
L 454.848172 -345.273073 
L 454.94549 -342.366431 
L 455.009834 -339.45979 
L 455.002531 -336.553148 
L 454.92824 -333.646507 
L 454.830349 -330.739865 
L 454.751629 -327.833223 
L 454.706828 -324.926582 
L 454.687895 -322.01994 
L 454.681824 -319.113299 
L 454.680331 -316.206657 
L 454.680047 -313.300015 
L 454.680005 -310.393374 
L 454.68 -307.486732 
L 454.68 -304.580091 
L 454.68 -301.673449 
L 454.68 -298.766807 
L 454.68 -295.860166 
L 454.68 -292.953524 
L 454.68 -290.046883 
L 454.68 -287.140241 
L 454.68 -284.2336 
L 454.68 -281.326958 
L 454.68 -278.420316 
L 454.68 -275.513675 
L 454.68 -272.607033 
L 454.68 -269.700392 
L 454.68 -266.79375 
L 454.68 -263.887108 
L 454.68 -260.980467 
L 454.68 -258.073825 
L 454.68 -255.167184 
L 454.680001 -252.260542 
L 454.680009 -249.3539 
L 454.680073 -246.447259 
L 454.680475 -243.540617 
L 454.682423 -240.633976 
L 454.68976 -237.727334 
L 454.711226 -234.820692 
L 454.759953 -231.914051 
L 454.845382 -229.007409 
L 454.959235 -226.100768 
L 455.068534 -223.194126 
L 455.12834 -220.287485 
L 455.109524 -217.380843 
L 455.020166 -214.474201 
L 454.900896 -211.56756 
L 454.796499 -208.660918 
L 454.729448 -205.754277 
L 454.696762 -202.847635 
L 454.684511 -199.940993 
L 454.680959 -197.034352 
L 454.680161 -194.12771 
L 454.680021 -191.221069 
L 454.680002 -188.314427 
L 454.68 -185.407785 
L 454.68 -182.501144 
L 454.68 -179.594502 
L 454.68 -176.687861 
L 454.68 -173.781219 
L 454.68 -170.874578 
L 454.68 -167.967936 
L 454.68 -165.061294 
L 454.680003 -162.154653 
L 454.68003 -159.248011 
L 454.680208 -156.34137 
L 454.681147 -153.434728 
L 454.684917 -150.528086 
L 454.696432 -147.621445 
L 454.722789 -144.714803 
L 454.766831 -141.808162 
L 454.817311 -138.90152 
L 454.849208 -135.994878 
L 454.842489 -133.088237 
L 454.801603 -130.181595 
L 454.751008 -127.274954 
L 454.713138 -124.368312 
L 454.698286 -121.461671 
L 454.725808 -118.555029 
L 454.89835 -115.648387 
L 455.58879 -112.741746 
L 457.769715 -109.835104 
L 463.212919 -106.928463 
L 473.800502 -104.021821 
L 489.474069 -101.115179 
L 506.266177 -98.208538 
L 517.422163 -95.301896 
L 518.0976 -92.395255 
L 509.206973 -89.488613 
L 496.118746 -86.581971 
L 483.975311 -83.67533 
L 474.799295 -80.768688 
L 468.17385 -77.862047 
L 463.204581 -74.955405 
L 459.503234 -72.048763 
L 457.022255 -69.142122 
L 455.627445 -66.23548 
L 454.992916 -63.328839 
z
" style="stroke: #595959; stroke-width: 1.25"/>
    </defs>
    <g clip-path="url(#p417130fb0b)">
     <use xlink:href="#m80bbb5dee8" x="0" y="432" style="fill: #95a3c3; stroke: #595959; stroke-width: 1.25"/>
    </g>
   </g>
   <g id="PolyCollection_4">
    <defs>
     <path id="m742280c31a" d="M 613.681576 -55.594273 
L 612.766424 -55.594273 
L 611.549144 -58.948812 
L 608.135278 -62.303351 
L 600.481543 -65.65789 
L 587.117387 -69.012429 
L 569.748164 -72.366968 
L 554.695982 -75.721507 
L 549.8064 -79.076046 
L 558.100206 -82.430585 
L 574.882456 -85.785124 
L 591.922615 -89.139663 
L 603.783708 -92.494202 
L 609.889535 -95.848741 
L 612.285059 -99.20328 
L 613.010052 -102.557819 
L 613.174118 -105.912358 
L 613.186925 -109.266897 
L 613.159046 -112.621436 
L 613.120618 -115.975975 
L 613.092537 -119.330514 
L 613.09148 -122.685053 
L 613.118149 -126.039592 
L 613.157007 -129.394131 
L 613.190404 -132.74867 
L 613.210651 -136.103209 
L 613.219797 -139.457748 
L 613.222951 -142.812287 
L 613.223793 -146.166826 
L 613.223968 -149.521365 
L 613.223996 -152.875904 
L 613.224 -156.230443 
L 613.224 -159.584982 
L 613.224 -162.939521 
L 613.224 -166.29406 
L 613.224 -169.648599 
L 613.223997 -173.003139 
L 613.223971 -176.357678 
L 613.22379 -179.712217 
L 613.22278 -183.066756 
L 613.218389 -186.421295 
L 613.203539 -189.775834 
L 613.16484 -193.130373 
L 613.088354 -196.484912 
L 612.977361 -199.839451 
L 612.868367 -203.19399 
L 612.817339 -206.548529 
L 612.855226 -209.903068 
L 612.958788 -213.257607 
L 613.072736 -216.612146 
L 613.155579 -219.966685 
L 613.199455 -223.321224 
L 613.217017 -226.675763 
L 613.222424 -230.030302 
L 613.223718 -233.384841 
L 613.22396 -236.73938 
L 613.223995 -240.093919 
L 613.224 -243.448458 
L 613.224 -246.802997 
L 613.224 -250.157536 
L 613.224 -253.512075 
L 613.224 -256.866614 
L 613.224 -260.221153 
L 613.224 -263.575692 
L 613.224 -266.930231 
L 613.224 -270.28477 
L 613.224 -273.639309 
L 613.224 -276.993848 
L 613.224 -280.348387 
L 613.224 -283.702926 
L 613.224 -287.057465 
L 613.224 -290.412005 
L 613.223998 -293.766544 
L 613.223984 -297.121083 
L 613.223886 -300.475622 
L 613.223348 -303.830161 
L 613.221033 -307.1847 
L 613.213205 -310.539239 
L 613.192533 -313.893778 
L 613.150376 -317.248317 
L 613.085491 -320.602856 
L 613.014157 -323.957395 
L 612.967691 -327.311934 
L 612.971454 -330.666473 
L 613.023274 -334.021012 
L 613.095393 -337.375551 
L 613.157654 -340.73009 
L 613.196473 -344.084629 
L 613.214741 -347.439168 
L 613.220986 -350.793707 
L 613.220962 -354.148246 
L 613.215156 -357.502785 
L 613.199866 -360.857324 
L 613.171341 -364.211863 
L 613.132916 -367.566402 
L 613.099164 -370.920941 
L 613.088431 -374.27548 
L 613.107346 -377.630019 
L 613.144465 -380.984558 
L 613.181032 -384.339097 
L 613.205607 -387.693636 
L 613.242393 -387.693636 
L 613.242393 -387.693636 
L 613.266968 -384.339097 
L 613.303535 -380.984558 
L 613.340654 -377.630019 
L 613.359569 -374.27548 
L 613.348836 -370.920941 
L 613.315084 -367.566402 
L 613.276659 -364.211863 
L 613.248134 -360.857324 
L 613.232844 -357.502785 
L 613.227038 -354.148246 
L 613.227014 -350.793707 
L 613.233259 -347.439168 
L 613.251527 -344.084629 
L 613.290346 -340.73009 
L 613.352607 -337.375551 
L 613.424726 -334.021012 
L 613.476546 -330.666473 
L 613.480309 -327.311934 
L 613.433843 -323.957395 
L 613.362509 -320.602856 
L 613.297624 -317.248317 
L 613.255467 -313.893778 
L 613.234795 -310.539239 
L 613.226967 -307.1847 
L 613.224652 -303.830161 
L 613.224114 -300.475622 
L 613.224016 -297.121083 
L 613.224002 -293.766544 
L 613.224 -290.412005 
L 613.224 -287.057465 
L 613.224 -283.702926 
L 613.224 -280.348387 
L 613.224 -276.993848 
L 613.224 -273.639309 
L 613.224 -270.28477 
L 613.224 -266.930231 
L 613.224 -263.575692 
L 613.224 -260.221153 
L 613.224 -256.866614 
L 613.224 -253.512075 
L 613.224 -250.157536 
L 613.224 -246.802997 
L 613.224 -243.448458 
L 613.224005 -240.093919 
L 613.22404 -236.73938 
L 613.224282 -233.384841 
L 613.225576 -230.030302 
L 613.230983 -226.675763 
L 613.248545 -223.321224 
L 613.292421 -219.966685 
L 613.375264 -216.612146 
L 613.489212 -213.257607 
L 613.592774 -209.903068 
L 613.630661 -206.548529 
L 613.579633 -203.19399 
L 613.470639 -199.839451 
L 613.359646 -196.484912 
L 613.28316 -193.130373 
L 613.244461 -189.775834 
L 613.229611 -186.421295 
L 613.22522 -183.066756 
L 613.22421 -179.712217 
L 613.224029 -176.357678 
L 613.224003 -173.003139 
L 613.224 -169.648599 
L 613.224 -166.29406 
L 613.224 -162.939521 
L 613.224 -159.584982 
L 613.224 -156.230443 
L 613.224004 -152.875904 
L 613.224032 -149.521365 
L 613.224207 -146.166826 
L 613.225049 -142.812287 
L 613.228203 -139.457748 
L 613.237349 -136.103209 
L 613.257596 -132.74867 
L 613.290993 -129.394131 
L 613.329851 -126.039592 
L 613.35652 -122.685053 
L 613.355463 -119.330514 
L 613.327382 -115.975975 
L 613.288954 -112.621436 
L 613.261075 -109.266897 
L 613.273882 -105.912358 
L 613.437948 -102.557819 
L 614.162941 -99.20328 
L 616.558465 -95.848741 
L 622.664292 -92.494202 
L 634.525385 -89.139663 
L 651.565544 -85.785124 
L 668.347794 -82.430585 
L 676.6416 -79.076046 
L 671.752018 -75.721507 
L 656.699836 -72.366968 
L 639.330613 -69.012429 
L 625.966457 -65.65789 
L 618.312722 -62.303351 
L 614.898856 -58.948812 
L 613.681576 -55.594273 
z
" style="stroke: #595959; stroke-width: 1.25"/>
    </defs>
    <g clip-path="url(#p417130fb0b)">
     <use xlink:href="#m742280c31a" x="0" y="432" style="fill: #db96c0; stroke: #595959; stroke-width: 1.25"/>
    </g>
   </g>
   <g id="PolyCollection_5">
    <defs>
     <path id="mcffd1cff98" d="M 772.930764 -53.566364 
L 770.605236 -53.566364 
L 768.233048 -56.893477 
L 762.770576 -60.22059 
L 752.628331 -63.547703 
L 737.792116 -66.874816 
L 721.503205 -70.201929 
L 709.8608 -73.529042 
L 708.3504 -76.856156 
L 717.773945 -80.183269 
L 733.583715 -83.510382 
L 749.348922 -86.837495 
L 760.842485 -90.164608 
L 767.344389 -93.491721 
L 770.26584 -96.818834 
L 771.310196 -100.145947 
L 771.592943 -103.473061 
L 771.635124 -106.800174 
L 771.629324 -110.127287 
L 771.634622 -113.4544 
L 771.660159 -116.781513 
L 771.695684 -120.108626 
L 771.727854 -123.435739 
L 771.749554 -126.762853 
L 771.760985 -130.089966 
L 771.765792 -133.417079 
L 771.767425 -136.744192 
L 771.767876 -140.071305 
L 771.767978 -143.398418 
L 771.767997 -146.725531 
L 771.768 -150.052644 
L 771.768 -153.379758 
L 771.768 -156.706871 
L 771.768 -160.033984 
L 771.768 -163.361097 
L 771.767998 -166.68821 
L 771.767985 -170.015323 
L 771.767896 -173.342436 
L 771.767419 -176.669549 
L 771.7653 -179.996663 
L 771.757549 -183.323776 
L 771.734322 -186.650889 
L 771.677631 -189.978002 
L 771.566034 -193.305115 
L 771.391989 -196.632228 
L 771.184778 -199.959341 
L 771.01429 -203.286455 
L 770.956461 -206.613568 
L 771.040016 -209.940681 
L 771.224013 -213.267794 
L 771.429444 -216.594907 
L 771.59255 -219.92202 
L 771.69231 -223.249133 
L 771.740825 -226.576246 
L 771.759883 -229.90336 
L 771.765984 -233.230473 
L 771.767584 -236.557586 
L 771.767929 -239.884699 
L 771.76799 -243.211812 
L 771.767999 -246.538925 
L 771.768 -249.866038 
L 771.768 -253.193152 
L 771.768 -256.520265 
L 771.768 -259.847378 
L 771.768 -263.174491 
L 771.768 -266.501604 
L 771.768 -269.828717 
L 771.768 -273.15583 
L 771.768 -276.482943 
L 771.768 -279.810057 
L 771.768 -283.13717 
L 771.768 -286.464283 
L 771.767997 -289.791396 
L 771.767982 -293.118509 
L 771.767898 -296.445622 
L 771.767508 -299.772735 
L 771.766031 -303.099848 
L 771.761435 -306.426962 
L 771.749711 -309.754075 
L 771.725272 -313.081188 
L 771.683921 -316.408301 
L 771.627952 -319.735414 
L 771.569538 -323.062527 
L 771.527665 -326.38964 
L 771.518579 -329.716754 
L 771.54603 -333.043867 
L 771.598893 -336.37098 
L 771.658007 -339.698093 
L 771.706698 -343.025206 
L 771.736981 -346.352319 
L 771.74827 -349.679432 
L 771.742361 -353.006545 
L 771.720915 -356.333659 
L 771.687949 -359.660772 
L 771.653558 -362.987885 
L 771.632308 -366.314998 
L 771.634809 -369.642111 
L 771.659795 -372.969224 
L 771.695246 -376.296337 
L 771.727514 -379.623451 
L 771.749354 -382.950564 
L 771.786646 -382.950564 
L 771.786646 -382.950564 
L 771.808486 -379.623451 
L 771.840754 -376.296337 
L 771.876205 -372.969224 
L 771.901191 -369.642111 
L 771.903692 -366.314998 
L 771.882442 -362.987885 
L 771.848051 -359.660772 
L 771.815085 -356.333659 
L 771.793639 -353.006545 
L 771.78773 -349.679432 
L 771.799019 -346.352319 
L 771.829302 -343.025206 
L 771.877993 -339.698093 
L 771.937107 -336.37098 
L 771.98997 -333.043867 
L 772.017421 -329.716754 
L 772.008335 -326.38964 
L 771.966462 -323.062527 
L 771.908048 -319.735414 
L 771.852079 -316.408301 
L 771.810728 -313.081188 
L 771.786289 -309.754075 
L 771.774565 -306.426962 
L 771.769969 -303.099848 
L 771.768492 -299.772735 
L 771.768102 -296.445622 
L 771.768018 -293.118509 
L 771.768003 -289.791396 
L 771.768 -286.464283 
L 771.768 -283.13717 
L 771.768 -279.810057 
L 771.768 -276.482943 
L 771.768 -273.15583 
L 771.768 -269.828717 
L 771.768 -266.501604 
L 771.768 -263.174491 
L 771.768 -259.847378 
L 771.768 -256.520265 
L 771.768 -253.193152 
L 771.768 -249.866038 
L 771.768001 -246.538925 
L 771.76801 -243.211812 
L 771.768071 -239.884699 
L 771.768416 -236.557586 
L 771.770016 -233.230473 
L 771.776117 -229.90336 
L 771.795175 -226.576246 
L 771.84369 -223.249133 
L 771.94345 -219.92202 
L 772.106556 -216.594907 
L 772.311987 -213.267794 
L 772.495984 -209.940681 
L 772.579539 -206.613568 
L 772.52171 -203.286455 
L 772.351222 -199.959341 
L 772.144011 -196.632228 
L 771.969966 -193.305115 
L 771.858369 -189.978002 
L 771.801678 -186.650889 
L 771.778451 -183.323776 
L 771.7707 -179.996663 
L 771.768581 -176.669549 
L 771.768104 -173.342436 
L 771.768015 -170.015323 
L 771.768002 -166.68821 
L 771.768 -163.361097 
L 771.768 -160.033984 
L 771.768 -156.706871 
L 771.768 -153.379758 
L 771.768 -150.052644 
L 771.768003 -146.725531 
L 771.768022 -143.398418 
L 771.768124 -140.071305 
L 771.768575 -136.744192 
L 771.770208 -133.417079 
L 771.775015 -130.089966 
L 771.786446 -126.762853 
L 771.808146 -123.435739 
L 771.840316 -120.108626 
L 771.875841 -116.781513 
L 771.901378 -113.4544 
L 771.906676 -110.127287 
L 771.900876 -106.800174 
L 771.943057 -103.473061 
L 772.225804 -100.145947 
L 773.27016 -96.818834 
L 776.191611 -93.491721 
L 782.693515 -90.164608 
L 794.187078 -86.837495 
L 809.952285 -83.510382 
L 825.762055 -80.183269 
L 835.1856 -76.856156 
L 833.6752 -73.529042 
L 822.032795 -70.201929 
L 805.743884 -66.874816 
L 790.907669 -63.547703 
L 780.765424 -60.22059 
L 775.302952 -56.893477 
L 772.930764 -53.566364 
z
" style="stroke: #595959; stroke-width: 1.25"/>
    </defs>
    <g clip-path="url(#p417130fb0b)">
     <use xlink:href="#mcffd1cff98" x="0" y="432" style="fill: #a2c865; stroke: #595959; stroke-width: 1.25"/>
    </g>
   </g>
   <g id="line2d_8">
    <path d="M 137.592 352.780762 
L 137.592 360.872325 
" clip-path="url(#p417130fb0b)" style="fill: none; stroke: #000000"/>
   </g>
   <g id="line2d_9">
    <path d="M 137.592 347.228317 
L 137.592 343.428644 
" clip-path="url(#p417130fb0b)" style="fill: none; stroke: #000000"/>
   </g>
   <g id="line2d_10">
    <path d="M 131.6466 360.872325 
L 143.5374 360.872325 
" clip-path="url(#p417130fb0b)" style="fill: none; stroke: #000000; stroke-linecap: round"/>
   </g>
   <g id="line2d_11">
    <path d="M 131.6466 343.428644 
L 143.5374 343.428644 
" clip-path="url(#p417130fb0b)" style="fill: none; stroke: #000000; stroke-linecap: round"/>
   </g>
   <g id="line2d_12">
    <path d="M 296.136 356.628457 
L 296.136 359.527733 
" clip-path="url(#p417130fb0b)" style="fill: none; stroke: #000000"/>
   </g>
   <g id="line2d_13">
    <path d="M 296.136 354.695605 
L 296.136 351.922384 
" clip-path="url(#p417130fb0b)" style="fill: none; stroke: #000000"/>
   </g>
   <g id="line2d_14">
    <path d="M 290.1906 359.527733 
L 302.0814 359.527733 
" clip-path="url(#p417130fb0b)" style="fill: none; stroke: #000000; stroke-linecap: round"/>
   </g>
   <g id="line2d_15">
    <path d="M 290.1906 351.922384 
L 302.0814 351.922384 
" clip-path="url(#p417130fb0b)" style="fill: none; stroke: #000000; stroke-linecap: round"/>
   </g>
   <g id="line2d_16">
    <path d="M 454.68 341.732897 
L 454.68 349.73142 
" clip-path="url(#p417130fb0b)" style="fill: none; stroke: #000000"/>
   </g>
   <g id="line2d_17">
    <path d="M 454.68 336.375538 
L 454.68 328.452049 
" clip-path="url(#p417130fb0b)" style="fill: none; stroke: #000000"/>
   </g>
   <g id="line2d_18">
    <path d="M 448.7346 349.73142 
L 460.6254 349.73142 
" clip-path="url(#p417130fb0b)" style="fill: none; stroke: #000000; stroke-linecap: round"/>
   </g>
   <g id="line2d_19">
    <path d="M 448.7346 328.452049 
L 460.6254 328.452049 
" clip-path="url(#p417130fb0b)" style="fill: none; stroke: #000000; stroke-linecap: round"/>
   </g>
   <g id="line2d_20">
    <path d="M 613.224 353.405037 
L 613.224 354.713613 
" clip-path="url(#p417130fb0b)" style="fill: none; stroke: #000000"/>
   </g>
   <g id="line2d_21">
    <path d="M 613.224 352.492635 
L 613.224 351.124033 
" clip-path="url(#p417130fb0b)" style="fill: none; stroke: #000000"/>
   </g>
   <g id="line2d_22">
    <path d="M 607.2786 354.713613 
L 619.1694 354.713613 
" clip-path="url(#p417130fb0b)" style="fill: none; stroke: #000000; stroke-linecap: round"/>
   </g>
   <g id="line2d_23">
    <path d="M 607.2786 351.124033 
L 619.1694 351.124033 
" clip-path="url(#p417130fb0b)" style="fill: none; stroke: #000000; stroke-linecap: round"/>
   </g>
   <g id="line2d_24">
    <path d="M 771.768 356.382348 
L 771.768 357.282745 
" clip-path="url(#p417130fb0b)" style="fill: none; stroke: #000000"/>
   </g>
   <g id="line2d_25">
    <path d="M 771.768 355.777582 
L 771.768 354.917703 
" clip-path="url(#p417130fb0b)" style="fill: none; stroke: #000000"/>
   </g>
   <g id="line2d_26">
    <path d="M 765.8226 357.282745 
L 777.7134 357.282745 
" clip-path="url(#p417130fb0b)" style="fill: none; stroke: #000000; stroke-linecap: round"/>
   </g>
   <g id="line2d_27">
    <path d="M 765.8226 354.917703 
L 777.7134 354.917703 
" clip-path="url(#p417130fb0b)" style="fill: none; stroke: #000000; stroke-linecap: round"/>
   </g>
   <g id="line2d_28">
    <path d="M 125.7012 348.356814 
L 149.4828 348.356814 
" clip-path="url(#p417130fb0b)" style="fill: none; stroke: #ff0000; stroke-width: 2"/>
   </g>
   <g id="line2d_29">
    <path d="M 284.2452 355.565989 
L 308.0268 355.565989 
" clip-path="url(#p417130fb0b)" style="fill: none; stroke: #ff0000; stroke-width: 2"/>
   </g>
   <g id="line2d_30">
    <path d="M 442.7892 338.296384 
L 466.5708 338.296384 
" clip-path="url(#p417130fb0b)" style="fill: none; stroke: #ff0000; stroke-width: 2"/>
   </g>
   <g id="line2d_31">
    <path d="M 601.3332 352.996857 
L 625.1148 352.996857 
" clip-path="url(#p417130fb0b)" style="fill: none; stroke: #ff0000; stroke-width: 2"/>
   </g>
   <g id="line2d_32">
    <path d="M 759.8772 356.052203 
L 783.6588 356.052203 
" clip-path="url(#p417130fb0b)" style="fill: none; stroke: #ff0000; stroke-width: 2"/>
   </g>
   <g id="patch_3">
    <path d="M 58.32 395.14 
L 58.32 27.6 
" style="fill: none; stroke: #cccccc; stroke-width: 1.25; stroke-linejoin: miter; stroke-linecap: square"/>
   </g>
   <g id="patch_4">
    <path d="M 851.04 395.14 
L 851.04 27.6 
" style="fill: none; stroke: #cccccc; stroke-width: 1.25; stroke-linejoin: miter; stroke-linecap: square"/>
   </g>
   <g id="patch_5">
    <path d="M 58.32 395.14 
L 851.04 395.14 
" style="fill: none; stroke: #cccccc; stroke-width: 1.25; stroke-linejoin: miter; stroke-linecap: square"/>
   </g>
   <g id="patch_6">
    <path d="M 58.32 27.6 
L 851.04 27.6 
" style="fill: none; stroke: #cccccc; stroke-width: 1.25; stroke-linejoin: miter; stroke-linecap: square"/>
   </g>
   <g id="text_14">
    <!-- Handshake duration on TLS with secp384r1 signature algorithm — Local YDE (35ms/2%) -->
    <g style="fill: #262626" transform="translate(188.750625 21.6) scale(0.12 -0.12)">
     <defs>
      <path id="DejaVuSans-54" d="M -19 4666 
L 3928 4666 
L 3928 4134 
L 2272 4134 
L 2272 0 
L 1638 0 
L 1638 4134 
L -19 4134 
L -19 4666 
z
" transform="scale(0.015625)"/>
      <path id="DejaVuSans-4c" d="M 628 4666 
L 1259 4666 
L 1259 531 
L 3531 531 
L 3531 0 
L 628 0 
L 628 4666 
z
" transform="scale(0.015625)"/>
      <path id="DejaVuSans-53" d="M 3425 4513 
L 3425 3897 
Q 3066 4069 2747 4153 
Q 2428 4238 2131 4238 
Q 1616 4238 1336 4038 
Q 1056 3838 1056 3469 
Q 1056 3159 1242 3001 
Q 1428 2844 1947 2747 
L 2328 2669 
Q 3034 2534 3370 2195 
Q 3706 1856 3706 1288 
Q 3706 609 3251 259 
Q 2797 -91 1919 -91 
Q 1588 -91 1214 -16 
Q 841 59 441 206 
L 441 856 
Q 825 641 1194 531 
Q 1563 422 1919 422 
Q 2459 422 2753 634 
Q 3047 847 3047 1241 
Q 3047 1584 2836 1778 
Q 2625 1972 2144 2069 
L 1759 2144 
Q 1053 2284 737 2584 
Q 422 2884 422 3419 
Q 422 4038 858 4394 
Q 1294 4750 2059 4750 
Q 2388 4750 2728 4690 
Q 3069 4631 3425 4513 
z
" transform="scale(0.015625)"/>
      <path id="DejaVuSans-77" d="M 269 3500 
L 844 3500 
L 1563 769 
L 2278 3500 
L 2956 3500 
L 3675 769 
L 4391 3500 
L 4966 3500 
L 4050 0 
L 3372 0 
L 2619 2869 
L 1863 0 
L 1184 0 
L 269 3500 
z
" transform="scale(0.015625)"/>
      <path id="DejaVuSans-63" d="M 3122 3366 
L 3122 2828 
Q 2878 2963 2633 3030 
Q 2388 3097 2138 3097 
Q 1578 3097 1268 2742 
Q 959 2388 959 1747 
Q 959 1106 1268 751 
Q 1578 397 2138 397 
Q 2388 397 2633 464 
Q 2878 531 3122 666 
L 3122 134 
Q 2881 22 2623 -34 
Q 2366 -91 2075 -91 
Q 1284 -91 818 406 
Q 353 903 353 1747 
Q 353 2603 823 3093 
Q 1294 3584 2113 3584 
Q 2378 3584 2631 3529 
Q 2884 3475 3122 3366 
z
" transform="scale(0.015625)"/>
      <path id="DejaVuSans-67" d="M 2906 1791 
Q 2906 2416 2648 2759 
Q 2391 3103 1925 3103 
Q 1463 3103 1205 2759 
Q 947 2416 947 1791 
Q 947 1169 1205 825 
Q 1463 481 1925 481 
Q 2391 481 2648 825 
Q 2906 1169 2906 1791 
z
M 3481 434 
Q 3481 -459 3084 -895 
Q 2688 -1331 1869 -1331 
Q 1566 -1331 1297 -1286 
Q 1028 -1241 775 -1147 
L 775 -588 
Q 1028 -725 1275 -790 
Q 1522 -856 1778 -856 
Q 2344 -856 2625 -561 
Q 2906 -266 2906 331 
L 2906 616 
Q 2728 306 2450 153 
Q 2172 0 1784 0 
Q 1141 0 747 490 
Q 353 981 353 1791 
Q 353 2603 747 3093 
Q 1141 3584 1784 3584 
Q 2172 3584 2450 3431 
Q 2728 3278 2906 2969 
L 2906 3500 
L 3481 3500 
L 3481 434 
z
" transform="scale(0.015625)"/>
      <path id="DejaVuSans-2014" d="M 313 1978 
L 6088 1978 
L 6088 1528 
L 313 1528 
L 313 1978 
z
" transform="scale(0.015625)"/>
      <path id="DejaVuSans-59" d="M -13 4666 
L 666 4666 
L 1959 2747 
L 3244 4666 
L 3922 4666 
L 2272 2222 
L 2272 0 
L 1638 0 
L 1638 2222 
L -13 4666 
z
" transform="scale(0.015625)"/>
      <path id="DejaVuSans-44" d="M 1259 4147 
L 1259 519 
L 2022 519 
Q 2988 519 3436 956 
Q 3884 1394 3884 2338 
Q 3884 3275 3436 3711 
Q 2988 4147 2022 4147 
L 1259 4147 
z
M 628 4666 
L 1925 4666 
Q 3281 4666 3915 4102 
Q 4550 3538 4550 2338 
Q 4550 1131 3912 565 
Q 3275 0 1925 0 
L 628 0 
L 628 4666 
z
" transform="scale(0.015625)"/>
      <path id="DejaVuSans-45" d="M 628 4666 
L 3578 4666 
L 3578 4134 
L 1259 4134 
L 1259 2753 
L 3481 2753 
L 3481 2222 
L 1259 2222 
L 1259 531 
L 3634 531 
L 3634 0 
L 628 0 
L 628 4666 
z
" transform="scale(0.015625)"/>
      <path id="DejaVuSans-2f" d="M 1625 4666 
L 2156 4666 
L 531 -594 
L 0 -594 
L 1625 4666 
z
" transform="scale(0.015625)"/>
      <path id="DejaVuSans-25" d="M 4653 2053 
Q 4381 2053 4226 1822 
Q 4072 1591 4072 1178 
Q 4072 772 4226 539 
Q 4381 306 4653 306 
Q 4919 306 5073 539 
Q 5228 772 5228 1178 
Q 5228 1588 5073 1820 
Q 4919 2053 4653 2053 
z
M 4653 2450 
Q 5147 2450 5437 2106 
Q 5728 1763 5728 1178 
Q 5728 594 5436 251 
Q 5144 -91 4653 -91 
Q 4153 -91 3862 251 
Q 3572 594 3572 1178 
Q 3572 1766 3864 2108 
Q 4156 2450 4653 2450 
z
M 1428 4353 
Q 1159 4353 1004 4120 
Q 850 3888 850 3481 
Q 850 3069 1003 2837 
Q 1156 2606 1428 2606 
Q 1700 2606 1854 2837 
Q 2009 3069 2009 3481 
Q 2009 3884 1853 4118 
Q 1697 4353 1428 4353 
z
M 4250 4750 
L 4750 4750 
L 1831 -91 
L 1331 -91 
L 4250 4750 
z
M 1428 4750 
Q 1922 4750 2215 4408 
Q 2509 4066 2509 3481 
Q 2509 2891 2217 2550 
Q 1925 2209 1428 2209 
Q 931 2209 642 2551 
Q 353 2894 353 3481 
Q 353 4063 643 4406 
Q 934 4750 1428 4750 
z
" transform="scale(0.015625)"/>
     </defs>
     <use xlink:href="#DejaVuSans-48"/>
     <use xlink:href="#DejaVuSans-61" x="75.195312"/>
     <use xlink:href="#DejaVuSans-6e" x="136.474609"/>
     <use xlink:href="#DejaVuSans-64" x="199.853516"/>
     <use xlink:href="#DejaVuSans-73" x="263.330078"/>
     <use xlink:href="#DejaVuSans-68" x="315.429688"/>
     <use xlink:href="#DejaVuSans-61" x="378.808594"/>
     <use xlink:href="#DejaVuSans-6b" x="440.087891"/>
     <use xlink:href="#DejaVuSans-65" x="494.373047"/>
     <use xlink:href="#DejaVuSans-20" x="555.896484"/>
     <use xlink:href="#DejaVuSans-64" x="587.683594"/>
     <use xlink:href="#DejaVuSans-75" x="651.160156"/>
     <use xlink:href="#DejaVuSans-72" x="714.539062"/>
     <use xlink:href="#DejaVuSans-61" x="755.652344"/>
     <use xlink:href="#DejaVuSans-74" x="816.931641"/>
     <use xlink:href="#DejaVuSans-69" x="856.140625"/>
     <use xlink:href="#DejaVuSans-6f" x="883.923828"/>
     <use xlink:href="#DejaVuSans-6e" x="945.105469"/>
     <use xlink:href="#DejaVuSans-20" x="1008.484375"/>
     <use xlink:href="#DejaVuSans-6f" x="1040.271484"/>
     <use xlink:href="#DejaVuSans-6e" x="1101.453125"/>
     <use xlink:href="#DejaVuSans-20" x="1164.832031"/>
     <use xlink:href="#DejaVuSans-54" x="1196.619141"/>
     <use xlink:href="#DejaVuSans-4c" x="1257.703125"/>
     <use xlink:href="#DejaVuSans-53" x="1313.416016"/>
     <use xlink:href="#DejaVuSans-20" x="1376.892578"/>
     <use xlink:href="#DejaVuSans-77" x="1408.679688"/>
     <use xlink:href="#DejaVuSans-69" x="1490.466797"/>
     <use xlink:href="#DejaVuSans-74" x="1518.25"/>
     <use xlink:href="#DejaVuSans-68" x="1557.458984"/>
     <use xlink:href="#DejaVuSans-20" x="1620.837891"/>
     <use xlink:href="#DejaVuSans-73" x="1652.625"/>
     <use xlink:href="#DejaVuSans-65" x="1704.724609"/>
     <use xlink:href="#DejaVuSans-63" x="1766.248047"/>
     <use xlink:href="#DejaVuSans-70" x="1821.228516"/>
     <use xlink:href="#DejaVuSans-33" x="1884.705078"/>
     <use xlink:href="#DejaVuSans-38" x="1948.328125"/>
     <use xlink:href="#DejaVuSans-34" x="2011.951172"/>
     <use xlink:href="#DejaVuSans-72" x="2075.574219"/>
     <use xlink:href="#DejaVuSans-31" x="2116.6875"/>
     <use xlink:href="#DejaVuSans-20" x="2180.310547"/>
     <use xlink:href="#DejaVuSans-73" x="2212.097656"/>
     <use xlink:href="#DejaVuSans-69" x="2264.197266"/>
     <use xlink:href="#DejaVuSans-67" x="2291.980469"/>
     <use xlink:href="#DejaVuSans-6e" x="2355.457031"/>
     <use xlink:href="#DejaVuSans-61" x="2418.835938"/>
     <use xlink:href="#DejaVuSans-74" x="2480.115234"/>
     <use xlink:href="#DejaVuSans-75" x="2519.324219"/>
     <use xlink:href="#DejaVuSans-72" x="2582.703125"/>
     <use xlink:href="#DejaVuSans-65" x="2621.566406"/>
     <use xlink:href="#DejaVuSans-20" x="2683.089844"/>
     <use xlink:href="#DejaVuSans-61" x="2714.876953"/>
     <use xlink:href="#DejaVuSans-6c" x="2776.15625"/>
     <use xlink:href="#DejaVuSans-67" x="2803.939453"/>
     <use xlink:href="#DejaVuSans-6f" x="2867.416016"/>
     <use xlink:href="#DejaVuSans-72" x="2928.597656"/>
     <use xlink:href="#DejaVuSans-69" x="2969.710938"/>
     <use xlink:href="#DejaVuSans-74" x="2997.494141"/>
     <use xlink:href="#DejaVuSans-68" x="3036.703125"/>
     <use xlink:href="#DejaVuSans-6d" x="3100.082031"/>
     <use xlink:href="#DejaVuSans-20" x="3197.494141"/>
     <use xlink:href="#DejaVuSans-2014" x="3229.28125"/>
     <use xlink:href="#DejaVuSans-20" x="3329.28125"/>
     <use xlink:href="#DejaVuSans-4c" x="3361.068359"/>
     <use xlink:href="#DejaVuSans-6f" x="3415.03125"/>
     <use xlink:href="#DejaVuSans-63" x="3476.212891"/>
     <use xlink:href="#DejaVuSans-61" x="3531.193359"/>
     <use xlink:href="#DejaVuSans-6c" x="3592.472656"/>
     <use xlink:href="#DejaVuSans-20" x="3620.255859"/>
     <use xlink:href="#DejaVuSans-59" x="3652.042969"/>
     <use xlink:href="#DejaVuSans-44" x="3713.126953"/>
     <use xlink:href="#DejaVuSans-45" x="3790.128906"/>
     <use xlink:href="#DejaVuSans-20" x="3853.3125"/>
     <use xlink:href="#DejaVuSans-28" x="3885.099609"/>
     <use xlink:href="#DejaVuSans-33" x="3924.113281"/>
     <use xlink:href="#DejaVuSans-35" x="3987.736328"/>
     <use xlink:href="#DejaVuSans-6d" x="4051.359375"/>
     <use xlink:href="#DejaVuSans-73" x="4148.771484"/>
     <use xlink:href="#DejaVuSans-2f" x="4200.871094"/>
     <use xlink:href="#DejaVuSans-32" x="4234.5625"/>
     <use xlink:href="#DejaVuSans-25" x="4298.185547"/>
     <use xlink:href="#DejaVuSans-29" x="4393.205078"/>
    </g>
   </g>
  </g>
 </g>
 <defs>
  <clipPath id="p417130fb0b">
   <rect x="58.32" y="27.6" width="792.72" height="367.54"/>
  </clipPath>
 </defs>
</svg>
