<?xml version="1.0" encoding="utf-8" standalone="no"?>
<!DOCTYPE svg PUBLIC "-//W3C//DTD SVG 1.1//EN"
  "http://www.w3.org/Graphics/SVG/1.1/DTD/svg11.dtd">
<svg xmlns:xlink="http://www.w3.org/1999/xlink" width="864pt" height="432pt" viewBox="0 0 864 432" xmlns="http://www.w3.org/2000/svg" version="1.1">
 <metadata>
  <rdf:RDF xmlns:dc="http://purl.org/dc/elements/1.1/" xmlns:cc="http://creativecommons.org/ns#" xmlns:rdf="http://www.w3.org/1999/02/22-rdf-syntax-ns#">
   <cc:Work>
    <dc:type rdf:resource="http://purl.org/dc/dcmitype/StillImage"/>
    <dc:date>2026-03-21T13:58:46.259262</dc:date>
    <dc:format>image/svg+xml</dc:format>
    <dc:creator>
     <cc:Agent>
      <dc:title>Matplotlib v3.6.3, https://matplotlib.org/</dc:title>
     </cc:Agent>
    </dc:creator>
   </cc:Work>
  </rdf:RDF>
 </metadata>
 <defs>
  <style type="text/css">*{stroke-linejoin: round; stroke-linecap: butt}</style>
 </defs>
 <g id="figure_1">
  <g id="patch_1">
   <path d="M 0 432 
L 864 432 
L 864 0 
L 0 0 
z
" style="fill: #ffffff"/>
  </g>
  <g id="axes_1">
   <g id="patch_2">
    <path d="M 58.32 395.14 
L 851.04 395.14 
L 851.04 27.6 
L 58.32 27.6 
z
" style="fill: #ffffff"/>
   </g>
   <g id="matplotlib.axis_1">
    <g id="xtick_1">
     <g id="text_1">
      <!-- P-384 -->
      <g style="fill: #262626" transform="translate(117.642 415.277812) scale(0.14 -0.14)">
       <defs>
        <path id="DejaVuSans-50" d="M 1259 4147 
L 1259 2394 
L 2053 2394 
Q 2494 2394 2734 2622 
Q 2975 2850 2975 3272 
Q 2975 3691 2734 3919 
Q 2494 4147 2053 4147 
L 1259 4147 
z
M 628 4666 
L 2053 4666 
Q 2838 4666 3239 4311 
Q 3641 3956 3641 3272 
Q 3641 2581 3239 2228 
Q 2838 1875 2053 1875 
L 1259 1875 
L 1259 0 
L 628 0 
L 628 4666 
z
" transform="scale(0.015625)"/>
        <path id="DejaVuSans-2d" d="M 313 2009 
L 1997 2009 
L 1997 1497 
L 313 1497 
L 313 2009 
z
" transform="scale(0.015625)"/>
        <path id="DejaVuSans-33" d="M 2597 2516 
Q 3050 2419 3304 2112 
Q 3559 1806 3559 1356 
Q 3559 666 3084 287 
Q 2609 -91 1734 -91 
Q 1441 -91 1130 -33 
Q 819 25 488 141 
L 488 750 
Q 750 597 1062 519 
Q 1375 441 1716 441 
Q 2309 441 2620 675 
Q 2931 909 2931 1356 
Q 2931 1769 2642 2001 
Q 2353 2234 1838 2234 
L 1294 2234 
L 1294 2753 
L 1863 2753 
Q 2328 2753 2575 2939 
Q 2822 3125 2822 3475 
Q 2822 3834 2567 4026 
Q 2313 4219 1838 4219 
Q 1578 4219 1281 4162 
Q 984 4106 628 3988 
L 628 4550 
Q 988 4650 1302 4700 
Q 1616 4750 1894 4750 
Q 2613 4750 3031 4423 
Q 3450 4097 3450 3541 
Q 3450 3153 3228 2886 
Q 3006 2619 2597 2516 
z
" transform="scale(0.015625)"/>
        <path id="DejaVuSans-38" d="M 2034 2216 
Q 1584 2216 1326 1975 
Q 1069 1734 1069 1313 
Q 1069 891 1326 650 
Q 1584 409 2034 409 
Q 2484 409 2743 651 
Q 3003 894 3003 1313 
Q 3003 1734 2745 1975 
Q 2488 2216 2034 2216 
z
M 1403 2484 
Q 997 2584 770 2862 
Q 544 3141 544 3541 
Q 544 4100 942 4425 
Q 1341 4750 2034 4750 
Q 2731 4750 3128 4425 
Q 3525 4100 3525 3541 
Q 3525 3141 3298 2862 
Q 3072 2584 2669 2484 
Q 3125 2378 3379 2068 
Q 3634 1759 3634 1313 
Q 3634 634 3220 271 
Q 2806 -91 2034 -91 
Q 1263 -91 848 271 
Q 434 634 434 1313 
Q 434 1759 690 2068 
Q 947 2378 1403 2484 
z
M 1172 3481 
Q 1172 3119 1398 2916 
Q 1625 2713 2034 2713 
Q 2441 2713 2670 2916 
Q 2900 3119 2900 3481 
Q 2900 3844 2670 4047 
Q 2441 4250 2034 4250 
Q 1625 4250 1398 4047 
Q 1172 3844 1172 3481 
z
" transform="scale(0.015625)"/>
        <path id="DejaVuSans-34" d="M 2419 4116 
L 825 1625 
L 2419 1625 
L 2419 4116 
z
M 2253 4666 
L 3047 4666 
L 3047 1625 
L 3713 1625 
L 3713 1100 
L 3047 1100 
L 3047 0 
L 2419 0 
L 2419 1100 
L 313 1100 
L 313 1709 
L 2253 4666 
z
" transform="scale(0.015625)"/>
       </defs>
       <use xlink:href="#DejaVuSans-50"/>
       <use xlink:href="#DejaVuSans-2d" x="58.052734"/>
       <use xlink:href="#DejaVuSans-33" x="94.136719"/>
       <use xlink:href="#DejaVuSans-38" x="157.759766"/>
       <use xlink:href="#DejaVuSans-34" x="221.382812"/>
      </g>
     </g>
    </g>
    <g id="xtick_2">
     <g id="text_2">
      <!-- x448 -->
      <g style="fill: #262626" transform="translate(278.631625 415.277812) scale(0.14 -0.14)">
       <defs>
        <path id="DejaVuSans-78" d="M 3513 3500 
L 2247 1797 
L 3578 0 
L 2900 0 
L 1881 1375 
L 863 0 
L 184 0 
L 1544 1831 
L 300 3500 
L 978 3500 
L 1906 2253 
L 2834 3500 
L 3513 3500 
z
" transform="scale(0.015625)"/>
       </defs>
       <use xlink:href="#DejaVuSans-78"/>
       <use xlink:href="#DejaVuSans-34" x="59.179688"/>
       <use xlink:href="#DejaVuSans-34" x="122.802734"/>
       <use xlink:href="#DejaVuSans-38" x="186.425781"/>
      </g>
     </g>
    </g>
    <g id="xtick_3">
     <g id="text_3">
      <!-- p384_mlkem768 -->
      <g style="fill: #262626" transform="translate(396.325156 415.277812) scale(0.14 -0.14)">
       <defs>
        <path id="DejaVuSans-70" d="M 1159 525 
L 1159 -1331 
L 581 -1331 
L 581 3500 
L 1159 3500 
L 1159 2969 
Q 1341 3281 1617 3432 
Q 1894 3584 2278 3584 
Q 2916 3584 3314 3078 
Q 3713 2572 3713 1747 
Q 3713 922 3314 415 
Q 2916 -91 2278 -91 
Q 1894 -91 1617 61 
Q 1341 213 1159 525 
z
M 3116 1747 
Q 3116 2381 2855 2742 
Q 2594 3103 2138 3103 
Q 1681 3103 1420 2742 
Q 1159 2381 1159 1747 
Q 1159 1113 1420 752 
Q 1681 391 2138 391 
Q 2594 391 2855 752 
Q 3116 1113 3116 1747 
z
" transform="scale(0.015625)"/>
        <path id="DejaVuSans-5f" d="M 3263 -1063 
L 3263 -1509 
L -63 -1509 
L -63 -1063 
L 3263 -1063 
z
" transform="scale(0.015625)"/>
        <path id="DejaVuSans-6d" d="M 3328 2828 
Q 3544 3216 3844 3400 
Q 4144 3584 4550 3584 
Q 5097 3584 5394 3201 
Q 5691 2819 5691 2113 
L 5691 0 
L 5113 0 
L 5113 2094 
Q 5113 2597 4934 2840 
Q 4756 3084 4391 3084 
Q 3944 3084 3684 2787 
Q 3425 2491 3425 1978 
L 3425 0 
L 2847 0 
L 2847 2094 
Q 2847 2600 2669 2842 
Q 2491 3084 2119 3084 
Q 1678 3084 1418 2786 
Q 1159 2488 1159 1978 
L 1159 0 
L 581 0 
L 581 3500 
L 1159 3500 
L 1159 2956 
Q 1356 3278 1631 3431 
Q 1906 3584 2284 3584 
Q 2666 3584 2933 3390 
Q 3200 3197 3328 2828 
z
" transform="scale(0.015625)"/>
        <path id="DejaVuSans-6c" d="M 603 4863 
L 1178 4863 
L 1178 0 
L 603 0 
L 603 4863 
z
" transform="scale(0.015625)"/>
        <path id="DejaVuSans-6b" d="M 581 4863 
L 1159 4863 
L 1159 1991 
L 2875 3500 
L 3609 3500 
L 1753 1863 
L 3688 0 
L 2938 0 
L 1159 1709 
L 1159 0 
L 581 0 
L 581 4863 
z
" transform="scale(0.015625)"/>
        <path id="DejaVuSans-65" d="M 3597 1894 
L 3597 1613 
L 953 1613 
Q 991 1019 1311 708 
Q 1631 397 2203 397 
Q 2534 397 2845 478 
Q 3156 559 3463 722 
L 3463 178 
Q 3153 47 2828 -22 
Q 2503 -91 2169 -91 
Q 1331 -91 842 396 
Q 353 884 353 1716 
Q 353 2575 817 3079 
Q 1281 3584 2069 3584 
Q 2775 3584 3186 3129 
Q 3597 2675 3597 1894 
z
M 3022 2063 
Q 3016 2534 2758 2815 
Q 2500 3097 2075 3097 
Q 1594 3097 1305 2825 
Q 1016 2553 972 2059 
L 3022 2063 
z
" transform="scale(0.015625)"/>
        <path id="DejaVuSans-37" d="M 525 4666 
L 3525 4666 
L 3525 4397 
L 1831 0 
L 1172 0 
L 2766 4134 
L 525 4134 
L 525 4666 
z
" transform="scale(0.015625)"/>
        <path id="DejaVuSans-36" d="M 2113 2584 
Q 1688 2584 1439 2293 
Q 1191 2003 1191 1497 
Q 1191 994 1439 701 
Q 1688 409 2113 409 
Q 2538 409 2786 701 
Q 3034 994 3034 1497 
Q 3034 2003 2786 2293 
Q 2538 2584 2113 2584 
z
M 3366 4563 
L 3366 3988 
Q 3128 4100 2886 4159 
Q 2644 4219 2406 4219 
Q 1781 4219 1451 3797 
Q 1122 3375 1075 2522 
Q 1259 2794 1537 2939 
Q 1816 3084 2150 3084 
Q 2853 3084 3261 2657 
Q 3669 2231 3669 1497 
Q 3669 778 3244 343 
Q 2819 -91 2113 -91 
Q 1303 -91 875 529 
Q 447 1150 447 2328 
Q 447 3434 972 4092 
Q 1497 4750 2381 4750 
Q 2619 4750 2861 4703 
Q 3103 4656 3366 4563 
z
" transform="scale(0.015625)"/>
       </defs>
       <use xlink:href="#DejaVuSans-70"/>
       <use xlink:href="#DejaVuSans-33" x="63.476562"/>
       <use xlink:href="#DejaVuSans-38" x="127.099609"/>
       <use xlink:href="#DejaVuSans-34" x="190.722656"/>
       <use xlink:href="#DejaVuSans-5f" x="254.345703"/>
       <use xlink:href="#DejaVuSans-6d" x="304.345703"/>
       <use xlink:href="#DejaVuSans-6c" x="401.757812"/>
       <use xlink:href="#DejaVuSans-6b" x="429.541016"/>
       <use xlink:href="#DejaVuSans-65" x="483.826172"/>
       <use xlink:href="#DejaVuSans-6d" x="545.349609"/>
       <use xlink:href="#DejaVuSans-37" x="642.761719"/>
       <use xlink:href="#DejaVuSans-36" x="706.384766"/>
       <use xlink:href="#DejaVuSans-38" x="770.007812"/>
      </g>
     </g>
    </g>
    <g id="xtick_4">
     <g id="text_4">
      <!-- x448_mlkem768 -->
      <g style="fill: #262626" transform="translate(555.169937 415.277812) scale(0.14 -0.14)">
       <use xlink:href="#DejaVuSans-78"/>
       <use xlink:href="#DejaVuSans-34" x="59.179688"/>
       <use xlink:href="#DejaVuSans-34" x="122.802734"/>
       <use xlink:href="#DejaVuSans-38" x="186.425781"/>
       <use xlink:href="#DejaVuSans-5f" x="250.048828"/>
       <use xlink:href="#DejaVuSans-6d" x="300.048828"/>
       <use xlink:href="#DejaVuSans-6c" x="397.460938"/>
       <use xlink:href="#DejaVuSans-6b" x="425.244141"/>
       <use xlink:href="#DejaVuSans-65" x="479.529297"/>
       <use xlink:href="#DejaVuSans-6d" x="541.052734"/>
       <use xlink:href="#DejaVuSans-37" x="638.464844"/>
       <use xlink:href="#DejaVuSans-36" x="702.087891"/>
       <use xlink:href="#DejaVuSans-38" x="765.710938"/>
      </g>
     </g>
    </g>
    <g id="xtick_5">
     <g id="text_5">
      <!-- mlkem768 -->
      <g style="fill: #262626" transform="translate(734.718312 415.277812) scale(0.14 -0.14)">
       <use xlink:href="#DejaVuSans-6d"/>
       <use xlink:href="#DejaVuSans-6c" x="97.412109"/>
       <use xlink:href="#DejaVuSans-6b" x="125.195312"/>
       <use xlink:href="#DejaVuSans-65" x="179.480469"/>
       <use xlink:href="#DejaVuSans-6d" x="241.003906"/>
       <use xlink:href="#DejaVuSans-37" x="338.416016"/>
       <use xlink:href="#DejaVuSans-36" x="402.039062"/>
       <use xlink:href="#DejaVuSans-38" x="465.662109"/>
      </g>
     </g>
    </g>
   </g>
   <g id="matplotlib.axis_2">
    <g id="ytick_1">
     <g id="line2d_1">
      <path d="M 58.32 324.384449 
L 851.04 324.384449 
" clip-path="url(#pe9efd6e7d1)" style="fill: none; stroke: #cccccc; stroke-linecap: round"/>
     </g>
     <g id="text_6">
      <!-- 820 -->
      <g style="fill: #262626" transform="translate(27.82375 328.56359) scale(0.11 -0.11)">
       <defs>
        <path id="DejaVuSans-32" d="M 1228 531 
L 3431 531 
L 3431 0 
L 469 0 
L 469 531 
Q 828 903 1448 1529 
Q 2069 2156 2228 2338 
Q 2531 2678 2651 2914 
Q 2772 3150 2772 3378 
Q 2772 3750 2511 3984 
Q 2250 4219 1831 4219 
Q 1534 4219 1204 4116 
Q 875 4013 500 3803 
L 500 4441 
Q 881 4594 1212 4672 
Q 1544 4750 1819 4750 
Q 2544 4750 2975 4387 
Q 3406 4025 3406 3419 
Q 3406 3131 3298 2873 
Q 3191 2616 2906 2266 
Q 2828 2175 2409 1742 
Q 1991 1309 1228 531 
z
" transform="scale(0.015625)"/>
        <path id="DejaVuSans-30" d="M 2034 4250 
Q 1547 4250 1301 3770 
Q 1056 3291 1056 2328 
Q 1056 1369 1301 889 
Q 1547 409 2034 409 
Q 2525 409 2770 889 
Q 3016 1369 3016 2328 
Q 3016 3291 2770 3770 
Q 2525 4250 2034 4250 
z
M 2034 4750 
Q 2819 4750 3233 4129 
Q 3647 3509 3647 2328 
Q 3647 1150 3233 529 
Q 2819 -91 2034 -91 
Q 1250 -91 836 529 
Q 422 1150 422 2328 
Q 422 3509 836 4129 
Q 1250 4750 2034 4750 
z
" transform="scale(0.015625)"/>
       </defs>
       <use xlink:href="#DejaVuSans-38"/>
       <use xlink:href="#DejaVuSans-32" x="63.623047"/>
       <use xlink:href="#DejaVuSans-30" x="127.246094"/>
      </g>
     </g>
    </g>
    <g id="ytick_2">
     <g id="line2d_2">
      <path d="M 58.32 249.316279 
L 851.04 249.316279 
" clip-path="url(#pe9efd6e7d1)" style="fill: none; stroke: #cccccc; stroke-linecap: round"/>
     </g>
     <g id="text_7">
      <!-- 840 -->
      <g style="fill: #262626" transform="translate(27.82375 253.495419) scale(0.11 -0.11)">
       <use xlink:href="#DejaVuSans-38"/>
       <use xlink:href="#DejaVuSans-34" x="63.623047"/>
       <use xlink:href="#DejaVuSans-30" x="127.246094"/>
      </g>
     </g>
    </g>
    <g id="ytick_3">
     <g id="line2d_3">
      <path d="M 58.32 174.248108 
L 851.04 174.248108 
" clip-path="url(#pe9efd6e7d1)" style="fill: none; stroke: #cccccc; stroke-linecap: round"/>
     </g>
     <g id="text_8">
      <!-- 860 -->
      <g style="fill: #262626" transform="translate(27.82375 178.427249) scale(0.11 -0.11)">
       <use xlink:href="#DejaVuSans-38"/>
       <use xlink:href="#DejaVuSans-36" x="63.623047"/>
       <use xlink:href="#DejaVuSans-30" x="127.246094"/>
      </g>
     </g>
    </g>
    <g id="ytick_4">
     <g id="line2d_4">
      <path d="M 58.32 99.179938 
L 851.04 99.179938 
" clip-path="url(#pe9efd6e7d1)" style="fill: none; stroke: #cccccc; stroke-linecap: round"/>
     </g>
     <g id="text_9">
      <!-- 880 -->
      <g style="fill: #262626" transform="translate(27.82375 103.359079) scale(0.11 -0.11)">
       <use xlink:href="#DejaVuSans-38"/>
       <use xlink:href="#DejaVuSans-38" x="63.623047"/>
       <use xlink:href="#DejaVuSans-30" x="127.246094"/>
      </g>
     </g>
    </g>
    <g id="text_10">
     <!-- Handshake duration (ms) -->
     <g style="fill: #262626" transform="translate(21.328125 287.437813) rotate(-90) scale(0.12 -0.12)">
      <defs>
       <path id="DejaVuSans-48" d="M 628 4666 
L 1259 4666 
L 1259 2753 
L 3553 2753 
L 3553 4666 
L 4184 4666 
L 4184 0 
L 3553 0 
L 3553 2222 
L 1259 2222 
L 1259 0 
L 628 0 
L 628 4666 
z
" transform="scale(0.015625)"/>
       <path id="DejaVuSans-61" d="M 2194 1759 
Q 1497 1759 1228 1600 
Q 959 1441 959 1056 
Q 959 750 1161 570 
Q 1363 391 1709 391 
Q 2188 391 2477 730 
Q 2766 1069 2766 1631 
L 2766 1759 
L 2194 1759 
z
M 3341 1997 
L 3341 0 
L 2766 0 
L 2766 531 
Q 2569 213 2275 61 
Q 1981 -91 1556 -91 
Q 1019 -91 701 211 
Q 384 513 384 1019 
Q 384 1609 779 1909 
Q 1175 2209 1959 2209 
L 2766 2209 
L 2766 2266 
Q 2766 2663 2505 2880 
Q 2244 3097 1772 3097 
Q 1472 3097 1187 3025 
Q 903 2953 641 2809 
L 641 3341 
Q 956 3463 1253 3523 
Q 1550 3584 1831 3584 
Q 2591 3584 2966 3190 
Q 3341 2797 3341 1997 
z
" transform="scale(0.015625)"/>
       <path id="DejaVuSans-6e" d="M 3513 2113 
L 3513 0 
L 2938 0 
L 2938 2094 
Q 2938 2591 2744 2837 
Q 2550 3084 2163 3084 
Q 1697 3084 1428 2787 
Q 1159 2491 1159 1978 
L 1159 0 
L 581 0 
L 581 3500 
L 1159 3500 
L 1159 2956 
Q 1366 3272 1645 3428 
Q 1925 3584 2291 3584 
Q 2894 3584 3203 3211 
Q 3513 2838 3513 2113 
z
" transform="scale(0.015625)"/>
       <path id="DejaVuSans-64" d="M 2906 2969 
L 2906 4863 
L 3481 4863 
L 3481 0 
L 2906 0 
L 2906 525 
Q 2725 213 2448 61 
Q 2172 -91 1784 -91 
Q 1150 -91 751 415 
Q 353 922 353 1747 
Q 353 2572 751 3078 
Q 1150 3584 1784 3584 
Q 2172 3584 2448 3432 
Q 2725 3281 2906 2969 
z
M 947 1747 
Q 947 1113 1208 752 
Q 1469 391 1925 391 
Q 2381 391 2643 752 
Q 2906 1113 2906 1747 
Q 2906 2381 2643 2742 
Q 2381 3103 1925 3103 
Q 1469 3103 1208 2742 
Q 947 2381 947 1747 
z
" transform="scale(0.015625)"/>
       <path id="DejaVuSans-73" d="M 2834 3397 
L 2834 2853 
Q 2591 2978 2328 3040 
Q 2066 3103 1784 3103 
Q 1356 3103 1142 2972 
Q 928 2841 928 2578 
Q 928 2378 1081 2264 
Q 1234 2150 1697 2047 
L 1894 2003 
Q 2506 1872 2764 1633 
Q 3022 1394 3022 966 
Q 3022 478 2636 193 
Q 2250 -91 1575 -91 
Q 1294 -91 989 -36 
Q 684 19 347 128 
L 347 722 
Q 666 556 975 473 
Q 1284 391 1588 391 
Q 1994 391 2212 530 
Q 2431 669 2431 922 
Q 2431 1156 2273 1281 
Q 2116 1406 1581 1522 
L 1381 1569 
Q 847 1681 609 1914 
Q 372 2147 372 2553 
Q 372 3047 722 3315 
Q 1072 3584 1716 3584 
Q 2034 3584 2315 3537 
Q 2597 3491 2834 3397 
z
" transform="scale(0.015625)"/>
       <path id="DejaVuSans-68" d="M 3513 2113 
L 3513 0 
L 2938 0 
L 2938 2094 
Q 2938 2591 2744 2837 
Q 2550 3084 2163 3084 
Q 1697 3084 1428 2787 
Q 1159 2491 1159 1978 
L 1159 0 
L 581 0 
L 581 4863 
L 1159 4863 
L 1159 2956 
Q 1366 3272 1645 3428 
Q 1925 3584 2291 3584 
Q 2894 3584 3203 3211 
Q 3513 2838 3513 2113 
z
" transform="scale(0.015625)"/>
       <path id="DejaVuSans-20" transform="scale(0.015625)"/>
       <path id="DejaVuSans-75" d="M 544 1381 
L 544 3500 
L 1119 3500 
L 1119 1403 
Q 1119 906 1312 657 
Q 1506 409 1894 409 
Q 2359 409 2629 706 
Q 2900 1003 2900 1516 
L 2900 3500 
L 3475 3500 
L 3475 0 
L 2900 0 
L 2900 538 
Q 2691 219 2414 64 
Q 2138 -91 1772 -91 
Q 1169 -91 856 284 
Q 544 659 544 1381 
z
M 1991 3584 
L 1991 3584 
z
" transform="scale(0.015625)"/>
       <path id="DejaVuSans-72" d="M 2631 2963 
Q 2534 3019 2420 3045 
Q 2306 3072 2169 3072 
Q 1681 3072 1420 2755 
Q 1159 2438 1159 1844 
L 1159 0 
L 581 0 
L 581 3500 
L 1159 3500 
L 1159 2956 
Q 1341 3275 1631 3429 
Q 1922 3584 2338 3584 
Q 2397 3584 2469 3576 
Q 2541 3569 2628 3553 
L 2631 2963 
z
" transform="scale(0.015625)"/>
       <path id="DejaVuSans-74" d="M 1172 4494 
L 1172 3500 
L 2356 3500 
L 2356 3053 
L 1172 3053 
L 1172 1153 
Q 1172 725 1289 603 
Q 1406 481 1766 481 
L 2356 481 
L 2356 0 
L 1766 0 
Q 1100 0 847 248 
Q 594 497 594 1153 
L 594 3053 
L 172 3053 
L 172 3500 
L 594 3500 
L 594 4494 
L 1172 4494 
z
" transform="scale(0.015625)"/>
       <path id="DejaVuSans-69" d="M 603 3500 
L 1178 3500 
L 1178 0 
L 603 0 
L 603 3500 
z
M 603 4863 
L 1178 4863 
L 1178 4134 
L 603 4134 
L 603 4863 
z
" transform="scale(0.015625)"/>
       <path id="DejaVuSans-6f" d="M 1959 3097 
Q 1497 3097 1228 2736 
Q 959 2375 959 1747 
Q 959 1119 1226 758 
Q 1494 397 1959 397 
Q 2419 397 2687 759 
Q 2956 1122 2956 1747 
Q 2956 2369 2687 2733 
Q 2419 3097 1959 3097 
z
M 1959 3584 
Q 2709 3584 3137 3096 
Q 3566 2609 3566 1747 
Q 3566 888 3137 398 
Q 2709 -91 1959 -91 
Q 1206 -91 779 398 
Q 353 888 353 1747 
Q 353 2609 779 3096 
Q 1206 3584 1959 3584 
z
" transform="scale(0.015625)"/>
       <path id="DejaVuSans-28" d="M 1984 4856 
Q 1566 4138 1362 3434 
Q 1159 2731 1159 2009 
Q 1159 1288 1364 580 
Q 1569 -128 1984 -844 
L 1484 -844 
Q 1016 -109 783 600 
Q 550 1309 550 2009 
Q 550 2706 781 3412 
Q 1013 4119 1484 4856 
L 1984 4856 
z
" transform="scale(0.015625)"/>
       <path id="DejaVuSans-29" d="M 513 4856 
L 1013 4856 
Q 1481 4119 1714 3412 
Q 1947 2706 1947 2009 
Q 1947 1309 1714 600 
Q 1481 -109 1013 -844 
L 513 -844 
Q 928 -128 1133 580 
Q 1338 1288 1338 2009 
Q 1338 2731 1133 3434 
Q 928 4138 513 4856 
z
" transform="scale(0.015625)"/>
      </defs>
      <use xlink:href="#DejaVuSans-48"/>
      <use xlink:href="#DejaVuSans-61" x="75.195312"/>
      <use xlink:href="#DejaVuSans-6e" x="136.474609"/>
      <use xlink:href="#DejaVuSans-64" x="199.853516"/>
      <use xlink:href="#DejaVuSans-73" x="263.330078"/>
      <use xlink:href="#DejaVuSans-68" x="315.429688"/>
      <use xlink:href="#DejaVuSans-61" x="378.808594"/>
      <use xlink:href="#DejaVuSans-6b" x="440.087891"/>
      <use xlink:href="#DejaVuSans-65" x="494.373047"/>
      <use xlink:href="#DejaVuSans-20" x="555.896484"/>
      <use xlink:href="#DejaVuSans-64" x="587.683594"/>
      <use xlink:href="#DejaVuSans-75" x="651.160156"/>
      <use xlink:href="#DejaVuSans-72" x="714.539062"/>
      <use xlink:href="#DejaVuSans-61" x="755.652344"/>
      <use xlink:href="#DejaVuSans-74" x="816.931641"/>
      <use xlink:href="#DejaVuSans-69" x="856.140625"/>
      <use xlink:href="#DejaVuSans-6f" x="883.923828"/>
      <use xlink:href="#DejaVuSans-6e" x="945.105469"/>
      <use xlink:href="#DejaVuSans-20" x="1008.484375"/>
      <use xlink:href="#DejaVuSans-28" x="1040.271484"/>
      <use xlink:href="#DejaVuSans-6d" x="1079.285156"/>
      <use xlink:href="#DejaVuSans-73" x="1176.697266"/>
      <use xlink:href="#DejaVuSans-29" x="1228.796875"/>
     </g>
    </g>
   </g>
   <g id="PolyCollection_1">
    <defs>
     <path id="m780f52430d" d="M 137.747993 -56.559859 
L 137.436007 -56.559859 
L 137.311713 -58.983081 
L 137.119156 -61.406303 
L 136.841076 -63.829526 
L 136.465605 -66.252748 
L 135.98944 -68.67597 
L 135.41846 -71.099193 
L 134.765118 -73.522415 
L 134.043818 -75.945637 
L 133.267078 -78.36886 
L 132.44548 -80.792082 
L 131.592416 -83.215304 
L 130.731464 -85.638527 
L 129.90162 -88.061749 
L 129.155483 -90.484971 
L 128.548425 -92.908194 
L 128.121496 -95.331416 
L 127.884815 -97.754638 
L 127.809155 -100.177861 
L 127.830438 -102.601083 
L 127.865991 -105.024305 
L 127.835647 -107.447528 
L 127.678079 -109.87075 
L 127.354927 -112.293972 
L 126.841403 -114.717195 
L 126.108697 -117.140417 
L 125.107286 -119.563639 
L 123.759438 -121.986862 
L 121.965402 -124.410084 
L 119.623438 -126.833306 
L 116.660282 -129.256529 
L 113.065036 -131.679751 
L 108.915257 -134.102973 
L 104.381729 -136.526196 
L 99.702536 -138.949418 
L 95.129839 -141.37264 
L 90.868808 -143.795863 
L 87.036774 -146.219085 
L 83.663284 -148.642307 
L 80.730763 -151.06553 
L 78.233371 -153.488752 
L 76.222598 -155.911974 
L 74.817109 -158.335197 
L 74.1744 -160.758419 
L 74.440176 -163.181641 
L 75.69853 -165.604864 
L 77.940935 -168.028086 
L 81.060422 -170.451308 
L 84.866722 -172.874531 
L 89.113251 -175.297753 
L 93.528238 -177.720975 
L 97.84663 -180.144198 
L 101.842379 -182.56742 
L 105.359532 -184.990642 
L 108.336132 -187.413865 
L 110.811547 -189.837087 
L 112.909798 -192.260309 
L 114.799787 -194.683532 
L 116.643983 -197.106754 
L 118.553453 -199.529976 
L 120.564781 -201.953199 
L 122.644321 -204.376421 
L 124.713454 -206.799643 
L 126.681458 -209.222866 
L 128.472934 -211.646088 
L 130.042629 -214.06931 
L 131.377284 -216.492533 
L 132.488701 -218.915755 
L 133.403403 -221.338977 
L 134.153123 -223.7622 
L 134.768433 -226.185422 
L 135.275821 -228.608644 
L 135.697204 -231.031867 
L 136.0503 -233.455089 
L 136.348668 -235.878311 
L 136.601189 -238.301534 
L 136.811657 -240.724756 
L 136.979431 -243.147978 
L 137.101585 -245.571201 
L 137.176136 -247.994423 
L 137.205182 -250.417645 
L 137.196609 -252.840868 
L 137.163485 -255.26409 
L 137.121136 -257.687312 
L 137.082981 -260.110535 
L 137.056908 -262.533757 
L 137.043945 -264.956979 
L 137.039979 -267.380202 
L 137.039702 -269.803424 
L 137.040696 -272.226646 
L 137.045434 -274.649869 
L 137.060165 -277.073091 
L 137.091421 -279.496313 
L 137.142236 -281.919536 
L 137.210118 -284.342758 
L 137.287701 -286.76598 
L 137.36545 -289.189203 
L 137.434847 -291.612425 
L 137.490595 -294.035647 
L 137.531195 -296.45887 
L 137.652805 -296.45887 
L 137.652805 -296.45887 
L 137.693405 -294.035647 
L 137.749153 -291.612425 
L 137.81855 -289.189203 
L 137.896299 -286.76598 
L 137.973882 -284.342758 
L 138.041764 -281.919536 
L 138.092579 -279.496313 
L 138.123835 -277.073091 
L 138.138566 -274.649869 
L 138.143304 -272.226646 
L 138.144298 -269.803424 
L 138.144021 -267.380202 
L 138.140055 -264.956979 
L 138.127092 -262.533757 
L 138.101019 -260.110535 
L 138.062864 -257.687312 
L 138.020515 -255.26409 
L 137.987391 -252.840868 
L 137.978818 -250.417645 
L 138.007864 -247.994423 
L 138.082415 -245.571201 
L 138.204569 -243.147978 
L 138.372343 -240.724756 
L 138.582811 -238.301534 
L 138.835332 -235.878311 
L 139.1337 -233.455089 
L 139.486796 -231.031867 
L 139.908179 -228.608644 
L 140.415567 -226.185422 
L 141.030877 -223.7622 
L 141.780597 -221.338977 
L 142.695299 -218.915755 
L 143.806716 -216.492533 
L 145.141371 -214.06931 
L 146.711066 -211.646088 
L 148.502542 -209.222866 
L 150.470546 -206.799643 
L 152.539679 -204.376421 
L 154.619219 -201.953199 
L 156.630547 -199.529976 
L 158.540017 -197.106754 
L 160.384213 -194.683532 
L 162.274202 -192.260309 
L 164.372453 -189.837087 
L 166.847868 -187.413865 
L 169.824468 -184.990642 
L 173.341621 -182.56742 
L 177.33737 -180.144198 
L 181.655762 -177.720975 
L 186.070749 -175.297753 
L 190.317278 -172.874531 
L 194.123578 -170.451308 
L 197.243065 -168.028086 
L 199.48547 -165.604864 
L 200.743824 -163.181641 
L 201.0096 -160.758419 
L 200.366891 -158.335197 
L 198.961402 -155.911974 
L 196.950629 -153.488752 
L 194.453237 -151.06553 
L 191.520716 -148.642307 
L 188.147226 -146.219085 
L 184.315192 -143.795863 
L 180.054161 -141.37264 
L 175.481464 -138.949418 
L 170.802271 -136.526196 
L 166.268743 -134.102973 
L 162.118964 -131.679751 
L 158.523718 -129.256529 
L 155.560562 -126.833306 
L 153.218598 -124.410084 
L 151.424562 -121.986862 
L 150.076714 -119.563639 
L 149.075303 -117.140417 
L 148.342597 -114.717195 
L 147.829073 -112.293972 
L 147.505921 -109.87075 
L 147.348353 -107.447528 
L 147.318009 -105.024305 
L 147.353562 -102.601083 
L 147.374845 -100.177861 
L 147.299185 -97.754638 
L 147.062504 -95.331416 
L 146.635575 -92.908194 
L 146.028517 -90.484971 
L 145.28238 -88.061749 
L 144.452536 -85.638527 
L 143.591584 -83.215304 
L 142.73852 -80.792082 
L 141.916922 -78.36886 
L 141.140182 -75.945637 
L 140.418882 -73.522415 
L 139.76554 -71.099193 
L 139.19456 -68.67597 
L 138.718395 -66.252748 
L 138.342924 -63.829526 
L 138.064844 -61.406303 
L 137.872287 -58.983081 
L 137.747993 -56.559859 
z
" style="stroke: #595959; stroke-width: 1.25"/>
    </defs>
    <g clip-path="url(#pe9efd6e7d1)">
     <use xlink:href="#m780f52430d" x="0" y="432" style="fill: #72b6a1; stroke: #595959; stroke-width: 1.25"/>
    </g>
   </g>
   <g id="PolyCollection_2">
    <defs>
     <path id="m32e0b4a3c8" d="M 296.241288 -54.257948 
L 296.030712 -54.257948 
L 295.952122 -55.341566 
L 295.83646 -56.425185 
L 295.679987 -57.508803 
L 295.485584 -58.592422 
L 295.263963 -59.67604 
L 295.032248 -60.759658 
L 294.80994 -61.843277 
L 294.613657 -62.926895 
L 294.452801 -64.010513 
L 294.327935 -65.094132 
L 294.232311 -66.17775 
L 294.155587 -67.261368 
L 294.087997 -68.344987 
L 294.02333 -69.428605 
L 293.959773 -70.512223 
L 293.898511 -71.595842 
L 293.840897 -72.67946 
L 293.785544 -73.763078 
L 293.726747 -74.846697 
L 293.654901 -75.930315 
L 293.558451 -77.013933 
L 293.426255 -78.097552 
L 293.249516 -79.18117 
L 293.02335 -80.264789 
L 292.748549 -81.348407 
L 292.433449 -82.432025 
L 292.094407 -83.515644 
L 291.752911 -84.599262 
L 291.428721 -85.68288 
L 291.131198 -86.766499 
L 290.852971 -87.850117 
L 290.569297 -88.933735 
L 290.243081 -90.017354 
L 289.831882 -91.100972 
L 289.292139 -92.18459 
L 288.578145 -93.268209 
L 287.636949 -94.351827 
L 286.402434 -95.435445 
L 284.790831 -96.519064 
L 282.698009 -97.602682 
L 279.999299 -98.6863 
L 276.556819 -99.769919 
L 272.24391 -100.853537 
L 266.994821 -101.937155 
L 260.875844 -103.020774 
L 254.154904 -104.104392 
L 247.331891 -105.188011 
L 241.095346 -106.271629 
L 236.197841 -107.355247 
L 233.281915 -108.438866 
L 232.7184 -109.522484 
L 234.519241 -110.606102 
L 238.354662 -111.689721 
L 243.658447 -112.773339 
L 249.772038 -113.856957 
L 256.074636 -114.940576 
L 262.067984 -116.024194 
L 267.41219 -117.107812 
L 271.925762 -118.191431 
L 275.564919 -119.275049 
L 278.391582 -120.358667 
L 280.535241 -121.442286 
L 282.154051 -122.525904 
L 283.401892 -123.609522 
L 284.406942 -124.693141 
L 285.263179 -125.776759 
L 286.031686 -126.860378 
L 286.746813 -127.943996 
L 287.423362 -129.027614 
L 288.063494 -130.111233 
L 288.663494 -131.194851 
L 289.220133 -132.278469 
L 289.735097 -133.362088 
L 290.215812 -134.445706 
L 290.672548 -135.529324 
L 291.113923 -136.612943 
L 291.543832 -137.696561 
L 291.961496 -138.780179 
L 292.363863 -139.863798 
L 292.748142 -140.947416 
L 293.112738 -142.031034 
L 293.456641 -143.114653 
L 293.778512 -144.198271 
L 294.076551 -145.281889 
L 294.349119 -146.365508 
L 294.595392 -147.449126 
L 294.815513 -148.532745 
L 295.010415 -149.616363 
L 295.181759 -150.699981 
L 295.332104 -151.7836 
L 295.46491 -152.867218 
L 295.583924 -153.950836 
L 295.692055 -155.034455 
L 295.790387 -156.118073 
L 295.878034 -157.201691 
L 295.952986 -158.28531 
L 296.013456 -159.368928 
L 296.058973 -160.452546 
L 296.090727 -161.536165 
L 296.181273 -161.536165 
L 296.181273 -161.536165 
L 296.213027 -160.452546 
L 296.258544 -159.368928 
L 296.319014 -158.28531 
L 296.393966 -157.201691 
L 296.481613 -156.118073 
L 296.579945 -155.034455 
L 296.688076 -153.950836 
L 296.80709 -152.867218 
L 296.939896 -151.7836 
L 297.090241 -150.699981 
L 297.261585 -149.616363 
L 297.456487 -148.532745 
L 297.676608 -147.449126 
L 297.922881 -146.365508 
L 298.195449 -145.281889 
L 298.493488 -144.198271 
L 298.815359 -143.114653 
L 299.159262 -142.031034 
L 299.523858 -140.947416 
L 299.908137 -139.863798 
L 300.310504 -138.780179 
L 300.728168 -137.696561 
L 301.158077 -136.612943 
L 301.599452 -135.529324 
L 302.056188 -134.445706 
L 302.536903 -133.362088 
L 303.051867 -132.278469 
L 303.608506 -131.194851 
L 304.208506 -130.111233 
L 304.848638 -129.027614 
L 305.525187 -127.943996 
L 306.240314 -126.860378 
L 307.008821 -125.776759 
L 307.865058 -124.693141 
L 308.870108 -123.609522 
L 310.117949 -122.525904 
L 311.736759 -121.442286 
L 313.880418 -120.358667 
L 316.707081 -119.275049 
L 320.346238 -118.191431 
L 324.85981 -117.107812 
L 330.204016 -116.024194 
L 336.197364 -114.940576 
L 342.499962 -113.856957 
L 348.613553 -112.773339 
L 353.917338 -111.689721 
L 357.752759 -110.606102 
L 359.5536 -109.522484 
L 358.990085 -108.438866 
L 356.074159 -107.355247 
L 351.176654 -106.271629 
L 344.940109 -105.188011 
L 338.117096 -104.104392 
L 331.396156 -103.020774 
L 325.277179 -101.937155 
L 320.02809 -100.853537 
L 315.715181 -99.769919 
L 312.272701 -98.6863 
L 309.573991 -97.602682 
L 307.481169 -96.519064 
L 305.869566 -95.435445 
L 304.635051 -94.351827 
L 303.693855 -93.268209 
L 302.979861 -92.18459 
L 302.440118 -91.100972 
L 302.028919 -90.017354 
L 301.702703 -88.933735 
L 301.419029 -87.850117 
L 301.140802 -86.766499 
L 300.843279 -85.68288 
L 300.519089 -84.599262 
L 300.177593 -83.515644 
L 299.838551 -82.432025 
L 299.523451 -81.348407 
L 299.24865 -80.264789 
L 299.022484 -79.18117 
L 298.845745 -78.097552 
L 298.713549 -77.013933 
L 298.617099 -75.930315 
L 298.545253 -74.846697 
L 298.486456 -73.763078 
L 298.431103 -72.67946 
L 298.373489 -71.595842 
L 298.312227 -70.512223 
L 298.24867 -69.428605 
L 298.184003 -68.344987 
L 298.116413 -67.261368 
L 298.039689 -66.17775 
L 297.944065 -65.094132 
L 297.819199 -64.010513 
L 297.658343 -62.926895 
L 297.46206 -61.843277 
L 297.239752 -60.759658 
L 297.008037 -59.67604 
L 296.786416 -58.592422 
L 296.592013 -57.508803 
L 296.43554 -56.425185 
L 296.319878 -55.341566 
L 296.241288 -54.257948 
z
" style="stroke: #595959; stroke-width: 1.25"/>
    </defs>
    <g clip-path="url(#pe9efd6e7d1)">
     <use xlink:href="#m32e0b4a3c8" x="0" y="432" style="fill: #e99675; stroke: #595959; stroke-width: 1.25"/>
    </g>
   </g>
   <g id="PolyCollection_3">
    <defs>
     <path id="m7b21774071" d="M 454.799792 -99.809719 
L 454.560208 -99.809719 
L 454.480526 -102.717638 
L 454.367133 -105.625556 
L 454.217413 -108.533474 
L 454.034495 -111.441393 
L 453.828391 -114.349311 
L 453.61493 -117.257229 
L 453.412049 -120.165148 
L 453.234061 -123.073066 
L 453.085611 -125.980984 
L 452.957609 -128.888903 
L 452.827026 -131.796821 
L 452.661296 -134.704739 
L 452.426442 -137.612658 
L 452.096733 -140.520576 
L 451.663012 -143.428495 
L 451.137077 -146.336413 
L 450.550562 -149.244331 
L 449.948453 -152.15225 
L 449.379128 -155.060168 
L 448.884076 -157.968086 
L 448.490424 -160.876005 
L 448.208143 -163.783923 
L 448.031635 -166.691841 
L 447.943619 -169.59976 
L 447.918702 -172.507678 
L 447.925009 -175.415596 
L 447.9241 -178.323515 
L 447.870825 -181.231433 
L 447.714961 -184.139352 
L 447.40516 -187.04727 
L 446.893898 -189.955188 
L 446.140868 -192.863107 
L 445.112671 -195.771025 
L 443.778762 -198.678943 
L 442.106608 -201.586862 
L 440.061131 -204.49478 
L 437.613078 -207.402698 
L 434.757285 -210.310617 
L 431.535666 -213.218535 
L 428.054136 -216.126453 
L 424.481011 -219.034372 
L 421.019326 -221.94229 
L 417.856305 -224.850208 
L 415.105591 -227.758127 
L 412.76528 -230.666045 
L 410.712263 -233.573964 
L 408.74055 -236.481882 
L 406.63328 -239.3898 
L 404.243605 -242.297719 
L 401.555369 -245.205637 
L 398.702429 -248.113555 
L 395.94155 -251.021474 
L 393.59062 -253.929392 
L 391.954563 -256.83731 
L 391.2624 -259.745229 
L 391.631343 -262.653147 
L 393.062002 -265.561065 
L 395.458059 -268.468984 
L 398.658112 -271.376902 
L 402.467898 -274.284821 
L 406.685879 -277.192739 
L 411.120705 -280.100657 
L 415.602437 -283.008576 
L 419.989689 -285.916494 
L 424.173366 -288.824412 
L 428.076448 -291.732331 
L 431.649583 -294.640249 
L 434.863777 -297.548167 
L 437.70279 -300.456086 
L 440.157912 -303.364004 
L 442.226436 -306.271922 
L 443.913405 -309.179841 
L 445.234976 -312.087759 
L 446.221547 -314.995677 
L 446.919154 -317.903596 
L 447.388218 -320.811514 
L 447.699221 -323.719433 
L 447.925512 -326.627351 
L 448.134295 -329.535269 
L 448.377749 -332.443188 
L 448.686657 -335.351106 
L 449.068483 -338.259024 
L 449.51061 -341.166943 
L 449.9878 -344.074861 
L 450.471591 -346.982779 
L 450.938766 -349.890698 
L 451.376463 -352.798616 
L 451.782777 -355.706534 
L 452.163391 -358.614453 
L 452.526092 -361.522371 
L 452.875629 -364.43029 
L 453.210853 -367.338208 
L 453.524919 -370.246126 
L 453.807942 -373.154045 
L 454.050634 -376.061963 
L 454.247334 -378.969881 
L 454.397439 -381.8778 
L 454.505065 -384.785718 
L 454.577494 -387.693636 
L 454.782506 -387.693636 
L 454.782506 -387.693636 
L 454.854935 -384.785718 
L 454.962561 -381.8778 
L 455.112666 -378.969881 
L 455.309366 -376.061963 
L 455.552058 -373.154045 
L 455.835081 -370.246126 
L 456.149147 -367.338208 
L 456.484371 -364.43029 
L 456.833908 -361.522371 
L 457.196609 -358.614453 
L 457.577223 -355.706534 
L 457.983537 -352.798616 
L 458.421234 -349.890698 
L 458.888409 -346.982779 
L 459.3722 -344.074861 
L 459.84939 -341.166943 
L 460.291517 -338.259024 
L 460.673343 -335.351106 
L 460.982251 -332.443188 
L 461.225705 -329.535269 
L 461.434488 -326.627351 
L 461.660779 -323.719433 
L 461.971782 -320.811514 
L 462.440846 -317.903596 
L 463.138453 -314.995677 
L 464.125024 -312.087759 
L 465.446595 -309.179841 
L 467.133564 -306.271922 
L 469.202088 -303.364004 
L 471.65721 -300.456086 
L 474.496223 -297.548167 
L 477.710417 -294.640249 
L 481.283552 -291.732331 
L 485.186634 -288.824412 
L 489.370311 -285.916494 
L 493.757563 -283.008576 
L 498.239295 -280.100657 
L 502.674121 -277.192739 
L 506.892102 -274.284821 
L 510.701888 -271.376902 
L 513.901941 -268.468984 
L 516.297998 -265.561065 
L 517.728657 -262.653147 
L 518.0976 -259.745229 
L 517.405437 -256.83731 
L 515.76938 -253.929392 
L 513.41845 -251.021474 
L 510.657571 -248.113555 
L 507.804631 -245.205637 
L 505.116395 -242.297719 
L 502.72672 -239.3898 
L 500.61945 -236.481882 
L 498.647737 -233.573964 
L 496.59472 -230.666045 
L 494.254409 -227.758127 
L 491.503695 -224.850208 
L 488.340674 -221.94229 
L 484.878989 -219.034372 
L 481.305864 -216.126453 
L 477.824334 -213.218535 
L 474.602715 -210.310617 
L 471.746922 -207.402698 
L 469.298869 -204.49478 
L 467.253392 -201.586862 
L 465.581238 -198.678943 
L 464.247329 -195.771025 
L 463.219132 -192.863107 
L 462.466102 -189.955188 
L 461.95484 -187.04727 
L 461.645039 -184.139352 
L 461.489175 -181.231433 
L 461.4359 -178.323515 
L 461.434991 -175.415596 
L 461.441298 -172.507678 
L 461.416381 -169.59976 
L 461.328365 -166.691841 
L 461.151857 -163.783923 
L 460.869576 -160.876005 
L 460.475924 -157.968086 
L 459.980872 -155.060168 
L 459.411547 -152.15225 
L 458.809438 -149.244331 
L 458.222923 -146.336413 
L 457.696988 -143.428495 
L 457.263267 -140.520576 
L 456.933558 -137.612658 
L 456.698704 -134.704739 
L 456.532974 -131.796821 
L 456.402391 -128.888903 
L 456.274389 -125.980984 
L 456.125939 -123.073066 
L 455.947951 -120.165148 
L 455.74507 -117.257229 
L 455.531609 -114.349311 
L 455.325505 -111.441393 
L 455.142587 -108.533474 
L 454.992867 -105.625556 
L 454.879474 -102.717638 
L 454.799792 -99.809719 
z
" style="stroke: #595959; stroke-width: 1.25"/>
    </defs>
    <g clip-path="url(#pe9efd6e7d1)">
     <use xlink:href="#m7b21774071" x="0" y="432" style="fill: #95a3c3; stroke: #595959; stroke-width: 1.25"/>
    </g>
   </g>
   <g id="PolyCollection_4">
    <defs>
     <path id="m9cc604d232" d="M 613.269427 -59.405579 
L 613.178573 -59.405579 
L 613.134846 -60.880351 
L 613.067375 -62.355123 
L 612.976133 -63.829896 
L 612.867529 -65.304668 
L 612.752547 -66.779441 
L 612.64165 -68.254213 
L 612.539105 -69.728986 
L 612.439633 -71.203758 
L 612.328503 -72.67853 
L 612.184713 -74.153303 
L 611.98689 -75.628075 
L 611.721 -77.102848 
L 611.387094 -78.57762 
L 611.001648 -80.052393 
L 610.594909 -81.527165 
L 610.206288 -83.001937 
L 609.880047 -84.47671 
L 609.658877 -85.951482 
L 609.571223 -87.426255 
L 609.613727 -88.901027 
L 609.73852 -90.3758 
L 609.85767 -91.850572 
L 609.869758 -93.325345 
L 609.699648 -94.800117 
L 609.330583 -96.274889 
L 608.805779 -97.749662 
L 608.187217 -99.224434 
L 607.478907 -100.699207 
L 606.544022 -102.173979 
L 605.061745 -103.648752 
L 602.568649 -105.123524 
L 598.60021 -106.598296 
L 592.893742 -108.073069 
L 585.562977 -109.547841 
L 577.149168 -111.022614 
L 568.515212 -112.497386 
L 560.643672 -113.972159 
L 554.449105 -115.446931 
L 550.669764 -116.921703 
L 549.8064 -118.396476 
L 552.034757 -119.871248 
L 557.089463 -121.346021 
L 564.223981 -122.820793 
L 572.357363 -124.295566 
L 580.387451 -125.770338 
L 587.503485 -127.245111 
L 593.320709 -128.719883 
L 597.798897 -130.194655 
L 601.060117 -131.669428 
L 603.254435 -133.1442 
L 604.53371 -134.618973 
L 605.088551 -136.093745 
L 605.171051 -137.568518 
L 605.065961 -139.04329 
L 605.027151 -140.518062 
L 605.218817 -141.992835 
L 605.69008 -143.467607 
L 606.389453 -144.94238 
L 607.208613 -146.417152 
L 608.035574 -147.891925 
L 608.794823 -149.366697 
L 609.458814 -150.841469 
L 610.03188 -152.316242 
L 610.524463 -153.791014 
L 610.938776 -155.265787 
L 611.272879 -156.740559 
L 611.531996 -158.215332 
L 611.731785 -159.690104 
L 611.89075 -161.164877 
L 612.022434 -162.639649 
L 612.136607 -164.114421 
L 612.245775 -165.589194 
L 612.366045 -167.063966 
L 612.508636 -168.538739 
L 612.670394 -170.013511 
L 612.833665 -171.488284 
L 612.976369 -172.963056 
L 613.083745 -174.437828 
L 613.153405 -175.912601 
L 613.192505 -177.387373 
L 613.211547 -178.862146 
L 613.21956 -180.336918 
L 613.222264 -181.811691 
L 613.222273 -183.286463 
L 613.219806 -184.761235 
L 613.213056 -186.236008 
L 613.198344 -187.71078 
L 613.170833 -189.185553 
L 613.126739 -190.660325 
L 613.066952 -192.135098 
L 613.000169 -193.60987 
L 612.94242 -195.084643 
L 612.911336 -196.559415 
L 612.917558 -198.034187 
L 612.958899 -199.50896 
L 613.021573 -200.983732 
L 613.087567 -202.458505 
L 613.142836 -203.933277 
L 613.181381 -205.40805 
L 613.266619 -205.40805 
L 613.266619 -205.40805 
L 613.305164 -203.933277 
L 613.360433 -202.458505 
L 613.426427 -200.983732 
L 613.489101 -199.50896 
L 613.530442 -198.034187 
L 613.536664 -196.559415 
L 613.50558 -195.084643 
L 613.447831 -193.60987 
L 613.381048 -192.135098 
L 613.321261 -190.660325 
L 613.277167 -189.185553 
L 613.249656 -187.71078 
L 613.234944 -186.236008 
L 613.228194 -184.761235 
L 613.225727 -183.286463 
L 613.225736 -181.811691 
L 613.22844 -180.336918 
L 613.236453 -178.862146 
L 613.255495 -177.387373 
L 613.294595 -175.912601 
L 613.364255 -174.437828 
L 613.471631 -172.963056 
L 613.614335 -171.488284 
L 613.777606 -170.013511 
L 613.939364 -168.538739 
L 614.081955 -167.063966 
L 614.202225 -165.589194 
L 614.311393 -164.114421 
L 614.425566 -162.639649 
L 614.55725 -161.164877 
L 614.716215 -159.690104 
L 614.916004 -158.215332 
L 615.175121 -156.740559 
L 615.509224 -155.265787 
L 615.923537 -153.791014 
L 616.41612 -152.316242 
L 616.989186 -150.841469 
L 617.653177 -149.366697 
L 618.412426 -147.891925 
L 619.239387 -146.417152 
L 620.058547 -144.94238 
L 620.75792 -143.467607 
L 621.229183 -141.992835 
L 621.420849 -140.518062 
L 621.382039 -139.04329 
L 621.276949 -137.568518 
L 621.359449 -136.093745 
L 621.91429 -134.618973 
L 623.193565 -133.1442 
L 625.387883 -131.669428 
L 628.649103 -130.194655 
L 633.127291 -128.719883 
L 638.944515 -127.245111 
L 646.060549 -125.770338 
L 654.090637 -124.295566 
L 662.224019 -122.820793 
L 669.358537 -121.346021 
L 674.413243 -119.871248 
L 676.6416 -118.396476 
L 675.778236 -116.921703 
L 671.998895 -115.446931 
L 665.804328 -113.972159 
L 657.932788 -112.497386 
L 649.298832 -111.022614 
L 640.885023 -109.547841 
L 633.554258 -108.073069 
L 627.84779 -106.598296 
L 623.879351 -105.123524 
L 621.386255 -103.648752 
L 619.903978 -102.173979 
L 618.969093 -100.699207 
L 618.260783 -99.224434 
L 617.642221 -97.749662 
L 617.117417 -96.274889 
L 616.748352 -94.800117 
L 616.578242 -93.325345 
L 616.59033 -91.850572 
L 616.70948 -90.3758 
L 616.834273 -88.901027 
L 616.876777 -87.426255 
L 616.789123 -85.951482 
L 616.567953 -84.47671 
L 616.241712 -83.001937 
L 615.853091 -81.527165 
L 615.446352 -80.052393 
L 615.060906 -78.57762 
L 614.727 -77.102848 
L 614.46111 -75.628075 
L 614.263287 -74.153303 
L 614.119497 -72.67853 
L 614.008367 -71.203758 
L 613.908895 -69.728986 
L 613.80635 -68.254213 
L 613.695453 -66.779441 
L 613.580471 -65.304668 
L 613.471867 -63.829896 
L 613.380625 -62.355123 
L 613.313154 -60.880351 
L 613.269427 -59.405579 
z
" style="stroke: #595959; stroke-width: 1.25"/>
    </defs>
    <g clip-path="url(#pe9efd6e7d1)">
     <use xlink:href="#m9cc604d232" x="0" y="432" style="fill: #db96c0; stroke: #595959; stroke-width: 1.25"/>
    </g>
   </g>
   <g id="PolyCollection_5">
    <defs>
     <path id="m80edeab65d" d="M 771.826214 -53.566364 
L 771.709786 -53.566364 
L 771.649226 -54.779968 
L 771.554277 -55.993572 
L 771.428002 -57.207176 
L 771.287718 -58.42078 
L 771.160656 -59.634385 
L 771.069993 -60.847989 
L 771.018945 -62.061593 
L 770.984784 -63.275197 
L 770.928758 -64.488801 
L 770.816587 -65.702406 
L 770.63748 -66.91601 
L 770.410847 -68.129614 
L 770.175362 -69.343218 
L 769.96244 -70.556822 
L 769.766401 -71.770427 
L 769.532017 -72.984031 
L 769.175978 -74.197635 
L 768.638215 -75.411239 
L 767.934386 -76.624843 
L 767.172143 -77.838448 
L 766.510696 -79.052052 
L 766.075455 -80.265656 
L 765.863951 -81.47926 
L 765.681433 -82.692864 
L 765.132911 -83.906469 
L 763.689946 -85.120073 
L 760.840108 -86.333677 
L 756.289285 -87.547281 
L 750.124873 -88.760885 
L 742.823167 -89.97449 
L 735.06431 -91.188094 
L 727.474815 -92.401698 
L 720.507961 -93.615302 
L 714.568455 -94.828906 
L 710.243541 -96.042511 
L 708.3504 -97.256115 
L 709.637051 -98.469719 
L 714.297481 -99.683323 
L 721.675132 -100.896927 
L 730.41396 -102.110532 
L 738.977262 -103.324136 
L 746.201614 -104.53774 
L 751.581299 -105.751344 
L 755.208529 -106.964948 
L 757.50906 -108.178553 
L 758.972885 -109.392157 
L 760.00091 -110.605761 
L 760.871135 -111.819365 
L 761.760159 -113.032969 
L 762.762618 -114.246574 
L 763.896667 -115.460178 
L 765.114319 -116.673782 
L 766.328715 -117.887386 
L 767.447427 -119.10099 
L 768.394173 -120.314595 
L 769.115764 -121.528199 
L 769.584823 -122.741803 
L 769.806068 -123.955407 
L 769.822522 -125.169011 
L 769.712826 -126.382616 
L 769.574793 -127.59622 
L 769.497809 -128.809824 
L 769.534571 -130.023428 
L 769.687285 -131.237032 
L 769.917641 -132.450637 
L 770.17379 -133.664241 
L 770.415461 -134.877845 
L 770.62324 -136.091449 
L 770.79382 -137.305053 
L 770.932112 -138.518658 
L 771.046919 -139.732262 
L 771.148467 -140.945866 
L 771.244098 -142.15947 
L 771.333048 -143.373074 
L 771.405465 -144.586679 
L 771.448984 -145.800283 
L 771.459547 -147.013887 
L 771.448108 -148.227491 
L 771.436985 -149.441095 
L 771.447581 -150.6547 
L 771.488372 -151.868304 
L 771.551732 -153.081908 
L 771.620741 -154.295512 
L 771.679553 -155.509116 
L 771.719742 -156.72272 
L 771.739932 -157.936325 
L 771.741437 -159.149929 
L 771.724432 -160.363533 
L 771.687632 -161.577137 
L 771.631754 -162.790741 
L 771.564264 -164.004346 
L 771.501073 -165.21795 
L 771.461921 -166.431554 
L 771.460871 -167.645158 
L 771.498324 -168.858762 
L 771.560797 -170.072367 
L 771.62869 -171.285971 
L 771.68604 -172.499575 
L 771.725806 -173.713179 
L 771.810194 -173.713179 
L 771.810194 -173.713179 
L 771.84996 -172.499575 
L 771.90731 -171.285971 
L 771.975203 -170.072367 
L 772.037676 -168.858762 
L 772.075129 -167.645158 
L 772.074079 -166.431554 
L 772.034927 -165.21795 
L 771.971736 -164.004346 
L 771.904246 -162.790741 
L 771.848368 -161.577137 
L 771.811568 -160.363533 
L 771.794563 -159.149929 
L 771.796068 -157.936325 
L 771.816258 -156.72272 
L 771.856447 -155.509116 
L 771.915259 -154.295512 
L 771.984268 -153.081908 
L 772.047628 -151.868304 
L 772.088419 -150.6547 
L 772.099015 -149.441095 
L 772.087892 -148.227491 
L 772.076453 -147.013887 
L 772.087016 -145.800283 
L 772.130535 -144.586679 
L 772.202952 -143.373074 
L 772.291902 -142.15947 
L 772.387533 -140.945866 
L 772.489081 -139.732262 
L 772.603888 -138.518658 
L 772.74218 -137.305053 
L 772.91276 -136.091449 
L 773.120539 -134.877845 
L 773.36221 -133.664241 
L 773.618359 -132.450637 
L 773.848715 -131.237032 
L 774.001429 -130.023428 
L 774.038191 -128.809824 
L 773.961207 -127.59622 
L 773.823174 -126.382616 
L 773.713478 -125.169011 
L 773.729932 -123.955407 
L 773.951177 -122.741803 
L 774.420236 -121.528199 
L 775.141827 -120.314595 
L 776.088573 -119.10099 
L 777.207285 -117.887386 
L 778.421681 -116.673782 
L 779.639333 -115.460178 
L 780.773382 -114.246574 
L 781.775841 -113.032969 
L 782.664865 -111.819365 
L 783.53509 -110.605761 
L 784.563115 -109.392157 
L 786.02694 -108.178553 
L 788.327471 -106.964948 
L 791.954701 -105.751344 
L 797.334386 -104.53774 
L 804.558738 -103.324136 
L 813.12204 -102.110532 
L 821.860868 -100.896927 
L 829.238519 -99.683323 
L 833.898949 -98.469719 
L 835.1856 -97.256115 
L 833.292459 -96.042511 
L 828.967545 -94.828906 
L 823.028039 -93.615302 
L 816.061185 -92.401698 
L 808.47169 -91.188094 
L 800.712833 -89.97449 
L 793.411127 -88.760885 
L 787.246715 -87.547281 
L 782.695892 -86.333677 
L 779.846054 -85.120073 
L 778.403089 -83.906469 
L 777.854567 -82.692864 
L 777.672049 -81.47926 
L 777.460545 -80.265656 
L 777.025304 -79.052052 
L 776.363857 -77.838448 
L 775.601614 -76.624843 
L 774.897785 -75.411239 
L 774.360022 -74.197635 
L 774.003983 -72.984031 
L 773.769599 -71.770427 
L 773.57356 -70.556822 
L 773.360638 -69.343218 
L 773.125153 -68.129614 
L 772.89852 -66.91601 
L 772.719413 -65.702406 
L 772.607242 -64.488801 
L 772.551216 -63.275197 
L 772.517055 -62.061593 
L 772.466007 -60.847989 
L 772.375344 -59.634385 
L 772.248282 -58.42078 
L 772.107998 -57.207176 
L 771.981723 -55.993572 
L 771.886774 -54.779968 
L 771.826214 -53.566364 
z
" style="stroke: #595959; stroke-width: 1.25"/>
    </defs>
    <g clip-path="url(#pe9efd6e7d1)">
     <use xlink:href="#m80edeab65d" x="0" y="432" style="fill: #a2c865; stroke: #595959; stroke-width: 1.25"/>
    </g>
   </g>
   <g id="line2d_5">
    <path d="M 137.592 288.689534 
L 137.592 334.068243 
" clip-path="url(#pe9efd6e7d1)" style="fill: none; stroke: #000000"/>
   </g>
   <g id="line2d_6">
    <path d="M 137.592 257.423641 
L 137.592 211.10658 
" clip-path="url(#pe9efd6e7d1)" style="fill: none; stroke: #000000"/>
   </g>
   <g id="line2d_7">
    <path d="M 131.6466 334.068243 
L 143.5374 334.068243 
" clip-path="url(#pe9efd6e7d1)" style="fill: none; stroke: #000000; stroke-linecap: round"/>
   </g>
   <g id="line2d_8">
    <path d="M 131.6466 211.10658 
L 143.5374 211.10658 
" clip-path="url(#pe9efd6e7d1)" style="fill: none; stroke: #000000; stroke-linecap: round"/>
   </g>
   <g id="line2d_9">
    <path d="M 296.136 326.261153 
L 296.136 339.172879 
" clip-path="url(#pe9efd6e7d1)" style="fill: none; stroke: #000000"/>
   </g>
   <g id="line2d_10">
    <path d="M 296.136 317.553246 
L 296.136 304.528918 
" clip-path="url(#pe9efd6e7d1)" style="fill: none; stroke: #000000"/>
   </g>
   <g id="line2d_11">
    <path d="M 290.1906 339.172879 
L 302.0814 339.172879 
" clip-path="url(#pe9efd6e7d1)" style="fill: none; stroke: #000000; stroke-linecap: round"/>
   </g>
   <g id="line2d_12">
    <path d="M 290.1906 304.528918 
L 302.0814 304.528918 
" clip-path="url(#pe9efd6e7d1)" style="fill: none; stroke: #000000; stroke-linecap: round"/>
   </g>
   <g id="line2d_13">
    <path d="M 454.68 201.647991 
L 454.68 266.319219 
" clip-path="url(#pe9efd6e7d1)" style="fill: none; stroke: #000000"/>
   </g>
   <g id="line2d_14">
    <path d="M 454.68 158.465026 
L 454.68 95.914473 
" clip-path="url(#pe9efd6e7d1)" style="fill: none; stroke: #000000"/>
   </g>
   <g id="line2d_15">
    <path d="M 448.7346 266.319219 
L 460.6254 266.319219 
" clip-path="url(#pe9efd6e7d1)" style="fill: none; stroke: #000000; stroke-linecap: round"/>
   </g>
   <g id="line2d_16">
    <path d="M 448.7346 95.914473 
L 460.6254 95.914473 
" clip-path="url(#pe9efd6e7d1)" style="fill: none; stroke: #000000; stroke-linecap: round"/>
   </g>
   <g id="line2d_17">
    <path d="M 613.224 317.928587 
L 613.224 330.877846 
" clip-path="url(#pe9efd6e7d1)" style="fill: none; stroke: #000000"/>
   </g>
   <g id="line2d_18">
    <path d="M 613.224 309.033008 
L 613.224 296.046215 
" clip-path="url(#pe9efd6e7d1)" style="fill: none; stroke: #000000"/>
   </g>
   <g id="line2d_19">
    <path d="M 607.2786 330.877846 
L 619.1694 330.877846 
" clip-path="url(#pe9efd6e7d1)" style="fill: none; stroke: #000000; stroke-linecap: round"/>
   </g>
   <g id="line2d_20">
    <path d="M 607.2786 296.046215 
L 619.1694 296.046215 
" clip-path="url(#pe9efd6e7d1)" style="fill: none; stroke: #000000; stroke-linecap: round"/>
   </g>
   <g id="line2d_21">
    <path d="M 771.768 338.534799 
L 771.768 349.870093 
" clip-path="url(#pe9efd6e7d1)" style="fill: none; stroke: #000000"/>
   </g>
   <g id="line2d_22">
    <path d="M 771.768 330.821545 
L 771.768 319.392416 
" clip-path="url(#pe9efd6e7d1)" style="fill: none; stroke: #000000"/>
   </g>
   <g id="line2d_23">
    <path d="M 765.8226 349.870093 
L 777.7134 349.870093 
" clip-path="url(#pe9efd6e7d1)" style="fill: none; stroke: #000000; stroke-linecap: round"/>
   </g>
   <g id="line2d_24">
    <path d="M 765.8226 319.392416 
L 777.7134 319.392416 
" clip-path="url(#pe9efd6e7d1)" style="fill: none; stroke: #000000; stroke-linecap: round"/>
   </g>
   <g id="line2d_25">
    <path d="M 125.7012 271.986866 
L 149.4828 271.986866 
" clip-path="url(#pe9efd6e7d1)" style="fill: none; stroke: #ff0000; stroke-width: 2"/>
   </g>
   <g id="line2d_26">
    <path d="M 284.2452 322.770484 
L 308.0268 322.770484 
" clip-path="url(#pe9efd6e7d1)" style="fill: none; stroke: #ff0000; stroke-width: 2"/>
   </g>
   <g id="line2d_27">
    <path d="M 442.7892 175.674404 
L 466.5708 175.674404 
" clip-path="url(#pe9efd6e7d1)" style="fill: none; stroke: #ff0000; stroke-width: 2"/>
   </g>
   <g id="line2d_28">
    <path d="M 601.3332 313.161758 
L 625.1148 313.161758 
" clip-path="url(#pe9efd6e7d1)" style="fill: none; stroke: #ff0000; stroke-width: 2"/>
   </g>
   <g id="line2d_29">
    <path d="M 759.8772 334.105777 
L 783.6588 334.105777 
" clip-path="url(#pe9efd6e7d1)" style="fill: none; stroke: #ff0000; stroke-width: 2"/>
   </g>
   <g id="patch_3">
    <path d="M 58.32 395.14 
L 58.32 27.6 
" style="fill: none; stroke: #cccccc; stroke-width: 1.25; stroke-linejoin: miter; stroke-linecap: square"/>
   </g>
   <g id="patch_4">
    <path d="M 851.04 395.14 
L 851.04 27.6 
" style="fill: none; stroke: #cccccc; stroke-width: 1.25; stroke-linejoin: miter; stroke-linecap: square"/>
   </g>
   <g id="patch_5">
    <path d="M 58.32 395.14 
L 851.04 395.14 
" style="fill: none; stroke: #cccccc; stroke-width: 1.25; stroke-linejoin: miter; stroke-linecap: square"/>
   </g>
   <g id="patch_6">
    <path d="M 58.32 27.6 
L 851.04 27.6 
" style="fill: none; stroke: #cccccc; stroke-width: 1.25; stroke-linejoin: miter; stroke-linecap: square"/>
   </g>
   <g id="text_11">
    <!-- Handshake duration on TLS with secp384r1 signature algorithm — Degraded (200ms/10%) -->
    <g style="fill: #262626" transform="translate(181.07625 21.6) scale(0.12 -0.12)">
     <defs>
      <path id="DejaVuSans-54" d="M -19 4666 
L 3928 4666 
L 3928 4134 
L 2272 4134 
L 2272 0 
L 1638 0 
L 1638 4134 
L -19 4134 
L -19 4666 
z
" transform="scale(0.015625)"/>
      <path id="DejaVuSans-4c" d="M 628 4666 
L 1259 4666 
L 1259 531 
L 3531 531 
L 3531 0 
L 628 0 
L 628 4666 
z
" transform="scale(0.015625)"/>
      <path id="DejaVuSans-53" d="M 3425 4513 
L 3425 3897 
Q 3066 4069 2747 4153 
Q 2428 4238 2131 4238 
Q 1616 4238 1336 4038 
Q 1056 3838 1056 3469 
Q 1056 3159 1242 3001 
Q 1428 2844 1947 2747 
L 2328 2669 
Q 3034 2534 3370 2195 
Q 3706 1856 3706 1288 
Q 3706 609 3251 259 
Q 2797 -91 1919 -91 
Q 1588 -91 1214 -16 
Q 841 59 441 206 
L 441 856 
Q 825 641 1194 531 
Q 1563 422 1919 422 
Q 2459 422 2753 634 
Q 3047 847 3047 1241 
Q 3047 1584 2836 1778 
Q 2625 1972 2144 2069 
L 1759 2144 
Q 1053 2284 737 2584 
Q 422 2884 422 3419 
Q 422 4038 858 4394 
Q 1294 4750 2059 4750 
Q 2388 4750 2728 4690 
Q 3069 4631 3425 4513 
z
" transform="scale(0.015625)"/>
      <path id="DejaVuSans-77" d="M 269 3500 
L 844 3500 
L 1563 769 
L 2278 3500 
L 2956 3500 
L 3675 769 
L 4391 3500 
L 4966 3500 
L 4050 0 
L 3372 0 
L 2619 2869 
L 1863 0 
L 1184 0 
L 269 3500 
z
" transform="scale(0.015625)"/>
      <path id="DejaVuSans-63" d="M 3122 3366 
L 3122 2828 
Q 2878 2963 2633 3030 
Q 2388 3097 2138 3097 
Q 1578 3097 1268 2742 
Q 959 2388 959 1747 
Q 959 1106 1268 751 
Q 1578 397 2138 397 
Q 2388 397 2633 464 
Q 2878 531 3122 666 
L 3122 134 
Q 2881 22 2623 -34 
Q 2366 -91 2075 -91 
Q 1284 -91 818 406 
Q 353 903 353 1747 
Q 353 2603 823 3093 
Q 1294 3584 2113 3584 
Q 2378 3584 2631 3529 
Q 2884 3475 3122 3366 
z
" transform="scale(0.015625)"/>
      <path id="DejaVuSans-31" d="M 794 531 
L 1825 531 
L 1825 4091 
L 703 3866 
L 703 4441 
L 1819 4666 
L 2450 4666 
L 2450 531 
L 3481 531 
L 3481 0 
L 794 0 
L 794 531 
z
" transform="scale(0.015625)"/>
      <path id="DejaVuSans-67" d="M 2906 1791 
Q 2906 2416 2648 2759 
Q 2391 3103 1925 3103 
Q 1463 3103 1205 2759 
Q 947 2416 947 1791 
Q 947 1169 1205 825 
Q 1463 481 1925 481 
Q 2391 481 2648 825 
Q 2906 1169 2906 1791 
z
M 3481 434 
Q 3481 -459 3084 -895 
Q 2688 -1331 1869 -1331 
Q 1566 -1331 1297 -1286 
Q 1028 -1241 775 -1147 
L 775 -588 
Q 1028 -725 1275 -790 
Q 1522 -856 1778 -856 
Q 2344 -856 2625 -561 
Q 2906 -266 2906 331 
L 2906 616 
Q 2728 306 2450 153 
Q 2172 0 1784 0 
Q 1141 0 747 490 
Q 353 981 353 1791 
Q 353 2603 747 3093 
Q 1141 3584 1784 3584 
Q 2172 3584 2450 3431 
Q 2728 3278 2906 2969 
L 2906 3500 
L 3481 3500 
L 3481 434 
z
" transform="scale(0.015625)"/>
      <path id="DejaVuSans-2014" d="M 313 1978 
L 6088 1978 
L 6088 1528 
L 313 1528 
L 313 1978 
z
" transform="scale(0.015625)"/>
      <path id="DejaVuSans-44" d="M 1259 4147 
L 1259 519 
L 2022 519 
Q 2988 519 3436 956 
Q 3884 1394 3884 2338 
Q 3884 3275 3436 3711 
Q 2988 4147 2022 4147 
L 1259 4147 
z
M 628 4666 
L 1925 4666 
Q 3281 4666 3915 4102 
Q 4550 3538 4550 2338 
Q 4550 1131 3912 565 
Q 3275 0 1925 0 
L 628 0 
L 628 4666 
z
" transform="scale(0.015625)"/>
      <path id="DejaVuSans-2f" d="M 1625 4666 
L 2156 4666 
L 531 -594 
L 0 -594 
L 1625 4666 
z
" transform="scale(0.015625)"/>
      <path id="DejaVuSans-25" d="M 4653 2053 
Q 4381 2053 4226 1822 
Q 4072 1591 4072 1178 
Q 4072 772 4226 539 
Q 4381 306 4653 306 
Q 4919 306 5073 539 
Q 5228 772 5228 1178 
Q 5228 1588 5073 1820 
Q 4919 2053 4653 2053 
z
M 4653 2450 
Q 5147 2450 5437 2106 
Q 5728 1763 5728 1178 
Q 5728 594 5436 251 
Q 5144 -91 4653 -91 
Q 4153 -91 3862 251 
Q 3572 594 3572 1178 
Q 3572 1766 3864 2108 
Q 4156 2450 4653 2450 
z
M 1428 4353 
Q 1159 4353 1004 4120 
Q 850 3888 850 3481 
Q 850 3069 1003 2837 
Q 1156 2606 1428 2606 
Q 1700 2606 1854 2837 
Q 2009 3069 2009 3481 
Q 2009 3884 1853 4118 
Q 1697 4353 1428 4353 
z
M 4250 4750 
L 4750 4750 
L 1831 -91 
L 1331 -91 
L 4250 4750 
z
M 1428 4750 
Q 1922 4750 2215 4408 
Q 2509 4066 2509 3481 
Q 2509 2891 2217 2550 
Q 1925 2209 1428 2209 
Q 931 2209 642 2551 
Q 353 2894 353 3481 
Q 353 4063 643 4406 
Q 934 4750 1428 4750 
z
" transform="scale(0.015625)"/>
     </defs>
     <use xlink:href="#DejaVuSans-48"/>
     <use xlink:href="#DejaVuSans-61" x="75.195312"/>
     <use xlink:href="#DejaVuSans-6e" x="136.474609"/>
     <use xlink:href="#DejaVuSans-64" x="199.853516"/>
     <use xlink:href="#DejaVuSans-73" x="263.330078"/>
     <use xlink:href="#DejaVuSans-68" x="315.429688"/>
     <use xlink:href="#DejaVuSans-61" x="378.808594"/>
     <use xlink:href="#DejaVuSans-6b" x="440.087891"/>
     <use xlink:href="#DejaVuSans-65" x="494.373047"/>
     <use xlink:href="#DejaVuSans-20" x="555.896484"/>
     <use xlink:href="#DejaVuSans-64" x="587.683594"/>
     <use xlink:href="#DejaVuSans-75" x="651.160156"/>
     <use xlink:href="#DejaVuSans-72" x="714.539062"/>
     <use xlink:href="#DejaVuSans-61" x="755.652344"/>
     <use xlink:href="#DejaVuSans-74" x="816.931641"/>
     <use xlink:href="#DejaVuSans-69" x="856.140625"/>
     <use xlink:href="#DejaVuSans-6f" x="883.923828"/>
     <use xlink:href="#DejaVuSans-6e" x="945.105469"/>
     <use xlink:href="#DejaVuSans-20" x="1008.484375"/>
     <use xlink:href="#DejaVuSans-6f" x="1040.271484"/>
     <use xlink:href="#DejaVuSans-6e" x="1101.453125"/>
     <use xlink:href="#DejaVuSans-20" x="1164.832031"/>
     <use xlink:href="#DejaVuSans-54" x="1196.619141"/>
     <use xlink:href="#DejaVuSans-4c" x="1257.703125"/>
     <use xlink:href="#DejaVuSans-53" x="1313.416016"/>
     <use xlink:href="#DejaVuSans-20" x="1376.892578"/>
     <use xlink:href="#DejaVuSans-77" x="1408.679688"/>
     <use xlink:href="#DejaVuSans-69" x="1490.466797"/>
     <use xlink:href="#DejaVuSans-74" x="1518.25"/>
     <use xlink:href="#DejaVuSans-68" x="1557.458984"/>
     <use xlink:href="#DejaVuSans-20" x="1620.837891"/>
     <use xlink:href="#DejaVuSans-73" x="1652.625"/>
     <use xlink:href="#DejaVuSans-65" x="1704.724609"/>
     <use xlink:href="#DejaVuSans-63" x="1766.248047"/>
     <use xlink:href="#DejaVuSans-70" x="1821.228516"/>
     <use xlink:href="#DejaVuSans-33" x="1884.705078"/>
     <use xlink:href="#DejaVuSans-38" x="1948.328125"/>
     <use xlink:href="#DejaVuSans-34" x="2011.951172"/>
     <use xlink:href="#DejaVuSans-72" x="2075.574219"/>
     <use xlink:href="#DejaVuSans-31" x="2116.6875"/>
     <use xlink:href="#DejaVuSans-20" x="2180.310547"/>
     <use xlink:href="#DejaVuSans-73" x="2212.097656"/>
     <use xlink:href="#DejaVuSans-69" x="2264.197266"/>
     <use xlink:href="#DejaVuSans-67" x="2291.980469"/>
     <use xlink:href="#DejaVuSans-6e" x="2355.457031"/>
     <use xlink:href="#DejaVuSans-61" x="2418.835938"/>
     <use xlink:href="#DejaVuSans-74" x="2480.115234"/>
     <use xlink:href="#DejaVuSans-75" x="2519.324219"/>
     <use xlink:href="#DejaVuSans-72" x="2582.703125"/>
     <use xlink:href="#DejaVuSans-65" x="2621.566406"/>
     <use xlink:href="#DejaVuSans-20" x="2683.089844"/>
     <use xlink:href="#DejaVuSans-61" x="2714.876953"/>
     <use xlink:href="#DejaVuSans-6c" x="2776.15625"/>
     <use xlink:href="#DejaVuSans-67" x="2803.939453"/>
     <use xlink:href="#DejaVuSans-6f" x="2867.416016"/>
     <use xlink:href="#DejaVuSans-72" x="2928.597656"/>
     <use xlink:href="#DejaVuSans-69" x="2969.710938"/>
     <use xlink:href="#DejaVuSans-74" x="2997.494141"/>
     <use xlink:href="#DejaVuSans-68" x="3036.703125"/>
     <use xlink:href="#DejaVuSans-6d" x="3100.082031"/>
     <use xlink:href="#DejaVuSans-20" x="3197.494141"/>
     <use xlink:href="#DejaVuSans-2014" x="3229.28125"/>
     <use xlink:href="#DejaVuSans-20" x="3329.28125"/>
     <use xlink:href="#DejaVuSans-44" x="3361.068359"/>
     <use xlink:href="#DejaVuSans-65" x="3438.070312"/>
     <use xlink:href="#DejaVuSans-67" x="3499.59375"/>
     <use xlink:href="#DejaVuSans-72" x="3563.070312"/>
     <use xlink:href="#DejaVuSans-61" x="3604.183594"/>
     <use xlink:href="#DejaVuSans-64" x="3665.462891"/>
     <use xlink:href="#DejaVuSans-65" x="3728.939453"/>
     <use xlink:href="#DejaVuSans-64" x="3790.462891"/>
     <use xlink:href="#DejaVuSans-20" x="3853.939453"/>
     <use xlink:href="#DejaVuSans-28" x="3885.726562"/>
     <use xlink:href="#DejaVuSans-32" x="3924.740234"/>
     <use xlink:href="#DejaVuSans-30" x="3988.363281"/>
     <use xlink:href="#DejaVuSans-30" x="4051.986328"/>
     <use xlink:href="#DejaVuSans-6d" x="4115.609375"/>
     <use xlink:href="#DejaVuSans-73" x="4213.021484"/>
     <use xlink:href="#DejaVuSans-2f" x="4265.121094"/>
     <use xlink:href="#DejaVuSans-31" x="4298.8125"/>
     <use xlink:href="#DejaVuSans-30" x="4362.435547"/>
     <use xlink:href="#DejaVuSans-25" x="4426.058594"/>
     <use xlink:href="#DejaVuSans-29" x="4521.078125"/>
    </g>
   </g>
  </g>
 </g>
 <defs>
  <clipPath id="pe9efd6e7d1">
   <rect x="58.32" y="27.6" width="792.72" height="367.54"/>
  </clipPath>
 </defs>
</svg>
