<?xml version="1.0" encoding="utf-8" standalone="no"?>
<!DOCTYPE svg PUBLIC "-//W3C//DTD SVG 1.1//EN"
  "http://www.w3.org/Graphics/SVG/1.1/DTD/svg11.dtd">
<svg xmlns:xlink="http://www.w3.org/1999/xlink" width="864pt" height="432pt" viewBox="0 0 864 432" xmlns="http://www.w3.org/2000/svg" version="1.1">
 <metadata>
  <rdf:RDF xmlns:dc="http://purl.org/dc/elements/1.1/" xmlns:cc="http://creativecommons.org/ns#" xmlns:rdf="http://www.w3.org/1999/02/22-rdf-syntax-ns#">
   <cc:Work>
    <dc:type rdf:resource="http://purl.org/dc/dcmitype/StillImage"/>
    <dc:date>2026-03-21T13:58:44.917105</dc:date>
    <dc:format>image/svg+xml</dc:format>
    <dc:creator>
     <cc:Agent>
      <dc:title>Matplotlib v3.6.3, https://matplotlib.org/</dc:title>
     </cc:Agent>
    </dc:creator>
   </cc:Work>
  </rdf:RDF>
 </metadata>
 <defs>
  <style type="text/css">*{stroke-linejoin: round; stroke-linecap: butt}</style>
 </defs>
 <g id="figure_1">
  <g id="patch_1">
   <path d="M 0 432 
L 864 432 
L 864 0 
L 0 0 
z
" style="fill: #ffffff"/>
  </g>
  <g id="axes_1">
   <g id="patch_2">
    <path d="M 58.32 395.14 
L 851.04 395.14 
L 851.04 27.6 
L 58.32 27.6 
z
" style="fill: #ffffff"/>
   </g>
   <g id="matplotlib.axis_1">
    <g id="xtick_1">
     <g id="text_1">
      <!-- P-521 -->
      <g style="fill: #262626" transform="translate(170.49 415.277812) scale(0.14 -0.14)">
       <defs>
        <path id="DejaVuSans-50" d="M 1259 4147 
L 1259 2394 
L 2053 2394 
Q 2494 2394 2734 2622 
Q 2975 2850 2975 3272 
Q 2975 3691 2734 3919 
Q 2494 4147 2053 4147 
L 1259 4147 
z
M 628 4666 
L 2053 4666 
Q 2838 4666 3239 4311 
Q 3641 3956 3641 3272 
Q 3641 2581 3239 2228 
Q 2838 1875 2053 1875 
L 1259 1875 
L 1259 0 
L 628 0 
L 628 4666 
z
" transform="scale(0.015625)"/>
        <path id="DejaVuSans-2d" d="M 313 2009 
L 1997 2009 
L 1997 1497 
L 313 1497 
L 313 2009 
z
" transform="scale(0.015625)"/>
        <path id="DejaVuSans-35" d="M 691 4666 
L 3169 4666 
L 3169 4134 
L 1269 4134 
L 1269 2991 
Q 1406 3038 1543 3061 
Q 1681 3084 1819 3084 
Q 2600 3084 3056 2656 
Q 3513 2228 3513 1497 
Q 3513 744 3044 326 
Q 2575 -91 1722 -91 
Q 1428 -91 1123 -41 
Q 819 9 494 109 
L 494 744 
Q 775 591 1075 516 
Q 1375 441 1709 441 
Q 2250 441 2565 725 
Q 2881 1009 2881 1497 
Q 2881 1984 2565 2268 
Q 2250 2553 1709 2553 
Q 1456 2553 1204 2497 
Q 953 2441 691 2322 
L 691 4666 
z
" transform="scale(0.015625)"/>
        <path id="DejaVuSans-32" d="M 1228 531 
L 3431 531 
L 3431 0 
L 469 0 
L 469 531 
Q 828 903 1448 1529 
Q 2069 2156 2228 2338 
Q 2531 2678 2651 2914 
Q 2772 3150 2772 3378 
Q 2772 3750 2511 3984 
Q 2250 4219 1831 4219 
Q 1534 4219 1204 4116 
Q 875 4013 500 3803 
L 500 4441 
Q 881 4594 1212 4672 
Q 1544 4750 1819 4750 
Q 2544 4750 2975 4387 
Q 3406 4025 3406 3419 
Q 3406 3131 3298 2873 
Q 3191 2616 2906 2266 
Q 2828 2175 2409 1742 
Q 1991 1309 1228 531 
z
" transform="scale(0.015625)"/>
        <path id="DejaVuSans-31" d="M 794 531 
L 1825 531 
L 1825 4091 
L 703 3866 
L 703 4441 
L 1819 4666 
L 2450 4666 
L 2450 531 
L 3481 531 
L 3481 0 
L 794 0 
L 794 531 
z
" transform="scale(0.015625)"/>
       </defs>
       <use xlink:href="#DejaVuSans-50"/>
       <use xlink:href="#DejaVuSans-2d" x="58.052734"/>
       <use xlink:href="#DejaVuSans-35" x="94.136719"/>
       <use xlink:href="#DejaVuSans-32" x="157.759766"/>
       <use xlink:href="#DejaVuSans-31" x="221.382812"/>
      </g>
     </g>
    </g>
    <g id="xtick_2">
     <g id="text_2">
      <!-- p521_mlkem1024 -->
      <g style="fill: #262626" transform="translate(391.871406 415.277812) scale(0.14 -0.14)">
       <defs>
        <path id="DejaVuSans-70" d="M 1159 525 
L 1159 -1331 
L 581 -1331 
L 581 3500 
L 1159 3500 
L 1159 2969 
Q 1341 3281 1617 3432 
Q 1894 3584 2278 3584 
Q 2916 3584 3314 3078 
Q 3713 2572 3713 1747 
Q 3713 922 3314 415 
Q 2916 -91 2278 -91 
Q 1894 -91 1617 61 
Q 1341 213 1159 525 
z
M 3116 1747 
Q 3116 2381 2855 2742 
Q 2594 3103 2138 3103 
Q 1681 3103 1420 2742 
Q 1159 2381 1159 1747 
Q 1159 1113 1420 752 
Q 1681 391 2138 391 
Q 2594 391 2855 752 
Q 3116 1113 3116 1747 
z
" transform="scale(0.015625)"/>
        <path id="DejaVuSans-5f" d="M 3263 -1063 
L 3263 -1509 
L -63 -1509 
L -63 -1063 
L 3263 -1063 
z
" transform="scale(0.015625)"/>
        <path id="DejaVuSans-6d" d="M 3328 2828 
Q 3544 3216 3844 3400 
Q 4144 3584 4550 3584 
Q 5097 3584 5394 3201 
Q 5691 2819 5691 2113 
L 5691 0 
L 5113 0 
L 5113 2094 
Q 5113 2597 4934 2840 
Q 4756 3084 4391 3084 
Q 3944 3084 3684 2787 
Q 3425 2491 3425 1978 
L 3425 0 
L 2847 0 
L 2847 2094 
Q 2847 2600 2669 2842 
Q 2491 3084 2119 3084 
Q 1678 3084 1418 2786 
Q 1159 2488 1159 1978 
L 1159 0 
L 581 0 
L 581 3500 
L 1159 3500 
L 1159 2956 
Q 1356 3278 1631 3431 
Q 1906 3584 2284 3584 
Q 2666 3584 2933 3390 
Q 3200 3197 3328 2828 
z
" transform="scale(0.015625)"/>
        <path id="DejaVuSans-6c" d="M 603 4863 
L 1178 4863 
L 1178 0 
L 603 0 
L 603 4863 
z
" transform="scale(0.015625)"/>
        <path id="DejaVuSans-6b" d="M 581 4863 
L 1159 4863 
L 1159 1991 
L 2875 3500 
L 3609 3500 
L 1753 1863 
L 3688 0 
L 2938 0 
L 1159 1709 
L 1159 0 
L 581 0 
L 581 4863 
z
" transform="scale(0.015625)"/>
        <path id="DejaVuSans-65" d="M 3597 1894 
L 3597 1613 
L 953 1613 
Q 991 1019 1311 708 
Q 1631 397 2203 397 
Q 2534 397 2845 478 
Q 3156 559 3463 722 
L 3463 178 
Q 3153 47 2828 -22 
Q 2503 -91 2169 -91 
Q 1331 -91 842 396 
Q 353 884 353 1716 
Q 353 2575 817 3079 
Q 1281 3584 2069 3584 
Q 2775 3584 3186 3129 
Q 3597 2675 3597 1894 
z
M 3022 2063 
Q 3016 2534 2758 2815 
Q 2500 3097 2075 3097 
Q 1594 3097 1305 2825 
Q 1016 2553 972 2059 
L 3022 2063 
z
" transform="scale(0.015625)"/>
        <path id="DejaVuSans-30" d="M 2034 4250 
Q 1547 4250 1301 3770 
Q 1056 3291 1056 2328 
Q 1056 1369 1301 889 
Q 1547 409 2034 409 
Q 2525 409 2770 889 
Q 3016 1369 3016 2328 
Q 3016 3291 2770 3770 
Q 2525 4250 2034 4250 
z
M 2034 4750 
Q 2819 4750 3233 4129 
Q 3647 3509 3647 2328 
Q 3647 1150 3233 529 
Q 2819 -91 2034 -91 
Q 1250 -91 836 529 
Q 422 1150 422 2328 
Q 422 3509 836 4129 
Q 1250 4750 2034 4750 
z
" transform="scale(0.015625)"/>
        <path id="DejaVuSans-34" d="M 2419 4116 
L 825 1625 
L 2419 1625 
L 2419 4116 
z
M 2253 4666 
L 3047 4666 
L 3047 1625 
L 3713 1625 
L 3713 1100 
L 3047 1100 
L 3047 0 
L 2419 0 
L 2419 1100 
L 313 1100 
L 313 1709 
L 2253 4666 
z
" transform="scale(0.015625)"/>
       </defs>
       <use xlink:href="#DejaVuSans-70"/>
       <use xlink:href="#DejaVuSans-35" x="63.476562"/>
       <use xlink:href="#DejaVuSans-32" x="127.099609"/>
       <use xlink:href="#DejaVuSans-31" x="190.722656"/>
       <use xlink:href="#DejaVuSans-5f" x="254.345703"/>
       <use xlink:href="#DejaVuSans-6d" x="304.345703"/>
       <use xlink:href="#DejaVuSans-6c" x="401.757812"/>
       <use xlink:href="#DejaVuSans-6b" x="429.541016"/>
       <use xlink:href="#DejaVuSans-65" x="483.826172"/>
       <use xlink:href="#DejaVuSans-6d" x="545.349609"/>
       <use xlink:href="#DejaVuSans-31" x="642.761719"/>
       <use xlink:href="#DejaVuSans-30" x="706.384766"/>
       <use xlink:href="#DejaVuSans-32" x="770.007812"/>
       <use xlink:href="#DejaVuSans-34" x="833.630859"/>
      </g>
     </g>
    </g>
    <g id="xtick_3">
     <g id="text_3">
      <!-- mlkem1024 -->
      <g style="fill: #262626" transform="translate(677.416562 415.277812) scale(0.14 -0.14)">
       <use xlink:href="#DejaVuSans-6d"/>
       <use xlink:href="#DejaVuSans-6c" x="97.412109"/>
       <use xlink:href="#DejaVuSans-6b" x="125.195312"/>
       <use xlink:href="#DejaVuSans-65" x="179.480469"/>
       <use xlink:href="#DejaVuSans-6d" x="241.003906"/>
       <use xlink:href="#DejaVuSans-31" x="338.416016"/>
       <use xlink:href="#DejaVuSans-30" x="402.039062"/>
       <use xlink:href="#DejaVuSans-32" x="465.662109"/>
       <use xlink:href="#DejaVuSans-34" x="529.285156"/>
      </g>
     </g>
    </g>
   </g>
   <g id="matplotlib.axis_2">
    <g id="ytick_1">
     <g id="line2d_1">
      <path d="M 58.32 325.970809 
L 851.04 325.970809 
" clip-path="url(#p8187b980c9)" style="fill: none; stroke: #cccccc; stroke-linecap: round"/>
     </g>
     <g id="text_4">
      <!-- 820 -->
      <g style="fill: #262626" transform="translate(27.82375 330.14995) scale(0.11 -0.11)">
       <defs>
        <path id="DejaVuSans-38" d="M 2034 2216 
Q 1584 2216 1326 1975 
Q 1069 1734 1069 1313 
Q 1069 891 1326 650 
Q 1584 409 2034 409 
Q 2484 409 2743 651 
Q 3003 894 3003 1313 
Q 3003 1734 2745 1975 
Q 2488 2216 2034 2216 
z
M 1403 2484 
Q 997 2584 770 2862 
Q 544 3141 544 3541 
Q 544 4100 942 4425 
Q 1341 4750 2034 4750 
Q 2731 4750 3128 4425 
Q 3525 4100 3525 3541 
Q 3525 3141 3298 2862 
Q 3072 2584 2669 2484 
Q 3125 2378 3379 2068 
Q 3634 1759 3634 1313 
Q 3634 634 3220 271 
Q 2806 -91 2034 -91 
Q 1263 -91 848 271 
Q 434 634 434 1313 
Q 434 1759 690 2068 
Q 947 2378 1403 2484 
z
M 1172 3481 
Q 1172 3119 1398 2916 
Q 1625 2713 2034 2713 
Q 2441 2713 2670 2916 
Q 2900 3119 2900 3481 
Q 2900 3844 2670 4047 
Q 2441 4250 2034 4250 
Q 1625 4250 1398 4047 
Q 1172 3844 1172 3481 
z
" transform="scale(0.015625)"/>
       </defs>
       <use xlink:href="#DejaVuSans-38"/>
       <use xlink:href="#DejaVuSans-32" x="63.623047"/>
       <use xlink:href="#DejaVuSans-30" x="127.246094"/>
      </g>
     </g>
    </g>
    <g id="ytick_2">
     <g id="line2d_2">
      <path d="M 58.32 251.5179 
L 851.04 251.5179 
" clip-path="url(#p8187b980c9)" style="fill: none; stroke: #cccccc; stroke-linecap: round"/>
     </g>
     <g id="text_5">
      <!-- 840 -->
      <g style="fill: #262626" transform="translate(27.82375 255.697041) scale(0.11 -0.11)">
       <use xlink:href="#DejaVuSans-38"/>
       <use xlink:href="#DejaVuSans-34" x="63.623047"/>
       <use xlink:href="#DejaVuSans-30" x="127.246094"/>
      </g>
     </g>
    </g>
    <g id="ytick_3">
     <g id="line2d_3">
      <path d="M 58.32 177.064991 
L 851.04 177.064991 
" clip-path="url(#p8187b980c9)" style="fill: none; stroke: #cccccc; stroke-linecap: round"/>
     </g>
     <g id="text_6">
      <!-- 860 -->
      <g style="fill: #262626" transform="translate(27.82375 181.244132) scale(0.11 -0.11)">
       <defs>
        <path id="DejaVuSans-36" d="M 2113 2584 
Q 1688 2584 1439 2293 
Q 1191 2003 1191 1497 
Q 1191 994 1439 701 
Q 1688 409 2113 409 
Q 2538 409 2786 701 
Q 3034 994 3034 1497 
Q 3034 2003 2786 2293 
Q 2538 2584 2113 2584 
z
M 3366 4563 
L 3366 3988 
Q 3128 4100 2886 4159 
Q 2644 4219 2406 4219 
Q 1781 4219 1451 3797 
Q 1122 3375 1075 2522 
Q 1259 2794 1537 2939 
Q 1816 3084 2150 3084 
Q 2853 3084 3261 2657 
Q 3669 2231 3669 1497 
Q 3669 778 3244 343 
Q 2819 -91 2113 -91 
Q 1303 -91 875 529 
Q 447 1150 447 2328 
Q 447 3434 972 4092 
Q 1497 4750 2381 4750 
Q 2619 4750 2861 4703 
Q 3103 4656 3366 4563 
z
" transform="scale(0.015625)"/>
       </defs>
       <use xlink:href="#DejaVuSans-38"/>
       <use xlink:href="#DejaVuSans-36" x="63.623047"/>
       <use xlink:href="#DejaVuSans-30" x="127.246094"/>
      </g>
     </g>
    </g>
    <g id="ytick_4">
     <g id="line2d_4">
      <path d="M 58.32 102.612082 
L 851.04 102.612082 
" clip-path="url(#p8187b980c9)" style="fill: none; stroke: #cccccc; stroke-linecap: round"/>
     </g>
     <g id="text_7">
      <!-- 880 -->
      <g style="fill: #262626" transform="translate(27.82375 106.791223) scale(0.11 -0.11)">
       <use xlink:href="#DejaVuSans-38"/>
       <use xlink:href="#DejaVuSans-38" x="63.623047"/>
       <use xlink:href="#DejaVuSans-30" x="127.246094"/>
      </g>
     </g>
    </g>
    <g id="ytick_5">
     <g id="line2d_5">
      <path d="M 58.32 28.159173 
L 851.04 28.159173 
" clip-path="url(#p8187b980c9)" style="fill: none; stroke: #cccccc; stroke-linecap: round"/>
     </g>
     <g id="text_8">
      <!-- 900 -->
      <g style="fill: #262626" transform="translate(27.82375 32.338314) scale(0.11 -0.11)">
       <defs>
        <path id="DejaVuSans-39" d="M 703 97 
L 703 672 
Q 941 559 1184 500 
Q 1428 441 1663 441 
Q 2288 441 2617 861 
Q 2947 1281 2994 2138 
Q 2813 1869 2534 1725 
Q 2256 1581 1919 1581 
Q 1219 1581 811 2004 
Q 403 2428 403 3163 
Q 403 3881 828 4315 
Q 1253 4750 1959 4750 
Q 2769 4750 3195 4129 
Q 3622 3509 3622 2328 
Q 3622 1225 3098 567 
Q 2575 -91 1691 -91 
Q 1453 -91 1209 -44 
Q 966 3 703 97 
z
M 1959 2075 
Q 2384 2075 2632 2365 
Q 2881 2656 2881 3163 
Q 2881 3666 2632 3958 
Q 2384 4250 1959 4250 
Q 1534 4250 1286 3958 
Q 1038 3666 1038 3163 
Q 1038 2656 1286 2365 
Q 1534 2075 1959 2075 
z
" transform="scale(0.015625)"/>
       </defs>
       <use xlink:href="#DejaVuSans-39"/>
       <use xlink:href="#DejaVuSans-30" x="63.623047"/>
       <use xlink:href="#DejaVuSans-30" x="127.246094"/>
      </g>
     </g>
    </g>
    <g id="text_9">
     <!-- Handshake duration (ms) -->
     <g style="fill: #262626" transform="translate(21.328125 287.437813) rotate(-90) scale(0.12 -0.12)">
      <defs>
       <path id="DejaVuSans-48" d="M 628 4666 
L 1259 4666 
L 1259 2753 
L 3553 2753 
L 3553 4666 
L 4184 4666 
L 4184 0 
L 3553 0 
L 3553 2222 
L 1259 2222 
L 1259 0 
L 628 0 
L 628 4666 
z
" transform="scale(0.015625)"/>
       <path id="DejaVuSans-61" d="M 2194 1759 
Q 1497 1759 1228 1600 
Q 959 1441 959 1056 
Q 959 750 1161 570 
Q 1363 391 1709 391 
Q 2188 391 2477 730 
Q 2766 1069 2766 1631 
L 2766 1759 
L 2194 1759 
z
M 3341 1997 
L 3341 0 
L 2766 0 
L 2766 531 
Q 2569 213 2275 61 
Q 1981 -91 1556 -91 
Q 1019 -91 701 211 
Q 384 513 384 1019 
Q 384 1609 779 1909 
Q 1175 2209 1959 2209 
L 2766 2209 
L 2766 2266 
Q 2766 2663 2505 2880 
Q 2244 3097 1772 3097 
Q 1472 3097 1187 3025 
Q 903 2953 641 2809 
L 641 3341 
Q 956 3463 1253 3523 
Q 1550 3584 1831 3584 
Q 2591 3584 2966 3190 
Q 3341 2797 3341 1997 
z
" transform="scale(0.015625)"/>
       <path id="DejaVuSans-6e" d="M 3513 2113 
L 3513 0 
L 2938 0 
L 2938 2094 
Q 2938 2591 2744 2837 
Q 2550 3084 2163 3084 
Q 1697 3084 1428 2787 
Q 1159 2491 1159 1978 
L 1159 0 
L 581 0 
L 581 3500 
L 1159 3500 
L 1159 2956 
Q 1366 3272 1645 3428 
Q 1925 3584 2291 3584 
Q 2894 3584 3203 3211 
Q 3513 2838 3513 2113 
z
" transform="scale(0.015625)"/>
       <path id="DejaVuSans-64" d="M 2906 2969 
L 2906 4863 
L 3481 4863 
L 3481 0 
L 2906 0 
L 2906 525 
Q 2725 213 2448 61 
Q 2172 -91 1784 -91 
Q 1150 -91 751 415 
Q 353 922 353 1747 
Q 353 2572 751 3078 
Q 1150 3584 1784 3584 
Q 2172 3584 2448 3432 
Q 2725 3281 2906 2969 
z
M 947 1747 
Q 947 1113 1208 752 
Q 1469 391 1925 391 
Q 2381 391 2643 752 
Q 2906 1113 2906 1747 
Q 2906 2381 2643 2742 
Q 2381 3103 1925 3103 
Q 1469 3103 1208 2742 
Q 947 2381 947 1747 
z
" transform="scale(0.015625)"/>
       <path id="DejaVuSans-73" d="M 2834 3397 
L 2834 2853 
Q 2591 2978 2328 3040 
Q 2066 3103 1784 3103 
Q 1356 3103 1142 2972 
Q 928 2841 928 2578 
Q 928 2378 1081 2264 
Q 1234 2150 1697 2047 
L 1894 2003 
Q 2506 1872 2764 1633 
Q 3022 1394 3022 966 
Q 3022 478 2636 193 
Q 2250 -91 1575 -91 
Q 1294 -91 989 -36 
Q 684 19 347 128 
L 347 722 
Q 666 556 975 473 
Q 1284 391 1588 391 
Q 1994 391 2212 530 
Q 2431 669 2431 922 
Q 2431 1156 2273 1281 
Q 2116 1406 1581 1522 
L 1381 1569 
Q 847 1681 609 1914 
Q 372 2147 372 2553 
Q 372 3047 722 3315 
Q 1072 3584 1716 3584 
Q 2034 3584 2315 3537 
Q 2597 3491 2834 3397 
z
" transform="scale(0.015625)"/>
       <path id="DejaVuSans-68" d="M 3513 2113 
L 3513 0 
L 2938 0 
L 2938 2094 
Q 2938 2591 2744 2837 
Q 2550 3084 2163 3084 
Q 1697 3084 1428 2787 
Q 1159 2491 1159 1978 
L 1159 0 
L 581 0 
L 581 4863 
L 1159 4863 
L 1159 2956 
Q 1366 3272 1645 3428 
Q 1925 3584 2291 3584 
Q 2894 3584 3203 3211 
Q 3513 2838 3513 2113 
z
" transform="scale(0.015625)"/>
       <path id="DejaVuSans-20" transform="scale(0.015625)"/>
       <path id="DejaVuSans-75" d="M 544 1381 
L 544 3500 
L 1119 3500 
L 1119 1403 
Q 1119 906 1312 657 
Q 1506 409 1894 409 
Q 2359 409 2629 706 
Q 2900 1003 2900 1516 
L 2900 3500 
L 3475 3500 
L 3475 0 
L 2900 0 
L 2900 538 
Q 2691 219 2414 64 
Q 2138 -91 1772 -91 
Q 1169 -91 856 284 
Q 544 659 544 1381 
z
M 1991 3584 
L 1991 3584 
z
" transform="scale(0.015625)"/>
       <path id="DejaVuSans-72" d="M 2631 2963 
Q 2534 3019 2420 3045 
Q 2306 3072 2169 3072 
Q 1681 3072 1420 2755 
Q 1159 2438 1159 1844 
L 1159 0 
L 581 0 
L 581 3500 
L 1159 3500 
L 1159 2956 
Q 1341 3275 1631 3429 
Q 1922 3584 2338 3584 
Q 2397 3584 2469 3576 
Q 2541 3569 2628 3553 
L 2631 2963 
z
" transform="scale(0.015625)"/>
       <path id="DejaVuSans-74" d="M 1172 4494 
L 1172 3500 
L 2356 3500 
L 2356 3053 
L 1172 3053 
L 1172 1153 
Q 1172 725 1289 603 
Q 1406 481 1766 481 
L 2356 481 
L 2356 0 
L 1766 0 
Q 1100 0 847 248 
Q 594 497 594 1153 
L 594 3053 
L 172 3053 
L 172 3500 
L 594 3500 
L 594 4494 
L 1172 4494 
z
" transform="scale(0.015625)"/>
       <path id="DejaVuSans-69" d="M 603 3500 
L 1178 3500 
L 1178 0 
L 603 0 
L 603 3500 
z
M 603 4863 
L 1178 4863 
L 1178 4134 
L 603 4134 
L 603 4863 
z
" transform="scale(0.015625)"/>
       <path id="DejaVuSans-6f" d="M 1959 3097 
Q 1497 3097 1228 2736 
Q 959 2375 959 1747 
Q 959 1119 1226 758 
Q 1494 397 1959 397 
Q 2419 397 2687 759 
Q 2956 1122 2956 1747 
Q 2956 2369 2687 2733 
Q 2419 3097 1959 3097 
z
M 1959 3584 
Q 2709 3584 3137 3096 
Q 3566 2609 3566 1747 
Q 3566 888 3137 398 
Q 2709 -91 1959 -91 
Q 1206 -91 779 398 
Q 353 888 353 1747 
Q 353 2609 779 3096 
Q 1206 3584 1959 3584 
z
" transform="scale(0.015625)"/>
       <path id="DejaVuSans-28" d="M 1984 4856 
Q 1566 4138 1362 3434 
Q 1159 2731 1159 2009 
Q 1159 1288 1364 580 
Q 1569 -128 1984 -844 
L 1484 -844 
Q 1016 -109 783 600 
Q 550 1309 550 2009 
Q 550 2706 781 3412 
Q 1013 4119 1484 4856 
L 1984 4856 
z
" transform="scale(0.015625)"/>
       <path id="DejaVuSans-29" d="M 513 4856 
L 1013 4856 
Q 1481 4119 1714 3412 
Q 1947 2706 1947 2009 
Q 1947 1309 1714 600 
Q 1481 -109 1013 -844 
L 513 -844 
Q 928 -128 1133 580 
Q 1338 1288 1338 2009 
Q 1338 2731 1133 3434 
Q 928 4138 513 4856 
z
" transform="scale(0.015625)"/>
      </defs>
      <use xlink:href="#DejaVuSans-48"/>
      <use xlink:href="#DejaVuSans-61" x="75.195312"/>
      <use xlink:href="#DejaVuSans-6e" x="136.474609"/>
      <use xlink:href="#DejaVuSans-64" x="199.853516"/>
      <use xlink:href="#DejaVuSans-73" x="263.330078"/>
      <use xlink:href="#DejaVuSans-68" x="315.429688"/>
      <use xlink:href="#DejaVuSans-61" x="378.808594"/>
      <use xlink:href="#DejaVuSans-6b" x="440.087891"/>
      <use xlink:href="#DejaVuSans-65" x="494.373047"/>
      <use xlink:href="#DejaVuSans-20" x="555.896484"/>
      <use xlink:href="#DejaVuSans-64" x="587.683594"/>
      <use xlink:href="#DejaVuSans-75" x="651.160156"/>
      <use xlink:href="#DejaVuSans-72" x="714.539062"/>
      <use xlink:href="#DejaVuSans-61" x="755.652344"/>
      <use xlink:href="#DejaVuSans-74" x="816.931641"/>
      <use xlink:href="#DejaVuSans-69" x="856.140625"/>
      <use xlink:href="#DejaVuSans-6f" x="883.923828"/>
      <use xlink:href="#DejaVuSans-6e" x="945.105469"/>
      <use xlink:href="#DejaVuSans-20" x="1008.484375"/>
      <use xlink:href="#DejaVuSans-28" x="1040.271484"/>
      <use xlink:href="#DejaVuSans-6d" x="1079.285156"/>
      <use xlink:href="#DejaVuSans-73" x="1176.697266"/>
      <use xlink:href="#DejaVuSans-29" x="1228.796875"/>
     </g>
    </g>
   </g>
   <g id="PolyCollection_1">
    <defs>
     <path id="m8da0ad373b" d="M 190.723543 -84.747187 
L 190.156457 -84.747187 
L 189.98465 -86.889167 
L 189.737817 -89.031148 
L 189.397586 -91.173128 
L 188.945053 -93.315108 
L 188.359172 -95.457089 
L 187.611848 -97.599069 
L 186.658701 -99.74105 
L 185.425641 -101.88303 
L 183.793241 -104.02501 
L 181.583375 -106.166991 
L 178.554901 -108.308971 
L 174.416517 -110.450951 
L 168.86397 -112.592932 
L 161.644469 -114.734912 
L 152.64314 -116.876892 
L 141.975809 -119.018873 
L 130.062669 -121.160853 
L 117.65302 -123.302833 
L 105.776795 -125.444814 
L 95.615441 -127.586794 
L 88.309419 -129.728774 
L 84.744 -131.870755 
L 85.368677 -134.012735 
L 90.101099 -136.154716 
L 98.343471 -138.296696 
L 109.105668 -140.438676 
L 121.19769 -142.580657 
L 133.436631 -144.722637 
L 144.815679 -146.864617 
L 154.601998 -149.006598 
L 162.357228 -151.148578 
L 167.897999 -153.290558 
L 171.226615 -155.432539 
L 172.462053 -157.574519 
L 171.791826 -159.716499 
L 169.451743 -161.85848 
L 165.728391 -164.00046 
L 160.97164 -166.142441 
L 155.602541 -168.284421 
L 150.104969 -170.426401 
L 144.995663 -172.568382 
L 140.774914 -174.710362 
L 137.867008 -176.852342 
L 136.563797 -178.994323 
L 136.985189 -181.136303 
L 139.066655 -183.278283 
L 142.577203 -185.420264 
L 147.163554 -187.562244 
L 152.410007 -189.704224 
L 157.900495 -191.846205 
L 163.270301 -193.988185 
L 168.239177 -196.130165 
L 172.623441 -198.272146 
L 176.330052 -200.414126 
L 179.339137 -202.556107 
L 181.682331 -204.698087 
L 183.422867 -206.840067 
L 184.640684 -208.982048 
L 185.423058 -211.124028 
L 185.859311 -213.266008 
L 186.037472 -215.407989 
L 186.041112 -217.549969 
L 185.945591 -219.691949 
L 185.81398 -221.83393 
L 185.69356 -223.97591 
L 185.613903 -226.11789 
L 185.58719 -228.259871 
L 185.610827 -230.401851 
L 185.6719 -232.543832 
L 185.752573 -234.685812 
L 185.835446 -236.827792 
L 185.907882 -238.969773 
L 185.964551 -241.111753 
L 186.007784 -243.253733 
L 186.045848 -245.395714 
L 186.089754 -247.537694 
L 186.14968 -249.679674 
L 186.232172 -251.821655 
L 186.339029 -253.963635 
L 186.46812 -256.105615 
L 186.615623 -258.247596 
L 186.778627 -260.389576 
L 186.956937 -262.531556 
L 187.153319 -264.673537 
L 187.372134 -266.815517 
L 187.616987 -268.957498 
L 187.88839 -271.099478 
L 188.18236 -273.241458 
L 188.490403 -275.383439 
L 188.800813 -277.525419 
L 189.100739 -279.667399 
L 189.378346 -281.80938 
L 189.62451 -283.95136 
L 189.833731 -286.09334 
L 190.004257 -288.235321 
L 190.13758 -290.377301 
L 190.237564 -292.519281 
L 190.309467 -294.661262 
L 190.359022 -296.803242 
L 190.520978 -296.803242 
L 190.520978 -296.803242 
L 190.570533 -294.661262 
L 190.642436 -292.519281 
L 190.74242 -290.377301 
L 190.875743 -288.235321 
L 191.046269 -286.09334 
L 191.25549 -283.95136 
L 191.501654 -281.80938 
L 191.779261 -279.667399 
L 192.079187 -277.525419 
L 192.389597 -275.383439 
L 192.69764 -273.241458 
L 192.99161 -271.099478 
L 193.263013 -268.957498 
L 193.507866 -266.815517 
L 193.726681 -264.673537 
L 193.923063 -262.531556 
L 194.101373 -260.389576 
L 194.264377 -258.247596 
L 194.41188 -256.105615 
L 194.540971 -253.963635 
L 194.647828 -251.821655 
L 194.73032 -249.679674 
L 194.790246 -247.537694 
L 194.834152 -245.395714 
L 194.872216 -243.253733 
L 194.915449 -241.111753 
L 194.972118 -238.969773 
L 195.044554 -236.827792 
L 195.127427 -234.685812 
L 195.2081 -232.543832 
L 195.269173 -230.401851 
L 195.29281 -228.259871 
L 195.266097 -226.11789 
L 195.18644 -223.97591 
L 195.06602 -221.83393 
L 194.934409 -219.691949 
L 194.838888 -217.549969 
L 194.842528 -215.407989 
L 195.020689 -213.266008 
L 195.456942 -211.124028 
L 196.239316 -208.982048 
L 197.457133 -206.840067 
L 199.197669 -204.698087 
L 201.540863 -202.556107 
L 204.549948 -200.414126 
L 208.256559 -198.272146 
L 212.640823 -196.130165 
L 217.609699 -193.988185 
L 222.979505 -191.846205 
L 228.469993 -189.704224 
L 233.716446 -187.562244 
L 238.302797 -185.420264 
L 241.813345 -183.278283 
L 243.894811 -181.136303 
L 244.316203 -178.994323 
L 243.012992 -176.852342 
L 240.105086 -174.710362 
L 235.884337 -172.568382 
L 230.775031 -170.426401 
L 225.277459 -168.284421 
L 219.90836 -166.142441 
L 215.151609 -164.00046 
L 211.428257 -161.85848 
L 209.088174 -159.716499 
L 208.417947 -157.574519 
L 209.653385 -155.432539 
L 212.982001 -153.290558 
L 218.522772 -151.148578 
L 226.278002 -149.006598 
L 236.064321 -146.864617 
L 247.443369 -144.722637 
L 259.68231 -142.580657 
L 271.774332 -140.438676 
L 282.536529 -138.296696 
L 290.778901 -136.154716 
L 295.511323 -134.012735 
L 296.136 -131.870755 
L 292.570581 -129.728774 
L 285.264559 -127.586794 
L 275.103205 -125.444814 
L 263.22698 -123.302833 
L 250.817331 -121.160853 
L 238.904191 -119.018873 
L 228.23686 -116.876892 
L 219.235531 -114.734912 
L 212.01603 -112.592932 
L 206.463483 -110.450951 
L 202.325099 -108.308971 
L 199.296625 -106.166991 
L 197.086759 -104.02501 
L 195.454359 -101.88303 
L 194.221299 -99.74105 
L 193.268152 -97.599069 
L 192.520828 -95.457089 
L 191.934947 -93.315108 
L 191.482414 -91.173128 
L 191.142183 -89.031148 
L 190.89535 -86.889167 
L 190.723543 -84.747187 
z
" style="stroke: #595959; stroke-width: 1.25"/>
    </defs>
    <g clip-path="url(#p8187b980c9)">
     <use xlink:href="#m8da0ad373b" x="0" y="432" style="fill: #72b6a1; stroke: #595959; stroke-width: 1.25"/>
    </g>
   </g>
   <g id="PolyCollection_2">
    <defs>
     <path id="m2e4c971b56" d="M 454.918926 -90.608348 
L 454.441074 -90.608348 
L 454.303246 -93.609209 
L 454.096589 -96.610071 
L 453.792055 -99.610932 
L 453.350702 -102.611794 
L 452.721362 -105.612655 
L 451.8383 -108.613517 
L 450.619266 -111.614378 
L 448.964564 -114.61524 
L 446.758034 -117.616101 
L 443.871014 -120.616963 
L 440.170414 -123.617824 
L 435.531771 -126.618686 
L 429.857519 -129.619547 
L 423.099594 -132.620409 
L 415.284084 -135.62127 
L 406.534091 -138.622132 
L 397.085778 -141.622993 
L 387.292262 -144.623855 
L 377.610874 -147.624716 
L 368.571684 -150.625578 
L 360.728646 -153.626439 
L 354.598726 -156.627301 
L 350.597799 -159.628162 
L 348.984 -162.629024 
L 349.818786 -165.629885 
L 352.953122 -168.630747 
L 358.041517 -171.631608 
L 364.581262 -174.63247 
L 371.969551 -177.633331 
L 379.568406 -180.634193 
L 386.767033 -183.635054 
L 393.033297 -186.635916 
L 397.94952 -189.636777 
L 401.231709 -192.637639 
L 402.734432 -195.6385 
L 402.445196 -198.639362 
L 400.472283 -201.640223 
L 397.028866 -204.641085 
L 392.414705 -207.641946 
L 386.995412 -210.642808 
L 381.178833 -213.643669 
L 375.38842 -216.644531 
L 370.034545 -219.645392 
L 365.485862 -222.646254 
L 362.043682 -225.647115 
L 359.922435 -228.647977 
L 359.238654 -231.648838 
L 360.00959 -234.6497 
L 362.161056 -237.650561 
L 365.542635 -240.651423 
L 369.9475 -243.652284 
L 375.13378 -246.653146 
L 380.844749 -249.654007 
L 386.825902 -252.654869 
L 392.83795 -255.65573 
L 398.665676 -258.656592 
L 404.123256 -261.657453 
L 409.056955 -264.658315 
L 413.34614 -267.659176 
L 416.903354 -270.660038 
L 419.673896 -273.660899 
L 421.63513 -276.661761 
L 422.795571 -279.662622 
L 423.193715 -282.663484 
L 422.896563 -285.664345 
L 421.997735 -288.665207 
L 420.614989 -291.666068 
L 418.886867 -294.66693 
L 416.968124 -297.667791 
L 415.023618 -300.668653 
L 413.220561 -303.669514 
L 411.719312 -306.670376 
L 410.663329 -309.671237 
L 410.169248 -312.672099 
L 410.318268 -315.67296 
L 411.150038 -318.673822 
L 412.659974 -321.674683 
L 414.80051 -324.675545 
L 417.486215 -327.676406 
L 420.602203 -330.677268 
L 424.014786 -333.678129 
L 427.583101 -336.678991 
L 431.170373 -339.679852 
L 434.653645 -342.680714 
L 437.931078 -345.681575 
L 440.926353 -348.682437 
L 443.590105 -351.683298 
L 445.898695 -354.68416 
L 447.850936 -357.685021 
L 449.463491 -360.685883 
L 450.765732 -363.686744 
L 451.794724 -366.687606 
L 452.590826 -369.688467 
L 453.194207 -372.689329 
L 453.642379 -375.69019 
L 453.968675 -378.691052 
L 454.201535 -381.691913 
L 454.364396 -384.692775 
L 454.475982 -387.693636 
L 454.884018 -387.693636 
L 454.884018 -387.693636 
L 454.995604 -384.692775 
L 455.158465 -381.691913 
L 455.391325 -378.691052 
L 455.717621 -375.69019 
L 456.165793 -372.689329 
L 456.769174 -369.688467 
L 457.565276 -366.687606 
L 458.594268 -363.686744 
L 459.896509 -360.685883 
L 461.509064 -357.685021 
L 463.461305 -354.68416 
L 465.769895 -351.683298 
L 468.433647 -348.682437 
L 471.428922 -345.681575 
L 474.706355 -342.680714 
L 478.189627 -339.679852 
L 481.776899 -336.678991 
L 485.345214 -333.678129 
L 488.757797 -330.677268 
L 491.873785 -327.676406 
L 494.55949 -324.675545 
L 496.700026 -321.674683 
L 498.209962 -318.673822 
L 499.041732 -315.67296 
L 499.190752 -312.672099 
L 498.696671 -309.671237 
L 497.640688 -306.670376 
L 496.139439 -303.669514 
L 494.336382 -300.668653 
L 492.391876 -297.667791 
L 490.473133 -294.66693 
L 488.745011 -291.666068 
L 487.362265 -288.665207 
L 486.463437 -285.664345 
L 486.166285 -282.663484 
L 486.564429 -279.662622 
L 487.72487 -276.661761 
L 489.686104 -273.660899 
L 492.456646 -270.660038 
L 496.01386 -267.659176 
L 500.303045 -264.658315 
L 505.236744 -261.657453 
L 510.694324 -258.656592 
L 516.52205 -255.65573 
L 522.534098 -252.654869 
L 528.515251 -249.654007 
L 534.22622 -246.653146 
L 539.4125 -243.652284 
L 543.817365 -240.651423 
L 547.198944 -237.650561 
L 549.35041 -234.6497 
L 550.121346 -231.648838 
L 549.437565 -228.647977 
L 547.316318 -225.647115 
L 543.874138 -222.646254 
L 539.325455 -219.645392 
L 533.97158 -216.644531 
L 528.181167 -213.643669 
L 522.364588 -210.642808 
L 516.945295 -207.641946 
L 512.331134 -204.641085 
L 508.887717 -201.640223 
L 506.914804 -198.639362 
L 506.625568 -195.6385 
L 508.128291 -192.637639 
L 511.41048 -189.636777 
L 516.326703 -186.635916 
L 522.592967 -183.635054 
L 529.791594 -180.634193 
L 537.390449 -177.633331 
L 544.778738 -174.63247 
L 551.318483 -171.631608 
L 556.406878 -168.630747 
L 559.541214 -165.629885 
L 560.376 -162.629024 
L 558.762201 -159.628162 
L 554.761274 -156.627301 
L 548.631354 -153.626439 
L 540.788316 -150.625578 
L 531.749126 -147.624716 
L 522.067738 -144.623855 
L 512.274222 -141.622993 
L 502.825909 -138.622132 
L 494.075916 -135.62127 
L 486.260406 -132.620409 
L 479.502481 -129.619547 
L 473.828229 -126.618686 
L 469.189586 -123.617824 
L 465.488986 -120.616963 
L 462.601966 -117.616101 
L 460.395436 -114.61524 
L 458.740734 -111.614378 
L 457.5217 -108.613517 
L 456.638638 -105.612655 
L 456.009298 -102.611794 
L 455.567945 -99.610932 
L 455.263411 -96.610071 
L 455.056754 -93.609209 
L 454.918926 -90.608348 
z
" style="stroke: #595959; stroke-width: 1.25"/>
    </defs>
    <g clip-path="url(#p8187b980c9)">
     <use xlink:href="#m2e4c971b56" x="0" y="432" style="fill: #e99675; stroke: #595959; stroke-width: 1.25"/>
    </g>
   </g>
   <g id="PolyCollection_3">
    <defs>
     <path id="m0078e326c3" d="M 719.081074 -53.566364 
L 718.758926 -53.566364 
L 718.652633 -54.821376 
L 718.497912 -56.076388 
L 718.285409 -57.3314 
L 718.009757 -58.586412 
L 717.671369 -59.841423 
L 717.276722 -61.096435 
L 716.836402 -62.351447 
L 716.360924 -63.606459 
L 715.855266 -64.861471 
L 715.313881 -66.116483 
L 714.718141 -67.371495 
L 714.0376 -68.626507 
L 713.235204 -69.881519 
L 712.275012 -71.136531 
L 711.129661 -72.391543 
L 709.784101 -73.646555 
L 708.232367 -74.901567 
L 706.465543 -76.156579 
L 704.451532 -77.411591 
L 702.110524 -78.666603 
L 699.293546 -79.921615 
L 695.774128 -81.176627 
L 691.263617 -82.431639 
L 685.457848 -83.686651 
L 678.115986 -84.941663 
L 669.161779 -86.196675 
L 658.785341 -87.451687 
L 647.513788 -88.706699 
L 636.216847 -89.961711 
L 626.023385 -91.216723 
L 618.147648 -92.471735 
L 613.65488 -93.726747 
L 613.224 -94.981759 
L 616.976953 -96.23677 
L 624.43155 -97.491782 
L 634.598288 -98.746794 
L 646.194689 -100.001806 
L 657.912199 -101.256818 
L 668.656625 -102.51183 
L 677.698603 -103.766842 
L 684.70723 -105.021854 
L 689.681319 -106.276866 
L 692.822139 -107.531878 
L 694.400416 -108.78689 
L 694.659836 -110.041902 
L 693.777601 -111.296914 
L 691.879724 -112.551926 
L 689.091913 -113.806938 
L 685.599097 -115.06195 
L 681.687393 -116.316962 
L 677.749804 -117.571974 
L 674.248885 -118.826986 
L 671.643636 -120.081998 
L 670.300437 -121.33701 
L 670.414981 -122.592022 
L 671.970524 -123.847034 
L 674.746895 -125.102046 
L 678.378049 -126.357058 
L 682.439726 -127.61207 
L 686.53975 -128.867082 
L 690.385046 -130.122094 
L 693.810366 -131.377106 
L 696.768703 -132.632117 
L 699.295907 -133.887129 
L 701.467378 -135.142141 
L 703.362303 -136.397153 
L 705.043347 -137.652165 
L 706.551443 -138.907177 
L 707.910089 -140.162189 
L 709.132477 -141.417201 
L 710.227015 -142.672213 
L 711.200084 -143.927225 
L 712.057122 -145.182237 
L 712.803653 -146.437249 
L 713.447004 -147.692261 
L 713.998221 -148.947273 
L 714.473065 -150.202285 
L 714.891192 -151.457297 
L 715.273428 -152.712309 
L 715.63795 -153.967321 
L 715.996676 -155.222333 
L 716.353101 -156.477345 
L 716.702363 -157.732357 
L 717.033558 -158.987369 
L 717.333644 -160.242381 
L 717.591752 -161.497393 
L 717.802612 -162.752405 
L 717.968046 -164.007417 
L 718.09619 -165.262429 
L 718.198835 -166.517441 
L 718.28796 -167.772453 
L 718.372674 -169.027465 
L 718.457543 -170.282476 
L 718.542605 -171.537488 
L 718.624744 -172.7925 
L 718.699665 -174.047512 
L 718.763682 -175.302524 
L 718.814789 -176.557536 
L 718.852911 -177.812548 
L 718.987089 -177.812548 
L 718.987089 -177.812548 
L 719.025211 -176.557536 
L 719.076318 -175.302524 
L 719.140335 -174.047512 
L 719.215256 -172.7925 
L 719.297395 -171.537488 
L 719.382457 -170.282476 
L 719.467326 -169.027465 
L 719.55204 -167.772453 
L 719.641165 -166.517441 
L 719.74381 -165.262429 
L 719.871954 -164.007417 
L 720.037388 -162.752405 
L 720.248248 -161.497393 
L 720.506356 -160.242381 
L 720.806442 -158.987369 
L 721.137637 -157.732357 
L 721.486899 -156.477345 
L 721.843324 -155.222333 
L 722.20205 -153.967321 
L 722.566572 -152.712309 
L 722.948808 -151.457297 
L 723.366935 -150.202285 
L 723.841779 -148.947273 
L 724.392996 -147.692261 
L 725.036347 -146.437249 
L 725.782878 -145.182237 
L 726.639916 -143.927225 
L 727.612985 -142.672213 
L 728.707523 -141.417201 
L 729.929911 -140.162189 
L 731.288557 -138.907177 
L 732.796653 -137.652165 
L 734.477697 -136.397153 
L 736.372622 -135.142141 
L 738.544093 -133.887129 
L 741.071297 -132.632117 
L 744.029634 -131.377106 
L 747.454954 -130.122094 
L 751.30025 -128.867082 
L 755.400274 -127.61207 
L 759.461951 -126.357058 
L 763.093105 -125.102046 
L 765.869476 -123.847034 
L 767.425019 -122.592022 
L 767.539563 -121.33701 
L 766.196364 -120.081998 
L 763.591115 -118.826986 
L 760.090196 -117.571974 
L 756.152607 -116.316962 
L 752.240903 -115.06195 
L 748.748087 -113.806938 
L 745.960276 -112.551926 
L 744.062399 -111.296914 
L 743.180164 -110.041902 
L 743.439584 -108.78689 
L 745.017861 -107.531878 
L 748.158681 -106.276866 
L 753.13277 -105.021854 
L 760.141397 -103.766842 
L 769.183375 -102.51183 
L 779.927801 -101.256818 
L 791.645311 -100.001806 
L 803.241712 -98.746794 
L 813.40845 -97.491782 
L 820.863047 -96.23677 
L 824.616 -94.981759 
L 824.18512 -93.726747 
L 819.692352 -92.471735 
L 811.816615 -91.216723 
L 801.623153 -89.961711 
L 790.326212 -88.706699 
L 779.054659 -87.451687 
L 768.678221 -86.196675 
L 759.724014 -84.941663 
L 752.382152 -83.686651 
L 746.576383 -82.431639 
L 742.065872 -81.176627 
L 738.546454 -79.921615 
L 735.729476 -78.666603 
L 733.388468 -77.411591 
L 731.374457 -76.156579 
L 729.607633 -74.901567 
L 728.055899 -73.646555 
L 726.710339 -72.391543 
L 725.564988 -71.136531 
L 724.604796 -69.881519 
L 723.8024 -68.626507 
L 723.121859 -67.371495 
L 722.526119 -66.116483 
L 721.984734 -64.861471 
L 721.479076 -63.606459 
L 721.003598 -62.351447 
L 720.563278 -61.096435 
L 720.168631 -59.841423 
L 719.830243 -58.586412 
L 719.554591 -57.3314 
L 719.342088 -56.076388 
L 719.187367 -54.821376 
L 719.081074 -53.566364 
z
" style="stroke: #595959; stroke-width: 1.25"/>
    </defs>
    <g clip-path="url(#p8187b980c9)">
     <use xlink:href="#m0078e326c3" x="0" y="432" style="fill: #95a3c3; stroke: #595959; stroke-width: 1.25"/>
    </g>
   </g>
   <g id="line2d_6">
    <path d="M 190.44 299.893678 
L 190.44 327.906585 
" clip-path="url(#p8187b980c9)" style="fill: none; stroke: #000000"/>
   </g>
   <g id="line2d_7">
    <path d="M 190.44 253.174477 
L 190.44 183.654074 
" clip-path="url(#p8187b980c9)" style="fill: none; stroke: #000000"/>
   </g>
   <g id="line2d_8">
    <path d="M 180.531 327.906585 
L 200.349 327.906585 
" clip-path="url(#p8187b980c9)" style="fill: none; stroke: #000000; stroke-linecap: round"/>
   </g>
   <g id="line2d_9">
    <path d="M 180.531 183.654074 
L 200.349 183.654074 
" clip-path="url(#p8187b980c9)" style="fill: none; stroke: #000000; stroke-linecap: round"/>
   </g>
   <g id="line2d_10">
    <path d="M 454.68 267.683488 
L 454.68 307.357582 
" clip-path="url(#p8187b980c9)" style="fill: none; stroke: #000000"/>
   </g>
   <g id="line2d_11">
    <path d="M 454.68 178.49821 
L 454.68 78.340434 
" clip-path="url(#p8187b980c9)" style="fill: none; stroke: #000000"/>
   </g>
   <g id="line2d_12">
    <path d="M 444.771 307.357582 
L 464.589 307.357582 
" clip-path="url(#p8187b980c9)" style="fill: none; stroke: #000000; stroke-linecap: round"/>
   </g>
   <g id="line2d_13">
    <path d="M 444.771 78.340434 
L 464.589 78.340434 
" clip-path="url(#p8187b980c9)" style="fill: none; stroke: #000000; stroke-linecap: round"/>
   </g>
   <g id="line2d_14">
    <path d="M 718.92 338.292765 
L 718.92 367.85057 
" clip-path="url(#p8187b980c9)" style="fill: none; stroke: #000000"/>
   </g>
   <g id="line2d_15">
    <path d="M 718.92 311.713077 
L 718.92 274.970566 
" clip-path="url(#p8187b980c9)" style="fill: none; stroke: #000000"/>
   </g>
   <g id="line2d_16">
    <path d="M 709.011 367.85057 
L 728.829 367.85057 
" clip-path="url(#p8187b980c9)" style="fill: none; stroke: #000000; stroke-linecap: round"/>
   </g>
   <g id="line2d_17">
    <path d="M 709.011 274.970566 
L 728.829 274.970566 
" clip-path="url(#p8187b980c9)" style="fill: none; stroke: #000000; stroke-linecap: round"/>
   </g>
   <g id="line2d_18">
    <path d="M 170.622 296.599136 
L 210.258 296.599136 
" clip-path="url(#p8187b980c9)" style="fill: none; stroke: #ff0000; stroke-width: 2"/>
   </g>
   <g id="line2d_19">
    <path d="M 434.862 208.688864 
L 474.498 208.688864 
" clip-path="url(#p8187b980c9)" style="fill: none; stroke: #ff0000; stroke-width: 2"/>
   </g>
   <g id="line2d_20">
    <path d="M 699.102 335.463555 
L 738.738 335.463555 
" clip-path="url(#p8187b980c9)" style="fill: none; stroke: #ff0000; stroke-width: 2"/>
   </g>
   <g id="patch_3">
    <path d="M 58.32 395.14 
L 58.32 27.6 
" style="fill: none; stroke: #cccccc; stroke-width: 1.25; stroke-linejoin: miter; stroke-linecap: square"/>
   </g>
   <g id="patch_4">
    <path d="M 851.04 395.14 
L 851.04 27.6 
" style="fill: none; stroke: #cccccc; stroke-width: 1.25; stroke-linejoin: miter; stroke-linecap: square"/>
   </g>
   <g id="patch_5">
    <path d="M 58.32 395.14 
L 851.04 395.14 
" style="fill: none; stroke: #cccccc; stroke-width: 1.25; stroke-linejoin: miter; stroke-linecap: square"/>
   </g>
   <g id="patch_6">
    <path d="M 58.32 27.6 
L 851.04 27.6 
" style="fill: none; stroke: #cccccc; stroke-width: 1.25; stroke-linejoin: miter; stroke-linecap: square"/>
   </g>
   <g id="text_10">
    <!-- Handshake duration on TLS with secp521r1 signature algorithm — Backbone (200ms/4%) -->
    <g style="fill: #262626" transform="translate(184.926562 21.6) scale(0.12 -0.12)">
     <defs>
      <path id="DejaVuSans-54" d="M -19 4666 
L 3928 4666 
L 3928 4134 
L 2272 4134 
L 2272 0 
L 1638 0 
L 1638 4134 
L -19 4134 
L -19 4666 
z
" transform="scale(0.015625)"/>
      <path id="DejaVuSans-4c" d="M 628 4666 
L 1259 4666 
L 1259 531 
L 3531 531 
L 3531 0 
L 628 0 
L 628 4666 
z
" transform="scale(0.015625)"/>
      <path id="DejaVuSans-53" d="M 3425 4513 
L 3425 3897 
Q 3066 4069 2747 4153 
Q 2428 4238 2131 4238 
Q 1616 4238 1336 4038 
Q 1056 3838 1056 3469 
Q 1056 3159 1242 3001 
Q 1428 2844 1947 2747 
L 2328 2669 
Q 3034 2534 3370 2195 
Q 3706 1856 3706 1288 
Q 3706 609 3251 259 
Q 2797 -91 1919 -91 
Q 1588 -91 1214 -16 
Q 841 59 441 206 
L 441 856 
Q 825 641 1194 531 
Q 1563 422 1919 422 
Q 2459 422 2753 634 
Q 3047 847 3047 1241 
Q 3047 1584 2836 1778 
Q 2625 1972 2144 2069 
L 1759 2144 
Q 1053 2284 737 2584 
Q 422 2884 422 3419 
Q 422 4038 858 4394 
Q 1294 4750 2059 4750 
Q 2388 4750 2728 4690 
Q 3069 4631 3425 4513 
z
" transform="scale(0.015625)"/>
      <path id="DejaVuSans-77" d="M 269 3500 
L 844 3500 
L 1563 769 
L 2278 3500 
L 2956 3500 
L 3675 769 
L 4391 3500 
L 4966 3500 
L 4050 0 
L 3372 0 
L 2619 2869 
L 1863 0 
L 1184 0 
L 269 3500 
z
" transform="scale(0.015625)"/>
      <path id="DejaVuSans-63" d="M 3122 3366 
L 3122 2828 
Q 2878 2963 2633 3030 
Q 2388 3097 2138 3097 
Q 1578 3097 1268 2742 
Q 959 2388 959 1747 
Q 959 1106 1268 751 
Q 1578 397 2138 397 
Q 2388 397 2633 464 
Q 2878 531 3122 666 
L 3122 134 
Q 2881 22 2623 -34 
Q 2366 -91 2075 -91 
Q 1284 -91 818 406 
Q 353 903 353 1747 
Q 353 2603 823 3093 
Q 1294 3584 2113 3584 
Q 2378 3584 2631 3529 
Q 2884 3475 3122 3366 
z
" transform="scale(0.015625)"/>
      <path id="DejaVuSans-67" d="M 2906 1791 
Q 2906 2416 2648 2759 
Q 2391 3103 1925 3103 
Q 1463 3103 1205 2759 
Q 947 2416 947 1791 
Q 947 1169 1205 825 
Q 1463 481 1925 481 
Q 2391 481 2648 825 
Q 2906 1169 2906 1791 
z
M 3481 434 
Q 3481 -459 3084 -895 
Q 2688 -1331 1869 -1331 
Q 1566 -1331 1297 -1286 
Q 1028 -1241 775 -1147 
L 775 -588 
Q 1028 -725 1275 -790 
Q 1522 -856 1778 -856 
Q 2344 -856 2625 -561 
Q 2906 -266 2906 331 
L 2906 616 
Q 2728 306 2450 153 
Q 2172 0 1784 0 
Q 1141 0 747 490 
Q 353 981 353 1791 
Q 353 2603 747 3093 
Q 1141 3584 1784 3584 
Q 2172 3584 2450 3431 
Q 2728 3278 2906 2969 
L 2906 3500 
L 3481 3500 
L 3481 434 
z
" transform="scale(0.015625)"/>
      <path id="DejaVuSans-2014" d="M 313 1978 
L 6088 1978 
L 6088 1528 
L 313 1528 
L 313 1978 
z
" transform="scale(0.015625)"/>
      <path id="DejaVuSans-42" d="M 1259 2228 
L 1259 519 
L 2272 519 
Q 2781 519 3026 730 
Q 3272 941 3272 1375 
Q 3272 1813 3026 2020 
Q 2781 2228 2272 2228 
L 1259 2228 
z
M 1259 4147 
L 1259 2741 
L 2194 2741 
Q 2656 2741 2882 2914 
Q 3109 3088 3109 3444 
Q 3109 3797 2882 3972 
Q 2656 4147 2194 4147 
L 1259 4147 
z
M 628 4666 
L 2241 4666 
Q 2963 4666 3353 4366 
Q 3744 4066 3744 3513 
Q 3744 3084 3544 2831 
Q 3344 2578 2956 2516 
Q 3422 2416 3680 2098 
Q 3938 1781 3938 1306 
Q 3938 681 3513 340 
Q 3088 0 2303 0 
L 628 0 
L 628 4666 
z
" transform="scale(0.015625)"/>
      <path id="DejaVuSans-62" d="M 3116 1747 
Q 3116 2381 2855 2742 
Q 2594 3103 2138 3103 
Q 1681 3103 1420 2742 
Q 1159 2381 1159 1747 
Q 1159 1113 1420 752 
Q 1681 391 2138 391 
Q 2594 391 2855 752 
Q 3116 1113 3116 1747 
z
M 1159 2969 
Q 1341 3281 1617 3432 
Q 1894 3584 2278 3584 
Q 2916 3584 3314 3078 
Q 3713 2572 3713 1747 
Q 3713 922 3314 415 
Q 2916 -91 2278 -91 
Q 1894 -91 1617 61 
Q 1341 213 1159 525 
L 1159 0 
L 581 0 
L 581 4863 
L 1159 4863 
L 1159 2969 
z
" transform="scale(0.015625)"/>
      <path id="DejaVuSans-2f" d="M 1625 4666 
L 2156 4666 
L 531 -594 
L 0 -594 
L 1625 4666 
z
" transform="scale(0.015625)"/>
      <path id="DejaVuSans-25" d="M 4653 2053 
Q 4381 2053 4226 1822 
Q 4072 1591 4072 1178 
Q 4072 772 4226 539 
Q 4381 306 4653 306 
Q 4919 306 5073 539 
Q 5228 772 5228 1178 
Q 5228 1588 5073 1820 
Q 4919 2053 4653 2053 
z
M 4653 2450 
Q 5147 2450 5437 2106 
Q 5728 1763 5728 1178 
Q 5728 594 5436 251 
Q 5144 -91 4653 -91 
Q 4153 -91 3862 251 
Q 3572 594 3572 1178 
Q 3572 1766 3864 2108 
Q 4156 2450 4653 2450 
z
M 1428 4353 
Q 1159 4353 1004 4120 
Q 850 3888 850 3481 
Q 850 3069 1003 2837 
Q 1156 2606 1428 2606 
Q 1700 2606 1854 2837 
Q 2009 3069 2009 3481 
Q 2009 3884 1853 4118 
Q 1697 4353 1428 4353 
z
M 4250 4750 
L 4750 4750 
L 1831 -91 
L 1331 -91 
L 4250 4750 
z
M 1428 4750 
Q 1922 4750 2215 4408 
Q 2509 4066 2509 3481 
Q 2509 2891 2217 2550 
Q 1925 2209 1428 2209 
Q 931 2209 642 2551 
Q 353 2894 353 3481 
Q 353 4063 643 4406 
Q 934 4750 1428 4750 
z
" transform="scale(0.015625)"/>
     </defs>
     <use xlink:href="#DejaVuSans-48"/>
     <use xlink:href="#DejaVuSans-61" x="75.195312"/>
     <use xlink:href="#DejaVuSans-6e" x="136.474609"/>
     <use xlink:href="#DejaVuSans-64" x="199.853516"/>
     <use xlink:href="#DejaVuSans-73" x="263.330078"/>
     <use xlink:href="#DejaVuSans-68" x="315.429688"/>
     <use xlink:href="#DejaVuSans-61" x="378.808594"/>
     <use xlink:href="#DejaVuSans-6b" x="440.087891"/>
     <use xlink:href="#DejaVuSans-65" x="494.373047"/>
     <use xlink:href="#DejaVuSans-20" x="555.896484"/>
     <use xlink:href="#DejaVuSans-64" x="587.683594"/>
     <use xlink:href="#DejaVuSans-75" x="651.160156"/>
     <use xlink:href="#DejaVuSans-72" x="714.539062"/>
     <use xlink:href="#DejaVuSans-61" x="755.652344"/>
     <use xlink:href="#DejaVuSans-74" x="816.931641"/>
     <use xlink:href="#DejaVuSans-69" x="856.140625"/>
     <use xlink:href="#DejaVuSans-6f" x="883.923828"/>
     <use xlink:href="#DejaVuSans-6e" x="945.105469"/>
     <use xlink:href="#DejaVuSans-20" x="1008.484375"/>
     <use xlink:href="#DejaVuSans-6f" x="1040.271484"/>
     <use xlink:href="#DejaVuSans-6e" x="1101.453125"/>
     <use xlink:href="#DejaVuSans-20" x="1164.832031"/>
     <use xlink:href="#DejaVuSans-54" x="1196.619141"/>
     <use xlink:href="#DejaVuSans-4c" x="1257.703125"/>
     <use xlink:href="#DejaVuSans-53" x="1313.416016"/>
     <use xlink:href="#DejaVuSans-20" x="1376.892578"/>
     <use xlink:href="#DejaVuSans-77" x="1408.679688"/>
     <use xlink:href="#DejaVuSans-69" x="1490.466797"/>
     <use xlink:href="#DejaVuSans-74" x="1518.25"/>
     <use xlink:href="#DejaVuSans-68" x="1557.458984"/>
     <use xlink:href="#DejaVuSans-20" x="1620.837891"/>
     <use xlink:href="#DejaVuSans-73" x="1652.625"/>
     <use xlink:href="#DejaVuSans-65" x="1704.724609"/>
     <use xlink:href="#DejaVuSans-63" x="1766.248047"/>
     <use xlink:href="#DejaVuSans-70" x="1821.228516"/>
     <use xlink:href="#DejaVuSans-35" x="1884.705078"/>
     <use xlink:href="#DejaVuSans-32" x="1948.328125"/>
     <use xlink:href="#DejaVuSans-31" x="2011.951172"/>
     <use xlink:href="#DejaVuSans-72" x="2075.574219"/>
     <use xlink:href="#DejaVuSans-31" x="2116.6875"/>
     <use xlink:href="#DejaVuSans-20" x="2180.310547"/>
     <use xlink:href="#DejaVuSans-73" x="2212.097656"/>
     <use xlink:href="#DejaVuSans-69" x="2264.197266"/>
     <use xlink:href="#DejaVuSans-67" x="2291.980469"/>
     <use xlink:href="#DejaVuSans-6e" x="2355.457031"/>
     <use xlink:href="#DejaVuSans-61" x="2418.835938"/>
     <use xlink:href="#DejaVuSans-74" x="2480.115234"/>
     <use xlink:href="#DejaVuSans-75" x="2519.324219"/>
     <use xlink:href="#DejaVuSans-72" x="2582.703125"/>
     <use xlink:href="#DejaVuSans-65" x="2621.566406"/>
     <use xlink:href="#DejaVuSans-20" x="2683.089844"/>
     <use xlink:href="#DejaVuSans-61" x="2714.876953"/>
     <use xlink:href="#DejaVuSans-6c" x="2776.15625"/>
     <use xlink:href="#DejaVuSans-67" x="2803.939453"/>
     <use xlink:href="#DejaVuSans-6f" x="2867.416016"/>
     <use xlink:href="#DejaVuSans-72" x="2928.597656"/>
     <use xlink:href="#DejaVuSans-69" x="2969.710938"/>
     <use xlink:href="#DejaVuSans-74" x="2997.494141"/>
     <use xlink:href="#DejaVuSans-68" x="3036.703125"/>
     <use xlink:href="#DejaVuSans-6d" x="3100.082031"/>
     <use xlink:href="#DejaVuSans-20" x="3197.494141"/>
     <use xlink:href="#DejaVuSans-2014" x="3229.28125"/>
     <use xlink:href="#DejaVuSans-20" x="3329.28125"/>
     <use xlink:href="#DejaVuSans-42" x="3361.068359"/>
     <use xlink:href="#DejaVuSans-61" x="3429.671875"/>
     <use xlink:href="#DejaVuSans-63" x="3490.951172"/>
     <use xlink:href="#DejaVuSans-6b" x="3545.931641"/>
     <use xlink:href="#DejaVuSans-62" x="3603.841797"/>
     <use xlink:href="#DejaVuSans-6f" x="3667.318359"/>
     <use xlink:href="#DejaVuSans-6e" x="3728.5"/>
     <use xlink:href="#DejaVuSans-65" x="3791.878906"/>
     <use xlink:href="#DejaVuSans-20" x="3853.402344"/>
     <use xlink:href="#DejaVuSans-28" x="3885.189453"/>
     <use xlink:href="#DejaVuSans-32" x="3924.203125"/>
     <use xlink:href="#DejaVuSans-30" x="3987.826172"/>
     <use xlink:href="#DejaVuSans-30" x="4051.449219"/>
     <use xlink:href="#DejaVuSans-6d" x="4115.072266"/>
     <use xlink:href="#DejaVuSans-73" x="4212.484375"/>
     <use xlink:href="#DejaVuSans-2f" x="4264.583984"/>
     <use xlink:href="#DejaVuSans-34" x="4298.275391"/>
     <use xlink:href="#DejaVuSans-25" x="4361.898438"/>
     <use xlink:href="#DejaVuSans-29" x="4456.917969"/>
    </g>
   </g>
  </g>
 </g>
 <defs>
  <clipPath id="p8187b980c9">
   <rect x="58.32" y="27.6" width="792.72" height="367.54"/>
  </clipPath>
 </defs>
</svg>
