<?xml version="1.0" encoding="utf-8" standalone="no"?>
<!DOCTYPE svg PUBLIC "-//W3C//DTD SVG 1.1//EN"
  "http://www.w3.org/Graphics/SVG/1.1/DTD/svg11.dtd">
<svg xmlns:xlink="http://www.w3.org/1999/xlink" width="864pt" height="432pt" viewBox="0 0 864 432" xmlns="http://www.w3.org/2000/svg" version="1.1">
 <metadata>
  <rdf:RDF xmlns:dc="http://purl.org/dc/elements/1.1/" xmlns:cc="http://creativecommons.org/ns#" xmlns:rdf="http://www.w3.org/1999/02/22-rdf-syntax-ns#">
   <cc:Work>
    <dc:type rdf:resource="http://purl.org/dc/dcmitype/StillImage"/>
    <dc:date>2026-03-21T13:58:46.476073</dc:date>
    <dc:format>image/svg+xml</dc:format>
    <dc:creator>
     <cc:Agent>
      <dc:title>Matplotlib v3.6.3, https://matplotlib.org/</dc:title>
     </cc:Agent>
    </dc:creator>
   </cc:Work>
  </rdf:RDF>
 </metadata>
 <defs>
  <style type="text/css">*{stroke-linejoin: round; stroke-linecap: butt}</style>
 </defs>
 <g id="figure_1">
  <g id="patch_1">
   <path d="M 0 432 
L 864 432 
L 864 0 
L 0 0 
z
" style="fill: #ffffff"/>
  </g>
  <g id="axes_1">
   <g id="patch_2">
    <path d="M 58.32 395.14 
L 851.04 395.14 
L 851.04 27.6 
L 58.32 27.6 
z
" style="fill: #ffffff"/>
   </g>
   <g id="matplotlib.axis_1">
    <g id="xtick_1">
     <g id="text_1">
      <!-- P-521 -->
      <g style="fill: #262626" transform="translate(170.49 415.277812) scale(0.14 -0.14)">
       <defs>
        <path id="DejaVuSans-50" d="M 1259 4147 
L 1259 2394 
L 2053 2394 
Q 2494 2394 2734 2622 
Q 2975 2850 2975 3272 
Q 2975 3691 2734 3919 
Q 2494 4147 2053 4147 
L 1259 4147 
z
M 628 4666 
L 2053 4666 
Q 2838 4666 3239 4311 
Q 3641 3956 3641 3272 
Q 3641 2581 3239 2228 
Q 2838 1875 2053 1875 
L 1259 1875 
L 1259 0 
L 628 0 
L 628 4666 
z
" transform="scale(0.015625)"/>
        <path id="DejaVuSans-2d" d="M 313 2009 
L 1997 2009 
L 1997 1497 
L 313 1497 
L 313 2009 
z
" transform="scale(0.015625)"/>
        <path id="DejaVuSans-35" d="M 691 4666 
L 3169 4666 
L 3169 4134 
L 1269 4134 
L 1269 2991 
Q 1406 3038 1543 3061 
Q 1681 3084 1819 3084 
Q 2600 3084 3056 2656 
Q 3513 2228 3513 1497 
Q 3513 744 3044 326 
Q 2575 -91 1722 -91 
Q 1428 -91 1123 -41 
Q 819 9 494 109 
L 494 744 
Q 775 591 1075 516 
Q 1375 441 1709 441 
Q 2250 441 2565 725 
Q 2881 1009 2881 1497 
Q 2881 1984 2565 2268 
Q 2250 2553 1709 2553 
Q 1456 2553 1204 2497 
Q 953 2441 691 2322 
L 691 4666 
z
" transform="scale(0.015625)"/>
        <path id="DejaVuSans-32" d="M 1228 531 
L 3431 531 
L 3431 0 
L 469 0 
L 469 531 
Q 828 903 1448 1529 
Q 2069 2156 2228 2338 
Q 2531 2678 2651 2914 
Q 2772 3150 2772 3378 
Q 2772 3750 2511 3984 
Q 2250 4219 1831 4219 
Q 1534 4219 1204 4116 
Q 875 4013 500 3803 
L 500 4441 
Q 881 4594 1212 4672 
Q 1544 4750 1819 4750 
Q 2544 4750 2975 4387 
Q 3406 4025 3406 3419 
Q 3406 3131 3298 2873 
Q 3191 2616 2906 2266 
Q 2828 2175 2409 1742 
Q 1991 1309 1228 531 
z
" transform="scale(0.015625)"/>
        <path id="DejaVuSans-31" d="M 794 531 
L 1825 531 
L 1825 4091 
L 703 3866 
L 703 4441 
L 1819 4666 
L 2450 4666 
L 2450 531 
L 3481 531 
L 3481 0 
L 794 0 
L 794 531 
z
" transform="scale(0.015625)"/>
       </defs>
       <use xlink:href="#DejaVuSans-50"/>
       <use xlink:href="#DejaVuSans-2d" x="58.052734"/>
       <use xlink:href="#DejaVuSans-35" x="94.136719"/>
       <use xlink:href="#DejaVuSans-32" x="157.759766"/>
       <use xlink:href="#DejaVuSans-31" x="221.382812"/>
      </g>
     </g>
    </g>
    <g id="xtick_2">
     <g id="text_2">
      <!-- p521_mlkem1024 -->
      <g style="fill: #262626" transform="translate(391.871406 415.277812) scale(0.14 -0.14)">
       <defs>
        <path id="DejaVuSans-70" d="M 1159 525 
L 1159 -1331 
L 581 -1331 
L 581 3500 
L 1159 3500 
L 1159 2969 
Q 1341 3281 1617 3432 
Q 1894 3584 2278 3584 
Q 2916 3584 3314 3078 
Q 3713 2572 3713 1747 
Q 3713 922 3314 415 
Q 2916 -91 2278 -91 
Q 1894 -91 1617 61 
Q 1341 213 1159 525 
z
M 3116 1747 
Q 3116 2381 2855 2742 
Q 2594 3103 2138 3103 
Q 1681 3103 1420 2742 
Q 1159 2381 1159 1747 
Q 1159 1113 1420 752 
Q 1681 391 2138 391 
Q 2594 391 2855 752 
Q 3116 1113 3116 1747 
z
" transform="scale(0.015625)"/>
        <path id="DejaVuSans-5f" d="M 3263 -1063 
L 3263 -1509 
L -63 -1509 
L -63 -1063 
L 3263 -1063 
z
" transform="scale(0.015625)"/>
        <path id="DejaVuSans-6d" d="M 3328 2828 
Q 3544 3216 3844 3400 
Q 4144 3584 4550 3584 
Q 5097 3584 5394 3201 
Q 5691 2819 5691 2113 
L 5691 0 
L 5113 0 
L 5113 2094 
Q 5113 2597 4934 2840 
Q 4756 3084 4391 3084 
Q 3944 3084 3684 2787 
Q 3425 2491 3425 1978 
L 3425 0 
L 2847 0 
L 2847 2094 
Q 2847 2600 2669 2842 
Q 2491 3084 2119 3084 
Q 1678 3084 1418 2786 
Q 1159 2488 1159 1978 
L 1159 0 
L 581 0 
L 581 3500 
L 1159 3500 
L 1159 2956 
Q 1356 3278 1631 3431 
Q 1906 3584 2284 3584 
Q 2666 3584 2933 3390 
Q 3200 3197 3328 2828 
z
" transform="scale(0.015625)"/>
        <path id="DejaVuSans-6c" d="M 603 4863 
L 1178 4863 
L 1178 0 
L 603 0 
L 603 4863 
z
" transform="scale(0.015625)"/>
        <path id="DejaVuSans-6b" d="M 581 4863 
L 1159 4863 
L 1159 1991 
L 2875 3500 
L 3609 3500 
L 1753 1863 
L 3688 0 
L 2938 0 
L 1159 1709 
L 1159 0 
L 581 0 
L 581 4863 
z
" transform="scale(0.015625)"/>
        <path id="DejaVuSans-65" d="M 3597 1894 
L 3597 1613 
L 953 1613 
Q 991 1019 1311 708 
Q 1631 397 2203 397 
Q 2534 397 2845 478 
Q 3156 559 3463 722 
L 3463 178 
Q 3153 47 2828 -22 
Q 2503 -91 2169 -91 
Q 1331 -91 842 396 
Q 353 884 353 1716 
Q 353 2575 817 3079 
Q 1281 3584 2069 3584 
Q 2775 3584 3186 3129 
Q 3597 2675 3597 1894 
z
M 3022 2063 
Q 3016 2534 2758 2815 
Q 2500 3097 2075 3097 
Q 1594 3097 1305 2825 
Q 1016 2553 972 2059 
L 3022 2063 
z
" transform="scale(0.015625)"/>
        <path id="DejaVuSans-30" d="M 2034 4250 
Q 1547 4250 1301 3770 
Q 1056 3291 1056 2328 
Q 1056 1369 1301 889 
Q 1547 409 2034 409 
Q 2525 409 2770 889 
Q 3016 1369 3016 2328 
Q 3016 3291 2770 3770 
Q 2525 4250 2034 4250 
z
M 2034 4750 
Q 2819 4750 3233 4129 
Q 3647 3509 3647 2328 
Q 3647 1150 3233 529 
Q 2819 -91 2034 -91 
Q 1250 -91 836 529 
Q 422 1150 422 2328 
Q 422 3509 836 4129 
Q 1250 4750 2034 4750 
z
" transform="scale(0.015625)"/>
        <path id="DejaVuSans-34" d="M 2419 4116 
L 825 1625 
L 2419 1625 
L 2419 4116 
z
M 2253 4666 
L 3047 4666 
L 3047 1625 
L 3713 1625 
L 3713 1100 
L 3047 1100 
L 3047 0 
L 2419 0 
L 2419 1100 
L 313 1100 
L 313 1709 
L 2253 4666 
z
" transform="scale(0.015625)"/>
       </defs>
       <use xlink:href="#DejaVuSans-70"/>
       <use xlink:href="#DejaVuSans-35" x="63.476562"/>
       <use xlink:href="#DejaVuSans-32" x="127.099609"/>
       <use xlink:href="#DejaVuSans-31" x="190.722656"/>
       <use xlink:href="#DejaVuSans-5f" x="254.345703"/>
       <use xlink:href="#DejaVuSans-6d" x="304.345703"/>
       <use xlink:href="#DejaVuSans-6c" x="401.757812"/>
       <use xlink:href="#DejaVuSans-6b" x="429.541016"/>
       <use xlink:href="#DejaVuSans-65" x="483.826172"/>
       <use xlink:href="#DejaVuSans-6d" x="545.349609"/>
       <use xlink:href="#DejaVuSans-31" x="642.761719"/>
       <use xlink:href="#DejaVuSans-30" x="706.384766"/>
       <use xlink:href="#DejaVuSans-32" x="770.007812"/>
       <use xlink:href="#DejaVuSans-34" x="833.630859"/>
      </g>
     </g>
    </g>
    <g id="xtick_3">
     <g id="text_3">
      <!-- mlkem1024 -->
      <g style="fill: #262626" transform="translate(677.416562 415.277812) scale(0.14 -0.14)">
       <use xlink:href="#DejaVuSans-6d"/>
       <use xlink:href="#DejaVuSans-6c" x="97.412109"/>
       <use xlink:href="#DejaVuSans-6b" x="125.195312"/>
       <use xlink:href="#DejaVuSans-65" x="179.480469"/>
       <use xlink:href="#DejaVuSans-6d" x="241.003906"/>
       <use xlink:href="#DejaVuSans-31" x="338.416016"/>
       <use xlink:href="#DejaVuSans-30" x="402.039062"/>
       <use xlink:href="#DejaVuSans-32" x="465.662109"/>
       <use xlink:href="#DejaVuSans-34" x="529.285156"/>
      </g>
     </g>
    </g>
   </g>
   <g id="matplotlib.axis_2">
    <g id="ytick_1">
     <g id="line2d_1">
      <path d="M 58.32 346.130337 
L 851.04 346.130337 
" clip-path="url(#pbb4206bc57)" style="fill: none; stroke: #cccccc; stroke-linecap: round"/>
     </g>
     <g id="text_4">
      <!-- 820 -->
      <g style="fill: #262626" transform="translate(27.82375 350.309478) scale(0.11 -0.11)">
       <defs>
        <path id="DejaVuSans-38" d="M 2034 2216 
Q 1584 2216 1326 1975 
Q 1069 1734 1069 1313 
Q 1069 891 1326 650 
Q 1584 409 2034 409 
Q 2484 409 2743 651 
Q 3003 894 3003 1313 
Q 3003 1734 2745 1975 
Q 2488 2216 2034 2216 
z
M 1403 2484 
Q 997 2584 770 2862 
Q 544 3141 544 3541 
Q 544 4100 942 4425 
Q 1341 4750 2034 4750 
Q 2731 4750 3128 4425 
Q 3525 4100 3525 3541 
Q 3525 3141 3298 2862 
Q 3072 2584 2669 2484 
Q 3125 2378 3379 2068 
Q 3634 1759 3634 1313 
Q 3634 634 3220 271 
Q 2806 -91 2034 -91 
Q 1263 -91 848 271 
Q 434 634 434 1313 
Q 434 1759 690 2068 
Q 947 2378 1403 2484 
z
M 1172 3481 
Q 1172 3119 1398 2916 
Q 1625 2713 2034 2713 
Q 2441 2713 2670 2916 
Q 2900 3119 2900 3481 
Q 2900 3844 2670 4047 
Q 2441 4250 2034 4250 
Q 1625 4250 1398 4047 
Q 1172 3844 1172 3481 
z
" transform="scale(0.015625)"/>
       </defs>
       <use xlink:href="#DejaVuSans-38"/>
       <use xlink:href="#DejaVuSans-32" x="63.623047"/>
       <use xlink:href="#DejaVuSans-30" x="127.246094"/>
      </g>
     </g>
    </g>
    <g id="ytick_2">
     <g id="line2d_2">
      <path d="M 58.32 273.560489 
L 851.04 273.560489 
" clip-path="url(#pbb4206bc57)" style="fill: none; stroke: #cccccc; stroke-linecap: round"/>
     </g>
     <g id="text_5">
      <!-- 840 -->
      <g style="fill: #262626" transform="translate(27.82375 277.739629) scale(0.11 -0.11)">
       <use xlink:href="#DejaVuSans-38"/>
       <use xlink:href="#DejaVuSans-34" x="63.623047"/>
       <use xlink:href="#DejaVuSans-30" x="127.246094"/>
      </g>
     </g>
    </g>
    <g id="ytick_3">
     <g id="line2d_3">
      <path d="M 58.32 200.99064 
L 851.04 200.99064 
" clip-path="url(#pbb4206bc57)" style="fill: none; stroke: #cccccc; stroke-linecap: round"/>
     </g>
     <g id="text_6">
      <!-- 860 -->
      <g style="fill: #262626" transform="translate(27.82375 205.169781) scale(0.11 -0.11)">
       <defs>
        <path id="DejaVuSans-36" d="M 2113 2584 
Q 1688 2584 1439 2293 
Q 1191 2003 1191 1497 
Q 1191 994 1439 701 
Q 1688 409 2113 409 
Q 2538 409 2786 701 
Q 3034 994 3034 1497 
Q 3034 2003 2786 2293 
Q 2538 2584 2113 2584 
z
M 3366 4563 
L 3366 3988 
Q 3128 4100 2886 4159 
Q 2644 4219 2406 4219 
Q 1781 4219 1451 3797 
Q 1122 3375 1075 2522 
Q 1259 2794 1537 2939 
Q 1816 3084 2150 3084 
Q 2853 3084 3261 2657 
Q 3669 2231 3669 1497 
Q 3669 778 3244 343 
Q 2819 -91 2113 -91 
Q 1303 -91 875 529 
Q 447 1150 447 2328 
Q 447 3434 972 4092 
Q 1497 4750 2381 4750 
Q 2619 4750 2861 4703 
Q 3103 4656 3366 4563 
z
" transform="scale(0.015625)"/>
       </defs>
       <use xlink:href="#DejaVuSans-38"/>
       <use xlink:href="#DejaVuSans-36" x="63.623047"/>
       <use xlink:href="#DejaVuSans-30" x="127.246094"/>
      </g>
     </g>
    </g>
    <g id="ytick_4">
     <g id="line2d_4">
      <path d="M 58.32 128.420792 
L 851.04 128.420792 
" clip-path="url(#pbb4206bc57)" style="fill: none; stroke: #cccccc; stroke-linecap: round"/>
     </g>
     <g id="text_7">
      <!-- 880 -->
      <g style="fill: #262626" transform="translate(27.82375 132.599933) scale(0.11 -0.11)">
       <use xlink:href="#DejaVuSans-38"/>
       <use xlink:href="#DejaVuSans-38" x="63.623047"/>
       <use xlink:href="#DejaVuSans-30" x="127.246094"/>
      </g>
     </g>
    </g>
    <g id="ytick_5">
     <g id="line2d_5">
      <path d="M 58.32 55.850944 
L 851.04 55.850944 
" clip-path="url(#pbb4206bc57)" style="fill: none; stroke: #cccccc; stroke-linecap: round"/>
     </g>
     <g id="text_8">
      <!-- 900 -->
      <g style="fill: #262626" transform="translate(27.82375 60.030084) scale(0.11 -0.11)">
       <defs>
        <path id="DejaVuSans-39" d="M 703 97 
L 703 672 
Q 941 559 1184 500 
Q 1428 441 1663 441 
Q 2288 441 2617 861 
Q 2947 1281 2994 2138 
Q 2813 1869 2534 1725 
Q 2256 1581 1919 1581 
Q 1219 1581 811 2004 
Q 403 2428 403 3163 
Q 403 3881 828 4315 
Q 1253 4750 1959 4750 
Q 2769 4750 3195 4129 
Q 3622 3509 3622 2328 
Q 3622 1225 3098 567 
Q 2575 -91 1691 -91 
Q 1453 -91 1209 -44 
Q 966 3 703 97 
z
M 1959 2075 
Q 2384 2075 2632 2365 
Q 2881 2656 2881 3163 
Q 2881 3666 2632 3958 
Q 2384 4250 1959 4250 
Q 1534 4250 1286 3958 
Q 1038 3666 1038 3163 
Q 1038 2656 1286 2365 
Q 1534 2075 1959 2075 
z
" transform="scale(0.015625)"/>
       </defs>
       <use xlink:href="#DejaVuSans-39"/>
       <use xlink:href="#DejaVuSans-30" x="63.623047"/>
       <use xlink:href="#DejaVuSans-30" x="127.246094"/>
      </g>
     </g>
    </g>
    <g id="text_9">
     <!-- Handshake duration (ms) -->
     <g style="fill: #262626" transform="translate(21.328125 287.437813) rotate(-90) scale(0.12 -0.12)">
      <defs>
       <path id="DejaVuSans-48" d="M 628 4666 
L 1259 4666 
L 1259 2753 
L 3553 2753 
L 3553 4666 
L 4184 4666 
L 4184 0 
L 3553 0 
L 3553 2222 
L 1259 2222 
L 1259 0 
L 628 0 
L 628 4666 
z
" transform="scale(0.015625)"/>
       <path id="DejaVuSans-61" d="M 2194 1759 
Q 1497 1759 1228 1600 
Q 959 1441 959 1056 
Q 959 750 1161 570 
Q 1363 391 1709 391 
Q 2188 391 2477 730 
Q 2766 1069 2766 1631 
L 2766 1759 
L 2194 1759 
z
M 3341 1997 
L 3341 0 
L 2766 0 
L 2766 531 
Q 2569 213 2275 61 
Q 1981 -91 1556 -91 
Q 1019 -91 701 211 
Q 384 513 384 1019 
Q 384 1609 779 1909 
Q 1175 2209 1959 2209 
L 2766 2209 
L 2766 2266 
Q 2766 2663 2505 2880 
Q 2244 3097 1772 3097 
Q 1472 3097 1187 3025 
Q 903 2953 641 2809 
L 641 3341 
Q 956 3463 1253 3523 
Q 1550 3584 1831 3584 
Q 2591 3584 2966 3190 
Q 3341 2797 3341 1997 
z
" transform="scale(0.015625)"/>
       <path id="DejaVuSans-6e" d="M 3513 2113 
L 3513 0 
L 2938 0 
L 2938 2094 
Q 2938 2591 2744 2837 
Q 2550 3084 2163 3084 
Q 1697 3084 1428 2787 
Q 1159 2491 1159 1978 
L 1159 0 
L 581 0 
L 581 3500 
L 1159 3500 
L 1159 2956 
Q 1366 3272 1645 3428 
Q 1925 3584 2291 3584 
Q 2894 3584 3203 3211 
Q 3513 2838 3513 2113 
z
" transform="scale(0.015625)"/>
       <path id="DejaVuSans-64" d="M 2906 2969 
L 2906 4863 
L 3481 4863 
L 3481 0 
L 2906 0 
L 2906 525 
Q 2725 213 2448 61 
Q 2172 -91 1784 -91 
Q 1150 -91 751 415 
Q 353 922 353 1747 
Q 353 2572 751 3078 
Q 1150 3584 1784 3584 
Q 2172 3584 2448 3432 
Q 2725 3281 2906 2969 
z
M 947 1747 
Q 947 1113 1208 752 
Q 1469 391 1925 391 
Q 2381 391 2643 752 
Q 2906 1113 2906 1747 
Q 2906 2381 2643 2742 
Q 2381 3103 1925 3103 
Q 1469 3103 1208 2742 
Q 947 2381 947 1747 
z
" transform="scale(0.015625)"/>
       <path id="DejaVuSans-73" d="M 2834 3397 
L 2834 2853 
Q 2591 2978 2328 3040 
Q 2066 3103 1784 3103 
Q 1356 3103 1142 2972 
Q 928 2841 928 2578 
Q 928 2378 1081 2264 
Q 1234 2150 1697 2047 
L 1894 2003 
Q 2506 1872 2764 1633 
Q 3022 1394 3022 966 
Q 3022 478 2636 193 
Q 2250 -91 1575 -91 
Q 1294 -91 989 -36 
Q 684 19 347 128 
L 347 722 
Q 666 556 975 473 
Q 1284 391 1588 391 
Q 1994 391 2212 530 
Q 2431 669 2431 922 
Q 2431 1156 2273 1281 
Q 2116 1406 1581 1522 
L 1381 1569 
Q 847 1681 609 1914 
Q 372 2147 372 2553 
Q 372 3047 722 3315 
Q 1072 3584 1716 3584 
Q 2034 3584 2315 3537 
Q 2597 3491 2834 3397 
z
" transform="scale(0.015625)"/>
       <path id="DejaVuSans-68" d="M 3513 2113 
L 3513 0 
L 2938 0 
L 2938 2094 
Q 2938 2591 2744 2837 
Q 2550 3084 2163 3084 
Q 1697 3084 1428 2787 
Q 1159 2491 1159 1978 
L 1159 0 
L 581 0 
L 581 4863 
L 1159 4863 
L 1159 2956 
Q 1366 3272 1645 3428 
Q 1925 3584 2291 3584 
Q 2894 3584 3203 3211 
Q 3513 2838 3513 2113 
z
" transform="scale(0.015625)"/>
       <path id="DejaVuSans-20" transform="scale(0.015625)"/>
       <path id="DejaVuSans-75" d="M 544 1381 
L 544 3500 
L 1119 3500 
L 1119 1403 
Q 1119 906 1312 657 
Q 1506 409 1894 409 
Q 2359 409 2629 706 
Q 2900 1003 2900 1516 
L 2900 3500 
L 3475 3500 
L 3475 0 
L 2900 0 
L 2900 538 
Q 2691 219 2414 64 
Q 2138 -91 1772 -91 
Q 1169 -91 856 284 
Q 544 659 544 1381 
z
M 1991 3584 
L 1991 3584 
z
" transform="scale(0.015625)"/>
       <path id="DejaVuSans-72" d="M 2631 2963 
Q 2534 3019 2420 3045 
Q 2306 3072 2169 3072 
Q 1681 3072 1420 2755 
Q 1159 2438 1159 1844 
L 1159 0 
L 581 0 
L 581 3500 
L 1159 3500 
L 1159 2956 
Q 1341 3275 1631 3429 
Q 1922 3584 2338 3584 
Q 2397 3584 2469 3576 
Q 2541 3569 2628 3553 
L 2631 2963 
z
" transform="scale(0.015625)"/>
       <path id="DejaVuSans-74" d="M 1172 4494 
L 1172 3500 
L 2356 3500 
L 2356 3053 
L 1172 3053 
L 1172 1153 
Q 1172 725 1289 603 
Q 1406 481 1766 481 
L 2356 481 
L 2356 0 
L 1766 0 
Q 1100 0 847 248 
Q 594 497 594 1153 
L 594 3053 
L 172 3053 
L 172 3500 
L 594 3500 
L 594 4494 
L 1172 4494 
z
" transform="scale(0.015625)"/>
       <path id="DejaVuSans-69" d="M 603 3500 
L 1178 3500 
L 1178 0 
L 603 0 
L 603 3500 
z
M 603 4863 
L 1178 4863 
L 1178 4134 
L 603 4134 
L 603 4863 
z
" transform="scale(0.015625)"/>
       <path id="DejaVuSans-6f" d="M 1959 3097 
Q 1497 3097 1228 2736 
Q 959 2375 959 1747 
Q 959 1119 1226 758 
Q 1494 397 1959 397 
Q 2419 397 2687 759 
Q 2956 1122 2956 1747 
Q 2956 2369 2687 2733 
Q 2419 3097 1959 3097 
z
M 1959 3584 
Q 2709 3584 3137 3096 
Q 3566 2609 3566 1747 
Q 3566 888 3137 398 
Q 2709 -91 1959 -91 
Q 1206 -91 779 398 
Q 353 888 353 1747 
Q 353 2609 779 3096 
Q 1206 3584 1959 3584 
z
" transform="scale(0.015625)"/>
       <path id="DejaVuSans-28" d="M 1984 4856 
Q 1566 4138 1362 3434 
Q 1159 2731 1159 2009 
Q 1159 1288 1364 580 
Q 1569 -128 1984 -844 
L 1484 -844 
Q 1016 -109 783 600 
Q 550 1309 550 2009 
Q 550 2706 781 3412 
Q 1013 4119 1484 4856 
L 1984 4856 
z
" transform="scale(0.015625)"/>
       <path id="DejaVuSans-29" d="M 513 4856 
L 1013 4856 
Q 1481 4119 1714 3412 
Q 1947 2706 1947 2009 
Q 1947 1309 1714 600 
Q 1481 -109 1013 -844 
L 513 -844 
Q 928 -128 1133 580 
Q 1338 1288 1338 2009 
Q 1338 2731 1133 3434 
Q 928 4138 513 4856 
z
" transform="scale(0.015625)"/>
      </defs>
      <use xlink:href="#DejaVuSans-48"/>
      <use xlink:href="#DejaVuSans-61" x="75.195312"/>
      <use xlink:href="#DejaVuSans-6e" x="136.474609"/>
      <use xlink:href="#DejaVuSans-64" x="199.853516"/>
      <use xlink:href="#DejaVuSans-73" x="263.330078"/>
      <use xlink:href="#DejaVuSans-68" x="315.429688"/>
      <use xlink:href="#DejaVuSans-61" x="378.808594"/>
      <use xlink:href="#DejaVuSans-6b" x="440.087891"/>
      <use xlink:href="#DejaVuSans-65" x="494.373047"/>
      <use xlink:href="#DejaVuSans-20" x="555.896484"/>
      <use xlink:href="#DejaVuSans-64" x="587.683594"/>
      <use xlink:href="#DejaVuSans-75" x="651.160156"/>
      <use xlink:href="#DejaVuSans-72" x="714.539062"/>
      <use xlink:href="#DejaVuSans-61" x="755.652344"/>
      <use xlink:href="#DejaVuSans-74" x="816.931641"/>
      <use xlink:href="#DejaVuSans-69" x="856.140625"/>
      <use xlink:href="#DejaVuSans-6f" x="883.923828"/>
      <use xlink:href="#DejaVuSans-6e" x="945.105469"/>
      <use xlink:href="#DejaVuSans-20" x="1008.484375"/>
      <use xlink:href="#DejaVuSans-28" x="1040.271484"/>
      <use xlink:href="#DejaVuSans-6d" x="1079.285156"/>
      <use xlink:href="#DejaVuSans-73" x="1176.697266"/>
      <use xlink:href="#DejaVuSans-29" x="1228.796875"/>
     </g>
    </g>
   </g>
   <g id="PolyCollection_1">
    <defs>
     <path id="m1ab0ffe648" d="M 190.545862 -115.673835 
L 190.334138 -115.673835 
L 190.250489 -118.034633 
L 190.133012 -120.39543 
L 189.990009 -122.756228 
L 189.843128 -125.117026 
L 189.723599 -127.477824 
L 189.661901 -129.838622 
L 189.675204 -132.199419 
L 189.759542 -134.560217 
L 189.891396 -136.921015 
L 190.037515 -139.281813 
L 190.166805 -141.642611 
L 190.257824 -144.003408 
L 190.299474 -146.364206 
L 190.287336 -148.725004 
L 190.220125 -151.085802 
L 190.099116 -153.4466 
L 189.929696 -155.807397 
L 189.721561 -158.168195 
L 189.484767 -160.528993 
L 189.223162 -162.889791 
L 188.931231 -165.250589 
L 188.600385 -167.611387 
L 188.234086 -169.972184 
L 187.862278 -172.332982 
L 187.542358 -174.69378 
L 187.341018 -177.054578 
L 187.304436 -179.415376 
L 187.433476 -181.776173 
L 187.678096 -184.136971 
L 187.952754 -186.497769 
L 188.161872 -188.858567 
L 188.220964 -191.219365 
L 188.066235 -193.580162 
L 187.655706 -195.94096 
L 186.968817 -198.301758 
L 186.007066 -200.662556 
L 184.791791 -203.023354 
L 183.352969 -205.384152 
L 181.704231 -207.744949 
L 179.799897 -210.105747 
L 177.471698 -212.466545 
L 174.356414 -214.827343 
L 169.85626 -217.188141 
L 163.205157 -219.548938 
L 153.70774 -221.909736 
L 141.140898 -224.270534 
L 126.174078 -226.631332 
L 110.556224 -228.99213 
L 96.844759 -231.352927 
L 87.660479 -233.713725 
L 84.744 -236.074523 
L 88.261514 -238.435321 
L 96.708735 -240.796119 
L 107.439606 -243.156917 
L 117.52669 -245.517714 
L 124.559731 -247.878512 
L 127.132966 -250.23931 
L 124.996537 -252.600108 
L 118.969395 -254.960906 
L 110.691097 -257.321703 
L 102.23196 -259.682501 
L 95.595336 -262.043299 
L 92.228934 -264.404097 
L 92.715506 -266.764895 
L 96.759834 -269.125692 
L 103.453426 -271.48649 
L 111.6748 -273.847288 
L 120.446354 -276.208086 
L 129.123455 -278.568884 
L 137.391454 -280.929682 
L 145.135702 -283.290479 
L 152.289622 -285.651277 
L 158.74584 -288.012075 
L 164.356551 -290.372873 
L 168.992376 -292.733671 
L 172.606148 -295.094468 
L 175.262596 -297.455266 
L 177.125465 -299.816064 
L 178.416956 -302.176862 
L 179.370632 -304.53766 
L 180.192535 -306.898457 
L 181.035449 -309.259255 
L 181.9855 -311.620053 
L 183.059964 -313.980851 
L 184.21677 -316.341649 
L 185.37543 -318.702447 
L 186.445203 -321.063244 
L 187.352574 -323.424042 
L 188.060047 -325.78484 
L 188.571838 -328.145638 
L 188.92652 -330.506436 
L 189.180262 -332.867233 
L 189.386777 -335.228031 
L 189.581393 -337.588829 
L 189.775168 -339.949627 
L 189.96013 -342.310425 
L 190.120975 -344.671222 
L 190.24606 -347.03202 
L 190.332653 -349.392818 
L 190.547347 -349.392818 
L 190.547347 -349.392818 
L 190.63394 -347.03202 
L 190.759025 -344.671222 
L 190.91987 -342.310425 
L 191.104832 -339.949627 
L 191.298607 -337.588829 
L 191.493223 -335.228031 
L 191.699738 -332.867233 
L 191.95348 -330.506436 
L 192.308162 -328.145638 
L 192.819953 -325.78484 
L 193.527426 -323.424042 
L 194.434797 -321.063244 
L 195.50457 -318.702447 
L 196.66323 -316.341649 
L 197.820036 -313.980851 
L 198.8945 -311.620053 
L 199.844551 -309.259255 
L 200.687465 -306.898457 
L 201.509368 -304.53766 
L 202.463044 -302.176862 
L 203.754535 -299.816064 
L 205.617404 -297.455266 
L 208.273852 -295.094468 
L 211.887624 -292.733671 
L 216.523449 -290.372873 
L 222.13416 -288.012075 
L 228.590378 -285.651277 
L 235.744298 -283.290479 
L 243.488546 -280.929682 
L 251.756545 -278.568884 
L 260.433646 -276.208086 
L 269.2052 -273.847288 
L 277.426574 -271.48649 
L 284.120166 -269.125692 
L 288.164494 -266.764895 
L 288.651066 -264.404097 
L 285.284664 -262.043299 
L 278.64804 -259.682501 
L 270.188903 -257.321703 
L 261.910605 -254.960906 
L 255.883463 -252.600108 
L 253.747034 -250.23931 
L 256.320269 -247.878512 
L 263.35331 -245.517714 
L 273.440394 -243.156917 
L 284.171265 -240.796119 
L 292.618486 -238.435321 
L 296.136 -236.074523 
L 293.219521 -233.713725 
L 284.035241 -231.352927 
L 270.323776 -228.99213 
L 254.705922 -226.631332 
L 239.739102 -224.270534 
L 227.17226 -221.909736 
L 217.674843 -219.548938 
L 211.02374 -217.188141 
L 206.523586 -214.827343 
L 203.408302 -212.466545 
L 201.080103 -210.105747 
L 199.175769 -207.744949 
L 197.527031 -205.384152 
L 196.088209 -203.023354 
L 194.872934 -200.662556 
L 193.911183 -198.301758 
L 193.224294 -195.94096 
L 192.813765 -193.580162 
L 192.659036 -191.219365 
L 192.718128 -188.858567 
L 192.927246 -186.497769 
L 193.201904 -184.136971 
L 193.446524 -181.776173 
L 193.575564 -179.415376 
L 193.538982 -177.054578 
L 193.337642 -174.69378 
L 193.017722 -172.332982 
L 192.645914 -169.972184 
L 192.279615 -167.611387 
L 191.948769 -165.250589 
L 191.656838 -162.889791 
L 191.395233 -160.528993 
L 191.158439 -158.168195 
L 190.950304 -155.807397 
L 190.780884 -153.4466 
L 190.659875 -151.085802 
L 190.592664 -148.725004 
L 190.580526 -146.364206 
L 190.622176 -144.003408 
L 190.713195 -141.642611 
L 190.842485 -139.281813 
L 190.988604 -136.921015 
L 191.120458 -134.560217 
L 191.204796 -132.199419 
L 191.218099 -129.838622 
L 191.156401 -127.477824 
L 191.036872 -125.117026 
L 190.889991 -122.756228 
L 190.746988 -120.39543 
L 190.629511 -118.034633 
L 190.545862 -115.673835 
z
" style="stroke: #595959; stroke-width: 1.25"/>
    </defs>
    <g clip-path="url(#pbb4206bc57)">
     <use xlink:href="#m1ab0ffe648" x="0" y="432" style="fill: #72b6a1; stroke: #595959; stroke-width: 1.25"/>
    </g>
   </g>
   <g id="PolyCollection_2">
    <defs>
     <path id="mf35a84918c" d="M 454.74617 -170.371277 
L 454.61383 -170.371277 
L 454.562899 -172.566452 
L 454.491676 -174.761628 
L 454.40477 -176.956803 
L 454.314462 -179.151978 
L 454.23882 -181.347154 
L 454.196112 -183.542329 
L 454.197696 -185.737505 
L 454.243137 -187.93268 
L 454.320392 -190.127855 
L 454.410951 -192.323031 
L 454.496907 -194.518206 
L 454.566217 -196.713381 
L 454.614055 -198.908557 
L 454.640621 -201.103732 
L 454.64729 -203.298907 
L 454.633122 -205.494083 
L 454.593144 -207.689258 
L 454.519304 -209.884433 
L 454.404385 -212.079609 
L 454.248013 -214.274784 
L 454.06203 -216.469959 
L 453.871191 -218.665135 
L 453.70629 -220.86031 
L 453.590887 -223.055485 
L 453.527666 -225.250661 
L 453.492029 -227.445836 
L 453.437155 -229.641011 
L 453.308642 -231.836187 
L 453.062689 -234.031362 
L 452.681767 -236.226537 
L 452.18407 -238.421713 
L 451.624406 -240.616888 
L 451.084611 -242.812064 
L 450.653455 -245.007239 
L 450.400918 -247.202414 
L 450.356721 -249.39759 
L 450.503278 -251.592765 
L 450.78671 -253.78794 
L 451.139839 -255.983116 
L 451.504569 -258.178291 
L 451.842541 -260.373466 
L 452.131269 -262.568642 
L 452.352239 -264.763817 
L 452.480882 -266.958992 
L 452.4842 -269.154168 
L 452.324293 -271.349343 
L 451.961622 -273.544518 
L 451.353771 -275.739694 
L 450.451564 -277.934869 
L 449.199407 -280.130044 
L 447.546494 -282.32522 
L 445.470122 -284.520395 
L 443.005314 -286.71557 
L 440.27009 -288.910746 
L 437.474547 -291.105921 
L 434.903426 -293.301096 
L 432.866289 -295.496272 
L 431.618438 -297.691447 
L 431.270263 -299.886623 
L 431.717264 -302.081798 
L 432.625793 -304.276973 
L 433.490442 -306.472149 
L 433.741985 -308.667324 
L 432.852783 -310.862499 
L 430.387779 -313.057675 
L 425.993146 -315.25285 
L 419.375723 -317.448025 
L 410.355872 -319.643201 
L 399.037195 -321.838376 
L 386.039099 -324.033551 
L 372.645365 -326.228727 
L 360.711293 -328.423902 
L 352.274908 -330.619077 
L 348.984 -332.814253 
L 351.5747 -335.009428 
L 359.633613 -337.204603 
L 371.743016 -339.399779 
L 385.930139 -341.594954 
L 400.220648 -343.790129 
L 413.087482 -345.985305 
L 423.670423 -348.18048 
L 431.756572 -350.375655 
L 437.598271 -352.570831 
L 441.676698 -354.766006 
L 444.502034 -356.961182 
L 446.496998 -359.156357 
L 447.963462 -361.351532 
L 449.100798 -363.546708 
L 450.03817 -365.741883 
L 450.857187 -367.937058 
L 451.601781 -370.132234 
L 452.284136 -372.327409 
L 452.894509 -374.522584 
L 453.415095 -376.71776 
L 453.832708 -378.912935 
L 454.145639 -381.10811 
L 454.363913 -383.303286 
L 454.505291 -385.498461 
L 454.590113 -387.693636 
L 454.769887 -387.693636 
L 454.769887 -387.693636 
L 454.854709 -385.498461 
L 454.996087 -383.303286 
L 455.214361 -381.10811 
L 455.527292 -378.912935 
L 455.944905 -376.71776 
L 456.465491 -374.522584 
L 457.075864 -372.327409 
L 457.758219 -370.132234 
L 458.502813 -367.937058 
L 459.32183 -365.741883 
L 460.259202 -363.546708 
L 461.396538 -361.351532 
L 462.863002 -359.156357 
L 464.857966 -356.961182 
L 467.683302 -354.766006 
L 471.761729 -352.570831 
L 477.603428 -350.375655 
L 485.689577 -348.18048 
L 496.272518 -345.985305 
L 509.139352 -343.790129 
L 523.429861 -341.594954 
L 537.616984 -339.399779 
L 549.726387 -337.204603 
L 557.7853 -335.009428 
L 560.376 -332.814253 
L 557.085092 -330.619077 
L 548.648707 -328.423902 
L 536.714635 -326.228727 
L 523.320901 -324.033551 
L 510.322805 -321.838376 
L 499.004128 -319.643201 
L 489.984277 -317.448025 
L 483.366854 -315.25285 
L 478.972221 -313.057675 
L 476.507217 -310.862499 
L 475.618015 -308.667324 
L 475.869558 -306.472149 
L 476.734207 -304.276973 
L 477.642736 -302.081798 
L 478.089737 -299.886623 
L 477.741562 -297.691447 
L 476.493711 -295.496272 
L 474.456574 -293.301096 
L 471.885453 -291.105921 
L 469.08991 -288.910746 
L 466.354686 -286.71557 
L 463.889878 -284.520395 
L 461.813506 -282.32522 
L 460.160593 -280.130044 
L 458.908436 -277.934869 
L 458.006229 -275.739694 
L 457.398378 -273.544518 
L 457.035707 -271.349343 
L 456.8758 -269.154168 
L 456.879118 -266.958992 
L 457.007761 -264.763817 
L 457.228731 -262.568642 
L 457.517459 -260.373466 
L 457.855431 -258.178291 
L 458.220161 -255.983116 
L 458.57329 -253.78794 
L 458.856722 -251.592765 
L 459.003279 -249.39759 
L 458.959082 -247.202414 
L 458.706545 -245.007239 
L 458.275389 -242.812064 
L 457.735594 -240.616888 
L 457.17593 -238.421713 
L 456.678233 -236.226537 
L 456.297311 -234.031362 
L 456.051358 -231.836187 
L 455.922845 -229.641011 
L 455.867971 -227.445836 
L 455.832334 -225.250661 
L 455.769113 -223.055485 
L 455.65371 -220.86031 
L 455.488809 -218.665135 
L 455.29797 -216.469959 
L 455.111987 -214.274784 
L 454.955615 -212.079609 
L 454.840696 -209.884433 
L 454.766856 -207.689258 
L 454.726878 -205.494083 
L 454.71271 -203.298907 
L 454.719379 -201.103732 
L 454.745945 -198.908557 
L 454.793783 -196.713381 
L 454.863093 -194.518206 
L 454.949049 -192.323031 
L 455.039608 -190.127855 
L 455.116863 -187.93268 
L 455.162304 -185.737505 
L 455.163888 -183.542329 
L 455.12118 -181.347154 
L 455.045538 -179.151978 
L 454.95523 -176.956803 
L 454.868324 -174.761628 
L 454.797101 -172.566452 
L 454.74617 -170.371277 
z
" style="stroke: #595959; stroke-width: 1.25"/>
    </defs>
    <g clip-path="url(#pbb4206bc57)">
     <use xlink:href="#mf35a84918c" x="0" y="432" style="fill: #e99675; stroke: #595959; stroke-width: 1.25"/>
    </g>
   </g>
   <g id="PolyCollection_3">
    <defs>
     <path id="m62b60dde4d" d="M 718.973027 -53.566364 
L 718.866973 -53.566364 
L 718.805046 -54.647044 
L 718.713571 -55.727725 
L 718.61293 -56.808406 
L 718.541624 -57.889086 
L 718.533785 -58.969767 
L 718.593446 -60.050448 
L 718.691282 -61.131129 
L 718.787302 -62.211809 
L 718.856225 -63.29249 
L 718.89461 -64.373171 
L 718.911621 -65.453851 
L 718.917672 -66.534532 
L 718.919243 -67.615213 
L 718.918748 -68.695894 
L 718.915357 -69.776574 
L 718.90463 -70.857255 
L 718.877662 -71.937936 
L 718.823078 -73.018616 
L 718.734957 -74.099297 
L 718.623116 -75.179978 
L 718.513443 -76.260658 
L 718.430598 -77.341339 
L 718.376932 -78.42202 
L 718.332383 -79.502701 
L 718.276599 -80.583381 
L 718.203724 -81.664062 
L 718.106657 -82.744743 
L 717.944254 -83.825423 
L 717.629715 -84.906104 
L 717.071022 -85.986785 
L 716.254054 -87.067466 
L 715.30313 -88.148146 
L 714.446161 -89.228827 
L 713.895691 -90.309508 
L 713.748795 -91.390188 
L 713.983412 -92.470869 
L 714.516699 -93.55155 
L 715.242667 -94.63223 
L 716.027866 -95.712911 
L 716.711208 -96.793592 
L 717.144277 -97.874273 
L 717.252723 -98.954953 
L 717.069307 -100.035634 
L 716.712125 -101.116315 
L 716.327645 -102.196995 
L 716.036129 -103.277676 
L 715.894847 -104.358357 
L 715.871173 -105.439038 
L 715.810175 -106.519718 
L 715.365213 -107.600399 
L 713.859098 -108.68108 
L 710.1326 -109.76176 
L 702.598861 -110.842441 
L 689.789178 -111.923122 
L 671.44829 -113.003802 
L 649.683743 -114.084483 
L 629.167569 -115.165164 
L 615.641108 -116.245845 
L 613.224 -117.326525 
L 622.277013 -118.407206 
L 639.384498 -119.487887 
L 659.370575 -120.568567 
L 677.761435 -121.649248 
L 692.135592 -122.729929 
L 702.029242 -123.81061 
L 708.11653 -124.89129 
L 711.467 -125.971971 
L 713.142337 -127.052652 
L 713.993479 -128.133332 
L 714.54196 -129.214013 
L 714.988158 -130.294694 
L 715.366883 -131.375374 
L 715.718607 -132.456055 
L 716.123091 -133.536736 
L 716.61222 -134.617417 
L 717.115966 -135.698097 
L 717.524786 -136.778778 
L 717.79232 -137.859459 
L 717.964968 -138.940139 
L 718.123348 -140.02082 
L 718.310191 -141.101501 
L 718.510733 -142.182182 
L 718.684704 -143.262862 
L 718.805419 -144.343543 
L 718.872947 -145.424224 
L 718.903343 -146.504904 
L 718.913073 -147.585585 
L 718.910514 -148.666266 
L 718.894388 -149.746946 
L 718.856188 -150.827627 
L 718.787297 -151.908308 
L 718.691282 -152.988989 
L 718.593446 -154.069669 
L 718.533785 -155.15035 
L 718.541624 -156.231031 
L 718.61293 -157.311711 
L 718.713571 -158.392392 
L 718.805046 -159.473073 
L 718.866973 -160.553754 
L 718.973027 -160.553754 
L 718.973027 -160.553754 
L 719.034954 -159.473073 
L 719.126429 -158.392392 
L 719.22707 -157.311711 
L 719.298376 -156.231031 
L 719.306215 -155.15035 
L 719.246554 -154.069669 
L 719.148718 -152.988989 
L 719.052703 -151.908308 
L 718.983812 -150.827627 
L 718.945612 -149.746946 
L 718.929486 -148.666266 
L 718.926927 -147.585585 
L 718.936657 -146.504904 
L 718.967053 -145.424224 
L 719.034581 -144.343543 
L 719.155296 -143.262862 
L 719.329267 -142.182182 
L 719.529809 -141.101501 
L 719.716652 -140.02082 
L 719.875032 -138.940139 
L 720.04768 -137.859459 
L 720.315214 -136.778778 
L 720.724034 -135.698097 
L 721.22778 -134.617417 
L 721.716909 -133.536736 
L 722.121393 -132.456055 
L 722.473117 -131.375374 
L 722.851842 -130.294694 
L 723.29804 -129.214013 
L 723.846521 -128.133332 
L 724.697663 -127.052652 
L 726.373 -125.971971 
L 729.72347 -124.89129 
L 735.810758 -123.81061 
L 745.704408 -122.729929 
L 760.078565 -121.649248 
L 778.469425 -120.568567 
L 798.455502 -119.487887 
L 815.562987 -118.407206 
L 824.616 -117.326525 
L 822.198892 -116.245845 
L 808.672431 -115.165164 
L 788.156257 -114.084483 
L 766.39171 -113.003802 
L 748.050822 -111.923122 
L 735.241139 -110.842441 
L 727.7074 -109.76176 
L 723.980902 -108.68108 
L 722.474787 -107.600399 
L 722.029825 -106.519718 
L 721.968827 -105.439038 
L 721.945153 -104.358357 
L 721.803871 -103.277676 
L 721.512355 -102.196995 
L 721.127875 -101.116315 
L 720.770693 -100.035634 
L 720.587277 -98.954953 
L 720.695723 -97.874273 
L 721.128792 -96.793592 
L 721.812134 -95.712911 
L 722.597333 -94.63223 
L 723.323301 -93.55155 
L 723.856588 -92.470869 
L 724.091205 -91.390188 
L 723.944309 -90.309508 
L 723.393839 -89.228827 
L 722.53687 -88.148146 
L 721.585946 -87.067466 
L 720.768978 -85.986785 
L 720.210285 -84.906104 
L 719.895746 -83.825423 
L 719.733343 -82.744743 
L 719.636276 -81.664062 
L 719.563401 -80.583381 
L 719.507617 -79.502701 
L 719.463068 -78.42202 
L 719.409402 -77.341339 
L 719.326557 -76.260658 
L 719.216884 -75.179978 
L 719.105043 -74.099297 
L 719.016922 -73.018616 
L 718.962338 -71.937936 
L 718.93537 -70.857255 
L 718.924643 -69.776574 
L 718.921252 -68.695894 
L 718.920757 -67.615213 
L 718.922328 -66.534532 
L 718.928379 -65.453851 
L 718.94539 -64.373171 
L 718.983775 -63.29249 
L 719.052698 -62.211809 
L 719.148718 -61.131129 
L 719.246554 -60.050448 
L 719.306215 -58.969767 
L 719.298376 -57.889086 
L 719.22707 -56.808406 
L 719.126429 -55.727725 
L 719.034954 -54.647044 
L 718.973027 -53.566364 
z
" style="stroke: #595959; stroke-width: 1.25"/>
    </defs>
    <g clip-path="url(#pbb4206bc57)">
     <use xlink:href="#m62b60dde4d" x="0" y="432" style="fill: #95a3c3; stroke: #595959; stroke-width: 1.25"/>
    </g>
   </g>
   <g id="line2d_6">
    <path d="M 190.44 196.890444 
L 190.44 239.162381 
" clip-path="url(#pbb4206bc57)" style="fill: none; stroke: #000000"/>
   </g>
   <g id="line2d_7">
    <path d="M 190.44 162.383481 
L 190.44 115.721069 
" clip-path="url(#pbb4206bc57)" style="fill: none; stroke: #000000"/>
   </g>
   <g id="line2d_8">
    <path d="M 180.531 239.162381 
L 200.349 239.162381 
" clip-path="url(#pbb4206bc57)" style="fill: none; stroke: #000000; stroke-linecap: round"/>
   </g>
   <g id="line2d_9">
    <path d="M 180.531 115.721069 
L 200.349 115.721069 
" clip-path="url(#pbb4206bc57)" style="fill: none; stroke: #000000; stroke-linecap: round"/>
   </g>
   <g id="line2d_10">
    <path d="M 454.68 114.042891 
L 454.68 140.576242 
" clip-path="url(#pbb4206bc57)" style="fill: none; stroke: #000000"/>
   </g>
   <g id="line2d_11">
    <path d="M 454.68 95.873215 
L 454.68 69.131226 
" clip-path="url(#pbb4206bc57)" style="fill: none; stroke: #000000"/>
   </g>
   <g id="line2d_12">
    <path d="M 444.771 140.576242 
L 464.589 140.576242 
" clip-path="url(#pbb4206bc57)" style="fill: none; stroke: #000000; stroke-linecap: round"/>
   </g>
   <g id="line2d_13">
    <path d="M 444.771 69.131226 
L 464.589 69.131226 
" clip-path="url(#pbb4206bc57)" style="fill: none; stroke: #000000; stroke-linecap: round"/>
   </g>
   <g id="line2d_14">
    <path d="M 718.92 316.558124 
L 718.92 320.767175 
" clip-path="url(#pbb4206bc57)" style="fill: none; stroke: #000000"/>
   </g>
   <g id="line2d_15">
    <path d="M 718.92 313.292481 
L 718.92 308.684295 
" clip-path="url(#pbb4206bc57)" style="fill: none; stroke: #000000"/>
   </g>
   <g id="line2d_16">
    <path d="M 709.011 320.767175 
L 728.829 320.767175 
" clip-path="url(#pbb4206bc57)" style="fill: none; stroke: #000000; stroke-linecap: round"/>
   </g>
   <g id="line2d_17">
    <path d="M 709.011 308.684295 
L 728.829 308.684295 
" clip-path="url(#pbb4206bc57)" style="fill: none; stroke: #000000; stroke-linecap: round"/>
   </g>
   <g id="line2d_18">
    <path d="M 170.622 174.067227 
L 210.258 174.067227 
" clip-path="url(#pbb4206bc57)" style="fill: none; stroke: #ff0000; stroke-width: 2"/>
   </g>
   <g id="line2d_19">
    <path d="M 434.862 101.061959 
L 474.498 101.061959 
" clip-path="url(#pbb4206bc57)" style="fill: none; stroke: #ff0000; stroke-width: 2"/>
   </g>
   <g id="line2d_20">
    <path d="M 699.102 315.106727 
L 738.738 315.106727 
" clip-path="url(#pbb4206bc57)" style="fill: none; stroke: #ff0000; stroke-width: 2"/>
   </g>
   <g id="patch_3">
    <path d="M 58.32 395.14 
L 58.32 27.6 
" style="fill: none; stroke: #cccccc; stroke-width: 1.25; stroke-linejoin: miter; stroke-linecap: square"/>
   </g>
   <g id="patch_4">
    <path d="M 851.04 395.14 
L 851.04 27.6 
" style="fill: none; stroke: #cccccc; stroke-width: 1.25; stroke-linejoin: miter; stroke-linecap: square"/>
   </g>
   <g id="patch_5">
    <path d="M 58.32 395.14 
L 851.04 395.14 
" style="fill: none; stroke: #cccccc; stroke-width: 1.25; stroke-linejoin: miter; stroke-linecap: square"/>
   </g>
   <g id="patch_6">
    <path d="M 58.32 27.6 
L 851.04 27.6 
" style="fill: none; stroke: #cccccc; stroke-width: 1.25; stroke-linejoin: miter; stroke-linecap: square"/>
   </g>
   <g id="text_10">
    <!-- Handshake duration on TLS with secp521r1 signature algorithm — Degraded (200ms/10%) -->
    <g style="fill: #262626" transform="translate(181.07625 21.6) scale(0.12 -0.12)">
     <defs>
      <path id="DejaVuSans-54" d="M -19 4666 
L 3928 4666 
L 3928 4134 
L 2272 4134 
L 2272 0 
L 1638 0 
L 1638 4134 
L -19 4134 
L -19 4666 
z
" transform="scale(0.015625)"/>
      <path id="DejaVuSans-4c" d="M 628 4666 
L 1259 4666 
L 1259 531 
L 3531 531 
L 3531 0 
L 628 0 
L 628 4666 
z
" transform="scale(0.015625)"/>
      <path id="DejaVuSans-53" d="M 3425 4513 
L 3425 3897 
Q 3066 4069 2747 4153 
Q 2428 4238 2131 4238 
Q 1616 4238 1336 4038 
Q 1056 3838 1056 3469 
Q 1056 3159 1242 3001 
Q 1428 2844 1947 2747 
L 2328 2669 
Q 3034 2534 3370 2195 
Q 3706 1856 3706 1288 
Q 3706 609 3251 259 
Q 2797 -91 1919 -91 
Q 1588 -91 1214 -16 
Q 841 59 441 206 
L 441 856 
Q 825 641 1194 531 
Q 1563 422 1919 422 
Q 2459 422 2753 634 
Q 3047 847 3047 1241 
Q 3047 1584 2836 1778 
Q 2625 1972 2144 2069 
L 1759 2144 
Q 1053 2284 737 2584 
Q 422 2884 422 3419 
Q 422 4038 858 4394 
Q 1294 4750 2059 4750 
Q 2388 4750 2728 4690 
Q 3069 4631 3425 4513 
z
" transform="scale(0.015625)"/>
      <path id="DejaVuSans-77" d="M 269 3500 
L 844 3500 
L 1563 769 
L 2278 3500 
L 2956 3500 
L 3675 769 
L 4391 3500 
L 4966 3500 
L 4050 0 
L 3372 0 
L 2619 2869 
L 1863 0 
L 1184 0 
L 269 3500 
z
" transform="scale(0.015625)"/>
      <path id="DejaVuSans-63" d="M 3122 3366 
L 3122 2828 
Q 2878 2963 2633 3030 
Q 2388 3097 2138 3097 
Q 1578 3097 1268 2742 
Q 959 2388 959 1747 
Q 959 1106 1268 751 
Q 1578 397 2138 397 
Q 2388 397 2633 464 
Q 2878 531 3122 666 
L 3122 134 
Q 2881 22 2623 -34 
Q 2366 -91 2075 -91 
Q 1284 -91 818 406 
Q 353 903 353 1747 
Q 353 2603 823 3093 
Q 1294 3584 2113 3584 
Q 2378 3584 2631 3529 
Q 2884 3475 3122 3366 
z
" transform="scale(0.015625)"/>
      <path id="DejaVuSans-67" d="M 2906 1791 
Q 2906 2416 2648 2759 
Q 2391 3103 1925 3103 
Q 1463 3103 1205 2759 
Q 947 2416 947 1791 
Q 947 1169 1205 825 
Q 1463 481 1925 481 
Q 2391 481 2648 825 
Q 2906 1169 2906 1791 
z
M 3481 434 
Q 3481 -459 3084 -895 
Q 2688 -1331 1869 -1331 
Q 1566 -1331 1297 -1286 
Q 1028 -1241 775 -1147 
L 775 -588 
Q 1028 -725 1275 -790 
Q 1522 -856 1778 -856 
Q 2344 -856 2625 -561 
Q 2906 -266 2906 331 
L 2906 616 
Q 2728 306 2450 153 
Q 2172 0 1784 0 
Q 1141 0 747 490 
Q 353 981 353 1791 
Q 353 2603 747 3093 
Q 1141 3584 1784 3584 
Q 2172 3584 2450 3431 
Q 2728 3278 2906 2969 
L 2906 3500 
L 3481 3500 
L 3481 434 
z
" transform="scale(0.015625)"/>
      <path id="DejaVuSans-2014" d="M 313 1978 
L 6088 1978 
L 6088 1528 
L 313 1528 
L 313 1978 
z
" transform="scale(0.015625)"/>
      <path id="DejaVuSans-44" d="M 1259 4147 
L 1259 519 
L 2022 519 
Q 2988 519 3436 956 
Q 3884 1394 3884 2338 
Q 3884 3275 3436 3711 
Q 2988 4147 2022 4147 
L 1259 4147 
z
M 628 4666 
L 1925 4666 
Q 3281 4666 3915 4102 
Q 4550 3538 4550 2338 
Q 4550 1131 3912 565 
Q 3275 0 1925 0 
L 628 0 
L 628 4666 
z
" transform="scale(0.015625)"/>
      <path id="DejaVuSans-2f" d="M 1625 4666 
L 2156 4666 
L 531 -594 
L 0 -594 
L 1625 4666 
z
" transform="scale(0.015625)"/>
      <path id="DejaVuSans-25" d="M 4653 2053 
Q 4381 2053 4226 1822 
Q 4072 1591 4072 1178 
Q 4072 772 4226 539 
Q 4381 306 4653 306 
Q 4919 306 5073 539 
Q 5228 772 5228 1178 
Q 5228 1588 5073 1820 
Q 4919 2053 4653 2053 
z
M 4653 2450 
Q 5147 2450 5437 2106 
Q 5728 1763 5728 1178 
Q 5728 594 5436 251 
Q 5144 -91 4653 -91 
Q 4153 -91 3862 251 
Q 3572 594 3572 1178 
Q 3572 1766 3864 2108 
Q 4156 2450 4653 2450 
z
M 1428 4353 
Q 1159 4353 1004 4120 
Q 850 3888 850 3481 
Q 850 3069 1003 2837 
Q 1156 2606 1428 2606 
Q 1700 2606 1854 2837 
Q 2009 3069 2009 3481 
Q 2009 3884 1853 4118 
Q 1697 4353 1428 4353 
z
M 4250 4750 
L 4750 4750 
L 1831 -91 
L 1331 -91 
L 4250 4750 
z
M 1428 4750 
Q 1922 4750 2215 4408 
Q 2509 4066 2509 3481 
Q 2509 2891 2217 2550 
Q 1925 2209 1428 2209 
Q 931 2209 642 2551 
Q 353 2894 353 3481 
Q 353 4063 643 4406 
Q 934 4750 1428 4750 
z
" transform="scale(0.015625)"/>
     </defs>
     <use xlink:href="#DejaVuSans-48"/>
     <use xlink:href="#DejaVuSans-61" x="75.195312"/>
     <use xlink:href="#DejaVuSans-6e" x="136.474609"/>
     <use xlink:href="#DejaVuSans-64" x="199.853516"/>
     <use xlink:href="#DejaVuSans-73" x="263.330078"/>
     <use xlink:href="#DejaVuSans-68" x="315.429688"/>
     <use xlink:href="#DejaVuSans-61" x="378.808594"/>
     <use xlink:href="#DejaVuSans-6b" x="440.087891"/>
     <use xlink:href="#DejaVuSans-65" x="494.373047"/>
     <use xlink:href="#DejaVuSans-20" x="555.896484"/>
     <use xlink:href="#DejaVuSans-64" x="587.683594"/>
     <use xlink:href="#DejaVuSans-75" x="651.160156"/>
     <use xlink:href="#DejaVuSans-72" x="714.539062"/>
     <use xlink:href="#DejaVuSans-61" x="755.652344"/>
     <use xlink:href="#DejaVuSans-74" x="816.931641"/>
     <use xlink:href="#DejaVuSans-69" x="856.140625"/>
     <use xlink:href="#DejaVuSans-6f" x="883.923828"/>
     <use xlink:href="#DejaVuSans-6e" x="945.105469"/>
     <use xlink:href="#DejaVuSans-20" x="1008.484375"/>
     <use xlink:href="#DejaVuSans-6f" x="1040.271484"/>
     <use xlink:href="#DejaVuSans-6e" x="1101.453125"/>
     <use xlink:href="#DejaVuSans-20" x="1164.832031"/>
     <use xlink:href="#DejaVuSans-54" x="1196.619141"/>
     <use xlink:href="#DejaVuSans-4c" x="1257.703125"/>
     <use xlink:href="#DejaVuSans-53" x="1313.416016"/>
     <use xlink:href="#DejaVuSans-20" x="1376.892578"/>
     <use xlink:href="#DejaVuSans-77" x="1408.679688"/>
     <use xlink:href="#DejaVuSans-69" x="1490.466797"/>
     <use xlink:href="#DejaVuSans-74" x="1518.25"/>
     <use xlink:href="#DejaVuSans-68" x="1557.458984"/>
     <use xlink:href="#DejaVuSans-20" x="1620.837891"/>
     <use xlink:href="#DejaVuSans-73" x="1652.625"/>
     <use xlink:href="#DejaVuSans-65" x="1704.724609"/>
     <use xlink:href="#DejaVuSans-63" x="1766.248047"/>
     <use xlink:href="#DejaVuSans-70" x="1821.228516"/>
     <use xlink:href="#DejaVuSans-35" x="1884.705078"/>
     <use xlink:href="#DejaVuSans-32" x="1948.328125"/>
     <use xlink:href="#DejaVuSans-31" x="2011.951172"/>
     <use xlink:href="#DejaVuSans-72" x="2075.574219"/>
     <use xlink:href="#DejaVuSans-31" x="2116.6875"/>
     <use xlink:href="#DejaVuSans-20" x="2180.310547"/>
     <use xlink:href="#DejaVuSans-73" x="2212.097656"/>
     <use xlink:href="#DejaVuSans-69" x="2264.197266"/>
     <use xlink:href="#DejaVuSans-67" x="2291.980469"/>
     <use xlink:href="#DejaVuSans-6e" x="2355.457031"/>
     <use xlink:href="#DejaVuSans-61" x="2418.835938"/>
     <use xlink:href="#DejaVuSans-74" x="2480.115234"/>
     <use xlink:href="#DejaVuSans-75" x="2519.324219"/>
     <use xlink:href="#DejaVuSans-72" x="2582.703125"/>
     <use xlink:href="#DejaVuSans-65" x="2621.566406"/>
     <use xlink:href="#DejaVuSans-20" x="2683.089844"/>
     <use xlink:href="#DejaVuSans-61" x="2714.876953"/>
     <use xlink:href="#DejaVuSans-6c" x="2776.15625"/>
     <use xlink:href="#DejaVuSans-67" x="2803.939453"/>
     <use xlink:href="#DejaVuSans-6f" x="2867.416016"/>
     <use xlink:href="#DejaVuSans-72" x="2928.597656"/>
     <use xlink:href="#DejaVuSans-69" x="2969.710938"/>
     <use xlink:href="#DejaVuSans-74" x="2997.494141"/>
     <use xlink:href="#DejaVuSans-68" x="3036.703125"/>
     <use xlink:href="#DejaVuSans-6d" x="3100.082031"/>
     <use xlink:href="#DejaVuSans-20" x="3197.494141"/>
     <use xlink:href="#DejaVuSans-2014" x="3229.28125"/>
     <use xlink:href="#DejaVuSans-20" x="3329.28125"/>
     <use xlink:href="#DejaVuSans-44" x="3361.068359"/>
     <use xlink:href="#DejaVuSans-65" x="3438.070312"/>
     <use xlink:href="#DejaVuSans-67" x="3499.59375"/>
     <use xlink:href="#DejaVuSans-72" x="3563.070312"/>
     <use xlink:href="#DejaVuSans-61" x="3604.183594"/>
     <use xlink:href="#DejaVuSans-64" x="3665.462891"/>
     <use xlink:href="#DejaVuSans-65" x="3728.939453"/>
     <use xlink:href="#DejaVuSans-64" x="3790.462891"/>
     <use xlink:href="#DejaVuSans-20" x="3853.939453"/>
     <use xlink:href="#DejaVuSans-28" x="3885.726562"/>
     <use xlink:href="#DejaVuSans-32" x="3924.740234"/>
     <use xlink:href="#DejaVuSans-30" x="3988.363281"/>
     <use xlink:href="#DejaVuSans-30" x="4051.986328"/>
     <use xlink:href="#DejaVuSans-6d" x="4115.609375"/>
     <use xlink:href="#DejaVuSans-73" x="4213.021484"/>
     <use xlink:href="#DejaVuSans-2f" x="4265.121094"/>
     <use xlink:href="#DejaVuSans-31" x="4298.8125"/>
     <use xlink:href="#DejaVuSans-30" x="4362.435547"/>
     <use xlink:href="#DejaVuSans-25" x="4426.058594"/>
     <use xlink:href="#DejaVuSans-29" x="4521.078125"/>
    </g>
   </g>
  </g>
 </g>
 <defs>
  <clipPath id="pbb4206bc57">
   <rect x="58.32" y="27.6" width="792.72" height="367.54"/>
  </clipPath>
 </defs>
</svg>
