<?xml version="1.0" encoding="utf-8" standalone="no"?>
<!DOCTYPE svg PUBLIC "-//W3C//DTD SVG 1.1//EN"
  "http://www.w3.org/Graphics/SVG/1.1/DTD/svg11.dtd">
<svg xmlns:xlink="http://www.w3.org/1999/xlink" width="864pt" height="432pt" viewBox="0 0 864 432" xmlns="http://www.w3.org/2000/svg" version="1.1">
 <metadata>
  <rdf:RDF xmlns:dc="http://purl.org/dc/elements/1.1/" xmlns:cc="http://creativecommons.org/ns#" xmlns:rdf="http://www.w3.org/1999/02/22-rdf-syntax-ns#">
   <cc:Work>
    <dc:type rdf:resource="http://purl.org/dc/dcmitype/StillImage"/>
    <dc:date>2026-03-21T13:58:46.761297</dc:date>
    <dc:format>image/svg+xml</dc:format>
    <dc:creator>
     <cc:Agent>
      <dc:title>Matplotlib v3.6.3, https://matplotlib.org/</dc:title>
     </cc:Agent>
    </dc:creator>
   </cc:Work>
  </rdf:RDF>
 </metadata>
 <defs>
  <style type="text/css">*{stroke-linejoin: round; stroke-linecap: butt}</style>
 </defs>
 <g id="figure_1">
  <g id="patch_1">
   <path d="M 0 432 
L 864 432 
L 864 0 
L 0 0 
z
" style="fill: #ffffff"/>
  </g>
  <g id="axes_1">
   <g id="patch_2">
    <path d="M 51.3 395.14 
L 851.04 395.14 
L 851.04 27.6 
L 51.3 27.6 
z
" style="fill: #ffffff"/>
   </g>
   <g id="matplotlib.axis_1">
    <g id="xtick_1">
     <g id="text_1">
      <!-- P-256 -->
      <g style="fill: #262626" transform="translate(111.324 415.277812) scale(0.14 -0.14)">
       <defs>
        <path id="DejaVuSans-50" d="M 1259 4147 
L 1259 2394 
L 2053 2394 
Q 2494 2394 2734 2622 
Q 2975 2850 2975 3272 
Q 2975 3691 2734 3919 
Q 2494 4147 2053 4147 
L 1259 4147 
z
M 628 4666 
L 2053 4666 
Q 2838 4666 3239 4311 
Q 3641 3956 3641 3272 
Q 3641 2581 3239 2228 
Q 2838 1875 2053 1875 
L 1259 1875 
L 1259 0 
L 628 0 
L 628 4666 
z
" transform="scale(0.015625)"/>
        <path id="DejaVuSans-2d" d="M 313 2009 
L 1997 2009 
L 1997 1497 
L 313 1497 
L 313 2009 
z
" transform="scale(0.015625)"/>
        <path id="DejaVuSans-32" d="M 1228 531 
L 3431 531 
L 3431 0 
L 469 0 
L 469 531 
Q 828 903 1448 1529 
Q 2069 2156 2228 2338 
Q 2531 2678 2651 2914 
Q 2772 3150 2772 3378 
Q 2772 3750 2511 3984 
Q 2250 4219 1831 4219 
Q 1534 4219 1204 4116 
Q 875 4013 500 3803 
L 500 4441 
Q 881 4594 1212 4672 
Q 1544 4750 1819 4750 
Q 2544 4750 2975 4387 
Q 3406 4025 3406 3419 
Q 3406 3131 3298 2873 
Q 3191 2616 2906 2266 
Q 2828 2175 2409 1742 
Q 1991 1309 1228 531 
z
" transform="scale(0.015625)"/>
        <path id="DejaVuSans-35" d="M 691 4666 
L 3169 4666 
L 3169 4134 
L 1269 4134 
L 1269 2991 
Q 1406 3038 1543 3061 
Q 1681 3084 1819 3084 
Q 2600 3084 3056 2656 
Q 3513 2228 3513 1497 
Q 3513 744 3044 326 
Q 2575 -91 1722 -91 
Q 1428 -91 1123 -41 
Q 819 9 494 109 
L 494 744 
Q 775 591 1075 516 
Q 1375 441 1709 441 
Q 2250 441 2565 725 
Q 2881 1009 2881 1497 
Q 2881 1984 2565 2268 
Q 2250 2553 1709 2553 
Q 1456 2553 1204 2497 
Q 953 2441 691 2322 
L 691 4666 
z
" transform="scale(0.015625)"/>
        <path id="DejaVuSans-36" d="M 2113 2584 
Q 1688 2584 1439 2293 
Q 1191 2003 1191 1497 
Q 1191 994 1439 701 
Q 1688 409 2113 409 
Q 2538 409 2786 701 
Q 3034 994 3034 1497 
Q 3034 2003 2786 2293 
Q 2538 2584 2113 2584 
z
M 3366 4563 
L 3366 3988 
Q 3128 4100 2886 4159 
Q 2644 4219 2406 4219 
Q 1781 4219 1451 3797 
Q 1122 3375 1075 2522 
Q 1259 2794 1537 2939 
Q 1816 3084 2150 3084 
Q 2853 3084 3261 2657 
Q 3669 2231 3669 1497 
Q 3669 778 3244 343 
Q 2819 -91 2113 -91 
Q 1303 -91 875 529 
Q 447 1150 447 2328 
Q 447 3434 972 4092 
Q 1497 4750 2381 4750 
Q 2619 4750 2861 4703 
Q 3103 4656 3366 4563 
z
" transform="scale(0.015625)"/>
       </defs>
       <use xlink:href="#DejaVuSans-50"/>
       <use xlink:href="#DejaVuSans-2d" x="58.052734"/>
       <use xlink:href="#DejaVuSans-32" x="94.136719"/>
       <use xlink:href="#DejaVuSans-35" x="157.759766"/>
       <use xlink:href="#DejaVuSans-36" x="221.382812"/>
      </g>
     </g>
    </g>
    <g id="xtick_2">
     <g id="text_2">
      <!-- x25519 -->
      <g style="fill: #262626" transform="translate(264.810125 415.277812) scale(0.14 -0.14)">
       <defs>
        <path id="DejaVuSans-78" d="M 3513 3500 
L 2247 1797 
L 3578 0 
L 2900 0 
L 1881 1375 
L 863 0 
L 184 0 
L 1544 1831 
L 300 3500 
L 978 3500 
L 1906 2253 
L 2834 3500 
L 3513 3500 
z
" transform="scale(0.015625)"/>
        <path id="DejaVuSans-31" d="M 794 531 
L 1825 531 
L 1825 4091 
L 703 3866 
L 703 4441 
L 1819 4666 
L 2450 4666 
L 2450 531 
L 3481 531 
L 3481 0 
L 794 0 
L 794 531 
z
" transform="scale(0.015625)"/>
        <path id="DejaVuSans-39" d="M 703 97 
L 703 672 
Q 941 559 1184 500 
Q 1428 441 1663 441 
Q 2288 441 2617 861 
Q 2947 1281 2994 2138 
Q 2813 1869 2534 1725 
Q 2256 1581 1919 1581 
Q 1219 1581 811 2004 
Q 403 2428 403 3163 
Q 403 3881 828 4315 
Q 1253 4750 1959 4750 
Q 2769 4750 3195 4129 
Q 3622 3509 3622 2328 
Q 3622 1225 3098 567 
Q 2575 -91 1691 -91 
Q 1453 -91 1209 -44 
Q 966 3 703 97 
z
M 1959 2075 
Q 2384 2075 2632 2365 
Q 2881 2656 2881 3163 
Q 2881 3666 2632 3958 
Q 2384 4250 1959 4250 
Q 1534 4250 1286 3958 
Q 1038 3666 1038 3163 
Q 1038 2656 1286 2365 
Q 1534 2075 1959 2075 
z
" transform="scale(0.015625)"/>
       </defs>
       <use xlink:href="#DejaVuSans-78"/>
       <use xlink:href="#DejaVuSans-32" x="59.179688"/>
       <use xlink:href="#DejaVuSans-35" x="122.802734"/>
       <use xlink:href="#DejaVuSans-35" x="186.425781"/>
       <use xlink:href="#DejaVuSans-31" x="250.048828"/>
       <use xlink:href="#DejaVuSans-39" x="313.671875"/>
      </g>
     </g>
    </g>
    <g id="xtick_3">
     <g id="text_3">
      <!-- p256_mlkem512 -->
      <g style="fill: #262626" transform="translate(392.815156 415.277812) scale(0.14 -0.14)">
       <defs>
        <path id="DejaVuSans-70" d="M 1159 525 
L 1159 -1331 
L 581 -1331 
L 581 3500 
L 1159 3500 
L 1159 2969 
Q 1341 3281 1617 3432 
Q 1894 3584 2278 3584 
Q 2916 3584 3314 3078 
Q 3713 2572 3713 1747 
Q 3713 922 3314 415 
Q 2916 -91 2278 -91 
Q 1894 -91 1617 61 
Q 1341 213 1159 525 
z
M 3116 1747 
Q 3116 2381 2855 2742 
Q 2594 3103 2138 3103 
Q 1681 3103 1420 2742 
Q 1159 2381 1159 1747 
Q 1159 1113 1420 752 
Q 1681 391 2138 391 
Q 2594 391 2855 752 
Q 3116 1113 3116 1747 
z
" transform="scale(0.015625)"/>
        <path id="DejaVuSans-5f" d="M 3263 -1063 
L 3263 -1509 
L -63 -1509 
L -63 -1063 
L 3263 -1063 
z
" transform="scale(0.015625)"/>
        <path id="DejaVuSans-6d" d="M 3328 2828 
Q 3544 3216 3844 3400 
Q 4144 3584 4550 3584 
Q 5097 3584 5394 3201 
Q 5691 2819 5691 2113 
L 5691 0 
L 5113 0 
L 5113 2094 
Q 5113 2597 4934 2840 
Q 4756 3084 4391 3084 
Q 3944 3084 3684 2787 
Q 3425 2491 3425 1978 
L 3425 0 
L 2847 0 
L 2847 2094 
Q 2847 2600 2669 2842 
Q 2491 3084 2119 3084 
Q 1678 3084 1418 2786 
Q 1159 2488 1159 1978 
L 1159 0 
L 581 0 
L 581 3500 
L 1159 3500 
L 1159 2956 
Q 1356 3278 1631 3431 
Q 1906 3584 2284 3584 
Q 2666 3584 2933 3390 
Q 3200 3197 3328 2828 
z
" transform="scale(0.015625)"/>
        <path id="DejaVuSans-6c" d="M 603 4863 
L 1178 4863 
L 1178 0 
L 603 0 
L 603 4863 
z
" transform="scale(0.015625)"/>
        <path id="DejaVuSans-6b" d="M 581 4863 
L 1159 4863 
L 1159 1991 
L 2875 3500 
L 3609 3500 
L 1753 1863 
L 3688 0 
L 2938 0 
L 1159 1709 
L 1159 0 
L 581 0 
L 581 4863 
z
" transform="scale(0.015625)"/>
        <path id="DejaVuSans-65" d="M 3597 1894 
L 3597 1613 
L 953 1613 
Q 991 1019 1311 708 
Q 1631 397 2203 397 
Q 2534 397 2845 478 
Q 3156 559 3463 722 
L 3463 178 
Q 3153 47 2828 -22 
Q 2503 -91 2169 -91 
Q 1331 -91 842 396 
Q 353 884 353 1716 
Q 353 2575 817 3079 
Q 1281 3584 2069 3584 
Q 2775 3584 3186 3129 
Q 3597 2675 3597 1894 
z
M 3022 2063 
Q 3016 2534 2758 2815 
Q 2500 3097 2075 3097 
Q 1594 3097 1305 2825 
Q 1016 2553 972 2059 
L 3022 2063 
z
" transform="scale(0.015625)"/>
       </defs>
       <use xlink:href="#DejaVuSans-70"/>
       <use xlink:href="#DejaVuSans-32" x="63.476562"/>
       <use xlink:href="#DejaVuSans-35" x="127.099609"/>
       <use xlink:href="#DejaVuSans-36" x="190.722656"/>
       <use xlink:href="#DejaVuSans-5f" x="254.345703"/>
       <use xlink:href="#DejaVuSans-6d" x="304.345703"/>
       <use xlink:href="#DejaVuSans-6c" x="401.757812"/>
       <use xlink:href="#DejaVuSans-6b" x="429.541016"/>
       <use xlink:href="#DejaVuSans-65" x="483.826172"/>
       <use xlink:href="#DejaVuSans-6d" x="545.349609"/>
       <use xlink:href="#DejaVuSans-35" x="642.761719"/>
       <use xlink:href="#DejaVuSans-31" x="706.384766"/>
       <use xlink:href="#DejaVuSans-32" x="770.007812"/>
      </g>
     </g>
    </g>
    <g id="xtick_4">
     <g id="text_4">
      <!-- x25519_mlkem512 -->
      <g style="fill: #262626" transform="translate(544.156437 415.277812) scale(0.14 -0.14)">
       <use xlink:href="#DejaVuSans-78"/>
       <use xlink:href="#DejaVuSans-32" x="59.179688"/>
       <use xlink:href="#DejaVuSans-35" x="122.802734"/>
       <use xlink:href="#DejaVuSans-35" x="186.425781"/>
       <use xlink:href="#DejaVuSans-31" x="250.048828"/>
       <use xlink:href="#DejaVuSans-39" x="313.671875"/>
       <use xlink:href="#DejaVuSans-5f" x="377.294922"/>
       <use xlink:href="#DejaVuSans-6d" x="427.294922"/>
       <use xlink:href="#DejaVuSans-6c" x="524.707031"/>
       <use xlink:href="#DejaVuSans-6b" x="552.490234"/>
       <use xlink:href="#DejaVuSans-65" x="606.775391"/>
       <use xlink:href="#DejaVuSans-6d" x="668.298828"/>
       <use xlink:href="#DejaVuSans-35" x="765.710938"/>
       <use xlink:href="#DejaVuSans-31" x="829.333984"/>
       <use xlink:href="#DejaVuSans-32" x="892.957031"/>
      </g>
     </g>
    </g>
    <g id="xtick_5">
     <g id="text_5">
      <!-- mlkem512 -->
      <g style="fill: #262626" transform="translate(734.016312 415.277812) scale(0.14 -0.14)">
       <use xlink:href="#DejaVuSans-6d"/>
       <use xlink:href="#DejaVuSans-6c" x="97.412109"/>
       <use xlink:href="#DejaVuSans-6b" x="125.195312"/>
       <use xlink:href="#DejaVuSans-65" x="179.480469"/>
       <use xlink:href="#DejaVuSans-6d" x="241.003906"/>
       <use xlink:href="#DejaVuSans-35" x="338.416016"/>
       <use xlink:href="#DejaVuSans-31" x="402.039062"/>
       <use xlink:href="#DejaVuSans-32" x="465.662109"/>
      </g>
     </g>
    </g>
   </g>
   <g id="matplotlib.axis_2">
    <g id="ytick_1">
     <g id="line2d_1">
      <path d="M 51.3 383.462559 
L 851.04 383.462559 
" clip-path="url(#pa3497eb1a0)" style="fill: none; stroke: #cccccc; stroke-linecap: round"/>
     </g>
     <g id="text_6">
      <!-- 0 -->
      <g style="fill: #262626" transform="translate(34.80125 387.641699) scale(0.11 -0.11)">
       <defs>
        <path id="DejaVuSans-30" d="M 2034 4250 
Q 1547 4250 1301 3770 
Q 1056 3291 1056 2328 
Q 1056 1369 1301 889 
Q 1547 409 2034 409 
Q 2525 409 2770 889 
Q 3016 1369 3016 2328 
Q 3016 3291 2770 3770 
Q 2525 4250 2034 4250 
z
M 2034 4750 
Q 2819 4750 3233 4129 
Q 3647 3509 3647 2328 
Q 3647 1150 3233 529 
Q 2819 -91 2034 -91 
Q 1250 -91 836 529 
Q 422 1150 422 2328 
Q 422 3509 836 4129 
Q 1250 4750 2034 4750 
z
" transform="scale(0.015625)"/>
       </defs>
       <use xlink:href="#DejaVuSans-30"/>
      </g>
     </g>
    </g>
    <g id="ytick_2">
     <g id="line2d_2">
      <path d="M 51.3 330.842911 
L 851.04 330.842911 
" clip-path="url(#pa3497eb1a0)" style="fill: none; stroke: #cccccc; stroke-linecap: round"/>
     </g>
     <g id="text_7">
      <!-- 10 -->
      <g style="fill: #262626" transform="translate(27.8025 335.022051) scale(0.11 -0.11)">
       <use xlink:href="#DejaVuSans-31"/>
       <use xlink:href="#DejaVuSans-30" x="63.623047"/>
      </g>
     </g>
    </g>
    <g id="ytick_3">
     <g id="line2d_3">
      <path d="M 51.3 278.223263 
L 851.04 278.223263 
" clip-path="url(#pa3497eb1a0)" style="fill: none; stroke: #cccccc; stroke-linecap: round"/>
     </g>
     <g id="text_8">
      <!-- 20 -->
      <g style="fill: #262626" transform="translate(27.8025 282.402403) scale(0.11 -0.11)">
       <use xlink:href="#DejaVuSans-32"/>
       <use xlink:href="#DejaVuSans-30" x="63.623047"/>
      </g>
     </g>
    </g>
    <g id="ytick_4">
     <g id="line2d_4">
      <path d="M 51.3 225.603615 
L 851.04 225.603615 
" clip-path="url(#pa3497eb1a0)" style="fill: none; stroke: #cccccc; stroke-linecap: round"/>
     </g>
     <g id="text_9">
      <!-- 30 -->
      <g style="fill: #262626" transform="translate(27.8025 229.782755) scale(0.11 -0.11)">
       <defs>
        <path id="DejaVuSans-33" d="M 2597 2516 
Q 3050 2419 3304 2112 
Q 3559 1806 3559 1356 
Q 3559 666 3084 287 
Q 2609 -91 1734 -91 
Q 1441 -91 1130 -33 
Q 819 25 488 141 
L 488 750 
Q 750 597 1062 519 
Q 1375 441 1716 441 
Q 2309 441 2620 675 
Q 2931 909 2931 1356 
Q 2931 1769 2642 2001 
Q 2353 2234 1838 2234 
L 1294 2234 
L 1294 2753 
L 1863 2753 
Q 2328 2753 2575 2939 
Q 2822 3125 2822 3475 
Q 2822 3834 2567 4026 
Q 2313 4219 1838 4219 
Q 1578 4219 1281 4162 
Q 984 4106 628 3988 
L 628 4550 
Q 988 4650 1302 4700 
Q 1616 4750 1894 4750 
Q 2613 4750 3031 4423 
Q 3450 4097 3450 3541 
Q 3450 3153 3228 2886 
Q 3006 2619 2597 2516 
z
" transform="scale(0.015625)"/>
       </defs>
       <use xlink:href="#DejaVuSans-33"/>
       <use xlink:href="#DejaVuSans-30" x="63.623047"/>
      </g>
     </g>
    </g>
    <g id="ytick_5">
     <g id="line2d_5">
      <path d="M 51.3 172.983967 
L 851.04 172.983967 
" clip-path="url(#pa3497eb1a0)" style="fill: none; stroke: #cccccc; stroke-linecap: round"/>
     </g>
     <g id="text_10">
      <!-- 40 -->
      <g style="fill: #262626" transform="translate(27.8025 177.163107) scale(0.11 -0.11)">
       <defs>
        <path id="DejaVuSans-34" d="M 2419 4116 
L 825 1625 
L 2419 1625 
L 2419 4116 
z
M 2253 4666 
L 3047 4666 
L 3047 1625 
L 3713 1625 
L 3713 1100 
L 3047 1100 
L 3047 0 
L 2419 0 
L 2419 1100 
L 313 1100 
L 313 1709 
L 2253 4666 
z
" transform="scale(0.015625)"/>
       </defs>
       <use xlink:href="#DejaVuSans-34"/>
       <use xlink:href="#DejaVuSans-30" x="63.623047"/>
      </g>
     </g>
    </g>
    <g id="ytick_6">
     <g id="line2d_6">
      <path d="M 51.3 120.364319 
L 851.04 120.364319 
" clip-path="url(#pa3497eb1a0)" style="fill: none; stroke: #cccccc; stroke-linecap: round"/>
     </g>
     <g id="text_11">
      <!-- 50 -->
      <g style="fill: #262626" transform="translate(27.8025 124.543459) scale(0.11 -0.11)">
       <use xlink:href="#DejaVuSans-35"/>
       <use xlink:href="#DejaVuSans-30" x="63.623047"/>
      </g>
     </g>
    </g>
    <g id="ytick_7">
     <g id="line2d_7">
      <path d="M 51.3 67.744671 
L 851.04 67.744671 
" clip-path="url(#pa3497eb1a0)" style="fill: none; stroke: #cccccc; stroke-linecap: round"/>
     </g>
     <g id="text_12">
      <!-- 60 -->
      <g style="fill: #262626" transform="translate(27.8025 71.923811) scale(0.11 -0.11)">
       <use xlink:href="#DejaVuSans-36"/>
       <use xlink:href="#DejaVuSans-30" x="63.623047"/>
      </g>
     </g>
    </g>
    <g id="text_13">
     <!-- Handshake duration (ms) -->
     <g style="fill: #262626" transform="translate(21.306875 287.437813) rotate(-90) scale(0.12 -0.12)">
      <defs>
       <path id="DejaVuSans-48" d="M 628 4666 
L 1259 4666 
L 1259 2753 
L 3553 2753 
L 3553 4666 
L 4184 4666 
L 4184 0 
L 3553 0 
L 3553 2222 
L 1259 2222 
L 1259 0 
L 628 0 
L 628 4666 
z
" transform="scale(0.015625)"/>
       <path id="DejaVuSans-61" d="M 2194 1759 
Q 1497 1759 1228 1600 
Q 959 1441 959 1056 
Q 959 750 1161 570 
Q 1363 391 1709 391 
Q 2188 391 2477 730 
Q 2766 1069 2766 1631 
L 2766 1759 
L 2194 1759 
z
M 3341 1997 
L 3341 0 
L 2766 0 
L 2766 531 
Q 2569 213 2275 61 
Q 1981 -91 1556 -91 
Q 1019 -91 701 211 
Q 384 513 384 1019 
Q 384 1609 779 1909 
Q 1175 2209 1959 2209 
L 2766 2209 
L 2766 2266 
Q 2766 2663 2505 2880 
Q 2244 3097 1772 3097 
Q 1472 3097 1187 3025 
Q 903 2953 641 2809 
L 641 3341 
Q 956 3463 1253 3523 
Q 1550 3584 1831 3584 
Q 2591 3584 2966 3190 
Q 3341 2797 3341 1997 
z
" transform="scale(0.015625)"/>
       <path id="DejaVuSans-6e" d="M 3513 2113 
L 3513 0 
L 2938 0 
L 2938 2094 
Q 2938 2591 2744 2837 
Q 2550 3084 2163 3084 
Q 1697 3084 1428 2787 
Q 1159 2491 1159 1978 
L 1159 0 
L 581 0 
L 581 3500 
L 1159 3500 
L 1159 2956 
Q 1366 3272 1645 3428 
Q 1925 3584 2291 3584 
Q 2894 3584 3203 3211 
Q 3513 2838 3513 2113 
z
" transform="scale(0.015625)"/>
       <path id="DejaVuSans-64" d="M 2906 2969 
L 2906 4863 
L 3481 4863 
L 3481 0 
L 2906 0 
L 2906 525 
Q 2725 213 2448 61 
Q 2172 -91 1784 -91 
Q 1150 -91 751 415 
Q 353 922 353 1747 
Q 353 2572 751 3078 
Q 1150 3584 1784 3584 
Q 2172 3584 2448 3432 
Q 2725 3281 2906 2969 
z
M 947 1747 
Q 947 1113 1208 752 
Q 1469 391 1925 391 
Q 2381 391 2643 752 
Q 2906 1113 2906 1747 
Q 2906 2381 2643 2742 
Q 2381 3103 1925 3103 
Q 1469 3103 1208 2742 
Q 947 2381 947 1747 
z
" transform="scale(0.015625)"/>
       <path id="DejaVuSans-73" d="M 2834 3397 
L 2834 2853 
Q 2591 2978 2328 3040 
Q 2066 3103 1784 3103 
Q 1356 3103 1142 2972 
Q 928 2841 928 2578 
Q 928 2378 1081 2264 
Q 1234 2150 1697 2047 
L 1894 2003 
Q 2506 1872 2764 1633 
Q 3022 1394 3022 966 
Q 3022 478 2636 193 
Q 2250 -91 1575 -91 
Q 1294 -91 989 -36 
Q 684 19 347 128 
L 347 722 
Q 666 556 975 473 
Q 1284 391 1588 391 
Q 1994 391 2212 530 
Q 2431 669 2431 922 
Q 2431 1156 2273 1281 
Q 2116 1406 1581 1522 
L 1381 1569 
Q 847 1681 609 1914 
Q 372 2147 372 2553 
Q 372 3047 722 3315 
Q 1072 3584 1716 3584 
Q 2034 3584 2315 3537 
Q 2597 3491 2834 3397 
z
" transform="scale(0.015625)"/>
       <path id="DejaVuSans-68" d="M 3513 2113 
L 3513 0 
L 2938 0 
L 2938 2094 
Q 2938 2591 2744 2837 
Q 2550 3084 2163 3084 
Q 1697 3084 1428 2787 
Q 1159 2491 1159 1978 
L 1159 0 
L 581 0 
L 581 4863 
L 1159 4863 
L 1159 2956 
Q 1366 3272 1645 3428 
Q 1925 3584 2291 3584 
Q 2894 3584 3203 3211 
Q 3513 2838 3513 2113 
z
" transform="scale(0.015625)"/>
       <path id="DejaVuSans-20" transform="scale(0.015625)"/>
       <path id="DejaVuSans-75" d="M 544 1381 
L 544 3500 
L 1119 3500 
L 1119 1403 
Q 1119 906 1312 657 
Q 1506 409 1894 409 
Q 2359 409 2629 706 
Q 2900 1003 2900 1516 
L 2900 3500 
L 3475 3500 
L 3475 0 
L 2900 0 
L 2900 538 
Q 2691 219 2414 64 
Q 2138 -91 1772 -91 
Q 1169 -91 856 284 
Q 544 659 544 1381 
z
M 1991 3584 
L 1991 3584 
z
" transform="scale(0.015625)"/>
       <path id="DejaVuSans-72" d="M 2631 2963 
Q 2534 3019 2420 3045 
Q 2306 3072 2169 3072 
Q 1681 3072 1420 2755 
Q 1159 2438 1159 1844 
L 1159 0 
L 581 0 
L 581 3500 
L 1159 3500 
L 1159 2956 
Q 1341 3275 1631 3429 
Q 1922 3584 2338 3584 
Q 2397 3584 2469 3576 
Q 2541 3569 2628 3553 
L 2631 2963 
z
" transform="scale(0.015625)"/>
       <path id="DejaVuSans-74" d="M 1172 4494 
L 1172 3500 
L 2356 3500 
L 2356 3053 
L 1172 3053 
L 1172 1153 
Q 1172 725 1289 603 
Q 1406 481 1766 481 
L 2356 481 
L 2356 0 
L 1766 0 
Q 1100 0 847 248 
Q 594 497 594 1153 
L 594 3053 
L 172 3053 
L 172 3500 
L 594 3500 
L 594 4494 
L 1172 4494 
z
" transform="scale(0.015625)"/>
       <path id="DejaVuSans-69" d="M 603 3500 
L 1178 3500 
L 1178 0 
L 603 0 
L 603 3500 
z
M 603 4863 
L 1178 4863 
L 1178 4134 
L 603 4134 
L 603 4863 
z
" transform="scale(0.015625)"/>
       <path id="DejaVuSans-6f" d="M 1959 3097 
Q 1497 3097 1228 2736 
Q 959 2375 959 1747 
Q 959 1119 1226 758 
Q 1494 397 1959 397 
Q 2419 397 2687 759 
Q 2956 1122 2956 1747 
Q 2956 2369 2687 2733 
Q 2419 3097 1959 3097 
z
M 1959 3584 
Q 2709 3584 3137 3096 
Q 3566 2609 3566 1747 
Q 3566 888 3137 398 
Q 2709 -91 1959 -91 
Q 1206 -91 779 398 
Q 353 888 353 1747 
Q 353 2609 779 3096 
Q 1206 3584 1959 3584 
z
" transform="scale(0.015625)"/>
       <path id="DejaVuSans-28" d="M 1984 4856 
Q 1566 4138 1362 3434 
Q 1159 2731 1159 2009 
Q 1159 1288 1364 580 
Q 1569 -128 1984 -844 
L 1484 -844 
Q 1016 -109 783 600 
Q 550 1309 550 2009 
Q 550 2706 781 3412 
Q 1013 4119 1484 4856 
L 1984 4856 
z
" transform="scale(0.015625)"/>
       <path id="DejaVuSans-29" d="M 513 4856 
L 1013 4856 
Q 1481 4119 1714 3412 
Q 1947 2706 1947 2009 
Q 1947 1309 1714 600 
Q 1481 -109 1013 -844 
L 513 -844 
Q 928 -128 1133 580 
Q 1338 1288 1338 2009 
Q 1338 2731 1133 3434 
Q 928 4138 513 4856 
z
" transform="scale(0.015625)"/>
      </defs>
      <use xlink:href="#DejaVuSans-48"/>
      <use xlink:href="#DejaVuSans-61" x="75.195312"/>
      <use xlink:href="#DejaVuSans-6e" x="136.474609"/>
      <use xlink:href="#DejaVuSans-64" x="199.853516"/>
      <use xlink:href="#DejaVuSans-73" x="263.330078"/>
      <use xlink:href="#DejaVuSans-68" x="315.429688"/>
      <use xlink:href="#DejaVuSans-61" x="378.808594"/>
      <use xlink:href="#DejaVuSans-6b" x="440.087891"/>
      <use xlink:href="#DejaVuSans-65" x="494.373047"/>
      <use xlink:href="#DejaVuSans-20" x="555.896484"/>
      <use xlink:href="#DejaVuSans-64" x="587.683594"/>
      <use xlink:href="#DejaVuSans-75" x="651.160156"/>
      <use xlink:href="#DejaVuSans-72" x="714.539062"/>
      <use xlink:href="#DejaVuSans-61" x="755.652344"/>
      <use xlink:href="#DejaVuSans-74" x="816.931641"/>
      <use xlink:href="#DejaVuSans-69" x="856.140625"/>
      <use xlink:href="#DejaVuSans-6f" x="883.923828"/>
      <use xlink:href="#DejaVuSans-6e" x="945.105469"/>
      <use xlink:href="#DejaVuSans-20" x="1008.484375"/>
      <use xlink:href="#DejaVuSans-28" x="1040.271484"/>
      <use xlink:href="#DejaVuSans-6d" x="1079.285156"/>
      <use xlink:href="#DejaVuSans-73" x="1176.697266"/>
      <use xlink:href="#DejaVuSans-29" x="1228.796875"/>
     </g>
    </g>
   </g>
   <g id="PolyCollection_1">
    <defs>
     <path id="m779ab8d3c1" d="M 135.170393 -53.566364 
L 127.377607 -53.566364 
L 113.63965 -56.941387 
L 86.807001 -60.31641 
L 67.2948 -63.691433 
L 76.714244 -67.066455 
L 102.177531 -70.441478 
L 120.887727 -73.816501 
L 128.551102 -77.191524 
L 130.6794 -80.566547 
L 131.160405 -83.94157 
L 131.257426 -87.316593 
L 131.272446 -90.691616 
L 131.273915 -94.066639 
L 131.273997 -97.441662 
L 131.274 -100.816685 
L 131.274 -104.191708 
L 131.274 -107.566731 
L 131.274 -110.941754 
L 131.274 -114.316777 
L 131.274 -117.6918 
L 131.274 -121.066823 
L 131.274 -124.441846 
L 131.274 -127.816869 
L 131.274 -131.191892 
L 131.274 -134.566915 
L 131.274 -137.941938 
L 131.274 -141.316961 
L 131.274 -144.691983 
L 131.274 -148.067006 
L 131.274 -151.442029 
L 131.274 -154.817052 
L 131.274 -158.192075 
L 131.274 -161.567098 
L 131.274 -164.942121 
L 131.274 -168.317144 
L 131.274 -171.692167 
L 131.274 -175.06719 
L 131.274 -178.442213 
L 131.274 -181.817236 
L 131.274 -185.192259 
L 131.274 -188.567282 
L 131.274 -191.942305 
L 131.274 -195.317328 
L 131.274 -198.692351 
L 131.274 -202.067374 
L 131.274 -205.442397 
L 131.274 -208.81742 
L 131.274 -212.192443 
L 131.274 -215.567466 
L 131.274 -218.942489 
L 131.274 -222.317511 
L 131.274 -225.692534 
L 131.274 -229.067557 
L 131.274 -232.44258 
L 131.274 -235.817603 
L 131.274 -239.192626 
L 131.274 -242.567649 
L 131.274 -245.942672 
L 131.274 -249.317695 
L 131.274 -252.692718 
L 131.274 -256.067741 
L 131.274 -259.442764 
L 131.274 -262.817787 
L 131.274 -266.19281 
L 131.274 -269.567833 
L 131.274 -272.942856 
L 131.274 -276.317879 
L 131.274 -279.692902 
L 131.274 -283.067925 
L 131.274 -286.442948 
L 131.274 -289.817971 
L 131.274 -293.192994 
L 131.274 -296.568017 
L 131.274 -299.943039 
L 131.274 -303.318062 
L 131.274 -306.693085 
L 131.274 -310.068108 
L 131.274 -313.443131 
L 131.274 -316.818154 
L 131.274 -320.193177 
L 131.274 -323.5682 
L 131.274 -326.943223 
L 131.274 -330.318246 
L 131.274 -333.693269 
L 131.274 -337.068292 
L 131.274 -340.443315 
L 131.274 -343.818338 
L 131.274 -347.193361 
L 131.274 -350.568384 
L 131.274 -353.943407 
L 131.274 -357.31843 
L 131.273987 -360.693453 
L 131.273715 -364.068476 
L 131.270614 -367.443499 
L 131.252447 -370.818522 
L 131.200468 -374.193545 
L 131.139544 -377.568567 
L 131.142235 -380.94359 
L 131.204795 -384.318613 
L 131.254519 -387.693636 
L 131.293481 -387.693636 
L 131.293481 -387.693636 
L 131.343205 -384.318613 
L 131.405765 -380.94359 
L 131.408456 -377.568567 
L 131.347532 -374.193545 
L 131.295553 -370.818522 
L 131.277386 -367.443499 
L 131.274285 -364.068476 
L 131.274013 -360.693453 
L 131.274 -357.31843 
L 131.274 -353.943407 
L 131.274 -350.568384 
L 131.274 -347.193361 
L 131.274 -343.818338 
L 131.274 -340.443315 
L 131.274 -337.068292 
L 131.274 -333.693269 
L 131.274 -330.318246 
L 131.274 -326.943223 
L 131.274 -323.5682 
L 131.274 -320.193177 
L 131.274 -316.818154 
L 131.274 -313.443131 
L 131.274 -310.068108 
L 131.274 -306.693085 
L 131.274 -303.318062 
L 131.274 -299.943039 
L 131.274 -296.568017 
L 131.274 -293.192994 
L 131.274 -289.817971 
L 131.274 -286.442948 
L 131.274 -283.067925 
L 131.274 -279.692902 
L 131.274 -276.317879 
L 131.274 -272.942856 
L 131.274 -269.567833 
L 131.274 -266.19281 
L 131.274 -262.817787 
L 131.274 -259.442764 
L 131.274 -256.067741 
L 131.274 -252.692718 
L 131.274 -249.317695 
L 131.274 -245.942672 
L 131.274 -242.567649 
L 131.274 -239.192626 
L 131.274 -235.817603 
L 131.274 -232.44258 
L 131.274 -229.067557 
L 131.274 -225.692534 
L 131.274 -222.317511 
L 131.274 -218.942489 
L 131.274 -215.567466 
L 131.274 -212.192443 
L 131.274 -208.81742 
L 131.274 -205.442397 
L 131.274 -202.067374 
L 131.274 -198.692351 
L 131.274 -195.317328 
L 131.274 -191.942305 
L 131.274 -188.567282 
L 131.274 -185.192259 
L 131.274 -181.817236 
L 131.274 -178.442213 
L 131.274 -175.06719 
L 131.274 -171.692167 
L 131.274 -168.317144 
L 131.274 -164.942121 
L 131.274 -161.567098 
L 131.274 -158.192075 
L 131.274 -154.817052 
L 131.274 -151.442029 
L 131.274 -148.067006 
L 131.274 -144.691983 
L 131.274 -141.316961 
L 131.274 -137.941938 
L 131.274 -134.566915 
L 131.274 -131.191892 
L 131.274 -127.816869 
L 131.274 -124.441846 
L 131.274 -121.066823 
L 131.274 -117.6918 
L 131.274 -114.316777 
L 131.274 -110.941754 
L 131.274 -107.566731 
L 131.274 -104.191708 
L 131.274 -100.816685 
L 131.274003 -97.441662 
L 131.274085 -94.066639 
L 131.275554 -90.691616 
L 131.290574 -87.316593 
L 131.387595 -83.94157 
L 131.8686 -80.566547 
L 133.996898 -77.191524 
L 141.660273 -73.816501 
L 160.370469 -70.441478 
L 185.833756 -67.066455 
L 195.2532 -63.691433 
L 175.740999 -60.31641 
L 148.90835 -56.941387 
L 135.170393 -53.566364 
z
" style="stroke: #595959; stroke-width: 1.25"/>
    </defs>
    <g clip-path="url(#pa3497eb1a0)">
     <use xlink:href="#m779ab8d3c1" x="0" y="432" style="fill: #72b6a1; stroke: #595959; stroke-width: 1.25"/>
    </g>
   </g>
   <g id="PolyCollection_2">
    <defs>
     <path id="me9cea74604" d="M 291.590438 -59.326595 
L 290.853562 -59.326595 
L 290.385232 -59.509923 
L 289.454059 -59.693252 
L 287.74527 -59.87658 
L 284.855629 -60.059909 
L 280.363534 -60.243237 
L 273.967367 -60.426566 
L 265.671994 -60.609895 
L 255.959095 -60.793223 
L 245.846313 -60.976552 
L 236.754582 -61.15988 
L 230.176323 -61.343209 
L 227.2428 -61.526537 
L 228.365132 -61.709866 
L 233.111514 -61.893194 
L 240.376833 -62.076523 
L 248.760094 -62.259852 
L 256.976309 -62.44318 
L 264.141124 -62.626509 
L 269.856071 -62.809837 
L 274.122977 -62.993166 
L 277.171787 -63.176494 
L 279.2863 -63.359823 
L 280.68181 -63.543151 
L 281.455747 -63.72648 
L 281.608444 -63.909809 
L 281.113722 -64.093137 
L 280.005469 -64.276466 
L 278.440613 -64.459794 
L 276.707241 -64.643123 
L 275.169827 -64.826451 
L 274.172601 -65.00978 
L 273.942363 -65.193108 
L 274.531717 -65.376437 
L 275.82297 -65.559766 
L 277.583969 -65.743094 
L 279.54657 -65.926423 
L 281.475793 -66.109751 
L 283.2102 -66.29308 
L 284.670901 -66.476408 
L 285.848083 -66.659737 
L 286.776897 -66.843066 
L 287.512098 -67.026394 
L 288.107313 -67.209723 
L 288.602381 -67.393051 
L 289.020079 -67.57638 
L 289.370765 -67.759708 
L 289.660445 -67.943037 
L 289.896821 -68.126365 
L 290.090099 -68.309694 
L 290.249591 -68.493023 
L 290.38021 -68.676351 
L 290.482481 -68.85968 
L 290.556351 -69.043008 
L 290.605638 -69.226337 
L 290.639388 -69.409665 
L 290.668913 -69.592994 
L 290.702738 -69.776322 
L 290.743229 -69.959651 
L 290.787227 -70.14298 
L 290.829878 -70.326308 
L 290.868587 -70.509637 
L 290.904261 -70.692965 
L 290.939319 -70.876294 
L 290.974408 -71.059622 
L 291.006452 -71.242951 
L 291.029485 -71.42628 
L 291.037689 -71.609608 
L 291.028662 -71.792937 
L 291.00498 -71.976265 
L 290.973255 -72.159594 
L 290.94138 -72.342922 
L 290.915683 -72.526251 
L 290.899583 -72.709579 
L 290.894199 -72.892908 
L 290.899923 -73.076237 
L 290.917366 -73.259565 
L 290.946856 -73.442894 
L 290.987072 -73.626222 
L 291.034188 -73.809551 
L 291.082463 -73.992879 
L 291.125981 -74.176208 
L 291.160374 -74.359536 
L 291.183537 -74.542865 
L 291.195117 -74.726194 
L 291.195414 -74.909522 
L 291.184568 -75.092851 
L 291.162631 -75.276179 
L 291.130568 -75.459508 
L 291.091561 -75.642836 
L 291.051657 -75.826165 
L 291.018944 -76.009494 
L 291.001203 -76.192822 
L 291.003028 -76.376151 
L 291.023945 -76.559479 
L 291.058626 -76.742808 
L 291.099092 -76.926136 
L 291.137671 -77.109465 
L 291.169232 -77.292793 
L 291.191887 -77.476122 
L 291.252113 -77.476122 
L 291.252113 -77.476122 
L 291.274768 -77.292793 
L 291.306329 -77.109465 
L 291.344908 -76.926136 
L 291.385374 -76.742808 
L 291.420055 -76.559479 
L 291.440972 -76.376151 
L 291.442797 -76.192822 
L 291.425056 -76.009494 
L 291.392343 -75.826165 
L 291.352439 -75.642836 
L 291.313432 -75.459508 
L 291.281369 -75.276179 
L 291.259432 -75.092851 
L 291.248586 -74.909522 
L 291.248883 -74.726194 
L 291.260463 -74.542865 
L 291.283626 -74.359536 
L 291.318019 -74.176208 
L 291.361537 -73.992879 
L 291.409812 -73.809551 
L 291.456928 -73.626222 
L 291.497144 -73.442894 
L 291.526634 -73.259565 
L 291.544077 -73.076237 
L 291.549801 -72.892908 
L 291.544417 -72.709579 
L 291.528317 -72.526251 
L 291.50262 -72.342922 
L 291.470745 -72.159594 
L 291.43902 -71.976265 
L 291.415338 -71.792937 
L 291.406311 -71.609608 
L 291.414515 -71.42628 
L 291.437548 -71.242951 
L 291.469592 -71.059622 
L 291.504681 -70.876294 
L 291.539739 -70.692965 
L 291.575413 -70.509637 
L 291.614122 -70.326308 
L 291.656773 -70.14298 
L 291.700771 -69.959651 
L 291.741262 -69.776322 
L 291.775087 -69.592994 
L 291.804612 -69.409665 
L 291.838362 -69.226337 
L 291.887649 -69.043008 
L 291.961519 -68.85968 
L 292.06379 -68.676351 
L 292.194409 -68.493023 
L 292.353901 -68.309694 
L 292.547179 -68.126365 
L 292.783555 -67.943037 
L 293.073235 -67.759708 
L 293.423921 -67.57638 
L 293.841619 -67.393051 
L 294.336687 -67.209723 
L 294.931902 -67.026394 
L 295.667103 -66.843066 
L 296.595917 -66.659737 
L 297.773099 -66.476408 
L 299.2338 -66.29308 
L 300.968207 -66.109751 
L 302.89743 -65.926423 
L 304.860031 -65.743094 
L 306.62103 -65.559766 
L 307.912283 -65.376437 
L 308.501637 -65.193108 
L 308.271399 -65.00978 
L 307.274173 -64.826451 
L 305.736759 -64.643123 
L 304.003387 -64.459794 
L 302.438531 -64.276466 
L 301.330278 -64.093137 
L 300.835556 -63.909809 
L 300.988253 -63.72648 
L 301.76219 -63.543151 
L 303.1577 -63.359823 
L 305.272213 -63.176494 
L 308.321023 -62.993166 
L 312.587929 -62.809837 
L 318.302876 -62.626509 
L 325.467691 -62.44318 
L 333.683906 -62.259852 
L 342.067167 -62.076523 
L 349.332486 -61.893194 
L 354.078868 -61.709866 
L 355.2012 -61.526537 
L 352.267677 -61.343209 
L 345.689418 -61.15988 
L 336.597687 -60.976552 
L 326.484905 -60.793223 
L 316.772006 -60.609895 
L 308.476633 -60.426566 
L 302.080466 -60.243237 
L 297.588371 -60.059909 
L 294.69873 -59.87658 
L 292.989941 -59.693252 
L 292.058768 -59.509923 
L 291.590438 -59.326595 
z
" style="stroke: #595959; stroke-width: 1.25"/>
    </defs>
    <g clip-path="url(#pa3497eb1a0)">
     <use xlink:href="#me9cea74604" x="0" y="432" style="fill: #e99675; stroke: #595959; stroke-width: 1.25"/>
    </g>
   </g>
   <g id="PolyCollection_3">
    <defs>
     <path id="mfeb8ccd04b" d="M 453.152744 -99.758922 
L 449.187256 -99.758922 
L 446.228085 -102.392638 
L 440.550958 -105.026354 
L 431.424689 -107.660069 
L 419.237178 -110.293785 
L 405.948133 -112.927501 
L 394.594525 -115.561216 
L 387.942951 -118.194932 
L 387.1908 -120.828647 
L 391.610259 -123.462363 
L 399.208034 -126.096079 
L 407.762198 -128.729794 
L 415.592143 -131.36351 
L 421.826952 -133.997226 
L 426.264243 -136.630941 
L 429.041515 -139.264657 
L 430.368208 -141.898373 
L 430.488542 -144.532088 
L 429.834921 -147.165804 
L 429.123237 -149.79952 
L 429.166056 -152.433235 
L 430.468286 -155.066951 
L 432.934311 -157.700666 
L 435.953203 -160.334382 
L 438.794486 -162.968098 
L 440.993833 -165.601813 
L 442.474122 -168.235529 
L 443.414596 -170.869245 
L 444.057232 -173.50296 
L 444.594265 -176.136676 
L 445.141137 -178.770392 
L 445.740007 -181.404107 
L 446.375195 -184.037823 
L 447.010034 -186.671538 
L 447.629027 -189.305254 
L 448.246478 -191.93897 
L 448.872823 -194.572685 
L 449.478839 -197.206401 
L 450.001416 -199.840117 
L 450.387502 -202.473832 
L 450.632177 -205.107548 
L 450.776559 -207.741264 
L 450.873659 -210.374979 
L 450.956513 -213.008695 
L 451.031468 -215.64241 
L 451.09165 -218.276126 
L 451.131956 -220.909842 
L 451.154242 -223.543557 
L 451.164447 -226.177273 
L 451.168337 -228.810989 
L 451.169577 -231.444704 
L 451.169909 -234.07842 
L 451.169983 -236.712136 
L 451.169997 -239.345851 
L 451.17 -241.979567 
L 451.17 -244.613282 
L 451.17 -247.246998 
L 451.17 -249.880714 
L 451.17 -252.514429 
L 451.17 -255.148145 
L 451.17 -257.781861 
L 451.17 -260.415576 
L 451.17 -263.049292 
L 451.17 -265.683008 
L 451.17 -268.316723 
L 451.17 -270.950439 
L 451.17 -273.584154 
L 451.17 -276.21787 
L 451.17 -278.851586 
L 451.17 -281.485301 
L 451.17 -284.119017 
L 451.17 -286.752733 
L 451.17 -289.386448 
L 451.17 -292.020164 
L 451.17 -294.65388 
L 451.17 -297.287595 
L 451.17 -299.921311 
L 451.17 -302.555027 
L 451.17 -305.188742 
L 451.17 -307.822458 
L 451.17 -310.456173 
L 451.17 -313.089889 
L 451.169998 -315.723605 
L 451.169988 -318.35732 
L 451.169932 -320.991036 
L 451.169676 -323.624752 
L 451.168689 -326.258467 
L 451.165492 -328.892183 
L 451.156839 -331.525899 
L 451.13737 -334.159614 
L 451.1013 -336.79333 
L 451.047175 -339.427045 
L 450.983529 -342.060761 
L 450.929601 -344.694477 
L 450.906822 -347.328192 
L 450.925341 -349.961908 
L 450.976862 -352.595624 
L 451.040529 -355.229339 
L 451.0963 -357.863055 
L 451.134374 -360.496771 
L 451.205626 -360.496771 
L 451.205626 -360.496771 
L 451.2437 -357.863055 
L 451.299471 -355.229339 
L 451.363138 -352.595624 
L 451.414659 -349.961908 
L 451.433178 -347.328192 
L 451.410399 -344.694477 
L 451.356471 -342.060761 
L 451.292825 -339.427045 
L 451.2387 -336.79333 
L 451.20263 -334.159614 
L 451.183161 -331.525899 
L 451.174508 -328.892183 
L 451.171311 -326.258467 
L 451.170324 -323.624752 
L 451.170068 -320.991036 
L 451.170012 -318.35732 
L 451.170002 -315.723605 
L 451.17 -313.089889 
L 451.17 -310.456173 
L 451.17 -307.822458 
L 451.17 -305.188742 
L 451.17 -302.555027 
L 451.17 -299.921311 
L 451.17 -297.287595 
L 451.17 -294.65388 
L 451.17 -292.020164 
L 451.17 -289.386448 
L 451.17 -286.752733 
L 451.17 -284.119017 
L 451.17 -281.485301 
L 451.17 -278.851586 
L 451.17 -276.21787 
L 451.17 -273.584154 
L 451.17 -270.950439 
L 451.17 -268.316723 
L 451.17 -265.683008 
L 451.17 -263.049292 
L 451.17 -260.415576 
L 451.17 -257.781861 
L 451.17 -255.148145 
L 451.17 -252.514429 
L 451.17 -249.880714 
L 451.17 -247.246998 
L 451.17 -244.613282 
L 451.17 -241.979567 
L 451.170003 -239.345851 
L 451.170017 -236.712136 
L 451.170091 -234.07842 
L 451.170423 -231.444704 
L 451.171663 -228.810989 
L 451.175553 -226.177273 
L 451.185758 -223.543557 
L 451.208044 -220.909842 
L 451.24835 -218.276126 
L 451.308532 -215.64241 
L 451.383487 -213.008695 
L 451.466341 -210.374979 
L 451.563441 -207.741264 
L 451.707823 -205.107548 
L 451.952498 -202.473832 
L 452.338584 -199.840117 
L 452.861161 -197.206401 
L 453.467177 -194.572685 
L 454.093522 -191.93897 
L 454.710973 -189.305254 
L 455.329966 -186.671538 
L 455.964805 -184.037823 
L 456.599993 -181.404107 
L 457.198863 -178.770392 
L 457.745735 -176.136676 
L 458.282768 -173.50296 
L 458.925404 -170.869245 
L 459.865878 -168.235529 
L 461.346167 -165.601813 
L 463.545514 -162.968098 
L 466.386797 -160.334382 
L 469.405689 -157.700666 
L 471.871714 -155.066951 
L 473.173944 -152.433235 
L 473.216763 -149.79952 
L 472.505079 -147.165804 
L 471.851458 -144.532088 
L 471.971792 -141.898373 
L 473.298485 -139.264657 
L 476.075757 -136.630941 
L 480.513048 -133.997226 
L 486.747857 -131.36351 
L 494.577802 -128.729794 
L 503.131966 -126.096079 
L 510.729741 -123.462363 
L 515.1492 -120.828647 
L 514.397049 -118.194932 
L 507.745475 -115.561216 
L 496.391867 -112.927501 
L 483.102822 -110.293785 
L 470.915311 -107.660069 
L 461.789042 -105.026354 
L 456.111915 -102.392638 
L 453.152744 -99.758922 
z
" style="stroke: #595959; stroke-width: 1.25"/>
    </defs>
    <g clip-path="url(#pa3497eb1a0)">
     <use xlink:href="#mfeb8ccd04b" x="0" y="432" style="fill: #95a3c3; stroke: #595959; stroke-width: 1.25"/>
    </g>
   </g>
   <g id="PolyCollection_4">
    <defs>
     <path id="m077ccf83aa" d="M 612.923087 -66.611336 
L 609.312913 -66.611336 
L 607.289079 -67.484097 
L 603.727094 -68.356858 
L 598.117214 -69.22962 
L 590.240324 -70.102381 
L 580.437542 -70.975142 
L 569.733569 -71.847903 
L 559.676685 -72.720665 
L 551.901061 -73.593426 
L 547.595585 -74.466187 
L 547.1388 -75.338949 
L 550.063343 -76.21171 
L 555.32034 -77.084471 
L 561.672745 -77.957233 
L 568.039318 -78.829994 
L 573.697041 -79.702755 
L 578.335985 -80.575517 
L 581.999506 -81.448278 
L 584.951284 -82.321039 
L 587.517928 -83.193801 
L 589.960475 -84.066562 
L 592.412762 -84.939323 
L 594.889484 -85.812085 
L 597.334387 -86.684846 
L 599.67067 -87.557607 
L 601.830829 -88.430369 
L 603.764832 -89.30313 
L 605.437776 -90.175891 
L 606.827666 -91.048653 
L 607.926825 -91.921414 
L 608.744591 -92.794175 
L 609.307917 -93.666937 
L 609.658974 -94.539698 
L 609.850902 -95.412459 
L 609.942493 -96.285221 
L 609.991009 -97.157982 
L 610.042475 -98.030743 
L 610.121608 -98.903505 
L 610.226466 -99.776266 
L 610.332383 -100.649027 
L 610.405355 -101.521789 
L 610.419486 -102.39455 
L 610.370532 -103.267311 
L 610.279271 -104.140073 
L 610.183529 -105.012834 
L 610.123132 -105.885595 
L 610.125175 -106.758357 
L 610.196105 -107.631118 
L 610.32286 -108.503879 
L 610.480615 -109.376641 
L 610.642281 -110.249402 
L 610.785701 -111.122163 
L 610.896921 -111.994925 
L 610.970101 -112.867686 
L 611.005695 -113.740447 
L 611.008481 -114.613209 
L 610.986253 -115.48597 
L 610.948858 -116.358731 
L 610.90657 -117.231493 
L 610.86722 -118.104254 
L 610.833053 -118.977015 
L 610.799539 -119.849777 
L 610.757879 -120.722538 
L 610.700488 -121.595299 
L 610.626214 -122.468061 
L 610.541806 -123.340822 
L 610.458768 -124.213583 
L 610.388102 -125.086345 
L 610.336578 -125.959106 
L 610.306358 -126.831867 
L 610.297004 -127.704629 
L 610.307712 -128.57739 
L 610.338435 -129.450151 
L 610.389763 -130.322912 
L 610.46184 -131.195674 
L 610.552687 -132.068435 
L 610.656734 -132.941196 
L 610.764708 -133.813958 
L 610.865481 -134.686719 
L 610.949039 -135.55948 
L 611.008864 -136.432242 
L 611.042531 -137.305003 
L 611.050782 -138.177764 
L 611.036346 -139.050526 
L 611.003545 -139.923287 
L 610.958532 -140.796048 
L 610.909132 -141.66881 
L 610.863444 -142.541571 
L 610.827677 -143.414332 
L 610.804762 -144.287094 
L 610.794905 -145.159855 
L 610.797559 -146.032616 
L 610.81293 -146.905378 
L 610.841546 -147.778139 
L 610.882352 -148.6509 
L 610.931275 -149.523662 
L 610.981783 -150.396423 
L 611.02716 -151.269184 
L 611.062887 -152.141946 
L 611.087673 -153.014707 
L 611.148327 -153.014707 
L 611.148327 -153.014707 
L 611.173113 -152.141946 
L 611.20884 -151.269184 
L 611.254217 -150.396423 
L 611.304725 -149.523662 
L 611.353648 -148.6509 
L 611.394454 -147.778139 
L 611.42307 -146.905378 
L 611.438441 -146.032616 
L 611.441095 -145.159855 
L 611.431238 -144.287094 
L 611.408323 -143.414332 
L 611.372556 -142.541571 
L 611.326868 -141.66881 
L 611.277468 -140.796048 
L 611.232455 -139.923287 
L 611.199654 -139.050526 
L 611.185218 -138.177764 
L 611.193469 -137.305003 
L 611.227136 -136.432242 
L 611.286961 -135.55948 
L 611.370519 -134.686719 
L 611.471292 -133.813958 
L 611.579266 -132.941196 
L 611.683313 -132.068435 
L 611.77416 -131.195674 
L 611.846237 -130.322912 
L 611.897565 -129.450151 
L 611.928288 -128.57739 
L 611.938996 -127.704629 
L 611.929642 -126.831867 
L 611.899422 -125.959106 
L 611.847898 -125.086345 
L 611.777232 -124.213583 
L 611.694194 -123.340822 
L 611.609786 -122.468061 
L 611.535512 -121.595299 
L 611.478121 -120.722538 
L 611.436461 -119.849777 
L 611.402947 -118.977015 
L 611.36878 -118.104254 
L 611.32943 -117.231493 
L 611.287142 -116.358731 
L 611.249747 -115.48597 
L 611.227519 -114.613209 
L 611.230305 -113.740447 
L 611.265899 -112.867686 
L 611.339079 -111.994925 
L 611.450299 -111.122163 
L 611.593719 -110.249402 
L 611.755385 -109.376641 
L 611.91314 -108.503879 
L 612.039895 -107.631118 
L 612.110825 -106.758357 
L 612.112868 -105.885595 
L 612.052471 -105.012834 
L 611.956729 -104.140073 
L 611.865468 -103.267311 
L 611.816514 -102.39455 
L 611.830645 -101.521789 
L 611.903617 -100.649027 
L 612.009534 -99.776266 
L 612.114392 -98.903505 
L 612.193525 -98.030743 
L 612.244991 -97.157982 
L 612.293507 -96.285221 
L 612.385098 -95.412459 
L 612.577026 -94.539698 
L 612.928083 -93.666937 
L 613.491409 -92.794175 
L 614.309175 -91.921414 
L 615.408334 -91.048653 
L 616.798224 -90.175891 
L 618.471168 -89.30313 
L 620.405171 -88.430369 
L 622.56533 -87.557607 
L 624.901613 -86.684846 
L 627.346516 -85.812085 
L 629.823238 -84.939323 
L 632.275525 -84.066562 
L 634.718072 -83.193801 
L 637.284716 -82.321039 
L 640.236494 -81.448278 
L 643.900015 -80.575517 
L 648.538959 -79.702755 
L 654.196682 -78.829994 
L 660.563255 -77.957233 
L 666.91566 -77.084471 
L 672.172657 -76.21171 
L 675.0972 -75.338949 
L 674.640415 -74.466187 
L 670.334939 -73.593426 
L 662.559315 -72.720665 
L 652.502431 -71.847903 
L 641.798458 -70.975142 
L 631.995676 -70.102381 
L 624.118786 -69.22962 
L 618.508906 -68.356858 
L 614.946921 -67.484097 
L 612.923087 -66.611336 
z
" style="stroke: #595959; stroke-width: 1.25"/>
    </defs>
    <g clip-path="url(#pa3497eb1a0)">
     <use xlink:href="#m077ccf83aa" x="0" y="432" style="fill: #db96c0; stroke: #595959; stroke-width: 1.25"/>
    </g>
   </g>
   <g id="PolyCollection_5">
    <defs>
     <path id="mc938702eb2" d="M 771.673425 -58.899624 
L 770.458575 -58.899624 
L 769.373285 -59.252626 
L 766.93207 -59.605628 
L 762.21169 -59.958631 
L 754.41251 -60.311633 
L 743.50282 -60.664635 
L 730.783057 -61.017637 
L 718.795254 -61.370639 
L 710.334471 -61.723642 
L 707.0868 -62.076644 
L 708.869241 -62.429646 
L 713.991822 -62.782648 
L 720.319255 -63.135651 
L 726.175961 -63.488653 
L 730.657926 -63.841655 
L 733.542063 -64.194657 
L 735.129212 -64.54766 
L 736.091519 -64.900662 
L 737.2274 -65.253664 
L 739.145981 -65.606666 
L 742.051235 -65.959669 
L 745.743372 -66.312671 
L 749.785387 -66.665673 
L 753.698829 -67.018675 
L 757.101684 -67.371678 
L 759.778559 -67.72468 
L 761.6972 -68.077682 
L 762.974213 -68.430684 
L 763.799188 -68.783687 
L 764.354841 -69.136689 
L 764.778185 -69.489691 
L 765.169863 -69.842693 
L 765.613441 -70.195696 
L 766.168816 -70.548698 
L 766.848224 -70.9017 
L 767.609511 -71.254702 
L 768.380122 -71.607705 
L 769.091351 -71.960707 
L 769.697538 -72.313709 
L 770.175753 -72.666711 
L 770.518462 -73.019714 
L 770.729988 -73.372716 
L 770.82744 -73.725718 
L 770.841436 -74.07872 
L 770.812651 -74.431723 
L 770.782493 -74.784725 
L 770.779723 -75.137727 
L 770.809944 -75.490729 
L 770.856016 -75.843732 
L 770.890604 -76.196734 
L 770.893288 -76.549736 
L 770.862408 -76.902738 
L 770.815841 -77.255741 
L 770.780246 -77.608743 
L 770.773823 -77.961745 
L 770.792694 -78.314747 
L 770.81087 -78.66775 
L 770.795685 -79.020752 
L 770.730199 -79.373754 
L 770.628778 -79.726756 
L 770.534239 -80.079759 
L 770.494981 -80.432761 
L 770.535631 -80.785763 
L 770.642774 -81.138765 
L 770.776461 -81.491768 
L 770.896296 -81.84477 
L 770.9808 -82.197772 
L 771.029363 -82.550774 
L 771.052507 -82.903777 
L 771.061744 -83.256779 
L 771.06485 -83.609781 
L 771.065734 -83.962783 
L 771.065947 -84.315786 
L 771.065991 -84.668788 
L 771.065999 -85.02179 
L 771.066 -85.374792 
L 771.066 -85.727795 
L 771.066 -86.080797 
L 771.066 -86.433799 
L 771.066 -86.786801 
L 771.066 -87.139803 
L 771.065999 -87.492806 
L 771.065995 -87.845808 
L 771.065973 -88.19881 
L 771.065862 -88.551812 
L 771.065406 -88.904815 
L 771.063809 -89.257817 
L 771.059076 -89.610819 
L 771.047261 -89.963821 
L 771.022572 -90.316824 
L 770.979809 -90.669826 
L 770.919508 -91.022828 
L 770.85278 -91.37583 
L 770.800231 -91.728833 
L 770.782311 -92.081835 
L 770.806676 -92.434837 
L 770.862995 -92.787839 
L 770.929909 -93.140842 
L 770.98787 -93.493844 
L 771.027588 -93.846846 
L 771.104412 -93.846846 
L 771.104412 -93.846846 
L 771.14413 -93.493844 
L 771.202091 -93.140842 
L 771.269005 -92.787839 
L 771.325324 -92.434837 
L 771.349689 -92.081835 
L 771.331769 -91.728833 
L 771.27922 -91.37583 
L 771.212492 -91.022828 
L 771.152191 -90.669826 
L 771.109428 -90.316824 
L 771.084739 -89.963821 
L 771.072924 -89.610819 
L 771.068191 -89.257817 
L 771.066594 -88.904815 
L 771.066138 -88.551812 
L 771.066027 -88.19881 
L 771.066005 -87.845808 
L 771.066001 -87.492806 
L 771.066 -87.139803 
L 771.066 -86.786801 
L 771.066 -86.433799 
L 771.066 -86.080797 
L 771.066 -85.727795 
L 771.066 -85.374792 
L 771.066001 -85.02179 
L 771.066009 -84.668788 
L 771.066053 -84.315786 
L 771.066266 -83.962783 
L 771.06715 -83.609781 
L 771.070256 -83.256779 
L 771.079493 -82.903777 
L 771.102637 -82.550774 
L 771.1512 -82.197772 
L 771.235704 -81.84477 
L 771.355539 -81.491768 
L 771.489226 -81.138765 
L 771.596369 -80.785763 
L 771.637019 -80.432761 
L 771.597761 -80.079759 
L 771.503222 -79.726756 
L 771.401801 -79.373754 
L 771.336315 -79.020752 
L 771.32113 -78.66775 
L 771.339306 -78.314747 
L 771.358177 -77.961745 
L 771.351754 -77.608743 
L 771.316159 -77.255741 
L 771.269592 -76.902738 
L 771.238712 -76.549736 
L 771.241396 -76.196734 
L 771.275984 -75.843732 
L 771.322056 -75.490729 
L 771.352277 -75.137727 
L 771.349507 -74.784725 
L 771.319349 -74.431723 
L 771.290564 -74.07872 
L 771.30456 -73.725718 
L 771.402012 -73.372716 
L 771.613538 -73.019714 
L 771.956247 -72.666711 
L 772.434462 -72.313709 
L 773.040649 -71.960707 
L 773.751878 -71.607705 
L 774.522489 -71.254702 
L 775.283776 -70.9017 
L 775.963184 -70.548698 
L 776.518559 -70.195696 
L 776.962137 -69.842693 
L 777.353815 -69.489691 
L 777.777159 -69.136689 
L 778.332812 -68.783687 
L 779.157787 -68.430684 
L 780.4348 -68.077682 
L 782.353441 -67.72468 
L 785.030316 -67.371678 
L 788.433171 -67.018675 
L 792.346613 -66.665673 
L 796.388628 -66.312671 
L 800.080765 -65.959669 
L 802.986019 -65.606666 
L 804.9046 -65.253664 
L 806.040481 -64.900662 
L 807.002788 -64.54766 
L 808.589937 -64.194657 
L 811.474074 -63.841655 
L 815.956039 -63.488653 
L 821.812745 -63.135651 
L 828.140178 -62.782648 
L 833.262759 -62.429646 
L 835.0452 -62.076644 
L 831.797529 -61.723642 
L 823.336746 -61.370639 
L 811.348943 -61.017637 
L 798.62918 -60.664635 
L 787.71949 -60.311633 
L 779.92031 -59.958631 
L 775.19993 -59.605628 
L 772.758715 -59.252626 
L 771.673425 -58.899624 
z
" style="stroke: #595959; stroke-width: 1.25"/>
    </defs>
    <g clip-path="url(#pa3497eb1a0)">
     <use xlink:href="#mc938702eb2" x="0" y="432" style="fill: #a2c865; stroke: #595959; stroke-width: 1.25"/>
    </g>
   </g>
   <g id="line2d_8">
    <path d="M 131.274 368.886916 
L 131.274 369.88669 
" clip-path="url(#pa3497eb1a0)" style="fill: none; stroke: #000000"/>
   </g>
   <g id="line2d_9">
    <path d="M 131.274 366.08492 
L 131.274 362.204221 
" clip-path="url(#pa3497eb1a0)" style="fill: none; stroke: #000000"/>
   </g>
   <g id="line2d_10">
    <path d="M 125.27595 369.88669 
L 137.27205 369.88669 
" clip-path="url(#pa3497eb1a0)" style="fill: none; stroke: #000000; stroke-linecap: round"/>
   </g>
   <g id="line2d_11">
    <path d="M 125.27595 362.204221 
L 137.27205 362.204221 
" clip-path="url(#pa3497eb1a0)" style="fill: none; stroke: #000000; stroke-linecap: round"/>
   </g>
   <g id="line2d_12">
    <path d="M 291.222 370.570745 
L 291.222 371.465279 
" clip-path="url(#pa3497eb1a0)" style="fill: none; stroke: #000000"/>
   </g>
   <g id="line2d_13">
    <path d="M 291.222 368.3081 
L 291.222 364.940443 
" clip-path="url(#pa3497eb1a0)" style="fill: none; stroke: #000000"/>
   </g>
   <g id="line2d_14">
    <path d="M 285.22395 371.465279 
L 297.22005 371.465279 
" clip-path="url(#pa3497eb1a0)" style="fill: none; stroke: #000000; stroke-linecap: round"/>
   </g>
   <g id="line2d_15">
    <path d="M 285.22395 364.940443 
L 297.22005 364.940443 
" clip-path="url(#pa3497eb1a0)" style="fill: none; stroke: #000000; stroke-linecap: round"/>
   </g>
   <g id="line2d_16">
    <path d="M 451.17 314.491355 
L 451.17 319.213969 
" clip-path="url(#pa3497eb1a0)" style="fill: none; stroke: #000000"/>
   </g>
   <g id="line2d_17">
    <path d="M 451.17 284.182438 
L 451.17 238.758527 
" clip-path="url(#pa3497eb1a0)" style="fill: none; stroke: #000000"/>
   </g>
   <g id="line2d_18">
    <path d="M 445.17195 319.213969 
L 457.16805 319.213969 
" clip-path="url(#pa3497eb1a0)" style="fill: none; stroke: #000000; stroke-linecap: round"/>
   </g>
   <g id="line2d_19">
    <path d="M 445.17195 238.758527 
L 457.16805 238.758527 
" clip-path="url(#pa3497eb1a0)" style="fill: none; stroke: #000000; stroke-linecap: round"/>
   </g>
   <g id="line2d_20">
    <path d="M 611.118 358.205128 
L 611.118 359.941576 
" clip-path="url(#pa3497eb1a0)" style="fill: none; stroke: #000000"/>
   </g>
   <g id="line2d_21">
    <path d="M 611.118 350.627898 
L 611.118 339.788251 
" clip-path="url(#pa3497eb1a0)" style="fill: none; stroke: #000000"/>
   </g>
   <g id="line2d_22">
    <path d="M 605.11995 359.941576 
L 617.11605 359.941576 
" clip-path="url(#pa3497eb1a0)" style="fill: none; stroke: #000000; stroke-linecap: round"/>
   </g>
   <g id="line2d_23">
    <path d="M 605.11995 339.788251 
L 617.11605 339.788251 
" clip-path="url(#pa3497eb1a0)" style="fill: none; stroke: #000000; stroke-linecap: round"/>
   </g>
   <g id="line2d_24">
    <path d="M 771.066 370.097168 
L 771.066 371.30742 
" clip-path="url(#pa3497eb1a0)" style="fill: none; stroke: #000000"/>
   </g>
   <g id="line2d_25">
    <path d="M 771.066 366.624271 
L 771.066 361.520166 
" clip-path="url(#pa3497eb1a0)" style="fill: none; stroke: #000000"/>
   </g>
   <g id="line2d_26">
    <path d="M 765.06795 371.30742 
L 777.06405 371.30742 
" clip-path="url(#pa3497eb1a0)" style="fill: none; stroke: #000000; stroke-linecap: round"/>
   </g>
   <g id="line2d_27">
    <path d="M 765.06795 361.520166 
L 777.06405 361.520166 
" clip-path="url(#pa3497eb1a0)" style="fill: none; stroke: #000000; stroke-linecap: round"/>
   </g>
   <g id="line2d_28">
    <path d="M 119.2779 368.413339 
L 143.2701 368.413339 
" clip-path="url(#pa3497eb1a0)" style="fill: none; stroke: #ff0000; stroke-width: 2"/>
   </g>
   <g id="line2d_29">
    <path d="M 279.2259 370.202408 
L 303.2181 370.202408 
" clip-path="url(#pa3497eb1a0)" style="fill: none; stroke: #ff0000; stroke-width: 2"/>
   </g>
   <g id="line2d_30">
    <path d="M 439.1739 307.08514 
L 463.1661 307.08514 
" clip-path="url(#pa3497eb1a0)" style="fill: none; stroke: #ff0000; stroke-width: 2"/>
   </g>
   <g id="line2d_31">
    <path d="M 599.1219 355.653075 
L 623.1141 355.653075 
" clip-path="url(#pa3497eb1a0)" style="fill: none; stroke: #ff0000; stroke-width: 2"/>
   </g>
   <g id="line2d_32">
    <path d="M 759.0699 368.781677 
L 783.0621 368.781677 
" clip-path="url(#pa3497eb1a0)" style="fill: none; stroke: #ff0000; stroke-width: 2"/>
   </g>
   <g id="patch_3">
    <path d="M 51.3 395.14 
L 51.3 27.6 
" style="fill: none; stroke: #cccccc; stroke-width: 1.25; stroke-linejoin: miter; stroke-linecap: square"/>
   </g>
   <g id="patch_4">
    <path d="M 851.04 395.14 
L 851.04 27.6 
" style="fill: none; stroke: #cccccc; stroke-width: 1.25; stroke-linejoin: miter; stroke-linecap: square"/>
   </g>
   <g id="patch_5">
    <path d="M 51.3 395.14 
L 851.04 395.14 
" style="fill: none; stroke: #cccccc; stroke-width: 1.25; stroke-linejoin: miter; stroke-linecap: square"/>
   </g>
   <g id="patch_6">
    <path d="M 51.3 27.6 
L 851.04 27.6 
" style="fill: none; stroke: #cccccc; stroke-width: 1.25; stroke-linejoin: miter; stroke-linecap: square"/>
   </g>
   <g id="text_14">
    <!-- Handshake duration on QUIC with ed25519 signature algorithm — ideal conditions -->
    <g style="fill: #262626" transform="translate(203.04 21.6) scale(0.12 -0.12)">
     <defs>
      <path id="DejaVuSans-51" d="M 2522 4238 
Q 1834 4238 1429 3725 
Q 1025 3213 1025 2328 
Q 1025 1447 1429 934 
Q 1834 422 2522 422 
Q 3209 422 3611 934 
Q 4013 1447 4013 2328 
Q 4013 3213 3611 3725 
Q 3209 4238 2522 4238 
z
M 3406 84 
L 4238 -825 
L 3475 -825 
L 2784 -78 
Q 2681 -84 2626 -87 
Q 2572 -91 2522 -91 
Q 1538 -91 948 567 
Q 359 1225 359 2328 
Q 359 3434 948 4092 
Q 1538 4750 2522 4750 
Q 3503 4750 4090 4092 
Q 4678 3434 4678 2328 
Q 4678 1516 4351 937 
Q 4025 359 3406 84 
z
" transform="scale(0.015625)"/>
      <path id="DejaVuSans-55" d="M 556 4666 
L 1191 4666 
L 1191 1831 
Q 1191 1081 1462 751 
Q 1734 422 2344 422 
Q 2950 422 3222 751 
Q 3494 1081 3494 1831 
L 3494 4666 
L 4128 4666 
L 4128 1753 
Q 4128 841 3676 375 
Q 3225 -91 2344 -91 
Q 1459 -91 1007 375 
Q 556 841 556 1753 
L 556 4666 
z
" transform="scale(0.015625)"/>
      <path id="DejaVuSans-49" d="M 628 4666 
L 1259 4666 
L 1259 0 
L 628 0 
L 628 4666 
z
" transform="scale(0.015625)"/>
      <path id="DejaVuSans-43" d="M 4122 4306 
L 4122 3641 
Q 3803 3938 3442 4084 
Q 3081 4231 2675 4231 
Q 1875 4231 1450 3742 
Q 1025 3253 1025 2328 
Q 1025 1406 1450 917 
Q 1875 428 2675 428 
Q 3081 428 3442 575 
Q 3803 722 4122 1019 
L 4122 359 
Q 3791 134 3420 21 
Q 3050 -91 2638 -91 
Q 1578 -91 968 557 
Q 359 1206 359 2328 
Q 359 3453 968 4101 
Q 1578 4750 2638 4750 
Q 3056 4750 3426 4639 
Q 3797 4528 4122 4306 
z
" transform="scale(0.015625)"/>
      <path id="DejaVuSans-77" d="M 269 3500 
L 844 3500 
L 1563 769 
L 2278 3500 
L 2956 3500 
L 3675 769 
L 4391 3500 
L 4966 3500 
L 4050 0 
L 3372 0 
L 2619 2869 
L 1863 0 
L 1184 0 
L 269 3500 
z
" transform="scale(0.015625)"/>
      <path id="DejaVuSans-67" d="M 2906 1791 
Q 2906 2416 2648 2759 
Q 2391 3103 1925 3103 
Q 1463 3103 1205 2759 
Q 947 2416 947 1791 
Q 947 1169 1205 825 
Q 1463 481 1925 481 
Q 2391 481 2648 825 
Q 2906 1169 2906 1791 
z
M 3481 434 
Q 3481 -459 3084 -895 
Q 2688 -1331 1869 -1331 
Q 1566 -1331 1297 -1286 
Q 1028 -1241 775 -1147 
L 775 -588 
Q 1028 -725 1275 -790 
Q 1522 -856 1778 -856 
Q 2344 -856 2625 -561 
Q 2906 -266 2906 331 
L 2906 616 
Q 2728 306 2450 153 
Q 2172 0 1784 0 
Q 1141 0 747 490 
Q 353 981 353 1791 
Q 353 2603 747 3093 
Q 1141 3584 1784 3584 
Q 2172 3584 2450 3431 
Q 2728 3278 2906 2969 
L 2906 3500 
L 3481 3500 
L 3481 434 
z
" transform="scale(0.015625)"/>
      <path id="DejaVuSans-2014" d="M 313 1978 
L 6088 1978 
L 6088 1528 
L 313 1528 
L 313 1978 
z
" transform="scale(0.015625)"/>
      <path id="DejaVuSans-63" d="M 3122 3366 
L 3122 2828 
Q 2878 2963 2633 3030 
Q 2388 3097 2138 3097 
Q 1578 3097 1268 2742 
Q 959 2388 959 1747 
Q 959 1106 1268 751 
Q 1578 397 2138 397 
Q 2388 397 2633 464 
Q 2878 531 3122 666 
L 3122 134 
Q 2881 22 2623 -34 
Q 2366 -91 2075 -91 
Q 1284 -91 818 406 
Q 353 903 353 1747 
Q 353 2603 823 3093 
Q 1294 3584 2113 3584 
Q 2378 3584 2631 3529 
Q 2884 3475 3122 3366 
z
" transform="scale(0.015625)"/>
     </defs>
     <use xlink:href="#DejaVuSans-48"/>
     <use xlink:href="#DejaVuSans-61" x="75.195312"/>
     <use xlink:href="#DejaVuSans-6e" x="136.474609"/>
     <use xlink:href="#DejaVuSans-64" x="199.853516"/>
     <use xlink:href="#DejaVuSans-73" x="263.330078"/>
     <use xlink:href="#DejaVuSans-68" x="315.429688"/>
     <use xlink:href="#DejaVuSans-61" x="378.808594"/>
     <use xlink:href="#DejaVuSans-6b" x="440.087891"/>
     <use xlink:href="#DejaVuSans-65" x="494.373047"/>
     <use xlink:href="#DejaVuSans-20" x="555.896484"/>
     <use xlink:href="#DejaVuSans-64" x="587.683594"/>
     <use xlink:href="#DejaVuSans-75" x="651.160156"/>
     <use xlink:href="#DejaVuSans-72" x="714.539062"/>
     <use xlink:href="#DejaVuSans-61" x="755.652344"/>
     <use xlink:href="#DejaVuSans-74" x="816.931641"/>
     <use xlink:href="#DejaVuSans-69" x="856.140625"/>
     <use xlink:href="#DejaVuSans-6f" x="883.923828"/>
     <use xlink:href="#DejaVuSans-6e" x="945.105469"/>
     <use xlink:href="#DejaVuSans-20" x="1008.484375"/>
     <use xlink:href="#DejaVuSans-6f" x="1040.271484"/>
     <use xlink:href="#DejaVuSans-6e" x="1101.453125"/>
     <use xlink:href="#DejaVuSans-20" x="1164.832031"/>
     <use xlink:href="#DejaVuSans-51" x="1196.619141"/>
     <use xlink:href="#DejaVuSans-55" x="1275.330078"/>
     <use xlink:href="#DejaVuSans-49" x="1348.523438"/>
     <use xlink:href="#DejaVuSans-43" x="1378.015625"/>
     <use xlink:href="#DejaVuSans-20" x="1447.839844"/>
     <use xlink:href="#DejaVuSans-77" x="1479.626953"/>
     <use xlink:href="#DejaVuSans-69" x="1561.414062"/>
     <use xlink:href="#DejaVuSans-74" x="1589.197266"/>
     <use xlink:href="#DejaVuSans-68" x="1628.40625"/>
     <use xlink:href="#DejaVuSans-20" x="1691.785156"/>
     <use xlink:href="#DejaVuSans-65" x="1723.572266"/>
     <use xlink:href="#DejaVuSans-64" x="1785.095703"/>
     <use xlink:href="#DejaVuSans-32" x="1848.572266"/>
     <use xlink:href="#DejaVuSans-35" x="1912.195312"/>
     <use xlink:href="#DejaVuSans-35" x="1975.818359"/>
     <use xlink:href="#DejaVuSans-31" x="2039.441406"/>
     <use xlink:href="#DejaVuSans-39" x="2103.064453"/>
     <use xlink:href="#DejaVuSans-20" x="2166.6875"/>
     <use xlink:href="#DejaVuSans-73" x="2198.474609"/>
     <use xlink:href="#DejaVuSans-69" x="2250.574219"/>
     <use xlink:href="#DejaVuSans-67" x="2278.357422"/>
     <use xlink:href="#DejaVuSans-6e" x="2341.833984"/>
     <use xlink:href="#DejaVuSans-61" x="2405.212891"/>
     <use xlink:href="#DejaVuSans-74" x="2466.492188"/>
     <use xlink:href="#DejaVuSans-75" x="2505.701172"/>
     <use xlink:href="#DejaVuSans-72" x="2569.080078"/>
     <use xlink:href="#DejaVuSans-65" x="2607.943359"/>
     <use xlink:href="#DejaVuSans-20" x="2669.466797"/>
     <use xlink:href="#DejaVuSans-61" x="2701.253906"/>
     <use xlink:href="#DejaVuSans-6c" x="2762.533203"/>
     <use xlink:href="#DejaVuSans-67" x="2790.316406"/>
     <use xlink:href="#DejaVuSans-6f" x="2853.792969"/>
     <use xlink:href="#DejaVuSans-72" x="2914.974609"/>
     <use xlink:href="#DejaVuSans-69" x="2956.087891"/>
     <use xlink:href="#DejaVuSans-74" x="2983.871094"/>
     <use xlink:href="#DejaVuSans-68" x="3023.080078"/>
     <use xlink:href="#DejaVuSans-6d" x="3086.458984"/>
     <use xlink:href="#DejaVuSans-20" x="3183.871094"/>
     <use xlink:href="#DejaVuSans-2014" x="3215.658203"/>
     <use xlink:href="#DejaVuSans-20" x="3315.658203"/>
     <use xlink:href="#DejaVuSans-69" x="3347.445312"/>
     <use xlink:href="#DejaVuSans-64" x="3375.228516"/>
     <use xlink:href="#DejaVuSans-65" x="3438.705078"/>
     <use xlink:href="#DejaVuSans-61" x="3500.228516"/>
     <use xlink:href="#DejaVuSans-6c" x="3561.507812"/>
     <use xlink:href="#DejaVuSans-20" x="3589.291016"/>
     <use xlink:href="#DejaVuSans-63" x="3621.078125"/>
     <use xlink:href="#DejaVuSans-6f" x="3676.058594"/>
     <use xlink:href="#DejaVuSans-6e" x="3737.240234"/>
     <use xlink:href="#DejaVuSans-64" x="3800.619141"/>
     <use xlink:href="#DejaVuSans-69" x="3864.095703"/>
     <use xlink:href="#DejaVuSans-74" x="3891.878906"/>
     <use xlink:href="#DejaVuSans-69" x="3931.087891"/>
     <use xlink:href="#DejaVuSans-6f" x="3958.871094"/>
     <use xlink:href="#DejaVuSans-6e" x="4020.052734"/>
     <use xlink:href="#DejaVuSans-73" x="4083.431641"/>
    </g>
   </g>
  </g>
 </g>
 <defs>
  <clipPath id="pa3497eb1a0">
   <rect x="51.3" y="27.6" width="799.74" height="367.54"/>
  </clipPath>
 </defs>
</svg>
