<?xml version="1.0" encoding="utf-8" standalone="no"?>
<!DOCTYPE svg PUBLIC "-//W3C//DTD SVG 1.1//EN"
  "http://www.w3.org/Graphics/SVG/1.1/DTD/svg11.dtd">
<svg xmlns:xlink="http://www.w3.org/1999/xlink" width="864pt" height="432pt" viewBox="0 0 864 432" xmlns="http://www.w3.org/2000/svg" version="1.1">
 <metadata>
  <rdf:RDF xmlns:dc="http://purl.org/dc/elements/1.1/" xmlns:cc="http://creativecommons.org/ns#" xmlns:rdf="http://www.w3.org/1999/02/22-rdf-syntax-ns#">
   <cc:Work>
    <dc:type rdf:resource="http://purl.org/dc/dcmitype/StillImage"/>
    <dc:date>2026-03-21T13:58:48.221466</dc:date>
    <dc:format>image/svg+xml</dc:format>
    <dc:creator>
     <cc:Agent>
      <dc:title>Matplotlib v3.6.3, https://matplotlib.org/</dc:title>
     </cc:Agent>
    </dc:creator>
   </cc:Work>
  </rdf:RDF>
 </metadata>
 <defs>
  <style type="text/css">*{stroke-linejoin: round; stroke-linecap: butt}</style>
 </defs>
 <g id="figure_1">
  <g id="patch_1">
   <path d="M 0 432 
L 864 432 
L 864 0 
L 0 0 
z
" style="fill: #ffffff"/>
  </g>
  <g id="axes_1">
   <g id="patch_2">
    <path d="M 58.32 395.14 
L 851.04 395.14 
L 851.04 27.6 
L 58.32 27.6 
z
" style="fill: #ffffff"/>
   </g>
   <g id="matplotlib.axis_1">
    <g id="xtick_1">
     <g id="text_1">
      <!-- P-256 -->
      <g style="fill: #262626" transform="translate(117.642 415.277812) scale(0.14 -0.14)">
       <defs>
        <path id="DejaVuSans-50" d="M 1259 4147 
L 1259 2394 
L 2053 2394 
Q 2494 2394 2734 2622 
Q 2975 2850 2975 3272 
Q 2975 3691 2734 3919 
Q 2494 4147 2053 4147 
L 1259 4147 
z
M 628 4666 
L 2053 4666 
Q 2838 4666 3239 4311 
Q 3641 3956 3641 3272 
Q 3641 2581 3239 2228 
Q 2838 1875 2053 1875 
L 1259 1875 
L 1259 0 
L 628 0 
L 628 4666 
z
" transform="scale(0.015625)"/>
        <path id="DejaVuSans-2d" d="M 313 2009 
L 1997 2009 
L 1997 1497 
L 313 1497 
L 313 2009 
z
" transform="scale(0.015625)"/>
        <path id="DejaVuSans-32" d="M 1228 531 
L 3431 531 
L 3431 0 
L 469 0 
L 469 531 
Q 828 903 1448 1529 
Q 2069 2156 2228 2338 
Q 2531 2678 2651 2914 
Q 2772 3150 2772 3378 
Q 2772 3750 2511 3984 
Q 2250 4219 1831 4219 
Q 1534 4219 1204 4116 
Q 875 4013 500 3803 
L 500 4441 
Q 881 4594 1212 4672 
Q 1544 4750 1819 4750 
Q 2544 4750 2975 4387 
Q 3406 4025 3406 3419 
Q 3406 3131 3298 2873 
Q 3191 2616 2906 2266 
Q 2828 2175 2409 1742 
Q 1991 1309 1228 531 
z
" transform="scale(0.015625)"/>
        <path id="DejaVuSans-35" d="M 691 4666 
L 3169 4666 
L 3169 4134 
L 1269 4134 
L 1269 2991 
Q 1406 3038 1543 3061 
Q 1681 3084 1819 3084 
Q 2600 3084 3056 2656 
Q 3513 2228 3513 1497 
Q 3513 744 3044 326 
Q 2575 -91 1722 -91 
Q 1428 -91 1123 -41 
Q 819 9 494 109 
L 494 744 
Q 775 591 1075 516 
Q 1375 441 1709 441 
Q 2250 441 2565 725 
Q 2881 1009 2881 1497 
Q 2881 1984 2565 2268 
Q 2250 2553 1709 2553 
Q 1456 2553 1204 2497 
Q 953 2441 691 2322 
L 691 4666 
z
" transform="scale(0.015625)"/>
        <path id="DejaVuSans-36" d="M 2113 2584 
Q 1688 2584 1439 2293 
Q 1191 2003 1191 1497 
Q 1191 994 1439 701 
Q 1688 409 2113 409 
Q 2538 409 2786 701 
Q 3034 994 3034 1497 
Q 3034 2003 2786 2293 
Q 2538 2584 2113 2584 
z
M 3366 4563 
L 3366 3988 
Q 3128 4100 2886 4159 
Q 2644 4219 2406 4219 
Q 1781 4219 1451 3797 
Q 1122 3375 1075 2522 
Q 1259 2794 1537 2939 
Q 1816 3084 2150 3084 
Q 2853 3084 3261 2657 
Q 3669 2231 3669 1497 
Q 3669 778 3244 343 
Q 2819 -91 2113 -91 
Q 1303 -91 875 529 
Q 447 1150 447 2328 
Q 447 3434 972 4092 
Q 1497 4750 2381 4750 
Q 2619 4750 2861 4703 
Q 3103 4656 3366 4563 
z
" transform="scale(0.015625)"/>
       </defs>
       <use xlink:href="#DejaVuSans-50"/>
       <use xlink:href="#DejaVuSans-2d" x="58.052734"/>
       <use xlink:href="#DejaVuSans-32" x="94.136719"/>
       <use xlink:href="#DejaVuSans-35" x="157.759766"/>
       <use xlink:href="#DejaVuSans-36" x="221.382812"/>
      </g>
     </g>
    </g>
    <g id="xtick_2">
     <g id="text_2">
      <!-- x25519 -->
      <g style="fill: #262626" transform="translate(269.724125 415.277812) scale(0.14 -0.14)">
       <defs>
        <path id="DejaVuSans-78" d="M 3513 3500 
L 2247 1797 
L 3578 0 
L 2900 0 
L 1881 1375 
L 863 0 
L 184 0 
L 1544 1831 
L 300 3500 
L 978 3500 
L 1906 2253 
L 2834 3500 
L 3513 3500 
z
" transform="scale(0.015625)"/>
        <path id="DejaVuSans-31" d="M 794 531 
L 1825 531 
L 1825 4091 
L 703 3866 
L 703 4441 
L 1819 4666 
L 2450 4666 
L 2450 531 
L 3481 531 
L 3481 0 
L 794 0 
L 794 531 
z
" transform="scale(0.015625)"/>
        <path id="DejaVuSans-39" d="M 703 97 
L 703 672 
Q 941 559 1184 500 
Q 1428 441 1663 441 
Q 2288 441 2617 861 
Q 2947 1281 2994 2138 
Q 2813 1869 2534 1725 
Q 2256 1581 1919 1581 
Q 1219 1581 811 2004 
Q 403 2428 403 3163 
Q 403 3881 828 4315 
Q 1253 4750 1959 4750 
Q 2769 4750 3195 4129 
Q 3622 3509 3622 2328 
Q 3622 1225 3098 567 
Q 2575 -91 1691 -91 
Q 1453 -91 1209 -44 
Q 966 3 703 97 
z
M 1959 2075 
Q 2384 2075 2632 2365 
Q 2881 2656 2881 3163 
Q 2881 3666 2632 3958 
Q 2384 4250 1959 4250 
Q 1534 4250 1286 3958 
Q 1038 3666 1038 3163 
Q 1038 2656 1286 2365 
Q 1534 2075 1959 2075 
z
" transform="scale(0.015625)"/>
       </defs>
       <use xlink:href="#DejaVuSans-78"/>
       <use xlink:href="#DejaVuSans-32" x="59.179688"/>
       <use xlink:href="#DejaVuSans-35" x="122.802734"/>
       <use xlink:href="#DejaVuSans-35" x="186.425781"/>
       <use xlink:href="#DejaVuSans-31" x="250.048828"/>
       <use xlink:href="#DejaVuSans-39" x="313.671875"/>
      </g>
     </g>
    </g>
    <g id="xtick_3">
     <g id="text_3">
      <!-- p256_mlkem512 -->
      <g style="fill: #262626" transform="translate(396.325156 415.277812) scale(0.14 -0.14)">
       <defs>
        <path id="DejaVuSans-70" d="M 1159 525 
L 1159 -1331 
L 581 -1331 
L 581 3500 
L 1159 3500 
L 1159 2969 
Q 1341 3281 1617 3432 
Q 1894 3584 2278 3584 
Q 2916 3584 3314 3078 
Q 3713 2572 3713 1747 
Q 3713 922 3314 415 
Q 2916 -91 2278 -91 
Q 1894 -91 1617 61 
Q 1341 213 1159 525 
z
M 3116 1747 
Q 3116 2381 2855 2742 
Q 2594 3103 2138 3103 
Q 1681 3103 1420 2742 
Q 1159 2381 1159 1747 
Q 1159 1113 1420 752 
Q 1681 391 2138 391 
Q 2594 391 2855 752 
Q 3116 1113 3116 1747 
z
" transform="scale(0.015625)"/>
        <path id="DejaVuSans-5f" d="M 3263 -1063 
L 3263 -1509 
L -63 -1509 
L -63 -1063 
L 3263 -1063 
z
" transform="scale(0.015625)"/>
        <path id="DejaVuSans-6d" d="M 3328 2828 
Q 3544 3216 3844 3400 
Q 4144 3584 4550 3584 
Q 5097 3584 5394 3201 
Q 5691 2819 5691 2113 
L 5691 0 
L 5113 0 
L 5113 2094 
Q 5113 2597 4934 2840 
Q 4756 3084 4391 3084 
Q 3944 3084 3684 2787 
Q 3425 2491 3425 1978 
L 3425 0 
L 2847 0 
L 2847 2094 
Q 2847 2600 2669 2842 
Q 2491 3084 2119 3084 
Q 1678 3084 1418 2786 
Q 1159 2488 1159 1978 
L 1159 0 
L 581 0 
L 581 3500 
L 1159 3500 
L 1159 2956 
Q 1356 3278 1631 3431 
Q 1906 3584 2284 3584 
Q 2666 3584 2933 3390 
Q 3200 3197 3328 2828 
z
" transform="scale(0.015625)"/>
        <path id="DejaVuSans-6c" d="M 603 4863 
L 1178 4863 
L 1178 0 
L 603 0 
L 603 4863 
z
" transform="scale(0.015625)"/>
        <path id="DejaVuSans-6b" d="M 581 4863 
L 1159 4863 
L 1159 1991 
L 2875 3500 
L 3609 3500 
L 1753 1863 
L 3688 0 
L 2938 0 
L 1159 1709 
L 1159 0 
L 581 0 
L 581 4863 
z
" transform="scale(0.015625)"/>
        <path id="DejaVuSans-65" d="M 3597 1894 
L 3597 1613 
L 953 1613 
Q 991 1019 1311 708 
Q 1631 397 2203 397 
Q 2534 397 2845 478 
Q 3156 559 3463 722 
L 3463 178 
Q 3153 47 2828 -22 
Q 2503 -91 2169 -91 
Q 1331 -91 842 396 
Q 353 884 353 1716 
Q 353 2575 817 3079 
Q 1281 3584 2069 3584 
Q 2775 3584 3186 3129 
Q 3597 2675 3597 1894 
z
M 3022 2063 
Q 3016 2534 2758 2815 
Q 2500 3097 2075 3097 
Q 1594 3097 1305 2825 
Q 1016 2553 972 2059 
L 3022 2063 
z
" transform="scale(0.015625)"/>
       </defs>
       <use xlink:href="#DejaVuSans-70"/>
       <use xlink:href="#DejaVuSans-32" x="63.476562"/>
       <use xlink:href="#DejaVuSans-35" x="127.099609"/>
       <use xlink:href="#DejaVuSans-36" x="190.722656"/>
       <use xlink:href="#DejaVuSans-5f" x="254.345703"/>
       <use xlink:href="#DejaVuSans-6d" x="304.345703"/>
       <use xlink:href="#DejaVuSans-6c" x="401.757812"/>
       <use xlink:href="#DejaVuSans-6b" x="429.541016"/>
       <use xlink:href="#DejaVuSans-65" x="483.826172"/>
       <use xlink:href="#DejaVuSans-6d" x="545.349609"/>
       <use xlink:href="#DejaVuSans-35" x="642.761719"/>
       <use xlink:href="#DejaVuSans-31" x="706.384766"/>
       <use xlink:href="#DejaVuSans-32" x="770.007812"/>
      </g>
     </g>
    </g>
    <g id="xtick_4">
     <g id="text_4">
      <!-- x25519_mlkem512 -->
      <g style="fill: #262626" transform="translate(546.262437 415.277812) scale(0.14 -0.14)">
       <use xlink:href="#DejaVuSans-78"/>
       <use xlink:href="#DejaVuSans-32" x="59.179688"/>
       <use xlink:href="#DejaVuSans-35" x="122.802734"/>
       <use xlink:href="#DejaVuSans-35" x="186.425781"/>
       <use xlink:href="#DejaVuSans-31" x="250.048828"/>
       <use xlink:href="#DejaVuSans-39" x="313.671875"/>
       <use xlink:href="#DejaVuSans-5f" x="377.294922"/>
       <use xlink:href="#DejaVuSans-6d" x="427.294922"/>
       <use xlink:href="#DejaVuSans-6c" x="524.707031"/>
       <use xlink:href="#DejaVuSans-6b" x="552.490234"/>
       <use xlink:href="#DejaVuSans-65" x="606.775391"/>
       <use xlink:href="#DejaVuSans-6d" x="668.298828"/>
       <use xlink:href="#DejaVuSans-35" x="765.710938"/>
       <use xlink:href="#DejaVuSans-31" x="829.333984"/>
       <use xlink:href="#DejaVuSans-32" x="892.957031"/>
      </g>
     </g>
    </g>
    <g id="xtick_5">
     <g id="text_5">
      <!-- mlkem512 -->
      <g style="fill: #262626" transform="translate(734.718312 415.277812) scale(0.14 -0.14)">
       <use xlink:href="#DejaVuSans-6d"/>
       <use xlink:href="#DejaVuSans-6c" x="97.412109"/>
       <use xlink:href="#DejaVuSans-6b" x="125.195312"/>
       <use xlink:href="#DejaVuSans-65" x="179.480469"/>
       <use xlink:href="#DejaVuSans-6d" x="241.003906"/>
       <use xlink:href="#DejaVuSans-35" x="338.416016"/>
       <use xlink:href="#DejaVuSans-31" x="402.039062"/>
       <use xlink:href="#DejaVuSans-32" x="465.662109"/>
      </g>
     </g>
    </g>
   </g>
   <g id="matplotlib.axis_2">
    <g id="ytick_1">
     <g id="line2d_1">
      <path d="M 58.32 338.667305 
L 851.04 338.667305 
" clip-path="url(#p446437da96)" style="fill: none; stroke: #cccccc; stroke-linecap: round"/>
     </g>
     <g id="text_6">
      <!-- 80 -->
      <g style="fill: #262626" transform="translate(34.8225 342.846445) scale(0.11 -0.11)">
       <defs>
        <path id="DejaVuSans-38" d="M 2034 2216 
Q 1584 2216 1326 1975 
Q 1069 1734 1069 1313 
Q 1069 891 1326 650 
Q 1584 409 2034 409 
Q 2484 409 2743 651 
Q 3003 894 3003 1313 
Q 3003 1734 2745 1975 
Q 2488 2216 2034 2216 
z
M 1403 2484 
Q 997 2584 770 2862 
Q 544 3141 544 3541 
Q 544 4100 942 4425 
Q 1341 4750 2034 4750 
Q 2731 4750 3128 4425 
Q 3525 4100 3525 3541 
Q 3525 3141 3298 2862 
Q 3072 2584 2669 2484 
Q 3125 2378 3379 2068 
Q 3634 1759 3634 1313 
Q 3634 634 3220 271 
Q 2806 -91 2034 -91 
Q 1263 -91 848 271 
Q 434 634 434 1313 
Q 434 1759 690 2068 
Q 947 2378 1403 2484 
z
M 1172 3481 
Q 1172 3119 1398 2916 
Q 1625 2713 2034 2713 
Q 2441 2713 2670 2916 
Q 2900 3119 2900 3481 
Q 2900 3844 2670 4047 
Q 2441 4250 2034 4250 
Q 1625 4250 1398 4047 
Q 1172 3844 1172 3481 
z
" transform="scale(0.015625)"/>
        <path id="DejaVuSans-30" d="M 2034 4250 
Q 1547 4250 1301 3770 
Q 1056 3291 1056 2328 
Q 1056 1369 1301 889 
Q 1547 409 2034 409 
Q 2525 409 2770 889 
Q 3016 1369 3016 2328 
Q 3016 3291 2770 3770 
Q 2525 4250 2034 4250 
z
M 2034 4750 
Q 2819 4750 3233 4129 
Q 3647 3509 3647 2328 
Q 3647 1150 3233 529 
Q 2819 -91 2034 -91 
Q 1250 -91 836 529 
Q 422 1150 422 2328 
Q 422 3509 836 4129 
Q 1250 4750 2034 4750 
z
" transform="scale(0.015625)"/>
       </defs>
       <use xlink:href="#DejaVuSans-38"/>
       <use xlink:href="#DejaVuSans-30" x="63.623047"/>
      </g>
     </g>
    </g>
    <g id="ytick_2">
     <g id="line2d_2">
      <path d="M 58.32 260.93702 
L 851.04 260.93702 
" clip-path="url(#p446437da96)" style="fill: none; stroke: #cccccc; stroke-linecap: round"/>
     </g>
     <g id="text_7">
      <!-- 100 -->
      <g style="fill: #262626" transform="translate(27.82375 265.116161) scale(0.11 -0.11)">
       <use xlink:href="#DejaVuSans-31"/>
       <use xlink:href="#DejaVuSans-30" x="63.623047"/>
       <use xlink:href="#DejaVuSans-30" x="127.246094"/>
      </g>
     </g>
    </g>
    <g id="ytick_3">
     <g id="line2d_3">
      <path d="M 58.32 183.206735 
L 851.04 183.206735 
" clip-path="url(#p446437da96)" style="fill: none; stroke: #cccccc; stroke-linecap: round"/>
     </g>
     <g id="text_8">
      <!-- 120 -->
      <g style="fill: #262626" transform="translate(27.82375 187.385876) scale(0.11 -0.11)">
       <use xlink:href="#DejaVuSans-31"/>
       <use xlink:href="#DejaVuSans-32" x="63.623047"/>
       <use xlink:href="#DejaVuSans-30" x="127.246094"/>
      </g>
     </g>
    </g>
    <g id="ytick_4">
     <g id="line2d_4">
      <path d="M 58.32 105.476451 
L 851.04 105.476451 
" clip-path="url(#p446437da96)" style="fill: none; stroke: #cccccc; stroke-linecap: round"/>
     </g>
     <g id="text_9">
      <!-- 140 -->
      <g style="fill: #262626" transform="translate(27.82375 109.655591) scale(0.11 -0.11)">
       <defs>
        <path id="DejaVuSans-34" d="M 2419 4116 
L 825 1625 
L 2419 1625 
L 2419 4116 
z
M 2253 4666 
L 3047 4666 
L 3047 1625 
L 3713 1625 
L 3713 1100 
L 3047 1100 
L 3047 0 
L 2419 0 
L 2419 1100 
L 313 1100 
L 313 1709 
L 2253 4666 
z
" transform="scale(0.015625)"/>
       </defs>
       <use xlink:href="#DejaVuSans-31"/>
       <use xlink:href="#DejaVuSans-34" x="63.623047"/>
       <use xlink:href="#DejaVuSans-30" x="127.246094"/>
      </g>
     </g>
    </g>
    <g id="ytick_5">
     <g id="line2d_5">
      <path d="M 58.32 27.746166 
L 851.04 27.746166 
" clip-path="url(#p446437da96)" style="fill: none; stroke: #cccccc; stroke-linecap: round"/>
     </g>
     <g id="text_10">
      <!-- 160 -->
      <g style="fill: #262626" transform="translate(27.82375 31.925306) scale(0.11 -0.11)">
       <use xlink:href="#DejaVuSans-31"/>
       <use xlink:href="#DejaVuSans-36" x="63.623047"/>
       <use xlink:href="#DejaVuSans-30" x="127.246094"/>
      </g>
     </g>
    </g>
    <g id="text_11">
     <!-- Handshake duration (ms) -->
     <g style="fill: #262626" transform="translate(21.328125 287.437813) rotate(-90) scale(0.12 -0.12)">
      <defs>
       <path id="DejaVuSans-48" d="M 628 4666 
L 1259 4666 
L 1259 2753 
L 3553 2753 
L 3553 4666 
L 4184 4666 
L 4184 0 
L 3553 0 
L 3553 2222 
L 1259 2222 
L 1259 0 
L 628 0 
L 628 4666 
z
" transform="scale(0.015625)"/>
       <path id="DejaVuSans-61" d="M 2194 1759 
Q 1497 1759 1228 1600 
Q 959 1441 959 1056 
Q 959 750 1161 570 
Q 1363 391 1709 391 
Q 2188 391 2477 730 
Q 2766 1069 2766 1631 
L 2766 1759 
L 2194 1759 
z
M 3341 1997 
L 3341 0 
L 2766 0 
L 2766 531 
Q 2569 213 2275 61 
Q 1981 -91 1556 -91 
Q 1019 -91 701 211 
Q 384 513 384 1019 
Q 384 1609 779 1909 
Q 1175 2209 1959 2209 
L 2766 2209 
L 2766 2266 
Q 2766 2663 2505 2880 
Q 2244 3097 1772 3097 
Q 1472 3097 1187 3025 
Q 903 2953 641 2809 
L 641 3341 
Q 956 3463 1253 3523 
Q 1550 3584 1831 3584 
Q 2591 3584 2966 3190 
Q 3341 2797 3341 1997 
z
" transform="scale(0.015625)"/>
       <path id="DejaVuSans-6e" d="M 3513 2113 
L 3513 0 
L 2938 0 
L 2938 2094 
Q 2938 2591 2744 2837 
Q 2550 3084 2163 3084 
Q 1697 3084 1428 2787 
Q 1159 2491 1159 1978 
L 1159 0 
L 581 0 
L 581 3500 
L 1159 3500 
L 1159 2956 
Q 1366 3272 1645 3428 
Q 1925 3584 2291 3584 
Q 2894 3584 3203 3211 
Q 3513 2838 3513 2113 
z
" transform="scale(0.015625)"/>
       <path id="DejaVuSans-64" d="M 2906 2969 
L 2906 4863 
L 3481 4863 
L 3481 0 
L 2906 0 
L 2906 525 
Q 2725 213 2448 61 
Q 2172 -91 1784 -91 
Q 1150 -91 751 415 
Q 353 922 353 1747 
Q 353 2572 751 3078 
Q 1150 3584 1784 3584 
Q 2172 3584 2448 3432 
Q 2725 3281 2906 2969 
z
M 947 1747 
Q 947 1113 1208 752 
Q 1469 391 1925 391 
Q 2381 391 2643 752 
Q 2906 1113 2906 1747 
Q 2906 2381 2643 2742 
Q 2381 3103 1925 3103 
Q 1469 3103 1208 2742 
Q 947 2381 947 1747 
z
" transform="scale(0.015625)"/>
       <path id="DejaVuSans-73" d="M 2834 3397 
L 2834 2853 
Q 2591 2978 2328 3040 
Q 2066 3103 1784 3103 
Q 1356 3103 1142 2972 
Q 928 2841 928 2578 
Q 928 2378 1081 2264 
Q 1234 2150 1697 2047 
L 1894 2003 
Q 2506 1872 2764 1633 
Q 3022 1394 3022 966 
Q 3022 478 2636 193 
Q 2250 -91 1575 -91 
Q 1294 -91 989 -36 
Q 684 19 347 128 
L 347 722 
Q 666 556 975 473 
Q 1284 391 1588 391 
Q 1994 391 2212 530 
Q 2431 669 2431 922 
Q 2431 1156 2273 1281 
Q 2116 1406 1581 1522 
L 1381 1569 
Q 847 1681 609 1914 
Q 372 2147 372 2553 
Q 372 3047 722 3315 
Q 1072 3584 1716 3584 
Q 2034 3584 2315 3537 
Q 2597 3491 2834 3397 
z
" transform="scale(0.015625)"/>
       <path id="DejaVuSans-68" d="M 3513 2113 
L 3513 0 
L 2938 0 
L 2938 2094 
Q 2938 2591 2744 2837 
Q 2550 3084 2163 3084 
Q 1697 3084 1428 2787 
Q 1159 2491 1159 1978 
L 1159 0 
L 581 0 
L 581 4863 
L 1159 4863 
L 1159 2956 
Q 1366 3272 1645 3428 
Q 1925 3584 2291 3584 
Q 2894 3584 3203 3211 
Q 3513 2838 3513 2113 
z
" transform="scale(0.015625)"/>
       <path id="DejaVuSans-20" transform="scale(0.015625)"/>
       <path id="DejaVuSans-75" d="M 544 1381 
L 544 3500 
L 1119 3500 
L 1119 1403 
Q 1119 906 1312 657 
Q 1506 409 1894 409 
Q 2359 409 2629 706 
Q 2900 1003 2900 1516 
L 2900 3500 
L 3475 3500 
L 3475 0 
L 2900 0 
L 2900 538 
Q 2691 219 2414 64 
Q 2138 -91 1772 -91 
Q 1169 -91 856 284 
Q 544 659 544 1381 
z
M 1991 3584 
L 1991 3584 
z
" transform="scale(0.015625)"/>
       <path id="DejaVuSans-72" d="M 2631 2963 
Q 2534 3019 2420 3045 
Q 2306 3072 2169 3072 
Q 1681 3072 1420 2755 
Q 1159 2438 1159 1844 
L 1159 0 
L 581 0 
L 581 3500 
L 1159 3500 
L 1159 2956 
Q 1341 3275 1631 3429 
Q 1922 3584 2338 3584 
Q 2397 3584 2469 3576 
Q 2541 3569 2628 3553 
L 2631 2963 
z
" transform="scale(0.015625)"/>
       <path id="DejaVuSans-74" d="M 1172 4494 
L 1172 3500 
L 2356 3500 
L 2356 3053 
L 1172 3053 
L 1172 1153 
Q 1172 725 1289 603 
Q 1406 481 1766 481 
L 2356 481 
L 2356 0 
L 1766 0 
Q 1100 0 847 248 
Q 594 497 594 1153 
L 594 3053 
L 172 3053 
L 172 3500 
L 594 3500 
L 594 4494 
L 1172 4494 
z
" transform="scale(0.015625)"/>
       <path id="DejaVuSans-69" d="M 603 3500 
L 1178 3500 
L 1178 0 
L 603 0 
L 603 3500 
z
M 603 4863 
L 1178 4863 
L 1178 4134 
L 603 4134 
L 603 4863 
z
" transform="scale(0.015625)"/>
       <path id="DejaVuSans-6f" d="M 1959 3097 
Q 1497 3097 1228 2736 
Q 959 2375 959 1747 
Q 959 1119 1226 758 
Q 1494 397 1959 397 
Q 2419 397 2687 759 
Q 2956 1122 2956 1747 
Q 2956 2369 2687 2733 
Q 2419 3097 1959 3097 
z
M 1959 3584 
Q 2709 3584 3137 3096 
Q 3566 2609 3566 1747 
Q 3566 888 3137 398 
Q 2709 -91 1959 -91 
Q 1206 -91 779 398 
Q 353 888 353 1747 
Q 353 2609 779 3096 
Q 1206 3584 1959 3584 
z
" transform="scale(0.015625)"/>
       <path id="DejaVuSans-28" d="M 1984 4856 
Q 1566 4138 1362 3434 
Q 1159 2731 1159 2009 
Q 1159 1288 1364 580 
Q 1569 -128 1984 -844 
L 1484 -844 
Q 1016 -109 783 600 
Q 550 1309 550 2009 
Q 550 2706 781 3412 
Q 1013 4119 1484 4856 
L 1984 4856 
z
" transform="scale(0.015625)"/>
       <path id="DejaVuSans-29" d="M 513 4856 
L 1013 4856 
Q 1481 4119 1714 3412 
Q 1947 2706 1947 2009 
Q 1947 1309 1714 600 
Q 1481 -109 1013 -844 
L 513 -844 
Q 928 -128 1133 580 
Q 1338 1288 1338 2009 
Q 1338 2731 1133 3434 
Q 928 4138 513 4856 
z
" transform="scale(0.015625)"/>
      </defs>
      <use xlink:href="#DejaVuSans-48"/>
      <use xlink:href="#DejaVuSans-61" x="75.195312"/>
      <use xlink:href="#DejaVuSans-6e" x="136.474609"/>
      <use xlink:href="#DejaVuSans-64" x="199.853516"/>
      <use xlink:href="#DejaVuSans-73" x="263.330078"/>
      <use xlink:href="#DejaVuSans-68" x="315.429688"/>
      <use xlink:href="#DejaVuSans-61" x="378.808594"/>
      <use xlink:href="#DejaVuSans-6b" x="440.087891"/>
      <use xlink:href="#DejaVuSans-65" x="494.373047"/>
      <use xlink:href="#DejaVuSans-20" x="555.896484"/>
      <use xlink:href="#DejaVuSans-64" x="587.683594"/>
      <use xlink:href="#DejaVuSans-75" x="651.160156"/>
      <use xlink:href="#DejaVuSans-72" x="714.539062"/>
      <use xlink:href="#DejaVuSans-61" x="755.652344"/>
      <use xlink:href="#DejaVuSans-74" x="816.931641"/>
      <use xlink:href="#DejaVuSans-69" x="856.140625"/>
      <use xlink:href="#DejaVuSans-6f" x="883.923828"/>
      <use xlink:href="#DejaVuSans-6e" x="945.105469"/>
      <use xlink:href="#DejaVuSans-20" x="1008.484375"/>
      <use xlink:href="#DejaVuSans-28" x="1040.271484"/>
      <use xlink:href="#DejaVuSans-6d" x="1079.285156"/>
      <use xlink:href="#DejaVuSans-73" x="1176.697266"/>
      <use xlink:href="#DejaVuSans-29" x="1228.796875"/>
     </g>
    </g>
   </g>
   <g id="PolyCollection_1">
    <defs>
     <path id="m9978b4fe94" d="M 143.058896 -54.526979 
L 132.125104 -54.526979 
L 115.031446 -57.453226 
L 86.613416 -60.379474 
L 74.1744 -63.305721 
L 93.788878 -66.231969 
L 120.547325 -69.158217 
L 133.75225 -72.084464 
L 137.064841 -75.010712 
L 137.544306 -77.93696 
L 137.588974 -80.863207 
L 137.591868 -83.789455 
L 137.591996 -86.715702 
L 137.592 -89.64195 
L 137.592 -92.568198 
L 137.592 -95.494445 
L 137.592 -98.420693 
L 137.592 -101.346941 
L 137.592 -104.273188 
L 137.592 -107.199436 
L 137.592 -110.125684 
L 137.592 -113.051931 
L 137.592 -115.978179 
L 137.592 -118.904426 
L 137.592 -121.830674 
L 137.592 -124.756922 
L 137.592 -127.683169 
L 137.592 -130.609417 
L 137.592 -133.535665 
L 137.592 -136.461912 
L 137.592 -139.38816 
L 137.592 -142.314407 
L 137.592 -145.240655 
L 137.592 -148.166903 
L 137.592 -151.09315 
L 137.592 -154.019398 
L 137.592 -156.945646 
L 137.592 -159.871893 
L 137.592 -162.798141 
L 137.592 -165.724389 
L 137.592 -168.650636 
L 137.592 -171.576884 
L 137.592 -174.503131 
L 137.592 -177.429379 
L 137.592 -180.355627 
L 137.592 -183.281874 
L 137.592 -186.208122 
L 137.592 -189.13437 
L 137.592 -192.060617 
L 137.592 -194.986865 
L 137.592 -197.913112 
L 137.592 -200.83936 
L 137.592 -203.765608 
L 137.592 -206.691855 
L 137.592 -209.618103 
L 137.592 -212.544351 
L 137.592 -215.470598 
L 137.592 -218.396846 
L 137.592 -221.323093 
L 137.592 -224.249341 
L 137.592 -227.175589 
L 137.592 -230.101836 
L 137.592 -233.028084 
L 137.592 -235.954332 
L 137.592 -238.880579 
L 137.592 -241.806827 
L 137.592 -244.733075 
L 137.592 -247.659322 
L 137.592 -250.58557 
L 137.592 -253.511817 
L 137.592 -256.438065 
L 137.592 -259.364313 
L 137.592 -262.29056 
L 137.592 -265.216808 
L 137.592 -268.143056 
L 137.592 -271.069303 
L 137.592 -273.995551 
L 137.592 -276.921798 
L 137.592 -279.848046 
L 137.592 -282.774294 
L 137.592 -285.700541 
L 137.592 -288.626789 
L 137.592 -291.553037 
L 137.592 -294.479284 
L 137.592 -297.405532 
L 137.592 -300.331779 
L 137.592 -303.258027 
L 137.592 -306.184275 
L 137.592 -309.110522 
L 137.592 -312.03677 
L 137.592 -314.963018 
L 137.592 -317.889265 
L 137.591987 -320.815513 
L 137.591713 -323.741761 
L 137.588679 -326.668008 
L 137.571321 -329.594256 
L 137.522624 -332.520503 
L 137.466609 -335.446751 
L 137.469902 -338.372999 
L 137.527949 -341.299246 
L 137.573898 -344.225494 
L 137.610102 -344.225494 
L 137.610102 -344.225494 
L 137.656051 -341.299246 
L 137.714098 -338.372999 
L 137.717391 -335.446751 
L 137.661376 -332.520503 
L 137.612679 -329.594256 
L 137.595321 -326.668008 
L 137.592287 -323.741761 
L 137.592013 -320.815513 
L 137.592 -317.889265 
L 137.592 -314.963018 
L 137.592 -312.03677 
L 137.592 -309.110522 
L 137.592 -306.184275 
L 137.592 -303.258027 
L 137.592 -300.331779 
L 137.592 -297.405532 
L 137.592 -294.479284 
L 137.592 -291.553037 
L 137.592 -288.626789 
L 137.592 -285.700541 
L 137.592 -282.774294 
L 137.592 -279.848046 
L 137.592 -276.921798 
L 137.592 -273.995551 
L 137.592 -271.069303 
L 137.592 -268.143056 
L 137.592 -265.216808 
L 137.592 -262.29056 
L 137.592 -259.364313 
L 137.592 -256.438065 
L 137.592 -253.511817 
L 137.592 -250.58557 
L 137.592 -247.659322 
L 137.592 -244.733075 
L 137.592 -241.806827 
L 137.592 -238.880579 
L 137.592 -235.954332 
L 137.592 -233.028084 
L 137.592 -230.101836 
L 137.592 -227.175589 
L 137.592 -224.249341 
L 137.592 -221.323093 
L 137.592 -218.396846 
L 137.592 -215.470598 
L 137.592 -212.544351 
L 137.592 -209.618103 
L 137.592 -206.691855 
L 137.592 -203.765608 
L 137.592 -200.83936 
L 137.592 -197.913112 
L 137.592 -194.986865 
L 137.592 -192.060617 
L 137.592 -189.13437 
L 137.592 -186.208122 
L 137.592 -183.281874 
L 137.592 -180.355627 
L 137.592 -177.429379 
L 137.592 -174.503131 
L 137.592 -171.576884 
L 137.592 -168.650636 
L 137.592 -165.724389 
L 137.592 -162.798141 
L 137.592 -159.871893 
L 137.592 -156.945646 
L 137.592 -154.019398 
L 137.592 -151.09315 
L 137.592 -148.166903 
L 137.592 -145.240655 
L 137.592 -142.314407 
L 137.592 -139.38816 
L 137.592 -136.461912 
L 137.592 -133.535665 
L 137.592 -130.609417 
L 137.592 -127.683169 
L 137.592 -124.756922 
L 137.592 -121.830674 
L 137.592 -118.904426 
L 137.592 -115.978179 
L 137.592 -113.051931 
L 137.592 -110.125684 
L 137.592 -107.199436 
L 137.592 -104.273188 
L 137.592 -101.346941 
L 137.592 -98.420693 
L 137.592 -95.494445 
L 137.592 -92.568198 
L 137.592 -89.64195 
L 137.592004 -86.715702 
L 137.592132 -83.789455 
L 137.595026 -80.863207 
L 137.639694 -77.93696 
L 138.119159 -75.010712 
L 141.43175 -72.084464 
L 154.636675 -69.158217 
L 181.395122 -66.231969 
L 201.0096 -63.305721 
L 188.570584 -60.379474 
L 160.152554 -57.453226 
L 143.058896 -54.526979 
z
" style="stroke: #595959; stroke-width: 1.25"/>
    </defs>
    <g clip-path="url(#p446437da96)">
     <use xlink:href="#m9978b4fe94" x="0" y="432" style="fill: #72b6a1; stroke: #595959; stroke-width: 1.25"/>
    </g>
   </g>
   <g id="PolyCollection_2">
    <defs>
     <path id="m1e07ce4bb8" d="M 301.312407 -53.566364 
L 290.959593 -53.566364 
L 274.379591 -56.487285 
L 246.059044 -59.408207 
L 232.7184 -62.329129 
L 251.656292 -65.25005 
L 278.687922 -68.170972 
L 292.247202 -71.091893 
L 295.630193 -74.012815 
L 296.095937 -76.933737 
L 296.133967 -79.854658 
L 296.135932 -82.77558 
L 296.135999 -85.696502 
L 296.136 -88.617423 
L 296.136 -91.538345 
L 296.136 -94.459266 
L 296.136 -97.380188 
L 296.136 -100.30111 
L 296.136 -103.222031 
L 296.136 -106.142953 
L 296.136 -109.063875 
L 296.136 -111.984796 
L 296.136 -114.905718 
L 296.136 -117.826639 
L 296.136 -120.747561 
L 296.136 -123.668483 
L 296.136 -126.589404 
L 296.136 -129.510326 
L 296.136 -132.431248 
L 296.136 -135.352169 
L 296.136 -138.273091 
L 296.136 -141.194013 
L 296.136 -144.114934 
L 296.136 -147.035856 
L 296.136 -149.956777 
L 296.136 -152.877699 
L 296.136 -155.798621 
L 296.136 -158.719542 
L 296.136 -161.640464 
L 296.136 -164.561386 
L 296.136 -167.482307 
L 296.136 -170.403229 
L 296.136 -173.32415 
L 296.136 -176.245072 
L 296.136 -179.165994 
L 296.136 -182.086915 
L 296.136 -185.007837 
L 296.136 -187.928759 
L 296.136 -190.84968 
L 296.136 -193.770602 
L 296.136 -196.691523 
L 296.136 -199.612445 
L 296.136 -202.533367 
L 296.136 -205.454288 
L 296.136 -208.37521 
L 296.136 -211.296132 
L 296.136 -214.217053 
L 296.136 -217.137975 
L 296.136 -220.058896 
L 296.136 -222.979818 
L 296.136 -225.90074 
L 296.136 -228.821661 
L 296.136 -231.742583 
L 296.136 -234.663505 
L 296.136 -237.584426 
L 296.136 -240.505348 
L 296.136 -243.42627 
L 296.136 -246.347191 
L 296.136 -249.268113 
L 296.136 -252.189034 
L 296.136 -255.109956 
L 296.136 -258.030878 
L 296.136 -260.951799 
L 296.136 -263.872721 
L 296.136 -266.793643 
L 296.136 -269.714564 
L 296.136 -272.635486 
L 296.136 -275.556407 
L 296.136 -278.477329 
L 296.136 -281.398251 
L 296.136 -284.319172 
L 296.136 -287.240094 
L 296.136 -290.161016 
L 296.136 -293.081937 
L 296.136 -296.002859 
L 296.136 -298.92378 
L 296.136 -301.844702 
L 296.136 -304.765624 
L 296.136 -307.686545 
L 296.136 -310.607467 
L 296.136 -313.528389 
L 296.136 -316.44931 
L 296.135987 -319.370232 
L 296.135712 -322.291153 
L 296.132674 -325.212075 
L 296.115327 -328.132997 
L 296.066739 -331.053918 
L 296.010932 -333.97484 
L 296.01428 -336.895762 
L 296.072153 -339.816683 
L 296.11795 -342.737605 
L 296.15405 -342.737605 
L 296.15405 -342.737605 
L 296.199847 -339.816683 
L 296.25772 -336.895762 
L 296.261068 -333.97484 
L 296.205261 -331.053918 
L 296.156673 -328.132997 
L 296.139326 -325.212075 
L 296.136288 -322.291153 
L 296.136013 -319.370232 
L 296.136 -316.44931 
L 296.136 -313.528389 
L 296.136 -310.607467 
L 296.136 -307.686545 
L 296.136 -304.765624 
L 296.136 -301.844702 
L 296.136 -298.92378 
L 296.136 -296.002859 
L 296.136 -293.081937 
L 296.136 -290.161016 
L 296.136 -287.240094 
L 296.136 -284.319172 
L 296.136 -281.398251 
L 296.136 -278.477329 
L 296.136 -275.556407 
L 296.136 -272.635486 
L 296.136 -269.714564 
L 296.136 -266.793643 
L 296.136 -263.872721 
L 296.136 -260.951799 
L 296.136 -258.030878 
L 296.136 -255.109956 
L 296.136 -252.189034 
L 296.136 -249.268113 
L 296.136 -246.347191 
L 296.136 -243.42627 
L 296.136 -240.505348 
L 296.136 -237.584426 
L 296.136 -234.663505 
L 296.136 -231.742583 
L 296.136 -228.821661 
L 296.136 -225.90074 
L 296.136 -222.979818 
L 296.136 -220.058896 
L 296.136 -217.137975 
L 296.136 -214.217053 
L 296.136 -211.296132 
L 296.136 -208.37521 
L 296.136 -205.454288 
L 296.136 -202.533367 
L 296.136 -199.612445 
L 296.136 -196.691523 
L 296.136 -193.770602 
L 296.136 -190.84968 
L 296.136 -187.928759 
L 296.136 -185.007837 
L 296.136 -182.086915 
L 296.136 -179.165994 
L 296.136 -176.245072 
L 296.136 -173.32415 
L 296.136 -170.403229 
L 296.136 -167.482307 
L 296.136 -164.561386 
L 296.136 -161.640464 
L 296.136 -158.719542 
L 296.136 -155.798621 
L 296.136 -152.877699 
L 296.136 -149.956777 
L 296.136 -147.035856 
L 296.136 -144.114934 
L 296.136 -141.194013 
L 296.136 -138.273091 
L 296.136 -135.352169 
L 296.136 -132.431248 
L 296.136 -129.510326 
L 296.136 -126.589404 
L 296.136 -123.668483 
L 296.136 -120.747561 
L 296.136 -117.826639 
L 296.136 -114.905718 
L 296.136 -111.984796 
L 296.136 -109.063875 
L 296.136 -106.142953 
L 296.136 -103.222031 
L 296.136 -100.30111 
L 296.136 -97.380188 
L 296.136 -94.459266 
L 296.136 -91.538345 
L 296.136 -88.617423 
L 296.136001 -85.696502 
L 296.136068 -82.77558 
L 296.138033 -79.854658 
L 296.176063 -76.933737 
L 296.641807 -74.012815 
L 300.024798 -71.091893 
L 313.584078 -68.170972 
L 340.615708 -65.25005 
L 359.5536 -62.329129 
L 346.212956 -59.408207 
L 317.892409 -56.487285 
L 301.312407 -53.566364 
z
" style="stroke: #595959; stroke-width: 1.25"/>
    </defs>
    <g clip-path="url(#p446437da96)">
     <use xlink:href="#m1e07ce4bb8" x="0" y="432" style="fill: #e99675; stroke: #595959; stroke-width: 1.25"/>
    </g>
   </g>
   <g id="PolyCollection_3">
    <defs>
     <path id="m411b73bed2" d="M 459.710289 -78.761914 
L 449.649711 -78.761914 
L 435.719312 -81.882437 
L 410.665425 -85.002959 
L 391.2624 -88.123481 
L 397.135506 -91.244004 
L 420.761118 -94.364526 
L 440.218447 -97.485049 
L 447.127869 -100.605571 
L 445.765749 -103.726094 
L 443.271998 -106.846616 
L 444.417136 -109.967139 
L 448.528865 -113.087661 
L 452.229136 -116.208183 
L 454.034962 -119.328706 
L 454.569495 -122.449228 
L 454.667892 -125.569751 
L 454.679164 -128.690273 
L 454.679964 -131.810796 
L 454.679999 -134.931318 
L 454.68 -138.051841 
L 454.68 -141.172363 
L 454.68 -144.292886 
L 454.68 -147.413408 
L 454.68 -150.53393 
L 454.68 -153.654453 
L 454.68 -156.774975 
L 454.68 -159.895498 
L 454.68 -163.01602 
L 454.68 -166.136543 
L 454.68 -169.257065 
L 454.68 -172.377588 
L 454.68 -175.49811 
L 454.68 -178.618632 
L 454.68 -181.739155 
L 454.68 -184.859677 
L 454.68 -187.9802 
L 454.68 -191.100722 
L 454.68 -194.221245 
L 454.68 -197.341767 
L 454.68 -200.46229 
L 454.68 -203.582812 
L 454.68 -206.703334 
L 454.68 -209.823857 
L 454.68 -212.944379 
L 454.68 -216.064902 
L 454.68 -219.185424 
L 454.68 -222.305947 
L 454.68 -225.426469 
L 454.68 -228.546992 
L 454.68 -231.667514 
L 454.68 -234.788036 
L 454.68 -237.908559 
L 454.68 -241.029081 
L 454.68 -244.149604 
L 454.68 -247.270126 
L 454.68 -250.390649 
L 454.68 -253.511171 
L 454.68 -256.631694 
L 454.68 -259.752216 
L 454.68 -262.872738 
L 454.68 -265.993261 
L 454.68 -269.113783 
L 454.68 -272.234306 
L 454.68 -275.354828 
L 454.68 -278.475351 
L 454.68 -281.595873 
L 454.68 -284.716396 
L 454.68 -287.836918 
L 454.68 -290.957441 
L 454.68 -294.077963 
L 454.68 -297.198485 
L 454.68 -300.319008 
L 454.68 -303.43953 
L 454.68 -306.560053 
L 454.68 -309.680575 
L 454.68 -312.801098 
L 454.68 -315.92162 
L 454.68 -319.042143 
L 454.68 -322.162665 
L 454.68 -325.283187 
L 454.68 -328.40371 
L 454.68 -331.524232 
L 454.68 -334.644755 
L 454.68 -337.765277 
L 454.68 -340.8858 
L 454.68 -344.006322 
L 454.68 -347.126845 
L 454.68 -350.247367 
L 454.68 -353.367889 
L 454.68 -356.488412 
L 454.679988 -359.608934 
L 454.679797 -362.729457 
L 454.677893 -365.849979 
L 454.666734 -368.970502 
L 454.629377 -372.091024 
L 454.562927 -375.211547 
L 454.515921 -378.332069 
L 454.540642 -381.452591 
L 454.60827 -384.573114 
L 454.657625 -387.693636 
L 454.702375 -387.693636 
L 454.702375 -387.693636 
L 454.75173 -384.573114 
L 454.819358 -381.452591 
L 454.844079 -378.332069 
L 454.797073 -375.211547 
L 454.730623 -372.091024 
L 454.693266 -368.970502 
L 454.682107 -365.849979 
L 454.680203 -362.729457 
L 454.680012 -359.608934 
L 454.68 -356.488412 
L 454.68 -353.367889 
L 454.68 -350.247367 
L 454.68 -347.126845 
L 454.68 -344.006322 
L 454.68 -340.8858 
L 454.68 -337.765277 
L 454.68 -334.644755 
L 454.68 -331.524232 
L 454.68 -328.40371 
L 454.68 -325.283187 
L 454.68 -322.162665 
L 454.68 -319.042143 
L 454.68 -315.92162 
L 454.68 -312.801098 
L 454.68 -309.680575 
L 454.68 -306.560053 
L 454.68 -303.43953 
L 454.68 -300.319008 
L 454.68 -297.198485 
L 454.68 -294.077963 
L 454.68 -290.957441 
L 454.68 -287.836918 
L 454.68 -284.716396 
L 454.68 -281.595873 
L 454.68 -278.475351 
L 454.68 -275.354828 
L 454.68 -272.234306 
L 454.68 -269.113783 
L 454.68 -265.993261 
L 454.68 -262.872738 
L 454.68 -259.752216 
L 454.68 -256.631694 
L 454.68 -253.511171 
L 454.68 -250.390649 
L 454.68 -247.270126 
L 454.68 -244.149604 
L 454.68 -241.029081 
L 454.68 -237.908559 
L 454.68 -234.788036 
L 454.68 -231.667514 
L 454.68 -228.546992 
L 454.68 -225.426469 
L 454.68 -222.305947 
L 454.68 -219.185424 
L 454.68 -216.064902 
L 454.68 -212.944379 
L 454.68 -209.823857 
L 454.68 -206.703334 
L 454.68 -203.582812 
L 454.68 -200.46229 
L 454.68 -197.341767 
L 454.68 -194.221245 
L 454.68 -191.100722 
L 454.68 -187.9802 
L 454.68 -184.859677 
L 454.68 -181.739155 
L 454.68 -178.618632 
L 454.68 -175.49811 
L 454.68 -172.377588 
L 454.68 -169.257065 
L 454.68 -166.136543 
L 454.68 -163.01602 
L 454.68 -159.895498 
L 454.68 -156.774975 
L 454.68 -153.654453 
L 454.68 -150.53393 
L 454.68 -147.413408 
L 454.68 -144.292886 
L 454.68 -141.172363 
L 454.68 -138.051841 
L 454.680001 -134.931318 
L 454.680036 -131.810796 
L 454.680836 -128.690273 
L 454.692108 -125.569751 
L 454.790505 -122.449228 
L 455.325038 -119.328706 
L 457.130864 -116.208183 
L 460.831135 -113.087661 
L 464.942864 -109.967139 
L 466.088002 -106.846616 
L 463.594251 -103.726094 
L 462.232131 -100.605571 
L 469.141553 -97.485049 
L 488.598882 -94.364526 
L 512.224494 -91.244004 
L 518.0976 -88.123481 
L 498.694575 -85.002959 
L 473.640688 -81.882437 
L 459.710289 -78.761914 
z
" style="stroke: #595959; stroke-width: 1.25"/>
    </defs>
    <g clip-path="url(#p446437da96)">
     <use xlink:href="#m411b73bed2" x="0" y="432" style="fill: #95a3c3; stroke: #595959; stroke-width: 1.25"/>
    </g>
   </g>
   <g id="PolyCollection_4">
    <defs>
     <path id="mad74f842ed" d="M 617.740401 -59.049489 
L 608.707599 -59.049489 
L 593.837598 -62.051611 
L 566.828062 -65.053732 
L 549.8064 -68.055854 
L 561.528228 -71.057976 
L 586.564222 -74.060097 
L 604.142446 -77.062219 
L 611.202068 -80.064341 
L 612.944679 -83.066462 
L 613.201252 -86.068584 
L 613.222942 -89.070706 
L 613.223972 -92.072827 
L 613.224 -95.074949 
L 613.224 -98.077071 
L 613.224 -101.079192 
L 613.224 -104.081314 
L 613.224 -107.083436 
L 613.224 -110.085557 
L 613.224 -113.087679 
L 613.224 -116.089801 
L 613.224 -119.091922 
L 613.224 -122.094044 
L 613.224 -125.096166 
L 613.224 -128.098287 
L 613.224 -131.100409 
L 613.224 -134.102531 
L 613.224 -137.104652 
L 613.224 -140.106774 
L 613.224 -143.108896 
L 613.224 -146.111017 
L 613.224 -149.113139 
L 613.224 -152.115261 
L 613.224 -155.117382 
L 613.224 -158.119504 
L 613.224 -161.121626 
L 613.224 -164.123747 
L 613.224 -167.125869 
L 613.224 -170.127991 
L 613.224 -173.130112 
L 613.224 -176.132234 
L 613.224 -179.134356 
L 613.224 -182.136477 
L 613.224 -185.138599 
L 613.224 -188.140721 
L 613.224 -191.142842 
L 613.224 -194.144964 
L 613.224 -197.147086 
L 613.224 -200.149207 
L 613.224 -203.151329 
L 613.224 -206.153451 
L 613.224 -209.155572 
L 613.224 -212.157694 
L 613.224 -215.159816 
L 613.224 -218.161937 
L 613.224 -221.164059 
L 613.224 -224.166181 
L 613.224 -227.168302 
L 613.224 -230.170424 
L 613.224 -233.172546 
L 613.224 -236.174667 
L 613.224 -239.176789 
L 613.224 -242.178911 
L 613.224 -245.181032 
L 613.224 -248.183154 
L 613.224 -251.185276 
L 613.224 -254.187397 
L 613.224 -257.189519 
L 613.224 -260.191641 
L 613.224 -263.193762 
L 613.224 -266.195884 
L 613.224 -269.198006 
L 613.224 -272.200127 
L 613.224 -275.202249 
L 613.224 -278.204371 
L 613.224 -281.206492 
L 613.224 -284.208614 
L 613.224 -287.210736 
L 613.224 -290.212857 
L 613.224 -293.214979 
L 613.224 -296.217101 
L 613.224 -299.219222 
L 613.224 -302.221344 
L 613.224 -305.223466 
L 613.224 -308.225587 
L 613.224 -311.227709 
L 613.224 -314.229831 
L 613.224 -317.231952 
L 613.224 -320.234074 
L 613.224 -323.236196 
L 613.224 -326.238317 
L 613.224 -329.240439 
L 613.223984 -332.242561 
L 613.223672 -335.244682 
L 613.220292 -338.246804 
L 613.201314 -341.248926 
L 613.148915 -344.251047 
L 613.089554 -347.253169 
L 613.093759 -350.255291 
L 613.155742 -353.257412 
L 613.204646 -356.259534 
L 613.243354 -356.259534 
L 613.243354 -356.259534 
L 613.292258 -353.257412 
L 613.354241 -350.255291 
L 613.358446 -347.253169 
L 613.299085 -344.251047 
L 613.246686 -341.248926 
L 613.227708 -338.246804 
L 613.224328 -335.244682 
L 613.224016 -332.242561 
L 613.224 -329.240439 
L 613.224 -326.238317 
L 613.224 -323.236196 
L 613.224 -320.234074 
L 613.224 -317.231952 
L 613.224 -314.229831 
L 613.224 -311.227709 
L 613.224 -308.225587 
L 613.224 -305.223466 
L 613.224 -302.221344 
L 613.224 -299.219222 
L 613.224 -296.217101 
L 613.224 -293.214979 
L 613.224 -290.212857 
L 613.224 -287.210736 
L 613.224 -284.208614 
L 613.224 -281.206492 
L 613.224 -278.204371 
L 613.224 -275.202249 
L 613.224 -272.200127 
L 613.224 -269.198006 
L 613.224 -266.195884 
L 613.224 -263.193762 
L 613.224 -260.191641 
L 613.224 -257.189519 
L 613.224 -254.187397 
L 613.224 -251.185276 
L 613.224 -248.183154 
L 613.224 -245.181032 
L 613.224 -242.178911 
L 613.224 -239.176789 
L 613.224 -236.174667 
L 613.224 -233.172546 
L 613.224 -230.170424 
L 613.224 -227.168302 
L 613.224 -224.166181 
L 613.224 -221.164059 
L 613.224 -218.161937 
L 613.224 -215.159816 
L 613.224 -212.157694 
L 613.224 -209.155572 
L 613.224 -206.153451 
L 613.224 -203.151329 
L 613.224 -200.149207 
L 613.224 -197.147086 
L 613.224 -194.144964 
L 613.224 -191.142842 
L 613.224 -188.140721 
L 613.224 -185.138599 
L 613.224 -182.136477 
L 613.224 -179.134356 
L 613.224 -176.132234 
L 613.224 -173.130112 
L 613.224 -170.127991 
L 613.224 -167.125869 
L 613.224 -164.123747 
L 613.224 -161.121626 
L 613.224 -158.119504 
L 613.224 -155.117382 
L 613.224 -152.115261 
L 613.224 -149.113139 
L 613.224 -146.111017 
L 613.224 -143.108896 
L 613.224 -140.106774 
L 613.224 -137.104652 
L 613.224 -134.102531 
L 613.224 -131.100409 
L 613.224 -128.098287 
L 613.224 -125.096166 
L 613.224 -122.094044 
L 613.224 -119.091922 
L 613.224 -116.089801 
L 613.224 -113.087679 
L 613.224 -110.085557 
L 613.224 -107.083436 
L 613.224 -104.081314 
L 613.224 -101.079192 
L 613.224 -98.077071 
L 613.224 -95.074949 
L 613.224028 -92.072827 
L 613.225058 -89.070706 
L 613.246748 -86.068584 
L 613.503321 -83.066462 
L 615.245932 -80.064341 
L 622.305554 -77.062219 
L 639.883778 -74.060097 
L 664.919772 -71.057976 
L 676.6416 -68.055854 
L 659.619938 -65.053732 
L 632.610402 -62.051611 
L 617.740401 -59.049489 
z
" style="stroke: #595959; stroke-width: 1.25"/>
    </defs>
    <g clip-path="url(#p446437da96)">
     <use xlink:href="#mad74f842ed" x="0" y="432" style="fill: #db96c0; stroke: #595959; stroke-width: 1.25"/>
    </g>
   </g>
   <g id="PolyCollection_5">
    <defs>
     <path id="m8794b9de44" d="M 776.733131 -53.680439 
L 766.802869 -53.680439 
L 750.474214 -56.609656 
L 722.079783 -59.538873 
L 708.3504 -62.468089 
L 727.174165 -65.397306 
L 754.317307 -68.326522 
L 767.915534 -71.255739 
L 771.27983 -74.184956 
L 771.731811 -77.114172 
L 771.766406 -80.043389 
L 771.767958 -82.972606 
L 771.767999 -85.901822 
L 771.768 -88.831039 
L 771.768 -91.760256 
L 771.768 -94.689472 
L 771.768 -97.618689 
L 771.768 -100.547906 
L 771.768 -103.477122 
L 771.768 -106.406339 
L 771.768 -109.335556 
L 771.768 -112.264772 
L 771.768 -115.193989 
L 771.768 -118.123206 
L 771.768 -121.052422 
L 771.768 -123.981639 
L 771.768 -126.910856 
L 771.768 -129.840072 
L 771.768 -132.769289 
L 771.768 -135.698506 
L 771.768 -138.627722 
L 771.768 -141.556939 
L 771.768 -144.486156 
L 771.768 -147.415372 
L 771.768 -150.344589 
L 771.768 -153.273806 
L 771.768 -156.203022 
L 771.768 -159.132239 
L 771.768 -162.061455 
L 771.768 -164.990672 
L 771.768 -167.919889 
L 771.768 -170.849105 
L 771.768 -173.778322 
L 771.768 -176.707539 
L 771.768 -179.636755 
L 771.768 -182.565972 
L 771.768 -185.495189 
L 771.768 -188.424405 
L 771.768 -191.353622 
L 771.768 -194.282839 
L 771.768 -197.212055 
L 771.768 -200.141272 
L 771.768 -203.070489 
L 771.768 -205.999705 
L 771.768 -208.928922 
L 771.768 -211.858139 
L 771.768 -214.787355 
L 771.768 -217.716572 
L 771.768 -220.645789 
L 771.768 -223.575005 
L 771.768 -226.504222 
L 771.768 -229.433439 
L 771.768 -232.362655 
L 771.768 -235.291872 
L 771.768 -238.221089 
L 771.768 -241.150305 
L 771.768 -244.079522 
L 771.768 -247.008739 
L 771.768 -249.937955 
L 771.768 -252.867172 
L 771.768 -255.796388 
L 771.768 -258.725605 
L 771.768 -261.654822 
L 771.768 -264.584038 
L 771.768 -267.513255 
L 771.768 -270.442472 
L 771.768 -273.371688 
L 771.768 -276.300905 
L 771.768 -279.230122 
L 771.768 -282.159338 
L 771.768 -285.088555 
L 771.768 -288.017772 
L 771.768 -290.946988 
L 771.768 -293.876205 
L 771.768 -296.805422 
L 771.768 -299.734638 
L 771.768 -302.663855 
L 771.768 -305.593072 
L 771.768 -308.522288 
L 771.768 -311.451505 
L 771.768 -314.380722 
L 771.768 -317.309938 
L 771.767989 -320.239155 
L 771.767755 -323.168372 
L 771.765032 -326.097588 
L 771.748784 -329.026805 
L 771.701579 -331.956022 
L 771.645452 -334.885238 
L 771.647306 -337.814455 
L 771.704549 -340.743672 
L 771.750194 -343.672888 
L 771.785806 -343.672888 
L 771.785806 -343.672888 
L 771.831451 -340.743672 
L 771.888694 -337.814455 
L 771.890548 -334.885238 
L 771.834421 -331.956022 
L 771.787216 -329.026805 
L 771.770968 -326.097588 
L 771.768245 -323.168372 
L 771.768011 -320.239155 
L 771.768 -317.309938 
L 771.768 -314.380722 
L 771.768 -311.451505 
L 771.768 -308.522288 
L 771.768 -305.593072 
L 771.768 -302.663855 
L 771.768 -299.734638 
L 771.768 -296.805422 
L 771.768 -293.876205 
L 771.768 -290.946988 
L 771.768 -288.017772 
L 771.768 -285.088555 
L 771.768 -282.159338 
L 771.768 -279.230122 
L 771.768 -276.300905 
L 771.768 -273.371688 
L 771.768 -270.442472 
L 771.768 -267.513255 
L 771.768 -264.584038 
L 771.768 -261.654822 
L 771.768 -258.725605 
L 771.768 -255.796388 
L 771.768 -252.867172 
L 771.768 -249.937955 
L 771.768 -247.008739 
L 771.768 -244.079522 
L 771.768 -241.150305 
L 771.768 -238.221089 
L 771.768 -235.291872 
L 771.768 -232.362655 
L 771.768 -229.433439 
L 771.768 -226.504222 
L 771.768 -223.575005 
L 771.768 -220.645789 
L 771.768 -217.716572 
L 771.768 -214.787355 
L 771.768 -211.858139 
L 771.768 -208.928922 
L 771.768 -205.999705 
L 771.768 -203.070489 
L 771.768 -200.141272 
L 771.768 -197.212055 
L 771.768 -194.282839 
L 771.768 -191.353622 
L 771.768 -188.424405 
L 771.768 -185.495189 
L 771.768 -182.565972 
L 771.768 -179.636755 
L 771.768 -176.707539 
L 771.768 -173.778322 
L 771.768 -170.849105 
L 771.768 -167.919889 
L 771.768 -164.990672 
L 771.768 -162.061455 
L 771.768 -159.132239 
L 771.768 -156.203022 
L 771.768 -153.273806 
L 771.768 -150.344589 
L 771.768 -147.415372 
L 771.768 -144.486156 
L 771.768 -141.556939 
L 771.768 -138.627722 
L 771.768 -135.698506 
L 771.768 -132.769289 
L 771.768 -129.840072 
L 771.768 -126.910856 
L 771.768 -123.981639 
L 771.768 -121.052422 
L 771.768 -118.123206 
L 771.768 -115.193989 
L 771.768 -112.264772 
L 771.768 -109.335556 
L 771.768 -106.406339 
L 771.768 -103.477122 
L 771.768 -100.547906 
L 771.768 -97.618689 
L 771.768 -94.689472 
L 771.768 -91.760256 
L 771.768 -88.831039 
L 771.768001 -85.901822 
L 771.768042 -82.972606 
L 771.769594 -80.043389 
L 771.804189 -77.114172 
L 772.25617 -74.184956 
L 775.620466 -71.255739 
L 789.218693 -68.326522 
L 816.361835 -65.397306 
L 835.1856 -62.468089 
L 821.456217 -59.538873 
L 793.061786 -56.609656 
L 776.733131 -53.680439 
z
" style="stroke: #595959; stroke-width: 1.25"/>
    </defs>
    <g clip-path="url(#p446437da96)">
     <use xlink:href="#m8794b9de44" x="0" y="432" style="fill: #a2c865; stroke: #595959; stroke-width: 1.25"/>
    </g>
   </g>
   <g id="line2d_6">
    <path d="M 137.592 369.565093 
L 137.592 370.031475 
" clip-path="url(#p446437da96)" style="fill: none; stroke: #000000"/>
   </g>
   <g id="line2d_7">
    <path d="M 137.592 368.86552 
L 137.592 367.971622 
" clip-path="url(#p446437da96)" style="fill: none; stroke: #000000"/>
   </g>
   <g id="line2d_8">
    <path d="M 131.6466 370.031475 
L 143.5374 370.031475 
" clip-path="url(#p446437da96)" style="fill: none; stroke: #000000; stroke-linecap: round"/>
   </g>
   <g id="line2d_9">
    <path d="M 131.6466 367.971622 
L 143.5374 367.971622 
" clip-path="url(#p446437da96)" style="fill: none; stroke: #000000; stroke-linecap: round"/>
   </g>
   <g id="line2d_10">
    <path d="M 296.136 370.497856 
L 296.136 371.003103 
" clip-path="url(#p446437da96)" style="fill: none; stroke: #000000"/>
   </g>
   <g id="line2d_11">
    <path d="M 296.136 369.720553 
L 296.136 368.554599 
" clip-path="url(#p446437da96)" style="fill: none; stroke: #000000"/>
   </g>
   <g id="line2d_12">
    <path d="M 290.1906 371.003103 
L 302.0814 371.003103 
" clip-path="url(#p446437da96)" style="fill: none; stroke: #000000; stroke-linecap: round"/>
   </g>
   <g id="line2d_13">
    <path d="M 290.1906 368.554599 
L 302.0814 368.554599 
" clip-path="url(#p446437da96)" style="fill: none; stroke: #000000; stroke-linecap: round"/>
   </g>
   <g id="line2d_14">
    <path d="M 454.68 343.680908 
L 454.68 344.419346 
" clip-path="url(#p446437da96)" style="fill: none; stroke: #000000"/>
   </g>
   <g id="line2d_15">
    <path d="M 454.68 340.571697 
L 454.68 336.218801 
" clip-path="url(#p446437da96)" style="fill: none; stroke: #000000"/>
   </g>
   <g id="line2d_16">
    <path d="M 448.7346 344.419346 
L 460.6254 344.419346 
" clip-path="url(#p446437da96)" style="fill: none; stroke: #000000; stroke-linecap: round"/>
   </g>
   <g id="line2d_17">
    <path d="M 448.7346 336.218801 
L 460.6254 336.218801 
" clip-path="url(#p446437da96)" style="fill: none; stroke: #000000; stroke-linecap: round"/>
   </g>
   <g id="line2d_18">
    <path d="M 613.224 364.62922 
L 613.224 365.289927 
" clip-path="url(#p446437da96)" style="fill: none; stroke: #000000"/>
   </g>
   <g id="line2d_19">
    <path d="M 613.224 363.074614 
L 613.224 360.859301 
" clip-path="url(#p446437da96)" style="fill: none; stroke: #000000"/>
   </g>
   <g id="line2d_20">
    <path d="M 607.2786 365.289927 
L 619.1694 365.289927 
" clip-path="url(#p446437da96)" style="fill: none; stroke: #000000; stroke-linecap: round"/>
   </g>
   <g id="line2d_21">
    <path d="M 607.2786 360.859301 
L 619.1694 360.859301 
" clip-path="url(#p446437da96)" style="fill: none; stroke: #000000; stroke-linecap: round"/>
   </g>
   <g id="line2d_22">
    <path d="M 771.768 370.342396 
L 771.768 370.925373 
" clip-path="url(#p446437da96)" style="fill: none; stroke: #000000"/>
   </g>
   <g id="line2d_23">
    <path d="M 771.768 369.448497 
L 771.768 368.127083 
" clip-path="url(#p446437da96)" style="fill: none; stroke: #000000"/>
   </g>
   <g id="line2d_24">
    <path d="M 765.8226 370.925373 
L 777.7134 370.925373 
" clip-path="url(#p446437da96)" style="fill: none; stroke: #000000; stroke-linecap: round"/>
   </g>
   <g id="line2d_25">
    <path d="M 765.8226 368.127083 
L 777.7134 368.127083 
" clip-path="url(#p446437da96)" style="fill: none; stroke: #000000; stroke-linecap: round"/>
   </g>
   <g id="line2d_26">
    <path d="M 125.7012 369.293037 
L 149.4828 369.293037 
" clip-path="url(#p446437da96)" style="fill: none; stroke: #ff0000; stroke-width: 2"/>
   </g>
   <g id="line2d_27">
    <path d="M 284.2452 370.186935 
L 308.0268 370.186935 
" clip-path="url(#p446437da96)" style="fill: none; stroke: #ff0000; stroke-width: 2"/>
   </g>
   <g id="line2d_28">
    <path d="M 442.7892 343.175661 
L 466.5708 343.175661 
" clip-path="url(#p446437da96)" style="fill: none; stroke: #ff0000; stroke-width: 2"/>
   </g>
   <g id="line2d_29">
    <path d="M 601.3332 364.240568 
L 625.1148 364.240568 
" clip-path="url(#p446437da96)" style="fill: none; stroke: #ff0000; stroke-width: 2"/>
   </g>
   <g id="line2d_30">
    <path d="M 759.8772 370.031475 
L 783.6588 370.031475 
" clip-path="url(#p446437da96)" style="fill: none; stroke: #ff0000; stroke-width: 2"/>
   </g>
   <g id="patch_3">
    <path d="M 58.32 395.14 
L 58.32 27.6 
" style="fill: none; stroke: #cccccc; stroke-width: 1.25; stroke-linejoin: miter; stroke-linecap: square"/>
   </g>
   <g id="patch_4">
    <path d="M 851.04 395.14 
L 851.04 27.6 
" style="fill: none; stroke: #cccccc; stroke-width: 1.25; stroke-linejoin: miter; stroke-linecap: square"/>
   </g>
   <g id="patch_5">
    <path d="M 58.32 395.14 
L 851.04 395.14 
" style="fill: none; stroke: #cccccc; stroke-width: 1.25; stroke-linejoin: miter; stroke-linecap: square"/>
   </g>
   <g id="patch_6">
    <path d="M 58.32 27.6 
L 851.04 27.6 
" style="fill: none; stroke: #cccccc; stroke-width: 1.25; stroke-linejoin: miter; stroke-linecap: square"/>
   </g>
   <g id="text_12">
    <!-- Handshake duration on QUIC with ed25519 signature algorithm — Local YDE (35ms/2%) -->
    <g style="fill: #262626" transform="translate(189.567187 21.6) scale(0.12 -0.12)">
     <defs>
      <path id="DejaVuSans-51" d="M 2522 4238 
Q 1834 4238 1429 3725 
Q 1025 3213 1025 2328 
Q 1025 1447 1429 934 
Q 1834 422 2522 422 
Q 3209 422 3611 934 
Q 4013 1447 4013 2328 
Q 4013 3213 3611 3725 
Q 3209 4238 2522 4238 
z
M 3406 84 
L 4238 -825 
L 3475 -825 
L 2784 -78 
Q 2681 -84 2626 -87 
Q 2572 -91 2522 -91 
Q 1538 -91 948 567 
Q 359 1225 359 2328 
Q 359 3434 948 4092 
Q 1538 4750 2522 4750 
Q 3503 4750 4090 4092 
Q 4678 3434 4678 2328 
Q 4678 1516 4351 937 
Q 4025 359 3406 84 
z
" transform="scale(0.015625)"/>
      <path id="DejaVuSans-55" d="M 556 4666 
L 1191 4666 
L 1191 1831 
Q 1191 1081 1462 751 
Q 1734 422 2344 422 
Q 2950 422 3222 751 
Q 3494 1081 3494 1831 
L 3494 4666 
L 4128 4666 
L 4128 1753 
Q 4128 841 3676 375 
Q 3225 -91 2344 -91 
Q 1459 -91 1007 375 
Q 556 841 556 1753 
L 556 4666 
z
" transform="scale(0.015625)"/>
      <path id="DejaVuSans-49" d="M 628 4666 
L 1259 4666 
L 1259 0 
L 628 0 
L 628 4666 
z
" transform="scale(0.015625)"/>
      <path id="DejaVuSans-43" d="M 4122 4306 
L 4122 3641 
Q 3803 3938 3442 4084 
Q 3081 4231 2675 4231 
Q 1875 4231 1450 3742 
Q 1025 3253 1025 2328 
Q 1025 1406 1450 917 
Q 1875 428 2675 428 
Q 3081 428 3442 575 
Q 3803 722 4122 1019 
L 4122 359 
Q 3791 134 3420 21 
Q 3050 -91 2638 -91 
Q 1578 -91 968 557 
Q 359 1206 359 2328 
Q 359 3453 968 4101 
Q 1578 4750 2638 4750 
Q 3056 4750 3426 4639 
Q 3797 4528 4122 4306 
z
" transform="scale(0.015625)"/>
      <path id="DejaVuSans-77" d="M 269 3500 
L 844 3500 
L 1563 769 
L 2278 3500 
L 2956 3500 
L 3675 769 
L 4391 3500 
L 4966 3500 
L 4050 0 
L 3372 0 
L 2619 2869 
L 1863 0 
L 1184 0 
L 269 3500 
z
" transform="scale(0.015625)"/>
      <path id="DejaVuSans-67" d="M 2906 1791 
Q 2906 2416 2648 2759 
Q 2391 3103 1925 3103 
Q 1463 3103 1205 2759 
Q 947 2416 947 1791 
Q 947 1169 1205 825 
Q 1463 481 1925 481 
Q 2391 481 2648 825 
Q 2906 1169 2906 1791 
z
M 3481 434 
Q 3481 -459 3084 -895 
Q 2688 -1331 1869 -1331 
Q 1566 -1331 1297 -1286 
Q 1028 -1241 775 -1147 
L 775 -588 
Q 1028 -725 1275 -790 
Q 1522 -856 1778 -856 
Q 2344 -856 2625 -561 
Q 2906 -266 2906 331 
L 2906 616 
Q 2728 306 2450 153 
Q 2172 0 1784 0 
Q 1141 0 747 490 
Q 353 981 353 1791 
Q 353 2603 747 3093 
Q 1141 3584 1784 3584 
Q 2172 3584 2450 3431 
Q 2728 3278 2906 2969 
L 2906 3500 
L 3481 3500 
L 3481 434 
z
" transform="scale(0.015625)"/>
      <path id="DejaVuSans-2014" d="M 313 1978 
L 6088 1978 
L 6088 1528 
L 313 1528 
L 313 1978 
z
" transform="scale(0.015625)"/>
      <path id="DejaVuSans-4c" d="M 628 4666 
L 1259 4666 
L 1259 531 
L 3531 531 
L 3531 0 
L 628 0 
L 628 4666 
z
" transform="scale(0.015625)"/>
      <path id="DejaVuSans-63" d="M 3122 3366 
L 3122 2828 
Q 2878 2963 2633 3030 
Q 2388 3097 2138 3097 
Q 1578 3097 1268 2742 
Q 959 2388 959 1747 
Q 959 1106 1268 751 
Q 1578 397 2138 397 
Q 2388 397 2633 464 
Q 2878 531 3122 666 
L 3122 134 
Q 2881 22 2623 -34 
Q 2366 -91 2075 -91 
Q 1284 -91 818 406 
Q 353 903 353 1747 
Q 353 2603 823 3093 
Q 1294 3584 2113 3584 
Q 2378 3584 2631 3529 
Q 2884 3475 3122 3366 
z
" transform="scale(0.015625)"/>
      <path id="DejaVuSans-59" d="M -13 4666 
L 666 4666 
L 1959 2747 
L 3244 4666 
L 3922 4666 
L 2272 2222 
L 2272 0 
L 1638 0 
L 1638 2222 
L -13 4666 
z
" transform="scale(0.015625)"/>
      <path id="DejaVuSans-44" d="M 1259 4147 
L 1259 519 
L 2022 519 
Q 2988 519 3436 956 
Q 3884 1394 3884 2338 
Q 3884 3275 3436 3711 
Q 2988 4147 2022 4147 
L 1259 4147 
z
M 628 4666 
L 1925 4666 
Q 3281 4666 3915 4102 
Q 4550 3538 4550 2338 
Q 4550 1131 3912 565 
Q 3275 0 1925 0 
L 628 0 
L 628 4666 
z
" transform="scale(0.015625)"/>
      <path id="DejaVuSans-45" d="M 628 4666 
L 3578 4666 
L 3578 4134 
L 1259 4134 
L 1259 2753 
L 3481 2753 
L 3481 2222 
L 1259 2222 
L 1259 531 
L 3634 531 
L 3634 0 
L 628 0 
L 628 4666 
z
" transform="scale(0.015625)"/>
      <path id="DejaVuSans-33" d="M 2597 2516 
Q 3050 2419 3304 2112 
Q 3559 1806 3559 1356 
Q 3559 666 3084 287 
Q 2609 -91 1734 -91 
Q 1441 -91 1130 -33 
Q 819 25 488 141 
L 488 750 
Q 750 597 1062 519 
Q 1375 441 1716 441 
Q 2309 441 2620 675 
Q 2931 909 2931 1356 
Q 2931 1769 2642 2001 
Q 2353 2234 1838 2234 
L 1294 2234 
L 1294 2753 
L 1863 2753 
Q 2328 2753 2575 2939 
Q 2822 3125 2822 3475 
Q 2822 3834 2567 4026 
Q 2313 4219 1838 4219 
Q 1578 4219 1281 4162 
Q 984 4106 628 3988 
L 628 4550 
Q 988 4650 1302 4700 
Q 1616 4750 1894 4750 
Q 2613 4750 3031 4423 
Q 3450 4097 3450 3541 
Q 3450 3153 3228 2886 
Q 3006 2619 2597 2516 
z
" transform="scale(0.015625)"/>
      <path id="DejaVuSans-2f" d="M 1625 4666 
L 2156 4666 
L 531 -594 
L 0 -594 
L 1625 4666 
z
" transform="scale(0.015625)"/>
      <path id="DejaVuSans-25" d="M 4653 2053 
Q 4381 2053 4226 1822 
Q 4072 1591 4072 1178 
Q 4072 772 4226 539 
Q 4381 306 4653 306 
Q 4919 306 5073 539 
Q 5228 772 5228 1178 
Q 5228 1588 5073 1820 
Q 4919 2053 4653 2053 
z
M 4653 2450 
Q 5147 2450 5437 2106 
Q 5728 1763 5728 1178 
Q 5728 594 5436 251 
Q 5144 -91 4653 -91 
Q 4153 -91 3862 251 
Q 3572 594 3572 1178 
Q 3572 1766 3864 2108 
Q 4156 2450 4653 2450 
z
M 1428 4353 
Q 1159 4353 1004 4120 
Q 850 3888 850 3481 
Q 850 3069 1003 2837 
Q 1156 2606 1428 2606 
Q 1700 2606 1854 2837 
Q 2009 3069 2009 3481 
Q 2009 3884 1853 4118 
Q 1697 4353 1428 4353 
z
M 4250 4750 
L 4750 4750 
L 1831 -91 
L 1331 -91 
L 4250 4750 
z
M 1428 4750 
Q 1922 4750 2215 4408 
Q 2509 4066 2509 3481 
Q 2509 2891 2217 2550 
Q 1925 2209 1428 2209 
Q 931 2209 642 2551 
Q 353 2894 353 3481 
Q 353 4063 643 4406 
Q 934 4750 1428 4750 
z
" transform="scale(0.015625)"/>
     </defs>
     <use xlink:href="#DejaVuSans-48"/>
     <use xlink:href="#DejaVuSans-61" x="75.195312"/>
     <use xlink:href="#DejaVuSans-6e" x="136.474609"/>
     <use xlink:href="#DejaVuSans-64" x="199.853516"/>
     <use xlink:href="#DejaVuSans-73" x="263.330078"/>
     <use xlink:href="#DejaVuSans-68" x="315.429688"/>
     <use xlink:href="#DejaVuSans-61" x="378.808594"/>
     <use xlink:href="#DejaVuSans-6b" x="440.087891"/>
     <use xlink:href="#DejaVuSans-65" x="494.373047"/>
     <use xlink:href="#DejaVuSans-20" x="555.896484"/>
     <use xlink:href="#DejaVuSans-64" x="587.683594"/>
     <use xlink:href="#DejaVuSans-75" x="651.160156"/>
     <use xlink:href="#DejaVuSans-72" x="714.539062"/>
     <use xlink:href="#DejaVuSans-61" x="755.652344"/>
     <use xlink:href="#DejaVuSans-74" x="816.931641"/>
     <use xlink:href="#DejaVuSans-69" x="856.140625"/>
     <use xlink:href="#DejaVuSans-6f" x="883.923828"/>
     <use xlink:href="#DejaVuSans-6e" x="945.105469"/>
     <use xlink:href="#DejaVuSans-20" x="1008.484375"/>
     <use xlink:href="#DejaVuSans-6f" x="1040.271484"/>
     <use xlink:href="#DejaVuSans-6e" x="1101.453125"/>
     <use xlink:href="#DejaVuSans-20" x="1164.832031"/>
     <use xlink:href="#DejaVuSans-51" x="1196.619141"/>
     <use xlink:href="#DejaVuSans-55" x="1275.330078"/>
     <use xlink:href="#DejaVuSans-49" x="1348.523438"/>
     <use xlink:href="#DejaVuSans-43" x="1378.015625"/>
     <use xlink:href="#DejaVuSans-20" x="1447.839844"/>
     <use xlink:href="#DejaVuSans-77" x="1479.626953"/>
     <use xlink:href="#DejaVuSans-69" x="1561.414062"/>
     <use xlink:href="#DejaVuSans-74" x="1589.197266"/>
     <use xlink:href="#DejaVuSans-68" x="1628.40625"/>
     <use xlink:href="#DejaVuSans-20" x="1691.785156"/>
     <use xlink:href="#DejaVuSans-65" x="1723.572266"/>
     <use xlink:href="#DejaVuSans-64" x="1785.095703"/>
     <use xlink:href="#DejaVuSans-32" x="1848.572266"/>
     <use xlink:href="#DejaVuSans-35" x="1912.195312"/>
     <use xlink:href="#DejaVuSans-35" x="1975.818359"/>
     <use xlink:href="#DejaVuSans-31" x="2039.441406"/>
     <use xlink:href="#DejaVuSans-39" x="2103.064453"/>
     <use xlink:href="#DejaVuSans-20" x="2166.6875"/>
     <use xlink:href="#DejaVuSans-73" x="2198.474609"/>
     <use xlink:href="#DejaVuSans-69" x="2250.574219"/>
     <use xlink:href="#DejaVuSans-67" x="2278.357422"/>
     <use xlink:href="#DejaVuSans-6e" x="2341.833984"/>
     <use xlink:href="#DejaVuSans-61" x="2405.212891"/>
     <use xlink:href="#DejaVuSans-74" x="2466.492188"/>
     <use xlink:href="#DejaVuSans-75" x="2505.701172"/>
     <use xlink:href="#DejaVuSans-72" x="2569.080078"/>
     <use xlink:href="#DejaVuSans-65" x="2607.943359"/>
     <use xlink:href="#DejaVuSans-20" x="2669.466797"/>
     <use xlink:href="#DejaVuSans-61" x="2701.253906"/>
     <use xlink:href="#DejaVuSans-6c" x="2762.533203"/>
     <use xlink:href="#DejaVuSans-67" x="2790.316406"/>
     <use xlink:href="#DejaVuSans-6f" x="2853.792969"/>
     <use xlink:href="#DejaVuSans-72" x="2914.974609"/>
     <use xlink:href="#DejaVuSans-69" x="2956.087891"/>
     <use xlink:href="#DejaVuSans-74" x="2983.871094"/>
     <use xlink:href="#DejaVuSans-68" x="3023.080078"/>
     <use xlink:href="#DejaVuSans-6d" x="3086.458984"/>
     <use xlink:href="#DejaVuSans-20" x="3183.871094"/>
     <use xlink:href="#DejaVuSans-2014" x="3215.658203"/>
     <use xlink:href="#DejaVuSans-20" x="3315.658203"/>
     <use xlink:href="#DejaVuSans-4c" x="3347.445312"/>
     <use xlink:href="#DejaVuSans-6f" x="3401.408203"/>
     <use xlink:href="#DejaVuSans-63" x="3462.589844"/>
     <use xlink:href="#DejaVuSans-61" x="3517.570312"/>
     <use xlink:href="#DejaVuSans-6c" x="3578.849609"/>
     <use xlink:href="#DejaVuSans-20" x="3606.632812"/>
     <use xlink:href="#DejaVuSans-59" x="3638.419922"/>
     <use xlink:href="#DejaVuSans-44" x="3699.503906"/>
     <use xlink:href="#DejaVuSans-45" x="3776.505859"/>
     <use xlink:href="#DejaVuSans-20" x="3839.689453"/>
     <use xlink:href="#DejaVuSans-28" x="3871.476562"/>
     <use xlink:href="#DejaVuSans-33" x="3910.490234"/>
     <use xlink:href="#DejaVuSans-35" x="3974.113281"/>
     <use xlink:href="#DejaVuSans-6d" x="4037.736328"/>
     <use xlink:href="#DejaVuSans-73" x="4135.148438"/>
     <use xlink:href="#DejaVuSans-2f" x="4187.248047"/>
     <use xlink:href="#DejaVuSans-32" x="4220.939453"/>
     <use xlink:href="#DejaVuSans-25" x="4284.5625"/>
     <use xlink:href="#DejaVuSans-29" x="4379.582031"/>
    </g>
   </g>
  </g>
 </g>
 <defs>
  <clipPath id="p446437da96">
   <rect x="58.32" y="27.6" width="792.72" height="367.54"/>
  </clipPath>
 </defs>
</svg>
