<?xml version="1.0" encoding="utf-8" standalone="no"?>
<!DOCTYPE svg PUBLIC "-//W3C//DTD SVG 1.1//EN"
  "http://www.w3.org/Graphics/SVG/1.1/DTD/svg11.dtd">
<svg xmlns:xlink="http://www.w3.org/1999/xlink" width="864pt" height="432pt" viewBox="0 0 864 432" xmlns="http://www.w3.org/2000/svg" version="1.1">
 <metadata>
  <rdf:RDF xmlns:dc="http://purl.org/dc/elements/1.1/" xmlns:cc="http://creativecommons.org/ns#" xmlns:rdf="http://www.w3.org/1999/02/22-rdf-syntax-ns#">
   <cc:Work>
    <dc:type rdf:resource="http://purl.org/dc/dcmitype/StillImage"/>
    <dc:date>2026-03-21T13:58:49.854543</dc:date>
    <dc:format>image/svg+xml</dc:format>
    <dc:creator>
     <cc:Agent>
      <dc:title>Matplotlib v3.6.3, https://matplotlib.org/</dc:title>
     </cc:Agent>
    </dc:creator>
   </cc:Work>
  </rdf:RDF>
 </metadata>
 <defs>
  <style type="text/css">*{stroke-linejoin: round; stroke-linecap: butt}</style>
 </defs>
 <g id="figure_1">
  <g id="patch_1">
   <path d="M 0 432 
L 864 432 
L 864 0 
L 0 0 
z
" style="fill: #ffffff"/>
  </g>
  <g id="axes_1">
   <g id="patch_2">
    <path d="M 58.32 395.14 
L 851.04 395.14 
L 851.04 27.6 
L 58.32 27.6 
z
" style="fill: #ffffff"/>
   </g>
   <g id="matplotlib.axis_1">
    <g id="xtick_1">
     <g id="text_1">
      <!-- P-256 -->
      <g style="fill: #262626" transform="translate(117.642 415.277812) scale(0.14 -0.14)">
       <defs>
        <path id="DejaVuSans-50" d="M 1259 4147 
L 1259 2394 
L 2053 2394 
Q 2494 2394 2734 2622 
Q 2975 2850 2975 3272 
Q 2975 3691 2734 3919 
Q 2494 4147 2053 4147 
L 1259 4147 
z
M 628 4666 
L 2053 4666 
Q 2838 4666 3239 4311 
Q 3641 3956 3641 3272 
Q 3641 2581 3239 2228 
Q 2838 1875 2053 1875 
L 1259 1875 
L 1259 0 
L 628 0 
L 628 4666 
z
" transform="scale(0.015625)"/>
        <path id="DejaVuSans-2d" d="M 313 2009 
L 1997 2009 
L 1997 1497 
L 313 1497 
L 313 2009 
z
" transform="scale(0.015625)"/>
        <path id="DejaVuSans-32" d="M 1228 531 
L 3431 531 
L 3431 0 
L 469 0 
L 469 531 
Q 828 903 1448 1529 
Q 2069 2156 2228 2338 
Q 2531 2678 2651 2914 
Q 2772 3150 2772 3378 
Q 2772 3750 2511 3984 
Q 2250 4219 1831 4219 
Q 1534 4219 1204 4116 
Q 875 4013 500 3803 
L 500 4441 
Q 881 4594 1212 4672 
Q 1544 4750 1819 4750 
Q 2544 4750 2975 4387 
Q 3406 4025 3406 3419 
Q 3406 3131 3298 2873 
Q 3191 2616 2906 2266 
Q 2828 2175 2409 1742 
Q 1991 1309 1228 531 
z
" transform="scale(0.015625)"/>
        <path id="DejaVuSans-35" d="M 691 4666 
L 3169 4666 
L 3169 4134 
L 1269 4134 
L 1269 2991 
Q 1406 3038 1543 3061 
Q 1681 3084 1819 3084 
Q 2600 3084 3056 2656 
Q 3513 2228 3513 1497 
Q 3513 744 3044 326 
Q 2575 -91 1722 -91 
Q 1428 -91 1123 -41 
Q 819 9 494 109 
L 494 744 
Q 775 591 1075 516 
Q 1375 441 1709 441 
Q 2250 441 2565 725 
Q 2881 1009 2881 1497 
Q 2881 1984 2565 2268 
Q 2250 2553 1709 2553 
Q 1456 2553 1204 2497 
Q 953 2441 691 2322 
L 691 4666 
z
" transform="scale(0.015625)"/>
        <path id="DejaVuSans-36" d="M 2113 2584 
Q 1688 2584 1439 2293 
Q 1191 2003 1191 1497 
Q 1191 994 1439 701 
Q 1688 409 2113 409 
Q 2538 409 2786 701 
Q 3034 994 3034 1497 
Q 3034 2003 2786 2293 
Q 2538 2584 2113 2584 
z
M 3366 4563 
L 3366 3988 
Q 3128 4100 2886 4159 
Q 2644 4219 2406 4219 
Q 1781 4219 1451 3797 
Q 1122 3375 1075 2522 
Q 1259 2794 1537 2939 
Q 1816 3084 2150 3084 
Q 2853 3084 3261 2657 
Q 3669 2231 3669 1497 
Q 3669 778 3244 343 
Q 2819 -91 2113 -91 
Q 1303 -91 875 529 
Q 447 1150 447 2328 
Q 447 3434 972 4092 
Q 1497 4750 2381 4750 
Q 2619 4750 2861 4703 
Q 3103 4656 3366 4563 
z
" transform="scale(0.015625)"/>
       </defs>
       <use xlink:href="#DejaVuSans-50"/>
       <use xlink:href="#DejaVuSans-2d" x="58.052734"/>
       <use xlink:href="#DejaVuSans-32" x="94.136719"/>
       <use xlink:href="#DejaVuSans-35" x="157.759766"/>
       <use xlink:href="#DejaVuSans-36" x="221.382812"/>
      </g>
     </g>
    </g>
    <g id="xtick_2">
     <g id="text_2">
      <!-- x25519 -->
      <g style="fill: #262626" transform="translate(269.724125 415.277812) scale(0.14 -0.14)">
       <defs>
        <path id="DejaVuSans-78" d="M 3513 3500 
L 2247 1797 
L 3578 0 
L 2900 0 
L 1881 1375 
L 863 0 
L 184 0 
L 1544 1831 
L 300 3500 
L 978 3500 
L 1906 2253 
L 2834 3500 
L 3513 3500 
z
" transform="scale(0.015625)"/>
        <path id="DejaVuSans-31" d="M 794 531 
L 1825 531 
L 1825 4091 
L 703 3866 
L 703 4441 
L 1819 4666 
L 2450 4666 
L 2450 531 
L 3481 531 
L 3481 0 
L 794 0 
L 794 531 
z
" transform="scale(0.015625)"/>
        <path id="DejaVuSans-39" d="M 703 97 
L 703 672 
Q 941 559 1184 500 
Q 1428 441 1663 441 
Q 2288 441 2617 861 
Q 2947 1281 2994 2138 
Q 2813 1869 2534 1725 
Q 2256 1581 1919 1581 
Q 1219 1581 811 2004 
Q 403 2428 403 3163 
Q 403 3881 828 4315 
Q 1253 4750 1959 4750 
Q 2769 4750 3195 4129 
Q 3622 3509 3622 2328 
Q 3622 1225 3098 567 
Q 2575 -91 1691 -91 
Q 1453 -91 1209 -44 
Q 966 3 703 97 
z
M 1959 2075 
Q 2384 2075 2632 2365 
Q 2881 2656 2881 3163 
Q 2881 3666 2632 3958 
Q 2384 4250 1959 4250 
Q 1534 4250 1286 3958 
Q 1038 3666 1038 3163 
Q 1038 2656 1286 2365 
Q 1534 2075 1959 2075 
z
" transform="scale(0.015625)"/>
       </defs>
       <use xlink:href="#DejaVuSans-78"/>
       <use xlink:href="#DejaVuSans-32" x="59.179688"/>
       <use xlink:href="#DejaVuSans-35" x="122.802734"/>
       <use xlink:href="#DejaVuSans-35" x="186.425781"/>
       <use xlink:href="#DejaVuSans-31" x="250.048828"/>
       <use xlink:href="#DejaVuSans-39" x="313.671875"/>
      </g>
     </g>
    </g>
    <g id="xtick_3">
     <g id="text_3">
      <!-- p256_mlkem512 -->
      <g style="fill: #262626" transform="translate(396.325156 415.277812) scale(0.14 -0.14)">
       <defs>
        <path id="DejaVuSans-70" d="M 1159 525 
L 1159 -1331 
L 581 -1331 
L 581 3500 
L 1159 3500 
L 1159 2969 
Q 1341 3281 1617 3432 
Q 1894 3584 2278 3584 
Q 2916 3584 3314 3078 
Q 3713 2572 3713 1747 
Q 3713 922 3314 415 
Q 2916 -91 2278 -91 
Q 1894 -91 1617 61 
Q 1341 213 1159 525 
z
M 3116 1747 
Q 3116 2381 2855 2742 
Q 2594 3103 2138 3103 
Q 1681 3103 1420 2742 
Q 1159 2381 1159 1747 
Q 1159 1113 1420 752 
Q 1681 391 2138 391 
Q 2594 391 2855 752 
Q 3116 1113 3116 1747 
z
" transform="scale(0.015625)"/>
        <path id="DejaVuSans-5f" d="M 3263 -1063 
L 3263 -1509 
L -63 -1509 
L -63 -1063 
L 3263 -1063 
z
" transform="scale(0.015625)"/>
        <path id="DejaVuSans-6d" d="M 3328 2828 
Q 3544 3216 3844 3400 
Q 4144 3584 4550 3584 
Q 5097 3584 5394 3201 
Q 5691 2819 5691 2113 
L 5691 0 
L 5113 0 
L 5113 2094 
Q 5113 2597 4934 2840 
Q 4756 3084 4391 3084 
Q 3944 3084 3684 2787 
Q 3425 2491 3425 1978 
L 3425 0 
L 2847 0 
L 2847 2094 
Q 2847 2600 2669 2842 
Q 2491 3084 2119 3084 
Q 1678 3084 1418 2786 
Q 1159 2488 1159 1978 
L 1159 0 
L 581 0 
L 581 3500 
L 1159 3500 
L 1159 2956 
Q 1356 3278 1631 3431 
Q 1906 3584 2284 3584 
Q 2666 3584 2933 3390 
Q 3200 3197 3328 2828 
z
" transform="scale(0.015625)"/>
        <path id="DejaVuSans-6c" d="M 603 4863 
L 1178 4863 
L 1178 0 
L 603 0 
L 603 4863 
z
" transform="scale(0.015625)"/>
        <path id="DejaVuSans-6b" d="M 581 4863 
L 1159 4863 
L 1159 1991 
L 2875 3500 
L 3609 3500 
L 1753 1863 
L 3688 0 
L 2938 0 
L 1159 1709 
L 1159 0 
L 581 0 
L 581 4863 
z
" transform="scale(0.015625)"/>
        <path id="DejaVuSans-65" d="M 3597 1894 
L 3597 1613 
L 953 1613 
Q 991 1019 1311 708 
Q 1631 397 2203 397 
Q 2534 397 2845 478 
Q 3156 559 3463 722 
L 3463 178 
Q 3153 47 2828 -22 
Q 2503 -91 2169 -91 
Q 1331 -91 842 396 
Q 353 884 353 1716 
Q 353 2575 817 3079 
Q 1281 3584 2069 3584 
Q 2775 3584 3186 3129 
Q 3597 2675 3597 1894 
z
M 3022 2063 
Q 3016 2534 2758 2815 
Q 2500 3097 2075 3097 
Q 1594 3097 1305 2825 
Q 1016 2553 972 2059 
L 3022 2063 
z
" transform="scale(0.015625)"/>
       </defs>
       <use xlink:href="#DejaVuSans-70"/>
       <use xlink:href="#DejaVuSans-32" x="63.476562"/>
       <use xlink:href="#DejaVuSans-35" x="127.099609"/>
       <use xlink:href="#DejaVuSans-36" x="190.722656"/>
       <use xlink:href="#DejaVuSans-5f" x="254.345703"/>
       <use xlink:href="#DejaVuSans-6d" x="304.345703"/>
       <use xlink:href="#DejaVuSans-6c" x="401.757812"/>
       <use xlink:href="#DejaVuSans-6b" x="429.541016"/>
       <use xlink:href="#DejaVuSans-65" x="483.826172"/>
       <use xlink:href="#DejaVuSans-6d" x="545.349609"/>
       <use xlink:href="#DejaVuSans-35" x="642.761719"/>
       <use xlink:href="#DejaVuSans-31" x="706.384766"/>
       <use xlink:href="#DejaVuSans-32" x="770.007812"/>
      </g>
     </g>
    </g>
    <g id="xtick_4">
     <g id="text_4">
      <!-- x25519_mlkem512 -->
      <g style="fill: #262626" transform="translate(546.262437 415.277812) scale(0.14 -0.14)">
       <use xlink:href="#DejaVuSans-78"/>
       <use xlink:href="#DejaVuSans-32" x="59.179688"/>
       <use xlink:href="#DejaVuSans-35" x="122.802734"/>
       <use xlink:href="#DejaVuSans-35" x="186.425781"/>
       <use xlink:href="#DejaVuSans-31" x="250.048828"/>
       <use xlink:href="#DejaVuSans-39" x="313.671875"/>
       <use xlink:href="#DejaVuSans-5f" x="377.294922"/>
       <use xlink:href="#DejaVuSans-6d" x="427.294922"/>
       <use xlink:href="#DejaVuSans-6c" x="524.707031"/>
       <use xlink:href="#DejaVuSans-6b" x="552.490234"/>
       <use xlink:href="#DejaVuSans-65" x="606.775391"/>
       <use xlink:href="#DejaVuSans-6d" x="668.298828"/>
       <use xlink:href="#DejaVuSans-35" x="765.710938"/>
       <use xlink:href="#DejaVuSans-31" x="829.333984"/>
       <use xlink:href="#DejaVuSans-32" x="892.957031"/>
      </g>
     </g>
    </g>
    <g id="xtick_5">
     <g id="text_5">
      <!-- mlkem512 -->
      <g style="fill: #262626" transform="translate(734.718312 415.277812) scale(0.14 -0.14)">
       <use xlink:href="#DejaVuSans-6d"/>
       <use xlink:href="#DejaVuSans-6c" x="97.412109"/>
       <use xlink:href="#DejaVuSans-6b" x="125.195312"/>
       <use xlink:href="#DejaVuSans-65" x="179.480469"/>
       <use xlink:href="#DejaVuSans-6d" x="241.003906"/>
       <use xlink:href="#DejaVuSans-35" x="338.416016"/>
       <use xlink:href="#DejaVuSans-31" x="402.039062"/>
       <use xlink:href="#DejaVuSans-32" x="465.662109"/>
      </g>
     </g>
    </g>
   </g>
   <g id="matplotlib.axis_2">
    <g id="ytick_1">
     <g id="line2d_1">
      <path d="M 58.32 371.149076 
L 851.04 371.149076 
" clip-path="url(#pb3dcf7b39c)" style="fill: none; stroke: #cccccc; stroke-linecap: round"/>
     </g>
     <g id="text_6">
      <!-- 400 -->
      <g style="fill: #262626" transform="translate(27.82375 375.328217) scale(0.11 -0.11)">
       <defs>
        <path id="DejaVuSans-34" d="M 2419 4116 
L 825 1625 
L 2419 1625 
L 2419 4116 
z
M 2253 4666 
L 3047 4666 
L 3047 1625 
L 3713 1625 
L 3713 1100 
L 3047 1100 
L 3047 0 
L 2419 0 
L 2419 1100 
L 313 1100 
L 313 1709 
L 2253 4666 
z
" transform="scale(0.015625)"/>
        <path id="DejaVuSans-30" d="M 2034 4250 
Q 1547 4250 1301 3770 
Q 1056 3291 1056 2328 
Q 1056 1369 1301 889 
Q 1547 409 2034 409 
Q 2525 409 2770 889 
Q 3016 1369 3016 2328 
Q 3016 3291 2770 3770 
Q 2525 4250 2034 4250 
z
M 2034 4750 
Q 2819 4750 3233 4129 
Q 3647 3509 3647 2328 
Q 3647 1150 3233 529 
Q 2819 -91 2034 -91 
Q 1250 -91 836 529 
Q 422 1150 422 2328 
Q 422 3509 836 4129 
Q 1250 4750 2034 4750 
z
" transform="scale(0.015625)"/>
       </defs>
       <use xlink:href="#DejaVuSans-34"/>
       <use xlink:href="#DejaVuSans-30" x="63.623047"/>
       <use xlink:href="#DejaVuSans-30" x="127.246094"/>
      </g>
     </g>
    </g>
    <g id="ytick_2">
     <g id="line2d_2">
      <path d="M 58.32 292.645153 
L 851.04 292.645153 
" clip-path="url(#pb3dcf7b39c)" style="fill: none; stroke: #cccccc; stroke-linecap: round"/>
     </g>
     <g id="text_7">
      <!-- 500 -->
      <g style="fill: #262626" transform="translate(27.82375 296.824294) scale(0.11 -0.11)">
       <use xlink:href="#DejaVuSans-35"/>
       <use xlink:href="#DejaVuSans-30" x="63.623047"/>
       <use xlink:href="#DejaVuSans-30" x="127.246094"/>
      </g>
     </g>
    </g>
    <g id="ytick_3">
     <g id="line2d_3">
      <path d="M 58.32 214.141231 
L 851.04 214.141231 
" clip-path="url(#pb3dcf7b39c)" style="fill: none; stroke: #cccccc; stroke-linecap: round"/>
     </g>
     <g id="text_8">
      <!-- 600 -->
      <g style="fill: #262626" transform="translate(27.82375 218.320371) scale(0.11 -0.11)">
       <use xlink:href="#DejaVuSans-36"/>
       <use xlink:href="#DejaVuSans-30" x="63.623047"/>
       <use xlink:href="#DejaVuSans-30" x="127.246094"/>
      </g>
     </g>
    </g>
    <g id="ytick_4">
     <g id="line2d_4">
      <path d="M 58.32 135.637308 
L 851.04 135.637308 
" clip-path="url(#pb3dcf7b39c)" style="fill: none; stroke: #cccccc; stroke-linecap: round"/>
     </g>
     <g id="text_9">
      <!-- 700 -->
      <g style="fill: #262626" transform="translate(27.82375 139.816448) scale(0.11 -0.11)">
       <defs>
        <path id="DejaVuSans-37" d="M 525 4666 
L 3525 4666 
L 3525 4397 
L 1831 0 
L 1172 0 
L 2766 4134 
L 525 4134 
L 525 4666 
z
" transform="scale(0.015625)"/>
       </defs>
       <use xlink:href="#DejaVuSans-37"/>
       <use xlink:href="#DejaVuSans-30" x="63.623047"/>
       <use xlink:href="#DejaVuSans-30" x="127.246094"/>
      </g>
     </g>
    </g>
    <g id="ytick_5">
     <g id="line2d_5">
      <path d="M 58.32 57.133385 
L 851.04 57.133385 
" clip-path="url(#pb3dcf7b39c)" style="fill: none; stroke: #cccccc; stroke-linecap: round"/>
     </g>
     <g id="text_10">
      <!-- 800 -->
      <g style="fill: #262626" transform="translate(27.82375 61.312526) scale(0.11 -0.11)">
       <defs>
        <path id="DejaVuSans-38" d="M 2034 2216 
Q 1584 2216 1326 1975 
Q 1069 1734 1069 1313 
Q 1069 891 1326 650 
Q 1584 409 2034 409 
Q 2484 409 2743 651 
Q 3003 894 3003 1313 
Q 3003 1734 2745 1975 
Q 2488 2216 2034 2216 
z
M 1403 2484 
Q 997 2584 770 2862 
Q 544 3141 544 3541 
Q 544 4100 942 4425 
Q 1341 4750 2034 4750 
Q 2731 4750 3128 4425 
Q 3525 4100 3525 3541 
Q 3525 3141 3298 2862 
Q 3072 2584 2669 2484 
Q 3125 2378 3379 2068 
Q 3634 1759 3634 1313 
Q 3634 634 3220 271 
Q 2806 -91 2034 -91 
Q 1263 -91 848 271 
Q 434 634 434 1313 
Q 434 1759 690 2068 
Q 947 2378 1403 2484 
z
M 1172 3481 
Q 1172 3119 1398 2916 
Q 1625 2713 2034 2713 
Q 2441 2713 2670 2916 
Q 2900 3119 2900 3481 
Q 2900 3844 2670 4047 
Q 2441 4250 2034 4250 
Q 1625 4250 1398 4047 
Q 1172 3844 1172 3481 
z
" transform="scale(0.015625)"/>
       </defs>
       <use xlink:href="#DejaVuSans-38"/>
       <use xlink:href="#DejaVuSans-30" x="63.623047"/>
       <use xlink:href="#DejaVuSans-30" x="127.246094"/>
      </g>
     </g>
    </g>
    <g id="text_11">
     <!-- Handshake duration (ms) -->
     <g style="fill: #262626" transform="translate(21.328125 287.437813) rotate(-90) scale(0.12 -0.12)">
      <defs>
       <path id="DejaVuSans-48" d="M 628 4666 
L 1259 4666 
L 1259 2753 
L 3553 2753 
L 3553 4666 
L 4184 4666 
L 4184 0 
L 3553 0 
L 3553 2222 
L 1259 2222 
L 1259 0 
L 628 0 
L 628 4666 
z
" transform="scale(0.015625)"/>
       <path id="DejaVuSans-61" d="M 2194 1759 
Q 1497 1759 1228 1600 
Q 959 1441 959 1056 
Q 959 750 1161 570 
Q 1363 391 1709 391 
Q 2188 391 2477 730 
Q 2766 1069 2766 1631 
L 2766 1759 
L 2194 1759 
z
M 3341 1997 
L 3341 0 
L 2766 0 
L 2766 531 
Q 2569 213 2275 61 
Q 1981 -91 1556 -91 
Q 1019 -91 701 211 
Q 384 513 384 1019 
Q 384 1609 779 1909 
Q 1175 2209 1959 2209 
L 2766 2209 
L 2766 2266 
Q 2766 2663 2505 2880 
Q 2244 3097 1772 3097 
Q 1472 3097 1187 3025 
Q 903 2953 641 2809 
L 641 3341 
Q 956 3463 1253 3523 
Q 1550 3584 1831 3584 
Q 2591 3584 2966 3190 
Q 3341 2797 3341 1997 
z
" transform="scale(0.015625)"/>
       <path id="DejaVuSans-6e" d="M 3513 2113 
L 3513 0 
L 2938 0 
L 2938 2094 
Q 2938 2591 2744 2837 
Q 2550 3084 2163 3084 
Q 1697 3084 1428 2787 
Q 1159 2491 1159 1978 
L 1159 0 
L 581 0 
L 581 3500 
L 1159 3500 
L 1159 2956 
Q 1366 3272 1645 3428 
Q 1925 3584 2291 3584 
Q 2894 3584 3203 3211 
Q 3513 2838 3513 2113 
z
" transform="scale(0.015625)"/>
       <path id="DejaVuSans-64" d="M 2906 2969 
L 2906 4863 
L 3481 4863 
L 3481 0 
L 2906 0 
L 2906 525 
Q 2725 213 2448 61 
Q 2172 -91 1784 -91 
Q 1150 -91 751 415 
Q 353 922 353 1747 
Q 353 2572 751 3078 
Q 1150 3584 1784 3584 
Q 2172 3584 2448 3432 
Q 2725 3281 2906 2969 
z
M 947 1747 
Q 947 1113 1208 752 
Q 1469 391 1925 391 
Q 2381 391 2643 752 
Q 2906 1113 2906 1747 
Q 2906 2381 2643 2742 
Q 2381 3103 1925 3103 
Q 1469 3103 1208 2742 
Q 947 2381 947 1747 
z
" transform="scale(0.015625)"/>
       <path id="DejaVuSans-73" d="M 2834 3397 
L 2834 2853 
Q 2591 2978 2328 3040 
Q 2066 3103 1784 3103 
Q 1356 3103 1142 2972 
Q 928 2841 928 2578 
Q 928 2378 1081 2264 
Q 1234 2150 1697 2047 
L 1894 2003 
Q 2506 1872 2764 1633 
Q 3022 1394 3022 966 
Q 3022 478 2636 193 
Q 2250 -91 1575 -91 
Q 1294 -91 989 -36 
Q 684 19 347 128 
L 347 722 
Q 666 556 975 473 
Q 1284 391 1588 391 
Q 1994 391 2212 530 
Q 2431 669 2431 922 
Q 2431 1156 2273 1281 
Q 2116 1406 1581 1522 
L 1381 1569 
Q 847 1681 609 1914 
Q 372 2147 372 2553 
Q 372 3047 722 3315 
Q 1072 3584 1716 3584 
Q 2034 3584 2315 3537 
Q 2597 3491 2834 3397 
z
" transform="scale(0.015625)"/>
       <path id="DejaVuSans-68" d="M 3513 2113 
L 3513 0 
L 2938 0 
L 2938 2094 
Q 2938 2591 2744 2837 
Q 2550 3084 2163 3084 
Q 1697 3084 1428 2787 
Q 1159 2491 1159 1978 
L 1159 0 
L 581 0 
L 581 4863 
L 1159 4863 
L 1159 2956 
Q 1366 3272 1645 3428 
Q 1925 3584 2291 3584 
Q 2894 3584 3203 3211 
Q 3513 2838 3513 2113 
z
" transform="scale(0.015625)"/>
       <path id="DejaVuSans-20" transform="scale(0.015625)"/>
       <path id="DejaVuSans-75" d="M 544 1381 
L 544 3500 
L 1119 3500 
L 1119 1403 
Q 1119 906 1312 657 
Q 1506 409 1894 409 
Q 2359 409 2629 706 
Q 2900 1003 2900 1516 
L 2900 3500 
L 3475 3500 
L 3475 0 
L 2900 0 
L 2900 538 
Q 2691 219 2414 64 
Q 2138 -91 1772 -91 
Q 1169 -91 856 284 
Q 544 659 544 1381 
z
M 1991 3584 
L 1991 3584 
z
" transform="scale(0.015625)"/>
       <path id="DejaVuSans-72" d="M 2631 2963 
Q 2534 3019 2420 3045 
Q 2306 3072 2169 3072 
Q 1681 3072 1420 2755 
Q 1159 2438 1159 1844 
L 1159 0 
L 581 0 
L 581 3500 
L 1159 3500 
L 1159 2956 
Q 1341 3275 1631 3429 
Q 1922 3584 2338 3584 
Q 2397 3584 2469 3576 
Q 2541 3569 2628 3553 
L 2631 2963 
z
" transform="scale(0.015625)"/>
       <path id="DejaVuSans-74" d="M 1172 4494 
L 1172 3500 
L 2356 3500 
L 2356 3053 
L 1172 3053 
L 1172 1153 
Q 1172 725 1289 603 
Q 1406 481 1766 481 
L 2356 481 
L 2356 0 
L 1766 0 
Q 1100 0 847 248 
Q 594 497 594 1153 
L 594 3053 
L 172 3053 
L 172 3500 
L 594 3500 
L 594 4494 
L 1172 4494 
z
" transform="scale(0.015625)"/>
       <path id="DejaVuSans-69" d="M 603 3500 
L 1178 3500 
L 1178 0 
L 603 0 
L 603 3500 
z
M 603 4863 
L 1178 4863 
L 1178 4134 
L 603 4134 
L 603 4863 
z
" transform="scale(0.015625)"/>
       <path id="DejaVuSans-6f" d="M 1959 3097 
Q 1497 3097 1228 2736 
Q 959 2375 959 1747 
Q 959 1119 1226 758 
Q 1494 397 1959 397 
Q 2419 397 2687 759 
Q 2956 1122 2956 1747 
Q 2956 2369 2687 2733 
Q 2419 3097 1959 3097 
z
M 1959 3584 
Q 2709 3584 3137 3096 
Q 3566 2609 3566 1747 
Q 3566 888 3137 398 
Q 2709 -91 1959 -91 
Q 1206 -91 779 398 
Q 353 888 353 1747 
Q 353 2609 779 3096 
Q 1206 3584 1959 3584 
z
" transform="scale(0.015625)"/>
       <path id="DejaVuSans-28" d="M 1984 4856 
Q 1566 4138 1362 3434 
Q 1159 2731 1159 2009 
Q 1159 1288 1364 580 
Q 1569 -128 1984 -844 
L 1484 -844 
Q 1016 -109 783 600 
Q 550 1309 550 2009 
Q 550 2706 781 3412 
Q 1013 4119 1484 4856 
L 1984 4856 
z
" transform="scale(0.015625)"/>
       <path id="DejaVuSans-29" d="M 513 4856 
L 1013 4856 
Q 1481 4119 1714 3412 
Q 1947 2706 1947 2009 
Q 1947 1309 1714 600 
Q 1481 -109 1013 -844 
L 513 -844 
Q 928 -128 1133 580 
Q 1338 1288 1338 2009 
Q 1338 2731 1133 3434 
Q 928 4138 513 4856 
z
" transform="scale(0.015625)"/>
      </defs>
      <use xlink:href="#DejaVuSans-48"/>
      <use xlink:href="#DejaVuSans-61" x="75.195312"/>
      <use xlink:href="#DejaVuSans-6e" x="136.474609"/>
      <use xlink:href="#DejaVuSans-64" x="199.853516"/>
      <use xlink:href="#DejaVuSans-73" x="263.330078"/>
      <use xlink:href="#DejaVuSans-68" x="315.429688"/>
      <use xlink:href="#DejaVuSans-61" x="378.808594"/>
      <use xlink:href="#DejaVuSans-6b" x="440.087891"/>
      <use xlink:href="#DejaVuSans-65" x="494.373047"/>
      <use xlink:href="#DejaVuSans-20" x="555.896484"/>
      <use xlink:href="#DejaVuSans-64" x="587.683594"/>
      <use xlink:href="#DejaVuSans-75" x="651.160156"/>
      <use xlink:href="#DejaVuSans-72" x="714.539062"/>
      <use xlink:href="#DejaVuSans-61" x="755.652344"/>
      <use xlink:href="#DejaVuSans-74" x="816.931641"/>
      <use xlink:href="#DejaVuSans-69" x="856.140625"/>
      <use xlink:href="#DejaVuSans-6f" x="883.923828"/>
      <use xlink:href="#DejaVuSans-6e" x="945.105469"/>
      <use xlink:href="#DejaVuSans-20" x="1008.484375"/>
      <use xlink:href="#DejaVuSans-28" x="1040.271484"/>
      <use xlink:href="#DejaVuSans-6d" x="1079.285156"/>
      <use xlink:href="#DejaVuSans-73" x="1176.697266"/>
      <use xlink:href="#DejaVuSans-29" x="1228.796875"/>
     </g>
    </g>
   </g>
   <g id="PolyCollection_1">
    <defs>
     <path id="m097b311b60" d="M 145.567099 -53.765885 
L 129.616901 -53.765885 
L 108.5503 -57.122127 
L 79.628588 -60.478369 
L 74.1744 -63.834611 
L 99.547204 -67.190853 
L 125.07338 -70.547095 
L 135.33153 -73.903338 
L 137.367863 -77.25958 
L 137.579784 -80.615822 
L 137.591634 -83.972064 
L 137.591994 -87.328306 
L 137.592 -90.684548 
L 137.592 -94.040791 
L 137.592 -97.397033 
L 137.592 -100.753275 
L 137.592 -104.109517 
L 137.592 -107.465759 
L 137.592 -110.822001 
L 137.592 -114.178243 
L 137.592 -117.534486 
L 137.592 -120.890728 
L 137.592 -124.24697 
L 137.592 -127.603212 
L 137.592 -130.959454 
L 137.592 -134.315696 
L 137.592 -137.671939 
L 137.592 -141.028181 
L 137.592 -144.384423 
L 137.592 -147.740665 
L 137.592 -151.096907 
L 137.592 -154.453149 
L 137.592 -157.809392 
L 137.592 -161.165634 
L 137.592 -164.521876 
L 137.592 -167.878118 
L 137.592 -171.23436 
L 137.592 -174.590602 
L 137.592 -177.946844 
L 137.592 -181.303087 
L 137.592 -184.659329 
L 137.592 -188.015571 
L 137.592 -191.371813 
L 137.592 -194.728055 
L 137.592 -198.084297 
L 137.592 -201.44054 
L 137.592 -204.796782 
L 137.592 -208.153024 
L 137.592 -211.509266 
L 137.592 -214.865508 
L 137.592 -218.22175 
L 137.592 -221.577993 
L 137.592 -224.934235 
L 137.592 -228.290477 
L 137.592 -231.646719 
L 137.592 -235.002961 
L 137.592 -238.359203 
L 137.592 -241.715445 
L 137.592 -245.071688 
L 137.592 -248.42793 
L 137.592 -251.784172 
L 137.592 -255.140414 
L 137.592 -258.496656 
L 137.592 -261.852898 
L 137.592 -265.209141 
L 137.592 -268.565383 
L 137.592 -271.921625 
L 137.592 -275.277867 
L 137.592 -278.634109 
L 137.592 -281.990351 
L 137.592 -285.346594 
L 137.592 -288.702836 
L 137.592 -292.059078 
L 137.592 -295.41532 
L 137.592 -298.771562 
L 137.592 -302.127804 
L 137.592 -305.484046 
L 137.592 -308.840289 
L 137.592 -312.196531 
L 137.592 -315.552773 
L 137.592 -318.909015 
L 137.592 -322.265257 
L 137.592 -325.621499 
L 137.592 -328.977742 
L 137.592 -332.333984 
L 137.592 -335.690226 
L 137.592 -339.046468 
L 137.592 -342.40271 
L 137.592 -345.758952 
L 137.592 -349.115194 
L 137.592 -352.471437 
L 137.591999 -355.827679 
L 137.59198 -359.183921 
L 137.591619 -362.540163 
L 137.587949 -365.896405 
L 137.568413 -369.252647 
L 137.516829 -372.60889 
L 137.460861 -375.965132 
L 137.466767 -379.321374 
L 137.526534 -382.677616 
L 137.573267 -386.033858 
L 137.610733 -386.033858 
L 137.610733 -386.033858 
L 137.657466 -382.677616 
L 137.717233 -379.321374 
L 137.723139 -375.965132 
L 137.667171 -372.60889 
L 137.615587 -369.252647 
L 137.596051 -365.896405 
L 137.592381 -362.540163 
L 137.59202 -359.183921 
L 137.592001 -355.827679 
L 137.592 -352.471437 
L 137.592 -349.115194 
L 137.592 -345.758952 
L 137.592 -342.40271 
L 137.592 -339.046468 
L 137.592 -335.690226 
L 137.592 -332.333984 
L 137.592 -328.977742 
L 137.592 -325.621499 
L 137.592 -322.265257 
L 137.592 -318.909015 
L 137.592 -315.552773 
L 137.592 -312.196531 
L 137.592 -308.840289 
L 137.592 -305.484046 
L 137.592 -302.127804 
L 137.592 -298.771562 
L 137.592 -295.41532 
L 137.592 -292.059078 
L 137.592 -288.702836 
L 137.592 -285.346594 
L 137.592 -281.990351 
L 137.592 -278.634109 
L 137.592 -275.277867 
L 137.592 -271.921625 
L 137.592 -268.565383 
L 137.592 -265.209141 
L 137.592 -261.852898 
L 137.592 -258.496656 
L 137.592 -255.140414 
L 137.592 -251.784172 
L 137.592 -248.42793 
L 137.592 -245.071688 
L 137.592 -241.715445 
L 137.592 -238.359203 
L 137.592 -235.002961 
L 137.592 -231.646719 
L 137.592 -228.290477 
L 137.592 -224.934235 
L 137.592 -221.577993 
L 137.592 -218.22175 
L 137.592 -214.865508 
L 137.592 -211.509266 
L 137.592 -208.153024 
L 137.592 -204.796782 
L 137.592 -201.44054 
L 137.592 -198.084297 
L 137.592 -194.728055 
L 137.592 -191.371813 
L 137.592 -188.015571 
L 137.592 -184.659329 
L 137.592 -181.303087 
L 137.592 -177.946844 
L 137.592 -174.590602 
L 137.592 -171.23436 
L 137.592 -167.878118 
L 137.592 -164.521876 
L 137.592 -161.165634 
L 137.592 -157.809392 
L 137.592 -154.453149 
L 137.592 -151.096907 
L 137.592 -147.740665 
L 137.592 -144.384423 
L 137.592 -141.028181 
L 137.592 -137.671939 
L 137.592 -134.315696 
L 137.592 -130.959454 
L 137.592 -127.603212 
L 137.592 -124.24697 
L 137.592 -120.890728 
L 137.592 -117.534486 
L 137.592 -114.178243 
L 137.592 -110.822001 
L 137.592 -107.465759 
L 137.592 -104.109517 
L 137.592 -100.753275 
L 137.592 -97.397033 
L 137.592 -94.040791 
L 137.592 -90.684548 
L 137.592006 -87.328306 
L 137.592366 -83.972064 
L 137.604216 -80.615822 
L 137.816137 -77.25958 
L 139.85247 -73.903338 
L 150.11062 -70.547095 
L 175.636796 -67.190853 
L 201.0096 -63.834611 
L 195.555412 -60.478369 
L 166.6337 -57.122127 
L 145.567099 -53.765885 
z
" style="stroke: #595959; stroke-width: 1.25"/>
    </defs>
    <g clip-path="url(#pb3dcf7b39c)">
     <use xlink:href="#m097b311b60" x="0" y="432" style="fill: #72b6a1; stroke: #595959; stroke-width: 1.25"/>
    </g>
   </g>
   <g id="PolyCollection_2">
    <defs>
     <path id="m6099436580" d="M 304.146433 -53.566364 
L 288.125567 -53.566364 
L 267.030279 -56.917517 
L 238.128108 -60.268671 
L 232.7184 -63.619825 
L 258.101365 -66.970979 
L 283.62089 -70.322132 
L 293.876441 -73.673286 
L 295.912126 -77.02444 
L 296.123826 -80.375594 
L 296.135637 -83.726747 
L 296.135994 -87.077901 
L 296.136 -90.429055 
L 296.136 -93.780209 
L 296.136 -97.131362 
L 296.136 -100.482516 
L 296.136 -103.83367 
L 296.136 -107.184824 
L 296.136 -110.535977 
L 296.136 -113.887131 
L 296.136 -117.238285 
L 296.136 -120.589438 
L 296.136 -123.940592 
L 296.136 -127.291746 
L 296.136 -130.6429 
L 296.136 -133.994053 
L 296.136 -137.345207 
L 296.136 -140.696361 
L 296.136 -144.047515 
L 296.136 -147.398668 
L 296.136 -150.749822 
L 296.136 -154.100976 
L 296.136 -157.45213 
L 296.136 -160.803283 
L 296.136 -164.154437 
L 296.136 -167.505591 
L 296.136 -170.856745 
L 296.136 -174.207898 
L 296.136 -177.559052 
L 296.136 -180.910206 
L 296.136 -184.26136 
L 296.136 -187.612513 
L 296.136 -190.963667 
L 296.136 -194.314821 
L 296.136 -197.665975 
L 296.136 -201.017128 
L 296.136 -204.368282 
L 296.136 -207.719436 
L 296.136 -211.07059 
L 296.136 -214.421743 
L 296.136 -217.772897 
L 296.136 -221.124051 
L 296.136 -224.475204 
L 296.136 -227.826358 
L 296.136 -231.177512 
L 296.136 -234.528666 
L 296.136 -237.879819 
L 296.136 -241.230973 
L 296.136 -244.582127 
L 296.136 -247.933281 
L 296.136 -251.284434 
L 296.136 -254.635588 
L 296.136 -257.986742 
L 296.136 -261.337896 
L 296.136 -264.689049 
L 296.136 -268.040203 
L 296.136 -271.391357 
L 296.136 -274.742511 
L 296.136 -278.093664 
L 296.136 -281.444818 
L 296.136 -284.795972 
L 296.136 -288.147126 
L 296.136 -291.498279 
L 296.136 -294.849433 
L 296.136 -298.200587 
L 296.136 -301.551741 
L 296.136 -304.902894 
L 296.136 -308.254048 
L 296.136 -311.605202 
L 296.136 -314.956356 
L 296.136 -318.307509 
L 296.136 -321.658663 
L 296.136 -325.009817 
L 296.136 -328.36097 
L 296.136 -331.712124 
L 296.136 -335.063278 
L 296.136 -338.414432 
L 296.136 -341.765585 
L 296.136 -345.116739 
L 296.136 -348.467893 
L 296.136 -351.819047 
L 296.135999 -355.1702 
L 296.13598 -358.521354 
L 296.135611 -361.872508 
L 296.131892 -365.223662 
L 296.112201 -368.574815 
L 296.060441 -371.925969 
L 296.00453 -375.277123 
L 296.010631 -378.628277 
L 296.07048 -381.97943 
L 296.117234 -385.330584 
L 296.154766 -385.330584 
L 296.154766 -385.330584 
L 296.20152 -381.97943 
L 296.261369 -378.628277 
L 296.26747 -375.277123 
L 296.211559 -371.925969 
L 296.159799 -368.574815 
L 296.140108 -365.223662 
L 296.136389 -361.872508 
L 296.13602 -358.521354 
L 296.136001 -355.1702 
L 296.136 -351.819047 
L 296.136 -348.467893 
L 296.136 -345.116739 
L 296.136 -341.765585 
L 296.136 -338.414432 
L 296.136 -335.063278 
L 296.136 -331.712124 
L 296.136 -328.36097 
L 296.136 -325.009817 
L 296.136 -321.658663 
L 296.136 -318.307509 
L 296.136 -314.956356 
L 296.136 -311.605202 
L 296.136 -308.254048 
L 296.136 -304.902894 
L 296.136 -301.551741 
L 296.136 -298.200587 
L 296.136 -294.849433 
L 296.136 -291.498279 
L 296.136 -288.147126 
L 296.136 -284.795972 
L 296.136 -281.444818 
L 296.136 -278.093664 
L 296.136 -274.742511 
L 296.136 -271.391357 
L 296.136 -268.040203 
L 296.136 -264.689049 
L 296.136 -261.337896 
L 296.136 -257.986742 
L 296.136 -254.635588 
L 296.136 -251.284434 
L 296.136 -247.933281 
L 296.136 -244.582127 
L 296.136 -241.230973 
L 296.136 -237.879819 
L 296.136 -234.528666 
L 296.136 -231.177512 
L 296.136 -227.826358 
L 296.136 -224.475204 
L 296.136 -221.124051 
L 296.136 -217.772897 
L 296.136 -214.421743 
L 296.136 -211.07059 
L 296.136 -207.719436 
L 296.136 -204.368282 
L 296.136 -201.017128 
L 296.136 -197.665975 
L 296.136 -194.314821 
L 296.136 -190.963667 
L 296.136 -187.612513 
L 296.136 -184.26136 
L 296.136 -180.910206 
L 296.136 -177.559052 
L 296.136 -174.207898 
L 296.136 -170.856745 
L 296.136 -167.505591 
L 296.136 -164.154437 
L 296.136 -160.803283 
L 296.136 -157.45213 
L 296.136 -154.100976 
L 296.136 -150.749822 
L 296.136 -147.398668 
L 296.136 -144.047515 
L 296.136 -140.696361 
L 296.136 -137.345207 
L 296.136 -133.994053 
L 296.136 -130.6429 
L 296.136 -127.291746 
L 296.136 -123.940592 
L 296.136 -120.589438 
L 296.136 -117.238285 
L 296.136 -113.887131 
L 296.136 -110.535977 
L 296.136 -107.184824 
L 296.136 -103.83367 
L 296.136 -100.482516 
L 296.136 -97.131362 
L 296.136 -93.780209 
L 296.136 -90.429055 
L 296.136006 -87.077901 
L 296.136363 -83.726747 
L 296.148174 -80.375594 
L 296.359874 -77.02444 
L 298.395559 -73.673286 
L 308.65111 -70.322132 
L 334.170635 -66.970979 
L 359.5536 -63.619825 
L 354.143892 -60.268671 
L 325.241721 -56.917517 
L 304.146433 -53.566364 
z
" style="stroke: #595959; stroke-width: 1.25"/>
    </defs>
    <g clip-path="url(#pb3dcf7b39c)">
     <use xlink:href="#m6099436580" x="0" y="432" style="fill: #e99675; stroke: #595959; stroke-width: 1.25"/>
    </g>
   </g>
   <g id="PolyCollection_3">
    <defs>
     <path id="m66d39b51f0" d="M 457.936905 -66.744157 
L 451.423095 -66.744157 
L 450.029439 -66.809467 
L 448.190849 -66.874777 
L 445.831483 -66.940087 
L 442.888387 -67.005397 
L 439.322574 -67.070707 
L 435.130686 -67.136017 
L 430.355649 -67.201327 
L 425.094388 -67.266637 
L 419.500695 -67.331947 
L 413.781721 -67.397257 
L 408.187304 -67.462567 
L 402.992472 -67.527878 
L 398.474607 -67.593188 
L 394.887869 -67.658498 
L 392.438199 -67.723808 
L 391.2624 -67.789118 
L 391.41433 -67.854428 
L 392.860219 -67.919738 
L 395.483724 -67.985048 
L 399.099803 -68.050358 
L 403.475178 -68.115668 
L 408.35232 -68.180978 
L 413.473566 -68.246288 
L 418.602337 -68.311598 
L 423.5392 -68.376908 
L 428.131593 -68.442218 
L 432.277108 -68.507529 
L 435.921169 -68.572839 
L 439.050534 -68.638149 
L 441.684335 -68.703459 
L 443.864276 -68.768769 
L 445.645321 -68.834079 
L 447.087784 -68.899389 
L 448.251286 -68.964699 
L 449.190655 -69.030009 
L 449.953599 -69.095319 
L 450.579787 -69.160629 
L 451.100956 -69.225939 
L 451.541656 -69.291249 
L 451.920312 -69.356559 
L 452.250385 -69.421869 
L 452.541466 -69.48718 
L 452.800234 -69.55249 
L 453.031234 -69.6178 
L 453.23749 -69.68311 
L 453.420958 -69.74842 
L 453.582848 -69.81373 
L 453.723834 -69.87904 
L 453.84415 -69.94435 
L 453.943599 -70.00966 
L 454.021464 -70.07497 
L 454.076338 -70.14028 
L 454.105906 -70.20559 
L 454.106701 -70.2709 
L 454.07391 -70.33621 
L 454.001292 -70.40152 
L 453.881284 -70.466831 
L 453.705375 -70.532141 
L 453.464781 -70.597451 
L 453.151436 -70.662761 
L 452.759251 -70.728071 
L 452.285508 -70.793381 
L 451.732233 -70.858691 
L 451.1073 -70.924001 
L 450.425035 -70.989311 
L 449.706111 -71.054621 
L 448.976591 -71.119931 
L 448.266133 -71.185241 
L 447.605487 -71.250551 
L 447.023594 -71.315861 
L 446.544693 -71.381171 
L 446.185882 -71.446482 
L 445.95556 -71.511792 
L 445.853005 -71.577102 
L 445.869203 -71.642412 
L 445.98875 -71.707722 
L 446.192519 -71.773032 
L 446.460578 -71.838342 
L 446.774872 -71.903652 
L 447.121196 -71.968962 
L 447.490182 -72.034272 
L 447.877217 -72.099582 
L 448.281433 -72.164892 
L 448.704072 -72.230202 
L 449.146633 -72.295512 
L 449.609201 -72.360822 
L 450.089288 -72.426133 
L 450.58135 -72.491443 
L 451.077026 -72.556753 
L 451.56595 -72.622063 
L 452.036939 -72.687373 
L 452.479276 -72.752683 
L 452.883867 -72.817993 
L 453.244074 -72.883303 
L 453.556144 -72.948613 
L 453.819233 -73.013923 
L 454.035078 -73.079233 
L 454.207441 -73.144543 
L 454.341439 -73.209853 
L 455.018561 -73.209853 
L 455.018561 -73.209853 
L 455.152559 -73.144543 
L 455.324922 -73.079233 
L 455.540767 -73.013923 
L 455.803856 -72.948613 
L 456.115926 -72.883303 
L 456.476133 -72.817993 
L 456.880724 -72.752683 
L 457.323061 -72.687373 
L 457.79405 -72.622063 
L 458.282974 -72.556753 
L 458.77865 -72.491443 
L 459.270712 -72.426133 
L 459.750799 -72.360822 
L 460.213367 -72.295512 
L 460.655928 -72.230202 
L 461.078567 -72.164892 
L 461.482783 -72.099582 
L 461.869818 -72.034272 
L 462.238804 -71.968962 
L 462.585128 -71.903652 
L 462.899422 -71.838342 
L 463.167481 -71.773032 
L 463.37125 -71.707722 
L 463.490797 -71.642412 
L 463.506995 -71.577102 
L 463.40444 -71.511792 
L 463.174118 -71.446482 
L 462.815307 -71.381171 
L 462.336406 -71.315861 
L 461.754513 -71.250551 
L 461.093867 -71.185241 
L 460.383409 -71.119931 
L 459.653889 -71.054621 
L 458.934965 -70.989311 
L 458.2527 -70.924001 
L 457.627767 -70.858691 
L 457.074492 -70.793381 
L 456.600749 -70.728071 
L 456.208564 -70.662761 
L 455.895219 -70.597451 
L 455.654625 -70.532141 
L 455.478716 -70.466831 
L 455.358708 -70.40152 
L 455.28609 -70.33621 
L 455.253299 -70.2709 
L 455.254094 -70.20559 
L 455.283662 -70.14028 
L 455.338536 -70.07497 
L 455.416401 -70.00966 
L 455.51585 -69.94435 
L 455.636166 -69.87904 
L 455.777152 -69.81373 
L 455.939042 -69.74842 
L 456.12251 -69.68311 
L 456.328766 -69.6178 
L 456.559766 -69.55249 
L 456.818534 -69.48718 
L 457.109615 -69.421869 
L 457.439688 -69.356559 
L 457.818344 -69.291249 
L 458.259044 -69.225939 
L 458.780213 -69.160629 
L 459.406401 -69.095319 
L 460.169345 -69.030009 
L 461.108714 -68.964699 
L 462.272216 -68.899389 
L 463.714679 -68.834079 
L 465.495724 -68.768769 
L 467.675665 -68.703459 
L 470.309466 -68.638149 
L 473.438831 -68.572839 
L 477.082892 -68.507529 
L 481.228407 -68.442218 
L 485.8208 -68.376908 
L 490.757663 -68.311598 
L 495.886434 -68.246288 
L 501.00768 -68.180978 
L 505.884822 -68.115668 
L 510.260197 -68.050358 
L 513.876276 -67.985048 
L 516.499781 -67.919738 
L 517.94567 -67.854428 
L 518.0976 -67.789118 
L 516.921801 -67.723808 
L 514.472131 -67.658498 
L 510.885393 -67.593188 
L 506.367528 -67.527878 
L 501.172696 -67.462567 
L 495.578279 -67.397257 
L 489.859305 -67.331947 
L 484.265612 -67.266637 
L 479.004351 -67.201327 
L 474.229314 -67.136017 
L 470.037426 -67.070707 
L 466.471613 -67.005397 
L 463.528517 -66.940087 
L 461.169151 -66.874777 
L 459.330561 -66.809467 
L 457.936905 -66.744157 
z
" style="stroke: #595959; stroke-width: 1.25"/>
    </defs>
    <g clip-path="url(#pb3dcf7b39c)">
     <use xlink:href="#m66d39b51f0" x="0" y="432" style="fill: #95a3c3; stroke: #595959; stroke-width: 1.25"/>
    </g>
   </g>
   <g id="PolyCollection_4">
    <defs>
     <path id="m06427143a9" d="M 620.833391 -54.77524 
L 605.614609 -54.77524 
L 584.915303 -58.138052 
L 555.837561 -61.500864 
L 549.8064 -64.863676 
L 575.001249 -68.226488 
L 600.653537 -71.5893 
L 610.967144 -74.952112 
L 613.002701 -78.314924 
L 613.212143 -81.677737 
L 613.223653 -85.040549 
L 613.223994 -88.403361 
L 613.224 -91.766173 
L 613.224 -95.128985 
L 613.224 -98.491797 
L 613.224 -101.854609 
L 613.224 -105.217421 
L 613.224 -108.580233 
L 613.224 -111.943045 
L 613.224 -115.305857 
L 613.224 -118.668669 
L 613.224 -122.031482 
L 613.224 -125.394294 
L 613.224 -128.757106 
L 613.224 -132.119918 
L 613.224 -135.48273 
L 613.224 -138.845542 
L 613.224 -142.208354 
L 613.224 -145.571166 
L 613.224 -148.933978 
L 613.224 -152.29679 
L 613.224 -155.659602 
L 613.224 -159.022415 
L 613.224 -162.385227 
L 613.224 -165.748039 
L 613.224 -169.110851 
L 613.224 -172.473663 
L 613.224 -175.836475 
L 613.224 -179.199287 
L 613.224 -182.562099 
L 613.224 -185.924911 
L 613.224 -189.287723 
L 613.224 -192.650535 
L 613.224 -196.013347 
L 613.224 -199.37616 
L 613.224 -202.738972 
L 613.224 -206.101784 
L 613.224 -209.464596 
L 613.224 -212.827408 
L 613.224 -216.19022 
L 613.224 -219.553032 
L 613.224 -222.915844 
L 613.224 -226.278656 
L 613.224 -229.641468 
L 613.224 -233.00428 
L 613.224 -236.367092 
L 613.224 -239.729905 
L 613.224 -243.092717 
L 613.224 -246.455529 
L 613.224 -249.818341 
L 613.224 -253.181153 
L 613.224 -256.543965 
L 613.224 -259.906777 
L 613.224 -263.269589 
L 613.224 -266.632401 
L 613.224 -269.995213 
L 613.224 -273.358025 
L 613.224 -276.720838 
L 613.224 -280.08365 
L 613.224 -283.446462 
L 613.224 -286.809274 
L 613.224 -290.172086 
L 613.224 -293.534898 
L 613.224 -296.89771 
L 613.224 -300.260522 
L 613.224 -303.623334 
L 613.224 -306.986146 
L 613.224 -310.348958 
L 613.224 -313.71177 
L 613.224 -317.074583 
L 613.224 -320.437395 
L 613.224 -323.800207 
L 613.224 -327.163019 
L 613.224 -330.525831 
L 613.224 -333.888643 
L 613.224 -337.251455 
L 613.224 -340.614267 
L 613.224 -343.977079 
L 613.224 -347.339891 
L 613.224 -350.702703 
L 613.224 -354.065516 
L 613.224 -357.428328 
L 613.223984 -360.79114 
L 613.223671 -364.153952 
L 613.220344 -367.516764 
L 613.201936 -370.879576 
L 613.151727 -374.242388 
L 613.095511 -377.6052 
L 613.100018 -380.968012 
L 613.159069 -384.330824 
L 613.205543 -387.693636 
L 613.242457 -387.693636 
L 613.242457 -387.693636 
L 613.288931 -384.330824 
L 613.347982 -380.968012 
L 613.352489 -377.6052 
L 613.296273 -374.242388 
L 613.246064 -370.879576 
L 613.227656 -367.516764 
L 613.224329 -364.153952 
L 613.224016 -360.79114 
L 613.224 -357.428328 
L 613.224 -354.065516 
L 613.224 -350.702703 
L 613.224 -347.339891 
L 613.224 -343.977079 
L 613.224 -340.614267 
L 613.224 -337.251455 
L 613.224 -333.888643 
L 613.224 -330.525831 
L 613.224 -327.163019 
L 613.224 -323.800207 
L 613.224 -320.437395 
L 613.224 -317.074583 
L 613.224 -313.71177 
L 613.224 -310.348958 
L 613.224 -306.986146 
L 613.224 -303.623334 
L 613.224 -300.260522 
L 613.224 -296.89771 
L 613.224 -293.534898 
L 613.224 -290.172086 
L 613.224 -286.809274 
L 613.224 -283.446462 
L 613.224 -280.08365 
L 613.224 -276.720838 
L 613.224 -273.358025 
L 613.224 -269.995213 
L 613.224 -266.632401 
L 613.224 -263.269589 
L 613.224 -259.906777 
L 613.224 -256.543965 
L 613.224 -253.181153 
L 613.224 -249.818341 
L 613.224 -246.455529 
L 613.224 -243.092717 
L 613.224 -239.729905 
L 613.224 -236.367092 
L 613.224 -233.00428 
L 613.224 -229.641468 
L 613.224 -226.278656 
L 613.224 -222.915844 
L 613.224 -219.553032 
L 613.224 -216.19022 
L 613.224 -212.827408 
L 613.224 -209.464596 
L 613.224 -206.101784 
L 613.224 -202.738972 
L 613.224 -199.37616 
L 613.224 -196.013347 
L 613.224 -192.650535 
L 613.224 -189.287723 
L 613.224 -185.924911 
L 613.224 -182.562099 
L 613.224 -179.199287 
L 613.224 -175.836475 
L 613.224 -172.473663 
L 613.224 -169.110851 
L 613.224 -165.748039 
L 613.224 -162.385227 
L 613.224 -159.022415 
L 613.224 -155.659602 
L 613.224 -152.29679 
L 613.224 -148.933978 
L 613.224 -145.571166 
L 613.224 -142.208354 
L 613.224 -138.845542 
L 613.224 -135.48273 
L 613.224 -132.119918 
L 613.224 -128.757106 
L 613.224 -125.394294 
L 613.224 -122.031482 
L 613.224 -118.668669 
L 613.224 -115.305857 
L 613.224 -111.943045 
L 613.224 -108.580233 
L 613.224 -105.217421 
L 613.224 -101.854609 
L 613.224 -98.491797 
L 613.224 -95.128985 
L 613.224 -91.766173 
L 613.224006 -88.403361 
L 613.224347 -85.040549 
L 613.235857 -81.677737 
L 613.445299 -78.314924 
L 615.480856 -74.952112 
L 625.794463 -71.5893 
L 651.446751 -68.226488 
L 676.6416 -64.863676 
L 670.610439 -61.500864 
L 641.532697 -58.138052 
L 620.833391 -54.77524 
z
" style="stroke: #595959; stroke-width: 1.25"/>
    </defs>
    <g clip-path="url(#pb3dcf7b39c)">
     <use xlink:href="#m06427143a9" x="0" y="432" style="fill: #db96c0; stroke: #595959; stroke-width: 1.25"/>
    </g>
   </g>
   <g id="PolyCollection_5">
    <defs>
     <path id="m68244ac0b9" d="M 779.854449 -53.647473 
L 763.681551 -53.647473 
L 742.261338 -56.999129 
L 713.145198 -60.350785 
L 708.3504 -63.702441 
L 734.411783 -67.054097 
L 759.785716 -70.405754 
L 769.675071 -73.75741 
L 771.568922 -77.109066 
L 771.757688 -80.460722 
L 771.767709 -83.812378 
L 771.767996 -87.164035 
L 771.768 -90.515691 
L 771.768 -93.867347 
L 771.768 -97.219003 
L 771.768 -100.570659 
L 771.768 -103.922316 
L 771.768 -107.273972 
L 771.768 -110.625628 
L 771.768 -113.977284 
L 771.768 -117.32894 
L 771.768 -120.680596 
L 771.768 -124.032253 
L 771.768 -127.383909 
L 771.768 -130.735565 
L 771.768 -134.087221 
L 771.768 -137.438877 
L 771.768 -140.790534 
L 771.768 -144.14219 
L 771.768 -147.493846 
L 771.768 -150.845502 
L 771.768 -154.197158 
L 771.768 -157.548815 
L 771.768 -160.900471 
L 771.768 -164.252127 
L 771.768 -167.603783 
L 771.768 -170.955439 
L 771.768 -174.307096 
L 771.768 -177.658752 
L 771.768 -181.010408 
L 771.768 -184.362064 
L 771.768 -187.71372 
L 771.768 -191.065377 
L 771.768 -194.417033 
L 771.768 -197.768689 
L 771.768 -201.120345 
L 771.768 -204.472001 
L 771.768 -207.823657 
L 771.768 -211.175314 
L 771.768 -214.52697 
L 771.768 -217.878626 
L 771.768 -221.230282 
L 771.768 -224.581938 
L 771.768 -227.933595 
L 771.768 -231.285251 
L 771.768 -234.636907 
L 771.768 -237.988563 
L 771.768 -241.340219 
L 771.768 -244.691876 
L 771.768 -248.043532 
L 771.768 -251.395188 
L 771.768 -254.746844 
L 771.768 -258.0985 
L 771.768 -261.450157 
L 771.768 -264.801813 
L 771.768 -268.153469 
L 771.768 -271.505125 
L 771.768 -274.856781 
L 771.768 -278.208438 
L 771.768 -281.560094 
L 771.768 -284.91175 
L 771.768 -288.263406 
L 771.768 -291.615062 
L 771.768 -294.966718 
L 771.768 -298.318375 
L 771.768 -301.670031 
L 771.768 -305.021687 
L 771.768 -308.373343 
L 771.768 -311.724999 
L 771.768 -315.076656 
L 771.768 -318.428312 
L 771.768 -321.779968 
L 771.768 -325.131624 
L 771.768 -328.48328 
L 771.768 -331.834937 
L 771.768 -335.186593 
L 771.768 -338.538249 
L 771.768 -341.889905 
L 771.768 -345.241561 
L 771.768 -348.593218 
L 771.768 -351.944874 
L 771.768 -355.29653 
L 771.767983 -358.648186 
L 771.767655 -361.999842 
L 771.764214 -365.351499 
L 771.745397 -368.703155 
L 771.69457 -372.054811 
L 771.638193 -375.406467 
L 771.643136 -378.758123 
L 771.702644 -382.109779 
L 771.749385 -385.461436 
L 771.786615 -385.461436 
L 771.786615 -385.461436 
L 771.833356 -382.109779 
L 771.892864 -378.758123 
L 771.897807 -375.406467 
L 771.84143 -372.054811 
L 771.790603 -368.703155 
L 771.771786 -365.351499 
L 771.768345 -361.999842 
L 771.768017 -358.648186 
L 771.768 -355.29653 
L 771.768 -351.944874 
L 771.768 -348.593218 
L 771.768 -345.241561 
L 771.768 -341.889905 
L 771.768 -338.538249 
L 771.768 -335.186593 
L 771.768 -331.834937 
L 771.768 -328.48328 
L 771.768 -325.131624 
L 771.768 -321.779968 
L 771.768 -318.428312 
L 771.768 -315.076656 
L 771.768 -311.724999 
L 771.768 -308.373343 
L 771.768 -305.021687 
L 771.768 -301.670031 
L 771.768 -298.318375 
L 771.768 -294.966718 
L 771.768 -291.615062 
L 771.768 -288.263406 
L 771.768 -284.91175 
L 771.768 -281.560094 
L 771.768 -278.208438 
L 771.768 -274.856781 
L 771.768 -271.505125 
L 771.768 -268.153469 
L 771.768 -264.801813 
L 771.768 -261.450157 
L 771.768 -258.0985 
L 771.768 -254.746844 
L 771.768 -251.395188 
L 771.768 -248.043532 
L 771.768 -244.691876 
L 771.768 -241.340219 
L 771.768 -237.988563 
L 771.768 -234.636907 
L 771.768 -231.285251 
L 771.768 -227.933595 
L 771.768 -224.581938 
L 771.768 -221.230282 
L 771.768 -217.878626 
L 771.768 -214.52697 
L 771.768 -211.175314 
L 771.768 -207.823657 
L 771.768 -204.472001 
L 771.768 -201.120345 
L 771.768 -197.768689 
L 771.768 -194.417033 
L 771.768 -191.065377 
L 771.768 -187.71372 
L 771.768 -184.362064 
L 771.768 -181.010408 
L 771.768 -177.658752 
L 771.768 -174.307096 
L 771.768 -170.955439 
L 771.768 -167.603783 
L 771.768 -164.252127 
L 771.768 -160.900471 
L 771.768 -157.548815 
L 771.768 -154.197158 
L 771.768 -150.845502 
L 771.768 -147.493846 
L 771.768 -144.14219 
L 771.768 -140.790534 
L 771.768 -137.438877 
L 771.768 -134.087221 
L 771.768 -130.735565 
L 771.768 -127.383909 
L 771.768 -124.032253 
L 771.768 -120.680596 
L 771.768 -117.32894 
L 771.768 -113.977284 
L 771.768 -110.625628 
L 771.768 -107.273972 
L 771.768 -103.922316 
L 771.768 -100.570659 
L 771.768 -97.219003 
L 771.768 -93.867347 
L 771.768 -90.515691 
L 771.768004 -87.164035 
L 771.768291 -83.812378 
L 771.778312 -80.460722 
L 771.967078 -77.109066 
L 773.860929 -73.75741 
L 783.750284 -70.405754 
L 809.124217 -67.054097 
L 835.1856 -63.702441 
L 830.390802 -60.350785 
L 801.274662 -56.999129 
L 779.854449 -53.647473 
z
" style="stroke: #595959; stroke-width: 1.25"/>
    </defs>
    <g clip-path="url(#pb3dcf7b39c)">
     <use xlink:href="#m68244ac0b9" x="0" y="432" style="fill: #a2c865; stroke: #595959; stroke-width: 1.25"/>
    </g>
   </g>
   <g id="line2d_6">
    <path d="M 137.592 369.461242 
L 137.592 369.586848 
" clip-path="url(#pb3dcf7b39c)" style="fill: none; stroke: #000000"/>
   </g>
   <g id="line2d_7">
    <path d="M 137.592 369.327785 
L 137.592 369.131525 
" clip-path="url(#pb3dcf7b39c)" style="fill: none; stroke: #000000"/>
   </g>
   <g id="line2d_8">
    <path d="M 131.6466 369.586848 
L 143.5374 369.586848 
" clip-path="url(#pb3dcf7b39c)" style="fill: none; stroke: #000000; stroke-linecap: round"/>
   </g>
   <g id="line2d_9">
    <path d="M 131.6466 369.131525 
L 143.5374 369.131525 
" clip-path="url(#pb3dcf7b39c)" style="fill: none; stroke: #000000; stroke-linecap: round"/>
   </g>
   <g id="line2d_10">
    <path d="M 296.136 369.665352 
L 296.136 369.790958 
" clip-path="url(#pb3dcf7b39c)" style="fill: none; stroke: #000000"/>
   </g>
   <g id="line2d_11">
    <path d="M 296.136 369.524045 
L 296.136 369.312084 
" clip-path="url(#pb3dcf7b39c)" style="fill: none; stroke: #000000"/>
   </g>
   <g id="line2d_12">
    <path d="M 290.1906 369.790958 
L 302.0814 369.790958 
" clip-path="url(#pb3dcf7b39c)" style="fill: none; stroke: #000000; stroke-linecap: round"/>
   </g>
   <g id="line2d_13">
    <path d="M 290.1906 369.312084 
L 302.0814 369.312084 
" clip-path="url(#pb3dcf7b39c)" style="fill: none; stroke: #000000; stroke-linecap: round"/>
   </g>
   <g id="line2d_14">
    <path d="M 454.68 364.264282 
L 454.68 364.413439 
" clip-path="url(#pb3dcf7b39c)" style="fill: none; stroke: #000000"/>
   </g>
   <g id="line2d_15">
    <path d="M 454.68 363.82466 
L 454.68 363.204479 
" clip-path="url(#pb3dcf7b39c)" style="fill: none; stroke: #000000"/>
   </g>
   <g id="line2d_16">
    <path d="M 448.7346 364.413439 
L 460.6254 364.413439 
" clip-path="url(#pb3dcf7b39c)" style="fill: none; stroke: #000000; stroke-linecap: round"/>
   </g>
   <g id="line2d_17">
    <path d="M 448.7346 363.204479 
L 460.6254 363.204479 
" clip-path="url(#pb3dcf7b39c)" style="fill: none; stroke: #000000; stroke-linecap: round"/>
   </g>
   <g id="line2d_18">
    <path d="M 613.224 368.495643 
L 613.224 368.62125 
" clip-path="url(#pb3dcf7b39c)" style="fill: none; stroke: #000000"/>
   </g>
   <g id="line2d_19">
    <path d="M 613.224 368.244431 
L 613.224 367.906864 
" clip-path="url(#pb3dcf7b39c)" style="fill: none; stroke: #000000"/>
   </g>
   <g id="line2d_20">
    <path d="M 607.2786 368.62125 
L 619.1694 368.62125 
" clip-path="url(#pb3dcf7b39c)" style="fill: none; stroke: #000000; stroke-linecap: round"/>
   </g>
   <g id="line2d_21">
    <path d="M 607.2786 367.906864 
L 619.1694 367.906864 
" clip-path="url(#pb3dcf7b39c)" style="fill: none; stroke: #000000; stroke-linecap: round"/>
   </g>
   <g id="line2d_22">
    <path d="M 771.768 369.6261 
L 771.768 369.759557 
" clip-path="url(#pb3dcf7b39c)" style="fill: none; stroke: #000000"/>
   </g>
   <g id="line2d_23">
    <path d="M 771.768 369.518157 
L 771.768 369.359187 
" clip-path="url(#pb3dcf7b39c)" style="fill: none; stroke: #000000"/>
   </g>
   <g id="line2d_24">
    <path d="M 765.8226 369.759557 
L 777.7134 369.759557 
" clip-path="url(#pb3dcf7b39c)" style="fill: none; stroke: #000000; stroke-linecap: round"/>
   </g>
   <g id="line2d_25">
    <path d="M 765.8226 369.359187 
L 777.7134 369.359187 
" clip-path="url(#pb3dcf7b39c)" style="fill: none; stroke: #000000; stroke-linecap: round"/>
   </g>
   <g id="line2d_26">
    <path d="M 125.7012 369.398438 
L 149.4828 369.398438 
" clip-path="url(#pb3dcf7b39c)" style="fill: none; stroke: #ff0000; stroke-width: 2"/>
   </g>
   <g id="line2d_27">
    <path d="M 284.2452 369.610399 
L 308.0268 369.610399 
" clip-path="url(#pb3dcf7b39c)" style="fill: none; stroke: #ff0000; stroke-width: 2"/>
   </g>
   <g id="line2d_28">
    <path d="M 442.7892 364.177928 
L 466.5708 364.177928 
" clip-path="url(#pb3dcf7b39c)" style="fill: none; stroke: #ff0000; stroke-width: 2"/>
   </g>
   <g id="line2d_29">
    <path d="M 601.3332 368.43284 
L 625.1148 368.43284 
" clip-path="url(#pb3dcf7b39c)" style="fill: none; stroke: #ff0000; stroke-width: 2"/>
   </g>
   <g id="line2d_30">
    <path d="M 759.8772 369.578998 
L 783.6588 369.578998 
" clip-path="url(#pb3dcf7b39c)" style="fill: none; stroke: #ff0000; stroke-width: 2"/>
   </g>
   <g id="patch_3">
    <path d="M 58.32 395.14 
L 58.32 27.6 
" style="fill: none; stroke: #cccccc; stroke-width: 1.25; stroke-linejoin: miter; stroke-linecap: square"/>
   </g>
   <g id="patch_4">
    <path d="M 851.04 395.14 
L 851.04 27.6 
" style="fill: none; stroke: #cccccc; stroke-width: 1.25; stroke-linejoin: miter; stroke-linecap: square"/>
   </g>
   <g id="patch_5">
    <path d="M 58.32 395.14 
L 851.04 395.14 
" style="fill: none; stroke: #cccccc; stroke-width: 1.25; stroke-linejoin: miter; stroke-linecap: square"/>
   </g>
   <g id="patch_6">
    <path d="M 58.32 27.6 
L 851.04 27.6 
" style="fill: none; stroke: #cccccc; stroke-width: 1.25; stroke-linejoin: miter; stroke-linecap: square"/>
   </g>
   <g id="text_12">
    <!-- Handshake duration on QUIC with ed25519 signature algorithm — Backbone (200ms/4%) -->
    <g style="fill: #262626" transform="translate(185.743125 21.6) scale(0.12 -0.12)">
     <defs>
      <path id="DejaVuSans-51" d="M 2522 4238 
Q 1834 4238 1429 3725 
Q 1025 3213 1025 2328 
Q 1025 1447 1429 934 
Q 1834 422 2522 422 
Q 3209 422 3611 934 
Q 4013 1447 4013 2328 
Q 4013 3213 3611 3725 
Q 3209 4238 2522 4238 
z
M 3406 84 
L 4238 -825 
L 3475 -825 
L 2784 -78 
Q 2681 -84 2626 -87 
Q 2572 -91 2522 -91 
Q 1538 -91 948 567 
Q 359 1225 359 2328 
Q 359 3434 948 4092 
Q 1538 4750 2522 4750 
Q 3503 4750 4090 4092 
Q 4678 3434 4678 2328 
Q 4678 1516 4351 937 
Q 4025 359 3406 84 
z
" transform="scale(0.015625)"/>
      <path id="DejaVuSans-55" d="M 556 4666 
L 1191 4666 
L 1191 1831 
Q 1191 1081 1462 751 
Q 1734 422 2344 422 
Q 2950 422 3222 751 
Q 3494 1081 3494 1831 
L 3494 4666 
L 4128 4666 
L 4128 1753 
Q 4128 841 3676 375 
Q 3225 -91 2344 -91 
Q 1459 -91 1007 375 
Q 556 841 556 1753 
L 556 4666 
z
" transform="scale(0.015625)"/>
      <path id="DejaVuSans-49" d="M 628 4666 
L 1259 4666 
L 1259 0 
L 628 0 
L 628 4666 
z
" transform="scale(0.015625)"/>
      <path id="DejaVuSans-43" d="M 4122 4306 
L 4122 3641 
Q 3803 3938 3442 4084 
Q 3081 4231 2675 4231 
Q 1875 4231 1450 3742 
Q 1025 3253 1025 2328 
Q 1025 1406 1450 917 
Q 1875 428 2675 428 
Q 3081 428 3442 575 
Q 3803 722 4122 1019 
L 4122 359 
Q 3791 134 3420 21 
Q 3050 -91 2638 -91 
Q 1578 -91 968 557 
Q 359 1206 359 2328 
Q 359 3453 968 4101 
Q 1578 4750 2638 4750 
Q 3056 4750 3426 4639 
Q 3797 4528 4122 4306 
z
" transform="scale(0.015625)"/>
      <path id="DejaVuSans-77" d="M 269 3500 
L 844 3500 
L 1563 769 
L 2278 3500 
L 2956 3500 
L 3675 769 
L 4391 3500 
L 4966 3500 
L 4050 0 
L 3372 0 
L 2619 2869 
L 1863 0 
L 1184 0 
L 269 3500 
z
" transform="scale(0.015625)"/>
      <path id="DejaVuSans-67" d="M 2906 1791 
Q 2906 2416 2648 2759 
Q 2391 3103 1925 3103 
Q 1463 3103 1205 2759 
Q 947 2416 947 1791 
Q 947 1169 1205 825 
Q 1463 481 1925 481 
Q 2391 481 2648 825 
Q 2906 1169 2906 1791 
z
M 3481 434 
Q 3481 -459 3084 -895 
Q 2688 -1331 1869 -1331 
Q 1566 -1331 1297 -1286 
Q 1028 -1241 775 -1147 
L 775 -588 
Q 1028 -725 1275 -790 
Q 1522 -856 1778 -856 
Q 2344 -856 2625 -561 
Q 2906 -266 2906 331 
L 2906 616 
Q 2728 306 2450 153 
Q 2172 0 1784 0 
Q 1141 0 747 490 
Q 353 981 353 1791 
Q 353 2603 747 3093 
Q 1141 3584 1784 3584 
Q 2172 3584 2450 3431 
Q 2728 3278 2906 2969 
L 2906 3500 
L 3481 3500 
L 3481 434 
z
" transform="scale(0.015625)"/>
      <path id="DejaVuSans-2014" d="M 313 1978 
L 6088 1978 
L 6088 1528 
L 313 1528 
L 313 1978 
z
" transform="scale(0.015625)"/>
      <path id="DejaVuSans-42" d="M 1259 2228 
L 1259 519 
L 2272 519 
Q 2781 519 3026 730 
Q 3272 941 3272 1375 
Q 3272 1813 3026 2020 
Q 2781 2228 2272 2228 
L 1259 2228 
z
M 1259 4147 
L 1259 2741 
L 2194 2741 
Q 2656 2741 2882 2914 
Q 3109 3088 3109 3444 
Q 3109 3797 2882 3972 
Q 2656 4147 2194 4147 
L 1259 4147 
z
M 628 4666 
L 2241 4666 
Q 2963 4666 3353 4366 
Q 3744 4066 3744 3513 
Q 3744 3084 3544 2831 
Q 3344 2578 2956 2516 
Q 3422 2416 3680 2098 
Q 3938 1781 3938 1306 
Q 3938 681 3513 340 
Q 3088 0 2303 0 
L 628 0 
L 628 4666 
z
" transform="scale(0.015625)"/>
      <path id="DejaVuSans-63" d="M 3122 3366 
L 3122 2828 
Q 2878 2963 2633 3030 
Q 2388 3097 2138 3097 
Q 1578 3097 1268 2742 
Q 959 2388 959 1747 
Q 959 1106 1268 751 
Q 1578 397 2138 397 
Q 2388 397 2633 464 
Q 2878 531 3122 666 
L 3122 134 
Q 2881 22 2623 -34 
Q 2366 -91 2075 -91 
Q 1284 -91 818 406 
Q 353 903 353 1747 
Q 353 2603 823 3093 
Q 1294 3584 2113 3584 
Q 2378 3584 2631 3529 
Q 2884 3475 3122 3366 
z
" transform="scale(0.015625)"/>
      <path id="DejaVuSans-62" d="M 3116 1747 
Q 3116 2381 2855 2742 
Q 2594 3103 2138 3103 
Q 1681 3103 1420 2742 
Q 1159 2381 1159 1747 
Q 1159 1113 1420 752 
Q 1681 391 2138 391 
Q 2594 391 2855 752 
Q 3116 1113 3116 1747 
z
M 1159 2969 
Q 1341 3281 1617 3432 
Q 1894 3584 2278 3584 
Q 2916 3584 3314 3078 
Q 3713 2572 3713 1747 
Q 3713 922 3314 415 
Q 2916 -91 2278 -91 
Q 1894 -91 1617 61 
Q 1341 213 1159 525 
L 1159 0 
L 581 0 
L 581 4863 
L 1159 4863 
L 1159 2969 
z
" transform="scale(0.015625)"/>
      <path id="DejaVuSans-2f" d="M 1625 4666 
L 2156 4666 
L 531 -594 
L 0 -594 
L 1625 4666 
z
" transform="scale(0.015625)"/>
      <path id="DejaVuSans-25" d="M 4653 2053 
Q 4381 2053 4226 1822 
Q 4072 1591 4072 1178 
Q 4072 772 4226 539 
Q 4381 306 4653 306 
Q 4919 306 5073 539 
Q 5228 772 5228 1178 
Q 5228 1588 5073 1820 
Q 4919 2053 4653 2053 
z
M 4653 2450 
Q 5147 2450 5437 2106 
Q 5728 1763 5728 1178 
Q 5728 594 5436 251 
Q 5144 -91 4653 -91 
Q 4153 -91 3862 251 
Q 3572 594 3572 1178 
Q 3572 1766 3864 2108 
Q 4156 2450 4653 2450 
z
M 1428 4353 
Q 1159 4353 1004 4120 
Q 850 3888 850 3481 
Q 850 3069 1003 2837 
Q 1156 2606 1428 2606 
Q 1700 2606 1854 2837 
Q 2009 3069 2009 3481 
Q 2009 3884 1853 4118 
Q 1697 4353 1428 4353 
z
M 4250 4750 
L 4750 4750 
L 1831 -91 
L 1331 -91 
L 4250 4750 
z
M 1428 4750 
Q 1922 4750 2215 4408 
Q 2509 4066 2509 3481 
Q 2509 2891 2217 2550 
Q 1925 2209 1428 2209 
Q 931 2209 642 2551 
Q 353 2894 353 3481 
Q 353 4063 643 4406 
Q 934 4750 1428 4750 
z
" transform="scale(0.015625)"/>
     </defs>
     <use xlink:href="#DejaVuSans-48"/>
     <use xlink:href="#DejaVuSans-61" x="75.195312"/>
     <use xlink:href="#DejaVuSans-6e" x="136.474609"/>
     <use xlink:href="#DejaVuSans-64" x="199.853516"/>
     <use xlink:href="#DejaVuSans-73" x="263.330078"/>
     <use xlink:href="#DejaVuSans-68" x="315.429688"/>
     <use xlink:href="#DejaVuSans-61" x="378.808594"/>
     <use xlink:href="#DejaVuSans-6b" x="440.087891"/>
     <use xlink:href="#DejaVuSans-65" x="494.373047"/>
     <use xlink:href="#DejaVuSans-20" x="555.896484"/>
     <use xlink:href="#DejaVuSans-64" x="587.683594"/>
     <use xlink:href="#DejaVuSans-75" x="651.160156"/>
     <use xlink:href="#DejaVuSans-72" x="714.539062"/>
     <use xlink:href="#DejaVuSans-61" x="755.652344"/>
     <use xlink:href="#DejaVuSans-74" x="816.931641"/>
     <use xlink:href="#DejaVuSans-69" x="856.140625"/>
     <use xlink:href="#DejaVuSans-6f" x="883.923828"/>
     <use xlink:href="#DejaVuSans-6e" x="945.105469"/>
     <use xlink:href="#DejaVuSans-20" x="1008.484375"/>
     <use xlink:href="#DejaVuSans-6f" x="1040.271484"/>
     <use xlink:href="#DejaVuSans-6e" x="1101.453125"/>
     <use xlink:href="#DejaVuSans-20" x="1164.832031"/>
     <use xlink:href="#DejaVuSans-51" x="1196.619141"/>
     <use xlink:href="#DejaVuSans-55" x="1275.330078"/>
     <use xlink:href="#DejaVuSans-49" x="1348.523438"/>
     <use xlink:href="#DejaVuSans-43" x="1378.015625"/>
     <use xlink:href="#DejaVuSans-20" x="1447.839844"/>
     <use xlink:href="#DejaVuSans-77" x="1479.626953"/>
     <use xlink:href="#DejaVuSans-69" x="1561.414062"/>
     <use xlink:href="#DejaVuSans-74" x="1589.197266"/>
     <use xlink:href="#DejaVuSans-68" x="1628.40625"/>
     <use xlink:href="#DejaVuSans-20" x="1691.785156"/>
     <use xlink:href="#DejaVuSans-65" x="1723.572266"/>
     <use xlink:href="#DejaVuSans-64" x="1785.095703"/>
     <use xlink:href="#DejaVuSans-32" x="1848.572266"/>
     <use xlink:href="#DejaVuSans-35" x="1912.195312"/>
     <use xlink:href="#DejaVuSans-35" x="1975.818359"/>
     <use xlink:href="#DejaVuSans-31" x="2039.441406"/>
     <use xlink:href="#DejaVuSans-39" x="2103.064453"/>
     <use xlink:href="#DejaVuSans-20" x="2166.6875"/>
     <use xlink:href="#DejaVuSans-73" x="2198.474609"/>
     <use xlink:href="#DejaVuSans-69" x="2250.574219"/>
     <use xlink:href="#DejaVuSans-67" x="2278.357422"/>
     <use xlink:href="#DejaVuSans-6e" x="2341.833984"/>
     <use xlink:href="#DejaVuSans-61" x="2405.212891"/>
     <use xlink:href="#DejaVuSans-74" x="2466.492188"/>
     <use xlink:href="#DejaVuSans-75" x="2505.701172"/>
     <use xlink:href="#DejaVuSans-72" x="2569.080078"/>
     <use xlink:href="#DejaVuSans-65" x="2607.943359"/>
     <use xlink:href="#DejaVuSans-20" x="2669.466797"/>
     <use xlink:href="#DejaVuSans-61" x="2701.253906"/>
     <use xlink:href="#DejaVuSans-6c" x="2762.533203"/>
     <use xlink:href="#DejaVuSans-67" x="2790.316406"/>
     <use xlink:href="#DejaVuSans-6f" x="2853.792969"/>
     <use xlink:href="#DejaVuSans-72" x="2914.974609"/>
     <use xlink:href="#DejaVuSans-69" x="2956.087891"/>
     <use xlink:href="#DejaVuSans-74" x="2983.871094"/>
     <use xlink:href="#DejaVuSans-68" x="3023.080078"/>
     <use xlink:href="#DejaVuSans-6d" x="3086.458984"/>
     <use xlink:href="#DejaVuSans-20" x="3183.871094"/>
     <use xlink:href="#DejaVuSans-2014" x="3215.658203"/>
     <use xlink:href="#DejaVuSans-20" x="3315.658203"/>
     <use xlink:href="#DejaVuSans-42" x="3347.445312"/>
     <use xlink:href="#DejaVuSans-61" x="3416.048828"/>
     <use xlink:href="#DejaVuSans-63" x="3477.328125"/>
     <use xlink:href="#DejaVuSans-6b" x="3532.308594"/>
     <use xlink:href="#DejaVuSans-62" x="3590.21875"/>
     <use xlink:href="#DejaVuSans-6f" x="3653.695312"/>
     <use xlink:href="#DejaVuSans-6e" x="3714.876953"/>
     <use xlink:href="#DejaVuSans-65" x="3778.255859"/>
     <use xlink:href="#DejaVuSans-20" x="3839.779297"/>
     <use xlink:href="#DejaVuSans-28" x="3871.566406"/>
     <use xlink:href="#DejaVuSans-32" x="3910.580078"/>
     <use xlink:href="#DejaVuSans-30" x="3974.203125"/>
     <use xlink:href="#DejaVuSans-30" x="4037.826172"/>
     <use xlink:href="#DejaVuSans-6d" x="4101.449219"/>
     <use xlink:href="#DejaVuSans-73" x="4198.861328"/>
     <use xlink:href="#DejaVuSans-2f" x="4250.960938"/>
     <use xlink:href="#DejaVuSans-34" x="4284.652344"/>
     <use xlink:href="#DejaVuSans-25" x="4348.275391"/>
     <use xlink:href="#DejaVuSans-29" x="4443.294922"/>
    </g>
   </g>
  </g>
 </g>
 <defs>
  <clipPath id="pb3dcf7b39c">
   <rect x="58.32" y="27.6" width="792.72" height="367.54"/>
  </clipPath>
 </defs>
</svg>
