<?xml version="1.0" encoding="utf-8" standalone="no"?>
<!DOCTYPE svg PUBLIC "-//W3C//DTD SVG 1.1//EN"
  "http://www.w3.org/Graphics/SVG/1.1/DTD/svg11.dtd">
<svg xmlns:xlink="http://www.w3.org/1999/xlink" width="864pt" height="432pt" viewBox="0 0 864 432" xmlns="http://www.w3.org/2000/svg" version="1.1">
 <metadata>
  <rdf:RDF xmlns:dc="http://purl.org/dc/elements/1.1/" xmlns:cc="http://creativecommons.org/ns#" xmlns:rdf="http://www.w3.org/1999/02/22-rdf-syntax-ns#">
   <cc:Work>
    <dc:type rdf:resource="http://purl.org/dc/dcmitype/StillImage"/>
    <dc:date>2026-03-21T13:58:51.332177</dc:date>
    <dc:format>image/svg+xml</dc:format>
    <dc:creator>
     <cc:Agent>
      <dc:title>Matplotlib v3.6.3, https://matplotlib.org/</dc:title>
     </cc:Agent>
    </dc:creator>
   </cc:Work>
  </rdf:RDF>
 </metadata>
 <defs>
  <style type="text/css">*{stroke-linejoin: round; stroke-linecap: butt}</style>
 </defs>
 <g id="figure_1">
  <g id="patch_1">
   <path d="M 0 432 
L 864 432 
L 864 0 
L 0 0 
z
" style="fill: #ffffff"/>
  </g>
  <g id="axes_1">
   <g id="patch_2">
    <path d="M 58.32 395.14 
L 851.04 395.14 
L 851.04 27.6 
L 58.32 27.6 
z
" style="fill: #ffffff"/>
   </g>
   <g id="matplotlib.axis_1">
    <g id="xtick_1">
     <g id="text_1">
      <!-- P-256 -->
      <g style="fill: #262626" transform="translate(117.642 415.277812) scale(0.14 -0.14)">
       <defs>
        <path id="DejaVuSans-50" d="M 1259 4147 
L 1259 2394 
L 2053 2394 
Q 2494 2394 2734 2622 
Q 2975 2850 2975 3272 
Q 2975 3691 2734 3919 
Q 2494 4147 2053 4147 
L 1259 4147 
z
M 628 4666 
L 2053 4666 
Q 2838 4666 3239 4311 
Q 3641 3956 3641 3272 
Q 3641 2581 3239 2228 
Q 2838 1875 2053 1875 
L 1259 1875 
L 1259 0 
L 628 0 
L 628 4666 
z
" transform="scale(0.015625)"/>
        <path id="DejaVuSans-2d" d="M 313 2009 
L 1997 2009 
L 1997 1497 
L 313 1497 
L 313 2009 
z
" transform="scale(0.015625)"/>
        <path id="DejaVuSans-32" d="M 1228 531 
L 3431 531 
L 3431 0 
L 469 0 
L 469 531 
Q 828 903 1448 1529 
Q 2069 2156 2228 2338 
Q 2531 2678 2651 2914 
Q 2772 3150 2772 3378 
Q 2772 3750 2511 3984 
Q 2250 4219 1831 4219 
Q 1534 4219 1204 4116 
Q 875 4013 500 3803 
L 500 4441 
Q 881 4594 1212 4672 
Q 1544 4750 1819 4750 
Q 2544 4750 2975 4387 
Q 3406 4025 3406 3419 
Q 3406 3131 3298 2873 
Q 3191 2616 2906 2266 
Q 2828 2175 2409 1742 
Q 1991 1309 1228 531 
z
" transform="scale(0.015625)"/>
        <path id="DejaVuSans-35" d="M 691 4666 
L 3169 4666 
L 3169 4134 
L 1269 4134 
L 1269 2991 
Q 1406 3038 1543 3061 
Q 1681 3084 1819 3084 
Q 2600 3084 3056 2656 
Q 3513 2228 3513 1497 
Q 3513 744 3044 326 
Q 2575 -91 1722 -91 
Q 1428 -91 1123 -41 
Q 819 9 494 109 
L 494 744 
Q 775 591 1075 516 
Q 1375 441 1709 441 
Q 2250 441 2565 725 
Q 2881 1009 2881 1497 
Q 2881 1984 2565 2268 
Q 2250 2553 1709 2553 
Q 1456 2553 1204 2497 
Q 953 2441 691 2322 
L 691 4666 
z
" transform="scale(0.015625)"/>
        <path id="DejaVuSans-36" d="M 2113 2584 
Q 1688 2584 1439 2293 
Q 1191 2003 1191 1497 
Q 1191 994 1439 701 
Q 1688 409 2113 409 
Q 2538 409 2786 701 
Q 3034 994 3034 1497 
Q 3034 2003 2786 2293 
Q 2538 2584 2113 2584 
z
M 3366 4563 
L 3366 3988 
Q 3128 4100 2886 4159 
Q 2644 4219 2406 4219 
Q 1781 4219 1451 3797 
Q 1122 3375 1075 2522 
Q 1259 2794 1537 2939 
Q 1816 3084 2150 3084 
Q 2853 3084 3261 2657 
Q 3669 2231 3669 1497 
Q 3669 778 3244 343 
Q 2819 -91 2113 -91 
Q 1303 -91 875 529 
Q 447 1150 447 2328 
Q 447 3434 972 4092 
Q 1497 4750 2381 4750 
Q 2619 4750 2861 4703 
Q 3103 4656 3366 4563 
z
" transform="scale(0.015625)"/>
       </defs>
       <use xlink:href="#DejaVuSans-50"/>
       <use xlink:href="#DejaVuSans-2d" x="58.052734"/>
       <use xlink:href="#DejaVuSans-32" x="94.136719"/>
       <use xlink:href="#DejaVuSans-35" x="157.759766"/>
       <use xlink:href="#DejaVuSans-36" x="221.382812"/>
      </g>
     </g>
    </g>
    <g id="xtick_2">
     <g id="text_2">
      <!-- x25519 -->
      <g style="fill: #262626" transform="translate(269.724125 415.277812) scale(0.14 -0.14)">
       <defs>
        <path id="DejaVuSans-78" d="M 3513 3500 
L 2247 1797 
L 3578 0 
L 2900 0 
L 1881 1375 
L 863 0 
L 184 0 
L 1544 1831 
L 300 3500 
L 978 3500 
L 1906 2253 
L 2834 3500 
L 3513 3500 
z
" transform="scale(0.015625)"/>
        <path id="DejaVuSans-31" d="M 794 531 
L 1825 531 
L 1825 4091 
L 703 3866 
L 703 4441 
L 1819 4666 
L 2450 4666 
L 2450 531 
L 3481 531 
L 3481 0 
L 794 0 
L 794 531 
z
" transform="scale(0.015625)"/>
        <path id="DejaVuSans-39" d="M 703 97 
L 703 672 
Q 941 559 1184 500 
Q 1428 441 1663 441 
Q 2288 441 2617 861 
Q 2947 1281 2994 2138 
Q 2813 1869 2534 1725 
Q 2256 1581 1919 1581 
Q 1219 1581 811 2004 
Q 403 2428 403 3163 
Q 403 3881 828 4315 
Q 1253 4750 1959 4750 
Q 2769 4750 3195 4129 
Q 3622 3509 3622 2328 
Q 3622 1225 3098 567 
Q 2575 -91 1691 -91 
Q 1453 -91 1209 -44 
Q 966 3 703 97 
z
M 1959 2075 
Q 2384 2075 2632 2365 
Q 2881 2656 2881 3163 
Q 2881 3666 2632 3958 
Q 2384 4250 1959 4250 
Q 1534 4250 1286 3958 
Q 1038 3666 1038 3163 
Q 1038 2656 1286 2365 
Q 1534 2075 1959 2075 
z
" transform="scale(0.015625)"/>
       </defs>
       <use xlink:href="#DejaVuSans-78"/>
       <use xlink:href="#DejaVuSans-32" x="59.179688"/>
       <use xlink:href="#DejaVuSans-35" x="122.802734"/>
       <use xlink:href="#DejaVuSans-35" x="186.425781"/>
       <use xlink:href="#DejaVuSans-31" x="250.048828"/>
       <use xlink:href="#DejaVuSans-39" x="313.671875"/>
      </g>
     </g>
    </g>
    <g id="xtick_3">
     <g id="text_3">
      <!-- p256_mlkem512 -->
      <g style="fill: #262626" transform="translate(396.325156 415.277812) scale(0.14 -0.14)">
       <defs>
        <path id="DejaVuSans-70" d="M 1159 525 
L 1159 -1331 
L 581 -1331 
L 581 3500 
L 1159 3500 
L 1159 2969 
Q 1341 3281 1617 3432 
Q 1894 3584 2278 3584 
Q 2916 3584 3314 3078 
Q 3713 2572 3713 1747 
Q 3713 922 3314 415 
Q 2916 -91 2278 -91 
Q 1894 -91 1617 61 
Q 1341 213 1159 525 
z
M 3116 1747 
Q 3116 2381 2855 2742 
Q 2594 3103 2138 3103 
Q 1681 3103 1420 2742 
Q 1159 2381 1159 1747 
Q 1159 1113 1420 752 
Q 1681 391 2138 391 
Q 2594 391 2855 752 
Q 3116 1113 3116 1747 
z
" transform="scale(0.015625)"/>
        <path id="DejaVuSans-5f" d="M 3263 -1063 
L 3263 -1509 
L -63 -1509 
L -63 -1063 
L 3263 -1063 
z
" transform="scale(0.015625)"/>
        <path id="DejaVuSans-6d" d="M 3328 2828 
Q 3544 3216 3844 3400 
Q 4144 3584 4550 3584 
Q 5097 3584 5394 3201 
Q 5691 2819 5691 2113 
L 5691 0 
L 5113 0 
L 5113 2094 
Q 5113 2597 4934 2840 
Q 4756 3084 4391 3084 
Q 3944 3084 3684 2787 
Q 3425 2491 3425 1978 
L 3425 0 
L 2847 0 
L 2847 2094 
Q 2847 2600 2669 2842 
Q 2491 3084 2119 3084 
Q 1678 3084 1418 2786 
Q 1159 2488 1159 1978 
L 1159 0 
L 581 0 
L 581 3500 
L 1159 3500 
L 1159 2956 
Q 1356 3278 1631 3431 
Q 1906 3584 2284 3584 
Q 2666 3584 2933 3390 
Q 3200 3197 3328 2828 
z
" transform="scale(0.015625)"/>
        <path id="DejaVuSans-6c" d="M 603 4863 
L 1178 4863 
L 1178 0 
L 603 0 
L 603 4863 
z
" transform="scale(0.015625)"/>
        <path id="DejaVuSans-6b" d="M 581 4863 
L 1159 4863 
L 1159 1991 
L 2875 3500 
L 3609 3500 
L 1753 1863 
L 3688 0 
L 2938 0 
L 1159 1709 
L 1159 0 
L 581 0 
L 581 4863 
z
" transform="scale(0.015625)"/>
        <path id="DejaVuSans-65" d="M 3597 1894 
L 3597 1613 
L 953 1613 
Q 991 1019 1311 708 
Q 1631 397 2203 397 
Q 2534 397 2845 478 
Q 3156 559 3463 722 
L 3463 178 
Q 3153 47 2828 -22 
Q 2503 -91 2169 -91 
Q 1331 -91 842 396 
Q 353 884 353 1716 
Q 353 2575 817 3079 
Q 1281 3584 2069 3584 
Q 2775 3584 3186 3129 
Q 3597 2675 3597 1894 
z
M 3022 2063 
Q 3016 2534 2758 2815 
Q 2500 3097 2075 3097 
Q 1594 3097 1305 2825 
Q 1016 2553 972 2059 
L 3022 2063 
z
" transform="scale(0.015625)"/>
       </defs>
       <use xlink:href="#DejaVuSans-70"/>
       <use xlink:href="#DejaVuSans-32" x="63.476562"/>
       <use xlink:href="#DejaVuSans-35" x="127.099609"/>
       <use xlink:href="#DejaVuSans-36" x="190.722656"/>
       <use xlink:href="#DejaVuSans-5f" x="254.345703"/>
       <use xlink:href="#DejaVuSans-6d" x="304.345703"/>
       <use xlink:href="#DejaVuSans-6c" x="401.757812"/>
       <use xlink:href="#DejaVuSans-6b" x="429.541016"/>
       <use xlink:href="#DejaVuSans-65" x="483.826172"/>
       <use xlink:href="#DejaVuSans-6d" x="545.349609"/>
       <use xlink:href="#DejaVuSans-35" x="642.761719"/>
       <use xlink:href="#DejaVuSans-31" x="706.384766"/>
       <use xlink:href="#DejaVuSans-32" x="770.007812"/>
      </g>
     </g>
    </g>
    <g id="xtick_4">
     <g id="text_4">
      <!-- x25519_mlkem512 -->
      <g style="fill: #262626" transform="translate(546.262437 415.277812) scale(0.14 -0.14)">
       <use xlink:href="#DejaVuSans-78"/>
       <use xlink:href="#DejaVuSans-32" x="59.179688"/>
       <use xlink:href="#DejaVuSans-35" x="122.802734"/>
       <use xlink:href="#DejaVuSans-35" x="186.425781"/>
       <use xlink:href="#DejaVuSans-31" x="250.048828"/>
       <use xlink:href="#DejaVuSans-39" x="313.671875"/>
       <use xlink:href="#DejaVuSans-5f" x="377.294922"/>
       <use xlink:href="#DejaVuSans-6d" x="427.294922"/>
       <use xlink:href="#DejaVuSans-6c" x="524.707031"/>
       <use xlink:href="#DejaVuSans-6b" x="552.490234"/>
       <use xlink:href="#DejaVuSans-65" x="606.775391"/>
       <use xlink:href="#DejaVuSans-6d" x="668.298828"/>
       <use xlink:href="#DejaVuSans-35" x="765.710938"/>
       <use xlink:href="#DejaVuSans-31" x="829.333984"/>
       <use xlink:href="#DejaVuSans-32" x="892.957031"/>
      </g>
     </g>
    </g>
    <g id="xtick_5">
     <g id="text_5">
      <!-- mlkem512 -->
      <g style="fill: #262626" transform="translate(734.718312 415.277812) scale(0.14 -0.14)">
       <use xlink:href="#DejaVuSans-6d"/>
       <use xlink:href="#DejaVuSans-6c" x="97.412109"/>
       <use xlink:href="#DejaVuSans-6b" x="125.195312"/>
       <use xlink:href="#DejaVuSans-65" x="179.480469"/>
       <use xlink:href="#DejaVuSans-6d" x="241.003906"/>
       <use xlink:href="#DejaVuSans-35" x="338.416016"/>
       <use xlink:href="#DejaVuSans-31" x="402.039062"/>
       <use xlink:href="#DejaVuSans-32" x="465.662109"/>
      </g>
     </g>
    </g>
   </g>
   <g id="matplotlib.axis_2">
    <g id="ytick_1">
     <g id="line2d_1">
      <path d="M 58.32 371.023639 
L 851.04 371.023639 
" clip-path="url(#p879d1fc151)" style="fill: none; stroke: #cccccc; stroke-linecap: round"/>
     </g>
     <g id="text_6">
      <!-- 400 -->
      <g style="fill: #262626" transform="translate(27.82375 375.20278) scale(0.11 -0.11)">
       <defs>
        <path id="DejaVuSans-34" d="M 2419 4116 
L 825 1625 
L 2419 1625 
L 2419 4116 
z
M 2253 4666 
L 3047 4666 
L 3047 1625 
L 3713 1625 
L 3713 1100 
L 3047 1100 
L 3047 0 
L 2419 0 
L 2419 1100 
L 313 1100 
L 313 1709 
L 2253 4666 
z
" transform="scale(0.015625)"/>
        <path id="DejaVuSans-30" d="M 2034 4250 
Q 1547 4250 1301 3770 
Q 1056 3291 1056 2328 
Q 1056 1369 1301 889 
Q 1547 409 2034 409 
Q 2525 409 2770 889 
Q 3016 1369 3016 2328 
Q 3016 3291 2770 3770 
Q 2525 4250 2034 4250 
z
M 2034 4750 
Q 2819 4750 3233 4129 
Q 3647 3509 3647 2328 
Q 3647 1150 3233 529 
Q 2819 -91 2034 -91 
Q 1250 -91 836 529 
Q 422 1150 422 2328 
Q 422 3509 836 4129 
Q 1250 4750 2034 4750 
z
" transform="scale(0.015625)"/>
       </defs>
       <use xlink:href="#DejaVuSans-34"/>
       <use xlink:href="#DejaVuSans-30" x="63.623047"/>
       <use xlink:href="#DejaVuSans-30" x="127.246094"/>
      </g>
     </g>
    </g>
    <g id="ytick_2">
     <g id="line2d_2">
      <path d="M 58.32 294.068068 
L 851.04 294.068068 
" clip-path="url(#p879d1fc151)" style="fill: none; stroke: #cccccc; stroke-linecap: round"/>
     </g>
     <g id="text_7">
      <!-- 500 -->
      <g style="fill: #262626" transform="translate(27.82375 298.247209) scale(0.11 -0.11)">
       <use xlink:href="#DejaVuSans-35"/>
       <use xlink:href="#DejaVuSans-30" x="63.623047"/>
       <use xlink:href="#DejaVuSans-30" x="127.246094"/>
      </g>
     </g>
    </g>
    <g id="ytick_3">
     <g id="line2d_3">
      <path d="M 58.32 217.112498 
L 851.04 217.112498 
" clip-path="url(#p879d1fc151)" style="fill: none; stroke: #cccccc; stroke-linecap: round"/>
     </g>
     <g id="text_8">
      <!-- 600 -->
      <g style="fill: #262626" transform="translate(27.82375 221.291638) scale(0.11 -0.11)">
       <use xlink:href="#DejaVuSans-36"/>
       <use xlink:href="#DejaVuSans-30" x="63.623047"/>
       <use xlink:href="#DejaVuSans-30" x="127.246094"/>
      </g>
     </g>
    </g>
    <g id="ytick_4">
     <g id="line2d_4">
      <path d="M 58.32 140.156927 
L 851.04 140.156927 
" clip-path="url(#p879d1fc151)" style="fill: none; stroke: #cccccc; stroke-linecap: round"/>
     </g>
     <g id="text_9">
      <!-- 700 -->
      <g style="fill: #262626" transform="translate(27.82375 144.336068) scale(0.11 -0.11)">
       <defs>
        <path id="DejaVuSans-37" d="M 525 4666 
L 3525 4666 
L 3525 4397 
L 1831 0 
L 1172 0 
L 2766 4134 
L 525 4134 
L 525 4666 
z
" transform="scale(0.015625)"/>
       </defs>
       <use xlink:href="#DejaVuSans-37"/>
       <use xlink:href="#DejaVuSans-30" x="63.623047"/>
       <use xlink:href="#DejaVuSans-30" x="127.246094"/>
      </g>
     </g>
    </g>
    <g id="ytick_5">
     <g id="line2d_5">
      <path d="M 58.32 63.201356 
L 851.04 63.201356 
" clip-path="url(#p879d1fc151)" style="fill: none; stroke: #cccccc; stroke-linecap: round"/>
     </g>
     <g id="text_10">
      <!-- 800 -->
      <g style="fill: #262626" transform="translate(27.82375 67.380497) scale(0.11 -0.11)">
       <defs>
        <path id="DejaVuSans-38" d="M 2034 2216 
Q 1584 2216 1326 1975 
Q 1069 1734 1069 1313 
Q 1069 891 1326 650 
Q 1584 409 2034 409 
Q 2484 409 2743 651 
Q 3003 894 3003 1313 
Q 3003 1734 2745 1975 
Q 2488 2216 2034 2216 
z
M 1403 2484 
Q 997 2584 770 2862 
Q 544 3141 544 3541 
Q 544 4100 942 4425 
Q 1341 4750 2034 4750 
Q 2731 4750 3128 4425 
Q 3525 4100 3525 3541 
Q 3525 3141 3298 2862 
Q 3072 2584 2669 2484 
Q 3125 2378 3379 2068 
Q 3634 1759 3634 1313 
Q 3634 634 3220 271 
Q 2806 -91 2034 -91 
Q 1263 -91 848 271 
Q 434 634 434 1313 
Q 434 1759 690 2068 
Q 947 2378 1403 2484 
z
M 1172 3481 
Q 1172 3119 1398 2916 
Q 1625 2713 2034 2713 
Q 2441 2713 2670 2916 
Q 2900 3119 2900 3481 
Q 2900 3844 2670 4047 
Q 2441 4250 2034 4250 
Q 1625 4250 1398 4047 
Q 1172 3844 1172 3481 
z
" transform="scale(0.015625)"/>
       </defs>
       <use xlink:href="#DejaVuSans-38"/>
       <use xlink:href="#DejaVuSans-30" x="63.623047"/>
       <use xlink:href="#DejaVuSans-30" x="127.246094"/>
      </g>
     </g>
    </g>
    <g id="text_11">
     <!-- Handshake duration (ms) -->
     <g style="fill: #262626" transform="translate(21.328125 287.437813) rotate(-90) scale(0.12 -0.12)">
      <defs>
       <path id="DejaVuSans-48" d="M 628 4666 
L 1259 4666 
L 1259 2753 
L 3553 2753 
L 3553 4666 
L 4184 4666 
L 4184 0 
L 3553 0 
L 3553 2222 
L 1259 2222 
L 1259 0 
L 628 0 
L 628 4666 
z
" transform="scale(0.015625)"/>
       <path id="DejaVuSans-61" d="M 2194 1759 
Q 1497 1759 1228 1600 
Q 959 1441 959 1056 
Q 959 750 1161 570 
Q 1363 391 1709 391 
Q 2188 391 2477 730 
Q 2766 1069 2766 1631 
L 2766 1759 
L 2194 1759 
z
M 3341 1997 
L 3341 0 
L 2766 0 
L 2766 531 
Q 2569 213 2275 61 
Q 1981 -91 1556 -91 
Q 1019 -91 701 211 
Q 384 513 384 1019 
Q 384 1609 779 1909 
Q 1175 2209 1959 2209 
L 2766 2209 
L 2766 2266 
Q 2766 2663 2505 2880 
Q 2244 3097 1772 3097 
Q 1472 3097 1187 3025 
Q 903 2953 641 2809 
L 641 3341 
Q 956 3463 1253 3523 
Q 1550 3584 1831 3584 
Q 2591 3584 2966 3190 
Q 3341 2797 3341 1997 
z
" transform="scale(0.015625)"/>
       <path id="DejaVuSans-6e" d="M 3513 2113 
L 3513 0 
L 2938 0 
L 2938 2094 
Q 2938 2591 2744 2837 
Q 2550 3084 2163 3084 
Q 1697 3084 1428 2787 
Q 1159 2491 1159 1978 
L 1159 0 
L 581 0 
L 581 3500 
L 1159 3500 
L 1159 2956 
Q 1366 3272 1645 3428 
Q 1925 3584 2291 3584 
Q 2894 3584 3203 3211 
Q 3513 2838 3513 2113 
z
" transform="scale(0.015625)"/>
       <path id="DejaVuSans-64" d="M 2906 2969 
L 2906 4863 
L 3481 4863 
L 3481 0 
L 2906 0 
L 2906 525 
Q 2725 213 2448 61 
Q 2172 -91 1784 -91 
Q 1150 -91 751 415 
Q 353 922 353 1747 
Q 353 2572 751 3078 
Q 1150 3584 1784 3584 
Q 2172 3584 2448 3432 
Q 2725 3281 2906 2969 
z
M 947 1747 
Q 947 1113 1208 752 
Q 1469 391 1925 391 
Q 2381 391 2643 752 
Q 2906 1113 2906 1747 
Q 2906 2381 2643 2742 
Q 2381 3103 1925 3103 
Q 1469 3103 1208 2742 
Q 947 2381 947 1747 
z
" transform="scale(0.015625)"/>
       <path id="DejaVuSans-73" d="M 2834 3397 
L 2834 2853 
Q 2591 2978 2328 3040 
Q 2066 3103 1784 3103 
Q 1356 3103 1142 2972 
Q 928 2841 928 2578 
Q 928 2378 1081 2264 
Q 1234 2150 1697 2047 
L 1894 2003 
Q 2506 1872 2764 1633 
Q 3022 1394 3022 966 
Q 3022 478 2636 193 
Q 2250 -91 1575 -91 
Q 1294 -91 989 -36 
Q 684 19 347 128 
L 347 722 
Q 666 556 975 473 
Q 1284 391 1588 391 
Q 1994 391 2212 530 
Q 2431 669 2431 922 
Q 2431 1156 2273 1281 
Q 2116 1406 1581 1522 
L 1381 1569 
Q 847 1681 609 1914 
Q 372 2147 372 2553 
Q 372 3047 722 3315 
Q 1072 3584 1716 3584 
Q 2034 3584 2315 3537 
Q 2597 3491 2834 3397 
z
" transform="scale(0.015625)"/>
       <path id="DejaVuSans-68" d="M 3513 2113 
L 3513 0 
L 2938 0 
L 2938 2094 
Q 2938 2591 2744 2837 
Q 2550 3084 2163 3084 
Q 1697 3084 1428 2787 
Q 1159 2491 1159 1978 
L 1159 0 
L 581 0 
L 581 4863 
L 1159 4863 
L 1159 2956 
Q 1366 3272 1645 3428 
Q 1925 3584 2291 3584 
Q 2894 3584 3203 3211 
Q 3513 2838 3513 2113 
z
" transform="scale(0.015625)"/>
       <path id="DejaVuSans-20" transform="scale(0.015625)"/>
       <path id="DejaVuSans-75" d="M 544 1381 
L 544 3500 
L 1119 3500 
L 1119 1403 
Q 1119 906 1312 657 
Q 1506 409 1894 409 
Q 2359 409 2629 706 
Q 2900 1003 2900 1516 
L 2900 3500 
L 3475 3500 
L 3475 0 
L 2900 0 
L 2900 538 
Q 2691 219 2414 64 
Q 2138 -91 1772 -91 
Q 1169 -91 856 284 
Q 544 659 544 1381 
z
M 1991 3584 
L 1991 3584 
z
" transform="scale(0.015625)"/>
       <path id="DejaVuSans-72" d="M 2631 2963 
Q 2534 3019 2420 3045 
Q 2306 3072 2169 3072 
Q 1681 3072 1420 2755 
Q 1159 2438 1159 1844 
L 1159 0 
L 581 0 
L 581 3500 
L 1159 3500 
L 1159 2956 
Q 1341 3275 1631 3429 
Q 1922 3584 2338 3584 
Q 2397 3584 2469 3576 
Q 2541 3569 2628 3553 
L 2631 2963 
z
" transform="scale(0.015625)"/>
       <path id="DejaVuSans-74" d="M 1172 4494 
L 1172 3500 
L 2356 3500 
L 2356 3053 
L 1172 3053 
L 1172 1153 
Q 1172 725 1289 603 
Q 1406 481 1766 481 
L 2356 481 
L 2356 0 
L 1766 0 
Q 1100 0 847 248 
Q 594 497 594 1153 
L 594 3053 
L 172 3053 
L 172 3500 
L 594 3500 
L 594 4494 
L 1172 4494 
z
" transform="scale(0.015625)"/>
       <path id="DejaVuSans-69" d="M 603 3500 
L 1178 3500 
L 1178 0 
L 603 0 
L 603 3500 
z
M 603 4863 
L 1178 4863 
L 1178 4134 
L 603 4134 
L 603 4863 
z
" transform="scale(0.015625)"/>
       <path id="DejaVuSans-6f" d="M 1959 3097 
Q 1497 3097 1228 2736 
Q 959 2375 959 1747 
Q 959 1119 1226 758 
Q 1494 397 1959 397 
Q 2419 397 2687 759 
Q 2956 1122 2956 1747 
Q 2956 2369 2687 2733 
Q 2419 3097 1959 3097 
z
M 1959 3584 
Q 2709 3584 3137 3096 
Q 3566 2609 3566 1747 
Q 3566 888 3137 398 
Q 2709 -91 1959 -91 
Q 1206 -91 779 398 
Q 353 888 353 1747 
Q 353 2609 779 3096 
Q 1206 3584 1959 3584 
z
" transform="scale(0.015625)"/>
       <path id="DejaVuSans-28" d="M 1984 4856 
Q 1566 4138 1362 3434 
Q 1159 2731 1159 2009 
Q 1159 1288 1364 580 
Q 1569 -128 1984 -844 
L 1484 -844 
Q 1016 -109 783 600 
Q 550 1309 550 2009 
Q 550 2706 781 3412 
Q 1013 4119 1484 4856 
L 1984 4856 
z
" transform="scale(0.015625)"/>
       <path id="DejaVuSans-29" d="M 513 4856 
L 1013 4856 
Q 1481 4119 1714 3412 
Q 1947 2706 1947 2009 
Q 1947 1309 1714 600 
Q 1481 -109 1013 -844 
L 513 -844 
Q 928 -128 1133 580 
Q 1338 1288 1338 2009 
Q 1338 2731 1133 3434 
Q 928 4138 513 4856 
z
" transform="scale(0.015625)"/>
      </defs>
      <use xlink:href="#DejaVuSans-48"/>
      <use xlink:href="#DejaVuSans-61" x="75.195312"/>
      <use xlink:href="#DejaVuSans-6e" x="136.474609"/>
      <use xlink:href="#DejaVuSans-64" x="199.853516"/>
      <use xlink:href="#DejaVuSans-73" x="263.330078"/>
      <use xlink:href="#DejaVuSans-68" x="315.429688"/>
      <use xlink:href="#DejaVuSans-61" x="378.808594"/>
      <use xlink:href="#DejaVuSans-6b" x="440.087891"/>
      <use xlink:href="#DejaVuSans-65" x="494.373047"/>
      <use xlink:href="#DejaVuSans-20" x="555.896484"/>
      <use xlink:href="#DejaVuSans-64" x="587.683594"/>
      <use xlink:href="#DejaVuSans-75" x="651.160156"/>
      <use xlink:href="#DejaVuSans-72" x="714.539062"/>
      <use xlink:href="#DejaVuSans-61" x="755.652344"/>
      <use xlink:href="#DejaVuSans-74" x="816.931641"/>
      <use xlink:href="#DejaVuSans-69" x="856.140625"/>
      <use xlink:href="#DejaVuSans-6f" x="883.923828"/>
      <use xlink:href="#DejaVuSans-6e" x="945.105469"/>
      <use xlink:href="#DejaVuSans-20" x="1008.484375"/>
      <use xlink:href="#DejaVuSans-28" x="1040.271484"/>
      <use xlink:href="#DejaVuSans-6d" x="1079.285156"/>
      <use xlink:href="#DejaVuSans-73" x="1176.697266"/>
      <use xlink:href="#DejaVuSans-29" x="1228.796875"/>
     </g>
    </g>
   </g>
   <g id="PolyCollection_1">
    <defs>
     <path id="mf81f2767dc" d="M 145.506232 -53.764968 
L 129.677768 -53.764968 
L 109.67065 -57.056114 
L 81.719556 -60.347261 
L 74.1744 -63.638407 
L 96.760925 -66.929554 
L 122.679189 -70.2207 
L 134.502164 -73.511847 
L 137.228806 -76.802993 
L 137.567779 -80.09414 
L 137.591084 -83.385286 
L 137.59198 -86.676433 
L 137.592 -89.967579 
L 137.592 -93.258726 
L 137.592 -96.549872 
L 137.592 -99.841019 
L 137.592 -103.132165 
L 137.592 -106.423312 
L 137.592 -109.714458 
L 137.592 -113.005605 
L 137.592 -116.296751 
L 137.592 -119.587898 
L 137.592 -122.879044 
L 137.592 -126.170191 
L 137.592 -129.461337 
L 137.592 -132.752484 
L 137.592 -136.04363 
L 137.592 -139.334777 
L 137.592 -142.625923 
L 137.592 -145.91707 
L 137.592 -149.208216 
L 137.592 -152.499363 
L 137.592 -155.790509 
L 137.592 -159.081656 
L 137.592 -162.372802 
L 137.592 -165.663949 
L 137.592 -168.955095 
L 137.592 -172.246242 
L 137.592 -175.537388 
L 137.592 -178.828535 
L 137.592 -182.119681 
L 137.592 -185.410828 
L 137.592 -188.701974 
L 137.592 -191.993121 
L 137.592 -195.284267 
L 137.592 -198.575414 
L 137.592 -201.86656 
L 137.592 -205.157707 
L 137.592 -208.448853 
L 137.592 -211.74 
L 137.592 -215.031146 
L 137.592 -218.322293 
L 137.592 -221.613439 
L 137.592 -224.904586 
L 137.592 -228.195732 
L 137.592 -231.486879 
L 137.592 -234.778025 
L 137.592 -238.069172 
L 137.592 -241.360318 
L 137.592 -244.651465 
L 137.592 -247.942611 
L 137.592 -251.233758 
L 137.592 -254.524904 
L 137.592 -257.816051 
L 137.592 -261.107197 
L 137.592 -264.398344 
L 137.592 -267.68949 
L 137.592 -270.980637 
L 137.592 -274.271783 
L 137.592 -277.56293 
L 137.592 -280.854076 
L 137.592 -284.145222 
L 137.592 -287.436369 
L 137.592 -290.727515 
L 137.592 -294.018662 
L 137.592 -297.309808 
L 137.592 -300.600955 
L 137.592 -303.892101 
L 137.592 -307.183248 
L 137.592 -310.474394 
L 137.592 -313.765541 
L 137.592 -317.056687 
L 137.592 -320.347834 
L 137.592 -323.63898 
L 137.592 -326.930127 
L 137.592 -330.221273 
L 137.592 -333.51242 
L 137.592 -336.803566 
L 137.592 -340.094713 
L 137.592 -343.385859 
L 137.592 -346.677006 
L 137.591998 -349.968152 
L 137.591957 -353.259299 
L 137.591319 -356.550445 
L 137.585956 -359.841592 
L 137.561584 -363.132738 
L 137.505244 -366.423885 
L 137.451752 -369.715031 
L 137.463505 -373.006178 
L 137.525277 -376.297324 
L 137.572364 -379.588471 
L 137.611636 -379.588471 
L 137.611636 -379.588471 
L 137.658723 -376.297324 
L 137.720495 -373.006178 
L 137.732248 -369.715031 
L 137.678756 -366.423885 
L 137.622416 -363.132738 
L 137.598044 -359.841592 
L 137.592681 -356.550445 
L 137.592043 -353.259299 
L 137.592002 -349.968152 
L 137.592 -346.677006 
L 137.592 -343.385859 
L 137.592 -340.094713 
L 137.592 -336.803566 
L 137.592 -333.51242 
L 137.592 -330.221273 
L 137.592 -326.930127 
L 137.592 -323.63898 
L 137.592 -320.347834 
L 137.592 -317.056687 
L 137.592 -313.765541 
L 137.592 -310.474394 
L 137.592 -307.183248 
L 137.592 -303.892101 
L 137.592 -300.600955 
L 137.592 -297.309808 
L 137.592 -294.018662 
L 137.592 -290.727515 
L 137.592 -287.436369 
L 137.592 -284.145222 
L 137.592 -280.854076 
L 137.592 -277.56293 
L 137.592 -274.271783 
L 137.592 -270.980637 
L 137.592 -267.68949 
L 137.592 -264.398344 
L 137.592 -261.107197 
L 137.592 -257.816051 
L 137.592 -254.524904 
L 137.592 -251.233758 
L 137.592 -247.942611 
L 137.592 -244.651465 
L 137.592 -241.360318 
L 137.592 -238.069172 
L 137.592 -234.778025 
L 137.592 -231.486879 
L 137.592 -228.195732 
L 137.592 -224.904586 
L 137.592 -221.613439 
L 137.592 -218.322293 
L 137.592 -215.031146 
L 137.592 -211.74 
L 137.592 -208.448853 
L 137.592 -205.157707 
L 137.592 -201.86656 
L 137.592 -198.575414 
L 137.592 -195.284267 
L 137.592 -191.993121 
L 137.592 -188.701974 
L 137.592 -185.410828 
L 137.592 -182.119681 
L 137.592 -178.828535 
L 137.592 -175.537388 
L 137.592 -172.246242 
L 137.592 -168.955095 
L 137.592 -165.663949 
L 137.592 -162.372802 
L 137.592 -159.081656 
L 137.592 -155.790509 
L 137.592 -152.499363 
L 137.592 -149.208216 
L 137.592 -145.91707 
L 137.592 -142.625923 
L 137.592 -139.334777 
L 137.592 -136.04363 
L 137.592 -132.752484 
L 137.592 -129.461337 
L 137.592 -126.170191 
L 137.592 -122.879044 
L 137.592 -119.587898 
L 137.592 -116.296751 
L 137.592 -113.005605 
L 137.592 -109.714458 
L 137.592 -106.423312 
L 137.592 -103.132165 
L 137.592 -99.841019 
L 137.592 -96.549872 
L 137.592 -93.258726 
L 137.592 -89.967579 
L 137.59202 -86.676433 
L 137.592916 -83.385286 
L 137.616221 -80.09414 
L 137.955194 -76.802993 
L 140.681836 -73.511847 
L 152.504811 -70.2207 
L 178.423075 -66.929554 
L 201.0096 -63.638407 
L 193.464444 -60.347261 
L 165.51335 -57.056114 
L 145.506232 -53.764968 
z
" style="stroke: #595959; stroke-width: 1.25"/>
    </defs>
    <g clip-path="url(#p879d1fc151)">
     <use xlink:href="#mf81f2767dc" x="0" y="432" style="fill: #72b6a1; stroke: #595959; stroke-width: 1.25"/>
    </g>
   </g>
   <g id="PolyCollection_2">
    <defs>
     <path id="mee8a85c9d3" d="M 304.050866 -53.566364 
L 288.221134 -53.566364 
L 268.282983 -56.861522 
L 240.40238 -60.156681 
L 232.7184 -63.45184 
L 255.097946 -66.746998 
L 281.031995 -70.042157 
L 292.973875 -73.337316 
L 295.759372 -76.632475 
L 296.110475 -79.927633 
L 296.135015 -83.222792 
L 296.135978 -86.517951 
L 296.136 -89.813109 
L 296.136 -93.108268 
L 296.136 -96.403427 
L 296.136 -99.698585 
L 296.136 -102.993744 
L 296.136 -106.288903 
L 296.136 -109.584062 
L 296.136 -112.87922 
L 296.136 -116.174379 
L 296.136 -119.469538 
L 296.136 -122.764696 
L 296.136 -126.059855 
L 296.136 -129.355014 
L 296.136 -132.650172 
L 296.136 -135.945331 
L 296.136 -139.24049 
L 296.136 -142.535649 
L 296.136 -145.830807 
L 296.136 -149.125966 
L 296.136 -152.421125 
L 296.136 -155.716283 
L 296.136 -159.011442 
L 296.136 -162.306601 
L 296.136 -165.601759 
L 296.136 -168.896918 
L 296.136 -172.192077 
L 296.136 -175.487236 
L 296.136 -178.782394 
L 296.136 -182.077553 
L 296.136 -185.372712 
L 296.136 -188.66787 
L 296.136 -191.963029 
L 296.136 -195.258188 
L 296.136 -198.553346 
L 296.136 -201.848505 
L 296.136 -205.143664 
L 296.136 -208.438823 
L 296.136 -211.733981 
L 296.136 -215.02914 
L 296.136 -218.324299 
L 296.136 -221.619457 
L 296.136 -224.914616 
L 296.136 -228.209775 
L 296.136 -231.504933 
L 296.136 -234.800092 
L 296.136 -238.095251 
L 296.136 -241.39041 
L 296.136 -244.685568 
L 296.136 -247.980727 
L 296.136 -251.275886 
L 296.136 -254.571044 
L 296.136 -257.866203 
L 296.136 -261.161362 
L 296.136 -264.45652 
L 296.136 -267.751679 
L 296.136 -271.046838 
L 296.136 -274.341997 
L 296.136 -277.637155 
L 296.136 -280.932314 
L 296.136 -284.227473 
L 296.136 -287.522631 
L 296.136 -290.81779 
L 296.136 -294.112949 
L 296.136 -297.408107 
L 296.136 -300.703266 
L 296.136 -303.998425 
L 296.136 -307.293584 
L 296.136 -310.588742 
L 296.136 -313.883901 
L 296.136 -317.17906 
L 296.136 -320.474218 
L 296.136 -323.769377 
L 296.136 -327.064536 
L 296.136 -330.359694 
L 296.136 -333.654853 
L 296.136 -336.950012 
L 296.136 -340.245171 
L 296.136 -343.540329 
L 296.136 -346.835488 
L 296.135998 -350.130647 
L 296.135954 -353.425805 
L 296.135291 -356.720964 
L 296.129786 -360.016123 
L 296.105037 -363.311281 
L 296.048358 -366.60644 
L 295.99506 -369.901599 
L 296.007235 -373.196758 
L 296.069165 -376.491916 
L 296.116291 -379.787075 
L 296.155709 -379.787075 
L 296.155709 -379.787075 
L 296.202835 -376.491916 
L 296.264765 -373.196758 
L 296.27694 -369.901599 
L 296.223642 -366.60644 
L 296.166963 -363.311281 
L 296.142214 -360.016123 
L 296.136709 -356.720964 
L 296.136046 -353.425805 
L 296.136002 -350.130647 
L 296.136 -346.835488 
L 296.136 -343.540329 
L 296.136 -340.245171 
L 296.136 -336.950012 
L 296.136 -333.654853 
L 296.136 -330.359694 
L 296.136 -327.064536 
L 296.136 -323.769377 
L 296.136 -320.474218 
L 296.136 -317.17906 
L 296.136 -313.883901 
L 296.136 -310.588742 
L 296.136 -307.293584 
L 296.136 -303.998425 
L 296.136 -300.703266 
L 296.136 -297.408107 
L 296.136 -294.112949 
L 296.136 -290.81779 
L 296.136 -287.522631 
L 296.136 -284.227473 
L 296.136 -280.932314 
L 296.136 -277.637155 
L 296.136 -274.341997 
L 296.136 -271.046838 
L 296.136 -267.751679 
L 296.136 -264.45652 
L 296.136 -261.161362 
L 296.136 -257.866203 
L 296.136 -254.571044 
L 296.136 -251.275886 
L 296.136 -247.980727 
L 296.136 -244.685568 
L 296.136 -241.39041 
L 296.136 -238.095251 
L 296.136 -234.800092 
L 296.136 -231.504933 
L 296.136 -228.209775 
L 296.136 -224.914616 
L 296.136 -221.619457 
L 296.136 -218.324299 
L 296.136 -215.02914 
L 296.136 -211.733981 
L 296.136 -208.438823 
L 296.136 -205.143664 
L 296.136 -201.848505 
L 296.136 -198.553346 
L 296.136 -195.258188 
L 296.136 -191.963029 
L 296.136 -188.66787 
L 296.136 -185.372712 
L 296.136 -182.077553 
L 296.136 -178.782394 
L 296.136 -175.487236 
L 296.136 -172.192077 
L 296.136 -168.896918 
L 296.136 -165.601759 
L 296.136 -162.306601 
L 296.136 -159.011442 
L 296.136 -155.716283 
L 296.136 -152.421125 
L 296.136 -149.125966 
L 296.136 -145.830807 
L 296.136 -142.535649 
L 296.136 -139.24049 
L 296.136 -135.945331 
L 296.136 -132.650172 
L 296.136 -129.355014 
L 296.136 -126.059855 
L 296.136 -122.764696 
L 296.136 -119.469538 
L 296.136 -116.174379 
L 296.136 -112.87922 
L 296.136 -109.584062 
L 296.136 -106.288903 
L 296.136 -102.993744 
L 296.136 -99.698585 
L 296.136 -96.403427 
L 296.136 -93.108268 
L 296.136 -89.813109 
L 296.136022 -86.517951 
L 296.136985 -83.222792 
L 296.161525 -79.927633 
L 296.512628 -76.632475 
L 299.298125 -73.337316 
L 311.240005 -70.042157 
L 337.174054 -66.746998 
L 359.5536 -63.45184 
L 351.86962 -60.156681 
L 323.989017 -56.861522 
L 304.050866 -53.566364 
z
" style="stroke: #595959; stroke-width: 1.25"/>
    </defs>
    <g clip-path="url(#p879d1fc151)">
     <use xlink:href="#mee8a85c9d3" x="0" y="432" style="fill: #e99675; stroke: #595959; stroke-width: 1.25"/>
    </g>
   </g>
   <g id="PolyCollection_3">
    <defs>
     <path id="m0dd72cafb5" d="M 461.403322 -58.8269 
L 447.956678 -58.8269 
L 429.980745 -62.148787 
L 402.681243 -65.470673 
L 391.2624 -68.792559 
L 409.136886 -72.114445 
L 435.007704 -75.436331 
L 449.459767 -78.758218 
L 453.818879 -82.080104 
L 454.592071 -85.40199 
L 454.674539 -88.723876 
L 454.679798 -92.045763 
L 454.679996 -95.367649 
L 454.68 -98.689535 
L 454.68 -102.011421 
L 454.68 -105.333307 
L 454.68 -108.655194 
L 454.68 -111.97708 
L 454.68 -115.298966 
L 454.68 -118.620852 
L 454.68 -121.942739 
L 454.68 -125.264625 
L 454.68 -128.586511 
L 454.68 -131.908397 
L 454.68 -135.230283 
L 454.68 -138.55217 
L 454.68 -141.874056 
L 454.68 -145.195942 
L 454.68 -148.517828 
L 454.68 -151.839715 
L 454.68 -155.161601 
L 454.68 -158.483487 
L 454.68 -161.805373 
L 454.68 -165.127259 
L 454.68 -168.449146 
L 454.68 -171.771032 
L 454.68 -175.092918 
L 454.68 -178.414804 
L 454.68 -181.736691 
L 454.68 -185.058577 
L 454.68 -188.380463 
L 454.68 -191.702349 
L 454.68 -195.024235 
L 454.68 -198.346122 
L 454.68 -201.668008 
L 454.68 -204.989894 
L 454.68 -208.31178 
L 454.68 -211.633667 
L 454.68 -214.955553 
L 454.68 -218.277439 
L 454.68 -221.599325 
L 454.68 -224.921211 
L 454.68 -228.243098 
L 454.68 -231.564984 
L 454.68 -234.88687 
L 454.68 -238.208756 
L 454.68 -241.530643 
L 454.68 -244.852529 
L 454.68 -248.174415 
L 454.68 -251.496301 
L 454.68 -254.818187 
L 454.68 -258.140074 
L 454.68 -261.46196 
L 454.68 -264.783846 
L 454.68 -268.105732 
L 454.68 -271.427619 
L 454.68 -274.749505 
L 454.68 -278.071391 
L 454.68 -281.393277 
L 454.68 -284.715163 
L 454.68 -288.03705 
L 454.68 -291.358936 
L 454.68 -294.680822 
L 454.68 -298.002708 
L 454.68 -301.324595 
L 454.68 -304.646481 
L 454.68 -307.968367 
L 454.68 -311.290253 
L 454.68 -314.612139 
L 454.68 -317.934026 
L 454.68 -321.255912 
L 454.68 -324.577798 
L 454.68 -327.899684 
L 454.68 -331.221571 
L 454.68 -334.543457 
L 454.68 -337.865343 
L 454.68 -341.187229 
L 454.68 -344.509115 
L 454.68 -347.831002 
L 454.68 -351.152888 
L 454.68 -354.474774 
L 454.679999 -357.79666 
L 454.679962 -361.118547 
L 454.679378 -364.440433 
L 454.674294 -367.762319 
L 454.650506 -371.084205 
L 454.594154 -374.406091 
L 454.539285 -377.727978 
L 454.550106 -381.049864 
L 454.612475 -384.37175 
L 454.660232 -387.693636 
L 454.699768 -387.693636 
L 454.699768 -387.693636 
L 454.747525 -384.37175 
L 454.809894 -381.049864 
L 454.820715 -377.727978 
L 454.765846 -374.406091 
L 454.709494 -371.084205 
L 454.685706 -367.762319 
L 454.680622 -364.440433 
L 454.680038 -361.118547 
L 454.680001 -357.79666 
L 454.68 -354.474774 
L 454.68 -351.152888 
L 454.68 -347.831002 
L 454.68 -344.509115 
L 454.68 -341.187229 
L 454.68 -337.865343 
L 454.68 -334.543457 
L 454.68 -331.221571 
L 454.68 -327.899684 
L 454.68 -324.577798 
L 454.68 -321.255912 
L 454.68 -317.934026 
L 454.68 -314.612139 
L 454.68 -311.290253 
L 454.68 -307.968367 
L 454.68 -304.646481 
L 454.68 -301.324595 
L 454.68 -298.002708 
L 454.68 -294.680822 
L 454.68 -291.358936 
L 454.68 -288.03705 
L 454.68 -284.715163 
L 454.68 -281.393277 
L 454.68 -278.071391 
L 454.68 -274.749505 
L 454.68 -271.427619 
L 454.68 -268.105732 
L 454.68 -264.783846 
L 454.68 -261.46196 
L 454.68 -258.140074 
L 454.68 -254.818187 
L 454.68 -251.496301 
L 454.68 -248.174415 
L 454.68 -244.852529 
L 454.68 -241.530643 
L 454.68 -238.208756 
L 454.68 -234.88687 
L 454.68 -231.564984 
L 454.68 -228.243098 
L 454.68 -224.921211 
L 454.68 -221.599325 
L 454.68 -218.277439 
L 454.68 -214.955553 
L 454.68 -211.633667 
L 454.68 -208.31178 
L 454.68 -204.989894 
L 454.68 -201.668008 
L 454.68 -198.346122 
L 454.68 -195.024235 
L 454.68 -191.702349 
L 454.68 -188.380463 
L 454.68 -185.058577 
L 454.68 -181.736691 
L 454.68 -178.414804 
L 454.68 -175.092918 
L 454.68 -171.771032 
L 454.68 -168.449146 
L 454.68 -165.127259 
L 454.68 -161.805373 
L 454.68 -158.483487 
L 454.68 -155.161601 
L 454.68 -151.839715 
L 454.68 -148.517828 
L 454.68 -145.195942 
L 454.68 -141.874056 
L 454.68 -138.55217 
L 454.68 -135.230283 
L 454.68 -131.908397 
L 454.68 -128.586511 
L 454.68 -125.264625 
L 454.68 -121.942739 
L 454.68 -118.620852 
L 454.68 -115.298966 
L 454.68 -111.97708 
L 454.68 -108.655194 
L 454.68 -105.333307 
L 454.68 -102.011421 
L 454.68 -98.689535 
L 454.680004 -95.367649 
L 454.680202 -92.045763 
L 454.685461 -88.723876 
L 454.767929 -85.40199 
L 455.541121 -82.080104 
L 459.900233 -78.758218 
L 474.352296 -75.436331 
L 500.223114 -72.114445 
L 518.0976 -68.792559 
L 506.678757 -65.470673 
L 479.379255 -62.148787 
L 461.403322 -58.8269 
z
" style="stroke: #595959; stroke-width: 1.25"/>
    </defs>
    <g clip-path="url(#p879d1fc151)">
     <use xlink:href="#m0dd72cafb5" x="0" y="432" style="fill: #95a3c3; stroke: #595959; stroke-width: 1.25"/>
    </g>
   </g>
   <g id="PolyCollection_4">
    <defs>
     <path id="m5e7f17de1b" d="M 613.734295 -63.183096 
L 612.713705 -63.183096 
L 612.340033 -63.207698 
L 611.745514 -63.2323 
L 610.835873 -63.256901 
L 609.497791 -63.281503 
L 607.606075 -63.306105 
L 605.036852 -63.330707 
L 601.686642 -63.355308 
L 597.495566 -63.37991 
L 592.471205 -63.404512 
L 586.70834 -63.429114 
L 580.399404 -63.453715 
L 573.831422 -63.478317 
L 567.367385 -63.502919 
L 561.413025 -63.527521 
L 556.373105 -63.552123 
L 552.603779 -63.576724 
L 550.368732 -63.601326 
L 549.8064 -63.625928 
L 550.913744 -63.65053 
L 553.549148 -63.675131 
L 557.453771 -63.699733 
L 562.287524 -63.724335 
L 567.673486 -63.748937 
L 573.243342 -63.773539 
L 578.67662 -63.79814 
L 583.728067 -63.822742 
L 588.240162 -63.847344 
L 592.140857 -63.871946 
L 595.42948 -63.896547 
L 598.155613 -63.921149 
L 600.39631 -63.945751 
L 602.236213 -63.970353 
L 603.75344 -63.994955 
L 605.012016 -64.019556 
L 606.059948 -64.044158 
L 606.930954 -64.06876 
L 607.64769 -64.093362 
L 608.224819 -64.117963 
L 608.671037 -64.142565 
L 608.990061 -64.167167 
L 609.181099 -64.191769 
L 609.239543 -64.21637 
L 609.15849 -64.240972 
L 608.931316 -64.265574 
L 608.555134 -64.290176 
L 608.034558 -64.314778 
L 607.384997 -64.339379 
L 606.634643 -64.363981 
L 605.824455 -64.388583 
L 605.005779 -64.413185 
L 604.235682 -64.437786 
L 603.570582 -64.462388 
L 603.059247 -64.48699 
L 602.736497 -64.511592 
L 602.618952 -64.536194 
L 602.703814 -64.560795 
L 602.970996 -64.585397 
L 603.3881 -64.609999 
L 603.916998 -64.634601 
L 604.520401 -64.659202 
L 605.166859 -64.683804 
L 605.833201 -64.708406 
L 606.504231 -64.733008 
L 607.170335 -64.757609 
L 607.824175 -64.782211 
L 608.457751 -64.806813 
L 609.060801 -64.831415 
L 609.620908 -64.856017 
L 610.125117 -64.880618 
L 610.562355 -64.90522 
L 610.925851 -64.929822 
L 611.214769 -64.954424 
L 611.434631 -64.979025 
L 611.596406 -65.003627 
L 611.714529 -65.028229 
L 611.804316 -65.052831 
L 611.879395 -65.077433 
L 611.949692 -65.102034 
L 612.020406 -65.126636 
L 612.092124 -65.151238 
L 612.161986 -65.17584 
L 612.225545 -65.200441 
L 612.278803 -65.225043 
L 612.319902 -65.249645 
L 612.350034 -65.274247 
L 612.37337 -65.298849 
L 612.396095 -65.32345 
L 612.424867 -65.348052 
L 612.465166 -65.372654 
L 612.520002 -65.397256 
L 612.589315 -65.421857 
L 612.670147 -65.446459 
L 612.75748 -65.471061 
L 612.845427 -65.495663 
L 612.928426 -65.520264 
L 613.002161 -65.544866 
L 613.064041 -65.569468 
L 613.113234 -65.59407 
L 613.150361 -65.618672 
L 613.297639 -65.618672 
L 613.297639 -65.618672 
L 613.334766 -65.59407 
L 613.383959 -65.569468 
L 613.445839 -65.544866 
L 613.519574 -65.520264 
L 613.602573 -65.495663 
L 613.69052 -65.471061 
L 613.777853 -65.446459 
L 613.858685 -65.421857 
L 613.927998 -65.397256 
L 613.982834 -65.372654 
L 614.023133 -65.348052 
L 614.051905 -65.32345 
L 614.07463 -65.298849 
L 614.097966 -65.274247 
L 614.128098 -65.249645 
L 614.169197 -65.225043 
L 614.222455 -65.200441 
L 614.286014 -65.17584 
L 614.355876 -65.151238 
L 614.427594 -65.126636 
L 614.498308 -65.102034 
L 614.568605 -65.077433 
L 614.643684 -65.052831 
L 614.733471 -65.028229 
L 614.851594 -65.003627 
L 615.013369 -64.979025 
L 615.233231 -64.954424 
L 615.522149 -64.929822 
L 615.885645 -64.90522 
L 616.322883 -64.880618 
L 616.827092 -64.856017 
L 617.387199 -64.831415 
L 617.990249 -64.806813 
L 618.623825 -64.782211 
L 619.277665 -64.757609 
L 619.943769 -64.733008 
L 620.614799 -64.708406 
L 621.281141 -64.683804 
L 621.927599 -64.659202 
L 622.531002 -64.634601 
L 623.0599 -64.609999 
L 623.477004 -64.585397 
L 623.744186 -64.560795 
L 623.829048 -64.536194 
L 623.711503 -64.511592 
L 623.388753 -64.48699 
L 622.877418 -64.462388 
L 622.212318 -64.437786 
L 621.442221 -64.413185 
L 620.623545 -64.388583 
L 619.813357 -64.363981 
L 619.063003 -64.339379 
L 618.413442 -64.314778 
L 617.892866 -64.290176 
L 617.516684 -64.265574 
L 617.28951 -64.240972 
L 617.208457 -64.21637 
L 617.266901 -64.191769 
L 617.457939 -64.167167 
L 617.776963 -64.142565 
L 618.223181 -64.117963 
L 618.80031 -64.093362 
L 619.517046 -64.06876 
L 620.388052 -64.044158 
L 621.435984 -64.019556 
L 622.69456 -63.994955 
L 624.211787 -63.970353 
L 626.05169 -63.945751 
L 628.292387 -63.921149 
L 631.01852 -63.896547 
L 634.307143 -63.871946 
L 638.207838 -63.847344 
L 642.719933 -63.822742 
L 647.77138 -63.79814 
L 653.204658 -63.773539 
L 658.774514 -63.748937 
L 664.160476 -63.724335 
L 668.994229 -63.699733 
L 672.898852 -63.675131 
L 675.534256 -63.65053 
L 676.6416 -63.625928 
L 676.079268 -63.601326 
L 673.844221 -63.576724 
L 670.074895 -63.552123 
L 665.034975 -63.527521 
L 659.080615 -63.502919 
L 652.616578 -63.478317 
L 646.048596 -63.453715 
L 639.73966 -63.429114 
L 633.976795 -63.404512 
L 628.952434 -63.37991 
L 624.761358 -63.355308 
L 621.411148 -63.330707 
L 618.841925 -63.306105 
L 616.950209 -63.281503 
L 615.612127 -63.256901 
L 614.702486 -63.2323 
L 614.107967 -63.207698 
L 613.734295 -63.183096 
z
" style="stroke: #595959; stroke-width: 1.25"/>
    </defs>
    <g clip-path="url(#p879d1fc151)">
     <use xlink:href="#m5e7f17de1b" x="0" y="432" style="fill: #db96c0; stroke: #595959; stroke-width: 1.25"/>
    </g>
   </g>
   <g id="PolyCollection_5">
    <defs>
     <path id="m889b56e4de" d="M 779.619274 -53.645742 
L 763.916726 -53.645742 
L 743.886377 -56.94023 
L 715.82598 -60.234718 
L 708.3504 -63.529206 
L 731.147733 -66.823694 
L 757.066992 -70.118182 
L 768.761694 -73.41267 
L 771.420614 -76.707158 
L 771.745317 -80.001645 
L 771.767163 -83.296133 
L 771.767983 -86.590621 
L 771.768 -89.885109 
L 771.768 -93.179597 
L 771.768 -96.474085 
L 771.768 -99.768573 
L 771.768 -103.063061 
L 771.768 -106.357549 
L 771.768 -109.652036 
L 771.768 -112.946524 
L 771.768 -116.241012 
L 771.768 -119.5355 
L 771.768 -122.829988 
L 771.768 -126.124476 
L 771.768 -129.418964 
L 771.768 -132.713452 
L 771.768 -136.007939 
L 771.768 -139.302427 
L 771.768 -142.596915 
L 771.768 -145.891403 
L 771.768 -149.185891 
L 771.768 -152.480379 
L 771.768 -155.774867 
L 771.768 -159.069355 
L 771.768 -162.363843 
L 771.768 -165.65833 
L 771.768 -168.952818 
L 771.768 -172.247306 
L 771.768 -175.541794 
L 771.768 -178.836282 
L 771.768 -182.13077 
L 771.768 -185.425258 
L 771.768 -188.719746 
L 771.768 -192.014234 
L 771.768 -195.308721 
L 771.768 -198.603209 
L 771.768 -201.897697 
L 771.768 -205.192185 
L 771.768 -208.486673 
L 771.768 -211.781161 
L 771.768 -215.075649 
L 771.768 -218.370137 
L 771.768 -221.664624 
L 771.768 -224.959112 
L 771.768 -228.2536 
L 771.768 -231.548088 
L 771.768 -234.842576 
L 771.768 -238.137064 
L 771.768 -241.431552 
L 771.768 -244.72604 
L 771.768 -248.020528 
L 771.768 -251.315015 
L 771.768 -254.609503 
L 771.768 -257.903991 
L 771.768 -261.198479 
L 771.768 -264.492967 
L 771.768 -267.787455 
L 771.768 -271.081943 
L 771.768 -274.376431 
L 771.768 -277.670918 
L 771.768 -280.965406 
L 771.768 -284.259894 
L 771.768 -287.554382 
L 771.768 -290.84887 
L 771.768 -294.143358 
L 771.768 -297.437846 
L 771.768 -300.732334 
L 771.768 -304.026822 
L 771.768 -307.321309 
L 771.768 -310.615797 
L 771.768 -313.910285 
L 771.768 -317.204773 
L 771.768 -320.499261 
L 771.768 -323.793749 
L 771.768 -327.088237 
L 771.768 -330.382725 
L 771.768 -333.677212 
L 771.768 -336.9717 
L 771.768 -340.266188 
L 771.768 -343.560676 
L 771.768 -346.855164 
L 771.767999 -350.149652 
L 771.76796 -353.44414 
L 771.76736 -356.738628 
L 771.762212 -360.033116 
L 771.738417 -363.327603 
L 771.68263 -366.622091 
L 771.628884 -369.916579 
L 771.63999 -373.211067 
L 771.701486 -376.505555 
L 771.748485 -379.800043 
L 771.787515 -379.800043 
L 771.787515 -379.800043 
L 771.834514 -376.505555 
L 771.89601 -373.211067 
L 771.907116 -369.916579 
L 771.85337 -366.622091 
L 771.797583 -363.327603 
L 771.773788 -360.033116 
L 771.76864 -356.738628 
L 771.76804 -353.44414 
L 771.768001 -350.149652 
L 771.768 -346.855164 
L 771.768 -343.560676 
L 771.768 -340.266188 
L 771.768 -336.9717 
L 771.768 -333.677212 
L 771.768 -330.382725 
L 771.768 -327.088237 
L 771.768 -323.793749 
L 771.768 -320.499261 
L 771.768 -317.204773 
L 771.768 -313.910285 
L 771.768 -310.615797 
L 771.768 -307.321309 
L 771.768 -304.026822 
L 771.768 -300.732334 
L 771.768 -297.437846 
L 771.768 -294.143358 
L 771.768 -290.84887 
L 771.768 -287.554382 
L 771.768 -284.259894 
L 771.768 -280.965406 
L 771.768 -277.670918 
L 771.768 -274.376431 
L 771.768 -271.081943 
L 771.768 -267.787455 
L 771.768 -264.492967 
L 771.768 -261.198479 
L 771.768 -257.903991 
L 771.768 -254.609503 
L 771.768 -251.315015 
L 771.768 -248.020528 
L 771.768 -244.72604 
L 771.768 -241.431552 
L 771.768 -238.137064 
L 771.768 -234.842576 
L 771.768 -231.548088 
L 771.768 -228.2536 
L 771.768 -224.959112 
L 771.768 -221.664624 
L 771.768 -218.370137 
L 771.768 -215.075649 
L 771.768 -211.781161 
L 771.768 -208.486673 
L 771.768 -205.192185 
L 771.768 -201.897697 
L 771.768 -198.603209 
L 771.768 -195.308721 
L 771.768 -192.014234 
L 771.768 -188.719746 
L 771.768 -185.425258 
L 771.768 -182.13077 
L 771.768 -178.836282 
L 771.768 -175.541794 
L 771.768 -172.247306 
L 771.768 -168.952818 
L 771.768 -165.65833 
L 771.768 -162.363843 
L 771.768 -159.069355 
L 771.768 -155.774867 
L 771.768 -152.480379 
L 771.768 -149.185891 
L 771.768 -145.891403 
L 771.768 -142.596915 
L 771.768 -139.302427 
L 771.768 -136.007939 
L 771.768 -132.713452 
L 771.768 -129.418964 
L 771.768 -126.124476 
L 771.768 -122.829988 
L 771.768 -119.5355 
L 771.768 -116.241012 
L 771.768 -112.946524 
L 771.768 -109.652036 
L 771.768 -106.357549 
L 771.768 -103.063061 
L 771.768 -99.768573 
L 771.768 -96.474085 
L 771.768 -93.179597 
L 771.768 -89.885109 
L 771.768017 -86.590621 
L 771.768837 -83.296133 
L 771.790683 -80.001645 
L 772.115386 -76.707158 
L 774.774306 -73.41267 
L 786.469008 -70.118182 
L 812.388267 -66.823694 
L 835.1856 -63.529206 
L 827.71002 -60.234718 
L 799.649623 -56.94023 
L 779.619274 -53.645742 
z
" style="stroke: #595959; stroke-width: 1.25"/>
    </defs>
    <g clip-path="url(#p879d1fc151)">
     <use xlink:href="#m889b56e4de" x="0" y="432" style="fill: #a2c865; stroke: #595959; stroke-width: 1.25"/>
    </g>
   </g>
   <g id="line2d_6">
    <path d="M 137.592 369.37679 
L 137.592 369.499919 
" clip-path="url(#p879d1fc151)" style="fill: none; stroke: #000000"/>
   </g>
   <g id="line2d_7">
    <path d="M 137.592 369.261357 
L 137.592 369.092054 
" clip-path="url(#p879d1fc151)" style="fill: none; stroke: #000000"/>
   </g>
   <g id="line2d_8">
    <path d="M 131.6466 369.499919 
L 143.5374 369.499919 
" clip-path="url(#p879d1fc151)" style="fill: none; stroke: #000000; stroke-linecap: round"/>
   </g>
   <g id="line2d_9">
    <path d="M 131.6466 369.092054 
L 143.5374 369.092054 
" clip-path="url(#p879d1fc151)" style="fill: none; stroke: #000000; stroke-linecap: round"/>
   </g>
   <g id="line2d_10">
    <path d="M 296.136 369.546092 
L 296.136 369.669221 
" clip-path="url(#p879d1fc151)" style="fill: none; stroke: #000000"/>
   </g>
   <g id="line2d_11">
    <path d="M 296.136 369.430659 
L 296.136 369.261357 
" clip-path="url(#p879d1fc151)" style="fill: none; stroke: #000000"/>
   </g>
   <g id="line2d_12">
    <path d="M 290.1906 369.669221 
L 302.0814 369.669221 
" clip-path="url(#p879d1fc151)" style="fill: none; stroke: #000000; stroke-linecap: round"/>
   </g>
   <g id="line2d_13">
    <path d="M 290.1906 369.261357 
L 302.0814 369.261357 
" clip-path="url(#p879d1fc151)" style="fill: none; stroke: #000000; stroke-linecap: round"/>
   </g>
   <g id="line2d_14">
    <path d="M 454.68 364.243853 
L 454.68 364.40546 
" clip-path="url(#p879d1fc151)" style="fill: none; stroke: #000000"/>
   </g>
   <g id="line2d_15">
    <path d="M 454.68 363.50508 
L 454.68 362.450789 
" clip-path="url(#p879d1fc151)" style="fill: none; stroke: #000000"/>
   </g>
   <g id="line2d_16">
    <path d="M 448.7346 364.40546 
L 460.6254 364.40546 
" clip-path="url(#p879d1fc151)" style="fill: none; stroke: #000000; stroke-linecap: round"/>
   </g>
   <g id="line2d_17">
    <path d="M 448.7346 362.450789 
L 460.6254 362.450789 
" clip-path="url(#p879d1fc151)" style="fill: none; stroke: #000000; stroke-linecap: round"/>
   </g>
   <g id="line2d_18">
    <path d="M 613.224 368.414845 
L 613.224 368.576452 
" clip-path="url(#p879d1fc151)" style="fill: none; stroke: #000000"/>
   </g>
   <g id="line2d_19">
    <path d="M 613.224 368.114719 
L 613.224 367.691463 
" clip-path="url(#p879d1fc151)" style="fill: none; stroke: #000000"/>
   </g>
   <g id="line2d_20">
    <path d="M 607.2786 368.576452 
L 619.1694 368.576452 
" clip-path="url(#p879d1fc151)" style="fill: none; stroke: #000000; stroke-linecap: round"/>
   </g>
   <g id="line2d_21">
    <path d="M 607.2786 367.691463 
L 619.1694 367.691463 
" clip-path="url(#p879d1fc151)" style="fill: none; stroke: #000000; stroke-linecap: round"/>
   </g>
   <g id="line2d_22">
    <path d="M 771.768 369.484528 
L 771.768 369.638439 
" clip-path="url(#p879d1fc151)" style="fill: none; stroke: #000000"/>
   </g>
   <g id="line2d_23">
    <path d="M 771.768 369.37679 
L 771.768 369.222879 
" clip-path="url(#p879d1fc151)" style="fill: none; stroke: #000000"/>
   </g>
   <g id="line2d_24">
    <path d="M 765.8226 369.638439 
L 777.7134 369.638439 
" clip-path="url(#p879d1fc151)" style="fill: none; stroke: #000000; stroke-linecap: round"/>
   </g>
   <g id="line2d_25">
    <path d="M 765.8226 369.222879 
L 777.7134 369.222879 
" clip-path="url(#p879d1fc151)" style="fill: none; stroke: #000000; stroke-linecap: round"/>
   </g>
   <g id="line2d_26">
    <path d="M 125.7012 369.322921 
L 149.4828 369.322921 
" clip-path="url(#p879d1fc151)" style="fill: none; stroke: #ff0000; stroke-width: 2"/>
   </g>
   <g id="line2d_27">
    <path d="M 284.2452 369.492223 
L 308.0268 369.492223 
" clip-path="url(#p879d1fc151)" style="fill: none; stroke: #ff0000; stroke-width: 2"/>
   </g>
   <g id="line2d_28">
    <path d="M 442.7892 364.166898 
L 466.5708 364.166898 
" clip-path="url(#p879d1fc151)" style="fill: none; stroke: #ff0000; stroke-width: 2"/>
   </g>
   <g id="line2d_29">
    <path d="M 601.3332 368.33789 
L 625.1148 368.33789 
" clip-path="url(#p879d1fc151)" style="fill: none; stroke: #ff0000; stroke-width: 2"/>
   </g>
   <g id="line2d_30">
    <path d="M 759.8772 369.438354 
L 783.6588 369.438354 
" clip-path="url(#p879d1fc151)" style="fill: none; stroke: #ff0000; stroke-width: 2"/>
   </g>
   <g id="patch_3">
    <path d="M 58.32 395.14 
L 58.32 27.6 
" style="fill: none; stroke: #cccccc; stroke-width: 1.25; stroke-linejoin: miter; stroke-linecap: square"/>
   </g>
   <g id="patch_4">
    <path d="M 851.04 395.14 
L 851.04 27.6 
" style="fill: none; stroke: #cccccc; stroke-width: 1.25; stroke-linejoin: miter; stroke-linecap: square"/>
   </g>
   <g id="patch_5">
    <path d="M 58.32 395.14 
L 851.04 395.14 
" style="fill: none; stroke: #cccccc; stroke-width: 1.25; stroke-linejoin: miter; stroke-linecap: square"/>
   </g>
   <g id="patch_6">
    <path d="M 58.32 27.6 
L 851.04 27.6 
" style="fill: none; stroke: #cccccc; stroke-width: 1.25; stroke-linejoin: miter; stroke-linecap: square"/>
   </g>
   <g id="text_12">
    <!-- Handshake duration on QUIC with ed25519 signature algorithm — Degraded (200ms/10%) -->
    <g style="fill: #262626" transform="translate(181.892812 21.6) scale(0.12 -0.12)">
     <defs>
      <path id="DejaVuSans-51" d="M 2522 4238 
Q 1834 4238 1429 3725 
Q 1025 3213 1025 2328 
Q 1025 1447 1429 934 
Q 1834 422 2522 422 
Q 3209 422 3611 934 
Q 4013 1447 4013 2328 
Q 4013 3213 3611 3725 
Q 3209 4238 2522 4238 
z
M 3406 84 
L 4238 -825 
L 3475 -825 
L 2784 -78 
Q 2681 -84 2626 -87 
Q 2572 -91 2522 -91 
Q 1538 -91 948 567 
Q 359 1225 359 2328 
Q 359 3434 948 4092 
Q 1538 4750 2522 4750 
Q 3503 4750 4090 4092 
Q 4678 3434 4678 2328 
Q 4678 1516 4351 937 
Q 4025 359 3406 84 
z
" transform="scale(0.015625)"/>
      <path id="DejaVuSans-55" d="M 556 4666 
L 1191 4666 
L 1191 1831 
Q 1191 1081 1462 751 
Q 1734 422 2344 422 
Q 2950 422 3222 751 
Q 3494 1081 3494 1831 
L 3494 4666 
L 4128 4666 
L 4128 1753 
Q 4128 841 3676 375 
Q 3225 -91 2344 -91 
Q 1459 -91 1007 375 
Q 556 841 556 1753 
L 556 4666 
z
" transform="scale(0.015625)"/>
      <path id="DejaVuSans-49" d="M 628 4666 
L 1259 4666 
L 1259 0 
L 628 0 
L 628 4666 
z
" transform="scale(0.015625)"/>
      <path id="DejaVuSans-43" d="M 4122 4306 
L 4122 3641 
Q 3803 3938 3442 4084 
Q 3081 4231 2675 4231 
Q 1875 4231 1450 3742 
Q 1025 3253 1025 2328 
Q 1025 1406 1450 917 
Q 1875 428 2675 428 
Q 3081 428 3442 575 
Q 3803 722 4122 1019 
L 4122 359 
Q 3791 134 3420 21 
Q 3050 -91 2638 -91 
Q 1578 -91 968 557 
Q 359 1206 359 2328 
Q 359 3453 968 4101 
Q 1578 4750 2638 4750 
Q 3056 4750 3426 4639 
Q 3797 4528 4122 4306 
z
" transform="scale(0.015625)"/>
      <path id="DejaVuSans-77" d="M 269 3500 
L 844 3500 
L 1563 769 
L 2278 3500 
L 2956 3500 
L 3675 769 
L 4391 3500 
L 4966 3500 
L 4050 0 
L 3372 0 
L 2619 2869 
L 1863 0 
L 1184 0 
L 269 3500 
z
" transform="scale(0.015625)"/>
      <path id="DejaVuSans-67" d="M 2906 1791 
Q 2906 2416 2648 2759 
Q 2391 3103 1925 3103 
Q 1463 3103 1205 2759 
Q 947 2416 947 1791 
Q 947 1169 1205 825 
Q 1463 481 1925 481 
Q 2391 481 2648 825 
Q 2906 1169 2906 1791 
z
M 3481 434 
Q 3481 -459 3084 -895 
Q 2688 -1331 1869 -1331 
Q 1566 -1331 1297 -1286 
Q 1028 -1241 775 -1147 
L 775 -588 
Q 1028 -725 1275 -790 
Q 1522 -856 1778 -856 
Q 2344 -856 2625 -561 
Q 2906 -266 2906 331 
L 2906 616 
Q 2728 306 2450 153 
Q 2172 0 1784 0 
Q 1141 0 747 490 
Q 353 981 353 1791 
Q 353 2603 747 3093 
Q 1141 3584 1784 3584 
Q 2172 3584 2450 3431 
Q 2728 3278 2906 2969 
L 2906 3500 
L 3481 3500 
L 3481 434 
z
" transform="scale(0.015625)"/>
      <path id="DejaVuSans-2014" d="M 313 1978 
L 6088 1978 
L 6088 1528 
L 313 1528 
L 313 1978 
z
" transform="scale(0.015625)"/>
      <path id="DejaVuSans-44" d="M 1259 4147 
L 1259 519 
L 2022 519 
Q 2988 519 3436 956 
Q 3884 1394 3884 2338 
Q 3884 3275 3436 3711 
Q 2988 4147 2022 4147 
L 1259 4147 
z
M 628 4666 
L 1925 4666 
Q 3281 4666 3915 4102 
Q 4550 3538 4550 2338 
Q 4550 1131 3912 565 
Q 3275 0 1925 0 
L 628 0 
L 628 4666 
z
" transform="scale(0.015625)"/>
      <path id="DejaVuSans-2f" d="M 1625 4666 
L 2156 4666 
L 531 -594 
L 0 -594 
L 1625 4666 
z
" transform="scale(0.015625)"/>
      <path id="DejaVuSans-25" d="M 4653 2053 
Q 4381 2053 4226 1822 
Q 4072 1591 4072 1178 
Q 4072 772 4226 539 
Q 4381 306 4653 306 
Q 4919 306 5073 539 
Q 5228 772 5228 1178 
Q 5228 1588 5073 1820 
Q 4919 2053 4653 2053 
z
M 4653 2450 
Q 5147 2450 5437 2106 
Q 5728 1763 5728 1178 
Q 5728 594 5436 251 
Q 5144 -91 4653 -91 
Q 4153 -91 3862 251 
Q 3572 594 3572 1178 
Q 3572 1766 3864 2108 
Q 4156 2450 4653 2450 
z
M 1428 4353 
Q 1159 4353 1004 4120 
Q 850 3888 850 3481 
Q 850 3069 1003 2837 
Q 1156 2606 1428 2606 
Q 1700 2606 1854 2837 
Q 2009 3069 2009 3481 
Q 2009 3884 1853 4118 
Q 1697 4353 1428 4353 
z
M 4250 4750 
L 4750 4750 
L 1831 -91 
L 1331 -91 
L 4250 4750 
z
M 1428 4750 
Q 1922 4750 2215 4408 
Q 2509 4066 2509 3481 
Q 2509 2891 2217 2550 
Q 1925 2209 1428 2209 
Q 931 2209 642 2551 
Q 353 2894 353 3481 
Q 353 4063 643 4406 
Q 934 4750 1428 4750 
z
" transform="scale(0.015625)"/>
     </defs>
     <use xlink:href="#DejaVuSans-48"/>
     <use xlink:href="#DejaVuSans-61" x="75.195312"/>
     <use xlink:href="#DejaVuSans-6e" x="136.474609"/>
     <use xlink:href="#DejaVuSans-64" x="199.853516"/>
     <use xlink:href="#DejaVuSans-73" x="263.330078"/>
     <use xlink:href="#DejaVuSans-68" x="315.429688"/>
     <use xlink:href="#DejaVuSans-61" x="378.808594"/>
     <use xlink:href="#DejaVuSans-6b" x="440.087891"/>
     <use xlink:href="#DejaVuSans-65" x="494.373047"/>
     <use xlink:href="#DejaVuSans-20" x="555.896484"/>
     <use xlink:href="#DejaVuSans-64" x="587.683594"/>
     <use xlink:href="#DejaVuSans-75" x="651.160156"/>
     <use xlink:href="#DejaVuSans-72" x="714.539062"/>
     <use xlink:href="#DejaVuSans-61" x="755.652344"/>
     <use xlink:href="#DejaVuSans-74" x="816.931641"/>
     <use xlink:href="#DejaVuSans-69" x="856.140625"/>
     <use xlink:href="#DejaVuSans-6f" x="883.923828"/>
     <use xlink:href="#DejaVuSans-6e" x="945.105469"/>
     <use xlink:href="#DejaVuSans-20" x="1008.484375"/>
     <use xlink:href="#DejaVuSans-6f" x="1040.271484"/>
     <use xlink:href="#DejaVuSans-6e" x="1101.453125"/>
     <use xlink:href="#DejaVuSans-20" x="1164.832031"/>
     <use xlink:href="#DejaVuSans-51" x="1196.619141"/>
     <use xlink:href="#DejaVuSans-55" x="1275.330078"/>
     <use xlink:href="#DejaVuSans-49" x="1348.523438"/>
     <use xlink:href="#DejaVuSans-43" x="1378.015625"/>
     <use xlink:href="#DejaVuSans-20" x="1447.839844"/>
     <use xlink:href="#DejaVuSans-77" x="1479.626953"/>
     <use xlink:href="#DejaVuSans-69" x="1561.414062"/>
     <use xlink:href="#DejaVuSans-74" x="1589.197266"/>
     <use xlink:href="#DejaVuSans-68" x="1628.40625"/>
     <use xlink:href="#DejaVuSans-20" x="1691.785156"/>
     <use xlink:href="#DejaVuSans-65" x="1723.572266"/>
     <use xlink:href="#DejaVuSans-64" x="1785.095703"/>
     <use xlink:href="#DejaVuSans-32" x="1848.572266"/>
     <use xlink:href="#DejaVuSans-35" x="1912.195312"/>
     <use xlink:href="#DejaVuSans-35" x="1975.818359"/>
     <use xlink:href="#DejaVuSans-31" x="2039.441406"/>
     <use xlink:href="#DejaVuSans-39" x="2103.064453"/>
     <use xlink:href="#DejaVuSans-20" x="2166.6875"/>
     <use xlink:href="#DejaVuSans-73" x="2198.474609"/>
     <use xlink:href="#DejaVuSans-69" x="2250.574219"/>
     <use xlink:href="#DejaVuSans-67" x="2278.357422"/>
     <use xlink:href="#DejaVuSans-6e" x="2341.833984"/>
     <use xlink:href="#DejaVuSans-61" x="2405.212891"/>
     <use xlink:href="#DejaVuSans-74" x="2466.492188"/>
     <use xlink:href="#DejaVuSans-75" x="2505.701172"/>
     <use xlink:href="#DejaVuSans-72" x="2569.080078"/>
     <use xlink:href="#DejaVuSans-65" x="2607.943359"/>
     <use xlink:href="#DejaVuSans-20" x="2669.466797"/>
     <use xlink:href="#DejaVuSans-61" x="2701.253906"/>
     <use xlink:href="#DejaVuSans-6c" x="2762.533203"/>
     <use xlink:href="#DejaVuSans-67" x="2790.316406"/>
     <use xlink:href="#DejaVuSans-6f" x="2853.792969"/>
     <use xlink:href="#DejaVuSans-72" x="2914.974609"/>
     <use xlink:href="#DejaVuSans-69" x="2956.087891"/>
     <use xlink:href="#DejaVuSans-74" x="2983.871094"/>
     <use xlink:href="#DejaVuSans-68" x="3023.080078"/>
     <use xlink:href="#DejaVuSans-6d" x="3086.458984"/>
     <use xlink:href="#DejaVuSans-20" x="3183.871094"/>
     <use xlink:href="#DejaVuSans-2014" x="3215.658203"/>
     <use xlink:href="#DejaVuSans-20" x="3315.658203"/>
     <use xlink:href="#DejaVuSans-44" x="3347.445312"/>
     <use xlink:href="#DejaVuSans-65" x="3424.447266"/>
     <use xlink:href="#DejaVuSans-67" x="3485.970703"/>
     <use xlink:href="#DejaVuSans-72" x="3549.447266"/>
     <use xlink:href="#DejaVuSans-61" x="3590.560547"/>
     <use xlink:href="#DejaVuSans-64" x="3651.839844"/>
     <use xlink:href="#DejaVuSans-65" x="3715.316406"/>
     <use xlink:href="#DejaVuSans-64" x="3776.839844"/>
     <use xlink:href="#DejaVuSans-20" x="3840.316406"/>
     <use xlink:href="#DejaVuSans-28" x="3872.103516"/>
     <use xlink:href="#DejaVuSans-32" x="3911.117188"/>
     <use xlink:href="#DejaVuSans-30" x="3974.740234"/>
     <use xlink:href="#DejaVuSans-30" x="4038.363281"/>
     <use xlink:href="#DejaVuSans-6d" x="4101.986328"/>
     <use xlink:href="#DejaVuSans-73" x="4199.398438"/>
     <use xlink:href="#DejaVuSans-2f" x="4251.498047"/>
     <use xlink:href="#DejaVuSans-31" x="4285.189453"/>
     <use xlink:href="#DejaVuSans-30" x="4348.8125"/>
     <use xlink:href="#DejaVuSans-25" x="4412.435547"/>
     <use xlink:href="#DejaVuSans-29" x="4507.455078"/>
    </g>
   </g>
  </g>
 </g>
 <defs>
  <clipPath id="p879d1fc151">
   <rect x="58.32" y="27.6" width="792.72" height="367.54"/>
  </clipPath>
 </defs>
</svg>
