<?xml version="1.0" encoding="utf-8" standalone="no"?>
<!DOCTYPE svg PUBLIC "-//W3C//DTD SVG 1.1//EN"
  "http://www.w3.org/Graphics/SVG/1.1/DTD/svg11.dtd">
<svg xmlns:xlink="http://www.w3.org/1999/xlink" width="864pt" height="432pt" viewBox="0 0 864 432" xmlns="http://www.w3.org/2000/svg" version="1.1">
 <metadata>
  <rdf:RDF xmlns:dc="http://purl.org/dc/elements/1.1/" xmlns:cc="http://creativecommons.org/ns#" xmlns:rdf="http://www.w3.org/1999/02/22-rdf-syntax-ns#">
   <cc:Work>
    <dc:type rdf:resource="http://purl.org/dc/dcmitype/StillImage"/>
    <dc:date>2026-03-21T13:58:50.589312</dc:date>
    <dc:format>image/svg+xml</dc:format>
    <dc:creator>
     <cc:Agent>
      <dc:title>Matplotlib v3.6.3, https://matplotlib.org/</dc:title>
     </cc:Agent>
    </dc:creator>
   </cc:Work>
  </rdf:RDF>
 </metadata>
 <defs>
  <style type="text/css">*{stroke-linejoin: round; stroke-linecap: butt}</style>
 </defs>
 <g id="figure_1">
  <g id="patch_1">
   <path d="M 0 432 
L 864 432 
L 864 0 
L 0 0 
z
" style="fill: #ffffff"/>
  </g>
  <g id="axes_1">
   <g id="patch_2">
    <path d="M 58.32 395.14 
L 851.04 395.14 
L 851.04 27.6 
L 58.32 27.6 
z
" style="fill: #ffffff"/>
   </g>
   <g id="matplotlib.axis_1">
    <g id="xtick_1">
     <g id="text_1">
      <!-- P-521 -->
      <g style="fill: #262626" transform="translate(170.49 415.277812) scale(0.14 -0.14)">
       <defs>
        <path id="DejaVuSans-50" d="M 1259 4147 
L 1259 2394 
L 2053 2394 
Q 2494 2394 2734 2622 
Q 2975 2850 2975 3272 
Q 2975 3691 2734 3919 
Q 2494 4147 2053 4147 
L 1259 4147 
z
M 628 4666 
L 2053 4666 
Q 2838 4666 3239 4311 
Q 3641 3956 3641 3272 
Q 3641 2581 3239 2228 
Q 2838 1875 2053 1875 
L 1259 1875 
L 1259 0 
L 628 0 
L 628 4666 
z
" transform="scale(0.015625)"/>
        <path id="DejaVuSans-2d" d="M 313 2009 
L 1997 2009 
L 1997 1497 
L 313 1497 
L 313 2009 
z
" transform="scale(0.015625)"/>
        <path id="DejaVuSans-35" d="M 691 4666 
L 3169 4666 
L 3169 4134 
L 1269 4134 
L 1269 2991 
Q 1406 3038 1543 3061 
Q 1681 3084 1819 3084 
Q 2600 3084 3056 2656 
Q 3513 2228 3513 1497 
Q 3513 744 3044 326 
Q 2575 -91 1722 -91 
Q 1428 -91 1123 -41 
Q 819 9 494 109 
L 494 744 
Q 775 591 1075 516 
Q 1375 441 1709 441 
Q 2250 441 2565 725 
Q 2881 1009 2881 1497 
Q 2881 1984 2565 2268 
Q 2250 2553 1709 2553 
Q 1456 2553 1204 2497 
Q 953 2441 691 2322 
L 691 4666 
z
" transform="scale(0.015625)"/>
        <path id="DejaVuSans-32" d="M 1228 531 
L 3431 531 
L 3431 0 
L 469 0 
L 469 531 
Q 828 903 1448 1529 
Q 2069 2156 2228 2338 
Q 2531 2678 2651 2914 
Q 2772 3150 2772 3378 
Q 2772 3750 2511 3984 
Q 2250 4219 1831 4219 
Q 1534 4219 1204 4116 
Q 875 4013 500 3803 
L 500 4441 
Q 881 4594 1212 4672 
Q 1544 4750 1819 4750 
Q 2544 4750 2975 4387 
Q 3406 4025 3406 3419 
Q 3406 3131 3298 2873 
Q 3191 2616 2906 2266 
Q 2828 2175 2409 1742 
Q 1991 1309 1228 531 
z
" transform="scale(0.015625)"/>
        <path id="DejaVuSans-31" d="M 794 531 
L 1825 531 
L 1825 4091 
L 703 3866 
L 703 4441 
L 1819 4666 
L 2450 4666 
L 2450 531 
L 3481 531 
L 3481 0 
L 794 0 
L 794 531 
z
" transform="scale(0.015625)"/>
       </defs>
       <use xlink:href="#DejaVuSans-50"/>
       <use xlink:href="#DejaVuSans-2d" x="58.052734"/>
       <use xlink:href="#DejaVuSans-35" x="94.136719"/>
       <use xlink:href="#DejaVuSans-32" x="157.759766"/>
       <use xlink:href="#DejaVuSans-31" x="221.382812"/>
      </g>
     </g>
    </g>
    <g id="xtick_2">
     <g id="text_2">
      <!-- p521_mlkem1024 -->
      <g style="fill: #262626" transform="translate(391.871406 415.277812) scale(0.14 -0.14)">
       <defs>
        <path id="DejaVuSans-70" d="M 1159 525 
L 1159 -1331 
L 581 -1331 
L 581 3500 
L 1159 3500 
L 1159 2969 
Q 1341 3281 1617 3432 
Q 1894 3584 2278 3584 
Q 2916 3584 3314 3078 
Q 3713 2572 3713 1747 
Q 3713 922 3314 415 
Q 2916 -91 2278 -91 
Q 1894 -91 1617 61 
Q 1341 213 1159 525 
z
M 3116 1747 
Q 3116 2381 2855 2742 
Q 2594 3103 2138 3103 
Q 1681 3103 1420 2742 
Q 1159 2381 1159 1747 
Q 1159 1113 1420 752 
Q 1681 391 2138 391 
Q 2594 391 2855 752 
Q 3116 1113 3116 1747 
z
" transform="scale(0.015625)"/>
        <path id="DejaVuSans-5f" d="M 3263 -1063 
L 3263 -1509 
L -63 -1509 
L -63 -1063 
L 3263 -1063 
z
" transform="scale(0.015625)"/>
        <path id="DejaVuSans-6d" d="M 3328 2828 
Q 3544 3216 3844 3400 
Q 4144 3584 4550 3584 
Q 5097 3584 5394 3201 
Q 5691 2819 5691 2113 
L 5691 0 
L 5113 0 
L 5113 2094 
Q 5113 2597 4934 2840 
Q 4756 3084 4391 3084 
Q 3944 3084 3684 2787 
Q 3425 2491 3425 1978 
L 3425 0 
L 2847 0 
L 2847 2094 
Q 2847 2600 2669 2842 
Q 2491 3084 2119 3084 
Q 1678 3084 1418 2786 
Q 1159 2488 1159 1978 
L 1159 0 
L 581 0 
L 581 3500 
L 1159 3500 
L 1159 2956 
Q 1356 3278 1631 3431 
Q 1906 3584 2284 3584 
Q 2666 3584 2933 3390 
Q 3200 3197 3328 2828 
z
" transform="scale(0.015625)"/>
        <path id="DejaVuSans-6c" d="M 603 4863 
L 1178 4863 
L 1178 0 
L 603 0 
L 603 4863 
z
" transform="scale(0.015625)"/>
        <path id="DejaVuSans-6b" d="M 581 4863 
L 1159 4863 
L 1159 1991 
L 2875 3500 
L 3609 3500 
L 1753 1863 
L 3688 0 
L 2938 0 
L 1159 1709 
L 1159 0 
L 581 0 
L 581 4863 
z
" transform="scale(0.015625)"/>
        <path id="DejaVuSans-65" d="M 3597 1894 
L 3597 1613 
L 953 1613 
Q 991 1019 1311 708 
Q 1631 397 2203 397 
Q 2534 397 2845 478 
Q 3156 559 3463 722 
L 3463 178 
Q 3153 47 2828 -22 
Q 2503 -91 2169 -91 
Q 1331 -91 842 396 
Q 353 884 353 1716 
Q 353 2575 817 3079 
Q 1281 3584 2069 3584 
Q 2775 3584 3186 3129 
Q 3597 2675 3597 1894 
z
M 3022 2063 
Q 3016 2534 2758 2815 
Q 2500 3097 2075 3097 
Q 1594 3097 1305 2825 
Q 1016 2553 972 2059 
L 3022 2063 
z
" transform="scale(0.015625)"/>
        <path id="DejaVuSans-30" d="M 2034 4250 
Q 1547 4250 1301 3770 
Q 1056 3291 1056 2328 
Q 1056 1369 1301 889 
Q 1547 409 2034 409 
Q 2525 409 2770 889 
Q 3016 1369 3016 2328 
Q 3016 3291 2770 3770 
Q 2525 4250 2034 4250 
z
M 2034 4750 
Q 2819 4750 3233 4129 
Q 3647 3509 3647 2328 
Q 3647 1150 3233 529 
Q 2819 -91 2034 -91 
Q 1250 -91 836 529 
Q 422 1150 422 2328 
Q 422 3509 836 4129 
Q 1250 4750 2034 4750 
z
" transform="scale(0.015625)"/>
        <path id="DejaVuSans-34" d="M 2419 4116 
L 825 1625 
L 2419 1625 
L 2419 4116 
z
M 2253 4666 
L 3047 4666 
L 3047 1625 
L 3713 1625 
L 3713 1100 
L 3047 1100 
L 3047 0 
L 2419 0 
L 2419 1100 
L 313 1100 
L 313 1709 
L 2253 4666 
z
" transform="scale(0.015625)"/>
       </defs>
       <use xlink:href="#DejaVuSans-70"/>
       <use xlink:href="#DejaVuSans-35" x="63.476562"/>
       <use xlink:href="#DejaVuSans-32" x="127.099609"/>
       <use xlink:href="#DejaVuSans-31" x="190.722656"/>
       <use xlink:href="#DejaVuSans-5f" x="254.345703"/>
       <use xlink:href="#DejaVuSans-6d" x="304.345703"/>
       <use xlink:href="#DejaVuSans-6c" x="401.757812"/>
       <use xlink:href="#DejaVuSans-6b" x="429.541016"/>
       <use xlink:href="#DejaVuSans-65" x="483.826172"/>
       <use xlink:href="#DejaVuSans-6d" x="545.349609"/>
       <use xlink:href="#DejaVuSans-31" x="642.761719"/>
       <use xlink:href="#DejaVuSans-30" x="706.384766"/>
       <use xlink:href="#DejaVuSans-32" x="770.007812"/>
       <use xlink:href="#DejaVuSans-34" x="833.630859"/>
      </g>
     </g>
    </g>
    <g id="xtick_3">
     <g id="text_3">
      <!-- mlkem1024 -->
      <g style="fill: #262626" transform="translate(677.416562 415.277812) scale(0.14 -0.14)">
       <use xlink:href="#DejaVuSans-6d"/>
       <use xlink:href="#DejaVuSans-6c" x="97.412109"/>
       <use xlink:href="#DejaVuSans-6b" x="125.195312"/>
       <use xlink:href="#DejaVuSans-65" x="179.480469"/>
       <use xlink:href="#DejaVuSans-6d" x="241.003906"/>
       <use xlink:href="#DejaVuSans-31" x="338.416016"/>
       <use xlink:href="#DejaVuSans-30" x="402.039062"/>
       <use xlink:href="#DejaVuSans-32" x="465.662109"/>
       <use xlink:href="#DejaVuSans-34" x="529.285156"/>
      </g>
     </g>
    </g>
   </g>
   <g id="matplotlib.axis_2">
    <g id="ytick_1">
     <g id="line2d_1">
      <path d="M 58.32 336.387416 
L 851.04 336.387416 
" clip-path="url(#pc2edb89be8)" style="fill: none; stroke: #cccccc; stroke-linecap: round"/>
     </g>
     <g id="text_4">
      <!-- 805 -->
      <g style="fill: #262626" transform="translate(27.82375 340.566557) scale(0.11 -0.11)">
       <defs>
        <path id="DejaVuSans-38" d="M 2034 2216 
Q 1584 2216 1326 1975 
Q 1069 1734 1069 1313 
Q 1069 891 1326 650 
Q 1584 409 2034 409 
Q 2484 409 2743 651 
Q 3003 894 3003 1313 
Q 3003 1734 2745 1975 
Q 2488 2216 2034 2216 
z
M 1403 2484 
Q 997 2584 770 2862 
Q 544 3141 544 3541 
Q 544 4100 942 4425 
Q 1341 4750 2034 4750 
Q 2731 4750 3128 4425 
Q 3525 4100 3525 3541 
Q 3525 3141 3298 2862 
Q 3072 2584 2669 2484 
Q 3125 2378 3379 2068 
Q 3634 1759 3634 1313 
Q 3634 634 3220 271 
Q 2806 -91 2034 -91 
Q 1263 -91 848 271 
Q 434 634 434 1313 
Q 434 1759 690 2068 
Q 947 2378 1403 2484 
z
M 1172 3481 
Q 1172 3119 1398 2916 
Q 1625 2713 2034 2713 
Q 2441 2713 2670 2916 
Q 2900 3119 2900 3481 
Q 2900 3844 2670 4047 
Q 2441 4250 2034 4250 
Q 1625 4250 1398 4047 
Q 1172 3844 1172 3481 
z
" transform="scale(0.015625)"/>
       </defs>
       <use xlink:href="#DejaVuSans-38"/>
       <use xlink:href="#DejaVuSans-30" x="63.623047"/>
       <use xlink:href="#DejaVuSans-35" x="127.246094"/>
      </g>
     </g>
    </g>
    <g id="ytick_2">
     <g id="line2d_2">
      <path d="M 58.32 270.406199 
L 851.04 270.406199 
" clip-path="url(#pc2edb89be8)" style="fill: none; stroke: #cccccc; stroke-linecap: round"/>
     </g>
     <g id="text_5">
      <!-- 810 -->
      <g style="fill: #262626" transform="translate(27.82375 274.58534) scale(0.11 -0.11)">
       <use xlink:href="#DejaVuSans-38"/>
       <use xlink:href="#DejaVuSans-31" x="63.623047"/>
       <use xlink:href="#DejaVuSans-30" x="127.246094"/>
      </g>
     </g>
    </g>
    <g id="ytick_3">
     <g id="line2d_3">
      <path d="M 58.32 204.424982 
L 851.04 204.424982 
" clip-path="url(#pc2edb89be8)" style="fill: none; stroke: #cccccc; stroke-linecap: round"/>
     </g>
     <g id="text_6">
      <!-- 815 -->
      <g style="fill: #262626" transform="translate(27.82375 208.604123) scale(0.11 -0.11)">
       <use xlink:href="#DejaVuSans-38"/>
       <use xlink:href="#DejaVuSans-31" x="63.623047"/>
       <use xlink:href="#DejaVuSans-35" x="127.246094"/>
      </g>
     </g>
    </g>
    <g id="ytick_4">
     <g id="line2d_4">
      <path d="M 58.32 138.443765 
L 851.04 138.443765 
" clip-path="url(#pc2edb89be8)" style="fill: none; stroke: #cccccc; stroke-linecap: round"/>
     </g>
     <g id="text_7">
      <!-- 820 -->
      <g style="fill: #262626" transform="translate(27.82375 142.622906) scale(0.11 -0.11)">
       <use xlink:href="#DejaVuSans-38"/>
       <use xlink:href="#DejaVuSans-32" x="63.623047"/>
       <use xlink:href="#DejaVuSans-30" x="127.246094"/>
      </g>
     </g>
    </g>
    <g id="ytick_5">
     <g id="line2d_5">
      <path d="M 58.32 72.462548 
L 851.04 72.462548 
" clip-path="url(#pc2edb89be8)" style="fill: none; stroke: #cccccc; stroke-linecap: round"/>
     </g>
     <g id="text_8">
      <!-- 825 -->
      <g style="fill: #262626" transform="translate(27.82375 76.641689) scale(0.11 -0.11)">
       <use xlink:href="#DejaVuSans-38"/>
       <use xlink:href="#DejaVuSans-32" x="63.623047"/>
       <use xlink:href="#DejaVuSans-35" x="127.246094"/>
      </g>
     </g>
    </g>
    <g id="text_9">
     <!-- Handshake duration (ms) -->
     <g style="fill: #262626" transform="translate(21.328125 287.437813) rotate(-90) scale(0.12 -0.12)">
      <defs>
       <path id="DejaVuSans-48" d="M 628 4666 
L 1259 4666 
L 1259 2753 
L 3553 2753 
L 3553 4666 
L 4184 4666 
L 4184 0 
L 3553 0 
L 3553 2222 
L 1259 2222 
L 1259 0 
L 628 0 
L 628 4666 
z
" transform="scale(0.015625)"/>
       <path id="DejaVuSans-61" d="M 2194 1759 
Q 1497 1759 1228 1600 
Q 959 1441 959 1056 
Q 959 750 1161 570 
Q 1363 391 1709 391 
Q 2188 391 2477 730 
Q 2766 1069 2766 1631 
L 2766 1759 
L 2194 1759 
z
M 3341 1997 
L 3341 0 
L 2766 0 
L 2766 531 
Q 2569 213 2275 61 
Q 1981 -91 1556 -91 
Q 1019 -91 701 211 
Q 384 513 384 1019 
Q 384 1609 779 1909 
Q 1175 2209 1959 2209 
L 2766 2209 
L 2766 2266 
Q 2766 2663 2505 2880 
Q 2244 3097 1772 3097 
Q 1472 3097 1187 3025 
Q 903 2953 641 2809 
L 641 3341 
Q 956 3463 1253 3523 
Q 1550 3584 1831 3584 
Q 2591 3584 2966 3190 
Q 3341 2797 3341 1997 
z
" transform="scale(0.015625)"/>
       <path id="DejaVuSans-6e" d="M 3513 2113 
L 3513 0 
L 2938 0 
L 2938 2094 
Q 2938 2591 2744 2837 
Q 2550 3084 2163 3084 
Q 1697 3084 1428 2787 
Q 1159 2491 1159 1978 
L 1159 0 
L 581 0 
L 581 3500 
L 1159 3500 
L 1159 2956 
Q 1366 3272 1645 3428 
Q 1925 3584 2291 3584 
Q 2894 3584 3203 3211 
Q 3513 2838 3513 2113 
z
" transform="scale(0.015625)"/>
       <path id="DejaVuSans-64" d="M 2906 2969 
L 2906 4863 
L 3481 4863 
L 3481 0 
L 2906 0 
L 2906 525 
Q 2725 213 2448 61 
Q 2172 -91 1784 -91 
Q 1150 -91 751 415 
Q 353 922 353 1747 
Q 353 2572 751 3078 
Q 1150 3584 1784 3584 
Q 2172 3584 2448 3432 
Q 2725 3281 2906 2969 
z
M 947 1747 
Q 947 1113 1208 752 
Q 1469 391 1925 391 
Q 2381 391 2643 752 
Q 2906 1113 2906 1747 
Q 2906 2381 2643 2742 
Q 2381 3103 1925 3103 
Q 1469 3103 1208 2742 
Q 947 2381 947 1747 
z
" transform="scale(0.015625)"/>
       <path id="DejaVuSans-73" d="M 2834 3397 
L 2834 2853 
Q 2591 2978 2328 3040 
Q 2066 3103 1784 3103 
Q 1356 3103 1142 2972 
Q 928 2841 928 2578 
Q 928 2378 1081 2264 
Q 1234 2150 1697 2047 
L 1894 2003 
Q 2506 1872 2764 1633 
Q 3022 1394 3022 966 
Q 3022 478 2636 193 
Q 2250 -91 1575 -91 
Q 1294 -91 989 -36 
Q 684 19 347 128 
L 347 722 
Q 666 556 975 473 
Q 1284 391 1588 391 
Q 1994 391 2212 530 
Q 2431 669 2431 922 
Q 2431 1156 2273 1281 
Q 2116 1406 1581 1522 
L 1381 1569 
Q 847 1681 609 1914 
Q 372 2147 372 2553 
Q 372 3047 722 3315 
Q 1072 3584 1716 3584 
Q 2034 3584 2315 3537 
Q 2597 3491 2834 3397 
z
" transform="scale(0.015625)"/>
       <path id="DejaVuSans-68" d="M 3513 2113 
L 3513 0 
L 2938 0 
L 2938 2094 
Q 2938 2591 2744 2837 
Q 2550 3084 2163 3084 
Q 1697 3084 1428 2787 
Q 1159 2491 1159 1978 
L 1159 0 
L 581 0 
L 581 4863 
L 1159 4863 
L 1159 2956 
Q 1366 3272 1645 3428 
Q 1925 3584 2291 3584 
Q 2894 3584 3203 3211 
Q 3513 2838 3513 2113 
z
" transform="scale(0.015625)"/>
       <path id="DejaVuSans-20" transform="scale(0.015625)"/>
       <path id="DejaVuSans-75" d="M 544 1381 
L 544 3500 
L 1119 3500 
L 1119 1403 
Q 1119 906 1312 657 
Q 1506 409 1894 409 
Q 2359 409 2629 706 
Q 2900 1003 2900 1516 
L 2900 3500 
L 3475 3500 
L 3475 0 
L 2900 0 
L 2900 538 
Q 2691 219 2414 64 
Q 2138 -91 1772 -91 
Q 1169 -91 856 284 
Q 544 659 544 1381 
z
M 1991 3584 
L 1991 3584 
z
" transform="scale(0.015625)"/>
       <path id="DejaVuSans-72" d="M 2631 2963 
Q 2534 3019 2420 3045 
Q 2306 3072 2169 3072 
Q 1681 3072 1420 2755 
Q 1159 2438 1159 1844 
L 1159 0 
L 581 0 
L 581 3500 
L 1159 3500 
L 1159 2956 
Q 1341 3275 1631 3429 
Q 1922 3584 2338 3584 
Q 2397 3584 2469 3576 
Q 2541 3569 2628 3553 
L 2631 2963 
z
" transform="scale(0.015625)"/>
       <path id="DejaVuSans-74" d="M 1172 4494 
L 1172 3500 
L 2356 3500 
L 2356 3053 
L 1172 3053 
L 1172 1153 
Q 1172 725 1289 603 
Q 1406 481 1766 481 
L 2356 481 
L 2356 0 
L 1766 0 
Q 1100 0 847 248 
Q 594 497 594 1153 
L 594 3053 
L 172 3053 
L 172 3500 
L 594 3500 
L 594 4494 
L 1172 4494 
z
" transform="scale(0.015625)"/>
       <path id="DejaVuSans-69" d="M 603 3500 
L 1178 3500 
L 1178 0 
L 603 0 
L 603 3500 
z
M 603 4863 
L 1178 4863 
L 1178 4134 
L 603 4134 
L 603 4863 
z
" transform="scale(0.015625)"/>
       <path id="DejaVuSans-6f" d="M 1959 3097 
Q 1497 3097 1228 2736 
Q 959 2375 959 1747 
Q 959 1119 1226 758 
Q 1494 397 1959 397 
Q 2419 397 2687 759 
Q 2956 1122 2956 1747 
Q 2956 2369 2687 2733 
Q 2419 3097 1959 3097 
z
M 1959 3584 
Q 2709 3584 3137 3096 
Q 3566 2609 3566 1747 
Q 3566 888 3137 398 
Q 2709 -91 1959 -91 
Q 1206 -91 779 398 
Q 353 888 353 1747 
Q 353 2609 779 3096 
Q 1206 3584 1959 3584 
z
" transform="scale(0.015625)"/>
       <path id="DejaVuSans-28" d="M 1984 4856 
Q 1566 4138 1362 3434 
Q 1159 2731 1159 2009 
Q 1159 1288 1364 580 
Q 1569 -128 1984 -844 
L 1484 -844 
Q 1016 -109 783 600 
Q 550 1309 550 2009 
Q 550 2706 781 3412 
Q 1013 4119 1484 4856 
L 1984 4856 
z
" transform="scale(0.015625)"/>
       <path id="DejaVuSans-29" d="M 513 4856 
L 1013 4856 
Q 1481 4119 1714 3412 
Q 1947 2706 1947 2009 
Q 1947 1309 1714 600 
Q 1481 -109 1013 -844 
L 513 -844 
Q 928 -128 1133 580 
Q 1338 1288 1338 2009 
Q 1338 2731 1133 3434 
Q 928 4138 513 4856 
z
" transform="scale(0.015625)"/>
      </defs>
      <use xlink:href="#DejaVuSans-48"/>
      <use xlink:href="#DejaVuSans-61" x="75.195312"/>
      <use xlink:href="#DejaVuSans-6e" x="136.474609"/>
      <use xlink:href="#DejaVuSans-64" x="199.853516"/>
      <use xlink:href="#DejaVuSans-73" x="263.330078"/>
      <use xlink:href="#DejaVuSans-68" x="315.429688"/>
      <use xlink:href="#DejaVuSans-61" x="378.808594"/>
      <use xlink:href="#DejaVuSans-6b" x="440.087891"/>
      <use xlink:href="#DejaVuSans-65" x="494.373047"/>
      <use xlink:href="#DejaVuSans-20" x="555.896484"/>
      <use xlink:href="#DejaVuSans-64" x="587.683594"/>
      <use xlink:href="#DejaVuSans-75" x="651.160156"/>
      <use xlink:href="#DejaVuSans-72" x="714.539062"/>
      <use xlink:href="#DejaVuSans-61" x="755.652344"/>
      <use xlink:href="#DejaVuSans-74" x="816.931641"/>
      <use xlink:href="#DejaVuSans-69" x="856.140625"/>
      <use xlink:href="#DejaVuSans-6f" x="883.923828"/>
      <use xlink:href="#DejaVuSans-6e" x="945.105469"/>
      <use xlink:href="#DejaVuSans-20" x="1008.484375"/>
      <use xlink:href="#DejaVuSans-28" x="1040.271484"/>
      <use xlink:href="#DejaVuSans-6d" x="1079.285156"/>
      <use xlink:href="#DejaVuSans-73" x="1176.697266"/>
      <use xlink:href="#DejaVuSans-29" x="1228.796875"/>
     </g>
    </g>
   </g>
   <g id="PolyCollection_1">
    <defs>
     <path id="m76152f442d" d="M 191.369073 -75.959502 
L 189.510927 -75.959502 
L 187.472228 -77.637503 
L 182.460051 -79.315503 
L 172.284909 -80.993504 
L 155.322492 -82.671504 
L 132.433721 -84.349505 
L 108.293506 -86.027506 
L 90.286304 -87.705506 
L 84.744 -89.383507 
L 93.075572 -91.061508 
L 111.073792 -92.739508 
L 131.85452 -94.417509 
L 149.619293 -96.09551 
L 161.565082 -97.77351 
L 167.759128 -99.451511 
L 170.086706 -101.129511 
L 170.972231 -102.807512 
L 172.229249 -104.485513 
L 174.460767 -106.163513 
L 177.208984 -107.841514 
L 179.60866 -109.519515 
L 181.078154 -111.197515 
L 181.650713 -112.875516 
L 181.822645 -114.553517 
L 182.140915 -116.231517 
L 182.888691 -117.909518 
L 184.042259 -119.587518 
L 185.408851 -121.265519 
L 186.77198 -122.94352 
L 187.961829 -124.62152 
L 188.871565 -126.299521 
L 189.464363 -127.977522 
L 189.782013 -129.655522 
L 189.930312 -131.333523 
L 190.024726 -133.011524 
L 190.129432 -134.689524 
L 190.243126 -136.367525 
L 190.335102 -138.045525 
L 190.382609 -139.723526 
L 190.375159 -141.401527 
L 190.301061 -143.079527 
L 190.150892 -144.757528 
L 189.947167 -146.435529 
L 189.764977 -148.113529 
L 189.697062 -149.79153 
L 189.777175 -151.469531 
L 189.942972 -153.147531 
L 190.085885 -154.825532 
L 190.136744 -156.503532 
L 190.107616 -158.181533 
L 190.06666 -159.859534 
L 190.077412 -161.537534 
L 190.152539 -163.215535 
L 190.256696 -164.893536 
L 190.346318 -166.571536 
L 190.401658 -168.249537 
L 190.427436 -169.927538 
L 190.436704 -171.605538 
L 190.439308 -173.283539 
L 190.439884 -174.961539 
L 190.439984 -176.63954 
L 190.439998 -178.317541 
L 190.44 -179.995541 
L 190.44 -181.673542 
L 190.44 -183.351543 
L 190.44 -185.029543 
L 190.44 -186.707544 
L 190.44 -188.385545 
L 190.44 -190.063545 
L 190.44 -191.741546 
L 190.44 -193.419546 
L 190.44 -195.097547 
L 190.44 -196.775548 
L 190.44 -198.453548 
L 190.44 -200.131549 
L 190.44 -201.80955 
L 190.44 -203.48755 
L 190.44 -205.165551 
L 190.44 -206.843552 
L 190.44 -208.521552 
L 190.44 -210.199553 
L 190.44 -211.877553 
L 190.44 -213.555554 
L 190.44 -215.233555 
L 190.439999 -216.911555 
L 190.439991 -218.589556 
L 190.439927 -220.267557 
L 190.439541 -221.945557 
L 190.437693 -223.623558 
L 190.430723 -225.301559 
L 190.410124 -226.979559 
L 190.362975 -228.65756 
L 190.281013 -230.33556 
L 190.177266 -232.013561 
L 190.092389 -233.691562 
L 190.071792 -235.369562 
L 190.127741 -237.047563 
L 190.227989 -238.725564 
L 190.324754 -240.403564 
L 190.389845 -242.081565 
L 190.490155 -242.081565 
L 190.490155 -242.081565 
L 190.555246 -240.403564 
L 190.652011 -238.725564 
L 190.752259 -237.047563 
L 190.808208 -235.369562 
L 190.787611 -233.691562 
L 190.702734 -232.013561 
L 190.598987 -230.33556 
L 190.517025 -228.65756 
L 190.469876 -226.979559 
L 190.449277 -225.301559 
L 190.442307 -223.623558 
L 190.440459 -221.945557 
L 190.440073 -220.267557 
L 190.440009 -218.589556 
L 190.440001 -216.911555 
L 190.44 -215.233555 
L 190.44 -213.555554 
L 190.44 -211.877553 
L 190.44 -210.199553 
L 190.44 -208.521552 
L 190.44 -206.843552 
L 190.44 -205.165551 
L 190.44 -203.48755 
L 190.44 -201.80955 
L 190.44 -200.131549 
L 190.44 -198.453548 
L 190.44 -196.775548 
L 190.44 -195.097547 
L 190.44 -193.419546 
L 190.44 -191.741546 
L 190.44 -190.063545 
L 190.44 -188.385545 
L 190.44 -186.707544 
L 190.44 -185.029543 
L 190.44 -183.351543 
L 190.44 -181.673542 
L 190.44 -179.995541 
L 190.440002 -178.317541 
L 190.440016 -176.63954 
L 190.440116 -174.961539 
L 190.440692 -173.283539 
L 190.443296 -171.605538 
L 190.452564 -169.927538 
L 190.478342 -168.249537 
L 190.533682 -166.571536 
L 190.623304 -164.893536 
L 190.727461 -163.215535 
L 190.802588 -161.537534 
L 190.81334 -159.859534 
L 190.772384 -158.181533 
L 190.743256 -156.503532 
L 190.794115 -154.825532 
L 190.937028 -153.147531 
L 191.102825 -151.469531 
L 191.182938 -149.79153 
L 191.115023 -148.113529 
L 190.932833 -146.435529 
L 190.729108 -144.757528 
L 190.578939 -143.079527 
L 190.504841 -141.401527 
L 190.497391 -139.723526 
L 190.544898 -138.045525 
L 190.636874 -136.367525 
L 190.750568 -134.689524 
L 190.855274 -133.011524 
L 190.949688 -131.333523 
L 191.097987 -129.655522 
L 191.415637 -127.977522 
L 192.008435 -126.299521 
L 192.918171 -124.62152 
L 194.10802 -122.94352 
L 195.471149 -121.265519 
L 196.837741 -119.587518 
L 197.991309 -117.909518 
L 198.739085 -116.231517 
L 199.057355 -114.553517 
L 199.229287 -112.875516 
L 199.801846 -111.197515 
L 201.27134 -109.519515 
L 203.671016 -107.841514 
L 206.419233 -106.163513 
L 208.650751 -104.485513 
L 209.907769 -102.807512 
L 210.793294 -101.129511 
L 213.120872 -99.451511 
L 219.314918 -97.77351 
L 231.260707 -96.09551 
L 249.02548 -94.417509 
L 269.806208 -92.739508 
L 287.804428 -91.061508 
L 296.136 -89.383507 
L 290.593696 -87.705506 
L 272.586494 -86.027506 
L 248.446279 -84.349505 
L 225.557508 -82.671504 
L 208.595091 -80.993504 
L 198.419949 -79.315503 
L 193.407772 -77.637503 
L 191.369073 -75.959502 
z
" style="stroke: #595959; stroke-width: 1.25"/>
    </defs>
    <g clip-path="url(#pc2edb89be8)">
     <use xlink:href="#m76152f442d" x="0" y="432" style="fill: #72b6a1; stroke: #595959; stroke-width: 1.25"/>
    </g>
   </g>
   <g id="PolyCollection_2">
    <defs>
     <path id="m2c6368b412" d="M 457.311901 -156.39908 
L 452.048099 -156.39908 
L 449.39842 -158.735388 
L 444.836433 -161.071697 
L 437.636338 -163.408006 
L 427.254873 -165.744314 
L 413.650375 -168.080623 
L 397.579197 -170.416932 
L 380.706695 -172.75324 
L 365.396814 -175.089549 
L 354.168976 -177.425858 
L 348.984 -179.762166 
L 350.64035 -182.098475 
L 358.541213 -184.434784 
L 370.929124 -186.771092 
L 385.470248 -189.107401 
L 399.929184 -191.44371 
L 412.677138 -193.780018 
L 422.897045 -196.116327 
L 430.501658 -198.452636 
L 435.882387 -200.788944 
L 439.626736 -203.125253 
L 442.301097 -205.461562 
L 444.334974 -207.79787 
L 445.99497 -210.134179 
L 447.414379 -212.470487 
L 448.643031 -214.806796 
L 449.692306 -217.143105 
L 450.563017 -219.479413 
L 451.254253 -221.815722 
L 451.757749 -224.152031 
L 452.04564 -226.488339 
L 452.060594 -228.824648 
L 451.717049 -231.160957 
L 450.9202 -233.497265 
L 449.604258 -235.833574 
L 447.782536 -238.169883 
L 445.59117 -240.506191 
L 443.301766 -242.8425 
L 441.283486 -245.178809 
L 439.91468 -247.515117 
L 439.470653 -249.851426 
L 440.032276 -252.187735 
L 441.456436 -254.524043 
L 443.423021 -256.860352 
L 445.538476 -259.196661 
L 447.452267 -261.532969 
L 448.942014 -263.869278 
L 449.942606 -266.205586 
L 450.521348 -268.541895 
L 450.820918 -270.878204 
L 450.9977 -273.214512 
L 451.176405 -275.550821 
L 451.429322 -277.88713 
L 451.777185 -280.223438 
L 452.202743 -282.559747 
L 452.668052 -284.896056 
L 453.129748 -287.232364 
L 453.550047 -289.568673 
L 453.903211 -291.904982 
L 454.177842 -294.24129 
L 454.375606 -296.577599 
L 454.50743 -298.913908 
L 454.588707 -301.250216 
L 454.635021 -303.586525 
L 454.659394 -305.922834 
L 454.671234 -308.259142 
L 454.676541 -310.595451 
L 454.678735 -312.93176 
L 454.679572 -315.268068 
L 454.679866 -317.604377 
L 454.679961 -319.940685 
L 454.67999 -322.276994 
L 454.679997 -324.613303 
L 454.679999 -326.949611 
L 454.679999 -329.28592 
L 454.679997 -331.622229 
L 454.679989 -333.958537 
L 454.679963 -336.294846 
L 454.679881 -338.631155 
L 454.679644 -340.967463 
L 454.679022 -343.303772 
L 454.677521 -345.640081 
L 454.674205 -347.976389 
L 454.667509 -350.312698 
L 454.655169 -352.649007 
L 454.634484 -354.985315 
L 454.603063 -357.321624 
L 454.560078 -359.657933 
L 454.507632 -361.994241 
L 454.45154 -364.33055 
L 454.400772 -366.666858 
L 454.365296 -369.003167 
L 454.352931 -371.339476 
L 454.366547 -373.675784 
L 454.402987 -376.012093 
L 454.454252 -378.348402 
L 454.510355 -380.68471 
L 454.562442 -383.021019 
L 454.604879 -385.357328 
L 454.635735 -387.693636 
L 454.724265 -387.693636 
L 454.724265 -387.693636 
L 454.755121 -385.357328 
L 454.797558 -383.021019 
L 454.849645 -380.68471 
L 454.905748 -378.348402 
L 454.957013 -376.012093 
L 454.993453 -373.675784 
L 455.007069 -371.339476 
L 454.994704 -369.003167 
L 454.959228 -366.666858 
L 454.90846 -364.33055 
L 454.852368 -361.994241 
L 454.799922 -359.657933 
L 454.756937 -357.321624 
L 454.725516 -354.985315 
L 454.704831 -352.649007 
L 454.692491 -350.312698 
L 454.685795 -347.976389 
L 454.682479 -345.640081 
L 454.680978 -343.303772 
L 454.680356 -340.967463 
L 454.680119 -338.631155 
L 454.680037 -336.294846 
L 454.680011 -333.958537 
L 454.680003 -331.622229 
L 454.680001 -329.28592 
L 454.680001 -326.949611 
L 454.680003 -324.613303 
L 454.68001 -322.276994 
L 454.680039 -319.940685 
L 454.680134 -317.604377 
L 454.680428 -315.268068 
L 454.681265 -312.93176 
L 454.683459 -310.595451 
L 454.688766 -308.259142 
L 454.700606 -305.922834 
L 454.724979 -303.586525 
L 454.771293 -301.250216 
L 454.85257 -298.913908 
L 454.984394 -296.577599 
L 455.182158 -294.24129 
L 455.456789 -291.904982 
L 455.809953 -289.568673 
L 456.230252 -287.232364 
L 456.691948 -284.896056 
L 457.157257 -282.559747 
L 457.582815 -280.223438 
L 457.930678 -277.88713 
L 458.183595 -275.550821 
L 458.3623 -273.214512 
L 458.539082 -270.878204 
L 458.838652 -268.541895 
L 459.417394 -266.205586 
L 460.417986 -263.869278 
L 461.907733 -261.532969 
L 463.821524 -259.196661 
L 465.936979 -256.860352 
L 467.903564 -254.524043 
L 469.327724 -252.187735 
L 469.889347 -249.851426 
L 469.44532 -247.515117 
L 468.076514 -245.178809 
L 466.058234 -242.8425 
L 463.76883 -240.506191 
L 461.577464 -238.169883 
L 459.755742 -235.833574 
L 458.4398 -233.497265 
L 457.642951 -231.160957 
L 457.299406 -228.824648 
L 457.31436 -226.488339 
L 457.602251 -224.152031 
L 458.105747 -221.815722 
L 458.796983 -219.479413 
L 459.667694 -217.143105 
L 460.716969 -214.806796 
L 461.945621 -212.470487 
L 463.36503 -210.134179 
L 465.025026 -207.79787 
L 467.058903 -205.461562 
L 469.733264 -203.125253 
L 473.477613 -200.788944 
L 478.858342 -198.452636 
L 486.462955 -196.116327 
L 496.682862 -193.780018 
L 509.430816 -191.44371 
L 523.889752 -189.107401 
L 538.430876 -186.771092 
L 550.818787 -184.434784 
L 558.71965 -182.098475 
L 560.376 -179.762166 
L 555.191024 -177.425858 
L 543.963186 -175.089549 
L 528.653305 -172.75324 
L 511.780803 -170.416932 
L 495.709625 -168.080623 
L 482.105127 -165.744314 
L 471.723662 -163.408006 
L 464.523567 -161.071697 
L 459.96158 -158.735388 
L 457.311901 -156.39908 
z
" style="stroke: #595959; stroke-width: 1.25"/>
    </defs>
    <g clip-path="url(#pc2edb89be8)">
     <use xlink:href="#m2c6368b412" x="0" y="432" style="fill: #e99675; stroke: #595959; stroke-width: 1.25"/>
    </g>
   </g>
   <g id="PolyCollection_3">
    <defs>
     <path id="m3bae528e3b" d="M 719.032273 -53.566364 
L 718.807727 -53.566364 
L 718.609688 -54.367796 
L 718.148775 -55.169228 
L 717.159811 -55.97066 
L 715.175412 -56.772093 
L 711.457181 -57.573525 
L 705.03402 -58.374957 
L 694.962463 -59.176389 
L 680.824574 -59.977822 
L 663.298414 -60.779254 
L 644.494596 -61.580686 
L 627.728512 -62.382118 
L 616.543284 -63.183551 
L 613.224 -63.984983 
L 617.640288 -64.786415 
L 627.369976 -65.587847 
L 639.173835 -66.38928 
L 650.712724 -67.190712 
L 661.246562 -67.992144 
L 671.082606 -68.793576 
L 680.573118 -69.595009 
L 689.55792 -70.396441 
L 697.488744 -71.197873 
L 703.855309 -71.999305 
L 708.4703 -72.800738 
L 711.492895 -73.60217 
L 713.308236 -74.403602 
L 714.371386 -75.205034 
L 715.057947 -76.006467 
L 715.572703 -76.807899 
L 715.9686 -77.609331 
L 716.246813 -78.410763 
L 716.438936 -79.212196 
L 716.612164 -80.013628 
L 716.824171 -80.81506 
L 717.083203 -81.616492 
L 717.344482 -82.417925 
L 717.543489 -83.219357 
L 717.642788 -84.020789 
L 717.659308 -84.822221 
L 717.653267 -85.623654 
L 717.687251 -86.425086 
L 717.78636 -87.226518 
L 717.932025 -88.02795 
L 718.089266 -88.829383 
L 718.229268 -89.630815 
L 718.323385 -90.432247 
L 718.336321 -91.233679 
L 718.252884 -92.035112 
L 718.117006 -92.836544 
L 718.025336 -93.637976 
L 718.061302 -94.439408 
L 718.229766 -95.240841 
L 718.458573 -96.042273 
L 718.658907 -96.843705 
L 718.778452 -97.645137 
L 718.80772 -98.44657 
L 718.760009 -99.248002 
L 718.661068 -100.049434 
L 718.552568 -100.850866 
L 718.486179 -101.652299 
L 718.497258 -102.453731 
L 718.58041 -103.255163 
L 718.695159 -104.056595 
L 718.797298 -104.858028 
L 718.864751 -105.65946 
L 718.899157 -106.460892 
L 718.911917 -107.262324 
L 718.911289 -108.063757 
L 718.896778 -108.865189 
L 718.859412 -109.666621 
L 718.788095 -110.468053 
L 718.683126 -111.269486 
L 718.569393 -112.070918 
L 718.492289 -112.87235 
L 718.489962 -113.673782 
L 718.563641 -114.475215 
L 718.676614 -115.276647 
L 718.782998 -116.078079 
L 718.85644 -116.879511 
L 718.895696 -117.680944 
L 718.912341 -118.482376 
L 718.91801 -119.283808 
L 718.919573 -120.08524 
L 718.919913 -120.886673 
L 718.919911 -121.688105 
L 718.919558 -122.489537 
L 718.917952 -123.290969 
L 718.912145 -124.092402 
L 718.895171 -124.893834 
L 718.85532 -125.695266 
L 718.781129 -126.496698 
L 718.674258 -127.298131 
L 718.561596 -128.099563 
L 718.489184 -128.900995 
L 718.493189 -129.702427 
L 718.571498 -130.50386 
L 718.685468 -131.305292 
L 718.789916 -132.106724 
L 718.860534 -132.908156 
L 718.979466 -132.908156 
L 718.979466 -132.908156 
L 719.050084 -132.106724 
L 719.154532 -131.305292 
L 719.268502 -130.50386 
L 719.346811 -129.702427 
L 719.350816 -128.900995 
L 719.278404 -128.099563 
L 719.165742 -127.298131 
L 719.058871 -126.496698 
L 718.98468 -125.695266 
L 718.944829 -124.893834 
L 718.927855 -124.092402 
L 718.922048 -123.290969 
L 718.920442 -122.489537 
L 718.920089 -121.688105 
L 718.920087 -120.886673 
L 718.920427 -120.08524 
L 718.92199 -119.283808 
L 718.927659 -118.482376 
L 718.944304 -117.680944 
L 718.98356 -116.879511 
L 719.057002 -116.078079 
L 719.163386 -115.276647 
L 719.276359 -114.475215 
L 719.350038 -113.673782 
L 719.347711 -112.87235 
L 719.270607 -112.070918 
L 719.156874 -111.269486 
L 719.051905 -110.468053 
L 718.980588 -109.666621 
L 718.943222 -108.865189 
L 718.928711 -108.063757 
L 718.928083 -107.262324 
L 718.940843 -106.460892 
L 718.975249 -105.65946 
L 719.042702 -104.858028 
L 719.144841 -104.056595 
L 719.25959 -103.255163 
L 719.342742 -102.453731 
L 719.353821 -101.652299 
L 719.287432 -100.850866 
L 719.178932 -100.049434 
L 719.079991 -99.248002 
L 719.03228 -98.44657 
L 719.061548 -97.645137 
L 719.181093 -96.843705 
L 719.381427 -96.042273 
L 719.610234 -95.240841 
L 719.778698 -94.439408 
L 719.814664 -93.637976 
L 719.722994 -92.836544 
L 719.587116 -92.035112 
L 719.503679 -91.233679 
L 719.516615 -90.432247 
L 719.610732 -89.630815 
L 719.750734 -88.829383 
L 719.907975 -88.02795 
L 720.05364 -87.226518 
L 720.152749 -86.425086 
L 720.186733 -85.623654 
L 720.180692 -84.822221 
L 720.197212 -84.020789 
L 720.296511 -83.219357 
L 720.495518 -82.417925 
L 720.756797 -81.616492 
L 721.015829 -80.81506 
L 721.227836 -80.013628 
L 721.401064 -79.212196 
L 721.593187 -78.410763 
L 721.8714 -77.609331 
L 722.267297 -76.807899 
L 722.782053 -76.006467 
L 723.468614 -75.205034 
L 724.531764 -74.403602 
L 726.347105 -73.60217 
L 729.3697 -72.800738 
L 733.984691 -71.999305 
L 740.351256 -71.197873 
L 748.28208 -70.396441 
L 757.266882 -69.595009 
L 766.757394 -68.793576 
L 776.593438 -67.992144 
L 787.127276 -67.190712 
L 798.666165 -66.38928 
L 810.470024 -65.587847 
L 820.199712 -64.786415 
L 824.616 -63.984983 
L 821.296716 -63.183551 
L 810.111488 -62.382118 
L 793.345404 -61.580686 
L 774.541586 -60.779254 
L 757.015426 -59.977822 
L 742.877537 -59.176389 
L 732.80598 -58.374957 
L 726.382819 -57.573525 
L 722.664588 -56.772093 
L 720.680189 -55.97066 
L 719.691225 -55.169228 
L 719.230312 -54.367796 
L 719.032273 -53.566364 
z
" style="stroke: #595959; stroke-width: 1.25"/>
    </defs>
    <g clip-path="url(#pc2edb89be8)">
     <use xlink:href="#m3bae528e3b" x="0" y="432" style="fill: #95a3c3; stroke: #595959; stroke-width: 1.25"/>
    </g>
   </g>
   <g id="line2d_6">
    <path d="M 190.44 343.909275 
L 190.44 348.923847 
" clip-path="url(#pc2edb89be8)" style="fill: none; stroke: #000000"/>
   </g>
   <g id="line2d_7">
    <path d="M 190.44 337.047228 
L 190.44 326.886121 
" clip-path="url(#pc2edb89be8)" style="fill: none; stroke: #000000"/>
   </g>
   <g id="line2d_8">
    <path d="M 180.531 348.923847 
L 200.349 348.923847 
" clip-path="url(#pc2edb89be8)" style="fill: none; stroke: #000000; stroke-linecap: round"/>
   </g>
   <g id="line2d_9">
    <path d="M 180.531 326.886121 
L 200.349 326.886121 
" clip-path="url(#pc2edb89be8)" style="fill: none; stroke: #000000; stroke-linecap: round"/>
   </g>
   <g id="line2d_10">
    <path d="M 454.68 253.613979 
L 454.68 259.189392 
" clip-path="url(#pc2edb89be8)" style="fill: none; stroke: #000000"/>
   </g>
   <g id="line2d_11">
    <path d="M 454.68 242.496144 
L 454.68 226.066821 
" clip-path="url(#pc2edb89be8)" style="fill: none; stroke: #000000"/>
   </g>
   <g id="line2d_12">
    <path d="M 444.771 259.189392 
L 464.589 259.189392 
" clip-path="url(#pc2edb89be8)" style="fill: none; stroke: #000000; stroke-linecap: round"/>
   </g>
   <g id="line2d_13">
    <path d="M 444.771 226.066821 
L 464.589 226.066821 
" clip-path="url(#pc2edb89be8)" style="fill: none; stroke: #000000; stroke-linecap: round"/>
   </g>
   <g id="line2d_14">
    <path d="M 718.92 369.1141 
L 718.92 374.788484 
" clip-path="url(#pc2edb89be8)" style="fill: none; stroke: #000000"/>
   </g>
   <g id="line2d_15">
    <path d="M 718.92 364.627377 
L 718.92 358.161218 
" clip-path="url(#pc2edb89be8)" style="fill: none; stroke: #000000"/>
   </g>
   <g id="line2d_16">
    <path d="M 709.011 374.788484 
L 728.829 374.788484 
" clip-path="url(#pc2edb89be8)" style="fill: none; stroke: #000000; stroke-linecap: round"/>
   </g>
   <g id="line2d_17">
    <path d="M 709.011 358.161218 
L 728.829 358.161218 
" clip-path="url(#pc2edb89be8)" style="fill: none; stroke: #000000; stroke-linecap: round"/>
   </g>
   <g id="line2d_18">
    <path d="M 170.622 342.061801 
L 210.258 342.061801 
" clip-path="url(#pc2edb89be8)" style="fill: none; stroke: #ff0000; stroke-width: 2"/>
   </g>
   <g id="line2d_19">
    <path d="M 434.862 250.611834 
L 474.498 250.611834 
" clip-path="url(#pc2edb89be8)" style="fill: none; stroke: #ff0000; stroke-width: 2"/>
   </g>
   <g id="line2d_20">
    <path d="M 699.102 367.530551 
L 738.738 367.530551 
" clip-path="url(#pc2edb89be8)" style="fill: none; stroke: #ff0000; stroke-width: 2"/>
   </g>
   <g id="patch_3">
    <path d="M 58.32 395.14 
L 58.32 27.6 
" style="fill: none; stroke: #cccccc; stroke-width: 1.25; stroke-linejoin: miter; stroke-linecap: square"/>
   </g>
   <g id="patch_4">
    <path d="M 851.04 395.14 
L 851.04 27.6 
" style="fill: none; stroke: #cccccc; stroke-width: 1.25; stroke-linejoin: miter; stroke-linecap: square"/>
   </g>
   <g id="patch_5">
    <path d="M 58.32 395.14 
L 851.04 395.14 
" style="fill: none; stroke: #cccccc; stroke-width: 1.25; stroke-linejoin: miter; stroke-linecap: square"/>
   </g>
   <g id="patch_6">
    <path d="M 58.32 27.6 
L 851.04 27.6 
" style="fill: none; stroke: #cccccc; stroke-width: 1.25; stroke-linejoin: miter; stroke-linecap: square"/>
   </g>
   <g id="text_10">
    <!-- Handshake duration on QUIC with mldsa87 signature algorithm — Backbone (200ms/4%) -->
    <g style="fill: #262626" transform="translate(186.57375 21.6) scale(0.12 -0.12)">
     <defs>
      <path id="DejaVuSans-51" d="M 2522 4238 
Q 1834 4238 1429 3725 
Q 1025 3213 1025 2328 
Q 1025 1447 1429 934 
Q 1834 422 2522 422 
Q 3209 422 3611 934 
Q 4013 1447 4013 2328 
Q 4013 3213 3611 3725 
Q 3209 4238 2522 4238 
z
M 3406 84 
L 4238 -825 
L 3475 -825 
L 2784 -78 
Q 2681 -84 2626 -87 
Q 2572 -91 2522 -91 
Q 1538 -91 948 567 
Q 359 1225 359 2328 
Q 359 3434 948 4092 
Q 1538 4750 2522 4750 
Q 3503 4750 4090 4092 
Q 4678 3434 4678 2328 
Q 4678 1516 4351 937 
Q 4025 359 3406 84 
z
" transform="scale(0.015625)"/>
      <path id="DejaVuSans-55" d="M 556 4666 
L 1191 4666 
L 1191 1831 
Q 1191 1081 1462 751 
Q 1734 422 2344 422 
Q 2950 422 3222 751 
Q 3494 1081 3494 1831 
L 3494 4666 
L 4128 4666 
L 4128 1753 
Q 4128 841 3676 375 
Q 3225 -91 2344 -91 
Q 1459 -91 1007 375 
Q 556 841 556 1753 
L 556 4666 
z
" transform="scale(0.015625)"/>
      <path id="DejaVuSans-49" d="M 628 4666 
L 1259 4666 
L 1259 0 
L 628 0 
L 628 4666 
z
" transform="scale(0.015625)"/>
      <path id="DejaVuSans-43" d="M 4122 4306 
L 4122 3641 
Q 3803 3938 3442 4084 
Q 3081 4231 2675 4231 
Q 1875 4231 1450 3742 
Q 1025 3253 1025 2328 
Q 1025 1406 1450 917 
Q 1875 428 2675 428 
Q 3081 428 3442 575 
Q 3803 722 4122 1019 
L 4122 359 
Q 3791 134 3420 21 
Q 3050 -91 2638 -91 
Q 1578 -91 968 557 
Q 359 1206 359 2328 
Q 359 3453 968 4101 
Q 1578 4750 2638 4750 
Q 3056 4750 3426 4639 
Q 3797 4528 4122 4306 
z
" transform="scale(0.015625)"/>
      <path id="DejaVuSans-77" d="M 269 3500 
L 844 3500 
L 1563 769 
L 2278 3500 
L 2956 3500 
L 3675 769 
L 4391 3500 
L 4966 3500 
L 4050 0 
L 3372 0 
L 2619 2869 
L 1863 0 
L 1184 0 
L 269 3500 
z
" transform="scale(0.015625)"/>
      <path id="DejaVuSans-37" d="M 525 4666 
L 3525 4666 
L 3525 4397 
L 1831 0 
L 1172 0 
L 2766 4134 
L 525 4134 
L 525 4666 
z
" transform="scale(0.015625)"/>
      <path id="DejaVuSans-67" d="M 2906 1791 
Q 2906 2416 2648 2759 
Q 2391 3103 1925 3103 
Q 1463 3103 1205 2759 
Q 947 2416 947 1791 
Q 947 1169 1205 825 
Q 1463 481 1925 481 
Q 2391 481 2648 825 
Q 2906 1169 2906 1791 
z
M 3481 434 
Q 3481 -459 3084 -895 
Q 2688 -1331 1869 -1331 
Q 1566 -1331 1297 -1286 
Q 1028 -1241 775 -1147 
L 775 -588 
Q 1028 -725 1275 -790 
Q 1522 -856 1778 -856 
Q 2344 -856 2625 -561 
Q 2906 -266 2906 331 
L 2906 616 
Q 2728 306 2450 153 
Q 2172 0 1784 0 
Q 1141 0 747 490 
Q 353 981 353 1791 
Q 353 2603 747 3093 
Q 1141 3584 1784 3584 
Q 2172 3584 2450 3431 
Q 2728 3278 2906 2969 
L 2906 3500 
L 3481 3500 
L 3481 434 
z
" transform="scale(0.015625)"/>
      <path id="DejaVuSans-2014" d="M 313 1978 
L 6088 1978 
L 6088 1528 
L 313 1528 
L 313 1978 
z
" transform="scale(0.015625)"/>
      <path id="DejaVuSans-42" d="M 1259 2228 
L 1259 519 
L 2272 519 
Q 2781 519 3026 730 
Q 3272 941 3272 1375 
Q 3272 1813 3026 2020 
Q 2781 2228 2272 2228 
L 1259 2228 
z
M 1259 4147 
L 1259 2741 
L 2194 2741 
Q 2656 2741 2882 2914 
Q 3109 3088 3109 3444 
Q 3109 3797 2882 3972 
Q 2656 4147 2194 4147 
L 1259 4147 
z
M 628 4666 
L 2241 4666 
Q 2963 4666 3353 4366 
Q 3744 4066 3744 3513 
Q 3744 3084 3544 2831 
Q 3344 2578 2956 2516 
Q 3422 2416 3680 2098 
Q 3938 1781 3938 1306 
Q 3938 681 3513 340 
Q 3088 0 2303 0 
L 628 0 
L 628 4666 
z
" transform="scale(0.015625)"/>
      <path id="DejaVuSans-63" d="M 3122 3366 
L 3122 2828 
Q 2878 2963 2633 3030 
Q 2388 3097 2138 3097 
Q 1578 3097 1268 2742 
Q 959 2388 959 1747 
Q 959 1106 1268 751 
Q 1578 397 2138 397 
Q 2388 397 2633 464 
Q 2878 531 3122 666 
L 3122 134 
Q 2881 22 2623 -34 
Q 2366 -91 2075 -91 
Q 1284 -91 818 406 
Q 353 903 353 1747 
Q 353 2603 823 3093 
Q 1294 3584 2113 3584 
Q 2378 3584 2631 3529 
Q 2884 3475 3122 3366 
z
" transform="scale(0.015625)"/>
      <path id="DejaVuSans-62" d="M 3116 1747 
Q 3116 2381 2855 2742 
Q 2594 3103 2138 3103 
Q 1681 3103 1420 2742 
Q 1159 2381 1159 1747 
Q 1159 1113 1420 752 
Q 1681 391 2138 391 
Q 2594 391 2855 752 
Q 3116 1113 3116 1747 
z
M 1159 2969 
Q 1341 3281 1617 3432 
Q 1894 3584 2278 3584 
Q 2916 3584 3314 3078 
Q 3713 2572 3713 1747 
Q 3713 922 3314 415 
Q 2916 -91 2278 -91 
Q 1894 -91 1617 61 
Q 1341 213 1159 525 
L 1159 0 
L 581 0 
L 581 4863 
L 1159 4863 
L 1159 2969 
z
" transform="scale(0.015625)"/>
      <path id="DejaVuSans-2f" d="M 1625 4666 
L 2156 4666 
L 531 -594 
L 0 -594 
L 1625 4666 
z
" transform="scale(0.015625)"/>
      <path id="DejaVuSans-25" d="M 4653 2053 
Q 4381 2053 4226 1822 
Q 4072 1591 4072 1178 
Q 4072 772 4226 539 
Q 4381 306 4653 306 
Q 4919 306 5073 539 
Q 5228 772 5228 1178 
Q 5228 1588 5073 1820 
Q 4919 2053 4653 2053 
z
M 4653 2450 
Q 5147 2450 5437 2106 
Q 5728 1763 5728 1178 
Q 5728 594 5436 251 
Q 5144 -91 4653 -91 
Q 4153 -91 3862 251 
Q 3572 594 3572 1178 
Q 3572 1766 3864 2108 
Q 4156 2450 4653 2450 
z
M 1428 4353 
Q 1159 4353 1004 4120 
Q 850 3888 850 3481 
Q 850 3069 1003 2837 
Q 1156 2606 1428 2606 
Q 1700 2606 1854 2837 
Q 2009 3069 2009 3481 
Q 2009 3884 1853 4118 
Q 1697 4353 1428 4353 
z
M 4250 4750 
L 4750 4750 
L 1831 -91 
L 1331 -91 
L 4250 4750 
z
M 1428 4750 
Q 1922 4750 2215 4408 
Q 2509 4066 2509 3481 
Q 2509 2891 2217 2550 
Q 1925 2209 1428 2209 
Q 931 2209 642 2551 
Q 353 2894 353 3481 
Q 353 4063 643 4406 
Q 934 4750 1428 4750 
z
" transform="scale(0.015625)"/>
     </defs>
     <use xlink:href="#DejaVuSans-48"/>
     <use xlink:href="#DejaVuSans-61" x="75.195312"/>
     <use xlink:href="#DejaVuSans-6e" x="136.474609"/>
     <use xlink:href="#DejaVuSans-64" x="199.853516"/>
     <use xlink:href="#DejaVuSans-73" x="263.330078"/>
     <use xlink:href="#DejaVuSans-68" x="315.429688"/>
     <use xlink:href="#DejaVuSans-61" x="378.808594"/>
     <use xlink:href="#DejaVuSans-6b" x="440.087891"/>
     <use xlink:href="#DejaVuSans-65" x="494.373047"/>
     <use xlink:href="#DejaVuSans-20" x="555.896484"/>
     <use xlink:href="#DejaVuSans-64" x="587.683594"/>
     <use xlink:href="#DejaVuSans-75" x="651.160156"/>
     <use xlink:href="#DejaVuSans-72" x="714.539062"/>
     <use xlink:href="#DejaVuSans-61" x="755.652344"/>
     <use xlink:href="#DejaVuSans-74" x="816.931641"/>
     <use xlink:href="#DejaVuSans-69" x="856.140625"/>
     <use xlink:href="#DejaVuSans-6f" x="883.923828"/>
     <use xlink:href="#DejaVuSans-6e" x="945.105469"/>
     <use xlink:href="#DejaVuSans-20" x="1008.484375"/>
     <use xlink:href="#DejaVuSans-6f" x="1040.271484"/>
     <use xlink:href="#DejaVuSans-6e" x="1101.453125"/>
     <use xlink:href="#DejaVuSans-20" x="1164.832031"/>
     <use xlink:href="#DejaVuSans-51" x="1196.619141"/>
     <use xlink:href="#DejaVuSans-55" x="1275.330078"/>
     <use xlink:href="#DejaVuSans-49" x="1348.523438"/>
     <use xlink:href="#DejaVuSans-43" x="1378.015625"/>
     <use xlink:href="#DejaVuSans-20" x="1447.839844"/>
     <use xlink:href="#DejaVuSans-77" x="1479.626953"/>
     <use xlink:href="#DejaVuSans-69" x="1561.414062"/>
     <use xlink:href="#DejaVuSans-74" x="1589.197266"/>
     <use xlink:href="#DejaVuSans-68" x="1628.40625"/>
     <use xlink:href="#DejaVuSans-20" x="1691.785156"/>
     <use xlink:href="#DejaVuSans-6d" x="1723.572266"/>
     <use xlink:href="#DejaVuSans-6c" x="1820.984375"/>
     <use xlink:href="#DejaVuSans-64" x="1848.767578"/>
     <use xlink:href="#DejaVuSans-73" x="1912.244141"/>
     <use xlink:href="#DejaVuSans-61" x="1964.34375"/>
     <use xlink:href="#DejaVuSans-38" x="2025.623047"/>
     <use xlink:href="#DejaVuSans-37" x="2089.246094"/>
     <use xlink:href="#DejaVuSans-20" x="2152.869141"/>
     <use xlink:href="#DejaVuSans-73" x="2184.65625"/>
     <use xlink:href="#DejaVuSans-69" x="2236.755859"/>
     <use xlink:href="#DejaVuSans-67" x="2264.539062"/>
     <use xlink:href="#DejaVuSans-6e" x="2328.015625"/>
     <use xlink:href="#DejaVuSans-61" x="2391.394531"/>
     <use xlink:href="#DejaVuSans-74" x="2452.673828"/>
     <use xlink:href="#DejaVuSans-75" x="2491.882812"/>
     <use xlink:href="#DejaVuSans-72" x="2555.261719"/>
     <use xlink:href="#DejaVuSans-65" x="2594.125"/>
     <use xlink:href="#DejaVuSans-20" x="2655.648438"/>
     <use xlink:href="#DejaVuSans-61" x="2687.435547"/>
     <use xlink:href="#DejaVuSans-6c" x="2748.714844"/>
     <use xlink:href="#DejaVuSans-67" x="2776.498047"/>
     <use xlink:href="#DejaVuSans-6f" x="2839.974609"/>
     <use xlink:href="#DejaVuSans-72" x="2901.15625"/>
     <use xlink:href="#DejaVuSans-69" x="2942.269531"/>
     <use xlink:href="#DejaVuSans-74" x="2970.052734"/>
     <use xlink:href="#DejaVuSans-68" x="3009.261719"/>
     <use xlink:href="#DejaVuSans-6d" x="3072.640625"/>
     <use xlink:href="#DejaVuSans-20" x="3170.052734"/>
     <use xlink:href="#DejaVuSans-2014" x="3201.839844"/>
     <use xlink:href="#DejaVuSans-20" x="3301.839844"/>
     <use xlink:href="#DejaVuSans-42" x="3333.626953"/>
     <use xlink:href="#DejaVuSans-61" x="3402.230469"/>
     <use xlink:href="#DejaVuSans-63" x="3463.509766"/>
     <use xlink:href="#DejaVuSans-6b" x="3518.490234"/>
     <use xlink:href="#DejaVuSans-62" x="3576.400391"/>
     <use xlink:href="#DejaVuSans-6f" x="3639.876953"/>
     <use xlink:href="#DejaVuSans-6e" x="3701.058594"/>
     <use xlink:href="#DejaVuSans-65" x="3764.4375"/>
     <use xlink:href="#DejaVuSans-20" x="3825.960938"/>
     <use xlink:href="#DejaVuSans-28" x="3857.748047"/>
     <use xlink:href="#DejaVuSans-32" x="3896.761719"/>
     <use xlink:href="#DejaVuSans-30" x="3960.384766"/>
     <use xlink:href="#DejaVuSans-30" x="4024.007812"/>
     <use xlink:href="#DejaVuSans-6d" x="4087.630859"/>
     <use xlink:href="#DejaVuSans-73" x="4185.042969"/>
     <use xlink:href="#DejaVuSans-2f" x="4237.142578"/>
     <use xlink:href="#DejaVuSans-34" x="4270.833984"/>
     <use xlink:href="#DejaVuSans-25" x="4334.457031"/>
     <use xlink:href="#DejaVuSans-29" x="4429.476562"/>
    </g>
   </g>
  </g>
 </g>
 <defs>
  <clipPath id="pc2edb89be8">
   <rect x="58.32" y="27.6" width="792.72" height="367.54"/>
  </clipPath>
 </defs>
</svg>
