<?xml version="1.0" encoding="utf-8" standalone="no"?>
<!DOCTYPE svg PUBLIC "-//W3C//DTD SVG 1.1//EN"
  "http://www.w3.org/Graphics/SVG/1.1/DTD/svg11.dtd">
<svg xmlns:xlink="http://www.w3.org/1999/xlink" width="864pt" height="432pt" viewBox="0 0 864 432" xmlns="http://www.w3.org/2000/svg" version="1.1">
 <metadata>
  <rdf:RDF xmlns:dc="http://purl.org/dc/elements/1.1/" xmlns:cc="http://creativecommons.org/ns#" xmlns:rdf="http://www.w3.org/1999/02/22-rdf-syntax-ns#">
   <cc:Work>
    <dc:type rdf:resource="http://purl.org/dc/dcmitype/StillImage"/>
    <dc:date>2026-03-21T13:58:48.966136</dc:date>
    <dc:format>image/svg+xml</dc:format>
    <dc:creator>
     <cc:Agent>
      <dc:title>Matplotlib v3.6.3, https://matplotlib.org/</dc:title>
     </cc:Agent>
    </dc:creator>
   </cc:Work>
  </rdf:RDF>
 </metadata>
 <defs>
  <style type="text/css">*{stroke-linejoin: round; stroke-linecap: butt}</style>
 </defs>
 <g id="figure_1">
  <g id="patch_1">
   <path d="M 0 432 
L 864 432 
L 864 0 
L 0 0 
z
" style="fill: #ffffff"/>
  </g>
  <g id="axes_1">
   <g id="patch_2">
    <path d="M 58.32 395.14 
L 851.04 395.14 
L 851.04 27.6 
L 58.32 27.6 
z
" style="fill: #ffffff"/>
   </g>
   <g id="matplotlib.axis_1">
    <g id="xtick_1">
     <g id="text_1">
      <!-- P-521 -->
      <g style="fill: #262626" transform="translate(170.49 415.277812) scale(0.14 -0.14)">
       <defs>
        <path id="DejaVuSans-50" d="M 1259 4147 
L 1259 2394 
L 2053 2394 
Q 2494 2394 2734 2622 
Q 2975 2850 2975 3272 
Q 2975 3691 2734 3919 
Q 2494 4147 2053 4147 
L 1259 4147 
z
M 628 4666 
L 2053 4666 
Q 2838 4666 3239 4311 
Q 3641 3956 3641 3272 
Q 3641 2581 3239 2228 
Q 2838 1875 2053 1875 
L 1259 1875 
L 1259 0 
L 628 0 
L 628 4666 
z
" transform="scale(0.015625)"/>
        <path id="DejaVuSans-2d" d="M 313 2009 
L 1997 2009 
L 1997 1497 
L 313 1497 
L 313 2009 
z
" transform="scale(0.015625)"/>
        <path id="DejaVuSans-35" d="M 691 4666 
L 3169 4666 
L 3169 4134 
L 1269 4134 
L 1269 2991 
Q 1406 3038 1543 3061 
Q 1681 3084 1819 3084 
Q 2600 3084 3056 2656 
Q 3513 2228 3513 1497 
Q 3513 744 3044 326 
Q 2575 -91 1722 -91 
Q 1428 -91 1123 -41 
Q 819 9 494 109 
L 494 744 
Q 775 591 1075 516 
Q 1375 441 1709 441 
Q 2250 441 2565 725 
Q 2881 1009 2881 1497 
Q 2881 1984 2565 2268 
Q 2250 2553 1709 2553 
Q 1456 2553 1204 2497 
Q 953 2441 691 2322 
L 691 4666 
z
" transform="scale(0.015625)"/>
        <path id="DejaVuSans-32" d="M 1228 531 
L 3431 531 
L 3431 0 
L 469 0 
L 469 531 
Q 828 903 1448 1529 
Q 2069 2156 2228 2338 
Q 2531 2678 2651 2914 
Q 2772 3150 2772 3378 
Q 2772 3750 2511 3984 
Q 2250 4219 1831 4219 
Q 1534 4219 1204 4116 
Q 875 4013 500 3803 
L 500 4441 
Q 881 4594 1212 4672 
Q 1544 4750 1819 4750 
Q 2544 4750 2975 4387 
Q 3406 4025 3406 3419 
Q 3406 3131 3298 2873 
Q 3191 2616 2906 2266 
Q 2828 2175 2409 1742 
Q 1991 1309 1228 531 
z
" transform="scale(0.015625)"/>
        <path id="DejaVuSans-31" d="M 794 531 
L 1825 531 
L 1825 4091 
L 703 3866 
L 703 4441 
L 1819 4666 
L 2450 4666 
L 2450 531 
L 3481 531 
L 3481 0 
L 794 0 
L 794 531 
z
" transform="scale(0.015625)"/>
       </defs>
       <use xlink:href="#DejaVuSans-50"/>
       <use xlink:href="#DejaVuSans-2d" x="58.052734"/>
       <use xlink:href="#DejaVuSans-35" x="94.136719"/>
       <use xlink:href="#DejaVuSans-32" x="157.759766"/>
       <use xlink:href="#DejaVuSans-31" x="221.382812"/>
      </g>
     </g>
    </g>
    <g id="xtick_2">
     <g id="text_2">
      <!-- p521_mlkem1024 -->
      <g style="fill: #262626" transform="translate(391.871406 415.277812) scale(0.14 -0.14)">
       <defs>
        <path id="DejaVuSans-70" d="M 1159 525 
L 1159 -1331 
L 581 -1331 
L 581 3500 
L 1159 3500 
L 1159 2969 
Q 1341 3281 1617 3432 
Q 1894 3584 2278 3584 
Q 2916 3584 3314 3078 
Q 3713 2572 3713 1747 
Q 3713 922 3314 415 
Q 2916 -91 2278 -91 
Q 1894 -91 1617 61 
Q 1341 213 1159 525 
z
M 3116 1747 
Q 3116 2381 2855 2742 
Q 2594 3103 2138 3103 
Q 1681 3103 1420 2742 
Q 1159 2381 1159 1747 
Q 1159 1113 1420 752 
Q 1681 391 2138 391 
Q 2594 391 2855 752 
Q 3116 1113 3116 1747 
z
" transform="scale(0.015625)"/>
        <path id="DejaVuSans-5f" d="M 3263 -1063 
L 3263 -1509 
L -63 -1509 
L -63 -1063 
L 3263 -1063 
z
" transform="scale(0.015625)"/>
        <path id="DejaVuSans-6d" d="M 3328 2828 
Q 3544 3216 3844 3400 
Q 4144 3584 4550 3584 
Q 5097 3584 5394 3201 
Q 5691 2819 5691 2113 
L 5691 0 
L 5113 0 
L 5113 2094 
Q 5113 2597 4934 2840 
Q 4756 3084 4391 3084 
Q 3944 3084 3684 2787 
Q 3425 2491 3425 1978 
L 3425 0 
L 2847 0 
L 2847 2094 
Q 2847 2600 2669 2842 
Q 2491 3084 2119 3084 
Q 1678 3084 1418 2786 
Q 1159 2488 1159 1978 
L 1159 0 
L 581 0 
L 581 3500 
L 1159 3500 
L 1159 2956 
Q 1356 3278 1631 3431 
Q 1906 3584 2284 3584 
Q 2666 3584 2933 3390 
Q 3200 3197 3328 2828 
z
" transform="scale(0.015625)"/>
        <path id="DejaVuSans-6c" d="M 603 4863 
L 1178 4863 
L 1178 0 
L 603 0 
L 603 4863 
z
" transform="scale(0.015625)"/>
        <path id="DejaVuSans-6b" d="M 581 4863 
L 1159 4863 
L 1159 1991 
L 2875 3500 
L 3609 3500 
L 1753 1863 
L 3688 0 
L 2938 0 
L 1159 1709 
L 1159 0 
L 581 0 
L 581 4863 
z
" transform="scale(0.015625)"/>
        <path id="DejaVuSans-65" d="M 3597 1894 
L 3597 1613 
L 953 1613 
Q 991 1019 1311 708 
Q 1631 397 2203 397 
Q 2534 397 2845 478 
Q 3156 559 3463 722 
L 3463 178 
Q 3153 47 2828 -22 
Q 2503 -91 2169 -91 
Q 1331 -91 842 396 
Q 353 884 353 1716 
Q 353 2575 817 3079 
Q 1281 3584 2069 3584 
Q 2775 3584 3186 3129 
Q 3597 2675 3597 1894 
z
M 3022 2063 
Q 3016 2534 2758 2815 
Q 2500 3097 2075 3097 
Q 1594 3097 1305 2825 
Q 1016 2553 972 2059 
L 3022 2063 
z
" transform="scale(0.015625)"/>
        <path id="DejaVuSans-30" d="M 2034 4250 
Q 1547 4250 1301 3770 
Q 1056 3291 1056 2328 
Q 1056 1369 1301 889 
Q 1547 409 2034 409 
Q 2525 409 2770 889 
Q 3016 1369 3016 2328 
Q 3016 3291 2770 3770 
Q 2525 4250 2034 4250 
z
M 2034 4750 
Q 2819 4750 3233 4129 
Q 3647 3509 3647 2328 
Q 3647 1150 3233 529 
Q 2819 -91 2034 -91 
Q 1250 -91 836 529 
Q 422 1150 422 2328 
Q 422 3509 836 4129 
Q 1250 4750 2034 4750 
z
" transform="scale(0.015625)"/>
        <path id="DejaVuSans-34" d="M 2419 4116 
L 825 1625 
L 2419 1625 
L 2419 4116 
z
M 2253 4666 
L 3047 4666 
L 3047 1625 
L 3713 1625 
L 3713 1100 
L 3047 1100 
L 3047 0 
L 2419 0 
L 2419 1100 
L 313 1100 
L 313 1709 
L 2253 4666 
z
" transform="scale(0.015625)"/>
       </defs>
       <use xlink:href="#DejaVuSans-70"/>
       <use xlink:href="#DejaVuSans-35" x="63.476562"/>
       <use xlink:href="#DejaVuSans-32" x="127.099609"/>
       <use xlink:href="#DejaVuSans-31" x="190.722656"/>
       <use xlink:href="#DejaVuSans-5f" x="254.345703"/>
       <use xlink:href="#DejaVuSans-6d" x="304.345703"/>
       <use xlink:href="#DejaVuSans-6c" x="401.757812"/>
       <use xlink:href="#DejaVuSans-6b" x="429.541016"/>
       <use xlink:href="#DejaVuSans-65" x="483.826172"/>
       <use xlink:href="#DejaVuSans-6d" x="545.349609"/>
       <use xlink:href="#DejaVuSans-31" x="642.761719"/>
       <use xlink:href="#DejaVuSans-30" x="706.384766"/>
       <use xlink:href="#DejaVuSans-32" x="770.007812"/>
       <use xlink:href="#DejaVuSans-34" x="833.630859"/>
      </g>
     </g>
    </g>
    <g id="xtick_3">
     <g id="text_3">
      <!-- mlkem1024 -->
      <g style="fill: #262626" transform="translate(677.416562 415.277812) scale(0.14 -0.14)">
       <use xlink:href="#DejaVuSans-6d"/>
       <use xlink:href="#DejaVuSans-6c" x="97.412109"/>
       <use xlink:href="#DejaVuSans-6b" x="125.195312"/>
       <use xlink:href="#DejaVuSans-65" x="179.480469"/>
       <use xlink:href="#DejaVuSans-6d" x="241.003906"/>
       <use xlink:href="#DejaVuSans-31" x="338.416016"/>
       <use xlink:href="#DejaVuSans-30" x="402.039062"/>
       <use xlink:href="#DejaVuSans-32" x="465.662109"/>
       <use xlink:href="#DejaVuSans-34" x="529.285156"/>
      </g>
     </g>
    </g>
   </g>
   <g id="matplotlib.axis_2">
    <g id="ytick_1">
     <g id="line2d_1">
      <path d="M 58.32 392.876113 
L 851.04 392.876113 
" clip-path="url(#pd25614d538)" style="fill: none; stroke: #cccccc; stroke-linecap: round"/>
     </g>
     <g id="text_4">
      <!-- 100 -->
      <g style="fill: #262626" transform="translate(27.82375 397.055253) scale(0.11 -0.11)">
       <use xlink:href="#DejaVuSans-31"/>
       <use xlink:href="#DejaVuSans-30" x="63.623047"/>
       <use xlink:href="#DejaVuSans-30" x="127.246094"/>
      </g>
     </g>
    </g>
    <g id="ytick_2">
     <g id="line2d_2">
      <path d="M 58.32 312.938844 
L 851.04 312.938844 
" clip-path="url(#pd25614d538)" style="fill: none; stroke: #cccccc; stroke-linecap: round"/>
     </g>
     <g id="text_5">
      <!-- 200 -->
      <g style="fill: #262626" transform="translate(27.82375 317.117985) scale(0.11 -0.11)">
       <use xlink:href="#DejaVuSans-32"/>
       <use xlink:href="#DejaVuSans-30" x="63.623047"/>
       <use xlink:href="#DejaVuSans-30" x="127.246094"/>
      </g>
     </g>
    </g>
    <g id="ytick_3">
     <g id="line2d_3">
      <path d="M 58.32 233.001575 
L 851.04 233.001575 
" clip-path="url(#pd25614d538)" style="fill: none; stroke: #cccccc; stroke-linecap: round"/>
     </g>
     <g id="text_6">
      <!-- 300 -->
      <g style="fill: #262626" transform="translate(27.82375 237.180716) scale(0.11 -0.11)">
       <defs>
        <path id="DejaVuSans-33" d="M 2597 2516 
Q 3050 2419 3304 2112 
Q 3559 1806 3559 1356 
Q 3559 666 3084 287 
Q 2609 -91 1734 -91 
Q 1441 -91 1130 -33 
Q 819 25 488 141 
L 488 750 
Q 750 597 1062 519 
Q 1375 441 1716 441 
Q 2309 441 2620 675 
Q 2931 909 2931 1356 
Q 2931 1769 2642 2001 
Q 2353 2234 1838 2234 
L 1294 2234 
L 1294 2753 
L 1863 2753 
Q 2328 2753 2575 2939 
Q 2822 3125 2822 3475 
Q 2822 3834 2567 4026 
Q 2313 4219 1838 4219 
Q 1578 4219 1281 4162 
Q 984 4106 628 3988 
L 628 4550 
Q 988 4650 1302 4700 
Q 1616 4750 1894 4750 
Q 2613 4750 3031 4423 
Q 3450 4097 3450 3541 
Q 3450 3153 3228 2886 
Q 3006 2619 2597 2516 
z
" transform="scale(0.015625)"/>
       </defs>
       <use xlink:href="#DejaVuSans-33"/>
       <use xlink:href="#DejaVuSans-30" x="63.623047"/>
       <use xlink:href="#DejaVuSans-30" x="127.246094"/>
      </g>
     </g>
    </g>
    <g id="ytick_4">
     <g id="line2d_4">
      <path d="M 58.32 153.064306 
L 851.04 153.064306 
" clip-path="url(#pd25614d538)" style="fill: none; stroke: #cccccc; stroke-linecap: round"/>
     </g>
     <g id="text_7">
      <!-- 400 -->
      <g style="fill: #262626" transform="translate(27.82375 157.243447) scale(0.11 -0.11)">
       <use xlink:href="#DejaVuSans-34"/>
       <use xlink:href="#DejaVuSans-30" x="63.623047"/>
       <use xlink:href="#DejaVuSans-30" x="127.246094"/>
      </g>
     </g>
    </g>
    <g id="ytick_5">
     <g id="line2d_5">
      <path d="M 58.32 73.127038 
L 851.04 73.127038 
" clip-path="url(#pd25614d538)" style="fill: none; stroke: #cccccc; stroke-linecap: round"/>
     </g>
     <g id="text_8">
      <!-- 500 -->
      <g style="fill: #262626" transform="translate(27.82375 77.306178) scale(0.11 -0.11)">
       <use xlink:href="#DejaVuSans-35"/>
       <use xlink:href="#DejaVuSans-30" x="63.623047"/>
       <use xlink:href="#DejaVuSans-30" x="127.246094"/>
      </g>
     </g>
    </g>
    <g id="text_9">
     <!-- Handshake duration (ms) -->
     <g style="fill: #262626" transform="translate(21.328125 287.437813) rotate(-90) scale(0.12 -0.12)">
      <defs>
       <path id="DejaVuSans-48" d="M 628 4666 
L 1259 4666 
L 1259 2753 
L 3553 2753 
L 3553 4666 
L 4184 4666 
L 4184 0 
L 3553 0 
L 3553 2222 
L 1259 2222 
L 1259 0 
L 628 0 
L 628 4666 
z
" transform="scale(0.015625)"/>
       <path id="DejaVuSans-61" d="M 2194 1759 
Q 1497 1759 1228 1600 
Q 959 1441 959 1056 
Q 959 750 1161 570 
Q 1363 391 1709 391 
Q 2188 391 2477 730 
Q 2766 1069 2766 1631 
L 2766 1759 
L 2194 1759 
z
M 3341 1997 
L 3341 0 
L 2766 0 
L 2766 531 
Q 2569 213 2275 61 
Q 1981 -91 1556 -91 
Q 1019 -91 701 211 
Q 384 513 384 1019 
Q 384 1609 779 1909 
Q 1175 2209 1959 2209 
L 2766 2209 
L 2766 2266 
Q 2766 2663 2505 2880 
Q 2244 3097 1772 3097 
Q 1472 3097 1187 3025 
Q 903 2953 641 2809 
L 641 3341 
Q 956 3463 1253 3523 
Q 1550 3584 1831 3584 
Q 2591 3584 2966 3190 
Q 3341 2797 3341 1997 
z
" transform="scale(0.015625)"/>
       <path id="DejaVuSans-6e" d="M 3513 2113 
L 3513 0 
L 2938 0 
L 2938 2094 
Q 2938 2591 2744 2837 
Q 2550 3084 2163 3084 
Q 1697 3084 1428 2787 
Q 1159 2491 1159 1978 
L 1159 0 
L 581 0 
L 581 3500 
L 1159 3500 
L 1159 2956 
Q 1366 3272 1645 3428 
Q 1925 3584 2291 3584 
Q 2894 3584 3203 3211 
Q 3513 2838 3513 2113 
z
" transform="scale(0.015625)"/>
       <path id="DejaVuSans-64" d="M 2906 2969 
L 2906 4863 
L 3481 4863 
L 3481 0 
L 2906 0 
L 2906 525 
Q 2725 213 2448 61 
Q 2172 -91 1784 -91 
Q 1150 -91 751 415 
Q 353 922 353 1747 
Q 353 2572 751 3078 
Q 1150 3584 1784 3584 
Q 2172 3584 2448 3432 
Q 2725 3281 2906 2969 
z
M 947 1747 
Q 947 1113 1208 752 
Q 1469 391 1925 391 
Q 2381 391 2643 752 
Q 2906 1113 2906 1747 
Q 2906 2381 2643 2742 
Q 2381 3103 1925 3103 
Q 1469 3103 1208 2742 
Q 947 2381 947 1747 
z
" transform="scale(0.015625)"/>
       <path id="DejaVuSans-73" d="M 2834 3397 
L 2834 2853 
Q 2591 2978 2328 3040 
Q 2066 3103 1784 3103 
Q 1356 3103 1142 2972 
Q 928 2841 928 2578 
Q 928 2378 1081 2264 
Q 1234 2150 1697 2047 
L 1894 2003 
Q 2506 1872 2764 1633 
Q 3022 1394 3022 966 
Q 3022 478 2636 193 
Q 2250 -91 1575 -91 
Q 1294 -91 989 -36 
Q 684 19 347 128 
L 347 722 
Q 666 556 975 473 
Q 1284 391 1588 391 
Q 1994 391 2212 530 
Q 2431 669 2431 922 
Q 2431 1156 2273 1281 
Q 2116 1406 1581 1522 
L 1381 1569 
Q 847 1681 609 1914 
Q 372 2147 372 2553 
Q 372 3047 722 3315 
Q 1072 3584 1716 3584 
Q 2034 3584 2315 3537 
Q 2597 3491 2834 3397 
z
" transform="scale(0.015625)"/>
       <path id="DejaVuSans-68" d="M 3513 2113 
L 3513 0 
L 2938 0 
L 2938 2094 
Q 2938 2591 2744 2837 
Q 2550 3084 2163 3084 
Q 1697 3084 1428 2787 
Q 1159 2491 1159 1978 
L 1159 0 
L 581 0 
L 581 4863 
L 1159 4863 
L 1159 2956 
Q 1366 3272 1645 3428 
Q 1925 3584 2291 3584 
Q 2894 3584 3203 3211 
Q 3513 2838 3513 2113 
z
" transform="scale(0.015625)"/>
       <path id="DejaVuSans-20" transform="scale(0.015625)"/>
       <path id="DejaVuSans-75" d="M 544 1381 
L 544 3500 
L 1119 3500 
L 1119 1403 
Q 1119 906 1312 657 
Q 1506 409 1894 409 
Q 2359 409 2629 706 
Q 2900 1003 2900 1516 
L 2900 3500 
L 3475 3500 
L 3475 0 
L 2900 0 
L 2900 538 
Q 2691 219 2414 64 
Q 2138 -91 1772 -91 
Q 1169 -91 856 284 
Q 544 659 544 1381 
z
M 1991 3584 
L 1991 3584 
z
" transform="scale(0.015625)"/>
       <path id="DejaVuSans-72" d="M 2631 2963 
Q 2534 3019 2420 3045 
Q 2306 3072 2169 3072 
Q 1681 3072 1420 2755 
Q 1159 2438 1159 1844 
L 1159 0 
L 581 0 
L 581 3500 
L 1159 3500 
L 1159 2956 
Q 1341 3275 1631 3429 
Q 1922 3584 2338 3584 
Q 2397 3584 2469 3576 
Q 2541 3569 2628 3553 
L 2631 2963 
z
" transform="scale(0.015625)"/>
       <path id="DejaVuSans-74" d="M 1172 4494 
L 1172 3500 
L 2356 3500 
L 2356 3053 
L 1172 3053 
L 1172 1153 
Q 1172 725 1289 603 
Q 1406 481 1766 481 
L 2356 481 
L 2356 0 
L 1766 0 
Q 1100 0 847 248 
Q 594 497 594 1153 
L 594 3053 
L 172 3053 
L 172 3500 
L 594 3500 
L 594 4494 
L 1172 4494 
z
" transform="scale(0.015625)"/>
       <path id="DejaVuSans-69" d="M 603 3500 
L 1178 3500 
L 1178 0 
L 603 0 
L 603 3500 
z
M 603 4863 
L 1178 4863 
L 1178 4134 
L 603 4134 
L 603 4863 
z
" transform="scale(0.015625)"/>
       <path id="DejaVuSans-6f" d="M 1959 3097 
Q 1497 3097 1228 2736 
Q 959 2375 959 1747 
Q 959 1119 1226 758 
Q 1494 397 1959 397 
Q 2419 397 2687 759 
Q 2956 1122 2956 1747 
Q 2956 2369 2687 2733 
Q 2419 3097 1959 3097 
z
M 1959 3584 
Q 2709 3584 3137 3096 
Q 3566 2609 3566 1747 
Q 3566 888 3137 398 
Q 2709 -91 1959 -91 
Q 1206 -91 779 398 
Q 353 888 353 1747 
Q 353 2609 779 3096 
Q 1206 3584 1959 3584 
z
" transform="scale(0.015625)"/>
       <path id="DejaVuSans-28" d="M 1984 4856 
Q 1566 4138 1362 3434 
Q 1159 2731 1159 2009 
Q 1159 1288 1364 580 
Q 1569 -128 1984 -844 
L 1484 -844 
Q 1016 -109 783 600 
Q 550 1309 550 2009 
Q 550 2706 781 3412 
Q 1013 4119 1484 4856 
L 1984 4856 
z
" transform="scale(0.015625)"/>
       <path id="DejaVuSans-29" d="M 513 4856 
L 1013 4856 
Q 1481 4119 1714 3412 
Q 1947 2706 1947 2009 
Q 1947 1309 1714 600 
Q 1481 -109 1013 -844 
L 513 -844 
Q 928 -128 1133 580 
Q 1338 1288 1338 2009 
Q 1338 2731 1133 3434 
Q 928 4138 513 4856 
z
" transform="scale(0.015625)"/>
      </defs>
      <use xlink:href="#DejaVuSans-48"/>
      <use xlink:href="#DejaVuSans-61" x="75.195312"/>
      <use xlink:href="#DejaVuSans-6e" x="136.474609"/>
      <use xlink:href="#DejaVuSans-64" x="199.853516"/>
      <use xlink:href="#DejaVuSans-73" x="263.330078"/>
      <use xlink:href="#DejaVuSans-68" x="315.429688"/>
      <use xlink:href="#DejaVuSans-61" x="378.808594"/>
      <use xlink:href="#DejaVuSans-6b" x="440.087891"/>
      <use xlink:href="#DejaVuSans-65" x="494.373047"/>
      <use xlink:href="#DejaVuSans-20" x="555.896484"/>
      <use xlink:href="#DejaVuSans-64" x="587.683594"/>
      <use xlink:href="#DejaVuSans-75" x="651.160156"/>
      <use xlink:href="#DejaVuSans-72" x="714.539062"/>
      <use xlink:href="#DejaVuSans-61" x="755.652344"/>
      <use xlink:href="#DejaVuSans-74" x="816.931641"/>
      <use xlink:href="#DejaVuSans-69" x="856.140625"/>
      <use xlink:href="#DejaVuSans-6f" x="883.923828"/>
      <use xlink:href="#DejaVuSans-6e" x="945.105469"/>
      <use xlink:href="#DejaVuSans-20" x="1008.484375"/>
      <use xlink:href="#DejaVuSans-28" x="1040.271484"/>
      <use xlink:href="#DejaVuSans-6d" x="1079.285156"/>
      <use xlink:href="#DejaVuSans-73" x="1176.697266"/>
      <use xlink:href="#DejaVuSans-29" x="1228.796875"/>
     </g>
    </g>
   </g>
   <g id="PolyCollection_1">
    <defs>
     <path id="m7bd2a08bb3" d="M 203.59697 -55.620703 
L 177.28303 -55.620703 
L 168.039007 -58.227511 
L 155.167941 -60.834318 
L 139.077364 -63.441126 
L 121.270041 -66.047933 
L 104.292583 -68.654741 
L 91.21472 -71.261549 
L 84.744 -73.868356 
L 86.315786 -76.475164 
L 95.575718 -79.081971 
L 110.509532 -81.688779 
L 128.155285 -84.295587 
L 145.553993 -86.902394 
L 160.52412 -89.509202 
L 172.000241 -92.116009 
L 179.928258 -94.722817 
L 184.8979 -97.329624 
L 187.737114 -99.936432 
L 189.219524 -102.54324 
L 189.927253 -105.150047 
L 190.234359 -107.756855 
L 190.351392 -110.363662 
L 190.383449 -112.97047 
L 190.377503 -115.577278 
L 190.353081 -118.184085 
L 190.319204 -120.790893 
L 190.282368 -123.3977 
L 190.24924 -126.004508 
L 190.226417 -128.611316 
L 190.218845 -131.218123 
L 190.228241 -133.824931 
L 190.252502 -136.431738 
L 190.286482 -139.038546 
L 190.323766 -141.645353 
L 190.358621 -144.252161 
L 190.387313 -146.858969 
L 190.408458 -149.465776 
L 190.422538 -152.072584 
L 190.431061 -154.679391 
L 190.435768 -157.286199 
L 190.438147 -159.893007 
L 190.43925 -162.499814 
L 190.439719 -165.106622 
L 190.439903 -167.713429 
L 190.439969 -170.320237 
L 190.439991 -172.927045 
L 190.439997 -175.533852 
L 190.439999 -178.14066 
L 190.44 -180.747467 
L 190.44 -183.354275 
L 190.44 -185.961083 
L 190.44 -188.56789 
L 190.44 -191.174698 
L 190.44 -193.781505 
L 190.44 -196.388313 
L 190.44 -198.99512 
L 190.44 -201.601928 
L 190.44 -204.208736 
L 190.44 -206.815543 
L 190.44 -209.422351 
L 190.44 -212.029158 
L 190.44 -214.635966 
L 190.44 -217.242774 
L 190.44 -219.849581 
L 190.44 -222.456389 
L 190.44 -225.063196 
L 190.44 -227.670004 
L 190.44 -230.276812 
L 190.44 -232.883619 
L 190.44 -235.490427 
L 190.44 -238.097234 
L 190.44 -240.704042 
L 190.439999 -243.31085 
L 190.439996 -245.917657 
L 190.439982 -248.524465 
L 190.439934 -251.131272 
L 190.439771 -253.73808 
L 190.439272 -256.344887 
L 190.437855 -258.951695 
L 190.434158 -261.558503 
L 190.425283 -264.16531 
L 190.405716 -266.772118 
L 190.366133 -269.378925 
L 190.292808 -271.985733 
L 190.168733 -274.592541 
L 189.977633 -277.199348 
L 189.711116 -279.806156 
L 189.37729 -282.412963 
L 189.006963 -285.019771 
L 188.652735 -287.626579 
L 188.378363 -290.233386 
L 188.24047 -292.840194 
L 188.269576 -295.447001 
L 188.459116 -298.053809 
L 188.767846 -300.660616 
L 189.134433 -303.267424 
L 189.497176 -305.874232 
L 189.810242 -308.481039 
L 190.050927 -311.087847 
L 190.217665 -313.694654 
L 190.662335 -313.694654 
L 190.662335 -313.694654 
L 190.829073 -311.087847 
L 191.069758 -308.481039 
L 191.382824 -305.874232 
L 191.745567 -303.267424 
L 192.112154 -300.660616 
L 192.420884 -298.053809 
L 192.610424 -295.447001 
L 192.63953 -292.840194 
L 192.501637 -290.233386 
L 192.227265 -287.626579 
L 191.873037 -285.019771 
L 191.50271 -282.412963 
L 191.168884 -279.806156 
L 190.902367 -277.199348 
L 190.711267 -274.592541 
L 190.587192 -271.985733 
L 190.513867 -269.378925 
L 190.474284 -266.772118 
L 190.454717 -264.16531 
L 190.445842 -261.558503 
L 190.442145 -258.951695 
L 190.440728 -256.344887 
L 190.440229 -253.73808 
L 190.440066 -251.131272 
L 190.440018 -248.524465 
L 190.440004 -245.917657 
L 190.440001 -243.31085 
L 190.44 -240.704042 
L 190.44 -238.097234 
L 190.44 -235.490427 
L 190.44 -232.883619 
L 190.44 -230.276812 
L 190.44 -227.670004 
L 190.44 -225.063196 
L 190.44 -222.456389 
L 190.44 -219.849581 
L 190.44 -217.242774 
L 190.44 -214.635966 
L 190.44 -212.029158 
L 190.44 -209.422351 
L 190.44 -206.815543 
L 190.44 -204.208736 
L 190.44 -201.601928 
L 190.44 -198.99512 
L 190.44 -196.388313 
L 190.44 -193.781505 
L 190.44 -191.174698 
L 190.44 -188.56789 
L 190.44 -185.961083 
L 190.44 -183.354275 
L 190.44 -180.747467 
L 190.440001 -178.14066 
L 190.440003 -175.533852 
L 190.440009 -172.927045 
L 190.440031 -170.320237 
L 190.440097 -167.713429 
L 190.440281 -165.106622 
L 190.44075 -162.499814 
L 190.441853 -159.893007 
L 190.444232 -157.286199 
L 190.448939 -154.679391 
L 190.457462 -152.072584 
L 190.471542 -149.465776 
L 190.492687 -146.858969 
L 190.521379 -144.252161 
L 190.556234 -141.645353 
L 190.593518 -139.038546 
L 190.627498 -136.431738 
L 190.651759 -133.824931 
L 190.661155 -131.218123 
L 190.653583 -128.611316 
L 190.63076 -126.004508 
L 190.597632 -123.3977 
L 190.560796 -120.790893 
L 190.526919 -118.184085 
L 190.502497 -115.577278 
L 190.496551 -112.97047 
L 190.528608 -110.363662 
L 190.645641 -107.756855 
L 190.952747 -105.150047 
L 191.660476 -102.54324 
L 193.142886 -99.936432 
L 195.9821 -97.329624 
L 200.951742 -94.722817 
L 208.879759 -92.116009 
L 220.35588 -89.509202 
L 235.326007 -86.902394 
L 252.724715 -84.295587 
L 270.370468 -81.688779 
L 285.304282 -79.081971 
L 294.564214 -76.475164 
L 296.136 -73.868356 
L 289.66528 -71.261549 
L 276.587417 -68.654741 
L 259.609959 -66.047933 
L 241.802636 -63.441126 
L 225.712059 -60.834318 
L 212.840993 -58.227511 
L 203.59697 -55.620703 
z
" style="stroke: #595959; stroke-width: 1.25"/>
    </defs>
    <g clip-path="url(#pd25614d538)">
     <use xlink:href="#m7bd2a08bb3" x="0" y="432" style="fill: #72b6a1; stroke: #595959; stroke-width: 1.25"/>
    </g>
   </g>
   <g id="PolyCollection_2">
    <defs>
     <path id="m55a2c88560" d="M 466.854932 -57.985794 
L 442.505068 -57.985794 
L 432.791401 -61.316176 
L 418.817175 -64.646558 
L 401.124662 -67.976941 
L 381.775509 -71.307323 
L 364.197292 -74.637705 
L 352.278051 -77.968087 
L 348.984 -81.29847 
L 355.162949 -84.628852 
L 369.191034 -87.959234 
L 387.663053 -91.289616 
L 406.727404 -94.619999 
L 423.355454 -97.950381 
L 435.994924 -101.280763 
L 444.500344 -104.611145 
L 449.613747 -107.941528 
L 452.376235 -111.27191 
L 453.722669 -114.602292 
L 454.316399 -117.932674 
L 454.553764 -121.263057 
L 454.639934 -124.593439 
L 454.668374 -127.923821 
L 454.676916 -131.254203 
L 454.679252 -134.584586 
L 454.679834 -137.914968 
L 454.679966 -141.24535 
L 454.679994 -144.575732 
L 454.679999 -147.906115 
L 454.68 -151.236497 
L 454.68 -154.566879 
L 454.68 -157.897261 
L 454.68 -161.227644 
L 454.68 -164.558026 
L 454.68 -167.888408 
L 454.68 -171.21879 
L 454.68 -174.549173 
L 454.68 -177.879555 
L 454.68 -181.209937 
L 454.68 -184.540319 
L 454.68 -187.870702 
L 454.68 -191.201084 
L 454.68 -194.531466 
L 454.68 -197.861848 
L 454.68 -201.192231 
L 454.68 -204.522613 
L 454.68 -207.852995 
L 454.68 -211.183377 
L 454.68 -214.51376 
L 454.68 -217.844142 
L 454.68 -221.174524 
L 454.68 -224.504906 
L 454.68 -227.835289 
L 454.68 -231.165671 
L 454.68 -234.496053 
L 454.68 -237.826435 
L 454.679999 -241.156818 
L 454.679995 -244.4872 
L 454.679976 -247.817582 
L 454.6799 -251.147964 
L 454.67962 -254.478347 
L 454.678687 -257.808729 
L 454.675873 -261.139111 
L 454.668184 -264.469493 
L 454.649194 -267.799875 
L 454.606859 -271.130258 
L 454.521845 -274.46064 
L 454.368514 -277.791022 
L 454.121189 -281.121404 
L 453.766704 -284.451787 
L 453.320028 -287.782169 
L 452.834639 -291.112551 
L 452.397898 -294.442933 
L 452.10742 -297.773316 
L 452.035942 -301.103698 
L 452.201782 -304.43408 
L 452.561233 -307.764462 
L 453.027193 -311.094845 
L 453.503242 -314.425227 
L 453.915068 -317.755609 
L 454.225847 -321.085991 
L 454.433547 -324.416374 
L 454.557446 -327.746756 
L 454.623387 -331.077138 
L 454.653806 -334.40752 
L 454.663727 -337.737903 
L 454.660938 -341.068285 
L 454.648103 -344.398667 
L 454.625416 -347.729049 
L 454.593161 -351.059432 
L 454.553805 -354.389814 
L 454.512982 -357.720196 
L 454.478783 -361.050578 
L 454.459348 -364.380961 
L 454.459764 -367.711343 
L 454.47992 -371.041725 
L 454.514554 -374.372107 
L 454.555478 -377.70249 
L 454.594696 -381.032872 
L 454.62681 -384.363254 
L 454.649813 -387.693636 
L 454.710187 -387.693636 
L 454.710187 -387.693636 
L 454.73319 -384.363254 
L 454.765304 -381.032872 
L 454.804522 -377.70249 
L 454.845446 -374.372107 
L 454.88008 -371.041725 
L 454.900236 -367.711343 
L 454.900652 -364.380961 
L 454.881217 -361.050578 
L 454.847018 -357.720196 
L 454.806195 -354.389814 
L 454.766839 -351.059432 
L 454.734584 -347.729049 
L 454.711897 -344.398667 
L 454.699062 -341.068285 
L 454.696273 -337.737903 
L 454.706194 -334.40752 
L 454.736613 -331.077138 
L 454.802554 -327.746756 
L 454.926453 -324.416374 
L 455.134153 -321.085991 
L 455.444932 -317.755609 
L 455.856758 -314.425227 
L 456.332807 -311.094845 
L 456.798767 -307.764462 
L 457.158218 -304.43408 
L 457.324058 -301.103698 
L 457.25258 -297.773316 
L 456.962102 -294.442933 
L 456.525361 -291.112551 
L 456.039972 -287.782169 
L 455.593296 -284.451787 
L 455.238811 -281.121404 
L 454.991486 -277.791022 
L 454.838155 -274.46064 
L 454.753141 -271.130258 
L 454.710806 -267.799875 
L 454.691816 -264.469493 
L 454.684127 -261.139111 
L 454.681313 -257.808729 
L 454.68038 -254.478347 
L 454.6801 -251.147964 
L 454.680024 -247.817582 
L 454.680005 -244.4872 
L 454.680001 -241.156818 
L 454.68 -237.826435 
L 454.68 -234.496053 
L 454.68 -231.165671 
L 454.68 -227.835289 
L 454.68 -224.504906 
L 454.68 -221.174524 
L 454.68 -217.844142 
L 454.68 -214.51376 
L 454.68 -211.183377 
L 454.68 -207.852995 
L 454.68 -204.522613 
L 454.68 -201.192231 
L 454.68 -197.861848 
L 454.68 -194.531466 
L 454.68 -191.201084 
L 454.68 -187.870702 
L 454.68 -184.540319 
L 454.68 -181.209937 
L 454.68 -177.879555 
L 454.68 -174.549173 
L 454.68 -171.21879 
L 454.68 -167.888408 
L 454.68 -164.558026 
L 454.68 -161.227644 
L 454.68 -157.897261 
L 454.68 -154.566879 
L 454.68 -151.236497 
L 454.680001 -147.906115 
L 454.680006 -144.575732 
L 454.680034 -141.24535 
L 454.680166 -137.914968 
L 454.680748 -134.584586 
L 454.683084 -131.254203 
L 454.691626 -127.923821 
L 454.720066 -124.593439 
L 454.806236 -121.263057 
L 455.043601 -117.932674 
L 455.637331 -114.602292 
L 456.983765 -111.27191 
L 459.746253 -107.941528 
L 464.859656 -104.611145 
L 473.365076 -101.280763 
L 486.004546 -97.950381 
L 502.632596 -94.619999 
L 521.696947 -91.289616 
L 540.168966 -87.959234 
L 554.197051 -84.628852 
L 560.376 -81.29847 
L 557.081949 -77.968087 
L 545.162708 -74.637705 
L 527.584491 -71.307323 
L 508.235338 -67.976941 
L 490.542825 -64.646558 
L 476.568599 -61.316176 
L 466.854932 -57.985794 
z
" style="stroke: #595959; stroke-width: 1.25"/>
    </defs>
    <g clip-path="url(#pd25614d538)">
     <use xlink:href="#m55a2c88560" x="0" y="432" style="fill: #e99675; stroke: #595959; stroke-width: 1.25"/>
    </g>
   </g>
   <g id="PolyCollection_3">
    <defs>
     <path id="m5222f8bb22" d="M 732.446159 -53.566364 
L 705.393841 -53.566364 
L 693.807464 -56.758892 
L 677.171032 -59.951421 
L 656.770155 -63.14395 
L 636.073614 -66.336479 
L 620.031365 -69.529008 
L 613.224 -72.721536 
L 617.759689 -75.914065 
L 632.22356 -79.106594 
L 652.387789 -82.299123 
L 673.200409 -85.491651 
L 690.787213 -88.68418 
L 703.418804 -91.876709 
L 711.271557 -95.069238 
L 715.539895 -98.261767 
L 717.580032 -101.454295 
L 718.438453 -104.646824 
L 718.751945 -107.839353 
L 718.841719 -111.031882 
L 718.845492 -114.22441 
L 718.815648 -117.416939 
L 718.773491 -120.609468 
L 718.73255 -123.801997 
L 718.704706 -126.994526 
L 718.698506 -130.187054 
L 718.715949 -133.379583 
L 718.751676 -136.572112 
L 718.795669 -139.764641 
L 718.837769 -142.95717 
L 718.871301 -146.149698 
L 718.894175 -149.342227 
L 718.907738 -152.534756 
L 718.914787 -155.727285 
L 718.918015 -158.919813 
L 718.919323 -162.112342 
L 718.919793 -165.304871 
L 718.919944 -168.4974 
L 718.919986 -171.689929 
L 718.919997 -174.882457 
L 718.919999 -178.074986 
L 718.92 -181.267515 
L 718.92 -184.460044 
L 718.92 -187.652572 
L 718.92 -190.845101 
L 718.92 -194.03763 
L 718.92 -197.230159 
L 718.92 -200.422688 
L 718.92 -203.615216 
L 718.92 -206.807745 
L 718.92 -210.000274 
L 718.92 -213.192803 
L 718.92 -216.385331 
L 718.92 -219.57786 
L 718.92 -222.770389 
L 718.92 -225.962918 
L 718.92 -229.155447 
L 718.92 -232.347975 
L 718.92 -235.540504 
L 718.919999 -238.733033 
L 718.919996 -241.925562 
L 718.919981 -245.118091 
L 718.919913 -248.310619 
L 718.919634 -251.503148 
L 718.918626 -254.695677 
L 718.91538 -257.888206 
L 718.906086 -261.080734 
L 718.882478 -264.273263 
L 718.829387 -267.465792 
L 718.724048 -270.658321 
L 718.540537 -273.85085 
L 718.261966 -277.043378 
L 717.898151 -280.235907 
L 717.499031 -283.428436 
L 717.15053 -286.620965 
L 716.94684 -289.813493 
L 716.949654 -293.006022 
L 717.158088 -296.198551 
L 717.509127 -299.39108 
L 717.908294 -302.583609 
L 718.270341 -305.776137 
L 718.546408 -308.968666 
L 718.727554 -312.161195 
L 718.831011 -315.353724 
L 718.882466 -318.546252 
L 718.903876 -321.738781 
L 718.908933 -324.93131 
L 718.903629 -328.123839 
L 718.888867 -331.316368 
L 718.863515 -334.508896 
L 718.827442 -337.701425 
L 718.784041 -340.893954 
L 718.741148 -344.086483 
L 718.709325 -347.279012 
L 718.697792 -350.47154 
L 718.710139 -353.664069 
L 718.742528 -356.856598 
L 718.785614 -360.049127 
L 718.828882 -363.241655 
L 718.864681 -366.434184 
L 718.889927 -369.626713 
L 718.950073 -369.626713 
L 718.950073 -369.626713 
L 718.975319 -366.434184 
L 719.011118 -363.241655 
L 719.054386 -360.049127 
L 719.097472 -356.856598 
L 719.129861 -353.664069 
L 719.142208 -350.47154 
L 719.130675 -347.279012 
L 719.098852 -344.086483 
L 719.055959 -340.893954 
L 719.012558 -337.701425 
L 718.976485 -334.508896 
L 718.951133 -331.316368 
L 718.936371 -328.123839 
L 718.931067 -324.93131 
L 718.936124 -321.738781 
L 718.957534 -318.546252 
L 719.008989 -315.353724 
L 719.112446 -312.161195 
L 719.293592 -308.968666 
L 719.569659 -305.776137 
L 719.931706 -302.583609 
L 720.330873 -299.39108 
L 720.681912 -296.198551 
L 720.890346 -293.006022 
L 720.89316 -289.813493 
L 720.68947 -286.620965 
L 720.340969 -283.428436 
L 719.941849 -280.235907 
L 719.578034 -277.043378 
L 719.299463 -273.85085 
L 719.115952 -270.658321 
L 719.010613 -267.465792 
L 718.957522 -264.273263 
L 718.933914 -261.080734 
L 718.92462 -257.888206 
L 718.921374 -254.695677 
L 718.920366 -251.503148 
L 718.920087 -248.310619 
L 718.920019 -245.118091 
L 718.920004 -241.925562 
L 718.920001 -238.733033 
L 718.92 -235.540504 
L 718.92 -232.347975 
L 718.92 -229.155447 
L 718.92 -225.962918 
L 718.92 -222.770389 
L 718.92 -219.57786 
L 718.92 -216.385331 
L 718.92 -213.192803 
L 718.92 -210.000274 
L 718.92 -206.807745 
L 718.92 -203.615216 
L 718.92 -200.422688 
L 718.92 -197.230159 
L 718.92 -194.03763 
L 718.92 -190.845101 
L 718.92 -187.652572 
L 718.92 -184.460044 
L 718.92 -181.267515 
L 718.920001 -178.074986 
L 718.920003 -174.882457 
L 718.920014 -171.689929 
L 718.920056 -168.4974 
L 718.920207 -165.304871 
L 718.920677 -162.112342 
L 718.921985 -158.919813 
L 718.925213 -155.727285 
L 718.932262 -152.534756 
L 718.945825 -149.342227 
L 718.968699 -146.149698 
L 719.002231 -142.95717 
L 719.044331 -139.764641 
L 719.088324 -136.572112 
L 719.124051 -133.379583 
L 719.141494 -130.187054 
L 719.135294 -126.994526 
L 719.10745 -123.801997 
L 719.066509 -120.609468 
L 719.024352 -117.416939 
L 718.994508 -114.22441 
L 718.998281 -111.031882 
L 719.088055 -107.839353 
L 719.401547 -104.646824 
L 720.259968 -101.454295 
L 722.300105 -98.261767 
L 726.568443 -95.069238 
L 734.421196 -91.876709 
L 747.052787 -88.68418 
L 764.639591 -85.491651 
L 785.452211 -82.299123 
L 805.61644 -79.106594 
L 820.080311 -75.914065 
L 824.616 -72.721536 
L 817.808635 -69.529008 
L 801.766386 -66.336479 
L 781.069845 -63.14395 
L 760.668968 -59.951421 
L 744.032536 -56.758892 
L 732.446159 -53.566364 
z
" style="stroke: #595959; stroke-width: 1.25"/>
    </defs>
    <g clip-path="url(#pd25614d538)">
     <use xlink:href="#m5222f8bb22" x="0" y="432" style="fill: #95a3c3; stroke: #595959; stroke-width: 1.25"/>
    </g>
   </g>
   <g id="line2d_6">
    <path d="M 190.44 357.535846 
L 190.44 357.743683 
" clip-path="url(#pd25614d538)" style="fill: none; stroke: #000000"/>
   </g>
   <g id="line2d_7">
    <path d="M 190.44 357.292038 
L 190.44 356.976285 
" clip-path="url(#pd25614d538)" style="fill: none; stroke: #000000"/>
   </g>
   <g id="line2d_8">
    <path d="M 180.531 357.743683 
L 200.349 357.743683 
" clip-path="url(#pd25614d538)" style="fill: none; stroke: #000000; stroke-linecap: round"/>
   </g>
   <g id="line2d_9">
    <path d="M 180.531 356.976285 
L 200.349 356.976285 
" clip-path="url(#pd25614d538)" style="fill: none; stroke: #000000; stroke-linecap: round"/>
   </g>
   <g id="line2d_10">
    <path d="M 454.68 352.084125 
L 454.68 352.299955 
" clip-path="url(#pd25614d538)" style="fill: none; stroke: #000000"/>
   </g>
   <g id="line2d_11">
    <path d="M 454.68 351.300739 
L 454.68 350.149643 
" clip-path="url(#pd25614d538)" style="fill: none; stroke: #000000"/>
   </g>
   <g id="line2d_12">
    <path d="M 444.771 352.299955 
L 464.589 352.299955 
" clip-path="url(#pd25614d538)" style="fill: none; stroke: #000000; stroke-linecap: round"/>
   </g>
   <g id="line2d_13">
    <path d="M 444.771 350.149643 
L 464.589 350.149643 
" clip-path="url(#pd25614d538)" style="fill: none; stroke: #000000; stroke-linecap: round"/>
   </g>
   <g id="line2d_14">
    <path d="M 718.92 359.066645 
L 718.92 359.222523 
" clip-path="url(#pd25614d538)" style="fill: none; stroke: #000000"/>
   </g>
   <g id="line2d_15">
    <path d="M 718.92 358.854811 
L 718.92 358.543056 
" clip-path="url(#pd25614d538)" style="fill: none; stroke: #000000"/>
   </g>
   <g id="line2d_16">
    <path d="M 709.011 359.222523 
L 728.829 359.222523 
" clip-path="url(#pd25614d538)" style="fill: none; stroke: #000000; stroke-linecap: round"/>
   </g>
   <g id="line2d_17">
    <path d="M 709.011 358.543056 
L 728.829 358.543056 
" clip-path="url(#pd25614d538)" style="fill: none; stroke: #000000; stroke-linecap: round"/>
   </g>
   <g id="line2d_18">
    <path d="M 170.622 357.455909 
L 210.258 357.455909 
" clip-path="url(#pd25614d538)" style="fill: none; stroke: #ff0000; stroke-width: 2"/>
   </g>
   <g id="line2d_19">
    <path d="M 434.862 351.964219 
L 474.498 351.964219 
" clip-path="url(#pd25614d538)" style="fill: none; stroke: #ff0000; stroke-width: 2"/>
   </g>
   <g id="line2d_20">
    <path d="M 699.102 358.974717 
L 738.738 358.974717 
" clip-path="url(#pd25614d538)" style="fill: none; stroke: #ff0000; stroke-width: 2"/>
   </g>
   <g id="patch_3">
    <path d="M 58.32 395.14 
L 58.32 27.6 
" style="fill: none; stroke: #cccccc; stroke-width: 1.25; stroke-linejoin: miter; stroke-linecap: square"/>
   </g>
   <g id="patch_4">
    <path d="M 851.04 395.14 
L 851.04 27.6 
" style="fill: none; stroke: #cccccc; stroke-width: 1.25; stroke-linejoin: miter; stroke-linecap: square"/>
   </g>
   <g id="patch_5">
    <path d="M 58.32 395.14 
L 851.04 395.14 
" style="fill: none; stroke: #cccccc; stroke-width: 1.25; stroke-linejoin: miter; stroke-linecap: square"/>
   </g>
   <g id="patch_6">
    <path d="M 58.32 27.6 
L 851.04 27.6 
" style="fill: none; stroke: #cccccc; stroke-width: 1.25; stroke-linejoin: miter; stroke-linecap: square"/>
   </g>
   <g id="text_10">
    <!-- Handshake duration on QUIC with mldsa87 signature algorithm — Local YDE (35ms/2%) -->
    <g style="fill: #262626" transform="translate(190.397812 21.6) scale(0.12 -0.12)">
     <defs>
      <path id="DejaVuSans-51" d="M 2522 4238 
Q 1834 4238 1429 3725 
Q 1025 3213 1025 2328 
Q 1025 1447 1429 934 
Q 1834 422 2522 422 
Q 3209 422 3611 934 
Q 4013 1447 4013 2328 
Q 4013 3213 3611 3725 
Q 3209 4238 2522 4238 
z
M 3406 84 
L 4238 -825 
L 3475 -825 
L 2784 -78 
Q 2681 -84 2626 -87 
Q 2572 -91 2522 -91 
Q 1538 -91 948 567 
Q 359 1225 359 2328 
Q 359 3434 948 4092 
Q 1538 4750 2522 4750 
Q 3503 4750 4090 4092 
Q 4678 3434 4678 2328 
Q 4678 1516 4351 937 
Q 4025 359 3406 84 
z
" transform="scale(0.015625)"/>
      <path id="DejaVuSans-55" d="M 556 4666 
L 1191 4666 
L 1191 1831 
Q 1191 1081 1462 751 
Q 1734 422 2344 422 
Q 2950 422 3222 751 
Q 3494 1081 3494 1831 
L 3494 4666 
L 4128 4666 
L 4128 1753 
Q 4128 841 3676 375 
Q 3225 -91 2344 -91 
Q 1459 -91 1007 375 
Q 556 841 556 1753 
L 556 4666 
z
" transform="scale(0.015625)"/>
      <path id="DejaVuSans-49" d="M 628 4666 
L 1259 4666 
L 1259 0 
L 628 0 
L 628 4666 
z
" transform="scale(0.015625)"/>
      <path id="DejaVuSans-43" d="M 4122 4306 
L 4122 3641 
Q 3803 3938 3442 4084 
Q 3081 4231 2675 4231 
Q 1875 4231 1450 3742 
Q 1025 3253 1025 2328 
Q 1025 1406 1450 917 
Q 1875 428 2675 428 
Q 3081 428 3442 575 
Q 3803 722 4122 1019 
L 4122 359 
Q 3791 134 3420 21 
Q 3050 -91 2638 -91 
Q 1578 -91 968 557 
Q 359 1206 359 2328 
Q 359 3453 968 4101 
Q 1578 4750 2638 4750 
Q 3056 4750 3426 4639 
Q 3797 4528 4122 4306 
z
" transform="scale(0.015625)"/>
      <path id="DejaVuSans-77" d="M 269 3500 
L 844 3500 
L 1563 769 
L 2278 3500 
L 2956 3500 
L 3675 769 
L 4391 3500 
L 4966 3500 
L 4050 0 
L 3372 0 
L 2619 2869 
L 1863 0 
L 1184 0 
L 269 3500 
z
" transform="scale(0.015625)"/>
      <path id="DejaVuSans-38" d="M 2034 2216 
Q 1584 2216 1326 1975 
Q 1069 1734 1069 1313 
Q 1069 891 1326 650 
Q 1584 409 2034 409 
Q 2484 409 2743 651 
Q 3003 894 3003 1313 
Q 3003 1734 2745 1975 
Q 2488 2216 2034 2216 
z
M 1403 2484 
Q 997 2584 770 2862 
Q 544 3141 544 3541 
Q 544 4100 942 4425 
Q 1341 4750 2034 4750 
Q 2731 4750 3128 4425 
Q 3525 4100 3525 3541 
Q 3525 3141 3298 2862 
Q 3072 2584 2669 2484 
Q 3125 2378 3379 2068 
Q 3634 1759 3634 1313 
Q 3634 634 3220 271 
Q 2806 -91 2034 -91 
Q 1263 -91 848 271 
Q 434 634 434 1313 
Q 434 1759 690 2068 
Q 947 2378 1403 2484 
z
M 1172 3481 
Q 1172 3119 1398 2916 
Q 1625 2713 2034 2713 
Q 2441 2713 2670 2916 
Q 2900 3119 2900 3481 
Q 2900 3844 2670 4047 
Q 2441 4250 2034 4250 
Q 1625 4250 1398 4047 
Q 1172 3844 1172 3481 
z
" transform="scale(0.015625)"/>
      <path id="DejaVuSans-37" d="M 525 4666 
L 3525 4666 
L 3525 4397 
L 1831 0 
L 1172 0 
L 2766 4134 
L 525 4134 
L 525 4666 
z
" transform="scale(0.015625)"/>
      <path id="DejaVuSans-67" d="M 2906 1791 
Q 2906 2416 2648 2759 
Q 2391 3103 1925 3103 
Q 1463 3103 1205 2759 
Q 947 2416 947 1791 
Q 947 1169 1205 825 
Q 1463 481 1925 481 
Q 2391 481 2648 825 
Q 2906 1169 2906 1791 
z
M 3481 434 
Q 3481 -459 3084 -895 
Q 2688 -1331 1869 -1331 
Q 1566 -1331 1297 -1286 
Q 1028 -1241 775 -1147 
L 775 -588 
Q 1028 -725 1275 -790 
Q 1522 -856 1778 -856 
Q 2344 -856 2625 -561 
Q 2906 -266 2906 331 
L 2906 616 
Q 2728 306 2450 153 
Q 2172 0 1784 0 
Q 1141 0 747 490 
Q 353 981 353 1791 
Q 353 2603 747 3093 
Q 1141 3584 1784 3584 
Q 2172 3584 2450 3431 
Q 2728 3278 2906 2969 
L 2906 3500 
L 3481 3500 
L 3481 434 
z
" transform="scale(0.015625)"/>
      <path id="DejaVuSans-2014" d="M 313 1978 
L 6088 1978 
L 6088 1528 
L 313 1528 
L 313 1978 
z
" transform="scale(0.015625)"/>
      <path id="DejaVuSans-4c" d="M 628 4666 
L 1259 4666 
L 1259 531 
L 3531 531 
L 3531 0 
L 628 0 
L 628 4666 
z
" transform="scale(0.015625)"/>
      <path id="DejaVuSans-63" d="M 3122 3366 
L 3122 2828 
Q 2878 2963 2633 3030 
Q 2388 3097 2138 3097 
Q 1578 3097 1268 2742 
Q 959 2388 959 1747 
Q 959 1106 1268 751 
Q 1578 397 2138 397 
Q 2388 397 2633 464 
Q 2878 531 3122 666 
L 3122 134 
Q 2881 22 2623 -34 
Q 2366 -91 2075 -91 
Q 1284 -91 818 406 
Q 353 903 353 1747 
Q 353 2603 823 3093 
Q 1294 3584 2113 3584 
Q 2378 3584 2631 3529 
Q 2884 3475 3122 3366 
z
" transform="scale(0.015625)"/>
      <path id="DejaVuSans-59" d="M -13 4666 
L 666 4666 
L 1959 2747 
L 3244 4666 
L 3922 4666 
L 2272 2222 
L 2272 0 
L 1638 0 
L 1638 2222 
L -13 4666 
z
" transform="scale(0.015625)"/>
      <path id="DejaVuSans-44" d="M 1259 4147 
L 1259 519 
L 2022 519 
Q 2988 519 3436 956 
Q 3884 1394 3884 2338 
Q 3884 3275 3436 3711 
Q 2988 4147 2022 4147 
L 1259 4147 
z
M 628 4666 
L 1925 4666 
Q 3281 4666 3915 4102 
Q 4550 3538 4550 2338 
Q 4550 1131 3912 565 
Q 3275 0 1925 0 
L 628 0 
L 628 4666 
z
" transform="scale(0.015625)"/>
      <path id="DejaVuSans-45" d="M 628 4666 
L 3578 4666 
L 3578 4134 
L 1259 4134 
L 1259 2753 
L 3481 2753 
L 3481 2222 
L 1259 2222 
L 1259 531 
L 3634 531 
L 3634 0 
L 628 0 
L 628 4666 
z
" transform="scale(0.015625)"/>
      <path id="DejaVuSans-2f" d="M 1625 4666 
L 2156 4666 
L 531 -594 
L 0 -594 
L 1625 4666 
z
" transform="scale(0.015625)"/>
      <path id="DejaVuSans-25" d="M 4653 2053 
Q 4381 2053 4226 1822 
Q 4072 1591 4072 1178 
Q 4072 772 4226 539 
Q 4381 306 4653 306 
Q 4919 306 5073 539 
Q 5228 772 5228 1178 
Q 5228 1588 5073 1820 
Q 4919 2053 4653 2053 
z
M 4653 2450 
Q 5147 2450 5437 2106 
Q 5728 1763 5728 1178 
Q 5728 594 5436 251 
Q 5144 -91 4653 -91 
Q 4153 -91 3862 251 
Q 3572 594 3572 1178 
Q 3572 1766 3864 2108 
Q 4156 2450 4653 2450 
z
M 1428 4353 
Q 1159 4353 1004 4120 
Q 850 3888 850 3481 
Q 850 3069 1003 2837 
Q 1156 2606 1428 2606 
Q 1700 2606 1854 2837 
Q 2009 3069 2009 3481 
Q 2009 3884 1853 4118 
Q 1697 4353 1428 4353 
z
M 4250 4750 
L 4750 4750 
L 1831 -91 
L 1331 -91 
L 4250 4750 
z
M 1428 4750 
Q 1922 4750 2215 4408 
Q 2509 4066 2509 3481 
Q 2509 2891 2217 2550 
Q 1925 2209 1428 2209 
Q 931 2209 642 2551 
Q 353 2894 353 3481 
Q 353 4063 643 4406 
Q 934 4750 1428 4750 
z
" transform="scale(0.015625)"/>
     </defs>
     <use xlink:href="#DejaVuSans-48"/>
     <use xlink:href="#DejaVuSans-61" x="75.195312"/>
     <use xlink:href="#DejaVuSans-6e" x="136.474609"/>
     <use xlink:href="#DejaVuSans-64" x="199.853516"/>
     <use xlink:href="#DejaVuSans-73" x="263.330078"/>
     <use xlink:href="#DejaVuSans-68" x="315.429688"/>
     <use xlink:href="#DejaVuSans-61" x="378.808594"/>
     <use xlink:href="#DejaVuSans-6b" x="440.087891"/>
     <use xlink:href="#DejaVuSans-65" x="494.373047"/>
     <use xlink:href="#DejaVuSans-20" x="555.896484"/>
     <use xlink:href="#DejaVuSans-64" x="587.683594"/>
     <use xlink:href="#DejaVuSans-75" x="651.160156"/>
     <use xlink:href="#DejaVuSans-72" x="714.539062"/>
     <use xlink:href="#DejaVuSans-61" x="755.652344"/>
     <use xlink:href="#DejaVuSans-74" x="816.931641"/>
     <use xlink:href="#DejaVuSans-69" x="856.140625"/>
     <use xlink:href="#DejaVuSans-6f" x="883.923828"/>
     <use xlink:href="#DejaVuSans-6e" x="945.105469"/>
     <use xlink:href="#DejaVuSans-20" x="1008.484375"/>
     <use xlink:href="#DejaVuSans-6f" x="1040.271484"/>
     <use xlink:href="#DejaVuSans-6e" x="1101.453125"/>
     <use xlink:href="#DejaVuSans-20" x="1164.832031"/>
     <use xlink:href="#DejaVuSans-51" x="1196.619141"/>
     <use xlink:href="#DejaVuSans-55" x="1275.330078"/>
     <use xlink:href="#DejaVuSans-49" x="1348.523438"/>
     <use xlink:href="#DejaVuSans-43" x="1378.015625"/>
     <use xlink:href="#DejaVuSans-20" x="1447.839844"/>
     <use xlink:href="#DejaVuSans-77" x="1479.626953"/>
     <use xlink:href="#DejaVuSans-69" x="1561.414062"/>
     <use xlink:href="#DejaVuSans-74" x="1589.197266"/>
     <use xlink:href="#DejaVuSans-68" x="1628.40625"/>
     <use xlink:href="#DejaVuSans-20" x="1691.785156"/>
     <use xlink:href="#DejaVuSans-6d" x="1723.572266"/>
     <use xlink:href="#DejaVuSans-6c" x="1820.984375"/>
     <use xlink:href="#DejaVuSans-64" x="1848.767578"/>
     <use xlink:href="#DejaVuSans-73" x="1912.244141"/>
     <use xlink:href="#DejaVuSans-61" x="1964.34375"/>
     <use xlink:href="#DejaVuSans-38" x="2025.623047"/>
     <use xlink:href="#DejaVuSans-37" x="2089.246094"/>
     <use xlink:href="#DejaVuSans-20" x="2152.869141"/>
     <use xlink:href="#DejaVuSans-73" x="2184.65625"/>
     <use xlink:href="#DejaVuSans-69" x="2236.755859"/>
     <use xlink:href="#DejaVuSans-67" x="2264.539062"/>
     <use xlink:href="#DejaVuSans-6e" x="2328.015625"/>
     <use xlink:href="#DejaVuSans-61" x="2391.394531"/>
     <use xlink:href="#DejaVuSans-74" x="2452.673828"/>
     <use xlink:href="#DejaVuSans-75" x="2491.882812"/>
     <use xlink:href="#DejaVuSans-72" x="2555.261719"/>
     <use xlink:href="#DejaVuSans-65" x="2594.125"/>
     <use xlink:href="#DejaVuSans-20" x="2655.648438"/>
     <use xlink:href="#DejaVuSans-61" x="2687.435547"/>
     <use xlink:href="#DejaVuSans-6c" x="2748.714844"/>
     <use xlink:href="#DejaVuSans-67" x="2776.498047"/>
     <use xlink:href="#DejaVuSans-6f" x="2839.974609"/>
     <use xlink:href="#DejaVuSans-72" x="2901.15625"/>
     <use xlink:href="#DejaVuSans-69" x="2942.269531"/>
     <use xlink:href="#DejaVuSans-74" x="2970.052734"/>
     <use xlink:href="#DejaVuSans-68" x="3009.261719"/>
     <use xlink:href="#DejaVuSans-6d" x="3072.640625"/>
     <use xlink:href="#DejaVuSans-20" x="3170.052734"/>
     <use xlink:href="#DejaVuSans-2014" x="3201.839844"/>
     <use xlink:href="#DejaVuSans-20" x="3301.839844"/>
     <use xlink:href="#DejaVuSans-4c" x="3333.626953"/>
     <use xlink:href="#DejaVuSans-6f" x="3387.589844"/>
     <use xlink:href="#DejaVuSans-63" x="3448.771484"/>
     <use xlink:href="#DejaVuSans-61" x="3503.751953"/>
     <use xlink:href="#DejaVuSans-6c" x="3565.03125"/>
     <use xlink:href="#DejaVuSans-20" x="3592.814453"/>
     <use xlink:href="#DejaVuSans-59" x="3624.601562"/>
     <use xlink:href="#DejaVuSans-44" x="3685.685547"/>
     <use xlink:href="#DejaVuSans-45" x="3762.6875"/>
     <use xlink:href="#DejaVuSans-20" x="3825.871094"/>
     <use xlink:href="#DejaVuSans-28" x="3857.658203"/>
     <use xlink:href="#DejaVuSans-33" x="3896.671875"/>
     <use xlink:href="#DejaVuSans-35" x="3960.294922"/>
     <use xlink:href="#DejaVuSans-6d" x="4023.917969"/>
     <use xlink:href="#DejaVuSans-73" x="4121.330078"/>
     <use xlink:href="#DejaVuSans-2f" x="4173.429688"/>
     <use xlink:href="#DejaVuSans-32" x="4207.121094"/>
     <use xlink:href="#DejaVuSans-25" x="4270.744141"/>
     <use xlink:href="#DejaVuSans-29" x="4365.763672"/>
    </g>
   </g>
  </g>
 </g>
 <defs>
  <clipPath id="pd25614d538">
   <rect x="58.32" y="27.6" width="792.72" height="367.54"/>
  </clipPath>
 </defs>
</svg>
