<?xml version="1.0" encoding="utf-8" standalone="no"?>
<!DOCTYPE svg PUBLIC "-//W3C//DTD SVG 1.1//EN"
  "http://www.w3.org/Graphics/SVG/1.1/DTD/svg11.dtd">
<svg xmlns:xlink="http://www.w3.org/1999/xlink" width="864pt" height="432pt" viewBox="0 0 864 432" xmlns="http://www.w3.org/2000/svg" version="1.1">
 <metadata>
  <rdf:RDF xmlns:dc="http://purl.org/dc/elements/1.1/" xmlns:cc="http://creativecommons.org/ns#" xmlns:rdf="http://www.w3.org/1999/02/22-rdf-syntax-ns#">
   <cc:Work>
    <dc:type rdf:resource="http://purl.org/dc/dcmitype/StillImage"/>
    <dc:date>2026-03-21T13:58:47.015667</dc:date>
    <dc:format>image/svg+xml</dc:format>
    <dc:creator>
     <cc:Agent>
      <dc:title>Matplotlib v3.6.3, https://matplotlib.org/</dc:title>
     </cc:Agent>
    </dc:creator>
   </cc:Work>
  </rdf:RDF>
 </metadata>
 <defs>
  <style type="text/css">*{stroke-linejoin: round; stroke-linecap: butt}</style>
 </defs>
 <g id="figure_1">
  <g id="patch_1">
   <path d="M 0 432 
L 864 432 
L 864 0 
L 0 0 
z
" style="fill: #ffffff"/>
  </g>
  <g id="axes_1">
   <g id="patch_2">
    <path d="M 51.3 395.14 
L 851.04 395.14 
L 851.04 27.6 
L 51.3 27.6 
z
" style="fill: #ffffff"/>
   </g>
   <g id="matplotlib.axis_1">
    <g id="xtick_1">
     <g id="text_1">
      <!-- P-256 -->
      <g style="fill: #262626" transform="translate(111.324 415.277812) scale(0.14 -0.14)">
       <defs>
        <path id="DejaVuSans-50" d="M 1259 4147 
L 1259 2394 
L 2053 2394 
Q 2494 2394 2734 2622 
Q 2975 2850 2975 3272 
Q 2975 3691 2734 3919 
Q 2494 4147 2053 4147 
L 1259 4147 
z
M 628 4666 
L 2053 4666 
Q 2838 4666 3239 4311 
Q 3641 3956 3641 3272 
Q 3641 2581 3239 2228 
Q 2838 1875 2053 1875 
L 1259 1875 
L 1259 0 
L 628 0 
L 628 4666 
z
" transform="scale(0.015625)"/>
        <path id="DejaVuSans-2d" d="M 313 2009 
L 1997 2009 
L 1997 1497 
L 313 1497 
L 313 2009 
z
" transform="scale(0.015625)"/>
        <path id="DejaVuSans-32" d="M 1228 531 
L 3431 531 
L 3431 0 
L 469 0 
L 469 531 
Q 828 903 1448 1529 
Q 2069 2156 2228 2338 
Q 2531 2678 2651 2914 
Q 2772 3150 2772 3378 
Q 2772 3750 2511 3984 
Q 2250 4219 1831 4219 
Q 1534 4219 1204 4116 
Q 875 4013 500 3803 
L 500 4441 
Q 881 4594 1212 4672 
Q 1544 4750 1819 4750 
Q 2544 4750 2975 4387 
Q 3406 4025 3406 3419 
Q 3406 3131 3298 2873 
Q 3191 2616 2906 2266 
Q 2828 2175 2409 1742 
Q 1991 1309 1228 531 
z
" transform="scale(0.015625)"/>
        <path id="DejaVuSans-35" d="M 691 4666 
L 3169 4666 
L 3169 4134 
L 1269 4134 
L 1269 2991 
Q 1406 3038 1543 3061 
Q 1681 3084 1819 3084 
Q 2600 3084 3056 2656 
Q 3513 2228 3513 1497 
Q 3513 744 3044 326 
Q 2575 -91 1722 -91 
Q 1428 -91 1123 -41 
Q 819 9 494 109 
L 494 744 
Q 775 591 1075 516 
Q 1375 441 1709 441 
Q 2250 441 2565 725 
Q 2881 1009 2881 1497 
Q 2881 1984 2565 2268 
Q 2250 2553 1709 2553 
Q 1456 2553 1204 2497 
Q 953 2441 691 2322 
L 691 4666 
z
" transform="scale(0.015625)"/>
        <path id="DejaVuSans-36" d="M 2113 2584 
Q 1688 2584 1439 2293 
Q 1191 2003 1191 1497 
Q 1191 994 1439 701 
Q 1688 409 2113 409 
Q 2538 409 2786 701 
Q 3034 994 3034 1497 
Q 3034 2003 2786 2293 
Q 2538 2584 2113 2584 
z
M 3366 4563 
L 3366 3988 
Q 3128 4100 2886 4159 
Q 2644 4219 2406 4219 
Q 1781 4219 1451 3797 
Q 1122 3375 1075 2522 
Q 1259 2794 1537 2939 
Q 1816 3084 2150 3084 
Q 2853 3084 3261 2657 
Q 3669 2231 3669 1497 
Q 3669 778 3244 343 
Q 2819 -91 2113 -91 
Q 1303 -91 875 529 
Q 447 1150 447 2328 
Q 447 3434 972 4092 
Q 1497 4750 2381 4750 
Q 2619 4750 2861 4703 
Q 3103 4656 3366 4563 
z
" transform="scale(0.015625)"/>
       </defs>
       <use xlink:href="#DejaVuSans-50"/>
       <use xlink:href="#DejaVuSans-2d" x="58.052734"/>
       <use xlink:href="#DejaVuSans-32" x="94.136719"/>
       <use xlink:href="#DejaVuSans-35" x="157.759766"/>
       <use xlink:href="#DejaVuSans-36" x="221.382812"/>
      </g>
     </g>
    </g>
    <g id="xtick_2">
     <g id="text_2">
      <!-- x25519 -->
      <g style="fill: #262626" transform="translate(264.810125 415.277812) scale(0.14 -0.14)">
       <defs>
        <path id="DejaVuSans-78" d="M 3513 3500 
L 2247 1797 
L 3578 0 
L 2900 0 
L 1881 1375 
L 863 0 
L 184 0 
L 1544 1831 
L 300 3500 
L 978 3500 
L 1906 2253 
L 2834 3500 
L 3513 3500 
z
" transform="scale(0.015625)"/>
        <path id="DejaVuSans-31" d="M 794 531 
L 1825 531 
L 1825 4091 
L 703 3866 
L 703 4441 
L 1819 4666 
L 2450 4666 
L 2450 531 
L 3481 531 
L 3481 0 
L 794 0 
L 794 531 
z
" transform="scale(0.015625)"/>
        <path id="DejaVuSans-39" d="M 703 97 
L 703 672 
Q 941 559 1184 500 
Q 1428 441 1663 441 
Q 2288 441 2617 861 
Q 2947 1281 2994 2138 
Q 2813 1869 2534 1725 
Q 2256 1581 1919 1581 
Q 1219 1581 811 2004 
Q 403 2428 403 3163 
Q 403 3881 828 4315 
Q 1253 4750 1959 4750 
Q 2769 4750 3195 4129 
Q 3622 3509 3622 2328 
Q 3622 1225 3098 567 
Q 2575 -91 1691 -91 
Q 1453 -91 1209 -44 
Q 966 3 703 97 
z
M 1959 2075 
Q 2384 2075 2632 2365 
Q 2881 2656 2881 3163 
Q 2881 3666 2632 3958 
Q 2384 4250 1959 4250 
Q 1534 4250 1286 3958 
Q 1038 3666 1038 3163 
Q 1038 2656 1286 2365 
Q 1534 2075 1959 2075 
z
" transform="scale(0.015625)"/>
       </defs>
       <use xlink:href="#DejaVuSans-78"/>
       <use xlink:href="#DejaVuSans-32" x="59.179688"/>
       <use xlink:href="#DejaVuSans-35" x="122.802734"/>
       <use xlink:href="#DejaVuSans-35" x="186.425781"/>
       <use xlink:href="#DejaVuSans-31" x="250.048828"/>
       <use xlink:href="#DejaVuSans-39" x="313.671875"/>
      </g>
     </g>
    </g>
    <g id="xtick_3">
     <g id="text_3">
      <!-- p256_mlkem512 -->
      <g style="fill: #262626" transform="translate(392.815156 415.277812) scale(0.14 -0.14)">
       <defs>
        <path id="DejaVuSans-70" d="M 1159 525 
L 1159 -1331 
L 581 -1331 
L 581 3500 
L 1159 3500 
L 1159 2969 
Q 1341 3281 1617 3432 
Q 1894 3584 2278 3584 
Q 2916 3584 3314 3078 
Q 3713 2572 3713 1747 
Q 3713 922 3314 415 
Q 2916 -91 2278 -91 
Q 1894 -91 1617 61 
Q 1341 213 1159 525 
z
M 3116 1747 
Q 3116 2381 2855 2742 
Q 2594 3103 2138 3103 
Q 1681 3103 1420 2742 
Q 1159 2381 1159 1747 
Q 1159 1113 1420 752 
Q 1681 391 2138 391 
Q 2594 391 2855 752 
Q 3116 1113 3116 1747 
z
" transform="scale(0.015625)"/>
        <path id="DejaVuSans-5f" d="M 3263 -1063 
L 3263 -1509 
L -63 -1509 
L -63 -1063 
L 3263 -1063 
z
" transform="scale(0.015625)"/>
        <path id="DejaVuSans-6d" d="M 3328 2828 
Q 3544 3216 3844 3400 
Q 4144 3584 4550 3584 
Q 5097 3584 5394 3201 
Q 5691 2819 5691 2113 
L 5691 0 
L 5113 0 
L 5113 2094 
Q 5113 2597 4934 2840 
Q 4756 3084 4391 3084 
Q 3944 3084 3684 2787 
Q 3425 2491 3425 1978 
L 3425 0 
L 2847 0 
L 2847 2094 
Q 2847 2600 2669 2842 
Q 2491 3084 2119 3084 
Q 1678 3084 1418 2786 
Q 1159 2488 1159 1978 
L 1159 0 
L 581 0 
L 581 3500 
L 1159 3500 
L 1159 2956 
Q 1356 3278 1631 3431 
Q 1906 3584 2284 3584 
Q 2666 3584 2933 3390 
Q 3200 3197 3328 2828 
z
" transform="scale(0.015625)"/>
        <path id="DejaVuSans-6c" d="M 603 4863 
L 1178 4863 
L 1178 0 
L 603 0 
L 603 4863 
z
" transform="scale(0.015625)"/>
        <path id="DejaVuSans-6b" d="M 581 4863 
L 1159 4863 
L 1159 1991 
L 2875 3500 
L 3609 3500 
L 1753 1863 
L 3688 0 
L 2938 0 
L 1159 1709 
L 1159 0 
L 581 0 
L 581 4863 
z
" transform="scale(0.015625)"/>
        <path id="DejaVuSans-65" d="M 3597 1894 
L 3597 1613 
L 953 1613 
Q 991 1019 1311 708 
Q 1631 397 2203 397 
Q 2534 397 2845 478 
Q 3156 559 3463 722 
L 3463 178 
Q 3153 47 2828 -22 
Q 2503 -91 2169 -91 
Q 1331 -91 842 396 
Q 353 884 353 1716 
Q 353 2575 817 3079 
Q 1281 3584 2069 3584 
Q 2775 3584 3186 3129 
Q 3597 2675 3597 1894 
z
M 3022 2063 
Q 3016 2534 2758 2815 
Q 2500 3097 2075 3097 
Q 1594 3097 1305 2825 
Q 1016 2553 972 2059 
L 3022 2063 
z
" transform="scale(0.015625)"/>
       </defs>
       <use xlink:href="#DejaVuSans-70"/>
       <use xlink:href="#DejaVuSans-32" x="63.476562"/>
       <use xlink:href="#DejaVuSans-35" x="127.099609"/>
       <use xlink:href="#DejaVuSans-36" x="190.722656"/>
       <use xlink:href="#DejaVuSans-5f" x="254.345703"/>
       <use xlink:href="#DejaVuSans-6d" x="304.345703"/>
       <use xlink:href="#DejaVuSans-6c" x="401.757812"/>
       <use xlink:href="#DejaVuSans-6b" x="429.541016"/>
       <use xlink:href="#DejaVuSans-65" x="483.826172"/>
       <use xlink:href="#DejaVuSans-6d" x="545.349609"/>
       <use xlink:href="#DejaVuSans-35" x="642.761719"/>
       <use xlink:href="#DejaVuSans-31" x="706.384766"/>
       <use xlink:href="#DejaVuSans-32" x="770.007812"/>
      </g>
     </g>
    </g>
    <g id="xtick_4">
     <g id="text_4">
      <!-- x25519_mlkem512 -->
      <g style="fill: #262626" transform="translate(544.156437 415.277812) scale(0.14 -0.14)">
       <use xlink:href="#DejaVuSans-78"/>
       <use xlink:href="#DejaVuSans-32" x="59.179688"/>
       <use xlink:href="#DejaVuSans-35" x="122.802734"/>
       <use xlink:href="#DejaVuSans-35" x="186.425781"/>
       <use xlink:href="#DejaVuSans-31" x="250.048828"/>
       <use xlink:href="#DejaVuSans-39" x="313.671875"/>
       <use xlink:href="#DejaVuSans-5f" x="377.294922"/>
       <use xlink:href="#DejaVuSans-6d" x="427.294922"/>
       <use xlink:href="#DejaVuSans-6c" x="524.707031"/>
       <use xlink:href="#DejaVuSans-6b" x="552.490234"/>
       <use xlink:href="#DejaVuSans-65" x="606.775391"/>
       <use xlink:href="#DejaVuSans-6d" x="668.298828"/>
       <use xlink:href="#DejaVuSans-35" x="765.710938"/>
       <use xlink:href="#DejaVuSans-31" x="829.333984"/>
       <use xlink:href="#DejaVuSans-32" x="892.957031"/>
      </g>
     </g>
    </g>
    <g id="xtick_5">
     <g id="text_5">
      <!-- mlkem512 -->
      <g style="fill: #262626" transform="translate(734.016312 415.277812) scale(0.14 -0.14)">
       <use xlink:href="#DejaVuSans-6d"/>
       <use xlink:href="#DejaVuSans-6c" x="97.412109"/>
       <use xlink:href="#DejaVuSans-6b" x="125.195312"/>
       <use xlink:href="#DejaVuSans-65" x="179.480469"/>
       <use xlink:href="#DejaVuSans-6d" x="241.003906"/>
       <use xlink:href="#DejaVuSans-35" x="338.416016"/>
       <use xlink:href="#DejaVuSans-31" x="402.039062"/>
       <use xlink:href="#DejaVuSans-32" x="465.662109"/>
      </g>
     </g>
    </g>
   </g>
   <g id="matplotlib.axis_2">
    <g id="ytick_1">
     <g id="line2d_1">
      <path d="M 51.3 341.142617 
L 851.04 341.142617 
" clip-path="url(#p69962d425c)" style="fill: none; stroke: #cccccc; stroke-linecap: round"/>
     </g>
     <g id="text_6">
      <!-- 5 -->
      <g style="fill: #262626" transform="translate(34.80125 345.321758) scale(0.11 -0.11)">
       <use xlink:href="#DejaVuSans-35"/>
      </g>
     </g>
    </g>
    <g id="ytick_2">
     <g id="line2d_2">
      <path d="M 51.3 276.535977 
L 851.04 276.535977 
" clip-path="url(#p69962d425c)" style="fill: none; stroke: #cccccc; stroke-linecap: round"/>
     </g>
     <g id="text_7">
      <!-- 10 -->
      <g style="fill: #262626" transform="translate(27.8025 280.715117) scale(0.11 -0.11)">
       <defs>
        <path id="DejaVuSans-30" d="M 2034 4250 
Q 1547 4250 1301 3770 
Q 1056 3291 1056 2328 
Q 1056 1369 1301 889 
Q 1547 409 2034 409 
Q 2525 409 2770 889 
Q 3016 1369 3016 2328 
Q 3016 3291 2770 3770 
Q 2525 4250 2034 4250 
z
M 2034 4750 
Q 2819 4750 3233 4129 
Q 3647 3509 3647 2328 
Q 3647 1150 3233 529 
Q 2819 -91 2034 -91 
Q 1250 -91 836 529 
Q 422 1150 422 2328 
Q 422 3509 836 4129 
Q 1250 4750 2034 4750 
z
" transform="scale(0.015625)"/>
       </defs>
       <use xlink:href="#DejaVuSans-31"/>
       <use xlink:href="#DejaVuSans-30" x="63.623047"/>
      </g>
     </g>
    </g>
    <g id="ytick_3">
     <g id="line2d_3">
      <path d="M 51.3 211.929336 
L 851.04 211.929336 
" clip-path="url(#p69962d425c)" style="fill: none; stroke: #cccccc; stroke-linecap: round"/>
     </g>
     <g id="text_8">
      <!-- 15 -->
      <g style="fill: #262626" transform="translate(27.8025 216.108477) scale(0.11 -0.11)">
       <use xlink:href="#DejaVuSans-31"/>
       <use xlink:href="#DejaVuSans-35" x="63.623047"/>
      </g>
     </g>
    </g>
    <g id="ytick_4">
     <g id="line2d_4">
      <path d="M 51.3 147.322696 
L 851.04 147.322696 
" clip-path="url(#p69962d425c)" style="fill: none; stroke: #cccccc; stroke-linecap: round"/>
     </g>
     <g id="text_9">
      <!-- 20 -->
      <g style="fill: #262626" transform="translate(27.8025 151.501837) scale(0.11 -0.11)">
       <use xlink:href="#DejaVuSans-32"/>
       <use xlink:href="#DejaVuSans-30" x="63.623047"/>
      </g>
     </g>
    </g>
    <g id="ytick_5">
     <g id="line2d_5">
      <path d="M 51.3 82.716056 
L 851.04 82.716056 
" clip-path="url(#p69962d425c)" style="fill: none; stroke: #cccccc; stroke-linecap: round"/>
     </g>
     <g id="text_10">
      <!-- 25 -->
      <g style="fill: #262626" transform="translate(27.8025 86.895197) scale(0.11 -0.11)">
       <use xlink:href="#DejaVuSans-32"/>
       <use xlink:href="#DejaVuSans-35" x="63.623047"/>
      </g>
     </g>
    </g>
    <g id="text_11">
     <!-- Handshake duration (ms) -->
     <g style="fill: #262626" transform="translate(21.306875 287.437813) rotate(-90) scale(0.12 -0.12)">
      <defs>
       <path id="DejaVuSans-48" d="M 628 4666 
L 1259 4666 
L 1259 2753 
L 3553 2753 
L 3553 4666 
L 4184 4666 
L 4184 0 
L 3553 0 
L 3553 2222 
L 1259 2222 
L 1259 0 
L 628 0 
L 628 4666 
z
" transform="scale(0.015625)"/>
       <path id="DejaVuSans-61" d="M 2194 1759 
Q 1497 1759 1228 1600 
Q 959 1441 959 1056 
Q 959 750 1161 570 
Q 1363 391 1709 391 
Q 2188 391 2477 730 
Q 2766 1069 2766 1631 
L 2766 1759 
L 2194 1759 
z
M 3341 1997 
L 3341 0 
L 2766 0 
L 2766 531 
Q 2569 213 2275 61 
Q 1981 -91 1556 -91 
Q 1019 -91 701 211 
Q 384 513 384 1019 
Q 384 1609 779 1909 
Q 1175 2209 1959 2209 
L 2766 2209 
L 2766 2266 
Q 2766 2663 2505 2880 
Q 2244 3097 1772 3097 
Q 1472 3097 1187 3025 
Q 903 2953 641 2809 
L 641 3341 
Q 956 3463 1253 3523 
Q 1550 3584 1831 3584 
Q 2591 3584 2966 3190 
Q 3341 2797 3341 1997 
z
" transform="scale(0.015625)"/>
       <path id="DejaVuSans-6e" d="M 3513 2113 
L 3513 0 
L 2938 0 
L 2938 2094 
Q 2938 2591 2744 2837 
Q 2550 3084 2163 3084 
Q 1697 3084 1428 2787 
Q 1159 2491 1159 1978 
L 1159 0 
L 581 0 
L 581 3500 
L 1159 3500 
L 1159 2956 
Q 1366 3272 1645 3428 
Q 1925 3584 2291 3584 
Q 2894 3584 3203 3211 
Q 3513 2838 3513 2113 
z
" transform="scale(0.015625)"/>
       <path id="DejaVuSans-64" d="M 2906 2969 
L 2906 4863 
L 3481 4863 
L 3481 0 
L 2906 0 
L 2906 525 
Q 2725 213 2448 61 
Q 2172 -91 1784 -91 
Q 1150 -91 751 415 
Q 353 922 353 1747 
Q 353 2572 751 3078 
Q 1150 3584 1784 3584 
Q 2172 3584 2448 3432 
Q 2725 3281 2906 2969 
z
M 947 1747 
Q 947 1113 1208 752 
Q 1469 391 1925 391 
Q 2381 391 2643 752 
Q 2906 1113 2906 1747 
Q 2906 2381 2643 2742 
Q 2381 3103 1925 3103 
Q 1469 3103 1208 2742 
Q 947 2381 947 1747 
z
" transform="scale(0.015625)"/>
       <path id="DejaVuSans-73" d="M 2834 3397 
L 2834 2853 
Q 2591 2978 2328 3040 
Q 2066 3103 1784 3103 
Q 1356 3103 1142 2972 
Q 928 2841 928 2578 
Q 928 2378 1081 2264 
Q 1234 2150 1697 2047 
L 1894 2003 
Q 2506 1872 2764 1633 
Q 3022 1394 3022 966 
Q 3022 478 2636 193 
Q 2250 -91 1575 -91 
Q 1294 -91 989 -36 
Q 684 19 347 128 
L 347 722 
Q 666 556 975 473 
Q 1284 391 1588 391 
Q 1994 391 2212 530 
Q 2431 669 2431 922 
Q 2431 1156 2273 1281 
Q 2116 1406 1581 1522 
L 1381 1569 
Q 847 1681 609 1914 
Q 372 2147 372 2553 
Q 372 3047 722 3315 
Q 1072 3584 1716 3584 
Q 2034 3584 2315 3537 
Q 2597 3491 2834 3397 
z
" transform="scale(0.015625)"/>
       <path id="DejaVuSans-68" d="M 3513 2113 
L 3513 0 
L 2938 0 
L 2938 2094 
Q 2938 2591 2744 2837 
Q 2550 3084 2163 3084 
Q 1697 3084 1428 2787 
Q 1159 2491 1159 1978 
L 1159 0 
L 581 0 
L 581 4863 
L 1159 4863 
L 1159 2956 
Q 1366 3272 1645 3428 
Q 1925 3584 2291 3584 
Q 2894 3584 3203 3211 
Q 3513 2838 3513 2113 
z
" transform="scale(0.015625)"/>
       <path id="DejaVuSans-20" transform="scale(0.015625)"/>
       <path id="DejaVuSans-75" d="M 544 1381 
L 544 3500 
L 1119 3500 
L 1119 1403 
Q 1119 906 1312 657 
Q 1506 409 1894 409 
Q 2359 409 2629 706 
Q 2900 1003 2900 1516 
L 2900 3500 
L 3475 3500 
L 3475 0 
L 2900 0 
L 2900 538 
Q 2691 219 2414 64 
Q 2138 -91 1772 -91 
Q 1169 -91 856 284 
Q 544 659 544 1381 
z
M 1991 3584 
L 1991 3584 
z
" transform="scale(0.015625)"/>
       <path id="DejaVuSans-72" d="M 2631 2963 
Q 2534 3019 2420 3045 
Q 2306 3072 2169 3072 
Q 1681 3072 1420 2755 
Q 1159 2438 1159 1844 
L 1159 0 
L 581 0 
L 581 3500 
L 1159 3500 
L 1159 2956 
Q 1341 3275 1631 3429 
Q 1922 3584 2338 3584 
Q 2397 3584 2469 3576 
Q 2541 3569 2628 3553 
L 2631 2963 
z
" transform="scale(0.015625)"/>
       <path id="DejaVuSans-74" d="M 1172 4494 
L 1172 3500 
L 2356 3500 
L 2356 3053 
L 1172 3053 
L 1172 1153 
Q 1172 725 1289 603 
Q 1406 481 1766 481 
L 2356 481 
L 2356 0 
L 1766 0 
Q 1100 0 847 248 
Q 594 497 594 1153 
L 594 3053 
L 172 3053 
L 172 3500 
L 594 3500 
L 594 4494 
L 1172 4494 
z
" transform="scale(0.015625)"/>
       <path id="DejaVuSans-69" d="M 603 3500 
L 1178 3500 
L 1178 0 
L 603 0 
L 603 3500 
z
M 603 4863 
L 1178 4863 
L 1178 4134 
L 603 4134 
L 603 4863 
z
" transform="scale(0.015625)"/>
       <path id="DejaVuSans-6f" d="M 1959 3097 
Q 1497 3097 1228 2736 
Q 959 2375 959 1747 
Q 959 1119 1226 758 
Q 1494 397 1959 397 
Q 2419 397 2687 759 
Q 2956 1122 2956 1747 
Q 2956 2369 2687 2733 
Q 2419 3097 1959 3097 
z
M 1959 3584 
Q 2709 3584 3137 3096 
Q 3566 2609 3566 1747 
Q 3566 888 3137 398 
Q 2709 -91 1959 -91 
Q 1206 -91 779 398 
Q 353 888 353 1747 
Q 353 2609 779 3096 
Q 1206 3584 1959 3584 
z
" transform="scale(0.015625)"/>
       <path id="DejaVuSans-28" d="M 1984 4856 
Q 1566 4138 1362 3434 
Q 1159 2731 1159 2009 
Q 1159 1288 1364 580 
Q 1569 -128 1984 -844 
L 1484 -844 
Q 1016 -109 783 600 
Q 550 1309 550 2009 
Q 550 2706 781 3412 
Q 1013 4119 1484 4856 
L 1984 4856 
z
" transform="scale(0.015625)"/>
       <path id="DejaVuSans-29" d="M 513 4856 
L 1013 4856 
Q 1481 4119 1714 3412 
Q 1947 2706 1947 2009 
Q 1947 1309 1714 600 
Q 1481 -109 1013 -844 
L 513 -844 
Q 928 -128 1133 580 
Q 1338 1288 1338 2009 
Q 1338 2731 1133 3434 
Q 928 4138 513 4856 
z
" transform="scale(0.015625)"/>
      </defs>
      <use xlink:href="#DejaVuSans-48"/>
      <use xlink:href="#DejaVuSans-61" x="75.195312"/>
      <use xlink:href="#DejaVuSans-6e" x="136.474609"/>
      <use xlink:href="#DejaVuSans-64" x="199.853516"/>
      <use xlink:href="#DejaVuSans-73" x="263.330078"/>
      <use xlink:href="#DejaVuSans-68" x="315.429688"/>
      <use xlink:href="#DejaVuSans-61" x="378.808594"/>
      <use xlink:href="#DejaVuSans-6b" x="440.087891"/>
      <use xlink:href="#DejaVuSans-65" x="494.373047"/>
      <use xlink:href="#DejaVuSans-20" x="555.896484"/>
      <use xlink:href="#DejaVuSans-64" x="587.683594"/>
      <use xlink:href="#DejaVuSans-75" x="651.160156"/>
      <use xlink:href="#DejaVuSans-72" x="714.539062"/>
      <use xlink:href="#DejaVuSans-61" x="755.652344"/>
      <use xlink:href="#DejaVuSans-74" x="816.931641"/>
      <use xlink:href="#DejaVuSans-69" x="856.140625"/>
      <use xlink:href="#DejaVuSans-6f" x="883.923828"/>
      <use xlink:href="#DejaVuSans-6e" x="945.105469"/>
      <use xlink:href="#DejaVuSans-20" x="1008.484375"/>
      <use xlink:href="#DejaVuSans-28" x="1040.271484"/>
      <use xlink:href="#DejaVuSans-6d" x="1079.285156"/>
      <use xlink:href="#DejaVuSans-73" x="1176.697266"/>
      <use xlink:href="#DejaVuSans-29" x="1228.796875"/>
     </g>
    </g>
   </g>
   <g id="PolyCollection_1">
    <defs>
     <path id="m35623c1185" d="M 131.536094 -55.78473 
L 131.011906 -55.78473 
L 130.40456 -56.813038 
L 128.798255 -57.841347 
L 125.213442 -58.869656 
L 118.5029 -59.897964 
L 108.064831 -60.926273 
L 94.78525 -61.954582 
L 81.384356 -62.98289 
L 71.420587 -64.011199 
L 67.2948 -65.039508 
L 68.762688 -66.067816 
L 73.289746 -67.096125 
L 78.002748 -68.124434 
L 81.563702 -69.152743 
L 84.472186 -70.181051 
L 87.882148 -71.20936 
L 92.330563 -72.237669 
L 97.490374 -73.265977 
L 102.75848 -74.294286 
L 107.791967 -75.322595 
L 112.523779 -76.350903 
L 116.878992 -77.379212 
L 120.612715 -78.407521 
L 123.418979 -79.435829 
L 125.150428 -80.464138 
L 125.944235 -81.492447 
L 126.182964 -82.520756 
L 126.322866 -83.549064 
L 126.68601 -84.577373 
L 127.349496 -85.605682 
L 128.193008 -86.63399 
L 129.03223 -87.662299 
L 129.72663 -88.690608 
L 130.216 -89.718916 
L 130.501438 -90.747225 
L 130.606722 -91.775534 
L 130.559283 -92.803843 
L 130.405027 -93.832151 
L 130.223515 -94.86046 
L 130.104013 -95.888769 
L 130.095612 -96.917077 
L 130.180859 -97.945386 
L 130.297398 -98.973695 
L 130.388466 -100.002003 
L 130.444837 -101.030312 
L 130.506624 -102.058621 
L 130.620408 -103.086929 
L 130.790332 -104.115238 
L 130.973486 -105.143547 
L 131.120019 -106.171856 
L 131.20952 -107.200164 
L 131.252033 -108.228473 
L 131.267926 -109.256782 
L 131.272639 -110.28509 
L 131.273753 -111.313399 
L 131.273964 -112.341708 
L 131.273996 -113.370016 
L 131.274 -114.398325 
L 131.274 -115.426634 
L 131.274 -116.454943 
L 131.274 -117.483251 
L 131.274 -118.51156 
L 131.274 -119.539869 
L 131.274 -120.568177 
L 131.274 -121.596486 
L 131.274 -122.624795 
L 131.274 -123.653103 
L 131.274 -124.681412 
L 131.274 -125.709721 
L 131.274 -126.738029 
L 131.274 -127.766338 
L 131.274 -128.794647 
L 131.274 -129.822956 
L 131.274 -130.851264 
L 131.274 -131.879573 
L 131.274 -132.907882 
L 131.274 -133.93619 
L 131.274 -134.964499 
L 131.274 -135.992808 
L 131.274 -137.021116 
L 131.274 -138.049425 
L 131.274 -139.077734 
L 131.274 -140.106043 
L 131.274 -141.134351 
L 131.273998 -142.16266 
L 131.273987 -143.190969 
L 131.273905 -144.219277 
L 131.273454 -145.247586 
L 131.271473 -146.275895 
L 131.26455 -147.304203 
L 131.245454 -148.332512 
L 131.204365 -149.360821 
L 131.136813 -150.389129 
L 131.055726 -151.417438 
L 130.993527 -152.445747 
L 130.982942 -153.474056 
L 131.030068 -154.502364 
L 131.108895 -155.530673 
L 131.18375 -156.558982 
L 131.234158 -157.58729 
L 131.313842 -157.58729 
L 131.313842 -157.58729 
L 131.36425 -156.558982 
L 131.439105 -155.530673 
L 131.517932 -154.502364 
L 131.565058 -153.474056 
L 131.554473 -152.445747 
L 131.492274 -151.417438 
L 131.411187 -150.389129 
L 131.343635 -149.360821 
L 131.302546 -148.332512 
L 131.28345 -147.304203 
L 131.276527 -146.275895 
L 131.274546 -145.247586 
L 131.274095 -144.219277 
L 131.274013 -143.190969 
L 131.274002 -142.16266 
L 131.274 -141.134351 
L 131.274 -140.106043 
L 131.274 -139.077734 
L 131.274 -138.049425 
L 131.274 -137.021116 
L 131.274 -135.992808 
L 131.274 -134.964499 
L 131.274 -133.93619 
L 131.274 -132.907882 
L 131.274 -131.879573 
L 131.274 -130.851264 
L 131.274 -129.822956 
L 131.274 -128.794647 
L 131.274 -127.766338 
L 131.274 -126.738029 
L 131.274 -125.709721 
L 131.274 -124.681412 
L 131.274 -123.653103 
L 131.274 -122.624795 
L 131.274 -121.596486 
L 131.274 -120.568177 
L 131.274 -119.539869 
L 131.274 -118.51156 
L 131.274 -117.483251 
L 131.274 -116.454943 
L 131.274 -115.426634 
L 131.274 -114.398325 
L 131.274004 -113.370016 
L 131.274036 -112.341708 
L 131.274247 -111.313399 
L 131.275361 -110.28509 
L 131.280074 -109.256782 
L 131.295967 -108.228473 
L 131.33848 -107.200164 
L 131.427981 -106.171856 
L 131.574514 -105.143547 
L 131.757668 -104.115238 
L 131.927592 -103.086929 
L 132.041376 -102.058621 
L 132.103163 -101.030312 
L 132.159534 -100.002003 
L 132.250602 -98.973695 
L 132.367141 -97.945386 
L 132.452388 -96.917077 
L 132.443987 -95.888769 
L 132.324485 -94.86046 
L 132.142973 -93.832151 
L 131.988717 -92.803843 
L 131.941278 -91.775534 
L 132.046562 -90.747225 
L 132.332 -89.718916 
L 132.82137 -88.690608 
L 133.51577 -87.662299 
L 134.354992 -86.63399 
L 135.198504 -85.605682 
L 135.86199 -84.577373 
L 136.225134 -83.549064 
L 136.365036 -82.520756 
L 136.603765 -81.492447 
L 137.397572 -80.464138 
L 139.129021 -79.435829 
L 141.935285 -78.407521 
L 145.669008 -77.379212 
L 150.024221 -76.350903 
L 154.756033 -75.322595 
L 159.78952 -74.294286 
L 165.057626 -73.265977 
L 170.217437 -72.237669 
L 174.665852 -71.20936 
L 178.075814 -70.181051 
L 180.984298 -69.152743 
L 184.545252 -68.124434 
L 189.258254 -67.096125 
L 193.785312 -66.067816 
L 195.2532 -65.039508 
L 191.127413 -64.011199 
L 181.163644 -62.98289 
L 167.76275 -61.954582 
L 154.483169 -60.926273 
L 144.0451 -59.897964 
L 137.334558 -58.869656 
L 133.749745 -57.841347 
L 132.14344 -56.813038 
L 131.536094 -55.78473 
z
" style="stroke: #595959; stroke-width: 1.25"/>
    </defs>
    <g clip-path="url(#p69962d425c)">
     <use xlink:href="#m35623c1185" x="0" y="432" style="fill: #72b6a1; stroke: #595959; stroke-width: 1.25"/>
    </g>
   </g>
   <g id="PolyCollection_2">
    <defs>
     <path id="m55204d571e" d="M 291.597398 -53.566364 
L 290.846602 -53.566364 
L 290.365039 -54.095226 
L 289.421955 -54.624088 
L 287.728588 -55.15295 
L 284.931665 -55.681812 
L 280.672596 -56.210674 
L 274.692022 -56.739537 
L 266.970827 -57.268399 
L 257.872244 -57.797261 
L 248.216072 -58.326123 
L 239.201299 -58.854985 
L 232.135098 -59.383847 
L 228.030484 -59.91271 
L 227.2428 -60.441572 
L 229.334499 -60.970434 
L 233.251158 -61.499296 
L 237.726231 -62.028158 
L 241.722911 -62.55702 
L 244.728463 -63.085883 
L 246.807554 -63.614745 
L 248.428873 -64.143607 
L 250.162468 -64.672469 
L 252.388313 -65.201331 
L 255.144607 -65.730193 
L 258.170562 -66.259056 
L 261.094194 -66.787918 
L 263.643036 -67.31678 
L 265.759681 -67.845642 
L 267.576379 -68.374504 
L 269.291451 -68.903367 
L 271.039209 -69.432229 
L 272.829862 -69.961091 
L 274.576953 -70.489953 
L 276.173719 -71.018815 
L 277.562491 -71.547677 
L 278.762163 -72.07654 
L 279.851182 -72.605402 
L 280.924606 -73.134264 
L 282.049845 -73.663126 
L 283.241691 -74.191988 
L 284.465568 -74.72085 
L 285.661801 -75.249713 
L 286.772793 -75.778575 
L 287.758077 -76.307437 
L 288.595324 -76.836299 
L 289.275472 -77.365161 
L 289.799672 -77.894023 
L 290.179257 -78.422886 
L 290.435914 -78.951748 
L 290.599695 -79.48061 
L 290.704426 -80.009472 
L 290.781283 -80.538334 
L 290.852386 -81.067196 
L 290.927213 -81.596059 
L 291.003866 -82.124921 
L 291.074509 -82.653783 
L 291.131681 -83.182645 
L 291.17216 -83.711507 
L 291.197287 -84.240369 
L 291.211007 -84.769232 
L 291.217617 -85.298094 
L 291.220435 -85.826956 
L 291.221499 -86.355818 
L 291.221857 -86.88468 
L 291.221963 -87.413542 
L 291.221992 -87.942405 
L 291.221998 -88.471267 
L 291.222 -89.000129 
L 291.222 -89.528991 
L 291.222 -90.057853 
L 291.221999 -90.586715 
L 291.221997 -91.115578 
L 291.221985 -91.64444 
L 291.221934 -92.173302 
L 291.221741 -92.702164 
L 291.221093 -93.231026 
L 291.21915 -93.759888 
L 291.21398 -94.288751 
L 291.201785 -94.817613 
L 291.176351 -95.346475 
L 291.129649 -95.875337 
L 291.054597 -96.404199 
L 290.950047 -96.933061 
L 290.825849 -97.461924 
L 290.703978 -97.990786 
L 290.612458 -98.519648 
L 290.573291 -99.04851 
L 290.59095 -99.577372 
L 290.649423 -100.106234 
L 290.720799 -100.635097 
L 290.780339 -101.163959 
L 290.818422 -101.692821 
L 290.842254 -102.221683 
L 290.867607 -102.750545 
L 290.907221 -103.279407 
L 290.963513 -103.80827 
L 291.028958 -104.337132 
L 291.091974 -104.865994 
L 291.143325 -105.394856 
L 291.179317 -105.923718 
L 291.264683 -105.923718 
L 291.264683 -105.923718 
L 291.300675 -105.394856 
L 291.352026 -104.865994 
L 291.415042 -104.337132 
L 291.480487 -103.80827 
L 291.536779 -103.279407 
L 291.576393 -102.750545 
L 291.601746 -102.221683 
L 291.625578 -101.692821 
L 291.663661 -101.163959 
L 291.723201 -100.635097 
L 291.794577 -100.106234 
L 291.85305 -99.577372 
L 291.870709 -99.04851 
L 291.831542 -98.519648 
L 291.740022 -97.990786 
L 291.618151 -97.461924 
L 291.493953 -96.933061 
L 291.389403 -96.404199 
L 291.314351 -95.875337 
L 291.267649 -95.346475 
L 291.242215 -94.817613 
L 291.23002 -94.288751 
L 291.22485 -93.759888 
L 291.222907 -93.231026 
L 291.222259 -92.702164 
L 291.222066 -92.173302 
L 291.222015 -91.64444 
L 291.222003 -91.115578 
L 291.222001 -90.586715 
L 291.222 -90.057853 
L 291.222 -89.528991 
L 291.222 -89.000129 
L 291.222002 -88.471267 
L 291.222008 -87.942405 
L 291.222037 -87.413542 
L 291.222143 -86.88468 
L 291.222501 -86.355818 
L 291.223565 -85.826956 
L 291.226383 -85.298094 
L 291.232993 -84.769232 
L 291.246713 -84.240369 
L 291.27184 -83.711507 
L 291.312319 -83.182645 
L 291.369491 -82.653783 
L 291.440134 -82.124921 
L 291.516787 -81.596059 
L 291.591614 -81.067196 
L 291.662717 -80.538334 
L 291.739574 -80.009472 
L 291.844305 -79.48061 
L 292.008086 -78.951748 
L 292.264743 -78.422886 
L 292.644328 -77.894023 
L 293.168528 -77.365161 
L 293.848676 -76.836299 
L 294.685923 -76.307437 
L 295.671207 -75.778575 
L 296.782199 -75.249713 
L 297.978432 -74.72085 
L 299.202309 -74.191988 
L 300.394155 -73.663126 
L 301.519394 -73.134264 
L 302.592818 -72.605402 
L 303.681837 -72.07654 
L 304.881509 -71.547677 
L 306.270281 -71.018815 
L 307.867047 -70.489953 
L 309.614138 -69.961091 
L 311.404791 -69.432229 
L 313.152549 -68.903367 
L 314.867621 -68.374504 
L 316.684319 -67.845642 
L 318.800964 -67.31678 
L 321.349806 -66.787918 
L 324.273438 -66.259056 
L 327.299393 -65.730193 
L 330.055687 -65.201331 
L 332.281532 -64.672469 
L 334.015127 -64.143607 
L 335.636446 -63.614745 
L 337.715537 -63.085883 
L 340.721089 -62.55702 
L 344.717769 -62.028158 
L 349.192842 -61.499296 
L 353.109501 -60.970434 
L 355.2012 -60.441572 
L 354.413516 -59.91271 
L 350.308902 -59.383847 
L 343.242701 -58.854985 
L 334.227928 -58.326123 
L 324.571756 -57.797261 
L 315.473173 -57.268399 
L 307.751978 -56.739537 
L 301.771404 -56.210674 
L 297.512335 -55.681812 
L 294.715412 -55.15295 
L 293.022045 -54.624088 
L 292.078961 -54.095226 
L 291.597398 -53.566364 
z
" style="stroke: #595959; stroke-width: 1.25"/>
    </defs>
    <g clip-path="url(#p69962d425c)">
     <use xlink:href="#m55204d571e" x="0" y="432" style="fill: #e99675; stroke: #595959; stroke-width: 1.25"/>
    </g>
   </g>
   <g id="PolyCollection_3">
    <defs>
     <path id="mc736005843" d="M 452.778644 -163.441899 
L 449.561356 -163.441899 
L 448.515713 -165.707068 
L 446.958427 -167.972237 
L 444.741773 -170.237406 
L 441.728163 -172.502575 
L 437.818187 -174.767744 
L 432.98214 -177.032913 
L 427.288207 -179.298082 
L 420.919087 -181.563251 
L 414.169846 -183.82842 
L 407.423579 -186.093589 
L 401.107164 -188.358758 
L 395.63539 -190.623927 
L 391.355588 -192.889096 
L 388.505181 -195.154266 
L 387.1908 -197.419435 
L 387.391179 -199.684604 
L 388.979454 -201.949773 
L 391.756006 -204.214942 
L 395.482197 -206.480111 
L 399.907827 -208.74528 
L 404.789449 -211.010449 
L 409.900645 -213.275618 
L 415.037599 -215.540787 
L 420.02323 -217.805956 
L 424.711608 -220.071125 
L 428.992412 -222.336294 
L 432.793971 -224.601463 
L 436.083344 -226.866632 
L 438.862666 -229.131802 
L 441.162219 -231.396971 
L 443.031502 -233.66214 
L 444.529942 -235.927309 
L 445.718614 -238.192478 
L 446.653757 -240.457647 
L 447.382276 -242.722816 
L 447.938987 -244.987985 
L 448.345253 -247.253154 
L 448.608713 -249.518323 
L 448.72409 -251.783492 
L 448.675293 -254.048661 
L 448.439153 -256.31383 
L 447.990984 -258.578999 
L 447.311772 -260.844169 
L 446.396173 -263.109338 
L 445.259871 -265.374507 
L 443.9445 -267.639676 
L 442.518443 -269.904845 
L 441.072534 -272.170014 
L 439.710874 -274.435183 
L 438.538239 -276.700352 
L 437.646552 -278.965521 
L 437.103177 -281.23069 
L 436.9433 -283.495859 
L 437.167544 -285.761028 
L 437.744667 -288.026197 
L 438.618141 -290.291366 
L 439.714856 -292.556535 
L 440.95429 -294.821705 
L 442.256867 -297.086874 
L 443.550786 -299.352043 
L 444.77699 -301.617212 
L 445.892172 -303.882381 
L 446.869818 -306.14755 
L 447.699373 -308.412719 
L 448.383792 -310.677888 
L 448.935932 -312.943057 
L 449.37443 -315.208226 
L 449.719761 -317.473395 
L 449.99108 -319.738564 
L 450.20419 -322.003733 
L 450.370724 -324.268902 
L 450.498363 -326.534072 
L 450.59176 -328.799241 
L 450.653784 -331.06441 
L 450.686738 -333.329579 
L 450.6933 -335.594748 
L 450.677042 -337.859917 
L 450.642519 -340.125086 
L 450.595018 -342.390255 
L 450.540118 -344.655424 
L 450.483254 -346.920593 
L 450.429415 -349.185762 
L 450.383016 -351.450931 
L 450.347911 -353.7161 
L 450.327422 -355.981269 
L 450.324261 -358.246438 
L 450.340284 -360.511608 
L 450.376125 -362.776777 
L 450.430849 -365.041946 
L 450.501777 -367.307115 
L 450.584633 -369.572284 
L 450.674029 -371.837453 
L 450.764198 -374.102622 
L 450.849805 -376.367791 
L 450.926628 -378.63296 
L 450.991975 -380.898129 
L 451.044767 -383.163298 
L 451.085332 -385.428467 
L 451.115013 -387.693636 
L 451.224987 -387.693636 
L 451.224987 -387.693636 
L 451.254668 -385.428467 
L 451.295233 -383.163298 
L 451.348025 -380.898129 
L 451.413372 -378.63296 
L 451.490195 -376.367791 
L 451.575802 -374.102622 
L 451.665971 -371.837453 
L 451.755367 -369.572284 
L 451.838223 -367.307115 
L 451.909151 -365.041946 
L 451.963875 -362.776777 
L 451.999716 -360.511608 
L 452.015739 -358.246438 
L 452.012578 -355.981269 
L 451.992089 -353.7161 
L 451.956984 -351.450931 
L 451.910585 -349.185762 
L 451.856746 -346.920593 
L 451.799882 -344.655424 
L 451.744982 -342.390255 
L 451.697481 -340.125086 
L 451.662958 -337.859917 
L 451.6467 -335.594748 
L 451.653262 -333.329579 
L 451.686216 -331.06441 
L 451.74824 -328.799241 
L 451.841637 -326.534072 
L 451.969276 -324.268902 
L 452.13581 -322.003733 
L 452.34892 -319.738564 
L 452.620239 -317.473395 
L 452.96557 -315.208226 
L 453.404068 -312.943057 
L 453.956208 -310.677888 
L 454.640627 -308.412719 
L 455.470182 -306.14755 
L 456.447828 -303.882381 
L 457.56301 -301.617212 
L 458.789214 -299.352043 
L 460.083133 -297.086874 
L 461.38571 -294.821705 
L 462.625144 -292.556535 
L 463.721859 -290.291366 
L 464.595333 -288.026197 
L 465.172456 -285.761028 
L 465.3967 -283.495859 
L 465.236823 -281.23069 
L 464.693448 -278.965521 
L 463.801761 -276.700352 
L 462.629126 -274.435183 
L 461.267466 -272.170014 
L 459.821557 -269.904845 
L 458.3955 -267.639676 
L 457.080129 -265.374507 
L 455.943827 -263.109338 
L 455.028228 -260.844169 
L 454.349016 -258.578999 
L 453.900847 -256.31383 
L 453.664707 -254.048661 
L 453.61591 -251.783492 
L 453.731287 -249.518323 
L 453.994747 -247.253154 
L 454.401013 -244.987985 
L 454.957724 -242.722816 
L 455.686243 -240.457647 
L 456.621386 -238.192478 
L 457.810058 -235.927309 
L 459.308498 -233.66214 
L 461.177781 -231.396971 
L 463.477334 -229.131802 
L 466.256656 -226.866632 
L 469.546029 -224.601463 
L 473.347588 -222.336294 
L 477.628392 -220.071125 
L 482.31677 -217.805956 
L 487.302401 -215.540787 
L 492.439355 -213.275618 
L 497.550551 -211.010449 
L 502.432173 -208.74528 
L 506.857803 -206.480111 
L 510.583994 -204.214942 
L 513.360546 -201.949773 
L 514.948821 -199.684604 
L 515.1492 -197.419435 
L 513.834819 -195.154266 
L 510.984412 -192.889096 
L 506.70461 -190.623927 
L 501.232836 -188.358758 
L 494.916421 -186.093589 
L 488.170154 -183.82842 
L 481.420913 -181.563251 
L 475.051793 -179.298082 
L 469.35786 -177.032913 
L 464.521813 -174.767744 
L 460.611837 -172.502575 
L 457.598227 -170.237406 
L 455.381573 -167.972237 
L 453.824287 -165.707068 
L 452.778644 -163.441899 
z
" style="stroke: #595959; stroke-width: 1.25"/>
    </defs>
    <g clip-path="url(#p69962d425c)">
     <use xlink:href="#mc736005843" x="0" y="432" style="fill: #95a3c3; stroke: #595959; stroke-width: 1.25"/>
    </g>
   </g>
   <g id="PolyCollection_4">
    <defs>
     <path id="m5af7ce13e2" d="M 611.568098 -76.862217 
L 610.667902 -76.862217 
L 609.977709 -78.027253 
L 608.502643 -79.192288 
L 605.686153 -80.357324 
L 600.898447 -81.522359 
L 593.687601 -82.687395 
L 584.130958 -83.85243 
L 573.104195 -85.017466 
L 562.233914 -86.182501 
L 553.435493 -87.347536 
L 548.217785 -88.512572 
L 547.1388 -89.677607 
L 549.716034 -90.842643 
L 554.77863 -92.007678 
L 560.977857 -93.172714 
L 567.168668 -94.337749 
L 572.572354 -95.502785 
L 576.79165 -96.66782 
L 579.756379 -97.832855 
L 581.620151 -98.997891 
L 582.628509 -100.162926 
L 583.02317 -101.327962 
L 583.038965 -102.492997 
L 582.966505 -103.658033 
L 583.181913 -104.823068 
L 584.069676 -105.988104 
L 585.866193 -107.153139 
L 588.532578 -108.318174 
L 591.754143 -109.48321 
L 595.075465 -110.648245 
L 598.089343 -111.813281 
L 600.572596 -112.978316 
L 602.50981 -114.143352 
L 604.021087 -115.308387 
L 605.256616 -116.473423 
L 606.319012 -117.638458 
L 607.240933 -118.803493 
L 608.009063 -119.968529 
L 608.605035 -121.133564 
L 609.034384 -122.2986 
L 609.330521 -123.463635 
L 609.539573 -124.628671 
L 609.701902 -125.793706 
L 609.843186 -126.958741 
L 609.977255 -128.123777 
L 610.113482 -129.288812 
L 610.259934 -130.453848 
L 610.419924 -131.618883 
L 610.587293 -132.783919 
L 610.747101 -133.948954 
L 610.882653 -135.11399 
L 610.983554 -136.279025 
L 611.049112 -137.44406 
L 611.085965 -138.609096 
L 611.102965 -139.774131 
L 611.106862 -140.939167 
L 611.100324 -142.104202 
L 611.082231 -143.269238 
L 611.049778 -144.434273 
L 611.00199 -145.599309 
L 610.943449 -146.764344 
L 610.885846 -147.929379 
L 610.845104 -149.094415 
L 610.834481 -150.25945 
L 610.857658 -151.424486 
L 610.90667 -152.589521 
L 610.966194 -153.754557 
L 611.020933 -154.919592 
L 611.060946 -156.084628 
L 611.082183 -157.249663 
L 611.0833 -158.414698 
L 611.062071 -159.579734 
L 611.014444 -160.744769 
L 610.937518 -161.909805 
L 610.835202 -163.07484 
L 610.72282 -164.239876 
L 610.626083 -165.404911 
L 610.572548 -166.569947 
L 610.57921 -167.734982 
L 610.643898 -168.900017 
L 610.746416 -170.065053 
L 610.858647 -171.230088 
L 610.956786 -172.395124 
L 611.028542 -173.560159 
L 611.072872 -174.725195 
L 611.094871 -175.89023 
L 611.100085 -177.055265 
L 611.091121 -178.220301 
L 611.067379 -179.385336 
L 611.027521 -180.550372 
L 610.973453 -181.715407 
L 610.913561 -182.880443 
L 610.862383 -184.045478 
L 610.835518 -185.210514 
L 610.842098 -186.375549 
L 610.879835 -187.540584 
L 610.936297 -188.70562 
L 610.995481 -189.870655 
L 611.044986 -191.035691 
L 611.079544 -192.200726 
L 611.156456 -192.200726 
L 611.156456 -192.200726 
L 611.191014 -191.035691 
L 611.240519 -189.870655 
L 611.299703 -188.70562 
L 611.356165 -187.540584 
L 611.393902 -186.375549 
L 611.400482 -185.210514 
L 611.373617 -184.045478 
L 611.322439 -182.880443 
L 611.262547 -181.715407 
L 611.208479 -180.550372 
L 611.168621 -179.385336 
L 611.144879 -178.220301 
L 611.135915 -177.055265 
L 611.141129 -175.89023 
L 611.163128 -174.725195 
L 611.207458 -173.560159 
L 611.279214 -172.395124 
L 611.377353 -171.230088 
L 611.489584 -170.065053 
L 611.592102 -168.900017 
L 611.65679 -167.734982 
L 611.663452 -166.569947 
L 611.609917 -165.404911 
L 611.51318 -164.239876 
L 611.400798 -163.07484 
L 611.298482 -161.909805 
L 611.221556 -160.744769 
L 611.173929 -159.579734 
L 611.1527 -158.414698 
L 611.153817 -157.249663 
L 611.175054 -156.084628 
L 611.215067 -154.919592 
L 611.269806 -153.754557 
L 611.32933 -152.589521 
L 611.378342 -151.424486 
L 611.401519 -150.25945 
L 611.390896 -149.094415 
L 611.350154 -147.929379 
L 611.292551 -146.764344 
L 611.23401 -145.599309 
L 611.186222 -144.434273 
L 611.153769 -143.269238 
L 611.135676 -142.104202 
L 611.129138 -140.939167 
L 611.133035 -139.774131 
L 611.150035 -138.609096 
L 611.186888 -137.44406 
L 611.252446 -136.279025 
L 611.353347 -135.11399 
L 611.488899 -133.948954 
L 611.648707 -132.783919 
L 611.816076 -131.618883 
L 611.976066 -130.453848 
L 612.122518 -129.288812 
L 612.258745 -128.123777 
L 612.392814 -126.958741 
L 612.534098 -125.793706 
L 612.696427 -124.628671 
L 612.905479 -123.463635 
L 613.201616 -122.2986 
L 613.630965 -121.133564 
L 614.226937 -119.968529 
L 614.995067 -118.803493 
L 615.916988 -117.638458 
L 616.979384 -116.473423 
L 618.214913 -115.308387 
L 619.72619 -114.143352 
L 621.663404 -112.978316 
L 624.146657 -111.813281 
L 627.160535 -110.648245 
L 630.481857 -109.48321 
L 633.703422 -108.318174 
L 636.369807 -107.153139 
L 638.166324 -105.988104 
L 639.054087 -104.823068 
L 639.269495 -103.658033 
L 639.197035 -102.492997 
L 639.21283 -101.327962 
L 639.607491 -100.162926 
L 640.615849 -98.997891 
L 642.479621 -97.832855 
L 645.44435 -96.66782 
L 649.663646 -95.502785 
L 655.067332 -94.337749 
L 661.258143 -93.172714 
L 667.45737 -92.007678 
L 672.519966 -90.842643 
L 675.0972 -89.677607 
L 674.018215 -88.512572 
L 668.800507 -87.347536 
L 660.002086 -86.182501 
L 649.131805 -85.017466 
L 638.105042 -83.85243 
L 628.548399 -82.687395 
L 621.337553 -81.522359 
L 616.549847 -80.357324 
L 613.733357 -79.192288 
L 612.258291 -78.027253 
L 611.568098 -76.862217 
z
" style="stroke: #595959; stroke-width: 1.25"/>
    </defs>
    <g clip-path="url(#p69962d425c)">
     <use xlink:href="#m5af7ce13e2" x="0" y="432" style="fill: #db96c0; stroke: #595959; stroke-width: 1.25"/>
    </g>
   </g>
   <g id="PolyCollection_5">
    <defs>
     <path id="m73d30eb323" d="M 771.406383 -53.675247 
L 770.725617 -53.675247 
L 770.115169 -54.258033 
L 768.758749 -54.840818 
L 766.140622 -55.423604 
L 761.683658 -56.006389 
L 754.902307 -56.589175 
L 745.641456 -57.17196 
L 734.422427 -57.754745 
L 722.746585 -58.337531 
L 712.954361 -58.920316 
L 707.365129 -59.503102 
L 707.0868 -60.085887 
L 711.398982 -60.668673 
L 718.231941 -61.251458 
L 725.311953 -61.834243 
L 731.092747 -62.417029 
L 735.038596 -62.999814 
L 737.460181 -63.5826 
L 739.207091 -64.165385 
L 741.264469 -64.748171 
L 744.264345 -65.330956 
L 748.146897 -65.913742 
L 752.247739 -66.496527 
L 755.776568 -67.079312 
L 758.32163 -67.662098 
L 760.008 -68.244883 
L 761.248981 -68.827669 
L 762.36912 -69.410454 
L 763.433011 -69.99324 
L 764.353953 -70.576025 
L 765.084984 -71.15881 
L 765.687836 -71.741596 
L 766.264869 -72.324381 
L 766.874824 -72.907167 
L 767.521015 -73.489952 
L 768.186957 -74.072738 
L 768.849121 -74.655523 
L 769.460229 -75.238309 
L 769.955325 -75.821094 
L 770.293536 -76.403879 
L 770.486113 -76.986665 
L 770.580197 -77.56945 
L 770.626639 -78.152236 
L 770.664767 -78.735021 
L 770.719423 -79.317807 
L 770.795833 -79.900592 
L 770.877777 -80.483377 
L 770.938241 -81.066163 
L 770.955878 -81.648948 
L 770.92599 -82.231734 
L 770.864046 -82.814519 
L 770.802093 -83.397305 
L 770.774736 -83.98009 
L 770.798761 -84.562876 
L 770.862827 -85.145661 
L 770.938093 -85.728446 
L 770.999331 -86.311232 
L 771.03723 -86.894017 
L 771.055721 -87.476803 
L 771.062959 -88.059588 
L 771.065255 -88.642374 
L 771.065849 -89.225159 
L 771.065975 -89.807944 
L 771.065996 -90.39073 
L 771.066 -90.973515 
L 771.066 -91.556301 
L 771.066 -92.139086 
L 771.066 -92.721872 
L 771.066 -93.304657 
L 771.066 -93.887442 
L 771.066 -94.470228 
L 771.066 -95.053013 
L 771.066 -95.635799 
L 771.066 -96.218584 
L 771.066 -96.80137 
L 771.066 -97.384155 
L 771.066 -97.966941 
L 771.066 -98.549726 
L 771.066 -99.132511 
L 771.066 -99.715297 
L 771.066 -100.298082 
L 771.066 -100.880868 
L 771.066 -101.463653 
L 771.065999 -102.046439 
L 771.065989 -102.629224 
L 771.06593 -103.212009 
L 771.065627 -103.794795 
L 771.064341 -104.37758 
L 771.059899 -104.960366 
L 771.047417 -105.543151 
L 771.019143 -106.125937 
L 770.968179 -106.708722 
L 770.896926 -107.291508 
L 770.824059 -107.874293 
L 770.779367 -108.457078 
L 770.784854 -109.039864 
L 770.837691 -109.622649 
L 770.912502 -110.205435 
L 770.980559 -110.78822 
L 771.026625 -111.371006 
L 771.105375 -111.371006 
L 771.105375 -111.371006 
L 771.151441 -110.78822 
L 771.219498 -110.205435 
L 771.294309 -109.622649 
L 771.347146 -109.039864 
L 771.352633 -108.457078 
L 771.307941 -107.874293 
L 771.235074 -107.291508 
L 771.163821 -106.708722 
L 771.112857 -106.125937 
L 771.084583 -105.543151 
L 771.072101 -104.960366 
L 771.067659 -104.37758 
L 771.066373 -103.794795 
L 771.06607 -103.212009 
L 771.066011 -102.629224 
L 771.066001 -102.046439 
L 771.066 -101.463653 
L 771.066 -100.880868 
L 771.066 -100.298082 
L 771.066 -99.715297 
L 771.066 -99.132511 
L 771.066 -98.549726 
L 771.066 -97.966941 
L 771.066 -97.384155 
L 771.066 -96.80137 
L 771.066 -96.218584 
L 771.066 -95.635799 
L 771.066 -95.053013 
L 771.066 -94.470228 
L 771.066 -93.887442 
L 771.066 -93.304657 
L 771.066 -92.721872 
L 771.066 -92.139086 
L 771.066 -91.556301 
L 771.066 -90.973515 
L 771.066004 -90.39073 
L 771.066025 -89.807944 
L 771.066151 -89.225159 
L 771.066745 -88.642374 
L 771.069041 -88.059588 
L 771.076279 -87.476803 
L 771.09477 -86.894017 
L 771.132669 -86.311232 
L 771.193907 -85.728446 
L 771.269173 -85.145661 
L 771.333239 -84.562876 
L 771.357264 -83.98009 
L 771.329907 -83.397305 
L 771.267954 -82.814519 
L 771.20601 -82.231734 
L 771.176122 -81.648948 
L 771.193759 -81.066163 
L 771.254223 -80.483377 
L 771.336167 -79.900592 
L 771.412577 -79.317807 
L 771.467233 -78.735021 
L 771.505361 -78.152236 
L 771.551803 -77.56945 
L 771.645887 -76.986665 
L 771.838464 -76.403879 
L 772.176675 -75.821094 
L 772.671771 -75.238309 
L 773.282879 -74.655523 
L 773.945043 -74.072738 
L 774.610985 -73.489952 
L 775.257176 -72.907167 
L 775.867131 -72.324381 
L 776.444164 -71.741596 
L 777.047016 -71.15881 
L 777.778047 -70.576025 
L 778.698989 -69.99324 
L 779.76288 -69.410454 
L 780.883019 -68.827669 
L 782.124 -68.244883 
L 783.81037 -67.662098 
L 786.355432 -67.079312 
L 789.884261 -66.496527 
L 793.985103 -65.913742 
L 797.867655 -65.330956 
L 800.867531 -64.748171 
L 802.924909 -64.165385 
L 804.671819 -63.5826 
L 807.093404 -62.999814 
L 811.039253 -62.417029 
L 816.820047 -61.834243 
L 823.900059 -61.251458 
L 830.733018 -60.668673 
L 835.0452 -60.085887 
L 834.766871 -59.503102 
L 829.177639 -58.920316 
L 819.385415 -58.337531 
L 807.709573 -57.754745 
L 796.490544 -57.17196 
L 787.229693 -56.589175 
L 780.448342 -56.006389 
L 775.991378 -55.423604 
L 773.373251 -54.840818 
L 772.016831 -54.258033 
L 771.406383 -53.675247 
z
" style="stroke: #595959; stroke-width: 1.25"/>
    </defs>
    <g clip-path="url(#p69962d425c)">
     <use xlink:href="#m73d30eb323" x="0" y="432" style="fill: #a2c865; stroke: #595959; stroke-width: 1.25"/>
    </g>
   </g>
   <g id="line2d_6">
    <path d="M 131.274 367.372913 
L 131.274 371.766164 
" clip-path="url(#p69962d425c)" style="fill: none; stroke: #000000"/>
   </g>
   <g id="line2d_7">
    <path d="M 131.274 359.878543 
L 131.274 349.024627 
" clip-path="url(#p69962d425c)" style="fill: none; stroke: #000000"/>
   </g>
   <g id="line2d_8">
    <path d="M 125.27595 371.766164 
L 137.27205 371.766164 
" clip-path="url(#p69962d425c)" style="fill: none; stroke: #000000; stroke-linecap: round"/>
   </g>
   <g id="line2d_9">
    <path d="M 125.27595 349.024627 
L 137.27205 349.024627 
" clip-path="url(#p69962d425c)" style="fill: none; stroke: #000000; stroke-linecap: round"/>
   </g>
   <g id="line2d_10">
    <path d="M 291.222 372.024591 
L 291.222 375.254923 
" clip-path="url(#p69962d425c)" style="fill: none; stroke: #000000"/>
   </g>
   <g id="line2d_11">
    <path d="M 291.222 365.660837 
L 291.222 356.131357 
" clip-path="url(#p69962d425c)" style="fill: none; stroke: #000000"/>
   </g>
   <g id="line2d_12">
    <path d="M 285.22395 375.254923 
L 297.22005 375.254923 
" clip-path="url(#p69962d425c)" style="fill: none; stroke: #000000; stroke-linecap: round"/>
   </g>
   <g id="line2d_13">
    <path d="M 285.22395 356.131357 
L 297.22005 356.131357 
" clip-path="url(#p69962d425c)" style="fill: none; stroke: #000000; stroke-linecap: round"/>
   </g>
   <g id="line2d_14">
    <path d="M 451.17 238.547272 
L 451.17 246.816922 
" clip-path="url(#p69962d425c)" style="fill: none; stroke: #000000"/>
   </g>
   <g id="line2d_15">
    <path d="M 451.17 214.255176 
L 451.17 177.81703 
" clip-path="url(#p69962d425c)" style="fill: none; stroke: #000000"/>
   </g>
   <g id="line2d_16">
    <path d="M 445.17195 246.816922 
L 457.16805 246.816922 
" clip-path="url(#p69962d425c)" style="fill: none; stroke: #000000; stroke-linecap: round"/>
   </g>
   <g id="line2d_17">
    <path d="M 445.17195 177.81703 
L 457.16805 177.81703 
" clip-path="url(#p69962d425c)" style="fill: none; stroke: #000000; stroke-linecap: round"/>
   </g>
   <g id="line2d_18">
    <path d="M 611.118 343.371546 
L 611.118 348.507774 
" clip-path="url(#p69962d425c)" style="fill: none; stroke: #000000"/>
   </g>
   <g id="line2d_19">
    <path d="M 611.118 328.738142 
L 611.118 308.451657 
" clip-path="url(#p69962d425c)" style="fill: none; stroke: #000000"/>
   </g>
   <g id="line2d_20">
    <path d="M 605.11995 348.507774 
L 617.11605 348.507774 
" clip-path="url(#p69962d425c)" style="fill: none; stroke: #000000; stroke-linecap: round"/>
   </g>
   <g id="line2d_21">
    <path d="M 605.11995 308.451657 
L 617.11605 308.451657 
" clip-path="url(#p69962d425c)" style="fill: none; stroke: #000000; stroke-linecap: round"/>
   </g>
   <g id="line2d_22">
    <path d="M 771.066 372.670657 
L 771.066 375.642563 
" clip-path="url(#p69962d425c)" style="fill: none; stroke: #000000"/>
   </g>
   <g id="line2d_23">
    <path d="M 771.066 367.502126 
L 771.066 360.007756 
" clip-path="url(#p69962d425c)" style="fill: none; stroke: #000000"/>
   </g>
   <g id="line2d_24">
    <path d="M 765.06795 375.642563 
L 777.06405 375.642563 
" clip-path="url(#p69962d425c)" style="fill: none; stroke: #000000; stroke-linecap: round"/>
   </g>
   <g id="line2d_25">
    <path d="M 765.06795 360.007756 
L 777.06405 360.007756 
" clip-path="url(#p69962d425c)" style="fill: none; stroke: #000000; stroke-linecap: round"/>
   </g>
   <g id="line2d_26">
    <path d="M 119.2779 364.271794 
L 143.2701 364.271794 
" clip-path="url(#p69962d425c)" style="fill: none; stroke: #ff0000; stroke-width: 2"/>
   </g>
   <g id="line2d_27">
    <path d="M 279.2259 369.504932 
L 303.2181 369.504932 
" clip-path="url(#p69962d425c)" style="fill: none; stroke: #ff0000; stroke-width: 2"/>
   </g>
   <g id="line2d_28">
    <path d="M 439.1739 228.145603 
L 463.1661 228.145603 
" clip-path="url(#p69962d425c)" style="fill: none; stroke: #ff0000; stroke-width: 2"/>
   </g>
   <g id="line2d_29">
    <path d="M 599.1219 338.945991 
L 623.1141 338.945991 
" clip-path="url(#p69962d425c)" style="fill: none; stroke: #ff0000; stroke-width: 2"/>
   </g>
   <g id="line2d_30">
    <path d="M 759.0699 371.055491 
L 783.0621 371.055491 
" clip-path="url(#p69962d425c)" style="fill: none; stroke: #ff0000; stroke-width: 2"/>
   </g>
   <g id="patch_3">
    <path d="M 51.3 395.14 
L 51.3 27.6 
" style="fill: none; stroke: #cccccc; stroke-width: 1.25; stroke-linejoin: miter; stroke-linecap: square"/>
   </g>
   <g id="patch_4">
    <path d="M 851.04 395.14 
L 851.04 27.6 
" style="fill: none; stroke: #cccccc; stroke-width: 1.25; stroke-linejoin: miter; stroke-linecap: square"/>
   </g>
   <g id="patch_5">
    <path d="M 51.3 395.14 
L 851.04 395.14 
" style="fill: none; stroke: #cccccc; stroke-width: 1.25; stroke-linejoin: miter; stroke-linecap: square"/>
   </g>
   <g id="patch_6">
    <path d="M 51.3 27.6 
L 851.04 27.6 
" style="fill: none; stroke: #cccccc; stroke-width: 1.25; stroke-linejoin: miter; stroke-linecap: square"/>
   </g>
   <g id="text_12">
    <!-- Handshake duration on QUIC with mldsa44 signature algorithm — ideal conditions -->
    <g style="fill: #262626" transform="translate(203.870625 21.6) scale(0.12 -0.12)">
     <defs>
      <path id="DejaVuSans-51" d="M 2522 4238 
Q 1834 4238 1429 3725 
Q 1025 3213 1025 2328 
Q 1025 1447 1429 934 
Q 1834 422 2522 422 
Q 3209 422 3611 934 
Q 4013 1447 4013 2328 
Q 4013 3213 3611 3725 
Q 3209 4238 2522 4238 
z
M 3406 84 
L 4238 -825 
L 3475 -825 
L 2784 -78 
Q 2681 -84 2626 -87 
Q 2572 -91 2522 -91 
Q 1538 -91 948 567 
Q 359 1225 359 2328 
Q 359 3434 948 4092 
Q 1538 4750 2522 4750 
Q 3503 4750 4090 4092 
Q 4678 3434 4678 2328 
Q 4678 1516 4351 937 
Q 4025 359 3406 84 
z
" transform="scale(0.015625)"/>
      <path id="DejaVuSans-55" d="M 556 4666 
L 1191 4666 
L 1191 1831 
Q 1191 1081 1462 751 
Q 1734 422 2344 422 
Q 2950 422 3222 751 
Q 3494 1081 3494 1831 
L 3494 4666 
L 4128 4666 
L 4128 1753 
Q 4128 841 3676 375 
Q 3225 -91 2344 -91 
Q 1459 -91 1007 375 
Q 556 841 556 1753 
L 556 4666 
z
" transform="scale(0.015625)"/>
      <path id="DejaVuSans-49" d="M 628 4666 
L 1259 4666 
L 1259 0 
L 628 0 
L 628 4666 
z
" transform="scale(0.015625)"/>
      <path id="DejaVuSans-43" d="M 4122 4306 
L 4122 3641 
Q 3803 3938 3442 4084 
Q 3081 4231 2675 4231 
Q 1875 4231 1450 3742 
Q 1025 3253 1025 2328 
Q 1025 1406 1450 917 
Q 1875 428 2675 428 
Q 3081 428 3442 575 
Q 3803 722 4122 1019 
L 4122 359 
Q 3791 134 3420 21 
Q 3050 -91 2638 -91 
Q 1578 -91 968 557 
Q 359 1206 359 2328 
Q 359 3453 968 4101 
Q 1578 4750 2638 4750 
Q 3056 4750 3426 4639 
Q 3797 4528 4122 4306 
z
" transform="scale(0.015625)"/>
      <path id="DejaVuSans-77" d="M 269 3500 
L 844 3500 
L 1563 769 
L 2278 3500 
L 2956 3500 
L 3675 769 
L 4391 3500 
L 4966 3500 
L 4050 0 
L 3372 0 
L 2619 2869 
L 1863 0 
L 1184 0 
L 269 3500 
z
" transform="scale(0.015625)"/>
      <path id="DejaVuSans-34" d="M 2419 4116 
L 825 1625 
L 2419 1625 
L 2419 4116 
z
M 2253 4666 
L 3047 4666 
L 3047 1625 
L 3713 1625 
L 3713 1100 
L 3047 1100 
L 3047 0 
L 2419 0 
L 2419 1100 
L 313 1100 
L 313 1709 
L 2253 4666 
z
" transform="scale(0.015625)"/>
      <path id="DejaVuSans-67" d="M 2906 1791 
Q 2906 2416 2648 2759 
Q 2391 3103 1925 3103 
Q 1463 3103 1205 2759 
Q 947 2416 947 1791 
Q 947 1169 1205 825 
Q 1463 481 1925 481 
Q 2391 481 2648 825 
Q 2906 1169 2906 1791 
z
M 3481 434 
Q 3481 -459 3084 -895 
Q 2688 -1331 1869 -1331 
Q 1566 -1331 1297 -1286 
Q 1028 -1241 775 -1147 
L 775 -588 
Q 1028 -725 1275 -790 
Q 1522 -856 1778 -856 
Q 2344 -856 2625 -561 
Q 2906 -266 2906 331 
L 2906 616 
Q 2728 306 2450 153 
Q 2172 0 1784 0 
Q 1141 0 747 490 
Q 353 981 353 1791 
Q 353 2603 747 3093 
Q 1141 3584 1784 3584 
Q 2172 3584 2450 3431 
Q 2728 3278 2906 2969 
L 2906 3500 
L 3481 3500 
L 3481 434 
z
" transform="scale(0.015625)"/>
      <path id="DejaVuSans-2014" d="M 313 1978 
L 6088 1978 
L 6088 1528 
L 313 1528 
L 313 1978 
z
" transform="scale(0.015625)"/>
      <path id="DejaVuSans-63" d="M 3122 3366 
L 3122 2828 
Q 2878 2963 2633 3030 
Q 2388 3097 2138 3097 
Q 1578 3097 1268 2742 
Q 959 2388 959 1747 
Q 959 1106 1268 751 
Q 1578 397 2138 397 
Q 2388 397 2633 464 
Q 2878 531 3122 666 
L 3122 134 
Q 2881 22 2623 -34 
Q 2366 -91 2075 -91 
Q 1284 -91 818 406 
Q 353 903 353 1747 
Q 353 2603 823 3093 
Q 1294 3584 2113 3584 
Q 2378 3584 2631 3529 
Q 2884 3475 3122 3366 
z
" transform="scale(0.015625)"/>
     </defs>
     <use xlink:href="#DejaVuSans-48"/>
     <use xlink:href="#DejaVuSans-61" x="75.195312"/>
     <use xlink:href="#DejaVuSans-6e" x="136.474609"/>
     <use xlink:href="#DejaVuSans-64" x="199.853516"/>
     <use xlink:href="#DejaVuSans-73" x="263.330078"/>
     <use xlink:href="#DejaVuSans-68" x="315.429688"/>
     <use xlink:href="#DejaVuSans-61" x="378.808594"/>
     <use xlink:href="#DejaVuSans-6b" x="440.087891"/>
     <use xlink:href="#DejaVuSans-65" x="494.373047"/>
     <use xlink:href="#DejaVuSans-20" x="555.896484"/>
     <use xlink:href="#DejaVuSans-64" x="587.683594"/>
     <use xlink:href="#DejaVuSans-75" x="651.160156"/>
     <use xlink:href="#DejaVuSans-72" x="714.539062"/>
     <use xlink:href="#DejaVuSans-61" x="755.652344"/>
     <use xlink:href="#DejaVuSans-74" x="816.931641"/>
     <use xlink:href="#DejaVuSans-69" x="856.140625"/>
     <use xlink:href="#DejaVuSans-6f" x="883.923828"/>
     <use xlink:href="#DejaVuSans-6e" x="945.105469"/>
     <use xlink:href="#DejaVuSans-20" x="1008.484375"/>
     <use xlink:href="#DejaVuSans-6f" x="1040.271484"/>
     <use xlink:href="#DejaVuSans-6e" x="1101.453125"/>
     <use xlink:href="#DejaVuSans-20" x="1164.832031"/>
     <use xlink:href="#DejaVuSans-51" x="1196.619141"/>
     <use xlink:href="#DejaVuSans-55" x="1275.330078"/>
     <use xlink:href="#DejaVuSans-49" x="1348.523438"/>
     <use xlink:href="#DejaVuSans-43" x="1378.015625"/>
     <use xlink:href="#DejaVuSans-20" x="1447.839844"/>
     <use xlink:href="#DejaVuSans-77" x="1479.626953"/>
     <use xlink:href="#DejaVuSans-69" x="1561.414062"/>
     <use xlink:href="#DejaVuSans-74" x="1589.197266"/>
     <use xlink:href="#DejaVuSans-68" x="1628.40625"/>
     <use xlink:href="#DejaVuSans-20" x="1691.785156"/>
     <use xlink:href="#DejaVuSans-6d" x="1723.572266"/>
     <use xlink:href="#DejaVuSans-6c" x="1820.984375"/>
     <use xlink:href="#DejaVuSans-64" x="1848.767578"/>
     <use xlink:href="#DejaVuSans-73" x="1912.244141"/>
     <use xlink:href="#DejaVuSans-61" x="1964.34375"/>
     <use xlink:href="#DejaVuSans-34" x="2025.623047"/>
     <use xlink:href="#DejaVuSans-34" x="2089.246094"/>
     <use xlink:href="#DejaVuSans-20" x="2152.869141"/>
     <use xlink:href="#DejaVuSans-73" x="2184.65625"/>
     <use xlink:href="#DejaVuSans-69" x="2236.755859"/>
     <use xlink:href="#DejaVuSans-67" x="2264.539062"/>
     <use xlink:href="#DejaVuSans-6e" x="2328.015625"/>
     <use xlink:href="#DejaVuSans-61" x="2391.394531"/>
     <use xlink:href="#DejaVuSans-74" x="2452.673828"/>
     <use xlink:href="#DejaVuSans-75" x="2491.882812"/>
     <use xlink:href="#DejaVuSans-72" x="2555.261719"/>
     <use xlink:href="#DejaVuSans-65" x="2594.125"/>
     <use xlink:href="#DejaVuSans-20" x="2655.648438"/>
     <use xlink:href="#DejaVuSans-61" x="2687.435547"/>
     <use xlink:href="#DejaVuSans-6c" x="2748.714844"/>
     <use xlink:href="#DejaVuSans-67" x="2776.498047"/>
     <use xlink:href="#DejaVuSans-6f" x="2839.974609"/>
     <use xlink:href="#DejaVuSans-72" x="2901.15625"/>
     <use xlink:href="#DejaVuSans-69" x="2942.269531"/>
     <use xlink:href="#DejaVuSans-74" x="2970.052734"/>
     <use xlink:href="#DejaVuSans-68" x="3009.261719"/>
     <use xlink:href="#DejaVuSans-6d" x="3072.640625"/>
     <use xlink:href="#DejaVuSans-20" x="3170.052734"/>
     <use xlink:href="#DejaVuSans-2014" x="3201.839844"/>
     <use xlink:href="#DejaVuSans-20" x="3301.839844"/>
     <use xlink:href="#DejaVuSans-69" x="3333.626953"/>
     <use xlink:href="#DejaVuSans-64" x="3361.410156"/>
     <use xlink:href="#DejaVuSans-65" x="3424.886719"/>
     <use xlink:href="#DejaVuSans-61" x="3486.410156"/>
     <use xlink:href="#DejaVuSans-6c" x="3547.689453"/>
     <use xlink:href="#DejaVuSans-20" x="3575.472656"/>
     <use xlink:href="#DejaVuSans-63" x="3607.259766"/>
     <use xlink:href="#DejaVuSans-6f" x="3662.240234"/>
     <use xlink:href="#DejaVuSans-6e" x="3723.421875"/>
     <use xlink:href="#DejaVuSans-64" x="3786.800781"/>
     <use xlink:href="#DejaVuSans-69" x="3850.277344"/>
     <use xlink:href="#DejaVuSans-74" x="3878.060547"/>
     <use xlink:href="#DejaVuSans-69" x="3917.269531"/>
     <use xlink:href="#DejaVuSans-6f" x="3945.052734"/>
     <use xlink:href="#DejaVuSans-6e" x="4006.234375"/>
     <use xlink:href="#DejaVuSans-73" x="4069.613281"/>
    </g>
   </g>
  </g>
 </g>
 <defs>
  <clipPath id="p69962d425c">
   <rect x="51.3" y="27.6" width="799.74" height="367.54"/>
  </clipPath>
 </defs>
</svg>
