<?xml version="1.0" encoding="utf-8" standalone="no"?>
<!DOCTYPE svg PUBLIC "-//W3C//DTD SVG 1.1//EN"
  "http://www.w3.org/Graphics/SVG/1.1/DTD/svg11.dtd">
<svg xmlns:xlink="http://www.w3.org/1999/xlink" width="864pt" height="432pt" viewBox="0 0 864 432" xmlns="http://www.w3.org/2000/svg" version="1.1">
 <metadata>
  <rdf:RDF xmlns:dc="http://purl.org/dc/elements/1.1/" xmlns:cc="http://creativecommons.org/ns#" xmlns:rdf="http://www.w3.org/1999/02/22-rdf-syntax-ns#">
   <cc:Work>
    <dc:type rdf:resource="http://purl.org/dc/dcmitype/StillImage"/>
    <dc:date>2026-03-21T13:58:51.579586</dc:date>
    <dc:format>image/svg+xml</dc:format>
    <dc:creator>
     <cc:Agent>
      <dc:title>Matplotlib v3.6.3, https://matplotlib.org/</dc:title>
     </cc:Agent>
    </dc:creator>
   </cc:Work>
  </rdf:RDF>
 </metadata>
 <defs>
  <style type="text/css">*{stroke-linejoin: round; stroke-linecap: butt}</style>
 </defs>
 <g id="figure_1">
  <g id="patch_1">
   <path d="M 0 432 
L 864 432 
L 864 0 
L 0 0 
z
" style="fill: #ffffff"/>
  </g>
  <g id="axes_1">
   <g id="patch_2">
    <path d="M 58.32 395.14 
L 851.04 395.14 
L 851.04 27.6 
L 58.32 27.6 
z
" style="fill: #ffffff"/>
   </g>
   <g id="matplotlib.axis_1">
    <g id="xtick_1">
     <g id="text_1">
      <!-- P-256 -->
      <g style="fill: #262626" transform="translate(117.642 415.277812) scale(0.14 -0.14)">
       <defs>
        <path id="DejaVuSans-50" d="M 1259 4147 
L 1259 2394 
L 2053 2394 
Q 2494 2394 2734 2622 
Q 2975 2850 2975 3272 
Q 2975 3691 2734 3919 
Q 2494 4147 2053 4147 
L 1259 4147 
z
M 628 4666 
L 2053 4666 
Q 2838 4666 3239 4311 
Q 3641 3956 3641 3272 
Q 3641 2581 3239 2228 
Q 2838 1875 2053 1875 
L 1259 1875 
L 1259 0 
L 628 0 
L 628 4666 
z
" transform="scale(0.015625)"/>
        <path id="DejaVuSans-2d" d="M 313 2009 
L 1997 2009 
L 1997 1497 
L 313 1497 
L 313 2009 
z
" transform="scale(0.015625)"/>
        <path id="DejaVuSans-32" d="M 1228 531 
L 3431 531 
L 3431 0 
L 469 0 
L 469 531 
Q 828 903 1448 1529 
Q 2069 2156 2228 2338 
Q 2531 2678 2651 2914 
Q 2772 3150 2772 3378 
Q 2772 3750 2511 3984 
Q 2250 4219 1831 4219 
Q 1534 4219 1204 4116 
Q 875 4013 500 3803 
L 500 4441 
Q 881 4594 1212 4672 
Q 1544 4750 1819 4750 
Q 2544 4750 2975 4387 
Q 3406 4025 3406 3419 
Q 3406 3131 3298 2873 
Q 3191 2616 2906 2266 
Q 2828 2175 2409 1742 
Q 1991 1309 1228 531 
z
" transform="scale(0.015625)"/>
        <path id="DejaVuSans-35" d="M 691 4666 
L 3169 4666 
L 3169 4134 
L 1269 4134 
L 1269 2991 
Q 1406 3038 1543 3061 
Q 1681 3084 1819 3084 
Q 2600 3084 3056 2656 
Q 3513 2228 3513 1497 
Q 3513 744 3044 326 
Q 2575 -91 1722 -91 
Q 1428 -91 1123 -41 
Q 819 9 494 109 
L 494 744 
Q 775 591 1075 516 
Q 1375 441 1709 441 
Q 2250 441 2565 725 
Q 2881 1009 2881 1497 
Q 2881 1984 2565 2268 
Q 2250 2553 1709 2553 
Q 1456 2553 1204 2497 
Q 953 2441 691 2322 
L 691 4666 
z
" transform="scale(0.015625)"/>
        <path id="DejaVuSans-36" d="M 2113 2584 
Q 1688 2584 1439 2293 
Q 1191 2003 1191 1497 
Q 1191 994 1439 701 
Q 1688 409 2113 409 
Q 2538 409 2786 701 
Q 3034 994 3034 1497 
Q 3034 2003 2786 2293 
Q 2538 2584 2113 2584 
z
M 3366 4563 
L 3366 3988 
Q 3128 4100 2886 4159 
Q 2644 4219 2406 4219 
Q 1781 4219 1451 3797 
Q 1122 3375 1075 2522 
Q 1259 2794 1537 2939 
Q 1816 3084 2150 3084 
Q 2853 3084 3261 2657 
Q 3669 2231 3669 1497 
Q 3669 778 3244 343 
Q 2819 -91 2113 -91 
Q 1303 -91 875 529 
Q 447 1150 447 2328 
Q 447 3434 972 4092 
Q 1497 4750 2381 4750 
Q 2619 4750 2861 4703 
Q 3103 4656 3366 4563 
z
" transform="scale(0.015625)"/>
       </defs>
       <use xlink:href="#DejaVuSans-50"/>
       <use xlink:href="#DejaVuSans-2d" x="58.052734"/>
       <use xlink:href="#DejaVuSans-32" x="94.136719"/>
       <use xlink:href="#DejaVuSans-35" x="157.759766"/>
       <use xlink:href="#DejaVuSans-36" x="221.382812"/>
      </g>
     </g>
    </g>
    <g id="xtick_2">
     <g id="text_2">
      <!-- x25519 -->
      <g style="fill: #262626" transform="translate(269.724125 415.277812) scale(0.14 -0.14)">
       <defs>
        <path id="DejaVuSans-78" d="M 3513 3500 
L 2247 1797 
L 3578 0 
L 2900 0 
L 1881 1375 
L 863 0 
L 184 0 
L 1544 1831 
L 300 3500 
L 978 3500 
L 1906 2253 
L 2834 3500 
L 3513 3500 
z
" transform="scale(0.015625)"/>
        <path id="DejaVuSans-31" d="M 794 531 
L 1825 531 
L 1825 4091 
L 703 3866 
L 703 4441 
L 1819 4666 
L 2450 4666 
L 2450 531 
L 3481 531 
L 3481 0 
L 794 0 
L 794 531 
z
" transform="scale(0.015625)"/>
        <path id="DejaVuSans-39" d="M 703 97 
L 703 672 
Q 941 559 1184 500 
Q 1428 441 1663 441 
Q 2288 441 2617 861 
Q 2947 1281 2994 2138 
Q 2813 1869 2534 1725 
Q 2256 1581 1919 1581 
Q 1219 1581 811 2004 
Q 403 2428 403 3163 
Q 403 3881 828 4315 
Q 1253 4750 1959 4750 
Q 2769 4750 3195 4129 
Q 3622 3509 3622 2328 
Q 3622 1225 3098 567 
Q 2575 -91 1691 -91 
Q 1453 -91 1209 -44 
Q 966 3 703 97 
z
M 1959 2075 
Q 2384 2075 2632 2365 
Q 2881 2656 2881 3163 
Q 2881 3666 2632 3958 
Q 2384 4250 1959 4250 
Q 1534 4250 1286 3958 
Q 1038 3666 1038 3163 
Q 1038 2656 1286 2365 
Q 1534 2075 1959 2075 
z
" transform="scale(0.015625)"/>
       </defs>
       <use xlink:href="#DejaVuSans-78"/>
       <use xlink:href="#DejaVuSans-32" x="59.179688"/>
       <use xlink:href="#DejaVuSans-35" x="122.802734"/>
       <use xlink:href="#DejaVuSans-35" x="186.425781"/>
       <use xlink:href="#DejaVuSans-31" x="250.048828"/>
       <use xlink:href="#DejaVuSans-39" x="313.671875"/>
      </g>
     </g>
    </g>
    <g id="xtick_3">
     <g id="text_3">
      <!-- p256_mlkem512 -->
      <g style="fill: #262626" transform="translate(396.325156 415.277812) scale(0.14 -0.14)">
       <defs>
        <path id="DejaVuSans-70" d="M 1159 525 
L 1159 -1331 
L 581 -1331 
L 581 3500 
L 1159 3500 
L 1159 2969 
Q 1341 3281 1617 3432 
Q 1894 3584 2278 3584 
Q 2916 3584 3314 3078 
Q 3713 2572 3713 1747 
Q 3713 922 3314 415 
Q 2916 -91 2278 -91 
Q 1894 -91 1617 61 
Q 1341 213 1159 525 
z
M 3116 1747 
Q 3116 2381 2855 2742 
Q 2594 3103 2138 3103 
Q 1681 3103 1420 2742 
Q 1159 2381 1159 1747 
Q 1159 1113 1420 752 
Q 1681 391 2138 391 
Q 2594 391 2855 752 
Q 3116 1113 3116 1747 
z
" transform="scale(0.015625)"/>
        <path id="DejaVuSans-5f" d="M 3263 -1063 
L 3263 -1509 
L -63 -1509 
L -63 -1063 
L 3263 -1063 
z
" transform="scale(0.015625)"/>
        <path id="DejaVuSans-6d" d="M 3328 2828 
Q 3544 3216 3844 3400 
Q 4144 3584 4550 3584 
Q 5097 3584 5394 3201 
Q 5691 2819 5691 2113 
L 5691 0 
L 5113 0 
L 5113 2094 
Q 5113 2597 4934 2840 
Q 4756 3084 4391 3084 
Q 3944 3084 3684 2787 
Q 3425 2491 3425 1978 
L 3425 0 
L 2847 0 
L 2847 2094 
Q 2847 2600 2669 2842 
Q 2491 3084 2119 3084 
Q 1678 3084 1418 2786 
Q 1159 2488 1159 1978 
L 1159 0 
L 581 0 
L 581 3500 
L 1159 3500 
L 1159 2956 
Q 1356 3278 1631 3431 
Q 1906 3584 2284 3584 
Q 2666 3584 2933 3390 
Q 3200 3197 3328 2828 
z
" transform="scale(0.015625)"/>
        <path id="DejaVuSans-6c" d="M 603 4863 
L 1178 4863 
L 1178 0 
L 603 0 
L 603 4863 
z
" transform="scale(0.015625)"/>
        <path id="DejaVuSans-6b" d="M 581 4863 
L 1159 4863 
L 1159 1991 
L 2875 3500 
L 3609 3500 
L 1753 1863 
L 3688 0 
L 2938 0 
L 1159 1709 
L 1159 0 
L 581 0 
L 581 4863 
z
" transform="scale(0.015625)"/>
        <path id="DejaVuSans-65" d="M 3597 1894 
L 3597 1613 
L 953 1613 
Q 991 1019 1311 708 
Q 1631 397 2203 397 
Q 2534 397 2845 478 
Q 3156 559 3463 722 
L 3463 178 
Q 3153 47 2828 -22 
Q 2503 -91 2169 -91 
Q 1331 -91 842 396 
Q 353 884 353 1716 
Q 353 2575 817 3079 
Q 1281 3584 2069 3584 
Q 2775 3584 3186 3129 
Q 3597 2675 3597 1894 
z
M 3022 2063 
Q 3016 2534 2758 2815 
Q 2500 3097 2075 3097 
Q 1594 3097 1305 2825 
Q 1016 2553 972 2059 
L 3022 2063 
z
" transform="scale(0.015625)"/>
       </defs>
       <use xlink:href="#DejaVuSans-70"/>
       <use xlink:href="#DejaVuSans-32" x="63.476562"/>
       <use xlink:href="#DejaVuSans-35" x="127.099609"/>
       <use xlink:href="#DejaVuSans-36" x="190.722656"/>
       <use xlink:href="#DejaVuSans-5f" x="254.345703"/>
       <use xlink:href="#DejaVuSans-6d" x="304.345703"/>
       <use xlink:href="#DejaVuSans-6c" x="401.757812"/>
       <use xlink:href="#DejaVuSans-6b" x="429.541016"/>
       <use xlink:href="#DejaVuSans-65" x="483.826172"/>
       <use xlink:href="#DejaVuSans-6d" x="545.349609"/>
       <use xlink:href="#DejaVuSans-35" x="642.761719"/>
       <use xlink:href="#DejaVuSans-31" x="706.384766"/>
       <use xlink:href="#DejaVuSans-32" x="770.007812"/>
      </g>
     </g>
    </g>
    <g id="xtick_4">
     <g id="text_4">
      <!-- x25519_mlkem512 -->
      <g style="fill: #262626" transform="translate(546.262437 415.277812) scale(0.14 -0.14)">
       <use xlink:href="#DejaVuSans-78"/>
       <use xlink:href="#DejaVuSans-32" x="59.179688"/>
       <use xlink:href="#DejaVuSans-35" x="122.802734"/>
       <use xlink:href="#DejaVuSans-35" x="186.425781"/>
       <use xlink:href="#DejaVuSans-31" x="250.048828"/>
       <use xlink:href="#DejaVuSans-39" x="313.671875"/>
       <use xlink:href="#DejaVuSans-5f" x="377.294922"/>
       <use xlink:href="#DejaVuSans-6d" x="427.294922"/>
       <use xlink:href="#DejaVuSans-6c" x="524.707031"/>
       <use xlink:href="#DejaVuSans-6b" x="552.490234"/>
       <use xlink:href="#DejaVuSans-65" x="606.775391"/>
       <use xlink:href="#DejaVuSans-6d" x="668.298828"/>
       <use xlink:href="#DejaVuSans-35" x="765.710938"/>
       <use xlink:href="#DejaVuSans-31" x="829.333984"/>
       <use xlink:href="#DejaVuSans-32" x="892.957031"/>
      </g>
     </g>
    </g>
    <g id="xtick_5">
     <g id="text_5">
      <!-- mlkem512 -->
      <g style="fill: #262626" transform="translate(734.718312 415.277812) scale(0.14 -0.14)">
       <use xlink:href="#DejaVuSans-6d"/>
       <use xlink:href="#DejaVuSans-6c" x="97.412109"/>
       <use xlink:href="#DejaVuSans-6b" x="125.195312"/>
       <use xlink:href="#DejaVuSans-65" x="179.480469"/>
       <use xlink:href="#DejaVuSans-6d" x="241.003906"/>
       <use xlink:href="#DejaVuSans-35" x="338.416016"/>
       <use xlink:href="#DejaVuSans-31" x="402.039062"/>
       <use xlink:href="#DejaVuSans-32" x="465.662109"/>
      </g>
     </g>
    </g>
   </g>
   <g id="matplotlib.axis_2">
    <g id="ytick_1">
     <g id="line2d_1">
      <path d="M 58.32 333.255526 
L 851.04 333.255526 
" clip-path="url(#p81e5f7880e)" style="fill: none; stroke: #cccccc; stroke-linecap: round"/>
     </g>
     <g id="text_6">
      <!-- 805 -->
      <g style="fill: #262626" transform="translate(27.82375 337.434666) scale(0.11 -0.11)">
       <defs>
        <path id="DejaVuSans-38" d="M 2034 2216 
Q 1584 2216 1326 1975 
Q 1069 1734 1069 1313 
Q 1069 891 1326 650 
Q 1584 409 2034 409 
Q 2484 409 2743 651 
Q 3003 894 3003 1313 
Q 3003 1734 2745 1975 
Q 2488 2216 2034 2216 
z
M 1403 2484 
Q 997 2584 770 2862 
Q 544 3141 544 3541 
Q 544 4100 942 4425 
Q 1341 4750 2034 4750 
Q 2731 4750 3128 4425 
Q 3525 4100 3525 3541 
Q 3525 3141 3298 2862 
Q 3072 2584 2669 2484 
Q 3125 2378 3379 2068 
Q 3634 1759 3634 1313 
Q 3634 634 3220 271 
Q 2806 -91 2034 -91 
Q 1263 -91 848 271 
Q 434 634 434 1313 
Q 434 1759 690 2068 
Q 947 2378 1403 2484 
z
M 1172 3481 
Q 1172 3119 1398 2916 
Q 1625 2713 2034 2713 
Q 2441 2713 2670 2916 
Q 2900 3119 2900 3481 
Q 2900 3844 2670 4047 
Q 2441 4250 2034 4250 
Q 1625 4250 1398 4047 
Q 1172 3844 1172 3481 
z
" transform="scale(0.015625)"/>
        <path id="DejaVuSans-30" d="M 2034 4250 
Q 1547 4250 1301 3770 
Q 1056 3291 1056 2328 
Q 1056 1369 1301 889 
Q 1547 409 2034 409 
Q 2525 409 2770 889 
Q 3016 1369 3016 2328 
Q 3016 3291 2770 3770 
Q 2525 4250 2034 4250 
z
M 2034 4750 
Q 2819 4750 3233 4129 
Q 3647 3509 3647 2328 
Q 3647 1150 3233 529 
Q 2819 -91 2034 -91 
Q 1250 -91 836 529 
Q 422 1150 422 2328 
Q 422 3509 836 4129 
Q 1250 4750 2034 4750 
z
" transform="scale(0.015625)"/>
       </defs>
       <use xlink:href="#DejaVuSans-38"/>
       <use xlink:href="#DejaVuSans-30" x="63.623047"/>
       <use xlink:href="#DejaVuSans-35" x="127.246094"/>
      </g>
     </g>
    </g>
    <g id="ytick_2">
     <g id="line2d_2">
      <path d="M 58.32 262.34589 
L 851.04 262.34589 
" clip-path="url(#p81e5f7880e)" style="fill: none; stroke: #cccccc; stroke-linecap: round"/>
     </g>
     <g id="text_7">
      <!-- 810 -->
      <g style="fill: #262626" transform="translate(27.82375 266.52503) scale(0.11 -0.11)">
       <use xlink:href="#DejaVuSans-38"/>
       <use xlink:href="#DejaVuSans-31" x="63.623047"/>
       <use xlink:href="#DejaVuSans-30" x="127.246094"/>
      </g>
     </g>
    </g>
    <g id="ytick_3">
     <g id="line2d_3">
      <path d="M 58.32 191.436253 
L 851.04 191.436253 
" clip-path="url(#p81e5f7880e)" style="fill: none; stroke: #cccccc; stroke-linecap: round"/>
     </g>
     <g id="text_8">
      <!-- 815 -->
      <g style="fill: #262626" transform="translate(27.82375 195.615394) scale(0.11 -0.11)">
       <use xlink:href="#DejaVuSans-38"/>
       <use xlink:href="#DejaVuSans-31" x="63.623047"/>
       <use xlink:href="#DejaVuSans-35" x="127.246094"/>
      </g>
     </g>
    </g>
    <g id="ytick_4">
     <g id="line2d_4">
      <path d="M 58.32 120.526617 
L 851.04 120.526617 
" clip-path="url(#p81e5f7880e)" style="fill: none; stroke: #cccccc; stroke-linecap: round"/>
     </g>
     <g id="text_9">
      <!-- 820 -->
      <g style="fill: #262626" transform="translate(27.82375 124.705758) scale(0.11 -0.11)">
       <use xlink:href="#DejaVuSans-38"/>
       <use xlink:href="#DejaVuSans-32" x="63.623047"/>
       <use xlink:href="#DejaVuSans-30" x="127.246094"/>
      </g>
     </g>
    </g>
    <g id="ytick_5">
     <g id="line2d_5">
      <path d="M 58.32 49.616981 
L 851.04 49.616981 
" clip-path="url(#p81e5f7880e)" style="fill: none; stroke: #cccccc; stroke-linecap: round"/>
     </g>
     <g id="text_10">
      <!-- 825 -->
      <g style="fill: #262626" transform="translate(27.82375 53.796122) scale(0.11 -0.11)">
       <use xlink:href="#DejaVuSans-38"/>
       <use xlink:href="#DejaVuSans-32" x="63.623047"/>
       <use xlink:href="#DejaVuSans-35" x="127.246094"/>
      </g>
     </g>
    </g>
    <g id="text_11">
     <!-- Handshake duration (ms) -->
     <g style="fill: #262626" transform="translate(21.328125 287.437813) rotate(-90) scale(0.12 -0.12)">
      <defs>
       <path id="DejaVuSans-48" d="M 628 4666 
L 1259 4666 
L 1259 2753 
L 3553 2753 
L 3553 4666 
L 4184 4666 
L 4184 0 
L 3553 0 
L 3553 2222 
L 1259 2222 
L 1259 0 
L 628 0 
L 628 4666 
z
" transform="scale(0.015625)"/>
       <path id="DejaVuSans-61" d="M 2194 1759 
Q 1497 1759 1228 1600 
Q 959 1441 959 1056 
Q 959 750 1161 570 
Q 1363 391 1709 391 
Q 2188 391 2477 730 
Q 2766 1069 2766 1631 
L 2766 1759 
L 2194 1759 
z
M 3341 1997 
L 3341 0 
L 2766 0 
L 2766 531 
Q 2569 213 2275 61 
Q 1981 -91 1556 -91 
Q 1019 -91 701 211 
Q 384 513 384 1019 
Q 384 1609 779 1909 
Q 1175 2209 1959 2209 
L 2766 2209 
L 2766 2266 
Q 2766 2663 2505 2880 
Q 2244 3097 1772 3097 
Q 1472 3097 1187 3025 
Q 903 2953 641 2809 
L 641 3341 
Q 956 3463 1253 3523 
Q 1550 3584 1831 3584 
Q 2591 3584 2966 3190 
Q 3341 2797 3341 1997 
z
" transform="scale(0.015625)"/>
       <path id="DejaVuSans-6e" d="M 3513 2113 
L 3513 0 
L 2938 0 
L 2938 2094 
Q 2938 2591 2744 2837 
Q 2550 3084 2163 3084 
Q 1697 3084 1428 2787 
Q 1159 2491 1159 1978 
L 1159 0 
L 581 0 
L 581 3500 
L 1159 3500 
L 1159 2956 
Q 1366 3272 1645 3428 
Q 1925 3584 2291 3584 
Q 2894 3584 3203 3211 
Q 3513 2838 3513 2113 
z
" transform="scale(0.015625)"/>
       <path id="DejaVuSans-64" d="M 2906 2969 
L 2906 4863 
L 3481 4863 
L 3481 0 
L 2906 0 
L 2906 525 
Q 2725 213 2448 61 
Q 2172 -91 1784 -91 
Q 1150 -91 751 415 
Q 353 922 353 1747 
Q 353 2572 751 3078 
Q 1150 3584 1784 3584 
Q 2172 3584 2448 3432 
Q 2725 3281 2906 2969 
z
M 947 1747 
Q 947 1113 1208 752 
Q 1469 391 1925 391 
Q 2381 391 2643 752 
Q 2906 1113 2906 1747 
Q 2906 2381 2643 2742 
Q 2381 3103 1925 3103 
Q 1469 3103 1208 2742 
Q 947 2381 947 1747 
z
" transform="scale(0.015625)"/>
       <path id="DejaVuSans-73" d="M 2834 3397 
L 2834 2853 
Q 2591 2978 2328 3040 
Q 2066 3103 1784 3103 
Q 1356 3103 1142 2972 
Q 928 2841 928 2578 
Q 928 2378 1081 2264 
Q 1234 2150 1697 2047 
L 1894 2003 
Q 2506 1872 2764 1633 
Q 3022 1394 3022 966 
Q 3022 478 2636 193 
Q 2250 -91 1575 -91 
Q 1294 -91 989 -36 
Q 684 19 347 128 
L 347 722 
Q 666 556 975 473 
Q 1284 391 1588 391 
Q 1994 391 2212 530 
Q 2431 669 2431 922 
Q 2431 1156 2273 1281 
Q 2116 1406 1581 1522 
L 1381 1569 
Q 847 1681 609 1914 
Q 372 2147 372 2553 
Q 372 3047 722 3315 
Q 1072 3584 1716 3584 
Q 2034 3584 2315 3537 
Q 2597 3491 2834 3397 
z
" transform="scale(0.015625)"/>
       <path id="DejaVuSans-68" d="M 3513 2113 
L 3513 0 
L 2938 0 
L 2938 2094 
Q 2938 2591 2744 2837 
Q 2550 3084 2163 3084 
Q 1697 3084 1428 2787 
Q 1159 2491 1159 1978 
L 1159 0 
L 581 0 
L 581 4863 
L 1159 4863 
L 1159 2956 
Q 1366 3272 1645 3428 
Q 1925 3584 2291 3584 
Q 2894 3584 3203 3211 
Q 3513 2838 3513 2113 
z
" transform="scale(0.015625)"/>
       <path id="DejaVuSans-20" transform="scale(0.015625)"/>
       <path id="DejaVuSans-75" d="M 544 1381 
L 544 3500 
L 1119 3500 
L 1119 1403 
Q 1119 906 1312 657 
Q 1506 409 1894 409 
Q 2359 409 2629 706 
Q 2900 1003 2900 1516 
L 2900 3500 
L 3475 3500 
L 3475 0 
L 2900 0 
L 2900 538 
Q 2691 219 2414 64 
Q 2138 -91 1772 -91 
Q 1169 -91 856 284 
Q 544 659 544 1381 
z
M 1991 3584 
L 1991 3584 
z
" transform="scale(0.015625)"/>
       <path id="DejaVuSans-72" d="M 2631 2963 
Q 2534 3019 2420 3045 
Q 2306 3072 2169 3072 
Q 1681 3072 1420 2755 
Q 1159 2438 1159 1844 
L 1159 0 
L 581 0 
L 581 3500 
L 1159 3500 
L 1159 2956 
Q 1341 3275 1631 3429 
Q 1922 3584 2338 3584 
Q 2397 3584 2469 3576 
Q 2541 3569 2628 3553 
L 2631 2963 
z
" transform="scale(0.015625)"/>
       <path id="DejaVuSans-74" d="M 1172 4494 
L 1172 3500 
L 2356 3500 
L 2356 3053 
L 1172 3053 
L 1172 1153 
Q 1172 725 1289 603 
Q 1406 481 1766 481 
L 2356 481 
L 2356 0 
L 1766 0 
Q 1100 0 847 248 
Q 594 497 594 1153 
L 594 3053 
L 172 3053 
L 172 3500 
L 594 3500 
L 594 4494 
L 1172 4494 
z
" transform="scale(0.015625)"/>
       <path id="DejaVuSans-69" d="M 603 3500 
L 1178 3500 
L 1178 0 
L 603 0 
L 603 3500 
z
M 603 4863 
L 1178 4863 
L 1178 4134 
L 603 4134 
L 603 4863 
z
" transform="scale(0.015625)"/>
       <path id="DejaVuSans-6f" d="M 1959 3097 
Q 1497 3097 1228 2736 
Q 959 2375 959 1747 
Q 959 1119 1226 758 
Q 1494 397 1959 397 
Q 2419 397 2687 759 
Q 2956 1122 2956 1747 
Q 2956 2369 2687 2733 
Q 2419 3097 1959 3097 
z
M 1959 3584 
Q 2709 3584 3137 3096 
Q 3566 2609 3566 1747 
Q 3566 888 3137 398 
Q 2709 -91 1959 -91 
Q 1206 -91 779 398 
Q 353 888 353 1747 
Q 353 2609 779 3096 
Q 1206 3584 1959 3584 
z
" transform="scale(0.015625)"/>
       <path id="DejaVuSans-28" d="M 1984 4856 
Q 1566 4138 1362 3434 
Q 1159 2731 1159 2009 
Q 1159 1288 1364 580 
Q 1569 -128 1984 -844 
L 1484 -844 
Q 1016 -109 783 600 
Q 550 1309 550 2009 
Q 550 2706 781 3412 
Q 1013 4119 1484 4856 
L 1984 4856 
z
" transform="scale(0.015625)"/>
       <path id="DejaVuSans-29" d="M 513 4856 
L 1013 4856 
Q 1481 4119 1714 3412 
Q 1947 2706 1947 2009 
Q 1947 1309 1714 600 
Q 1481 -109 1013 -844 
L 513 -844 
Q 928 -128 1133 580 
Q 1338 1288 1338 2009 
Q 1338 2731 1133 3434 
Q 928 4138 513 4856 
z
" transform="scale(0.015625)"/>
      </defs>
      <use xlink:href="#DejaVuSans-48"/>
      <use xlink:href="#DejaVuSans-61" x="75.195312"/>
      <use xlink:href="#DejaVuSans-6e" x="136.474609"/>
      <use xlink:href="#DejaVuSans-64" x="199.853516"/>
      <use xlink:href="#DejaVuSans-73" x="263.330078"/>
      <use xlink:href="#DejaVuSans-68" x="315.429688"/>
      <use xlink:href="#DejaVuSans-61" x="378.808594"/>
      <use xlink:href="#DejaVuSans-6b" x="440.087891"/>
      <use xlink:href="#DejaVuSans-65" x="494.373047"/>
      <use xlink:href="#DejaVuSans-20" x="555.896484"/>
      <use xlink:href="#DejaVuSans-64" x="587.683594"/>
      <use xlink:href="#DejaVuSans-75" x="651.160156"/>
      <use xlink:href="#DejaVuSans-72" x="714.539062"/>
      <use xlink:href="#DejaVuSans-61" x="755.652344"/>
      <use xlink:href="#DejaVuSans-74" x="816.931641"/>
      <use xlink:href="#DejaVuSans-69" x="856.140625"/>
      <use xlink:href="#DejaVuSans-6f" x="883.923828"/>
      <use xlink:href="#DejaVuSans-6e" x="945.105469"/>
      <use xlink:href="#DejaVuSans-20" x="1008.484375"/>
      <use xlink:href="#DejaVuSans-28" x="1040.271484"/>
      <use xlink:href="#DejaVuSans-6d" x="1079.285156"/>
      <use xlink:href="#DejaVuSans-73" x="1176.697266"/>
      <use xlink:href="#DejaVuSans-29" x="1228.796875"/>
     </g>
    </g>
   </g>
   <g id="PolyCollection_1">
    <defs>
     <path id="mfe42e5a3ae" d="M 138.292543 -67.121244 
L 136.891457 -67.121244 
L 136.123467 -67.56814 
L 134.74291 -68.015035 
L 132.463288 -68.461931 
L 129.00241 -68.908827 
L 124.168133 -69.355723 
L 117.952523 -69.802618 
L 110.59624 -70.249514 
L 102.587294 -70.69641 
L 94.582867 -71.143306 
L 87.278644 -71.590201 
L 81.275081 -72.037097 
L 76.987234 -72.483993 
L 74.61695 -72.930889 
L 74.1744 -73.377784 
L 75.521351 -73.82468 
L 78.414971 -74.271576 
L 82.54479 -74.718472 
L 87.562004 -75.165367 
L 93.099177 -75.612263 
L 98.780008 -76.059159 
L 104.228464 -76.506054 
L 109.094315 -76.95295 
L 113.103749 -77.399846 
L 116.119943 -77.846742 
L 118.179153 -78.293637 
L 119.473411 -78.740533 
L 120.280673 -79.187429 
L 120.874708 -79.634325 
L 121.456218 -80.08122 
L 122.129231 -80.528116 
L 122.918994 -80.975012 
L 123.80947 -81.421908 
L 124.777823 -81.868803 
L 125.81333 -82.315699 
L 126.918728 -82.762595 
L 128.09829 -83.209491 
L 129.340559 -83.656386 
L 130.606079 -84.103282 
L 131.829357 -84.550178 
L 132.936975 -84.997073 
L 133.872725 -85.443969 
L 134.614542 -85.890865 
L 135.173279 -86.337761 
L 135.576708 -86.784656 
L 135.852273 -87.231552 
L 136.020729 -87.678448 
L 136.102033 -88.125344 
L 136.12472 -88.572239 
L 136.128394 -89.019135 
L 136.155633 -89.466031 
L 136.238077 -89.912927 
L 136.385253 -90.359822 
L 136.582335 -90.806718 
L 136.797371 -91.253614 
L 136.99382 -91.70051 
L 137.142794 -92.147405 
L 137.230902 -92.594301 
L 137.26215 -93.041197 
L 137.254362 -93.488093 
L 137.23169 -93.934988 
L 137.215582 -94.381884 
L 137.217274 -94.82878 
L 137.234905 -95.275675 
L 137.256704 -95.722571 
L 137.268835 -96.169467 
L 137.26386 -96.616363 
L 137.245343 -97.063258 
L 137.226217 -97.510154 
L 137.222046 -97.95705 
L 137.243146 -98.403946 
L 137.289935 -98.850841 
L 137.353638 -99.297737 
L 137.421195 -99.744633 
L 137.481038 -100.191529 
L 137.52669 -100.638424 
L 137.557158 -101.08532 
L 137.575055 -101.532216 
L 137.584157 -101.979112 
L 137.587577 -102.426007 
L 137.586819 -102.872903 
L 137.581428 -103.319799 
L 137.568917 -103.766694 
L 137.545005 -104.21359 
L 137.504514 -104.660486 
L 137.443195 -105.107382 
L 137.360277 -105.554277 
L 137.260735 -106.001173 
L 137.155961 -106.448069 
L 137.061985 -106.894965 
L 136.995566 -107.34186 
L 136.969539 -107.788756 
L 136.989115 -108.235652 
L 137.050366 -108.682548 
L 137.141366 -109.129443 
L 137.245641 -109.576339 
L 137.346778 -110.023235 
L 137.432549 -110.470131 
L 137.497047 -110.917026 
L 137.540342 -111.363922 
L 137.643658 -111.363922 
L 137.643658 -111.363922 
L 137.686953 -110.917026 
L 137.751451 -110.470131 
L 137.837222 -110.023235 
L 137.938359 -109.576339 
L 138.042634 -109.129443 
L 138.133634 -108.682548 
L 138.194885 -108.235652 
L 138.214461 -107.788756 
L 138.188434 -107.34186 
L 138.122015 -106.894965 
L 138.028039 -106.448069 
L 137.923265 -106.001173 
L 137.823723 -105.554277 
L 137.740805 -105.107382 
L 137.679486 -104.660486 
L 137.638995 -104.21359 
L 137.615083 -103.766694 
L 137.602572 -103.319799 
L 137.597181 -102.872903 
L 137.596423 -102.426007 
L 137.599843 -101.979112 
L 137.608945 -101.532216 
L 137.626842 -101.08532 
L 137.65731 -100.638424 
L 137.702962 -100.191529 
L 137.762805 -99.744633 
L 137.830362 -99.297737 
L 137.894065 -98.850841 
L 137.940854 -98.403946 
L 137.961954 -97.95705 
L 137.957783 -97.510154 
L 137.938657 -97.063258 
L 137.92014 -96.616363 
L 137.915165 -96.169467 
L 137.927296 -95.722571 
L 137.949095 -95.275675 
L 137.966726 -94.82878 
L 137.968418 -94.381884 
L 137.95231 -93.934988 
L 137.929638 -93.488093 
L 137.92185 -93.041197 
L 137.953098 -92.594301 
L 138.041206 -92.147405 
L 138.19018 -91.70051 
L 138.386629 -91.253614 
L 138.601665 -90.806718 
L 138.798747 -90.359822 
L 138.945923 -89.912927 
L 139.028367 -89.466031 
L 139.055606 -89.019135 
L 139.05928 -88.572239 
L 139.081967 -88.125344 
L 139.163271 -87.678448 
L 139.331727 -87.231552 
L 139.607292 -86.784656 
L 140.010721 -86.337761 
L 140.569458 -85.890865 
L 141.311275 -85.443969 
L 142.247025 -84.997073 
L 143.354643 -84.550178 
L 144.577921 -84.103282 
L 145.843441 -83.656386 
L 147.08571 -83.209491 
L 148.265272 -82.762595 
L 149.37067 -82.315699 
L 150.406177 -81.868803 
L 151.37453 -81.421908 
L 152.265006 -80.975012 
L 153.054769 -80.528116 
L 153.727782 -80.08122 
L 154.309292 -79.634325 
L 154.903327 -79.187429 
L 155.710589 -78.740533 
L 157.004847 -78.293637 
L 159.064057 -77.846742 
L 162.080251 -77.399846 
L 166.089685 -76.95295 
L 170.955536 -76.506054 
L 176.403992 -76.059159 
L 182.084823 -75.612263 
L 187.621996 -75.165367 
L 192.63921 -74.718472 
L 196.769029 -74.271576 
L 199.662649 -73.82468 
L 201.0096 -73.377784 
L 200.56705 -72.930889 
L 198.196766 -72.483993 
L 193.908919 -72.037097 
L 187.905356 -71.590201 
L 180.601133 -71.143306 
L 172.596706 -70.69641 
L 164.58776 -70.249514 
L 157.231477 -69.802618 
L 151.015867 -69.355723 
L 146.18159 -68.908827 
L 142.720712 -68.461931 
L 140.44109 -68.015035 
L 139.060533 -67.56814 
L 138.292543 -67.121244 
z
" style="stroke: #595959; stroke-width: 1.25"/>
    </defs>
    <g clip-path="url(#p81e5f7880e)">
     <use xlink:href="#mfe42e5a3ae" x="0" y="432" style="fill: #72b6a1; stroke: #595959; stroke-width: 1.25"/>
    </g>
   </g>
   <g id="PolyCollection_2">
    <defs>
     <path id="m9f78abac5c" d="M 296.496557 -63.210098 
L 295.775443 -63.210098 
L 295.453197 -63.512534 
L 294.920184 -63.81497 
L 294.094609 -64.117406 
L 292.892621 -64.419842 
L 291.239074 -64.722278 
L 289.075503 -65.024714 
L 286.362054 -65.32715 
L 283.074004 -65.629586 
L 279.198096 -65.932022 
L 274.735734 -66.234458 
L 269.71696 -66.536894 
L 264.222293 -66.83933 
L 258.403207 -67.141766 
L 252.490603 -67.444202 
L 246.784995 -67.746638 
L 241.629437 -68.049074 
L 237.371906 -68.35151 
L 234.325049 -68.653946 
L 232.728801 -68.956382 
L 232.7184 -69.258818 
L 234.299996 -69.561254 
L 237.338334 -69.86369 
L 241.563243 -70.166126 
L 246.599947 -70.468562 
L 252.021379 -70.770998 
L 257.411576 -71.073434 
L 262.423326 -71.37587 
L 266.814648 -71.678306 
L 270.457058 -71.980742 
L 273.319324 -72.283178 
L 275.438156 -72.585614 
L 276.888904 -72.88805 
L 277.765714 -73.190486 
L 278.17442 -73.492922 
L 278.235412 -73.795358 
L 278.089446 -74.097794 
L 277.897778 -74.40023 
L 277.829959 -74.702666 
L 278.038322 -75.005102 
L 278.625834 -75.307538 
L 279.619772 -75.609974 
L 280.96382 -75.91241 
L 282.534409 -76.214846 
L 284.176504 -76.517282 
L 285.745364 -76.819718 
L 287.138818 -77.122154 
L 288.310195 -77.42459 
L 289.261514 -77.727026 
L 290.024613 -78.029462 
L 290.640842 -78.331898 
L 291.147369 -78.634334 
L 291.572653 -78.93677 
L 291.938488 -79.239206 
L 292.263658 -79.541642 
L 292.565283 -79.844078 
L 292.856983 -80.146514 
L 293.14594 -80.44895 
L 293.431883 -80.751386 
L 293.709546 -81.053822 
L 293.97351 -81.356258 
L 294.222474 -81.658694 
L 294.460292 -81.96113 
L 294.693249 -82.263566 
L 294.925498 -82.566002 
L 295.155577 -82.868438 
L 295.376031 -83.170874 
L 295.57611 -83.47331 
L 295.745812 -83.775746 
L 295.879114 -84.078182 
L 295.975087 -84.380618 
L 296.036883 -84.683054 
L 296.06958 -84.98549 
L 296.07811 -85.287926 
L 296.066181 -85.590362 
L 296.036492 -85.892798 
L 295.991948 -86.195234 
L 295.937125 -86.49767 
L 295.879067 -86.800106 
L 295.82666 -87.102542 
L 295.788459 -87.404978 
L 295.769635 -87.707414 
L 295.769363 -88.00985 
L 295.779993 -88.312286 
L 295.788764 -88.614722 
L 295.781769 -88.917158 
L 295.748951 -89.219594 
L 295.68839 -89.52203 
L 295.608237 -89.824466 
L 295.525282 -90.126902 
L 295.460311 -90.429338 
L 295.431681 -90.731774 
L 295.449468 -91.03421 
L 295.512482 -91.336646 
L 295.609266 -91.639082 
L 295.722441 -91.941518 
L 295.834335 -92.243954 
L 295.931604 -92.54639 
L 296.00737 -92.848826 
L 296.060819 -93.151262 
L 296.211181 -93.151262 
L 296.211181 -93.151262 
L 296.26463 -92.848826 
L 296.340396 -92.54639 
L 296.437665 -92.243954 
L 296.549559 -91.941518 
L 296.662734 -91.639082 
L 296.759518 -91.336646 
L 296.822532 -91.03421 
L 296.840319 -90.731774 
L 296.811689 -90.429338 
L 296.746718 -90.126902 
L 296.663763 -89.824466 
L 296.58361 -89.52203 
L 296.523049 -89.219594 
L 296.490231 -88.917158 
L 296.483236 -88.614722 
L 296.492007 -88.312286 
L 296.502637 -88.00985 
L 296.502365 -87.707414 
L 296.483541 -87.404978 
L 296.44534 -87.102542 
L 296.392933 -86.800106 
L 296.334875 -86.49767 
L 296.280052 -86.195234 
L 296.235508 -85.892798 
L 296.205819 -85.590362 
L 296.19389 -85.287926 
L 296.20242 -84.98549 
L 296.235117 -84.683054 
L 296.296913 -84.380618 
L 296.392886 -84.078182 
L 296.526188 -83.775746 
L 296.69589 -83.47331 
L 296.895969 -83.170874 
L 297.116423 -82.868438 
L 297.346502 -82.566002 
L 297.578751 -82.263566 
L 297.811708 -81.96113 
L 298.049526 -81.658694 
L 298.29849 -81.356258 
L 298.562454 -81.053822 
L 298.840117 -80.751386 
L 299.12606 -80.44895 
L 299.415017 -80.146514 
L 299.706717 -79.844078 
L 300.008342 -79.541642 
L 300.333512 -79.239206 
L 300.699347 -78.93677 
L 301.124631 -78.634334 
L 301.631158 -78.331898 
L 302.247387 -78.029462 
L 303.010486 -77.727026 
L 303.961805 -77.42459 
L 305.133182 -77.122154 
L 306.526636 -76.819718 
L 308.095496 -76.517282 
L 309.737591 -76.214846 
L 311.30818 -75.91241 
L 312.652228 -75.609974 
L 313.646166 -75.307538 
L 314.233678 -75.005102 
L 314.442041 -74.702666 
L 314.374222 -74.40023 
L 314.182554 -74.097794 
L 314.036588 -73.795358 
L 314.09758 -73.492922 
L 314.506286 -73.190486 
L 315.383096 -72.88805 
L 316.833844 -72.585614 
L 318.952676 -72.283178 
L 321.814942 -71.980742 
L 325.457352 -71.678306 
L 329.848674 -71.37587 
L 334.860424 -71.073434 
L 340.250621 -70.770998 
L 345.672053 -70.468562 
L 350.708757 -70.166126 
L 354.933666 -69.86369 
L 357.972004 -69.561254 
L 359.5536 -69.258818 
L 359.543199 -68.956382 
L 357.946951 -68.653946 
L 354.900094 -68.35151 
L 350.642563 -68.049074 
L 345.487005 -67.746638 
L 339.781397 -67.444202 
L 333.868793 -67.141766 
L 328.049707 -66.83933 
L 322.55504 -66.536894 
L 317.536266 -66.234458 
L 313.073904 -65.932022 
L 309.197996 -65.629586 
L 305.909946 -65.32715 
L 303.196497 -65.024714 
L 301.032926 -64.722278 
L 299.379379 -64.419842 
L 298.177391 -64.117406 
L 297.351816 -63.81497 
L 296.818803 -63.512534 
L 296.496557 -63.210098 
z
" style="stroke: #595959; stroke-width: 1.25"/>
    </defs>
    <g clip-path="url(#p81e5f7880e)">
     <use xlink:href="#m9f78abac5c" x="0" y="432" style="fill: #e99675; stroke: #595959; stroke-width: 1.25"/>
    </g>
   </g>
   <g id="PolyCollection_3">
    <defs>
     <path id="md0a90ba14f" d="M 457.693237 -132.292337 
L 451.666763 -132.292337 
L 449.48416 -134.872148 
L 446.194032 -137.45196 
L 441.55092 -140.031771 
L 435.434409 -142.611582 
L 427.944712 -145.191393 
L 419.474669 -147.771204 
L 410.721572 -150.351015 
L 402.61308 -152.930826 
L 396.148339 -155.510637 
L 392.189233 -158.090448 
L 391.2624 -160.670259 
L 393.436038 -163.250071 
L 398.312354 -165.829882 
L 405.135711 -168.409693 
L 412.976306 -170.989504 
L 420.927298 -173.569315 
L 428.257368 -176.149126 
L 434.485793 -178.728937 
L 439.379216 -181.308748 
L 442.894471 -183.888559 
L 445.102068 -186.46837 
L 446.120593 -189.048182 
L 446.079194 -191.627993 
L 445.110399 -194.207804 
L 443.363994 -196.787615 
L 441.026968 -199.367426 
L 438.334942 -201.947237 
L 435.565832 -204.527048 
L 433.014595 -207.106859 
L 430.955787 -209.68667 
L 429.605266 -212.266481 
L 429.092224 -214.846293 
L 429.448211 -217.426104 
L 430.613547 -220.005915 
L 432.456516 -222.585726 
L 434.79876 -225.165537 
L 437.441298 -227.745348 
L 440.187828 -230.325159 
L 442.863767 -232.90497 
L 445.330226 -235.484781 
L 447.492145 -238.064592 
L 449.300035 -240.644404 
L 450.745621 -243.224215 
L 451.852858 -245.804026 
L 452.666669 -248.383837 
L 453.241917 -250.963648 
L 453.634452 -253.543459 
L 453.895037 -256.12327 
L 454.065988 -258.703081 
L 454.179846 -261.282892 
L 454.259323 -263.862704 
L 454.317993 -266.442515 
L 454.361471 -269.022326 
L 454.388974 -271.602137 
L 454.3952 -274.181948 
L 454.372411 -276.761759 
L 454.312581 -279.34157 
L 454.209445 -281.921381 
L 454.060293 -284.501192 
L 453.867321 -287.081003 
L 453.638295 -289.660815 
L 453.386338 -292.240626 
L 453.128732 -294.820437 
L 452.884879 -297.400248 
L 452.673738 -299.980059 
L 452.511277 -302.55987 
L 452.408447 -305.139681 
L 452.370098 -307.719492 
L 452.395017 -310.299303 
L 452.476979 -312.879114 
L 452.606454 -315.458926 
L 452.772464 -318.038737 
L 452.964077 -320.618548 
L 453.171243 -323.198359 
L 453.384954 -325.77817 
L 453.597001 -328.357981 
L 453.799716 -330.937792 
L 453.985984 -333.517603 
L 454.149604 -336.097414 
L 454.285826 -338.677225 
L 454.39182 -341.257037 
L 454.466877 -343.836848 
L 454.512334 -346.416659 
L 454.53131 -348.99647 
L 454.528416 -351.576281 
L 454.509498 -354.156092 
L 454.481321 -356.735903 
L 454.451085 -359.315714 
L 454.425673 -361.895525 
L 454.410701 -364.475336 
L 454.409615 -367.055148 
L 454.423142 -369.634959 
L 454.449346 -372.21477 
L 454.484286 -374.794581 
L 454.523109 -377.374392 
L 454.561187 -379.954203 
L 454.595003 -382.534014 
L 454.62256 -385.113825 
L 454.643332 -387.693636 
L 454.716668 -387.693636 
L 454.716668 -387.693636 
L 454.73744 -385.113825 
L 454.764997 -382.534014 
L 454.798813 -379.954203 
L 454.836891 -377.374392 
L 454.875714 -374.794581 
L 454.910654 -372.21477 
L 454.936858 -369.634959 
L 454.950385 -367.055148 
L 454.949299 -364.475336 
L 454.934327 -361.895525 
L 454.908915 -359.315714 
L 454.878679 -356.735903 
L 454.850502 -354.156092 
L 454.831584 -351.576281 
L 454.82869 -348.99647 
L 454.847666 -346.416659 
L 454.893123 -343.836848 
L 454.96818 -341.257037 
L 455.074174 -338.677225 
L 455.210396 -336.097414 
L 455.374016 -333.517603 
L 455.560284 -330.937792 
L 455.762999 -328.357981 
L 455.975046 -325.77817 
L 456.188757 -323.198359 
L 456.395923 -320.618548 
L 456.587536 -318.038737 
L 456.753546 -315.458926 
L 456.883021 -312.879114 
L 456.964983 -310.299303 
L 456.989902 -307.719492 
L 456.951553 -305.139681 
L 456.848723 -302.55987 
L 456.686262 -299.980059 
L 456.475121 -297.400248 
L 456.231268 -294.820437 
L 455.973662 -292.240626 
L 455.721705 -289.660815 
L 455.492679 -287.081003 
L 455.299707 -284.501192 
L 455.150555 -281.921381 
L 455.047419 -279.34157 
L 454.987589 -276.761759 
L 454.9648 -274.181948 
L 454.971026 -271.602137 
L 454.998529 -269.022326 
L 455.042007 -266.442515 
L 455.100677 -263.862704 
L 455.180154 -261.282892 
L 455.294012 -258.703081 
L 455.464963 -256.12327 
L 455.725548 -253.543459 
L 456.118083 -250.963648 
L 456.693331 -248.383837 
L 457.507142 -245.804026 
L 458.614379 -243.224215 
L 460.059965 -240.644404 
L 461.867855 -238.064592 
L 464.029774 -235.484781 
L 466.496233 -232.90497 
L 469.172172 -230.325159 
L 471.918702 -227.745348 
L 474.56124 -225.165537 
L 476.903484 -222.585726 
L 478.746453 -220.005915 
L 479.911789 -217.426104 
L 480.267776 -214.846293 
L 479.754734 -212.266481 
L 478.404213 -209.68667 
L 476.345405 -207.106859 
L 473.794168 -204.527048 
L 471.025058 -201.947237 
L 468.333032 -199.367426 
L 465.996006 -196.787615 
L 464.249601 -194.207804 
L 463.280806 -191.627993 
L 463.239407 -189.048182 
L 464.257932 -186.46837 
L 466.465529 -183.888559 
L 469.980784 -181.308748 
L 474.874207 -178.728937 
L 481.102632 -176.149126 
L 488.432702 -173.569315 
L 496.383694 -170.989504 
L 504.224289 -168.409693 
L 511.047646 -165.829882 
L 515.923962 -163.250071 
L 518.0976 -160.670259 
L 517.170767 -158.090448 
L 513.211661 -155.510637 
L 506.74692 -152.930826 
L 498.638428 -150.351015 
L 489.885331 -147.771204 
L 481.415288 -145.191393 
L 473.925591 -142.611582 
L 467.80908 -140.031771 
L 463.165968 -137.45196 
L 459.87584 -134.872148 
L 457.693237 -132.292337 
z
" style="stroke: #595959; stroke-width: 1.25"/>
    </defs>
    <g clip-path="url(#p81e5f7880e)">
     <use xlink:href="#md0a90ba14f" x="0" y="432" style="fill: #95a3c3; stroke: #595959; stroke-width: 1.25"/>
    </g>
   </g>
   <g id="PolyCollection_4">
    <defs>
     <path id="m484bc1abe7" d="M 613.707601 -73.077139 
L 612.740399 -73.077139 
L 612.422358 -73.485367 
L 611.938499 -73.893595 
L 611.227839 -74.301823 
L 610.21922 -74.710051 
L 608.834563 -75.11828 
L 606.994099 -75.526508 
L 604.623509 -75.934736 
L 601.662629 -76.342964 
L 598.075274 -76.751192 
L 593.859473 -77.15942 
L 589.057204 -77.567648 
L 583.762345 -77.975877 
L 578.125158 -78.384105 
L 572.351419 -78.792333 
L 566.694456 -79.200561 
L 561.439185 -79.608789 
L 556.878594 -80.017017 
L 553.284947 -80.425246 
L 550.879604 -80.833474 
L 549.8064 -81.241702 
L 550.113452 -81.64993 
L 551.747058 -82.058158 
L 554.559162 -82.466386 
L 558.32728 -82.874614 
L 562.783281 -83.282843 
L 567.645839 -83.691071 
L 572.650784 -84.099299 
L 577.574447 -84.507527 
L 582.246894 -84.915755 
L 586.55443 -85.323983 
L 590.433144 -85.732211 
L 593.856934 -86.14044 
L 596.824069 -86.548668 
L 599.345732 -86.956896 
L 601.438571 -87.365124 
L 603.121596 -87.773352 
L 604.41626 -88.18158 
L 605.347886 -88.589809 
L 605.946632 -88.998037 
L 606.246865 -89.406265 
L 606.284854 -89.814493 
L 606.095523 -90.222721 
L 605.709587 -90.630949 
L 605.152339 -91.039177 
L 604.444891 -91.447406 
L 603.60784 -91.855634 
L 602.666438 -92.263862 
L 601.655686 -92.67209 
L 600.623554 -93.080318 
L 599.630854 -93.488546 
L 598.747136 -93.896774 
L 598.043062 -94.305003 
L 597.580765 -94.713231 
L 597.404374 -95.121459 
L 597.53301 -95.529687 
L 597.95798 -95.937915 
L 598.644869 -96.346143 
L 599.540007 -96.754372 
L 600.579668 -97.1626 
L 601.699786 -97.570828 
L 602.844001 -97.979056 
L 603.968554 -98.387284 
L 605.043541 -98.795512 
L 606.051159 -99.20374 
L 606.982247 -99.611969 
L 607.832652 -100.020197 
L 608.600567 -100.428425 
L 609.285313 -100.836653 
L 609.88733 -101.244881 
L 610.408697 -101.653109 
L 610.853441 -102.061337 
L 611.227174 -102.469566 
L 611.536082 -102.877794 
L 611.78566 -103.286022 
L 611.979751 -103.69425 
L 612.120377 -104.102478 
L 612.208505 -104.510706 
L 612.245567 -104.918935 
L 612.235218 -105.327163 
L 612.184759 -105.735391 
L 612.105678 -106.143619 
L 612.013061 -106.551847 
L 611.923926 -106.960075 
L 611.854845 -107.368303 
L 611.81944 -107.776532 
L 611.826352 -108.18476 
L 611.878149 -108.592988 
L 611.971392 -109.001216 
L 612.097754 -109.409444 
L 612.24585 -109.817672 
L 612.403317 -110.2259 
L 612.558693 -110.634129 
L 612.702777 -111.042357 
L 612.829332 -111.450585 
L 612.935156 -111.858813 
L 613.019692 -112.267041 
L 613.084358 -112.675269 
L 613.1318 -113.083498 
L 613.165216 -113.491726 
L 613.282784 -113.491726 
L 613.282784 -113.491726 
L 613.3162 -113.083498 
L 613.363642 -112.675269 
L 613.428308 -112.267041 
L 613.512844 -111.858813 
L 613.618668 -111.450585 
L 613.745223 -111.042357 
L 613.889307 -110.634129 
L 614.044683 -110.2259 
L 614.20215 -109.817672 
L 614.350246 -109.409444 
L 614.476608 -109.001216 
L 614.569851 -108.592988 
L 614.621648 -108.18476 
L 614.62856 -107.776532 
L 614.593155 -107.368303 
L 614.524074 -106.960075 
L 614.434939 -106.551847 
L 614.342322 -106.143619 
L 614.263241 -105.735391 
L 614.212782 -105.327163 
L 614.202433 -104.918935 
L 614.239495 -104.510706 
L 614.327623 -104.102478 
L 614.468249 -103.69425 
L 614.66234 -103.286022 
L 614.911918 -102.877794 
L 615.220826 -102.469566 
L 615.594559 -102.061337 
L 616.039303 -101.653109 
L 616.56067 -101.244881 
L 617.162687 -100.836653 
L 617.847433 -100.428425 
L 618.615348 -100.020197 
L 619.465753 -99.611969 
L 620.396841 -99.20374 
L 621.404459 -98.795512 
L 622.479446 -98.387284 
L 623.603999 -97.979056 
L 624.748214 -97.570828 
L 625.868332 -97.1626 
L 626.907993 -96.754372 
L 627.803131 -96.346143 
L 628.49002 -95.937915 
L 628.91499 -95.529687 
L 629.043626 -95.121459 
L 628.867235 -94.713231 
L 628.404938 -94.305003 
L 627.700864 -93.896774 
L 626.817146 -93.488546 
L 625.824446 -93.080318 
L 624.792314 -92.67209 
L 623.781562 -92.263862 
L 622.84016 -91.855634 
L 622.003109 -91.447406 
L 621.295661 -91.039177 
L 620.738413 -90.630949 
L 620.352477 -90.222721 
L 620.163146 -89.814493 
L 620.201135 -89.406265 
L 620.501368 -88.998037 
L 621.100114 -88.589809 
L 622.03174 -88.18158 
L 623.326404 -87.773352 
L 625.009429 -87.365124 
L 627.102268 -86.956896 
L 629.623931 -86.548668 
L 632.591066 -86.14044 
L 636.014856 -85.732211 
L 639.89357 -85.323983 
L 644.201106 -84.915755 
L 648.873553 -84.507527 
L 653.797216 -84.099299 
L 658.802161 -83.691071 
L 663.664719 -83.282843 
L 668.12072 -82.874614 
L 671.888838 -82.466386 
L 674.700942 -82.058158 
L 676.334548 -81.64993 
L 676.6416 -81.241702 
L 675.568396 -80.833474 
L 673.163053 -80.425246 
L 669.569406 -80.017017 
L 665.008815 -79.608789 
L 659.753544 -79.200561 
L 654.096581 -78.792333 
L 648.322842 -78.384105 
L 642.685655 -77.975877 
L 637.390796 -77.567648 
L 632.588527 -77.15942 
L 628.372726 -76.751192 
L 624.785371 -76.342964 
L 621.824491 -75.934736 
L 619.453901 -75.526508 
L 617.613437 -75.11828 
L 616.22878 -74.710051 
L 615.220161 -74.301823 
L 614.509501 -73.893595 
L 614.025642 -73.485367 
L 613.707601 -73.077139 
z
" style="stroke: #595959; stroke-width: 1.25"/>
    </defs>
    <g clip-path="url(#p81e5f7880e)">
     <use xlink:href="#m484bc1abe7" x="0" y="432" style="fill: #db96c0; stroke: #595959; stroke-width: 1.25"/>
    </g>
   </g>
   <g id="PolyCollection_5">
    <defs>
     <path id="mae7706bb9d" d="M 771.867812 -53.566364 
L 771.668188 -53.566364 
L 771.548312 -53.873098 
L 771.33264 -54.179832 
L 770.979186 -54.486566 
L 770.435525 -54.7933 
L 769.625828 -55.100034 
L 768.437491 -55.406768 
L 766.727397 -55.713502 
L 764.359172 -56.020236 
L 761.253963 -56.32697 
L 757.416963 -56.633704 
L 752.917242 -56.940438 
L 747.839562 -57.247172 
L 742.256277 -57.553906 
L 736.256533 -57.86064 
L 730.020736 -58.167374 
L 723.875695 -58.474108 
L 718.264574 -58.780842 
L 713.635753 -59.087576 
L 710.33134 -59.39431 
L 708.547336 -59.701044 
L 708.3504 -60.007778 
L 709.684408 -60.314512 
L 712.348261 -60.621246 
L 715.997945 -60.92798 
L 720.218594 -61.234714 
L 724.641587 -61.541448 
L 729.038104 -61.848182 
L 733.338946 -62.154916 
L 737.574332 -62.461651 
L 741.765926 -62.768385 
L 745.833548 -63.075119 
L 749.58395 -63.381853 
L 752.801995 -63.688587 
L 755.385029 -63.995321 
L 757.419083 -64.302055 
L 759.13636 -64.608789 
L 760.783206 -64.915523 
L 762.488879 -65.222257 
L 764.214904 -65.528991 
L 765.804158 -65.835725 
L 767.088777 -66.142459 
L 767.989916 -66.449193 
L 768.555152 -66.755927 
L 768.919979 -67.062661 
L 769.226273 -67.369395 
L 769.552985 -67.676129 
L 769.898069 -67.982863 
L 770.211713 -68.289597 
L 770.449432 -68.596331 
L 770.607008 -68.903065 
L 770.716934 -69.209799 
L 770.815397 -69.516533 
L 770.910281 -69.823267 
L 770.977743 -70.130001 
L 770.989687 -70.436735 
L 770.947782 -70.743469 
L 770.893977 -71.050203 
L 770.887263 -71.356937 
L 770.965123 -71.663671 
L 771.120538 -71.970405 
L 771.310654 -72.27714 
L 771.485969 -72.583874 
L 771.615442 -72.890608 
L 771.692439 -73.197342 
L 771.724867 -73.504076 
L 771.722084 -73.81081 
L 771.688306 -74.117544 
L 771.624859 -74.424278 
L 771.53796 -74.731012 
L 771.445241 -75.037746 
L 771.374071 -75.34448 
L 771.349981 -75.651214 
L 771.382361 -75.957948 
L 771.458708 -76.264682 
L 771.552347 -76.571416 
L 771.637279 -76.87815 
L 771.699113 -77.184884 
L 771.736441 -77.491618 
L 771.75543 -77.798352 
L 771.763647 -78.105086 
L 771.766684 -78.41182 
L 771.767626 -78.718554 
L 771.767774 -79.025288 
L 771.767371 -79.332022 
L 771.765788 -79.638756 
L 771.761079 -79.94549 
L 771.749157 -80.252224 
L 771.7234 -80.558958 
L 771.676222 -80.865692 
L 771.603814 -81.172426 
L 771.512649 -81.47916 
L 771.422746 -81.785894 
L 771.362173 -82.092628 
L 771.353289 -82.399363 
L 771.399574 -82.706097 
L 771.483452 -83.012831 
L 771.576943 -83.319565 
L 771.656475 -83.626299 
L 771.711405 -83.933033 
L 771.824595 -83.933033 
L 771.824595 -83.933033 
L 771.879525 -83.626299 
L 771.959057 -83.319565 
L 772.052548 -83.012831 
L 772.136426 -82.706097 
L 772.182711 -82.399363 
L 772.173827 -82.092628 
L 772.113254 -81.785894 
L 772.023351 -81.47916 
L 771.932186 -81.172426 
L 771.859778 -80.865692 
L 771.8126 -80.558958 
L 771.786843 -80.252224 
L 771.774921 -79.94549 
L 771.770212 -79.638756 
L 771.768629 -79.332022 
L 771.768226 -79.025288 
L 771.768374 -78.718554 
L 771.769316 -78.41182 
L 771.772353 -78.105086 
L 771.78057 -77.798352 
L 771.799559 -77.491618 
L 771.836887 -77.184884 
L 771.898721 -76.87815 
L 771.983653 -76.571416 
L 772.077292 -76.264682 
L 772.153639 -75.957948 
L 772.186019 -75.651214 
L 772.161929 -75.34448 
L 772.090759 -75.037746 
L 771.99804 -74.731012 
L 771.911141 -74.424278 
L 771.847694 -74.117544 
L 771.813916 -73.81081 
L 771.811133 -73.504076 
L 771.843561 -73.197342 
L 771.920558 -72.890608 
L 772.050031 -72.583874 
L 772.225346 -72.27714 
L 772.415462 -71.970405 
L 772.570877 -71.663671 
L 772.648737 -71.356937 
L 772.642023 -71.050203 
L 772.588218 -70.743469 
L 772.546313 -70.436735 
L 772.558257 -70.130001 
L 772.625719 -69.823267 
L 772.720603 -69.516533 
L 772.819066 -69.209799 
L 772.928992 -68.903065 
L 773.086568 -68.596331 
L 773.324287 -68.289597 
L 773.637931 -67.982863 
L 773.983015 -67.676129 
L 774.309727 -67.369395 
L 774.616021 -67.062661 
L 774.980848 -66.755927 
L 775.546084 -66.449193 
L 776.447223 -66.142459 
L 777.731842 -65.835725 
L 779.321096 -65.528991 
L 781.047121 -65.222257 
L 782.752794 -64.915523 
L 784.39964 -64.608789 
L 786.116917 -64.302055 
L 788.150971 -63.995321 
L 790.734005 -63.688587 
L 793.95205 -63.381853 
L 797.702452 -63.075119 
L 801.770074 -62.768385 
L 805.961668 -62.461651 
L 810.197054 -62.154916 
L 814.497896 -61.848182 
L 818.894413 -61.541448 
L 823.317406 -61.234714 
L 827.538055 -60.92798 
L 831.187739 -60.621246 
L 833.851592 -60.314512 
L 835.1856 -60.007778 
L 834.988664 -59.701044 
L 833.20466 -59.39431 
L 829.900247 -59.087576 
L 825.271426 -58.780842 
L 819.660305 -58.474108 
L 813.515264 -58.167374 
L 807.279467 -57.86064 
L 801.279723 -57.553906 
L 795.696438 -57.247172 
L 790.618758 -56.940438 
L 786.119037 -56.633704 
L 782.282037 -56.32697 
L 779.176828 -56.020236 
L 776.808603 -55.713502 
L 775.098509 -55.406768 
L 773.910172 -55.100034 
L 773.100475 -54.7933 
L 772.556814 -54.486566 
L 772.20336 -54.179832 
L 771.987688 -53.873098 
L 771.867812 -53.566364 
z
" style="stroke: #595959; stroke-width: 1.25"/>
    </defs>
    <g clip-path="url(#p81e5f7880e)">
     <use xlink:href="#mae7706bb9d" x="0" y="432" style="fill: #a2c865; stroke: #595959; stroke-width: 1.25"/>
    </g>
   </g>
   <g id="line2d_6">
    <path d="M 137.592 359.492091 
L 137.592 362.044838 
" clip-path="url(#p81e5f7880e)" style="fill: none; stroke: #000000"/>
   </g>
   <g id="line2d_7">
    <path d="M 137.592 355.308423 
L 137.592 349.139284 
" clip-path="url(#p81e5f7880e)" style="fill: none; stroke: #000000"/>
   </g>
   <g id="line2d_8">
    <path d="M 131.6466 362.044838 
L 143.5374 362.044838 
" clip-path="url(#p81e5f7880e)" style="fill: none; stroke: #000000; stroke-linecap: round"/>
   </g>
   <g id="line2d_9">
    <path d="M 131.6466 349.139284 
L 143.5374 349.139284 
" clip-path="url(#p81e5f7880e)" style="fill: none; stroke: #000000; stroke-linecap: round"/>
   </g>
   <g id="line2d_10">
    <path d="M 296.136 363.60485 
L 296.136 366.583055 
" clip-path="url(#p81e5f7880e)" style="fill: none; stroke: #000000"/>
   </g>
   <g id="line2d_11">
    <path d="M 296.136 359.63391 
L 296.136 353.677501 
" clip-path="url(#p81e5f7880e)" style="fill: none; stroke: #000000"/>
   </g>
   <g id="line2d_12">
    <path d="M 290.1906 366.583055 
L 302.0814 366.583055 
" clip-path="url(#p81e5f7880e)" style="fill: none; stroke: #000000; stroke-linecap: round"/>
   </g>
   <g id="line2d_13">
    <path d="M 290.1906 353.677501 
L 302.0814 353.677501 
" clip-path="url(#p81e5f7880e)" style="fill: none; stroke: #000000; stroke-linecap: round"/>
   </g>
   <g id="line2d_14">
    <path d="M 454.68 273.265974 
L 454.68 278.087829 
" clip-path="url(#p81e5f7880e)" style="fill: none; stroke: #000000"/>
   </g>
   <g id="line2d_15">
    <path d="M 454.68 221.218301 
L 454.68 168.74517 
" clip-path="url(#p81e5f7880e)" style="fill: none; stroke: #000000"/>
   </g>
   <g id="line2d_16">
    <path d="M 448.7346 278.087829 
L 460.6254 278.087829 
" clip-path="url(#p81e5f7880e)" style="fill: none; stroke: #000000; stroke-linecap: round"/>
   </g>
   <g id="line2d_17">
    <path d="M 448.7346 168.74517 
L 460.6254 168.74517 
" clip-path="url(#p81e5f7880e)" style="fill: none; stroke: #000000; stroke-linecap: round"/>
   </g>
   <g id="line2d_18">
    <path d="M 613.224 351.408393 
L 613.224 354.953874 
" clip-path="url(#p81e5f7880e)" style="fill: none; stroke: #000000"/>
   </g>
   <g id="line2d_19">
    <path d="M 613.224 345.310164 
L 613.224 336.23373 
" clip-path="url(#p81e5f7880e)" style="fill: none; stroke: #000000"/>
   </g>
   <g id="line2d_20">
    <path d="M 607.2786 354.953874 
L 619.1694 354.953874 
" clip-path="url(#p81e5f7880e)" style="fill: none; stroke: #000000; stroke-linecap: round"/>
   </g>
   <g id="line2d_21">
    <path d="M 607.2786 336.23373 
L 619.1694 336.23373 
" clip-path="url(#p81e5f7880e)" style="fill: none; stroke: #000000; stroke-linecap: round"/>
   </g>
   <g id="line2d_22">
    <path d="M 771.768 372.964922 
L 771.768 376.794042 
" clip-path="url(#p81e5f7880e)" style="fill: none; stroke: #000000"/>
   </g>
   <g id="line2d_23">
    <path d="M 771.768 370.128537 
L 771.768 366.299416 
" clip-path="url(#p81e5f7880e)" style="fill: none; stroke: #000000"/>
   </g>
   <g id="line2d_24">
    <path d="M 765.8226 376.794042 
L 777.7134 376.794042 
" clip-path="url(#p81e5f7880e)" style="fill: none; stroke: #000000; stroke-linecap: round"/>
   </g>
   <g id="line2d_25">
    <path d="M 765.8226 366.299416 
L 777.7134 366.299416 
" clip-path="url(#p81e5f7880e)" style="fill: none; stroke: #000000; stroke-linecap: round"/>
   </g>
   <g id="line2d_26">
    <path d="M 125.7012 357.79026 
L 149.4828 357.79026 
" clip-path="url(#p81e5f7880e)" style="fill: none; stroke: #ff0000; stroke-width: 2"/>
   </g>
   <g id="line2d_27">
    <path d="M 284.2452 362.186657 
L 308.0268 362.186657 
" clip-path="url(#p81e5f7880e)" style="fill: none; stroke: #ff0000; stroke-width: 2"/>
   </g>
   <g id="line2d_28">
    <path d="M 442.7892 269.578672 
L 466.5708 269.578672 
" clip-path="url(#p81e5f7880e)" style="fill: none; stroke: #ff0000; stroke-width: 2"/>
   </g>
   <g id="line2d_29">
    <path d="M 601.3332 349.706561 
L 625.1148 349.706561 
" clip-path="url(#p81e5f7880e)" style="fill: none; stroke: #ff0000; stroke-width: 2"/>
   </g>
   <g id="line2d_30">
    <path d="M 759.8772 371.830368 
L 783.6588 371.830368 
" clip-path="url(#p81e5f7880e)" style="fill: none; stroke: #ff0000; stroke-width: 2"/>
   </g>
   <g id="patch_3">
    <path d="M 58.32 395.14 
L 58.32 27.6 
" style="fill: none; stroke: #cccccc; stroke-width: 1.25; stroke-linejoin: miter; stroke-linecap: square"/>
   </g>
   <g id="patch_4">
    <path d="M 851.04 395.14 
L 851.04 27.6 
" style="fill: none; stroke: #cccccc; stroke-width: 1.25; stroke-linejoin: miter; stroke-linecap: square"/>
   </g>
   <g id="patch_5">
    <path d="M 58.32 395.14 
L 851.04 395.14 
" style="fill: none; stroke: #cccccc; stroke-width: 1.25; stroke-linejoin: miter; stroke-linecap: square"/>
   </g>
   <g id="patch_6">
    <path d="M 58.32 27.6 
L 851.04 27.6 
" style="fill: none; stroke: #cccccc; stroke-width: 1.25; stroke-linejoin: miter; stroke-linecap: square"/>
   </g>
   <g id="text_12">
    <!-- Handshake duration on QUIC with mldsa44 signature algorithm — Degraded (200ms/10%) -->
    <g style="fill: #262626" transform="translate(182.723437 21.6) scale(0.12 -0.12)">
     <defs>
      <path id="DejaVuSans-51" d="M 2522 4238 
Q 1834 4238 1429 3725 
Q 1025 3213 1025 2328 
Q 1025 1447 1429 934 
Q 1834 422 2522 422 
Q 3209 422 3611 934 
Q 4013 1447 4013 2328 
Q 4013 3213 3611 3725 
Q 3209 4238 2522 4238 
z
M 3406 84 
L 4238 -825 
L 3475 -825 
L 2784 -78 
Q 2681 -84 2626 -87 
Q 2572 -91 2522 -91 
Q 1538 -91 948 567 
Q 359 1225 359 2328 
Q 359 3434 948 4092 
Q 1538 4750 2522 4750 
Q 3503 4750 4090 4092 
Q 4678 3434 4678 2328 
Q 4678 1516 4351 937 
Q 4025 359 3406 84 
z
" transform="scale(0.015625)"/>
      <path id="DejaVuSans-55" d="M 556 4666 
L 1191 4666 
L 1191 1831 
Q 1191 1081 1462 751 
Q 1734 422 2344 422 
Q 2950 422 3222 751 
Q 3494 1081 3494 1831 
L 3494 4666 
L 4128 4666 
L 4128 1753 
Q 4128 841 3676 375 
Q 3225 -91 2344 -91 
Q 1459 -91 1007 375 
Q 556 841 556 1753 
L 556 4666 
z
" transform="scale(0.015625)"/>
      <path id="DejaVuSans-49" d="M 628 4666 
L 1259 4666 
L 1259 0 
L 628 0 
L 628 4666 
z
" transform="scale(0.015625)"/>
      <path id="DejaVuSans-43" d="M 4122 4306 
L 4122 3641 
Q 3803 3938 3442 4084 
Q 3081 4231 2675 4231 
Q 1875 4231 1450 3742 
Q 1025 3253 1025 2328 
Q 1025 1406 1450 917 
Q 1875 428 2675 428 
Q 3081 428 3442 575 
Q 3803 722 4122 1019 
L 4122 359 
Q 3791 134 3420 21 
Q 3050 -91 2638 -91 
Q 1578 -91 968 557 
Q 359 1206 359 2328 
Q 359 3453 968 4101 
Q 1578 4750 2638 4750 
Q 3056 4750 3426 4639 
Q 3797 4528 4122 4306 
z
" transform="scale(0.015625)"/>
      <path id="DejaVuSans-77" d="M 269 3500 
L 844 3500 
L 1563 769 
L 2278 3500 
L 2956 3500 
L 3675 769 
L 4391 3500 
L 4966 3500 
L 4050 0 
L 3372 0 
L 2619 2869 
L 1863 0 
L 1184 0 
L 269 3500 
z
" transform="scale(0.015625)"/>
      <path id="DejaVuSans-34" d="M 2419 4116 
L 825 1625 
L 2419 1625 
L 2419 4116 
z
M 2253 4666 
L 3047 4666 
L 3047 1625 
L 3713 1625 
L 3713 1100 
L 3047 1100 
L 3047 0 
L 2419 0 
L 2419 1100 
L 313 1100 
L 313 1709 
L 2253 4666 
z
" transform="scale(0.015625)"/>
      <path id="DejaVuSans-67" d="M 2906 1791 
Q 2906 2416 2648 2759 
Q 2391 3103 1925 3103 
Q 1463 3103 1205 2759 
Q 947 2416 947 1791 
Q 947 1169 1205 825 
Q 1463 481 1925 481 
Q 2391 481 2648 825 
Q 2906 1169 2906 1791 
z
M 3481 434 
Q 3481 -459 3084 -895 
Q 2688 -1331 1869 -1331 
Q 1566 -1331 1297 -1286 
Q 1028 -1241 775 -1147 
L 775 -588 
Q 1028 -725 1275 -790 
Q 1522 -856 1778 -856 
Q 2344 -856 2625 -561 
Q 2906 -266 2906 331 
L 2906 616 
Q 2728 306 2450 153 
Q 2172 0 1784 0 
Q 1141 0 747 490 
Q 353 981 353 1791 
Q 353 2603 747 3093 
Q 1141 3584 1784 3584 
Q 2172 3584 2450 3431 
Q 2728 3278 2906 2969 
L 2906 3500 
L 3481 3500 
L 3481 434 
z
" transform="scale(0.015625)"/>
      <path id="DejaVuSans-2014" d="M 313 1978 
L 6088 1978 
L 6088 1528 
L 313 1528 
L 313 1978 
z
" transform="scale(0.015625)"/>
      <path id="DejaVuSans-44" d="M 1259 4147 
L 1259 519 
L 2022 519 
Q 2988 519 3436 956 
Q 3884 1394 3884 2338 
Q 3884 3275 3436 3711 
Q 2988 4147 2022 4147 
L 1259 4147 
z
M 628 4666 
L 1925 4666 
Q 3281 4666 3915 4102 
Q 4550 3538 4550 2338 
Q 4550 1131 3912 565 
Q 3275 0 1925 0 
L 628 0 
L 628 4666 
z
" transform="scale(0.015625)"/>
      <path id="DejaVuSans-2f" d="M 1625 4666 
L 2156 4666 
L 531 -594 
L 0 -594 
L 1625 4666 
z
" transform="scale(0.015625)"/>
      <path id="DejaVuSans-25" d="M 4653 2053 
Q 4381 2053 4226 1822 
Q 4072 1591 4072 1178 
Q 4072 772 4226 539 
Q 4381 306 4653 306 
Q 4919 306 5073 539 
Q 5228 772 5228 1178 
Q 5228 1588 5073 1820 
Q 4919 2053 4653 2053 
z
M 4653 2450 
Q 5147 2450 5437 2106 
Q 5728 1763 5728 1178 
Q 5728 594 5436 251 
Q 5144 -91 4653 -91 
Q 4153 -91 3862 251 
Q 3572 594 3572 1178 
Q 3572 1766 3864 2108 
Q 4156 2450 4653 2450 
z
M 1428 4353 
Q 1159 4353 1004 4120 
Q 850 3888 850 3481 
Q 850 3069 1003 2837 
Q 1156 2606 1428 2606 
Q 1700 2606 1854 2837 
Q 2009 3069 2009 3481 
Q 2009 3884 1853 4118 
Q 1697 4353 1428 4353 
z
M 4250 4750 
L 4750 4750 
L 1831 -91 
L 1331 -91 
L 4250 4750 
z
M 1428 4750 
Q 1922 4750 2215 4408 
Q 2509 4066 2509 3481 
Q 2509 2891 2217 2550 
Q 1925 2209 1428 2209 
Q 931 2209 642 2551 
Q 353 2894 353 3481 
Q 353 4063 643 4406 
Q 934 4750 1428 4750 
z
" transform="scale(0.015625)"/>
     </defs>
     <use xlink:href="#DejaVuSans-48"/>
     <use xlink:href="#DejaVuSans-61" x="75.195312"/>
     <use xlink:href="#DejaVuSans-6e" x="136.474609"/>
     <use xlink:href="#DejaVuSans-64" x="199.853516"/>
     <use xlink:href="#DejaVuSans-73" x="263.330078"/>
     <use xlink:href="#DejaVuSans-68" x="315.429688"/>
     <use xlink:href="#DejaVuSans-61" x="378.808594"/>
     <use xlink:href="#DejaVuSans-6b" x="440.087891"/>
     <use xlink:href="#DejaVuSans-65" x="494.373047"/>
     <use xlink:href="#DejaVuSans-20" x="555.896484"/>
     <use xlink:href="#DejaVuSans-64" x="587.683594"/>
     <use xlink:href="#DejaVuSans-75" x="651.160156"/>
     <use xlink:href="#DejaVuSans-72" x="714.539062"/>
     <use xlink:href="#DejaVuSans-61" x="755.652344"/>
     <use xlink:href="#DejaVuSans-74" x="816.931641"/>
     <use xlink:href="#DejaVuSans-69" x="856.140625"/>
     <use xlink:href="#DejaVuSans-6f" x="883.923828"/>
     <use xlink:href="#DejaVuSans-6e" x="945.105469"/>
     <use xlink:href="#DejaVuSans-20" x="1008.484375"/>
     <use xlink:href="#DejaVuSans-6f" x="1040.271484"/>
     <use xlink:href="#DejaVuSans-6e" x="1101.453125"/>
     <use xlink:href="#DejaVuSans-20" x="1164.832031"/>
     <use xlink:href="#DejaVuSans-51" x="1196.619141"/>
     <use xlink:href="#DejaVuSans-55" x="1275.330078"/>
     <use xlink:href="#DejaVuSans-49" x="1348.523438"/>
     <use xlink:href="#DejaVuSans-43" x="1378.015625"/>
     <use xlink:href="#DejaVuSans-20" x="1447.839844"/>
     <use xlink:href="#DejaVuSans-77" x="1479.626953"/>
     <use xlink:href="#DejaVuSans-69" x="1561.414062"/>
     <use xlink:href="#DejaVuSans-74" x="1589.197266"/>
     <use xlink:href="#DejaVuSans-68" x="1628.40625"/>
     <use xlink:href="#DejaVuSans-20" x="1691.785156"/>
     <use xlink:href="#DejaVuSans-6d" x="1723.572266"/>
     <use xlink:href="#DejaVuSans-6c" x="1820.984375"/>
     <use xlink:href="#DejaVuSans-64" x="1848.767578"/>
     <use xlink:href="#DejaVuSans-73" x="1912.244141"/>
     <use xlink:href="#DejaVuSans-61" x="1964.34375"/>
     <use xlink:href="#DejaVuSans-34" x="2025.623047"/>
     <use xlink:href="#DejaVuSans-34" x="2089.246094"/>
     <use xlink:href="#DejaVuSans-20" x="2152.869141"/>
     <use xlink:href="#DejaVuSans-73" x="2184.65625"/>
     <use xlink:href="#DejaVuSans-69" x="2236.755859"/>
     <use xlink:href="#DejaVuSans-67" x="2264.539062"/>
     <use xlink:href="#DejaVuSans-6e" x="2328.015625"/>
     <use xlink:href="#DejaVuSans-61" x="2391.394531"/>
     <use xlink:href="#DejaVuSans-74" x="2452.673828"/>
     <use xlink:href="#DejaVuSans-75" x="2491.882812"/>
     <use xlink:href="#DejaVuSans-72" x="2555.261719"/>
     <use xlink:href="#DejaVuSans-65" x="2594.125"/>
     <use xlink:href="#DejaVuSans-20" x="2655.648438"/>
     <use xlink:href="#DejaVuSans-61" x="2687.435547"/>
     <use xlink:href="#DejaVuSans-6c" x="2748.714844"/>
     <use xlink:href="#DejaVuSans-67" x="2776.498047"/>
     <use xlink:href="#DejaVuSans-6f" x="2839.974609"/>
     <use xlink:href="#DejaVuSans-72" x="2901.15625"/>
     <use xlink:href="#DejaVuSans-69" x="2942.269531"/>
     <use xlink:href="#DejaVuSans-74" x="2970.052734"/>
     <use xlink:href="#DejaVuSans-68" x="3009.261719"/>
     <use xlink:href="#DejaVuSans-6d" x="3072.640625"/>
     <use xlink:href="#DejaVuSans-20" x="3170.052734"/>
     <use xlink:href="#DejaVuSans-2014" x="3201.839844"/>
     <use xlink:href="#DejaVuSans-20" x="3301.839844"/>
     <use xlink:href="#DejaVuSans-44" x="3333.626953"/>
     <use xlink:href="#DejaVuSans-65" x="3410.628906"/>
     <use xlink:href="#DejaVuSans-67" x="3472.152344"/>
     <use xlink:href="#DejaVuSans-72" x="3535.628906"/>
     <use xlink:href="#DejaVuSans-61" x="3576.742188"/>
     <use xlink:href="#DejaVuSans-64" x="3638.021484"/>
     <use xlink:href="#DejaVuSans-65" x="3701.498047"/>
     <use xlink:href="#DejaVuSans-64" x="3763.021484"/>
     <use xlink:href="#DejaVuSans-20" x="3826.498047"/>
     <use xlink:href="#DejaVuSans-28" x="3858.285156"/>
     <use xlink:href="#DejaVuSans-32" x="3897.298828"/>
     <use xlink:href="#DejaVuSans-30" x="3960.921875"/>
     <use xlink:href="#DejaVuSans-30" x="4024.544922"/>
     <use xlink:href="#DejaVuSans-6d" x="4088.167969"/>
     <use xlink:href="#DejaVuSans-73" x="4185.580078"/>
     <use xlink:href="#DejaVuSans-2f" x="4237.679688"/>
     <use xlink:href="#DejaVuSans-31" x="4271.371094"/>
     <use xlink:href="#DejaVuSans-30" x="4334.994141"/>
     <use xlink:href="#DejaVuSans-25" x="4398.617188"/>
     <use xlink:href="#DejaVuSans-29" x="4493.636719"/>
    </g>
   </g>
  </g>
 </g>
 <defs>
  <clipPath id="p81e5f7880e">
   <rect x="58.32" y="27.6" width="792.72" height="367.54"/>
  </clipPath>
 </defs>
</svg>
