<?xml version="1.0" encoding="utf-8" standalone="no"?>
<!DOCTYPE svg PUBLIC "-//W3C//DTD SVG 1.1//EN"
  "http://www.w3.org/Graphics/SVG/1.1/DTD/svg11.dtd">
<svg xmlns:xlink="http://www.w3.org/1999/xlink" width="864pt" height="432pt" viewBox="0 0 864 432" xmlns="http://www.w3.org/2000/svg" version="1.1">
 <metadata>
  <rdf:RDF xmlns:dc="http://purl.org/dc/elements/1.1/" xmlns:cc="http://creativecommons.org/ns#" xmlns:rdf="http://www.w3.org/1999/02/22-rdf-syntax-ns#">
   <cc:Work>
    <dc:type rdf:resource="http://purl.org/dc/dcmitype/StillImage"/>
    <dc:date>2026-03-21T13:58:48.739374</dc:date>
    <dc:format>image/svg+xml</dc:format>
    <dc:creator>
     <cc:Agent>
      <dc:title>Matplotlib v3.6.3, https://matplotlib.org/</dc:title>
     </cc:Agent>
    </dc:creator>
   </cc:Work>
  </rdf:RDF>
 </metadata>
 <defs>
  <style type="text/css">*{stroke-linejoin: round; stroke-linecap: butt}</style>
 </defs>
 <g id="figure_1">
  <g id="patch_1">
   <path d="M 0 432 
L 864 432 
L 864 0 
L 0 0 
z
" style="fill: #ffffff"/>
  </g>
  <g id="axes_1">
   <g id="patch_2">
    <path d="M 58.32 395.14 
L 851.04 395.14 
L 851.04 27.6 
L 58.32 27.6 
z
" style="fill: #ffffff"/>
   </g>
   <g id="matplotlib.axis_1">
    <g id="xtick_1">
     <g id="text_1">
      <!-- P-384 -->
      <g style="fill: #262626" transform="translate(117.642 415.277812) scale(0.14 -0.14)">
       <defs>
        <path id="DejaVuSans-50" d="M 1259 4147 
L 1259 2394 
L 2053 2394 
Q 2494 2394 2734 2622 
Q 2975 2850 2975 3272 
Q 2975 3691 2734 3919 
Q 2494 4147 2053 4147 
L 1259 4147 
z
M 628 4666 
L 2053 4666 
Q 2838 4666 3239 4311 
Q 3641 3956 3641 3272 
Q 3641 2581 3239 2228 
Q 2838 1875 2053 1875 
L 1259 1875 
L 1259 0 
L 628 0 
L 628 4666 
z
" transform="scale(0.015625)"/>
        <path id="DejaVuSans-2d" d="M 313 2009 
L 1997 2009 
L 1997 1497 
L 313 1497 
L 313 2009 
z
" transform="scale(0.015625)"/>
        <path id="DejaVuSans-33" d="M 2597 2516 
Q 3050 2419 3304 2112 
Q 3559 1806 3559 1356 
Q 3559 666 3084 287 
Q 2609 -91 1734 -91 
Q 1441 -91 1130 -33 
Q 819 25 488 141 
L 488 750 
Q 750 597 1062 519 
Q 1375 441 1716 441 
Q 2309 441 2620 675 
Q 2931 909 2931 1356 
Q 2931 1769 2642 2001 
Q 2353 2234 1838 2234 
L 1294 2234 
L 1294 2753 
L 1863 2753 
Q 2328 2753 2575 2939 
Q 2822 3125 2822 3475 
Q 2822 3834 2567 4026 
Q 2313 4219 1838 4219 
Q 1578 4219 1281 4162 
Q 984 4106 628 3988 
L 628 4550 
Q 988 4650 1302 4700 
Q 1616 4750 1894 4750 
Q 2613 4750 3031 4423 
Q 3450 4097 3450 3541 
Q 3450 3153 3228 2886 
Q 3006 2619 2597 2516 
z
" transform="scale(0.015625)"/>
        <path id="DejaVuSans-38" d="M 2034 2216 
Q 1584 2216 1326 1975 
Q 1069 1734 1069 1313 
Q 1069 891 1326 650 
Q 1584 409 2034 409 
Q 2484 409 2743 651 
Q 3003 894 3003 1313 
Q 3003 1734 2745 1975 
Q 2488 2216 2034 2216 
z
M 1403 2484 
Q 997 2584 770 2862 
Q 544 3141 544 3541 
Q 544 4100 942 4425 
Q 1341 4750 2034 4750 
Q 2731 4750 3128 4425 
Q 3525 4100 3525 3541 
Q 3525 3141 3298 2862 
Q 3072 2584 2669 2484 
Q 3125 2378 3379 2068 
Q 3634 1759 3634 1313 
Q 3634 634 3220 271 
Q 2806 -91 2034 -91 
Q 1263 -91 848 271 
Q 434 634 434 1313 
Q 434 1759 690 2068 
Q 947 2378 1403 2484 
z
M 1172 3481 
Q 1172 3119 1398 2916 
Q 1625 2713 2034 2713 
Q 2441 2713 2670 2916 
Q 2900 3119 2900 3481 
Q 2900 3844 2670 4047 
Q 2441 4250 2034 4250 
Q 1625 4250 1398 4047 
Q 1172 3844 1172 3481 
z
" transform="scale(0.015625)"/>
        <path id="DejaVuSans-34" d="M 2419 4116 
L 825 1625 
L 2419 1625 
L 2419 4116 
z
M 2253 4666 
L 3047 4666 
L 3047 1625 
L 3713 1625 
L 3713 1100 
L 3047 1100 
L 3047 0 
L 2419 0 
L 2419 1100 
L 313 1100 
L 313 1709 
L 2253 4666 
z
" transform="scale(0.015625)"/>
       </defs>
       <use xlink:href="#DejaVuSans-50"/>
       <use xlink:href="#DejaVuSans-2d" x="58.052734"/>
       <use xlink:href="#DejaVuSans-33" x="94.136719"/>
       <use xlink:href="#DejaVuSans-38" x="157.759766"/>
       <use xlink:href="#DejaVuSans-34" x="221.382812"/>
      </g>
     </g>
    </g>
    <g id="xtick_2">
     <g id="text_2">
      <!-- x448 -->
      <g style="fill: #262626" transform="translate(278.631625 415.277812) scale(0.14 -0.14)">
       <defs>
        <path id="DejaVuSans-78" d="M 3513 3500 
L 2247 1797 
L 3578 0 
L 2900 0 
L 1881 1375 
L 863 0 
L 184 0 
L 1544 1831 
L 300 3500 
L 978 3500 
L 1906 2253 
L 2834 3500 
L 3513 3500 
z
" transform="scale(0.015625)"/>
       </defs>
       <use xlink:href="#DejaVuSans-78"/>
       <use xlink:href="#DejaVuSans-34" x="59.179688"/>
       <use xlink:href="#DejaVuSans-34" x="122.802734"/>
       <use xlink:href="#DejaVuSans-38" x="186.425781"/>
      </g>
     </g>
    </g>
    <g id="xtick_3">
     <g id="text_3">
      <!-- p384_mlkem768 -->
      <g style="fill: #262626" transform="translate(396.325156 415.277812) scale(0.14 -0.14)">
       <defs>
        <path id="DejaVuSans-70" d="M 1159 525 
L 1159 -1331 
L 581 -1331 
L 581 3500 
L 1159 3500 
L 1159 2969 
Q 1341 3281 1617 3432 
Q 1894 3584 2278 3584 
Q 2916 3584 3314 3078 
Q 3713 2572 3713 1747 
Q 3713 922 3314 415 
Q 2916 -91 2278 -91 
Q 1894 -91 1617 61 
Q 1341 213 1159 525 
z
M 3116 1747 
Q 3116 2381 2855 2742 
Q 2594 3103 2138 3103 
Q 1681 3103 1420 2742 
Q 1159 2381 1159 1747 
Q 1159 1113 1420 752 
Q 1681 391 2138 391 
Q 2594 391 2855 752 
Q 3116 1113 3116 1747 
z
" transform="scale(0.015625)"/>
        <path id="DejaVuSans-5f" d="M 3263 -1063 
L 3263 -1509 
L -63 -1509 
L -63 -1063 
L 3263 -1063 
z
" transform="scale(0.015625)"/>
        <path id="DejaVuSans-6d" d="M 3328 2828 
Q 3544 3216 3844 3400 
Q 4144 3584 4550 3584 
Q 5097 3584 5394 3201 
Q 5691 2819 5691 2113 
L 5691 0 
L 5113 0 
L 5113 2094 
Q 5113 2597 4934 2840 
Q 4756 3084 4391 3084 
Q 3944 3084 3684 2787 
Q 3425 2491 3425 1978 
L 3425 0 
L 2847 0 
L 2847 2094 
Q 2847 2600 2669 2842 
Q 2491 3084 2119 3084 
Q 1678 3084 1418 2786 
Q 1159 2488 1159 1978 
L 1159 0 
L 581 0 
L 581 3500 
L 1159 3500 
L 1159 2956 
Q 1356 3278 1631 3431 
Q 1906 3584 2284 3584 
Q 2666 3584 2933 3390 
Q 3200 3197 3328 2828 
z
" transform="scale(0.015625)"/>
        <path id="DejaVuSans-6c" d="M 603 4863 
L 1178 4863 
L 1178 0 
L 603 0 
L 603 4863 
z
" transform="scale(0.015625)"/>
        <path id="DejaVuSans-6b" d="M 581 4863 
L 1159 4863 
L 1159 1991 
L 2875 3500 
L 3609 3500 
L 1753 1863 
L 3688 0 
L 2938 0 
L 1159 1709 
L 1159 0 
L 581 0 
L 581 4863 
z
" transform="scale(0.015625)"/>
        <path id="DejaVuSans-65" d="M 3597 1894 
L 3597 1613 
L 953 1613 
Q 991 1019 1311 708 
Q 1631 397 2203 397 
Q 2534 397 2845 478 
Q 3156 559 3463 722 
L 3463 178 
Q 3153 47 2828 -22 
Q 2503 -91 2169 -91 
Q 1331 -91 842 396 
Q 353 884 353 1716 
Q 353 2575 817 3079 
Q 1281 3584 2069 3584 
Q 2775 3584 3186 3129 
Q 3597 2675 3597 1894 
z
M 3022 2063 
Q 3016 2534 2758 2815 
Q 2500 3097 2075 3097 
Q 1594 3097 1305 2825 
Q 1016 2553 972 2059 
L 3022 2063 
z
" transform="scale(0.015625)"/>
        <path id="DejaVuSans-37" d="M 525 4666 
L 3525 4666 
L 3525 4397 
L 1831 0 
L 1172 0 
L 2766 4134 
L 525 4134 
L 525 4666 
z
" transform="scale(0.015625)"/>
        <path id="DejaVuSans-36" d="M 2113 2584 
Q 1688 2584 1439 2293 
Q 1191 2003 1191 1497 
Q 1191 994 1439 701 
Q 1688 409 2113 409 
Q 2538 409 2786 701 
Q 3034 994 3034 1497 
Q 3034 2003 2786 2293 
Q 2538 2584 2113 2584 
z
M 3366 4563 
L 3366 3988 
Q 3128 4100 2886 4159 
Q 2644 4219 2406 4219 
Q 1781 4219 1451 3797 
Q 1122 3375 1075 2522 
Q 1259 2794 1537 2939 
Q 1816 3084 2150 3084 
Q 2853 3084 3261 2657 
Q 3669 2231 3669 1497 
Q 3669 778 3244 343 
Q 2819 -91 2113 -91 
Q 1303 -91 875 529 
Q 447 1150 447 2328 
Q 447 3434 972 4092 
Q 1497 4750 2381 4750 
Q 2619 4750 2861 4703 
Q 3103 4656 3366 4563 
z
" transform="scale(0.015625)"/>
       </defs>
       <use xlink:href="#DejaVuSans-70"/>
       <use xlink:href="#DejaVuSans-33" x="63.476562"/>
       <use xlink:href="#DejaVuSans-38" x="127.099609"/>
       <use xlink:href="#DejaVuSans-34" x="190.722656"/>
       <use xlink:href="#DejaVuSans-5f" x="254.345703"/>
       <use xlink:href="#DejaVuSans-6d" x="304.345703"/>
       <use xlink:href="#DejaVuSans-6c" x="401.757812"/>
       <use xlink:href="#DejaVuSans-6b" x="429.541016"/>
       <use xlink:href="#DejaVuSans-65" x="483.826172"/>
       <use xlink:href="#DejaVuSans-6d" x="545.349609"/>
       <use xlink:href="#DejaVuSans-37" x="642.761719"/>
       <use xlink:href="#DejaVuSans-36" x="706.384766"/>
       <use xlink:href="#DejaVuSans-38" x="770.007812"/>
      </g>
     </g>
    </g>
    <g id="xtick_4">
     <g id="text_4">
      <!-- x448_mlkem768 -->
      <g style="fill: #262626" transform="translate(555.169937 415.277812) scale(0.14 -0.14)">
       <use xlink:href="#DejaVuSans-78"/>
       <use xlink:href="#DejaVuSans-34" x="59.179688"/>
       <use xlink:href="#DejaVuSans-34" x="122.802734"/>
       <use xlink:href="#DejaVuSans-38" x="186.425781"/>
       <use xlink:href="#DejaVuSans-5f" x="250.048828"/>
       <use xlink:href="#DejaVuSans-6d" x="300.048828"/>
       <use xlink:href="#DejaVuSans-6c" x="397.460938"/>
       <use xlink:href="#DejaVuSans-6b" x="425.244141"/>
       <use xlink:href="#DejaVuSans-65" x="479.529297"/>
       <use xlink:href="#DejaVuSans-6d" x="541.052734"/>
       <use xlink:href="#DejaVuSans-37" x="638.464844"/>
       <use xlink:href="#DejaVuSans-36" x="702.087891"/>
       <use xlink:href="#DejaVuSans-38" x="765.710938"/>
      </g>
     </g>
    </g>
    <g id="xtick_5">
     <g id="text_5">
      <!-- mlkem768 -->
      <g style="fill: #262626" transform="translate(734.718312 415.277812) scale(0.14 -0.14)">
       <use xlink:href="#DejaVuSans-6d"/>
       <use xlink:href="#DejaVuSans-6c" x="97.412109"/>
       <use xlink:href="#DejaVuSans-6b" x="125.195312"/>
       <use xlink:href="#DejaVuSans-65" x="179.480469"/>
       <use xlink:href="#DejaVuSans-6d" x="241.003906"/>
       <use xlink:href="#DejaVuSans-37" x="338.416016"/>
       <use xlink:href="#DejaVuSans-36" x="402.039062"/>
       <use xlink:href="#DejaVuSans-38" x="465.662109"/>
      </g>
     </g>
    </g>
   </g>
   <g id="matplotlib.axis_2">
    <g id="ytick_1">
     <g id="line2d_1">
      <path d="M 58.32 385.606553 
L 851.04 385.606553 
" clip-path="url(#p3ce1c7827a)" style="fill: none; stroke: #cccccc; stroke-linecap: round"/>
     </g>
     <g id="text_6">
      <!-- 100 -->
      <g style="fill: #262626" transform="translate(27.82375 389.785693) scale(0.11 -0.11)">
       <defs>
        <path id="DejaVuSans-31" d="M 794 531 
L 1825 531 
L 1825 4091 
L 703 3866 
L 703 4441 
L 1819 4666 
L 2450 4666 
L 2450 531 
L 3481 531 
L 3481 0 
L 794 0 
L 794 531 
z
" transform="scale(0.015625)"/>
        <path id="DejaVuSans-30" d="M 2034 4250 
Q 1547 4250 1301 3770 
Q 1056 3291 1056 2328 
Q 1056 1369 1301 889 
Q 1547 409 2034 409 
Q 2525 409 2770 889 
Q 3016 1369 3016 2328 
Q 3016 3291 2770 3770 
Q 2525 4250 2034 4250 
z
M 2034 4750 
Q 2819 4750 3233 4129 
Q 3647 3509 3647 2328 
Q 3647 1150 3233 529 
Q 2819 -91 2034 -91 
Q 1250 -91 836 529 
Q 422 1150 422 2328 
Q 422 3509 836 4129 
Q 1250 4750 2034 4750 
z
" transform="scale(0.015625)"/>
       </defs>
       <use xlink:href="#DejaVuSans-31"/>
       <use xlink:href="#DejaVuSans-30" x="63.623047"/>
       <use xlink:href="#DejaVuSans-30" x="127.246094"/>
      </g>
     </g>
    </g>
    <g id="ytick_2">
     <g id="line2d_2">
      <path d="M 58.32 335.592829 
L 851.04 335.592829 
" clip-path="url(#p3ce1c7827a)" style="fill: none; stroke: #cccccc; stroke-linecap: round"/>
     </g>
     <g id="text_7">
      <!-- 200 -->
      <g style="fill: #262626" transform="translate(27.82375 339.77197) scale(0.11 -0.11)">
       <defs>
        <path id="DejaVuSans-32" d="M 1228 531 
L 3431 531 
L 3431 0 
L 469 0 
L 469 531 
Q 828 903 1448 1529 
Q 2069 2156 2228 2338 
Q 2531 2678 2651 2914 
Q 2772 3150 2772 3378 
Q 2772 3750 2511 3984 
Q 2250 4219 1831 4219 
Q 1534 4219 1204 4116 
Q 875 4013 500 3803 
L 500 4441 
Q 881 4594 1212 4672 
Q 1544 4750 1819 4750 
Q 2544 4750 2975 4387 
Q 3406 4025 3406 3419 
Q 3406 3131 3298 2873 
Q 3191 2616 2906 2266 
Q 2828 2175 2409 1742 
Q 1991 1309 1228 531 
z
" transform="scale(0.015625)"/>
       </defs>
       <use xlink:href="#DejaVuSans-32"/>
       <use xlink:href="#DejaVuSans-30" x="63.623047"/>
       <use xlink:href="#DejaVuSans-30" x="127.246094"/>
      </g>
     </g>
    </g>
    <g id="ytick_3">
     <g id="line2d_3">
      <path d="M 58.32 285.579106 
L 851.04 285.579106 
" clip-path="url(#p3ce1c7827a)" style="fill: none; stroke: #cccccc; stroke-linecap: round"/>
     </g>
     <g id="text_8">
      <!-- 300 -->
      <g style="fill: #262626" transform="translate(27.82375 289.758247) scale(0.11 -0.11)">
       <use xlink:href="#DejaVuSans-33"/>
       <use xlink:href="#DejaVuSans-30" x="63.623047"/>
       <use xlink:href="#DejaVuSans-30" x="127.246094"/>
      </g>
     </g>
    </g>
    <g id="ytick_4">
     <g id="line2d_4">
      <path d="M 58.32 235.565383 
L 851.04 235.565383 
" clip-path="url(#p3ce1c7827a)" style="fill: none; stroke: #cccccc; stroke-linecap: round"/>
     </g>
     <g id="text_9">
      <!-- 400 -->
      <g style="fill: #262626" transform="translate(27.82375 239.744523) scale(0.11 -0.11)">
       <use xlink:href="#DejaVuSans-34"/>
       <use xlink:href="#DejaVuSans-30" x="63.623047"/>
       <use xlink:href="#DejaVuSans-30" x="127.246094"/>
      </g>
     </g>
    </g>
    <g id="ytick_5">
     <g id="line2d_5">
      <path d="M 58.32 185.551659 
L 851.04 185.551659 
" clip-path="url(#p3ce1c7827a)" style="fill: none; stroke: #cccccc; stroke-linecap: round"/>
     </g>
     <g id="text_10">
      <!-- 500 -->
      <g style="fill: #262626" transform="translate(27.82375 189.7308) scale(0.11 -0.11)">
       <defs>
        <path id="DejaVuSans-35" d="M 691 4666 
L 3169 4666 
L 3169 4134 
L 1269 4134 
L 1269 2991 
Q 1406 3038 1543 3061 
Q 1681 3084 1819 3084 
Q 2600 3084 3056 2656 
Q 3513 2228 3513 1497 
Q 3513 744 3044 326 
Q 2575 -91 1722 -91 
Q 1428 -91 1123 -41 
Q 819 9 494 109 
L 494 744 
Q 775 591 1075 516 
Q 1375 441 1709 441 
Q 2250 441 2565 725 
Q 2881 1009 2881 1497 
Q 2881 1984 2565 2268 
Q 2250 2553 1709 2553 
Q 1456 2553 1204 2497 
Q 953 2441 691 2322 
L 691 4666 
z
" transform="scale(0.015625)"/>
       </defs>
       <use xlink:href="#DejaVuSans-35"/>
       <use xlink:href="#DejaVuSans-30" x="63.623047"/>
       <use xlink:href="#DejaVuSans-30" x="127.246094"/>
      </g>
     </g>
    </g>
    <g id="ytick_6">
     <g id="line2d_6">
      <path d="M 58.32 135.537936 
L 851.04 135.537936 
" clip-path="url(#p3ce1c7827a)" style="fill: none; stroke: #cccccc; stroke-linecap: round"/>
     </g>
     <g id="text_11">
      <!-- 600 -->
      <g style="fill: #262626" transform="translate(27.82375 139.717076) scale(0.11 -0.11)">
       <use xlink:href="#DejaVuSans-36"/>
       <use xlink:href="#DejaVuSans-30" x="63.623047"/>
       <use xlink:href="#DejaVuSans-30" x="127.246094"/>
      </g>
     </g>
    </g>
    <g id="ytick_7">
     <g id="line2d_7">
      <path d="M 58.32 85.524212 
L 851.04 85.524212 
" clip-path="url(#p3ce1c7827a)" style="fill: none; stroke: #cccccc; stroke-linecap: round"/>
     </g>
     <g id="text_12">
      <!-- 700 -->
      <g style="fill: #262626" transform="translate(27.82375 89.703353) scale(0.11 -0.11)">
       <use xlink:href="#DejaVuSans-37"/>
       <use xlink:href="#DejaVuSans-30" x="63.623047"/>
       <use xlink:href="#DejaVuSans-30" x="127.246094"/>
      </g>
     </g>
    </g>
    <g id="ytick_8">
     <g id="line2d_8">
      <path d="M 58.32 35.510489 
L 851.04 35.510489 
" clip-path="url(#p3ce1c7827a)" style="fill: none; stroke: #cccccc; stroke-linecap: round"/>
     </g>
     <g id="text_13">
      <!-- 800 -->
      <g style="fill: #262626" transform="translate(27.82375 39.689629) scale(0.11 -0.11)">
       <use xlink:href="#DejaVuSans-38"/>
       <use xlink:href="#DejaVuSans-30" x="63.623047"/>
       <use xlink:href="#DejaVuSans-30" x="127.246094"/>
      </g>
     </g>
    </g>
    <g id="text_14">
     <!-- Handshake duration (ms) -->
     <g style="fill: #262626" transform="translate(21.328125 287.437813) rotate(-90) scale(0.12 -0.12)">
      <defs>
       <path id="DejaVuSans-48" d="M 628 4666 
L 1259 4666 
L 1259 2753 
L 3553 2753 
L 3553 4666 
L 4184 4666 
L 4184 0 
L 3553 0 
L 3553 2222 
L 1259 2222 
L 1259 0 
L 628 0 
L 628 4666 
z
" transform="scale(0.015625)"/>
       <path id="DejaVuSans-61" d="M 2194 1759 
Q 1497 1759 1228 1600 
Q 959 1441 959 1056 
Q 959 750 1161 570 
Q 1363 391 1709 391 
Q 2188 391 2477 730 
Q 2766 1069 2766 1631 
L 2766 1759 
L 2194 1759 
z
M 3341 1997 
L 3341 0 
L 2766 0 
L 2766 531 
Q 2569 213 2275 61 
Q 1981 -91 1556 -91 
Q 1019 -91 701 211 
Q 384 513 384 1019 
Q 384 1609 779 1909 
Q 1175 2209 1959 2209 
L 2766 2209 
L 2766 2266 
Q 2766 2663 2505 2880 
Q 2244 3097 1772 3097 
Q 1472 3097 1187 3025 
Q 903 2953 641 2809 
L 641 3341 
Q 956 3463 1253 3523 
Q 1550 3584 1831 3584 
Q 2591 3584 2966 3190 
Q 3341 2797 3341 1997 
z
" transform="scale(0.015625)"/>
       <path id="DejaVuSans-6e" d="M 3513 2113 
L 3513 0 
L 2938 0 
L 2938 2094 
Q 2938 2591 2744 2837 
Q 2550 3084 2163 3084 
Q 1697 3084 1428 2787 
Q 1159 2491 1159 1978 
L 1159 0 
L 581 0 
L 581 3500 
L 1159 3500 
L 1159 2956 
Q 1366 3272 1645 3428 
Q 1925 3584 2291 3584 
Q 2894 3584 3203 3211 
Q 3513 2838 3513 2113 
z
" transform="scale(0.015625)"/>
       <path id="DejaVuSans-64" d="M 2906 2969 
L 2906 4863 
L 3481 4863 
L 3481 0 
L 2906 0 
L 2906 525 
Q 2725 213 2448 61 
Q 2172 -91 1784 -91 
Q 1150 -91 751 415 
Q 353 922 353 1747 
Q 353 2572 751 3078 
Q 1150 3584 1784 3584 
Q 2172 3584 2448 3432 
Q 2725 3281 2906 2969 
z
M 947 1747 
Q 947 1113 1208 752 
Q 1469 391 1925 391 
Q 2381 391 2643 752 
Q 2906 1113 2906 1747 
Q 2906 2381 2643 2742 
Q 2381 3103 1925 3103 
Q 1469 3103 1208 2742 
Q 947 2381 947 1747 
z
" transform="scale(0.015625)"/>
       <path id="DejaVuSans-73" d="M 2834 3397 
L 2834 2853 
Q 2591 2978 2328 3040 
Q 2066 3103 1784 3103 
Q 1356 3103 1142 2972 
Q 928 2841 928 2578 
Q 928 2378 1081 2264 
Q 1234 2150 1697 2047 
L 1894 2003 
Q 2506 1872 2764 1633 
Q 3022 1394 3022 966 
Q 3022 478 2636 193 
Q 2250 -91 1575 -91 
Q 1294 -91 989 -36 
Q 684 19 347 128 
L 347 722 
Q 666 556 975 473 
Q 1284 391 1588 391 
Q 1994 391 2212 530 
Q 2431 669 2431 922 
Q 2431 1156 2273 1281 
Q 2116 1406 1581 1522 
L 1381 1569 
Q 847 1681 609 1914 
Q 372 2147 372 2553 
Q 372 3047 722 3315 
Q 1072 3584 1716 3584 
Q 2034 3584 2315 3537 
Q 2597 3491 2834 3397 
z
" transform="scale(0.015625)"/>
       <path id="DejaVuSans-68" d="M 3513 2113 
L 3513 0 
L 2938 0 
L 2938 2094 
Q 2938 2591 2744 2837 
Q 2550 3084 2163 3084 
Q 1697 3084 1428 2787 
Q 1159 2491 1159 1978 
L 1159 0 
L 581 0 
L 581 4863 
L 1159 4863 
L 1159 2956 
Q 1366 3272 1645 3428 
Q 1925 3584 2291 3584 
Q 2894 3584 3203 3211 
Q 3513 2838 3513 2113 
z
" transform="scale(0.015625)"/>
       <path id="DejaVuSans-20" transform="scale(0.015625)"/>
       <path id="DejaVuSans-75" d="M 544 1381 
L 544 3500 
L 1119 3500 
L 1119 1403 
Q 1119 906 1312 657 
Q 1506 409 1894 409 
Q 2359 409 2629 706 
Q 2900 1003 2900 1516 
L 2900 3500 
L 3475 3500 
L 3475 0 
L 2900 0 
L 2900 538 
Q 2691 219 2414 64 
Q 2138 -91 1772 -91 
Q 1169 -91 856 284 
Q 544 659 544 1381 
z
M 1991 3584 
L 1991 3584 
z
" transform="scale(0.015625)"/>
       <path id="DejaVuSans-72" d="M 2631 2963 
Q 2534 3019 2420 3045 
Q 2306 3072 2169 3072 
Q 1681 3072 1420 2755 
Q 1159 2438 1159 1844 
L 1159 0 
L 581 0 
L 581 3500 
L 1159 3500 
L 1159 2956 
Q 1341 3275 1631 3429 
Q 1922 3584 2338 3584 
Q 2397 3584 2469 3576 
Q 2541 3569 2628 3553 
L 2631 2963 
z
" transform="scale(0.015625)"/>
       <path id="DejaVuSans-74" d="M 1172 4494 
L 1172 3500 
L 2356 3500 
L 2356 3053 
L 1172 3053 
L 1172 1153 
Q 1172 725 1289 603 
Q 1406 481 1766 481 
L 2356 481 
L 2356 0 
L 1766 0 
Q 1100 0 847 248 
Q 594 497 594 1153 
L 594 3053 
L 172 3053 
L 172 3500 
L 594 3500 
L 594 4494 
L 1172 4494 
z
" transform="scale(0.015625)"/>
       <path id="DejaVuSans-69" d="M 603 3500 
L 1178 3500 
L 1178 0 
L 603 0 
L 603 3500 
z
M 603 4863 
L 1178 4863 
L 1178 4134 
L 603 4134 
L 603 4863 
z
" transform="scale(0.015625)"/>
       <path id="DejaVuSans-6f" d="M 1959 3097 
Q 1497 3097 1228 2736 
Q 959 2375 959 1747 
Q 959 1119 1226 758 
Q 1494 397 1959 397 
Q 2419 397 2687 759 
Q 2956 1122 2956 1747 
Q 2956 2369 2687 2733 
Q 2419 3097 1959 3097 
z
M 1959 3584 
Q 2709 3584 3137 3096 
Q 3566 2609 3566 1747 
Q 3566 888 3137 398 
Q 2709 -91 1959 -91 
Q 1206 -91 779 398 
Q 353 888 353 1747 
Q 353 2609 779 3096 
Q 1206 3584 1959 3584 
z
" transform="scale(0.015625)"/>
       <path id="DejaVuSans-28" d="M 1984 4856 
Q 1566 4138 1362 3434 
Q 1159 2731 1159 2009 
Q 1159 1288 1364 580 
Q 1569 -128 1984 -844 
L 1484 -844 
Q 1016 -109 783 600 
Q 550 1309 550 2009 
Q 550 2706 781 3412 
Q 1013 4119 1484 4856 
L 1984 4856 
z
" transform="scale(0.015625)"/>
       <path id="DejaVuSans-29" d="M 513 4856 
L 1013 4856 
Q 1481 4119 1714 3412 
Q 1947 2706 1947 2009 
Q 1947 1309 1714 600 
Q 1481 -109 1013 -844 
L 513 -844 
Q 928 -128 1133 580 
Q 1338 1288 1338 2009 
Q 1338 2731 1133 3434 
Q 928 4138 513 4856 
z
" transform="scale(0.015625)"/>
      </defs>
      <use xlink:href="#DejaVuSans-48"/>
      <use xlink:href="#DejaVuSans-61" x="75.195312"/>
      <use xlink:href="#DejaVuSans-6e" x="136.474609"/>
      <use xlink:href="#DejaVuSans-64" x="199.853516"/>
      <use xlink:href="#DejaVuSans-73" x="263.330078"/>
      <use xlink:href="#DejaVuSans-68" x="315.429688"/>
      <use xlink:href="#DejaVuSans-61" x="378.808594"/>
      <use xlink:href="#DejaVuSans-6b" x="440.087891"/>
      <use xlink:href="#DejaVuSans-65" x="494.373047"/>
      <use xlink:href="#DejaVuSans-20" x="555.896484"/>
      <use xlink:href="#DejaVuSans-64" x="587.683594"/>
      <use xlink:href="#DejaVuSans-75" x="651.160156"/>
      <use xlink:href="#DejaVuSans-72" x="714.539062"/>
      <use xlink:href="#DejaVuSans-61" x="755.652344"/>
      <use xlink:href="#DejaVuSans-74" x="816.931641"/>
      <use xlink:href="#DejaVuSans-69" x="856.140625"/>
      <use xlink:href="#DejaVuSans-6f" x="883.923828"/>
      <use xlink:href="#DejaVuSans-6e" x="945.105469"/>
      <use xlink:href="#DejaVuSans-20" x="1008.484375"/>
      <use xlink:href="#DejaVuSans-28" x="1040.271484"/>
      <use xlink:href="#DejaVuSans-6d" x="1079.285156"/>
      <use xlink:href="#DejaVuSans-73" x="1176.697266"/>
      <use xlink:href="#DejaVuSans-29" x="1228.796875"/>
     </g>
    </g>
   </g>
   <g id="PolyCollection_1">
    <defs>
     <path id="m10a28af2c5" d="M 145.67019 -53.566364 
L 129.51381 -53.566364 
L 122.23112 -56.138919 
L 111.677997 -58.711474 
L 98.806346 -61.28403 
L 86.089552 -63.856585 
L 76.917425 -66.429141 
L 74.1744 -69.001696 
L 78.783617 -71.574252 
L 89.208476 -74.146807 
L 102.27466 -76.719362 
L 114.719233 -79.291918 
L 124.448201 -81.864473 
L 130.887825 -84.437029 
L 134.551425 -87.009584 
L 136.354833 -89.58214 
L 137.120412 -92.154695 
L 137.392469 -94.72725 
L 137.463144 -97.299806 
L 137.466618 -99.872361 
L 137.458369 -102.444917 
L 137.45912 -105.017472 
L 137.47358 -107.590028 
L 137.498195 -110.162583 
L 137.526059 -112.735138 
L 137.550878 -115.307694 
L 137.569251 -117.880249 
L 137.580836 -120.452805 
L 137.58714 -123.02536 
L 137.590123 -125.597915 
L 137.591357 -128.170471 
L 137.591805 -130.743026 
L 137.591947 -133.315582 
L 137.591987 -135.888137 
L 137.591997 -138.460693 
L 137.591999 -141.033248 
L 137.592 -143.605803 
L 137.592 -146.178359 
L 137.592 -148.750914 
L 137.592 -151.32347 
L 137.592 -153.896025 
L 137.592 -156.468581 
L 137.592 -159.041136 
L 137.592 -161.613691 
L 137.592 -164.186247 
L 137.591998 -166.758802 
L 137.59199 -169.331358 
L 137.591947 -171.903913 
L 137.591762 -174.476469 
L 137.591041 -177.049024 
L 137.588578 -179.621579 
L 137.581163 -182.194135 
L 137.561547 -184.76669 
L 137.516069 -187.339246 
L 137.423997 -189.911801 
L 137.262147 -192.484356 
L 137.017311 -195.056912 
L 136.703497 -197.629467 
L 136.373004 -200.202023 
L 136.107888 -202.774578 
L 135.988547 -205.347134 
L 136.05464 -207.919689 
L 136.283936 -210.492244 
L 136.604302 -213.0648 
L 136.93011 -215.637355 
L 137.198226 -218.209911 
L 137.38364 -220.782466 
L 137.492824 -223.355022 
L 137.546668 -225.927577 
L 137.565849 -228.500132 
L 137.564247 -231.072688 
L 137.549282 -233.645243 
L 137.525475 -236.217799 
L 137.497901 -238.790354 
L 137.47347 -241.362909 
L 137.459474 -243.935465 
L 137.460545 -246.50802 
L 137.47633 -249.080576 
L 137.501714 -251.653131 
L 137.529486 -254.225687 
L 137.553602 -256.798242 
L 137.571076 -259.370797 
L 137.581871 -261.943353 
L 137.587594 -264.515908 
L 137.590095 -267.088464 
L 137.590623 -269.661019 
L 137.5895 -272.233575 
L 137.58607 -274.80613 
L 137.578817 -277.378685 
L 137.565848 -279.951241 
L 137.545949 -282.523796 
L 137.520062 -285.096352 
L 137.492313 -287.668907 
L 137.469461 -290.241463 
L 137.45838 -292.814018 
L 137.462751 -295.386573 
L 137.481098 -297.959129 
L 137.507587 -300.531684 
L 137.535005 -303.10424 
L 137.557863 -305.676795 
L 137.573863 -308.24935 
L 137.610137 -308.24935 
L 137.610137 -308.24935 
L 137.626137 -305.676795 
L 137.648995 -303.10424 
L 137.676413 -300.531684 
L 137.702902 -297.959129 
L 137.721249 -295.386573 
L 137.72562 -292.814018 
L 137.714539 -290.241463 
L 137.691687 -287.668907 
L 137.663938 -285.096352 
L 137.638051 -282.523796 
L 137.618152 -279.951241 
L 137.605183 -277.378685 
L 137.59793 -274.80613 
L 137.5945 -272.233575 
L 137.593377 -269.661019 
L 137.593905 -267.088464 
L 137.596406 -264.515908 
L 137.602129 -261.943353 
L 137.612924 -259.370797 
L 137.630398 -256.798242 
L 137.654514 -254.225687 
L 137.682286 -251.653131 
L 137.70767 -249.080576 
L 137.723455 -246.50802 
L 137.724526 -243.935465 
L 137.71053 -241.362909 
L 137.686099 -238.790354 
L 137.658525 -236.217799 
L 137.634718 -233.645243 
L 137.619753 -231.072688 
L 137.618151 -228.500132 
L 137.637332 -225.927577 
L 137.691176 -223.355022 
L 137.80036 -220.782466 
L 137.985774 -218.209911 
L 138.25389 -215.637355 
L 138.579698 -213.0648 
L 138.900064 -210.492244 
L 139.12936 -207.919689 
L 139.195453 -205.347134 
L 139.076112 -202.774578 
L 138.810996 -200.202023 
L 138.480503 -197.629467 
L 138.166689 -195.056912 
L 137.921853 -192.484356 
L 137.760003 -189.911801 
L 137.667931 -187.339246 
L 137.622453 -184.76669 
L 137.602837 -182.194135 
L 137.595422 -179.621579 
L 137.592959 -177.049024 
L 137.592238 -174.476469 
L 137.592053 -171.903913 
L 137.59201 -169.331358 
L 137.592002 -166.758802 
L 137.592 -164.186247 
L 137.592 -161.613691 
L 137.592 -159.041136 
L 137.592 -156.468581 
L 137.592 -153.896025 
L 137.592 -151.32347 
L 137.592 -148.750914 
L 137.592 -146.178359 
L 137.592 -143.605803 
L 137.592001 -141.033248 
L 137.592003 -138.460693 
L 137.592013 -135.888137 
L 137.592053 -133.315582 
L 137.592195 -130.743026 
L 137.592643 -128.170471 
L 137.593877 -125.597915 
L 137.59686 -123.02536 
L 137.603164 -120.452805 
L 137.614749 -117.880249 
L 137.633122 -115.307694 
L 137.657941 -112.735138 
L 137.685805 -110.162583 
L 137.71042 -107.590028 
L 137.72488 -105.017472 
L 137.725631 -102.444917 
L 137.717382 -99.872361 
L 137.720856 -97.299806 
L 137.791531 -94.72725 
L 138.063588 -92.154695 
L 138.829167 -89.58214 
L 140.632575 -87.009584 
L 144.296175 -84.437029 
L 150.735799 -81.864473 
L 160.464767 -79.291918 
L 172.90934 -76.719362 
L 185.975524 -74.146807 
L 196.400383 -71.574252 
L 201.0096 -69.001696 
L 198.266575 -66.429141 
L 189.094448 -63.856585 
L 176.377654 -61.28403 
L 163.506003 -58.711474 
L 152.95288 -56.138919 
L 145.67019 -53.566364 
z
" style="stroke: #595959; stroke-width: 1.25"/>
    </defs>
    <g clip-path="url(#p3ce1c7827a)">
     <use xlink:href="#m10a28af2c5" x="0" y="432" style="fill: #72b6a1; stroke: #595959; stroke-width: 1.25"/>
    </g>
   </g>
   <g id="PolyCollection_2">
    <defs>
     <path id="m65682fa5bd" d="M 304.217203 -54.040688 
L 288.054797 -54.040688 
L 283.273499 -55.707153 
L 276.840406 -57.373617 
L 268.854117 -59.040082 
L 259.780172 -60.706546 
L 250.473747 -62.373011 
L 242.082435 -64.039475 
L 235.827971 -65.70594 
L 232.7184 -67.372404 
L 233.282648 -69.038869 
L 237.423422 -70.705333 
L 244.444631 -72.371797 
L 253.24272 -74.038262 
L 262.589662 -75.704726 
L 271.408145 -77.371191 
L 278.956287 -79.037655 
L 284.886259 -80.70412 
L 289.192194 -82.370584 
L 292.094992 -84.037049 
L 293.916798 -85.703513 
L 294.982474 -87.369978 
L 295.56262 -89.036442 
L 295.854246 -90.702907 
L 295.98611 -92.369371 
L 296.035094 -94.035836 
L 296.04393 -95.7023 
L 296.03538 -97.368765 
L 296.021616 -99.035229 
L 296.009456 -100.701694 
L 296.002788 -102.368158 
L 296.003468 -104.034623 
L 296.011629 -105.701087 
L 296.025976 -107.367552 
L 296.04426 -109.034016 
L 296.063904 -110.700481 
L 296.082601 -112.366945 
L 296.098724 -114.03341 
L 296.111475 -115.699874 
L 296.120793 -117.366339 
L 296.127113 -119.032803 
L 296.131105 -120.699268 
L 296.133459 -122.365732 
L 296.134757 -124.032197 
L 296.135427 -125.698661 
L 296.135751 -127.365126 
L 296.135898 -129.03159 
L 296.135961 -130.698055 
L 296.135986 -132.364519 
L 296.135995 -134.030984 
L 296.135998 -135.697448 
L 296.136 -137.363913 
L 296.136 -139.030377 
L 296.136 -140.696841 
L 296.136 -142.363306 
L 296.136 -144.02977 
L 296.136 -145.696235 
L 296.136 -147.362699 
L 296.136 -149.029164 
L 296.136 -150.695628 
L 296.136 -152.362093 
L 296.136 -154.028557 
L 296.136 -155.695022 
L 296.136 -157.361486 
L 296.136 -159.027951 
L 296.136 -160.694415 
L 296.136 -162.36088 
L 296.136 -164.027344 
L 296.136 -165.693809 
L 296.135999 -167.360273 
L 296.135997 -169.026738 
L 296.135991 -170.693202 
L 296.135972 -172.359667 
L 296.135914 -174.026131 
L 296.135754 -175.692596 
L 296.135333 -177.35906 
L 296.134293 -179.025525 
L 296.131887 -180.691989 
L 296.126654 -182.358454 
L 296.115984 -184.024918 
L 296.095592 -185.691383 
L 296.0591 -187.357847 
L 295.998049 -189.024312 
L 295.902722 -190.690776 
L 295.764145 -192.357241 
L 295.577243 -194.023705 
L 295.344551 -195.69017 
L 295.079245 -197.356634 
L 294.805921 -199.023099 
L 294.557906 -200.689563 
L 294.371014 -202.356028 
L 294.275186 -204.022492 
L 294.286653 -205.688957 
L 294.403441 -207.355421 
L 294.605927 -209.021885 
L 294.862228 -210.68835 
L 295.1364 -212.354814 
L 295.396537 -214.021279 
L 295.62034 -215.687743 
L 295.797026 -217.354208 
L 295.925948 -219.020672 
L 296.346052 -219.020672 
L 296.346052 -219.020672 
L 296.474974 -217.354208 
L 296.65166 -215.687743 
L 296.875463 -214.021279 
L 297.1356 -212.354814 
L 297.409772 -210.68835 
L 297.666073 -209.021885 
L 297.868559 -207.355421 
L 297.985347 -205.688957 
L 297.996814 -204.022492 
L 297.900986 -202.356028 
L 297.714094 -200.689563 
L 297.466079 -199.023099 
L 297.192755 -197.356634 
L 296.927449 -195.69017 
L 296.694757 -194.023705 
L 296.507855 -192.357241 
L 296.369278 -190.690776 
L 296.273951 -189.024312 
L 296.2129 -187.357847 
L 296.176408 -185.691383 
L 296.156016 -184.024918 
L 296.145346 -182.358454 
L 296.140113 -180.691989 
L 296.137707 -179.025525 
L 296.136667 -177.35906 
L 296.136246 -175.692596 
L 296.136086 -174.026131 
L 296.136028 -172.359667 
L 296.136009 -170.693202 
L 296.136003 -169.026738 
L 296.136001 -167.360273 
L 296.136 -165.693809 
L 296.136 -164.027344 
L 296.136 -162.36088 
L 296.136 -160.694415 
L 296.136 -159.027951 
L 296.136 -157.361486 
L 296.136 -155.695022 
L 296.136 -154.028557 
L 296.136 -152.362093 
L 296.136 -150.695628 
L 296.136 -149.029164 
L 296.136 -147.362699 
L 296.136 -145.696235 
L 296.136 -144.02977 
L 296.136 -142.363306 
L 296.136 -140.696841 
L 296.136 -139.030377 
L 296.136 -137.363913 
L 296.136002 -135.697448 
L 296.136005 -134.030984 
L 296.136014 -132.364519 
L 296.136039 -130.698055 
L 296.136102 -129.03159 
L 296.136249 -127.365126 
L 296.136573 -125.698661 
L 296.137243 -124.032197 
L 296.138541 -122.365732 
L 296.140895 -120.699268 
L 296.144887 -119.032803 
L 296.151207 -117.366339 
L 296.160525 -115.699874 
L 296.173276 -114.03341 
L 296.189399 -112.366945 
L 296.208096 -110.700481 
L 296.22774 -109.034016 
L 296.246024 -107.367552 
L 296.260371 -105.701087 
L 296.268532 -104.034623 
L 296.269212 -102.368158 
L 296.262544 -100.701694 
L 296.250384 -99.035229 
L 296.23662 -97.368765 
L 296.22807 -95.7023 
L 296.236906 -94.035836 
L 296.28589 -92.369371 
L 296.417754 -90.702907 
L 296.70938 -89.036442 
L 297.289526 -87.369978 
L 298.355202 -85.703513 
L 300.177008 -84.037049 
L 303.079806 -82.370584 
L 307.385741 -80.70412 
L 313.315713 -79.037655 
L 320.863855 -77.371191 
L 329.682338 -75.704726 
L 339.02928 -74.038262 
L 347.827369 -72.371797 
L 354.848578 -70.705333 
L 358.989352 -69.038869 
L 359.5536 -67.372404 
L 356.444029 -65.70594 
L 350.189565 -64.039475 
L 341.798253 -62.373011 
L 332.491828 -60.706546 
L 323.417883 -59.040082 
L 315.431594 -57.373617 
L 308.998501 -55.707153 
L 304.217203 -54.040688 
z
" style="stroke: #595959; stroke-width: 1.25"/>
    </defs>
    <g clip-path="url(#p3ce1c7827a)">
     <use xlink:href="#m65682fa5bd" x="0" y="432" style="fill: #e99675; stroke: #595959; stroke-width: 1.25"/>
    </g>
   </g>
   <g id="PolyCollection_3">
    <defs>
     <path id="m6e77b12c61" d="M 461.979691 -58.537038 
L 447.380309 -58.537038 
L 441.452348 -60.607147 
L 432.892031 -62.677255 
L 422.054385 -64.747363 
L 410.261344 -66.817471 
L 399.688171 -68.88758 
L 392.761155 -70.957688 
L 391.2624 -73.027796 
L 395.587326 -75.097904 
L 404.575949 -77.168013 
L 416.015781 -79.238121 
L 427.520152 -81.308229 
L 437.309452 -83.378337 
L 444.562897 -85.448446 
L 449.312755 -87.518554 
L 452.085557 -89.588662 
L 453.536122 -91.65877 
L 454.217617 -93.728879 
L 454.503631 -95.798987 
L 454.606905 -97.869095 
L 454.632171 -99.939203 
L 454.625067 -102.009312 
L 454.604537 -104.07942 
L 454.580004 -106.149528 
L 454.558384 -108.219636 
L 454.545462 -110.289745 
L 454.544832 -112.359853 
L 454.556701 -114.429961 
L 454.577888 -116.500069 
L 454.603223 -118.570178 
L 454.62759 -120.640286 
L 454.647519 -122.710394 
L 454.661724 -124.780502 
L 454.670664 -126.85061 
L 454.67567 -128.920719 
L 454.678177 -130.990827 
L 454.679303 -133.060935 
L 454.679758 -135.131043 
L 454.679924 -137.201152 
L 454.679978 -139.27126 
L 454.679994 -141.341368 
L 454.679999 -143.411476 
L 454.68 -145.481585 
L 454.68 -147.551693 
L 454.68 -149.621801 
L 454.68 -151.691909 
L 454.68 -153.762018 
L 454.68 -155.832126 
L 454.68 -157.902234 
L 454.68 -159.972342 
L 454.68 -162.042451 
L 454.68 -164.112559 
L 454.68 -166.182667 
L 454.68 -168.252775 
L 454.68 -170.322884 
L 454.68 -172.392992 
L 454.679999 -174.4631 
L 454.679997 -176.533208 
L 454.679984 -178.603317 
L 454.679934 -180.673425 
L 454.679749 -182.743533 
L 454.679134 -184.813641 
L 454.677289 -186.88375 
L 454.672286 -188.953858 
L 454.660058 -191.023966 
L 454.63314 -193.094074 
L 454.579901 -195.164183 
L 454.485571 -197.234291 
L 454.336517 -199.304399 
L 454.127934 -201.374507 
L 453.872454 -203.444616 
L 453.604528 -205.514724 
L 453.375407 -207.584832 
L 453.237881 -209.65494 
L 453.226543 -211.725048 
L 453.343656 -213.795157 
L 453.558498 -215.865265 
L 453.820387 -217.935373 
L 454.077885 -220.005481 
L 454.294362 -222.07559 
L 454.454009 -224.145698 
L 454.558653 -226.215806 
L 454.619924 -228.285914 
L 454.65164 -230.356023 
L 454.665067 -232.426131 
L 454.667271 -234.496239 
L 454.661575 -236.566347 
L 454.649003 -238.636456 
L 454.630029 -240.706564 
L 454.606134 -242.776672 
L 454.580696 -244.84678 
L 454.558756 -246.916889 
L 454.545598 -248.986997 
L 454.544734 -251.057105 
L 454.556404 -253.127213 
L 454.57747 -255.197322 
L 454.60278 -257.26743 
L 454.6272 -259.337538 
L 454.647222 -261.407646 
L 454.661527 -263.477755 
L 454.698473 -263.477755 
L 454.698473 -263.477755 
L 454.712778 -261.407646 
L 454.7328 -259.337538 
L 454.75722 -257.26743 
L 454.78253 -255.197322 
L 454.803596 -253.127213 
L 454.815266 -251.057105 
L 454.814402 -248.986997 
L 454.801244 -246.916889 
L 454.779304 -244.84678 
L 454.753866 -242.776672 
L 454.729971 -240.706564 
L 454.710997 -238.636456 
L 454.698425 -236.566347 
L 454.692729 -234.496239 
L 454.694933 -232.426131 
L 454.70836 -230.356023 
L 454.740076 -228.285914 
L 454.801347 -226.215806 
L 454.905991 -224.145698 
L 455.065638 -222.07559 
L 455.282115 -220.005481 
L 455.539613 -217.935373 
L 455.801502 -215.865265 
L 456.016344 -213.795157 
L 456.133457 -211.725048 
L 456.122119 -209.65494 
L 455.984593 -207.584832 
L 455.755472 -205.514724 
L 455.487546 -203.444616 
L 455.232066 -201.374507 
L 455.023483 -199.304399 
L 454.874429 -197.234291 
L 454.780099 -195.164183 
L 454.72686 -193.094074 
L 454.699942 -191.023966 
L 454.687714 -188.953858 
L 454.682711 -186.88375 
L 454.680866 -184.813641 
L 454.680251 -182.743533 
L 454.680066 -180.673425 
L 454.680016 -178.603317 
L 454.680003 -176.533208 
L 454.680001 -174.4631 
L 454.68 -172.392992 
L 454.68 -170.322884 
L 454.68 -168.252775 
L 454.68 -166.182667 
L 454.68 -164.112559 
L 454.68 -162.042451 
L 454.68 -159.972342 
L 454.68 -157.902234 
L 454.68 -155.832126 
L 454.68 -153.762018 
L 454.68 -151.691909 
L 454.68 -149.621801 
L 454.68 -147.551693 
L 454.68 -145.481585 
L 454.680001 -143.411476 
L 454.680006 -141.341368 
L 454.680022 -139.27126 
L 454.680076 -137.201152 
L 454.680242 -135.131043 
L 454.680697 -133.060935 
L 454.681823 -130.990827 
L 454.68433 -128.920719 
L 454.689336 -126.85061 
L 454.698276 -124.780502 
L 454.712481 -122.710394 
L 454.73241 -120.640286 
L 454.756777 -118.570178 
L 454.782112 -116.500069 
L 454.803299 -114.429961 
L 454.815168 -112.359853 
L 454.814538 -110.289745 
L 454.801616 -108.219636 
L 454.779996 -106.149528 
L 454.755463 -104.07942 
L 454.734933 -102.009312 
L 454.727829 -99.939203 
L 454.753095 -97.869095 
L 454.856369 -95.798987 
L 455.142383 -93.728879 
L 455.823878 -91.65877 
L 457.274443 -89.588662 
L 460.047245 -87.518554 
L 464.797103 -85.448446 
L 472.050548 -83.378337 
L 481.839848 -81.308229 
L 493.344219 -79.238121 
L 504.784051 -77.168013 
L 513.772674 -75.097904 
L 518.0976 -73.027796 
L 516.598845 -70.957688 
L 509.671829 -68.88758 
L 499.098656 -66.817471 
L 487.305615 -64.747363 
L 476.467969 -62.677255 
L 467.907652 -60.607147 
L 461.979691 -58.537038 
z
" style="stroke: #595959; stroke-width: 1.25"/>
    </defs>
    <g clip-path="url(#p3ce1c7827a)">
     <use xlink:href="#m6e77b12c61" x="0" y="432" style="fill: #95a3c3; stroke: #595959; stroke-width: 1.25"/>
    </g>
   </g>
   <g id="PolyCollection_4">
    <defs>
     <path id="m6fb4c20370" d="M 621.162932 -54.45412 
L 605.285068 -54.45412 
L 594.555811 -57.820176 
L 578.125696 -61.186232 
L 560.462159 -64.552287 
L 549.8064 -67.918343 
L 552.275632 -71.284399 
L 566.387608 -74.650455 
L 584.444593 -78.01651 
L 599.083063 -81.382566 
L 607.66585 -84.748622 
L 611.469866 -88.114677 
L 612.761896 -91.480733 
L 613.084929 -94.846789 
L 613.121877 -98.212845 
L 613.100854 -101.5789 
L 613.090076 -104.944956 
L 613.106168 -108.311012 
L 613.141046 -111.677068 
L 613.177321 -115.043123 
L 613.203007 -118.409179 
L 613.216454 -121.775235 
L 613.221832 -125.14129 
L 613.223502 -128.507346 
L 613.223909 -131.873402 
L 613.223987 -135.239458 
L 613.223998 -138.605513 
L 613.224 -141.971569 
L 613.224 -145.337625 
L 613.224 -148.70368 
L 613.224 -152.069736 
L 613.224 -155.435792 
L 613.224 -158.801848 
L 613.224 -162.167903 
L 613.224 -165.533959 
L 613.223998 -168.900015 
L 613.223983 -172.26607 
L 613.223853 -175.632126 
L 613.223008 -178.998182 
L 613.218655 -182.364238 
L 613.200986 -185.730293 
L 613.144773 -189.096349 
L 613.005938 -192.462405 
L 612.74412 -195.82846 
L 612.379619 -199.194516 
L 612.036027 -202.560572 
L 611.887572 -205.926628 
L 612.02183 -209.292683 
L 612.359277 -212.658739 
L 612.726618 -216.024795 
L 612.995222 -219.39085 
L 613.139848 -222.756906 
L 613.199246 -226.122962 
L 613.218177 -229.489018 
L 613.222904 -232.855073 
L 613.223835 -236.221129 
L 613.22398 -239.587185 
L 613.223998 -242.953241 
L 613.224 -246.319296 
L 613.224 -249.685352 
L 613.224 -253.051408 
L 613.224 -256.417463 
L 613.224 -259.783519 
L 613.224 -263.149575 
L 613.224 -266.515631 
L 613.224 -269.881686 
L 613.224 -273.247742 
L 613.224 -276.613798 
L 613.224 -279.979853 
L 613.224 -283.345909 
L 613.224 -286.711965 
L 613.224 -290.078021 
L 613.224 -293.444076 
L 613.224 -296.810132 
L 613.224 -300.176188 
L 613.224 -303.542243 
L 613.224 -306.908299 
L 613.224 -310.274355 
L 613.224 -313.640411 
L 613.224 -317.006466 
L 613.224 -320.372522 
L 613.224 -323.738578 
L 613.224 -327.104633 
L 613.224 -330.470689 
L 613.224 -333.836745 
L 613.224 -337.202801 
L 613.223997 -340.568856 
L 613.223976 -343.934912 
L 613.223847 -347.300968 
L 613.223219 -350.667023 
L 613.220814 -354.033079 
L 613.213609 -357.399135 
L 613.19691 -360.765191 
L 613.167558 -364.131246 
L 613.130012 -367.497302 
L 613.098915 -370.863358 
L 613.090954 -374.229413 
L 613.110898 -377.595469 
L 613.147157 -380.961525 
L 613.182274 -384.327581 
L 613.205892 -387.693636 
L 613.242108 -387.693636 
L 613.242108 -387.693636 
L 613.265726 -384.327581 
L 613.300843 -380.961525 
L 613.337102 -377.595469 
L 613.357046 -374.229413 
L 613.349085 -370.863358 
L 613.317988 -367.497302 
L 613.280442 -364.131246 
L 613.25109 -360.765191 
L 613.234391 -357.399135 
L 613.227186 -354.033079 
L 613.224781 -350.667023 
L 613.224153 -347.300968 
L 613.224024 -343.934912 
L 613.224003 -340.568856 
L 613.224 -337.202801 
L 613.224 -333.836745 
L 613.224 -330.470689 
L 613.224 -327.104633 
L 613.224 -323.738578 
L 613.224 -320.372522 
L 613.224 -317.006466 
L 613.224 -313.640411 
L 613.224 -310.274355 
L 613.224 -306.908299 
L 613.224 -303.542243 
L 613.224 -300.176188 
L 613.224 -296.810132 
L 613.224 -293.444076 
L 613.224 -290.078021 
L 613.224 -286.711965 
L 613.224 -283.345909 
L 613.224 -279.979853 
L 613.224 -276.613798 
L 613.224 -273.247742 
L 613.224 -269.881686 
L 613.224 -266.515631 
L 613.224 -263.149575 
L 613.224 -259.783519 
L 613.224 -256.417463 
L 613.224 -253.051408 
L 613.224 -249.685352 
L 613.224 -246.319296 
L 613.224002 -242.953241 
L 613.22402 -239.587185 
L 613.224165 -236.221129 
L 613.225096 -232.855073 
L 613.229823 -229.489018 
L 613.248754 -226.122962 
L 613.308152 -222.756906 
L 613.452778 -219.39085 
L 613.721382 -216.024795 
L 614.088723 -212.658739 
L 614.42617 -209.292683 
L 614.560428 -205.926628 
L 614.411973 -202.560572 
L 614.068381 -199.194516 
L 613.70388 -195.82846 
L 613.442062 -192.462405 
L 613.303227 -189.096349 
L 613.247014 -185.730293 
L 613.229345 -182.364238 
L 613.224992 -178.998182 
L 613.224147 -175.632126 
L 613.224017 -172.26607 
L 613.224002 -168.900015 
L 613.224 -165.533959 
L 613.224 -162.167903 
L 613.224 -158.801848 
L 613.224 -155.435792 
L 613.224 -152.069736 
L 613.224 -148.70368 
L 613.224 -145.337625 
L 613.224 -141.971569 
L 613.224002 -138.605513 
L 613.224013 -135.239458 
L 613.224091 -131.873402 
L 613.224498 -128.507346 
L 613.226168 -125.14129 
L 613.231546 -121.775235 
L 613.244993 -118.409179 
L 613.270679 -115.043123 
L 613.306954 -111.677068 
L 613.341832 -108.311012 
L 613.357924 -104.944956 
L 613.347146 -101.5789 
L 613.326123 -98.212845 
L 613.363071 -94.846789 
L 613.686104 -91.480733 
L 614.978134 -88.114677 
L 618.78215 -84.748622 
L 627.364937 -81.382566 
L 642.003407 -78.01651 
L 660.060392 -74.650455 
L 674.172368 -71.284399 
L 676.6416 -67.918343 
L 665.985841 -64.552287 
L 648.322304 -61.186232 
L 631.892189 -57.820176 
L 621.162932 -54.45412 
z
" style="stroke: #595959; stroke-width: 1.25"/>
    </defs>
    <g clip-path="url(#p3ce1c7827a)">
     <use xlink:href="#m6fb4c20370" x="0" y="432" style="fill: #db96c0; stroke: #595959; stroke-width: 1.25"/>
    </g>
   </g>
   <g id="PolyCollection_5">
    <defs>
     <path id="m836cb7cac3" d="M 779.813323 -56.276055 
L 763.722677 -56.276055 
L 757.847818 -57.886549 
L 749.633105 -59.497044 
L 739.420464 -61.107538 
L 728.323358 -62.718033 
L 718.143581 -64.328527 
L 710.937634 -65.939022 
L 708.3504 -67.549516 
L 711.006175 -69.160011 
L 718.264334 -70.770506 
L 728.469973 -72.381 
L 739.56587 -73.991495 
L 749.757337 -75.601989 
L 757.941449 -77.212484 
L 763.785714 -78.822978 
L 767.532783 -80.433473 
L 769.702746 -82.043967 
L 770.842212 -83.654462 
L 771.385995 -85.264956 
L 771.62168 -86.875451 
L 771.713265 -88.485945 
L 771.742677 -90.09644 
L 771.745892 -91.706934 
L 771.736761 -93.317429 
L 771.720241 -94.927923 
L 771.698897 -96.538418 
L 771.67568 -98.148912 
L 771.654566 -99.759407 
L 771.639898 -101.369901 
L 771.635047 -102.980396 
L 771.641187 -104.59089 
L 771.656841 -106.201385 
L 771.678454 -107.811879 
L 771.701707 -109.422374 
L 771.722897 -111.032868 
L 771.739799 -112.643363 
L 771.751795 -114.253857 
L 771.759443 -115.864352 
L 771.763847 -117.474846 
L 771.766148 -119.085341 
L 771.767241 -120.695836 
L 771.767714 -122.30633 
L 771.767901 -123.916825 
L 771.767969 -125.527319 
L 771.767991 -127.137814 
L 771.767998 -128.748308 
L 771.767999 -130.358803 
L 771.768 -131.969297 
L 771.768 -133.579792 
L 771.768 -135.190286 
L 771.768 -136.800781 
L 771.768 -138.411275 
L 771.768 -140.02177 
L 771.768 -141.632264 
L 771.768 -143.242759 
L 771.768 -144.853253 
L 771.768 -146.463748 
L 771.768 -148.074242 
L 771.768 -149.684737 
L 771.768 -151.295231 
L 771.768 -152.905726 
L 771.768 -154.51622 
L 771.768 -156.126715 
L 771.768 -157.737209 
L 771.768 -159.347704 
L 771.768 -160.958198 
L 771.768 -162.568693 
L 771.768 -164.179187 
L 771.768 -165.789682 
L 771.768 -167.400176 
L 771.768 -169.010671 
L 771.768 -170.621166 
L 771.768 -172.23166 
L 771.768 -173.842155 
L 771.767998 -175.452649 
L 771.767992 -177.063144 
L 771.767968 -178.673638 
L 771.767882 -180.284133 
L 771.767607 -181.894627 
L 771.766796 -183.505122 
L 771.764603 -185.115616 
L 771.759196 -186.726111 
L 771.747026 -188.336605 
L 771.722076 -189.9471 
L 771.675581 -191.557594 
L 771.597055 -193.168089 
L 771.477385 -194.778583 
L 771.313901 -196.389078 
L 771.11584 -197.999572 
L 770.907147 -199.610067 
L 770.723579 -201.220561 
L 770.60335 -202.831056 
L 770.574317 -204.44155 
L 770.643507 -206.052045 
L 770.794356 -207.662539 
L 770.993146 -209.273034 
L 771.201218 -210.883528 
L 771.386942 -212.494023 
L 771.532526 -214.104517 
L 771.634255 -215.715012 
L 771.901745 -215.715012 
L 771.901745 -215.715012 
L 772.003474 -214.104517 
L 772.149058 -212.494023 
L 772.334782 -210.883528 
L 772.542854 -209.273034 
L 772.741644 -207.662539 
L 772.892493 -206.052045 
L 772.961683 -204.44155 
L 772.93265 -202.831056 
L 772.812421 -201.220561 
L 772.628853 -199.610067 
L 772.42016 -197.999572 
L 772.222099 -196.389078 
L 772.058615 -194.778583 
L 771.938945 -193.168089 
L 771.860419 -191.557594 
L 771.813924 -189.9471 
L 771.788974 -188.336605 
L 771.776804 -186.726111 
L 771.771397 -185.115616 
L 771.769204 -183.505122 
L 771.768393 -181.894627 
L 771.768118 -180.284133 
L 771.768032 -178.673638 
L 771.768008 -177.063144 
L 771.768002 -175.452649 
L 771.768 -173.842155 
L 771.768 -172.23166 
L 771.768 -170.621166 
L 771.768 -169.010671 
L 771.768 -167.400176 
L 771.768 -165.789682 
L 771.768 -164.179187 
L 771.768 -162.568693 
L 771.768 -160.958198 
L 771.768 -159.347704 
L 771.768 -157.737209 
L 771.768 -156.126715 
L 771.768 -154.51622 
L 771.768 -152.905726 
L 771.768 -151.295231 
L 771.768 -149.684737 
L 771.768 -148.074242 
L 771.768 -146.463748 
L 771.768 -144.853253 
L 771.768 -143.242759 
L 771.768 -141.632264 
L 771.768 -140.02177 
L 771.768 -138.411275 
L 771.768 -136.800781 
L 771.768 -135.190286 
L 771.768 -133.579792 
L 771.768 -131.969297 
L 771.768001 -130.358803 
L 771.768002 -128.748308 
L 771.768009 -127.137814 
L 771.768031 -125.527319 
L 771.768099 -123.916825 
L 771.768286 -122.30633 
L 771.768759 -120.695836 
L 771.769852 -119.085341 
L 771.772153 -117.474846 
L 771.776557 -115.864352 
L 771.784205 -114.253857 
L 771.796201 -112.643363 
L 771.813103 -111.032868 
L 771.834293 -109.422374 
L 771.857546 -107.811879 
L 771.879159 -106.201385 
L 771.894813 -104.59089 
L 771.900953 -102.980396 
L 771.896102 -101.369901 
L 771.881434 -99.759407 
L 771.86032 -98.148912 
L 771.837103 -96.538418 
L 771.815759 -94.927923 
L 771.799239 -93.317429 
L 771.790108 -91.706934 
L 771.793323 -90.09644 
L 771.822735 -88.485945 
L 771.91432 -86.875451 
L 772.150005 -85.264956 
L 772.693788 -83.654462 
L 773.833254 -82.043967 
L 776.003217 -80.433473 
L 779.750286 -78.822978 
L 785.594551 -77.212484 
L 793.778663 -75.601989 
L 803.97013 -73.991495 
L 815.066027 -72.381 
L 825.271666 -70.770506 
L 832.529825 -69.160011 
L 835.1856 -67.549516 
L 832.598366 -65.939022 
L 825.392419 -64.328527 
L 815.212642 -62.718033 
L 804.115536 -61.107538 
L 793.902895 -59.497044 
L 785.688182 -57.886549 
L 779.813323 -56.276055 
z
" style="stroke: #595959; stroke-width: 1.25"/>
    </defs>
    <g clip-path="url(#p3ce1c7827a)">
     <use xlink:href="#m836cb7cac3" x="0" y="432" style="fill: #a2c865; stroke: #595959; stroke-width: 1.25"/>
    </g>
   </g>
   <g id="line2d_9">
    <path d="M 137.592 363.485483 
L 137.592 363.570506 
" clip-path="url(#p3ce1c7827a)" style="fill: none; stroke: #000000"/>
   </g>
   <g id="line2d_10">
    <path d="M 137.592 363.325439 
L 137.592 363.130385 
" clip-path="url(#p3ce1c7827a)" style="fill: none; stroke: #000000"/>
   </g>
   <g id="line2d_11">
    <path d="M 131.6466 363.570506 
L 143.5374 363.570506 
" clip-path="url(#p3ce1c7827a)" style="fill: none; stroke: #000000; stroke-linecap: round"/>
   </g>
   <g id="line2d_12">
    <path d="M 131.6466 363.130385 
L 143.5374 363.130385 
" clip-path="url(#p3ce1c7827a)" style="fill: none; stroke: #000000; stroke-linecap: round"/>
   </g>
   <g id="line2d_13">
    <path d="M 296.136 364.13066 
L 296.136 364.265697 
" clip-path="url(#p3ce1c7827a)" style="fill: none; stroke: #000000"/>
   </g>
   <g id="line2d_14">
    <path d="M 296.136 363.995623 
L 296.136 363.795568 
" clip-path="url(#p3ce1c7827a)" style="fill: none; stroke: #000000"/>
   </g>
   <g id="line2d_15">
    <path d="M 290.1906 364.265697 
L 302.0814 364.265697 
" clip-path="url(#p3ce1c7827a)" style="fill: none; stroke: #000000; stroke-linecap: round"/>
   </g>
   <g id="line2d_16">
    <path d="M 290.1906 363.795568 
L 302.0814 363.795568 
" clip-path="url(#p3ce1c7827a)" style="fill: none; stroke: #000000; stroke-linecap: round"/>
   </g>
   <g id="line2d_17">
    <path d="M 454.68 360.009529 
L 454.68 360.144566 
" clip-path="url(#p3ce1c7827a)" style="fill: none; stroke: #000000"/>
   </g>
   <g id="line2d_18">
    <path d="M 454.68 359.289331 
L 454.68 358.304061 
" clip-path="url(#p3ce1c7827a)" style="fill: none; stroke: #000000"/>
   </g>
   <g id="line2d_19">
    <path d="M 448.7346 360.144566 
L 460.6254 360.144566 
" clip-path="url(#p3ce1c7827a)" style="fill: none; stroke: #000000; stroke-linecap: round"/>
   </g>
   <g id="line2d_20">
    <path d="M 448.7346 358.304061 
L 460.6254 358.304061 
" clip-path="url(#p3ce1c7827a)" style="fill: none; stroke: #000000; stroke-linecap: round"/>
   </g>
   <g id="line2d_21">
    <path d="M 613.224 363.195403 
L 613.224 363.325439 
" clip-path="url(#p3ce1c7827a)" style="fill: none; stroke: #000000"/>
   </g>
   <g id="line2d_22">
    <path d="M 613.224 362.849058 
L 613.224 362.330166 
" clip-path="url(#p3ce1c7827a)" style="fill: none; stroke: #000000"/>
   </g>
   <g id="line2d_23">
    <path d="M 607.2786 363.325439 
L 619.1694 363.325439 
" clip-path="url(#p3ce1c7827a)" style="fill: none; stroke: #000000; stroke-linecap: round"/>
   </g>
   <g id="line2d_24">
    <path d="M 607.2786 362.330166 
L 619.1694 362.330166 
" clip-path="url(#p3ce1c7827a)" style="fill: none; stroke: #000000; stroke-linecap: round"/>
   </g>
   <g id="line2d_25">
    <path d="M 771.768 364.525768 
L 771.768 364.6408 
" clip-path="url(#p3ce1c7827a)" style="fill: none; stroke: #000000"/>
   </g>
   <g id="line2d_26">
    <path d="M 771.768 364.400734 
L 771.768 364.220685 
" clip-path="url(#p3ce1c7827a)" style="fill: none; stroke: #000000"/>
   </g>
   <g id="line2d_27">
    <path d="M 765.8226 364.6408 
L 777.7134 364.6408 
" clip-path="url(#p3ce1c7827a)" style="fill: none; stroke: #000000; stroke-linecap: round"/>
   </g>
   <g id="line2d_28">
    <path d="M 765.8226 364.220685 
L 777.7134 364.220685 
" clip-path="url(#p3ce1c7827a)" style="fill: none; stroke: #000000; stroke-linecap: round"/>
   </g>
   <g id="line2d_29">
    <path d="M 125.7012 363.420465 
L 149.4828 363.420465 
" clip-path="url(#p3ce1c7827a)" style="fill: none; stroke: #ff0000; stroke-width: 2"/>
   </g>
   <g id="line2d_30">
    <path d="M 284.2452 364.080646 
L 308.0268 364.080646 
" clip-path="url(#p3ce1c7827a)" style="fill: none; stroke: #ff0000; stroke-width: 2"/>
   </g>
   <g id="line2d_31">
    <path d="M 442.7892 359.937009 
L 466.5708 359.937009 
" clip-path="url(#p3ce1c7827a)" style="fill: none; stroke: #ff0000; stroke-width: 2"/>
   </g>
   <g id="line2d_32">
    <path d="M 601.3332 363.140388 
L 625.1148 363.140388 
" clip-path="url(#p3ce1c7827a)" style="fill: none; stroke: #ff0000; stroke-width: 2"/>
   </g>
   <g id="line2d_33">
    <path d="M 759.8772 364.470753 
L 783.6588 364.470753 
" clip-path="url(#p3ce1c7827a)" style="fill: none; stroke: #ff0000; stroke-width: 2"/>
   </g>
   <g id="patch_3">
    <path d="M 58.32 395.14 
L 58.32 27.6 
" style="fill: none; stroke: #cccccc; stroke-width: 1.25; stroke-linejoin: miter; stroke-linecap: square"/>
   </g>
   <g id="patch_4">
    <path d="M 851.04 395.14 
L 851.04 27.6 
" style="fill: none; stroke: #cccccc; stroke-width: 1.25; stroke-linejoin: miter; stroke-linecap: square"/>
   </g>
   <g id="patch_5">
    <path d="M 58.32 395.14 
L 851.04 395.14 
" style="fill: none; stroke: #cccccc; stroke-width: 1.25; stroke-linejoin: miter; stroke-linecap: square"/>
   </g>
   <g id="patch_6">
    <path d="M 58.32 27.6 
L 851.04 27.6 
" style="fill: none; stroke: #cccccc; stroke-width: 1.25; stroke-linejoin: miter; stroke-linecap: square"/>
   </g>
   <g id="text_15">
    <!-- Handshake duration on QUIC with mldsa65 signature algorithm — Local YDE (35ms/2%) -->
    <g style="fill: #262626" transform="translate(190.397812 21.6) scale(0.12 -0.12)">
     <defs>
      <path id="DejaVuSans-51" d="M 2522 4238 
Q 1834 4238 1429 3725 
Q 1025 3213 1025 2328 
Q 1025 1447 1429 934 
Q 1834 422 2522 422 
Q 3209 422 3611 934 
Q 4013 1447 4013 2328 
Q 4013 3213 3611 3725 
Q 3209 4238 2522 4238 
z
M 3406 84 
L 4238 -825 
L 3475 -825 
L 2784 -78 
Q 2681 -84 2626 -87 
Q 2572 -91 2522 -91 
Q 1538 -91 948 567 
Q 359 1225 359 2328 
Q 359 3434 948 4092 
Q 1538 4750 2522 4750 
Q 3503 4750 4090 4092 
Q 4678 3434 4678 2328 
Q 4678 1516 4351 937 
Q 4025 359 3406 84 
z
" transform="scale(0.015625)"/>
      <path id="DejaVuSans-55" d="M 556 4666 
L 1191 4666 
L 1191 1831 
Q 1191 1081 1462 751 
Q 1734 422 2344 422 
Q 2950 422 3222 751 
Q 3494 1081 3494 1831 
L 3494 4666 
L 4128 4666 
L 4128 1753 
Q 4128 841 3676 375 
Q 3225 -91 2344 -91 
Q 1459 -91 1007 375 
Q 556 841 556 1753 
L 556 4666 
z
" transform="scale(0.015625)"/>
      <path id="DejaVuSans-49" d="M 628 4666 
L 1259 4666 
L 1259 0 
L 628 0 
L 628 4666 
z
" transform="scale(0.015625)"/>
      <path id="DejaVuSans-43" d="M 4122 4306 
L 4122 3641 
Q 3803 3938 3442 4084 
Q 3081 4231 2675 4231 
Q 1875 4231 1450 3742 
Q 1025 3253 1025 2328 
Q 1025 1406 1450 917 
Q 1875 428 2675 428 
Q 3081 428 3442 575 
Q 3803 722 4122 1019 
L 4122 359 
Q 3791 134 3420 21 
Q 3050 -91 2638 -91 
Q 1578 -91 968 557 
Q 359 1206 359 2328 
Q 359 3453 968 4101 
Q 1578 4750 2638 4750 
Q 3056 4750 3426 4639 
Q 3797 4528 4122 4306 
z
" transform="scale(0.015625)"/>
      <path id="DejaVuSans-77" d="M 269 3500 
L 844 3500 
L 1563 769 
L 2278 3500 
L 2956 3500 
L 3675 769 
L 4391 3500 
L 4966 3500 
L 4050 0 
L 3372 0 
L 2619 2869 
L 1863 0 
L 1184 0 
L 269 3500 
z
" transform="scale(0.015625)"/>
      <path id="DejaVuSans-67" d="M 2906 1791 
Q 2906 2416 2648 2759 
Q 2391 3103 1925 3103 
Q 1463 3103 1205 2759 
Q 947 2416 947 1791 
Q 947 1169 1205 825 
Q 1463 481 1925 481 
Q 2391 481 2648 825 
Q 2906 1169 2906 1791 
z
M 3481 434 
Q 3481 -459 3084 -895 
Q 2688 -1331 1869 -1331 
Q 1566 -1331 1297 -1286 
Q 1028 -1241 775 -1147 
L 775 -588 
Q 1028 -725 1275 -790 
Q 1522 -856 1778 -856 
Q 2344 -856 2625 -561 
Q 2906 -266 2906 331 
L 2906 616 
Q 2728 306 2450 153 
Q 2172 0 1784 0 
Q 1141 0 747 490 
Q 353 981 353 1791 
Q 353 2603 747 3093 
Q 1141 3584 1784 3584 
Q 2172 3584 2450 3431 
Q 2728 3278 2906 2969 
L 2906 3500 
L 3481 3500 
L 3481 434 
z
" transform="scale(0.015625)"/>
      <path id="DejaVuSans-2014" d="M 313 1978 
L 6088 1978 
L 6088 1528 
L 313 1528 
L 313 1978 
z
" transform="scale(0.015625)"/>
      <path id="DejaVuSans-4c" d="M 628 4666 
L 1259 4666 
L 1259 531 
L 3531 531 
L 3531 0 
L 628 0 
L 628 4666 
z
" transform="scale(0.015625)"/>
      <path id="DejaVuSans-63" d="M 3122 3366 
L 3122 2828 
Q 2878 2963 2633 3030 
Q 2388 3097 2138 3097 
Q 1578 3097 1268 2742 
Q 959 2388 959 1747 
Q 959 1106 1268 751 
Q 1578 397 2138 397 
Q 2388 397 2633 464 
Q 2878 531 3122 666 
L 3122 134 
Q 2881 22 2623 -34 
Q 2366 -91 2075 -91 
Q 1284 -91 818 406 
Q 353 903 353 1747 
Q 353 2603 823 3093 
Q 1294 3584 2113 3584 
Q 2378 3584 2631 3529 
Q 2884 3475 3122 3366 
z
" transform="scale(0.015625)"/>
      <path id="DejaVuSans-59" d="M -13 4666 
L 666 4666 
L 1959 2747 
L 3244 4666 
L 3922 4666 
L 2272 2222 
L 2272 0 
L 1638 0 
L 1638 2222 
L -13 4666 
z
" transform="scale(0.015625)"/>
      <path id="DejaVuSans-44" d="M 1259 4147 
L 1259 519 
L 2022 519 
Q 2988 519 3436 956 
Q 3884 1394 3884 2338 
Q 3884 3275 3436 3711 
Q 2988 4147 2022 4147 
L 1259 4147 
z
M 628 4666 
L 1925 4666 
Q 3281 4666 3915 4102 
Q 4550 3538 4550 2338 
Q 4550 1131 3912 565 
Q 3275 0 1925 0 
L 628 0 
L 628 4666 
z
" transform="scale(0.015625)"/>
      <path id="DejaVuSans-45" d="M 628 4666 
L 3578 4666 
L 3578 4134 
L 1259 4134 
L 1259 2753 
L 3481 2753 
L 3481 2222 
L 1259 2222 
L 1259 531 
L 3634 531 
L 3634 0 
L 628 0 
L 628 4666 
z
" transform="scale(0.015625)"/>
      <path id="DejaVuSans-2f" d="M 1625 4666 
L 2156 4666 
L 531 -594 
L 0 -594 
L 1625 4666 
z
" transform="scale(0.015625)"/>
      <path id="DejaVuSans-25" d="M 4653 2053 
Q 4381 2053 4226 1822 
Q 4072 1591 4072 1178 
Q 4072 772 4226 539 
Q 4381 306 4653 306 
Q 4919 306 5073 539 
Q 5228 772 5228 1178 
Q 5228 1588 5073 1820 
Q 4919 2053 4653 2053 
z
M 4653 2450 
Q 5147 2450 5437 2106 
Q 5728 1763 5728 1178 
Q 5728 594 5436 251 
Q 5144 -91 4653 -91 
Q 4153 -91 3862 251 
Q 3572 594 3572 1178 
Q 3572 1766 3864 2108 
Q 4156 2450 4653 2450 
z
M 1428 4353 
Q 1159 4353 1004 4120 
Q 850 3888 850 3481 
Q 850 3069 1003 2837 
Q 1156 2606 1428 2606 
Q 1700 2606 1854 2837 
Q 2009 3069 2009 3481 
Q 2009 3884 1853 4118 
Q 1697 4353 1428 4353 
z
M 4250 4750 
L 4750 4750 
L 1831 -91 
L 1331 -91 
L 4250 4750 
z
M 1428 4750 
Q 1922 4750 2215 4408 
Q 2509 4066 2509 3481 
Q 2509 2891 2217 2550 
Q 1925 2209 1428 2209 
Q 931 2209 642 2551 
Q 353 2894 353 3481 
Q 353 4063 643 4406 
Q 934 4750 1428 4750 
z
" transform="scale(0.015625)"/>
     </defs>
     <use xlink:href="#DejaVuSans-48"/>
     <use xlink:href="#DejaVuSans-61" x="75.195312"/>
     <use xlink:href="#DejaVuSans-6e" x="136.474609"/>
     <use xlink:href="#DejaVuSans-64" x="199.853516"/>
     <use xlink:href="#DejaVuSans-73" x="263.330078"/>
     <use xlink:href="#DejaVuSans-68" x="315.429688"/>
     <use xlink:href="#DejaVuSans-61" x="378.808594"/>
     <use xlink:href="#DejaVuSans-6b" x="440.087891"/>
     <use xlink:href="#DejaVuSans-65" x="494.373047"/>
     <use xlink:href="#DejaVuSans-20" x="555.896484"/>
     <use xlink:href="#DejaVuSans-64" x="587.683594"/>
     <use xlink:href="#DejaVuSans-75" x="651.160156"/>
     <use xlink:href="#DejaVuSans-72" x="714.539062"/>
     <use xlink:href="#DejaVuSans-61" x="755.652344"/>
     <use xlink:href="#DejaVuSans-74" x="816.931641"/>
     <use xlink:href="#DejaVuSans-69" x="856.140625"/>
     <use xlink:href="#DejaVuSans-6f" x="883.923828"/>
     <use xlink:href="#DejaVuSans-6e" x="945.105469"/>
     <use xlink:href="#DejaVuSans-20" x="1008.484375"/>
     <use xlink:href="#DejaVuSans-6f" x="1040.271484"/>
     <use xlink:href="#DejaVuSans-6e" x="1101.453125"/>
     <use xlink:href="#DejaVuSans-20" x="1164.832031"/>
     <use xlink:href="#DejaVuSans-51" x="1196.619141"/>
     <use xlink:href="#DejaVuSans-55" x="1275.330078"/>
     <use xlink:href="#DejaVuSans-49" x="1348.523438"/>
     <use xlink:href="#DejaVuSans-43" x="1378.015625"/>
     <use xlink:href="#DejaVuSans-20" x="1447.839844"/>
     <use xlink:href="#DejaVuSans-77" x="1479.626953"/>
     <use xlink:href="#DejaVuSans-69" x="1561.414062"/>
     <use xlink:href="#DejaVuSans-74" x="1589.197266"/>
     <use xlink:href="#DejaVuSans-68" x="1628.40625"/>
     <use xlink:href="#DejaVuSans-20" x="1691.785156"/>
     <use xlink:href="#DejaVuSans-6d" x="1723.572266"/>
     <use xlink:href="#DejaVuSans-6c" x="1820.984375"/>
     <use xlink:href="#DejaVuSans-64" x="1848.767578"/>
     <use xlink:href="#DejaVuSans-73" x="1912.244141"/>
     <use xlink:href="#DejaVuSans-61" x="1964.34375"/>
     <use xlink:href="#DejaVuSans-36" x="2025.623047"/>
     <use xlink:href="#DejaVuSans-35" x="2089.246094"/>
     <use xlink:href="#DejaVuSans-20" x="2152.869141"/>
     <use xlink:href="#DejaVuSans-73" x="2184.65625"/>
     <use xlink:href="#DejaVuSans-69" x="2236.755859"/>
     <use xlink:href="#DejaVuSans-67" x="2264.539062"/>
     <use xlink:href="#DejaVuSans-6e" x="2328.015625"/>
     <use xlink:href="#DejaVuSans-61" x="2391.394531"/>
     <use xlink:href="#DejaVuSans-74" x="2452.673828"/>
     <use xlink:href="#DejaVuSans-75" x="2491.882812"/>
     <use xlink:href="#DejaVuSans-72" x="2555.261719"/>
     <use xlink:href="#DejaVuSans-65" x="2594.125"/>
     <use xlink:href="#DejaVuSans-20" x="2655.648438"/>
     <use xlink:href="#DejaVuSans-61" x="2687.435547"/>
     <use xlink:href="#DejaVuSans-6c" x="2748.714844"/>
     <use xlink:href="#DejaVuSans-67" x="2776.498047"/>
     <use xlink:href="#DejaVuSans-6f" x="2839.974609"/>
     <use xlink:href="#DejaVuSans-72" x="2901.15625"/>
     <use xlink:href="#DejaVuSans-69" x="2942.269531"/>
     <use xlink:href="#DejaVuSans-74" x="2970.052734"/>
     <use xlink:href="#DejaVuSans-68" x="3009.261719"/>
     <use xlink:href="#DejaVuSans-6d" x="3072.640625"/>
     <use xlink:href="#DejaVuSans-20" x="3170.052734"/>
     <use xlink:href="#DejaVuSans-2014" x="3201.839844"/>
     <use xlink:href="#DejaVuSans-20" x="3301.839844"/>
     <use xlink:href="#DejaVuSans-4c" x="3333.626953"/>
     <use xlink:href="#DejaVuSans-6f" x="3387.589844"/>
     <use xlink:href="#DejaVuSans-63" x="3448.771484"/>
     <use xlink:href="#DejaVuSans-61" x="3503.751953"/>
     <use xlink:href="#DejaVuSans-6c" x="3565.03125"/>
     <use xlink:href="#DejaVuSans-20" x="3592.814453"/>
     <use xlink:href="#DejaVuSans-59" x="3624.601562"/>
     <use xlink:href="#DejaVuSans-44" x="3685.685547"/>
     <use xlink:href="#DejaVuSans-45" x="3762.6875"/>
     <use xlink:href="#DejaVuSans-20" x="3825.871094"/>
     <use xlink:href="#DejaVuSans-28" x="3857.658203"/>
     <use xlink:href="#DejaVuSans-33" x="3896.671875"/>
     <use xlink:href="#DejaVuSans-35" x="3960.294922"/>
     <use xlink:href="#DejaVuSans-6d" x="4023.917969"/>
     <use xlink:href="#DejaVuSans-73" x="4121.330078"/>
     <use xlink:href="#DejaVuSans-2f" x="4173.429688"/>
     <use xlink:href="#DejaVuSans-32" x="4207.121094"/>
     <use xlink:href="#DejaVuSans-25" x="4270.744141"/>
     <use xlink:href="#DejaVuSans-29" x="4365.763672"/>
    </g>
   </g>
  </g>
 </g>
 <defs>
  <clipPath id="p3ce1c7827a">
   <rect x="58.32" y="27.6" width="792.72" height="367.54"/>
  </clipPath>
 </defs>
</svg>
