<?xml version="1.0" encoding="utf-8" standalone="no"?>
<!DOCTYPE svg PUBLIC "-//W3C//DTD SVG 1.1//EN"
  "http://www.w3.org/Graphics/SVG/1.1/DTD/svg11.dtd">
<svg xmlns:xlink="http://www.w3.org/1999/xlink" width="864pt" height="432pt" viewBox="0 0 864 432" xmlns="http://www.w3.org/2000/svg" version="1.1">
 <metadata>
  <rdf:RDF xmlns:dc="http://purl.org/dc/elements/1.1/" xmlns:cc="http://creativecommons.org/ns#" xmlns:rdf="http://www.w3.org/1999/02/22-rdf-syntax-ns#">
   <cc:Work>
    <dc:type rdf:resource="http://purl.org/dc/dcmitype/StillImage"/>
    <dc:date>2026-03-21T13:58:47.267075</dc:date>
    <dc:format>image/svg+xml</dc:format>
    <dc:creator>
     <cc:Agent>
      <dc:title>Matplotlib v3.6.3, https://matplotlib.org/</dc:title>
     </cc:Agent>
    </dc:creator>
   </cc:Work>
  </rdf:RDF>
 </metadata>
 <defs>
  <style type="text/css">*{stroke-linejoin: round; stroke-linecap: butt}</style>
 </defs>
 <g id="figure_1">
  <g id="patch_1">
   <path d="M 0 432 
L 864 432 
L 864 0 
L 0 0 
z
" style="fill: #ffffff"/>
  </g>
  <g id="axes_1">
   <g id="patch_2">
    <path d="M 51.3 395.14 
L 851.04 395.14 
L 851.04 27.6 
L 51.3 27.6 
z
" style="fill: #ffffff"/>
   </g>
   <g id="matplotlib.axis_1">
    <g id="xtick_1">
     <g id="text_1">
      <!-- P-384 -->
      <g style="fill: #262626" transform="translate(111.324 415.277812) scale(0.14 -0.14)">
       <defs>
        <path id="DejaVuSans-50" d="M 1259 4147 
L 1259 2394 
L 2053 2394 
Q 2494 2394 2734 2622 
Q 2975 2850 2975 3272 
Q 2975 3691 2734 3919 
Q 2494 4147 2053 4147 
L 1259 4147 
z
M 628 4666 
L 2053 4666 
Q 2838 4666 3239 4311 
Q 3641 3956 3641 3272 
Q 3641 2581 3239 2228 
Q 2838 1875 2053 1875 
L 1259 1875 
L 1259 0 
L 628 0 
L 628 4666 
z
" transform="scale(0.015625)"/>
        <path id="DejaVuSans-2d" d="M 313 2009 
L 1997 2009 
L 1997 1497 
L 313 1497 
L 313 2009 
z
" transform="scale(0.015625)"/>
        <path id="DejaVuSans-33" d="M 2597 2516 
Q 3050 2419 3304 2112 
Q 3559 1806 3559 1356 
Q 3559 666 3084 287 
Q 2609 -91 1734 -91 
Q 1441 -91 1130 -33 
Q 819 25 488 141 
L 488 750 
Q 750 597 1062 519 
Q 1375 441 1716 441 
Q 2309 441 2620 675 
Q 2931 909 2931 1356 
Q 2931 1769 2642 2001 
Q 2353 2234 1838 2234 
L 1294 2234 
L 1294 2753 
L 1863 2753 
Q 2328 2753 2575 2939 
Q 2822 3125 2822 3475 
Q 2822 3834 2567 4026 
Q 2313 4219 1838 4219 
Q 1578 4219 1281 4162 
Q 984 4106 628 3988 
L 628 4550 
Q 988 4650 1302 4700 
Q 1616 4750 1894 4750 
Q 2613 4750 3031 4423 
Q 3450 4097 3450 3541 
Q 3450 3153 3228 2886 
Q 3006 2619 2597 2516 
z
" transform="scale(0.015625)"/>
        <path id="DejaVuSans-38" d="M 2034 2216 
Q 1584 2216 1326 1975 
Q 1069 1734 1069 1313 
Q 1069 891 1326 650 
Q 1584 409 2034 409 
Q 2484 409 2743 651 
Q 3003 894 3003 1313 
Q 3003 1734 2745 1975 
Q 2488 2216 2034 2216 
z
M 1403 2484 
Q 997 2584 770 2862 
Q 544 3141 544 3541 
Q 544 4100 942 4425 
Q 1341 4750 2034 4750 
Q 2731 4750 3128 4425 
Q 3525 4100 3525 3541 
Q 3525 3141 3298 2862 
Q 3072 2584 2669 2484 
Q 3125 2378 3379 2068 
Q 3634 1759 3634 1313 
Q 3634 634 3220 271 
Q 2806 -91 2034 -91 
Q 1263 -91 848 271 
Q 434 634 434 1313 
Q 434 1759 690 2068 
Q 947 2378 1403 2484 
z
M 1172 3481 
Q 1172 3119 1398 2916 
Q 1625 2713 2034 2713 
Q 2441 2713 2670 2916 
Q 2900 3119 2900 3481 
Q 2900 3844 2670 4047 
Q 2441 4250 2034 4250 
Q 1625 4250 1398 4047 
Q 1172 3844 1172 3481 
z
" transform="scale(0.015625)"/>
        <path id="DejaVuSans-34" d="M 2419 4116 
L 825 1625 
L 2419 1625 
L 2419 4116 
z
M 2253 4666 
L 3047 4666 
L 3047 1625 
L 3713 1625 
L 3713 1100 
L 3047 1100 
L 3047 0 
L 2419 0 
L 2419 1100 
L 313 1100 
L 313 1709 
L 2253 4666 
z
" transform="scale(0.015625)"/>
       </defs>
       <use xlink:href="#DejaVuSans-50"/>
       <use xlink:href="#DejaVuSans-2d" x="58.052734"/>
       <use xlink:href="#DejaVuSans-33" x="94.136719"/>
       <use xlink:href="#DejaVuSans-38" x="157.759766"/>
       <use xlink:href="#DejaVuSans-34" x="221.382812"/>
      </g>
     </g>
    </g>
    <g id="xtick_2">
     <g id="text_2">
      <!-- x448 -->
      <g style="fill: #262626" transform="translate(273.717625 415.277812) scale(0.14 -0.14)">
       <defs>
        <path id="DejaVuSans-78" d="M 3513 3500 
L 2247 1797 
L 3578 0 
L 2900 0 
L 1881 1375 
L 863 0 
L 184 0 
L 1544 1831 
L 300 3500 
L 978 3500 
L 1906 2253 
L 2834 3500 
L 3513 3500 
z
" transform="scale(0.015625)"/>
       </defs>
       <use xlink:href="#DejaVuSans-78"/>
       <use xlink:href="#DejaVuSans-34" x="59.179688"/>
       <use xlink:href="#DejaVuSans-34" x="122.802734"/>
       <use xlink:href="#DejaVuSans-38" x="186.425781"/>
      </g>
     </g>
    </g>
    <g id="xtick_3">
     <g id="text_3">
      <!-- p384_mlkem768 -->
      <g style="fill: #262626" transform="translate(392.815156 415.277812) scale(0.14 -0.14)">
       <defs>
        <path id="DejaVuSans-70" d="M 1159 525 
L 1159 -1331 
L 581 -1331 
L 581 3500 
L 1159 3500 
L 1159 2969 
Q 1341 3281 1617 3432 
Q 1894 3584 2278 3584 
Q 2916 3584 3314 3078 
Q 3713 2572 3713 1747 
Q 3713 922 3314 415 
Q 2916 -91 2278 -91 
Q 1894 -91 1617 61 
Q 1341 213 1159 525 
z
M 3116 1747 
Q 3116 2381 2855 2742 
Q 2594 3103 2138 3103 
Q 1681 3103 1420 2742 
Q 1159 2381 1159 1747 
Q 1159 1113 1420 752 
Q 1681 391 2138 391 
Q 2594 391 2855 752 
Q 3116 1113 3116 1747 
z
" transform="scale(0.015625)"/>
        <path id="DejaVuSans-5f" d="M 3263 -1063 
L 3263 -1509 
L -63 -1509 
L -63 -1063 
L 3263 -1063 
z
" transform="scale(0.015625)"/>
        <path id="DejaVuSans-6d" d="M 3328 2828 
Q 3544 3216 3844 3400 
Q 4144 3584 4550 3584 
Q 5097 3584 5394 3201 
Q 5691 2819 5691 2113 
L 5691 0 
L 5113 0 
L 5113 2094 
Q 5113 2597 4934 2840 
Q 4756 3084 4391 3084 
Q 3944 3084 3684 2787 
Q 3425 2491 3425 1978 
L 3425 0 
L 2847 0 
L 2847 2094 
Q 2847 2600 2669 2842 
Q 2491 3084 2119 3084 
Q 1678 3084 1418 2786 
Q 1159 2488 1159 1978 
L 1159 0 
L 581 0 
L 581 3500 
L 1159 3500 
L 1159 2956 
Q 1356 3278 1631 3431 
Q 1906 3584 2284 3584 
Q 2666 3584 2933 3390 
Q 3200 3197 3328 2828 
z
" transform="scale(0.015625)"/>
        <path id="DejaVuSans-6c" d="M 603 4863 
L 1178 4863 
L 1178 0 
L 603 0 
L 603 4863 
z
" transform="scale(0.015625)"/>
        <path id="DejaVuSans-6b" d="M 581 4863 
L 1159 4863 
L 1159 1991 
L 2875 3500 
L 3609 3500 
L 1753 1863 
L 3688 0 
L 2938 0 
L 1159 1709 
L 1159 0 
L 581 0 
L 581 4863 
z
" transform="scale(0.015625)"/>
        <path id="DejaVuSans-65" d="M 3597 1894 
L 3597 1613 
L 953 1613 
Q 991 1019 1311 708 
Q 1631 397 2203 397 
Q 2534 397 2845 478 
Q 3156 559 3463 722 
L 3463 178 
Q 3153 47 2828 -22 
Q 2503 -91 2169 -91 
Q 1331 -91 842 396 
Q 353 884 353 1716 
Q 353 2575 817 3079 
Q 1281 3584 2069 3584 
Q 2775 3584 3186 3129 
Q 3597 2675 3597 1894 
z
M 3022 2063 
Q 3016 2534 2758 2815 
Q 2500 3097 2075 3097 
Q 1594 3097 1305 2825 
Q 1016 2553 972 2059 
L 3022 2063 
z
" transform="scale(0.015625)"/>
        <path id="DejaVuSans-37" d="M 525 4666 
L 3525 4666 
L 3525 4397 
L 1831 0 
L 1172 0 
L 2766 4134 
L 525 4134 
L 525 4666 
z
" transform="scale(0.015625)"/>
        <path id="DejaVuSans-36" d="M 2113 2584 
Q 1688 2584 1439 2293 
Q 1191 2003 1191 1497 
Q 1191 994 1439 701 
Q 1688 409 2113 409 
Q 2538 409 2786 701 
Q 3034 994 3034 1497 
Q 3034 2003 2786 2293 
Q 2538 2584 2113 2584 
z
M 3366 4563 
L 3366 3988 
Q 3128 4100 2886 4159 
Q 2644 4219 2406 4219 
Q 1781 4219 1451 3797 
Q 1122 3375 1075 2522 
Q 1259 2794 1537 2939 
Q 1816 3084 2150 3084 
Q 2853 3084 3261 2657 
Q 3669 2231 3669 1497 
Q 3669 778 3244 343 
Q 2819 -91 2113 -91 
Q 1303 -91 875 529 
Q 447 1150 447 2328 
Q 447 3434 972 4092 
Q 1497 4750 2381 4750 
Q 2619 4750 2861 4703 
Q 3103 4656 3366 4563 
z
" transform="scale(0.015625)"/>
       </defs>
       <use xlink:href="#DejaVuSans-70"/>
       <use xlink:href="#DejaVuSans-33" x="63.476562"/>
       <use xlink:href="#DejaVuSans-38" x="127.099609"/>
       <use xlink:href="#DejaVuSans-34" x="190.722656"/>
       <use xlink:href="#DejaVuSans-5f" x="254.345703"/>
       <use xlink:href="#DejaVuSans-6d" x="304.345703"/>
       <use xlink:href="#DejaVuSans-6c" x="401.757812"/>
       <use xlink:href="#DejaVuSans-6b" x="429.541016"/>
       <use xlink:href="#DejaVuSans-65" x="483.826172"/>
       <use xlink:href="#DejaVuSans-6d" x="545.349609"/>
       <use xlink:href="#DejaVuSans-37" x="642.761719"/>
       <use xlink:href="#DejaVuSans-36" x="706.384766"/>
       <use xlink:href="#DejaVuSans-38" x="770.007812"/>
      </g>
     </g>
    </g>
    <g id="xtick_4">
     <g id="text_4">
      <!-- x448_mlkem768 -->
      <g style="fill: #262626" transform="translate(553.063937 415.277812) scale(0.14 -0.14)">
       <use xlink:href="#DejaVuSans-78"/>
       <use xlink:href="#DejaVuSans-34" x="59.179688"/>
       <use xlink:href="#DejaVuSans-34" x="122.802734"/>
       <use xlink:href="#DejaVuSans-38" x="186.425781"/>
       <use xlink:href="#DejaVuSans-5f" x="250.048828"/>
       <use xlink:href="#DejaVuSans-6d" x="300.048828"/>
       <use xlink:href="#DejaVuSans-6c" x="397.460938"/>
       <use xlink:href="#DejaVuSans-6b" x="425.244141"/>
       <use xlink:href="#DejaVuSans-65" x="479.529297"/>
       <use xlink:href="#DejaVuSans-6d" x="541.052734"/>
       <use xlink:href="#DejaVuSans-37" x="638.464844"/>
       <use xlink:href="#DejaVuSans-36" x="702.087891"/>
       <use xlink:href="#DejaVuSans-38" x="765.710938"/>
      </g>
     </g>
    </g>
    <g id="xtick_5">
     <g id="text_5">
      <!-- mlkem768 -->
      <g style="fill: #262626" transform="translate(734.016312 415.277812) scale(0.14 -0.14)">
       <use xlink:href="#DejaVuSans-6d"/>
       <use xlink:href="#DejaVuSans-6c" x="97.412109"/>
       <use xlink:href="#DejaVuSans-6b" x="125.195312"/>
       <use xlink:href="#DejaVuSans-65" x="179.480469"/>
       <use xlink:href="#DejaVuSans-6d" x="241.003906"/>
       <use xlink:href="#DejaVuSans-37" x="338.416016"/>
       <use xlink:href="#DejaVuSans-36" x="402.039062"/>
       <use xlink:href="#DejaVuSans-38" x="465.662109"/>
      </g>
     </g>
    </g>
   </g>
   <g id="matplotlib.axis_2">
    <g id="ytick_1">
     <g id="line2d_1">
      <path d="M 51.3 346.845303 
L 851.04 346.845303 
" clip-path="url(#p0f1633d019)" style="fill: none; stroke: #cccccc; stroke-linecap: round"/>
     </g>
     <g id="text_6">
      <!-- 5 -->
      <g style="fill: #262626" transform="translate(34.80125 351.024444) scale(0.11 -0.11)">
       <defs>
        <path id="DejaVuSans-35" d="M 691 4666 
L 3169 4666 
L 3169 4134 
L 1269 4134 
L 1269 2991 
Q 1406 3038 1543 3061 
Q 1681 3084 1819 3084 
Q 2600 3084 3056 2656 
Q 3513 2228 3513 1497 
Q 3513 744 3044 326 
Q 2575 -91 1722 -91 
Q 1428 -91 1123 -41 
Q 819 9 494 109 
L 494 744 
Q 775 591 1075 516 
Q 1375 441 1709 441 
Q 2250 441 2565 725 
Q 2881 1009 2881 1497 
Q 2881 1984 2565 2268 
Q 2250 2553 1709 2553 
Q 1456 2553 1204 2497 
Q 953 2441 691 2322 
L 691 4666 
z
" transform="scale(0.015625)"/>
       </defs>
       <use xlink:href="#DejaVuSans-35"/>
      </g>
     </g>
    </g>
    <g id="ytick_2">
     <g id="line2d_2">
      <path d="M 51.3 290.136093 
L 851.04 290.136093 
" clip-path="url(#p0f1633d019)" style="fill: none; stroke: #cccccc; stroke-linecap: round"/>
     </g>
     <g id="text_7">
      <!-- 10 -->
      <g style="fill: #262626" transform="translate(27.8025 294.315234) scale(0.11 -0.11)">
       <defs>
        <path id="DejaVuSans-31" d="M 794 531 
L 1825 531 
L 1825 4091 
L 703 3866 
L 703 4441 
L 1819 4666 
L 2450 4666 
L 2450 531 
L 3481 531 
L 3481 0 
L 794 0 
L 794 531 
z
" transform="scale(0.015625)"/>
        <path id="DejaVuSans-30" d="M 2034 4250 
Q 1547 4250 1301 3770 
Q 1056 3291 1056 2328 
Q 1056 1369 1301 889 
Q 1547 409 2034 409 
Q 2525 409 2770 889 
Q 3016 1369 3016 2328 
Q 3016 3291 2770 3770 
Q 2525 4250 2034 4250 
z
M 2034 4750 
Q 2819 4750 3233 4129 
Q 3647 3509 3647 2328 
Q 3647 1150 3233 529 
Q 2819 -91 2034 -91 
Q 1250 -91 836 529 
Q 422 1150 422 2328 
Q 422 3509 836 4129 
Q 1250 4750 2034 4750 
z
" transform="scale(0.015625)"/>
       </defs>
       <use xlink:href="#DejaVuSans-31"/>
       <use xlink:href="#DejaVuSans-30" x="63.623047"/>
      </g>
     </g>
    </g>
    <g id="ytick_3">
     <g id="line2d_3">
      <path d="M 51.3 233.426883 
L 851.04 233.426883 
" clip-path="url(#p0f1633d019)" style="fill: none; stroke: #cccccc; stroke-linecap: round"/>
     </g>
     <g id="text_8">
      <!-- 15 -->
      <g style="fill: #262626" transform="translate(27.8025 237.606024) scale(0.11 -0.11)">
       <use xlink:href="#DejaVuSans-31"/>
       <use xlink:href="#DejaVuSans-35" x="63.623047"/>
      </g>
     </g>
    </g>
    <g id="ytick_4">
     <g id="line2d_4">
      <path d="M 51.3 176.717674 
L 851.04 176.717674 
" clip-path="url(#p0f1633d019)" style="fill: none; stroke: #cccccc; stroke-linecap: round"/>
     </g>
     <g id="text_9">
      <!-- 20 -->
      <g style="fill: #262626" transform="translate(27.8025 180.896814) scale(0.11 -0.11)">
       <defs>
        <path id="DejaVuSans-32" d="M 1228 531 
L 3431 531 
L 3431 0 
L 469 0 
L 469 531 
Q 828 903 1448 1529 
Q 2069 2156 2228 2338 
Q 2531 2678 2651 2914 
Q 2772 3150 2772 3378 
Q 2772 3750 2511 3984 
Q 2250 4219 1831 4219 
Q 1534 4219 1204 4116 
Q 875 4013 500 3803 
L 500 4441 
Q 881 4594 1212 4672 
Q 1544 4750 1819 4750 
Q 2544 4750 2975 4387 
Q 3406 4025 3406 3419 
Q 3406 3131 3298 2873 
Q 3191 2616 2906 2266 
Q 2828 2175 2409 1742 
Q 1991 1309 1228 531 
z
" transform="scale(0.015625)"/>
       </defs>
       <use xlink:href="#DejaVuSans-32"/>
       <use xlink:href="#DejaVuSans-30" x="63.623047"/>
      </g>
     </g>
    </g>
    <g id="ytick_5">
     <g id="line2d_5">
      <path d="M 51.3 120.008464 
L 851.04 120.008464 
" clip-path="url(#p0f1633d019)" style="fill: none; stroke: #cccccc; stroke-linecap: round"/>
     </g>
     <g id="text_10">
      <!-- 25 -->
      <g style="fill: #262626" transform="translate(27.8025 124.187604) scale(0.11 -0.11)">
       <use xlink:href="#DejaVuSans-32"/>
       <use xlink:href="#DejaVuSans-35" x="63.623047"/>
      </g>
     </g>
    </g>
    <g id="ytick_6">
     <g id="line2d_6">
      <path d="M 51.3 63.299254 
L 851.04 63.299254 
" clip-path="url(#p0f1633d019)" style="fill: none; stroke: #cccccc; stroke-linecap: round"/>
     </g>
     <g id="text_11">
      <!-- 30 -->
      <g style="fill: #262626" transform="translate(27.8025 67.478394) scale(0.11 -0.11)">
       <use xlink:href="#DejaVuSans-33"/>
       <use xlink:href="#DejaVuSans-30" x="63.623047"/>
      </g>
     </g>
    </g>
    <g id="text_12">
     <!-- Handshake duration (ms) -->
     <g style="fill: #262626" transform="translate(21.306875 287.437813) rotate(-90) scale(0.12 -0.12)">
      <defs>
       <path id="DejaVuSans-48" d="M 628 4666 
L 1259 4666 
L 1259 2753 
L 3553 2753 
L 3553 4666 
L 4184 4666 
L 4184 0 
L 3553 0 
L 3553 2222 
L 1259 2222 
L 1259 0 
L 628 0 
L 628 4666 
z
" transform="scale(0.015625)"/>
       <path id="DejaVuSans-61" d="M 2194 1759 
Q 1497 1759 1228 1600 
Q 959 1441 959 1056 
Q 959 750 1161 570 
Q 1363 391 1709 391 
Q 2188 391 2477 730 
Q 2766 1069 2766 1631 
L 2766 1759 
L 2194 1759 
z
M 3341 1997 
L 3341 0 
L 2766 0 
L 2766 531 
Q 2569 213 2275 61 
Q 1981 -91 1556 -91 
Q 1019 -91 701 211 
Q 384 513 384 1019 
Q 384 1609 779 1909 
Q 1175 2209 1959 2209 
L 2766 2209 
L 2766 2266 
Q 2766 2663 2505 2880 
Q 2244 3097 1772 3097 
Q 1472 3097 1187 3025 
Q 903 2953 641 2809 
L 641 3341 
Q 956 3463 1253 3523 
Q 1550 3584 1831 3584 
Q 2591 3584 2966 3190 
Q 3341 2797 3341 1997 
z
" transform="scale(0.015625)"/>
       <path id="DejaVuSans-6e" d="M 3513 2113 
L 3513 0 
L 2938 0 
L 2938 2094 
Q 2938 2591 2744 2837 
Q 2550 3084 2163 3084 
Q 1697 3084 1428 2787 
Q 1159 2491 1159 1978 
L 1159 0 
L 581 0 
L 581 3500 
L 1159 3500 
L 1159 2956 
Q 1366 3272 1645 3428 
Q 1925 3584 2291 3584 
Q 2894 3584 3203 3211 
Q 3513 2838 3513 2113 
z
" transform="scale(0.015625)"/>
       <path id="DejaVuSans-64" d="M 2906 2969 
L 2906 4863 
L 3481 4863 
L 3481 0 
L 2906 0 
L 2906 525 
Q 2725 213 2448 61 
Q 2172 -91 1784 -91 
Q 1150 -91 751 415 
Q 353 922 353 1747 
Q 353 2572 751 3078 
Q 1150 3584 1784 3584 
Q 2172 3584 2448 3432 
Q 2725 3281 2906 2969 
z
M 947 1747 
Q 947 1113 1208 752 
Q 1469 391 1925 391 
Q 2381 391 2643 752 
Q 2906 1113 2906 1747 
Q 2906 2381 2643 2742 
Q 2381 3103 1925 3103 
Q 1469 3103 1208 2742 
Q 947 2381 947 1747 
z
" transform="scale(0.015625)"/>
       <path id="DejaVuSans-73" d="M 2834 3397 
L 2834 2853 
Q 2591 2978 2328 3040 
Q 2066 3103 1784 3103 
Q 1356 3103 1142 2972 
Q 928 2841 928 2578 
Q 928 2378 1081 2264 
Q 1234 2150 1697 2047 
L 1894 2003 
Q 2506 1872 2764 1633 
Q 3022 1394 3022 966 
Q 3022 478 2636 193 
Q 2250 -91 1575 -91 
Q 1294 -91 989 -36 
Q 684 19 347 128 
L 347 722 
Q 666 556 975 473 
Q 1284 391 1588 391 
Q 1994 391 2212 530 
Q 2431 669 2431 922 
Q 2431 1156 2273 1281 
Q 2116 1406 1581 1522 
L 1381 1569 
Q 847 1681 609 1914 
Q 372 2147 372 2553 
Q 372 3047 722 3315 
Q 1072 3584 1716 3584 
Q 2034 3584 2315 3537 
Q 2597 3491 2834 3397 
z
" transform="scale(0.015625)"/>
       <path id="DejaVuSans-68" d="M 3513 2113 
L 3513 0 
L 2938 0 
L 2938 2094 
Q 2938 2591 2744 2837 
Q 2550 3084 2163 3084 
Q 1697 3084 1428 2787 
Q 1159 2491 1159 1978 
L 1159 0 
L 581 0 
L 581 4863 
L 1159 4863 
L 1159 2956 
Q 1366 3272 1645 3428 
Q 1925 3584 2291 3584 
Q 2894 3584 3203 3211 
Q 3513 2838 3513 2113 
z
" transform="scale(0.015625)"/>
       <path id="DejaVuSans-20" transform="scale(0.015625)"/>
       <path id="DejaVuSans-75" d="M 544 1381 
L 544 3500 
L 1119 3500 
L 1119 1403 
Q 1119 906 1312 657 
Q 1506 409 1894 409 
Q 2359 409 2629 706 
Q 2900 1003 2900 1516 
L 2900 3500 
L 3475 3500 
L 3475 0 
L 2900 0 
L 2900 538 
Q 2691 219 2414 64 
Q 2138 -91 1772 -91 
Q 1169 -91 856 284 
Q 544 659 544 1381 
z
M 1991 3584 
L 1991 3584 
z
" transform="scale(0.015625)"/>
       <path id="DejaVuSans-72" d="M 2631 2963 
Q 2534 3019 2420 3045 
Q 2306 3072 2169 3072 
Q 1681 3072 1420 2755 
Q 1159 2438 1159 1844 
L 1159 0 
L 581 0 
L 581 3500 
L 1159 3500 
L 1159 2956 
Q 1341 3275 1631 3429 
Q 1922 3584 2338 3584 
Q 2397 3584 2469 3576 
Q 2541 3569 2628 3553 
L 2631 2963 
z
" transform="scale(0.015625)"/>
       <path id="DejaVuSans-74" d="M 1172 4494 
L 1172 3500 
L 2356 3500 
L 2356 3053 
L 1172 3053 
L 1172 1153 
Q 1172 725 1289 603 
Q 1406 481 1766 481 
L 2356 481 
L 2356 0 
L 1766 0 
Q 1100 0 847 248 
Q 594 497 594 1153 
L 594 3053 
L 172 3053 
L 172 3500 
L 594 3500 
L 594 4494 
L 1172 4494 
z
" transform="scale(0.015625)"/>
       <path id="DejaVuSans-69" d="M 603 3500 
L 1178 3500 
L 1178 0 
L 603 0 
L 603 3500 
z
M 603 4863 
L 1178 4863 
L 1178 4134 
L 603 4134 
L 603 4863 
z
" transform="scale(0.015625)"/>
       <path id="DejaVuSans-6f" d="M 1959 3097 
Q 1497 3097 1228 2736 
Q 959 2375 959 1747 
Q 959 1119 1226 758 
Q 1494 397 1959 397 
Q 2419 397 2687 759 
Q 2956 1122 2956 1747 
Q 2956 2369 2687 2733 
Q 2419 3097 1959 3097 
z
M 1959 3584 
Q 2709 3584 3137 3096 
Q 3566 2609 3566 1747 
Q 3566 888 3137 398 
Q 2709 -91 1959 -91 
Q 1206 -91 779 398 
Q 353 888 353 1747 
Q 353 2609 779 3096 
Q 1206 3584 1959 3584 
z
" transform="scale(0.015625)"/>
       <path id="DejaVuSans-28" d="M 1984 4856 
Q 1566 4138 1362 3434 
Q 1159 2731 1159 2009 
Q 1159 1288 1364 580 
Q 1569 -128 1984 -844 
L 1484 -844 
Q 1016 -109 783 600 
Q 550 1309 550 2009 
Q 550 2706 781 3412 
Q 1013 4119 1484 4856 
L 1984 4856 
z
" transform="scale(0.015625)"/>
       <path id="DejaVuSans-29" d="M 513 4856 
L 1013 4856 
Q 1481 4119 1714 3412 
Q 1947 2706 1947 2009 
Q 1947 1309 1714 600 
Q 1481 -109 1013 -844 
L 513 -844 
Q 928 -128 1133 580 
Q 1338 1288 1338 2009 
Q 1338 2731 1133 3434 
Q 928 4138 513 4856 
z
" transform="scale(0.015625)"/>
      </defs>
      <use xlink:href="#DejaVuSans-48"/>
      <use xlink:href="#DejaVuSans-61" x="75.195312"/>
      <use xlink:href="#DejaVuSans-6e" x="136.474609"/>
      <use xlink:href="#DejaVuSans-64" x="199.853516"/>
      <use xlink:href="#DejaVuSans-73" x="263.330078"/>
      <use xlink:href="#DejaVuSans-68" x="315.429688"/>
      <use xlink:href="#DejaVuSans-61" x="378.808594"/>
      <use xlink:href="#DejaVuSans-6b" x="440.087891"/>
      <use xlink:href="#DejaVuSans-65" x="494.373047"/>
      <use xlink:href="#DejaVuSans-20" x="555.896484"/>
      <use xlink:href="#DejaVuSans-64" x="587.683594"/>
      <use xlink:href="#DejaVuSans-75" x="651.160156"/>
      <use xlink:href="#DejaVuSans-72" x="714.539062"/>
      <use xlink:href="#DejaVuSans-61" x="755.652344"/>
      <use xlink:href="#DejaVuSans-74" x="816.931641"/>
      <use xlink:href="#DejaVuSans-69" x="856.140625"/>
      <use xlink:href="#DejaVuSans-6f" x="883.923828"/>
      <use xlink:href="#DejaVuSans-6e" x="945.105469"/>
      <use xlink:href="#DejaVuSans-20" x="1008.484375"/>
      <use xlink:href="#DejaVuSans-28" x="1040.271484"/>
      <use xlink:href="#DejaVuSans-6d" x="1079.285156"/>
      <use xlink:href="#DejaVuSans-73" x="1176.697266"/>
      <use xlink:href="#DejaVuSans-29" x="1228.796875"/>
     </g>
    </g>
   </g>
   <g id="PolyCollection_1">
    <defs>
     <path id="m90b94db4cb" d="M 131.678231 -86.568666 
L 130.869769 -86.568666 
L 130.462553 -87.363817 
L 129.731695 -88.158967 
L 128.49608 -88.954118 
L 126.528774 -89.749268 
L 123.580604 -90.544419 
L 119.426479 -91.33957 
L 113.932115 -92.13472 
L 107.129221 -92.929871 
L 99.277922 -93.725021 
L 90.890759 -94.520172 
L 82.697277 -95.315322 
L 75.543091 -96.110473 
L 70.239004 -96.905623 
L 67.396348 -97.700774 
L 67.2948 -98.495925 
L 69.822595 -99.291075 
L 74.507222 -100.086226 
L 80.626026 -100.881376 
L 87.36235 -101.676527 
L 93.962949 -102.471677 
L 99.858076 -103.266828 
L 104.72177 -104.061978 
L 108.468766 -104.857129 
L 111.199802 -105.652279 
L 113.116525 -106.44743 
L 114.430574 -107.242581 
L 115.28997 -108.037731 
L 115.740246 -108.832882 
L 115.728626 -109.628032 
L 115.148199 -110.423183 
L 113.907695 -111.218333 
L 112.004298 -112.013484 
L 109.574731 -112.808634 
L 106.905163 -113.603785 
L 104.392538 -114.398936 
L 102.465129 -115.194086 
L 101.484066 -115.989237 
L 101.65526 -116.784387 
L 102.979644 -117.579538 
L 105.258277 -118.374688 
L 108.150786 -119.169839 
L 111.267264 -119.964989 
L 114.262612 -120.76014 
L 116.903627 -121.555291 
L 119.092165 -122.350441 
L 120.846001 -123.145592 
L 122.253706 -123.940742 
L 123.424997 -124.735893 
L 124.453413 -125.531043 
L 125.398388 -126.326194 
L 126.284586 -127.121344 
L 127.111499 -127.916495 
L 127.865942 -128.711645 
L 128.532533 -129.506796 
L 129.100249 -130.301947 
L 129.565233 -131.097097 
L 129.930927 -131.892248 
L 130.206611 -132.687398 
L 130.40517 -133.482549 
L 130.540771 -134.277699 
L 130.627028 -135.07285 
L 130.676102 -135.868 
L 130.698785 -136.663151 
L 130.705136 -137.458302 
L 130.704995 -138.253452 
L 130.707793 -139.048603 
L 130.721582 -139.843753 
L 130.751677 -140.638904 
L 130.799579 -141.434054 
L 130.862744 -142.229205 
L 130.935405 -143.024355 
L 131.010205 -143.819506 
L 131.080084 -144.614657 
L 131.139812 -145.409807 
L 131.186749 -146.204958 
L 131.220751 -147.000108 
L 131.243459 -147.795259 
L 131.257341 -148.590409 
L 131.264833 -149.38556 
L 131.267739 -150.18071 
L 131.266933 -150.975861 
L 131.26228 -151.771011 
L 131.252758 -152.566162 
L 131.236783 -153.361313 
L 131.21281 -154.156463 
L 131.180166 -154.951614 
L 131.139961 -155.746764 
L 131.095684 -156.541915 
L 131.053089 -157.337065 
L 131.019138 -158.132216 
L 131.000186 -158.927366 
L 131.000054 -159.722517 
L 131.018767 -160.517668 
L 131.052554 -161.312818 
L 131.095079 -162.107969 
L 131.139379 -162.903119 
L 131.179675 -163.69827 
L 131.212453 -164.49342 
L 131.236603 -165.288571 
L 131.311397 -165.288571 
L 131.311397 -165.288571 
L 131.335547 -164.49342 
L 131.368325 -163.69827 
L 131.408621 -162.903119 
L 131.452921 -162.107969 
L 131.495446 -161.312818 
L 131.529233 -160.517668 
L 131.547946 -159.722517 
L 131.547814 -158.927366 
L 131.528862 -158.132216 
L 131.494911 -157.337065 
L 131.452316 -156.541915 
L 131.408039 -155.746764 
L 131.367834 -154.951614 
L 131.33519 -154.156463 
L 131.311217 -153.361313 
L 131.295242 -152.566162 
L 131.28572 -151.771011 
L 131.281067 -150.975861 
L 131.280261 -150.18071 
L 131.283167 -149.38556 
L 131.290659 -148.590409 
L 131.304541 -147.795259 
L 131.327249 -147.000108 
L 131.361251 -146.204958 
L 131.408188 -145.409807 
L 131.467916 -144.614657 
L 131.537795 -143.819506 
L 131.612595 -143.024355 
L 131.685256 -142.229205 
L 131.748421 -141.434054 
L 131.796323 -140.638904 
L 131.826418 -139.843753 
L 131.840207 -139.048603 
L 131.843005 -138.253452 
L 131.842864 -137.458302 
L 131.849215 -136.663151 
L 131.871898 -135.868 
L 131.920972 -135.07285 
L 132.007229 -134.277699 
L 132.14283 -133.482549 
L 132.341389 -132.687398 
L 132.617073 -131.892248 
L 132.982767 -131.097097 
L 133.447751 -130.301947 
L 134.015467 -129.506796 
L 134.682058 -128.711645 
L 135.436501 -127.916495 
L 136.263414 -127.121344 
L 137.149612 -126.326194 
L 138.094587 -125.531043 
L 139.123003 -124.735893 
L 140.294294 -123.940742 
L 141.701999 -123.145592 
L 143.455835 -122.350441 
L 145.644373 -121.555291 
L 148.285388 -120.76014 
L 151.280736 -119.964989 
L 154.397214 -119.169839 
L 157.289723 -118.374688 
L 159.568356 -117.579538 
L 160.89274 -116.784387 
L 161.063934 -115.989237 
L 160.082871 -115.194086 
L 158.155462 -114.398936 
L 155.642837 -113.603785 
L 152.973269 -112.808634 
L 150.543702 -112.013484 
L 148.640305 -111.218333 
L 147.399801 -110.423183 
L 146.819374 -109.628032 
L 146.807754 -108.832882 
L 147.25803 -108.037731 
L 148.117426 -107.242581 
L 149.431475 -106.44743 
L 151.348198 -105.652279 
L 154.079234 -104.857129 
L 157.82623 -104.061978 
L 162.689924 -103.266828 
L 168.585051 -102.471677 
L 175.18565 -101.676527 
L 181.921974 -100.881376 
L 188.040778 -100.086226 
L 192.725405 -99.291075 
L 195.2532 -98.495925 
L 195.151652 -97.700774 
L 192.308996 -96.905623 
L 187.004909 -96.110473 
L 179.850723 -95.315322 
L 171.657241 -94.520172 
L 163.270078 -93.725021 
L 155.418779 -92.929871 
L 148.615885 -92.13472 
L 143.121521 -91.33957 
L 138.967396 -90.544419 
L 136.019226 -89.749268 
L 134.05192 -88.954118 
L 132.816305 -88.158967 
L 132.085447 -87.363817 
L 131.678231 -86.568666 
z
" style="stroke: #595959; stroke-width: 1.25"/>
    </defs>
    <g clip-path="url(#p0f1633d019)">
     <use xlink:href="#m90b94db4cb" x="0" y="432" style="fill: #72b6a1; stroke: #595959; stroke-width: 1.25"/>
    </g>
   </g>
   <g id="PolyCollection_2">
    <defs>
     <path id="mc2ab68a5a6" d="M 291.526753 -66.089238 
L 290.917247 -66.089238 
L 290.56773 -66.62906 
L 289.906744 -67.168882 
L 288.739103 -67.708704 
L 286.809387 -68.248527 
L 283.824277 -68.788349 
L 279.505492 -69.328171 
L 273.675239 -69.867993 
L 266.361524 -70.407816 
L 257.891978 -70.947638 
L 248.931461 -71.48746 
L 240.42283 -72.027282 
L 233.419058 -72.567105 
L 228.841604 -73.106927 
L 227.2428 -73.646749 
L 228.661756 -74.186572 
L 232.630415 -74.726394 
L 238.322657 -75.266216 
L 244.780865 -75.806038 
L 251.13422 -76.345861 
L 256.746482 -76.885683 
L 261.274104 -77.425505 
L 264.648207 -77.965327 
L 267.004927 -78.50515 
L 268.587309 -79.044972 
L 269.641979 -79.584794 
L 270.337505 -80.124617 
L 270.730246 -80.664439 
L 270.790169 -81.204261 
L 270.47539 -81.744083 
L 269.820695 -82.283906 
L 268.995071 -82.823728 
L 268.294252 -83.36355 
L 268.064103 -83.903372 
L 268.585786 -84.443195 
L 269.974849 -84.983017 
L 272.140462 -85.522839 
L 274.820675 -86.062662 
L 277.672584 -86.602484 
L 280.374151 -87.142306 
L 282.697312 -87.682128 
L 284.533854 -88.221951 
L 285.880098 -88.761773 
L 286.800399 -89.301595 
L 287.389461 -89.841417 
L 287.745083 -90.38124 
L 287.953727 -90.921062 
L 288.085614 -91.460884 
L 288.194267 -92.000707 
L 288.316538 -92.540529 
L 288.471723 -93.080351 
L 288.661216 -93.620173 
L 288.87146 -94.159996 
L 289.081586 -94.699818 
L 289.273786 -95.23964 
L 289.441613 -95.779462 
L 289.591692 -96.319285 
L 289.738041 -96.859107 
L 289.892848 -97.398929 
L 290.059623 -97.938752 
L 290.232548 -98.478574 
L 290.401265 -99.018396 
L 290.556925 -99.558218 
L 290.695392 -100.098041 
L 290.81648 -100.637863 
L 290.921176 -101.177685 
L 291.00959 -101.717507 
L 291.080914 -102.25733 
L 291.134711 -102.797152 
L 291.172068 -103.336974 
L 291.195729 -103.876796 
L 291.209331 -104.416619 
L 291.216414 -104.956441 
L 291.219751 -105.496263 
L 291.221174 -106.036086 
L 291.221723 -106.575908 
L 291.221915 -107.11573 
L 291.221973 -107.655552 
L 291.221979 -108.195375 
L 291.221941 -108.735197 
L 291.221807 -109.275019 
L 291.221407 -109.814841 
L 291.220344 -110.354664 
L 291.217787 -110.894486 
L 291.212241 -111.434308 
L 291.201415 -111.974131 
L 291.182462 -112.513953 
L 291.152852 -113.053775 
L 291.111882 -113.593597 
L 291.062322 -114.13342 
L 291.011166 -114.673242 
L 290.968519 -115.213064 
L 290.944504 -115.752886 
L 290.945383 -116.292709 
L 290.970922 -116.832531 
L 291.014486 -117.372353 
L 291.065831 -117.912176 
L 291.114984 -118.451998 
L 291.155225 -118.99182 
L 291.184061 -119.531642 
L 291.259939 -119.531642 
L 291.259939 -119.531642 
L 291.288775 -118.99182 
L 291.329016 -118.451998 
L 291.378169 -117.912176 
L 291.429514 -117.372353 
L 291.473078 -116.832531 
L 291.498617 -116.292709 
L 291.499496 -115.752886 
L 291.475481 -115.213064 
L 291.432834 -114.673242 
L 291.381678 -114.13342 
L 291.332118 -113.593597 
L 291.291148 -113.053775 
L 291.261538 -112.513953 
L 291.242585 -111.974131 
L 291.231759 -111.434308 
L 291.226213 -110.894486 
L 291.223656 -110.354664 
L 291.222593 -109.814841 
L 291.222193 -109.275019 
L 291.222059 -108.735197 
L 291.222021 -108.195375 
L 291.222027 -107.655552 
L 291.222085 -107.11573 
L 291.222277 -106.575908 
L 291.222826 -106.036086 
L 291.224249 -105.496263 
L 291.227586 -104.956441 
L 291.234669 -104.416619 
L 291.248271 -103.876796 
L 291.271932 -103.336974 
L 291.309289 -102.797152 
L 291.363086 -102.25733 
L 291.43441 -101.717507 
L 291.522824 -101.177685 
L 291.62752 -100.637863 
L 291.748608 -100.098041 
L 291.887075 -99.558218 
L 292.042735 -99.018396 
L 292.211452 -98.478574 
L 292.384377 -97.938752 
L 292.551152 -97.398929 
L 292.705959 -96.859107 
L 292.852308 -96.319285 
L 293.002387 -95.779462 
L 293.170214 -95.23964 
L 293.362414 -94.699818 
L 293.57254 -94.159996 
L 293.782784 -93.620173 
L 293.972277 -93.080351 
L 294.127462 -92.540529 
L 294.249733 -92.000707 
L 294.358386 -91.460884 
L 294.490273 -90.921062 
L 294.698917 -90.38124 
L 295.054539 -89.841417 
L 295.643601 -89.301595 
L 296.563902 -88.761773 
L 297.910146 -88.221951 
L 299.746688 -87.682128 
L 302.069849 -87.142306 
L 304.771416 -86.602484 
L 307.623325 -86.062662 
L 310.303538 -85.522839 
L 312.469151 -84.983017 
L 313.858214 -84.443195 
L 314.379897 -83.903372 
L 314.149748 -83.36355 
L 313.448929 -82.823728 
L 312.623305 -82.283906 
L 311.96861 -81.744083 
L 311.653831 -81.204261 
L 311.713754 -80.664439 
L 312.106495 -80.124617 
L 312.802021 -79.584794 
L 313.856691 -79.044972 
L 315.439073 -78.50515 
L 317.795793 -77.965327 
L 321.169896 -77.425505 
L 325.697518 -76.885683 
L 331.30978 -76.345861 
L 337.663135 -75.806038 
L 344.121343 -75.266216 
L 349.813585 -74.726394 
L 353.782244 -74.186572 
L 355.2012 -73.646749 
L 353.602396 -73.106927 
L 349.024942 -72.567105 
L 342.02117 -72.027282 
L 333.512539 -71.48746 
L 324.552022 -70.947638 
L 316.082476 -70.407816 
L 308.768761 -69.867993 
L 302.938508 -69.328171 
L 298.619723 -68.788349 
L 295.634613 -68.248527 
L 293.704897 -67.708704 
L 292.537256 -67.168882 
L 291.87627 -66.62906 
L 291.526753 -66.089238 
z
" style="stroke: #595959; stroke-width: 1.25"/>
    </defs>
    <g clip-path="url(#p0f1633d019)">
     <use xlink:href="#mc2ab68a5a6" x="0" y="432" style="fill: #e99675; stroke: #595959; stroke-width: 1.25"/>
    </g>
   </g>
   <g id="PolyCollection_3">
    <defs>
     <path id="mdf5c7ec57e" d="M 452.713032 -186.158495 
L 449.626968 -186.158495 
L 448.705936 -188.194203 
L 447.363557 -190.229912 
L 445.480404 -192.26562 
L 442.938923 -194.301329 
L 439.641327 -196.337037 
L 435.531248 -198.372746 
L 430.615895 -200.408454 
L 424.984182 -202.444163 
L 418.815944 -204.479871 
L 412.378229 -206.51558 
L 406.006867 -208.551288 
L 400.074596 -210.586997 
L 394.950182 -212.622705 
L 390.955319 -214.658414 
L 388.326852 -216.694122 
L 387.1908 -218.729831 
L 387.552059 -220.765539 
L 389.300419 -222.801248 
L 392.230429 -224.836956 
L 396.070578 -226.872665 
L 400.516514 -228.908373 
L 405.263428 -230.944082 
L 410.033899 -232.97979 
L 414.59889 -235.015499 
L 418.7908 -237.051207 
L 422.508431 -239.086916 
L 425.714421 -241.122624 
L 428.426288 -243.158333 
L 430.70273 -245.194041 
L 432.627309 -247.22975 
L 434.291859 -249.265458 
L 435.781883 -251.301167 
L 437.165733 -253.336875 
L 438.488604 -255.372584 
L 439.77145 -257.408292 
L 441.014068 -259.444001 
L 442.200999 -261.479709 
L 443.308605 -263.515418 
L 444.311763 -265.551126 
L 445.188978 -267.586835 
L 445.925193 -269.622543 
L 446.51216 -271.658252 
L 446.946722 -273.69396 
L 447.227783 -275.729669 
L 447.352948 -277.765377 
L 447.315966 -279.801086 
L 447.105898 -281.836794 
L 446.708645 -283.872503 
L 446.110915 -285.908211 
L 445.306054 -287.94392 
L 444.300585 -289.979628 
L 443.11986 -292.015337 
L 441.811202 -294.051045 
L 440.44333 -296.086754 
L 439.101588 -298.122462 
L 437.879513 -300.158171 
L 436.868157 -302.193879 
L 436.145119 -304.229588 
L 435.765322 -306.265296 
L 435.755121 -308.301005 
L 436.110514 -310.336713 
L 436.799398 -312.372422 
L 437.767045 -314.40813 
L 438.943578 -316.443839 
L 440.25215 -318.479547 
L 441.616685 -320.515256 
L 442.968377 -322.550964 
L 444.250445 -324.586673 
L 445.420932 -326.622381 
L 446.453567 -328.65809 
L 447.336886 -330.693798 
L 448.071981 -332.729507 
L 448.669367 -334.765215 
L 449.145516 -336.800924 
L 449.519581 -338.836632 
L 449.810738 -340.872341 
L 450.036358 -342.908049 
L 450.211059 -344.943758 
L 450.346497 -346.979466 
L 450.451676 -349.015175 
L 450.533501 -351.050883 
L 450.597388 -353.086592 
L 450.647766 -355.1223 
L 450.688426 -357.158009 
L 450.722687 -359.193717 
L 450.753435 -361.229426 
L 450.783057 -363.265134 
L 450.813341 -365.300843 
L 450.845376 -367.336551 
L 450.879515 -369.37226 
L 450.915415 -371.407968 
L 450.952168 -373.443677 
L 450.988516 -375.479385 
L 451.02309 -377.515094 
L 451.054653 -379.550802 
L 451.082279 -381.586511 
L 451.105456 -383.622219 
L 451.124092 -385.657928 
L 451.138457 -387.693636 
L 451.201543 -387.693636 
L 451.201543 -387.693636 
L 451.215908 -385.657928 
L 451.234544 -383.622219 
L 451.257721 -381.586511 
L 451.285347 -379.550802 
L 451.31691 -377.515094 
L 451.351484 -375.479385 
L 451.387832 -373.443677 
L 451.424585 -371.407968 
L 451.460485 -369.37226 
L 451.494624 -367.336551 
L 451.526659 -365.300843 
L 451.556943 -363.265134 
L 451.586565 -361.229426 
L 451.617313 -359.193717 
L 451.651574 -357.158009 
L 451.692234 -355.1223 
L 451.742612 -353.086592 
L 451.806499 -351.050883 
L 451.888324 -349.015175 
L 451.993503 -346.979466 
L 452.128941 -344.943758 
L 452.303642 -342.908049 
L 452.529262 -340.872341 
L 452.820419 -338.836632 
L 453.194484 -336.800924 
L 453.670633 -334.765215 
L 454.268019 -332.729507 
L 455.003114 -330.693798 
L 455.886433 -328.65809 
L 456.919068 -326.622381 
L 458.089555 -324.586673 
L 459.371623 -322.550964 
L 460.723315 -320.515256 
L 462.08785 -318.479547 
L 463.396422 -316.443839 
L 464.572955 -314.40813 
L 465.540602 -312.372422 
L 466.229486 -310.336713 
L 466.584879 -308.301005 
L 466.574678 -306.265296 
L 466.194881 -304.229588 
L 465.471843 -302.193879 
L 464.460487 -300.158171 
L 463.238412 -298.122462 
L 461.89667 -296.086754 
L 460.528798 -294.051045 
L 459.22014 -292.015337 
L 458.039415 -289.979628 
L 457.033946 -287.94392 
L 456.229085 -285.908211 
L 455.631355 -283.872503 
L 455.234102 -281.836794 
L 455.024034 -279.801086 
L 454.987052 -277.765377 
L 455.112217 -275.729669 
L 455.393278 -273.69396 
L 455.82784 -271.658252 
L 456.414807 -269.622543 
L 457.151022 -267.586835 
L 458.028237 -265.551126 
L 459.031395 -263.515418 
L 460.139001 -261.479709 
L 461.325932 -259.444001 
L 462.56855 -257.408292 
L 463.851396 -255.372584 
L 465.174267 -253.336875 
L 466.558117 -251.301167 
L 468.048141 -249.265458 
L 469.712691 -247.22975 
L 471.63727 -245.194041 
L 473.913712 -243.158333 
L 476.625579 -241.122624 
L 479.831569 -239.086916 
L 483.5492 -237.051207 
L 487.74111 -235.015499 
L 492.306101 -232.97979 
L 497.076572 -230.944082 
L 501.823486 -228.908373 
L 506.269422 -226.872665 
L 510.109571 -224.836956 
L 513.039581 -222.801248 
L 514.787941 -220.765539 
L 515.1492 -218.729831 
L 514.013148 -216.694122 
L 511.384681 -214.658414 
L 507.389818 -212.622705 
L 502.265404 -210.586997 
L 496.333133 -208.551288 
L 489.961771 -206.51558 
L 483.524056 -204.479871 
L 477.355818 -202.444163 
L 471.724105 -200.408454 
L 466.808752 -198.372746 
L 462.698673 -196.337037 
L 459.401077 -194.301329 
L 456.859596 -192.26562 
L 454.976443 -190.229912 
L 453.634064 -188.194203 
L 452.713032 -186.158495 
z
" style="stroke: #595959; stroke-width: 1.25"/>
    </defs>
    <g clip-path="url(#p0f1633d019)">
     <use xlink:href="#mdf5c7ec57e" x="0" y="432" style="fill: #95a3c3; stroke: #595959; stroke-width: 1.25"/>
    </g>
   </g>
   <g id="PolyCollection_4">
    <defs>
     <path id="m5ee403c3c2" d="M 611.945954 -95.257003 
L 610.290046 -95.257003 
L 609.812084 -95.834243 
L 609.112539 -96.411483 
L 608.118796 -96.988723 
L 606.748855 -97.565963 
L 604.916564 -98.143203 
L 602.539678 -98.720442 
L 599.550539 -99.297682 
L 595.908545 -99.874922 
L 591.612938 -100.452162 
L 586.713933 -101.029402 
L 581.319967 -101.606642 
L 575.599008 -102.183882 
L 569.7725 -102.761122 
L 564.101589 -103.338362 
L 558.866524 -103.915601 
L 554.341485 -104.492841 
L 550.768012 -105.070081 
L 548.330725 -105.647321 
L 547.1388 -106.224561 
L 547.215818 -106.801801 
L 548.49931 -107.379041 
L 550.84978 -107.956281 
L 554.067588 -108.533521 
L 557.915005 -109.110761 
L 562.140243 -109.688 
L 566.500278 -110.26524 
L 570.779867 -110.84248 
L 574.804996 -111.41972 
L 578.450066 -111.99696 
L 581.639075 -112.5742 
L 584.341827 -113.15144 
L 586.566689 -113.72868 
L 588.351526 -114.30592 
L 589.754309 -114.883159 
L 590.844486 -115.460399 
L 591.695785 -116.037639 
L 592.38058 -116.614879 
L 592.965675 -117.192119 
L 593.50911 -117.769359 
L 594.057625 -118.346599 
L 594.644515 -118.923839 
L 595.287852 -119.501079 
L 595.989253 -120.078318 
L 596.73355 -120.655558 
L 597.48974 -121.232798 
L 598.213553 -121.810038 
L 598.851737 -122.387278 
L 599.347903 -122.964518 
L 599.649453 -123.541758 
L 599.714838 -124.118998 
L 599.520223 -124.696238 
L 599.064568 -125.273478 
L 598.372239 -125.850717 
L 597.492573 -126.427957 
L 596.496183 -127.005197 
L 595.468327 -127.582437 
L 594.500146 -128.159677 
L 593.678955 -128.736917 
L 593.079005 -129.314157 
L 592.754049 -129.891397 
L 592.732754 -130.468637 
L 593.017471 -131.045876 
L 593.586312 -131.623116 
L 594.39788 -132.200356 
L 595.397673 -132.777596 
L 596.525005 -133.354836 
L 597.719403 -133.932076 
L 598.925733 -134.509316 
L 600.097694 -135.086556 
L 601.199667 -135.663796 
L 602.207199 -136.241035 
L 603.106485 -136.818275 
L 603.893239 -137.395515 
L 604.571224 -137.972755 
L 605.150584 -138.549995 
L 605.646044 -139.127235 
L 606.075005 -139.704475 
L 606.455597 -140.281715 
L 606.804811 -140.858955 
L 607.136916 -141.436195 
L 607.46233 -142.013434 
L 607.787103 -142.590674 
L 608.113059 -143.167914 
L 608.438486 -143.745154 
L 608.759212 -144.322394 
L 609.069811 -144.899634 
L 609.364708 -145.476874 
L 609.639024 -146.054114 
L 609.889086 -146.631354 
L 610.112612 -147.208593 
L 610.308657 -147.785833 
L 610.477422 -148.363073 
L 610.620002 -148.940313 
L 610.738153 -149.517553 
L 610.834092 -150.094793 
L 610.910327 -150.672033 
L 610.969521 -151.249273 
L 611.014366 -151.826513 
L 611.047466 -152.403752 
L 611.188534 -152.403752 
L 611.188534 -152.403752 
L 611.221634 -151.826513 
L 611.266479 -151.249273 
L 611.325673 -150.672033 
L 611.401908 -150.094793 
L 611.497847 -149.517553 
L 611.615998 -148.940313 
L 611.758578 -148.363073 
L 611.927343 -147.785833 
L 612.123388 -147.208593 
L 612.346914 -146.631354 
L 612.596976 -146.054114 
L 612.871292 -145.476874 
L 613.166189 -144.899634 
L 613.476788 -144.322394 
L 613.797514 -143.745154 
L 614.122941 -143.167914 
L 614.448897 -142.590674 
L 614.77367 -142.013434 
L 615.099084 -141.436195 
L 615.431189 -140.858955 
L 615.780403 -140.281715 
L 616.160995 -139.704475 
L 616.589956 -139.127235 
L 617.085416 -138.549995 
L 617.664776 -137.972755 
L 618.342761 -137.395515 
L 619.129515 -136.818275 
L 620.028801 -136.241035 
L 621.036333 -135.663796 
L 622.138306 -135.086556 
L 623.310267 -134.509316 
L 624.516597 -133.932076 
L 625.710995 -133.354836 
L 626.838327 -132.777596 
L 627.83812 -132.200356 
L 628.649688 -131.623116 
L 629.218529 -131.045876 
L 629.503246 -130.468637 
L 629.481951 -129.891397 
L 629.156995 -129.314157 
L 628.557045 -128.736917 
L 627.735854 -128.159677 
L 626.767673 -127.582437 
L 625.739817 -127.005197 
L 624.743427 -126.427957 
L 623.863761 -125.850717 
L 623.171432 -125.273478 
L 622.715777 -124.696238 
L 622.521162 -124.118998 
L 622.586547 -123.541758 
L 622.888097 -122.964518 
L 623.384263 -122.387278 
L 624.022447 -121.810038 
L 624.74626 -121.232798 
L 625.50245 -120.655558 
L 626.246747 -120.078318 
L 626.948148 -119.501079 
L 627.591485 -118.923839 
L 628.178375 -118.346599 
L 628.72689 -117.769359 
L 629.270325 -117.192119 
L 629.85542 -116.614879 
L 630.540215 -116.037639 
L 631.391514 -115.460399 
L 632.481691 -114.883159 
L 633.884474 -114.30592 
L 635.669311 -113.72868 
L 637.894173 -113.15144 
L 640.596925 -112.5742 
L 643.785934 -111.99696 
L 647.431004 -111.41972 
L 651.456133 -110.84248 
L 655.735722 -110.26524 
L 660.095757 -109.688 
L 664.320995 -109.110761 
L 668.168412 -108.533521 
L 671.38622 -107.956281 
L 673.73669 -107.379041 
L 675.020182 -106.801801 
L 675.0972 -106.224561 
L 673.905275 -105.647321 
L 671.467988 -105.070081 
L 667.894515 -104.492841 
L 663.369476 -103.915601 
L 658.134411 -103.338362 
L 652.4635 -102.761122 
L 646.636992 -102.183882 
L 640.916033 -101.606642 
L 635.522067 -101.029402 
L 630.623062 -100.452162 
L 626.327455 -99.874922 
L 622.685461 -99.297682 
L 619.696322 -98.720442 
L 617.319436 -98.143203 
L 615.487145 -97.565963 
L 614.117204 -96.988723 
L 613.123461 -96.411483 
L 612.423916 -95.834243 
L 611.945954 -95.257003 
z
" style="stroke: #595959; stroke-width: 1.25"/>
    </defs>
    <g clip-path="url(#p0f1633d019)">
     <use xlink:href="#m5ee403c3c2" x="0" y="432" style="fill: #db96c0; stroke: #595959; stroke-width: 1.25"/>
    </g>
   </g>
   <g id="PolyCollection_5">
    <defs>
     <path id="mdc1e3d64f4" d="M 771.36628 -53.566364 
L 770.76572 -53.566364 
L 770.480688 -53.958199 
L 769.989433 -54.350034 
L 769.191219 -54.74187 
L 767.963562 -55.133705 
L 766.168969 -55.525541 
L 763.666402 -55.917376 
L 760.328641 -56.309212 
L 756.067454 -56.701047 
L 750.866997 -57.092882 
L 744.820504 -57.484718 
L 738.157445 -57.876553 
L 731.243553 -58.268389 
L 724.540793 -58.660224 
L 718.529965 -59.052059 
L 713.617519 -59.443895 
L 710.058203 -59.83573 
L 707.91852 -60.227566 
L 707.0868 -60.619401 
L 707.317048 -61.011236 
L 708.286941 -61.403072 
L 709.656095 -61.794907 
L 711.120079 -62.186743 
L 712.459297 -62.578578 
L 713.577949 -62.970413 
L 714.522617 -63.362249 
L 715.469375 -63.754084 
L 716.675376 -64.14592 
L 718.402969 -64.537755 
L 720.836331 -64.929591 
L 724.016975 -65.321426 
L 727.821428 -65.713261 
L 731.991143 -66.105097 
L 736.205245 -66.496932 
L 740.16907 -66.888768 
L 743.684813 -67.280603 
L 746.679384 -67.672438 
L 749.185237 -68.064274 
L 751.291333 -68.456109 
L 753.091924 -68.847945 
L 754.655308 -69.23978 
L 756.018646 -69.631615 
L 757.199739 -70.023451 
L 758.21127 -70.415286 
L 759.068178 -70.807122 
L 759.787919 -71.198957 
L 760.388895 -71.590793 
L 760.891635 -71.982628 
L 761.322829 -72.374463 
L 761.718673 -72.766299 
L 762.123712 -73.158134 
L 762.584007 -73.54997 
L 763.136734 -73.941805 
L 763.800156 -74.33364 
L 764.567622 -74.725476 
L 765.407595 -75.117311 
L 766.269805 -75.509147 
L 767.096098 -75.900982 
L 767.833407 -76.292817 
L 768.445543 -76.684653 
L 768.920469 -77.076488 
L 769.270803 -77.468324 
L 769.527453 -77.860159 
L 769.728658 -78.251994 
L 769.908309 -78.64383 
L 770.087529 -79.035665 
L 770.271934 -79.427501 
L 770.454615 -79.819336 
L 770.62256 -80.211172 
L 770.763289 -80.603007 
L 770.869085 -80.994842 
L 770.937899 -81.386678 
L 770.97184 -81.778513 
L 770.97496 -82.170349 
L 770.951918 -82.562184 
L 770.908067 -82.954019 
L 770.850427 -83.345855 
L 770.788352 -83.73769 
L 770.732741 -84.129526 
L 770.693499 -84.521361 
L 770.676109 -84.913196 
L 770.678978 -85.305032 
L 770.693153 -85.696867 
L 770.704959 -86.088703 
L 770.700725 -86.480538 
L 770.671776 -86.872374 
L 770.617755 -87.264209 
L 770.547117 -87.656044 
L 770.474772 -88.04788 
L 770.417807 -88.439715 
L 770.390776 -88.831551 
L 770.401952 -89.223386 
L 770.451532 -89.615221 
L 770.532125 -90.007057 
L 770.631199 -90.398892 
L 770.734598 -90.790728 
L 770.829989 -91.182563 
L 770.909207 -91.574398 
L 770.968978 -91.966234 
L 771.010158 -92.358069 
L 771.121842 -92.358069 
L 771.121842 -92.358069 
L 771.163022 -91.966234 
L 771.222793 -91.574398 
L 771.302011 -91.182563 
L 771.397402 -90.790728 
L 771.500801 -90.398892 
L 771.599875 -90.007057 
L 771.680468 -89.615221 
L 771.730048 -89.223386 
L 771.741224 -88.831551 
L 771.714193 -88.439715 
L 771.657228 -88.04788 
L 771.584883 -87.656044 
L 771.514245 -87.264209 
L 771.460224 -86.872374 
L 771.431275 -86.480538 
L 771.427041 -86.088703 
L 771.438847 -85.696867 
L 771.453022 -85.305032 
L 771.455891 -84.913196 
L 771.438501 -84.521361 
L 771.399259 -84.129526 
L 771.343648 -83.73769 
L 771.281573 -83.345855 
L 771.223933 -82.954019 
L 771.180082 -82.562184 
L 771.15704 -82.170349 
L 771.16016 -81.778513 
L 771.194101 -81.386678 
L 771.262915 -80.994842 
L 771.368711 -80.603007 
L 771.50944 -80.211172 
L 771.677385 -79.819336 
L 771.860066 -79.427501 
L 772.044471 -79.035665 
L 772.223691 -78.64383 
L 772.403342 -78.251994 
L 772.604547 -77.860159 
L 772.861197 -77.468324 
L 773.211531 -77.076488 
L 773.686457 -76.684653 
L 774.298593 -76.292817 
L 775.035902 -75.900982 
L 775.862195 -75.509147 
L 776.724405 -75.117311 
L 777.564378 -74.725476 
L 778.331844 -74.33364 
L 778.995266 -73.941805 
L 779.547993 -73.54997 
L 780.008288 -73.158134 
L 780.413327 -72.766299 
L 780.809171 -72.374463 
L 781.240365 -71.982628 
L 781.743105 -71.590793 
L 782.344081 -71.198957 
L 783.063822 -70.807122 
L 783.92073 -70.415286 
L 784.932261 -70.023451 
L 786.113354 -69.631615 
L 787.476692 -69.23978 
L 789.040076 -68.847945 
L 790.840667 -68.456109 
L 792.946763 -68.064274 
L 795.452616 -67.672438 
L 798.447187 -67.280603 
L 801.96293 -66.888768 
L 805.926755 -66.496932 
L 810.140857 -66.105097 
L 814.310572 -65.713261 
L 818.115025 -65.321426 
L 821.295669 -64.929591 
L 823.729031 -64.537755 
L 825.456624 -64.14592 
L 826.662625 -63.754084 
L 827.609383 -63.362249 
L 828.554051 -62.970413 
L 829.672703 -62.578578 
L 831.011921 -62.186743 
L 832.475905 -61.794907 
L 833.845059 -61.403072 
L 834.814952 -61.011236 
L 835.0452 -60.619401 
L 834.21348 -60.227566 
L 832.073797 -59.83573 
L 828.514481 -59.443895 
L 823.602035 -59.052059 
L 817.591207 -58.660224 
L 810.888447 -58.268389 
L 803.974555 -57.876553 
L 797.311496 -57.484718 
L 791.265003 -57.092882 
L 786.064546 -56.701047 
L 781.803359 -56.309212 
L 778.465598 -55.917376 
L 775.963031 -55.525541 
L 774.168438 -55.133705 
L 772.940781 -54.74187 
L 772.142567 -54.350034 
L 771.651312 -53.958199 
L 771.36628 -53.566364 
z
" style="stroke: #595959; stroke-width: 1.25"/>
    </defs>
    <g clip-path="url(#p0f1633d019)">
     <use xlink:href="#mdc1e3d64f4" x="0" y="432" style="fill: #a2c865; stroke: #595959; stroke-width: 1.25"/>
    </g>
   </g>
   <g id="line2d_7">
    <path d="M 131.274 334.255859 
L 131.274 339.473106 
" clip-path="url(#p0f1633d019)" style="fill: none; stroke: #000000"/>
   </g>
   <g id="line2d_8">
    <path d="M 131.274 317.016259 
L 131.274 293.311809 
" clip-path="url(#p0f1633d019)" style="fill: none; stroke: #000000"/>
   </g>
   <g id="line2d_9">
    <path d="M 125.27595 339.473106 
L 137.27205 339.473106 
" clip-path="url(#p0f1633d019)" style="fill: none; stroke: #000000; stroke-linecap: round"/>
   </g>
   <g id="line2d_10">
    <path d="M 125.27595 293.311809 
L 137.27205 293.311809 
" clip-path="url(#p0f1633d019)" style="fill: none; stroke: #000000; stroke-linecap: round"/>
   </g>
   <g id="line2d_11">
    <path d="M 291.222 358.754237 
L 291.222 362.383627 
" clip-path="url(#p0f1633d019)" style="fill: none; stroke: #000000"/>
   </g>
   <g id="line2d_12">
    <path d="M 291.222 350.70153 
L 291.222 338.679177 
" clip-path="url(#p0f1633d019)" style="fill: none; stroke: #000000"/>
   </g>
   <g id="line2d_13">
    <path d="M 285.22395 362.383627 
L 297.22005 362.383627 
" clip-path="url(#p0f1633d019)" style="fill: none; stroke: #000000; stroke-linecap: round"/>
   </g>
   <g id="line2d_14">
    <path d="M 285.22395 338.679177 
L 297.22005 338.679177 
" clip-path="url(#p0f1633d019)" style="fill: none; stroke: #000000; stroke-linecap: round"/>
   </g>
   <g id="line2d_15">
    <path d="M 451.17 216.073865 
L 451.17 224.693665 
" clip-path="url(#p0f1633d019)" style="fill: none; stroke: #000000"/>
   </g>
   <g id="line2d_16">
    <path d="M 451.17 181.963275 
L 451.17 130.896632 
" clip-path="url(#p0f1633d019)" style="fill: none; stroke: #000000"/>
   </g>
   <g id="line2d_17">
    <path d="M 445.17195 224.693665 
L 457.16805 224.693665 
" clip-path="url(#p0f1633d019)" style="fill: none; stroke: #000000; stroke-linecap: round"/>
   </g>
   <g id="line2d_18">
    <path d="M 445.17195 130.896632 
L 457.16805 130.896632 
" clip-path="url(#p0f1633d019)" style="fill: none; stroke: #000000; stroke-linecap: round"/>
   </g>
   <g id="line2d_19">
    <path d="M 611.118 326.316569 
L 611.118 330.286214 
" clip-path="url(#p0f1633d019)" style="fill: none; stroke: #000000"/>
   </g>
   <g id="line2d_20">
    <path d="M 611.118 311.23192 
L 611.118 289.68242 
" clip-path="url(#p0f1633d019)" style="fill: none; stroke: #000000"/>
   </g>
   <g id="line2d_21">
    <path d="M 605.11995 330.286214 
L 617.11605 330.286214 
" clip-path="url(#p0f1633d019)" style="fill: none; stroke: #000000; stroke-linecap: round"/>
   </g>
   <g id="line2d_22">
    <path d="M 605.11995 289.68242 
L 617.11605 289.68242 
" clip-path="url(#p0f1633d019)" style="fill: none; stroke: #000000; stroke-linecap: round"/>
   </g>
   <g id="line2d_23">
    <path d="M 771.066 371.797356 
L 771.066 375.653582 
" clip-path="url(#p0f1633d019)" style="fill: none; stroke: #000000"/>
   </g>
   <g id="line2d_24">
    <path d="M 771.066 366.324917 
L 771.066 358.187145 
" clip-path="url(#p0f1633d019)" style="fill: none; stroke: #000000"/>
   </g>
   <g id="line2d_25">
    <path d="M 765.06795 375.653582 
L 777.06405 375.653582 
" clip-path="url(#p0f1633d019)" style="fill: none; stroke: #000000; stroke-linecap: round"/>
   </g>
   <g id="line2d_26">
    <path d="M 765.06795 358.187145 
L 777.06405 358.187145 
" clip-path="url(#p0f1633d019)" style="fill: none; stroke: #000000; stroke-linecap: round"/>
   </g>
   <g id="line2d_27">
    <path d="M 119.2779 331.193561 
L 143.2701 331.193561 
" clip-path="url(#p0f1633d019)" style="fill: none; stroke: #ff0000; stroke-width: 2"/>
   </g>
   <g id="line2d_28">
    <path d="M 279.2259 356.826124 
L 303.2181 356.826124 
" clip-path="url(#p0f1633d019)" style="fill: none; stroke: #ff0000; stroke-width: 2"/>
   </g>
   <g id="line2d_29">
    <path d="M 439.1739 206.886973 
L 463.1661 206.886973 
" clip-path="url(#p0f1633d019)" style="fill: none; stroke: #ff0000; stroke-width: 2"/>
   </g>
   <g id="line2d_30">
    <path d="M 599.1219 323.140854 
L 623.1141 323.140854 
" clip-path="url(#p0f1633d019)" style="fill: none; stroke: #ff0000; stroke-width: 2"/>
   </g>
   <g id="line2d_31">
    <path d="M 759.0699 369.188732 
L 783.0621 369.188732 
" clip-path="url(#p0f1633d019)" style="fill: none; stroke: #ff0000; stroke-width: 2"/>
   </g>
   <g id="patch_3">
    <path d="M 51.3 395.14 
L 51.3 27.6 
" style="fill: none; stroke: #cccccc; stroke-width: 1.25; stroke-linejoin: miter; stroke-linecap: square"/>
   </g>
   <g id="patch_4">
    <path d="M 851.04 395.14 
L 851.04 27.6 
" style="fill: none; stroke: #cccccc; stroke-width: 1.25; stroke-linejoin: miter; stroke-linecap: square"/>
   </g>
   <g id="patch_5">
    <path d="M 51.3 395.14 
L 851.04 395.14 
" style="fill: none; stroke: #cccccc; stroke-width: 1.25; stroke-linejoin: miter; stroke-linecap: square"/>
   </g>
   <g id="patch_6">
    <path d="M 51.3 27.6 
L 851.04 27.6 
" style="fill: none; stroke: #cccccc; stroke-width: 1.25; stroke-linejoin: miter; stroke-linecap: square"/>
   </g>
   <g id="text_13">
    <!-- Handshake duration on QUIC with mldsa65 signature algorithm — ideal conditions -->
    <g style="fill: #262626" transform="translate(203.870625 21.6) scale(0.12 -0.12)">
     <defs>
      <path id="DejaVuSans-51" d="M 2522 4238 
Q 1834 4238 1429 3725 
Q 1025 3213 1025 2328 
Q 1025 1447 1429 934 
Q 1834 422 2522 422 
Q 3209 422 3611 934 
Q 4013 1447 4013 2328 
Q 4013 3213 3611 3725 
Q 3209 4238 2522 4238 
z
M 3406 84 
L 4238 -825 
L 3475 -825 
L 2784 -78 
Q 2681 -84 2626 -87 
Q 2572 -91 2522 -91 
Q 1538 -91 948 567 
Q 359 1225 359 2328 
Q 359 3434 948 4092 
Q 1538 4750 2522 4750 
Q 3503 4750 4090 4092 
Q 4678 3434 4678 2328 
Q 4678 1516 4351 937 
Q 4025 359 3406 84 
z
" transform="scale(0.015625)"/>
      <path id="DejaVuSans-55" d="M 556 4666 
L 1191 4666 
L 1191 1831 
Q 1191 1081 1462 751 
Q 1734 422 2344 422 
Q 2950 422 3222 751 
Q 3494 1081 3494 1831 
L 3494 4666 
L 4128 4666 
L 4128 1753 
Q 4128 841 3676 375 
Q 3225 -91 2344 -91 
Q 1459 -91 1007 375 
Q 556 841 556 1753 
L 556 4666 
z
" transform="scale(0.015625)"/>
      <path id="DejaVuSans-49" d="M 628 4666 
L 1259 4666 
L 1259 0 
L 628 0 
L 628 4666 
z
" transform="scale(0.015625)"/>
      <path id="DejaVuSans-43" d="M 4122 4306 
L 4122 3641 
Q 3803 3938 3442 4084 
Q 3081 4231 2675 4231 
Q 1875 4231 1450 3742 
Q 1025 3253 1025 2328 
Q 1025 1406 1450 917 
Q 1875 428 2675 428 
Q 3081 428 3442 575 
Q 3803 722 4122 1019 
L 4122 359 
Q 3791 134 3420 21 
Q 3050 -91 2638 -91 
Q 1578 -91 968 557 
Q 359 1206 359 2328 
Q 359 3453 968 4101 
Q 1578 4750 2638 4750 
Q 3056 4750 3426 4639 
Q 3797 4528 4122 4306 
z
" transform="scale(0.015625)"/>
      <path id="DejaVuSans-77" d="M 269 3500 
L 844 3500 
L 1563 769 
L 2278 3500 
L 2956 3500 
L 3675 769 
L 4391 3500 
L 4966 3500 
L 4050 0 
L 3372 0 
L 2619 2869 
L 1863 0 
L 1184 0 
L 269 3500 
z
" transform="scale(0.015625)"/>
      <path id="DejaVuSans-67" d="M 2906 1791 
Q 2906 2416 2648 2759 
Q 2391 3103 1925 3103 
Q 1463 3103 1205 2759 
Q 947 2416 947 1791 
Q 947 1169 1205 825 
Q 1463 481 1925 481 
Q 2391 481 2648 825 
Q 2906 1169 2906 1791 
z
M 3481 434 
Q 3481 -459 3084 -895 
Q 2688 -1331 1869 -1331 
Q 1566 -1331 1297 -1286 
Q 1028 -1241 775 -1147 
L 775 -588 
Q 1028 -725 1275 -790 
Q 1522 -856 1778 -856 
Q 2344 -856 2625 -561 
Q 2906 -266 2906 331 
L 2906 616 
Q 2728 306 2450 153 
Q 2172 0 1784 0 
Q 1141 0 747 490 
Q 353 981 353 1791 
Q 353 2603 747 3093 
Q 1141 3584 1784 3584 
Q 2172 3584 2450 3431 
Q 2728 3278 2906 2969 
L 2906 3500 
L 3481 3500 
L 3481 434 
z
" transform="scale(0.015625)"/>
      <path id="DejaVuSans-2014" d="M 313 1978 
L 6088 1978 
L 6088 1528 
L 313 1528 
L 313 1978 
z
" transform="scale(0.015625)"/>
      <path id="DejaVuSans-63" d="M 3122 3366 
L 3122 2828 
Q 2878 2963 2633 3030 
Q 2388 3097 2138 3097 
Q 1578 3097 1268 2742 
Q 959 2388 959 1747 
Q 959 1106 1268 751 
Q 1578 397 2138 397 
Q 2388 397 2633 464 
Q 2878 531 3122 666 
L 3122 134 
Q 2881 22 2623 -34 
Q 2366 -91 2075 -91 
Q 1284 -91 818 406 
Q 353 903 353 1747 
Q 353 2603 823 3093 
Q 1294 3584 2113 3584 
Q 2378 3584 2631 3529 
Q 2884 3475 3122 3366 
z
" transform="scale(0.015625)"/>
     </defs>
     <use xlink:href="#DejaVuSans-48"/>
     <use xlink:href="#DejaVuSans-61" x="75.195312"/>
     <use xlink:href="#DejaVuSans-6e" x="136.474609"/>
     <use xlink:href="#DejaVuSans-64" x="199.853516"/>
     <use xlink:href="#DejaVuSans-73" x="263.330078"/>
     <use xlink:href="#DejaVuSans-68" x="315.429688"/>
     <use xlink:href="#DejaVuSans-61" x="378.808594"/>
     <use xlink:href="#DejaVuSans-6b" x="440.087891"/>
     <use xlink:href="#DejaVuSans-65" x="494.373047"/>
     <use xlink:href="#DejaVuSans-20" x="555.896484"/>
     <use xlink:href="#DejaVuSans-64" x="587.683594"/>
     <use xlink:href="#DejaVuSans-75" x="651.160156"/>
     <use xlink:href="#DejaVuSans-72" x="714.539062"/>
     <use xlink:href="#DejaVuSans-61" x="755.652344"/>
     <use xlink:href="#DejaVuSans-74" x="816.931641"/>
     <use xlink:href="#DejaVuSans-69" x="856.140625"/>
     <use xlink:href="#DejaVuSans-6f" x="883.923828"/>
     <use xlink:href="#DejaVuSans-6e" x="945.105469"/>
     <use xlink:href="#DejaVuSans-20" x="1008.484375"/>
     <use xlink:href="#DejaVuSans-6f" x="1040.271484"/>
     <use xlink:href="#DejaVuSans-6e" x="1101.453125"/>
     <use xlink:href="#DejaVuSans-20" x="1164.832031"/>
     <use xlink:href="#DejaVuSans-51" x="1196.619141"/>
     <use xlink:href="#DejaVuSans-55" x="1275.330078"/>
     <use xlink:href="#DejaVuSans-49" x="1348.523438"/>
     <use xlink:href="#DejaVuSans-43" x="1378.015625"/>
     <use xlink:href="#DejaVuSans-20" x="1447.839844"/>
     <use xlink:href="#DejaVuSans-77" x="1479.626953"/>
     <use xlink:href="#DejaVuSans-69" x="1561.414062"/>
     <use xlink:href="#DejaVuSans-74" x="1589.197266"/>
     <use xlink:href="#DejaVuSans-68" x="1628.40625"/>
     <use xlink:href="#DejaVuSans-20" x="1691.785156"/>
     <use xlink:href="#DejaVuSans-6d" x="1723.572266"/>
     <use xlink:href="#DejaVuSans-6c" x="1820.984375"/>
     <use xlink:href="#DejaVuSans-64" x="1848.767578"/>
     <use xlink:href="#DejaVuSans-73" x="1912.244141"/>
     <use xlink:href="#DejaVuSans-61" x="1964.34375"/>
     <use xlink:href="#DejaVuSans-36" x="2025.623047"/>
     <use xlink:href="#DejaVuSans-35" x="2089.246094"/>
     <use xlink:href="#DejaVuSans-20" x="2152.869141"/>
     <use xlink:href="#DejaVuSans-73" x="2184.65625"/>
     <use xlink:href="#DejaVuSans-69" x="2236.755859"/>
     <use xlink:href="#DejaVuSans-67" x="2264.539062"/>
     <use xlink:href="#DejaVuSans-6e" x="2328.015625"/>
     <use xlink:href="#DejaVuSans-61" x="2391.394531"/>
     <use xlink:href="#DejaVuSans-74" x="2452.673828"/>
     <use xlink:href="#DejaVuSans-75" x="2491.882812"/>
     <use xlink:href="#DejaVuSans-72" x="2555.261719"/>
     <use xlink:href="#DejaVuSans-65" x="2594.125"/>
     <use xlink:href="#DejaVuSans-20" x="2655.648438"/>
     <use xlink:href="#DejaVuSans-61" x="2687.435547"/>
     <use xlink:href="#DejaVuSans-6c" x="2748.714844"/>
     <use xlink:href="#DejaVuSans-67" x="2776.498047"/>
     <use xlink:href="#DejaVuSans-6f" x="2839.974609"/>
     <use xlink:href="#DejaVuSans-72" x="2901.15625"/>
     <use xlink:href="#DejaVuSans-69" x="2942.269531"/>
     <use xlink:href="#DejaVuSans-74" x="2970.052734"/>
     <use xlink:href="#DejaVuSans-68" x="3009.261719"/>
     <use xlink:href="#DejaVuSans-6d" x="3072.640625"/>
     <use xlink:href="#DejaVuSans-20" x="3170.052734"/>
     <use xlink:href="#DejaVuSans-2014" x="3201.839844"/>
     <use xlink:href="#DejaVuSans-20" x="3301.839844"/>
     <use xlink:href="#DejaVuSans-69" x="3333.626953"/>
     <use xlink:href="#DejaVuSans-64" x="3361.410156"/>
     <use xlink:href="#DejaVuSans-65" x="3424.886719"/>
     <use xlink:href="#DejaVuSans-61" x="3486.410156"/>
     <use xlink:href="#DejaVuSans-6c" x="3547.689453"/>
     <use xlink:href="#DejaVuSans-20" x="3575.472656"/>
     <use xlink:href="#DejaVuSans-63" x="3607.259766"/>
     <use xlink:href="#DejaVuSans-6f" x="3662.240234"/>
     <use xlink:href="#DejaVuSans-6e" x="3723.421875"/>
     <use xlink:href="#DejaVuSans-64" x="3786.800781"/>
     <use xlink:href="#DejaVuSans-69" x="3850.277344"/>
     <use xlink:href="#DejaVuSans-74" x="3878.060547"/>
     <use xlink:href="#DejaVuSans-69" x="3917.269531"/>
     <use xlink:href="#DejaVuSans-6f" x="3945.052734"/>
     <use xlink:href="#DejaVuSans-6e" x="4006.234375"/>
     <use xlink:href="#DejaVuSans-73" x="4069.613281"/>
    </g>
   </g>
  </g>
 </g>
 <defs>
  <clipPath id="p0f1633d019">
   <rect x="51.3" y="27.6" width="799.74" height="367.54"/>
  </clipPath>
 </defs>
</svg>
