<?xml version="1.0" encoding="utf-8" standalone="no"?>
<!DOCTYPE svg PUBLIC "-//W3C//DTD SVG 1.1//EN"
  "http://www.w3.org/Graphics/SVG/1.1/DTD/svg11.dtd">
<svg xmlns:xlink="http://www.w3.org/1999/xlink" width="864pt" height="432pt" viewBox="0 0 864 432" xmlns="http://www.w3.org/2000/svg" version="1.1">
 <metadata>
  <rdf:RDF xmlns:dc="http://purl.org/dc/elements/1.1/" xmlns:cc="http://creativecommons.org/ns#" xmlns:rdf="http://www.w3.org/1999/02/22-rdf-syntax-ns#">
   <cc:Work>
    <dc:type rdf:resource="http://purl.org/dc/dcmitype/StillImage"/>
    <dc:date>2026-03-21T13:58:52.061048</dc:date>
    <dc:format>image/svg+xml</dc:format>
    <dc:creator>
     <cc:Agent>
      <dc:title>Matplotlib v3.6.3, https://matplotlib.org/</dc:title>
     </cc:Agent>
    </dc:creator>
   </cc:Work>
  </rdf:RDF>
 </metadata>
 <defs>
  <style type="text/css">*{stroke-linejoin: round; stroke-linecap: butt}</style>
 </defs>
 <g id="figure_1">
  <g id="patch_1">
   <path d="M 0 432 
L 864 432 
L 864 0 
L 0 0 
z
" style="fill: #ffffff"/>
  </g>
  <g id="axes_1">
   <g id="patch_2">
    <path d="M 58.32 395.14 
L 851.04 395.14 
L 851.04 27.6 
L 58.32 27.6 
z
" style="fill: #ffffff"/>
   </g>
   <g id="matplotlib.axis_1">
    <g id="xtick_1">
     <g id="text_1">
      <!-- P-521 -->
      <g style="fill: #262626" transform="translate(170.49 415.277812) scale(0.14 -0.14)">
       <defs>
        <path id="DejaVuSans-50" d="M 1259 4147 
L 1259 2394 
L 2053 2394 
Q 2494 2394 2734 2622 
Q 2975 2850 2975 3272 
Q 2975 3691 2734 3919 
Q 2494 4147 2053 4147 
L 1259 4147 
z
M 628 4666 
L 2053 4666 
Q 2838 4666 3239 4311 
Q 3641 3956 3641 3272 
Q 3641 2581 3239 2228 
Q 2838 1875 2053 1875 
L 1259 1875 
L 1259 0 
L 628 0 
L 628 4666 
z
" transform="scale(0.015625)"/>
        <path id="DejaVuSans-2d" d="M 313 2009 
L 1997 2009 
L 1997 1497 
L 313 1497 
L 313 2009 
z
" transform="scale(0.015625)"/>
        <path id="DejaVuSans-35" d="M 691 4666 
L 3169 4666 
L 3169 4134 
L 1269 4134 
L 1269 2991 
Q 1406 3038 1543 3061 
Q 1681 3084 1819 3084 
Q 2600 3084 3056 2656 
Q 3513 2228 3513 1497 
Q 3513 744 3044 326 
Q 2575 -91 1722 -91 
Q 1428 -91 1123 -41 
Q 819 9 494 109 
L 494 744 
Q 775 591 1075 516 
Q 1375 441 1709 441 
Q 2250 441 2565 725 
Q 2881 1009 2881 1497 
Q 2881 1984 2565 2268 
Q 2250 2553 1709 2553 
Q 1456 2553 1204 2497 
Q 953 2441 691 2322 
L 691 4666 
z
" transform="scale(0.015625)"/>
        <path id="DejaVuSans-32" d="M 1228 531 
L 3431 531 
L 3431 0 
L 469 0 
L 469 531 
Q 828 903 1448 1529 
Q 2069 2156 2228 2338 
Q 2531 2678 2651 2914 
Q 2772 3150 2772 3378 
Q 2772 3750 2511 3984 
Q 2250 4219 1831 4219 
Q 1534 4219 1204 4116 
Q 875 4013 500 3803 
L 500 4441 
Q 881 4594 1212 4672 
Q 1544 4750 1819 4750 
Q 2544 4750 2975 4387 
Q 3406 4025 3406 3419 
Q 3406 3131 3298 2873 
Q 3191 2616 2906 2266 
Q 2828 2175 2409 1742 
Q 1991 1309 1228 531 
z
" transform="scale(0.015625)"/>
        <path id="DejaVuSans-31" d="M 794 531 
L 1825 531 
L 1825 4091 
L 703 3866 
L 703 4441 
L 1819 4666 
L 2450 4666 
L 2450 531 
L 3481 531 
L 3481 0 
L 794 0 
L 794 531 
z
" transform="scale(0.015625)"/>
       </defs>
       <use xlink:href="#DejaVuSans-50"/>
       <use xlink:href="#DejaVuSans-2d" x="58.052734"/>
       <use xlink:href="#DejaVuSans-35" x="94.136719"/>
       <use xlink:href="#DejaVuSans-32" x="157.759766"/>
       <use xlink:href="#DejaVuSans-31" x="221.382812"/>
      </g>
     </g>
    </g>
    <g id="xtick_2">
     <g id="text_2">
      <!-- p521_mlkem1024 -->
      <g style="fill: #262626" transform="translate(391.871406 415.277812) scale(0.14 -0.14)">
       <defs>
        <path id="DejaVuSans-70" d="M 1159 525 
L 1159 -1331 
L 581 -1331 
L 581 3500 
L 1159 3500 
L 1159 2969 
Q 1341 3281 1617 3432 
Q 1894 3584 2278 3584 
Q 2916 3584 3314 3078 
Q 3713 2572 3713 1747 
Q 3713 922 3314 415 
Q 2916 -91 2278 -91 
Q 1894 -91 1617 61 
Q 1341 213 1159 525 
z
M 3116 1747 
Q 3116 2381 2855 2742 
Q 2594 3103 2138 3103 
Q 1681 3103 1420 2742 
Q 1159 2381 1159 1747 
Q 1159 1113 1420 752 
Q 1681 391 2138 391 
Q 2594 391 2855 752 
Q 3116 1113 3116 1747 
z
" transform="scale(0.015625)"/>
        <path id="DejaVuSans-5f" d="M 3263 -1063 
L 3263 -1509 
L -63 -1509 
L -63 -1063 
L 3263 -1063 
z
" transform="scale(0.015625)"/>
        <path id="DejaVuSans-6d" d="M 3328 2828 
Q 3544 3216 3844 3400 
Q 4144 3584 4550 3584 
Q 5097 3584 5394 3201 
Q 5691 2819 5691 2113 
L 5691 0 
L 5113 0 
L 5113 2094 
Q 5113 2597 4934 2840 
Q 4756 3084 4391 3084 
Q 3944 3084 3684 2787 
Q 3425 2491 3425 1978 
L 3425 0 
L 2847 0 
L 2847 2094 
Q 2847 2600 2669 2842 
Q 2491 3084 2119 3084 
Q 1678 3084 1418 2786 
Q 1159 2488 1159 1978 
L 1159 0 
L 581 0 
L 581 3500 
L 1159 3500 
L 1159 2956 
Q 1356 3278 1631 3431 
Q 1906 3584 2284 3584 
Q 2666 3584 2933 3390 
Q 3200 3197 3328 2828 
z
" transform="scale(0.015625)"/>
        <path id="DejaVuSans-6c" d="M 603 4863 
L 1178 4863 
L 1178 0 
L 603 0 
L 603 4863 
z
" transform="scale(0.015625)"/>
        <path id="DejaVuSans-6b" d="M 581 4863 
L 1159 4863 
L 1159 1991 
L 2875 3500 
L 3609 3500 
L 1753 1863 
L 3688 0 
L 2938 0 
L 1159 1709 
L 1159 0 
L 581 0 
L 581 4863 
z
" transform="scale(0.015625)"/>
        <path id="DejaVuSans-65" d="M 3597 1894 
L 3597 1613 
L 953 1613 
Q 991 1019 1311 708 
Q 1631 397 2203 397 
Q 2534 397 2845 478 
Q 3156 559 3463 722 
L 3463 178 
Q 3153 47 2828 -22 
Q 2503 -91 2169 -91 
Q 1331 -91 842 396 
Q 353 884 353 1716 
Q 353 2575 817 3079 
Q 1281 3584 2069 3584 
Q 2775 3584 3186 3129 
Q 3597 2675 3597 1894 
z
M 3022 2063 
Q 3016 2534 2758 2815 
Q 2500 3097 2075 3097 
Q 1594 3097 1305 2825 
Q 1016 2553 972 2059 
L 3022 2063 
z
" transform="scale(0.015625)"/>
        <path id="DejaVuSans-30" d="M 2034 4250 
Q 1547 4250 1301 3770 
Q 1056 3291 1056 2328 
Q 1056 1369 1301 889 
Q 1547 409 2034 409 
Q 2525 409 2770 889 
Q 3016 1369 3016 2328 
Q 3016 3291 2770 3770 
Q 2525 4250 2034 4250 
z
M 2034 4750 
Q 2819 4750 3233 4129 
Q 3647 3509 3647 2328 
Q 3647 1150 3233 529 
Q 2819 -91 2034 -91 
Q 1250 -91 836 529 
Q 422 1150 422 2328 
Q 422 3509 836 4129 
Q 1250 4750 2034 4750 
z
" transform="scale(0.015625)"/>
        <path id="DejaVuSans-34" d="M 2419 4116 
L 825 1625 
L 2419 1625 
L 2419 4116 
z
M 2253 4666 
L 3047 4666 
L 3047 1625 
L 3713 1625 
L 3713 1100 
L 3047 1100 
L 3047 0 
L 2419 0 
L 2419 1100 
L 313 1100 
L 313 1709 
L 2253 4666 
z
" transform="scale(0.015625)"/>
       </defs>
       <use xlink:href="#DejaVuSans-70"/>
       <use xlink:href="#DejaVuSans-35" x="63.476562"/>
       <use xlink:href="#DejaVuSans-32" x="127.099609"/>
       <use xlink:href="#DejaVuSans-31" x="190.722656"/>
       <use xlink:href="#DejaVuSans-5f" x="254.345703"/>
       <use xlink:href="#DejaVuSans-6d" x="304.345703"/>
       <use xlink:href="#DejaVuSans-6c" x="401.757812"/>
       <use xlink:href="#DejaVuSans-6b" x="429.541016"/>
       <use xlink:href="#DejaVuSans-65" x="483.826172"/>
       <use xlink:href="#DejaVuSans-6d" x="545.349609"/>
       <use xlink:href="#DejaVuSans-31" x="642.761719"/>
       <use xlink:href="#DejaVuSans-30" x="706.384766"/>
       <use xlink:href="#DejaVuSans-32" x="770.007812"/>
       <use xlink:href="#DejaVuSans-34" x="833.630859"/>
      </g>
     </g>
    </g>
    <g id="xtick_3">
     <g id="text_3">
      <!-- mlkem1024 -->
      <g style="fill: #262626" transform="translate(677.416562 415.277812) scale(0.14 -0.14)">
       <use xlink:href="#DejaVuSans-6d"/>
       <use xlink:href="#DejaVuSans-6c" x="97.412109"/>
       <use xlink:href="#DejaVuSans-6b" x="125.195312"/>
       <use xlink:href="#DejaVuSans-65" x="179.480469"/>
       <use xlink:href="#DejaVuSans-6d" x="241.003906"/>
       <use xlink:href="#DejaVuSans-31" x="338.416016"/>
       <use xlink:href="#DejaVuSans-30" x="402.039062"/>
       <use xlink:href="#DejaVuSans-32" x="465.662109"/>
       <use xlink:href="#DejaVuSans-34" x="529.285156"/>
      </g>
     </g>
    </g>
   </g>
   <g id="matplotlib.axis_2">
    <g id="ytick_1">
     <g id="line2d_1">
      <path d="M 58.32 349.45742 
L 851.04 349.45742 
" clip-path="url(#pa0c4382710)" style="fill: none; stroke: #cccccc; stroke-linecap: round"/>
     </g>
     <g id="text_4">
      <!-- 805 -->
      <g style="fill: #262626" transform="translate(27.82375 353.636561) scale(0.11 -0.11)">
       <defs>
        <path id="DejaVuSans-38" d="M 2034 2216 
Q 1584 2216 1326 1975 
Q 1069 1734 1069 1313 
Q 1069 891 1326 650 
Q 1584 409 2034 409 
Q 2484 409 2743 651 
Q 3003 894 3003 1313 
Q 3003 1734 2745 1975 
Q 2488 2216 2034 2216 
z
M 1403 2484 
Q 997 2584 770 2862 
Q 544 3141 544 3541 
Q 544 4100 942 4425 
Q 1341 4750 2034 4750 
Q 2731 4750 3128 4425 
Q 3525 4100 3525 3541 
Q 3525 3141 3298 2862 
Q 3072 2584 2669 2484 
Q 3125 2378 3379 2068 
Q 3634 1759 3634 1313 
Q 3634 634 3220 271 
Q 2806 -91 2034 -91 
Q 1263 -91 848 271 
Q 434 634 434 1313 
Q 434 1759 690 2068 
Q 947 2378 1403 2484 
z
M 1172 3481 
Q 1172 3119 1398 2916 
Q 1625 2713 2034 2713 
Q 2441 2713 2670 2916 
Q 2900 3119 2900 3481 
Q 2900 3844 2670 4047 
Q 2441 4250 2034 4250 
Q 1625 4250 1398 4047 
Q 1172 3844 1172 3481 
z
" transform="scale(0.015625)"/>
       </defs>
       <use xlink:href="#DejaVuSans-38"/>
       <use xlink:href="#DejaVuSans-30" x="63.623047"/>
       <use xlink:href="#DejaVuSans-35" x="127.246094"/>
      </g>
     </g>
    </g>
    <g id="ytick_2">
     <g id="line2d_2">
      <path d="M 58.32 285.046978 
L 851.04 285.046978 
" clip-path="url(#pa0c4382710)" style="fill: none; stroke: #cccccc; stroke-linecap: round"/>
     </g>
     <g id="text_5">
      <!-- 810 -->
      <g style="fill: #262626" transform="translate(27.82375 289.226119) scale(0.11 -0.11)">
       <use xlink:href="#DejaVuSans-38"/>
       <use xlink:href="#DejaVuSans-31" x="63.623047"/>
       <use xlink:href="#DejaVuSans-30" x="127.246094"/>
      </g>
     </g>
    </g>
    <g id="ytick_3">
     <g id="line2d_3">
      <path d="M 58.32 220.636537 
L 851.04 220.636537 
" clip-path="url(#pa0c4382710)" style="fill: none; stroke: #cccccc; stroke-linecap: round"/>
     </g>
     <g id="text_6">
      <!-- 815 -->
      <g style="fill: #262626" transform="translate(27.82375 224.815677) scale(0.11 -0.11)">
       <use xlink:href="#DejaVuSans-38"/>
       <use xlink:href="#DejaVuSans-31" x="63.623047"/>
       <use xlink:href="#DejaVuSans-35" x="127.246094"/>
      </g>
     </g>
    </g>
    <g id="ytick_4">
     <g id="line2d_4">
      <path d="M 58.32 156.226095 
L 851.04 156.226095 
" clip-path="url(#pa0c4382710)" style="fill: none; stroke: #cccccc; stroke-linecap: round"/>
     </g>
     <g id="text_7">
      <!-- 820 -->
      <g style="fill: #262626" transform="translate(27.82375 160.405235) scale(0.11 -0.11)">
       <use xlink:href="#DejaVuSans-38"/>
       <use xlink:href="#DejaVuSans-32" x="63.623047"/>
       <use xlink:href="#DejaVuSans-30" x="127.246094"/>
      </g>
     </g>
    </g>
    <g id="ytick_5">
     <g id="line2d_5">
      <path d="M 58.32 91.815653 
L 851.04 91.815653 
" clip-path="url(#pa0c4382710)" style="fill: none; stroke: #cccccc; stroke-linecap: round"/>
     </g>
     <g id="text_8">
      <!-- 825 -->
      <g style="fill: #262626" transform="translate(27.82375 95.994794) scale(0.11 -0.11)">
       <use xlink:href="#DejaVuSans-38"/>
       <use xlink:href="#DejaVuSans-32" x="63.623047"/>
       <use xlink:href="#DejaVuSans-35" x="127.246094"/>
      </g>
     </g>
    </g>
    <g id="text_9">
     <!-- Handshake duration (ms) -->
     <g style="fill: #262626" transform="translate(21.328125 287.437813) rotate(-90) scale(0.12 -0.12)">
      <defs>
       <path id="DejaVuSans-48" d="M 628 4666 
L 1259 4666 
L 1259 2753 
L 3553 2753 
L 3553 4666 
L 4184 4666 
L 4184 0 
L 3553 0 
L 3553 2222 
L 1259 2222 
L 1259 0 
L 628 0 
L 628 4666 
z
" transform="scale(0.015625)"/>
       <path id="DejaVuSans-61" d="M 2194 1759 
Q 1497 1759 1228 1600 
Q 959 1441 959 1056 
Q 959 750 1161 570 
Q 1363 391 1709 391 
Q 2188 391 2477 730 
Q 2766 1069 2766 1631 
L 2766 1759 
L 2194 1759 
z
M 3341 1997 
L 3341 0 
L 2766 0 
L 2766 531 
Q 2569 213 2275 61 
Q 1981 -91 1556 -91 
Q 1019 -91 701 211 
Q 384 513 384 1019 
Q 384 1609 779 1909 
Q 1175 2209 1959 2209 
L 2766 2209 
L 2766 2266 
Q 2766 2663 2505 2880 
Q 2244 3097 1772 3097 
Q 1472 3097 1187 3025 
Q 903 2953 641 2809 
L 641 3341 
Q 956 3463 1253 3523 
Q 1550 3584 1831 3584 
Q 2591 3584 2966 3190 
Q 3341 2797 3341 1997 
z
" transform="scale(0.015625)"/>
       <path id="DejaVuSans-6e" d="M 3513 2113 
L 3513 0 
L 2938 0 
L 2938 2094 
Q 2938 2591 2744 2837 
Q 2550 3084 2163 3084 
Q 1697 3084 1428 2787 
Q 1159 2491 1159 1978 
L 1159 0 
L 581 0 
L 581 3500 
L 1159 3500 
L 1159 2956 
Q 1366 3272 1645 3428 
Q 1925 3584 2291 3584 
Q 2894 3584 3203 3211 
Q 3513 2838 3513 2113 
z
" transform="scale(0.015625)"/>
       <path id="DejaVuSans-64" d="M 2906 2969 
L 2906 4863 
L 3481 4863 
L 3481 0 
L 2906 0 
L 2906 525 
Q 2725 213 2448 61 
Q 2172 -91 1784 -91 
Q 1150 -91 751 415 
Q 353 922 353 1747 
Q 353 2572 751 3078 
Q 1150 3584 1784 3584 
Q 2172 3584 2448 3432 
Q 2725 3281 2906 2969 
z
M 947 1747 
Q 947 1113 1208 752 
Q 1469 391 1925 391 
Q 2381 391 2643 752 
Q 2906 1113 2906 1747 
Q 2906 2381 2643 2742 
Q 2381 3103 1925 3103 
Q 1469 3103 1208 2742 
Q 947 2381 947 1747 
z
" transform="scale(0.015625)"/>
       <path id="DejaVuSans-73" d="M 2834 3397 
L 2834 2853 
Q 2591 2978 2328 3040 
Q 2066 3103 1784 3103 
Q 1356 3103 1142 2972 
Q 928 2841 928 2578 
Q 928 2378 1081 2264 
Q 1234 2150 1697 2047 
L 1894 2003 
Q 2506 1872 2764 1633 
Q 3022 1394 3022 966 
Q 3022 478 2636 193 
Q 2250 -91 1575 -91 
Q 1294 -91 989 -36 
Q 684 19 347 128 
L 347 722 
Q 666 556 975 473 
Q 1284 391 1588 391 
Q 1994 391 2212 530 
Q 2431 669 2431 922 
Q 2431 1156 2273 1281 
Q 2116 1406 1581 1522 
L 1381 1569 
Q 847 1681 609 1914 
Q 372 2147 372 2553 
Q 372 3047 722 3315 
Q 1072 3584 1716 3584 
Q 2034 3584 2315 3537 
Q 2597 3491 2834 3397 
z
" transform="scale(0.015625)"/>
       <path id="DejaVuSans-68" d="M 3513 2113 
L 3513 0 
L 2938 0 
L 2938 2094 
Q 2938 2591 2744 2837 
Q 2550 3084 2163 3084 
Q 1697 3084 1428 2787 
Q 1159 2491 1159 1978 
L 1159 0 
L 581 0 
L 581 4863 
L 1159 4863 
L 1159 2956 
Q 1366 3272 1645 3428 
Q 1925 3584 2291 3584 
Q 2894 3584 3203 3211 
Q 3513 2838 3513 2113 
z
" transform="scale(0.015625)"/>
       <path id="DejaVuSans-20" transform="scale(0.015625)"/>
       <path id="DejaVuSans-75" d="M 544 1381 
L 544 3500 
L 1119 3500 
L 1119 1403 
Q 1119 906 1312 657 
Q 1506 409 1894 409 
Q 2359 409 2629 706 
Q 2900 1003 2900 1516 
L 2900 3500 
L 3475 3500 
L 3475 0 
L 2900 0 
L 2900 538 
Q 2691 219 2414 64 
Q 2138 -91 1772 -91 
Q 1169 -91 856 284 
Q 544 659 544 1381 
z
M 1991 3584 
L 1991 3584 
z
" transform="scale(0.015625)"/>
       <path id="DejaVuSans-72" d="M 2631 2963 
Q 2534 3019 2420 3045 
Q 2306 3072 2169 3072 
Q 1681 3072 1420 2755 
Q 1159 2438 1159 1844 
L 1159 0 
L 581 0 
L 581 3500 
L 1159 3500 
L 1159 2956 
Q 1341 3275 1631 3429 
Q 1922 3584 2338 3584 
Q 2397 3584 2469 3576 
Q 2541 3569 2628 3553 
L 2631 2963 
z
" transform="scale(0.015625)"/>
       <path id="DejaVuSans-74" d="M 1172 4494 
L 1172 3500 
L 2356 3500 
L 2356 3053 
L 1172 3053 
L 1172 1153 
Q 1172 725 1289 603 
Q 1406 481 1766 481 
L 2356 481 
L 2356 0 
L 1766 0 
Q 1100 0 847 248 
Q 594 497 594 1153 
L 594 3053 
L 172 3053 
L 172 3500 
L 594 3500 
L 594 4494 
L 1172 4494 
z
" transform="scale(0.015625)"/>
       <path id="DejaVuSans-69" d="M 603 3500 
L 1178 3500 
L 1178 0 
L 603 0 
L 603 3500 
z
M 603 4863 
L 1178 4863 
L 1178 4134 
L 603 4134 
L 603 4863 
z
" transform="scale(0.015625)"/>
       <path id="DejaVuSans-6f" d="M 1959 3097 
Q 1497 3097 1228 2736 
Q 959 2375 959 1747 
Q 959 1119 1226 758 
Q 1494 397 1959 397 
Q 2419 397 2687 759 
Q 2956 1122 2956 1747 
Q 2956 2369 2687 2733 
Q 2419 3097 1959 3097 
z
M 1959 3584 
Q 2709 3584 3137 3096 
Q 3566 2609 3566 1747 
Q 3566 888 3137 398 
Q 2709 -91 1959 -91 
Q 1206 -91 779 398 
Q 353 888 353 1747 
Q 353 2609 779 3096 
Q 1206 3584 1959 3584 
z
" transform="scale(0.015625)"/>
       <path id="DejaVuSans-28" d="M 1984 4856 
Q 1566 4138 1362 3434 
Q 1159 2731 1159 2009 
Q 1159 1288 1364 580 
Q 1569 -128 1984 -844 
L 1484 -844 
Q 1016 -109 783 600 
Q 550 1309 550 2009 
Q 550 2706 781 3412 
Q 1013 4119 1484 4856 
L 1984 4856 
z
" transform="scale(0.015625)"/>
       <path id="DejaVuSans-29" d="M 513 4856 
L 1013 4856 
Q 1481 4119 1714 3412 
Q 1947 2706 1947 2009 
Q 1947 1309 1714 600 
Q 1481 -109 1013 -844 
L 513 -844 
Q 928 -128 1133 580 
Q 1338 1288 1338 2009 
Q 1338 2731 1133 3434 
Q 928 4138 513 4856 
z
" transform="scale(0.015625)"/>
      </defs>
      <use xlink:href="#DejaVuSans-48"/>
      <use xlink:href="#DejaVuSans-61" x="75.195312"/>
      <use xlink:href="#DejaVuSans-6e" x="136.474609"/>
      <use xlink:href="#DejaVuSans-64" x="199.853516"/>
      <use xlink:href="#DejaVuSans-73" x="263.330078"/>
      <use xlink:href="#DejaVuSans-68" x="315.429688"/>
      <use xlink:href="#DejaVuSans-61" x="378.808594"/>
      <use xlink:href="#DejaVuSans-6b" x="440.087891"/>
      <use xlink:href="#DejaVuSans-65" x="494.373047"/>
      <use xlink:href="#DejaVuSans-20" x="555.896484"/>
      <use xlink:href="#DejaVuSans-64" x="587.683594"/>
      <use xlink:href="#DejaVuSans-75" x="651.160156"/>
      <use xlink:href="#DejaVuSans-72" x="714.539062"/>
      <use xlink:href="#DejaVuSans-61" x="755.652344"/>
      <use xlink:href="#DejaVuSans-74" x="816.931641"/>
      <use xlink:href="#DejaVuSans-69" x="856.140625"/>
      <use xlink:href="#DejaVuSans-6f" x="883.923828"/>
      <use xlink:href="#DejaVuSans-6e" x="945.105469"/>
      <use xlink:href="#DejaVuSans-20" x="1008.484375"/>
      <use xlink:href="#DejaVuSans-28" x="1040.271484"/>
      <use xlink:href="#DejaVuSans-6d" x="1079.285156"/>
      <use xlink:href="#DejaVuSans-73" x="1176.697266"/>
      <use xlink:href="#DejaVuSans-29" x="1228.796875"/>
     </g>
    </g>
   </g>
   <g id="PolyCollection_1">
    <defs>
     <path id="m40fe6081e2" d="M 191.401439 -66.273483 
L 189.478561 -66.273483 
L 188.492669 -66.957385 
L 186.743747 -67.641287 
L 183.85222 -68.325189 
L 179.392408 -69.009091 
L 172.971181 -69.692993 
L 164.340234 -70.376895 
L 153.519613 -71.060797 
L 140.896569 -71.744699 
L 127.259502 -72.428601 
L 113.736838 -73.112503 
L 101.635793 -73.796405 
L 92.210459 -74.480307 
L 86.419382 -75.164209 
L 84.744 -75.848111 
L 87.121432 -76.532013 
L 93.00391 -77.215915 
L 101.512596 -77.899817 
L 111.627925 -78.583719 
L 122.361503 -79.267621 
L 132.877527 -79.951522 
L 142.556834 -80.635424 
L 151.01149 -81.319326 
L 158.061838 -82.003228 
L 163.688353 -82.68713 
L 167.972474 -83.371032 
L 171.042637 -84.054934 
L 173.039433 -84.738836 
L 174.105656 -85.422738 
L 174.395962 -86.10664 
L 174.092627 -86.790542 
L 173.41257 -87.474444 
L 172.596591 -88.158346 
L 171.881607 -88.842248 
L 171.465262 -89.52615 
L 171.475816 -90.210052 
L 171.957609 -90.893954 
L 172.875829 -91.577856 
L 174.137292 -92.261758 
L 175.619146 -92.94566 
L 177.196113 -93.629562 
L 178.759037 -94.313464 
L 180.222342 -94.997366 
L 181.523401 -95.681268 
L 182.619921 -96.36517 
L 183.490218 -97.049072 
L 184.136636 -97.732974 
L 184.587934 -98.416875 
L 184.895878 -99.100777 
L 185.124865 -99.784679 
L 185.337906 -100.468581 
L 185.584154 -101.152483 
L 185.891543 -101.836385 
L 186.265108 -102.520287 
L 186.689698 -103.204189 
L 187.135669 -103.888091 
L 187.566643 -104.571993 
L 187.948398 -105.255895 
L 188.257252 -105.939797 
L 188.485702 -106.623699 
L 188.643358 -107.307601 
L 188.752577 -107.991503 
L 188.84026 -108.675405 
L 188.928967 -109.359307 
L 189.030827 -110.043209 
L 189.146377 -110.727111 
L 189.268164 -111.411013 
L 189.386847 -112.094915 
L 189.496724 -112.778817 
L 189.598206 -113.462719 
L 189.696491 -114.146621 
L 189.797635 -114.830523 
L 189.90445 -115.514425 
L 190.014502 -116.198327 
L 190.121067 -116.882228 
L 190.216133 -117.56613 
L 190.293597 -118.250032 
L 190.351077 -118.933934 
L 190.389855 -119.617836 
L 190.413493 -120.301738 
L 190.426081 -120.98564 
L 190.430826 -121.669542 
L 190.429232 -122.353444 
L 190.420817 -123.037346 
L 190.403271 -123.721248 
L 190.373123 -124.40515 
L 190.327088 -125.089052 
L 190.264036 -125.772954 
L 190.187085 -126.456856 
L 190.104778 -127.140758 
L 190.030281 -127.82466 
L 189.978221 -128.508562 
L 189.960072 -129.192464 
L 189.980048 -129.876366 
L 190.033517 -130.560268 
L 190.108742 -131.24417 
L 190.191067 -131.928072 
L 190.267498 -132.611974 
L 190.32977 -133.295876 
L 190.375047 -133.979778 
L 190.504953 -133.979778 
L 190.504953 -133.979778 
L 190.55023 -133.295876 
L 190.612502 -132.611974 
L 190.688933 -131.928072 
L 190.771258 -131.24417 
L 190.846483 -130.560268 
L 190.899952 -129.876366 
L 190.919928 -129.192464 
L 190.901779 -128.508562 
L 190.849719 -127.82466 
L 190.775222 -127.140758 
L 190.692915 -126.456856 
L 190.615964 -125.772954 
L 190.552912 -125.089052 
L 190.506877 -124.40515 
L 190.476729 -123.721248 
L 190.459183 -123.037346 
L 190.450768 -122.353444 
L 190.449174 -121.669542 
L 190.453919 -120.98564 
L 190.466507 -120.301738 
L 190.490145 -119.617836 
L 190.528923 -118.933934 
L 190.586403 -118.250032 
L 190.663867 -117.56613 
L 190.758933 -116.882228 
L 190.865498 -116.198327 
L 190.97555 -115.514425 
L 191.082365 -114.830523 
L 191.183509 -114.146621 
L 191.281794 -113.462719 
L 191.383276 -112.778817 
L 191.493153 -112.094915 
L 191.611836 -111.411013 
L 191.733623 -110.727111 
L 191.849173 -110.043209 
L 191.951033 -109.359307 
L 192.03974 -108.675405 
L 192.127423 -107.991503 
L 192.236642 -107.307601 
L 192.394298 -106.623699 
L 192.622748 -105.939797 
L 192.931602 -105.255895 
L 193.313357 -104.571993 
L 193.744331 -103.888091 
L 194.190302 -103.204189 
L 194.614892 -102.520287 
L 194.988457 -101.836385 
L 195.295846 -101.152483 
L 195.542094 -100.468581 
L 195.755135 -99.784679 
L 195.984122 -99.100777 
L 196.292066 -98.416875 
L 196.743364 -97.732974 
L 197.389782 -97.049072 
L 198.260079 -96.36517 
L 199.356599 -95.681268 
L 200.657658 -94.997366 
L 202.120963 -94.313464 
L 203.683887 -93.629562 
L 205.260854 -92.94566 
L 206.742708 -92.261758 
L 208.004171 -91.577856 
L 208.922391 -90.893954 
L 209.404184 -90.210052 
L 209.414738 -89.52615 
L 208.998393 -88.842248 
L 208.283409 -88.158346 
L 207.46743 -87.474444 
L 206.787373 -86.790542 
L 206.484038 -86.10664 
L 206.774344 -85.422738 
L 207.840567 -84.738836 
L 209.837363 -84.054934 
L 212.907526 -83.371032 
L 217.191647 -82.68713 
L 222.818162 -82.003228 
L 229.86851 -81.319326 
L 238.323166 -80.635424 
L 248.002473 -79.951522 
L 258.518497 -79.267621 
L 269.252075 -78.583719 
L 279.367404 -77.899817 
L 287.87609 -77.215915 
L 293.758568 -76.532013 
L 296.136 -75.848111 
L 294.460618 -75.164209 
L 288.669541 -74.480307 
L 279.244207 -73.796405 
L 267.143162 -73.112503 
L 253.620498 -72.428601 
L 239.983431 -71.744699 
L 227.360387 -71.060797 
L 216.539766 -70.376895 
L 207.908819 -69.692993 
L 201.487592 -69.009091 
L 197.02778 -68.325189 
L 194.136253 -67.641287 
L 192.387331 -66.957385 
L 191.401439 -66.273483 
z
" style="stroke: #595959; stroke-width: 1.25"/>
    </defs>
    <g clip-path="url(#pa0c4382710)">
     <use xlink:href="#m40fe6081e2" x="0" y="432" style="fill: #72b6a1; stroke: #595959; stroke-width: 1.25"/>
    </g>
   </g>
   <g id="PolyCollection_2">
    <defs>
     <path id="mbf162259ff" d="M 459.56672 -133.710087 
L 449.79328 -133.710087 
L 446.825547 -136.275578 
L 442.555957 -138.841068 
L 436.705346 -141.406558 
L 429.081601 -143.972049 
L 419.655345 -146.537539 
L 408.630109 -149.10303 
L 396.485502 -151.66852 
L 383.972591 -154.23401 
L 372.048957 -156.799501 
L 361.755945 -159.364991 
L 354.058394 -161.930482 
L 349.681441 -164.495972 
L 348.984 -167.061462 
L 351.901211 -169.626953 
L 357.97012 -172.192443 
L 366.430079 -174.757933 
L 376.369583 -177.323424 
L 386.88118 -179.888914 
L 397.188358 -182.454405 
L 406.720942 -185.019895 
L 415.133073 -187.585385 
L 422.273896 -190.150876 
L 428.130967 -192.716366 
L 432.768252 -195.281857 
L 436.275946 -197.847347 
L 438.741073 -200.412837 
L 440.239498 -202.978328 
L 440.843886 -205.543818 
L 440.639349 -208.109309 
L 439.738643 -210.674799 
L 438.290927 -213.240289 
L 436.481018 -215.80578 
L 434.518956 -218.37127 
L 432.621942 -220.936761 
L 430.992174 -223.502251 
L 429.794697 -226.067741 
L 429.139346 -228.633232 
L 429.070102 -231.198722 
L 429.563971 -233.764213 
L 430.539841 -236.329703 
L 431.8759 -238.895193 
L 433.432454 -241.460684 
L 435.075727 -244.026174 
L 436.697936 -246.591665 
L 438.229755 -249.157155 
L 439.643161 -251.722645 
L 440.94509 -254.288136 
L 442.164576 -256.853626 
L 443.337482 -259.419117 
L 444.493049 -261.984607 
L 445.645365 -264.550097 
L 446.790994 -267.115588 
L 447.912023 -269.681078 
L 448.982388 -272.246569 
L 449.974909 -274.812059 
L 450.866866 -277.377549 
L 451.64298 -279.94304 
L 452.295743 -282.50853 
L 452.823826 -285.074021 
L 453.229657 -287.639511 
L 453.51715 -290.205001 
L 453.690255 -292.770492 
L 453.752589 -295.335982 
L 453.708085 -297.901473 
L 453.562381 -300.466963 
L 453.324523 -303.032453 
L 453.008474 -305.597944 
L 452.633955 -308.163434 
L 452.226236 -310.728924 
L 451.814693 -313.294415 
L 451.43024 -315.859905 
L 451.102036 -318.425396 
L 450.854038 -320.990886 
L 450.702062 -323.556376 
L 450.651905 -326.121867 
L 450.698882 -328.687357 
L 450.828889 -331.252848 
L 451.020833 -333.818338 
L 451.250078 -336.383828 
L 451.49234 -338.949319 
L 451.727372 -341.514809 
L 451.94176 -344.0803 
L 452.130288 -346.64579 
L 452.295573 -349.21128 
L 452.446119 -351.776771 
L 452.593275 -354.342261 
L 452.747885 -356.907752 
L 452.917455 -359.473242 
L 453.104465 -362.038732 
L 453.306111 -364.604223 
L 453.515338 -367.169713 
L 453.722704 -369.735204 
L 453.918502 -372.300694 
L 454.094567 -374.866184 
L 454.245446 -377.431675 
L 454.36879 -379.997165 
L 454.465085 -382.562656 
L 454.536949 -385.128146 
L 454.588259 -387.693636 
L 454.771741 -387.693636 
L 454.771741 -387.693636 
L 454.823051 -385.128146 
L 454.894915 -382.562656 
L 454.99121 -379.997165 
L 455.114554 -377.431675 
L 455.265433 -374.866184 
L 455.441498 -372.300694 
L 455.637296 -369.735204 
L 455.844662 -367.169713 
L 456.053889 -364.604223 
L 456.255535 -362.038732 
L 456.442545 -359.473242 
L 456.612115 -356.907752 
L 456.766725 -354.342261 
L 456.913881 -351.776771 
L 457.064427 -349.21128 
L 457.229712 -346.64579 
L 457.41824 -344.0803 
L 457.632628 -341.514809 
L 457.86766 -338.949319 
L 458.109922 -336.383828 
L 458.339167 -333.818338 
L 458.531111 -331.252848 
L 458.661118 -328.687357 
L 458.708095 -326.121867 
L 458.657938 -323.556376 
L 458.505962 -320.990886 
L 458.257964 -318.425396 
L 457.92976 -315.859905 
L 457.545307 -313.294415 
L 457.133764 -310.728924 
L 456.726045 -308.163434 
L 456.351526 -305.597944 
L 456.035477 -303.032453 
L 455.797619 -300.466963 
L 455.651915 -297.901473 
L 455.607411 -295.335982 
L 455.669745 -292.770492 
L 455.84285 -290.205001 
L 456.130343 -287.639511 
L 456.536174 -285.074021 
L 457.064257 -282.50853 
L 457.71702 -279.94304 
L 458.493134 -277.377549 
L 459.385091 -274.812059 
L 460.377612 -272.246569 
L 461.447977 -269.681078 
L 462.569006 -267.115588 
L 463.714635 -264.550097 
L 464.866951 -261.984607 
L 466.022518 -259.419117 
L 467.195424 -256.853626 
L 468.41491 -254.288136 
L 469.716839 -251.722645 
L 471.130245 -249.157155 
L 472.662064 -246.591665 
L 474.284273 -244.026174 
L 475.927546 -241.460684 
L 477.4841 -238.895193 
L 478.820159 -236.329703 
L 479.796029 -233.764213 
L 480.289898 -231.198722 
L 480.220654 -228.633232 
L 479.565303 -226.067741 
L 478.367826 -223.502251 
L 476.738058 -220.936761 
L 474.841044 -218.37127 
L 472.878982 -215.80578 
L 471.069073 -213.240289 
L 469.621357 -210.674799 
L 468.720651 -208.109309 
L 468.516114 -205.543818 
L 469.120502 -202.978328 
L 470.618927 -200.412837 
L 473.084054 -197.847347 
L 476.591748 -195.281857 
L 481.229033 -192.716366 
L 487.086104 -190.150876 
L 494.226927 -187.585385 
L 502.639058 -185.019895 
L 512.171642 -182.454405 
L 522.47882 -179.888914 
L 532.990417 -177.323424 
L 542.929921 -174.757933 
L 551.38988 -172.192443 
L 557.458789 -169.626953 
L 560.376 -167.061462 
L 559.678559 -164.495972 
L 555.301606 -161.930482 
L 547.604055 -159.364991 
L 537.311043 -156.799501 
L 525.387409 -154.23401 
L 512.874498 -151.66852 
L 500.729891 -149.10303 
L 489.704655 -146.537539 
L 480.278399 -143.972049 
L 472.654654 -141.406558 
L 466.804043 -138.841068 
L 462.534453 -136.275578 
L 459.56672 -133.710087 
z
" style="stroke: #595959; stroke-width: 1.25"/>
    </defs>
    <g clip-path="url(#pa0c4382710)">
     <use xlink:href="#mbf162259ff" x="0" y="432" style="fill: #e99675; stroke: #595959; stroke-width: 1.25"/>
    </g>
   </g>
   <g id="PolyCollection_3">
    <defs>
     <path id="m5317bdbd41" d="M 719.300781 -53.566364 
L 718.539219 -53.566364 
L 718.241532 -53.85116 
L 717.758953 -54.135956 
L 717.008869 -54.420752 
L 715.889237 -54.705548 
L 714.281543 -54.990344 
L 712.056958 -55.27514 
L 709.085638 -55.559936 
L 705.248808 -55.844732 
L 700.453016 -56.129528 
L 694.645711 -56.414324 
L 687.831029 -56.69912 
L 680.084013 -56.983916 
L 671.560846 -57.268712 
L 662.502129 -57.553508 
L 653.226433 -57.838304 
L 644.112442 -58.1231 
L 635.570013 -58.407896 
L 628.002903 -58.692692 
L 621.768205 -58.977488 
L 617.139097 -59.262284 
L 614.277768 -59.547081 
L 613.224 -59.831877 
L 613.901743 -60.116673 
L 616.14164 -60.401469 
L 619.7132 -60.686265 
L 624.357862 -60.971061 
L 629.814913 -61.255857 
L 635.835987 -61.540653 
L 642.188984 -61.825449 
L 648.656279 -62.110245 
L 655.03304 -62.395041 
L 661.129373 -62.679837 
L 666.776343 -62.964633 
L 671.83302 -63.249429 
L 676.191204 -63.534225 
L 679.776362 -63.819021 
L 682.546156 -64.103817 
L 684.489885 -64.388613 
L 685.631836 -64.673409 
L 686.038902 -64.958205 
L 685.829226 -65.243001 
L 685.175856 -65.527797 
L 684.299329 -65.812593 
L 683.446125 -66.097389 
L 682.855202 -66.382186 
L 682.720167 -66.666982 
L 683.157558 -66.951778 
L 684.190875 -67.236574 
L 685.755332 -67.52137 
L 687.721707 -67.806166 
L 689.931663 -68.090962 
L 692.233799 -68.375758 
L 694.510536 -68.660554 
L 696.690046 -68.94535 
L 698.743118 -69.230146 
L 700.669641 -69.514942 
L 702.481701 -69.799738 
L 704.18963 -70.084534 
L 705.794605 -70.36933 
L 707.28809 -70.654126 
L 708.65608 -70.938922 
L 709.885224 -71.223718 
L 710.9683 -71.508514 
L 711.907421 -71.79331 
L 712.714216 -72.078106 
L 713.407004 -72.362902 
L 714.005677 -72.647698 
L 714.525829 -72.932495 
L 714.974202 -73.217291 
L 715.347454 -73.502087 
L 715.635246 -73.786883 
L 715.827009 -74.071679 
L 715.92007 -74.356475 
L 715.925985 -74.641271 
L 715.872369 -74.926067 
L 715.799155 -75.210863 
L 715.75032 -75.495659 
L 715.763813 -75.780455 
L 715.862964 -76.065251 
L 716.05197 -76.350047 
L 716.316451 -76.634843 
L 716.628414 -76.919639 
L 716.953759 -77.204435 
L 717.260137 -77.489231 
L 717.523278 -77.774027 
L 717.730644 -78.058823 
L 717.882026 -78.343619 
L 717.987405 -78.628415 
L 718.062894 -78.913211 
L 718.125917 -79.198007 
L 718.190862 -79.482803 
L 718.266247 -79.7676 
L 718.353911 -80.052396 
L 718.450116 -80.337192 
L 718.547891 -80.621988 
L 718.639686 -80.906784 
L 718.719489 -81.19158 
L 718.783957 -81.476376 
L 718.832506 -81.761172 
L 719.007494 -81.761172 
L 719.007494 -81.761172 
L 719.056043 -81.476376 
L 719.120511 -81.19158 
L 719.200314 -80.906784 
L 719.292109 -80.621988 
L 719.389884 -80.337192 
L 719.486089 -80.052396 
L 719.573753 -79.7676 
L 719.649138 -79.482803 
L 719.714083 -79.198007 
L 719.777106 -78.913211 
L 719.852595 -78.628415 
L 719.957974 -78.343619 
L 720.109356 -78.058823 
L 720.316722 -77.774027 
L 720.579863 -77.489231 
L 720.886241 -77.204435 
L 721.211586 -76.919639 
L 721.523549 -76.634843 
L 721.78803 -76.350047 
L 721.977036 -76.065251 
L 722.076187 -75.780455 
L 722.08968 -75.495659 
L 722.040845 -75.210863 
L 721.967631 -74.926067 
L 721.914015 -74.641271 
L 721.91993 -74.356475 
L 722.012991 -74.071679 
L 722.204754 -73.786883 
L 722.492546 -73.502087 
L 722.865798 -73.217291 
L 723.314171 -72.932495 
L 723.834323 -72.647698 
L 724.432996 -72.362902 
L 725.125784 -72.078106 
L 725.932579 -71.79331 
L 726.8717 -71.508514 
L 727.954776 -71.223718 
L 729.18392 -70.938922 
L 730.55191 -70.654126 
L 732.045395 -70.36933 
L 733.65037 -70.084534 
L 735.358299 -69.799738 
L 737.170359 -69.514942 
L 739.096882 -69.230146 
L 741.149954 -68.94535 
L 743.329464 -68.660554 
L 745.606201 -68.375758 
L 747.908337 -68.090962 
L 750.118293 -67.806166 
L 752.084668 -67.52137 
L 753.649125 -67.236574 
L 754.682442 -66.951778 
L 755.119833 -66.666982 
L 754.984798 -66.382186 
L 754.393875 -66.097389 
L 753.540671 -65.812593 
L 752.664144 -65.527797 
L 752.010774 -65.243001 
L 751.801098 -64.958205 
L 752.208164 -64.673409 
L 753.350115 -64.388613 
L 755.293844 -64.103817 
L 758.063638 -63.819021 
L 761.648796 -63.534225 
L 766.00698 -63.249429 
L 771.063657 -62.964633 
L 776.710627 -62.679837 
L 782.80696 -62.395041 
L 789.183721 -62.110245 
L 795.651016 -61.825449 
L 802.004013 -61.540653 
L 808.025087 -61.255857 
L 813.482138 -60.971061 
L 818.1268 -60.686265 
L 821.69836 -60.401469 
L 823.938257 -60.116673 
L 824.616 -59.831877 
L 823.562232 -59.547081 
L 820.700903 -59.262284 
L 816.071795 -58.977488 
L 809.837097 -58.692692 
L 802.269987 -58.407896 
L 793.727558 -58.1231 
L 784.613567 -57.838304 
L 775.337871 -57.553508 
L 766.279154 -57.268712 
L 757.755987 -56.983916 
L 750.008971 -56.69912 
L 743.194289 -56.414324 
L 737.386984 -56.129528 
L 732.591192 -55.844732 
L 728.754362 -55.559936 
L 725.783042 -55.27514 
L 723.558457 -54.990344 
L 721.950763 -54.705548 
L 720.831131 -54.420752 
L 720.081047 -54.135956 
L 719.598468 -53.85116 
L 719.300781 -53.566364 
z
" style="stroke: #595959; stroke-width: 1.25"/>
    </defs>
    <g clip-path="url(#pa0c4382710)">
     <use xlink:href="#m5317bdbd41" x="0" y="432" style="fill: #95a3c3; stroke: #595959; stroke-width: 1.25"/>
    </g>
   </g>
   <g id="line2d_6">
    <path d="M 190.44 357.186673 
L 190.44 360.922479 
" clip-path="url(#pa0c4382710)" style="fill: none; stroke: #000000"/>
   </g>
   <g id="line2d_7">
    <path d="M 190.44 350.487987 
L 190.44 340.568779 
" clip-path="url(#pa0c4382710)" style="fill: none; stroke: #000000"/>
   </g>
   <g id="line2d_8">
    <path d="M 180.531 360.922479 
L 200.349 360.922479 
" clip-path="url(#pa0c4382710)" style="fill: none; stroke: #000000; stroke-linecap: round"/>
   </g>
   <g id="line2d_9">
    <path d="M 180.531 340.568779 
L 200.349 340.568779 
" clip-path="url(#pa0c4382710)" style="fill: none; stroke: #000000; stroke-linecap: round"/>
   </g>
   <g id="line2d_10">
    <path d="M 454.68 267.913801 
L 454.68 273.324278 
" clip-path="url(#pa0c4382710)" style="fill: none; stroke: #000000"/>
   </g>
   <g id="line2d_11">
    <path d="M 454.68 212.005537 
L 454.68 154.03614 
" clip-path="url(#pa0c4382710)" style="fill: none; stroke: #000000"/>
   </g>
   <g id="line2d_12">
    <path d="M 444.771 273.324278 
L 464.589 273.324278 
" clip-path="url(#pa0c4382710)" style="fill: none; stroke: #000000; stroke-linecap: round"/>
   </g>
   <g id="line2d_13">
    <path d="M 444.771 154.03614 
L 464.589 154.03614 
" clip-path="url(#pa0c4382710)" style="fill: none; stroke: #000000; stroke-linecap: round"/>
   </g>
   <g id="line2d_14">
    <path d="M 718.92 372.774 
L 718.92 375.994522 
" clip-path="url(#pa0c4382710)" style="fill: none; stroke: #000000"/>
   </g>
   <g id="line2d_15">
    <path d="M 718.92 367.331318 
L 718.92 359.63427 
" clip-path="url(#pa0c4382710)" style="fill: none; stroke: #000000"/>
   </g>
   <g id="line2d_16">
    <path d="M 709.011 375.994522 
L 728.829 375.994522 
" clip-path="url(#pa0c4382710)" style="fill: none; stroke: #000000; stroke-linecap: round"/>
   </g>
   <g id="line2d_17">
    <path d="M 709.011 359.63427 
L 728.829 359.63427 
" clip-path="url(#pa0c4382710)" style="fill: none; stroke: #000000; stroke-linecap: round"/>
   </g>
   <g id="line2d_18">
    <path d="M 170.622 355.125539 
L 210.258 355.125539 
" clip-path="url(#pa0c4382710)" style="fill: none; stroke: #ff0000; stroke-width: 2"/>
   </g>
   <g id="line2d_19">
    <path d="M 434.862 264.371227 
L 474.498 264.371227 
" clip-path="url(#pa0c4382710)" style="fill: none; stroke: #ff0000; stroke-width: 2"/>
   </g>
   <g id="line2d_20">
    <path d="M 699.102 370.906097 
L 738.738 370.906097 
" clip-path="url(#pa0c4382710)" style="fill: none; stroke: #ff0000; stroke-width: 2"/>
   </g>
   <g id="patch_3">
    <path d="M 58.32 395.14 
L 58.32 27.6 
" style="fill: none; stroke: #cccccc; stroke-width: 1.25; stroke-linejoin: miter; stroke-linecap: square"/>
   </g>
   <g id="patch_4">
    <path d="M 851.04 395.14 
L 851.04 27.6 
" style="fill: none; stroke: #cccccc; stroke-width: 1.25; stroke-linejoin: miter; stroke-linecap: square"/>
   </g>
   <g id="patch_5">
    <path d="M 58.32 395.14 
L 851.04 395.14 
" style="fill: none; stroke: #cccccc; stroke-width: 1.25; stroke-linejoin: miter; stroke-linecap: square"/>
   </g>
   <g id="patch_6">
    <path d="M 58.32 27.6 
L 851.04 27.6 
" style="fill: none; stroke: #cccccc; stroke-width: 1.25; stroke-linejoin: miter; stroke-linecap: square"/>
   </g>
   <g id="text_10">
    <!-- Handshake duration on QUIC with mldsa87 signature algorithm — Degraded (200ms/10%) -->
    <g style="fill: #262626" transform="translate(182.723437 21.6) scale(0.12 -0.12)">
     <defs>
      <path id="DejaVuSans-51" d="M 2522 4238 
Q 1834 4238 1429 3725 
Q 1025 3213 1025 2328 
Q 1025 1447 1429 934 
Q 1834 422 2522 422 
Q 3209 422 3611 934 
Q 4013 1447 4013 2328 
Q 4013 3213 3611 3725 
Q 3209 4238 2522 4238 
z
M 3406 84 
L 4238 -825 
L 3475 -825 
L 2784 -78 
Q 2681 -84 2626 -87 
Q 2572 -91 2522 -91 
Q 1538 -91 948 567 
Q 359 1225 359 2328 
Q 359 3434 948 4092 
Q 1538 4750 2522 4750 
Q 3503 4750 4090 4092 
Q 4678 3434 4678 2328 
Q 4678 1516 4351 937 
Q 4025 359 3406 84 
z
" transform="scale(0.015625)"/>
      <path id="DejaVuSans-55" d="M 556 4666 
L 1191 4666 
L 1191 1831 
Q 1191 1081 1462 751 
Q 1734 422 2344 422 
Q 2950 422 3222 751 
Q 3494 1081 3494 1831 
L 3494 4666 
L 4128 4666 
L 4128 1753 
Q 4128 841 3676 375 
Q 3225 -91 2344 -91 
Q 1459 -91 1007 375 
Q 556 841 556 1753 
L 556 4666 
z
" transform="scale(0.015625)"/>
      <path id="DejaVuSans-49" d="M 628 4666 
L 1259 4666 
L 1259 0 
L 628 0 
L 628 4666 
z
" transform="scale(0.015625)"/>
      <path id="DejaVuSans-43" d="M 4122 4306 
L 4122 3641 
Q 3803 3938 3442 4084 
Q 3081 4231 2675 4231 
Q 1875 4231 1450 3742 
Q 1025 3253 1025 2328 
Q 1025 1406 1450 917 
Q 1875 428 2675 428 
Q 3081 428 3442 575 
Q 3803 722 4122 1019 
L 4122 359 
Q 3791 134 3420 21 
Q 3050 -91 2638 -91 
Q 1578 -91 968 557 
Q 359 1206 359 2328 
Q 359 3453 968 4101 
Q 1578 4750 2638 4750 
Q 3056 4750 3426 4639 
Q 3797 4528 4122 4306 
z
" transform="scale(0.015625)"/>
      <path id="DejaVuSans-77" d="M 269 3500 
L 844 3500 
L 1563 769 
L 2278 3500 
L 2956 3500 
L 3675 769 
L 4391 3500 
L 4966 3500 
L 4050 0 
L 3372 0 
L 2619 2869 
L 1863 0 
L 1184 0 
L 269 3500 
z
" transform="scale(0.015625)"/>
      <path id="DejaVuSans-37" d="M 525 4666 
L 3525 4666 
L 3525 4397 
L 1831 0 
L 1172 0 
L 2766 4134 
L 525 4134 
L 525 4666 
z
" transform="scale(0.015625)"/>
      <path id="DejaVuSans-67" d="M 2906 1791 
Q 2906 2416 2648 2759 
Q 2391 3103 1925 3103 
Q 1463 3103 1205 2759 
Q 947 2416 947 1791 
Q 947 1169 1205 825 
Q 1463 481 1925 481 
Q 2391 481 2648 825 
Q 2906 1169 2906 1791 
z
M 3481 434 
Q 3481 -459 3084 -895 
Q 2688 -1331 1869 -1331 
Q 1566 -1331 1297 -1286 
Q 1028 -1241 775 -1147 
L 775 -588 
Q 1028 -725 1275 -790 
Q 1522 -856 1778 -856 
Q 2344 -856 2625 -561 
Q 2906 -266 2906 331 
L 2906 616 
Q 2728 306 2450 153 
Q 2172 0 1784 0 
Q 1141 0 747 490 
Q 353 981 353 1791 
Q 353 2603 747 3093 
Q 1141 3584 1784 3584 
Q 2172 3584 2450 3431 
Q 2728 3278 2906 2969 
L 2906 3500 
L 3481 3500 
L 3481 434 
z
" transform="scale(0.015625)"/>
      <path id="DejaVuSans-2014" d="M 313 1978 
L 6088 1978 
L 6088 1528 
L 313 1528 
L 313 1978 
z
" transform="scale(0.015625)"/>
      <path id="DejaVuSans-44" d="M 1259 4147 
L 1259 519 
L 2022 519 
Q 2988 519 3436 956 
Q 3884 1394 3884 2338 
Q 3884 3275 3436 3711 
Q 2988 4147 2022 4147 
L 1259 4147 
z
M 628 4666 
L 1925 4666 
Q 3281 4666 3915 4102 
Q 4550 3538 4550 2338 
Q 4550 1131 3912 565 
Q 3275 0 1925 0 
L 628 0 
L 628 4666 
z
" transform="scale(0.015625)"/>
      <path id="DejaVuSans-2f" d="M 1625 4666 
L 2156 4666 
L 531 -594 
L 0 -594 
L 1625 4666 
z
" transform="scale(0.015625)"/>
      <path id="DejaVuSans-25" d="M 4653 2053 
Q 4381 2053 4226 1822 
Q 4072 1591 4072 1178 
Q 4072 772 4226 539 
Q 4381 306 4653 306 
Q 4919 306 5073 539 
Q 5228 772 5228 1178 
Q 5228 1588 5073 1820 
Q 4919 2053 4653 2053 
z
M 4653 2450 
Q 5147 2450 5437 2106 
Q 5728 1763 5728 1178 
Q 5728 594 5436 251 
Q 5144 -91 4653 -91 
Q 4153 -91 3862 251 
Q 3572 594 3572 1178 
Q 3572 1766 3864 2108 
Q 4156 2450 4653 2450 
z
M 1428 4353 
Q 1159 4353 1004 4120 
Q 850 3888 850 3481 
Q 850 3069 1003 2837 
Q 1156 2606 1428 2606 
Q 1700 2606 1854 2837 
Q 2009 3069 2009 3481 
Q 2009 3884 1853 4118 
Q 1697 4353 1428 4353 
z
M 4250 4750 
L 4750 4750 
L 1831 -91 
L 1331 -91 
L 4250 4750 
z
M 1428 4750 
Q 1922 4750 2215 4408 
Q 2509 4066 2509 3481 
Q 2509 2891 2217 2550 
Q 1925 2209 1428 2209 
Q 931 2209 642 2551 
Q 353 2894 353 3481 
Q 353 4063 643 4406 
Q 934 4750 1428 4750 
z
" transform="scale(0.015625)"/>
     </defs>
     <use xlink:href="#DejaVuSans-48"/>
     <use xlink:href="#DejaVuSans-61" x="75.195312"/>
     <use xlink:href="#DejaVuSans-6e" x="136.474609"/>
     <use xlink:href="#DejaVuSans-64" x="199.853516"/>
     <use xlink:href="#DejaVuSans-73" x="263.330078"/>
     <use xlink:href="#DejaVuSans-68" x="315.429688"/>
     <use xlink:href="#DejaVuSans-61" x="378.808594"/>
     <use xlink:href="#DejaVuSans-6b" x="440.087891"/>
     <use xlink:href="#DejaVuSans-65" x="494.373047"/>
     <use xlink:href="#DejaVuSans-20" x="555.896484"/>
     <use xlink:href="#DejaVuSans-64" x="587.683594"/>
     <use xlink:href="#DejaVuSans-75" x="651.160156"/>
     <use xlink:href="#DejaVuSans-72" x="714.539062"/>
     <use xlink:href="#DejaVuSans-61" x="755.652344"/>
     <use xlink:href="#DejaVuSans-74" x="816.931641"/>
     <use xlink:href="#DejaVuSans-69" x="856.140625"/>
     <use xlink:href="#DejaVuSans-6f" x="883.923828"/>
     <use xlink:href="#DejaVuSans-6e" x="945.105469"/>
     <use xlink:href="#DejaVuSans-20" x="1008.484375"/>
     <use xlink:href="#DejaVuSans-6f" x="1040.271484"/>
     <use xlink:href="#DejaVuSans-6e" x="1101.453125"/>
     <use xlink:href="#DejaVuSans-20" x="1164.832031"/>
     <use xlink:href="#DejaVuSans-51" x="1196.619141"/>
     <use xlink:href="#DejaVuSans-55" x="1275.330078"/>
     <use xlink:href="#DejaVuSans-49" x="1348.523438"/>
     <use xlink:href="#DejaVuSans-43" x="1378.015625"/>
     <use xlink:href="#DejaVuSans-20" x="1447.839844"/>
     <use xlink:href="#DejaVuSans-77" x="1479.626953"/>
     <use xlink:href="#DejaVuSans-69" x="1561.414062"/>
     <use xlink:href="#DejaVuSans-74" x="1589.197266"/>
     <use xlink:href="#DejaVuSans-68" x="1628.40625"/>
     <use xlink:href="#DejaVuSans-20" x="1691.785156"/>
     <use xlink:href="#DejaVuSans-6d" x="1723.572266"/>
     <use xlink:href="#DejaVuSans-6c" x="1820.984375"/>
     <use xlink:href="#DejaVuSans-64" x="1848.767578"/>
     <use xlink:href="#DejaVuSans-73" x="1912.244141"/>
     <use xlink:href="#DejaVuSans-61" x="1964.34375"/>
     <use xlink:href="#DejaVuSans-38" x="2025.623047"/>
     <use xlink:href="#DejaVuSans-37" x="2089.246094"/>
     <use xlink:href="#DejaVuSans-20" x="2152.869141"/>
     <use xlink:href="#DejaVuSans-73" x="2184.65625"/>
     <use xlink:href="#DejaVuSans-69" x="2236.755859"/>
     <use xlink:href="#DejaVuSans-67" x="2264.539062"/>
     <use xlink:href="#DejaVuSans-6e" x="2328.015625"/>
     <use xlink:href="#DejaVuSans-61" x="2391.394531"/>
     <use xlink:href="#DejaVuSans-74" x="2452.673828"/>
     <use xlink:href="#DejaVuSans-75" x="2491.882812"/>
     <use xlink:href="#DejaVuSans-72" x="2555.261719"/>
     <use xlink:href="#DejaVuSans-65" x="2594.125"/>
     <use xlink:href="#DejaVuSans-20" x="2655.648438"/>
     <use xlink:href="#DejaVuSans-61" x="2687.435547"/>
     <use xlink:href="#DejaVuSans-6c" x="2748.714844"/>
     <use xlink:href="#DejaVuSans-67" x="2776.498047"/>
     <use xlink:href="#DejaVuSans-6f" x="2839.974609"/>
     <use xlink:href="#DejaVuSans-72" x="2901.15625"/>
     <use xlink:href="#DejaVuSans-69" x="2942.269531"/>
     <use xlink:href="#DejaVuSans-74" x="2970.052734"/>
     <use xlink:href="#DejaVuSans-68" x="3009.261719"/>
     <use xlink:href="#DejaVuSans-6d" x="3072.640625"/>
     <use xlink:href="#DejaVuSans-20" x="3170.052734"/>
     <use xlink:href="#DejaVuSans-2014" x="3201.839844"/>
     <use xlink:href="#DejaVuSans-20" x="3301.839844"/>
     <use xlink:href="#DejaVuSans-44" x="3333.626953"/>
     <use xlink:href="#DejaVuSans-65" x="3410.628906"/>
     <use xlink:href="#DejaVuSans-67" x="3472.152344"/>
     <use xlink:href="#DejaVuSans-72" x="3535.628906"/>
     <use xlink:href="#DejaVuSans-61" x="3576.742188"/>
     <use xlink:href="#DejaVuSans-64" x="3638.021484"/>
     <use xlink:href="#DejaVuSans-65" x="3701.498047"/>
     <use xlink:href="#DejaVuSans-64" x="3763.021484"/>
     <use xlink:href="#DejaVuSans-20" x="3826.498047"/>
     <use xlink:href="#DejaVuSans-28" x="3858.285156"/>
     <use xlink:href="#DejaVuSans-32" x="3897.298828"/>
     <use xlink:href="#DejaVuSans-30" x="3960.921875"/>
     <use xlink:href="#DejaVuSans-30" x="4024.544922"/>
     <use xlink:href="#DejaVuSans-6d" x="4088.167969"/>
     <use xlink:href="#DejaVuSans-73" x="4185.580078"/>
     <use xlink:href="#DejaVuSans-2f" x="4237.679688"/>
     <use xlink:href="#DejaVuSans-31" x="4271.371094"/>
     <use xlink:href="#DejaVuSans-30" x="4334.994141"/>
     <use xlink:href="#DejaVuSans-25" x="4398.617188"/>
     <use xlink:href="#DejaVuSans-29" x="4493.636719"/>
    </g>
   </g>
  </g>
 </g>
 <defs>
  <clipPath id="pa0c4382710">
   <rect x="58.32" y="27.6" width="792.72" height="367.54"/>
  </clipPath>
 </defs>
</svg>
