<?xml version="1.0" encoding="utf-8" standalone="no"?>
<!DOCTYPE svg PUBLIC "-//W3C//DTD SVG 1.1//EN"
  "http://www.w3.org/Graphics/SVG/1.1/DTD/svg11.dtd">
<svg xmlns:xlink="http://www.w3.org/1999/xlink" width="864pt" height="432pt" viewBox="0 0 864 432" xmlns="http://www.w3.org/2000/svg" version="1.1">
 <metadata>
  <rdf:RDF xmlns:dc="http://purl.org/dc/elements/1.1/" xmlns:cc="http://creativecommons.org/ns#" xmlns:rdf="http://www.w3.org/1999/02/22-rdf-syntax-ns#">
   <cc:Work>
    <dc:type rdf:resource="http://purl.org/dc/dcmitype/StillImage"/>
    <dc:date>2026-03-21T13:58:48.474388</dc:date>
    <dc:format>image/svg+xml</dc:format>
    <dc:creator>
     <cc:Agent>
      <dc:title>Matplotlib v3.6.3, https://matplotlib.org/</dc:title>
     </cc:Agent>
    </dc:creator>
   </cc:Work>
  </rdf:RDF>
 </metadata>
 <defs>
  <style type="text/css">*{stroke-linejoin: round; stroke-linecap: butt}</style>
 </defs>
 <g id="figure_1">
  <g id="patch_1">
   <path d="M 0 432 
L 864 432 
L 864 0 
L 0 0 
z
" style="fill: #ffffff"/>
  </g>
  <g id="axes_1">
   <g id="patch_2">
    <path d="M 58.32 395.14 
L 851.04 395.14 
L 851.04 27.6 
L 58.32 27.6 
z
" style="fill: #ffffff"/>
   </g>
   <g id="matplotlib.axis_1">
    <g id="xtick_1">
     <g id="text_1">
      <!-- P-256 -->
      <g style="fill: #262626" transform="translate(117.642 415.277812) scale(0.14 -0.14)">
       <defs>
        <path id="DejaVuSans-50" d="M 1259 4147 
L 1259 2394 
L 2053 2394 
Q 2494 2394 2734 2622 
Q 2975 2850 2975 3272 
Q 2975 3691 2734 3919 
Q 2494 4147 2053 4147 
L 1259 4147 
z
M 628 4666 
L 2053 4666 
Q 2838 4666 3239 4311 
Q 3641 3956 3641 3272 
Q 3641 2581 3239 2228 
Q 2838 1875 2053 1875 
L 1259 1875 
L 1259 0 
L 628 0 
L 628 4666 
z
" transform="scale(0.015625)"/>
        <path id="DejaVuSans-2d" d="M 313 2009 
L 1997 2009 
L 1997 1497 
L 313 1497 
L 313 2009 
z
" transform="scale(0.015625)"/>
        <path id="DejaVuSans-32" d="M 1228 531 
L 3431 531 
L 3431 0 
L 469 0 
L 469 531 
Q 828 903 1448 1529 
Q 2069 2156 2228 2338 
Q 2531 2678 2651 2914 
Q 2772 3150 2772 3378 
Q 2772 3750 2511 3984 
Q 2250 4219 1831 4219 
Q 1534 4219 1204 4116 
Q 875 4013 500 3803 
L 500 4441 
Q 881 4594 1212 4672 
Q 1544 4750 1819 4750 
Q 2544 4750 2975 4387 
Q 3406 4025 3406 3419 
Q 3406 3131 3298 2873 
Q 3191 2616 2906 2266 
Q 2828 2175 2409 1742 
Q 1991 1309 1228 531 
z
" transform="scale(0.015625)"/>
        <path id="DejaVuSans-35" d="M 691 4666 
L 3169 4666 
L 3169 4134 
L 1269 4134 
L 1269 2991 
Q 1406 3038 1543 3061 
Q 1681 3084 1819 3084 
Q 2600 3084 3056 2656 
Q 3513 2228 3513 1497 
Q 3513 744 3044 326 
Q 2575 -91 1722 -91 
Q 1428 -91 1123 -41 
Q 819 9 494 109 
L 494 744 
Q 775 591 1075 516 
Q 1375 441 1709 441 
Q 2250 441 2565 725 
Q 2881 1009 2881 1497 
Q 2881 1984 2565 2268 
Q 2250 2553 1709 2553 
Q 1456 2553 1204 2497 
Q 953 2441 691 2322 
L 691 4666 
z
" transform="scale(0.015625)"/>
        <path id="DejaVuSans-36" d="M 2113 2584 
Q 1688 2584 1439 2293 
Q 1191 2003 1191 1497 
Q 1191 994 1439 701 
Q 1688 409 2113 409 
Q 2538 409 2786 701 
Q 3034 994 3034 1497 
Q 3034 2003 2786 2293 
Q 2538 2584 2113 2584 
z
M 3366 4563 
L 3366 3988 
Q 3128 4100 2886 4159 
Q 2644 4219 2406 4219 
Q 1781 4219 1451 3797 
Q 1122 3375 1075 2522 
Q 1259 2794 1537 2939 
Q 1816 3084 2150 3084 
Q 2853 3084 3261 2657 
Q 3669 2231 3669 1497 
Q 3669 778 3244 343 
Q 2819 -91 2113 -91 
Q 1303 -91 875 529 
Q 447 1150 447 2328 
Q 447 3434 972 4092 
Q 1497 4750 2381 4750 
Q 2619 4750 2861 4703 
Q 3103 4656 3366 4563 
z
" transform="scale(0.015625)"/>
       </defs>
       <use xlink:href="#DejaVuSans-50"/>
       <use xlink:href="#DejaVuSans-2d" x="58.052734"/>
       <use xlink:href="#DejaVuSans-32" x="94.136719"/>
       <use xlink:href="#DejaVuSans-35" x="157.759766"/>
       <use xlink:href="#DejaVuSans-36" x="221.382812"/>
      </g>
     </g>
    </g>
    <g id="xtick_2">
     <g id="text_2">
      <!-- x25519 -->
      <g style="fill: #262626" transform="translate(269.724125 415.277812) scale(0.14 -0.14)">
       <defs>
        <path id="DejaVuSans-78" d="M 3513 3500 
L 2247 1797 
L 3578 0 
L 2900 0 
L 1881 1375 
L 863 0 
L 184 0 
L 1544 1831 
L 300 3500 
L 978 3500 
L 1906 2253 
L 2834 3500 
L 3513 3500 
z
" transform="scale(0.015625)"/>
        <path id="DejaVuSans-31" d="M 794 531 
L 1825 531 
L 1825 4091 
L 703 3866 
L 703 4441 
L 1819 4666 
L 2450 4666 
L 2450 531 
L 3481 531 
L 3481 0 
L 794 0 
L 794 531 
z
" transform="scale(0.015625)"/>
        <path id="DejaVuSans-39" d="M 703 97 
L 703 672 
Q 941 559 1184 500 
Q 1428 441 1663 441 
Q 2288 441 2617 861 
Q 2947 1281 2994 2138 
Q 2813 1869 2534 1725 
Q 2256 1581 1919 1581 
Q 1219 1581 811 2004 
Q 403 2428 403 3163 
Q 403 3881 828 4315 
Q 1253 4750 1959 4750 
Q 2769 4750 3195 4129 
Q 3622 3509 3622 2328 
Q 3622 1225 3098 567 
Q 2575 -91 1691 -91 
Q 1453 -91 1209 -44 
Q 966 3 703 97 
z
M 1959 2075 
Q 2384 2075 2632 2365 
Q 2881 2656 2881 3163 
Q 2881 3666 2632 3958 
Q 2384 4250 1959 4250 
Q 1534 4250 1286 3958 
Q 1038 3666 1038 3163 
Q 1038 2656 1286 2365 
Q 1534 2075 1959 2075 
z
" transform="scale(0.015625)"/>
       </defs>
       <use xlink:href="#DejaVuSans-78"/>
       <use xlink:href="#DejaVuSans-32" x="59.179688"/>
       <use xlink:href="#DejaVuSans-35" x="122.802734"/>
       <use xlink:href="#DejaVuSans-35" x="186.425781"/>
       <use xlink:href="#DejaVuSans-31" x="250.048828"/>
       <use xlink:href="#DejaVuSans-39" x="313.671875"/>
      </g>
     </g>
    </g>
    <g id="xtick_3">
     <g id="text_3">
      <!-- p256_mlkem512 -->
      <g style="fill: #262626" transform="translate(396.325156 415.277812) scale(0.14 -0.14)">
       <defs>
        <path id="DejaVuSans-70" d="M 1159 525 
L 1159 -1331 
L 581 -1331 
L 581 3500 
L 1159 3500 
L 1159 2969 
Q 1341 3281 1617 3432 
Q 1894 3584 2278 3584 
Q 2916 3584 3314 3078 
Q 3713 2572 3713 1747 
Q 3713 922 3314 415 
Q 2916 -91 2278 -91 
Q 1894 -91 1617 61 
Q 1341 213 1159 525 
z
M 3116 1747 
Q 3116 2381 2855 2742 
Q 2594 3103 2138 3103 
Q 1681 3103 1420 2742 
Q 1159 2381 1159 1747 
Q 1159 1113 1420 752 
Q 1681 391 2138 391 
Q 2594 391 2855 752 
Q 3116 1113 3116 1747 
z
" transform="scale(0.015625)"/>
        <path id="DejaVuSans-5f" d="M 3263 -1063 
L 3263 -1509 
L -63 -1509 
L -63 -1063 
L 3263 -1063 
z
" transform="scale(0.015625)"/>
        <path id="DejaVuSans-6d" d="M 3328 2828 
Q 3544 3216 3844 3400 
Q 4144 3584 4550 3584 
Q 5097 3584 5394 3201 
Q 5691 2819 5691 2113 
L 5691 0 
L 5113 0 
L 5113 2094 
Q 5113 2597 4934 2840 
Q 4756 3084 4391 3084 
Q 3944 3084 3684 2787 
Q 3425 2491 3425 1978 
L 3425 0 
L 2847 0 
L 2847 2094 
Q 2847 2600 2669 2842 
Q 2491 3084 2119 3084 
Q 1678 3084 1418 2786 
Q 1159 2488 1159 1978 
L 1159 0 
L 581 0 
L 581 3500 
L 1159 3500 
L 1159 2956 
Q 1356 3278 1631 3431 
Q 1906 3584 2284 3584 
Q 2666 3584 2933 3390 
Q 3200 3197 3328 2828 
z
" transform="scale(0.015625)"/>
        <path id="DejaVuSans-6c" d="M 603 4863 
L 1178 4863 
L 1178 0 
L 603 0 
L 603 4863 
z
" transform="scale(0.015625)"/>
        <path id="DejaVuSans-6b" d="M 581 4863 
L 1159 4863 
L 1159 1991 
L 2875 3500 
L 3609 3500 
L 1753 1863 
L 3688 0 
L 2938 0 
L 1159 1709 
L 1159 0 
L 581 0 
L 581 4863 
z
" transform="scale(0.015625)"/>
        <path id="DejaVuSans-65" d="M 3597 1894 
L 3597 1613 
L 953 1613 
Q 991 1019 1311 708 
Q 1631 397 2203 397 
Q 2534 397 2845 478 
Q 3156 559 3463 722 
L 3463 178 
Q 3153 47 2828 -22 
Q 2503 -91 2169 -91 
Q 1331 -91 842 396 
Q 353 884 353 1716 
Q 353 2575 817 3079 
Q 1281 3584 2069 3584 
Q 2775 3584 3186 3129 
Q 3597 2675 3597 1894 
z
M 3022 2063 
Q 3016 2534 2758 2815 
Q 2500 3097 2075 3097 
Q 1594 3097 1305 2825 
Q 1016 2553 972 2059 
L 3022 2063 
z
" transform="scale(0.015625)"/>
       </defs>
       <use xlink:href="#DejaVuSans-70"/>
       <use xlink:href="#DejaVuSans-32" x="63.476562"/>
       <use xlink:href="#DejaVuSans-35" x="127.099609"/>
       <use xlink:href="#DejaVuSans-36" x="190.722656"/>
       <use xlink:href="#DejaVuSans-5f" x="254.345703"/>
       <use xlink:href="#DejaVuSans-6d" x="304.345703"/>
       <use xlink:href="#DejaVuSans-6c" x="401.757812"/>
       <use xlink:href="#DejaVuSans-6b" x="429.541016"/>
       <use xlink:href="#DejaVuSans-65" x="483.826172"/>
       <use xlink:href="#DejaVuSans-6d" x="545.349609"/>
       <use xlink:href="#DejaVuSans-35" x="642.761719"/>
       <use xlink:href="#DejaVuSans-31" x="706.384766"/>
       <use xlink:href="#DejaVuSans-32" x="770.007812"/>
      </g>
     </g>
    </g>
    <g id="xtick_4">
     <g id="text_4">
      <!-- x25519_mlkem512 -->
      <g style="fill: #262626" transform="translate(546.262437 415.277812) scale(0.14 -0.14)">
       <use xlink:href="#DejaVuSans-78"/>
       <use xlink:href="#DejaVuSans-32" x="59.179688"/>
       <use xlink:href="#DejaVuSans-35" x="122.802734"/>
       <use xlink:href="#DejaVuSans-35" x="186.425781"/>
       <use xlink:href="#DejaVuSans-31" x="250.048828"/>
       <use xlink:href="#DejaVuSans-39" x="313.671875"/>
       <use xlink:href="#DejaVuSans-5f" x="377.294922"/>
       <use xlink:href="#DejaVuSans-6d" x="427.294922"/>
       <use xlink:href="#DejaVuSans-6c" x="524.707031"/>
       <use xlink:href="#DejaVuSans-6b" x="552.490234"/>
       <use xlink:href="#DejaVuSans-65" x="606.775391"/>
       <use xlink:href="#DejaVuSans-6d" x="668.298828"/>
       <use xlink:href="#DejaVuSans-35" x="765.710938"/>
       <use xlink:href="#DejaVuSans-31" x="829.333984"/>
       <use xlink:href="#DejaVuSans-32" x="892.957031"/>
      </g>
     </g>
    </g>
    <g id="xtick_5">
     <g id="text_5">
      <!-- mlkem512 -->
      <g style="fill: #262626" transform="translate(734.718312 415.277812) scale(0.14 -0.14)">
       <use xlink:href="#DejaVuSans-6d"/>
       <use xlink:href="#DejaVuSans-6c" x="97.412109"/>
       <use xlink:href="#DejaVuSans-6b" x="125.195312"/>
       <use xlink:href="#DejaVuSans-65" x="179.480469"/>
       <use xlink:href="#DejaVuSans-6d" x="241.003906"/>
       <use xlink:href="#DejaVuSans-35" x="338.416016"/>
       <use xlink:href="#DejaVuSans-31" x="402.039062"/>
       <use xlink:href="#DejaVuSans-32" x="465.662109"/>
      </g>
     </g>
    </g>
   </g>
   <g id="matplotlib.axis_2">
    <g id="ytick_1">
     <g id="line2d_1">
      <path d="M 58.32 385.044751 
L 851.04 385.044751 
" clip-path="url(#pffd1134cdb)" style="fill: none; stroke: #cccccc; stroke-linecap: round"/>
     </g>
     <g id="text_6">
      <!-- 100 -->
      <g style="fill: #262626" transform="translate(27.82375 389.223892) scale(0.11 -0.11)">
       <defs>
        <path id="DejaVuSans-30" d="M 2034 4250 
Q 1547 4250 1301 3770 
Q 1056 3291 1056 2328 
Q 1056 1369 1301 889 
Q 1547 409 2034 409 
Q 2525 409 2770 889 
Q 3016 1369 3016 2328 
Q 3016 3291 2770 3770 
Q 2525 4250 2034 4250 
z
M 2034 4750 
Q 2819 4750 3233 4129 
Q 3647 3509 3647 2328 
Q 3647 1150 3233 529 
Q 2819 -91 2034 -91 
Q 1250 -91 836 529 
Q 422 1150 422 2328 
Q 422 3509 836 4129 
Q 1250 4750 2034 4750 
z
" transform="scale(0.015625)"/>
       </defs>
       <use xlink:href="#DejaVuSans-31"/>
       <use xlink:href="#DejaVuSans-30" x="63.623047"/>
       <use xlink:href="#DejaVuSans-30" x="127.246094"/>
      </g>
     </g>
    </g>
    <g id="ytick_2">
     <g id="line2d_2">
      <path d="M 58.32 330.245663 
L 851.04 330.245663 
" clip-path="url(#pffd1134cdb)" style="fill: none; stroke: #cccccc; stroke-linecap: round"/>
     </g>
     <g id="text_7">
      <!-- 200 -->
      <g style="fill: #262626" transform="translate(27.82375 334.424804) scale(0.11 -0.11)">
       <use xlink:href="#DejaVuSans-32"/>
       <use xlink:href="#DejaVuSans-30" x="63.623047"/>
       <use xlink:href="#DejaVuSans-30" x="127.246094"/>
      </g>
     </g>
    </g>
    <g id="ytick_3">
     <g id="line2d_3">
      <path d="M 58.32 275.446574 
L 851.04 275.446574 
" clip-path="url(#pffd1134cdb)" style="fill: none; stroke: #cccccc; stroke-linecap: round"/>
     </g>
     <g id="text_8">
      <!-- 300 -->
      <g style="fill: #262626" transform="translate(27.82375 279.625715) scale(0.11 -0.11)">
       <defs>
        <path id="DejaVuSans-33" d="M 2597 2516 
Q 3050 2419 3304 2112 
Q 3559 1806 3559 1356 
Q 3559 666 3084 287 
Q 2609 -91 1734 -91 
Q 1441 -91 1130 -33 
Q 819 25 488 141 
L 488 750 
Q 750 597 1062 519 
Q 1375 441 1716 441 
Q 2309 441 2620 675 
Q 2931 909 2931 1356 
Q 2931 1769 2642 2001 
Q 2353 2234 1838 2234 
L 1294 2234 
L 1294 2753 
L 1863 2753 
Q 2328 2753 2575 2939 
Q 2822 3125 2822 3475 
Q 2822 3834 2567 4026 
Q 2313 4219 1838 4219 
Q 1578 4219 1281 4162 
Q 984 4106 628 3988 
L 628 4550 
Q 988 4650 1302 4700 
Q 1616 4750 1894 4750 
Q 2613 4750 3031 4423 
Q 3450 4097 3450 3541 
Q 3450 3153 3228 2886 
Q 3006 2619 2597 2516 
z
" transform="scale(0.015625)"/>
       </defs>
       <use xlink:href="#DejaVuSans-33"/>
       <use xlink:href="#DejaVuSans-30" x="63.623047"/>
       <use xlink:href="#DejaVuSans-30" x="127.246094"/>
      </g>
     </g>
    </g>
    <g id="ytick_4">
     <g id="line2d_4">
      <path d="M 58.32 220.647486 
L 851.04 220.647486 
" clip-path="url(#pffd1134cdb)" style="fill: none; stroke: #cccccc; stroke-linecap: round"/>
     </g>
     <g id="text_9">
      <!-- 400 -->
      <g style="fill: #262626" transform="translate(27.82375 224.826626) scale(0.11 -0.11)">
       <defs>
        <path id="DejaVuSans-34" d="M 2419 4116 
L 825 1625 
L 2419 1625 
L 2419 4116 
z
M 2253 4666 
L 3047 4666 
L 3047 1625 
L 3713 1625 
L 3713 1100 
L 3047 1100 
L 3047 0 
L 2419 0 
L 2419 1100 
L 313 1100 
L 313 1709 
L 2253 4666 
z
" transform="scale(0.015625)"/>
       </defs>
       <use xlink:href="#DejaVuSans-34"/>
       <use xlink:href="#DejaVuSans-30" x="63.623047"/>
       <use xlink:href="#DejaVuSans-30" x="127.246094"/>
      </g>
     </g>
    </g>
    <g id="ytick_5">
     <g id="line2d_5">
      <path d="M 58.32 165.848397 
L 851.04 165.848397 
" clip-path="url(#pffd1134cdb)" style="fill: none; stroke: #cccccc; stroke-linecap: round"/>
     </g>
     <g id="text_10">
      <!-- 500 -->
      <g style="fill: #262626" transform="translate(27.82375 170.027538) scale(0.11 -0.11)">
       <use xlink:href="#DejaVuSans-35"/>
       <use xlink:href="#DejaVuSans-30" x="63.623047"/>
       <use xlink:href="#DejaVuSans-30" x="127.246094"/>
      </g>
     </g>
    </g>
    <g id="ytick_6">
     <g id="line2d_6">
      <path d="M 58.32 111.049309 
L 851.04 111.049309 
" clip-path="url(#pffd1134cdb)" style="fill: none; stroke: #cccccc; stroke-linecap: round"/>
     </g>
     <g id="text_11">
      <!-- 600 -->
      <g style="fill: #262626" transform="translate(27.82375 115.228449) scale(0.11 -0.11)">
       <use xlink:href="#DejaVuSans-36"/>
       <use xlink:href="#DejaVuSans-30" x="63.623047"/>
       <use xlink:href="#DejaVuSans-30" x="127.246094"/>
      </g>
     </g>
    </g>
    <g id="ytick_7">
     <g id="line2d_7">
      <path d="M 58.32 56.25022 
L 851.04 56.25022 
" clip-path="url(#pffd1134cdb)" style="fill: none; stroke: #cccccc; stroke-linecap: round"/>
     </g>
     <g id="text_12">
      <!-- 700 -->
      <g style="fill: #262626" transform="translate(27.82375 60.429361) scale(0.11 -0.11)">
       <defs>
        <path id="DejaVuSans-37" d="M 525 4666 
L 3525 4666 
L 3525 4397 
L 1831 0 
L 1172 0 
L 2766 4134 
L 525 4134 
L 525 4666 
z
" transform="scale(0.015625)"/>
       </defs>
       <use xlink:href="#DejaVuSans-37"/>
       <use xlink:href="#DejaVuSans-30" x="63.623047"/>
       <use xlink:href="#DejaVuSans-30" x="127.246094"/>
      </g>
     </g>
    </g>
    <g id="text_13">
     <!-- Handshake duration (ms) -->
     <g style="fill: #262626" transform="translate(21.328125 287.437813) rotate(-90) scale(0.12 -0.12)">
      <defs>
       <path id="DejaVuSans-48" d="M 628 4666 
L 1259 4666 
L 1259 2753 
L 3553 2753 
L 3553 4666 
L 4184 4666 
L 4184 0 
L 3553 0 
L 3553 2222 
L 1259 2222 
L 1259 0 
L 628 0 
L 628 4666 
z
" transform="scale(0.015625)"/>
       <path id="DejaVuSans-61" d="M 2194 1759 
Q 1497 1759 1228 1600 
Q 959 1441 959 1056 
Q 959 750 1161 570 
Q 1363 391 1709 391 
Q 2188 391 2477 730 
Q 2766 1069 2766 1631 
L 2766 1759 
L 2194 1759 
z
M 3341 1997 
L 3341 0 
L 2766 0 
L 2766 531 
Q 2569 213 2275 61 
Q 1981 -91 1556 -91 
Q 1019 -91 701 211 
Q 384 513 384 1019 
Q 384 1609 779 1909 
Q 1175 2209 1959 2209 
L 2766 2209 
L 2766 2266 
Q 2766 2663 2505 2880 
Q 2244 3097 1772 3097 
Q 1472 3097 1187 3025 
Q 903 2953 641 2809 
L 641 3341 
Q 956 3463 1253 3523 
Q 1550 3584 1831 3584 
Q 2591 3584 2966 3190 
Q 3341 2797 3341 1997 
z
" transform="scale(0.015625)"/>
       <path id="DejaVuSans-6e" d="M 3513 2113 
L 3513 0 
L 2938 0 
L 2938 2094 
Q 2938 2591 2744 2837 
Q 2550 3084 2163 3084 
Q 1697 3084 1428 2787 
Q 1159 2491 1159 1978 
L 1159 0 
L 581 0 
L 581 3500 
L 1159 3500 
L 1159 2956 
Q 1366 3272 1645 3428 
Q 1925 3584 2291 3584 
Q 2894 3584 3203 3211 
Q 3513 2838 3513 2113 
z
" transform="scale(0.015625)"/>
       <path id="DejaVuSans-64" d="M 2906 2969 
L 2906 4863 
L 3481 4863 
L 3481 0 
L 2906 0 
L 2906 525 
Q 2725 213 2448 61 
Q 2172 -91 1784 -91 
Q 1150 -91 751 415 
Q 353 922 353 1747 
Q 353 2572 751 3078 
Q 1150 3584 1784 3584 
Q 2172 3584 2448 3432 
Q 2725 3281 2906 2969 
z
M 947 1747 
Q 947 1113 1208 752 
Q 1469 391 1925 391 
Q 2381 391 2643 752 
Q 2906 1113 2906 1747 
Q 2906 2381 2643 2742 
Q 2381 3103 1925 3103 
Q 1469 3103 1208 2742 
Q 947 2381 947 1747 
z
" transform="scale(0.015625)"/>
       <path id="DejaVuSans-73" d="M 2834 3397 
L 2834 2853 
Q 2591 2978 2328 3040 
Q 2066 3103 1784 3103 
Q 1356 3103 1142 2972 
Q 928 2841 928 2578 
Q 928 2378 1081 2264 
Q 1234 2150 1697 2047 
L 1894 2003 
Q 2506 1872 2764 1633 
Q 3022 1394 3022 966 
Q 3022 478 2636 193 
Q 2250 -91 1575 -91 
Q 1294 -91 989 -36 
Q 684 19 347 128 
L 347 722 
Q 666 556 975 473 
Q 1284 391 1588 391 
Q 1994 391 2212 530 
Q 2431 669 2431 922 
Q 2431 1156 2273 1281 
Q 2116 1406 1581 1522 
L 1381 1569 
Q 847 1681 609 1914 
Q 372 2147 372 2553 
Q 372 3047 722 3315 
Q 1072 3584 1716 3584 
Q 2034 3584 2315 3537 
Q 2597 3491 2834 3397 
z
" transform="scale(0.015625)"/>
       <path id="DejaVuSans-68" d="M 3513 2113 
L 3513 0 
L 2938 0 
L 2938 2094 
Q 2938 2591 2744 2837 
Q 2550 3084 2163 3084 
Q 1697 3084 1428 2787 
Q 1159 2491 1159 1978 
L 1159 0 
L 581 0 
L 581 4863 
L 1159 4863 
L 1159 2956 
Q 1366 3272 1645 3428 
Q 1925 3584 2291 3584 
Q 2894 3584 3203 3211 
Q 3513 2838 3513 2113 
z
" transform="scale(0.015625)"/>
       <path id="DejaVuSans-20" transform="scale(0.015625)"/>
       <path id="DejaVuSans-75" d="M 544 1381 
L 544 3500 
L 1119 3500 
L 1119 1403 
Q 1119 906 1312 657 
Q 1506 409 1894 409 
Q 2359 409 2629 706 
Q 2900 1003 2900 1516 
L 2900 3500 
L 3475 3500 
L 3475 0 
L 2900 0 
L 2900 538 
Q 2691 219 2414 64 
Q 2138 -91 1772 -91 
Q 1169 -91 856 284 
Q 544 659 544 1381 
z
M 1991 3584 
L 1991 3584 
z
" transform="scale(0.015625)"/>
       <path id="DejaVuSans-72" d="M 2631 2963 
Q 2534 3019 2420 3045 
Q 2306 3072 2169 3072 
Q 1681 3072 1420 2755 
Q 1159 2438 1159 1844 
L 1159 0 
L 581 0 
L 581 3500 
L 1159 3500 
L 1159 2956 
Q 1341 3275 1631 3429 
Q 1922 3584 2338 3584 
Q 2397 3584 2469 3576 
Q 2541 3569 2628 3553 
L 2631 2963 
z
" transform="scale(0.015625)"/>
       <path id="DejaVuSans-74" d="M 1172 4494 
L 1172 3500 
L 2356 3500 
L 2356 3053 
L 1172 3053 
L 1172 1153 
Q 1172 725 1289 603 
Q 1406 481 1766 481 
L 2356 481 
L 2356 0 
L 1766 0 
Q 1100 0 847 248 
Q 594 497 594 1153 
L 594 3053 
L 172 3053 
L 172 3500 
L 594 3500 
L 594 4494 
L 1172 4494 
z
" transform="scale(0.015625)"/>
       <path id="DejaVuSans-69" d="M 603 3500 
L 1178 3500 
L 1178 0 
L 603 0 
L 603 3500 
z
M 603 4863 
L 1178 4863 
L 1178 4134 
L 603 4134 
L 603 4863 
z
" transform="scale(0.015625)"/>
       <path id="DejaVuSans-6f" d="M 1959 3097 
Q 1497 3097 1228 2736 
Q 959 2375 959 1747 
Q 959 1119 1226 758 
Q 1494 397 1959 397 
Q 2419 397 2687 759 
Q 2956 1122 2956 1747 
Q 2956 2369 2687 2733 
Q 2419 3097 1959 3097 
z
M 1959 3584 
Q 2709 3584 3137 3096 
Q 3566 2609 3566 1747 
Q 3566 888 3137 398 
Q 2709 -91 1959 -91 
Q 1206 -91 779 398 
Q 353 888 353 1747 
Q 353 2609 779 3096 
Q 1206 3584 1959 3584 
z
" transform="scale(0.015625)"/>
       <path id="DejaVuSans-28" d="M 1984 4856 
Q 1566 4138 1362 3434 
Q 1159 2731 1159 2009 
Q 1159 1288 1364 580 
Q 1569 -128 1984 -844 
L 1484 -844 
Q 1016 -109 783 600 
Q 550 1309 550 2009 
Q 550 2706 781 3412 
Q 1013 4119 1484 4856 
L 1984 4856 
z
" transform="scale(0.015625)"/>
       <path id="DejaVuSans-29" d="M 513 4856 
L 1013 4856 
Q 1481 4119 1714 3412 
Q 1947 2706 1947 2009 
Q 1947 1309 1714 600 
Q 1481 -109 1013 -844 
L 513 -844 
Q 928 -128 1133 580 
Q 1338 1288 1338 2009 
Q 1338 2731 1133 3434 
Q 928 4138 513 4856 
z
" transform="scale(0.015625)"/>
      </defs>
      <use xlink:href="#DejaVuSans-48"/>
      <use xlink:href="#DejaVuSans-61" x="75.195312"/>
      <use xlink:href="#DejaVuSans-6e" x="136.474609"/>
      <use xlink:href="#DejaVuSans-64" x="199.853516"/>
      <use xlink:href="#DejaVuSans-73" x="263.330078"/>
      <use xlink:href="#DejaVuSans-68" x="315.429688"/>
      <use xlink:href="#DejaVuSans-61" x="378.808594"/>
      <use xlink:href="#DejaVuSans-6b" x="440.087891"/>
      <use xlink:href="#DejaVuSans-65" x="494.373047"/>
      <use xlink:href="#DejaVuSans-20" x="555.896484"/>
      <use xlink:href="#DejaVuSans-64" x="587.683594"/>
      <use xlink:href="#DejaVuSans-75" x="651.160156"/>
      <use xlink:href="#DejaVuSans-72" x="714.539062"/>
      <use xlink:href="#DejaVuSans-61" x="755.652344"/>
      <use xlink:href="#DejaVuSans-74" x="816.931641"/>
      <use xlink:href="#DejaVuSans-69" x="856.140625"/>
      <use xlink:href="#DejaVuSans-6f" x="883.923828"/>
      <use xlink:href="#DejaVuSans-6e" x="945.105469"/>
      <use xlink:href="#DejaVuSans-20" x="1008.484375"/>
      <use xlink:href="#DejaVuSans-28" x="1040.271484"/>
      <use xlink:href="#DejaVuSans-6d" x="1079.285156"/>
      <use xlink:href="#DejaVuSans-73" x="1176.697266"/>
      <use xlink:href="#DejaVuSans-29" x="1228.796875"/>
     </g>
    </g>
   </g>
   <g id="PolyCollection_1">
    <defs>
     <path id="m1f13daf1a4" d="M 145.749108 -53.566364 
L 129.434892 -53.566364 
L 120.357068 -56.941387 
L 106.837164 -60.31641 
L 91.242191 -63.691433 
L 78.597252 -67.066455 
L 74.1744 -70.441478 
L 80.01652 -73.816501 
L 93.445393 -77.191524 
L 109.003417 -80.566547 
L 121.955238 -83.94157 
L 130.365627 -87.316593 
L 134.763086 -90.691616 
L 136.637521 -94.066639 
L 137.28321 -97.441662 
L 137.449173 -100.816685 
L 137.467141 -104.191708 
L 137.459109 -107.566731 
L 137.463495 -110.941754 
L 137.485875 -114.316777 
L 137.517862 -117.6918 
L 137.54825 -121.066823 
L 137.570195 -124.441846 
L 137.582822 -127.816869 
L 137.588738 -131.191892 
L 137.591021 -134.566915 
L 137.591752 -137.941938 
L 137.591947 -141.316961 
L 137.59199 -144.691983 
L 137.591999 -148.067006 
L 137.592 -151.442029 
L 137.592 -154.817052 
L 137.592 -158.192075 
L 137.592 -161.567098 
L 137.592 -164.942121 
L 137.592 -168.317144 
L 137.592 -171.692167 
L 137.592 -175.06719 
L 137.591996 -178.442213 
L 137.591969 -181.817236 
L 137.591813 -185.192259 
L 137.591028 -188.567282 
L 137.587742 -191.942305 
L 137.576248 -195.317328 
L 137.542782 -198.692351 
L 137.462124 -202.067374 
L 137.302562 -205.442397 
L 137.047238 -208.81742 
L 136.726067 -212.192443 
L 136.429517 -215.567466 
L 136.274004 -218.942489 
L 136.329979 -222.317511 
L 136.571426 -225.692534 
L 136.894977 -229.067557 
L 137.189954 -232.44258 
L 137.396148 -235.817603 
L 137.511424 -239.192626 
L 137.564003 -242.567649 
L 137.583784 -245.942672 
L 137.589964 -249.317695 
L 137.591574 -252.692718 
L 137.591925 -256.067741 
L 137.591989 -259.442764 
L 137.591999 -262.817787 
L 137.592 -266.19281 
L 137.592 -269.567833 
L 137.592 -272.942856 
L 137.591999 -276.317879 
L 137.591995 -279.692902 
L 137.591969 -283.067925 
L 137.591847 -286.442948 
L 137.591363 -289.817971 
L 137.589758 -293.192994 
L 137.585334 -296.568017 
L 137.575262 -299.943039 
L 137.556508 -303.318062 
L 137.528441 -306.693085 
L 137.495874 -310.068108 
L 137.469223 -313.443131 
L 137.459562 -316.818154 
L 137.471352 -320.193177 
L 137.499179 -323.5682 
L 137.53169 -326.943223 
L 137.558906 -330.318246 
L 137.57666 -333.693269 
L 137.585975 -337.068292 
L 137.589901 -340.443315 
L 137.590952 -343.818338 
L 137.590073 -347.193361 
L 137.586462 -350.568384 
L 137.577714 -353.943407 
L 137.560748 -357.31843 
L 137.534245 -360.693453 
L 137.501858 -364.068476 
L 137.473183 -367.443499 
L 137.459735 -370.818522 
L 137.467655 -374.193545 
L 137.493275 -377.568567 
L 137.525802 -380.94359 
L 137.554514 -384.318613 
L 137.574072 -387.693636 
L 137.609928 -387.693636 
L 137.609928 -387.693636 
L 137.629486 -384.318613 
L 137.658198 -380.94359 
L 137.690725 -377.568567 
L 137.716345 -374.193545 
L 137.724265 -370.818522 
L 137.710817 -367.443499 
L 137.682142 -364.068476 
L 137.649755 -360.693453 
L 137.623252 -357.31843 
L 137.606286 -353.943407 
L 137.597538 -350.568384 
L 137.593927 -347.193361 
L 137.593048 -343.818338 
L 137.594099 -340.443315 
L 137.598025 -337.068292 
L 137.60734 -333.693269 
L 137.625094 -330.318246 
L 137.65231 -326.943223 
L 137.684821 -323.5682 
L 137.712648 -320.193177 
L 137.724438 -316.818154 
L 137.714777 -313.443131 
L 137.688126 -310.068108 
L 137.655559 -306.693085 
L 137.627492 -303.318062 
L 137.608738 -299.943039 
L 137.598666 -296.568017 
L 137.594242 -293.192994 
L 137.592637 -289.817971 
L 137.592153 -286.442948 
L 137.592031 -283.067925 
L 137.592005 -279.692902 
L 137.592001 -276.317879 
L 137.592 -272.942856 
L 137.592 -269.567833 
L 137.592 -266.19281 
L 137.592001 -262.817787 
L 137.592011 -259.442764 
L 137.592075 -256.067741 
L 137.592426 -252.692718 
L 137.594036 -249.317695 
L 137.600216 -245.942672 
L 137.619997 -242.567649 
L 137.672576 -239.192626 
L 137.787852 -235.817603 
L 137.994046 -232.44258 
L 138.289023 -229.067557 
L 138.612574 -225.692534 
L 138.854021 -222.317511 
L 138.909996 -218.942489 
L 138.754483 -215.567466 
L 138.457933 -212.192443 
L 138.136762 -208.81742 
L 137.881438 -205.442397 
L 137.721876 -202.067374 
L 137.641218 -198.692351 
L 137.607752 -195.317328 
L 137.596258 -191.942305 
L 137.592972 -188.567282 
L 137.592187 -185.192259 
L 137.592031 -181.817236 
L 137.592004 -178.442213 
L 137.592 -175.06719 
L 137.592 -171.692167 
L 137.592 -168.317144 
L 137.592 -164.942121 
L 137.592 -161.567098 
L 137.592 -158.192075 
L 137.592 -154.817052 
L 137.592 -151.442029 
L 137.592001 -148.067006 
L 137.59201 -144.691983 
L 137.592053 -141.316961 
L 137.592248 -137.941938 
L 137.592979 -134.566915 
L 137.595262 -131.191892 
L 137.601178 -127.816869 
L 137.613805 -124.441846 
L 137.63575 -121.066823 
L 137.666138 -117.6918 
L 137.698125 -114.316777 
L 137.720505 -110.941754 
L 137.724891 -107.566731 
L 137.716859 -104.191708 
L 137.734827 -100.816685 
L 137.90079 -97.441662 
L 138.546479 -94.066639 
L 140.420914 -90.691616 
L 144.818373 -87.316593 
L 153.228762 -83.94157 
L 166.180583 -80.566547 
L 181.738607 -77.191524 
L 195.16748 -73.816501 
L 201.0096 -70.441478 
L 196.586748 -67.066455 
L 183.941809 -63.691433 
L 168.346836 -60.31641 
L 154.826932 -56.941387 
L 145.749108 -53.566364 
z
" style="stroke: #595959; stroke-width: 1.25"/>
    </defs>
    <g clip-path="url(#pffd1134cdb)">
     <use xlink:href="#m1f13daf1a4" x="0" y="432" style="fill: #72b6a1; stroke: #595959; stroke-width: 1.25"/>
    </g>
   </g>
   <g id="PolyCollection_2">
    <defs>
     <path id="m171f5f2a50" d="M 304.215328 -59.176625 
L 288.056672 -59.176625 
L 281.347414 -60.907035 
L 271.751547 -62.637444 
L 259.917167 -64.367854 
L 247.675152 -66.098264 
L 237.726597 -67.828673 
L 232.7184 -69.559083 
L 234.110227 -71.289492 
L 241.488539 -73.019902 
L 252.764613 -74.750312 
L 265.128111 -76.480721 
L 276.166059 -78.211131 
L 284.550438 -79.941541 
L 290.081291 -81.67195 
L 293.285602 -83.40236 
L 294.927196 -85.132769 
L 295.674189 -86.863179 
L 295.976987 -88.593589 
L 296.086413 -90.323998 
L 296.121299 -92.054408 
L 296.130064 -93.784817 
L 296.129369 -95.515227 
L 296.123401 -97.245637 
L 296.112131 -98.976046 
L 296.09484 -100.706456 
L 296.072 -102.436865 
L 296.046351 -104.167275 
L 296.02288 -105.897685 
L 296.007426 -107.628094 
L 296.004359 -109.358504 
L 296.014591 -111.088913 
L 296.035136 -112.819323 
L 296.060519 -114.549733 
L 296.085118 -116.280142 
L 296.105103 -118.010552 
L 296.1191 -119.740961 
L 296.127673 -121.471371 
L 296.132304 -123.201781 
L 296.134522 -124.93219 
L 296.135468 -126.6626 
L 296.135827 -128.393009 
L 296.13595 -130.123419 
L 296.135987 -131.853829 
L 296.135997 -133.584238 
L 296.135999 -135.314648 
L 296.136 -137.045057 
L 296.136 -138.775467 
L 296.136 -140.505877 
L 296.136 -142.236286 
L 296.136 -143.966696 
L 296.136 -145.697105 
L 296.136 -147.427515 
L 296.136 -149.157925 
L 296.136 -150.888334 
L 296.136 -152.618744 
L 296.136 -154.349153 
L 296.136 -156.079563 
L 296.136 -157.809973 
L 296.136 -159.540382 
L 296.136 -161.270792 
L 296.136 -163.001201 
L 296.136 -164.731611 
L 296.136 -166.462021 
L 296.136 -168.19243 
L 296.136 -169.92284 
L 296.136 -171.65325 
L 296.136 -173.383659 
L 296.136 -175.114069 
L 296.136 -176.844478 
L 296.136 -178.574888 
L 296.136 -180.305298 
L 296.136 -182.035707 
L 296.136 -183.766117 
L 296.136 -185.496526 
L 296.136 -187.226936 
L 296.136 -188.957346 
L 296.136 -190.687755 
L 296.135998 -192.418165 
L 296.135989 -194.148574 
L 296.135951 -195.878984 
L 296.135803 -197.609394 
L 296.135295 -199.339803 
L 296.133723 -201.070213 
L 296.129374 -202.800622 
L 296.118635 -204.531032 
L 296.095001 -206.261442 
L 296.048803 -207.991851 
L 295.968944 -209.722261 
L 295.84769 -211.45267 
L 295.687775 -213.18308 
L 295.508276 -214.91349 
L 295.344086 -216.643899 
L 295.236038 -218.374309 
L 295.214687 -220.104718 
L 295.286375 -221.835128 
L 295.430196 -223.565538 
L 295.607825 -225.295947 
L 295.779952 -227.026357 
L 295.919789 -228.756766 
L 296.017728 -230.487176 
L 296.254272 -230.487176 
L 296.254272 -230.487176 
L 296.352211 -228.756766 
L 296.492048 -227.026357 
L 296.664175 -225.295947 
L 296.841804 -223.565538 
L 296.985625 -221.835128 
L 297.057313 -220.104718 
L 297.035962 -218.374309 
L 296.927914 -216.643899 
L 296.763724 -214.91349 
L 296.584225 -213.18308 
L 296.42431 -211.45267 
L 296.303056 -209.722261 
L 296.223197 -207.991851 
L 296.176999 -206.261442 
L 296.153365 -204.531032 
L 296.142626 -202.800622 
L 296.138277 -201.070213 
L 296.136705 -199.339803 
L 296.136197 -197.609394 
L 296.136049 -195.878984 
L 296.136011 -194.148574 
L 296.136002 -192.418165 
L 296.136 -190.687755 
L 296.136 -188.957346 
L 296.136 -187.226936 
L 296.136 -185.496526 
L 296.136 -183.766117 
L 296.136 -182.035707 
L 296.136 -180.305298 
L 296.136 -178.574888 
L 296.136 -176.844478 
L 296.136 -175.114069 
L 296.136 -173.383659 
L 296.136 -171.65325 
L 296.136 -169.92284 
L 296.136 -168.19243 
L 296.136 -166.462021 
L 296.136 -164.731611 
L 296.136 -163.001201 
L 296.136 -161.270792 
L 296.136 -159.540382 
L 296.136 -157.809973 
L 296.136 -156.079563 
L 296.136 -154.349153 
L 296.136 -152.618744 
L 296.136 -150.888334 
L 296.136 -149.157925 
L 296.136 -147.427515 
L 296.136 -145.697105 
L 296.136 -143.966696 
L 296.136 -142.236286 
L 296.136 -140.505877 
L 296.136 -138.775467 
L 296.136 -137.045057 
L 296.136001 -135.314648 
L 296.136003 -133.584238 
L 296.136013 -131.853829 
L 296.13605 -130.123419 
L 296.136173 -128.393009 
L 296.136532 -126.6626 
L 296.137478 -124.93219 
L 296.139696 -123.201781 
L 296.144327 -121.471371 
L 296.1529 -119.740961 
L 296.166897 -118.010552 
L 296.186882 -116.280142 
L 296.211481 -114.549733 
L 296.236864 -112.819323 
L 296.257409 -111.088913 
L 296.267641 -109.358504 
L 296.264574 -107.628094 
L 296.24912 -105.897685 
L 296.225649 -104.167275 
L 296.2 -102.436865 
L 296.17716 -100.706456 
L 296.159869 -98.976046 
L 296.148599 -97.245637 
L 296.142631 -95.515227 
L 296.141936 -93.784817 
L 296.150701 -92.054408 
L 296.185587 -90.323998 
L 296.295013 -88.593589 
L 296.597811 -86.863179 
L 297.344804 -85.132769 
L 298.986398 -83.40236 
L 302.190709 -81.67195 
L 307.721562 -79.941541 
L 316.105941 -78.211131 
L 327.143889 -76.480721 
L 339.507387 -74.750312 
L 350.783461 -73.019902 
L 358.161773 -71.289492 
L 359.5536 -69.559083 
L 354.545403 -67.828673 
L 344.596848 -66.098264 
L 332.354833 -64.367854 
L 320.520453 -62.637444 
L 310.924586 -60.907035 
L 304.215328 -59.176625 
z
" style="stroke: #595959; stroke-width: 1.25"/>
    </defs>
    <g clip-path="url(#pffd1134cdb)">
     <use xlink:href="#m171f5f2a50" x="0" y="432" style="fill: #e99675; stroke: #595959; stroke-width: 1.25"/>
    </g>
   </g>
   <g id="PolyCollection_3">
    <defs>
     <path id="m9ee2b6fc44" d="M 461.312514 -66.724911 
L 448.047486 -66.724911 
L 441.127276 -68.003317 
L 430.520751 -69.281723 
L 417.080181 -70.560129 
L 403.542422 -71.838535 
L 393.834475 -73.116941 
L 391.2624 -74.395347 
L 396.695466 -75.673753 
L 408.098137 -76.952159 
L 421.747352 -78.230565 
L 434.157923 -79.508971 
L 443.392393 -80.787377 
L 449.194308 -82.065783 
L 452.322873 -83.344189 
L 453.784417 -84.622595 
L 454.37924 -85.901001 
L 454.590805 -87.179407 
L 454.65667 -88.457813 
L 454.674626 -89.736219 
L 454.678912 -91.014625 
L 454.679807 -92.293031 
L 454.67997 -93.571437 
L 454.679996 -94.849843 
L 454.679999 -96.128249 
L 454.679999 -97.406655 
L 454.679997 -98.685061 
L 454.679982 -99.963467 
L 454.679919 -101.241873 
L 454.67968 -102.520279 
L 454.678906 -103.798685 
L 454.676745 -105.077091 
L 454.671579 -106.355497 
L 454.661057 -107.633903 
L 454.642951 -108.912309 
L 454.617 -110.190715 
L 454.586861 -111.469121 
L 454.560283 -112.747526 
L 454.546213 -114.025932 
L 454.550012 -115.304338 
L 454.570193 -116.582744 
L 454.599354 -117.86115 
L 454.628504 -119.139556 
L 454.651411 -120.417962 
L 454.666201 -121.696368 
L 454.674209 -122.974774 
L 454.677887 -124.25318 
L 454.67933 -125.531586 
L 454.679815 -126.809992 
L 454.679956 -128.088398 
L 454.679991 -129.366804 
L 454.679998 -130.64521 
L 454.68 -131.923616 
L 454.68 -133.202022 
L 454.68 -134.480428 
L 454.68 -135.758834 
L 454.68 -137.03724 
L 454.68 -138.315646 
L 454.68 -139.594052 
L 454.68 -140.872458 
L 454.68 -142.150864 
L 454.68 -143.42927 
L 454.68 -144.707676 
L 454.68 -145.986082 
L 454.68 -147.264488 
L 454.68 -148.542894 
L 454.68 -149.8213 
L 454.68 -151.099706 
L 454.68 -152.378112 
L 454.68 -153.656518 
L 454.68 -154.934924 
L 454.68 -156.21333 
L 454.68 -157.491736 
L 454.68 -158.770142 
L 454.68 -160.048548 
L 454.68 -161.326954 
L 454.68 -162.60536 
L 454.68 -163.883766 
L 454.68 -165.162172 
L 454.68 -166.440578 
L 454.68 -167.718984 
L 454.679998 -168.99739 
L 454.679986 -170.275796 
L 454.679928 -171.554202 
L 454.679669 -172.832608 
L 454.678675 -174.111014 
L 454.675383 -175.38942 
L 454.666003 -176.667826 
L 454.643092 -177.946232 
L 454.595355 -179.224637 
L 454.511152 -180.503043 
L 454.387044 -181.781449 
L 454.237897 -183.059855 
L 454.09969 -184.338261 
L 454.017457 -185.616667 
L 454.02206 -186.895073 
L 454.111699 -188.173479 
L 454.253036 -189.451885 
L 454.400987 -190.730291 
L 454.521409 -192.008697 
L 454.601593 -193.287103 
L 454.758407 -193.287103 
L 454.758407 -193.287103 
L 454.838591 -192.008697 
L 454.959013 -190.730291 
L 455.106964 -189.451885 
L 455.248301 -188.173479 
L 455.33794 -186.895073 
L 455.342543 -185.616667 
L 455.26031 -184.338261 
L 455.122103 -183.059855 
L 454.972956 -181.781449 
L 454.848848 -180.503043 
L 454.764645 -179.224637 
L 454.716908 -177.946232 
L 454.693997 -176.667826 
L 454.684617 -175.38942 
L 454.681325 -174.111014 
L 454.680331 -172.832608 
L 454.680072 -171.554202 
L 454.680014 -170.275796 
L 454.680002 -168.99739 
L 454.68 -167.718984 
L 454.68 -166.440578 
L 454.68 -165.162172 
L 454.68 -163.883766 
L 454.68 -162.60536 
L 454.68 -161.326954 
L 454.68 -160.048548 
L 454.68 -158.770142 
L 454.68 -157.491736 
L 454.68 -156.21333 
L 454.68 -154.934924 
L 454.68 -153.656518 
L 454.68 -152.378112 
L 454.68 -151.099706 
L 454.68 -149.8213 
L 454.68 -148.542894 
L 454.68 -147.264488 
L 454.68 -145.986082 
L 454.68 -144.707676 
L 454.68 -143.42927 
L 454.68 -142.150864 
L 454.68 -140.872458 
L 454.68 -139.594052 
L 454.68 -138.315646 
L 454.68 -137.03724 
L 454.68 -135.758834 
L 454.68 -134.480428 
L 454.68 -133.202022 
L 454.68 -131.923616 
L 454.680002 -130.64521 
L 454.680009 -129.366804 
L 454.680044 -128.088398 
L 454.680185 -126.809992 
L 454.68067 -125.531586 
L 454.682113 -124.25318 
L 454.685791 -122.974774 
L 454.693799 -121.696368 
L 454.708589 -120.417962 
L 454.731496 -119.139556 
L 454.760646 -117.86115 
L 454.789807 -116.582744 
L 454.809988 -115.304338 
L 454.813787 -114.025932 
L 454.799717 -112.747526 
L 454.773139 -111.469121 
L 454.743 -110.190715 
L 454.717049 -108.912309 
L 454.698943 -107.633903 
L 454.688421 -106.355497 
L 454.683255 -105.077091 
L 454.681094 -103.798685 
L 454.68032 -102.520279 
L 454.680081 -101.241873 
L 454.680018 -99.963467 
L 454.680003 -98.685061 
L 454.680001 -97.406655 
L 454.680001 -96.128249 
L 454.680004 -94.849843 
L 454.68003 -93.571437 
L 454.680193 -92.293031 
L 454.681088 -91.014625 
L 454.685374 -89.736219 
L 454.70333 -88.457813 
L 454.769195 -87.179407 
L 454.98076 -85.901001 
L 455.575583 -84.622595 
L 457.037127 -83.344189 
L 460.165692 -82.065783 
L 465.967607 -80.787377 
L 475.202077 -79.508971 
L 487.612648 -78.230565 
L 501.261863 -76.952159 
L 512.664534 -75.673753 
L 518.0976 -74.395347 
L 515.525525 -73.116941 
L 505.817578 -71.838535 
L 492.279819 -70.560129 
L 478.839249 -69.281723 
L 468.232724 -68.003317 
L 461.312514 -66.724911 
z
" style="stroke: #595959; stroke-width: 1.25"/>
    </defs>
    <g clip-path="url(#pffd1134cdb)">
     <use xlink:href="#m9ee2b6fc44" x="0" y="432" style="fill: #95a3c3; stroke: #595959; stroke-width: 1.25"/>
    </g>
   </g>
   <g id="PolyCollection_4">
    <defs>
     <path id="m279fcc2a1a" d="M 620.76554 -62.690711 
L 605.68246 -62.690711 
L 599.232152 -63.985853 
L 589.858913 -65.280995 
L 578.105021 -66.576138 
L 565.711974 -67.87128 
L 555.366766 -69.166423 
L 549.8064 -70.461565 
L 550.654055 -71.756708 
L 557.655111 -73.05185 
L 568.800366 -74.346992 
L 581.255689 -75.642135 
L 592.515161 -76.937277 
L 601.147813 -78.23242 
L 606.884573 -79.527562 
L 610.228117 -80.822704 
L 611.949431 -82.117847 
L 612.735825 -83.412989 
L 613.055667 -84.708132 
L 613.171741 -86.003274 
L 613.209393 -87.298417 
L 613.220324 -88.593559 
L 613.223167 -89.888701 
L 613.223828 -91.183844 
L 613.223961 -92.478986 
L 613.223965 -93.774129 
L 613.223892 -95.069271 
L 613.223653 -96.364414 
L 613.222992 -97.659556 
L 613.221363 -98.954698 
L 613.217796 -100.249841 
L 613.210867 -101.544983 
L 613.198984 -102.840126 
L 613.181124 -104.135268 
L 613.157881 -105.430411 
L 613.132256 -106.725553 
L 613.109459 -108.020695 
L 613.095329 -109.315838 
L 613.093944 -110.61098 
L 613.105718 -111.906123 
L 613.127209 -113.201265 
L 613.152733 -114.496408 
L 613.176786 -115.79155 
L 613.195855 -117.086692 
L 613.208905 -118.381835 
L 613.216715 -119.676977 
L 613.220837 -120.97212 
L 613.222764 -122.267262 
L 613.223565 -123.562404 
L 613.223863 -124.857547 
L 613.223961 -126.152689 
L 613.22399 -127.447832 
L 613.223998 -128.742974 
L 613.224 -130.038117 
L 613.224 -131.333259 
L 613.224 -132.628401 
L 613.224 -133.923544 
L 613.224 -135.218686 
L 613.224 -136.513829 
L 613.224 -137.808971 
L 613.224 -139.104114 
L 613.224 -140.399256 
L 613.224 -141.694398 
L 613.224 -142.989541 
L 613.224 -144.284683 
L 613.224 -145.579826 
L 613.224 -146.874968 
L 613.224 -148.170111 
L 613.224 -149.465253 
L 613.224 -150.760395 
L 613.224 -152.055538 
L 613.224 -153.35068 
L 613.224 -154.645823 
L 613.224 -155.940965 
L 613.224 -157.236108 
L 613.224 -158.53125 
L 613.224 -159.826392 
L 613.223999 -161.121535 
L 613.223997 -162.416677 
L 613.223986 -163.71182 
L 613.223937 -165.006962 
L 613.223755 -166.302104 
L 613.223135 -167.597247 
L 613.221251 -168.892389 
L 613.216135 -170.187532 
L 613.20374 -171.482674 
L 613.177003 -172.777817 
L 613.125833 -174.072959 
L 613.039356 -175.368101 
L 612.911271 -176.663244 
L 612.747056 -177.958386 
L 612.569022 -179.253529 
L 612.414078 -180.548671 
L 612.322193 -181.843814 
L 612.319864 -183.138956 
L 612.407794 -184.434098 
L 612.560551 -185.729241 
L 612.738428 -187.024383 
L 612.904012 -188.319526 
L 613.034136 -189.614668 
L 613.122567 -190.909811 
L 613.325433 -190.909811 
L 613.325433 -190.909811 
L 613.413864 -189.614668 
L 613.543988 -188.319526 
L 613.709572 -187.024383 
L 613.887449 -185.729241 
L 614.040206 -184.434098 
L 614.128136 -183.138956 
L 614.125807 -181.843814 
L 614.033922 -180.548671 
L 613.878978 -179.253529 
L 613.700944 -177.958386 
L 613.536729 -176.663244 
L 613.408644 -175.368101 
L 613.322167 -174.072959 
L 613.270997 -172.777817 
L 613.24426 -171.482674 
L 613.231865 -170.187532 
L 613.226749 -168.892389 
L 613.224865 -167.597247 
L 613.224245 -166.302104 
L 613.224063 -165.006962 
L 613.224014 -163.71182 
L 613.224003 -162.416677 
L 613.224001 -161.121535 
L 613.224 -159.826392 
L 613.224 -158.53125 
L 613.224 -157.236108 
L 613.224 -155.940965 
L 613.224 -154.645823 
L 613.224 -153.35068 
L 613.224 -152.055538 
L 613.224 -150.760395 
L 613.224 -149.465253 
L 613.224 -148.170111 
L 613.224 -146.874968 
L 613.224 -145.579826 
L 613.224 -144.284683 
L 613.224 -142.989541 
L 613.224 -141.694398 
L 613.224 -140.399256 
L 613.224 -139.104114 
L 613.224 -137.808971 
L 613.224 -136.513829 
L 613.224 -135.218686 
L 613.224 -133.923544 
L 613.224 -132.628401 
L 613.224 -131.333259 
L 613.224 -130.038117 
L 613.224002 -128.742974 
L 613.22401 -127.447832 
L 613.224039 -126.152689 
L 613.224137 -124.857547 
L 613.224435 -123.562404 
L 613.225236 -122.267262 
L 613.227163 -120.97212 
L 613.231285 -119.676977 
L 613.239095 -118.381835 
L 613.252145 -117.086692 
L 613.271214 -115.79155 
L 613.295267 -114.496408 
L 613.320791 -113.201265 
L 613.342282 -111.906123 
L 613.354056 -110.61098 
L 613.352671 -109.315838 
L 613.338541 -108.020695 
L 613.315744 -106.725553 
L 613.290119 -105.430411 
L 613.266876 -104.135268 
L 613.249016 -102.840126 
L 613.237133 -101.544983 
L 613.230204 -100.249841 
L 613.226637 -98.954698 
L 613.225008 -97.659556 
L 613.224347 -96.364414 
L 613.224108 -95.069271 
L 613.224035 -93.774129 
L 613.224039 -92.478986 
L 613.224172 -91.183844 
L 613.224833 -89.888701 
L 613.227676 -88.593559 
L 613.238607 -87.298417 
L 613.276259 -86.003274 
L 613.392333 -84.708132 
L 613.712175 -83.412989 
L 614.498569 -82.117847 
L 616.219883 -80.822704 
L 619.563427 -79.527562 
L 625.300187 -78.23242 
L 633.932839 -76.937277 
L 645.192311 -75.642135 
L 657.647634 -74.346992 
L 668.792889 -73.05185 
L 675.793945 -71.756708 
L 676.6416 -70.461565 
L 671.081234 -69.166423 
L 660.736026 -67.87128 
L 648.342979 -66.576138 
L 636.589087 -65.280995 
L 627.215848 -63.985853 
L 620.76554 -62.690711 
z
" style="stroke: #595959; stroke-width: 1.25"/>
    </defs>
    <g clip-path="url(#pffd1134cdb)">
     <use xlink:href="#m279fcc2a1a" x="0" y="432" style="fill: #db96c0; stroke: #595959; stroke-width: 1.25"/>
    </g>
   </g>
   <g id="PolyCollection_5">
    <defs>
     <path id="m3225f4f497" d="M 779.770547 -61.348884 
L 763.765453 -61.348884 
L 757.529409 -62.650653 
L 748.695148 -63.952423 
L 737.716899 -65.254192 
L 726.00054 -66.555962 
L 715.743451 -67.857731 
L 709.308862 -69.159501 
L 708.3504 -70.461271 
L 713.124488 -71.76304 
L 722.37941 -73.06481 
L 733.886259 -74.366579 
L 745.305551 -75.668349 
L 754.93246 -76.970118 
L 762.013137 -78.271888 
L 766.620308 -79.573658 
L 769.293991 -80.875427 
L 770.685102 -82.177197 
L 771.33631 -83.478966 
L 771.61127 -84.780736 
L 771.716176 -86.082505 
L 771.752393 -87.384275 
L 771.763718 -88.686045 
L 771.766923 -89.987814 
L 771.767727 -91.289584 
L 771.76785 -92.591353 
L 771.767686 -93.893123 
L 771.767154 -95.194892 
L 771.765869 -96.496662 
L 771.763102 -97.798432 
L 771.757747 -99.100201 
L 771.748454 -100.401971 
L 771.734063 -101.70374 
L 771.714341 -103.00551 
L 771.690733 -104.307279 
L 771.666675 -105.609049 
L 771.646992 -106.910819 
L 771.636392 -108.212588 
L 771.637646 -109.514358 
L 771.650418 -110.816127 
L 771.67141 -112.117897 
L 771.695741 -113.419666 
L 771.71877 -114.721436 
L 771.737455 -116.023206 
L 771.750741 -117.324975 
L 771.759119 -118.626745 
L 771.763838 -119.928514 
L 771.766224 -121.230284 
L 771.76731 -122.532053 
L 771.767756 -123.833823 
L 771.767921 -125.135593 
L 771.767977 -126.437362 
L 771.767994 -127.739132 
L 771.767998 -129.040901 
L 771.768 -130.342671 
L 771.768 -131.64444 
L 771.768 -132.94621 
L 771.768 -134.24798 
L 771.768 -135.549749 
L 771.768 -136.851519 
L 771.768 -138.153288 
L 771.768 -139.455058 
L 771.768 -140.756828 
L 771.768 -142.058597 
L 771.768 -143.360367 
L 771.768 -144.662136 
L 771.768 -145.963906 
L 771.768 -147.265675 
L 771.768 -148.567445 
L 771.768 -149.869215 
L 771.768 -151.170984 
L 771.768 -152.472754 
L 771.768 -153.774523 
L 771.768 -155.076293 
L 771.768 -156.378062 
L 771.768 -157.679832 
L 771.767998 -158.981602 
L 771.767993 -160.283371 
L 771.76797 -161.585141 
L 771.767883 -162.88691 
L 771.767589 -164.18868 
L 771.766684 -165.490449 
L 771.764162 -166.792219 
L 771.7578 -168.093989 
L 771.743308 -169.395758 
L 771.713553 -170.697528 
L 771.658636 -171.999297 
L 771.567896 -173.301067 
L 771.434482 -174.602836 
L 771.261625 -175.904606 
L 771.067648 -177.206376 
L 770.885617 -178.508145 
L 770.75526 -179.809915 
L 770.709127 -181.111684 
L 770.759445 -182.413454 
L 770.892875 -183.715223 
L 771.076234 -185.016993 
L 771.269836 -186.318763 
L 771.441176 -187.620532 
L 771.57266 -188.922302 
L 771.661633 -190.224071 
L 771.874367 -190.224071 
L 771.874367 -190.224071 
L 771.96334 -188.922302 
L 772.094824 -187.620532 
L 772.266164 -186.318763 
L 772.459766 -185.016993 
L 772.643125 -183.715223 
L 772.776555 -182.413454 
L 772.826873 -181.111684 
L 772.78074 -179.809915 
L 772.650383 -178.508145 
L 772.468352 -177.206376 
L 772.274375 -175.904606 
L 772.101518 -174.602836 
L 771.968104 -173.301067 
L 771.877364 -171.999297 
L 771.822447 -170.697528 
L 771.792692 -169.395758 
L 771.7782 -168.093989 
L 771.771838 -166.792219 
L 771.769316 -165.490449 
L 771.768411 -164.18868 
L 771.768117 -162.88691 
L 771.76803 -161.585141 
L 771.768007 -160.283371 
L 771.768002 -158.981602 
L 771.768 -157.679832 
L 771.768 -156.378062 
L 771.768 -155.076293 
L 771.768 -153.774523 
L 771.768 -152.472754 
L 771.768 -151.170984 
L 771.768 -149.869215 
L 771.768 -148.567445 
L 771.768 -147.265675 
L 771.768 -145.963906 
L 771.768 -144.662136 
L 771.768 -143.360367 
L 771.768 -142.058597 
L 771.768 -140.756828 
L 771.768 -139.455058 
L 771.768 -138.153288 
L 771.768 -136.851519 
L 771.768 -135.549749 
L 771.768 -134.24798 
L 771.768 -132.94621 
L 771.768 -131.64444 
L 771.768 -130.342671 
L 771.768002 -129.040901 
L 771.768006 -127.739132 
L 771.768023 -126.437362 
L 771.768079 -125.135593 
L 771.768244 -123.833823 
L 771.76869 -122.532053 
L 771.769776 -121.230284 
L 771.772162 -119.928514 
L 771.776881 -118.626745 
L 771.785259 -117.324975 
L 771.798545 -116.023206 
L 771.81723 -114.721436 
L 771.840259 -113.419666 
L 771.86459 -112.117897 
L 771.885582 -110.816127 
L 771.898354 -109.514358 
L 771.899608 -108.212588 
L 771.889008 -106.910819 
L 771.869325 -105.609049 
L 771.845267 -104.307279 
L 771.821659 -103.00551 
L 771.801937 -101.70374 
L 771.787546 -100.401971 
L 771.778253 -99.100201 
L 771.772898 -97.798432 
L 771.770131 -96.496662 
L 771.768846 -95.194892 
L 771.768314 -93.893123 
L 771.76815 -92.591353 
L 771.768273 -91.289584 
L 771.769077 -89.987814 
L 771.772282 -88.686045 
L 771.783607 -87.384275 
L 771.819824 -86.082505 
L 771.92473 -84.780736 
L 772.19969 -83.478966 
L 772.850898 -82.177197 
L 774.242009 -80.875427 
L 776.915692 -79.573658 
L 781.522863 -78.271888 
L 788.60354 -76.970118 
L 798.230449 -75.668349 
L 809.649741 -74.366579 
L 821.15659 -73.06481 
L 830.411512 -71.76304 
L 835.1856 -70.461271 
L 834.227138 -69.159501 
L 827.792549 -67.857731 
L 817.53546 -66.555962 
L 805.819101 -65.254192 
L 794.840852 -63.952423 
L 786.006591 -62.650653 
L 779.770547 -61.348884 
z
" style="stroke: #595959; stroke-width: 1.25"/>
    </defs>
    <g clip-path="url(#pffd1134cdb)">
     <use xlink:href="#m3225f4f497" x="0" y="432" style="fill: #a2c865; stroke: #595959; stroke-width: 1.25"/>
    </g>
   </g>
   <g id="line2d_8">
    <path d="M 137.592 361.875697 
L 137.592 362.012695 
" clip-path="url(#pffd1134cdb)" style="fill: none; stroke: #000000"/>
   </g>
   <g id="line2d_9">
    <path d="M 137.592 361.737329 
L 137.592 361.530463 
" clip-path="url(#pffd1134cdb)" style="fill: none; stroke: #000000"/>
   </g>
   <g id="line2d_10">
    <path d="M 131.6466 362.012695 
L 143.5374 362.012695 
" clip-path="url(#pffd1134cdb)" style="fill: none; stroke: #000000; stroke-linecap: round"/>
   </g>
   <g id="line2d_11">
    <path d="M 131.6466 361.530463 
L 143.5374 361.530463 
" clip-path="url(#pffd1134cdb)" style="fill: none; stroke: #000000; stroke-linecap: round"/>
   </g>
   <g id="line2d_12">
    <path d="M 296.136 362.001735 
L 296.136 362.116813 
" clip-path="url(#pffd1134cdb)" style="fill: none; stroke: #000000"/>
   </g>
   <g id="line2d_13">
    <path d="M 296.136 361.892137 
L 296.136 361.733219 
" clip-path="url(#pffd1134cdb)" style="fill: none; stroke: #000000"/>
   </g>
   <g id="line2d_14">
    <path d="M 290.1906 362.116813 
L 302.0814 362.116813 
" clip-path="url(#pffd1134cdb)" style="fill: none; stroke: #000000; stroke-linecap: round"/>
   </g>
   <g id="line2d_15">
    <path d="M 290.1906 361.733219 
L 302.0814 361.733219 
" clip-path="url(#pffd1134cdb)" style="fill: none; stroke: #000000; stroke-linecap: round"/>
   </g>
   <g id="line2d_16">
    <path d="M 454.68 358.297316 
L 454.68 358.439794 
" clip-path="url(#pffd1134cdb)" style="fill: none; stroke: #000000"/>
   </g>
   <g id="line2d_17">
    <path d="M 454.68 357.798645 
L 454.68 357.124616 
" clip-path="url(#pffd1134cdb)" style="fill: none; stroke: #000000"/>
   </g>
   <g id="line2d_18">
    <path d="M 448.7346 358.439794 
L 460.6254 358.439794 
" clip-path="url(#pffd1134cdb)" style="fill: none; stroke: #000000; stroke-linecap: round"/>
   </g>
   <g id="line2d_19">
    <path d="M 448.7346 357.124616 
L 460.6254 357.124616 
" clip-path="url(#pffd1134cdb)" style="fill: none; stroke: #000000; stroke-linecap: round"/>
   </g>
   <g id="line2d_20">
    <path d="M 613.224 361.212628 
L 613.224 361.338666 
" clip-path="url(#pffd1134cdb)" style="fill: none; stroke: #000000"/>
   </g>
   <g id="line2d_21">
    <path d="M 613.224 360.976992 
L 613.224 360.626278 
" clip-path="url(#pffd1134cdb)" style="fill: none; stroke: #000000"/>
   </g>
   <g id="line2d_22">
    <path d="M 607.2786 361.338666 
L 619.1694 361.338666 
" clip-path="url(#pffd1134cdb)" style="fill: none; stroke: #000000; stroke-linecap: round"/>
   </g>
   <g id="line2d_23">
    <path d="M 607.2786 360.626278 
L 619.1694 360.626278 
" clip-path="url(#pffd1134cdb)" style="fill: none; stroke: #000000; stroke-linecap: round"/>
   </g>
   <g id="line2d_24">
    <path d="M 771.768 362.062014 
L 771.768 362.138732 
" clip-path="url(#pffd1134cdb)" style="fill: none; stroke: #000000"/>
   </g>
   <g id="line2d_25">
    <path d="M 771.768 361.914056 
L 771.768 361.69486 
" clip-path="url(#pffd1134cdb)" style="fill: none; stroke: #000000"/>
   </g>
   <g id="line2d_26">
    <path d="M 765.8226 362.138732 
L 777.7134 362.138732 
" clip-path="url(#pffd1134cdb)" style="fill: none; stroke: #000000; stroke-linecap: round"/>
   </g>
   <g id="line2d_27">
    <path d="M 765.8226 361.69486 
L 777.7134 361.69486 
" clip-path="url(#pffd1134cdb)" style="fill: none; stroke: #000000; stroke-linecap: round"/>
   </g>
   <g id="line2d_28">
    <path d="M 125.7012 361.820898 
L 149.4828 361.820898 
" clip-path="url(#pffd1134cdb)" style="fill: none; stroke: #ff0000; stroke-width: 2"/>
   </g>
   <g id="line2d_29">
    <path d="M 284.2452 361.952416 
L 308.0268 361.952416 
" clip-path="url(#pffd1134cdb)" style="fill: none; stroke: #ff0000; stroke-width: 2"/>
   </g>
   <g id="line2d_30">
    <path d="M 442.7892 358.215118 
L 466.5708 358.215118 
" clip-path="url(#pffd1134cdb)" style="fill: none; stroke: #ff0000; stroke-width: 2"/>
   </g>
   <g id="line2d_31">
    <path d="M 601.3332 361.141389 
L 625.1148 361.141389 
" clip-path="url(#pffd1134cdb)" style="fill: none; stroke: #ff0000; stroke-width: 2"/>
   </g>
   <g id="line2d_32">
    <path d="M 759.8772 361.996255 
L 783.6588 361.996255 
" clip-path="url(#pffd1134cdb)" style="fill: none; stroke: #ff0000; stroke-width: 2"/>
   </g>
   <g id="patch_3">
    <path d="M 58.32 395.14 
L 58.32 27.6 
" style="fill: none; stroke: #cccccc; stroke-width: 1.25; stroke-linejoin: miter; stroke-linecap: square"/>
   </g>
   <g id="patch_4">
    <path d="M 851.04 395.14 
L 851.04 27.6 
" style="fill: none; stroke: #cccccc; stroke-width: 1.25; stroke-linejoin: miter; stroke-linecap: square"/>
   </g>
   <g id="patch_5">
    <path d="M 58.32 395.14 
L 851.04 395.14 
" style="fill: none; stroke: #cccccc; stroke-width: 1.25; stroke-linejoin: miter; stroke-linecap: square"/>
   </g>
   <g id="patch_6">
    <path d="M 58.32 27.6 
L 851.04 27.6 
" style="fill: none; stroke: #cccccc; stroke-width: 1.25; stroke-linejoin: miter; stroke-linecap: square"/>
   </g>
   <g id="text_14">
    <!-- Handshake duration on QUIC with mldsa44 signature algorithm — Local YDE (35ms/2%) -->
    <g style="fill: #262626" transform="translate(190.397812 21.6) scale(0.12 -0.12)">
     <defs>
      <path id="DejaVuSans-51" d="M 2522 4238 
Q 1834 4238 1429 3725 
Q 1025 3213 1025 2328 
Q 1025 1447 1429 934 
Q 1834 422 2522 422 
Q 3209 422 3611 934 
Q 4013 1447 4013 2328 
Q 4013 3213 3611 3725 
Q 3209 4238 2522 4238 
z
M 3406 84 
L 4238 -825 
L 3475 -825 
L 2784 -78 
Q 2681 -84 2626 -87 
Q 2572 -91 2522 -91 
Q 1538 -91 948 567 
Q 359 1225 359 2328 
Q 359 3434 948 4092 
Q 1538 4750 2522 4750 
Q 3503 4750 4090 4092 
Q 4678 3434 4678 2328 
Q 4678 1516 4351 937 
Q 4025 359 3406 84 
z
" transform="scale(0.015625)"/>
      <path id="DejaVuSans-55" d="M 556 4666 
L 1191 4666 
L 1191 1831 
Q 1191 1081 1462 751 
Q 1734 422 2344 422 
Q 2950 422 3222 751 
Q 3494 1081 3494 1831 
L 3494 4666 
L 4128 4666 
L 4128 1753 
Q 4128 841 3676 375 
Q 3225 -91 2344 -91 
Q 1459 -91 1007 375 
Q 556 841 556 1753 
L 556 4666 
z
" transform="scale(0.015625)"/>
      <path id="DejaVuSans-49" d="M 628 4666 
L 1259 4666 
L 1259 0 
L 628 0 
L 628 4666 
z
" transform="scale(0.015625)"/>
      <path id="DejaVuSans-43" d="M 4122 4306 
L 4122 3641 
Q 3803 3938 3442 4084 
Q 3081 4231 2675 4231 
Q 1875 4231 1450 3742 
Q 1025 3253 1025 2328 
Q 1025 1406 1450 917 
Q 1875 428 2675 428 
Q 3081 428 3442 575 
Q 3803 722 4122 1019 
L 4122 359 
Q 3791 134 3420 21 
Q 3050 -91 2638 -91 
Q 1578 -91 968 557 
Q 359 1206 359 2328 
Q 359 3453 968 4101 
Q 1578 4750 2638 4750 
Q 3056 4750 3426 4639 
Q 3797 4528 4122 4306 
z
" transform="scale(0.015625)"/>
      <path id="DejaVuSans-77" d="M 269 3500 
L 844 3500 
L 1563 769 
L 2278 3500 
L 2956 3500 
L 3675 769 
L 4391 3500 
L 4966 3500 
L 4050 0 
L 3372 0 
L 2619 2869 
L 1863 0 
L 1184 0 
L 269 3500 
z
" transform="scale(0.015625)"/>
      <path id="DejaVuSans-67" d="M 2906 1791 
Q 2906 2416 2648 2759 
Q 2391 3103 1925 3103 
Q 1463 3103 1205 2759 
Q 947 2416 947 1791 
Q 947 1169 1205 825 
Q 1463 481 1925 481 
Q 2391 481 2648 825 
Q 2906 1169 2906 1791 
z
M 3481 434 
Q 3481 -459 3084 -895 
Q 2688 -1331 1869 -1331 
Q 1566 -1331 1297 -1286 
Q 1028 -1241 775 -1147 
L 775 -588 
Q 1028 -725 1275 -790 
Q 1522 -856 1778 -856 
Q 2344 -856 2625 -561 
Q 2906 -266 2906 331 
L 2906 616 
Q 2728 306 2450 153 
Q 2172 0 1784 0 
Q 1141 0 747 490 
Q 353 981 353 1791 
Q 353 2603 747 3093 
Q 1141 3584 1784 3584 
Q 2172 3584 2450 3431 
Q 2728 3278 2906 2969 
L 2906 3500 
L 3481 3500 
L 3481 434 
z
" transform="scale(0.015625)"/>
      <path id="DejaVuSans-2014" d="M 313 1978 
L 6088 1978 
L 6088 1528 
L 313 1528 
L 313 1978 
z
" transform="scale(0.015625)"/>
      <path id="DejaVuSans-4c" d="M 628 4666 
L 1259 4666 
L 1259 531 
L 3531 531 
L 3531 0 
L 628 0 
L 628 4666 
z
" transform="scale(0.015625)"/>
      <path id="DejaVuSans-63" d="M 3122 3366 
L 3122 2828 
Q 2878 2963 2633 3030 
Q 2388 3097 2138 3097 
Q 1578 3097 1268 2742 
Q 959 2388 959 1747 
Q 959 1106 1268 751 
Q 1578 397 2138 397 
Q 2388 397 2633 464 
Q 2878 531 3122 666 
L 3122 134 
Q 2881 22 2623 -34 
Q 2366 -91 2075 -91 
Q 1284 -91 818 406 
Q 353 903 353 1747 
Q 353 2603 823 3093 
Q 1294 3584 2113 3584 
Q 2378 3584 2631 3529 
Q 2884 3475 3122 3366 
z
" transform="scale(0.015625)"/>
      <path id="DejaVuSans-59" d="M -13 4666 
L 666 4666 
L 1959 2747 
L 3244 4666 
L 3922 4666 
L 2272 2222 
L 2272 0 
L 1638 0 
L 1638 2222 
L -13 4666 
z
" transform="scale(0.015625)"/>
      <path id="DejaVuSans-44" d="M 1259 4147 
L 1259 519 
L 2022 519 
Q 2988 519 3436 956 
Q 3884 1394 3884 2338 
Q 3884 3275 3436 3711 
Q 2988 4147 2022 4147 
L 1259 4147 
z
M 628 4666 
L 1925 4666 
Q 3281 4666 3915 4102 
Q 4550 3538 4550 2338 
Q 4550 1131 3912 565 
Q 3275 0 1925 0 
L 628 0 
L 628 4666 
z
" transform="scale(0.015625)"/>
      <path id="DejaVuSans-45" d="M 628 4666 
L 3578 4666 
L 3578 4134 
L 1259 4134 
L 1259 2753 
L 3481 2753 
L 3481 2222 
L 1259 2222 
L 1259 531 
L 3634 531 
L 3634 0 
L 628 0 
L 628 4666 
z
" transform="scale(0.015625)"/>
      <path id="DejaVuSans-2f" d="M 1625 4666 
L 2156 4666 
L 531 -594 
L 0 -594 
L 1625 4666 
z
" transform="scale(0.015625)"/>
      <path id="DejaVuSans-25" d="M 4653 2053 
Q 4381 2053 4226 1822 
Q 4072 1591 4072 1178 
Q 4072 772 4226 539 
Q 4381 306 4653 306 
Q 4919 306 5073 539 
Q 5228 772 5228 1178 
Q 5228 1588 5073 1820 
Q 4919 2053 4653 2053 
z
M 4653 2450 
Q 5147 2450 5437 2106 
Q 5728 1763 5728 1178 
Q 5728 594 5436 251 
Q 5144 -91 4653 -91 
Q 4153 -91 3862 251 
Q 3572 594 3572 1178 
Q 3572 1766 3864 2108 
Q 4156 2450 4653 2450 
z
M 1428 4353 
Q 1159 4353 1004 4120 
Q 850 3888 850 3481 
Q 850 3069 1003 2837 
Q 1156 2606 1428 2606 
Q 1700 2606 1854 2837 
Q 2009 3069 2009 3481 
Q 2009 3884 1853 4118 
Q 1697 4353 1428 4353 
z
M 4250 4750 
L 4750 4750 
L 1831 -91 
L 1331 -91 
L 4250 4750 
z
M 1428 4750 
Q 1922 4750 2215 4408 
Q 2509 4066 2509 3481 
Q 2509 2891 2217 2550 
Q 1925 2209 1428 2209 
Q 931 2209 642 2551 
Q 353 2894 353 3481 
Q 353 4063 643 4406 
Q 934 4750 1428 4750 
z
" transform="scale(0.015625)"/>
     </defs>
     <use xlink:href="#DejaVuSans-48"/>
     <use xlink:href="#DejaVuSans-61" x="75.195312"/>
     <use xlink:href="#DejaVuSans-6e" x="136.474609"/>
     <use xlink:href="#DejaVuSans-64" x="199.853516"/>
     <use xlink:href="#DejaVuSans-73" x="263.330078"/>
     <use xlink:href="#DejaVuSans-68" x="315.429688"/>
     <use xlink:href="#DejaVuSans-61" x="378.808594"/>
     <use xlink:href="#DejaVuSans-6b" x="440.087891"/>
     <use xlink:href="#DejaVuSans-65" x="494.373047"/>
     <use xlink:href="#DejaVuSans-20" x="555.896484"/>
     <use xlink:href="#DejaVuSans-64" x="587.683594"/>
     <use xlink:href="#DejaVuSans-75" x="651.160156"/>
     <use xlink:href="#DejaVuSans-72" x="714.539062"/>
     <use xlink:href="#DejaVuSans-61" x="755.652344"/>
     <use xlink:href="#DejaVuSans-74" x="816.931641"/>
     <use xlink:href="#DejaVuSans-69" x="856.140625"/>
     <use xlink:href="#DejaVuSans-6f" x="883.923828"/>
     <use xlink:href="#DejaVuSans-6e" x="945.105469"/>
     <use xlink:href="#DejaVuSans-20" x="1008.484375"/>
     <use xlink:href="#DejaVuSans-6f" x="1040.271484"/>
     <use xlink:href="#DejaVuSans-6e" x="1101.453125"/>
     <use xlink:href="#DejaVuSans-20" x="1164.832031"/>
     <use xlink:href="#DejaVuSans-51" x="1196.619141"/>
     <use xlink:href="#DejaVuSans-55" x="1275.330078"/>
     <use xlink:href="#DejaVuSans-49" x="1348.523438"/>
     <use xlink:href="#DejaVuSans-43" x="1378.015625"/>
     <use xlink:href="#DejaVuSans-20" x="1447.839844"/>
     <use xlink:href="#DejaVuSans-77" x="1479.626953"/>
     <use xlink:href="#DejaVuSans-69" x="1561.414062"/>
     <use xlink:href="#DejaVuSans-74" x="1589.197266"/>
     <use xlink:href="#DejaVuSans-68" x="1628.40625"/>
     <use xlink:href="#DejaVuSans-20" x="1691.785156"/>
     <use xlink:href="#DejaVuSans-6d" x="1723.572266"/>
     <use xlink:href="#DejaVuSans-6c" x="1820.984375"/>
     <use xlink:href="#DejaVuSans-64" x="1848.767578"/>
     <use xlink:href="#DejaVuSans-73" x="1912.244141"/>
     <use xlink:href="#DejaVuSans-61" x="1964.34375"/>
     <use xlink:href="#DejaVuSans-34" x="2025.623047"/>
     <use xlink:href="#DejaVuSans-34" x="2089.246094"/>
     <use xlink:href="#DejaVuSans-20" x="2152.869141"/>
     <use xlink:href="#DejaVuSans-73" x="2184.65625"/>
     <use xlink:href="#DejaVuSans-69" x="2236.755859"/>
     <use xlink:href="#DejaVuSans-67" x="2264.539062"/>
     <use xlink:href="#DejaVuSans-6e" x="2328.015625"/>
     <use xlink:href="#DejaVuSans-61" x="2391.394531"/>
     <use xlink:href="#DejaVuSans-74" x="2452.673828"/>
     <use xlink:href="#DejaVuSans-75" x="2491.882812"/>
     <use xlink:href="#DejaVuSans-72" x="2555.261719"/>
     <use xlink:href="#DejaVuSans-65" x="2594.125"/>
     <use xlink:href="#DejaVuSans-20" x="2655.648438"/>
     <use xlink:href="#DejaVuSans-61" x="2687.435547"/>
     <use xlink:href="#DejaVuSans-6c" x="2748.714844"/>
     <use xlink:href="#DejaVuSans-67" x="2776.498047"/>
     <use xlink:href="#DejaVuSans-6f" x="2839.974609"/>
     <use xlink:href="#DejaVuSans-72" x="2901.15625"/>
     <use xlink:href="#DejaVuSans-69" x="2942.269531"/>
     <use xlink:href="#DejaVuSans-74" x="2970.052734"/>
     <use xlink:href="#DejaVuSans-68" x="3009.261719"/>
     <use xlink:href="#DejaVuSans-6d" x="3072.640625"/>
     <use xlink:href="#DejaVuSans-20" x="3170.052734"/>
     <use xlink:href="#DejaVuSans-2014" x="3201.839844"/>
     <use xlink:href="#DejaVuSans-20" x="3301.839844"/>
     <use xlink:href="#DejaVuSans-4c" x="3333.626953"/>
     <use xlink:href="#DejaVuSans-6f" x="3387.589844"/>
     <use xlink:href="#DejaVuSans-63" x="3448.771484"/>
     <use xlink:href="#DejaVuSans-61" x="3503.751953"/>
     <use xlink:href="#DejaVuSans-6c" x="3565.03125"/>
     <use xlink:href="#DejaVuSans-20" x="3592.814453"/>
     <use xlink:href="#DejaVuSans-59" x="3624.601562"/>
     <use xlink:href="#DejaVuSans-44" x="3685.685547"/>
     <use xlink:href="#DejaVuSans-45" x="3762.6875"/>
     <use xlink:href="#DejaVuSans-20" x="3825.871094"/>
     <use xlink:href="#DejaVuSans-28" x="3857.658203"/>
     <use xlink:href="#DejaVuSans-33" x="3896.671875"/>
     <use xlink:href="#DejaVuSans-35" x="3960.294922"/>
     <use xlink:href="#DejaVuSans-6d" x="4023.917969"/>
     <use xlink:href="#DejaVuSans-73" x="4121.330078"/>
     <use xlink:href="#DejaVuSans-2f" x="4173.429688"/>
     <use xlink:href="#DejaVuSans-32" x="4207.121094"/>
     <use xlink:href="#DejaVuSans-25" x="4270.744141"/>
     <use xlink:href="#DejaVuSans-29" x="4365.763672"/>
    </g>
   </g>
  </g>
 </g>
 <defs>
  <clipPath id="pffd1134cdb">
   <rect x="58.32" y="27.6" width="792.72" height="367.54"/>
  </clipPath>
 </defs>
</svg>
