<?xml version="1.0" encoding="utf-8" standalone="no"?>
<!DOCTYPE svg PUBLIC "-//W3C//DTD SVG 1.1//EN"
  "http://www.w3.org/Graphics/SVG/1.1/DTD/svg11.dtd">
<svg xmlns:xlink="http://www.w3.org/1999/xlink" width="864pt" height="432pt" viewBox="0 0 864 432" xmlns="http://www.w3.org/2000/svg" version="1.1">
 <metadata>
  <rdf:RDF xmlns:dc="http://purl.org/dc/elements/1.1/" xmlns:cc="http://creativecommons.org/ns#" xmlns:rdf="http://www.w3.org/1999/02/22-rdf-syntax-ns#">
   <cc:Work>
    <dc:type rdf:resource="http://purl.org/dc/dcmitype/StillImage"/>
    <dc:date>2026-03-21T13:58:50.369966</dc:date>
    <dc:format>image/svg+xml</dc:format>
    <dc:creator>
     <cc:Agent>
      <dc:title>Matplotlib v3.6.3, https://matplotlib.org/</dc:title>
     </cc:Agent>
    </dc:creator>
   </cc:Work>
  </rdf:RDF>
 </metadata>
 <defs>
  <style type="text/css">*{stroke-linejoin: round; stroke-linecap: butt}</style>
 </defs>
 <g id="figure_1">
  <g id="patch_1">
   <path d="M 0 432 
L 864 432 
L 864 0 
L 0 0 
z
" style="fill: #ffffff"/>
  </g>
  <g id="axes_1">
   <g id="patch_2">
    <path d="M 68.85 395.14 
L 851.04 395.14 
L 851.04 27.6 
L 68.85 27.6 
z
" style="fill: #ffffff"/>
   </g>
   <g id="matplotlib.axis_1">
    <g id="xtick_1">
     <g id="text_1">
      <!-- P-384 -->
      <g style="fill: #262626" transform="translate(127.119 415.277812) scale(0.14 -0.14)">
       <defs>
        <path id="DejaVuSans-50" d="M 1259 4147 
L 1259 2394 
L 2053 2394 
Q 2494 2394 2734 2622 
Q 2975 2850 2975 3272 
Q 2975 3691 2734 3919 
Q 2494 4147 2053 4147 
L 1259 4147 
z
M 628 4666 
L 2053 4666 
Q 2838 4666 3239 4311 
Q 3641 3956 3641 3272 
Q 3641 2581 3239 2228 
Q 2838 1875 2053 1875 
L 1259 1875 
L 1259 0 
L 628 0 
L 628 4666 
z
" transform="scale(0.015625)"/>
        <path id="DejaVuSans-2d" d="M 313 2009 
L 1997 2009 
L 1997 1497 
L 313 1497 
L 313 2009 
z
" transform="scale(0.015625)"/>
        <path id="DejaVuSans-33" d="M 2597 2516 
Q 3050 2419 3304 2112 
Q 3559 1806 3559 1356 
Q 3559 666 3084 287 
Q 2609 -91 1734 -91 
Q 1441 -91 1130 -33 
Q 819 25 488 141 
L 488 750 
Q 750 597 1062 519 
Q 1375 441 1716 441 
Q 2309 441 2620 675 
Q 2931 909 2931 1356 
Q 2931 1769 2642 2001 
Q 2353 2234 1838 2234 
L 1294 2234 
L 1294 2753 
L 1863 2753 
Q 2328 2753 2575 2939 
Q 2822 3125 2822 3475 
Q 2822 3834 2567 4026 
Q 2313 4219 1838 4219 
Q 1578 4219 1281 4162 
Q 984 4106 628 3988 
L 628 4550 
Q 988 4650 1302 4700 
Q 1616 4750 1894 4750 
Q 2613 4750 3031 4423 
Q 3450 4097 3450 3541 
Q 3450 3153 3228 2886 
Q 3006 2619 2597 2516 
z
" transform="scale(0.015625)"/>
        <path id="DejaVuSans-38" d="M 2034 2216 
Q 1584 2216 1326 1975 
Q 1069 1734 1069 1313 
Q 1069 891 1326 650 
Q 1584 409 2034 409 
Q 2484 409 2743 651 
Q 3003 894 3003 1313 
Q 3003 1734 2745 1975 
Q 2488 2216 2034 2216 
z
M 1403 2484 
Q 997 2584 770 2862 
Q 544 3141 544 3541 
Q 544 4100 942 4425 
Q 1341 4750 2034 4750 
Q 2731 4750 3128 4425 
Q 3525 4100 3525 3541 
Q 3525 3141 3298 2862 
Q 3072 2584 2669 2484 
Q 3125 2378 3379 2068 
Q 3634 1759 3634 1313 
Q 3634 634 3220 271 
Q 2806 -91 2034 -91 
Q 1263 -91 848 271 
Q 434 634 434 1313 
Q 434 1759 690 2068 
Q 947 2378 1403 2484 
z
M 1172 3481 
Q 1172 3119 1398 2916 
Q 1625 2713 2034 2713 
Q 2441 2713 2670 2916 
Q 2900 3119 2900 3481 
Q 2900 3844 2670 4047 
Q 2441 4250 2034 4250 
Q 1625 4250 1398 4047 
Q 1172 3844 1172 3481 
z
" transform="scale(0.015625)"/>
        <path id="DejaVuSans-34" d="M 2419 4116 
L 825 1625 
L 2419 1625 
L 2419 4116 
z
M 2253 4666 
L 3047 4666 
L 3047 1625 
L 3713 1625 
L 3713 1100 
L 3047 1100 
L 3047 0 
L 2419 0 
L 2419 1100 
L 313 1100 
L 313 1709 
L 2253 4666 
z
" transform="scale(0.015625)"/>
       </defs>
       <use xlink:href="#DejaVuSans-50"/>
       <use xlink:href="#DejaVuSans-2d" x="58.052734"/>
       <use xlink:href="#DejaVuSans-33" x="94.136719"/>
       <use xlink:href="#DejaVuSans-38" x="157.759766"/>
       <use xlink:href="#DejaVuSans-34" x="221.382812"/>
      </g>
     </g>
    </g>
    <g id="xtick_2">
     <g id="text_2">
      <!-- x448 -->
      <g style="fill: #262626" transform="translate(286.002625 415.277812) scale(0.14 -0.14)">
       <defs>
        <path id="DejaVuSans-78" d="M 3513 3500 
L 2247 1797 
L 3578 0 
L 2900 0 
L 1881 1375 
L 863 0 
L 184 0 
L 1544 1831 
L 300 3500 
L 978 3500 
L 1906 2253 
L 2834 3500 
L 3513 3500 
z
" transform="scale(0.015625)"/>
       </defs>
       <use xlink:href="#DejaVuSans-78"/>
       <use xlink:href="#DejaVuSans-34" x="59.179688"/>
       <use xlink:href="#DejaVuSans-34" x="122.802734"/>
       <use xlink:href="#DejaVuSans-38" x="186.425781"/>
      </g>
     </g>
    </g>
    <g id="xtick_3">
     <g id="text_3">
      <!-- p384_mlkem768 -->
      <g style="fill: #262626" transform="translate(401.590156 415.277812) scale(0.14 -0.14)">
       <defs>
        <path id="DejaVuSans-70" d="M 1159 525 
L 1159 -1331 
L 581 -1331 
L 581 3500 
L 1159 3500 
L 1159 2969 
Q 1341 3281 1617 3432 
Q 1894 3584 2278 3584 
Q 2916 3584 3314 3078 
Q 3713 2572 3713 1747 
Q 3713 922 3314 415 
Q 2916 -91 2278 -91 
Q 1894 -91 1617 61 
Q 1341 213 1159 525 
z
M 3116 1747 
Q 3116 2381 2855 2742 
Q 2594 3103 2138 3103 
Q 1681 3103 1420 2742 
Q 1159 2381 1159 1747 
Q 1159 1113 1420 752 
Q 1681 391 2138 391 
Q 2594 391 2855 752 
Q 3116 1113 3116 1747 
z
" transform="scale(0.015625)"/>
        <path id="DejaVuSans-5f" d="M 3263 -1063 
L 3263 -1509 
L -63 -1509 
L -63 -1063 
L 3263 -1063 
z
" transform="scale(0.015625)"/>
        <path id="DejaVuSans-6d" d="M 3328 2828 
Q 3544 3216 3844 3400 
Q 4144 3584 4550 3584 
Q 5097 3584 5394 3201 
Q 5691 2819 5691 2113 
L 5691 0 
L 5113 0 
L 5113 2094 
Q 5113 2597 4934 2840 
Q 4756 3084 4391 3084 
Q 3944 3084 3684 2787 
Q 3425 2491 3425 1978 
L 3425 0 
L 2847 0 
L 2847 2094 
Q 2847 2600 2669 2842 
Q 2491 3084 2119 3084 
Q 1678 3084 1418 2786 
Q 1159 2488 1159 1978 
L 1159 0 
L 581 0 
L 581 3500 
L 1159 3500 
L 1159 2956 
Q 1356 3278 1631 3431 
Q 1906 3584 2284 3584 
Q 2666 3584 2933 3390 
Q 3200 3197 3328 2828 
z
" transform="scale(0.015625)"/>
        <path id="DejaVuSans-6c" d="M 603 4863 
L 1178 4863 
L 1178 0 
L 603 0 
L 603 4863 
z
" transform="scale(0.015625)"/>
        <path id="DejaVuSans-6b" d="M 581 4863 
L 1159 4863 
L 1159 1991 
L 2875 3500 
L 3609 3500 
L 1753 1863 
L 3688 0 
L 2938 0 
L 1159 1709 
L 1159 0 
L 581 0 
L 581 4863 
z
" transform="scale(0.015625)"/>
        <path id="DejaVuSans-65" d="M 3597 1894 
L 3597 1613 
L 953 1613 
Q 991 1019 1311 708 
Q 1631 397 2203 397 
Q 2534 397 2845 478 
Q 3156 559 3463 722 
L 3463 178 
Q 3153 47 2828 -22 
Q 2503 -91 2169 -91 
Q 1331 -91 842 396 
Q 353 884 353 1716 
Q 353 2575 817 3079 
Q 1281 3584 2069 3584 
Q 2775 3584 3186 3129 
Q 3597 2675 3597 1894 
z
M 3022 2063 
Q 3016 2534 2758 2815 
Q 2500 3097 2075 3097 
Q 1594 3097 1305 2825 
Q 1016 2553 972 2059 
L 3022 2063 
z
" transform="scale(0.015625)"/>
        <path id="DejaVuSans-37" d="M 525 4666 
L 3525 4666 
L 3525 4397 
L 1831 0 
L 1172 0 
L 2766 4134 
L 525 4134 
L 525 4666 
z
" transform="scale(0.015625)"/>
        <path id="DejaVuSans-36" d="M 2113 2584 
Q 1688 2584 1439 2293 
Q 1191 2003 1191 1497 
Q 1191 994 1439 701 
Q 1688 409 2113 409 
Q 2538 409 2786 701 
Q 3034 994 3034 1497 
Q 3034 2003 2786 2293 
Q 2538 2584 2113 2584 
z
M 3366 4563 
L 3366 3988 
Q 3128 4100 2886 4159 
Q 2644 4219 2406 4219 
Q 1781 4219 1451 3797 
Q 1122 3375 1075 2522 
Q 1259 2794 1537 2939 
Q 1816 3084 2150 3084 
Q 2853 3084 3261 2657 
Q 3669 2231 3669 1497 
Q 3669 778 3244 343 
Q 2819 -91 2113 -91 
Q 1303 -91 875 529 
Q 447 1150 447 2328 
Q 447 3434 972 4092 
Q 1497 4750 2381 4750 
Q 2619 4750 2861 4703 
Q 3103 4656 3366 4563 
z
" transform="scale(0.015625)"/>
       </defs>
       <use xlink:href="#DejaVuSans-70"/>
       <use xlink:href="#DejaVuSans-33" x="63.476562"/>
       <use xlink:href="#DejaVuSans-38" x="127.099609"/>
       <use xlink:href="#DejaVuSans-34" x="190.722656"/>
       <use xlink:href="#DejaVuSans-5f" x="254.345703"/>
       <use xlink:href="#DejaVuSans-6d" x="304.345703"/>
       <use xlink:href="#DejaVuSans-6c" x="401.757812"/>
       <use xlink:href="#DejaVuSans-6b" x="429.541016"/>
       <use xlink:href="#DejaVuSans-65" x="483.826172"/>
       <use xlink:href="#DejaVuSans-6d" x="545.349609"/>
       <use xlink:href="#DejaVuSans-37" x="642.761719"/>
       <use xlink:href="#DejaVuSans-36" x="706.384766"/>
       <use xlink:href="#DejaVuSans-38" x="770.007812"/>
      </g>
     </g>
    </g>
    <g id="xtick_4">
     <g id="text_4">
      <!-- x448_mlkem768 -->
      <g style="fill: #262626" transform="translate(558.328938 415.277812) scale(0.14 -0.14)">
       <use xlink:href="#DejaVuSans-78"/>
       <use xlink:href="#DejaVuSans-34" x="59.179688"/>
       <use xlink:href="#DejaVuSans-34" x="122.802734"/>
       <use xlink:href="#DejaVuSans-38" x="186.425781"/>
       <use xlink:href="#DejaVuSans-5f" x="250.048828"/>
       <use xlink:href="#DejaVuSans-6d" x="300.048828"/>
       <use xlink:href="#DejaVuSans-6c" x="397.460938"/>
       <use xlink:href="#DejaVuSans-6b" x="425.244141"/>
       <use xlink:href="#DejaVuSans-65" x="479.529297"/>
       <use xlink:href="#DejaVuSans-6d" x="541.052734"/>
       <use xlink:href="#DejaVuSans-37" x="638.464844"/>
       <use xlink:href="#DejaVuSans-36" x="702.087891"/>
       <use xlink:href="#DejaVuSans-38" x="765.710938"/>
      </g>
     </g>
    </g>
    <g id="xtick_5">
     <g id="text_5">
      <!-- mlkem768 -->
      <g style="fill: #262626" transform="translate(735.771312 415.277812) scale(0.14 -0.14)">
       <use xlink:href="#DejaVuSans-6d"/>
       <use xlink:href="#DejaVuSans-6c" x="97.412109"/>
       <use xlink:href="#DejaVuSans-6b" x="125.195312"/>
       <use xlink:href="#DejaVuSans-65" x="179.480469"/>
       <use xlink:href="#DejaVuSans-6d" x="241.003906"/>
       <use xlink:href="#DejaVuSans-37" x="338.416016"/>
       <use xlink:href="#DejaVuSans-36" x="402.039062"/>
       <use xlink:href="#DejaVuSans-38" x="465.662109"/>
      </g>
     </g>
    </g>
   </g>
   <g id="matplotlib.axis_2">
    <g id="ytick_1">
     <g id="line2d_1">
      <path d="M 68.85 367.451095 
L 851.04 367.451095 
" clip-path="url(#p8c2f5a6494)" style="fill: none; stroke: #cccccc; stroke-linecap: round"/>
     </g>
     <g id="text_6">
      <!-- 802.5 -->
      <g style="fill: #262626" transform="translate(27.859063 371.630235) scale(0.11 -0.11)">
       <defs>
        <path id="DejaVuSans-30" d="M 2034 4250 
Q 1547 4250 1301 3770 
Q 1056 3291 1056 2328 
Q 1056 1369 1301 889 
Q 1547 409 2034 409 
Q 2525 409 2770 889 
Q 3016 1369 3016 2328 
Q 3016 3291 2770 3770 
Q 2525 4250 2034 4250 
z
M 2034 4750 
Q 2819 4750 3233 4129 
Q 3647 3509 3647 2328 
Q 3647 1150 3233 529 
Q 2819 -91 2034 -91 
Q 1250 -91 836 529 
Q 422 1150 422 2328 
Q 422 3509 836 4129 
Q 1250 4750 2034 4750 
z
" transform="scale(0.015625)"/>
        <path id="DejaVuSans-32" d="M 1228 531 
L 3431 531 
L 3431 0 
L 469 0 
L 469 531 
Q 828 903 1448 1529 
Q 2069 2156 2228 2338 
Q 2531 2678 2651 2914 
Q 2772 3150 2772 3378 
Q 2772 3750 2511 3984 
Q 2250 4219 1831 4219 
Q 1534 4219 1204 4116 
Q 875 4013 500 3803 
L 500 4441 
Q 881 4594 1212 4672 
Q 1544 4750 1819 4750 
Q 2544 4750 2975 4387 
Q 3406 4025 3406 3419 
Q 3406 3131 3298 2873 
Q 3191 2616 2906 2266 
Q 2828 2175 2409 1742 
Q 1991 1309 1228 531 
z
" transform="scale(0.015625)"/>
        <path id="DejaVuSans-2e" d="M 684 794 
L 1344 794 
L 1344 0 
L 684 0 
L 684 794 
z
" transform="scale(0.015625)"/>
        <path id="DejaVuSans-35" d="M 691 4666 
L 3169 4666 
L 3169 4134 
L 1269 4134 
L 1269 2991 
Q 1406 3038 1543 3061 
Q 1681 3084 1819 3084 
Q 2600 3084 3056 2656 
Q 3513 2228 3513 1497 
Q 3513 744 3044 326 
Q 2575 -91 1722 -91 
Q 1428 -91 1123 -41 
Q 819 9 494 109 
L 494 744 
Q 775 591 1075 516 
Q 1375 441 1709 441 
Q 2250 441 2565 725 
Q 2881 1009 2881 1497 
Q 2881 1984 2565 2268 
Q 2250 2553 1709 2553 
Q 1456 2553 1204 2497 
Q 953 2441 691 2322 
L 691 4666 
z
" transform="scale(0.015625)"/>
       </defs>
       <use xlink:href="#DejaVuSans-38"/>
       <use xlink:href="#DejaVuSans-30" x="63.623047"/>
       <use xlink:href="#DejaVuSans-32" x="127.246094"/>
       <use xlink:href="#DejaVuSans-2e" x="190.869141"/>
       <use xlink:href="#DejaVuSans-35" x="222.65625"/>
      </g>
     </g>
    </g>
    <g id="ytick_2">
     <g id="line2d_2">
      <path d="M 68.85 321.757822 
L 851.04 321.757822 
" clip-path="url(#p8c2f5a6494)" style="fill: none; stroke: #cccccc; stroke-linecap: round"/>
     </g>
     <g id="text_7">
      <!-- 805.0 -->
      <g style="fill: #262626" transform="translate(27.859063 325.936963) scale(0.11 -0.11)">
       <use xlink:href="#DejaVuSans-38"/>
       <use xlink:href="#DejaVuSans-30" x="63.623047"/>
       <use xlink:href="#DejaVuSans-35" x="127.246094"/>
       <use xlink:href="#DejaVuSans-2e" x="190.869141"/>
       <use xlink:href="#DejaVuSans-30" x="222.65625"/>
      </g>
     </g>
    </g>
    <g id="ytick_3">
     <g id="line2d_3">
      <path d="M 68.85 276.06455 
L 851.04 276.06455 
" clip-path="url(#p8c2f5a6494)" style="fill: none; stroke: #cccccc; stroke-linecap: round"/>
     </g>
     <g id="text_8">
      <!-- 807.5 -->
      <g style="fill: #262626" transform="translate(27.859063 280.243691) scale(0.11 -0.11)">
       <use xlink:href="#DejaVuSans-38"/>
       <use xlink:href="#DejaVuSans-30" x="63.623047"/>
       <use xlink:href="#DejaVuSans-37" x="127.246094"/>
       <use xlink:href="#DejaVuSans-2e" x="190.869141"/>
       <use xlink:href="#DejaVuSans-35" x="222.65625"/>
      </g>
     </g>
    </g>
    <g id="ytick_4">
     <g id="line2d_4">
      <path d="M 68.85 230.371278 
L 851.04 230.371278 
" clip-path="url(#p8c2f5a6494)" style="fill: none; stroke: #cccccc; stroke-linecap: round"/>
     </g>
     <g id="text_9">
      <!-- 810.0 -->
      <g style="fill: #262626" transform="translate(27.859063 234.550418) scale(0.11 -0.11)">
       <defs>
        <path id="DejaVuSans-31" d="M 794 531 
L 1825 531 
L 1825 4091 
L 703 3866 
L 703 4441 
L 1819 4666 
L 2450 4666 
L 2450 531 
L 3481 531 
L 3481 0 
L 794 0 
L 794 531 
z
" transform="scale(0.015625)"/>
       </defs>
       <use xlink:href="#DejaVuSans-38"/>
       <use xlink:href="#DejaVuSans-31" x="63.623047"/>
       <use xlink:href="#DejaVuSans-30" x="127.246094"/>
       <use xlink:href="#DejaVuSans-2e" x="190.869141"/>
       <use xlink:href="#DejaVuSans-30" x="222.65625"/>
      </g>
     </g>
    </g>
    <g id="ytick_5">
     <g id="line2d_5">
      <path d="M 68.85 184.678005 
L 851.04 184.678005 
" clip-path="url(#p8c2f5a6494)" style="fill: none; stroke: #cccccc; stroke-linecap: round"/>
     </g>
     <g id="text_10">
      <!-- 812.5 -->
      <g style="fill: #262626" transform="translate(27.859063 188.857146) scale(0.11 -0.11)">
       <use xlink:href="#DejaVuSans-38"/>
       <use xlink:href="#DejaVuSans-31" x="63.623047"/>
       <use xlink:href="#DejaVuSans-32" x="127.246094"/>
       <use xlink:href="#DejaVuSans-2e" x="190.869141"/>
       <use xlink:href="#DejaVuSans-35" x="222.65625"/>
      </g>
     </g>
    </g>
    <g id="ytick_6">
     <g id="line2d_6">
      <path d="M 68.85 138.984733 
L 851.04 138.984733 
" clip-path="url(#p8c2f5a6494)" style="fill: none; stroke: #cccccc; stroke-linecap: round"/>
     </g>
     <g id="text_11">
      <!-- 815.0 -->
      <g style="fill: #262626" transform="translate(27.859063 143.163873) scale(0.11 -0.11)">
       <use xlink:href="#DejaVuSans-38"/>
       <use xlink:href="#DejaVuSans-31" x="63.623047"/>
       <use xlink:href="#DejaVuSans-35" x="127.246094"/>
       <use xlink:href="#DejaVuSans-2e" x="190.869141"/>
       <use xlink:href="#DejaVuSans-30" x="222.65625"/>
      </g>
     </g>
    </g>
    <g id="ytick_7">
     <g id="line2d_7">
      <path d="M 68.85 93.29146 
L 851.04 93.29146 
" clip-path="url(#p8c2f5a6494)" style="fill: none; stroke: #cccccc; stroke-linecap: round"/>
     </g>
     <g id="text_12">
      <!-- 817.5 -->
      <g style="fill: #262626" transform="translate(27.859063 97.470601) scale(0.11 -0.11)">
       <use xlink:href="#DejaVuSans-38"/>
       <use xlink:href="#DejaVuSans-31" x="63.623047"/>
       <use xlink:href="#DejaVuSans-37" x="127.246094"/>
       <use xlink:href="#DejaVuSans-2e" x="190.869141"/>
       <use xlink:href="#DejaVuSans-35" x="222.65625"/>
      </g>
     </g>
    </g>
    <g id="ytick_8">
     <g id="line2d_8">
      <path d="M 68.85 47.598188 
L 851.04 47.598188 
" clip-path="url(#p8c2f5a6494)" style="fill: none; stroke: #cccccc; stroke-linecap: round"/>
     </g>
     <g id="text_13">
      <!-- 820.0 -->
      <g style="fill: #262626" transform="translate(27.859063 51.777329) scale(0.11 -0.11)">
       <use xlink:href="#DejaVuSans-38"/>
       <use xlink:href="#DejaVuSans-32" x="63.623047"/>
       <use xlink:href="#DejaVuSans-30" x="127.246094"/>
       <use xlink:href="#DejaVuSans-2e" x="190.869141"/>
       <use xlink:href="#DejaVuSans-30" x="222.65625"/>
      </g>
     </g>
    </g>
    <g id="text_14">
     <!-- Handshake duration (ms) -->
     <g style="fill: #262626" transform="translate(21.363438 287.437813) rotate(-90) scale(0.12 -0.12)">
      <defs>
       <path id="DejaVuSans-48" d="M 628 4666 
L 1259 4666 
L 1259 2753 
L 3553 2753 
L 3553 4666 
L 4184 4666 
L 4184 0 
L 3553 0 
L 3553 2222 
L 1259 2222 
L 1259 0 
L 628 0 
L 628 4666 
z
" transform="scale(0.015625)"/>
       <path id="DejaVuSans-61" d="M 2194 1759 
Q 1497 1759 1228 1600 
Q 959 1441 959 1056 
Q 959 750 1161 570 
Q 1363 391 1709 391 
Q 2188 391 2477 730 
Q 2766 1069 2766 1631 
L 2766 1759 
L 2194 1759 
z
M 3341 1997 
L 3341 0 
L 2766 0 
L 2766 531 
Q 2569 213 2275 61 
Q 1981 -91 1556 -91 
Q 1019 -91 701 211 
Q 384 513 384 1019 
Q 384 1609 779 1909 
Q 1175 2209 1959 2209 
L 2766 2209 
L 2766 2266 
Q 2766 2663 2505 2880 
Q 2244 3097 1772 3097 
Q 1472 3097 1187 3025 
Q 903 2953 641 2809 
L 641 3341 
Q 956 3463 1253 3523 
Q 1550 3584 1831 3584 
Q 2591 3584 2966 3190 
Q 3341 2797 3341 1997 
z
" transform="scale(0.015625)"/>
       <path id="DejaVuSans-6e" d="M 3513 2113 
L 3513 0 
L 2938 0 
L 2938 2094 
Q 2938 2591 2744 2837 
Q 2550 3084 2163 3084 
Q 1697 3084 1428 2787 
Q 1159 2491 1159 1978 
L 1159 0 
L 581 0 
L 581 3500 
L 1159 3500 
L 1159 2956 
Q 1366 3272 1645 3428 
Q 1925 3584 2291 3584 
Q 2894 3584 3203 3211 
Q 3513 2838 3513 2113 
z
" transform="scale(0.015625)"/>
       <path id="DejaVuSans-64" d="M 2906 2969 
L 2906 4863 
L 3481 4863 
L 3481 0 
L 2906 0 
L 2906 525 
Q 2725 213 2448 61 
Q 2172 -91 1784 -91 
Q 1150 -91 751 415 
Q 353 922 353 1747 
Q 353 2572 751 3078 
Q 1150 3584 1784 3584 
Q 2172 3584 2448 3432 
Q 2725 3281 2906 2969 
z
M 947 1747 
Q 947 1113 1208 752 
Q 1469 391 1925 391 
Q 2381 391 2643 752 
Q 2906 1113 2906 1747 
Q 2906 2381 2643 2742 
Q 2381 3103 1925 3103 
Q 1469 3103 1208 2742 
Q 947 2381 947 1747 
z
" transform="scale(0.015625)"/>
       <path id="DejaVuSans-73" d="M 2834 3397 
L 2834 2853 
Q 2591 2978 2328 3040 
Q 2066 3103 1784 3103 
Q 1356 3103 1142 2972 
Q 928 2841 928 2578 
Q 928 2378 1081 2264 
Q 1234 2150 1697 2047 
L 1894 2003 
Q 2506 1872 2764 1633 
Q 3022 1394 3022 966 
Q 3022 478 2636 193 
Q 2250 -91 1575 -91 
Q 1294 -91 989 -36 
Q 684 19 347 128 
L 347 722 
Q 666 556 975 473 
Q 1284 391 1588 391 
Q 1994 391 2212 530 
Q 2431 669 2431 922 
Q 2431 1156 2273 1281 
Q 2116 1406 1581 1522 
L 1381 1569 
Q 847 1681 609 1914 
Q 372 2147 372 2553 
Q 372 3047 722 3315 
Q 1072 3584 1716 3584 
Q 2034 3584 2315 3537 
Q 2597 3491 2834 3397 
z
" transform="scale(0.015625)"/>
       <path id="DejaVuSans-68" d="M 3513 2113 
L 3513 0 
L 2938 0 
L 2938 2094 
Q 2938 2591 2744 2837 
Q 2550 3084 2163 3084 
Q 1697 3084 1428 2787 
Q 1159 2491 1159 1978 
L 1159 0 
L 581 0 
L 581 4863 
L 1159 4863 
L 1159 2956 
Q 1366 3272 1645 3428 
Q 1925 3584 2291 3584 
Q 2894 3584 3203 3211 
Q 3513 2838 3513 2113 
z
" transform="scale(0.015625)"/>
       <path id="DejaVuSans-20" transform="scale(0.015625)"/>
       <path id="DejaVuSans-75" d="M 544 1381 
L 544 3500 
L 1119 3500 
L 1119 1403 
Q 1119 906 1312 657 
Q 1506 409 1894 409 
Q 2359 409 2629 706 
Q 2900 1003 2900 1516 
L 2900 3500 
L 3475 3500 
L 3475 0 
L 2900 0 
L 2900 538 
Q 2691 219 2414 64 
Q 2138 -91 1772 -91 
Q 1169 -91 856 284 
Q 544 659 544 1381 
z
M 1991 3584 
L 1991 3584 
z
" transform="scale(0.015625)"/>
       <path id="DejaVuSans-72" d="M 2631 2963 
Q 2534 3019 2420 3045 
Q 2306 3072 2169 3072 
Q 1681 3072 1420 2755 
Q 1159 2438 1159 1844 
L 1159 0 
L 581 0 
L 581 3500 
L 1159 3500 
L 1159 2956 
Q 1341 3275 1631 3429 
Q 1922 3584 2338 3584 
Q 2397 3584 2469 3576 
Q 2541 3569 2628 3553 
L 2631 2963 
z
" transform="scale(0.015625)"/>
       <path id="DejaVuSans-74" d="M 1172 4494 
L 1172 3500 
L 2356 3500 
L 2356 3053 
L 1172 3053 
L 1172 1153 
Q 1172 725 1289 603 
Q 1406 481 1766 481 
L 2356 481 
L 2356 0 
L 1766 0 
Q 1100 0 847 248 
Q 594 497 594 1153 
L 594 3053 
L 172 3053 
L 172 3500 
L 594 3500 
L 594 4494 
L 1172 4494 
z
" transform="scale(0.015625)"/>
       <path id="DejaVuSans-69" d="M 603 3500 
L 1178 3500 
L 1178 0 
L 603 0 
L 603 3500 
z
M 603 4863 
L 1178 4863 
L 1178 4134 
L 603 4134 
L 603 4863 
z
" transform="scale(0.015625)"/>
       <path id="DejaVuSans-6f" d="M 1959 3097 
Q 1497 3097 1228 2736 
Q 959 2375 959 1747 
Q 959 1119 1226 758 
Q 1494 397 1959 397 
Q 2419 397 2687 759 
Q 2956 1122 2956 1747 
Q 2956 2369 2687 2733 
Q 2419 3097 1959 3097 
z
M 1959 3584 
Q 2709 3584 3137 3096 
Q 3566 2609 3566 1747 
Q 3566 888 3137 398 
Q 2709 -91 1959 -91 
Q 1206 -91 779 398 
Q 353 888 353 1747 
Q 353 2609 779 3096 
Q 1206 3584 1959 3584 
z
" transform="scale(0.015625)"/>
       <path id="DejaVuSans-28" d="M 1984 4856 
Q 1566 4138 1362 3434 
Q 1159 2731 1159 2009 
Q 1159 1288 1364 580 
Q 1569 -128 1984 -844 
L 1484 -844 
Q 1016 -109 783 600 
Q 550 1309 550 2009 
Q 550 2706 781 3412 
Q 1013 4119 1484 4856 
L 1984 4856 
z
" transform="scale(0.015625)"/>
       <path id="DejaVuSans-29" d="M 513 4856 
L 1013 4856 
Q 1481 4119 1714 3412 
Q 1947 2706 1947 2009 
Q 1947 1309 1714 600 
Q 1481 -109 1013 -844 
L 513 -844 
Q 928 -128 1133 580 
Q 1338 1288 1338 2009 
Q 1338 2731 1133 3434 
Q 928 4138 513 4856 
z
" transform="scale(0.015625)"/>
      </defs>
      <use xlink:href="#DejaVuSans-48"/>
      <use xlink:href="#DejaVuSans-61" x="75.195312"/>
      <use xlink:href="#DejaVuSans-6e" x="136.474609"/>
      <use xlink:href="#DejaVuSans-64" x="199.853516"/>
      <use xlink:href="#DejaVuSans-73" x="263.330078"/>
      <use xlink:href="#DejaVuSans-68" x="315.429688"/>
      <use xlink:href="#DejaVuSans-61" x="378.808594"/>
      <use xlink:href="#DejaVuSans-6b" x="440.087891"/>
      <use xlink:href="#DejaVuSans-65" x="494.373047"/>
      <use xlink:href="#DejaVuSans-20" x="555.896484"/>
      <use xlink:href="#DejaVuSans-64" x="587.683594"/>
      <use xlink:href="#DejaVuSans-75" x="651.160156"/>
      <use xlink:href="#DejaVuSans-72" x="714.539062"/>
      <use xlink:href="#DejaVuSans-61" x="755.652344"/>
      <use xlink:href="#DejaVuSans-74" x="816.931641"/>
      <use xlink:href="#DejaVuSans-69" x="856.140625"/>
      <use xlink:href="#DejaVuSans-6f" x="883.923828"/>
      <use xlink:href="#DejaVuSans-6e" x="945.105469"/>
      <use xlink:href="#DejaVuSans-20" x="1008.484375"/>
      <use xlink:href="#DejaVuSans-28" x="1040.271484"/>
      <use xlink:href="#DejaVuSans-6d" x="1079.285156"/>
      <use xlink:href="#DejaVuSans-73" x="1176.697266"/>
      <use xlink:href="#DejaVuSans-29" x="1228.796875"/>
     </g>
    </g>
   </g>
   <g id="PolyCollection_1">
    <defs>
     <path id="m222c8afde9" d="M 147.832061 -91.230827 
L 146.305939 -91.230827 
L 145.448351 -92.067212 
L 143.885362 -92.903597 
L 141.273974 -93.739982 
L 137.274381 -94.576367 
L 131.66114 -95.412752 
L 124.450736 -96.249137 
L 115.995975 -97.085522 
L 106.997167 -97.921907 
L 98.407521 -98.758292 
L 91.253286 -99.594677 
L 86.42376 -100.431061 
L 84.4938 -101.267446 
L 85.622884 -102.103831 
L 89.545865 -102.940216 
L 95.647218 -103.776601 
L 103.096629 -104.612986 
L 111.014657 -105.449371 
L 118.630555 -106.285756 
L 125.394645 -107.122141 
L 131.020779 -107.958526 
L 135.458349 -108.794911 
L 138.817342 -109.631296 
L 141.281796 -110.467681 
L 143.041657 -111.304066 
L 144.255971 -112.14045 
L 145.0426 -112.976835 
L 145.480839 -113.81322 
L 145.61571 -114.649605 
L 145.461603 -115.48599 
L 145.01051 -116.322375 
L 144.250793 -117.15876 
L 143.196165 -117.995145 
L 141.915576 -118.83153 
L 140.549121 -119.667915 
L 139.296887 -120.5043 
L 138.377694 -121.340685 
L 137.969092 -122.17707 
L 138.151689 -123.013455 
L 138.882365 -123.849839 
L 140.009364 -124.686224 
L 141.322852 -125.522609 
L 142.618538 -126.358994 
L 143.748345 -127.195379 
L 144.641905 -128.031764 
L 145.298217 -128.868149 
L 145.758817 -129.704534 
L 146.077297 -130.540919 
L 146.296413 -131.377304 
L 146.437559 -132.213689 
L 146.502012 -133.050074 
L 146.480315 -133.886459 
L 146.365244 -134.722844 
L 146.163879 -135.559228 
L 145.904643 -136.395613 
L 145.636126 -137.231998 
L 145.416828 -138.068383 
L 145.298688 -138.904768 
L 145.31087 -139.741153 
L 145.45105 -140.577538 
L 145.688122 -141.413923 
L 145.974598 -142.250308 
L 146.262444 -143.086693 
L 146.515552 -143.923078 
L 146.715086 -144.759463 
L 146.85801 -145.595848 
L 146.951768 -146.432233 
L 147.008349 -147.268617 
L 147.039829 -148.105002 
L 147.055982 -148.941387 
L 147.063622 -149.777772 
L 147.066948 -150.614157 
L 147.068278 -151.450542 
L 147.068767 -152.286927 
L 147.068931 -153.123312 
L 147.068981 -153.959697 
L 147.068995 -154.796082 
L 147.068996 -155.632467 
L 147.068986 -156.468852 
L 147.068951 -157.305237 
L 147.068837 -158.141622 
L 147.068506 -158.978006 
L 147.067635 -159.814391 
L 147.065561 -160.650776 
L 147.061105 -161.487161 
L 147.052481 -162.323546 
L 147.037506 -163.159931 
L 147.014288 -163.996316 
L 146.98239 -164.832701 
L 146.944068 -165.669086 
L 146.904787 -166.505471 
L 146.872319 -167.341856 
L 146.854345 -168.178241 
L 146.855526 -169.014626 
L 146.875548 -169.851011 
L 146.909256 -170.687395 
L 146.948801 -171.52378 
L 146.986586 -172.360165 
L 147.01751 -173.19655 
L 147.039686 -174.032935 
L 147.098314 -174.032935 
L 147.098314 -174.032935 
L 147.12049 -173.19655 
L 147.151414 -172.360165 
L 147.189199 -171.52378 
L 147.228744 -170.687395 
L 147.262452 -169.851011 
L 147.282474 -169.014626 
L 147.283655 -168.178241 
L 147.265681 -167.341856 
L 147.233213 -166.505471 
L 147.193932 -165.669086 
L 147.15561 -164.832701 
L 147.123712 -163.996316 
L 147.100494 -163.159931 
L 147.085519 -162.323546 
L 147.076895 -161.487161 
L 147.072439 -160.650776 
L 147.070365 -159.814391 
L 147.069494 -158.978006 
L 147.069163 -158.141622 
L 147.069049 -157.305237 
L 147.069014 -156.468852 
L 147.069004 -155.632467 
L 147.069005 -154.796082 
L 147.069019 -153.959697 
L 147.069069 -153.123312 
L 147.069233 -152.286927 
L 147.069722 -151.450542 
L 147.071052 -150.614157 
L 147.074378 -149.777772 
L 147.082018 -148.941387 
L 147.098171 -148.105002 
L 147.129651 -147.268617 
L 147.186232 -146.432233 
L 147.27999 -145.595848 
L 147.422914 -144.759463 
L 147.622448 -143.923078 
L 147.875556 -143.086693 
L 148.163402 -142.250308 
L 148.449878 -141.413923 
L 148.68695 -140.577538 
L 148.82713 -139.741153 
L 148.839312 -138.904768 
L 148.721172 -138.068383 
L 148.501874 -137.231998 
L 148.233357 -136.395613 
L 147.974121 -135.559228 
L 147.772756 -134.722844 
L 147.657685 -133.886459 
L 147.635988 -133.050074 
L 147.700441 -132.213689 
L 147.841587 -131.377304 
L 148.060703 -130.540919 
L 148.379183 -129.704534 
L 148.839783 -128.868149 
L 149.496095 -128.031764 
L 150.389655 -127.195379 
L 151.519462 -126.358994 
L 152.815148 -125.522609 
L 154.128636 -124.686224 
L 155.255635 -123.849839 
L 155.986311 -123.013455 
L 156.168908 -122.17707 
L 155.760306 -121.340685 
L 154.841113 -120.5043 
L 153.588879 -119.667915 
L 152.222424 -118.83153 
L 150.941835 -117.995145 
L 149.887207 -117.15876 
L 149.12749 -116.322375 
L 148.676397 -115.48599 
L 148.52229 -114.649605 
L 148.657161 -113.81322 
L 149.0954 -112.976835 
L 149.882029 -112.14045 
L 151.096343 -111.304066 
L 152.856204 -110.467681 
L 155.320658 -109.631296 
L 158.679651 -108.794911 
L 163.117221 -107.958526 
L 168.743355 -107.122141 
L 175.507445 -106.285756 
L 183.123343 -105.449371 
L 191.041371 -104.612986 
L 198.490782 -103.776601 
L 204.592135 -102.940216 
L 208.515116 -102.103831 
L 209.6442 -101.267446 
L 207.71424 -100.431061 
L 202.884714 -99.594677 
L 195.730479 -98.758292 
L 187.140833 -97.921907 
L 178.142025 -97.085522 
L 169.687264 -96.249137 
L 162.47686 -95.412752 
L 156.863619 -94.576367 
L 152.864026 -93.739982 
L 150.252638 -92.903597 
L 148.689649 -92.067212 
L 147.832061 -91.230827 
z
" style="stroke: #595959; stroke-width: 1.25"/>
    </defs>
    <g clip-path="url(#p8c2f5a6494)">
     <use xlink:href="#m222c8afde9" x="0" y="432" style="fill: #72b6a1; stroke: #595959; stroke-width: 1.25"/>
    </g>
   </g>
   <g id="PolyCollection_2">
    <defs>
     <path id="m991f0388f3" d="M 303.638168 -67.728961 
L 303.375832 -67.728961 
L 303.170298 -68.464119 
L 302.717964 -69.199277 
L 301.812 -69.934435 
L 300.156746 -70.669593 
L 297.393363 -71.404751 
L 293.174235 -72.139909 
L 287.283729 -72.875067 
L 279.774987 -73.610225 
L 271.066463 -74.345383 
L 261.938699 -75.080541 
L 253.409021 -75.815699 
L 246.527237 -76.550857 
L 242.17619 -77.286015 
L 240.9318 -78.021173 
L 242.972004 -78.75633 
L 248.010961 -79.491488 
L 255.293423 -80.226646 
L 263.720259 -80.961804 
L 272.110661 -81.696962 
L 279.495786 -82.43212 
L 285.303723 -83.167278 
L 289.370116 -83.902436 
L 291.817052 -84.637594 
L 292.901893 -85.372752 
L 292.923385 -86.10791 
L 292.208026 -86.843068 
L 291.132248 -87.578226 
L 290.114035 -88.313384 
L 289.545026 -89.048542 
L 289.692777 -89.783699 
L 290.630327 -90.518857 
L 292.231384 -91.254015 
L 294.229927 -91.989173 
L 296.313268 -92.724331 
L 298.209176 -93.459489 
L 299.738454 -94.194647 
L 300.826996 -94.929805 
L 301.49163 -95.664963 
L 301.817211 -96.400121 
L 301.929751 -97.135279 
L 301.961923 -97.870437 
L 302.015838 -98.605595 
L 302.140133 -99.340753 
L 302.333414 -100.075911 
L 302.566623 -100.811069 
L 302.805619 -101.546226 
L 303.022802 -102.281384 
L 303.19996 -103.016542 
L 303.32839 -103.7517 
L 303.407969 -104.486858 
L 303.444127 -105.222016 
L 303.44373 -105.957174 
L 303.413121 -106.692332 
L 303.360002 -107.42749 
L 303.29663 -108.162648 
L 303.239354 -108.897806 
L 303.202175 -109.632964 
L 303.188551 -110.368122 
L 303.189487 -111.10328 
L 303.19157 -111.838438 
L 303.189002 -112.573596 
L 303.188754 -113.308753 
L 303.203885 -114.043911 
L 303.241011 -114.779069 
L 303.292827 -115.514227 
L 303.341117 -116.249385 
L 303.366747 -116.984543 
L 303.359504 -117.719701 
L 303.323176 -118.454859 
L 303.274629 -119.190017 
L 303.23706 -119.925175 
L 303.229422 -120.660333 
L 303.257304 -121.395491 
L 303.311194 -122.130649 
L 303.373282 -122.865807 
L 303.427499 -123.600965 
L 303.465853 -124.336123 
L 303.488461 -125.07128 
L 303.499729 -125.806438 
L 303.504517 -126.541596 
L 303.506258 -127.276754 
L 303.506786 -128.011912 
L 303.506847 -128.74707 
L 303.506543 -129.482228 
L 303.505409 -130.217386 
L 303.502092 -130.952544 
L 303.493806 -131.687702 
L 303.476128 -132.42286 
L 303.444117 -133.158018 
L 303.395502 -133.893176 
L 303.334905 -134.628334 
L 303.275772 -135.363492 
L 303.236555 -136.09865 
L 303.231651 -136.833807 
L 303.262962 -137.568965 
L 303.318722 -138.304123 
L 303.380553 -139.039281 
L 303.433076 -139.774439 
L 303.469379 -140.509597 
L 303.544621 -140.509597 
L 303.544621 -140.509597 
L 303.580924 -139.774439 
L 303.633447 -139.039281 
L 303.695278 -138.304123 
L 303.751038 -137.568965 
L 303.782349 -136.833807 
L 303.777445 -136.09865 
L 303.738228 -135.363492 
L 303.679095 -134.628334 
L 303.618498 -133.893176 
L 303.569883 -133.158018 
L 303.537872 -132.42286 
L 303.520194 -131.687702 
L 303.511908 -130.952544 
L 303.508591 -130.217386 
L 303.507457 -129.482228 
L 303.507153 -128.74707 
L 303.507214 -128.011912 
L 303.507742 -127.276754 
L 303.509483 -126.541596 
L 303.514271 -125.806438 
L 303.525539 -125.07128 
L 303.548147 -124.336123 
L 303.586501 -123.600965 
L 303.640718 -122.865807 
L 303.702806 -122.130649 
L 303.756696 -121.395491 
L 303.784578 -120.660333 
L 303.77694 -119.925175 
L 303.739371 -119.190017 
L 303.690824 -118.454859 
L 303.654496 -117.719701 
L 303.647253 -116.984543 
L 303.672883 -116.249385 
L 303.721173 -115.514227 
L 303.772989 -114.779069 
L 303.810115 -114.043911 
L 303.825246 -113.308753 
L 303.824998 -112.573596 
L 303.82243 -111.838438 
L 303.824513 -111.10328 
L 303.825449 -110.368122 
L 303.811825 -109.632964 
L 303.774646 -108.897806 
L 303.71737 -108.162648 
L 303.653998 -107.42749 
L 303.600879 -106.692332 
L 303.57027 -105.957174 
L 303.569873 -105.222016 
L 303.606031 -104.486858 
L 303.68561 -103.7517 
L 303.81404 -103.016542 
L 303.991198 -102.281384 
L 304.208381 -101.546226 
L 304.447377 -100.811069 
L 304.680586 -100.075911 
L 304.873867 -99.340753 
L 304.998162 -98.605595 
L 305.052077 -97.870437 
L 305.084249 -97.135279 
L 305.196789 -96.400121 
L 305.52237 -95.664963 
L 306.187004 -94.929805 
L 307.275546 -94.194647 
L 308.804824 -93.459489 
L 310.700732 -92.724331 
L 312.784073 -91.989173 
L 314.782616 -91.254015 
L 316.383673 -90.518857 
L 317.321223 -89.783699 
L 317.468974 -89.048542 
L 316.899965 -88.313384 
L 315.881752 -87.578226 
L 314.805974 -86.843068 
L 314.090615 -86.10791 
L 314.112107 -85.372752 
L 315.196948 -84.637594 
L 317.643884 -83.902436 
L 321.710277 -83.167278 
L 327.518214 -82.43212 
L 334.903339 -81.696962 
L 343.293741 -80.961804 
L 351.720577 -80.226646 
L 359.003039 -79.491488 
L 364.041996 -78.75633 
L 366.0822 -78.021173 
L 364.83781 -77.286015 
L 360.486763 -76.550857 
L 353.604979 -75.815699 
L 345.075301 -75.080541 
L 335.947537 -74.345383 
L 327.239013 -73.610225 
L 319.730271 -72.875067 
L 313.839765 -72.139909 
L 309.620637 -71.404751 
L 306.857254 -70.669593 
L 305.202 -69.934435 
L 304.296036 -69.199277 
L 303.843702 -68.464119 
L 303.638168 -67.728961 
z
" style="stroke: #595959; stroke-width: 1.25"/>
    </defs>
    <g clip-path="url(#p8c2f5a6494)">
     <use xlink:href="#m991f0388f3" x="0" y="432" style="fill: #e99675; stroke: #595959; stroke-width: 1.25"/>
    </g>
   </g>
   <g id="PolyCollection_3">
    <defs>
     <path id="meba3ec2217" d="M 462.442011 -200.164629 
L 457.447989 -200.164629 
L 456.227651 -202.058861 
L 454.556902 -203.953094 
L 452.340785 -205.847326 
L 449.49488 -207.741559 
L 445.9597 -209.635791 
L 441.716668 -211.530023 
L 436.803369 -213.424256 
L 431.325115 -215.318488 
L 425.459772 -217.21272 
L 419.45335 -219.106953 
L 413.60511 -221.001185 
L 408.242789 -222.895418 
L 403.690539 -224.78965 
L 400.233946 -226.683882 
L 398.087495 -228.578115 
L 397.3698 -230.472347 
L 398.090765 -232.36658 
L 400.152736 -234.260812 
L 403.365215 -236.155044 
L 407.470315 -238.049277 
L 412.174421 -239.943509 
L 417.180837 -241.837742 
L 422.218572 -243.731974 
L 427.063677 -245.626206 
L 431.55132 -247.520439 
L 435.578599 -249.414671 
L 439.09956 -251.308904 
L 442.11483 -253.203136 
L 444.658541 -255.097368 
L 446.784998 -256.991601 
L 448.556915 -258.885833 
L 450.036336 -260.780066 
L 451.278628 -262.674298 
L 452.329399 -264.56853 
L 453.223809 -266.462763 
L 453.987591 -268.356995 
L 454.63909 -270.251228 
L 455.19167 -272.14546 
L 455.656034 -274.039692 
L 456.04208 -275.933925 
L 456.360146 -277.828157 
L 456.621552 -279.72239 
L 456.838499 -281.616622 
L 457.023443 -283.510854 
L 457.188115 -285.405087 
L 457.342377 -287.299319 
L 457.493095 -289.193552 
L 457.643197 -291.087784 
L 457.79102 -292.982016 
L 457.930036 -294.876249 
L 458.048985 -296.770481 
L 458.132448 -298.664714 
L 458.161853 -300.558946 
L 458.116932 -302.453178 
L 457.977614 -304.347411 
L 457.726303 -306.241643 
L 457.350447 -308.135876 
L 456.845157 -310.030108 
L 456.215577 -311.92434 
L 455.478577 -313.818573 
L 454.663339 -315.712805 
L 453.810454 -317.607038 
L 452.969351 -319.50127 
L 452.194142 -321.395502 
L 451.538258 -323.289735 
L 451.048593 -325.183967 
L 450.759996 -327.0782 
L 450.690995 -328.972432 
L 450.841493 -330.866664 
L 451.192807 -332.760897 
L 451.710078 -334.655129 
L 452.346637 -336.549362 
L 453.049635 -338.443594 
L 453.766074 -340.337826 
L 454.448394 -342.232059 
L 455.058915 -344.126291 
L 455.572684 -346.020524 
L 455.978557 -347.914756 
L 456.278576 -349.808988 
L 456.485941 -351.703221 
L 456.621956 -353.597453 
L 456.712431 -355.491686 
L 456.784011 -357.385918 
L 456.860862 -359.28015 
L 456.962065 -361.174383 
L 457.099967 -363.068615 
L 457.279587 -364.962848 
L 457.499037 -366.85708 
L 457.750774 -368.751312 
L 458.023415 -370.645545 
L 458.303767 -372.539777 
L 458.578763 -374.43401 
L 458.837036 -376.328242 
L 459.069961 -378.222474 
L 459.272133 -380.116707 
L 459.44132 -382.010939 
L 459.578014 -383.905172 
L 459.684763 -385.799404 
L 459.765411 -387.693636 
L 460.124589 -387.693636 
L 460.124589 -387.693636 
L 460.205237 -385.799404 
L 460.311986 -383.905172 
L 460.44868 -382.010939 
L 460.617867 -380.116707 
L 460.820039 -378.222474 
L 461.052964 -376.328242 
L 461.311237 -374.43401 
L 461.586233 -372.539777 
L 461.866585 -370.645545 
L 462.139226 -368.751312 
L 462.390963 -366.85708 
L 462.610413 -364.962848 
L 462.790033 -363.068615 
L 462.927935 -361.174383 
L 463.029138 -359.28015 
L 463.105989 -357.385918 
L 463.177569 -355.491686 
L 463.268044 -353.597453 
L 463.404059 -351.703221 
L 463.611424 -349.808988 
L 463.911443 -347.914756 
L 464.317316 -346.020524 
L 464.831085 -344.126291 
L 465.441606 -342.232059 
L 466.123926 -340.337826 
L 466.840365 -338.443594 
L 467.543363 -336.549362 
L 468.179922 -334.655129 
L 468.697193 -332.760897 
L 469.048507 -330.866664 
L 469.199005 -328.972432 
L 469.130004 -327.0782 
L 468.841407 -325.183967 
L 468.351742 -323.289735 
L 467.695858 -321.395502 
L 466.920649 -319.50127 
L 466.079546 -317.607038 
L 465.226661 -315.712805 
L 464.411423 -313.818573 
L 463.674423 -311.92434 
L 463.044843 -310.030108 
L 462.539553 -308.135876 
L 462.163697 -306.241643 
L 461.912386 -304.347411 
L 461.773068 -302.453178 
L 461.728147 -300.558946 
L 461.757552 -298.664714 
L 461.841015 -296.770481 
L 461.959964 -294.876249 
L 462.09898 -292.982016 
L 462.246803 -291.087784 
L 462.396905 -289.193552 
L 462.547623 -287.299319 
L 462.701885 -285.405087 
L 462.866557 -283.510854 
L 463.051501 -281.616622 
L 463.268448 -279.72239 
L 463.529854 -277.828157 
L 463.84792 -275.933925 
L 464.233966 -274.039692 
L 464.69833 -272.14546 
L 465.25091 -270.251228 
L 465.902409 -268.356995 
L 466.666191 -266.462763 
L 467.560601 -264.56853 
L 468.611372 -262.674298 
L 469.853664 -260.780066 
L 471.333085 -258.885833 
L 473.105002 -256.991601 
L 475.231459 -255.097368 
L 477.77517 -253.203136 
L 480.79044 -251.308904 
L 484.311401 -249.414671 
L 488.33868 -247.520439 
L 492.826323 -245.626206 
L 497.671428 -243.731974 
L 502.709163 -241.837742 
L 507.715579 -239.943509 
L 512.419685 -238.049277 
L 516.524785 -236.155044 
L 519.737264 -234.260812 
L 521.799235 -232.36658 
L 522.5202 -230.472347 
L 521.802505 -228.578115 
L 519.656054 -226.683882 
L 516.199461 -224.78965 
L 511.647211 -222.895418 
L 506.28489 -221.001185 
L 500.43665 -219.106953 
L 494.430228 -217.21272 
L 488.564885 -215.318488 
L 483.086631 -213.424256 
L 478.173332 -211.530023 
L 473.9303 -209.635791 
L 470.39512 -207.741559 
L 467.549215 -205.847326 
L 465.333098 -203.953094 
L 463.662349 -202.058861 
L 462.442011 -200.164629 
z
" style="stroke: #595959; stroke-width: 1.25"/>
    </defs>
    <g clip-path="url(#p8c2f5a6494)">
     <use xlink:href="#meba3ec2217" x="0" y="432" style="fill: #95a3c3; stroke: #595959; stroke-width: 1.25"/>
    </g>
   </g>
   <g id="PolyCollection_4">
    <defs>
     <path id="m40bd1544f3" d="M 617.090104 -100.313534 
L 615.675896 -100.313534 
L 615.148363 -101.069816 
L 614.311272 -101.826099 
L 613.040699 -102.582382 
L 611.196402 -103.338664 
L 608.637065 -104.094947 
L 605.243238 -104.85123 
L 600.945657 -105.607513 
L 595.754191 -106.363795 
L 589.780905 -107.120078 
L 583.250528 -107.876361 
L 576.493329 -108.632643 
L 569.918893 -109.388926 
L 563.973524 -110.145209 
L 559.087872 -110.901492 
L 555.623679 -111.657774 
L 553.828787 -112.414057 
L 553.8078 -113.17034 
L 555.512701 -113.926622 
L 558.754101 -114.682905 
L 563.230271 -115.439188 
L 568.568408 -116.195471 
L 574.370934 -116.951753 
L 580.259376 -117.708036 
L 585.909545 -118.464319 
L 591.073965 -119.220601 
L 595.590386 -119.976884 
L 599.377953 -120.733167 
L 602.424527 -121.489449 
L 604.769527 -122.245732 
L 606.486323 -123.002015 
L 607.667074 -123.758298 
L 608.411379 -124.51458 
L 608.818736 -125.270863 
L 608.983826 -126.027146 
L 608.993326 -126.783428 
L 608.923181 -127.539711 
L 608.83585 -128.295994 
L 608.777641 -129.052277 
L 608.776685 -129.808559 
L 608.842217 -130.564842 
L 608.965628 -131.321125 
L 609.123513 -132.077407 
L 609.282584 -132.83369 
L 609.406121 -133.589973 
L 609.461349 -134.346256 
L 609.426809 -135.102538 
L 609.298478 -135.858821 
L 609.0932 -136.615104 
L 608.848184 -137.371386 
L 608.616006 -138.127669 
L 608.455637 -138.883952 
L 608.421218 -139.640234 
L 608.55108 -140.396517 
L 608.859659 -141.1528 
L 609.33423 -141.909083 
L 609.937156 -142.665365 
L 610.612912 -143.421648 
L 611.298084 -144.177931 
L 611.932044 -144.934213 
L 612.466177 -145.690496 
L 612.870156 -146.446779 
L 613.134548 -147.203062 
L 613.269828 -147.959344 
L 613.3024 -148.715627 
L 613.268598 -149.47191 
L 613.207842 -150.228192 
L 613.156149 -150.984475 
L 613.141087 -151.740758 
L 613.178937 -152.497041 
L 613.274373 -153.253323 
L 613.422369 -154.009606 
L 613.611577 -154.765889 
L 613.828149 -155.522171 
L 614.058998 -156.278454 
L 614.293854 -157.034737 
L 614.52587 -157.791019 
L 614.751038 -158.547302 
L 614.966937 -159.303585 
L 615.171418 -160.059868 
L 615.361732 -160.81615 
L 615.534352 -161.572433 
L 615.685457 -162.328716 
L 615.811838 -163.084998 
L 615.911867 -163.841281 
L 615.986172 -164.597564 
L 616.037796 -165.353847 
L 616.071776 -166.110129 
L 616.094253 -166.866412 
L 616.111373 -167.622695 
L 616.128246 -168.378977 
L 616.148229 -169.13526 
L 616.172671 -169.891543 
L 616.201119 -170.647826 
L 616.231869 -171.404108 
L 616.26266 -172.160391 
L 616.291327 -172.916674 
L 616.316253 -173.672956 
L 616.336578 -174.429239 
L 616.35217 -175.185522 
L 616.41383 -175.185522 
L 616.41383 -175.185522 
L 616.429422 -174.429239 
L 616.449747 -173.672956 
L 616.474673 -172.916674 
L 616.50334 -172.160391 
L 616.534131 -171.404108 
L 616.564881 -170.647826 
L 616.593329 -169.891543 
L 616.617771 -169.13526 
L 616.637754 -168.378977 
L 616.654627 -167.622695 
L 616.671747 -166.866412 
L 616.694224 -166.110129 
L 616.728204 -165.353847 
L 616.779828 -164.597564 
L 616.854133 -163.841281 
L 616.954162 -163.084998 
L 617.080543 -162.328716 
L 617.231648 -161.572433 
L 617.404268 -160.81615 
L 617.594582 -160.059868 
L 617.799063 -159.303585 
L 618.014962 -158.547302 
L 618.24013 -157.791019 
L 618.472146 -157.034737 
L 618.707002 -156.278454 
L 618.937851 -155.522171 
L 619.154423 -154.765889 
L 619.343631 -154.009606 
L 619.491627 -153.253323 
L 619.587063 -152.497041 
L 619.624913 -151.740758 
L 619.609851 -150.984475 
L 619.558158 -150.228192 
L 619.497402 -149.47191 
L 619.4636 -148.715627 
L 619.496172 -147.959344 
L 619.631452 -147.203062 
L 619.895844 -146.446779 
L 620.299823 -145.690496 
L 620.833956 -144.934213 
L 621.467916 -144.177931 
L 622.153088 -143.421648 
L 622.828844 -142.665365 
L 623.43177 -141.909083 
L 623.906341 -141.1528 
L 624.21492 -140.396517 
L 624.344782 -139.640234 
L 624.310363 -138.883952 
L 624.149994 -138.127669 
L 623.917816 -137.371386 
L 623.6728 -136.615104 
L 623.467522 -135.858821 
L 623.339191 -135.102538 
L 623.304651 -134.346256 
L 623.359879 -133.589973 
L 623.483416 -132.83369 
L 623.642487 -132.077407 
L 623.800372 -131.321125 
L 623.923783 -130.564842 
L 623.989315 -129.808559 
L 623.988359 -129.052277 
L 623.93015 -128.295994 
L 623.842819 -127.539711 
L 623.772674 -126.783428 
L 623.782174 -126.027146 
L 623.947264 -125.270863 
L 624.354621 -124.51458 
L 625.098926 -123.758298 
L 626.279677 -123.002015 
L 627.996473 -122.245732 
L 630.341473 -121.489449 
L 633.388047 -120.733167 
L 637.175614 -119.976884 
L 641.692035 -119.220601 
L 646.856455 -118.464319 
L 652.506624 -117.708036 
L 658.395066 -116.951753 
L 664.197592 -116.195471 
L 669.535729 -115.439188 
L 674.011899 -114.682905 
L 677.253299 -113.926622 
L 678.9582 -113.17034 
L 678.937213 -112.414057 
L 677.142321 -111.657774 
L 673.678128 -110.901492 
L 668.792476 -110.145209 
L 662.847107 -109.388926 
L 656.272671 -108.632643 
L 649.515472 -107.876361 
L 642.985095 -107.120078 
L 637.011809 -106.363795 
L 631.820343 -105.607513 
L 627.522762 -104.85123 
L 624.128935 -104.094947 
L 621.569598 -103.338664 
L 619.725301 -102.582382 
L 618.454728 -101.826099 
L 617.617637 -101.069816 
L 617.090104 -100.313534 
z
" style="stroke: #595959; stroke-width: 1.25"/>
    </defs>
    <g clip-path="url(#p8c2f5a6494)">
     <use xlink:href="#m40bd1544f3" x="0" y="432" style="fill: #db96c0; stroke: #595959; stroke-width: 1.25"/>
    </g>
   </g>
   <g id="PolyCollection_5">
    <defs>
     <path id="m5ce3f93989" d="M 773.023766 -53.566364 
L 772.618234 -53.566364 
L 771.706708 -55.196878 
L 768.432287 -56.827393 
L 760.206463 -58.457908 
L 745.721104 -60.088422 
L 728.091877 -61.718937 
L 714.392384 -63.349452 
L 710.2458 -64.979966 
L 715.331759 -66.610481 
L 725.264025 -68.240996 
L 736.264333 -69.87151 
L 746.685321 -71.502025 
L 755.727857 -73.132539 
L 762.600091 -74.763054 
L 767.036055 -76.393569 
L 769.533433 -78.024083 
L 770.845755 -79.654598 
L 771.550421 -81.285113 
L 771.905054 -82.915627 
L 772.016967 -84.546142 
L 772.032609 -86.176657 
L 772.12359 -87.807171 
L 772.351124 -89.437686 
L 772.602049 -91.068201 
L 772.753794 -92.698715 
L 772.807727 -94.32923 
L 772.819332 -95.959745 
L 772.820867 -97.590259 
L 772.820993 -99.220774 
L 772.821 -100.851289 
L 772.821 -102.481803 
L 772.821 -104.112318 
L 772.821 -105.742833 
L 772.821 -107.373347 
L 772.821 -109.003862 
L 772.821 -110.634377 
L 772.821 -112.264891 
L 772.821 -113.895406 
L 772.821 -115.525921 
L 772.821 -117.156435 
L 772.821 -118.78695 
L 772.821 -120.417464 
L 772.821 -122.047979 
L 772.821 -123.678494 
L 772.821 -125.309008 
L 772.821 -126.939523 
L 772.821 -128.570038 
L 772.821 -130.200552 
L 772.821 -131.831067 
L 772.821 -133.461582 
L 772.821 -135.092096 
L 772.821 -136.722611 
L 772.821 -138.353126 
L 772.821 -139.98364 
L 772.821 -141.614155 
L 772.821 -143.24467 
L 772.821 -144.875184 
L 772.821 -146.505699 
L 772.821 -148.136214 
L 772.821 -149.766728 
L 772.821 -151.397243 
L 772.821 -153.027758 
L 772.821 -154.658272 
L 772.821 -156.288787 
L 772.821 -157.919302 
L 772.821 -159.549816 
L 772.821 -161.180331 
L 772.821 -162.810845 
L 772.821 -164.44136 
L 772.821 -166.071875 
L 772.821 -167.702389 
L 772.821 -169.332904 
L 772.821 -170.963419 
L 772.821 -172.593933 
L 772.821 -174.224448 
L 772.821 -175.854963 
L 772.821 -177.485477 
L 772.821 -179.115992 
L 772.821 -180.746507 
L 772.821 -182.377021 
L 772.821 -184.007536 
L 772.821 -185.638051 
L 772.821 -187.268565 
L 772.821 -188.89908 
L 772.821 -190.529595 
L 772.821 -192.160109 
L 772.821 -193.790624 
L 772.821 -195.421139 
L 772.821 -197.051653 
L 772.820998 -198.682168 
L 772.820955 -200.312683 
L 772.820394 -201.943197 
L 772.815848 -203.573712 
L 772.793568 -205.204226 
L 772.729495 -206.834741 
L 772.629795 -208.465256 
L 772.570721 -210.09577 
L 772.615781 -211.726285 
L 772.71559 -213.3568 
L 772.787083 -214.987314 
L 772.854917 -214.987314 
L 772.854917 -214.987314 
L 772.92641 -213.3568 
L 773.026219 -211.726285 
L 773.071279 -210.09577 
L 773.012205 -208.465256 
L 772.912505 -206.834741 
L 772.848432 -205.204226 
L 772.826152 -203.573712 
L 772.821606 -201.943197 
L 772.821045 -200.312683 
L 772.821002 -198.682168 
L 772.821 -197.051653 
L 772.821 -195.421139 
L 772.821 -193.790624 
L 772.821 -192.160109 
L 772.821 -190.529595 
L 772.821 -188.89908 
L 772.821 -187.268565 
L 772.821 -185.638051 
L 772.821 -184.007536 
L 772.821 -182.377021 
L 772.821 -180.746507 
L 772.821 -179.115992 
L 772.821 -177.485477 
L 772.821 -175.854963 
L 772.821 -174.224448 
L 772.821 -172.593933 
L 772.821 -170.963419 
L 772.821 -169.332904 
L 772.821 -167.702389 
L 772.821 -166.071875 
L 772.821 -164.44136 
L 772.821 -162.810845 
L 772.821 -161.180331 
L 772.821 -159.549816 
L 772.821 -157.919302 
L 772.821 -156.288787 
L 772.821 -154.658272 
L 772.821 -153.027758 
L 772.821 -151.397243 
L 772.821 -149.766728 
L 772.821 -148.136214 
L 772.821 -146.505699 
L 772.821 -144.875184 
L 772.821 -143.24467 
L 772.821 -141.614155 
L 772.821 -139.98364 
L 772.821 -138.353126 
L 772.821 -136.722611 
L 772.821 -135.092096 
L 772.821 -133.461582 
L 772.821 -131.831067 
L 772.821 -130.200552 
L 772.821 -128.570038 
L 772.821 -126.939523 
L 772.821 -125.309008 
L 772.821 -123.678494 
L 772.821 -122.047979 
L 772.821 -120.417464 
L 772.821 -118.78695 
L 772.821 -117.156435 
L 772.821 -115.525921 
L 772.821 -113.895406 
L 772.821 -112.264891 
L 772.821 -110.634377 
L 772.821 -109.003862 
L 772.821 -107.373347 
L 772.821 -105.742833 
L 772.821 -104.112318 
L 772.821 -102.481803 
L 772.821 -100.851289 
L 772.821007 -99.220774 
L 772.821133 -97.590259 
L 772.822668 -95.959745 
L 772.834273 -94.32923 
L 772.888206 -92.698715 
L 773.039951 -91.068201 
L 773.290876 -89.437686 
L 773.51841 -87.807171 
L 773.609391 -86.176657 
L 773.625033 -84.546142 
L 773.736946 -82.915627 
L 774.091579 -81.285113 
L 774.796245 -79.654598 
L 776.108567 -78.024083 
L 778.605945 -76.393569 
L 783.041909 -74.763054 
L 789.914143 -73.132539 
L 798.956679 -71.502025 
L 809.377667 -69.87151 
L 820.377975 -68.240996 
L 830.310241 -66.610481 
L 835.3962 -64.979966 
L 831.249616 -63.349452 
L 817.550123 -61.718937 
L 799.920896 -60.088422 
L 785.435537 -58.457908 
L 777.209713 -56.827393 
L 773.935292 -55.196878 
L 773.023766 -53.566364 
z
" style="stroke: #595959; stroke-width: 1.25"/>
    </defs>
    <g clip-path="url(#p8c2f5a6494)">
     <use xlink:href="#m5ce3f93989" x="0" y="432" style="fill: #a2c865; stroke: #595959; stroke-width: 1.25"/>
    </g>
   </g>
   <g id="line2d_9">
    <path d="M 147.069 331.810342 
L 147.069 335.283031 
" clip-path="url(#p8c2f5a6494)" style="fill: none; stroke: #000000"/>
   </g>
   <g id="line2d_10">
    <path d="M 147.069 327.241015 
L 147.069 321.209503 
" clip-path="url(#p8c2f5a6494)" style="fill: none; stroke: #000000"/>
   </g>
   <g id="line2d_11">
    <path d="M 141.202575 335.283031 
L 152.935425 335.283031 
" clip-path="url(#p8c2f5a6494)" style="fill: none; stroke: #000000; stroke-linecap: round"/>
   </g>
   <g id="line2d_12">
    <path d="M 141.202575 321.209503 
L 152.935425 321.209503 
" clip-path="url(#p8c2f5a6494)" style="fill: none; stroke: #000000; stroke-linecap: round"/>
   </g>
   <g id="line2d_13">
    <path d="M 303.507 355.388071 
L 303.507 360.322944 
" clip-path="url(#p8c2f5a6494)" style="fill: none; stroke: #000000"/>
   </g>
   <g id="line2d_14">
    <path d="M 303.507 350.087651 
L 303.507 342.228408 
" clip-path="url(#p8c2f5a6494)" style="fill: none; stroke: #000000"/>
   </g>
   <g id="line2d_15">
    <path d="M 297.640575 360.322944 
L 309.373425 360.322944 
" clip-path="url(#p8c2f5a6494)" style="fill: none; stroke: #000000; stroke-linecap: round"/>
   </g>
   <g id="line2d_16">
    <path d="M 297.640575 342.228408 
L 309.373425 342.228408 
" clip-path="url(#p8c2f5a6494)" style="fill: none; stroke: #000000; stroke-linecap: round"/>
   </g>
   <g id="line2d_17">
    <path d="M 459.945 203.686406 
L 459.945 209.352372 
" clip-path="url(#p8c2f5a6494)" style="fill: none; stroke: #000000"/>
   </g>
   <g id="line2d_18">
    <path d="M 459.945 184.678005 
L 459.945 160.003638 
" clip-path="url(#p8c2f5a6494)" style="fill: none; stroke: #000000"/>
   </g>
   <g id="line2d_19">
    <path d="M 454.078575 209.352372 
L 465.811425 209.352372 
" clip-path="url(#p8c2f5a6494)" style="fill: none; stroke: #000000; stroke-linecap: round"/>
   </g>
   <g id="line2d_20">
    <path d="M 454.078575 160.003638 
L 465.811425 160.003638 
" clip-path="url(#p8c2f5a6494)" style="fill: none; stroke: #000000; stroke-linecap: round"/>
   </g>
   <g id="line2d_21">
    <path d="M 616.383 320.478411 
L 616.383 324.682192 
" clip-path="url(#p8c2f5a6494)" style="fill: none; stroke: #000000"/>
   </g>
   <g id="line2d_22">
    <path d="M 616.383 312.619168 
L 616.383 301.835555 
" clip-path="url(#p8c2f5a6494)" style="fill: none; stroke: #000000"/>
   </g>
   <g id="line2d_23">
    <path d="M 610.516575 324.682192 
L 622.249425 324.682192 
" clip-path="url(#p8c2f5a6494)" style="fill: none; stroke: #000000; stroke-linecap: round"/>
   </g>
   <g id="line2d_24">
    <path d="M 610.516575 301.835555 
L 622.249425 301.835555 
" clip-path="url(#p8c2f5a6494)" style="fill: none; stroke: #000000; stroke-linecap: round"/>
   </g>
   <g id="line2d_25">
    <path d="M 772.821 368.730506 
L 772.821 373.66538 
" clip-path="url(#p8c2f5a6494)" style="fill: none; stroke: #000000"/>
   </g>
   <g id="line2d_26">
    <path d="M 772.821 363.430087 
L 772.821 355.570844 
" clip-path="url(#p8c2f5a6494)" style="fill: none; stroke: #000000"/>
   </g>
   <g id="line2d_27">
    <path d="M 766.954575 373.66538 
L 778.687425 373.66538 
" clip-path="url(#p8c2f5a6494)" style="fill: none; stroke: #000000; stroke-linecap: round"/>
   </g>
   <g id="line2d_28">
    <path d="M 766.954575 355.570844 
L 778.687425 355.570844 
" clip-path="url(#p8c2f5a6494)" style="fill: none; stroke: #000000; stroke-linecap: round"/>
   </g>
   <g id="line2d_29">
    <path d="M 135.33615 329.799838 
L 158.80185 329.799838 
" clip-path="url(#p8c2f5a6494)" style="fill: none; stroke: #ff0000; stroke-width: 2"/>
   </g>
   <g id="line2d_30">
    <path d="M 291.77415 353.194794 
L 315.23985 353.194794 
" clip-path="url(#p8c2f5a6494)" style="fill: none; stroke: #ff0000; stroke-width: 2"/>
   </g>
   <g id="line2d_31">
    <path d="M 448.21215 200.94481 
L 471.67785 200.94481 
" clip-path="url(#p8c2f5a6494)" style="fill: none; stroke: #ff0000; stroke-width: 2"/>
   </g>
   <g id="line2d_32">
    <path d="M 604.65015 317.919587 
L 628.11585 317.919587 
" clip-path="url(#p8c2f5a6494)" style="fill: none; stroke: #ff0000; stroke-width: 2"/>
   </g>
   <g id="line2d_33">
    <path d="M 761.08815 366.354456 
L 784.55385 366.354456 
" clip-path="url(#p8c2f5a6494)" style="fill: none; stroke: #ff0000; stroke-width: 2"/>
   </g>
   <g id="patch_3">
    <path d="M 68.85 395.14 
L 68.85 27.6 
" style="fill: none; stroke: #cccccc; stroke-width: 1.25; stroke-linejoin: miter; stroke-linecap: square"/>
   </g>
   <g id="patch_4">
    <path d="M 851.04 395.14 
L 851.04 27.6 
" style="fill: none; stroke: #cccccc; stroke-width: 1.25; stroke-linejoin: miter; stroke-linecap: square"/>
   </g>
   <g id="patch_5">
    <path d="M 68.85 395.14 
L 851.04 395.14 
" style="fill: none; stroke: #cccccc; stroke-width: 1.25; stroke-linejoin: miter; stroke-linecap: square"/>
   </g>
   <g id="patch_6">
    <path d="M 68.85 27.6 
L 851.04 27.6 
" style="fill: none; stroke: #cccccc; stroke-width: 1.25; stroke-linejoin: miter; stroke-linecap: square"/>
   </g>
   <g id="text_15">
    <!-- Handshake duration on QUIC with mldsa65 signature algorithm — Backbone (200ms/4%) -->
    <g style="fill: #262626" transform="translate(191.83875 21.6) scale(0.12 -0.12)">
     <defs>
      <path id="DejaVuSans-51" d="M 2522 4238 
Q 1834 4238 1429 3725 
Q 1025 3213 1025 2328 
Q 1025 1447 1429 934 
Q 1834 422 2522 422 
Q 3209 422 3611 934 
Q 4013 1447 4013 2328 
Q 4013 3213 3611 3725 
Q 3209 4238 2522 4238 
z
M 3406 84 
L 4238 -825 
L 3475 -825 
L 2784 -78 
Q 2681 -84 2626 -87 
Q 2572 -91 2522 -91 
Q 1538 -91 948 567 
Q 359 1225 359 2328 
Q 359 3434 948 4092 
Q 1538 4750 2522 4750 
Q 3503 4750 4090 4092 
Q 4678 3434 4678 2328 
Q 4678 1516 4351 937 
Q 4025 359 3406 84 
z
" transform="scale(0.015625)"/>
      <path id="DejaVuSans-55" d="M 556 4666 
L 1191 4666 
L 1191 1831 
Q 1191 1081 1462 751 
Q 1734 422 2344 422 
Q 2950 422 3222 751 
Q 3494 1081 3494 1831 
L 3494 4666 
L 4128 4666 
L 4128 1753 
Q 4128 841 3676 375 
Q 3225 -91 2344 -91 
Q 1459 -91 1007 375 
Q 556 841 556 1753 
L 556 4666 
z
" transform="scale(0.015625)"/>
      <path id="DejaVuSans-49" d="M 628 4666 
L 1259 4666 
L 1259 0 
L 628 0 
L 628 4666 
z
" transform="scale(0.015625)"/>
      <path id="DejaVuSans-43" d="M 4122 4306 
L 4122 3641 
Q 3803 3938 3442 4084 
Q 3081 4231 2675 4231 
Q 1875 4231 1450 3742 
Q 1025 3253 1025 2328 
Q 1025 1406 1450 917 
Q 1875 428 2675 428 
Q 3081 428 3442 575 
Q 3803 722 4122 1019 
L 4122 359 
Q 3791 134 3420 21 
Q 3050 -91 2638 -91 
Q 1578 -91 968 557 
Q 359 1206 359 2328 
Q 359 3453 968 4101 
Q 1578 4750 2638 4750 
Q 3056 4750 3426 4639 
Q 3797 4528 4122 4306 
z
" transform="scale(0.015625)"/>
      <path id="DejaVuSans-77" d="M 269 3500 
L 844 3500 
L 1563 769 
L 2278 3500 
L 2956 3500 
L 3675 769 
L 4391 3500 
L 4966 3500 
L 4050 0 
L 3372 0 
L 2619 2869 
L 1863 0 
L 1184 0 
L 269 3500 
z
" transform="scale(0.015625)"/>
      <path id="DejaVuSans-67" d="M 2906 1791 
Q 2906 2416 2648 2759 
Q 2391 3103 1925 3103 
Q 1463 3103 1205 2759 
Q 947 2416 947 1791 
Q 947 1169 1205 825 
Q 1463 481 1925 481 
Q 2391 481 2648 825 
Q 2906 1169 2906 1791 
z
M 3481 434 
Q 3481 -459 3084 -895 
Q 2688 -1331 1869 -1331 
Q 1566 -1331 1297 -1286 
Q 1028 -1241 775 -1147 
L 775 -588 
Q 1028 -725 1275 -790 
Q 1522 -856 1778 -856 
Q 2344 -856 2625 -561 
Q 2906 -266 2906 331 
L 2906 616 
Q 2728 306 2450 153 
Q 2172 0 1784 0 
Q 1141 0 747 490 
Q 353 981 353 1791 
Q 353 2603 747 3093 
Q 1141 3584 1784 3584 
Q 2172 3584 2450 3431 
Q 2728 3278 2906 2969 
L 2906 3500 
L 3481 3500 
L 3481 434 
z
" transform="scale(0.015625)"/>
      <path id="DejaVuSans-2014" d="M 313 1978 
L 6088 1978 
L 6088 1528 
L 313 1528 
L 313 1978 
z
" transform="scale(0.015625)"/>
      <path id="DejaVuSans-42" d="M 1259 2228 
L 1259 519 
L 2272 519 
Q 2781 519 3026 730 
Q 3272 941 3272 1375 
Q 3272 1813 3026 2020 
Q 2781 2228 2272 2228 
L 1259 2228 
z
M 1259 4147 
L 1259 2741 
L 2194 2741 
Q 2656 2741 2882 2914 
Q 3109 3088 3109 3444 
Q 3109 3797 2882 3972 
Q 2656 4147 2194 4147 
L 1259 4147 
z
M 628 4666 
L 2241 4666 
Q 2963 4666 3353 4366 
Q 3744 4066 3744 3513 
Q 3744 3084 3544 2831 
Q 3344 2578 2956 2516 
Q 3422 2416 3680 2098 
Q 3938 1781 3938 1306 
Q 3938 681 3513 340 
Q 3088 0 2303 0 
L 628 0 
L 628 4666 
z
" transform="scale(0.015625)"/>
      <path id="DejaVuSans-63" d="M 3122 3366 
L 3122 2828 
Q 2878 2963 2633 3030 
Q 2388 3097 2138 3097 
Q 1578 3097 1268 2742 
Q 959 2388 959 1747 
Q 959 1106 1268 751 
Q 1578 397 2138 397 
Q 2388 397 2633 464 
Q 2878 531 3122 666 
L 3122 134 
Q 2881 22 2623 -34 
Q 2366 -91 2075 -91 
Q 1284 -91 818 406 
Q 353 903 353 1747 
Q 353 2603 823 3093 
Q 1294 3584 2113 3584 
Q 2378 3584 2631 3529 
Q 2884 3475 3122 3366 
z
" transform="scale(0.015625)"/>
      <path id="DejaVuSans-62" d="M 3116 1747 
Q 3116 2381 2855 2742 
Q 2594 3103 2138 3103 
Q 1681 3103 1420 2742 
Q 1159 2381 1159 1747 
Q 1159 1113 1420 752 
Q 1681 391 2138 391 
Q 2594 391 2855 752 
Q 3116 1113 3116 1747 
z
M 1159 2969 
Q 1341 3281 1617 3432 
Q 1894 3584 2278 3584 
Q 2916 3584 3314 3078 
Q 3713 2572 3713 1747 
Q 3713 922 3314 415 
Q 2916 -91 2278 -91 
Q 1894 -91 1617 61 
Q 1341 213 1159 525 
L 1159 0 
L 581 0 
L 581 4863 
L 1159 4863 
L 1159 2969 
z
" transform="scale(0.015625)"/>
      <path id="DejaVuSans-2f" d="M 1625 4666 
L 2156 4666 
L 531 -594 
L 0 -594 
L 1625 4666 
z
" transform="scale(0.015625)"/>
      <path id="DejaVuSans-25" d="M 4653 2053 
Q 4381 2053 4226 1822 
Q 4072 1591 4072 1178 
Q 4072 772 4226 539 
Q 4381 306 4653 306 
Q 4919 306 5073 539 
Q 5228 772 5228 1178 
Q 5228 1588 5073 1820 
Q 4919 2053 4653 2053 
z
M 4653 2450 
Q 5147 2450 5437 2106 
Q 5728 1763 5728 1178 
Q 5728 594 5436 251 
Q 5144 -91 4653 -91 
Q 4153 -91 3862 251 
Q 3572 594 3572 1178 
Q 3572 1766 3864 2108 
Q 4156 2450 4653 2450 
z
M 1428 4353 
Q 1159 4353 1004 4120 
Q 850 3888 850 3481 
Q 850 3069 1003 2837 
Q 1156 2606 1428 2606 
Q 1700 2606 1854 2837 
Q 2009 3069 2009 3481 
Q 2009 3884 1853 4118 
Q 1697 4353 1428 4353 
z
M 4250 4750 
L 4750 4750 
L 1831 -91 
L 1331 -91 
L 4250 4750 
z
M 1428 4750 
Q 1922 4750 2215 4408 
Q 2509 4066 2509 3481 
Q 2509 2891 2217 2550 
Q 1925 2209 1428 2209 
Q 931 2209 642 2551 
Q 353 2894 353 3481 
Q 353 4063 643 4406 
Q 934 4750 1428 4750 
z
" transform="scale(0.015625)"/>
     </defs>
     <use xlink:href="#DejaVuSans-48"/>
     <use xlink:href="#DejaVuSans-61" x="75.195312"/>
     <use xlink:href="#DejaVuSans-6e" x="136.474609"/>
     <use xlink:href="#DejaVuSans-64" x="199.853516"/>
     <use xlink:href="#DejaVuSans-73" x="263.330078"/>
     <use xlink:href="#DejaVuSans-68" x="315.429688"/>
     <use xlink:href="#DejaVuSans-61" x="378.808594"/>
     <use xlink:href="#DejaVuSans-6b" x="440.087891"/>
     <use xlink:href="#DejaVuSans-65" x="494.373047"/>
     <use xlink:href="#DejaVuSans-20" x="555.896484"/>
     <use xlink:href="#DejaVuSans-64" x="587.683594"/>
     <use xlink:href="#DejaVuSans-75" x="651.160156"/>
     <use xlink:href="#DejaVuSans-72" x="714.539062"/>
     <use xlink:href="#DejaVuSans-61" x="755.652344"/>
     <use xlink:href="#DejaVuSans-74" x="816.931641"/>
     <use xlink:href="#DejaVuSans-69" x="856.140625"/>
     <use xlink:href="#DejaVuSans-6f" x="883.923828"/>
     <use xlink:href="#DejaVuSans-6e" x="945.105469"/>
     <use xlink:href="#DejaVuSans-20" x="1008.484375"/>
     <use xlink:href="#DejaVuSans-6f" x="1040.271484"/>
     <use xlink:href="#DejaVuSans-6e" x="1101.453125"/>
     <use xlink:href="#DejaVuSans-20" x="1164.832031"/>
     <use xlink:href="#DejaVuSans-51" x="1196.619141"/>
     <use xlink:href="#DejaVuSans-55" x="1275.330078"/>
     <use xlink:href="#DejaVuSans-49" x="1348.523438"/>
     <use xlink:href="#DejaVuSans-43" x="1378.015625"/>
     <use xlink:href="#DejaVuSans-20" x="1447.839844"/>
     <use xlink:href="#DejaVuSans-77" x="1479.626953"/>
     <use xlink:href="#DejaVuSans-69" x="1561.414062"/>
     <use xlink:href="#DejaVuSans-74" x="1589.197266"/>
     <use xlink:href="#DejaVuSans-68" x="1628.40625"/>
     <use xlink:href="#DejaVuSans-20" x="1691.785156"/>
     <use xlink:href="#DejaVuSans-6d" x="1723.572266"/>
     <use xlink:href="#DejaVuSans-6c" x="1820.984375"/>
     <use xlink:href="#DejaVuSans-64" x="1848.767578"/>
     <use xlink:href="#DejaVuSans-73" x="1912.244141"/>
     <use xlink:href="#DejaVuSans-61" x="1964.34375"/>
     <use xlink:href="#DejaVuSans-36" x="2025.623047"/>
     <use xlink:href="#DejaVuSans-35" x="2089.246094"/>
     <use xlink:href="#DejaVuSans-20" x="2152.869141"/>
     <use xlink:href="#DejaVuSans-73" x="2184.65625"/>
     <use xlink:href="#DejaVuSans-69" x="2236.755859"/>
     <use xlink:href="#DejaVuSans-67" x="2264.539062"/>
     <use xlink:href="#DejaVuSans-6e" x="2328.015625"/>
     <use xlink:href="#DejaVuSans-61" x="2391.394531"/>
     <use xlink:href="#DejaVuSans-74" x="2452.673828"/>
     <use xlink:href="#DejaVuSans-75" x="2491.882812"/>
     <use xlink:href="#DejaVuSans-72" x="2555.261719"/>
     <use xlink:href="#DejaVuSans-65" x="2594.125"/>
     <use xlink:href="#DejaVuSans-20" x="2655.648438"/>
     <use xlink:href="#DejaVuSans-61" x="2687.435547"/>
     <use xlink:href="#DejaVuSans-6c" x="2748.714844"/>
     <use xlink:href="#DejaVuSans-67" x="2776.498047"/>
     <use xlink:href="#DejaVuSans-6f" x="2839.974609"/>
     <use xlink:href="#DejaVuSans-72" x="2901.15625"/>
     <use xlink:href="#DejaVuSans-69" x="2942.269531"/>
     <use xlink:href="#DejaVuSans-74" x="2970.052734"/>
     <use xlink:href="#DejaVuSans-68" x="3009.261719"/>
     <use xlink:href="#DejaVuSans-6d" x="3072.640625"/>
     <use xlink:href="#DejaVuSans-20" x="3170.052734"/>
     <use xlink:href="#DejaVuSans-2014" x="3201.839844"/>
     <use xlink:href="#DejaVuSans-20" x="3301.839844"/>
     <use xlink:href="#DejaVuSans-42" x="3333.626953"/>
     <use xlink:href="#DejaVuSans-61" x="3402.230469"/>
     <use xlink:href="#DejaVuSans-63" x="3463.509766"/>
     <use xlink:href="#DejaVuSans-6b" x="3518.490234"/>
     <use xlink:href="#DejaVuSans-62" x="3576.400391"/>
     <use xlink:href="#DejaVuSans-6f" x="3639.876953"/>
     <use xlink:href="#DejaVuSans-6e" x="3701.058594"/>
     <use xlink:href="#DejaVuSans-65" x="3764.4375"/>
     <use xlink:href="#DejaVuSans-20" x="3825.960938"/>
     <use xlink:href="#DejaVuSans-28" x="3857.748047"/>
     <use xlink:href="#DejaVuSans-32" x="3896.761719"/>
     <use xlink:href="#DejaVuSans-30" x="3960.384766"/>
     <use xlink:href="#DejaVuSans-30" x="4024.007812"/>
     <use xlink:href="#DejaVuSans-6d" x="4087.630859"/>
     <use xlink:href="#DejaVuSans-73" x="4185.042969"/>
     <use xlink:href="#DejaVuSans-2f" x="4237.142578"/>
     <use xlink:href="#DejaVuSans-34" x="4270.833984"/>
     <use xlink:href="#DejaVuSans-25" x="4334.457031"/>
     <use xlink:href="#DejaVuSans-29" x="4429.476562"/>
    </g>
   </g>
  </g>
 </g>
 <defs>
  <clipPath id="p8c2f5a6494">
   <rect x="68.85" y="27.6" width="782.19" height="367.54"/>
  </clipPath>
 </defs>
</svg>
