<?xml version="1.0" encoding="utf-8" standalone="no"?>
<!DOCTYPE svg PUBLIC "-//W3C//DTD SVG 1.1//EN"
  "http://www.w3.org/Graphics/SVG/1.1/DTD/svg11.dtd">
<svg xmlns:xlink="http://www.w3.org/1999/xlink" width="864pt" height="432pt" viewBox="0 0 864 432" xmlns="http://www.w3.org/2000/svg" version="1.1">
 <metadata>
  <rdf:RDF xmlns:dc="http://purl.org/dc/elements/1.1/" xmlns:cc="http://creativecommons.org/ns#" xmlns:rdf="http://www.w3.org/1999/02/22-rdf-syntax-ns#">
   <cc:Work>
    <dc:type rdf:resource="http://purl.org/dc/dcmitype/StillImage"/>
    <dc:date>2026-03-21T13:58:50.112427</dc:date>
    <dc:format>image/svg+xml</dc:format>
    <dc:creator>
     <cc:Agent>
      <dc:title>Matplotlib v3.6.3, https://matplotlib.org/</dc:title>
     </cc:Agent>
    </dc:creator>
   </cc:Work>
  </rdf:RDF>
 </metadata>
 <defs>
  <style type="text/css">*{stroke-linejoin: round; stroke-linecap: butt}</style>
 </defs>
 <g id="figure_1">
  <g id="patch_1">
   <path d="M 0 432 
L 864 432 
L 864 0 
L 0 0 
z
" style="fill: #ffffff"/>
  </g>
  <g id="axes_1">
   <g id="patch_2">
    <path d="M 58.32 395.14 
L 851.04 395.14 
L 851.04 27.6 
L 58.32 27.6 
z
" style="fill: #ffffff"/>
   </g>
   <g id="matplotlib.axis_1">
    <g id="xtick_1">
     <g id="text_1">
      <!-- P-256 -->
      <g style="fill: #262626" transform="translate(117.642 415.277812) scale(0.14 -0.14)">
       <defs>
        <path id="DejaVuSans-50" d="M 1259 4147 
L 1259 2394 
L 2053 2394 
Q 2494 2394 2734 2622 
Q 2975 2850 2975 3272 
Q 2975 3691 2734 3919 
Q 2494 4147 2053 4147 
L 1259 4147 
z
M 628 4666 
L 2053 4666 
Q 2838 4666 3239 4311 
Q 3641 3956 3641 3272 
Q 3641 2581 3239 2228 
Q 2838 1875 2053 1875 
L 1259 1875 
L 1259 0 
L 628 0 
L 628 4666 
z
" transform="scale(0.015625)"/>
        <path id="DejaVuSans-2d" d="M 313 2009 
L 1997 2009 
L 1997 1497 
L 313 1497 
L 313 2009 
z
" transform="scale(0.015625)"/>
        <path id="DejaVuSans-32" d="M 1228 531 
L 3431 531 
L 3431 0 
L 469 0 
L 469 531 
Q 828 903 1448 1529 
Q 2069 2156 2228 2338 
Q 2531 2678 2651 2914 
Q 2772 3150 2772 3378 
Q 2772 3750 2511 3984 
Q 2250 4219 1831 4219 
Q 1534 4219 1204 4116 
Q 875 4013 500 3803 
L 500 4441 
Q 881 4594 1212 4672 
Q 1544 4750 1819 4750 
Q 2544 4750 2975 4387 
Q 3406 4025 3406 3419 
Q 3406 3131 3298 2873 
Q 3191 2616 2906 2266 
Q 2828 2175 2409 1742 
Q 1991 1309 1228 531 
z
" transform="scale(0.015625)"/>
        <path id="DejaVuSans-35" d="M 691 4666 
L 3169 4666 
L 3169 4134 
L 1269 4134 
L 1269 2991 
Q 1406 3038 1543 3061 
Q 1681 3084 1819 3084 
Q 2600 3084 3056 2656 
Q 3513 2228 3513 1497 
Q 3513 744 3044 326 
Q 2575 -91 1722 -91 
Q 1428 -91 1123 -41 
Q 819 9 494 109 
L 494 744 
Q 775 591 1075 516 
Q 1375 441 1709 441 
Q 2250 441 2565 725 
Q 2881 1009 2881 1497 
Q 2881 1984 2565 2268 
Q 2250 2553 1709 2553 
Q 1456 2553 1204 2497 
Q 953 2441 691 2322 
L 691 4666 
z
" transform="scale(0.015625)"/>
        <path id="DejaVuSans-36" d="M 2113 2584 
Q 1688 2584 1439 2293 
Q 1191 2003 1191 1497 
Q 1191 994 1439 701 
Q 1688 409 2113 409 
Q 2538 409 2786 701 
Q 3034 994 3034 1497 
Q 3034 2003 2786 2293 
Q 2538 2584 2113 2584 
z
M 3366 4563 
L 3366 3988 
Q 3128 4100 2886 4159 
Q 2644 4219 2406 4219 
Q 1781 4219 1451 3797 
Q 1122 3375 1075 2522 
Q 1259 2794 1537 2939 
Q 1816 3084 2150 3084 
Q 2853 3084 3261 2657 
Q 3669 2231 3669 1497 
Q 3669 778 3244 343 
Q 2819 -91 2113 -91 
Q 1303 -91 875 529 
Q 447 1150 447 2328 
Q 447 3434 972 4092 
Q 1497 4750 2381 4750 
Q 2619 4750 2861 4703 
Q 3103 4656 3366 4563 
z
" transform="scale(0.015625)"/>
       </defs>
       <use xlink:href="#DejaVuSans-50"/>
       <use xlink:href="#DejaVuSans-2d" x="58.052734"/>
       <use xlink:href="#DejaVuSans-32" x="94.136719"/>
       <use xlink:href="#DejaVuSans-35" x="157.759766"/>
       <use xlink:href="#DejaVuSans-36" x="221.382812"/>
      </g>
     </g>
    </g>
    <g id="xtick_2">
     <g id="text_2">
      <!-- x25519 -->
      <g style="fill: #262626" transform="translate(269.724125 415.277812) scale(0.14 -0.14)">
       <defs>
        <path id="DejaVuSans-78" d="M 3513 3500 
L 2247 1797 
L 3578 0 
L 2900 0 
L 1881 1375 
L 863 0 
L 184 0 
L 1544 1831 
L 300 3500 
L 978 3500 
L 1906 2253 
L 2834 3500 
L 3513 3500 
z
" transform="scale(0.015625)"/>
        <path id="DejaVuSans-31" d="M 794 531 
L 1825 531 
L 1825 4091 
L 703 3866 
L 703 4441 
L 1819 4666 
L 2450 4666 
L 2450 531 
L 3481 531 
L 3481 0 
L 794 0 
L 794 531 
z
" transform="scale(0.015625)"/>
        <path id="DejaVuSans-39" d="M 703 97 
L 703 672 
Q 941 559 1184 500 
Q 1428 441 1663 441 
Q 2288 441 2617 861 
Q 2947 1281 2994 2138 
Q 2813 1869 2534 1725 
Q 2256 1581 1919 1581 
Q 1219 1581 811 2004 
Q 403 2428 403 3163 
Q 403 3881 828 4315 
Q 1253 4750 1959 4750 
Q 2769 4750 3195 4129 
Q 3622 3509 3622 2328 
Q 3622 1225 3098 567 
Q 2575 -91 1691 -91 
Q 1453 -91 1209 -44 
Q 966 3 703 97 
z
M 1959 2075 
Q 2384 2075 2632 2365 
Q 2881 2656 2881 3163 
Q 2881 3666 2632 3958 
Q 2384 4250 1959 4250 
Q 1534 4250 1286 3958 
Q 1038 3666 1038 3163 
Q 1038 2656 1286 2365 
Q 1534 2075 1959 2075 
z
" transform="scale(0.015625)"/>
       </defs>
       <use xlink:href="#DejaVuSans-78"/>
       <use xlink:href="#DejaVuSans-32" x="59.179688"/>
       <use xlink:href="#DejaVuSans-35" x="122.802734"/>
       <use xlink:href="#DejaVuSans-35" x="186.425781"/>
       <use xlink:href="#DejaVuSans-31" x="250.048828"/>
       <use xlink:href="#DejaVuSans-39" x="313.671875"/>
      </g>
     </g>
    </g>
    <g id="xtick_3">
     <g id="text_3">
      <!-- p256_mlkem512 -->
      <g style="fill: #262626" transform="translate(396.325156 415.277812) scale(0.14 -0.14)">
       <defs>
        <path id="DejaVuSans-70" d="M 1159 525 
L 1159 -1331 
L 581 -1331 
L 581 3500 
L 1159 3500 
L 1159 2969 
Q 1341 3281 1617 3432 
Q 1894 3584 2278 3584 
Q 2916 3584 3314 3078 
Q 3713 2572 3713 1747 
Q 3713 922 3314 415 
Q 2916 -91 2278 -91 
Q 1894 -91 1617 61 
Q 1341 213 1159 525 
z
M 3116 1747 
Q 3116 2381 2855 2742 
Q 2594 3103 2138 3103 
Q 1681 3103 1420 2742 
Q 1159 2381 1159 1747 
Q 1159 1113 1420 752 
Q 1681 391 2138 391 
Q 2594 391 2855 752 
Q 3116 1113 3116 1747 
z
" transform="scale(0.015625)"/>
        <path id="DejaVuSans-5f" d="M 3263 -1063 
L 3263 -1509 
L -63 -1509 
L -63 -1063 
L 3263 -1063 
z
" transform="scale(0.015625)"/>
        <path id="DejaVuSans-6d" d="M 3328 2828 
Q 3544 3216 3844 3400 
Q 4144 3584 4550 3584 
Q 5097 3584 5394 3201 
Q 5691 2819 5691 2113 
L 5691 0 
L 5113 0 
L 5113 2094 
Q 5113 2597 4934 2840 
Q 4756 3084 4391 3084 
Q 3944 3084 3684 2787 
Q 3425 2491 3425 1978 
L 3425 0 
L 2847 0 
L 2847 2094 
Q 2847 2600 2669 2842 
Q 2491 3084 2119 3084 
Q 1678 3084 1418 2786 
Q 1159 2488 1159 1978 
L 1159 0 
L 581 0 
L 581 3500 
L 1159 3500 
L 1159 2956 
Q 1356 3278 1631 3431 
Q 1906 3584 2284 3584 
Q 2666 3584 2933 3390 
Q 3200 3197 3328 2828 
z
" transform="scale(0.015625)"/>
        <path id="DejaVuSans-6c" d="M 603 4863 
L 1178 4863 
L 1178 0 
L 603 0 
L 603 4863 
z
" transform="scale(0.015625)"/>
        <path id="DejaVuSans-6b" d="M 581 4863 
L 1159 4863 
L 1159 1991 
L 2875 3500 
L 3609 3500 
L 1753 1863 
L 3688 0 
L 2938 0 
L 1159 1709 
L 1159 0 
L 581 0 
L 581 4863 
z
" transform="scale(0.015625)"/>
        <path id="DejaVuSans-65" d="M 3597 1894 
L 3597 1613 
L 953 1613 
Q 991 1019 1311 708 
Q 1631 397 2203 397 
Q 2534 397 2845 478 
Q 3156 559 3463 722 
L 3463 178 
Q 3153 47 2828 -22 
Q 2503 -91 2169 -91 
Q 1331 -91 842 396 
Q 353 884 353 1716 
Q 353 2575 817 3079 
Q 1281 3584 2069 3584 
Q 2775 3584 3186 3129 
Q 3597 2675 3597 1894 
z
M 3022 2063 
Q 3016 2534 2758 2815 
Q 2500 3097 2075 3097 
Q 1594 3097 1305 2825 
Q 1016 2553 972 2059 
L 3022 2063 
z
" transform="scale(0.015625)"/>
       </defs>
       <use xlink:href="#DejaVuSans-70"/>
       <use xlink:href="#DejaVuSans-32" x="63.476562"/>
       <use xlink:href="#DejaVuSans-35" x="127.099609"/>
       <use xlink:href="#DejaVuSans-36" x="190.722656"/>
       <use xlink:href="#DejaVuSans-5f" x="254.345703"/>
       <use xlink:href="#DejaVuSans-6d" x="304.345703"/>
       <use xlink:href="#DejaVuSans-6c" x="401.757812"/>
       <use xlink:href="#DejaVuSans-6b" x="429.541016"/>
       <use xlink:href="#DejaVuSans-65" x="483.826172"/>
       <use xlink:href="#DejaVuSans-6d" x="545.349609"/>
       <use xlink:href="#DejaVuSans-35" x="642.761719"/>
       <use xlink:href="#DejaVuSans-31" x="706.384766"/>
       <use xlink:href="#DejaVuSans-32" x="770.007812"/>
      </g>
     </g>
    </g>
    <g id="xtick_4">
     <g id="text_4">
      <!-- x25519_mlkem512 -->
      <g style="fill: #262626" transform="translate(546.262437 415.277812) scale(0.14 -0.14)">
       <use xlink:href="#DejaVuSans-78"/>
       <use xlink:href="#DejaVuSans-32" x="59.179688"/>
       <use xlink:href="#DejaVuSans-35" x="122.802734"/>
       <use xlink:href="#DejaVuSans-35" x="186.425781"/>
       <use xlink:href="#DejaVuSans-31" x="250.048828"/>
       <use xlink:href="#DejaVuSans-39" x="313.671875"/>
       <use xlink:href="#DejaVuSans-5f" x="377.294922"/>
       <use xlink:href="#DejaVuSans-6d" x="427.294922"/>
       <use xlink:href="#DejaVuSans-6c" x="524.707031"/>
       <use xlink:href="#DejaVuSans-6b" x="552.490234"/>
       <use xlink:href="#DejaVuSans-65" x="606.775391"/>
       <use xlink:href="#DejaVuSans-6d" x="668.298828"/>
       <use xlink:href="#DejaVuSans-35" x="765.710938"/>
       <use xlink:href="#DejaVuSans-31" x="829.333984"/>
       <use xlink:href="#DejaVuSans-32" x="892.957031"/>
      </g>
     </g>
    </g>
    <g id="xtick_5">
     <g id="text_5">
      <!-- mlkem512 -->
      <g style="fill: #262626" transform="translate(734.718312 415.277812) scale(0.14 -0.14)">
       <use xlink:href="#DejaVuSans-6d"/>
       <use xlink:href="#DejaVuSans-6c" x="97.412109"/>
       <use xlink:href="#DejaVuSans-6b" x="125.195312"/>
       <use xlink:href="#DejaVuSans-65" x="179.480469"/>
       <use xlink:href="#DejaVuSans-6d" x="241.003906"/>
       <use xlink:href="#DejaVuSans-35" x="338.416016"/>
       <use xlink:href="#DejaVuSans-31" x="402.039062"/>
       <use xlink:href="#DejaVuSans-32" x="465.662109"/>
      </g>
     </g>
    </g>
   </g>
   <g id="matplotlib.axis_2">
    <g id="ytick_1">
     <g id="line2d_1">
      <path d="M 58.32 372.14889 
L 851.04 372.14889 
" clip-path="url(#p8538281bdf)" style="fill: none; stroke: #cccccc; stroke-linecap: round"/>
     </g>
     <g id="text_6">
      <!-- 802 -->
      <g style="fill: #262626" transform="translate(27.82375 376.32803) scale(0.11 -0.11)">
       <defs>
        <path id="DejaVuSans-38" d="M 2034 2216 
Q 1584 2216 1326 1975 
Q 1069 1734 1069 1313 
Q 1069 891 1326 650 
Q 1584 409 2034 409 
Q 2484 409 2743 651 
Q 3003 894 3003 1313 
Q 3003 1734 2745 1975 
Q 2488 2216 2034 2216 
z
M 1403 2484 
Q 997 2584 770 2862 
Q 544 3141 544 3541 
Q 544 4100 942 4425 
Q 1341 4750 2034 4750 
Q 2731 4750 3128 4425 
Q 3525 4100 3525 3541 
Q 3525 3141 3298 2862 
Q 3072 2584 2669 2484 
Q 3125 2378 3379 2068 
Q 3634 1759 3634 1313 
Q 3634 634 3220 271 
Q 2806 -91 2034 -91 
Q 1263 -91 848 271 
Q 434 634 434 1313 
Q 434 1759 690 2068 
Q 947 2378 1403 2484 
z
M 1172 3481 
Q 1172 3119 1398 2916 
Q 1625 2713 2034 2713 
Q 2441 2713 2670 2916 
Q 2900 3119 2900 3481 
Q 2900 3844 2670 4047 
Q 2441 4250 2034 4250 
Q 1625 4250 1398 4047 
Q 1172 3844 1172 3481 
z
" transform="scale(0.015625)"/>
        <path id="DejaVuSans-30" d="M 2034 4250 
Q 1547 4250 1301 3770 
Q 1056 3291 1056 2328 
Q 1056 1369 1301 889 
Q 1547 409 2034 409 
Q 2525 409 2770 889 
Q 3016 1369 3016 2328 
Q 3016 3291 2770 3770 
Q 2525 4250 2034 4250 
z
M 2034 4750 
Q 2819 4750 3233 4129 
Q 3647 3509 3647 2328 
Q 3647 1150 3233 529 
Q 2819 -91 2034 -91 
Q 1250 -91 836 529 
Q 422 1150 422 2328 
Q 422 3509 836 4129 
Q 1250 4750 2034 4750 
z
" transform="scale(0.015625)"/>
       </defs>
       <use xlink:href="#DejaVuSans-38"/>
       <use xlink:href="#DejaVuSans-30" x="63.623047"/>
       <use xlink:href="#DejaVuSans-32" x="127.246094"/>
      </g>
     </g>
    </g>
    <g id="ytick_2">
     <g id="line2d_2">
      <path d="M 58.32 325.198349 
L 851.04 325.198349 
" clip-path="url(#p8538281bdf)" style="fill: none; stroke: #cccccc; stroke-linecap: round"/>
     </g>
     <g id="text_7">
      <!-- 804 -->
      <g style="fill: #262626" transform="translate(27.82375 329.37749) scale(0.11 -0.11)">
       <defs>
        <path id="DejaVuSans-34" d="M 2419 4116 
L 825 1625 
L 2419 1625 
L 2419 4116 
z
M 2253 4666 
L 3047 4666 
L 3047 1625 
L 3713 1625 
L 3713 1100 
L 3047 1100 
L 3047 0 
L 2419 0 
L 2419 1100 
L 313 1100 
L 313 1709 
L 2253 4666 
z
" transform="scale(0.015625)"/>
       </defs>
       <use xlink:href="#DejaVuSans-38"/>
       <use xlink:href="#DejaVuSans-30" x="63.623047"/>
       <use xlink:href="#DejaVuSans-34" x="127.246094"/>
      </g>
     </g>
    </g>
    <g id="ytick_3">
     <g id="line2d_3">
      <path d="M 58.32 278.247808 
L 851.04 278.247808 
" clip-path="url(#p8538281bdf)" style="fill: none; stroke: #cccccc; stroke-linecap: round"/>
     </g>
     <g id="text_8">
      <!-- 806 -->
      <g style="fill: #262626" transform="translate(27.82375 282.426949) scale(0.11 -0.11)">
       <use xlink:href="#DejaVuSans-38"/>
       <use xlink:href="#DejaVuSans-30" x="63.623047"/>
       <use xlink:href="#DejaVuSans-36" x="127.246094"/>
      </g>
     </g>
    </g>
    <g id="ytick_4">
     <g id="line2d_4">
      <path d="M 58.32 231.297267 
L 851.04 231.297267 
" clip-path="url(#p8538281bdf)" style="fill: none; stroke: #cccccc; stroke-linecap: round"/>
     </g>
     <g id="text_9">
      <!-- 808 -->
      <g style="fill: #262626" transform="translate(27.82375 235.476408) scale(0.11 -0.11)">
       <use xlink:href="#DejaVuSans-38"/>
       <use xlink:href="#DejaVuSans-30" x="63.623047"/>
       <use xlink:href="#DejaVuSans-38" x="127.246094"/>
      </g>
     </g>
    </g>
    <g id="ytick_5">
     <g id="line2d_5">
      <path d="M 58.32 184.346727 
L 851.04 184.346727 
" clip-path="url(#p8538281bdf)" style="fill: none; stroke: #cccccc; stroke-linecap: round"/>
     </g>
     <g id="text_10">
      <!-- 810 -->
      <g style="fill: #262626" transform="translate(27.82375 188.525867) scale(0.11 -0.11)">
       <use xlink:href="#DejaVuSans-38"/>
       <use xlink:href="#DejaVuSans-31" x="63.623047"/>
       <use xlink:href="#DejaVuSans-30" x="127.246094"/>
      </g>
     </g>
    </g>
    <g id="ytick_6">
     <g id="line2d_6">
      <path d="M 58.32 137.396186 
L 851.04 137.396186 
" clip-path="url(#p8538281bdf)" style="fill: none; stroke: #cccccc; stroke-linecap: round"/>
     </g>
     <g id="text_11">
      <!-- 812 -->
      <g style="fill: #262626" transform="translate(27.82375 141.575326) scale(0.11 -0.11)">
       <use xlink:href="#DejaVuSans-38"/>
       <use xlink:href="#DejaVuSans-31" x="63.623047"/>
       <use xlink:href="#DejaVuSans-32" x="127.246094"/>
      </g>
     </g>
    </g>
    <g id="ytick_7">
     <g id="line2d_7">
      <path d="M 58.32 90.445645 
L 851.04 90.445645 
" clip-path="url(#p8538281bdf)" style="fill: none; stroke: #cccccc; stroke-linecap: round"/>
     </g>
     <g id="text_12">
      <!-- 814 -->
      <g style="fill: #262626" transform="translate(27.82375 94.624786) scale(0.11 -0.11)">
       <use xlink:href="#DejaVuSans-38"/>
       <use xlink:href="#DejaVuSans-31" x="63.623047"/>
       <use xlink:href="#DejaVuSans-34" x="127.246094"/>
      </g>
     </g>
    </g>
    <g id="ytick_8">
     <g id="line2d_8">
      <path d="M 58.32 43.495104 
L 851.04 43.495104 
" clip-path="url(#p8538281bdf)" style="fill: none; stroke: #cccccc; stroke-linecap: round"/>
     </g>
     <g id="text_13">
      <!-- 816 -->
      <g style="fill: #262626" transform="translate(27.82375 47.674245) scale(0.11 -0.11)">
       <use xlink:href="#DejaVuSans-38"/>
       <use xlink:href="#DejaVuSans-31" x="63.623047"/>
       <use xlink:href="#DejaVuSans-36" x="127.246094"/>
      </g>
     </g>
    </g>
    <g id="text_14">
     <!-- Handshake duration (ms) -->
     <g style="fill: #262626" transform="translate(21.328125 287.437813) rotate(-90) scale(0.12 -0.12)">
      <defs>
       <path id="DejaVuSans-48" d="M 628 4666 
L 1259 4666 
L 1259 2753 
L 3553 2753 
L 3553 4666 
L 4184 4666 
L 4184 0 
L 3553 0 
L 3553 2222 
L 1259 2222 
L 1259 0 
L 628 0 
L 628 4666 
z
" transform="scale(0.015625)"/>
       <path id="DejaVuSans-61" d="M 2194 1759 
Q 1497 1759 1228 1600 
Q 959 1441 959 1056 
Q 959 750 1161 570 
Q 1363 391 1709 391 
Q 2188 391 2477 730 
Q 2766 1069 2766 1631 
L 2766 1759 
L 2194 1759 
z
M 3341 1997 
L 3341 0 
L 2766 0 
L 2766 531 
Q 2569 213 2275 61 
Q 1981 -91 1556 -91 
Q 1019 -91 701 211 
Q 384 513 384 1019 
Q 384 1609 779 1909 
Q 1175 2209 1959 2209 
L 2766 2209 
L 2766 2266 
Q 2766 2663 2505 2880 
Q 2244 3097 1772 3097 
Q 1472 3097 1187 3025 
Q 903 2953 641 2809 
L 641 3341 
Q 956 3463 1253 3523 
Q 1550 3584 1831 3584 
Q 2591 3584 2966 3190 
Q 3341 2797 3341 1997 
z
" transform="scale(0.015625)"/>
       <path id="DejaVuSans-6e" d="M 3513 2113 
L 3513 0 
L 2938 0 
L 2938 2094 
Q 2938 2591 2744 2837 
Q 2550 3084 2163 3084 
Q 1697 3084 1428 2787 
Q 1159 2491 1159 1978 
L 1159 0 
L 581 0 
L 581 3500 
L 1159 3500 
L 1159 2956 
Q 1366 3272 1645 3428 
Q 1925 3584 2291 3584 
Q 2894 3584 3203 3211 
Q 3513 2838 3513 2113 
z
" transform="scale(0.015625)"/>
       <path id="DejaVuSans-64" d="M 2906 2969 
L 2906 4863 
L 3481 4863 
L 3481 0 
L 2906 0 
L 2906 525 
Q 2725 213 2448 61 
Q 2172 -91 1784 -91 
Q 1150 -91 751 415 
Q 353 922 353 1747 
Q 353 2572 751 3078 
Q 1150 3584 1784 3584 
Q 2172 3584 2448 3432 
Q 2725 3281 2906 2969 
z
M 947 1747 
Q 947 1113 1208 752 
Q 1469 391 1925 391 
Q 2381 391 2643 752 
Q 2906 1113 2906 1747 
Q 2906 2381 2643 2742 
Q 2381 3103 1925 3103 
Q 1469 3103 1208 2742 
Q 947 2381 947 1747 
z
" transform="scale(0.015625)"/>
       <path id="DejaVuSans-73" d="M 2834 3397 
L 2834 2853 
Q 2591 2978 2328 3040 
Q 2066 3103 1784 3103 
Q 1356 3103 1142 2972 
Q 928 2841 928 2578 
Q 928 2378 1081 2264 
Q 1234 2150 1697 2047 
L 1894 2003 
Q 2506 1872 2764 1633 
Q 3022 1394 3022 966 
Q 3022 478 2636 193 
Q 2250 -91 1575 -91 
Q 1294 -91 989 -36 
Q 684 19 347 128 
L 347 722 
Q 666 556 975 473 
Q 1284 391 1588 391 
Q 1994 391 2212 530 
Q 2431 669 2431 922 
Q 2431 1156 2273 1281 
Q 2116 1406 1581 1522 
L 1381 1569 
Q 847 1681 609 1914 
Q 372 2147 372 2553 
Q 372 3047 722 3315 
Q 1072 3584 1716 3584 
Q 2034 3584 2315 3537 
Q 2597 3491 2834 3397 
z
" transform="scale(0.015625)"/>
       <path id="DejaVuSans-68" d="M 3513 2113 
L 3513 0 
L 2938 0 
L 2938 2094 
Q 2938 2591 2744 2837 
Q 2550 3084 2163 3084 
Q 1697 3084 1428 2787 
Q 1159 2491 1159 1978 
L 1159 0 
L 581 0 
L 581 4863 
L 1159 4863 
L 1159 2956 
Q 1366 3272 1645 3428 
Q 1925 3584 2291 3584 
Q 2894 3584 3203 3211 
Q 3513 2838 3513 2113 
z
" transform="scale(0.015625)"/>
       <path id="DejaVuSans-20" transform="scale(0.015625)"/>
       <path id="DejaVuSans-75" d="M 544 1381 
L 544 3500 
L 1119 3500 
L 1119 1403 
Q 1119 906 1312 657 
Q 1506 409 1894 409 
Q 2359 409 2629 706 
Q 2900 1003 2900 1516 
L 2900 3500 
L 3475 3500 
L 3475 0 
L 2900 0 
L 2900 538 
Q 2691 219 2414 64 
Q 2138 -91 1772 -91 
Q 1169 -91 856 284 
Q 544 659 544 1381 
z
M 1991 3584 
L 1991 3584 
z
" transform="scale(0.015625)"/>
       <path id="DejaVuSans-72" d="M 2631 2963 
Q 2534 3019 2420 3045 
Q 2306 3072 2169 3072 
Q 1681 3072 1420 2755 
Q 1159 2438 1159 1844 
L 1159 0 
L 581 0 
L 581 3500 
L 1159 3500 
L 1159 2956 
Q 1341 3275 1631 3429 
Q 1922 3584 2338 3584 
Q 2397 3584 2469 3576 
Q 2541 3569 2628 3553 
L 2631 2963 
z
" transform="scale(0.015625)"/>
       <path id="DejaVuSans-74" d="M 1172 4494 
L 1172 3500 
L 2356 3500 
L 2356 3053 
L 1172 3053 
L 1172 1153 
Q 1172 725 1289 603 
Q 1406 481 1766 481 
L 2356 481 
L 2356 0 
L 1766 0 
Q 1100 0 847 248 
Q 594 497 594 1153 
L 594 3053 
L 172 3053 
L 172 3500 
L 594 3500 
L 594 4494 
L 1172 4494 
z
" transform="scale(0.015625)"/>
       <path id="DejaVuSans-69" d="M 603 3500 
L 1178 3500 
L 1178 0 
L 603 0 
L 603 3500 
z
M 603 4863 
L 1178 4863 
L 1178 4134 
L 603 4134 
L 603 4863 
z
" transform="scale(0.015625)"/>
       <path id="DejaVuSans-6f" d="M 1959 3097 
Q 1497 3097 1228 2736 
Q 959 2375 959 1747 
Q 959 1119 1226 758 
Q 1494 397 1959 397 
Q 2419 397 2687 759 
Q 2956 1122 2956 1747 
Q 2956 2369 2687 2733 
Q 2419 3097 1959 3097 
z
M 1959 3584 
Q 2709 3584 3137 3096 
Q 3566 2609 3566 1747 
Q 3566 888 3137 398 
Q 2709 -91 1959 -91 
Q 1206 -91 779 398 
Q 353 888 353 1747 
Q 353 2609 779 3096 
Q 1206 3584 1959 3584 
z
" transform="scale(0.015625)"/>
       <path id="DejaVuSans-28" d="M 1984 4856 
Q 1566 4138 1362 3434 
Q 1159 2731 1159 2009 
Q 1159 1288 1364 580 
Q 1569 -128 1984 -844 
L 1484 -844 
Q 1016 -109 783 600 
Q 550 1309 550 2009 
Q 550 2706 781 3412 
Q 1013 4119 1484 4856 
L 1984 4856 
z
" transform="scale(0.015625)"/>
       <path id="DejaVuSans-29" d="M 513 4856 
L 1013 4856 
Q 1481 4119 1714 3412 
Q 1947 2706 1947 2009 
Q 1947 1309 1714 600 
Q 1481 -109 1013 -844 
L 513 -844 
Q 928 -128 1133 580 
Q 1338 1288 1338 2009 
Q 1338 2731 1133 3434 
Q 928 4138 513 4856 
z
" transform="scale(0.015625)"/>
      </defs>
      <use xlink:href="#DejaVuSans-48"/>
      <use xlink:href="#DejaVuSans-61" x="75.195312"/>
      <use xlink:href="#DejaVuSans-6e" x="136.474609"/>
      <use xlink:href="#DejaVuSans-64" x="199.853516"/>
      <use xlink:href="#DejaVuSans-73" x="263.330078"/>
      <use xlink:href="#DejaVuSans-68" x="315.429688"/>
      <use xlink:href="#DejaVuSans-61" x="378.808594"/>
      <use xlink:href="#DejaVuSans-6b" x="440.087891"/>
      <use xlink:href="#DejaVuSans-65" x="494.373047"/>
      <use xlink:href="#DejaVuSans-20" x="555.896484"/>
      <use xlink:href="#DejaVuSans-64" x="587.683594"/>
      <use xlink:href="#DejaVuSans-75" x="651.160156"/>
      <use xlink:href="#DejaVuSans-72" x="714.539062"/>
      <use xlink:href="#DejaVuSans-61" x="755.652344"/>
      <use xlink:href="#DejaVuSans-74" x="816.931641"/>
      <use xlink:href="#DejaVuSans-69" x="856.140625"/>
      <use xlink:href="#DejaVuSans-6f" x="883.923828"/>
      <use xlink:href="#DejaVuSans-6e" x="945.105469"/>
      <use xlink:href="#DejaVuSans-20" x="1008.484375"/>
      <use xlink:href="#DejaVuSans-28" x="1040.271484"/>
      <use xlink:href="#DejaVuSans-6d" x="1079.285156"/>
      <use xlink:href="#DejaVuSans-73" x="1176.697266"/>
      <use xlink:href="#DejaVuSans-29" x="1228.796875"/>
     </g>
    </g>
   </g>
   <g id="PolyCollection_1">
    <defs>
     <path id="mb00d2182b3" d="M 137.707723 -61.443107 
L 137.476277 -61.443107 
L 137.30758 -62.008498 
L 136.94512 -62.573889 
L 136.225265 -63.13928 
L 134.905134 -63.70467 
L 132.676644 -64.270061 
L 129.22662 -64.835452 
L 124.34304 -65.400843 
L 118.033768 -65.966234 
L 110.599045 -66.531624 
L 102.608197 -67.097015 
L 94.776026 -67.662406 
L 87.786402 -68.227797 
L 82.13489 -68.793187 
L 78.047371 -69.358578 
L 75.494134 -69.923969 
L 74.281272 -70.48936 
L 74.1744 -71.054751 
L 75.000118 -71.620141 
L 76.687449 -72.185532 
L 79.248396 -72.750923 
L 82.722322 -73.316314 
L 87.104147 -73.881705 
L 92.268064 -74.447095 
L 97.917282 -75.012486 
L 103.608723 -75.577877 
L 108.867171 -76.143268 
L 113.329069 -76.708658 
L 116.823951 -77.274049 
L 119.356318 -77.83944 
L 121.035745 -78.404831 
L 122.027405 -78.970222 
L 122.54457 -79.535612 
L 122.848364 -80.101003 
L 123.218546 -80.666394 
L 123.897176 -81.231785 
L 125.032006 -81.797175 
L 126.640545 -82.362566 
L 128.603403 -82.927957 
L 130.693209 -83.493348 
L 132.640995 -84.058739 
L 134.223052 -84.624129 
L 135.331223 -85.18952 
L 135.991917 -85.754911 
L 136.327752 -86.320302 
L 136.489082 -86.885692 
L 136.595321 -87.451083 
L 136.710842 -88.016474 
L 136.852922 -88.581865 
L 137.012535 -89.147256 
L 137.171612 -89.712646 
L 137.31265 -90.278037 
L 137.423727 -90.843428 
L 137.50098 -91.408819 
L 137.548128 -91.974209 
L 137.573265 -92.5396 
L 137.58494 -93.104991 
L 137.589659 -93.670382 
L 137.591318 -94.235773 
L 137.591825 -94.801163 
L 137.591959 -95.366554 
L 137.591982 -95.931945 
L 137.591949 -96.497336 
L 137.591781 -97.062726 
L 137.591166 -97.628117 
L 137.589216 -98.193508 
L 137.583857 -98.758899 
L 137.571145 -99.32429 
L 137.54523 -99.88968 
L 137.500158 -100.455071 
L 137.434075 -101.020462 
L 137.354212 -101.585853 
L 137.278478 -102.151244 
L 137.229988 -102.716634 
L 137.22581 -103.282025 
L 137.267022 -103.847416 
L 137.337428 -104.412807 
L 137.411612 -104.978197 
L 137.465848 -105.543588 
L 137.485009 -106.108979 
L 137.464244 -106.67437 
L 137.408814 -107.239761 
L 137.334232 -107.805151 
L 137.264362 -108.370542 
L 137.224123 -108.935933 
L 137.228162 -109.501324 
L 137.272464 -110.066714 
L 137.335389 -110.632105 
L 137.38789 -111.197496 
L 137.406611 -111.762887 
L 137.383402 -112.328278 
L 137.328384 -112.893668 
L 137.266126 -113.459059 
L 137.22555 -114.02445 
L 137.226852 -114.589841 
L 137.272252 -115.155231 
L 137.346563 -115.720622 
L 137.426979 -116.286013 
L 137.494836 -116.851404 
L 137.541902 -117.416795 
L 137.642098 -117.416795 
L 137.642098 -117.416795 
L 137.689164 -116.851404 
L 137.757021 -116.286013 
L 137.837437 -115.720622 
L 137.911748 -115.155231 
L 137.957148 -114.589841 
L 137.95845 -114.02445 
L 137.917874 -113.459059 
L 137.855616 -112.893668 
L 137.800598 -112.328278 
L 137.777389 -111.762887 
L 137.79611 -111.197496 
L 137.848611 -110.632105 
L 137.911536 -110.066714 
L 137.955838 -109.501324 
L 137.959877 -108.935933 
L 137.919638 -108.370542 
L 137.849768 -107.805151 
L 137.775186 -107.239761 
L 137.719756 -106.67437 
L 137.698991 -106.108979 
L 137.718152 -105.543588 
L 137.772388 -104.978197 
L 137.846572 -104.412807 
L 137.916978 -103.847416 
L 137.95819 -103.282025 
L 137.954012 -102.716634 
L 137.905522 -102.151244 
L 137.829788 -101.585853 
L 137.749925 -101.020462 
L 137.683842 -100.455071 
L 137.63877 -99.88968 
L 137.612855 -99.32429 
L 137.600143 -98.758899 
L 137.594784 -98.193508 
L 137.592834 -97.628117 
L 137.592219 -97.062726 
L 137.592051 -96.497336 
L 137.592018 -95.931945 
L 137.592041 -95.366554 
L 137.592175 -94.801163 
L 137.592682 -94.235773 
L 137.594341 -93.670382 
L 137.59906 -93.104991 
L 137.610735 -92.5396 
L 137.635872 -91.974209 
L 137.68302 -91.408819 
L 137.760273 -90.843428 
L 137.87135 -90.278037 
L 138.012388 -89.712646 
L 138.171465 -89.147256 
L 138.331078 -88.581865 
L 138.473158 -88.016474 
L 138.588679 -87.451083 
L 138.694918 -86.885692 
L 138.856248 -86.320302 
L 139.192083 -85.754911 
L 139.852777 -85.18952 
L 140.960948 -84.624129 
L 142.543005 -84.058739 
L 144.490791 -83.493348 
L 146.580597 -82.927957 
L 148.543455 -82.362566 
L 150.151994 -81.797175 
L 151.286824 -81.231785 
L 151.965454 -80.666394 
L 152.335636 -80.101003 
L 152.63943 -79.535612 
L 153.156595 -78.970222 
L 154.148255 -78.404831 
L 155.827682 -77.83944 
L 158.360049 -77.274049 
L 161.854931 -76.708658 
L 166.316829 -76.143268 
L 171.575277 -75.577877 
L 177.266718 -75.012486 
L 182.915936 -74.447095 
L 188.079853 -73.881705 
L 192.461678 -73.316314 
L 195.935604 -72.750923 
L 198.496551 -72.185532 
L 200.183882 -71.620141 
L 201.0096 -71.054751 
L 200.902728 -70.48936 
L 199.689866 -69.923969 
L 197.136629 -69.358578 
L 193.04911 -68.793187 
L 187.397598 -68.227797 
L 180.407974 -67.662406 
L 172.575803 -67.097015 
L 164.584955 -66.531624 
L 157.150232 -65.966234 
L 150.84096 -65.400843 
L 145.95738 -64.835452 
L 142.507356 -64.270061 
L 140.278866 -63.70467 
L 138.958735 -63.13928 
L 138.23888 -62.573889 
L 137.87642 -62.008498 
L 137.707723 -61.443107 
z
" style="stroke: #595959; stroke-width: 1.25"/>
    </defs>
    <g clip-path="url(#p8538281bdf)">
     <use xlink:href="#mb00d2182b3" x="0" y="432" style="fill: #72b6a1; stroke: #595959; stroke-width: 1.25"/>
    </g>
   </g>
   <g id="PolyCollection_2">
    <defs>
     <path id="m50ef5e97db" d="M 296.197428 -53.566364 
L 296.074572 -53.566364 
L 296.035074 -53.871171 
L 295.981437 -54.175979 
L 295.915303 -54.480786 
L 295.842018 -54.785594 
L 295.770281 -55.090401 
L 295.710214 -55.395209 
L 295.670193 -55.700016 
L 295.653475 -56.004824 
L 295.656001 -56.309631 
L 295.666334 -56.614439 
L 295.667625 -56.919247 
L 295.640351 -57.224054 
L 295.56389 -57.528862 
L 295.415318 -57.833669 
L 295.165005 -58.138477 
L 294.770337 -58.443284 
L 294.170399 -58.748092 
L 293.285061 -59.052899 
L 292.02114 -59.357707 
L 290.286262 -59.662514 
L 288.008236 -59.967322 
L 285.155149 -60.272129 
L 281.749974 -60.576937 
L 277.87402 -60.881744 
L 273.656512 -61.186552 
L 269.252424 -61.49136 
L 264.815865 -61.796167 
L 260.478994 -62.100975 
L 256.344249 -62.405782 
L 252.490607 -62.71059 
L 248.986139 -63.015397 
L 245.894807 -63.320205 
L 243.269007 -63.625012 
L 241.12947 -63.92982 
L 239.444565 -64.234627 
L 238.124753 -64.539435 
L 237.041705 -64.844242 
L 236.068603 -65.14905 
L 235.125955 -65.453858 
L 234.213111 -65.758665 
L 233.411898 -66.063473 
L 232.861802 -66.36828 
L 232.7184 -66.673088 
L 233.112008 -66.977895 
L 234.120021 -67.282703 
L 235.757629 -67.58751 
L 237.983156 -67.892318 
L 240.710298 -68.197125 
L 243.820705 -68.501933 
L 247.174312 -68.80674 
L 250.618564 -69.111548 
L 253.99932 -69.416355 
L 257.175485 -69.721163 
L 260.036958 -70.025971 
L 262.522549 -70.330778 
L 264.632238 -70.635586 
L 266.427835 -70.940393 
L 268.018684 -71.245201 
L 269.534002 -71.550008 
L 271.089056 -71.854816 
L 272.755814 -72.159623 
L 274.547928 -72.464431 
L 276.424851 -72.769238 
L 278.312581 -73.074046 
L 280.132253 -73.378853 
L 281.82541 -73.683661 
L 283.367214 -73.988469 
L 284.764731 -74.293276 
L 286.043758 -74.598084 
L 287.231568 -74.902891 
L 288.34301 -75.207699 
L 289.374537 -75.512506 
L 290.306775 -75.817314 
L 291.113258 -76.122121 
L 291.771545 -76.426929 
L 292.272905 -76.731736 
L 292.627576 -77.036544 
L 292.864049 -77.341351 
L 293.022736 -77.646159 
L 293.146326 -77.950967 
L 293.270329 -78.255774 
L 293.416944 -78.560582 
L 293.593748 -78.865389 
L 293.796586 -79.170197 
L 294.014663 -79.475004 
L 294.235695 -79.779812 
L 294.449689 -80.084619 
L 294.650886 -80.389427 
L 294.837967 -80.694234 
L 295.012883 -80.999042 
L 295.178833 -81.303849 
L 295.338092 -81.608657 
L 295.490493 -81.913464 
L 295.633146 -82.218272 
L 295.76144 -82.52308 
L 295.870807 -82.827887 
L 295.958379 -83.132695 
L 296.023875 -83.437502 
L 296.06948 -83.74231 
L 296.20252 -83.74231 
L 296.20252 -83.74231 
L 296.248125 -83.437502 
L 296.313621 -83.132695 
L 296.401193 -82.827887 
L 296.51056 -82.52308 
L 296.638854 -82.218272 
L 296.781507 -81.913464 
L 296.933908 -81.608657 
L 297.093167 -81.303849 
L 297.259117 -80.999042 
L 297.434033 -80.694234 
L 297.621114 -80.389427 
L 297.822311 -80.084619 
L 298.036305 -79.779812 
L 298.257337 -79.475004 
L 298.475414 -79.170197 
L 298.678252 -78.865389 
L 298.855056 -78.560582 
L 299.001671 -78.255774 
L 299.125674 -77.950967 
L 299.249264 -77.646159 
L 299.407951 -77.341351 
L 299.644424 -77.036544 
L 299.999095 -76.731736 
L 300.500455 -76.426929 
L 301.158742 -76.122121 
L 301.965225 -75.817314 
L 302.897463 -75.512506 
L 303.92899 -75.207699 
L 305.040432 -74.902891 
L 306.228242 -74.598084 
L 307.507269 -74.293276 
L 308.904786 -73.988469 
L 310.44659 -73.683661 
L 312.139747 -73.378853 
L 313.959419 -73.074046 
L 315.847149 -72.769238 
L 317.724072 -72.464431 
L 319.516186 -72.159623 
L 321.182944 -71.854816 
L 322.737998 -71.550008 
L 324.253316 -71.245201 
L 325.844165 -70.940393 
L 327.639762 -70.635586 
L 329.749451 -70.330778 
L 332.235042 -70.025971 
L 335.096515 -69.721163 
L 338.27268 -69.416355 
L 341.653436 -69.111548 
L 345.097688 -68.80674 
L 348.451295 -68.501933 
L 351.561702 -68.197125 
L 354.288844 -67.892318 
L 356.514371 -67.58751 
L 358.151979 -67.282703 
L 359.159992 -66.977895 
L 359.5536 -66.673088 
L 359.410198 -66.36828 
L 358.860102 -66.063473 
L 358.058889 -65.758665 
L 357.146045 -65.453858 
L 356.203397 -65.14905 
L 355.230295 -64.844242 
L 354.147247 -64.539435 
L 352.827435 -64.234627 
L 351.14253 -63.92982 
L 349.002993 -63.625012 
L 346.377193 -63.320205 
L 343.285861 -63.015397 
L 339.781393 -62.71059 
L 335.927751 -62.405782 
L 331.793006 -62.100975 
L 327.456135 -61.796167 
L 323.019576 -61.49136 
L 318.615488 -61.186552 
L 314.39798 -60.881744 
L 310.522026 -60.576937 
L 307.116851 -60.272129 
L 304.263764 -59.967322 
L 301.985738 -59.662514 
L 300.25086 -59.357707 
L 298.986939 -59.052899 
L 298.101601 -58.748092 
L 297.501663 -58.443284 
L 297.106995 -58.138477 
L 296.856682 -57.833669 
L 296.70811 -57.528862 
L 296.631649 -57.224054 
L 296.604375 -56.919247 
L 296.605666 -56.614439 
L 296.615999 -56.309631 
L 296.618525 -56.004824 
L 296.601807 -55.700016 
L 296.561786 -55.395209 
L 296.501719 -55.090401 
L 296.429982 -54.785594 
L 296.356697 -54.480786 
L 296.290563 -54.175979 
L 296.236926 -53.871171 
L 296.197428 -53.566364 
z
" style="stroke: #595959; stroke-width: 1.25"/>
    </defs>
    <g clip-path="url(#p8538281bdf)">
     <use xlink:href="#m50ef5e97db" x="0" y="432" style="fill: #e99675; stroke: #595959; stroke-width: 1.25"/>
    </g>
   </g>
   <g id="PolyCollection_3">
    <defs>
     <path id="m1a9e3ef9a2" d="M 456.136364 -193.297648 
L 453.223636 -193.297648 
L 452.447759 -195.261243 
L 451.34621 -197.224839 
L 449.828476 -199.188435 
L 447.80014 -201.152031 
L 445.172566 -203.115627 
L 441.875784 -205.079223 
L 437.873587 -207.042818 
L 433.178951 -209.006414 
L 427.86726 -210.97001 
L 422.084376 -212.933606 
L 416.046876 -214.897202 
L 410.032579 -216.860798 
L 404.360992 -218.824394 
L 399.365131 -220.787989 
L 395.358038 -222.751585 
L 392.598662 -224.715181 
L 391.2624 -226.678777 
L 391.421073 -228.642373 
L 393.035641 -230.605969 
L 395.962789 -232.569565 
L 399.97408 -234.53316 
L 404.78426 -236.496756 
L 410.083957 -238.460352 
L 415.571661 -240.423948 
L 420.980537 -242.387544 
L 426.097037 -244.35114 
L 430.770053 -246.314735 
L 434.911105 -248.278331 
L 438.487386 -250.241927 
L 441.510224 -252.205523 
L 444.021659 -254.169119 
L 446.081439 -256.132715 
L 447.756068 -258.096311 
L 449.110716 -260.059906 
L 450.204165 -262.023502 
L 451.086375 -263.987098 
L 451.798059 -265.950694 
L 452.371511 -267.91429 
L 452.832058 -269.877886 
L 453.199648 -271.841481 
L 453.490255 -273.805077 
L 453.716975 -275.768673 
L 453.890785 -277.732269 
L 454.021015 -279.695865 
L 454.115624 -281.659461 
L 454.181356 -283.623057 
L 454.223846 -285.586652 
L 454.247694 -287.550248 
L 454.256515 -289.513844 
L 454.252934 -291.47744 
L 454.238495 -293.441036 
L 454.213451 -295.404632 
L 454.176452 -297.368227 
L 454.12416 -299.331823 
L 454.050878 -301.295419 
L 453.948328 -303.259015 
L 453.805716 -305.222611 
L 453.610238 -307.186207 
L 453.348113 -309.149803 
L 453.006182 -311.113398 
L 452.573967 -313.076994 
L 452.045975 -315.04059 
L 451.42391 -317.004186 
L 450.718375 -318.967782 
L 449.949647 -320.931378 
L 449.147184 -322.894973 
L 448.347731 -324.858569 
L 447.592116 -326.822165 
L 446.921121 -328.785761 
L 446.371035 -330.749357 
L 445.969625 -332.712953 
L 445.733208 -334.676549 
L 445.665366 -336.640144 
L 445.757477 -338.60374 
L 445.990915 -340.567336 
L 446.340435 -342.530932 
L 446.778033 -344.494528 
L 447.276543 -346.458124 
L 447.81237 -348.421719 
L 448.366984 -350.385315 
L 448.927144 -352.348911 
L 449.484072 -354.312507 
L 450.032021 -356.276103 
L 450.566705 -358.239699 
L 451.084006 -360.203295 
L 451.579227 -362.16689 
L 452.046951 -364.130486 
L 452.481415 -366.094082 
L 452.87719 -368.057678 
L 453.229927 -370.021274 
L 453.536963 -371.98487 
L 453.797649 -373.948465 
L 454.013367 -375.912061 
L 454.187264 -377.875657 
L 454.3238 -379.839253 
L 454.428212 -381.802849 
L 454.505987 -383.766445 
L 454.56243 -385.730041 
L 454.602346 -387.693636 
L 454.757654 -387.693636 
L 454.757654 -387.693636 
L 454.79757 -385.730041 
L 454.854013 -383.766445 
L 454.931788 -381.802849 
L 455.0362 -379.839253 
L 455.172736 -377.875657 
L 455.346633 -375.912061 
L 455.562351 -373.948465 
L 455.823037 -371.98487 
L 456.130073 -370.021274 
L 456.48281 -368.057678 
L 456.878585 -366.094082 
L 457.313049 -364.130486 
L 457.780773 -362.16689 
L 458.275994 -360.203295 
L 458.793295 -358.239699 
L 459.327979 -356.276103 
L 459.875928 -354.312507 
L 460.432856 -352.348911 
L 460.993016 -350.385315 
L 461.54763 -348.421719 
L 462.083457 -346.458124 
L 462.581967 -344.494528 
L 463.019565 -342.530932 
L 463.369085 -340.567336 
L 463.602523 -338.60374 
L 463.694634 -336.640144 
L 463.626792 -334.676549 
L 463.390375 -332.712953 
L 462.988965 -330.749357 
L 462.438879 -328.785761 
L 461.767884 -326.822165 
L 461.012269 -324.858569 
L 460.212816 -322.894973 
L 459.410353 -320.931378 
L 458.641625 -318.967782 
L 457.93609 -317.004186 
L 457.314025 -315.04059 
L 456.786033 -313.076994 
L 456.353818 -311.113398 
L 456.011887 -309.149803 
L 455.749762 -307.186207 
L 455.554284 -305.222611 
L 455.411672 -303.259015 
L 455.309122 -301.295419 
L 455.23584 -299.331823 
L 455.183548 -297.368227 
L 455.146549 -295.404632 
L 455.121505 -293.441036 
L 455.107066 -291.47744 
L 455.103485 -289.513844 
L 455.112306 -287.550248 
L 455.136154 -285.586652 
L 455.178644 -283.623057 
L 455.244376 -281.659461 
L 455.338985 -279.695865 
L 455.469215 -277.732269 
L 455.643025 -275.768673 
L 455.869745 -273.805077 
L 456.160352 -271.841481 
L 456.527942 -269.877886 
L 456.988489 -267.91429 
L 457.561941 -265.950694 
L 458.273625 -263.987098 
L 459.155835 -262.023502 
L 460.249284 -260.059906 
L 461.603932 -258.096311 
L 463.278561 -256.132715 
L 465.338341 -254.169119 
L 467.849776 -252.205523 
L 470.872614 -250.241927 
L 474.448895 -248.278331 
L 478.589947 -246.314735 
L 483.262963 -244.35114 
L 488.379463 -242.387544 
L 493.788339 -240.423948 
L 499.276043 -238.460352 
L 504.57574 -236.496756 
L 509.38592 -234.53316 
L 513.397211 -232.569565 
L 516.324359 -230.605969 
L 517.938927 -228.642373 
L 518.0976 -226.678777 
L 516.761338 -224.715181 
L 514.001962 -222.751585 
L 509.994869 -220.787989 
L 504.999008 -218.824394 
L 499.327421 -216.860798 
L 493.313124 -214.897202 
L 487.275624 -212.933606 
L 481.49274 -210.97001 
L 476.181049 -209.006414 
L 471.486413 -207.042818 
L 467.484216 -205.079223 
L 464.187434 -203.115627 
L 461.55986 -201.152031 
L 459.531524 -199.188435 
L 458.01379 -197.224839 
L 456.912241 -195.261243 
L 456.136364 -193.297648 
z
" style="stroke: #595959; stroke-width: 1.25"/>
    </defs>
    <g clip-path="url(#p8538281bdf)">
     <use xlink:href="#m1a9e3ef9a2" x="0" y="432" style="fill: #95a3c3; stroke: #595959; stroke-width: 1.25"/>
    </g>
   </g>
   <g id="PolyCollection_4">
    <defs>
     <path id="mb4a26dba7c" d="M 613.521089 -87.098264 
L 612.926911 -87.098264 
L 612.666962 -87.851998 
L 612.225434 -88.605732 
L 611.510786 -89.359466 
L 610.407836 -90.1132 
L 608.78371 -90.866935 
L 606.500347 -91.620669 
L 603.433303 -92.374403 
L 599.494812 -93.128137 
L 594.657803 -93.881871 
L 588.977243 -94.635605 
L 582.605823 -95.389339 
L 575.801817 -96.143074 
L 568.926837 -96.896808 
L 562.429961 -97.650542 
L 556.81374 -98.404276 
L 552.579139 -99.15801 
L 550.152452 -99.911744 
L 549.8064 -100.665478 
L 551.595787 -101.419213 
L 555.329825 -102.172947 
L 560.595302 -102.926681 
L 566.829182 -103.680415 
L 573.422357 -104.434149 
L 579.825757 -105.187883 
L 585.630512 -105.941617 
L 590.604498 -106.695352 
L 594.683143 -107.449086 
L 597.926253 -108.20282 
L 600.459981 -108.956554 
L 602.422859 -109.710288 
L 603.928763 -110.464022 
L 605.051271 -111.217756 
L 605.82635 -111.971491 
L 606.265807 -112.725225 
L 606.373077 -113.478959 
L 606.155142 -114.232693 
L 605.628183 -114.986427 
L 604.81826 -115.740161 
L 603.760484 -116.493895 
L 602.500033 -117.24763 
L 601.096331 -118.001364 
L 599.628746 -118.755098 
L 598.19987 -119.508832 
L 596.932091 -120.262566 
L 595.955165 -121.0163 
L 595.386209 -121.770034 
L 595.307308 -122.523769 
L 595.747846 -123.277503 
L 596.677655 -124.031237 
L 598.013414 -124.784971 
L 599.635972 -125.538705 
L 601.412803 -126.292439 
L 603.218912 -127.046173 
L 604.951403 -127.799907 
L 606.53616 -128.553642 
L 607.927995 -129.307376 
L 609.106938 -130.06111 
L 610.073113 -130.814844 
L 610.841505 -131.568578 
L 611.436975 -132.322312 
L 611.889491 -133.076046 
L 612.229718 -133.829781 
L 612.485399 -134.583515 
L 612.679058 -135.337249 
L 612.827256 -136.090983 
L 612.941211 -136.844717 
L 613.028232 -137.598451 
L 613.093308 -138.352185 
L 613.140357 -139.10592 
L 613.17291 -139.859654 
L 613.194297 -140.613388 
L 613.207541 -141.367122 
L 613.215159 -142.120856 
L 613.219009 -142.87459 
L 613.220227 -143.628324 
L 613.219219 -144.382059 
L 613.215673 -145.135793 
L 613.208589 -145.889527 
L 613.196339 -146.643261 
L 613.176854 -147.396995 
L 613.147995 -148.150729 
L 613.108141 -148.904463 
L 613.056923 -149.658198 
L 612.995931 -150.411932 
L 612.929106 -151.165666 
L 612.862609 -151.9194 
L 612.804017 -152.673134 
L 612.760962 -153.426868 
L 612.73954 -154.180602 
L 612.742917 -154.934337 
L 612.770591 -155.688071 
L 612.8185 -156.441805 
L 612.879986 -157.195539 
L 612.947276 -157.949273 
L 613.013059 -158.703007 
L 613.071718 -159.456741 
L 613.119955 -160.210476 
L 613.156766 -160.96421 
L 613.182935 -161.717944 
L 613.265065 -161.717944 
L 613.265065 -161.717944 
L 613.291234 -160.96421 
L 613.328045 -160.210476 
L 613.376282 -159.456741 
L 613.434941 -158.703007 
L 613.500724 -157.949273 
L 613.568014 -157.195539 
L 613.6295 -156.441805 
L 613.677409 -155.688071 
L 613.705083 -154.934337 
L 613.70846 -154.180602 
L 613.687038 -153.426868 
L 613.643983 -152.673134 
L 613.585391 -151.9194 
L 613.518894 -151.165666 
L 613.452069 -150.411932 
L 613.391077 -149.658198 
L 613.339859 -148.904463 
L 613.300005 -148.150729 
L 613.271146 -147.396995 
L 613.251661 -146.643261 
L 613.239411 -145.889527 
L 613.232327 -145.135793 
L 613.228781 -144.382059 
L 613.227773 -143.628324 
L 613.228991 -142.87459 
L 613.232841 -142.120856 
L 613.240459 -141.367122 
L 613.253703 -140.613388 
L 613.27509 -139.859654 
L 613.307643 -139.10592 
L 613.354692 -138.352185 
L 613.419768 -137.598451 
L 613.506789 -136.844717 
L 613.620744 -136.090983 
L 613.768942 -135.337249 
L 613.962601 -134.583515 
L 614.218282 -133.829781 
L 614.558509 -133.076046 
L 615.011025 -132.322312 
L 615.606495 -131.568578 
L 616.374887 -130.814844 
L 617.341062 -130.06111 
L 618.520005 -129.307376 
L 619.91184 -128.553642 
L 621.496597 -127.799907 
L 623.229088 -127.046173 
L 625.035197 -126.292439 
L 626.812028 -125.538705 
L 628.434586 -124.784971 
L 629.770345 -124.031237 
L 630.700154 -123.277503 
L 631.140692 -122.523769 
L 631.061791 -121.770034 
L 630.492835 -121.0163 
L 629.515909 -120.262566 
L 628.24813 -119.508832 
L 626.819254 -118.755098 
L 625.351669 -118.001364 
L 623.947967 -117.24763 
L 622.687516 -116.493895 
L 621.62974 -115.740161 
L 620.819817 -114.986427 
L 620.292858 -114.232693 
L 620.074923 -113.478959 
L 620.182193 -112.725225 
L 620.62165 -111.971491 
L 621.396729 -111.217756 
L 622.519237 -110.464022 
L 624.025141 -109.710288 
L 625.988019 -108.956554 
L 628.521747 -108.20282 
L 631.764857 -107.449086 
L 635.843502 -106.695352 
L 640.817488 -105.941617 
L 646.622243 -105.187883 
L 653.025643 -104.434149 
L 659.618818 -103.680415 
L 665.852698 -102.926681 
L 671.118175 -102.172947 
L 674.852213 -101.419213 
L 676.6416 -100.665478 
L 676.295548 -99.911744 
L 673.868861 -99.15801 
L 669.63426 -98.404276 
L 664.018039 -97.650542 
L 657.521163 -96.896808 
L 650.646183 -96.143074 
L 643.842177 -95.389339 
L 637.470757 -94.635605 
L 631.790197 -93.881871 
L 626.953188 -93.128137 
L 623.014697 -92.374403 
L 619.947653 -91.620669 
L 617.66429 -90.866935 
L 616.040164 -90.1132 
L 614.937214 -89.359466 
L 614.222566 -88.605732 
L 613.781038 -87.851998 
L 613.521089 -87.098264 
z
" style="stroke: #595959; stroke-width: 1.25"/>
    </defs>
    <g clip-path="url(#p8538281bdf)">
     <use xlink:href="#mb4a26dba7c" x="0" y="432" style="fill: #db96c0; stroke: #595959; stroke-width: 1.25"/>
    </g>
   </g>
   <g id="PolyCollection_5">
    <defs>
     <path id="mc13d4e1135" d="M 772.021253 -56.049378 
L 771.514747 -56.049378 
L 771.231386 -56.505579 
L 770.734864 -56.96178 
L 769.943764 -57.417981 
L 768.779588 -57.874182 
L 767.167885 -58.330383 
L 765.034393 -58.786584 
L 762.311799 -59.242785 
L 758.968885 -59.698986 
L 755.049612 -60.155187 
L 750.689855 -60.611388 
L 746.09141 -61.067589 
L 741.467438 -61.52379 
L 736.991402 -61.979991 
L 732.765955 -62.436192 
L 728.807974 -62.892393 
L 725.052742 -63.348594 
L 721.398738 -63.804795 
L 717.801258 -64.260996 
L 714.372134 -64.717197 
L 711.406763 -65.173398 
L 709.293488 -65.629599 
L 708.3504 -66.0858 
L 708.69951 -66.542 
L 710.259404 -66.998201 
L 712.837539 -67.454402 
L 716.229678 -67.910603 
L 720.254652 -68.366804 
L 724.731509 -68.823005 
L 729.451659 -69.279206 
L 734.175919 -69.735407 
L 738.6476 -70.191608 
L 742.613244 -70.647809 
L 745.866438 -71.10401 
L 748.323464 -71.560211 
L 750.094075 -72.016412 
L 751.48035 -72.472613 
L 752.870439 -72.928814 
L 754.573032 -73.385015 
L 756.690715 -73.841216 
L 759.105638 -74.297417 
L 761.571296 -74.753618 
L 763.839875 -75.209819 
L 765.752086 -75.66602 
L 767.261101 -76.122221 
L 768.406496 -76.578422 
L 769.269376 -77.034623 
L 769.932345 -77.490824 
L 770.45563 -77.947025 
L 770.871576 -78.403226 
L 771.192992 -78.859427 
L 771.426489 -79.315628 
L 771.5822 -79.771829 
L 771.67613 -80.22803 
L 771.726952 -80.684231 
L 771.751497 -81.140432 
L 771.762049 -81.596633 
L 771.76608 -82.052834 
L 771.767447 -82.509035 
L 771.767858 -82.965236 
L 771.767967 -83.421437 
L 771.767993 -83.877638 
L 771.767999 -84.333839 
L 771.767999 -84.79004 
L 771.767996 -85.246241 
L 771.76798 -85.702442 
L 771.76791 -86.158643 
L 771.767649 -86.614844 
L 771.766785 -87.071045 
L 771.764272 -87.527246 
L 771.757858 -87.983447 
L 771.743545 -88.439648 
L 771.715728 -88.895849 
L 771.668956 -89.35205 
L 771.601644 -89.808251 
L 771.520315 -90.264452 
L 771.441105 -90.720653 
L 771.385556 -91.176854 
L 771.371376 -91.633055 
L 771.403376 -92.089256 
L 771.470837 -92.545457 
L 771.553214 -93.001658 
L 771.629975 -93.457859 
L 771.687939 -93.91406 
L 771.722384 -94.370261 
L 771.732947 -94.826462 
L 771.718148 -95.282663 
L 771.672371 -95.738864 
L 771.58771 -96.195064 
L 771.460938 -96.651265 
L 771.302605 -97.107466 
L 771.141836 -97.563667 
L 771.020426 -98.019868 
L 770.976059 -98.476069 
L 771.023611 -98.93227 
L 771.147168 -99.388471 
L 771.308575 -99.844672 
L 771.466339 -100.300873 
L 771.592254 -100.757074 
L 771.677153 -101.213275 
L 771.858847 -101.213275 
L 771.858847 -101.213275 
L 771.943746 -100.757074 
L 772.069661 -100.300873 
L 772.227425 -99.844672 
L 772.388832 -99.388471 
L 772.512389 -98.93227 
L 772.559941 -98.476069 
L 772.515574 -98.019868 
L 772.394164 -97.563667 
L 772.233395 -97.107466 
L 772.075062 -96.651265 
L 771.94829 -96.195064 
L 771.863629 -95.738864 
L 771.817852 -95.282663 
L 771.803053 -94.826462 
L 771.813616 -94.370261 
L 771.848061 -93.91406 
L 771.906025 -93.457859 
L 771.982786 -93.001658 
L 772.065163 -92.545457 
L 772.132624 -92.089256 
L 772.164624 -91.633055 
L 772.150444 -91.176854 
L 772.094895 -90.720653 
L 772.015685 -90.264452 
L 771.934356 -89.808251 
L 771.867044 -89.35205 
L 771.820272 -88.895849 
L 771.792455 -88.439648 
L 771.778142 -87.983447 
L 771.771728 -87.527246 
L 771.769215 -87.071045 
L 771.768351 -86.614844 
L 771.76809 -86.158643 
L 771.76802 -85.702442 
L 771.768004 -85.246241 
L 771.768001 -84.79004 
L 771.768001 -84.333839 
L 771.768007 -83.877638 
L 771.768033 -83.421437 
L 771.768142 -82.965236 
L 771.768553 -82.509035 
L 771.76992 -82.052834 
L 771.773951 -81.596633 
L 771.784503 -81.140432 
L 771.809048 -80.684231 
L 771.85987 -80.22803 
L 771.9538 -79.771829 
L 772.109511 -79.315628 
L 772.343008 -78.859427 
L 772.664424 -78.403226 
L 773.08037 -77.947025 
L 773.603655 -77.490824 
L 774.266624 -77.034623 
L 775.129504 -76.578422 
L 776.274899 -76.122221 
L 777.783914 -75.66602 
L 779.696125 -75.209819 
L 781.964704 -74.753618 
L 784.430362 -74.297417 
L 786.845285 -73.841216 
L 788.962968 -73.385015 
L 790.665561 -72.928814 
L 792.05565 -72.472613 
L 793.441925 -72.016412 
L 795.212536 -71.560211 
L 797.669562 -71.10401 
L 800.922756 -70.647809 
L 804.8884 -70.191608 
L 809.360081 -69.735407 
L 814.084341 -69.279206 
L 818.804491 -68.823005 
L 823.281348 -68.366804 
L 827.306322 -67.910603 
L 830.698461 -67.454402 
L 833.276596 -66.998201 
L 834.83649 -66.542 
L 835.1856 -66.0858 
L 834.242512 -65.629599 
L 832.129237 -65.173398 
L 829.163866 -64.717197 
L 825.734742 -64.260996 
L 822.137262 -63.804795 
L 818.483258 -63.348594 
L 814.728026 -62.892393 
L 810.770045 -62.436192 
L 806.544598 -61.979991 
L 802.068562 -61.52379 
L 797.44459 -61.067589 
L 792.846145 -60.611388 
L 788.486388 -60.155187 
L 784.567115 -59.698986 
L 781.224201 -59.242785 
L 778.501607 -58.786584 
L 776.368115 -58.330383 
L 774.756412 -57.874182 
L 773.592236 -57.417981 
L 772.801136 -56.96178 
L 772.304614 -56.505579 
L 772.021253 -56.049378 
z
" style="stroke: #595959; stroke-width: 1.25"/>
    </defs>
    <g clip-path="url(#p8538281bdf)">
     <use xlink:href="#mc13d4e1135" x="0" y="432" style="fill: #a2c865; stroke: #595959; stroke-width: 1.25"/>
    </g>
   </g>
   <g id="line2d_9">
    <path d="M 137.592 362.524029 
L 137.592 367.453836 
" clip-path="url(#p8538281bdf)" style="fill: none; stroke: #000000"/>
   </g>
   <g id="line2d_10">
    <path d="M 137.592 357.359469 
L 137.592 349.61263 
" clip-path="url(#p8538281bdf)" style="fill: none; stroke: #000000"/>
   </g>
   <g id="line2d_11">
    <path d="M 131.6466 367.453836 
L 143.5374 367.453836 
" clip-path="url(#p8538281bdf)" style="fill: none; stroke: #000000; stroke-linecap: round"/>
   </g>
   <g id="line2d_12">
    <path d="M 131.6466 349.61263 
L 143.5374 349.61263 
" clip-path="url(#p8538281bdf)" style="fill: none; stroke: #000000; stroke-linecap: round"/>
   </g>
   <g id="line2d_13">
    <path d="M 296.136 367.688588 
L 296.136 373.322653 
" clip-path="url(#p8538281bdf)" style="fill: none; stroke: #000000"/>
   </g>
   <g id="line2d_14">
    <path d="M 296.136 362.758782 
L 296.136 355.950953 
" clip-path="url(#p8538281bdf)" style="fill: none; stroke: #000000"/>
   </g>
   <g id="line2d_15">
    <path d="M 290.1906 373.322653 
L 302.0814 373.322653 
" clip-path="url(#p8538281bdf)" style="fill: none; stroke: #000000; stroke-linecap: round"/>
   </g>
   <g id="line2d_16">
    <path d="M 290.1906 355.950953 
L 302.0814 355.950953 
" clip-path="url(#p8538281bdf)" style="fill: none; stroke: #000000; stroke-linecap: round"/>
   </g>
   <g id="line2d_17">
    <path d="M 454.68 206.882986 
L 454.68 215.099331 
" clip-path="url(#p8538281bdf)" style="fill: none; stroke: #000000"/>
   </g>
   <g id="line2d_18">
    <path d="M 454.68 196.78862 
L 454.68 181.764447 
" clip-path="url(#p8538281bdf)" style="fill: none; stroke: #000000"/>
   </g>
   <g id="line2d_19">
    <path d="M 448.7346 215.099331 
L 460.6254 215.099331 
" clip-path="url(#p8538281bdf)" style="fill: none; stroke: #000000; stroke-linecap: round"/>
   </g>
   <g id="line2d_20">
    <path d="M 448.7346 181.764447 
L 460.6254 181.764447 
" clip-path="url(#p8538281bdf)" style="fill: none; stroke: #000000; stroke-linecap: round"/>
   </g>
   <g id="line2d_21">
    <path d="M 613.224 332.475683 
L 613.224 338.814006 
" clip-path="url(#p8538281bdf)" style="fill: none; stroke: #000000"/>
   </g>
   <g id="line2d_22">
    <path d="M 613.224 321.853123 
L 613.224 305.948627 
" clip-path="url(#p8538281bdf)" style="fill: none; stroke: #000000"/>
   </g>
   <g id="line2d_23">
    <path d="M 607.2786 338.814006 
L 619.1694 338.814006 
" clip-path="url(#p8538281bdf)" style="fill: none; stroke: #000000; stroke-linecap: round"/>
   </g>
   <g id="line2d_24">
    <path d="M 607.2786 305.948627 
L 619.1694 305.948627 
" clip-path="url(#p8538281bdf)" style="fill: none; stroke: #000000; stroke-linecap: round"/>
   </g>
   <g id="line2d_25">
    <path d="M 771.768 367.923341 
L 771.768 373.322653 
" clip-path="url(#p8538281bdf)" style="fill: none; stroke: #000000"/>
   </g>
   <g id="line2d_26">
    <path d="M 771.768 362.993534 
L 771.768 355.950953 
" clip-path="url(#p8538281bdf)" style="fill: none; stroke: #000000"/>
   </g>
   <g id="line2d_27">
    <path d="M 765.8226 373.322653 
L 777.7134 373.322653 
" clip-path="url(#p8538281bdf)" style="fill: none; stroke: #000000; stroke-linecap: round"/>
   </g>
   <g id="line2d_28">
    <path d="M 765.8226 355.950953 
L 777.7134 355.950953 
" clip-path="url(#p8538281bdf)" style="fill: none; stroke: #000000; stroke-linecap: round"/>
   </g>
   <g id="line2d_29">
    <path d="M 125.7012 359.941749 
L 149.4828 359.941749 
" clip-path="url(#p8538281bdf)" style="fill: none; stroke: #ff0000; stroke-width: 2"/>
   </g>
   <g id="line2d_30">
    <path d="M 284.2452 365.341061 
L 308.0268 365.341061 
" clip-path="url(#p8538281bdf)" style="fill: none; stroke: #ff0000; stroke-width: 2"/>
   </g>
   <g id="line2d_31">
    <path d="M 442.7892 204.065954 
L 466.5708 204.065954 
" clip-path="url(#p8538281bdf)" style="fill: none; stroke: #ff0000; stroke-width: 2"/>
   </g>
   <g id="line2d_32">
    <path d="M 601.3332 330.362908 
L 625.1148 330.362908 
" clip-path="url(#p8538281bdf)" style="fill: none; stroke: #ff0000; stroke-width: 2"/>
   </g>
   <g id="line2d_33">
    <path d="M 759.8772 365.575814 
L 783.6588 365.575814 
" clip-path="url(#p8538281bdf)" style="fill: none; stroke: #ff0000; stroke-width: 2"/>
   </g>
   <g id="patch_3">
    <path d="M 58.32 395.14 
L 58.32 27.6 
" style="fill: none; stroke: #cccccc; stroke-width: 1.25; stroke-linejoin: miter; stroke-linecap: square"/>
   </g>
   <g id="patch_4">
    <path d="M 851.04 395.14 
L 851.04 27.6 
" style="fill: none; stroke: #cccccc; stroke-width: 1.25; stroke-linejoin: miter; stroke-linecap: square"/>
   </g>
   <g id="patch_5">
    <path d="M 58.32 395.14 
L 851.04 395.14 
" style="fill: none; stroke: #cccccc; stroke-width: 1.25; stroke-linejoin: miter; stroke-linecap: square"/>
   </g>
   <g id="patch_6">
    <path d="M 58.32 27.6 
L 851.04 27.6 
" style="fill: none; stroke: #cccccc; stroke-width: 1.25; stroke-linejoin: miter; stroke-linecap: square"/>
   </g>
   <g id="text_15">
    <!-- Handshake duration on QUIC with mldsa44 signature algorithm — Backbone (200ms/4%) -->
    <g style="fill: #262626" transform="translate(186.57375 21.6) scale(0.12 -0.12)">
     <defs>
      <path id="DejaVuSans-51" d="M 2522 4238 
Q 1834 4238 1429 3725 
Q 1025 3213 1025 2328 
Q 1025 1447 1429 934 
Q 1834 422 2522 422 
Q 3209 422 3611 934 
Q 4013 1447 4013 2328 
Q 4013 3213 3611 3725 
Q 3209 4238 2522 4238 
z
M 3406 84 
L 4238 -825 
L 3475 -825 
L 2784 -78 
Q 2681 -84 2626 -87 
Q 2572 -91 2522 -91 
Q 1538 -91 948 567 
Q 359 1225 359 2328 
Q 359 3434 948 4092 
Q 1538 4750 2522 4750 
Q 3503 4750 4090 4092 
Q 4678 3434 4678 2328 
Q 4678 1516 4351 937 
Q 4025 359 3406 84 
z
" transform="scale(0.015625)"/>
      <path id="DejaVuSans-55" d="M 556 4666 
L 1191 4666 
L 1191 1831 
Q 1191 1081 1462 751 
Q 1734 422 2344 422 
Q 2950 422 3222 751 
Q 3494 1081 3494 1831 
L 3494 4666 
L 4128 4666 
L 4128 1753 
Q 4128 841 3676 375 
Q 3225 -91 2344 -91 
Q 1459 -91 1007 375 
Q 556 841 556 1753 
L 556 4666 
z
" transform="scale(0.015625)"/>
      <path id="DejaVuSans-49" d="M 628 4666 
L 1259 4666 
L 1259 0 
L 628 0 
L 628 4666 
z
" transform="scale(0.015625)"/>
      <path id="DejaVuSans-43" d="M 4122 4306 
L 4122 3641 
Q 3803 3938 3442 4084 
Q 3081 4231 2675 4231 
Q 1875 4231 1450 3742 
Q 1025 3253 1025 2328 
Q 1025 1406 1450 917 
Q 1875 428 2675 428 
Q 3081 428 3442 575 
Q 3803 722 4122 1019 
L 4122 359 
Q 3791 134 3420 21 
Q 3050 -91 2638 -91 
Q 1578 -91 968 557 
Q 359 1206 359 2328 
Q 359 3453 968 4101 
Q 1578 4750 2638 4750 
Q 3056 4750 3426 4639 
Q 3797 4528 4122 4306 
z
" transform="scale(0.015625)"/>
      <path id="DejaVuSans-77" d="M 269 3500 
L 844 3500 
L 1563 769 
L 2278 3500 
L 2956 3500 
L 3675 769 
L 4391 3500 
L 4966 3500 
L 4050 0 
L 3372 0 
L 2619 2869 
L 1863 0 
L 1184 0 
L 269 3500 
z
" transform="scale(0.015625)"/>
      <path id="DejaVuSans-67" d="M 2906 1791 
Q 2906 2416 2648 2759 
Q 2391 3103 1925 3103 
Q 1463 3103 1205 2759 
Q 947 2416 947 1791 
Q 947 1169 1205 825 
Q 1463 481 1925 481 
Q 2391 481 2648 825 
Q 2906 1169 2906 1791 
z
M 3481 434 
Q 3481 -459 3084 -895 
Q 2688 -1331 1869 -1331 
Q 1566 -1331 1297 -1286 
Q 1028 -1241 775 -1147 
L 775 -588 
Q 1028 -725 1275 -790 
Q 1522 -856 1778 -856 
Q 2344 -856 2625 -561 
Q 2906 -266 2906 331 
L 2906 616 
Q 2728 306 2450 153 
Q 2172 0 1784 0 
Q 1141 0 747 490 
Q 353 981 353 1791 
Q 353 2603 747 3093 
Q 1141 3584 1784 3584 
Q 2172 3584 2450 3431 
Q 2728 3278 2906 2969 
L 2906 3500 
L 3481 3500 
L 3481 434 
z
" transform="scale(0.015625)"/>
      <path id="DejaVuSans-2014" d="M 313 1978 
L 6088 1978 
L 6088 1528 
L 313 1528 
L 313 1978 
z
" transform="scale(0.015625)"/>
      <path id="DejaVuSans-42" d="M 1259 2228 
L 1259 519 
L 2272 519 
Q 2781 519 3026 730 
Q 3272 941 3272 1375 
Q 3272 1813 3026 2020 
Q 2781 2228 2272 2228 
L 1259 2228 
z
M 1259 4147 
L 1259 2741 
L 2194 2741 
Q 2656 2741 2882 2914 
Q 3109 3088 3109 3444 
Q 3109 3797 2882 3972 
Q 2656 4147 2194 4147 
L 1259 4147 
z
M 628 4666 
L 2241 4666 
Q 2963 4666 3353 4366 
Q 3744 4066 3744 3513 
Q 3744 3084 3544 2831 
Q 3344 2578 2956 2516 
Q 3422 2416 3680 2098 
Q 3938 1781 3938 1306 
Q 3938 681 3513 340 
Q 3088 0 2303 0 
L 628 0 
L 628 4666 
z
" transform="scale(0.015625)"/>
      <path id="DejaVuSans-63" d="M 3122 3366 
L 3122 2828 
Q 2878 2963 2633 3030 
Q 2388 3097 2138 3097 
Q 1578 3097 1268 2742 
Q 959 2388 959 1747 
Q 959 1106 1268 751 
Q 1578 397 2138 397 
Q 2388 397 2633 464 
Q 2878 531 3122 666 
L 3122 134 
Q 2881 22 2623 -34 
Q 2366 -91 2075 -91 
Q 1284 -91 818 406 
Q 353 903 353 1747 
Q 353 2603 823 3093 
Q 1294 3584 2113 3584 
Q 2378 3584 2631 3529 
Q 2884 3475 3122 3366 
z
" transform="scale(0.015625)"/>
      <path id="DejaVuSans-62" d="M 3116 1747 
Q 3116 2381 2855 2742 
Q 2594 3103 2138 3103 
Q 1681 3103 1420 2742 
Q 1159 2381 1159 1747 
Q 1159 1113 1420 752 
Q 1681 391 2138 391 
Q 2594 391 2855 752 
Q 3116 1113 3116 1747 
z
M 1159 2969 
Q 1341 3281 1617 3432 
Q 1894 3584 2278 3584 
Q 2916 3584 3314 3078 
Q 3713 2572 3713 1747 
Q 3713 922 3314 415 
Q 2916 -91 2278 -91 
Q 1894 -91 1617 61 
Q 1341 213 1159 525 
L 1159 0 
L 581 0 
L 581 4863 
L 1159 4863 
L 1159 2969 
z
" transform="scale(0.015625)"/>
      <path id="DejaVuSans-2f" d="M 1625 4666 
L 2156 4666 
L 531 -594 
L 0 -594 
L 1625 4666 
z
" transform="scale(0.015625)"/>
      <path id="DejaVuSans-25" d="M 4653 2053 
Q 4381 2053 4226 1822 
Q 4072 1591 4072 1178 
Q 4072 772 4226 539 
Q 4381 306 4653 306 
Q 4919 306 5073 539 
Q 5228 772 5228 1178 
Q 5228 1588 5073 1820 
Q 4919 2053 4653 2053 
z
M 4653 2450 
Q 5147 2450 5437 2106 
Q 5728 1763 5728 1178 
Q 5728 594 5436 251 
Q 5144 -91 4653 -91 
Q 4153 -91 3862 251 
Q 3572 594 3572 1178 
Q 3572 1766 3864 2108 
Q 4156 2450 4653 2450 
z
M 1428 4353 
Q 1159 4353 1004 4120 
Q 850 3888 850 3481 
Q 850 3069 1003 2837 
Q 1156 2606 1428 2606 
Q 1700 2606 1854 2837 
Q 2009 3069 2009 3481 
Q 2009 3884 1853 4118 
Q 1697 4353 1428 4353 
z
M 4250 4750 
L 4750 4750 
L 1831 -91 
L 1331 -91 
L 4250 4750 
z
M 1428 4750 
Q 1922 4750 2215 4408 
Q 2509 4066 2509 3481 
Q 2509 2891 2217 2550 
Q 1925 2209 1428 2209 
Q 931 2209 642 2551 
Q 353 2894 353 3481 
Q 353 4063 643 4406 
Q 934 4750 1428 4750 
z
" transform="scale(0.015625)"/>
     </defs>
     <use xlink:href="#DejaVuSans-48"/>
     <use xlink:href="#DejaVuSans-61" x="75.195312"/>
     <use xlink:href="#DejaVuSans-6e" x="136.474609"/>
     <use xlink:href="#DejaVuSans-64" x="199.853516"/>
     <use xlink:href="#DejaVuSans-73" x="263.330078"/>
     <use xlink:href="#DejaVuSans-68" x="315.429688"/>
     <use xlink:href="#DejaVuSans-61" x="378.808594"/>
     <use xlink:href="#DejaVuSans-6b" x="440.087891"/>
     <use xlink:href="#DejaVuSans-65" x="494.373047"/>
     <use xlink:href="#DejaVuSans-20" x="555.896484"/>
     <use xlink:href="#DejaVuSans-64" x="587.683594"/>
     <use xlink:href="#DejaVuSans-75" x="651.160156"/>
     <use xlink:href="#DejaVuSans-72" x="714.539062"/>
     <use xlink:href="#DejaVuSans-61" x="755.652344"/>
     <use xlink:href="#DejaVuSans-74" x="816.931641"/>
     <use xlink:href="#DejaVuSans-69" x="856.140625"/>
     <use xlink:href="#DejaVuSans-6f" x="883.923828"/>
     <use xlink:href="#DejaVuSans-6e" x="945.105469"/>
     <use xlink:href="#DejaVuSans-20" x="1008.484375"/>
     <use xlink:href="#DejaVuSans-6f" x="1040.271484"/>
     <use xlink:href="#DejaVuSans-6e" x="1101.453125"/>
     <use xlink:href="#DejaVuSans-20" x="1164.832031"/>
     <use xlink:href="#DejaVuSans-51" x="1196.619141"/>
     <use xlink:href="#DejaVuSans-55" x="1275.330078"/>
     <use xlink:href="#DejaVuSans-49" x="1348.523438"/>
     <use xlink:href="#DejaVuSans-43" x="1378.015625"/>
     <use xlink:href="#DejaVuSans-20" x="1447.839844"/>
     <use xlink:href="#DejaVuSans-77" x="1479.626953"/>
     <use xlink:href="#DejaVuSans-69" x="1561.414062"/>
     <use xlink:href="#DejaVuSans-74" x="1589.197266"/>
     <use xlink:href="#DejaVuSans-68" x="1628.40625"/>
     <use xlink:href="#DejaVuSans-20" x="1691.785156"/>
     <use xlink:href="#DejaVuSans-6d" x="1723.572266"/>
     <use xlink:href="#DejaVuSans-6c" x="1820.984375"/>
     <use xlink:href="#DejaVuSans-64" x="1848.767578"/>
     <use xlink:href="#DejaVuSans-73" x="1912.244141"/>
     <use xlink:href="#DejaVuSans-61" x="1964.34375"/>
     <use xlink:href="#DejaVuSans-34" x="2025.623047"/>
     <use xlink:href="#DejaVuSans-34" x="2089.246094"/>
     <use xlink:href="#DejaVuSans-20" x="2152.869141"/>
     <use xlink:href="#DejaVuSans-73" x="2184.65625"/>
     <use xlink:href="#DejaVuSans-69" x="2236.755859"/>
     <use xlink:href="#DejaVuSans-67" x="2264.539062"/>
     <use xlink:href="#DejaVuSans-6e" x="2328.015625"/>
     <use xlink:href="#DejaVuSans-61" x="2391.394531"/>
     <use xlink:href="#DejaVuSans-74" x="2452.673828"/>
     <use xlink:href="#DejaVuSans-75" x="2491.882812"/>
     <use xlink:href="#DejaVuSans-72" x="2555.261719"/>
     <use xlink:href="#DejaVuSans-65" x="2594.125"/>
     <use xlink:href="#DejaVuSans-20" x="2655.648438"/>
     <use xlink:href="#DejaVuSans-61" x="2687.435547"/>
     <use xlink:href="#DejaVuSans-6c" x="2748.714844"/>
     <use xlink:href="#DejaVuSans-67" x="2776.498047"/>
     <use xlink:href="#DejaVuSans-6f" x="2839.974609"/>
     <use xlink:href="#DejaVuSans-72" x="2901.15625"/>
     <use xlink:href="#DejaVuSans-69" x="2942.269531"/>
     <use xlink:href="#DejaVuSans-74" x="2970.052734"/>
     <use xlink:href="#DejaVuSans-68" x="3009.261719"/>
     <use xlink:href="#DejaVuSans-6d" x="3072.640625"/>
     <use xlink:href="#DejaVuSans-20" x="3170.052734"/>
     <use xlink:href="#DejaVuSans-2014" x="3201.839844"/>
     <use xlink:href="#DejaVuSans-20" x="3301.839844"/>
     <use xlink:href="#DejaVuSans-42" x="3333.626953"/>
     <use xlink:href="#DejaVuSans-61" x="3402.230469"/>
     <use xlink:href="#DejaVuSans-63" x="3463.509766"/>
     <use xlink:href="#DejaVuSans-6b" x="3518.490234"/>
     <use xlink:href="#DejaVuSans-62" x="3576.400391"/>
     <use xlink:href="#DejaVuSans-6f" x="3639.876953"/>
     <use xlink:href="#DejaVuSans-6e" x="3701.058594"/>
     <use xlink:href="#DejaVuSans-65" x="3764.4375"/>
     <use xlink:href="#DejaVuSans-20" x="3825.960938"/>
     <use xlink:href="#DejaVuSans-28" x="3857.748047"/>
     <use xlink:href="#DejaVuSans-32" x="3896.761719"/>
     <use xlink:href="#DejaVuSans-30" x="3960.384766"/>
     <use xlink:href="#DejaVuSans-30" x="4024.007812"/>
     <use xlink:href="#DejaVuSans-6d" x="4087.630859"/>
     <use xlink:href="#DejaVuSans-73" x="4185.042969"/>
     <use xlink:href="#DejaVuSans-2f" x="4237.142578"/>
     <use xlink:href="#DejaVuSans-34" x="4270.833984"/>
     <use xlink:href="#DejaVuSans-25" x="4334.457031"/>
     <use xlink:href="#DejaVuSans-29" x="4429.476562"/>
    </g>
   </g>
  </g>
 </g>
 <defs>
  <clipPath id="p8538281bdf">
   <rect x="58.32" y="27.6" width="792.72" height="367.54"/>
  </clipPath>
 </defs>
</svg>
