<?xml version="1.0" encoding="utf-8" standalone="no"?>
<!DOCTYPE svg PUBLIC "-//W3C//DTD SVG 1.1//EN"
  "http://www.w3.org/Graphics/SVG/1.1/DTD/svg11.dtd">
<svg xmlns:xlink="http://www.w3.org/1999/xlink" width="864pt" height="432pt" viewBox="0 0 864 432" xmlns="http://www.w3.org/2000/svg" version="1.1">
 <metadata>
  <rdf:RDF xmlns:dc="http://purl.org/dc/elements/1.1/" xmlns:cc="http://creativecommons.org/ns#" xmlns:rdf="http://www.w3.org/1999/02/22-rdf-syntax-ns#">
   <cc:Work>
    <dc:type rdf:resource="http://purl.org/dc/dcmitype/StillImage"/>
    <dc:date>2026-03-21T13:58:47.493092</dc:date>
    <dc:format>image/svg+xml</dc:format>
    <dc:creator>
     <cc:Agent>
      <dc:title>Matplotlib v3.6.3, https://matplotlib.org/</dc:title>
     </cc:Agent>
    </dc:creator>
   </cc:Work>
  </rdf:RDF>
 </metadata>
 <defs>
  <style type="text/css">*{stroke-linejoin: round; stroke-linecap: butt}</style>
 </defs>
 <g id="figure_1">
  <g id="patch_1">
   <path d="M 0 432 
L 864 432 
L 864 0 
L 0 0 
z
" style="fill: #ffffff"/>
  </g>
  <g id="axes_1">
   <g id="patch_2">
    <path d="M 51.3 395.14 
L 851.04 395.14 
L 851.04 27.6 
L 51.3 27.6 
z
" style="fill: #ffffff"/>
   </g>
   <g id="matplotlib.axis_1">
    <g id="xtick_1">
     <g id="text_1">
      <!-- P-521 -->
      <g style="fill: #262626" transform="translate(164.64 415.277812) scale(0.14 -0.14)">
       <defs>
        <path id="DejaVuSans-50" d="M 1259 4147 
L 1259 2394 
L 2053 2394 
Q 2494 2394 2734 2622 
Q 2975 2850 2975 3272 
Q 2975 3691 2734 3919 
Q 2494 4147 2053 4147 
L 1259 4147 
z
M 628 4666 
L 2053 4666 
Q 2838 4666 3239 4311 
Q 3641 3956 3641 3272 
Q 3641 2581 3239 2228 
Q 2838 1875 2053 1875 
L 1259 1875 
L 1259 0 
L 628 0 
L 628 4666 
z
" transform="scale(0.015625)"/>
        <path id="DejaVuSans-2d" d="M 313 2009 
L 1997 2009 
L 1997 1497 
L 313 1497 
L 313 2009 
z
" transform="scale(0.015625)"/>
        <path id="DejaVuSans-35" d="M 691 4666 
L 3169 4666 
L 3169 4134 
L 1269 4134 
L 1269 2991 
Q 1406 3038 1543 3061 
Q 1681 3084 1819 3084 
Q 2600 3084 3056 2656 
Q 3513 2228 3513 1497 
Q 3513 744 3044 326 
Q 2575 -91 1722 -91 
Q 1428 -91 1123 -41 
Q 819 9 494 109 
L 494 744 
Q 775 591 1075 516 
Q 1375 441 1709 441 
Q 2250 441 2565 725 
Q 2881 1009 2881 1497 
Q 2881 1984 2565 2268 
Q 2250 2553 1709 2553 
Q 1456 2553 1204 2497 
Q 953 2441 691 2322 
L 691 4666 
z
" transform="scale(0.015625)"/>
        <path id="DejaVuSans-32" d="M 1228 531 
L 3431 531 
L 3431 0 
L 469 0 
L 469 531 
Q 828 903 1448 1529 
Q 2069 2156 2228 2338 
Q 2531 2678 2651 2914 
Q 2772 3150 2772 3378 
Q 2772 3750 2511 3984 
Q 2250 4219 1831 4219 
Q 1534 4219 1204 4116 
Q 875 4013 500 3803 
L 500 4441 
Q 881 4594 1212 4672 
Q 1544 4750 1819 4750 
Q 2544 4750 2975 4387 
Q 3406 4025 3406 3419 
Q 3406 3131 3298 2873 
Q 3191 2616 2906 2266 
Q 2828 2175 2409 1742 
Q 1991 1309 1228 531 
z
" transform="scale(0.015625)"/>
        <path id="DejaVuSans-31" d="M 794 531 
L 1825 531 
L 1825 4091 
L 703 3866 
L 703 4441 
L 1819 4666 
L 2450 4666 
L 2450 531 
L 3481 531 
L 3481 0 
L 794 0 
L 794 531 
z
" transform="scale(0.015625)"/>
       </defs>
       <use xlink:href="#DejaVuSans-50"/>
       <use xlink:href="#DejaVuSans-2d" x="58.052734"/>
       <use xlink:href="#DejaVuSans-35" x="94.136719"/>
       <use xlink:href="#DejaVuSans-32" x="157.759766"/>
       <use xlink:href="#DejaVuSans-31" x="221.382812"/>
      </g>
     </g>
    </g>
    <g id="xtick_2">
     <g id="text_2">
      <!-- p521_mlkem1024 -->
      <g style="fill: #262626" transform="translate(388.361406 415.277812) scale(0.14 -0.14)">
       <defs>
        <path id="DejaVuSans-70" d="M 1159 525 
L 1159 -1331 
L 581 -1331 
L 581 3500 
L 1159 3500 
L 1159 2969 
Q 1341 3281 1617 3432 
Q 1894 3584 2278 3584 
Q 2916 3584 3314 3078 
Q 3713 2572 3713 1747 
Q 3713 922 3314 415 
Q 2916 -91 2278 -91 
Q 1894 -91 1617 61 
Q 1341 213 1159 525 
z
M 3116 1747 
Q 3116 2381 2855 2742 
Q 2594 3103 2138 3103 
Q 1681 3103 1420 2742 
Q 1159 2381 1159 1747 
Q 1159 1113 1420 752 
Q 1681 391 2138 391 
Q 2594 391 2855 752 
Q 3116 1113 3116 1747 
z
" transform="scale(0.015625)"/>
        <path id="DejaVuSans-5f" d="M 3263 -1063 
L 3263 -1509 
L -63 -1509 
L -63 -1063 
L 3263 -1063 
z
" transform="scale(0.015625)"/>
        <path id="DejaVuSans-6d" d="M 3328 2828 
Q 3544 3216 3844 3400 
Q 4144 3584 4550 3584 
Q 5097 3584 5394 3201 
Q 5691 2819 5691 2113 
L 5691 0 
L 5113 0 
L 5113 2094 
Q 5113 2597 4934 2840 
Q 4756 3084 4391 3084 
Q 3944 3084 3684 2787 
Q 3425 2491 3425 1978 
L 3425 0 
L 2847 0 
L 2847 2094 
Q 2847 2600 2669 2842 
Q 2491 3084 2119 3084 
Q 1678 3084 1418 2786 
Q 1159 2488 1159 1978 
L 1159 0 
L 581 0 
L 581 3500 
L 1159 3500 
L 1159 2956 
Q 1356 3278 1631 3431 
Q 1906 3584 2284 3584 
Q 2666 3584 2933 3390 
Q 3200 3197 3328 2828 
z
" transform="scale(0.015625)"/>
        <path id="DejaVuSans-6c" d="M 603 4863 
L 1178 4863 
L 1178 0 
L 603 0 
L 603 4863 
z
" transform="scale(0.015625)"/>
        <path id="DejaVuSans-6b" d="M 581 4863 
L 1159 4863 
L 1159 1991 
L 2875 3500 
L 3609 3500 
L 1753 1863 
L 3688 0 
L 2938 0 
L 1159 1709 
L 1159 0 
L 581 0 
L 581 4863 
z
" transform="scale(0.015625)"/>
        <path id="DejaVuSans-65" d="M 3597 1894 
L 3597 1613 
L 953 1613 
Q 991 1019 1311 708 
Q 1631 397 2203 397 
Q 2534 397 2845 478 
Q 3156 559 3463 722 
L 3463 178 
Q 3153 47 2828 -22 
Q 2503 -91 2169 -91 
Q 1331 -91 842 396 
Q 353 884 353 1716 
Q 353 2575 817 3079 
Q 1281 3584 2069 3584 
Q 2775 3584 3186 3129 
Q 3597 2675 3597 1894 
z
M 3022 2063 
Q 3016 2534 2758 2815 
Q 2500 3097 2075 3097 
Q 1594 3097 1305 2825 
Q 1016 2553 972 2059 
L 3022 2063 
z
" transform="scale(0.015625)"/>
        <path id="DejaVuSans-30" d="M 2034 4250 
Q 1547 4250 1301 3770 
Q 1056 3291 1056 2328 
Q 1056 1369 1301 889 
Q 1547 409 2034 409 
Q 2525 409 2770 889 
Q 3016 1369 3016 2328 
Q 3016 3291 2770 3770 
Q 2525 4250 2034 4250 
z
M 2034 4750 
Q 2819 4750 3233 4129 
Q 3647 3509 3647 2328 
Q 3647 1150 3233 529 
Q 2819 -91 2034 -91 
Q 1250 -91 836 529 
Q 422 1150 422 2328 
Q 422 3509 836 4129 
Q 1250 4750 2034 4750 
z
" transform="scale(0.015625)"/>
        <path id="DejaVuSans-34" d="M 2419 4116 
L 825 1625 
L 2419 1625 
L 2419 4116 
z
M 2253 4666 
L 3047 4666 
L 3047 1625 
L 3713 1625 
L 3713 1100 
L 3047 1100 
L 3047 0 
L 2419 0 
L 2419 1100 
L 313 1100 
L 313 1709 
L 2253 4666 
z
" transform="scale(0.015625)"/>
       </defs>
       <use xlink:href="#DejaVuSans-70"/>
       <use xlink:href="#DejaVuSans-35" x="63.476562"/>
       <use xlink:href="#DejaVuSans-32" x="127.099609"/>
       <use xlink:href="#DejaVuSans-31" x="190.722656"/>
       <use xlink:href="#DejaVuSans-5f" x="254.345703"/>
       <use xlink:href="#DejaVuSans-6d" x="304.345703"/>
       <use xlink:href="#DejaVuSans-6c" x="401.757812"/>
       <use xlink:href="#DejaVuSans-6b" x="429.541016"/>
       <use xlink:href="#DejaVuSans-65" x="483.826172"/>
       <use xlink:href="#DejaVuSans-6d" x="545.349609"/>
       <use xlink:href="#DejaVuSans-31" x="642.761719"/>
       <use xlink:href="#DejaVuSans-30" x="706.384766"/>
       <use xlink:href="#DejaVuSans-32" x="770.007812"/>
       <use xlink:href="#DejaVuSans-34" x="833.630859"/>
      </g>
     </g>
    </g>
    <g id="xtick_3">
     <g id="text_3">
      <!-- mlkem1024 -->
      <g style="fill: #262626" transform="translate(676.246562 415.277812) scale(0.14 -0.14)">
       <use xlink:href="#DejaVuSans-6d"/>
       <use xlink:href="#DejaVuSans-6c" x="97.412109"/>
       <use xlink:href="#DejaVuSans-6b" x="125.195312"/>
       <use xlink:href="#DejaVuSans-65" x="179.480469"/>
       <use xlink:href="#DejaVuSans-6d" x="241.003906"/>
       <use xlink:href="#DejaVuSans-31" x="338.416016"/>
       <use xlink:href="#DejaVuSans-30" x="402.039062"/>
       <use xlink:href="#DejaVuSans-32" x="465.662109"/>
       <use xlink:href="#DejaVuSans-34" x="529.285156"/>
      </g>
     </g>
    </g>
   </g>
   <g id="matplotlib.axis_2">
    <g id="ytick_1">
     <g id="line2d_1">
      <path d="M 51.3 351.469863 
L 851.04 351.469863 
" clip-path="url(#p811c4f2805)" style="fill: none; stroke: #cccccc; stroke-linecap: round"/>
     </g>
     <g id="text_4">
      <!-- 5 -->
      <g style="fill: #262626" transform="translate(34.80125 355.649004) scale(0.11 -0.11)">
       <use xlink:href="#DejaVuSans-35"/>
      </g>
     </g>
    </g>
    <g id="ytick_2">
     <g id="line2d_2">
      <path d="M 51.3 299.135122 
L 851.04 299.135122 
" clip-path="url(#p811c4f2805)" style="fill: none; stroke: #cccccc; stroke-linecap: round"/>
     </g>
     <g id="text_5">
      <!-- 10 -->
      <g style="fill: #262626" transform="translate(27.8025 303.314263) scale(0.11 -0.11)">
       <use xlink:href="#DejaVuSans-31"/>
       <use xlink:href="#DejaVuSans-30" x="63.623047"/>
      </g>
     </g>
    </g>
    <g id="ytick_3">
     <g id="line2d_3">
      <path d="M 51.3 246.800382 
L 851.04 246.800382 
" clip-path="url(#p811c4f2805)" style="fill: none; stroke: #cccccc; stroke-linecap: round"/>
     </g>
     <g id="text_6">
      <!-- 15 -->
      <g style="fill: #262626" transform="translate(27.8025 250.979522) scale(0.11 -0.11)">
       <use xlink:href="#DejaVuSans-31"/>
       <use xlink:href="#DejaVuSans-35" x="63.623047"/>
      </g>
     </g>
    </g>
    <g id="ytick_4">
     <g id="line2d_4">
      <path d="M 51.3 194.465641 
L 851.04 194.465641 
" clip-path="url(#p811c4f2805)" style="fill: none; stroke: #cccccc; stroke-linecap: round"/>
     </g>
     <g id="text_7">
      <!-- 20 -->
      <g style="fill: #262626" transform="translate(27.8025 198.644781) scale(0.11 -0.11)">
       <use xlink:href="#DejaVuSans-32"/>
       <use xlink:href="#DejaVuSans-30" x="63.623047"/>
      </g>
     </g>
    </g>
    <g id="ytick_5">
     <g id="line2d_5">
      <path d="M 51.3 142.1309 
L 851.04 142.1309 
" clip-path="url(#p811c4f2805)" style="fill: none; stroke: #cccccc; stroke-linecap: round"/>
     </g>
     <g id="text_8">
      <!-- 25 -->
      <g style="fill: #262626" transform="translate(27.8025 146.310041) scale(0.11 -0.11)">
       <use xlink:href="#DejaVuSans-32"/>
       <use xlink:href="#DejaVuSans-35" x="63.623047"/>
      </g>
     </g>
    </g>
    <g id="ytick_6">
     <g id="line2d_6">
      <path d="M 51.3 89.796159 
L 851.04 89.796159 
" clip-path="url(#p811c4f2805)" style="fill: none; stroke: #cccccc; stroke-linecap: round"/>
     </g>
     <g id="text_9">
      <!-- 30 -->
      <g style="fill: #262626" transform="translate(27.8025 93.9753) scale(0.11 -0.11)">
       <defs>
        <path id="DejaVuSans-33" d="M 2597 2516 
Q 3050 2419 3304 2112 
Q 3559 1806 3559 1356 
Q 3559 666 3084 287 
Q 2609 -91 1734 -91 
Q 1441 -91 1130 -33 
Q 819 25 488 141 
L 488 750 
Q 750 597 1062 519 
Q 1375 441 1716 441 
Q 2309 441 2620 675 
Q 2931 909 2931 1356 
Q 2931 1769 2642 2001 
Q 2353 2234 1838 2234 
L 1294 2234 
L 1294 2753 
L 1863 2753 
Q 2328 2753 2575 2939 
Q 2822 3125 2822 3475 
Q 2822 3834 2567 4026 
Q 2313 4219 1838 4219 
Q 1578 4219 1281 4162 
Q 984 4106 628 3988 
L 628 4550 
Q 988 4650 1302 4700 
Q 1616 4750 1894 4750 
Q 2613 4750 3031 4423 
Q 3450 4097 3450 3541 
Q 3450 3153 3228 2886 
Q 3006 2619 2597 2516 
z
" transform="scale(0.015625)"/>
       </defs>
       <use xlink:href="#DejaVuSans-33"/>
       <use xlink:href="#DejaVuSans-30" x="63.623047"/>
      </g>
     </g>
    </g>
    <g id="ytick_7">
     <g id="line2d_7">
      <path d="M 51.3 37.461419 
L 851.04 37.461419 
" clip-path="url(#p811c4f2805)" style="fill: none; stroke: #cccccc; stroke-linecap: round"/>
     </g>
     <g id="text_10">
      <!-- 35 -->
      <g style="fill: #262626" transform="translate(27.8025 41.640559) scale(0.11 -0.11)">
       <use xlink:href="#DejaVuSans-33"/>
       <use xlink:href="#DejaVuSans-35" x="63.623047"/>
      </g>
     </g>
    </g>
    <g id="text_11">
     <!-- Handshake duration (ms) -->
     <g style="fill: #262626" transform="translate(21.306875 287.437813) rotate(-90) scale(0.12 -0.12)">
      <defs>
       <path id="DejaVuSans-48" d="M 628 4666 
L 1259 4666 
L 1259 2753 
L 3553 2753 
L 3553 4666 
L 4184 4666 
L 4184 0 
L 3553 0 
L 3553 2222 
L 1259 2222 
L 1259 0 
L 628 0 
L 628 4666 
z
" transform="scale(0.015625)"/>
       <path id="DejaVuSans-61" d="M 2194 1759 
Q 1497 1759 1228 1600 
Q 959 1441 959 1056 
Q 959 750 1161 570 
Q 1363 391 1709 391 
Q 2188 391 2477 730 
Q 2766 1069 2766 1631 
L 2766 1759 
L 2194 1759 
z
M 3341 1997 
L 3341 0 
L 2766 0 
L 2766 531 
Q 2569 213 2275 61 
Q 1981 -91 1556 -91 
Q 1019 -91 701 211 
Q 384 513 384 1019 
Q 384 1609 779 1909 
Q 1175 2209 1959 2209 
L 2766 2209 
L 2766 2266 
Q 2766 2663 2505 2880 
Q 2244 3097 1772 3097 
Q 1472 3097 1187 3025 
Q 903 2953 641 2809 
L 641 3341 
Q 956 3463 1253 3523 
Q 1550 3584 1831 3584 
Q 2591 3584 2966 3190 
Q 3341 2797 3341 1997 
z
" transform="scale(0.015625)"/>
       <path id="DejaVuSans-6e" d="M 3513 2113 
L 3513 0 
L 2938 0 
L 2938 2094 
Q 2938 2591 2744 2837 
Q 2550 3084 2163 3084 
Q 1697 3084 1428 2787 
Q 1159 2491 1159 1978 
L 1159 0 
L 581 0 
L 581 3500 
L 1159 3500 
L 1159 2956 
Q 1366 3272 1645 3428 
Q 1925 3584 2291 3584 
Q 2894 3584 3203 3211 
Q 3513 2838 3513 2113 
z
" transform="scale(0.015625)"/>
       <path id="DejaVuSans-64" d="M 2906 2969 
L 2906 4863 
L 3481 4863 
L 3481 0 
L 2906 0 
L 2906 525 
Q 2725 213 2448 61 
Q 2172 -91 1784 -91 
Q 1150 -91 751 415 
Q 353 922 353 1747 
Q 353 2572 751 3078 
Q 1150 3584 1784 3584 
Q 2172 3584 2448 3432 
Q 2725 3281 2906 2969 
z
M 947 1747 
Q 947 1113 1208 752 
Q 1469 391 1925 391 
Q 2381 391 2643 752 
Q 2906 1113 2906 1747 
Q 2906 2381 2643 2742 
Q 2381 3103 1925 3103 
Q 1469 3103 1208 2742 
Q 947 2381 947 1747 
z
" transform="scale(0.015625)"/>
       <path id="DejaVuSans-73" d="M 2834 3397 
L 2834 2853 
Q 2591 2978 2328 3040 
Q 2066 3103 1784 3103 
Q 1356 3103 1142 2972 
Q 928 2841 928 2578 
Q 928 2378 1081 2264 
Q 1234 2150 1697 2047 
L 1894 2003 
Q 2506 1872 2764 1633 
Q 3022 1394 3022 966 
Q 3022 478 2636 193 
Q 2250 -91 1575 -91 
Q 1294 -91 989 -36 
Q 684 19 347 128 
L 347 722 
Q 666 556 975 473 
Q 1284 391 1588 391 
Q 1994 391 2212 530 
Q 2431 669 2431 922 
Q 2431 1156 2273 1281 
Q 2116 1406 1581 1522 
L 1381 1569 
Q 847 1681 609 1914 
Q 372 2147 372 2553 
Q 372 3047 722 3315 
Q 1072 3584 1716 3584 
Q 2034 3584 2315 3537 
Q 2597 3491 2834 3397 
z
" transform="scale(0.015625)"/>
       <path id="DejaVuSans-68" d="M 3513 2113 
L 3513 0 
L 2938 0 
L 2938 2094 
Q 2938 2591 2744 2837 
Q 2550 3084 2163 3084 
Q 1697 3084 1428 2787 
Q 1159 2491 1159 1978 
L 1159 0 
L 581 0 
L 581 4863 
L 1159 4863 
L 1159 2956 
Q 1366 3272 1645 3428 
Q 1925 3584 2291 3584 
Q 2894 3584 3203 3211 
Q 3513 2838 3513 2113 
z
" transform="scale(0.015625)"/>
       <path id="DejaVuSans-20" transform="scale(0.015625)"/>
       <path id="DejaVuSans-75" d="M 544 1381 
L 544 3500 
L 1119 3500 
L 1119 1403 
Q 1119 906 1312 657 
Q 1506 409 1894 409 
Q 2359 409 2629 706 
Q 2900 1003 2900 1516 
L 2900 3500 
L 3475 3500 
L 3475 0 
L 2900 0 
L 2900 538 
Q 2691 219 2414 64 
Q 2138 -91 1772 -91 
Q 1169 -91 856 284 
Q 544 659 544 1381 
z
M 1991 3584 
L 1991 3584 
z
" transform="scale(0.015625)"/>
       <path id="DejaVuSans-72" d="M 2631 2963 
Q 2534 3019 2420 3045 
Q 2306 3072 2169 3072 
Q 1681 3072 1420 2755 
Q 1159 2438 1159 1844 
L 1159 0 
L 581 0 
L 581 3500 
L 1159 3500 
L 1159 2956 
Q 1341 3275 1631 3429 
Q 1922 3584 2338 3584 
Q 2397 3584 2469 3576 
Q 2541 3569 2628 3553 
L 2631 2963 
z
" transform="scale(0.015625)"/>
       <path id="DejaVuSans-74" d="M 1172 4494 
L 1172 3500 
L 2356 3500 
L 2356 3053 
L 1172 3053 
L 1172 1153 
Q 1172 725 1289 603 
Q 1406 481 1766 481 
L 2356 481 
L 2356 0 
L 1766 0 
Q 1100 0 847 248 
Q 594 497 594 1153 
L 594 3053 
L 172 3053 
L 172 3500 
L 594 3500 
L 594 4494 
L 1172 4494 
z
" transform="scale(0.015625)"/>
       <path id="DejaVuSans-69" d="M 603 3500 
L 1178 3500 
L 1178 0 
L 603 0 
L 603 3500 
z
M 603 4863 
L 1178 4863 
L 1178 4134 
L 603 4134 
L 603 4863 
z
" transform="scale(0.015625)"/>
       <path id="DejaVuSans-6f" d="M 1959 3097 
Q 1497 3097 1228 2736 
Q 959 2375 959 1747 
Q 959 1119 1226 758 
Q 1494 397 1959 397 
Q 2419 397 2687 759 
Q 2956 1122 2956 1747 
Q 2956 2369 2687 2733 
Q 2419 3097 1959 3097 
z
M 1959 3584 
Q 2709 3584 3137 3096 
Q 3566 2609 3566 1747 
Q 3566 888 3137 398 
Q 2709 -91 1959 -91 
Q 1206 -91 779 398 
Q 353 888 353 1747 
Q 353 2609 779 3096 
Q 1206 3584 1959 3584 
z
" transform="scale(0.015625)"/>
       <path id="DejaVuSans-28" d="M 1984 4856 
Q 1566 4138 1362 3434 
Q 1159 2731 1159 2009 
Q 1159 1288 1364 580 
Q 1569 -128 1984 -844 
L 1484 -844 
Q 1016 -109 783 600 
Q 550 1309 550 2009 
Q 550 2706 781 3412 
Q 1013 4119 1484 4856 
L 1984 4856 
z
" transform="scale(0.015625)"/>
       <path id="DejaVuSans-29" d="M 513 4856 
L 1013 4856 
Q 1481 4119 1714 3412 
Q 1947 2706 1947 2009 
Q 1947 1309 1714 600 
Q 1481 -109 1013 -844 
L 513 -844 
Q 928 -128 1133 580 
Q 1338 1288 1338 2009 
Q 1338 2731 1133 3434 
Q 928 4138 513 4856 
z
" transform="scale(0.015625)"/>
      </defs>
      <use xlink:href="#DejaVuSans-48"/>
      <use xlink:href="#DejaVuSans-61" x="75.195312"/>
      <use xlink:href="#DejaVuSans-6e" x="136.474609"/>
      <use xlink:href="#DejaVuSans-64" x="199.853516"/>
      <use xlink:href="#DejaVuSans-73" x="263.330078"/>
      <use xlink:href="#DejaVuSans-68" x="315.429688"/>
      <use xlink:href="#DejaVuSans-61" x="378.808594"/>
      <use xlink:href="#DejaVuSans-6b" x="440.087891"/>
      <use xlink:href="#DejaVuSans-65" x="494.373047"/>
      <use xlink:href="#DejaVuSans-20" x="555.896484"/>
      <use xlink:href="#DejaVuSans-64" x="587.683594"/>
      <use xlink:href="#DejaVuSans-75" x="651.160156"/>
      <use xlink:href="#DejaVuSans-72" x="714.539062"/>
      <use xlink:href="#DejaVuSans-61" x="755.652344"/>
      <use xlink:href="#DejaVuSans-74" x="816.931641"/>
      <use xlink:href="#DejaVuSans-69" x="856.140625"/>
      <use xlink:href="#DejaVuSans-6f" x="883.923828"/>
      <use xlink:href="#DejaVuSans-6e" x="945.105469"/>
      <use xlink:href="#DejaVuSans-20" x="1008.484375"/>
      <use xlink:href="#DejaVuSans-28" x="1040.271484"/>
      <use xlink:href="#DejaVuSans-6d" x="1079.285156"/>
      <use xlink:href="#DejaVuSans-73" x="1176.697266"/>
      <use xlink:href="#DejaVuSans-29" x="1228.796875"/>
     </g>
    </g>
   </g>
   <g id="PolyCollection_1">
    <defs>
     <path id="mfcb8ea6bf1" d="M 185.387836 -81.037881 
L 183.792164 -81.037881 
L 183.113925 -81.626037 
L 181.973469 -82.214193 
L 180.144899 -82.802349 
L 177.350766 -83.390505 
L 173.28478 -83.97866 
L 167.655752 -84.566816 
L 160.251936 -85.154972 
L 151.017525 -85.743128 
L 140.12508 -86.331284 
L 128.022181 -86.91944 
L 115.431029 -87.507596 
L 103.287897 -88.095752 
L 92.624358 -88.683908 
L 84.409944 -89.272064 
L 79.390081 -89.86022 
L 77.958 -90.448376 
L 80.092202 -91.036532 
L 85.373779 -91.624688 
L 93.076449 -92.212844 
L 102.303902 -92.801 
L 112.139838 -93.389156 
L 121.777785 -93.977312 
L 130.608315 -94.565468 
L 138.255595 -95.153623 
L 144.568329 -95.741779 
L 149.578453 -96.329935 
L 153.443637 -96.918091 
L 156.38768 -97.506247 
L 158.648532 -98.094403 
L 160.438943 -98.682559 
L 161.921005 -99.270715 
L 163.193758 -99.858871 
L 164.292213 -100.447027 
L 165.19621 -101.035183 
L 165.847502 -101.623339 
L 166.17301 -102.211495 
L 166.111125 -102.799651 
L 165.636665 -103.387807 
L 164.779418 -103.975963 
L 163.631651 -104.564119 
L 162.341894 -105.152275 
L 161.09532 -105.740431 
L 160.084274 -106.328587 
L 159.475142 -106.916742 
L 159.378896 -107.504898 
L 159.832046 -108.093054 
L 160.792402 -108.68121 
L 162.15059 -109.269366 
L 163.75449 -109.857522 
L 165.440661 -110.445678 
L 167.06537 -111.033834 
L 168.528298 -111.62199 
L 169.784371 -112.210146 
L 170.842414 -112.798302 
L 171.752608 -113.386458 
L 172.586993 -113.974614 
L 173.418231 -114.56277 
L 174.301454 -115.150926 
L 175.262737 -115.739082 
L 176.295907 -116.327238 
L 177.367381 -116.915394 
L 178.426961 -117.50355 
L 179.421272 -118.091705 
L 180.306181 -118.679861 
L 181.055193 -119.268017 
L 181.662238 -119.856173 
L 182.139008 -120.444329 
L 182.508518 -121.032485 
L 182.797327 -121.620641 
L 183.028809 -122.208797 
L 183.219122 -122.796953 
L 183.376419 -123.385109 
L 183.502791 -123.973265 
L 183.597739 -124.561421 
L 183.661708 -125.149577 
L 183.698491 -125.737733 
L 183.715814 -126.325889 
L 183.724139 -126.914045 
L 183.734255 -127.502201 
L 183.754605 -128.090357 
L 183.789284 -128.678513 
L 183.837346 -129.266669 
L 183.893626 -129.854824 
L 183.950761 -130.44298 
L 184.001716 -131.031136 
L 184.042026 -131.619292 
L 184.071041 -132.207448 
L 184.091876 -132.795604 
L 184.110152 -133.38376 
L 184.132054 -133.971916 
L 184.162374 -134.560072 
L 184.203193 -135.148228 
L 184.253516 -135.736384 
L 184.309874 -136.32454 
L 184.367517 -136.912696 
L 184.421761 -137.500852 
L 184.46902 -138.089008 
L 184.507336 -138.677164 
L 184.536354 -139.26532 
L 184.643646 -139.26532 
L 184.643646 -139.26532 
L 184.672664 -138.677164 
L 184.71098 -138.089008 
L 184.758239 -137.500852 
L 184.812483 -136.912696 
L 184.870126 -136.32454 
L 184.926484 -135.736384 
L 184.976807 -135.148228 
L 185.017626 -134.560072 
L 185.047946 -133.971916 
L 185.069848 -133.38376 
L 185.088124 -132.795604 
L 185.108959 -132.207448 
L 185.137974 -131.619292 
L 185.178284 -131.031136 
L 185.229239 -130.44298 
L 185.286374 -129.854824 
L 185.342654 -129.266669 
L 185.390716 -128.678513 
L 185.425395 -128.090357 
L 185.445745 -127.502201 
L 185.455861 -126.914045 
L 185.464186 -126.325889 
L 185.481509 -125.737733 
L 185.518292 -125.149577 
L 185.582261 -124.561421 
L 185.677209 -123.973265 
L 185.803581 -123.385109 
L 185.960878 -122.796953 
L 186.151191 -122.208797 
L 186.382673 -121.620641 
L 186.671482 -121.032485 
L 187.040992 -120.444329 
L 187.517762 -119.856173 
L 188.124807 -119.268017 
L 188.873819 -118.679861 
L 189.758728 -118.091705 
L 190.753039 -117.50355 
L 191.812619 -116.915394 
L 192.884093 -116.327238 
L 193.917263 -115.739082 
L 194.878546 -115.150926 
L 195.761769 -114.56277 
L 196.593007 -113.974614 
L 197.427392 -113.386458 
L 198.337586 -112.798302 
L 199.395629 -112.210146 
L 200.651702 -111.62199 
L 202.11463 -111.033834 
L 203.739339 -110.445678 
L 205.42551 -109.857522 
L 207.02941 -109.269366 
L 208.387598 -108.68121 
L 209.347954 -108.093054 
L 209.801104 -107.504898 
L 209.704858 -106.916742 
L 209.095726 -106.328587 
L 208.08468 -105.740431 
L 206.838106 -105.152275 
L 205.548349 -104.564119 
L 204.400582 -103.975963 
L 203.543335 -103.387807 
L 203.068875 -102.799651 
L 203.00699 -102.211495 
L 203.332498 -101.623339 
L 203.98379 -101.035183 
L 204.887787 -100.447027 
L 205.986242 -99.858871 
L 207.258995 -99.270715 
L 208.741057 -98.682559 
L 210.531468 -98.094403 
L 212.79232 -97.506247 
L 215.736363 -96.918091 
L 219.601547 -96.329935 
L 224.611671 -95.741779 
L 230.924405 -95.153623 
L 238.571685 -94.565468 
L 247.402215 -93.977312 
L 257.040162 -93.389156 
L 266.876098 -92.801 
L 276.103551 -92.212844 
L 283.806221 -91.624688 
L 289.087798 -91.036532 
L 291.222 -90.448376 
L 289.789919 -89.86022 
L 284.770056 -89.272064 
L 276.555642 -88.683908 
L 265.892103 -88.095752 
L 253.748971 -87.507596 
L 241.157819 -86.91944 
L 229.05492 -86.331284 
L 218.162475 -85.743128 
L 208.928064 -85.154972 
L 201.524248 -84.566816 
L 195.89522 -83.97866 
L 191.829234 -83.390505 
L 189.035101 -82.802349 
L 187.206531 -82.214193 
L 186.066075 -81.626037 
L 185.387836 -81.037881 
z
" style="stroke: #595959; stroke-width: 1.25"/>
    </defs>
    <g clip-path="url(#p811c4f2805)">
     <use xlink:href="#mfcb8ea6bf1" x="0" y="432" style="fill: #72b6a1; stroke: #595959; stroke-width: 1.25"/>
    </g>
   </g>
   <g id="PolyCollection_2">
    <defs>
     <path id="m1f55e80359" d="M 454.234754 -169.959303 
L 448.105246 -169.959303 
L 446.110601 -172.15864 
L 443.144155 -174.357976 
L 438.932584 -176.557313 
L 433.229684 -178.75665 
L 425.873188 -180.955986 
L 416.847828 -183.155323 
L 406.340466 -185.35466 
L 394.770275 -187.553997 
L 382.779033 -189.753333 
L 371.17435 -191.95267 
L 360.830554 -194.152007 
L 352.564605 -196.351343 
L 347.013117 -198.55068 
L 344.538 -200.750017 
L 345.181331 -202.949353 
L 348.677108 -205.14869 
L 354.513089 -207.348027 
L 362.02479 -209.547364 
L 370.499056 -211.7467 
L 379.266864 -213.946037 
L 387.771852 -216.145374 
L 395.609324 -218.34471 
L 402.537268 -220.544047 
L 408.464888 -222.743384 
L 413.425555 -224.94272 
L 417.540876 -227.142057 
L 420.981842 -229.341394 
L 423.932224 -231.540731 
L 426.558429 -233.740067 
L 428.988803 -235.939404 
L 431.303625 -238.138741 
L 433.535145 -240.338077 
L 435.675328 -242.537414 
L 437.687962 -244.736751 
L 439.521608 -246.936087 
L 441.120584 -249.135424 
L 442.432366 -251.334761 
L 443.41124 -253.534098 
L 444.019282 -255.733434 
L 444.226496 -257.932771 
L 444.01207 -260.132108 
L 443.368134 -262.331444 
L 442.306252 -264.530781 
L 440.865482 -266.730118 
L 439.119592 -268.929454 
L 437.180382 -271.128791 
L 435.194391 -273.328128 
L 433.331609 -275.527465 
L 431.766901 -277.726801 
L 430.657074 -279.926138 
L 430.118157 -282.125475 
L 430.207906 -284.324811 
L 430.917559 -286.524148 
L 432.174728 -288.723485 
L 433.856637 -290.922822 
L 435.810547 -293.122158 
L 437.876817 -295.321495 
L 439.909956 -297.520832 
L 441.794107 -299.720168 
L 443.451198 -301.919505 
L 444.841864 -304.118842 
L 445.960696 -306.318178 
L 446.828071 -308.517515 
L 447.480781 -310.716852 
L 447.963187 -312.916189 
L 448.31989 -315.115525 
L 448.590344 -317.314862 
L 448.805407 -319.514199 
L 448.985747 -321.713535 
L 449.141911 -323.912872 
L 449.275903 -326.112209 
L 449.383946 -328.311545 
L 449.459958 -330.510882 
L 449.499095 -332.710219 
L 449.50063 -334.909556 
L 449.469545 -337.108892 
L 449.416488 -339.308229 
L 449.356117 -341.507566 
L 449.304306 -343.706902 
L 449.274956 -345.906239 
L 449.277317 -348.105576 
L 449.314537 -350.304912 
L 449.383831 -352.504249 
L 449.478109 -354.703586 
L 449.588491 -356.902923 
L 449.706862 -359.102259 
L 449.827669 -361.301596 
L 449.9485 -363.500933 
L 450.069447 -365.700269 
L 450.191692 -367.899606 
L 450.315957 -370.098943 
L 450.441421 -372.298279 
L 450.565433 -374.497616 
L 450.683997 -376.696953 
L 450.792734 -378.89629 
L 450.887918 -381.095626 
L 450.967231 -383.294963 
L 451.030067 -385.4943 
L 451.077382 -387.693636 
L 451.262618 -387.693636 
L 451.262618 -387.693636 
L 451.309933 -385.4943 
L 451.372769 -383.294963 
L 451.452082 -381.095626 
L 451.547266 -378.89629 
L 451.656003 -376.696953 
L 451.774567 -374.497616 
L 451.898579 -372.298279 
L 452.024043 -370.098943 
L 452.148308 -367.899606 
L 452.270553 -365.700269 
L 452.3915 -363.500933 
L 452.512331 -361.301596 
L 452.633138 -359.102259 
L 452.751509 -356.902923 
L 452.861891 -354.703586 
L 452.956169 -352.504249 
L 453.025463 -350.304912 
L 453.062683 -348.105576 
L 453.065044 -345.906239 
L 453.035694 -343.706902 
L 452.983883 -341.507566 
L 452.923512 -339.308229 
L 452.870455 -337.108892 
L 452.83937 -334.909556 
L 452.840905 -332.710219 
L 452.880042 -330.510882 
L 452.956054 -328.311545 
L 453.064097 -326.112209 
L 453.198089 -323.912872 
L 453.354253 -321.713535 
L 453.534593 -319.514199 
L 453.749656 -317.314862 
L 454.02011 -315.115525 
L 454.376813 -312.916189 
L 454.859219 -310.716852 
L 455.511929 -308.517515 
L 456.379304 -306.318178 
L 457.498136 -304.118842 
L 458.888802 -301.919505 
L 460.545893 -299.720168 
L 462.430044 -297.520832 
L 464.463183 -295.321495 
L 466.529453 -293.122158 
L 468.483363 -290.922822 
L 470.165272 -288.723485 
L 471.422441 -286.524148 
L 472.132094 -284.324811 
L 472.221843 -282.125475 
L 471.682926 -279.926138 
L 470.573099 -277.726801 
L 469.008391 -275.527465 
L 467.145609 -273.328128 
L 465.159618 -271.128791 
L 463.220408 -268.929454 
L 461.474518 -266.730118 
L 460.033748 -264.530781 
L 458.971866 -262.331444 
L 458.32793 -260.132108 
L 458.113504 -257.932771 
L 458.320718 -255.733434 
L 458.92876 -253.534098 
L 459.907634 -251.334761 
L 461.219416 -249.135424 
L 462.818392 -246.936087 
L 464.652038 -244.736751 
L 466.664672 -242.537414 
L 468.804855 -240.338077 
L 471.036375 -238.138741 
L 473.351197 -235.939404 
L 475.781571 -233.740067 
L 478.407776 -231.540731 
L 481.358158 -229.341394 
L 484.799124 -227.142057 
L 488.914445 -224.94272 
L 493.875112 -222.743384 
L 499.802732 -220.544047 
L 506.730676 -218.34471 
L 514.568148 -216.145374 
L 523.073136 -213.946037 
L 531.840944 -211.7467 
L 540.31521 -209.547364 
L 547.826911 -207.348027 
L 553.662892 -205.14869 
L 557.158669 -202.949353 
L 557.802 -200.750017 
L 555.326883 -198.55068 
L 549.775395 -196.351343 
L 541.509446 -194.152007 
L 531.16565 -191.95267 
L 519.560967 -189.753333 
L 507.569725 -187.553997 
L 495.999534 -185.35466 
L 485.492172 -183.155323 
L 476.466812 -180.955986 
L 469.110316 -178.75665 
L 463.407416 -176.557313 
L 459.195845 -174.357976 
L 456.229399 -172.15864 
L 454.234754 -169.959303 
z
" style="stroke: #595959; stroke-width: 1.25"/>
    </defs>
    <g clip-path="url(#p811c4f2805)">
     <use xlink:href="#m1f55e80359" x="0" y="432" style="fill: #e99675; stroke: #595959; stroke-width: 1.25"/>
    </g>
   </g>
   <g id="PolyCollection_3">
    <defs>
     <path id="ma2355238a9" d="M 718.11784 -53.566364 
L 717.38216 -53.566364 
L 717.101721 -53.868972 
L 716.652993 -54.171581 
L 715.96336 -54.474189 
L 714.942083 -54.776797 
L 713.479752 -55.079406 
L 711.448481 -55.382014 
L 708.703547 -55.684623 
L 705.088176 -55.987231 
L 700.444255 -56.28984 
L 694.632002 -56.592448 
L 687.560227 -56.895056 
L 679.225508 -57.197665 
L 669.753752 -57.500273 
L 659.432977 -57.802882 
L 648.723758 -58.10549 
L 638.235806 -58.408099 
L 628.666174 -58.710707 
L 620.705511 -59.013316 
L 614.930014 -59.315924 
L 611.70404 -59.618532 
L 611.118 -59.921141 
L 612.97755 -60.223749 
L 616.845831 -60.526358 
L 622.126088 -60.828966 
L 628.162629 -61.131575 
L 634.336757 -61.434183 
L 640.140018 -61.736791 
L 645.216475 -62.0394 
L 649.37433 -62.342008 
L 652.572703 -62.644617 
L 654.891392 -62.947225 
L 656.491416 -63.249834 
L 657.573561 -63.552442 
L 658.341573 -63.85505 
L 658.975594 -64.157659 
L 659.619117 -64.460267 
L 660.379193 -64.762876 
L 661.335655 -65.065484 
L 662.552586 -65.368093 
L 664.085185 -65.670701 
L 665.978043 -65.97331 
L 668.25532 -66.275918 
L 670.907449 -66.578526 
L 673.881046 -66.881135 
L 677.077763 -67.183743 
L 680.364474 -67.486352 
L 683.592955 -67.78896 
L 686.623867 -68.091569 
L 689.348571 -68.394177 
L 691.703401 -68.696785 
L 693.67373 -68.999394 
L 695.288388 -69.302002 
L 696.607507 -69.604611 
L 697.707933 -69.907219 
L 698.669851 -70.209828 
L 699.566751 -70.512436 
L 700.45904 -70.815045 
L 701.390472 -71.117653 
L 702.386295 -71.420261 
L 703.452687 -71.72287 
L 704.577883 -72.025478 
L 705.735712 -72.328087 
L 706.891746 -72.630695 
L 708.011054 -72.933304 
L 709.065477 -73.235912 
L 710.038117 -73.53852 
L 710.923619 -73.841129 
L 711.724577 -74.143737 
L 712.445923 -74.446346 
L 713.089925 -74.748954 
L 713.653875 -75.051563 
L 714.131223 -75.354171 
L 714.515356 -75.65678 
L 714.80425 -75.959388 
L 715.004072 -76.261996 
L 715.130404 -76.564605 
L 715.206738 -76.867213 
L 715.260752 -77.169822 
L 715.319426 -77.47243 
L 715.404225 -77.775039 
L 715.52746 -78.077647 
L 715.690645 -78.380255 
L 715.885232 -78.682864 
L 716.095603 -78.985472 
L 716.303574 -79.288081 
L 716.493242 -79.590689 
L 716.654794 -79.893298 
L 716.786212 -80.195906 
L 716.892495 -80.498515 
L 716.982875 -80.801123 
L 717.067155 -81.103731 
L 717.152513 -81.40634 
L 717.241761 -81.708948 
L 717.333381 -82.011557 
L 717.422957 -82.314165 
L 717.505201 -82.616774 
L 717.575764 -82.919382 
L 717.632291 -83.22199 
L 717.674607 -83.524599 
L 717.825393 -83.524599 
L 717.825393 -83.524599 
L 717.867709 -83.22199 
L 717.924236 -82.919382 
L 717.994799 -82.616774 
L 718.077043 -82.314165 
L 718.166619 -82.011557 
L 718.258239 -81.708948 
L 718.347487 -81.40634 
L 718.432845 -81.103731 
L 718.517125 -80.801123 
L 718.607505 -80.498515 
L 718.713788 -80.195906 
L 718.845206 -79.893298 
L 719.006758 -79.590689 
L 719.196426 -79.288081 
L 719.404397 -78.985472 
L 719.614768 -78.682864 
L 719.809355 -78.380255 
L 719.97254 -78.077647 
L 720.095775 -77.775039 
L 720.180574 -77.47243 
L 720.239248 -77.169822 
L 720.293262 -76.867213 
L 720.369596 -76.564605 
L 720.495928 -76.261996 
L 720.69575 -75.959388 
L 720.984644 -75.65678 
L 721.368777 -75.354171 
L 721.846125 -75.051563 
L 722.410075 -74.748954 
L 723.054077 -74.446346 
L 723.775423 -74.143737 
L 724.576381 -73.841129 
L 725.461883 -73.53852 
L 726.434523 -73.235912 
L 727.488946 -72.933304 
L 728.608254 -72.630695 
L 729.764288 -72.328087 
L 730.922117 -72.025478 
L 732.047313 -71.72287 
L 733.113705 -71.420261 
L 734.109528 -71.117653 
L 735.04096 -70.815045 
L 735.933249 -70.512436 
L 736.830149 -70.209828 
L 737.792067 -69.907219 
L 738.892493 -69.604611 
L 740.211612 -69.302002 
L 741.82627 -68.999394 
L 743.796599 -68.696785 
L 746.151429 -68.394177 
L 748.876133 -68.091569 
L 751.907045 -67.78896 
L 755.135526 -67.486352 
L 758.422237 -67.183743 
L 761.618954 -66.881135 
L 764.592551 -66.578526 
L 767.24468 -66.275918 
L 769.521957 -65.97331 
L 771.414815 -65.670701 
L 772.947414 -65.368093 
L 774.164345 -65.065484 
L 775.120807 -64.762876 
L 775.880883 -64.460267 
L 776.524406 -64.157659 
L 777.158427 -63.85505 
L 777.926439 -63.552442 
L 779.008584 -63.249834 
L 780.608608 -62.947225 
L 782.927297 -62.644617 
L 786.12567 -62.342008 
L 790.283525 -62.0394 
L 795.359982 -61.736791 
L 801.163243 -61.434183 
L 807.337371 -61.131575 
L 813.373912 -60.828966 
L 818.654169 -60.526358 
L 822.52245 -60.223749 
L 824.382 -59.921141 
L 823.79596 -59.618532 
L 820.569986 -59.315924 
L 814.794489 -59.013316 
L 806.833826 -58.710707 
L 797.264194 -58.408099 
L 786.776242 -58.10549 
L 776.067023 -57.802882 
L 765.746248 -57.500273 
L 756.274492 -57.197665 
L 747.939773 -56.895056 
L 740.867998 -56.592448 
L 735.055745 -56.28984 
L 730.411824 -55.987231 
L 726.796453 -55.684623 
L 724.051519 -55.382014 
L 722.020248 -55.079406 
L 720.557917 -54.776797 
L 719.53664 -54.474189 
L 718.847007 -54.171581 
L 718.398279 -53.868972 
L 718.11784 -53.566364 
z
" style="stroke: #595959; stroke-width: 1.25"/>
    </defs>
    <g clip-path="url(#p811c4f2805)">
     <use xlink:href="#ma2355238a9" x="0" y="432" style="fill: #95a3c3; stroke: #595959; stroke-width: 1.25"/>
    </g>
   </g>
   <g id="line2d_8">
    <path d="M 184.59 342.154279 
L 184.59 345.817711 
" clip-path="url(#p811c4f2805)" style="fill: none; stroke: #000000"/>
   </g>
   <g id="line2d_9">
    <path d="M 184.59 331.582662 
L 184.59 315.77757 
" clip-path="url(#p811c4f2805)" style="fill: none; stroke: #000000"/>
   </g>
   <g id="line2d_10">
    <path d="M 174.59325 345.817711 
L 194.58675 345.817711 
" clip-path="url(#p811c4f2805)" style="fill: none; stroke: #000000; stroke-linecap: round"/>
   </g>
   <g id="line2d_11">
    <path d="M 174.59325 315.77757 
L 194.58675 315.77757 
" clip-path="url(#p811c4f2805)" style="fill: none; stroke: #000000; stroke-linecap: round"/>
   </g>
   <g id="line2d_12">
    <path d="M 451.17 233.455023 
L 451.17 241.14823 
" clip-path="url(#p811c4f2805)" style="fill: none; stroke: #000000"/>
   </g>
   <g id="line2d_13">
    <path d="M 451.17 201.74017 
L 451.17 154.27256 
" clip-path="url(#p811c4f2805)" style="fill: none; stroke: #000000"/>
   </g>
   <g id="line2d_14">
    <path d="M 441.17325 241.14823 
L 461.16675 241.14823 
" clip-path="url(#p811c4f2805)" style="fill: none; stroke: #000000; stroke-linecap: round"/>
   </g>
   <g id="line2d_15">
    <path d="M 441.17325 154.27256 
L 461.16675 154.27256 
" clip-path="url(#p811c4f2805)" style="fill: none; stroke: #000000; stroke-linecap: round"/>
   </g>
   <g id="line2d_16">
    <path d="M 717.75 372.403759 
L 717.75 375.857852 
" clip-path="url(#p811c4f2805)" style="fill: none; stroke: #000000"/>
   </g>
   <g id="line2d_17">
    <path d="M 717.75 366.22826 
L 717.75 357.226685 
" clip-path="url(#p811c4f2805)" style="fill: none; stroke: #000000"/>
   </g>
   <g id="line2d_18">
    <path d="M 707.75325 375.857852 
L 727.74675 375.857852 
" clip-path="url(#p811c4f2805)" style="fill: none; stroke: #000000; stroke-linecap: round"/>
   </g>
   <g id="line2d_19">
    <path d="M 707.75325 357.226685 
L 727.74675 357.226685 
" clip-path="url(#p811c4f2805)" style="fill: none; stroke: #000000; stroke-linecap: round"/>
   </g>
   <g id="line2d_20">
    <path d="M 164.5965 340.270229 
L 204.5835 340.270229 
" clip-path="url(#p811c4f2805)" style="fill: none; stroke: #ff0000; stroke-width: 2"/>
   </g>
   <g id="line2d_21">
    <path d="M 431.1765 226.337498 
L 471.1635 226.337498 
" clip-path="url(#p811c4f2805)" style="fill: none; stroke: #ff0000; stroke-width: 2"/>
   </g>
   <g id="line2d_22">
    <path d="M 697.7565 370.258035 
L 737.7435 370.258035 
" clip-path="url(#p811c4f2805)" style="fill: none; stroke: #ff0000; stroke-width: 2"/>
   </g>
   <g id="patch_3">
    <path d="M 51.3 395.14 
L 51.3 27.6 
" style="fill: none; stroke: #cccccc; stroke-width: 1.25; stroke-linejoin: miter; stroke-linecap: square"/>
   </g>
   <g id="patch_4">
    <path d="M 851.04 395.14 
L 851.04 27.6 
" style="fill: none; stroke: #cccccc; stroke-width: 1.25; stroke-linejoin: miter; stroke-linecap: square"/>
   </g>
   <g id="patch_5">
    <path d="M 51.3 395.14 
L 851.04 395.14 
" style="fill: none; stroke: #cccccc; stroke-width: 1.25; stroke-linejoin: miter; stroke-linecap: square"/>
   </g>
   <g id="patch_6">
    <path d="M 51.3 27.6 
L 851.04 27.6 
" style="fill: none; stroke: #cccccc; stroke-width: 1.25; stroke-linejoin: miter; stroke-linecap: square"/>
   </g>
   <g id="text_12">
    <!-- Handshake duration on QUIC with mldsa87 signature algorithm — ideal conditions -->
    <g style="fill: #262626" transform="translate(203.870625 21.6) scale(0.12 -0.12)">
     <defs>
      <path id="DejaVuSans-51" d="M 2522 4238 
Q 1834 4238 1429 3725 
Q 1025 3213 1025 2328 
Q 1025 1447 1429 934 
Q 1834 422 2522 422 
Q 3209 422 3611 934 
Q 4013 1447 4013 2328 
Q 4013 3213 3611 3725 
Q 3209 4238 2522 4238 
z
M 3406 84 
L 4238 -825 
L 3475 -825 
L 2784 -78 
Q 2681 -84 2626 -87 
Q 2572 -91 2522 -91 
Q 1538 -91 948 567 
Q 359 1225 359 2328 
Q 359 3434 948 4092 
Q 1538 4750 2522 4750 
Q 3503 4750 4090 4092 
Q 4678 3434 4678 2328 
Q 4678 1516 4351 937 
Q 4025 359 3406 84 
z
" transform="scale(0.015625)"/>
      <path id="DejaVuSans-55" d="M 556 4666 
L 1191 4666 
L 1191 1831 
Q 1191 1081 1462 751 
Q 1734 422 2344 422 
Q 2950 422 3222 751 
Q 3494 1081 3494 1831 
L 3494 4666 
L 4128 4666 
L 4128 1753 
Q 4128 841 3676 375 
Q 3225 -91 2344 -91 
Q 1459 -91 1007 375 
Q 556 841 556 1753 
L 556 4666 
z
" transform="scale(0.015625)"/>
      <path id="DejaVuSans-49" d="M 628 4666 
L 1259 4666 
L 1259 0 
L 628 0 
L 628 4666 
z
" transform="scale(0.015625)"/>
      <path id="DejaVuSans-43" d="M 4122 4306 
L 4122 3641 
Q 3803 3938 3442 4084 
Q 3081 4231 2675 4231 
Q 1875 4231 1450 3742 
Q 1025 3253 1025 2328 
Q 1025 1406 1450 917 
Q 1875 428 2675 428 
Q 3081 428 3442 575 
Q 3803 722 4122 1019 
L 4122 359 
Q 3791 134 3420 21 
Q 3050 -91 2638 -91 
Q 1578 -91 968 557 
Q 359 1206 359 2328 
Q 359 3453 968 4101 
Q 1578 4750 2638 4750 
Q 3056 4750 3426 4639 
Q 3797 4528 4122 4306 
z
" transform="scale(0.015625)"/>
      <path id="DejaVuSans-77" d="M 269 3500 
L 844 3500 
L 1563 769 
L 2278 3500 
L 2956 3500 
L 3675 769 
L 4391 3500 
L 4966 3500 
L 4050 0 
L 3372 0 
L 2619 2869 
L 1863 0 
L 1184 0 
L 269 3500 
z
" transform="scale(0.015625)"/>
      <path id="DejaVuSans-38" d="M 2034 2216 
Q 1584 2216 1326 1975 
Q 1069 1734 1069 1313 
Q 1069 891 1326 650 
Q 1584 409 2034 409 
Q 2484 409 2743 651 
Q 3003 894 3003 1313 
Q 3003 1734 2745 1975 
Q 2488 2216 2034 2216 
z
M 1403 2484 
Q 997 2584 770 2862 
Q 544 3141 544 3541 
Q 544 4100 942 4425 
Q 1341 4750 2034 4750 
Q 2731 4750 3128 4425 
Q 3525 4100 3525 3541 
Q 3525 3141 3298 2862 
Q 3072 2584 2669 2484 
Q 3125 2378 3379 2068 
Q 3634 1759 3634 1313 
Q 3634 634 3220 271 
Q 2806 -91 2034 -91 
Q 1263 -91 848 271 
Q 434 634 434 1313 
Q 434 1759 690 2068 
Q 947 2378 1403 2484 
z
M 1172 3481 
Q 1172 3119 1398 2916 
Q 1625 2713 2034 2713 
Q 2441 2713 2670 2916 
Q 2900 3119 2900 3481 
Q 2900 3844 2670 4047 
Q 2441 4250 2034 4250 
Q 1625 4250 1398 4047 
Q 1172 3844 1172 3481 
z
" transform="scale(0.015625)"/>
      <path id="DejaVuSans-37" d="M 525 4666 
L 3525 4666 
L 3525 4397 
L 1831 0 
L 1172 0 
L 2766 4134 
L 525 4134 
L 525 4666 
z
" transform="scale(0.015625)"/>
      <path id="DejaVuSans-67" d="M 2906 1791 
Q 2906 2416 2648 2759 
Q 2391 3103 1925 3103 
Q 1463 3103 1205 2759 
Q 947 2416 947 1791 
Q 947 1169 1205 825 
Q 1463 481 1925 481 
Q 2391 481 2648 825 
Q 2906 1169 2906 1791 
z
M 3481 434 
Q 3481 -459 3084 -895 
Q 2688 -1331 1869 -1331 
Q 1566 -1331 1297 -1286 
Q 1028 -1241 775 -1147 
L 775 -588 
Q 1028 -725 1275 -790 
Q 1522 -856 1778 -856 
Q 2344 -856 2625 -561 
Q 2906 -266 2906 331 
L 2906 616 
Q 2728 306 2450 153 
Q 2172 0 1784 0 
Q 1141 0 747 490 
Q 353 981 353 1791 
Q 353 2603 747 3093 
Q 1141 3584 1784 3584 
Q 2172 3584 2450 3431 
Q 2728 3278 2906 2969 
L 2906 3500 
L 3481 3500 
L 3481 434 
z
" transform="scale(0.015625)"/>
      <path id="DejaVuSans-2014" d="M 313 1978 
L 6088 1978 
L 6088 1528 
L 313 1528 
L 313 1978 
z
" transform="scale(0.015625)"/>
      <path id="DejaVuSans-63" d="M 3122 3366 
L 3122 2828 
Q 2878 2963 2633 3030 
Q 2388 3097 2138 3097 
Q 1578 3097 1268 2742 
Q 959 2388 959 1747 
Q 959 1106 1268 751 
Q 1578 397 2138 397 
Q 2388 397 2633 464 
Q 2878 531 3122 666 
L 3122 134 
Q 2881 22 2623 -34 
Q 2366 -91 2075 -91 
Q 1284 -91 818 406 
Q 353 903 353 1747 
Q 353 2603 823 3093 
Q 1294 3584 2113 3584 
Q 2378 3584 2631 3529 
Q 2884 3475 3122 3366 
z
" transform="scale(0.015625)"/>
     </defs>
     <use xlink:href="#DejaVuSans-48"/>
     <use xlink:href="#DejaVuSans-61" x="75.195312"/>
     <use xlink:href="#DejaVuSans-6e" x="136.474609"/>
     <use xlink:href="#DejaVuSans-64" x="199.853516"/>
     <use xlink:href="#DejaVuSans-73" x="263.330078"/>
     <use xlink:href="#DejaVuSans-68" x="315.429688"/>
     <use xlink:href="#DejaVuSans-61" x="378.808594"/>
     <use xlink:href="#DejaVuSans-6b" x="440.087891"/>
     <use xlink:href="#DejaVuSans-65" x="494.373047"/>
     <use xlink:href="#DejaVuSans-20" x="555.896484"/>
     <use xlink:href="#DejaVuSans-64" x="587.683594"/>
     <use xlink:href="#DejaVuSans-75" x="651.160156"/>
     <use xlink:href="#DejaVuSans-72" x="714.539062"/>
     <use xlink:href="#DejaVuSans-61" x="755.652344"/>
     <use xlink:href="#DejaVuSans-74" x="816.931641"/>
     <use xlink:href="#DejaVuSans-69" x="856.140625"/>
     <use xlink:href="#DejaVuSans-6f" x="883.923828"/>
     <use xlink:href="#DejaVuSans-6e" x="945.105469"/>
     <use xlink:href="#DejaVuSans-20" x="1008.484375"/>
     <use xlink:href="#DejaVuSans-6f" x="1040.271484"/>
     <use xlink:href="#DejaVuSans-6e" x="1101.453125"/>
     <use xlink:href="#DejaVuSans-20" x="1164.832031"/>
     <use xlink:href="#DejaVuSans-51" x="1196.619141"/>
     <use xlink:href="#DejaVuSans-55" x="1275.330078"/>
     <use xlink:href="#DejaVuSans-49" x="1348.523438"/>
     <use xlink:href="#DejaVuSans-43" x="1378.015625"/>
     <use xlink:href="#DejaVuSans-20" x="1447.839844"/>
     <use xlink:href="#DejaVuSans-77" x="1479.626953"/>
     <use xlink:href="#DejaVuSans-69" x="1561.414062"/>
     <use xlink:href="#DejaVuSans-74" x="1589.197266"/>
     <use xlink:href="#DejaVuSans-68" x="1628.40625"/>
     <use xlink:href="#DejaVuSans-20" x="1691.785156"/>
     <use xlink:href="#DejaVuSans-6d" x="1723.572266"/>
     <use xlink:href="#DejaVuSans-6c" x="1820.984375"/>
     <use xlink:href="#DejaVuSans-64" x="1848.767578"/>
     <use xlink:href="#DejaVuSans-73" x="1912.244141"/>
     <use xlink:href="#DejaVuSans-61" x="1964.34375"/>
     <use xlink:href="#DejaVuSans-38" x="2025.623047"/>
     <use xlink:href="#DejaVuSans-37" x="2089.246094"/>
     <use xlink:href="#DejaVuSans-20" x="2152.869141"/>
     <use xlink:href="#DejaVuSans-73" x="2184.65625"/>
     <use xlink:href="#DejaVuSans-69" x="2236.755859"/>
     <use xlink:href="#DejaVuSans-67" x="2264.539062"/>
     <use xlink:href="#DejaVuSans-6e" x="2328.015625"/>
     <use xlink:href="#DejaVuSans-61" x="2391.394531"/>
     <use xlink:href="#DejaVuSans-74" x="2452.673828"/>
     <use xlink:href="#DejaVuSans-75" x="2491.882812"/>
     <use xlink:href="#DejaVuSans-72" x="2555.261719"/>
     <use xlink:href="#DejaVuSans-65" x="2594.125"/>
     <use xlink:href="#DejaVuSans-20" x="2655.648438"/>
     <use xlink:href="#DejaVuSans-61" x="2687.435547"/>
     <use xlink:href="#DejaVuSans-6c" x="2748.714844"/>
     <use xlink:href="#DejaVuSans-67" x="2776.498047"/>
     <use xlink:href="#DejaVuSans-6f" x="2839.974609"/>
     <use xlink:href="#DejaVuSans-72" x="2901.15625"/>
     <use xlink:href="#DejaVuSans-69" x="2942.269531"/>
     <use xlink:href="#DejaVuSans-74" x="2970.052734"/>
     <use xlink:href="#DejaVuSans-68" x="3009.261719"/>
     <use xlink:href="#DejaVuSans-6d" x="3072.640625"/>
     <use xlink:href="#DejaVuSans-20" x="3170.052734"/>
     <use xlink:href="#DejaVuSans-2014" x="3201.839844"/>
     <use xlink:href="#DejaVuSans-20" x="3301.839844"/>
     <use xlink:href="#DejaVuSans-69" x="3333.626953"/>
     <use xlink:href="#DejaVuSans-64" x="3361.410156"/>
     <use xlink:href="#DejaVuSans-65" x="3424.886719"/>
     <use xlink:href="#DejaVuSans-61" x="3486.410156"/>
     <use xlink:href="#DejaVuSans-6c" x="3547.689453"/>
     <use xlink:href="#DejaVuSans-20" x="3575.472656"/>
     <use xlink:href="#DejaVuSans-63" x="3607.259766"/>
     <use xlink:href="#DejaVuSans-6f" x="3662.240234"/>
     <use xlink:href="#DejaVuSans-6e" x="3723.421875"/>
     <use xlink:href="#DejaVuSans-64" x="3786.800781"/>
     <use xlink:href="#DejaVuSans-69" x="3850.277344"/>
     <use xlink:href="#DejaVuSans-74" x="3878.060547"/>
     <use xlink:href="#DejaVuSans-69" x="3917.269531"/>
     <use xlink:href="#DejaVuSans-6f" x="3945.052734"/>
     <use xlink:href="#DejaVuSans-6e" x="4006.234375"/>
     <use xlink:href="#DejaVuSans-73" x="4069.613281"/>
    </g>
   </g>
  </g>
 </g>
 <defs>
  <clipPath id="p811c4f2805">
   <rect x="51.3" y="27.6" width="799.74" height="367.54"/>
  </clipPath>
 </defs>
</svg>
