<?xml version="1.0" encoding="utf-8" standalone="no"?>
<!DOCTYPE svg PUBLIC "-//W3C//DTD SVG 1.1//EN"
  "http://www.w3.org/Graphics/SVG/1.1/DTD/svg11.dtd">
<svg xmlns:xlink="http://www.w3.org/1999/xlink" width="864pt" height="432pt" viewBox="0 0 864 432" xmlns="http://www.w3.org/2000/svg" version="1.1">
 <metadata>
  <rdf:RDF xmlns:dc="http://purl.org/dc/elements/1.1/" xmlns:cc="http://creativecommons.org/ns#" xmlns:rdf="http://www.w3.org/1999/02/22-rdf-syntax-ns#">
   <cc:Work>
    <dc:type rdf:resource="http://purl.org/dc/dcmitype/StillImage"/>
    <dc:date>2026-03-21T13:58:51.834426</dc:date>
    <dc:format>image/svg+xml</dc:format>
    <dc:creator>
     <cc:Agent>
      <dc:title>Matplotlib v3.6.3, https://matplotlib.org/</dc:title>
     </cc:Agent>
    </dc:creator>
   </cc:Work>
  </rdf:RDF>
 </metadata>
 <defs>
  <style type="text/css">*{stroke-linejoin: round; stroke-linecap: butt}</style>
 </defs>
 <g id="figure_1">
  <g id="patch_1">
   <path d="M 0 432 
L 864 432 
L 864 0 
L 0 0 
z
" style="fill: #ffffff"/>
  </g>
  <g id="axes_1">
   <g id="patch_2">
    <path d="M 68.85 395.14 
L 851.04 395.14 
L 851.04 27.6 
L 68.85 27.6 
z
" style="fill: #ffffff"/>
   </g>
   <g id="matplotlib.axis_1">
    <g id="xtick_1">
     <g id="text_1">
      <!-- P-384 -->
      <g style="fill: #262626" transform="translate(127.119 415.277812) scale(0.14 -0.14)">
       <defs>
        <path id="DejaVuSans-50" d="M 1259 4147 
L 1259 2394 
L 2053 2394 
Q 2494 2394 2734 2622 
Q 2975 2850 2975 3272 
Q 2975 3691 2734 3919 
Q 2494 4147 2053 4147 
L 1259 4147 
z
M 628 4666 
L 2053 4666 
Q 2838 4666 3239 4311 
Q 3641 3956 3641 3272 
Q 3641 2581 3239 2228 
Q 2838 1875 2053 1875 
L 1259 1875 
L 1259 0 
L 628 0 
L 628 4666 
z
" transform="scale(0.015625)"/>
        <path id="DejaVuSans-2d" d="M 313 2009 
L 1997 2009 
L 1997 1497 
L 313 1497 
L 313 2009 
z
" transform="scale(0.015625)"/>
        <path id="DejaVuSans-33" d="M 2597 2516 
Q 3050 2419 3304 2112 
Q 3559 1806 3559 1356 
Q 3559 666 3084 287 
Q 2609 -91 1734 -91 
Q 1441 -91 1130 -33 
Q 819 25 488 141 
L 488 750 
Q 750 597 1062 519 
Q 1375 441 1716 441 
Q 2309 441 2620 675 
Q 2931 909 2931 1356 
Q 2931 1769 2642 2001 
Q 2353 2234 1838 2234 
L 1294 2234 
L 1294 2753 
L 1863 2753 
Q 2328 2753 2575 2939 
Q 2822 3125 2822 3475 
Q 2822 3834 2567 4026 
Q 2313 4219 1838 4219 
Q 1578 4219 1281 4162 
Q 984 4106 628 3988 
L 628 4550 
Q 988 4650 1302 4700 
Q 1616 4750 1894 4750 
Q 2613 4750 3031 4423 
Q 3450 4097 3450 3541 
Q 3450 3153 3228 2886 
Q 3006 2619 2597 2516 
z
" transform="scale(0.015625)"/>
        <path id="DejaVuSans-38" d="M 2034 2216 
Q 1584 2216 1326 1975 
Q 1069 1734 1069 1313 
Q 1069 891 1326 650 
Q 1584 409 2034 409 
Q 2484 409 2743 651 
Q 3003 894 3003 1313 
Q 3003 1734 2745 1975 
Q 2488 2216 2034 2216 
z
M 1403 2484 
Q 997 2584 770 2862 
Q 544 3141 544 3541 
Q 544 4100 942 4425 
Q 1341 4750 2034 4750 
Q 2731 4750 3128 4425 
Q 3525 4100 3525 3541 
Q 3525 3141 3298 2862 
Q 3072 2584 2669 2484 
Q 3125 2378 3379 2068 
Q 3634 1759 3634 1313 
Q 3634 634 3220 271 
Q 2806 -91 2034 -91 
Q 1263 -91 848 271 
Q 434 634 434 1313 
Q 434 1759 690 2068 
Q 947 2378 1403 2484 
z
M 1172 3481 
Q 1172 3119 1398 2916 
Q 1625 2713 2034 2713 
Q 2441 2713 2670 2916 
Q 2900 3119 2900 3481 
Q 2900 3844 2670 4047 
Q 2441 4250 2034 4250 
Q 1625 4250 1398 4047 
Q 1172 3844 1172 3481 
z
" transform="scale(0.015625)"/>
        <path id="DejaVuSans-34" d="M 2419 4116 
L 825 1625 
L 2419 1625 
L 2419 4116 
z
M 2253 4666 
L 3047 4666 
L 3047 1625 
L 3713 1625 
L 3713 1100 
L 3047 1100 
L 3047 0 
L 2419 0 
L 2419 1100 
L 313 1100 
L 313 1709 
L 2253 4666 
z
" transform="scale(0.015625)"/>
       </defs>
       <use xlink:href="#DejaVuSans-50"/>
       <use xlink:href="#DejaVuSans-2d" x="58.052734"/>
       <use xlink:href="#DejaVuSans-33" x="94.136719"/>
       <use xlink:href="#DejaVuSans-38" x="157.759766"/>
       <use xlink:href="#DejaVuSans-34" x="221.382812"/>
      </g>
     </g>
    </g>
    <g id="xtick_2">
     <g id="text_2">
      <!-- x448 -->
      <g style="fill: #262626" transform="translate(286.002625 415.277812) scale(0.14 -0.14)">
       <defs>
        <path id="DejaVuSans-78" d="M 3513 3500 
L 2247 1797 
L 3578 0 
L 2900 0 
L 1881 1375 
L 863 0 
L 184 0 
L 1544 1831 
L 300 3500 
L 978 3500 
L 1906 2253 
L 2834 3500 
L 3513 3500 
z
" transform="scale(0.015625)"/>
       </defs>
       <use xlink:href="#DejaVuSans-78"/>
       <use xlink:href="#DejaVuSans-34" x="59.179688"/>
       <use xlink:href="#DejaVuSans-34" x="122.802734"/>
       <use xlink:href="#DejaVuSans-38" x="186.425781"/>
      </g>
     </g>
    </g>
    <g id="xtick_3">
     <g id="text_3">
      <!-- p384_mlkem768 -->
      <g style="fill: #262626" transform="translate(401.590156 415.277812) scale(0.14 -0.14)">
       <defs>
        <path id="DejaVuSans-70" d="M 1159 525 
L 1159 -1331 
L 581 -1331 
L 581 3500 
L 1159 3500 
L 1159 2969 
Q 1341 3281 1617 3432 
Q 1894 3584 2278 3584 
Q 2916 3584 3314 3078 
Q 3713 2572 3713 1747 
Q 3713 922 3314 415 
Q 2916 -91 2278 -91 
Q 1894 -91 1617 61 
Q 1341 213 1159 525 
z
M 3116 1747 
Q 3116 2381 2855 2742 
Q 2594 3103 2138 3103 
Q 1681 3103 1420 2742 
Q 1159 2381 1159 1747 
Q 1159 1113 1420 752 
Q 1681 391 2138 391 
Q 2594 391 2855 752 
Q 3116 1113 3116 1747 
z
" transform="scale(0.015625)"/>
        <path id="DejaVuSans-5f" d="M 3263 -1063 
L 3263 -1509 
L -63 -1509 
L -63 -1063 
L 3263 -1063 
z
" transform="scale(0.015625)"/>
        <path id="DejaVuSans-6d" d="M 3328 2828 
Q 3544 3216 3844 3400 
Q 4144 3584 4550 3584 
Q 5097 3584 5394 3201 
Q 5691 2819 5691 2113 
L 5691 0 
L 5113 0 
L 5113 2094 
Q 5113 2597 4934 2840 
Q 4756 3084 4391 3084 
Q 3944 3084 3684 2787 
Q 3425 2491 3425 1978 
L 3425 0 
L 2847 0 
L 2847 2094 
Q 2847 2600 2669 2842 
Q 2491 3084 2119 3084 
Q 1678 3084 1418 2786 
Q 1159 2488 1159 1978 
L 1159 0 
L 581 0 
L 581 3500 
L 1159 3500 
L 1159 2956 
Q 1356 3278 1631 3431 
Q 1906 3584 2284 3584 
Q 2666 3584 2933 3390 
Q 3200 3197 3328 2828 
z
" transform="scale(0.015625)"/>
        <path id="DejaVuSans-6c" d="M 603 4863 
L 1178 4863 
L 1178 0 
L 603 0 
L 603 4863 
z
" transform="scale(0.015625)"/>
        <path id="DejaVuSans-6b" d="M 581 4863 
L 1159 4863 
L 1159 1991 
L 2875 3500 
L 3609 3500 
L 1753 1863 
L 3688 0 
L 2938 0 
L 1159 1709 
L 1159 0 
L 581 0 
L 581 4863 
z
" transform="scale(0.015625)"/>
        <path id="DejaVuSans-65" d="M 3597 1894 
L 3597 1613 
L 953 1613 
Q 991 1019 1311 708 
Q 1631 397 2203 397 
Q 2534 397 2845 478 
Q 3156 559 3463 722 
L 3463 178 
Q 3153 47 2828 -22 
Q 2503 -91 2169 -91 
Q 1331 -91 842 396 
Q 353 884 353 1716 
Q 353 2575 817 3079 
Q 1281 3584 2069 3584 
Q 2775 3584 3186 3129 
Q 3597 2675 3597 1894 
z
M 3022 2063 
Q 3016 2534 2758 2815 
Q 2500 3097 2075 3097 
Q 1594 3097 1305 2825 
Q 1016 2553 972 2059 
L 3022 2063 
z
" transform="scale(0.015625)"/>
        <path id="DejaVuSans-37" d="M 525 4666 
L 3525 4666 
L 3525 4397 
L 1831 0 
L 1172 0 
L 2766 4134 
L 525 4134 
L 525 4666 
z
" transform="scale(0.015625)"/>
        <path id="DejaVuSans-36" d="M 2113 2584 
Q 1688 2584 1439 2293 
Q 1191 2003 1191 1497 
Q 1191 994 1439 701 
Q 1688 409 2113 409 
Q 2538 409 2786 701 
Q 3034 994 3034 1497 
Q 3034 2003 2786 2293 
Q 2538 2584 2113 2584 
z
M 3366 4563 
L 3366 3988 
Q 3128 4100 2886 4159 
Q 2644 4219 2406 4219 
Q 1781 4219 1451 3797 
Q 1122 3375 1075 2522 
Q 1259 2794 1537 2939 
Q 1816 3084 2150 3084 
Q 2853 3084 3261 2657 
Q 3669 2231 3669 1497 
Q 3669 778 3244 343 
Q 2819 -91 2113 -91 
Q 1303 -91 875 529 
Q 447 1150 447 2328 
Q 447 3434 972 4092 
Q 1497 4750 2381 4750 
Q 2619 4750 2861 4703 
Q 3103 4656 3366 4563 
z
" transform="scale(0.015625)"/>
       </defs>
       <use xlink:href="#DejaVuSans-70"/>
       <use xlink:href="#DejaVuSans-33" x="63.476562"/>
       <use xlink:href="#DejaVuSans-38" x="127.099609"/>
       <use xlink:href="#DejaVuSans-34" x="190.722656"/>
       <use xlink:href="#DejaVuSans-5f" x="254.345703"/>
       <use xlink:href="#DejaVuSans-6d" x="304.345703"/>
       <use xlink:href="#DejaVuSans-6c" x="401.757812"/>
       <use xlink:href="#DejaVuSans-6b" x="429.541016"/>
       <use xlink:href="#DejaVuSans-65" x="483.826172"/>
       <use xlink:href="#DejaVuSans-6d" x="545.349609"/>
       <use xlink:href="#DejaVuSans-37" x="642.761719"/>
       <use xlink:href="#DejaVuSans-36" x="706.384766"/>
       <use xlink:href="#DejaVuSans-38" x="770.007812"/>
      </g>
     </g>
    </g>
    <g id="xtick_4">
     <g id="text_4">
      <!-- x448_mlkem768 -->
      <g style="fill: #262626" transform="translate(558.328938 415.277812) scale(0.14 -0.14)">
       <use xlink:href="#DejaVuSans-78"/>
       <use xlink:href="#DejaVuSans-34" x="59.179688"/>
       <use xlink:href="#DejaVuSans-34" x="122.802734"/>
       <use xlink:href="#DejaVuSans-38" x="186.425781"/>
       <use xlink:href="#DejaVuSans-5f" x="250.048828"/>
       <use xlink:href="#DejaVuSans-6d" x="300.048828"/>
       <use xlink:href="#DejaVuSans-6c" x="397.460938"/>
       <use xlink:href="#DejaVuSans-6b" x="425.244141"/>
       <use xlink:href="#DejaVuSans-65" x="479.529297"/>
       <use xlink:href="#DejaVuSans-6d" x="541.052734"/>
       <use xlink:href="#DejaVuSans-37" x="638.464844"/>
       <use xlink:href="#DejaVuSans-36" x="702.087891"/>
       <use xlink:href="#DejaVuSans-38" x="765.710938"/>
      </g>
     </g>
    </g>
    <g id="xtick_5">
     <g id="text_5">
      <!-- mlkem768 -->
      <g style="fill: #262626" transform="translate(735.771312 415.277812) scale(0.14 -0.14)">
       <use xlink:href="#DejaVuSans-6d"/>
       <use xlink:href="#DejaVuSans-6c" x="97.412109"/>
       <use xlink:href="#DejaVuSans-6b" x="125.195312"/>
       <use xlink:href="#DejaVuSans-65" x="179.480469"/>
       <use xlink:href="#DejaVuSans-6d" x="241.003906"/>
       <use xlink:href="#DejaVuSans-37" x="338.416016"/>
       <use xlink:href="#DejaVuSans-36" x="402.039062"/>
       <use xlink:href="#DejaVuSans-38" x="465.662109"/>
      </g>
     </g>
    </g>
   </g>
   <g id="matplotlib.axis_2">
    <g id="ytick_1">
     <g id="line2d_1">
      <path d="M 68.85 369.970299 
L 851.04 369.970299 
" clip-path="url(#p40bb6b2950)" style="fill: none; stroke: #cccccc; stroke-linecap: round"/>
     </g>
     <g id="text_6">
      <!-- 802.5 -->
      <g style="fill: #262626" transform="translate(27.859063 374.149439) scale(0.11 -0.11)">
       <defs>
        <path id="DejaVuSans-30" d="M 2034 4250 
Q 1547 4250 1301 3770 
Q 1056 3291 1056 2328 
Q 1056 1369 1301 889 
Q 1547 409 2034 409 
Q 2525 409 2770 889 
Q 3016 1369 3016 2328 
Q 3016 3291 2770 3770 
Q 2525 4250 2034 4250 
z
M 2034 4750 
Q 2819 4750 3233 4129 
Q 3647 3509 3647 2328 
Q 3647 1150 3233 529 
Q 2819 -91 2034 -91 
Q 1250 -91 836 529 
Q 422 1150 422 2328 
Q 422 3509 836 4129 
Q 1250 4750 2034 4750 
z
" transform="scale(0.015625)"/>
        <path id="DejaVuSans-32" d="M 1228 531 
L 3431 531 
L 3431 0 
L 469 0 
L 469 531 
Q 828 903 1448 1529 
Q 2069 2156 2228 2338 
Q 2531 2678 2651 2914 
Q 2772 3150 2772 3378 
Q 2772 3750 2511 3984 
Q 2250 4219 1831 4219 
Q 1534 4219 1204 4116 
Q 875 4013 500 3803 
L 500 4441 
Q 881 4594 1212 4672 
Q 1544 4750 1819 4750 
Q 2544 4750 2975 4387 
Q 3406 4025 3406 3419 
Q 3406 3131 3298 2873 
Q 3191 2616 2906 2266 
Q 2828 2175 2409 1742 
Q 1991 1309 1228 531 
z
" transform="scale(0.015625)"/>
        <path id="DejaVuSans-2e" d="M 684 794 
L 1344 794 
L 1344 0 
L 684 0 
L 684 794 
z
" transform="scale(0.015625)"/>
        <path id="DejaVuSans-35" d="M 691 4666 
L 3169 4666 
L 3169 4134 
L 1269 4134 
L 1269 2991 
Q 1406 3038 1543 3061 
Q 1681 3084 1819 3084 
Q 2600 3084 3056 2656 
Q 3513 2228 3513 1497 
Q 3513 744 3044 326 
Q 2575 -91 1722 -91 
Q 1428 -91 1123 -41 
Q 819 9 494 109 
L 494 744 
Q 775 591 1075 516 
Q 1375 441 1709 441 
Q 2250 441 2565 725 
Q 2881 1009 2881 1497 
Q 2881 1984 2565 2268 
Q 2250 2553 1709 2553 
Q 1456 2553 1204 2497 
Q 953 2441 691 2322 
L 691 4666 
z
" transform="scale(0.015625)"/>
       </defs>
       <use xlink:href="#DejaVuSans-38"/>
       <use xlink:href="#DejaVuSans-30" x="63.623047"/>
       <use xlink:href="#DejaVuSans-32" x="127.246094"/>
       <use xlink:href="#DejaVuSans-2e" x="190.869141"/>
       <use xlink:href="#DejaVuSans-35" x="222.65625"/>
      </g>
     </g>
    </g>
    <g id="ytick_2">
     <g id="line2d_2">
      <path d="M 68.85 324.271827 
L 851.04 324.271827 
" clip-path="url(#p40bb6b2950)" style="fill: none; stroke: #cccccc; stroke-linecap: round"/>
     </g>
     <g id="text_7">
      <!-- 805.0 -->
      <g style="fill: #262626" transform="translate(27.859063 328.450967) scale(0.11 -0.11)">
       <use xlink:href="#DejaVuSans-38"/>
       <use xlink:href="#DejaVuSans-30" x="63.623047"/>
       <use xlink:href="#DejaVuSans-35" x="127.246094"/>
       <use xlink:href="#DejaVuSans-2e" x="190.869141"/>
       <use xlink:href="#DejaVuSans-30" x="222.65625"/>
      </g>
     </g>
    </g>
    <g id="ytick_3">
     <g id="line2d_3">
      <path d="M 68.85 278.573355 
L 851.04 278.573355 
" clip-path="url(#p40bb6b2950)" style="fill: none; stroke: #cccccc; stroke-linecap: round"/>
     </g>
     <g id="text_8">
      <!-- 807.5 -->
      <g style="fill: #262626" transform="translate(27.859063 282.752495) scale(0.11 -0.11)">
       <use xlink:href="#DejaVuSans-38"/>
       <use xlink:href="#DejaVuSans-30" x="63.623047"/>
       <use xlink:href="#DejaVuSans-37" x="127.246094"/>
       <use xlink:href="#DejaVuSans-2e" x="190.869141"/>
       <use xlink:href="#DejaVuSans-35" x="222.65625"/>
      </g>
     </g>
    </g>
    <g id="ytick_4">
     <g id="line2d_4">
      <path d="M 68.85 232.874883 
L 851.04 232.874883 
" clip-path="url(#p40bb6b2950)" style="fill: none; stroke: #cccccc; stroke-linecap: round"/>
     </g>
     <g id="text_9">
      <!-- 810.0 -->
      <g style="fill: #262626" transform="translate(27.859063 237.054023) scale(0.11 -0.11)">
       <defs>
        <path id="DejaVuSans-31" d="M 794 531 
L 1825 531 
L 1825 4091 
L 703 3866 
L 703 4441 
L 1819 4666 
L 2450 4666 
L 2450 531 
L 3481 531 
L 3481 0 
L 794 0 
L 794 531 
z
" transform="scale(0.015625)"/>
       </defs>
       <use xlink:href="#DejaVuSans-38"/>
       <use xlink:href="#DejaVuSans-31" x="63.623047"/>
       <use xlink:href="#DejaVuSans-30" x="127.246094"/>
       <use xlink:href="#DejaVuSans-2e" x="190.869141"/>
       <use xlink:href="#DejaVuSans-30" x="222.65625"/>
      </g>
     </g>
    </g>
    <g id="ytick_5">
     <g id="line2d_5">
      <path d="M 68.85 187.176411 
L 851.04 187.176411 
" clip-path="url(#p40bb6b2950)" style="fill: none; stroke: #cccccc; stroke-linecap: round"/>
     </g>
     <g id="text_10">
      <!-- 812.5 -->
      <g style="fill: #262626" transform="translate(27.859063 191.355552) scale(0.11 -0.11)">
       <use xlink:href="#DejaVuSans-38"/>
       <use xlink:href="#DejaVuSans-31" x="63.623047"/>
       <use xlink:href="#DejaVuSans-32" x="127.246094"/>
       <use xlink:href="#DejaVuSans-2e" x="190.869141"/>
       <use xlink:href="#DejaVuSans-35" x="222.65625"/>
      </g>
     </g>
    </g>
    <g id="ytick_6">
     <g id="line2d_6">
      <path d="M 68.85 141.477939 
L 851.04 141.477939 
" clip-path="url(#p40bb6b2950)" style="fill: none; stroke: #cccccc; stroke-linecap: round"/>
     </g>
     <g id="text_11">
      <!-- 815.0 -->
      <g style="fill: #262626" transform="translate(27.859063 145.65708) scale(0.11 -0.11)">
       <use xlink:href="#DejaVuSans-38"/>
       <use xlink:href="#DejaVuSans-31" x="63.623047"/>
       <use xlink:href="#DejaVuSans-35" x="127.246094"/>
       <use xlink:href="#DejaVuSans-2e" x="190.869141"/>
       <use xlink:href="#DejaVuSans-30" x="222.65625"/>
      </g>
     </g>
    </g>
    <g id="ytick_7">
     <g id="line2d_7">
      <path d="M 68.85 95.779467 
L 851.04 95.779467 
" clip-path="url(#p40bb6b2950)" style="fill: none; stroke: #cccccc; stroke-linecap: round"/>
     </g>
     <g id="text_12">
      <!-- 817.5 -->
      <g style="fill: #262626" transform="translate(27.859063 99.958608) scale(0.11 -0.11)">
       <use xlink:href="#DejaVuSans-38"/>
       <use xlink:href="#DejaVuSans-31" x="63.623047"/>
       <use xlink:href="#DejaVuSans-37" x="127.246094"/>
       <use xlink:href="#DejaVuSans-2e" x="190.869141"/>
       <use xlink:href="#DejaVuSans-35" x="222.65625"/>
      </g>
     </g>
    </g>
    <g id="ytick_8">
     <g id="line2d_8">
      <path d="M 68.85 50.080995 
L 851.04 50.080995 
" clip-path="url(#p40bb6b2950)" style="fill: none; stroke: #cccccc; stroke-linecap: round"/>
     </g>
     <g id="text_13">
      <!-- 820.0 -->
      <g style="fill: #262626" transform="translate(27.859063 54.260136) scale(0.11 -0.11)">
       <use xlink:href="#DejaVuSans-38"/>
       <use xlink:href="#DejaVuSans-32" x="63.623047"/>
       <use xlink:href="#DejaVuSans-30" x="127.246094"/>
       <use xlink:href="#DejaVuSans-2e" x="190.869141"/>
       <use xlink:href="#DejaVuSans-30" x="222.65625"/>
      </g>
     </g>
    </g>
    <g id="text_14">
     <!-- Handshake duration (ms) -->
     <g style="fill: #262626" transform="translate(21.363438 287.437813) rotate(-90) scale(0.12 -0.12)">
      <defs>
       <path id="DejaVuSans-48" d="M 628 4666 
L 1259 4666 
L 1259 2753 
L 3553 2753 
L 3553 4666 
L 4184 4666 
L 4184 0 
L 3553 0 
L 3553 2222 
L 1259 2222 
L 1259 0 
L 628 0 
L 628 4666 
z
" transform="scale(0.015625)"/>
       <path id="DejaVuSans-61" d="M 2194 1759 
Q 1497 1759 1228 1600 
Q 959 1441 959 1056 
Q 959 750 1161 570 
Q 1363 391 1709 391 
Q 2188 391 2477 730 
Q 2766 1069 2766 1631 
L 2766 1759 
L 2194 1759 
z
M 3341 1997 
L 3341 0 
L 2766 0 
L 2766 531 
Q 2569 213 2275 61 
Q 1981 -91 1556 -91 
Q 1019 -91 701 211 
Q 384 513 384 1019 
Q 384 1609 779 1909 
Q 1175 2209 1959 2209 
L 2766 2209 
L 2766 2266 
Q 2766 2663 2505 2880 
Q 2244 3097 1772 3097 
Q 1472 3097 1187 3025 
Q 903 2953 641 2809 
L 641 3341 
Q 956 3463 1253 3523 
Q 1550 3584 1831 3584 
Q 2591 3584 2966 3190 
Q 3341 2797 3341 1997 
z
" transform="scale(0.015625)"/>
       <path id="DejaVuSans-6e" d="M 3513 2113 
L 3513 0 
L 2938 0 
L 2938 2094 
Q 2938 2591 2744 2837 
Q 2550 3084 2163 3084 
Q 1697 3084 1428 2787 
Q 1159 2491 1159 1978 
L 1159 0 
L 581 0 
L 581 3500 
L 1159 3500 
L 1159 2956 
Q 1366 3272 1645 3428 
Q 1925 3584 2291 3584 
Q 2894 3584 3203 3211 
Q 3513 2838 3513 2113 
z
" transform="scale(0.015625)"/>
       <path id="DejaVuSans-64" d="M 2906 2969 
L 2906 4863 
L 3481 4863 
L 3481 0 
L 2906 0 
L 2906 525 
Q 2725 213 2448 61 
Q 2172 -91 1784 -91 
Q 1150 -91 751 415 
Q 353 922 353 1747 
Q 353 2572 751 3078 
Q 1150 3584 1784 3584 
Q 2172 3584 2448 3432 
Q 2725 3281 2906 2969 
z
M 947 1747 
Q 947 1113 1208 752 
Q 1469 391 1925 391 
Q 2381 391 2643 752 
Q 2906 1113 2906 1747 
Q 2906 2381 2643 2742 
Q 2381 3103 1925 3103 
Q 1469 3103 1208 2742 
Q 947 2381 947 1747 
z
" transform="scale(0.015625)"/>
       <path id="DejaVuSans-73" d="M 2834 3397 
L 2834 2853 
Q 2591 2978 2328 3040 
Q 2066 3103 1784 3103 
Q 1356 3103 1142 2972 
Q 928 2841 928 2578 
Q 928 2378 1081 2264 
Q 1234 2150 1697 2047 
L 1894 2003 
Q 2506 1872 2764 1633 
Q 3022 1394 3022 966 
Q 3022 478 2636 193 
Q 2250 -91 1575 -91 
Q 1294 -91 989 -36 
Q 684 19 347 128 
L 347 722 
Q 666 556 975 473 
Q 1284 391 1588 391 
Q 1994 391 2212 530 
Q 2431 669 2431 922 
Q 2431 1156 2273 1281 
Q 2116 1406 1581 1522 
L 1381 1569 
Q 847 1681 609 1914 
Q 372 2147 372 2553 
Q 372 3047 722 3315 
Q 1072 3584 1716 3584 
Q 2034 3584 2315 3537 
Q 2597 3491 2834 3397 
z
" transform="scale(0.015625)"/>
       <path id="DejaVuSans-68" d="M 3513 2113 
L 3513 0 
L 2938 0 
L 2938 2094 
Q 2938 2591 2744 2837 
Q 2550 3084 2163 3084 
Q 1697 3084 1428 2787 
Q 1159 2491 1159 1978 
L 1159 0 
L 581 0 
L 581 4863 
L 1159 4863 
L 1159 2956 
Q 1366 3272 1645 3428 
Q 1925 3584 2291 3584 
Q 2894 3584 3203 3211 
Q 3513 2838 3513 2113 
z
" transform="scale(0.015625)"/>
       <path id="DejaVuSans-20" transform="scale(0.015625)"/>
       <path id="DejaVuSans-75" d="M 544 1381 
L 544 3500 
L 1119 3500 
L 1119 1403 
Q 1119 906 1312 657 
Q 1506 409 1894 409 
Q 2359 409 2629 706 
Q 2900 1003 2900 1516 
L 2900 3500 
L 3475 3500 
L 3475 0 
L 2900 0 
L 2900 538 
Q 2691 219 2414 64 
Q 2138 -91 1772 -91 
Q 1169 -91 856 284 
Q 544 659 544 1381 
z
M 1991 3584 
L 1991 3584 
z
" transform="scale(0.015625)"/>
       <path id="DejaVuSans-72" d="M 2631 2963 
Q 2534 3019 2420 3045 
Q 2306 3072 2169 3072 
Q 1681 3072 1420 2755 
Q 1159 2438 1159 1844 
L 1159 0 
L 581 0 
L 581 3500 
L 1159 3500 
L 1159 2956 
Q 1341 3275 1631 3429 
Q 1922 3584 2338 3584 
Q 2397 3584 2469 3576 
Q 2541 3569 2628 3553 
L 2631 2963 
z
" transform="scale(0.015625)"/>
       <path id="DejaVuSans-74" d="M 1172 4494 
L 1172 3500 
L 2356 3500 
L 2356 3053 
L 1172 3053 
L 1172 1153 
Q 1172 725 1289 603 
Q 1406 481 1766 481 
L 2356 481 
L 2356 0 
L 1766 0 
Q 1100 0 847 248 
Q 594 497 594 1153 
L 594 3053 
L 172 3053 
L 172 3500 
L 594 3500 
L 594 4494 
L 1172 4494 
z
" transform="scale(0.015625)"/>
       <path id="DejaVuSans-69" d="M 603 3500 
L 1178 3500 
L 1178 0 
L 603 0 
L 603 3500 
z
M 603 4863 
L 1178 4863 
L 1178 4134 
L 603 4134 
L 603 4863 
z
" transform="scale(0.015625)"/>
       <path id="DejaVuSans-6f" d="M 1959 3097 
Q 1497 3097 1228 2736 
Q 959 2375 959 1747 
Q 959 1119 1226 758 
Q 1494 397 1959 397 
Q 2419 397 2687 759 
Q 2956 1122 2956 1747 
Q 2956 2369 2687 2733 
Q 2419 3097 1959 3097 
z
M 1959 3584 
Q 2709 3584 3137 3096 
Q 3566 2609 3566 1747 
Q 3566 888 3137 398 
Q 2709 -91 1959 -91 
Q 1206 -91 779 398 
Q 353 888 353 1747 
Q 353 2609 779 3096 
Q 1206 3584 1959 3584 
z
" transform="scale(0.015625)"/>
       <path id="DejaVuSans-28" d="M 1984 4856 
Q 1566 4138 1362 3434 
Q 1159 2731 1159 2009 
Q 1159 1288 1364 580 
Q 1569 -128 1984 -844 
L 1484 -844 
Q 1016 -109 783 600 
Q 550 1309 550 2009 
Q 550 2706 781 3412 
Q 1013 4119 1484 4856 
L 1984 4856 
z
" transform="scale(0.015625)"/>
       <path id="DejaVuSans-29" d="M 513 4856 
L 1013 4856 
Q 1481 4119 1714 3412 
Q 1947 2706 1947 2009 
Q 1947 1309 1714 600 
Q 1481 -109 1013 -844 
L 513 -844 
Q 928 -128 1133 580 
Q 1338 1288 1338 2009 
Q 1338 2731 1133 3434 
Q 928 4138 513 4856 
z
" transform="scale(0.015625)"/>
      </defs>
      <use xlink:href="#DejaVuSans-48"/>
      <use xlink:href="#DejaVuSans-61" x="75.195312"/>
      <use xlink:href="#DejaVuSans-6e" x="136.474609"/>
      <use xlink:href="#DejaVuSans-64" x="199.853516"/>
      <use xlink:href="#DejaVuSans-73" x="263.330078"/>
      <use xlink:href="#DejaVuSans-68" x="315.429688"/>
      <use xlink:href="#DejaVuSans-61" x="378.808594"/>
      <use xlink:href="#DejaVuSans-6b" x="440.087891"/>
      <use xlink:href="#DejaVuSans-65" x="494.373047"/>
      <use xlink:href="#DejaVuSans-20" x="555.896484"/>
      <use xlink:href="#DejaVuSans-64" x="587.683594"/>
      <use xlink:href="#DejaVuSans-75" x="651.160156"/>
      <use xlink:href="#DejaVuSans-72" x="714.539062"/>
      <use xlink:href="#DejaVuSans-61" x="755.652344"/>
      <use xlink:href="#DejaVuSans-74" x="816.931641"/>
      <use xlink:href="#DejaVuSans-69" x="856.140625"/>
      <use xlink:href="#DejaVuSans-6f" x="883.923828"/>
      <use xlink:href="#DejaVuSans-6e" x="945.105469"/>
      <use xlink:href="#DejaVuSans-20" x="1008.484375"/>
      <use xlink:href="#DejaVuSans-28" x="1040.271484"/>
      <use xlink:href="#DejaVuSans-6d" x="1079.285156"/>
      <use xlink:href="#DejaVuSans-73" x="1176.697266"/>
      <use xlink:href="#DejaVuSans-29" x="1228.796875"/>
     </g>
    </g>
   </g>
   <g id="PolyCollection_1">
    <defs>
     <path id="mc596aba180" d="M 147.421871 -89.309321 
L 146.716129 -89.309321 
L 146.412432 -89.976844 
L 145.900454 -90.644366 
L 145.078289 -91.311889 
L 143.820427 -91.979411 
L 141.986711 -92.646934 
L 139.43927 -93.314456 
L 136.066592 -93.981979 
L 131.811359 -94.649501 
L 126.696402 -95.317024 
L 120.842301 -95.984546 
L 114.471214 -96.652069 
L 107.894548 -97.319591 
L 101.485788 -97.987114 
L 95.643047 -98.654636 
L 90.747322 -99.322159 
L 87.122198 -99.989681 
L 84.999432 -100.657204 
L 84.4938 -101.324726 
L 85.590199 -101.992249 
L 88.145746 -102.659771 
L 91.9085 -103.327294 
L 96.551616 -103.994816 
L 101.717843 -104.662339 
L 107.0659 -105.329861 
L 112.309171 -105.997383 
L 117.239252 -106.664906 
L 121.731377 -107.332428 
L 125.733773 -107.999951 
L 129.246751 -108.667473 
L 132.298717 -109.334996 
L 134.925326 -110.002518 
L 137.15569 -110.670041 
L 139.006802 -111.337563 
L 140.485045 -112.005086 
L 141.592236 -112.672608 
L 142.333157 -113.340131 
L 142.721885 -114.007653 
L 142.785257 -114.675176 
L 142.563046 -115.342698 
L 142.105668 -116.010221 
L 141.470908 -116.677743 
L 140.721144 -117.345266 
L 139.92175 -118.012788 
L 139.140223 -118.680311 
L 138.444697 -119.347833 
L 137.900425 -120.015356 
L 137.56372 -120.682878 
L 137.474351 -121.350401 
L 137.648639 -122.017923 
L 138.075813 -122.685446 
L 138.719309 -123.352968 
L 139.523026 -124.020491 
L 140.420882 -124.688013 
L 141.347129 -125.355536 
L 142.244954 -126.023058 
L 143.071833 -126.690581 
L 143.801269 -127.358103 
L 144.42152 -128.025625 
L 144.932419 -128.693148 
L 145.341461 -129.36067 
L 145.660038 -130.028193 
L 145.900385 -130.695715 
L 146.073414 -131.363238 
L 146.187475 -132.03076 
L 146.247958 -132.698283 
L 146.257752 -133.365805 
L 146.218501 -134.033328 
L 146.132503 -134.70085 
L 146.004814 -135.368373 
L 145.844865 -136.035895 
L 145.666865 -136.703418 
L 145.48862 -137.37094 
L 145.328963 -138.038463 
L 145.204623 -138.705985 
L 145.127622 -139.373508 
L 145.104005 -140.04103 
L 145.134099 -140.708553 
L 145.213791 -141.376075 
L 145.335997 -142.043598 
L 145.491675 -142.71112 
L 145.670238 -143.378643 
L 145.859761 -144.046165 
L 146.047539 -144.713688 
L 146.221331 -145.38121 
L 146.371164 -146.048733 
L 146.491097 -146.716255 
L 146.580268 -147.383778 
L 146.642724 -148.0513 
L 146.686016 -148.718823 
L 146.719004 -149.386345 
L 146.749572 -150.053868 
L 146.782957 -150.72139 
L 146.821091 -151.388912 
L 146.862978 -152.056435 
L 146.90579 -152.723957 
L 146.946184 -153.39148 
L 146.981394 -154.059002 
L 147.009837 -154.726525 
L 147.031199 -155.394047 
L 147.106801 -155.394047 
L 147.106801 -155.394047 
L 147.128163 -154.726525 
L 147.156606 -154.059002 
L 147.191816 -153.39148 
L 147.23221 -152.723957 
L 147.275022 -152.056435 
L 147.316909 -151.388912 
L 147.355043 -150.72139 
L 147.388428 -150.053868 
L 147.418996 -149.386345 
L 147.451984 -148.718823 
L 147.495276 -148.0513 
L 147.557732 -147.383778 
L 147.646903 -146.716255 
L 147.766836 -146.048733 
L 147.916669 -145.38121 
L 148.090461 -144.713688 
L 148.278239 -144.046165 
L 148.467762 -143.378643 
L 148.646325 -142.71112 
L 148.802003 -142.043598 
L 148.924209 -141.376075 
L 149.003901 -140.708553 
L 149.033995 -140.04103 
L 149.010378 -139.373508 
L 148.933377 -138.705985 
L 148.809037 -138.038463 
L 148.64938 -137.37094 
L 148.471135 -136.703418 
L 148.293135 -136.035895 
L 148.133186 -135.368373 
L 148.005497 -134.70085 
L 147.919499 -134.033328 
L 147.880248 -133.365805 
L 147.890042 -132.698283 
L 147.950525 -132.03076 
L 148.064586 -131.363238 
L 148.237615 -130.695715 
L 148.477962 -130.028193 
L 148.796539 -129.36067 
L 149.205581 -128.693148 
L 149.71648 -128.025625 
L 150.336731 -127.358103 
L 151.066167 -126.690581 
L 151.893046 -126.023058 
L 152.790871 -125.355536 
L 153.717118 -124.688013 
L 154.614974 -124.020491 
L 155.418691 -123.352968 
L 156.062187 -122.685446 
L 156.489361 -122.017923 
L 156.663649 -121.350401 
L 156.57428 -120.682878 
L 156.237575 -120.015356 
L 155.693303 -119.347833 
L 154.997777 -118.680311 
L 154.21625 -118.012788 
L 153.416856 -117.345266 
L 152.667092 -116.677743 
L 152.032332 -116.010221 
L 151.574954 -115.342698 
L 151.352743 -114.675176 
L 151.416115 -114.007653 
L 151.804843 -113.340131 
L 152.545764 -112.672608 
L 153.652955 -112.005086 
L 155.131198 -111.337563 
L 156.98231 -110.670041 
L 159.212674 -110.002518 
L 161.839283 -109.334996 
L 164.891249 -108.667473 
L 168.404227 -107.999951 
L 172.406623 -107.332428 
L 176.898748 -106.664906 
L 181.828829 -105.997383 
L 187.0721 -105.329861 
L 192.420157 -104.662339 
L 197.586384 -103.994816 
L 202.2295 -103.327294 
L 205.992254 -102.659771 
L 208.547801 -101.992249 
L 209.6442 -101.324726 
L 209.138568 -100.657204 
L 207.015802 -99.989681 
L 203.390678 -99.322159 
L 198.494953 -98.654636 
L 192.652212 -97.987114 
L 186.243452 -97.319591 
L 179.666786 -96.652069 
L 173.295699 -95.984546 
L 167.441598 -95.317024 
L 162.326641 -94.649501 
L 158.071408 -93.981979 
L 154.69873 -93.314456 
L 152.151289 -92.646934 
L 150.317573 -91.979411 
L 149.059711 -91.311889 
L 148.237546 -90.644366 
L 147.725568 -89.976844 
L 147.421871 -89.309321 
z
" style="stroke: #595959; stroke-width: 1.25"/>
    </defs>
    <g clip-path="url(#p40bb6b2950)">
     <use xlink:href="#mc596aba180" x="0" y="432" style="fill: #72b6a1; stroke: #595959; stroke-width: 1.25"/>
    </g>
   </g>
   <g id="PolyCollection_2">
    <defs>
     <path id="m0c6ddc6b6b" d="M 303.646776 -64.802534 
L 303.367224 -64.802534 
L 303.211616 -65.470307 
L 302.92693 -66.13808 
L 302.441449 -66.805854 
L 301.661857 -67.473627 
L 300.469576 -68.1414 
L 298.715004 -68.809173 
L 296.215102 -69.476946 
L 292.767492 -70.144719 
L 288.19579 -70.812492 
L 282.428316 -71.480265 
L 275.586699 -72.148039 
L 268.03834 -72.815812 
L 260.369787 -73.483585 
L 253.275443 -74.151358 
L 247.406357 -74.819131 
L 243.247715 -75.486904 
L 241.068337 -76.154677 
L 240.9318 -76.82245 
L 242.724759 -77.490223 
L 246.171783 -78.157997 
L 250.847366 -78.82577 
L 256.218883 -79.493543 
L 261.735622 -80.161316 
L 266.93848 -80.829089 
L 271.541009 -81.496862 
L 275.445381 -82.164635 
L 278.694112 -82.832408 
L 281.39166 -83.500181 
L 283.638702 -84.167955 
L 285.505254 -84.835728 
L 287.041096 -85.503501 
L 288.301171 -86.171274 
L 289.360194 -86.839047 
L 290.303983 -87.50682 
L 291.204323 -88.174593 
L 292.096233 -88.842366 
L 292.974192 -89.510139 
L 293.810184 -90.177913 
L 294.581446 -90.845686 
L 295.28953 -91.513459 
L 295.958597 -92.181232 
L 296.615757 -92.849005 
L 297.269124 -93.516778 
L 297.900151 -94.184551 
L 298.474858 -94.852324 
L 298.964077 -95.520098 
L 299.358063 -96.187871 
L 299.66821 -96.855644 
L 299.919356 -97.523417 
L 300.140631 -98.19119 
L 300.359521 -98.858963 
L 300.598723 -99.526736 
L 300.873609 -100.194509 
L 301.1896 -100.862282 
L 301.540569 -101.530056 
L 301.909553 -102.197829 
L 302.272095 -102.865602 
L 302.601317 -103.533375 
L 302.873198 -104.201148 
L 303.070499 -104.868921 
L 303.184673 -105.536694 
L 303.216394 -106.204467 
L 303.176029 -106.87224 
L 303.084408 -107.540014 
L 302.97221 -108.207787 
L 302.875365 -108.87556 
L 302.825833 -109.543333 
L 302.841114 -110.211106 
L 302.918304 -110.878879 
L 303.036671 -111.546652 
L 303.167511 -112.214425 
L 303.285626 -112.882199 
L 303.376596 -113.549972 
L 303.437607 -114.217745 
L 303.473643 -114.885518 
L 303.492515 -115.553291 
L 303.501317 -116.221064 
L 303.504982 -116.888837 
L 303.506334 -117.55661 
L 303.506731 -118.224383 
L 303.50666 -118.892157 
L 303.506067 -119.55993 
L 303.504364 -120.227703 
L 303.500208 -120.895476 
L 303.491191 -121.563249 
L 303.473782 -122.231022 
L 303.443995 -122.898795 
L 303.399132 -123.566568 
L 303.340299 -124.234341 
L 303.274457 -124.902115 
L 303.214185 -125.569888 
L 303.174182 -126.237661 
L 303.165538 -126.905434 
L 303.190772 -127.573207 
L 303.242648 -128.24098 
L 303.307526 -128.908753 
L 303.371133 -129.576526 
L 303.423466 -130.2443 
L 303.46064 -130.912073 
L 303.55336 -130.912073 
L 303.55336 -130.912073 
L 303.590534 -130.2443 
L 303.642867 -129.576526 
L 303.706474 -128.908753 
L 303.771352 -128.24098 
L 303.823228 -127.573207 
L 303.848462 -126.905434 
L 303.839818 -126.237661 
L 303.799815 -125.569888 
L 303.739543 -124.902115 
L 303.673701 -124.234341 
L 303.614868 -123.566568 
L 303.570005 -122.898795 
L 303.540218 -122.231022 
L 303.522809 -121.563249 
L 303.513792 -120.895476 
L 303.509636 -120.227703 
L 303.507933 -119.55993 
L 303.50734 -118.892157 
L 303.507269 -118.224383 
L 303.507666 -117.55661 
L 303.509018 -116.888837 
L 303.512683 -116.221064 
L 303.521485 -115.553291 
L 303.540357 -114.885518 
L 303.576393 -114.217745 
L 303.637404 -113.549972 
L 303.728374 -112.882199 
L 303.846489 -112.214425 
L 303.977329 -111.546652 
L 304.095696 -110.878879 
L 304.172886 -110.211106 
L 304.188167 -109.543333 
L 304.138635 -108.87556 
L 304.04179 -108.207787 
L 303.929592 -107.540014 
L 303.837971 -106.87224 
L 303.797606 -106.204467 
L 303.829327 -105.536694 
L 303.943501 -104.868921 
L 304.140802 -104.201148 
L 304.412683 -103.533375 
L 304.741905 -102.865602 
L 305.104447 -102.197829 
L 305.473431 -101.530056 
L 305.8244 -100.862282 
L 306.140391 -100.194509 
L 306.415277 -99.526736 
L 306.654479 -98.858963 
L 306.873369 -98.19119 
L 307.094644 -97.523417 
L 307.34579 -96.855644 
L 307.655937 -96.187871 
L 308.049923 -95.520098 
L 308.539142 -94.852324 
L 309.113849 -94.184551 
L 309.744876 -93.516778 
L 310.398243 -92.849005 
L 311.055403 -92.181232 
L 311.72447 -91.513459 
L 312.432554 -90.845686 
L 313.203816 -90.177913 
L 314.039808 -89.510139 
L 314.917767 -88.842366 
L 315.809677 -88.174593 
L 316.710017 -87.50682 
L 317.653806 -86.839047 
L 318.712829 -86.171274 
L 319.972904 -85.503501 
L 321.508746 -84.835728 
L 323.375298 -84.167955 
L 325.62234 -83.500181 
L 328.319888 -82.832408 
L 331.568619 -82.164635 
L 335.472991 -81.496862 
L 340.07552 -80.829089 
L 345.278378 -80.161316 
L 350.795117 -79.493543 
L 356.166634 -78.82577 
L 360.842217 -78.157997 
L 364.289241 -77.490223 
L 366.0822 -76.82245 
L 365.945663 -76.154677 
L 363.766285 -75.486904 
L 359.607643 -74.819131 
L 353.738557 -74.151358 
L 346.644213 -73.483585 
L 338.97566 -72.815812 
L 331.427301 -72.148039 
L 324.585684 -71.480265 
L 318.81821 -70.812492 
L 314.246508 -70.144719 
L 310.798898 -69.476946 
L 308.298996 -68.809173 
L 306.544424 -68.1414 
L 305.352143 -67.473627 
L 304.572551 -66.805854 
L 304.08707 -66.13808 
L 303.802384 -65.470307 
L 303.646776 -64.802534 
z
" style="stroke: #595959; stroke-width: 1.25"/>
    </defs>
    <g clip-path="url(#p40bb6b2950)">
     <use xlink:href="#m0c6ddc6b6b" x="0" y="432" style="fill: #e99675; stroke: #595959; stroke-width: 1.25"/>
    </g>
   </g>
   <g id="PolyCollection_3">
    <defs>
     <path id="me084736fdf" d="M 461.545545 -199.565478 
L 458.344455 -199.565478 
L 457.395746 -201.465762 
L 456.0135 -203.366047 
L 454.073642 -205.266331 
L 451.45331 -207.166615 
L 448.049816 -209.0669 
L 443.804249 -210.967184 
L 438.726462 -212.867469 
L 432.916487 -214.767753 
L 426.576656 -216.668038 
L 420.009164 -218.568322 
L 413.596042 -220.468606 
L 407.761956 -222.368891 
L 402.924423 -224.269175 
L 399.439599 -226.16946 
L 397.553726 -228.069744 
L 397.3698 -229.970029 
L 398.836078 -231.870313 
L 401.758347 -233.770597 
L 405.832733 -235.670882 
L 410.691736 -237.571166 
L 415.954048 -239.471451 
L 421.269079 -241.371735 
L 426.349544 -243.27202 
L 430.988995 -245.172304 
L 435.06478 -247.072588 
L 438.529587 -248.972873 
L 441.396062 -250.873157 
L 443.718888 -252.773442 
L 445.57772 -254.673726 
L 447.062908 -256.574011 
L 448.264657 -258.474295 
L 449.265376 -260.374579 
L 450.134635 -262.274864 
L 450.926173 -264.175148 
L 451.676651 -266.075433 
L 452.40603 -267.975717 
L 453.119507 -269.876002 
L 453.810825 -271.776286 
L 454.466565 -273.67657 
L 455.070787 -275.576855 
L 455.609333 -277.477139 
L 456.073102 -279.377424 
L 456.459848 -281.277708 
L 456.774339 -283.177993 
L 457.02702 -285.078277 
L 457.231596 -286.978562 
L 457.402105 -288.878846 
L 457.550039 -290.77913 
L 457.682014 -292.679415 
L 457.798261 -294.579699 
L 457.892075 -296.479984 
L 457.950177 -298.380268 
L 457.953898 -300.280553 
L 457.88108 -302.180837 
L 457.70865 -304.081121 
L 457.415812 -305.981406 
L 456.987747 -307.88169 
L 456.419531 -309.781975 
L 455.719752 -311.682259 
L 454.913074 -313.582544 
L 454.040922 -315.482828 
L 453.159597 -317.383112 
L 452.335555 -319.283397 
L 451.638162 -321.183681 
L 451.130954 -323.083966 
L 450.862875 -324.98425 
L 450.861203 -326.884535 
L 451.127575 -328.784819 
L 451.637932 -330.685103 
L 452.346338 -332.585388 
L 453.191827 -334.485672 
L 454.106856 -336.385957 
L 455.025768 -338.286241 
L 455.891857 -340.186526 
L 456.662145 -342.08681 
L 457.309552 -343.987094 
L 457.822688 -345.887379 
L 458.203869 -347.787663 
L 458.466041 -349.687948 
L 458.629307 -351.588232 
L 458.71755 -353.488517 
L 458.755462 -355.388801 
L 458.766144 -357.289085 
L 458.769326 -359.18937 
L 458.780212 -361.089654 
L 458.808921 -362.989939 
L 458.860499 -364.890223 
L 458.935421 -366.790508 
L 459.030498 -368.690792 
L 459.140025 -370.591076 
L 459.257032 -372.491361 
L 459.374439 -374.391645 
L 459.486001 -376.29193 
L 459.586935 -378.192214 
L 459.674206 -380.092499 
L 459.746512 -381.992783 
L 459.804021 -383.893068 
L 459.847995 -385.793352 
L 459.88035 -387.693636 
L 460.00965 -387.693636 
L 460.00965 -387.693636 
L 460.042005 -385.793352 
L 460.085979 -383.893068 
L 460.143488 -381.992783 
L 460.215794 -380.092499 
L 460.303065 -378.192214 
L 460.403999 -376.29193 
L 460.515561 -374.391645 
L 460.632968 -372.491361 
L 460.749975 -370.591076 
L 460.859502 -368.690792 
L 460.954579 -366.790508 
L 461.029501 -364.890223 
L 461.081079 -362.989939 
L 461.109788 -361.089654 
L 461.120674 -359.18937 
L 461.123856 -357.289085 
L 461.134538 -355.388801 
L 461.17245 -353.488517 
L 461.260693 -351.588232 
L 461.423959 -349.687948 
L 461.686131 -347.787663 
L 462.067312 -345.887379 
L 462.580448 -343.987094 
L 463.227855 -342.08681 
L 463.998143 -340.186526 
L 464.864232 -338.286241 
L 465.783144 -336.385957 
L 466.698173 -334.485672 
L 467.543662 -332.585388 
L 468.252068 -330.685103 
L 468.762425 -328.784819 
L 469.028797 -326.884535 
L 469.027125 -324.98425 
L 468.759046 -323.083966 
L 468.251838 -321.183681 
L 467.554445 -319.283397 
L 466.730403 -317.383112 
L 465.849078 -315.482828 
L 464.976926 -313.582544 
L 464.170248 -311.682259 
L 463.470469 -309.781975 
L 462.902253 -307.88169 
L 462.474188 -305.981406 
L 462.18135 -304.081121 
L 462.00892 -302.180837 
L 461.936102 -300.280553 
L 461.939823 -298.380268 
L 461.997925 -296.479984 
L 462.091739 -294.579699 
L 462.207986 -292.679415 
L 462.339961 -290.77913 
L 462.487895 -288.878846 
L 462.658404 -286.978562 
L 462.86298 -285.078277 
L 463.115661 -283.177993 
L 463.430152 -281.277708 
L 463.816898 -279.377424 
L 464.280667 -277.477139 
L 464.819213 -275.576855 
L 465.423435 -273.67657 
L 466.079175 -271.776286 
L 466.770493 -269.876002 
L 467.48397 -267.975717 
L 468.213349 -266.075433 
L 468.963827 -264.175148 
L 469.755365 -262.274864 
L 470.624624 -260.374579 
L 471.625343 -258.474295 
L 472.827092 -256.574011 
L 474.31228 -254.673726 
L 476.171112 -252.773442 
L 478.493938 -250.873157 
L 481.360413 -248.972873 
L 484.82522 -247.072588 
L 488.901005 -245.172304 
L 493.540456 -243.27202 
L 498.620921 -241.371735 
L 503.935952 -239.471451 
L 509.198264 -237.571166 
L 514.057267 -235.670882 
L 518.131653 -233.770597 
L 521.053922 -231.870313 
L 522.5202 -229.970029 
L 522.336274 -228.069744 
L 520.450401 -226.16946 
L 516.965577 -224.269175 
L 512.128044 -222.368891 
L 506.293958 -220.468606 
L 499.880836 -218.568322 
L 493.313344 -216.668038 
L 486.973513 -214.767753 
L 481.163538 -212.867469 
L 476.085751 -210.967184 
L 471.840184 -209.0669 
L 468.43669 -207.166615 
L 465.816358 -205.266331 
L 463.8765 -203.366047 
L 462.494254 -201.465762 
L 461.545545 -199.565478 
z
" style="stroke: #595959; stroke-width: 1.25"/>
    </defs>
    <g clip-path="url(#p40bb6b2950)">
     <use xlink:href="#me084736fdf" x="0" y="432" style="fill: #95a3c3; stroke: #595959; stroke-width: 1.25"/>
    </g>
   </g>
   <g id="PolyCollection_4">
    <defs>
     <path id="mc5c86676d6" d="M 616.809828 -96.088966 
L 615.956172 -96.088966 
L 615.532542 -97.058969 
L 614.77771 -98.028973 
L 613.510876 -98.998977 
L 611.509241 -99.968981 
L 608.533981 -100.938985 
L 604.378135 -101.908989 
L 598.932274 -102.878993 
L 592.254248 -103.848997 
L 584.621368 -104.819 
L 576.541645 -105.789004 
L 568.708473 -106.759008 
L 561.89937 -107.729012 
L 556.83898 -108.699016 
L 554.061131 -109.66902 
L 553.8078 -110.639024 
L 555.992096 -111.609027 
L 560.232203 -112.579031 
L 565.94181 -113.549035 
L 572.44831 -114.519039 
L 579.107283 -115.489043 
L 585.389309 -116.459047 
L 590.927663 -117.429051 
L 595.527369 -118.399055 
L 599.143846 -119.369058 
L 601.842976 -120.339062 
L 603.754972 -121.309066 
L 605.032961 -122.27907 
L 605.823779 -123.249074 
L 606.253256 -124.219078 
L 606.422803 -125.189082 
L 606.4109 -126.159085 
L 606.273948 -127.129089 
L 606.045098 -128.099093 
L 605.734252 -129.069097 
L 605.33408 -130.039101 
L 604.834384 -131.009105 
L 604.241946 -131.979109 
L 603.59847 -132.949113 
L 602.98811 -133.919116 
L 602.529043 -134.88912 
L 602.349437 -135.859124 
L 602.55429 -136.829128 
L 603.193628 -137.799132 
L 604.242874 -138.769136 
L 605.602513 -139.73914 
L 607.117817 -140.709143 
L 608.612728 -141.679147 
L 609.927685 -142.649151 
L 610.950829 -143.619155 
L 611.635327 -144.589159 
L 612.000598 -145.559163 
L 612.119731 -146.529167 
L 612.098036 -147.499171 
L 612.048301 -148.469174 
L 612.067841 -149.439178 
L 612.221417 -150.409182 
L 612.532828 -151.379186 
L 612.986192 -152.34919 
L 613.535784 -153.319194 
L 614.121171 -154.289198 
L 614.683125 -155.259201 
L 615.176065 -156.229205 
L 615.574369 -157.199209 
L 615.872295 -158.169213 
L 616.07923 -159.139217 
L 616.212974 -160.109221 
L 616.293512 -161.079225 
L 616.338742 -162.049229 
L 616.362443 -163.019232 
L 616.374038 -163.989236 
L 616.379334 -164.95924 
L 616.381593 -165.929244 
L 616.382491 -166.899248 
L 616.38282 -167.869252 
L 616.382915 -168.839256 
L 616.382891 -169.809259 
L 616.38274 -170.779263 
L 616.382343 -171.749267 
L 616.381429 -172.719271 
L 616.379484 -173.689275 
L 616.375647 -174.659279 
L 616.368637 -175.629283 
L 616.356788 -176.599287 
L 616.338314 -177.56929 
L 616.311833 -178.539294 
L 616.277119 -179.509298 
L 616.23584 -180.479302 
L 616.191931 -181.449306 
L 616.151249 -182.41931 
L 616.120406 -183.389314 
L 616.105042 -184.359317 
L 616.108145 -185.329321 
L 616.129101 -186.299325 
L 616.163897 -187.269329 
L 616.206369 -188.239333 
L 616.24998 -189.209337 
L 616.289417 -190.179341 
L 616.321495 -191.149345 
L 616.345238 -192.119348 
L 616.420762 -192.119348 
L 616.420762 -192.119348 
L 616.444505 -191.149345 
L 616.476583 -190.179341 
L 616.51602 -189.209337 
L 616.559631 -188.239333 
L 616.602103 -187.269329 
L 616.636899 -186.299325 
L 616.657855 -185.329321 
L 616.660958 -184.359317 
L 616.645594 -183.389314 
L 616.614751 -182.41931 
L 616.574069 -181.449306 
L 616.53016 -180.479302 
L 616.488881 -179.509298 
L 616.454167 -178.539294 
L 616.427686 -177.56929 
L 616.409212 -176.599287 
L 616.397363 -175.629283 
L 616.390353 -174.659279 
L 616.386516 -173.689275 
L 616.384571 -172.719271 
L 616.383657 -171.749267 
L 616.38326 -170.779263 
L 616.383109 -169.809259 
L 616.383085 -168.839256 
L 616.38318 -167.869252 
L 616.383509 -166.899248 
L 616.384407 -165.929244 
L 616.386666 -164.95924 
L 616.391962 -163.989236 
L 616.403557 -163.019232 
L 616.427258 -162.049229 
L 616.472488 -161.079225 
L 616.553026 -160.109221 
L 616.68677 -159.139217 
L 616.893705 -158.169213 
L 617.191631 -157.199209 
L 617.589935 -156.229205 
L 618.082875 -155.259201 
L 618.644829 -154.289198 
L 619.230216 -153.319194 
L 619.779808 -152.34919 
L 620.233172 -151.379186 
L 620.544583 -150.409182 
L 620.698159 -149.439178 
L 620.717699 -148.469174 
L 620.667964 -147.499171 
L 620.646269 -146.529167 
L 620.765402 -145.559163 
L 621.130673 -144.589159 
L 621.815171 -143.619155 
L 622.838315 -142.649151 
L 624.153272 -141.679147 
L 625.648183 -140.709143 
L 627.163487 -139.73914 
L 628.523126 -138.769136 
L 629.572372 -137.799132 
L 630.21171 -136.829128 
L 630.416563 -135.859124 
L 630.236957 -134.88912 
L 629.77789 -133.919116 
L 629.16753 -132.949113 
L 628.524054 -131.979109 
L 627.931616 -131.009105 
L 627.43192 -130.039101 
L 627.031748 -129.069097 
L 626.720902 -128.099093 
L 626.492052 -127.129089 
L 626.3551 -126.159085 
L 626.343197 -125.189082 
L 626.512744 -124.219078 
L 626.942221 -123.249074 
L 627.733039 -122.27907 
L 629.011028 -121.309066 
L 630.923024 -120.339062 
L 633.622154 -119.369058 
L 637.238631 -118.399055 
L 641.838337 -117.429051 
L 647.376691 -116.459047 
L 653.658717 -115.489043 
L 660.31769 -114.519039 
L 666.82419 -113.549035 
L 672.533797 -112.579031 
L 676.773904 -111.609027 
L 678.9582 -110.639024 
L 678.704869 -109.66902 
L 675.92702 -108.699016 
L 670.86663 -107.729012 
L 664.057527 -106.759008 
L 656.224355 -105.789004 
L 648.144632 -104.819 
L 640.511752 -103.848997 
L 633.833726 -102.878993 
L 628.387865 -101.908989 
L 624.232019 -100.938985 
L 621.256759 -99.968981 
L 619.255124 -98.998977 
L 617.98829 -98.028973 
L 617.233458 -97.058969 
L 616.809828 -96.088966 
z
" style="stroke: #595959; stroke-width: 1.25"/>
    </defs>
    <g clip-path="url(#p40bb6b2950)">
     <use xlink:href="#mc5c86676d6" x="0" y="432" style="fill: #db96c0; stroke: #595959; stroke-width: 1.25"/>
    </g>
   </g>
   <g id="PolyCollection_5">
    <defs>
     <path id="m2d4d3e324c" d="M 772.935544 -53.566364 
L 772.706456 -53.566364 
L 772.610789 -53.894284 
L 772.454425 -54.222205 
L 772.210627 -54.550126 
L 771.845134 -54.878047 
L 771.313677 -55.205967 
L 770.558017 -55.533888 
L 769.501529 -55.861809 
L 768.047352 -56.18973 
L 766.08382 -56.517651 
L 763.501686 -56.845571 
L 760.224059 -57.173492 
L 756.243259 -57.501413 
L 751.651562 -57.829334 
L 746.6495 -58.157254 
L 741.52002 -58.485175 
L 736.569551 -58.813096 
L 732.053003 -59.141017 
L 728.110731 -59.468937 
L 724.744361 -59.796858 
L 721.843794 -60.124779 
L 719.255638 -60.4527 
L 716.864541 -60.780621 
L 714.653012 -61.108541 
L 712.715528 -61.436462 
L 711.223569 -61.764383 
L 710.359169 -62.092304 
L 710.2458 -62.420224 
L 710.903207 -62.748145 
L 712.240376 -63.076066 
L 714.085066 -63.403987 
L 716.235653 -63.731907 
L 718.51512 -64.059828 
L 720.808681 -64.387749 
L 723.074386 -64.71567 
L 725.32695 -65.043591 
L 727.60461 -65.371511 
L 729.933468 -65.699432 
L 732.302626 -66.027353 
L 734.658084 -66.355274 
L 736.916643 -66.683194 
L 738.994608 -67.011115 
L 740.840891 -67.339036 
L 742.461408 -67.666957 
L 743.9235 -67.994877 
L 745.336326 -68.322798 
L 746.813582 -68.650719 
L 748.433364 -68.97864 
L 750.211759 -69.306561 
L 752.100467 -69.634481 
L 754.007929 -69.962402 
L 755.83372 -70.290323 
L 757.501825 -70.618244 
L 758.98089 -70.946164 
L 760.286375 -71.274085 
L 761.467079 -71.602006 
L 762.583581 -71.929927 
L 763.687301 -72.257847 
L 764.806594 -72.585768 
L 765.942324 -72.913689 
L 767.071718 -73.24161 
L 768.157248 -73.569531 
L 769.156959 -73.897451 
L 770.033567 -74.225372 
L 770.760856 -74.553293 
L 771.327053 -74.881214 
L 771.735497 -75.209134 
L 772.00317 -75.537055 
L 772.157535 -75.864976 
L 772.23199 -76.192897 
L 772.260327 -76.520817 
L 772.271045 -76.848738 
L 772.282826 -77.176659 
L 772.302623 -77.50458 
L 772.327205 -77.832501 
L 772.347745 -78.160421 
L 772.355803 -78.488342 
L 772.348299 -78.816263 
L 772.329509 -79.144184 
L 772.309302 -79.472104 
L 772.298503 -79.800025 
L 772.303493 -80.127946 
L 772.322435 -80.455867 
L 772.344827 -80.783787 
L 772.354701 -81.111708 
L 772.336371 -81.439629 
L 772.280743 -81.76755 
L 772.189953 -82.095471 
L 772.07856 -82.423391 
L 771.970534 -82.751312 
L 771.892692 -83.079233 
L 771.866688 -83.407154 
L 771.902438 -83.735074 
L 771.995497 -84.062995 
L 772.129267 -84.390916 
L 772.280878 -84.718837 
L 772.428134 -85.046757 
L 772.554849 -85.374678 
L 772.65308 -85.702599 
L 772.72234 -86.03052 
L 772.91966 -86.03052 
L 772.91966 -86.03052 
L 772.98892 -85.702599 
L 773.087151 -85.374678 
L 773.213866 -85.046757 
L 773.361122 -84.718837 
L 773.512733 -84.390916 
L 773.646503 -84.062995 
L 773.739562 -83.735074 
L 773.775312 -83.407154 
L 773.749308 -83.079233 
L 773.671466 -82.751312 
L 773.56344 -82.423391 
L 773.452047 -82.095471 
L 773.361257 -81.76755 
L 773.305629 -81.439629 
L 773.287299 -81.111708 
L 773.297173 -80.783787 
L 773.319565 -80.455867 
L 773.338507 -80.127946 
L 773.343497 -79.800025 
L 773.332698 -79.472104 
L 773.312491 -79.144184 
L 773.293701 -78.816263 
L 773.286197 -78.488342 
L 773.294255 -78.160421 
L 773.314795 -77.832501 
L 773.339377 -77.50458 
L 773.359174 -77.176659 
L 773.370955 -76.848738 
L 773.381673 -76.520817 
L 773.41001 -76.192897 
L 773.484465 -75.864976 
L 773.63883 -75.537055 
L 773.906503 -75.209134 
L 774.314947 -74.881214 
L 774.881144 -74.553293 
L 775.608433 -74.225372 
L 776.485041 -73.897451 
L 777.484752 -73.569531 
L 778.570282 -73.24161 
L 779.699676 -72.913689 
L 780.835406 -72.585768 
L 781.954699 -72.257847 
L 783.058419 -71.929927 
L 784.174921 -71.602006 
L 785.355625 -71.274085 
L 786.66111 -70.946164 
L 788.140175 -70.618244 
L 789.80828 -70.290323 
L 791.634071 -69.962402 
L 793.541533 -69.634481 
L 795.430241 -69.306561 
L 797.208636 -68.97864 
L 798.828418 -68.650719 
L 800.305674 -68.322798 
L 801.7185 -67.994877 
L 803.180592 -67.666957 
L 804.801109 -67.339036 
L 806.647392 -67.011115 
L 808.725357 -66.683194 
L 810.983916 -66.355274 
L 813.339374 -66.027353 
L 815.708532 -65.699432 
L 818.03739 -65.371511 
L 820.31505 -65.043591 
L 822.567614 -64.71567 
L 824.833319 -64.387749 
L 827.12688 -64.059828 
L 829.406347 -63.731907 
L 831.556934 -63.403987 
L 833.401624 -63.076066 
L 834.738793 -62.748145 
L 835.3962 -62.420224 
L 835.282831 -62.092304 
L 834.418431 -61.764383 
L 832.926472 -61.436462 
L 830.988988 -61.108541 
L 828.777459 -60.780621 
L 826.386362 -60.4527 
L 823.798206 -60.124779 
L 820.897639 -59.796858 
L 817.531269 -59.468937 
L 813.588997 -59.141017 
L 809.072449 -58.813096 
L 804.12198 -58.485175 
L 798.9925 -58.157254 
L 793.990438 -57.829334 
L 789.398741 -57.501413 
L 785.417941 -57.173492 
L 782.140314 -56.845571 
L 779.55818 -56.517651 
L 777.594648 -56.18973 
L 776.140471 -55.861809 
L 775.083983 -55.533888 
L 774.328323 -55.205967 
L 773.796866 -54.878047 
L 773.431373 -54.550126 
L 773.187575 -54.222205 
L 773.031211 -53.894284 
L 772.935544 -53.566364 
z
" style="stroke: #595959; stroke-width: 1.25"/>
    </defs>
    <g clip-path="url(#p40bb6b2950)">
     <use xlink:href="#m2d4d3e324c" x="0" y="432" style="fill: #a2c865; stroke: #595959; stroke-width: 1.25"/>
    </g>
   </g>
   <g id="line2d_9">
    <path d="M 147.069 332.131964 
L 147.069 337.067399 
" clip-path="url(#p40bb6b2950)" style="fill: none; stroke: #000000"/>
   </g>
   <g id="line2d_10">
    <path d="M 147.069 325.551384 
L 147.069 316.046102 
" clip-path="url(#p40bb6b2950)" style="fill: none; stroke: #000000"/>
   </g>
   <g id="line2d_11">
    <path d="M 141.202575 337.067399 
L 152.935425 337.067399 
" clip-path="url(#p40bb6b2950)" style="fill: none; stroke: #000000; stroke-linecap: round"/>
   </g>
   <g id="line2d_12">
    <path d="M 141.202575 316.046102 
L 152.935425 316.046102 
" clip-path="url(#p40bb6b2950)" style="fill: none; stroke: #000000; stroke-linecap: round"/>
   </g>
   <g id="line2d_13">
    <path d="M 303.507 356.809139 
L 303.507 363.024131 
" clip-path="url(#p40bb6b2950)" style="fill: none; stroke: #000000"/>
   </g>
   <g id="line2d_14">
    <path d="M 303.507 349.680177 
L 303.507 339.078132 
" clip-path="url(#p40bb6b2950)" style="fill: none; stroke: #000000"/>
   </g>
   <g id="line2d_15">
    <path d="M 297.640575 363.024131 
L 309.373425 363.024131 
" clip-path="url(#p40bb6b2950)" style="fill: none; stroke: #000000; stroke-linecap: round"/>
   </g>
   <g id="line2d_16">
    <path d="M 297.640575 339.078132 
L 309.373425 339.078132 
" clip-path="url(#p40bb6b2950)" style="fill: none; stroke: #000000; stroke-linecap: round"/>
   </g>
   <g id="line2d_17">
    <path d="M 459.945 205.090212 
L 459.945 212.219174 
" clip-path="url(#p40bb6b2950)" style="fill: none; stroke: #000000"/>
   </g>
   <g id="line2d_18">
    <path d="M 459.945 184.023216 
L 459.945 154.273511 
" clip-path="url(#p40bb6b2950)" style="fill: none; stroke: #000000"/>
   </g>
   <g id="line2d_19">
    <path d="M 454.078575 212.219174 
L 465.811425 212.219174 
" clip-path="url(#p40bb6b2950)" style="fill: none; stroke: #000000; stroke-linecap: round"/>
   </g>
   <g id="line2d_20">
    <path d="M 454.078575 154.273511 
L 465.811425 154.273511 
" clip-path="url(#p40bb6b2950)" style="fill: none; stroke: #000000; stroke-linecap: round"/>
   </g>
   <g id="line2d_21">
    <path d="M 616.383 322.900872 
L 616.383 328.476086 
" clip-path="url(#p40bb6b2950)" style="fill: none; stroke: #000000"/>
   </g>
   <g id="line2d_22">
    <path d="M 616.383 308.551552 
L 616.383 288.078637 
" clip-path="url(#p40bb6b2950)" style="fill: none; stroke: #000000"/>
   </g>
   <g id="line2d_23">
    <path d="M 610.516575 328.476086 
L 622.249425 328.476086 
" clip-path="url(#p40bb6b2950)" style="fill: none; stroke: #000000; stroke-linecap: round"/>
   </g>
   <g id="line2d_24">
    <path d="M 610.516575 288.078637 
L 622.249425 288.078637 
" clip-path="url(#p40bb6b2950)" style="fill: none; stroke: #000000; stroke-linecap: round"/>
   </g>
   <g id="line2d_25">
    <path d="M 772.821 370.884268 
L 772.821 376.002497 
" clip-path="url(#p40bb6b2950)" style="fill: none; stroke: #000000"/>
   </g>
   <g id="line2d_26">
    <path d="M 772.821 365.766039 
L 772.821 358.637077 
" clip-path="url(#p40bb6b2950)" style="fill: none; stroke: #000000"/>
   </g>
   <g id="line2d_27">
    <path d="M 766.954575 376.002497 
L 778.687425 376.002497 
" clip-path="url(#p40bb6b2950)" style="fill: none; stroke: #000000; stroke-linecap: round"/>
   </g>
   <g id="line2d_28">
    <path d="M 766.954575 358.637077 
L 778.687425 358.637077 
" clip-path="url(#p40bb6b2950)" style="fill: none; stroke: #000000; stroke-linecap: round"/>
   </g>
   <g id="line2d_29">
    <path d="M 135.33615 329.755643 
L 158.80185 329.755643 
" clip-path="url(#p40bb6b2950)" style="fill: none; stroke: #ff0000; stroke-width: 2"/>
   </g>
   <g id="line2d_30">
    <path d="M 291.77415 354.250024 
L 315.23985 354.250024 
" clip-path="url(#p40bb6b2950)" style="fill: none; stroke: #ff0000; stroke-width: 2"/>
   </g>
   <g id="line2d_31">
    <path d="M 448.21215 200.977349 
L 471.67785 200.977349 
" clip-path="url(#p40bb6b2950)" style="fill: none; stroke: #ff0000; stroke-width: 2"/>
   </g>
   <g id="line2d_32">
    <path d="M 604.65015 319.884773 
L 628.11585 319.884773 
" clip-path="url(#p40bb6b2950)" style="fill: none; stroke: #ff0000; stroke-width: 2"/>
   </g>
   <g id="line2d_33">
    <path d="M 761.08815 368.873535 
L 784.55385 368.873535 
" clip-path="url(#p40bb6b2950)" style="fill: none; stroke: #ff0000; stroke-width: 2"/>
   </g>
   <g id="patch_3">
    <path d="M 68.85 395.14 
L 68.85 27.6 
" style="fill: none; stroke: #cccccc; stroke-width: 1.25; stroke-linejoin: miter; stroke-linecap: square"/>
   </g>
   <g id="patch_4">
    <path d="M 851.04 395.14 
L 851.04 27.6 
" style="fill: none; stroke: #cccccc; stroke-width: 1.25; stroke-linejoin: miter; stroke-linecap: square"/>
   </g>
   <g id="patch_5">
    <path d="M 68.85 395.14 
L 851.04 395.14 
" style="fill: none; stroke: #cccccc; stroke-width: 1.25; stroke-linejoin: miter; stroke-linecap: square"/>
   </g>
   <g id="patch_6">
    <path d="M 68.85 27.6 
L 851.04 27.6 
" style="fill: none; stroke: #cccccc; stroke-width: 1.25; stroke-linejoin: miter; stroke-linecap: square"/>
   </g>
   <g id="text_15">
    <!-- Handshake duration on QUIC with mldsa65 signature algorithm — Degraded (200ms/10%) -->
    <g style="fill: #262626" transform="translate(187.988437 21.6) scale(0.12 -0.12)">
     <defs>
      <path id="DejaVuSans-51" d="M 2522 4238 
Q 1834 4238 1429 3725 
Q 1025 3213 1025 2328 
Q 1025 1447 1429 934 
Q 1834 422 2522 422 
Q 3209 422 3611 934 
Q 4013 1447 4013 2328 
Q 4013 3213 3611 3725 
Q 3209 4238 2522 4238 
z
M 3406 84 
L 4238 -825 
L 3475 -825 
L 2784 -78 
Q 2681 -84 2626 -87 
Q 2572 -91 2522 -91 
Q 1538 -91 948 567 
Q 359 1225 359 2328 
Q 359 3434 948 4092 
Q 1538 4750 2522 4750 
Q 3503 4750 4090 4092 
Q 4678 3434 4678 2328 
Q 4678 1516 4351 937 
Q 4025 359 3406 84 
z
" transform="scale(0.015625)"/>
      <path id="DejaVuSans-55" d="M 556 4666 
L 1191 4666 
L 1191 1831 
Q 1191 1081 1462 751 
Q 1734 422 2344 422 
Q 2950 422 3222 751 
Q 3494 1081 3494 1831 
L 3494 4666 
L 4128 4666 
L 4128 1753 
Q 4128 841 3676 375 
Q 3225 -91 2344 -91 
Q 1459 -91 1007 375 
Q 556 841 556 1753 
L 556 4666 
z
" transform="scale(0.015625)"/>
      <path id="DejaVuSans-49" d="M 628 4666 
L 1259 4666 
L 1259 0 
L 628 0 
L 628 4666 
z
" transform="scale(0.015625)"/>
      <path id="DejaVuSans-43" d="M 4122 4306 
L 4122 3641 
Q 3803 3938 3442 4084 
Q 3081 4231 2675 4231 
Q 1875 4231 1450 3742 
Q 1025 3253 1025 2328 
Q 1025 1406 1450 917 
Q 1875 428 2675 428 
Q 3081 428 3442 575 
Q 3803 722 4122 1019 
L 4122 359 
Q 3791 134 3420 21 
Q 3050 -91 2638 -91 
Q 1578 -91 968 557 
Q 359 1206 359 2328 
Q 359 3453 968 4101 
Q 1578 4750 2638 4750 
Q 3056 4750 3426 4639 
Q 3797 4528 4122 4306 
z
" transform="scale(0.015625)"/>
      <path id="DejaVuSans-77" d="M 269 3500 
L 844 3500 
L 1563 769 
L 2278 3500 
L 2956 3500 
L 3675 769 
L 4391 3500 
L 4966 3500 
L 4050 0 
L 3372 0 
L 2619 2869 
L 1863 0 
L 1184 0 
L 269 3500 
z
" transform="scale(0.015625)"/>
      <path id="DejaVuSans-67" d="M 2906 1791 
Q 2906 2416 2648 2759 
Q 2391 3103 1925 3103 
Q 1463 3103 1205 2759 
Q 947 2416 947 1791 
Q 947 1169 1205 825 
Q 1463 481 1925 481 
Q 2391 481 2648 825 
Q 2906 1169 2906 1791 
z
M 3481 434 
Q 3481 -459 3084 -895 
Q 2688 -1331 1869 -1331 
Q 1566 -1331 1297 -1286 
Q 1028 -1241 775 -1147 
L 775 -588 
Q 1028 -725 1275 -790 
Q 1522 -856 1778 -856 
Q 2344 -856 2625 -561 
Q 2906 -266 2906 331 
L 2906 616 
Q 2728 306 2450 153 
Q 2172 0 1784 0 
Q 1141 0 747 490 
Q 353 981 353 1791 
Q 353 2603 747 3093 
Q 1141 3584 1784 3584 
Q 2172 3584 2450 3431 
Q 2728 3278 2906 2969 
L 2906 3500 
L 3481 3500 
L 3481 434 
z
" transform="scale(0.015625)"/>
      <path id="DejaVuSans-2014" d="M 313 1978 
L 6088 1978 
L 6088 1528 
L 313 1528 
L 313 1978 
z
" transform="scale(0.015625)"/>
      <path id="DejaVuSans-44" d="M 1259 4147 
L 1259 519 
L 2022 519 
Q 2988 519 3436 956 
Q 3884 1394 3884 2338 
Q 3884 3275 3436 3711 
Q 2988 4147 2022 4147 
L 1259 4147 
z
M 628 4666 
L 1925 4666 
Q 3281 4666 3915 4102 
Q 4550 3538 4550 2338 
Q 4550 1131 3912 565 
Q 3275 0 1925 0 
L 628 0 
L 628 4666 
z
" transform="scale(0.015625)"/>
      <path id="DejaVuSans-2f" d="M 1625 4666 
L 2156 4666 
L 531 -594 
L 0 -594 
L 1625 4666 
z
" transform="scale(0.015625)"/>
      <path id="DejaVuSans-25" d="M 4653 2053 
Q 4381 2053 4226 1822 
Q 4072 1591 4072 1178 
Q 4072 772 4226 539 
Q 4381 306 4653 306 
Q 4919 306 5073 539 
Q 5228 772 5228 1178 
Q 5228 1588 5073 1820 
Q 4919 2053 4653 2053 
z
M 4653 2450 
Q 5147 2450 5437 2106 
Q 5728 1763 5728 1178 
Q 5728 594 5436 251 
Q 5144 -91 4653 -91 
Q 4153 -91 3862 251 
Q 3572 594 3572 1178 
Q 3572 1766 3864 2108 
Q 4156 2450 4653 2450 
z
M 1428 4353 
Q 1159 4353 1004 4120 
Q 850 3888 850 3481 
Q 850 3069 1003 2837 
Q 1156 2606 1428 2606 
Q 1700 2606 1854 2837 
Q 2009 3069 2009 3481 
Q 2009 3884 1853 4118 
Q 1697 4353 1428 4353 
z
M 4250 4750 
L 4750 4750 
L 1831 -91 
L 1331 -91 
L 4250 4750 
z
M 1428 4750 
Q 1922 4750 2215 4408 
Q 2509 4066 2509 3481 
Q 2509 2891 2217 2550 
Q 1925 2209 1428 2209 
Q 931 2209 642 2551 
Q 353 2894 353 3481 
Q 353 4063 643 4406 
Q 934 4750 1428 4750 
z
" transform="scale(0.015625)"/>
     </defs>
     <use xlink:href="#DejaVuSans-48"/>
     <use xlink:href="#DejaVuSans-61" x="75.195312"/>
     <use xlink:href="#DejaVuSans-6e" x="136.474609"/>
     <use xlink:href="#DejaVuSans-64" x="199.853516"/>
     <use xlink:href="#DejaVuSans-73" x="263.330078"/>
     <use xlink:href="#DejaVuSans-68" x="315.429688"/>
     <use xlink:href="#DejaVuSans-61" x="378.808594"/>
     <use xlink:href="#DejaVuSans-6b" x="440.087891"/>
     <use xlink:href="#DejaVuSans-65" x="494.373047"/>
     <use xlink:href="#DejaVuSans-20" x="555.896484"/>
     <use xlink:href="#DejaVuSans-64" x="587.683594"/>
     <use xlink:href="#DejaVuSans-75" x="651.160156"/>
     <use xlink:href="#DejaVuSans-72" x="714.539062"/>
     <use xlink:href="#DejaVuSans-61" x="755.652344"/>
     <use xlink:href="#DejaVuSans-74" x="816.931641"/>
     <use xlink:href="#DejaVuSans-69" x="856.140625"/>
     <use xlink:href="#DejaVuSans-6f" x="883.923828"/>
     <use xlink:href="#DejaVuSans-6e" x="945.105469"/>
     <use xlink:href="#DejaVuSans-20" x="1008.484375"/>
     <use xlink:href="#DejaVuSans-6f" x="1040.271484"/>
     <use xlink:href="#DejaVuSans-6e" x="1101.453125"/>
     <use xlink:href="#DejaVuSans-20" x="1164.832031"/>
     <use xlink:href="#DejaVuSans-51" x="1196.619141"/>
     <use xlink:href="#DejaVuSans-55" x="1275.330078"/>
     <use xlink:href="#DejaVuSans-49" x="1348.523438"/>
     <use xlink:href="#DejaVuSans-43" x="1378.015625"/>
     <use xlink:href="#DejaVuSans-20" x="1447.839844"/>
     <use xlink:href="#DejaVuSans-77" x="1479.626953"/>
     <use xlink:href="#DejaVuSans-69" x="1561.414062"/>
     <use xlink:href="#DejaVuSans-74" x="1589.197266"/>
     <use xlink:href="#DejaVuSans-68" x="1628.40625"/>
     <use xlink:href="#DejaVuSans-20" x="1691.785156"/>
     <use xlink:href="#DejaVuSans-6d" x="1723.572266"/>
     <use xlink:href="#DejaVuSans-6c" x="1820.984375"/>
     <use xlink:href="#DejaVuSans-64" x="1848.767578"/>
     <use xlink:href="#DejaVuSans-73" x="1912.244141"/>
     <use xlink:href="#DejaVuSans-61" x="1964.34375"/>
     <use xlink:href="#DejaVuSans-36" x="2025.623047"/>
     <use xlink:href="#DejaVuSans-35" x="2089.246094"/>
     <use xlink:href="#DejaVuSans-20" x="2152.869141"/>
     <use xlink:href="#DejaVuSans-73" x="2184.65625"/>
     <use xlink:href="#DejaVuSans-69" x="2236.755859"/>
     <use xlink:href="#DejaVuSans-67" x="2264.539062"/>
     <use xlink:href="#DejaVuSans-6e" x="2328.015625"/>
     <use xlink:href="#DejaVuSans-61" x="2391.394531"/>
     <use xlink:href="#DejaVuSans-74" x="2452.673828"/>
     <use xlink:href="#DejaVuSans-75" x="2491.882812"/>
     <use xlink:href="#DejaVuSans-72" x="2555.261719"/>
     <use xlink:href="#DejaVuSans-65" x="2594.125"/>
     <use xlink:href="#DejaVuSans-20" x="2655.648438"/>
     <use xlink:href="#DejaVuSans-61" x="2687.435547"/>
     <use xlink:href="#DejaVuSans-6c" x="2748.714844"/>
     <use xlink:href="#DejaVuSans-67" x="2776.498047"/>
     <use xlink:href="#DejaVuSans-6f" x="2839.974609"/>
     <use xlink:href="#DejaVuSans-72" x="2901.15625"/>
     <use xlink:href="#DejaVuSans-69" x="2942.269531"/>
     <use xlink:href="#DejaVuSans-74" x="2970.052734"/>
     <use xlink:href="#DejaVuSans-68" x="3009.261719"/>
     <use xlink:href="#DejaVuSans-6d" x="3072.640625"/>
     <use xlink:href="#DejaVuSans-20" x="3170.052734"/>
     <use xlink:href="#DejaVuSans-2014" x="3201.839844"/>
     <use xlink:href="#DejaVuSans-20" x="3301.839844"/>
     <use xlink:href="#DejaVuSans-44" x="3333.626953"/>
     <use xlink:href="#DejaVuSans-65" x="3410.628906"/>
     <use xlink:href="#DejaVuSans-67" x="3472.152344"/>
     <use xlink:href="#DejaVuSans-72" x="3535.628906"/>
     <use xlink:href="#DejaVuSans-61" x="3576.742188"/>
     <use xlink:href="#DejaVuSans-64" x="3638.021484"/>
     <use xlink:href="#DejaVuSans-65" x="3701.498047"/>
     <use xlink:href="#DejaVuSans-64" x="3763.021484"/>
     <use xlink:href="#DejaVuSans-20" x="3826.498047"/>
     <use xlink:href="#DejaVuSans-28" x="3858.285156"/>
     <use xlink:href="#DejaVuSans-32" x="3897.298828"/>
     <use xlink:href="#DejaVuSans-30" x="3960.921875"/>
     <use xlink:href="#DejaVuSans-30" x="4024.544922"/>
     <use xlink:href="#DejaVuSans-6d" x="4088.167969"/>
     <use xlink:href="#DejaVuSans-73" x="4185.580078"/>
     <use xlink:href="#DejaVuSans-2f" x="4237.679688"/>
     <use xlink:href="#DejaVuSans-31" x="4271.371094"/>
     <use xlink:href="#DejaVuSans-30" x="4334.994141"/>
     <use xlink:href="#DejaVuSans-25" x="4398.617188"/>
     <use xlink:href="#DejaVuSans-29" x="4493.636719"/>
    </g>
   </g>
  </g>
 </g>
 <defs>
  <clipPath id="p40bb6b2950">
   <rect x="68.85" y="27.6" width="782.19" height="367.54"/>
  </clipPath>
 </defs>
</svg>
