<?xml version="1.0" encoding="utf-8" standalone="no"?>
<!DOCTYPE svg PUBLIC "-//W3C//DTD SVG 1.1//EN"
  "http://www.w3.org/Graphics/SVG/1.1/DTD/svg11.dtd">
<svg xmlns:xlink="http://www.w3.org/1999/xlink" width="864pt" height="432pt" viewBox="0 0 864 432" xmlns="http://www.w3.org/2000/svg" version="1.1">
 <metadata>
  <rdf:RDF xmlns:dc="http://purl.org/dc/elements/1.1/" xmlns:cc="http://creativecommons.org/ns#" xmlns:rdf="http://www.w3.org/1999/02/22-rdf-syntax-ns#">
   <cc:Work>
    <dc:type rdf:resource="http://purl.org/dc/dcmitype/StillImage"/>
    <dc:date>2026-03-21T13:58:52.538312</dc:date>
    <dc:format>image/svg+xml</dc:format>
    <dc:creator>
     <cc:Agent>
      <dc:title>Matplotlib v3.6.3, https://matplotlib.org/</dc:title>
     </cc:Agent>
    </dc:creator>
   </cc:Work>
  </rdf:RDF>
 </metadata>
 <defs>
  <style type="text/css">*{stroke-linejoin: round; stroke-linecap: butt}</style>
 </defs>
 <g id="figure_1">
  <g id="patch_1">
   <path d="M 0 432 
L 864 432 
L 864 0 
L 0 0 
z
" style="fill: #ffffff"/>
  </g>
  <g id="axes_1">
   <g id="patch_2">
    <path d="M 58.32 395.14 
L 851.04 395.14 
L 851.04 27.6 
L 58.32 27.6 
z
" style="fill: #ffffff"/>
   </g>
   <g id="matplotlib.axis_1">
    <g id="xtick_1">
     <g id="text_1">
      <!-- P-521 -->
      <g style="fill: #262626" transform="translate(170.49 415.277812) scale(0.14 -0.14)">
       <defs>
        <path id="DejaVuSans-50" d="M 1259 4147 
L 1259 2394 
L 2053 2394 
Q 2494 2394 2734 2622 
Q 2975 2850 2975 3272 
Q 2975 3691 2734 3919 
Q 2494 4147 2053 4147 
L 1259 4147 
z
M 628 4666 
L 2053 4666 
Q 2838 4666 3239 4311 
Q 3641 3956 3641 3272 
Q 3641 2581 3239 2228 
Q 2838 1875 2053 1875 
L 1259 1875 
L 1259 0 
L 628 0 
L 628 4666 
z
" transform="scale(0.015625)"/>
        <path id="DejaVuSans-2d" d="M 313 2009 
L 1997 2009 
L 1997 1497 
L 313 1497 
L 313 2009 
z
" transform="scale(0.015625)"/>
        <path id="DejaVuSans-35" d="M 691 4666 
L 3169 4666 
L 3169 4134 
L 1269 4134 
L 1269 2991 
Q 1406 3038 1543 3061 
Q 1681 3084 1819 3084 
Q 2600 3084 3056 2656 
Q 3513 2228 3513 1497 
Q 3513 744 3044 326 
Q 2575 -91 1722 -91 
Q 1428 -91 1123 -41 
Q 819 9 494 109 
L 494 744 
Q 775 591 1075 516 
Q 1375 441 1709 441 
Q 2250 441 2565 725 
Q 2881 1009 2881 1497 
Q 2881 1984 2565 2268 
Q 2250 2553 1709 2553 
Q 1456 2553 1204 2497 
Q 953 2441 691 2322 
L 691 4666 
z
" transform="scale(0.015625)"/>
        <path id="DejaVuSans-32" d="M 1228 531 
L 3431 531 
L 3431 0 
L 469 0 
L 469 531 
Q 828 903 1448 1529 
Q 2069 2156 2228 2338 
Q 2531 2678 2651 2914 
Q 2772 3150 2772 3378 
Q 2772 3750 2511 3984 
Q 2250 4219 1831 4219 
Q 1534 4219 1204 4116 
Q 875 4013 500 3803 
L 500 4441 
Q 881 4594 1212 4672 
Q 1544 4750 1819 4750 
Q 2544 4750 2975 4387 
Q 3406 4025 3406 3419 
Q 3406 3131 3298 2873 
Q 3191 2616 2906 2266 
Q 2828 2175 2409 1742 
Q 1991 1309 1228 531 
z
" transform="scale(0.015625)"/>
        <path id="DejaVuSans-31" d="M 794 531 
L 1825 531 
L 1825 4091 
L 703 3866 
L 703 4441 
L 1819 4666 
L 2450 4666 
L 2450 531 
L 3481 531 
L 3481 0 
L 794 0 
L 794 531 
z
" transform="scale(0.015625)"/>
       </defs>
       <use xlink:href="#DejaVuSans-50"/>
       <use xlink:href="#DejaVuSans-2d" x="58.052734"/>
       <use xlink:href="#DejaVuSans-35" x="94.136719"/>
       <use xlink:href="#DejaVuSans-32" x="157.759766"/>
       <use xlink:href="#DejaVuSans-31" x="221.382812"/>
      </g>
     </g>
    </g>
    <g id="xtick_2">
     <g id="text_2">
      <!-- p521_mlkem1024 -->
      <g style="fill: #262626" transform="translate(391.871406 415.277812) scale(0.14 -0.14)">
       <defs>
        <path id="DejaVuSans-70" d="M 1159 525 
L 1159 -1331 
L 581 -1331 
L 581 3500 
L 1159 3500 
L 1159 2969 
Q 1341 3281 1617 3432 
Q 1894 3584 2278 3584 
Q 2916 3584 3314 3078 
Q 3713 2572 3713 1747 
Q 3713 922 3314 415 
Q 2916 -91 2278 -91 
Q 1894 -91 1617 61 
Q 1341 213 1159 525 
z
M 3116 1747 
Q 3116 2381 2855 2742 
Q 2594 3103 2138 3103 
Q 1681 3103 1420 2742 
Q 1159 2381 1159 1747 
Q 1159 1113 1420 752 
Q 1681 391 2138 391 
Q 2594 391 2855 752 
Q 3116 1113 3116 1747 
z
" transform="scale(0.015625)"/>
        <path id="DejaVuSans-5f" d="M 3263 -1063 
L 3263 -1509 
L -63 -1509 
L -63 -1063 
L 3263 -1063 
z
" transform="scale(0.015625)"/>
        <path id="DejaVuSans-6d" d="M 3328 2828 
Q 3544 3216 3844 3400 
Q 4144 3584 4550 3584 
Q 5097 3584 5394 3201 
Q 5691 2819 5691 2113 
L 5691 0 
L 5113 0 
L 5113 2094 
Q 5113 2597 4934 2840 
Q 4756 3084 4391 3084 
Q 3944 3084 3684 2787 
Q 3425 2491 3425 1978 
L 3425 0 
L 2847 0 
L 2847 2094 
Q 2847 2600 2669 2842 
Q 2491 3084 2119 3084 
Q 1678 3084 1418 2786 
Q 1159 2488 1159 1978 
L 1159 0 
L 581 0 
L 581 3500 
L 1159 3500 
L 1159 2956 
Q 1356 3278 1631 3431 
Q 1906 3584 2284 3584 
Q 2666 3584 2933 3390 
Q 3200 3197 3328 2828 
z
" transform="scale(0.015625)"/>
        <path id="DejaVuSans-6c" d="M 603 4863 
L 1178 4863 
L 1178 0 
L 603 0 
L 603 4863 
z
" transform="scale(0.015625)"/>
        <path id="DejaVuSans-6b" d="M 581 4863 
L 1159 4863 
L 1159 1991 
L 2875 3500 
L 3609 3500 
L 1753 1863 
L 3688 0 
L 2938 0 
L 1159 1709 
L 1159 0 
L 581 0 
L 581 4863 
z
" transform="scale(0.015625)"/>
        <path id="DejaVuSans-65" d="M 3597 1894 
L 3597 1613 
L 953 1613 
Q 991 1019 1311 708 
Q 1631 397 2203 397 
Q 2534 397 2845 478 
Q 3156 559 3463 722 
L 3463 178 
Q 3153 47 2828 -22 
Q 2503 -91 2169 -91 
Q 1331 -91 842 396 
Q 353 884 353 1716 
Q 353 2575 817 3079 
Q 1281 3584 2069 3584 
Q 2775 3584 3186 3129 
Q 3597 2675 3597 1894 
z
M 3022 2063 
Q 3016 2534 2758 2815 
Q 2500 3097 2075 3097 
Q 1594 3097 1305 2825 
Q 1016 2553 972 2059 
L 3022 2063 
z
" transform="scale(0.015625)"/>
        <path id="DejaVuSans-30" d="M 2034 4250 
Q 1547 4250 1301 3770 
Q 1056 3291 1056 2328 
Q 1056 1369 1301 889 
Q 1547 409 2034 409 
Q 2525 409 2770 889 
Q 3016 1369 3016 2328 
Q 3016 3291 2770 3770 
Q 2525 4250 2034 4250 
z
M 2034 4750 
Q 2819 4750 3233 4129 
Q 3647 3509 3647 2328 
Q 3647 1150 3233 529 
Q 2819 -91 2034 -91 
Q 1250 -91 836 529 
Q 422 1150 422 2328 
Q 422 3509 836 4129 
Q 1250 4750 2034 4750 
z
" transform="scale(0.015625)"/>
        <path id="DejaVuSans-34" d="M 2419 4116 
L 825 1625 
L 2419 1625 
L 2419 4116 
z
M 2253 4666 
L 3047 4666 
L 3047 1625 
L 3713 1625 
L 3713 1100 
L 3047 1100 
L 3047 0 
L 2419 0 
L 2419 1100 
L 313 1100 
L 313 1709 
L 2253 4666 
z
" transform="scale(0.015625)"/>
       </defs>
       <use xlink:href="#DejaVuSans-70"/>
       <use xlink:href="#DejaVuSans-35" x="63.476562"/>
       <use xlink:href="#DejaVuSans-32" x="127.099609"/>
       <use xlink:href="#DejaVuSans-31" x="190.722656"/>
       <use xlink:href="#DejaVuSans-5f" x="254.345703"/>
       <use xlink:href="#DejaVuSans-6d" x="304.345703"/>
       <use xlink:href="#DejaVuSans-6c" x="401.757812"/>
       <use xlink:href="#DejaVuSans-6b" x="429.541016"/>
       <use xlink:href="#DejaVuSans-65" x="483.826172"/>
       <use xlink:href="#DejaVuSans-6d" x="545.349609"/>
       <use xlink:href="#DejaVuSans-31" x="642.761719"/>
       <use xlink:href="#DejaVuSans-30" x="706.384766"/>
       <use xlink:href="#DejaVuSans-32" x="770.007812"/>
       <use xlink:href="#DejaVuSans-34" x="833.630859"/>
      </g>
     </g>
    </g>
    <g id="xtick_3">
     <g id="text_3">
      <!-- mlkem1024 -->
      <g style="fill: #262626" transform="translate(677.416562 415.277812) scale(0.14 -0.14)">
       <use xlink:href="#DejaVuSans-6d"/>
       <use xlink:href="#DejaVuSans-6c" x="97.412109"/>
       <use xlink:href="#DejaVuSans-6b" x="125.195312"/>
       <use xlink:href="#DejaVuSans-65" x="179.480469"/>
       <use xlink:href="#DejaVuSans-6d" x="241.003906"/>
       <use xlink:href="#DejaVuSans-31" x="338.416016"/>
       <use xlink:href="#DejaVuSans-30" x="402.039062"/>
       <use xlink:href="#DejaVuSans-32" x="465.662109"/>
       <use xlink:href="#DejaVuSans-34" x="529.285156"/>
      </g>
     </g>
    </g>
   </g>
   <g id="matplotlib.axis_2">
    <g id="ytick_1">
     <g id="line2d_1">
      <path d="M 58.32 373.163766 
L 851.04 373.163766 
" clip-path="url(#p27beae4d42)" style="fill: none; stroke: #cccccc; stroke-linecap: round"/>
     </g>
     <g id="text_4">
      <!-- 400 -->
      <g style="fill: #262626" transform="translate(27.82375 377.342907) scale(0.11 -0.11)">
       <use xlink:href="#DejaVuSans-34"/>
       <use xlink:href="#DejaVuSans-30" x="63.623047"/>
       <use xlink:href="#DejaVuSans-30" x="127.246094"/>
      </g>
     </g>
    </g>
    <g id="ytick_2">
     <g id="line2d_2">
      <path d="M 58.32 298.708691 
L 851.04 298.708691 
" clip-path="url(#p27beae4d42)" style="fill: none; stroke: #cccccc; stroke-linecap: round"/>
     </g>
     <g id="text_5">
      <!-- 500 -->
      <g style="fill: #262626" transform="translate(27.82375 302.887832) scale(0.11 -0.11)">
       <use xlink:href="#DejaVuSans-35"/>
       <use xlink:href="#DejaVuSans-30" x="63.623047"/>
       <use xlink:href="#DejaVuSans-30" x="127.246094"/>
      </g>
     </g>
    </g>
    <g id="ytick_3">
     <g id="line2d_3">
      <path d="M 58.32 224.253616 
L 851.04 224.253616 
" clip-path="url(#p27beae4d42)" style="fill: none; stroke: #cccccc; stroke-linecap: round"/>
     </g>
     <g id="text_6">
      <!-- 600 -->
      <g style="fill: #262626" transform="translate(27.82375 228.432756) scale(0.11 -0.11)">
       <defs>
        <path id="DejaVuSans-36" d="M 2113 2584 
Q 1688 2584 1439 2293 
Q 1191 2003 1191 1497 
Q 1191 994 1439 701 
Q 1688 409 2113 409 
Q 2538 409 2786 701 
Q 3034 994 3034 1497 
Q 3034 2003 2786 2293 
Q 2538 2584 2113 2584 
z
M 3366 4563 
L 3366 3988 
Q 3128 4100 2886 4159 
Q 2644 4219 2406 4219 
Q 1781 4219 1451 3797 
Q 1122 3375 1075 2522 
Q 1259 2794 1537 2939 
Q 1816 3084 2150 3084 
Q 2853 3084 3261 2657 
Q 3669 2231 3669 1497 
Q 3669 778 3244 343 
Q 2819 -91 2113 -91 
Q 1303 -91 875 529 
Q 447 1150 447 2328 
Q 447 3434 972 4092 
Q 1497 4750 2381 4750 
Q 2619 4750 2861 4703 
Q 3103 4656 3366 4563 
z
" transform="scale(0.015625)"/>
       </defs>
       <use xlink:href="#DejaVuSans-36"/>
       <use xlink:href="#DejaVuSans-30" x="63.623047"/>
       <use xlink:href="#DejaVuSans-30" x="127.246094"/>
      </g>
     </g>
    </g>
    <g id="ytick_4">
     <g id="line2d_4">
      <path d="M 58.32 149.79854 
L 851.04 149.79854 
" clip-path="url(#p27beae4d42)" style="fill: none; stroke: #cccccc; stroke-linecap: round"/>
     </g>
     <g id="text_7">
      <!-- 700 -->
      <g style="fill: #262626" transform="translate(27.82375 153.977681) scale(0.11 -0.11)">
       <defs>
        <path id="DejaVuSans-37" d="M 525 4666 
L 3525 4666 
L 3525 4397 
L 1831 0 
L 1172 0 
L 2766 4134 
L 525 4134 
L 525 4666 
z
" transform="scale(0.015625)"/>
       </defs>
       <use xlink:href="#DejaVuSans-37"/>
       <use xlink:href="#DejaVuSans-30" x="63.623047"/>
       <use xlink:href="#DejaVuSans-30" x="127.246094"/>
      </g>
     </g>
    </g>
    <g id="ytick_5">
     <g id="line2d_5">
      <path d="M 58.32 75.343465 
L 851.04 75.343465 
" clip-path="url(#p27beae4d42)" style="fill: none; stroke: #cccccc; stroke-linecap: round"/>
     </g>
     <g id="text_8">
      <!-- 800 -->
      <g style="fill: #262626" transform="translate(27.82375 79.522606) scale(0.11 -0.11)">
       <defs>
        <path id="DejaVuSans-38" d="M 2034 2216 
Q 1584 2216 1326 1975 
Q 1069 1734 1069 1313 
Q 1069 891 1326 650 
Q 1584 409 2034 409 
Q 2484 409 2743 651 
Q 3003 894 3003 1313 
Q 3003 1734 2745 1975 
Q 2488 2216 2034 2216 
z
M 1403 2484 
Q 997 2584 770 2862 
Q 544 3141 544 3541 
Q 544 4100 942 4425 
Q 1341 4750 2034 4750 
Q 2731 4750 3128 4425 
Q 3525 4100 3525 3541 
Q 3525 3141 3298 2862 
Q 3072 2584 2669 2484 
Q 3125 2378 3379 2068 
Q 3634 1759 3634 1313 
Q 3634 634 3220 271 
Q 2806 -91 2034 -91 
Q 1263 -91 848 271 
Q 434 634 434 1313 
Q 434 1759 690 2068 
Q 947 2378 1403 2484 
z
M 1172 3481 
Q 1172 3119 1398 2916 
Q 1625 2713 2034 2713 
Q 2441 2713 2670 2916 
Q 2900 3119 2900 3481 
Q 2900 3844 2670 4047 
Q 2441 4250 2034 4250 
Q 1625 4250 1398 4047 
Q 1172 3844 1172 3481 
z
" transform="scale(0.015625)"/>
       </defs>
       <use xlink:href="#DejaVuSans-38"/>
       <use xlink:href="#DejaVuSans-30" x="63.623047"/>
       <use xlink:href="#DejaVuSans-30" x="127.246094"/>
      </g>
     </g>
    </g>
    <g id="text_9">
     <!-- Handshake duration (ms) -->
     <g style="fill: #262626" transform="translate(21.328125 287.437813) rotate(-90) scale(0.12 -0.12)">
      <defs>
       <path id="DejaVuSans-48" d="M 628 4666 
L 1259 4666 
L 1259 2753 
L 3553 2753 
L 3553 4666 
L 4184 4666 
L 4184 0 
L 3553 0 
L 3553 2222 
L 1259 2222 
L 1259 0 
L 628 0 
L 628 4666 
z
" transform="scale(0.015625)"/>
       <path id="DejaVuSans-61" d="M 2194 1759 
Q 1497 1759 1228 1600 
Q 959 1441 959 1056 
Q 959 750 1161 570 
Q 1363 391 1709 391 
Q 2188 391 2477 730 
Q 2766 1069 2766 1631 
L 2766 1759 
L 2194 1759 
z
M 3341 1997 
L 3341 0 
L 2766 0 
L 2766 531 
Q 2569 213 2275 61 
Q 1981 -91 1556 -91 
Q 1019 -91 701 211 
Q 384 513 384 1019 
Q 384 1609 779 1909 
Q 1175 2209 1959 2209 
L 2766 2209 
L 2766 2266 
Q 2766 2663 2505 2880 
Q 2244 3097 1772 3097 
Q 1472 3097 1187 3025 
Q 903 2953 641 2809 
L 641 3341 
Q 956 3463 1253 3523 
Q 1550 3584 1831 3584 
Q 2591 3584 2966 3190 
Q 3341 2797 3341 1997 
z
" transform="scale(0.015625)"/>
       <path id="DejaVuSans-6e" d="M 3513 2113 
L 3513 0 
L 2938 0 
L 2938 2094 
Q 2938 2591 2744 2837 
Q 2550 3084 2163 3084 
Q 1697 3084 1428 2787 
Q 1159 2491 1159 1978 
L 1159 0 
L 581 0 
L 581 3500 
L 1159 3500 
L 1159 2956 
Q 1366 3272 1645 3428 
Q 1925 3584 2291 3584 
Q 2894 3584 3203 3211 
Q 3513 2838 3513 2113 
z
" transform="scale(0.015625)"/>
       <path id="DejaVuSans-64" d="M 2906 2969 
L 2906 4863 
L 3481 4863 
L 3481 0 
L 2906 0 
L 2906 525 
Q 2725 213 2448 61 
Q 2172 -91 1784 -91 
Q 1150 -91 751 415 
Q 353 922 353 1747 
Q 353 2572 751 3078 
Q 1150 3584 1784 3584 
Q 2172 3584 2448 3432 
Q 2725 3281 2906 2969 
z
M 947 1747 
Q 947 1113 1208 752 
Q 1469 391 1925 391 
Q 2381 391 2643 752 
Q 2906 1113 2906 1747 
Q 2906 2381 2643 2742 
Q 2381 3103 1925 3103 
Q 1469 3103 1208 2742 
Q 947 2381 947 1747 
z
" transform="scale(0.015625)"/>
       <path id="DejaVuSans-73" d="M 2834 3397 
L 2834 2853 
Q 2591 2978 2328 3040 
Q 2066 3103 1784 3103 
Q 1356 3103 1142 2972 
Q 928 2841 928 2578 
Q 928 2378 1081 2264 
Q 1234 2150 1697 2047 
L 1894 2003 
Q 2506 1872 2764 1633 
Q 3022 1394 3022 966 
Q 3022 478 2636 193 
Q 2250 -91 1575 -91 
Q 1294 -91 989 -36 
Q 684 19 347 128 
L 347 722 
Q 666 556 975 473 
Q 1284 391 1588 391 
Q 1994 391 2212 530 
Q 2431 669 2431 922 
Q 2431 1156 2273 1281 
Q 2116 1406 1581 1522 
L 1381 1569 
Q 847 1681 609 1914 
Q 372 2147 372 2553 
Q 372 3047 722 3315 
Q 1072 3584 1716 3584 
Q 2034 3584 2315 3537 
Q 2597 3491 2834 3397 
z
" transform="scale(0.015625)"/>
       <path id="DejaVuSans-68" d="M 3513 2113 
L 3513 0 
L 2938 0 
L 2938 2094 
Q 2938 2591 2744 2837 
Q 2550 3084 2163 3084 
Q 1697 3084 1428 2787 
Q 1159 2491 1159 1978 
L 1159 0 
L 581 0 
L 581 4863 
L 1159 4863 
L 1159 2956 
Q 1366 3272 1645 3428 
Q 1925 3584 2291 3584 
Q 2894 3584 3203 3211 
Q 3513 2838 3513 2113 
z
" transform="scale(0.015625)"/>
       <path id="DejaVuSans-20" transform="scale(0.015625)"/>
       <path id="DejaVuSans-75" d="M 544 1381 
L 544 3500 
L 1119 3500 
L 1119 1403 
Q 1119 906 1312 657 
Q 1506 409 1894 409 
Q 2359 409 2629 706 
Q 2900 1003 2900 1516 
L 2900 3500 
L 3475 3500 
L 3475 0 
L 2900 0 
L 2900 538 
Q 2691 219 2414 64 
Q 2138 -91 1772 -91 
Q 1169 -91 856 284 
Q 544 659 544 1381 
z
M 1991 3584 
L 1991 3584 
z
" transform="scale(0.015625)"/>
       <path id="DejaVuSans-72" d="M 2631 2963 
Q 2534 3019 2420 3045 
Q 2306 3072 2169 3072 
Q 1681 3072 1420 2755 
Q 1159 2438 1159 1844 
L 1159 0 
L 581 0 
L 581 3500 
L 1159 3500 
L 1159 2956 
Q 1341 3275 1631 3429 
Q 1922 3584 2338 3584 
Q 2397 3584 2469 3576 
Q 2541 3569 2628 3553 
L 2631 2963 
z
" transform="scale(0.015625)"/>
       <path id="DejaVuSans-74" d="M 1172 4494 
L 1172 3500 
L 2356 3500 
L 2356 3053 
L 1172 3053 
L 1172 1153 
Q 1172 725 1289 603 
Q 1406 481 1766 481 
L 2356 481 
L 2356 0 
L 1766 0 
Q 1100 0 847 248 
Q 594 497 594 1153 
L 594 3053 
L 172 3053 
L 172 3500 
L 594 3500 
L 594 4494 
L 1172 4494 
z
" transform="scale(0.015625)"/>
       <path id="DejaVuSans-69" d="M 603 3500 
L 1178 3500 
L 1178 0 
L 603 0 
L 603 3500 
z
M 603 4863 
L 1178 4863 
L 1178 4134 
L 603 4134 
L 603 4863 
z
" transform="scale(0.015625)"/>
       <path id="DejaVuSans-6f" d="M 1959 3097 
Q 1497 3097 1228 2736 
Q 959 2375 959 1747 
Q 959 1119 1226 758 
Q 1494 397 1959 397 
Q 2419 397 2687 759 
Q 2956 1122 2956 1747 
Q 2956 2369 2687 2733 
Q 2419 3097 1959 3097 
z
M 1959 3584 
Q 2709 3584 3137 3096 
Q 3566 2609 3566 1747 
Q 3566 888 3137 398 
Q 2709 -91 1959 -91 
Q 1206 -91 779 398 
Q 353 888 353 1747 
Q 353 2609 779 3096 
Q 1206 3584 1959 3584 
z
" transform="scale(0.015625)"/>
       <path id="DejaVuSans-28" d="M 1984 4856 
Q 1566 4138 1362 3434 
Q 1159 2731 1159 2009 
Q 1159 1288 1364 580 
Q 1569 -128 1984 -844 
L 1484 -844 
Q 1016 -109 783 600 
Q 550 1309 550 2009 
Q 550 2706 781 3412 
Q 1013 4119 1484 4856 
L 1984 4856 
z
" transform="scale(0.015625)"/>
       <path id="DejaVuSans-29" d="M 513 4856 
L 1013 4856 
Q 1481 4119 1714 3412 
Q 1947 2706 1947 2009 
Q 1947 1309 1714 600 
Q 1481 -109 1013 -844 
L 513 -844 
Q 928 -128 1133 580 
Q 1338 1288 1338 2009 
Q 1338 2731 1133 3434 
Q 928 4138 513 4856 
z
" transform="scale(0.015625)"/>
      </defs>
      <use xlink:href="#DejaVuSans-48"/>
      <use xlink:href="#DejaVuSans-61" x="75.195312"/>
      <use xlink:href="#DejaVuSans-6e" x="136.474609"/>
      <use xlink:href="#DejaVuSans-64" x="199.853516"/>
      <use xlink:href="#DejaVuSans-73" x="263.330078"/>
      <use xlink:href="#DejaVuSans-68" x="315.429688"/>
      <use xlink:href="#DejaVuSans-61" x="378.808594"/>
      <use xlink:href="#DejaVuSans-6b" x="440.087891"/>
      <use xlink:href="#DejaVuSans-65" x="494.373047"/>
      <use xlink:href="#DejaVuSans-20" x="555.896484"/>
      <use xlink:href="#DejaVuSans-64" x="587.683594"/>
      <use xlink:href="#DejaVuSans-75" x="651.160156"/>
      <use xlink:href="#DejaVuSans-72" x="714.539062"/>
      <use xlink:href="#DejaVuSans-61" x="755.652344"/>
      <use xlink:href="#DejaVuSans-74" x="816.931641"/>
      <use xlink:href="#DejaVuSans-69" x="856.140625"/>
      <use xlink:href="#DejaVuSans-6f" x="883.923828"/>
      <use xlink:href="#DejaVuSans-6e" x="945.105469"/>
      <use xlink:href="#DejaVuSans-20" x="1008.484375"/>
      <use xlink:href="#DejaVuSans-28" x="1040.271484"/>
      <use xlink:href="#DejaVuSans-6d" x="1079.285156"/>
      <use xlink:href="#DejaVuSans-73" x="1176.697266"/>
      <use xlink:href="#DejaVuSans-29" x="1228.796875"/>
     </g>
    </g>
   </g>
   <g id="PolyCollection_1">
    <defs>
     <path id="mb66b7acd1f" d="M 198.421008 -55.773611 
L 182.458992 -55.773611 
L 157.90054 -58.978238 
L 113.657177 -62.182865 
L 84.744 -65.387493 
L 104.632397 -68.59212 
L 148.737557 -71.796748 
L 178.052315 -75.001375 
L 188.122563 -78.206003 
L 190.154978 -81.41063 
L 190.415769 -84.615257 
L 190.438538 -87.819885 
L 190.439939 -91.024512 
L 190.439998 -94.22914 
L 190.44 -97.433767 
L 190.44 -100.638395 
L 190.44 -103.843022 
L 190.44 -107.047649 
L 190.44 -110.252277 
L 190.44 -113.456904 
L 190.44 -116.661532 
L 190.44 -119.866159 
L 190.44 -123.070787 
L 190.44 -126.275414 
L 190.44 -129.480041 
L 190.44 -132.684669 
L 190.44 -135.889296 
L 190.44 -139.093924 
L 190.44 -142.298551 
L 190.44 -145.503178 
L 190.44 -148.707806 
L 190.44 -151.912433 
L 190.44 -155.117061 
L 190.44 -158.321688 
L 190.44 -161.526316 
L 190.44 -164.730943 
L 190.44 -167.93557 
L 190.44 -171.140198 
L 190.44 -174.344825 
L 190.44 -177.549453 
L 190.44 -180.75408 
L 190.44 -183.958708 
L 190.44 -187.163335 
L 190.44 -190.367962 
L 190.44 -193.57259 
L 190.44 -196.777217 
L 190.44 -199.981845 
L 190.44 -203.186472 
L 190.44 -206.3911 
L 190.44 -209.595727 
L 190.44 -212.800354 
L 190.44 -216.004982 
L 190.44 -219.209609 
L 190.44 -222.414237 
L 190.44 -225.618864 
L 190.44 -228.823491 
L 190.44 -232.028119 
L 190.44 -235.232746 
L 190.44 -238.437374 
L 190.44 -241.642001 
L 190.44 -244.846629 
L 190.44 -248.051256 
L 190.44 -251.255883 
L 190.44 -254.460511 
L 190.44 -257.665138 
L 190.44 -260.869766 
L 190.44 -264.074393 
L 190.44 -267.279021 
L 190.44 -270.483648 
L 190.44 -273.688275 
L 190.44 -276.892903 
L 190.44 -280.09753 
L 190.44 -283.302158 
L 190.44 -286.506785 
L 190.44 -289.711413 
L 190.44 -292.91604 
L 190.44 -296.120667 
L 190.44 -299.325295 
L 190.44 -302.529922 
L 190.44 -305.73455 
L 190.44 -308.939177 
L 190.44 -312.143804 
L 190.44 -315.348432 
L 190.44 -318.553059 
L 190.44 -321.757687 
L 190.44 -324.962314 
L 190.44 -328.166942 
L 190.44 -331.371569 
L 190.44 -334.576196 
L 190.44 -337.780824 
L 190.44 -340.985451 
L 190.439998 -344.190079 
L 190.439935 -347.394706 
L 190.438951 -350.599334 
L 190.430388 -353.803961 
L 190.39039 -357.008588 
L 190.295755 -360.213216 
L 190.203732 -363.417843 
L 190.221987 -366.622471 
L 190.326673 -369.827098 
L 190.406814 -373.031725 
L 190.473186 -373.031725 
L 190.473186 -373.031725 
L 190.553327 -369.827098 
L 190.658013 -366.622471 
L 190.676268 -363.417843 
L 190.584245 -360.213216 
L 190.48961 -357.008588 
L 190.449612 -353.803961 
L 190.441049 -350.599334 
L 190.440065 -347.394706 
L 190.440002 -344.190079 
L 190.44 -340.985451 
L 190.44 -337.780824 
L 190.44 -334.576196 
L 190.44 -331.371569 
L 190.44 -328.166942 
L 190.44 -324.962314 
L 190.44 -321.757687 
L 190.44 -318.553059 
L 190.44 -315.348432 
L 190.44 -312.143804 
L 190.44 -308.939177 
L 190.44 -305.73455 
L 190.44 -302.529922 
L 190.44 -299.325295 
L 190.44 -296.120667 
L 190.44 -292.91604 
L 190.44 -289.711413 
L 190.44 -286.506785 
L 190.44 -283.302158 
L 190.44 -280.09753 
L 190.44 -276.892903 
L 190.44 -273.688275 
L 190.44 -270.483648 
L 190.44 -267.279021 
L 190.44 -264.074393 
L 190.44 -260.869766 
L 190.44 -257.665138 
L 190.44 -254.460511 
L 190.44 -251.255883 
L 190.44 -248.051256 
L 190.44 -244.846629 
L 190.44 -241.642001 
L 190.44 -238.437374 
L 190.44 -235.232746 
L 190.44 -232.028119 
L 190.44 -228.823491 
L 190.44 -225.618864 
L 190.44 -222.414237 
L 190.44 -219.209609 
L 190.44 -216.004982 
L 190.44 -212.800354 
L 190.44 -209.595727 
L 190.44 -206.3911 
L 190.44 -203.186472 
L 190.44 -199.981845 
L 190.44 -196.777217 
L 190.44 -193.57259 
L 190.44 -190.367962 
L 190.44 -187.163335 
L 190.44 -183.958708 
L 190.44 -180.75408 
L 190.44 -177.549453 
L 190.44 -174.344825 
L 190.44 -171.140198 
L 190.44 -167.93557 
L 190.44 -164.730943 
L 190.44 -161.526316 
L 190.44 -158.321688 
L 190.44 -155.117061 
L 190.44 -151.912433 
L 190.44 -148.707806 
L 190.44 -145.503178 
L 190.44 -142.298551 
L 190.44 -139.093924 
L 190.44 -135.889296 
L 190.44 -132.684669 
L 190.44 -129.480041 
L 190.44 -126.275414 
L 190.44 -123.070787 
L 190.44 -119.866159 
L 190.44 -116.661532 
L 190.44 -113.456904 
L 190.44 -110.252277 
L 190.44 -107.047649 
L 190.44 -103.843022 
L 190.44 -100.638395 
L 190.44 -97.433767 
L 190.440002 -94.22914 
L 190.440061 -91.024512 
L 190.441462 -87.819885 
L 190.464231 -84.615257 
L 190.725022 -81.41063 
L 192.757437 -78.206003 
L 202.827685 -75.001375 
L 232.142443 -71.796748 
L 276.247603 -68.59212 
L 296.136 -65.387493 
L 267.222823 -62.182865 
L 222.97946 -58.978238 
L 198.421008 -55.773611 
z
" style="stroke: #595959; stroke-width: 1.25"/>
    </defs>
    <g clip-path="url(#p27beae4d42)">
     <use xlink:href="#mb66b7acd1f" x="0" y="432" style="fill: #72b6a1; stroke: #595959; stroke-width: 1.25"/>
    </g>
   </g>
   <g id="PolyCollection_2">
    <defs>
     <path id="mae2eebcc45" d="M 461.445636 -62.405851 
L 447.914364 -62.405851 
L 427.479815 -65.691587 
L 387.850022 -68.977322 
L 351.394201 -72.263057 
L 348.984 -75.548792 
L 376.971379 -78.834527 
L 409.408225 -82.120263 
L 432.113019 -85.405998 
L 444.671533 -88.691733 
L 450.770016 -91.977468 
L 453.437005 -95.263203 
L 454.39082 -98.548939 
L 454.634598 -101.834674 
L 454.675428 -105.120409 
L 454.679714 -108.406144 
L 454.679989 -111.691879 
L 454.68 -114.977615 
L 454.68 -118.26335 
L 454.68 -121.549085 
L 454.68 -124.83482 
L 454.68 -128.120555 
L 454.68 -131.406291 
L 454.68 -134.692026 
L 454.68 -137.977761 
L 454.68 -141.263496 
L 454.68 -144.549231 
L 454.68 -147.834967 
L 454.68 -151.120702 
L 454.68 -154.406437 
L 454.68 -157.692172 
L 454.68 -160.977907 
L 454.68 -164.263643 
L 454.68 -167.549378 
L 454.68 -170.835113 
L 454.68 -174.120848 
L 454.68 -177.406583 
L 454.68 -180.692319 
L 454.68 -183.978054 
L 454.68 -187.263789 
L 454.68 -190.549524 
L 454.68 -193.835259 
L 454.68 -197.120995 
L 454.68 -200.40673 
L 454.68 -203.692465 
L 454.68 -206.9782 
L 454.68 -210.263935 
L 454.68 -213.549671 
L 454.68 -216.835406 
L 454.68 -220.121141 
L 454.68 -223.406876 
L 454.68 -226.692611 
L 454.68 -229.978347 
L 454.68 -233.264082 
L 454.68 -236.549817 
L 454.68 -239.835552 
L 454.68 -243.121287 
L 454.68 -246.407023 
L 454.68 -249.692758 
L 454.68 -252.978493 
L 454.68 -256.264228 
L 454.68 -259.549963 
L 454.68 -262.835699 
L 454.68 -266.121434 
L 454.68 -269.407169 
L 454.68 -272.692904 
L 454.68 -275.978639 
L 454.68 -279.264375 
L 454.68 -282.55011 
L 454.68 -285.835845 
L 454.68 -289.12158 
L 454.68 -292.407315 
L 454.68 -295.693051 
L 454.68 -298.978786 
L 454.68 -302.264521 
L 454.68 -305.550256 
L 454.68 -308.835992 
L 454.68 -312.121727 
L 454.68 -315.407462 
L 454.68 -318.693197 
L 454.68 -321.978932 
L 454.68 -325.264668 
L 454.68 -328.550403 
L 454.68 -331.836138 
L 454.68 -335.121873 
L 454.68 -338.407608 
L 454.68 -341.693344 
L 454.68 -344.979079 
L 454.68 -348.264814 
L 454.68 -351.550549 
L 454.68 -354.836284 
L 454.679993 -358.12202 
L 454.67984 -361.407755 
L 454.677855 -364.69349 
L 454.663303 -367.979225 
L 454.604443 -371.26496 
L 454.481199 -374.550696 
L 454.375869 -377.836431 
L 454.409479 -381.122166 
L 454.540094 -384.407901 
L 454.63793 -387.693636 
L 454.72207 -387.693636 
L 454.72207 -387.693636 
L 454.819906 -384.407901 
L 454.950521 -381.122166 
L 454.984131 -377.836431 
L 454.878801 -374.550696 
L 454.755557 -371.26496 
L 454.696697 -367.979225 
L 454.682145 -364.69349 
L 454.68016 -361.407755 
L 454.680007 -358.12202 
L 454.68 -354.836284 
L 454.68 -351.550549 
L 454.68 -348.264814 
L 454.68 -344.979079 
L 454.68 -341.693344 
L 454.68 -338.407608 
L 454.68 -335.121873 
L 454.68 -331.836138 
L 454.68 -328.550403 
L 454.68 -325.264668 
L 454.68 -321.978932 
L 454.68 -318.693197 
L 454.68 -315.407462 
L 454.68 -312.121727 
L 454.68 -308.835992 
L 454.68 -305.550256 
L 454.68 -302.264521 
L 454.68 -298.978786 
L 454.68 -295.693051 
L 454.68 -292.407315 
L 454.68 -289.12158 
L 454.68 -285.835845 
L 454.68 -282.55011 
L 454.68 -279.264375 
L 454.68 -275.978639 
L 454.68 -272.692904 
L 454.68 -269.407169 
L 454.68 -266.121434 
L 454.68 -262.835699 
L 454.68 -259.549963 
L 454.68 -256.264228 
L 454.68 -252.978493 
L 454.68 -249.692758 
L 454.68 -246.407023 
L 454.68 -243.121287 
L 454.68 -239.835552 
L 454.68 -236.549817 
L 454.68 -233.264082 
L 454.68 -229.978347 
L 454.68 -226.692611 
L 454.68 -223.406876 
L 454.68 -220.121141 
L 454.68 -216.835406 
L 454.68 -213.549671 
L 454.68 -210.263935 
L 454.68 -206.9782 
L 454.68 -203.692465 
L 454.68 -200.40673 
L 454.68 -197.120995 
L 454.68 -193.835259 
L 454.68 -190.549524 
L 454.68 -187.263789 
L 454.68 -183.978054 
L 454.68 -180.692319 
L 454.68 -177.406583 
L 454.68 -174.120848 
L 454.68 -170.835113 
L 454.68 -167.549378 
L 454.68 -164.263643 
L 454.68 -160.977907 
L 454.68 -157.692172 
L 454.68 -154.406437 
L 454.68 -151.120702 
L 454.68 -147.834967 
L 454.68 -144.549231 
L 454.68 -141.263496 
L 454.68 -137.977761 
L 454.68 -134.692026 
L 454.68 -131.406291 
L 454.68 -128.120555 
L 454.68 -124.83482 
L 454.68 -121.549085 
L 454.68 -118.26335 
L 454.68 -114.977615 
L 454.680011 -111.691879 
L 454.680286 -108.406144 
L 454.684572 -105.120409 
L 454.725402 -101.834674 
L 454.96918 -98.548939 
L 455.922995 -95.263203 
L 458.589984 -91.977468 
L 464.688467 -88.691733 
L 477.246981 -85.405998 
L 499.951775 -82.120263 
L 532.388621 -78.834527 
L 560.376 -75.548792 
L 557.965799 -72.263057 
L 521.509978 -68.977322 
L 481.880185 -65.691587 
L 461.445636 -62.405851 
z
" style="stroke: #595959; stroke-width: 1.25"/>
    </defs>
    <g clip-path="url(#p27beae4d42)">
     <use xlink:href="#mae2eebcc45" x="0" y="432" style="fill: #e99675; stroke: #595959; stroke-width: 1.25"/>
    </g>
   </g>
   <g id="PolyCollection_3">
    <defs>
     <path id="m3aa19627e8" d="M 730.9278 -53.566364 
L 706.9122 -53.566364 
L 676.085648 -56.756469 
L 630.519939 -59.946575 
L 613.224 -63.13668 
L 645.581728 -66.326785 
L 689.333647 -69.516891 
L 711.9658 -72.706996 
L 717.965551 -75.897102 
L 718.843342 -79.087207 
L 718.91639 -82.277313 
L 718.9199 -85.467418 
L 718.919998 -88.657524 
L 718.92 -91.847629 
L 718.92 -95.037735 
L 718.92 -98.22784 
L 718.92 -101.417945 
L 718.92 -104.608051 
L 718.92 -107.798156 
L 718.92 -110.988262 
L 718.92 -114.178367 
L 718.92 -117.368473 
L 718.92 -120.558578 
L 718.92 -123.748684 
L 718.92 -126.938789 
L 718.92 -130.128895 
L 718.92 -133.319 
L 718.92 -136.509105 
L 718.92 -139.699211 
L 718.92 -142.889316 
L 718.92 -146.079422 
L 718.92 -149.269527 
L 718.92 -152.459633 
L 718.92 -155.649738 
L 718.92 -158.839844 
L 718.92 -162.029949 
L 718.92 -165.220055 
L 718.92 -168.41016 
L 718.92 -171.600265 
L 718.92 -174.790371 
L 718.92 -177.980476 
L 718.92 -181.170582 
L 718.92 -184.360687 
L 718.92 -187.550793 
L 718.92 -190.740898 
L 718.92 -193.931004 
L 718.92 -197.121109 
L 718.92 -200.311215 
L 718.92 -203.50132 
L 718.92 -206.691425 
L 718.92 -209.881531 
L 718.92 -213.071636 
L 718.92 -216.261742 
L 718.92 -219.451847 
L 718.92 -222.641953 
L 718.92 -225.832058 
L 718.92 -229.022164 
L 718.92 -232.212269 
L 718.92 -235.402375 
L 718.92 -238.59248 
L 718.92 -241.782585 
L 718.92 -244.972691 
L 718.92 -248.162796 
L 718.92 -251.352902 
L 718.92 -254.543007 
L 718.92 -257.733113 
L 718.92 -260.923218 
L 718.92 -264.113324 
L 718.92 -267.303429 
L 718.92 -270.493534 
L 718.92 -273.68364 
L 718.92 -276.873745 
L 718.92 -280.063851 
L 718.92 -283.253956 
L 718.92 -286.444062 
L 718.92 -289.634167 
L 718.92 -292.824273 
L 718.92 -296.014378 
L 718.92 -299.204484 
L 718.92 -302.394589 
L 718.92 -305.584694 
L 718.92 -308.7748 
L 718.92 -311.964905 
L 718.92 -315.155011 
L 718.92 -318.345116 
L 718.92 -321.535222 
L 718.92 -324.725327 
L 718.92 -327.915433 
L 718.92 -331.105538 
L 718.92 -334.295644 
L 718.92 -337.485749 
L 718.919996 -340.675854 
L 718.9199 -343.86596 
L 718.918561 -347.056065 
L 718.908132 -350.246171 
L 718.863725 -353.436276 
L 718.766591 -356.626382 
L 718.679565 -359.816487 
L 718.703352 -363.006593 
L 718.807767 -366.196698 
L 718.886573 -369.386804 
L 718.953427 -369.386804 
L 718.953427 -369.386804 
L 719.032233 -366.196698 
L 719.136648 -363.006593 
L 719.160435 -359.816487 
L 719.073409 -356.626382 
L 718.976275 -353.436276 
L 718.931868 -350.246171 
L 718.921439 -347.056065 
L 718.9201 -343.86596 
L 718.920004 -340.675854 
L 718.92 -337.485749 
L 718.92 -334.295644 
L 718.92 -331.105538 
L 718.92 -327.915433 
L 718.92 -324.725327 
L 718.92 -321.535222 
L 718.92 -318.345116 
L 718.92 -315.155011 
L 718.92 -311.964905 
L 718.92 -308.7748 
L 718.92 -305.584694 
L 718.92 -302.394589 
L 718.92 -299.204484 
L 718.92 -296.014378 
L 718.92 -292.824273 
L 718.92 -289.634167 
L 718.92 -286.444062 
L 718.92 -283.253956 
L 718.92 -280.063851 
L 718.92 -276.873745 
L 718.92 -273.68364 
L 718.92 -270.493534 
L 718.92 -267.303429 
L 718.92 -264.113324 
L 718.92 -260.923218 
L 718.92 -257.733113 
L 718.92 -254.543007 
L 718.92 -251.352902 
L 718.92 -248.162796 
L 718.92 -244.972691 
L 718.92 -241.782585 
L 718.92 -238.59248 
L 718.92 -235.402375 
L 718.92 -232.212269 
L 718.92 -229.022164 
L 718.92 -225.832058 
L 718.92 -222.641953 
L 718.92 -219.451847 
L 718.92 -216.261742 
L 718.92 -213.071636 
L 718.92 -209.881531 
L 718.92 -206.691425 
L 718.92 -203.50132 
L 718.92 -200.311215 
L 718.92 -197.121109 
L 718.92 -193.931004 
L 718.92 -190.740898 
L 718.92 -187.550793 
L 718.92 -184.360687 
L 718.92 -181.170582 
L 718.92 -177.980476 
L 718.92 -174.790371 
L 718.92 -171.600265 
L 718.92 -168.41016 
L 718.92 -165.220055 
L 718.92 -162.029949 
L 718.92 -158.839844 
L 718.92 -155.649738 
L 718.92 -152.459633 
L 718.92 -149.269527 
L 718.92 -146.079422 
L 718.92 -142.889316 
L 718.92 -139.699211 
L 718.92 -136.509105 
L 718.92 -133.319 
L 718.92 -130.128895 
L 718.92 -126.938789 
L 718.92 -123.748684 
L 718.92 -120.558578 
L 718.92 -117.368473 
L 718.92 -114.178367 
L 718.92 -110.988262 
L 718.92 -107.798156 
L 718.92 -104.608051 
L 718.92 -101.417945 
L 718.92 -98.22784 
L 718.92 -95.037735 
L 718.92 -91.847629 
L 718.920002 -88.657524 
L 718.9201 -85.467418 
L 718.92361 -82.277313 
L 718.996658 -79.087207 
L 719.874449 -75.897102 
L 725.8742 -72.706996 
L 748.506353 -69.516891 
L 792.258272 -66.326785 
L 824.616 -63.13668 
L 807.320061 -59.946575 
L 761.754352 -56.756469 
L 730.9278 -53.566364 
z
" style="stroke: #595959; stroke-width: 1.25"/>
    </defs>
    <g clip-path="url(#p27beae4d42)">
     <use xlink:href="#m3aa19627e8" x="0" y="432" style="fill: #95a3c3; stroke: #595959; stroke-width: 1.25"/>
    </g>
   </g>
   <g id="line2d_6">
    <path d="M 190.44 367.252033 
L 190.44 367.765773 
" clip-path="url(#p27beae4d42)" style="fill: none; stroke: #000000"/>
   </g>
   <g id="line2d_7">
    <path d="M 190.44 365.606576 
L 190.44 363.157004 
" clip-path="url(#p27beae4d42)" style="fill: none; stroke: #000000"/>
   </g>
   <g id="line2d_8">
    <path d="M 180.531 367.765773 
L 200.349 367.765773 
" clip-path="url(#p27beae4d42)" style="fill: none; stroke: #000000; stroke-linecap: round"/>
   </g>
   <g id="line2d_9">
    <path d="M 180.531 363.157004 
L 200.349 363.157004 
" clip-path="url(#p27beae4d42)" style="fill: none; stroke: #000000; stroke-linecap: round"/>
   </g>
   <g id="line2d_10">
    <path d="M 454.68 359.914486 
L 454.68 360.670205 
" clip-path="url(#p27beae4d42)" style="fill: none; stroke: #000000"/>
   </g>
   <g id="line2d_11">
    <path d="M 454.68 354.520216 
L 454.68 347.126827 
" clip-path="url(#p27beae4d42)" style="fill: none; stroke: #000000"/>
   </g>
   <g id="line2d_12">
    <path d="M 444.771 360.670205 
L 464.589 360.670205 
" clip-path="url(#p27beae4d42)" style="fill: none; stroke: #000000; stroke-linecap: round"/>
   </g>
   <g id="line2d_13">
    <path d="M 444.771 347.126827 
L 464.589 347.126827 
" clip-path="url(#p27beae4d42)" style="fill: none; stroke: #000000; stroke-linecap: round"/>
   </g>
   <g id="line2d_14">
    <path d="M 718.92 369.69416 
L 718.92 369.857961 
" clip-path="url(#p27beae4d42)" style="fill: none; stroke: #000000"/>
   </g>
   <g id="line2d_15">
    <path d="M 718.92 369.485686 
L 718.92 369.18042 
" clip-path="url(#p27beae4d42)" style="fill: none; stroke: #000000"/>
   </g>
   <g id="line2d_16">
    <path d="M 709.011 369.857961 
L 728.829 369.857961 
" clip-path="url(#p27beae4d42)" style="fill: none; stroke: #000000; stroke-linecap: round"/>
   </g>
   <g id="line2d_17">
    <path d="M 709.011 369.18042 
L 728.829 369.18042 
" clip-path="url(#p27beae4d42)" style="fill: none; stroke: #000000; stroke-linecap: round"/>
   </g>
   <g id="line2d_18">
    <path d="M 170.622 366.514928 
L 210.258 366.514928 
" clip-path="url(#p27beae4d42)" style="fill: none; stroke: #ff0000; stroke-width: 2"/>
   </g>
   <g id="line2d_19">
    <path d="M 434.862 358.153623 
L 474.498 358.153623 
" clip-path="url(#p27beae4d42)" style="fill: none; stroke: #ff0000; stroke-width: 2"/>
   </g>
   <g id="line2d_20">
    <path d="M 699.102 369.634596 
L 738.738 369.634596 
" clip-path="url(#p27beae4d42)" style="fill: none; stroke: #ff0000; stroke-width: 2"/>
   </g>
   <g id="patch_3">
    <path d="M 58.32 395.14 
L 58.32 27.6 
" style="fill: none; stroke: #cccccc; stroke-width: 1.25; stroke-linejoin: miter; stroke-linecap: square"/>
   </g>
   <g id="patch_4">
    <path d="M 851.04 395.14 
L 851.04 27.6 
" style="fill: none; stroke: #cccccc; stroke-width: 1.25; stroke-linejoin: miter; stroke-linecap: square"/>
   </g>
   <g id="patch_5">
    <path d="M 58.32 395.14 
L 851.04 395.14 
" style="fill: none; stroke: #cccccc; stroke-width: 1.25; stroke-linejoin: miter; stroke-linecap: square"/>
   </g>
   <g id="patch_6">
    <path d="M 58.32 27.6 
L 851.04 27.6 
" style="fill: none; stroke: #cccccc; stroke-width: 1.25; stroke-linejoin: miter; stroke-linecap: square"/>
   </g>
   <g id="text_10">
    <!-- Handshake duration on QUIC with secp521r1 signature algorithm — Degraded (200ms/10%) -->
    <g style="fill: #262626" transform="translate(176.819062 21.6) scale(0.12 -0.12)">
     <defs>
      <path id="DejaVuSans-51" d="M 2522 4238 
Q 1834 4238 1429 3725 
Q 1025 3213 1025 2328 
Q 1025 1447 1429 934 
Q 1834 422 2522 422 
Q 3209 422 3611 934 
Q 4013 1447 4013 2328 
Q 4013 3213 3611 3725 
Q 3209 4238 2522 4238 
z
M 3406 84 
L 4238 -825 
L 3475 -825 
L 2784 -78 
Q 2681 -84 2626 -87 
Q 2572 -91 2522 -91 
Q 1538 -91 948 567 
Q 359 1225 359 2328 
Q 359 3434 948 4092 
Q 1538 4750 2522 4750 
Q 3503 4750 4090 4092 
Q 4678 3434 4678 2328 
Q 4678 1516 4351 937 
Q 4025 359 3406 84 
z
" transform="scale(0.015625)"/>
      <path id="DejaVuSans-55" d="M 556 4666 
L 1191 4666 
L 1191 1831 
Q 1191 1081 1462 751 
Q 1734 422 2344 422 
Q 2950 422 3222 751 
Q 3494 1081 3494 1831 
L 3494 4666 
L 4128 4666 
L 4128 1753 
Q 4128 841 3676 375 
Q 3225 -91 2344 -91 
Q 1459 -91 1007 375 
Q 556 841 556 1753 
L 556 4666 
z
" transform="scale(0.015625)"/>
      <path id="DejaVuSans-49" d="M 628 4666 
L 1259 4666 
L 1259 0 
L 628 0 
L 628 4666 
z
" transform="scale(0.015625)"/>
      <path id="DejaVuSans-43" d="M 4122 4306 
L 4122 3641 
Q 3803 3938 3442 4084 
Q 3081 4231 2675 4231 
Q 1875 4231 1450 3742 
Q 1025 3253 1025 2328 
Q 1025 1406 1450 917 
Q 1875 428 2675 428 
Q 3081 428 3442 575 
Q 3803 722 4122 1019 
L 4122 359 
Q 3791 134 3420 21 
Q 3050 -91 2638 -91 
Q 1578 -91 968 557 
Q 359 1206 359 2328 
Q 359 3453 968 4101 
Q 1578 4750 2638 4750 
Q 3056 4750 3426 4639 
Q 3797 4528 4122 4306 
z
" transform="scale(0.015625)"/>
      <path id="DejaVuSans-77" d="M 269 3500 
L 844 3500 
L 1563 769 
L 2278 3500 
L 2956 3500 
L 3675 769 
L 4391 3500 
L 4966 3500 
L 4050 0 
L 3372 0 
L 2619 2869 
L 1863 0 
L 1184 0 
L 269 3500 
z
" transform="scale(0.015625)"/>
      <path id="DejaVuSans-63" d="M 3122 3366 
L 3122 2828 
Q 2878 2963 2633 3030 
Q 2388 3097 2138 3097 
Q 1578 3097 1268 2742 
Q 959 2388 959 1747 
Q 959 1106 1268 751 
Q 1578 397 2138 397 
Q 2388 397 2633 464 
Q 2878 531 3122 666 
L 3122 134 
Q 2881 22 2623 -34 
Q 2366 -91 2075 -91 
Q 1284 -91 818 406 
Q 353 903 353 1747 
Q 353 2603 823 3093 
Q 1294 3584 2113 3584 
Q 2378 3584 2631 3529 
Q 2884 3475 3122 3366 
z
" transform="scale(0.015625)"/>
      <path id="DejaVuSans-67" d="M 2906 1791 
Q 2906 2416 2648 2759 
Q 2391 3103 1925 3103 
Q 1463 3103 1205 2759 
Q 947 2416 947 1791 
Q 947 1169 1205 825 
Q 1463 481 1925 481 
Q 2391 481 2648 825 
Q 2906 1169 2906 1791 
z
M 3481 434 
Q 3481 -459 3084 -895 
Q 2688 -1331 1869 -1331 
Q 1566 -1331 1297 -1286 
Q 1028 -1241 775 -1147 
L 775 -588 
Q 1028 -725 1275 -790 
Q 1522 -856 1778 -856 
Q 2344 -856 2625 -561 
Q 2906 -266 2906 331 
L 2906 616 
Q 2728 306 2450 153 
Q 2172 0 1784 0 
Q 1141 0 747 490 
Q 353 981 353 1791 
Q 353 2603 747 3093 
Q 1141 3584 1784 3584 
Q 2172 3584 2450 3431 
Q 2728 3278 2906 2969 
L 2906 3500 
L 3481 3500 
L 3481 434 
z
" transform="scale(0.015625)"/>
      <path id="DejaVuSans-2014" d="M 313 1978 
L 6088 1978 
L 6088 1528 
L 313 1528 
L 313 1978 
z
" transform="scale(0.015625)"/>
      <path id="DejaVuSans-44" d="M 1259 4147 
L 1259 519 
L 2022 519 
Q 2988 519 3436 956 
Q 3884 1394 3884 2338 
Q 3884 3275 3436 3711 
Q 2988 4147 2022 4147 
L 1259 4147 
z
M 628 4666 
L 1925 4666 
Q 3281 4666 3915 4102 
Q 4550 3538 4550 2338 
Q 4550 1131 3912 565 
Q 3275 0 1925 0 
L 628 0 
L 628 4666 
z
" transform="scale(0.015625)"/>
      <path id="DejaVuSans-2f" d="M 1625 4666 
L 2156 4666 
L 531 -594 
L 0 -594 
L 1625 4666 
z
" transform="scale(0.015625)"/>
      <path id="DejaVuSans-25" d="M 4653 2053 
Q 4381 2053 4226 1822 
Q 4072 1591 4072 1178 
Q 4072 772 4226 539 
Q 4381 306 4653 306 
Q 4919 306 5073 539 
Q 5228 772 5228 1178 
Q 5228 1588 5073 1820 
Q 4919 2053 4653 2053 
z
M 4653 2450 
Q 5147 2450 5437 2106 
Q 5728 1763 5728 1178 
Q 5728 594 5436 251 
Q 5144 -91 4653 -91 
Q 4153 -91 3862 251 
Q 3572 594 3572 1178 
Q 3572 1766 3864 2108 
Q 4156 2450 4653 2450 
z
M 1428 4353 
Q 1159 4353 1004 4120 
Q 850 3888 850 3481 
Q 850 3069 1003 2837 
Q 1156 2606 1428 2606 
Q 1700 2606 1854 2837 
Q 2009 3069 2009 3481 
Q 2009 3884 1853 4118 
Q 1697 4353 1428 4353 
z
M 4250 4750 
L 4750 4750 
L 1831 -91 
L 1331 -91 
L 4250 4750 
z
M 1428 4750 
Q 1922 4750 2215 4408 
Q 2509 4066 2509 3481 
Q 2509 2891 2217 2550 
Q 1925 2209 1428 2209 
Q 931 2209 642 2551 
Q 353 2894 353 3481 
Q 353 4063 643 4406 
Q 934 4750 1428 4750 
z
" transform="scale(0.015625)"/>
     </defs>
     <use xlink:href="#DejaVuSans-48"/>
     <use xlink:href="#DejaVuSans-61" x="75.195312"/>
     <use xlink:href="#DejaVuSans-6e" x="136.474609"/>
     <use xlink:href="#DejaVuSans-64" x="199.853516"/>
     <use xlink:href="#DejaVuSans-73" x="263.330078"/>
     <use xlink:href="#DejaVuSans-68" x="315.429688"/>
     <use xlink:href="#DejaVuSans-61" x="378.808594"/>
     <use xlink:href="#DejaVuSans-6b" x="440.087891"/>
     <use xlink:href="#DejaVuSans-65" x="494.373047"/>
     <use xlink:href="#DejaVuSans-20" x="555.896484"/>
     <use xlink:href="#DejaVuSans-64" x="587.683594"/>
     <use xlink:href="#DejaVuSans-75" x="651.160156"/>
     <use xlink:href="#DejaVuSans-72" x="714.539062"/>
     <use xlink:href="#DejaVuSans-61" x="755.652344"/>
     <use xlink:href="#DejaVuSans-74" x="816.931641"/>
     <use xlink:href="#DejaVuSans-69" x="856.140625"/>
     <use xlink:href="#DejaVuSans-6f" x="883.923828"/>
     <use xlink:href="#DejaVuSans-6e" x="945.105469"/>
     <use xlink:href="#DejaVuSans-20" x="1008.484375"/>
     <use xlink:href="#DejaVuSans-6f" x="1040.271484"/>
     <use xlink:href="#DejaVuSans-6e" x="1101.453125"/>
     <use xlink:href="#DejaVuSans-20" x="1164.832031"/>
     <use xlink:href="#DejaVuSans-51" x="1196.619141"/>
     <use xlink:href="#DejaVuSans-55" x="1275.330078"/>
     <use xlink:href="#DejaVuSans-49" x="1348.523438"/>
     <use xlink:href="#DejaVuSans-43" x="1378.015625"/>
     <use xlink:href="#DejaVuSans-20" x="1447.839844"/>
     <use xlink:href="#DejaVuSans-77" x="1479.626953"/>
     <use xlink:href="#DejaVuSans-69" x="1561.414062"/>
     <use xlink:href="#DejaVuSans-74" x="1589.197266"/>
     <use xlink:href="#DejaVuSans-68" x="1628.40625"/>
     <use xlink:href="#DejaVuSans-20" x="1691.785156"/>
     <use xlink:href="#DejaVuSans-73" x="1723.572266"/>
     <use xlink:href="#DejaVuSans-65" x="1775.671875"/>
     <use xlink:href="#DejaVuSans-63" x="1837.195312"/>
     <use xlink:href="#DejaVuSans-70" x="1892.175781"/>
     <use xlink:href="#DejaVuSans-35" x="1955.652344"/>
     <use xlink:href="#DejaVuSans-32" x="2019.275391"/>
     <use xlink:href="#DejaVuSans-31" x="2082.898438"/>
     <use xlink:href="#DejaVuSans-72" x="2146.521484"/>
     <use xlink:href="#DejaVuSans-31" x="2187.634766"/>
     <use xlink:href="#DejaVuSans-20" x="2251.257812"/>
     <use xlink:href="#DejaVuSans-73" x="2283.044922"/>
     <use xlink:href="#DejaVuSans-69" x="2335.144531"/>
     <use xlink:href="#DejaVuSans-67" x="2362.927734"/>
     <use xlink:href="#DejaVuSans-6e" x="2426.404297"/>
     <use xlink:href="#DejaVuSans-61" x="2489.783203"/>
     <use xlink:href="#DejaVuSans-74" x="2551.0625"/>
     <use xlink:href="#DejaVuSans-75" x="2590.271484"/>
     <use xlink:href="#DejaVuSans-72" x="2653.650391"/>
     <use xlink:href="#DejaVuSans-65" x="2692.513672"/>
     <use xlink:href="#DejaVuSans-20" x="2754.037109"/>
     <use xlink:href="#DejaVuSans-61" x="2785.824219"/>
     <use xlink:href="#DejaVuSans-6c" x="2847.103516"/>
     <use xlink:href="#DejaVuSans-67" x="2874.886719"/>
     <use xlink:href="#DejaVuSans-6f" x="2938.363281"/>
     <use xlink:href="#DejaVuSans-72" x="2999.544922"/>
     <use xlink:href="#DejaVuSans-69" x="3040.658203"/>
     <use xlink:href="#DejaVuSans-74" x="3068.441406"/>
     <use xlink:href="#DejaVuSans-68" x="3107.650391"/>
     <use xlink:href="#DejaVuSans-6d" x="3171.029297"/>
     <use xlink:href="#DejaVuSans-20" x="3268.441406"/>
     <use xlink:href="#DejaVuSans-2014" x="3300.228516"/>
     <use xlink:href="#DejaVuSans-20" x="3400.228516"/>
     <use xlink:href="#DejaVuSans-44" x="3432.015625"/>
     <use xlink:href="#DejaVuSans-65" x="3509.017578"/>
     <use xlink:href="#DejaVuSans-67" x="3570.541016"/>
     <use xlink:href="#DejaVuSans-72" x="3634.017578"/>
     <use xlink:href="#DejaVuSans-61" x="3675.130859"/>
     <use xlink:href="#DejaVuSans-64" x="3736.410156"/>
     <use xlink:href="#DejaVuSans-65" x="3799.886719"/>
     <use xlink:href="#DejaVuSans-64" x="3861.410156"/>
     <use xlink:href="#DejaVuSans-20" x="3924.886719"/>
     <use xlink:href="#DejaVuSans-28" x="3956.673828"/>
     <use xlink:href="#DejaVuSans-32" x="3995.6875"/>
     <use xlink:href="#DejaVuSans-30" x="4059.310547"/>
     <use xlink:href="#DejaVuSans-30" x="4122.933594"/>
     <use xlink:href="#DejaVuSans-6d" x="4186.556641"/>
     <use xlink:href="#DejaVuSans-73" x="4283.96875"/>
     <use xlink:href="#DejaVuSans-2f" x="4336.068359"/>
     <use xlink:href="#DejaVuSans-31" x="4369.759766"/>
     <use xlink:href="#DejaVuSans-30" x="4433.382812"/>
     <use xlink:href="#DejaVuSans-25" x="4497.005859"/>
     <use xlink:href="#DejaVuSans-29" x="4592.025391"/>
    </g>
   </g>
  </g>
 </g>
 <defs>
  <clipPath id="p27beae4d42">
   <rect x="58.32" y="27.6" width="792.72" height="367.54"/>
  </clipPath>
 </defs>
</svg>
