<?xml version="1.0" encoding="utf-8" standalone="no"?>
<!DOCTYPE svg PUBLIC "-//W3C//DTD SVG 1.1//EN"
  "http://www.w3.org/Graphics/SVG/1.1/DTD/svg11.dtd">
<svg xmlns:xlink="http://www.w3.org/1999/xlink" width="864pt" height="432pt" viewBox="0 0 864 432" xmlns="http://www.w3.org/2000/svg" version="1.1">
 <metadata>
  <rdf:RDF xmlns:dc="http://purl.org/dc/elements/1.1/" xmlns:cc="http://creativecommons.org/ns#" xmlns:rdf="http://www.w3.org/1999/02/22-rdf-syntax-ns#">
   <cc:Work>
    <dc:type rdf:resource="http://purl.org/dc/dcmitype/StillImage"/>
    <dc:date>2026-03-21T13:58:47.974620</dc:date>
    <dc:format>image/svg+xml</dc:format>
    <dc:creator>
     <cc:Agent>
      <dc:title>Matplotlib v3.6.3, https://matplotlib.org/</dc:title>
     </cc:Agent>
    </dc:creator>
   </cc:Work>
  </rdf:RDF>
 </metadata>
 <defs>
  <style type="text/css">*{stroke-linejoin: round; stroke-linecap: butt}</style>
 </defs>
 <g id="figure_1">
  <g id="patch_1">
   <path d="M 0 432 
L 864 432 
L 864 0 
L 0 0 
z
" style="fill: #ffffff"/>
  </g>
  <g id="axes_1">
   <g id="patch_2">
    <path d="M 51.3 395.14 
L 851.04 395.14 
L 851.04 27.6 
L 51.3 27.6 
z
" style="fill: #ffffff"/>
   </g>
   <g id="matplotlib.axis_1">
    <g id="xtick_1">
     <g id="text_1">
      <!-- P-521 -->
      <g style="fill: #262626" transform="translate(164.64 415.277812) scale(0.14 -0.14)">
       <defs>
        <path id="DejaVuSans-50" d="M 1259 4147 
L 1259 2394 
L 2053 2394 
Q 2494 2394 2734 2622 
Q 2975 2850 2975 3272 
Q 2975 3691 2734 3919 
Q 2494 4147 2053 4147 
L 1259 4147 
z
M 628 4666 
L 2053 4666 
Q 2838 4666 3239 4311 
Q 3641 3956 3641 3272 
Q 3641 2581 3239 2228 
Q 2838 1875 2053 1875 
L 1259 1875 
L 1259 0 
L 628 0 
L 628 4666 
z
" transform="scale(0.015625)"/>
        <path id="DejaVuSans-2d" d="M 313 2009 
L 1997 2009 
L 1997 1497 
L 313 1497 
L 313 2009 
z
" transform="scale(0.015625)"/>
        <path id="DejaVuSans-35" d="M 691 4666 
L 3169 4666 
L 3169 4134 
L 1269 4134 
L 1269 2991 
Q 1406 3038 1543 3061 
Q 1681 3084 1819 3084 
Q 2600 3084 3056 2656 
Q 3513 2228 3513 1497 
Q 3513 744 3044 326 
Q 2575 -91 1722 -91 
Q 1428 -91 1123 -41 
Q 819 9 494 109 
L 494 744 
Q 775 591 1075 516 
Q 1375 441 1709 441 
Q 2250 441 2565 725 
Q 2881 1009 2881 1497 
Q 2881 1984 2565 2268 
Q 2250 2553 1709 2553 
Q 1456 2553 1204 2497 
Q 953 2441 691 2322 
L 691 4666 
z
" transform="scale(0.015625)"/>
        <path id="DejaVuSans-32" d="M 1228 531 
L 3431 531 
L 3431 0 
L 469 0 
L 469 531 
Q 828 903 1448 1529 
Q 2069 2156 2228 2338 
Q 2531 2678 2651 2914 
Q 2772 3150 2772 3378 
Q 2772 3750 2511 3984 
Q 2250 4219 1831 4219 
Q 1534 4219 1204 4116 
Q 875 4013 500 3803 
L 500 4441 
Q 881 4594 1212 4672 
Q 1544 4750 1819 4750 
Q 2544 4750 2975 4387 
Q 3406 4025 3406 3419 
Q 3406 3131 3298 2873 
Q 3191 2616 2906 2266 
Q 2828 2175 2409 1742 
Q 1991 1309 1228 531 
z
" transform="scale(0.015625)"/>
        <path id="DejaVuSans-31" d="M 794 531 
L 1825 531 
L 1825 4091 
L 703 3866 
L 703 4441 
L 1819 4666 
L 2450 4666 
L 2450 531 
L 3481 531 
L 3481 0 
L 794 0 
L 794 531 
z
" transform="scale(0.015625)"/>
       </defs>
       <use xlink:href="#DejaVuSans-50"/>
       <use xlink:href="#DejaVuSans-2d" x="58.052734"/>
       <use xlink:href="#DejaVuSans-35" x="94.136719"/>
       <use xlink:href="#DejaVuSans-32" x="157.759766"/>
       <use xlink:href="#DejaVuSans-31" x="221.382812"/>
      </g>
     </g>
    </g>
    <g id="xtick_2">
     <g id="text_2">
      <!-- p521_mlkem1024 -->
      <g style="fill: #262626" transform="translate(388.361406 415.277812) scale(0.14 -0.14)">
       <defs>
        <path id="DejaVuSans-70" d="M 1159 525 
L 1159 -1331 
L 581 -1331 
L 581 3500 
L 1159 3500 
L 1159 2969 
Q 1341 3281 1617 3432 
Q 1894 3584 2278 3584 
Q 2916 3584 3314 3078 
Q 3713 2572 3713 1747 
Q 3713 922 3314 415 
Q 2916 -91 2278 -91 
Q 1894 -91 1617 61 
Q 1341 213 1159 525 
z
M 3116 1747 
Q 3116 2381 2855 2742 
Q 2594 3103 2138 3103 
Q 1681 3103 1420 2742 
Q 1159 2381 1159 1747 
Q 1159 1113 1420 752 
Q 1681 391 2138 391 
Q 2594 391 2855 752 
Q 3116 1113 3116 1747 
z
" transform="scale(0.015625)"/>
        <path id="DejaVuSans-5f" d="M 3263 -1063 
L 3263 -1509 
L -63 -1509 
L -63 -1063 
L 3263 -1063 
z
" transform="scale(0.015625)"/>
        <path id="DejaVuSans-6d" d="M 3328 2828 
Q 3544 3216 3844 3400 
Q 4144 3584 4550 3584 
Q 5097 3584 5394 3201 
Q 5691 2819 5691 2113 
L 5691 0 
L 5113 0 
L 5113 2094 
Q 5113 2597 4934 2840 
Q 4756 3084 4391 3084 
Q 3944 3084 3684 2787 
Q 3425 2491 3425 1978 
L 3425 0 
L 2847 0 
L 2847 2094 
Q 2847 2600 2669 2842 
Q 2491 3084 2119 3084 
Q 1678 3084 1418 2786 
Q 1159 2488 1159 1978 
L 1159 0 
L 581 0 
L 581 3500 
L 1159 3500 
L 1159 2956 
Q 1356 3278 1631 3431 
Q 1906 3584 2284 3584 
Q 2666 3584 2933 3390 
Q 3200 3197 3328 2828 
z
" transform="scale(0.015625)"/>
        <path id="DejaVuSans-6c" d="M 603 4863 
L 1178 4863 
L 1178 0 
L 603 0 
L 603 4863 
z
" transform="scale(0.015625)"/>
        <path id="DejaVuSans-6b" d="M 581 4863 
L 1159 4863 
L 1159 1991 
L 2875 3500 
L 3609 3500 
L 1753 1863 
L 3688 0 
L 2938 0 
L 1159 1709 
L 1159 0 
L 581 0 
L 581 4863 
z
" transform="scale(0.015625)"/>
        <path id="DejaVuSans-65" d="M 3597 1894 
L 3597 1613 
L 953 1613 
Q 991 1019 1311 708 
Q 1631 397 2203 397 
Q 2534 397 2845 478 
Q 3156 559 3463 722 
L 3463 178 
Q 3153 47 2828 -22 
Q 2503 -91 2169 -91 
Q 1331 -91 842 396 
Q 353 884 353 1716 
Q 353 2575 817 3079 
Q 1281 3584 2069 3584 
Q 2775 3584 3186 3129 
Q 3597 2675 3597 1894 
z
M 3022 2063 
Q 3016 2534 2758 2815 
Q 2500 3097 2075 3097 
Q 1594 3097 1305 2825 
Q 1016 2553 972 2059 
L 3022 2063 
z
" transform="scale(0.015625)"/>
        <path id="DejaVuSans-30" d="M 2034 4250 
Q 1547 4250 1301 3770 
Q 1056 3291 1056 2328 
Q 1056 1369 1301 889 
Q 1547 409 2034 409 
Q 2525 409 2770 889 
Q 3016 1369 3016 2328 
Q 3016 3291 2770 3770 
Q 2525 4250 2034 4250 
z
M 2034 4750 
Q 2819 4750 3233 4129 
Q 3647 3509 3647 2328 
Q 3647 1150 3233 529 
Q 2819 -91 2034 -91 
Q 1250 -91 836 529 
Q 422 1150 422 2328 
Q 422 3509 836 4129 
Q 1250 4750 2034 4750 
z
" transform="scale(0.015625)"/>
        <path id="DejaVuSans-34" d="M 2419 4116 
L 825 1625 
L 2419 1625 
L 2419 4116 
z
M 2253 4666 
L 3047 4666 
L 3047 1625 
L 3713 1625 
L 3713 1100 
L 3047 1100 
L 3047 0 
L 2419 0 
L 2419 1100 
L 313 1100 
L 313 1709 
L 2253 4666 
z
" transform="scale(0.015625)"/>
       </defs>
       <use xlink:href="#DejaVuSans-70"/>
       <use xlink:href="#DejaVuSans-35" x="63.476562"/>
       <use xlink:href="#DejaVuSans-32" x="127.099609"/>
       <use xlink:href="#DejaVuSans-31" x="190.722656"/>
       <use xlink:href="#DejaVuSans-5f" x="254.345703"/>
       <use xlink:href="#DejaVuSans-6d" x="304.345703"/>
       <use xlink:href="#DejaVuSans-6c" x="401.757812"/>
       <use xlink:href="#DejaVuSans-6b" x="429.541016"/>
       <use xlink:href="#DejaVuSans-65" x="483.826172"/>
       <use xlink:href="#DejaVuSans-6d" x="545.349609"/>
       <use xlink:href="#DejaVuSans-31" x="642.761719"/>
       <use xlink:href="#DejaVuSans-30" x="706.384766"/>
       <use xlink:href="#DejaVuSans-32" x="770.007812"/>
       <use xlink:href="#DejaVuSans-34" x="833.630859"/>
      </g>
     </g>
    </g>
    <g id="xtick_3">
     <g id="text_3">
      <!-- mlkem1024 -->
      <g style="fill: #262626" transform="translate(676.246562 415.277812) scale(0.14 -0.14)">
       <use xlink:href="#DejaVuSans-6d"/>
       <use xlink:href="#DejaVuSans-6c" x="97.412109"/>
       <use xlink:href="#DejaVuSans-6b" x="125.195312"/>
       <use xlink:href="#DejaVuSans-65" x="179.480469"/>
       <use xlink:href="#DejaVuSans-6d" x="241.003906"/>
       <use xlink:href="#DejaVuSans-31" x="338.416016"/>
       <use xlink:href="#DejaVuSans-30" x="402.039062"/>
       <use xlink:href="#DejaVuSans-32" x="465.662109"/>
       <use xlink:href="#DejaVuSans-34" x="529.285156"/>
      </g>
     </g>
    </g>
   </g>
   <g id="matplotlib.axis_2">
    <g id="ytick_1">
     <g id="line2d_1">
      <path d="M 51.3 365.537518 
L 851.04 365.537518 
" clip-path="url(#p60f2865e60)" style="fill: none; stroke: #cccccc; stroke-linecap: round"/>
     </g>
     <g id="text_4">
      <!-- 5 -->
      <g style="fill: #262626" transform="translate(34.80125 369.716659) scale(0.11 -0.11)">
       <use xlink:href="#DejaVuSans-35"/>
      </g>
     </g>
    </g>
    <g id="ytick_2">
     <g id="line2d_2">
      <path d="M 51.3 320.694031 
L 851.04 320.694031 
" clip-path="url(#p60f2865e60)" style="fill: none; stroke: #cccccc; stroke-linecap: round"/>
     </g>
     <g id="text_5">
      <!-- 10 -->
      <g style="fill: #262626" transform="translate(27.8025 324.873172) scale(0.11 -0.11)">
       <use xlink:href="#DejaVuSans-31"/>
       <use xlink:href="#DejaVuSans-30" x="63.623047"/>
      </g>
     </g>
    </g>
    <g id="ytick_3">
     <g id="line2d_3">
      <path d="M 51.3 275.850544 
L 851.04 275.850544 
" clip-path="url(#p60f2865e60)" style="fill: none; stroke: #cccccc; stroke-linecap: round"/>
     </g>
     <g id="text_6">
      <!-- 15 -->
      <g style="fill: #262626" transform="translate(27.8025 280.029684) scale(0.11 -0.11)">
       <use xlink:href="#DejaVuSans-31"/>
       <use xlink:href="#DejaVuSans-35" x="63.623047"/>
      </g>
     </g>
    </g>
    <g id="ytick_4">
     <g id="line2d_4">
      <path d="M 51.3 231.007056 
L 851.04 231.007056 
" clip-path="url(#p60f2865e60)" style="fill: none; stroke: #cccccc; stroke-linecap: round"/>
     </g>
     <g id="text_7">
      <!-- 20 -->
      <g style="fill: #262626" transform="translate(27.8025 235.186197) scale(0.11 -0.11)">
       <use xlink:href="#DejaVuSans-32"/>
       <use xlink:href="#DejaVuSans-30" x="63.623047"/>
      </g>
     </g>
    </g>
    <g id="ytick_5">
     <g id="line2d_5">
      <path d="M 51.3 186.163569 
L 851.04 186.163569 
" clip-path="url(#p60f2865e60)" style="fill: none; stroke: #cccccc; stroke-linecap: round"/>
     </g>
     <g id="text_8">
      <!-- 25 -->
      <g style="fill: #262626" transform="translate(27.8025 190.34271) scale(0.11 -0.11)">
       <use xlink:href="#DejaVuSans-32"/>
       <use xlink:href="#DejaVuSans-35" x="63.623047"/>
      </g>
     </g>
    </g>
    <g id="ytick_6">
     <g id="line2d_6">
      <path d="M 51.3 141.320082 
L 851.04 141.320082 
" clip-path="url(#p60f2865e60)" style="fill: none; stroke: #cccccc; stroke-linecap: round"/>
     </g>
     <g id="text_9">
      <!-- 30 -->
      <g style="fill: #262626" transform="translate(27.8025 145.499222) scale(0.11 -0.11)">
       <defs>
        <path id="DejaVuSans-33" d="M 2597 2516 
Q 3050 2419 3304 2112 
Q 3559 1806 3559 1356 
Q 3559 666 3084 287 
Q 2609 -91 1734 -91 
Q 1441 -91 1130 -33 
Q 819 25 488 141 
L 488 750 
Q 750 597 1062 519 
Q 1375 441 1716 441 
Q 2309 441 2620 675 
Q 2931 909 2931 1356 
Q 2931 1769 2642 2001 
Q 2353 2234 1838 2234 
L 1294 2234 
L 1294 2753 
L 1863 2753 
Q 2328 2753 2575 2939 
Q 2822 3125 2822 3475 
Q 2822 3834 2567 4026 
Q 2313 4219 1838 4219 
Q 1578 4219 1281 4162 
Q 984 4106 628 3988 
L 628 4550 
Q 988 4650 1302 4700 
Q 1616 4750 1894 4750 
Q 2613 4750 3031 4423 
Q 3450 4097 3450 3541 
Q 3450 3153 3228 2886 
Q 3006 2619 2597 2516 
z
" transform="scale(0.015625)"/>
       </defs>
       <use xlink:href="#DejaVuSans-33"/>
       <use xlink:href="#DejaVuSans-30" x="63.623047"/>
      </g>
     </g>
    </g>
    <g id="ytick_7">
     <g id="line2d_7">
      <path d="M 51.3 96.476594 
L 851.04 96.476594 
" clip-path="url(#p60f2865e60)" style="fill: none; stroke: #cccccc; stroke-linecap: round"/>
     </g>
     <g id="text_10">
      <!-- 35 -->
      <g style="fill: #262626" transform="translate(27.8025 100.655735) scale(0.11 -0.11)">
       <use xlink:href="#DejaVuSans-33"/>
       <use xlink:href="#DejaVuSans-35" x="63.623047"/>
      </g>
     </g>
    </g>
    <g id="ytick_8">
     <g id="line2d_8">
      <path d="M 51.3 51.633107 
L 851.04 51.633107 
" clip-path="url(#p60f2865e60)" style="fill: none; stroke: #cccccc; stroke-linecap: round"/>
     </g>
     <g id="text_11">
      <!-- 40 -->
      <g style="fill: #262626" transform="translate(27.8025 55.812248) scale(0.11 -0.11)">
       <use xlink:href="#DejaVuSans-34"/>
       <use xlink:href="#DejaVuSans-30" x="63.623047"/>
      </g>
     </g>
    </g>
    <g id="text_12">
     <!-- Handshake duration (ms) -->
     <g style="fill: #262626" transform="translate(21.306875 287.437813) rotate(-90) scale(0.12 -0.12)">
      <defs>
       <path id="DejaVuSans-48" d="M 628 4666 
L 1259 4666 
L 1259 2753 
L 3553 2753 
L 3553 4666 
L 4184 4666 
L 4184 0 
L 3553 0 
L 3553 2222 
L 1259 2222 
L 1259 0 
L 628 0 
L 628 4666 
z
" transform="scale(0.015625)"/>
       <path id="DejaVuSans-61" d="M 2194 1759 
Q 1497 1759 1228 1600 
Q 959 1441 959 1056 
Q 959 750 1161 570 
Q 1363 391 1709 391 
Q 2188 391 2477 730 
Q 2766 1069 2766 1631 
L 2766 1759 
L 2194 1759 
z
M 3341 1997 
L 3341 0 
L 2766 0 
L 2766 531 
Q 2569 213 2275 61 
Q 1981 -91 1556 -91 
Q 1019 -91 701 211 
Q 384 513 384 1019 
Q 384 1609 779 1909 
Q 1175 2209 1959 2209 
L 2766 2209 
L 2766 2266 
Q 2766 2663 2505 2880 
Q 2244 3097 1772 3097 
Q 1472 3097 1187 3025 
Q 903 2953 641 2809 
L 641 3341 
Q 956 3463 1253 3523 
Q 1550 3584 1831 3584 
Q 2591 3584 2966 3190 
Q 3341 2797 3341 1997 
z
" transform="scale(0.015625)"/>
       <path id="DejaVuSans-6e" d="M 3513 2113 
L 3513 0 
L 2938 0 
L 2938 2094 
Q 2938 2591 2744 2837 
Q 2550 3084 2163 3084 
Q 1697 3084 1428 2787 
Q 1159 2491 1159 1978 
L 1159 0 
L 581 0 
L 581 3500 
L 1159 3500 
L 1159 2956 
Q 1366 3272 1645 3428 
Q 1925 3584 2291 3584 
Q 2894 3584 3203 3211 
Q 3513 2838 3513 2113 
z
" transform="scale(0.015625)"/>
       <path id="DejaVuSans-64" d="M 2906 2969 
L 2906 4863 
L 3481 4863 
L 3481 0 
L 2906 0 
L 2906 525 
Q 2725 213 2448 61 
Q 2172 -91 1784 -91 
Q 1150 -91 751 415 
Q 353 922 353 1747 
Q 353 2572 751 3078 
Q 1150 3584 1784 3584 
Q 2172 3584 2448 3432 
Q 2725 3281 2906 2969 
z
M 947 1747 
Q 947 1113 1208 752 
Q 1469 391 1925 391 
Q 2381 391 2643 752 
Q 2906 1113 2906 1747 
Q 2906 2381 2643 2742 
Q 2381 3103 1925 3103 
Q 1469 3103 1208 2742 
Q 947 2381 947 1747 
z
" transform="scale(0.015625)"/>
       <path id="DejaVuSans-73" d="M 2834 3397 
L 2834 2853 
Q 2591 2978 2328 3040 
Q 2066 3103 1784 3103 
Q 1356 3103 1142 2972 
Q 928 2841 928 2578 
Q 928 2378 1081 2264 
Q 1234 2150 1697 2047 
L 1894 2003 
Q 2506 1872 2764 1633 
Q 3022 1394 3022 966 
Q 3022 478 2636 193 
Q 2250 -91 1575 -91 
Q 1294 -91 989 -36 
Q 684 19 347 128 
L 347 722 
Q 666 556 975 473 
Q 1284 391 1588 391 
Q 1994 391 2212 530 
Q 2431 669 2431 922 
Q 2431 1156 2273 1281 
Q 2116 1406 1581 1522 
L 1381 1569 
Q 847 1681 609 1914 
Q 372 2147 372 2553 
Q 372 3047 722 3315 
Q 1072 3584 1716 3584 
Q 2034 3584 2315 3537 
Q 2597 3491 2834 3397 
z
" transform="scale(0.015625)"/>
       <path id="DejaVuSans-68" d="M 3513 2113 
L 3513 0 
L 2938 0 
L 2938 2094 
Q 2938 2591 2744 2837 
Q 2550 3084 2163 3084 
Q 1697 3084 1428 2787 
Q 1159 2491 1159 1978 
L 1159 0 
L 581 0 
L 581 4863 
L 1159 4863 
L 1159 2956 
Q 1366 3272 1645 3428 
Q 1925 3584 2291 3584 
Q 2894 3584 3203 3211 
Q 3513 2838 3513 2113 
z
" transform="scale(0.015625)"/>
       <path id="DejaVuSans-20" transform="scale(0.015625)"/>
       <path id="DejaVuSans-75" d="M 544 1381 
L 544 3500 
L 1119 3500 
L 1119 1403 
Q 1119 906 1312 657 
Q 1506 409 1894 409 
Q 2359 409 2629 706 
Q 2900 1003 2900 1516 
L 2900 3500 
L 3475 3500 
L 3475 0 
L 2900 0 
L 2900 538 
Q 2691 219 2414 64 
Q 2138 -91 1772 -91 
Q 1169 -91 856 284 
Q 544 659 544 1381 
z
M 1991 3584 
L 1991 3584 
z
" transform="scale(0.015625)"/>
       <path id="DejaVuSans-72" d="M 2631 2963 
Q 2534 3019 2420 3045 
Q 2306 3072 2169 3072 
Q 1681 3072 1420 2755 
Q 1159 2438 1159 1844 
L 1159 0 
L 581 0 
L 581 3500 
L 1159 3500 
L 1159 2956 
Q 1341 3275 1631 3429 
Q 1922 3584 2338 3584 
Q 2397 3584 2469 3576 
Q 2541 3569 2628 3553 
L 2631 2963 
z
" transform="scale(0.015625)"/>
       <path id="DejaVuSans-74" d="M 1172 4494 
L 1172 3500 
L 2356 3500 
L 2356 3053 
L 1172 3053 
L 1172 1153 
Q 1172 725 1289 603 
Q 1406 481 1766 481 
L 2356 481 
L 2356 0 
L 1766 0 
Q 1100 0 847 248 
Q 594 497 594 1153 
L 594 3053 
L 172 3053 
L 172 3500 
L 594 3500 
L 594 4494 
L 1172 4494 
z
" transform="scale(0.015625)"/>
       <path id="DejaVuSans-69" d="M 603 3500 
L 1178 3500 
L 1178 0 
L 603 0 
L 603 3500 
z
M 603 4863 
L 1178 4863 
L 1178 4134 
L 603 4134 
L 603 4863 
z
" transform="scale(0.015625)"/>
       <path id="DejaVuSans-6f" d="M 1959 3097 
Q 1497 3097 1228 2736 
Q 959 2375 959 1747 
Q 959 1119 1226 758 
Q 1494 397 1959 397 
Q 2419 397 2687 759 
Q 2956 1122 2956 1747 
Q 2956 2369 2687 2733 
Q 2419 3097 1959 3097 
z
M 1959 3584 
Q 2709 3584 3137 3096 
Q 3566 2609 3566 1747 
Q 3566 888 3137 398 
Q 2709 -91 1959 -91 
Q 1206 -91 779 398 
Q 353 888 353 1747 
Q 353 2609 779 3096 
Q 1206 3584 1959 3584 
z
" transform="scale(0.015625)"/>
       <path id="DejaVuSans-28" d="M 1984 4856 
Q 1566 4138 1362 3434 
Q 1159 2731 1159 2009 
Q 1159 1288 1364 580 
Q 1569 -128 1984 -844 
L 1484 -844 
Q 1016 -109 783 600 
Q 550 1309 550 2009 
Q 550 2706 781 3412 
Q 1013 4119 1484 4856 
L 1984 4856 
z
" transform="scale(0.015625)"/>
       <path id="DejaVuSans-29" d="M 513 4856 
L 1013 4856 
Q 1481 4119 1714 3412 
Q 1947 2706 1947 2009 
Q 1947 1309 1714 600 
Q 1481 -109 1013 -844 
L 513 -844 
Q 928 -128 1133 580 
Q 1338 1288 1338 2009 
Q 1338 2731 1133 3434 
Q 928 4138 513 4856 
z
" transform="scale(0.015625)"/>
      </defs>
      <use xlink:href="#DejaVuSans-48"/>
      <use xlink:href="#DejaVuSans-61" x="75.195312"/>
      <use xlink:href="#DejaVuSans-6e" x="136.474609"/>
      <use xlink:href="#DejaVuSans-64" x="199.853516"/>
      <use xlink:href="#DejaVuSans-73" x="263.330078"/>
      <use xlink:href="#DejaVuSans-68" x="315.429688"/>
      <use xlink:href="#DejaVuSans-61" x="378.808594"/>
      <use xlink:href="#DejaVuSans-6b" x="440.087891"/>
      <use xlink:href="#DejaVuSans-65" x="494.373047"/>
      <use xlink:href="#DejaVuSans-20" x="555.896484"/>
      <use xlink:href="#DejaVuSans-64" x="587.683594"/>
      <use xlink:href="#DejaVuSans-75" x="651.160156"/>
      <use xlink:href="#DejaVuSans-72" x="714.539062"/>
      <use xlink:href="#DejaVuSans-61" x="755.652344"/>
      <use xlink:href="#DejaVuSans-74" x="816.931641"/>
      <use xlink:href="#DejaVuSans-69" x="856.140625"/>
      <use xlink:href="#DejaVuSans-6f" x="883.923828"/>
      <use xlink:href="#DejaVuSans-6e" x="945.105469"/>
      <use xlink:href="#DejaVuSans-20" x="1008.484375"/>
      <use xlink:href="#DejaVuSans-28" x="1040.271484"/>
      <use xlink:href="#DejaVuSans-6d" x="1079.285156"/>
      <use xlink:href="#DejaVuSans-73" x="1176.697266"/>
      <use xlink:href="#DejaVuSans-29" x="1228.796875"/>
     </g>
    </g>
   </g>
   <g id="PolyCollection_1">
    <defs>
     <path id="m4d070299a2" d="M 187.318788 -77.230518 
L 181.861212 -77.230518 
L 179.663905 -78.323862 
L 176.174185 -79.417205 
L 170.975859 -80.510548 
L 163.722591 -81.603891 
L 154.260086 -82.697235 
L 142.747971 -83.790578 
L 129.736458 -84.883921 
L 116.154238 -85.977264 
L 103.186935 -87.070607 
L 92.064636 -88.163951 
L 83.816486 -89.257294 
L 79.069781 -90.350637 
L 77.958 -91.44398 
L 80.160504 -92.537323 
L 85.04579 -93.630667 
L 91.854883 -94.72401 
L 99.857699 -95.817353 
L 108.44118 -96.910696 
L 117.126788 -98.00404 
L 125.545062 -99.097383 
L 133.403358 -100.190726 
L 140.470454 -101.284069 
L 146.580622 -102.377412 
L 151.644043 -103.470756 
L 155.647887 -104.564099 
L 158.641282 -105.657442 
L 160.709751 -106.750785 
L 161.952178 -107.844129 
L 162.471858 -108.937472 
L 162.384492 -110.030815 
L 161.835512 -111.124158 
L 161.012798 -112.217501 
L 160.141996 -113.310845 
L 159.459775 -114.404188 
L 159.171434 -115.497531 
L 159.407977 -116.590874 
L 160.19967 -117.684218 
L 161.47727 -118.777561 
L 163.101009 -119.870904 
L 164.906307 -120.964247 
L 166.749054 -122.05759 
L 168.53482 -123.150934 
L 170.224359 -124.244277 
L 171.818185 -125.33762 
L 173.330893 -126.430963 
L 174.768082 -127.524307 
L 176.115049 -128.61765 
L 177.339459 -129.710993 
L 178.403778 -130.804336 
L 179.280091 -131.897679 
L 179.960639 -132.991023 
L 180.460752 -134.084366 
L 180.814568 -135.177709 
L 181.066315 -136.271052 
L 181.260522 -137.364396 
L 181.433823 -138.457739 
L 181.609865 -139.551082 
L 181.797939 -140.644425 
L 181.995226 -141.737768 
L 182.191832 -142.831112 
L 182.377022 -143.924455 
L 182.544498 -145.017798 
L 182.694804 -146.111141 
L 182.834015 -147.204485 
L 182.969569 -148.297828 
L 183.105412 -149.391171 
L 183.238916 -150.484514 
L 183.361082 -151.577857 
L 183.459886 -152.671201 
L 183.525191 -153.764544 
L 183.553088 -154.857887 
L 183.548012 -155.95123 
L 183.522028 -157.044574 
L 183.491798 -158.137917 
L 183.474314 -159.23126 
L 183.482652 -160.324603 
L 183.522728 -161.417946 
L 183.591729 -162.51129 
L 183.678521 -163.604633 
L 183.765989 -164.697976 
L 183.834926 -165.791319 
L 183.868663 -166.884662 
L 183.857429 -167.978006 
L 183.801319 -169.071349 
L 183.711011 -170.164692 
L 183.605863 -171.258035 
L 183.509744 -172.351379 
L 183.445606 -173.444722 
L 183.430282 -174.538065 
L 183.470945 -175.631408 
L 183.564153 -176.724751 
L 183.697576 -177.818095 
L 183.853656 -178.911438 
L 184.013939 -180.004781 
L 184.162821 -181.098124 
L 184.289831 -182.191468 
L 184.390213 -183.284811 
L 184.464103 -184.378154 
L 184.514926 -185.471497 
L 184.665074 -185.471497 
L 184.665074 -185.471497 
L 184.715897 -184.378154 
L 184.789787 -183.284811 
L 184.890169 -182.191468 
L 185.017179 -181.098124 
L 185.166061 -180.004781 
L 185.326344 -178.911438 
L 185.482424 -177.818095 
L 185.615847 -176.724751 
L 185.709055 -175.631408 
L 185.749718 -174.538065 
L 185.734394 -173.444722 
L 185.670256 -172.351379 
L 185.574137 -171.258035 
L 185.468989 -170.164692 
L 185.378681 -169.071349 
L 185.322571 -167.978006 
L 185.311337 -166.884662 
L 185.345074 -165.791319 
L 185.414011 -164.697976 
L 185.501479 -163.604633 
L 185.588271 -162.51129 
L 185.657272 -161.417946 
L 185.697348 -160.324603 
L 185.705686 -159.23126 
L 185.688202 -158.137917 
L 185.657972 -157.044574 
L 185.631988 -155.95123 
L 185.626912 -154.857887 
L 185.654809 -153.764544 
L 185.720114 -152.671201 
L 185.818918 -151.577857 
L 185.941084 -150.484514 
L 186.074588 -149.391171 
L 186.210431 -148.297828 
L 186.345985 -147.204485 
L 186.485196 -146.111141 
L 186.635502 -145.017798 
L 186.802978 -143.924455 
L 186.988168 -142.831112 
L 187.184774 -141.737768 
L 187.382061 -140.644425 
L 187.570135 -139.551082 
L 187.746177 -138.457739 
L 187.919478 -137.364396 
L 188.113685 -136.271052 
L 188.365432 -135.177709 
L 188.719248 -134.084366 
L 189.219361 -132.991023 
L 189.899909 -131.897679 
L 190.776222 -130.804336 
L 191.840541 -129.710993 
L 193.064951 -128.61765 
L 194.411918 -127.524307 
L 195.849107 -126.430963 
L 197.361815 -125.33762 
L 198.955641 -124.244277 
L 200.64518 -123.150934 
L 202.430946 -122.05759 
L 204.273693 -120.964247 
L 206.078991 -119.870904 
L 207.70273 -118.777561 
L 208.98033 -117.684218 
L 209.772023 -116.590874 
L 210.008566 -115.497531 
L 209.720225 -114.404188 
L 209.038004 -113.310845 
L 208.167202 -112.217501 
L 207.344488 -111.124158 
L 206.795508 -110.030815 
L 206.708142 -108.937472 
L 207.227822 -107.844129 
L 208.470249 -106.750785 
L 210.538718 -105.657442 
L 213.532113 -104.564099 
L 217.535957 -103.470756 
L 222.599378 -102.377412 
L 228.709546 -101.284069 
L 235.776642 -100.190726 
L 243.634938 -99.097383 
L 252.053212 -98.00404 
L 260.73882 -96.910696 
L 269.322301 -95.817353 
L 277.325117 -94.72401 
L 284.13421 -93.630667 
L 289.019496 -92.537323 
L 291.222 -91.44398 
L 290.110219 -90.350637 
L 285.363514 -89.257294 
L 277.115364 -88.163951 
L 265.993065 -87.070607 
L 253.025762 -85.977264 
L 239.443542 -84.883921 
L 226.432029 -83.790578 
L 214.919914 -82.697235 
L 205.457409 -81.603891 
L 198.204141 -80.510548 
L 193.005815 -79.417205 
L 189.516095 -78.323862 
L 187.318788 -77.230518 
z
" style="stroke: #595959; stroke-width: 1.25"/>
    </defs>
    <g clip-path="url(#p60f2865e60)">
     <use xlink:href="#m4d070299a2" x="0" y="432" style="fill: #72b6a1; stroke: #595959; stroke-width: 1.25"/>
    </g>
   </g>
   <g id="PolyCollection_2">
    <defs>
     <path id="ma0c97b0c43" d="M 454.552346 -155.638923 
L 447.787654 -155.638923 
L 445.468058 -157.98291 
L 441.979309 -160.326897 
L 437.000383 -162.670884 
L 430.265509 -165.014871 
L 421.643871 -167.358858 
L 411.221196 -169.702845 
L 399.360127 -172.046832 
L 386.715091 -174.390819 
L 374.184844 -176.734806 
L 362.801576 -179.078793 
L 353.574681 -181.42278 
L 347.323326 -183.766767 
L 344.538 -186.110754 
L 345.304709 -188.454741 
L 349.308271 -190.798728 
L 355.909708 -193.142715 
L 364.274416 -195.486702 
L 373.518216 -197.830689 
L 382.839066 -200.174676 
L 391.611149 -202.518663 
L 399.430777 -204.86265 
L 406.1159 -207.206637 
L 411.669922 -209.550624 
L 416.224983 -211.894611 
L 419.980073 -214.238598 
L 423.146516 -216.582585 
L 425.908745 -218.926572 
L 428.403163 -221.270559 
L 430.713388 -223.614546 
L 432.877105 -225.958533 
L 434.898494 -228.30252 
L 436.760808 -230.646507 
L 438.435597 -232.990494 
L 439.887499 -235.334481 
L 441.075662 -237.678468 
L 441.954142 -240.022455 
L 442.473816 -242.366442 
L 442.587659 -244.710429 
L 442.259917 -247.054416 
L 441.478163 -249.398403 
L 440.265813 -251.74239 
L 438.691702 -254.086377 
L 436.873222 -256.430364 
L 434.970466 -258.774351 
L 433.170712 -261.118338 
L 431.665084 -263.462325 
L 430.621495 -265.806312 
L 430.15932 -268.150299 
L 430.331203 -270.494286 
L 431.115959 -272.838273 
L 432.424067 -275.18226 
L 434.114531 -277.526247 
L 436.019441 -279.870234 
L 437.971109 -282.214221 
L 439.82633 -284.558208 
L 441.483302 -286.902195 
L 442.88869 -289.246182 
L 444.034785 -291.590169 
L 444.948967 -293.934156 
L 445.679163 -296.278143 
L 446.279279 -298.62213 
L 446.797763 -300.966117 
L 447.270918 -303.310104 
L 447.720938 -305.654091 
L 448.157427 -307.998078 
L 448.580712 -310.342065 
L 448.985418 -312.686052 
L 449.3634 -315.030039 
L 449.705765 -317.374026 
L 450.004117 -319.718013 
L 450.251353 -322.062 
L 450.442265 -324.405987 
L 450.57406 -326.749974 
L 450.646831 -329.093961 
L 450.663905 -331.437948 
L 450.631999 -333.781935 
L 450.561049 -336.125922 
L 450.463642 -338.469909 
L 450.353967 -340.813896 
L 450.246368 -343.157883 
L 450.153696 -345.50187 
L 450.085805 -347.845857 
L 450.048557 -350.189844 
L 450.043586 -352.533831 
L 450.068864 -354.877818 
L 450.119847 -357.221805 
L 450.190835 -359.565792 
L 450.276125 -361.909779 
L 450.370696 -364.253766 
L 450.470364 -366.597753 
L 450.571577 -368.94174 
L 450.671091 -371.285727 
L 450.76579 -373.629714 
L 450.85275 -375.973701 
L 450.929513 -378.317688 
L 450.99441 -380.661675 
L 451.046801 -383.005662 
L 451.087098 -385.349649 
L 451.116582 -387.693636 
L 451.223418 -387.693636 
L 451.223418 -387.693636 
L 451.252902 -385.349649 
L 451.293199 -383.005662 
L 451.34559 -380.661675 
L 451.410487 -378.317688 
L 451.48725 -375.973701 
L 451.57421 -373.629714 
L 451.668909 -371.285727 
L 451.768423 -368.94174 
L 451.869636 -366.597753 
L 451.969304 -364.253766 
L 452.063875 -361.909779 
L 452.149165 -359.565792 
L 452.220153 -357.221805 
L 452.271136 -354.877818 
L 452.296414 -352.533831 
L 452.291443 -350.189844 
L 452.254195 -347.845857 
L 452.186304 -345.50187 
L 452.093632 -343.157883 
L 451.986033 -340.813896 
L 451.876358 -338.469909 
L 451.778951 -336.125922 
L 451.708001 -333.781935 
L 451.676095 -331.437948 
L 451.693169 -329.093961 
L 451.76594 -326.749974 
L 451.897735 -324.405987 
L 452.088647 -322.062 
L 452.335883 -319.718013 
L 452.634235 -317.374026 
L 452.9766 -315.030039 
L 453.354582 -312.686052 
L 453.759288 -310.342065 
L 454.182573 -307.998078 
L 454.619062 -305.654091 
L 455.069082 -303.310104 
L 455.542237 -300.966117 
L 456.060721 -298.62213 
L 456.660837 -296.278143 
L 457.391033 -293.934156 
L 458.305215 -291.590169 
L 459.45131 -289.246182 
L 460.856698 -286.902195 
L 462.51367 -284.558208 
L 464.368891 -282.214221 
L 466.320559 -279.870234 
L 468.225469 -277.526247 
L 469.915933 -275.18226 
L 471.224041 -272.838273 
L 472.008797 -270.494286 
L 472.18068 -268.150299 
L 471.718505 -265.806312 
L 470.674916 -263.462325 
L 469.169288 -261.118338 
L 467.369534 -258.774351 
L 465.466778 -256.430364 
L 463.648298 -254.086377 
L 462.074187 -251.74239 
L 460.861837 -249.398403 
L 460.080083 -247.054416 
L 459.752341 -244.710429 
L 459.866184 -242.366442 
L 460.385858 -240.022455 
L 461.264338 -237.678468 
L 462.452501 -235.334481 
L 463.904403 -232.990494 
L 465.579192 -230.646507 
L 467.441506 -228.30252 
L 469.462895 -225.958533 
L 471.626612 -223.614546 
L 473.936837 -221.270559 
L 476.431255 -218.926572 
L 479.193484 -216.582585 
L 482.359927 -214.238598 
L 486.115017 -211.894611 
L 490.670078 -209.550624 
L 496.2241 -207.206637 
L 502.909223 -204.86265 
L 510.728851 -202.518663 
L 519.500934 -200.174676 
L 528.821784 -197.830689 
L 538.065584 -195.486702 
L 546.430292 -193.142715 
L 553.031729 -190.798728 
L 557.035291 -188.454741 
L 557.802 -186.110754 
L 555.016674 -183.766767 
L 548.765319 -181.42278 
L 539.538424 -179.078793 
L 528.155156 -176.734806 
L 515.624909 -174.390819 
L 502.979873 -172.046832 
L 491.118804 -169.702845 
L 480.696129 -167.358858 
L 472.074491 -165.014871 
L 465.339617 -162.670884 
L 460.360691 -160.326897 
L 456.871942 -157.98291 
L 454.552346 -155.638923 
z
" style="stroke: #595959; stroke-width: 1.25"/>
    </defs>
    <g clip-path="url(#p60f2865e60)">
     <use xlink:href="#ma0c97b0c43" x="0" y="432" style="fill: #e99675; stroke: #595959; stroke-width: 1.25"/>
    </g>
   </g>
   <g id="PolyCollection_3">
    <defs>
     <path id="m538c9b2e85" d="M 719.838242 -53.566364 
L 715.661758 -53.566364 
L 711.097663 -55.886974 
L 700.879792 -58.207584 
L 683.192078 -60.528194 
L 659.542034 -62.848805 
L 635.473432 -65.169415 
L 617.93346 -67.490025 
L 611.118 -69.810636 
L 614.277444 -72.131246 
L 623.176902 -74.451856 
L 633.555898 -76.772466 
L 643.34891 -79.093077 
L 652.377177 -81.413687 
L 660.937479 -83.734297 
L 669.016743 -86.054907 
L 676.456331 -88.375518 
L 683.250756 -90.696128 
L 689.339245 -93.016738 
L 694.348652 -95.337348 
L 697.988303 -97.657959 
L 700.632916 -99.978569 
L 703.098067 -102.299179 
L 705.842515 -104.619789 
L 708.679173 -106.9404 
L 711.157186 -109.26101 
L 712.960487 -111.58162 
L 714.061586 -113.902231 
L 714.718273 -116.222841 
L 715.276899 -118.543451 
L 715.879463 -120.864061 
L 716.396434 -123.184672 
L 716.665016 -125.505282 
L 716.722633 -127.825892 
L 716.767226 -130.146502 
L 716.941234 -132.467113 
L 717.216075 -134.787723 
L 717.473745 -137.108333 
L 717.638935 -139.428943 
L 717.715463 -141.749554 
L 717.741722 -144.070164 
L 717.748475 -146.390774 
L 717.749785 -148.711385 
L 717.749977 -151.031995 
L 717.749998 -153.352605 
L 717.75 -155.673215 
L 717.75 -157.993826 
L 717.75 -160.314436 
L 717.75 -162.635046 
L 717.75 -164.955656 
L 717.75 -167.276267 
L 717.75 -169.596877 
L 717.75 -171.917487 
L 717.75 -174.238097 
L 717.75 -176.558708 
L 717.75 -178.879318 
L 717.75 -181.199928 
L 717.75 -183.520539 
L 717.75 -185.841149 
L 717.75 -188.161759 
L 717.75 -190.482369 
L 717.75 -192.80298 
L 717.75 -195.12359 
L 717.75 -197.4442 
L 717.75 -199.76481 
L 717.75 -202.085421 
L 717.75 -204.406031 
L 717.75 -206.726641 
L 717.75 -209.047251 
L 717.75 -211.367862 
L 717.75 -213.688472 
L 717.75 -216.009082 
L 717.75 -218.329693 
L 717.75 -220.650303 
L 717.75 -222.970913 
L 717.75 -225.291523 
L 717.75 -227.612134 
L 717.75 -229.932744 
L 717.75 -232.253354 
L 717.75 -234.573964 
L 717.75 -236.894575 
L 717.75 -239.215185 
L 717.75 -241.535795 
L 717.75 -243.856405 
L 717.75 -246.177016 
L 717.75 -248.497626 
L 717.75 -250.818236 
L 717.749995 -253.138847 
L 717.74995 -255.459457 
L 717.749588 -257.780067 
L 717.747424 -260.100677 
L 717.737754 -262.421288 
L 717.705748 -264.741898 
L 717.628465 -267.062508 
L 717.496309 -269.383118 
L 717.347524 -271.703729 
L 717.264704 -274.024339 
L 717.305261 -276.344949 
L 717.440233 -278.665559 
L 717.586018 -280.98617 
L 717.684023 -283.30678 
L 717.815977 -283.30678 
L 717.815977 -283.30678 
L 717.913982 -280.98617 
L 718.059767 -278.665559 
L 718.194739 -276.344949 
L 718.235296 -274.024339 
L 718.152476 -271.703729 
L 718.003691 -269.383118 
L 717.871535 -267.062508 
L 717.794252 -264.741898 
L 717.762246 -262.421288 
L 717.752576 -260.100677 
L 717.750412 -257.780067 
L 717.75005 -255.459457 
L 717.750005 -253.138847 
L 717.75 -250.818236 
L 717.75 -248.497626 
L 717.75 -246.177016 
L 717.75 -243.856405 
L 717.75 -241.535795 
L 717.75 -239.215185 
L 717.75 -236.894575 
L 717.75 -234.573964 
L 717.75 -232.253354 
L 717.75 -229.932744 
L 717.75 -227.612134 
L 717.75 -225.291523 
L 717.75 -222.970913 
L 717.75 -220.650303 
L 717.75 -218.329693 
L 717.75 -216.009082 
L 717.75 -213.688472 
L 717.75 -211.367862 
L 717.75 -209.047251 
L 717.75 -206.726641 
L 717.75 -204.406031 
L 717.75 -202.085421 
L 717.75 -199.76481 
L 717.75 -197.4442 
L 717.75 -195.12359 
L 717.75 -192.80298 
L 717.75 -190.482369 
L 717.75 -188.161759 
L 717.75 -185.841149 
L 717.75 -183.520539 
L 717.75 -181.199928 
L 717.75 -178.879318 
L 717.75 -176.558708 
L 717.75 -174.238097 
L 717.75 -171.917487 
L 717.75 -169.596877 
L 717.75 -167.276267 
L 717.75 -164.955656 
L 717.75 -162.635046 
L 717.75 -160.314436 
L 717.75 -157.993826 
L 717.75 -155.673215 
L 717.750002 -153.352605 
L 717.750023 -151.031995 
L 717.750215 -148.711385 
L 717.751525 -146.390774 
L 717.758278 -144.070164 
L 717.784537 -141.749554 
L 717.861065 -139.428943 
L 718.026255 -137.108333 
L 718.283925 -134.787723 
L 718.558766 -132.467113 
L 718.732774 -130.146502 
L 718.777367 -127.825892 
L 718.834984 -125.505282 
L 719.103566 -123.184672 
L 719.620537 -120.864061 
L 720.223101 -118.543451 
L 720.781727 -116.222841 
L 721.438414 -113.902231 
L 722.539513 -111.58162 
L 724.342814 -109.26101 
L 726.820827 -106.9404 
L 729.657485 -104.619789 
L 732.401933 -102.299179 
L 734.867084 -99.978569 
L 737.511697 -97.657959 
L 741.151348 -95.337348 
L 746.160755 -93.016738 
L 752.249244 -90.696128 
L 759.043669 -88.375518 
L 766.483257 -86.054907 
L 774.562521 -83.734297 
L 783.122823 -81.413687 
L 792.15109 -79.093077 
L 801.944102 -76.772466 
L 812.323098 -74.451856 
L 821.222556 -72.131246 
L 824.382 -69.810636 
L 817.56654 -67.490025 
L 800.026568 -65.169415 
L 775.957966 -62.848805 
L 752.307922 -60.528194 
L 734.620208 -58.207584 
L 724.402337 -55.886974 
L 719.838242 -53.566364 
z
" style="stroke: #595959; stroke-width: 1.25"/>
    </defs>
    <g clip-path="url(#p60f2865e60)">
     <use xlink:href="#m538c9b2e85" x="0" y="432" style="fill: #95a3c3; stroke: #595959; stroke-width: 1.25"/>
    </g>
   </g>
   <g id="line2d_9">
    <path d="M 184.59 342.331014 
L 184.59 345.985758 
" clip-path="url(#p60f2865e60)" style="fill: none; stroke: #000000"/>
   </g>
   <g id="line2d_10">
    <path d="M 184.59 326.501263 
L 184.59 304.640063 
" clip-path="url(#p60f2865e60)" style="fill: none; stroke: #000000"/>
   </g>
   <g id="line2d_11">
    <path d="M 174.59325 345.985758 
L 194.58675 345.985758 
" clip-path="url(#p60f2865e60)" style="fill: none; stroke: #000000; stroke-linecap: round"/>
   </g>
   <g id="line2d_12">
    <path d="M 174.59325 304.640063 
L 194.58675 304.640063 
" clip-path="url(#p60f2865e60)" style="fill: none; stroke: #000000; stroke-linecap: round"/>
   </g>
   <g id="line2d_13">
    <path d="M 451.17 248.496016 
L 451.17 255.22254 
" clip-path="url(#p60f2865e60)" style="fill: none; stroke: #000000"/>
   </g>
   <g id="line2d_14">
    <path d="M 451.17 215.132462 
L 451.17 165.176817 
" clip-path="url(#p60f2865e60)" style="fill: none; stroke: #000000"/>
   </g>
   <g id="line2d_15">
    <path d="M 441.17325 255.22254 
L 461.16675 255.22254 
" clip-path="url(#p60f2865e60)" style="fill: none; stroke: #000000; stroke-linecap: round"/>
   </g>
   <g id="line2d_16">
    <path d="M 441.17325 165.176817 
L 461.16675 165.176817 
" clip-path="url(#p60f2865e60)" style="fill: none; stroke: #000000; stroke-linecap: round"/>
   </g>
   <g id="line2d_17">
    <path d="M 717.75 363.295344 
L 717.75 369.573432 
" clip-path="url(#p60f2865e60)" style="fill: none; stroke: #000000"/>
   </g>
   <g id="line2d_18">
    <path d="M 717.75 348.653945 
L 717.75 328.765859 
" clip-path="url(#p60f2865e60)" style="fill: none; stroke: #000000"/>
   </g>
   <g id="line2d_19">
    <path d="M 707.75325 369.573432 
L 727.74675 369.573432 
" clip-path="url(#p60f2865e60)" style="fill: none; stroke: #000000; stroke-linecap: round"/>
   </g>
   <g id="line2d_20">
    <path d="M 707.75325 328.765859 
L 727.74675 328.765859 
" clip-path="url(#p60f2865e60)" style="fill: none; stroke: #000000; stroke-linecap: round"/>
   </g>
   <g id="line2d_21">
    <path d="M 164.5965 337.91393 
L 204.5835 337.91393 
" clip-path="url(#p60f2865e60)" style="fill: none; stroke: #ff0000; stroke-width: 2"/>
   </g>
   <g id="line2d_22">
    <path d="M 431.1765 240.558719 
L 471.1635 240.558719 
" clip-path="url(#p60f2865e60)" style="fill: none; stroke: #ff0000; stroke-width: 2"/>
   </g>
   <g id="line2d_23">
    <path d="M 697.7565 357.645065 
L 737.7435 357.645065 
" clip-path="url(#p60f2865e60)" style="fill: none; stroke: #ff0000; stroke-width: 2"/>
   </g>
   <g id="patch_3">
    <path d="M 51.3 395.14 
L 51.3 27.6 
" style="fill: none; stroke: #cccccc; stroke-width: 1.25; stroke-linejoin: miter; stroke-linecap: square"/>
   </g>
   <g id="patch_4">
    <path d="M 851.04 395.14 
L 851.04 27.6 
" style="fill: none; stroke: #cccccc; stroke-width: 1.25; stroke-linejoin: miter; stroke-linecap: square"/>
   </g>
   <g id="patch_5">
    <path d="M 51.3 395.14 
L 851.04 395.14 
" style="fill: none; stroke: #cccccc; stroke-width: 1.25; stroke-linejoin: miter; stroke-linecap: square"/>
   </g>
   <g id="patch_6">
    <path d="M 51.3 27.6 
L 851.04 27.6 
" style="fill: none; stroke: #cccccc; stroke-width: 1.25; stroke-linejoin: miter; stroke-linecap: square"/>
   </g>
   <g id="text_13">
    <!-- Handshake duration on QUIC with secp521r1 signature algorithm — ideal conditions -->
    <g style="fill: #262626" transform="translate(197.96625 21.6) scale(0.12 -0.12)">
     <defs>
      <path id="DejaVuSans-51" d="M 2522 4238 
Q 1834 4238 1429 3725 
Q 1025 3213 1025 2328 
Q 1025 1447 1429 934 
Q 1834 422 2522 422 
Q 3209 422 3611 934 
Q 4013 1447 4013 2328 
Q 4013 3213 3611 3725 
Q 3209 4238 2522 4238 
z
M 3406 84 
L 4238 -825 
L 3475 -825 
L 2784 -78 
Q 2681 -84 2626 -87 
Q 2572 -91 2522 -91 
Q 1538 -91 948 567 
Q 359 1225 359 2328 
Q 359 3434 948 4092 
Q 1538 4750 2522 4750 
Q 3503 4750 4090 4092 
Q 4678 3434 4678 2328 
Q 4678 1516 4351 937 
Q 4025 359 3406 84 
z
" transform="scale(0.015625)"/>
      <path id="DejaVuSans-55" d="M 556 4666 
L 1191 4666 
L 1191 1831 
Q 1191 1081 1462 751 
Q 1734 422 2344 422 
Q 2950 422 3222 751 
Q 3494 1081 3494 1831 
L 3494 4666 
L 4128 4666 
L 4128 1753 
Q 4128 841 3676 375 
Q 3225 -91 2344 -91 
Q 1459 -91 1007 375 
Q 556 841 556 1753 
L 556 4666 
z
" transform="scale(0.015625)"/>
      <path id="DejaVuSans-49" d="M 628 4666 
L 1259 4666 
L 1259 0 
L 628 0 
L 628 4666 
z
" transform="scale(0.015625)"/>
      <path id="DejaVuSans-43" d="M 4122 4306 
L 4122 3641 
Q 3803 3938 3442 4084 
Q 3081 4231 2675 4231 
Q 1875 4231 1450 3742 
Q 1025 3253 1025 2328 
Q 1025 1406 1450 917 
Q 1875 428 2675 428 
Q 3081 428 3442 575 
Q 3803 722 4122 1019 
L 4122 359 
Q 3791 134 3420 21 
Q 3050 -91 2638 -91 
Q 1578 -91 968 557 
Q 359 1206 359 2328 
Q 359 3453 968 4101 
Q 1578 4750 2638 4750 
Q 3056 4750 3426 4639 
Q 3797 4528 4122 4306 
z
" transform="scale(0.015625)"/>
      <path id="DejaVuSans-77" d="M 269 3500 
L 844 3500 
L 1563 769 
L 2278 3500 
L 2956 3500 
L 3675 769 
L 4391 3500 
L 4966 3500 
L 4050 0 
L 3372 0 
L 2619 2869 
L 1863 0 
L 1184 0 
L 269 3500 
z
" transform="scale(0.015625)"/>
      <path id="DejaVuSans-63" d="M 3122 3366 
L 3122 2828 
Q 2878 2963 2633 3030 
Q 2388 3097 2138 3097 
Q 1578 3097 1268 2742 
Q 959 2388 959 1747 
Q 959 1106 1268 751 
Q 1578 397 2138 397 
Q 2388 397 2633 464 
Q 2878 531 3122 666 
L 3122 134 
Q 2881 22 2623 -34 
Q 2366 -91 2075 -91 
Q 1284 -91 818 406 
Q 353 903 353 1747 
Q 353 2603 823 3093 
Q 1294 3584 2113 3584 
Q 2378 3584 2631 3529 
Q 2884 3475 3122 3366 
z
" transform="scale(0.015625)"/>
      <path id="DejaVuSans-67" d="M 2906 1791 
Q 2906 2416 2648 2759 
Q 2391 3103 1925 3103 
Q 1463 3103 1205 2759 
Q 947 2416 947 1791 
Q 947 1169 1205 825 
Q 1463 481 1925 481 
Q 2391 481 2648 825 
Q 2906 1169 2906 1791 
z
M 3481 434 
Q 3481 -459 3084 -895 
Q 2688 -1331 1869 -1331 
Q 1566 -1331 1297 -1286 
Q 1028 -1241 775 -1147 
L 775 -588 
Q 1028 -725 1275 -790 
Q 1522 -856 1778 -856 
Q 2344 -856 2625 -561 
Q 2906 -266 2906 331 
L 2906 616 
Q 2728 306 2450 153 
Q 2172 0 1784 0 
Q 1141 0 747 490 
Q 353 981 353 1791 
Q 353 2603 747 3093 
Q 1141 3584 1784 3584 
Q 2172 3584 2450 3431 
Q 2728 3278 2906 2969 
L 2906 3500 
L 3481 3500 
L 3481 434 
z
" transform="scale(0.015625)"/>
      <path id="DejaVuSans-2014" d="M 313 1978 
L 6088 1978 
L 6088 1528 
L 313 1528 
L 313 1978 
z
" transform="scale(0.015625)"/>
     </defs>
     <use xlink:href="#DejaVuSans-48"/>
     <use xlink:href="#DejaVuSans-61" x="75.195312"/>
     <use xlink:href="#DejaVuSans-6e" x="136.474609"/>
     <use xlink:href="#DejaVuSans-64" x="199.853516"/>
     <use xlink:href="#DejaVuSans-73" x="263.330078"/>
     <use xlink:href="#DejaVuSans-68" x="315.429688"/>
     <use xlink:href="#DejaVuSans-61" x="378.808594"/>
     <use xlink:href="#DejaVuSans-6b" x="440.087891"/>
     <use xlink:href="#DejaVuSans-65" x="494.373047"/>
     <use xlink:href="#DejaVuSans-20" x="555.896484"/>
     <use xlink:href="#DejaVuSans-64" x="587.683594"/>
     <use xlink:href="#DejaVuSans-75" x="651.160156"/>
     <use xlink:href="#DejaVuSans-72" x="714.539062"/>
     <use xlink:href="#DejaVuSans-61" x="755.652344"/>
     <use xlink:href="#DejaVuSans-74" x="816.931641"/>
     <use xlink:href="#DejaVuSans-69" x="856.140625"/>
     <use xlink:href="#DejaVuSans-6f" x="883.923828"/>
     <use xlink:href="#DejaVuSans-6e" x="945.105469"/>
     <use xlink:href="#DejaVuSans-20" x="1008.484375"/>
     <use xlink:href="#DejaVuSans-6f" x="1040.271484"/>
     <use xlink:href="#DejaVuSans-6e" x="1101.453125"/>
     <use xlink:href="#DejaVuSans-20" x="1164.832031"/>
     <use xlink:href="#DejaVuSans-51" x="1196.619141"/>
     <use xlink:href="#DejaVuSans-55" x="1275.330078"/>
     <use xlink:href="#DejaVuSans-49" x="1348.523438"/>
     <use xlink:href="#DejaVuSans-43" x="1378.015625"/>
     <use xlink:href="#DejaVuSans-20" x="1447.839844"/>
     <use xlink:href="#DejaVuSans-77" x="1479.626953"/>
     <use xlink:href="#DejaVuSans-69" x="1561.414062"/>
     <use xlink:href="#DejaVuSans-74" x="1589.197266"/>
     <use xlink:href="#DejaVuSans-68" x="1628.40625"/>
     <use xlink:href="#DejaVuSans-20" x="1691.785156"/>
     <use xlink:href="#DejaVuSans-73" x="1723.572266"/>
     <use xlink:href="#DejaVuSans-65" x="1775.671875"/>
     <use xlink:href="#DejaVuSans-63" x="1837.195312"/>
     <use xlink:href="#DejaVuSans-70" x="1892.175781"/>
     <use xlink:href="#DejaVuSans-35" x="1955.652344"/>
     <use xlink:href="#DejaVuSans-32" x="2019.275391"/>
     <use xlink:href="#DejaVuSans-31" x="2082.898438"/>
     <use xlink:href="#DejaVuSans-72" x="2146.521484"/>
     <use xlink:href="#DejaVuSans-31" x="2187.634766"/>
     <use xlink:href="#DejaVuSans-20" x="2251.257812"/>
     <use xlink:href="#DejaVuSans-73" x="2283.044922"/>
     <use xlink:href="#DejaVuSans-69" x="2335.144531"/>
     <use xlink:href="#DejaVuSans-67" x="2362.927734"/>
     <use xlink:href="#DejaVuSans-6e" x="2426.404297"/>
     <use xlink:href="#DejaVuSans-61" x="2489.783203"/>
     <use xlink:href="#DejaVuSans-74" x="2551.0625"/>
     <use xlink:href="#DejaVuSans-75" x="2590.271484"/>
     <use xlink:href="#DejaVuSans-72" x="2653.650391"/>
     <use xlink:href="#DejaVuSans-65" x="2692.513672"/>
     <use xlink:href="#DejaVuSans-20" x="2754.037109"/>
     <use xlink:href="#DejaVuSans-61" x="2785.824219"/>
     <use xlink:href="#DejaVuSans-6c" x="2847.103516"/>
     <use xlink:href="#DejaVuSans-67" x="2874.886719"/>
     <use xlink:href="#DejaVuSans-6f" x="2938.363281"/>
     <use xlink:href="#DejaVuSans-72" x="2999.544922"/>
     <use xlink:href="#DejaVuSans-69" x="3040.658203"/>
     <use xlink:href="#DejaVuSans-74" x="3068.441406"/>
     <use xlink:href="#DejaVuSans-68" x="3107.650391"/>
     <use xlink:href="#DejaVuSans-6d" x="3171.029297"/>
     <use xlink:href="#DejaVuSans-20" x="3268.441406"/>
     <use xlink:href="#DejaVuSans-2014" x="3300.228516"/>
     <use xlink:href="#DejaVuSans-20" x="3400.228516"/>
     <use xlink:href="#DejaVuSans-69" x="3432.015625"/>
     <use xlink:href="#DejaVuSans-64" x="3459.798828"/>
     <use xlink:href="#DejaVuSans-65" x="3523.275391"/>
     <use xlink:href="#DejaVuSans-61" x="3584.798828"/>
     <use xlink:href="#DejaVuSans-6c" x="3646.078125"/>
     <use xlink:href="#DejaVuSans-20" x="3673.861328"/>
     <use xlink:href="#DejaVuSans-63" x="3705.648438"/>
     <use xlink:href="#DejaVuSans-6f" x="3760.628906"/>
     <use xlink:href="#DejaVuSans-6e" x="3821.810547"/>
     <use xlink:href="#DejaVuSans-64" x="3885.189453"/>
     <use xlink:href="#DejaVuSans-69" x="3948.666016"/>
     <use xlink:href="#DejaVuSans-74" x="3976.449219"/>
     <use xlink:href="#DejaVuSans-69" x="4015.658203"/>
     <use xlink:href="#DejaVuSans-6f" x="4043.441406"/>
     <use xlink:href="#DejaVuSans-6e" x="4104.623047"/>
     <use xlink:href="#DejaVuSans-73" x="4168.001953"/>
    </g>
   </g>
  </g>
 </g>
 <defs>
  <clipPath id="p60f2865e60">
   <rect x="51.3" y="27.6" width="799.74" height="367.54"/>
  </clipPath>
 </defs>
</svg>
