<?xml version="1.0" encoding="utf-8" standalone="no"?>
<!DOCTYPE svg PUBLIC "-//W3C//DTD SVG 1.1//EN"
  "http://www.w3.org/Graphics/SVG/1.1/DTD/svg11.dtd">
<svg xmlns:xlink="http://www.w3.org/1999/xlink" width="864pt" height="432pt" viewBox="0 0 864 432" xmlns="http://www.w3.org/2000/svg" version="1.1">
 <metadata>
  <rdf:RDF xmlns:dc="http://purl.org/dc/elements/1.1/" xmlns:cc="http://creativecommons.org/ns#" xmlns:rdf="http://www.w3.org/1999/02/22-rdf-syntax-ns#">
   <cc:Work>
    <dc:type rdf:resource="http://purl.org/dc/dcmitype/StillImage"/>
    <dc:date>2026-03-21T13:58:49.372857</dc:date>
    <dc:format>image/svg+xml</dc:format>
    <dc:creator>
     <cc:Agent>
      <dc:title>Matplotlib v3.6.3, https://matplotlib.org/</dc:title>
     </cc:Agent>
    </dc:creator>
   </cc:Work>
  </rdf:RDF>
 </metadata>
 <defs>
  <style type="text/css">*{stroke-linejoin: round; stroke-linecap: butt}</style>
 </defs>
 <g id="figure_1">
  <g id="patch_1">
   <path d="M 0 432 
L 864 432 
L 864 0 
L 0 0 
z
" style="fill: #ffffff"/>
  </g>
  <g id="axes_1">
   <g id="patch_2">
    <path d="M 58.32 395.14 
L 851.04 395.14 
L 851.04 27.6 
L 58.32 27.6 
z
" style="fill: #ffffff"/>
   </g>
   <g id="matplotlib.axis_1">
    <g id="xtick_1">
     <g id="text_1">
      <!-- P-384 -->
      <g style="fill: #262626" transform="translate(117.642 415.277812) scale(0.14 -0.14)">
       <defs>
        <path id="DejaVuSans-50" d="M 1259 4147 
L 1259 2394 
L 2053 2394 
Q 2494 2394 2734 2622 
Q 2975 2850 2975 3272 
Q 2975 3691 2734 3919 
Q 2494 4147 2053 4147 
L 1259 4147 
z
M 628 4666 
L 2053 4666 
Q 2838 4666 3239 4311 
Q 3641 3956 3641 3272 
Q 3641 2581 3239 2228 
Q 2838 1875 2053 1875 
L 1259 1875 
L 1259 0 
L 628 0 
L 628 4666 
z
" transform="scale(0.015625)"/>
        <path id="DejaVuSans-2d" d="M 313 2009 
L 1997 2009 
L 1997 1497 
L 313 1497 
L 313 2009 
z
" transform="scale(0.015625)"/>
        <path id="DejaVuSans-33" d="M 2597 2516 
Q 3050 2419 3304 2112 
Q 3559 1806 3559 1356 
Q 3559 666 3084 287 
Q 2609 -91 1734 -91 
Q 1441 -91 1130 -33 
Q 819 25 488 141 
L 488 750 
Q 750 597 1062 519 
Q 1375 441 1716 441 
Q 2309 441 2620 675 
Q 2931 909 2931 1356 
Q 2931 1769 2642 2001 
Q 2353 2234 1838 2234 
L 1294 2234 
L 1294 2753 
L 1863 2753 
Q 2328 2753 2575 2939 
Q 2822 3125 2822 3475 
Q 2822 3834 2567 4026 
Q 2313 4219 1838 4219 
Q 1578 4219 1281 4162 
Q 984 4106 628 3988 
L 628 4550 
Q 988 4650 1302 4700 
Q 1616 4750 1894 4750 
Q 2613 4750 3031 4423 
Q 3450 4097 3450 3541 
Q 3450 3153 3228 2886 
Q 3006 2619 2597 2516 
z
" transform="scale(0.015625)"/>
        <path id="DejaVuSans-38" d="M 2034 2216 
Q 1584 2216 1326 1975 
Q 1069 1734 1069 1313 
Q 1069 891 1326 650 
Q 1584 409 2034 409 
Q 2484 409 2743 651 
Q 3003 894 3003 1313 
Q 3003 1734 2745 1975 
Q 2488 2216 2034 2216 
z
M 1403 2484 
Q 997 2584 770 2862 
Q 544 3141 544 3541 
Q 544 4100 942 4425 
Q 1341 4750 2034 4750 
Q 2731 4750 3128 4425 
Q 3525 4100 3525 3541 
Q 3525 3141 3298 2862 
Q 3072 2584 2669 2484 
Q 3125 2378 3379 2068 
Q 3634 1759 3634 1313 
Q 3634 634 3220 271 
Q 2806 -91 2034 -91 
Q 1263 -91 848 271 
Q 434 634 434 1313 
Q 434 1759 690 2068 
Q 947 2378 1403 2484 
z
M 1172 3481 
Q 1172 3119 1398 2916 
Q 1625 2713 2034 2713 
Q 2441 2713 2670 2916 
Q 2900 3119 2900 3481 
Q 2900 3844 2670 4047 
Q 2441 4250 2034 4250 
Q 1625 4250 1398 4047 
Q 1172 3844 1172 3481 
z
" transform="scale(0.015625)"/>
        <path id="DejaVuSans-34" d="M 2419 4116 
L 825 1625 
L 2419 1625 
L 2419 4116 
z
M 2253 4666 
L 3047 4666 
L 3047 1625 
L 3713 1625 
L 3713 1100 
L 3047 1100 
L 3047 0 
L 2419 0 
L 2419 1100 
L 313 1100 
L 313 1709 
L 2253 4666 
z
" transform="scale(0.015625)"/>
       </defs>
       <use xlink:href="#DejaVuSans-50"/>
       <use xlink:href="#DejaVuSans-2d" x="58.052734"/>
       <use xlink:href="#DejaVuSans-33" x="94.136719"/>
       <use xlink:href="#DejaVuSans-38" x="157.759766"/>
       <use xlink:href="#DejaVuSans-34" x="221.382812"/>
      </g>
     </g>
    </g>
    <g id="xtick_2">
     <g id="text_2">
      <!-- x448 -->
      <g style="fill: #262626" transform="translate(278.631625 415.277812) scale(0.14 -0.14)">
       <defs>
        <path id="DejaVuSans-78" d="M 3513 3500 
L 2247 1797 
L 3578 0 
L 2900 0 
L 1881 1375 
L 863 0 
L 184 0 
L 1544 1831 
L 300 3500 
L 978 3500 
L 1906 2253 
L 2834 3500 
L 3513 3500 
z
" transform="scale(0.015625)"/>
       </defs>
       <use xlink:href="#DejaVuSans-78"/>
       <use xlink:href="#DejaVuSans-34" x="59.179688"/>
       <use xlink:href="#DejaVuSans-34" x="122.802734"/>
       <use xlink:href="#DejaVuSans-38" x="186.425781"/>
      </g>
     </g>
    </g>
    <g id="xtick_3">
     <g id="text_3">
      <!-- p384_mlkem768 -->
      <g style="fill: #262626" transform="translate(396.325156 415.277812) scale(0.14 -0.14)">
       <defs>
        <path id="DejaVuSans-70" d="M 1159 525 
L 1159 -1331 
L 581 -1331 
L 581 3500 
L 1159 3500 
L 1159 2969 
Q 1341 3281 1617 3432 
Q 1894 3584 2278 3584 
Q 2916 3584 3314 3078 
Q 3713 2572 3713 1747 
Q 3713 922 3314 415 
Q 2916 -91 2278 -91 
Q 1894 -91 1617 61 
Q 1341 213 1159 525 
z
M 3116 1747 
Q 3116 2381 2855 2742 
Q 2594 3103 2138 3103 
Q 1681 3103 1420 2742 
Q 1159 2381 1159 1747 
Q 1159 1113 1420 752 
Q 1681 391 2138 391 
Q 2594 391 2855 752 
Q 3116 1113 3116 1747 
z
" transform="scale(0.015625)"/>
        <path id="DejaVuSans-5f" d="M 3263 -1063 
L 3263 -1509 
L -63 -1509 
L -63 -1063 
L 3263 -1063 
z
" transform="scale(0.015625)"/>
        <path id="DejaVuSans-6d" d="M 3328 2828 
Q 3544 3216 3844 3400 
Q 4144 3584 4550 3584 
Q 5097 3584 5394 3201 
Q 5691 2819 5691 2113 
L 5691 0 
L 5113 0 
L 5113 2094 
Q 5113 2597 4934 2840 
Q 4756 3084 4391 3084 
Q 3944 3084 3684 2787 
Q 3425 2491 3425 1978 
L 3425 0 
L 2847 0 
L 2847 2094 
Q 2847 2600 2669 2842 
Q 2491 3084 2119 3084 
Q 1678 3084 1418 2786 
Q 1159 2488 1159 1978 
L 1159 0 
L 581 0 
L 581 3500 
L 1159 3500 
L 1159 2956 
Q 1356 3278 1631 3431 
Q 1906 3584 2284 3584 
Q 2666 3584 2933 3390 
Q 3200 3197 3328 2828 
z
" transform="scale(0.015625)"/>
        <path id="DejaVuSans-6c" d="M 603 4863 
L 1178 4863 
L 1178 0 
L 603 0 
L 603 4863 
z
" transform="scale(0.015625)"/>
        <path id="DejaVuSans-6b" d="M 581 4863 
L 1159 4863 
L 1159 1991 
L 2875 3500 
L 3609 3500 
L 1753 1863 
L 3688 0 
L 2938 0 
L 1159 1709 
L 1159 0 
L 581 0 
L 581 4863 
z
" transform="scale(0.015625)"/>
        <path id="DejaVuSans-65" d="M 3597 1894 
L 3597 1613 
L 953 1613 
Q 991 1019 1311 708 
Q 1631 397 2203 397 
Q 2534 397 2845 478 
Q 3156 559 3463 722 
L 3463 178 
Q 3153 47 2828 -22 
Q 2503 -91 2169 -91 
Q 1331 -91 842 396 
Q 353 884 353 1716 
Q 353 2575 817 3079 
Q 1281 3584 2069 3584 
Q 2775 3584 3186 3129 
Q 3597 2675 3597 1894 
z
M 3022 2063 
Q 3016 2534 2758 2815 
Q 2500 3097 2075 3097 
Q 1594 3097 1305 2825 
Q 1016 2553 972 2059 
L 3022 2063 
z
" transform="scale(0.015625)"/>
        <path id="DejaVuSans-37" d="M 525 4666 
L 3525 4666 
L 3525 4397 
L 1831 0 
L 1172 0 
L 2766 4134 
L 525 4134 
L 525 4666 
z
" transform="scale(0.015625)"/>
        <path id="DejaVuSans-36" d="M 2113 2584 
Q 1688 2584 1439 2293 
Q 1191 2003 1191 1497 
Q 1191 994 1439 701 
Q 1688 409 2113 409 
Q 2538 409 2786 701 
Q 3034 994 3034 1497 
Q 3034 2003 2786 2293 
Q 2538 2584 2113 2584 
z
M 3366 4563 
L 3366 3988 
Q 3128 4100 2886 4159 
Q 2644 4219 2406 4219 
Q 1781 4219 1451 3797 
Q 1122 3375 1075 2522 
Q 1259 2794 1537 2939 
Q 1816 3084 2150 3084 
Q 2853 3084 3261 2657 
Q 3669 2231 3669 1497 
Q 3669 778 3244 343 
Q 2819 -91 2113 -91 
Q 1303 -91 875 529 
Q 447 1150 447 2328 
Q 447 3434 972 4092 
Q 1497 4750 2381 4750 
Q 2619 4750 2861 4703 
Q 3103 4656 3366 4563 
z
" transform="scale(0.015625)"/>
       </defs>
       <use xlink:href="#DejaVuSans-70"/>
       <use xlink:href="#DejaVuSans-33" x="63.476562"/>
       <use xlink:href="#DejaVuSans-38" x="127.099609"/>
       <use xlink:href="#DejaVuSans-34" x="190.722656"/>
       <use xlink:href="#DejaVuSans-5f" x="254.345703"/>
       <use xlink:href="#DejaVuSans-6d" x="304.345703"/>
       <use xlink:href="#DejaVuSans-6c" x="401.757812"/>
       <use xlink:href="#DejaVuSans-6b" x="429.541016"/>
       <use xlink:href="#DejaVuSans-65" x="483.826172"/>
       <use xlink:href="#DejaVuSans-6d" x="545.349609"/>
       <use xlink:href="#DejaVuSans-37" x="642.761719"/>
       <use xlink:href="#DejaVuSans-36" x="706.384766"/>
       <use xlink:href="#DejaVuSans-38" x="770.007812"/>
      </g>
     </g>
    </g>
    <g id="xtick_4">
     <g id="text_4">
      <!-- x448_mlkem768 -->
      <g style="fill: #262626" transform="translate(555.169937 415.277812) scale(0.14 -0.14)">
       <use xlink:href="#DejaVuSans-78"/>
       <use xlink:href="#DejaVuSans-34" x="59.179688"/>
       <use xlink:href="#DejaVuSans-34" x="122.802734"/>
       <use xlink:href="#DejaVuSans-38" x="186.425781"/>
       <use xlink:href="#DejaVuSans-5f" x="250.048828"/>
       <use xlink:href="#DejaVuSans-6d" x="300.048828"/>
       <use xlink:href="#DejaVuSans-6c" x="397.460938"/>
       <use xlink:href="#DejaVuSans-6b" x="425.244141"/>
       <use xlink:href="#DejaVuSans-65" x="479.529297"/>
       <use xlink:href="#DejaVuSans-6d" x="541.052734"/>
       <use xlink:href="#DejaVuSans-37" x="638.464844"/>
       <use xlink:href="#DejaVuSans-36" x="702.087891"/>
       <use xlink:href="#DejaVuSans-38" x="765.710938"/>
      </g>
     </g>
    </g>
    <g id="xtick_5">
     <g id="text_5">
      <!-- mlkem768 -->
      <g style="fill: #262626" transform="translate(734.718312 415.277812) scale(0.14 -0.14)">
       <use xlink:href="#DejaVuSans-6d"/>
       <use xlink:href="#DejaVuSans-6c" x="97.412109"/>
       <use xlink:href="#DejaVuSans-6b" x="125.195312"/>
       <use xlink:href="#DejaVuSans-65" x="179.480469"/>
       <use xlink:href="#DejaVuSans-6d" x="241.003906"/>
       <use xlink:href="#DejaVuSans-37" x="338.416016"/>
       <use xlink:href="#DejaVuSans-36" x="402.039062"/>
       <use xlink:href="#DejaVuSans-38" x="465.662109"/>
      </g>
     </g>
    </g>
   </g>
   <g id="matplotlib.axis_2">
    <g id="ytick_1">
     <g id="line2d_1">
      <path d="M 58.32 344.386727 
L 851.04 344.386727 
" clip-path="url(#p73c1138509)" style="fill: none; stroke: #cccccc; stroke-linecap: round"/>
     </g>
     <g id="text_6">
      <!-- 80 -->
      <g style="fill: #262626" transform="translate(34.8225 348.565868) scale(0.11 -0.11)">
       <defs>
        <path id="DejaVuSans-30" d="M 2034 4250 
Q 1547 4250 1301 3770 
Q 1056 3291 1056 2328 
Q 1056 1369 1301 889 
Q 1547 409 2034 409 
Q 2525 409 2770 889 
Q 3016 1369 3016 2328 
Q 3016 3291 2770 3770 
Q 2525 4250 2034 4250 
z
M 2034 4750 
Q 2819 4750 3233 4129 
Q 3647 3509 3647 2328 
Q 3647 1150 3233 529 
Q 2819 -91 2034 -91 
Q 1250 -91 836 529 
Q 422 1150 422 2328 
Q 422 3509 836 4129 
Q 1250 4750 2034 4750 
z
" transform="scale(0.015625)"/>
       </defs>
       <use xlink:href="#DejaVuSans-38"/>
       <use xlink:href="#DejaVuSans-30" x="63.623047"/>
      </g>
     </g>
    </g>
    <g id="ytick_2">
     <g id="line2d_2">
      <path d="M 58.32 268.274215 
L 851.04 268.274215 
" clip-path="url(#p73c1138509)" style="fill: none; stroke: #cccccc; stroke-linecap: round"/>
     </g>
     <g id="text_7">
      <!-- 100 -->
      <g style="fill: #262626" transform="translate(27.82375 272.453356) scale(0.11 -0.11)">
       <defs>
        <path id="DejaVuSans-31" d="M 794 531 
L 1825 531 
L 1825 4091 
L 703 3866 
L 703 4441 
L 1819 4666 
L 2450 4666 
L 2450 531 
L 3481 531 
L 3481 0 
L 794 0 
L 794 531 
z
" transform="scale(0.015625)"/>
       </defs>
       <use xlink:href="#DejaVuSans-31"/>
       <use xlink:href="#DejaVuSans-30" x="63.623047"/>
       <use xlink:href="#DejaVuSans-30" x="127.246094"/>
      </g>
     </g>
    </g>
    <g id="ytick_3">
     <g id="line2d_3">
      <path d="M 58.32 192.161704 
L 851.04 192.161704 
" clip-path="url(#p73c1138509)" style="fill: none; stroke: #cccccc; stroke-linecap: round"/>
     </g>
     <g id="text_8">
      <!-- 120 -->
      <g style="fill: #262626" transform="translate(27.82375 196.340844) scale(0.11 -0.11)">
       <defs>
        <path id="DejaVuSans-32" d="M 1228 531 
L 3431 531 
L 3431 0 
L 469 0 
L 469 531 
Q 828 903 1448 1529 
Q 2069 2156 2228 2338 
Q 2531 2678 2651 2914 
Q 2772 3150 2772 3378 
Q 2772 3750 2511 3984 
Q 2250 4219 1831 4219 
Q 1534 4219 1204 4116 
Q 875 4013 500 3803 
L 500 4441 
Q 881 4594 1212 4672 
Q 1544 4750 1819 4750 
Q 2544 4750 2975 4387 
Q 3406 4025 3406 3419 
Q 3406 3131 3298 2873 
Q 3191 2616 2906 2266 
Q 2828 2175 2409 1742 
Q 1991 1309 1228 531 
z
" transform="scale(0.015625)"/>
       </defs>
       <use xlink:href="#DejaVuSans-31"/>
       <use xlink:href="#DejaVuSans-32" x="63.623047"/>
       <use xlink:href="#DejaVuSans-30" x="127.246094"/>
      </g>
     </g>
    </g>
    <g id="ytick_4">
     <g id="line2d_4">
      <path d="M 58.32 116.049192 
L 851.04 116.049192 
" clip-path="url(#p73c1138509)" style="fill: none; stroke: #cccccc; stroke-linecap: round"/>
     </g>
     <g id="text_9">
      <!-- 140 -->
      <g style="fill: #262626" transform="translate(27.82375 120.228333) scale(0.11 -0.11)">
       <use xlink:href="#DejaVuSans-31"/>
       <use xlink:href="#DejaVuSans-34" x="63.623047"/>
       <use xlink:href="#DejaVuSans-30" x="127.246094"/>
      </g>
     </g>
    </g>
    <g id="ytick_5">
     <g id="line2d_5">
      <path d="M 58.32 39.93668 
L 851.04 39.93668 
" clip-path="url(#p73c1138509)" style="fill: none; stroke: #cccccc; stroke-linecap: round"/>
     </g>
     <g id="text_10">
      <!-- 160 -->
      <g style="fill: #262626" transform="translate(27.82375 44.115821) scale(0.11 -0.11)">
       <use xlink:href="#DejaVuSans-31"/>
       <use xlink:href="#DejaVuSans-36" x="63.623047"/>
       <use xlink:href="#DejaVuSans-30" x="127.246094"/>
      </g>
     </g>
    </g>
    <g id="text_11">
     <!-- Handshake duration (ms) -->
     <g style="fill: #262626" transform="translate(21.328125 287.437813) rotate(-90) scale(0.12 -0.12)">
      <defs>
       <path id="DejaVuSans-48" d="M 628 4666 
L 1259 4666 
L 1259 2753 
L 3553 2753 
L 3553 4666 
L 4184 4666 
L 4184 0 
L 3553 0 
L 3553 2222 
L 1259 2222 
L 1259 0 
L 628 0 
L 628 4666 
z
" transform="scale(0.015625)"/>
       <path id="DejaVuSans-61" d="M 2194 1759 
Q 1497 1759 1228 1600 
Q 959 1441 959 1056 
Q 959 750 1161 570 
Q 1363 391 1709 391 
Q 2188 391 2477 730 
Q 2766 1069 2766 1631 
L 2766 1759 
L 2194 1759 
z
M 3341 1997 
L 3341 0 
L 2766 0 
L 2766 531 
Q 2569 213 2275 61 
Q 1981 -91 1556 -91 
Q 1019 -91 701 211 
Q 384 513 384 1019 
Q 384 1609 779 1909 
Q 1175 2209 1959 2209 
L 2766 2209 
L 2766 2266 
Q 2766 2663 2505 2880 
Q 2244 3097 1772 3097 
Q 1472 3097 1187 3025 
Q 903 2953 641 2809 
L 641 3341 
Q 956 3463 1253 3523 
Q 1550 3584 1831 3584 
Q 2591 3584 2966 3190 
Q 3341 2797 3341 1997 
z
" transform="scale(0.015625)"/>
       <path id="DejaVuSans-6e" d="M 3513 2113 
L 3513 0 
L 2938 0 
L 2938 2094 
Q 2938 2591 2744 2837 
Q 2550 3084 2163 3084 
Q 1697 3084 1428 2787 
Q 1159 2491 1159 1978 
L 1159 0 
L 581 0 
L 581 3500 
L 1159 3500 
L 1159 2956 
Q 1366 3272 1645 3428 
Q 1925 3584 2291 3584 
Q 2894 3584 3203 3211 
Q 3513 2838 3513 2113 
z
" transform="scale(0.015625)"/>
       <path id="DejaVuSans-64" d="M 2906 2969 
L 2906 4863 
L 3481 4863 
L 3481 0 
L 2906 0 
L 2906 525 
Q 2725 213 2448 61 
Q 2172 -91 1784 -91 
Q 1150 -91 751 415 
Q 353 922 353 1747 
Q 353 2572 751 3078 
Q 1150 3584 1784 3584 
Q 2172 3584 2448 3432 
Q 2725 3281 2906 2969 
z
M 947 1747 
Q 947 1113 1208 752 
Q 1469 391 1925 391 
Q 2381 391 2643 752 
Q 2906 1113 2906 1747 
Q 2906 2381 2643 2742 
Q 2381 3103 1925 3103 
Q 1469 3103 1208 2742 
Q 947 2381 947 1747 
z
" transform="scale(0.015625)"/>
       <path id="DejaVuSans-73" d="M 2834 3397 
L 2834 2853 
Q 2591 2978 2328 3040 
Q 2066 3103 1784 3103 
Q 1356 3103 1142 2972 
Q 928 2841 928 2578 
Q 928 2378 1081 2264 
Q 1234 2150 1697 2047 
L 1894 2003 
Q 2506 1872 2764 1633 
Q 3022 1394 3022 966 
Q 3022 478 2636 193 
Q 2250 -91 1575 -91 
Q 1294 -91 989 -36 
Q 684 19 347 128 
L 347 722 
Q 666 556 975 473 
Q 1284 391 1588 391 
Q 1994 391 2212 530 
Q 2431 669 2431 922 
Q 2431 1156 2273 1281 
Q 2116 1406 1581 1522 
L 1381 1569 
Q 847 1681 609 1914 
Q 372 2147 372 2553 
Q 372 3047 722 3315 
Q 1072 3584 1716 3584 
Q 2034 3584 2315 3537 
Q 2597 3491 2834 3397 
z
" transform="scale(0.015625)"/>
       <path id="DejaVuSans-68" d="M 3513 2113 
L 3513 0 
L 2938 0 
L 2938 2094 
Q 2938 2591 2744 2837 
Q 2550 3084 2163 3084 
Q 1697 3084 1428 2787 
Q 1159 2491 1159 1978 
L 1159 0 
L 581 0 
L 581 4863 
L 1159 4863 
L 1159 2956 
Q 1366 3272 1645 3428 
Q 1925 3584 2291 3584 
Q 2894 3584 3203 3211 
Q 3513 2838 3513 2113 
z
" transform="scale(0.015625)"/>
       <path id="DejaVuSans-20" transform="scale(0.015625)"/>
       <path id="DejaVuSans-75" d="M 544 1381 
L 544 3500 
L 1119 3500 
L 1119 1403 
Q 1119 906 1312 657 
Q 1506 409 1894 409 
Q 2359 409 2629 706 
Q 2900 1003 2900 1516 
L 2900 3500 
L 3475 3500 
L 3475 0 
L 2900 0 
L 2900 538 
Q 2691 219 2414 64 
Q 2138 -91 1772 -91 
Q 1169 -91 856 284 
Q 544 659 544 1381 
z
M 1991 3584 
L 1991 3584 
z
" transform="scale(0.015625)"/>
       <path id="DejaVuSans-72" d="M 2631 2963 
Q 2534 3019 2420 3045 
Q 2306 3072 2169 3072 
Q 1681 3072 1420 2755 
Q 1159 2438 1159 1844 
L 1159 0 
L 581 0 
L 581 3500 
L 1159 3500 
L 1159 2956 
Q 1341 3275 1631 3429 
Q 1922 3584 2338 3584 
Q 2397 3584 2469 3576 
Q 2541 3569 2628 3553 
L 2631 2963 
z
" transform="scale(0.015625)"/>
       <path id="DejaVuSans-74" d="M 1172 4494 
L 1172 3500 
L 2356 3500 
L 2356 3053 
L 1172 3053 
L 1172 1153 
Q 1172 725 1289 603 
Q 1406 481 1766 481 
L 2356 481 
L 2356 0 
L 1766 0 
Q 1100 0 847 248 
Q 594 497 594 1153 
L 594 3053 
L 172 3053 
L 172 3500 
L 594 3500 
L 594 4494 
L 1172 4494 
z
" transform="scale(0.015625)"/>
       <path id="DejaVuSans-69" d="M 603 3500 
L 1178 3500 
L 1178 0 
L 603 0 
L 603 3500 
z
M 603 4863 
L 1178 4863 
L 1178 4134 
L 603 4134 
L 603 4863 
z
" transform="scale(0.015625)"/>
       <path id="DejaVuSans-6f" d="M 1959 3097 
Q 1497 3097 1228 2736 
Q 959 2375 959 1747 
Q 959 1119 1226 758 
Q 1494 397 1959 397 
Q 2419 397 2687 759 
Q 2956 1122 2956 1747 
Q 2956 2369 2687 2733 
Q 2419 3097 1959 3097 
z
M 1959 3584 
Q 2709 3584 3137 3096 
Q 3566 2609 3566 1747 
Q 3566 888 3137 398 
Q 2709 -91 1959 -91 
Q 1206 -91 779 398 
Q 353 888 353 1747 
Q 353 2609 779 3096 
Q 1206 3584 1959 3584 
z
" transform="scale(0.015625)"/>
       <path id="DejaVuSans-28" d="M 1984 4856 
Q 1566 4138 1362 3434 
Q 1159 2731 1159 2009 
Q 1159 1288 1364 580 
Q 1569 -128 1984 -844 
L 1484 -844 
Q 1016 -109 783 600 
Q 550 1309 550 2009 
Q 550 2706 781 3412 
Q 1013 4119 1484 4856 
L 1984 4856 
z
" transform="scale(0.015625)"/>
       <path id="DejaVuSans-29" d="M 513 4856 
L 1013 4856 
Q 1481 4119 1714 3412 
Q 1947 2706 1947 2009 
Q 1947 1309 1714 600 
Q 1481 -109 1013 -844 
L 513 -844 
Q 928 -128 1133 580 
Q 1338 1288 1338 2009 
Q 1338 2731 1133 3434 
Q 928 4138 513 4856 
z
" transform="scale(0.015625)"/>
      </defs>
      <use xlink:href="#DejaVuSans-48"/>
      <use xlink:href="#DejaVuSans-61" x="75.195312"/>
      <use xlink:href="#DejaVuSans-6e" x="136.474609"/>
      <use xlink:href="#DejaVuSans-64" x="199.853516"/>
      <use xlink:href="#DejaVuSans-73" x="263.330078"/>
      <use xlink:href="#DejaVuSans-68" x="315.429688"/>
      <use xlink:href="#DejaVuSans-61" x="378.808594"/>
      <use xlink:href="#DejaVuSans-6b" x="440.087891"/>
      <use xlink:href="#DejaVuSans-65" x="494.373047"/>
      <use xlink:href="#DejaVuSans-20" x="555.896484"/>
      <use xlink:href="#DejaVuSans-64" x="587.683594"/>
      <use xlink:href="#DejaVuSans-75" x="651.160156"/>
      <use xlink:href="#DejaVuSans-72" x="714.539062"/>
      <use xlink:href="#DejaVuSans-61" x="755.652344"/>
      <use xlink:href="#DejaVuSans-74" x="816.931641"/>
      <use xlink:href="#DejaVuSans-69" x="856.140625"/>
      <use xlink:href="#DejaVuSans-6f" x="883.923828"/>
      <use xlink:href="#DejaVuSans-6e" x="945.105469"/>
      <use xlink:href="#DejaVuSans-20" x="1008.484375"/>
      <use xlink:href="#DejaVuSans-28" x="1040.271484"/>
      <use xlink:href="#DejaVuSans-6d" x="1079.285156"/>
      <use xlink:href="#DejaVuSans-73" x="1176.697266"/>
      <use xlink:href="#DejaVuSans-29" x="1228.796875"/>
     </g>
    </g>
   </g>
   <g id="PolyCollection_1">
    <defs>
     <path id="m47ce5cae65" d="M 143.630374 -61.464775 
L 131.553626 -61.464775 
L 114.13164 -64.335986 
L 86.390337 -67.207197 
L 74.1744 -70.078408 
L 91.12871 -72.949619 
L 113.958246 -75.820829 
L 125.430592 -78.69204 
L 130.088341 -81.563251 
L 133.404407 -84.434462 
L 135.910783 -87.305673 
L 137.153914 -90.176884 
L 137.52062 -93.048095 
L 137.584754 -95.919305 
L 137.591541 -98.790516 
L 137.591982 -101.661727 
L 137.592 -104.532938 
L 137.592 -107.404149 
L 137.592 -110.27536 
L 137.592 -113.146571 
L 137.592 -116.017781 
L 137.592 -118.888992 
L 137.592 -121.760203 
L 137.592 -124.631414 
L 137.592 -127.502625 
L 137.592 -130.373836 
L 137.592 -133.245047 
L 137.592 -136.116257 
L 137.592 -138.987468 
L 137.592 -141.858679 
L 137.592 -144.72989 
L 137.592 -147.601101 
L 137.592 -150.472312 
L 137.592 -153.343523 
L 137.592 -156.214733 
L 137.592 -159.085944 
L 137.592 -161.957155 
L 137.592 -164.828366 
L 137.592 -167.699577 
L 137.592 -170.570788 
L 137.592 -173.441999 
L 137.592 -176.313209 
L 137.592 -179.18442 
L 137.592 -182.055631 
L 137.592 -184.926842 
L 137.592 -187.798053 
L 137.592 -190.669264 
L 137.592 -193.540475 
L 137.592 -196.411685 
L 137.592 -199.282896 
L 137.592 -202.154107 
L 137.592 -205.025318 
L 137.592 -207.896529 
L 137.592 -210.76774 
L 137.592 -213.638951 
L 137.592 -216.510161 
L 137.592 -219.381372 
L 137.592 -222.252583 
L 137.592 -225.123794 
L 137.592 -227.995005 
L 137.592 -230.866216 
L 137.592 -233.737427 
L 137.592 -236.608637 
L 137.592 -239.479848 
L 137.592 -242.351059 
L 137.592 -245.22227 
L 137.592 -248.093481 
L 137.592 -250.964692 
L 137.592 -253.835903 
L 137.592 -256.707113 
L 137.592 -259.578324 
L 137.592 -262.449535 
L 137.592 -265.320746 
L 137.592 -268.191957 
L 137.592 -271.063168 
L 137.592 -273.934379 
L 137.592 -276.805589 
L 137.592 -279.6768 
L 137.592 -282.548011 
L 137.592 -285.419222 
L 137.592 -288.290433 
L 137.592 -291.161644 
L 137.592 -294.032855 
L 137.592 -296.904065 
L 137.592 -299.775276 
L 137.592 -302.646487 
L 137.592 -305.517698 
L 137.592 -308.388909 
L 137.592 -311.26012 
L 137.592 -314.131331 
L 137.592 -317.002541 
L 137.591999 -319.873752 
L 137.59197 -322.744963 
L 137.59147 -325.616174 
L 137.586824 -328.487385 
L 137.563882 -331.358596 
L 137.507 -334.229807 
L 137.449004 -337.101017 
L 137.458125 -339.972228 
L 137.522251 -342.843439 
L 137.571777 -345.71465 
L 137.612223 -345.71465 
L 137.612223 -345.71465 
L 137.661749 -342.843439 
L 137.725875 -339.972228 
L 137.734996 -337.101017 
L 137.677 -334.229807 
L 137.620118 -331.358596 
L 137.597176 -328.487385 
L 137.59253 -325.616174 
L 137.59203 -322.744963 
L 137.592001 -319.873752 
L 137.592 -317.002541 
L 137.592 -314.131331 
L 137.592 -311.26012 
L 137.592 -308.388909 
L 137.592 -305.517698 
L 137.592 -302.646487 
L 137.592 -299.775276 
L 137.592 -296.904065 
L 137.592 -294.032855 
L 137.592 -291.161644 
L 137.592 -288.290433 
L 137.592 -285.419222 
L 137.592 -282.548011 
L 137.592 -279.6768 
L 137.592 -276.805589 
L 137.592 -273.934379 
L 137.592 -271.063168 
L 137.592 -268.191957 
L 137.592 -265.320746 
L 137.592 -262.449535 
L 137.592 -259.578324 
L 137.592 -256.707113 
L 137.592 -253.835903 
L 137.592 -250.964692 
L 137.592 -248.093481 
L 137.592 -245.22227 
L 137.592 -242.351059 
L 137.592 -239.479848 
L 137.592 -236.608637 
L 137.592 -233.737427 
L 137.592 -230.866216 
L 137.592 -227.995005 
L 137.592 -225.123794 
L 137.592 -222.252583 
L 137.592 -219.381372 
L 137.592 -216.510161 
L 137.592 -213.638951 
L 137.592 -210.76774 
L 137.592 -207.896529 
L 137.592 -205.025318 
L 137.592 -202.154107 
L 137.592 -199.282896 
L 137.592 -196.411685 
L 137.592 -193.540475 
L 137.592 -190.669264 
L 137.592 -187.798053 
L 137.592 -184.926842 
L 137.592 -182.055631 
L 137.592 -179.18442 
L 137.592 -176.313209 
L 137.592 -173.441999 
L 137.592 -170.570788 
L 137.592 -167.699577 
L 137.592 -164.828366 
L 137.592 -161.957155 
L 137.592 -159.085944 
L 137.592 -156.214733 
L 137.592 -153.343523 
L 137.592 -150.472312 
L 137.592 -147.601101 
L 137.592 -144.72989 
L 137.592 -141.858679 
L 137.592 -138.987468 
L 137.592 -136.116257 
L 137.592 -133.245047 
L 137.592 -130.373836 
L 137.592 -127.502625 
L 137.592 -124.631414 
L 137.592 -121.760203 
L 137.592 -118.888992 
L 137.592 -116.017781 
L 137.592 -113.146571 
L 137.592 -110.27536 
L 137.592 -107.404149 
L 137.592 -104.532938 
L 137.592018 -101.661727 
L 137.592459 -98.790516 
L 137.599246 -95.919305 
L 137.66338 -93.048095 
L 138.030086 -90.176884 
L 139.273217 -87.305673 
L 141.779593 -84.434462 
L 145.095659 -81.563251 
L 149.753408 -78.69204 
L 161.225754 -75.820829 
L 184.05529 -72.949619 
L 201.0096 -70.078408 
L 188.793663 -67.207197 
L 161.05236 -64.335986 
L 143.630374 -61.464775 
z
" style="stroke: #595959; stroke-width: 1.25"/>
    </defs>
    <g clip-path="url(#p73c1138509)">
     <use xlink:href="#m47ce5cae65" x="0" y="432" style="fill: #72b6a1; stroke: #595959; stroke-width: 1.25"/>
    </g>
   </g>
   <g id="PolyCollection_2">
    <defs>
     <path id="m0780c3105c" d="M 301.833988 -56.354235 
L 290.438012 -56.354235 
L 273.506346 -59.218749 
L 245.958156 -62.083263 
L 232.7184 -64.947777 
L 247.438398 -67.81229 
L 269.415123 -70.676804 
L 283.304671 -73.541318 
L 290.900556 -76.405832 
L 294.639635 -79.270346 
L 295.869312 -82.134859 
L 296.107533 -84.999373 
L 296.134201 -87.863887 
L 296.135933 -90.728401 
L 296.135999 -93.592915 
L 296.136 -96.457428 
L 296.136 -99.321942 
L 296.136 -102.186456 
L 296.136 -105.05097 
L 296.136 -107.915484 
L 296.136 -110.779997 
L 296.136 -113.644511 
L 296.136 -116.509025 
L 296.136 -119.373539 
L 296.136 -122.238052 
L 296.136 -125.102566 
L 296.136 -127.96708 
L 296.136 -130.831594 
L 296.136 -133.696108 
L 296.136 -136.560621 
L 296.136 -139.425135 
L 296.136 -142.289649 
L 296.136 -145.154163 
L 296.136 -148.018677 
L 296.136 -150.88319 
L 296.136 -153.747704 
L 296.136 -156.612218 
L 296.136 -159.476732 
L 296.136 -162.341246 
L 296.136 -165.205759 
L 296.136 -168.070273 
L 296.136 -170.934787 
L 296.136 -173.799301 
L 296.136 -176.663815 
L 296.136 -179.528328 
L 296.136 -182.392842 
L 296.136 -185.257356 
L 296.136 -188.12187 
L 296.136 -190.986383 
L 296.136 -193.850897 
L 296.136 -196.715411 
L 296.136 -199.579925 
L 296.136 -202.444439 
L 296.136 -205.308952 
L 296.136 -208.173466 
L 296.136 -211.03798 
L 296.136 -213.902494 
L 296.136 -216.767008 
L 296.136 -219.631521 
L 296.136 -222.496035 
L 296.136 -225.360549 
L 296.136 -228.225063 
L 296.136 -231.089577 
L 296.136 -233.95409 
L 296.136 -236.818604 
L 296.136 -239.683118 
L 296.136 -242.547632 
L 296.136 -245.412146 
L 296.136 -248.276659 
L 296.136 -251.141173 
L 296.136 -254.005687 
L 296.136 -256.870201 
L 296.136 -259.734715 
L 296.136 -262.599228 
L 296.136 -265.463742 
L 296.136 -268.328256 
L 296.136 -271.19277 
L 296.136 -274.057283 
L 296.136 -276.921797 
L 296.136 -279.786311 
L 296.136 -282.650825 
L 296.136 -285.515339 
L 296.136 -288.379852 
L 296.136 -291.244366 
L 296.136 -294.10888 
L 296.136 -296.973394 
L 296.136 -299.837908 
L 296.136 -302.702421 
L 296.136 -305.566935 
L 296.136 -308.431449 
L 296.136 -311.295963 
L 296.135999 -314.160477 
L 296.135977 -317.02499 
L 296.135568 -319.889504 
L 296.131477 -322.754018 
L 296.10998 -325.618532 
L 296.053827 -328.483046 
L 295.993541 -331.347559 
L 296.000423 -334.212073 
L 296.065169 -337.076587 
L 296.115686 -339.941101 
L 296.156314 -339.941101 
L 296.156314 -339.941101 
L 296.206831 -337.076587 
L 296.271577 -334.212073 
L 296.278459 -331.347559 
L 296.218173 -328.483046 
L 296.16202 -325.618532 
L 296.140523 -322.754018 
L 296.136432 -319.889504 
L 296.136023 -317.02499 
L 296.136001 -314.160477 
L 296.136 -311.295963 
L 296.136 -308.431449 
L 296.136 -305.566935 
L 296.136 -302.702421 
L 296.136 -299.837908 
L 296.136 -296.973394 
L 296.136 -294.10888 
L 296.136 -291.244366 
L 296.136 -288.379852 
L 296.136 -285.515339 
L 296.136 -282.650825 
L 296.136 -279.786311 
L 296.136 -276.921797 
L 296.136 -274.057283 
L 296.136 -271.19277 
L 296.136 -268.328256 
L 296.136 -265.463742 
L 296.136 -262.599228 
L 296.136 -259.734715 
L 296.136 -256.870201 
L 296.136 -254.005687 
L 296.136 -251.141173 
L 296.136 -248.276659 
L 296.136 -245.412146 
L 296.136 -242.547632 
L 296.136 -239.683118 
L 296.136 -236.818604 
L 296.136 -233.95409 
L 296.136 -231.089577 
L 296.136 -228.225063 
L 296.136 -225.360549 
L 296.136 -222.496035 
L 296.136 -219.631521 
L 296.136 -216.767008 
L 296.136 -213.902494 
L 296.136 -211.03798 
L 296.136 -208.173466 
L 296.136 -205.308952 
L 296.136 -202.444439 
L 296.136 -199.579925 
L 296.136 -196.715411 
L 296.136 -193.850897 
L 296.136 -190.986383 
L 296.136 -188.12187 
L 296.136 -185.257356 
L 296.136 -182.392842 
L 296.136 -179.528328 
L 296.136 -176.663815 
L 296.136 -173.799301 
L 296.136 -170.934787 
L 296.136 -168.070273 
L 296.136 -165.205759 
L 296.136 -162.341246 
L 296.136 -159.476732 
L 296.136 -156.612218 
L 296.136 -153.747704 
L 296.136 -150.88319 
L 296.136 -148.018677 
L 296.136 -145.154163 
L 296.136 -142.289649 
L 296.136 -139.425135 
L 296.136 -136.560621 
L 296.136 -133.696108 
L 296.136 -130.831594 
L 296.136 -127.96708 
L 296.136 -125.102566 
L 296.136 -122.238052 
L 296.136 -119.373539 
L 296.136 -116.509025 
L 296.136 -113.644511 
L 296.136 -110.779997 
L 296.136 -107.915484 
L 296.136 -105.05097 
L 296.136 -102.186456 
L 296.136 -99.321942 
L 296.136 -96.457428 
L 296.136001 -93.592915 
L 296.136067 -90.728401 
L 296.137799 -87.863887 
L 296.164467 -84.999373 
L 296.402688 -82.134859 
L 297.632365 -79.270346 
L 301.371444 -76.405832 
L 308.967329 -73.541318 
L 322.856877 -70.676804 
L 344.833602 -67.81229 
L 359.5536 -64.947777 
L 346.313844 -62.083263 
L 318.765654 -59.218749 
L 301.833988 -56.354235 
z
" style="stroke: #595959; stroke-width: 1.25"/>
    </defs>
    <g clip-path="url(#p73c1138509)">
     <use xlink:href="#m0780c3105c" x="0" y="432" style="fill: #e99675; stroke: #595959; stroke-width: 1.25"/>
    </g>
   </g>
   <g id="PolyCollection_3">
    <defs>
     <path id="m7b1274b3ff" d="M 460.11772 -85.361168 
L 449.24228 -85.361168 
L 435.966465 -88.415031 
L 412.29881 -91.468894 
L 391.2624 -94.522758 
L 391.509083 -97.576621 
L 412.126553 -100.630484 
L 434.52026 -103.684348 
L 447.042989 -106.738211 
L 450.82641 -109.792074 
L 449.621249 -112.845938 
L 445.835828 -115.899801 
L 442.846123 -118.953664 
L 443.760865 -122.007528 
L 447.639087 -125.061391 
L 451.237302 -128.115254 
L 453.192926 -131.169117 
L 454.019608 -134.222981 
L 454.366363 -137.276844 
L 454.53577 -140.330707 
L 454.625775 -143.384571 
L 454.66533 -146.438434 
L 454.677314 -149.492297 
L 454.679675 -152.546161 
L 454.679974 -155.600024 
L 454.679999 -158.653887 
L 454.68 -161.707751 
L 454.68 -164.761614 
L 454.68 -167.815477 
L 454.68 -170.869341 
L 454.68 -173.923204 
L 454.68 -176.977067 
L 454.68 -180.030931 
L 454.68 -183.084794 
L 454.68 -186.138657 
L 454.68 -189.192521 
L 454.68 -192.246384 
L 454.68 -195.300247 
L 454.68 -198.354111 
L 454.68 -201.407974 
L 454.68 -204.461837 
L 454.68 -207.5157 
L 454.68 -210.569564 
L 454.68 -213.623427 
L 454.68 -216.67729 
L 454.68 -219.731154 
L 454.68 -222.785017 
L 454.68 -225.83888 
L 454.68 -228.892744 
L 454.68 -231.946607 
L 454.68 -235.00047 
L 454.68 -238.054334 
L 454.68 -241.108197 
L 454.68 -244.16206 
L 454.68 -247.215924 
L 454.68 -250.269787 
L 454.68 -253.32365 
L 454.68 -256.377514 
L 454.68 -259.431377 
L 454.68 -262.48524 
L 454.68 -265.539104 
L 454.68 -268.592967 
L 454.68 -271.64683 
L 454.68 -274.700694 
L 454.68 -277.754557 
L 454.68 -280.80842 
L 454.68 -283.862283 
L 454.68 -286.916147 
L 454.68 -289.97001 
L 454.68 -293.023873 
L 454.68 -296.077737 
L 454.68 -299.1316 
L 454.68 -302.185463 
L 454.68 -305.239327 
L 454.68 -308.29319 
L 454.68 -311.347053 
L 454.68 -314.400917 
L 454.68 -317.45478 
L 454.68 -320.508643 
L 454.68 -323.562507 
L 454.68 -326.61637 
L 454.68 -329.670233 
L 454.68 -332.724097 
L 454.68 -335.77796 
L 454.68 -338.831823 
L 454.68 -341.885687 
L 454.68 -344.93955 
L 454.68 -347.993413 
L 454.68 -351.047277 
L 454.68 -354.10114 
L 454.679994 -357.155003 
L 454.679912 -360.208866 
L 454.67909 -363.26273 
L 454.673888 -366.316593 
L 454.653258 -369.370456 
L 454.603769 -372.42432 
L 454.53843 -375.478183 
L 454.508715 -378.532046 
L 454.544987 -381.58591 
L 454.610667 -384.639773 
L 454.656804 -387.693636 
L 454.703196 -387.693636 
L 454.703196 -387.693636 
L 454.749333 -384.639773 
L 454.815013 -381.58591 
L 454.851285 -378.532046 
L 454.82157 -375.478183 
L 454.756231 -372.42432 
L 454.706742 -369.370456 
L 454.686112 -366.316593 
L 454.68091 -363.26273 
L 454.680088 -360.208866 
L 454.680006 -357.155003 
L 454.68 -354.10114 
L 454.68 -351.047277 
L 454.68 -347.993413 
L 454.68 -344.93955 
L 454.68 -341.885687 
L 454.68 -338.831823 
L 454.68 -335.77796 
L 454.68 -332.724097 
L 454.68 -329.670233 
L 454.68 -326.61637 
L 454.68 -323.562507 
L 454.68 -320.508643 
L 454.68 -317.45478 
L 454.68 -314.400917 
L 454.68 -311.347053 
L 454.68 -308.29319 
L 454.68 -305.239327 
L 454.68 -302.185463 
L 454.68 -299.1316 
L 454.68 -296.077737 
L 454.68 -293.023873 
L 454.68 -289.97001 
L 454.68 -286.916147 
L 454.68 -283.862283 
L 454.68 -280.80842 
L 454.68 -277.754557 
L 454.68 -274.700694 
L 454.68 -271.64683 
L 454.68 -268.592967 
L 454.68 -265.539104 
L 454.68 -262.48524 
L 454.68 -259.431377 
L 454.68 -256.377514 
L 454.68 -253.32365 
L 454.68 -250.269787 
L 454.68 -247.215924 
L 454.68 -244.16206 
L 454.68 -241.108197 
L 454.68 -238.054334 
L 454.68 -235.00047 
L 454.68 -231.946607 
L 454.68 -228.892744 
L 454.68 -225.83888 
L 454.68 -222.785017 
L 454.68 -219.731154 
L 454.68 -216.67729 
L 454.68 -213.623427 
L 454.68 -210.569564 
L 454.68 -207.5157 
L 454.68 -204.461837 
L 454.68 -201.407974 
L 454.68 -198.354111 
L 454.68 -195.300247 
L 454.68 -192.246384 
L 454.68 -189.192521 
L 454.68 -186.138657 
L 454.68 -183.084794 
L 454.68 -180.030931 
L 454.68 -176.977067 
L 454.68 -173.923204 
L 454.68 -170.869341 
L 454.68 -167.815477 
L 454.68 -164.761614 
L 454.68 -161.707751 
L 454.680001 -158.653887 
L 454.680026 -155.600024 
L 454.680325 -152.546161 
L 454.682686 -149.492297 
L 454.69467 -146.438434 
L 454.734225 -143.384571 
L 454.82423 -140.330707 
L 454.993637 -137.276844 
L 455.340392 -134.222981 
L 456.167074 -131.169117 
L 458.122698 -128.115254 
L 461.720913 -125.061391 
L 465.599135 -122.007528 
L 466.513877 -118.953664 
L 463.524172 -115.899801 
L 459.738751 -112.845938 
L 458.53359 -109.792074 
L 462.317011 -106.738211 
L 474.83974 -103.684348 
L 497.233447 -100.630484 
L 517.850917 -97.576621 
L 518.0976 -94.522758 
L 497.06119 -91.468894 
L 473.393535 -88.415031 
L 460.11772 -85.361168 
z
" style="stroke: #595959; stroke-width: 1.25"/>
    </defs>
    <g clip-path="url(#p73c1138509)">
     <use xlink:href="#m7b1274b3ff" x="0" y="432" style="fill: #95a3c3; stroke: #595959; stroke-width: 1.25"/>
    </g>
   </g>
   <g id="PolyCollection_4">
    <defs>
     <path id="m873bf1165b" d="M 615.307215 -68.754302 
L 611.140785 -68.754302 
L 609.621117 -68.994599 
L 607.290046 -69.234895 
L 603.915063 -69.475192 
L 599.311123 -69.715488 
L 593.408194 -69.955785 
L 586.319596 -70.196081 
L 578.388889 -70.436378 
L 570.192078 -70.676674 
L 562.480463 -70.916971 
L 556.066668 -71.157267 
L 551.676749 -71.397564 
L 549.8064 -71.63786 
L 550.62171 -71.878156 
L 553.932624 -72.118453 
L 559.244449 -72.358749 
L 565.868908 -72.599046 
L 573.060531 -72.839342 
L 580.141907 -73.079639 
L 586.591126 -73.319935 
L 592.08089 -73.560232 
L 596.47396 -73.800528 
L 599.788926 -74.040825 
L 602.152502 -74.281121 
L 603.751417 -74.521418 
L 604.791756 -74.761714 
L 605.468832 -75.002011 
L 605.947643 -75.242307 
L 606.352623 -75.482604 
L 606.765051 -75.7229 
L 607.226418 -75.963197 
L 607.745937 -76.203493 
L 608.310257 -76.44379 
L 608.893369 -76.684086 
L 609.464975 -76.924383 
L 609.996085 -77.164679 
L 610.461342 -77.404976 
L 610.838432 -77.645272 
L 611.105674 -77.885568 
L 611.23949 -78.125865 
L 611.213617 -78.366161 
L 611.001561 -78.606458 
L 610.582861 -78.846754 
L 609.95225 -79.087051 
L 609.129363 -79.327347 
L 608.165526 -79.567644 
L 607.144212 -79.80794 
L 606.173033 -80.048237 
L 605.367688 -80.288533 
L 604.831097 -80.52883 
L 604.633095 -80.769126 
L 604.796368 -81.009423 
L 605.292666 -81.249719 
L 606.050147 -81.490016 
L 606.969354 -81.730312 
L 607.943083 -81.970609 
L 608.874928 -82.210905 
L 609.692584 -82.451202 
L 610.35413 -82.691498 
L 610.847653 -82.931795 
L 611.185963 -83.172091 
L 611.39864 -83.412388 
L 611.523444 -83.652684 
L 611.598598 -83.89298 
L 611.656903 -84.133277 
L 611.722115 -84.373573 
L 611.807636 -84.61387 
L 611.91722 -84.854166 
L 612.047099 -85.094463 
L 612.188852 -85.334759 
L 612.332309 -85.575056 
L 612.467985 -85.815352 
L 612.588724 -86.055649 
L 612.6905 -86.295945 
L 612.772441 -86.536242 
L 612.836241 -86.776538 
L 612.885183 -87.016835 
L 612.922987 -87.257131 
L 612.95274 -87.497428 
L 612.976162 -87.737724 
L 612.99336 -87.978021 
L 613.00315 -88.218317 
L 613.003851 -88.458614 
L 612.994296 -88.69891 
L 612.974772 -88.939207 
L 612.947567 -89.179503 
L 612.916934 -89.4198 
L 612.888443 -89.660096 
L 612.867878 -89.900392 
L 612.859986 -90.140689 
L 612.867429 -90.380985 
L 612.890261 -90.621282 
L 612.926028 -90.861578 
L 612.970468 -91.101875 
L 613.018534 -91.342171 
L 613.065456 -91.582468 
L 613.107542 -91.822764 
L 613.14258 -92.063061 
L 613.169826 -92.303357 
L 613.1897 -92.543654 
L 613.2583 -92.543654 
L 613.2583 -92.543654 
L 613.278174 -92.303357 
L 613.30542 -92.063061 
L 613.340458 -91.822764 
L 613.382544 -91.582468 
L 613.429466 -91.342171 
L 613.477532 -91.101875 
L 613.521972 -90.861578 
L 613.557739 -90.621282 
L 613.580571 -90.380985 
L 613.588014 -90.140689 
L 613.580122 -89.900392 
L 613.559557 -89.660096 
L 613.531066 -89.4198 
L 613.500433 -89.179503 
L 613.473228 -88.939207 
L 613.453704 -88.69891 
L 613.444149 -88.458614 
L 613.44485 -88.218317 
L 613.45464 -87.978021 
L 613.471838 -87.737724 
L 613.49526 -87.497428 
L 613.525013 -87.257131 
L 613.562817 -87.016835 
L 613.611759 -86.776538 
L 613.675559 -86.536242 
L 613.7575 -86.295945 
L 613.859276 -86.055649 
L 613.980015 -85.815352 
L 614.115691 -85.575056 
L 614.259148 -85.334759 
L 614.400901 -85.094463 
L 614.53078 -84.854166 
L 614.640364 -84.61387 
L 614.725885 -84.373573 
L 614.791097 -84.133277 
L 614.849402 -83.89298 
L 614.924556 -83.652684 
L 615.04936 -83.412388 
L 615.262037 -83.172091 
L 615.600347 -82.931795 
L 616.09387 -82.691498 
L 616.755416 -82.451202 
L 617.573072 -82.210905 
L 618.504917 -81.970609 
L 619.478646 -81.730312 
L 620.397853 -81.490016 
L 621.155334 -81.249719 
L 621.651632 -81.009423 
L 621.814905 -80.769126 
L 621.616903 -80.52883 
L 621.080312 -80.288533 
L 620.274967 -80.048237 
L 619.303788 -79.80794 
L 618.282474 -79.567644 
L 617.318637 -79.327347 
L 616.49575 -79.087051 
L 615.865139 -78.846754 
L 615.446439 -78.606458 
L 615.234383 -78.366161 
L 615.20851 -78.125865 
L 615.342326 -77.885568 
L 615.609568 -77.645272 
L 615.986658 -77.404976 
L 616.451915 -77.164679 
L 616.983025 -76.924383 
L 617.554631 -76.684086 
L 618.137743 -76.44379 
L 618.702063 -76.203493 
L 619.221582 -75.963197 
L 619.682949 -75.7229 
L 620.095377 -75.482604 
L 620.500357 -75.242307 
L 620.979168 -75.002011 
L 621.656244 -74.761714 
L 622.696583 -74.521418 
L 624.295498 -74.281121 
L 626.659074 -74.040825 
L 629.97404 -73.800528 
L 634.36711 -73.560232 
L 639.856874 -73.319935 
L 646.306093 -73.079639 
L 653.387469 -72.839342 
L 660.579092 -72.599046 
L 667.203551 -72.358749 
L 672.515376 -72.118453 
L 675.82629 -71.878156 
L 676.6416 -71.63786 
L 674.771251 -71.397564 
L 670.381332 -71.157267 
L 663.967537 -70.916971 
L 656.255922 -70.676674 
L 648.059111 -70.436378 
L 640.128404 -70.196081 
L 633.039806 -69.955785 
L 627.136877 -69.715488 
L 622.532937 -69.475192 
L 619.157954 -69.234895 
L 616.826883 -68.994599 
L 615.307215 -68.754302 
z
" style="stroke: #595959; stroke-width: 1.25"/>
    </defs>
    <g clip-path="url(#p73c1138509)">
     <use xlink:href="#m873bf1165b" x="0" y="432" style="fill: #db96c0; stroke: #595959; stroke-width: 1.25"/>
    </g>
   </g>
   <g id="PolyCollection_5">
    <defs>
     <path id="me9af28701b" d="M 777.037474 -53.566364 
L 766.498526 -53.566364 
L 749.995145 -56.436841 
L 722.184168 -59.307318 
L 708.3504 -62.177795 
L 724.037305 -65.048272 
L 748.559897 -67.918749 
L 763.66253 -70.789227 
L 769.719937 -73.659704 
L 771.428224 -76.530181 
L 771.734171 -79.400658 
L 771.766065 -82.271135 
L 771.767937 -85.141612 
L 771.767999 -88.01209 
L 771.768 -90.882567 
L 771.768 -93.753044 
L 771.768 -96.623521 
L 771.768 -99.493998 
L 771.768 -102.364475 
L 771.768 -105.234953 
L 771.768 -108.10543 
L 771.768 -110.975907 
L 771.768 -113.846384 
L 771.768 -116.716861 
L 771.768 -119.587338 
L 771.768 -122.457816 
L 771.768 -125.328293 
L 771.768 -128.19877 
L 771.768 -131.069247 
L 771.768 -133.939724 
L 771.768 -136.810201 
L 771.768 -139.680679 
L 771.768 -142.551156 
L 771.768 -145.421633 
L 771.768 -148.29211 
L 771.768 -151.162587 
L 771.768 -154.033064 
L 771.768 -156.903542 
L 771.768 -159.774019 
L 771.768 -162.644496 
L 771.768 -165.514973 
L 771.768 -168.38545 
L 771.768 -171.255927 
L 771.768 -174.126404 
L 771.768 -176.996882 
L 771.768 -179.867359 
L 771.768 -182.737836 
L 771.768 -185.608313 
L 771.768 -188.47879 
L 771.768 -191.349267 
L 771.768 -194.219745 
L 771.768 -197.090222 
L 771.768 -199.960699 
L 771.768 -202.831176 
L 771.768 -205.701653 
L 771.768 -208.57213 
L 771.768 -211.442608 
L 771.768 -214.313085 
L 771.768 -217.183562 
L 771.768 -220.054039 
L 771.768 -222.924516 
L 771.768 -225.794993 
L 771.768 -228.665471 
L 771.768 -231.535948 
L 771.768 -234.406425 
L 771.768 -237.276902 
L 771.768 -240.147379 
L 771.768 -243.017856 
L 771.768 -245.888334 
L 771.768 -248.758811 
L 771.768 -251.629288 
L 771.768 -254.499765 
L 771.768 -257.370242 
L 771.768 -260.240719 
L 771.768 -263.111197 
L 771.768 -265.981674 
L 771.768 -268.852151 
L 771.768 -271.722628 
L 771.768 -274.593105 
L 771.768 -277.463582 
L 771.768 -280.33406 
L 771.768 -283.204537 
L 771.768 -286.075014 
L 771.768 -288.945491 
L 771.768 -291.815968 
L 771.768 -294.686445 
L 771.768 -297.556923 
L 771.768 -300.4274 
L 771.768 -303.297877 
L 771.768 -306.168354 
L 771.768 -309.038831 
L 771.768 -311.909308 
L 771.767984 -314.779785 
L 771.76767 -317.650263 
L 771.76429 -320.52074 
L 771.745411 -323.391217 
L 771.693508 -326.261694 
L 771.634951 -329.132171 
L 771.63929 -332.002648 
L 771.700561 -334.873126 
L 771.748862 -337.743603 
L 771.787138 -337.743603 
L 771.787138 -337.743603 
L 771.835439 -334.873126 
L 771.89671 -332.002648 
L 771.901049 -329.132171 
L 771.842492 -326.261694 
L 771.790589 -323.391217 
L 771.77171 -320.52074 
L 771.76833 -317.650263 
L 771.768016 -314.779785 
L 771.768 -311.909308 
L 771.768 -309.038831 
L 771.768 -306.168354 
L 771.768 -303.297877 
L 771.768 -300.4274 
L 771.768 -297.556923 
L 771.768 -294.686445 
L 771.768 -291.815968 
L 771.768 -288.945491 
L 771.768 -286.075014 
L 771.768 -283.204537 
L 771.768 -280.33406 
L 771.768 -277.463582 
L 771.768 -274.593105 
L 771.768 -271.722628 
L 771.768 -268.852151 
L 771.768 -265.981674 
L 771.768 -263.111197 
L 771.768 -260.240719 
L 771.768 -257.370242 
L 771.768 -254.499765 
L 771.768 -251.629288 
L 771.768 -248.758811 
L 771.768 -245.888334 
L 771.768 -243.017856 
L 771.768 -240.147379 
L 771.768 -237.276902 
L 771.768 -234.406425 
L 771.768 -231.535948 
L 771.768 -228.665471 
L 771.768 -225.794993 
L 771.768 -222.924516 
L 771.768 -220.054039 
L 771.768 -217.183562 
L 771.768 -214.313085 
L 771.768 -211.442608 
L 771.768 -208.57213 
L 771.768 -205.701653 
L 771.768 -202.831176 
L 771.768 -199.960699 
L 771.768 -197.090222 
L 771.768 -194.219745 
L 771.768 -191.349267 
L 771.768 -188.47879 
L 771.768 -185.608313 
L 771.768 -182.737836 
L 771.768 -179.867359 
L 771.768 -176.996882 
L 771.768 -174.126404 
L 771.768 -171.255927 
L 771.768 -168.38545 
L 771.768 -165.514973 
L 771.768 -162.644496 
L 771.768 -159.774019 
L 771.768 -156.903542 
L 771.768 -154.033064 
L 771.768 -151.162587 
L 771.768 -148.29211 
L 771.768 -145.421633 
L 771.768 -142.551156 
L 771.768 -139.680679 
L 771.768 -136.810201 
L 771.768 -133.939724 
L 771.768 -131.069247 
L 771.768 -128.19877 
L 771.768 -125.328293 
L 771.768 -122.457816 
L 771.768 -119.587338 
L 771.768 -116.716861 
L 771.768 -113.846384 
L 771.768 -110.975907 
L 771.768 -108.10543 
L 771.768 -105.234953 
L 771.768 -102.364475 
L 771.768 -99.493998 
L 771.768 -96.623521 
L 771.768 -93.753044 
L 771.768 -90.882567 
L 771.768001 -88.01209 
L 771.768063 -85.141612 
L 771.769935 -82.271135 
L 771.801829 -79.400658 
L 772.107776 -76.530181 
L 773.816063 -73.659704 
L 779.87347 -70.789227 
L 794.976103 -67.918749 
L 819.498695 -65.048272 
L 835.1856 -62.177795 
L 821.351832 -59.307318 
L 793.540855 -56.436841 
L 777.037474 -53.566364 
z
" style="stroke: #595959; stroke-width: 1.25"/>
    </defs>
    <g clip-path="url(#p73c1138509)">
     <use xlink:href="#me9af28701b" x="0" y="432" style="fill: #a2c865; stroke: #595959; stroke-width: 1.25"/>
    </g>
   </g>
   <g id="line2d_6">
    <path d="M 137.592 362.615674 
L 137.592 363.034293 
" clip-path="url(#p73c1138509)" style="fill: none; stroke: #000000"/>
   </g>
   <g id="line2d_7">
    <path d="M 137.592 361.892605 
L 137.592 360.865086 
" clip-path="url(#p73c1138509)" style="fill: none; stroke: #000000"/>
   </g>
   <g id="line2d_8">
    <path d="M 131.6466 363.034293 
L 143.5374 363.034293 
" clip-path="url(#p73c1138509)" style="fill: none; stroke: #000000; stroke-linecap: round"/>
   </g>
   <g id="line2d_9">
    <path d="M 131.6466 360.865086 
L 143.5374 360.865086 
" clip-path="url(#p73c1138509)" style="fill: none; stroke: #000000; stroke-linecap: round"/>
   </g>
   <g id="line2d_10">
    <path d="M 296.136 367.791325 
L 296.136 368.248 
" clip-path="url(#p73c1138509)" style="fill: none; stroke: #000000"/>
   </g>
   <g id="line2d_11">
    <path d="M 296.136 366.839918 
L 296.136 365.546005 
" clip-path="url(#p73c1138509)" style="fill: none; stroke: #000000"/>
   </g>
   <g id="line2d_12">
    <path d="M 290.1906 368.248 
L 302.0814 368.248 
" clip-path="url(#p73c1138509)" style="fill: none; stroke: #000000; stroke-linecap: round"/>
   </g>
   <g id="line2d_13">
    <path d="M 290.1906 365.546005 
L 302.0814 365.546005 
" clip-path="url(#p73c1138509)" style="fill: none; stroke: #000000; stroke-linecap: round"/>
   </g>
   <g id="line2d_14">
    <path d="M 454.68 336.547138 
L 454.68 337.308264 
" clip-path="url(#p73c1138509)" style="fill: none; stroke: #000000"/>
   </g>
   <g id="line2d_15">
    <path d="M 454.68 334.197165 
L 454.68 330.686475 
" clip-path="url(#p73c1138509)" style="fill: none; stroke: #000000"/>
   </g>
   <g id="line2d_16">
    <path d="M 448.7346 337.308264 
L 460.6254 337.308264 
" clip-path="url(#p73c1138509)" style="fill: none; stroke: #000000; stroke-linecap: round"/>
   </g>
   <g id="line2d_17">
    <path d="M 448.7346 330.686475 
L 460.6254 330.686475 
" clip-path="url(#p73c1138509)" style="fill: none; stroke: #000000; stroke-linecap: round"/>
   </g>
   <g id="line2d_18">
    <path d="M 613.224 360.52258 
L 613.224 361.13148 
" clip-path="url(#p73c1138509)" style="fill: none; stroke: #000000"/>
   </g>
   <g id="line2d_19">
    <path d="M 613.224 359.066928 
L 613.224 356.983348 
" clip-path="url(#p73c1138509)" style="fill: none; stroke: #000000"/>
   </g>
   <g id="line2d_20">
    <path d="M 607.2786 361.13148 
L 619.1694 361.13148 
" clip-path="url(#p73c1138509)" style="fill: none; stroke: #000000; stroke-linecap: round"/>
   </g>
   <g id="line2d_21">
    <path d="M 607.2786 356.983348 
L 619.1694 356.983348 
" clip-path="url(#p73c1138509)" style="fill: none; stroke: #000000; stroke-linecap: round"/>
   </g>
   <g id="line2d_22">
    <path d="M 771.768 370.531375 
L 771.768 371.102219 
" clip-path="url(#p73c1138509)" style="fill: none; stroke: #000000"/>
   </g>
   <g id="line2d_23">
    <path d="M 771.768 369.77025 
L 771.768 368.780787 
" clip-path="url(#p73c1138509)" style="fill: none; stroke: #000000"/>
   </g>
   <g id="line2d_24">
    <path d="M 765.8226 371.102219 
L 777.7134 371.102219 
" clip-path="url(#p73c1138509)" style="fill: none; stroke: #000000; stroke-linecap: round"/>
   </g>
   <g id="line2d_25">
    <path d="M 765.8226 368.780787 
L 777.7134 368.780787 
" clip-path="url(#p73c1138509)" style="fill: none; stroke: #000000; stroke-linecap: round"/>
   </g>
   <g id="line2d_26">
    <path d="M 125.7012 362.425392 
L 149.4828 362.425392 
" clip-path="url(#p73c1138509)" style="fill: none; stroke: #ff0000; stroke-width: 2"/>
   </g>
   <g id="line2d_27">
    <path d="M 284.2452 367.562987 
L 308.0268 367.562987 
" clip-path="url(#p73c1138509)" style="fill: none; stroke: #ff0000; stroke-width: 2"/>
   </g>
   <g id="line2d_28">
    <path d="M 442.7892 336.166576 
L 466.5708 336.166576 
" clip-path="url(#p73c1138509)" style="fill: none; stroke: #ff0000; stroke-width: 2"/>
   </g>
   <g id="line2d_29">
    <path d="M 601.3332 360.294242 
L 625.1148 360.294242 
" clip-path="url(#p73c1138509)" style="fill: none; stroke: #ff0000; stroke-width: 2"/>
   </g>
   <g id="line2d_30">
    <path d="M 759.8772 370.360122 
L 783.6588 370.360122 
" clip-path="url(#p73c1138509)" style="fill: none; stroke: #ff0000; stroke-width: 2"/>
   </g>
   <g id="patch_3">
    <path d="M 58.32 395.14 
L 58.32 27.6 
" style="fill: none; stroke: #cccccc; stroke-width: 1.25; stroke-linejoin: miter; stroke-linecap: square"/>
   </g>
   <g id="patch_4">
    <path d="M 851.04 395.14 
L 851.04 27.6 
" style="fill: none; stroke: #cccccc; stroke-width: 1.25; stroke-linejoin: miter; stroke-linecap: square"/>
   </g>
   <g id="patch_5">
    <path d="M 58.32 395.14 
L 851.04 395.14 
" style="fill: none; stroke: #cccccc; stroke-width: 1.25; stroke-linejoin: miter; stroke-linecap: square"/>
   </g>
   <g id="patch_6">
    <path d="M 58.32 27.6 
L 851.04 27.6 
" style="fill: none; stroke: #cccccc; stroke-width: 1.25; stroke-linejoin: miter; stroke-linecap: square"/>
   </g>
   <g id="text_12">
    <!-- Handshake duration on QUIC with secp384r1 signature algorithm — Local YDE (35ms/2%) -->
    <g style="fill: #262626" transform="translate(184.493437 21.6) scale(0.12 -0.12)">
     <defs>
      <path id="DejaVuSans-51" d="M 2522 4238 
Q 1834 4238 1429 3725 
Q 1025 3213 1025 2328 
Q 1025 1447 1429 934 
Q 1834 422 2522 422 
Q 3209 422 3611 934 
Q 4013 1447 4013 2328 
Q 4013 3213 3611 3725 
Q 3209 4238 2522 4238 
z
M 3406 84 
L 4238 -825 
L 3475 -825 
L 2784 -78 
Q 2681 -84 2626 -87 
Q 2572 -91 2522 -91 
Q 1538 -91 948 567 
Q 359 1225 359 2328 
Q 359 3434 948 4092 
Q 1538 4750 2522 4750 
Q 3503 4750 4090 4092 
Q 4678 3434 4678 2328 
Q 4678 1516 4351 937 
Q 4025 359 3406 84 
z
" transform="scale(0.015625)"/>
      <path id="DejaVuSans-55" d="M 556 4666 
L 1191 4666 
L 1191 1831 
Q 1191 1081 1462 751 
Q 1734 422 2344 422 
Q 2950 422 3222 751 
Q 3494 1081 3494 1831 
L 3494 4666 
L 4128 4666 
L 4128 1753 
Q 4128 841 3676 375 
Q 3225 -91 2344 -91 
Q 1459 -91 1007 375 
Q 556 841 556 1753 
L 556 4666 
z
" transform="scale(0.015625)"/>
      <path id="DejaVuSans-49" d="M 628 4666 
L 1259 4666 
L 1259 0 
L 628 0 
L 628 4666 
z
" transform="scale(0.015625)"/>
      <path id="DejaVuSans-43" d="M 4122 4306 
L 4122 3641 
Q 3803 3938 3442 4084 
Q 3081 4231 2675 4231 
Q 1875 4231 1450 3742 
Q 1025 3253 1025 2328 
Q 1025 1406 1450 917 
Q 1875 428 2675 428 
Q 3081 428 3442 575 
Q 3803 722 4122 1019 
L 4122 359 
Q 3791 134 3420 21 
Q 3050 -91 2638 -91 
Q 1578 -91 968 557 
Q 359 1206 359 2328 
Q 359 3453 968 4101 
Q 1578 4750 2638 4750 
Q 3056 4750 3426 4639 
Q 3797 4528 4122 4306 
z
" transform="scale(0.015625)"/>
      <path id="DejaVuSans-77" d="M 269 3500 
L 844 3500 
L 1563 769 
L 2278 3500 
L 2956 3500 
L 3675 769 
L 4391 3500 
L 4966 3500 
L 4050 0 
L 3372 0 
L 2619 2869 
L 1863 0 
L 1184 0 
L 269 3500 
z
" transform="scale(0.015625)"/>
      <path id="DejaVuSans-63" d="M 3122 3366 
L 3122 2828 
Q 2878 2963 2633 3030 
Q 2388 3097 2138 3097 
Q 1578 3097 1268 2742 
Q 959 2388 959 1747 
Q 959 1106 1268 751 
Q 1578 397 2138 397 
Q 2388 397 2633 464 
Q 2878 531 3122 666 
L 3122 134 
Q 2881 22 2623 -34 
Q 2366 -91 2075 -91 
Q 1284 -91 818 406 
Q 353 903 353 1747 
Q 353 2603 823 3093 
Q 1294 3584 2113 3584 
Q 2378 3584 2631 3529 
Q 2884 3475 3122 3366 
z
" transform="scale(0.015625)"/>
      <path id="DejaVuSans-67" d="M 2906 1791 
Q 2906 2416 2648 2759 
Q 2391 3103 1925 3103 
Q 1463 3103 1205 2759 
Q 947 2416 947 1791 
Q 947 1169 1205 825 
Q 1463 481 1925 481 
Q 2391 481 2648 825 
Q 2906 1169 2906 1791 
z
M 3481 434 
Q 3481 -459 3084 -895 
Q 2688 -1331 1869 -1331 
Q 1566 -1331 1297 -1286 
Q 1028 -1241 775 -1147 
L 775 -588 
Q 1028 -725 1275 -790 
Q 1522 -856 1778 -856 
Q 2344 -856 2625 -561 
Q 2906 -266 2906 331 
L 2906 616 
Q 2728 306 2450 153 
Q 2172 0 1784 0 
Q 1141 0 747 490 
Q 353 981 353 1791 
Q 353 2603 747 3093 
Q 1141 3584 1784 3584 
Q 2172 3584 2450 3431 
Q 2728 3278 2906 2969 
L 2906 3500 
L 3481 3500 
L 3481 434 
z
" transform="scale(0.015625)"/>
      <path id="DejaVuSans-2014" d="M 313 1978 
L 6088 1978 
L 6088 1528 
L 313 1528 
L 313 1978 
z
" transform="scale(0.015625)"/>
      <path id="DejaVuSans-4c" d="M 628 4666 
L 1259 4666 
L 1259 531 
L 3531 531 
L 3531 0 
L 628 0 
L 628 4666 
z
" transform="scale(0.015625)"/>
      <path id="DejaVuSans-59" d="M -13 4666 
L 666 4666 
L 1959 2747 
L 3244 4666 
L 3922 4666 
L 2272 2222 
L 2272 0 
L 1638 0 
L 1638 2222 
L -13 4666 
z
" transform="scale(0.015625)"/>
      <path id="DejaVuSans-44" d="M 1259 4147 
L 1259 519 
L 2022 519 
Q 2988 519 3436 956 
Q 3884 1394 3884 2338 
Q 3884 3275 3436 3711 
Q 2988 4147 2022 4147 
L 1259 4147 
z
M 628 4666 
L 1925 4666 
Q 3281 4666 3915 4102 
Q 4550 3538 4550 2338 
Q 4550 1131 3912 565 
Q 3275 0 1925 0 
L 628 0 
L 628 4666 
z
" transform="scale(0.015625)"/>
      <path id="DejaVuSans-45" d="M 628 4666 
L 3578 4666 
L 3578 4134 
L 1259 4134 
L 1259 2753 
L 3481 2753 
L 3481 2222 
L 1259 2222 
L 1259 531 
L 3634 531 
L 3634 0 
L 628 0 
L 628 4666 
z
" transform="scale(0.015625)"/>
      <path id="DejaVuSans-35" d="M 691 4666 
L 3169 4666 
L 3169 4134 
L 1269 4134 
L 1269 2991 
Q 1406 3038 1543 3061 
Q 1681 3084 1819 3084 
Q 2600 3084 3056 2656 
Q 3513 2228 3513 1497 
Q 3513 744 3044 326 
Q 2575 -91 1722 -91 
Q 1428 -91 1123 -41 
Q 819 9 494 109 
L 494 744 
Q 775 591 1075 516 
Q 1375 441 1709 441 
Q 2250 441 2565 725 
Q 2881 1009 2881 1497 
Q 2881 1984 2565 2268 
Q 2250 2553 1709 2553 
Q 1456 2553 1204 2497 
Q 953 2441 691 2322 
L 691 4666 
z
" transform="scale(0.015625)"/>
      <path id="DejaVuSans-2f" d="M 1625 4666 
L 2156 4666 
L 531 -594 
L 0 -594 
L 1625 4666 
z
" transform="scale(0.015625)"/>
      <path id="DejaVuSans-25" d="M 4653 2053 
Q 4381 2053 4226 1822 
Q 4072 1591 4072 1178 
Q 4072 772 4226 539 
Q 4381 306 4653 306 
Q 4919 306 5073 539 
Q 5228 772 5228 1178 
Q 5228 1588 5073 1820 
Q 4919 2053 4653 2053 
z
M 4653 2450 
Q 5147 2450 5437 2106 
Q 5728 1763 5728 1178 
Q 5728 594 5436 251 
Q 5144 -91 4653 -91 
Q 4153 -91 3862 251 
Q 3572 594 3572 1178 
Q 3572 1766 3864 2108 
Q 4156 2450 4653 2450 
z
M 1428 4353 
Q 1159 4353 1004 4120 
Q 850 3888 850 3481 
Q 850 3069 1003 2837 
Q 1156 2606 1428 2606 
Q 1700 2606 1854 2837 
Q 2009 3069 2009 3481 
Q 2009 3884 1853 4118 
Q 1697 4353 1428 4353 
z
M 4250 4750 
L 4750 4750 
L 1831 -91 
L 1331 -91 
L 4250 4750 
z
M 1428 4750 
Q 1922 4750 2215 4408 
Q 2509 4066 2509 3481 
Q 2509 2891 2217 2550 
Q 1925 2209 1428 2209 
Q 931 2209 642 2551 
Q 353 2894 353 3481 
Q 353 4063 643 4406 
Q 934 4750 1428 4750 
z
" transform="scale(0.015625)"/>
     </defs>
     <use xlink:href="#DejaVuSans-48"/>
     <use xlink:href="#DejaVuSans-61" x="75.195312"/>
     <use xlink:href="#DejaVuSans-6e" x="136.474609"/>
     <use xlink:href="#DejaVuSans-64" x="199.853516"/>
     <use xlink:href="#DejaVuSans-73" x="263.330078"/>
     <use xlink:href="#DejaVuSans-68" x="315.429688"/>
     <use xlink:href="#DejaVuSans-61" x="378.808594"/>
     <use xlink:href="#DejaVuSans-6b" x="440.087891"/>
     <use xlink:href="#DejaVuSans-65" x="494.373047"/>
     <use xlink:href="#DejaVuSans-20" x="555.896484"/>
     <use xlink:href="#DejaVuSans-64" x="587.683594"/>
     <use xlink:href="#DejaVuSans-75" x="651.160156"/>
     <use xlink:href="#DejaVuSans-72" x="714.539062"/>
     <use xlink:href="#DejaVuSans-61" x="755.652344"/>
     <use xlink:href="#DejaVuSans-74" x="816.931641"/>
     <use xlink:href="#DejaVuSans-69" x="856.140625"/>
     <use xlink:href="#DejaVuSans-6f" x="883.923828"/>
     <use xlink:href="#DejaVuSans-6e" x="945.105469"/>
     <use xlink:href="#DejaVuSans-20" x="1008.484375"/>
     <use xlink:href="#DejaVuSans-6f" x="1040.271484"/>
     <use xlink:href="#DejaVuSans-6e" x="1101.453125"/>
     <use xlink:href="#DejaVuSans-20" x="1164.832031"/>
     <use xlink:href="#DejaVuSans-51" x="1196.619141"/>
     <use xlink:href="#DejaVuSans-55" x="1275.330078"/>
     <use xlink:href="#DejaVuSans-49" x="1348.523438"/>
     <use xlink:href="#DejaVuSans-43" x="1378.015625"/>
     <use xlink:href="#DejaVuSans-20" x="1447.839844"/>
     <use xlink:href="#DejaVuSans-77" x="1479.626953"/>
     <use xlink:href="#DejaVuSans-69" x="1561.414062"/>
     <use xlink:href="#DejaVuSans-74" x="1589.197266"/>
     <use xlink:href="#DejaVuSans-68" x="1628.40625"/>
     <use xlink:href="#DejaVuSans-20" x="1691.785156"/>
     <use xlink:href="#DejaVuSans-73" x="1723.572266"/>
     <use xlink:href="#DejaVuSans-65" x="1775.671875"/>
     <use xlink:href="#DejaVuSans-63" x="1837.195312"/>
     <use xlink:href="#DejaVuSans-70" x="1892.175781"/>
     <use xlink:href="#DejaVuSans-33" x="1955.652344"/>
     <use xlink:href="#DejaVuSans-38" x="2019.275391"/>
     <use xlink:href="#DejaVuSans-34" x="2082.898438"/>
     <use xlink:href="#DejaVuSans-72" x="2146.521484"/>
     <use xlink:href="#DejaVuSans-31" x="2187.634766"/>
     <use xlink:href="#DejaVuSans-20" x="2251.257812"/>
     <use xlink:href="#DejaVuSans-73" x="2283.044922"/>
     <use xlink:href="#DejaVuSans-69" x="2335.144531"/>
     <use xlink:href="#DejaVuSans-67" x="2362.927734"/>
     <use xlink:href="#DejaVuSans-6e" x="2426.404297"/>
     <use xlink:href="#DejaVuSans-61" x="2489.783203"/>
     <use xlink:href="#DejaVuSans-74" x="2551.0625"/>
     <use xlink:href="#DejaVuSans-75" x="2590.271484"/>
     <use xlink:href="#DejaVuSans-72" x="2653.650391"/>
     <use xlink:href="#DejaVuSans-65" x="2692.513672"/>
     <use xlink:href="#DejaVuSans-20" x="2754.037109"/>
     <use xlink:href="#DejaVuSans-61" x="2785.824219"/>
     <use xlink:href="#DejaVuSans-6c" x="2847.103516"/>
     <use xlink:href="#DejaVuSans-67" x="2874.886719"/>
     <use xlink:href="#DejaVuSans-6f" x="2938.363281"/>
     <use xlink:href="#DejaVuSans-72" x="2999.544922"/>
     <use xlink:href="#DejaVuSans-69" x="3040.658203"/>
     <use xlink:href="#DejaVuSans-74" x="3068.441406"/>
     <use xlink:href="#DejaVuSans-68" x="3107.650391"/>
     <use xlink:href="#DejaVuSans-6d" x="3171.029297"/>
     <use xlink:href="#DejaVuSans-20" x="3268.441406"/>
     <use xlink:href="#DejaVuSans-2014" x="3300.228516"/>
     <use xlink:href="#DejaVuSans-20" x="3400.228516"/>
     <use xlink:href="#DejaVuSans-4c" x="3432.015625"/>
     <use xlink:href="#DejaVuSans-6f" x="3485.978516"/>
     <use xlink:href="#DejaVuSans-63" x="3547.160156"/>
     <use xlink:href="#DejaVuSans-61" x="3602.140625"/>
     <use xlink:href="#DejaVuSans-6c" x="3663.419922"/>
     <use xlink:href="#DejaVuSans-20" x="3691.203125"/>
     <use xlink:href="#DejaVuSans-59" x="3722.990234"/>
     <use xlink:href="#DejaVuSans-44" x="3784.074219"/>
     <use xlink:href="#DejaVuSans-45" x="3861.076172"/>
     <use xlink:href="#DejaVuSans-20" x="3924.259766"/>
     <use xlink:href="#DejaVuSans-28" x="3956.046875"/>
     <use xlink:href="#DejaVuSans-33" x="3995.060547"/>
     <use xlink:href="#DejaVuSans-35" x="4058.683594"/>
     <use xlink:href="#DejaVuSans-6d" x="4122.306641"/>
     <use xlink:href="#DejaVuSans-73" x="4219.71875"/>
     <use xlink:href="#DejaVuSans-2f" x="4271.818359"/>
     <use xlink:href="#DejaVuSans-32" x="4305.509766"/>
     <use xlink:href="#DejaVuSans-25" x="4369.132812"/>
     <use xlink:href="#DejaVuSans-29" x="4464.152344"/>
    </g>
   </g>
  </g>
 </g>
 <defs>
  <clipPath id="p73c1138509">
   <rect x="58.32" y="27.6" width="792.72" height="367.54"/>
  </clipPath>
 </defs>
</svg>
