<?xml version="1.0" encoding="utf-8" standalone="no"?>
<!DOCTYPE svg PUBLIC "-//W3C//DTD SVG 1.1//EN"
  "http://www.w3.org/Graphics/SVG/1.1/DTD/svg11.dtd">
<svg xmlns:xlink="http://www.w3.org/1999/xlink" width="864pt" height="432pt" viewBox="0 0 864 432" xmlns="http://www.w3.org/2000/svg" version="1.1">
 <metadata>
  <rdf:RDF xmlns:dc="http://purl.org/dc/elements/1.1/" xmlns:cc="http://creativecommons.org/ns#" xmlns:rdf="http://www.w3.org/1999/02/22-rdf-syntax-ns#">
   <cc:Work>
    <dc:type rdf:resource="http://purl.org/dc/dcmitype/StillImage"/>
    <dc:date>2026-03-21T13:58:47.744402</dc:date>
    <dc:format>image/svg+xml</dc:format>
    <dc:creator>
     <cc:Agent>
      <dc:title>Matplotlib v3.6.3, https://matplotlib.org/</dc:title>
     </cc:Agent>
    </dc:creator>
   </cc:Work>
  </rdf:RDF>
 </metadata>
 <defs>
  <style type="text/css">*{stroke-linejoin: round; stroke-linecap: butt}</style>
 </defs>
 <g id="figure_1">
  <g id="patch_1">
   <path d="M 0 432 
L 864 432 
L 864 0 
L 0 0 
z
" style="fill: #ffffff"/>
  </g>
  <g id="axes_1">
   <g id="patch_2">
    <path d="M 51.3 395.14 
L 851.04 395.14 
L 851.04 27.6 
L 51.3 27.6 
z
" style="fill: #ffffff"/>
   </g>
   <g id="matplotlib.axis_1">
    <g id="xtick_1">
     <g id="text_1">
      <!-- P-384 -->
      <g style="fill: #262626" transform="translate(111.324 415.277812) scale(0.14 -0.14)">
       <defs>
        <path id="DejaVuSans-50" d="M 1259 4147 
L 1259 2394 
L 2053 2394 
Q 2494 2394 2734 2622 
Q 2975 2850 2975 3272 
Q 2975 3691 2734 3919 
Q 2494 4147 2053 4147 
L 1259 4147 
z
M 628 4666 
L 2053 4666 
Q 2838 4666 3239 4311 
Q 3641 3956 3641 3272 
Q 3641 2581 3239 2228 
Q 2838 1875 2053 1875 
L 1259 1875 
L 1259 0 
L 628 0 
L 628 4666 
z
" transform="scale(0.015625)"/>
        <path id="DejaVuSans-2d" d="M 313 2009 
L 1997 2009 
L 1997 1497 
L 313 1497 
L 313 2009 
z
" transform="scale(0.015625)"/>
        <path id="DejaVuSans-33" d="M 2597 2516 
Q 3050 2419 3304 2112 
Q 3559 1806 3559 1356 
Q 3559 666 3084 287 
Q 2609 -91 1734 -91 
Q 1441 -91 1130 -33 
Q 819 25 488 141 
L 488 750 
Q 750 597 1062 519 
Q 1375 441 1716 441 
Q 2309 441 2620 675 
Q 2931 909 2931 1356 
Q 2931 1769 2642 2001 
Q 2353 2234 1838 2234 
L 1294 2234 
L 1294 2753 
L 1863 2753 
Q 2328 2753 2575 2939 
Q 2822 3125 2822 3475 
Q 2822 3834 2567 4026 
Q 2313 4219 1838 4219 
Q 1578 4219 1281 4162 
Q 984 4106 628 3988 
L 628 4550 
Q 988 4650 1302 4700 
Q 1616 4750 1894 4750 
Q 2613 4750 3031 4423 
Q 3450 4097 3450 3541 
Q 3450 3153 3228 2886 
Q 3006 2619 2597 2516 
z
" transform="scale(0.015625)"/>
        <path id="DejaVuSans-38" d="M 2034 2216 
Q 1584 2216 1326 1975 
Q 1069 1734 1069 1313 
Q 1069 891 1326 650 
Q 1584 409 2034 409 
Q 2484 409 2743 651 
Q 3003 894 3003 1313 
Q 3003 1734 2745 1975 
Q 2488 2216 2034 2216 
z
M 1403 2484 
Q 997 2584 770 2862 
Q 544 3141 544 3541 
Q 544 4100 942 4425 
Q 1341 4750 2034 4750 
Q 2731 4750 3128 4425 
Q 3525 4100 3525 3541 
Q 3525 3141 3298 2862 
Q 3072 2584 2669 2484 
Q 3125 2378 3379 2068 
Q 3634 1759 3634 1313 
Q 3634 634 3220 271 
Q 2806 -91 2034 -91 
Q 1263 -91 848 271 
Q 434 634 434 1313 
Q 434 1759 690 2068 
Q 947 2378 1403 2484 
z
M 1172 3481 
Q 1172 3119 1398 2916 
Q 1625 2713 2034 2713 
Q 2441 2713 2670 2916 
Q 2900 3119 2900 3481 
Q 2900 3844 2670 4047 
Q 2441 4250 2034 4250 
Q 1625 4250 1398 4047 
Q 1172 3844 1172 3481 
z
" transform="scale(0.015625)"/>
        <path id="DejaVuSans-34" d="M 2419 4116 
L 825 1625 
L 2419 1625 
L 2419 4116 
z
M 2253 4666 
L 3047 4666 
L 3047 1625 
L 3713 1625 
L 3713 1100 
L 3047 1100 
L 3047 0 
L 2419 0 
L 2419 1100 
L 313 1100 
L 313 1709 
L 2253 4666 
z
" transform="scale(0.015625)"/>
       </defs>
       <use xlink:href="#DejaVuSans-50"/>
       <use xlink:href="#DejaVuSans-2d" x="58.052734"/>
       <use xlink:href="#DejaVuSans-33" x="94.136719"/>
       <use xlink:href="#DejaVuSans-38" x="157.759766"/>
       <use xlink:href="#DejaVuSans-34" x="221.382812"/>
      </g>
     </g>
    </g>
    <g id="xtick_2">
     <g id="text_2">
      <!-- x448 -->
      <g style="fill: #262626" transform="translate(273.717625 415.277812) scale(0.14 -0.14)">
       <defs>
        <path id="DejaVuSans-78" d="M 3513 3500 
L 2247 1797 
L 3578 0 
L 2900 0 
L 1881 1375 
L 863 0 
L 184 0 
L 1544 1831 
L 300 3500 
L 978 3500 
L 1906 2253 
L 2834 3500 
L 3513 3500 
z
" transform="scale(0.015625)"/>
       </defs>
       <use xlink:href="#DejaVuSans-78"/>
       <use xlink:href="#DejaVuSans-34" x="59.179688"/>
       <use xlink:href="#DejaVuSans-34" x="122.802734"/>
       <use xlink:href="#DejaVuSans-38" x="186.425781"/>
      </g>
     </g>
    </g>
    <g id="xtick_3">
     <g id="text_3">
      <!-- p384_mlkem768 -->
      <g style="fill: #262626" transform="translate(392.815156 415.277812) scale(0.14 -0.14)">
       <defs>
        <path id="DejaVuSans-70" d="M 1159 525 
L 1159 -1331 
L 581 -1331 
L 581 3500 
L 1159 3500 
L 1159 2969 
Q 1341 3281 1617 3432 
Q 1894 3584 2278 3584 
Q 2916 3584 3314 3078 
Q 3713 2572 3713 1747 
Q 3713 922 3314 415 
Q 2916 -91 2278 -91 
Q 1894 -91 1617 61 
Q 1341 213 1159 525 
z
M 3116 1747 
Q 3116 2381 2855 2742 
Q 2594 3103 2138 3103 
Q 1681 3103 1420 2742 
Q 1159 2381 1159 1747 
Q 1159 1113 1420 752 
Q 1681 391 2138 391 
Q 2594 391 2855 752 
Q 3116 1113 3116 1747 
z
" transform="scale(0.015625)"/>
        <path id="DejaVuSans-5f" d="M 3263 -1063 
L 3263 -1509 
L -63 -1509 
L -63 -1063 
L 3263 -1063 
z
" transform="scale(0.015625)"/>
        <path id="DejaVuSans-6d" d="M 3328 2828 
Q 3544 3216 3844 3400 
Q 4144 3584 4550 3584 
Q 5097 3584 5394 3201 
Q 5691 2819 5691 2113 
L 5691 0 
L 5113 0 
L 5113 2094 
Q 5113 2597 4934 2840 
Q 4756 3084 4391 3084 
Q 3944 3084 3684 2787 
Q 3425 2491 3425 1978 
L 3425 0 
L 2847 0 
L 2847 2094 
Q 2847 2600 2669 2842 
Q 2491 3084 2119 3084 
Q 1678 3084 1418 2786 
Q 1159 2488 1159 1978 
L 1159 0 
L 581 0 
L 581 3500 
L 1159 3500 
L 1159 2956 
Q 1356 3278 1631 3431 
Q 1906 3584 2284 3584 
Q 2666 3584 2933 3390 
Q 3200 3197 3328 2828 
z
" transform="scale(0.015625)"/>
        <path id="DejaVuSans-6c" d="M 603 4863 
L 1178 4863 
L 1178 0 
L 603 0 
L 603 4863 
z
" transform="scale(0.015625)"/>
        <path id="DejaVuSans-6b" d="M 581 4863 
L 1159 4863 
L 1159 1991 
L 2875 3500 
L 3609 3500 
L 1753 1863 
L 3688 0 
L 2938 0 
L 1159 1709 
L 1159 0 
L 581 0 
L 581 4863 
z
" transform="scale(0.015625)"/>
        <path id="DejaVuSans-65" d="M 3597 1894 
L 3597 1613 
L 953 1613 
Q 991 1019 1311 708 
Q 1631 397 2203 397 
Q 2534 397 2845 478 
Q 3156 559 3463 722 
L 3463 178 
Q 3153 47 2828 -22 
Q 2503 -91 2169 -91 
Q 1331 -91 842 396 
Q 353 884 353 1716 
Q 353 2575 817 3079 
Q 1281 3584 2069 3584 
Q 2775 3584 3186 3129 
Q 3597 2675 3597 1894 
z
M 3022 2063 
Q 3016 2534 2758 2815 
Q 2500 3097 2075 3097 
Q 1594 3097 1305 2825 
Q 1016 2553 972 2059 
L 3022 2063 
z
" transform="scale(0.015625)"/>
        <path id="DejaVuSans-37" d="M 525 4666 
L 3525 4666 
L 3525 4397 
L 1831 0 
L 1172 0 
L 2766 4134 
L 525 4134 
L 525 4666 
z
" transform="scale(0.015625)"/>
        <path id="DejaVuSans-36" d="M 2113 2584 
Q 1688 2584 1439 2293 
Q 1191 2003 1191 1497 
Q 1191 994 1439 701 
Q 1688 409 2113 409 
Q 2538 409 2786 701 
Q 3034 994 3034 1497 
Q 3034 2003 2786 2293 
Q 2538 2584 2113 2584 
z
M 3366 4563 
L 3366 3988 
Q 3128 4100 2886 4159 
Q 2644 4219 2406 4219 
Q 1781 4219 1451 3797 
Q 1122 3375 1075 2522 
Q 1259 2794 1537 2939 
Q 1816 3084 2150 3084 
Q 2853 3084 3261 2657 
Q 3669 2231 3669 1497 
Q 3669 778 3244 343 
Q 2819 -91 2113 -91 
Q 1303 -91 875 529 
Q 447 1150 447 2328 
Q 447 3434 972 4092 
Q 1497 4750 2381 4750 
Q 2619 4750 2861 4703 
Q 3103 4656 3366 4563 
z
" transform="scale(0.015625)"/>
       </defs>
       <use xlink:href="#DejaVuSans-70"/>
       <use xlink:href="#DejaVuSans-33" x="63.476562"/>
       <use xlink:href="#DejaVuSans-38" x="127.099609"/>
       <use xlink:href="#DejaVuSans-34" x="190.722656"/>
       <use xlink:href="#DejaVuSans-5f" x="254.345703"/>
       <use xlink:href="#DejaVuSans-6d" x="304.345703"/>
       <use xlink:href="#DejaVuSans-6c" x="401.757812"/>
       <use xlink:href="#DejaVuSans-6b" x="429.541016"/>
       <use xlink:href="#DejaVuSans-65" x="483.826172"/>
       <use xlink:href="#DejaVuSans-6d" x="545.349609"/>
       <use xlink:href="#DejaVuSans-37" x="642.761719"/>
       <use xlink:href="#DejaVuSans-36" x="706.384766"/>
       <use xlink:href="#DejaVuSans-38" x="770.007812"/>
      </g>
     </g>
    </g>
    <g id="xtick_4">
     <g id="text_4">
      <!-- x448_mlkem768 -->
      <g style="fill: #262626" transform="translate(553.063937 415.277812) scale(0.14 -0.14)">
       <use xlink:href="#DejaVuSans-78"/>
       <use xlink:href="#DejaVuSans-34" x="59.179688"/>
       <use xlink:href="#DejaVuSans-34" x="122.802734"/>
       <use xlink:href="#DejaVuSans-38" x="186.425781"/>
       <use xlink:href="#DejaVuSans-5f" x="250.048828"/>
       <use xlink:href="#DejaVuSans-6d" x="300.048828"/>
       <use xlink:href="#DejaVuSans-6c" x="397.460938"/>
       <use xlink:href="#DejaVuSans-6b" x="425.244141"/>
       <use xlink:href="#DejaVuSans-65" x="479.529297"/>
       <use xlink:href="#DejaVuSans-6d" x="541.052734"/>
       <use xlink:href="#DejaVuSans-37" x="638.464844"/>
       <use xlink:href="#DejaVuSans-36" x="702.087891"/>
       <use xlink:href="#DejaVuSans-38" x="765.710938"/>
      </g>
     </g>
    </g>
    <g id="xtick_5">
     <g id="text_5">
      <!-- mlkem768 -->
      <g style="fill: #262626" transform="translate(734.016312 415.277812) scale(0.14 -0.14)">
       <use xlink:href="#DejaVuSans-6d"/>
       <use xlink:href="#DejaVuSans-6c" x="97.412109"/>
       <use xlink:href="#DejaVuSans-6b" x="125.195312"/>
       <use xlink:href="#DejaVuSans-65" x="179.480469"/>
       <use xlink:href="#DejaVuSans-6d" x="241.003906"/>
       <use xlink:href="#DejaVuSans-37" x="338.416016"/>
       <use xlink:href="#DejaVuSans-36" x="402.039062"/>
       <use xlink:href="#DejaVuSans-38" x="465.662109"/>
      </g>
     </g>
    </g>
   </g>
   <g id="matplotlib.axis_2">
    <g id="ytick_1">
     <g id="line2d_1">
      <path d="M 51.3 346.086619 
L 851.04 346.086619 
" clip-path="url(#pcd1d60f6fa)" style="fill: none; stroke: #cccccc; stroke-linecap: round"/>
     </g>
     <g id="text_6">
      <!-- 10 -->
      <g style="fill: #262626" transform="translate(27.8025 350.265759) scale(0.11 -0.11)">
       <defs>
        <path id="DejaVuSans-31" d="M 794 531 
L 1825 531 
L 1825 4091 
L 703 3866 
L 703 4441 
L 1819 4666 
L 2450 4666 
L 2450 531 
L 3481 531 
L 3481 0 
L 794 0 
L 794 531 
z
" transform="scale(0.015625)"/>
        <path id="DejaVuSans-30" d="M 2034 4250 
Q 1547 4250 1301 3770 
Q 1056 3291 1056 2328 
Q 1056 1369 1301 889 
Q 1547 409 2034 409 
Q 2525 409 2770 889 
Q 3016 1369 3016 2328 
Q 3016 3291 2770 3770 
Q 2525 4250 2034 4250 
z
M 2034 4750 
Q 2819 4750 3233 4129 
Q 3647 3509 3647 2328 
Q 3647 1150 3233 529 
Q 2819 -91 2034 -91 
Q 1250 -91 836 529 
Q 422 1150 422 2328 
Q 422 3509 836 4129 
Q 1250 4750 2034 4750 
z
" transform="scale(0.015625)"/>
       </defs>
       <use xlink:href="#DejaVuSans-31"/>
       <use xlink:href="#DejaVuSans-30" x="63.623047"/>
      </g>
     </g>
    </g>
    <g id="ytick_2">
     <g id="line2d_2">
      <path d="M 51.3 296.875563 
L 851.04 296.875563 
" clip-path="url(#pcd1d60f6fa)" style="fill: none; stroke: #cccccc; stroke-linecap: round"/>
     </g>
     <g id="text_7">
      <!-- 20 -->
      <g style="fill: #262626" transform="translate(27.8025 301.054703) scale(0.11 -0.11)">
       <defs>
        <path id="DejaVuSans-32" d="M 1228 531 
L 3431 531 
L 3431 0 
L 469 0 
L 469 531 
Q 828 903 1448 1529 
Q 2069 2156 2228 2338 
Q 2531 2678 2651 2914 
Q 2772 3150 2772 3378 
Q 2772 3750 2511 3984 
Q 2250 4219 1831 4219 
Q 1534 4219 1204 4116 
Q 875 4013 500 3803 
L 500 4441 
Q 881 4594 1212 4672 
Q 1544 4750 1819 4750 
Q 2544 4750 2975 4387 
Q 3406 4025 3406 3419 
Q 3406 3131 3298 2873 
Q 3191 2616 2906 2266 
Q 2828 2175 2409 1742 
Q 1991 1309 1228 531 
z
" transform="scale(0.015625)"/>
       </defs>
       <use xlink:href="#DejaVuSans-32"/>
       <use xlink:href="#DejaVuSans-30" x="63.623047"/>
      </g>
     </g>
    </g>
    <g id="ytick_3">
     <g id="line2d_3">
      <path d="M 51.3 247.664507 
L 851.04 247.664507 
" clip-path="url(#pcd1d60f6fa)" style="fill: none; stroke: #cccccc; stroke-linecap: round"/>
     </g>
     <g id="text_8">
      <!-- 30 -->
      <g style="fill: #262626" transform="translate(27.8025 251.843647) scale(0.11 -0.11)">
       <use xlink:href="#DejaVuSans-33"/>
       <use xlink:href="#DejaVuSans-30" x="63.623047"/>
      </g>
     </g>
    </g>
    <g id="ytick_4">
     <g id="line2d_4">
      <path d="M 51.3 198.453451 
L 851.04 198.453451 
" clip-path="url(#pcd1d60f6fa)" style="fill: none; stroke: #cccccc; stroke-linecap: round"/>
     </g>
     <g id="text_9">
      <!-- 40 -->
      <g style="fill: #262626" transform="translate(27.8025 202.632591) scale(0.11 -0.11)">
       <use xlink:href="#DejaVuSans-34"/>
       <use xlink:href="#DejaVuSans-30" x="63.623047"/>
      </g>
     </g>
    </g>
    <g id="ytick_5">
     <g id="line2d_5">
      <path d="M 51.3 149.242395 
L 851.04 149.242395 
" clip-path="url(#pcd1d60f6fa)" style="fill: none; stroke: #cccccc; stroke-linecap: round"/>
     </g>
     <g id="text_10">
      <!-- 50 -->
      <g style="fill: #262626" transform="translate(27.8025 153.421535) scale(0.11 -0.11)">
       <defs>
        <path id="DejaVuSans-35" d="M 691 4666 
L 3169 4666 
L 3169 4134 
L 1269 4134 
L 1269 2991 
Q 1406 3038 1543 3061 
Q 1681 3084 1819 3084 
Q 2600 3084 3056 2656 
Q 3513 2228 3513 1497 
Q 3513 744 3044 326 
Q 2575 -91 1722 -91 
Q 1428 -91 1123 -41 
Q 819 9 494 109 
L 494 744 
Q 775 591 1075 516 
Q 1375 441 1709 441 
Q 2250 441 2565 725 
Q 2881 1009 2881 1497 
Q 2881 1984 2565 2268 
Q 2250 2553 1709 2553 
Q 1456 2553 1204 2497 
Q 953 2441 691 2322 
L 691 4666 
z
" transform="scale(0.015625)"/>
       </defs>
       <use xlink:href="#DejaVuSans-35"/>
       <use xlink:href="#DejaVuSans-30" x="63.623047"/>
      </g>
     </g>
    </g>
    <g id="ytick_6">
     <g id="line2d_6">
      <path d="M 51.3 100.031339 
L 851.04 100.031339 
" clip-path="url(#pcd1d60f6fa)" style="fill: none; stroke: #cccccc; stroke-linecap: round"/>
     </g>
     <g id="text_11">
      <!-- 60 -->
      <g style="fill: #262626" transform="translate(27.8025 104.210479) scale(0.11 -0.11)">
       <use xlink:href="#DejaVuSans-36"/>
       <use xlink:href="#DejaVuSans-30" x="63.623047"/>
      </g>
     </g>
    </g>
    <g id="ytick_7">
     <g id="line2d_7">
      <path d="M 51.3 50.820283 
L 851.04 50.820283 
" clip-path="url(#pcd1d60f6fa)" style="fill: none; stroke: #cccccc; stroke-linecap: round"/>
     </g>
     <g id="text_12">
      <!-- 70 -->
      <g style="fill: #262626" transform="translate(27.8025 54.999423) scale(0.11 -0.11)">
       <use xlink:href="#DejaVuSans-37"/>
       <use xlink:href="#DejaVuSans-30" x="63.623047"/>
      </g>
     </g>
    </g>
    <g id="text_13">
     <!-- Handshake duration (ms) -->
     <g style="fill: #262626" transform="translate(21.306875 287.437813) rotate(-90) scale(0.12 -0.12)">
      <defs>
       <path id="DejaVuSans-48" d="M 628 4666 
L 1259 4666 
L 1259 2753 
L 3553 2753 
L 3553 4666 
L 4184 4666 
L 4184 0 
L 3553 0 
L 3553 2222 
L 1259 2222 
L 1259 0 
L 628 0 
L 628 4666 
z
" transform="scale(0.015625)"/>
       <path id="DejaVuSans-61" d="M 2194 1759 
Q 1497 1759 1228 1600 
Q 959 1441 959 1056 
Q 959 750 1161 570 
Q 1363 391 1709 391 
Q 2188 391 2477 730 
Q 2766 1069 2766 1631 
L 2766 1759 
L 2194 1759 
z
M 3341 1997 
L 3341 0 
L 2766 0 
L 2766 531 
Q 2569 213 2275 61 
Q 1981 -91 1556 -91 
Q 1019 -91 701 211 
Q 384 513 384 1019 
Q 384 1609 779 1909 
Q 1175 2209 1959 2209 
L 2766 2209 
L 2766 2266 
Q 2766 2663 2505 2880 
Q 2244 3097 1772 3097 
Q 1472 3097 1187 3025 
Q 903 2953 641 2809 
L 641 3341 
Q 956 3463 1253 3523 
Q 1550 3584 1831 3584 
Q 2591 3584 2966 3190 
Q 3341 2797 3341 1997 
z
" transform="scale(0.015625)"/>
       <path id="DejaVuSans-6e" d="M 3513 2113 
L 3513 0 
L 2938 0 
L 2938 2094 
Q 2938 2591 2744 2837 
Q 2550 3084 2163 3084 
Q 1697 3084 1428 2787 
Q 1159 2491 1159 1978 
L 1159 0 
L 581 0 
L 581 3500 
L 1159 3500 
L 1159 2956 
Q 1366 3272 1645 3428 
Q 1925 3584 2291 3584 
Q 2894 3584 3203 3211 
Q 3513 2838 3513 2113 
z
" transform="scale(0.015625)"/>
       <path id="DejaVuSans-64" d="M 2906 2969 
L 2906 4863 
L 3481 4863 
L 3481 0 
L 2906 0 
L 2906 525 
Q 2725 213 2448 61 
Q 2172 -91 1784 -91 
Q 1150 -91 751 415 
Q 353 922 353 1747 
Q 353 2572 751 3078 
Q 1150 3584 1784 3584 
Q 2172 3584 2448 3432 
Q 2725 3281 2906 2969 
z
M 947 1747 
Q 947 1113 1208 752 
Q 1469 391 1925 391 
Q 2381 391 2643 752 
Q 2906 1113 2906 1747 
Q 2906 2381 2643 2742 
Q 2381 3103 1925 3103 
Q 1469 3103 1208 2742 
Q 947 2381 947 1747 
z
" transform="scale(0.015625)"/>
       <path id="DejaVuSans-73" d="M 2834 3397 
L 2834 2853 
Q 2591 2978 2328 3040 
Q 2066 3103 1784 3103 
Q 1356 3103 1142 2972 
Q 928 2841 928 2578 
Q 928 2378 1081 2264 
Q 1234 2150 1697 2047 
L 1894 2003 
Q 2506 1872 2764 1633 
Q 3022 1394 3022 966 
Q 3022 478 2636 193 
Q 2250 -91 1575 -91 
Q 1294 -91 989 -36 
Q 684 19 347 128 
L 347 722 
Q 666 556 975 473 
Q 1284 391 1588 391 
Q 1994 391 2212 530 
Q 2431 669 2431 922 
Q 2431 1156 2273 1281 
Q 2116 1406 1581 1522 
L 1381 1569 
Q 847 1681 609 1914 
Q 372 2147 372 2553 
Q 372 3047 722 3315 
Q 1072 3584 1716 3584 
Q 2034 3584 2315 3537 
Q 2597 3491 2834 3397 
z
" transform="scale(0.015625)"/>
       <path id="DejaVuSans-68" d="M 3513 2113 
L 3513 0 
L 2938 0 
L 2938 2094 
Q 2938 2591 2744 2837 
Q 2550 3084 2163 3084 
Q 1697 3084 1428 2787 
Q 1159 2491 1159 1978 
L 1159 0 
L 581 0 
L 581 4863 
L 1159 4863 
L 1159 2956 
Q 1366 3272 1645 3428 
Q 1925 3584 2291 3584 
Q 2894 3584 3203 3211 
Q 3513 2838 3513 2113 
z
" transform="scale(0.015625)"/>
       <path id="DejaVuSans-20" transform="scale(0.015625)"/>
       <path id="DejaVuSans-75" d="M 544 1381 
L 544 3500 
L 1119 3500 
L 1119 1403 
Q 1119 906 1312 657 
Q 1506 409 1894 409 
Q 2359 409 2629 706 
Q 2900 1003 2900 1516 
L 2900 3500 
L 3475 3500 
L 3475 0 
L 2900 0 
L 2900 538 
Q 2691 219 2414 64 
Q 2138 -91 1772 -91 
Q 1169 -91 856 284 
Q 544 659 544 1381 
z
M 1991 3584 
L 1991 3584 
z
" transform="scale(0.015625)"/>
       <path id="DejaVuSans-72" d="M 2631 2963 
Q 2534 3019 2420 3045 
Q 2306 3072 2169 3072 
Q 1681 3072 1420 2755 
Q 1159 2438 1159 1844 
L 1159 0 
L 581 0 
L 581 3500 
L 1159 3500 
L 1159 2956 
Q 1341 3275 1631 3429 
Q 1922 3584 2338 3584 
Q 2397 3584 2469 3576 
Q 2541 3569 2628 3553 
L 2631 2963 
z
" transform="scale(0.015625)"/>
       <path id="DejaVuSans-74" d="M 1172 4494 
L 1172 3500 
L 2356 3500 
L 2356 3053 
L 1172 3053 
L 1172 1153 
Q 1172 725 1289 603 
Q 1406 481 1766 481 
L 2356 481 
L 2356 0 
L 1766 0 
Q 1100 0 847 248 
Q 594 497 594 1153 
L 594 3053 
L 172 3053 
L 172 3500 
L 594 3500 
L 594 4494 
L 1172 4494 
z
" transform="scale(0.015625)"/>
       <path id="DejaVuSans-69" d="M 603 3500 
L 1178 3500 
L 1178 0 
L 603 0 
L 603 3500 
z
M 603 4863 
L 1178 4863 
L 1178 4134 
L 603 4134 
L 603 4863 
z
" transform="scale(0.015625)"/>
       <path id="DejaVuSans-6f" d="M 1959 3097 
Q 1497 3097 1228 2736 
Q 959 2375 959 1747 
Q 959 1119 1226 758 
Q 1494 397 1959 397 
Q 2419 397 2687 759 
Q 2956 1122 2956 1747 
Q 2956 2369 2687 2733 
Q 2419 3097 1959 3097 
z
M 1959 3584 
Q 2709 3584 3137 3096 
Q 3566 2609 3566 1747 
Q 3566 888 3137 398 
Q 2709 -91 1959 -91 
Q 1206 -91 779 398 
Q 353 888 353 1747 
Q 353 2609 779 3096 
Q 1206 3584 1959 3584 
z
" transform="scale(0.015625)"/>
       <path id="DejaVuSans-28" d="M 1984 4856 
Q 1566 4138 1362 3434 
Q 1159 2731 1159 2009 
Q 1159 1288 1364 580 
Q 1569 -128 1984 -844 
L 1484 -844 
Q 1016 -109 783 600 
Q 550 1309 550 2009 
Q 550 2706 781 3412 
Q 1013 4119 1484 4856 
L 1984 4856 
z
" transform="scale(0.015625)"/>
       <path id="DejaVuSans-29" d="M 513 4856 
L 1013 4856 
Q 1481 4119 1714 3412 
Q 1947 2706 1947 2009 
Q 1947 1309 1714 600 
Q 1481 -109 1013 -844 
L 513 -844 
Q 928 -128 1133 580 
Q 1338 1288 1338 2009 
Q 1338 2731 1133 3434 
Q 928 4138 513 4856 
z
" transform="scale(0.015625)"/>
      </defs>
      <use xlink:href="#DejaVuSans-48"/>
      <use xlink:href="#DejaVuSans-61" x="75.195312"/>
      <use xlink:href="#DejaVuSans-6e" x="136.474609"/>
      <use xlink:href="#DejaVuSans-64" x="199.853516"/>
      <use xlink:href="#DejaVuSans-73" x="263.330078"/>
      <use xlink:href="#DejaVuSans-68" x="315.429688"/>
      <use xlink:href="#DejaVuSans-61" x="378.808594"/>
      <use xlink:href="#DejaVuSans-6b" x="440.087891"/>
      <use xlink:href="#DejaVuSans-65" x="494.373047"/>
      <use xlink:href="#DejaVuSans-20" x="555.896484"/>
      <use xlink:href="#DejaVuSans-64" x="587.683594"/>
      <use xlink:href="#DejaVuSans-75" x="651.160156"/>
      <use xlink:href="#DejaVuSans-72" x="714.539062"/>
      <use xlink:href="#DejaVuSans-61" x="755.652344"/>
      <use xlink:href="#DejaVuSans-74" x="816.931641"/>
      <use xlink:href="#DejaVuSans-69" x="856.140625"/>
      <use xlink:href="#DejaVuSans-6f" x="883.923828"/>
      <use xlink:href="#DejaVuSans-6e" x="945.105469"/>
      <use xlink:href="#DejaVuSans-20" x="1008.484375"/>
      <use xlink:href="#DejaVuSans-28" x="1040.271484"/>
      <use xlink:href="#DejaVuSans-6d" x="1079.285156"/>
      <use xlink:href="#DejaVuSans-73" x="1176.697266"/>
      <use xlink:href="#DejaVuSans-29" x="1228.796875"/>
     </g>
    </g>
   </g>
   <g id="PolyCollection_1">
    <defs>
     <path id="m7e966bb370" d="M 133.866011 -63.759055 
L 128.681989 -63.759055 
L 125.065742 -65.577568 
L 118.410193 -67.39608 
L 108.155423 -69.214593 
L 95.109266 -71.033105 
L 81.787087 -72.851618 
L 71.622738 -74.67013 
L 67.2948 -76.488643 
L 69.32417 -78.307156 
L 75.993546 -80.125668 
L 84.532125 -81.944181 
L 92.5689 -83.762693 
L 98.933726 -85.581206 
L 103.611699 -87.399719 
L 107.210123 -89.218231 
L 110.385502 -91.036744 
L 113.506746 -92.855256 
L 116.612028 -94.673769 
L 119.546468 -96.492281 
L 122.119782 -98.310794 
L 124.198289 -100.129307 
L 125.737401 -101.947819 
L 126.783768 -103.766332 
L 127.455525 -105.584844 
L 127.90173 -107.403357 
L 128.254045 -109.221869 
L 128.590554 -111.040382 
L 128.925207 -112.858895 
L 129.226154 -114.677407 
L 129.455521 -116.49592 
L 129.608924 -118.314432 
L 129.726135 -120.132945 
L 129.86295 -121.951457 
L 130.048951 -123.76997 
L 130.268721 -125.588483 
L 130.478724 -127.406995 
L 130.638917 -129.225508 
L 130.732962 -131.04402 
L 130.770241 -132.862533 
L 130.777456 -134.681045 
L 130.785817 -136.499558 
L 130.815747 -138.318071 
L 130.865308 -140.136583 
L 130.911848 -141.955096 
L 130.928272 -143.773608 
L 130.902298 -145.592121 
L 130.843832 -147.410634 
L 130.776072 -149.229146 
L 130.720092 -151.047659 
L 130.686838 -152.866171 
L 130.68094 -154.684684 
L 130.707518 -156.503196 
L 130.771213 -158.321709 
L 130.868138 -160.140222 
L 130.981623 -161.958734 
L 131.08863 -163.777247 
L 131.171515 -165.595759 
L 131.224881 -167.414272 
L 131.253667 -169.232784 
L 131.266748 -171.051297 
L 131.271775 -172.86981 
L 131.273414 -174.688322 
L 131.273867 -176.506835 
L 131.273974 -178.325347 
L 131.273996 -180.14386 
L 131.273999 -181.962372 
L 131.274 -183.780885 
L 131.274 -185.599398 
L 131.274 -187.41791 
L 131.274 -189.236423 
L 131.274 -191.054935 
L 131.274 -192.873448 
L 131.274 -194.69196 
L 131.274 -196.510473 
L 131.274 -198.328986 
L 131.274 -200.147498 
L 131.274 -201.966011 
L 131.274 -203.784523 
L 131.273998 -205.603036 
L 131.273988 -207.421549 
L 131.273936 -209.240061 
L 131.273707 -211.058574 
L 131.272855 -212.877086 
L 131.270172 -214.695599 
L 131.263053 -216.514111 
L 131.247181 -218.332624 
L 131.217584 -220.151137 
L 131.171682 -221.969649 
L 131.112908 -223.788162 
L 131.051381 -225.606674 
L 130.99959 -227.425187 
L 130.966272 -229.243699 
L 130.954345 -231.062212 
L 130.963956 -232.880725 
L 130.995033 -234.699237 
L 131.045151 -236.51775 
L 131.106211 -238.336262 
L 131.16586 -240.154775 
L 131.213438 -241.973287 
L 131.244741 -243.7918 
L 131.303259 -243.7918 
L 131.303259 -243.7918 
L 131.334562 -241.973287 
L 131.38214 -240.154775 
L 131.441789 -238.336262 
L 131.502849 -236.51775 
L 131.552967 -234.699237 
L 131.584044 -232.880725 
L 131.593655 -231.062212 
L 131.581728 -229.243699 
L 131.54841 -227.425187 
L 131.496619 -225.606674 
L 131.435092 -223.788162 
L 131.376318 -221.969649 
L 131.330416 -220.151137 
L 131.300819 -218.332624 
L 131.284947 -216.514111 
L 131.277828 -214.695599 
L 131.275145 -212.877086 
L 131.274293 -211.058574 
L 131.274064 -209.240061 
L 131.274012 -207.421549 
L 131.274002 -205.603036 
L 131.274 -203.784523 
L 131.274 -201.966011 
L 131.274 -200.147498 
L 131.274 -198.328986 
L 131.274 -196.510473 
L 131.274 -194.69196 
L 131.274 -192.873448 
L 131.274 -191.054935 
L 131.274 -189.236423 
L 131.274 -187.41791 
L 131.274 -185.599398 
L 131.274 -183.780885 
L 131.274001 -181.962372 
L 131.274004 -180.14386 
L 131.274026 -178.325347 
L 131.274133 -176.506835 
L 131.274586 -174.688322 
L 131.276225 -172.86981 
L 131.281252 -171.051297 
L 131.294333 -169.232784 
L 131.323119 -167.414272 
L 131.376485 -165.595759 
L 131.45937 -163.777247 
L 131.566377 -161.958734 
L 131.679862 -160.140222 
L 131.776787 -158.321709 
L 131.840482 -156.503196 
L 131.86706 -154.684684 
L 131.861162 -152.866171 
L 131.827908 -151.047659 
L 131.771928 -149.229146 
L 131.704168 -147.410634 
L 131.645702 -145.592121 
L 131.619728 -143.773608 
L 131.636152 -141.955096 
L 131.682692 -140.136583 
L 131.732253 -138.318071 
L 131.762183 -136.499558 
L 131.770544 -134.681045 
L 131.777759 -132.862533 
L 131.815038 -131.04402 
L 131.909083 -129.225508 
L 132.069276 -127.406995 
L 132.279279 -125.588483 
L 132.499049 -123.76997 
L 132.68505 -121.951457 
L 132.821865 -120.132945 
L 132.939076 -118.314432 
L 133.092479 -116.49592 
L 133.321846 -114.677407 
L 133.622793 -112.858895 
L 133.957446 -111.040382 
L 134.293955 -109.221869 
L 134.64627 -107.403357 
L 135.092475 -105.584844 
L 135.764232 -103.766332 
L 136.810599 -101.947819 
L 138.349711 -100.129307 
L 140.428218 -98.310794 
L 143.001532 -96.492281 
L 145.935972 -94.673769 
L 149.041254 -92.855256 
L 152.162498 -91.036744 
L 155.337877 -89.218231 
L 158.936301 -87.399719 
L 163.614274 -85.581206 
L 169.9791 -83.762693 
L 178.015875 -81.944181 
L 186.554454 -80.125668 
L 193.22383 -78.307156 
L 195.2532 -76.488643 
L 190.925262 -74.67013 
L 180.760913 -72.851618 
L 167.438734 -71.033105 
L 154.392577 -69.214593 
L 144.137807 -67.39608 
L 137.482258 -65.577568 
L 133.866011 -63.759055 
z
" style="stroke: #595959; stroke-width: 1.25"/>
    </defs>
    <g clip-path="url(#pcd1d60f6fa)">
     <use xlink:href="#m7e966bb370" x="0" y="432" style="fill: #72b6a1; stroke: #595959; stroke-width: 1.25"/>
    </g>
   </g>
   <g id="PolyCollection_2">
    <defs>
     <path id="m33b2723aa0" d="M 292.98103 -57.202581 
L 289.46297 -57.202581 
L 287.22229 -58.285147 
L 283.149432 -59.367712 
L 276.719524 -60.450278 
L 267.936983 -61.532843 
L 257.611674 -62.615409 
L 247.235224 -63.697974 
L 238.406362 -64.780539 
L 232.143453 -65.863105 
L 228.580607 -66.94567 
L 227.2428 -68.028236 
L 227.594374 -69.110801 
L 229.36074 -70.193367 
L 232.416854 -71.275932 
L 236.478946 -72.358497 
L 240.977449 -73.441063 
L 245.248615 -74.523628 
L 248.861037 -75.606194 
L 251.799791 -76.688759 
L 254.391308 -77.771325 
L 257.062803 -78.85389 
L 260.107665 -79.936455 
L 263.565719 -81.019021 
L 267.234602 -82.101586 
L 270.778778 -83.184152 
L 273.881133 -84.266717 
L 276.365809 -85.349283 
L 278.23333 -86.431848 
L 279.606153 -87.514413 
L 280.641504 -88.596979 
L 281.473949 -89.679544 
L 282.206417 -90.76211 
L 282.924538 -91.844675 
L 283.700117 -92.927241 
L 284.572139 -94.009806 
L 285.52361 -95.092371 
L 286.483221 -96.174937 
L 287.36099 -97.257502 
L 288.094656 -98.340068 
L 288.672692 -99.422633 
L 289.122462 -100.505199 
L 289.482619 -101.587764 
L 289.784955 -102.670329 
L 290.051771 -103.752895 
L 290.297802 -104.83546 
L 290.528396 -105.918026 
L 290.737669 -107.000591 
L 290.912944 -108.083157 
L 291.043912 -109.165722 
L 291.129063 -110.248287 
L 291.174939 -111.330853 
L 291.190438 -112.413418 
L 291.181402 -113.495984 
L 291.14918 -114.578549 
L 291.093576 -115.661115 
L 291.017883 -116.74368 
L 290.931983 -117.826245 
L 290.850344 -118.908811 
L 290.78572 -119.991376 
L 290.743641 -121.073942 
L 290.722188 -122.156507 
L 290.716075 -123.239073 
L 290.720185 -124.321638 
L 290.730364 -125.404203 
L 290.744088 -126.486769 
L 290.762833 -127.569334 
L 290.793105 -128.6519 
L 290.842313 -129.734465 
L 290.911608 -130.817031 
L 290.992443 -131.899596 
L 291.070517 -132.982161 
L 291.13356 -134.064727 
L 291.176541 -135.147292 
L 291.201485 -136.229858 
L 291.213884 -137.312423 
L 291.219188 -138.394989 
L 291.221147 -139.477554 
L 291.221773 -140.560119 
L 291.221947 -141.642685 
L 291.221989 -142.72525 
L 291.221996 -143.807816 
L 291.221991 -144.890381 
L 291.221954 -145.972946 
L 291.221802 -147.055512 
L 291.221244 -148.138077 
L 291.219479 -149.220643 
L 291.214639 -150.303208 
L 291.203197 -151.385774 
L 291.179971 -152.468339 
L 291.139792 -153.550904 
L 291.081297 -154.63347 
L 291.011274 -155.716035 
L 290.945838 -156.798601 
L 290.905309 -157.881166 
L 290.904212 -158.963732 
L 290.94296 -160.046297 
L 291.007601 -161.128862 
L 291.077852 -162.211428 
L 291.137195 -163.293993 
L 291.178342 -164.376559 
L 291.265658 -164.376559 
L 291.265658 -164.376559 
L 291.306805 -163.293993 
L 291.366148 -162.211428 
L 291.436399 -161.128862 
L 291.50104 -160.046297 
L 291.539788 -158.963732 
L 291.538691 -157.881166 
L 291.498162 -156.798601 
L 291.432726 -155.716035 
L 291.362703 -154.63347 
L 291.304208 -153.550904 
L 291.264029 -152.468339 
L 291.240803 -151.385774 
L 291.229361 -150.303208 
L 291.224521 -149.220643 
L 291.222756 -148.138077 
L 291.222198 -147.055512 
L 291.222046 -145.972946 
L 291.222009 -144.890381 
L 291.222004 -143.807816 
L 291.222011 -142.72525 
L 291.222053 -141.642685 
L 291.222227 -140.560119 
L 291.222853 -139.477554 
L 291.224812 -138.394989 
L 291.230116 -137.312423 
L 291.242515 -136.229858 
L 291.267459 -135.147292 
L 291.31044 -134.064727 
L 291.373483 -132.982161 
L 291.451557 -131.899596 
L 291.532392 -130.817031 
L 291.601687 -129.734465 
L 291.650895 -128.6519 
L 291.681167 -127.569334 
L 291.699912 -126.486769 
L 291.713636 -125.404203 
L 291.723815 -124.321638 
L 291.727925 -123.239073 
L 291.721812 -122.156507 
L 291.700359 -121.073942 
L 291.65828 -119.991376 
L 291.593656 -118.908811 
L 291.512017 -117.826245 
L 291.426117 -116.74368 
L 291.350424 -115.661115 
L 291.29482 -114.578549 
L 291.262598 -113.495984 
L 291.253562 -112.413418 
L 291.269061 -111.330853 
L 291.314937 -110.248287 
L 291.400088 -109.165722 
L 291.531056 -108.083157 
L 291.706331 -107.000591 
L 291.915604 -105.918026 
L 292.146198 -104.83546 
L 292.392229 -103.752895 
L 292.659045 -102.670329 
L 292.961381 -101.587764 
L 293.321538 -100.505199 
L 293.771308 -99.422633 
L 294.349344 -98.340068 
L 295.08301 -97.257502 
L 295.960779 -96.174937 
L 296.92039 -95.092371 
L 297.871861 -94.009806 
L 298.743883 -92.927241 
L 299.519462 -91.844675 
L 300.237583 -90.76211 
L 300.970051 -89.679544 
L 301.802496 -88.596979 
L 302.837847 -87.514413 
L 304.21067 -86.431848 
L 306.078191 -85.349283 
L 308.562867 -84.266717 
L 311.665222 -83.184152 
L 315.209398 -82.101586 
L 318.878281 -81.019021 
L 322.336335 -79.936455 
L 325.381197 -78.85389 
L 328.052692 -77.771325 
L 330.644209 -76.688759 
L 333.582963 -75.606194 
L 337.195385 -74.523628 
L 341.466551 -73.441063 
L 345.965054 -72.358497 
L 350.027146 -71.275932 
L 353.08326 -70.193367 
L 354.849626 -69.110801 
L 355.2012 -68.028236 
L 353.863393 -66.94567 
L 350.300547 -65.863105 
L 344.037638 -64.780539 
L 335.208776 -63.697974 
L 324.832326 -62.615409 
L 314.507017 -61.532843 
L 305.724476 -60.450278 
L 299.294568 -59.367712 
L 295.22171 -58.285147 
L 292.98103 -57.202581 
z
" style="stroke: #595959; stroke-width: 1.25"/>
    </defs>
    <g clip-path="url(#pcd1d60f6fa)">
     <use xlink:href="#m33b2723aa0" x="0" y="432" style="fill: #e99675; stroke: #595959; stroke-width: 1.25"/>
    </g>
   </g>
   <g id="PolyCollection_3">
    <defs>
     <path id="m03f39e0e3f" d="M 453.61982 -98.296508 
L 448.72018 -98.296508 
L 447.062307 -101.219711 
L 444.607366 -104.142915 
L 441.172973 -107.066118 
L 436.638026 -109.989321 
L 430.993319 -112.912524 
L 424.382696 -115.835728 
L 417.119061 -118.758931 
L 409.663853 -121.682134 
L 402.568587 -124.605338 
L 396.389407 -127.528541 
L 391.595351 -130.451744 
L 388.493765 -133.374948 
L 387.1908 -136.298151 
L 387.593554 -139.221354 
L 389.448197 -142.144558 
L 392.399964 -145.067761 
L 396.058536 -147.990964 
L 400.055326 -150.914168 
L 404.084698 -153.837371 
L 407.926616 -156.760574 
L 411.451934 -159.683778 
L 414.613599 -162.606981 
L 417.42798 -165.530184 
L 419.951077 -168.453388 
L 422.254452 -171.376591 
L 424.405239 -174.299794 
L 426.453169 -177.222997 
L 428.425517 -180.146201 
L 430.328754 -183.069404 
L 432.154176 -185.992607 
L 433.884429 -188.915811 
L 435.498584 -191.839014 
L 436.974886 -194.762217 
L 438.291769 -197.685421 
L 439.428554 -200.608624 
L 440.367169 -203.531827 
L 441.095378 -206.455031 
L 441.610823 -209.378234 
L 441.924354 -212.301437 
L 442.060992 -215.224641 
L 442.057591 -218.147844 
L 441.957489 -221.071047 
L 441.803611 -223.994251 
L 441.632133 -226.917454 
L 441.468601 -229.840657 
L 441.327482 -232.763861 
L 441.21495 -235.687064 
L 441.133677 -238.610267 
L 441.08792 -241.53347 
L 441.087301 -244.456674 
L 441.148162 -247.379877 
L 441.292051 -250.30308 
L 441.541639 -253.226284 
L 441.914962 -256.149487 
L 442.419449 -259.07269 
L 443.047447 -261.995894 
L 443.774798 -264.919097 
L 444.563318 -267.8423 
L 445.366909 -270.765504 
L 446.139852 -273.688707 
L 446.84501 -276.61191 
L 447.459649 -279.535114 
L 447.977378 -282.458317 
L 448.406005 -285.38152 
L 448.762412 -288.304724 
L 449.066399 -291.227927 
L 449.335425 -294.15113 
L 449.581538 -297.074334 
L 449.810781 -299.997537 
L 450.024459 -302.92074 
L 450.221215 -305.843943 
L 450.39896 -308.767147 
L 450.556086 -311.69035 
L 450.691907 -314.613553 
L 450.806585 -317.536757 
L 450.900863 -320.45996 
L 450.975837 -323.383163 
L 451.03281 -326.306367 
L 451.0732 -329.22957 
L 451.098433 -332.152773 
L 451.109846 -335.075977 
L 451.108653 -337.99918 
L 451.096055 -340.922383 
L 451.073514 -343.845587 
L 451.04312 -346.76879 
L 451.007886 -349.691993 
L 450.971804 -352.615197 
L 450.939512 -355.5384 
L 450.915601 -358.461603 
L 450.903721 -361.384807 
L 450.905772 -364.30801 
L 450.921462 -367.231213 
L 450.948406 -370.154416 
L 450.982729 -373.07762 
L 451.019988 -376.000823 
L 451.056101 -378.924026 
L 451.088029 -381.84723 
L 451.114084 -384.770433 
L 451.133846 -387.693636 
L 451.206154 -387.693636 
L 451.206154 -387.693636 
L 451.225916 -384.770433 
L 451.251971 -381.84723 
L 451.283899 -378.924026 
L 451.320012 -376.000823 
L 451.357271 -373.07762 
L 451.391594 -370.154416 
L 451.418538 -367.231213 
L 451.434228 -364.30801 
L 451.436279 -361.384807 
L 451.424399 -358.461603 
L 451.400488 -355.5384 
L 451.368196 -352.615197 
L 451.332114 -349.691993 
L 451.29688 -346.76879 
L 451.266486 -343.845587 
L 451.243945 -340.922383 
L 451.231347 -337.99918 
L 451.230154 -335.075977 
L 451.241567 -332.152773 
L 451.2668 -329.22957 
L 451.30719 -326.306367 
L 451.364163 -323.383163 
L 451.439137 -320.45996 
L 451.533415 -317.536757 
L 451.648093 -314.613553 
L 451.783914 -311.69035 
L 451.94104 -308.767147 
L 452.118785 -305.843943 
L 452.315541 -302.92074 
L 452.529219 -299.997537 
L 452.758462 -297.074334 
L 453.004575 -294.15113 
L 453.273601 -291.227927 
L 453.577588 -288.304724 
L 453.933995 -285.38152 
L 454.362622 -282.458317 
L 454.880351 -279.535114 
L 455.49499 -276.61191 
L 456.200148 -273.688707 
L 456.973091 -270.765504 
L 457.776682 -267.8423 
L 458.565202 -264.919097 
L 459.292553 -261.995894 
L 459.920551 -259.07269 
L 460.425038 -256.149487 
L 460.798361 -253.226284 
L 461.047949 -250.30308 
L 461.191838 -247.379877 
L 461.252699 -244.456674 
L 461.25208 -241.53347 
L 461.206323 -238.610267 
L 461.12505 -235.687064 
L 461.012518 -232.763861 
L 460.871399 -229.840657 
L 460.707867 -226.917454 
L 460.536389 -223.994251 
L 460.382511 -221.071047 
L 460.282409 -218.147844 
L 460.279008 -215.224641 
L 460.415646 -212.301437 
L 460.729177 -209.378234 
L 461.244622 -206.455031 
L 461.972831 -203.531827 
L 462.911446 -200.608624 
L 464.048231 -197.685421 
L 465.365114 -194.762217 
L 466.841416 -191.839014 
L 468.455571 -188.915811 
L 470.185824 -185.992607 
L 472.011246 -183.069404 
L 473.914483 -180.146201 
L 475.886831 -177.222997 
L 477.934761 -174.299794 
L 480.085548 -171.376591 
L 482.388923 -168.453388 
L 484.91202 -165.530184 
L 487.726401 -162.606981 
L 490.888066 -159.683778 
L 494.413384 -156.760574 
L 498.255302 -153.837371 
L 502.284674 -150.914168 
L 506.281464 -147.990964 
L 509.940036 -145.067761 
L 512.891803 -142.144558 
L 514.746446 -139.221354 
L 515.1492 -136.298151 
L 513.846235 -133.374948 
L 510.744649 -130.451744 
L 505.950593 -127.528541 
L 499.771413 -124.605338 
L 492.676147 -121.682134 
L 485.220939 -118.758931 
L 477.957304 -115.835728 
L 471.346681 -112.912524 
L 465.701974 -109.989321 
L 461.167027 -107.066118 
L 457.732634 -104.142915 
L 455.277693 -101.219711 
L 453.61982 -98.296508 
z
" style="stroke: #595959; stroke-width: 1.25"/>
    </defs>
    <g clip-path="url(#pcd1d60f6fa)">
     <use xlink:href="#m03f39e0e3f" x="0" y="432" style="fill: #95a3c3; stroke: #595959; stroke-width: 1.25"/>
    </g>
   </g>
   <g id="PolyCollection_4">
    <defs>
     <path id="m2c00142d9a" d="M 613.253858 -71.137846 
L 608.982142 -71.137846 
L 607.225282 -71.904592 
L 604.448616 -72.671338 
L 600.370285 -73.438085 
L 594.815252 -74.204831 
L 587.819134 -74.971577 
L 579.706507 -75.738324 
L 571.09981 -76.50507 
L 562.831796 -77.271816 
L 555.772154 -78.038563 
L 550.621513 -78.805309 
L 547.749288 -79.572055 
L 547.1388 -80.338802 
L 548.456671 -81.105548 
L 551.207729 -81.872294 
L 554.902213 -82.639041 
L 559.166926 -83.405787 
L 563.77008 -84.172533 
L 568.576139 -84.939279 
L 573.475612 -85.706026 
L 578.33376 -86.472772 
L 582.978915 -87.239518 
L 587.22397 -88.006265 
L 590.899563 -88.773011 
L 593.879274 -89.539757 
L 596.089567 -90.306504 
L 597.509526 -91.07325 
L 598.169957 -91.839996 
L 598.157072 -92.606743 
L 597.61742 -93.373489 
L 596.75454 -94.140235 
L 595.808735 -94.906982 
L 595.019307 -95.673728 
L 594.57922 -96.440474 
L 594.598686 -97.207221 
L 595.09218 -97.973967 
L 595.993279 -98.740713 
L 597.189126 -99.50746 
L 598.558533 -100.274206 
L 599.998901 -101.040952 
L 601.435623 -101.807699 
L 602.817683 -102.574445 
L 604.108591 -103.341191 
L 605.280556 -104.107938 
L 606.314316 -104.874684 
L 607.201821 -105.64143 
L 607.947426 -106.408177 
L 608.565263 -107.174923 
L 609.073773 -107.941669 
L 609.490275 -108.708416 
L 609.827962 -109.475162 
L 610.095777 -110.241908 
L 610.299875 -111.008654 
L 610.444991 -111.775401 
L 610.534912 -112.542147 
L 610.572493 -113.308893 
L 610.560259 -114.07564 
L 610.502172 -114.842386 
L 610.40607 -115.609132 
L 610.285354 -116.375879 
L 610.15845 -117.142625 
L 610.045536 -117.909371 
L 609.963521 -118.676118 
L 609.921378 -119.442864 
L 609.917986 -120.20961 
L 609.943485 -120.976357 
L 609.983462 -121.743103 
L 610.024025 -122.509849 
L 610.055652 -123.276596 
L 610.074623 -124.043342 
L 610.082221 -124.810088 
L 610.082856 -125.576835 
L 610.082363 -126.343581 
L 610.087079 -127.110327 
L 610.103487 -127.877074 
L 610.137734 -128.64382 
L 610.19454 -129.410566 
L 610.275636 -130.177313 
L 610.378428 -130.944059 
L 610.49568 -131.710805 
L 610.616566 -132.477552 
L 610.728769 -133.244298 
L 610.820853 -134.011044 
L 610.88416 -134.77779 
L 610.91389 -135.544537 
L 610.909527 -136.311283 
L 610.874896 -137.078029 
L 610.81802 -137.844776 
L 610.750525 -138.611522 
L 610.68622 -139.378268 
L 610.638716 -140.145015 
L 610.618505 -140.911761 
L 610.630455 -141.678507 
L 610.672723 -142.445254 
L 610.737622 -143.212 
L 610.814116 -143.978746 
L 610.89097 -144.745493 
L 610.95939 -145.512239 
L 611.014379 -146.278985 
L 611.054695 -147.045732 
L 611.181305 -147.045732 
L 611.181305 -147.045732 
L 611.221621 -146.278985 
L 611.27661 -145.512239 
L 611.34503 -144.745493 
L 611.421884 -143.978746 
L 611.498378 -143.212 
L 611.563277 -142.445254 
L 611.605545 -141.678507 
L 611.617495 -140.911761 
L 611.597284 -140.145015 
L 611.54978 -139.378268 
L 611.485475 -138.611522 
L 611.41798 -137.844776 
L 611.361104 -137.078029 
L 611.326473 -136.311283 
L 611.32211 -135.544537 
L 611.35184 -134.77779 
L 611.415147 -134.011044 
L 611.507231 -133.244298 
L 611.619434 -132.477552 
L 611.74032 -131.710805 
L 611.857572 -130.944059 
L 611.960364 -130.177313 
L 612.04146 -129.410566 
L 612.098266 -128.64382 
L 612.132513 -127.877074 
L 612.148921 -127.110327 
L 612.153637 -126.343581 
L 612.153144 -125.576835 
L 612.153779 -124.810088 
L 612.161377 -124.043342 
L 612.180348 -123.276596 
L 612.211975 -122.509849 
L 612.252538 -121.743103 
L 612.292515 -120.976357 
L 612.318014 -120.20961 
L 612.314622 -119.442864 
L 612.272479 -118.676118 
L 612.190464 -117.909371 
L 612.07755 -117.142625 
L 611.950646 -116.375879 
L 611.82993 -115.609132 
L 611.733828 -114.842386 
L 611.675741 -114.07564 
L 611.663507 -113.308893 
L 611.701088 -112.542147 
L 611.791009 -111.775401 
L 611.936125 -111.008654 
L 612.140223 -110.241908 
L 612.408038 -109.475162 
L 612.745725 -108.708416 
L 613.162227 -107.941669 
L 613.670737 -107.174923 
L 614.288574 -106.408177 
L 615.034179 -105.64143 
L 615.921684 -104.874684 
L 616.955444 -104.107938 
L 618.127409 -103.341191 
L 619.418317 -102.574445 
L 620.800377 -101.807699 
L 622.237099 -101.040952 
L 623.677467 -100.274206 
L 625.046874 -99.50746 
L 626.242721 -98.740713 
L 627.14382 -97.973967 
L 627.637314 -97.207221 
L 627.65678 -96.440474 
L 627.216693 -95.673728 
L 626.427265 -94.906982 
L 625.48146 -94.140235 
L 624.61858 -93.373489 
L 624.078928 -92.606743 
L 624.066043 -91.839996 
L 624.726474 -91.07325 
L 626.146433 -90.306504 
L 628.356726 -89.539757 
L 631.336437 -88.773011 
L 635.01203 -88.006265 
L 639.257085 -87.239518 
L 643.90224 -86.472772 
L 648.760388 -85.706026 
L 653.659861 -84.939279 
L 658.46592 -84.172533 
L 663.069074 -83.405787 
L 667.333787 -82.639041 
L 671.028271 -81.872294 
L 673.779329 -81.105548 
L 675.0972 -80.338802 
L 674.486712 -79.572055 
L 671.614487 -78.805309 
L 666.463846 -78.038563 
L 659.404204 -77.271816 
L 651.13619 -76.50507 
L 642.529493 -75.738324 
L 634.416866 -74.971577 
L 627.420748 -74.204831 
L 621.865715 -73.438085 
L 617.787384 -72.671338 
L 615.010718 -71.904592 
L 613.253858 -71.137846 
z
" style="stroke: #595959; stroke-width: 1.25"/>
    </defs>
    <g clip-path="url(#pcd1d60f6fa)">
     <use xlink:href="#m2c00142d9a" x="0" y="432" style="fill: #db96c0; stroke: #595959; stroke-width: 1.25"/>
    </g>
   </g>
   <g id="PolyCollection_5">
    <defs>
     <path id="m86ac3a7f1c" d="M 772.631844 -53.566364 
L 769.500156 -53.566364 
L 765.75283 -54.563322 
L 757.068411 -55.56028 
L 742.294307 -56.557239 
L 724.519842 -57.554197 
L 710.863714 -58.551155 
L 707.0868 -59.548114 
L 712.702363 -60.545072 
L 722.690001 -61.54203 
L 732.735952 -62.538989 
L 741.254004 -63.535947 
L 747.789235 -64.532905 
L 751.799409 -65.529864 
L 753.298823 -66.526822 
L 753.56624 -67.52378 
L 754.383804 -68.520739 
L 756.589909 -69.517697 
L 759.649128 -70.514655 
L 762.507621 -71.511614 
L 764.546864 -72.508572 
L 765.774891 -73.50553 
L 766.505298 -74.502489 
L 767.067863 -75.499447 
L 767.665946 -76.496405 
L 768.317078 -77.493364 
L 768.919478 -78.490322 
L 769.398703 -79.48728 
L 769.768163 -80.484239 
L 770.07163 -81.481197 
L 770.328821 -82.478155 
L 770.542933 -83.475114 
L 770.716105 -84.472072 
L 770.839898 -85.46903 
L 770.895781 -86.465989 
L 770.883698 -87.462947 
L 770.842821 -88.459905 
L 770.829481 -89.456864 
L 770.869687 -90.453822 
L 770.941386 -91.45078 
L 771.005813 -92.447739 
L 771.043906 -93.444697 
L 771.059837 -94.441655 
L 771.064694 -95.438614 
L 771.06579 -96.435572 
L 771.065974 -97.43253 
L 771.065998 -98.429489 
L 771.066 -99.426447 
L 771.066 -100.423405 
L 771.066 -101.420364 
L 771.066 -102.417322 
L 771.066 -103.41428 
L 771.066 -104.411239 
L 771.066 -105.408197 
L 771.066 -106.405155 
L 771.066 -107.402114 
L 771.066 -108.399072 
L 771.066 -109.39603 
L 771.066 -110.392989 
L 771.066 -111.389947 
L 771.066 -112.386905 
L 771.066 -113.383864 
L 771.066 -114.380822 
L 771.066 -115.37778 
L 771.066 -116.374739 
L 771.066 -117.371697 
L 771.066 -118.368655 
L 771.066 -119.365614 
L 771.066 -120.362572 
L 771.066 -121.35953 
L 771.066 -122.356489 
L 771.066 -123.353447 
L 771.066 -124.350405 
L 771.066 -125.347364 
L 771.066 -126.344322 
L 771.066 -127.34128 
L 771.066 -128.338239 
L 771.066 -129.335197 
L 771.066 -130.332155 
L 771.066 -131.329114 
L 771.066 -132.326072 
L 771.066 -133.32303 
L 771.066 -134.319989 
L 771.066 -135.316947 
L 771.066 -136.313905 
L 771.066 -137.310864 
L 771.066 -138.307822 
L 771.065998 -139.30478 
L 771.065976 -140.301739 
L 771.065804 -141.298697 
L 771.06477 -142.295655 
L 771.060139 -143.292614 
L 771.044784 -144.289572 
L 771.007644 -145.28653 
L 770.944041 -146.283489 
L 770.872331 -147.280447 
L 770.832318 -148.277405 
L 770.851757 -149.274364 
L 770.916754 -150.271322 
L 770.987002 -151.26828 
L 771.034228 -152.265239 
L 771.097772 -152.265239 
L 771.097772 -152.265239 
L 771.144998 -151.26828 
L 771.215246 -150.271322 
L 771.280243 -149.274364 
L 771.299682 -148.277405 
L 771.259669 -147.280447 
L 771.187959 -146.283489 
L 771.124356 -145.28653 
L 771.087216 -144.289572 
L 771.071861 -143.292614 
L 771.06723 -142.295655 
L 771.066196 -141.298697 
L 771.066024 -140.301739 
L 771.066002 -139.30478 
L 771.066 -138.307822 
L 771.066 -137.310864 
L 771.066 -136.313905 
L 771.066 -135.316947 
L 771.066 -134.319989 
L 771.066 -133.32303 
L 771.066 -132.326072 
L 771.066 -131.329114 
L 771.066 -130.332155 
L 771.066 -129.335197 
L 771.066 -128.338239 
L 771.066 -127.34128 
L 771.066 -126.344322 
L 771.066 -125.347364 
L 771.066 -124.350405 
L 771.066 -123.353447 
L 771.066 -122.356489 
L 771.066 -121.35953 
L 771.066 -120.362572 
L 771.066 -119.365614 
L 771.066 -118.368655 
L 771.066 -117.371697 
L 771.066 -116.374739 
L 771.066 -115.37778 
L 771.066 -114.380822 
L 771.066 -113.383864 
L 771.066 -112.386905 
L 771.066 -111.389947 
L 771.066 -110.392989 
L 771.066 -109.39603 
L 771.066 -108.399072 
L 771.066 -107.402114 
L 771.066 -106.405155 
L 771.066 -105.408197 
L 771.066 -104.411239 
L 771.066 -103.41428 
L 771.066 -102.417322 
L 771.066 -101.420364 
L 771.066 -100.423405 
L 771.066 -99.426447 
L 771.066002 -98.429489 
L 771.066026 -97.43253 
L 771.06621 -96.435572 
L 771.067306 -95.438614 
L 771.072163 -94.441655 
L 771.088094 -93.444697 
L 771.126187 -92.447739 
L 771.190614 -91.45078 
L 771.262313 -90.453822 
L 771.302519 -89.456864 
L 771.289179 -88.459905 
L 771.248302 -87.462947 
L 771.236219 -86.465989 
L 771.292102 -85.46903 
L 771.415895 -84.472072 
L 771.589067 -83.475114 
L 771.803179 -82.478155 
L 772.06037 -81.481197 
L 772.363837 -80.484239 
L 772.733297 -79.48728 
L 773.212522 -78.490322 
L 773.814922 -77.493364 
L 774.466054 -76.496405 
L 775.064137 -75.499447 
L 775.626702 -74.502489 
L 776.357109 -73.50553 
L 777.585136 -72.508572 
L 779.624379 -71.511614 
L 782.482872 -70.514655 
L 785.542091 -69.517697 
L 787.748196 -68.520739 
L 788.56576 -67.52378 
L 788.833177 -66.526822 
L 790.332591 -65.529864 
L 794.342765 -64.532905 
L 800.877996 -63.535947 
L 809.396048 -62.538989 
L 819.441999 -61.54203 
L 829.429637 -60.545072 
L 835.0452 -59.548114 
L 831.268286 -58.551155 
L 817.612158 -57.554197 
L 799.837693 -56.557239 
L 785.063589 -55.56028 
L 776.37917 -54.563322 
L 772.631844 -53.566364 
z
" style="stroke: #595959; stroke-width: 1.25"/>
    </defs>
    <g clip-path="url(#pcd1d60f6fa)">
     <use xlink:href="#m86ac3a7f1c" x="0" y="432" style="fill: #a2c865; stroke: #595959; stroke-width: 1.25"/>
    </g>
   </g>
   <g id="line2d_8">
    <path d="M 131.274 356.814629 
L 131.274 359.078338 
" clip-path="url(#pcd1d60f6fa)" style="fill: none; stroke: #000000"/>
   </g>
   <g id="line2d_9">
    <path d="M 131.274 344.905553 
L 131.274 328.321428 
" clip-path="url(#pcd1d60f6fa)" style="fill: none; stroke: #000000"/>
   </g>
   <g id="line2d_10">
    <path d="M 125.27595 359.078338 
L 137.27205 359.078338 
" clip-path="url(#pcd1d60f6fa)" style="fill: none; stroke: #000000; stroke-linecap: round"/>
   </g>
   <g id="line2d_11">
    <path d="M 125.27595 328.321428 
L 137.27205 328.321428 
" clip-path="url(#pcd1d60f6fa)" style="fill: none; stroke: #000000; stroke-linecap: round"/>
   </g>
   <g id="line2d_12">
    <path d="M 291.222 365.118995 
L 291.222 368.871338 
" clip-path="url(#pcd1d60f6fa)" style="fill: none; stroke: #000000"/>
   </g>
   <g id="line2d_13">
    <path d="M 291.222 354.009599 
L 291.222 337.868372 
" clip-path="url(#pcd1d60f6fa)" style="fill: none; stroke: #000000"/>
   </g>
   <g id="line2d_14">
    <path d="M 285.22395 368.871338 
L 297.22005 368.871338 
" clip-path="url(#pcd1d60f6fa)" style="fill: none; stroke: #000000; stroke-linecap: round"/>
   </g>
   <g id="line2d_15">
    <path d="M 285.22395 337.868372 
L 297.22005 337.868372 
" clip-path="url(#pcd1d60f6fa)" style="fill: none; stroke: #000000; stroke-linecap: round"/>
   </g>
   <g id="line2d_16">
    <path d="M 451.17 299.003941 
L 451.17 308.440161 
" clip-path="url(#pcd1d60f6fa)" style="fill: none; stroke: #000000"/>
   </g>
   <g id="line2d_17">
    <path d="M 451.17 251.392244 
L 451.17 180.196149 
" clip-path="url(#pcd1d60f6fa)" style="fill: none; stroke: #000000"/>
   </g>
   <g id="line2d_18">
    <path d="M 445.17195 308.440161 
L 457.16805 308.440161 
" clip-path="url(#pcd1d60f6fa)" style="fill: none; stroke: #000000; stroke-linecap: round"/>
   </g>
   <g id="line2d_19">
    <path d="M 445.17195 180.196149 
L 457.16805 180.196149 
" clip-path="url(#pcd1d60f6fa)" style="fill: none; stroke: #000000; stroke-linecap: round"/>
   </g>
   <g id="line2d_20">
    <path d="M 611.118 352.890047 
L 611.118 354.944609 
" clip-path="url(#pcd1d60f6fa)" style="fill: none; stroke: #000000"/>
   </g>
   <g id="line2d_21">
    <path d="M 611.118 343.232377 
L 611.118 328.813538 
" clip-path="url(#pcd1d60f6fa)" style="fill: none; stroke: #000000"/>
   </g>
   <g id="line2d_22">
    <path d="M 605.11995 354.944609 
L 617.11605 354.944609 
" clip-path="url(#pcd1d60f6fa)" style="fill: none; stroke: #000000; stroke-linecap: round"/>
   </g>
   <g id="line2d_23">
    <path d="M 605.11995 328.813538 
L 617.11605 328.813538 
" clip-path="url(#pcd1d60f6fa)" style="fill: none; stroke: #000000; stroke-linecap: round"/>
   </g>
   <g id="line2d_24">
    <path d="M 771.066 373.201911 
L 771.066 374.629031 
" clip-path="url(#pcd1d60f6fa)" style="fill: none; stroke: #000000"/>
   </g>
   <g id="line2d_25">
    <path d="M 771.066 367.431914 
L 771.066 358.783071 
" clip-path="url(#pcd1d60f6fa)" style="fill: none; stroke: #000000"/>
   </g>
   <g id="line2d_26">
    <path d="M 765.06795 374.629031 
L 777.06405 374.629031 
" clip-path="url(#pcd1d60f6fa)" style="fill: none; stroke: #000000; stroke-linecap: round"/>
   </g>
   <g id="line2d_27">
    <path d="M 765.06795 358.783071 
L 777.06405 358.783071 
" clip-path="url(#pcd1d60f6fa)" style="fill: none; stroke: #000000; stroke-linecap: round"/>
   </g>
   <g id="line2d_28">
    <path d="M 119.2779 353.542094 
L 143.2701 353.542094 
" clip-path="url(#pcd1d60f6fa)" style="fill: none; stroke: #ff0000; stroke-width: 2"/>
   </g>
   <g id="line2d_29">
    <path d="M 279.2259 360.653091 
L 303.2181 360.653091 
" clip-path="url(#pcd1d60f6fa)" style="fill: none; stroke: #ff0000; stroke-width: 2"/>
   </g>
   <g id="line2d_30">
    <path d="M 439.1739 283.736211 
L 463.1661 283.736211 
" clip-path="url(#pcd1d60f6fa)" style="fill: none; stroke: #ff0000; stroke-width: 2"/>
   </g>
   <g id="line2d_31">
    <path d="M 599.1219 348.990071 
L 623.1141 348.990071 
" clip-path="url(#pcd1d60f6fa)" style="fill: none; stroke: #ff0000; stroke-width: 2"/>
   </g>
   <g id="line2d_32">
    <path d="M 759.0699 371.381102 
L 783.0621 371.381102 
" clip-path="url(#pcd1d60f6fa)" style="fill: none; stroke: #ff0000; stroke-width: 2"/>
   </g>
   <g id="patch_3">
    <path d="M 51.3 395.14 
L 51.3 27.6 
" style="fill: none; stroke: #cccccc; stroke-width: 1.25; stroke-linejoin: miter; stroke-linecap: square"/>
   </g>
   <g id="patch_4">
    <path d="M 851.04 395.14 
L 851.04 27.6 
" style="fill: none; stroke: #cccccc; stroke-width: 1.25; stroke-linejoin: miter; stroke-linecap: square"/>
   </g>
   <g id="patch_5">
    <path d="M 51.3 395.14 
L 851.04 395.14 
" style="fill: none; stroke: #cccccc; stroke-width: 1.25; stroke-linejoin: miter; stroke-linecap: square"/>
   </g>
   <g id="patch_6">
    <path d="M 51.3 27.6 
L 851.04 27.6 
" style="fill: none; stroke: #cccccc; stroke-width: 1.25; stroke-linejoin: miter; stroke-linecap: square"/>
   </g>
   <g id="text_14">
    <!-- Handshake duration on QUIC with secp384r1 signature algorithm — ideal conditions -->
    <g style="fill: #262626" transform="translate(197.96625 21.6) scale(0.12 -0.12)">
     <defs>
      <path id="DejaVuSans-51" d="M 2522 4238 
Q 1834 4238 1429 3725 
Q 1025 3213 1025 2328 
Q 1025 1447 1429 934 
Q 1834 422 2522 422 
Q 3209 422 3611 934 
Q 4013 1447 4013 2328 
Q 4013 3213 3611 3725 
Q 3209 4238 2522 4238 
z
M 3406 84 
L 4238 -825 
L 3475 -825 
L 2784 -78 
Q 2681 -84 2626 -87 
Q 2572 -91 2522 -91 
Q 1538 -91 948 567 
Q 359 1225 359 2328 
Q 359 3434 948 4092 
Q 1538 4750 2522 4750 
Q 3503 4750 4090 4092 
Q 4678 3434 4678 2328 
Q 4678 1516 4351 937 
Q 4025 359 3406 84 
z
" transform="scale(0.015625)"/>
      <path id="DejaVuSans-55" d="M 556 4666 
L 1191 4666 
L 1191 1831 
Q 1191 1081 1462 751 
Q 1734 422 2344 422 
Q 2950 422 3222 751 
Q 3494 1081 3494 1831 
L 3494 4666 
L 4128 4666 
L 4128 1753 
Q 4128 841 3676 375 
Q 3225 -91 2344 -91 
Q 1459 -91 1007 375 
Q 556 841 556 1753 
L 556 4666 
z
" transform="scale(0.015625)"/>
      <path id="DejaVuSans-49" d="M 628 4666 
L 1259 4666 
L 1259 0 
L 628 0 
L 628 4666 
z
" transform="scale(0.015625)"/>
      <path id="DejaVuSans-43" d="M 4122 4306 
L 4122 3641 
Q 3803 3938 3442 4084 
Q 3081 4231 2675 4231 
Q 1875 4231 1450 3742 
Q 1025 3253 1025 2328 
Q 1025 1406 1450 917 
Q 1875 428 2675 428 
Q 3081 428 3442 575 
Q 3803 722 4122 1019 
L 4122 359 
Q 3791 134 3420 21 
Q 3050 -91 2638 -91 
Q 1578 -91 968 557 
Q 359 1206 359 2328 
Q 359 3453 968 4101 
Q 1578 4750 2638 4750 
Q 3056 4750 3426 4639 
Q 3797 4528 4122 4306 
z
" transform="scale(0.015625)"/>
      <path id="DejaVuSans-77" d="M 269 3500 
L 844 3500 
L 1563 769 
L 2278 3500 
L 2956 3500 
L 3675 769 
L 4391 3500 
L 4966 3500 
L 4050 0 
L 3372 0 
L 2619 2869 
L 1863 0 
L 1184 0 
L 269 3500 
z
" transform="scale(0.015625)"/>
      <path id="DejaVuSans-63" d="M 3122 3366 
L 3122 2828 
Q 2878 2963 2633 3030 
Q 2388 3097 2138 3097 
Q 1578 3097 1268 2742 
Q 959 2388 959 1747 
Q 959 1106 1268 751 
Q 1578 397 2138 397 
Q 2388 397 2633 464 
Q 2878 531 3122 666 
L 3122 134 
Q 2881 22 2623 -34 
Q 2366 -91 2075 -91 
Q 1284 -91 818 406 
Q 353 903 353 1747 
Q 353 2603 823 3093 
Q 1294 3584 2113 3584 
Q 2378 3584 2631 3529 
Q 2884 3475 3122 3366 
z
" transform="scale(0.015625)"/>
      <path id="DejaVuSans-67" d="M 2906 1791 
Q 2906 2416 2648 2759 
Q 2391 3103 1925 3103 
Q 1463 3103 1205 2759 
Q 947 2416 947 1791 
Q 947 1169 1205 825 
Q 1463 481 1925 481 
Q 2391 481 2648 825 
Q 2906 1169 2906 1791 
z
M 3481 434 
Q 3481 -459 3084 -895 
Q 2688 -1331 1869 -1331 
Q 1566 -1331 1297 -1286 
Q 1028 -1241 775 -1147 
L 775 -588 
Q 1028 -725 1275 -790 
Q 1522 -856 1778 -856 
Q 2344 -856 2625 -561 
Q 2906 -266 2906 331 
L 2906 616 
Q 2728 306 2450 153 
Q 2172 0 1784 0 
Q 1141 0 747 490 
Q 353 981 353 1791 
Q 353 2603 747 3093 
Q 1141 3584 1784 3584 
Q 2172 3584 2450 3431 
Q 2728 3278 2906 2969 
L 2906 3500 
L 3481 3500 
L 3481 434 
z
" transform="scale(0.015625)"/>
      <path id="DejaVuSans-2014" d="M 313 1978 
L 6088 1978 
L 6088 1528 
L 313 1528 
L 313 1978 
z
" transform="scale(0.015625)"/>
     </defs>
     <use xlink:href="#DejaVuSans-48"/>
     <use xlink:href="#DejaVuSans-61" x="75.195312"/>
     <use xlink:href="#DejaVuSans-6e" x="136.474609"/>
     <use xlink:href="#DejaVuSans-64" x="199.853516"/>
     <use xlink:href="#DejaVuSans-73" x="263.330078"/>
     <use xlink:href="#DejaVuSans-68" x="315.429688"/>
     <use xlink:href="#DejaVuSans-61" x="378.808594"/>
     <use xlink:href="#DejaVuSans-6b" x="440.087891"/>
     <use xlink:href="#DejaVuSans-65" x="494.373047"/>
     <use xlink:href="#DejaVuSans-20" x="555.896484"/>
     <use xlink:href="#DejaVuSans-64" x="587.683594"/>
     <use xlink:href="#DejaVuSans-75" x="651.160156"/>
     <use xlink:href="#DejaVuSans-72" x="714.539062"/>
     <use xlink:href="#DejaVuSans-61" x="755.652344"/>
     <use xlink:href="#DejaVuSans-74" x="816.931641"/>
     <use xlink:href="#DejaVuSans-69" x="856.140625"/>
     <use xlink:href="#DejaVuSans-6f" x="883.923828"/>
     <use xlink:href="#DejaVuSans-6e" x="945.105469"/>
     <use xlink:href="#DejaVuSans-20" x="1008.484375"/>
     <use xlink:href="#DejaVuSans-6f" x="1040.271484"/>
     <use xlink:href="#DejaVuSans-6e" x="1101.453125"/>
     <use xlink:href="#DejaVuSans-20" x="1164.832031"/>
     <use xlink:href="#DejaVuSans-51" x="1196.619141"/>
     <use xlink:href="#DejaVuSans-55" x="1275.330078"/>
     <use xlink:href="#DejaVuSans-49" x="1348.523438"/>
     <use xlink:href="#DejaVuSans-43" x="1378.015625"/>
     <use xlink:href="#DejaVuSans-20" x="1447.839844"/>
     <use xlink:href="#DejaVuSans-77" x="1479.626953"/>
     <use xlink:href="#DejaVuSans-69" x="1561.414062"/>
     <use xlink:href="#DejaVuSans-74" x="1589.197266"/>
     <use xlink:href="#DejaVuSans-68" x="1628.40625"/>
     <use xlink:href="#DejaVuSans-20" x="1691.785156"/>
     <use xlink:href="#DejaVuSans-73" x="1723.572266"/>
     <use xlink:href="#DejaVuSans-65" x="1775.671875"/>
     <use xlink:href="#DejaVuSans-63" x="1837.195312"/>
     <use xlink:href="#DejaVuSans-70" x="1892.175781"/>
     <use xlink:href="#DejaVuSans-33" x="1955.652344"/>
     <use xlink:href="#DejaVuSans-38" x="2019.275391"/>
     <use xlink:href="#DejaVuSans-34" x="2082.898438"/>
     <use xlink:href="#DejaVuSans-72" x="2146.521484"/>
     <use xlink:href="#DejaVuSans-31" x="2187.634766"/>
     <use xlink:href="#DejaVuSans-20" x="2251.257812"/>
     <use xlink:href="#DejaVuSans-73" x="2283.044922"/>
     <use xlink:href="#DejaVuSans-69" x="2335.144531"/>
     <use xlink:href="#DejaVuSans-67" x="2362.927734"/>
     <use xlink:href="#DejaVuSans-6e" x="2426.404297"/>
     <use xlink:href="#DejaVuSans-61" x="2489.783203"/>
     <use xlink:href="#DejaVuSans-74" x="2551.0625"/>
     <use xlink:href="#DejaVuSans-75" x="2590.271484"/>
     <use xlink:href="#DejaVuSans-72" x="2653.650391"/>
     <use xlink:href="#DejaVuSans-65" x="2692.513672"/>
     <use xlink:href="#DejaVuSans-20" x="2754.037109"/>
     <use xlink:href="#DejaVuSans-61" x="2785.824219"/>
     <use xlink:href="#DejaVuSans-6c" x="2847.103516"/>
     <use xlink:href="#DejaVuSans-67" x="2874.886719"/>
     <use xlink:href="#DejaVuSans-6f" x="2938.363281"/>
     <use xlink:href="#DejaVuSans-72" x="2999.544922"/>
     <use xlink:href="#DejaVuSans-69" x="3040.658203"/>
     <use xlink:href="#DejaVuSans-74" x="3068.441406"/>
     <use xlink:href="#DejaVuSans-68" x="3107.650391"/>
     <use xlink:href="#DejaVuSans-6d" x="3171.029297"/>
     <use xlink:href="#DejaVuSans-20" x="3268.441406"/>
     <use xlink:href="#DejaVuSans-2014" x="3300.228516"/>
     <use xlink:href="#DejaVuSans-20" x="3400.228516"/>
     <use xlink:href="#DejaVuSans-69" x="3432.015625"/>
     <use xlink:href="#DejaVuSans-64" x="3459.798828"/>
     <use xlink:href="#DejaVuSans-65" x="3523.275391"/>
     <use xlink:href="#DejaVuSans-61" x="3584.798828"/>
     <use xlink:href="#DejaVuSans-6c" x="3646.078125"/>
     <use xlink:href="#DejaVuSans-20" x="3673.861328"/>
     <use xlink:href="#DejaVuSans-63" x="3705.648438"/>
     <use xlink:href="#DejaVuSans-6f" x="3760.628906"/>
     <use xlink:href="#DejaVuSans-6e" x="3821.810547"/>
     <use xlink:href="#DejaVuSans-64" x="3885.189453"/>
     <use xlink:href="#DejaVuSans-69" x="3948.666016"/>
     <use xlink:href="#DejaVuSans-74" x="3976.449219"/>
     <use xlink:href="#DejaVuSans-69" x="4015.658203"/>
     <use xlink:href="#DejaVuSans-6f" x="4043.441406"/>
     <use xlink:href="#DejaVuSans-6e" x="4104.623047"/>
     <use xlink:href="#DejaVuSans-73" x="4168.001953"/>
    </g>
   </g>
  </g>
 </g>
 <defs>
  <clipPath id="pcd1d60f6fa">
   <rect x="51.3" y="27.6" width="799.74" height="367.54"/>
  </clipPath>
 </defs>
</svg>
