<?xml version="1.0" encoding="utf-8" standalone="no"?>
<!DOCTYPE svg PUBLIC "-//W3C//DTD SVG 1.1//EN"
  "http://www.w3.org/Graphics/SVG/1.1/DTD/svg11.dtd">
<svg xmlns:xlink="http://www.w3.org/1999/xlink" width="864pt" height="432pt" viewBox="0 0 864 432" xmlns="http://www.w3.org/2000/svg" version="1.1">
 <metadata>
  <rdf:RDF xmlns:dc="http://purl.org/dc/elements/1.1/" xmlns:cc="http://creativecommons.org/ns#" xmlns:rdf="http://www.w3.org/1999/02/22-rdf-syntax-ns#">
   <cc:Work>
    <dc:type rdf:resource="http://purl.org/dc/dcmitype/StillImage"/>
    <dc:date>2026-03-21T13:58:50.839281</dc:date>
    <dc:format>image/svg+xml</dc:format>
    <dc:creator>
     <cc:Agent>
      <dc:title>Matplotlib v3.6.3, https://matplotlib.org/</dc:title>
     </cc:Agent>
    </dc:creator>
   </cc:Work>
  </rdf:RDF>
 </metadata>
 <defs>
  <style type="text/css">*{stroke-linejoin: round; stroke-linecap: butt}</style>
 </defs>
 <g id="figure_1">
  <g id="patch_1">
   <path d="M 0 432 
L 864 432 
L 864 0 
L 0 0 
z
" style="fill: #ffffff"/>
  </g>
  <g id="axes_1">
   <g id="patch_2">
    <path d="M 58.32 395.14 
L 851.04 395.14 
L 851.04 27.6 
L 58.32 27.6 
z
" style="fill: #ffffff"/>
   </g>
   <g id="matplotlib.axis_1">
    <g id="xtick_1">
     <g id="text_1">
      <!-- P-384 -->
      <g style="fill: #262626" transform="translate(117.642 415.277812) scale(0.14 -0.14)">
       <defs>
        <path id="DejaVuSans-50" d="M 1259 4147 
L 1259 2394 
L 2053 2394 
Q 2494 2394 2734 2622 
Q 2975 2850 2975 3272 
Q 2975 3691 2734 3919 
Q 2494 4147 2053 4147 
L 1259 4147 
z
M 628 4666 
L 2053 4666 
Q 2838 4666 3239 4311 
Q 3641 3956 3641 3272 
Q 3641 2581 3239 2228 
Q 2838 1875 2053 1875 
L 1259 1875 
L 1259 0 
L 628 0 
L 628 4666 
z
" transform="scale(0.015625)"/>
        <path id="DejaVuSans-2d" d="M 313 2009 
L 1997 2009 
L 1997 1497 
L 313 1497 
L 313 2009 
z
" transform="scale(0.015625)"/>
        <path id="DejaVuSans-33" d="M 2597 2516 
Q 3050 2419 3304 2112 
Q 3559 1806 3559 1356 
Q 3559 666 3084 287 
Q 2609 -91 1734 -91 
Q 1441 -91 1130 -33 
Q 819 25 488 141 
L 488 750 
Q 750 597 1062 519 
Q 1375 441 1716 441 
Q 2309 441 2620 675 
Q 2931 909 2931 1356 
Q 2931 1769 2642 2001 
Q 2353 2234 1838 2234 
L 1294 2234 
L 1294 2753 
L 1863 2753 
Q 2328 2753 2575 2939 
Q 2822 3125 2822 3475 
Q 2822 3834 2567 4026 
Q 2313 4219 1838 4219 
Q 1578 4219 1281 4162 
Q 984 4106 628 3988 
L 628 4550 
Q 988 4650 1302 4700 
Q 1616 4750 1894 4750 
Q 2613 4750 3031 4423 
Q 3450 4097 3450 3541 
Q 3450 3153 3228 2886 
Q 3006 2619 2597 2516 
z
" transform="scale(0.015625)"/>
        <path id="DejaVuSans-38" d="M 2034 2216 
Q 1584 2216 1326 1975 
Q 1069 1734 1069 1313 
Q 1069 891 1326 650 
Q 1584 409 2034 409 
Q 2484 409 2743 651 
Q 3003 894 3003 1313 
Q 3003 1734 2745 1975 
Q 2488 2216 2034 2216 
z
M 1403 2484 
Q 997 2584 770 2862 
Q 544 3141 544 3541 
Q 544 4100 942 4425 
Q 1341 4750 2034 4750 
Q 2731 4750 3128 4425 
Q 3525 4100 3525 3541 
Q 3525 3141 3298 2862 
Q 3072 2584 2669 2484 
Q 3125 2378 3379 2068 
Q 3634 1759 3634 1313 
Q 3634 634 3220 271 
Q 2806 -91 2034 -91 
Q 1263 -91 848 271 
Q 434 634 434 1313 
Q 434 1759 690 2068 
Q 947 2378 1403 2484 
z
M 1172 3481 
Q 1172 3119 1398 2916 
Q 1625 2713 2034 2713 
Q 2441 2713 2670 2916 
Q 2900 3119 2900 3481 
Q 2900 3844 2670 4047 
Q 2441 4250 2034 4250 
Q 1625 4250 1398 4047 
Q 1172 3844 1172 3481 
z
" transform="scale(0.015625)"/>
        <path id="DejaVuSans-34" d="M 2419 4116 
L 825 1625 
L 2419 1625 
L 2419 4116 
z
M 2253 4666 
L 3047 4666 
L 3047 1625 
L 3713 1625 
L 3713 1100 
L 3047 1100 
L 3047 0 
L 2419 0 
L 2419 1100 
L 313 1100 
L 313 1709 
L 2253 4666 
z
" transform="scale(0.015625)"/>
       </defs>
       <use xlink:href="#DejaVuSans-50"/>
       <use xlink:href="#DejaVuSans-2d" x="58.052734"/>
       <use xlink:href="#DejaVuSans-33" x="94.136719"/>
       <use xlink:href="#DejaVuSans-38" x="157.759766"/>
       <use xlink:href="#DejaVuSans-34" x="221.382812"/>
      </g>
     </g>
    </g>
    <g id="xtick_2">
     <g id="text_2">
      <!-- x448 -->
      <g style="fill: #262626" transform="translate(278.631625 415.277812) scale(0.14 -0.14)">
       <defs>
        <path id="DejaVuSans-78" d="M 3513 3500 
L 2247 1797 
L 3578 0 
L 2900 0 
L 1881 1375 
L 863 0 
L 184 0 
L 1544 1831 
L 300 3500 
L 978 3500 
L 1906 2253 
L 2834 3500 
L 3513 3500 
z
" transform="scale(0.015625)"/>
       </defs>
       <use xlink:href="#DejaVuSans-78"/>
       <use xlink:href="#DejaVuSans-34" x="59.179688"/>
       <use xlink:href="#DejaVuSans-34" x="122.802734"/>
       <use xlink:href="#DejaVuSans-38" x="186.425781"/>
      </g>
     </g>
    </g>
    <g id="xtick_3">
     <g id="text_3">
      <!-- p384_mlkem768 -->
      <g style="fill: #262626" transform="translate(396.325156 415.277812) scale(0.14 -0.14)">
       <defs>
        <path id="DejaVuSans-70" d="M 1159 525 
L 1159 -1331 
L 581 -1331 
L 581 3500 
L 1159 3500 
L 1159 2969 
Q 1341 3281 1617 3432 
Q 1894 3584 2278 3584 
Q 2916 3584 3314 3078 
Q 3713 2572 3713 1747 
Q 3713 922 3314 415 
Q 2916 -91 2278 -91 
Q 1894 -91 1617 61 
Q 1341 213 1159 525 
z
M 3116 1747 
Q 3116 2381 2855 2742 
Q 2594 3103 2138 3103 
Q 1681 3103 1420 2742 
Q 1159 2381 1159 1747 
Q 1159 1113 1420 752 
Q 1681 391 2138 391 
Q 2594 391 2855 752 
Q 3116 1113 3116 1747 
z
" transform="scale(0.015625)"/>
        <path id="DejaVuSans-5f" d="M 3263 -1063 
L 3263 -1509 
L -63 -1509 
L -63 -1063 
L 3263 -1063 
z
" transform="scale(0.015625)"/>
        <path id="DejaVuSans-6d" d="M 3328 2828 
Q 3544 3216 3844 3400 
Q 4144 3584 4550 3584 
Q 5097 3584 5394 3201 
Q 5691 2819 5691 2113 
L 5691 0 
L 5113 0 
L 5113 2094 
Q 5113 2597 4934 2840 
Q 4756 3084 4391 3084 
Q 3944 3084 3684 2787 
Q 3425 2491 3425 1978 
L 3425 0 
L 2847 0 
L 2847 2094 
Q 2847 2600 2669 2842 
Q 2491 3084 2119 3084 
Q 1678 3084 1418 2786 
Q 1159 2488 1159 1978 
L 1159 0 
L 581 0 
L 581 3500 
L 1159 3500 
L 1159 2956 
Q 1356 3278 1631 3431 
Q 1906 3584 2284 3584 
Q 2666 3584 2933 3390 
Q 3200 3197 3328 2828 
z
" transform="scale(0.015625)"/>
        <path id="DejaVuSans-6c" d="M 603 4863 
L 1178 4863 
L 1178 0 
L 603 0 
L 603 4863 
z
" transform="scale(0.015625)"/>
        <path id="DejaVuSans-6b" d="M 581 4863 
L 1159 4863 
L 1159 1991 
L 2875 3500 
L 3609 3500 
L 1753 1863 
L 3688 0 
L 2938 0 
L 1159 1709 
L 1159 0 
L 581 0 
L 581 4863 
z
" transform="scale(0.015625)"/>
        <path id="DejaVuSans-65" d="M 3597 1894 
L 3597 1613 
L 953 1613 
Q 991 1019 1311 708 
Q 1631 397 2203 397 
Q 2534 397 2845 478 
Q 3156 559 3463 722 
L 3463 178 
Q 3153 47 2828 -22 
Q 2503 -91 2169 -91 
Q 1331 -91 842 396 
Q 353 884 353 1716 
Q 353 2575 817 3079 
Q 1281 3584 2069 3584 
Q 2775 3584 3186 3129 
Q 3597 2675 3597 1894 
z
M 3022 2063 
Q 3016 2534 2758 2815 
Q 2500 3097 2075 3097 
Q 1594 3097 1305 2825 
Q 1016 2553 972 2059 
L 3022 2063 
z
" transform="scale(0.015625)"/>
        <path id="DejaVuSans-37" d="M 525 4666 
L 3525 4666 
L 3525 4397 
L 1831 0 
L 1172 0 
L 2766 4134 
L 525 4134 
L 525 4666 
z
" transform="scale(0.015625)"/>
        <path id="DejaVuSans-36" d="M 2113 2584 
Q 1688 2584 1439 2293 
Q 1191 2003 1191 1497 
Q 1191 994 1439 701 
Q 1688 409 2113 409 
Q 2538 409 2786 701 
Q 3034 994 3034 1497 
Q 3034 2003 2786 2293 
Q 2538 2584 2113 2584 
z
M 3366 4563 
L 3366 3988 
Q 3128 4100 2886 4159 
Q 2644 4219 2406 4219 
Q 1781 4219 1451 3797 
Q 1122 3375 1075 2522 
Q 1259 2794 1537 2939 
Q 1816 3084 2150 3084 
Q 2853 3084 3261 2657 
Q 3669 2231 3669 1497 
Q 3669 778 3244 343 
Q 2819 -91 2113 -91 
Q 1303 -91 875 529 
Q 447 1150 447 2328 
Q 447 3434 972 4092 
Q 1497 4750 2381 4750 
Q 2619 4750 2861 4703 
Q 3103 4656 3366 4563 
z
" transform="scale(0.015625)"/>
       </defs>
       <use xlink:href="#DejaVuSans-70"/>
       <use xlink:href="#DejaVuSans-33" x="63.476562"/>
       <use xlink:href="#DejaVuSans-38" x="127.099609"/>
       <use xlink:href="#DejaVuSans-34" x="190.722656"/>
       <use xlink:href="#DejaVuSans-5f" x="254.345703"/>
       <use xlink:href="#DejaVuSans-6d" x="304.345703"/>
       <use xlink:href="#DejaVuSans-6c" x="401.757812"/>
       <use xlink:href="#DejaVuSans-6b" x="429.541016"/>
       <use xlink:href="#DejaVuSans-65" x="483.826172"/>
       <use xlink:href="#DejaVuSans-6d" x="545.349609"/>
       <use xlink:href="#DejaVuSans-37" x="642.761719"/>
       <use xlink:href="#DejaVuSans-36" x="706.384766"/>
       <use xlink:href="#DejaVuSans-38" x="770.007812"/>
      </g>
     </g>
    </g>
    <g id="xtick_4">
     <g id="text_4">
      <!-- x448_mlkem768 -->
      <g style="fill: #262626" transform="translate(555.169937 415.277812) scale(0.14 -0.14)">
       <use xlink:href="#DejaVuSans-78"/>
       <use xlink:href="#DejaVuSans-34" x="59.179688"/>
       <use xlink:href="#DejaVuSans-34" x="122.802734"/>
       <use xlink:href="#DejaVuSans-38" x="186.425781"/>
       <use xlink:href="#DejaVuSans-5f" x="250.048828"/>
       <use xlink:href="#DejaVuSans-6d" x="300.048828"/>
       <use xlink:href="#DejaVuSans-6c" x="397.460938"/>
       <use xlink:href="#DejaVuSans-6b" x="425.244141"/>
       <use xlink:href="#DejaVuSans-65" x="479.529297"/>
       <use xlink:href="#DejaVuSans-6d" x="541.052734"/>
       <use xlink:href="#DejaVuSans-37" x="638.464844"/>
       <use xlink:href="#DejaVuSans-36" x="702.087891"/>
       <use xlink:href="#DejaVuSans-38" x="765.710938"/>
      </g>
     </g>
    </g>
    <g id="xtick_5">
     <g id="text_5">
      <!-- mlkem768 -->
      <g style="fill: #262626" transform="translate(734.718312 415.277812) scale(0.14 -0.14)">
       <use xlink:href="#DejaVuSans-6d"/>
       <use xlink:href="#DejaVuSans-6c" x="97.412109"/>
       <use xlink:href="#DejaVuSans-6b" x="125.195312"/>
       <use xlink:href="#DejaVuSans-65" x="179.480469"/>
       <use xlink:href="#DejaVuSans-6d" x="241.003906"/>
       <use xlink:href="#DejaVuSans-37" x="338.416016"/>
       <use xlink:href="#DejaVuSans-36" x="402.039062"/>
       <use xlink:href="#DejaVuSans-38" x="465.662109"/>
      </g>
     </g>
    </g>
   </g>
   <g id="matplotlib.axis_2">
    <g id="ytick_1">
     <g id="line2d_1">
      <path d="M 58.32 372.325752 
L 851.04 372.325752 
" clip-path="url(#p819fb835ef)" style="fill: none; stroke: #cccccc; stroke-linecap: round"/>
     </g>
     <g id="text_6">
      <!-- 400 -->
      <g style="fill: #262626" transform="translate(27.82375 376.504893) scale(0.11 -0.11)">
       <defs>
        <path id="DejaVuSans-30" d="M 2034 4250 
Q 1547 4250 1301 3770 
Q 1056 3291 1056 2328 
Q 1056 1369 1301 889 
Q 1547 409 2034 409 
Q 2525 409 2770 889 
Q 3016 1369 3016 2328 
Q 3016 3291 2770 3770 
Q 2525 4250 2034 4250 
z
M 2034 4750 
Q 2819 4750 3233 4129 
Q 3647 3509 3647 2328 
Q 3647 1150 3233 529 
Q 2819 -91 2034 -91 
Q 1250 -91 836 529 
Q 422 1150 422 2328 
Q 422 3509 836 4129 
Q 1250 4750 2034 4750 
z
" transform="scale(0.015625)"/>
       </defs>
       <use xlink:href="#DejaVuSans-34"/>
       <use xlink:href="#DejaVuSans-30" x="63.623047"/>
       <use xlink:href="#DejaVuSans-30" x="127.246094"/>
      </g>
     </g>
    </g>
    <g id="ytick_2">
     <g id="line2d_2">
      <path d="M 58.32 295.595588 
L 851.04 295.595588 
" clip-path="url(#p819fb835ef)" style="fill: none; stroke: #cccccc; stroke-linecap: round"/>
     </g>
     <g id="text_7">
      <!-- 500 -->
      <g style="fill: #262626" transform="translate(27.82375 299.774729) scale(0.11 -0.11)">
       <defs>
        <path id="DejaVuSans-35" d="M 691 4666 
L 3169 4666 
L 3169 4134 
L 1269 4134 
L 1269 2991 
Q 1406 3038 1543 3061 
Q 1681 3084 1819 3084 
Q 2600 3084 3056 2656 
Q 3513 2228 3513 1497 
Q 3513 744 3044 326 
Q 2575 -91 1722 -91 
Q 1428 -91 1123 -41 
Q 819 9 494 109 
L 494 744 
Q 775 591 1075 516 
Q 1375 441 1709 441 
Q 2250 441 2565 725 
Q 2881 1009 2881 1497 
Q 2881 1984 2565 2268 
Q 2250 2553 1709 2553 
Q 1456 2553 1204 2497 
Q 953 2441 691 2322 
L 691 4666 
z
" transform="scale(0.015625)"/>
       </defs>
       <use xlink:href="#DejaVuSans-35"/>
       <use xlink:href="#DejaVuSans-30" x="63.623047"/>
       <use xlink:href="#DejaVuSans-30" x="127.246094"/>
      </g>
     </g>
    </g>
    <g id="ytick_3">
     <g id="line2d_3">
      <path d="M 58.32 218.865425 
L 851.04 218.865425 
" clip-path="url(#p819fb835ef)" style="fill: none; stroke: #cccccc; stroke-linecap: round"/>
     </g>
     <g id="text_8">
      <!-- 600 -->
      <g style="fill: #262626" transform="translate(27.82375 223.044565) scale(0.11 -0.11)">
       <use xlink:href="#DejaVuSans-36"/>
       <use xlink:href="#DejaVuSans-30" x="63.623047"/>
       <use xlink:href="#DejaVuSans-30" x="127.246094"/>
      </g>
     </g>
    </g>
    <g id="ytick_4">
     <g id="line2d_4">
      <path d="M 58.32 142.135261 
L 851.04 142.135261 
" clip-path="url(#p819fb835ef)" style="fill: none; stroke: #cccccc; stroke-linecap: round"/>
     </g>
     <g id="text_9">
      <!-- 700 -->
      <g style="fill: #262626" transform="translate(27.82375 146.314402) scale(0.11 -0.11)">
       <use xlink:href="#DejaVuSans-37"/>
       <use xlink:href="#DejaVuSans-30" x="63.623047"/>
       <use xlink:href="#DejaVuSans-30" x="127.246094"/>
      </g>
     </g>
    </g>
    <g id="ytick_5">
     <g id="line2d_5">
      <path d="M 58.32 65.405097 
L 851.04 65.405097 
" clip-path="url(#p819fb835ef)" style="fill: none; stroke: #cccccc; stroke-linecap: round"/>
     </g>
     <g id="text_10">
      <!-- 800 -->
      <g style="fill: #262626" transform="translate(27.82375 69.584238) scale(0.11 -0.11)">
       <use xlink:href="#DejaVuSans-38"/>
       <use xlink:href="#DejaVuSans-30" x="63.623047"/>
       <use xlink:href="#DejaVuSans-30" x="127.246094"/>
      </g>
     </g>
    </g>
    <g id="text_11">
     <!-- Handshake duration (ms) -->
     <g style="fill: #262626" transform="translate(21.328125 287.437813) rotate(-90) scale(0.12 -0.12)">
      <defs>
       <path id="DejaVuSans-48" d="M 628 4666 
L 1259 4666 
L 1259 2753 
L 3553 2753 
L 3553 4666 
L 4184 4666 
L 4184 0 
L 3553 0 
L 3553 2222 
L 1259 2222 
L 1259 0 
L 628 0 
L 628 4666 
z
" transform="scale(0.015625)"/>
       <path id="DejaVuSans-61" d="M 2194 1759 
Q 1497 1759 1228 1600 
Q 959 1441 959 1056 
Q 959 750 1161 570 
Q 1363 391 1709 391 
Q 2188 391 2477 730 
Q 2766 1069 2766 1631 
L 2766 1759 
L 2194 1759 
z
M 3341 1997 
L 3341 0 
L 2766 0 
L 2766 531 
Q 2569 213 2275 61 
Q 1981 -91 1556 -91 
Q 1019 -91 701 211 
Q 384 513 384 1019 
Q 384 1609 779 1909 
Q 1175 2209 1959 2209 
L 2766 2209 
L 2766 2266 
Q 2766 2663 2505 2880 
Q 2244 3097 1772 3097 
Q 1472 3097 1187 3025 
Q 903 2953 641 2809 
L 641 3341 
Q 956 3463 1253 3523 
Q 1550 3584 1831 3584 
Q 2591 3584 2966 3190 
Q 3341 2797 3341 1997 
z
" transform="scale(0.015625)"/>
       <path id="DejaVuSans-6e" d="M 3513 2113 
L 3513 0 
L 2938 0 
L 2938 2094 
Q 2938 2591 2744 2837 
Q 2550 3084 2163 3084 
Q 1697 3084 1428 2787 
Q 1159 2491 1159 1978 
L 1159 0 
L 581 0 
L 581 3500 
L 1159 3500 
L 1159 2956 
Q 1366 3272 1645 3428 
Q 1925 3584 2291 3584 
Q 2894 3584 3203 3211 
Q 3513 2838 3513 2113 
z
" transform="scale(0.015625)"/>
       <path id="DejaVuSans-64" d="M 2906 2969 
L 2906 4863 
L 3481 4863 
L 3481 0 
L 2906 0 
L 2906 525 
Q 2725 213 2448 61 
Q 2172 -91 1784 -91 
Q 1150 -91 751 415 
Q 353 922 353 1747 
Q 353 2572 751 3078 
Q 1150 3584 1784 3584 
Q 2172 3584 2448 3432 
Q 2725 3281 2906 2969 
z
M 947 1747 
Q 947 1113 1208 752 
Q 1469 391 1925 391 
Q 2381 391 2643 752 
Q 2906 1113 2906 1747 
Q 2906 2381 2643 2742 
Q 2381 3103 1925 3103 
Q 1469 3103 1208 2742 
Q 947 2381 947 1747 
z
" transform="scale(0.015625)"/>
       <path id="DejaVuSans-73" d="M 2834 3397 
L 2834 2853 
Q 2591 2978 2328 3040 
Q 2066 3103 1784 3103 
Q 1356 3103 1142 2972 
Q 928 2841 928 2578 
Q 928 2378 1081 2264 
Q 1234 2150 1697 2047 
L 1894 2003 
Q 2506 1872 2764 1633 
Q 3022 1394 3022 966 
Q 3022 478 2636 193 
Q 2250 -91 1575 -91 
Q 1294 -91 989 -36 
Q 684 19 347 128 
L 347 722 
Q 666 556 975 473 
Q 1284 391 1588 391 
Q 1994 391 2212 530 
Q 2431 669 2431 922 
Q 2431 1156 2273 1281 
Q 2116 1406 1581 1522 
L 1381 1569 
Q 847 1681 609 1914 
Q 372 2147 372 2553 
Q 372 3047 722 3315 
Q 1072 3584 1716 3584 
Q 2034 3584 2315 3537 
Q 2597 3491 2834 3397 
z
" transform="scale(0.015625)"/>
       <path id="DejaVuSans-68" d="M 3513 2113 
L 3513 0 
L 2938 0 
L 2938 2094 
Q 2938 2591 2744 2837 
Q 2550 3084 2163 3084 
Q 1697 3084 1428 2787 
Q 1159 2491 1159 1978 
L 1159 0 
L 581 0 
L 581 4863 
L 1159 4863 
L 1159 2956 
Q 1366 3272 1645 3428 
Q 1925 3584 2291 3584 
Q 2894 3584 3203 3211 
Q 3513 2838 3513 2113 
z
" transform="scale(0.015625)"/>
       <path id="DejaVuSans-20" transform="scale(0.015625)"/>
       <path id="DejaVuSans-75" d="M 544 1381 
L 544 3500 
L 1119 3500 
L 1119 1403 
Q 1119 906 1312 657 
Q 1506 409 1894 409 
Q 2359 409 2629 706 
Q 2900 1003 2900 1516 
L 2900 3500 
L 3475 3500 
L 3475 0 
L 2900 0 
L 2900 538 
Q 2691 219 2414 64 
Q 2138 -91 1772 -91 
Q 1169 -91 856 284 
Q 544 659 544 1381 
z
M 1991 3584 
L 1991 3584 
z
" transform="scale(0.015625)"/>
       <path id="DejaVuSans-72" d="M 2631 2963 
Q 2534 3019 2420 3045 
Q 2306 3072 2169 3072 
Q 1681 3072 1420 2755 
Q 1159 2438 1159 1844 
L 1159 0 
L 581 0 
L 581 3500 
L 1159 3500 
L 1159 2956 
Q 1341 3275 1631 3429 
Q 1922 3584 2338 3584 
Q 2397 3584 2469 3576 
Q 2541 3569 2628 3553 
L 2631 2963 
z
" transform="scale(0.015625)"/>
       <path id="DejaVuSans-74" d="M 1172 4494 
L 1172 3500 
L 2356 3500 
L 2356 3053 
L 1172 3053 
L 1172 1153 
Q 1172 725 1289 603 
Q 1406 481 1766 481 
L 2356 481 
L 2356 0 
L 1766 0 
Q 1100 0 847 248 
Q 594 497 594 1153 
L 594 3053 
L 172 3053 
L 172 3500 
L 594 3500 
L 594 4494 
L 1172 4494 
z
" transform="scale(0.015625)"/>
       <path id="DejaVuSans-69" d="M 603 3500 
L 1178 3500 
L 1178 0 
L 603 0 
L 603 3500 
z
M 603 4863 
L 1178 4863 
L 1178 4134 
L 603 4134 
L 603 4863 
z
" transform="scale(0.015625)"/>
       <path id="DejaVuSans-6f" d="M 1959 3097 
Q 1497 3097 1228 2736 
Q 959 2375 959 1747 
Q 959 1119 1226 758 
Q 1494 397 1959 397 
Q 2419 397 2687 759 
Q 2956 1122 2956 1747 
Q 2956 2369 2687 2733 
Q 2419 3097 1959 3097 
z
M 1959 3584 
Q 2709 3584 3137 3096 
Q 3566 2609 3566 1747 
Q 3566 888 3137 398 
Q 2709 -91 1959 -91 
Q 1206 -91 779 398 
Q 353 888 353 1747 
Q 353 2609 779 3096 
Q 1206 3584 1959 3584 
z
" transform="scale(0.015625)"/>
       <path id="DejaVuSans-28" d="M 1984 4856 
Q 1566 4138 1362 3434 
Q 1159 2731 1159 2009 
Q 1159 1288 1364 580 
Q 1569 -128 1984 -844 
L 1484 -844 
Q 1016 -109 783 600 
Q 550 1309 550 2009 
Q 550 2706 781 3412 
Q 1013 4119 1484 4856 
L 1984 4856 
z
" transform="scale(0.015625)"/>
       <path id="DejaVuSans-29" d="M 513 4856 
L 1013 4856 
Q 1481 4119 1714 3412 
Q 1947 2706 1947 2009 
Q 1947 1309 1714 600 
Q 1481 -109 1013 -844 
L 513 -844 
Q 928 -128 1133 580 
Q 1338 1288 1338 2009 
Q 1338 2731 1133 3434 
Q 928 4138 513 4856 
z
" transform="scale(0.015625)"/>
      </defs>
      <use xlink:href="#DejaVuSans-48"/>
      <use xlink:href="#DejaVuSans-61" x="75.195312"/>
      <use xlink:href="#DejaVuSans-6e" x="136.474609"/>
      <use xlink:href="#DejaVuSans-64" x="199.853516"/>
      <use xlink:href="#DejaVuSans-73" x="263.330078"/>
      <use xlink:href="#DejaVuSans-68" x="315.429688"/>
      <use xlink:href="#DejaVuSans-61" x="378.808594"/>
      <use xlink:href="#DejaVuSans-6b" x="440.087891"/>
      <use xlink:href="#DejaVuSans-65" x="494.373047"/>
      <use xlink:href="#DejaVuSans-20" x="555.896484"/>
      <use xlink:href="#DejaVuSans-64" x="587.683594"/>
      <use xlink:href="#DejaVuSans-75" x="651.160156"/>
      <use xlink:href="#DejaVuSans-72" x="714.539062"/>
      <use xlink:href="#DejaVuSans-61" x="755.652344"/>
      <use xlink:href="#DejaVuSans-74" x="816.931641"/>
      <use xlink:href="#DejaVuSans-69" x="856.140625"/>
      <use xlink:href="#DejaVuSans-6f" x="883.923828"/>
      <use xlink:href="#DejaVuSans-6e" x="945.105469"/>
      <use xlink:href="#DejaVuSans-20" x="1008.484375"/>
      <use xlink:href="#DejaVuSans-28" x="1040.271484"/>
      <use xlink:href="#DejaVuSans-6d" x="1079.285156"/>
      <use xlink:href="#DejaVuSans-73" x="1176.697266"/>
      <use xlink:href="#DejaVuSans-29" x="1228.796875"/>
     </g>
    </g>
   </g>
   <g id="PolyCollection_1">
    <defs>
     <path id="mc8784a2cf4" d="M 144.999779 -55.168064 
L 130.184221 -55.168064 
L 110.016436 -58.44526 
L 81.227898 -61.722456 
L 74.1744 -64.999652 
L 98.188441 -68.276848 
L 124.01862 -71.554044 
L 134.987924 -74.83124 
L 137.312383 -78.108436 
L 137.575117 -81.385632 
L 137.591425 -84.662827 
L 137.591989 -87.940023 
L 137.592 -91.217219 
L 137.592 -94.494415 
L 137.592 -97.771611 
L 137.592 -101.048807 
L 137.592 -104.326003 
L 137.592 -107.603199 
L 137.592 -110.880395 
L 137.592 -114.157591 
L 137.592 -117.434787 
L 137.592 -120.711983 
L 137.592 -123.989179 
L 137.592 -127.266375 
L 137.592 -130.543571 
L 137.592 -133.820767 
L 137.592 -137.097962 
L 137.592 -140.375158 
L 137.592 -143.652354 
L 137.592 -146.92955 
L 137.592 -150.206746 
L 137.592 -153.483942 
L 137.592 -156.761138 
L 137.592 -160.038334 
L 137.592 -163.31553 
L 137.592 -166.592726 
L 137.592 -169.869922 
L 137.592 -173.147118 
L 137.592 -176.424314 
L 137.592 -179.70151 
L 137.592 -182.978706 
L 137.592 -186.255902 
L 137.592 -189.533097 
L 137.592 -192.810293 
L 137.592 -196.087489 
L 137.592 -199.364685 
L 137.592 -202.641881 
L 137.592 -205.919077 
L 137.592 -209.196273 
L 137.592 -212.473469 
L 137.592 -215.750665 
L 137.592 -219.027861 
L 137.592 -222.305057 
L 137.592 -225.582253 
L 137.592 -228.859449 
L 137.592 -232.136645 
L 137.592 -235.413841 
L 137.592 -238.691037 
L 137.592 -241.968232 
L 137.592 -245.245428 
L 137.592 -248.522624 
L 137.592 -251.79982 
L 137.592 -255.077016 
L 137.592 -258.354212 
L 137.592 -261.631408 
L 137.592 -264.908604 
L 137.592 -268.1858 
L 137.592 -271.462996 
L 137.592 -274.740192 
L 137.592 -278.017388 
L 137.592 -281.294584 
L 137.592 -284.57178 
L 137.592 -287.848976 
L 137.592 -291.126172 
L 137.592 -294.403367 
L 137.592 -297.680563 
L 137.592 -300.957759 
L 137.592 -304.234955 
L 137.592 -307.512151 
L 137.592 -310.789347 
L 137.592 -314.066543 
L 137.592 -317.343739 
L 137.592 -320.620935 
L 137.592 -323.898131 
L 137.592 -327.175327 
L 137.592 -330.452523 
L 137.592 -333.729719 
L 137.592 -337.006915 
L 137.592 -340.284111 
L 137.592 -343.561307 
L 137.592 -346.838502 
L 137.592 -350.115698 
L 137.591982 -353.392894 
L 137.591648 -356.67009 
L 137.588169 -359.947286 
L 137.569264 -363.224482 
L 137.518469 -366.501678 
L 137.462417 -369.778874 
L 137.467564 -373.05607 
L 137.526887 -376.333266 
L 137.573435 -379.610462 
L 137.610565 -379.610462 
L 137.610565 -379.610462 
L 137.657113 -376.333266 
L 137.716436 -373.05607 
L 137.721583 -369.778874 
L 137.665531 -366.501678 
L 137.614736 -363.224482 
L 137.595831 -359.947286 
L 137.592352 -356.67009 
L 137.592018 -353.392894 
L 137.592 -350.115698 
L 137.592 -346.838502 
L 137.592 -343.561307 
L 137.592 -340.284111 
L 137.592 -337.006915 
L 137.592 -333.729719 
L 137.592 -330.452523 
L 137.592 -327.175327 
L 137.592 -323.898131 
L 137.592 -320.620935 
L 137.592 -317.343739 
L 137.592 -314.066543 
L 137.592 -310.789347 
L 137.592 -307.512151 
L 137.592 -304.234955 
L 137.592 -300.957759 
L 137.592 -297.680563 
L 137.592 -294.403367 
L 137.592 -291.126172 
L 137.592 -287.848976 
L 137.592 -284.57178 
L 137.592 -281.294584 
L 137.592 -278.017388 
L 137.592 -274.740192 
L 137.592 -271.462996 
L 137.592 -268.1858 
L 137.592 -264.908604 
L 137.592 -261.631408 
L 137.592 -258.354212 
L 137.592 -255.077016 
L 137.592 -251.79982 
L 137.592 -248.522624 
L 137.592 -245.245428 
L 137.592 -241.968232 
L 137.592 -238.691037 
L 137.592 -235.413841 
L 137.592 -232.136645 
L 137.592 -228.859449 
L 137.592 -225.582253 
L 137.592 -222.305057 
L 137.592 -219.027861 
L 137.592 -215.750665 
L 137.592 -212.473469 
L 137.592 -209.196273 
L 137.592 -205.919077 
L 137.592 -202.641881 
L 137.592 -199.364685 
L 137.592 -196.087489 
L 137.592 -192.810293 
L 137.592 -189.533097 
L 137.592 -186.255902 
L 137.592 -182.978706 
L 137.592 -179.70151 
L 137.592 -176.424314 
L 137.592 -173.147118 
L 137.592 -169.869922 
L 137.592 -166.592726 
L 137.592 -163.31553 
L 137.592 -160.038334 
L 137.592 -156.761138 
L 137.592 -153.483942 
L 137.592 -150.206746 
L 137.592 -146.92955 
L 137.592 -143.652354 
L 137.592 -140.375158 
L 137.592 -137.097962 
L 137.592 -133.820767 
L 137.592 -130.543571 
L 137.592 -127.266375 
L 137.592 -123.989179 
L 137.592 -120.711983 
L 137.592 -117.434787 
L 137.592 -114.157591 
L 137.592 -110.880395 
L 137.592 -107.603199 
L 137.592 -104.326003 
L 137.592 -101.048807 
L 137.592 -97.771611 
L 137.592 -94.494415 
L 137.592 -91.217219 
L 137.592011 -87.940023 
L 137.592575 -84.662827 
L 137.608883 -81.385632 
L 137.871617 -78.108436 
L 140.196076 -74.83124 
L 151.16538 -71.554044 
L 176.995559 -68.276848 
L 201.0096 -64.999652 
L 193.956102 -61.722456 
L 165.167564 -58.44526 
L 144.999779 -55.168064 
z
" style="stroke: #595959; stroke-width: 1.25"/>
    </defs>
    <g clip-path="url(#p819fb835ef)">
     <use xlink:href="#mc8784a2cf4" x="0" y="432" style="fill: #72b6a1; stroke: #595959; stroke-width: 1.25"/>
    </g>
   </g>
   <g id="PolyCollection_2">
    <defs>
     <path id="m10a49d1e86" d="M 303.622753 -54.143186 
L 288.649247 -54.143186 
L 268.370203 -57.419153 
L 239.566743 -60.695119 
L 232.7184 -63.971086 
L 256.942971 -67.247052 
L 282.755486 -70.523019 
L 293.607056 -73.798986 
L 295.870831 -77.074952 
L 296.120546 -80.350919 
L 296.135499 -83.626885 
L 296.135991 -86.902852 
L 296.136 -90.178818 
L 296.136 -93.454785 
L 296.136 -96.730751 
L 296.136 -100.006718 
L 296.136 -103.282685 
L 296.136 -106.558651 
L 296.136 -109.834618 
L 296.136 -113.110584 
L 296.136 -116.386551 
L 296.136 -119.662517 
L 296.136 -122.938484 
L 296.136 -126.214451 
L 296.136 -129.490417 
L 296.136 -132.766384 
L 296.136 -136.04235 
L 296.136 -139.318317 
L 296.136 -142.594283 
L 296.136 -145.87025 
L 296.136 -149.146217 
L 296.136 -152.422183 
L 296.136 -155.69815 
L 296.136 -158.974116 
L 296.136 -162.250083 
L 296.136 -165.526049 
L 296.136 -168.802016 
L 296.136 -172.077982 
L 296.136 -175.353949 
L 296.136 -178.629916 
L 296.136 -181.905882 
L 296.136 -185.181849 
L 296.136 -188.457815 
L 296.136 -191.733782 
L 296.136 -195.009748 
L 296.136 -198.285715 
L 296.136 -201.561682 
L 296.136 -204.837648 
L 296.136 -208.113615 
L 296.136 -211.389581 
L 296.136 -214.665548 
L 296.136 -217.941514 
L 296.136 -221.217481 
L 296.136 -224.493448 
L 296.136 -227.769414 
L 296.136 -231.045381 
L 296.136 -234.321347 
L 296.136 -237.597314 
L 296.136 -240.87328 
L 296.136 -244.149247 
L 296.136 -247.425213 
L 296.136 -250.70118 
L 296.136 -253.977147 
L 296.136 -257.253113 
L 296.136 -260.52908 
L 296.136 -263.805046 
L 296.136 -267.081013 
L 296.136 -270.356979 
L 296.136 -273.632946 
L 296.136 -276.908913 
L 296.136 -280.184879 
L 296.136 -283.460846 
L 296.136 -286.736812 
L 296.136 -290.012779 
L 296.136 -293.288745 
L 296.136 -296.564712 
L 296.136 -299.840679 
L 296.136 -303.116645 
L 296.136 -306.392612 
L 296.136 -309.668578 
L 296.136 -312.944545 
L 296.136 -316.220511 
L 296.136 -319.496478 
L 296.136 -322.772444 
L 296.136 -326.048411 
L 296.136 -329.324378 
L 296.136 -332.600344 
L 296.136 -335.876311 
L 296.136 -339.152277 
L 296.136 -342.428244 
L 296.136 -345.70421 
L 296.136 -348.980177 
L 296.135982 -352.256144 
L 296.135642 -355.53211 
L 296.132122 -358.808077 
L 296.113087 -362.084043 
L 296.062153 -365.36001 
L 296.006172 -368.635976 
L 296.011493 -371.911943 
L 296.070866 -375.18791 
L 296.117413 -378.463876 
L 296.154587 -378.463876 
L 296.154587 -378.463876 
L 296.201134 -375.18791 
L 296.260507 -371.911943 
L 296.265828 -368.635976 
L 296.209847 -365.36001 
L 296.158913 -362.084043 
L 296.139878 -358.808077 
L 296.136358 -355.53211 
L 296.136018 -352.256144 
L 296.136 -348.980177 
L 296.136 -345.70421 
L 296.136 -342.428244 
L 296.136 -339.152277 
L 296.136 -335.876311 
L 296.136 -332.600344 
L 296.136 -329.324378 
L 296.136 -326.048411 
L 296.136 -322.772444 
L 296.136 -319.496478 
L 296.136 -316.220511 
L 296.136 -312.944545 
L 296.136 -309.668578 
L 296.136 -306.392612 
L 296.136 -303.116645 
L 296.136 -299.840679 
L 296.136 -296.564712 
L 296.136 -293.288745 
L 296.136 -290.012779 
L 296.136 -286.736812 
L 296.136 -283.460846 
L 296.136 -280.184879 
L 296.136 -276.908913 
L 296.136 -273.632946 
L 296.136 -270.356979 
L 296.136 -267.081013 
L 296.136 -263.805046 
L 296.136 -260.52908 
L 296.136 -257.253113 
L 296.136 -253.977147 
L 296.136 -250.70118 
L 296.136 -247.425213 
L 296.136 -244.149247 
L 296.136 -240.87328 
L 296.136 -237.597314 
L 296.136 -234.321347 
L 296.136 -231.045381 
L 296.136 -227.769414 
L 296.136 -224.493448 
L 296.136 -221.217481 
L 296.136 -217.941514 
L 296.136 -214.665548 
L 296.136 -211.389581 
L 296.136 -208.113615 
L 296.136 -204.837648 
L 296.136 -201.561682 
L 296.136 -198.285715 
L 296.136 -195.009748 
L 296.136 -191.733782 
L 296.136 -188.457815 
L 296.136 -185.181849 
L 296.136 -181.905882 
L 296.136 -178.629916 
L 296.136 -175.353949 
L 296.136 -172.077982 
L 296.136 -168.802016 
L 296.136 -165.526049 
L 296.136 -162.250083 
L 296.136 -158.974116 
L 296.136 -155.69815 
L 296.136 -152.422183 
L 296.136 -149.146217 
L 296.136 -145.87025 
L 296.136 -142.594283 
L 296.136 -139.318317 
L 296.136 -136.04235 
L 296.136 -132.766384 
L 296.136 -129.490417 
L 296.136 -126.214451 
L 296.136 -122.938484 
L 296.136 -119.662517 
L 296.136 -116.386551 
L 296.136 -113.110584 
L 296.136 -109.834618 
L 296.136 -106.558651 
L 296.136 -103.282685 
L 296.136 -100.006718 
L 296.136 -96.730751 
L 296.136 -93.454785 
L 296.136 -90.178818 
L 296.136009 -86.902852 
L 296.136501 -83.626885 
L 296.151454 -80.350919 
L 296.401169 -77.074952 
L 298.664944 -73.798986 
L 309.516514 -70.523019 
L 335.329029 -67.247052 
L 359.5536 -63.971086 
L 352.705257 -60.695119 
L 323.901797 -57.419153 
L 303.622753 -54.143186 
z
" style="stroke: #595959; stroke-width: 1.25"/>
    </defs>
    <g clip-path="url(#p819fb835ef)">
     <use xlink:href="#m10a49d1e86" x="0" y="432" style="fill: #e99675; stroke: #595959; stroke-width: 1.25"/>
    </g>
   </g>
   <g id="PolyCollection_3">
    <defs>
     <path id="ma351968507" d="M 461.535949 -60.412919 
L 447.824051 -60.412919 
L 429.093766 -63.718785 
L 401.305227 -67.024651 
L 391.2624 -70.330516 
L 410.179592 -73.636382 
L 435.159029 -76.942248 
L 449.014811 -80.248114 
L 453.578767 -83.55398 
L 454.542399 -86.859846 
L 454.669533 -90.165711 
L 454.679533 -93.471577 
L 454.679988 -96.777443 
L 454.68 -100.083309 
L 454.68 -103.389175 
L 454.68 -106.695041 
L 454.68 -110.000906 
L 454.68 -113.306772 
L 454.68 -116.612638 
L 454.68 -119.918504 
L 454.68 -123.22437 
L 454.68 -126.530236 
L 454.68 -129.836101 
L 454.68 -133.141967 
L 454.68 -136.447833 
L 454.68 -139.753699 
L 454.68 -143.059565 
L 454.68 -146.365431 
L 454.68 -149.671296 
L 454.68 -152.977162 
L 454.68 -156.283028 
L 454.68 -159.588894 
L 454.68 -162.89476 
L 454.68 -166.200626 
L 454.68 -169.506491 
L 454.68 -172.812357 
L 454.68 -176.118223 
L 454.68 -179.424089 
L 454.68 -182.729955 
L 454.68 -186.035821 
L 454.68 -189.341686 
L 454.68 -192.647552 
L 454.68 -195.953418 
L 454.68 -199.259284 
L 454.68 -202.56515 
L 454.68 -205.871016 
L 454.68 -209.176881 
L 454.68 -212.482747 
L 454.68 -215.788613 
L 454.68 -219.094479 
L 454.68 -222.400345 
L 454.68 -225.706211 
L 454.68 -229.012076 
L 454.68 -232.317942 
L 454.68 -235.623808 
L 454.68 -238.929674 
L 454.68 -242.23554 
L 454.68 -245.541406 
L 454.68 -248.847271 
L 454.68 -252.153137 
L 454.68 -255.459003 
L 454.68 -258.764869 
L 454.68 -262.070735 
L 454.68 -265.376601 
L 454.68 -268.682466 
L 454.68 -271.988332 
L 454.68 -275.294198 
L 454.68 -278.600064 
L 454.68 -281.90593 
L 454.68 -285.211796 
L 454.68 -288.517661 
L 454.68 -291.823527 
L 454.68 -295.129393 
L 454.68 -298.435259 
L 454.68 -301.741125 
L 454.68 -305.046991 
L 454.68 -308.352856 
L 454.68 -311.658722 
L 454.68 -314.964588 
L 454.68 -318.270454 
L 454.68 -321.57632 
L 454.68 -324.882186 
L 454.68 -328.188051 
L 454.68 -331.493917 
L 454.68 -334.799783 
L 454.68 -338.105649 
L 454.68 -341.411515 
L 454.68 -344.717381 
L 454.68 -348.023246 
L 454.68 -351.329112 
L 454.68 -354.634978 
L 454.679999 -357.940844 
L 454.679979 -361.24671 
L 454.679596 -364.552576 
L 454.675741 -367.858441 
L 454.65539 -371.164307 
L 454.602026 -374.470173 
L 454.544517 -377.776039 
L 454.550902 -381.081905 
L 454.61254 -384.387771 
L 454.660668 -387.693636 
L 454.699332 -387.693636 
L 454.699332 -387.693636 
L 454.74746 -384.387771 
L 454.809098 -381.081905 
L 454.815483 -377.776039 
L 454.757974 -374.470173 
L 454.70461 -371.164307 
L 454.684259 -367.858441 
L 454.680404 -364.552576 
L 454.680021 -361.24671 
L 454.680001 -357.940844 
L 454.68 -354.634978 
L 454.68 -351.329112 
L 454.68 -348.023246 
L 454.68 -344.717381 
L 454.68 -341.411515 
L 454.68 -338.105649 
L 454.68 -334.799783 
L 454.68 -331.493917 
L 454.68 -328.188051 
L 454.68 -324.882186 
L 454.68 -321.57632 
L 454.68 -318.270454 
L 454.68 -314.964588 
L 454.68 -311.658722 
L 454.68 -308.352856 
L 454.68 -305.046991 
L 454.68 -301.741125 
L 454.68 -298.435259 
L 454.68 -295.129393 
L 454.68 -291.823527 
L 454.68 -288.517661 
L 454.68 -285.211796 
L 454.68 -281.90593 
L 454.68 -278.600064 
L 454.68 -275.294198 
L 454.68 -271.988332 
L 454.68 -268.682466 
L 454.68 -265.376601 
L 454.68 -262.070735 
L 454.68 -258.764869 
L 454.68 -255.459003 
L 454.68 -252.153137 
L 454.68 -248.847271 
L 454.68 -245.541406 
L 454.68 -242.23554 
L 454.68 -238.929674 
L 454.68 -235.623808 
L 454.68 -232.317942 
L 454.68 -229.012076 
L 454.68 -225.706211 
L 454.68 -222.400345 
L 454.68 -219.094479 
L 454.68 -215.788613 
L 454.68 -212.482747 
L 454.68 -209.176881 
L 454.68 -205.871016 
L 454.68 -202.56515 
L 454.68 -199.259284 
L 454.68 -195.953418 
L 454.68 -192.647552 
L 454.68 -189.341686 
L 454.68 -186.035821 
L 454.68 -182.729955 
L 454.68 -179.424089 
L 454.68 -176.118223 
L 454.68 -172.812357 
L 454.68 -169.506491 
L 454.68 -166.200626 
L 454.68 -162.89476 
L 454.68 -159.588894 
L 454.68 -156.283028 
L 454.68 -152.977162 
L 454.68 -149.671296 
L 454.68 -146.365431 
L 454.68 -143.059565 
L 454.68 -139.753699 
L 454.68 -136.447833 
L 454.68 -133.141967 
L 454.68 -129.836101 
L 454.68 -126.530236 
L 454.68 -123.22437 
L 454.68 -119.918504 
L 454.68 -116.612638 
L 454.68 -113.306772 
L 454.68 -110.000906 
L 454.68 -106.695041 
L 454.68 -103.389175 
L 454.68 -100.083309 
L 454.680012 -96.777443 
L 454.680467 -93.471577 
L 454.690467 -90.165711 
L 454.817601 -86.859846 
L 455.781233 -83.55398 
L 460.345189 -80.248114 
L 474.200971 -76.942248 
L 499.180408 -73.636382 
L 518.0976 -70.330516 
L 508.054773 -67.024651 
L 480.266234 -63.718785 
L 461.535949 -60.412919 
z
" style="stroke: #595959; stroke-width: 1.25"/>
    </defs>
    <g clip-path="url(#p819fb835ef)">
     <use xlink:href="#ma351968507" x="0" y="432" style="fill: #95a3c3; stroke: #595959; stroke-width: 1.25"/>
    </g>
   </g>
   <g id="PolyCollection_4">
    <defs>
     <path id="mc48d2543d9" d="M 620.507216 -55.531672 
L 605.940784 -55.531672 
L 586.149237 -58.833222 
L 557.579887 -62.134772 
L 549.8064 -65.436322 
L 572.991789 -68.737872 
L 598.953862 -72.039422 
L 610.380563 -75.340972 
L 612.904249 -78.642522 
L 613.203633 -81.944072 
L 613.223264 -85.245622 
L 613.223985 -88.547172 
L 613.224 -91.848722 
L 613.224 -95.150271 
L 613.224 -98.451821 
L 613.224 -101.753371 
L 613.224 -105.054921 
L 613.224 -108.356471 
L 613.224 -111.658021 
L 613.224 -114.959571 
L 613.224 -118.261121 
L 613.224 -121.562671 
L 613.224 -124.864221 
L 613.224 -128.165771 
L 613.224 -131.467321 
L 613.224 -134.768871 
L 613.224 -138.070421 
L 613.224 -141.371971 
L 613.224 -144.673521 
L 613.224 -147.975071 
L 613.224 -151.276621 
L 613.224 -154.578171 
L 613.224 -157.879721 
L 613.224 -161.181271 
L 613.224 -164.482821 
L 613.224 -167.78437 
L 613.224 -171.08592 
L 613.224 -174.38747 
L 613.224 -177.68902 
L 613.224 -180.99057 
L 613.224 -184.29212 
L 613.224 -187.59367 
L 613.224 -190.89522 
L 613.224 -194.19677 
L 613.224 -197.49832 
L 613.224 -200.79987 
L 613.224 -204.10142 
L 613.224 -207.40297 
L 613.224 -210.70452 
L 613.224 -214.00607 
L 613.224 -217.30762 
L 613.224 -220.60917 
L 613.224 -223.91072 
L 613.224 -227.21227 
L 613.224 -230.51382 
L 613.224 -233.81537 
L 613.224 -237.11692 
L 613.224 -240.418469 
L 613.224 -243.720019 
L 613.224 -247.021569 
L 613.224 -250.323119 
L 613.224 -253.624669 
L 613.224 -256.926219 
L 613.224 -260.227769 
L 613.224 -263.529319 
L 613.224 -266.830869 
L 613.224 -270.132419 
L 613.224 -273.433969 
L 613.224 -276.735519 
L 613.224 -280.037069 
L 613.224 -283.338619 
L 613.224 -286.640169 
L 613.224 -289.941719 
L 613.224 -293.243269 
L 613.224 -296.544819 
L 613.224 -299.846369 
L 613.224 -303.147919 
L 613.224 -306.449469 
L 613.224 -309.751019 
L 613.224 -313.052568 
L 613.224 -316.354118 
L 613.224 -319.655668 
L 613.224 -322.957218 
L 613.224 -326.258768 
L 613.224 -329.560318 
L 613.224 -332.861868 
L 613.224 -336.163418 
L 613.224 -339.464968 
L 613.224 -342.766518 
L 613.224 -346.068068 
L 613.224 -349.369618 
L 613.223999 -352.671168 
L 613.22398 -355.972718 
L 613.223618 -359.274268 
L 613.219946 -362.575818 
L 613.200429 -365.877368 
L 613.148953 -369.178918 
L 613.093167 -372.480468 
L 613.099105 -375.782018 
L 613.158716 -379.083568 
L 613.205314 -382.385118 
L 613.242686 -382.385118 
L 613.242686 -382.385118 
L 613.289284 -379.083568 
L 613.348895 -375.782018 
L 613.354833 -372.480468 
L 613.299047 -369.178918 
L 613.247571 -365.877368 
L 613.228054 -362.575818 
L 613.224382 -359.274268 
L 613.22402 -355.972718 
L 613.224001 -352.671168 
L 613.224 -349.369618 
L 613.224 -346.068068 
L 613.224 -342.766518 
L 613.224 -339.464968 
L 613.224 -336.163418 
L 613.224 -332.861868 
L 613.224 -329.560318 
L 613.224 -326.258768 
L 613.224 -322.957218 
L 613.224 -319.655668 
L 613.224 -316.354118 
L 613.224 -313.052568 
L 613.224 -309.751019 
L 613.224 -306.449469 
L 613.224 -303.147919 
L 613.224 -299.846369 
L 613.224 -296.544819 
L 613.224 -293.243269 
L 613.224 -289.941719 
L 613.224 -286.640169 
L 613.224 -283.338619 
L 613.224 -280.037069 
L 613.224 -276.735519 
L 613.224 -273.433969 
L 613.224 -270.132419 
L 613.224 -266.830869 
L 613.224 -263.529319 
L 613.224 -260.227769 
L 613.224 -256.926219 
L 613.224 -253.624669 
L 613.224 -250.323119 
L 613.224 -247.021569 
L 613.224 -243.720019 
L 613.224 -240.418469 
L 613.224 -237.11692 
L 613.224 -233.81537 
L 613.224 -230.51382 
L 613.224 -227.21227 
L 613.224 -223.91072 
L 613.224 -220.60917 
L 613.224 -217.30762 
L 613.224 -214.00607 
L 613.224 -210.70452 
L 613.224 -207.40297 
L 613.224 -204.10142 
L 613.224 -200.79987 
L 613.224 -197.49832 
L 613.224 -194.19677 
L 613.224 -190.89522 
L 613.224 -187.59367 
L 613.224 -184.29212 
L 613.224 -180.99057 
L 613.224 -177.68902 
L 613.224 -174.38747 
L 613.224 -171.08592 
L 613.224 -167.78437 
L 613.224 -164.482821 
L 613.224 -161.181271 
L 613.224 -157.879721 
L 613.224 -154.578171 
L 613.224 -151.276621 
L 613.224 -147.975071 
L 613.224 -144.673521 
L 613.224 -141.371971 
L 613.224 -138.070421 
L 613.224 -134.768871 
L 613.224 -131.467321 
L 613.224 -128.165771 
L 613.224 -124.864221 
L 613.224 -121.562671 
L 613.224 -118.261121 
L 613.224 -114.959571 
L 613.224 -111.658021 
L 613.224 -108.356471 
L 613.224 -105.054921 
L 613.224 -101.753371 
L 613.224 -98.451821 
L 613.224 -95.150271 
L 613.224 -91.848722 
L 613.224015 -88.547172 
L 613.224736 -85.245622 
L 613.244367 -81.944072 
L 613.543751 -78.642522 
L 616.067437 -75.340972 
L 627.494138 -72.039422 
L 653.456211 -68.737872 
L 676.6416 -65.436322 
L 668.868113 -62.134772 
L 640.298763 -58.833222 
L 620.507216 -55.531672 
z
" style="stroke: #595959; stroke-width: 1.25"/>
    </defs>
    <g clip-path="url(#p819fb835ef)">
     <use xlink:href="#mc48d2543d9" x="0" y="432" style="fill: #db96c0; stroke: #595959; stroke-width: 1.25"/>
    </g>
   </g>
   <g id="PolyCollection_5">
    <defs>
     <path id="m48e8a2152e" d="M 779.33449 -53.566364 
L 764.20151 -53.566364 
L 743.684086 -56.843675 
L 714.73071 -60.120986 
L 708.3504 -63.398298 
L 733.144997 -66.675609 
L 758.875791 -69.95292 
L 769.407865 -73.230232 
L 771.530874 -76.507543 
L 771.754915 -79.784854 
L 771.767603 -83.062166 
L 771.767993 -86.339477 
L 771.768 -89.616789 
L 771.768 -92.8941 
L 771.768 -96.171411 
L 771.768 -99.448723 
L 771.768 -102.726034 
L 771.768 -106.003345 
L 771.768 -109.280657 
L 771.768 -112.557968 
L 771.768 -115.835279 
L 771.768 -119.112591 
L 771.768 -122.389902 
L 771.768 -125.667213 
L 771.768 -128.944525 
L 771.768 -132.221836 
L 771.768 -135.499147 
L 771.768 -138.776459 
L 771.768 -142.05377 
L 771.768 -145.331081 
L 771.768 -148.608393 
L 771.768 -151.885704 
L 771.768 -155.163016 
L 771.768 -158.440327 
L 771.768 -161.717638 
L 771.768 -164.99495 
L 771.768 -168.272261 
L 771.768 -171.549572 
L 771.768 -174.826884 
L 771.768 -178.104195 
L 771.768 -181.381506 
L 771.768 -184.658818 
L 771.768 -187.936129 
L 771.768 -191.21344 
L 771.768 -194.490752 
L 771.768 -197.768063 
L 771.768 -201.045374 
L 771.768 -204.322686 
L 771.768 -207.599997 
L 771.768 -210.877309 
L 771.768 -214.15462 
L 771.768 -217.431931 
L 771.768 -220.709243 
L 771.768 -223.986554 
L 771.768 -227.263865 
L 771.768 -230.541177 
L 771.768 -233.818488 
L 771.768 -237.095799 
L 771.768 -240.373111 
L 771.768 -243.650422 
L 771.768 -246.927733 
L 771.768 -250.205045 
L 771.768 -253.482356 
L 771.768 -256.759667 
L 771.768 -260.036979 
L 771.768 -263.31429 
L 771.768 -266.591601 
L 771.768 -269.868913 
L 771.768 -273.146224 
L 771.768 -276.423536 
L 771.768 -279.700847 
L 771.768 -282.978158 
L 771.768 -286.25547 
L 771.768 -289.532781 
L 771.768 -292.810092 
L 771.768 -296.087404 
L 771.768 -299.364715 
L 771.768 -302.642026 
L 771.768 -305.919338 
L 771.768 -309.196649 
L 771.768 -312.47396 
L 771.768 -315.751272 
L 771.768 -319.028583 
L 771.768 -322.305894 
L 771.768 -325.583206 
L 771.768 -328.860517 
L 771.768 -332.137829 
L 771.768 -335.41514 
L 771.768 -338.692451 
L 771.768 -341.969763 
L 771.768 -345.247074 
L 771.768 -348.524385 
L 771.767982 -351.801697 
L 771.767644 -355.079008 
L 771.76414 -358.356319 
L 771.745165 -361.633631 
L 771.694333 -364.910942 
L 771.638401 -368.188253 
L 771.643667 -371.465565 
L 771.702952 -374.742876 
L 771.749442 -378.020187 
L 771.786558 -378.020187 
L 771.786558 -378.020187 
L 771.833048 -374.742876 
L 771.892333 -371.465565 
L 771.897599 -368.188253 
L 771.841667 -364.910942 
L 771.790835 -361.633631 
L 771.77186 -358.356319 
L 771.768356 -355.079008 
L 771.768018 -351.801697 
L 771.768 -348.524385 
L 771.768 -345.247074 
L 771.768 -341.969763 
L 771.768 -338.692451 
L 771.768 -335.41514 
L 771.768 -332.137829 
L 771.768 -328.860517 
L 771.768 -325.583206 
L 771.768 -322.305894 
L 771.768 -319.028583 
L 771.768 -315.751272 
L 771.768 -312.47396 
L 771.768 -309.196649 
L 771.768 -305.919338 
L 771.768 -302.642026 
L 771.768 -299.364715 
L 771.768 -296.087404 
L 771.768 -292.810092 
L 771.768 -289.532781 
L 771.768 -286.25547 
L 771.768 -282.978158 
L 771.768 -279.700847 
L 771.768 -276.423536 
L 771.768 -273.146224 
L 771.768 -269.868913 
L 771.768 -266.591601 
L 771.768 -263.31429 
L 771.768 -260.036979 
L 771.768 -256.759667 
L 771.768 -253.482356 
L 771.768 -250.205045 
L 771.768 -246.927733 
L 771.768 -243.650422 
L 771.768 -240.373111 
L 771.768 -237.095799 
L 771.768 -233.818488 
L 771.768 -230.541177 
L 771.768 -227.263865 
L 771.768 -223.986554 
L 771.768 -220.709243 
L 771.768 -217.431931 
L 771.768 -214.15462 
L 771.768 -210.877309 
L 771.768 -207.599997 
L 771.768 -204.322686 
L 771.768 -201.045374 
L 771.768 -197.768063 
L 771.768 -194.490752 
L 771.768 -191.21344 
L 771.768 -187.936129 
L 771.768 -184.658818 
L 771.768 -181.381506 
L 771.768 -178.104195 
L 771.768 -174.826884 
L 771.768 -171.549572 
L 771.768 -168.272261 
L 771.768 -164.99495 
L 771.768 -161.717638 
L 771.768 -158.440327 
L 771.768 -155.163016 
L 771.768 -151.885704 
L 771.768 -148.608393 
L 771.768 -145.331081 
L 771.768 -142.05377 
L 771.768 -138.776459 
L 771.768 -135.499147 
L 771.768 -132.221836 
L 771.768 -128.944525 
L 771.768 -125.667213 
L 771.768 -122.389902 
L 771.768 -119.112591 
L 771.768 -115.835279 
L 771.768 -112.557968 
L 771.768 -109.280657 
L 771.768 -106.003345 
L 771.768 -102.726034 
L 771.768 -99.448723 
L 771.768 -96.171411 
L 771.768 -92.8941 
L 771.768 -89.616789 
L 771.768007 -86.339477 
L 771.768397 -83.062166 
L 771.781085 -79.784854 
L 772.005126 -76.507543 
L 774.128135 -73.230232 
L 784.660209 -69.95292 
L 810.391003 -66.675609 
L 835.1856 -63.398298 
L 828.80529 -60.120986 
L 799.851914 -56.843675 
L 779.33449 -53.566364 
z
" style="stroke: #595959; stroke-width: 1.25"/>
    </defs>
    <g clip-path="url(#p819fb835ef)">
     <use xlink:href="#m48e8a2152e" x="0" y="432" style="fill: #a2c865; stroke: #595959; stroke-width: 1.25"/>
    </g>
   </g>
   <g id="line2d_6">
    <path d="M 137.592 368.259053 
L 137.592 368.420187 
" clip-path="url(#p819fb835ef)" style="fill: none; stroke: #000000"/>
   </g>
   <g id="line2d_7">
    <path d="M 137.592 368.136285 
L 137.592 367.959806 
" clip-path="url(#p819fb835ef)" style="fill: none; stroke: #000000"/>
   </g>
   <g id="line2d_8">
    <path d="M 131.6466 368.420187 
L 143.5374 368.420187 
" clip-path="url(#p819fb835ef)" style="fill: none; stroke: #000000; stroke-linecap: round"/>
   </g>
   <g id="line2d_9">
    <path d="M 131.6466 367.959806 
L 143.5374 367.959806 
" clip-path="url(#p819fb835ef)" style="fill: none; stroke: #000000; stroke-linecap: round"/>
   </g>
   <g id="line2d_10">
    <path d="M 296.136 369.310257 
L 296.136 369.440698 
" clip-path="url(#p819fb835ef)" style="fill: none; stroke: #000000"/>
   </g>
   <g id="line2d_11">
    <path d="M 296.136 369.172142 
L 296.136 368.980317 
" clip-path="url(#p819fb835ef)" style="fill: none; stroke: #000000"/>
   </g>
   <g id="line2d_12">
    <path d="M 290.1906 369.440698 
L 302.0814 369.440698 
" clip-path="url(#p819fb835ef)" style="fill: none; stroke: #000000; stroke-linecap: round"/>
   </g>
   <g id="line2d_13">
    <path d="M 290.1906 368.980317 
L 302.0814 368.980317 
" clip-path="url(#p819fb835ef)" style="fill: none; stroke: #000000; stroke-linecap: round"/>
   </g>
   <g id="line2d_14">
    <path d="M 454.68 362.910961 
L 454.68 363.056748 
" clip-path="url(#p819fb835ef)" style="fill: none; stroke: #000000"/>
   </g>
   <g id="line2d_15">
    <path d="M 454.68 362.289447 
L 454.68 361.368685 
" clip-path="url(#p819fb835ef)" style="fill: none; stroke: #000000"/>
   </g>
   <g id="line2d_16">
    <path d="M 448.7346 363.056748 
L 460.6254 363.056748 
" clip-path="url(#p819fb835ef)" style="fill: none; stroke: #000000; stroke-linecap: round"/>
   </g>
   <g id="line2d_17">
    <path d="M 448.7346 361.368685 
L 460.6254 361.368685 
" clip-path="url(#p819fb835ef)" style="fill: none; stroke: #000000; stroke-linecap: round"/>
   </g>
   <g id="line2d_18">
    <path d="M 613.224 367.829364 
L 613.224 367.959806 
" clip-path="url(#p819fb835ef)" style="fill: none; stroke: #000000"/>
   </g>
   <g id="line2d_19">
    <path d="M 613.224 367.576155 
L 613.224 367.20785 
" clip-path="url(#p819fb835ef)" style="fill: none; stroke: #000000"/>
   </g>
   <g id="line2d_20">
    <path d="M 607.2786 367.959806 
L 619.1694 367.959806 
" clip-path="url(#p819fb835ef)" style="fill: none; stroke: #000000; stroke-linecap: round"/>
   </g>
   <g id="line2d_21">
    <path d="M 607.2786 367.20785 
L 619.1694 367.20785 
" clip-path="url(#p819fb835ef)" style="fill: none; stroke: #000000; stroke-linecap: round"/>
   </g>
   <g id="line2d_22">
    <path d="M 771.768 369.847368 
L 771.768 370.016174 
" clip-path="url(#p819fb835ef)" style="fill: none; stroke: #000000"/>
   </g>
   <g id="line2d_23">
    <path d="M 771.768 369.716926 
L 771.768 369.525101 
" clip-path="url(#p819fb835ef)" style="fill: none; stroke: #000000"/>
   </g>
   <g id="line2d_24">
    <path d="M 765.8226 370.016174 
L 777.7134 370.016174 
" clip-path="url(#p819fb835ef)" style="fill: none; stroke: #000000; stroke-linecap: round"/>
   </g>
   <g id="line2d_25">
    <path d="M 765.8226 369.525101 
L 777.7134 369.525101 
" clip-path="url(#p819fb835ef)" style="fill: none; stroke: #000000; stroke-linecap: round"/>
   </g>
   <g id="line2d_26">
    <path d="M 125.7012 368.205342 
L 149.4828 368.205342 
" clip-path="url(#p819fb835ef)" style="fill: none; stroke: #ff0000; stroke-width: 2"/>
   </g>
   <g id="line2d_27">
    <path d="M 284.2452 369.264218 
L 308.0268 369.264218 
" clip-path="url(#p819fb835ef)" style="fill: none; stroke: #ff0000; stroke-width: 2"/>
   </g>
   <g id="line2d_28">
    <path d="M 442.7892 362.811212 
L 466.5708 362.811212 
" clip-path="url(#p819fb835ef)" style="fill: none; stroke: #ff0000; stroke-width: 2"/>
   </g>
   <g id="line2d_29">
    <path d="M 601.3332 367.760307 
L 625.1148 367.760307 
" clip-path="url(#p819fb835ef)" style="fill: none; stroke: #ff0000; stroke-width: 2"/>
   </g>
   <g id="line2d_30">
    <path d="M 759.8772 369.80133 
L 783.6588 369.80133 
" clip-path="url(#p819fb835ef)" style="fill: none; stroke: #ff0000; stroke-width: 2"/>
   </g>
   <g id="patch_3">
    <path d="M 58.32 395.14 
L 58.32 27.6 
" style="fill: none; stroke: #cccccc; stroke-width: 1.25; stroke-linejoin: miter; stroke-linecap: square"/>
   </g>
   <g id="patch_4">
    <path d="M 851.04 395.14 
L 851.04 27.6 
" style="fill: none; stroke: #cccccc; stroke-width: 1.25; stroke-linejoin: miter; stroke-linecap: square"/>
   </g>
   <g id="patch_5">
    <path d="M 58.32 395.14 
L 851.04 395.14 
" style="fill: none; stroke: #cccccc; stroke-width: 1.25; stroke-linejoin: miter; stroke-linecap: square"/>
   </g>
   <g id="patch_6">
    <path d="M 58.32 27.6 
L 851.04 27.6 
" style="fill: none; stroke: #cccccc; stroke-width: 1.25; stroke-linejoin: miter; stroke-linecap: square"/>
   </g>
   <g id="text_12">
    <!-- Handshake duration on QUIC with secp384r1 signature algorithm — Backbone (200ms/4%) -->
    <g style="fill: #262626" transform="translate(180.669375 21.6) scale(0.12 -0.12)">
     <defs>
      <path id="DejaVuSans-51" d="M 2522 4238 
Q 1834 4238 1429 3725 
Q 1025 3213 1025 2328 
Q 1025 1447 1429 934 
Q 1834 422 2522 422 
Q 3209 422 3611 934 
Q 4013 1447 4013 2328 
Q 4013 3213 3611 3725 
Q 3209 4238 2522 4238 
z
M 3406 84 
L 4238 -825 
L 3475 -825 
L 2784 -78 
Q 2681 -84 2626 -87 
Q 2572 -91 2522 -91 
Q 1538 -91 948 567 
Q 359 1225 359 2328 
Q 359 3434 948 4092 
Q 1538 4750 2522 4750 
Q 3503 4750 4090 4092 
Q 4678 3434 4678 2328 
Q 4678 1516 4351 937 
Q 4025 359 3406 84 
z
" transform="scale(0.015625)"/>
      <path id="DejaVuSans-55" d="M 556 4666 
L 1191 4666 
L 1191 1831 
Q 1191 1081 1462 751 
Q 1734 422 2344 422 
Q 2950 422 3222 751 
Q 3494 1081 3494 1831 
L 3494 4666 
L 4128 4666 
L 4128 1753 
Q 4128 841 3676 375 
Q 3225 -91 2344 -91 
Q 1459 -91 1007 375 
Q 556 841 556 1753 
L 556 4666 
z
" transform="scale(0.015625)"/>
      <path id="DejaVuSans-49" d="M 628 4666 
L 1259 4666 
L 1259 0 
L 628 0 
L 628 4666 
z
" transform="scale(0.015625)"/>
      <path id="DejaVuSans-43" d="M 4122 4306 
L 4122 3641 
Q 3803 3938 3442 4084 
Q 3081 4231 2675 4231 
Q 1875 4231 1450 3742 
Q 1025 3253 1025 2328 
Q 1025 1406 1450 917 
Q 1875 428 2675 428 
Q 3081 428 3442 575 
Q 3803 722 4122 1019 
L 4122 359 
Q 3791 134 3420 21 
Q 3050 -91 2638 -91 
Q 1578 -91 968 557 
Q 359 1206 359 2328 
Q 359 3453 968 4101 
Q 1578 4750 2638 4750 
Q 3056 4750 3426 4639 
Q 3797 4528 4122 4306 
z
" transform="scale(0.015625)"/>
      <path id="DejaVuSans-77" d="M 269 3500 
L 844 3500 
L 1563 769 
L 2278 3500 
L 2956 3500 
L 3675 769 
L 4391 3500 
L 4966 3500 
L 4050 0 
L 3372 0 
L 2619 2869 
L 1863 0 
L 1184 0 
L 269 3500 
z
" transform="scale(0.015625)"/>
      <path id="DejaVuSans-63" d="M 3122 3366 
L 3122 2828 
Q 2878 2963 2633 3030 
Q 2388 3097 2138 3097 
Q 1578 3097 1268 2742 
Q 959 2388 959 1747 
Q 959 1106 1268 751 
Q 1578 397 2138 397 
Q 2388 397 2633 464 
Q 2878 531 3122 666 
L 3122 134 
Q 2881 22 2623 -34 
Q 2366 -91 2075 -91 
Q 1284 -91 818 406 
Q 353 903 353 1747 
Q 353 2603 823 3093 
Q 1294 3584 2113 3584 
Q 2378 3584 2631 3529 
Q 2884 3475 3122 3366 
z
" transform="scale(0.015625)"/>
      <path id="DejaVuSans-31" d="M 794 531 
L 1825 531 
L 1825 4091 
L 703 3866 
L 703 4441 
L 1819 4666 
L 2450 4666 
L 2450 531 
L 3481 531 
L 3481 0 
L 794 0 
L 794 531 
z
" transform="scale(0.015625)"/>
      <path id="DejaVuSans-67" d="M 2906 1791 
Q 2906 2416 2648 2759 
Q 2391 3103 1925 3103 
Q 1463 3103 1205 2759 
Q 947 2416 947 1791 
Q 947 1169 1205 825 
Q 1463 481 1925 481 
Q 2391 481 2648 825 
Q 2906 1169 2906 1791 
z
M 3481 434 
Q 3481 -459 3084 -895 
Q 2688 -1331 1869 -1331 
Q 1566 -1331 1297 -1286 
Q 1028 -1241 775 -1147 
L 775 -588 
Q 1028 -725 1275 -790 
Q 1522 -856 1778 -856 
Q 2344 -856 2625 -561 
Q 2906 -266 2906 331 
L 2906 616 
Q 2728 306 2450 153 
Q 2172 0 1784 0 
Q 1141 0 747 490 
Q 353 981 353 1791 
Q 353 2603 747 3093 
Q 1141 3584 1784 3584 
Q 2172 3584 2450 3431 
Q 2728 3278 2906 2969 
L 2906 3500 
L 3481 3500 
L 3481 434 
z
" transform="scale(0.015625)"/>
      <path id="DejaVuSans-2014" d="M 313 1978 
L 6088 1978 
L 6088 1528 
L 313 1528 
L 313 1978 
z
" transform="scale(0.015625)"/>
      <path id="DejaVuSans-42" d="M 1259 2228 
L 1259 519 
L 2272 519 
Q 2781 519 3026 730 
Q 3272 941 3272 1375 
Q 3272 1813 3026 2020 
Q 2781 2228 2272 2228 
L 1259 2228 
z
M 1259 4147 
L 1259 2741 
L 2194 2741 
Q 2656 2741 2882 2914 
Q 3109 3088 3109 3444 
Q 3109 3797 2882 3972 
Q 2656 4147 2194 4147 
L 1259 4147 
z
M 628 4666 
L 2241 4666 
Q 2963 4666 3353 4366 
Q 3744 4066 3744 3513 
Q 3744 3084 3544 2831 
Q 3344 2578 2956 2516 
Q 3422 2416 3680 2098 
Q 3938 1781 3938 1306 
Q 3938 681 3513 340 
Q 3088 0 2303 0 
L 628 0 
L 628 4666 
z
" transform="scale(0.015625)"/>
      <path id="DejaVuSans-62" d="M 3116 1747 
Q 3116 2381 2855 2742 
Q 2594 3103 2138 3103 
Q 1681 3103 1420 2742 
Q 1159 2381 1159 1747 
Q 1159 1113 1420 752 
Q 1681 391 2138 391 
Q 2594 391 2855 752 
Q 3116 1113 3116 1747 
z
M 1159 2969 
Q 1341 3281 1617 3432 
Q 1894 3584 2278 3584 
Q 2916 3584 3314 3078 
Q 3713 2572 3713 1747 
Q 3713 922 3314 415 
Q 2916 -91 2278 -91 
Q 1894 -91 1617 61 
Q 1341 213 1159 525 
L 1159 0 
L 581 0 
L 581 4863 
L 1159 4863 
L 1159 2969 
z
" transform="scale(0.015625)"/>
      <path id="DejaVuSans-32" d="M 1228 531 
L 3431 531 
L 3431 0 
L 469 0 
L 469 531 
Q 828 903 1448 1529 
Q 2069 2156 2228 2338 
Q 2531 2678 2651 2914 
Q 2772 3150 2772 3378 
Q 2772 3750 2511 3984 
Q 2250 4219 1831 4219 
Q 1534 4219 1204 4116 
Q 875 4013 500 3803 
L 500 4441 
Q 881 4594 1212 4672 
Q 1544 4750 1819 4750 
Q 2544 4750 2975 4387 
Q 3406 4025 3406 3419 
Q 3406 3131 3298 2873 
Q 3191 2616 2906 2266 
Q 2828 2175 2409 1742 
Q 1991 1309 1228 531 
z
" transform="scale(0.015625)"/>
      <path id="DejaVuSans-2f" d="M 1625 4666 
L 2156 4666 
L 531 -594 
L 0 -594 
L 1625 4666 
z
" transform="scale(0.015625)"/>
      <path id="DejaVuSans-25" d="M 4653 2053 
Q 4381 2053 4226 1822 
Q 4072 1591 4072 1178 
Q 4072 772 4226 539 
Q 4381 306 4653 306 
Q 4919 306 5073 539 
Q 5228 772 5228 1178 
Q 5228 1588 5073 1820 
Q 4919 2053 4653 2053 
z
M 4653 2450 
Q 5147 2450 5437 2106 
Q 5728 1763 5728 1178 
Q 5728 594 5436 251 
Q 5144 -91 4653 -91 
Q 4153 -91 3862 251 
Q 3572 594 3572 1178 
Q 3572 1766 3864 2108 
Q 4156 2450 4653 2450 
z
M 1428 4353 
Q 1159 4353 1004 4120 
Q 850 3888 850 3481 
Q 850 3069 1003 2837 
Q 1156 2606 1428 2606 
Q 1700 2606 1854 2837 
Q 2009 3069 2009 3481 
Q 2009 3884 1853 4118 
Q 1697 4353 1428 4353 
z
M 4250 4750 
L 4750 4750 
L 1831 -91 
L 1331 -91 
L 4250 4750 
z
M 1428 4750 
Q 1922 4750 2215 4408 
Q 2509 4066 2509 3481 
Q 2509 2891 2217 2550 
Q 1925 2209 1428 2209 
Q 931 2209 642 2551 
Q 353 2894 353 3481 
Q 353 4063 643 4406 
Q 934 4750 1428 4750 
z
" transform="scale(0.015625)"/>
     </defs>
     <use xlink:href="#DejaVuSans-48"/>
     <use xlink:href="#DejaVuSans-61" x="75.195312"/>
     <use xlink:href="#DejaVuSans-6e" x="136.474609"/>
     <use xlink:href="#DejaVuSans-64" x="199.853516"/>
     <use xlink:href="#DejaVuSans-73" x="263.330078"/>
     <use xlink:href="#DejaVuSans-68" x="315.429688"/>
     <use xlink:href="#DejaVuSans-61" x="378.808594"/>
     <use xlink:href="#DejaVuSans-6b" x="440.087891"/>
     <use xlink:href="#DejaVuSans-65" x="494.373047"/>
     <use xlink:href="#DejaVuSans-20" x="555.896484"/>
     <use xlink:href="#DejaVuSans-64" x="587.683594"/>
     <use xlink:href="#DejaVuSans-75" x="651.160156"/>
     <use xlink:href="#DejaVuSans-72" x="714.539062"/>
     <use xlink:href="#DejaVuSans-61" x="755.652344"/>
     <use xlink:href="#DejaVuSans-74" x="816.931641"/>
     <use xlink:href="#DejaVuSans-69" x="856.140625"/>
     <use xlink:href="#DejaVuSans-6f" x="883.923828"/>
     <use xlink:href="#DejaVuSans-6e" x="945.105469"/>
     <use xlink:href="#DejaVuSans-20" x="1008.484375"/>
     <use xlink:href="#DejaVuSans-6f" x="1040.271484"/>
     <use xlink:href="#DejaVuSans-6e" x="1101.453125"/>
     <use xlink:href="#DejaVuSans-20" x="1164.832031"/>
     <use xlink:href="#DejaVuSans-51" x="1196.619141"/>
     <use xlink:href="#DejaVuSans-55" x="1275.330078"/>
     <use xlink:href="#DejaVuSans-49" x="1348.523438"/>
     <use xlink:href="#DejaVuSans-43" x="1378.015625"/>
     <use xlink:href="#DejaVuSans-20" x="1447.839844"/>
     <use xlink:href="#DejaVuSans-77" x="1479.626953"/>
     <use xlink:href="#DejaVuSans-69" x="1561.414062"/>
     <use xlink:href="#DejaVuSans-74" x="1589.197266"/>
     <use xlink:href="#DejaVuSans-68" x="1628.40625"/>
     <use xlink:href="#DejaVuSans-20" x="1691.785156"/>
     <use xlink:href="#DejaVuSans-73" x="1723.572266"/>
     <use xlink:href="#DejaVuSans-65" x="1775.671875"/>
     <use xlink:href="#DejaVuSans-63" x="1837.195312"/>
     <use xlink:href="#DejaVuSans-70" x="1892.175781"/>
     <use xlink:href="#DejaVuSans-33" x="1955.652344"/>
     <use xlink:href="#DejaVuSans-38" x="2019.275391"/>
     <use xlink:href="#DejaVuSans-34" x="2082.898438"/>
     <use xlink:href="#DejaVuSans-72" x="2146.521484"/>
     <use xlink:href="#DejaVuSans-31" x="2187.634766"/>
     <use xlink:href="#DejaVuSans-20" x="2251.257812"/>
     <use xlink:href="#DejaVuSans-73" x="2283.044922"/>
     <use xlink:href="#DejaVuSans-69" x="2335.144531"/>
     <use xlink:href="#DejaVuSans-67" x="2362.927734"/>
     <use xlink:href="#DejaVuSans-6e" x="2426.404297"/>
     <use xlink:href="#DejaVuSans-61" x="2489.783203"/>
     <use xlink:href="#DejaVuSans-74" x="2551.0625"/>
     <use xlink:href="#DejaVuSans-75" x="2590.271484"/>
     <use xlink:href="#DejaVuSans-72" x="2653.650391"/>
     <use xlink:href="#DejaVuSans-65" x="2692.513672"/>
     <use xlink:href="#DejaVuSans-20" x="2754.037109"/>
     <use xlink:href="#DejaVuSans-61" x="2785.824219"/>
     <use xlink:href="#DejaVuSans-6c" x="2847.103516"/>
     <use xlink:href="#DejaVuSans-67" x="2874.886719"/>
     <use xlink:href="#DejaVuSans-6f" x="2938.363281"/>
     <use xlink:href="#DejaVuSans-72" x="2999.544922"/>
     <use xlink:href="#DejaVuSans-69" x="3040.658203"/>
     <use xlink:href="#DejaVuSans-74" x="3068.441406"/>
     <use xlink:href="#DejaVuSans-68" x="3107.650391"/>
     <use xlink:href="#DejaVuSans-6d" x="3171.029297"/>
     <use xlink:href="#DejaVuSans-20" x="3268.441406"/>
     <use xlink:href="#DejaVuSans-2014" x="3300.228516"/>
     <use xlink:href="#DejaVuSans-20" x="3400.228516"/>
     <use xlink:href="#DejaVuSans-42" x="3432.015625"/>
     <use xlink:href="#DejaVuSans-61" x="3500.619141"/>
     <use xlink:href="#DejaVuSans-63" x="3561.898438"/>
     <use xlink:href="#DejaVuSans-6b" x="3616.878906"/>
     <use xlink:href="#DejaVuSans-62" x="3674.789062"/>
     <use xlink:href="#DejaVuSans-6f" x="3738.265625"/>
     <use xlink:href="#DejaVuSans-6e" x="3799.447266"/>
     <use xlink:href="#DejaVuSans-65" x="3862.826172"/>
     <use xlink:href="#DejaVuSans-20" x="3924.349609"/>
     <use xlink:href="#DejaVuSans-28" x="3956.136719"/>
     <use xlink:href="#DejaVuSans-32" x="3995.150391"/>
     <use xlink:href="#DejaVuSans-30" x="4058.773438"/>
     <use xlink:href="#DejaVuSans-30" x="4122.396484"/>
     <use xlink:href="#DejaVuSans-6d" x="4186.019531"/>
     <use xlink:href="#DejaVuSans-73" x="4283.431641"/>
     <use xlink:href="#DejaVuSans-2f" x="4335.53125"/>
     <use xlink:href="#DejaVuSans-34" x="4369.222656"/>
     <use xlink:href="#DejaVuSans-25" x="4432.845703"/>
     <use xlink:href="#DejaVuSans-29" x="4527.865234"/>
    </g>
   </g>
  </g>
 </g>
 <defs>
  <clipPath id="p819fb835ef">
   <rect x="58.32" y="27.6" width="792.72" height="367.54"/>
  </clipPath>
 </defs>
</svg>
