<?xml version="1.0" encoding="utf-8" standalone="no"?>
<!DOCTYPE svg PUBLIC "-//W3C//DTD SVG 1.1//EN"
  "http://www.w3.org/Graphics/SVG/1.1/DTD/svg11.dtd">
<svg xmlns:xlink="http://www.w3.org/1999/xlink" width="864pt" height="432pt" viewBox="0 0 864 432" xmlns="http://www.w3.org/2000/svg" version="1.1">
 <metadata>
  <rdf:RDF xmlns:dc="http://purl.org/dc/elements/1.1/" xmlns:cc="http://creativecommons.org/ns#" xmlns:rdf="http://www.w3.org/1999/02/22-rdf-syntax-ns#">
   <cc:Work>
    <dc:type rdf:resource="http://purl.org/dc/dcmitype/StillImage"/>
    <dc:date>2026-03-21T13:58:52.311460</dc:date>
    <dc:format>image/svg+xml</dc:format>
    <dc:creator>
     <cc:Agent>
      <dc:title>Matplotlib v3.6.3, https://matplotlib.org/</dc:title>
     </cc:Agent>
    </dc:creator>
   </cc:Work>
  </rdf:RDF>
 </metadata>
 <defs>
  <style type="text/css">*{stroke-linejoin: round; stroke-linecap: butt}</style>
 </defs>
 <g id="figure_1">
  <g id="patch_1">
   <path d="M 0 432 
L 864 432 
L 864 0 
L 0 0 
z
" style="fill: #ffffff"/>
  </g>
  <g id="axes_1">
   <g id="patch_2">
    <path d="M 58.32 395.14 
L 851.04 395.14 
L 851.04 27.6 
L 58.32 27.6 
z
" style="fill: #ffffff"/>
   </g>
   <g id="matplotlib.axis_1">
    <g id="xtick_1">
     <g id="text_1">
      <!-- P-384 -->
      <g style="fill: #262626" transform="translate(117.642 415.277812) scale(0.14 -0.14)">
       <defs>
        <path id="DejaVuSans-50" d="M 1259 4147 
L 1259 2394 
L 2053 2394 
Q 2494 2394 2734 2622 
Q 2975 2850 2975 3272 
Q 2975 3691 2734 3919 
Q 2494 4147 2053 4147 
L 1259 4147 
z
M 628 4666 
L 2053 4666 
Q 2838 4666 3239 4311 
Q 3641 3956 3641 3272 
Q 3641 2581 3239 2228 
Q 2838 1875 2053 1875 
L 1259 1875 
L 1259 0 
L 628 0 
L 628 4666 
z
" transform="scale(0.015625)"/>
        <path id="DejaVuSans-2d" d="M 313 2009 
L 1997 2009 
L 1997 1497 
L 313 1497 
L 313 2009 
z
" transform="scale(0.015625)"/>
        <path id="DejaVuSans-33" d="M 2597 2516 
Q 3050 2419 3304 2112 
Q 3559 1806 3559 1356 
Q 3559 666 3084 287 
Q 2609 -91 1734 -91 
Q 1441 -91 1130 -33 
Q 819 25 488 141 
L 488 750 
Q 750 597 1062 519 
Q 1375 441 1716 441 
Q 2309 441 2620 675 
Q 2931 909 2931 1356 
Q 2931 1769 2642 2001 
Q 2353 2234 1838 2234 
L 1294 2234 
L 1294 2753 
L 1863 2753 
Q 2328 2753 2575 2939 
Q 2822 3125 2822 3475 
Q 2822 3834 2567 4026 
Q 2313 4219 1838 4219 
Q 1578 4219 1281 4162 
Q 984 4106 628 3988 
L 628 4550 
Q 988 4650 1302 4700 
Q 1616 4750 1894 4750 
Q 2613 4750 3031 4423 
Q 3450 4097 3450 3541 
Q 3450 3153 3228 2886 
Q 3006 2619 2597 2516 
z
" transform="scale(0.015625)"/>
        <path id="DejaVuSans-38" d="M 2034 2216 
Q 1584 2216 1326 1975 
Q 1069 1734 1069 1313 
Q 1069 891 1326 650 
Q 1584 409 2034 409 
Q 2484 409 2743 651 
Q 3003 894 3003 1313 
Q 3003 1734 2745 1975 
Q 2488 2216 2034 2216 
z
M 1403 2484 
Q 997 2584 770 2862 
Q 544 3141 544 3541 
Q 544 4100 942 4425 
Q 1341 4750 2034 4750 
Q 2731 4750 3128 4425 
Q 3525 4100 3525 3541 
Q 3525 3141 3298 2862 
Q 3072 2584 2669 2484 
Q 3125 2378 3379 2068 
Q 3634 1759 3634 1313 
Q 3634 634 3220 271 
Q 2806 -91 2034 -91 
Q 1263 -91 848 271 
Q 434 634 434 1313 
Q 434 1759 690 2068 
Q 947 2378 1403 2484 
z
M 1172 3481 
Q 1172 3119 1398 2916 
Q 1625 2713 2034 2713 
Q 2441 2713 2670 2916 
Q 2900 3119 2900 3481 
Q 2900 3844 2670 4047 
Q 2441 4250 2034 4250 
Q 1625 4250 1398 4047 
Q 1172 3844 1172 3481 
z
" transform="scale(0.015625)"/>
        <path id="DejaVuSans-34" d="M 2419 4116 
L 825 1625 
L 2419 1625 
L 2419 4116 
z
M 2253 4666 
L 3047 4666 
L 3047 1625 
L 3713 1625 
L 3713 1100 
L 3047 1100 
L 3047 0 
L 2419 0 
L 2419 1100 
L 313 1100 
L 313 1709 
L 2253 4666 
z
" transform="scale(0.015625)"/>
       </defs>
       <use xlink:href="#DejaVuSans-50"/>
       <use xlink:href="#DejaVuSans-2d" x="58.052734"/>
       <use xlink:href="#DejaVuSans-33" x="94.136719"/>
       <use xlink:href="#DejaVuSans-38" x="157.759766"/>
       <use xlink:href="#DejaVuSans-34" x="221.382812"/>
      </g>
     </g>
    </g>
    <g id="xtick_2">
     <g id="text_2">
      <!-- x448 -->
      <g style="fill: #262626" transform="translate(278.631625 415.277812) scale(0.14 -0.14)">
       <defs>
        <path id="DejaVuSans-78" d="M 3513 3500 
L 2247 1797 
L 3578 0 
L 2900 0 
L 1881 1375 
L 863 0 
L 184 0 
L 1544 1831 
L 300 3500 
L 978 3500 
L 1906 2253 
L 2834 3500 
L 3513 3500 
z
" transform="scale(0.015625)"/>
       </defs>
       <use xlink:href="#DejaVuSans-78"/>
       <use xlink:href="#DejaVuSans-34" x="59.179688"/>
       <use xlink:href="#DejaVuSans-34" x="122.802734"/>
       <use xlink:href="#DejaVuSans-38" x="186.425781"/>
      </g>
     </g>
    </g>
    <g id="xtick_3">
     <g id="text_3">
      <!-- p384_mlkem768 -->
      <g style="fill: #262626" transform="translate(396.325156 415.277812) scale(0.14 -0.14)">
       <defs>
        <path id="DejaVuSans-70" d="M 1159 525 
L 1159 -1331 
L 581 -1331 
L 581 3500 
L 1159 3500 
L 1159 2969 
Q 1341 3281 1617 3432 
Q 1894 3584 2278 3584 
Q 2916 3584 3314 3078 
Q 3713 2572 3713 1747 
Q 3713 922 3314 415 
Q 2916 -91 2278 -91 
Q 1894 -91 1617 61 
Q 1341 213 1159 525 
z
M 3116 1747 
Q 3116 2381 2855 2742 
Q 2594 3103 2138 3103 
Q 1681 3103 1420 2742 
Q 1159 2381 1159 1747 
Q 1159 1113 1420 752 
Q 1681 391 2138 391 
Q 2594 391 2855 752 
Q 3116 1113 3116 1747 
z
" transform="scale(0.015625)"/>
        <path id="DejaVuSans-5f" d="M 3263 -1063 
L 3263 -1509 
L -63 -1509 
L -63 -1063 
L 3263 -1063 
z
" transform="scale(0.015625)"/>
        <path id="DejaVuSans-6d" d="M 3328 2828 
Q 3544 3216 3844 3400 
Q 4144 3584 4550 3584 
Q 5097 3584 5394 3201 
Q 5691 2819 5691 2113 
L 5691 0 
L 5113 0 
L 5113 2094 
Q 5113 2597 4934 2840 
Q 4756 3084 4391 3084 
Q 3944 3084 3684 2787 
Q 3425 2491 3425 1978 
L 3425 0 
L 2847 0 
L 2847 2094 
Q 2847 2600 2669 2842 
Q 2491 3084 2119 3084 
Q 1678 3084 1418 2786 
Q 1159 2488 1159 1978 
L 1159 0 
L 581 0 
L 581 3500 
L 1159 3500 
L 1159 2956 
Q 1356 3278 1631 3431 
Q 1906 3584 2284 3584 
Q 2666 3584 2933 3390 
Q 3200 3197 3328 2828 
z
" transform="scale(0.015625)"/>
        <path id="DejaVuSans-6c" d="M 603 4863 
L 1178 4863 
L 1178 0 
L 603 0 
L 603 4863 
z
" transform="scale(0.015625)"/>
        <path id="DejaVuSans-6b" d="M 581 4863 
L 1159 4863 
L 1159 1991 
L 2875 3500 
L 3609 3500 
L 1753 1863 
L 3688 0 
L 2938 0 
L 1159 1709 
L 1159 0 
L 581 0 
L 581 4863 
z
" transform="scale(0.015625)"/>
        <path id="DejaVuSans-65" d="M 3597 1894 
L 3597 1613 
L 953 1613 
Q 991 1019 1311 708 
Q 1631 397 2203 397 
Q 2534 397 2845 478 
Q 3156 559 3463 722 
L 3463 178 
Q 3153 47 2828 -22 
Q 2503 -91 2169 -91 
Q 1331 -91 842 396 
Q 353 884 353 1716 
Q 353 2575 817 3079 
Q 1281 3584 2069 3584 
Q 2775 3584 3186 3129 
Q 3597 2675 3597 1894 
z
M 3022 2063 
Q 3016 2534 2758 2815 
Q 2500 3097 2075 3097 
Q 1594 3097 1305 2825 
Q 1016 2553 972 2059 
L 3022 2063 
z
" transform="scale(0.015625)"/>
        <path id="DejaVuSans-37" d="M 525 4666 
L 3525 4666 
L 3525 4397 
L 1831 0 
L 1172 0 
L 2766 4134 
L 525 4134 
L 525 4666 
z
" transform="scale(0.015625)"/>
        <path id="DejaVuSans-36" d="M 2113 2584 
Q 1688 2584 1439 2293 
Q 1191 2003 1191 1497 
Q 1191 994 1439 701 
Q 1688 409 2113 409 
Q 2538 409 2786 701 
Q 3034 994 3034 1497 
Q 3034 2003 2786 2293 
Q 2538 2584 2113 2584 
z
M 3366 4563 
L 3366 3988 
Q 3128 4100 2886 4159 
Q 2644 4219 2406 4219 
Q 1781 4219 1451 3797 
Q 1122 3375 1075 2522 
Q 1259 2794 1537 2939 
Q 1816 3084 2150 3084 
Q 2853 3084 3261 2657 
Q 3669 2231 3669 1497 
Q 3669 778 3244 343 
Q 2819 -91 2113 -91 
Q 1303 -91 875 529 
Q 447 1150 447 2328 
Q 447 3434 972 4092 
Q 1497 4750 2381 4750 
Q 2619 4750 2861 4703 
Q 3103 4656 3366 4563 
z
" transform="scale(0.015625)"/>
       </defs>
       <use xlink:href="#DejaVuSans-70"/>
       <use xlink:href="#DejaVuSans-33" x="63.476562"/>
       <use xlink:href="#DejaVuSans-38" x="127.099609"/>
       <use xlink:href="#DejaVuSans-34" x="190.722656"/>
       <use xlink:href="#DejaVuSans-5f" x="254.345703"/>
       <use xlink:href="#DejaVuSans-6d" x="304.345703"/>
       <use xlink:href="#DejaVuSans-6c" x="401.757812"/>
       <use xlink:href="#DejaVuSans-6b" x="429.541016"/>
       <use xlink:href="#DejaVuSans-65" x="483.826172"/>
       <use xlink:href="#DejaVuSans-6d" x="545.349609"/>
       <use xlink:href="#DejaVuSans-37" x="642.761719"/>
       <use xlink:href="#DejaVuSans-36" x="706.384766"/>
       <use xlink:href="#DejaVuSans-38" x="770.007812"/>
      </g>
     </g>
    </g>
    <g id="xtick_4">
     <g id="text_4">
      <!-- x448_mlkem768 -->
      <g style="fill: #262626" transform="translate(555.169937 415.277812) scale(0.14 -0.14)">
       <use xlink:href="#DejaVuSans-78"/>
       <use xlink:href="#DejaVuSans-34" x="59.179688"/>
       <use xlink:href="#DejaVuSans-34" x="122.802734"/>
       <use xlink:href="#DejaVuSans-38" x="186.425781"/>
       <use xlink:href="#DejaVuSans-5f" x="250.048828"/>
       <use xlink:href="#DejaVuSans-6d" x="300.048828"/>
       <use xlink:href="#DejaVuSans-6c" x="397.460938"/>
       <use xlink:href="#DejaVuSans-6b" x="425.244141"/>
       <use xlink:href="#DejaVuSans-65" x="479.529297"/>
       <use xlink:href="#DejaVuSans-6d" x="541.052734"/>
       <use xlink:href="#DejaVuSans-37" x="638.464844"/>
       <use xlink:href="#DejaVuSans-36" x="702.087891"/>
       <use xlink:href="#DejaVuSans-38" x="765.710938"/>
      </g>
     </g>
    </g>
    <g id="xtick_5">
     <g id="text_5">
      <!-- mlkem768 -->
      <g style="fill: #262626" transform="translate(734.718312 415.277812) scale(0.14 -0.14)">
       <use xlink:href="#DejaVuSans-6d"/>
       <use xlink:href="#DejaVuSans-6c" x="97.412109"/>
       <use xlink:href="#DejaVuSans-6b" x="125.195312"/>
       <use xlink:href="#DejaVuSans-65" x="179.480469"/>
       <use xlink:href="#DejaVuSans-6d" x="241.003906"/>
       <use xlink:href="#DejaVuSans-37" x="338.416016"/>
       <use xlink:href="#DejaVuSans-36" x="402.039062"/>
       <use xlink:href="#DejaVuSans-38" x="465.662109"/>
      </g>
     </g>
    </g>
   </g>
   <g id="matplotlib.axis_2">
    <g id="ytick_1">
     <g id="line2d_1">
      <path d="M 58.32 372.152877 
L 851.04 372.152877 
" clip-path="url(#p9460ce4163)" style="fill: none; stroke: #cccccc; stroke-linecap: round"/>
     </g>
     <g id="text_6">
      <!-- 400 -->
      <g style="fill: #262626" transform="translate(27.82375 376.332018) scale(0.11 -0.11)">
       <defs>
        <path id="DejaVuSans-30" d="M 2034 4250 
Q 1547 4250 1301 3770 
Q 1056 3291 1056 2328 
Q 1056 1369 1301 889 
Q 1547 409 2034 409 
Q 2525 409 2770 889 
Q 3016 1369 3016 2328 
Q 3016 3291 2770 3770 
Q 2525 4250 2034 4250 
z
M 2034 4750 
Q 2819 4750 3233 4129 
Q 3647 3509 3647 2328 
Q 3647 1150 3233 529 
Q 2819 -91 2034 -91 
Q 1250 -91 836 529 
Q 422 1150 422 2328 
Q 422 3509 836 4129 
Q 1250 4750 2034 4750 
z
" transform="scale(0.015625)"/>
       </defs>
       <use xlink:href="#DejaVuSans-34"/>
       <use xlink:href="#DejaVuSans-30" x="63.623047"/>
       <use xlink:href="#DejaVuSans-30" x="127.246094"/>
      </g>
     </g>
    </g>
    <g id="ytick_2">
     <g id="line2d_2">
      <path d="M 58.32 296.408634 
L 851.04 296.408634 
" clip-path="url(#p9460ce4163)" style="fill: none; stroke: #cccccc; stroke-linecap: round"/>
     </g>
     <g id="text_7">
      <!-- 500 -->
      <g style="fill: #262626" transform="translate(27.82375 300.587775) scale(0.11 -0.11)">
       <defs>
        <path id="DejaVuSans-35" d="M 691 4666 
L 3169 4666 
L 3169 4134 
L 1269 4134 
L 1269 2991 
Q 1406 3038 1543 3061 
Q 1681 3084 1819 3084 
Q 2600 3084 3056 2656 
Q 3513 2228 3513 1497 
Q 3513 744 3044 326 
Q 2575 -91 1722 -91 
Q 1428 -91 1123 -41 
Q 819 9 494 109 
L 494 744 
Q 775 591 1075 516 
Q 1375 441 1709 441 
Q 2250 441 2565 725 
Q 2881 1009 2881 1497 
Q 2881 1984 2565 2268 
Q 2250 2553 1709 2553 
Q 1456 2553 1204 2497 
Q 953 2441 691 2322 
L 691 4666 
z
" transform="scale(0.015625)"/>
       </defs>
       <use xlink:href="#DejaVuSans-35"/>
       <use xlink:href="#DejaVuSans-30" x="63.623047"/>
       <use xlink:href="#DejaVuSans-30" x="127.246094"/>
      </g>
     </g>
    </g>
    <g id="ytick_3">
     <g id="line2d_3">
      <path d="M 58.32 220.664391 
L 851.04 220.664391 
" clip-path="url(#p9460ce4163)" style="fill: none; stroke: #cccccc; stroke-linecap: round"/>
     </g>
     <g id="text_8">
      <!-- 600 -->
      <g style="fill: #262626" transform="translate(27.82375 224.843532) scale(0.11 -0.11)">
       <use xlink:href="#DejaVuSans-36"/>
       <use xlink:href="#DejaVuSans-30" x="63.623047"/>
       <use xlink:href="#DejaVuSans-30" x="127.246094"/>
      </g>
     </g>
    </g>
    <g id="ytick_4">
     <g id="line2d_4">
      <path d="M 58.32 144.920148 
L 851.04 144.920148 
" clip-path="url(#p9460ce4163)" style="fill: none; stroke: #cccccc; stroke-linecap: round"/>
     </g>
     <g id="text_9">
      <!-- 700 -->
      <g style="fill: #262626" transform="translate(27.82375 149.099289) scale(0.11 -0.11)">
       <use xlink:href="#DejaVuSans-37"/>
       <use xlink:href="#DejaVuSans-30" x="63.623047"/>
       <use xlink:href="#DejaVuSans-30" x="127.246094"/>
      </g>
     </g>
    </g>
    <g id="ytick_5">
     <g id="line2d_5">
      <path d="M 58.32 69.175905 
L 851.04 69.175905 
" clip-path="url(#p9460ce4163)" style="fill: none; stroke: #cccccc; stroke-linecap: round"/>
     </g>
     <g id="text_10">
      <!-- 800 -->
      <g style="fill: #262626" transform="translate(27.82375 73.355046) scale(0.11 -0.11)">
       <use xlink:href="#DejaVuSans-38"/>
       <use xlink:href="#DejaVuSans-30" x="63.623047"/>
       <use xlink:href="#DejaVuSans-30" x="127.246094"/>
      </g>
     </g>
    </g>
    <g id="text_11">
     <!-- Handshake duration (ms) -->
     <g style="fill: #262626" transform="translate(21.328125 287.437813) rotate(-90) scale(0.12 -0.12)">
      <defs>
       <path id="DejaVuSans-48" d="M 628 4666 
L 1259 4666 
L 1259 2753 
L 3553 2753 
L 3553 4666 
L 4184 4666 
L 4184 0 
L 3553 0 
L 3553 2222 
L 1259 2222 
L 1259 0 
L 628 0 
L 628 4666 
z
" transform="scale(0.015625)"/>
       <path id="DejaVuSans-61" d="M 2194 1759 
Q 1497 1759 1228 1600 
Q 959 1441 959 1056 
Q 959 750 1161 570 
Q 1363 391 1709 391 
Q 2188 391 2477 730 
Q 2766 1069 2766 1631 
L 2766 1759 
L 2194 1759 
z
M 3341 1997 
L 3341 0 
L 2766 0 
L 2766 531 
Q 2569 213 2275 61 
Q 1981 -91 1556 -91 
Q 1019 -91 701 211 
Q 384 513 384 1019 
Q 384 1609 779 1909 
Q 1175 2209 1959 2209 
L 2766 2209 
L 2766 2266 
Q 2766 2663 2505 2880 
Q 2244 3097 1772 3097 
Q 1472 3097 1187 3025 
Q 903 2953 641 2809 
L 641 3341 
Q 956 3463 1253 3523 
Q 1550 3584 1831 3584 
Q 2591 3584 2966 3190 
Q 3341 2797 3341 1997 
z
" transform="scale(0.015625)"/>
       <path id="DejaVuSans-6e" d="M 3513 2113 
L 3513 0 
L 2938 0 
L 2938 2094 
Q 2938 2591 2744 2837 
Q 2550 3084 2163 3084 
Q 1697 3084 1428 2787 
Q 1159 2491 1159 1978 
L 1159 0 
L 581 0 
L 581 3500 
L 1159 3500 
L 1159 2956 
Q 1366 3272 1645 3428 
Q 1925 3584 2291 3584 
Q 2894 3584 3203 3211 
Q 3513 2838 3513 2113 
z
" transform="scale(0.015625)"/>
       <path id="DejaVuSans-64" d="M 2906 2969 
L 2906 4863 
L 3481 4863 
L 3481 0 
L 2906 0 
L 2906 525 
Q 2725 213 2448 61 
Q 2172 -91 1784 -91 
Q 1150 -91 751 415 
Q 353 922 353 1747 
Q 353 2572 751 3078 
Q 1150 3584 1784 3584 
Q 2172 3584 2448 3432 
Q 2725 3281 2906 2969 
z
M 947 1747 
Q 947 1113 1208 752 
Q 1469 391 1925 391 
Q 2381 391 2643 752 
Q 2906 1113 2906 1747 
Q 2906 2381 2643 2742 
Q 2381 3103 1925 3103 
Q 1469 3103 1208 2742 
Q 947 2381 947 1747 
z
" transform="scale(0.015625)"/>
       <path id="DejaVuSans-73" d="M 2834 3397 
L 2834 2853 
Q 2591 2978 2328 3040 
Q 2066 3103 1784 3103 
Q 1356 3103 1142 2972 
Q 928 2841 928 2578 
Q 928 2378 1081 2264 
Q 1234 2150 1697 2047 
L 1894 2003 
Q 2506 1872 2764 1633 
Q 3022 1394 3022 966 
Q 3022 478 2636 193 
Q 2250 -91 1575 -91 
Q 1294 -91 989 -36 
Q 684 19 347 128 
L 347 722 
Q 666 556 975 473 
Q 1284 391 1588 391 
Q 1994 391 2212 530 
Q 2431 669 2431 922 
Q 2431 1156 2273 1281 
Q 2116 1406 1581 1522 
L 1381 1569 
Q 847 1681 609 1914 
Q 372 2147 372 2553 
Q 372 3047 722 3315 
Q 1072 3584 1716 3584 
Q 2034 3584 2315 3537 
Q 2597 3491 2834 3397 
z
" transform="scale(0.015625)"/>
       <path id="DejaVuSans-68" d="M 3513 2113 
L 3513 0 
L 2938 0 
L 2938 2094 
Q 2938 2591 2744 2837 
Q 2550 3084 2163 3084 
Q 1697 3084 1428 2787 
Q 1159 2491 1159 1978 
L 1159 0 
L 581 0 
L 581 4863 
L 1159 4863 
L 1159 2956 
Q 1366 3272 1645 3428 
Q 1925 3584 2291 3584 
Q 2894 3584 3203 3211 
Q 3513 2838 3513 2113 
z
" transform="scale(0.015625)"/>
       <path id="DejaVuSans-20" transform="scale(0.015625)"/>
       <path id="DejaVuSans-75" d="M 544 1381 
L 544 3500 
L 1119 3500 
L 1119 1403 
Q 1119 906 1312 657 
Q 1506 409 1894 409 
Q 2359 409 2629 706 
Q 2900 1003 2900 1516 
L 2900 3500 
L 3475 3500 
L 3475 0 
L 2900 0 
L 2900 538 
Q 2691 219 2414 64 
Q 2138 -91 1772 -91 
Q 1169 -91 856 284 
Q 544 659 544 1381 
z
M 1991 3584 
L 1991 3584 
z
" transform="scale(0.015625)"/>
       <path id="DejaVuSans-72" d="M 2631 2963 
Q 2534 3019 2420 3045 
Q 2306 3072 2169 3072 
Q 1681 3072 1420 2755 
Q 1159 2438 1159 1844 
L 1159 0 
L 581 0 
L 581 3500 
L 1159 3500 
L 1159 2956 
Q 1341 3275 1631 3429 
Q 1922 3584 2338 3584 
Q 2397 3584 2469 3576 
Q 2541 3569 2628 3553 
L 2631 2963 
z
" transform="scale(0.015625)"/>
       <path id="DejaVuSans-74" d="M 1172 4494 
L 1172 3500 
L 2356 3500 
L 2356 3053 
L 1172 3053 
L 1172 1153 
Q 1172 725 1289 603 
Q 1406 481 1766 481 
L 2356 481 
L 2356 0 
L 1766 0 
Q 1100 0 847 248 
Q 594 497 594 1153 
L 594 3053 
L 172 3053 
L 172 3500 
L 594 3500 
L 594 4494 
L 1172 4494 
z
" transform="scale(0.015625)"/>
       <path id="DejaVuSans-69" d="M 603 3500 
L 1178 3500 
L 1178 0 
L 603 0 
L 603 3500 
z
M 603 4863 
L 1178 4863 
L 1178 4134 
L 603 4134 
L 603 4863 
z
" transform="scale(0.015625)"/>
       <path id="DejaVuSans-6f" d="M 1959 3097 
Q 1497 3097 1228 2736 
Q 959 2375 959 1747 
Q 959 1119 1226 758 
Q 1494 397 1959 397 
Q 2419 397 2687 759 
Q 2956 1122 2956 1747 
Q 2956 2369 2687 2733 
Q 2419 3097 1959 3097 
z
M 1959 3584 
Q 2709 3584 3137 3096 
Q 3566 2609 3566 1747 
Q 3566 888 3137 398 
Q 2709 -91 1959 -91 
Q 1206 -91 779 398 
Q 353 888 353 1747 
Q 353 2609 779 3096 
Q 1206 3584 1959 3584 
z
" transform="scale(0.015625)"/>
       <path id="DejaVuSans-28" d="M 1984 4856 
Q 1566 4138 1362 3434 
Q 1159 2731 1159 2009 
Q 1159 1288 1364 580 
Q 1569 -128 1984 -844 
L 1484 -844 
Q 1016 -109 783 600 
Q 550 1309 550 2009 
Q 550 2706 781 3412 
Q 1013 4119 1484 4856 
L 1984 4856 
z
" transform="scale(0.015625)"/>
       <path id="DejaVuSans-29" d="M 513 4856 
L 1013 4856 
Q 1481 4119 1714 3412 
Q 1947 2706 1947 2009 
Q 1947 1309 1714 600 
Q 1481 -109 1013 -844 
L 513 -844 
Q 928 -128 1133 580 
Q 1338 1288 1338 2009 
Q 1338 2731 1133 3434 
Q 928 4138 513 4856 
z
" transform="scale(0.015625)"/>
      </defs>
      <use xlink:href="#DejaVuSans-48"/>
      <use xlink:href="#DejaVuSans-61" x="75.195312"/>
      <use xlink:href="#DejaVuSans-6e" x="136.474609"/>
      <use xlink:href="#DejaVuSans-64" x="199.853516"/>
      <use xlink:href="#DejaVuSans-73" x="263.330078"/>
      <use xlink:href="#DejaVuSans-68" x="315.429688"/>
      <use xlink:href="#DejaVuSans-61" x="378.808594"/>
      <use xlink:href="#DejaVuSans-6b" x="440.087891"/>
      <use xlink:href="#DejaVuSans-65" x="494.373047"/>
      <use xlink:href="#DejaVuSans-20" x="555.896484"/>
      <use xlink:href="#DejaVuSans-64" x="587.683594"/>
      <use xlink:href="#DejaVuSans-75" x="651.160156"/>
      <use xlink:href="#DejaVuSans-72" x="714.539062"/>
      <use xlink:href="#DejaVuSans-61" x="755.652344"/>
      <use xlink:href="#DejaVuSans-74" x="816.931641"/>
      <use xlink:href="#DejaVuSans-69" x="856.140625"/>
      <use xlink:href="#DejaVuSans-6f" x="883.923828"/>
      <use xlink:href="#DejaVuSans-6e" x="945.105469"/>
      <use xlink:href="#DejaVuSans-20" x="1008.484375"/>
      <use xlink:href="#DejaVuSans-28" x="1040.271484"/>
      <use xlink:href="#DejaVuSans-6d" x="1079.285156"/>
      <use xlink:href="#DejaVuSans-73" x="1176.697266"/>
      <use xlink:href="#DejaVuSans-29" x="1228.796875"/>
     </g>
    </g>
   </g>
   <g id="PolyCollection_1">
    <defs>
     <path id="mb8c38cd30e" d="M 144.779636 -55.0719 
L 130.404364 -55.0719 
L 111.69766 -58.324226 
L 84.116389 -61.576553 
L 74.1744 -64.828879 
L 94.308946 -68.081205 
L 120.546082 -71.333531 
L 133.706632 -74.585858 
L 137.077733 -77.838184 
L 137.552341 -81.09051 
L 137.590213 -84.342836 
L 137.591953 -87.595163 
L 137.591999 -90.847489 
L 137.592 -94.099815 
L 137.592 -97.352141 
L 137.592 -100.604468 
L 137.592 -103.856794 
L 137.592 -107.10912 
L 137.592 -110.361446 
L 137.592 -113.613773 
L 137.592 -116.866099 
L 137.592 -120.118425 
L 137.592 -123.370751 
L 137.592 -126.623078 
L 137.592 -129.875404 
L 137.592 -133.12773 
L 137.592 -136.380056 
L 137.592 -139.632383 
L 137.592 -142.884709 
L 137.592 -146.137035 
L 137.592 -149.389361 
L 137.592 -152.641688 
L 137.592 -155.894014 
L 137.592 -159.14634 
L 137.592 -162.398666 
L 137.592 -165.650993 
L 137.592 -168.903319 
L 137.592 -172.155645 
L 137.592 -175.407971 
L 137.592 -178.660298 
L 137.592 -181.912624 
L 137.592 -185.16495 
L 137.592 -188.417276 
L 137.592 -191.669603 
L 137.592 -194.921929 
L 137.592 -198.174255 
L 137.592 -201.426581 
L 137.592 -204.678908 
L 137.592 -207.931234 
L 137.592 -211.18356 
L 137.592 -214.435886 
L 137.592 -217.688213 
L 137.592 -220.940539 
L 137.592 -224.192865 
L 137.592 -227.445191 
L 137.592 -230.697518 
L 137.592 -233.949844 
L 137.592 -237.20217 
L 137.592 -240.454496 
L 137.592 -243.706823 
L 137.592 -246.959149 
L 137.592 -250.211475 
L 137.592 -253.463801 
L 137.592 -256.716128 
L 137.592 -259.968454 
L 137.592 -263.22078 
L 137.592 -266.473106 
L 137.592 -269.725433 
L 137.592 -272.977759 
L 137.592 -276.230085 
L 137.592 -279.482412 
L 137.592 -282.734738 
L 137.592 -285.987064 
L 137.592 -289.23939 
L 137.592 -292.491717 
L 137.592 -295.744043 
L 137.592 -298.996369 
L 137.592 -302.248695 
L 137.592 -305.501022 
L 137.592 -308.753348 
L 137.592 -312.005674 
L 137.592 -315.258 
L 137.592 -318.510327 
L 137.592 -321.762653 
L 137.592 -325.014979 
L 137.592 -328.267305 
L 137.592 -331.519632 
L 137.592 -334.771958 
L 137.592 -338.024284 
L 137.592 -341.27661 
L 137.592 -344.528937 
L 137.591998 -347.781263 
L 137.591952 -351.033589 
L 137.591264 -354.285915 
L 137.585623 -357.538242 
L 137.560539 -360.790568 
L 137.503605 -364.042894 
L 137.450571 -367.29522 
L 137.463142 -370.547547 
L 137.525143 -373.799873 
L 137.572246 -377.052199 
L 137.611754 -377.052199 
L 137.611754 -377.052199 
L 137.658857 -373.799873 
L 137.720858 -370.547547 
L 137.733429 -367.29522 
L 137.680395 -364.042894 
L 137.623461 -360.790568 
L 137.598377 -357.538242 
L 137.592736 -354.285915 
L 137.592048 -351.033589 
L 137.592002 -347.781263 
L 137.592 -344.528937 
L 137.592 -341.27661 
L 137.592 -338.024284 
L 137.592 -334.771958 
L 137.592 -331.519632 
L 137.592 -328.267305 
L 137.592 -325.014979 
L 137.592 -321.762653 
L 137.592 -318.510327 
L 137.592 -315.258 
L 137.592 -312.005674 
L 137.592 -308.753348 
L 137.592 -305.501022 
L 137.592 -302.248695 
L 137.592 -298.996369 
L 137.592 -295.744043 
L 137.592 -292.491717 
L 137.592 -289.23939 
L 137.592 -285.987064 
L 137.592 -282.734738 
L 137.592 -279.482412 
L 137.592 -276.230085 
L 137.592 -272.977759 
L 137.592 -269.725433 
L 137.592 -266.473106 
L 137.592 -263.22078 
L 137.592 -259.968454 
L 137.592 -256.716128 
L 137.592 -253.463801 
L 137.592 -250.211475 
L 137.592 -246.959149 
L 137.592 -243.706823 
L 137.592 -240.454496 
L 137.592 -237.20217 
L 137.592 -233.949844 
L 137.592 -230.697518 
L 137.592 -227.445191 
L 137.592 -224.192865 
L 137.592 -220.940539 
L 137.592 -217.688213 
L 137.592 -214.435886 
L 137.592 -211.18356 
L 137.592 -207.931234 
L 137.592 -204.678908 
L 137.592 -201.426581 
L 137.592 -198.174255 
L 137.592 -194.921929 
L 137.592 -191.669603 
L 137.592 -188.417276 
L 137.592 -185.16495 
L 137.592 -181.912624 
L 137.592 -178.660298 
L 137.592 -175.407971 
L 137.592 -172.155645 
L 137.592 -168.903319 
L 137.592 -165.650993 
L 137.592 -162.398666 
L 137.592 -159.14634 
L 137.592 -155.894014 
L 137.592 -152.641688 
L 137.592 -149.389361 
L 137.592 -146.137035 
L 137.592 -142.884709 
L 137.592 -139.632383 
L 137.592 -136.380056 
L 137.592 -133.12773 
L 137.592 -129.875404 
L 137.592 -126.623078 
L 137.592 -123.370751 
L 137.592 -120.118425 
L 137.592 -116.866099 
L 137.592 -113.613773 
L 137.592 -110.361446 
L 137.592 -107.10912 
L 137.592 -103.856794 
L 137.592 -100.604468 
L 137.592 -97.352141 
L 137.592 -94.099815 
L 137.592001 -90.847489 
L 137.592047 -87.595163 
L 137.593787 -84.342836 
L 137.631659 -81.09051 
L 138.106267 -77.838184 
L 141.477368 -74.585858 
L 154.637918 -71.333531 
L 180.875054 -68.081205 
L 201.0096 -64.828879 
L 191.067611 -61.576553 
L 163.48634 -58.324226 
L 144.779636 -55.0719 
z
" style="stroke: #595959; stroke-width: 1.25"/>
    </defs>
    <g clip-path="url(#p9460ce4163)">
     <use xlink:href="#mb8c38cd30e" x="0" y="432" style="fill: #72b6a1; stroke: #595959; stroke-width: 1.25"/>
    </g>
   </g>
   <g id="PolyCollection_2">
    <defs>
     <path id="mce79d4df32" d="M 303.582836 -54.204317 
L 288.689164 -54.204317 
L 269.195048 -57.442113 
L 241.144648 -60.679908 
L 232.7184 -63.917704 
L 254.750432 -67.1555 
L 280.825483 -70.393296 
L 292.918806 -73.631091 
L 295.751246 -76.868887 
L 296.109761 -80.106683 
L 296.134978 -83.344479 
L 296.135977 -86.582275 
L 296.136 -89.82007 
L 296.136 -93.057866 
L 296.136 -96.295662 
L 296.136 -99.533458 
L 296.136 -102.771253 
L 296.136 -106.009049 
L 296.136 -109.246845 
L 296.136 -112.484641 
L 296.136 -115.722437 
L 296.136 -118.960232 
L 296.136 -122.198028 
L 296.136 -125.435824 
L 296.136 -128.67362 
L 296.136 -131.911415 
L 296.136 -135.149211 
L 296.136 -138.387007 
L 296.136 -141.624803 
L 296.136 -144.862599 
L 296.136 -148.100394 
L 296.136 -151.33819 
L 296.136 -154.575986 
L 296.136 -157.813782 
L 296.136 -161.051577 
L 296.136 -164.289373 
L 296.136 -167.527169 
L 296.136 -170.764965 
L 296.136 -174.00276 
L 296.136 -177.240556 
L 296.136 -180.478352 
L 296.136 -183.716148 
L 296.136 -186.953944 
L 296.136 -190.191739 
L 296.136 -193.429535 
L 296.136 -196.667331 
L 296.136 -199.905127 
L 296.136 -203.142922 
L 296.136 -206.380718 
L 296.136 -209.618514 
L 296.136 -212.85631 
L 296.136 -216.094106 
L 296.136 -219.331901 
L 296.136 -222.569697 
L 296.136 -225.807493 
L 296.136 -229.045289 
L 296.136 -232.283084 
L 296.136 -235.52088 
L 296.136 -238.758676 
L 296.136 -241.996472 
L 296.136 -245.234268 
L 296.136 -248.472063 
L 296.136 -251.709859 
L 296.136 -254.947655 
L 296.136 -258.185451 
L 296.136 -261.423246 
L 296.136 -264.661042 
L 296.136 -267.898838 
L 296.136 -271.136634 
L 296.136 -274.37443 
L 296.136 -277.612225 
L 296.136 -280.850021 
L 296.136 -284.087817 
L 296.136 -287.325613 
L 296.136 -290.563408 
L 296.136 -293.801204 
L 296.136 -297.039 
L 296.136 -300.276796 
L 296.136 -303.514591 
L 296.136 -306.752387 
L 296.136 -309.990183 
L 296.136 -313.227979 
L 296.136 -316.465775 
L 296.136 -319.70357 
L 296.136 -322.941366 
L 296.136 -326.179162 
L 296.136 -329.416958 
L 296.136 -332.654753 
L 296.136 -335.892549 
L 296.136 -339.130345 
L 296.136 -342.368141 
L 296.135999 -345.605937 
L 296.135966 -348.843732 
L 296.135432 -352.081528 
L 296.130666 -355.319324 
L 296.107925 -358.55712 
L 296.053145 -361.794915 
L 295.998891 -365.032711 
L 296.008782 -368.270507 
L 296.069814 -371.508303 
L 296.116692 -374.746099 
L 296.155308 -374.746099 
L 296.155308 -374.746099 
L 296.202186 -371.508303 
L 296.263218 -368.270507 
L 296.273109 -365.032711 
L 296.218855 -361.794915 
L 296.164075 -358.55712 
L 296.141334 -355.319324 
L 296.136568 -352.081528 
L 296.136034 -348.843732 
L 296.136001 -345.605937 
L 296.136 -342.368141 
L 296.136 -339.130345 
L 296.136 -335.892549 
L 296.136 -332.654753 
L 296.136 -329.416958 
L 296.136 -326.179162 
L 296.136 -322.941366 
L 296.136 -319.70357 
L 296.136 -316.465775 
L 296.136 -313.227979 
L 296.136 -309.990183 
L 296.136 -306.752387 
L 296.136 -303.514591 
L 296.136 -300.276796 
L 296.136 -297.039 
L 296.136 -293.801204 
L 296.136 -290.563408 
L 296.136 -287.325613 
L 296.136 -284.087817 
L 296.136 -280.850021 
L 296.136 -277.612225 
L 296.136 -274.37443 
L 296.136 -271.136634 
L 296.136 -267.898838 
L 296.136 -264.661042 
L 296.136 -261.423246 
L 296.136 -258.185451 
L 296.136 -254.947655 
L 296.136 -251.709859 
L 296.136 -248.472063 
L 296.136 -245.234268 
L 296.136 -241.996472 
L 296.136 -238.758676 
L 296.136 -235.52088 
L 296.136 -232.283084 
L 296.136 -229.045289 
L 296.136 -225.807493 
L 296.136 -222.569697 
L 296.136 -219.331901 
L 296.136 -216.094106 
L 296.136 -212.85631 
L 296.136 -209.618514 
L 296.136 -206.380718 
L 296.136 -203.142922 
L 296.136 -199.905127 
L 296.136 -196.667331 
L 296.136 -193.429535 
L 296.136 -190.191739 
L 296.136 -186.953944 
L 296.136 -183.716148 
L 296.136 -180.478352 
L 296.136 -177.240556 
L 296.136 -174.00276 
L 296.136 -170.764965 
L 296.136 -167.527169 
L 296.136 -164.289373 
L 296.136 -161.051577 
L 296.136 -157.813782 
L 296.136 -154.575986 
L 296.136 -151.33819 
L 296.136 -148.100394 
L 296.136 -144.862599 
L 296.136 -141.624803 
L 296.136 -138.387007 
L 296.136 -135.149211 
L 296.136 -131.911415 
L 296.136 -128.67362 
L 296.136 -125.435824 
L 296.136 -122.198028 
L 296.136 -118.960232 
L 296.136 -115.722437 
L 296.136 -112.484641 
L 296.136 -109.246845 
L 296.136 -106.009049 
L 296.136 -102.771253 
L 296.136 -99.533458 
L 296.136 -96.295662 
L 296.136 -93.057866 
L 296.136 -89.82007 
L 296.136023 -86.582275 
L 296.137022 -83.344479 
L 296.162239 -80.106683 
L 296.520754 -76.868887 
L 299.353194 -73.631091 
L 311.446517 -70.393296 
L 337.521568 -67.1555 
L 359.5536 -63.917704 
L 351.127352 -60.679908 
L 323.076952 -57.442113 
L 303.582836 -54.204317 
z
" style="stroke: #595959; stroke-width: 1.25"/>
    </defs>
    <g clip-path="url(#p9460ce4163)">
     <use xlink:href="#mce79d4df32" x="0" y="432" style="fill: #e99675; stroke: #595959; stroke-width: 1.25"/>
    </g>
   </g>
   <g id="PolyCollection_3">
    <defs>
     <path id="m1d5ecc42ff" d="M 461.363822 -60.185265 
L 447.996178 -60.185265 
L 430.324598 -63.493431 
L 403.425459 -66.801596 
L 391.2624 -70.109761 
L 406.994579 -73.417927 
L 431.76501 -76.726092 
L 447.27619 -80.034258 
L 453.045965 -83.342423 
L 454.440927 -86.650588 
L 454.657838 -89.958754 
L 454.678741 -93.266919 
L 454.679957 -96.575084 
L 454.679999 -99.88325 
L 454.68 -103.191415 
L 454.68 -106.49958 
L 454.68 -109.807746 
L 454.68 -113.115911 
L 454.68 -116.424077 
L 454.68 -119.732242 
L 454.68 -123.040407 
L 454.68 -126.348573 
L 454.68 -129.656738 
L 454.68 -132.964903 
L 454.68 -136.273069 
L 454.68 -139.581234 
L 454.68 -142.889399 
L 454.68 -146.197565 
L 454.68 -149.50573 
L 454.68 -152.813896 
L 454.68 -156.122061 
L 454.68 -159.430226 
L 454.68 -162.738392 
L 454.68 -166.046557 
L 454.68 -169.354722 
L 454.68 -172.662888 
L 454.68 -175.971053 
L 454.68 -179.279218 
L 454.68 -182.587384 
L 454.68 -185.895549 
L 454.68 -189.203715 
L 454.68 -192.51188 
L 454.68 -195.820045 
L 454.68 -199.128211 
L 454.68 -202.436376 
L 454.68 -205.744541 
L 454.68 -209.052707 
L 454.68 -212.360872 
L 454.68 -215.669037 
L 454.68 -218.977203 
L 454.68 -222.285368 
L 454.68 -225.593534 
L 454.68 -228.901699 
L 454.68 -232.209864 
L 454.68 -235.51803 
L 454.68 -238.826195 
L 454.68 -242.13436 
L 454.68 -245.442526 
L 454.68 -248.750691 
L 454.68 -252.058856 
L 454.68 -255.367022 
L 454.68 -258.675187 
L 454.68 -261.983353 
L 454.68 -265.291518 
L 454.68 -268.599683 
L 454.68 -271.907849 
L 454.68 -275.216014 
L 454.68 -278.524179 
L 454.68 -281.832345 
L 454.68 -285.14051 
L 454.68 -288.448675 
L 454.68 -291.756841 
L 454.68 -295.065006 
L 454.68 -298.373172 
L 454.68 -301.681337 
L 454.68 -304.989502 
L 454.68 -308.297668 
L 454.68 -311.605833 
L 454.68 -314.913998 
L 454.68 -318.222164 
L 454.68 -321.530329 
L 454.68 -324.838494 
L 454.68 -328.14666 
L 454.68 -331.454825 
L 454.68 -334.762991 
L 454.68 -338.071156 
L 454.68 -341.379321 
L 454.68 -344.687487 
L 454.68 -347.995652 
L 454.68 -351.303817 
L 454.68 -354.611983 
L 454.679998 -357.920148 
L 454.679956 -361.228313 
L 454.679301 -364.536479 
L 454.673766 -367.844644 
L 454.648515 -371.15281 
L 454.589957 -374.460975 
L 454.534177 -377.76914 
L 454.546266 -381.077306 
L 454.610547 -384.385471 
L 454.659574 -387.693636 
L 454.700426 -387.693636 
L 454.700426 -387.693636 
L 454.749453 -384.385471 
L 454.813734 -381.077306 
L 454.825823 -377.76914 
L 454.770043 -374.460975 
L 454.711485 -371.15281 
L 454.686234 -367.844644 
L 454.680699 -364.536479 
L 454.680044 -361.228313 
L 454.680002 -357.920148 
L 454.68 -354.611983 
L 454.68 -351.303817 
L 454.68 -347.995652 
L 454.68 -344.687487 
L 454.68 -341.379321 
L 454.68 -338.071156 
L 454.68 -334.762991 
L 454.68 -331.454825 
L 454.68 -328.14666 
L 454.68 -324.838494 
L 454.68 -321.530329 
L 454.68 -318.222164 
L 454.68 -314.913998 
L 454.68 -311.605833 
L 454.68 -308.297668 
L 454.68 -304.989502 
L 454.68 -301.681337 
L 454.68 -298.373172 
L 454.68 -295.065006 
L 454.68 -291.756841 
L 454.68 -288.448675 
L 454.68 -285.14051 
L 454.68 -281.832345 
L 454.68 -278.524179 
L 454.68 -275.216014 
L 454.68 -271.907849 
L 454.68 -268.599683 
L 454.68 -265.291518 
L 454.68 -261.983353 
L 454.68 -258.675187 
L 454.68 -255.367022 
L 454.68 -252.058856 
L 454.68 -248.750691 
L 454.68 -245.442526 
L 454.68 -242.13436 
L 454.68 -238.826195 
L 454.68 -235.51803 
L 454.68 -232.209864 
L 454.68 -228.901699 
L 454.68 -225.593534 
L 454.68 -222.285368 
L 454.68 -218.977203 
L 454.68 -215.669037 
L 454.68 -212.360872 
L 454.68 -209.052707 
L 454.68 -205.744541 
L 454.68 -202.436376 
L 454.68 -199.128211 
L 454.68 -195.820045 
L 454.68 -192.51188 
L 454.68 -189.203715 
L 454.68 -185.895549 
L 454.68 -182.587384 
L 454.68 -179.279218 
L 454.68 -175.971053 
L 454.68 -172.662888 
L 454.68 -169.354722 
L 454.68 -166.046557 
L 454.68 -162.738392 
L 454.68 -159.430226 
L 454.68 -156.122061 
L 454.68 -152.813896 
L 454.68 -149.50573 
L 454.68 -146.197565 
L 454.68 -142.889399 
L 454.68 -139.581234 
L 454.68 -136.273069 
L 454.68 -132.964903 
L 454.68 -129.656738 
L 454.68 -126.348573 
L 454.68 -123.040407 
L 454.68 -119.732242 
L 454.68 -116.424077 
L 454.68 -113.115911 
L 454.68 -109.807746 
L 454.68 -106.49958 
L 454.68 -103.191415 
L 454.680001 -99.88325 
L 454.680043 -96.575084 
L 454.681259 -93.266919 
L 454.702162 -89.958754 
L 454.919073 -86.650588 
L 456.314035 -83.342423 
L 462.08381 -80.034258 
L 477.59499 -76.726092 
L 502.365421 -73.417927 
L 518.0976 -70.109761 
L 505.934541 -66.801596 
L 479.035402 -63.493431 
L 461.363822 -60.185265 
z
" style="stroke: #595959; stroke-width: 1.25"/>
    </defs>
    <g clip-path="url(#p9460ce4163)">
     <use xlink:href="#m1d5ecc42ff" x="0" y="432" style="fill: #95a3c3; stroke: #595959; stroke-width: 1.25"/>
    </g>
   </g>
   <g id="PolyCollection_4">
    <defs>
     <path id="m3995c09af7" d="M 620.312469 -55.541995 
L 606.135531 -55.541995 
L 587.246056 -58.823844 
L 559.333751 -62.105694 
L 549.8064 -65.387543 
L 570.778223 -68.669392 
L 597.017545 -71.951241 
L 609.682475 -75.23309 
L 612.779604 -78.514939 
L 613.191885 -81.796788 
L 613.22266 -85.078638 
L 613.223968 -88.360487 
L 613.224 -91.642336 
L 613.224 -94.924185 
L 613.224 -98.206034 
L 613.224 -101.487883 
L 613.224 -104.769732 
L 613.224 -108.051582 
L 613.224 -111.333431 
L 613.224 -114.61528 
L 613.224 -117.897129 
L 613.224 -121.178978 
L 613.224 -124.460827 
L 613.224 -127.742676 
L 613.224 -131.024526 
L 613.224 -134.306375 
L 613.224 -137.588224 
L 613.224 -140.870073 
L 613.224 -144.151922 
L 613.224 -147.433771 
L 613.224 -150.71562 
L 613.224 -153.99747 
L 613.224 -157.279319 
L 613.224 -160.561168 
L 613.224 -163.843017 
L 613.224 -167.124866 
L 613.224 -170.406715 
L 613.224 -173.688564 
L 613.224 -176.970414 
L 613.224 -180.252263 
L 613.224 -183.534112 
L 613.224 -186.815961 
L 613.224 -190.09781 
L 613.224 -193.379659 
L 613.224 -196.661508 
L 613.224 -199.943358 
L 613.224 -203.225207 
L 613.224 -206.507056 
L 613.224 -209.788905 
L 613.224 -213.070754 
L 613.224 -216.352603 
L 613.224 -219.634452 
L 613.224 -222.916301 
L 613.224 -226.198151 
L 613.224 -229.48 
L 613.224 -232.761849 
L 613.224 -236.043698 
L 613.224 -239.325547 
L 613.224 -242.607396 
L 613.224 -245.889245 
L 613.224 -249.171095 
L 613.224 -252.452944 
L 613.224 -255.734793 
L 613.224 -259.016642 
L 613.224 -262.298491 
L 613.224 -265.58034 
L 613.224 -268.862189 
L 613.224 -272.144039 
L 613.224 -275.425888 
L 613.224 -278.707737 
L 613.224 -281.989586 
L 613.224 -285.271435 
L 613.224 -288.553284 
L 613.224 -291.835133 
L 613.224 -295.116983 
L 613.224 -298.398832 
L 613.224 -301.680681 
L 613.224 -304.96253 
L 613.224 -308.244379 
L 613.224 -311.526228 
L 613.224 -314.808077 
L 613.224 -318.089927 
L 613.224 -321.371776 
L 613.224 -324.653625 
L 613.224 -327.935474 
L 613.224 -331.217323 
L 613.224 -334.499172 
L 613.224 -337.781021 
L 613.224 -341.062871 
L 613.224 -344.34472 
L 613.224 -347.626569 
L 613.223999 -350.908418 
L 613.223965 -354.190267 
L 613.223422 -357.472116 
L 613.218603 -360.753965 
L 613.195724 -364.035815 
L 613.140847 -367.317664 
L 613.086734 -370.599513 
L 613.096805 -373.881362 
L 613.157839 -377.163211 
L 613.204682 -380.44506 
L 613.243318 -380.44506 
L 613.243318 -380.44506 
L 613.290161 -377.163211 
L 613.351195 -373.881362 
L 613.361266 -370.599513 
L 613.307153 -367.317664 
L 613.252276 -364.035815 
L 613.229397 -360.753965 
L 613.224578 -357.472116 
L 613.224035 -354.190267 
L 613.224001 -350.908418 
L 613.224 -347.626569 
L 613.224 -344.34472 
L 613.224 -341.062871 
L 613.224 -337.781021 
L 613.224 -334.499172 
L 613.224 -331.217323 
L 613.224 -327.935474 
L 613.224 -324.653625 
L 613.224 -321.371776 
L 613.224 -318.089927 
L 613.224 -314.808077 
L 613.224 -311.526228 
L 613.224 -308.244379 
L 613.224 -304.96253 
L 613.224 -301.680681 
L 613.224 -298.398832 
L 613.224 -295.116983 
L 613.224 -291.835133 
L 613.224 -288.553284 
L 613.224 -285.271435 
L 613.224 -281.989586 
L 613.224 -278.707737 
L 613.224 -275.425888 
L 613.224 -272.144039 
L 613.224 -268.862189 
L 613.224 -265.58034 
L 613.224 -262.298491 
L 613.224 -259.016642 
L 613.224 -255.734793 
L 613.224 -252.452944 
L 613.224 -249.171095 
L 613.224 -245.889245 
L 613.224 -242.607396 
L 613.224 -239.325547 
L 613.224 -236.043698 
L 613.224 -232.761849 
L 613.224 -229.48 
L 613.224 -226.198151 
L 613.224 -222.916301 
L 613.224 -219.634452 
L 613.224 -216.352603 
L 613.224 -213.070754 
L 613.224 -209.788905 
L 613.224 -206.507056 
L 613.224 -203.225207 
L 613.224 -199.943358 
L 613.224 -196.661508 
L 613.224 -193.379659 
L 613.224 -190.09781 
L 613.224 -186.815961 
L 613.224 -183.534112 
L 613.224 -180.252263 
L 613.224 -176.970414 
L 613.224 -173.688564 
L 613.224 -170.406715 
L 613.224 -167.124866 
L 613.224 -163.843017 
L 613.224 -160.561168 
L 613.224 -157.279319 
L 613.224 -153.99747 
L 613.224 -150.71562 
L 613.224 -147.433771 
L 613.224 -144.151922 
L 613.224 -140.870073 
L 613.224 -137.588224 
L 613.224 -134.306375 
L 613.224 -131.024526 
L 613.224 -127.742676 
L 613.224 -124.460827 
L 613.224 -121.178978 
L 613.224 -117.897129 
L 613.224 -114.61528 
L 613.224 -111.333431 
L 613.224 -108.051582 
L 613.224 -104.769732 
L 613.224 -101.487883 
L 613.224 -98.206034 
L 613.224 -94.924185 
L 613.224 -91.642336 
L 613.224032 -88.360487 
L 613.22534 -85.078638 
L 613.256115 -81.796788 
L 613.668396 -78.514939 
L 616.765525 -75.23309 
L 629.430455 -71.951241 
L 655.669777 -68.669392 
L 676.6416 -65.387543 
L 667.114249 -62.105694 
L 639.201944 -58.823844 
L 620.312469 -55.541995 
z
" style="stroke: #595959; stroke-width: 1.25"/>
    </defs>
    <g clip-path="url(#p9460ce4163)">
     <use xlink:href="#m3995c09af7" x="0" y="432" style="fill: #db96c0; stroke: #595959; stroke-width: 1.25"/>
    </g>
   </g>
   <g id="PolyCollection_5">
    <defs>
     <path id="m7ebb02b0ac" d="M 779.168907 -53.566364 
L 764.367093 -53.566364 
L 745.094789 -56.80779 
L 717.218975 -60.049216 
L 708.3504 -63.290642 
L 729.744694 -66.532068 
L 755.834058 -69.773494 
L 768.290825 -73.01492 
L 771.327571 -76.256346 
L 771.735238 -79.497772 
L 771.766548 -82.739198 
L 771.767961 -85.980625 
L 771.767999 -89.222051 
L 771.768 -92.463477 
L 771.768 -95.704903 
L 771.768 -98.946329 
L 771.768 -102.187755 
L 771.768 -105.429181 
L 771.768 -108.670607 
L 771.768 -111.912033 
L 771.768 -115.153459 
L 771.768 -118.394885 
L 771.768 -121.636311 
L 771.768 -124.877738 
L 771.768 -128.119164 
L 771.768 -131.36059 
L 771.768 -134.602016 
L 771.768 -137.843442 
L 771.768 -141.084868 
L 771.768 -144.326294 
L 771.768 -147.56772 
L 771.768 -150.809146 
L 771.768 -154.050572 
L 771.768 -157.291998 
L 771.768 -160.533425 
L 771.768 -163.774851 
L 771.768 -167.016277 
L 771.768 -170.257703 
L 771.768 -173.499129 
L 771.768 -176.740555 
L 771.768 -179.981981 
L 771.768 -183.223407 
L 771.768 -186.464833 
L 771.768 -189.706259 
L 771.768 -192.947685 
L 771.768 -196.189112 
L 771.768 -199.430538 
L 771.768 -202.671964 
L 771.768 -205.91339 
L 771.768 -209.154816 
L 771.768 -212.396242 
L 771.768 -215.637668 
L 771.768 -218.879094 
L 771.768 -222.12052 
L 771.768 -225.361946 
L 771.768 -228.603372 
L 771.768 -231.844798 
L 771.768 -235.086225 
L 771.768 -238.327651 
L 771.768 -241.569077 
L 771.768 -244.810503 
L 771.768 -248.051929 
L 771.768 -251.293355 
L 771.768 -254.534781 
L 771.768 -257.776207 
L 771.768 -261.017633 
L 771.768 -264.259059 
L 771.768 -267.500485 
L 771.768 -270.741912 
L 771.768 -273.983338 
L 771.768 -277.224764 
L 771.768 -280.46619 
L 771.768 -283.707616 
L 771.768 -286.949042 
L 771.768 -290.190468 
L 771.768 -293.431894 
L 771.768 -296.67332 
L 771.768 -299.914746 
L 771.768 -303.156172 
L 771.768 -306.397599 
L 771.768 -309.639025 
L 771.768 -312.880451 
L 771.768 -316.121877 
L 771.768 -319.363303 
L 771.768 -322.604729 
L 771.768 -325.846155 
L 771.768 -329.087581 
L 771.768 -332.329007 
L 771.768 -335.570433 
L 771.768 -338.811859 
L 771.768 -342.053286 
L 771.767999 -345.294712 
L 771.767961 -348.536138 
L 771.76737 -351.777564 
L 771.762273 -355.01899 
L 771.738616 -358.260416 
L 771.682944 -361.501842 
L 771.629106 -364.743268 
L 771.640049 -367.984694 
L 771.701506 -371.22612 
L 771.748506 -374.467546 
L 771.787494 -374.467546 
L 771.787494 -374.467546 
L 771.834494 -371.22612 
L 771.895951 -367.984694 
L 771.906894 -364.743268 
L 771.853056 -361.501842 
L 771.797384 -358.260416 
L 771.773727 -355.01899 
L 771.76863 -351.777564 
L 771.768039 -348.536138 
L 771.768001 -345.294712 
L 771.768 -342.053286 
L 771.768 -338.811859 
L 771.768 -335.570433 
L 771.768 -332.329007 
L 771.768 -329.087581 
L 771.768 -325.846155 
L 771.768 -322.604729 
L 771.768 -319.363303 
L 771.768 -316.121877 
L 771.768 -312.880451 
L 771.768 -309.639025 
L 771.768 -306.397599 
L 771.768 -303.156172 
L 771.768 -299.914746 
L 771.768 -296.67332 
L 771.768 -293.431894 
L 771.768 -290.190468 
L 771.768 -286.949042 
L 771.768 -283.707616 
L 771.768 -280.46619 
L 771.768 -277.224764 
L 771.768 -273.983338 
L 771.768 -270.741912 
L 771.768 -267.500485 
L 771.768 -264.259059 
L 771.768 -261.017633 
L 771.768 -257.776207 
L 771.768 -254.534781 
L 771.768 -251.293355 
L 771.768 -248.051929 
L 771.768 -244.810503 
L 771.768 -241.569077 
L 771.768 -238.327651 
L 771.768 -235.086225 
L 771.768 -231.844798 
L 771.768 -228.603372 
L 771.768 -225.361946 
L 771.768 -222.12052 
L 771.768 -218.879094 
L 771.768 -215.637668 
L 771.768 -212.396242 
L 771.768 -209.154816 
L 771.768 -205.91339 
L 771.768 -202.671964 
L 771.768 -199.430538 
L 771.768 -196.189112 
L 771.768 -192.947685 
L 771.768 -189.706259 
L 771.768 -186.464833 
L 771.768 -183.223407 
L 771.768 -179.981981 
L 771.768 -176.740555 
L 771.768 -173.499129 
L 771.768 -170.257703 
L 771.768 -167.016277 
L 771.768 -163.774851 
L 771.768 -160.533425 
L 771.768 -157.291998 
L 771.768 -154.050572 
L 771.768 -150.809146 
L 771.768 -147.56772 
L 771.768 -144.326294 
L 771.768 -141.084868 
L 771.768 -137.843442 
L 771.768 -134.602016 
L 771.768 -131.36059 
L 771.768 -128.119164 
L 771.768 -124.877738 
L 771.768 -121.636311 
L 771.768 -118.394885 
L 771.768 -115.153459 
L 771.768 -111.912033 
L 771.768 -108.670607 
L 771.768 -105.429181 
L 771.768 -102.187755 
L 771.768 -98.946329 
L 771.768 -95.704903 
L 771.768 -92.463477 
L 771.768001 -89.222051 
L 771.768039 -85.980625 
L 771.769452 -82.739198 
L 771.800762 -79.497772 
L 772.208429 -76.256346 
L 775.245175 -73.01492 
L 787.701942 -69.773494 
L 813.791306 -66.532068 
L 835.1856 -63.290642 
L 826.317025 -60.049216 
L 798.441211 -56.80779 
L 779.168907 -53.566364 
z
" style="stroke: #595959; stroke-width: 1.25"/>
    </defs>
    <g clip-path="url(#p9460ce4163)">
     <use xlink:href="#m7ebb02b0ac" x="0" y="432" style="fill: #a2c865; stroke: #595959; stroke-width: 1.25"/>
    </g>
   </g>
   <g id="line2d_6">
    <path d="M 137.592 368.077837 
L 137.592 368.259623 
" clip-path="url(#p9460ce4163)" style="fill: none; stroke: #000000"/>
   </g>
   <g id="line2d_7">
    <path d="M 137.592 367.918774 
L 137.592 367.699116 
" clip-path="url(#p9460ce4163)" style="fill: none; stroke: #000000"/>
   </g>
   <g id="line2d_8">
    <path d="M 131.6466 368.259623 
L 143.5374 368.259623 
" clip-path="url(#p9460ce4163)" style="fill: none; stroke: #000000; stroke-linecap: round"/>
   </g>
   <g id="line2d_9">
    <path d="M 131.6466 367.699116 
L 143.5374 367.699116 
" clip-path="url(#p9460ce4163)" style="fill: none; stroke: #000000; stroke-linecap: round"/>
   </g>
   <g id="line2d_10">
    <path d="M 296.136 369.168554 
L 296.136 369.282171 
" clip-path="url(#p9460ce4163)" style="fill: none; stroke: #000000"/>
   </g>
   <g id="line2d_11">
    <path d="M 296.136 369.017066 
L 296.136 368.812556 
" clip-path="url(#p9460ce4163)" style="fill: none; stroke: #000000"/>
   </g>
   <g id="line2d_12">
    <path d="M 290.1906 369.282171 
L 302.0814 369.282171 
" clip-path="url(#p9460ce4163)" style="fill: none; stroke: #000000; stroke-linecap: round"/>
   </g>
   <g id="line2d_13">
    <path d="M 290.1906 368.812556 
L 302.0814 368.812556 
" clip-path="url(#p9460ce4163)" style="fill: none; stroke: #000000; stroke-linecap: round"/>
   </g>
   <g id="line2d_14">
    <path d="M 454.68 362.874208 
L 454.68 363.040845 
" clip-path="url(#p9460ce4163)" style="fill: none; stroke: #000000"/>
   </g>
   <g id="line2d_15">
    <path d="M 454.68 362.139489 
L 454.68 361.048771 
" clip-path="url(#p9460ce4163)" style="fill: none; stroke: #000000"/>
   </g>
   <g id="line2d_16">
    <path d="M 448.7346 363.040845 
L 460.6254 363.040845 
" clip-path="url(#p9460ce4163)" style="fill: none; stroke: #000000; stroke-linecap: round"/>
   </g>
   <g id="line2d_17">
    <path d="M 448.7346 361.048771 
L 460.6254 361.048771 
" clip-path="url(#p9460ce4163)" style="fill: none; stroke: #000000; stroke-linecap: round"/>
   </g>
   <g id="line2d_18">
    <path d="M 613.224 367.653669 
L 613.224 367.820307 
" clip-path="url(#p9460ce4163)" style="fill: none; stroke: #000000"/>
   </g>
   <g id="line2d_19">
    <path d="M 613.224 367.318501 
L 613.224 366.828057 
" clip-path="url(#p9460ce4163)" style="fill: none; stroke: #000000"/>
   </g>
   <g id="line2d_20">
    <path d="M 607.2786 367.820307 
L 619.1694 367.820307 
" clip-path="url(#p9460ce4163)" style="fill: none; stroke: #000000; stroke-linecap: round"/>
   </g>
   <g id="line2d_21">
    <path d="M 607.2786 366.828057 
L 619.1694 366.828057 
" clip-path="url(#p9460ce4163)" style="fill: none; stroke: #000000; stroke-linecap: round"/>
   </g>
   <g id="line2d_22">
    <path d="M 771.768 369.729062 
L 771.768 369.865401 
" clip-path="url(#p9460ce4163)" style="fill: none; stroke: #000000"/>
   </g>
   <g id="line2d_23">
    <path d="M 771.768 369.577573 
L 771.768 369.410936 
" clip-path="url(#p9460ce4163)" style="fill: none; stroke: #000000"/>
   </g>
   <g id="line2d_24">
    <path d="M 765.8226 369.865401 
L 777.7134 369.865401 
" clip-path="url(#p9460ce4163)" style="fill: none; stroke: #000000; stroke-linecap: round"/>
   </g>
   <g id="line2d_25">
    <path d="M 765.8226 369.410936 
L 777.7134 369.410936 
" clip-path="url(#p9460ce4163)" style="fill: none; stroke: #000000; stroke-linecap: round"/>
   </g>
   <g id="line2d_26">
    <path d="M 125.7012 368.024816 
L 149.4828 368.024816 
" clip-path="url(#p9460ce4163)" style="fill: none; stroke: #ff0000; stroke-width: 2"/>
   </g>
   <g id="line2d_27">
    <path d="M 284.2452 369.107959 
L 308.0268 369.107959 
" clip-path="url(#p9460ce4163)" style="fill: none; stroke: #ff0000; stroke-width: 2"/>
   </g>
   <g id="line2d_28">
    <path d="M 442.7892 362.77574 
L 466.5708 362.77574 
" clip-path="url(#p9460ce4163)" style="fill: none; stroke: #ff0000; stroke-width: 2"/>
   </g>
   <g id="line2d_29">
    <path d="M 601.3332 367.5855 
L 625.1148 367.5855 
" clip-path="url(#p9460ce4163)" style="fill: none; stroke: #ff0000; stroke-width: 2"/>
   </g>
   <g id="line2d_30">
    <path d="M 759.8772 369.668466 
L 783.6588 369.668466 
" clip-path="url(#p9460ce4163)" style="fill: none; stroke: #ff0000; stroke-width: 2"/>
   </g>
   <g id="patch_3">
    <path d="M 58.32 395.14 
L 58.32 27.6 
" style="fill: none; stroke: #cccccc; stroke-width: 1.25; stroke-linejoin: miter; stroke-linecap: square"/>
   </g>
   <g id="patch_4">
    <path d="M 851.04 395.14 
L 851.04 27.6 
" style="fill: none; stroke: #cccccc; stroke-width: 1.25; stroke-linejoin: miter; stroke-linecap: square"/>
   </g>
   <g id="patch_5">
    <path d="M 58.32 395.14 
L 851.04 395.14 
" style="fill: none; stroke: #cccccc; stroke-width: 1.25; stroke-linejoin: miter; stroke-linecap: square"/>
   </g>
   <g id="patch_6">
    <path d="M 58.32 27.6 
L 851.04 27.6 
" style="fill: none; stroke: #cccccc; stroke-width: 1.25; stroke-linejoin: miter; stroke-linecap: square"/>
   </g>
   <g id="text_12">
    <!-- Handshake duration on QUIC with secp384r1 signature algorithm — Degraded (200ms/10%) -->
    <g style="fill: #262626" transform="translate(176.819062 21.6) scale(0.12 -0.12)">
     <defs>
      <path id="DejaVuSans-51" d="M 2522 4238 
Q 1834 4238 1429 3725 
Q 1025 3213 1025 2328 
Q 1025 1447 1429 934 
Q 1834 422 2522 422 
Q 3209 422 3611 934 
Q 4013 1447 4013 2328 
Q 4013 3213 3611 3725 
Q 3209 4238 2522 4238 
z
M 3406 84 
L 4238 -825 
L 3475 -825 
L 2784 -78 
Q 2681 -84 2626 -87 
Q 2572 -91 2522 -91 
Q 1538 -91 948 567 
Q 359 1225 359 2328 
Q 359 3434 948 4092 
Q 1538 4750 2522 4750 
Q 3503 4750 4090 4092 
Q 4678 3434 4678 2328 
Q 4678 1516 4351 937 
Q 4025 359 3406 84 
z
" transform="scale(0.015625)"/>
      <path id="DejaVuSans-55" d="M 556 4666 
L 1191 4666 
L 1191 1831 
Q 1191 1081 1462 751 
Q 1734 422 2344 422 
Q 2950 422 3222 751 
Q 3494 1081 3494 1831 
L 3494 4666 
L 4128 4666 
L 4128 1753 
Q 4128 841 3676 375 
Q 3225 -91 2344 -91 
Q 1459 -91 1007 375 
Q 556 841 556 1753 
L 556 4666 
z
" transform="scale(0.015625)"/>
      <path id="DejaVuSans-49" d="M 628 4666 
L 1259 4666 
L 1259 0 
L 628 0 
L 628 4666 
z
" transform="scale(0.015625)"/>
      <path id="DejaVuSans-43" d="M 4122 4306 
L 4122 3641 
Q 3803 3938 3442 4084 
Q 3081 4231 2675 4231 
Q 1875 4231 1450 3742 
Q 1025 3253 1025 2328 
Q 1025 1406 1450 917 
Q 1875 428 2675 428 
Q 3081 428 3442 575 
Q 3803 722 4122 1019 
L 4122 359 
Q 3791 134 3420 21 
Q 3050 -91 2638 -91 
Q 1578 -91 968 557 
Q 359 1206 359 2328 
Q 359 3453 968 4101 
Q 1578 4750 2638 4750 
Q 3056 4750 3426 4639 
Q 3797 4528 4122 4306 
z
" transform="scale(0.015625)"/>
      <path id="DejaVuSans-77" d="M 269 3500 
L 844 3500 
L 1563 769 
L 2278 3500 
L 2956 3500 
L 3675 769 
L 4391 3500 
L 4966 3500 
L 4050 0 
L 3372 0 
L 2619 2869 
L 1863 0 
L 1184 0 
L 269 3500 
z
" transform="scale(0.015625)"/>
      <path id="DejaVuSans-63" d="M 3122 3366 
L 3122 2828 
Q 2878 2963 2633 3030 
Q 2388 3097 2138 3097 
Q 1578 3097 1268 2742 
Q 959 2388 959 1747 
Q 959 1106 1268 751 
Q 1578 397 2138 397 
Q 2388 397 2633 464 
Q 2878 531 3122 666 
L 3122 134 
Q 2881 22 2623 -34 
Q 2366 -91 2075 -91 
Q 1284 -91 818 406 
Q 353 903 353 1747 
Q 353 2603 823 3093 
Q 1294 3584 2113 3584 
Q 2378 3584 2631 3529 
Q 2884 3475 3122 3366 
z
" transform="scale(0.015625)"/>
      <path id="DejaVuSans-31" d="M 794 531 
L 1825 531 
L 1825 4091 
L 703 3866 
L 703 4441 
L 1819 4666 
L 2450 4666 
L 2450 531 
L 3481 531 
L 3481 0 
L 794 0 
L 794 531 
z
" transform="scale(0.015625)"/>
      <path id="DejaVuSans-67" d="M 2906 1791 
Q 2906 2416 2648 2759 
Q 2391 3103 1925 3103 
Q 1463 3103 1205 2759 
Q 947 2416 947 1791 
Q 947 1169 1205 825 
Q 1463 481 1925 481 
Q 2391 481 2648 825 
Q 2906 1169 2906 1791 
z
M 3481 434 
Q 3481 -459 3084 -895 
Q 2688 -1331 1869 -1331 
Q 1566 -1331 1297 -1286 
Q 1028 -1241 775 -1147 
L 775 -588 
Q 1028 -725 1275 -790 
Q 1522 -856 1778 -856 
Q 2344 -856 2625 -561 
Q 2906 -266 2906 331 
L 2906 616 
Q 2728 306 2450 153 
Q 2172 0 1784 0 
Q 1141 0 747 490 
Q 353 981 353 1791 
Q 353 2603 747 3093 
Q 1141 3584 1784 3584 
Q 2172 3584 2450 3431 
Q 2728 3278 2906 2969 
L 2906 3500 
L 3481 3500 
L 3481 434 
z
" transform="scale(0.015625)"/>
      <path id="DejaVuSans-2014" d="M 313 1978 
L 6088 1978 
L 6088 1528 
L 313 1528 
L 313 1978 
z
" transform="scale(0.015625)"/>
      <path id="DejaVuSans-44" d="M 1259 4147 
L 1259 519 
L 2022 519 
Q 2988 519 3436 956 
Q 3884 1394 3884 2338 
Q 3884 3275 3436 3711 
Q 2988 4147 2022 4147 
L 1259 4147 
z
M 628 4666 
L 1925 4666 
Q 3281 4666 3915 4102 
Q 4550 3538 4550 2338 
Q 4550 1131 3912 565 
Q 3275 0 1925 0 
L 628 0 
L 628 4666 
z
" transform="scale(0.015625)"/>
      <path id="DejaVuSans-32" d="M 1228 531 
L 3431 531 
L 3431 0 
L 469 0 
L 469 531 
Q 828 903 1448 1529 
Q 2069 2156 2228 2338 
Q 2531 2678 2651 2914 
Q 2772 3150 2772 3378 
Q 2772 3750 2511 3984 
Q 2250 4219 1831 4219 
Q 1534 4219 1204 4116 
Q 875 4013 500 3803 
L 500 4441 
Q 881 4594 1212 4672 
Q 1544 4750 1819 4750 
Q 2544 4750 2975 4387 
Q 3406 4025 3406 3419 
Q 3406 3131 3298 2873 
Q 3191 2616 2906 2266 
Q 2828 2175 2409 1742 
Q 1991 1309 1228 531 
z
" transform="scale(0.015625)"/>
      <path id="DejaVuSans-2f" d="M 1625 4666 
L 2156 4666 
L 531 -594 
L 0 -594 
L 1625 4666 
z
" transform="scale(0.015625)"/>
      <path id="DejaVuSans-25" d="M 4653 2053 
Q 4381 2053 4226 1822 
Q 4072 1591 4072 1178 
Q 4072 772 4226 539 
Q 4381 306 4653 306 
Q 4919 306 5073 539 
Q 5228 772 5228 1178 
Q 5228 1588 5073 1820 
Q 4919 2053 4653 2053 
z
M 4653 2450 
Q 5147 2450 5437 2106 
Q 5728 1763 5728 1178 
Q 5728 594 5436 251 
Q 5144 -91 4653 -91 
Q 4153 -91 3862 251 
Q 3572 594 3572 1178 
Q 3572 1766 3864 2108 
Q 4156 2450 4653 2450 
z
M 1428 4353 
Q 1159 4353 1004 4120 
Q 850 3888 850 3481 
Q 850 3069 1003 2837 
Q 1156 2606 1428 2606 
Q 1700 2606 1854 2837 
Q 2009 3069 2009 3481 
Q 2009 3884 1853 4118 
Q 1697 4353 1428 4353 
z
M 4250 4750 
L 4750 4750 
L 1831 -91 
L 1331 -91 
L 4250 4750 
z
M 1428 4750 
Q 1922 4750 2215 4408 
Q 2509 4066 2509 3481 
Q 2509 2891 2217 2550 
Q 1925 2209 1428 2209 
Q 931 2209 642 2551 
Q 353 2894 353 3481 
Q 353 4063 643 4406 
Q 934 4750 1428 4750 
z
" transform="scale(0.015625)"/>
     </defs>
     <use xlink:href="#DejaVuSans-48"/>
     <use xlink:href="#DejaVuSans-61" x="75.195312"/>
     <use xlink:href="#DejaVuSans-6e" x="136.474609"/>
     <use xlink:href="#DejaVuSans-64" x="199.853516"/>
     <use xlink:href="#DejaVuSans-73" x="263.330078"/>
     <use xlink:href="#DejaVuSans-68" x="315.429688"/>
     <use xlink:href="#DejaVuSans-61" x="378.808594"/>
     <use xlink:href="#DejaVuSans-6b" x="440.087891"/>
     <use xlink:href="#DejaVuSans-65" x="494.373047"/>
     <use xlink:href="#DejaVuSans-20" x="555.896484"/>
     <use xlink:href="#DejaVuSans-64" x="587.683594"/>
     <use xlink:href="#DejaVuSans-75" x="651.160156"/>
     <use xlink:href="#DejaVuSans-72" x="714.539062"/>
     <use xlink:href="#DejaVuSans-61" x="755.652344"/>
     <use xlink:href="#DejaVuSans-74" x="816.931641"/>
     <use xlink:href="#DejaVuSans-69" x="856.140625"/>
     <use xlink:href="#DejaVuSans-6f" x="883.923828"/>
     <use xlink:href="#DejaVuSans-6e" x="945.105469"/>
     <use xlink:href="#DejaVuSans-20" x="1008.484375"/>
     <use xlink:href="#DejaVuSans-6f" x="1040.271484"/>
     <use xlink:href="#DejaVuSans-6e" x="1101.453125"/>
     <use xlink:href="#DejaVuSans-20" x="1164.832031"/>
     <use xlink:href="#DejaVuSans-51" x="1196.619141"/>
     <use xlink:href="#DejaVuSans-55" x="1275.330078"/>
     <use xlink:href="#DejaVuSans-49" x="1348.523438"/>
     <use xlink:href="#DejaVuSans-43" x="1378.015625"/>
     <use xlink:href="#DejaVuSans-20" x="1447.839844"/>
     <use xlink:href="#DejaVuSans-77" x="1479.626953"/>
     <use xlink:href="#DejaVuSans-69" x="1561.414062"/>
     <use xlink:href="#DejaVuSans-74" x="1589.197266"/>
     <use xlink:href="#DejaVuSans-68" x="1628.40625"/>
     <use xlink:href="#DejaVuSans-20" x="1691.785156"/>
     <use xlink:href="#DejaVuSans-73" x="1723.572266"/>
     <use xlink:href="#DejaVuSans-65" x="1775.671875"/>
     <use xlink:href="#DejaVuSans-63" x="1837.195312"/>
     <use xlink:href="#DejaVuSans-70" x="1892.175781"/>
     <use xlink:href="#DejaVuSans-33" x="1955.652344"/>
     <use xlink:href="#DejaVuSans-38" x="2019.275391"/>
     <use xlink:href="#DejaVuSans-34" x="2082.898438"/>
     <use xlink:href="#DejaVuSans-72" x="2146.521484"/>
     <use xlink:href="#DejaVuSans-31" x="2187.634766"/>
     <use xlink:href="#DejaVuSans-20" x="2251.257812"/>
     <use xlink:href="#DejaVuSans-73" x="2283.044922"/>
     <use xlink:href="#DejaVuSans-69" x="2335.144531"/>
     <use xlink:href="#DejaVuSans-67" x="2362.927734"/>
     <use xlink:href="#DejaVuSans-6e" x="2426.404297"/>
     <use xlink:href="#DejaVuSans-61" x="2489.783203"/>
     <use xlink:href="#DejaVuSans-74" x="2551.0625"/>
     <use xlink:href="#DejaVuSans-75" x="2590.271484"/>
     <use xlink:href="#DejaVuSans-72" x="2653.650391"/>
     <use xlink:href="#DejaVuSans-65" x="2692.513672"/>
     <use xlink:href="#DejaVuSans-20" x="2754.037109"/>
     <use xlink:href="#DejaVuSans-61" x="2785.824219"/>
     <use xlink:href="#DejaVuSans-6c" x="2847.103516"/>
     <use xlink:href="#DejaVuSans-67" x="2874.886719"/>
     <use xlink:href="#DejaVuSans-6f" x="2938.363281"/>
     <use xlink:href="#DejaVuSans-72" x="2999.544922"/>
     <use xlink:href="#DejaVuSans-69" x="3040.658203"/>
     <use xlink:href="#DejaVuSans-74" x="3068.441406"/>
     <use xlink:href="#DejaVuSans-68" x="3107.650391"/>
     <use xlink:href="#DejaVuSans-6d" x="3171.029297"/>
     <use xlink:href="#DejaVuSans-20" x="3268.441406"/>
     <use xlink:href="#DejaVuSans-2014" x="3300.228516"/>
     <use xlink:href="#DejaVuSans-20" x="3400.228516"/>
     <use xlink:href="#DejaVuSans-44" x="3432.015625"/>
     <use xlink:href="#DejaVuSans-65" x="3509.017578"/>
     <use xlink:href="#DejaVuSans-67" x="3570.541016"/>
     <use xlink:href="#DejaVuSans-72" x="3634.017578"/>
     <use xlink:href="#DejaVuSans-61" x="3675.130859"/>
     <use xlink:href="#DejaVuSans-64" x="3736.410156"/>
     <use xlink:href="#DejaVuSans-65" x="3799.886719"/>
     <use xlink:href="#DejaVuSans-64" x="3861.410156"/>
     <use xlink:href="#DejaVuSans-20" x="3924.886719"/>
     <use xlink:href="#DejaVuSans-28" x="3956.673828"/>
     <use xlink:href="#DejaVuSans-32" x="3995.6875"/>
     <use xlink:href="#DejaVuSans-30" x="4059.310547"/>
     <use xlink:href="#DejaVuSans-30" x="4122.933594"/>
     <use xlink:href="#DejaVuSans-6d" x="4186.556641"/>
     <use xlink:href="#DejaVuSans-73" x="4283.96875"/>
     <use xlink:href="#DejaVuSans-2f" x="4336.068359"/>
     <use xlink:href="#DejaVuSans-31" x="4369.759766"/>
     <use xlink:href="#DejaVuSans-30" x="4433.382812"/>
     <use xlink:href="#DejaVuSans-25" x="4497.005859"/>
     <use xlink:href="#DejaVuSans-29" x="4592.025391"/>
    </g>
   </g>
  </g>
 </g>
 <defs>
  <clipPath id="p9460ce4163">
   <rect x="58.32" y="27.6" width="792.72" height="367.54"/>
  </clipPath>
 </defs>
</svg>
