<?xml version="1.0" encoding="utf-8" standalone="no"?>
<!DOCTYPE svg PUBLIC "-//W3C//DTD SVG 1.1//EN"
  "http://www.w3.org/Graphics/SVG/1.1/DTD/svg11.dtd">
<svg xmlns:xlink="http://www.w3.org/1999/xlink" width="864pt" height="432pt" viewBox="0 0 864 432" xmlns="http://www.w3.org/2000/svg" version="1.1">
 <metadata>
  <rdf:RDF xmlns:dc="http://purl.org/dc/elements/1.1/" xmlns:cc="http://creativecommons.org/ns#" xmlns:rdf="http://www.w3.org/1999/02/22-rdf-syntax-ns#">
   <cc:Work>
    <dc:type rdf:resource="http://purl.org/dc/dcmitype/StillImage"/>
    <dc:date>2026-03-21T14:06:26.026167</dc:date>
    <dc:format>image/svg+xml</dc:format>
    <dc:creator>
     <cc:Agent>
      <dc:title>Matplotlib v3.6.3, https://matplotlib.org/</dc:title>
     </cc:Agent>
    </dc:creator>
   </cc:Work>
  </rdf:RDF>
 </metadata>
 <defs>
  <style type="text/css">*{stroke-linejoin: round; stroke-linecap: butt}</style>
 </defs>
 <g id="figure_1">
  <g id="patch_1">
   <path d="M 0 432 
L 864 432 
L 864 0 
L 0 0 
z
" style="fill: #ffffff"/>
  </g>
  <g id="axes_1">
   <g id="patch_2">
    <path d="M 58.32 373.416875 
L 851.04 373.416875 
L 851.04 27.6 
L 58.32 27.6 
z
" style="fill: #ffffff"/>
   </g>
   <g id="matplotlib.axis_1">
    <g id="xtick_1">
     <g id="text_1">
      <!-- P-256 -->
      <g style="fill: #262626" transform="translate(103.911421 400.575919) rotate(-15) scale(0.12 -0.12)">
       <defs>
        <path id="DejaVuSans-50" d="M 1259 4147 
L 1259 2394 
L 2053 2394 
Q 2494 2394 2734 2622 
Q 2975 2850 2975 3272 
Q 2975 3691 2734 3919 
Q 2494 4147 2053 4147 
L 1259 4147 
z
M 628 4666 
L 2053 4666 
Q 2838 4666 3239 4311 
Q 3641 3956 3641 3272 
Q 3641 2581 3239 2228 
Q 2838 1875 2053 1875 
L 1259 1875 
L 1259 0 
L 628 0 
L 628 4666 
z
" transform="scale(0.015625)"/>
        <path id="DejaVuSans-2d" d="M 313 2009 
L 1997 2009 
L 1997 1497 
L 313 1497 
L 313 2009 
z
" transform="scale(0.015625)"/>
        <path id="DejaVuSans-32" d="M 1228 531 
L 3431 531 
L 3431 0 
L 469 0 
L 469 531 
Q 828 903 1448 1529 
Q 2069 2156 2228 2338 
Q 2531 2678 2651 2914 
Q 2772 3150 2772 3378 
Q 2772 3750 2511 3984 
Q 2250 4219 1831 4219 
Q 1534 4219 1204 4116 
Q 875 4013 500 3803 
L 500 4441 
Q 881 4594 1212 4672 
Q 1544 4750 1819 4750 
Q 2544 4750 2975 4387 
Q 3406 4025 3406 3419 
Q 3406 3131 3298 2873 
Q 3191 2616 2906 2266 
Q 2828 2175 2409 1742 
Q 1991 1309 1228 531 
z
" transform="scale(0.015625)"/>
        <path id="DejaVuSans-35" d="M 691 4666 
L 3169 4666 
L 3169 4134 
L 1269 4134 
L 1269 2991 
Q 1406 3038 1543 3061 
Q 1681 3084 1819 3084 
Q 2600 3084 3056 2656 
Q 3513 2228 3513 1497 
Q 3513 744 3044 326 
Q 2575 -91 1722 -91 
Q 1428 -91 1123 -41 
Q 819 9 494 109 
L 494 744 
Q 775 591 1075 516 
Q 1375 441 1709 441 
Q 2250 441 2565 725 
Q 2881 1009 2881 1497 
Q 2881 1984 2565 2268 
Q 2250 2553 1709 2553 
Q 1456 2553 1204 2497 
Q 953 2441 691 2322 
L 691 4666 
z
" transform="scale(0.015625)"/>
        <path id="DejaVuSans-36" d="M 2113 2584 
Q 1688 2584 1439 2293 
Q 1191 2003 1191 1497 
Q 1191 994 1439 701 
Q 1688 409 2113 409 
Q 2538 409 2786 701 
Q 3034 994 3034 1497 
Q 3034 2003 2786 2293 
Q 2538 2584 2113 2584 
z
M 3366 4563 
L 3366 3988 
Q 3128 4100 2886 4159 
Q 2644 4219 2406 4219 
Q 1781 4219 1451 3797 
Q 1122 3375 1075 2522 
Q 1259 2794 1537 2939 
Q 1816 3084 2150 3084 
Q 2853 3084 3261 2657 
Q 3669 2231 3669 1497 
Q 3669 778 3244 343 
Q 2819 -91 2113 -91 
Q 1303 -91 875 529 
Q 447 1150 447 2328 
Q 447 3434 972 4092 
Q 1497 4750 2381 4750 
Q 2619 4750 2861 4703 
Q 3103 4656 3366 4563 
z
" transform="scale(0.015625)"/>
       </defs>
       <use xlink:href="#DejaVuSans-50"/>
       <use xlink:href="#DejaVuSans-2d" x="58.052734"/>
       <use xlink:href="#DejaVuSans-32" x="94.136719"/>
       <use xlink:href="#DejaVuSans-35" x="157.759766"/>
       <use xlink:href="#DejaVuSans-36" x="221.382812"/>
      </g>
     </g>
    </g>
    <g id="xtick_2">
     <g id="text_2">
      <!-- x25519 -->
      <g style="fill: #262626" transform="translate(251.755378 403.442987) rotate(-15) scale(0.12 -0.12)">
       <defs>
        <path id="DejaVuSans-78" d="M 3513 3500 
L 2247 1797 
L 3578 0 
L 2900 0 
L 1881 1375 
L 863 0 
L 184 0 
L 1544 1831 
L 300 3500 
L 978 3500 
L 1906 2253 
L 2834 3500 
L 3513 3500 
z
" transform="scale(0.015625)"/>
        <path id="DejaVuSans-31" d="M 794 531 
L 1825 531 
L 1825 4091 
L 703 3866 
L 703 4441 
L 1819 4666 
L 2450 4666 
L 2450 531 
L 3481 531 
L 3481 0 
L 794 0 
L 794 531 
z
" transform="scale(0.015625)"/>
        <path id="DejaVuSans-39" d="M 703 97 
L 703 672 
Q 941 559 1184 500 
Q 1428 441 1663 441 
Q 2288 441 2617 861 
Q 2947 1281 2994 2138 
Q 2813 1869 2534 1725 
Q 2256 1581 1919 1581 
Q 1219 1581 811 2004 
Q 403 2428 403 3163 
Q 403 3881 828 4315 
Q 1253 4750 1959 4750 
Q 2769 4750 3195 4129 
Q 3622 3509 3622 2328 
Q 3622 1225 3098 567 
Q 2575 -91 1691 -91 
Q 1453 -91 1209 -44 
Q 966 3 703 97 
z
M 1959 2075 
Q 2384 2075 2632 2365 
Q 2881 2656 2881 3163 
Q 2881 3666 2632 3958 
Q 2384 4250 1959 4250 
Q 1534 4250 1286 3958 
Q 1038 3666 1038 3163 
Q 1038 2656 1286 2365 
Q 1534 2075 1959 2075 
z
" transform="scale(0.015625)"/>
       </defs>
       <use xlink:href="#DejaVuSans-78"/>
       <use xlink:href="#DejaVuSans-32" x="59.179688"/>
       <use xlink:href="#DejaVuSans-35" x="122.802734"/>
       <use xlink:href="#DejaVuSans-35" x="186.425781"/>
       <use xlink:href="#DejaVuSans-31" x="250.048828"/>
       <use xlink:href="#DejaVuSans-39" x="313.671875"/>
      </g>
     </g>
    </g>
    <g id="xtick_3">
     <g id="text_3">
      <!-- hqc128 -->
      <g style="fill: #262626" transform="translate(410.831845 403.300313) rotate(-15) scale(0.12 -0.12)">
       <defs>
        <path id="DejaVuSans-68" d="M 3513 2113 
L 3513 0 
L 2938 0 
L 2938 2094 
Q 2938 2591 2744 2837 
Q 2550 3084 2163 3084 
Q 1697 3084 1428 2787 
Q 1159 2491 1159 1978 
L 1159 0 
L 581 0 
L 581 4863 
L 1159 4863 
L 1159 2956 
Q 1366 3272 1645 3428 
Q 1925 3584 2291 3584 
Q 2894 3584 3203 3211 
Q 3513 2838 3513 2113 
z
" transform="scale(0.015625)"/>
        <path id="DejaVuSans-71" d="M 947 1747 
Q 947 1113 1208 752 
Q 1469 391 1925 391 
Q 2381 391 2643 752 
Q 2906 1113 2906 1747 
Q 2906 2381 2643 2742 
Q 2381 3103 1925 3103 
Q 1469 3103 1208 2742 
Q 947 2381 947 1747 
z
M 2906 525 
Q 2725 213 2448 61 
Q 2172 -91 1784 -91 
Q 1150 -91 751 415 
Q 353 922 353 1747 
Q 353 2572 751 3078 
Q 1150 3584 1784 3584 
Q 2172 3584 2448 3432 
Q 2725 3281 2906 2969 
L 2906 3500 
L 3481 3500 
L 3481 -1331 
L 2906 -1331 
L 2906 525 
z
" transform="scale(0.015625)"/>
        <path id="DejaVuSans-63" d="M 3122 3366 
L 3122 2828 
Q 2878 2963 2633 3030 
Q 2388 3097 2138 3097 
Q 1578 3097 1268 2742 
Q 959 2388 959 1747 
Q 959 1106 1268 751 
Q 1578 397 2138 397 
Q 2388 397 2633 464 
Q 2878 531 3122 666 
L 3122 134 
Q 2881 22 2623 -34 
Q 2366 -91 2075 -91 
Q 1284 -91 818 406 
Q 353 903 353 1747 
Q 353 2603 823 3093 
Q 1294 3584 2113 3584 
Q 2378 3584 2631 3529 
Q 2884 3475 3122 3366 
z
" transform="scale(0.015625)"/>
        <path id="DejaVuSans-38" d="M 2034 2216 
Q 1584 2216 1326 1975 
Q 1069 1734 1069 1313 
Q 1069 891 1326 650 
Q 1584 409 2034 409 
Q 2484 409 2743 651 
Q 3003 894 3003 1313 
Q 3003 1734 2745 1975 
Q 2488 2216 2034 2216 
z
M 1403 2484 
Q 997 2584 770 2862 
Q 544 3141 544 3541 
Q 544 4100 942 4425 
Q 1341 4750 2034 4750 
Q 2731 4750 3128 4425 
Q 3525 4100 3525 3541 
Q 3525 3141 3298 2862 
Q 3072 2584 2669 2484 
Q 3125 2378 3379 2068 
Q 3634 1759 3634 1313 
Q 3634 634 3220 271 
Q 2806 -91 2034 -91 
Q 1263 -91 848 271 
Q 434 634 434 1313 
Q 434 1759 690 2068 
Q 947 2378 1403 2484 
z
M 1172 3481 
Q 1172 3119 1398 2916 
Q 1625 2713 2034 2713 
Q 2441 2713 2670 2916 
Q 2900 3119 2900 3481 
Q 2900 3844 2670 4047 
Q 2441 4250 2034 4250 
Q 1625 4250 1398 4047 
Q 1172 3844 1172 3481 
z
" transform="scale(0.015625)"/>
       </defs>
       <use xlink:href="#DejaVuSans-68"/>
       <use xlink:href="#DejaVuSans-71" x="63.378906"/>
       <use xlink:href="#DejaVuSans-63" x="126.855469"/>
       <use xlink:href="#DejaVuSans-31" x="181.835938"/>
       <use xlink:href="#DejaVuSans-32" x="245.458984"/>
       <use xlink:href="#DejaVuSans-38" x="309.082031"/>
      </g>
     </g>
    </g>
    <g id="xtick_4">
     <g id="text_4">
      <!-- p256_hqc128 -->
      <g style="fill: #262626" transform="translate(534.010834 412.753193) rotate(-15) scale(0.12 -0.12)">
       <defs>
        <path id="DejaVuSans-70" d="M 1159 525 
L 1159 -1331 
L 581 -1331 
L 581 3500 
L 1159 3500 
L 1159 2969 
Q 1341 3281 1617 3432 
Q 1894 3584 2278 3584 
Q 2916 3584 3314 3078 
Q 3713 2572 3713 1747 
Q 3713 922 3314 415 
Q 2916 -91 2278 -91 
Q 1894 -91 1617 61 
Q 1341 213 1159 525 
z
M 3116 1747 
Q 3116 2381 2855 2742 
Q 2594 3103 2138 3103 
Q 1681 3103 1420 2742 
Q 1159 2381 1159 1747 
Q 1159 1113 1420 752 
Q 1681 391 2138 391 
Q 2594 391 2855 752 
Q 3116 1113 3116 1747 
z
" transform="scale(0.015625)"/>
        <path id="DejaVuSans-5f" d="M 3263 -1063 
L 3263 -1509 
L -63 -1509 
L -63 -1063 
L 3263 -1063 
z
" transform="scale(0.015625)"/>
       </defs>
       <use xlink:href="#DejaVuSans-70"/>
       <use xlink:href="#DejaVuSans-32" x="63.476562"/>
       <use xlink:href="#DejaVuSans-35" x="127.099609"/>
       <use xlink:href="#DejaVuSans-36" x="190.722656"/>
       <use xlink:href="#DejaVuSans-5f" x="254.345703"/>
       <use xlink:href="#DejaVuSans-68" x="304.345703"/>
       <use xlink:href="#DejaVuSans-71" x="367.724609"/>
       <use xlink:href="#DejaVuSans-63" x="431.201172"/>
       <use xlink:href="#DejaVuSans-31" x="486.181641"/>
       <use xlink:href="#DejaVuSans-32" x="549.804688"/>
       <use xlink:href="#DejaVuSans-38" x="613.427734"/>
      </g>
     </g>
    </g>
    <g id="xtick_5">
     <g id="text_5">
      <!-- x25519_hqc128 -->
      <g style="fill: #262626" transform="translate(678.303202 416.571906) rotate(-15) scale(0.12 -0.12)">
       <use xlink:href="#DejaVuSans-78"/>
       <use xlink:href="#DejaVuSans-32" x="59.179688"/>
       <use xlink:href="#DejaVuSans-35" x="122.802734"/>
       <use xlink:href="#DejaVuSans-35" x="186.425781"/>
       <use xlink:href="#DejaVuSans-31" x="250.048828"/>
       <use xlink:href="#DejaVuSans-39" x="313.671875"/>
       <use xlink:href="#DejaVuSans-5f" x="377.294922"/>
       <use xlink:href="#DejaVuSans-68" x="427.294922"/>
       <use xlink:href="#DejaVuSans-71" x="490.673828"/>
       <use xlink:href="#DejaVuSans-63" x="554.150391"/>
       <use xlink:href="#DejaVuSans-31" x="609.130859"/>
       <use xlink:href="#DejaVuSans-32" x="672.753906"/>
       <use xlink:href="#DejaVuSans-38" x="736.376953"/>
      </g>
     </g>
    </g>
   </g>
   <g id="matplotlib.axis_2">
    <g id="ytick_1">
     <g id="line2d_1">
      <path d="M 58.32 331.082958 
L 851.04 331.082958 
" clip-path="url(#p868a6b3529)" style="fill: none; stroke: #cccccc; stroke-linecap: round"/>
     </g>
     <g id="text_6">
      <!-- 100 -->
      <g style="fill: #262626" transform="translate(27.82375 335.262099) scale(0.11 -0.11)">
       <defs>
        <path id="DejaVuSans-30" d="M 2034 4250 
Q 1547 4250 1301 3770 
Q 1056 3291 1056 2328 
Q 1056 1369 1301 889 
Q 1547 409 2034 409 
Q 2525 409 2770 889 
Q 3016 1369 3016 2328 
Q 3016 3291 2770 3770 
Q 2525 4250 2034 4250 
z
M 2034 4750 
Q 2819 4750 3233 4129 
Q 3647 3509 3647 2328 
Q 3647 1150 3233 529 
Q 2819 -91 2034 -91 
Q 1250 -91 836 529 
Q 422 1150 422 2328 
Q 422 3509 836 4129 
Q 1250 4750 2034 4750 
z
" transform="scale(0.015625)"/>
       </defs>
       <use xlink:href="#DejaVuSans-31"/>
       <use xlink:href="#DejaVuSans-30" x="63.623047"/>
       <use xlink:href="#DejaVuSans-30" x="127.246094"/>
      </g>
     </g>
    </g>
    <g id="ytick_2">
     <g id="line2d_2">
      <path d="M 58.32 288.500607 
L 851.04 288.500607 
" clip-path="url(#p868a6b3529)" style="fill: none; stroke: #cccccc; stroke-linecap: round"/>
     </g>
     <g id="text_7">
      <!-- 200 -->
      <g style="fill: #262626" transform="translate(27.82375 292.679748) scale(0.11 -0.11)">
       <use xlink:href="#DejaVuSans-32"/>
       <use xlink:href="#DejaVuSans-30" x="63.623047"/>
       <use xlink:href="#DejaVuSans-30" x="127.246094"/>
      </g>
     </g>
    </g>
    <g id="ytick_3">
     <g id="line2d_3">
      <path d="M 58.32 245.918256 
L 851.04 245.918256 
" clip-path="url(#p868a6b3529)" style="fill: none; stroke: #cccccc; stroke-linecap: round"/>
     </g>
     <g id="text_8">
      <!-- 300 -->
      <g style="fill: #262626" transform="translate(27.82375 250.097397) scale(0.11 -0.11)">
       <defs>
        <path id="DejaVuSans-33" d="M 2597 2516 
Q 3050 2419 3304 2112 
Q 3559 1806 3559 1356 
Q 3559 666 3084 287 
Q 2609 -91 1734 -91 
Q 1441 -91 1130 -33 
Q 819 25 488 141 
L 488 750 
Q 750 597 1062 519 
Q 1375 441 1716 441 
Q 2309 441 2620 675 
Q 2931 909 2931 1356 
Q 2931 1769 2642 2001 
Q 2353 2234 1838 2234 
L 1294 2234 
L 1294 2753 
L 1863 2753 
Q 2328 2753 2575 2939 
Q 2822 3125 2822 3475 
Q 2822 3834 2567 4026 
Q 2313 4219 1838 4219 
Q 1578 4219 1281 4162 
Q 984 4106 628 3988 
L 628 4550 
Q 988 4650 1302 4700 
Q 1616 4750 1894 4750 
Q 2613 4750 3031 4423 
Q 3450 4097 3450 3541 
Q 3450 3153 3228 2886 
Q 3006 2619 2597 2516 
z
" transform="scale(0.015625)"/>
       </defs>
       <use xlink:href="#DejaVuSans-33"/>
       <use xlink:href="#DejaVuSans-30" x="63.623047"/>
       <use xlink:href="#DejaVuSans-30" x="127.246094"/>
      </g>
     </g>
    </g>
    <g id="ytick_4">
     <g id="line2d_4">
      <path d="M 58.32 203.335906 
L 851.04 203.335906 
" clip-path="url(#p868a6b3529)" style="fill: none; stroke: #cccccc; stroke-linecap: round"/>
     </g>
     <g id="text_9">
      <!-- 400 -->
      <g style="fill: #262626" transform="translate(27.82375 207.515046) scale(0.11 -0.11)">
       <defs>
        <path id="DejaVuSans-34" d="M 2419 4116 
L 825 1625 
L 2419 1625 
L 2419 4116 
z
M 2253 4666 
L 3047 4666 
L 3047 1625 
L 3713 1625 
L 3713 1100 
L 3047 1100 
L 3047 0 
L 2419 0 
L 2419 1100 
L 313 1100 
L 313 1709 
L 2253 4666 
z
" transform="scale(0.015625)"/>
       </defs>
       <use xlink:href="#DejaVuSans-34"/>
       <use xlink:href="#DejaVuSans-30" x="63.623047"/>
       <use xlink:href="#DejaVuSans-30" x="127.246094"/>
      </g>
     </g>
    </g>
    <g id="ytick_5">
     <g id="line2d_5">
      <path d="M 58.32 160.753555 
L 851.04 160.753555 
" clip-path="url(#p868a6b3529)" style="fill: none; stroke: #cccccc; stroke-linecap: round"/>
     </g>
     <g id="text_10">
      <!-- 500 -->
      <g style="fill: #262626" transform="translate(27.82375 164.932695) scale(0.11 -0.11)">
       <use xlink:href="#DejaVuSans-35"/>
       <use xlink:href="#DejaVuSans-30" x="63.623047"/>
       <use xlink:href="#DejaVuSans-30" x="127.246094"/>
      </g>
     </g>
    </g>
    <g id="ytick_6">
     <g id="line2d_6">
      <path d="M 58.32 118.171204 
L 851.04 118.171204 
" clip-path="url(#p868a6b3529)" style="fill: none; stroke: #cccccc; stroke-linecap: round"/>
     </g>
     <g id="text_11">
      <!-- 600 -->
      <g style="fill: #262626" transform="translate(27.82375 122.350345) scale(0.11 -0.11)">
       <use xlink:href="#DejaVuSans-36"/>
       <use xlink:href="#DejaVuSans-30" x="63.623047"/>
       <use xlink:href="#DejaVuSans-30" x="127.246094"/>
      </g>
     </g>
    </g>
    <g id="ytick_7">
     <g id="line2d_7">
      <path d="M 58.32 75.588853 
L 851.04 75.588853 
" clip-path="url(#p868a6b3529)" style="fill: none; stroke: #cccccc; stroke-linecap: round"/>
     </g>
     <g id="text_12">
      <!-- 700 -->
      <g style="fill: #262626" transform="translate(27.82375 79.767994) scale(0.11 -0.11)">
       <defs>
        <path id="DejaVuSans-37" d="M 525 4666 
L 3525 4666 
L 3525 4397 
L 1831 0 
L 1172 0 
L 2766 4134 
L 525 4134 
L 525 4666 
z
" transform="scale(0.015625)"/>
       </defs>
       <use xlink:href="#DejaVuSans-37"/>
       <use xlink:href="#DejaVuSans-30" x="63.623047"/>
       <use xlink:href="#DejaVuSans-30" x="127.246094"/>
      </g>
     </g>
    </g>
    <g id="ytick_8">
     <g id="line2d_8">
      <path d="M 58.32 33.006502 
L 851.04 33.006502 
" clip-path="url(#p868a6b3529)" style="fill: none; stroke: #cccccc; stroke-linecap: round"/>
     </g>
     <g id="text_13">
      <!-- 800 -->
      <g style="fill: #262626" transform="translate(27.82375 37.185643) scale(0.11 -0.11)">
       <use xlink:href="#DejaVuSans-38"/>
       <use xlink:href="#DejaVuSans-30" x="63.623047"/>
       <use xlink:href="#DejaVuSans-30" x="127.246094"/>
      </g>
     </g>
    </g>
    <g id="text_14">
     <!-- Handshake duration (ms) -->
     <g style="fill: #262626" transform="translate(21.328125 276.57625) rotate(-90) scale(0.12 -0.12)">
      <defs>
       <path id="DejaVuSans-48" d="M 628 4666 
L 1259 4666 
L 1259 2753 
L 3553 2753 
L 3553 4666 
L 4184 4666 
L 4184 0 
L 3553 0 
L 3553 2222 
L 1259 2222 
L 1259 0 
L 628 0 
L 628 4666 
z
" transform="scale(0.015625)"/>
       <path id="DejaVuSans-61" d="M 2194 1759 
Q 1497 1759 1228 1600 
Q 959 1441 959 1056 
Q 959 750 1161 570 
Q 1363 391 1709 391 
Q 2188 391 2477 730 
Q 2766 1069 2766 1631 
L 2766 1759 
L 2194 1759 
z
M 3341 1997 
L 3341 0 
L 2766 0 
L 2766 531 
Q 2569 213 2275 61 
Q 1981 -91 1556 -91 
Q 1019 -91 701 211 
Q 384 513 384 1019 
Q 384 1609 779 1909 
Q 1175 2209 1959 2209 
L 2766 2209 
L 2766 2266 
Q 2766 2663 2505 2880 
Q 2244 3097 1772 3097 
Q 1472 3097 1187 3025 
Q 903 2953 641 2809 
L 641 3341 
Q 956 3463 1253 3523 
Q 1550 3584 1831 3584 
Q 2591 3584 2966 3190 
Q 3341 2797 3341 1997 
z
" transform="scale(0.015625)"/>
       <path id="DejaVuSans-6e" d="M 3513 2113 
L 3513 0 
L 2938 0 
L 2938 2094 
Q 2938 2591 2744 2837 
Q 2550 3084 2163 3084 
Q 1697 3084 1428 2787 
Q 1159 2491 1159 1978 
L 1159 0 
L 581 0 
L 581 3500 
L 1159 3500 
L 1159 2956 
Q 1366 3272 1645 3428 
Q 1925 3584 2291 3584 
Q 2894 3584 3203 3211 
Q 3513 2838 3513 2113 
z
" transform="scale(0.015625)"/>
       <path id="DejaVuSans-64" d="M 2906 2969 
L 2906 4863 
L 3481 4863 
L 3481 0 
L 2906 0 
L 2906 525 
Q 2725 213 2448 61 
Q 2172 -91 1784 -91 
Q 1150 -91 751 415 
Q 353 922 353 1747 
Q 353 2572 751 3078 
Q 1150 3584 1784 3584 
Q 2172 3584 2448 3432 
Q 2725 3281 2906 2969 
z
M 947 1747 
Q 947 1113 1208 752 
Q 1469 391 1925 391 
Q 2381 391 2643 752 
Q 2906 1113 2906 1747 
Q 2906 2381 2643 2742 
Q 2381 3103 1925 3103 
Q 1469 3103 1208 2742 
Q 947 2381 947 1747 
z
" transform="scale(0.015625)"/>
       <path id="DejaVuSans-73" d="M 2834 3397 
L 2834 2853 
Q 2591 2978 2328 3040 
Q 2066 3103 1784 3103 
Q 1356 3103 1142 2972 
Q 928 2841 928 2578 
Q 928 2378 1081 2264 
Q 1234 2150 1697 2047 
L 1894 2003 
Q 2506 1872 2764 1633 
Q 3022 1394 3022 966 
Q 3022 478 2636 193 
Q 2250 -91 1575 -91 
Q 1294 -91 989 -36 
Q 684 19 347 128 
L 347 722 
Q 666 556 975 473 
Q 1284 391 1588 391 
Q 1994 391 2212 530 
Q 2431 669 2431 922 
Q 2431 1156 2273 1281 
Q 2116 1406 1581 1522 
L 1381 1569 
Q 847 1681 609 1914 
Q 372 2147 372 2553 
Q 372 3047 722 3315 
Q 1072 3584 1716 3584 
Q 2034 3584 2315 3537 
Q 2597 3491 2834 3397 
z
" transform="scale(0.015625)"/>
       <path id="DejaVuSans-6b" d="M 581 4863 
L 1159 4863 
L 1159 1991 
L 2875 3500 
L 3609 3500 
L 1753 1863 
L 3688 0 
L 2938 0 
L 1159 1709 
L 1159 0 
L 581 0 
L 581 4863 
z
" transform="scale(0.015625)"/>
       <path id="DejaVuSans-65" d="M 3597 1894 
L 3597 1613 
L 953 1613 
Q 991 1019 1311 708 
Q 1631 397 2203 397 
Q 2534 397 2845 478 
Q 3156 559 3463 722 
L 3463 178 
Q 3153 47 2828 -22 
Q 2503 -91 2169 -91 
Q 1331 -91 842 396 
Q 353 884 353 1716 
Q 353 2575 817 3079 
Q 1281 3584 2069 3584 
Q 2775 3584 3186 3129 
Q 3597 2675 3597 1894 
z
M 3022 2063 
Q 3016 2534 2758 2815 
Q 2500 3097 2075 3097 
Q 1594 3097 1305 2825 
Q 1016 2553 972 2059 
L 3022 2063 
z
" transform="scale(0.015625)"/>
       <path id="DejaVuSans-20" transform="scale(0.015625)"/>
       <path id="DejaVuSans-75" d="M 544 1381 
L 544 3500 
L 1119 3500 
L 1119 1403 
Q 1119 906 1312 657 
Q 1506 409 1894 409 
Q 2359 409 2629 706 
Q 2900 1003 2900 1516 
L 2900 3500 
L 3475 3500 
L 3475 0 
L 2900 0 
L 2900 538 
Q 2691 219 2414 64 
Q 2138 -91 1772 -91 
Q 1169 -91 856 284 
Q 544 659 544 1381 
z
M 1991 3584 
L 1991 3584 
z
" transform="scale(0.015625)"/>
       <path id="DejaVuSans-72" d="M 2631 2963 
Q 2534 3019 2420 3045 
Q 2306 3072 2169 3072 
Q 1681 3072 1420 2755 
Q 1159 2438 1159 1844 
L 1159 0 
L 581 0 
L 581 3500 
L 1159 3500 
L 1159 2956 
Q 1341 3275 1631 3429 
Q 1922 3584 2338 3584 
Q 2397 3584 2469 3576 
Q 2541 3569 2628 3553 
L 2631 2963 
z
" transform="scale(0.015625)"/>
       <path id="DejaVuSans-74" d="M 1172 4494 
L 1172 3500 
L 2356 3500 
L 2356 3053 
L 1172 3053 
L 1172 1153 
Q 1172 725 1289 603 
Q 1406 481 1766 481 
L 2356 481 
L 2356 0 
L 1766 0 
Q 1100 0 847 248 
Q 594 497 594 1153 
L 594 3053 
L 172 3053 
L 172 3500 
L 594 3500 
L 594 4494 
L 1172 4494 
z
" transform="scale(0.015625)"/>
       <path id="DejaVuSans-69" d="M 603 3500 
L 1178 3500 
L 1178 0 
L 603 0 
L 603 3500 
z
M 603 4863 
L 1178 4863 
L 1178 4134 
L 603 4134 
L 603 4863 
z
" transform="scale(0.015625)"/>
       <path id="DejaVuSans-6f" d="M 1959 3097 
Q 1497 3097 1228 2736 
Q 959 2375 959 1747 
Q 959 1119 1226 758 
Q 1494 397 1959 397 
Q 2419 397 2687 759 
Q 2956 1122 2956 1747 
Q 2956 2369 2687 2733 
Q 2419 3097 1959 3097 
z
M 1959 3584 
Q 2709 3584 3137 3096 
Q 3566 2609 3566 1747 
Q 3566 888 3137 398 
Q 2709 -91 1959 -91 
Q 1206 -91 779 398 
Q 353 888 353 1747 
Q 353 2609 779 3096 
Q 1206 3584 1959 3584 
z
" transform="scale(0.015625)"/>
       <path id="DejaVuSans-28" d="M 1984 4856 
Q 1566 4138 1362 3434 
Q 1159 2731 1159 2009 
Q 1159 1288 1364 580 
Q 1569 -128 1984 -844 
L 1484 -844 
Q 1016 -109 783 600 
Q 550 1309 550 2009 
Q 550 2706 781 3412 
Q 1013 4119 1484 4856 
L 1984 4856 
z
" transform="scale(0.015625)"/>
       <path id="DejaVuSans-6d" d="M 3328 2828 
Q 3544 3216 3844 3400 
Q 4144 3584 4550 3584 
Q 5097 3584 5394 3201 
Q 5691 2819 5691 2113 
L 5691 0 
L 5113 0 
L 5113 2094 
Q 5113 2597 4934 2840 
Q 4756 3084 4391 3084 
Q 3944 3084 3684 2787 
Q 3425 2491 3425 1978 
L 3425 0 
L 2847 0 
L 2847 2094 
Q 2847 2600 2669 2842 
Q 2491 3084 2119 3084 
Q 1678 3084 1418 2786 
Q 1159 2488 1159 1978 
L 1159 0 
L 581 0 
L 581 3500 
L 1159 3500 
L 1159 2956 
Q 1356 3278 1631 3431 
Q 1906 3584 2284 3584 
Q 2666 3584 2933 3390 
Q 3200 3197 3328 2828 
z
" transform="scale(0.015625)"/>
       <path id="DejaVuSans-29" d="M 513 4856 
L 1013 4856 
Q 1481 4119 1714 3412 
Q 1947 2706 1947 2009 
Q 1947 1309 1714 600 
Q 1481 -109 1013 -844 
L 513 -844 
Q 928 -128 1133 580 
Q 1338 1288 1338 2009 
Q 1338 2731 1133 3434 
Q 928 4138 513 4856 
z
" transform="scale(0.015625)"/>
      </defs>
      <use xlink:href="#DejaVuSans-48"/>
      <use xlink:href="#DejaVuSans-61" x="75.195312"/>
      <use xlink:href="#DejaVuSans-6e" x="136.474609"/>
      <use xlink:href="#DejaVuSans-64" x="199.853516"/>
      <use xlink:href="#DejaVuSans-73" x="263.330078"/>
      <use xlink:href="#DejaVuSans-68" x="315.429688"/>
      <use xlink:href="#DejaVuSans-61" x="378.808594"/>
      <use xlink:href="#DejaVuSans-6b" x="440.087891"/>
      <use xlink:href="#DejaVuSans-65" x="494.373047"/>
      <use xlink:href="#DejaVuSans-20" x="555.896484"/>
      <use xlink:href="#DejaVuSans-64" x="587.683594"/>
      <use xlink:href="#DejaVuSans-75" x="651.160156"/>
      <use xlink:href="#DejaVuSans-72" x="714.539062"/>
      <use xlink:href="#DejaVuSans-61" x="755.652344"/>
      <use xlink:href="#DejaVuSans-74" x="816.931641"/>
      <use xlink:href="#DejaVuSans-69" x="856.140625"/>
      <use xlink:href="#DejaVuSans-6f" x="883.923828"/>
      <use xlink:href="#DejaVuSans-6e" x="945.105469"/>
      <use xlink:href="#DejaVuSans-20" x="1008.484375"/>
      <use xlink:href="#DejaVuSans-28" x="1040.271484"/>
      <use xlink:href="#DejaVuSans-6d" x="1079.285156"/>
      <use xlink:href="#DejaVuSans-73" x="1176.697266"/>
      <use xlink:href="#DejaVuSans-29" x="1228.796875"/>
     </g>
    </g>
   </g>
   <g id="PolyCollection_1">
    <defs>
     <path id="m1256bff7c5" d="M 142.088391 -88.128019 
L 133.095609 -88.128019 
L 117.891636 -88.452536 
L 90.119446 -88.777053 
L 74.1744 -89.101571 
L 90.097101 -89.426088 
L 117.321052 -89.750605 
L 132.533199 -90.075123 
L 136.822114 -90.39964 
L 137.516109 -90.724157 
L 137.5869 -91.048674 
L 137.591768 -91.373192 
L 137.591993 -91.697709 
L 137.592 -92.022226 
L 137.592 -92.346744 
L 137.592 -92.671261 
L 137.592 -92.995778 
L 137.592 -93.320296 
L 137.592 -93.644813 
L 137.592 -93.96933 
L 137.592 -94.293847 
L 137.592 -94.618365 
L 137.592 -94.942882 
L 137.592 -95.267399 
L 137.592 -95.591917 
L 137.592 -95.916434 
L 137.592 -96.240951 
L 137.592 -96.565468 
L 137.592 -96.889986 
L 137.592 -97.214503 
L 137.592 -97.53902 
L 137.592 -97.863538 
L 137.592 -98.188055 
L 137.592 -98.512572 
L 137.592 -98.837089 
L 137.592 -99.161607 
L 137.592 -99.486124 
L 137.592 -99.810641 
L 137.592 -100.135159 
L 137.592 -100.459676 
L 137.592 -100.784193 
L 137.592 -101.10871 
L 137.592 -101.433228 
L 137.592 -101.757745 
L 137.592 -102.082262 
L 137.592 -102.40678 
L 137.592 -102.731297 
L 137.592 -103.055814 
L 137.592 -103.380332 
L 137.592 -103.704849 
L 137.592 -104.029366 
L 137.592 -104.353883 
L 137.592 -104.678401 
L 137.592 -105.002918 
L 137.592 -105.327435 
L 137.592 -105.651953 
L 137.592 -105.97647 
L 137.592 -106.300987 
L 137.592 -106.625504 
L 137.592 -106.950022 
L 137.592 -107.274539 
L 137.592 -107.599056 
L 137.592 -107.923574 
L 137.592 -108.248091 
L 137.592 -108.572608 
L 137.592 -108.897125 
L 137.592 -109.221643 
L 137.592 -109.54616 
L 137.592 -109.870677 
L 137.592 -110.195195 
L 137.592 -110.519712 
L 137.592 -110.844229 
L 137.592 -111.168746 
L 137.592 -111.493264 
L 137.592 -111.817781 
L 137.592 -112.142298 
L 137.592 -112.466816 
L 137.592 -112.791333 
L 137.592 -113.11585 
L 137.592 -113.440368 
L 137.592 -113.764885 
L 137.592 -114.089402 
L 137.592 -114.413919 
L 137.592 -114.738437 
L 137.592 -115.062954 
L 137.592 -115.387471 
L 137.592 -115.711989 
L 137.592 -116.036506 
L 137.592 -116.361023 
L 137.592 -116.68554 
L 137.592 -117.010058 
L 137.592 -117.334575 
L 137.591987 -117.659092 
L 137.591724 -117.98361 
L 137.588767 -118.308127 
L 137.571626 -118.632644 
L 137.523022 -118.957161 
L 137.46654 -119.281679 
L 137.469411 -119.606196 
L 137.527649 -119.930713 
L 137.573853 -120.255231 
L 137.610147 -120.255231 
L 137.610147 -120.255231 
L 137.656351 -119.930713 
L 137.714589 -119.606196 
L 137.71746 -119.281679 
L 137.660978 -118.957161 
L 137.612374 -118.632644 
L 137.595233 -118.308127 
L 137.592276 -117.98361 
L 137.592013 -117.659092 
L 137.592 -117.334575 
L 137.592 -117.010058 
L 137.592 -116.68554 
L 137.592 -116.361023 
L 137.592 -116.036506 
L 137.592 -115.711989 
L 137.592 -115.387471 
L 137.592 -115.062954 
L 137.592 -114.738437 
L 137.592 -114.413919 
L 137.592 -114.089402 
L 137.592 -113.764885 
L 137.592 -113.440368 
L 137.592 -113.11585 
L 137.592 -112.791333 
L 137.592 -112.466816 
L 137.592 -112.142298 
L 137.592 -111.817781 
L 137.592 -111.493264 
L 137.592 -111.168746 
L 137.592 -110.844229 
L 137.592 -110.519712 
L 137.592 -110.195195 
L 137.592 -109.870677 
L 137.592 -109.54616 
L 137.592 -109.221643 
L 137.592 -108.897125 
L 137.592 -108.572608 
L 137.592 -108.248091 
L 137.592 -107.923574 
L 137.592 -107.599056 
L 137.592 -107.274539 
L 137.592 -106.950022 
L 137.592 -106.625504 
L 137.592 -106.300987 
L 137.592 -105.97647 
L 137.592 -105.651953 
L 137.592 -105.327435 
L 137.592 -105.002918 
L 137.592 -104.678401 
L 137.592 -104.353883 
L 137.592 -104.029366 
L 137.592 -103.704849 
L 137.592 -103.380332 
L 137.592 -103.055814 
L 137.592 -102.731297 
L 137.592 -102.40678 
L 137.592 -102.082262 
L 137.592 -101.757745 
L 137.592 -101.433228 
L 137.592 -101.10871 
L 137.592 -100.784193 
L 137.592 -100.459676 
L 137.592 -100.135159 
L 137.592 -99.810641 
L 137.592 -99.486124 
L 137.592 -99.161607 
L 137.592 -98.837089 
L 137.592 -98.512572 
L 137.592 -98.188055 
L 137.592 -97.863538 
L 137.592 -97.53902 
L 137.592 -97.214503 
L 137.592 -96.889986 
L 137.592 -96.565468 
L 137.592 -96.240951 
L 137.592 -95.916434 
L 137.592 -95.591917 
L 137.592 -95.267399 
L 137.592 -94.942882 
L 137.592 -94.618365 
L 137.592 -94.293847 
L 137.592 -93.96933 
L 137.592 -93.644813 
L 137.592 -93.320296 
L 137.592 -92.995778 
L 137.592 -92.671261 
L 137.592 -92.346744 
L 137.592 -92.022226 
L 137.592007 -91.697709 
L 137.592232 -91.373192 
L 137.5971 -91.048674 
L 137.667891 -90.724157 
L 138.361886 -90.39964 
L 142.650801 -90.075123 
L 157.862948 -89.750605 
L 185.086899 -89.426088 
L 201.0096 -89.101571 
L 185.064554 -88.777053 
L 157.292364 -88.452536 
L 142.088391 -88.128019 
z
" style="stroke: #595959; stroke-width: 1.25"/>
    </defs>
    <g clip-path="url(#p868a6b3529)">
     <use xlink:href="#m1256bff7c5" x="0" y="432" style="fill: #72b6a1; stroke: #595959; stroke-width: 1.25"/>
    </g>
   </g>
   <g id="PolyCollection_2">
    <defs>
     <path id="m23412ba065" d="M 296.445307 -88.838506 
L 295.826693 -88.838506 
L 295.526379 -88.84797 
L 294.99471 -88.857434 
L 294.102575 -88.866898 
L 292.682205 -88.876361 
L 290.535613 -88.885825 
L 287.457074 -88.895289 
L 283.272215 -88.904753 
L 277.891662 -88.914217 
L 271.370064 -88.92368 
L 263.953808 -88.933144 
L 256.096837 -88.942608 
L 248.427704 -88.952072 
L 241.664032 -88.961536 
L 236.489165 -88.970999 
L 233.422218 -88.980463 
L 232.7184 -88.989927 
L 234.327653 -88.999391 
L 237.920119 -89.008855 
L 242.96571 -89.018318 
L 248.841316 -89.027782 
L 254.936979 -89.037246 
L 260.739661 -89.04671 
L 265.884396 -89.056174 
L 270.172311 -89.065637 
L 273.56054 -89.075101 
L 276.130936 -89.084565 
L 278.044815 -89.094029 
L 279.491789 -89.103492 
L 280.642261 -89.112956 
L 281.613807 -89.12242 
L 282.459189 -89.131884 
L 283.177482 -89.141348 
L 283.741758 -89.150811 
L 284.130741 -89.160275 
L 284.351253 -89.169739 
L 284.443478 -89.179203 
L 284.469501 -89.188667 
L 284.492827 -89.19813 
L 284.559494 -89.207594 
L 284.689059 -89.217058 
L 284.877944 -89.226522 
L 285.111634 -89.235986 
L 285.378652 -89.245449 
L 285.679628 -89.254913 
L 286.028171 -89.264377 
L 286.44475 -89.273841 
L 286.947818 -89.283305 
L 287.546683 -89.292768 
L 288.238489 -89.302232 
L 289.008854 -89.311696 
L 289.834094 -89.32116 
L 290.683404 -89.330624 
L 291.520932 -89.340087 
L 292.308891 -89.349551 
L 293.012527 -89.359015 
L 293.606252 -89.368479 
L 294.07884 -89.377942 
L 294.435361 -89.387406 
L 294.694802 -89.39687 
L 294.88413 -89.406334 
L 295.030989 -89.415798 
L 295.157438 -89.425261 
L 295.27644 -89.434725 
L 295.391568 -89.444189 
L 295.499332 -89.453653 
L 295.59294 -89.463117 
L 295.666123 -89.47258 
L 295.715908 -89.482044 
L 295.743651 -89.491508 
L 295.754303 -89.500972 
L 295.754518 -89.510436 
L 295.750646 -89.519899 
L 295.747526 -89.529363 
L 295.748414 -89.538827 
L 295.755633 -89.548291 
L 295.771136 -89.557755 
L 295.796405 -89.567218 
L 295.831716 -89.576682 
L 295.875362 -89.586146 
L 295.923478 -89.59561 
L 295.970697 -89.605074 
L 296.01133 -89.614537 
L 296.040535 -89.624001 
L 296.055048 -89.633465 
L 296.053496 -89.642929 
L 296.036504 -89.652392 
L 296.006811 -89.661856 
L 295.969323 -89.67132 
L 295.930792 -89.680784 
L 295.898803 -89.690248 
L 295.88014 -89.699711 
L 295.878998 -89.709175 
L 295.895796 -89.718639 
L 295.927158 -89.728103 
L 295.967108 -89.737567 
L 296.008962 -89.74703 
L 296.047122 -89.756494 
L 296.078166 -89.765958 
L 296.100997 -89.775422 
L 296.171003 -89.775422 
L 296.171003 -89.775422 
L 296.193834 -89.765958 
L 296.224878 -89.756494 
L 296.263038 -89.74703 
L 296.304892 -89.737567 
L 296.344842 -89.728103 
L 296.376204 -89.718639 
L 296.393002 -89.709175 
L 296.39186 -89.699711 
L 296.373197 -89.690248 
L 296.341208 -89.680784 
L 296.302677 -89.67132 
L 296.265189 -89.661856 
L 296.235496 -89.652392 
L 296.218504 -89.642929 
L 296.216952 -89.633465 
L 296.231465 -89.624001 
L 296.26067 -89.614537 
L 296.301303 -89.605074 
L 296.348522 -89.59561 
L 296.396638 -89.586146 
L 296.440284 -89.576682 
L 296.475595 -89.567218 
L 296.500864 -89.557755 
L 296.516367 -89.548291 
L 296.523586 -89.538827 
L 296.524474 -89.529363 
L 296.521354 -89.519899 
L 296.517482 -89.510436 
L 296.517697 -89.500972 
L 296.528349 -89.491508 
L 296.556092 -89.482044 
L 296.605877 -89.47258 
L 296.67906 -89.463117 
L 296.772668 -89.453653 
L 296.880432 -89.444189 
L 296.99556 -89.434725 
L 297.114562 -89.425261 
L 297.241011 -89.415798 
L 297.38787 -89.406334 
L 297.577198 -89.39687 
L 297.836639 -89.387406 
L 298.19316 -89.377942 
L 298.665748 -89.368479 
L 299.259473 -89.359015 
L 299.963109 -89.349551 
L 300.751068 -89.340087 
L 301.588596 -89.330624 
L 302.437906 -89.32116 
L 303.263146 -89.311696 
L 304.033511 -89.302232 
L 304.725317 -89.292768 
L 305.324182 -89.283305 
L 305.82725 -89.273841 
L 306.243829 -89.264377 
L 306.592372 -89.254913 
L 306.893348 -89.245449 
L 307.160366 -89.235986 
L 307.394056 -89.226522 
L 307.582941 -89.217058 
L 307.712506 -89.207594 
L 307.779173 -89.19813 
L 307.802499 -89.188667 
L 307.828522 -89.179203 
L 307.920747 -89.169739 
L 308.141259 -89.160275 
L 308.530242 -89.150811 
L 309.094518 -89.141348 
L 309.812811 -89.131884 
L 310.658193 -89.12242 
L 311.629739 -89.112956 
L 312.780211 -89.103492 
L 314.227185 -89.094029 
L 316.141064 -89.084565 
L 318.71146 -89.075101 
L 322.099689 -89.065637 
L 326.387604 -89.056174 
L 331.532339 -89.04671 
L 337.335021 -89.037246 
L 343.430684 -89.027782 
L 349.30629 -89.018318 
L 354.351881 -89.008855 
L 357.944347 -88.999391 
L 359.5536 -88.989927 
L 358.849782 -88.980463 
L 355.782835 -88.970999 
L 350.607968 -88.961536 
L 343.844296 -88.952072 
L 336.175163 -88.942608 
L 328.318192 -88.933144 
L 320.901936 -88.92368 
L 314.380338 -88.914217 
L 308.999785 -88.904753 
L 304.814926 -88.895289 
L 301.736387 -88.885825 
L 299.589795 -88.876361 
L 298.169425 -88.866898 
L 297.27729 -88.857434 
L 296.745621 -88.84797 
L 296.445307 -88.838506 
z
" style="stroke: #595959; stroke-width: 1.25"/>
    </defs>
    <g clip-path="url(#p868a6b3529)">
     <use xlink:href="#m23412ba065" x="0" y="432" style="fill: #e99675; stroke: #595959; stroke-width: 1.25"/>
    </g>
   </g>
   <g id="PolyCollection_3">
    <defs>
     <path id="md63934c0b3" d="M 462.254008 -74.302074 
L 447.105992 -74.302074 
L 441.04176 -77.477619 
L 432.346993 -80.653164 
L 421.420346 -83.82871 
L 409.629725 -87.004255 
L 399.177005 -90.1798 
L 392.477489 -93.355345 
L 391.2624 -96.530891 
L 395.854214 -99.706436 
L 405.027305 -102.881981 
L 416.535676 -106.057526 
L 427.999024 -109.233071 
L 437.673518 -112.408617 
L 444.78401 -115.584162 
L 449.401081 -118.759707 
L 452.073945 -121.935252 
L 453.464725 -125.110798 
L 454.123281 -128.286343 
L 454.414722 -131.461888 
L 454.542296 -134.637433 
L 454.602629 -137.812978 
L 454.635362 -140.988524 
L 454.654973 -144.164069 
L 454.666834 -147.339614 
L 454.673615 -150.515159 
L 454.677169 -153.690705 
L 454.678857 -156.86625 
L 454.67958 -160.041795 
L 454.67986 -163.21734 
L 454.679957 -166.392885 
L 454.679988 -169.568431 
L 454.679997 -172.743976 
L 454.679999 -175.919521 
L 454.68 -179.095066 
L 454.68 -182.270612 
L 454.68 -185.446157 
L 454.68 -188.621702 
L 454.68 -191.797247 
L 454.68 -194.972792 
L 454.68 -198.148338 
L 454.68 -201.323883 
L 454.68 -204.499428 
L 454.68 -207.674973 
L 454.68 -210.850519 
L 454.68 -214.026064 
L 454.68 -217.201609 
L 454.68 -220.377154 
L 454.68 -223.552699 
L 454.68 -226.728245 
L 454.68 -229.90379 
L 454.68 -233.079335 
L 454.68 -236.25488 
L 454.68 -239.430426 
L 454.68 -242.605971 
L 454.68 -245.781516 
L 454.68 -248.957061 
L 454.68 -252.132606 
L 454.68 -255.308152 
L 454.68 -258.483697 
L 454.68 -261.659242 
L 454.68 -264.834787 
L 454.68 -268.010333 
L 454.68 -271.185878 
L 454.68 -274.361423 
L 454.68 -277.536968 
L 454.68 -280.712514 
L 454.68 -283.888059 
L 454.68 -287.063604 
L 454.68 -290.239149 
L 454.68 -293.414694 
L 454.68 -296.59024 
L 454.68 -299.765785 
L 454.68 -302.94133 
L 454.68 -306.116875 
L 454.68 -309.292421 
L 454.679999 -312.467966 
L 454.679997 -315.643511 
L 454.679988 -318.819056 
L 454.679949 -321.994601 
L 454.679807 -325.170147 
L 454.679335 -328.345692 
L 454.677925 -331.521237 
L 454.674111 -334.696782 
L 454.664814 -337.872328 
L 454.644407 -341.047873 
L 454.604191 -344.223418 
L 454.533263 -347.398963 
L 454.421881 -350.574508 
L 454.267373 -353.750054 
L 454.080547 -356.925599 
L 453.888572 -360.101144 
L 453.730428 -363.276689 
L 453.64461 -366.452235 
L 453.654019 -369.62778 
L 453.756079 -372.803325 
L 453.923881 -375.97887 
L 454.117652 -379.154415 
L 454.299915 -382.329961 
L 454.446538 -385.505506 
L 454.54968 -388.681051 
L 454.81032 -388.681051 
L 454.81032 -388.681051 
L 454.913462 -385.505506 
L 455.060085 -382.329961 
L 455.242348 -379.154415 
L 455.436119 -375.97887 
L 455.603921 -372.803325 
L 455.705981 -369.62778 
L 455.71539 -366.452235 
L 455.629572 -363.276689 
L 455.471428 -360.101144 
L 455.279453 -356.925599 
L 455.092627 -353.750054 
L 454.938119 -350.574508 
L 454.826737 -347.398963 
L 454.755809 -344.223418 
L 454.715593 -341.047873 
L 454.695186 -337.872328 
L 454.685889 -334.696782 
L 454.682075 -331.521237 
L 454.680665 -328.345692 
L 454.680193 -325.170147 
L 454.680051 -321.994601 
L 454.680012 -318.819056 
L 454.680003 -315.643511 
L 454.680001 -312.467966 
L 454.68 -309.292421 
L 454.68 -306.116875 
L 454.68 -302.94133 
L 454.68 -299.765785 
L 454.68 -296.59024 
L 454.68 -293.414694 
L 454.68 -290.239149 
L 454.68 -287.063604 
L 454.68 -283.888059 
L 454.68 -280.712514 
L 454.68 -277.536968 
L 454.68 -274.361423 
L 454.68 -271.185878 
L 454.68 -268.010333 
L 454.68 -264.834787 
L 454.68 -261.659242 
L 454.68 -258.483697 
L 454.68 -255.308152 
L 454.68 -252.132606 
L 454.68 -248.957061 
L 454.68 -245.781516 
L 454.68 -242.605971 
L 454.68 -239.430426 
L 454.68 -236.25488 
L 454.68 -233.079335 
L 454.68 -229.90379 
L 454.68 -226.728245 
L 454.68 -223.552699 
L 454.68 -220.377154 
L 454.68 -217.201609 
L 454.68 -214.026064 
L 454.68 -210.850519 
L 454.68 -207.674973 
L 454.68 -204.499428 
L 454.68 -201.323883 
L 454.68 -198.148338 
L 454.68 -194.972792 
L 454.68 -191.797247 
L 454.68 -188.621702 
L 454.68 -185.446157 
L 454.68 -182.270612 
L 454.68 -179.095066 
L 454.680001 -175.919521 
L 454.680003 -172.743976 
L 454.680012 -169.568431 
L 454.680043 -166.392885 
L 454.68014 -163.21734 
L 454.68042 -160.041795 
L 454.681143 -156.86625 
L 454.682831 -153.690705 
L 454.686385 -150.515159 
L 454.693166 -147.339614 
L 454.705027 -144.164069 
L 454.724638 -140.988524 
L 454.757371 -137.812978 
L 454.817704 -134.637433 
L 454.945278 -131.461888 
L 455.236719 -128.286343 
L 455.895275 -125.110798 
L 457.286055 -121.935252 
L 459.958919 -118.759707 
L 464.57599 -115.584162 
L 471.686482 -112.408617 
L 481.360976 -109.233071 
L 492.824324 -106.057526 
L 504.332695 -102.881981 
L 513.505786 -99.706436 
L 518.0976 -96.530891 
L 516.882511 -93.355345 
L 510.182995 -90.1798 
L 499.730275 -87.004255 
L 487.939654 -83.82871 
L 477.013007 -80.653164 
L 468.31824 -77.477619 
L 462.254008 -74.302074 
z
" style="stroke: #595959; stroke-width: 1.25"/>
    </defs>
    <g clip-path="url(#p868a6b3529)">
     <use xlink:href="#md63934c0b3" x="0" y="432" style="fill: #95a3c3; stroke: #595959; stroke-width: 1.25"/>
    </g>
   </g>
   <g id="PolyCollection_4">
    <defs>
     <path id="m39594f62fd" d="M 620.526924 -85.080247 
L 605.921076 -85.080247 
L 595.759029 -88.08687 
L 579.771231 -91.093494 
L 561.835742 -94.100117 
L 549.8064 -97.106741 
L 550.211672 -100.113364 
L 562.675366 -103.119988 
L 580.374991 -106.126611 
L 595.862469 -109.133235 
L 605.726009 -112.139858 
L 610.558341 -115.146482 
L 612.421098 -118.153105 
L 612.97912 -121.159729 
L 613.090871 -124.166352 
L 613.091285 -127.172976 
L 613.089751 -130.179599 
L 613.111734 -133.186223 
L 613.148785 -136.192846 
L 613.183796 -139.19947 
L 613.206864 -142.206093 
L 613.218177 -145.212717 
L 613.222422 -148.219341 
L 613.223659 -151.225964 
L 613.223941 -154.232588 
L 613.223992 -157.239211 
L 613.223999 -160.245835 
L 613.224 -163.252458 
L 613.224 -166.259082 
L 613.224 -169.265705 
L 613.224 -172.272329 
L 613.224 -175.278952 
L 613.224 -178.285576 
L 613.224 -181.292199 
L 613.224 -184.298823 
L 613.224 -187.305446 
L 613.224 -190.31207 
L 613.224 -193.318693 
L 613.224 -196.325317 
L 613.224 -199.33194 
L 613.224 -202.338564 
L 613.224 -205.345187 
L 613.224 -208.351811 
L 613.224 -211.358435 
L 613.224 -214.365058 
L 613.224 -217.371682 
L 613.224 -220.378305 
L 613.224 -223.384929 
L 613.224 -226.391552 
L 613.224 -229.398176 
L 613.224 -232.404799 
L 613.224 -235.411423 
L 613.224 -238.418046 
L 613.224 -241.42467 
L 613.224 -244.431293 
L 613.224 -247.437917 
L 613.224 -250.44454 
L 613.224 -253.451164 
L 613.224 -256.457787 
L 613.224 -259.464411 
L 613.224 -262.471034 
L 613.224 -265.477658 
L 613.224 -268.484281 
L 613.224 -271.490905 
L 613.224 -274.497529 
L 613.224 -277.504152 
L 613.224 -280.510776 
L 613.224 -283.517399 
L 613.224 -286.524023 
L 613.224 -289.530646 
L 613.224 -292.53727 
L 613.224 -295.543893 
L 613.224 -298.550517 
L 613.224 -301.55714 
L 613.224 -304.563764 
L 613.224 -307.570387 
L 613.224 -310.577011 
L 613.224 -313.583634 
L 613.224 -316.590258 
L 613.224 -319.596881 
L 613.224 -322.603505 
L 613.224 -325.610128 
L 613.224 -328.616752 
L 613.224 -331.623375 
L 613.224 -334.629999 
L 613.223999 -337.636623 
L 613.22399 -340.643246 
L 613.223922 -343.64987 
L 613.2235 -346.656493 
L 613.221457 -349.663117 
L 613.213677 -352.66974 
L 613.190587 -355.676364 
L 613.137744 -358.682987 
L 613.046415 -361.689611 
L 612.932414 -364.696234 
L 612.842164 -367.702858 
L 612.825216 -370.709481 
L 612.891839 -373.716105 
L 613.003345 -376.722728 
L 613.107095 -379.729352 
L 613.174602 -382.735975 
L 613.273398 -382.735975 
L 613.273398 -382.735975 
L 613.340905 -379.729352 
L 613.444655 -376.722728 
L 613.556161 -373.716105 
L 613.622784 -370.709481 
L 613.605836 -367.702858 
L 613.515586 -364.696234 
L 613.401585 -361.689611 
L 613.310256 -358.682987 
L 613.257413 -355.676364 
L 613.234323 -352.66974 
L 613.226543 -349.663117 
L 613.2245 -346.656493 
L 613.224078 -343.64987 
L 613.22401 -340.643246 
L 613.224001 -337.636623 
L 613.224 -334.629999 
L 613.224 -331.623375 
L 613.224 -328.616752 
L 613.224 -325.610128 
L 613.224 -322.603505 
L 613.224 -319.596881 
L 613.224 -316.590258 
L 613.224 -313.583634 
L 613.224 -310.577011 
L 613.224 -307.570387 
L 613.224 -304.563764 
L 613.224 -301.55714 
L 613.224 -298.550517 
L 613.224 -295.543893 
L 613.224 -292.53727 
L 613.224 -289.530646 
L 613.224 -286.524023 
L 613.224 -283.517399 
L 613.224 -280.510776 
L 613.224 -277.504152 
L 613.224 -274.497529 
L 613.224 -271.490905 
L 613.224 -268.484281 
L 613.224 -265.477658 
L 613.224 -262.471034 
L 613.224 -259.464411 
L 613.224 -256.457787 
L 613.224 -253.451164 
L 613.224 -250.44454 
L 613.224 -247.437917 
L 613.224 -244.431293 
L 613.224 -241.42467 
L 613.224 -238.418046 
L 613.224 -235.411423 
L 613.224 -232.404799 
L 613.224 -229.398176 
L 613.224 -226.391552 
L 613.224 -223.384929 
L 613.224 -220.378305 
L 613.224 -217.371682 
L 613.224 -214.365058 
L 613.224 -211.358435 
L 613.224 -208.351811 
L 613.224 -205.345187 
L 613.224 -202.338564 
L 613.224 -199.33194 
L 613.224 -196.325317 
L 613.224 -193.318693 
L 613.224 -190.31207 
L 613.224 -187.305446 
L 613.224 -184.298823 
L 613.224 -181.292199 
L 613.224 -178.285576 
L 613.224 -175.278952 
L 613.224 -172.272329 
L 613.224 -169.265705 
L 613.224 -166.259082 
L 613.224 -163.252458 
L 613.224001 -160.245835 
L 613.224008 -157.239211 
L 613.224059 -154.232588 
L 613.224341 -151.225964 
L 613.225578 -148.219341 
L 613.229823 -145.212717 
L 613.241136 -142.206093 
L 613.264204 -139.19947 
L 613.299215 -136.192846 
L 613.336266 -133.186223 
L 613.358249 -130.179599 
L 613.356715 -127.172976 
L 613.357129 -124.166352 
L 613.46888 -121.159729 
L 614.026902 -118.153105 
L 615.889659 -115.146482 
L 620.721991 -112.139858 
L 630.585531 -109.133235 
L 646.073009 -106.126611 
L 663.772634 -103.119988 
L 676.236328 -100.113364 
L 676.6416 -97.106741 
L 664.612258 -94.100117 
L 646.676769 -91.093494 
L 630.688971 -88.08687 
L 620.526924 -85.080247 
z
" style="stroke: #595959; stroke-width: 1.25"/>
    </defs>
    <g clip-path="url(#p868a6b3529)">
     <use xlink:href="#m39594f62fd" x="0" y="432" style="fill: #db96c0; stroke: #595959; stroke-width: 1.25"/>
    </g>
   </g>
   <g id="PolyCollection_5">
    <defs>
     <path id="ma8b8c9da5d" d="M 779.270408 -76.229106 
L 764.265592 -76.229106 
L 757.817462 -79.377808 
L 748.437222 -82.526509 
L 736.669985 -85.675211 
L 724.264572 -88.823913 
L 713.913426 -91.972615 
L 708.3504 -95.121317 
L 709.187521 -98.270018 
L 716.160491 -101.41872 
L 727.261863 -104.567422 
L 739.671048 -107.716124 
L 750.897488 -110.864826 
L 759.516652 -114.013527 
L 765.25481 -117.162229 
L 768.605428 -120.310931 
L 770.333697 -123.459633 
L 771.127409 -126.608334 
L 771.458857 -129.757036 
L 771.59358 -132.905738 
L 771.655975 -136.05444 
L 771.69377 -139.203142 
L 771.721039 -142.351843 
L 771.740682 -145.500545 
L 771.753604 -148.649247 
L 771.761165 -151.797949 
L 771.765082 -154.946651 
L 771.766881 -158.095352 
L 771.767614 -161.244054 
L 771.767881 -164.392756 
L 771.767967 -167.541458 
L 771.767992 -170.69016 
L 771.767998 -173.838861 
L 771.768 -176.987563 
L 771.768 -180.136265 
L 771.768 -183.284967 
L 771.768 -186.433669 
L 771.768 -189.58237 
L 771.768 -192.731072 
L 771.768 -195.879774 
L 771.768 -199.028476 
L 771.768 -202.177178 
L 771.768 -205.325879 
L 771.768 -208.474581 
L 771.768 -211.623283 
L 771.768 -214.771985 
L 771.768 -217.920686 
L 771.768 -221.069388 
L 771.768 -224.21809 
L 771.768 -227.366792 
L 771.768 -230.515494 
L 771.768 -233.664195 
L 771.768 -236.812897 
L 771.768 -239.961599 
L 771.768 -243.110301 
L 771.768 -246.259003 
L 771.768 -249.407704 
L 771.768 -252.556406 
L 771.768 -255.705108 
L 771.768 -258.85381 
L 771.768 -262.002512 
L 771.768 -265.151213 
L 771.768 -268.299915 
L 771.768 -271.448617 
L 771.768 -274.597319 
L 771.768 -277.746021 
L 771.768 -280.894722 
L 771.768 -284.043424 
L 771.768 -287.192126 
L 771.768 -290.340828 
L 771.768 -293.48953 
L 771.768 -296.638231 
L 771.768 -299.786933 
L 771.768 -302.935635 
L 771.768 -306.084337 
L 771.768 -309.233039 
L 771.768 -312.38174 
L 771.768 -315.530442 
L 771.767998 -318.679144 
L 771.767992 -321.827846 
L 771.767962 -324.976547 
L 771.767843 -328.125249 
L 771.767417 -331.273951 
L 771.766057 -334.422653 
L 771.762187 -337.571355 
L 771.752373 -340.720056 
L 771.730268 -343.868758 
L 771.686168 -347.01746 
L 771.608583 -350.166162 
L 771.489045 -353.314864 
L 771.329546 -356.463565 
L 771.148981 -359.612267 
L 770.982991 -362.760969 
L 770.873797 -365.909671 
L 770.853066 -369.058373 
L 770.927118 -372.207074 
L 771.073818 -375.355776 
L 771.253241 -378.504478 
L 771.425131 -381.65318 
L 771.562862 -384.801882 
L 771.657755 -387.950583 
L 771.878245 -387.950583 
L 771.878245 -387.950583 
L 771.973138 -384.801882 
L 772.110869 -381.65318 
L 772.282759 -378.504478 
L 772.462182 -375.355776 
L 772.608882 -372.207074 
L 772.682934 -369.058373 
L 772.662203 -365.909671 
L 772.553009 -362.760969 
L 772.387019 -359.612267 
L 772.206454 -356.463565 
L 772.046955 -353.314864 
L 771.927417 -350.166162 
L 771.849832 -347.01746 
L 771.805732 -343.868758 
L 771.783627 -340.720056 
L 771.773813 -337.571355 
L 771.769943 -334.422653 
L 771.768583 -331.273951 
L 771.768157 -328.125249 
L 771.768038 -324.976547 
L 771.768008 -321.827846 
L 771.768002 -318.679144 
L 771.768 -315.530442 
L 771.768 -312.38174 
L 771.768 -309.233039 
L 771.768 -306.084337 
L 771.768 -302.935635 
L 771.768 -299.786933 
L 771.768 -296.638231 
L 771.768 -293.48953 
L 771.768 -290.340828 
L 771.768 -287.192126 
L 771.768 -284.043424 
L 771.768 -280.894722 
L 771.768 -277.746021 
L 771.768 -274.597319 
L 771.768 -271.448617 
L 771.768 -268.299915 
L 771.768 -265.151213 
L 771.768 -262.002512 
L 771.768 -258.85381 
L 771.768 -255.705108 
L 771.768 -252.556406 
L 771.768 -249.407704 
L 771.768 -246.259003 
L 771.768 -243.110301 
L 771.768 -239.961599 
L 771.768 -236.812897 
L 771.768 -233.664195 
L 771.768 -230.515494 
L 771.768 -227.366792 
L 771.768 -224.21809 
L 771.768 -221.069388 
L 771.768 -217.920686 
L 771.768 -214.771985 
L 771.768 -211.623283 
L 771.768 -208.474581 
L 771.768 -205.325879 
L 771.768 -202.177178 
L 771.768 -199.028476 
L 771.768 -195.879774 
L 771.768 -192.731072 
L 771.768 -189.58237 
L 771.768 -186.433669 
L 771.768 -183.284967 
L 771.768 -180.136265 
L 771.768 -176.987563 
L 771.768002 -173.838861 
L 771.768008 -170.69016 
L 771.768033 -167.541458 
L 771.768119 -164.392756 
L 771.768386 -161.244054 
L 771.769119 -158.095352 
L 771.770918 -154.946651 
L 771.774835 -151.797949 
L 771.782396 -148.649247 
L 771.795318 -145.500545 
L 771.814961 -142.351843 
L 771.84223 -139.203142 
L 771.880025 -136.05444 
L 771.94242 -132.905738 
L 772.077143 -129.757036 
L 772.408591 -126.608334 
L 773.202303 -123.459633 
L 774.930572 -120.310931 
L 778.28119 -117.162229 
L 784.019348 -114.013527 
L 792.638512 -110.864826 
L 803.864952 -107.716124 
L 816.274137 -104.567422 
L 827.375509 -101.41872 
L 834.348479 -98.270018 
L 835.1856 -95.121317 
L 829.622574 -91.972615 
L 819.271428 -88.823913 
L 806.866015 -85.675211 
L 795.098778 -82.526509 
L 785.718538 -79.377808 
L 779.270408 -76.229106 
z
" style="stroke: #595959; stroke-width: 1.25"/>
    </defs>
    <g clip-path="url(#p868a6b3529)">
     <use xlink:href="#ma8b8c9da5d" x="0" y="432" style="fill: #a2c865; stroke: #595959; stroke-width: 1.25"/>
    </g>
   </g>
   <g id="line2d_9">
    <path d="M 137.592 342.97195 
L 137.592 343.048599 
" clip-path="url(#p868a6b3529)" style="fill: none; stroke: #000000"/>
   </g>
   <g id="line2d_10">
    <path d="M 137.592 342.855913 
L 137.592 342.68239 
" clip-path="url(#p868a6b3529)" style="fill: none; stroke: #000000"/>
   </g>
   <g id="line2d_11">
    <path d="M 131.6466 343.048599 
L 143.5374 343.048599 
" clip-path="url(#p868a6b3529)" style="fill: none; stroke: #000000; stroke-linecap: round"/>
   </g>
   <g id="line2d_12">
    <path d="M 131.6466 342.68239 
L 143.5374 342.68239 
" clip-path="url(#p868a6b3529)" style="fill: none; stroke: #000000; stroke-linecap: round"/>
   </g>
   <g id="line2d_13">
    <path d="M 296.136 343.023049 
L 296.136 343.091181 
" clip-path="url(#p868a6b3529)" style="fill: none; stroke: #000000"/>
   </g>
   <g id="line2d_14">
    <path d="M 296.136 342.891044 
L 296.136 342.699423 
" clip-path="url(#p868a6b3529)" style="fill: none; stroke: #000000"/>
   </g>
   <g id="line2d_15">
    <path d="M 290.1906 343.091181 
L 302.0814 343.091181 
" clip-path="url(#p868a6b3529)" style="fill: none; stroke: #000000; stroke-linecap: round"/>
   </g>
   <g id="line2d_16">
    <path d="M 290.1906 342.699423 
L 302.0814 342.699423 
" clip-path="url(#p868a6b3529)" style="fill: none; stroke: #000000; stroke-linecap: round"/>
   </g>
   <g id="line2d_17">
    <path d="M 454.68 337.010421 
L 454.68 337.167976 
" clip-path="url(#p868a6b3529)" style="fill: none; stroke: #000000"/>
   </g>
   <g id="line2d_18">
    <path d="M 454.68 336.356782 
L 454.68 335.392292 
" clip-path="url(#p868a6b3529)" style="fill: none; stroke: #000000"/>
   </g>
   <g id="line2d_19">
    <path d="M 448.7346 337.167976 
L 460.6254 337.167976 
" clip-path="url(#p868a6b3529)" style="fill: none; stroke: #000000; stroke-linecap: round"/>
   </g>
   <g id="line2d_20">
    <path d="M 448.7346 335.392292 
L 460.6254 335.392292 
" clip-path="url(#p868a6b3529)" style="fill: none; stroke: #000000; stroke-linecap: round"/>
   </g>
   <g id="line2d_21">
    <path d="M 613.224 334.182953 
L 613.224 334.285151 
" clip-path="url(#p868a6b3529)" style="fill: none; stroke: #000000"/>
   </g>
   <g id="line2d_22">
    <path d="M 613.224 333.542089 
L 613.224 332.590373 
" clip-path="url(#p868a6b3529)" style="fill: none; stroke: #000000"/>
   </g>
   <g id="line2d_23">
    <path d="M 607.2786 334.285151 
L 619.1694 334.285151 
" clip-path="url(#p868a6b3529)" style="fill: none; stroke: #000000; stroke-linecap: round"/>
   </g>
   <g id="line2d_24">
    <path d="M 607.2786 332.590373 
L 619.1694 332.590373 
" clip-path="url(#p868a6b3529)" style="fill: none; stroke: #000000; stroke-linecap: round"/>
   </g>
   <g id="line2d_25">
    <path d="M 771.768 336.452592 
L 771.768 336.55479 
" clip-path="url(#p868a6b3529)" style="fill: none; stroke: #000000"/>
   </g>
   <g id="line2d_26">
    <path d="M 771.768 335.644592 
L 771.768 334.434189 
" clip-path="url(#p868a6b3529)" style="fill: none; stroke: #000000"/>
   </g>
   <g id="line2d_27">
    <path d="M 765.8226 336.55479 
L 777.7134 336.55479 
" clip-path="url(#p868a6b3529)" style="fill: none; stroke: #000000; stroke-linecap: round"/>
   </g>
   <g id="line2d_28">
    <path d="M 765.8226 334.434189 
L 777.7134 334.434189 
" clip-path="url(#p868a6b3529)" style="fill: none; stroke: #000000; stroke-linecap: round"/>
   </g>
   <g id="line2d_29">
    <path d="M 125.7012 342.933626 
L 149.4828 342.933626 
" clip-path="url(#p868a6b3529)" style="fill: none; stroke: #ff0000; stroke-width: 2"/>
   </g>
   <g id="line2d_30">
    <path d="M 284.2452 342.988983 
L 308.0268 342.988983 
" clip-path="url(#p868a6b3529)" style="fill: none; stroke: #ff0000; stroke-width: 2"/>
   </g>
   <g id="line2d_31">
    <path d="M 442.7892 336.923127 
L 466.5708 336.923127 
" clip-path="url(#p868a6b3529)" style="fill: none; stroke: #ff0000; stroke-width: 2"/>
   </g>
   <g id="line2d_32">
    <path d="M 601.3332 334.059464 
L 625.1148 334.059464 
" clip-path="url(#p868a6b3529)" style="fill: none; stroke: #ff0000; stroke-width: 2"/>
   </g>
   <g id="line2d_33">
    <path d="M 759.8772 336.38659 
L 783.6588 336.38659 
" clip-path="url(#p868a6b3529)" style="fill: none; stroke: #ff0000; stroke-width: 2"/>
   </g>
   <g id="patch_3">
    <path d="M 58.32 373.416875 
L 58.32 27.6 
" style="fill: none; stroke: #cccccc; stroke-width: 1.25; stroke-linejoin: miter; stroke-linecap: square"/>
   </g>
   <g id="patch_4">
    <path d="M 851.04 373.416875 
L 851.04 27.6 
" style="fill: none; stroke: #cccccc; stroke-width: 1.25; stroke-linejoin: miter; stroke-linecap: square"/>
   </g>
   <g id="patch_5">
    <path d="M 58.32 373.416875 
L 851.04 373.416875 
" style="fill: none; stroke: #cccccc; stroke-width: 1.25; stroke-linejoin: miter; stroke-linecap: square"/>
   </g>
   <g id="patch_6">
    <path d="M 58.32 27.6 
L 851.04 27.6 
" style="fill: none; stroke: #cccccc; stroke-width: 1.25; stroke-linejoin: miter; stroke-linecap: square"/>
   </g>
   <g id="text_15">
    <!-- Handshake duration on QUIC with ed25519 signature algorithm — Local YDE (35ms/2%) -->
    <g style="fill: #262626" transform="translate(189.567187 21.6) scale(0.12 -0.12)">
     <defs>
      <path id="DejaVuSans-51" d="M 2522 4238 
Q 1834 4238 1429 3725 
Q 1025 3213 1025 2328 
Q 1025 1447 1429 934 
Q 1834 422 2522 422 
Q 3209 422 3611 934 
Q 4013 1447 4013 2328 
Q 4013 3213 3611 3725 
Q 3209 4238 2522 4238 
z
M 3406 84 
L 4238 -825 
L 3475 -825 
L 2784 -78 
Q 2681 -84 2626 -87 
Q 2572 -91 2522 -91 
Q 1538 -91 948 567 
Q 359 1225 359 2328 
Q 359 3434 948 4092 
Q 1538 4750 2522 4750 
Q 3503 4750 4090 4092 
Q 4678 3434 4678 2328 
Q 4678 1516 4351 937 
Q 4025 359 3406 84 
z
" transform="scale(0.015625)"/>
      <path id="DejaVuSans-55" d="M 556 4666 
L 1191 4666 
L 1191 1831 
Q 1191 1081 1462 751 
Q 1734 422 2344 422 
Q 2950 422 3222 751 
Q 3494 1081 3494 1831 
L 3494 4666 
L 4128 4666 
L 4128 1753 
Q 4128 841 3676 375 
Q 3225 -91 2344 -91 
Q 1459 -91 1007 375 
Q 556 841 556 1753 
L 556 4666 
z
" transform="scale(0.015625)"/>
      <path id="DejaVuSans-49" d="M 628 4666 
L 1259 4666 
L 1259 0 
L 628 0 
L 628 4666 
z
" transform="scale(0.015625)"/>
      <path id="DejaVuSans-43" d="M 4122 4306 
L 4122 3641 
Q 3803 3938 3442 4084 
Q 3081 4231 2675 4231 
Q 1875 4231 1450 3742 
Q 1025 3253 1025 2328 
Q 1025 1406 1450 917 
Q 1875 428 2675 428 
Q 3081 428 3442 575 
Q 3803 722 4122 1019 
L 4122 359 
Q 3791 134 3420 21 
Q 3050 -91 2638 -91 
Q 1578 -91 968 557 
Q 359 1206 359 2328 
Q 359 3453 968 4101 
Q 1578 4750 2638 4750 
Q 3056 4750 3426 4639 
Q 3797 4528 4122 4306 
z
" transform="scale(0.015625)"/>
      <path id="DejaVuSans-77" d="M 269 3500 
L 844 3500 
L 1563 769 
L 2278 3500 
L 2956 3500 
L 3675 769 
L 4391 3500 
L 4966 3500 
L 4050 0 
L 3372 0 
L 2619 2869 
L 1863 0 
L 1184 0 
L 269 3500 
z
" transform="scale(0.015625)"/>
      <path id="DejaVuSans-67" d="M 2906 1791 
Q 2906 2416 2648 2759 
Q 2391 3103 1925 3103 
Q 1463 3103 1205 2759 
Q 947 2416 947 1791 
Q 947 1169 1205 825 
Q 1463 481 1925 481 
Q 2391 481 2648 825 
Q 2906 1169 2906 1791 
z
M 3481 434 
Q 3481 -459 3084 -895 
Q 2688 -1331 1869 -1331 
Q 1566 -1331 1297 -1286 
Q 1028 -1241 775 -1147 
L 775 -588 
Q 1028 -725 1275 -790 
Q 1522 -856 1778 -856 
Q 2344 -856 2625 -561 
Q 2906 -266 2906 331 
L 2906 616 
Q 2728 306 2450 153 
Q 2172 0 1784 0 
Q 1141 0 747 490 
Q 353 981 353 1791 
Q 353 2603 747 3093 
Q 1141 3584 1784 3584 
Q 2172 3584 2450 3431 
Q 2728 3278 2906 2969 
L 2906 3500 
L 3481 3500 
L 3481 434 
z
" transform="scale(0.015625)"/>
      <path id="DejaVuSans-6c" d="M 603 4863 
L 1178 4863 
L 1178 0 
L 603 0 
L 603 4863 
z
" transform="scale(0.015625)"/>
      <path id="DejaVuSans-2014" d="M 313 1978 
L 6088 1978 
L 6088 1528 
L 313 1528 
L 313 1978 
z
" transform="scale(0.015625)"/>
      <path id="DejaVuSans-4c" d="M 628 4666 
L 1259 4666 
L 1259 531 
L 3531 531 
L 3531 0 
L 628 0 
L 628 4666 
z
" transform="scale(0.015625)"/>
      <path id="DejaVuSans-59" d="M -13 4666 
L 666 4666 
L 1959 2747 
L 3244 4666 
L 3922 4666 
L 2272 2222 
L 2272 0 
L 1638 0 
L 1638 2222 
L -13 4666 
z
" transform="scale(0.015625)"/>
      <path id="DejaVuSans-44" d="M 1259 4147 
L 1259 519 
L 2022 519 
Q 2988 519 3436 956 
Q 3884 1394 3884 2338 
Q 3884 3275 3436 3711 
Q 2988 4147 2022 4147 
L 1259 4147 
z
M 628 4666 
L 1925 4666 
Q 3281 4666 3915 4102 
Q 4550 3538 4550 2338 
Q 4550 1131 3912 565 
Q 3275 0 1925 0 
L 628 0 
L 628 4666 
z
" transform="scale(0.015625)"/>
      <path id="DejaVuSans-45" d="M 628 4666 
L 3578 4666 
L 3578 4134 
L 1259 4134 
L 1259 2753 
L 3481 2753 
L 3481 2222 
L 1259 2222 
L 1259 531 
L 3634 531 
L 3634 0 
L 628 0 
L 628 4666 
z
" transform="scale(0.015625)"/>
      <path id="DejaVuSans-2f" d="M 1625 4666 
L 2156 4666 
L 531 -594 
L 0 -594 
L 1625 4666 
z
" transform="scale(0.015625)"/>
      <path id="DejaVuSans-25" d="M 4653 2053 
Q 4381 2053 4226 1822 
Q 4072 1591 4072 1178 
Q 4072 772 4226 539 
Q 4381 306 4653 306 
Q 4919 306 5073 539 
Q 5228 772 5228 1178 
Q 5228 1588 5073 1820 
Q 4919 2053 4653 2053 
z
M 4653 2450 
Q 5147 2450 5437 2106 
Q 5728 1763 5728 1178 
Q 5728 594 5436 251 
Q 5144 -91 4653 -91 
Q 4153 -91 3862 251 
Q 3572 594 3572 1178 
Q 3572 1766 3864 2108 
Q 4156 2450 4653 2450 
z
M 1428 4353 
Q 1159 4353 1004 4120 
Q 850 3888 850 3481 
Q 850 3069 1003 2837 
Q 1156 2606 1428 2606 
Q 1700 2606 1854 2837 
Q 2009 3069 2009 3481 
Q 2009 3884 1853 4118 
Q 1697 4353 1428 4353 
z
M 4250 4750 
L 4750 4750 
L 1831 -91 
L 1331 -91 
L 4250 4750 
z
M 1428 4750 
Q 1922 4750 2215 4408 
Q 2509 4066 2509 3481 
Q 2509 2891 2217 2550 
Q 1925 2209 1428 2209 
Q 931 2209 642 2551 
Q 353 2894 353 3481 
Q 353 4063 643 4406 
Q 934 4750 1428 4750 
z
" transform="scale(0.015625)"/>
     </defs>
     <use xlink:href="#DejaVuSans-48"/>
     <use xlink:href="#DejaVuSans-61" x="75.195312"/>
     <use xlink:href="#DejaVuSans-6e" x="136.474609"/>
     <use xlink:href="#DejaVuSans-64" x="199.853516"/>
     <use xlink:href="#DejaVuSans-73" x="263.330078"/>
     <use xlink:href="#DejaVuSans-68" x="315.429688"/>
     <use xlink:href="#DejaVuSans-61" x="378.808594"/>
     <use xlink:href="#DejaVuSans-6b" x="440.087891"/>
     <use xlink:href="#DejaVuSans-65" x="494.373047"/>
     <use xlink:href="#DejaVuSans-20" x="555.896484"/>
     <use xlink:href="#DejaVuSans-64" x="587.683594"/>
     <use xlink:href="#DejaVuSans-75" x="651.160156"/>
     <use xlink:href="#DejaVuSans-72" x="714.539062"/>
     <use xlink:href="#DejaVuSans-61" x="755.652344"/>
     <use xlink:href="#DejaVuSans-74" x="816.931641"/>
     <use xlink:href="#DejaVuSans-69" x="856.140625"/>
     <use xlink:href="#DejaVuSans-6f" x="883.923828"/>
     <use xlink:href="#DejaVuSans-6e" x="945.105469"/>
     <use xlink:href="#DejaVuSans-20" x="1008.484375"/>
     <use xlink:href="#DejaVuSans-6f" x="1040.271484"/>
     <use xlink:href="#DejaVuSans-6e" x="1101.453125"/>
     <use xlink:href="#DejaVuSans-20" x="1164.832031"/>
     <use xlink:href="#DejaVuSans-51" x="1196.619141"/>
     <use xlink:href="#DejaVuSans-55" x="1275.330078"/>
     <use xlink:href="#DejaVuSans-49" x="1348.523438"/>
     <use xlink:href="#DejaVuSans-43" x="1378.015625"/>
     <use xlink:href="#DejaVuSans-20" x="1447.839844"/>
     <use xlink:href="#DejaVuSans-77" x="1479.626953"/>
     <use xlink:href="#DejaVuSans-69" x="1561.414062"/>
     <use xlink:href="#DejaVuSans-74" x="1589.197266"/>
     <use xlink:href="#DejaVuSans-68" x="1628.40625"/>
     <use xlink:href="#DejaVuSans-20" x="1691.785156"/>
     <use xlink:href="#DejaVuSans-65" x="1723.572266"/>
     <use xlink:href="#DejaVuSans-64" x="1785.095703"/>
     <use xlink:href="#DejaVuSans-32" x="1848.572266"/>
     <use xlink:href="#DejaVuSans-35" x="1912.195312"/>
     <use xlink:href="#DejaVuSans-35" x="1975.818359"/>
     <use xlink:href="#DejaVuSans-31" x="2039.441406"/>
     <use xlink:href="#DejaVuSans-39" x="2103.064453"/>
     <use xlink:href="#DejaVuSans-20" x="2166.6875"/>
     <use xlink:href="#DejaVuSans-73" x="2198.474609"/>
     <use xlink:href="#DejaVuSans-69" x="2250.574219"/>
     <use xlink:href="#DejaVuSans-67" x="2278.357422"/>
     <use xlink:href="#DejaVuSans-6e" x="2341.833984"/>
     <use xlink:href="#DejaVuSans-61" x="2405.212891"/>
     <use xlink:href="#DejaVuSans-74" x="2466.492188"/>
     <use xlink:href="#DejaVuSans-75" x="2505.701172"/>
     <use xlink:href="#DejaVuSans-72" x="2569.080078"/>
     <use xlink:href="#DejaVuSans-65" x="2607.943359"/>
     <use xlink:href="#DejaVuSans-20" x="2669.466797"/>
     <use xlink:href="#DejaVuSans-61" x="2701.253906"/>
     <use xlink:href="#DejaVuSans-6c" x="2762.533203"/>
     <use xlink:href="#DejaVuSans-67" x="2790.316406"/>
     <use xlink:href="#DejaVuSans-6f" x="2853.792969"/>
     <use xlink:href="#DejaVuSans-72" x="2914.974609"/>
     <use xlink:href="#DejaVuSans-69" x="2956.087891"/>
     <use xlink:href="#DejaVuSans-74" x="2983.871094"/>
     <use xlink:href="#DejaVuSans-68" x="3023.080078"/>
     <use xlink:href="#DejaVuSans-6d" x="3086.458984"/>
     <use xlink:href="#DejaVuSans-20" x="3183.871094"/>
     <use xlink:href="#DejaVuSans-2014" x="3215.658203"/>
     <use xlink:href="#DejaVuSans-20" x="3315.658203"/>
     <use xlink:href="#DejaVuSans-4c" x="3347.445312"/>
     <use xlink:href="#DejaVuSans-6f" x="3401.408203"/>
     <use xlink:href="#DejaVuSans-63" x="3462.589844"/>
     <use xlink:href="#DejaVuSans-61" x="3517.570312"/>
     <use xlink:href="#DejaVuSans-6c" x="3578.849609"/>
     <use xlink:href="#DejaVuSans-20" x="3606.632812"/>
     <use xlink:href="#DejaVuSans-59" x="3638.419922"/>
     <use xlink:href="#DejaVuSans-44" x="3699.503906"/>
     <use xlink:href="#DejaVuSans-45" x="3776.505859"/>
     <use xlink:href="#DejaVuSans-20" x="3839.689453"/>
     <use xlink:href="#DejaVuSans-28" x="3871.476562"/>
     <use xlink:href="#DejaVuSans-33" x="3910.490234"/>
     <use xlink:href="#DejaVuSans-35" x="3974.113281"/>
     <use xlink:href="#DejaVuSans-6d" x="4037.736328"/>
     <use xlink:href="#DejaVuSans-73" x="4135.148438"/>
     <use xlink:href="#DejaVuSans-2f" x="4187.248047"/>
     <use xlink:href="#DejaVuSans-32" x="4220.939453"/>
     <use xlink:href="#DejaVuSans-25" x="4284.5625"/>
     <use xlink:href="#DejaVuSans-29" x="4379.582031"/>
    </g>
   </g>
  </g>
 </g>
 <defs>
  <clipPath id="p868a6b3529">
   <rect x="58.32" y="27.6" width="792.72" height="345.816875"/>
  </clipPath>
 </defs>
</svg>
