<?xml version="1.0" encoding="utf-8" standalone="no"?>
<!DOCTYPE svg PUBLIC "-//W3C//DTD SVG 1.1//EN"
  "http://www.w3.org/Graphics/SVG/1.1/DTD/svg11.dtd">
<svg xmlns:xlink="http://www.w3.org/1999/xlink" width="864pt" height="432pt" viewBox="0 0 864 432" xmlns="http://www.w3.org/2000/svg" version="1.1">
 <metadata>
  <rdf:RDF xmlns:dc="http://purl.org/dc/elements/1.1/" xmlns:cc="http://creativecommons.org/ns#" xmlns:rdf="http://www.w3.org/1999/02/22-rdf-syntax-ns#">
   <cc:Work>
    <dc:type rdf:resource="http://purl.org/dc/dcmitype/StillImage"/>
    <dc:date>2026-03-21T14:06:24.567969</dc:date>
    <dc:format>image/svg+xml</dc:format>
    <dc:creator>
     <cc:Agent>
      <dc:title>Matplotlib v3.6.3, https://matplotlib.org/</dc:title>
     </cc:Agent>
    </dc:creator>
   </cc:Work>
  </rdf:RDF>
 </metadata>
 <defs>
  <style type="text/css">*{stroke-linejoin: round; stroke-linecap: butt}</style>
 </defs>
 <g id="figure_1">
  <g id="patch_1">
   <path d="M 0 432 
L 864 432 
L 864 0 
L 0 0 
z
" style="fill: #ffffff"/>
  </g>
  <g id="axes_1">
   <g id="patch_2">
    <path d="M 51.3 373.416875 
L 851.04 373.416875 
L 851.04 27.6 
L 51.3 27.6 
z
" style="fill: #ffffff"/>
   </g>
   <g id="matplotlib.axis_1">
    <g id="xtick_1">
     <g id="text_1">
      <!-- P-256 -->
      <g style="fill: #262626" transform="translate(97.593421 400.575919) rotate(-15) scale(0.12 -0.12)">
       <defs>
        <path id="DejaVuSans-50" d="M 1259 4147 
L 1259 2394 
L 2053 2394 
Q 2494 2394 2734 2622 
Q 2975 2850 2975 3272 
Q 2975 3691 2734 3919 
Q 2494 4147 2053 4147 
L 1259 4147 
z
M 628 4666 
L 2053 4666 
Q 2838 4666 3239 4311 
Q 3641 3956 3641 3272 
Q 3641 2581 3239 2228 
Q 2838 1875 2053 1875 
L 1259 1875 
L 1259 0 
L 628 0 
L 628 4666 
z
" transform="scale(0.015625)"/>
        <path id="DejaVuSans-2d" d="M 313 2009 
L 1997 2009 
L 1997 1497 
L 313 1497 
L 313 2009 
z
" transform="scale(0.015625)"/>
        <path id="DejaVuSans-32" d="M 1228 531 
L 3431 531 
L 3431 0 
L 469 0 
L 469 531 
Q 828 903 1448 1529 
Q 2069 2156 2228 2338 
Q 2531 2678 2651 2914 
Q 2772 3150 2772 3378 
Q 2772 3750 2511 3984 
Q 2250 4219 1831 4219 
Q 1534 4219 1204 4116 
Q 875 4013 500 3803 
L 500 4441 
Q 881 4594 1212 4672 
Q 1544 4750 1819 4750 
Q 2544 4750 2975 4387 
Q 3406 4025 3406 3419 
Q 3406 3131 3298 2873 
Q 3191 2616 2906 2266 
Q 2828 2175 2409 1742 
Q 1991 1309 1228 531 
z
" transform="scale(0.015625)"/>
        <path id="DejaVuSans-35" d="M 691 4666 
L 3169 4666 
L 3169 4134 
L 1269 4134 
L 1269 2991 
Q 1406 3038 1543 3061 
Q 1681 3084 1819 3084 
Q 2600 3084 3056 2656 
Q 3513 2228 3513 1497 
Q 3513 744 3044 326 
Q 2575 -91 1722 -91 
Q 1428 -91 1123 -41 
Q 819 9 494 109 
L 494 744 
Q 775 591 1075 516 
Q 1375 441 1709 441 
Q 2250 441 2565 725 
Q 2881 1009 2881 1497 
Q 2881 1984 2565 2268 
Q 2250 2553 1709 2553 
Q 1456 2553 1204 2497 
Q 953 2441 691 2322 
L 691 4666 
z
" transform="scale(0.015625)"/>
        <path id="DejaVuSans-36" d="M 2113 2584 
Q 1688 2584 1439 2293 
Q 1191 2003 1191 1497 
Q 1191 994 1439 701 
Q 1688 409 2113 409 
Q 2538 409 2786 701 
Q 3034 994 3034 1497 
Q 3034 2003 2786 2293 
Q 2538 2584 2113 2584 
z
M 3366 4563 
L 3366 3988 
Q 3128 4100 2886 4159 
Q 2644 4219 2406 4219 
Q 1781 4219 1451 3797 
Q 1122 3375 1075 2522 
Q 1259 2794 1537 2939 
Q 1816 3084 2150 3084 
Q 2853 3084 3261 2657 
Q 3669 2231 3669 1497 
Q 3669 778 3244 343 
Q 2819 -91 2113 -91 
Q 1303 -91 875 529 
Q 447 1150 447 2328 
Q 447 3434 972 4092 
Q 1497 4750 2381 4750 
Q 2619 4750 2861 4703 
Q 3103 4656 3366 4563 
z
" transform="scale(0.015625)"/>
       </defs>
       <use xlink:href="#DejaVuSans-50"/>
       <use xlink:href="#DejaVuSans-2d" x="58.052734"/>
       <use xlink:href="#DejaVuSans-32" x="94.136719"/>
       <use xlink:href="#DejaVuSans-35" x="157.759766"/>
       <use xlink:href="#DejaVuSans-36" x="221.382812"/>
      </g>
     </g>
    </g>
    <g id="xtick_2">
     <g id="text_2">
      <!-- x25519 -->
      <g style="fill: #262626" transform="translate(246.841378 403.442987) rotate(-15) scale(0.12 -0.12)">
       <defs>
        <path id="DejaVuSans-78" d="M 3513 3500 
L 2247 1797 
L 3578 0 
L 2900 0 
L 1881 1375 
L 863 0 
L 184 0 
L 1544 1831 
L 300 3500 
L 978 3500 
L 1906 2253 
L 2834 3500 
L 3513 3500 
z
" transform="scale(0.015625)"/>
        <path id="DejaVuSans-31" d="M 794 531 
L 1825 531 
L 1825 4091 
L 703 3866 
L 703 4441 
L 1819 4666 
L 2450 4666 
L 2450 531 
L 3481 531 
L 3481 0 
L 794 0 
L 794 531 
z
" transform="scale(0.015625)"/>
        <path id="DejaVuSans-39" d="M 703 97 
L 703 672 
Q 941 559 1184 500 
Q 1428 441 1663 441 
Q 2288 441 2617 861 
Q 2947 1281 2994 2138 
Q 2813 1869 2534 1725 
Q 2256 1581 1919 1581 
Q 1219 1581 811 2004 
Q 403 2428 403 3163 
Q 403 3881 828 4315 
Q 1253 4750 1959 4750 
Q 2769 4750 3195 4129 
Q 3622 3509 3622 2328 
Q 3622 1225 3098 567 
Q 2575 -91 1691 -91 
Q 1453 -91 1209 -44 
Q 966 3 703 97 
z
M 1959 2075 
Q 2384 2075 2632 2365 
Q 2881 2656 2881 3163 
Q 2881 3666 2632 3958 
Q 2384 4250 1959 4250 
Q 1534 4250 1286 3958 
Q 1038 3666 1038 3163 
Q 1038 2656 1286 2365 
Q 1534 2075 1959 2075 
z
" transform="scale(0.015625)"/>
       </defs>
       <use xlink:href="#DejaVuSans-78"/>
       <use xlink:href="#DejaVuSans-32" x="59.179688"/>
       <use xlink:href="#DejaVuSans-35" x="122.802734"/>
       <use xlink:href="#DejaVuSans-35" x="186.425781"/>
       <use xlink:href="#DejaVuSans-31" x="250.048828"/>
       <use xlink:href="#DejaVuSans-39" x="313.671875"/>
      </g>
     </g>
    </g>
    <g id="xtick_3">
     <g id="text_3">
      <!-- hqc128 -->
      <g style="fill: #262626" transform="translate(407.321845 403.300313) rotate(-15) scale(0.12 -0.12)">
       <defs>
        <path id="DejaVuSans-68" d="M 3513 2113 
L 3513 0 
L 2938 0 
L 2938 2094 
Q 2938 2591 2744 2837 
Q 2550 3084 2163 3084 
Q 1697 3084 1428 2787 
Q 1159 2491 1159 1978 
L 1159 0 
L 581 0 
L 581 4863 
L 1159 4863 
L 1159 2956 
Q 1366 3272 1645 3428 
Q 1925 3584 2291 3584 
Q 2894 3584 3203 3211 
Q 3513 2838 3513 2113 
z
" transform="scale(0.015625)"/>
        <path id="DejaVuSans-71" d="M 947 1747 
Q 947 1113 1208 752 
Q 1469 391 1925 391 
Q 2381 391 2643 752 
Q 2906 1113 2906 1747 
Q 2906 2381 2643 2742 
Q 2381 3103 1925 3103 
Q 1469 3103 1208 2742 
Q 947 2381 947 1747 
z
M 2906 525 
Q 2725 213 2448 61 
Q 2172 -91 1784 -91 
Q 1150 -91 751 415 
Q 353 922 353 1747 
Q 353 2572 751 3078 
Q 1150 3584 1784 3584 
Q 2172 3584 2448 3432 
Q 2725 3281 2906 2969 
L 2906 3500 
L 3481 3500 
L 3481 -1331 
L 2906 -1331 
L 2906 525 
z
" transform="scale(0.015625)"/>
        <path id="DejaVuSans-63" d="M 3122 3366 
L 3122 2828 
Q 2878 2963 2633 3030 
Q 2388 3097 2138 3097 
Q 1578 3097 1268 2742 
Q 959 2388 959 1747 
Q 959 1106 1268 751 
Q 1578 397 2138 397 
Q 2388 397 2633 464 
Q 2878 531 3122 666 
L 3122 134 
Q 2881 22 2623 -34 
Q 2366 -91 2075 -91 
Q 1284 -91 818 406 
Q 353 903 353 1747 
Q 353 2603 823 3093 
Q 1294 3584 2113 3584 
Q 2378 3584 2631 3529 
Q 2884 3475 3122 3366 
z
" transform="scale(0.015625)"/>
        <path id="DejaVuSans-38" d="M 2034 2216 
Q 1584 2216 1326 1975 
Q 1069 1734 1069 1313 
Q 1069 891 1326 650 
Q 1584 409 2034 409 
Q 2484 409 2743 651 
Q 3003 894 3003 1313 
Q 3003 1734 2745 1975 
Q 2488 2216 2034 2216 
z
M 1403 2484 
Q 997 2584 770 2862 
Q 544 3141 544 3541 
Q 544 4100 942 4425 
Q 1341 4750 2034 4750 
Q 2731 4750 3128 4425 
Q 3525 4100 3525 3541 
Q 3525 3141 3298 2862 
Q 3072 2584 2669 2484 
Q 3125 2378 3379 2068 
Q 3634 1759 3634 1313 
Q 3634 634 3220 271 
Q 2806 -91 2034 -91 
Q 1263 -91 848 271 
Q 434 634 434 1313 
Q 434 1759 690 2068 
Q 947 2378 1403 2484 
z
M 1172 3481 
Q 1172 3119 1398 2916 
Q 1625 2713 2034 2713 
Q 2441 2713 2670 2916 
Q 2900 3119 2900 3481 
Q 2900 3844 2670 4047 
Q 2441 4250 2034 4250 
Q 1625 4250 1398 4047 
Q 1172 3844 1172 3481 
z
" transform="scale(0.015625)"/>
       </defs>
       <use xlink:href="#DejaVuSans-68"/>
       <use xlink:href="#DejaVuSans-71" x="63.378906"/>
       <use xlink:href="#DejaVuSans-63" x="126.855469"/>
       <use xlink:href="#DejaVuSans-31" x="181.835938"/>
       <use xlink:href="#DejaVuSans-32" x="245.458984"/>
       <use xlink:href="#DejaVuSans-38" x="309.082031"/>
      </g>
     </g>
    </g>
    <g id="xtick_4">
     <g id="text_4">
      <!-- p256_hqc128 -->
      <g style="fill: #262626" transform="translate(531.904834 412.753193) rotate(-15) scale(0.12 -0.12)">
       <defs>
        <path id="DejaVuSans-70" d="M 1159 525 
L 1159 -1331 
L 581 -1331 
L 581 3500 
L 1159 3500 
L 1159 2969 
Q 1341 3281 1617 3432 
Q 1894 3584 2278 3584 
Q 2916 3584 3314 3078 
Q 3713 2572 3713 1747 
Q 3713 922 3314 415 
Q 2916 -91 2278 -91 
Q 1894 -91 1617 61 
Q 1341 213 1159 525 
z
M 3116 1747 
Q 3116 2381 2855 2742 
Q 2594 3103 2138 3103 
Q 1681 3103 1420 2742 
Q 1159 2381 1159 1747 
Q 1159 1113 1420 752 
Q 1681 391 2138 391 
Q 2594 391 2855 752 
Q 3116 1113 3116 1747 
z
" transform="scale(0.015625)"/>
        <path id="DejaVuSans-5f" d="M 3263 -1063 
L 3263 -1509 
L -63 -1509 
L -63 -1063 
L 3263 -1063 
z
" transform="scale(0.015625)"/>
       </defs>
       <use xlink:href="#DejaVuSans-70"/>
       <use xlink:href="#DejaVuSans-32" x="63.476562"/>
       <use xlink:href="#DejaVuSans-35" x="127.099609"/>
       <use xlink:href="#DejaVuSans-36" x="190.722656"/>
       <use xlink:href="#DejaVuSans-5f" x="254.345703"/>
       <use xlink:href="#DejaVuSans-68" x="304.345703"/>
       <use xlink:href="#DejaVuSans-71" x="367.724609"/>
       <use xlink:href="#DejaVuSans-63" x="431.201172"/>
       <use xlink:href="#DejaVuSans-31" x="486.181641"/>
       <use xlink:href="#DejaVuSans-32" x="549.804688"/>
       <use xlink:href="#DejaVuSans-38" x="613.427734"/>
      </g>
     </g>
    </g>
    <g id="xtick_5">
     <g id="text_5">
      <!-- x25519_hqc128 -->
      <g style="fill: #262626" transform="translate(677.601202 416.571906) rotate(-15) scale(0.12 -0.12)">
       <use xlink:href="#DejaVuSans-78"/>
       <use xlink:href="#DejaVuSans-32" x="59.179688"/>
       <use xlink:href="#DejaVuSans-35" x="122.802734"/>
       <use xlink:href="#DejaVuSans-35" x="186.425781"/>
       <use xlink:href="#DejaVuSans-31" x="250.048828"/>
       <use xlink:href="#DejaVuSans-39" x="313.671875"/>
       <use xlink:href="#DejaVuSans-5f" x="377.294922"/>
       <use xlink:href="#DejaVuSans-68" x="427.294922"/>
       <use xlink:href="#DejaVuSans-71" x="490.673828"/>
       <use xlink:href="#DejaVuSans-63" x="554.150391"/>
       <use xlink:href="#DejaVuSans-31" x="609.130859"/>
       <use xlink:href="#DejaVuSans-32" x="672.753906"/>
       <use xlink:href="#DejaVuSans-38" x="736.376953"/>
      </g>
     </g>
    </g>
   </g>
   <g id="matplotlib.axis_2">
    <g id="ytick_1">
     <g id="line2d_1">
      <path d="M 51.3 360.055697 
L 851.04 360.055697 
" clip-path="url(#p628638595b)" style="fill: none; stroke: #cccccc; stroke-linecap: round"/>
     </g>
     <g id="text_6">
      <!-- 0 -->
      <g style="fill: #262626" transform="translate(34.80125 364.234838) scale(0.11 -0.11)">
       <defs>
        <path id="DejaVuSans-30" d="M 2034 4250 
Q 1547 4250 1301 3770 
Q 1056 3291 1056 2328 
Q 1056 1369 1301 889 
Q 1547 409 2034 409 
Q 2525 409 2770 889 
Q 3016 1369 3016 2328 
Q 3016 3291 2770 3770 
Q 2525 4250 2034 4250 
z
M 2034 4750 
Q 2819 4750 3233 4129 
Q 3647 3509 3647 2328 
Q 3647 1150 3233 529 
Q 2819 -91 2034 -91 
Q 1250 -91 836 529 
Q 422 1150 422 2328 
Q 422 3509 836 4129 
Q 1250 4750 2034 4750 
z
" transform="scale(0.015625)"/>
       </defs>
       <use xlink:href="#DejaVuSans-30"/>
      </g>
     </g>
    </g>
    <g id="ytick_2">
     <g id="line2d_2">
      <path d="M 51.3 300.456422 
L 851.04 300.456422 
" clip-path="url(#p628638595b)" style="fill: none; stroke: #cccccc; stroke-linecap: round"/>
     </g>
     <g id="text_7">
      <!-- 10 -->
      <g style="fill: #262626" transform="translate(27.8025 304.635562) scale(0.11 -0.11)">
       <use xlink:href="#DejaVuSans-31"/>
       <use xlink:href="#DejaVuSans-30" x="63.623047"/>
      </g>
     </g>
    </g>
    <g id="ytick_3">
     <g id="line2d_3">
      <path d="M 51.3 240.857147 
L 851.04 240.857147 
" clip-path="url(#p628638595b)" style="fill: none; stroke: #cccccc; stroke-linecap: round"/>
     </g>
     <g id="text_8">
      <!-- 20 -->
      <g style="fill: #262626" transform="translate(27.8025 245.036287) scale(0.11 -0.11)">
       <use xlink:href="#DejaVuSans-32"/>
       <use xlink:href="#DejaVuSans-30" x="63.623047"/>
      </g>
     </g>
    </g>
    <g id="ytick_4">
     <g id="line2d_4">
      <path d="M 51.3 181.257872 
L 851.04 181.257872 
" clip-path="url(#p628638595b)" style="fill: none; stroke: #cccccc; stroke-linecap: round"/>
     </g>
     <g id="text_9">
      <!-- 30 -->
      <g style="fill: #262626" transform="translate(27.8025 185.437012) scale(0.11 -0.11)">
       <defs>
        <path id="DejaVuSans-33" d="M 2597 2516 
Q 3050 2419 3304 2112 
Q 3559 1806 3559 1356 
Q 3559 666 3084 287 
Q 2609 -91 1734 -91 
Q 1441 -91 1130 -33 
Q 819 25 488 141 
L 488 750 
Q 750 597 1062 519 
Q 1375 441 1716 441 
Q 2309 441 2620 675 
Q 2931 909 2931 1356 
Q 2931 1769 2642 2001 
Q 2353 2234 1838 2234 
L 1294 2234 
L 1294 2753 
L 1863 2753 
Q 2328 2753 2575 2939 
Q 2822 3125 2822 3475 
Q 2822 3834 2567 4026 
Q 2313 4219 1838 4219 
Q 1578 4219 1281 4162 
Q 984 4106 628 3988 
L 628 4550 
Q 988 4650 1302 4700 
Q 1616 4750 1894 4750 
Q 2613 4750 3031 4423 
Q 3450 4097 3450 3541 
Q 3450 3153 3228 2886 
Q 3006 2619 2597 2516 
z
" transform="scale(0.015625)"/>
       </defs>
       <use xlink:href="#DejaVuSans-33"/>
       <use xlink:href="#DejaVuSans-30" x="63.623047"/>
      </g>
     </g>
    </g>
    <g id="ytick_5">
     <g id="line2d_5">
      <path d="M 51.3 121.658596 
L 851.04 121.658596 
" clip-path="url(#p628638595b)" style="fill: none; stroke: #cccccc; stroke-linecap: round"/>
     </g>
     <g id="text_10">
      <!-- 40 -->
      <g style="fill: #262626" transform="translate(27.8025 125.837737) scale(0.11 -0.11)">
       <defs>
        <path id="DejaVuSans-34" d="M 2419 4116 
L 825 1625 
L 2419 1625 
L 2419 4116 
z
M 2253 4666 
L 3047 4666 
L 3047 1625 
L 3713 1625 
L 3713 1100 
L 3047 1100 
L 3047 0 
L 2419 0 
L 2419 1100 
L 313 1100 
L 313 1709 
L 2253 4666 
z
" transform="scale(0.015625)"/>
       </defs>
       <use xlink:href="#DejaVuSans-34"/>
       <use xlink:href="#DejaVuSans-30" x="63.623047"/>
      </g>
     </g>
    </g>
    <g id="ytick_6">
     <g id="line2d_6">
      <path d="M 51.3 62.059321 
L 851.04 62.059321 
" clip-path="url(#p628638595b)" style="fill: none; stroke: #cccccc; stroke-linecap: round"/>
     </g>
     <g id="text_11">
      <!-- 50 -->
      <g style="fill: #262626" transform="translate(27.8025 66.238462) scale(0.11 -0.11)">
       <use xlink:href="#DejaVuSans-35"/>
       <use xlink:href="#DejaVuSans-30" x="63.623047"/>
      </g>
     </g>
    </g>
    <g id="text_12">
     <!-- Handshake duration (ms) -->
     <g style="fill: #262626" transform="translate(21.306875 276.57625) rotate(-90) scale(0.12 -0.12)">
      <defs>
       <path id="DejaVuSans-48" d="M 628 4666 
L 1259 4666 
L 1259 2753 
L 3553 2753 
L 3553 4666 
L 4184 4666 
L 4184 0 
L 3553 0 
L 3553 2222 
L 1259 2222 
L 1259 0 
L 628 0 
L 628 4666 
z
" transform="scale(0.015625)"/>
       <path id="DejaVuSans-61" d="M 2194 1759 
Q 1497 1759 1228 1600 
Q 959 1441 959 1056 
Q 959 750 1161 570 
Q 1363 391 1709 391 
Q 2188 391 2477 730 
Q 2766 1069 2766 1631 
L 2766 1759 
L 2194 1759 
z
M 3341 1997 
L 3341 0 
L 2766 0 
L 2766 531 
Q 2569 213 2275 61 
Q 1981 -91 1556 -91 
Q 1019 -91 701 211 
Q 384 513 384 1019 
Q 384 1609 779 1909 
Q 1175 2209 1959 2209 
L 2766 2209 
L 2766 2266 
Q 2766 2663 2505 2880 
Q 2244 3097 1772 3097 
Q 1472 3097 1187 3025 
Q 903 2953 641 2809 
L 641 3341 
Q 956 3463 1253 3523 
Q 1550 3584 1831 3584 
Q 2591 3584 2966 3190 
Q 3341 2797 3341 1997 
z
" transform="scale(0.015625)"/>
       <path id="DejaVuSans-6e" d="M 3513 2113 
L 3513 0 
L 2938 0 
L 2938 2094 
Q 2938 2591 2744 2837 
Q 2550 3084 2163 3084 
Q 1697 3084 1428 2787 
Q 1159 2491 1159 1978 
L 1159 0 
L 581 0 
L 581 3500 
L 1159 3500 
L 1159 2956 
Q 1366 3272 1645 3428 
Q 1925 3584 2291 3584 
Q 2894 3584 3203 3211 
Q 3513 2838 3513 2113 
z
" transform="scale(0.015625)"/>
       <path id="DejaVuSans-64" d="M 2906 2969 
L 2906 4863 
L 3481 4863 
L 3481 0 
L 2906 0 
L 2906 525 
Q 2725 213 2448 61 
Q 2172 -91 1784 -91 
Q 1150 -91 751 415 
Q 353 922 353 1747 
Q 353 2572 751 3078 
Q 1150 3584 1784 3584 
Q 2172 3584 2448 3432 
Q 2725 3281 2906 2969 
z
M 947 1747 
Q 947 1113 1208 752 
Q 1469 391 1925 391 
Q 2381 391 2643 752 
Q 2906 1113 2906 1747 
Q 2906 2381 2643 2742 
Q 2381 3103 1925 3103 
Q 1469 3103 1208 2742 
Q 947 2381 947 1747 
z
" transform="scale(0.015625)"/>
       <path id="DejaVuSans-73" d="M 2834 3397 
L 2834 2853 
Q 2591 2978 2328 3040 
Q 2066 3103 1784 3103 
Q 1356 3103 1142 2972 
Q 928 2841 928 2578 
Q 928 2378 1081 2264 
Q 1234 2150 1697 2047 
L 1894 2003 
Q 2506 1872 2764 1633 
Q 3022 1394 3022 966 
Q 3022 478 2636 193 
Q 2250 -91 1575 -91 
Q 1294 -91 989 -36 
Q 684 19 347 128 
L 347 722 
Q 666 556 975 473 
Q 1284 391 1588 391 
Q 1994 391 2212 530 
Q 2431 669 2431 922 
Q 2431 1156 2273 1281 
Q 2116 1406 1581 1522 
L 1381 1569 
Q 847 1681 609 1914 
Q 372 2147 372 2553 
Q 372 3047 722 3315 
Q 1072 3584 1716 3584 
Q 2034 3584 2315 3537 
Q 2597 3491 2834 3397 
z
" transform="scale(0.015625)"/>
       <path id="DejaVuSans-6b" d="M 581 4863 
L 1159 4863 
L 1159 1991 
L 2875 3500 
L 3609 3500 
L 1753 1863 
L 3688 0 
L 2938 0 
L 1159 1709 
L 1159 0 
L 581 0 
L 581 4863 
z
" transform="scale(0.015625)"/>
       <path id="DejaVuSans-65" d="M 3597 1894 
L 3597 1613 
L 953 1613 
Q 991 1019 1311 708 
Q 1631 397 2203 397 
Q 2534 397 2845 478 
Q 3156 559 3463 722 
L 3463 178 
Q 3153 47 2828 -22 
Q 2503 -91 2169 -91 
Q 1331 -91 842 396 
Q 353 884 353 1716 
Q 353 2575 817 3079 
Q 1281 3584 2069 3584 
Q 2775 3584 3186 3129 
Q 3597 2675 3597 1894 
z
M 3022 2063 
Q 3016 2534 2758 2815 
Q 2500 3097 2075 3097 
Q 1594 3097 1305 2825 
Q 1016 2553 972 2059 
L 3022 2063 
z
" transform="scale(0.015625)"/>
       <path id="DejaVuSans-20" transform="scale(0.015625)"/>
       <path id="DejaVuSans-75" d="M 544 1381 
L 544 3500 
L 1119 3500 
L 1119 1403 
Q 1119 906 1312 657 
Q 1506 409 1894 409 
Q 2359 409 2629 706 
Q 2900 1003 2900 1516 
L 2900 3500 
L 3475 3500 
L 3475 0 
L 2900 0 
L 2900 538 
Q 2691 219 2414 64 
Q 2138 -91 1772 -91 
Q 1169 -91 856 284 
Q 544 659 544 1381 
z
M 1991 3584 
L 1991 3584 
z
" transform="scale(0.015625)"/>
       <path id="DejaVuSans-72" d="M 2631 2963 
Q 2534 3019 2420 3045 
Q 2306 3072 2169 3072 
Q 1681 3072 1420 2755 
Q 1159 2438 1159 1844 
L 1159 0 
L 581 0 
L 581 3500 
L 1159 3500 
L 1159 2956 
Q 1341 3275 1631 3429 
Q 1922 3584 2338 3584 
Q 2397 3584 2469 3576 
Q 2541 3569 2628 3553 
L 2631 2963 
z
" transform="scale(0.015625)"/>
       <path id="DejaVuSans-74" d="M 1172 4494 
L 1172 3500 
L 2356 3500 
L 2356 3053 
L 1172 3053 
L 1172 1153 
Q 1172 725 1289 603 
Q 1406 481 1766 481 
L 2356 481 
L 2356 0 
L 1766 0 
Q 1100 0 847 248 
Q 594 497 594 1153 
L 594 3053 
L 172 3053 
L 172 3500 
L 594 3500 
L 594 4494 
L 1172 4494 
z
" transform="scale(0.015625)"/>
       <path id="DejaVuSans-69" d="M 603 3500 
L 1178 3500 
L 1178 0 
L 603 0 
L 603 3500 
z
M 603 4863 
L 1178 4863 
L 1178 4134 
L 603 4134 
L 603 4863 
z
" transform="scale(0.015625)"/>
       <path id="DejaVuSans-6f" d="M 1959 3097 
Q 1497 3097 1228 2736 
Q 959 2375 959 1747 
Q 959 1119 1226 758 
Q 1494 397 1959 397 
Q 2419 397 2687 759 
Q 2956 1122 2956 1747 
Q 2956 2369 2687 2733 
Q 2419 3097 1959 3097 
z
M 1959 3584 
Q 2709 3584 3137 3096 
Q 3566 2609 3566 1747 
Q 3566 888 3137 398 
Q 2709 -91 1959 -91 
Q 1206 -91 779 398 
Q 353 888 353 1747 
Q 353 2609 779 3096 
Q 1206 3584 1959 3584 
z
" transform="scale(0.015625)"/>
       <path id="DejaVuSans-28" d="M 1984 4856 
Q 1566 4138 1362 3434 
Q 1159 2731 1159 2009 
Q 1159 1288 1364 580 
Q 1569 -128 1984 -844 
L 1484 -844 
Q 1016 -109 783 600 
Q 550 1309 550 2009 
Q 550 2706 781 3412 
Q 1013 4119 1484 4856 
L 1984 4856 
z
" transform="scale(0.015625)"/>
       <path id="DejaVuSans-6d" d="M 3328 2828 
Q 3544 3216 3844 3400 
Q 4144 3584 4550 3584 
Q 5097 3584 5394 3201 
Q 5691 2819 5691 2113 
L 5691 0 
L 5113 0 
L 5113 2094 
Q 5113 2597 4934 2840 
Q 4756 3084 4391 3084 
Q 3944 3084 3684 2787 
Q 3425 2491 3425 1978 
L 3425 0 
L 2847 0 
L 2847 2094 
Q 2847 2600 2669 2842 
Q 2491 3084 2119 3084 
Q 1678 3084 1418 2786 
Q 1159 2488 1159 1978 
L 1159 0 
L 581 0 
L 581 3500 
L 1159 3500 
L 1159 2956 
Q 1356 3278 1631 3431 
Q 1906 3584 2284 3584 
Q 2666 3584 2933 3390 
Q 3200 3197 3328 2828 
z
" transform="scale(0.015625)"/>
       <path id="DejaVuSans-29" d="M 513 4856 
L 1013 4856 
Q 1481 4119 1714 3412 
Q 1947 2706 1947 2009 
Q 1947 1309 1714 600 
Q 1481 -109 1013 -844 
L 513 -844 
Q 928 -128 1133 580 
Q 1338 1288 1338 2009 
Q 1338 2731 1133 3434 
Q 928 4138 513 4856 
z
" transform="scale(0.015625)"/>
      </defs>
      <use xlink:href="#DejaVuSans-48"/>
      <use xlink:href="#DejaVuSans-61" x="75.195312"/>
      <use xlink:href="#DejaVuSans-6e" x="136.474609"/>
      <use xlink:href="#DejaVuSans-64" x="199.853516"/>
      <use xlink:href="#DejaVuSans-73" x="263.330078"/>
      <use xlink:href="#DejaVuSans-68" x="315.429688"/>
      <use xlink:href="#DejaVuSans-61" x="378.808594"/>
      <use xlink:href="#DejaVuSans-6b" x="440.087891"/>
      <use xlink:href="#DejaVuSans-65" x="494.373047"/>
      <use xlink:href="#DejaVuSans-20" x="555.896484"/>
      <use xlink:href="#DejaVuSans-64" x="587.683594"/>
      <use xlink:href="#DejaVuSans-75" x="651.160156"/>
      <use xlink:href="#DejaVuSans-72" x="714.539062"/>
      <use xlink:href="#DejaVuSans-61" x="755.652344"/>
      <use xlink:href="#DejaVuSans-74" x="816.931641"/>
      <use xlink:href="#DejaVuSans-69" x="856.140625"/>
      <use xlink:href="#DejaVuSans-6f" x="883.923828"/>
      <use xlink:href="#DejaVuSans-6e" x="945.105469"/>
      <use xlink:href="#DejaVuSans-20" x="1008.484375"/>
      <use xlink:href="#DejaVuSans-28" x="1040.271484"/>
      <use xlink:href="#DejaVuSans-6d" x="1079.285156"/>
      <use xlink:href="#DejaVuSans-73" x="1176.697266"/>
      <use xlink:href="#DejaVuSans-29" x="1228.796875"/>
     </g>
    </g>
   </g>
   <g id="PolyCollection_1">
    <defs>
     <path id="m8b1759aa2a" d="M 135.135004 -74.302074 
L 127.412996 -74.302074 
L 113.676046 -77.477619 
L 86.713442 -80.653164 
L 67.2948 -83.82871 
L 77.723181 -87.004255 
L 104.325391 -90.1798 
L 122.921763 -93.355345 
L 129.667412 -96.530891 
L 131.08386 -99.706436 
L 131.260382 -102.881981 
L 131.27342 -106.057526 
L 131.273986 -109.233071 
L 131.274 -112.408617 
L 131.274 -115.584162 
L 131.274 -118.759707 
L 131.274 -121.935252 
L 131.274 -125.110798 
L 131.274 -128.286343 
L 131.274 -131.461888 
L 131.274 -134.637433 
L 131.274 -137.812978 
L 131.274 -140.988524 
L 131.274 -144.164069 
L 131.274 -147.339614 
L 131.274 -150.515159 
L 131.274 -153.690705 
L 131.274 -156.86625 
L 131.274 -160.041795 
L 131.274 -163.21734 
L 131.274 -166.392885 
L 131.274 -169.568431 
L 131.274 -172.743976 
L 131.274 -175.919521 
L 131.274 -179.095066 
L 131.274 -182.270612 
L 131.274 -185.446157 
L 131.274 -188.621702 
L 131.274 -191.797247 
L 131.274 -194.972792 
L 131.274 -198.148338 
L 131.274 -201.323883 
L 131.274 -204.499428 
L 131.274 -207.674973 
L 131.274 -210.850519 
L 131.274 -214.026064 
L 131.274 -217.201609 
L 131.274 -220.377154 
L 131.274 -223.552699 
L 131.274 -226.728245 
L 131.274 -229.90379 
L 131.274 -233.079335 
L 131.274 -236.25488 
L 131.274 -239.430426 
L 131.274 -242.605971 
L 131.274 -245.781516 
L 131.274 -248.957061 
L 131.274 -252.132606 
L 131.274 -255.308152 
L 131.274 -258.483697 
L 131.274 -261.659242 
L 131.274 -264.834787 
L 131.274 -268.010333 
L 131.274 -271.185878 
L 131.274 -274.361423 
L 131.274 -277.536968 
L 131.274 -280.712514 
L 131.274 -283.888059 
L 131.274 -287.063604 
L 131.274 -290.239149 
L 131.274 -293.414694 
L 131.274 -296.59024 
L 131.274 -299.765785 
L 131.274 -302.94133 
L 131.274 -306.116875 
L 131.274 -309.292421 
L 131.274 -312.467966 
L 131.274 -315.643511 
L 131.274 -318.819056 
L 131.274 -321.994601 
L 131.274 -325.170147 
L 131.274 -328.345692 
L 131.274 -331.521237 
L 131.274 -334.696782 
L 131.274 -337.872328 
L 131.274 -341.047873 
L 131.274 -344.223418 
L 131.274 -347.398963 
L 131.274 -350.574508 
L 131.274 -353.750054 
L 131.274 -356.925599 
L 131.274 -360.101144 
L 131.273989 -363.276689 
L 131.273742 -366.452235 
L 131.270857 -369.62778 
L 131.2536 -372.803325 
L 131.203362 -375.97887 
L 131.143511 -379.154415 
L 131.145399 -382.329961 
L 131.206383 -385.505506 
L 131.255033 -388.681051 
L 131.292967 -388.681051 
L 131.292967 -388.681051 
L 131.341617 -385.505506 
L 131.402601 -382.329961 
L 131.404489 -379.154415 
L 131.344638 -375.97887 
L 131.2944 -372.803325 
L 131.277143 -369.62778 
L 131.274258 -366.452235 
L 131.274011 -363.276689 
L 131.274 -360.101144 
L 131.274 -356.925599 
L 131.274 -353.750054 
L 131.274 -350.574508 
L 131.274 -347.398963 
L 131.274 -344.223418 
L 131.274 -341.047873 
L 131.274 -337.872328 
L 131.274 -334.696782 
L 131.274 -331.521237 
L 131.274 -328.345692 
L 131.274 -325.170147 
L 131.274 -321.994601 
L 131.274 -318.819056 
L 131.274 -315.643511 
L 131.274 -312.467966 
L 131.274 -309.292421 
L 131.274 -306.116875 
L 131.274 -302.94133 
L 131.274 -299.765785 
L 131.274 -296.59024 
L 131.274 -293.414694 
L 131.274 -290.239149 
L 131.274 -287.063604 
L 131.274 -283.888059 
L 131.274 -280.712514 
L 131.274 -277.536968 
L 131.274 -274.361423 
L 131.274 -271.185878 
L 131.274 -268.010333 
L 131.274 -264.834787 
L 131.274 -261.659242 
L 131.274 -258.483697 
L 131.274 -255.308152 
L 131.274 -252.132606 
L 131.274 -248.957061 
L 131.274 -245.781516 
L 131.274 -242.605971 
L 131.274 -239.430426 
L 131.274 -236.25488 
L 131.274 -233.079335 
L 131.274 -229.90379 
L 131.274 -226.728245 
L 131.274 -223.552699 
L 131.274 -220.377154 
L 131.274 -217.201609 
L 131.274 -214.026064 
L 131.274 -210.850519 
L 131.274 -207.674973 
L 131.274 -204.499428 
L 131.274 -201.323883 
L 131.274 -198.148338 
L 131.274 -194.972792 
L 131.274 -191.797247 
L 131.274 -188.621702 
L 131.274 -185.446157 
L 131.274 -182.270612 
L 131.274 -179.095066 
L 131.274 -175.919521 
L 131.274 -172.743976 
L 131.274 -169.568431 
L 131.274 -166.392885 
L 131.274 -163.21734 
L 131.274 -160.041795 
L 131.274 -156.86625 
L 131.274 -153.690705 
L 131.274 -150.515159 
L 131.274 -147.339614 
L 131.274 -144.164069 
L 131.274 -140.988524 
L 131.274 -137.812978 
L 131.274 -134.637433 
L 131.274 -131.461888 
L 131.274 -128.286343 
L 131.274 -125.110798 
L 131.274 -121.935252 
L 131.274 -118.759707 
L 131.274 -115.584162 
L 131.274 -112.408617 
L 131.274014 -109.233071 
L 131.27458 -106.057526 
L 131.287618 -102.881981 
L 131.46414 -99.706436 
L 132.880588 -96.530891 
L 139.626237 -93.355345 
L 158.222609 -90.1798 
L 184.824819 -87.004255 
L 195.2532 -83.82871 
L 175.834558 -80.653164 
L 148.871954 -77.477619 
L 135.135004 -74.302074 
z
" style="stroke: #595959; stroke-width: 1.25"/>
    </defs>
    <g clip-path="url(#p628638595b)">
     <use xlink:href="#m8b1759aa2a" x="0" y="432" style="fill: #72b6a1; stroke: #595959; stroke-width: 1.25"/>
    </g>
   </g>
   <g id="PolyCollection_2">
    <defs>
     <path id="mdd80878dde" d="M 292.013872 -80.275362 
L 290.430128 -80.275362 
L 289.820068 -80.385188 
L 288.840897 -80.495013 
L 287.340138 -80.604839 
L 285.144601 -80.714665 
L 282.081143 -80.824491 
L 278.009207 -80.934316 
L 272.862403 -81.044142 
L 266.69197 -81.153968 
L 259.701001 -81.263794 
L 252.256583 -81.373619 
L 244.869251 -81.483445 
L 238.136094 -81.593271 
L 232.654031 -81.703096 
L 228.920191 -81.812922 
L 227.2428 -81.922748 
L 227.685386 -82.032574 
L 230.058987 -82.142399 
L 233.96384 -82.252225 
L 238.868621 -82.362051 
L 244.206355 -82.471877 
L 249.464261 -82.581702 
L 254.249672 -82.691528 
L 258.3229 -82.801354 
L 261.597049 -82.91118 
L 264.11147 -83.021005 
L 265.98912 -83.130831 
L 267.388721 -83.240657 
L 268.461524 -83.350482 
L 269.320226 -83.460308 
L 270.024612 -83.570134 
L 270.584816 -83.67996 
L 270.97916 -83.789785 
L 271.180157 -83.899611 
L 271.180357 -84.009437 
L 271.010093 -84.119263 
L 270.741813 -84.229088 
L 270.479984 -84.338914 
L 270.340039 -84.44874 
L 270.423261 -84.558565 
L 270.795424 -84.668391 
L 271.475409 -84.778217 
L 272.43627 -84.888043 
L 273.616976 -84.997868 
L 274.939774 -85.107694 
L 276.327108 -85.21752 
L 277.713324 -85.327346 
L 279.049272 -85.437171 
L 280.300933 -85.546997 
L 281.445123 -85.656823 
L 282.465518 -85.766648 
L 283.351057 -85.876474 
L 284.096936 -85.9863 
L 284.706928 -86.096126 
L 285.195147 -86.205951 
L 285.585757 -86.315777 
L 285.910083 -86.425603 
L 286.201614 -86.535429 
L 286.490193 -86.645254 
L 286.796881 -86.75508 
L 287.130781 -86.864906 
L 287.488528 -86.974731 
L 287.856461 -87.084557 
L 288.214805 -87.194383 
L 288.542777 -87.304209 
L 288.823337 -87.414034 
L 289.046548 -87.52386 
L 289.210941 -87.633686 
L 289.322885 -87.743512 
L 289.394457 -87.853337 
L 289.440603 -87.963163 
L 289.476378 -88.072989 
L 289.514805 -88.182814 
L 289.56558 -88.29264 
L 289.634553 -88.402466 
L 289.723748 -88.512292 
L 289.831703 -88.622117 
L 289.953996 -88.731943 
L 290.083953 -88.841769 
L 290.213585 -88.951595 
L 290.334743 -89.06142 
L 290.440396 -89.171246 
L 290.525805 -89.281072 
L 290.589319 -89.390898 
L 290.63258 -89.500723 
L 290.660068 -89.610549 
L 290.678106 -89.720375 
L 290.693561 -89.8302 
L 290.712565 -89.940026 
L 290.739502 -90.049852 
L 290.776445 -90.159678 
L 290.823092 -90.269503 
L 290.877143 -90.379329 
L 290.934998 -90.489155 
L 290.992598 -90.598981 
L 291.046224 -90.708806 
L 291.093084 -90.818632 
L 291.131621 -90.928458 
L 291.161499 -91.038283 
L 291.183364 -91.148109 
L 291.260636 -91.148109 
L 291.260636 -91.148109 
L 291.282501 -91.038283 
L 291.312379 -90.928458 
L 291.350916 -90.818632 
L 291.397776 -90.708806 
L 291.451402 -90.598981 
L 291.509002 -90.489155 
L 291.566857 -90.379329 
L 291.620908 -90.269503 
L 291.667555 -90.159678 
L 291.704498 -90.049852 
L 291.731435 -89.940026 
L 291.750439 -89.8302 
L 291.765894 -89.720375 
L 291.783932 -89.610549 
L 291.81142 -89.500723 
L 291.854681 -89.390898 
L 291.918195 -89.281072 
L 292.003604 -89.171246 
L 292.109257 -89.06142 
L 292.230415 -88.951595 
L 292.360047 -88.841769 
L 292.490004 -88.731943 
L 292.612297 -88.622117 
L 292.720252 -88.512292 
L 292.809447 -88.402466 
L 292.87842 -88.29264 
L 292.929195 -88.182814 
L 292.967622 -88.072989 
L 293.003397 -87.963163 
L 293.049543 -87.853337 
L 293.121115 -87.743512 
L 293.233059 -87.633686 
L 293.397452 -87.52386 
L 293.620663 -87.414034 
L 293.901223 -87.304209 
L 294.229195 -87.194383 
L 294.587539 -87.084557 
L 294.955472 -86.974731 
L 295.313219 -86.864906 
L 295.647119 -86.75508 
L 295.953807 -86.645254 
L 296.242386 -86.535429 
L 296.533917 -86.425603 
L 296.858243 -86.315777 
L 297.248853 -86.205951 
L 297.737072 -86.096126 
L 298.347064 -85.9863 
L 299.092943 -85.876474 
L 299.978482 -85.766648 
L 300.998877 -85.656823 
L 302.143067 -85.546997 
L 303.394728 -85.437171 
L 304.730676 -85.327346 
L 306.116892 -85.21752 
L 307.504226 -85.107694 
L 308.827024 -84.997868 
L 310.00773 -84.888043 
L 310.968591 -84.778217 
L 311.648576 -84.668391 
L 312.020739 -84.558565 
L 312.103961 -84.44874 
L 311.964016 -84.338914 
L 311.702187 -84.229088 
L 311.433907 -84.119263 
L 311.263643 -84.009437 
L 311.263843 -83.899611 
L 311.46484 -83.789785 
L 311.859184 -83.67996 
L 312.419388 -83.570134 
L 313.123774 -83.460308 
L 313.982476 -83.350482 
L 315.055279 -83.240657 
L 316.45488 -83.130831 
L 318.33253 -83.021005 
L 320.846951 -82.91118 
L 324.1211 -82.801354 
L 328.194328 -82.691528 
L 332.979739 -82.581702 
L 338.237645 -82.471877 
L 343.575379 -82.362051 
L 348.48016 -82.252225 
L 352.385013 -82.142399 
L 354.758614 -82.032574 
L 355.2012 -81.922748 
L 353.523809 -81.812922 
L 349.789969 -81.703096 
L 344.307906 -81.593271 
L 337.574749 -81.483445 
L 330.187417 -81.373619 
L 322.742999 -81.263794 
L 315.75203 -81.153968 
L 309.581597 -81.044142 
L 304.434793 -80.934316 
L 300.362857 -80.824491 
L 297.299399 -80.714665 
L 295.103862 -80.604839 
L 293.603103 -80.495013 
L 292.623932 -80.385188 
L 292.013872 -80.275362 
z
" style="stroke: #595959; stroke-width: 1.25"/>
    </defs>
    <g clip-path="url(#p628638595b)">
     <use xlink:href="#mdd80878dde" x="0" y="432" style="fill: #e99675; stroke: #595959; stroke-width: 1.25"/>
    </g>
   </g>
   <g id="PolyCollection_3">
    <defs>
     <path id="m07e117b85d" d="M 453.158776 -157.763686 
L 449.181224 -157.763686 
L 448.212906 -158.443431 
L 446.878463 -159.123175 
L 445.090869 -159.80292 
L 442.764498 -160.482665 
L 439.825315 -161.162409 
L 436.223429 -161.842154 
L 431.946797 -162.521899 
L 427.034236 -163.201644 
L 421.585435 -163.881388 
L 415.765524 -164.561133 
L 409.802163 -165.240878 
L 403.973954 -165.920623 
L 398.590343 -166.600367 
L 393.964677 -167.280112 
L 390.38354 -167.959857 
L 388.076513 -168.639602 
L 387.1908 -169.319346 
L 387.774649 -169.999091 
L 389.772197 -170.678836 
L 393.030553 -171.35858 
L 397.317925 -172.038325 
L 402.349873 -172.71807 
L 407.81963 -173.397815 
L 413.428081 -174.077559 
L 418.909462 -174.757304 
L 424.049909 -175.437049 
L 428.697473 -176.116794 
L 432.763675 -176.796538 
L 436.217903 -177.476283 
L 439.07678 -178.156028 
L 441.390897 -178.835772 
L 443.231173 -179.515517 
L 444.676621 -180.195262 
L 445.804646 -180.875007 
L 446.68436 -181.554751 
L 447.372825 -182.234496 
L 447.913764 -182.914241 
L 448.338086 -183.593986 
L 448.66555 -184.27373 
L 448.906986 -184.953475 
L 449.066652 -185.63322 
L 449.144494 -186.312965 
L 449.138194 -186.992709 
L 449.045006 -187.672454 
L 448.863396 -188.352199 
L 448.594485 -189.031943 
L 448.243239 -189.711688 
L 447.819297 -190.391433 
L 447.337304 -191.071178 
L 446.816605 -191.750922 
L 446.28022 -192.430667 
L 445.75311 -193.110412 
L 445.259866 -193.790157 
L 444.822074 -194.469901 
L 444.455695 -195.149646 
L 444.16885 -195.829391 
L 443.960403 -196.509136 
L 443.819614 -197.18888 
L 443.727054 -197.868625 
L 443.656771 -198.54837 
L 443.579523 -199.228114 
L 443.466738 -199.907859 
L 443.294706 -200.587604 
L 443.048441 -201.267349 
L 442.724651 -201.947093 
L 442.333324 -202.626838 
L 441.897603 -203.306583 
L 441.451857 -203.986328 
L 441.03812 -204.666072 
L 440.701333 -205.345817 
L 440.484027 -206.025562 
L 440.421216 -206.705306 
L 440.53621 -207.385051 
L 440.837961 -208.064796 
L 441.320268 -208.744541 
L 441.962868 -209.424285 
L 442.73417 -210.10403 
L 443.595108 -210.783775 
L 444.503498 -211.46352 
L 445.418262 -212.143264 
L 446.302971 -212.823009 
L 447.128365 -213.502754 
L 447.873676 -214.182499 
L 448.526811 -214.862243 
L 449.083598 -215.541988 
L 449.546379 -216.221733 
L 449.922263 -216.901477 
L 450.221345 -217.581222 
L 450.455097 -218.260967 
L 450.635082 -218.940712 
L 450.772045 -219.620456 
L 450.875376 -220.300201 
L 450.95289 -220.979946 
L 451.010836 -221.659691 
L 451.054056 -222.339435 
L 451.086221 -223.01918 
L 451.110075 -223.698925 
L 451.127665 -224.378669 
L 451.140524 -225.058414 
L 451.199476 -225.058414 
L 451.199476 -225.058414 
L 451.212335 -224.378669 
L 451.229925 -223.698925 
L 451.253779 -223.01918 
L 451.285944 -222.339435 
L 451.329164 -221.659691 
L 451.38711 -220.979946 
L 451.464624 -220.300201 
L 451.567955 -219.620456 
L 451.704918 -218.940712 
L 451.884903 -218.260967 
L 452.118655 -217.581222 
L 452.417737 -216.901477 
L 452.793621 -216.221733 
L 453.256402 -215.541988 
L 453.813189 -214.862243 
L 454.466324 -214.182499 
L 455.211635 -213.502754 
L 456.037029 -212.823009 
L 456.921738 -212.143264 
L 457.836502 -211.46352 
L 458.744892 -210.783775 
L 459.60583 -210.10403 
L 460.377132 -209.424285 
L 461.019732 -208.744541 
L 461.502039 -208.064796 
L 461.80379 -207.385051 
L 461.918784 -206.705306 
L 461.855973 -206.025562 
L 461.638667 -205.345817 
L 461.30188 -204.666072 
L 460.888143 -203.986328 
L 460.442397 -203.306583 
L 460.006676 -202.626838 
L 459.615349 -201.947093 
L 459.291559 -201.267349 
L 459.045294 -200.587604 
L 458.873262 -199.907859 
L 458.760477 -199.228114 
L 458.683229 -198.54837 
L 458.612946 -197.868625 
L 458.520386 -197.18888 
L 458.379597 -196.509136 
L 458.17115 -195.829391 
L 457.884305 -195.149646 
L 457.517926 -194.469901 
L 457.080134 -193.790157 
L 456.58689 -193.110412 
L 456.05978 -192.430667 
L 455.523395 -191.750922 
L 455.002696 -191.071178 
L 454.520703 -190.391433 
L 454.096761 -189.711688 
L 453.745515 -189.031943 
L 453.476604 -188.352199 
L 453.294994 -187.672454 
L 453.201806 -186.992709 
L 453.195506 -186.312965 
L 453.273348 -185.63322 
L 453.433014 -184.953475 
L 453.67445 -184.27373 
L 454.001914 -183.593986 
L 454.426236 -182.914241 
L 454.967175 -182.234496 
L 455.65564 -181.554751 
L 456.535354 -180.875007 
L 457.663379 -180.195262 
L 459.108827 -179.515517 
L 460.949103 -178.835772 
L 463.26322 -178.156028 
L 466.122097 -177.476283 
L 469.576325 -176.796538 
L 473.642527 -176.116794 
L 478.290091 -175.437049 
L 483.430538 -174.757304 
L 488.911919 -174.077559 
L 494.52037 -173.397815 
L 499.990127 -172.71807 
L 505.022075 -172.038325 
L 509.309447 -171.35858 
L 512.567803 -170.678836 
L 514.565351 -169.999091 
L 515.1492 -169.319346 
L 514.263487 -168.639602 
L 511.95646 -167.959857 
L 508.375323 -167.280112 
L 503.749657 -166.600367 
L 498.366046 -165.920623 
L 492.537837 -165.240878 
L 486.574476 -164.561133 
L 480.754565 -163.881388 
L 475.305764 -163.201644 
L 470.393203 -162.521899 
L 466.116571 -161.842154 
L 462.514685 -161.162409 
L 459.575502 -160.482665 
L 457.249131 -159.80292 
L 455.461537 -159.123175 
L 454.127094 -158.443431 
L 453.158776 -157.763686 
z
" style="stroke: #595959; stroke-width: 1.25"/>
    </defs>
    <g clip-path="url(#p628638595b)">
     <use xlink:href="#m07e117b85d" x="0" y="432" style="fill: #95a3c3; stroke: #595959; stroke-width: 1.25"/>
    </g>
   </g>
   <g id="PolyCollection_4">
    <defs>
     <path id="mdba0bb507c" d="M 612.507803 -194.309831 
L 609.728197 -194.309831 
L 609.019986 -195.289742 
L 608.025998 -196.269653 
L 606.668798 -197.249564 
L 604.866652 -198.229475 
L 602.540611 -199.209386 
L 599.624021 -200.189297 
L 596.073884 -201.169208 
L 591.882897 -202.149119 
L 587.090533 -203.12903 
L 581.791184 -204.108941 
L 576.137422 -205.088852 
L 570.336796 -206.068763 
L 564.641406 -207.048674 
L 559.330537 -208.028585 
L 554.687859 -209.008496 
L 550.975766 -209.988407 
L 548.410112 -210.968318 
L 547.1388 -211.948229 
L 547.227205 -212.92814 
L 548.65247 -213.908051 
L 551.307327 -214.887962 
L 555.012699 -215.867873 
L 559.537053 -216.847784 
L 564.619622 -217.827695 
L 569.994325 -218.807606 
L 575.411383 -219.787517 
L 580.654379 -220.767428 
L 585.551378 -221.747339 
L 589.979795 -222.72725 
L 593.865579 -223.707161 
L 597.177943 -224.687072 
L 599.921207 -225.666983 
L 602.125395 -226.646894 
L 603.836992 -227.626804 
L 605.11093 -228.606715 
L 606.004436 -229.586626 
L 606.572941 -230.566537 
L 606.867921 -231.546448 
L 606.936295 -232.526359 
L 606.820865 -233.50627 
L 606.561271 -234.486181 
L 606.194998 -235.466092 
L 605.758091 -236.446003 
L 605.28538 -237.425914 
L 604.810178 -238.405825 
L 604.363522 -239.385736 
L 603.973127 -240.365647 
L 603.662257 -241.345558 
L 603.448709 -242.325469 
L 603.344071 -243.30538 
L 603.353351 -244.285291 
L 603.475043 -245.265202 
L 603.701592 -246.245113 
L 604.020241 -247.225024 
L 604.41417 -248.204935 
L 604.863852 -249.184846 
L 605.348516 -250.164757 
L 605.847614 -251.144668 
L 606.34216 -252.124579 
L 606.815826 -253.10449 
L 607.255678 -254.084401 
L 607.652462 -255.064312 
L 608.000398 -256.044223 
L 608.296521 -257.024134 
L 608.539646 -258.004045 
L 608.729136 -258.983956 
L 608.863691 -259.963867 
L 608.940378 -260.943778 
L 608.954142 -261.923689 
L 608.897947 -262.9036 
L 608.763634 -263.883511 
L 608.543439 -264.863422 
L 608.232022 -265.843333 
L 607.828699 -266.823244 
L 607.339523 -267.803155 
L 606.778798 -268.783066 
L 606.169651 -269.762977 
L 605.543414 -270.742888 
L 604.937693 -271.722799 
L 604.393278 -272.70271 
L 603.95022 -273.682621 
L 603.643593 -274.662532 
L 603.499579 -275.642443 
L 603.532453 -276.622354 
L 603.74298 -277.602265 
L 604.118435 -278.582176 
L 604.634266 -279.562087 
L 605.257083 -280.541998 
L 605.948497 -281.521909 
L 606.669205 -282.50182 
L 607.382736 -283.481731 
L 608.058398 -284.461642 
L 608.67313 -285.441553 
L 609.212197 -286.421464 
L 609.668838 -287.401375 
L 610.043123 -288.381286 
L 610.34034 -289.361197 
L 610.569222 -290.341108 
L 610.740284 -291.321019 
L 611.495716 -291.321019 
L 611.495716 -291.321019 
L 611.666778 -290.341108 
L 611.89566 -289.361197 
L 612.192877 -288.381286 
L 612.567162 -287.401375 
L 613.023803 -286.421464 
L 613.56287 -285.441553 
L 614.177602 -284.461642 
L 614.853264 -283.481731 
L 615.566795 -282.50182 
L 616.287503 -281.521909 
L 616.978917 -280.541998 
L 617.601734 -279.562087 
L 618.117565 -278.582176 
L 618.49302 -277.602265 
L 618.703547 -276.622354 
L 618.736421 -275.642443 
L 618.592407 -274.662532 
L 618.28578 -273.682621 
L 617.842722 -272.70271 
L 617.298307 -271.722799 
L 616.692586 -270.742888 
L 616.066349 -269.762977 
L 615.457202 -268.783066 
L 614.896477 -267.803155 
L 614.407301 -266.823244 
L 614.003978 -265.843333 
L 613.692561 -264.863422 
L 613.472366 -263.883511 
L 613.338053 -262.9036 
L 613.281858 -261.923689 
L 613.295622 -260.943778 
L 613.372309 -259.963867 
L 613.506864 -258.983956 
L 613.696354 -258.004045 
L 613.939479 -257.024134 
L 614.235602 -256.044223 
L 614.583538 -255.064312 
L 614.980322 -254.084401 
L 615.420174 -253.10449 
L 615.89384 -252.124579 
L 616.388386 -251.144668 
L 616.887484 -250.164757 
L 617.372148 -249.184846 
L 617.82183 -248.204935 
L 618.215759 -247.225024 
L 618.534408 -246.245113 
L 618.760957 -245.265202 
L 618.882649 -244.285291 
L 618.891929 -243.30538 
L 618.787291 -242.325469 
L 618.573743 -241.345558 
L 618.262873 -240.365647 
L 617.872478 -239.385736 
L 617.425822 -238.405825 
L 616.95062 -237.425914 
L 616.477909 -236.446003 
L 616.041002 -235.466092 
L 615.674729 -234.486181 
L 615.415135 -233.50627 
L 615.299705 -232.526359 
L 615.368079 -231.546448 
L 615.663059 -230.566537 
L 616.231564 -229.586626 
L 617.12507 -228.606715 
L 618.399008 -227.626804 
L 620.110605 -226.646894 
L 622.314793 -225.666983 
L 625.058057 -224.687072 
L 628.370421 -223.707161 
L 632.256205 -222.72725 
L 636.684622 -221.747339 
L 641.581621 -220.767428 
L 646.824617 -219.787517 
L 652.241675 -218.807606 
L 657.616378 -217.827695 
L 662.698947 -216.847784 
L 667.223301 -215.867873 
L 670.928673 -214.887962 
L 673.58353 -213.908051 
L 675.008795 -212.92814 
L 675.0972 -211.948229 
L 673.825888 -210.968318 
L 671.260234 -209.988407 
L 667.548141 -209.008496 
L 662.905463 -208.028585 
L 657.594594 -207.048674 
L 651.899204 -206.068763 
L 646.098578 -205.088852 
L 640.444816 -204.108941 
L 635.145467 -203.12903 
L 630.353103 -202.149119 
L 626.162116 -201.169208 
L 622.611979 -200.189297 
L 619.695389 -199.209386 
L 617.369348 -198.229475 
L 615.567202 -197.249564 
L 614.210002 -196.269653 
L 613.216014 -195.289742 
L 612.507803 -194.309831 
z
" style="stroke: #595959; stroke-width: 1.25"/>
    </defs>
    <g clip-path="url(#p628638595b)">
     <use xlink:href="#mdba0bb507c" x="0" y="432" style="fill: #db96c0; stroke: #595959; stroke-width: 1.25"/>
    </g>
   </g>
   <g id="PolyCollection_5">
    <defs>
     <path id="mbec9393e7f" d="M 772.532942 -165.05458 
L 769.599058 -165.05458 
L 768.76713 -165.870582 
L 767.565948 -166.686584 
L 765.888511 -167.502586 
L 763.624215 -168.318588 
L 760.672052 -169.13459 
L 756.957997 -169.950592 
L 752.454879 -170.766594 
L 747.201794 -171.582596 
L 741.319204 -172.398598 
L 735.015597 -173.2146 
L 728.582258 -174.030602 
L 722.374447 -174.846604 
L 716.779739 -175.662606 
L 712.177096 -176.478608 
L 708.892609 -177.29461 
L 707.159125 -178.110612 
L 707.0868 -178.926614 
L 708.649798 -179.742616 
L 711.691413 -180.558618 
L 715.946431 -181.37462 
L 721.076433 -182.190622 
L 726.711705 -183.006624 
L 732.492779 -183.822626 
L 738.105484 -184.638628 
L 743.305242 -185.45463 
L 747.928771 -186.270632 
L 751.893687 -187.086634 
L 755.188281 -187.902636 
L 757.854787 -188.718638 
L 759.969733 -189.53464 
L 761.624571 -190.350642 
L 762.909076 -191.166644 
L 763.899045 -191.982646 
L 764.649003 -192.798648 
L 765.189852 -193.61465 
L 765.530885 -194.430652 
L 765.665202 -195.246654 
L 765.577394 -196.062656 
L 765.252226 -196.878658 
L 764.683066 -197.69466 
L 763.878887 -198.510662 
L 762.868805 -199.326664 
L 761.703439 -200.142666 
L 760.452749 -200.958668 
L 759.20055 -201.77467 
L 758.036397 -202.590672 
L 757.046021 -203.406674 
L 756.301758 -204.222676 
L 755.85442 -205.038678 
L 755.727812 -205.85468 
L 755.916609 -206.670682 
L 756.387703 -207.486684 
L 757.084632 -208.302686 
L 757.934259 -209.118688 
L 758.854726 -209.93469 
L 759.763725 -210.750692 
L 760.586266 -211.566694 
L 761.261366 -212.382696 
L 761.747214 -213.198698 
L 762.02453 -214.0147 
L 762.09786 -214.830702 
L 761.994646 -215.646705 
L 761.762031 -216.462707 
L 761.461543 -217.278709 
L 761.162113 -218.094711 
L 760.932147 -218.910713 
L 760.831637 -219.726715 
L 760.905363 -220.542717 
L 761.178153 -221.358719 
L 761.652865 -222.174721 
L 762.311302 -222.990723 
L 763.117795 -223.806725 
L 764.024758 -224.622727 
L 764.97921 -225.438729 
L 765.929237 -226.254731 
L 766.829449 -227.070733 
L 767.644807 -227.886735 
L 768.352542 -228.702737 
L 768.942234 -229.518739 
L 769.414418 -230.334741 
L 769.778198 -231.150743 
L 770.048418 -231.966745 
L 770.242854 -232.782747 
L 770.379775 -233.598749 
L 770.476078 -234.414751 
L 770.546059 -235.230753 
L 770.600811 -236.046755 
L 770.648122 -236.862757 
L 770.692767 -237.678759 
L 770.73705 -238.494761 
L 770.781457 -239.310763 
L 770.825321 -240.126765 
L 770.867415 -240.942767 
L 770.906417 -241.758769 
L 770.941231 -242.574771 
L 770.971156 -243.390773 
L 770.995936 -244.206775 
L 771.015719 -245.022777 
L 771.030953 -245.838779 
L 771.101047 -245.838779 
L 771.101047 -245.838779 
L 771.116281 -245.022777 
L 771.136064 -244.206775 
L 771.160844 -243.390773 
L 771.190769 -242.574771 
L 771.225583 -241.758769 
L 771.264585 -240.942767 
L 771.306679 -240.126765 
L 771.350543 -239.310763 
L 771.39495 -238.494761 
L 771.439233 -237.678759 
L 771.483878 -236.862757 
L 771.531189 -236.046755 
L 771.585941 -235.230753 
L 771.655922 -234.414751 
L 771.752225 -233.598749 
L 771.889146 -232.782747 
L 772.083582 -231.966745 
L 772.353802 -231.150743 
L 772.717582 -230.334741 
L 773.189766 -229.518739 
L 773.779458 -228.702737 
L 774.487193 -227.886735 
L 775.302551 -227.070733 
L 776.202763 -226.254731 
L 777.15279 -225.438729 
L 778.107242 -224.622727 
L 779.014205 -223.806725 
L 779.820698 -222.990723 
L 780.479135 -222.174721 
L 780.953847 -221.358719 
L 781.226637 -220.542717 
L 781.300363 -219.726715 
L 781.199853 -218.910713 
L 780.969887 -218.094711 
L 780.670457 -217.278709 
L 780.369969 -216.462707 
L 780.137354 -215.646705 
L 780.03414 -214.830702 
L 780.10747 -214.0147 
L 780.384786 -213.198698 
L 780.870634 -212.382696 
L 781.545734 -211.566694 
L 782.368275 -210.750692 
L 783.277274 -209.93469 
L 784.197741 -209.118688 
L 785.047368 -208.302686 
L 785.744297 -207.486684 
L 786.215391 -206.670682 
L 786.404188 -205.85468 
L 786.27758 -205.038678 
L 785.830242 -204.222676 
L 785.085979 -203.406674 
L 784.095603 -202.590672 
L 782.93145 -201.77467 
L 781.679251 -200.958668 
L 780.428561 -200.142666 
L 779.263195 -199.326664 
L 778.253113 -198.510662 
L 777.448934 -197.69466 
L 776.879774 -196.878658 
L 776.554606 -196.062656 
L 776.466798 -195.246654 
L 776.601115 -194.430652 
L 776.942148 -193.61465 
L 777.482997 -192.798648 
L 778.232955 -191.982646 
L 779.222924 -191.166644 
L 780.507429 -190.350642 
L 782.162267 -189.53464 
L 784.277213 -188.718638 
L 786.943719 -187.902636 
L 790.238313 -187.086634 
L 794.203229 -186.270632 
L 798.826758 -185.45463 
L 804.026516 -184.638628 
L 809.639221 -183.822626 
L 815.420295 -183.006624 
L 821.055567 -182.190622 
L 826.185569 -181.37462 
L 830.440587 -180.558618 
L 833.482202 -179.742616 
L 835.0452 -178.926614 
L 834.972875 -178.110612 
L 833.239391 -177.29461 
L 829.954904 -176.478608 
L 825.352261 -175.662606 
L 819.757553 -174.846604 
L 813.549742 -174.030602 
L 807.116403 -173.2146 
L 800.812796 -172.398598 
L 794.930206 -171.582596 
L 789.677121 -170.766594 
L 785.174003 -169.950592 
L 781.459948 -169.13459 
L 778.507785 -168.318588 
L 776.243489 -167.502586 
L 774.566052 -166.686584 
L 773.36487 -165.870582 
L 772.532942 -165.05458 
z
" style="stroke: #595959; stroke-width: 1.25"/>
    </defs>
    <g clip-path="url(#p628638595b)">
     <use xlink:href="#mbec9393e7f" x="0" y="432" style="fill: #a2c865; stroke: #595959; stroke-width: 1.25"/>
    </g>
   </g>
   <g id="line2d_7">
    <path d="M 131.274 348.851033 
L 131.274 349.685423 
" clip-path="url(#p628638595b)" style="fill: none; stroke: #000000"/>
   </g>
   <g id="line2d_8">
    <path d="M 131.274 346.109467 
L 131.274 342.235514 
" clip-path="url(#p628638595b)" style="fill: none; stroke: #000000"/>
   </g>
   <g id="line2d_9">
    <path d="M 125.27595 349.685423 
L 137.27205 349.685423 
" clip-path="url(#p628638595b)" style="fill: none; stroke: #000000; stroke-linecap: round"/>
   </g>
   <g id="line2d_10">
    <path d="M 125.27595 342.235514 
L 137.27205 342.235514 
" clip-path="url(#p628638595b)" style="fill: none; stroke: #000000; stroke-linecap: round"/>
   </g>
   <g id="line2d_11">
    <path d="M 291.222 350.162217 
L 291.222 350.75821 
" clip-path="url(#p628638595b)" style="fill: none; stroke: #000000"/>
   </g>
   <g id="line2d_12">
    <path d="M 291.222 347.837846 
L 291.222 344.619485 
" clip-path="url(#p628638595b)" style="fill: none; stroke: #000000"/>
   </g>
   <g id="line2d_13">
    <path d="M 285.22395 350.75821 
L 297.22005 350.75821 
" clip-path="url(#p628638595b)" style="fill: none; stroke: #000000; stroke-linecap: round"/>
   </g>
   <g id="line2d_14">
    <path d="M 285.22395 344.619485 
L 297.22005 344.619485 
" clip-path="url(#p628638595b)" style="fill: none; stroke: #000000; stroke-linecap: round"/>
   </g>
   <g id="line2d_15">
    <path d="M 451.17 263.326073 
L 451.17 265.888842 
" clip-path="url(#p628638595b)" style="fill: none; stroke: #000000"/>
   </g>
   <g id="line2d_16">
    <path d="M 451.17 257.530044 
L 451.17 250.035435 
" clip-path="url(#p628638595b)" style="fill: none; stroke: #000000"/>
   </g>
   <g id="line2d_17">
    <path d="M 445.17195 265.888842 
L 457.16805 265.888842 
" clip-path="url(#p628638595b)" style="fill: none; stroke: #000000; stroke-linecap: round"/>
   </g>
   <g id="line2d_18">
    <path d="M 445.17195 250.035435 
L 457.16805 250.035435 
" clip-path="url(#p628638595b)" style="fill: none; stroke: #000000; stroke-linecap: round"/>
   </g>
   <g id="line2d_19">
    <path d="M 611.118 221.248985 
L 611.118 225.659332 
" clip-path="url(#p628638595b)" style="fill: none; stroke: #000000"/>
   </g>
   <g id="line2d_20">
    <path d="M 611.118 213.47128 
L 611.118 203.726798 
" clip-path="url(#p628638595b)" style="fill: none; stroke: #000000"/>
   </g>
   <g id="line2d_21">
    <path d="M 605.11995 225.659332 
L 617.11605 225.659332 
" clip-path="url(#p628638595b)" style="fill: none; stroke: #000000; stroke-linecap: round"/>
   </g>
   <g id="line2d_22">
    <path d="M 605.11995 203.726798 
L 617.11605 203.726798 
" clip-path="url(#p628638595b)" style="fill: none; stroke: #000000; stroke-linecap: round"/>
   </g>
   <g id="line2d_23">
    <path d="M 771.066 254.266984 
L 771.066 257.723742 
" clip-path="url(#p628638595b)" style="fill: none; stroke: #000000"/>
   </g>
   <g id="line2d_24">
    <path d="M 771.066 228.2817 
L 771.066 195.3829 
" clip-path="url(#p628638595b)" style="fill: none; stroke: #000000"/>
   </g>
   <g id="line2d_25">
    <path d="M 765.06795 257.723742 
L 777.06405 257.723742 
" clip-path="url(#p628638595b)" style="fill: none; stroke: #000000; stroke-linecap: round"/>
   </g>
   <g id="line2d_26">
    <path d="M 765.06795 195.3829 
L 777.06405 195.3829 
" clip-path="url(#p628638595b)" style="fill: none; stroke: #000000; stroke-linecap: round"/>
   </g>
   <g id="line2d_27">
    <path d="M 119.2779 348.31464 
L 143.2701 348.31464 
" clip-path="url(#p628638595b)" style="fill: none; stroke: #ff0000; stroke-width: 2"/>
   </g>
   <g id="line2d_28">
    <path d="M 279.2259 349.685423 
L 303.2181 349.685423 
" clip-path="url(#p628638595b)" style="fill: none; stroke: #ff0000; stroke-width: 2"/>
   </g>
   <g id="line2d_29">
    <path d="M 439.1739 262.163888 
L 463.1661 262.163888 
" clip-path="url(#p628638595b)" style="fill: none; stroke: #ff0000; stroke-width: 2"/>
   </g>
   <g id="line2d_30">
    <path d="M 599.1219 218.686216 
L 623.1141 218.686216 
" clip-path="url(#p628638595b)" style="fill: none; stroke: #ff0000; stroke-width: 2"/>
   </g>
   <g id="line2d_31">
    <path d="M 759.0699 252.210809 
L 783.0621 252.210809 
" clip-path="url(#p628638595b)" style="fill: none; stroke: #ff0000; stroke-width: 2"/>
   </g>
   <g id="patch_3">
    <path d="M 51.3 373.416875 
L 51.3 27.6 
" style="fill: none; stroke: #cccccc; stroke-width: 1.25; stroke-linejoin: miter; stroke-linecap: square"/>
   </g>
   <g id="patch_4">
    <path d="M 851.04 373.416875 
L 851.04 27.6 
" style="fill: none; stroke: #cccccc; stroke-width: 1.25; stroke-linejoin: miter; stroke-linecap: square"/>
   </g>
   <g id="patch_5">
    <path d="M 51.3 373.416875 
L 851.04 373.416875 
" style="fill: none; stroke: #cccccc; stroke-width: 1.25; stroke-linejoin: miter; stroke-linecap: square"/>
   </g>
   <g id="patch_6">
    <path d="M 51.3 27.6 
L 851.04 27.6 
" style="fill: none; stroke: #cccccc; stroke-width: 1.25; stroke-linejoin: miter; stroke-linecap: square"/>
   </g>
   <g id="text_13">
    <!-- Handshake duration on QUIC with ed25519 signature algorithm — ideal conditions -->
    <g style="fill: #262626" transform="translate(203.04 21.6) scale(0.12 -0.12)">
     <defs>
      <path id="DejaVuSans-51" d="M 2522 4238 
Q 1834 4238 1429 3725 
Q 1025 3213 1025 2328 
Q 1025 1447 1429 934 
Q 1834 422 2522 422 
Q 3209 422 3611 934 
Q 4013 1447 4013 2328 
Q 4013 3213 3611 3725 
Q 3209 4238 2522 4238 
z
M 3406 84 
L 4238 -825 
L 3475 -825 
L 2784 -78 
Q 2681 -84 2626 -87 
Q 2572 -91 2522 -91 
Q 1538 -91 948 567 
Q 359 1225 359 2328 
Q 359 3434 948 4092 
Q 1538 4750 2522 4750 
Q 3503 4750 4090 4092 
Q 4678 3434 4678 2328 
Q 4678 1516 4351 937 
Q 4025 359 3406 84 
z
" transform="scale(0.015625)"/>
      <path id="DejaVuSans-55" d="M 556 4666 
L 1191 4666 
L 1191 1831 
Q 1191 1081 1462 751 
Q 1734 422 2344 422 
Q 2950 422 3222 751 
Q 3494 1081 3494 1831 
L 3494 4666 
L 4128 4666 
L 4128 1753 
Q 4128 841 3676 375 
Q 3225 -91 2344 -91 
Q 1459 -91 1007 375 
Q 556 841 556 1753 
L 556 4666 
z
" transform="scale(0.015625)"/>
      <path id="DejaVuSans-49" d="M 628 4666 
L 1259 4666 
L 1259 0 
L 628 0 
L 628 4666 
z
" transform="scale(0.015625)"/>
      <path id="DejaVuSans-43" d="M 4122 4306 
L 4122 3641 
Q 3803 3938 3442 4084 
Q 3081 4231 2675 4231 
Q 1875 4231 1450 3742 
Q 1025 3253 1025 2328 
Q 1025 1406 1450 917 
Q 1875 428 2675 428 
Q 3081 428 3442 575 
Q 3803 722 4122 1019 
L 4122 359 
Q 3791 134 3420 21 
Q 3050 -91 2638 -91 
Q 1578 -91 968 557 
Q 359 1206 359 2328 
Q 359 3453 968 4101 
Q 1578 4750 2638 4750 
Q 3056 4750 3426 4639 
Q 3797 4528 4122 4306 
z
" transform="scale(0.015625)"/>
      <path id="DejaVuSans-77" d="M 269 3500 
L 844 3500 
L 1563 769 
L 2278 3500 
L 2956 3500 
L 3675 769 
L 4391 3500 
L 4966 3500 
L 4050 0 
L 3372 0 
L 2619 2869 
L 1863 0 
L 1184 0 
L 269 3500 
z
" transform="scale(0.015625)"/>
      <path id="DejaVuSans-67" d="M 2906 1791 
Q 2906 2416 2648 2759 
Q 2391 3103 1925 3103 
Q 1463 3103 1205 2759 
Q 947 2416 947 1791 
Q 947 1169 1205 825 
Q 1463 481 1925 481 
Q 2391 481 2648 825 
Q 2906 1169 2906 1791 
z
M 3481 434 
Q 3481 -459 3084 -895 
Q 2688 -1331 1869 -1331 
Q 1566 -1331 1297 -1286 
Q 1028 -1241 775 -1147 
L 775 -588 
Q 1028 -725 1275 -790 
Q 1522 -856 1778 -856 
Q 2344 -856 2625 -561 
Q 2906 -266 2906 331 
L 2906 616 
Q 2728 306 2450 153 
Q 2172 0 1784 0 
Q 1141 0 747 490 
Q 353 981 353 1791 
Q 353 2603 747 3093 
Q 1141 3584 1784 3584 
Q 2172 3584 2450 3431 
Q 2728 3278 2906 2969 
L 2906 3500 
L 3481 3500 
L 3481 434 
z
" transform="scale(0.015625)"/>
      <path id="DejaVuSans-6c" d="M 603 4863 
L 1178 4863 
L 1178 0 
L 603 0 
L 603 4863 
z
" transform="scale(0.015625)"/>
      <path id="DejaVuSans-2014" d="M 313 1978 
L 6088 1978 
L 6088 1528 
L 313 1528 
L 313 1978 
z
" transform="scale(0.015625)"/>
     </defs>
     <use xlink:href="#DejaVuSans-48"/>
     <use xlink:href="#DejaVuSans-61" x="75.195312"/>
     <use xlink:href="#DejaVuSans-6e" x="136.474609"/>
     <use xlink:href="#DejaVuSans-64" x="199.853516"/>
     <use xlink:href="#DejaVuSans-73" x="263.330078"/>
     <use xlink:href="#DejaVuSans-68" x="315.429688"/>
     <use xlink:href="#DejaVuSans-61" x="378.808594"/>
     <use xlink:href="#DejaVuSans-6b" x="440.087891"/>
     <use xlink:href="#DejaVuSans-65" x="494.373047"/>
     <use xlink:href="#DejaVuSans-20" x="555.896484"/>
     <use xlink:href="#DejaVuSans-64" x="587.683594"/>
     <use xlink:href="#DejaVuSans-75" x="651.160156"/>
     <use xlink:href="#DejaVuSans-72" x="714.539062"/>
     <use xlink:href="#DejaVuSans-61" x="755.652344"/>
     <use xlink:href="#DejaVuSans-74" x="816.931641"/>
     <use xlink:href="#DejaVuSans-69" x="856.140625"/>
     <use xlink:href="#DejaVuSans-6f" x="883.923828"/>
     <use xlink:href="#DejaVuSans-6e" x="945.105469"/>
     <use xlink:href="#DejaVuSans-20" x="1008.484375"/>
     <use xlink:href="#DejaVuSans-6f" x="1040.271484"/>
     <use xlink:href="#DejaVuSans-6e" x="1101.453125"/>
     <use xlink:href="#DejaVuSans-20" x="1164.832031"/>
     <use xlink:href="#DejaVuSans-51" x="1196.619141"/>
     <use xlink:href="#DejaVuSans-55" x="1275.330078"/>
     <use xlink:href="#DejaVuSans-49" x="1348.523438"/>
     <use xlink:href="#DejaVuSans-43" x="1378.015625"/>
     <use xlink:href="#DejaVuSans-20" x="1447.839844"/>
     <use xlink:href="#DejaVuSans-77" x="1479.626953"/>
     <use xlink:href="#DejaVuSans-69" x="1561.414062"/>
     <use xlink:href="#DejaVuSans-74" x="1589.197266"/>
     <use xlink:href="#DejaVuSans-68" x="1628.40625"/>
     <use xlink:href="#DejaVuSans-20" x="1691.785156"/>
     <use xlink:href="#DejaVuSans-65" x="1723.572266"/>
     <use xlink:href="#DejaVuSans-64" x="1785.095703"/>
     <use xlink:href="#DejaVuSans-32" x="1848.572266"/>
     <use xlink:href="#DejaVuSans-35" x="1912.195312"/>
     <use xlink:href="#DejaVuSans-35" x="1975.818359"/>
     <use xlink:href="#DejaVuSans-31" x="2039.441406"/>
     <use xlink:href="#DejaVuSans-39" x="2103.064453"/>
     <use xlink:href="#DejaVuSans-20" x="2166.6875"/>
     <use xlink:href="#DejaVuSans-73" x="2198.474609"/>
     <use xlink:href="#DejaVuSans-69" x="2250.574219"/>
     <use xlink:href="#DejaVuSans-67" x="2278.357422"/>
     <use xlink:href="#DejaVuSans-6e" x="2341.833984"/>
     <use xlink:href="#DejaVuSans-61" x="2405.212891"/>
     <use xlink:href="#DejaVuSans-74" x="2466.492188"/>
     <use xlink:href="#DejaVuSans-75" x="2505.701172"/>
     <use xlink:href="#DejaVuSans-72" x="2569.080078"/>
     <use xlink:href="#DejaVuSans-65" x="2607.943359"/>
     <use xlink:href="#DejaVuSans-20" x="2669.466797"/>
     <use xlink:href="#DejaVuSans-61" x="2701.253906"/>
     <use xlink:href="#DejaVuSans-6c" x="2762.533203"/>
     <use xlink:href="#DejaVuSans-67" x="2790.316406"/>
     <use xlink:href="#DejaVuSans-6f" x="2853.792969"/>
     <use xlink:href="#DejaVuSans-72" x="2914.974609"/>
     <use xlink:href="#DejaVuSans-69" x="2956.087891"/>
     <use xlink:href="#DejaVuSans-74" x="2983.871094"/>
     <use xlink:href="#DejaVuSans-68" x="3023.080078"/>
     <use xlink:href="#DejaVuSans-6d" x="3086.458984"/>
     <use xlink:href="#DejaVuSans-20" x="3183.871094"/>
     <use xlink:href="#DejaVuSans-2014" x="3215.658203"/>
     <use xlink:href="#DejaVuSans-20" x="3315.658203"/>
     <use xlink:href="#DejaVuSans-69" x="3347.445312"/>
     <use xlink:href="#DejaVuSans-64" x="3375.228516"/>
     <use xlink:href="#DejaVuSans-65" x="3438.705078"/>
     <use xlink:href="#DejaVuSans-61" x="3500.228516"/>
     <use xlink:href="#DejaVuSans-6c" x="3561.507812"/>
     <use xlink:href="#DejaVuSans-20" x="3589.291016"/>
     <use xlink:href="#DejaVuSans-63" x="3621.078125"/>
     <use xlink:href="#DejaVuSans-6f" x="3676.058594"/>
     <use xlink:href="#DejaVuSans-6e" x="3737.240234"/>
     <use xlink:href="#DejaVuSans-64" x="3800.619141"/>
     <use xlink:href="#DejaVuSans-69" x="3864.095703"/>
     <use xlink:href="#DejaVuSans-74" x="3891.878906"/>
     <use xlink:href="#DejaVuSans-69" x="3931.087891"/>
     <use xlink:href="#DejaVuSans-6f" x="3958.871094"/>
     <use xlink:href="#DejaVuSans-6e" x="4020.052734"/>
     <use xlink:href="#DejaVuSans-73" x="4083.431641"/>
    </g>
   </g>
  </g>
 </g>
 <defs>
  <clipPath id="p628638595b">
   <rect x="51.3" y="27.6" width="799.74" height="345.816875"/>
  </clipPath>
 </defs>
</svg>
