<?xml version="1.0" encoding="utf-8" standalone="no"?>
<!DOCTYPE svg PUBLIC "-//W3C//DTD SVG 1.1//EN"
  "http://www.w3.org/Graphics/SVG/1.1/DTD/svg11.dtd">
<svg xmlns:xlink="http://www.w3.org/1999/xlink" width="864pt" height="432pt" viewBox="0 0 864 432" xmlns="http://www.w3.org/2000/svg" version="1.1">
 <metadata>
  <rdf:RDF xmlns:dc="http://purl.org/dc/elements/1.1/" xmlns:cc="http://creativecommons.org/ns#" xmlns:rdf="http://www.w3.org/1999/02/22-rdf-syntax-ns#">
   <cc:Work>
    <dc:type rdf:resource="http://purl.org/dc/dcmitype/StillImage"/>
    <dc:date>2026-03-21T14:06:28.976373</dc:date>
    <dc:format>image/svg+xml</dc:format>
    <dc:creator>
     <cc:Agent>
      <dc:title>Matplotlib v3.6.3, https://matplotlib.org/</dc:title>
     </cc:Agent>
    </dc:creator>
   </cc:Work>
  </rdf:RDF>
 </metadata>
 <defs>
  <style type="text/css">*{stroke-linejoin: round; stroke-linecap: butt}</style>
 </defs>
 <g id="figure_1">
  <g id="patch_1">
   <path d="M 0 432 
L 864 432 
L 864 0 
L 0 0 
z
" style="fill: #ffffff"/>
  </g>
  <g id="axes_1">
   <g id="patch_2">
    <path d="M 58.32 373.416875 
L 851.04 373.416875 
L 851.04 27.6 
L 58.32 27.6 
z
" style="fill: #ffffff"/>
   </g>
   <g id="matplotlib.axis_1">
    <g id="xtick_1">
     <g id="text_1">
      <!-- P-256 -->
      <g style="fill: #262626" transform="translate(103.911421 400.575919) rotate(-15) scale(0.12 -0.12)">
       <defs>
        <path id="DejaVuSans-50" d="M 1259 4147 
L 1259 2394 
L 2053 2394 
Q 2494 2394 2734 2622 
Q 2975 2850 2975 3272 
Q 2975 3691 2734 3919 
Q 2494 4147 2053 4147 
L 1259 4147 
z
M 628 4666 
L 2053 4666 
Q 2838 4666 3239 4311 
Q 3641 3956 3641 3272 
Q 3641 2581 3239 2228 
Q 2838 1875 2053 1875 
L 1259 1875 
L 1259 0 
L 628 0 
L 628 4666 
z
" transform="scale(0.015625)"/>
        <path id="DejaVuSans-2d" d="M 313 2009 
L 1997 2009 
L 1997 1497 
L 313 1497 
L 313 2009 
z
" transform="scale(0.015625)"/>
        <path id="DejaVuSans-32" d="M 1228 531 
L 3431 531 
L 3431 0 
L 469 0 
L 469 531 
Q 828 903 1448 1529 
Q 2069 2156 2228 2338 
Q 2531 2678 2651 2914 
Q 2772 3150 2772 3378 
Q 2772 3750 2511 3984 
Q 2250 4219 1831 4219 
Q 1534 4219 1204 4116 
Q 875 4013 500 3803 
L 500 4441 
Q 881 4594 1212 4672 
Q 1544 4750 1819 4750 
Q 2544 4750 2975 4387 
Q 3406 4025 3406 3419 
Q 3406 3131 3298 2873 
Q 3191 2616 2906 2266 
Q 2828 2175 2409 1742 
Q 1991 1309 1228 531 
z
" transform="scale(0.015625)"/>
        <path id="DejaVuSans-35" d="M 691 4666 
L 3169 4666 
L 3169 4134 
L 1269 4134 
L 1269 2991 
Q 1406 3038 1543 3061 
Q 1681 3084 1819 3084 
Q 2600 3084 3056 2656 
Q 3513 2228 3513 1497 
Q 3513 744 3044 326 
Q 2575 -91 1722 -91 
Q 1428 -91 1123 -41 
Q 819 9 494 109 
L 494 744 
Q 775 591 1075 516 
Q 1375 441 1709 441 
Q 2250 441 2565 725 
Q 2881 1009 2881 1497 
Q 2881 1984 2565 2268 
Q 2250 2553 1709 2553 
Q 1456 2553 1204 2497 
Q 953 2441 691 2322 
L 691 4666 
z
" transform="scale(0.015625)"/>
        <path id="DejaVuSans-36" d="M 2113 2584 
Q 1688 2584 1439 2293 
Q 1191 2003 1191 1497 
Q 1191 994 1439 701 
Q 1688 409 2113 409 
Q 2538 409 2786 701 
Q 3034 994 3034 1497 
Q 3034 2003 2786 2293 
Q 2538 2584 2113 2584 
z
M 3366 4563 
L 3366 3988 
Q 3128 4100 2886 4159 
Q 2644 4219 2406 4219 
Q 1781 4219 1451 3797 
Q 1122 3375 1075 2522 
Q 1259 2794 1537 2939 
Q 1816 3084 2150 3084 
Q 2853 3084 3261 2657 
Q 3669 2231 3669 1497 
Q 3669 778 3244 343 
Q 2819 -91 2113 -91 
Q 1303 -91 875 529 
Q 447 1150 447 2328 
Q 447 3434 972 4092 
Q 1497 4750 2381 4750 
Q 2619 4750 2861 4703 
Q 3103 4656 3366 4563 
z
" transform="scale(0.015625)"/>
       </defs>
       <use xlink:href="#DejaVuSans-50"/>
       <use xlink:href="#DejaVuSans-2d" x="58.052734"/>
       <use xlink:href="#DejaVuSans-32" x="94.136719"/>
       <use xlink:href="#DejaVuSans-35" x="157.759766"/>
       <use xlink:href="#DejaVuSans-36" x="221.382812"/>
      </g>
     </g>
    </g>
    <g id="xtick_2">
     <g id="text_2">
      <!-- x25519 -->
      <g style="fill: #262626" transform="translate(251.755378 403.442987) rotate(-15) scale(0.12 -0.12)">
       <defs>
        <path id="DejaVuSans-78" d="M 3513 3500 
L 2247 1797 
L 3578 0 
L 2900 0 
L 1881 1375 
L 863 0 
L 184 0 
L 1544 1831 
L 300 3500 
L 978 3500 
L 1906 2253 
L 2834 3500 
L 3513 3500 
z
" transform="scale(0.015625)"/>
        <path id="DejaVuSans-31" d="M 794 531 
L 1825 531 
L 1825 4091 
L 703 3866 
L 703 4441 
L 1819 4666 
L 2450 4666 
L 2450 531 
L 3481 531 
L 3481 0 
L 794 0 
L 794 531 
z
" transform="scale(0.015625)"/>
        <path id="DejaVuSans-39" d="M 703 97 
L 703 672 
Q 941 559 1184 500 
Q 1428 441 1663 441 
Q 2288 441 2617 861 
Q 2947 1281 2994 2138 
Q 2813 1869 2534 1725 
Q 2256 1581 1919 1581 
Q 1219 1581 811 2004 
Q 403 2428 403 3163 
Q 403 3881 828 4315 
Q 1253 4750 1959 4750 
Q 2769 4750 3195 4129 
Q 3622 3509 3622 2328 
Q 3622 1225 3098 567 
Q 2575 -91 1691 -91 
Q 1453 -91 1209 -44 
Q 966 3 703 97 
z
M 1959 2075 
Q 2384 2075 2632 2365 
Q 2881 2656 2881 3163 
Q 2881 3666 2632 3958 
Q 2384 4250 1959 4250 
Q 1534 4250 1286 3958 
Q 1038 3666 1038 3163 
Q 1038 2656 1286 2365 
Q 1534 2075 1959 2075 
z
" transform="scale(0.015625)"/>
       </defs>
       <use xlink:href="#DejaVuSans-78"/>
       <use xlink:href="#DejaVuSans-32" x="59.179688"/>
       <use xlink:href="#DejaVuSans-35" x="122.802734"/>
       <use xlink:href="#DejaVuSans-35" x="186.425781"/>
       <use xlink:href="#DejaVuSans-31" x="250.048828"/>
       <use xlink:href="#DejaVuSans-39" x="313.671875"/>
      </g>
     </g>
    </g>
    <g id="xtick_3">
     <g id="text_3">
      <!-- hqc128 -->
      <g style="fill: #262626" transform="translate(410.831845 403.300313) rotate(-15) scale(0.12 -0.12)">
       <defs>
        <path id="DejaVuSans-68" d="M 3513 2113 
L 3513 0 
L 2938 0 
L 2938 2094 
Q 2938 2591 2744 2837 
Q 2550 3084 2163 3084 
Q 1697 3084 1428 2787 
Q 1159 2491 1159 1978 
L 1159 0 
L 581 0 
L 581 4863 
L 1159 4863 
L 1159 2956 
Q 1366 3272 1645 3428 
Q 1925 3584 2291 3584 
Q 2894 3584 3203 3211 
Q 3513 2838 3513 2113 
z
" transform="scale(0.015625)"/>
        <path id="DejaVuSans-71" d="M 947 1747 
Q 947 1113 1208 752 
Q 1469 391 1925 391 
Q 2381 391 2643 752 
Q 2906 1113 2906 1747 
Q 2906 2381 2643 2742 
Q 2381 3103 1925 3103 
Q 1469 3103 1208 2742 
Q 947 2381 947 1747 
z
M 2906 525 
Q 2725 213 2448 61 
Q 2172 -91 1784 -91 
Q 1150 -91 751 415 
Q 353 922 353 1747 
Q 353 2572 751 3078 
Q 1150 3584 1784 3584 
Q 2172 3584 2448 3432 
Q 2725 3281 2906 2969 
L 2906 3500 
L 3481 3500 
L 3481 -1331 
L 2906 -1331 
L 2906 525 
z
" transform="scale(0.015625)"/>
        <path id="DejaVuSans-63" d="M 3122 3366 
L 3122 2828 
Q 2878 2963 2633 3030 
Q 2388 3097 2138 3097 
Q 1578 3097 1268 2742 
Q 959 2388 959 1747 
Q 959 1106 1268 751 
Q 1578 397 2138 397 
Q 2388 397 2633 464 
Q 2878 531 3122 666 
L 3122 134 
Q 2881 22 2623 -34 
Q 2366 -91 2075 -91 
Q 1284 -91 818 406 
Q 353 903 353 1747 
Q 353 2603 823 3093 
Q 1294 3584 2113 3584 
Q 2378 3584 2631 3529 
Q 2884 3475 3122 3366 
z
" transform="scale(0.015625)"/>
        <path id="DejaVuSans-38" d="M 2034 2216 
Q 1584 2216 1326 1975 
Q 1069 1734 1069 1313 
Q 1069 891 1326 650 
Q 1584 409 2034 409 
Q 2484 409 2743 651 
Q 3003 894 3003 1313 
Q 3003 1734 2745 1975 
Q 2488 2216 2034 2216 
z
M 1403 2484 
Q 997 2584 770 2862 
Q 544 3141 544 3541 
Q 544 4100 942 4425 
Q 1341 4750 2034 4750 
Q 2731 4750 3128 4425 
Q 3525 4100 3525 3541 
Q 3525 3141 3298 2862 
Q 3072 2584 2669 2484 
Q 3125 2378 3379 2068 
Q 3634 1759 3634 1313 
Q 3634 634 3220 271 
Q 2806 -91 2034 -91 
Q 1263 -91 848 271 
Q 434 634 434 1313 
Q 434 1759 690 2068 
Q 947 2378 1403 2484 
z
M 1172 3481 
Q 1172 3119 1398 2916 
Q 1625 2713 2034 2713 
Q 2441 2713 2670 2916 
Q 2900 3119 2900 3481 
Q 2900 3844 2670 4047 
Q 2441 4250 2034 4250 
Q 1625 4250 1398 4047 
Q 1172 3844 1172 3481 
z
" transform="scale(0.015625)"/>
       </defs>
       <use xlink:href="#DejaVuSans-68"/>
       <use xlink:href="#DejaVuSans-71" x="63.378906"/>
       <use xlink:href="#DejaVuSans-63" x="126.855469"/>
       <use xlink:href="#DejaVuSans-31" x="181.835938"/>
       <use xlink:href="#DejaVuSans-32" x="245.458984"/>
       <use xlink:href="#DejaVuSans-38" x="309.082031"/>
      </g>
     </g>
    </g>
    <g id="xtick_4">
     <g id="text_4">
      <!-- p256_hqc128 -->
      <g style="fill: #262626" transform="translate(534.010834 412.753193) rotate(-15) scale(0.12 -0.12)">
       <defs>
        <path id="DejaVuSans-70" d="M 1159 525 
L 1159 -1331 
L 581 -1331 
L 581 3500 
L 1159 3500 
L 1159 2969 
Q 1341 3281 1617 3432 
Q 1894 3584 2278 3584 
Q 2916 3584 3314 3078 
Q 3713 2572 3713 1747 
Q 3713 922 3314 415 
Q 2916 -91 2278 -91 
Q 1894 -91 1617 61 
Q 1341 213 1159 525 
z
M 3116 1747 
Q 3116 2381 2855 2742 
Q 2594 3103 2138 3103 
Q 1681 3103 1420 2742 
Q 1159 2381 1159 1747 
Q 1159 1113 1420 752 
Q 1681 391 2138 391 
Q 2594 391 2855 752 
Q 3116 1113 3116 1747 
z
" transform="scale(0.015625)"/>
        <path id="DejaVuSans-5f" d="M 3263 -1063 
L 3263 -1509 
L -63 -1509 
L -63 -1063 
L 3263 -1063 
z
" transform="scale(0.015625)"/>
       </defs>
       <use xlink:href="#DejaVuSans-70"/>
       <use xlink:href="#DejaVuSans-32" x="63.476562"/>
       <use xlink:href="#DejaVuSans-35" x="127.099609"/>
       <use xlink:href="#DejaVuSans-36" x="190.722656"/>
       <use xlink:href="#DejaVuSans-5f" x="254.345703"/>
       <use xlink:href="#DejaVuSans-68" x="304.345703"/>
       <use xlink:href="#DejaVuSans-71" x="367.724609"/>
       <use xlink:href="#DejaVuSans-63" x="431.201172"/>
       <use xlink:href="#DejaVuSans-31" x="486.181641"/>
       <use xlink:href="#DejaVuSans-32" x="549.804688"/>
       <use xlink:href="#DejaVuSans-38" x="613.427734"/>
      </g>
     </g>
    </g>
    <g id="xtick_5">
     <g id="text_5">
      <!-- x25519_hqc128 -->
      <g style="fill: #262626" transform="translate(678.303202 416.571906) rotate(-15) scale(0.12 -0.12)">
       <use xlink:href="#DejaVuSans-78"/>
       <use xlink:href="#DejaVuSans-32" x="59.179688"/>
       <use xlink:href="#DejaVuSans-35" x="122.802734"/>
       <use xlink:href="#DejaVuSans-35" x="186.425781"/>
       <use xlink:href="#DejaVuSans-31" x="250.048828"/>
       <use xlink:href="#DejaVuSans-39" x="313.671875"/>
       <use xlink:href="#DejaVuSans-5f" x="377.294922"/>
       <use xlink:href="#DejaVuSans-68" x="427.294922"/>
       <use xlink:href="#DejaVuSans-71" x="490.673828"/>
       <use xlink:href="#DejaVuSans-63" x="554.150391"/>
       <use xlink:href="#DejaVuSans-31" x="609.130859"/>
       <use xlink:href="#DejaVuSans-32" x="672.753906"/>
       <use xlink:href="#DejaVuSans-38" x="736.376953"/>
      </g>
     </g>
    </g>
   </g>
   <g id="matplotlib.axis_2">
    <g id="ytick_1">
     <g id="line2d_1">
      <path d="M 58.32 351.23595 
L 851.04 351.23595 
" clip-path="url(#pb0ce261c9a)" style="fill: none; stroke: #cccccc; stroke-linecap: round"/>
     </g>
     <g id="text_6">
      <!-- 400 -->
      <g style="fill: #262626" transform="translate(27.82375 355.415091) scale(0.11 -0.11)">
       <defs>
        <path id="DejaVuSans-34" d="M 2419 4116 
L 825 1625 
L 2419 1625 
L 2419 4116 
z
M 2253 4666 
L 3047 4666 
L 3047 1625 
L 3713 1625 
L 3713 1100 
L 3047 1100 
L 3047 0 
L 2419 0 
L 2419 1100 
L 313 1100 
L 313 1709 
L 2253 4666 
z
" transform="scale(0.015625)"/>
        <path id="DejaVuSans-30" d="M 2034 4250 
Q 1547 4250 1301 3770 
Q 1056 3291 1056 2328 
Q 1056 1369 1301 889 
Q 1547 409 2034 409 
Q 2525 409 2770 889 
Q 3016 1369 3016 2328 
Q 3016 3291 2770 3770 
Q 2525 4250 2034 4250 
z
M 2034 4750 
Q 2819 4750 3233 4129 
Q 3647 3509 3647 2328 
Q 3647 1150 3233 529 
Q 2819 -91 2034 -91 
Q 1250 -91 836 529 
Q 422 1150 422 2328 
Q 422 3509 836 4129 
Q 1250 4750 2034 4750 
z
" transform="scale(0.015625)"/>
       </defs>
       <use xlink:href="#DejaVuSans-34"/>
       <use xlink:href="#DejaVuSans-30" x="63.623047"/>
       <use xlink:href="#DejaVuSans-30" x="127.246094"/>
      </g>
     </g>
    </g>
    <g id="ytick_2">
     <g id="line2d_2">
      <path d="M 58.32 281.110673 
L 851.04 281.110673 
" clip-path="url(#pb0ce261c9a)" style="fill: none; stroke: #cccccc; stroke-linecap: round"/>
     </g>
     <g id="text_7">
      <!-- 500 -->
      <g style="fill: #262626" transform="translate(27.82375 285.289814) scale(0.11 -0.11)">
       <use xlink:href="#DejaVuSans-35"/>
       <use xlink:href="#DejaVuSans-30" x="63.623047"/>
       <use xlink:href="#DejaVuSans-30" x="127.246094"/>
      </g>
     </g>
    </g>
    <g id="ytick_3">
     <g id="line2d_3">
      <path d="M 58.32 210.985397 
L 851.04 210.985397 
" clip-path="url(#pb0ce261c9a)" style="fill: none; stroke: #cccccc; stroke-linecap: round"/>
     </g>
     <g id="text_8">
      <!-- 600 -->
      <g style="fill: #262626" transform="translate(27.82375 215.164537) scale(0.11 -0.11)">
       <use xlink:href="#DejaVuSans-36"/>
       <use xlink:href="#DejaVuSans-30" x="63.623047"/>
       <use xlink:href="#DejaVuSans-30" x="127.246094"/>
      </g>
     </g>
    </g>
    <g id="ytick_4">
     <g id="line2d_4">
      <path d="M 58.32 140.86012 
L 851.04 140.86012 
" clip-path="url(#pb0ce261c9a)" style="fill: none; stroke: #cccccc; stroke-linecap: round"/>
     </g>
     <g id="text_9">
      <!-- 700 -->
      <g style="fill: #262626" transform="translate(27.82375 145.03926) scale(0.11 -0.11)">
       <defs>
        <path id="DejaVuSans-37" d="M 525 4666 
L 3525 4666 
L 3525 4397 
L 1831 0 
L 1172 0 
L 2766 4134 
L 525 4134 
L 525 4666 
z
" transform="scale(0.015625)"/>
       </defs>
       <use xlink:href="#DejaVuSans-37"/>
       <use xlink:href="#DejaVuSans-30" x="63.623047"/>
       <use xlink:href="#DejaVuSans-30" x="127.246094"/>
      </g>
     </g>
    </g>
    <g id="ytick_5">
     <g id="line2d_5">
      <path d="M 58.32 70.734843 
L 851.04 70.734843 
" clip-path="url(#pb0ce261c9a)" style="fill: none; stroke: #cccccc; stroke-linecap: round"/>
     </g>
     <g id="text_10">
      <!-- 800 -->
      <g style="fill: #262626" transform="translate(27.82375 74.913984) scale(0.11 -0.11)">
       <use xlink:href="#DejaVuSans-38"/>
       <use xlink:href="#DejaVuSans-30" x="63.623047"/>
       <use xlink:href="#DejaVuSans-30" x="127.246094"/>
      </g>
     </g>
    </g>
    <g id="text_11">
     <!-- Handshake duration (ms) -->
     <g style="fill: #262626" transform="translate(21.328125 276.57625) rotate(-90) scale(0.12 -0.12)">
      <defs>
       <path id="DejaVuSans-48" d="M 628 4666 
L 1259 4666 
L 1259 2753 
L 3553 2753 
L 3553 4666 
L 4184 4666 
L 4184 0 
L 3553 0 
L 3553 2222 
L 1259 2222 
L 1259 0 
L 628 0 
L 628 4666 
z
" transform="scale(0.015625)"/>
       <path id="DejaVuSans-61" d="M 2194 1759 
Q 1497 1759 1228 1600 
Q 959 1441 959 1056 
Q 959 750 1161 570 
Q 1363 391 1709 391 
Q 2188 391 2477 730 
Q 2766 1069 2766 1631 
L 2766 1759 
L 2194 1759 
z
M 3341 1997 
L 3341 0 
L 2766 0 
L 2766 531 
Q 2569 213 2275 61 
Q 1981 -91 1556 -91 
Q 1019 -91 701 211 
Q 384 513 384 1019 
Q 384 1609 779 1909 
Q 1175 2209 1959 2209 
L 2766 2209 
L 2766 2266 
Q 2766 2663 2505 2880 
Q 2244 3097 1772 3097 
Q 1472 3097 1187 3025 
Q 903 2953 641 2809 
L 641 3341 
Q 956 3463 1253 3523 
Q 1550 3584 1831 3584 
Q 2591 3584 2966 3190 
Q 3341 2797 3341 1997 
z
" transform="scale(0.015625)"/>
       <path id="DejaVuSans-6e" d="M 3513 2113 
L 3513 0 
L 2938 0 
L 2938 2094 
Q 2938 2591 2744 2837 
Q 2550 3084 2163 3084 
Q 1697 3084 1428 2787 
Q 1159 2491 1159 1978 
L 1159 0 
L 581 0 
L 581 3500 
L 1159 3500 
L 1159 2956 
Q 1366 3272 1645 3428 
Q 1925 3584 2291 3584 
Q 2894 3584 3203 3211 
Q 3513 2838 3513 2113 
z
" transform="scale(0.015625)"/>
       <path id="DejaVuSans-64" d="M 2906 2969 
L 2906 4863 
L 3481 4863 
L 3481 0 
L 2906 0 
L 2906 525 
Q 2725 213 2448 61 
Q 2172 -91 1784 -91 
Q 1150 -91 751 415 
Q 353 922 353 1747 
Q 353 2572 751 3078 
Q 1150 3584 1784 3584 
Q 2172 3584 2448 3432 
Q 2725 3281 2906 2969 
z
M 947 1747 
Q 947 1113 1208 752 
Q 1469 391 1925 391 
Q 2381 391 2643 752 
Q 2906 1113 2906 1747 
Q 2906 2381 2643 2742 
Q 2381 3103 1925 3103 
Q 1469 3103 1208 2742 
Q 947 2381 947 1747 
z
" transform="scale(0.015625)"/>
       <path id="DejaVuSans-73" d="M 2834 3397 
L 2834 2853 
Q 2591 2978 2328 3040 
Q 2066 3103 1784 3103 
Q 1356 3103 1142 2972 
Q 928 2841 928 2578 
Q 928 2378 1081 2264 
Q 1234 2150 1697 2047 
L 1894 2003 
Q 2506 1872 2764 1633 
Q 3022 1394 3022 966 
Q 3022 478 2636 193 
Q 2250 -91 1575 -91 
Q 1294 -91 989 -36 
Q 684 19 347 128 
L 347 722 
Q 666 556 975 473 
Q 1284 391 1588 391 
Q 1994 391 2212 530 
Q 2431 669 2431 922 
Q 2431 1156 2273 1281 
Q 2116 1406 1581 1522 
L 1381 1569 
Q 847 1681 609 1914 
Q 372 2147 372 2553 
Q 372 3047 722 3315 
Q 1072 3584 1716 3584 
Q 2034 3584 2315 3537 
Q 2597 3491 2834 3397 
z
" transform="scale(0.015625)"/>
       <path id="DejaVuSans-6b" d="M 581 4863 
L 1159 4863 
L 1159 1991 
L 2875 3500 
L 3609 3500 
L 1753 1863 
L 3688 0 
L 2938 0 
L 1159 1709 
L 1159 0 
L 581 0 
L 581 4863 
z
" transform="scale(0.015625)"/>
       <path id="DejaVuSans-65" d="M 3597 1894 
L 3597 1613 
L 953 1613 
Q 991 1019 1311 708 
Q 1631 397 2203 397 
Q 2534 397 2845 478 
Q 3156 559 3463 722 
L 3463 178 
Q 3153 47 2828 -22 
Q 2503 -91 2169 -91 
Q 1331 -91 842 396 
Q 353 884 353 1716 
Q 353 2575 817 3079 
Q 1281 3584 2069 3584 
Q 2775 3584 3186 3129 
Q 3597 2675 3597 1894 
z
M 3022 2063 
Q 3016 2534 2758 2815 
Q 2500 3097 2075 3097 
Q 1594 3097 1305 2825 
Q 1016 2553 972 2059 
L 3022 2063 
z
" transform="scale(0.015625)"/>
       <path id="DejaVuSans-20" transform="scale(0.015625)"/>
       <path id="DejaVuSans-75" d="M 544 1381 
L 544 3500 
L 1119 3500 
L 1119 1403 
Q 1119 906 1312 657 
Q 1506 409 1894 409 
Q 2359 409 2629 706 
Q 2900 1003 2900 1516 
L 2900 3500 
L 3475 3500 
L 3475 0 
L 2900 0 
L 2900 538 
Q 2691 219 2414 64 
Q 2138 -91 1772 -91 
Q 1169 -91 856 284 
Q 544 659 544 1381 
z
M 1991 3584 
L 1991 3584 
z
" transform="scale(0.015625)"/>
       <path id="DejaVuSans-72" d="M 2631 2963 
Q 2534 3019 2420 3045 
Q 2306 3072 2169 3072 
Q 1681 3072 1420 2755 
Q 1159 2438 1159 1844 
L 1159 0 
L 581 0 
L 581 3500 
L 1159 3500 
L 1159 2956 
Q 1341 3275 1631 3429 
Q 1922 3584 2338 3584 
Q 2397 3584 2469 3576 
Q 2541 3569 2628 3553 
L 2631 2963 
z
" transform="scale(0.015625)"/>
       <path id="DejaVuSans-74" d="M 1172 4494 
L 1172 3500 
L 2356 3500 
L 2356 3053 
L 1172 3053 
L 1172 1153 
Q 1172 725 1289 603 
Q 1406 481 1766 481 
L 2356 481 
L 2356 0 
L 1766 0 
Q 1100 0 847 248 
Q 594 497 594 1153 
L 594 3053 
L 172 3053 
L 172 3500 
L 594 3500 
L 594 4494 
L 1172 4494 
z
" transform="scale(0.015625)"/>
       <path id="DejaVuSans-69" d="M 603 3500 
L 1178 3500 
L 1178 0 
L 603 0 
L 603 3500 
z
M 603 4863 
L 1178 4863 
L 1178 4134 
L 603 4134 
L 603 4863 
z
" transform="scale(0.015625)"/>
       <path id="DejaVuSans-6f" d="M 1959 3097 
Q 1497 3097 1228 2736 
Q 959 2375 959 1747 
Q 959 1119 1226 758 
Q 1494 397 1959 397 
Q 2419 397 2687 759 
Q 2956 1122 2956 1747 
Q 2956 2369 2687 2733 
Q 2419 3097 1959 3097 
z
M 1959 3584 
Q 2709 3584 3137 3096 
Q 3566 2609 3566 1747 
Q 3566 888 3137 398 
Q 2709 -91 1959 -91 
Q 1206 -91 779 398 
Q 353 888 353 1747 
Q 353 2609 779 3096 
Q 1206 3584 1959 3584 
z
" transform="scale(0.015625)"/>
       <path id="DejaVuSans-28" d="M 1984 4856 
Q 1566 4138 1362 3434 
Q 1159 2731 1159 2009 
Q 1159 1288 1364 580 
Q 1569 -128 1984 -844 
L 1484 -844 
Q 1016 -109 783 600 
Q 550 1309 550 2009 
Q 550 2706 781 3412 
Q 1013 4119 1484 4856 
L 1984 4856 
z
" transform="scale(0.015625)"/>
       <path id="DejaVuSans-6d" d="M 3328 2828 
Q 3544 3216 3844 3400 
Q 4144 3584 4550 3584 
Q 5097 3584 5394 3201 
Q 5691 2819 5691 2113 
L 5691 0 
L 5113 0 
L 5113 2094 
Q 5113 2597 4934 2840 
Q 4756 3084 4391 3084 
Q 3944 3084 3684 2787 
Q 3425 2491 3425 1978 
L 3425 0 
L 2847 0 
L 2847 2094 
Q 2847 2600 2669 2842 
Q 2491 3084 2119 3084 
Q 1678 3084 1418 2786 
Q 1159 2488 1159 1978 
L 1159 0 
L 581 0 
L 581 3500 
L 1159 3500 
L 1159 2956 
Q 1356 3278 1631 3431 
Q 1906 3584 2284 3584 
Q 2666 3584 2933 3390 
Q 3200 3197 3328 2828 
z
" transform="scale(0.015625)"/>
       <path id="DejaVuSans-29" d="M 513 4856 
L 1013 4856 
Q 1481 4119 1714 3412 
Q 1947 2706 1947 2009 
Q 1947 1309 1714 600 
Q 1481 -109 1013 -844 
L 513 -844 
Q 928 -128 1133 580 
Q 1338 1288 1338 2009 
Q 1338 2731 1133 3434 
Q 928 4138 513 4856 
z
" transform="scale(0.015625)"/>
      </defs>
      <use xlink:href="#DejaVuSans-48"/>
      <use xlink:href="#DejaVuSans-61" x="75.195312"/>
      <use xlink:href="#DejaVuSans-6e" x="136.474609"/>
      <use xlink:href="#DejaVuSans-64" x="199.853516"/>
      <use xlink:href="#DejaVuSans-73" x="263.330078"/>
      <use xlink:href="#DejaVuSans-68" x="315.429688"/>
      <use xlink:href="#DejaVuSans-61" x="378.808594"/>
      <use xlink:href="#DejaVuSans-6b" x="440.087891"/>
      <use xlink:href="#DejaVuSans-65" x="494.373047"/>
      <use xlink:href="#DejaVuSans-20" x="555.896484"/>
      <use xlink:href="#DejaVuSans-64" x="587.683594"/>
      <use xlink:href="#DejaVuSans-75" x="651.160156"/>
      <use xlink:href="#DejaVuSans-72" x="714.539062"/>
      <use xlink:href="#DejaVuSans-61" x="755.652344"/>
      <use xlink:href="#DejaVuSans-74" x="816.931641"/>
      <use xlink:href="#DejaVuSans-69" x="856.140625"/>
      <use xlink:href="#DejaVuSans-6f" x="883.923828"/>
      <use xlink:href="#DejaVuSans-6e" x="945.105469"/>
      <use xlink:href="#DejaVuSans-20" x="1008.484375"/>
      <use xlink:href="#DejaVuSans-28" x="1040.271484"/>
      <use xlink:href="#DejaVuSans-6d" x="1079.285156"/>
      <use xlink:href="#DejaVuSans-73" x="1176.697266"/>
      <use xlink:href="#DejaVuSans-29" x="1228.796875"/>
     </g>
    </g>
   </g>
   <g id="PolyCollection_1">
    <defs>
     <path id="m85b7e30e4e" d="M 145.382723 -74.302074 
L 129.801277 -74.302074 
L 109.771715 -77.300105 
L 81.629547 -80.298137 
L 74.1744 -83.296168 
L 97.103821 -86.294199 
L 123.028009 -89.29223 
L 134.640143 -92.290262 
L 137.254866 -95.288293 
L 137.570301 -98.286324 
L 137.591213 -101.284356 
L 137.591984 -104.282387 
L 137.592 -107.280418 
L 137.592 -110.278449 
L 137.592 -113.276481 
L 137.592 -116.274512 
L 137.592 -119.272543 
L 137.592 -122.270575 
L 137.592 -125.268606 
L 137.592 -128.266637 
L 137.592 -131.264668 
L 137.592 -134.2627 
L 137.592 -137.260731 
L 137.592 -140.258762 
L 137.592 -143.256794 
L 137.592 -146.254825 
L 137.592 -149.252856 
L 137.592 -152.250887 
L 137.592 -155.248919 
L 137.592 -158.24695 
L 137.592 -161.244981 
L 137.592 -164.243013 
L 137.592 -167.241044 
L 137.592 -170.239075 
L 137.592 -173.237106 
L 137.592 -176.235138 
L 137.592 -179.233169 
L 137.592 -182.2312 
L 137.592 -185.229231 
L 137.592 -188.227263 
L 137.592 -191.225294 
L 137.592 -194.223325 
L 137.592 -197.221357 
L 137.592 -200.219388 
L 137.592 -203.217419 
L 137.592 -206.21545 
L 137.592 -209.213482 
L 137.592 -212.211513 
L 137.592 -215.209544 
L 137.592 -218.207576 
L 137.592 -221.205607 
L 137.592 -224.203638 
L 137.592 -227.201669 
L 137.592 -230.199701 
L 137.592 -233.197732 
L 137.592 -236.195763 
L 137.592 -239.193795 
L 137.592 -242.191826 
L 137.592 -245.189857 
L 137.592 -248.187888 
L 137.592 -251.18592 
L 137.592 -254.183951 
L 137.592 -257.181982 
L 137.592 -260.180014 
L 137.592 -263.178045 
L 137.592 -266.176076 
L 137.592 -269.174107 
L 137.592 -272.172139 
L 137.592 -275.17017 
L 137.592 -278.168201 
L 137.592 -281.166233 
L 137.592 -284.164264 
L 137.592 -287.162295 
L 137.592 -290.160326 
L 137.592 -293.158358 
L 137.592 -296.156389 
L 137.592 -299.15442 
L 137.592 -302.152452 
L 137.592 -305.150483 
L 137.592 -308.148514 
L 137.592 -311.146545 
L 137.592 -314.144577 
L 137.592 -317.142608 
L 137.592 -320.140639 
L 137.592 -323.138671 
L 137.592 -326.136702 
L 137.592 -329.134733 
L 137.592 -332.132764 
L 137.592 -335.130796 
L 137.592 -338.128827 
L 137.592 -341.126858 
L 137.591999 -344.12489 
L 137.591963 -347.122921 
L 137.591398 -350.120952 
L 137.58645 -353.118983 
L 137.563204 -356.117015 
L 137.507939 -359.115046 
L 137.453934 -362.113077 
L 137.464413 -365.111109 
L 137.525663 -368.10914 
L 137.572594 -371.107171 
L 137.611406 -371.107171 
L 137.611406 -371.107171 
L 137.658337 -368.10914 
L 137.719587 -365.111109 
L 137.730066 -362.113077 
L 137.676061 -359.115046 
L 137.620796 -356.117015 
L 137.59755 -353.118983 
L 137.592602 -350.120952 
L 137.592037 -347.122921 
L 137.592001 -344.12489 
L 137.592 -341.126858 
L 137.592 -338.128827 
L 137.592 -335.130796 
L 137.592 -332.132764 
L 137.592 -329.134733 
L 137.592 -326.136702 
L 137.592 -323.138671 
L 137.592 -320.140639 
L 137.592 -317.142608 
L 137.592 -314.144577 
L 137.592 -311.146545 
L 137.592 -308.148514 
L 137.592 -305.150483 
L 137.592 -302.152452 
L 137.592 -299.15442 
L 137.592 -296.156389 
L 137.592 -293.158358 
L 137.592 -290.160326 
L 137.592 -287.162295 
L 137.592 -284.164264 
L 137.592 -281.166233 
L 137.592 -278.168201 
L 137.592 -275.17017 
L 137.592 -272.172139 
L 137.592 -269.174107 
L 137.592 -266.176076 
L 137.592 -263.178045 
L 137.592 -260.180014 
L 137.592 -257.181982 
L 137.592 -254.183951 
L 137.592 -251.18592 
L 137.592 -248.187888 
L 137.592 -245.189857 
L 137.592 -242.191826 
L 137.592 -239.193795 
L 137.592 -236.195763 
L 137.592 -233.197732 
L 137.592 -230.199701 
L 137.592 -227.201669 
L 137.592 -224.203638 
L 137.592 -221.205607 
L 137.592 -218.207576 
L 137.592 -215.209544 
L 137.592 -212.211513 
L 137.592 -209.213482 
L 137.592 -206.21545 
L 137.592 -203.217419 
L 137.592 -200.219388 
L 137.592 -197.221357 
L 137.592 -194.223325 
L 137.592 -191.225294 
L 137.592 -188.227263 
L 137.592 -185.229231 
L 137.592 -182.2312 
L 137.592 -179.233169 
L 137.592 -176.235138 
L 137.592 -173.237106 
L 137.592 -170.239075 
L 137.592 -167.241044 
L 137.592 -164.243013 
L 137.592 -161.244981 
L 137.592 -158.24695 
L 137.592 -155.248919 
L 137.592 -152.250887 
L 137.592 -149.252856 
L 137.592 -146.254825 
L 137.592 -143.256794 
L 137.592 -140.258762 
L 137.592 -137.260731 
L 137.592 -134.2627 
L 137.592 -131.264668 
L 137.592 -128.266637 
L 137.592 -125.268606 
L 137.592 -122.270575 
L 137.592 -119.272543 
L 137.592 -116.274512 
L 137.592 -113.276481 
L 137.592 -110.278449 
L 137.592 -107.280418 
L 137.592016 -104.282387 
L 137.592787 -101.284356 
L 137.613699 -98.286324 
L 137.929134 -95.288293 
L 140.543857 -92.290262 
L 152.155991 -89.29223 
L 178.080179 -86.294199 
L 201.0096 -83.296168 
L 193.554453 -80.298137 
L 165.412285 -77.300105 
L 145.382723 -74.302074 
z
" style="stroke: #595959; stroke-width: 1.25"/>
    </defs>
    <g clip-path="url(#pb0ce261c9a)">
     <use xlink:href="#m85b7e30e4e" x="0" y="432" style="fill: #72b6a1; stroke: #595959; stroke-width: 1.25"/>
    </g>
   </g>
   <g id="PolyCollection_2">
    <defs>
     <path id="m32e8e40465" d="M 296.40478 -81.961661 
L 295.86722 -81.961661 
L 295.651294 -81.971608 
L 295.29246 -81.981556 
L 294.719057 -81.991504 
L 293.838198 -82.001451 
L 292.537672 -82.011399 
L 290.692812 -82.021347 
L 288.179387 -82.031294 
L 284.892457 -82.041242 
L 280.769551 -82.05119 
L 275.814736 -82.061137 
L 270.118755 -82.071085 
L 263.869809 -82.081033 
L 257.350338 -82.09098 
L 250.917369 -82.100928 
L 244.967329 -82.110875 
L 239.890058 -82.120823 
L 236.019821 -82.130771 
L 233.592651 -82.140718 
L 232.7184 -82.150666 
L 233.372726 -82.160614 
L 235.409653 -82.170561 
L 238.590695 -82.180509 
L 242.623299 -82.190457 
L 247.200323 -82.200404 
L 252.033487 -82.210352 
L 256.876446 -82.2203 
L 261.536301 -82.230247 
L 265.875021 -82.240195 
L 269.803872 -82.250142 
L 273.274428 -82.26009 
L 276.269299 -82.270038 
L 278.794656 -82.279985 
L 280.875292 -82.289933 
L 282.551713 -82.299881 
L 283.877926 -82.309828 
L 284.91841 -82.319776 
L 285.743231 -82.329724 
L 286.42128 -82.339671 
L 287.012601 -82.349619 
L 287.561481 -82.359566 
L 288.092024 -82.369514 
L 288.607328 -82.379462 
L 289.092458 -82.389409 
L 289.520481 -82.399357 
L 289.8602 -82.409305 
L 290.08412 -82.419252 
L 290.175377 -82.4292 
L 290.132688 -82.439148 
L 289.972746 -82.449095 
L 289.729649 -82.459043 
L 289.451197 -82.468991 
L 289.192258 -82.478938 
L 289.005943 -82.488886 
L 288.934028 -82.498833 
L 288.998529 -82.508781 
L 289.196425 -82.518729 
L 289.49903 -82.528676 
L 289.856551 -82.538624 
L 290.207194 -82.548572 
L 290.489115 -82.558519 
L 290.652843 -82.568467 
L 290.671635 -82.578415 
L 290.547589 -82.588362 
L 290.312139 -82.59831 
L 290.020663 -82.608258 
L 289.742207 -82.618205 
L 289.546444 -82.628153 
L 289.490735 -82.6381 
L 289.610164 -82.648048 
L 289.912667 -82.657996 
L 290.380006 -82.667943 
L 290.973783 -82.677891 
L 291.644461 -82.687839 
L 292.340868 -82.697786 
L 293.017962 -82.707734 
L 293.64158 -82.717682 
L 294.189965 -82.727629 
L 294.652738 -82.737577 
L 295.028451 -82.747524 
L 295.321748 -82.757472 
L 295.5409 -82.76742 
L 295.696035 -82.777367 
L 295.798034 -82.787315 
L 295.857933 -82.797263 
L 295.886563 -82.80721 
L 295.894243 -82.817158 
L 295.890414 -82.827106 
L 295.883192 -82.837053 
L 295.878904 -82.847001 
L 295.881727 -82.856949 
L 295.893555 -82.866896 
L 295.914165 -82.876844 
L 295.94168 -82.886791 
L 295.973239 -82.896739 
L 296.005726 -82.906687 
L 296.036391 -82.916634 
L 296.063254 -82.926582 
L 296.08526 -82.93653 
L 296.102201 -82.946477 
L 296.169799 -82.946477 
L 296.169799 -82.946477 
L 296.18674 -82.93653 
L 296.208746 -82.926582 
L 296.235609 -82.916634 
L 296.266274 -82.906687 
L 296.298761 -82.896739 
L 296.33032 -82.886791 
L 296.357835 -82.876844 
L 296.378445 -82.866896 
L 296.390273 -82.856949 
L 296.393096 -82.847001 
L 296.388808 -82.837053 
L 296.381586 -82.827106 
L 296.377757 -82.817158 
L 296.385437 -82.80721 
L 296.414067 -82.797263 
L 296.473966 -82.787315 
L 296.575965 -82.777367 
L 296.7311 -82.76742 
L 296.950252 -82.757472 
L 297.243549 -82.747524 
L 297.619262 -82.737577 
L 298.082035 -82.727629 
L 298.63042 -82.717682 
L 299.254038 -82.707734 
L 299.931132 -82.697786 
L 300.627539 -82.687839 
L 301.298217 -82.677891 
L 301.891994 -82.667943 
L 302.359333 -82.657996 
L 302.661836 -82.648048 
L 302.781265 -82.6381 
L 302.725556 -82.628153 
L 302.529793 -82.618205 
L 302.251337 -82.608258 
L 301.959861 -82.59831 
L 301.724411 -82.588362 
L 301.600365 -82.578415 
L 301.619157 -82.568467 
L 301.782885 -82.558519 
L 302.064806 -82.548572 
L 302.415449 -82.538624 
L 302.77297 -82.528676 
L 303.075575 -82.518729 
L 303.273471 -82.508781 
L 303.337972 -82.498833 
L 303.266057 -82.488886 
L 303.079742 -82.478938 
L 302.820803 -82.468991 
L 302.542351 -82.459043 
L 302.299254 -82.449095 
L 302.139312 -82.439148 
L 302.096623 -82.4292 
L 302.18788 -82.419252 
L 302.4118 -82.409305 
L 302.751519 -82.399357 
L 303.179542 -82.389409 
L 303.664672 -82.379462 
L 304.179976 -82.369514 
L 304.710519 -82.359566 
L 305.259399 -82.349619 
L 305.85072 -82.339671 
L 306.528769 -82.329724 
L 307.35359 -82.319776 
L 308.394074 -82.309828 
L 309.720287 -82.299881 
L 311.396708 -82.289933 
L 313.477344 -82.279985 
L 316.002701 -82.270038 
L 318.997572 -82.26009 
L 322.468128 -82.250142 
L 326.396979 -82.240195 
L 330.735699 -82.230247 
L 335.395554 -82.2203 
L 340.238513 -82.210352 
L 345.071677 -82.200404 
L 349.648701 -82.190457 
L 353.681305 -82.180509 
L 356.862347 -82.170561 
L 358.899274 -82.160614 
L 359.5536 -82.150666 
L 358.679349 -82.140718 
L 356.252179 -82.130771 
L 352.381942 -82.120823 
L 347.304671 -82.110875 
L 341.354631 -82.100928 
L 334.921662 -82.09098 
L 328.402191 -82.081033 
L 322.153245 -82.071085 
L 316.457264 -82.061137 
L 311.502449 -82.05119 
L 307.379543 -82.041242 
L 304.092613 -82.031294 
L 301.579188 -82.021347 
L 299.734328 -82.011399 
L 298.433802 -82.001451 
L 297.552943 -81.991504 
L 296.97954 -81.981556 
L 296.620706 -81.971608 
L 296.40478 -81.961661 
z
" style="stroke: #595959; stroke-width: 1.25"/>
    </defs>
    <g clip-path="url(#pb0ce261c9a)">
     <use xlink:href="#m32e8e40465" x="0" y="432" style="fill: #e99675; stroke: #595959; stroke-width: 1.25"/>
    </g>
   </g>
   <g id="PolyCollection_3">
    <defs>
     <path id="m1c1de8ed12" d="M 461.480908 -83.826994 
L 447.879092 -83.826994 
L 430.56865 -86.831857 
L 404.238789 -89.836721 
L 391.2624 -92.841585 
L 405.037555 -95.846448 
L 428.99817 -98.851312 
L 445.231635 -101.856175 
L 452.101024 -104.861039 
L 454.169805 -107.865903 
L 454.611251 -110.870766 
L 454.674045 -113.87563 
L 454.679681 -116.880494 
L 454.67999 -119.885357 
L 454.68 -122.890221 
L 454.68 -125.895084 
L 454.68 -128.899948 
L 454.68 -131.904812 
L 454.68 -134.909675 
L 454.68 -137.914539 
L 454.68 -140.919402 
L 454.68 -143.924266 
L 454.68 -146.92913 
L 454.68 -149.933993 
L 454.68 -152.938857 
L 454.68 -155.943721 
L 454.68 -158.948584 
L 454.68 -161.953448 
L 454.68 -164.958311 
L 454.68 -167.963175 
L 454.68 -170.968039 
L 454.68 -173.972902 
L 454.68 -176.977766 
L 454.68 -179.982629 
L 454.68 -182.987493 
L 454.68 -185.992357 
L 454.68 -188.99722 
L 454.68 -192.002084 
L 454.68 -195.006948 
L 454.68 -198.011811 
L 454.68 -201.016675 
L 454.68 -204.021538 
L 454.68 -207.026402 
L 454.68 -210.031266 
L 454.68 -213.036129 
L 454.68 -216.040993 
L 454.68 -219.045856 
L 454.68 -222.05072 
L 454.68 -225.055584 
L 454.68 -228.060447 
L 454.68 -231.065311 
L 454.68 -234.070175 
L 454.68 -237.075038 
L 454.68 -240.079902 
L 454.68 -243.084765 
L 454.68 -246.089629 
L 454.68 -249.094493 
L 454.68 -252.099356 
L 454.68 -255.10422 
L 454.68 -258.109083 
L 454.68 -261.113947 
L 454.68 -264.118811 
L 454.68 -267.123674 
L 454.68 -270.128538 
L 454.68 -273.133402 
L 454.68 -276.138265 
L 454.68 -279.143129 
L 454.68 -282.147992 
L 454.68 -285.152856 
L 454.68 -288.15772 
L 454.68 -291.162583 
L 454.68 -294.167447 
L 454.68 -297.17231 
L 454.68 -300.177174 
L 454.68 -303.182038 
L 454.68 -306.186901 
L 454.68 -309.191765 
L 454.68 -312.196629 
L 454.68 -315.201492 
L 454.68 -318.206356 
L 454.68 -321.211219 
L 454.68 -324.216083 
L 454.68 -327.220947 
L 454.68 -330.22581 
L 454.68 -333.230674 
L 454.68 -336.235537 
L 454.68 -339.240401 
L 454.68 -342.245265 
L 454.68 -345.250128 
L 454.68 -348.254992 
L 454.68 -351.259856 
L 454.679997 -354.264719 
L 454.679925 -357.269583 
L 454.678974 -360.274446 
L 454.671833 -363.27931 
L 454.642381 -366.284174 
L 454.579676 -369.289037 
L 454.525104 -372.293901 
L 454.541545 -375.298765 
L 454.60835 -378.303628 
L 454.658534 -381.308492 
L 454.701466 -381.308492 
L 454.701466 -381.308492 
L 454.75165 -378.303628 
L 454.818455 -375.298765 
L 454.834896 -372.293901 
L 454.780324 -369.289037 
L 454.717619 -366.284174 
L 454.688167 -363.27931 
L 454.681026 -360.274446 
L 454.680075 -357.269583 
L 454.680003 -354.264719 
L 454.68 -351.259856 
L 454.68 -348.254992 
L 454.68 -345.250128 
L 454.68 -342.245265 
L 454.68 -339.240401 
L 454.68 -336.235537 
L 454.68 -333.230674 
L 454.68 -330.22581 
L 454.68 -327.220947 
L 454.68 -324.216083 
L 454.68 -321.211219 
L 454.68 -318.206356 
L 454.68 -315.201492 
L 454.68 -312.196629 
L 454.68 -309.191765 
L 454.68 -306.186901 
L 454.68 -303.182038 
L 454.68 -300.177174 
L 454.68 -297.17231 
L 454.68 -294.167447 
L 454.68 -291.162583 
L 454.68 -288.15772 
L 454.68 -285.152856 
L 454.68 -282.147992 
L 454.68 -279.143129 
L 454.68 -276.138265 
L 454.68 -273.133402 
L 454.68 -270.128538 
L 454.68 -267.123674 
L 454.68 -264.118811 
L 454.68 -261.113947 
L 454.68 -258.109083 
L 454.68 -255.10422 
L 454.68 -252.099356 
L 454.68 -249.094493 
L 454.68 -246.089629 
L 454.68 -243.084765 
L 454.68 -240.079902 
L 454.68 -237.075038 
L 454.68 -234.070175 
L 454.68 -231.065311 
L 454.68 -228.060447 
L 454.68 -225.055584 
L 454.68 -222.05072 
L 454.68 -219.045856 
L 454.68 -216.040993 
L 454.68 -213.036129 
L 454.68 -210.031266 
L 454.68 -207.026402 
L 454.68 -204.021538 
L 454.68 -201.016675 
L 454.68 -198.011811 
L 454.68 -195.006948 
L 454.68 -192.002084 
L 454.68 -188.99722 
L 454.68 -185.992357 
L 454.68 -182.987493 
L 454.68 -179.982629 
L 454.68 -176.977766 
L 454.68 -173.972902 
L 454.68 -170.968039 
L 454.68 -167.963175 
L 454.68 -164.958311 
L 454.68 -161.953448 
L 454.68 -158.948584 
L 454.68 -155.943721 
L 454.68 -152.938857 
L 454.68 -149.933993 
L 454.68 -146.92913 
L 454.68 -143.924266 
L 454.68 -140.919402 
L 454.68 -137.914539 
L 454.68 -134.909675 
L 454.68 -131.904812 
L 454.68 -128.899948 
L 454.68 -125.895084 
L 454.68 -122.890221 
L 454.68001 -119.885357 
L 454.680319 -116.880494 
L 454.685955 -113.87563 
L 454.748749 -110.870766 
L 455.190195 -107.865903 
L 457.258976 -104.861039 
L 464.128365 -101.856175 
L 480.36183 -98.851312 
L 504.322445 -95.846448 
L 518.0976 -92.841585 
L 505.121211 -89.836721 
L 478.79135 -86.831857 
L 461.480908 -83.826994 
z
" style="stroke: #595959; stroke-width: 1.25"/>
    </defs>
    <g clip-path="url(#pb0ce261c9a)">
     <use xlink:href="#m1c1de8ed12" x="0" y="432" style="fill: #95a3c3; stroke: #595959; stroke-width: 1.25"/>
    </g>
   </g>
   <g id="PolyCollection_4">
    <defs>
     <path id="mda0853d9bd" d="M 619.87774 -88.572082 
L 606.57026 -88.572082 
L 589.254557 -91.603486 
L 562.661269 -94.63489 
L 549.8064 -97.666293 
L 563.828122 -100.697697 
L 586.450624 -103.729101 
L 600.971506 -106.760505 
L 608.048911 -109.791908 
L 611.44275 -112.823312 
L 612.789531 -115.854716 
L 613.154475 -118.886119 
L 613.21703 -121.917523 
L 613.223576 -124.948927 
L 613.223985 -127.980331 
L 613.224 -131.011734 
L 613.224 -134.043138 
L 613.224 -137.074542 
L 613.224 -140.105946 
L 613.224 -143.137349 
L 613.224 -146.168753 
L 613.224 -149.200157 
L 613.224 -152.23156 
L 613.224 -155.262964 
L 613.224 -158.294368 
L 613.224 -161.325772 
L 613.224 -164.357175 
L 613.224 -167.388579 
L 613.224 -170.419983 
L 613.224 -173.451387 
L 613.224 -176.48279 
L 613.224 -179.514194 
L 613.224 -182.545598 
L 613.224 -185.577001 
L 613.224 -188.608405 
L 613.224 -191.639809 
L 613.224 -194.671213 
L 613.224 -197.702616 
L 613.224 -200.73402 
L 613.224 -203.765424 
L 613.224 -206.796828 
L 613.224 -209.828231 
L 613.224 -212.859635 
L 613.224 -215.891039 
L 613.224 -218.922442 
L 613.224 -221.953846 
L 613.224 -224.98525 
L 613.224 -228.016654 
L 613.224 -231.048057 
L 613.224 -234.079461 
L 613.224 -237.110865 
L 613.224 -240.142269 
L 613.224 -243.173672 
L 613.224 -246.205076 
L 613.224 -249.23648 
L 613.224 -252.267883 
L 613.224 -255.299287 
L 613.224 -258.330691 
L 613.224 -261.362095 
L 613.224 -264.393498 
L 613.224 -267.424902 
L 613.224 -270.456306 
L 613.224 -273.48771 
L 613.224 -276.519113 
L 613.224 -279.550517 
L 613.224 -282.581921 
L 613.224 -285.613324 
L 613.224 -288.644728 
L 613.224 -291.676132 
L 613.224 -294.707536 
L 613.224 -297.738939 
L 613.224 -300.770343 
L 613.224 -303.801747 
L 613.224 -306.833151 
L 613.224 -309.864554 
L 613.224 -312.895958 
L 613.224 -315.927362 
L 613.224 -318.958765 
L 613.224 -321.990169 
L 613.224 -325.021573 
L 613.224 -328.052977 
L 613.224 -331.08438 
L 613.224 -334.115784 
L 613.224 -337.147188 
L 613.224 -340.178592 
L 613.224 -343.209995 
L 613.224 -346.241399 
L 613.224 -349.272803 
L 613.224 -352.304206 
L 613.224 -355.33561 
L 613.224 -358.367014 
L 613.223997 -361.398418 
L 613.223926 -364.429821 
L 613.222971 -367.461225 
L 613.215778 -370.492629 
L 613.185994 -373.524033 
L 613.122375 -376.555436 
L 613.066813 -379.58684 
L 613.083361 -382.618244 
L 613.151211 -385.649647 
L 613.202208 -388.681051 
L 613.245792 -388.681051 
L 613.245792 -388.681051 
L 613.296789 -385.649647 
L 613.364639 -382.618244 
L 613.381187 -379.58684 
L 613.325625 -376.555436 
L 613.262006 -373.524033 
L 613.232222 -370.492629 
L 613.225029 -367.461225 
L 613.224074 -364.429821 
L 613.224003 -361.398418 
L 613.224 -358.367014 
L 613.224 -355.33561 
L 613.224 -352.304206 
L 613.224 -349.272803 
L 613.224 -346.241399 
L 613.224 -343.209995 
L 613.224 -340.178592 
L 613.224 -337.147188 
L 613.224 -334.115784 
L 613.224 -331.08438 
L 613.224 -328.052977 
L 613.224 -325.021573 
L 613.224 -321.990169 
L 613.224 -318.958765 
L 613.224 -315.927362 
L 613.224 -312.895958 
L 613.224 -309.864554 
L 613.224 -306.833151 
L 613.224 -303.801747 
L 613.224 -300.770343 
L 613.224 -297.738939 
L 613.224 -294.707536 
L 613.224 -291.676132 
L 613.224 -288.644728 
L 613.224 -285.613324 
L 613.224 -282.581921 
L 613.224 -279.550517 
L 613.224 -276.519113 
L 613.224 -273.48771 
L 613.224 -270.456306 
L 613.224 -267.424902 
L 613.224 -264.393498 
L 613.224 -261.362095 
L 613.224 -258.330691 
L 613.224 -255.299287 
L 613.224 -252.267883 
L 613.224 -249.23648 
L 613.224 -246.205076 
L 613.224 -243.173672 
L 613.224 -240.142269 
L 613.224 -237.110865 
L 613.224 -234.079461 
L 613.224 -231.048057 
L 613.224 -228.016654 
L 613.224 -224.98525 
L 613.224 -221.953846 
L 613.224 -218.922442 
L 613.224 -215.891039 
L 613.224 -212.859635 
L 613.224 -209.828231 
L 613.224 -206.796828 
L 613.224 -203.765424 
L 613.224 -200.73402 
L 613.224 -197.702616 
L 613.224 -194.671213 
L 613.224 -191.639809 
L 613.224 -188.608405 
L 613.224 -185.577001 
L 613.224 -182.545598 
L 613.224 -179.514194 
L 613.224 -176.48279 
L 613.224 -173.451387 
L 613.224 -170.419983 
L 613.224 -167.388579 
L 613.224 -164.357175 
L 613.224 -161.325772 
L 613.224 -158.294368 
L 613.224 -155.262964 
L 613.224 -152.23156 
L 613.224 -149.200157 
L 613.224 -146.168753 
L 613.224 -143.137349 
L 613.224 -140.105946 
L 613.224 -137.074542 
L 613.224 -134.043138 
L 613.224 -131.011734 
L 613.224015 -127.980331 
L 613.224424 -124.948927 
L 613.23097 -121.917523 
L 613.293525 -118.886119 
L 613.658469 -115.854716 
L 615.00525 -112.823312 
L 618.399089 -109.791908 
L 625.476494 -106.760505 
L 639.997376 -103.729101 
L 662.619878 -100.697697 
L 676.6416 -97.666293 
L 663.786731 -94.63489 
L 637.193443 -91.603486 
L 619.87774 -88.572082 
z
" style="stroke: #595959; stroke-width: 1.25"/>
    </defs>
    <g clip-path="url(#pb0ce261c9a)">
     <use xlink:href="#mda0853d9bd" x="0" y="432" style="fill: #db96c0; stroke: #595959; stroke-width: 1.25"/>
    </g>
   </g>
   <g id="PolyCollection_5">
    <defs>
     <path id="m6129b87484" d="M 774.816031 -91.615805 
L 768.719969 -91.615805 
L 766.490085 -91.76385 
L 763.121262 -91.911894 
L 758.362912 -92.059939 
L 752.09798 -92.207984 
L 744.443019 -92.356029 
L 735.82186 -92.504074 
L 726.974055 -92.652119 
L 718.871678 -92.800164 
L 712.547325 -92.948209 
L 708.872286 -93.096254 
L 708.3504 -93.244299 
L 710.995365 -93.392344 
L 716.333321 -93.540389 
L 723.52861 -93.688433 
L 731.588165 -93.836478 
L 739.577358 -93.984523 
L 746.784986 -94.132568 
L 752.801707 -94.280613 
L 757.51031 -94.428658 
L 761.013092 -94.576703 
L 763.53329 -94.724748 
L 765.324007 -94.872793 
L 766.605293 -95.020838 
L 767.535281 -95.168883 
L 768.209899 -95.316928 
L 768.679893 -95.464972 
L 768.973382 -95.613017 
L 769.114935 -95.761062 
L 769.136269 -95.909107 
L 769.077544 -96.057152 
L 768.981074 -96.205197 
L 768.880918 -96.353242 
L 768.792405 -96.501287 
L 768.705343 -96.649332 
L 768.583771 -96.797377 
L 768.373649 -96.945422 
L 768.017985 -97.093466 
L 767.476667 -97.241511 
L 766.746108 -97.389556 
L 765.872397 -97.537601 
L 764.952099 -97.685646 
L 764.117687 -97.833691 
L 763.509573 -97.981736 
L 763.242114 -98.129781 
L 763.374297 -98.277826 
L 763.895048 -98.425871 
L 764.728095 -98.573916 
L 765.754118 -98.721961 
L 766.84179 -98.870005 
L 767.87699 -99.01805 
L 768.781655 -99.166095 
L 769.518869 -99.31414 
L 770.086174 -99.462185 
L 770.502431 -99.61023 
L 770.794111 -99.758275 
L 770.985181 -99.90632 
L 771.092314 -100.054365 
L 771.125024 -100.20241 
L 771.089109 -100.350455 
L 770.991413 -100.498499 
L 770.844019 -100.646544 
L 770.666383 -100.794589 
L 770.484552 -100.942634 
L 770.327503 -101.090679 
L 770.221608 -101.238724 
L 770.185013 -101.386769 
L 770.223837 -101.534814 
L 770.331522 -101.682859 
L 770.491425 -101.830904 
L 770.681617 -101.978949 
L 770.880125 -102.126994 
L 771.069015 -102.275038 
L 771.236434 -102.423083 
L 771.376632 -102.571128 
L 771.488665 -102.719173 
L 771.574628 -102.867218 
L 771.638078 -103.015263 
L 771.682914 -103.163308 
L 771.71273 -103.311353 
L 771.730482 -103.459398 
L 771.738354 -103.607443 
L 771.73778 -103.755488 
L 771.729627 -103.903533 
L 771.714533 -104.051577 
L 771.693361 -104.199622 
L 771.667646 -104.347667 
L 771.639856 -104.495712 
L 771.613324 -104.643757 
L 771.591784 -104.791802 
L 771.578613 -104.939847 
L 771.576014 -105.087892 
L 771.58444 -105.235937 
L 771.602473 -105.383982 
L 771.62722 -105.532027 
L 771.655075 -105.680071 
L 771.682569 -105.828116 
L 771.707043 -105.976161 
L 771.726979 -106.124206 
L 771.741964 -106.272251 
L 771.794036 -106.272251 
L 771.794036 -106.272251 
L 771.809021 -106.124206 
L 771.828957 -105.976161 
L 771.853431 -105.828116 
L 771.880925 -105.680071 
L 771.90878 -105.532027 
L 771.933527 -105.383982 
L 771.95156 -105.235937 
L 771.959986 -105.087892 
L 771.957387 -104.939847 
L 771.944216 -104.791802 
L 771.922676 -104.643757 
L 771.896144 -104.495712 
L 771.868354 -104.347667 
L 771.842639 -104.199622 
L 771.821467 -104.051577 
L 771.806373 -103.903533 
L 771.79822 -103.755488 
L 771.797646 -103.607443 
L 771.805518 -103.459398 
L 771.82327 -103.311353 
L 771.853086 -103.163308 
L 771.897922 -103.015263 
L 771.961372 -102.867218 
L 772.047335 -102.719173 
L 772.159368 -102.571128 
L 772.299566 -102.423083 
L 772.466985 -102.275038 
L 772.655875 -102.126994 
L 772.854383 -101.978949 
L 773.044575 -101.830904 
L 773.204478 -101.682859 
L 773.312163 -101.534814 
L 773.350987 -101.386769 
L 773.314392 -101.238724 
L 773.208497 -101.090679 
L 773.051448 -100.942634 
L 772.869617 -100.794589 
L 772.691981 -100.646544 
L 772.544587 -100.498499 
L 772.446891 -100.350455 
L 772.410976 -100.20241 
L 772.443686 -100.054365 
L 772.550819 -99.90632 
L 772.741889 -99.758275 
L 773.033569 -99.61023 
L 773.449826 -99.462185 
L 774.017131 -99.31414 
L 774.754345 -99.166095 
L 775.65901 -99.01805 
L 776.69421 -98.870005 
L 777.781882 -98.721961 
L 778.807905 -98.573916 
L 779.640952 -98.425871 
L 780.161703 -98.277826 
L 780.293886 -98.129781 
L 780.026427 -97.981736 
L 779.418313 -97.833691 
L 778.583901 -97.685646 
L 777.663603 -97.537601 
L 776.789892 -97.389556 
L 776.059333 -97.241511 
L 775.518015 -97.093466 
L 775.162351 -96.945422 
L 774.952229 -96.797377 
L 774.830657 -96.649332 
L 774.743595 -96.501287 
L 774.655082 -96.353242 
L 774.554926 -96.205197 
L 774.458456 -96.057152 
L 774.399731 -95.909107 
L 774.421065 -95.761062 
L 774.562618 -95.613017 
L 774.856107 -95.464972 
L 775.326101 -95.316928 
L 776.000719 -95.168883 
L 776.930707 -95.020838 
L 778.211993 -94.872793 
L 780.00271 -94.724748 
L 782.522908 -94.576703 
L 786.02569 -94.428658 
L 790.734293 -94.280613 
L 796.751014 -94.132568 
L 803.958642 -93.984523 
L 811.947835 -93.836478 
L 820.00739 -93.688433 
L 827.202679 -93.540389 
L 832.540635 -93.392344 
L 835.1856 -93.244299 
L 834.663714 -93.096254 
L 830.988675 -92.948209 
L 824.664322 -92.800164 
L 816.561945 -92.652119 
L 807.71414 -92.504074 
L 799.092981 -92.356029 
L 791.43802 -92.207984 
L 785.173088 -92.059939 
L 780.414738 -91.911894 
L 777.045915 -91.76385 
L 774.816031 -91.615805 
z
" style="stroke: #595959; stroke-width: 1.25"/>
    </defs>
    <g clip-path="url(#pb0ce261c9a)">
     <use xlink:href="#m6129b87484" x="0" y="432" style="fill: #a2c865; stroke: #595959; stroke-width: 1.25"/>
    </g>
   </g>
   <g id="line2d_6">
    <path d="M 137.592 349.686181 
L 137.592 349.791369 
" clip-path="url(#pb0ce261c9a)" style="fill: none; stroke: #000000"/>
   </g>
   <g id="line2d_7">
    <path d="M 137.592 349.461781 
L 137.592 349.125179 
" clip-path="url(#pb0ce261c9a)" style="fill: none; stroke: #000000"/>
   </g>
   <g id="line2d_8">
    <path d="M 131.6466 349.791369 
L 143.5374 349.791369 
" clip-path="url(#pb0ce261c9a)" style="fill: none; stroke: #000000; stroke-linecap: round"/>
   </g>
   <g id="line2d_9">
    <path d="M 131.6466 349.125179 
L 143.5374 349.125179 
" clip-path="url(#pb0ce261c9a)" style="fill: none; stroke: #000000; stroke-linecap: round"/>
   </g>
   <g id="line2d_10">
    <path d="M 296.136 349.861495 
L 296.136 349.945645 
" clip-path="url(#pb0ce261c9a)" style="fill: none; stroke: #000000"/>
   </g>
   <g id="line2d_11">
    <path d="M 296.136 349.740529 
L 296.136 349.559956 
" clip-path="url(#pb0ce261c9a)" style="fill: none; stroke: #000000"/>
   </g>
   <g id="line2d_12">
    <path d="M 290.1906 349.945645 
L 302.0814 349.945645 
" clip-path="url(#pb0ce261c9a)" style="fill: none; stroke: #000000; stroke-linecap: round"/>
   </g>
   <g id="line2d_13">
    <path d="M 290.1906 349.559956 
L 302.0814 349.559956 
" clip-path="url(#pb0ce261c9a)" style="fill: none; stroke: #000000; stroke-linecap: round"/>
   </g>
   <g id="line2d_14">
    <path d="M 454.68 339.896693 
L 454.68 340.043956 
" clip-path="url(#pb0ce261c9a)" style="fill: none; stroke: #000000"/>
   </g>
   <g id="line2d_15">
    <path d="M 454.68 339.565351 
L 454.68 339.160377 
" clip-path="url(#pb0ce261c9a)" style="fill: none; stroke: #000000"/>
   </g>
   <g id="line2d_16">
    <path d="M 448.7346 340.043956 
L 460.6254 340.043956 
" clip-path="url(#pb0ce261c9a)" style="fill: none; stroke: #000000; stroke-linecap: round"/>
   </g>
   <g id="line2d_17">
    <path d="M 448.7346 339.160377 
L 460.6254 339.160377 
" clip-path="url(#pb0ce261c9a)" style="fill: none; stroke: #000000; stroke-linecap: round"/>
   </g>
   <g id="line2d_18">
    <path d="M 613.224 334.987923 
L 613.224 335.233362 
" clip-path="url(#pb0ce261c9a)" style="fill: none; stroke: #000000"/>
   </g>
   <g id="line2d_19">
    <path d="M 613.224 334.488281 
L 613.224 333.739694 
" clip-path="url(#pb0ce261c9a)" style="fill: none; stroke: #000000"/>
   </g>
   <g id="line2d_20">
    <path d="M 607.2786 335.233362 
L 619.1694 335.233362 
" clip-path="url(#pb0ce261c9a)" style="fill: none; stroke: #000000; stroke-linecap: round"/>
   </g>
   <g id="line2d_21">
    <path d="M 607.2786 333.739694 
L 619.1694 333.739694 
" clip-path="url(#pb0ce261c9a)" style="fill: none; stroke: #000000; stroke-linecap: round"/>
   </g>
   <g id="line2d_22">
    <path d="M 771.768 338.921952 
L 771.768 339.160377 
" clip-path="url(#pb0ce261c9a)" style="fill: none; stroke: #000000"/>
   </g>
   <g id="line2d_23">
    <path d="M 771.768 338.352184 
L 771.768 337.498408 
" clip-path="url(#pb0ce261c9a)" style="fill: none; stroke: #000000"/>
   </g>
   <g id="line2d_24">
    <path d="M 765.8226 339.160377 
L 777.7134 339.160377 
" clip-path="url(#pb0ce261c9a)" style="fill: none; stroke: #000000; stroke-linecap: round"/>
   </g>
   <g id="line2d_25">
    <path d="M 765.8226 337.498408 
L 777.7134 337.498408 
" clip-path="url(#pb0ce261c9a)" style="fill: none; stroke: #000000; stroke-linecap: round"/>
   </g>
   <g id="line2d_26">
    <path d="M 125.7012 349.630081 
L 149.4828 349.630081 
" clip-path="url(#pb0ce261c9a)" style="fill: none; stroke: #ff0000; stroke-width: 2"/>
   </g>
   <g id="line2d_27">
    <path d="M 284.2452 349.826432 
L 308.0268 349.826432 
" clip-path="url(#pb0ce261c9a)" style="fill: none; stroke: #ff0000; stroke-width: 2"/>
   </g>
   <g id="line2d_28">
    <path d="M 442.7892 339.80553 
L 466.5708 339.80553 
" clip-path="url(#pb0ce261c9a)" style="fill: none; stroke: #ff0000; stroke-width: 2"/>
   </g>
   <g id="line2d_29">
    <path d="M 601.3332 334.833648 
L 625.1148 334.833648 
" clip-path="url(#pb0ce261c9a)" style="fill: none; stroke: #ff0000; stroke-width: 2"/>
   </g>
   <g id="line2d_30">
    <path d="M 759.8772 338.76417 
L 783.6588 338.76417 
" clip-path="url(#pb0ce261c9a)" style="fill: none; stroke: #ff0000; stroke-width: 2"/>
   </g>
   <g id="patch_3">
    <path d="M 58.32 373.416875 
L 58.32 27.6 
" style="fill: none; stroke: #cccccc; stroke-width: 1.25; stroke-linejoin: miter; stroke-linecap: square"/>
   </g>
   <g id="patch_4">
    <path d="M 851.04 373.416875 
L 851.04 27.6 
" style="fill: none; stroke: #cccccc; stroke-width: 1.25; stroke-linejoin: miter; stroke-linecap: square"/>
   </g>
   <g id="patch_5">
    <path d="M 58.32 373.416875 
L 851.04 373.416875 
" style="fill: none; stroke: #cccccc; stroke-width: 1.25; stroke-linejoin: miter; stroke-linecap: square"/>
   </g>
   <g id="patch_6">
    <path d="M 58.32 27.6 
L 851.04 27.6 
" style="fill: none; stroke: #cccccc; stroke-width: 1.25; stroke-linejoin: miter; stroke-linecap: square"/>
   </g>
   <g id="text_12">
    <!-- Handshake duration on QUIC with ed25519 signature algorithm — Degraded (200ms/10%) -->
    <g style="fill: #262626" transform="translate(181.892812 21.6) scale(0.12 -0.12)">
     <defs>
      <path id="DejaVuSans-51" d="M 2522 4238 
Q 1834 4238 1429 3725 
Q 1025 3213 1025 2328 
Q 1025 1447 1429 934 
Q 1834 422 2522 422 
Q 3209 422 3611 934 
Q 4013 1447 4013 2328 
Q 4013 3213 3611 3725 
Q 3209 4238 2522 4238 
z
M 3406 84 
L 4238 -825 
L 3475 -825 
L 2784 -78 
Q 2681 -84 2626 -87 
Q 2572 -91 2522 -91 
Q 1538 -91 948 567 
Q 359 1225 359 2328 
Q 359 3434 948 4092 
Q 1538 4750 2522 4750 
Q 3503 4750 4090 4092 
Q 4678 3434 4678 2328 
Q 4678 1516 4351 937 
Q 4025 359 3406 84 
z
" transform="scale(0.015625)"/>
      <path id="DejaVuSans-55" d="M 556 4666 
L 1191 4666 
L 1191 1831 
Q 1191 1081 1462 751 
Q 1734 422 2344 422 
Q 2950 422 3222 751 
Q 3494 1081 3494 1831 
L 3494 4666 
L 4128 4666 
L 4128 1753 
Q 4128 841 3676 375 
Q 3225 -91 2344 -91 
Q 1459 -91 1007 375 
Q 556 841 556 1753 
L 556 4666 
z
" transform="scale(0.015625)"/>
      <path id="DejaVuSans-49" d="M 628 4666 
L 1259 4666 
L 1259 0 
L 628 0 
L 628 4666 
z
" transform="scale(0.015625)"/>
      <path id="DejaVuSans-43" d="M 4122 4306 
L 4122 3641 
Q 3803 3938 3442 4084 
Q 3081 4231 2675 4231 
Q 1875 4231 1450 3742 
Q 1025 3253 1025 2328 
Q 1025 1406 1450 917 
Q 1875 428 2675 428 
Q 3081 428 3442 575 
Q 3803 722 4122 1019 
L 4122 359 
Q 3791 134 3420 21 
Q 3050 -91 2638 -91 
Q 1578 -91 968 557 
Q 359 1206 359 2328 
Q 359 3453 968 4101 
Q 1578 4750 2638 4750 
Q 3056 4750 3426 4639 
Q 3797 4528 4122 4306 
z
" transform="scale(0.015625)"/>
      <path id="DejaVuSans-77" d="M 269 3500 
L 844 3500 
L 1563 769 
L 2278 3500 
L 2956 3500 
L 3675 769 
L 4391 3500 
L 4966 3500 
L 4050 0 
L 3372 0 
L 2619 2869 
L 1863 0 
L 1184 0 
L 269 3500 
z
" transform="scale(0.015625)"/>
      <path id="DejaVuSans-67" d="M 2906 1791 
Q 2906 2416 2648 2759 
Q 2391 3103 1925 3103 
Q 1463 3103 1205 2759 
Q 947 2416 947 1791 
Q 947 1169 1205 825 
Q 1463 481 1925 481 
Q 2391 481 2648 825 
Q 2906 1169 2906 1791 
z
M 3481 434 
Q 3481 -459 3084 -895 
Q 2688 -1331 1869 -1331 
Q 1566 -1331 1297 -1286 
Q 1028 -1241 775 -1147 
L 775 -588 
Q 1028 -725 1275 -790 
Q 1522 -856 1778 -856 
Q 2344 -856 2625 -561 
Q 2906 -266 2906 331 
L 2906 616 
Q 2728 306 2450 153 
Q 2172 0 1784 0 
Q 1141 0 747 490 
Q 353 981 353 1791 
Q 353 2603 747 3093 
Q 1141 3584 1784 3584 
Q 2172 3584 2450 3431 
Q 2728 3278 2906 2969 
L 2906 3500 
L 3481 3500 
L 3481 434 
z
" transform="scale(0.015625)"/>
      <path id="DejaVuSans-6c" d="M 603 4863 
L 1178 4863 
L 1178 0 
L 603 0 
L 603 4863 
z
" transform="scale(0.015625)"/>
      <path id="DejaVuSans-2014" d="M 313 1978 
L 6088 1978 
L 6088 1528 
L 313 1528 
L 313 1978 
z
" transform="scale(0.015625)"/>
      <path id="DejaVuSans-44" d="M 1259 4147 
L 1259 519 
L 2022 519 
Q 2988 519 3436 956 
Q 3884 1394 3884 2338 
Q 3884 3275 3436 3711 
Q 2988 4147 2022 4147 
L 1259 4147 
z
M 628 4666 
L 1925 4666 
Q 3281 4666 3915 4102 
Q 4550 3538 4550 2338 
Q 4550 1131 3912 565 
Q 3275 0 1925 0 
L 628 0 
L 628 4666 
z
" transform="scale(0.015625)"/>
      <path id="DejaVuSans-2f" d="M 1625 4666 
L 2156 4666 
L 531 -594 
L 0 -594 
L 1625 4666 
z
" transform="scale(0.015625)"/>
      <path id="DejaVuSans-25" d="M 4653 2053 
Q 4381 2053 4226 1822 
Q 4072 1591 4072 1178 
Q 4072 772 4226 539 
Q 4381 306 4653 306 
Q 4919 306 5073 539 
Q 5228 772 5228 1178 
Q 5228 1588 5073 1820 
Q 4919 2053 4653 2053 
z
M 4653 2450 
Q 5147 2450 5437 2106 
Q 5728 1763 5728 1178 
Q 5728 594 5436 251 
Q 5144 -91 4653 -91 
Q 4153 -91 3862 251 
Q 3572 594 3572 1178 
Q 3572 1766 3864 2108 
Q 4156 2450 4653 2450 
z
M 1428 4353 
Q 1159 4353 1004 4120 
Q 850 3888 850 3481 
Q 850 3069 1003 2837 
Q 1156 2606 1428 2606 
Q 1700 2606 1854 2837 
Q 2009 3069 2009 3481 
Q 2009 3884 1853 4118 
Q 1697 4353 1428 4353 
z
M 4250 4750 
L 4750 4750 
L 1831 -91 
L 1331 -91 
L 4250 4750 
z
M 1428 4750 
Q 1922 4750 2215 4408 
Q 2509 4066 2509 3481 
Q 2509 2891 2217 2550 
Q 1925 2209 1428 2209 
Q 931 2209 642 2551 
Q 353 2894 353 3481 
Q 353 4063 643 4406 
Q 934 4750 1428 4750 
z
" transform="scale(0.015625)"/>
     </defs>
     <use xlink:href="#DejaVuSans-48"/>
     <use xlink:href="#DejaVuSans-61" x="75.195312"/>
     <use xlink:href="#DejaVuSans-6e" x="136.474609"/>
     <use xlink:href="#DejaVuSans-64" x="199.853516"/>
     <use xlink:href="#DejaVuSans-73" x="263.330078"/>
     <use xlink:href="#DejaVuSans-68" x="315.429688"/>
     <use xlink:href="#DejaVuSans-61" x="378.808594"/>
     <use xlink:href="#DejaVuSans-6b" x="440.087891"/>
     <use xlink:href="#DejaVuSans-65" x="494.373047"/>
     <use xlink:href="#DejaVuSans-20" x="555.896484"/>
     <use xlink:href="#DejaVuSans-64" x="587.683594"/>
     <use xlink:href="#DejaVuSans-75" x="651.160156"/>
     <use xlink:href="#DejaVuSans-72" x="714.539062"/>
     <use xlink:href="#DejaVuSans-61" x="755.652344"/>
     <use xlink:href="#DejaVuSans-74" x="816.931641"/>
     <use xlink:href="#DejaVuSans-69" x="856.140625"/>
     <use xlink:href="#DejaVuSans-6f" x="883.923828"/>
     <use xlink:href="#DejaVuSans-6e" x="945.105469"/>
     <use xlink:href="#DejaVuSans-20" x="1008.484375"/>
     <use xlink:href="#DejaVuSans-6f" x="1040.271484"/>
     <use xlink:href="#DejaVuSans-6e" x="1101.453125"/>
     <use xlink:href="#DejaVuSans-20" x="1164.832031"/>
     <use xlink:href="#DejaVuSans-51" x="1196.619141"/>
     <use xlink:href="#DejaVuSans-55" x="1275.330078"/>
     <use xlink:href="#DejaVuSans-49" x="1348.523438"/>
     <use xlink:href="#DejaVuSans-43" x="1378.015625"/>
     <use xlink:href="#DejaVuSans-20" x="1447.839844"/>
     <use xlink:href="#DejaVuSans-77" x="1479.626953"/>
     <use xlink:href="#DejaVuSans-69" x="1561.414062"/>
     <use xlink:href="#DejaVuSans-74" x="1589.197266"/>
     <use xlink:href="#DejaVuSans-68" x="1628.40625"/>
     <use xlink:href="#DejaVuSans-20" x="1691.785156"/>
     <use xlink:href="#DejaVuSans-65" x="1723.572266"/>
     <use xlink:href="#DejaVuSans-64" x="1785.095703"/>
     <use xlink:href="#DejaVuSans-32" x="1848.572266"/>
     <use xlink:href="#DejaVuSans-35" x="1912.195312"/>
     <use xlink:href="#DejaVuSans-35" x="1975.818359"/>
     <use xlink:href="#DejaVuSans-31" x="2039.441406"/>
     <use xlink:href="#DejaVuSans-39" x="2103.064453"/>
     <use xlink:href="#DejaVuSans-20" x="2166.6875"/>
     <use xlink:href="#DejaVuSans-73" x="2198.474609"/>
     <use xlink:href="#DejaVuSans-69" x="2250.574219"/>
     <use xlink:href="#DejaVuSans-67" x="2278.357422"/>
     <use xlink:href="#DejaVuSans-6e" x="2341.833984"/>
     <use xlink:href="#DejaVuSans-61" x="2405.212891"/>
     <use xlink:href="#DejaVuSans-74" x="2466.492188"/>
     <use xlink:href="#DejaVuSans-75" x="2505.701172"/>
     <use xlink:href="#DejaVuSans-72" x="2569.080078"/>
     <use xlink:href="#DejaVuSans-65" x="2607.943359"/>
     <use xlink:href="#DejaVuSans-20" x="2669.466797"/>
     <use xlink:href="#DejaVuSans-61" x="2701.253906"/>
     <use xlink:href="#DejaVuSans-6c" x="2762.533203"/>
     <use xlink:href="#DejaVuSans-67" x="2790.316406"/>
     <use xlink:href="#DejaVuSans-6f" x="2853.792969"/>
     <use xlink:href="#DejaVuSans-72" x="2914.974609"/>
     <use xlink:href="#DejaVuSans-69" x="2956.087891"/>
     <use xlink:href="#DejaVuSans-74" x="2983.871094"/>
     <use xlink:href="#DejaVuSans-68" x="3023.080078"/>
     <use xlink:href="#DejaVuSans-6d" x="3086.458984"/>
     <use xlink:href="#DejaVuSans-20" x="3183.871094"/>
     <use xlink:href="#DejaVuSans-2014" x="3215.658203"/>
     <use xlink:href="#DejaVuSans-20" x="3315.658203"/>
     <use xlink:href="#DejaVuSans-44" x="3347.445312"/>
     <use xlink:href="#DejaVuSans-65" x="3424.447266"/>
     <use xlink:href="#DejaVuSans-67" x="3485.970703"/>
     <use xlink:href="#DejaVuSans-72" x="3549.447266"/>
     <use xlink:href="#DejaVuSans-61" x="3590.560547"/>
     <use xlink:href="#DejaVuSans-64" x="3651.839844"/>
     <use xlink:href="#DejaVuSans-65" x="3715.316406"/>
     <use xlink:href="#DejaVuSans-64" x="3776.839844"/>
     <use xlink:href="#DejaVuSans-20" x="3840.316406"/>
     <use xlink:href="#DejaVuSans-28" x="3872.103516"/>
     <use xlink:href="#DejaVuSans-32" x="3911.117188"/>
     <use xlink:href="#DejaVuSans-30" x="3974.740234"/>
     <use xlink:href="#DejaVuSans-30" x="4038.363281"/>
     <use xlink:href="#DejaVuSans-6d" x="4101.986328"/>
     <use xlink:href="#DejaVuSans-73" x="4199.398438"/>
     <use xlink:href="#DejaVuSans-2f" x="4251.498047"/>
     <use xlink:href="#DejaVuSans-31" x="4285.189453"/>
     <use xlink:href="#DejaVuSans-30" x="4348.8125"/>
     <use xlink:href="#DejaVuSans-25" x="4412.435547"/>
     <use xlink:href="#DejaVuSans-29" x="4507.455078"/>
    </g>
   </g>
  </g>
 </g>
 <defs>
  <clipPath id="pb0ce261c9a">
   <rect x="58.32" y="27.6" width="792.72" height="345.816875"/>
  </clipPath>
 </defs>
</svg>
