<?xml version="1.0" encoding="utf-8" standalone="no"?>
<!DOCTYPE svg PUBLIC "-//W3C//DTD SVG 1.1//EN"
  "http://www.w3.org/Graphics/SVG/1.1/DTD/svg11.dtd">
<svg xmlns:xlink="http://www.w3.org/1999/xlink" width="864pt" height="432pt" viewBox="0 0 864 432" xmlns="http://www.w3.org/2000/svg" version="1.1">
 <metadata>
  <rdf:RDF xmlns:dc="http://purl.org/dc/elements/1.1/" xmlns:cc="http://creativecommons.org/ns#" xmlns:rdf="http://www.w3.org/1999/02/22-rdf-syntax-ns#">
   <cc:Work>
    <dc:type rdf:resource="http://purl.org/dc/dcmitype/StillImage"/>
    <dc:date>2026-03-21T14:06:27.604459</dc:date>
    <dc:format>image/svg+xml</dc:format>
    <dc:creator>
     <cc:Agent>
      <dc:title>Matplotlib v3.6.3, https://matplotlib.org/</dc:title>
     </cc:Agent>
    </dc:creator>
   </cc:Work>
  </rdf:RDF>
 </metadata>
 <defs>
  <style type="text/css">*{stroke-linejoin: round; stroke-linecap: butt}</style>
 </defs>
 <g id="figure_1">
  <g id="patch_1">
   <path d="M 0 432 
L 864 432 
L 864 0 
L 0 0 
z
" style="fill: #ffffff"/>
  </g>
  <g id="axes_1">
   <g id="patch_2">
    <path d="M 58.32 373.416875 
L 851.04 373.416875 
L 851.04 27.6 
L 58.32 27.6 
z
" style="fill: #ffffff"/>
   </g>
   <g id="matplotlib.axis_1">
    <g id="xtick_1">
     <g id="text_1">
      <!-- P-256 -->
      <g style="fill: #262626" transform="translate(103.911421 400.575919) rotate(-15) scale(0.12 -0.12)">
       <defs>
        <path id="DejaVuSans-50" d="M 1259 4147 
L 1259 2394 
L 2053 2394 
Q 2494 2394 2734 2622 
Q 2975 2850 2975 3272 
Q 2975 3691 2734 3919 
Q 2494 4147 2053 4147 
L 1259 4147 
z
M 628 4666 
L 2053 4666 
Q 2838 4666 3239 4311 
Q 3641 3956 3641 3272 
Q 3641 2581 3239 2228 
Q 2838 1875 2053 1875 
L 1259 1875 
L 1259 0 
L 628 0 
L 628 4666 
z
" transform="scale(0.015625)"/>
        <path id="DejaVuSans-2d" d="M 313 2009 
L 1997 2009 
L 1997 1497 
L 313 1497 
L 313 2009 
z
" transform="scale(0.015625)"/>
        <path id="DejaVuSans-32" d="M 1228 531 
L 3431 531 
L 3431 0 
L 469 0 
L 469 531 
Q 828 903 1448 1529 
Q 2069 2156 2228 2338 
Q 2531 2678 2651 2914 
Q 2772 3150 2772 3378 
Q 2772 3750 2511 3984 
Q 2250 4219 1831 4219 
Q 1534 4219 1204 4116 
Q 875 4013 500 3803 
L 500 4441 
Q 881 4594 1212 4672 
Q 1544 4750 1819 4750 
Q 2544 4750 2975 4387 
Q 3406 4025 3406 3419 
Q 3406 3131 3298 2873 
Q 3191 2616 2906 2266 
Q 2828 2175 2409 1742 
Q 1991 1309 1228 531 
z
" transform="scale(0.015625)"/>
        <path id="DejaVuSans-35" d="M 691 4666 
L 3169 4666 
L 3169 4134 
L 1269 4134 
L 1269 2991 
Q 1406 3038 1543 3061 
Q 1681 3084 1819 3084 
Q 2600 3084 3056 2656 
Q 3513 2228 3513 1497 
Q 3513 744 3044 326 
Q 2575 -91 1722 -91 
Q 1428 -91 1123 -41 
Q 819 9 494 109 
L 494 744 
Q 775 591 1075 516 
Q 1375 441 1709 441 
Q 2250 441 2565 725 
Q 2881 1009 2881 1497 
Q 2881 1984 2565 2268 
Q 2250 2553 1709 2553 
Q 1456 2553 1204 2497 
Q 953 2441 691 2322 
L 691 4666 
z
" transform="scale(0.015625)"/>
        <path id="DejaVuSans-36" d="M 2113 2584 
Q 1688 2584 1439 2293 
Q 1191 2003 1191 1497 
Q 1191 994 1439 701 
Q 1688 409 2113 409 
Q 2538 409 2786 701 
Q 3034 994 3034 1497 
Q 3034 2003 2786 2293 
Q 2538 2584 2113 2584 
z
M 3366 4563 
L 3366 3988 
Q 3128 4100 2886 4159 
Q 2644 4219 2406 4219 
Q 1781 4219 1451 3797 
Q 1122 3375 1075 2522 
Q 1259 2794 1537 2939 
Q 1816 3084 2150 3084 
Q 2853 3084 3261 2657 
Q 3669 2231 3669 1497 
Q 3669 778 3244 343 
Q 2819 -91 2113 -91 
Q 1303 -91 875 529 
Q 447 1150 447 2328 
Q 447 3434 972 4092 
Q 1497 4750 2381 4750 
Q 2619 4750 2861 4703 
Q 3103 4656 3366 4563 
z
" transform="scale(0.015625)"/>
       </defs>
       <use xlink:href="#DejaVuSans-50"/>
       <use xlink:href="#DejaVuSans-2d" x="58.052734"/>
       <use xlink:href="#DejaVuSans-32" x="94.136719"/>
       <use xlink:href="#DejaVuSans-35" x="157.759766"/>
       <use xlink:href="#DejaVuSans-36" x="221.382812"/>
      </g>
     </g>
    </g>
    <g id="xtick_2">
     <g id="text_2">
      <!-- x25519 -->
      <g style="fill: #262626" transform="translate(251.755378 403.442987) rotate(-15) scale(0.12 -0.12)">
       <defs>
        <path id="DejaVuSans-78" d="M 3513 3500 
L 2247 1797 
L 3578 0 
L 2900 0 
L 1881 1375 
L 863 0 
L 184 0 
L 1544 1831 
L 300 3500 
L 978 3500 
L 1906 2253 
L 2834 3500 
L 3513 3500 
z
" transform="scale(0.015625)"/>
        <path id="DejaVuSans-31" d="M 794 531 
L 1825 531 
L 1825 4091 
L 703 3866 
L 703 4441 
L 1819 4666 
L 2450 4666 
L 2450 531 
L 3481 531 
L 3481 0 
L 794 0 
L 794 531 
z
" transform="scale(0.015625)"/>
        <path id="DejaVuSans-39" d="M 703 97 
L 703 672 
Q 941 559 1184 500 
Q 1428 441 1663 441 
Q 2288 441 2617 861 
Q 2947 1281 2994 2138 
Q 2813 1869 2534 1725 
Q 2256 1581 1919 1581 
Q 1219 1581 811 2004 
Q 403 2428 403 3163 
Q 403 3881 828 4315 
Q 1253 4750 1959 4750 
Q 2769 4750 3195 4129 
Q 3622 3509 3622 2328 
Q 3622 1225 3098 567 
Q 2575 -91 1691 -91 
Q 1453 -91 1209 -44 
Q 966 3 703 97 
z
M 1959 2075 
Q 2384 2075 2632 2365 
Q 2881 2656 2881 3163 
Q 2881 3666 2632 3958 
Q 2384 4250 1959 4250 
Q 1534 4250 1286 3958 
Q 1038 3666 1038 3163 
Q 1038 2656 1286 2365 
Q 1534 2075 1959 2075 
z
" transform="scale(0.015625)"/>
       </defs>
       <use xlink:href="#DejaVuSans-78"/>
       <use xlink:href="#DejaVuSans-32" x="59.179688"/>
       <use xlink:href="#DejaVuSans-35" x="122.802734"/>
       <use xlink:href="#DejaVuSans-35" x="186.425781"/>
       <use xlink:href="#DejaVuSans-31" x="250.048828"/>
       <use xlink:href="#DejaVuSans-39" x="313.671875"/>
      </g>
     </g>
    </g>
    <g id="xtick_3">
     <g id="text_3">
      <!-- hqc128 -->
      <g style="fill: #262626" transform="translate(410.831845 403.300313) rotate(-15) scale(0.12 -0.12)">
       <defs>
        <path id="DejaVuSans-68" d="M 3513 2113 
L 3513 0 
L 2938 0 
L 2938 2094 
Q 2938 2591 2744 2837 
Q 2550 3084 2163 3084 
Q 1697 3084 1428 2787 
Q 1159 2491 1159 1978 
L 1159 0 
L 581 0 
L 581 4863 
L 1159 4863 
L 1159 2956 
Q 1366 3272 1645 3428 
Q 1925 3584 2291 3584 
Q 2894 3584 3203 3211 
Q 3513 2838 3513 2113 
z
" transform="scale(0.015625)"/>
        <path id="DejaVuSans-71" d="M 947 1747 
Q 947 1113 1208 752 
Q 1469 391 1925 391 
Q 2381 391 2643 752 
Q 2906 1113 2906 1747 
Q 2906 2381 2643 2742 
Q 2381 3103 1925 3103 
Q 1469 3103 1208 2742 
Q 947 2381 947 1747 
z
M 2906 525 
Q 2725 213 2448 61 
Q 2172 -91 1784 -91 
Q 1150 -91 751 415 
Q 353 922 353 1747 
Q 353 2572 751 3078 
Q 1150 3584 1784 3584 
Q 2172 3584 2448 3432 
Q 2725 3281 2906 2969 
L 2906 3500 
L 3481 3500 
L 3481 -1331 
L 2906 -1331 
L 2906 525 
z
" transform="scale(0.015625)"/>
        <path id="DejaVuSans-63" d="M 3122 3366 
L 3122 2828 
Q 2878 2963 2633 3030 
Q 2388 3097 2138 3097 
Q 1578 3097 1268 2742 
Q 959 2388 959 1747 
Q 959 1106 1268 751 
Q 1578 397 2138 397 
Q 2388 397 2633 464 
Q 2878 531 3122 666 
L 3122 134 
Q 2881 22 2623 -34 
Q 2366 -91 2075 -91 
Q 1284 -91 818 406 
Q 353 903 353 1747 
Q 353 2603 823 3093 
Q 1294 3584 2113 3584 
Q 2378 3584 2631 3529 
Q 2884 3475 3122 3366 
z
" transform="scale(0.015625)"/>
        <path id="DejaVuSans-38" d="M 2034 2216 
Q 1584 2216 1326 1975 
Q 1069 1734 1069 1313 
Q 1069 891 1326 650 
Q 1584 409 2034 409 
Q 2484 409 2743 651 
Q 3003 894 3003 1313 
Q 3003 1734 2745 1975 
Q 2488 2216 2034 2216 
z
M 1403 2484 
Q 997 2584 770 2862 
Q 544 3141 544 3541 
Q 544 4100 942 4425 
Q 1341 4750 2034 4750 
Q 2731 4750 3128 4425 
Q 3525 4100 3525 3541 
Q 3525 3141 3298 2862 
Q 3072 2584 2669 2484 
Q 3125 2378 3379 2068 
Q 3634 1759 3634 1313 
Q 3634 634 3220 271 
Q 2806 -91 2034 -91 
Q 1263 -91 848 271 
Q 434 634 434 1313 
Q 434 1759 690 2068 
Q 947 2378 1403 2484 
z
M 1172 3481 
Q 1172 3119 1398 2916 
Q 1625 2713 2034 2713 
Q 2441 2713 2670 2916 
Q 2900 3119 2900 3481 
Q 2900 3844 2670 4047 
Q 2441 4250 2034 4250 
Q 1625 4250 1398 4047 
Q 1172 3844 1172 3481 
z
" transform="scale(0.015625)"/>
       </defs>
       <use xlink:href="#DejaVuSans-68"/>
       <use xlink:href="#DejaVuSans-71" x="63.378906"/>
       <use xlink:href="#DejaVuSans-63" x="126.855469"/>
       <use xlink:href="#DejaVuSans-31" x="181.835938"/>
       <use xlink:href="#DejaVuSans-32" x="245.458984"/>
       <use xlink:href="#DejaVuSans-38" x="309.082031"/>
      </g>
     </g>
    </g>
    <g id="xtick_4">
     <g id="text_4">
      <!-- p256_hqc128 -->
      <g style="fill: #262626" transform="translate(534.010834 412.753193) rotate(-15) scale(0.12 -0.12)">
       <defs>
        <path id="DejaVuSans-70" d="M 1159 525 
L 1159 -1331 
L 581 -1331 
L 581 3500 
L 1159 3500 
L 1159 2969 
Q 1341 3281 1617 3432 
Q 1894 3584 2278 3584 
Q 2916 3584 3314 3078 
Q 3713 2572 3713 1747 
Q 3713 922 3314 415 
Q 2916 -91 2278 -91 
Q 1894 -91 1617 61 
Q 1341 213 1159 525 
z
M 3116 1747 
Q 3116 2381 2855 2742 
Q 2594 3103 2138 3103 
Q 1681 3103 1420 2742 
Q 1159 2381 1159 1747 
Q 1159 1113 1420 752 
Q 1681 391 2138 391 
Q 2594 391 2855 752 
Q 3116 1113 3116 1747 
z
" transform="scale(0.015625)"/>
        <path id="DejaVuSans-5f" d="M 3263 -1063 
L 3263 -1509 
L -63 -1509 
L -63 -1063 
L 3263 -1063 
z
" transform="scale(0.015625)"/>
       </defs>
       <use xlink:href="#DejaVuSans-70"/>
       <use xlink:href="#DejaVuSans-32" x="63.476562"/>
       <use xlink:href="#DejaVuSans-35" x="127.099609"/>
       <use xlink:href="#DejaVuSans-36" x="190.722656"/>
       <use xlink:href="#DejaVuSans-5f" x="254.345703"/>
       <use xlink:href="#DejaVuSans-68" x="304.345703"/>
       <use xlink:href="#DejaVuSans-71" x="367.724609"/>
       <use xlink:href="#DejaVuSans-63" x="431.201172"/>
       <use xlink:href="#DejaVuSans-31" x="486.181641"/>
       <use xlink:href="#DejaVuSans-32" x="549.804688"/>
       <use xlink:href="#DejaVuSans-38" x="613.427734"/>
      </g>
     </g>
    </g>
    <g id="xtick_5">
     <g id="text_5">
      <!-- x25519_hqc128 -->
      <g style="fill: #262626" transform="translate(678.303202 416.571906) rotate(-15) scale(0.12 -0.12)">
       <use xlink:href="#DejaVuSans-78"/>
       <use xlink:href="#DejaVuSans-32" x="59.179688"/>
       <use xlink:href="#DejaVuSans-35" x="122.802734"/>
       <use xlink:href="#DejaVuSans-35" x="186.425781"/>
       <use xlink:href="#DejaVuSans-31" x="250.048828"/>
       <use xlink:href="#DejaVuSans-39" x="313.671875"/>
       <use xlink:href="#DejaVuSans-5f" x="377.294922"/>
       <use xlink:href="#DejaVuSans-68" x="427.294922"/>
       <use xlink:href="#DejaVuSans-71" x="490.673828"/>
       <use xlink:href="#DejaVuSans-63" x="554.150391"/>
       <use xlink:href="#DejaVuSans-31" x="609.130859"/>
       <use xlink:href="#DejaVuSans-32" x="672.753906"/>
       <use xlink:href="#DejaVuSans-38" x="736.376953"/>
      </g>
     </g>
    </g>
   </g>
   <g id="matplotlib.axis_2">
    <g id="ytick_1">
     <g id="line2d_1">
      <path d="M 58.32 351.238614 
L 851.04 351.238614 
" clip-path="url(#p799194fe93)" style="fill: none; stroke: #cccccc; stroke-linecap: round"/>
     </g>
     <g id="text_6">
      <!-- 400 -->
      <g style="fill: #262626" transform="translate(27.82375 355.417755) scale(0.11 -0.11)">
       <defs>
        <path id="DejaVuSans-34" d="M 2419 4116 
L 825 1625 
L 2419 1625 
L 2419 4116 
z
M 2253 4666 
L 3047 4666 
L 3047 1625 
L 3713 1625 
L 3713 1100 
L 3047 1100 
L 3047 0 
L 2419 0 
L 2419 1100 
L 313 1100 
L 313 1709 
L 2253 4666 
z
" transform="scale(0.015625)"/>
        <path id="DejaVuSans-30" d="M 2034 4250 
Q 1547 4250 1301 3770 
Q 1056 3291 1056 2328 
Q 1056 1369 1301 889 
Q 1547 409 2034 409 
Q 2525 409 2770 889 
Q 3016 1369 3016 2328 
Q 3016 3291 2770 3770 
Q 2525 4250 2034 4250 
z
M 2034 4750 
Q 2819 4750 3233 4129 
Q 3647 3509 3647 2328 
Q 3647 1150 3233 529 
Q 2819 -91 2034 -91 
Q 1250 -91 836 529 
Q 422 1150 422 2328 
Q 422 3509 836 4129 
Q 1250 4750 2034 4750 
z
" transform="scale(0.015625)"/>
       </defs>
       <use xlink:href="#DejaVuSans-34"/>
       <use xlink:href="#DejaVuSans-30" x="63.623047"/>
       <use xlink:href="#DejaVuSans-30" x="127.246094"/>
      </g>
     </g>
    </g>
    <g id="ytick_2">
     <g id="line2d_2">
      <path d="M 58.32 281.096457 
L 851.04 281.096457 
" clip-path="url(#p799194fe93)" style="fill: none; stroke: #cccccc; stroke-linecap: round"/>
     </g>
     <g id="text_7">
      <!-- 500 -->
      <g style="fill: #262626" transform="translate(27.82375 285.275598) scale(0.11 -0.11)">
       <use xlink:href="#DejaVuSans-35"/>
       <use xlink:href="#DejaVuSans-30" x="63.623047"/>
       <use xlink:href="#DejaVuSans-30" x="127.246094"/>
      </g>
     </g>
    </g>
    <g id="ytick_3">
     <g id="line2d_3">
      <path d="M 58.32 210.9543 
L 851.04 210.9543 
" clip-path="url(#p799194fe93)" style="fill: none; stroke: #cccccc; stroke-linecap: round"/>
     </g>
     <g id="text_8">
      <!-- 600 -->
      <g style="fill: #262626" transform="translate(27.82375 215.13344) scale(0.11 -0.11)">
       <use xlink:href="#DejaVuSans-36"/>
       <use xlink:href="#DejaVuSans-30" x="63.623047"/>
       <use xlink:href="#DejaVuSans-30" x="127.246094"/>
      </g>
     </g>
    </g>
    <g id="ytick_4">
     <g id="line2d_4">
      <path d="M 58.32 140.812143 
L 851.04 140.812143 
" clip-path="url(#p799194fe93)" style="fill: none; stroke: #cccccc; stroke-linecap: round"/>
     </g>
     <g id="text_9">
      <!-- 700 -->
      <g style="fill: #262626" transform="translate(27.82375 144.991283) scale(0.11 -0.11)">
       <defs>
        <path id="DejaVuSans-37" d="M 525 4666 
L 3525 4666 
L 3525 4397 
L 1831 0 
L 1172 0 
L 2766 4134 
L 525 4134 
L 525 4666 
z
" transform="scale(0.015625)"/>
       </defs>
       <use xlink:href="#DejaVuSans-37"/>
       <use xlink:href="#DejaVuSans-30" x="63.623047"/>
       <use xlink:href="#DejaVuSans-30" x="127.246094"/>
      </g>
     </g>
    </g>
    <g id="ytick_5">
     <g id="line2d_5">
      <path d="M 58.32 70.669985 
L 851.04 70.669985 
" clip-path="url(#p799194fe93)" style="fill: none; stroke: #cccccc; stroke-linecap: round"/>
     </g>
     <g id="text_10">
      <!-- 800 -->
      <g style="fill: #262626" transform="translate(27.82375 74.849126) scale(0.11 -0.11)">
       <use xlink:href="#DejaVuSans-38"/>
       <use xlink:href="#DejaVuSans-30" x="63.623047"/>
       <use xlink:href="#DejaVuSans-30" x="127.246094"/>
      </g>
     </g>
    </g>
    <g id="text_11">
     <!-- Handshake duration (ms) -->
     <g style="fill: #262626" transform="translate(21.328125 276.57625) rotate(-90) scale(0.12 -0.12)">
      <defs>
       <path id="DejaVuSans-48" d="M 628 4666 
L 1259 4666 
L 1259 2753 
L 3553 2753 
L 3553 4666 
L 4184 4666 
L 4184 0 
L 3553 0 
L 3553 2222 
L 1259 2222 
L 1259 0 
L 628 0 
L 628 4666 
z
" transform="scale(0.015625)"/>
       <path id="DejaVuSans-61" d="M 2194 1759 
Q 1497 1759 1228 1600 
Q 959 1441 959 1056 
Q 959 750 1161 570 
Q 1363 391 1709 391 
Q 2188 391 2477 730 
Q 2766 1069 2766 1631 
L 2766 1759 
L 2194 1759 
z
M 3341 1997 
L 3341 0 
L 2766 0 
L 2766 531 
Q 2569 213 2275 61 
Q 1981 -91 1556 -91 
Q 1019 -91 701 211 
Q 384 513 384 1019 
Q 384 1609 779 1909 
Q 1175 2209 1959 2209 
L 2766 2209 
L 2766 2266 
Q 2766 2663 2505 2880 
Q 2244 3097 1772 3097 
Q 1472 3097 1187 3025 
Q 903 2953 641 2809 
L 641 3341 
Q 956 3463 1253 3523 
Q 1550 3584 1831 3584 
Q 2591 3584 2966 3190 
Q 3341 2797 3341 1997 
z
" transform="scale(0.015625)"/>
       <path id="DejaVuSans-6e" d="M 3513 2113 
L 3513 0 
L 2938 0 
L 2938 2094 
Q 2938 2591 2744 2837 
Q 2550 3084 2163 3084 
Q 1697 3084 1428 2787 
Q 1159 2491 1159 1978 
L 1159 0 
L 581 0 
L 581 3500 
L 1159 3500 
L 1159 2956 
Q 1366 3272 1645 3428 
Q 1925 3584 2291 3584 
Q 2894 3584 3203 3211 
Q 3513 2838 3513 2113 
z
" transform="scale(0.015625)"/>
       <path id="DejaVuSans-64" d="M 2906 2969 
L 2906 4863 
L 3481 4863 
L 3481 0 
L 2906 0 
L 2906 525 
Q 2725 213 2448 61 
Q 2172 -91 1784 -91 
Q 1150 -91 751 415 
Q 353 922 353 1747 
Q 353 2572 751 3078 
Q 1150 3584 1784 3584 
Q 2172 3584 2448 3432 
Q 2725 3281 2906 2969 
z
M 947 1747 
Q 947 1113 1208 752 
Q 1469 391 1925 391 
Q 2381 391 2643 752 
Q 2906 1113 2906 1747 
Q 2906 2381 2643 2742 
Q 2381 3103 1925 3103 
Q 1469 3103 1208 2742 
Q 947 2381 947 1747 
z
" transform="scale(0.015625)"/>
       <path id="DejaVuSans-73" d="M 2834 3397 
L 2834 2853 
Q 2591 2978 2328 3040 
Q 2066 3103 1784 3103 
Q 1356 3103 1142 2972 
Q 928 2841 928 2578 
Q 928 2378 1081 2264 
Q 1234 2150 1697 2047 
L 1894 2003 
Q 2506 1872 2764 1633 
Q 3022 1394 3022 966 
Q 3022 478 2636 193 
Q 2250 -91 1575 -91 
Q 1294 -91 989 -36 
Q 684 19 347 128 
L 347 722 
Q 666 556 975 473 
Q 1284 391 1588 391 
Q 1994 391 2212 530 
Q 2431 669 2431 922 
Q 2431 1156 2273 1281 
Q 2116 1406 1581 1522 
L 1381 1569 
Q 847 1681 609 1914 
Q 372 2147 372 2553 
Q 372 3047 722 3315 
Q 1072 3584 1716 3584 
Q 2034 3584 2315 3537 
Q 2597 3491 2834 3397 
z
" transform="scale(0.015625)"/>
       <path id="DejaVuSans-6b" d="M 581 4863 
L 1159 4863 
L 1159 1991 
L 2875 3500 
L 3609 3500 
L 1753 1863 
L 3688 0 
L 2938 0 
L 1159 1709 
L 1159 0 
L 581 0 
L 581 4863 
z
" transform="scale(0.015625)"/>
       <path id="DejaVuSans-65" d="M 3597 1894 
L 3597 1613 
L 953 1613 
Q 991 1019 1311 708 
Q 1631 397 2203 397 
Q 2534 397 2845 478 
Q 3156 559 3463 722 
L 3463 178 
Q 3153 47 2828 -22 
Q 2503 -91 2169 -91 
Q 1331 -91 842 396 
Q 353 884 353 1716 
Q 353 2575 817 3079 
Q 1281 3584 2069 3584 
Q 2775 3584 3186 3129 
Q 3597 2675 3597 1894 
z
M 3022 2063 
Q 3016 2534 2758 2815 
Q 2500 3097 2075 3097 
Q 1594 3097 1305 2825 
Q 1016 2553 972 2059 
L 3022 2063 
z
" transform="scale(0.015625)"/>
       <path id="DejaVuSans-20" transform="scale(0.015625)"/>
       <path id="DejaVuSans-75" d="M 544 1381 
L 544 3500 
L 1119 3500 
L 1119 1403 
Q 1119 906 1312 657 
Q 1506 409 1894 409 
Q 2359 409 2629 706 
Q 2900 1003 2900 1516 
L 2900 3500 
L 3475 3500 
L 3475 0 
L 2900 0 
L 2900 538 
Q 2691 219 2414 64 
Q 2138 -91 1772 -91 
Q 1169 -91 856 284 
Q 544 659 544 1381 
z
M 1991 3584 
L 1991 3584 
z
" transform="scale(0.015625)"/>
       <path id="DejaVuSans-72" d="M 2631 2963 
Q 2534 3019 2420 3045 
Q 2306 3072 2169 3072 
Q 1681 3072 1420 2755 
Q 1159 2438 1159 1844 
L 1159 0 
L 581 0 
L 581 3500 
L 1159 3500 
L 1159 2956 
Q 1341 3275 1631 3429 
Q 1922 3584 2338 3584 
Q 2397 3584 2469 3576 
Q 2541 3569 2628 3553 
L 2631 2963 
z
" transform="scale(0.015625)"/>
       <path id="DejaVuSans-74" d="M 1172 4494 
L 1172 3500 
L 2356 3500 
L 2356 3053 
L 1172 3053 
L 1172 1153 
Q 1172 725 1289 603 
Q 1406 481 1766 481 
L 2356 481 
L 2356 0 
L 1766 0 
Q 1100 0 847 248 
Q 594 497 594 1153 
L 594 3053 
L 172 3053 
L 172 3500 
L 594 3500 
L 594 4494 
L 1172 4494 
z
" transform="scale(0.015625)"/>
       <path id="DejaVuSans-69" d="M 603 3500 
L 1178 3500 
L 1178 0 
L 603 0 
L 603 3500 
z
M 603 4863 
L 1178 4863 
L 1178 4134 
L 603 4134 
L 603 4863 
z
" transform="scale(0.015625)"/>
       <path id="DejaVuSans-6f" d="M 1959 3097 
Q 1497 3097 1228 2736 
Q 959 2375 959 1747 
Q 959 1119 1226 758 
Q 1494 397 1959 397 
Q 2419 397 2687 759 
Q 2956 1122 2956 1747 
Q 2956 2369 2687 2733 
Q 2419 3097 1959 3097 
z
M 1959 3584 
Q 2709 3584 3137 3096 
Q 3566 2609 3566 1747 
Q 3566 888 3137 398 
Q 2709 -91 1959 -91 
Q 1206 -91 779 398 
Q 353 888 353 1747 
Q 353 2609 779 3096 
Q 1206 3584 1959 3584 
z
" transform="scale(0.015625)"/>
       <path id="DejaVuSans-28" d="M 1984 4856 
Q 1566 4138 1362 3434 
Q 1159 2731 1159 2009 
Q 1159 1288 1364 580 
Q 1569 -128 1984 -844 
L 1484 -844 
Q 1016 -109 783 600 
Q 550 1309 550 2009 
Q 550 2706 781 3412 
Q 1013 4119 1484 4856 
L 1984 4856 
z
" transform="scale(0.015625)"/>
       <path id="DejaVuSans-6d" d="M 3328 2828 
Q 3544 3216 3844 3400 
Q 4144 3584 4550 3584 
Q 5097 3584 5394 3201 
Q 5691 2819 5691 2113 
L 5691 0 
L 5113 0 
L 5113 2094 
Q 5113 2597 4934 2840 
Q 4756 3084 4391 3084 
Q 3944 3084 3684 2787 
Q 3425 2491 3425 1978 
L 3425 0 
L 2847 0 
L 2847 2094 
Q 2847 2600 2669 2842 
Q 2491 3084 2119 3084 
Q 1678 3084 1418 2786 
Q 1159 2488 1159 1978 
L 1159 0 
L 581 0 
L 581 3500 
L 1159 3500 
L 1159 2956 
Q 1356 3278 1631 3431 
Q 1906 3584 2284 3584 
Q 2666 3584 2933 3390 
Q 3200 3197 3328 2828 
z
" transform="scale(0.015625)"/>
       <path id="DejaVuSans-29" d="M 513 4856 
L 1013 4856 
Q 1481 4119 1714 3412 
Q 1947 2706 1947 2009 
Q 1947 1309 1714 600 
Q 1481 -109 1013 -844 
L 513 -844 
Q 928 -128 1133 580 
Q 1338 1288 1338 2009 
Q 1338 2731 1133 3434 
Q 928 4138 513 4856 
z
" transform="scale(0.015625)"/>
      </defs>
      <use xlink:href="#DejaVuSans-48"/>
      <use xlink:href="#DejaVuSans-61" x="75.195312"/>
      <use xlink:href="#DejaVuSans-6e" x="136.474609"/>
      <use xlink:href="#DejaVuSans-64" x="199.853516"/>
      <use xlink:href="#DejaVuSans-73" x="263.330078"/>
      <use xlink:href="#DejaVuSans-68" x="315.429688"/>
      <use xlink:href="#DejaVuSans-61" x="378.808594"/>
      <use xlink:href="#DejaVuSans-6b" x="440.087891"/>
      <use xlink:href="#DejaVuSans-65" x="494.373047"/>
      <use xlink:href="#DejaVuSans-20" x="555.896484"/>
      <use xlink:href="#DejaVuSans-64" x="587.683594"/>
      <use xlink:href="#DejaVuSans-75" x="651.160156"/>
      <use xlink:href="#DejaVuSans-72" x="714.539062"/>
      <use xlink:href="#DejaVuSans-61" x="755.652344"/>
      <use xlink:href="#DejaVuSans-74" x="816.931641"/>
      <use xlink:href="#DejaVuSans-69" x="856.140625"/>
      <use xlink:href="#DejaVuSans-6f" x="883.923828"/>
      <use xlink:href="#DejaVuSans-6e" x="945.105469"/>
      <use xlink:href="#DejaVuSans-20" x="1008.484375"/>
      <use xlink:href="#DejaVuSans-28" x="1040.271484"/>
      <use xlink:href="#DejaVuSans-6d" x="1079.285156"/>
      <use xlink:href="#DejaVuSans-73" x="1176.697266"/>
      <use xlink:href="#DejaVuSans-29" x="1228.796875"/>
     </g>
    </g>
   </g>
   <g id="PolyCollection_1">
    <defs>
     <path id="mdef2306e8d" d="M 137.944584 -81.965377 
L 137.239416 -81.965377 
L 136.874884 -81.986327 
L 136.21325 -82.007278 
L 135.08389 -82.028228 
L 133.270827 -82.049179 
L 130.533542 -82.070129 
L 126.648683 -82.09108 
L 121.470692 -82.11203 
L 115.001282 -82.132981 
L 107.450064 -82.153932 
L 99.26466 -82.174882 
L 91.111161 -82.195833 
L 83.795848 -82.216783 
L 78.135336 -82.237734 
L 74.800638 -82.258684 
L 74.1744 -82.279635 
L 76.262849 -82.300585 
L 80.691024 -82.321536 
L 86.784561 -82.342486 
L 93.713263 -82.363437 
L 100.653215 -82.384387 
L 106.923091 -82.405338 
L 112.065851 -82.426288 
L 115.870049 -82.447239 
L 118.344224 -82.468189 
L 119.665758 -82.48914 
L 120.122349 -82.51009 
L 120.055612 -82.531041 
L 119.809245 -82.551991 
L 119.682422 -82.572942 
L 119.89159 -82.593892 
L 120.54676 -82.614843 
L 121.648088 -82.635793 
L 123.104207 -82.656744 
L 124.767371 -82.677694 
L 126.475428 -82.698645 
L 128.089219 -82.719595 
L 129.516623 -82.740546 
L 130.719602 -82.761497 
L 131.706101 -82.782447 
L 132.512543 -82.803398 
L 133.184215 -82.824348 
L 133.75984 -82.845299 
L 134.263953 -82.866249 
L 134.707341 -82.8872 
L 135.092944 -82.90815 
L 135.42315 -82.929101 
L 135.704729 -82.950051 
L 135.949392 -82.971002 
L 136.170326 -82.991952 
L 136.376982 -83.012903 
L 136.571011 -83.033853 
L 136.745461 -83.054804 
L 136.887618 -83.075754 
L 136.9842 -83.096705 
L 137.026779 -83.117655 
L 137.015507 -83.138606 
L 136.960062 -83.159556 
L 136.877787 -83.180507 
L 136.789756 -83.201457 
L 136.715958 -83.222408 
L 136.670902 -83.243358 
L 136.660795 -83.264309 
L 136.682992 -83.285259 
L 136.727725 -83.30621 
L 136.781399 -83.32716 
L 136.830299 -83.348111 
L 136.863598 -83.369061 
L 136.87498 -83.390012 
L 136.862914 -83.410963 
L 136.830016 -83.431913 
L 136.782036 -83.452864 
L 136.726804 -83.473814 
L 136.673137 -83.494765 
L 136.629589 -83.515715 
L 136.602988 -83.536666 
L 136.596971 -83.557616 
L 136.61095 -83.578567 
L 136.640058 -83.599517 
L 136.676422 -83.620468 
L 136.711612 -83.641418 
L 136.739493 -83.662369 
L 136.75836 -83.683319 
L 136.77135 -83.70427 
L 136.784912 -83.72522 
L 136.806019 -83.746171 
L 136.839452 -83.767121 
L 136.886369 -83.788072 
L 136.944633 -83.809022 
L 137.010391 -83.829973 
L 137.079871 -83.850923 
L 137.150412 -83.871874 
L 137.220421 -83.892824 
L 137.288632 -83.913775 
L 137.353396 -83.934725 
L 137.41252 -83.955676 
L 137.463724 -83.976626 
L 137.505358 -83.997577 
L 137.536926 -84.018527 
L 137.559156 -84.039478 
L 137.624844 -84.039478 
L 137.624844 -84.039478 
L 137.647074 -84.018527 
L 137.678642 -83.997577 
L 137.720276 -83.976626 
L 137.77148 -83.955676 
L 137.830604 -83.934725 
L 137.895368 -83.913775 
L 137.963579 -83.892824 
L 138.033588 -83.871874 
L 138.104129 -83.850923 
L 138.173609 -83.829973 
L 138.239367 -83.809022 
L 138.297631 -83.788072 
L 138.344548 -83.767121 
L 138.377981 -83.746171 
L 138.399088 -83.72522 
L 138.41265 -83.70427 
L 138.42564 -83.683319 
L 138.444507 -83.662369 
L 138.472388 -83.641418 
L 138.507578 -83.620468 
L 138.543942 -83.599517 
L 138.57305 -83.578567 
L 138.587029 -83.557616 
L 138.581012 -83.536666 
L 138.554411 -83.515715 
L 138.510863 -83.494765 
L 138.457196 -83.473814 
L 138.401964 -83.452864 
L 138.353984 -83.431913 
L 138.321086 -83.410963 
L 138.30902 -83.390012 
L 138.320402 -83.369061 
L 138.353701 -83.348111 
L 138.402601 -83.32716 
L 138.456275 -83.30621 
L 138.501008 -83.285259 
L 138.523205 -83.264309 
L 138.513098 -83.243358 
L 138.468042 -83.222408 
L 138.394244 -83.201457 
L 138.306213 -83.180507 
L 138.223938 -83.159556 
L 138.168493 -83.138606 
L 138.157221 -83.117655 
L 138.1998 -83.096705 
L 138.296382 -83.075754 
L 138.438539 -83.054804 
L 138.612989 -83.033853 
L 138.807018 -83.012903 
L 139.013674 -82.991952 
L 139.234608 -82.971002 
L 139.479271 -82.950051 
L 139.76085 -82.929101 
L 140.091056 -82.90815 
L 140.476659 -82.8872 
L 140.920047 -82.866249 
L 141.42416 -82.845299 
L 141.999785 -82.824348 
L 142.671457 -82.803398 
L 143.477899 -82.782447 
L 144.464398 -82.761497 
L 145.667377 -82.740546 
L 147.094781 -82.719595 
L 148.708572 -82.698645 
L 150.416629 -82.677694 
L 152.079793 -82.656744 
L 153.535912 -82.635793 
L 154.63724 -82.614843 
L 155.29241 -82.593892 
L 155.501578 -82.572942 
L 155.374755 -82.551991 
L 155.128388 -82.531041 
L 155.061651 -82.51009 
L 155.518242 -82.48914 
L 156.839776 -82.468189 
L 159.313951 -82.447239 
L 163.118149 -82.426288 
L 168.260909 -82.405338 
L 174.530785 -82.384387 
L 181.470737 -82.363437 
L 188.399439 -82.342486 
L 194.492976 -82.321536 
L 198.921151 -82.300585 
L 201.0096 -82.279635 
L 200.383362 -82.258684 
L 197.048664 -82.237734 
L 191.388152 -82.216783 
L 184.072839 -82.195833 
L 175.91934 -82.174882 
L 167.733936 -82.153932 
L 160.182718 -82.132981 
L 153.713308 -82.11203 
L 148.535317 -82.09108 
L 144.650458 -82.070129 
L 141.913173 -82.049179 
L 140.10011 -82.028228 
L 138.97075 -82.007278 
L 138.309116 -81.986327 
L 137.944584 -81.965377 
z
" style="stroke: #595959; stroke-width: 1.25"/>
    </defs>
    <g clip-path="url(#p799194fe93)">
     <use xlink:href="#mdef2306e8d" x="0" y="432" style="fill: #72b6a1; stroke: #595959; stroke-width: 1.25"/>
    </g>
   </g>
   <g id="PolyCollection_2">
    <defs>
     <path id="md982b96286" d="M 304.281582 -74.302074 
L 287.990418 -74.302074 
L 266.34945 -77.300954 
L 237.101071 -80.299834 
L 232.7184 -83.298715 
L 259.208857 -86.297595 
L 284.480194 -89.296475 
L 294.141529 -92.295356 
L 295.950974 -95.294236 
L 296.126693 -98.293116 
L 296.135746 -101.291996 
L 296.135996 -104.290877 
L 296.136 -107.289757 
L 296.136 -110.288637 
L 296.136 -113.287517 
L 296.136 -116.286398 
L 296.136 -119.285278 
L 296.136 -122.284158 
L 296.136 -125.283039 
L 296.136 -128.281919 
L 296.136 -131.280799 
L 296.136 -134.279679 
L 296.136 -137.27856 
L 296.136 -140.27744 
L 296.136 -143.27632 
L 296.136 -146.275201 
L 296.136 -149.274081 
L 296.136 -152.272961 
L 296.136 -155.271841 
L 296.136 -158.270722 
L 296.136 -161.269602 
L 296.136 -164.268482 
L 296.136 -167.267362 
L 296.136 -170.266243 
L 296.136 -173.265123 
L 296.136 -176.264003 
L 296.136 -179.262884 
L 296.136 -182.261764 
L 296.136 -185.260644 
L 296.136 -188.259524 
L 296.136 -191.258405 
L 296.136 -194.257285 
L 296.136 -197.256165 
L 296.136 -200.255045 
L 296.136 -203.253926 
L 296.136 -206.252806 
L 296.136 -209.251686 
L 296.136 -212.250567 
L 296.136 -215.249447 
L 296.136 -218.248327 
L 296.136 -221.247207 
L 296.136 -224.246088 
L 296.136 -227.244968 
L 296.136 -230.243848 
L 296.136 -233.242728 
L 296.136 -236.241609 
L 296.136 -239.240489 
L 296.136 -242.239369 
L 296.136 -245.23825 
L 296.136 -248.23713 
L 296.136 -251.23601 
L 296.136 -254.23489 
L 296.136 -257.233771 
L 296.136 -260.232651 
L 296.136 -263.231531 
L 296.136 -266.230411 
L 296.136 -269.229292 
L 296.136 -272.228172 
L 296.136 -275.227052 
L 296.136 -278.225933 
L 296.136 -281.224813 
L 296.136 -284.223693 
L 296.136 -287.222573 
L 296.136 -290.221454 
L 296.136 -293.220334 
L 296.136 -296.219214 
L 296.136 -299.218094 
L 296.136 -302.216975 
L 296.136 -305.215855 
L 296.136 -308.214735 
L 296.136 -311.213616 
L 296.136 -314.212496 
L 296.136 -317.211376 
L 296.136 -320.210256 
L 296.136 -323.209137 
L 296.136 -326.208017 
L 296.136 -329.206897 
L 296.136 -332.205777 
L 296.136 -335.204658 
L 296.136 -338.203538 
L 296.136 -341.202418 
L 296.136 -344.201299 
L 296.135985 -347.200179 
L 296.135681 -350.199059 
L 296.132413 -353.197939 
L 296.114151 -356.19682 
L 296.063925 -359.1957 
L 296.00724 -362.19458 
L 296.011424 -365.19346 
L 296.070726 -368.192341 
L 296.117478 -371.191221 
L 296.154522 -371.191221 
L 296.154522 -371.191221 
L 296.201274 -368.192341 
L 296.260576 -365.19346 
L 296.26476 -362.19458 
L 296.208075 -359.1957 
L 296.157849 -356.19682 
L 296.139587 -353.197939 
L 296.136319 -350.199059 
L 296.136015 -347.200179 
L 296.136 -344.201299 
L 296.136 -341.202418 
L 296.136 -338.203538 
L 296.136 -335.204658 
L 296.136 -332.205777 
L 296.136 -329.206897 
L 296.136 -326.208017 
L 296.136 -323.209137 
L 296.136 -320.210256 
L 296.136 -317.211376 
L 296.136 -314.212496 
L 296.136 -311.213616 
L 296.136 -308.214735 
L 296.136 -305.215855 
L 296.136 -302.216975 
L 296.136 -299.218094 
L 296.136 -296.219214 
L 296.136 -293.220334 
L 296.136 -290.221454 
L 296.136 -287.222573 
L 296.136 -284.223693 
L 296.136 -281.224813 
L 296.136 -278.225933 
L 296.136 -275.227052 
L 296.136 -272.228172 
L 296.136 -269.229292 
L 296.136 -266.230411 
L 296.136 -263.231531 
L 296.136 -260.232651 
L 296.136 -257.233771 
L 296.136 -254.23489 
L 296.136 -251.23601 
L 296.136 -248.23713 
L 296.136 -245.23825 
L 296.136 -242.239369 
L 296.136 -239.240489 
L 296.136 -236.241609 
L 296.136 -233.242728 
L 296.136 -230.243848 
L 296.136 -227.244968 
L 296.136 -224.246088 
L 296.136 -221.247207 
L 296.136 -218.248327 
L 296.136 -215.249447 
L 296.136 -212.250567 
L 296.136 -209.251686 
L 296.136 -206.252806 
L 296.136 -203.253926 
L 296.136 -200.255045 
L 296.136 -197.256165 
L 296.136 -194.257285 
L 296.136 -191.258405 
L 296.136 -188.259524 
L 296.136 -185.260644 
L 296.136 -182.261764 
L 296.136 -179.262884 
L 296.136 -176.264003 
L 296.136 -173.265123 
L 296.136 -170.266243 
L 296.136 -167.267362 
L 296.136 -164.268482 
L 296.136 -161.269602 
L 296.136 -158.270722 
L 296.136 -155.271841 
L 296.136 -152.272961 
L 296.136 -149.274081 
L 296.136 -146.275201 
L 296.136 -143.27632 
L 296.136 -140.27744 
L 296.136 -137.27856 
L 296.136 -134.279679 
L 296.136 -131.280799 
L 296.136 -128.281919 
L 296.136 -125.283039 
L 296.136 -122.284158 
L 296.136 -119.285278 
L 296.136 -116.286398 
L 296.136 -113.287517 
L 296.136 -110.288637 
L 296.136 -107.289757 
L 296.136004 -104.290877 
L 296.136254 -101.291996 
L 296.145307 -98.293116 
L 296.321026 -95.294236 
L 298.130471 -92.295356 
L 307.791806 -89.296475 
L 333.063143 -86.297595 
L 359.5536 -83.298715 
L 355.170929 -80.299834 
L 325.92255 -77.300954 
L 304.281582 -74.302074 
z
" style="stroke: #595959; stroke-width: 1.25"/>
    </defs>
    <g clip-path="url(#p799194fe93)">
     <use xlink:href="#md982b96286" x="0" y="432" style="fill: #e99675; stroke: #595959; stroke-width: 1.25"/>
    </g>
   </g>
   <g id="PolyCollection_3">
    <defs>
     <path id="mb0e897aa98" d="M 461.932263 -83.80996 
L 447.427737 -83.80996 
L 428.291266 -86.889466 
L 400.781064 -89.968972 
L 391.2624 -93.048478 
L 409.127562 -96.127984 
L 432.506656 -99.20749 
L 446.555032 -102.286996 
L 452.4424 -105.366502 
L 454.260592 -108.446008 
L 454.631291 -111.525514 
L 454.676682 -114.60502 
L 454.679871 -117.684526 
L 454.679997 -120.764032 
L 454.68 -123.843538 
L 454.68 -126.923044 
L 454.68 -130.00255 
L 454.68 -133.082056 
L 454.68 -136.161562 
L 454.68 -139.241068 
L 454.68 -142.320574 
L 454.68 -145.40008 
L 454.68 -148.479586 
L 454.68 -151.559092 
L 454.68 -154.638597 
L 454.68 -157.718103 
L 454.68 -160.797609 
L 454.68 -163.877115 
L 454.68 -166.956621 
L 454.68 -170.036127 
L 454.68 -173.115633 
L 454.68 -176.195139 
L 454.68 -179.274645 
L 454.68 -182.354151 
L 454.68 -185.433657 
L 454.68 -188.513163 
L 454.68 -191.592669 
L 454.68 -194.672175 
L 454.68 -197.751681 
L 454.68 -200.831187 
L 454.68 -203.910693 
L 454.68 -206.990199 
L 454.68 -210.069705 
L 454.68 -213.149211 
L 454.68 -216.228717 
L 454.68 -219.308223 
L 454.68 -222.387729 
L 454.68 -225.467235 
L 454.68 -228.546741 
L 454.68 -231.626247 
L 454.68 -234.705753 
L 454.68 -237.785259 
L 454.68 -240.864765 
L 454.68 -243.944271 
L 454.68 -247.023777 
L 454.68 -250.103283 
L 454.68 -253.182788 
L 454.68 -256.262294 
L 454.68 -259.3418 
L 454.68 -262.421306 
L 454.68 -265.500812 
L 454.68 -268.580318 
L 454.68 -271.659824 
L 454.68 -274.73933 
L 454.68 -277.818836 
L 454.68 -280.898342 
L 454.68 -283.977848 
L 454.68 -287.057354 
L 454.68 -290.13686 
L 454.68 -293.216366 
L 454.68 -296.295872 
L 454.68 -299.375378 
L 454.68 -302.454884 
L 454.68 -305.53439 
L 454.68 -308.613896 
L 454.68 -311.693402 
L 454.68 -314.772908 
L 454.68 -317.852414 
L 454.68 -320.93192 
L 454.68 -324.011426 
L 454.68 -327.090932 
L 454.68 -330.170438 
L 454.68 -333.249944 
L 454.68 -336.32945 
L 454.68 -339.408956 
L 454.68 -342.488462 
L 454.68 -345.567968 
L 454.68 -348.647474 
L 454.68 -351.72698 
L 454.68 -354.806485 
L 454.68 -357.885991 
L 454.679999 -360.965497 
L 454.679976 -364.045003 
L 454.679557 -367.124509 
L 454.675421 -370.204015 
L 454.653951 -373.283521 
L 454.598437 -376.363027 
L 454.53943 -379.442533 
L 454.546651 -382.522039 
L 454.610372 -385.601545 
L 454.659989 -388.681051 
L 454.700011 -388.681051 
L 454.700011 -388.681051 
L 454.749628 -385.601545 
L 454.813349 -382.522039 
L 454.82057 -379.442533 
L 454.761563 -376.363027 
L 454.706049 -373.283521 
L 454.684579 -370.204015 
L 454.680443 -367.124509 
L 454.680024 -364.045003 
L 454.680001 -360.965497 
L 454.68 -357.885991 
L 454.68 -354.806485 
L 454.68 -351.72698 
L 454.68 -348.647474 
L 454.68 -345.567968 
L 454.68 -342.488462 
L 454.68 -339.408956 
L 454.68 -336.32945 
L 454.68 -333.249944 
L 454.68 -330.170438 
L 454.68 -327.090932 
L 454.68 -324.011426 
L 454.68 -320.93192 
L 454.68 -317.852414 
L 454.68 -314.772908 
L 454.68 -311.693402 
L 454.68 -308.613896 
L 454.68 -305.53439 
L 454.68 -302.454884 
L 454.68 -299.375378 
L 454.68 -296.295872 
L 454.68 -293.216366 
L 454.68 -290.13686 
L 454.68 -287.057354 
L 454.68 -283.977848 
L 454.68 -280.898342 
L 454.68 -277.818836 
L 454.68 -274.73933 
L 454.68 -271.659824 
L 454.68 -268.580318 
L 454.68 -265.500812 
L 454.68 -262.421306 
L 454.68 -259.3418 
L 454.68 -256.262294 
L 454.68 -253.182788 
L 454.68 -250.103283 
L 454.68 -247.023777 
L 454.68 -243.944271 
L 454.68 -240.864765 
L 454.68 -237.785259 
L 454.68 -234.705753 
L 454.68 -231.626247 
L 454.68 -228.546741 
L 454.68 -225.467235 
L 454.68 -222.387729 
L 454.68 -219.308223 
L 454.68 -216.228717 
L 454.68 -213.149211 
L 454.68 -210.069705 
L 454.68 -206.990199 
L 454.68 -203.910693 
L 454.68 -200.831187 
L 454.68 -197.751681 
L 454.68 -194.672175 
L 454.68 -191.592669 
L 454.68 -188.513163 
L 454.68 -185.433657 
L 454.68 -182.354151 
L 454.68 -179.274645 
L 454.68 -176.195139 
L 454.68 -173.115633 
L 454.68 -170.036127 
L 454.68 -166.956621 
L 454.68 -163.877115 
L 454.68 -160.797609 
L 454.68 -157.718103 
L 454.68 -154.638597 
L 454.68 -151.559092 
L 454.68 -148.479586 
L 454.68 -145.40008 
L 454.68 -142.320574 
L 454.68 -139.241068 
L 454.68 -136.161562 
L 454.68 -133.082056 
L 454.68 -130.00255 
L 454.68 -126.923044 
L 454.68 -123.843538 
L 454.680003 -120.764032 
L 454.680129 -117.684526 
L 454.683318 -114.60502 
L 454.728709 -111.525514 
L 455.099408 -108.446008 
L 456.9176 -105.366502 
L 462.804968 -102.286996 
L 476.853344 -99.20749 
L 500.232438 -96.127984 
L 518.0976 -93.048478 
L 508.578936 -89.968972 
L 481.068734 -86.889466 
L 461.932263 -83.80996 
z
" style="stroke: #595959; stroke-width: 1.25"/>
    </defs>
    <g clip-path="url(#p799194fe93)">
     <use xlink:href="#mb0e897aa98" x="0" y="432" style="fill: #95a3c3; stroke: #595959; stroke-width: 1.25"/>
    </g>
   </g>
   <g id="PolyCollection_4">
    <defs>
     <path id="m5dfba383e0" d="M 620.618189 -88.522023 
L 605.829811 -88.522023 
L 586.722658 -91.550405 
L 559.238961 -94.578787 
L 549.8064 -97.607169 
L 567.953646 -100.635551 
L 589.64968 -103.663933 
L 600.492558 -106.692315 
L 605.898828 -109.720696 
L 610.004633 -112.749078 
L 612.331022 -115.77746 
L 613.077413 -118.805842 
L 613.210102 -121.834224 
L 613.223247 -124.862606 
L 613.223977 -127.890988 
L 613.224 -130.91937 
L 613.224 -133.947752 
L 613.224 -136.976133 
L 613.224 -140.004515 
L 613.224 -143.032897 
L 613.224 -146.061279 
L 613.224 -149.089661 
L 613.224 -152.118043 
L 613.224 -155.146425 
L 613.224 -158.174807 
L 613.224 -161.203189 
L 613.224 -164.23157 
L 613.224 -167.259952 
L 613.224 -170.288334 
L 613.224 -173.316716 
L 613.224 -176.345098 
L 613.224 -179.37348 
L 613.224 -182.401862 
L 613.224 -185.430244 
L 613.224 -188.458626 
L 613.224 -191.487007 
L 613.224 -194.515389 
L 613.224 -197.543771 
L 613.224 -200.572153 
L 613.224 -203.600535 
L 613.224 -206.628917 
L 613.224 -209.657299 
L 613.224 -212.685681 
L 613.224 -215.714063 
L 613.224 -218.742444 
L 613.224 -221.770826 
L 613.224 -224.799208 
L 613.224 -227.82759 
L 613.224 -230.855972 
L 613.224 -233.884354 
L 613.224 -236.912736 
L 613.224 -239.941118 
L 613.224 -242.9695 
L 613.224 -245.997881 
L 613.224 -249.026263 
L 613.224 -252.054645 
L 613.224 -255.083027 
L 613.224 -258.111409 
L 613.224 -261.139791 
L 613.224 -264.168173 
L 613.224 -267.196555 
L 613.224 -270.224937 
L 613.224 -273.253318 
L 613.224 -276.2817 
L 613.224 -279.310082 
L 613.224 -282.338464 
L 613.224 -285.366846 
L 613.224 -288.395228 
L 613.224 -291.42361 
L 613.224 -294.451992 
L 613.224 -297.480374 
L 613.224 -300.508755 
L 613.224 -303.537137 
L 613.224 -306.565519 
L 613.224 -309.593901 
L 613.224 -312.622283 
L 613.224 -315.650665 
L 613.224 -318.679047 
L 613.224 -321.707429 
L 613.224 -324.735811 
L 613.224 -327.764192 
L 613.224 -330.792574 
L 613.224 -333.820956 
L 613.224 -336.849338 
L 613.224 -339.87772 
L 613.224 -342.906102 
L 613.224 -345.934484 
L 613.224 -348.962866 
L 613.224 -351.991248 
L 613.224 -355.019629 
L 613.224 -358.048011 
L 613.223999 -361.076393 
L 613.223959 -364.104775 
L 613.223338 -367.133157 
L 613.217926 -370.161539 
L 613.192611 -373.189921 
L 613.132651 -376.218303 
L 613.074279 -379.246685 
L 613.0858 -382.275067 
L 613.152158 -385.303448 
L 613.202967 -388.33183 
L 613.245033 -388.33183 
L 613.245033 -388.33183 
L 613.295842 -385.303448 
L 613.3622 -382.275067 
L 613.373721 -379.246685 
L 613.315349 -376.218303 
L 613.255389 -373.189921 
L 613.230074 -370.161539 
L 613.224662 -367.133157 
L 613.224041 -364.104775 
L 613.224001 -361.076393 
L 613.224 -358.048011 
L 613.224 -355.019629 
L 613.224 -351.991248 
L 613.224 -348.962866 
L 613.224 -345.934484 
L 613.224 -342.906102 
L 613.224 -339.87772 
L 613.224 -336.849338 
L 613.224 -333.820956 
L 613.224 -330.792574 
L 613.224 -327.764192 
L 613.224 -324.735811 
L 613.224 -321.707429 
L 613.224 -318.679047 
L 613.224 -315.650665 
L 613.224 -312.622283 
L 613.224 -309.593901 
L 613.224 -306.565519 
L 613.224 -303.537137 
L 613.224 -300.508755 
L 613.224 -297.480374 
L 613.224 -294.451992 
L 613.224 -291.42361 
L 613.224 -288.395228 
L 613.224 -285.366846 
L 613.224 -282.338464 
L 613.224 -279.310082 
L 613.224 -276.2817 
L 613.224 -273.253318 
L 613.224 -270.224937 
L 613.224 -267.196555 
L 613.224 -264.168173 
L 613.224 -261.139791 
L 613.224 -258.111409 
L 613.224 -255.083027 
L 613.224 -252.054645 
L 613.224 -249.026263 
L 613.224 -245.997881 
L 613.224 -242.9695 
L 613.224 -239.941118 
L 613.224 -236.912736 
L 613.224 -233.884354 
L 613.224 -230.855972 
L 613.224 -227.82759 
L 613.224 -224.799208 
L 613.224 -221.770826 
L 613.224 -218.742444 
L 613.224 -215.714063 
L 613.224 -212.685681 
L 613.224 -209.657299 
L 613.224 -206.628917 
L 613.224 -203.600535 
L 613.224 -200.572153 
L 613.224 -197.543771 
L 613.224 -194.515389 
L 613.224 -191.487007 
L 613.224 -188.458626 
L 613.224 -185.430244 
L 613.224 -182.401862 
L 613.224 -179.37348 
L 613.224 -176.345098 
L 613.224 -173.316716 
L 613.224 -170.288334 
L 613.224 -167.259952 
L 613.224 -164.23157 
L 613.224 -161.203189 
L 613.224 -158.174807 
L 613.224 -155.146425 
L 613.224 -152.118043 
L 613.224 -149.089661 
L 613.224 -146.061279 
L 613.224 -143.032897 
L 613.224 -140.004515 
L 613.224 -136.976133 
L 613.224 -133.947752 
L 613.224 -130.91937 
L 613.224023 -127.890988 
L 613.224753 -124.862606 
L 613.237898 -121.834224 
L 613.370587 -118.805842 
L 614.116978 -115.77746 
L 616.443367 -112.749078 
L 620.549172 -109.720696 
L 625.955442 -106.692315 
L 636.79832 -103.663933 
L 658.494354 -100.635551 
L 676.6416 -97.607169 
L 667.209039 -94.578787 
L 639.725342 -91.550405 
L 620.618189 -88.522023 
z
" style="stroke: #595959; stroke-width: 1.25"/>
    </defs>
    <g clip-path="url(#p799194fe93)">
     <use xlink:href="#m5dfba383e0" x="0" y="432" style="fill: #db96c0; stroke: #595959; stroke-width: 1.25"/>
    </g>
   </g>
   <g id="PolyCollection_5">
    <defs>
     <path id="md9c800bd5a" d="M 778.797551 -85.025727 
L 764.738449 -85.025727 
L 745.947739 -88.031289 
L 718.513821 -91.036851 
L 708.3504 -94.042413 
L 725.574074 -97.047975 
L 749.225443 -100.053537 
L 763.798416 -103.059099 
L 769.728121 -106.064662 
L 771.411565 -109.070224 
L 771.727887 -112.075786 
L 771.765219 -115.081348 
L 771.767885 -118.08691 
L 771.767997 -121.092472 
L 771.768 -124.098034 
L 771.768 -127.103596 
L 771.768 -130.109158 
L 771.768 -133.114721 
L 771.768 -136.120283 
L 771.768 -139.125845 
L 771.768 -142.131407 
L 771.768 -145.136969 
L 771.768 -148.142531 
L 771.768 -151.148093 
L 771.768 -154.153655 
L 771.768 -157.159217 
L 771.768 -160.16478 
L 771.768 -163.170342 
L 771.768 -166.175904 
L 771.768 -169.181466 
L 771.768 -172.187028 
L 771.768 -175.19259 
L 771.768 -178.198152 
L 771.768 -181.203714 
L 771.768 -184.209277 
L 771.768 -187.214839 
L 771.768 -190.220401 
L 771.768 -193.225963 
L 771.768 -196.231525 
L 771.768 -199.237087 
L 771.768 -202.242649 
L 771.768 -205.248211 
L 771.768 -208.253773 
L 771.768 -211.259336 
L 771.768 -214.264898 
L 771.768 -217.27046 
L 771.768 -220.276022 
L 771.768 -223.281584 
L 771.768 -226.287146 
L 771.768 -229.292708 
L 771.768 -232.29827 
L 771.768 -235.303833 
L 771.768 -238.309395 
L 771.768 -241.314957 
L 771.768 -244.320519 
L 771.768 -247.326081 
L 771.768 -250.331643 
L 771.768 -253.337205 
L 771.768 -256.342767 
L 771.768 -259.348329 
L 771.768 -262.353892 
L 771.768 -265.359454 
L 771.768 -268.365016 
L 771.768 -271.370578 
L 771.768 -274.37614 
L 771.768 -277.381702 
L 771.768 -280.387264 
L 771.768 -283.392826 
L 771.768 -286.398389 
L 771.768 -289.403951 
L 771.768 -292.409513 
L 771.768 -295.415075 
L 771.768 -298.420637 
L 771.768 -301.426199 
L 771.768 -304.431761 
L 771.768 -307.437323 
L 771.768 -310.442885 
L 771.768 -313.448448 
L 771.768 -316.45401 
L 771.768 -319.459572 
L 771.768 -322.465134 
L 771.768 -325.470696 
L 771.768 -328.476258 
L 771.768 -331.48182 
L 771.768 -334.487382 
L 771.768 -337.492945 
L 771.768 -340.498507 
L 771.768 -343.504069 
L 771.768 -346.509631 
L 771.768 -349.515193 
L 771.768 -352.520755 
L 771.767999 -355.526317 
L 771.767978 -358.531879 
L 771.767574 -361.537441 
L 771.763542 -364.543004 
L 771.742402 -367.548566 
L 771.68728 -370.554128 
L 771.628203 -373.55969 
L 771.635031 -376.565252 
L 771.698539 -379.570814 
L 771.748071 -382.576376 
L 771.787929 -382.576376 
L 771.787929 -382.576376 
L 771.837461 -379.570814 
L 771.900969 -376.565252 
L 771.907797 -373.55969 
L 771.84872 -370.554128 
L 771.793598 -367.548566 
L 771.772458 -364.543004 
L 771.768426 -361.537441 
L 771.768022 -358.531879 
L 771.768001 -355.526317 
L 771.768 -352.520755 
L 771.768 -349.515193 
L 771.768 -346.509631 
L 771.768 -343.504069 
L 771.768 -340.498507 
L 771.768 -337.492945 
L 771.768 -334.487382 
L 771.768 -331.48182 
L 771.768 -328.476258 
L 771.768 -325.470696 
L 771.768 -322.465134 
L 771.768 -319.459572 
L 771.768 -316.45401 
L 771.768 -313.448448 
L 771.768 -310.442885 
L 771.768 -307.437323 
L 771.768 -304.431761 
L 771.768 -301.426199 
L 771.768 -298.420637 
L 771.768 -295.415075 
L 771.768 -292.409513 
L 771.768 -289.403951 
L 771.768 -286.398389 
L 771.768 -283.392826 
L 771.768 -280.387264 
L 771.768 -277.381702 
L 771.768 -274.37614 
L 771.768 -271.370578 
L 771.768 -268.365016 
L 771.768 -265.359454 
L 771.768 -262.353892 
L 771.768 -259.348329 
L 771.768 -256.342767 
L 771.768 -253.337205 
L 771.768 -250.331643 
L 771.768 -247.326081 
L 771.768 -244.320519 
L 771.768 -241.314957 
L 771.768 -238.309395 
L 771.768 -235.303833 
L 771.768 -232.29827 
L 771.768 -229.292708 
L 771.768 -226.287146 
L 771.768 -223.281584 
L 771.768 -220.276022 
L 771.768 -217.27046 
L 771.768 -214.264898 
L 771.768 -211.259336 
L 771.768 -208.253773 
L 771.768 -205.248211 
L 771.768 -202.242649 
L 771.768 -199.237087 
L 771.768 -196.231525 
L 771.768 -193.225963 
L 771.768 -190.220401 
L 771.768 -187.214839 
L 771.768 -184.209277 
L 771.768 -181.203714 
L 771.768 -178.198152 
L 771.768 -175.19259 
L 771.768 -172.187028 
L 771.768 -169.181466 
L 771.768 -166.175904 
L 771.768 -163.170342 
L 771.768 -160.16478 
L 771.768 -157.159217 
L 771.768 -154.153655 
L 771.768 -151.148093 
L 771.768 -148.142531 
L 771.768 -145.136969 
L 771.768 -142.131407 
L 771.768 -139.125845 
L 771.768 -136.120283 
L 771.768 -133.114721 
L 771.768 -130.109158 
L 771.768 -127.103596 
L 771.768 -124.098034 
L 771.768003 -121.092472 
L 771.768115 -118.08691 
L 771.770781 -115.081348 
L 771.808113 -112.075786 
L 772.124435 -109.070224 
L 773.807879 -106.064662 
L 779.737584 -103.059099 
L 794.310557 -100.053537 
L 817.961926 -97.047975 
L 835.1856 -94.042413 
L 825.022179 -91.036851 
L 797.588261 -88.031289 
L 778.797551 -85.025727 
z
" style="stroke: #595959; stroke-width: 1.25"/>
    </defs>
    <g clip-path="url(#p799194fe93)">
     <use xlink:href="#md9c800bd5a" x="0" y="432" style="fill: #a2c865; stroke: #595959; stroke-width: 1.25"/>
    </g>
   </g>
   <g id="line2d_6">
    <path d="M 137.592 349.744587 
L 137.592 349.877857 
" clip-path="url(#p799194fe93)" style="fill: none; stroke: #000000"/>
   </g>
   <g id="line2d_7">
    <path d="M 137.592 349.492075 
L 137.592 349.120321 
" clip-path="url(#p799194fe93)" style="fill: none; stroke: #000000"/>
   </g>
   <g id="line2d_8">
    <path d="M 131.6466 349.877857 
L 143.5374 349.877857 
" clip-path="url(#p799194fe93)" style="fill: none; stroke: #000000; stroke-linecap: round"/>
   </g>
   <g id="line2d_9">
    <path d="M 131.6466 349.120321 
L 143.5374 349.120321 
" clip-path="url(#p799194fe93)" style="fill: none; stroke: #000000; stroke-linecap: round"/>
   </g>
   <g id="line2d_10">
    <path d="M 296.136 349.940985 
L 296.136 350.039184 
" clip-path="url(#p799194fe93)" style="fill: none; stroke: #000000"/>
   </g>
   <g id="line2d_11">
    <path d="M 296.136 349.828757 
L 296.136 349.674444 
" clip-path="url(#p799194fe93)" style="fill: none; stroke: #000000"/>
   </g>
   <g id="line2d_12">
    <path d="M 290.1906 350.039184 
L 302.0814 350.039184 
" clip-path="url(#p799194fe93)" style="fill: none; stroke: #000000; stroke-linecap: round"/>
   </g>
   <g id="line2d_13">
    <path d="M 290.1906 349.674444 
L 302.0814 349.674444 
" clip-path="url(#p799194fe93)" style="fill: none; stroke: #000000; stroke-linecap: round"/>
   </g>
   <g id="line2d_14">
    <path d="M 454.68 340.114068 
L 454.68 340.219282 
" clip-path="url(#p799194fe93)" style="fill: none; stroke: #000000"/>
   </g>
   <g id="line2d_15">
    <path d="M 454.68 339.96677 
L 454.68 339.756343 
" clip-path="url(#p799194fe93)" style="fill: none; stroke: #000000"/>
   </g>
   <g id="line2d_16">
    <path d="M 448.7346 340.219282 
L 460.6254 340.219282 
" clip-path="url(#p799194fe93)" style="fill: none; stroke: #000000; stroke-linecap: round"/>
   </g>
   <g id="line2d_17">
    <path d="M 448.7346 339.756343 
L 460.6254 339.756343 
" clip-path="url(#p799194fe93)" style="fill: none; stroke: #000000; stroke-linecap: round"/>
   </g>
   <g id="line2d_18">
    <path d="M 613.224 335.351416 
L 613.224 335.484686 
" clip-path="url(#p799194fe93)" style="fill: none; stroke: #000000"/>
   </g>
   <g id="line2d_19">
    <path d="M 613.224 334.948098 
L 613.224 334.355397 
" clip-path="url(#p799194fe93)" style="fill: none; stroke: #000000"/>
   </g>
   <g id="line2d_20">
    <path d="M 607.2786 335.484686 
L 619.1694 335.484686 
" clip-path="url(#p799194fe93)" style="fill: none; stroke: #000000; stroke-linecap: round"/>
   </g>
   <g id="line2d_21">
    <path d="M 607.2786 334.355397 
L 619.1694 334.355397 
" clip-path="url(#p799194fe93)" style="fill: none; stroke: #000000; stroke-linecap: round"/>
   </g>
   <g id="line2d_22">
    <path d="M 771.768 339.089993 
L 771.768 339.209235 
" clip-path="url(#p799194fe93)" style="fill: none; stroke: #000000"/>
   </g>
   <g id="line2d_23">
    <path d="M 771.768 338.714732 
L 771.768 338.26933 
" clip-path="url(#p799194fe93)" style="fill: none; stroke: #000000"/>
   </g>
   <g id="line2d_24">
    <path d="M 765.8226 339.209235 
L 777.7134 339.209235 
" clip-path="url(#p799194fe93)" style="fill: none; stroke: #000000; stroke-linecap: round"/>
   </g>
   <g id="line2d_25">
    <path d="M 765.8226 338.26933 
L 777.7134 338.26933 
" clip-path="url(#p799194fe93)" style="fill: none; stroke: #000000; stroke-linecap: round"/>
   </g>
   <g id="line2d_26">
    <path d="M 125.7012 349.695487 
L 149.4828 349.695487 
" clip-path="url(#p799194fe93)" style="fill: none; stroke: #ff0000; stroke-width: 2"/>
   </g>
   <g id="line2d_27">
    <path d="M 284.2452 349.891885 
L 308.0268 349.891885 
" clip-path="url(#p799194fe93)" style="fill: none; stroke: #ff0000; stroke-width: 2"/>
   </g>
   <g id="line2d_28">
    <path d="M 442.7892 340.064969 
L 466.5708 340.064969 
" clip-path="url(#p799194fe93)" style="fill: none; stroke: #ff0000; stroke-width: 2"/>
   </g>
   <g id="line2d_29">
    <path d="M 601.3332 335.288288 
L 625.1148 335.288288 
" clip-path="url(#p799194fe93)" style="fill: none; stroke: #ff0000; stroke-width: 2"/>
   </g>
   <g id="line2d_30">
    <path d="M 759.8772 339.040893 
L 783.6588 339.040893 
" clip-path="url(#p799194fe93)" style="fill: none; stroke: #ff0000; stroke-width: 2"/>
   </g>
   <g id="patch_3">
    <path d="M 58.32 373.416875 
L 58.32 27.6 
" style="fill: none; stroke: #cccccc; stroke-width: 1.25; stroke-linejoin: miter; stroke-linecap: square"/>
   </g>
   <g id="patch_4">
    <path d="M 851.04 373.416875 
L 851.04 27.6 
" style="fill: none; stroke: #cccccc; stroke-width: 1.25; stroke-linejoin: miter; stroke-linecap: square"/>
   </g>
   <g id="patch_5">
    <path d="M 58.32 373.416875 
L 851.04 373.416875 
" style="fill: none; stroke: #cccccc; stroke-width: 1.25; stroke-linejoin: miter; stroke-linecap: square"/>
   </g>
   <g id="patch_6">
    <path d="M 58.32 27.6 
L 851.04 27.6 
" style="fill: none; stroke: #cccccc; stroke-width: 1.25; stroke-linejoin: miter; stroke-linecap: square"/>
   </g>
   <g id="text_12">
    <!-- Handshake duration on QUIC with ed25519 signature algorithm — Backbone (200ms/4%) -->
    <g style="fill: #262626" transform="translate(185.743125 21.6) scale(0.12 -0.12)">
     <defs>
      <path id="DejaVuSans-51" d="M 2522 4238 
Q 1834 4238 1429 3725 
Q 1025 3213 1025 2328 
Q 1025 1447 1429 934 
Q 1834 422 2522 422 
Q 3209 422 3611 934 
Q 4013 1447 4013 2328 
Q 4013 3213 3611 3725 
Q 3209 4238 2522 4238 
z
M 3406 84 
L 4238 -825 
L 3475 -825 
L 2784 -78 
Q 2681 -84 2626 -87 
Q 2572 -91 2522 -91 
Q 1538 -91 948 567 
Q 359 1225 359 2328 
Q 359 3434 948 4092 
Q 1538 4750 2522 4750 
Q 3503 4750 4090 4092 
Q 4678 3434 4678 2328 
Q 4678 1516 4351 937 
Q 4025 359 3406 84 
z
" transform="scale(0.015625)"/>
      <path id="DejaVuSans-55" d="M 556 4666 
L 1191 4666 
L 1191 1831 
Q 1191 1081 1462 751 
Q 1734 422 2344 422 
Q 2950 422 3222 751 
Q 3494 1081 3494 1831 
L 3494 4666 
L 4128 4666 
L 4128 1753 
Q 4128 841 3676 375 
Q 3225 -91 2344 -91 
Q 1459 -91 1007 375 
Q 556 841 556 1753 
L 556 4666 
z
" transform="scale(0.015625)"/>
      <path id="DejaVuSans-49" d="M 628 4666 
L 1259 4666 
L 1259 0 
L 628 0 
L 628 4666 
z
" transform="scale(0.015625)"/>
      <path id="DejaVuSans-43" d="M 4122 4306 
L 4122 3641 
Q 3803 3938 3442 4084 
Q 3081 4231 2675 4231 
Q 1875 4231 1450 3742 
Q 1025 3253 1025 2328 
Q 1025 1406 1450 917 
Q 1875 428 2675 428 
Q 3081 428 3442 575 
Q 3803 722 4122 1019 
L 4122 359 
Q 3791 134 3420 21 
Q 3050 -91 2638 -91 
Q 1578 -91 968 557 
Q 359 1206 359 2328 
Q 359 3453 968 4101 
Q 1578 4750 2638 4750 
Q 3056 4750 3426 4639 
Q 3797 4528 4122 4306 
z
" transform="scale(0.015625)"/>
      <path id="DejaVuSans-77" d="M 269 3500 
L 844 3500 
L 1563 769 
L 2278 3500 
L 2956 3500 
L 3675 769 
L 4391 3500 
L 4966 3500 
L 4050 0 
L 3372 0 
L 2619 2869 
L 1863 0 
L 1184 0 
L 269 3500 
z
" transform="scale(0.015625)"/>
      <path id="DejaVuSans-67" d="M 2906 1791 
Q 2906 2416 2648 2759 
Q 2391 3103 1925 3103 
Q 1463 3103 1205 2759 
Q 947 2416 947 1791 
Q 947 1169 1205 825 
Q 1463 481 1925 481 
Q 2391 481 2648 825 
Q 2906 1169 2906 1791 
z
M 3481 434 
Q 3481 -459 3084 -895 
Q 2688 -1331 1869 -1331 
Q 1566 -1331 1297 -1286 
Q 1028 -1241 775 -1147 
L 775 -588 
Q 1028 -725 1275 -790 
Q 1522 -856 1778 -856 
Q 2344 -856 2625 -561 
Q 2906 -266 2906 331 
L 2906 616 
Q 2728 306 2450 153 
Q 2172 0 1784 0 
Q 1141 0 747 490 
Q 353 981 353 1791 
Q 353 2603 747 3093 
Q 1141 3584 1784 3584 
Q 2172 3584 2450 3431 
Q 2728 3278 2906 2969 
L 2906 3500 
L 3481 3500 
L 3481 434 
z
" transform="scale(0.015625)"/>
      <path id="DejaVuSans-6c" d="M 603 4863 
L 1178 4863 
L 1178 0 
L 603 0 
L 603 4863 
z
" transform="scale(0.015625)"/>
      <path id="DejaVuSans-2014" d="M 313 1978 
L 6088 1978 
L 6088 1528 
L 313 1528 
L 313 1978 
z
" transform="scale(0.015625)"/>
      <path id="DejaVuSans-42" d="M 1259 2228 
L 1259 519 
L 2272 519 
Q 2781 519 3026 730 
Q 3272 941 3272 1375 
Q 3272 1813 3026 2020 
Q 2781 2228 2272 2228 
L 1259 2228 
z
M 1259 4147 
L 1259 2741 
L 2194 2741 
Q 2656 2741 2882 2914 
Q 3109 3088 3109 3444 
Q 3109 3797 2882 3972 
Q 2656 4147 2194 4147 
L 1259 4147 
z
M 628 4666 
L 2241 4666 
Q 2963 4666 3353 4366 
Q 3744 4066 3744 3513 
Q 3744 3084 3544 2831 
Q 3344 2578 2956 2516 
Q 3422 2416 3680 2098 
Q 3938 1781 3938 1306 
Q 3938 681 3513 340 
Q 3088 0 2303 0 
L 628 0 
L 628 4666 
z
" transform="scale(0.015625)"/>
      <path id="DejaVuSans-62" d="M 3116 1747 
Q 3116 2381 2855 2742 
Q 2594 3103 2138 3103 
Q 1681 3103 1420 2742 
Q 1159 2381 1159 1747 
Q 1159 1113 1420 752 
Q 1681 391 2138 391 
Q 2594 391 2855 752 
Q 3116 1113 3116 1747 
z
M 1159 2969 
Q 1341 3281 1617 3432 
Q 1894 3584 2278 3584 
Q 2916 3584 3314 3078 
Q 3713 2572 3713 1747 
Q 3713 922 3314 415 
Q 2916 -91 2278 -91 
Q 1894 -91 1617 61 
Q 1341 213 1159 525 
L 1159 0 
L 581 0 
L 581 4863 
L 1159 4863 
L 1159 2969 
z
" transform="scale(0.015625)"/>
      <path id="DejaVuSans-2f" d="M 1625 4666 
L 2156 4666 
L 531 -594 
L 0 -594 
L 1625 4666 
z
" transform="scale(0.015625)"/>
      <path id="DejaVuSans-25" d="M 4653 2053 
Q 4381 2053 4226 1822 
Q 4072 1591 4072 1178 
Q 4072 772 4226 539 
Q 4381 306 4653 306 
Q 4919 306 5073 539 
Q 5228 772 5228 1178 
Q 5228 1588 5073 1820 
Q 4919 2053 4653 2053 
z
M 4653 2450 
Q 5147 2450 5437 2106 
Q 5728 1763 5728 1178 
Q 5728 594 5436 251 
Q 5144 -91 4653 -91 
Q 4153 -91 3862 251 
Q 3572 594 3572 1178 
Q 3572 1766 3864 2108 
Q 4156 2450 4653 2450 
z
M 1428 4353 
Q 1159 4353 1004 4120 
Q 850 3888 850 3481 
Q 850 3069 1003 2837 
Q 1156 2606 1428 2606 
Q 1700 2606 1854 2837 
Q 2009 3069 2009 3481 
Q 2009 3884 1853 4118 
Q 1697 4353 1428 4353 
z
M 4250 4750 
L 4750 4750 
L 1831 -91 
L 1331 -91 
L 4250 4750 
z
M 1428 4750 
Q 1922 4750 2215 4408 
Q 2509 4066 2509 3481 
Q 2509 2891 2217 2550 
Q 1925 2209 1428 2209 
Q 931 2209 642 2551 
Q 353 2894 353 3481 
Q 353 4063 643 4406 
Q 934 4750 1428 4750 
z
" transform="scale(0.015625)"/>
     </defs>
     <use xlink:href="#DejaVuSans-48"/>
     <use xlink:href="#DejaVuSans-61" x="75.195312"/>
     <use xlink:href="#DejaVuSans-6e" x="136.474609"/>
     <use xlink:href="#DejaVuSans-64" x="199.853516"/>
     <use xlink:href="#DejaVuSans-73" x="263.330078"/>
     <use xlink:href="#DejaVuSans-68" x="315.429688"/>
     <use xlink:href="#DejaVuSans-61" x="378.808594"/>
     <use xlink:href="#DejaVuSans-6b" x="440.087891"/>
     <use xlink:href="#DejaVuSans-65" x="494.373047"/>
     <use xlink:href="#DejaVuSans-20" x="555.896484"/>
     <use xlink:href="#DejaVuSans-64" x="587.683594"/>
     <use xlink:href="#DejaVuSans-75" x="651.160156"/>
     <use xlink:href="#DejaVuSans-72" x="714.539062"/>
     <use xlink:href="#DejaVuSans-61" x="755.652344"/>
     <use xlink:href="#DejaVuSans-74" x="816.931641"/>
     <use xlink:href="#DejaVuSans-69" x="856.140625"/>
     <use xlink:href="#DejaVuSans-6f" x="883.923828"/>
     <use xlink:href="#DejaVuSans-6e" x="945.105469"/>
     <use xlink:href="#DejaVuSans-20" x="1008.484375"/>
     <use xlink:href="#DejaVuSans-6f" x="1040.271484"/>
     <use xlink:href="#DejaVuSans-6e" x="1101.453125"/>
     <use xlink:href="#DejaVuSans-20" x="1164.832031"/>
     <use xlink:href="#DejaVuSans-51" x="1196.619141"/>
     <use xlink:href="#DejaVuSans-55" x="1275.330078"/>
     <use xlink:href="#DejaVuSans-49" x="1348.523438"/>
     <use xlink:href="#DejaVuSans-43" x="1378.015625"/>
     <use xlink:href="#DejaVuSans-20" x="1447.839844"/>
     <use xlink:href="#DejaVuSans-77" x="1479.626953"/>
     <use xlink:href="#DejaVuSans-69" x="1561.414062"/>
     <use xlink:href="#DejaVuSans-74" x="1589.197266"/>
     <use xlink:href="#DejaVuSans-68" x="1628.40625"/>
     <use xlink:href="#DejaVuSans-20" x="1691.785156"/>
     <use xlink:href="#DejaVuSans-65" x="1723.572266"/>
     <use xlink:href="#DejaVuSans-64" x="1785.095703"/>
     <use xlink:href="#DejaVuSans-32" x="1848.572266"/>
     <use xlink:href="#DejaVuSans-35" x="1912.195312"/>
     <use xlink:href="#DejaVuSans-35" x="1975.818359"/>
     <use xlink:href="#DejaVuSans-31" x="2039.441406"/>
     <use xlink:href="#DejaVuSans-39" x="2103.064453"/>
     <use xlink:href="#DejaVuSans-20" x="2166.6875"/>
     <use xlink:href="#DejaVuSans-73" x="2198.474609"/>
     <use xlink:href="#DejaVuSans-69" x="2250.574219"/>
     <use xlink:href="#DejaVuSans-67" x="2278.357422"/>
     <use xlink:href="#DejaVuSans-6e" x="2341.833984"/>
     <use xlink:href="#DejaVuSans-61" x="2405.212891"/>
     <use xlink:href="#DejaVuSans-74" x="2466.492188"/>
     <use xlink:href="#DejaVuSans-75" x="2505.701172"/>
     <use xlink:href="#DejaVuSans-72" x="2569.080078"/>
     <use xlink:href="#DejaVuSans-65" x="2607.943359"/>
     <use xlink:href="#DejaVuSans-20" x="2669.466797"/>
     <use xlink:href="#DejaVuSans-61" x="2701.253906"/>
     <use xlink:href="#DejaVuSans-6c" x="2762.533203"/>
     <use xlink:href="#DejaVuSans-67" x="2790.316406"/>
     <use xlink:href="#DejaVuSans-6f" x="2853.792969"/>
     <use xlink:href="#DejaVuSans-72" x="2914.974609"/>
     <use xlink:href="#DejaVuSans-69" x="2956.087891"/>
     <use xlink:href="#DejaVuSans-74" x="2983.871094"/>
     <use xlink:href="#DejaVuSans-68" x="3023.080078"/>
     <use xlink:href="#DejaVuSans-6d" x="3086.458984"/>
     <use xlink:href="#DejaVuSans-20" x="3183.871094"/>
     <use xlink:href="#DejaVuSans-2014" x="3215.658203"/>
     <use xlink:href="#DejaVuSans-20" x="3315.658203"/>
     <use xlink:href="#DejaVuSans-42" x="3347.445312"/>
     <use xlink:href="#DejaVuSans-61" x="3416.048828"/>
     <use xlink:href="#DejaVuSans-63" x="3477.328125"/>
     <use xlink:href="#DejaVuSans-6b" x="3532.308594"/>
     <use xlink:href="#DejaVuSans-62" x="3590.21875"/>
     <use xlink:href="#DejaVuSans-6f" x="3653.695312"/>
     <use xlink:href="#DejaVuSans-6e" x="3714.876953"/>
     <use xlink:href="#DejaVuSans-65" x="3778.255859"/>
     <use xlink:href="#DejaVuSans-20" x="3839.779297"/>
     <use xlink:href="#DejaVuSans-28" x="3871.566406"/>
     <use xlink:href="#DejaVuSans-32" x="3910.580078"/>
     <use xlink:href="#DejaVuSans-30" x="3974.203125"/>
     <use xlink:href="#DejaVuSans-30" x="4037.826172"/>
     <use xlink:href="#DejaVuSans-6d" x="4101.449219"/>
     <use xlink:href="#DejaVuSans-73" x="4198.861328"/>
     <use xlink:href="#DejaVuSans-2f" x="4250.960938"/>
     <use xlink:href="#DejaVuSans-34" x="4284.652344"/>
     <use xlink:href="#DejaVuSans-25" x="4348.275391"/>
     <use xlink:href="#DejaVuSans-29" x="4443.294922"/>
    </g>
   </g>
  </g>
 </g>
 <defs>
  <clipPath id="p799194fe93">
   <rect x="58.32" y="27.6" width="792.72" height="345.816875"/>
  </clipPath>
 </defs>
</svg>
