<?xml version="1.0" encoding="utf-8" standalone="no"?>
<!DOCTYPE svg PUBLIC "-//W3C//DTD SVG 1.1//EN"
  "http://www.w3.org/Graphics/SVG/1.1/DTD/svg11.dtd">
<svg xmlns:xlink="http://www.w3.org/1999/xlink" width="864pt" height="432pt" viewBox="0 0 864 432" xmlns="http://www.w3.org/2000/svg" version="1.1">
 <metadata>
  <rdf:RDF xmlns:dc="http://purl.org/dc/elements/1.1/" xmlns:cc="http://creativecommons.org/ns#" xmlns:rdf="http://www.w3.org/1999/02/22-rdf-syntax-ns#">
   <cc:Work>
    <dc:type rdf:resource="http://purl.org/dc/dcmitype/StillImage"/>
    <dc:date>2026-03-21T14:06:27.858022</dc:date>
    <dc:format>image/svg+xml</dc:format>
    <dc:creator>
     <cc:Agent>
      <dc:title>Matplotlib v3.6.3, https://matplotlib.org/</dc:title>
     </cc:Agent>
    </dc:creator>
   </cc:Work>
  </rdf:RDF>
 </metadata>
 <defs>
  <style type="text/css">*{stroke-linejoin: round; stroke-linecap: butt}</style>
 </defs>
 <g id="figure_1">
  <g id="patch_1">
   <path d="M 0 432 
L 864 432 
L 864 0 
L 0 0 
z
" style="fill: #ffffff"/>
  </g>
  <g id="axes_1">
   <g id="patch_2">
    <path d="M 58.32 373.416875 
L 851.04 373.416875 
L 851.04 27.6 
L 58.32 27.6 
z
" style="fill: #ffffff"/>
   </g>
   <g id="matplotlib.axis_1">
    <g id="xtick_1">
     <g id="text_1">
      <!-- P-256 -->
      <g style="fill: #262626" transform="translate(103.911421 400.575919) rotate(-15) scale(0.12 -0.12)">
       <defs>
        <path id="DejaVuSans-50" d="M 1259 4147 
L 1259 2394 
L 2053 2394 
Q 2494 2394 2734 2622 
Q 2975 2850 2975 3272 
Q 2975 3691 2734 3919 
Q 2494 4147 2053 4147 
L 1259 4147 
z
M 628 4666 
L 2053 4666 
Q 2838 4666 3239 4311 
Q 3641 3956 3641 3272 
Q 3641 2581 3239 2228 
Q 2838 1875 2053 1875 
L 1259 1875 
L 1259 0 
L 628 0 
L 628 4666 
z
" transform="scale(0.015625)"/>
        <path id="DejaVuSans-2d" d="M 313 2009 
L 1997 2009 
L 1997 1497 
L 313 1497 
L 313 2009 
z
" transform="scale(0.015625)"/>
        <path id="DejaVuSans-32" d="M 1228 531 
L 3431 531 
L 3431 0 
L 469 0 
L 469 531 
Q 828 903 1448 1529 
Q 2069 2156 2228 2338 
Q 2531 2678 2651 2914 
Q 2772 3150 2772 3378 
Q 2772 3750 2511 3984 
Q 2250 4219 1831 4219 
Q 1534 4219 1204 4116 
Q 875 4013 500 3803 
L 500 4441 
Q 881 4594 1212 4672 
Q 1544 4750 1819 4750 
Q 2544 4750 2975 4387 
Q 3406 4025 3406 3419 
Q 3406 3131 3298 2873 
Q 3191 2616 2906 2266 
Q 2828 2175 2409 1742 
Q 1991 1309 1228 531 
z
" transform="scale(0.015625)"/>
        <path id="DejaVuSans-35" d="M 691 4666 
L 3169 4666 
L 3169 4134 
L 1269 4134 
L 1269 2991 
Q 1406 3038 1543 3061 
Q 1681 3084 1819 3084 
Q 2600 3084 3056 2656 
Q 3513 2228 3513 1497 
Q 3513 744 3044 326 
Q 2575 -91 1722 -91 
Q 1428 -91 1123 -41 
Q 819 9 494 109 
L 494 744 
Q 775 591 1075 516 
Q 1375 441 1709 441 
Q 2250 441 2565 725 
Q 2881 1009 2881 1497 
Q 2881 1984 2565 2268 
Q 2250 2553 1709 2553 
Q 1456 2553 1204 2497 
Q 953 2441 691 2322 
L 691 4666 
z
" transform="scale(0.015625)"/>
        <path id="DejaVuSans-36" d="M 2113 2584 
Q 1688 2584 1439 2293 
Q 1191 2003 1191 1497 
Q 1191 994 1439 701 
Q 1688 409 2113 409 
Q 2538 409 2786 701 
Q 3034 994 3034 1497 
Q 3034 2003 2786 2293 
Q 2538 2584 2113 2584 
z
M 3366 4563 
L 3366 3988 
Q 3128 4100 2886 4159 
Q 2644 4219 2406 4219 
Q 1781 4219 1451 3797 
Q 1122 3375 1075 2522 
Q 1259 2794 1537 2939 
Q 1816 3084 2150 3084 
Q 2853 3084 3261 2657 
Q 3669 2231 3669 1497 
Q 3669 778 3244 343 
Q 2819 -91 2113 -91 
Q 1303 -91 875 529 
Q 447 1150 447 2328 
Q 447 3434 972 4092 
Q 1497 4750 2381 4750 
Q 2619 4750 2861 4703 
Q 3103 4656 3366 4563 
z
" transform="scale(0.015625)"/>
       </defs>
       <use xlink:href="#DejaVuSans-50"/>
       <use xlink:href="#DejaVuSans-2d" x="58.052734"/>
       <use xlink:href="#DejaVuSans-32" x="94.136719"/>
       <use xlink:href="#DejaVuSans-35" x="157.759766"/>
       <use xlink:href="#DejaVuSans-36" x="221.382812"/>
      </g>
     </g>
    </g>
    <g id="xtick_2">
     <g id="text_2">
      <!-- x25519 -->
      <g style="fill: #262626" transform="translate(251.755378 403.442987) rotate(-15) scale(0.12 -0.12)">
       <defs>
        <path id="DejaVuSans-78" d="M 3513 3500 
L 2247 1797 
L 3578 0 
L 2900 0 
L 1881 1375 
L 863 0 
L 184 0 
L 1544 1831 
L 300 3500 
L 978 3500 
L 1906 2253 
L 2834 3500 
L 3513 3500 
z
" transform="scale(0.015625)"/>
        <path id="DejaVuSans-31" d="M 794 531 
L 1825 531 
L 1825 4091 
L 703 3866 
L 703 4441 
L 1819 4666 
L 2450 4666 
L 2450 531 
L 3481 531 
L 3481 0 
L 794 0 
L 794 531 
z
" transform="scale(0.015625)"/>
        <path id="DejaVuSans-39" d="M 703 97 
L 703 672 
Q 941 559 1184 500 
Q 1428 441 1663 441 
Q 2288 441 2617 861 
Q 2947 1281 2994 2138 
Q 2813 1869 2534 1725 
Q 2256 1581 1919 1581 
Q 1219 1581 811 2004 
Q 403 2428 403 3163 
Q 403 3881 828 4315 
Q 1253 4750 1959 4750 
Q 2769 4750 3195 4129 
Q 3622 3509 3622 2328 
Q 3622 1225 3098 567 
Q 2575 -91 1691 -91 
Q 1453 -91 1209 -44 
Q 966 3 703 97 
z
M 1959 2075 
Q 2384 2075 2632 2365 
Q 2881 2656 2881 3163 
Q 2881 3666 2632 3958 
Q 2384 4250 1959 4250 
Q 1534 4250 1286 3958 
Q 1038 3666 1038 3163 
Q 1038 2656 1286 2365 
Q 1534 2075 1959 2075 
z
" transform="scale(0.015625)"/>
       </defs>
       <use xlink:href="#DejaVuSans-78"/>
       <use xlink:href="#DejaVuSans-32" x="59.179688"/>
       <use xlink:href="#DejaVuSans-35" x="122.802734"/>
       <use xlink:href="#DejaVuSans-35" x="186.425781"/>
       <use xlink:href="#DejaVuSans-31" x="250.048828"/>
       <use xlink:href="#DejaVuSans-39" x="313.671875"/>
      </g>
     </g>
    </g>
    <g id="xtick_3">
     <g id="text_3">
      <!-- hqc128 -->
      <g style="fill: #262626" transform="translate(410.831845 403.300313) rotate(-15) scale(0.12 -0.12)">
       <defs>
        <path id="DejaVuSans-68" d="M 3513 2113 
L 3513 0 
L 2938 0 
L 2938 2094 
Q 2938 2591 2744 2837 
Q 2550 3084 2163 3084 
Q 1697 3084 1428 2787 
Q 1159 2491 1159 1978 
L 1159 0 
L 581 0 
L 581 4863 
L 1159 4863 
L 1159 2956 
Q 1366 3272 1645 3428 
Q 1925 3584 2291 3584 
Q 2894 3584 3203 3211 
Q 3513 2838 3513 2113 
z
" transform="scale(0.015625)"/>
        <path id="DejaVuSans-71" d="M 947 1747 
Q 947 1113 1208 752 
Q 1469 391 1925 391 
Q 2381 391 2643 752 
Q 2906 1113 2906 1747 
Q 2906 2381 2643 2742 
Q 2381 3103 1925 3103 
Q 1469 3103 1208 2742 
Q 947 2381 947 1747 
z
M 2906 525 
Q 2725 213 2448 61 
Q 2172 -91 1784 -91 
Q 1150 -91 751 415 
Q 353 922 353 1747 
Q 353 2572 751 3078 
Q 1150 3584 1784 3584 
Q 2172 3584 2448 3432 
Q 2725 3281 2906 2969 
L 2906 3500 
L 3481 3500 
L 3481 -1331 
L 2906 -1331 
L 2906 525 
z
" transform="scale(0.015625)"/>
        <path id="DejaVuSans-63" d="M 3122 3366 
L 3122 2828 
Q 2878 2963 2633 3030 
Q 2388 3097 2138 3097 
Q 1578 3097 1268 2742 
Q 959 2388 959 1747 
Q 959 1106 1268 751 
Q 1578 397 2138 397 
Q 2388 397 2633 464 
Q 2878 531 3122 666 
L 3122 134 
Q 2881 22 2623 -34 
Q 2366 -91 2075 -91 
Q 1284 -91 818 406 
Q 353 903 353 1747 
Q 353 2603 823 3093 
Q 1294 3584 2113 3584 
Q 2378 3584 2631 3529 
Q 2884 3475 3122 3366 
z
" transform="scale(0.015625)"/>
        <path id="DejaVuSans-38" d="M 2034 2216 
Q 1584 2216 1326 1975 
Q 1069 1734 1069 1313 
Q 1069 891 1326 650 
Q 1584 409 2034 409 
Q 2484 409 2743 651 
Q 3003 894 3003 1313 
Q 3003 1734 2745 1975 
Q 2488 2216 2034 2216 
z
M 1403 2484 
Q 997 2584 770 2862 
Q 544 3141 544 3541 
Q 544 4100 942 4425 
Q 1341 4750 2034 4750 
Q 2731 4750 3128 4425 
Q 3525 4100 3525 3541 
Q 3525 3141 3298 2862 
Q 3072 2584 2669 2484 
Q 3125 2378 3379 2068 
Q 3634 1759 3634 1313 
Q 3634 634 3220 271 
Q 2806 -91 2034 -91 
Q 1263 -91 848 271 
Q 434 634 434 1313 
Q 434 1759 690 2068 
Q 947 2378 1403 2484 
z
M 1172 3481 
Q 1172 3119 1398 2916 
Q 1625 2713 2034 2713 
Q 2441 2713 2670 2916 
Q 2900 3119 2900 3481 
Q 2900 3844 2670 4047 
Q 2441 4250 2034 4250 
Q 1625 4250 1398 4047 
Q 1172 3844 1172 3481 
z
" transform="scale(0.015625)"/>
       </defs>
       <use xlink:href="#DejaVuSans-68"/>
       <use xlink:href="#DejaVuSans-71" x="63.378906"/>
       <use xlink:href="#DejaVuSans-63" x="126.855469"/>
       <use xlink:href="#DejaVuSans-31" x="181.835938"/>
       <use xlink:href="#DejaVuSans-32" x="245.458984"/>
       <use xlink:href="#DejaVuSans-38" x="309.082031"/>
      </g>
     </g>
    </g>
    <g id="xtick_4">
     <g id="text_4">
      <!-- p256_hqc128 -->
      <g style="fill: #262626" transform="translate(534.010834 412.753193) rotate(-15) scale(0.12 -0.12)">
       <defs>
        <path id="DejaVuSans-70" d="M 1159 525 
L 1159 -1331 
L 581 -1331 
L 581 3500 
L 1159 3500 
L 1159 2969 
Q 1341 3281 1617 3432 
Q 1894 3584 2278 3584 
Q 2916 3584 3314 3078 
Q 3713 2572 3713 1747 
Q 3713 922 3314 415 
Q 2916 -91 2278 -91 
Q 1894 -91 1617 61 
Q 1341 213 1159 525 
z
M 3116 1747 
Q 3116 2381 2855 2742 
Q 2594 3103 2138 3103 
Q 1681 3103 1420 2742 
Q 1159 2381 1159 1747 
Q 1159 1113 1420 752 
Q 1681 391 2138 391 
Q 2594 391 2855 752 
Q 3116 1113 3116 1747 
z
" transform="scale(0.015625)"/>
        <path id="DejaVuSans-5f" d="M 3263 -1063 
L 3263 -1509 
L -63 -1509 
L -63 -1063 
L 3263 -1063 
z
" transform="scale(0.015625)"/>
       </defs>
       <use xlink:href="#DejaVuSans-70"/>
       <use xlink:href="#DejaVuSans-32" x="63.476562"/>
       <use xlink:href="#DejaVuSans-35" x="127.099609"/>
       <use xlink:href="#DejaVuSans-36" x="190.722656"/>
       <use xlink:href="#DejaVuSans-5f" x="254.345703"/>
       <use xlink:href="#DejaVuSans-68" x="304.345703"/>
       <use xlink:href="#DejaVuSans-71" x="367.724609"/>
       <use xlink:href="#DejaVuSans-63" x="431.201172"/>
       <use xlink:href="#DejaVuSans-31" x="486.181641"/>
       <use xlink:href="#DejaVuSans-32" x="549.804688"/>
       <use xlink:href="#DejaVuSans-38" x="613.427734"/>
      </g>
     </g>
    </g>
    <g id="xtick_5">
     <g id="text_5">
      <!-- x25519_hqc128 -->
      <g style="fill: #262626" transform="translate(678.303202 416.571906) rotate(-15) scale(0.12 -0.12)">
       <use xlink:href="#DejaVuSans-78"/>
       <use xlink:href="#DejaVuSans-32" x="59.179688"/>
       <use xlink:href="#DejaVuSans-35" x="122.802734"/>
       <use xlink:href="#DejaVuSans-35" x="186.425781"/>
       <use xlink:href="#DejaVuSans-31" x="250.048828"/>
       <use xlink:href="#DejaVuSans-39" x="313.671875"/>
       <use xlink:href="#DejaVuSans-5f" x="377.294922"/>
       <use xlink:href="#DejaVuSans-68" x="427.294922"/>
       <use xlink:href="#DejaVuSans-71" x="490.673828"/>
       <use xlink:href="#DejaVuSans-63" x="554.150391"/>
       <use xlink:href="#DejaVuSans-31" x="609.130859"/>
       <use xlink:href="#DejaVuSans-32" x="672.753906"/>
       <use xlink:href="#DejaVuSans-38" x="736.376953"/>
      </g>
     </g>
    </g>
   </g>
   <g id="matplotlib.axis_2">
    <g id="ytick_1">
     <g id="line2d_1">
      <path d="M 58.32 372.858808 
L 851.04 372.858808 
" clip-path="url(#pbdf187f300)" style="fill: none; stroke: #cccccc; stroke-linecap: round"/>
     </g>
     <g id="text_6">
      <!-- 800 -->
      <g style="fill: #262626" transform="translate(27.82375 377.037948) scale(0.11 -0.11)">
       <defs>
        <path id="DejaVuSans-30" d="M 2034 4250 
Q 1547 4250 1301 3770 
Q 1056 3291 1056 2328 
Q 1056 1369 1301 889 
Q 1547 409 2034 409 
Q 2525 409 2770 889 
Q 3016 1369 3016 2328 
Q 3016 3291 2770 3770 
Q 2525 4250 2034 4250 
z
M 2034 4750 
Q 2819 4750 3233 4129 
Q 3647 3509 3647 2328 
Q 3647 1150 3233 529 
Q 2819 -91 2034 -91 
Q 1250 -91 836 529 
Q 422 1150 422 2328 
Q 422 3509 836 4129 
Q 1250 4750 2034 4750 
z
" transform="scale(0.015625)"/>
       </defs>
       <use xlink:href="#DejaVuSans-38"/>
       <use xlink:href="#DejaVuSans-30" x="63.623047"/>
       <use xlink:href="#DejaVuSans-30" x="127.246094"/>
      </g>
     </g>
    </g>
    <g id="ytick_2">
     <g id="line2d_2">
      <path d="M 58.32 333.642155 
L 851.04 333.642155 
" clip-path="url(#pbdf187f300)" style="fill: none; stroke: #cccccc; stroke-linecap: round"/>
     </g>
     <g id="text_7">
      <!-- 805 -->
      <g style="fill: #262626" transform="translate(27.82375 337.821296) scale(0.11 -0.11)">
       <use xlink:href="#DejaVuSans-38"/>
       <use xlink:href="#DejaVuSans-30" x="63.623047"/>
       <use xlink:href="#DejaVuSans-35" x="127.246094"/>
      </g>
     </g>
    </g>
    <g id="ytick_3">
     <g id="line2d_3">
      <path d="M 58.32 294.425503 
L 851.04 294.425503 
" clip-path="url(#pbdf187f300)" style="fill: none; stroke: #cccccc; stroke-linecap: round"/>
     </g>
     <g id="text_8">
      <!-- 810 -->
      <g style="fill: #262626" transform="translate(27.82375 298.604644) scale(0.11 -0.11)">
       <use xlink:href="#DejaVuSans-38"/>
       <use xlink:href="#DejaVuSans-31" x="63.623047"/>
       <use xlink:href="#DejaVuSans-30" x="127.246094"/>
      </g>
     </g>
    </g>
    <g id="ytick_4">
     <g id="line2d_4">
      <path d="M 58.32 255.208851 
L 851.04 255.208851 
" clip-path="url(#pbdf187f300)" style="fill: none; stroke: #cccccc; stroke-linecap: round"/>
     </g>
     <g id="text_9">
      <!-- 815 -->
      <g style="fill: #262626" transform="translate(27.82375 259.387991) scale(0.11 -0.11)">
       <use xlink:href="#DejaVuSans-38"/>
       <use xlink:href="#DejaVuSans-31" x="63.623047"/>
       <use xlink:href="#DejaVuSans-35" x="127.246094"/>
      </g>
     </g>
    </g>
    <g id="ytick_5">
     <g id="line2d_5">
      <path d="M 58.32 215.992198 
L 851.04 215.992198 
" clip-path="url(#pbdf187f300)" style="fill: none; stroke: #cccccc; stroke-linecap: round"/>
     </g>
     <g id="text_10">
      <!-- 820 -->
      <g style="fill: #262626" transform="translate(27.82375 220.171339) scale(0.11 -0.11)">
       <use xlink:href="#DejaVuSans-38"/>
       <use xlink:href="#DejaVuSans-32" x="63.623047"/>
       <use xlink:href="#DejaVuSans-30" x="127.246094"/>
      </g>
     </g>
    </g>
    <g id="ytick_6">
     <g id="line2d_6">
      <path d="M 58.32 176.775546 
L 851.04 176.775546 
" clip-path="url(#pbdf187f300)" style="fill: none; stroke: #cccccc; stroke-linecap: round"/>
     </g>
     <g id="text_11">
      <!-- 825 -->
      <g style="fill: #262626" transform="translate(27.82375 180.954686) scale(0.11 -0.11)">
       <use xlink:href="#DejaVuSans-38"/>
       <use xlink:href="#DejaVuSans-32" x="63.623047"/>
       <use xlink:href="#DejaVuSans-35" x="127.246094"/>
      </g>
     </g>
    </g>
    <g id="ytick_7">
     <g id="line2d_7">
      <path d="M 58.32 137.558893 
L 851.04 137.558893 
" clip-path="url(#pbdf187f300)" style="fill: none; stroke: #cccccc; stroke-linecap: round"/>
     </g>
     <g id="text_12">
      <!-- 830 -->
      <g style="fill: #262626" transform="translate(27.82375 141.738034) scale(0.11 -0.11)">
       <defs>
        <path id="DejaVuSans-33" d="M 2597 2516 
Q 3050 2419 3304 2112 
Q 3559 1806 3559 1356 
Q 3559 666 3084 287 
Q 2609 -91 1734 -91 
Q 1441 -91 1130 -33 
Q 819 25 488 141 
L 488 750 
Q 750 597 1062 519 
Q 1375 441 1716 441 
Q 2309 441 2620 675 
Q 2931 909 2931 1356 
Q 2931 1769 2642 2001 
Q 2353 2234 1838 2234 
L 1294 2234 
L 1294 2753 
L 1863 2753 
Q 2328 2753 2575 2939 
Q 2822 3125 2822 3475 
Q 2822 3834 2567 4026 
Q 2313 4219 1838 4219 
Q 1578 4219 1281 4162 
Q 984 4106 628 3988 
L 628 4550 
Q 988 4650 1302 4700 
Q 1616 4750 1894 4750 
Q 2613 4750 3031 4423 
Q 3450 4097 3450 3541 
Q 3450 3153 3228 2886 
Q 3006 2619 2597 2516 
z
" transform="scale(0.015625)"/>
       </defs>
       <use xlink:href="#DejaVuSans-38"/>
       <use xlink:href="#DejaVuSans-33" x="63.623047"/>
       <use xlink:href="#DejaVuSans-30" x="127.246094"/>
      </g>
     </g>
    </g>
    <g id="ytick_8">
     <g id="line2d_8">
      <path d="M 58.32 98.342241 
L 851.04 98.342241 
" clip-path="url(#pbdf187f300)" style="fill: none; stroke: #cccccc; stroke-linecap: round"/>
     </g>
     <g id="text_13">
      <!-- 835 -->
      <g style="fill: #262626" transform="translate(27.82375 102.521382) scale(0.11 -0.11)">
       <use xlink:href="#DejaVuSans-38"/>
       <use xlink:href="#DejaVuSans-33" x="63.623047"/>
       <use xlink:href="#DejaVuSans-35" x="127.246094"/>
      </g>
     </g>
    </g>
    <g id="ytick_9">
     <g id="line2d_9">
      <path d="M 58.32 59.125589 
L 851.04 59.125589 
" clip-path="url(#pbdf187f300)" style="fill: none; stroke: #cccccc; stroke-linecap: round"/>
     </g>
     <g id="text_14">
      <!-- 840 -->
      <g style="fill: #262626" transform="translate(27.82375 63.304729) scale(0.11 -0.11)">
       <defs>
        <path id="DejaVuSans-34" d="M 2419 4116 
L 825 1625 
L 2419 1625 
L 2419 4116 
z
M 2253 4666 
L 3047 4666 
L 3047 1625 
L 3713 1625 
L 3713 1100 
L 3047 1100 
L 3047 0 
L 2419 0 
L 2419 1100 
L 313 1100 
L 313 1709 
L 2253 4666 
z
" transform="scale(0.015625)"/>
       </defs>
       <use xlink:href="#DejaVuSans-38"/>
       <use xlink:href="#DejaVuSans-34" x="63.623047"/>
       <use xlink:href="#DejaVuSans-30" x="127.246094"/>
      </g>
     </g>
    </g>
    <g id="text_15">
     <!-- Handshake duration (ms) -->
     <g style="fill: #262626" transform="translate(21.328125 276.57625) rotate(-90) scale(0.12 -0.12)">
      <defs>
       <path id="DejaVuSans-48" d="M 628 4666 
L 1259 4666 
L 1259 2753 
L 3553 2753 
L 3553 4666 
L 4184 4666 
L 4184 0 
L 3553 0 
L 3553 2222 
L 1259 2222 
L 1259 0 
L 628 0 
L 628 4666 
z
" transform="scale(0.015625)"/>
       <path id="DejaVuSans-61" d="M 2194 1759 
Q 1497 1759 1228 1600 
Q 959 1441 959 1056 
Q 959 750 1161 570 
Q 1363 391 1709 391 
Q 2188 391 2477 730 
Q 2766 1069 2766 1631 
L 2766 1759 
L 2194 1759 
z
M 3341 1997 
L 3341 0 
L 2766 0 
L 2766 531 
Q 2569 213 2275 61 
Q 1981 -91 1556 -91 
Q 1019 -91 701 211 
Q 384 513 384 1019 
Q 384 1609 779 1909 
Q 1175 2209 1959 2209 
L 2766 2209 
L 2766 2266 
Q 2766 2663 2505 2880 
Q 2244 3097 1772 3097 
Q 1472 3097 1187 3025 
Q 903 2953 641 2809 
L 641 3341 
Q 956 3463 1253 3523 
Q 1550 3584 1831 3584 
Q 2591 3584 2966 3190 
Q 3341 2797 3341 1997 
z
" transform="scale(0.015625)"/>
       <path id="DejaVuSans-6e" d="M 3513 2113 
L 3513 0 
L 2938 0 
L 2938 2094 
Q 2938 2591 2744 2837 
Q 2550 3084 2163 3084 
Q 1697 3084 1428 2787 
Q 1159 2491 1159 1978 
L 1159 0 
L 581 0 
L 581 3500 
L 1159 3500 
L 1159 2956 
Q 1366 3272 1645 3428 
Q 1925 3584 2291 3584 
Q 2894 3584 3203 3211 
Q 3513 2838 3513 2113 
z
" transform="scale(0.015625)"/>
       <path id="DejaVuSans-64" d="M 2906 2969 
L 2906 4863 
L 3481 4863 
L 3481 0 
L 2906 0 
L 2906 525 
Q 2725 213 2448 61 
Q 2172 -91 1784 -91 
Q 1150 -91 751 415 
Q 353 922 353 1747 
Q 353 2572 751 3078 
Q 1150 3584 1784 3584 
Q 2172 3584 2448 3432 
Q 2725 3281 2906 2969 
z
M 947 1747 
Q 947 1113 1208 752 
Q 1469 391 1925 391 
Q 2381 391 2643 752 
Q 2906 1113 2906 1747 
Q 2906 2381 2643 2742 
Q 2381 3103 1925 3103 
Q 1469 3103 1208 2742 
Q 947 2381 947 1747 
z
" transform="scale(0.015625)"/>
       <path id="DejaVuSans-73" d="M 2834 3397 
L 2834 2853 
Q 2591 2978 2328 3040 
Q 2066 3103 1784 3103 
Q 1356 3103 1142 2972 
Q 928 2841 928 2578 
Q 928 2378 1081 2264 
Q 1234 2150 1697 2047 
L 1894 2003 
Q 2506 1872 2764 1633 
Q 3022 1394 3022 966 
Q 3022 478 2636 193 
Q 2250 -91 1575 -91 
Q 1294 -91 989 -36 
Q 684 19 347 128 
L 347 722 
Q 666 556 975 473 
Q 1284 391 1588 391 
Q 1994 391 2212 530 
Q 2431 669 2431 922 
Q 2431 1156 2273 1281 
Q 2116 1406 1581 1522 
L 1381 1569 
Q 847 1681 609 1914 
Q 372 2147 372 2553 
Q 372 3047 722 3315 
Q 1072 3584 1716 3584 
Q 2034 3584 2315 3537 
Q 2597 3491 2834 3397 
z
" transform="scale(0.015625)"/>
       <path id="DejaVuSans-6b" d="M 581 4863 
L 1159 4863 
L 1159 1991 
L 2875 3500 
L 3609 3500 
L 1753 1863 
L 3688 0 
L 2938 0 
L 1159 1709 
L 1159 0 
L 581 0 
L 581 4863 
z
" transform="scale(0.015625)"/>
       <path id="DejaVuSans-65" d="M 3597 1894 
L 3597 1613 
L 953 1613 
Q 991 1019 1311 708 
Q 1631 397 2203 397 
Q 2534 397 2845 478 
Q 3156 559 3463 722 
L 3463 178 
Q 3153 47 2828 -22 
Q 2503 -91 2169 -91 
Q 1331 -91 842 396 
Q 353 884 353 1716 
Q 353 2575 817 3079 
Q 1281 3584 2069 3584 
Q 2775 3584 3186 3129 
Q 3597 2675 3597 1894 
z
M 3022 2063 
Q 3016 2534 2758 2815 
Q 2500 3097 2075 3097 
Q 1594 3097 1305 2825 
Q 1016 2553 972 2059 
L 3022 2063 
z
" transform="scale(0.015625)"/>
       <path id="DejaVuSans-20" transform="scale(0.015625)"/>
       <path id="DejaVuSans-75" d="M 544 1381 
L 544 3500 
L 1119 3500 
L 1119 1403 
Q 1119 906 1312 657 
Q 1506 409 1894 409 
Q 2359 409 2629 706 
Q 2900 1003 2900 1516 
L 2900 3500 
L 3475 3500 
L 3475 0 
L 2900 0 
L 2900 538 
Q 2691 219 2414 64 
Q 2138 -91 1772 -91 
Q 1169 -91 856 284 
Q 544 659 544 1381 
z
M 1991 3584 
L 1991 3584 
z
" transform="scale(0.015625)"/>
       <path id="DejaVuSans-72" d="M 2631 2963 
Q 2534 3019 2420 3045 
Q 2306 3072 2169 3072 
Q 1681 3072 1420 2755 
Q 1159 2438 1159 1844 
L 1159 0 
L 581 0 
L 581 3500 
L 1159 3500 
L 1159 2956 
Q 1341 3275 1631 3429 
Q 1922 3584 2338 3584 
Q 2397 3584 2469 3576 
Q 2541 3569 2628 3553 
L 2631 2963 
z
" transform="scale(0.015625)"/>
       <path id="DejaVuSans-74" d="M 1172 4494 
L 1172 3500 
L 2356 3500 
L 2356 3053 
L 1172 3053 
L 1172 1153 
Q 1172 725 1289 603 
Q 1406 481 1766 481 
L 2356 481 
L 2356 0 
L 1766 0 
Q 1100 0 847 248 
Q 594 497 594 1153 
L 594 3053 
L 172 3053 
L 172 3500 
L 594 3500 
L 594 4494 
L 1172 4494 
z
" transform="scale(0.015625)"/>
       <path id="DejaVuSans-69" d="M 603 3500 
L 1178 3500 
L 1178 0 
L 603 0 
L 603 3500 
z
M 603 4863 
L 1178 4863 
L 1178 4134 
L 603 4134 
L 603 4863 
z
" transform="scale(0.015625)"/>
       <path id="DejaVuSans-6f" d="M 1959 3097 
Q 1497 3097 1228 2736 
Q 959 2375 959 1747 
Q 959 1119 1226 758 
Q 1494 397 1959 397 
Q 2419 397 2687 759 
Q 2956 1122 2956 1747 
Q 2956 2369 2687 2733 
Q 2419 3097 1959 3097 
z
M 1959 3584 
Q 2709 3584 3137 3096 
Q 3566 2609 3566 1747 
Q 3566 888 3137 398 
Q 2709 -91 1959 -91 
Q 1206 -91 779 398 
Q 353 888 353 1747 
Q 353 2609 779 3096 
Q 1206 3584 1959 3584 
z
" transform="scale(0.015625)"/>
       <path id="DejaVuSans-28" d="M 1984 4856 
Q 1566 4138 1362 3434 
Q 1159 2731 1159 2009 
Q 1159 1288 1364 580 
Q 1569 -128 1984 -844 
L 1484 -844 
Q 1016 -109 783 600 
Q 550 1309 550 2009 
Q 550 2706 781 3412 
Q 1013 4119 1484 4856 
L 1984 4856 
z
" transform="scale(0.015625)"/>
       <path id="DejaVuSans-6d" d="M 3328 2828 
Q 3544 3216 3844 3400 
Q 4144 3584 4550 3584 
Q 5097 3584 5394 3201 
Q 5691 2819 5691 2113 
L 5691 0 
L 5113 0 
L 5113 2094 
Q 5113 2597 4934 2840 
Q 4756 3084 4391 3084 
Q 3944 3084 3684 2787 
Q 3425 2491 3425 1978 
L 3425 0 
L 2847 0 
L 2847 2094 
Q 2847 2600 2669 2842 
Q 2491 3084 2119 3084 
Q 1678 3084 1418 2786 
Q 1159 2488 1159 1978 
L 1159 0 
L 581 0 
L 581 3500 
L 1159 3500 
L 1159 2956 
Q 1356 3278 1631 3431 
Q 1906 3584 2284 3584 
Q 2666 3584 2933 3390 
Q 3200 3197 3328 2828 
z
" transform="scale(0.015625)"/>
       <path id="DejaVuSans-29" d="M 513 4856 
L 1013 4856 
Q 1481 4119 1714 3412 
Q 1947 2706 1947 2009 
Q 1947 1309 1714 600 
Q 1481 -109 1013 -844 
L 513 -844 
Q 928 -128 1133 580 
Q 1338 1288 1338 2009 
Q 1338 2731 1133 3434 
Q 928 4138 513 4856 
z
" transform="scale(0.015625)"/>
      </defs>
      <use xlink:href="#DejaVuSans-48"/>
      <use xlink:href="#DejaVuSans-61" x="75.195312"/>
      <use xlink:href="#DejaVuSans-6e" x="136.474609"/>
      <use xlink:href="#DejaVuSans-64" x="199.853516"/>
      <use xlink:href="#DejaVuSans-73" x="263.330078"/>
      <use xlink:href="#DejaVuSans-68" x="315.429688"/>
      <use xlink:href="#DejaVuSans-61" x="378.808594"/>
      <use xlink:href="#DejaVuSans-6b" x="440.087891"/>
      <use xlink:href="#DejaVuSans-65" x="494.373047"/>
      <use xlink:href="#DejaVuSans-20" x="555.896484"/>
      <use xlink:href="#DejaVuSans-64" x="587.683594"/>
      <use xlink:href="#DejaVuSans-75" x="651.160156"/>
      <use xlink:href="#DejaVuSans-72" x="714.539062"/>
      <use xlink:href="#DejaVuSans-61" x="755.652344"/>
      <use xlink:href="#DejaVuSans-74" x="816.931641"/>
      <use xlink:href="#DejaVuSans-69" x="856.140625"/>
      <use xlink:href="#DejaVuSans-6f" x="883.923828"/>
      <use xlink:href="#DejaVuSans-6e" x="945.105469"/>
      <use xlink:href="#DejaVuSans-20" x="1008.484375"/>
      <use xlink:href="#DejaVuSans-28" x="1040.271484"/>
      <use xlink:href="#DejaVuSans-6d" x="1079.285156"/>
      <use xlink:href="#DejaVuSans-73" x="1176.697266"/>
      <use xlink:href="#DejaVuSans-29" x="1228.796875"/>
     </g>
    </g>
   </g>
   <g id="PolyCollection_1">
    <defs>
     <path id="m9a34473749" d="M 137.767572 -75.735569 
L 137.416428 -75.735569 
L 137.219225 -75.903411 
L 136.845975 -76.071253 
L 136.182847 -76.239096 
L 135.077582 -76.406938 
L 133.351446 -76.574781 
L 130.829606 -76.742623 
L 127.388762 -76.910465 
L 123.010125 -77.078308 
L 117.815969 -77.24615 
L 112.067125 -77.413992 
L 106.112159 -77.581835 
L 100.302708 -77.749677 
L 94.910029 -77.91752 
L 90.080493 -78.085362 
L 85.848477 -78.253204 
L 82.194656 -78.421047 
L 79.115273 -78.588889 
L 76.666796 -78.756732 
L 74.969084 -78.924574 
L 74.1744 -79.092416 
L 74.423125 -79.260259 
L 75.803505 -79.428101 
L 78.320258 -79.595943 
L 81.869883 -79.763786 
L 86.226362 -79.931628 
L 91.05154 -80.099471 
L 95.944334 -80.267313 
L 100.525073 -80.435155 
L 104.526332 -80.602998 
L 107.849505 -80.77084 
L 110.558941 -80.938682 
L 112.816628 -81.106525 
L 114.790941 -81.274367 
L 116.58429 -81.44221 
L 118.211043 -81.610052 
L 119.627962 -81.777894 
L 120.792295 -81.945737 
L 121.712065 -82.113579 
L 122.462646 -82.281421 
L 123.165205 -82.449264 
L 123.942787 -82.617106 
L 124.878306 -82.784949 
L 125.993461 -82.952791 
L 127.253816 -83.120633 
L 128.591804 -83.288476 
L 129.933085 -83.456318 
L 131.214465 -83.624161 
L 132.389937 -83.792003 
L 133.428959 -83.959845 
L 134.313453 -84.127688 
L 135.037002 -84.29553 
L 135.605366 -84.463372 
L 136.03546 -84.631215 
L 136.351415 -84.799057 
L 136.579105 -84.9669 
L 136.741886 -85.134742 
L 136.859202 -85.302584 
L 136.947442 -85.470427 
L 137.020916 -85.638269 
L 137.091321 -85.806111 
L 137.165897 -85.973954 
L 137.245954 -86.141796 
L 137.327362 -86.309639 
L 137.403117 -86.477481 
L 137.466612 -86.645323 
L 137.513865 -86.813166 
L 137.54382 -86.981008 
L 137.557008 -87.14885 
L 137.553654 -87.316693 
L 137.532319 -87.484535 
L 137.489835 -87.652378 
L 137.42269 -87.82022 
L 137.329476 -87.988062 
L 137.213414 -88.155905 
L 137.083687 -88.323747 
L 136.954588 -88.49159 
L 136.842461 -88.659432 
L 136.761555 -88.827274 
L 136.720436 -88.995117 
L 136.720233 -89.162959 
L 136.754863 -89.330801 
L 136.812663 -89.498644 
L 136.878782 -89.666486 
L 136.938119 -89.834329 
L 136.97869 -90.002171 
L 136.994752 -90.170013 
L 136.988503 -90.337856 
L 136.969371 -90.505698 
L 136.950984 -90.67354 
L 136.947014 -90.841383 
L 136.96739 -91.009225 
L 137.01594 -91.177068 
L 137.089807 -91.34491 
L 137.180581 -91.512752 
L 137.276802 -91.680595 
L 137.36713 -91.848437 
L 137.443146 -92.016279 
L 137.500849 -92.184122 
L 137.540492 -92.351964 
L 137.643508 -92.351964 
L 137.643508 -92.351964 
L 137.683151 -92.184122 
L 137.740854 -92.016279 
L 137.81687 -91.848437 
L 137.907198 -91.680595 
L 138.003419 -91.512752 
L 138.094193 -91.34491 
L 138.16806 -91.177068 
L 138.21661 -91.009225 
L 138.236986 -90.841383 
L 138.233016 -90.67354 
L 138.214629 -90.505698 
L 138.195497 -90.337856 
L 138.189248 -90.170013 
L 138.20531 -90.002171 
L 138.245881 -89.834329 
L 138.305218 -89.666486 
L 138.371337 -89.498644 
L 138.429137 -89.330801 
L 138.463767 -89.162959 
L 138.463564 -88.995117 
L 138.422445 -88.827274 
L 138.341539 -88.659432 
L 138.229412 -88.49159 
L 138.100313 -88.323747 
L 137.970586 -88.155905 
L 137.854524 -87.988062 
L 137.76131 -87.82022 
L 137.694165 -87.652378 
L 137.651681 -87.484535 
L 137.630346 -87.316693 
L 137.626992 -87.14885 
L 137.64018 -86.981008 
L 137.670135 -86.813166 
L 137.717388 -86.645323 
L 137.780883 -86.477481 
L 137.856638 -86.309639 
L 137.938046 -86.141796 
L 138.018103 -85.973954 
L 138.092679 -85.806111 
L 138.163084 -85.638269 
L 138.236558 -85.470427 
L 138.324798 -85.302584 
L 138.442114 -85.134742 
L 138.604895 -84.9669 
L 138.832585 -84.799057 
L 139.14854 -84.631215 
L 139.578634 -84.463372 
L 140.146998 -84.29553 
L 140.870547 -84.127688 
L 141.755041 -83.959845 
L 142.794063 -83.792003 
L 143.969535 -83.624161 
L 145.250915 -83.456318 
L 146.592196 -83.288476 
L 147.930184 -83.120633 
L 149.190539 -82.952791 
L 150.305694 -82.784949 
L 151.241213 -82.617106 
L 152.018795 -82.449264 
L 152.721354 -82.281421 
L 153.471935 -82.113579 
L 154.391705 -81.945737 
L 155.556038 -81.777894 
L 156.972957 -81.610052 
L 158.59971 -81.44221 
L 160.393059 -81.274367 
L 162.367372 -81.106525 
L 164.625059 -80.938682 
L 167.334495 -80.77084 
L 170.657668 -80.602998 
L 174.658927 -80.435155 
L 179.239666 -80.267313 
L 184.13246 -80.099471 
L 188.957638 -79.931628 
L 193.314117 -79.763786 
L 196.863742 -79.595943 
L 199.380495 -79.428101 
L 200.760875 -79.260259 
L 201.0096 -79.092416 
L 200.214916 -78.924574 
L 198.517204 -78.756732 
L 196.068727 -78.588889 
L 192.989344 -78.421047 
L 189.335523 -78.253204 
L 185.103507 -78.085362 
L 180.273971 -77.91752 
L 174.881292 -77.749677 
L 169.071841 -77.581835 
L 163.116875 -77.413992 
L 157.368031 -77.24615 
L 152.173875 -77.078308 
L 147.795238 -76.910465 
L 144.354394 -76.742623 
L 141.832554 -76.574781 
L 140.106418 -76.406938 
L 139.001153 -76.239096 
L 138.338025 -76.071253 
L 137.964775 -75.903411 
L 137.767572 -75.735569 
z
" style="stroke: #595959; stroke-width: 1.25"/>
    </defs>
    <g clip-path="url(#pbdf187f300)">
     <use xlink:href="#m9a34473749" x="0" y="432" style="fill: #72b6a1; stroke: #595959; stroke-width: 1.25"/>
    </g>
   </g>
   <g id="PolyCollection_2">
    <defs>
     <path id="m337cf620f6" d="M 296.367536 -74.302074 
L 295.904464 -74.302074 
L 295.636574 -74.436288 
L 295.139425 -74.570501 
L 294.289713 -74.704715 
L 292.946809 -74.838929 
L 290.974546 -74.973142 
L 288.267169 -75.107356 
L 284.772265 -75.24157 
L 280.506724 -75.375783 
L 275.566527 -75.509997 
L 270.130839 -75.644211 
L 264.454139 -75.778424 
L 258.835129 -75.912638 
L 253.559148 -76.046852 
L 248.832207 -76.181065 
L 244.742231 -76.315279 
L 241.275217 -76.449493 
L 238.378656 -76.583706 
L 236.029082 -76.71792 
L 234.258812 -76.852134 
L 233.134087 -76.986347 
L 232.7184 -77.120561 
L 233.059785 -77.254775 
L 234.205206 -77.388988 
L 236.207521 -77.523202 
L 239.092138 -77.657416 
L 242.792322 -77.79163 
L 247.103341 -77.925843 
L 251.703711 -78.060057 
L 256.24408 -78.194271 
L 260.451528 -78.328484 
L 264.185953 -78.462698 
L 267.424522 -78.596912 
L 270.20368 -78.731125 
L 272.570202 -78.865339 
L 274.570296 -78.999553 
L 276.265268 -79.133766 
L 277.74124 -79.26798 
L 279.092595 -79.402194 
L 280.387903 -79.536407 
L 281.645471 -79.670621 
L 282.839349 -79.804835 
L 283.933377 -79.939048 
L 284.920249 -80.073262 
L 285.839478 -80.207476 
L 286.762938 -80.341689 
L 287.757783 -80.475903 
L 288.849804 -80.610117 
L 290.008427 -80.74433 
L 291.160417 -80.878544 
L 292.222636 -81.012758 
L 293.134887 -81.146971 
L 293.87639 -81.281185 
L 294.461062 -81.415399 
L 294.91932 -81.549612 
L 295.279777 -81.683826 
L 295.560405 -81.81804 
L 295.769952 -81.952254 
L 295.913873 -82.086467 
L 295.99863 -82.220681 
L 296.032306 -82.354895 
L 296.023414 -82.489108 
L 295.980737 -82.623322 
L 295.91508 -82.757536 
L 295.841229 -82.891749 
L 295.777449 -83.025963 
L 295.7413 -83.160177 
L 295.743497 -83.29439 
L 295.783561 -83.428604 
L 295.85028 -83.562818 
L 295.926877 -83.697031 
L 295.997814 -83.831245 
L 296.053562 -83.965459 
L 296.091599 -84.099672 
L 296.114407 -84.233886 
L 296.12651 -84.3681 
L 296.132192 -84.502313 
L 296.134466 -84.636527 
L 296.134934 -84.770741 
L 296.133971 -84.904954 
L 296.130789 -85.039168 
L 296.123237 -85.173382 
L 296.107532 -85.307595 
L 296.078371 -85.441809 
L 296.029974 -85.576023 
L 295.958294 -85.710236 
L 295.86383 -85.84445 
L 295.753666 -85.978664 
L 295.6413 -86.112877 
L 295.543859 -86.247091 
L 295.477767 -86.381305 
L 295.45462 -86.515519 
L 295.478528 -86.649732 
L 295.545247 -86.783946 
L 295.643074 -86.91816 
L 295.755538 -87.052373 
L 295.865538 -87.186587 
L 295.959666 -87.320801 
L 296.030951 -87.455014 
L 296.078991 -87.589228 
L 296.193009 -87.589228 
L 296.193009 -87.589228 
L 296.241049 -87.455014 
L 296.312334 -87.320801 
L 296.406462 -87.186587 
L 296.516462 -87.052373 
L 296.628926 -86.91816 
L 296.726753 -86.783946 
L 296.793472 -86.649732 
L 296.81738 -86.515519 
L 296.794233 -86.381305 
L 296.728141 -86.247091 
L 296.6307 -86.112877 
L 296.518334 -85.978664 
L 296.40817 -85.84445 
L 296.313706 -85.710236 
L 296.242026 -85.576023 
L 296.193629 -85.441809 
L 296.164468 -85.307595 
L 296.148763 -85.173382 
L 296.141211 -85.039168 
L 296.138029 -84.904954 
L 296.137066 -84.770741 
L 296.137534 -84.636527 
L 296.139808 -84.502313 
L 296.14549 -84.3681 
L 296.157593 -84.233886 
L 296.180401 -84.099672 
L 296.218438 -83.965459 
L 296.274186 -83.831245 
L 296.345123 -83.697031 
L 296.42172 -83.562818 
L 296.488439 -83.428604 
L 296.528503 -83.29439 
L 296.5307 -83.160177 
L 296.494551 -83.025963 
L 296.430771 -82.891749 
L 296.35692 -82.757536 
L 296.291263 -82.623322 
L 296.248586 -82.489108 
L 296.239694 -82.354895 
L 296.27337 -82.220681 
L 296.358127 -82.086467 
L 296.502048 -81.952254 
L 296.711595 -81.81804 
L 296.992223 -81.683826 
L 297.35268 -81.549612 
L 297.810938 -81.415399 
L 298.39561 -81.281185 
L 299.137113 -81.146971 
L 300.049364 -81.012758 
L 301.111583 -80.878544 
L 302.263573 -80.74433 
L 303.422196 -80.610117 
L 304.514217 -80.475903 
L 305.509062 -80.341689 
L 306.432522 -80.207476 
L 307.351751 -80.073262 
L 308.338623 -79.939048 
L 309.432651 -79.804835 
L 310.626529 -79.670621 
L 311.884097 -79.536407 
L 313.179405 -79.402194 
L 314.53076 -79.26798 
L 316.006732 -79.133766 
L 317.701704 -78.999553 
L 319.701798 -78.865339 
L 322.06832 -78.731125 
L 324.847478 -78.596912 
L 328.086047 -78.462698 
L 331.820472 -78.328484 
L 336.02792 -78.194271 
L 340.568289 -78.060057 
L 345.168659 -77.925843 
L 349.479678 -77.79163 
L 353.179862 -77.657416 
L 356.064479 -77.523202 
L 358.066794 -77.388988 
L 359.212215 -77.254775 
L 359.5536 -77.120561 
L 359.137913 -76.986347 
L 358.013188 -76.852134 
L 356.242918 -76.71792 
L 353.893344 -76.583706 
L 350.996783 -76.449493 
L 347.529769 -76.315279 
L 343.439793 -76.181065 
L 338.712852 -76.046852 
L 333.436871 -75.912638 
L 327.817861 -75.778424 
L 322.141161 -75.644211 
L 316.705473 -75.509997 
L 311.765276 -75.375783 
L 307.499735 -75.24157 
L 304.004831 -75.107356 
L 301.297454 -74.973142 
L 299.325191 -74.838929 
L 297.982287 -74.704715 
L 297.132575 -74.570501 
L 296.635426 -74.436288 
L 296.367536 -74.302074 
z
" style="stroke: #595959; stroke-width: 1.25"/>
    </defs>
    <g clip-path="url(#pbdf187f300)">
     <use xlink:href="#m337cf620f6" x="0" y="432" style="fill: #e99675; stroke: #595959; stroke-width: 1.25"/>
    </g>
   </g>
   <g id="PolyCollection_3">
    <defs>
     <path id="m8bfcee6a6a" d="M 457.577211 -170.67179 
L 451.782789 -170.67179 
L 450.133723 -171.901402 
L 447.797951 -173.131014 
L 444.629302 -174.360626 
L 440.517944 -175.590239 
L 435.424772 -176.819851 
L 429.415468 -178.049463 
L 422.685806 -179.279075 
L 415.569143 -180.508688 
L 408.519144 -181.7383 
L 402.065583 -182.967912 
L 396.747771 -184.197524 
L 393.036824 -185.427137 
L 391.2624 -186.656749 
L 391.560041 -187.886361 
L 393.851121 -189.115973 
L 397.859827 -190.345586 
L 403.162708 -191.575198 
L 409.258857 -192.80481 
L 415.644973 -194.034422 
L 421.880125 -195.264035 
L 427.629471 -196.493647 
L 432.682572 -197.723259 
L 436.9483 -198.952871 
L 440.432845 -200.182484 
L 443.209193 -201.412096 
L 445.385943 -202.641708 
L 447.081073 -203.87132 
L 448.403537 -205.100933 
L 449.443085 -206.330545 
L 450.267009 -207.560157 
L 450.921779 -208.789769 
L 451.437422 -210.019382 
L 451.832909 -211.248994 
L 452.121236 -212.478606 
L 452.313419 -213.708218 
L 452.420906 -214.937831 
L 452.456277 -216.167443 
L 452.432293 -217.397055 
L 452.359695 -218.626667 
L 452.244391 -219.85628 
L 452.084922 -221.085892 
L 451.871196 -222.315504 
L 451.585325 -223.545116 
L 451.205042 -224.774729 
L 450.70952 -226.004341 
L 450.086711 -227.233953 
L 449.340655 -228.463565 
L 448.496859 -229.693178 
L 447.603978 -230.92279 
L 446.730664 -232.152402 
L 445.957588 -233.382015 
L 445.365839 -234.611627 
L 445.024007 -235.841239 
L 444.976727 -237.070851 
L 445.237235 -238.300464 
L 445.785542 -239.530076 
L 446.572455 -240.759688 
L 447.528296 -241.9893 
L 448.574161 -243.218913 
L 449.633247 -244.448525 
L 450.640064 -245.678137 
L 451.546187 -246.907749 
L 452.322182 -248.137362 
L 452.956206 -249.366974 
L 453.450326 -250.596586 
L 453.815798 -251.826198 
L 454.068392 -253.055811 
L 454.224539 -254.285423 
L 454.298749 -255.515035 
L 454.302397 -256.744647 
L 454.243775 -257.97426 
L 454.129133 -259.203872 
L 453.964339 -260.433484 
L 453.756712 -261.663096 
L 453.516558 -262.892709 
L 453.257984 -264.122321 
L 452.998693 -265.351933 
L 452.758678 -266.581545 
L 452.558004 -267.811158 
L 452.41413 -269.04077 
L 452.339373 -270.270382 
L 452.339118 -271.499994 
L 452.411201 -272.729607 
L 452.54659 -273.959219 
L 452.731164 -275.188831 
L 452.948127 -276.418443 
L 453.180498 -277.648056 
L 453.413174 -278.877668 
L 453.634248 -280.10728 
L 453.835529 -281.336892 
L 454.012369 -282.566505 
L 454.163053 -283.796117 
L 454.288019 -285.025729 
L 454.389103 -286.255341 
L 454.468923 -287.484954 
L 454.530442 -288.714566 
L 454.576674 -289.944178 
L 454.610501 -291.17379 
L 454.634557 -292.403403 
L 454.725443 -292.403403 
L 454.725443 -292.403403 
L 454.749499 -291.17379 
L 454.783326 -289.944178 
L 454.829558 -288.714566 
L 454.891077 -287.484954 
L 454.970897 -286.255341 
L 455.071981 -285.025729 
L 455.196947 -283.796117 
L 455.347631 -282.566505 
L 455.524471 -281.336892 
L 455.725752 -280.10728 
L 455.946826 -278.877668 
L 456.179502 -277.648056 
L 456.411873 -276.418443 
L 456.628836 -275.188831 
L 456.81341 -273.959219 
L 456.948799 -272.729607 
L 457.020882 -271.499994 
L 457.020627 -270.270382 
L 456.94587 -269.04077 
L 456.801996 -267.811158 
L 456.601322 -266.581545 
L 456.361307 -265.351933 
L 456.102016 -264.122321 
L 455.843442 -262.892709 
L 455.603288 -261.663096 
L 455.395661 -260.433484 
L 455.230867 -259.203872 
L 455.116225 -257.97426 
L 455.057603 -256.744647 
L 455.061251 -255.515035 
L 455.135461 -254.285423 
L 455.291608 -253.055811 
L 455.544202 -251.826198 
L 455.909674 -250.596586 
L 456.403794 -249.366974 
L 457.037818 -248.137362 
L 457.813813 -246.907749 
L 458.719936 -245.678137 
L 459.726753 -244.448525 
L 460.785839 -243.218913 
L 461.831704 -241.9893 
L 462.787545 -240.759688 
L 463.574458 -239.530076 
L 464.122765 -238.300464 
L 464.383273 -237.070851 
L 464.335993 -235.841239 
L 463.994161 -234.611627 
L 463.402412 -233.382015 
L 462.629336 -232.152402 
L 461.756022 -230.92279 
L 460.863141 -229.693178 
L 460.019345 -228.463565 
L 459.273289 -227.233953 
L 458.65048 -226.004341 
L 458.154958 -224.774729 
L 457.774675 -223.545116 
L 457.488804 -222.315504 
L 457.275078 -221.085892 
L 457.115609 -219.85628 
L 457.000305 -218.626667 
L 456.927707 -217.397055 
L 456.903723 -216.167443 
L 456.939094 -214.937831 
L 457.046581 -213.708218 
L 457.238764 -212.478606 
L 457.527091 -211.248994 
L 457.922578 -210.019382 
L 458.438221 -208.789769 
L 459.092991 -207.560157 
L 459.916915 -206.330545 
L 460.956463 -205.100933 
L 462.278927 -203.87132 
L 463.974057 -202.641708 
L 466.150807 -201.412096 
L 468.927155 -200.182484 
L 472.4117 -198.952871 
L 476.677428 -197.723259 
L 481.730529 -196.493647 
L 487.479875 -195.264035 
L 493.715027 -194.034422 
L 500.101143 -192.80481 
L 506.197292 -191.575198 
L 511.500173 -190.345586 
L 515.508879 -189.115973 
L 517.799959 -187.886361 
L 518.0976 -186.656749 
L 516.323176 -185.427137 
L 512.612229 -184.197524 
L 507.294417 -182.967912 
L 500.840856 -181.7383 
L 493.790857 -180.508688 
L 486.674194 -179.279075 
L 479.944532 -178.049463 
L 473.935228 -176.819851 
L 468.842056 -175.590239 
L 464.730698 -174.360626 
L 461.562049 -173.131014 
L 459.226277 -171.901402 
L 457.577211 -170.67179 
z
" style="stroke: #595959; stroke-width: 1.25"/>
    </defs>
    <g clip-path="url(#pbdf187f300)">
     <use xlink:href="#m8bfcee6a6a" x="0" y="432" style="fill: #95a3c3; stroke: #595959; stroke-width: 1.25"/>
    </g>
   </g>
   <g id="PolyCollection_4">
    <defs>
     <path id="m1cdf074337" d="M 617.626156 -217.299622 
L 608.821844 -217.299622 
L 606.852098 -219.030748 
L 604.254693 -220.761874 
L 600.945183 -222.492999 
L 596.875174 -224.224125 
L 592.051257 -225.95525 
L 586.551702 -227.686376 
L 580.537096 -229.417501 
L 574.251302 -231.148627 
L 568.010186 -232.879752 
L 562.177569 -234.610878 
L 557.130348 -236.342003 
L 553.217248 -238.073129 
L 550.717508 -239.804255 
L 549.8064 -241.53538 
L 550.533646 -243.266506 
L 552.818518 -244.997631 
L 556.462311 -246.728757 
L 561.175634 -248.459882 
L 566.615347 -250.191008 
L 572.424628 -251.922133 
L 578.269732 -253.653259 
L 583.868408 -255.384384 
L 589.007136 -257.11551 
L 593.546801 -258.846635 
L 597.41845 -260.577761 
L 600.612109 -262.308887 
L 603.162065 -264.040012 
L 605.131697 -265.771138 
L 606.600092 -267.502263 
L 607.651675 -269.233389 
L 608.369138 -270.964514 
L 608.829266 -272.69564 
L 609.100904 -274.426765 
L 609.244223 -276.157891 
L 609.310596 -277.889016 
L 609.342618 -279.620142 
L 609.374074 -281.351268 
L 609.429841 -283.082393 
L 609.525858 -284.813519 
L 609.669302 -286.544644 
L 609.859092 -288.27577 
L 610.086753 -290.006895 
L 610.337583 -291.738021 
L 610.592025 -293.469146 
L 610.827097 -295.200272 
L 611.017789 -296.931397 
L 611.1384 -298.662523 
L 611.163852 -300.393648 
L 611.071133 -302.124774 
L 610.840992 -303.8559 
L 610.459989 -305.587025 
L 609.922861 -307.318151 
L 609.234972 -309.049276 
L 608.414429 -310.780402 
L 607.493293 -312.511527 
L 606.517305 -314.242653 
L 605.543687 -315.973778 
L 604.636891 -317.704904 
L 603.862585 -319.436029 
L 603.280601 -321.167155 
L 602.937915 -322.898281 
L 602.862836 -324.629406 
L 603.061455 -326.360532 
L 603.517009 -328.091657 
L 604.192276 -329.822783 
L 605.034528 -331.553908 
L 605.982103 -333.285034 
L 606.971448 -335.016159 
L 607.943482 -336.747285 
L 608.848426 -338.47841 
L 609.648647 -340.209536 
L 610.319524 -341.940661 
L 610.848708 -343.671787 
L 611.234351 -345.402913 
L 611.482935 -347.134038 
L 611.607183 -348.865164 
L 611.624359 -350.596289 
L 611.554998 -352.327415 
L 611.421956 -354.05854 
L 611.249541 -355.789666 
L 611.062523 -357.520791 
L 610.884887 -359.251917 
L 610.738332 -360.983042 
L 610.640687 -362.714168 
L 610.604481 -364.445294 
L 610.635946 -366.176419 
L 610.73469 -367.907545 
L 610.894133 -369.63867 
L 611.10267 -371.369796 
L 611.345381 -373.100921 
L 611.605988 -374.832047 
L 611.868764 -376.563172 
L 612.12011 -378.294298 
L 612.349599 -380.025423 
L 612.550452 -381.756549 
L 612.719453 -383.487675 
L 612.856452 -385.2188 
L 612.963619 -386.949926 
L 613.044611 -388.681051 
L 613.403389 -388.681051 
L 613.403389 -388.681051 
L 613.484381 -386.949926 
L 613.591548 -385.2188 
L 613.728547 -383.487675 
L 613.897548 -381.756549 
L 614.098401 -380.025423 
L 614.32789 -378.294298 
L 614.579236 -376.563172 
L 614.842012 -374.832047 
L 615.102619 -373.100921 
L 615.34533 -371.369796 
L 615.553867 -369.63867 
L 615.71331 -367.907545 
L 615.812054 -366.176419 
L 615.843519 -364.445294 
L 615.807313 -362.714168 
L 615.709668 -360.983042 
L 615.563113 -359.251917 
L 615.385477 -357.520791 
L 615.198459 -355.789666 
L 615.026044 -354.05854 
L 614.893002 -352.327415 
L 614.823641 -350.596289 
L 614.840817 -348.865164 
L 614.965065 -347.134038 
L 615.213649 -345.402913 
L 615.599292 -343.671787 
L 616.128476 -341.940661 
L 616.799353 -340.209536 
L 617.599574 -338.47841 
L 618.504518 -336.747285 
L 619.476552 -335.016159 
L 620.465897 -333.285034 
L 621.413472 -331.553908 
L 622.255724 -329.822783 
L 622.930991 -328.091657 
L 623.386545 -326.360532 
L 623.585164 -324.629406 
L 623.510085 -322.898281 
L 623.167399 -321.167155 
L 622.585415 -319.436029 
L 621.811109 -317.704904 
L 620.904313 -315.973778 
L 619.930695 -314.242653 
L 618.954707 -312.511527 
L 618.033571 -310.780402 
L 617.213028 -309.049276 
L 616.525139 -307.318151 
L 615.988011 -305.587025 
L 615.607008 -303.8559 
L 615.376867 -302.124774 
L 615.284148 -300.393648 
L 615.3096 -298.662523 
L 615.430211 -296.931397 
L 615.620903 -295.200272 
L 615.855975 -293.469146 
L 616.110417 -291.738021 
L 616.361247 -290.006895 
L 616.588908 -288.27577 
L 616.778698 -286.544644 
L 616.922142 -284.813519 
L 617.018159 -283.082393 
L 617.073926 -281.351268 
L 617.105382 -279.620142 
L 617.137404 -277.889016 
L 617.203777 -276.157891 
L 617.347096 -274.426765 
L 617.618734 -272.69564 
L 618.078862 -270.964514 
L 618.796325 -269.233389 
L 619.847908 -267.502263 
L 621.316303 -265.771138 
L 623.285935 -264.040012 
L 625.835891 -262.308887 
L 629.02955 -260.577761 
L 632.901199 -258.846635 
L 637.440864 -257.11551 
L 642.579592 -255.384384 
L 648.178268 -253.653259 
L 654.023372 -251.922133 
L 659.832653 -250.191008 
L 665.272366 -248.459882 
L 669.985689 -246.728757 
L 673.629482 -244.997631 
L 675.914354 -243.266506 
L 676.6416 -241.53538 
L 675.730492 -239.804255 
L 673.230752 -238.073129 
L 669.317652 -236.342003 
L 664.270431 -234.610878 
L 658.437814 -232.879752 
L 652.196698 -231.148627 
L 645.910904 -229.417501 
L 639.896298 -227.686376 
L 634.396743 -225.95525 
L 629.572826 -224.224125 
L 625.502817 -222.492999 
L 622.193307 -220.761874 
L 619.595902 -219.030748 
L 617.626156 -217.299622 
z
" style="stroke: #595959; stroke-width: 1.25"/>
    </defs>
    <g clip-path="url(#pbdf187f300)">
     <use xlink:href="#m1cdf074337" x="0" y="432" style="fill: #db96c0; stroke: #595959; stroke-width: 1.25"/>
    </g>
   </g>
   <g id="PolyCollection_5">
    <defs>
     <path id="maef3ecb9a5" d="M 775.004019 -184.831634 
L 768.531981 -184.831634 
L 766.452229 -186.020788 
L 763.425276 -187.209942 
L 759.257438 -188.399096 
L 753.840502 -189.58825 
L 747.215825 -190.777404 
L 739.627726 -191.966558 
L 731.545319 -193.155712 
L 723.635328 -194.344866 
L 716.679755 -195.53402 
L 711.449293 -196.723174 
L 708.560024 -197.912328 
L 708.3504 -199.101482 
L 710.812748 -200.290636 
L 715.598625 -201.47979 
L 722.095473 -202.668944 
L 729.55141 -203.858098 
L 737.213351 -205.047252 
L 744.444214 -206.236407 
L 750.796136 -207.425561 
L 756.032674 -208.614715 
L 760.107537 -209.803869 
L 763.116119 -210.993023 
L 765.237754 -212.182177 
L 766.682894 -213.371331 
L 767.653343 -214.560485 
L 768.317871 -215.749639 
L 768.801556 -216.938793 
L 769.185332 -218.127947 
L 769.511976 -219.317101 
L 769.795296 -220.506255 
L 770.030215 -221.695409 
L 770.202223 -222.884563 
L 770.29539 -224.073717 
L 770.298578 -225.262871 
L 770.209761 -226.452025 
L 770.038439 -227.641179 
L 769.806024 -228.830333 
L 769.5441 -230.019487 
L 769.290556 -231.208641 
L 769.083986 -232.397795 
L 768.957238 -233.586949 
L 768.931421 -234.776103 
L 769.011733 -235.965257 
L 769.186105 -237.154411 
L 769.426921 -238.343565 
L 769.695312 -239.532719 
L 769.946963 -240.721873 
L 770.13831 -241.911027 
L 770.232285 -243.100181 
L 770.20321 -244.289335 
L 770.040691 -245.478489 
L 769.752297 -246.667643 
L 769.364504 -247.856797 
L 768.921119 -249.045951 
L 768.478508 -250.235106 
L 768.09766 -251.42426 
L 767.834156 -252.613414 
L 767.72815 -253.802568 
L 767.796929 -254.991722 
L 768.032158 -256.180876 
L 768.402652 -257.37003 
L 768.861853 -258.559184 
L 769.357823 -259.748338 
L 769.842991 -260.937492 
L 770.281264 -262.126646 
L 770.651258 -263.3158 
L 770.945709 -264.504954 
L 771.168177 -265.694108 
L 771.32863 -266.883262 
L 771.439318 -268.072416 
L 771.511837 -269.26157 
L 771.555641 -270.450724 
L 771.577708 -271.639878 
L 771.58288 -272.829032 
L 771.574348 -274.018186 
L 771.553954 -275.20734 
L 771.522271 -276.396494 
L 771.478585 -277.585648 
L 771.421074 -278.774802 
L 771.347424 -279.963956 
L 771.255951 -281.15311 
L 771.147057 -282.342264 
L 771.024589 -283.531418 
L 770.896567 -284.720572 
L 770.774828 -285.909726 
L 770.673434 -287.09888 
L 770.606103 -288.288034 
L 770.583317 -289.477188 
L 770.609929 -290.666342 
L 770.683995 -291.855496 
L 770.797173 -293.044651 
L 770.936534 -294.233805 
L 771.087233 -295.422959 
L 771.235262 -296.612113 
L 771.369586 -297.801267 
L 771.483275 -298.990421 
L 771.573572 -300.179575 
L 771.641142 -301.368729 
L 771.688916 -302.557883 
L 771.847084 -302.557883 
L 771.847084 -302.557883 
L 771.894858 -301.368729 
L 771.962428 -300.179575 
L 772.052725 -298.990421 
L 772.166414 -297.801267 
L 772.300738 -296.612113 
L 772.448767 -295.422959 
L 772.599466 -294.233805 
L 772.738827 -293.044651 
L 772.852005 -291.855496 
L 772.926071 -290.666342 
L 772.952683 -289.477188 
L 772.929897 -288.288034 
L 772.862566 -287.09888 
L 772.761172 -285.909726 
L 772.639433 -284.720572 
L 772.511411 -283.531418 
L 772.388943 -282.342264 
L 772.280049 -281.15311 
L 772.188576 -279.963956 
L 772.114926 -278.774802 
L 772.057415 -277.585648 
L 772.013729 -276.396494 
L 771.982046 -275.20734 
L 771.961652 -274.018186 
L 771.95312 -272.829032 
L 771.958292 -271.639878 
L 771.980359 -270.450724 
L 772.024163 -269.26157 
L 772.096682 -268.072416 
L 772.20737 -266.883262 
L 772.367823 -265.694108 
L 772.590291 -264.504954 
L 772.884742 -263.3158 
L 773.254736 -262.126646 
L 773.693009 -260.937492 
L 774.178177 -259.748338 
L 774.674147 -258.559184 
L 775.133348 -257.37003 
L 775.503842 -256.180876 
L 775.739071 -254.991722 
L 775.80785 -253.802568 
L 775.701844 -252.613414 
L 775.43834 -251.42426 
L 775.057492 -250.235106 
L 774.614881 -249.045951 
L 774.171496 -247.856797 
L 773.783703 -246.667643 
L 773.495309 -245.478489 
L 773.33279 -244.289335 
L 773.303715 -243.100181 
L 773.39769 -241.911027 
L 773.589037 -240.721873 
L 773.840688 -239.532719 
L 774.109079 -238.343565 
L 774.349895 -237.154411 
L 774.524267 -235.965257 
L 774.604579 -234.776103 
L 774.578762 -233.586949 
L 774.452014 -232.397795 
L 774.245444 -231.208641 
L 773.9919 -230.019487 
L 773.729976 -228.830333 
L 773.497561 -227.641179 
L 773.326239 -226.452025 
L 773.237422 -225.262871 
L 773.24061 -224.073717 
L 773.333777 -222.884563 
L 773.505785 -221.695409 
L 773.740704 -220.506255 
L 774.024024 -219.317101 
L 774.350668 -218.127947 
L 774.734444 -216.938793 
L 775.218129 -215.749639 
L 775.882657 -214.560485 
L 776.853106 -213.371331 
L 778.298246 -212.182177 
L 780.419881 -210.993023 
L 783.428463 -209.803869 
L 787.503326 -208.614715 
L 792.739864 -207.425561 
L 799.091786 -206.236407 
L 806.322649 -205.047252 
L 813.98459 -203.858098 
L 821.440527 -202.668944 
L 827.937375 -201.47979 
L 832.723252 -200.290636 
L 835.1856 -199.101482 
L 834.975976 -197.912328 
L 832.086707 -196.723174 
L 826.856245 -195.53402 
L 819.900672 -194.344866 
L 811.990681 -193.155712 
L 803.908274 -191.966558 
L 796.320175 -190.777404 
L 789.695498 -189.58825 
L 784.278562 -188.399096 
L 780.110724 -187.209942 
L 777.083771 -186.020788 
L 775.004019 -184.831634 
z
" style="stroke: #595959; stroke-width: 1.25"/>
    </defs>
    <g clip-path="url(#pbdf187f300)">
     <use xlink:href="#maef3ecb9a5" x="0" y="432" style="fill: #a2c865; stroke: #595959; stroke-width: 1.25"/>
    </g>
   </g>
   <g id="line2d_10">
    <path d="M 137.592 353.485782 
L 137.592 355.132881 
" clip-path="url(#pbdf187f300)" style="fill: none; stroke: #000000"/>
   </g>
   <g id="line2d_11">
    <path d="M 137.592 351.446516 
L 137.592 348.387617 
" clip-path="url(#pbdf187f300)" style="fill: none; stroke: #000000"/>
   </g>
   <g id="line2d_12">
    <path d="M 131.6466 355.132881 
L 143.5374 355.132881 
" clip-path="url(#pbdf187f300)" style="fill: none; stroke: #000000; stroke-linecap: round"/>
   </g>
   <g id="line2d_13">
    <path d="M 131.6466 348.387617 
L 143.5374 348.387617 
" clip-path="url(#pbdf187f300)" style="fill: none; stroke: #000000; stroke-linecap: round"/>
   </g>
   <g id="line2d_14">
    <path d="M 296.136 355.446614 
L 296.136 356.858414 
" clip-path="url(#pbdf187f300)" style="fill: none; stroke: #000000"/>
   </g>
   <g id="line2d_15">
    <path d="M 296.136 353.799515 
L 296.136 351.368082 
" clip-path="url(#pbdf187f300)" style="fill: none; stroke: #000000"/>
   </g>
   <g id="line2d_16">
    <path d="M 290.1906 356.858414 
L 302.0814 356.858414 
" clip-path="url(#pbdf187f300)" style="fill: none; stroke: #000000; stroke-linecap: round"/>
   </g>
   <g id="line2d_17">
    <path d="M 290.1906 351.368082 
L 302.0814 351.368082 
" clip-path="url(#pbdf187f300)" style="fill: none; stroke: #000000; stroke-linecap: round"/>
   </g>
   <g id="line2d_18">
    <path d="M 454.68 246.032154 
L 454.68 248.620453 
" clip-path="url(#pbdf187f300)" style="fill: none; stroke: #000000"/>
   </g>
   <g id="line2d_19">
    <path d="M 454.68 237.52214 
L 454.68 225.561061 
" clip-path="url(#pbdf187f300)" style="fill: none; stroke: #000000"/>
   </g>
   <g id="line2d_20">
    <path d="M 448.7346 248.620453 
L 460.6254 248.620453 
" clip-path="url(#pbdf187f300)" style="fill: none; stroke: #000000; stroke-linecap: round"/>
   </g>
   <g id="line2d_21">
    <path d="M 448.7346 225.561061 
L 460.6254 225.561061 
" clip-path="url(#pbdf187f300)" style="fill: none; stroke: #000000; stroke-linecap: round"/>
   </g>
   <g id="line2d_22">
    <path d="M 613.224 191.873957 
L 613.224 194.266173 
" clip-path="url(#pbdf187f300)" style="fill: none; stroke: #000000"/>
   </g>
   <g id="line2d_23">
    <path d="M 613.224 180.697211 
L 613.224 166.65765 
" clip-path="url(#pbdf187f300)" style="fill: none; stroke: #000000"/>
   </g>
   <g id="line2d_24">
    <path d="M 607.2786 194.266173 
L 619.1694 194.266173 
" clip-path="url(#pbdf187f300)" style="fill: none; stroke: #000000; stroke-linecap: round"/>
   </g>
   <g id="line2d_25">
    <path d="M 607.2786 166.65765 
L 619.1694 166.65765 
" clip-path="url(#pbdf187f300)" style="fill: none; stroke: #000000; stroke-linecap: round"/>
   </g>
   <g id="line2d_26">
    <path d="M 771.768 234.345592 
L 771.768 236.306424 
" clip-path="url(#pbdf187f300)" style="fill: none; stroke: #000000"/>
   </g>
   <g id="line2d_27">
    <path d="M 771.768 231.384734 
L 771.768 227.208161 
" clip-path="url(#pbdf187f300)" style="fill: none; stroke: #000000"/>
   </g>
   <g id="line2d_28">
    <path d="M 765.8226 236.306424 
L 777.7134 236.306424 
" clip-path="url(#pbdf187f300)" style="fill: none; stroke: #000000; stroke-linecap: round"/>
   </g>
   <g id="line2d_29">
    <path d="M 765.8226 227.208161 
L 777.7134 227.208161 
" clip-path="url(#pbdf187f300)" style="fill: none; stroke: #000000; stroke-linecap: round"/>
   </g>
   <g id="line2d_30">
    <path d="M 125.7012 352.623015 
L 149.4828 352.623015 
" clip-path="url(#pbdf187f300)" style="fill: none; stroke: #ff0000; stroke-width: 2"/>
   </g>
   <g id="line2d_31">
    <path d="M 284.2452 354.662281 
L 308.0268 354.662281 
" clip-path="url(#pbdf187f300)" style="fill: none; stroke: #ff0000; stroke-width: 2"/>
   </g>
   <g id="line2d_32">
    <path d="M 442.7892 244.620354 
L 466.5708 244.620354 
" clip-path="url(#pbdf187f300)" style="fill: none; stroke: #ff0000; stroke-width: 2"/>
   </g>
   <g id="line2d_33">
    <path d="M 601.3332 190.422941 
L 625.1148 190.422941 
" clip-path="url(#pbdf187f300)" style="fill: none; stroke: #ff0000; stroke-width: 2"/>
   </g>
   <g id="line2d_34">
    <path d="M 759.8772 233.325959 
L 783.6588 233.325959 
" clip-path="url(#pbdf187f300)" style="fill: none; stroke: #ff0000; stroke-width: 2"/>
   </g>
   <g id="patch_3">
    <path d="M 58.32 373.416875 
L 58.32 27.6 
" style="fill: none; stroke: #cccccc; stroke-width: 1.25; stroke-linejoin: miter; stroke-linecap: square"/>
   </g>
   <g id="patch_4">
    <path d="M 851.04 373.416875 
L 851.04 27.6 
" style="fill: none; stroke: #cccccc; stroke-width: 1.25; stroke-linejoin: miter; stroke-linecap: square"/>
   </g>
   <g id="patch_5">
    <path d="M 58.32 373.416875 
L 851.04 373.416875 
" style="fill: none; stroke: #cccccc; stroke-width: 1.25; stroke-linejoin: miter; stroke-linecap: square"/>
   </g>
   <g id="patch_6">
    <path d="M 58.32 27.6 
L 851.04 27.6 
" style="fill: none; stroke: #cccccc; stroke-width: 1.25; stroke-linejoin: miter; stroke-linecap: square"/>
   </g>
   <g id="text_16">
    <!-- Handshake duration on QUIC with mldsa44 signature algorithm — Backbone (200ms/4%) -->
    <g style="fill: #262626" transform="translate(186.57375 21.6) scale(0.12 -0.12)">
     <defs>
      <path id="DejaVuSans-51" d="M 2522 4238 
Q 1834 4238 1429 3725 
Q 1025 3213 1025 2328 
Q 1025 1447 1429 934 
Q 1834 422 2522 422 
Q 3209 422 3611 934 
Q 4013 1447 4013 2328 
Q 4013 3213 3611 3725 
Q 3209 4238 2522 4238 
z
M 3406 84 
L 4238 -825 
L 3475 -825 
L 2784 -78 
Q 2681 -84 2626 -87 
Q 2572 -91 2522 -91 
Q 1538 -91 948 567 
Q 359 1225 359 2328 
Q 359 3434 948 4092 
Q 1538 4750 2522 4750 
Q 3503 4750 4090 4092 
Q 4678 3434 4678 2328 
Q 4678 1516 4351 937 
Q 4025 359 3406 84 
z
" transform="scale(0.015625)"/>
      <path id="DejaVuSans-55" d="M 556 4666 
L 1191 4666 
L 1191 1831 
Q 1191 1081 1462 751 
Q 1734 422 2344 422 
Q 2950 422 3222 751 
Q 3494 1081 3494 1831 
L 3494 4666 
L 4128 4666 
L 4128 1753 
Q 4128 841 3676 375 
Q 3225 -91 2344 -91 
Q 1459 -91 1007 375 
Q 556 841 556 1753 
L 556 4666 
z
" transform="scale(0.015625)"/>
      <path id="DejaVuSans-49" d="M 628 4666 
L 1259 4666 
L 1259 0 
L 628 0 
L 628 4666 
z
" transform="scale(0.015625)"/>
      <path id="DejaVuSans-43" d="M 4122 4306 
L 4122 3641 
Q 3803 3938 3442 4084 
Q 3081 4231 2675 4231 
Q 1875 4231 1450 3742 
Q 1025 3253 1025 2328 
Q 1025 1406 1450 917 
Q 1875 428 2675 428 
Q 3081 428 3442 575 
Q 3803 722 4122 1019 
L 4122 359 
Q 3791 134 3420 21 
Q 3050 -91 2638 -91 
Q 1578 -91 968 557 
Q 359 1206 359 2328 
Q 359 3453 968 4101 
Q 1578 4750 2638 4750 
Q 3056 4750 3426 4639 
Q 3797 4528 4122 4306 
z
" transform="scale(0.015625)"/>
      <path id="DejaVuSans-77" d="M 269 3500 
L 844 3500 
L 1563 769 
L 2278 3500 
L 2956 3500 
L 3675 769 
L 4391 3500 
L 4966 3500 
L 4050 0 
L 3372 0 
L 2619 2869 
L 1863 0 
L 1184 0 
L 269 3500 
z
" transform="scale(0.015625)"/>
      <path id="DejaVuSans-6c" d="M 603 4863 
L 1178 4863 
L 1178 0 
L 603 0 
L 603 4863 
z
" transform="scale(0.015625)"/>
      <path id="DejaVuSans-67" d="M 2906 1791 
Q 2906 2416 2648 2759 
Q 2391 3103 1925 3103 
Q 1463 3103 1205 2759 
Q 947 2416 947 1791 
Q 947 1169 1205 825 
Q 1463 481 1925 481 
Q 2391 481 2648 825 
Q 2906 1169 2906 1791 
z
M 3481 434 
Q 3481 -459 3084 -895 
Q 2688 -1331 1869 -1331 
Q 1566 -1331 1297 -1286 
Q 1028 -1241 775 -1147 
L 775 -588 
Q 1028 -725 1275 -790 
Q 1522 -856 1778 -856 
Q 2344 -856 2625 -561 
Q 2906 -266 2906 331 
L 2906 616 
Q 2728 306 2450 153 
Q 2172 0 1784 0 
Q 1141 0 747 490 
Q 353 981 353 1791 
Q 353 2603 747 3093 
Q 1141 3584 1784 3584 
Q 2172 3584 2450 3431 
Q 2728 3278 2906 2969 
L 2906 3500 
L 3481 3500 
L 3481 434 
z
" transform="scale(0.015625)"/>
      <path id="DejaVuSans-2014" d="M 313 1978 
L 6088 1978 
L 6088 1528 
L 313 1528 
L 313 1978 
z
" transform="scale(0.015625)"/>
      <path id="DejaVuSans-42" d="M 1259 2228 
L 1259 519 
L 2272 519 
Q 2781 519 3026 730 
Q 3272 941 3272 1375 
Q 3272 1813 3026 2020 
Q 2781 2228 2272 2228 
L 1259 2228 
z
M 1259 4147 
L 1259 2741 
L 2194 2741 
Q 2656 2741 2882 2914 
Q 3109 3088 3109 3444 
Q 3109 3797 2882 3972 
Q 2656 4147 2194 4147 
L 1259 4147 
z
M 628 4666 
L 2241 4666 
Q 2963 4666 3353 4366 
Q 3744 4066 3744 3513 
Q 3744 3084 3544 2831 
Q 3344 2578 2956 2516 
Q 3422 2416 3680 2098 
Q 3938 1781 3938 1306 
Q 3938 681 3513 340 
Q 3088 0 2303 0 
L 628 0 
L 628 4666 
z
" transform="scale(0.015625)"/>
      <path id="DejaVuSans-62" d="M 3116 1747 
Q 3116 2381 2855 2742 
Q 2594 3103 2138 3103 
Q 1681 3103 1420 2742 
Q 1159 2381 1159 1747 
Q 1159 1113 1420 752 
Q 1681 391 2138 391 
Q 2594 391 2855 752 
Q 3116 1113 3116 1747 
z
M 1159 2969 
Q 1341 3281 1617 3432 
Q 1894 3584 2278 3584 
Q 2916 3584 3314 3078 
Q 3713 2572 3713 1747 
Q 3713 922 3314 415 
Q 2916 -91 2278 -91 
Q 1894 -91 1617 61 
Q 1341 213 1159 525 
L 1159 0 
L 581 0 
L 581 4863 
L 1159 4863 
L 1159 2969 
z
" transform="scale(0.015625)"/>
      <path id="DejaVuSans-2f" d="M 1625 4666 
L 2156 4666 
L 531 -594 
L 0 -594 
L 1625 4666 
z
" transform="scale(0.015625)"/>
      <path id="DejaVuSans-25" d="M 4653 2053 
Q 4381 2053 4226 1822 
Q 4072 1591 4072 1178 
Q 4072 772 4226 539 
Q 4381 306 4653 306 
Q 4919 306 5073 539 
Q 5228 772 5228 1178 
Q 5228 1588 5073 1820 
Q 4919 2053 4653 2053 
z
M 4653 2450 
Q 5147 2450 5437 2106 
Q 5728 1763 5728 1178 
Q 5728 594 5436 251 
Q 5144 -91 4653 -91 
Q 4153 -91 3862 251 
Q 3572 594 3572 1178 
Q 3572 1766 3864 2108 
Q 4156 2450 4653 2450 
z
M 1428 4353 
Q 1159 4353 1004 4120 
Q 850 3888 850 3481 
Q 850 3069 1003 2837 
Q 1156 2606 1428 2606 
Q 1700 2606 1854 2837 
Q 2009 3069 2009 3481 
Q 2009 3884 1853 4118 
Q 1697 4353 1428 4353 
z
M 4250 4750 
L 4750 4750 
L 1831 -91 
L 1331 -91 
L 4250 4750 
z
M 1428 4750 
Q 1922 4750 2215 4408 
Q 2509 4066 2509 3481 
Q 2509 2891 2217 2550 
Q 1925 2209 1428 2209 
Q 931 2209 642 2551 
Q 353 2894 353 3481 
Q 353 4063 643 4406 
Q 934 4750 1428 4750 
z
" transform="scale(0.015625)"/>
     </defs>
     <use xlink:href="#DejaVuSans-48"/>
     <use xlink:href="#DejaVuSans-61" x="75.195312"/>
     <use xlink:href="#DejaVuSans-6e" x="136.474609"/>
     <use xlink:href="#DejaVuSans-64" x="199.853516"/>
     <use xlink:href="#DejaVuSans-73" x="263.330078"/>
     <use xlink:href="#DejaVuSans-68" x="315.429688"/>
     <use xlink:href="#DejaVuSans-61" x="378.808594"/>
     <use xlink:href="#DejaVuSans-6b" x="440.087891"/>
     <use xlink:href="#DejaVuSans-65" x="494.373047"/>
     <use xlink:href="#DejaVuSans-20" x="555.896484"/>
     <use xlink:href="#DejaVuSans-64" x="587.683594"/>
     <use xlink:href="#DejaVuSans-75" x="651.160156"/>
     <use xlink:href="#DejaVuSans-72" x="714.539062"/>
     <use xlink:href="#DejaVuSans-61" x="755.652344"/>
     <use xlink:href="#DejaVuSans-74" x="816.931641"/>
     <use xlink:href="#DejaVuSans-69" x="856.140625"/>
     <use xlink:href="#DejaVuSans-6f" x="883.923828"/>
     <use xlink:href="#DejaVuSans-6e" x="945.105469"/>
     <use xlink:href="#DejaVuSans-20" x="1008.484375"/>
     <use xlink:href="#DejaVuSans-6f" x="1040.271484"/>
     <use xlink:href="#DejaVuSans-6e" x="1101.453125"/>
     <use xlink:href="#DejaVuSans-20" x="1164.832031"/>
     <use xlink:href="#DejaVuSans-51" x="1196.619141"/>
     <use xlink:href="#DejaVuSans-55" x="1275.330078"/>
     <use xlink:href="#DejaVuSans-49" x="1348.523438"/>
     <use xlink:href="#DejaVuSans-43" x="1378.015625"/>
     <use xlink:href="#DejaVuSans-20" x="1447.839844"/>
     <use xlink:href="#DejaVuSans-77" x="1479.626953"/>
     <use xlink:href="#DejaVuSans-69" x="1561.414062"/>
     <use xlink:href="#DejaVuSans-74" x="1589.197266"/>
     <use xlink:href="#DejaVuSans-68" x="1628.40625"/>
     <use xlink:href="#DejaVuSans-20" x="1691.785156"/>
     <use xlink:href="#DejaVuSans-6d" x="1723.572266"/>
     <use xlink:href="#DejaVuSans-6c" x="1820.984375"/>
     <use xlink:href="#DejaVuSans-64" x="1848.767578"/>
     <use xlink:href="#DejaVuSans-73" x="1912.244141"/>
     <use xlink:href="#DejaVuSans-61" x="1964.34375"/>
     <use xlink:href="#DejaVuSans-34" x="2025.623047"/>
     <use xlink:href="#DejaVuSans-34" x="2089.246094"/>
     <use xlink:href="#DejaVuSans-20" x="2152.869141"/>
     <use xlink:href="#DejaVuSans-73" x="2184.65625"/>
     <use xlink:href="#DejaVuSans-69" x="2236.755859"/>
     <use xlink:href="#DejaVuSans-67" x="2264.539062"/>
     <use xlink:href="#DejaVuSans-6e" x="2328.015625"/>
     <use xlink:href="#DejaVuSans-61" x="2391.394531"/>
     <use xlink:href="#DejaVuSans-74" x="2452.673828"/>
     <use xlink:href="#DejaVuSans-75" x="2491.882812"/>
     <use xlink:href="#DejaVuSans-72" x="2555.261719"/>
     <use xlink:href="#DejaVuSans-65" x="2594.125"/>
     <use xlink:href="#DejaVuSans-20" x="2655.648438"/>
     <use xlink:href="#DejaVuSans-61" x="2687.435547"/>
     <use xlink:href="#DejaVuSans-6c" x="2748.714844"/>
     <use xlink:href="#DejaVuSans-67" x="2776.498047"/>
     <use xlink:href="#DejaVuSans-6f" x="2839.974609"/>
     <use xlink:href="#DejaVuSans-72" x="2901.15625"/>
     <use xlink:href="#DejaVuSans-69" x="2942.269531"/>
     <use xlink:href="#DejaVuSans-74" x="2970.052734"/>
     <use xlink:href="#DejaVuSans-68" x="3009.261719"/>
     <use xlink:href="#DejaVuSans-6d" x="3072.640625"/>
     <use xlink:href="#DejaVuSans-20" x="3170.052734"/>
     <use xlink:href="#DejaVuSans-2014" x="3201.839844"/>
     <use xlink:href="#DejaVuSans-20" x="3301.839844"/>
     <use xlink:href="#DejaVuSans-42" x="3333.626953"/>
     <use xlink:href="#DejaVuSans-61" x="3402.230469"/>
     <use xlink:href="#DejaVuSans-63" x="3463.509766"/>
     <use xlink:href="#DejaVuSans-6b" x="3518.490234"/>
     <use xlink:href="#DejaVuSans-62" x="3576.400391"/>
     <use xlink:href="#DejaVuSans-6f" x="3639.876953"/>
     <use xlink:href="#DejaVuSans-6e" x="3701.058594"/>
     <use xlink:href="#DejaVuSans-65" x="3764.4375"/>
     <use xlink:href="#DejaVuSans-20" x="3825.960938"/>
     <use xlink:href="#DejaVuSans-28" x="3857.748047"/>
     <use xlink:href="#DejaVuSans-32" x="3896.761719"/>
     <use xlink:href="#DejaVuSans-30" x="3960.384766"/>
     <use xlink:href="#DejaVuSans-30" x="4024.007812"/>
     <use xlink:href="#DejaVuSans-6d" x="4087.630859"/>
     <use xlink:href="#DejaVuSans-73" x="4185.042969"/>
     <use xlink:href="#DejaVuSans-2f" x="4237.142578"/>
     <use xlink:href="#DejaVuSans-34" x="4270.833984"/>
     <use xlink:href="#DejaVuSans-25" x="4334.457031"/>
     <use xlink:href="#DejaVuSans-29" x="4429.476562"/>
    </g>
   </g>
  </g>
 </g>
 <defs>
  <clipPath id="pbdf187f300">
   <rect x="58.32" y="27.6" width="792.72" height="345.816875"/>
  </clipPath>
 </defs>
</svg>
