<?xml version="1.0" encoding="utf-8" standalone="no"?>
<!DOCTYPE svg PUBLIC "-//W3C//DTD SVG 1.1//EN"
  "http://www.w3.org/Graphics/SVG/1.1/DTD/svg11.dtd">
<svg xmlns:xlink="http://www.w3.org/1999/xlink" width="864pt" height="432pt" viewBox="0 0 864 432" xmlns="http://www.w3.org/2000/svg" version="1.1">
 <metadata>
  <rdf:RDF xmlns:dc="http://purl.org/dc/elements/1.1/" xmlns:cc="http://creativecommons.org/ns#" xmlns:rdf="http://www.w3.org/1999/02/22-rdf-syntax-ns#">
   <cc:Work>
    <dc:type rdf:resource="http://purl.org/dc/dcmitype/StillImage"/>
    <dc:date>2026-03-21T14:06:29.218734</dc:date>
    <dc:format>image/svg+xml</dc:format>
    <dc:creator>
     <cc:Agent>
      <dc:title>Matplotlib v3.6.3, https://matplotlib.org/</dc:title>
     </cc:Agent>
    </dc:creator>
   </cc:Work>
  </rdf:RDF>
 </metadata>
 <defs>
  <style type="text/css">*{stroke-linejoin: round; stroke-linecap: butt}</style>
 </defs>
 <g id="figure_1">
  <g id="patch_1">
   <path d="M 0 432 
L 864 432 
L 864 0 
L 0 0 
z
" style="fill: #ffffff"/>
  </g>
  <g id="axes_1">
   <g id="patch_2">
    <path d="M 58.32 373.416875 
L 851.04 373.416875 
L 851.04 27.6 
L 58.32 27.6 
z
" style="fill: #ffffff"/>
   </g>
   <g id="matplotlib.axis_1">
    <g id="xtick_1">
     <g id="text_1">
      <!-- P-256 -->
      <g style="fill: #262626" transform="translate(103.911421 400.575919) rotate(-15) scale(0.12 -0.12)">
       <defs>
        <path id="DejaVuSans-50" d="M 1259 4147 
L 1259 2394 
L 2053 2394 
Q 2494 2394 2734 2622 
Q 2975 2850 2975 3272 
Q 2975 3691 2734 3919 
Q 2494 4147 2053 4147 
L 1259 4147 
z
M 628 4666 
L 2053 4666 
Q 2838 4666 3239 4311 
Q 3641 3956 3641 3272 
Q 3641 2581 3239 2228 
Q 2838 1875 2053 1875 
L 1259 1875 
L 1259 0 
L 628 0 
L 628 4666 
z
" transform="scale(0.015625)"/>
        <path id="DejaVuSans-2d" d="M 313 2009 
L 1997 2009 
L 1997 1497 
L 313 1497 
L 313 2009 
z
" transform="scale(0.015625)"/>
        <path id="DejaVuSans-32" d="M 1228 531 
L 3431 531 
L 3431 0 
L 469 0 
L 469 531 
Q 828 903 1448 1529 
Q 2069 2156 2228 2338 
Q 2531 2678 2651 2914 
Q 2772 3150 2772 3378 
Q 2772 3750 2511 3984 
Q 2250 4219 1831 4219 
Q 1534 4219 1204 4116 
Q 875 4013 500 3803 
L 500 4441 
Q 881 4594 1212 4672 
Q 1544 4750 1819 4750 
Q 2544 4750 2975 4387 
Q 3406 4025 3406 3419 
Q 3406 3131 3298 2873 
Q 3191 2616 2906 2266 
Q 2828 2175 2409 1742 
Q 1991 1309 1228 531 
z
" transform="scale(0.015625)"/>
        <path id="DejaVuSans-35" d="M 691 4666 
L 3169 4666 
L 3169 4134 
L 1269 4134 
L 1269 2991 
Q 1406 3038 1543 3061 
Q 1681 3084 1819 3084 
Q 2600 3084 3056 2656 
Q 3513 2228 3513 1497 
Q 3513 744 3044 326 
Q 2575 -91 1722 -91 
Q 1428 -91 1123 -41 
Q 819 9 494 109 
L 494 744 
Q 775 591 1075 516 
Q 1375 441 1709 441 
Q 2250 441 2565 725 
Q 2881 1009 2881 1497 
Q 2881 1984 2565 2268 
Q 2250 2553 1709 2553 
Q 1456 2553 1204 2497 
Q 953 2441 691 2322 
L 691 4666 
z
" transform="scale(0.015625)"/>
        <path id="DejaVuSans-36" d="M 2113 2584 
Q 1688 2584 1439 2293 
Q 1191 2003 1191 1497 
Q 1191 994 1439 701 
Q 1688 409 2113 409 
Q 2538 409 2786 701 
Q 3034 994 3034 1497 
Q 3034 2003 2786 2293 
Q 2538 2584 2113 2584 
z
M 3366 4563 
L 3366 3988 
Q 3128 4100 2886 4159 
Q 2644 4219 2406 4219 
Q 1781 4219 1451 3797 
Q 1122 3375 1075 2522 
Q 1259 2794 1537 2939 
Q 1816 3084 2150 3084 
Q 2853 3084 3261 2657 
Q 3669 2231 3669 1497 
Q 3669 778 3244 343 
Q 2819 -91 2113 -91 
Q 1303 -91 875 529 
Q 447 1150 447 2328 
Q 447 3434 972 4092 
Q 1497 4750 2381 4750 
Q 2619 4750 2861 4703 
Q 3103 4656 3366 4563 
z
" transform="scale(0.015625)"/>
       </defs>
       <use xlink:href="#DejaVuSans-50"/>
       <use xlink:href="#DejaVuSans-2d" x="58.052734"/>
       <use xlink:href="#DejaVuSans-32" x="94.136719"/>
       <use xlink:href="#DejaVuSans-35" x="157.759766"/>
       <use xlink:href="#DejaVuSans-36" x="221.382812"/>
      </g>
     </g>
    </g>
    <g id="xtick_2">
     <g id="text_2">
      <!-- x25519 -->
      <g style="fill: #262626" transform="translate(251.755378 403.442987) rotate(-15) scale(0.12 -0.12)">
       <defs>
        <path id="DejaVuSans-78" d="M 3513 3500 
L 2247 1797 
L 3578 0 
L 2900 0 
L 1881 1375 
L 863 0 
L 184 0 
L 1544 1831 
L 300 3500 
L 978 3500 
L 1906 2253 
L 2834 3500 
L 3513 3500 
z
" transform="scale(0.015625)"/>
        <path id="DejaVuSans-31" d="M 794 531 
L 1825 531 
L 1825 4091 
L 703 3866 
L 703 4441 
L 1819 4666 
L 2450 4666 
L 2450 531 
L 3481 531 
L 3481 0 
L 794 0 
L 794 531 
z
" transform="scale(0.015625)"/>
        <path id="DejaVuSans-39" d="M 703 97 
L 703 672 
Q 941 559 1184 500 
Q 1428 441 1663 441 
Q 2288 441 2617 861 
Q 2947 1281 2994 2138 
Q 2813 1869 2534 1725 
Q 2256 1581 1919 1581 
Q 1219 1581 811 2004 
Q 403 2428 403 3163 
Q 403 3881 828 4315 
Q 1253 4750 1959 4750 
Q 2769 4750 3195 4129 
Q 3622 3509 3622 2328 
Q 3622 1225 3098 567 
Q 2575 -91 1691 -91 
Q 1453 -91 1209 -44 
Q 966 3 703 97 
z
M 1959 2075 
Q 2384 2075 2632 2365 
Q 2881 2656 2881 3163 
Q 2881 3666 2632 3958 
Q 2384 4250 1959 4250 
Q 1534 4250 1286 3958 
Q 1038 3666 1038 3163 
Q 1038 2656 1286 2365 
Q 1534 2075 1959 2075 
z
" transform="scale(0.015625)"/>
       </defs>
       <use xlink:href="#DejaVuSans-78"/>
       <use xlink:href="#DejaVuSans-32" x="59.179688"/>
       <use xlink:href="#DejaVuSans-35" x="122.802734"/>
       <use xlink:href="#DejaVuSans-35" x="186.425781"/>
       <use xlink:href="#DejaVuSans-31" x="250.048828"/>
       <use xlink:href="#DejaVuSans-39" x="313.671875"/>
      </g>
     </g>
    </g>
    <g id="xtick_3">
     <g id="text_3">
      <!-- hqc128 -->
      <g style="fill: #262626" transform="translate(410.831845 403.300313) rotate(-15) scale(0.12 -0.12)">
       <defs>
        <path id="DejaVuSans-68" d="M 3513 2113 
L 3513 0 
L 2938 0 
L 2938 2094 
Q 2938 2591 2744 2837 
Q 2550 3084 2163 3084 
Q 1697 3084 1428 2787 
Q 1159 2491 1159 1978 
L 1159 0 
L 581 0 
L 581 4863 
L 1159 4863 
L 1159 2956 
Q 1366 3272 1645 3428 
Q 1925 3584 2291 3584 
Q 2894 3584 3203 3211 
Q 3513 2838 3513 2113 
z
" transform="scale(0.015625)"/>
        <path id="DejaVuSans-71" d="M 947 1747 
Q 947 1113 1208 752 
Q 1469 391 1925 391 
Q 2381 391 2643 752 
Q 2906 1113 2906 1747 
Q 2906 2381 2643 2742 
Q 2381 3103 1925 3103 
Q 1469 3103 1208 2742 
Q 947 2381 947 1747 
z
M 2906 525 
Q 2725 213 2448 61 
Q 2172 -91 1784 -91 
Q 1150 -91 751 415 
Q 353 922 353 1747 
Q 353 2572 751 3078 
Q 1150 3584 1784 3584 
Q 2172 3584 2448 3432 
Q 2725 3281 2906 2969 
L 2906 3500 
L 3481 3500 
L 3481 -1331 
L 2906 -1331 
L 2906 525 
z
" transform="scale(0.015625)"/>
        <path id="DejaVuSans-63" d="M 3122 3366 
L 3122 2828 
Q 2878 2963 2633 3030 
Q 2388 3097 2138 3097 
Q 1578 3097 1268 2742 
Q 959 2388 959 1747 
Q 959 1106 1268 751 
Q 1578 397 2138 397 
Q 2388 397 2633 464 
Q 2878 531 3122 666 
L 3122 134 
Q 2881 22 2623 -34 
Q 2366 -91 2075 -91 
Q 1284 -91 818 406 
Q 353 903 353 1747 
Q 353 2603 823 3093 
Q 1294 3584 2113 3584 
Q 2378 3584 2631 3529 
Q 2884 3475 3122 3366 
z
" transform="scale(0.015625)"/>
        <path id="DejaVuSans-38" d="M 2034 2216 
Q 1584 2216 1326 1975 
Q 1069 1734 1069 1313 
Q 1069 891 1326 650 
Q 1584 409 2034 409 
Q 2484 409 2743 651 
Q 3003 894 3003 1313 
Q 3003 1734 2745 1975 
Q 2488 2216 2034 2216 
z
M 1403 2484 
Q 997 2584 770 2862 
Q 544 3141 544 3541 
Q 544 4100 942 4425 
Q 1341 4750 2034 4750 
Q 2731 4750 3128 4425 
Q 3525 4100 3525 3541 
Q 3525 3141 3298 2862 
Q 3072 2584 2669 2484 
Q 3125 2378 3379 2068 
Q 3634 1759 3634 1313 
Q 3634 634 3220 271 
Q 2806 -91 2034 -91 
Q 1263 -91 848 271 
Q 434 634 434 1313 
Q 434 1759 690 2068 
Q 947 2378 1403 2484 
z
M 1172 3481 
Q 1172 3119 1398 2916 
Q 1625 2713 2034 2713 
Q 2441 2713 2670 2916 
Q 2900 3119 2900 3481 
Q 2900 3844 2670 4047 
Q 2441 4250 2034 4250 
Q 1625 4250 1398 4047 
Q 1172 3844 1172 3481 
z
" transform="scale(0.015625)"/>
       </defs>
       <use xlink:href="#DejaVuSans-68"/>
       <use xlink:href="#DejaVuSans-71" x="63.378906"/>
       <use xlink:href="#DejaVuSans-63" x="126.855469"/>
       <use xlink:href="#DejaVuSans-31" x="181.835938"/>
       <use xlink:href="#DejaVuSans-32" x="245.458984"/>
       <use xlink:href="#DejaVuSans-38" x="309.082031"/>
      </g>
     </g>
    </g>
    <g id="xtick_4">
     <g id="text_4">
      <!-- p256_hqc128 -->
      <g style="fill: #262626" transform="translate(534.010834 412.753193) rotate(-15) scale(0.12 -0.12)">
       <defs>
        <path id="DejaVuSans-70" d="M 1159 525 
L 1159 -1331 
L 581 -1331 
L 581 3500 
L 1159 3500 
L 1159 2969 
Q 1341 3281 1617 3432 
Q 1894 3584 2278 3584 
Q 2916 3584 3314 3078 
Q 3713 2572 3713 1747 
Q 3713 922 3314 415 
Q 2916 -91 2278 -91 
Q 1894 -91 1617 61 
Q 1341 213 1159 525 
z
M 3116 1747 
Q 3116 2381 2855 2742 
Q 2594 3103 2138 3103 
Q 1681 3103 1420 2742 
Q 1159 2381 1159 1747 
Q 1159 1113 1420 752 
Q 1681 391 2138 391 
Q 2594 391 2855 752 
Q 3116 1113 3116 1747 
z
" transform="scale(0.015625)"/>
        <path id="DejaVuSans-5f" d="M 3263 -1063 
L 3263 -1509 
L -63 -1509 
L -63 -1063 
L 3263 -1063 
z
" transform="scale(0.015625)"/>
       </defs>
       <use xlink:href="#DejaVuSans-70"/>
       <use xlink:href="#DejaVuSans-32" x="63.476562"/>
       <use xlink:href="#DejaVuSans-35" x="127.099609"/>
       <use xlink:href="#DejaVuSans-36" x="190.722656"/>
       <use xlink:href="#DejaVuSans-5f" x="254.345703"/>
       <use xlink:href="#DejaVuSans-68" x="304.345703"/>
       <use xlink:href="#DejaVuSans-71" x="367.724609"/>
       <use xlink:href="#DejaVuSans-63" x="431.201172"/>
       <use xlink:href="#DejaVuSans-31" x="486.181641"/>
       <use xlink:href="#DejaVuSans-32" x="549.804688"/>
       <use xlink:href="#DejaVuSans-38" x="613.427734"/>
      </g>
     </g>
    </g>
    <g id="xtick_5">
     <g id="text_5">
      <!-- x25519_hqc128 -->
      <g style="fill: #262626" transform="translate(678.303202 416.571906) rotate(-15) scale(0.12 -0.12)">
       <use xlink:href="#DejaVuSans-78"/>
       <use xlink:href="#DejaVuSans-32" x="59.179688"/>
       <use xlink:href="#DejaVuSans-35" x="122.802734"/>
       <use xlink:href="#DejaVuSans-35" x="186.425781"/>
       <use xlink:href="#DejaVuSans-31" x="250.048828"/>
       <use xlink:href="#DejaVuSans-39" x="313.671875"/>
       <use xlink:href="#DejaVuSans-5f" x="377.294922"/>
       <use xlink:href="#DejaVuSans-68" x="427.294922"/>
       <use xlink:href="#DejaVuSans-71" x="490.673828"/>
       <use xlink:href="#DejaVuSans-63" x="554.150391"/>
       <use xlink:href="#DejaVuSans-31" x="609.130859"/>
       <use xlink:href="#DejaVuSans-32" x="672.753906"/>
       <use xlink:href="#DejaVuSans-38" x="736.376953"/>
      </g>
     </g>
    </g>
   </g>
   <g id="matplotlib.axis_2">
    <g id="ytick_1">
     <g id="line2d_1">
      <path d="M 58.32 370.704551 
L 851.04 370.704551 
" clip-path="url(#p9d1f512453)" style="fill: none; stroke: #cccccc; stroke-linecap: round"/>
     </g>
     <g id="text_6">
      <!-- 800 -->
      <g style="fill: #262626" transform="translate(27.82375 374.883691) scale(0.11 -0.11)">
       <defs>
        <path id="DejaVuSans-30" d="M 2034 4250 
Q 1547 4250 1301 3770 
Q 1056 3291 1056 2328 
Q 1056 1369 1301 889 
Q 1547 409 2034 409 
Q 2525 409 2770 889 
Q 3016 1369 3016 2328 
Q 3016 3291 2770 3770 
Q 2525 4250 2034 4250 
z
M 2034 4750 
Q 2819 4750 3233 4129 
Q 3647 3509 3647 2328 
Q 3647 1150 3233 529 
Q 2819 -91 2034 -91 
Q 1250 -91 836 529 
Q 422 1150 422 2328 
Q 422 3509 836 4129 
Q 1250 4750 2034 4750 
z
" transform="scale(0.015625)"/>
       </defs>
       <use xlink:href="#DejaVuSans-38"/>
       <use xlink:href="#DejaVuSans-30" x="63.623047"/>
       <use xlink:href="#DejaVuSans-30" x="127.246094"/>
      </g>
     </g>
    </g>
    <g id="ytick_2">
     <g id="line2d_2">
      <path d="M 58.32 308.159667 
L 851.04 308.159667 
" clip-path="url(#p9d1f512453)" style="fill: none; stroke: #cccccc; stroke-linecap: round"/>
     </g>
     <g id="text_7">
      <!-- 810 -->
      <g style="fill: #262626" transform="translate(27.82375 312.338808) scale(0.11 -0.11)">
       <use xlink:href="#DejaVuSans-38"/>
       <use xlink:href="#DejaVuSans-31" x="63.623047"/>
       <use xlink:href="#DejaVuSans-30" x="127.246094"/>
      </g>
     </g>
    </g>
    <g id="ytick_3">
     <g id="line2d_3">
      <path d="M 58.32 245.614783 
L 851.04 245.614783 
" clip-path="url(#p9d1f512453)" style="fill: none; stroke: #cccccc; stroke-linecap: round"/>
     </g>
     <g id="text_8">
      <!-- 820 -->
      <g style="fill: #262626" transform="translate(27.82375 249.793924) scale(0.11 -0.11)">
       <use xlink:href="#DejaVuSans-38"/>
       <use xlink:href="#DejaVuSans-32" x="63.623047"/>
       <use xlink:href="#DejaVuSans-30" x="127.246094"/>
      </g>
     </g>
    </g>
    <g id="ytick_4">
     <g id="line2d_4">
      <path d="M 58.32 183.069899 
L 851.04 183.069899 
" clip-path="url(#p9d1f512453)" style="fill: none; stroke: #cccccc; stroke-linecap: round"/>
     </g>
     <g id="text_9">
      <!-- 830 -->
      <g style="fill: #262626" transform="translate(27.82375 187.24904) scale(0.11 -0.11)">
       <defs>
        <path id="DejaVuSans-33" d="M 2597 2516 
Q 3050 2419 3304 2112 
Q 3559 1806 3559 1356 
Q 3559 666 3084 287 
Q 2609 -91 1734 -91 
Q 1441 -91 1130 -33 
Q 819 25 488 141 
L 488 750 
Q 750 597 1062 519 
Q 1375 441 1716 441 
Q 2309 441 2620 675 
Q 2931 909 2931 1356 
Q 2931 1769 2642 2001 
Q 2353 2234 1838 2234 
L 1294 2234 
L 1294 2753 
L 1863 2753 
Q 2328 2753 2575 2939 
Q 2822 3125 2822 3475 
Q 2822 3834 2567 4026 
Q 2313 4219 1838 4219 
Q 1578 4219 1281 4162 
Q 984 4106 628 3988 
L 628 4550 
Q 988 4650 1302 4700 
Q 1616 4750 1894 4750 
Q 2613 4750 3031 4423 
Q 3450 4097 3450 3541 
Q 3450 3153 3228 2886 
Q 3006 2619 2597 2516 
z
" transform="scale(0.015625)"/>
       </defs>
       <use xlink:href="#DejaVuSans-38"/>
       <use xlink:href="#DejaVuSans-33" x="63.623047"/>
       <use xlink:href="#DejaVuSans-30" x="127.246094"/>
      </g>
     </g>
    </g>
    <g id="ytick_5">
     <g id="line2d_5">
      <path d="M 58.32 120.525016 
L 851.04 120.525016 
" clip-path="url(#p9d1f512453)" style="fill: none; stroke: #cccccc; stroke-linecap: round"/>
     </g>
     <g id="text_10">
      <!-- 840 -->
      <g style="fill: #262626" transform="translate(27.82375 124.704156) scale(0.11 -0.11)">
       <defs>
        <path id="DejaVuSans-34" d="M 2419 4116 
L 825 1625 
L 2419 1625 
L 2419 4116 
z
M 2253 4666 
L 3047 4666 
L 3047 1625 
L 3713 1625 
L 3713 1100 
L 3047 1100 
L 3047 0 
L 2419 0 
L 2419 1100 
L 313 1100 
L 313 1709 
L 2253 4666 
z
" transform="scale(0.015625)"/>
       </defs>
       <use xlink:href="#DejaVuSans-38"/>
       <use xlink:href="#DejaVuSans-34" x="63.623047"/>
       <use xlink:href="#DejaVuSans-30" x="127.246094"/>
      </g>
     </g>
    </g>
    <g id="ytick_6">
     <g id="line2d_6">
      <path d="M 58.32 57.980132 
L 851.04 57.980132 
" clip-path="url(#p9d1f512453)" style="fill: none; stroke: #cccccc; stroke-linecap: round"/>
     </g>
     <g id="text_11">
      <!-- 850 -->
      <g style="fill: #262626" transform="translate(27.82375 62.159273) scale(0.11 -0.11)">
       <use xlink:href="#DejaVuSans-38"/>
       <use xlink:href="#DejaVuSans-35" x="63.623047"/>
       <use xlink:href="#DejaVuSans-30" x="127.246094"/>
      </g>
     </g>
    </g>
    <g id="text_12">
     <!-- Handshake duration (ms) -->
     <g style="fill: #262626" transform="translate(21.328125 276.57625) rotate(-90) scale(0.12 -0.12)">
      <defs>
       <path id="DejaVuSans-48" d="M 628 4666 
L 1259 4666 
L 1259 2753 
L 3553 2753 
L 3553 4666 
L 4184 4666 
L 4184 0 
L 3553 0 
L 3553 2222 
L 1259 2222 
L 1259 0 
L 628 0 
L 628 4666 
z
" transform="scale(0.015625)"/>
       <path id="DejaVuSans-61" d="M 2194 1759 
Q 1497 1759 1228 1600 
Q 959 1441 959 1056 
Q 959 750 1161 570 
Q 1363 391 1709 391 
Q 2188 391 2477 730 
Q 2766 1069 2766 1631 
L 2766 1759 
L 2194 1759 
z
M 3341 1997 
L 3341 0 
L 2766 0 
L 2766 531 
Q 2569 213 2275 61 
Q 1981 -91 1556 -91 
Q 1019 -91 701 211 
Q 384 513 384 1019 
Q 384 1609 779 1909 
Q 1175 2209 1959 2209 
L 2766 2209 
L 2766 2266 
Q 2766 2663 2505 2880 
Q 2244 3097 1772 3097 
Q 1472 3097 1187 3025 
Q 903 2953 641 2809 
L 641 3341 
Q 956 3463 1253 3523 
Q 1550 3584 1831 3584 
Q 2591 3584 2966 3190 
Q 3341 2797 3341 1997 
z
" transform="scale(0.015625)"/>
       <path id="DejaVuSans-6e" d="M 3513 2113 
L 3513 0 
L 2938 0 
L 2938 2094 
Q 2938 2591 2744 2837 
Q 2550 3084 2163 3084 
Q 1697 3084 1428 2787 
Q 1159 2491 1159 1978 
L 1159 0 
L 581 0 
L 581 3500 
L 1159 3500 
L 1159 2956 
Q 1366 3272 1645 3428 
Q 1925 3584 2291 3584 
Q 2894 3584 3203 3211 
Q 3513 2838 3513 2113 
z
" transform="scale(0.015625)"/>
       <path id="DejaVuSans-64" d="M 2906 2969 
L 2906 4863 
L 3481 4863 
L 3481 0 
L 2906 0 
L 2906 525 
Q 2725 213 2448 61 
Q 2172 -91 1784 -91 
Q 1150 -91 751 415 
Q 353 922 353 1747 
Q 353 2572 751 3078 
Q 1150 3584 1784 3584 
Q 2172 3584 2448 3432 
Q 2725 3281 2906 2969 
z
M 947 1747 
Q 947 1113 1208 752 
Q 1469 391 1925 391 
Q 2381 391 2643 752 
Q 2906 1113 2906 1747 
Q 2906 2381 2643 2742 
Q 2381 3103 1925 3103 
Q 1469 3103 1208 2742 
Q 947 2381 947 1747 
z
" transform="scale(0.015625)"/>
       <path id="DejaVuSans-73" d="M 2834 3397 
L 2834 2853 
Q 2591 2978 2328 3040 
Q 2066 3103 1784 3103 
Q 1356 3103 1142 2972 
Q 928 2841 928 2578 
Q 928 2378 1081 2264 
Q 1234 2150 1697 2047 
L 1894 2003 
Q 2506 1872 2764 1633 
Q 3022 1394 3022 966 
Q 3022 478 2636 193 
Q 2250 -91 1575 -91 
Q 1294 -91 989 -36 
Q 684 19 347 128 
L 347 722 
Q 666 556 975 473 
Q 1284 391 1588 391 
Q 1994 391 2212 530 
Q 2431 669 2431 922 
Q 2431 1156 2273 1281 
Q 2116 1406 1581 1522 
L 1381 1569 
Q 847 1681 609 1914 
Q 372 2147 372 2553 
Q 372 3047 722 3315 
Q 1072 3584 1716 3584 
Q 2034 3584 2315 3537 
Q 2597 3491 2834 3397 
z
" transform="scale(0.015625)"/>
       <path id="DejaVuSans-6b" d="M 581 4863 
L 1159 4863 
L 1159 1991 
L 2875 3500 
L 3609 3500 
L 1753 1863 
L 3688 0 
L 2938 0 
L 1159 1709 
L 1159 0 
L 581 0 
L 581 4863 
z
" transform="scale(0.015625)"/>
       <path id="DejaVuSans-65" d="M 3597 1894 
L 3597 1613 
L 953 1613 
Q 991 1019 1311 708 
Q 1631 397 2203 397 
Q 2534 397 2845 478 
Q 3156 559 3463 722 
L 3463 178 
Q 3153 47 2828 -22 
Q 2503 -91 2169 -91 
Q 1331 -91 842 396 
Q 353 884 353 1716 
Q 353 2575 817 3079 
Q 1281 3584 2069 3584 
Q 2775 3584 3186 3129 
Q 3597 2675 3597 1894 
z
M 3022 2063 
Q 3016 2534 2758 2815 
Q 2500 3097 2075 3097 
Q 1594 3097 1305 2825 
Q 1016 2553 972 2059 
L 3022 2063 
z
" transform="scale(0.015625)"/>
       <path id="DejaVuSans-20" transform="scale(0.015625)"/>
       <path id="DejaVuSans-75" d="M 544 1381 
L 544 3500 
L 1119 3500 
L 1119 1403 
Q 1119 906 1312 657 
Q 1506 409 1894 409 
Q 2359 409 2629 706 
Q 2900 1003 2900 1516 
L 2900 3500 
L 3475 3500 
L 3475 0 
L 2900 0 
L 2900 538 
Q 2691 219 2414 64 
Q 2138 -91 1772 -91 
Q 1169 -91 856 284 
Q 544 659 544 1381 
z
M 1991 3584 
L 1991 3584 
z
" transform="scale(0.015625)"/>
       <path id="DejaVuSans-72" d="M 2631 2963 
Q 2534 3019 2420 3045 
Q 2306 3072 2169 3072 
Q 1681 3072 1420 2755 
Q 1159 2438 1159 1844 
L 1159 0 
L 581 0 
L 581 3500 
L 1159 3500 
L 1159 2956 
Q 1341 3275 1631 3429 
Q 1922 3584 2338 3584 
Q 2397 3584 2469 3576 
Q 2541 3569 2628 3553 
L 2631 2963 
z
" transform="scale(0.015625)"/>
       <path id="DejaVuSans-74" d="M 1172 4494 
L 1172 3500 
L 2356 3500 
L 2356 3053 
L 1172 3053 
L 1172 1153 
Q 1172 725 1289 603 
Q 1406 481 1766 481 
L 2356 481 
L 2356 0 
L 1766 0 
Q 1100 0 847 248 
Q 594 497 594 1153 
L 594 3053 
L 172 3053 
L 172 3500 
L 594 3500 
L 594 4494 
L 1172 4494 
z
" transform="scale(0.015625)"/>
       <path id="DejaVuSans-69" d="M 603 3500 
L 1178 3500 
L 1178 0 
L 603 0 
L 603 3500 
z
M 603 4863 
L 1178 4863 
L 1178 4134 
L 603 4134 
L 603 4863 
z
" transform="scale(0.015625)"/>
       <path id="DejaVuSans-6f" d="M 1959 3097 
Q 1497 3097 1228 2736 
Q 959 2375 959 1747 
Q 959 1119 1226 758 
Q 1494 397 1959 397 
Q 2419 397 2687 759 
Q 2956 1122 2956 1747 
Q 2956 2369 2687 2733 
Q 2419 3097 1959 3097 
z
M 1959 3584 
Q 2709 3584 3137 3096 
Q 3566 2609 3566 1747 
Q 3566 888 3137 398 
Q 2709 -91 1959 -91 
Q 1206 -91 779 398 
Q 353 888 353 1747 
Q 353 2609 779 3096 
Q 1206 3584 1959 3584 
z
" transform="scale(0.015625)"/>
       <path id="DejaVuSans-28" d="M 1984 4856 
Q 1566 4138 1362 3434 
Q 1159 2731 1159 2009 
Q 1159 1288 1364 580 
Q 1569 -128 1984 -844 
L 1484 -844 
Q 1016 -109 783 600 
Q 550 1309 550 2009 
Q 550 2706 781 3412 
Q 1013 4119 1484 4856 
L 1984 4856 
z
" transform="scale(0.015625)"/>
       <path id="DejaVuSans-6d" d="M 3328 2828 
Q 3544 3216 3844 3400 
Q 4144 3584 4550 3584 
Q 5097 3584 5394 3201 
Q 5691 2819 5691 2113 
L 5691 0 
L 5113 0 
L 5113 2094 
Q 5113 2597 4934 2840 
Q 4756 3084 4391 3084 
Q 3944 3084 3684 2787 
Q 3425 2491 3425 1978 
L 3425 0 
L 2847 0 
L 2847 2094 
Q 2847 2600 2669 2842 
Q 2491 3084 2119 3084 
Q 1678 3084 1418 2786 
Q 1159 2488 1159 1978 
L 1159 0 
L 581 0 
L 581 3500 
L 1159 3500 
L 1159 2956 
Q 1356 3278 1631 3431 
Q 1906 3584 2284 3584 
Q 2666 3584 2933 3390 
Q 3200 3197 3328 2828 
z
" transform="scale(0.015625)"/>
       <path id="DejaVuSans-29" d="M 513 4856 
L 1013 4856 
Q 1481 4119 1714 3412 
Q 1947 2706 1947 2009 
Q 1947 1309 1714 600 
Q 1481 -109 1013 -844 
L 513 -844 
Q 928 -128 1133 580 
Q 1338 1288 1338 2009 
Q 1338 2731 1133 3434 
Q 928 4138 513 4856 
z
" transform="scale(0.015625)"/>
      </defs>
      <use xlink:href="#DejaVuSans-48"/>
      <use xlink:href="#DejaVuSans-61" x="75.195312"/>
      <use xlink:href="#DejaVuSans-6e" x="136.474609"/>
      <use xlink:href="#DejaVuSans-64" x="199.853516"/>
      <use xlink:href="#DejaVuSans-73" x="263.330078"/>
      <use xlink:href="#DejaVuSans-68" x="315.429688"/>
      <use xlink:href="#DejaVuSans-61" x="378.808594"/>
      <use xlink:href="#DejaVuSans-6b" x="440.087891"/>
      <use xlink:href="#DejaVuSans-65" x="494.373047"/>
      <use xlink:href="#DejaVuSans-20" x="555.896484"/>
      <use xlink:href="#DejaVuSans-64" x="587.683594"/>
      <use xlink:href="#DejaVuSans-75" x="651.160156"/>
      <use xlink:href="#DejaVuSans-72" x="714.539062"/>
      <use xlink:href="#DejaVuSans-61" x="755.652344"/>
      <use xlink:href="#DejaVuSans-74" x="816.931641"/>
      <use xlink:href="#DejaVuSans-69" x="856.140625"/>
      <use xlink:href="#DejaVuSans-6f" x="883.923828"/>
      <use xlink:href="#DejaVuSans-6e" x="945.105469"/>
      <use xlink:href="#DejaVuSans-20" x="1008.484375"/>
      <use xlink:href="#DejaVuSans-28" x="1040.271484"/>
      <use xlink:href="#DejaVuSans-6d" x="1079.285156"/>
      <use xlink:href="#DejaVuSans-73" x="1176.697266"/>
      <use xlink:href="#DejaVuSans-29" x="1228.796875"/>
     </g>
    </g>
   </g>
   <g id="PolyCollection_1">
    <defs>
     <path id="m7064e0513b" d="M 137.910367 -74.302074 
L 137.273633 -74.302074 
L 136.977563 -74.559889 
L 136.484915 -74.817705 
L 135.727327 -75.07552 
L 134.651806 -75.333336 
L 133.244718 -75.591151 
L 131.553124 -75.848967 
L 129.693091 -76.106782 
L 127.836862 -76.364598 
L 126.178378 -76.622413 
L 124.886444 -76.880229 
L 124.061773 -77.138044 
L 123.713805 -77.39586 
L 123.764784 -77.653676 
L 124.076065 -77.911491 
L 124.481436 -78.169307 
L 124.809926 -78.427122 
L 124.887665 -78.684938 
L 124.5218 -78.942753 
L 123.483039 -79.200569 
L 121.509833 -79.458384 
L 118.351398 -79.7162 
L 113.848719 -79.974015 
L 108.029455 -80.231831 
L 101.176878 -80.489646 
L 93.835569 -80.747462 
L 86.739081 -81.005277 
L 80.676127 -81.263093 
L 76.335479 -81.520908 
L 74.1744 -81.778724 
L 74.342325 -82.036539 
L 76.670969 -82.294355 
L 80.724543 -82.55217 
L 85.893175 -82.809986 
L 91.507689 -83.067801 
L 96.952681 -83.325617 
L 101.757241 -83.583432 
L 105.649005 -83.841248 
L 108.56597 -84.099063 
L 110.628856 -84.356879 
L 112.083203 -84.614694 
L 113.22486 -84.87251 
L 114.325602 -85.130325 
L 115.576191 -85.388141 
L 117.060098 -85.645956 
L 118.761657 -85.903772 
L 120.600568 -86.161587 
L 122.475859 -86.419403 
L 124.301464 -86.677218 
L 126.022578 -86.935034 
L 127.612888 -87.192849 
L 129.061371 -87.450665 
L 130.359694 -87.70848 
L 131.497365 -87.966296 
L 132.465034 -88.224111 
L 133.26106 -88.481927 
L 133.895472 -88.739742 
L 134.388392 -88.997558 
L 134.764425 -89.255373 
L 135.047017 -89.513189 
L 135.256004 -89.771004 
L 135.408555 -90.02882 
L 135.521143 -90.286635 
L 135.610082 -90.544451 
L 135.690131 -90.802266 
L 135.772701 -91.060082 
L 135.865459 -91.317897 
L 135.973559 -91.575713 
L 136.101071 -91.833528 
L 136.250943 -92.091344 
L 136.423237 -92.349159 
L 136.613029 -92.606975 
L 136.80988 -92.86479 
L 136.999785 -93.122606 
L 137.168818 -93.380421 
L 137.306651 -93.638237 
L 137.408355 -93.896052 
L 137.473971 -94.153868 
L 137.506589 -94.411683 
L 137.510259 -94.669499 
L 137.488884 -94.927314 
L 137.446438 -95.18513 
L 137.388022 -95.442945 
L 137.320678 -95.700761 
L 137.252993 -95.958576 
L 137.193317 -96.216392 
L 137.147442 -96.474207 
L 137.117221 -96.732023 
L 137.101154 -96.989838 
L 137.096711 -97.247654 
L 137.102846 -97.505469 
L 137.120961 -97.763285 
L 137.153621 -98.0211 
L 137.201963 -98.278916 
L 137.263606 -98.536731 
L 137.332487 -98.794547 
L 137.400657 -99.052362 
L 137.460904 -99.310178 
L 137.50876 -99.567993 
L 137.5431 -99.825809 
L 137.6409 -99.825809 
L 137.6409 -99.825809 
L 137.67524 -99.567993 
L 137.723096 -99.310178 
L 137.783343 -99.052362 
L 137.851513 -98.794547 
L 137.920394 -98.536731 
L 137.982037 -98.278916 
L 138.030379 -98.0211 
L 138.063039 -97.763285 
L 138.081154 -97.505469 
L 138.087289 -97.247654 
L 138.082846 -96.989838 
L 138.066779 -96.732023 
L 138.036558 -96.474207 
L 137.990683 -96.216392 
L 137.931007 -95.958576 
L 137.863322 -95.700761 
L 137.795978 -95.442945 
L 137.737562 -95.18513 
L 137.695116 -94.927314 
L 137.673741 -94.669499 
L 137.677411 -94.411683 
L 137.710029 -94.153868 
L 137.775645 -93.896052 
L 137.877349 -93.638237 
L 138.015182 -93.380421 
L 138.184215 -93.122606 
L 138.37412 -92.86479 
L 138.570971 -92.606975 
L 138.760763 -92.349159 
L 138.933057 -92.091344 
L 139.082929 -91.833528 
L 139.210441 -91.575713 
L 139.318541 -91.317897 
L 139.411299 -91.060082 
L 139.493869 -90.802266 
L 139.573918 -90.544451 
L 139.662857 -90.286635 
L 139.775445 -90.02882 
L 139.927996 -89.771004 
L 140.136983 -89.513189 
L 140.419575 -89.255373 
L 140.795608 -88.997558 
L 141.288528 -88.739742 
L 141.92294 -88.481927 
L 142.718966 -88.224111 
L 143.686635 -87.966296 
L 144.824306 -87.70848 
L 146.122629 -87.450665 
L 147.571112 -87.192849 
L 149.161422 -86.935034 
L 150.882536 -86.677218 
L 152.708141 -86.419403 
L 154.583432 -86.161587 
L 156.422343 -85.903772 
L 158.123902 -85.645956 
L 159.607809 -85.388141 
L 160.858398 -85.130325 
L 161.95914 -84.87251 
L 163.100797 -84.614694 
L 164.555144 -84.356879 
L 166.61803 -84.099063 
L 169.534995 -83.841248 
L 173.426759 -83.583432 
L 178.231319 -83.325617 
L 183.676311 -83.067801 
L 189.290825 -82.809986 
L 194.459457 -82.55217 
L 198.513031 -82.294355 
L 200.841675 -82.036539 
L 201.0096 -81.778724 
L 198.848521 -81.520908 
L 194.507873 -81.263093 
L 188.444919 -81.005277 
L 181.348431 -80.747462 
L 174.007122 -80.489646 
L 167.154545 -80.231831 
L 161.335281 -79.974015 
L 156.832602 -79.7162 
L 153.674167 -79.458384 
L 151.700961 -79.200569 
L 150.6622 -78.942753 
L 150.296335 -78.684938 
L 150.374074 -78.427122 
L 150.702564 -78.169307 
L 151.107935 -77.911491 
L 151.419216 -77.653676 
L 151.470195 -77.39586 
L 151.122227 -77.138044 
L 150.297556 -76.880229 
L 149.005622 -76.622413 
L 147.347138 -76.364598 
L 145.490909 -76.106782 
L 143.630876 -75.848967 
L 141.939282 -75.591151 
L 140.532194 -75.333336 
L 139.456673 -75.07552 
L 138.699085 -74.817705 
L 138.206437 -74.559889 
L 137.910367 -74.302074 
z
" style="stroke: #595959; stroke-width: 1.25"/>
    </defs>
    <g clip-path="url(#p9d1f512453)">
     <use xlink:href="#m7064e0513b" x="0" y="432" style="fill: #72b6a1; stroke: #595959; stroke-width: 1.25"/>
    </g>
   </g>
   <g id="PolyCollection_2">
    <defs>
     <path id="m5775feb955" d="M 296.648648 -76.796411 
L 295.623352 -76.796411 
L 295.03192 -77.034161 
L 293.926682 -77.27191 
L 292.023287 -77.50966 
L 289.003746 -77.74741 
L 284.594066 -77.985159 
L 278.671711 -78.222909 
L 271.368218 -78.460658 
L 263.118994 -78.698408 
L 254.623056 -78.936158 
L 246.711052 -79.173907 
L 240.162655 -79.411657 
L 235.538574 -79.649407 
L 233.083137 -79.887156 
L 232.7184 -80.124906 
L 234.113 -80.362656 
L 236.78867 -80.600405 
L 240.228457 -80.838155 
L 243.963954 -81.075905 
L 247.632707 -81.313654 
L 251.005339 -81.551404 
L 253.985268 -81.789154 
L 256.584997 -82.026903 
L 258.885213 -82.264653 
L 260.987272 -82.502403 
L 262.973436 -82.740152 
L 264.887254 -82.977902 
L 266.736956 -83.215652 
L 268.51317 -83.453401 
L 270.207803 -83.691151 
L 271.826183 -83.9289 
L 273.392566 -84.16665 
L 274.951071 -84.4044 
L 276.560058 -84.642149 
L 278.276137 -84.879899 
L 280.129965 -85.117649 
L 282.104789 -85.355398 
L 284.13088 -85.593148 
L 286.101194 -85.830898 
L 287.901938 -86.068647 
L 289.444653 -86.306397 
L 290.687386 -86.544147 
L 291.638888 -86.781896 
L 292.347395 -87.019646 
L 292.881018 -87.257396 
L 293.308184 -87.495145 
L 293.683949 -87.732895 
L 294.043612 -87.970645 
L 294.401924 -88.208394 
L 294.755891 -88.446144 
L 295.090115 -88.683893 
L 295.383872 -88.921643 
L 295.618241 -89.159393 
L 295.781091 -89.397142 
L 295.868748 -89.634892 
L 295.885124 -89.872642 
L 295.840239 -90.110391 
L 295.749461 -90.348141 
L 295.633081 -90.585891 
L 295.514545 -90.82364 
L 295.416216 -91.06139 
L 295.353459 -91.29914 
L 295.329825 -91.536889 
L 295.336316 -91.774639 
L 295.355747 -92.012389 
L 295.37025 -92.250138 
L 295.368194 -92.487888 
L 295.347391 -92.725638 
L 295.313942 -92.963387 
L 295.278413 -93.201137 
L 295.251724 -93.438887 
L 295.242156 -93.676636 
L 295.25367 -93.914386 
L 295.285341 -94.152135 
L 295.332105 -94.389885 
L 295.387036 -94.627635 
L 295.444615 -94.865384 
L 295.503318 -95.103134 
L 295.565745 -95.340884 
L 295.635945 -95.578633 
L 295.715563 -95.816383 
L 295.801371 -96.054133 
L 295.885646 -96.291882 
L 295.958846 -96.529632 
L 296.012635 -96.767382 
L 296.041594 -97.005131 
L 296.043437 -97.242881 
L 296.018737 -97.480631 
L 295.97122 -97.71838 
L 295.908633 -97.95613 
L 295.843028 -98.19388 
L 295.789106 -98.431629 
L 295.760367 -98.669379 
L 295.764527 -98.907129 
L 295.800637 -99.144878 
L 295.859638 -99.382628 
L 295.928125 -99.620377 
L 295.993281 -99.858127 
L 296.046563 -100.095877 
L 296.084843 -100.333626 
L 296.187157 -100.333626 
L 296.187157 -100.333626 
L 296.225437 -100.095877 
L 296.278719 -99.858127 
L 296.343875 -99.620377 
L 296.412362 -99.382628 
L 296.471363 -99.144878 
L 296.507473 -98.907129 
L 296.511633 -98.669379 
L 296.482894 -98.431629 
L 296.428972 -98.19388 
L 296.363367 -97.95613 
L 296.30078 -97.71838 
L 296.253263 -97.480631 
L 296.228563 -97.242881 
L 296.230406 -97.005131 
L 296.259365 -96.767382 
L 296.313154 -96.529632 
L 296.386354 -96.291882 
L 296.470629 -96.054133 
L 296.556437 -95.816383 
L 296.636055 -95.578633 
L 296.706255 -95.340884 
L 296.768682 -95.103134 
L 296.827385 -94.865384 
L 296.884964 -94.627635 
L 296.939895 -94.389885 
L 296.986659 -94.152135 
L 297.01833 -93.914386 
L 297.029844 -93.676636 
L 297.020276 -93.438887 
L 296.993587 -93.201137 
L 296.958058 -92.963387 
L 296.924609 -92.725638 
L 296.903806 -92.487888 
L 296.90175 -92.250138 
L 296.916253 -92.012389 
L 296.935684 -91.774639 
L 296.942175 -91.536889 
L 296.918541 -91.29914 
L 296.855784 -91.06139 
L 296.757455 -90.82364 
L 296.638919 -90.585891 
L 296.522539 -90.348141 
L 296.431761 -90.110391 
L 296.386876 -89.872642 
L 296.403252 -89.634892 
L 296.490909 -89.397142 
L 296.653759 -89.159393 
L 296.888128 -88.921643 
L 297.181885 -88.683893 
L 297.516109 -88.446144 
L 297.870076 -88.208394 
L 298.228388 -87.970645 
L 298.588051 -87.732895 
L 298.963816 -87.495145 
L 299.390982 -87.257396 
L 299.924605 -87.019646 
L 300.633112 -86.781896 
L 301.584614 -86.544147 
L 302.827347 -86.306397 
L 304.370062 -86.068647 
L 306.170806 -85.830898 
L 308.14112 -85.593148 
L 310.167211 -85.355398 
L 312.142035 -85.117649 
L 313.995863 -84.879899 
L 315.711942 -84.642149 
L 317.320929 -84.4044 
L 318.879434 -84.16665 
L 320.445817 -83.9289 
L 322.064197 -83.691151 
L 323.75883 -83.453401 
L 325.535044 -83.215652 
L 327.384746 -82.977902 
L 329.298564 -82.740152 
L 331.284728 -82.502403 
L 333.386787 -82.264653 
L 335.687003 -82.026903 
L 338.286732 -81.789154 
L 341.266661 -81.551404 
L 344.639293 -81.313654 
L 348.308046 -81.075905 
L 352.043543 -80.838155 
L 355.48333 -80.600405 
L 358.159 -80.362656 
L 359.5536 -80.124906 
L 359.188863 -79.887156 
L 356.733426 -79.649407 
L 352.109345 -79.411657 
L 345.560948 -79.173907 
L 337.648944 -78.936158 
L 329.153006 -78.698408 
L 320.903782 -78.460658 
L 313.600289 -78.222909 
L 307.677934 -77.985159 
L 303.268254 -77.74741 
L 300.248713 -77.50966 
L 298.345318 -77.27191 
L 297.24008 -77.034161 
L 296.648648 -76.796411 
z
" style="stroke: #595959; stroke-width: 1.25"/>
    </defs>
    <g clip-path="url(#p9d1f512453)">
     <use xlink:href="#m5775feb955" x="0" y="432" style="fill: #e99675; stroke: #595959; stroke-width: 1.25"/>
    </g>
   </g>
   <g id="PolyCollection_3">
    <defs>
     <path id="mec81bfc561" d="M 458.172245 -184.435463 
L 451.187755 -184.435463 
L 449.182995 -186.20147 
L 446.359963 -187.967476 
L 442.569671 -189.733483 
L 437.725668 -191.49949 
L 431.8465 -193.265497 
L 425.091871 -195.031504 
L 417.780698 -196.797511 
L 410.38066 -198.563517 
L 403.464273 -200.329524 
L 397.63503 -202.095531 
L 393.436299 -203.861538 
L 391.2624 -205.627545 
L 391.292628 -207.393551 
L 393.464183 -209.159558 
L 397.490027 -210.925565 
L 402.916035 -212.691572 
L 409.202139 -214.457579 
L 415.807654 -216.223586 
L 422.262455 -217.989592 
L 428.212056 -219.755599 
L 433.433177 -221.521606 
L 437.824048 -223.287613 
L 441.378477 -225.05362 
L 444.153829 -226.819626 
L 446.241248 -228.585633 
L 447.743015 -230.35164 
L 448.758466 -232.117647 
L 449.377234 -233.883654 
L 449.67732 -235.649661 
L 449.72539 -237.415667 
L 449.577436 -239.181674 
L 449.278991 -240.947681 
L 448.865089 -242.713688 
L 448.360798 -244.479695 
L 447.783223 -246.245702 
L 447.145493 -248.011708 
L 446.462361 -249.777715 
L 445.756183 -251.543722 
L 445.061415 -253.309729 
L 444.425775 -255.075736 
L 443.906937 -256.841742 
L 443.564931 -258.607749 
L 443.451855 -260.373756 
L 443.601497 -262.139763 
L 444.021725 -263.90577 
L 444.691752 -265.671777 
L 445.56499 -267.437783 
L 446.57662 -269.20379 
L 447.653796 -270.969797 
L 448.725921 -272.735804 
L 449.732793 -274.501811 
L 450.629316 -276.267817 
L 451.38664 -278.033824 
L 451.990475 -279.799831 
L 452.437858 -281.565838 
L 452.733697 -283.331845 
L 452.88807 -285.097852 
L 452.914752 -286.863858 
L 452.83091 -288.629865 
L 452.657485 -290.395872 
L 452.419579 -292.161879 
L 452.146155 -293.927886 
L 451.868621 -295.693893 
L 451.618249 -297.459899 
L 451.422814 -299.225906 
L 451.303175 -300.991913 
L 451.270643 -302.75792 
L 451.325837 -304.523927 
L 451.45934 -306.289933 
L 451.654027 -308.05594 
L 451.888483 -309.821947 
L 452.14072 -311.587954 
L 452.391419 -313.353961 
L 452.62612 -315.119968 
L 452.836131 -316.885974 
L 453.018255 -318.651981 
L 453.17364 -320.417988 
L 453.306201 -322.183995 
L 453.421029 -323.950002 
L 453.523092 -325.716008 
L 453.616412 -327.482015 
L 453.703743 -329.248022 
L 453.78666 -331.014029 
L 453.865903 -332.780036 
L 453.941789 -334.546043 
L 454.014548 -336.312049 
L 454.084489 -338.078056 
L 454.151984 -339.844063 
L 454.217329 -341.61007 
L 454.280563 -343.376077 
L 454.341352 -345.142084 
L 454.398974 -346.90809 
L 454.452444 -348.674097 
L 454.50071 -350.440104 
L 454.542883 -352.206111 
L 454.578424 -353.972118 
L 454.607236 -355.738124 
L 454.629667 -357.504131 
L 454.646418 -359.270138 
L 454.713582 -359.270138 
L 454.713582 -359.270138 
L 454.730333 -357.504131 
L 454.752764 -355.738124 
L 454.781576 -353.972118 
L 454.817117 -352.206111 
L 454.85929 -350.440104 
L 454.907556 -348.674097 
L 454.961026 -346.90809 
L 455.018648 -345.142084 
L 455.079437 -343.376077 
L 455.142671 -341.61007 
L 455.208016 -339.844063 
L 455.275511 -338.078056 
L 455.345452 -336.312049 
L 455.418211 -334.546043 
L 455.494097 -332.780036 
L 455.57334 -331.014029 
L 455.656257 -329.248022 
L 455.743588 -327.482015 
L 455.836908 -325.716008 
L 455.938971 -323.950002 
L 456.053799 -322.183995 
L 456.18636 -320.417988 
L 456.341745 -318.651981 
L 456.523869 -316.885974 
L 456.73388 -315.119968 
L 456.968581 -313.353961 
L 457.21928 -311.587954 
L 457.471517 -309.821947 
L 457.705973 -308.05594 
L 457.90066 -306.289933 
L 458.034163 -304.523927 
L 458.089357 -302.75792 
L 458.056825 -300.991913 
L 457.937186 -299.225906 
L 457.741751 -297.459899 
L 457.491379 -295.693893 
L 457.213845 -293.927886 
L 456.940421 -292.161879 
L 456.702515 -290.395872 
L 456.52909 -288.629865 
L 456.445248 -286.863858 
L 456.47193 -285.097852 
L 456.626303 -283.331845 
L 456.922142 -281.565838 
L 457.369525 -279.799831 
L 457.97336 -278.033824 
L 458.730684 -276.267817 
L 459.627207 -274.501811 
L 460.634079 -272.735804 
L 461.706204 -270.969797 
L 462.78338 -269.20379 
L 463.79501 -267.437783 
L 464.668248 -265.671777 
L 465.338275 -263.90577 
L 465.758503 -262.139763 
L 465.908145 -260.373756 
L 465.795069 -258.607749 
L 465.453063 -256.841742 
L 464.934225 -255.075736 
L 464.298585 -253.309729 
L 463.603817 -251.543722 
L 462.897639 -249.777715 
L 462.214507 -248.011708 
L 461.576777 -246.245702 
L 460.999202 -244.479695 
L 460.494911 -242.713688 
L 460.081009 -240.947681 
L 459.782564 -239.181674 
L 459.63461 -237.415667 
L 459.68268 -235.649661 
L 459.982766 -233.883654 
L 460.601534 -232.117647 
L 461.616985 -230.35164 
L 463.118752 -228.585633 
L 465.206171 -226.819626 
L 467.981523 -225.05362 
L 471.535952 -223.287613 
L 475.926823 -221.521606 
L 481.147944 -219.755599 
L 487.097545 -217.989592 
L 493.552346 -216.223586 
L 500.157861 -214.457579 
L 506.443965 -212.691572 
L 511.869973 -210.925565 
L 515.895817 -209.159558 
L 518.067372 -207.393551 
L 518.0976 -205.627545 
L 515.923701 -203.861538 
L 511.72497 -202.095531 
L 505.895727 -200.329524 
L 498.97934 -198.563517 
L 491.579302 -196.797511 
L 484.268129 -195.031504 
L 477.5135 -193.265497 
L 471.634332 -191.49949 
L 466.790329 -189.733483 
L 463.000037 -187.967476 
L 460.177005 -186.20147 
L 458.172245 -184.435463 
z
" style="stroke: #595959; stroke-width: 1.25"/>
    </defs>
    <g clip-path="url(#p9d1f512453)">
     <use xlink:href="#mec81bfc561" x="0" y="432" style="fill: #95a3c3; stroke: #595959; stroke-width: 1.25"/>
    </g>
   </g>
   <g id="PolyCollection_4">
    <defs>
     <path id="mef05a780ae" d="M 617.357719 -180.230138 
L 609.090281 -180.230138 
L 607.197341 -182.335703 
L 604.701347 -184.441267 
L 601.532747 -186.546832 
L 597.665618 -188.652397 
L 593.13686 -190.757962 
L 588.061122 -192.863527 
L 582.637097 -194.969091 
L 577.14155 -197.074656 
L 571.909344 -199.180221 
L 567.300483 -201.285786 
L 563.658297 -203.39135 
L 561.265372 -205.496915 
L 560.305105 -207.60248 
L 560.83615 -209.708045 
L 562.784695 -211.81361 
L 565.955912 -213.919174 
L 570.062056 -216.024739 
L 574.761422 -218.130304 
L 579.70069 -220.235869 
L 584.553147 -222.341433 
L 589.046956 -224.446998 
L 592.980257 -226.552563 
L 596.22278 -228.658128 
L 598.706172 -230.763693 
L 600.406866 -232.869257 
L 601.326075 -234.974822 
L 601.471358 -237.080387 
L 600.843469 -239.185952 
L 599.431105 -241.291516 
L 597.214735 -243.397081 
L 594.179129 -245.502646 
L 590.332528 -247.608211 
L 585.728765 -249.713776 
L 580.487463 -251.81934 
L 574.806965 -253.924905 
L 568.965297 -256.03047 
L 563.306324 -258.136035 
L 558.211122 -260.2416 
L 554.057879 -262.347164 
L 551.176574 -264.452729 
L 549.8064 -266.558294 
L 550.063869 -268.663859 
L 551.927654 -270.769423 
L 555.242895 -272.874988 
L 559.743803 -274.980553 
L 565.089888 -277.086118 
L 570.908899 -279.191683 
L 576.839002 -281.297247 
L 582.563833 -283.402812 
L 587.836273 -285.508377 
L 592.489537 -287.613942 
L 596.43658 -289.719506 
L 599.66055 -291.825071 
L 602.199776 -293.930636 
L 604.130652 -296.036201 
L 605.551156 -298.141766 
L 606.566726 -300.24733 
L 607.279408 -302.352895 
L 607.780402 -304.45846 
L 608.145747 -306.564025 
L 608.434605 -308.669589 
L 608.689565 -310.775154 
L 608.938328 -312.880719 
L 609.196211 -314.986284 
L 609.468924 -317.091849 
L 609.755192 -319.197413 
L 610.048909 -321.302978 
L 610.340664 -323.408543 
L 610.618656 -325.514108 
L 610.869171 -327.619672 
L 611.076877 -329.725237 
L 611.225256 -331.830802 
L 611.29742 -333.936367 
L 611.277496 -336.041932 
L 611.15259 -338.147496 
L 610.915167 -340.253061 
L 610.565528 -342.358626 
L 610.113919 -344.464191 
L 609.581734 -346.569756 
L 609.001357 -348.67532 
L 608.414302 -350.780885 
L 607.867668 -352.88645 
L 607.409202 -354.992015 
L 607.081678 -357.097579 
L 606.917487 -359.203144 
L 606.934411 -361.308709 
L 607.133369 -363.414274 
L 607.498579 -365.519839 
L 608.000094 -367.625403 
L 608.598197 -369.730968 
L 609.248812 -371.836533 
L 609.908953 -373.942098 
L 610.541308 -376.047662 
L 611.117356 -378.153227 
L 611.618752 -380.258792 
L 612.037095 -382.364357 
L 612.372459 -384.469922 
L 612.631207 -386.575486 
L 612.823593 -388.681051 
L 613.624407 -388.681051 
L 613.624407 -388.681051 
L 613.816793 -386.575486 
L 614.075541 -384.469922 
L 614.410905 -382.364357 
L 614.829248 -380.258792 
L 615.330644 -378.153227 
L 615.906692 -376.047662 
L 616.539047 -373.942098 
L 617.199188 -371.836533 
L 617.849803 -369.730968 
L 618.447906 -367.625403 
L 618.949421 -365.519839 
L 619.314631 -363.414274 
L 619.513589 -361.308709 
L 619.530513 -359.203144 
L 619.366322 -357.097579 
L 619.038798 -354.992015 
L 618.580332 -352.88645 
L 618.033698 -350.780885 
L 617.446643 -348.67532 
L 616.866266 -346.569756 
L 616.334081 -344.464191 
L 615.882472 -342.358626 
L 615.532833 -340.253061 
L 615.29541 -338.147496 
L 615.170504 -336.041932 
L 615.15058 -333.936367 
L 615.222744 -331.830802 
L 615.371123 -329.725237 
L 615.578829 -327.619672 
L 615.829344 -325.514108 
L 616.107336 -323.408543 
L 616.399091 -321.302978 
L 616.692808 -319.197413 
L 616.979076 -317.091849 
L 617.251789 -314.986284 
L 617.509672 -312.880719 
L 617.758435 -310.775154 
L 618.013395 -308.669589 
L 618.302253 -306.564025 
L 618.667598 -304.45846 
L 619.168592 -302.352895 
L 619.881274 -300.24733 
L 620.896844 -298.141766 
L 622.317348 -296.036201 
L 624.248224 -293.930636 
L 626.78745 -291.825071 
L 630.01142 -289.719506 
L 633.958463 -287.613942 
L 638.611727 -285.508377 
L 643.884167 -283.402812 
L 649.608998 -281.297247 
L 655.539101 -279.191683 
L 661.358112 -277.086118 
L 666.704197 -274.980553 
L 671.205105 -272.874988 
L 674.520346 -270.769423 
L 676.384131 -268.663859 
L 676.6416 -266.558294 
L 675.271426 -264.452729 
L 672.390121 -262.347164 
L 668.236878 -260.2416 
L 663.141676 -258.136035 
L 657.482703 -256.03047 
L 651.641035 -253.924905 
L 645.960537 -251.81934 
L 640.719235 -249.713776 
L 636.115472 -247.608211 
L 632.268871 -245.502646 
L 629.233265 -243.397081 
L 627.016895 -241.291516 
L 625.604531 -239.185952 
L 624.976642 -237.080387 
L 625.121925 -234.974822 
L 626.041134 -232.869257 
L 627.741828 -230.763693 
L 630.22522 -228.658128 
L 633.467743 -226.552563 
L 637.401044 -224.446998 
L 641.894853 -222.341433 
L 646.74731 -220.235869 
L 651.686578 -218.130304 
L 656.385944 -216.024739 
L 660.492088 -213.919174 
L 663.663305 -211.81361 
L 665.61185 -209.708045 
L 666.142895 -207.60248 
L 665.182628 -205.496915 
L 662.789703 -203.39135 
L 659.147517 -201.285786 
L 654.538656 -199.180221 
L 649.30645 -197.074656 
L 643.810903 -194.969091 
L 638.386878 -192.863527 
L 633.31114 -190.757962 
L 628.782382 -188.652397 
L 624.915253 -186.546832 
L 621.746653 -184.441267 
L 619.250659 -182.335703 
L 617.357719 -180.230138 
z
" style="stroke: #595959; stroke-width: 1.25"/>
    </defs>
    <g clip-path="url(#p9d1f512453)">
     <use xlink:href="#mef05a780ae" x="0" y="432" style="fill: #db96c0; stroke: #595959; stroke-width: 1.25"/>
    </g>
   </g>
   <g id="PolyCollection_5">
    <defs>
     <path id="m0700ce6f05" d="M 776.013182 -158.778931 
L 767.522818 -158.778931 
L 765.614327 -159.770657 
L 763.091752 -160.762383 
L 759.868982 -161.75411 
L 755.893604 -162.745836 
L 751.16555 -163.737562 
L 745.753894 -164.729289 
L 739.80812 -165.721015 
L 733.560258 -166.712741 
L 727.315242 -167.704468 
L 721.428689 -168.696194 
L 716.273712 -169.68792 
L 712.200839 -170.679647 
L 709.497008 -171.671373 
L 708.3504 -172.663099 
L 708.827206 -173.654826 
L 710.86443 -174.646552 
L 714.279876 -175.638278 
L 718.797281 -176.630005 
L 724.081902 -177.621731 
L 729.780266 -178.613457 
L 735.557655 -179.605184 
L 741.128019 -180.59691 
L 746.273023 -181.588636 
L 750.849328 -182.580363 
L 754.785326 -183.572089 
L 758.070052 -184.563815 
L 760.737688 -185.555542 
L 762.850965 -186.547268 
L 764.486119 -187.538994 
L 765.721109 -188.530721 
L 766.627774 -189.522447 
L 767.267851 -190.514173 
L 767.692119 -191.5059 
L 767.941704 -192.497626 
L 768.050492 -193.489352 
L 768.047699 -194.481079 
L 767.959893 -195.472805 
L 767.812005 -196.464532 
L 767.627191 -197.456258 
L 767.425632 -198.447984 
L 767.222628 -199.439711 
L 767.026497 -200.431437 
L 766.836857 -201.423163 
L 766.643894 -202.41489 
L 766.429051 -203.406616 
L 766.1674 -204.398342 
L 765.831626 -205.390069 
L 765.397243 -206.381795 
L 764.848319 -207.373521 
L 764.182791 -208.365248 
L 763.416326 -209.356974 
L 762.583807 -210.3487 
L 761.737825 -211.340427 
L 760.944064 -212.332153 
L 760.274016 -213.323879 
L 759.796063 -214.315606 
L 759.566333 -215.307332 
L 759.620902 -216.299058 
L 759.970706 -217.290785 
L 760.600047 -218.282511 
L 761.468897 -219.274237 
L 762.518488 -220.265964 
L 763.679084 -221.25769 
L 764.878518 -222.249416 
L 766.050058 -223.241143 
L 767.138451 -224.232869 
L 768.10349 -225.224595 
L 768.920959 -226.216322 
L 769.581327 -227.208048 
L 770.086852 -228.199774 
L 770.447915 -229.191501 
L 770.679367 -230.183227 
L 770.797477 -231.174953 
L 770.817868 -232.16668 
L 770.754561 -233.158406 
L 770.62003 -234.150132 
L 770.426009 -235.141859 
L 770.184673 -236.133585 
L 769.909793 -237.125311 
L 769.617493 -238.117038 
L 769.326321 -239.108764 
L 769.056513 -240.10049 
L 768.828514 -241.092217 
L 768.660985 -242.083943 
L 768.568655 -243.075669 
L 768.560462 -244.067396 
L 768.638351 -245.059122 
L 768.797002 -246.050848 
L 769.024547 -247.042575 
L 769.304163 -248.034301 
L 769.616234 -249.026027 
L 769.9407 -250.017754 
L 770.259206 -251.00948 
L 770.556746 -252.001206 
L 770.822607 -252.992933 
L 771.050616 -253.984659 
L 771.238769 -254.976385 
L 771.388433 -255.968112 
L 771.503346 -256.959838 
L 772.032654 -256.959838 
L 772.032654 -256.959838 
L 772.147567 -255.968112 
L 772.297231 -254.976385 
L 772.485384 -253.984659 
L 772.713393 -252.992933 
L 772.979254 -252.001206 
L 773.276794 -251.00948 
L 773.5953 -250.017754 
L 773.919766 -249.026027 
L 774.231837 -248.034301 
L 774.511453 -247.042575 
L 774.738998 -246.050848 
L 774.897649 -245.059122 
L 774.975538 -244.067396 
L 774.967345 -243.075669 
L 774.875015 -242.083943 
L 774.707486 -241.092217 
L 774.479487 -240.10049 
L 774.209679 -239.108764 
L 773.918507 -238.117038 
L 773.626207 -237.125311 
L 773.351327 -236.133585 
L 773.109991 -235.141859 
L 772.91597 -234.150132 
L 772.781439 -233.158406 
L 772.718132 -232.16668 
L 772.738523 -231.174953 
L 772.856633 -230.183227 
L 773.088085 -229.191501 
L 773.449148 -228.199774 
L 773.954673 -227.208048 
L 774.615041 -226.216322 
L 775.43251 -225.224595 
L 776.397549 -224.232869 
L 777.485942 -223.241143 
L 778.657482 -222.249416 
L 779.856916 -221.25769 
L 781.017512 -220.265964 
L 782.067103 -219.274237 
L 782.935953 -218.282511 
L 783.565294 -217.290785 
L 783.915098 -216.299058 
L 783.969667 -215.307332 
L 783.739937 -214.315606 
L 783.261984 -213.323879 
L 782.591936 -212.332153 
L 781.798175 -211.340427 
L 780.952193 -210.3487 
L 780.119674 -209.356974 
L 779.353209 -208.365248 
L 778.687681 -207.373521 
L 778.138757 -206.381795 
L 777.704374 -205.390069 
L 777.3686 -204.398342 
L 777.106949 -203.406616 
L 776.892106 -202.41489 
L 776.699143 -201.423163 
L 776.509503 -200.431437 
L 776.313372 -199.439711 
L 776.110368 -198.447984 
L 775.908809 -197.456258 
L 775.723995 -196.464532 
L 775.576107 -195.472805 
L 775.488301 -194.481079 
L 775.485508 -193.489352 
L 775.594296 -192.497626 
L 775.843881 -191.5059 
L 776.268149 -190.514173 
L 776.908226 -189.522447 
L 777.814891 -188.530721 
L 779.049881 -187.538994 
L 780.685035 -186.547268 
L 782.798312 -185.555542 
L 785.465948 -184.563815 
L 788.750674 -183.572089 
L 792.686672 -182.580363 
L 797.262977 -181.588636 
L 802.407981 -180.59691 
L 807.978345 -179.605184 
L 813.755734 -178.613457 
L 819.454098 -177.621731 
L 824.738719 -176.630005 
L 829.256124 -175.638278 
L 832.67157 -174.646552 
L 834.708794 -173.654826 
L 835.1856 -172.663099 
L 834.038992 -171.671373 
L 831.335161 -170.679647 
L 827.262288 -169.68792 
L 822.107311 -168.696194 
L 816.220758 -167.704468 
L 809.975742 -166.712741 
L 803.72788 -165.721015 
L 797.782106 -164.729289 
L 792.37045 -163.737562 
L 787.642396 -162.745836 
L 783.667018 -161.75411 
L 780.444248 -160.762383 
L 777.921673 -159.770657 
L 776.013182 -158.778931 
z
" style="stroke: #595959; stroke-width: 1.25"/>
    </defs>
    <g clip-path="url(#p9d1f512453)">
     <use xlink:href="#m0700ce6f05" x="0" y="432" style="fill: #a2c865; stroke: #595959; stroke-width: 1.25"/>
    </g>
   </g>
   <g id="line2d_7">
    <path d="M 137.592 350.940367 
L 137.592 355.06833 
" clip-path="url(#p9d1f512453)" style="fill: none; stroke: #000000"/>
   </g>
   <g id="line2d_8">
    <path d="M 137.592 348.188392 
L 137.592 344.06043 
" clip-path="url(#p9d1f512453)" style="fill: none; stroke: #000000"/>
   </g>
   <g id="line2d_9">
    <path d="M 131.6466 355.06833 
L 143.5374 355.06833 
" clip-path="url(#p9d1f512453)" style="fill: none; stroke: #000000; stroke-linecap: round"/>
   </g>
   <g id="line2d_10">
    <path d="M 131.6466 344.06043 
L 143.5374 344.06043 
" clip-path="url(#p9d1f512453)" style="fill: none; stroke: #000000; stroke-linecap: round"/>
   </g>
   <g id="line2d_11">
    <path d="M 296.136 352.12872 
L 296.136 353.629797 
" clip-path="url(#p9d1f512453)" style="fill: none; stroke: #000000"/>
   </g>
   <g id="line2d_12">
    <path d="M 296.136 349.189111 
L 296.136 344.936059 
" clip-path="url(#p9d1f512453)" style="fill: none; stroke: #000000"/>
   </g>
   <g id="line2d_13">
    <path d="M 290.1906 353.629797 
L 302.0814 353.629797 
" clip-path="url(#p9d1f512453)" style="fill: none; stroke: #000000; stroke-linecap: round"/>
   </g>
   <g id="line2d_14">
    <path d="M 290.1906 344.936059 
L 302.0814 344.936059 
" clip-path="url(#p9d1f512453)" style="fill: none; stroke: #000000; stroke-linecap: round"/>
   </g>
   <g id="line2d_15">
    <path d="M 454.68 227.164042 
L 454.68 230.103652 
" clip-path="url(#p9d1f512453)" style="fill: none; stroke: #000000"/>
   </g>
   <g id="line2d_16">
    <path d="M 454.68 209.104207 
L 454.68 182.632085 
" clip-path="url(#p9d1f512453)" style="fill: none; stroke: #000000"/>
   </g>
   <g id="line2d_17">
    <path d="M 448.7346 230.103652 
L 460.6254 230.103652 
" clip-path="url(#p9d1f512453)" style="fill: none; stroke: #000000; stroke-linecap: round"/>
   </g>
   <g id="line2d_18">
    <path d="M 448.7346 182.632085 
L 460.6254 182.632085 
" clip-path="url(#p9d1f512453)" style="fill: none; stroke: #000000; stroke-linecap: round"/>
   </g>
   <g id="line2d_19">
    <path d="M 613.224 224.412068 
L 613.224 227.977126 
" clip-path="url(#p9d1f512453)" style="fill: none; stroke: #000000"/>
   </g>
   <g id="line2d_20">
    <path d="M 613.224 164.040619 
L 613.224 73.553808 
" clip-path="url(#p9d1f512453)" style="fill: none; stroke: #000000"/>
   </g>
   <g id="line2d_21">
    <path d="M 607.2786 227.977126 
L 619.1694 227.977126 
" clip-path="url(#p9d1f512453)" style="fill: none; stroke: #000000; stroke-linecap: round"/>
   </g>
   <g id="line2d_22">
    <path d="M 607.2786 73.553808 
L 619.1694 73.553808 
" clip-path="url(#p9d1f512453)" style="fill: none; stroke: #000000; stroke-linecap: round"/>
   </g>
   <g id="line2d_23">
    <path d="M 771.768 260.000106 
L 771.768 261.501184 
" clip-path="url(#p9d1f512453)" style="fill: none; stroke: #000000"/>
   </g>
   <g id="line2d_24">
    <path d="M 771.768 248.413667 
L 771.768 231.35455 
" clip-path="url(#p9d1f512453)" style="fill: none; stroke: #000000"/>
   </g>
   <g id="line2d_25">
    <path d="M 765.8226 261.501184 
L 777.7134 261.501184 
" clip-path="url(#p9d1f512453)" style="fill: none; stroke: #000000; stroke-linecap: round"/>
   </g>
   <g id="line2d_26">
    <path d="M 765.8226 231.35455 
L 777.7134 231.35455 
" clip-path="url(#p9d1f512453)" style="fill: none; stroke: #000000; stroke-linecap: round"/>
   </g>
   <g id="line2d_27">
    <path d="M 125.7012 349.877104 
L 149.4828 349.877104 
" clip-path="url(#p9d1f512453)" style="fill: none; stroke: #ff0000; stroke-width: 2"/>
   </g>
   <g id="line2d_28">
    <path d="M 284.2452 351.002912 
L 308.0268 351.002912 
" clip-path="url(#p9d1f512453)" style="fill: none; stroke: #ff0000; stroke-width: 2"/>
   </g>
   <g id="line2d_29">
    <path d="M 442.7892 224.818609 
L 466.5708 224.818609 
" clip-path="url(#p9d1f512453)" style="fill: none; stroke: #ff0000; stroke-width: 2"/>
   </g>
   <g id="line2d_30">
    <path d="M 601.3332 167.934038 
L 625.1148 167.934038 
" clip-path="url(#p9d1f512453)" style="fill: none; stroke: #ff0000; stroke-width: 2"/>
   </g>
   <g id="line2d_31">
    <path d="M 759.8772 258.999388 
L 783.6588 258.999388 
" clip-path="url(#p9d1f512453)" style="fill: none; stroke: #ff0000; stroke-width: 2"/>
   </g>
   <g id="patch_3">
    <path d="M 58.32 373.416875 
L 58.32 27.6 
" style="fill: none; stroke: #cccccc; stroke-width: 1.25; stroke-linejoin: miter; stroke-linecap: square"/>
   </g>
   <g id="patch_4">
    <path d="M 851.04 373.416875 
L 851.04 27.6 
" style="fill: none; stroke: #cccccc; stroke-width: 1.25; stroke-linejoin: miter; stroke-linecap: square"/>
   </g>
   <g id="patch_5">
    <path d="M 58.32 373.416875 
L 851.04 373.416875 
" style="fill: none; stroke: #cccccc; stroke-width: 1.25; stroke-linejoin: miter; stroke-linecap: square"/>
   </g>
   <g id="patch_6">
    <path d="M 58.32 27.6 
L 851.04 27.6 
" style="fill: none; stroke: #cccccc; stroke-width: 1.25; stroke-linejoin: miter; stroke-linecap: square"/>
   </g>
   <g id="text_13">
    <!-- Handshake duration on QUIC with mldsa44 signature algorithm — Degraded (200ms/10%) -->
    <g style="fill: #262626" transform="translate(182.723437 21.6) scale(0.12 -0.12)">
     <defs>
      <path id="DejaVuSans-51" d="M 2522 4238 
Q 1834 4238 1429 3725 
Q 1025 3213 1025 2328 
Q 1025 1447 1429 934 
Q 1834 422 2522 422 
Q 3209 422 3611 934 
Q 4013 1447 4013 2328 
Q 4013 3213 3611 3725 
Q 3209 4238 2522 4238 
z
M 3406 84 
L 4238 -825 
L 3475 -825 
L 2784 -78 
Q 2681 -84 2626 -87 
Q 2572 -91 2522 -91 
Q 1538 -91 948 567 
Q 359 1225 359 2328 
Q 359 3434 948 4092 
Q 1538 4750 2522 4750 
Q 3503 4750 4090 4092 
Q 4678 3434 4678 2328 
Q 4678 1516 4351 937 
Q 4025 359 3406 84 
z
" transform="scale(0.015625)"/>
      <path id="DejaVuSans-55" d="M 556 4666 
L 1191 4666 
L 1191 1831 
Q 1191 1081 1462 751 
Q 1734 422 2344 422 
Q 2950 422 3222 751 
Q 3494 1081 3494 1831 
L 3494 4666 
L 4128 4666 
L 4128 1753 
Q 4128 841 3676 375 
Q 3225 -91 2344 -91 
Q 1459 -91 1007 375 
Q 556 841 556 1753 
L 556 4666 
z
" transform="scale(0.015625)"/>
      <path id="DejaVuSans-49" d="M 628 4666 
L 1259 4666 
L 1259 0 
L 628 0 
L 628 4666 
z
" transform="scale(0.015625)"/>
      <path id="DejaVuSans-43" d="M 4122 4306 
L 4122 3641 
Q 3803 3938 3442 4084 
Q 3081 4231 2675 4231 
Q 1875 4231 1450 3742 
Q 1025 3253 1025 2328 
Q 1025 1406 1450 917 
Q 1875 428 2675 428 
Q 3081 428 3442 575 
Q 3803 722 4122 1019 
L 4122 359 
Q 3791 134 3420 21 
Q 3050 -91 2638 -91 
Q 1578 -91 968 557 
Q 359 1206 359 2328 
Q 359 3453 968 4101 
Q 1578 4750 2638 4750 
Q 3056 4750 3426 4639 
Q 3797 4528 4122 4306 
z
" transform="scale(0.015625)"/>
      <path id="DejaVuSans-77" d="M 269 3500 
L 844 3500 
L 1563 769 
L 2278 3500 
L 2956 3500 
L 3675 769 
L 4391 3500 
L 4966 3500 
L 4050 0 
L 3372 0 
L 2619 2869 
L 1863 0 
L 1184 0 
L 269 3500 
z
" transform="scale(0.015625)"/>
      <path id="DejaVuSans-6c" d="M 603 4863 
L 1178 4863 
L 1178 0 
L 603 0 
L 603 4863 
z
" transform="scale(0.015625)"/>
      <path id="DejaVuSans-67" d="M 2906 1791 
Q 2906 2416 2648 2759 
Q 2391 3103 1925 3103 
Q 1463 3103 1205 2759 
Q 947 2416 947 1791 
Q 947 1169 1205 825 
Q 1463 481 1925 481 
Q 2391 481 2648 825 
Q 2906 1169 2906 1791 
z
M 3481 434 
Q 3481 -459 3084 -895 
Q 2688 -1331 1869 -1331 
Q 1566 -1331 1297 -1286 
Q 1028 -1241 775 -1147 
L 775 -588 
Q 1028 -725 1275 -790 
Q 1522 -856 1778 -856 
Q 2344 -856 2625 -561 
Q 2906 -266 2906 331 
L 2906 616 
Q 2728 306 2450 153 
Q 2172 0 1784 0 
Q 1141 0 747 490 
Q 353 981 353 1791 
Q 353 2603 747 3093 
Q 1141 3584 1784 3584 
Q 2172 3584 2450 3431 
Q 2728 3278 2906 2969 
L 2906 3500 
L 3481 3500 
L 3481 434 
z
" transform="scale(0.015625)"/>
      <path id="DejaVuSans-2014" d="M 313 1978 
L 6088 1978 
L 6088 1528 
L 313 1528 
L 313 1978 
z
" transform="scale(0.015625)"/>
      <path id="DejaVuSans-44" d="M 1259 4147 
L 1259 519 
L 2022 519 
Q 2988 519 3436 956 
Q 3884 1394 3884 2338 
Q 3884 3275 3436 3711 
Q 2988 4147 2022 4147 
L 1259 4147 
z
M 628 4666 
L 1925 4666 
Q 3281 4666 3915 4102 
Q 4550 3538 4550 2338 
Q 4550 1131 3912 565 
Q 3275 0 1925 0 
L 628 0 
L 628 4666 
z
" transform="scale(0.015625)"/>
      <path id="DejaVuSans-2f" d="M 1625 4666 
L 2156 4666 
L 531 -594 
L 0 -594 
L 1625 4666 
z
" transform="scale(0.015625)"/>
      <path id="DejaVuSans-25" d="M 4653 2053 
Q 4381 2053 4226 1822 
Q 4072 1591 4072 1178 
Q 4072 772 4226 539 
Q 4381 306 4653 306 
Q 4919 306 5073 539 
Q 5228 772 5228 1178 
Q 5228 1588 5073 1820 
Q 4919 2053 4653 2053 
z
M 4653 2450 
Q 5147 2450 5437 2106 
Q 5728 1763 5728 1178 
Q 5728 594 5436 251 
Q 5144 -91 4653 -91 
Q 4153 -91 3862 251 
Q 3572 594 3572 1178 
Q 3572 1766 3864 2108 
Q 4156 2450 4653 2450 
z
M 1428 4353 
Q 1159 4353 1004 4120 
Q 850 3888 850 3481 
Q 850 3069 1003 2837 
Q 1156 2606 1428 2606 
Q 1700 2606 1854 2837 
Q 2009 3069 2009 3481 
Q 2009 3884 1853 4118 
Q 1697 4353 1428 4353 
z
M 4250 4750 
L 4750 4750 
L 1831 -91 
L 1331 -91 
L 4250 4750 
z
M 1428 4750 
Q 1922 4750 2215 4408 
Q 2509 4066 2509 3481 
Q 2509 2891 2217 2550 
Q 1925 2209 1428 2209 
Q 931 2209 642 2551 
Q 353 2894 353 3481 
Q 353 4063 643 4406 
Q 934 4750 1428 4750 
z
" transform="scale(0.015625)"/>
     </defs>
     <use xlink:href="#DejaVuSans-48"/>
     <use xlink:href="#DejaVuSans-61" x="75.195312"/>
     <use xlink:href="#DejaVuSans-6e" x="136.474609"/>
     <use xlink:href="#DejaVuSans-64" x="199.853516"/>
     <use xlink:href="#DejaVuSans-73" x="263.330078"/>
     <use xlink:href="#DejaVuSans-68" x="315.429688"/>
     <use xlink:href="#DejaVuSans-61" x="378.808594"/>
     <use xlink:href="#DejaVuSans-6b" x="440.087891"/>
     <use xlink:href="#DejaVuSans-65" x="494.373047"/>
     <use xlink:href="#DejaVuSans-20" x="555.896484"/>
     <use xlink:href="#DejaVuSans-64" x="587.683594"/>
     <use xlink:href="#DejaVuSans-75" x="651.160156"/>
     <use xlink:href="#DejaVuSans-72" x="714.539062"/>
     <use xlink:href="#DejaVuSans-61" x="755.652344"/>
     <use xlink:href="#DejaVuSans-74" x="816.931641"/>
     <use xlink:href="#DejaVuSans-69" x="856.140625"/>
     <use xlink:href="#DejaVuSans-6f" x="883.923828"/>
     <use xlink:href="#DejaVuSans-6e" x="945.105469"/>
     <use xlink:href="#DejaVuSans-20" x="1008.484375"/>
     <use xlink:href="#DejaVuSans-6f" x="1040.271484"/>
     <use xlink:href="#DejaVuSans-6e" x="1101.453125"/>
     <use xlink:href="#DejaVuSans-20" x="1164.832031"/>
     <use xlink:href="#DejaVuSans-51" x="1196.619141"/>
     <use xlink:href="#DejaVuSans-55" x="1275.330078"/>
     <use xlink:href="#DejaVuSans-49" x="1348.523438"/>
     <use xlink:href="#DejaVuSans-43" x="1378.015625"/>
     <use xlink:href="#DejaVuSans-20" x="1447.839844"/>
     <use xlink:href="#DejaVuSans-77" x="1479.626953"/>
     <use xlink:href="#DejaVuSans-69" x="1561.414062"/>
     <use xlink:href="#DejaVuSans-74" x="1589.197266"/>
     <use xlink:href="#DejaVuSans-68" x="1628.40625"/>
     <use xlink:href="#DejaVuSans-20" x="1691.785156"/>
     <use xlink:href="#DejaVuSans-6d" x="1723.572266"/>
     <use xlink:href="#DejaVuSans-6c" x="1820.984375"/>
     <use xlink:href="#DejaVuSans-64" x="1848.767578"/>
     <use xlink:href="#DejaVuSans-73" x="1912.244141"/>
     <use xlink:href="#DejaVuSans-61" x="1964.34375"/>
     <use xlink:href="#DejaVuSans-34" x="2025.623047"/>
     <use xlink:href="#DejaVuSans-34" x="2089.246094"/>
     <use xlink:href="#DejaVuSans-20" x="2152.869141"/>
     <use xlink:href="#DejaVuSans-73" x="2184.65625"/>
     <use xlink:href="#DejaVuSans-69" x="2236.755859"/>
     <use xlink:href="#DejaVuSans-67" x="2264.539062"/>
     <use xlink:href="#DejaVuSans-6e" x="2328.015625"/>
     <use xlink:href="#DejaVuSans-61" x="2391.394531"/>
     <use xlink:href="#DejaVuSans-74" x="2452.673828"/>
     <use xlink:href="#DejaVuSans-75" x="2491.882812"/>
     <use xlink:href="#DejaVuSans-72" x="2555.261719"/>
     <use xlink:href="#DejaVuSans-65" x="2594.125"/>
     <use xlink:href="#DejaVuSans-20" x="2655.648438"/>
     <use xlink:href="#DejaVuSans-61" x="2687.435547"/>
     <use xlink:href="#DejaVuSans-6c" x="2748.714844"/>
     <use xlink:href="#DejaVuSans-67" x="2776.498047"/>
     <use xlink:href="#DejaVuSans-6f" x="2839.974609"/>
     <use xlink:href="#DejaVuSans-72" x="2901.15625"/>
     <use xlink:href="#DejaVuSans-69" x="2942.269531"/>
     <use xlink:href="#DejaVuSans-74" x="2970.052734"/>
     <use xlink:href="#DejaVuSans-68" x="3009.261719"/>
     <use xlink:href="#DejaVuSans-6d" x="3072.640625"/>
     <use xlink:href="#DejaVuSans-20" x="3170.052734"/>
     <use xlink:href="#DejaVuSans-2014" x="3201.839844"/>
     <use xlink:href="#DejaVuSans-20" x="3301.839844"/>
     <use xlink:href="#DejaVuSans-44" x="3333.626953"/>
     <use xlink:href="#DejaVuSans-65" x="3410.628906"/>
     <use xlink:href="#DejaVuSans-67" x="3472.152344"/>
     <use xlink:href="#DejaVuSans-72" x="3535.628906"/>
     <use xlink:href="#DejaVuSans-61" x="3576.742188"/>
     <use xlink:href="#DejaVuSans-64" x="3638.021484"/>
     <use xlink:href="#DejaVuSans-65" x="3701.498047"/>
     <use xlink:href="#DejaVuSans-64" x="3763.021484"/>
     <use xlink:href="#DejaVuSans-20" x="3826.498047"/>
     <use xlink:href="#DejaVuSans-28" x="3858.285156"/>
     <use xlink:href="#DejaVuSans-32" x="3897.298828"/>
     <use xlink:href="#DejaVuSans-30" x="3960.921875"/>
     <use xlink:href="#DejaVuSans-30" x="4024.544922"/>
     <use xlink:href="#DejaVuSans-6d" x="4088.167969"/>
     <use xlink:href="#DejaVuSans-73" x="4185.580078"/>
     <use xlink:href="#DejaVuSans-2f" x="4237.679688"/>
     <use xlink:href="#DejaVuSans-31" x="4271.371094"/>
     <use xlink:href="#DejaVuSans-30" x="4334.994141"/>
     <use xlink:href="#DejaVuSans-25" x="4398.617188"/>
     <use xlink:href="#DejaVuSans-29" x="4493.636719"/>
    </g>
   </g>
  </g>
 </g>
 <defs>
  <clipPath id="p9d1f512453">
   <rect x="58.32" y="27.6" width="792.72" height="345.816875"/>
  </clipPath>
 </defs>
</svg>
