<?xml version="1.0" encoding="utf-8" standalone="no"?>
<!DOCTYPE svg PUBLIC "-//W3C//DTD SVG 1.1//EN"
  "http://www.w3.org/Graphics/SVG/1.1/DTD/svg11.dtd">
<svg xmlns:xlink="http://www.w3.org/1999/xlink" width="864pt" height="432pt" viewBox="0 0 864 432" xmlns="http://www.w3.org/2000/svg" version="1.1">
 <metadata>
  <rdf:RDF xmlns:dc="http://purl.org/dc/elements/1.1/" xmlns:cc="http://creativecommons.org/ns#" xmlns:rdf="http://www.w3.org/1999/02/22-rdf-syntax-ns#">
   <cc:Work>
    <dc:type rdf:resource="http://purl.org/dc/dcmitype/StillImage"/>
    <dc:date>2026-03-21T14:06:26.544449</dc:date>
    <dc:format>image/svg+xml</dc:format>
    <dc:creator>
     <cc:Agent>
      <dc:title>Matplotlib v3.6.3, https://matplotlib.org/</dc:title>
     </cc:Agent>
    </dc:creator>
   </cc:Work>
  </rdf:RDF>
 </metadata>
 <defs>
  <style type="text/css">*{stroke-linejoin: round; stroke-linecap: butt}</style>
 </defs>
 <g id="figure_1">
  <g id="patch_1">
   <path d="M 0 432 
L 864 432 
L 864 0 
L 0 0 
z
" style="fill: #ffffff"/>
  </g>
  <g id="axes_1">
   <g id="patch_2">
    <path d="M 65.34 377.237044 
L 851.04 377.237044 
L 851.04 27.6 
L 65.34 27.6 
z
" style="fill: #ffffff"/>
   </g>
   <g id="matplotlib.axis_1">
    <g id="xtick_1">
     <g id="text_1">
      <!-- P-384 -->
      <g style="fill: #262626" transform="translate(110.229421 404.396088) rotate(-15) scale(0.12 -0.12)">
       <defs>
        <path id="DejaVuSans-50" d="M 1259 4147 
L 1259 2394 
L 2053 2394 
Q 2494 2394 2734 2622 
Q 2975 2850 2975 3272 
Q 2975 3691 2734 3919 
Q 2494 4147 2053 4147 
L 1259 4147 
z
M 628 4666 
L 2053 4666 
Q 2838 4666 3239 4311 
Q 3641 3956 3641 3272 
Q 3641 2581 3239 2228 
Q 2838 1875 2053 1875 
L 1259 1875 
L 1259 0 
L 628 0 
L 628 4666 
z
" transform="scale(0.015625)"/>
        <path id="DejaVuSans-2d" d="M 313 2009 
L 1997 2009 
L 1997 1497 
L 313 1497 
L 313 2009 
z
" transform="scale(0.015625)"/>
        <path id="DejaVuSans-33" d="M 2597 2516 
Q 3050 2419 3304 2112 
Q 3559 1806 3559 1356 
Q 3559 666 3084 287 
Q 2609 -91 1734 -91 
Q 1441 -91 1130 -33 
Q 819 25 488 141 
L 488 750 
Q 750 597 1062 519 
Q 1375 441 1716 441 
Q 2309 441 2620 675 
Q 2931 909 2931 1356 
Q 2931 1769 2642 2001 
Q 2353 2234 1838 2234 
L 1294 2234 
L 1294 2753 
L 1863 2753 
Q 2328 2753 2575 2939 
Q 2822 3125 2822 3475 
Q 2822 3834 2567 4026 
Q 2313 4219 1838 4219 
Q 1578 4219 1281 4162 
Q 984 4106 628 3988 
L 628 4550 
Q 988 4650 1302 4700 
Q 1616 4750 1894 4750 
Q 2613 4750 3031 4423 
Q 3450 4097 3450 3541 
Q 3450 3153 3228 2886 
Q 3006 2619 2597 2516 
z
" transform="scale(0.015625)"/>
        <path id="DejaVuSans-38" d="M 2034 2216 
Q 1584 2216 1326 1975 
Q 1069 1734 1069 1313 
Q 1069 891 1326 650 
Q 1584 409 2034 409 
Q 2484 409 2743 651 
Q 3003 894 3003 1313 
Q 3003 1734 2745 1975 
Q 2488 2216 2034 2216 
z
M 1403 2484 
Q 997 2584 770 2862 
Q 544 3141 544 3541 
Q 544 4100 942 4425 
Q 1341 4750 2034 4750 
Q 2731 4750 3128 4425 
Q 3525 4100 3525 3541 
Q 3525 3141 3298 2862 
Q 3072 2584 2669 2484 
Q 3125 2378 3379 2068 
Q 3634 1759 3634 1313 
Q 3634 634 3220 271 
Q 2806 -91 2034 -91 
Q 1263 -91 848 271 
Q 434 634 434 1313 
Q 434 1759 690 2068 
Q 947 2378 1403 2484 
z
M 1172 3481 
Q 1172 3119 1398 2916 
Q 1625 2713 2034 2713 
Q 2441 2713 2670 2916 
Q 2900 3119 2900 3481 
Q 2900 3844 2670 4047 
Q 2441 4250 2034 4250 
Q 1625 4250 1398 4047 
Q 1172 3844 1172 3481 
z
" transform="scale(0.015625)"/>
        <path id="DejaVuSans-34" d="M 2419 4116 
L 825 1625 
L 2419 1625 
L 2419 4116 
z
M 2253 4666 
L 3047 4666 
L 3047 1625 
L 3713 1625 
L 3713 1100 
L 3047 1100 
L 3047 0 
L 2419 0 
L 2419 1100 
L 313 1100 
L 313 1709 
L 2253 4666 
z
" transform="scale(0.015625)"/>
       </defs>
       <use xlink:href="#DejaVuSans-50"/>
       <use xlink:href="#DejaVuSans-2d" x="58.052734"/>
       <use xlink:href="#DejaVuSans-33" x="94.136719"/>
       <use xlink:href="#DejaVuSans-38" x="157.759766"/>
       <use xlink:href="#DejaVuSans-34" x="221.382812"/>
      </g>
     </g>
    </g>
    <g id="xtick_2">
     <g id="text_2">
      <!-- x448 -->
      <g style="fill: #262626" transform="translate(271.419065 403.310989) rotate(-15) scale(0.12 -0.12)">
       <defs>
        <path id="DejaVuSans-78" d="M 3513 3500 
L 2247 1797 
L 3578 0 
L 2900 0 
L 1881 1375 
L 863 0 
L 184 0 
L 1544 1831 
L 300 3500 
L 978 3500 
L 1906 2253 
L 2834 3500 
L 3513 3500 
z
" transform="scale(0.015625)"/>
       </defs>
       <use xlink:href="#DejaVuSans-78"/>
       <use xlink:href="#DejaVuSans-34" x="59.179688"/>
       <use xlink:href="#DejaVuSans-34" x="122.802734"/>
       <use xlink:href="#DejaVuSans-38" x="186.425781"/>
      </g>
     </g>
    </g>
    <g id="xtick_3">
     <g id="text_3">
      <!-- hqc192 -->
      <g style="fill: #262626" transform="translate(414.341845 407.120482) rotate(-15) scale(0.12 -0.12)">
       <defs>
        <path id="DejaVuSans-68" d="M 3513 2113 
L 3513 0 
L 2938 0 
L 2938 2094 
Q 2938 2591 2744 2837 
Q 2550 3084 2163 3084 
Q 1697 3084 1428 2787 
Q 1159 2491 1159 1978 
L 1159 0 
L 581 0 
L 581 4863 
L 1159 4863 
L 1159 2956 
Q 1366 3272 1645 3428 
Q 1925 3584 2291 3584 
Q 2894 3584 3203 3211 
Q 3513 2838 3513 2113 
z
" transform="scale(0.015625)"/>
        <path id="DejaVuSans-71" d="M 947 1747 
Q 947 1113 1208 752 
Q 1469 391 1925 391 
Q 2381 391 2643 752 
Q 2906 1113 2906 1747 
Q 2906 2381 2643 2742 
Q 2381 3103 1925 3103 
Q 1469 3103 1208 2742 
Q 947 2381 947 1747 
z
M 2906 525 
Q 2725 213 2448 61 
Q 2172 -91 1784 -91 
Q 1150 -91 751 415 
Q 353 922 353 1747 
Q 353 2572 751 3078 
Q 1150 3584 1784 3584 
Q 2172 3584 2448 3432 
Q 2725 3281 2906 2969 
L 2906 3500 
L 3481 3500 
L 3481 -1331 
L 2906 -1331 
L 2906 525 
z
" transform="scale(0.015625)"/>
        <path id="DejaVuSans-63" d="M 3122 3366 
L 3122 2828 
Q 2878 2963 2633 3030 
Q 2388 3097 2138 3097 
Q 1578 3097 1268 2742 
Q 959 2388 959 1747 
Q 959 1106 1268 751 
Q 1578 397 2138 397 
Q 2388 397 2633 464 
Q 2878 531 3122 666 
L 3122 134 
Q 2881 22 2623 -34 
Q 2366 -91 2075 -91 
Q 1284 -91 818 406 
Q 353 903 353 1747 
Q 353 2603 823 3093 
Q 1294 3584 2113 3584 
Q 2378 3584 2631 3529 
Q 2884 3475 3122 3366 
z
" transform="scale(0.015625)"/>
        <path id="DejaVuSans-31" d="M 794 531 
L 1825 531 
L 1825 4091 
L 703 3866 
L 703 4441 
L 1819 4666 
L 2450 4666 
L 2450 531 
L 3481 531 
L 3481 0 
L 794 0 
L 794 531 
z
" transform="scale(0.015625)"/>
        <path id="DejaVuSans-39" d="M 703 97 
L 703 672 
Q 941 559 1184 500 
Q 1428 441 1663 441 
Q 2288 441 2617 861 
Q 2947 1281 2994 2138 
Q 2813 1869 2534 1725 
Q 2256 1581 1919 1581 
Q 1219 1581 811 2004 
Q 403 2428 403 3163 
Q 403 3881 828 4315 
Q 1253 4750 1959 4750 
Q 2769 4750 3195 4129 
Q 3622 3509 3622 2328 
Q 3622 1225 3098 567 
Q 2575 -91 1691 -91 
Q 1453 -91 1209 -44 
Q 966 3 703 97 
z
M 1959 2075 
Q 2384 2075 2632 2365 
Q 2881 2656 2881 3163 
Q 2881 3666 2632 3958 
Q 2384 4250 1959 4250 
Q 1534 4250 1286 3958 
Q 1038 3666 1038 3163 
Q 1038 2656 1286 2365 
Q 1534 2075 1959 2075 
z
" transform="scale(0.015625)"/>
        <path id="DejaVuSans-32" d="M 1228 531 
L 3431 531 
L 3431 0 
L 469 0 
L 469 531 
Q 828 903 1448 1529 
Q 2069 2156 2228 2338 
Q 2531 2678 2651 2914 
Q 2772 3150 2772 3378 
Q 2772 3750 2511 3984 
Q 2250 4219 1831 4219 
Q 1534 4219 1204 4116 
Q 875 4013 500 3803 
L 500 4441 
Q 881 4594 1212 4672 
Q 1544 4750 1819 4750 
Q 2544 4750 2975 4387 
Q 3406 4025 3406 3419 
Q 3406 3131 3298 2873 
Q 3191 2616 2906 2266 
Q 2828 2175 2409 1742 
Q 1991 1309 1228 531 
z
" transform="scale(0.015625)"/>
       </defs>
       <use xlink:href="#DejaVuSans-68"/>
       <use xlink:href="#DejaVuSans-71" x="63.378906"/>
       <use xlink:href="#DejaVuSans-63" x="126.855469"/>
       <use xlink:href="#DejaVuSans-31" x="181.835938"/>
       <use xlink:href="#DejaVuSans-39" x="245.458984"/>
       <use xlink:href="#DejaVuSans-32" x="309.082031"/>
      </g>
     </g>
    </g>
    <g id="xtick_4">
     <g id="text_4">
      <!-- p384_hqc192 -->
      <g style="fill: #262626" transform="translate(536.116834 416.573362) rotate(-15) scale(0.12 -0.12)">
       <defs>
        <path id="DejaVuSans-70" d="M 1159 525 
L 1159 -1331 
L 581 -1331 
L 581 3500 
L 1159 3500 
L 1159 2969 
Q 1341 3281 1617 3432 
Q 1894 3584 2278 3584 
Q 2916 3584 3314 3078 
Q 3713 2572 3713 1747 
Q 3713 922 3314 415 
Q 2916 -91 2278 -91 
Q 1894 -91 1617 61 
Q 1341 213 1159 525 
z
M 3116 1747 
Q 3116 2381 2855 2742 
Q 2594 3103 2138 3103 
Q 1681 3103 1420 2742 
Q 1159 2381 1159 1747 
Q 1159 1113 1420 752 
Q 1681 391 2138 391 
Q 2594 391 2855 752 
Q 3116 1113 3116 1747 
z
" transform="scale(0.015625)"/>
        <path id="DejaVuSans-5f" d="M 3263 -1063 
L 3263 -1509 
L -63 -1509 
L -63 -1063 
L 3263 -1063 
z
" transform="scale(0.015625)"/>
       </defs>
       <use xlink:href="#DejaVuSans-70"/>
       <use xlink:href="#DejaVuSans-33" x="63.476562"/>
       <use xlink:href="#DejaVuSans-38" x="127.099609"/>
       <use xlink:href="#DejaVuSans-34" x="190.722656"/>
       <use xlink:href="#DejaVuSans-5f" x="254.345703"/>
       <use xlink:href="#DejaVuSans-68" x="304.345703"/>
       <use xlink:href="#DejaVuSans-71" x="367.724609"/>
       <use xlink:href="#DejaVuSans-63" x="431.201172"/>
       <use xlink:href="#DejaVuSans-31" x="486.181641"/>
       <use xlink:href="#DejaVuSans-39" x="549.804688"/>
       <use xlink:href="#DejaVuSans-32" x="613.427734"/>
      </g>
     </g>
    </g>
    <g id="xtick_5">
     <g id="text_5">
      <!-- x448_hqc192 -->
      <g style="fill: #262626" transform="translate(693.75489 416.439909) rotate(-15) scale(0.12 -0.12)">
       <use xlink:href="#DejaVuSans-78"/>
       <use xlink:href="#DejaVuSans-34" x="59.179688"/>
       <use xlink:href="#DejaVuSans-34" x="122.802734"/>
       <use xlink:href="#DejaVuSans-38" x="186.425781"/>
       <use xlink:href="#DejaVuSans-5f" x="250.048828"/>
       <use xlink:href="#DejaVuSans-68" x="300.048828"/>
       <use xlink:href="#DejaVuSans-71" x="363.427734"/>
       <use xlink:href="#DejaVuSans-63" x="426.904297"/>
       <use xlink:href="#DejaVuSans-31" x="481.884766"/>
       <use xlink:href="#DejaVuSans-39" x="545.507812"/>
       <use xlink:href="#DejaVuSans-32" x="609.130859"/>
      </g>
     </g>
    </g>
   </g>
   <g id="matplotlib.axis_2">
    <g id="ytick_1">
     <g id="line2d_1">
      <path d="M 65.34 331.953545 
L 851.04 331.953545 
" clip-path="url(#p9535eebe62)" style="fill: none; stroke: #cccccc; stroke-linecap: round"/>
     </g>
     <g id="text_6">
      <!-- 200 -->
      <g style="fill: #262626" transform="translate(34.84375 336.132685) scale(0.11 -0.11)">
       <defs>
        <path id="DejaVuSans-30" d="M 2034 4250 
Q 1547 4250 1301 3770 
Q 1056 3291 1056 2328 
Q 1056 1369 1301 889 
Q 1547 409 2034 409 
Q 2525 409 2770 889 
Q 3016 1369 3016 2328 
Q 3016 3291 2770 3770 
Q 2525 4250 2034 4250 
z
M 2034 4750 
Q 2819 4750 3233 4129 
Q 3647 3509 3647 2328 
Q 3647 1150 3233 529 
Q 2819 -91 2034 -91 
Q 1250 -91 836 529 
Q 422 1150 422 2328 
Q 422 3509 836 4129 
Q 1250 4750 2034 4750 
z
" transform="scale(0.015625)"/>
       </defs>
       <use xlink:href="#DejaVuSans-32"/>
       <use xlink:href="#DejaVuSans-30" x="63.623047"/>
       <use xlink:href="#DejaVuSans-30" x="127.246094"/>
      </g>
     </g>
    </g>
    <g id="ytick_2">
     <g id="line2d_2">
      <path d="M 65.34 257.544774 
L 851.04 257.544774 
" clip-path="url(#p9535eebe62)" style="fill: none; stroke: #cccccc; stroke-linecap: round"/>
     </g>
     <g id="text_7">
      <!-- 400 -->
      <g style="fill: #262626" transform="translate(34.84375 261.723914) scale(0.11 -0.11)">
       <use xlink:href="#DejaVuSans-34"/>
       <use xlink:href="#DejaVuSans-30" x="63.623047"/>
       <use xlink:href="#DejaVuSans-30" x="127.246094"/>
      </g>
     </g>
    </g>
    <g id="ytick_3">
     <g id="line2d_3">
      <path d="M 65.34 183.136003 
L 851.04 183.136003 
" clip-path="url(#p9535eebe62)" style="fill: none; stroke: #cccccc; stroke-linecap: round"/>
     </g>
     <g id="text_8">
      <!-- 600 -->
      <g style="fill: #262626" transform="translate(34.84375 187.315143) scale(0.11 -0.11)">
       <defs>
        <path id="DejaVuSans-36" d="M 2113 2584 
Q 1688 2584 1439 2293 
Q 1191 2003 1191 1497 
Q 1191 994 1439 701 
Q 1688 409 2113 409 
Q 2538 409 2786 701 
Q 3034 994 3034 1497 
Q 3034 2003 2786 2293 
Q 2538 2584 2113 2584 
z
M 3366 4563 
L 3366 3988 
Q 3128 4100 2886 4159 
Q 2644 4219 2406 4219 
Q 1781 4219 1451 3797 
Q 1122 3375 1075 2522 
Q 1259 2794 1537 2939 
Q 1816 3084 2150 3084 
Q 2853 3084 3261 2657 
Q 3669 2231 3669 1497 
Q 3669 778 3244 343 
Q 2819 -91 2113 -91 
Q 1303 -91 875 529 
Q 447 1150 447 2328 
Q 447 3434 972 4092 
Q 1497 4750 2381 4750 
Q 2619 4750 2861 4703 
Q 3103 4656 3366 4563 
z
" transform="scale(0.015625)"/>
       </defs>
       <use xlink:href="#DejaVuSans-36"/>
       <use xlink:href="#DejaVuSans-30" x="63.623047"/>
       <use xlink:href="#DejaVuSans-30" x="127.246094"/>
      </g>
     </g>
    </g>
    <g id="ytick_4">
     <g id="line2d_4">
      <path d="M 65.34 108.727232 
L 851.04 108.727232 
" clip-path="url(#p9535eebe62)" style="fill: none; stroke: #cccccc; stroke-linecap: round"/>
     </g>
     <g id="text_9">
      <!-- 800 -->
      <g style="fill: #262626" transform="translate(34.84375 112.906372) scale(0.11 -0.11)">
       <use xlink:href="#DejaVuSans-38"/>
       <use xlink:href="#DejaVuSans-30" x="63.623047"/>
       <use xlink:href="#DejaVuSans-30" x="127.246094"/>
      </g>
     </g>
    </g>
    <g id="ytick_5">
     <g id="line2d_5">
      <path d="M 65.34 34.318461 
L 851.04 34.318461 
" clip-path="url(#p9535eebe62)" style="fill: none; stroke: #cccccc; stroke-linecap: round"/>
     </g>
     <g id="text_10">
      <!-- 1000 -->
      <g style="fill: #262626" transform="translate(27.845 38.497602) scale(0.11 -0.11)">
       <use xlink:href="#DejaVuSans-31"/>
       <use xlink:href="#DejaVuSans-30" x="63.623047"/>
       <use xlink:href="#DejaVuSans-30" x="127.246094"/>
       <use xlink:href="#DejaVuSans-30" x="190.869141"/>
      </g>
     </g>
    </g>
    <g id="text_11">
     <!-- Handshake duration (ms) -->
     <g style="fill: #262626" transform="translate(21.349375 278.486335) rotate(-90) scale(0.12 -0.12)">
      <defs>
       <path id="DejaVuSans-48" d="M 628 4666 
L 1259 4666 
L 1259 2753 
L 3553 2753 
L 3553 4666 
L 4184 4666 
L 4184 0 
L 3553 0 
L 3553 2222 
L 1259 2222 
L 1259 0 
L 628 0 
L 628 4666 
z
" transform="scale(0.015625)"/>
       <path id="DejaVuSans-61" d="M 2194 1759 
Q 1497 1759 1228 1600 
Q 959 1441 959 1056 
Q 959 750 1161 570 
Q 1363 391 1709 391 
Q 2188 391 2477 730 
Q 2766 1069 2766 1631 
L 2766 1759 
L 2194 1759 
z
M 3341 1997 
L 3341 0 
L 2766 0 
L 2766 531 
Q 2569 213 2275 61 
Q 1981 -91 1556 -91 
Q 1019 -91 701 211 
Q 384 513 384 1019 
Q 384 1609 779 1909 
Q 1175 2209 1959 2209 
L 2766 2209 
L 2766 2266 
Q 2766 2663 2505 2880 
Q 2244 3097 1772 3097 
Q 1472 3097 1187 3025 
Q 903 2953 641 2809 
L 641 3341 
Q 956 3463 1253 3523 
Q 1550 3584 1831 3584 
Q 2591 3584 2966 3190 
Q 3341 2797 3341 1997 
z
" transform="scale(0.015625)"/>
       <path id="DejaVuSans-6e" d="M 3513 2113 
L 3513 0 
L 2938 0 
L 2938 2094 
Q 2938 2591 2744 2837 
Q 2550 3084 2163 3084 
Q 1697 3084 1428 2787 
Q 1159 2491 1159 1978 
L 1159 0 
L 581 0 
L 581 3500 
L 1159 3500 
L 1159 2956 
Q 1366 3272 1645 3428 
Q 1925 3584 2291 3584 
Q 2894 3584 3203 3211 
Q 3513 2838 3513 2113 
z
" transform="scale(0.015625)"/>
       <path id="DejaVuSans-64" d="M 2906 2969 
L 2906 4863 
L 3481 4863 
L 3481 0 
L 2906 0 
L 2906 525 
Q 2725 213 2448 61 
Q 2172 -91 1784 -91 
Q 1150 -91 751 415 
Q 353 922 353 1747 
Q 353 2572 751 3078 
Q 1150 3584 1784 3584 
Q 2172 3584 2448 3432 
Q 2725 3281 2906 2969 
z
M 947 1747 
Q 947 1113 1208 752 
Q 1469 391 1925 391 
Q 2381 391 2643 752 
Q 2906 1113 2906 1747 
Q 2906 2381 2643 2742 
Q 2381 3103 1925 3103 
Q 1469 3103 1208 2742 
Q 947 2381 947 1747 
z
" transform="scale(0.015625)"/>
       <path id="DejaVuSans-73" d="M 2834 3397 
L 2834 2853 
Q 2591 2978 2328 3040 
Q 2066 3103 1784 3103 
Q 1356 3103 1142 2972 
Q 928 2841 928 2578 
Q 928 2378 1081 2264 
Q 1234 2150 1697 2047 
L 1894 2003 
Q 2506 1872 2764 1633 
Q 3022 1394 3022 966 
Q 3022 478 2636 193 
Q 2250 -91 1575 -91 
Q 1294 -91 989 -36 
Q 684 19 347 128 
L 347 722 
Q 666 556 975 473 
Q 1284 391 1588 391 
Q 1994 391 2212 530 
Q 2431 669 2431 922 
Q 2431 1156 2273 1281 
Q 2116 1406 1581 1522 
L 1381 1569 
Q 847 1681 609 1914 
Q 372 2147 372 2553 
Q 372 3047 722 3315 
Q 1072 3584 1716 3584 
Q 2034 3584 2315 3537 
Q 2597 3491 2834 3397 
z
" transform="scale(0.015625)"/>
       <path id="DejaVuSans-6b" d="M 581 4863 
L 1159 4863 
L 1159 1991 
L 2875 3500 
L 3609 3500 
L 1753 1863 
L 3688 0 
L 2938 0 
L 1159 1709 
L 1159 0 
L 581 0 
L 581 4863 
z
" transform="scale(0.015625)"/>
       <path id="DejaVuSans-65" d="M 3597 1894 
L 3597 1613 
L 953 1613 
Q 991 1019 1311 708 
Q 1631 397 2203 397 
Q 2534 397 2845 478 
Q 3156 559 3463 722 
L 3463 178 
Q 3153 47 2828 -22 
Q 2503 -91 2169 -91 
Q 1331 -91 842 396 
Q 353 884 353 1716 
Q 353 2575 817 3079 
Q 1281 3584 2069 3584 
Q 2775 3584 3186 3129 
Q 3597 2675 3597 1894 
z
M 3022 2063 
Q 3016 2534 2758 2815 
Q 2500 3097 2075 3097 
Q 1594 3097 1305 2825 
Q 1016 2553 972 2059 
L 3022 2063 
z
" transform="scale(0.015625)"/>
       <path id="DejaVuSans-20" transform="scale(0.015625)"/>
       <path id="DejaVuSans-75" d="M 544 1381 
L 544 3500 
L 1119 3500 
L 1119 1403 
Q 1119 906 1312 657 
Q 1506 409 1894 409 
Q 2359 409 2629 706 
Q 2900 1003 2900 1516 
L 2900 3500 
L 3475 3500 
L 3475 0 
L 2900 0 
L 2900 538 
Q 2691 219 2414 64 
Q 2138 -91 1772 -91 
Q 1169 -91 856 284 
Q 544 659 544 1381 
z
M 1991 3584 
L 1991 3584 
z
" transform="scale(0.015625)"/>
       <path id="DejaVuSans-72" d="M 2631 2963 
Q 2534 3019 2420 3045 
Q 2306 3072 2169 3072 
Q 1681 3072 1420 2755 
Q 1159 2438 1159 1844 
L 1159 0 
L 581 0 
L 581 3500 
L 1159 3500 
L 1159 2956 
Q 1341 3275 1631 3429 
Q 1922 3584 2338 3584 
Q 2397 3584 2469 3576 
Q 2541 3569 2628 3553 
L 2631 2963 
z
" transform="scale(0.015625)"/>
       <path id="DejaVuSans-74" d="M 1172 4494 
L 1172 3500 
L 2356 3500 
L 2356 3053 
L 1172 3053 
L 1172 1153 
Q 1172 725 1289 603 
Q 1406 481 1766 481 
L 2356 481 
L 2356 0 
L 1766 0 
Q 1100 0 847 248 
Q 594 497 594 1153 
L 594 3053 
L 172 3053 
L 172 3500 
L 594 3500 
L 594 4494 
L 1172 4494 
z
" transform="scale(0.015625)"/>
       <path id="DejaVuSans-69" d="M 603 3500 
L 1178 3500 
L 1178 0 
L 603 0 
L 603 3500 
z
M 603 4863 
L 1178 4863 
L 1178 4134 
L 603 4134 
L 603 4863 
z
" transform="scale(0.015625)"/>
       <path id="DejaVuSans-6f" d="M 1959 3097 
Q 1497 3097 1228 2736 
Q 959 2375 959 1747 
Q 959 1119 1226 758 
Q 1494 397 1959 397 
Q 2419 397 2687 759 
Q 2956 1122 2956 1747 
Q 2956 2369 2687 2733 
Q 2419 3097 1959 3097 
z
M 1959 3584 
Q 2709 3584 3137 3096 
Q 3566 2609 3566 1747 
Q 3566 888 3137 398 
Q 2709 -91 1959 -91 
Q 1206 -91 779 398 
Q 353 888 353 1747 
Q 353 2609 779 3096 
Q 1206 3584 1959 3584 
z
" transform="scale(0.015625)"/>
       <path id="DejaVuSans-28" d="M 1984 4856 
Q 1566 4138 1362 3434 
Q 1159 2731 1159 2009 
Q 1159 1288 1364 580 
Q 1569 -128 1984 -844 
L 1484 -844 
Q 1016 -109 783 600 
Q 550 1309 550 2009 
Q 550 2706 781 3412 
Q 1013 4119 1484 4856 
L 1984 4856 
z
" transform="scale(0.015625)"/>
       <path id="DejaVuSans-6d" d="M 3328 2828 
Q 3544 3216 3844 3400 
Q 4144 3584 4550 3584 
Q 5097 3584 5394 3201 
Q 5691 2819 5691 2113 
L 5691 0 
L 5113 0 
L 5113 2094 
Q 5113 2597 4934 2840 
Q 4756 3084 4391 3084 
Q 3944 3084 3684 2787 
Q 3425 2491 3425 1978 
L 3425 0 
L 2847 0 
L 2847 2094 
Q 2847 2600 2669 2842 
Q 2491 3084 2119 3084 
Q 1678 3084 1418 2786 
Q 1159 2488 1159 1978 
L 1159 0 
L 581 0 
L 581 3500 
L 1159 3500 
L 1159 2956 
Q 1356 3278 1631 3431 
Q 1906 3584 2284 3584 
Q 2666 3584 2933 3390 
Q 3200 3197 3328 2828 
z
" transform="scale(0.015625)"/>
       <path id="DejaVuSans-29" d="M 513 4856 
L 1013 4856 
Q 1481 4119 1714 3412 
Q 1947 2706 1947 2009 
Q 1947 1309 1714 600 
Q 1481 -109 1013 -844 
L 513 -844 
Q 928 -128 1133 580 
Q 1338 1288 1338 2009 
Q 1338 2731 1133 3434 
Q 928 4138 513 4856 
z
" transform="scale(0.015625)"/>
      </defs>
      <use xlink:href="#DejaVuSans-48"/>
      <use xlink:href="#DejaVuSans-61" x="75.195312"/>
      <use xlink:href="#DejaVuSans-6e" x="136.474609"/>
      <use xlink:href="#DejaVuSans-64" x="199.853516"/>
      <use xlink:href="#DejaVuSans-73" x="263.330078"/>
      <use xlink:href="#DejaVuSans-68" x="315.429688"/>
      <use xlink:href="#DejaVuSans-61" x="378.808594"/>
      <use xlink:href="#DejaVuSans-6b" x="440.087891"/>
      <use xlink:href="#DejaVuSans-65" x="494.373047"/>
      <use xlink:href="#DejaVuSans-20" x="555.896484"/>
      <use xlink:href="#DejaVuSans-64" x="587.683594"/>
      <use xlink:href="#DejaVuSans-75" x="651.160156"/>
      <use xlink:href="#DejaVuSans-72" x="714.539062"/>
      <use xlink:href="#DejaVuSans-61" x="755.652344"/>
      <use xlink:href="#DejaVuSans-74" x="816.931641"/>
      <use xlink:href="#DejaVuSans-69" x="856.140625"/>
      <use xlink:href="#DejaVuSans-6f" x="883.923828"/>
      <use xlink:href="#DejaVuSans-6e" x="945.105469"/>
      <use xlink:href="#DejaVuSans-20" x="1008.484375"/>
      <use xlink:href="#DejaVuSans-28" x="1040.271484"/>
      <use xlink:href="#DejaVuSans-6d" x="1079.285156"/>
      <use xlink:href="#DejaVuSans-73" x="1176.697266"/>
      <use xlink:href="#DejaVuSans-29" x="1228.796875"/>
     </g>
    </g>
   </g>
   <g id="PolyCollection_1">
    <defs>
     <path id="m95f94d39c5" d="M 151.381293 -71.936071 
L 136.438707 -71.936071 
L 130.044452 -73.125684 
L 120.751062 -74.315297 
L 109.096679 -75.504911 
L 96.809842 -76.694524 
L 86.557226 -77.884137 
L 81.054 -79.07375 
L 81.908171 -80.263363 
L 88.863085 -81.452976 
L 99.921665 -82.64259 
L 112.270943 -83.832203 
L 123.426863 -85.021816 
L 131.973917 -86.211429 
L 137.649267 -87.401042 
L 140.954083 -88.590655 
L 142.653767 -89.780269 
L 143.429401 -90.969882 
L 143.744416 -92.159495 
L 143.85839 -93.349108 
L 143.894771 -94.538721 
L 143.903986 -95.728334 
L 143.903432 -96.917948 
L 143.897514 -98.107561 
L 143.88624 -99.297174 
L 143.868874 -100.486787 
L 143.845893 -101.6764 
L 143.820088 -102.866014 
L 143.796546 -104.055627 
L 143.781206 -105.24524 
L 143.778461 -106.434853 
L 143.789138 -107.624466 
L 143.81009 -108.814079 
L 143.835697 -110.003693 
L 143.860286 -111.193306 
L 143.880075 -112.382919 
L 143.893794 -113.572532 
L 143.902104 -114.762145 
L 143.906539 -115.951758 
L 143.908635 -117.141372 
L 143.909516 -118.330985 
L 143.909845 -119.520598 
L 143.909956 -120.710211 
L 143.909989 -121.899824 
L 143.909997 -123.089437 
L 143.909999 -124.279051 
L 143.91 -125.468664 
L 143.91 -126.658277 
L 143.91 -127.84789 
L 143.91 -129.037503 
L 143.91 -130.227116 
L 143.91 -131.41673 
L 143.91 -132.606343 
L 143.91 -133.795956 
L 143.91 -134.985569 
L 143.91 -136.175182 
L 143.91 -137.364796 
L 143.91 -138.554409 
L 143.91 -139.744022 
L 143.91 -140.933635 
L 143.91 -142.123248 
L 143.91 -143.312861 
L 143.91 -144.502475 
L 143.91 -145.692088 
L 143.91 -146.881701 
L 143.91 -148.071314 
L 143.91 -149.260927 
L 143.91 -150.45054 
L 143.91 -151.640154 
L 143.91 -152.829767 
L 143.91 -154.01938 
L 143.91 -155.208993 
L 143.91 -156.398606 
L 143.91 -157.588219 
L 143.91 -158.777833 
L 143.91 -159.967446 
L 143.91 -161.157059 
L 143.909999 -162.346672 
L 143.909994 -163.536285 
L 143.909973 -164.725898 
L 143.909887 -165.915512 
L 143.909575 -167.105125 
L 143.908562 -168.294738 
L 143.905626 -169.484351 
L 143.898021 -170.673964 
L 143.88047 -171.863578 
L 143.844465 -173.053191 
L 143.779066 -174.242804 
L 143.674477 -175.432417 
L 143.528552 -176.62203 
L 143.353734 -177.811643 
L 143.179537 -179.001257 
L 143.046209 -180.19087 
L 142.990101 -181.380483 
L 143.027692 -182.570096 
L 143.147785 -183.759709 
L 143.316882 -184.949322 
L 143.494242 -186.138936 
L 143.647453 -187.328549 
L 143.760628 -188.518162 
L 143.83343 -189.707775 
L 143.98657 -189.707775 
L 143.98657 -189.707775 
L 144.059372 -188.518162 
L 144.172547 -187.328549 
L 144.325758 -186.138936 
L 144.503118 -184.949322 
L 144.672215 -183.759709 
L 144.792308 -182.570096 
L 144.829899 -181.380483 
L 144.773791 -180.19087 
L 144.640463 -179.001257 
L 144.466266 -177.811643 
L 144.291448 -176.62203 
L 144.145523 -175.432417 
L 144.040934 -174.242804 
L 143.975535 -173.053191 
L 143.93953 -171.863578 
L 143.921979 -170.673964 
L 143.914374 -169.484351 
L 143.911438 -168.294738 
L 143.910425 -167.105125 
L 143.910113 -165.915512 
L 143.910027 -164.725898 
L 143.910006 -163.536285 
L 143.910001 -162.346672 
L 143.91 -161.157059 
L 143.91 -159.967446 
L 143.91 -158.777833 
L 143.91 -157.588219 
L 143.91 -156.398606 
L 143.91 -155.208993 
L 143.91 -154.01938 
L 143.91 -152.829767 
L 143.91 -151.640154 
L 143.91 -150.45054 
L 143.91 -149.260927 
L 143.91 -148.071314 
L 143.91 -146.881701 
L 143.91 -145.692088 
L 143.91 -144.502475 
L 143.91 -143.312861 
L 143.91 -142.123248 
L 143.91 -140.933635 
L 143.91 -139.744022 
L 143.91 -138.554409 
L 143.91 -137.364796 
L 143.91 -136.175182 
L 143.91 -134.985569 
L 143.91 -133.795956 
L 143.91 -132.606343 
L 143.91 -131.41673 
L 143.91 -130.227116 
L 143.91 -129.037503 
L 143.91 -127.84789 
L 143.91 -126.658277 
L 143.91 -125.468664 
L 143.910001 -124.279051 
L 143.910003 -123.089437 
L 143.910011 -121.899824 
L 143.910044 -120.710211 
L 143.910155 -119.520598 
L 143.910484 -118.330985 
L 143.911365 -117.141372 
L 143.913461 -115.951758 
L 143.917896 -114.762145 
L 143.926206 -113.572532 
L 143.939925 -112.382919 
L 143.959714 -111.193306 
L 143.984303 -110.003693 
L 144.00991 -108.814079 
L 144.030862 -107.624466 
L 144.041539 -106.434853 
L 144.038794 -105.24524 
L 144.023454 -104.055627 
L 143.999912 -102.866014 
L 143.974107 -101.6764 
L 143.951126 -100.486787 
L 143.93376 -99.297174 
L 143.922486 -98.107561 
L 143.916568 -96.917948 
L 143.916014 -95.728334 
L 143.925229 -94.538721 
L 143.96161 -93.349108 
L 144.075584 -92.159495 
L 144.390599 -90.969882 
L 145.166233 -89.780269 
L 146.865917 -88.590655 
L 150.170733 -87.401042 
L 155.846083 -86.211429 
L 164.393137 -85.021816 
L 175.549057 -83.832203 
L 187.898335 -82.64259 
L 198.956915 -81.452976 
L 205.911829 -80.263363 
L 206.766 -79.07375 
L 201.262774 -77.884137 
L 191.010158 -76.694524 
L 178.723321 -75.504911 
L 167.068938 -74.315297 
L 157.775548 -73.125684 
L 151.381293 -71.936071 
z
" style="stroke: #595959; stroke-width: 1.25"/>
    </defs>
    <g clip-path="url(#p9535eebe62)">
     <use xlink:href="#m95f94d39c5" x="0" y="432" style="fill: #72b6a1; stroke: #595959; stroke-width: 1.25"/>
    </g>
   </g>
   <g id="PolyCollection_2">
    <defs>
     <path id="m04a90bfa24" d="M 308.618177 -70.655549 
L 293.481823 -70.655549 
L 286.040866 -72.134844 
L 274.984986 -73.614139 
L 261.412792 -75.093435 
L 248.26677 -76.57273 
L 239.498024 -78.052025 
L 238.194 -79.53132 
L 244.839683 -81.010615 
L 257.029392 -82.489911 
L 270.859297 -83.969206 
L 282.916803 -85.448501 
L 291.511792 -86.927796 
L 296.656006 -88.407092 
L 299.277132 -89.886387 
L 300.423242 -91.365682 
L 300.855023 -92.844977 
L 300.994237 -94.324272 
L 301.029388 -95.803568 
L 301.029374 -97.282863 
L 301.014544 -98.762158 
L 300.990512 -100.241453 
L 300.96166 -101.720749 
L 300.935044 -103.200044 
L 300.919035 -104.679339 
L 300.919388 -106.158634 
L 300.935971 -107.637929 
L 300.962854 -109.117225 
L 300.991698 -110.59652 
L 301.015856 -112.075815 
L 301.032495 -113.55511 
L 301.042144 -115.034406 
L 301.046914 -116.513701 
L 301.048939 -117.992996 
L 301.04968 -119.472291 
L 301.049916 -120.951586 
L 301.049981 -122.430882 
L 301.049996 -123.910177 
L 301.049999 -125.389472 
L 301.05 -126.868767 
L 301.05 -128.348063 
L 301.05 -129.827358 
L 301.05 -131.306653 
L 301.05 -132.785948 
L 301.05 -134.265243 
L 301.05 -135.744539 
L 301.05 -137.223834 
L 301.05 -138.703129 
L 301.05 -140.182424 
L 301.05 -141.66172 
L 301.05 -143.141015 
L 301.05 -144.62031 
L 301.05 -146.099605 
L 301.05 -147.5789 
L 301.05 -149.058196 
L 301.05 -150.537491 
L 301.05 -152.016786 
L 301.05 -153.496081 
L 301.05 -154.975377 
L 301.05 -156.454672 
L 301.05 -157.933967 
L 301.049999 -159.413262 
L 301.049994 -160.892557 
L 301.049969 -162.371853 
L 301.04985 -163.851148 
L 301.049357 -165.330443 
L 301.047587 -166.809738 
L 301.042073 -168.289034 
L 301.027185 -169.768329 
L 300.992481 -171.247624 
L 300.922976 -172.726919 
L 300.804285 -174.206214 
L 300.633656 -175.68551 
L 300.432067 -177.164805 
L 300.246666 -178.6441 
L 300.13523 -180.123395 
L 300.137601 -181.602691 
L 300.252905 -183.081986 
L 300.440064 -184.561281 
L 300.641209 -186.040576 
L 300.81003 -187.519871 
L 300.926619 -188.999167 
L 300.994436 -190.478462 
L 301.028067 -191.957757 
L 301.042346 -193.437052 
L 301.047389 -194.916348 
L 301.048329 -196.395643 
L 301.046765 -197.874938 
L 301.042098 -199.354233 
L 301.032457 -200.833528 
L 301.015801 -202.312824 
L 300.991627 -203.792119 
L 300.962778 -205.271414 
L 300.935911 -206.750709 
L 300.919364 -208.230005 
L 300.919057 -209.7093 
L 300.935104 -211.188595 
L 300.961747 -212.66789 
L 300.990659 -214.147185 
L 301.015071 -215.626481 
L 301.032002 -217.105776 
L 301.067998 -217.105776 
L 301.067998 -217.105776 
L 301.084929 -215.626481 
L 301.109341 -214.147185 
L 301.138253 -212.66789 
L 301.164896 -211.188595 
L 301.180943 -209.7093 
L 301.180636 -208.230005 
L 301.164089 -206.750709 
L 301.137222 -205.271414 
L 301.108373 -203.792119 
L 301.084199 -202.312824 
L 301.067543 -200.833528 
L 301.057902 -199.354233 
L 301.053235 -197.874938 
L 301.051671 -196.395643 
L 301.052611 -194.916348 
L 301.057654 -193.437052 
L 301.071933 -191.957757 
L 301.105564 -190.478462 
L 301.173381 -188.999167 
L 301.28997 -187.519871 
L 301.458791 -186.040576 
L 301.659936 -184.561281 
L 301.847095 -183.081986 
L 301.962399 -181.602691 
L 301.96477 -180.123395 
L 301.853334 -178.6441 
L 301.667933 -177.164805 
L 301.466344 -175.68551 
L 301.295715 -174.206214 
L 301.177024 -172.726919 
L 301.107519 -171.247624 
L 301.072815 -169.768329 
L 301.057927 -168.289034 
L 301.052413 -166.809738 
L 301.050643 -165.330443 
L 301.05015 -163.851148 
L 301.050031 -162.371853 
L 301.050006 -160.892557 
L 301.050001 -159.413262 
L 301.05 -157.933967 
L 301.05 -156.454672 
L 301.05 -154.975377 
L 301.05 -153.496081 
L 301.05 -152.016786 
L 301.05 -150.537491 
L 301.05 -149.058196 
L 301.05 -147.5789 
L 301.05 -146.099605 
L 301.05 -144.62031 
L 301.05 -143.141015 
L 301.05 -141.66172 
L 301.05 -140.182424 
L 301.05 -138.703129 
L 301.05 -137.223834 
L 301.05 -135.744539 
L 301.05 -134.265243 
L 301.05 -132.785948 
L 301.05 -131.306653 
L 301.05 -129.827358 
L 301.05 -128.348063 
L 301.05 -126.868767 
L 301.050001 -125.389472 
L 301.050004 -123.910177 
L 301.050019 -122.430882 
L 301.050084 -120.951586 
L 301.05032 -119.472291 
L 301.051061 -117.992996 
L 301.053086 -116.513701 
L 301.057856 -115.034406 
L 301.067505 -113.55511 
L 301.084144 -112.075815 
L 301.108302 -110.59652 
L 301.137146 -109.117225 
L 301.164029 -107.637929 
L 301.180612 -106.158634 
L 301.180965 -104.679339 
L 301.164956 -103.200044 
L 301.13834 -101.720749 
L 301.109488 -100.241453 
L 301.085456 -98.762158 
L 301.070626 -97.282863 
L 301.070612 -95.803568 
L 301.105763 -94.324272 
L 301.244977 -92.844977 
L 301.676758 -91.365682 
L 302.822868 -89.886387 
L 305.443994 -88.407092 
L 310.588208 -86.927796 
L 319.183197 -85.448501 
L 331.240703 -83.969206 
L 345.070608 -82.489911 
L 357.260317 -81.010615 
L 363.906 -79.53132 
L 362.601976 -78.052025 
L 353.83323 -76.57273 
L 340.687208 -75.093435 
L 327.115014 -73.614139 
L 316.059134 -72.134844 
L 308.618177 -70.655549 
z
" style="stroke: #595959; stroke-width: 1.25"/>
    </defs>
    <g clip-path="url(#p9535eebe62)">
     <use xlink:href="#m04a90bfa24" x="0" y="432" style="fill: #e99675; stroke: #595959; stroke-width: 1.25"/>
    </g>
   </g>
   <g id="PolyCollection_3">
    <defs>
     <path id="m29ecf6f5d8" d="M 464.618206 -85.342813 
L 451.761794 -85.342813 
L 439.916084 -88.405081 
L 420.498893 -91.46735 
L 401.469414 -94.529619 
L 395.334 -97.591887 
L 406.113226 -100.654156 
L 425.142396 -103.716425 
L 441.533588 -106.778693 
L 451.157753 -109.840962 
L 455.366159 -112.90323 
L 456.441143 -115.965499 
L 455.773443 -119.027768 
L 454.332199 -122.090036 
L 453.266228 -125.152305 
L 453.478596 -128.214574 
L 454.841228 -131.276842 
L 456.422819 -134.339111 
L 457.488227 -137.401379 
L 457.934772 -140.463648 
L 457.953619 -143.525917 
L 457.683116 -146.588185 
L 457.233466 -149.650454 
L 456.834658 -152.712723 
L 456.749356 -155.774991 
L 457.011688 -158.83726 
L 457.405201 -161.899529 
L 457.723231 -164.961797 
L 457.918791 -168.024066 
L 458.019279 -171.086334 
L 458.03397 -174.148603 
L 457.974224 -177.210872 
L 457.899168 -180.27314 
L 457.887725 -183.335409 
L 457.960297 -186.397678 
L 458.06361 -189.459946 
L 458.139738 -192.522215 
L 458.175562 -195.584483 
L 458.187005 -198.646752 
L 458.189552 -201.709021 
L 458.189952 -204.771289 
L 458.189996 -207.833558 
L 458.19 -210.895827 
L 458.19 -213.958095 
L 458.19 -217.020364 
L 458.19 -220.082632 
L 458.19 -223.144901 
L 458.19 -226.20717 
L 458.19 -229.269438 
L 458.19 -232.331707 
L 458.19 -235.393976 
L 458.19 -238.456244 
L 458.19 -241.518513 
L 458.19 -244.580782 
L 458.19 -247.64305 
L 458.19 -250.705319 
L 458.19 -253.767587 
L 458.19 -256.829856 
L 458.19 -259.892125 
L 458.19 -262.954393 
L 458.19 -266.016662 
L 458.19 -269.078931 
L 458.19 -272.141199 
L 458.19 -275.203468 
L 458.19 -278.265736 
L 458.19 -281.328005 
L 458.19 -284.390274 
L 458.19 -287.452542 
L 458.19 -290.514811 
L 458.19 -293.57708 
L 458.19 -296.639348 
L 458.19 -299.701617 
L 458.19 -302.763885 
L 458.19 -305.826154 
L 458.19 -308.888423 
L 458.19 -311.950691 
L 458.19 -315.01296 
L 458.19 -318.075229 
L 458.19 -321.137497 
L 458.19 -324.199766 
L 458.19 -327.262035 
L 458.19 -330.324303 
L 458.19 -333.386572 
L 458.19 -336.44884 
L 458.19 -339.511109 
L 458.19 -342.573378 
L 458.19 -345.635646 
L 458.19 -348.697915 
L 458.189999 -351.760184 
L 458.189987 -354.822452 
L 458.189867 -357.884721 
L 458.189018 -360.946989 
L 458.184804 -364.009258 
L 458.170261 -367.071527 
L 458.136168 -370.133795 
L 458.084615 -373.196064 
L 458.041903 -376.258333 
L 458.040603 -379.320601 
L 458.081815 -382.38287 
L 458.133763 -385.445138 
L 458.169015 -388.507407 
L 458.210985 -388.507407 
L 458.210985 -388.507407 
L 458.246237 -385.445138 
L 458.298185 -382.38287 
L 458.339397 -379.320601 
L 458.338097 -376.258333 
L 458.295385 -373.196064 
L 458.243832 -370.133795 
L 458.209739 -367.071527 
L 458.195196 -364.009258 
L 458.190982 -360.946989 
L 458.190133 -357.884721 
L 458.190013 -354.822452 
L 458.190001 -351.760184 
L 458.19 -348.697915 
L 458.19 -345.635646 
L 458.19 -342.573378 
L 458.19 -339.511109 
L 458.19 -336.44884 
L 458.19 -333.386572 
L 458.19 -330.324303 
L 458.19 -327.262035 
L 458.19 -324.199766 
L 458.19 -321.137497 
L 458.19 -318.075229 
L 458.19 -315.01296 
L 458.19 -311.950691 
L 458.19 -308.888423 
L 458.19 -305.826154 
L 458.19 -302.763885 
L 458.19 -299.701617 
L 458.19 -296.639348 
L 458.19 -293.57708 
L 458.19 -290.514811 
L 458.19 -287.452542 
L 458.19 -284.390274 
L 458.19 -281.328005 
L 458.19 -278.265736 
L 458.19 -275.203468 
L 458.19 -272.141199 
L 458.19 -269.078931 
L 458.19 -266.016662 
L 458.19 -262.954393 
L 458.19 -259.892125 
L 458.19 -256.829856 
L 458.19 -253.767587 
L 458.19 -250.705319 
L 458.19 -247.64305 
L 458.19 -244.580782 
L 458.19 -241.518513 
L 458.19 -238.456244 
L 458.19 -235.393976 
L 458.19 -232.331707 
L 458.19 -229.269438 
L 458.19 -226.20717 
L 458.19 -223.144901 
L 458.19 -220.082632 
L 458.19 -217.020364 
L 458.19 -213.958095 
L 458.19 -210.895827 
L 458.190004 -207.833558 
L 458.190048 -204.771289 
L 458.190448 -201.709021 
L 458.192995 -198.646752 
L 458.204438 -195.584483 
L 458.240262 -192.522215 
L 458.31639 -189.459946 
L 458.419703 -186.397678 
L 458.492275 -183.335409 
L 458.480832 -180.27314 
L 458.405776 -177.210872 
L 458.34603 -174.148603 
L 458.360721 -171.086334 
L 458.461209 -168.024066 
L 458.656769 -164.961797 
L 458.974799 -161.899529 
L 459.368312 -158.83726 
L 459.630644 -155.774991 
L 459.545342 -152.712723 
L 459.146534 -149.650454 
L 458.696884 -146.588185 
L 458.426381 -143.525917 
L 458.445228 -140.463648 
L 458.891773 -137.401379 
L 459.957181 -134.339111 
L 461.538772 -131.276842 
L 462.901404 -128.214574 
L 463.113772 -125.152305 
L 462.047801 -122.090036 
L 460.606557 -119.027768 
L 459.938857 -115.965499 
L 461.013841 -112.90323 
L 465.222247 -109.840962 
L 474.846412 -106.778693 
L 491.237604 -103.716425 
L 510.266774 -100.654156 
L 521.046 -97.591887 
L 514.910586 -94.529619 
L 495.881107 -91.46735 
L 476.463916 -88.405081 
L 464.618206 -85.342813 
z
" style="stroke: #595959; stroke-width: 1.25"/>
    </defs>
    <g clip-path="url(#p9535eebe62)">
     <use xlink:href="#m29ecf6f5d8" x="0" y="432" style="fill: #95a3c3; stroke: #595959; stroke-width: 1.25"/>
    </g>
   </g>
   <g id="PolyCollection_4">
    <defs>
     <path id="m66c9846e68" d="M 621.355027 -93.669772 
L 609.304973 -93.669772 
L 603.637587 -94.626561 
L 595.034682 -95.58335 
L 583.794646 -96.540138 
L 571.413523 -97.496927 
L 560.421381 -98.453715 
L 553.532956 -99.410504 
L 552.474 -100.367292 
L 557.186056 -101.324081 
L 565.927256 -102.280869 
L 576.177721 -103.237658 
L 585.740847 -104.194447 
L 593.415671 -105.151235 
L 599.023641 -106.108024 
L 603.002315 -107.064812 
L 605.930542 -108.021601 
L 608.233107 -108.978389 
L 610.112393 -109.935178 
L 611.621835 -110.891967 
L 612.769724 -111.848755 
L 613.584232 -112.805544 
L 614.126676 -113.762332 
L 614.47405 -114.719121 
L 614.696804 -115.675909 
L 614.845709 -116.632698 
L 614.948511 -117.589487 
L 615.011205 -118.546275 
L 615.019819 -119.503064 
L 614.942141 -120.459852 
L 614.731339 -121.416641 
L 614.334043 -122.373429 
L 613.704911 -123.330218 
L 612.828221 -124.287007 
L 611.743586 -125.243795 
L 610.566301 -126.200584 
L 609.485703 -127.157372 
L 608.726321 -128.114161 
L 608.474644 -129.070949 
L 608.802338 -130.027738 
L 609.630398 -130.984526 
L 610.759515 -131.941315 
L 611.950464 -132.898104 
L 613.008559 -133.854892 
L 613.830786 -134.811681 
L 614.404199 -135.768469 
L 614.77261 -136.725258 
L 614.997862 -137.682046 
L 615.133705 -138.638835 
L 615.21646 -139.595624 
L 615.267146 -140.552412 
L 615.297439 -141.509201 
L 615.31449 -142.465989 
L 615.323288 -143.422778 
L 615.32738 -144.379566 
L 615.329082 -145.336355 
L 615.329712 -146.293144 
L 615.329919 -147.249932 
L 615.32998 -148.206721 
L 615.329995 -149.163509 
L 615.329999 -150.120298 
L 615.33 -151.077086 
L 615.33 -152.033875 
L 615.33 -152.990664 
L 615.33 -153.947452 
L 615.33 -154.904241 
L 615.33 -155.861029 
L 615.33 -156.817818 
L 615.33 -157.774606 
L 615.33 -158.731395 
L 615.33 -159.688183 
L 615.33 -160.644972 
L 615.33 -161.601761 
L 615.33 -162.558549 
L 615.33 -163.515338 
L 615.33 -164.472126 
L 615.33 -165.428915 
L 615.33 -166.385703 
L 615.33 -167.342492 
L 615.33 -168.299281 
L 615.329998 -169.256069 
L 615.329991 -170.212858 
L 615.32996 -171.169646 
L 615.329849 -172.126435 
L 615.329494 -173.083223 
L 615.328482 -174.040012 
L 615.32594 -174.996801 
L 615.320318 -175.953589 
L 615.309409 -176.910378 
L 615.290946 -177.867166 
L 615.263944 -178.823955 
L 615.230361 -179.780743 
L 615.195966 -180.737532 
L 615.169205 -181.694321 
L 615.157973 -182.651109 
L 615.165868 -183.607898 
L 615.190345 -184.564686 
L 615.224028 -185.521475 
L 615.258288 -186.478263 
L 615.286722 -187.435052 
L 615.306708 -188.39184 
L 615.353292 -188.39184 
L 615.353292 -188.39184 
L 615.373278 -187.435052 
L 615.401712 -186.478263 
L 615.435972 -185.521475 
L 615.469655 -184.564686 
L 615.494132 -183.607898 
L 615.502027 -182.651109 
L 615.490795 -181.694321 
L 615.464034 -180.737532 
L 615.429639 -179.780743 
L 615.396056 -178.823955 
L 615.369054 -177.867166 
L 615.350591 -176.910378 
L 615.339682 -175.953589 
L 615.33406 -174.996801 
L 615.331518 -174.040012 
L 615.330506 -173.083223 
L 615.330151 -172.126435 
L 615.33004 -171.169646 
L 615.330009 -170.212858 
L 615.330002 -169.256069 
L 615.33 -168.299281 
L 615.33 -167.342492 
L 615.33 -166.385703 
L 615.33 -165.428915 
L 615.33 -164.472126 
L 615.33 -163.515338 
L 615.33 -162.558549 
L 615.33 -161.601761 
L 615.33 -160.644972 
L 615.33 -159.688183 
L 615.33 -158.731395 
L 615.33 -157.774606 
L 615.33 -156.817818 
L 615.33 -155.861029 
L 615.33 -154.904241 
L 615.33 -153.947452 
L 615.33 -152.990664 
L 615.33 -152.033875 
L 615.33 -151.077086 
L 615.330001 -150.120298 
L 615.330005 -149.163509 
L 615.33002 -148.206721 
L 615.330081 -147.249932 
L 615.330288 -146.293144 
L 615.330918 -145.336355 
L 615.33262 -144.379566 
L 615.336712 -143.422778 
L 615.34551 -142.465989 
L 615.362561 -141.509201 
L 615.392854 -140.552412 
L 615.44354 -139.595624 
L 615.526295 -138.638835 
L 615.662138 -137.682046 
L 615.88739 -136.725258 
L 616.255801 -135.768469 
L 616.829214 -134.811681 
L 617.651441 -133.854892 
L 618.709536 -132.898104 
L 619.900485 -131.941315 
L 621.029602 -130.984526 
L 621.857662 -130.027738 
L 622.185356 -129.070949 
L 621.933679 -128.114161 
L 621.174297 -127.157372 
L 620.093699 -126.200584 
L 618.916414 -125.243795 
L 617.831779 -124.287007 
L 616.955089 -123.330218 
L 616.325957 -122.373429 
L 615.928661 -121.416641 
L 615.717859 -120.459852 
L 615.640181 -119.503064 
L 615.648795 -118.546275 
L 615.711489 -117.589487 
L 615.814291 -116.632698 
L 615.963196 -115.675909 
L 616.18595 -114.719121 
L 616.533324 -113.762332 
L 617.075768 -112.805544 
L 617.890276 -111.848755 
L 619.038165 -110.891967 
L 620.547607 -109.935178 
L 622.426893 -108.978389 
L 624.729458 -108.021601 
L 627.657685 -107.064812 
L 631.636359 -106.108024 
L 637.244329 -105.151235 
L 644.919153 -104.194447 
L 654.482279 -103.237658 
L 664.732744 -102.280869 
L 673.473944 -101.324081 
L 678.186 -100.367292 
L 677.127044 -99.410504 
L 670.238619 -98.453715 
L 659.246477 -97.496927 
L 646.865354 -96.540138 
L 635.625318 -95.58335 
L 627.022413 -94.626561 
L 621.355027 -93.669772 
z
" style="stroke: #595959; stroke-width: 1.25"/>
    </defs>
    <g clip-path="url(#p9535eebe62)">
     <use xlink:href="#m66c9846e68" x="0" y="432" style="fill: #db96c0; stroke: #595959; stroke-width: 1.25"/>
    </g>
   </g>
   <g id="PolyCollection_5">
    <defs>
     <path id="mcaa1437c9a" d="M 778.781242 -90.006432 
L 766.158758 -90.006432 
L 762.260774 -90.850566 
L 756.872715 -91.694701 
L 749.960839 -92.538836 
L 741.777847 -93.38297 
L 732.915439 -94.227105 
L 724.267735 -95.07124 
L 716.889521 -95.915374 
L 711.773958 -96.759509 
L 709.614 -97.603644 
L 710.628829 -98.447778 
L 714.518629 -99.291913 
L 720.563262 -100.136048 
L 727.825126 -100.980182 
L 735.380408 -101.824317 
L 742.501839 -102.668452 
L 748.746811 -103.512586 
L 753.948227 -104.356721 
L 758.140138 -105.200856 
L 761.462866 -106.04499 
L 764.083865 -106.889125 
L 766.151156 -107.73326 
L 767.777891 -108.577394 
L 769.046477 -109.421529 
L 770.019573 -110.265664 
L 770.749485 -111.109798 
L 771.282877 -111.953933 
L 771.661379 -112.798067 
L 771.92011 -113.642202 
L 772.085872 -114.486337 
L 772.175932 -115.330471 
L 772.19762 -116.174606 
L 772.148702 -117.018741 
L 772.018626 -117.862875 
L 771.790944 -118.70701 
L 771.447394 -119.551145 
L 770.973815 -120.395279 
L 770.367493 -121.239414 
L 769.644498 -122.083549 
L 768.844735 -122.927683 
L 768.032078 -123.771818 
L 767.287761 -124.615953 
L 766.697105 -125.460087 
L 766.332308 -126.304222 
L 766.236125 -127.148357 
L 766.411809 -127.992491 
L 766.822923 -128.836626 
L 767.403259 -129.680761 
L 768.073403 -130.524895 
L 768.758362 -131.36903 
L 769.400859 -132.213165 
L 769.967234 -133.057299 
L 770.446001 -133.901434 
L 770.841554 -134.745569 
L 771.16638 -135.589703 
L 771.434545 -136.433838 
L 771.657804 -137.277973 
L 771.844314 -138.122107 
L 771.999112 -138.966242 
L 772.125328 -139.810377 
L 772.225357 -140.654511 
L 772.301579 -141.498646 
L 772.356552 -142.342781 
L 772.392776 -143.186915 
L 772.412225 -144.03105 
L 772.415848 -144.875185 
L 772.403241 -145.719319 
L 772.372641 -146.563454 
L 772.32139 -147.407588 
L 772.246886 -148.251723 
L 772.147939 -149.095858 
L 772.026264 -149.939992 
L 771.887674 -150.784127 
L 771.742481 -151.628262 
L 771.604712 -152.472396 
L 771.490031 -153.316531 
L 771.412723 -154.160666 
L 771.382487 -155.0048 
L 771.402015 -155.848935 
L 771.466197 -156.69307 
L 771.563292 -157.537204 
L 771.677751 -158.381339 
L 771.793801 -159.225474 
L 771.898695 -160.069608 
L 771.984728 -160.913743 
L 772.04967 -161.757878 
L 772.095812 -162.602012 
L 772.128228 -163.446147 
L 772.152921 -164.290282 
L 772.175313 -165.134416 
L 772.199321 -165.978551 
L 772.226975 -166.822686 
L 772.258494 -167.66682 
L 772.292668 -168.510955 
L 772.327425 -169.35509 
L 772.360462 -170.199224 
L 772.389804 -171.043359 
L 772.41417 -171.887494 
L 772.433104 -172.731628 
L 772.446886 -173.575763 
L 772.493114 -173.575763 
L 772.493114 -173.575763 
L 772.506896 -172.731628 
L 772.52583 -171.887494 
L 772.550196 -171.043359 
L 772.579538 -170.199224 
L 772.612575 -169.35509 
L 772.647332 -168.510955 
L 772.681506 -167.66682 
L 772.713025 -166.822686 
L 772.740679 -165.978551 
L 772.764687 -165.134416 
L 772.787079 -164.290282 
L 772.811772 -163.446147 
L 772.844188 -162.602012 
L 772.89033 -161.757878 
L 772.955272 -160.913743 
L 773.041305 -160.069608 
L 773.146199 -159.225474 
L 773.262249 -158.381339 
L 773.376708 -157.537204 
L 773.473803 -156.69307 
L 773.537985 -155.848935 
L 773.557513 -155.0048 
L 773.527277 -154.160666 
L 773.449969 -153.316531 
L 773.335288 -152.472396 
L 773.197519 -151.628262 
L 773.052326 -150.784127 
L 772.913736 -149.939992 
L 772.792061 -149.095858 
L 772.693114 -148.251723 
L 772.61861 -147.407588 
L 772.567359 -146.563454 
L 772.536759 -145.719319 
L 772.524152 -144.875185 
L 772.527775 -144.03105 
L 772.547224 -143.186915 
L 772.583448 -142.342781 
L 772.638421 -141.498646 
L 772.714643 -140.654511 
L 772.814672 -139.810377 
L 772.940888 -138.966242 
L 773.095686 -138.122107 
L 773.282196 -137.277973 
L 773.505455 -136.433838 
L 773.77362 -135.589703 
L 774.098446 -134.745569 
L 774.493999 -133.901434 
L 774.972766 -133.057299 
L 775.539141 -132.213165 
L 776.181638 -131.36903 
L 776.866597 -130.524895 
L 777.536741 -129.680761 
L 778.117077 -128.836626 
L 778.528191 -127.992491 
L 778.703875 -127.148357 
L 778.607692 -126.304222 
L 778.242895 -125.460087 
L 777.652239 -124.615953 
L 776.907922 -123.771818 
L 776.095265 -122.927683 
L 775.295502 -122.083549 
L 774.572507 -121.239414 
L 773.966185 -120.395279 
L 773.492606 -119.551145 
L 773.149056 -118.70701 
L 772.921374 -117.862875 
L 772.791298 -117.018741 
L 772.74238 -116.174606 
L 772.764068 -115.330471 
L 772.854128 -114.486337 
L 773.01989 -113.642202 
L 773.278621 -112.798067 
L 773.657123 -111.953933 
L 774.190515 -111.109798 
L 774.920427 -110.265664 
L 775.893523 -109.421529 
L 777.162109 -108.577394 
L 778.788844 -107.73326 
L 780.856135 -106.889125 
L 783.477134 -106.04499 
L 786.799862 -105.200856 
L 790.991773 -104.356721 
L 796.193189 -103.512586 
L 802.438161 -102.668452 
L 809.559592 -101.824317 
L 817.114874 -100.980182 
L 824.376738 -100.136048 
L 830.421371 -99.291913 
L 834.311171 -98.447778 
L 835.326 -97.603644 
L 833.166042 -96.759509 
L 828.050479 -95.915374 
L 820.672265 -95.07124 
L 812.024561 -94.227105 
L 803.162153 -93.38297 
L 794.979161 -92.538836 
L 788.067285 -91.694701 
L 782.679226 -90.850566 
L 778.781242 -90.006432 
z
" style="stroke: #595959; stroke-width: 1.25"/>
    </defs>
    <g clip-path="url(#p9535eebe62)">
     <use xlink:href="#mcaa1437c9a" x="0" y="432" style="fill: #a2c865; stroke: #595959; stroke-width: 1.25"/>
    </g>
   </g>
   <g id="line2d_6">
    <path d="M 143.91 352.642903 
L 143.91 352.747076 
" clip-path="url(#p9535eebe62)" style="fill: none; stroke: #000000"/>
   </g>
   <g id="line2d_7">
    <path d="M 143.91 352.292252 
L 143.91 351.776041 
" clip-path="url(#p9535eebe62)" style="fill: none; stroke: #000000"/>
   </g>
   <g id="line2d_8">
    <path d="M 138.01725 352.747076 
L 149.80275 352.747076 
" clip-path="url(#p9535eebe62)" style="fill: none; stroke: #000000; stroke-linecap: round"/>
   </g>
   <g id="line2d_9">
    <path d="M 138.01725 351.776041 
L 149.80275 351.776041 
" clip-path="url(#p9535eebe62)" style="fill: none; stroke: #000000; stroke-linecap: round"/>
   </g>
   <g id="line2d_10">
    <path d="M 301.05 353.119119 
L 301.05 353.234453 
" clip-path="url(#p9535eebe62)" style="fill: none; stroke: #000000"/>
   </g>
   <g id="line2d_11">
    <path d="M 301.05 352.86985 
L 301.05 352.520129 
" clip-path="url(#p9535eebe62)" style="fill: none; stroke: #000000"/>
   </g>
   <g id="line2d_12">
    <path d="M 295.15725 353.234453 
L 306.94275 353.234453 
" clip-path="url(#p9535eebe62)" style="fill: none; stroke: #000000; stroke-linecap: round"/>
   </g>
   <g id="line2d_13">
    <path d="M 295.15725 352.520129 
L 306.94275 352.520129 
" clip-path="url(#p9535eebe62)" style="fill: none; stroke: #000000; stroke-linecap: round"/>
   </g>
   <g id="line2d_14">
    <path d="M 458.19 335.822801 
L 458.19 336.019984 
" clip-path="url(#p9535eebe62)" style="fill: none; stroke: #000000"/>
   </g>
   <g id="line2d_15">
    <path d="M 458.19 332.401857 
L 458.19 327.626675 
" clip-path="url(#p9535eebe62)" style="fill: none; stroke: #000000"/>
   </g>
   <g id="line2d_16">
    <path d="M 452.29725 336.019984 
L 464.08275 336.019984 
" clip-path="url(#p9535eebe62)" style="fill: none; stroke: #000000; stroke-linecap: round"/>
   </g>
   <g id="line2d_17">
    <path d="M 452.29725 327.626675 
L 464.08275 327.626675 
" clip-path="url(#p9535eebe62)" style="fill: none; stroke: #000000; stroke-linecap: round"/>
   </g>
   <g id="line2d_18">
    <path d="M 615.33 332.463245 
L 615.33 332.67531 
" clip-path="url(#p9535eebe62)" style="fill: none; stroke: #000000"/>
   </g>
   <g id="line2d_19">
    <path d="M 615.33 329.446899 
L 615.33 325.078174 
" clip-path="url(#p9535eebe62)" style="fill: none; stroke: #000000"/>
   </g>
   <g id="line2d_20">
    <path d="M 609.43725 332.67531 
L 621.22275 332.67531 
" clip-path="url(#p9535eebe62)" style="fill: none; stroke: #000000; stroke-linecap: round"/>
   </g>
   <g id="line2d_21">
    <path d="M 609.43725 325.078174 
L 621.22275 325.078174 
" clip-path="url(#p9535eebe62)" style="fill: none; stroke: #000000; stroke-linecap: round"/>
   </g>
   <g id="line2d_22">
    <path d="M 772.47 334.721551 
L 772.47 334.985702 
" clip-path="url(#p9535eebe62)" style="fill: none; stroke: #000000"/>
   </g>
   <g id="line2d_23">
    <path d="M 772.47 332.158169 
L 772.47 328.322397 
" clip-path="url(#p9535eebe62)" style="fill: none; stroke: #000000"/>
   </g>
   <g id="line2d_24">
    <path d="M 766.57725 334.985702 
L 778.36275 334.985702 
" clip-path="url(#p9535eebe62)" style="fill: none; stroke: #000000; stroke-linecap: round"/>
   </g>
   <g id="line2d_25">
    <path d="M 766.57725 328.322397 
L 778.36275 328.322397 
" clip-path="url(#p9535eebe62)" style="fill: none; stroke: #000000; stroke-linecap: round"/>
   </g>
   <g id="line2d_26">
    <path d="M 132.1245 352.579656 
L 155.6955 352.579656 
" clip-path="url(#p9535eebe62)" style="fill: none; stroke: #ff0000; stroke-width: 2"/>
   </g>
   <g id="line2d_27">
    <path d="M 289.2645 353.044711 
L 312.8355 353.044711 
" clip-path="url(#p9535eebe62)" style="fill: none; stroke: #ff0000; stroke-width: 2"/>
   </g>
   <g id="line2d_28">
    <path d="M 446.4045 335.569811 
L 469.9755 335.569811 
" clip-path="url(#p9535eebe62)" style="fill: none; stroke: #ff0000; stroke-width: 2"/>
   </g>
   <g id="line2d_29">
    <path d="M 603.5445 332.260481 
L 627.1155 332.260481 
" clip-path="url(#p9535eebe62)" style="fill: none; stroke: #ff0000; stroke-width: 2"/>
   </g>
   <g id="line2d_30">
    <path d="M 760.6845 334.509486 
L 784.2555 334.509486 
" clip-path="url(#p9535eebe62)" style="fill: none; stroke: #ff0000; stroke-width: 2"/>
   </g>
   <g id="patch_3">
    <path d="M 65.34 377.237044 
L 65.34 27.6 
" style="fill: none; stroke: #cccccc; stroke-width: 1.25; stroke-linejoin: miter; stroke-linecap: square"/>
   </g>
   <g id="patch_4">
    <path d="M 851.04 377.237044 
L 851.04 27.6 
" style="fill: none; stroke: #cccccc; stroke-width: 1.25; stroke-linejoin: miter; stroke-linecap: square"/>
   </g>
   <g id="patch_5">
    <path d="M 65.34 377.237044 
L 851.04 377.237044 
" style="fill: none; stroke: #cccccc; stroke-width: 1.25; stroke-linejoin: miter; stroke-linecap: square"/>
   </g>
   <g id="patch_6">
    <path d="M 65.34 27.6 
L 851.04 27.6 
" style="fill: none; stroke: #cccccc; stroke-width: 1.25; stroke-linejoin: miter; stroke-linecap: square"/>
   </g>
   <g id="text_12">
    <!-- Handshake duration on QUIC with mldsa65 signature algorithm — Local YDE (35ms/2%) -->
    <g style="fill: #262626" transform="translate(193.907813 21.6) scale(0.12 -0.12)">
     <defs>
      <path id="DejaVuSans-51" d="M 2522 4238 
Q 1834 4238 1429 3725 
Q 1025 3213 1025 2328 
Q 1025 1447 1429 934 
Q 1834 422 2522 422 
Q 3209 422 3611 934 
Q 4013 1447 4013 2328 
Q 4013 3213 3611 3725 
Q 3209 4238 2522 4238 
z
M 3406 84 
L 4238 -825 
L 3475 -825 
L 2784 -78 
Q 2681 -84 2626 -87 
Q 2572 -91 2522 -91 
Q 1538 -91 948 567 
Q 359 1225 359 2328 
Q 359 3434 948 4092 
Q 1538 4750 2522 4750 
Q 3503 4750 4090 4092 
Q 4678 3434 4678 2328 
Q 4678 1516 4351 937 
Q 4025 359 3406 84 
z
" transform="scale(0.015625)"/>
      <path id="DejaVuSans-55" d="M 556 4666 
L 1191 4666 
L 1191 1831 
Q 1191 1081 1462 751 
Q 1734 422 2344 422 
Q 2950 422 3222 751 
Q 3494 1081 3494 1831 
L 3494 4666 
L 4128 4666 
L 4128 1753 
Q 4128 841 3676 375 
Q 3225 -91 2344 -91 
Q 1459 -91 1007 375 
Q 556 841 556 1753 
L 556 4666 
z
" transform="scale(0.015625)"/>
      <path id="DejaVuSans-49" d="M 628 4666 
L 1259 4666 
L 1259 0 
L 628 0 
L 628 4666 
z
" transform="scale(0.015625)"/>
      <path id="DejaVuSans-43" d="M 4122 4306 
L 4122 3641 
Q 3803 3938 3442 4084 
Q 3081 4231 2675 4231 
Q 1875 4231 1450 3742 
Q 1025 3253 1025 2328 
Q 1025 1406 1450 917 
Q 1875 428 2675 428 
Q 3081 428 3442 575 
Q 3803 722 4122 1019 
L 4122 359 
Q 3791 134 3420 21 
Q 3050 -91 2638 -91 
Q 1578 -91 968 557 
Q 359 1206 359 2328 
Q 359 3453 968 4101 
Q 1578 4750 2638 4750 
Q 3056 4750 3426 4639 
Q 3797 4528 4122 4306 
z
" transform="scale(0.015625)"/>
      <path id="DejaVuSans-77" d="M 269 3500 
L 844 3500 
L 1563 769 
L 2278 3500 
L 2956 3500 
L 3675 769 
L 4391 3500 
L 4966 3500 
L 4050 0 
L 3372 0 
L 2619 2869 
L 1863 0 
L 1184 0 
L 269 3500 
z
" transform="scale(0.015625)"/>
      <path id="DejaVuSans-6c" d="M 603 4863 
L 1178 4863 
L 1178 0 
L 603 0 
L 603 4863 
z
" transform="scale(0.015625)"/>
      <path id="DejaVuSans-35" d="M 691 4666 
L 3169 4666 
L 3169 4134 
L 1269 4134 
L 1269 2991 
Q 1406 3038 1543 3061 
Q 1681 3084 1819 3084 
Q 2600 3084 3056 2656 
Q 3513 2228 3513 1497 
Q 3513 744 3044 326 
Q 2575 -91 1722 -91 
Q 1428 -91 1123 -41 
Q 819 9 494 109 
L 494 744 
Q 775 591 1075 516 
Q 1375 441 1709 441 
Q 2250 441 2565 725 
Q 2881 1009 2881 1497 
Q 2881 1984 2565 2268 
Q 2250 2553 1709 2553 
Q 1456 2553 1204 2497 
Q 953 2441 691 2322 
L 691 4666 
z
" transform="scale(0.015625)"/>
      <path id="DejaVuSans-67" d="M 2906 1791 
Q 2906 2416 2648 2759 
Q 2391 3103 1925 3103 
Q 1463 3103 1205 2759 
Q 947 2416 947 1791 
Q 947 1169 1205 825 
Q 1463 481 1925 481 
Q 2391 481 2648 825 
Q 2906 1169 2906 1791 
z
M 3481 434 
Q 3481 -459 3084 -895 
Q 2688 -1331 1869 -1331 
Q 1566 -1331 1297 -1286 
Q 1028 -1241 775 -1147 
L 775 -588 
Q 1028 -725 1275 -790 
Q 1522 -856 1778 -856 
Q 2344 -856 2625 -561 
Q 2906 -266 2906 331 
L 2906 616 
Q 2728 306 2450 153 
Q 2172 0 1784 0 
Q 1141 0 747 490 
Q 353 981 353 1791 
Q 353 2603 747 3093 
Q 1141 3584 1784 3584 
Q 2172 3584 2450 3431 
Q 2728 3278 2906 2969 
L 2906 3500 
L 3481 3500 
L 3481 434 
z
" transform="scale(0.015625)"/>
      <path id="DejaVuSans-2014" d="M 313 1978 
L 6088 1978 
L 6088 1528 
L 313 1528 
L 313 1978 
z
" transform="scale(0.015625)"/>
      <path id="DejaVuSans-4c" d="M 628 4666 
L 1259 4666 
L 1259 531 
L 3531 531 
L 3531 0 
L 628 0 
L 628 4666 
z
" transform="scale(0.015625)"/>
      <path id="DejaVuSans-59" d="M -13 4666 
L 666 4666 
L 1959 2747 
L 3244 4666 
L 3922 4666 
L 2272 2222 
L 2272 0 
L 1638 0 
L 1638 2222 
L -13 4666 
z
" transform="scale(0.015625)"/>
      <path id="DejaVuSans-44" d="M 1259 4147 
L 1259 519 
L 2022 519 
Q 2988 519 3436 956 
Q 3884 1394 3884 2338 
Q 3884 3275 3436 3711 
Q 2988 4147 2022 4147 
L 1259 4147 
z
M 628 4666 
L 1925 4666 
Q 3281 4666 3915 4102 
Q 4550 3538 4550 2338 
Q 4550 1131 3912 565 
Q 3275 0 1925 0 
L 628 0 
L 628 4666 
z
" transform="scale(0.015625)"/>
      <path id="DejaVuSans-45" d="M 628 4666 
L 3578 4666 
L 3578 4134 
L 1259 4134 
L 1259 2753 
L 3481 2753 
L 3481 2222 
L 1259 2222 
L 1259 531 
L 3634 531 
L 3634 0 
L 628 0 
L 628 4666 
z
" transform="scale(0.015625)"/>
      <path id="DejaVuSans-2f" d="M 1625 4666 
L 2156 4666 
L 531 -594 
L 0 -594 
L 1625 4666 
z
" transform="scale(0.015625)"/>
      <path id="DejaVuSans-25" d="M 4653 2053 
Q 4381 2053 4226 1822 
Q 4072 1591 4072 1178 
Q 4072 772 4226 539 
Q 4381 306 4653 306 
Q 4919 306 5073 539 
Q 5228 772 5228 1178 
Q 5228 1588 5073 1820 
Q 4919 2053 4653 2053 
z
M 4653 2450 
Q 5147 2450 5437 2106 
Q 5728 1763 5728 1178 
Q 5728 594 5436 251 
Q 5144 -91 4653 -91 
Q 4153 -91 3862 251 
Q 3572 594 3572 1178 
Q 3572 1766 3864 2108 
Q 4156 2450 4653 2450 
z
M 1428 4353 
Q 1159 4353 1004 4120 
Q 850 3888 850 3481 
Q 850 3069 1003 2837 
Q 1156 2606 1428 2606 
Q 1700 2606 1854 2837 
Q 2009 3069 2009 3481 
Q 2009 3884 1853 4118 
Q 1697 4353 1428 4353 
z
M 4250 4750 
L 4750 4750 
L 1831 -91 
L 1331 -91 
L 4250 4750 
z
M 1428 4750 
Q 1922 4750 2215 4408 
Q 2509 4066 2509 3481 
Q 2509 2891 2217 2550 
Q 1925 2209 1428 2209 
Q 931 2209 642 2551 
Q 353 2894 353 3481 
Q 353 4063 643 4406 
Q 934 4750 1428 4750 
z
" transform="scale(0.015625)"/>
     </defs>
     <use xlink:href="#DejaVuSans-48"/>
     <use xlink:href="#DejaVuSans-61" x="75.195312"/>
     <use xlink:href="#DejaVuSans-6e" x="136.474609"/>
     <use xlink:href="#DejaVuSans-64" x="199.853516"/>
     <use xlink:href="#DejaVuSans-73" x="263.330078"/>
     <use xlink:href="#DejaVuSans-68" x="315.429688"/>
     <use xlink:href="#DejaVuSans-61" x="378.808594"/>
     <use xlink:href="#DejaVuSans-6b" x="440.087891"/>
     <use xlink:href="#DejaVuSans-65" x="494.373047"/>
     <use xlink:href="#DejaVuSans-20" x="555.896484"/>
     <use xlink:href="#DejaVuSans-64" x="587.683594"/>
     <use xlink:href="#DejaVuSans-75" x="651.160156"/>
     <use xlink:href="#DejaVuSans-72" x="714.539062"/>
     <use xlink:href="#DejaVuSans-61" x="755.652344"/>
     <use xlink:href="#DejaVuSans-74" x="816.931641"/>
     <use xlink:href="#DejaVuSans-69" x="856.140625"/>
     <use xlink:href="#DejaVuSans-6f" x="883.923828"/>
     <use xlink:href="#DejaVuSans-6e" x="945.105469"/>
     <use xlink:href="#DejaVuSans-20" x="1008.484375"/>
     <use xlink:href="#DejaVuSans-6f" x="1040.271484"/>
     <use xlink:href="#DejaVuSans-6e" x="1101.453125"/>
     <use xlink:href="#DejaVuSans-20" x="1164.832031"/>
     <use xlink:href="#DejaVuSans-51" x="1196.619141"/>
     <use xlink:href="#DejaVuSans-55" x="1275.330078"/>
     <use xlink:href="#DejaVuSans-49" x="1348.523438"/>
     <use xlink:href="#DejaVuSans-43" x="1378.015625"/>
     <use xlink:href="#DejaVuSans-20" x="1447.839844"/>
     <use xlink:href="#DejaVuSans-77" x="1479.626953"/>
     <use xlink:href="#DejaVuSans-69" x="1561.414062"/>
     <use xlink:href="#DejaVuSans-74" x="1589.197266"/>
     <use xlink:href="#DejaVuSans-68" x="1628.40625"/>
     <use xlink:href="#DejaVuSans-20" x="1691.785156"/>
     <use xlink:href="#DejaVuSans-6d" x="1723.572266"/>
     <use xlink:href="#DejaVuSans-6c" x="1820.984375"/>
     <use xlink:href="#DejaVuSans-64" x="1848.767578"/>
     <use xlink:href="#DejaVuSans-73" x="1912.244141"/>
     <use xlink:href="#DejaVuSans-61" x="1964.34375"/>
     <use xlink:href="#DejaVuSans-36" x="2025.623047"/>
     <use xlink:href="#DejaVuSans-35" x="2089.246094"/>
     <use xlink:href="#DejaVuSans-20" x="2152.869141"/>
     <use xlink:href="#DejaVuSans-73" x="2184.65625"/>
     <use xlink:href="#DejaVuSans-69" x="2236.755859"/>
     <use xlink:href="#DejaVuSans-67" x="2264.539062"/>
     <use xlink:href="#DejaVuSans-6e" x="2328.015625"/>
     <use xlink:href="#DejaVuSans-61" x="2391.394531"/>
     <use xlink:href="#DejaVuSans-74" x="2452.673828"/>
     <use xlink:href="#DejaVuSans-75" x="2491.882812"/>
     <use xlink:href="#DejaVuSans-72" x="2555.261719"/>
     <use xlink:href="#DejaVuSans-65" x="2594.125"/>
     <use xlink:href="#DejaVuSans-20" x="2655.648438"/>
     <use xlink:href="#DejaVuSans-61" x="2687.435547"/>
     <use xlink:href="#DejaVuSans-6c" x="2748.714844"/>
     <use xlink:href="#DejaVuSans-67" x="2776.498047"/>
     <use xlink:href="#DejaVuSans-6f" x="2839.974609"/>
     <use xlink:href="#DejaVuSans-72" x="2901.15625"/>
     <use xlink:href="#DejaVuSans-69" x="2942.269531"/>
     <use xlink:href="#DejaVuSans-74" x="2970.052734"/>
     <use xlink:href="#DejaVuSans-68" x="3009.261719"/>
     <use xlink:href="#DejaVuSans-6d" x="3072.640625"/>
     <use xlink:href="#DejaVuSans-20" x="3170.052734"/>
     <use xlink:href="#DejaVuSans-2014" x="3201.839844"/>
     <use xlink:href="#DejaVuSans-20" x="3301.839844"/>
     <use xlink:href="#DejaVuSans-4c" x="3333.626953"/>
     <use xlink:href="#DejaVuSans-6f" x="3387.589844"/>
     <use xlink:href="#DejaVuSans-63" x="3448.771484"/>
     <use xlink:href="#DejaVuSans-61" x="3503.751953"/>
     <use xlink:href="#DejaVuSans-6c" x="3565.03125"/>
     <use xlink:href="#DejaVuSans-20" x="3592.814453"/>
     <use xlink:href="#DejaVuSans-59" x="3624.601562"/>
     <use xlink:href="#DejaVuSans-44" x="3685.685547"/>
     <use xlink:href="#DejaVuSans-45" x="3762.6875"/>
     <use xlink:href="#DejaVuSans-20" x="3825.871094"/>
     <use xlink:href="#DejaVuSans-28" x="3857.658203"/>
     <use xlink:href="#DejaVuSans-33" x="3896.671875"/>
     <use xlink:href="#DejaVuSans-35" x="3960.294922"/>
     <use xlink:href="#DejaVuSans-6d" x="4023.917969"/>
     <use xlink:href="#DejaVuSans-73" x="4121.330078"/>
     <use xlink:href="#DejaVuSans-2f" x="4173.429688"/>
     <use xlink:href="#DejaVuSans-32" x="4207.121094"/>
     <use xlink:href="#DejaVuSans-25" x="4270.744141"/>
     <use xlink:href="#DejaVuSans-29" x="4365.763672"/>
    </g>
   </g>
  </g>
 </g>
 <defs>
  <clipPath id="p9535eebe62">
   <rect x="65.34" y="27.6" width="785.7" height="349.637044"/>
  </clipPath>
 </defs>
</svg>
