<?xml version="1.0" encoding="utf-8" standalone="no"?>
<!DOCTYPE svg PUBLIC "-//W3C//DTD SVG 1.1//EN"
  "http://www.w3.org/Graphics/SVG/1.1/DTD/svg11.dtd">
<svg xmlns:xlink="http://www.w3.org/1999/xlink" width="864pt" height="432pt" viewBox="0 0 864 432" xmlns="http://www.w3.org/2000/svg" version="1.1">
 <metadata>
  <rdf:RDF xmlns:dc="http://purl.org/dc/elements/1.1/" xmlns:cc="http://creativecommons.org/ns#" xmlns:rdf="http://www.w3.org/1999/02/22-rdf-syntax-ns#">
   <cc:Work>
    <dc:type rdf:resource="http://purl.org/dc/dcmitype/StillImage"/>
    <dc:date>2026-03-21T14:06:26.291718</dc:date>
    <dc:format>image/svg+xml</dc:format>
    <dc:creator>
     <cc:Agent>
      <dc:title>Matplotlib v3.6.3, https://matplotlib.org/</dc:title>
     </cc:Agent>
    </dc:creator>
   </cc:Work>
  </rdf:RDF>
 </metadata>
 <defs>
  <style type="text/css">*{stroke-linejoin: round; stroke-linecap: butt}</style>
 </defs>
 <g id="figure_1">
  <g id="patch_1">
   <path d="M 0 432 
L 864 432 
L 864 0 
L 0 0 
z
" style="fill: #ffffff"/>
  </g>
  <g id="axes_1">
   <g id="patch_2">
    <path d="M 58.32 373.416875 
L 851.04 373.416875 
L 851.04 27.6 
L 58.32 27.6 
z
" style="fill: #ffffff"/>
   </g>
   <g id="matplotlib.axis_1">
    <g id="xtick_1">
     <g id="text_1">
      <!-- P-256 -->
      <g style="fill: #262626" transform="translate(103.911421 400.575919) rotate(-15) scale(0.12 -0.12)">
       <defs>
        <path id="DejaVuSans-50" d="M 1259 4147 
L 1259 2394 
L 2053 2394 
Q 2494 2394 2734 2622 
Q 2975 2850 2975 3272 
Q 2975 3691 2734 3919 
Q 2494 4147 2053 4147 
L 1259 4147 
z
M 628 4666 
L 2053 4666 
Q 2838 4666 3239 4311 
Q 3641 3956 3641 3272 
Q 3641 2581 3239 2228 
Q 2838 1875 2053 1875 
L 1259 1875 
L 1259 0 
L 628 0 
L 628 4666 
z
" transform="scale(0.015625)"/>
        <path id="DejaVuSans-2d" d="M 313 2009 
L 1997 2009 
L 1997 1497 
L 313 1497 
L 313 2009 
z
" transform="scale(0.015625)"/>
        <path id="DejaVuSans-32" d="M 1228 531 
L 3431 531 
L 3431 0 
L 469 0 
L 469 531 
Q 828 903 1448 1529 
Q 2069 2156 2228 2338 
Q 2531 2678 2651 2914 
Q 2772 3150 2772 3378 
Q 2772 3750 2511 3984 
Q 2250 4219 1831 4219 
Q 1534 4219 1204 4116 
Q 875 4013 500 3803 
L 500 4441 
Q 881 4594 1212 4672 
Q 1544 4750 1819 4750 
Q 2544 4750 2975 4387 
Q 3406 4025 3406 3419 
Q 3406 3131 3298 2873 
Q 3191 2616 2906 2266 
Q 2828 2175 2409 1742 
Q 1991 1309 1228 531 
z
" transform="scale(0.015625)"/>
        <path id="DejaVuSans-35" d="M 691 4666 
L 3169 4666 
L 3169 4134 
L 1269 4134 
L 1269 2991 
Q 1406 3038 1543 3061 
Q 1681 3084 1819 3084 
Q 2600 3084 3056 2656 
Q 3513 2228 3513 1497 
Q 3513 744 3044 326 
Q 2575 -91 1722 -91 
Q 1428 -91 1123 -41 
Q 819 9 494 109 
L 494 744 
Q 775 591 1075 516 
Q 1375 441 1709 441 
Q 2250 441 2565 725 
Q 2881 1009 2881 1497 
Q 2881 1984 2565 2268 
Q 2250 2553 1709 2553 
Q 1456 2553 1204 2497 
Q 953 2441 691 2322 
L 691 4666 
z
" transform="scale(0.015625)"/>
        <path id="DejaVuSans-36" d="M 2113 2584 
Q 1688 2584 1439 2293 
Q 1191 2003 1191 1497 
Q 1191 994 1439 701 
Q 1688 409 2113 409 
Q 2538 409 2786 701 
Q 3034 994 3034 1497 
Q 3034 2003 2786 2293 
Q 2538 2584 2113 2584 
z
M 3366 4563 
L 3366 3988 
Q 3128 4100 2886 4159 
Q 2644 4219 2406 4219 
Q 1781 4219 1451 3797 
Q 1122 3375 1075 2522 
Q 1259 2794 1537 2939 
Q 1816 3084 2150 3084 
Q 2853 3084 3261 2657 
Q 3669 2231 3669 1497 
Q 3669 778 3244 343 
Q 2819 -91 2113 -91 
Q 1303 -91 875 529 
Q 447 1150 447 2328 
Q 447 3434 972 4092 
Q 1497 4750 2381 4750 
Q 2619 4750 2861 4703 
Q 3103 4656 3366 4563 
z
" transform="scale(0.015625)"/>
       </defs>
       <use xlink:href="#DejaVuSans-50"/>
       <use xlink:href="#DejaVuSans-2d" x="58.052734"/>
       <use xlink:href="#DejaVuSans-32" x="94.136719"/>
       <use xlink:href="#DejaVuSans-35" x="157.759766"/>
       <use xlink:href="#DejaVuSans-36" x="221.382812"/>
      </g>
     </g>
    </g>
    <g id="xtick_2">
     <g id="text_2">
      <!-- x25519 -->
      <g style="fill: #262626" transform="translate(251.755378 403.442987) rotate(-15) scale(0.12 -0.12)">
       <defs>
        <path id="DejaVuSans-78" d="M 3513 3500 
L 2247 1797 
L 3578 0 
L 2900 0 
L 1881 1375 
L 863 0 
L 184 0 
L 1544 1831 
L 300 3500 
L 978 3500 
L 1906 2253 
L 2834 3500 
L 3513 3500 
z
" transform="scale(0.015625)"/>
        <path id="DejaVuSans-31" d="M 794 531 
L 1825 531 
L 1825 4091 
L 703 3866 
L 703 4441 
L 1819 4666 
L 2450 4666 
L 2450 531 
L 3481 531 
L 3481 0 
L 794 0 
L 794 531 
z
" transform="scale(0.015625)"/>
        <path id="DejaVuSans-39" d="M 703 97 
L 703 672 
Q 941 559 1184 500 
Q 1428 441 1663 441 
Q 2288 441 2617 861 
Q 2947 1281 2994 2138 
Q 2813 1869 2534 1725 
Q 2256 1581 1919 1581 
Q 1219 1581 811 2004 
Q 403 2428 403 3163 
Q 403 3881 828 4315 
Q 1253 4750 1959 4750 
Q 2769 4750 3195 4129 
Q 3622 3509 3622 2328 
Q 3622 1225 3098 567 
Q 2575 -91 1691 -91 
Q 1453 -91 1209 -44 
Q 966 3 703 97 
z
M 1959 2075 
Q 2384 2075 2632 2365 
Q 2881 2656 2881 3163 
Q 2881 3666 2632 3958 
Q 2384 4250 1959 4250 
Q 1534 4250 1286 3958 
Q 1038 3666 1038 3163 
Q 1038 2656 1286 2365 
Q 1534 2075 1959 2075 
z
" transform="scale(0.015625)"/>
       </defs>
       <use xlink:href="#DejaVuSans-78"/>
       <use xlink:href="#DejaVuSans-32" x="59.179688"/>
       <use xlink:href="#DejaVuSans-35" x="122.802734"/>
       <use xlink:href="#DejaVuSans-35" x="186.425781"/>
       <use xlink:href="#DejaVuSans-31" x="250.048828"/>
       <use xlink:href="#DejaVuSans-39" x="313.671875"/>
      </g>
     </g>
    </g>
    <g id="xtick_3">
     <g id="text_3">
      <!-- hqc128 -->
      <g style="fill: #262626" transform="translate(410.831845 403.300313) rotate(-15) scale(0.12 -0.12)">
       <defs>
        <path id="DejaVuSans-68" d="M 3513 2113 
L 3513 0 
L 2938 0 
L 2938 2094 
Q 2938 2591 2744 2837 
Q 2550 3084 2163 3084 
Q 1697 3084 1428 2787 
Q 1159 2491 1159 1978 
L 1159 0 
L 581 0 
L 581 4863 
L 1159 4863 
L 1159 2956 
Q 1366 3272 1645 3428 
Q 1925 3584 2291 3584 
Q 2894 3584 3203 3211 
Q 3513 2838 3513 2113 
z
" transform="scale(0.015625)"/>
        <path id="DejaVuSans-71" d="M 947 1747 
Q 947 1113 1208 752 
Q 1469 391 1925 391 
Q 2381 391 2643 752 
Q 2906 1113 2906 1747 
Q 2906 2381 2643 2742 
Q 2381 3103 1925 3103 
Q 1469 3103 1208 2742 
Q 947 2381 947 1747 
z
M 2906 525 
Q 2725 213 2448 61 
Q 2172 -91 1784 -91 
Q 1150 -91 751 415 
Q 353 922 353 1747 
Q 353 2572 751 3078 
Q 1150 3584 1784 3584 
Q 2172 3584 2448 3432 
Q 2725 3281 2906 2969 
L 2906 3500 
L 3481 3500 
L 3481 -1331 
L 2906 -1331 
L 2906 525 
z
" transform="scale(0.015625)"/>
        <path id="DejaVuSans-63" d="M 3122 3366 
L 3122 2828 
Q 2878 2963 2633 3030 
Q 2388 3097 2138 3097 
Q 1578 3097 1268 2742 
Q 959 2388 959 1747 
Q 959 1106 1268 751 
Q 1578 397 2138 397 
Q 2388 397 2633 464 
Q 2878 531 3122 666 
L 3122 134 
Q 2881 22 2623 -34 
Q 2366 -91 2075 -91 
Q 1284 -91 818 406 
Q 353 903 353 1747 
Q 353 2603 823 3093 
Q 1294 3584 2113 3584 
Q 2378 3584 2631 3529 
Q 2884 3475 3122 3366 
z
" transform="scale(0.015625)"/>
        <path id="DejaVuSans-38" d="M 2034 2216 
Q 1584 2216 1326 1975 
Q 1069 1734 1069 1313 
Q 1069 891 1326 650 
Q 1584 409 2034 409 
Q 2484 409 2743 651 
Q 3003 894 3003 1313 
Q 3003 1734 2745 1975 
Q 2488 2216 2034 2216 
z
M 1403 2484 
Q 997 2584 770 2862 
Q 544 3141 544 3541 
Q 544 4100 942 4425 
Q 1341 4750 2034 4750 
Q 2731 4750 3128 4425 
Q 3525 4100 3525 3541 
Q 3525 3141 3298 2862 
Q 3072 2584 2669 2484 
Q 3125 2378 3379 2068 
Q 3634 1759 3634 1313 
Q 3634 634 3220 271 
Q 2806 -91 2034 -91 
Q 1263 -91 848 271 
Q 434 634 434 1313 
Q 434 1759 690 2068 
Q 947 2378 1403 2484 
z
M 1172 3481 
Q 1172 3119 1398 2916 
Q 1625 2713 2034 2713 
Q 2441 2713 2670 2916 
Q 2900 3119 2900 3481 
Q 2900 3844 2670 4047 
Q 2441 4250 2034 4250 
Q 1625 4250 1398 4047 
Q 1172 3844 1172 3481 
z
" transform="scale(0.015625)"/>
       </defs>
       <use xlink:href="#DejaVuSans-68"/>
       <use xlink:href="#DejaVuSans-71" x="63.378906"/>
       <use xlink:href="#DejaVuSans-63" x="126.855469"/>
       <use xlink:href="#DejaVuSans-31" x="181.835938"/>
       <use xlink:href="#DejaVuSans-32" x="245.458984"/>
       <use xlink:href="#DejaVuSans-38" x="309.082031"/>
      </g>
     </g>
    </g>
    <g id="xtick_4">
     <g id="text_4">
      <!-- p256_hqc128 -->
      <g style="fill: #262626" transform="translate(534.010834 412.753193) rotate(-15) scale(0.12 -0.12)">
       <defs>
        <path id="DejaVuSans-70" d="M 1159 525 
L 1159 -1331 
L 581 -1331 
L 581 3500 
L 1159 3500 
L 1159 2969 
Q 1341 3281 1617 3432 
Q 1894 3584 2278 3584 
Q 2916 3584 3314 3078 
Q 3713 2572 3713 1747 
Q 3713 922 3314 415 
Q 2916 -91 2278 -91 
Q 1894 -91 1617 61 
Q 1341 213 1159 525 
z
M 3116 1747 
Q 3116 2381 2855 2742 
Q 2594 3103 2138 3103 
Q 1681 3103 1420 2742 
Q 1159 2381 1159 1747 
Q 1159 1113 1420 752 
Q 1681 391 2138 391 
Q 2594 391 2855 752 
Q 3116 1113 3116 1747 
z
" transform="scale(0.015625)"/>
        <path id="DejaVuSans-5f" d="M 3263 -1063 
L 3263 -1509 
L -63 -1509 
L -63 -1063 
L 3263 -1063 
z
" transform="scale(0.015625)"/>
       </defs>
       <use xlink:href="#DejaVuSans-70"/>
       <use xlink:href="#DejaVuSans-32" x="63.476562"/>
       <use xlink:href="#DejaVuSans-35" x="127.099609"/>
       <use xlink:href="#DejaVuSans-36" x="190.722656"/>
       <use xlink:href="#DejaVuSans-5f" x="254.345703"/>
       <use xlink:href="#DejaVuSans-68" x="304.345703"/>
       <use xlink:href="#DejaVuSans-71" x="367.724609"/>
       <use xlink:href="#DejaVuSans-63" x="431.201172"/>
       <use xlink:href="#DejaVuSans-31" x="486.181641"/>
       <use xlink:href="#DejaVuSans-32" x="549.804688"/>
       <use xlink:href="#DejaVuSans-38" x="613.427734"/>
      </g>
     </g>
    </g>
    <g id="xtick_5">
     <g id="text_5">
      <!-- x25519_hqc128 -->
      <g style="fill: #262626" transform="translate(678.303202 416.571906) rotate(-15) scale(0.12 -0.12)">
       <use xlink:href="#DejaVuSans-78"/>
       <use xlink:href="#DejaVuSans-32" x="59.179688"/>
       <use xlink:href="#DejaVuSans-35" x="122.802734"/>
       <use xlink:href="#DejaVuSans-35" x="186.425781"/>
       <use xlink:href="#DejaVuSans-31" x="250.048828"/>
       <use xlink:href="#DejaVuSans-39" x="313.671875"/>
       <use xlink:href="#DejaVuSans-5f" x="377.294922"/>
       <use xlink:href="#DejaVuSans-68" x="427.294922"/>
       <use xlink:href="#DejaVuSans-71" x="490.673828"/>
       <use xlink:href="#DejaVuSans-63" x="554.150391"/>
       <use xlink:href="#DejaVuSans-31" x="609.130859"/>
       <use xlink:href="#DejaVuSans-32" x="672.753906"/>
       <use xlink:href="#DejaVuSans-38" x="736.376953"/>
      </g>
     </g>
    </g>
   </g>
   <g id="matplotlib.axis_2">
    <g id="ytick_1">
     <g id="line2d_1">
      <path d="M 58.32 353.229133 
L 851.04 353.229133 
" clip-path="url(#p0b1ec7359c)" style="fill: none; stroke: #cccccc; stroke-linecap: round"/>
     </g>
     <g id="text_6">
      <!-- 100 -->
      <g style="fill: #262626" transform="translate(27.82375 357.408274) scale(0.11 -0.11)">
       <defs>
        <path id="DejaVuSans-30" d="M 2034 4250 
Q 1547 4250 1301 3770 
Q 1056 3291 1056 2328 
Q 1056 1369 1301 889 
Q 1547 409 2034 409 
Q 2525 409 2770 889 
Q 3016 1369 3016 2328 
Q 3016 3291 2770 3770 
Q 2525 4250 2034 4250 
z
M 2034 4750 
Q 2819 4750 3233 4129 
Q 3647 3509 3647 2328 
Q 3647 1150 3233 529 
Q 2819 -91 2034 -91 
Q 1250 -91 836 529 
Q 422 1150 422 2328 
Q 422 3509 836 4129 
Q 1250 4750 2034 4750 
z
" transform="scale(0.015625)"/>
       </defs>
       <use xlink:href="#DejaVuSans-31"/>
       <use xlink:href="#DejaVuSans-30" x="63.623047"/>
       <use xlink:href="#DejaVuSans-30" x="127.246094"/>
      </g>
     </g>
    </g>
    <g id="ytick_2">
     <g id="line2d_2">
      <path d="M 58.32 314.563708 
L 851.04 314.563708 
" clip-path="url(#p0b1ec7359c)" style="fill: none; stroke: #cccccc; stroke-linecap: round"/>
     </g>
     <g id="text_7">
      <!-- 200 -->
      <g style="fill: #262626" transform="translate(27.82375 318.742849) scale(0.11 -0.11)">
       <use xlink:href="#DejaVuSans-32"/>
       <use xlink:href="#DejaVuSans-30" x="63.623047"/>
       <use xlink:href="#DejaVuSans-30" x="127.246094"/>
      </g>
     </g>
    </g>
    <g id="ytick_3">
     <g id="line2d_3">
      <path d="M 58.32 275.898283 
L 851.04 275.898283 
" clip-path="url(#p0b1ec7359c)" style="fill: none; stroke: #cccccc; stroke-linecap: round"/>
     </g>
     <g id="text_8">
      <!-- 300 -->
      <g style="fill: #262626" transform="translate(27.82375 280.077424) scale(0.11 -0.11)">
       <defs>
        <path id="DejaVuSans-33" d="M 2597 2516 
Q 3050 2419 3304 2112 
Q 3559 1806 3559 1356 
Q 3559 666 3084 287 
Q 2609 -91 1734 -91 
Q 1441 -91 1130 -33 
Q 819 25 488 141 
L 488 750 
Q 750 597 1062 519 
Q 1375 441 1716 441 
Q 2309 441 2620 675 
Q 2931 909 2931 1356 
Q 2931 1769 2642 2001 
Q 2353 2234 1838 2234 
L 1294 2234 
L 1294 2753 
L 1863 2753 
Q 2328 2753 2575 2939 
Q 2822 3125 2822 3475 
Q 2822 3834 2567 4026 
Q 2313 4219 1838 4219 
Q 1578 4219 1281 4162 
Q 984 4106 628 3988 
L 628 4550 
Q 988 4650 1302 4700 
Q 1616 4750 1894 4750 
Q 2613 4750 3031 4423 
Q 3450 4097 3450 3541 
Q 3450 3153 3228 2886 
Q 3006 2619 2597 2516 
z
" transform="scale(0.015625)"/>
       </defs>
       <use xlink:href="#DejaVuSans-33"/>
       <use xlink:href="#DejaVuSans-30" x="63.623047"/>
       <use xlink:href="#DejaVuSans-30" x="127.246094"/>
      </g>
     </g>
    </g>
    <g id="ytick_4">
     <g id="line2d_4">
      <path d="M 58.32 237.232858 
L 851.04 237.232858 
" clip-path="url(#p0b1ec7359c)" style="fill: none; stroke: #cccccc; stroke-linecap: round"/>
     </g>
     <g id="text_9">
      <!-- 400 -->
      <g style="fill: #262626" transform="translate(27.82375 241.411999) scale(0.11 -0.11)">
       <defs>
        <path id="DejaVuSans-34" d="M 2419 4116 
L 825 1625 
L 2419 1625 
L 2419 4116 
z
M 2253 4666 
L 3047 4666 
L 3047 1625 
L 3713 1625 
L 3713 1100 
L 3047 1100 
L 3047 0 
L 2419 0 
L 2419 1100 
L 313 1100 
L 313 1709 
L 2253 4666 
z
" transform="scale(0.015625)"/>
       </defs>
       <use xlink:href="#DejaVuSans-34"/>
       <use xlink:href="#DejaVuSans-30" x="63.623047"/>
       <use xlink:href="#DejaVuSans-30" x="127.246094"/>
      </g>
     </g>
    </g>
    <g id="ytick_5">
     <g id="line2d_5">
      <path d="M 58.32 198.567433 
L 851.04 198.567433 
" clip-path="url(#p0b1ec7359c)" style="fill: none; stroke: #cccccc; stroke-linecap: round"/>
     </g>
     <g id="text_10">
      <!-- 500 -->
      <g style="fill: #262626" transform="translate(27.82375 202.746574) scale(0.11 -0.11)">
       <use xlink:href="#DejaVuSans-35"/>
       <use xlink:href="#DejaVuSans-30" x="63.623047"/>
       <use xlink:href="#DejaVuSans-30" x="127.246094"/>
      </g>
     </g>
    </g>
    <g id="ytick_6">
     <g id="line2d_6">
      <path d="M 58.32 159.902008 
L 851.04 159.902008 
" clip-path="url(#p0b1ec7359c)" style="fill: none; stroke: #cccccc; stroke-linecap: round"/>
     </g>
     <g id="text_11">
      <!-- 600 -->
      <g style="fill: #262626" transform="translate(27.82375 164.081149) scale(0.11 -0.11)">
       <use xlink:href="#DejaVuSans-36"/>
       <use xlink:href="#DejaVuSans-30" x="63.623047"/>
       <use xlink:href="#DejaVuSans-30" x="127.246094"/>
      </g>
     </g>
    </g>
    <g id="ytick_7">
     <g id="line2d_7">
      <path d="M 58.32 121.236583 
L 851.04 121.236583 
" clip-path="url(#p0b1ec7359c)" style="fill: none; stroke: #cccccc; stroke-linecap: round"/>
     </g>
     <g id="text_12">
      <!-- 700 -->
      <g style="fill: #262626" transform="translate(27.82375 125.415724) scale(0.11 -0.11)">
       <defs>
        <path id="DejaVuSans-37" d="M 525 4666 
L 3525 4666 
L 3525 4397 
L 1831 0 
L 1172 0 
L 2766 4134 
L 525 4134 
L 525 4666 
z
" transform="scale(0.015625)"/>
       </defs>
       <use xlink:href="#DejaVuSans-37"/>
       <use xlink:href="#DejaVuSans-30" x="63.623047"/>
       <use xlink:href="#DejaVuSans-30" x="127.246094"/>
      </g>
     </g>
    </g>
    <g id="ytick_8">
     <g id="line2d_8">
      <path d="M 58.32 82.571158 
L 851.04 82.571158 
" clip-path="url(#p0b1ec7359c)" style="fill: none; stroke: #cccccc; stroke-linecap: round"/>
     </g>
     <g id="text_13">
      <!-- 800 -->
      <g style="fill: #262626" transform="translate(27.82375 86.750299) scale(0.11 -0.11)">
       <use xlink:href="#DejaVuSans-38"/>
       <use xlink:href="#DejaVuSans-30" x="63.623047"/>
       <use xlink:href="#DejaVuSans-30" x="127.246094"/>
      </g>
     </g>
    </g>
    <g id="ytick_9">
     <g id="line2d_9">
      <path d="M 58.32 43.905733 
L 851.04 43.905733 
" clip-path="url(#p0b1ec7359c)" style="fill: none; stroke: #cccccc; stroke-linecap: round"/>
     </g>
     <g id="text_14">
      <!-- 900 -->
      <g style="fill: #262626" transform="translate(27.82375 48.084874) scale(0.11 -0.11)">
       <use xlink:href="#DejaVuSans-39"/>
       <use xlink:href="#DejaVuSans-30" x="63.623047"/>
       <use xlink:href="#DejaVuSans-30" x="127.246094"/>
      </g>
     </g>
    </g>
    <g id="text_15">
     <!-- Handshake duration (ms) -->
     <g style="fill: #262626" transform="translate(21.328125 276.57625) rotate(-90) scale(0.12 -0.12)">
      <defs>
       <path id="DejaVuSans-48" d="M 628 4666 
L 1259 4666 
L 1259 2753 
L 3553 2753 
L 3553 4666 
L 4184 4666 
L 4184 0 
L 3553 0 
L 3553 2222 
L 1259 2222 
L 1259 0 
L 628 0 
L 628 4666 
z
" transform="scale(0.015625)"/>
       <path id="DejaVuSans-61" d="M 2194 1759 
Q 1497 1759 1228 1600 
Q 959 1441 959 1056 
Q 959 750 1161 570 
Q 1363 391 1709 391 
Q 2188 391 2477 730 
Q 2766 1069 2766 1631 
L 2766 1759 
L 2194 1759 
z
M 3341 1997 
L 3341 0 
L 2766 0 
L 2766 531 
Q 2569 213 2275 61 
Q 1981 -91 1556 -91 
Q 1019 -91 701 211 
Q 384 513 384 1019 
Q 384 1609 779 1909 
Q 1175 2209 1959 2209 
L 2766 2209 
L 2766 2266 
Q 2766 2663 2505 2880 
Q 2244 3097 1772 3097 
Q 1472 3097 1187 3025 
Q 903 2953 641 2809 
L 641 3341 
Q 956 3463 1253 3523 
Q 1550 3584 1831 3584 
Q 2591 3584 2966 3190 
Q 3341 2797 3341 1997 
z
" transform="scale(0.015625)"/>
       <path id="DejaVuSans-6e" d="M 3513 2113 
L 3513 0 
L 2938 0 
L 2938 2094 
Q 2938 2591 2744 2837 
Q 2550 3084 2163 3084 
Q 1697 3084 1428 2787 
Q 1159 2491 1159 1978 
L 1159 0 
L 581 0 
L 581 3500 
L 1159 3500 
L 1159 2956 
Q 1366 3272 1645 3428 
Q 1925 3584 2291 3584 
Q 2894 3584 3203 3211 
Q 3513 2838 3513 2113 
z
" transform="scale(0.015625)"/>
       <path id="DejaVuSans-64" d="M 2906 2969 
L 2906 4863 
L 3481 4863 
L 3481 0 
L 2906 0 
L 2906 525 
Q 2725 213 2448 61 
Q 2172 -91 1784 -91 
Q 1150 -91 751 415 
Q 353 922 353 1747 
Q 353 2572 751 3078 
Q 1150 3584 1784 3584 
Q 2172 3584 2448 3432 
Q 2725 3281 2906 2969 
z
M 947 1747 
Q 947 1113 1208 752 
Q 1469 391 1925 391 
Q 2381 391 2643 752 
Q 2906 1113 2906 1747 
Q 2906 2381 2643 2742 
Q 2381 3103 1925 3103 
Q 1469 3103 1208 2742 
Q 947 2381 947 1747 
z
" transform="scale(0.015625)"/>
       <path id="DejaVuSans-73" d="M 2834 3397 
L 2834 2853 
Q 2591 2978 2328 3040 
Q 2066 3103 1784 3103 
Q 1356 3103 1142 2972 
Q 928 2841 928 2578 
Q 928 2378 1081 2264 
Q 1234 2150 1697 2047 
L 1894 2003 
Q 2506 1872 2764 1633 
Q 3022 1394 3022 966 
Q 3022 478 2636 193 
Q 2250 -91 1575 -91 
Q 1294 -91 989 -36 
Q 684 19 347 128 
L 347 722 
Q 666 556 975 473 
Q 1284 391 1588 391 
Q 1994 391 2212 530 
Q 2431 669 2431 922 
Q 2431 1156 2273 1281 
Q 2116 1406 1581 1522 
L 1381 1569 
Q 847 1681 609 1914 
Q 372 2147 372 2553 
Q 372 3047 722 3315 
Q 1072 3584 1716 3584 
Q 2034 3584 2315 3537 
Q 2597 3491 2834 3397 
z
" transform="scale(0.015625)"/>
       <path id="DejaVuSans-6b" d="M 581 4863 
L 1159 4863 
L 1159 1991 
L 2875 3500 
L 3609 3500 
L 1753 1863 
L 3688 0 
L 2938 0 
L 1159 1709 
L 1159 0 
L 581 0 
L 581 4863 
z
" transform="scale(0.015625)"/>
       <path id="DejaVuSans-65" d="M 3597 1894 
L 3597 1613 
L 953 1613 
Q 991 1019 1311 708 
Q 1631 397 2203 397 
Q 2534 397 2845 478 
Q 3156 559 3463 722 
L 3463 178 
Q 3153 47 2828 -22 
Q 2503 -91 2169 -91 
Q 1331 -91 842 396 
Q 353 884 353 1716 
Q 353 2575 817 3079 
Q 1281 3584 2069 3584 
Q 2775 3584 3186 3129 
Q 3597 2675 3597 1894 
z
M 3022 2063 
Q 3016 2534 2758 2815 
Q 2500 3097 2075 3097 
Q 1594 3097 1305 2825 
Q 1016 2553 972 2059 
L 3022 2063 
z
" transform="scale(0.015625)"/>
       <path id="DejaVuSans-20" transform="scale(0.015625)"/>
       <path id="DejaVuSans-75" d="M 544 1381 
L 544 3500 
L 1119 3500 
L 1119 1403 
Q 1119 906 1312 657 
Q 1506 409 1894 409 
Q 2359 409 2629 706 
Q 2900 1003 2900 1516 
L 2900 3500 
L 3475 3500 
L 3475 0 
L 2900 0 
L 2900 538 
Q 2691 219 2414 64 
Q 2138 -91 1772 -91 
Q 1169 -91 856 284 
Q 544 659 544 1381 
z
M 1991 3584 
L 1991 3584 
z
" transform="scale(0.015625)"/>
       <path id="DejaVuSans-72" d="M 2631 2963 
Q 2534 3019 2420 3045 
Q 2306 3072 2169 3072 
Q 1681 3072 1420 2755 
Q 1159 2438 1159 1844 
L 1159 0 
L 581 0 
L 581 3500 
L 1159 3500 
L 1159 2956 
Q 1341 3275 1631 3429 
Q 1922 3584 2338 3584 
Q 2397 3584 2469 3576 
Q 2541 3569 2628 3553 
L 2631 2963 
z
" transform="scale(0.015625)"/>
       <path id="DejaVuSans-74" d="M 1172 4494 
L 1172 3500 
L 2356 3500 
L 2356 3053 
L 1172 3053 
L 1172 1153 
Q 1172 725 1289 603 
Q 1406 481 1766 481 
L 2356 481 
L 2356 0 
L 1766 0 
Q 1100 0 847 248 
Q 594 497 594 1153 
L 594 3053 
L 172 3053 
L 172 3500 
L 594 3500 
L 594 4494 
L 1172 4494 
z
" transform="scale(0.015625)"/>
       <path id="DejaVuSans-69" d="M 603 3500 
L 1178 3500 
L 1178 0 
L 603 0 
L 603 3500 
z
M 603 4863 
L 1178 4863 
L 1178 4134 
L 603 4134 
L 603 4863 
z
" transform="scale(0.015625)"/>
       <path id="DejaVuSans-6f" d="M 1959 3097 
Q 1497 3097 1228 2736 
Q 959 2375 959 1747 
Q 959 1119 1226 758 
Q 1494 397 1959 397 
Q 2419 397 2687 759 
Q 2956 1122 2956 1747 
Q 2956 2369 2687 2733 
Q 2419 3097 1959 3097 
z
M 1959 3584 
Q 2709 3584 3137 3096 
Q 3566 2609 3566 1747 
Q 3566 888 3137 398 
Q 2709 -91 1959 -91 
Q 1206 -91 779 398 
Q 353 888 353 1747 
Q 353 2609 779 3096 
Q 1206 3584 1959 3584 
z
" transform="scale(0.015625)"/>
       <path id="DejaVuSans-28" d="M 1984 4856 
Q 1566 4138 1362 3434 
Q 1159 2731 1159 2009 
Q 1159 1288 1364 580 
Q 1569 -128 1984 -844 
L 1484 -844 
Q 1016 -109 783 600 
Q 550 1309 550 2009 
Q 550 2706 781 3412 
Q 1013 4119 1484 4856 
L 1984 4856 
z
" transform="scale(0.015625)"/>
       <path id="DejaVuSans-6d" d="M 3328 2828 
Q 3544 3216 3844 3400 
Q 4144 3584 4550 3584 
Q 5097 3584 5394 3201 
Q 5691 2819 5691 2113 
L 5691 0 
L 5113 0 
L 5113 2094 
Q 5113 2597 4934 2840 
Q 4756 3084 4391 3084 
Q 3944 3084 3684 2787 
Q 3425 2491 3425 1978 
L 3425 0 
L 2847 0 
L 2847 2094 
Q 2847 2600 2669 2842 
Q 2491 3084 2119 3084 
Q 1678 3084 1418 2786 
Q 1159 2488 1159 1978 
L 1159 0 
L 581 0 
L 581 3500 
L 1159 3500 
L 1159 2956 
Q 1356 3278 1631 3431 
Q 1906 3584 2284 3584 
Q 2666 3584 2933 3390 
Q 3200 3197 3328 2828 
z
" transform="scale(0.015625)"/>
       <path id="DejaVuSans-29" d="M 513 4856 
L 1013 4856 
Q 1481 4119 1714 3412 
Q 1947 2706 1947 2009 
Q 1947 1309 1714 600 
Q 1481 -109 1013 -844 
L 513 -844 
Q 928 -128 1133 580 
Q 1338 1288 1338 2009 
Q 1338 2731 1133 3434 
Q 928 4138 513 4856 
z
" transform="scale(0.015625)"/>
      </defs>
      <use xlink:href="#DejaVuSans-48"/>
      <use xlink:href="#DejaVuSans-61" x="75.195312"/>
      <use xlink:href="#DejaVuSans-6e" x="136.474609"/>
      <use xlink:href="#DejaVuSans-64" x="199.853516"/>
      <use xlink:href="#DejaVuSans-73" x="263.330078"/>
      <use xlink:href="#DejaVuSans-68" x="315.429688"/>
      <use xlink:href="#DejaVuSans-61" x="378.808594"/>
      <use xlink:href="#DejaVuSans-6b" x="440.087891"/>
      <use xlink:href="#DejaVuSans-65" x="494.373047"/>
      <use xlink:href="#DejaVuSans-20" x="555.896484"/>
      <use xlink:href="#DejaVuSans-64" x="587.683594"/>
      <use xlink:href="#DejaVuSans-75" x="651.160156"/>
      <use xlink:href="#DejaVuSans-72" x="714.539062"/>
      <use xlink:href="#DejaVuSans-61" x="755.652344"/>
      <use xlink:href="#DejaVuSans-74" x="816.931641"/>
      <use xlink:href="#DejaVuSans-69" x="856.140625"/>
      <use xlink:href="#DejaVuSans-6f" x="883.923828"/>
      <use xlink:href="#DejaVuSans-6e" x="945.105469"/>
      <use xlink:href="#DejaVuSans-20" x="1008.484375"/>
      <use xlink:href="#DejaVuSans-28" x="1040.271484"/>
      <use xlink:href="#DejaVuSans-6d" x="1079.285156"/>
      <use xlink:href="#DejaVuSans-73" x="1176.697266"/>
      <use xlink:href="#DejaVuSans-29" x="1228.796875"/>
     </g>
    </g>
   </g>
   <g id="PolyCollection_1">
    <defs>
     <path id="m971e7b16b9" d="M 145.744816 -82.924503 
L 129.439184 -82.924503 
L 122.517638 -84.927704 
L 112.600571 -86.930905 
L 100.441545 -88.934106 
L 88.074557 -90.937307 
L 78.412213 -92.940508 
L 74.1744 -94.943709 
L 76.656893 -96.94691 
L 85.093477 -98.950111 
L 97.036516 -100.953312 
L 109.500145 -102.956512 
L 120.143314 -104.959713 
L 127.87127 -106.962914 
L 132.729704 -108.966115 
L 135.398279 -110.969316 
L 136.681514 -112.972517 
L 137.216698 -114.975718 
L 137.402836 -116.978919 
L 137.450006 -118.98212 
L 137.454826 -120.985321 
L 137.456643 -122.988522 
L 137.468138 -124.991723 
L 137.48957 -126.994924 
L 137.515915 -128.998125 
L 137.541306 -131.001325 
L 137.561712 -133.004526 
L 137.575775 -135.007727 
L 137.584207 -137.010928 
L 137.588644 -139.014129 
L 137.590704 -141.01733 
L 137.591551 -143.020531 
L 137.591861 -145.023732 
L 137.591961 -147.026933 
L 137.59199 -149.030134 
L 137.591998 -151.033335 
L 137.592 -153.036536 
L 137.592 -155.039737 
L 137.592 -157.042938 
L 137.592 -159.046139 
L 137.592 -161.049339 
L 137.592 -163.05254 
L 137.592 -165.055741 
L 137.592 -167.058942 
L 137.591998 -169.062143 
L 137.591989 -171.065344 
L 137.591949 -173.068545 
L 137.591782 -175.071746 
L 137.591162 -177.074947 
L 137.589114 -179.078148 
L 137.583089 -181.081349 
L 137.567328 -183.08455 
L 137.530753 -185.087751 
L 137.455673 -187.090952 
L 137.319924 -189.094153 
L 137.105134 -191.097353 
L 136.810838 -193.100554 
L 136.468213 -195.103755 
L 136.142432 -197.106956 
L 135.915495 -199.110157 
L 135.853467 -201.113358 
L 135.975512 -203.116559 
L 136.24436 -205.11976 
L 136.584635 -207.122961 
L 136.916833 -209.126162 
L 137.18626 -211.129363 
L 137.373377 -213.132564 
L 137.486378 -215.135765 
L 137.546246 -217.138966 
L 137.574229 -219.142166 
L 137.585811 -221.145367 
L 137.590068 -223.148568 
L 137.591459 -225.151769 
L 137.591864 -227.15497 
L 137.591969 -229.158171 
L 137.591994 -231.161372 
L 137.591999 -233.164573 
L 137.592 -235.167774 
L 137.592 -237.170975 
L 137.591999 -239.174176 
L 137.591993 -241.177377 
L 137.591969 -243.180578 
L 137.591881 -245.183779 
L 137.591586 -247.18698 
L 137.590714 -249.19018 
L 137.588416 -251.193381 
L 137.583047 -253.196582 
L 137.571944 -255.199783 
L 137.551715 -257.202984 
L 137.519446 -259.206185 
L 137.474834 -261.209386 
L 137.422345 -263.212587 
L 137.37173 -265.215788 
L 137.33557 -267.218989 
L 137.324326 -269.22219 
L 137.341466 -271.225391 
L 137.381742 -273.228592 
L 137.43378 -275.231793 
L 137.485244 -277.234993 
L 137.527412 -279.238194 
L 137.556963 -281.241395 
L 137.627037 -281.241395 
L 137.627037 -281.241395 
L 137.656588 -279.238194 
L 137.698756 -277.234993 
L 137.75022 -275.231793 
L 137.802258 -273.228592 
L 137.842534 -271.225391 
L 137.859674 -269.22219 
L 137.84843 -267.218989 
L 137.81227 -265.215788 
L 137.761655 -263.212587 
L 137.709166 -261.209386 
L 137.664554 -259.206185 
L 137.632285 -257.202984 
L 137.612056 -255.199783 
L 137.600953 -253.196582 
L 137.595584 -251.193381 
L 137.593286 -249.19018 
L 137.592414 -247.18698 
L 137.592119 -245.183779 
L 137.592031 -243.180578 
L 137.592007 -241.177377 
L 137.592001 -239.174176 
L 137.592 -237.170975 
L 137.592 -235.167774 
L 137.592001 -233.164573 
L 137.592006 -231.161372 
L 137.592031 -229.158171 
L 137.592136 -227.15497 
L 137.592541 -225.151769 
L 137.593932 -223.148568 
L 137.598189 -221.145367 
L 137.609771 -219.142166 
L 137.637754 -217.138966 
L 137.697622 -215.135765 
L 137.810623 -213.132564 
L 137.99774 -211.129363 
L 138.267167 -209.126162 
L 138.599365 -207.122961 
L 138.93964 -205.11976 
L 139.208488 -203.116559 
L 139.330533 -201.113358 
L 139.268505 -199.110157 
L 139.041568 -197.106956 
L 138.715787 -195.103755 
L 138.373162 -193.100554 
L 138.078866 -191.097353 
L 137.864076 -189.094153 
L 137.728327 -187.090952 
L 137.653247 -185.087751 
L 137.616672 -183.08455 
L 137.600911 -181.081349 
L 137.594886 -179.078148 
L 137.592838 -177.074947 
L 137.592218 -175.071746 
L 137.592051 -173.068545 
L 137.592011 -171.065344 
L 137.592002 -169.062143 
L 137.592 -167.058942 
L 137.592 -165.055741 
L 137.592 -163.05254 
L 137.592 -161.049339 
L 137.592 -159.046139 
L 137.592 -157.042938 
L 137.592 -155.039737 
L 137.592 -153.036536 
L 137.592002 -151.033335 
L 137.59201 -149.030134 
L 137.592039 -147.026933 
L 137.592139 -145.023732 
L 137.592449 -143.020531 
L 137.593296 -141.01733 
L 137.595356 -139.014129 
L 137.599793 -137.010928 
L 137.608225 -135.007727 
L 137.622288 -133.004526 
L 137.642694 -131.001325 
L 137.668085 -128.998125 
L 137.69443 -126.994924 
L 137.715862 -124.991723 
L 137.727357 -122.988522 
L 137.729174 -120.985321 
L 137.733994 -118.98212 
L 137.781164 -116.978919 
L 137.967302 -114.975718 
L 138.502486 -112.972517 
L 139.785721 -110.969316 
L 142.454296 -108.966115 
L 147.31273 -106.962914 
L 155.040686 -104.959713 
L 165.683855 -102.956512 
L 178.147484 -100.953312 
L 190.090523 -98.950111 
L 198.527107 -96.94691 
L 201.0096 -94.943709 
L 196.771787 -92.940508 
L 187.109443 -90.937307 
L 174.742455 -88.934106 
L 162.583429 -86.930905 
L 152.666362 -84.927704 
L 145.744816 -82.924503 
z
" style="stroke: #595959; stroke-width: 1.25"/>
    </defs>
    <g clip-path="url(#p0b1ec7359c)">
     <use xlink:href="#m971e7b16b9" x="0" y="432" style="fill: #72b6a1; stroke: #595959; stroke-width: 1.25"/>
    </g>
   </g>
   <g id="PolyCollection_2">
    <defs>
     <path id="m851731476b" d="M 304.0826 -86.880472 
L 288.1894 -86.880472 
L 281.998361 -88.112385 
L 273.220611 -89.344298 
L 262.295823 -90.576212 
L 250.606454 -91.808125 
L 240.326317 -93.040038 
L 233.808224 -94.271952 
L 232.7184 -95.503865 
L 237.34723 -96.735778 
L 246.484127 -97.967692 
L 257.929795 -99.199605 
L 269.351132 -100.431518 
L 279.027861 -101.663432 
L 286.180247 -102.895345 
L 290.857578 -104.127258 
L 293.586265 -105.359172 
L 295.013819 -106.591085 
L 295.685877 -107.822998 
L 295.971083 -109.054912 
L 296.07985 -110.286825 
L 296.115962 -111.518738 
L 296.123908 -112.750652 
L 296.11995 -113.982565 
L 296.108812 -115.214478 
L 296.091615 -116.446392 
L 296.069491 -117.678305 
L 296.045121 -118.910218 
L 296.022853 -120.142132 
L 296.00766 -121.374045 
L 296.003376 -122.605958 
L 296.011141 -123.837872 
L 296.028909 -125.069785 
L 296.05232 -126.301698 
L 296.076429 -127.533612 
L 296.097365 -128.765525 
L 296.113172 -129.997438 
L 296.123712 -131.229352 
L 296.129974 -132.461265 
L 296.133308 -133.693178 
L 296.134904 -134.925092 
L 296.135594 -136.157005 
L 296.135863 -137.388918 
L 296.135958 -138.620832 
L 296.135988 -139.852745 
L 296.135997 -141.084658 
L 296.135999 -142.316572 
L 296.136 -143.548485 
L 296.136 -144.780398 
L 296.136 -146.012312 
L 296.136 -147.244225 
L 296.136 -148.476138 
L 296.136 -149.708052 
L 296.136 -150.939965 
L 296.136 -152.171878 
L 296.136 -153.403792 
L 296.136 -154.635705 
L 296.136 -155.867618 
L 296.136 -157.099532 
L 296.136 -158.331445 
L 296.136 -159.563358 
L 296.136 -160.795272 
L 296.136 -162.027185 
L 296.136 -163.259098 
L 296.136 -164.491012 
L 296.136 -165.722925 
L 296.136 -166.954838 
L 296.136 -168.186752 
L 296.136 -169.418665 
L 296.136 -170.650578 
L 296.136 -171.882492 
L 296.136 -173.114405 
L 296.136 -174.346318 
L 296.136 -175.578232 
L 296.136 -176.810145 
L 296.136 -178.042058 
L 296.135999 -179.273972 
L 296.135996 -180.505885 
L 296.135982 -181.737798 
L 296.135929 -182.969712 
L 296.135741 -184.201625 
L 296.135142 -185.433538 
L 296.133409 -186.665452 
L 296.128871 -187.897365 
L 296.118132 -189.129278 
L 296.095198 -190.361192 
L 296.051114 -191.593105 
L 295.975104 -192.825018 
L 295.858154 -194.056932 
L 295.698865 -195.288845 
L 295.509418 -196.520758 
L 295.317739 -197.752672 
L 295.162453 -198.984585 
L 295.080707 -200.216498 
L 295.093824 -201.448412 
L 295.198309 -202.680325 
L 295.367348 -203.912238 
L 295.561948 -205.144152 
L 295.745408 -206.376065 
L 295.893871 -207.607978 
L 295.999252 -208.839892 
L 296.272748 -208.839892 
L 296.272748 -208.839892 
L 296.378129 -207.607978 
L 296.526592 -206.376065 
L 296.710052 -205.144152 
L 296.904652 -203.912238 
L 297.073691 -202.680325 
L 297.178176 -201.448412 
L 297.191293 -200.216498 
L 297.109547 -198.984585 
L 296.954261 -197.752672 
L 296.762582 -196.520758 
L 296.573135 -195.288845 
L 296.413846 -194.056932 
L 296.296896 -192.825018 
L 296.220886 -191.593105 
L 296.176802 -190.361192 
L 296.153868 -189.129278 
L 296.143129 -187.897365 
L 296.138591 -186.665452 
L 296.136858 -185.433538 
L 296.136259 -184.201625 
L 296.136071 -182.969712 
L 296.136018 -181.737798 
L 296.136004 -180.505885 
L 296.136001 -179.273972 
L 296.136 -178.042058 
L 296.136 -176.810145 
L 296.136 -175.578232 
L 296.136 -174.346318 
L 296.136 -173.114405 
L 296.136 -171.882492 
L 296.136 -170.650578 
L 296.136 -169.418665 
L 296.136 -168.186752 
L 296.136 -166.954838 
L 296.136 -165.722925 
L 296.136 -164.491012 
L 296.136 -163.259098 
L 296.136 -162.027185 
L 296.136 -160.795272 
L 296.136 -159.563358 
L 296.136 -158.331445 
L 296.136 -157.099532 
L 296.136 -155.867618 
L 296.136 -154.635705 
L 296.136 -153.403792 
L 296.136 -152.171878 
L 296.136 -150.939965 
L 296.136 -149.708052 
L 296.136 -148.476138 
L 296.136 -147.244225 
L 296.136 -146.012312 
L 296.136 -144.780398 
L 296.136 -143.548485 
L 296.136001 -142.316572 
L 296.136003 -141.084658 
L 296.136012 -139.852745 
L 296.136042 -138.620832 
L 296.136137 -137.388918 
L 296.136406 -136.157005 
L 296.137096 -134.925092 
L 296.138692 -133.693178 
L 296.142026 -132.461265 
L 296.148288 -131.229352 
L 296.158828 -129.997438 
L 296.174635 -128.765525 
L 296.195571 -127.533612 
L 296.21968 -126.301698 
L 296.243091 -125.069785 
L 296.260859 -123.837872 
L 296.268624 -122.605958 
L 296.26434 -121.374045 
L 296.249147 -120.142132 
L 296.226879 -118.910218 
L 296.202509 -117.678305 
L 296.180385 -116.446392 
L 296.163188 -115.214478 
L 296.15205 -113.982565 
L 296.148092 -112.750652 
L 296.156038 -111.518738 
L 296.19215 -110.286825 
L 296.300917 -109.054912 
L 296.586123 -107.822998 
L 297.258181 -106.591085 
L 298.685735 -105.359172 
L 301.414422 -104.127258 
L 306.091753 -102.895345 
L 313.244139 -101.663432 
L 322.920868 -100.431518 
L 334.342205 -99.199605 
L 345.787873 -97.967692 
L 354.92477 -96.735778 
L 359.5536 -95.503865 
L 358.463776 -94.271952 
L 351.945683 -93.040038 
L 341.665546 -91.808125 
L 329.976177 -90.576212 
L 319.051389 -89.344298 
L 310.273639 -88.112385 
L 304.0826 -86.880472 
z
" style="stroke: #595959; stroke-width: 1.25"/>
    </defs>
    <g clip-path="url(#p0b1ec7359c)">
     <use xlink:href="#m851731476b" x="0" y="432" style="fill: #e99675; stroke: #595959; stroke-width: 1.25"/>
    </g>
   </g>
   <g id="PolyCollection_3">
    <defs>
     <path id="m30f1c784c2" d="M 462.638921 -74.302074 
L 446.721079 -74.302074 
L 441.995107 -77.477619 
L 435.622813 -80.653164 
L 427.691656 -83.82871 
L 418.651543 -87.004255 
L 409.340738 -90.1798 
L 400.893786 -93.355345 
L 394.528665 -96.530891 
L 391.2624 -99.706436 
L 391.645121 -102.881981 
L 395.608067 -106.057526 
L 402.483291 -109.233071 
L 411.187381 -112.408617 
L 420.499861 -115.584162 
L 429.338258 -118.759707 
L 436.946581 -121.935252 
L 442.959513 -125.110798 
L 447.355343 -128.286343 
L 450.343684 -131.461888 
L 452.240486 -134.637433 
L 453.368333 -137.812978 
L 453.997564 -140.988524 
L 454.325106 -144.164069 
L 454.478419 -147.339614 
L 454.531087 -150.515159 
L 454.520486 -153.690705 
L 454.462843 -156.86625 
L 454.364538 -160.041795 
L 454.230103 -163.21734 
L 454.067531 -166.392885 
L 453.891003 -169.568431 
L 453.72083 -172.743976 
L 453.580585 -175.919521 
L 453.492163 -179.095066 
L 453.47032 -182.270612 
L 453.518629 -185.446157 
L 453.628386 -188.621702 
L 453.780895 -191.797247 
L 453.952244 -194.972792 
L 454.118848 -198.148338 
L 454.262002 -201.323883 
L 454.370358 -204.499428 
L 454.440223 -207.674973 
L 454.474306 -210.850519 
L 454.479769 -214.026064 
L 454.466251 -217.201609 
L 454.444122 -220.377154 
L 454.422997 -223.552699 
L 454.410468 -226.728245 
L 454.411165 -229.90379 
L 454.42633 -233.079335 
L 454.454063 -236.25488 
L 454.490231 -239.430426 
L 454.529749 -242.605971 
L 454.567879 -245.781516 
L 454.60115 -248.957061 
L 454.627741 -252.132606 
L 454.64736 -255.308152 
L 454.660788 -258.483697 
L 454.669344 -261.659242 
L 454.67443 -264.834787 
L 454.677256 -268.010333 
L 454.678726 -271.185878 
L 454.679443 -274.361423 
L 454.67977 -277.536968 
L 454.679911 -280.712514 
L 454.679967 -283.888059 
L 454.679989 -287.063604 
L 454.679996 -290.239149 
L 454.679997 -293.414694 
L 454.679995 -296.59024 
L 454.679983 -299.765785 
L 454.679947 -302.94133 
L 454.679844 -306.116875 
L 454.679567 -309.292421 
L 454.678866 -312.467966 
L 454.677201 -315.643511 
L 454.673487 -318.819056 
L 454.665721 -321.994601 
L 454.650497 -325.170147 
L 454.622555 -328.345692 
L 454.574591 -331.521237 
L 454.497724 -334.696782 
L 454.382961 -337.872328 
L 454.223831 -341.047873 
L 454.019809 -344.223418 
L 453.779584 -347.398963 
L 453.522698 -350.574508 
L 453.278218 -353.750054 
L 453.079909 -356.925599 
L 452.958771 -360.101144 
L 452.935131 -363.276689 
L 453.01307 -366.452235 
L 453.179273 -369.62778 
L 453.406742 -372.803325 
L 453.661969 -375.97887 
L 453.912928 -379.154415 
L 454.135321 -382.329961 
L 454.315518 -385.505506 
L 454.450152 -388.681051 
L 454.909848 -388.681051 
L 454.909848 -388.681051 
L 455.044482 -385.505506 
L 455.224679 -382.329961 
L 455.447072 -379.154415 
L 455.698031 -375.97887 
L 455.953258 -372.803325 
L 456.180727 -369.62778 
L 456.34693 -366.452235 
L 456.424869 -363.276689 
L 456.401229 -360.101144 
L 456.280091 -356.925599 
L 456.081782 -353.750054 
L 455.837302 -350.574508 
L 455.580416 -347.398963 
L 455.340191 -344.223418 
L 455.136169 -341.047873 
L 454.977039 -337.872328 
L 454.862276 -334.696782 
L 454.785409 -331.521237 
L 454.737445 -328.345692 
L 454.709503 -325.170147 
L 454.694279 -321.994601 
L 454.686513 -318.819056 
L 454.682799 -315.643511 
L 454.681134 -312.467966 
L 454.680433 -309.292421 
L 454.680156 -306.116875 
L 454.680053 -302.94133 
L 454.680017 -299.765785 
L 454.680005 -296.59024 
L 454.680003 -293.414694 
L 454.680004 -290.239149 
L 454.680011 -287.063604 
L 454.680033 -283.888059 
L 454.680089 -280.712514 
L 454.68023 -277.536968 
L 454.680557 -274.361423 
L 454.681274 -271.185878 
L 454.682744 -268.010333 
L 454.68557 -264.834787 
L 454.690656 -261.659242 
L 454.699212 -258.483697 
L 454.71264 -255.308152 
L 454.732259 -252.132606 
L 454.75885 -248.957061 
L 454.792121 -245.781516 
L 454.830251 -242.605971 
L 454.869769 -239.430426 
L 454.905937 -236.25488 
L 454.93367 -233.079335 
L 454.948835 -229.90379 
L 454.949532 -226.728245 
L 454.937003 -223.552699 
L 454.915878 -220.377154 
L 454.893749 -217.201609 
L 454.880231 -214.026064 
L 454.885694 -210.850519 
L 454.919777 -207.674973 
L 454.989642 -204.499428 
L 455.097998 -201.323883 
L 455.241152 -198.148338 
L 455.407756 -194.972792 
L 455.579105 -191.797247 
L 455.731614 -188.621702 
L 455.841371 -185.446157 
L 455.88968 -182.270612 
L 455.867837 -179.095066 
L 455.779415 -175.919521 
L 455.63917 -172.743976 
L 455.468997 -169.568431 
L 455.292469 -166.392885 
L 455.129897 -163.21734 
L 454.995462 -160.041795 
L 454.897157 -156.86625 
L 454.839514 -153.690705 
L 454.828913 -150.515159 
L 454.881581 -147.339614 
L 455.034894 -144.164069 
L 455.362436 -140.988524 
L 455.991667 -137.812978 
L 457.119514 -134.637433 
L 459.016316 -131.461888 
L 462.004657 -128.286343 
L 466.400487 -125.110798 
L 472.413419 -121.935252 
L 480.021742 -118.759707 
L 488.860139 -115.584162 
L 498.172619 -112.408617 
L 506.876709 -109.233071 
L 513.751933 -106.057526 
L 517.714879 -102.881981 
L 518.0976 -99.706436 
L 514.831335 -96.530891 
L 508.466214 -93.355345 
L 500.019262 -90.1798 
L 490.708457 -87.004255 
L 481.668344 -83.82871 
L 473.737187 -80.653164 
L 467.364893 -77.477619 
L 462.638921 -74.302074 
z
" style="stroke: #595959; stroke-width: 1.25"/>
    </defs>
    <g clip-path="url(#p0b1ec7359c)">
     <use xlink:href="#m30f1c784c2" x="0" y="432" style="fill: #95a3c3; stroke: #595959; stroke-width: 1.25"/>
    </g>
   </g>
   <g id="PolyCollection_4">
    <defs>
     <path id="m5c94769b3c" d="M 620.516452 -82.346187 
L 605.931548 -82.346187 
L 600.326554 -85.419137 
L 592.320236 -88.492087 
L 582.172084 -91.565037 
L 570.942256 -94.637986 
L 560.4426 -97.710936 
L 552.809477 -100.783886 
L 549.8064 -103.856836 
L 552.16213 -106.929785 
L 559.283143 -110.002735 
L 569.495067 -113.075685 
L 580.679298 -116.148635 
L 590.975443 -119.221584 
L 599.23775 -122.294534 
L 605.120642 -125.367484 
L 608.874914 -128.440434 
L 611.036996 -131.513384 
L 612.168296 -134.586333 
L 612.712563 -137.659283 
L 612.96015 -140.732233 
L 613.073395 -143.805183 
L 613.130425 -146.878132 
L 613.163148 -149.951082 
L 613.181802 -153.024032 
L 613.1875 -156.096982 
L 613.177044 -159.169931 
L 613.144188 -162.242881 
L 613.080446 -165.315831 
L 612.977423 -168.388781 
L 612.831234 -171.46173 
L 612.64786 -174.53468 
L 612.446739 -177.60763 
L 612.259537 -180.68058 
L 612.122795 -183.75353 
L 612.066463 -186.826479 
L 612.103242 -189.899429 
L 612.223965 -192.972379 
L 612.401301 -196.045329 
L 612.599752 -199.118278 
L 612.786989 -202.191228 
L 612.941688 -205.264178 
L 613.055693 -208.337128 
L 613.131404 -211.410077 
L 613.176997 -214.483027 
L 613.201992 -217.555977 
L 613.214498 -220.628927 
L 613.220219 -223.701876 
L 613.222614 -226.774826 
L 613.223532 -229.847776 
L 613.223855 -232.920726 
L 613.223958 -235.993676 
L 613.223989 -239.066625 
L 613.223997 -242.139575 
L 613.223999 -245.212525 
L 613.224 -248.285475 
L 613.224 -251.358424 
L 613.224 -254.431374 
L 613.224 -257.504324 
L 613.224 -260.577274 
L 613.224 -263.650223 
L 613.224 -266.723173 
L 613.224 -269.796123 
L 613.224 -272.869073 
L 613.224 -275.942022 
L 613.224 -279.014972 
L 613.224 -282.087922 
L 613.224 -285.160872 
L 613.224 -288.233821 
L 613.224 -291.306771 
L 613.224 -294.379721 
L 613.224 -297.452671 
L 613.224 -300.525621 
L 613.224 -303.59857 
L 613.224 -306.67152 
L 613.223999 -309.74447 
L 613.223996 -312.81742 
L 613.223982 -315.890369 
L 613.22393 -318.963319 
L 613.223755 -322.036269 
L 613.22321 -325.109219 
L 613.221667 -328.182168 
L 613.217692 -331.255118 
L 613.208384 -334.328068 
L 613.188603 -337.401018 
L 613.150529 -340.473967 
L 613.084359 -343.546917 
L 612.980971 -346.619867 
L 612.836688 -349.692817 
L 612.658772 -352.765767 
L 612.468645 -355.838716 
L 612.299624 -358.911666 
L 612.188094 -361.984616 
L 612.160909 -365.057566 
L 612.224913 -368.130515 
L 612.364147 -371.203465 
L 612.546302 -374.276415 
L 612.734847 -377.349365 
L 612.900665 -380.422314 
L 613.028267 -383.495264 
L 613.115486 -386.568214 
L 613.332514 -386.568214 
L 613.332514 -386.568214 
L 613.419733 -383.495264 
L 613.547335 -380.422314 
L 613.713153 -377.349365 
L 613.901698 -374.276415 
L 614.083853 -371.203465 
L 614.223087 -368.130515 
L 614.287091 -365.057566 
L 614.259906 -361.984616 
L 614.148376 -358.911666 
L 613.979355 -355.838716 
L 613.789228 -352.765767 
L 613.611312 -349.692817 
L 613.467029 -346.619867 
L 613.363641 -343.546917 
L 613.297471 -340.473967 
L 613.259397 -337.401018 
L 613.239616 -334.328068 
L 613.230308 -331.255118 
L 613.226333 -328.182168 
L 613.22479 -325.109219 
L 613.224245 -322.036269 
L 613.22407 -318.963319 
L 613.224018 -315.890369 
L 613.224004 -312.81742 
L 613.224001 -309.74447 
L 613.224 -306.67152 
L 613.224 -303.59857 
L 613.224 -300.525621 
L 613.224 -297.452671 
L 613.224 -294.379721 
L 613.224 -291.306771 
L 613.224 -288.233821 
L 613.224 -285.160872 
L 613.224 -282.087922 
L 613.224 -279.014972 
L 613.224 -275.942022 
L 613.224 -272.869073 
L 613.224 -269.796123 
L 613.224 -266.723173 
L 613.224 -263.650223 
L 613.224 -260.577274 
L 613.224 -257.504324 
L 613.224 -254.431374 
L 613.224 -251.358424 
L 613.224 -248.285475 
L 613.224001 -245.212525 
L 613.224003 -242.139575 
L 613.224011 -239.066625 
L 613.224042 -235.993676 
L 613.224145 -232.920726 
L 613.224468 -229.847776 
L 613.225386 -226.774826 
L 613.227781 -223.701876 
L 613.233502 -220.628927 
L 613.246008 -217.555977 
L 613.271003 -214.483027 
L 613.316596 -211.410077 
L 613.392307 -208.337128 
L 613.506312 -205.264178 
L 613.661011 -202.191228 
L 613.848248 -199.118278 
L 614.046699 -196.045329 
L 614.224035 -192.972379 
L 614.344758 -189.899429 
L 614.381537 -186.826479 
L 614.325205 -183.75353 
L 614.188463 -180.68058 
L 614.001261 -177.60763 
L 613.80014 -174.53468 
L 613.616766 -171.46173 
L 613.470577 -168.388781 
L 613.367554 -165.315831 
L 613.303812 -162.242881 
L 613.270956 -159.169931 
L 613.2605 -156.096982 
L 613.266198 -153.024032 
L 613.284852 -149.951082 
L 613.317575 -146.878132 
L 613.374605 -143.805183 
L 613.48785 -140.732233 
L 613.735437 -137.659283 
L 614.279704 -134.586333 
L 615.411004 -131.513384 
L 617.573086 -128.440434 
L 621.327358 -125.367484 
L 627.21025 -122.294534 
L 635.472557 -119.221584 
L 645.768702 -116.148635 
L 656.952933 -113.075685 
L 667.164857 -110.002735 
L 674.28587 -106.929785 
L 676.6416 -103.856836 
L 673.638523 -100.783886 
L 666.0054 -97.710936 
L 655.505744 -94.637986 
L 644.275916 -91.565037 
L 634.127764 -88.492087 
L 626.121446 -85.419137 
L 620.516452 -82.346187 
z
" style="stroke: #595959; stroke-width: 1.25"/>
    </defs>
    <g clip-path="url(#p0b1ec7359c)">
     <use xlink:href="#m5c94769b3c" x="0" y="432" style="fill: #db96c0; stroke: #595959; stroke-width: 1.25"/>
    </g>
   </g>
   <g id="PolyCollection_5">
    <defs>
     <path id="mce12796703" d="M 779.0049 -86.945809 
L 764.5311 -86.945809 
L 755.948001 -89.883891 
L 742.721701 -92.821973 
L 726.955552 -95.760055 
L 713.64432 -98.698137 
L 708.3504 -101.636219 
L 713.522924 -104.574301 
L 726.703938 -107.512383 
L 742.370645 -110.450465 
L 755.578655 -113.388547 
L 764.22111 -116.326629 
L 768.761144 -119.264711 
L 770.701258 -122.202793 
L 771.376388 -125.140875 
L 771.57043 -128.078957 
L 771.628527 -131.017039 
L 771.664437 -133.955121 
L 771.69955 -136.893203 
L 771.729582 -139.831285 
L 771.749884 -142.769367 
L 771.760839 -145.707449 
L 771.765623 -148.645531 
L 771.767301 -151.583613 
L 771.767599 -154.521695 
L 771.766725 -157.459777 
L 771.762738 -160.397859 
L 771.749296 -163.335941 
L 771.711882 -166.274023 
L 771.625785 -169.212105 
L 771.463103 -172.150187 
L 771.214017 -175.088269 
L 770.913386 -178.026351 
L 770.646655 -180.964433 
L 770.514658 -183.902515 
L 770.573319 -186.840597 
L 770.796283 -189.778679 
L 771.093604 -192.71676 
L 771.368896 -195.654842 
L 771.566845 -198.592924 
L 771.681791 -201.531006 
L 771.736641 -204.469088 
L 771.758336 -207.40717 
L 771.765482 -210.345252 
L 771.767446 -213.283334 
L 771.767897 -216.221416 
L 771.767984 -219.159498 
L 771.767998 -222.09758 
L 771.768 -225.035662 
L 771.768 -227.973744 
L 771.768 -230.911826 
L 771.768 -233.849908 
L 771.768 -236.78799 
L 771.768 -239.726072 
L 771.768 -242.664154 
L 771.768 -245.602236 
L 771.768 -248.540318 
L 771.768 -251.4784 
L 771.768 -254.416482 
L 771.768 -257.354564 
L 771.768 -260.292646 
L 771.768 -263.230728 
L 771.768 -266.16881 
L 771.768 -269.106892 
L 771.768 -272.044974 
L 771.768 -274.983056 
L 771.768 -277.921138 
L 771.768 -280.85922 
L 771.768 -283.797302 
L 771.768 -286.735384 
L 771.768 -289.673466 
L 771.768 -292.611548 
L 771.768 -295.54963 
L 771.768 -298.487712 
L 771.768 -301.425794 
L 771.768 -304.363876 
L 771.768 -307.301958 
L 771.768 -310.24004 
L 771.768 -313.178122 
L 771.768 -316.116204 
L 771.768 -319.054286 
L 771.768 -321.992368 
L 771.768 -324.93045 
L 771.767999 -327.868532 
L 771.767992 -330.806614 
L 771.76795 -333.744696 
L 771.76773 -336.682778 
L 771.76677 -339.62086 
L 771.7633 -342.558942 
L 771.75295 -345.497024 
L 771.727616 -348.435106 
L 771.677193 -351.373188 
L 771.596895 -354.31127 
L 771.497825 -357.249352 
L 771.410507 -360.187434 
L 771.371601 -363.125516 
L 771.399663 -366.063598 
L 771.481182 -369.00168 
L 771.580838 -371.939762 
L 771.665651 -374.877844 
L 771.721096 -377.815926 
L 771.814904 -377.815926 
L 771.814904 -377.815926 
L 771.870349 -374.877844 
L 771.955162 -371.939762 
L 772.054818 -369.00168 
L 772.136337 -366.063598 
L 772.164399 -363.125516 
L 772.125493 -360.187434 
L 772.038175 -357.249352 
L 771.939105 -354.31127 
L 771.858807 -351.373188 
L 771.808384 -348.435106 
L 771.78305 -345.497024 
L 771.7727 -342.558942 
L 771.76923 -339.62086 
L 771.76827 -336.682778 
L 771.76805 -333.744696 
L 771.768008 -330.806614 
L 771.768001 -327.868532 
L 771.768 -324.93045 
L 771.768 -321.992368 
L 771.768 -319.054286 
L 771.768 -316.116204 
L 771.768 -313.178122 
L 771.768 -310.24004 
L 771.768 -307.301958 
L 771.768 -304.363876 
L 771.768 -301.425794 
L 771.768 -298.487712 
L 771.768 -295.54963 
L 771.768 -292.611548 
L 771.768 -289.673466 
L 771.768 -286.735384 
L 771.768 -283.797302 
L 771.768 -280.85922 
L 771.768 -277.921138 
L 771.768 -274.983056 
L 771.768 -272.044974 
L 771.768 -269.106892 
L 771.768 -266.16881 
L 771.768 -263.230728 
L 771.768 -260.292646 
L 771.768 -257.354564 
L 771.768 -254.416482 
L 771.768 -251.4784 
L 771.768 -248.540318 
L 771.768 -245.602236 
L 771.768 -242.664154 
L 771.768 -239.726072 
L 771.768 -236.78799 
L 771.768 -233.849908 
L 771.768 -230.911826 
L 771.768 -227.973744 
L 771.768 -225.035662 
L 771.768002 -222.09758 
L 771.768016 -219.159498 
L 771.768103 -216.221416 
L 771.768554 -213.283334 
L 771.770518 -210.345252 
L 771.777664 -207.40717 
L 771.799359 -204.469088 
L 771.854209 -201.531006 
L 771.969155 -198.592924 
L 772.167104 -195.654842 
L 772.442396 -192.71676 
L 772.739717 -189.778679 
L 772.962681 -186.840597 
L 773.021342 -183.902515 
L 772.889345 -180.964433 
L 772.622614 -178.026351 
L 772.321983 -175.088269 
L 772.072897 -172.150187 
L 771.910215 -169.212105 
L 771.824118 -166.274023 
L 771.786704 -163.335941 
L 771.773262 -160.397859 
L 771.769275 -157.459777 
L 771.768401 -154.521695 
L 771.768699 -151.583613 
L 771.770377 -148.645531 
L 771.775161 -145.707449 
L 771.786116 -142.769367 
L 771.806418 -139.831285 
L 771.83645 -136.893203 
L 771.871563 -133.955121 
L 771.907473 -131.017039 
L 771.96557 -128.078957 
L 772.159612 -125.140875 
L 772.834742 -122.202793 
L 774.774856 -119.264711 
L 779.31489 -116.326629 
L 787.957345 -113.388547 
L 801.165355 -110.450465 
L 816.832062 -107.512383 
L 830.013076 -104.574301 
L 835.1856 -101.636219 
L 829.89168 -98.698137 
L 816.580448 -95.760055 
L 800.814299 -92.821973 
L 787.587999 -89.883891 
L 779.0049 -86.945809 
z
" style="stroke: #595959; stroke-width: 1.25"/>
    </defs>
    <g clip-path="url(#p0b1ec7359c)">
     <use xlink:href="#mce12796703" x="0" y="432" style="fill: #a2c865; stroke: #595959; stroke-width: 1.25"/>
    </g>
   </g>
   <g id="line2d_10">
    <path d="M 137.592 336.850459 
L 137.592 336.947123 
" clip-path="url(#p0b1ec7359c)" style="fill: none; stroke: #000000"/>
   </g>
   <g id="line2d_11">
    <path d="M 137.592 336.72673 
L 137.592 336.541136 
" clip-path="url(#p0b1ec7359c)" style="fill: none; stroke: #000000"/>
   </g>
   <g id="line2d_12">
    <path d="M 131.6466 336.947123 
L 143.5374 336.947123 
" clip-path="url(#p0b1ec7359c)" style="fill: none; stroke: #000000; stroke-linecap: round"/>
   </g>
   <g id="line2d_13">
    <path d="M 131.6466 336.541136 
L 143.5374 336.541136 
" clip-path="url(#p0b1ec7359c)" style="fill: none; stroke: #000000; stroke-linecap: round"/>
   </g>
   <g id="line2d_14">
    <path d="M 296.136 336.939389 
L 296.136 337.047653 
" clip-path="url(#p0b1ec7359c)" style="fill: none; stroke: #000000"/>
   </g>
   <g id="line2d_15">
    <path d="M 296.136 336.838859 
L 296.136 336.691931 
" clip-path="url(#p0b1ec7359c)" style="fill: none; stroke: #000000"/>
   </g>
   <g id="line2d_16">
    <path d="M 290.1906 337.047653 
L 302.0814 337.047653 
" clip-path="url(#p0b1ec7359c)" style="fill: none; stroke: #000000; stroke-linecap: round"/>
   </g>
   <g id="line2d_17">
    <path d="M 290.1906 336.691931 
L 302.0814 336.691931 
" clip-path="url(#p0b1ec7359c)" style="fill: none; stroke: #000000; stroke-linecap: round"/>
   </g>
   <g id="line2d_18">
    <path d="M 454.68 331.522363 
L 454.68 331.62676 
" clip-path="url(#p0b1ec7359c)" style="fill: none; stroke: #000000"/>
   </g>
   <g id="line2d_19">
    <path d="M 454.68 331.010047 
L 454.68 330.27347 
" clip-path="url(#p0b1ec7359c)" style="fill: none; stroke: #000000"/>
   </g>
   <g id="line2d_20">
    <path d="M 448.7346 331.62676 
L 460.6254 331.62676 
" clip-path="url(#p0b1ec7359c)" style="fill: none; stroke: #000000; stroke-linecap: round"/>
   </g>
   <g id="line2d_21">
    <path d="M 448.7346 330.27347 
L 460.6254 330.27347 
" clip-path="url(#p0b1ec7359c)" style="fill: none; stroke: #000000; stroke-linecap: round"/>
   </g>
   <g id="line2d_22">
    <path d="M 613.224 328.846716 
L 613.224 328.993645 
" clip-path="url(#p0b1ec7359c)" style="fill: none; stroke: #000000"/>
   </g>
   <g id="line2d_23">
    <path d="M 613.224 327.433495 
L 613.224 325.799881 
" clip-path="url(#p0b1ec7359c)" style="fill: none; stroke: #000000"/>
   </g>
   <g id="line2d_24">
    <path d="M 607.2786 328.993645 
L 619.1694 328.993645 
" clip-path="url(#p0b1ec7359c)" style="fill: none; stroke: #000000; stroke-linecap: round"/>
   </g>
   <g id="line2d_25">
    <path d="M 607.2786 325.799881 
L 619.1694 325.799881 
" clip-path="url(#p0b1ec7359c)" style="fill: none; stroke: #000000; stroke-linecap: round"/>
   </g>
   <g id="line2d_26">
    <path d="M 771.768 330.950115 
L 771.768 331.093177 
" clip-path="url(#p0b1ec7359c)" style="fill: none; stroke: #000000"/>
   </g>
   <g id="line2d_27">
    <path d="M 771.768 330.18454 
L 771.768 329.040043 
" clip-path="url(#p0b1ec7359c)" style="fill: none; stroke: #000000"/>
   </g>
   <g id="line2d_28">
    <path d="M 765.8226 331.093177 
L 777.7134 331.093177 
" clip-path="url(#p0b1ec7359c)" style="fill: none; stroke: #000000; stroke-linecap: round"/>
   </g>
   <g id="line2d_29">
    <path d="M 765.8226 329.040043 
L 777.7134 329.040043 
" clip-path="url(#p0b1ec7359c)" style="fill: none; stroke: #000000; stroke-linecap: round"/>
   </g>
   <g id="line2d_30">
    <path d="M 125.7012 336.800194 
L 149.4828 336.800194 
" clip-path="url(#p0b1ec7359c)" style="fill: none; stroke: #ff0000; stroke-width: 2"/>
   </g>
   <g id="line2d_31">
    <path d="M 284.2452 336.896857 
L 308.0268 336.896857 
" clip-path="url(#p0b1ec7359c)" style="fill: none; stroke: #ff0000; stroke-width: 2"/>
   </g>
   <g id="line2d_32">
    <path d="M 442.7892 331.456632 
L 466.5708 331.456632 
" clip-path="url(#p0b1ec7359c)" style="fill: none; stroke: #ff0000; stroke-width: 2"/>
   </g>
   <g id="line2d_33">
    <path d="M 601.3332 328.715254 
L 625.1148 328.715254 
" clip-path="url(#p0b1ec7359c)" style="fill: none; stroke: #ff0000; stroke-width: 2"/>
   </g>
   <g id="line2d_34">
    <path d="M 759.8772 330.88825 
L 783.6588 330.88825 
" clip-path="url(#p0b1ec7359c)" style="fill: none; stroke: #ff0000; stroke-width: 2"/>
   </g>
   <g id="patch_3">
    <path d="M 58.32 373.416875 
L 58.32 27.6 
" style="fill: none; stroke: #cccccc; stroke-width: 1.25; stroke-linejoin: miter; stroke-linecap: square"/>
   </g>
   <g id="patch_4">
    <path d="M 851.04 373.416875 
L 851.04 27.6 
" style="fill: none; stroke: #cccccc; stroke-width: 1.25; stroke-linejoin: miter; stroke-linecap: square"/>
   </g>
   <g id="patch_5">
    <path d="M 58.32 373.416875 
L 851.04 373.416875 
" style="fill: none; stroke: #cccccc; stroke-width: 1.25; stroke-linejoin: miter; stroke-linecap: square"/>
   </g>
   <g id="patch_6">
    <path d="M 58.32 27.6 
L 851.04 27.6 
" style="fill: none; stroke: #cccccc; stroke-width: 1.25; stroke-linejoin: miter; stroke-linecap: square"/>
   </g>
   <g id="text_16">
    <!-- Handshake duration on QUIC with mldsa44 signature algorithm — Local YDE (35ms/2%) -->
    <g style="fill: #262626" transform="translate(190.397812 21.6) scale(0.12 -0.12)">
     <defs>
      <path id="DejaVuSans-51" d="M 2522 4238 
Q 1834 4238 1429 3725 
Q 1025 3213 1025 2328 
Q 1025 1447 1429 934 
Q 1834 422 2522 422 
Q 3209 422 3611 934 
Q 4013 1447 4013 2328 
Q 4013 3213 3611 3725 
Q 3209 4238 2522 4238 
z
M 3406 84 
L 4238 -825 
L 3475 -825 
L 2784 -78 
Q 2681 -84 2626 -87 
Q 2572 -91 2522 -91 
Q 1538 -91 948 567 
Q 359 1225 359 2328 
Q 359 3434 948 4092 
Q 1538 4750 2522 4750 
Q 3503 4750 4090 4092 
Q 4678 3434 4678 2328 
Q 4678 1516 4351 937 
Q 4025 359 3406 84 
z
" transform="scale(0.015625)"/>
      <path id="DejaVuSans-55" d="M 556 4666 
L 1191 4666 
L 1191 1831 
Q 1191 1081 1462 751 
Q 1734 422 2344 422 
Q 2950 422 3222 751 
Q 3494 1081 3494 1831 
L 3494 4666 
L 4128 4666 
L 4128 1753 
Q 4128 841 3676 375 
Q 3225 -91 2344 -91 
Q 1459 -91 1007 375 
Q 556 841 556 1753 
L 556 4666 
z
" transform="scale(0.015625)"/>
      <path id="DejaVuSans-49" d="M 628 4666 
L 1259 4666 
L 1259 0 
L 628 0 
L 628 4666 
z
" transform="scale(0.015625)"/>
      <path id="DejaVuSans-43" d="M 4122 4306 
L 4122 3641 
Q 3803 3938 3442 4084 
Q 3081 4231 2675 4231 
Q 1875 4231 1450 3742 
Q 1025 3253 1025 2328 
Q 1025 1406 1450 917 
Q 1875 428 2675 428 
Q 3081 428 3442 575 
Q 3803 722 4122 1019 
L 4122 359 
Q 3791 134 3420 21 
Q 3050 -91 2638 -91 
Q 1578 -91 968 557 
Q 359 1206 359 2328 
Q 359 3453 968 4101 
Q 1578 4750 2638 4750 
Q 3056 4750 3426 4639 
Q 3797 4528 4122 4306 
z
" transform="scale(0.015625)"/>
      <path id="DejaVuSans-77" d="M 269 3500 
L 844 3500 
L 1563 769 
L 2278 3500 
L 2956 3500 
L 3675 769 
L 4391 3500 
L 4966 3500 
L 4050 0 
L 3372 0 
L 2619 2869 
L 1863 0 
L 1184 0 
L 269 3500 
z
" transform="scale(0.015625)"/>
      <path id="DejaVuSans-6c" d="M 603 4863 
L 1178 4863 
L 1178 0 
L 603 0 
L 603 4863 
z
" transform="scale(0.015625)"/>
      <path id="DejaVuSans-67" d="M 2906 1791 
Q 2906 2416 2648 2759 
Q 2391 3103 1925 3103 
Q 1463 3103 1205 2759 
Q 947 2416 947 1791 
Q 947 1169 1205 825 
Q 1463 481 1925 481 
Q 2391 481 2648 825 
Q 2906 1169 2906 1791 
z
M 3481 434 
Q 3481 -459 3084 -895 
Q 2688 -1331 1869 -1331 
Q 1566 -1331 1297 -1286 
Q 1028 -1241 775 -1147 
L 775 -588 
Q 1028 -725 1275 -790 
Q 1522 -856 1778 -856 
Q 2344 -856 2625 -561 
Q 2906 -266 2906 331 
L 2906 616 
Q 2728 306 2450 153 
Q 2172 0 1784 0 
Q 1141 0 747 490 
Q 353 981 353 1791 
Q 353 2603 747 3093 
Q 1141 3584 1784 3584 
Q 2172 3584 2450 3431 
Q 2728 3278 2906 2969 
L 2906 3500 
L 3481 3500 
L 3481 434 
z
" transform="scale(0.015625)"/>
      <path id="DejaVuSans-2014" d="M 313 1978 
L 6088 1978 
L 6088 1528 
L 313 1528 
L 313 1978 
z
" transform="scale(0.015625)"/>
      <path id="DejaVuSans-4c" d="M 628 4666 
L 1259 4666 
L 1259 531 
L 3531 531 
L 3531 0 
L 628 0 
L 628 4666 
z
" transform="scale(0.015625)"/>
      <path id="DejaVuSans-59" d="M -13 4666 
L 666 4666 
L 1959 2747 
L 3244 4666 
L 3922 4666 
L 2272 2222 
L 2272 0 
L 1638 0 
L 1638 2222 
L -13 4666 
z
" transform="scale(0.015625)"/>
      <path id="DejaVuSans-44" d="M 1259 4147 
L 1259 519 
L 2022 519 
Q 2988 519 3436 956 
Q 3884 1394 3884 2338 
Q 3884 3275 3436 3711 
Q 2988 4147 2022 4147 
L 1259 4147 
z
M 628 4666 
L 1925 4666 
Q 3281 4666 3915 4102 
Q 4550 3538 4550 2338 
Q 4550 1131 3912 565 
Q 3275 0 1925 0 
L 628 0 
L 628 4666 
z
" transform="scale(0.015625)"/>
      <path id="DejaVuSans-45" d="M 628 4666 
L 3578 4666 
L 3578 4134 
L 1259 4134 
L 1259 2753 
L 3481 2753 
L 3481 2222 
L 1259 2222 
L 1259 531 
L 3634 531 
L 3634 0 
L 628 0 
L 628 4666 
z
" transform="scale(0.015625)"/>
      <path id="DejaVuSans-2f" d="M 1625 4666 
L 2156 4666 
L 531 -594 
L 0 -594 
L 1625 4666 
z
" transform="scale(0.015625)"/>
      <path id="DejaVuSans-25" d="M 4653 2053 
Q 4381 2053 4226 1822 
Q 4072 1591 4072 1178 
Q 4072 772 4226 539 
Q 4381 306 4653 306 
Q 4919 306 5073 539 
Q 5228 772 5228 1178 
Q 5228 1588 5073 1820 
Q 4919 2053 4653 2053 
z
M 4653 2450 
Q 5147 2450 5437 2106 
Q 5728 1763 5728 1178 
Q 5728 594 5436 251 
Q 5144 -91 4653 -91 
Q 4153 -91 3862 251 
Q 3572 594 3572 1178 
Q 3572 1766 3864 2108 
Q 4156 2450 4653 2450 
z
M 1428 4353 
Q 1159 4353 1004 4120 
Q 850 3888 850 3481 
Q 850 3069 1003 2837 
Q 1156 2606 1428 2606 
Q 1700 2606 1854 2837 
Q 2009 3069 2009 3481 
Q 2009 3884 1853 4118 
Q 1697 4353 1428 4353 
z
M 4250 4750 
L 4750 4750 
L 1831 -91 
L 1331 -91 
L 4250 4750 
z
M 1428 4750 
Q 1922 4750 2215 4408 
Q 2509 4066 2509 3481 
Q 2509 2891 2217 2550 
Q 1925 2209 1428 2209 
Q 931 2209 642 2551 
Q 353 2894 353 3481 
Q 353 4063 643 4406 
Q 934 4750 1428 4750 
z
" transform="scale(0.015625)"/>
     </defs>
     <use xlink:href="#DejaVuSans-48"/>
     <use xlink:href="#DejaVuSans-61" x="75.195312"/>
     <use xlink:href="#DejaVuSans-6e" x="136.474609"/>
     <use xlink:href="#DejaVuSans-64" x="199.853516"/>
     <use xlink:href="#DejaVuSans-73" x="263.330078"/>
     <use xlink:href="#DejaVuSans-68" x="315.429688"/>
     <use xlink:href="#DejaVuSans-61" x="378.808594"/>
     <use xlink:href="#DejaVuSans-6b" x="440.087891"/>
     <use xlink:href="#DejaVuSans-65" x="494.373047"/>
     <use xlink:href="#DejaVuSans-20" x="555.896484"/>
     <use xlink:href="#DejaVuSans-64" x="587.683594"/>
     <use xlink:href="#DejaVuSans-75" x="651.160156"/>
     <use xlink:href="#DejaVuSans-72" x="714.539062"/>
     <use xlink:href="#DejaVuSans-61" x="755.652344"/>
     <use xlink:href="#DejaVuSans-74" x="816.931641"/>
     <use xlink:href="#DejaVuSans-69" x="856.140625"/>
     <use xlink:href="#DejaVuSans-6f" x="883.923828"/>
     <use xlink:href="#DejaVuSans-6e" x="945.105469"/>
     <use xlink:href="#DejaVuSans-20" x="1008.484375"/>
     <use xlink:href="#DejaVuSans-6f" x="1040.271484"/>
     <use xlink:href="#DejaVuSans-6e" x="1101.453125"/>
     <use xlink:href="#DejaVuSans-20" x="1164.832031"/>
     <use xlink:href="#DejaVuSans-51" x="1196.619141"/>
     <use xlink:href="#DejaVuSans-55" x="1275.330078"/>
     <use xlink:href="#DejaVuSans-49" x="1348.523438"/>
     <use xlink:href="#DejaVuSans-43" x="1378.015625"/>
     <use xlink:href="#DejaVuSans-20" x="1447.839844"/>
     <use xlink:href="#DejaVuSans-77" x="1479.626953"/>
     <use xlink:href="#DejaVuSans-69" x="1561.414062"/>
     <use xlink:href="#DejaVuSans-74" x="1589.197266"/>
     <use xlink:href="#DejaVuSans-68" x="1628.40625"/>
     <use xlink:href="#DejaVuSans-20" x="1691.785156"/>
     <use xlink:href="#DejaVuSans-6d" x="1723.572266"/>
     <use xlink:href="#DejaVuSans-6c" x="1820.984375"/>
     <use xlink:href="#DejaVuSans-64" x="1848.767578"/>
     <use xlink:href="#DejaVuSans-73" x="1912.244141"/>
     <use xlink:href="#DejaVuSans-61" x="1964.34375"/>
     <use xlink:href="#DejaVuSans-34" x="2025.623047"/>
     <use xlink:href="#DejaVuSans-34" x="2089.246094"/>
     <use xlink:href="#DejaVuSans-20" x="2152.869141"/>
     <use xlink:href="#DejaVuSans-73" x="2184.65625"/>
     <use xlink:href="#DejaVuSans-69" x="2236.755859"/>
     <use xlink:href="#DejaVuSans-67" x="2264.539062"/>
     <use xlink:href="#DejaVuSans-6e" x="2328.015625"/>
     <use xlink:href="#DejaVuSans-61" x="2391.394531"/>
     <use xlink:href="#DejaVuSans-74" x="2452.673828"/>
     <use xlink:href="#DejaVuSans-75" x="2491.882812"/>
     <use xlink:href="#DejaVuSans-72" x="2555.261719"/>
     <use xlink:href="#DejaVuSans-65" x="2594.125"/>
     <use xlink:href="#DejaVuSans-20" x="2655.648438"/>
     <use xlink:href="#DejaVuSans-61" x="2687.435547"/>
     <use xlink:href="#DejaVuSans-6c" x="2748.714844"/>
     <use xlink:href="#DejaVuSans-67" x="2776.498047"/>
     <use xlink:href="#DejaVuSans-6f" x="2839.974609"/>
     <use xlink:href="#DejaVuSans-72" x="2901.15625"/>
     <use xlink:href="#DejaVuSans-69" x="2942.269531"/>
     <use xlink:href="#DejaVuSans-74" x="2970.052734"/>
     <use xlink:href="#DejaVuSans-68" x="3009.261719"/>
     <use xlink:href="#DejaVuSans-6d" x="3072.640625"/>
     <use xlink:href="#DejaVuSans-20" x="3170.052734"/>
     <use xlink:href="#DejaVuSans-2014" x="3201.839844"/>
     <use xlink:href="#DejaVuSans-20" x="3301.839844"/>
     <use xlink:href="#DejaVuSans-4c" x="3333.626953"/>
     <use xlink:href="#DejaVuSans-6f" x="3387.589844"/>
     <use xlink:href="#DejaVuSans-63" x="3448.771484"/>
     <use xlink:href="#DejaVuSans-61" x="3503.751953"/>
     <use xlink:href="#DejaVuSans-6c" x="3565.03125"/>
     <use xlink:href="#DejaVuSans-20" x="3592.814453"/>
     <use xlink:href="#DejaVuSans-59" x="3624.601562"/>
     <use xlink:href="#DejaVuSans-44" x="3685.685547"/>
     <use xlink:href="#DejaVuSans-45" x="3762.6875"/>
     <use xlink:href="#DejaVuSans-20" x="3825.871094"/>
     <use xlink:href="#DejaVuSans-28" x="3857.658203"/>
     <use xlink:href="#DejaVuSans-33" x="3896.671875"/>
     <use xlink:href="#DejaVuSans-35" x="3960.294922"/>
     <use xlink:href="#DejaVuSans-6d" x="4023.917969"/>
     <use xlink:href="#DejaVuSans-73" x="4121.330078"/>
     <use xlink:href="#DejaVuSans-2f" x="4173.429688"/>
     <use xlink:href="#DejaVuSans-32" x="4207.121094"/>
     <use xlink:href="#DejaVuSans-25" x="4270.744141"/>
     <use xlink:href="#DejaVuSans-29" x="4365.763672"/>
    </g>
   </g>
  </g>
 </g>
 <defs>
  <clipPath id="p0b1ec7359c">
   <rect x="58.32" y="27.6" width="792.72" height="345.816875"/>
  </clipPath>
 </defs>
</svg>
