<?xml version="1.0" encoding="utf-8" standalone="no"?>
<!DOCTYPE svg PUBLIC "-//W3C//DTD SVG 1.1//EN"
  "http://www.w3.org/Graphics/SVG/1.1/DTD/svg11.dtd">
<svg xmlns:xlink="http://www.w3.org/1999/xlink" width="864pt" height="432pt" viewBox="0 0 864 432" xmlns="http://www.w3.org/2000/svg" version="1.1">
 <metadata>
  <rdf:RDF xmlns:dc="http://purl.org/dc/elements/1.1/" xmlns:cc="http://creativecommons.org/ns#" xmlns:rdf="http://www.w3.org/1999/02/22-rdf-syntax-ns#">
   <cc:Work>
    <dc:type rdf:resource="http://purl.org/dc/dcmitype/StillImage"/>
    <dc:date>2026-03-21T14:06:25.075164</dc:date>
    <dc:format>image/svg+xml</dc:format>
    <dc:creator>
     <cc:Agent>
      <dc:title>Matplotlib v3.6.3, https://matplotlib.org/</dc:title>
     </cc:Agent>
    </dc:creator>
   </cc:Work>
  </rdf:RDF>
 </metadata>
 <defs>
  <style type="text/css">*{stroke-linejoin: round; stroke-linecap: butt}</style>
 </defs>
 <g id="figure_1">
  <g id="patch_1">
   <path d="M 0 432 
L 864 432 
L 864 0 
L 0 0 
z
" style="fill: #ffffff"/>
  </g>
  <g id="axes_1">
   <g id="patch_2">
    <path d="M 58.32 377.237044 
L 851.04 377.237044 
L 851.04 27.6 
L 58.32 27.6 
z
" style="fill: #ffffff"/>
   </g>
   <g id="matplotlib.axis_1">
    <g id="xtick_1">
     <g id="text_1">
      <!-- P-384 -->
      <g style="fill: #262626" transform="translate(103.911421 404.396088) rotate(-15) scale(0.12 -0.12)">
       <defs>
        <path id="DejaVuSans-50" d="M 1259 4147 
L 1259 2394 
L 2053 2394 
Q 2494 2394 2734 2622 
Q 2975 2850 2975 3272 
Q 2975 3691 2734 3919 
Q 2494 4147 2053 4147 
L 1259 4147 
z
M 628 4666 
L 2053 4666 
Q 2838 4666 3239 4311 
Q 3641 3956 3641 3272 
Q 3641 2581 3239 2228 
Q 2838 1875 2053 1875 
L 1259 1875 
L 1259 0 
L 628 0 
L 628 4666 
z
" transform="scale(0.015625)"/>
        <path id="DejaVuSans-2d" d="M 313 2009 
L 1997 2009 
L 1997 1497 
L 313 1497 
L 313 2009 
z
" transform="scale(0.015625)"/>
        <path id="DejaVuSans-33" d="M 2597 2516 
Q 3050 2419 3304 2112 
Q 3559 1806 3559 1356 
Q 3559 666 3084 287 
Q 2609 -91 1734 -91 
Q 1441 -91 1130 -33 
Q 819 25 488 141 
L 488 750 
Q 750 597 1062 519 
Q 1375 441 1716 441 
Q 2309 441 2620 675 
Q 2931 909 2931 1356 
Q 2931 1769 2642 2001 
Q 2353 2234 1838 2234 
L 1294 2234 
L 1294 2753 
L 1863 2753 
Q 2328 2753 2575 2939 
Q 2822 3125 2822 3475 
Q 2822 3834 2567 4026 
Q 2313 4219 1838 4219 
Q 1578 4219 1281 4162 
Q 984 4106 628 3988 
L 628 4550 
Q 988 4650 1302 4700 
Q 1616 4750 1894 4750 
Q 2613 4750 3031 4423 
Q 3450 4097 3450 3541 
Q 3450 3153 3228 2886 
Q 3006 2619 2597 2516 
z
" transform="scale(0.015625)"/>
        <path id="DejaVuSans-38" d="M 2034 2216 
Q 1584 2216 1326 1975 
Q 1069 1734 1069 1313 
Q 1069 891 1326 650 
Q 1584 409 2034 409 
Q 2484 409 2743 651 
Q 3003 894 3003 1313 
Q 3003 1734 2745 1975 
Q 2488 2216 2034 2216 
z
M 1403 2484 
Q 997 2584 770 2862 
Q 544 3141 544 3541 
Q 544 4100 942 4425 
Q 1341 4750 2034 4750 
Q 2731 4750 3128 4425 
Q 3525 4100 3525 3541 
Q 3525 3141 3298 2862 
Q 3072 2584 2669 2484 
Q 3125 2378 3379 2068 
Q 3634 1759 3634 1313 
Q 3634 634 3220 271 
Q 2806 -91 2034 -91 
Q 1263 -91 848 271 
Q 434 634 434 1313 
Q 434 1759 690 2068 
Q 947 2378 1403 2484 
z
M 1172 3481 
Q 1172 3119 1398 2916 
Q 1625 2713 2034 2713 
Q 2441 2713 2670 2916 
Q 2900 3119 2900 3481 
Q 2900 3844 2670 4047 
Q 2441 4250 2034 4250 
Q 1625 4250 1398 4047 
Q 1172 3844 1172 3481 
z
" transform="scale(0.015625)"/>
        <path id="DejaVuSans-34" d="M 2419 4116 
L 825 1625 
L 2419 1625 
L 2419 4116 
z
M 2253 4666 
L 3047 4666 
L 3047 1625 
L 3713 1625 
L 3713 1100 
L 3047 1100 
L 3047 0 
L 2419 0 
L 2419 1100 
L 313 1100 
L 313 1709 
L 2253 4666 
z
" transform="scale(0.015625)"/>
       </defs>
       <use xlink:href="#DejaVuSans-50"/>
       <use xlink:href="#DejaVuSans-2d" x="58.052734"/>
       <use xlink:href="#DejaVuSans-33" x="94.136719"/>
       <use xlink:href="#DejaVuSans-38" x="157.759766"/>
       <use xlink:href="#DejaVuSans-34" x="221.382812"/>
      </g>
     </g>
    </g>
    <g id="xtick_2">
     <g id="text_2">
      <!-- x448 -->
      <g style="fill: #262626" transform="translate(266.505065 403.310989) rotate(-15) scale(0.12 -0.12)">
       <defs>
        <path id="DejaVuSans-78" d="M 3513 3500 
L 2247 1797 
L 3578 0 
L 2900 0 
L 1881 1375 
L 863 0 
L 184 0 
L 1544 1831 
L 300 3500 
L 978 3500 
L 1906 2253 
L 2834 3500 
L 3513 3500 
z
" transform="scale(0.015625)"/>
       </defs>
       <use xlink:href="#DejaVuSans-78"/>
       <use xlink:href="#DejaVuSans-34" x="59.179688"/>
       <use xlink:href="#DejaVuSans-34" x="122.802734"/>
       <use xlink:href="#DejaVuSans-38" x="186.425781"/>
      </g>
     </g>
    </g>
    <g id="xtick_3">
     <g id="text_3">
      <!-- hqc192 -->
      <g style="fill: #262626" transform="translate(410.831845 407.120482) rotate(-15) scale(0.12 -0.12)">
       <defs>
        <path id="DejaVuSans-68" d="M 3513 2113 
L 3513 0 
L 2938 0 
L 2938 2094 
Q 2938 2591 2744 2837 
Q 2550 3084 2163 3084 
Q 1697 3084 1428 2787 
Q 1159 2491 1159 1978 
L 1159 0 
L 581 0 
L 581 4863 
L 1159 4863 
L 1159 2956 
Q 1366 3272 1645 3428 
Q 1925 3584 2291 3584 
Q 2894 3584 3203 3211 
Q 3513 2838 3513 2113 
z
" transform="scale(0.015625)"/>
        <path id="DejaVuSans-71" d="M 947 1747 
Q 947 1113 1208 752 
Q 1469 391 1925 391 
Q 2381 391 2643 752 
Q 2906 1113 2906 1747 
Q 2906 2381 2643 2742 
Q 2381 3103 1925 3103 
Q 1469 3103 1208 2742 
Q 947 2381 947 1747 
z
M 2906 525 
Q 2725 213 2448 61 
Q 2172 -91 1784 -91 
Q 1150 -91 751 415 
Q 353 922 353 1747 
Q 353 2572 751 3078 
Q 1150 3584 1784 3584 
Q 2172 3584 2448 3432 
Q 2725 3281 2906 2969 
L 2906 3500 
L 3481 3500 
L 3481 -1331 
L 2906 -1331 
L 2906 525 
z
" transform="scale(0.015625)"/>
        <path id="DejaVuSans-63" d="M 3122 3366 
L 3122 2828 
Q 2878 2963 2633 3030 
Q 2388 3097 2138 3097 
Q 1578 3097 1268 2742 
Q 959 2388 959 1747 
Q 959 1106 1268 751 
Q 1578 397 2138 397 
Q 2388 397 2633 464 
Q 2878 531 3122 666 
L 3122 134 
Q 2881 22 2623 -34 
Q 2366 -91 2075 -91 
Q 1284 -91 818 406 
Q 353 903 353 1747 
Q 353 2603 823 3093 
Q 1294 3584 2113 3584 
Q 2378 3584 2631 3529 
Q 2884 3475 3122 3366 
z
" transform="scale(0.015625)"/>
        <path id="DejaVuSans-31" d="M 794 531 
L 1825 531 
L 1825 4091 
L 703 3866 
L 703 4441 
L 1819 4666 
L 2450 4666 
L 2450 531 
L 3481 531 
L 3481 0 
L 794 0 
L 794 531 
z
" transform="scale(0.015625)"/>
        <path id="DejaVuSans-39" d="M 703 97 
L 703 672 
Q 941 559 1184 500 
Q 1428 441 1663 441 
Q 2288 441 2617 861 
Q 2947 1281 2994 2138 
Q 2813 1869 2534 1725 
Q 2256 1581 1919 1581 
Q 1219 1581 811 2004 
Q 403 2428 403 3163 
Q 403 3881 828 4315 
Q 1253 4750 1959 4750 
Q 2769 4750 3195 4129 
Q 3622 3509 3622 2328 
Q 3622 1225 3098 567 
Q 2575 -91 1691 -91 
Q 1453 -91 1209 -44 
Q 966 3 703 97 
z
M 1959 2075 
Q 2384 2075 2632 2365 
Q 2881 2656 2881 3163 
Q 2881 3666 2632 3958 
Q 2384 4250 1959 4250 
Q 1534 4250 1286 3958 
Q 1038 3666 1038 3163 
Q 1038 2656 1286 2365 
Q 1534 2075 1959 2075 
z
" transform="scale(0.015625)"/>
        <path id="DejaVuSans-32" d="M 1228 531 
L 3431 531 
L 3431 0 
L 469 0 
L 469 531 
Q 828 903 1448 1529 
Q 2069 2156 2228 2338 
Q 2531 2678 2651 2914 
Q 2772 3150 2772 3378 
Q 2772 3750 2511 3984 
Q 2250 4219 1831 4219 
Q 1534 4219 1204 4116 
Q 875 4013 500 3803 
L 500 4441 
Q 881 4594 1212 4672 
Q 1544 4750 1819 4750 
Q 2544 4750 2975 4387 
Q 3406 4025 3406 3419 
Q 3406 3131 3298 2873 
Q 3191 2616 2906 2266 
Q 2828 2175 2409 1742 
Q 1991 1309 1228 531 
z
" transform="scale(0.015625)"/>
       </defs>
       <use xlink:href="#DejaVuSans-68"/>
       <use xlink:href="#DejaVuSans-71" x="63.378906"/>
       <use xlink:href="#DejaVuSans-63" x="126.855469"/>
       <use xlink:href="#DejaVuSans-31" x="181.835938"/>
       <use xlink:href="#DejaVuSans-39" x="245.458984"/>
       <use xlink:href="#DejaVuSans-32" x="309.082031"/>
      </g>
     </g>
    </g>
    <g id="xtick_4">
     <g id="text_4">
      <!-- p384_hqc192 -->
      <g style="fill: #262626" transform="translate(534.010834 416.573362) rotate(-15) scale(0.12 -0.12)">
       <defs>
        <path id="DejaVuSans-70" d="M 1159 525 
L 1159 -1331 
L 581 -1331 
L 581 3500 
L 1159 3500 
L 1159 2969 
Q 1341 3281 1617 3432 
Q 1894 3584 2278 3584 
Q 2916 3584 3314 3078 
Q 3713 2572 3713 1747 
Q 3713 922 3314 415 
Q 2916 -91 2278 -91 
Q 1894 -91 1617 61 
Q 1341 213 1159 525 
z
M 3116 1747 
Q 3116 2381 2855 2742 
Q 2594 3103 2138 3103 
Q 1681 3103 1420 2742 
Q 1159 2381 1159 1747 
Q 1159 1113 1420 752 
Q 1681 391 2138 391 
Q 2594 391 2855 752 
Q 3116 1113 3116 1747 
z
" transform="scale(0.015625)"/>
        <path id="DejaVuSans-5f" d="M 3263 -1063 
L 3263 -1509 
L -63 -1509 
L -63 -1063 
L 3263 -1063 
z
" transform="scale(0.015625)"/>
       </defs>
       <use xlink:href="#DejaVuSans-70"/>
       <use xlink:href="#DejaVuSans-33" x="63.476562"/>
       <use xlink:href="#DejaVuSans-38" x="127.099609"/>
       <use xlink:href="#DejaVuSans-34" x="190.722656"/>
       <use xlink:href="#DejaVuSans-5f" x="254.345703"/>
       <use xlink:href="#DejaVuSans-68" x="304.345703"/>
       <use xlink:href="#DejaVuSans-71" x="367.724609"/>
       <use xlink:href="#DejaVuSans-63" x="431.201172"/>
       <use xlink:href="#DejaVuSans-31" x="486.181641"/>
       <use xlink:href="#DejaVuSans-39" x="549.804688"/>
       <use xlink:href="#DejaVuSans-32" x="613.427734"/>
      </g>
     </g>
    </g>
    <g id="xtick_5">
     <g id="text_5">
      <!-- x448_hqc192 -->
      <g style="fill: #262626" transform="translate(693.05289 416.439909) rotate(-15) scale(0.12 -0.12)">
       <use xlink:href="#DejaVuSans-78"/>
       <use xlink:href="#DejaVuSans-34" x="59.179688"/>
       <use xlink:href="#DejaVuSans-34" x="122.802734"/>
       <use xlink:href="#DejaVuSans-38" x="186.425781"/>
       <use xlink:href="#DejaVuSans-5f" x="250.048828"/>
       <use xlink:href="#DejaVuSans-68" x="300.048828"/>
       <use xlink:href="#DejaVuSans-71" x="363.427734"/>
       <use xlink:href="#DejaVuSans-63" x="426.904297"/>
       <use xlink:href="#DejaVuSans-31" x="481.884766"/>
       <use xlink:href="#DejaVuSans-39" x="545.507812"/>
       <use xlink:href="#DejaVuSans-32" x="609.130859"/>
      </g>
     </g>
    </g>
   </g>
   <g id="matplotlib.axis_2">
    <g id="ytick_1">
     <g id="line2d_1">
      <path d="M 58.32 368.028873 
L 851.04 368.028873 
" clip-path="url(#pf6aef80493)" style="fill: none; stroke: #cccccc; stroke-linecap: round"/>
     </g>
     <g id="text_6">
      <!-- 0 -->
      <g style="fill: #262626" transform="translate(41.82125 372.208014) scale(0.11 -0.11)">
       <defs>
        <path id="DejaVuSans-30" d="M 2034 4250 
Q 1547 4250 1301 3770 
Q 1056 3291 1056 2328 
Q 1056 1369 1301 889 
Q 1547 409 2034 409 
Q 2525 409 2770 889 
Q 3016 1369 3016 2328 
Q 3016 3291 2770 3770 
Q 2525 4250 2034 4250 
z
M 2034 4750 
Q 2819 4750 3233 4129 
Q 3647 3509 3647 2328 
Q 3647 1150 3233 529 
Q 2819 -91 2034 -91 
Q 1250 -91 836 529 
Q 422 1150 422 2328 
Q 422 3509 836 4129 
Q 1250 4750 2034 4750 
z
" transform="scale(0.015625)"/>
       </defs>
       <use xlink:href="#DejaVuSans-30"/>
      </g>
     </g>
    </g>
    <g id="ytick_2">
     <g id="line2d_2">
      <path d="M 58.32 307.477834 
L 851.04 307.477834 
" clip-path="url(#pf6aef80493)" style="fill: none; stroke: #cccccc; stroke-linecap: round"/>
     </g>
     <g id="text_7">
      <!-- 20 -->
      <g style="fill: #262626" transform="translate(34.8225 311.656975) scale(0.11 -0.11)">
       <use xlink:href="#DejaVuSans-32"/>
       <use xlink:href="#DejaVuSans-30" x="63.623047"/>
      </g>
     </g>
    </g>
    <g id="ytick_3">
     <g id="line2d_3">
      <path d="M 58.32 246.926796 
L 851.04 246.926796 
" clip-path="url(#pf6aef80493)" style="fill: none; stroke: #cccccc; stroke-linecap: round"/>
     </g>
     <g id="text_8">
      <!-- 40 -->
      <g style="fill: #262626" transform="translate(34.8225 251.105936) scale(0.11 -0.11)">
       <use xlink:href="#DejaVuSans-34"/>
       <use xlink:href="#DejaVuSans-30" x="63.623047"/>
      </g>
     </g>
    </g>
    <g id="ytick_4">
     <g id="line2d_4">
      <path d="M 58.32 186.375757 
L 851.04 186.375757 
" clip-path="url(#pf6aef80493)" style="fill: none; stroke: #cccccc; stroke-linecap: round"/>
     </g>
     <g id="text_9">
      <!-- 60 -->
      <g style="fill: #262626" transform="translate(34.8225 190.554898) scale(0.11 -0.11)">
       <defs>
        <path id="DejaVuSans-36" d="M 2113 2584 
Q 1688 2584 1439 2293 
Q 1191 2003 1191 1497 
Q 1191 994 1439 701 
Q 1688 409 2113 409 
Q 2538 409 2786 701 
Q 3034 994 3034 1497 
Q 3034 2003 2786 2293 
Q 2538 2584 2113 2584 
z
M 3366 4563 
L 3366 3988 
Q 3128 4100 2886 4159 
Q 2644 4219 2406 4219 
Q 1781 4219 1451 3797 
Q 1122 3375 1075 2522 
Q 1259 2794 1537 2939 
Q 1816 3084 2150 3084 
Q 2853 3084 3261 2657 
Q 3669 2231 3669 1497 
Q 3669 778 3244 343 
Q 2819 -91 2113 -91 
Q 1303 -91 875 529 
Q 447 1150 447 2328 
Q 447 3434 972 4092 
Q 1497 4750 2381 4750 
Q 2619 4750 2861 4703 
Q 3103 4656 3366 4563 
z
" transform="scale(0.015625)"/>
       </defs>
       <use xlink:href="#DejaVuSans-36"/>
       <use xlink:href="#DejaVuSans-30" x="63.623047"/>
      </g>
     </g>
    </g>
    <g id="ytick_5">
     <g id="line2d_5">
      <path d="M 58.32 125.824718 
L 851.04 125.824718 
" clip-path="url(#pf6aef80493)" style="fill: none; stroke: #cccccc; stroke-linecap: round"/>
     </g>
     <g id="text_10">
      <!-- 80 -->
      <g style="fill: #262626" transform="translate(34.8225 130.003859) scale(0.11 -0.11)">
       <use xlink:href="#DejaVuSans-38"/>
       <use xlink:href="#DejaVuSans-30" x="63.623047"/>
      </g>
     </g>
    </g>
    <g id="ytick_6">
     <g id="line2d_6">
      <path d="M 58.32 65.27368 
L 851.04 65.27368 
" clip-path="url(#pf6aef80493)" style="fill: none; stroke: #cccccc; stroke-linecap: round"/>
     </g>
     <g id="text_11">
      <!-- 100 -->
      <g style="fill: #262626" transform="translate(27.82375 69.45282) scale(0.11 -0.11)">
       <use xlink:href="#DejaVuSans-31"/>
       <use xlink:href="#DejaVuSans-30" x="63.623047"/>
       <use xlink:href="#DejaVuSans-30" x="127.246094"/>
      </g>
     </g>
    </g>
    <g id="text_12">
     <!-- Handshake duration (ms) -->
     <g style="fill: #262626" transform="translate(21.328125 278.486335) rotate(-90) scale(0.12 -0.12)">
      <defs>
       <path id="DejaVuSans-48" d="M 628 4666 
L 1259 4666 
L 1259 2753 
L 3553 2753 
L 3553 4666 
L 4184 4666 
L 4184 0 
L 3553 0 
L 3553 2222 
L 1259 2222 
L 1259 0 
L 628 0 
L 628 4666 
z
" transform="scale(0.015625)"/>
       <path id="DejaVuSans-61" d="M 2194 1759 
Q 1497 1759 1228 1600 
Q 959 1441 959 1056 
Q 959 750 1161 570 
Q 1363 391 1709 391 
Q 2188 391 2477 730 
Q 2766 1069 2766 1631 
L 2766 1759 
L 2194 1759 
z
M 3341 1997 
L 3341 0 
L 2766 0 
L 2766 531 
Q 2569 213 2275 61 
Q 1981 -91 1556 -91 
Q 1019 -91 701 211 
Q 384 513 384 1019 
Q 384 1609 779 1909 
Q 1175 2209 1959 2209 
L 2766 2209 
L 2766 2266 
Q 2766 2663 2505 2880 
Q 2244 3097 1772 3097 
Q 1472 3097 1187 3025 
Q 903 2953 641 2809 
L 641 3341 
Q 956 3463 1253 3523 
Q 1550 3584 1831 3584 
Q 2591 3584 2966 3190 
Q 3341 2797 3341 1997 
z
" transform="scale(0.015625)"/>
       <path id="DejaVuSans-6e" d="M 3513 2113 
L 3513 0 
L 2938 0 
L 2938 2094 
Q 2938 2591 2744 2837 
Q 2550 3084 2163 3084 
Q 1697 3084 1428 2787 
Q 1159 2491 1159 1978 
L 1159 0 
L 581 0 
L 581 3500 
L 1159 3500 
L 1159 2956 
Q 1366 3272 1645 3428 
Q 1925 3584 2291 3584 
Q 2894 3584 3203 3211 
Q 3513 2838 3513 2113 
z
" transform="scale(0.015625)"/>
       <path id="DejaVuSans-64" d="M 2906 2969 
L 2906 4863 
L 3481 4863 
L 3481 0 
L 2906 0 
L 2906 525 
Q 2725 213 2448 61 
Q 2172 -91 1784 -91 
Q 1150 -91 751 415 
Q 353 922 353 1747 
Q 353 2572 751 3078 
Q 1150 3584 1784 3584 
Q 2172 3584 2448 3432 
Q 2725 3281 2906 2969 
z
M 947 1747 
Q 947 1113 1208 752 
Q 1469 391 1925 391 
Q 2381 391 2643 752 
Q 2906 1113 2906 1747 
Q 2906 2381 2643 2742 
Q 2381 3103 1925 3103 
Q 1469 3103 1208 2742 
Q 947 2381 947 1747 
z
" transform="scale(0.015625)"/>
       <path id="DejaVuSans-73" d="M 2834 3397 
L 2834 2853 
Q 2591 2978 2328 3040 
Q 2066 3103 1784 3103 
Q 1356 3103 1142 2972 
Q 928 2841 928 2578 
Q 928 2378 1081 2264 
Q 1234 2150 1697 2047 
L 1894 2003 
Q 2506 1872 2764 1633 
Q 3022 1394 3022 966 
Q 3022 478 2636 193 
Q 2250 -91 1575 -91 
Q 1294 -91 989 -36 
Q 684 19 347 128 
L 347 722 
Q 666 556 975 473 
Q 1284 391 1588 391 
Q 1994 391 2212 530 
Q 2431 669 2431 922 
Q 2431 1156 2273 1281 
Q 2116 1406 1581 1522 
L 1381 1569 
Q 847 1681 609 1914 
Q 372 2147 372 2553 
Q 372 3047 722 3315 
Q 1072 3584 1716 3584 
Q 2034 3584 2315 3537 
Q 2597 3491 2834 3397 
z
" transform="scale(0.015625)"/>
       <path id="DejaVuSans-6b" d="M 581 4863 
L 1159 4863 
L 1159 1991 
L 2875 3500 
L 3609 3500 
L 1753 1863 
L 3688 0 
L 2938 0 
L 1159 1709 
L 1159 0 
L 581 0 
L 581 4863 
z
" transform="scale(0.015625)"/>
       <path id="DejaVuSans-65" d="M 3597 1894 
L 3597 1613 
L 953 1613 
Q 991 1019 1311 708 
Q 1631 397 2203 397 
Q 2534 397 2845 478 
Q 3156 559 3463 722 
L 3463 178 
Q 3153 47 2828 -22 
Q 2503 -91 2169 -91 
Q 1331 -91 842 396 
Q 353 884 353 1716 
Q 353 2575 817 3079 
Q 1281 3584 2069 3584 
Q 2775 3584 3186 3129 
Q 3597 2675 3597 1894 
z
M 3022 2063 
Q 3016 2534 2758 2815 
Q 2500 3097 2075 3097 
Q 1594 3097 1305 2825 
Q 1016 2553 972 2059 
L 3022 2063 
z
" transform="scale(0.015625)"/>
       <path id="DejaVuSans-20" transform="scale(0.015625)"/>
       <path id="DejaVuSans-75" d="M 544 1381 
L 544 3500 
L 1119 3500 
L 1119 1403 
Q 1119 906 1312 657 
Q 1506 409 1894 409 
Q 2359 409 2629 706 
Q 2900 1003 2900 1516 
L 2900 3500 
L 3475 3500 
L 3475 0 
L 2900 0 
L 2900 538 
Q 2691 219 2414 64 
Q 2138 -91 1772 -91 
Q 1169 -91 856 284 
Q 544 659 544 1381 
z
M 1991 3584 
L 1991 3584 
z
" transform="scale(0.015625)"/>
       <path id="DejaVuSans-72" d="M 2631 2963 
Q 2534 3019 2420 3045 
Q 2306 3072 2169 3072 
Q 1681 3072 1420 2755 
Q 1159 2438 1159 1844 
L 1159 0 
L 581 0 
L 581 3500 
L 1159 3500 
L 1159 2956 
Q 1341 3275 1631 3429 
Q 1922 3584 2338 3584 
Q 2397 3584 2469 3576 
Q 2541 3569 2628 3553 
L 2631 2963 
z
" transform="scale(0.015625)"/>
       <path id="DejaVuSans-74" d="M 1172 4494 
L 1172 3500 
L 2356 3500 
L 2356 3053 
L 1172 3053 
L 1172 1153 
Q 1172 725 1289 603 
Q 1406 481 1766 481 
L 2356 481 
L 2356 0 
L 1766 0 
Q 1100 0 847 248 
Q 594 497 594 1153 
L 594 3053 
L 172 3053 
L 172 3500 
L 594 3500 
L 594 4494 
L 1172 4494 
z
" transform="scale(0.015625)"/>
       <path id="DejaVuSans-69" d="M 603 3500 
L 1178 3500 
L 1178 0 
L 603 0 
L 603 3500 
z
M 603 4863 
L 1178 4863 
L 1178 4134 
L 603 4134 
L 603 4863 
z
" transform="scale(0.015625)"/>
       <path id="DejaVuSans-6f" d="M 1959 3097 
Q 1497 3097 1228 2736 
Q 959 2375 959 1747 
Q 959 1119 1226 758 
Q 1494 397 1959 397 
Q 2419 397 2687 759 
Q 2956 1122 2956 1747 
Q 2956 2369 2687 2733 
Q 2419 3097 1959 3097 
z
M 1959 3584 
Q 2709 3584 3137 3096 
Q 3566 2609 3566 1747 
Q 3566 888 3137 398 
Q 2709 -91 1959 -91 
Q 1206 -91 779 398 
Q 353 888 353 1747 
Q 353 2609 779 3096 
Q 1206 3584 1959 3584 
z
" transform="scale(0.015625)"/>
       <path id="DejaVuSans-28" d="M 1984 4856 
Q 1566 4138 1362 3434 
Q 1159 2731 1159 2009 
Q 1159 1288 1364 580 
Q 1569 -128 1984 -844 
L 1484 -844 
Q 1016 -109 783 600 
Q 550 1309 550 2009 
Q 550 2706 781 3412 
Q 1013 4119 1484 4856 
L 1984 4856 
z
" transform="scale(0.015625)"/>
       <path id="DejaVuSans-6d" d="M 3328 2828 
Q 3544 3216 3844 3400 
Q 4144 3584 4550 3584 
Q 5097 3584 5394 3201 
Q 5691 2819 5691 2113 
L 5691 0 
L 5113 0 
L 5113 2094 
Q 5113 2597 4934 2840 
Q 4756 3084 4391 3084 
Q 3944 3084 3684 2787 
Q 3425 2491 3425 1978 
L 3425 0 
L 2847 0 
L 2847 2094 
Q 2847 2600 2669 2842 
Q 2491 3084 2119 3084 
Q 1678 3084 1418 2786 
Q 1159 2488 1159 1978 
L 1159 0 
L 581 0 
L 581 3500 
L 1159 3500 
L 1159 2956 
Q 1356 3278 1631 3431 
Q 1906 3584 2284 3584 
Q 2666 3584 2933 3390 
Q 3200 3197 3328 2828 
z
" transform="scale(0.015625)"/>
       <path id="DejaVuSans-29" d="M 513 4856 
L 1013 4856 
Q 1481 4119 1714 3412 
Q 1947 2706 1947 2009 
Q 1947 1309 1714 600 
Q 1481 -109 1013 -844 
L 513 -844 
Q 928 -128 1133 580 
Q 1338 1288 1338 2009 
Q 1338 2731 1133 3434 
Q 928 4138 513 4856 
z
" transform="scale(0.015625)"/>
      </defs>
      <use xlink:href="#DejaVuSans-48"/>
      <use xlink:href="#DejaVuSans-61" x="75.195312"/>
      <use xlink:href="#DejaVuSans-6e" x="136.474609"/>
      <use xlink:href="#DejaVuSans-64" x="199.853516"/>
      <use xlink:href="#DejaVuSans-73" x="263.330078"/>
      <use xlink:href="#DejaVuSans-68" x="315.429688"/>
      <use xlink:href="#DejaVuSans-61" x="378.808594"/>
      <use xlink:href="#DejaVuSans-6b" x="440.087891"/>
      <use xlink:href="#DejaVuSans-65" x="494.373047"/>
      <use xlink:href="#DejaVuSans-20" x="555.896484"/>
      <use xlink:href="#DejaVuSans-64" x="587.683594"/>
      <use xlink:href="#DejaVuSans-75" x="651.160156"/>
      <use xlink:href="#DejaVuSans-72" x="714.539062"/>
      <use xlink:href="#DejaVuSans-61" x="755.652344"/>
      <use xlink:href="#DejaVuSans-74" x="816.931641"/>
      <use xlink:href="#DejaVuSans-69" x="856.140625"/>
      <use xlink:href="#DejaVuSans-6f" x="883.923828"/>
      <use xlink:href="#DejaVuSans-6e" x="945.105469"/>
      <use xlink:href="#DejaVuSans-20" x="1008.484375"/>
      <use xlink:href="#DejaVuSans-28" x="1040.271484"/>
      <use xlink:href="#DejaVuSans-6d" x="1079.285156"/>
      <use xlink:href="#DejaVuSans-73" x="1176.697266"/>
      <use xlink:href="#DejaVuSans-29" x="1228.796875"/>
     </g>
    </g>
   </g>
   <g id="PolyCollection_1">
    <defs>
     <path id="mc70393d2bd" d="M 138.204603 -74.465983 
L 136.979397 -74.465983 
L 136.564894 -74.5714 
L 135.922951 -74.676817 
L 134.962403 -74.782234 
L 133.574204 -74.887651 
L 131.637566 -74.993068 
L 129.031731 -75.098485 
L 125.653767 -75.203902 
L 121.441388 -75.309319 
L 116.39794 -75.414736 
L 110.614809 -75.520153 
L 104.285251 -75.62557 
L 97.70377 -75.730986 
L 91.247107 -75.836403 
L 85.336562 -75.94182 
L 80.386122 -76.047237 
L 76.745154 -76.152654 
L 74.647 -76.258071 
L 74.1744 -76.363488 
L 75.24929 -76.468905 
L 77.648963 -76.574322 
L 81.044557 -76.679739 
L 85.053127 -76.785156 
L 89.292402 -76.890573 
L 93.428138 -76.99599 
L 97.207014 -77.101407 
L 100.472126 -77.206824 
L 103.16206 -77.31224 
L 105.297175 -77.417657 
L 106.958034 -77.523074 
L 108.260763 -77.628491 
L 109.333228 -77.733908 
L 110.294647 -77.839325 
L 111.240092 -77.944742 
L 112.230423 -78.050159 
L 113.2877 -78.155576 
L 114.395815 -78.260993 
L 115.505968 -78.36641 
L 116.546465 -78.471827 
L 117.435954 -78.577244 
L 118.098713 -78.682661 
L 118.479954 -78.788078 
L 118.558584 -78.893495 
L 118.354803 -78.998911 
L 117.930531 -79.104328 
L 117.381889 -79.209745 
L 116.82479 -79.315162 
L 116.376317 -79.420579 
L 116.135786 -79.525996 
L 116.169492 -79.631413 
L 116.502233 -79.73683 
L 117.117001 -79.842247 
L 117.962198 -79.947664 
L 118.964109 -80.053081 
L 120.041483 -80.158498 
L 121.119078 -80.263915 
L 122.137876 -80.369332 
L 123.060783 -80.474749 
L 123.8738 -80.580165 
L 124.583458 -80.685582 
L 125.211721 -80.790999 
L 125.789582 -80.896416 
L 126.350473 -81.001833 
L 126.924354 -81.10725 
L 127.533166 -81.212667 
L 128.18813 -81.318084 
L 128.889114 -81.423501 
L 129.625995 -81.528918 
L 130.381582 -81.634335 
L 131.135389 -81.739752 
L 131.867391 -81.845169 
L 132.560999 -81.950586 
L 133.20475 -82.056003 
L 133.792619 -82.16142 
L 134.323201 -82.266836 
L 134.798248 -82.372253 
L 135.221079 -82.47767 
L 135.595283 -82.583087 
L 135.923914 -82.688504 
L 136.209222 -82.793921 
L 136.452817 -82.899338 
L 136.656103 -83.004755 
L 136.820837 -83.110172 
L 136.949626 -83.215589 
L 137.046277 -83.321006 
L 137.115864 -83.426423 
L 137.164495 -83.53184 
L 137.198793 -83.637257 
L 137.225192 -83.742674 
L 137.249205 -83.848091 
L 137.274826 -83.953507 
L 137.304225 -84.058924 
L 137.337778 -84.164341 
L 137.374416 -84.269758 
L 137.412171 -84.375175 
L 137.448793 -84.480592 
L 137.482268 -84.586009 
L 137.511171 -84.691426 
L 137.534797 -84.796843 
L 137.55312 -84.90226 
L 137.63088 -84.90226 
L 137.63088 -84.90226 
L 137.649203 -84.796843 
L 137.672829 -84.691426 
L 137.701732 -84.586009 
L 137.735207 -84.480592 
L 137.771829 -84.375175 
L 137.809584 -84.269758 
L 137.846222 -84.164341 
L 137.879775 -84.058924 
L 137.909174 -83.953507 
L 137.934795 -83.848091 
L 137.958808 -83.742674 
L 137.985207 -83.637257 
L 138.019505 -83.53184 
L 138.068136 -83.426423 
L 138.137723 -83.321006 
L 138.234374 -83.215589 
L 138.363163 -83.110172 
L 138.527897 -83.004755 
L 138.731183 -82.899338 
L 138.974778 -82.793921 
L 139.260086 -82.688504 
L 139.588717 -82.583087 
L 139.962921 -82.47767 
L 140.385752 -82.372253 
L 140.860799 -82.266836 
L 141.391381 -82.16142 
L 141.97925 -82.056003 
L 142.623001 -81.950586 
L 143.316609 -81.845169 
L 144.048611 -81.739752 
L 144.802418 -81.634335 
L 145.558005 -81.528918 
L 146.294886 -81.423501 
L 146.99587 -81.318084 
L 147.650834 -81.212667 
L 148.259646 -81.10725 
L 148.833527 -81.001833 
L 149.394418 -80.896416 
L 149.972279 -80.790999 
L 150.600542 -80.685582 
L 151.3102 -80.580165 
L 152.123217 -80.474749 
L 153.046124 -80.369332 
L 154.064922 -80.263915 
L 155.142517 -80.158498 
L 156.219891 -80.053081 
L 157.221802 -79.947664 
L 158.066999 -79.842247 
L 158.681767 -79.73683 
L 159.014508 -79.631413 
L 159.048214 -79.525996 
L 158.807683 -79.420579 
L 158.35921 -79.315162 
L 157.802111 -79.209745 
L 157.253469 -79.104328 
L 156.829197 -78.998911 
L 156.625416 -78.893495 
L 156.704046 -78.788078 
L 157.085287 -78.682661 
L 157.748046 -78.577244 
L 158.637535 -78.471827 
L 159.678032 -78.36641 
L 160.788185 -78.260993 
L 161.8963 -78.155576 
L 162.953577 -78.050159 
L 163.943908 -77.944742 
L 164.889353 -77.839325 
L 165.850772 -77.733908 
L 166.923237 -77.628491 
L 168.225966 -77.523074 
L 169.886825 -77.417657 
L 172.02194 -77.31224 
L 174.711874 -77.206824 
L 177.976986 -77.101407 
L 181.755862 -76.99599 
L 185.891598 -76.890573 
L 190.130873 -76.785156 
L 194.139443 -76.679739 
L 197.535037 -76.574322 
L 199.93471 -76.468905 
L 201.0096 -76.363488 
L 200.537 -76.258071 
L 198.438846 -76.152654 
L 194.797878 -76.047237 
L 189.847438 -75.94182 
L 183.936893 -75.836403 
L 177.48023 -75.730986 
L 170.898749 -75.62557 
L 164.569191 -75.520153 
L 158.78606 -75.414736 
L 153.742612 -75.309319 
L 149.530233 -75.203902 
L 146.152269 -75.098485 
L 143.546434 -74.993068 
L 141.609796 -74.887651 
L 140.221597 -74.782234 
L 139.261049 -74.676817 
L 138.619106 -74.5714 
L 138.204603 -74.465983 
z
" style="stroke: #595959; stroke-width: 1.25"/>
    </defs>
    <g clip-path="url(#pf6aef80493)">
     <use xlink:href="#mc70393d2bd" x="0" y="432" style="fill: #72b6a1; stroke: #595959; stroke-width: 1.25"/>
    </g>
   </g>
   <g id="PolyCollection_2">
    <defs>
     <path id="m2458265d32" d="M 296.470047 -70.655549 
L 295.801953 -70.655549 
L 295.549762 -70.738249 
L 295.139146 -70.820949 
L 294.492701 -70.90365 
L 293.509055 -70.98635 
L 292.063664 -71.06905 
L 290.015275 -71.15175 
L 287.220236 -71.234451 
L 283.555729 -71.317151 
L 278.950742 -71.399851 
L 273.420423 -71.482552 
L 267.096212 -71.565252 
L 260.242184 -71.647952 
L 253.248767 -71.730652 
L 246.599013 -71.813353 
L 240.809483 -71.896053 
L 236.355511 -71.978753 
L 233.596482 -72.061453 
L 232.7184 -72.144154 
L 233.707265 -72.226854 
L 236.358871 -72.309554 
L 240.320979 -72.392254 
L 245.155889 -72.474955 
L 250.407612 -72.557655 
L 255.658959 -72.640355 
L 260.568903 -72.723055 
L 264.887398 -72.805756 
L 268.451 -72.888456 
L 271.166675 -72.971156 
L 272.992368 -73.053857 
L 273.92162 -73.136557 
L 273.976544 -73.219257 
L 273.209756 -73.301957 
L 271.712309 -73.384658 
L 269.622242 -73.467358 
L 267.12763 -73.550058 
L 264.459434 -73.632758 
L 261.872654 -73.715459 
L 259.61831 -73.798159 
L 257.912208 -73.880859 
L 256.907969 -73.963559 
L 256.68079 -74.04626 
L 257.225258 -74.12896 
L 258.466479 -74.21166 
L 260.280353 -74.29436 
L 262.517182 -74.377061 
L 265.023217 -74.459761 
L 267.656742 -74.542461 
L 270.297739 -74.625161 
L 272.852085 -74.707862 
L 275.252094 -74.790562 
L 277.454974 -74.873262 
L 279.44004 -74.955963 
L 281.204844 -75.038663 
L 282.760191 -75.121363 
L 284.12436 -75.204063 
L 285.31743 -75.286764 
L 286.35698 -75.369464 
L 287.256275 -75.452164 
L 288.025286 -75.534864 
L 288.67387 -75.617565 
L 289.215536 -75.700265 
L 289.669992 -75.782965 
L 290.063115 -75.865665 
L 290.424071 -75.948366 
L 290.780455 -76.031066 
L 291.153102 -76.113766 
L 291.552314 -76.196466 
L 291.976689 -76.279167 
L 292.414768 -76.361867 
L 292.848809 -76.444567 
L 293.259443 -76.527268 
L 293.629928 -76.609968 
L 293.949037 -76.692668 
L 294.212198 -76.775368 
L 294.421025 -76.858069 
L 294.58171 -76.940769 
L 294.702931 -77.023469 
L 294.793827 -77.106169 
L 294.862492 -77.18887 
L 294.91518 -77.27157 
L 294.956247 -77.35427 
L 294.988659 -77.43697 
L 295.014824 -77.519671 
L 295.037411 -77.602371 
L 295.059888 -77.685071 
L 295.086582 -77.767771 
L 295.12221 -77.850472 
L 295.171007 -77.933172 
L 295.235719 -78.015872 
L 295.316777 -78.098573 
L 295.411959 -78.181273 
L 295.51666 -78.263973 
L 295.624727 -78.346673 
L 295.729614 -78.429374 
L 295.825545 -78.512074 
L 295.908378 -78.594774 
L 295.976008 -78.677474 
L 296.028285 -78.760175 
L 296.066587 -78.842875 
L 296.205413 -78.842875 
L 296.205413 -78.842875 
L 296.243715 -78.760175 
L 296.295992 -78.677474 
L 296.363622 -78.594774 
L 296.446455 -78.512074 
L 296.542386 -78.429374 
L 296.647273 -78.346673 
L 296.75534 -78.263973 
L 296.860041 -78.181273 
L 296.955223 -78.098573 
L 297.036281 -78.015872 
L 297.100993 -77.933172 
L 297.14979 -77.850472 
L 297.185418 -77.767771 
L 297.212112 -77.685071 
L 297.234589 -77.602371 
L 297.257176 -77.519671 
L 297.283341 -77.43697 
L 297.315753 -77.35427 
L 297.35682 -77.27157 
L 297.409508 -77.18887 
L 297.478173 -77.106169 
L 297.569069 -77.023469 
L 297.69029 -76.940769 
L 297.850975 -76.858069 
L 298.059802 -76.775368 
L 298.322963 -76.692668 
L 298.642072 -76.609968 
L 299.012557 -76.527268 
L 299.423191 -76.444567 
L 299.857232 -76.361867 
L 300.295311 -76.279167 
L 300.719686 -76.196466 
L 301.118898 -76.113766 
L 301.491545 -76.031066 
L 301.847929 -75.948366 
L 302.208885 -75.865665 
L 302.602008 -75.782965 
L 303.056464 -75.700265 
L 303.59813 -75.617565 
L 304.246714 -75.534864 
L 305.015725 -75.452164 
L 305.91502 -75.369464 
L 306.95457 -75.286764 
L 308.14764 -75.204063 
L 309.511809 -75.121363 
L 311.067156 -75.038663 
L 312.83196 -74.955963 
L 314.817026 -74.873262 
L 317.019906 -74.790562 
L 319.419915 -74.707862 
L 321.974261 -74.625161 
L 324.615258 -74.542461 
L 327.248783 -74.459761 
L 329.754818 -74.377061 
L 331.991647 -74.29436 
L 333.805521 -74.21166 
L 335.046742 -74.12896 
L 335.59121 -74.04626 
L 335.364031 -73.963559 
L 334.359792 -73.880859 
L 332.65369 -73.798159 
L 330.399346 -73.715459 
L 327.812566 -73.632758 
L 325.14437 -73.550058 
L 322.649758 -73.467358 
L 320.559691 -73.384658 
L 319.062244 -73.301957 
L 318.295456 -73.219257 
L 318.35038 -73.136557 
L 319.279632 -73.053857 
L 321.105325 -72.971156 
L 323.821 -72.888456 
L 327.384602 -72.805756 
L 331.703097 -72.723055 
L 336.613041 -72.640355 
L 341.864388 -72.557655 
L 347.116111 -72.474955 
L 351.951021 -72.392254 
L 355.913129 -72.309554 
L 358.564735 -72.226854 
L 359.5536 -72.144154 
L 358.675518 -72.061453 
L 355.916489 -71.978753 
L 351.462517 -71.896053 
L 345.672987 -71.813353 
L 339.023233 -71.730652 
L 332.029816 -71.647952 
L 325.175788 -71.565252 
L 318.851577 -71.482552 
L 313.321258 -71.399851 
L 308.716271 -71.317151 
L 305.051764 -71.234451 
L 302.256725 -71.15175 
L 300.208336 -71.06905 
L 298.762945 -70.98635 
L 297.779299 -70.90365 
L 297.132854 -70.820949 
L 296.722238 -70.738249 
L 296.470047 -70.655549 
z
" style="stroke: #595959; stroke-width: 1.25"/>
    </defs>
    <g clip-path="url(#pf6aef80493)">
     <use xlink:href="#m2458265d32" x="0" y="432" style="fill: #e99675; stroke: #595959; stroke-width: 1.25"/>
    </g>
   </g>
   <g id="PolyCollection_3">
    <defs>
     <path id="m811a77ada1" d="M 456.446389 -187.732358 
L 452.913611 -187.732358 
L 451.829629 -188.742257 
L 450.239348 -189.752155 
L 447.999488 -190.762054 
L 444.973145 -191.771952 
L 441.054811 -192.78185 
L 436.200441 -193.791749 
L 430.457652 -194.801647 
L 423.98926 -195.811546 
L 417.082692 -196.821444 
L 410.139221 -197.831343 
L 403.640427 -198.841241 
L 398.094324 -199.85114 
L 393.968939 -200.861038 
L 391.625193 -201.870937 
L 391.2624 -202.880835 
L 392.88781 -203.890734 
L 396.316688 -204.900632 
L 401.202782 -205.910531 
L 407.092445 -206.920429 
L 413.490984 -207.930328 
L 419.928128 -208.940226 
L 426.011069 -209.950124 
L 431.457571 -210.960023 
L 436.106756 -211.969921 
L 439.91002 -212.97982 
L 442.90782 -213.989718 
L 445.199534 -214.999617 
L 446.913092 -216.009515 
L 448.179442 -217.019414 
L 449.114623 -218.029312 
L 449.810115 -219.039211 
L 450.330463 -220.049109 
L 450.716204 -221.059008 
L 450.989818 -222.068906 
L 451.16257 -223.078805 
L 451.240649 -224.088703 
L 451.229624 -225.098602 
L 451.136914 -226.1085 
L 450.972501 -227.118398 
L 450.748427 -228.128297 
L 450.477763 -229.138195 
L 450.173641 -230.148094 
L 449.848729 -231.157992 
L 449.515232 -232.167891 
L 449.185262 -233.177789 
L 448.871228 -234.187688 
L 448.585872 -235.197586 
L 448.34167 -236.207485 
L 448.149557 -237.217383 
L 448.017191 -238.227282 
L 447.947234 -239.23718 
L 447.936221 -240.247079 
L 447.974531 -241.256977 
L 448.047694 -242.266875 
L 448.138902 -243.276774 
L 448.232225 -244.286672 
L 448.315754 -245.296571 
L 448.383904 -246.306469 
L 448.438298 -247.316368 
L 448.487065 -248.326266 
L 448.54278 -249.336165 
L 448.619659 -250.346063 
L 448.730728 -251.355962 
L 448.885617 -252.36586 
L 449.089376 -253.375759 
L 449.34236 -254.385657 
L 449.640939 -255.395556 
L 449.978635 -256.405454 
L 450.347266 -257.415353 
L 450.737835 -258.425251 
L 451.141067 -259.435149 
L 451.547684 -260.445048 
L 451.94857 -261.454946 
L 452.334988 -262.464845 
L 452.698902 -263.474743 
L 453.033393 -264.484642 
L 453.333061 -265.49454 
L 453.594328 -266.504439 
L 453.815562 -267.514337 
L 453.997026 -268.524236 
L 454.140678 -269.534134 
L 454.249891 -270.544033 
L 454.329135 -271.553931 
L 454.383645 -272.56383 
L 454.419068 -273.573728 
L 454.44109 -274.583627 
L 454.455039 -275.593525 
L 454.465503 -276.603423 
L 454.47602 -277.613322 
L 454.488879 -278.62322 
L 454.5051 -279.633119 
L 454.524584 -280.643017 
L 454.546401 -281.652916 
L 454.569161 -282.662814 
L 454.591382 -283.672713 
L 454.611781 -284.682611 
L 454.629465 -285.69251 
L 454.643989 -286.702408 
L 454.655321 -287.712307 
L 454.704679 -287.712307 
L 454.704679 -287.712307 
L 454.716011 -286.702408 
L 454.730535 -285.69251 
L 454.748219 -284.682611 
L 454.768618 -283.672713 
L 454.790839 -282.662814 
L 454.813599 -281.652916 
L 454.835416 -280.643017 
L 454.8549 -279.633119 
L 454.871121 -278.62322 
L 454.88398 -277.613322 
L 454.894497 -276.603423 
L 454.904961 -275.593525 
L 454.91891 -274.583627 
L 454.940932 -273.573728 
L 454.976355 -272.56383 
L 455.030865 -271.553931 
L 455.110109 -270.544033 
L 455.219322 -269.534134 
L 455.362974 -268.524236 
L 455.544438 -267.514337 
L 455.765672 -266.504439 
L 456.026939 -265.49454 
L 456.326607 -264.484642 
L 456.661098 -263.474743 
L 457.025012 -262.464845 
L 457.41143 -261.454946 
L 457.812316 -260.445048 
L 458.218933 -259.435149 
L 458.622165 -258.425251 
L 459.012734 -257.415353 
L 459.381365 -256.405454 
L 459.719061 -255.395556 
L 460.01764 -254.385657 
L 460.270624 -253.375759 
L 460.474383 -252.36586 
L 460.629272 -251.355962 
L 460.740341 -250.346063 
L 460.81722 -249.336165 
L 460.872935 -248.326266 
L 460.921702 -247.316368 
L 460.976096 -246.306469 
L 461.044246 -245.296571 
L 461.127775 -244.286672 
L 461.221098 -243.276774 
L 461.312306 -242.266875 
L 461.385469 -241.256977 
L 461.423779 -240.247079 
L 461.412766 -239.23718 
L 461.342809 -238.227282 
L 461.210443 -237.217383 
L 461.01833 -236.207485 
L 460.774128 -235.197586 
L 460.488772 -234.187688 
L 460.174738 -233.177789 
L 459.844768 -232.167891 
L 459.511271 -231.157992 
L 459.186359 -230.148094 
L 458.882237 -229.138195 
L 458.611573 -228.128297 
L 458.387499 -227.118398 
L 458.223086 -226.1085 
L 458.130376 -225.098602 
L 458.119351 -224.088703 
L 458.19743 -223.078805 
L 458.370182 -222.068906 
L 458.643796 -221.059008 
L 459.029537 -220.049109 
L 459.549885 -219.039211 
L 460.245377 -218.029312 
L 461.180558 -217.019414 
L 462.446908 -216.009515 
L 464.160466 -214.999617 
L 466.45218 -213.989718 
L 469.44998 -212.97982 
L 473.253244 -211.969921 
L 477.902429 -210.960023 
L 483.348931 -209.950124 
L 489.431872 -208.940226 
L 495.869016 -207.930328 
L 502.267555 -206.920429 
L 508.157218 -205.910531 
L 513.043312 -204.900632 
L 516.47219 -203.890734 
L 518.0976 -202.880835 
L 517.734807 -201.870937 
L 515.391061 -200.861038 
L 511.265676 -199.85114 
L 505.719573 -198.841241 
L 499.220779 -197.831343 
L 492.277308 -196.821444 
L 485.37074 -195.811546 
L 478.902348 -194.801647 
L 473.159559 -193.791749 
L 468.305189 -192.78185 
L 464.386855 -191.771952 
L 461.360512 -190.762054 
L 459.120652 -189.752155 
L 457.530371 -188.742257 
L 456.446389 -187.732358 
z
" style="stroke: #595959; stroke-width: 1.25"/>
    </defs>
    <g clip-path="url(#pf6aef80493)">
     <use xlink:href="#m811a77ada1" x="0" y="432" style="fill: #95a3c3; stroke: #595959; stroke-width: 1.25"/>
    </g>
   </g>
   <g id="PolyCollection_4">
    <defs>
     <path id="md68290392e" d="M 614.567442 -213.398102 
L 611.880558 -213.398102 
L 610.386095 -215.166883 
L 607.702085 -216.935664 
L 603.321298 -218.704444 
L 596.846333 -220.473225 
L 588.229246 -222.242006 
L 578.002197 -224.010787 
L 567.365987 -225.779568 
L 558.022293 -227.548349 
L 551.741433 -229.31713 
L 549.8064 -231.08591 
L 552.572232 -232.854691 
L 559.349186 -234.623472 
L 568.662783 -236.392253 
L 578.757163 -238.161034 
L 588.106507 -239.929815 
L 595.735195 -241.698596 
L 601.278133 -243.467376 
L 604.843869 -245.236157 
L 606.803145 -247.004938 
L 607.605937 -248.773719 
L 607.671295 -250.5425 
L 607.342876 -252.311281 
L 606.881356 -254.080062 
L 606.469032 -255.848843 
L 606.216029 -257.617623 
L 606.16836 -259.386404 
L 606.320723 -261.155185 
L 606.633697 -262.923966 
L 607.051341 -264.692747 
L 607.514903 -266.461528 
L 607.971177 -268.230309 
L 608.377125 -269.999089 
L 608.7031 -271.76787 
L 608.935337 -273.536651 
L 609.076418 -275.305432 
L 609.142267 -277.074213 
L 609.156117 -278.842994 
L 609.142123 -280.611775 
L 609.121722 -282.380555 
L 609.113684 -284.149336 
L 609.135742 -285.918117 
L 609.204404 -287.686898 
L 609.331425 -289.455679 
L 609.518932 -291.22446 
L 609.75733 -292.993241 
L 610.028784 -294.762021 
L 610.315101 -296.530802 
L 610.605318 -298.299583 
L 610.898067 -300.068364 
L 611.19724 -301.837145 
L 611.504155 -303.605926 
L 611.811853 -305.374707 
L 612.105428 -307.143487 
L 612.367883 -308.912268 
L 612.587254 -310.681049 
L 612.76046 -312.44983 
L 612.892265 -314.218611 
L 612.991127 -315.987392 
L 613.06514 -317.756173 
L 613.120106 -319.524954 
L 613.159757 -321.293734 
L 613.186875 -323.062515 
L 613.204121 -324.831296 
L 613.214196 -326.600077 
L 613.219563 -328.368858 
L 613.222162 -330.137639 
L 613.223304 -331.90642 
L 613.223759 -333.6752 
L 613.223924 -335.443981 
L 613.223978 -337.212762 
L 613.223994 -338.981543 
L 613.223999 -340.750324 
L 613.224 -342.519105 
L 613.224 -344.287886 
L 613.224 -346.056666 
L 613.223999 -347.825447 
L 613.223997 -349.594228 
L 613.223988 -351.363009 
L 613.223956 -353.13179 
L 613.223856 -354.900571 
L 613.223566 -356.669352 
L 613.222809 -358.438132 
L 613.221022 -360.206913 
L 613.217211 -361.975694 
L 613.20989 -363.744475 
L 613.197259 -365.513256 
L 613.177795 -367.282037 
L 613.151209 -369.050818 
L 613.119444 -370.819598 
L 613.08707 -372.588379 
L 613.060496 -374.35716 
L 613.045994 -376.125941 
L 613.047307 -377.894722 
L 613.064087 -379.663503 
L 613.092045 -381.432284 
L 613.124723 -383.201065 
L 613.1559 -384.969845 
L 613.181408 -386.738626 
L 613.199713 -388.507407 
L 613.248287 -388.507407 
L 613.248287 -388.507407 
L 613.266592 -386.738626 
L 613.2921 -384.969845 
L 613.323277 -383.201065 
L 613.355955 -381.432284 
L 613.383913 -379.663503 
L 613.400693 -377.894722 
L 613.402006 -376.125941 
L 613.387504 -374.35716 
L 613.36093 -372.588379 
L 613.328556 -370.819598 
L 613.296791 -369.050818 
L 613.270205 -367.282037 
L 613.250741 -365.513256 
L 613.23811 -363.744475 
L 613.230789 -361.975694 
L 613.226978 -360.206913 
L 613.225191 -358.438132 
L 613.224434 -356.669352 
L 613.224144 -354.900571 
L 613.224044 -353.13179 
L 613.224012 -351.363009 
L 613.224003 -349.594228 
L 613.224001 -347.825447 
L 613.224 -346.056666 
L 613.224 -344.287886 
L 613.224 -342.519105 
L 613.224001 -340.750324 
L 613.224006 -338.981543 
L 613.224022 -337.212762 
L 613.224076 -335.443981 
L 613.224241 -333.6752 
L 613.224696 -331.90642 
L 613.225838 -330.137639 
L 613.228437 -328.368858 
L 613.233804 -326.600077 
L 613.243879 -324.831296 
L 613.261125 -323.062515 
L 613.288243 -321.293734 
L 613.327894 -319.524954 
L 613.38286 -317.756173 
L 613.456873 -315.987392 
L 613.555735 -314.218611 
L 613.68754 -312.44983 
L 613.860746 -310.681049 
L 614.080117 -308.912268 
L 614.342572 -307.143487 
L 614.636147 -305.374707 
L 614.943845 -303.605926 
L 615.25076 -301.837145 
L 615.549933 -300.068364 
L 615.842682 -298.299583 
L 616.132899 -296.530802 
L 616.419216 -294.762021 
L 616.69067 -292.993241 
L 616.929068 -291.22446 
L 617.116575 -289.455679 
L 617.243596 -287.686898 
L 617.312258 -285.918117 
L 617.334316 -284.149336 
L 617.326278 -282.380555 
L 617.305877 -280.611775 
L 617.291883 -278.842994 
L 617.305733 -277.074213 
L 617.371582 -275.305432 
L 617.512663 -273.536651 
L 617.7449 -271.76787 
L 618.070875 -269.999089 
L 618.476823 -268.230309 
L 618.933097 -266.461528 
L 619.396659 -264.692747 
L 619.814303 -262.923966 
L 620.127277 -261.155185 
L 620.27964 -259.386404 
L 620.231971 -257.617623 
L 619.978968 -255.848843 
L 619.566644 -254.080062 
L 619.105124 -252.311281 
L 618.776705 -250.5425 
L 618.842063 -248.773719 
L 619.644855 -247.004938 
L 621.604131 -245.236157 
L 625.169867 -243.467376 
L 630.712805 -241.698596 
L 638.341493 -239.929815 
L 647.690837 -238.161034 
L 657.785217 -236.392253 
L 667.098814 -234.623472 
L 673.875768 -232.854691 
L 676.6416 -231.08591 
L 674.706567 -229.31713 
L 668.425707 -227.548349 
L 659.082013 -225.779568 
L 648.445803 -224.010787 
L 638.218754 -222.242006 
L 629.601667 -220.473225 
L 623.126702 -218.704444 
L 618.745915 -216.935664 
L 616.061905 -215.166883 
L 614.567442 -213.398102 
z
" style="stroke: #595959; stroke-width: 1.25"/>
    </defs>
    <g clip-path="url(#pf6aef80493)">
     <use xlink:href="#md68290392e" x="0" y="432" style="fill: #db96c0; stroke: #595959; stroke-width: 1.25"/>
    </g>
   </g>
   <g id="PolyCollection_5">
    <defs>
     <path id="m253cd2351e" d="M 773.073998 -195.784587 
L 770.462002 -195.784587 
L 769.515572 -196.843437 
L 768.043922 -197.902287 
L 765.86402 -198.961137 
L 762.79095 -200.019987 
L 758.673334 -201.078837 
L 753.438885 -202.137687 
L 747.141972 -203.196537 
L 740.000899 -204.255387 
L 732.411076 -205.314237 
L 724.923232 -206.373087 
L 718.183319 -207.431937 
L 712.841292 -208.490787 
L 709.446094 -209.549637 
L 708.3504 -210.608487 
L 709.648013 -211.667337 
L 713.159229 -212.726187 
L 718.467046 -213.785037 
L 724.994069 -214.843887 
L 732.10054 -215.902737 
L 739.180814 -216.961587 
L 745.739082 -218.020437 
L 751.43327 -219.079287 
L 756.085393 -220.138137 
L 759.66442 -221.196987 
L 762.251853 -222.255837 
L 764.000765 -223.314687 
L 765.096827 -224.373537 
L 765.726597 -225.432387 
L 766.055244 -226.491237 
L 766.213685 -227.550087 
L 766.293921 -228.608937 
L 766.350809 -229.667787 
L 766.408332 -230.726637 
L 766.468419 -231.785487 
L 766.520406 -232.844337 
L 766.549567 -233.903187 
L 766.543539 -234.962037 
L 766.496143 -236.020887 
L 766.408673 -237.079737 
L 766.289202 -238.138587 
L 766.150709 -239.197437 
L 766.008796 -240.256287 
L 765.879548 -241.315137 
L 765.777823 -242.373987 
L 765.71596 -243.432837 
L 765.702744 -244.491687 
L 765.742479 -245.550537 
L 765.834144 -246.609387 
L 765.970837 -247.668237 
L 766.139857 -248.727087 
L 766.323814 -249.785937 
L 766.502966 -250.844787 
L 766.658613 -251.903637 
L 766.776938 -252.962487 
L 766.852372 -254.021337 
L 766.889458 -255.080187 
L 766.902484 -256.139037 
L 766.912742 -257.197887 
L 766.943947 -258.256737 
L 767.017011 -259.315587 
L 767.145568 -260.374437 
L 767.333483 -261.433287 
L 767.57492 -262.492137 
L 767.856798 -263.550987 
L 768.162681 -264.609837 
L 768.47686 -265.668687 
L 768.787421 -266.727537 
L 769.087599 -267.786387 
L 769.375346 -268.845237 
L 769.651626 -269.904087 
L 769.918235 -270.962937 
L 770.175952 -272.021787 
L 770.423531 -273.080637 
L 770.657677 -274.139487 
L 770.873783 -275.198337 
L 771.06705 -276.257187 
L 771.23355 -277.316037 
L 771.370952 -278.374887 
L 771.478785 -279.433737 
L 771.558298 -280.492587 
L 771.612069 -281.551437 
L 771.643555 -282.610287 
L 771.656711 -283.669137 
L 771.655753 -284.727987 
L 771.645013 -285.786837 
L 771.628839 -286.845687 
L 771.611427 -287.904537 
L 771.596556 -288.963387 
L 771.587248 -290.022237 
L 771.585435 -291.081087 
L 771.591753 -292.139937 
L 771.605542 -293.198787 
L 771.625088 -294.257637 
L 771.648047 -295.316487 
L 771.671945 -296.375337 
L 771.69462 -297.434187 
L 771.714522 -298.493037 
L 771.73082 -299.551887 
L 771.743341 -300.610737 
L 771.792659 -300.610737 
L 771.792659 -300.610737 
L 771.80518 -299.551887 
L 771.821478 -298.493037 
L 771.84138 -297.434187 
L 771.864055 -296.375337 
L 771.887953 -295.316487 
L 771.910912 -294.257637 
L 771.930458 -293.198787 
L 771.944247 -292.139937 
L 771.950565 -291.081087 
L 771.948752 -290.022237 
L 771.939444 -288.963387 
L 771.924573 -287.904537 
L 771.907161 -286.845687 
L 771.890987 -285.786837 
L 771.880247 -284.727987 
L 771.879289 -283.669137 
L 771.892445 -282.610287 
L 771.923931 -281.551437 
L 771.977702 -280.492587 
L 772.057215 -279.433737 
L 772.165048 -278.374887 
L 772.30245 -277.316037 
L 772.46895 -276.257187 
L 772.662217 -275.198337 
L 772.878323 -274.139487 
L 773.112469 -273.080637 
L 773.360048 -272.021787 
L 773.617765 -270.962937 
L 773.884374 -269.904087 
L 774.160654 -268.845237 
L 774.448401 -267.786387 
L 774.748579 -266.727537 
L 775.05914 -265.668687 
L 775.373319 -264.609837 
L 775.679202 -263.550987 
L 775.96108 -262.492137 
L 776.202517 -261.433287 
L 776.390432 -260.374437 
L 776.518989 -259.315587 
L 776.592053 -258.256737 
L 776.623258 -257.197887 
L 776.633516 -256.139037 
L 776.646542 -255.080187 
L 776.683628 -254.021337 
L 776.759062 -252.962487 
L 776.877387 -251.903637 
L 777.033034 -250.844787 
L 777.212186 -249.785937 
L 777.396143 -248.727087 
L 777.565163 -247.668237 
L 777.701856 -246.609387 
L 777.793521 -245.550537 
L 777.833256 -244.491687 
L 777.82004 -243.432837 
L 777.758177 -242.373987 
L 777.656452 -241.315137 
L 777.527204 -240.256287 
L 777.385291 -239.197437 
L 777.246798 -238.138587 
L 777.127327 -237.079737 
L 777.039857 -236.020887 
L 776.992461 -234.962037 
L 776.986433 -233.903187 
L 777.015594 -232.844337 
L 777.067581 -231.785487 
L 777.127668 -230.726637 
L 777.185191 -229.667787 
L 777.242079 -228.608937 
L 777.322315 -227.550087 
L 777.480756 -226.491237 
L 777.809403 -225.432387 
L 778.439173 -224.373537 
L 779.535235 -223.314687 
L 781.284147 -222.255837 
L 783.87158 -221.196987 
L 787.450607 -220.138137 
L 792.10273 -219.079287 
L 797.796918 -218.020437 
L 804.355186 -216.961587 
L 811.43546 -215.902737 
L 818.541931 -214.843887 
L 825.068954 -213.785037 
L 830.376771 -212.726187 
L 833.887987 -211.667337 
L 835.1856 -210.608487 
L 834.089906 -209.549637 
L 830.694708 -208.490787 
L 825.352681 -207.431937 
L 818.612768 -206.373087 
L 811.124924 -205.314237 
L 803.535101 -204.255387 
L 796.394028 -203.196537 
L 790.097115 -202.137687 
L 784.862666 -201.078837 
L 780.74505 -200.019987 
L 777.67198 -198.961137 
L 775.492078 -197.902287 
L 774.020428 -196.843437 
L 773.073998 -195.784587 
z
" style="stroke: #595959; stroke-width: 1.25"/>
    </defs>
    <g clip-path="url(#pf6aef80493)">
     <use xlink:href="#m253cd2351e" x="0" y="432" style="fill: #a2c865; stroke: #595959; stroke-width: 1.25"/>
    </g>
   </g>
   <g id="line2d_7">
    <path d="M 137.592 355.737012 
L 137.592 356.4939 
" clip-path="url(#pf6aef80493)" style="fill: none; stroke: #000000"/>
   </g>
   <g id="line2d_8">
    <path d="M 137.592 352.792718 
L 137.592 349.1975 
" clip-path="url(#pf6aef80493)" style="fill: none; stroke: #000000"/>
   </g>
   <g id="line2d_9">
    <path d="M 131.6466 356.4939 
L 143.5374 356.4939 
" clip-path="url(#pf6aef80493)" style="fill: none; stroke: #000000; stroke-linecap: round"/>
   </g>
   <g id="line2d_10">
    <path d="M 131.6466 349.1975 
L 143.5374 349.1975 
" clip-path="url(#pf6aef80493)" style="fill: none; stroke: #000000; stroke-linecap: round"/>
   </g>
   <g id="line2d_11">
    <path d="M 296.136 359.884758 
L 296.136 360.581095 
" clip-path="url(#pf6aef80493)" style="fill: none; stroke: #000000"/>
   </g>
   <g id="line2d_12">
    <path d="M 296.136 357.91685 
L 296.136 355.070951 
" clip-path="url(#pf6aef80493)" style="fill: none; stroke: #000000"/>
   </g>
   <g id="line2d_13">
    <path d="M 290.1906 360.581095 
L 302.0814 360.581095 
" clip-path="url(#pf6aef80493)" style="fill: none; stroke: #000000; stroke-linecap: round"/>
   </g>
   <g id="line2d_14">
    <path d="M 290.1906 355.070951 
L 302.0814 355.070951 
" clip-path="url(#pf6aef80493)" style="fill: none; stroke: #000000; stroke-linecap: round"/>
   </g>
   <g id="line2d_15">
    <path d="M 454.68 230.585584 
L 454.68 234.089976 
" clip-path="url(#pf6aef80493)" style="fill: none; stroke: #000000"/>
   </g>
   <g id="line2d_16">
    <path d="M 454.68 224.333689 
L 454.68 214.986123 
" clip-path="url(#pf6aef80493)" style="fill: none; stroke: #000000"/>
   </g>
   <g id="line2d_17">
    <path d="M 448.7346 234.089976 
L 460.6254 234.089976 
" clip-path="url(#pf6aef80493)" style="fill: none; stroke: #000000; stroke-linecap: round"/>
   </g>
   <g id="line2d_18">
    <path d="M 448.7346 214.986123 
L 460.6254 214.986123 
" clip-path="url(#pf6aef80493)" style="fill: none; stroke: #000000; stroke-linecap: round"/>
   </g>
   <g id="line2d_19">
    <path d="M 613.224 202.391507 
L 613.224 206.96311 
" clip-path="url(#pf6aef80493)" style="fill: none; stroke: #000000"/>
   </g>
   <g id="line2d_20">
    <path d="M 613.224 195.170795 
L 613.224 186.769339 
" clip-path="url(#pf6aef80493)" style="fill: none; stroke: #000000"/>
   </g>
   <g id="line2d_21">
    <path d="M 607.2786 206.96311 
L 619.1694 206.96311 
" clip-path="url(#pf6aef80493)" style="fill: none; stroke: #000000; stroke-linecap: round"/>
   </g>
   <g id="line2d_22">
    <path d="M 607.2786 186.769339 
L 619.1694 186.769339 
" clip-path="url(#pf6aef80493)" style="fill: none; stroke: #000000; stroke-linecap: round"/>
   </g>
   <g id="line2d_23">
    <path d="M 771.768 222.615554 
L 771.768 226.460545 
" clip-path="url(#pf6aef80493)" style="fill: none; stroke: #000000"/>
   </g>
   <g id="line2d_24">
    <path d="M 771.768 216.371228 
L 771.768 207.023661 
" clip-path="url(#pf6aef80493)" style="fill: none; stroke: #000000"/>
   </g>
   <g id="line2d_25">
    <path d="M 765.8226 226.460545 
L 777.7134 226.460545 
" clip-path="url(#pf6aef80493)" style="fill: none; stroke: #000000; stroke-linecap: round"/>
   </g>
   <g id="line2d_26">
    <path d="M 765.8226 207.023661 
L 777.7134 207.023661 
" clip-path="url(#pf6aef80493)" style="fill: none; stroke: #000000; stroke-linecap: round"/>
   </g>
   <g id="line2d_27">
    <path d="M 125.7012 355.0104 
L 149.4828 355.0104 
" clip-path="url(#pf6aef80493)" style="fill: none; stroke: #ff0000; stroke-width: 2"/>
   </g>
   <g id="line2d_28">
    <path d="M 284.2452 359.203559 
L 308.0268 359.203559 
" clip-path="url(#pf6aef80493)" style="fill: none; stroke: #ff0000; stroke-width: 2"/>
   </g>
   <g id="line2d_29">
    <path d="M 442.7892 228.610107 
L 466.5708 228.610107 
" clip-path="url(#pf6aef80493)" style="fill: none; stroke: #ff0000; stroke-width: 2"/>
   </g>
   <g id="line2d_30">
    <path d="M 601.3332 200.060292 
L 625.1148 200.060292 
" clip-path="url(#pf6aef80493)" style="fill: none; stroke: #ff0000; stroke-width: 2"/>
   </g>
   <g id="line2d_31">
    <path d="M 759.8772 220.511405 
L 783.6588 220.511405 
" clip-path="url(#pf6aef80493)" style="fill: none; stroke: #ff0000; stroke-width: 2"/>
   </g>
   <g id="patch_3">
    <path d="M 58.32 377.237044 
L 58.32 27.6 
" style="fill: none; stroke: #cccccc; stroke-width: 1.25; stroke-linejoin: miter; stroke-linecap: square"/>
   </g>
   <g id="patch_4">
    <path d="M 851.04 377.237044 
L 851.04 27.6 
" style="fill: none; stroke: #cccccc; stroke-width: 1.25; stroke-linejoin: miter; stroke-linecap: square"/>
   </g>
   <g id="patch_5">
    <path d="M 58.32 377.237044 
L 851.04 377.237044 
" style="fill: none; stroke: #cccccc; stroke-width: 1.25; stroke-linejoin: miter; stroke-linecap: square"/>
   </g>
   <g id="patch_6">
    <path d="M 58.32 27.6 
L 851.04 27.6 
" style="fill: none; stroke: #cccccc; stroke-width: 1.25; stroke-linejoin: miter; stroke-linecap: square"/>
   </g>
   <g id="text_13">
    <!-- Handshake duration on QUIC with mldsa65 signature algorithm — ideal conditions -->
    <g style="fill: #262626" transform="translate(207.380625 21.6) scale(0.12 -0.12)">
     <defs>
      <path id="DejaVuSans-51" d="M 2522 4238 
Q 1834 4238 1429 3725 
Q 1025 3213 1025 2328 
Q 1025 1447 1429 934 
Q 1834 422 2522 422 
Q 3209 422 3611 934 
Q 4013 1447 4013 2328 
Q 4013 3213 3611 3725 
Q 3209 4238 2522 4238 
z
M 3406 84 
L 4238 -825 
L 3475 -825 
L 2784 -78 
Q 2681 -84 2626 -87 
Q 2572 -91 2522 -91 
Q 1538 -91 948 567 
Q 359 1225 359 2328 
Q 359 3434 948 4092 
Q 1538 4750 2522 4750 
Q 3503 4750 4090 4092 
Q 4678 3434 4678 2328 
Q 4678 1516 4351 937 
Q 4025 359 3406 84 
z
" transform="scale(0.015625)"/>
      <path id="DejaVuSans-55" d="M 556 4666 
L 1191 4666 
L 1191 1831 
Q 1191 1081 1462 751 
Q 1734 422 2344 422 
Q 2950 422 3222 751 
Q 3494 1081 3494 1831 
L 3494 4666 
L 4128 4666 
L 4128 1753 
Q 4128 841 3676 375 
Q 3225 -91 2344 -91 
Q 1459 -91 1007 375 
Q 556 841 556 1753 
L 556 4666 
z
" transform="scale(0.015625)"/>
      <path id="DejaVuSans-49" d="M 628 4666 
L 1259 4666 
L 1259 0 
L 628 0 
L 628 4666 
z
" transform="scale(0.015625)"/>
      <path id="DejaVuSans-43" d="M 4122 4306 
L 4122 3641 
Q 3803 3938 3442 4084 
Q 3081 4231 2675 4231 
Q 1875 4231 1450 3742 
Q 1025 3253 1025 2328 
Q 1025 1406 1450 917 
Q 1875 428 2675 428 
Q 3081 428 3442 575 
Q 3803 722 4122 1019 
L 4122 359 
Q 3791 134 3420 21 
Q 3050 -91 2638 -91 
Q 1578 -91 968 557 
Q 359 1206 359 2328 
Q 359 3453 968 4101 
Q 1578 4750 2638 4750 
Q 3056 4750 3426 4639 
Q 3797 4528 4122 4306 
z
" transform="scale(0.015625)"/>
      <path id="DejaVuSans-77" d="M 269 3500 
L 844 3500 
L 1563 769 
L 2278 3500 
L 2956 3500 
L 3675 769 
L 4391 3500 
L 4966 3500 
L 4050 0 
L 3372 0 
L 2619 2869 
L 1863 0 
L 1184 0 
L 269 3500 
z
" transform="scale(0.015625)"/>
      <path id="DejaVuSans-6c" d="M 603 4863 
L 1178 4863 
L 1178 0 
L 603 0 
L 603 4863 
z
" transform="scale(0.015625)"/>
      <path id="DejaVuSans-35" d="M 691 4666 
L 3169 4666 
L 3169 4134 
L 1269 4134 
L 1269 2991 
Q 1406 3038 1543 3061 
Q 1681 3084 1819 3084 
Q 2600 3084 3056 2656 
Q 3513 2228 3513 1497 
Q 3513 744 3044 326 
Q 2575 -91 1722 -91 
Q 1428 -91 1123 -41 
Q 819 9 494 109 
L 494 744 
Q 775 591 1075 516 
Q 1375 441 1709 441 
Q 2250 441 2565 725 
Q 2881 1009 2881 1497 
Q 2881 1984 2565 2268 
Q 2250 2553 1709 2553 
Q 1456 2553 1204 2497 
Q 953 2441 691 2322 
L 691 4666 
z
" transform="scale(0.015625)"/>
      <path id="DejaVuSans-67" d="M 2906 1791 
Q 2906 2416 2648 2759 
Q 2391 3103 1925 3103 
Q 1463 3103 1205 2759 
Q 947 2416 947 1791 
Q 947 1169 1205 825 
Q 1463 481 1925 481 
Q 2391 481 2648 825 
Q 2906 1169 2906 1791 
z
M 3481 434 
Q 3481 -459 3084 -895 
Q 2688 -1331 1869 -1331 
Q 1566 -1331 1297 -1286 
Q 1028 -1241 775 -1147 
L 775 -588 
Q 1028 -725 1275 -790 
Q 1522 -856 1778 -856 
Q 2344 -856 2625 -561 
Q 2906 -266 2906 331 
L 2906 616 
Q 2728 306 2450 153 
Q 2172 0 1784 0 
Q 1141 0 747 490 
Q 353 981 353 1791 
Q 353 2603 747 3093 
Q 1141 3584 1784 3584 
Q 2172 3584 2450 3431 
Q 2728 3278 2906 2969 
L 2906 3500 
L 3481 3500 
L 3481 434 
z
" transform="scale(0.015625)"/>
      <path id="DejaVuSans-2014" d="M 313 1978 
L 6088 1978 
L 6088 1528 
L 313 1528 
L 313 1978 
z
" transform="scale(0.015625)"/>
     </defs>
     <use xlink:href="#DejaVuSans-48"/>
     <use xlink:href="#DejaVuSans-61" x="75.195312"/>
     <use xlink:href="#DejaVuSans-6e" x="136.474609"/>
     <use xlink:href="#DejaVuSans-64" x="199.853516"/>
     <use xlink:href="#DejaVuSans-73" x="263.330078"/>
     <use xlink:href="#DejaVuSans-68" x="315.429688"/>
     <use xlink:href="#DejaVuSans-61" x="378.808594"/>
     <use xlink:href="#DejaVuSans-6b" x="440.087891"/>
     <use xlink:href="#DejaVuSans-65" x="494.373047"/>
     <use xlink:href="#DejaVuSans-20" x="555.896484"/>
     <use xlink:href="#DejaVuSans-64" x="587.683594"/>
     <use xlink:href="#DejaVuSans-75" x="651.160156"/>
     <use xlink:href="#DejaVuSans-72" x="714.539062"/>
     <use xlink:href="#DejaVuSans-61" x="755.652344"/>
     <use xlink:href="#DejaVuSans-74" x="816.931641"/>
     <use xlink:href="#DejaVuSans-69" x="856.140625"/>
     <use xlink:href="#DejaVuSans-6f" x="883.923828"/>
     <use xlink:href="#DejaVuSans-6e" x="945.105469"/>
     <use xlink:href="#DejaVuSans-20" x="1008.484375"/>
     <use xlink:href="#DejaVuSans-6f" x="1040.271484"/>
     <use xlink:href="#DejaVuSans-6e" x="1101.453125"/>
     <use xlink:href="#DejaVuSans-20" x="1164.832031"/>
     <use xlink:href="#DejaVuSans-51" x="1196.619141"/>
     <use xlink:href="#DejaVuSans-55" x="1275.330078"/>
     <use xlink:href="#DejaVuSans-49" x="1348.523438"/>
     <use xlink:href="#DejaVuSans-43" x="1378.015625"/>
     <use xlink:href="#DejaVuSans-20" x="1447.839844"/>
     <use xlink:href="#DejaVuSans-77" x="1479.626953"/>
     <use xlink:href="#DejaVuSans-69" x="1561.414062"/>
     <use xlink:href="#DejaVuSans-74" x="1589.197266"/>
     <use xlink:href="#DejaVuSans-68" x="1628.40625"/>
     <use xlink:href="#DejaVuSans-20" x="1691.785156"/>
     <use xlink:href="#DejaVuSans-6d" x="1723.572266"/>
     <use xlink:href="#DejaVuSans-6c" x="1820.984375"/>
     <use xlink:href="#DejaVuSans-64" x="1848.767578"/>
     <use xlink:href="#DejaVuSans-73" x="1912.244141"/>
     <use xlink:href="#DejaVuSans-61" x="1964.34375"/>
     <use xlink:href="#DejaVuSans-36" x="2025.623047"/>
     <use xlink:href="#DejaVuSans-35" x="2089.246094"/>
     <use xlink:href="#DejaVuSans-20" x="2152.869141"/>
     <use xlink:href="#DejaVuSans-73" x="2184.65625"/>
     <use xlink:href="#DejaVuSans-69" x="2236.755859"/>
     <use xlink:href="#DejaVuSans-67" x="2264.539062"/>
     <use xlink:href="#DejaVuSans-6e" x="2328.015625"/>
     <use xlink:href="#DejaVuSans-61" x="2391.394531"/>
     <use xlink:href="#DejaVuSans-74" x="2452.673828"/>
     <use xlink:href="#DejaVuSans-75" x="2491.882812"/>
     <use xlink:href="#DejaVuSans-72" x="2555.261719"/>
     <use xlink:href="#DejaVuSans-65" x="2594.125"/>
     <use xlink:href="#DejaVuSans-20" x="2655.648438"/>
     <use xlink:href="#DejaVuSans-61" x="2687.435547"/>
     <use xlink:href="#DejaVuSans-6c" x="2748.714844"/>
     <use xlink:href="#DejaVuSans-67" x="2776.498047"/>
     <use xlink:href="#DejaVuSans-6f" x="2839.974609"/>
     <use xlink:href="#DejaVuSans-72" x="2901.15625"/>
     <use xlink:href="#DejaVuSans-69" x="2942.269531"/>
     <use xlink:href="#DejaVuSans-74" x="2970.052734"/>
     <use xlink:href="#DejaVuSans-68" x="3009.261719"/>
     <use xlink:href="#DejaVuSans-6d" x="3072.640625"/>
     <use xlink:href="#DejaVuSans-20" x="3170.052734"/>
     <use xlink:href="#DejaVuSans-2014" x="3201.839844"/>
     <use xlink:href="#DejaVuSans-20" x="3301.839844"/>
     <use xlink:href="#DejaVuSans-69" x="3333.626953"/>
     <use xlink:href="#DejaVuSans-64" x="3361.410156"/>
     <use xlink:href="#DejaVuSans-65" x="3424.886719"/>
     <use xlink:href="#DejaVuSans-61" x="3486.410156"/>
     <use xlink:href="#DejaVuSans-6c" x="3547.689453"/>
     <use xlink:href="#DejaVuSans-20" x="3575.472656"/>
     <use xlink:href="#DejaVuSans-63" x="3607.259766"/>
     <use xlink:href="#DejaVuSans-6f" x="3662.240234"/>
     <use xlink:href="#DejaVuSans-6e" x="3723.421875"/>
     <use xlink:href="#DejaVuSans-64" x="3786.800781"/>
     <use xlink:href="#DejaVuSans-69" x="3850.277344"/>
     <use xlink:href="#DejaVuSans-74" x="3878.060547"/>
     <use xlink:href="#DejaVuSans-69" x="3917.269531"/>
     <use xlink:href="#DejaVuSans-6f" x="3945.052734"/>
     <use xlink:href="#DejaVuSans-6e" x="4006.234375"/>
     <use xlink:href="#DejaVuSans-73" x="4069.613281"/>
    </g>
   </g>
  </g>
 </g>
 <defs>
  <clipPath id="pf6aef80493">
   <rect x="58.32" y="27.6" width="792.72" height="349.637044"/>
  </clipPath>
 </defs>
</svg>
