<?xml version="1.0" encoding="utf-8" standalone="no"?>
<!DOCTYPE svg PUBLIC "-//W3C//DTD SVG 1.1//EN"
  "http://www.w3.org/Graphics/SVG/1.1/DTD/svg11.dtd">
<svg xmlns:xlink="http://www.w3.org/1999/xlink" width="864pt" height="432pt" viewBox="0 0 864 432" xmlns="http://www.w3.org/2000/svg" version="1.1">
 <metadata>
  <rdf:RDF xmlns:dc="http://purl.org/dc/elements/1.1/" xmlns:cc="http://creativecommons.org/ns#" xmlns:rdf="http://www.w3.org/1999/02/22-rdf-syntax-ns#">
   <cc:Work>
    <dc:type rdf:resource="http://purl.org/dc/dcmitype/StillImage"/>
    <dc:date>2026-03-21T14:06:28.103581</dc:date>
    <dc:format>image/svg+xml</dc:format>
    <dc:creator>
     <cc:Agent>
      <dc:title>Matplotlib v3.6.3, https://matplotlib.org/</dc:title>
     </cc:Agent>
    </dc:creator>
   </cc:Work>
  </rdf:RDF>
 </metadata>
 <defs>
  <style type="text/css">*{stroke-linejoin: round; stroke-linecap: butt}</style>
 </defs>
 <g id="figure_1">
  <g id="patch_1">
   <path d="M 0 432 
L 864 432 
L 864 0 
L 0 0 
z
" style="fill: #ffffff"/>
  </g>
  <g id="axes_1">
   <g id="patch_2">
    <path d="M 58.32 377.237044 
L 851.04 377.237044 
L 851.04 27.6 
L 58.32 27.6 
z
" style="fill: #ffffff"/>
   </g>
   <g id="matplotlib.axis_1">
    <g id="xtick_1">
     <g id="text_1">
      <!-- P-384 -->
      <g style="fill: #262626" transform="translate(103.911421 404.396088) rotate(-15) scale(0.12 -0.12)">
       <defs>
        <path id="DejaVuSans-50" d="M 1259 4147 
L 1259 2394 
L 2053 2394 
Q 2494 2394 2734 2622 
Q 2975 2850 2975 3272 
Q 2975 3691 2734 3919 
Q 2494 4147 2053 4147 
L 1259 4147 
z
M 628 4666 
L 2053 4666 
Q 2838 4666 3239 4311 
Q 3641 3956 3641 3272 
Q 3641 2581 3239 2228 
Q 2838 1875 2053 1875 
L 1259 1875 
L 1259 0 
L 628 0 
L 628 4666 
z
" transform="scale(0.015625)"/>
        <path id="DejaVuSans-2d" d="M 313 2009 
L 1997 2009 
L 1997 1497 
L 313 1497 
L 313 2009 
z
" transform="scale(0.015625)"/>
        <path id="DejaVuSans-33" d="M 2597 2516 
Q 3050 2419 3304 2112 
Q 3559 1806 3559 1356 
Q 3559 666 3084 287 
Q 2609 -91 1734 -91 
Q 1441 -91 1130 -33 
Q 819 25 488 141 
L 488 750 
Q 750 597 1062 519 
Q 1375 441 1716 441 
Q 2309 441 2620 675 
Q 2931 909 2931 1356 
Q 2931 1769 2642 2001 
Q 2353 2234 1838 2234 
L 1294 2234 
L 1294 2753 
L 1863 2753 
Q 2328 2753 2575 2939 
Q 2822 3125 2822 3475 
Q 2822 3834 2567 4026 
Q 2313 4219 1838 4219 
Q 1578 4219 1281 4162 
Q 984 4106 628 3988 
L 628 4550 
Q 988 4650 1302 4700 
Q 1616 4750 1894 4750 
Q 2613 4750 3031 4423 
Q 3450 4097 3450 3541 
Q 3450 3153 3228 2886 
Q 3006 2619 2597 2516 
z
" transform="scale(0.015625)"/>
        <path id="DejaVuSans-38" d="M 2034 2216 
Q 1584 2216 1326 1975 
Q 1069 1734 1069 1313 
Q 1069 891 1326 650 
Q 1584 409 2034 409 
Q 2484 409 2743 651 
Q 3003 894 3003 1313 
Q 3003 1734 2745 1975 
Q 2488 2216 2034 2216 
z
M 1403 2484 
Q 997 2584 770 2862 
Q 544 3141 544 3541 
Q 544 4100 942 4425 
Q 1341 4750 2034 4750 
Q 2731 4750 3128 4425 
Q 3525 4100 3525 3541 
Q 3525 3141 3298 2862 
Q 3072 2584 2669 2484 
Q 3125 2378 3379 2068 
Q 3634 1759 3634 1313 
Q 3634 634 3220 271 
Q 2806 -91 2034 -91 
Q 1263 -91 848 271 
Q 434 634 434 1313 
Q 434 1759 690 2068 
Q 947 2378 1403 2484 
z
M 1172 3481 
Q 1172 3119 1398 2916 
Q 1625 2713 2034 2713 
Q 2441 2713 2670 2916 
Q 2900 3119 2900 3481 
Q 2900 3844 2670 4047 
Q 2441 4250 2034 4250 
Q 1625 4250 1398 4047 
Q 1172 3844 1172 3481 
z
" transform="scale(0.015625)"/>
        <path id="DejaVuSans-34" d="M 2419 4116 
L 825 1625 
L 2419 1625 
L 2419 4116 
z
M 2253 4666 
L 3047 4666 
L 3047 1625 
L 3713 1625 
L 3713 1100 
L 3047 1100 
L 3047 0 
L 2419 0 
L 2419 1100 
L 313 1100 
L 313 1709 
L 2253 4666 
z
" transform="scale(0.015625)"/>
       </defs>
       <use xlink:href="#DejaVuSans-50"/>
       <use xlink:href="#DejaVuSans-2d" x="58.052734"/>
       <use xlink:href="#DejaVuSans-33" x="94.136719"/>
       <use xlink:href="#DejaVuSans-38" x="157.759766"/>
       <use xlink:href="#DejaVuSans-34" x="221.382812"/>
      </g>
     </g>
    </g>
    <g id="xtick_2">
     <g id="text_2">
      <!-- x448 -->
      <g style="fill: #262626" transform="translate(266.505065 403.310989) rotate(-15) scale(0.12 -0.12)">
       <defs>
        <path id="DejaVuSans-78" d="M 3513 3500 
L 2247 1797 
L 3578 0 
L 2900 0 
L 1881 1375 
L 863 0 
L 184 0 
L 1544 1831 
L 300 3500 
L 978 3500 
L 1906 2253 
L 2834 3500 
L 3513 3500 
z
" transform="scale(0.015625)"/>
       </defs>
       <use xlink:href="#DejaVuSans-78"/>
       <use xlink:href="#DejaVuSans-34" x="59.179688"/>
       <use xlink:href="#DejaVuSans-34" x="122.802734"/>
       <use xlink:href="#DejaVuSans-38" x="186.425781"/>
      </g>
     </g>
    </g>
    <g id="xtick_3">
     <g id="text_3">
      <!-- hqc192 -->
      <g style="fill: #262626" transform="translate(410.831845 407.120482) rotate(-15) scale(0.12 -0.12)">
       <defs>
        <path id="DejaVuSans-68" d="M 3513 2113 
L 3513 0 
L 2938 0 
L 2938 2094 
Q 2938 2591 2744 2837 
Q 2550 3084 2163 3084 
Q 1697 3084 1428 2787 
Q 1159 2491 1159 1978 
L 1159 0 
L 581 0 
L 581 4863 
L 1159 4863 
L 1159 2956 
Q 1366 3272 1645 3428 
Q 1925 3584 2291 3584 
Q 2894 3584 3203 3211 
Q 3513 2838 3513 2113 
z
" transform="scale(0.015625)"/>
        <path id="DejaVuSans-71" d="M 947 1747 
Q 947 1113 1208 752 
Q 1469 391 1925 391 
Q 2381 391 2643 752 
Q 2906 1113 2906 1747 
Q 2906 2381 2643 2742 
Q 2381 3103 1925 3103 
Q 1469 3103 1208 2742 
Q 947 2381 947 1747 
z
M 2906 525 
Q 2725 213 2448 61 
Q 2172 -91 1784 -91 
Q 1150 -91 751 415 
Q 353 922 353 1747 
Q 353 2572 751 3078 
Q 1150 3584 1784 3584 
Q 2172 3584 2448 3432 
Q 2725 3281 2906 2969 
L 2906 3500 
L 3481 3500 
L 3481 -1331 
L 2906 -1331 
L 2906 525 
z
" transform="scale(0.015625)"/>
        <path id="DejaVuSans-63" d="M 3122 3366 
L 3122 2828 
Q 2878 2963 2633 3030 
Q 2388 3097 2138 3097 
Q 1578 3097 1268 2742 
Q 959 2388 959 1747 
Q 959 1106 1268 751 
Q 1578 397 2138 397 
Q 2388 397 2633 464 
Q 2878 531 3122 666 
L 3122 134 
Q 2881 22 2623 -34 
Q 2366 -91 2075 -91 
Q 1284 -91 818 406 
Q 353 903 353 1747 
Q 353 2603 823 3093 
Q 1294 3584 2113 3584 
Q 2378 3584 2631 3529 
Q 2884 3475 3122 3366 
z
" transform="scale(0.015625)"/>
        <path id="DejaVuSans-31" d="M 794 531 
L 1825 531 
L 1825 4091 
L 703 3866 
L 703 4441 
L 1819 4666 
L 2450 4666 
L 2450 531 
L 3481 531 
L 3481 0 
L 794 0 
L 794 531 
z
" transform="scale(0.015625)"/>
        <path id="DejaVuSans-39" d="M 703 97 
L 703 672 
Q 941 559 1184 500 
Q 1428 441 1663 441 
Q 2288 441 2617 861 
Q 2947 1281 2994 2138 
Q 2813 1869 2534 1725 
Q 2256 1581 1919 1581 
Q 1219 1581 811 2004 
Q 403 2428 403 3163 
Q 403 3881 828 4315 
Q 1253 4750 1959 4750 
Q 2769 4750 3195 4129 
Q 3622 3509 3622 2328 
Q 3622 1225 3098 567 
Q 2575 -91 1691 -91 
Q 1453 -91 1209 -44 
Q 966 3 703 97 
z
M 1959 2075 
Q 2384 2075 2632 2365 
Q 2881 2656 2881 3163 
Q 2881 3666 2632 3958 
Q 2384 4250 1959 4250 
Q 1534 4250 1286 3958 
Q 1038 3666 1038 3163 
Q 1038 2656 1286 2365 
Q 1534 2075 1959 2075 
z
" transform="scale(0.015625)"/>
        <path id="DejaVuSans-32" d="M 1228 531 
L 3431 531 
L 3431 0 
L 469 0 
L 469 531 
Q 828 903 1448 1529 
Q 2069 2156 2228 2338 
Q 2531 2678 2651 2914 
Q 2772 3150 2772 3378 
Q 2772 3750 2511 3984 
Q 2250 4219 1831 4219 
Q 1534 4219 1204 4116 
Q 875 4013 500 3803 
L 500 4441 
Q 881 4594 1212 4672 
Q 1544 4750 1819 4750 
Q 2544 4750 2975 4387 
Q 3406 4025 3406 3419 
Q 3406 3131 3298 2873 
Q 3191 2616 2906 2266 
Q 2828 2175 2409 1742 
Q 1991 1309 1228 531 
z
" transform="scale(0.015625)"/>
       </defs>
       <use xlink:href="#DejaVuSans-68"/>
       <use xlink:href="#DejaVuSans-71" x="63.378906"/>
       <use xlink:href="#DejaVuSans-63" x="126.855469"/>
       <use xlink:href="#DejaVuSans-31" x="181.835938"/>
       <use xlink:href="#DejaVuSans-39" x="245.458984"/>
       <use xlink:href="#DejaVuSans-32" x="309.082031"/>
      </g>
     </g>
    </g>
    <g id="xtick_4">
     <g id="text_4">
      <!-- p384_hqc192 -->
      <g style="fill: #262626" transform="translate(534.010834 416.573362) rotate(-15) scale(0.12 -0.12)">
       <defs>
        <path id="DejaVuSans-70" d="M 1159 525 
L 1159 -1331 
L 581 -1331 
L 581 3500 
L 1159 3500 
L 1159 2969 
Q 1341 3281 1617 3432 
Q 1894 3584 2278 3584 
Q 2916 3584 3314 3078 
Q 3713 2572 3713 1747 
Q 3713 922 3314 415 
Q 2916 -91 2278 -91 
Q 1894 -91 1617 61 
Q 1341 213 1159 525 
z
M 3116 1747 
Q 3116 2381 2855 2742 
Q 2594 3103 2138 3103 
Q 1681 3103 1420 2742 
Q 1159 2381 1159 1747 
Q 1159 1113 1420 752 
Q 1681 391 2138 391 
Q 2594 391 2855 752 
Q 3116 1113 3116 1747 
z
" transform="scale(0.015625)"/>
        <path id="DejaVuSans-5f" d="M 3263 -1063 
L 3263 -1509 
L -63 -1509 
L -63 -1063 
L 3263 -1063 
z
" transform="scale(0.015625)"/>
       </defs>
       <use xlink:href="#DejaVuSans-70"/>
       <use xlink:href="#DejaVuSans-33" x="63.476562"/>
       <use xlink:href="#DejaVuSans-38" x="127.099609"/>
       <use xlink:href="#DejaVuSans-34" x="190.722656"/>
       <use xlink:href="#DejaVuSans-5f" x="254.345703"/>
       <use xlink:href="#DejaVuSans-68" x="304.345703"/>
       <use xlink:href="#DejaVuSans-71" x="367.724609"/>
       <use xlink:href="#DejaVuSans-63" x="431.201172"/>
       <use xlink:href="#DejaVuSans-31" x="486.181641"/>
       <use xlink:href="#DejaVuSans-39" x="549.804688"/>
       <use xlink:href="#DejaVuSans-32" x="613.427734"/>
      </g>
     </g>
    </g>
    <g id="xtick_5">
     <g id="text_5">
      <!-- x448_hqc192 -->
      <g style="fill: #262626" transform="translate(693.05289 416.439909) rotate(-15) scale(0.12 -0.12)">
       <use xlink:href="#DejaVuSans-78"/>
       <use xlink:href="#DejaVuSans-34" x="59.179688"/>
       <use xlink:href="#DejaVuSans-34" x="122.802734"/>
       <use xlink:href="#DejaVuSans-38" x="186.425781"/>
       <use xlink:href="#DejaVuSans-5f" x="250.048828"/>
       <use xlink:href="#DejaVuSans-68" x="300.048828"/>
       <use xlink:href="#DejaVuSans-71" x="363.427734"/>
       <use xlink:href="#DejaVuSans-63" x="426.904297"/>
       <use xlink:href="#DejaVuSans-31" x="481.884766"/>
       <use xlink:href="#DejaVuSans-39" x="545.507812"/>
       <use xlink:href="#DejaVuSans-32" x="609.130859"/>
      </g>
     </g>
    </g>
   </g>
   <g id="matplotlib.axis_2">
    <g id="ytick_1">
     <g id="line2d_1">
      <path d="M 58.32 370.644621 
L 851.04 370.644621 
" clip-path="url(#p0e1b082932)" style="fill: none; stroke: #cccccc; stroke-linecap: round"/>
     </g>
     <g id="text_6">
      <!-- 800 -->
      <g style="fill: #262626" transform="translate(27.82375 374.823761) scale(0.11 -0.11)">
       <defs>
        <path id="DejaVuSans-30" d="M 2034 4250 
Q 1547 4250 1301 3770 
Q 1056 3291 1056 2328 
Q 1056 1369 1301 889 
Q 1547 409 2034 409 
Q 2525 409 2770 889 
Q 3016 1369 3016 2328 
Q 3016 3291 2770 3770 
Q 2525 4250 2034 4250 
z
M 2034 4750 
Q 2819 4750 3233 4129 
Q 3647 3509 3647 2328 
Q 3647 1150 3233 529 
Q 2819 -91 2034 -91 
Q 1250 -91 836 529 
Q 422 1150 422 2328 
Q 422 3509 836 4129 
Q 1250 4750 2034 4750 
z
" transform="scale(0.015625)"/>
       </defs>
       <use xlink:href="#DejaVuSans-38"/>
       <use xlink:href="#DejaVuSans-30" x="63.623047"/>
       <use xlink:href="#DejaVuSans-30" x="127.246094"/>
      </g>
     </g>
    </g>
    <g id="ytick_2">
     <g id="line2d_2">
      <path d="M 58.32 299.901169 
L 851.04 299.901169 
" clip-path="url(#p0e1b082932)" style="fill: none; stroke: #cccccc; stroke-linecap: round"/>
     </g>
     <g id="text_7">
      <!-- 820 -->
      <g style="fill: #262626" transform="translate(27.82375 304.08031) scale(0.11 -0.11)">
       <use xlink:href="#DejaVuSans-38"/>
       <use xlink:href="#DejaVuSans-32" x="63.623047"/>
       <use xlink:href="#DejaVuSans-30" x="127.246094"/>
      </g>
     </g>
    </g>
    <g id="ytick_3">
     <g id="line2d_3">
      <path d="M 58.32 229.157718 
L 851.04 229.157718 
" clip-path="url(#p0e1b082932)" style="fill: none; stroke: #cccccc; stroke-linecap: round"/>
     </g>
     <g id="text_8">
      <!-- 840 -->
      <g style="fill: #262626" transform="translate(27.82375 233.336859) scale(0.11 -0.11)">
       <use xlink:href="#DejaVuSans-38"/>
       <use xlink:href="#DejaVuSans-34" x="63.623047"/>
       <use xlink:href="#DejaVuSans-30" x="127.246094"/>
      </g>
     </g>
    </g>
    <g id="ytick_4">
     <g id="line2d_4">
      <path d="M 58.32 158.414267 
L 851.04 158.414267 
" clip-path="url(#p0e1b082932)" style="fill: none; stroke: #cccccc; stroke-linecap: round"/>
     </g>
     <g id="text_9">
      <!-- 860 -->
      <g style="fill: #262626" transform="translate(27.82375 162.593408) scale(0.11 -0.11)">
       <defs>
        <path id="DejaVuSans-36" d="M 2113 2584 
Q 1688 2584 1439 2293 
Q 1191 2003 1191 1497 
Q 1191 994 1439 701 
Q 1688 409 2113 409 
Q 2538 409 2786 701 
Q 3034 994 3034 1497 
Q 3034 2003 2786 2293 
Q 2538 2584 2113 2584 
z
M 3366 4563 
L 3366 3988 
Q 3128 4100 2886 4159 
Q 2644 4219 2406 4219 
Q 1781 4219 1451 3797 
Q 1122 3375 1075 2522 
Q 1259 2794 1537 2939 
Q 1816 3084 2150 3084 
Q 2853 3084 3261 2657 
Q 3669 2231 3669 1497 
Q 3669 778 3244 343 
Q 2819 -91 2113 -91 
Q 1303 -91 875 529 
Q 447 1150 447 2328 
Q 447 3434 972 4092 
Q 1497 4750 2381 4750 
Q 2619 4750 2861 4703 
Q 3103 4656 3366 4563 
z
" transform="scale(0.015625)"/>
       </defs>
       <use xlink:href="#DejaVuSans-38"/>
       <use xlink:href="#DejaVuSans-36" x="63.623047"/>
       <use xlink:href="#DejaVuSans-30" x="127.246094"/>
      </g>
     </g>
    </g>
    <g id="ytick_5">
     <g id="line2d_5">
      <path d="M 58.32 87.670816 
L 851.04 87.670816 
" clip-path="url(#p0e1b082932)" style="fill: none; stroke: #cccccc; stroke-linecap: round"/>
     </g>
     <g id="text_10">
      <!-- 880 -->
      <g style="fill: #262626" transform="translate(27.82375 91.849956) scale(0.11 -0.11)">
       <use xlink:href="#DejaVuSans-38"/>
       <use xlink:href="#DejaVuSans-38" x="63.623047"/>
       <use xlink:href="#DejaVuSans-30" x="127.246094"/>
      </g>
     </g>
    </g>
    <g id="text_11">
     <!-- Handshake duration (ms) -->
     <g style="fill: #262626" transform="translate(21.328125 278.486335) rotate(-90) scale(0.12 -0.12)">
      <defs>
       <path id="DejaVuSans-48" d="M 628 4666 
L 1259 4666 
L 1259 2753 
L 3553 2753 
L 3553 4666 
L 4184 4666 
L 4184 0 
L 3553 0 
L 3553 2222 
L 1259 2222 
L 1259 0 
L 628 0 
L 628 4666 
z
" transform="scale(0.015625)"/>
       <path id="DejaVuSans-61" d="M 2194 1759 
Q 1497 1759 1228 1600 
Q 959 1441 959 1056 
Q 959 750 1161 570 
Q 1363 391 1709 391 
Q 2188 391 2477 730 
Q 2766 1069 2766 1631 
L 2766 1759 
L 2194 1759 
z
M 3341 1997 
L 3341 0 
L 2766 0 
L 2766 531 
Q 2569 213 2275 61 
Q 1981 -91 1556 -91 
Q 1019 -91 701 211 
Q 384 513 384 1019 
Q 384 1609 779 1909 
Q 1175 2209 1959 2209 
L 2766 2209 
L 2766 2266 
Q 2766 2663 2505 2880 
Q 2244 3097 1772 3097 
Q 1472 3097 1187 3025 
Q 903 2953 641 2809 
L 641 3341 
Q 956 3463 1253 3523 
Q 1550 3584 1831 3584 
Q 2591 3584 2966 3190 
Q 3341 2797 3341 1997 
z
" transform="scale(0.015625)"/>
       <path id="DejaVuSans-6e" d="M 3513 2113 
L 3513 0 
L 2938 0 
L 2938 2094 
Q 2938 2591 2744 2837 
Q 2550 3084 2163 3084 
Q 1697 3084 1428 2787 
Q 1159 2491 1159 1978 
L 1159 0 
L 581 0 
L 581 3500 
L 1159 3500 
L 1159 2956 
Q 1366 3272 1645 3428 
Q 1925 3584 2291 3584 
Q 2894 3584 3203 3211 
Q 3513 2838 3513 2113 
z
" transform="scale(0.015625)"/>
       <path id="DejaVuSans-64" d="M 2906 2969 
L 2906 4863 
L 3481 4863 
L 3481 0 
L 2906 0 
L 2906 525 
Q 2725 213 2448 61 
Q 2172 -91 1784 -91 
Q 1150 -91 751 415 
Q 353 922 353 1747 
Q 353 2572 751 3078 
Q 1150 3584 1784 3584 
Q 2172 3584 2448 3432 
Q 2725 3281 2906 2969 
z
M 947 1747 
Q 947 1113 1208 752 
Q 1469 391 1925 391 
Q 2381 391 2643 752 
Q 2906 1113 2906 1747 
Q 2906 2381 2643 2742 
Q 2381 3103 1925 3103 
Q 1469 3103 1208 2742 
Q 947 2381 947 1747 
z
" transform="scale(0.015625)"/>
       <path id="DejaVuSans-73" d="M 2834 3397 
L 2834 2853 
Q 2591 2978 2328 3040 
Q 2066 3103 1784 3103 
Q 1356 3103 1142 2972 
Q 928 2841 928 2578 
Q 928 2378 1081 2264 
Q 1234 2150 1697 2047 
L 1894 2003 
Q 2506 1872 2764 1633 
Q 3022 1394 3022 966 
Q 3022 478 2636 193 
Q 2250 -91 1575 -91 
Q 1294 -91 989 -36 
Q 684 19 347 128 
L 347 722 
Q 666 556 975 473 
Q 1284 391 1588 391 
Q 1994 391 2212 530 
Q 2431 669 2431 922 
Q 2431 1156 2273 1281 
Q 2116 1406 1581 1522 
L 1381 1569 
Q 847 1681 609 1914 
Q 372 2147 372 2553 
Q 372 3047 722 3315 
Q 1072 3584 1716 3584 
Q 2034 3584 2315 3537 
Q 2597 3491 2834 3397 
z
" transform="scale(0.015625)"/>
       <path id="DejaVuSans-6b" d="M 581 4863 
L 1159 4863 
L 1159 1991 
L 2875 3500 
L 3609 3500 
L 1753 1863 
L 3688 0 
L 2938 0 
L 1159 1709 
L 1159 0 
L 581 0 
L 581 4863 
z
" transform="scale(0.015625)"/>
       <path id="DejaVuSans-65" d="M 3597 1894 
L 3597 1613 
L 953 1613 
Q 991 1019 1311 708 
Q 1631 397 2203 397 
Q 2534 397 2845 478 
Q 3156 559 3463 722 
L 3463 178 
Q 3153 47 2828 -22 
Q 2503 -91 2169 -91 
Q 1331 -91 842 396 
Q 353 884 353 1716 
Q 353 2575 817 3079 
Q 1281 3584 2069 3584 
Q 2775 3584 3186 3129 
Q 3597 2675 3597 1894 
z
M 3022 2063 
Q 3016 2534 2758 2815 
Q 2500 3097 2075 3097 
Q 1594 3097 1305 2825 
Q 1016 2553 972 2059 
L 3022 2063 
z
" transform="scale(0.015625)"/>
       <path id="DejaVuSans-20" transform="scale(0.015625)"/>
       <path id="DejaVuSans-75" d="M 544 1381 
L 544 3500 
L 1119 3500 
L 1119 1403 
Q 1119 906 1312 657 
Q 1506 409 1894 409 
Q 2359 409 2629 706 
Q 2900 1003 2900 1516 
L 2900 3500 
L 3475 3500 
L 3475 0 
L 2900 0 
L 2900 538 
Q 2691 219 2414 64 
Q 2138 -91 1772 -91 
Q 1169 -91 856 284 
Q 544 659 544 1381 
z
M 1991 3584 
L 1991 3584 
z
" transform="scale(0.015625)"/>
       <path id="DejaVuSans-72" d="M 2631 2963 
Q 2534 3019 2420 3045 
Q 2306 3072 2169 3072 
Q 1681 3072 1420 2755 
Q 1159 2438 1159 1844 
L 1159 0 
L 581 0 
L 581 3500 
L 1159 3500 
L 1159 2956 
Q 1341 3275 1631 3429 
Q 1922 3584 2338 3584 
Q 2397 3584 2469 3576 
Q 2541 3569 2628 3553 
L 2631 2963 
z
" transform="scale(0.015625)"/>
       <path id="DejaVuSans-74" d="M 1172 4494 
L 1172 3500 
L 2356 3500 
L 2356 3053 
L 1172 3053 
L 1172 1153 
Q 1172 725 1289 603 
Q 1406 481 1766 481 
L 2356 481 
L 2356 0 
L 1766 0 
Q 1100 0 847 248 
Q 594 497 594 1153 
L 594 3053 
L 172 3053 
L 172 3500 
L 594 3500 
L 594 4494 
L 1172 4494 
z
" transform="scale(0.015625)"/>
       <path id="DejaVuSans-69" d="M 603 3500 
L 1178 3500 
L 1178 0 
L 603 0 
L 603 3500 
z
M 603 4863 
L 1178 4863 
L 1178 4134 
L 603 4134 
L 603 4863 
z
" transform="scale(0.015625)"/>
       <path id="DejaVuSans-6f" d="M 1959 3097 
Q 1497 3097 1228 2736 
Q 959 2375 959 1747 
Q 959 1119 1226 758 
Q 1494 397 1959 397 
Q 2419 397 2687 759 
Q 2956 1122 2956 1747 
Q 2956 2369 2687 2733 
Q 2419 3097 1959 3097 
z
M 1959 3584 
Q 2709 3584 3137 3096 
Q 3566 2609 3566 1747 
Q 3566 888 3137 398 
Q 2709 -91 1959 -91 
Q 1206 -91 779 398 
Q 353 888 353 1747 
Q 353 2609 779 3096 
Q 1206 3584 1959 3584 
z
" transform="scale(0.015625)"/>
       <path id="DejaVuSans-28" d="M 1984 4856 
Q 1566 4138 1362 3434 
Q 1159 2731 1159 2009 
Q 1159 1288 1364 580 
Q 1569 -128 1984 -844 
L 1484 -844 
Q 1016 -109 783 600 
Q 550 1309 550 2009 
Q 550 2706 781 3412 
Q 1013 4119 1484 4856 
L 1984 4856 
z
" transform="scale(0.015625)"/>
       <path id="DejaVuSans-6d" d="M 3328 2828 
Q 3544 3216 3844 3400 
Q 4144 3584 4550 3584 
Q 5097 3584 5394 3201 
Q 5691 2819 5691 2113 
L 5691 0 
L 5113 0 
L 5113 2094 
Q 5113 2597 4934 2840 
Q 4756 3084 4391 3084 
Q 3944 3084 3684 2787 
Q 3425 2491 3425 1978 
L 3425 0 
L 2847 0 
L 2847 2094 
Q 2847 2600 2669 2842 
Q 2491 3084 2119 3084 
Q 1678 3084 1418 2786 
Q 1159 2488 1159 1978 
L 1159 0 
L 581 0 
L 581 3500 
L 1159 3500 
L 1159 2956 
Q 1356 3278 1631 3431 
Q 1906 3584 2284 3584 
Q 2666 3584 2933 3390 
Q 3200 3197 3328 2828 
z
" transform="scale(0.015625)"/>
       <path id="DejaVuSans-29" d="M 513 4856 
L 1013 4856 
Q 1481 4119 1714 3412 
Q 1947 2706 1947 2009 
Q 1947 1309 1714 600 
Q 1481 -109 1013 -844 
L 513 -844 
Q 928 -128 1133 580 
Q 1338 1288 1338 2009 
Q 1338 2731 1133 3434 
Q 928 4138 513 4856 
z
" transform="scale(0.015625)"/>
      </defs>
      <use xlink:href="#DejaVuSans-48"/>
      <use xlink:href="#DejaVuSans-61" x="75.195312"/>
      <use xlink:href="#DejaVuSans-6e" x="136.474609"/>
      <use xlink:href="#DejaVuSans-64" x="199.853516"/>
      <use xlink:href="#DejaVuSans-73" x="263.330078"/>
      <use xlink:href="#DejaVuSans-68" x="315.429688"/>
      <use xlink:href="#DejaVuSans-61" x="378.808594"/>
      <use xlink:href="#DejaVuSans-6b" x="440.087891"/>
      <use xlink:href="#DejaVuSans-65" x="494.373047"/>
      <use xlink:href="#DejaVuSans-20" x="555.896484"/>
      <use xlink:href="#DejaVuSans-64" x="587.683594"/>
      <use xlink:href="#DejaVuSans-75" x="651.160156"/>
      <use xlink:href="#DejaVuSans-72" x="714.539062"/>
      <use xlink:href="#DejaVuSans-61" x="755.652344"/>
      <use xlink:href="#DejaVuSans-74" x="816.931641"/>
      <use xlink:href="#DejaVuSans-69" x="856.140625"/>
      <use xlink:href="#DejaVuSans-6f" x="883.923828"/>
      <use xlink:href="#DejaVuSans-6e" x="945.105469"/>
      <use xlink:href="#DejaVuSans-20" x="1008.484375"/>
      <use xlink:href="#DejaVuSans-28" x="1040.271484"/>
      <use xlink:href="#DejaVuSans-6d" x="1079.285156"/>
      <use xlink:href="#DejaVuSans-73" x="1176.697266"/>
      <use xlink:href="#DejaVuSans-29" x="1228.796875"/>
     </g>
    </g>
   </g>
   <g id="PolyCollection_1">
    <defs>
     <path id="mb063460df5" d="M 138.274402 -74.920319 
L 136.909598 -74.920319 
L 135.810287 -75.194363 
L 133.464512 -75.468407 
L 129.083845 -75.742451 
L 121.947168 -76.016495 
L 111.876019 -76.290539 
L 99.738194 -76.564583 
L 87.60877 -76.838626 
L 78.276434 -77.11267 
L 74.1744 -77.386714 
L 76.296329 -77.660758 
L 83.779523 -77.934802 
L 94.408748 -78.208846 
L 105.658445 -78.48289 
L 115.60489 -78.756934 
L 123.28679 -79.030978 
L 128.550366 -79.305022 
L 131.677883 -79.579066 
L 133.072269 -79.85311 
L 133.11606 -80.127153 
L 132.187331 -80.401197 
L 130.733692 -80.675241 
L 129.285838 -80.949285 
L 128.353673 -81.223329 
L 128.259227 -81.497373 
L 129.026331 -81.771417 
L 130.405486 -82.045461 
L 132.010814 -82.319505 
L 133.481494 -82.593549 
L 134.590377 -82.867593 
L 135.271247 -83.141637 
L 135.579754 -83.41568 
L 135.627203 -83.689724 
L 135.528889 -83.963768 
L 135.386881 -84.237812 
L 135.293942 -84.511856 
L 135.32945 -84.7859 
L 135.535949 -85.059944 
L 135.895902 -85.333988 
L 136.336186 -85.608032 
L 136.76376 -85.882076 
L 137.107989 -86.15612 
L 137.342373 -86.430163 
L 137.478753 -86.704207 
L 137.546928 -86.978251 
L 137.576219 -87.252295 
L 137.586779 -87.526339 
L 137.589042 -87.800383 
L 137.586377 -88.074427 
L 137.577613 -88.348471 
L 137.558994 -88.622515 
L 137.526853 -88.896559 
L 137.481724 -89.170603 
L 137.43195 -89.444647 
L 137.392836 -89.71869 
L 137.379505 -89.992734 
L 137.397614 -90.266778 
L 137.439538 -90.540822 
L 137.489473 -90.814866 
L 137.532885 -91.08891 
L 137.562777 -91.362954 
L 137.579613 -91.636998 
L 137.587499 -91.911042 
L 137.590597 -92.185086 
L 137.591624 -92.45913 
L 137.591904 -92.733174 
L 137.591927 -93.007217 
L 137.591741 -93.281261 
L 137.591 -93.555305 
L 137.588658 -93.829349 
L 137.582416 -94.103393 
L 137.568435 -94.377437 
L 137.542322 -94.651481 
L 137.502209 -94.925525 
L 137.452849 -95.199569 
L 137.407109 -95.473613 
L 137.381366 -95.747657 
L 137.38626 -96.021701 
L 137.419698 -96.295744 
L 137.468279 -96.569788 
L 137.515831 -96.843832 
L 137.551794 -97.117876 
L 137.5738 -97.39192 
L 137.584916 -97.665964 
L 137.589538 -97.940008 
L 137.590851 -98.214052 
L 137.590091 -98.488096 
L 137.586516 -98.76214 
L 137.577403 -99.036184 
L 137.558503 -99.310228 
L 137.52607 -99.584271 
L 137.480737 -99.858315 
L 137.431011 -100.132359 
L 137.392279 -100.406403 
L 137.379563 -100.680447 
L 137.398261 -100.954491 
L 137.44051 -101.228535 
L 137.490438 -101.502579 
L 137.533621 -101.776623 
L 137.563228 -102.050667 
L 137.620772 -102.050667 
L 137.620772 -102.050667 
L 137.650379 -101.776623 
L 137.693562 -101.502579 
L 137.74349 -101.228535 
L 137.785739 -100.954491 
L 137.804437 -100.680447 
L 137.791721 -100.406403 
L 137.752989 -100.132359 
L 137.703263 -99.858315 
L 137.65793 -99.584271 
L 137.625497 -99.310228 
L 137.606597 -99.036184 
L 137.597484 -98.76214 
L 137.593909 -98.488096 
L 137.593149 -98.214052 
L 137.594462 -97.940008 
L 137.599084 -97.665964 
L 137.6102 -97.39192 
L 137.632206 -97.117876 
L 137.668169 -96.843832 
L 137.715721 -96.569788 
L 137.764302 -96.295744 
L 137.79774 -96.021701 
L 137.802634 -95.747657 
L 137.776891 -95.473613 
L 137.731151 -95.199569 
L 137.681791 -94.925525 
L 137.641678 -94.651481 
L 137.615565 -94.377437 
L 137.601584 -94.103393 
L 137.595342 -93.829349 
L 137.593 -93.555305 
L 137.592259 -93.281261 
L 137.592073 -93.007217 
L 137.592096 -92.733174 
L 137.592376 -92.45913 
L 137.593403 -92.185086 
L 137.596501 -91.911042 
L 137.604387 -91.636998 
L 137.621223 -91.362954 
L 137.651115 -91.08891 
L 137.694527 -90.814866 
L 137.744462 -90.540822 
L 137.786386 -90.266778 
L 137.804495 -89.992734 
L 137.791164 -89.71869 
L 137.75205 -89.444647 
L 137.702276 -89.170603 
L 137.657147 -88.896559 
L 137.625006 -88.622515 
L 137.606387 -88.348471 
L 137.597623 -88.074427 
L 137.594958 -87.800383 
L 137.597221 -87.526339 
L 137.607781 -87.252295 
L 137.637072 -86.978251 
L 137.705247 -86.704207 
L 137.841627 -86.430163 
L 138.076011 -86.15612 
L 138.42024 -85.882076 
L 138.847814 -85.608032 
L 139.288098 -85.333988 
L 139.648051 -85.059944 
L 139.85455 -84.7859 
L 139.890058 -84.511856 
L 139.797119 -84.237812 
L 139.655111 -83.963768 
L 139.556797 -83.689724 
L 139.604246 -83.41568 
L 139.912753 -83.141637 
L 140.593623 -82.867593 
L 141.702506 -82.593549 
L 143.173186 -82.319505 
L 144.778514 -82.045461 
L 146.157669 -81.771417 
L 146.924773 -81.497373 
L 146.830327 -81.223329 
L 145.898162 -80.949285 
L 144.450308 -80.675241 
L 142.996669 -80.401197 
L 142.06794 -80.127153 
L 142.111731 -79.85311 
L 143.506117 -79.579066 
L 146.633634 -79.305022 
L 151.89721 -79.030978 
L 159.57911 -78.756934 
L 169.525555 -78.48289 
L 180.775252 -78.208846 
L 191.404477 -77.934802 
L 198.887671 -77.660758 
L 201.0096 -77.386714 
L 196.907566 -77.11267 
L 187.57523 -76.838626 
L 175.445806 -76.564583 
L 163.307981 -76.290539 
L 153.236832 -76.016495 
L 146.100155 -75.742451 
L 141.719488 -75.468407 
L 139.373713 -75.194363 
L 138.274402 -74.920319 
z
" style="stroke: #595959; stroke-width: 1.25"/>
    </defs>
    <g clip-path="url(#p0e1b082932)">
     <use xlink:href="#mb063460df5" x="0" y="432" style="fill: #72b6a1; stroke: #595959; stroke-width: 1.25"/>
    </g>
   </g>
   <g id="PolyCollection_2">
    <defs>
     <path id="m9c966883bf" d="M 296.590996 -70.655549 
L 295.681004 -70.655549 
L 295.379414 -70.727417 
L 294.919268 -70.799284 
L 294.242438 -70.871152 
L 293.282347 -70.94302 
L 291.968464 -71.014888 
L 290.233073 -71.086755 
L 288.019762 -71.158623 
L 285.292476 -71.230491 
L 282.043615 -71.302358 
L 278.299543 -71.374226 
L 274.122207 -71.446094 
L 269.606295 -71.517962 
L 264.872277 -71.589829 
L 260.056559 -71.661697 
L 255.300569 -71.733565 
L 250.740741 -71.805433 
L 246.500996 -71.8773 
L 242.68864 -71.949168 
L 239.393711 -72.021036 
L 236.690993 -72.092904 
L 234.643261 -72.164771 
L 233.30406 -72.236639 
L 232.7184 -72.308507 
L 232.920329 -72.380374 
L 233.927286 -72.452242 
L 235.732283 -72.52411 
L 238.296006 -72.595978 
L 241.541469 -72.667845 
L 245.353593 -72.739713 
L 249.584965 -72.811581 
L 254.067434 -72.883449 
L 258.627465 -72.955316 
L 263.102158 -73.027184 
L 267.35264 -73.099052 
L 271.272451 -73.170919 
L 274.78996 -73.242787 
L 277.865474 -73.314655 
L 280.484791 -73.386523 
L 282.651439 -73.45839 
L 284.379549 -73.530258 
L 285.688677 -73.602126 
L 286.601061 -73.673994 
L 287.14117 -73.745861 
L 287.336961 -73.817729 
L 287.222111 -73.889597 
L 286.838437 -73.961465 
L 286.23776 -74.033332 
L 285.482549 -74.1052 
L 284.644853 -74.177068 
L 283.803284 -74.248935 
L 283.038154 -74.320803 
L 282.42527 -74.392671 
L 282.029209 -74.464539 
L 281.897095 -74.536406 
L 282.053912 -74.608274 
L 282.500181 -74.680142 
L 283.212461 -74.75201 
L 284.146666 -74.823877 
L 285.243684 -74.895745 
L 286.436375 -74.967613 
L 287.656833 -75.03948 
L 288.842783 -75.111348 
L 289.942301 -75.183216 
L 290.916433 -75.255084 
L 291.739802 -75.326951 
L 292.399641 -75.398819 
L 292.893914 -75.470687 
L 293.22913 -75.542555 
L 293.418334 -75.614422 
L 293.479463 -75.68629 
L 293.434058 -75.758158 
L 293.306174 -75.830026 
L 293.121287 -75.901893 
L 292.905062 -75.973761 
L 292.681974 -76.045629 
L 292.473883 -76.117496 
L 292.298793 -76.189364 
L 292.170015 -76.261232 
L 292.095932 -76.3331 
L 292.0804 -76.404967 
L 292.123657 -76.476835 
L 292.223451 -76.548703 
L 292.376056 -76.620571 
L 292.576888 -76.692438 
L 292.820619 -76.764306 
L 293.100885 -76.836174 
L 293.409843 -76.908041 
L 293.737923 -76.979909 
L 294.074002 -77.051777 
L 294.406093 -77.123645 
L 294.722437 -77.195512 
L 295.012726 -77.26738 
L 295.269172 -77.339248 
L 295.487171 -77.411116 
L 295.665433 -77.482983 
L 295.805622 -77.554851 
L 295.911635 -77.626719 
L 295.988718 -77.698587 
L 296.042605 -77.770454 
L 296.229395 -77.770454 
L 296.229395 -77.770454 
L 296.283282 -77.698587 
L 296.360365 -77.626719 
L 296.466378 -77.554851 
L 296.606567 -77.482983 
L 296.784829 -77.411116 
L 297.002828 -77.339248 
L 297.259274 -77.26738 
L 297.549563 -77.195512 
L 297.865907 -77.123645 
L 298.197998 -77.051777 
L 298.534077 -76.979909 
L 298.862157 -76.908041 
L 299.171115 -76.836174 
L 299.451381 -76.764306 
L 299.695112 -76.692438 
L 299.895944 -76.620571 
L 300.048549 -76.548703 
L 300.148343 -76.476835 
L 300.1916 -76.404967 
L 300.176068 -76.3331 
L 300.101985 -76.261232 
L 299.973207 -76.189364 
L 299.798117 -76.117496 
L 299.590026 -76.045629 
L 299.366938 -75.973761 
L 299.150713 -75.901893 
L 298.965826 -75.830026 
L 298.837942 -75.758158 
L 298.792537 -75.68629 
L 298.853666 -75.614422 
L 299.04287 -75.542555 
L 299.378086 -75.470687 
L 299.872359 -75.398819 
L 300.532198 -75.326951 
L 301.355567 -75.255084 
L 302.329699 -75.183216 
L 303.429217 -75.111348 
L 304.615167 -75.03948 
L 305.835625 -74.967613 
L 307.028316 -74.895745 
L 308.125334 -74.823877 
L 309.059539 -74.75201 
L 309.771819 -74.680142 
L 310.218088 -74.608274 
L 310.374905 -74.536406 
L 310.242791 -74.464539 
L 309.84673 -74.392671 
L 309.233846 -74.320803 
L 308.468716 -74.248935 
L 307.627147 -74.177068 
L 306.789451 -74.1052 
L 306.03424 -74.033332 
L 305.433563 -73.961465 
L 305.049889 -73.889597 
L 304.935039 -73.817729 
L 305.13083 -73.745861 
L 305.670939 -73.673994 
L 306.583323 -73.602126 
L 307.892451 -73.530258 
L 309.620561 -73.45839 
L 311.787209 -73.386523 
L 314.406526 -73.314655 
L 317.48204 -73.242787 
L 320.999549 -73.170919 
L 324.91936 -73.099052 
L 329.169842 -73.027184 
L 333.644535 -72.955316 
L 338.204566 -72.883449 
L 342.687035 -72.811581 
L 346.918407 -72.739713 
L 350.730531 -72.667845 
L 353.975994 -72.595978 
L 356.539717 -72.52411 
L 358.344714 -72.452242 
L 359.351671 -72.380374 
L 359.5536 -72.308507 
L 358.96794 -72.236639 
L 357.628739 -72.164771 
L 355.581007 -72.092904 
L 352.878289 -72.021036 
L 349.58336 -71.949168 
L 345.771004 -71.8773 
L 341.531259 -71.805433 
L 336.971431 -71.733565 
L 332.215441 -71.661697 
L 327.399723 -71.589829 
L 322.665705 -71.517962 
L 318.149793 -71.446094 
L 313.972457 -71.374226 
L 310.228385 -71.302358 
L 306.979524 -71.230491 
L 304.252238 -71.158623 
L 302.038927 -71.086755 
L 300.303536 -71.014888 
L 298.989653 -70.94302 
L 298.029562 -70.871152 
L 297.352732 -70.799284 
L 296.892586 -70.727417 
L 296.590996 -70.655549 
z
" style="stroke: #595959; stroke-width: 1.25"/>
    </defs>
    <g clip-path="url(#p0e1b082932)">
     <use xlink:href="#m9c966883bf" x="0" y="432" style="fill: #e99675; stroke: #595959; stroke-width: 1.25"/>
    </g>
   </g>
   <g id="PolyCollection_3">
    <defs>
     <path id="m95e4374e53" d="M 458.215791 -221.245041 
L 451.144209 -221.245041 
L 449.208795 -222.566824 
L 446.516586 -223.888606 
L 442.933204 -225.210389 
L 438.375957 -226.532171 
L 432.849067 -227.853953 
L 426.47494 -229.175736 
L 419.512587 -230.497518 
L 412.354827 -231.819301 
L 405.499271 -233.141083 
L 399.493729 -234.462866 
L 394.863484 -235.784648 
L 392.033613 -237.10643 
L 391.2624 -238.428213 
L 392.600454 -239.749995 
L 395.884689 -241.071778 
L 400.768197 -242.39356 
L 406.778702 -243.715343 
L 413.392177 -245.037125 
L 420.105987 -246.358907 
L 426.497802 -247.68069 
L 432.261674 -249.002472 
L 437.218993 -250.324255 
L 441.307816 -251.646037 
L 444.557681 -252.96782 
L 447.058203 -254.289602 
L 448.928632 -255.611384 
L 450.293204 -256.933167 
L 451.264483 -258.254949 
L 451.934601 -259.576732 
L 452.372992 -260.898514 
L 452.628581 -262.220297 
L 452.734437 -263.542079 
L 452.713257 -264.863861 
L 452.582449 -266.185644 
L 452.358009 -267.507426 
L 452.056734 -268.829209 
L 451.69665 -270.150991 
L 451.295858 -271.472774 
L 450.870346 -272.794556 
L 450.431538 -274.116338 
L 449.984498 -275.438121 
L 449.527596 -276.759903 
L 449.054125 -278.081686 
L 448.555849 -279.403468 
L 448.027839 -280.725251 
L 447.473477 -282.047033 
L 446.908236 -283.368815 
L 446.360972 -284.690598 
L 445.871974 -286.01238 
L 445.487838 -287.334163 
L 445.254071 -288.655945 
L 445.207031 -289.977728 
L 445.367031 -291.29951 
L 445.734228 -292.621292 
L 446.288173 -293.943075 
L 446.991044 -295.264857 
L 447.793676 -296.58664 
L 448.642938 -297.908422 
L 449.488871 -299.230205 
L 450.290257 -300.551987 
L 451.017824 -301.873769 
L 451.654955 -303.195552 
L 452.196287 -304.517334 
L 452.644952 -305.839117 
L 453.009286 -307.160899 
L 453.299743 -308.482682 
L 453.52653 -309.804464 
L 453.69818 -311.126246 
L 453.821082 -312.448029 
L 453.899761 -313.769811 
L 453.937647 -315.091594 
L 453.938012 -316.413376 
L 453.904825 -317.735159 
L 453.843327 -319.056941 
L 453.760224 -320.378723 
L 453.663526 -321.700506 
L 453.562067 -323.022288 
L 453.464851 -324.344071 
L 453.380338 -325.665853 
L 453.315783 -326.987636 
L 453.276711 -328.309418 
L 453.266578 -329.6312 
L 453.286631 -330.952983 
L 453.335959 -332.274765 
L 453.41172 -333.596548 
L 453.509507 -334.91833 
L 453.623809 -336.240113 
L 453.748527 -337.561895 
L 453.877499 -338.883677 
L 454.004973 -340.20546 
L 454.125997 -341.527242 
L 454.236702 -342.849025 
L 454.334443 -344.170807 
L 454.417814 -345.49259 
L 454.486547 -346.814372 
L 454.541319 -348.136154 
L 454.583496 -349.457937 
L 454.614871 -350.779719 
L 454.637408 -352.101502 
L 454.722592 -352.101502 
L 454.722592 -352.101502 
L 454.745129 -350.779719 
L 454.776504 -349.457937 
L 454.818681 -348.136154 
L 454.873453 -346.814372 
L 454.942186 -345.49259 
L 455.025557 -344.170807 
L 455.123298 -342.849025 
L 455.234003 -341.527242 
L 455.355027 -340.20546 
L 455.482501 -338.883677 
L 455.611473 -337.561895 
L 455.736191 -336.240113 
L 455.850493 -334.91833 
L 455.94828 -333.596548 
L 456.024041 -332.274765 
L 456.073369 -330.952983 
L 456.093422 -329.6312 
L 456.083289 -328.309418 
L 456.044217 -326.987636 
L 455.979662 -325.665853 
L 455.895149 -324.344071 
L 455.797933 -323.022288 
L 455.696474 -321.700506 
L 455.599776 -320.378723 
L 455.516673 -319.056941 
L 455.455175 -317.735159 
L 455.421988 -316.413376 
L 455.422353 -315.091594 
L 455.460239 -313.769811 
L 455.538918 -312.448029 
L 455.66182 -311.126246 
L 455.83347 -309.804464 
L 456.060257 -308.482682 
L 456.350714 -307.160899 
L 456.715048 -305.839117 
L 457.163713 -304.517334 
L 457.705045 -303.195552 
L 458.342176 -301.873769 
L 459.069743 -300.551987 
L 459.871129 -299.230205 
L 460.717062 -297.908422 
L 461.566324 -296.58664 
L 462.368956 -295.264857 
L 463.071827 -293.943075 
L 463.625772 -292.621292 
L 463.992969 -291.29951 
L 464.152969 -289.977728 
L 464.105929 -288.655945 
L 463.872162 -287.334163 
L 463.488026 -286.01238 
L 462.999028 -284.690598 
L 462.451764 -283.368815 
L 461.886523 -282.047033 
L 461.332161 -280.725251 
L 460.804151 -279.403468 
L 460.305875 -278.081686 
L 459.832404 -276.759903 
L 459.375502 -275.438121 
L 458.928462 -274.116338 
L 458.489654 -272.794556 
L 458.064142 -271.472774 
L 457.66335 -270.150991 
L 457.303266 -268.829209 
L 457.001991 -267.507426 
L 456.777551 -266.185644 
L 456.646743 -264.863861 
L 456.625563 -263.542079 
L 456.731419 -262.220297 
L 456.987008 -260.898514 
L 457.425399 -259.576732 
L 458.095517 -258.254949 
L 459.066796 -256.933167 
L 460.431368 -255.611384 
L 462.301797 -254.289602 
L 464.802319 -252.96782 
L 468.052184 -251.646037 
L 472.141007 -250.324255 
L 477.098326 -249.002472 
L 482.862198 -247.68069 
L 489.254013 -246.358907 
L 495.967823 -245.037125 
L 502.581298 -243.715343 
L 508.591803 -242.39356 
L 513.475311 -241.071778 
L 516.759546 -239.749995 
L 518.0976 -238.428213 
L 517.326387 -237.10643 
L 514.496516 -235.784648 
L 509.866271 -234.462866 
L 503.860729 -233.141083 
L 497.005173 -231.819301 
L 489.847413 -230.497518 
L 482.88506 -229.175736 
L 476.510933 -227.853953 
L 470.984043 -226.532171 
L 466.426796 -225.210389 
L 462.843414 -223.888606 
L 460.151205 -222.566824 
L 458.215791 -221.245041 
z
" style="stroke: #595959; stroke-width: 1.25"/>
    </defs>
    <g clip-path="url(#p0e1b082932)">
     <use xlink:href="#m95e4374e53" x="0" y="432" style="fill: #95a3c3; stroke: #595959; stroke-width: 1.25"/>
    </g>
   </g>
   <g id="PolyCollection_4">
    <defs>
     <path id="m1424018a7c" d="M 616.709091 -253.318797 
L 609.738909 -253.318797 
L 607.772647 -254.684338 
L 605.017264 -256.04988 
L 601.330484 -257.415421 
L 596.627151 -258.780963 
L 590.917949 -260.146504 
L 584.343054 -261.512046 
L 577.190576 -262.877587 
L 569.89063 -264.243129 
L 562.98006 -265.60867 
L 557.03963 -266.974212 
L 552.613119 -268.339753 
L 550.123837 -269.705295 
L 549.8064 -271.070836 
L 551.669069 -272.436378 
L 555.495015 -273.80192 
L 560.881582 -275.167461 
L 567.307799 -276.533003 
L 574.214556 -277.898544 
L 581.08062 -279.264086 
L 587.480784 -280.629627 
L 593.118523 -281.995169 
L 597.832479 -283.36071 
L 601.58169 -284.726252 
L 604.417719 -286.091793 
L 606.452223 -287.457335 
L 607.82681 -288.822876 
L 608.68929 -290.188418 
L 609.177639 -291.553959 
L 609.411015 -292.919501 
L 609.486145 -294.285042 
L 609.47725 -295.650584 
L 609.438054 -297.016125 
L 609.404895 -298.381667 
L 609.400319 -299.747208 
L 609.436701 -301.11275 
L 609.519468 -302.478291 
L 609.649571 -303.843833 
L 609.824987 -305.209374 
L 610.041264 -306.574916 
L 610.291392 -307.940457 
L 610.565402 -309.305999 
L 610.850101 -310.671541 
L 611.129202 -312.037082 
L 611.383901 -313.402624 
L 611.593811 -314.768165 
L 611.73811 -316.133707 
L 611.796846 -317.499248 
L 611.752464 -318.86479 
L 611.591669 -320.230331 
L 611.307703 -321.595873 
L 610.902877 -322.961414 
L 610.3909 -324.326956 
L 609.79829 -325.692497 
L 609.164054 -327.058039 
L 608.537044 -328.42358 
L 607.970889 -329.789122 
L 607.517101 -331.154663 
L 607.217613 -332.520205 
L 607.098333 -333.885746 
L 607.165281 -335.251288 
L 607.404256 -336.616829 
L 607.784142 -337.982371 
L 608.263016 -339.347912 
L 608.795575 -340.713454 
L 609.340154 -342.078995 
L 609.863894 -343.444537 
L 610.345254 -344.810078 
L 610.773816 -346.17562 
L 611.148013 -347.541162 
L 611.471748 -348.906703 
L 611.750973 -350.272245 
L 611.991001 -351.637786 
L 612.195005 -353.003328 
L 612.36371 -354.368869 
L 612.496044 -355.734411 
L 612.590311 -357.099952 
L 612.645502 -358.465494 
L 612.662402 -359.831035 
L 612.644301 -361.196577 
L 612.597226 -362.562118 
L 612.529694 -363.92766 
L 612.452047 -365.293201 
L 612.37546 -366.658743 
L 612.310749 -368.024284 
L 612.267155 -369.389826 
L 612.251275 -370.755367 
L 612.266331 -372.120909 
L 612.31191 -373.48645 
L 612.384236 -374.851992 
L 612.476918 -376.217533 
L 612.582037 -377.583075 
L 612.691345 -378.948616 
L 612.797374 -380.314158 
L 612.894247 -381.679699 
L 612.978105 -383.045241 
L 613.047149 -384.410783 
L 613.101357 -385.776324 
L 613.142014 -387.141866 
L 613.171183 -388.507407 
L 613.276817 -388.507407 
L 613.276817 -388.507407 
L 613.305986 -387.141866 
L 613.346643 -385.776324 
L 613.400851 -384.410783 
L 613.469895 -383.045241 
L 613.553753 -381.679699 
L 613.650626 -380.314158 
L 613.756655 -378.948616 
L 613.865963 -377.583075 
L 613.971082 -376.217533 
L 614.063764 -374.851992 
L 614.13609 -373.48645 
L 614.181669 -372.120909 
L 614.196725 -370.755367 
L 614.180845 -369.389826 
L 614.137251 -368.024284 
L 614.07254 -366.658743 
L 613.995953 -365.293201 
L 613.918306 -363.92766 
L 613.850774 -362.562118 
L 613.803699 -361.196577 
L 613.785598 -359.831035 
L 613.802498 -358.465494 
L 613.857689 -357.099952 
L 613.951956 -355.734411 
L 614.08429 -354.368869 
L 614.252995 -353.003328 
L 614.456999 -351.637786 
L 614.697027 -350.272245 
L 614.976252 -348.906703 
L 615.299987 -347.541162 
L 615.674184 -346.17562 
L 616.102746 -344.810078 
L 616.584106 -343.444537 
L 617.107846 -342.078995 
L 617.652425 -340.713454 
L 618.184984 -339.347912 
L 618.663858 -337.982371 
L 619.043744 -336.616829 
L 619.282719 -335.251288 
L 619.349667 -333.885746 
L 619.230387 -332.520205 
L 618.930899 -331.154663 
L 618.477111 -329.789122 
L 617.910956 -328.42358 
L 617.283946 -327.058039 
L 616.64971 -325.692497 
L 616.0571 -324.326956 
L 615.545123 -322.961414 
L 615.140297 -321.595873 
L 614.856331 -320.230331 
L 614.695536 -318.86479 
L 614.651154 -317.499248 
L 614.70989 -316.133707 
L 614.854189 -314.768165 
L 615.064099 -313.402624 
L 615.318798 -312.037082 
L 615.597899 -310.671541 
L 615.882598 -309.305999 
L 616.156608 -307.940457 
L 616.406736 -306.574916 
L 616.623013 -305.209374 
L 616.798429 -303.843833 
L 616.928532 -302.478291 
L 617.011299 -301.11275 
L 617.047681 -299.747208 
L 617.043105 -298.381667 
L 617.009946 -297.016125 
L 616.97075 -295.650584 
L 616.961855 -294.285042 
L 617.036985 -292.919501 
L 617.270361 -291.553959 
L 617.75871 -290.188418 
L 618.62119 -288.822876 
L 619.995777 -287.457335 
L 622.030281 -286.091793 
L 624.86631 -284.726252 
L 628.615521 -283.36071 
L 633.329477 -281.995169 
L 638.967216 -280.629627 
L 645.36738 -279.264086 
L 652.233444 -277.898544 
L 659.140201 -276.533003 
L 665.566418 -275.167461 
L 670.952985 -273.80192 
L 674.778931 -272.436378 
L 676.6416 -271.070836 
L 676.324163 -269.705295 
L 673.834881 -268.339753 
L 669.40837 -266.974212 
L 663.46794 -265.60867 
L 656.55737 -264.243129 
L 649.257424 -262.877587 
L 642.104946 -261.512046 
L 635.530051 -260.146504 
L 629.820849 -258.780963 
L 625.117516 -257.415421 
L 621.430736 -256.04988 
L 618.675353 -254.684338 
L 616.709091 -253.318797 
z
" style="stroke: #595959; stroke-width: 1.25"/>
    </defs>
    <g clip-path="url(#p0e1b082932)">
     <use xlink:href="#m1424018a7c" x="0" y="432" style="fill: #db96c0; stroke: #595959; stroke-width: 1.25"/>
    </g>
   </g>
   <g id="PolyCollection_5">
    <defs>
     <path id="mc931425c4b" d="M 774.968299 -232.209723 
L 768.567701 -232.209723 
L 766.777931 -233.399676 
L 764.267316 -234.58963 
L 760.896868 -235.779583 
L 756.57186 -236.969537 
L 751.275965 -238.159491 
L 745.102997 -239.349444 
L 738.277894 -240.539398 
L 731.158775 -241.729351 
L 724.214577 -242.919305 
L 717.97776 -244.109258 
L 712.977752 -245.299212 
L 709.666464 -246.489165 
L 708.3504 -247.679119 
L 709.143576 -248.869072 
L 711.951242 -250.059026 
L 716.487571 -251.248979 
L 722.32282 -252.438933 
L 728.949282 -253.628887 
L 735.852163 -254.81884 
L 742.572028 -256.008794 
L 748.749066 -257.198747 
L 754.14473 -258.388701 
L 758.6417 -259.578654 
L 762.227123 -260.768608 
L 764.966122 -261.958561 
L 766.972447 -263.148515 
L 768.381703 -264.338468 
L 769.330337 -265.528422 
L 769.94151 -266.718376 
L 770.317334 -267.908329 
L 770.536145 -269.098283 
L 770.653176 -270.288236 
L 770.703234 -271.47819 
L 770.704363 -272.668143 
L 770.661916 -273.858097 
L 770.572737 -275.04805 
L 770.429344 -276.238004 
L 770.223943 -277.427957 
L 769.952027 -278.617911 
L 769.615162 -279.807864 
L 769.222487 -280.997818 
L 768.790572 -282.187772 
L 768.341499 -283.377725 
L 767.89942 -284.567679 
L 767.486276 -285.757632 
L 767.117628 -286.947586 
L 766.799705 -288.137539 
L 766.528515 -289.327493 
L 766.291464 -290.517446 
L 766.071276 -291.7074 
L 765.851373 -292.897353 
L 765.621431 -294.087307 
L 765.381689 -295.27726 
L 765.144809 -296.467214 
L 764.934674 -297.657168 
L 764.782285 -298.847121 
L 764.719654 -300.037075 
L 764.773131 -301.227028 
L 764.957741 -302.416982 
L 765.27381 -303.606935 
L 765.706561 -304.796889 
L 766.228602 -305.986842 
L 766.804554 -307.176796 
L 767.396671 -308.366749 
L 767.970232 -309.556703 
L 768.497709 -310.746656 
L 768.961159 -311.93661 
L 769.352719 -313.126564 
L 769.673481 -314.316517 
L 769.931273 -315.506471 
L 770.137916 -316.696424 
L 770.306507 -317.886378 
L 770.449162 -319.076331 
L 770.575441 -320.266285 
L 770.691571 -321.456238 
L 770.800403 -322.646192 
L 770.901943 -323.836145 
L 770.994276 -325.026099 
L 771.07464 -326.216052 
L 771.140475 -327.406006 
L 771.190289 -328.59596 
L 771.224222 -329.785913 
L 771.244252 -330.975867 
L 771.25403 -332.16582 
L 771.258365 -333.355774 
L 771.262485 -334.545727 
L 771.271199 -335.735681 
L 771.288139 -336.925634 
L 771.315237 -338.115588 
L 771.352539 -339.305541 
L 771.39838 -340.495495 
L 771.449853 -341.685449 
L 771.503439 -342.875402 
L 771.555666 -344.065356 
L 771.603634 -345.255309 
L 771.645343 -346.445263 
L 771.679791 -347.635216 
L 771.706885 -348.82517 
L 771.727214 -350.015123 
L 771.808786 -350.015123 
L 771.808786 -350.015123 
L 771.829115 -348.82517 
L 771.856209 -347.635216 
L 771.890657 -346.445263 
L 771.932366 -345.255309 
L 771.980334 -344.065356 
L 772.032561 -342.875402 
L 772.086147 -341.685449 
L 772.13762 -340.495495 
L 772.183461 -339.305541 
L 772.220763 -338.115588 
L 772.247861 -336.925634 
L 772.264801 -335.735681 
L 772.273515 -334.545727 
L 772.277635 -333.355774 
L 772.28197 -332.16582 
L 772.291748 -330.975867 
L 772.311778 -329.785913 
L 772.345711 -328.59596 
L 772.395525 -327.406006 
L 772.46136 -326.216052 
L 772.541724 -325.026099 
L 772.634057 -323.836145 
L 772.735597 -322.646192 
L 772.844429 -321.456238 
L 772.960559 -320.266285 
L 773.086838 -319.076331 
L 773.229493 -317.886378 
L 773.398084 -316.696424 
L 773.604727 -315.506471 
L 773.862519 -314.316517 
L 774.183281 -313.126564 
L 774.574841 -311.93661 
L 775.038291 -310.746656 
L 775.565768 -309.556703 
L 776.139329 -308.366749 
L 776.731446 -307.176796 
L 777.307398 -305.986842 
L 777.829439 -304.796889 
L 778.26219 -303.606935 
L 778.578259 -302.416982 
L 778.762869 -301.227028 
L 778.816346 -300.037075 
L 778.753715 -298.847121 
L 778.601326 -297.657168 
L 778.391191 -296.467214 
L 778.154311 -295.27726 
L 777.914569 -294.087307 
L 777.684627 -292.897353 
L 777.464724 -291.7074 
L 777.244536 -290.517446 
L 777.007485 -289.327493 
L 776.736295 -288.137539 
L 776.418372 -286.947586 
L 776.049724 -285.757632 
L 775.63658 -284.567679 
L 775.194501 -283.377725 
L 774.745428 -282.187772 
L 774.313513 -280.997818 
L 773.920838 -279.807864 
L 773.583973 -278.617911 
L 773.312057 -277.427957 
L 773.106656 -276.238004 
L 772.963263 -275.04805 
L 772.874084 -273.858097 
L 772.831637 -272.668143 
L 772.832766 -271.47819 
L 772.882824 -270.288236 
L 772.999855 -269.098283 
L 773.218666 -267.908329 
L 773.59449 -266.718376 
L 774.205663 -265.528422 
L 775.154297 -264.338468 
L 776.563553 -263.148515 
L 778.569878 -261.958561 
L 781.308877 -260.768608 
L 784.8943 -259.578654 
L 789.39127 -258.388701 
L 794.786934 -257.198747 
L 800.963972 -256.008794 
L 807.683837 -254.81884 
L 814.586718 -253.628887 
L 821.21318 -252.438933 
L 827.048429 -251.248979 
L 831.584758 -250.059026 
L 834.392424 -248.869072 
L 835.1856 -247.679119 
L 833.869536 -246.489165 
L 830.558248 -245.299212 
L 825.55824 -244.109258 
L 819.321423 -242.919305 
L 812.377225 -241.729351 
L 805.258106 -240.539398 
L 798.433003 -239.349444 
L 792.260035 -238.159491 
L 786.96414 -236.969537 
L 782.639132 -235.779583 
L 779.268684 -234.58963 
L 776.758069 -233.399676 
L 774.968299 -232.209723 
z
" style="stroke: #595959; stroke-width: 1.25"/>
    </defs>
    <g clip-path="url(#p0e1b082932)">
     <use xlink:href="#mc931425c4b" x="0" y="432" style="fill: #a2c865; stroke: #595959; stroke-width: 1.25"/>
    </g>
   </g>
   <g id="line2d_6">
    <path d="M 137.592 354.798088 
L 137.592 355.682381 
" clip-path="url(#p0e1b082932)" style="fill: none; stroke: #000000"/>
   </g>
   <g id="line2d_7">
    <path d="M 137.592 353.772308 
L 137.592 352.605041 
" clip-path="url(#p0e1b082932)" style="fill: none; stroke: #000000"/>
   </g>
   <g id="line2d_8">
    <path d="M 131.6466 355.682381 
L 143.5374 355.682381 
" clip-path="url(#p0e1b082932)" style="fill: none; stroke: #000000; stroke-linecap: round"/>
   </g>
   <g id="line2d_9">
    <path d="M 131.6466 352.605041 
L 143.5374 352.605041 
" clip-path="url(#p0e1b082932)" style="fill: none; stroke: #000000; stroke-linecap: round"/>
   </g>
   <g id="line2d_10">
    <path d="M 296.136 359.926988 
L 296.136 360.634422 
" clip-path="url(#p0e1b082932)" style="fill: none; stroke: #000000"/>
   </g>
   <g id="line2d_11">
    <path d="M 296.136 358.93658 
L 296.136 357.486339 
" clip-path="url(#p0e1b082932)" style="fill: none; stroke: #000000"/>
   </g>
   <g id="line2d_12">
    <path d="M 290.1906 360.634422 
L 302.0814 360.634422 
" clip-path="url(#p0e1b082932)" style="fill: none; stroke: #000000; stroke-linecap: round"/>
   </g>
   <g id="line2d_13">
    <path d="M 290.1906 357.486339 
L 302.0814 357.486339 
" clip-path="url(#p0e1b082932)" style="fill: none; stroke: #000000; stroke-linecap: round"/>
   </g>
   <g id="line2d_14">
    <path d="M 454.68 195.545736 
L 454.68 197.323165 
" clip-path="url(#p0e1b082932)" style="fill: none; stroke: #000000"/>
   </g>
   <g id="line2d_15">
    <path d="M 454.68 188.736679 
L 454.68 179.071355 
" clip-path="url(#p0e1b082932)" style="fill: none; stroke: #000000"/>
   </g>
   <g id="line2d_16">
    <path d="M 448.7346 197.323165 
L 460.6254 197.323165 
" clip-path="url(#p0e1b082932)" style="fill: none; stroke: #000000; stroke-linecap: round"/>
   </g>
   <g id="line2d_17">
    <path d="M 448.7346 179.071355 
L 460.6254 179.071355 
" clip-path="url(#p0e1b082932)" style="fill: none; stroke: #000000; stroke-linecap: round"/>
   </g>
   <g id="line2d_18">
    <path d="M 613.224 163.543167 
L 613.224 165.24101 
" clip-path="url(#p0e1b082932)" style="fill: none; stroke: #000000"/>
   </g>
   <g id="line2d_19">
    <path d="M 613.224 157.406173 
L 613.224 150.06654 
" clip-path="url(#p0e1b082932)" style="fill: none; stroke: #000000"/>
   </g>
   <g id="line2d_20">
    <path d="M 607.2786 165.24101 
L 619.1694 165.24101 
" clip-path="url(#p0e1b082932)" style="fill: none; stroke: #000000; stroke-linecap: round"/>
   </g>
   <g id="line2d_21">
    <path d="M 607.2786 150.06654 
L 619.1694 150.06654 
" clip-path="url(#p0e1b082932)" style="fill: none; stroke: #000000; stroke-linecap: round"/>
   </g>
   <g id="line2d_22">
    <path d="M 771.768 186.251815 
L 771.768 187.843543 
" clip-path="url(#p0e1b082932)" style="fill: none; stroke: #000000"/>
   </g>
   <g id="line2d_23">
    <path d="M 771.768 180.839941 
L 771.768 174.968235 
" clip-path="url(#p0e1b082932)" style="fill: none; stroke: #000000"/>
   </g>
   <g id="line2d_24">
    <path d="M 765.8226 187.843543 
L 777.7134 187.843543 
" clip-path="url(#p0e1b082932)" style="fill: none; stroke: #000000; stroke-linecap: round"/>
   </g>
   <g id="line2d_25">
    <path d="M 765.8226 174.968235 
L 777.7134 174.968235 
" clip-path="url(#p0e1b082932)" style="fill: none; stroke: #000000; stroke-linecap: round"/>
   </g>
   <g id="line2d_26">
    <path d="M 125.7012 354.44437 
L 149.4828 354.44437 
" clip-path="url(#p0e1b082932)" style="fill: none; stroke: #ff0000; stroke-width: 2"/>
   </g>
   <g id="line2d_27">
    <path d="M 284.2452 359.502527 
L 308.0268 359.502527 
" clip-path="url(#p0e1b082932)" style="fill: none; stroke: #ff0000; stroke-width: 2"/>
   </g>
   <g id="line2d_28">
    <path d="M 442.7892 192.494925 
L 466.5708 192.494925 
" clip-path="url(#p0e1b082932)" style="fill: none; stroke: #ff0000; stroke-width: 2"/>
   </g>
   <g id="line2d_29">
    <path d="M 601.3332 160.271283 
L 625.1148 160.271283 
" clip-path="url(#p0e1b082932)" style="fill: none; stroke: #ff0000; stroke-width: 2"/>
   </g>
   <g id="line2d_30">
    <path d="M 759.8772 183.06836 
L 783.6588 183.06836 
" clip-path="url(#p0e1b082932)" style="fill: none; stroke: #ff0000; stroke-width: 2"/>
   </g>
   <g id="patch_3">
    <path d="M 58.32 377.237044 
L 58.32 27.6 
" style="fill: none; stroke: #cccccc; stroke-width: 1.25; stroke-linejoin: miter; stroke-linecap: square"/>
   </g>
   <g id="patch_4">
    <path d="M 851.04 377.237044 
L 851.04 27.6 
" style="fill: none; stroke: #cccccc; stroke-width: 1.25; stroke-linejoin: miter; stroke-linecap: square"/>
   </g>
   <g id="patch_5">
    <path d="M 58.32 377.237044 
L 851.04 377.237044 
" style="fill: none; stroke: #cccccc; stroke-width: 1.25; stroke-linejoin: miter; stroke-linecap: square"/>
   </g>
   <g id="patch_6">
    <path d="M 58.32 27.6 
L 851.04 27.6 
" style="fill: none; stroke: #cccccc; stroke-width: 1.25; stroke-linejoin: miter; stroke-linecap: square"/>
   </g>
   <g id="text_12">
    <!-- Handshake duration on QUIC with mldsa65 signature algorithm — Backbone (200ms/4%) -->
    <g style="fill: #262626" transform="translate(186.57375 21.6) scale(0.12 -0.12)">
     <defs>
      <path id="DejaVuSans-51" d="M 2522 4238 
Q 1834 4238 1429 3725 
Q 1025 3213 1025 2328 
Q 1025 1447 1429 934 
Q 1834 422 2522 422 
Q 3209 422 3611 934 
Q 4013 1447 4013 2328 
Q 4013 3213 3611 3725 
Q 3209 4238 2522 4238 
z
M 3406 84 
L 4238 -825 
L 3475 -825 
L 2784 -78 
Q 2681 -84 2626 -87 
Q 2572 -91 2522 -91 
Q 1538 -91 948 567 
Q 359 1225 359 2328 
Q 359 3434 948 4092 
Q 1538 4750 2522 4750 
Q 3503 4750 4090 4092 
Q 4678 3434 4678 2328 
Q 4678 1516 4351 937 
Q 4025 359 3406 84 
z
" transform="scale(0.015625)"/>
      <path id="DejaVuSans-55" d="M 556 4666 
L 1191 4666 
L 1191 1831 
Q 1191 1081 1462 751 
Q 1734 422 2344 422 
Q 2950 422 3222 751 
Q 3494 1081 3494 1831 
L 3494 4666 
L 4128 4666 
L 4128 1753 
Q 4128 841 3676 375 
Q 3225 -91 2344 -91 
Q 1459 -91 1007 375 
Q 556 841 556 1753 
L 556 4666 
z
" transform="scale(0.015625)"/>
      <path id="DejaVuSans-49" d="M 628 4666 
L 1259 4666 
L 1259 0 
L 628 0 
L 628 4666 
z
" transform="scale(0.015625)"/>
      <path id="DejaVuSans-43" d="M 4122 4306 
L 4122 3641 
Q 3803 3938 3442 4084 
Q 3081 4231 2675 4231 
Q 1875 4231 1450 3742 
Q 1025 3253 1025 2328 
Q 1025 1406 1450 917 
Q 1875 428 2675 428 
Q 3081 428 3442 575 
Q 3803 722 4122 1019 
L 4122 359 
Q 3791 134 3420 21 
Q 3050 -91 2638 -91 
Q 1578 -91 968 557 
Q 359 1206 359 2328 
Q 359 3453 968 4101 
Q 1578 4750 2638 4750 
Q 3056 4750 3426 4639 
Q 3797 4528 4122 4306 
z
" transform="scale(0.015625)"/>
      <path id="DejaVuSans-77" d="M 269 3500 
L 844 3500 
L 1563 769 
L 2278 3500 
L 2956 3500 
L 3675 769 
L 4391 3500 
L 4966 3500 
L 4050 0 
L 3372 0 
L 2619 2869 
L 1863 0 
L 1184 0 
L 269 3500 
z
" transform="scale(0.015625)"/>
      <path id="DejaVuSans-6c" d="M 603 4863 
L 1178 4863 
L 1178 0 
L 603 0 
L 603 4863 
z
" transform="scale(0.015625)"/>
      <path id="DejaVuSans-35" d="M 691 4666 
L 3169 4666 
L 3169 4134 
L 1269 4134 
L 1269 2991 
Q 1406 3038 1543 3061 
Q 1681 3084 1819 3084 
Q 2600 3084 3056 2656 
Q 3513 2228 3513 1497 
Q 3513 744 3044 326 
Q 2575 -91 1722 -91 
Q 1428 -91 1123 -41 
Q 819 9 494 109 
L 494 744 
Q 775 591 1075 516 
Q 1375 441 1709 441 
Q 2250 441 2565 725 
Q 2881 1009 2881 1497 
Q 2881 1984 2565 2268 
Q 2250 2553 1709 2553 
Q 1456 2553 1204 2497 
Q 953 2441 691 2322 
L 691 4666 
z
" transform="scale(0.015625)"/>
      <path id="DejaVuSans-67" d="M 2906 1791 
Q 2906 2416 2648 2759 
Q 2391 3103 1925 3103 
Q 1463 3103 1205 2759 
Q 947 2416 947 1791 
Q 947 1169 1205 825 
Q 1463 481 1925 481 
Q 2391 481 2648 825 
Q 2906 1169 2906 1791 
z
M 3481 434 
Q 3481 -459 3084 -895 
Q 2688 -1331 1869 -1331 
Q 1566 -1331 1297 -1286 
Q 1028 -1241 775 -1147 
L 775 -588 
Q 1028 -725 1275 -790 
Q 1522 -856 1778 -856 
Q 2344 -856 2625 -561 
Q 2906 -266 2906 331 
L 2906 616 
Q 2728 306 2450 153 
Q 2172 0 1784 0 
Q 1141 0 747 490 
Q 353 981 353 1791 
Q 353 2603 747 3093 
Q 1141 3584 1784 3584 
Q 2172 3584 2450 3431 
Q 2728 3278 2906 2969 
L 2906 3500 
L 3481 3500 
L 3481 434 
z
" transform="scale(0.015625)"/>
      <path id="DejaVuSans-2014" d="M 313 1978 
L 6088 1978 
L 6088 1528 
L 313 1528 
L 313 1978 
z
" transform="scale(0.015625)"/>
      <path id="DejaVuSans-42" d="M 1259 2228 
L 1259 519 
L 2272 519 
Q 2781 519 3026 730 
Q 3272 941 3272 1375 
Q 3272 1813 3026 2020 
Q 2781 2228 2272 2228 
L 1259 2228 
z
M 1259 4147 
L 1259 2741 
L 2194 2741 
Q 2656 2741 2882 2914 
Q 3109 3088 3109 3444 
Q 3109 3797 2882 3972 
Q 2656 4147 2194 4147 
L 1259 4147 
z
M 628 4666 
L 2241 4666 
Q 2963 4666 3353 4366 
Q 3744 4066 3744 3513 
Q 3744 3084 3544 2831 
Q 3344 2578 2956 2516 
Q 3422 2416 3680 2098 
Q 3938 1781 3938 1306 
Q 3938 681 3513 340 
Q 3088 0 2303 0 
L 628 0 
L 628 4666 
z
" transform="scale(0.015625)"/>
      <path id="DejaVuSans-62" d="M 3116 1747 
Q 3116 2381 2855 2742 
Q 2594 3103 2138 3103 
Q 1681 3103 1420 2742 
Q 1159 2381 1159 1747 
Q 1159 1113 1420 752 
Q 1681 391 2138 391 
Q 2594 391 2855 752 
Q 3116 1113 3116 1747 
z
M 1159 2969 
Q 1341 3281 1617 3432 
Q 1894 3584 2278 3584 
Q 2916 3584 3314 3078 
Q 3713 2572 3713 1747 
Q 3713 922 3314 415 
Q 2916 -91 2278 -91 
Q 1894 -91 1617 61 
Q 1341 213 1159 525 
L 1159 0 
L 581 0 
L 581 4863 
L 1159 4863 
L 1159 2969 
z
" transform="scale(0.015625)"/>
      <path id="DejaVuSans-2f" d="M 1625 4666 
L 2156 4666 
L 531 -594 
L 0 -594 
L 1625 4666 
z
" transform="scale(0.015625)"/>
      <path id="DejaVuSans-25" d="M 4653 2053 
Q 4381 2053 4226 1822 
Q 4072 1591 4072 1178 
Q 4072 772 4226 539 
Q 4381 306 4653 306 
Q 4919 306 5073 539 
Q 5228 772 5228 1178 
Q 5228 1588 5073 1820 
Q 4919 2053 4653 2053 
z
M 4653 2450 
Q 5147 2450 5437 2106 
Q 5728 1763 5728 1178 
Q 5728 594 5436 251 
Q 5144 -91 4653 -91 
Q 4153 -91 3862 251 
Q 3572 594 3572 1178 
Q 3572 1766 3864 2108 
Q 4156 2450 4653 2450 
z
M 1428 4353 
Q 1159 4353 1004 4120 
Q 850 3888 850 3481 
Q 850 3069 1003 2837 
Q 1156 2606 1428 2606 
Q 1700 2606 1854 2837 
Q 2009 3069 2009 3481 
Q 2009 3884 1853 4118 
Q 1697 4353 1428 4353 
z
M 4250 4750 
L 4750 4750 
L 1831 -91 
L 1331 -91 
L 4250 4750 
z
M 1428 4750 
Q 1922 4750 2215 4408 
Q 2509 4066 2509 3481 
Q 2509 2891 2217 2550 
Q 1925 2209 1428 2209 
Q 931 2209 642 2551 
Q 353 2894 353 3481 
Q 353 4063 643 4406 
Q 934 4750 1428 4750 
z
" transform="scale(0.015625)"/>
     </defs>
     <use xlink:href="#DejaVuSans-48"/>
     <use xlink:href="#DejaVuSans-61" x="75.195312"/>
     <use xlink:href="#DejaVuSans-6e" x="136.474609"/>
     <use xlink:href="#DejaVuSans-64" x="199.853516"/>
     <use xlink:href="#DejaVuSans-73" x="263.330078"/>
     <use xlink:href="#DejaVuSans-68" x="315.429688"/>
     <use xlink:href="#DejaVuSans-61" x="378.808594"/>
     <use xlink:href="#DejaVuSans-6b" x="440.087891"/>
     <use xlink:href="#DejaVuSans-65" x="494.373047"/>
     <use xlink:href="#DejaVuSans-20" x="555.896484"/>
     <use xlink:href="#DejaVuSans-64" x="587.683594"/>
     <use xlink:href="#DejaVuSans-75" x="651.160156"/>
     <use xlink:href="#DejaVuSans-72" x="714.539062"/>
     <use xlink:href="#DejaVuSans-61" x="755.652344"/>
     <use xlink:href="#DejaVuSans-74" x="816.931641"/>
     <use xlink:href="#DejaVuSans-69" x="856.140625"/>
     <use xlink:href="#DejaVuSans-6f" x="883.923828"/>
     <use xlink:href="#DejaVuSans-6e" x="945.105469"/>
     <use xlink:href="#DejaVuSans-20" x="1008.484375"/>
     <use xlink:href="#DejaVuSans-6f" x="1040.271484"/>
     <use xlink:href="#DejaVuSans-6e" x="1101.453125"/>
     <use xlink:href="#DejaVuSans-20" x="1164.832031"/>
     <use xlink:href="#DejaVuSans-51" x="1196.619141"/>
     <use xlink:href="#DejaVuSans-55" x="1275.330078"/>
     <use xlink:href="#DejaVuSans-49" x="1348.523438"/>
     <use xlink:href="#DejaVuSans-43" x="1378.015625"/>
     <use xlink:href="#DejaVuSans-20" x="1447.839844"/>
     <use xlink:href="#DejaVuSans-77" x="1479.626953"/>
     <use xlink:href="#DejaVuSans-69" x="1561.414062"/>
     <use xlink:href="#DejaVuSans-74" x="1589.197266"/>
     <use xlink:href="#DejaVuSans-68" x="1628.40625"/>
     <use xlink:href="#DejaVuSans-20" x="1691.785156"/>
     <use xlink:href="#DejaVuSans-6d" x="1723.572266"/>
     <use xlink:href="#DejaVuSans-6c" x="1820.984375"/>
     <use xlink:href="#DejaVuSans-64" x="1848.767578"/>
     <use xlink:href="#DejaVuSans-73" x="1912.244141"/>
     <use xlink:href="#DejaVuSans-61" x="1964.34375"/>
     <use xlink:href="#DejaVuSans-36" x="2025.623047"/>
     <use xlink:href="#DejaVuSans-35" x="2089.246094"/>
     <use xlink:href="#DejaVuSans-20" x="2152.869141"/>
     <use xlink:href="#DejaVuSans-73" x="2184.65625"/>
     <use xlink:href="#DejaVuSans-69" x="2236.755859"/>
     <use xlink:href="#DejaVuSans-67" x="2264.539062"/>
     <use xlink:href="#DejaVuSans-6e" x="2328.015625"/>
     <use xlink:href="#DejaVuSans-61" x="2391.394531"/>
     <use xlink:href="#DejaVuSans-74" x="2452.673828"/>
     <use xlink:href="#DejaVuSans-75" x="2491.882812"/>
     <use xlink:href="#DejaVuSans-72" x="2555.261719"/>
     <use xlink:href="#DejaVuSans-65" x="2594.125"/>
     <use xlink:href="#DejaVuSans-20" x="2655.648438"/>
     <use xlink:href="#DejaVuSans-61" x="2687.435547"/>
     <use xlink:href="#DejaVuSans-6c" x="2748.714844"/>
     <use xlink:href="#DejaVuSans-67" x="2776.498047"/>
     <use xlink:href="#DejaVuSans-6f" x="2839.974609"/>
     <use xlink:href="#DejaVuSans-72" x="2901.15625"/>
     <use xlink:href="#DejaVuSans-69" x="2942.269531"/>
     <use xlink:href="#DejaVuSans-74" x="2970.052734"/>
     <use xlink:href="#DejaVuSans-68" x="3009.261719"/>
     <use xlink:href="#DejaVuSans-6d" x="3072.640625"/>
     <use xlink:href="#DejaVuSans-20" x="3170.052734"/>
     <use xlink:href="#DejaVuSans-2014" x="3201.839844"/>
     <use xlink:href="#DejaVuSans-20" x="3301.839844"/>
     <use xlink:href="#DejaVuSans-42" x="3333.626953"/>
     <use xlink:href="#DejaVuSans-61" x="3402.230469"/>
     <use xlink:href="#DejaVuSans-63" x="3463.509766"/>
     <use xlink:href="#DejaVuSans-6b" x="3518.490234"/>
     <use xlink:href="#DejaVuSans-62" x="3576.400391"/>
     <use xlink:href="#DejaVuSans-6f" x="3639.876953"/>
     <use xlink:href="#DejaVuSans-6e" x="3701.058594"/>
     <use xlink:href="#DejaVuSans-65" x="3764.4375"/>
     <use xlink:href="#DejaVuSans-20" x="3825.960938"/>
     <use xlink:href="#DejaVuSans-28" x="3857.748047"/>
     <use xlink:href="#DejaVuSans-32" x="3896.761719"/>
     <use xlink:href="#DejaVuSans-30" x="3960.384766"/>
     <use xlink:href="#DejaVuSans-30" x="4024.007812"/>
     <use xlink:href="#DejaVuSans-6d" x="4087.630859"/>
     <use xlink:href="#DejaVuSans-73" x="4185.042969"/>
     <use xlink:href="#DejaVuSans-2f" x="4237.142578"/>
     <use xlink:href="#DejaVuSans-34" x="4270.833984"/>
     <use xlink:href="#DejaVuSans-25" x="4334.457031"/>
     <use xlink:href="#DejaVuSans-29" x="4429.476562"/>
    </g>
   </g>
  </g>
 </g>
 <defs>
  <clipPath id="p0e1b082932">
   <rect x="58.32" y="27.6" width="792.72" height="349.637044"/>
  </clipPath>
 </defs>
</svg>
