<?xml version="1.0" encoding="utf-8" standalone="no"?>
<!DOCTYPE svg PUBLIC "-//W3C//DTD SVG 1.1//EN"
  "http://www.w3.org/Graphics/SVG/1.1/DTD/svg11.dtd">
<svg xmlns:xlink="http://www.w3.org/1999/xlink" width="864pt" height="432pt" viewBox="0 0 864 432" xmlns="http://www.w3.org/2000/svg" version="1.1">
 <metadata>
  <rdf:RDF xmlns:dc="http://purl.org/dc/elements/1.1/" xmlns:cc="http://creativecommons.org/ns#" xmlns:rdf="http://www.w3.org/1999/02/22-rdf-syntax-ns#">
   <cc:Work>
    <dc:type rdf:resource="http://purl.org/dc/dcmitype/StillImage"/>
    <dc:date>2026-03-21T14:06:24.824678</dc:date>
    <dc:format>image/svg+xml</dc:format>
    <dc:creator>
     <cc:Agent>
      <dc:title>Matplotlib v3.6.3, https://matplotlib.org/</dc:title>
     </cc:Agent>
    </dc:creator>
   </cc:Work>
  </rdf:RDF>
 </metadata>
 <defs>
  <style type="text/css">*{stroke-linejoin: round; stroke-linecap: butt}</style>
 </defs>
 <g id="figure_1">
  <g id="patch_1">
   <path d="M 0 432 
L 864 432 
L 864 0 
L 0 0 
z
" style="fill: #ffffff"/>
  </g>
  <g id="axes_1">
   <g id="patch_2">
    <path d="M 51.3 373.416875 
L 851.04 373.416875 
L 851.04 27.6 
L 51.3 27.6 
z
" style="fill: #ffffff"/>
   </g>
   <g id="matplotlib.axis_1">
    <g id="xtick_1">
     <g id="text_1">
      <!-- P-256 -->
      <g style="fill: #262626" transform="translate(97.593421 400.575919) rotate(-15) scale(0.12 -0.12)">
       <defs>
        <path id="DejaVuSans-50" d="M 1259 4147 
L 1259 2394 
L 2053 2394 
Q 2494 2394 2734 2622 
Q 2975 2850 2975 3272 
Q 2975 3691 2734 3919 
Q 2494 4147 2053 4147 
L 1259 4147 
z
M 628 4666 
L 2053 4666 
Q 2838 4666 3239 4311 
Q 3641 3956 3641 3272 
Q 3641 2581 3239 2228 
Q 2838 1875 2053 1875 
L 1259 1875 
L 1259 0 
L 628 0 
L 628 4666 
z
" transform="scale(0.015625)"/>
        <path id="DejaVuSans-2d" d="M 313 2009 
L 1997 2009 
L 1997 1497 
L 313 1497 
L 313 2009 
z
" transform="scale(0.015625)"/>
        <path id="DejaVuSans-32" d="M 1228 531 
L 3431 531 
L 3431 0 
L 469 0 
L 469 531 
Q 828 903 1448 1529 
Q 2069 2156 2228 2338 
Q 2531 2678 2651 2914 
Q 2772 3150 2772 3378 
Q 2772 3750 2511 3984 
Q 2250 4219 1831 4219 
Q 1534 4219 1204 4116 
Q 875 4013 500 3803 
L 500 4441 
Q 881 4594 1212 4672 
Q 1544 4750 1819 4750 
Q 2544 4750 2975 4387 
Q 3406 4025 3406 3419 
Q 3406 3131 3298 2873 
Q 3191 2616 2906 2266 
Q 2828 2175 2409 1742 
Q 1991 1309 1228 531 
z
" transform="scale(0.015625)"/>
        <path id="DejaVuSans-35" d="M 691 4666 
L 3169 4666 
L 3169 4134 
L 1269 4134 
L 1269 2991 
Q 1406 3038 1543 3061 
Q 1681 3084 1819 3084 
Q 2600 3084 3056 2656 
Q 3513 2228 3513 1497 
Q 3513 744 3044 326 
Q 2575 -91 1722 -91 
Q 1428 -91 1123 -41 
Q 819 9 494 109 
L 494 744 
Q 775 591 1075 516 
Q 1375 441 1709 441 
Q 2250 441 2565 725 
Q 2881 1009 2881 1497 
Q 2881 1984 2565 2268 
Q 2250 2553 1709 2553 
Q 1456 2553 1204 2497 
Q 953 2441 691 2322 
L 691 4666 
z
" transform="scale(0.015625)"/>
        <path id="DejaVuSans-36" d="M 2113 2584 
Q 1688 2584 1439 2293 
Q 1191 2003 1191 1497 
Q 1191 994 1439 701 
Q 1688 409 2113 409 
Q 2538 409 2786 701 
Q 3034 994 3034 1497 
Q 3034 2003 2786 2293 
Q 2538 2584 2113 2584 
z
M 3366 4563 
L 3366 3988 
Q 3128 4100 2886 4159 
Q 2644 4219 2406 4219 
Q 1781 4219 1451 3797 
Q 1122 3375 1075 2522 
Q 1259 2794 1537 2939 
Q 1816 3084 2150 3084 
Q 2853 3084 3261 2657 
Q 3669 2231 3669 1497 
Q 3669 778 3244 343 
Q 2819 -91 2113 -91 
Q 1303 -91 875 529 
Q 447 1150 447 2328 
Q 447 3434 972 4092 
Q 1497 4750 2381 4750 
Q 2619 4750 2861 4703 
Q 3103 4656 3366 4563 
z
" transform="scale(0.015625)"/>
       </defs>
       <use xlink:href="#DejaVuSans-50"/>
       <use xlink:href="#DejaVuSans-2d" x="58.052734"/>
       <use xlink:href="#DejaVuSans-32" x="94.136719"/>
       <use xlink:href="#DejaVuSans-35" x="157.759766"/>
       <use xlink:href="#DejaVuSans-36" x="221.382812"/>
      </g>
     </g>
    </g>
    <g id="xtick_2">
     <g id="text_2">
      <!-- x25519 -->
      <g style="fill: #262626" transform="translate(246.841378 403.442987) rotate(-15) scale(0.12 -0.12)">
       <defs>
        <path id="DejaVuSans-78" d="M 3513 3500 
L 2247 1797 
L 3578 0 
L 2900 0 
L 1881 1375 
L 863 0 
L 184 0 
L 1544 1831 
L 300 3500 
L 978 3500 
L 1906 2253 
L 2834 3500 
L 3513 3500 
z
" transform="scale(0.015625)"/>
        <path id="DejaVuSans-31" d="M 794 531 
L 1825 531 
L 1825 4091 
L 703 3866 
L 703 4441 
L 1819 4666 
L 2450 4666 
L 2450 531 
L 3481 531 
L 3481 0 
L 794 0 
L 794 531 
z
" transform="scale(0.015625)"/>
        <path id="DejaVuSans-39" d="M 703 97 
L 703 672 
Q 941 559 1184 500 
Q 1428 441 1663 441 
Q 2288 441 2617 861 
Q 2947 1281 2994 2138 
Q 2813 1869 2534 1725 
Q 2256 1581 1919 1581 
Q 1219 1581 811 2004 
Q 403 2428 403 3163 
Q 403 3881 828 4315 
Q 1253 4750 1959 4750 
Q 2769 4750 3195 4129 
Q 3622 3509 3622 2328 
Q 3622 1225 3098 567 
Q 2575 -91 1691 -91 
Q 1453 -91 1209 -44 
Q 966 3 703 97 
z
M 1959 2075 
Q 2384 2075 2632 2365 
Q 2881 2656 2881 3163 
Q 2881 3666 2632 3958 
Q 2384 4250 1959 4250 
Q 1534 4250 1286 3958 
Q 1038 3666 1038 3163 
Q 1038 2656 1286 2365 
Q 1534 2075 1959 2075 
z
" transform="scale(0.015625)"/>
       </defs>
       <use xlink:href="#DejaVuSans-78"/>
       <use xlink:href="#DejaVuSans-32" x="59.179688"/>
       <use xlink:href="#DejaVuSans-35" x="122.802734"/>
       <use xlink:href="#DejaVuSans-35" x="186.425781"/>
       <use xlink:href="#DejaVuSans-31" x="250.048828"/>
       <use xlink:href="#DejaVuSans-39" x="313.671875"/>
      </g>
     </g>
    </g>
    <g id="xtick_3">
     <g id="text_3">
      <!-- hqc128 -->
      <g style="fill: #262626" transform="translate(407.321845 403.300313) rotate(-15) scale(0.12 -0.12)">
       <defs>
        <path id="DejaVuSans-68" d="M 3513 2113 
L 3513 0 
L 2938 0 
L 2938 2094 
Q 2938 2591 2744 2837 
Q 2550 3084 2163 3084 
Q 1697 3084 1428 2787 
Q 1159 2491 1159 1978 
L 1159 0 
L 581 0 
L 581 4863 
L 1159 4863 
L 1159 2956 
Q 1366 3272 1645 3428 
Q 1925 3584 2291 3584 
Q 2894 3584 3203 3211 
Q 3513 2838 3513 2113 
z
" transform="scale(0.015625)"/>
        <path id="DejaVuSans-71" d="M 947 1747 
Q 947 1113 1208 752 
Q 1469 391 1925 391 
Q 2381 391 2643 752 
Q 2906 1113 2906 1747 
Q 2906 2381 2643 2742 
Q 2381 3103 1925 3103 
Q 1469 3103 1208 2742 
Q 947 2381 947 1747 
z
M 2906 525 
Q 2725 213 2448 61 
Q 2172 -91 1784 -91 
Q 1150 -91 751 415 
Q 353 922 353 1747 
Q 353 2572 751 3078 
Q 1150 3584 1784 3584 
Q 2172 3584 2448 3432 
Q 2725 3281 2906 2969 
L 2906 3500 
L 3481 3500 
L 3481 -1331 
L 2906 -1331 
L 2906 525 
z
" transform="scale(0.015625)"/>
        <path id="DejaVuSans-63" d="M 3122 3366 
L 3122 2828 
Q 2878 2963 2633 3030 
Q 2388 3097 2138 3097 
Q 1578 3097 1268 2742 
Q 959 2388 959 1747 
Q 959 1106 1268 751 
Q 1578 397 2138 397 
Q 2388 397 2633 464 
Q 2878 531 3122 666 
L 3122 134 
Q 2881 22 2623 -34 
Q 2366 -91 2075 -91 
Q 1284 -91 818 406 
Q 353 903 353 1747 
Q 353 2603 823 3093 
Q 1294 3584 2113 3584 
Q 2378 3584 2631 3529 
Q 2884 3475 3122 3366 
z
" transform="scale(0.015625)"/>
        <path id="DejaVuSans-38" d="M 2034 2216 
Q 1584 2216 1326 1975 
Q 1069 1734 1069 1313 
Q 1069 891 1326 650 
Q 1584 409 2034 409 
Q 2484 409 2743 651 
Q 3003 894 3003 1313 
Q 3003 1734 2745 1975 
Q 2488 2216 2034 2216 
z
M 1403 2484 
Q 997 2584 770 2862 
Q 544 3141 544 3541 
Q 544 4100 942 4425 
Q 1341 4750 2034 4750 
Q 2731 4750 3128 4425 
Q 3525 4100 3525 3541 
Q 3525 3141 3298 2862 
Q 3072 2584 2669 2484 
Q 3125 2378 3379 2068 
Q 3634 1759 3634 1313 
Q 3634 634 3220 271 
Q 2806 -91 2034 -91 
Q 1263 -91 848 271 
Q 434 634 434 1313 
Q 434 1759 690 2068 
Q 947 2378 1403 2484 
z
M 1172 3481 
Q 1172 3119 1398 2916 
Q 1625 2713 2034 2713 
Q 2441 2713 2670 2916 
Q 2900 3119 2900 3481 
Q 2900 3844 2670 4047 
Q 2441 4250 2034 4250 
Q 1625 4250 1398 4047 
Q 1172 3844 1172 3481 
z
" transform="scale(0.015625)"/>
       </defs>
       <use xlink:href="#DejaVuSans-68"/>
       <use xlink:href="#DejaVuSans-71" x="63.378906"/>
       <use xlink:href="#DejaVuSans-63" x="126.855469"/>
       <use xlink:href="#DejaVuSans-31" x="181.835938"/>
       <use xlink:href="#DejaVuSans-32" x="245.458984"/>
       <use xlink:href="#DejaVuSans-38" x="309.082031"/>
      </g>
     </g>
    </g>
    <g id="xtick_4">
     <g id="text_4">
      <!-- p256_hqc128 -->
      <g style="fill: #262626" transform="translate(531.904834 412.753193) rotate(-15) scale(0.12 -0.12)">
       <defs>
        <path id="DejaVuSans-70" d="M 1159 525 
L 1159 -1331 
L 581 -1331 
L 581 3500 
L 1159 3500 
L 1159 2969 
Q 1341 3281 1617 3432 
Q 1894 3584 2278 3584 
Q 2916 3584 3314 3078 
Q 3713 2572 3713 1747 
Q 3713 922 3314 415 
Q 2916 -91 2278 -91 
Q 1894 -91 1617 61 
Q 1341 213 1159 525 
z
M 3116 1747 
Q 3116 2381 2855 2742 
Q 2594 3103 2138 3103 
Q 1681 3103 1420 2742 
Q 1159 2381 1159 1747 
Q 1159 1113 1420 752 
Q 1681 391 2138 391 
Q 2594 391 2855 752 
Q 3116 1113 3116 1747 
z
" transform="scale(0.015625)"/>
        <path id="DejaVuSans-5f" d="M 3263 -1063 
L 3263 -1509 
L -63 -1509 
L -63 -1063 
L 3263 -1063 
z
" transform="scale(0.015625)"/>
       </defs>
       <use xlink:href="#DejaVuSans-70"/>
       <use xlink:href="#DejaVuSans-32" x="63.476562"/>
       <use xlink:href="#DejaVuSans-35" x="127.099609"/>
       <use xlink:href="#DejaVuSans-36" x="190.722656"/>
       <use xlink:href="#DejaVuSans-5f" x="254.345703"/>
       <use xlink:href="#DejaVuSans-68" x="304.345703"/>
       <use xlink:href="#DejaVuSans-71" x="367.724609"/>
       <use xlink:href="#DejaVuSans-63" x="431.201172"/>
       <use xlink:href="#DejaVuSans-31" x="486.181641"/>
       <use xlink:href="#DejaVuSans-32" x="549.804688"/>
       <use xlink:href="#DejaVuSans-38" x="613.427734"/>
      </g>
     </g>
    </g>
    <g id="xtick_5">
     <g id="text_5">
      <!-- x25519_hqc128 -->
      <g style="fill: #262626" transform="translate(677.601202 416.571906) rotate(-15) scale(0.12 -0.12)">
       <use xlink:href="#DejaVuSans-78"/>
       <use xlink:href="#DejaVuSans-32" x="59.179688"/>
       <use xlink:href="#DejaVuSans-35" x="122.802734"/>
       <use xlink:href="#DejaVuSans-35" x="186.425781"/>
       <use xlink:href="#DejaVuSans-31" x="250.048828"/>
       <use xlink:href="#DejaVuSans-39" x="313.671875"/>
       <use xlink:href="#DejaVuSans-5f" x="377.294922"/>
       <use xlink:href="#DejaVuSans-68" x="427.294922"/>
       <use xlink:href="#DejaVuSans-71" x="490.673828"/>
       <use xlink:href="#DejaVuSans-63" x="554.150391"/>
       <use xlink:href="#DejaVuSans-31" x="609.130859"/>
       <use xlink:href="#DejaVuSans-32" x="672.753906"/>
       <use xlink:href="#DejaVuSans-38" x="736.376953"/>
      </g>
     </g>
    </g>
   </g>
   <g id="matplotlib.axis_2">
    <g id="ytick_1">
     <g id="line2d_1">
      <path d="M 51.3 370.22258 
L 851.04 370.22258 
" clip-path="url(#p11f14f8f67)" style="fill: none; stroke: #cccccc; stroke-linecap: round"/>
     </g>
     <g id="text_6">
      <!-- 0 -->
      <g style="fill: #262626" transform="translate(34.80125 374.40172) scale(0.11 -0.11)">
       <defs>
        <path id="DejaVuSans-30" d="M 2034 4250 
Q 1547 4250 1301 3770 
Q 1056 3291 1056 2328 
Q 1056 1369 1301 889 
Q 1547 409 2034 409 
Q 2525 409 2770 889 
Q 3016 1369 3016 2328 
Q 3016 3291 2770 3770 
Q 2525 4250 2034 4250 
z
M 2034 4750 
Q 2819 4750 3233 4129 
Q 3647 3509 3647 2328 
Q 3647 1150 3233 529 
Q 2819 -91 2034 -91 
Q 1250 -91 836 529 
Q 422 1150 422 2328 
Q 422 3509 836 4129 
Q 1250 4750 2034 4750 
z
" transform="scale(0.015625)"/>
       </defs>
       <use xlink:href="#DejaVuSans-30"/>
      </g>
     </g>
    </g>
    <g id="ytick_2">
     <g id="line2d_2">
      <path d="M 51.3 325.997552 
L 851.04 325.997552 
" clip-path="url(#p11f14f8f67)" style="fill: none; stroke: #cccccc; stroke-linecap: round"/>
     </g>
     <g id="text_7">
      <!-- 5 -->
      <g style="fill: #262626" transform="translate(34.80125 330.176693) scale(0.11 -0.11)">
       <use xlink:href="#DejaVuSans-35"/>
      </g>
     </g>
    </g>
    <g id="ytick_3">
     <g id="line2d_3">
      <path d="M 51.3 281.772525 
L 851.04 281.772525 
" clip-path="url(#p11f14f8f67)" style="fill: none; stroke: #cccccc; stroke-linecap: round"/>
     </g>
     <g id="text_8">
      <!-- 10 -->
      <g style="fill: #262626" transform="translate(27.8025 285.951666) scale(0.11 -0.11)">
       <use xlink:href="#DejaVuSans-31"/>
       <use xlink:href="#DejaVuSans-30" x="63.623047"/>
      </g>
     </g>
    </g>
    <g id="ytick_4">
     <g id="line2d_4">
      <path d="M 51.3 237.547498 
L 851.04 237.547498 
" clip-path="url(#p11f14f8f67)" style="fill: none; stroke: #cccccc; stroke-linecap: round"/>
     </g>
     <g id="text_9">
      <!-- 15 -->
      <g style="fill: #262626" transform="translate(27.8025 241.726639) scale(0.11 -0.11)">
       <use xlink:href="#DejaVuSans-31"/>
       <use xlink:href="#DejaVuSans-35" x="63.623047"/>
      </g>
     </g>
    </g>
    <g id="ytick_5">
     <g id="line2d_5">
      <path d="M 51.3 193.322471 
L 851.04 193.322471 
" clip-path="url(#p11f14f8f67)" style="fill: none; stroke: #cccccc; stroke-linecap: round"/>
     </g>
     <g id="text_10">
      <!-- 20 -->
      <g style="fill: #262626" transform="translate(27.8025 197.501612) scale(0.11 -0.11)">
       <use xlink:href="#DejaVuSans-32"/>
       <use xlink:href="#DejaVuSans-30" x="63.623047"/>
      </g>
     </g>
    </g>
    <g id="ytick_6">
     <g id="line2d_6">
      <path d="M 51.3 149.097444 
L 851.04 149.097444 
" clip-path="url(#p11f14f8f67)" style="fill: none; stroke: #cccccc; stroke-linecap: round"/>
     </g>
     <g id="text_11">
      <!-- 25 -->
      <g style="fill: #262626" transform="translate(27.8025 153.276585) scale(0.11 -0.11)">
       <use xlink:href="#DejaVuSans-32"/>
       <use xlink:href="#DejaVuSans-35" x="63.623047"/>
      </g>
     </g>
    </g>
    <g id="ytick_7">
     <g id="line2d_7">
      <path d="M 51.3 104.872417 
L 851.04 104.872417 
" clip-path="url(#p11f14f8f67)" style="fill: none; stroke: #cccccc; stroke-linecap: round"/>
     </g>
     <g id="text_12">
      <!-- 30 -->
      <g style="fill: #262626" transform="translate(27.8025 109.051558) scale(0.11 -0.11)">
       <defs>
        <path id="DejaVuSans-33" d="M 2597 2516 
Q 3050 2419 3304 2112 
Q 3559 1806 3559 1356 
Q 3559 666 3084 287 
Q 2609 -91 1734 -91 
Q 1441 -91 1130 -33 
Q 819 25 488 141 
L 488 750 
Q 750 597 1062 519 
Q 1375 441 1716 441 
Q 2309 441 2620 675 
Q 2931 909 2931 1356 
Q 2931 1769 2642 2001 
Q 2353 2234 1838 2234 
L 1294 2234 
L 1294 2753 
L 1863 2753 
Q 2328 2753 2575 2939 
Q 2822 3125 2822 3475 
Q 2822 3834 2567 4026 
Q 2313 4219 1838 4219 
Q 1578 4219 1281 4162 
Q 984 4106 628 3988 
L 628 4550 
Q 988 4650 1302 4700 
Q 1616 4750 1894 4750 
Q 2613 4750 3031 4423 
Q 3450 4097 3450 3541 
Q 3450 3153 3228 2886 
Q 3006 2619 2597 2516 
z
" transform="scale(0.015625)"/>
       </defs>
       <use xlink:href="#DejaVuSans-33"/>
       <use xlink:href="#DejaVuSans-30" x="63.623047"/>
      </g>
     </g>
    </g>
    <g id="ytick_8">
     <g id="line2d_8">
      <path d="M 51.3 60.64739 
L 851.04 60.64739 
" clip-path="url(#p11f14f8f67)" style="fill: none; stroke: #cccccc; stroke-linecap: round"/>
     </g>
     <g id="text_13">
      <!-- 35 -->
      <g style="fill: #262626" transform="translate(27.8025 64.826531) scale(0.11 -0.11)">
       <use xlink:href="#DejaVuSans-33"/>
       <use xlink:href="#DejaVuSans-35" x="63.623047"/>
      </g>
     </g>
    </g>
    <g id="text_14">
     <!-- Handshake duration (ms) -->
     <g style="fill: #262626" transform="translate(21.306875 276.57625) rotate(-90) scale(0.12 -0.12)">
      <defs>
       <path id="DejaVuSans-48" d="M 628 4666 
L 1259 4666 
L 1259 2753 
L 3553 2753 
L 3553 4666 
L 4184 4666 
L 4184 0 
L 3553 0 
L 3553 2222 
L 1259 2222 
L 1259 0 
L 628 0 
L 628 4666 
z
" transform="scale(0.015625)"/>
       <path id="DejaVuSans-61" d="M 2194 1759 
Q 1497 1759 1228 1600 
Q 959 1441 959 1056 
Q 959 750 1161 570 
Q 1363 391 1709 391 
Q 2188 391 2477 730 
Q 2766 1069 2766 1631 
L 2766 1759 
L 2194 1759 
z
M 3341 1997 
L 3341 0 
L 2766 0 
L 2766 531 
Q 2569 213 2275 61 
Q 1981 -91 1556 -91 
Q 1019 -91 701 211 
Q 384 513 384 1019 
Q 384 1609 779 1909 
Q 1175 2209 1959 2209 
L 2766 2209 
L 2766 2266 
Q 2766 2663 2505 2880 
Q 2244 3097 1772 3097 
Q 1472 3097 1187 3025 
Q 903 2953 641 2809 
L 641 3341 
Q 956 3463 1253 3523 
Q 1550 3584 1831 3584 
Q 2591 3584 2966 3190 
Q 3341 2797 3341 1997 
z
" transform="scale(0.015625)"/>
       <path id="DejaVuSans-6e" d="M 3513 2113 
L 3513 0 
L 2938 0 
L 2938 2094 
Q 2938 2591 2744 2837 
Q 2550 3084 2163 3084 
Q 1697 3084 1428 2787 
Q 1159 2491 1159 1978 
L 1159 0 
L 581 0 
L 581 3500 
L 1159 3500 
L 1159 2956 
Q 1366 3272 1645 3428 
Q 1925 3584 2291 3584 
Q 2894 3584 3203 3211 
Q 3513 2838 3513 2113 
z
" transform="scale(0.015625)"/>
       <path id="DejaVuSans-64" d="M 2906 2969 
L 2906 4863 
L 3481 4863 
L 3481 0 
L 2906 0 
L 2906 525 
Q 2725 213 2448 61 
Q 2172 -91 1784 -91 
Q 1150 -91 751 415 
Q 353 922 353 1747 
Q 353 2572 751 3078 
Q 1150 3584 1784 3584 
Q 2172 3584 2448 3432 
Q 2725 3281 2906 2969 
z
M 947 1747 
Q 947 1113 1208 752 
Q 1469 391 1925 391 
Q 2381 391 2643 752 
Q 2906 1113 2906 1747 
Q 2906 2381 2643 2742 
Q 2381 3103 1925 3103 
Q 1469 3103 1208 2742 
Q 947 2381 947 1747 
z
" transform="scale(0.015625)"/>
       <path id="DejaVuSans-73" d="M 2834 3397 
L 2834 2853 
Q 2591 2978 2328 3040 
Q 2066 3103 1784 3103 
Q 1356 3103 1142 2972 
Q 928 2841 928 2578 
Q 928 2378 1081 2264 
Q 1234 2150 1697 2047 
L 1894 2003 
Q 2506 1872 2764 1633 
Q 3022 1394 3022 966 
Q 3022 478 2636 193 
Q 2250 -91 1575 -91 
Q 1294 -91 989 -36 
Q 684 19 347 128 
L 347 722 
Q 666 556 975 473 
Q 1284 391 1588 391 
Q 1994 391 2212 530 
Q 2431 669 2431 922 
Q 2431 1156 2273 1281 
Q 2116 1406 1581 1522 
L 1381 1569 
Q 847 1681 609 1914 
Q 372 2147 372 2553 
Q 372 3047 722 3315 
Q 1072 3584 1716 3584 
Q 2034 3584 2315 3537 
Q 2597 3491 2834 3397 
z
" transform="scale(0.015625)"/>
       <path id="DejaVuSans-6b" d="M 581 4863 
L 1159 4863 
L 1159 1991 
L 2875 3500 
L 3609 3500 
L 1753 1863 
L 3688 0 
L 2938 0 
L 1159 1709 
L 1159 0 
L 581 0 
L 581 4863 
z
" transform="scale(0.015625)"/>
       <path id="DejaVuSans-65" d="M 3597 1894 
L 3597 1613 
L 953 1613 
Q 991 1019 1311 708 
Q 1631 397 2203 397 
Q 2534 397 2845 478 
Q 3156 559 3463 722 
L 3463 178 
Q 3153 47 2828 -22 
Q 2503 -91 2169 -91 
Q 1331 -91 842 396 
Q 353 884 353 1716 
Q 353 2575 817 3079 
Q 1281 3584 2069 3584 
Q 2775 3584 3186 3129 
Q 3597 2675 3597 1894 
z
M 3022 2063 
Q 3016 2534 2758 2815 
Q 2500 3097 2075 3097 
Q 1594 3097 1305 2825 
Q 1016 2553 972 2059 
L 3022 2063 
z
" transform="scale(0.015625)"/>
       <path id="DejaVuSans-20" transform="scale(0.015625)"/>
       <path id="DejaVuSans-75" d="M 544 1381 
L 544 3500 
L 1119 3500 
L 1119 1403 
Q 1119 906 1312 657 
Q 1506 409 1894 409 
Q 2359 409 2629 706 
Q 2900 1003 2900 1516 
L 2900 3500 
L 3475 3500 
L 3475 0 
L 2900 0 
L 2900 538 
Q 2691 219 2414 64 
Q 2138 -91 1772 -91 
Q 1169 -91 856 284 
Q 544 659 544 1381 
z
M 1991 3584 
L 1991 3584 
z
" transform="scale(0.015625)"/>
       <path id="DejaVuSans-72" d="M 2631 2963 
Q 2534 3019 2420 3045 
Q 2306 3072 2169 3072 
Q 1681 3072 1420 2755 
Q 1159 2438 1159 1844 
L 1159 0 
L 581 0 
L 581 3500 
L 1159 3500 
L 1159 2956 
Q 1341 3275 1631 3429 
Q 1922 3584 2338 3584 
Q 2397 3584 2469 3576 
Q 2541 3569 2628 3553 
L 2631 2963 
z
" transform="scale(0.015625)"/>
       <path id="DejaVuSans-74" d="M 1172 4494 
L 1172 3500 
L 2356 3500 
L 2356 3053 
L 1172 3053 
L 1172 1153 
Q 1172 725 1289 603 
Q 1406 481 1766 481 
L 2356 481 
L 2356 0 
L 1766 0 
Q 1100 0 847 248 
Q 594 497 594 1153 
L 594 3053 
L 172 3053 
L 172 3500 
L 594 3500 
L 594 4494 
L 1172 4494 
z
" transform="scale(0.015625)"/>
       <path id="DejaVuSans-69" d="M 603 3500 
L 1178 3500 
L 1178 0 
L 603 0 
L 603 3500 
z
M 603 4863 
L 1178 4863 
L 1178 4134 
L 603 4134 
L 603 4863 
z
" transform="scale(0.015625)"/>
       <path id="DejaVuSans-6f" d="M 1959 3097 
Q 1497 3097 1228 2736 
Q 959 2375 959 1747 
Q 959 1119 1226 758 
Q 1494 397 1959 397 
Q 2419 397 2687 759 
Q 2956 1122 2956 1747 
Q 2956 2369 2687 2733 
Q 2419 3097 1959 3097 
z
M 1959 3584 
Q 2709 3584 3137 3096 
Q 3566 2609 3566 1747 
Q 3566 888 3137 398 
Q 2709 -91 1959 -91 
Q 1206 -91 779 398 
Q 353 888 353 1747 
Q 353 2609 779 3096 
Q 1206 3584 1959 3584 
z
" transform="scale(0.015625)"/>
       <path id="DejaVuSans-28" d="M 1984 4856 
Q 1566 4138 1362 3434 
Q 1159 2731 1159 2009 
Q 1159 1288 1364 580 
Q 1569 -128 1984 -844 
L 1484 -844 
Q 1016 -109 783 600 
Q 550 1309 550 2009 
Q 550 2706 781 3412 
Q 1013 4119 1484 4856 
L 1984 4856 
z
" transform="scale(0.015625)"/>
       <path id="DejaVuSans-6d" d="M 3328 2828 
Q 3544 3216 3844 3400 
Q 4144 3584 4550 3584 
Q 5097 3584 5394 3201 
Q 5691 2819 5691 2113 
L 5691 0 
L 5113 0 
L 5113 2094 
Q 5113 2597 4934 2840 
Q 4756 3084 4391 3084 
Q 3944 3084 3684 2787 
Q 3425 2491 3425 1978 
L 3425 0 
L 2847 0 
L 2847 2094 
Q 2847 2600 2669 2842 
Q 2491 3084 2119 3084 
Q 1678 3084 1418 2786 
Q 1159 2488 1159 1978 
L 1159 0 
L 581 0 
L 581 3500 
L 1159 3500 
L 1159 2956 
Q 1356 3278 1631 3431 
Q 1906 3584 2284 3584 
Q 2666 3584 2933 3390 
Q 3200 3197 3328 2828 
z
" transform="scale(0.015625)"/>
       <path id="DejaVuSans-29" d="M 513 4856 
L 1013 4856 
Q 1481 4119 1714 3412 
Q 1947 2706 1947 2009 
Q 1947 1309 1714 600 
Q 1481 -109 1013 -844 
L 513 -844 
Q 928 -128 1133 580 
Q 1338 1288 1338 2009 
Q 1338 2731 1133 3434 
Q 928 4138 513 4856 
z
" transform="scale(0.015625)"/>
      </defs>
      <use xlink:href="#DejaVuSans-48"/>
      <use xlink:href="#DejaVuSans-61" x="75.195312"/>
      <use xlink:href="#DejaVuSans-6e" x="136.474609"/>
      <use xlink:href="#DejaVuSans-64" x="199.853516"/>
      <use xlink:href="#DejaVuSans-73" x="263.330078"/>
      <use xlink:href="#DejaVuSans-68" x="315.429688"/>
      <use xlink:href="#DejaVuSans-61" x="378.808594"/>
      <use xlink:href="#DejaVuSans-6b" x="440.087891"/>
      <use xlink:href="#DejaVuSans-65" x="494.373047"/>
      <use xlink:href="#DejaVuSans-20" x="555.896484"/>
      <use xlink:href="#DejaVuSans-64" x="587.683594"/>
      <use xlink:href="#DejaVuSans-75" x="651.160156"/>
      <use xlink:href="#DejaVuSans-72" x="714.539062"/>
      <use xlink:href="#DejaVuSans-61" x="755.652344"/>
      <use xlink:href="#DejaVuSans-74" x="816.931641"/>
      <use xlink:href="#DejaVuSans-69" x="856.140625"/>
      <use xlink:href="#DejaVuSans-6f" x="883.923828"/>
      <use xlink:href="#DejaVuSans-6e" x="945.105469"/>
      <use xlink:href="#DejaVuSans-20" x="1008.484375"/>
      <use xlink:href="#DejaVuSans-28" x="1040.271484"/>
      <use xlink:href="#DejaVuSans-6d" x="1079.285156"/>
      <use xlink:href="#DejaVuSans-73" x="1176.697266"/>
      <use xlink:href="#DejaVuSans-29" x="1228.796875"/>
     </g>
    </g>
   </g>
   <g id="PolyCollection_1">
    <defs>
     <path id="m8df571e93e" d="M 131.762921 -75.92458 
L 130.785079 -75.92458 
L 130.339489 -76.145357 
L 129.591015 -76.366133 
L 128.409966 -76.58691 
L 126.653313 -76.807686 
L 124.180805 -77.028462 
L 120.873792 -77.249239 
L 116.654302 -77.470015 
L 111.504402 -77.690791 
L 105.487991 -77.911568 
L 98.775662 -78.132344 
L 91.666652 -78.35312 
L 84.593814 -78.573897 
L 78.094774 -78.794673 
L 72.740834 -79.01545 
L 69.033219 -79.236226 
L 67.2948 -79.457002 
L 67.59289 -79.677779 
L 69.719445 -79.898555 
L 73.233958 -80.119331 
L 77.553237 -80.340108 
L 82.061438 -80.560884 
L 86.215177 -80.781661 
L 89.626358 -81.002437 
L 92.112239 -81.223213 
L 93.705914 -81.44399 
L 94.624175 -81.664766 
L 95.197772 -81.885542 
L 95.780592 -82.106319 
L 96.663071 -82.327095 
L 98.014393 -82.547872 
L 99.866651 -82.768648 
L 102.137769 -82.989424 
L 104.677206 -83.210201 
L 107.314664 -83.430977 
L 109.896792 -83.651753 
L 112.305858 -83.87253 
L 114.462799 -84.093306 
L 116.321918 -84.314083 
L 117.864819 -84.534859 
L 119.097727 -84.755635 
L 120.051382 -84.976412 
L 120.779317 -85.197188 
L 121.350481 -85.417964 
L 121.835646 -85.638741 
L 122.291375 -85.859517 
L 122.747852 -86.080294 
L 123.206058 -86.30107 
L 123.64603 -86.521846 
L 124.043028 -86.742623 
L 124.3847 -86.963399 
L 124.681672 -87.184175 
L 124.966881 -87.404952 
L 125.284086 -87.625728 
L 125.670876 -87.846505 
L 126.143691 -88.067281 
L 126.691123 -88.288057 
L 127.27781 -88.508834 
L 127.856672 -88.72961 
L 128.384001 -88.950386 
L 128.831342 -89.171163 
L 129.190077 -89.391939 
L 129.468349 -89.612715 
L 129.683359 -89.833492 
L 129.853623 -90.054268 
L 129.994577 -90.275045 
L 130.118084 -90.495821 
L 130.233839 -90.716597 
L 130.350099 -90.937374 
L 130.472638 -91.15815 
L 130.602844 -91.378926 
L 130.736817 -91.599703 
L 130.866598 -91.820479 
L 130.983126 -92.041256 
L 131.079403 -92.262032 
L 131.152404 -92.482808 
L 131.203176 -92.703585 
L 131.235561 -92.924361 
L 131.25445 -93.145137 
L 131.264335 -93.365914 
L 131.268481 -93.58669 
L 131.268654 -93.807467 
L 131.265161 -94.028243 
L 131.257048 -94.249019 
L 131.242429 -94.469796 
L 131.219072 -94.690572 
L 131.185339 -94.911348 
L 131.141391 -95.132125 
L 131.090248 -95.352901 
L 131.038119 -95.573678 
L 130.993489 -95.794454 
L 130.964966 -96.01523 
L 130.958601 -96.236007 
L 130.975797 -96.456783 
L 131.012807 -96.677559 
L 131.062062 -96.898336 
L 131.114686 -97.119112 
L 131.163058 -97.339889 
L 131.202429 -97.560665 
L 131.231226 -97.781441 
L 131.316774 -97.781441 
L 131.316774 -97.781441 
L 131.345571 -97.560665 
L 131.384942 -97.339889 
L 131.433314 -97.119112 
L 131.485938 -96.898336 
L 131.535193 -96.677559 
L 131.572203 -96.456783 
L 131.589399 -96.236007 
L 131.583034 -96.01523 
L 131.554511 -95.794454 
L 131.509881 -95.573678 
L 131.457752 -95.352901 
L 131.406609 -95.132125 
L 131.362661 -94.911348 
L 131.328928 -94.690572 
L 131.305571 -94.469796 
L 131.290952 -94.249019 
L 131.282839 -94.028243 
L 131.279346 -93.807467 
L 131.279519 -93.58669 
L 131.283665 -93.365914 
L 131.29355 -93.145137 
L 131.312439 -92.924361 
L 131.344824 -92.703585 
L 131.395596 -92.482808 
L 131.468597 -92.262032 
L 131.564874 -92.041256 
L 131.681402 -91.820479 
L 131.811183 -91.599703 
L 131.945156 -91.378926 
L 132.075362 -91.15815 
L 132.197901 -90.937374 
L 132.314161 -90.716597 
L 132.429916 -90.495821 
L 132.553423 -90.275045 
L 132.694377 -90.054268 
L 132.864641 -89.833492 
L 133.079651 -89.612715 
L 133.357923 -89.391939 
L 133.716658 -89.171163 
L 134.163999 -88.950386 
L 134.691328 -88.72961 
L 135.27019 -88.508834 
L 135.856877 -88.288057 
L 136.404309 -88.067281 
L 136.877124 -87.846505 
L 137.263914 -87.625728 
L 137.581119 -87.404952 
L 137.866328 -87.184175 
L 138.1633 -86.963399 
L 138.504972 -86.742623 
L 138.90197 -86.521846 
L 139.341942 -86.30107 
L 139.800148 -86.080294 
L 140.256625 -85.859517 
L 140.712354 -85.638741 
L 141.197519 -85.417964 
L 141.768683 -85.197188 
L 142.496618 -84.976412 
L 143.450273 -84.755635 
L 144.683181 -84.534859 
L 146.226082 -84.314083 
L 148.085201 -84.093306 
L 150.242142 -83.87253 
L 152.651208 -83.651753 
L 155.233336 -83.430977 
L 157.870794 -83.210201 
L 160.410231 -82.989424 
L 162.681349 -82.768648 
L 164.533607 -82.547872 
L 165.884929 -82.327095 
L 166.767408 -82.106319 
L 167.350228 -81.885542 
L 167.923825 -81.664766 
L 168.842086 -81.44399 
L 170.435761 -81.223213 
L 172.921642 -81.002437 
L 176.332823 -80.781661 
L 180.486562 -80.560884 
L 184.994763 -80.340108 
L 189.314042 -80.119331 
L 192.828555 -79.898555 
L 194.95511 -79.677779 
L 195.2532 -79.457002 
L 193.514781 -79.236226 
L 189.807166 -79.01545 
L 184.453226 -78.794673 
L 177.954186 -78.573897 
L 170.881348 -78.35312 
L 163.772338 -78.132344 
L 157.060009 -77.911568 
L 151.043598 -77.690791 
L 145.893698 -77.470015 
L 141.674208 -77.249239 
L 138.367195 -77.028462 
L 135.894687 -76.807686 
L 134.138034 -76.58691 
L 132.956985 -76.366133 
L 132.208511 -76.145357 
L 131.762921 -75.92458 
z
" style="stroke: #595959; stroke-width: 1.25"/>
    </defs>
    <g clip-path="url(#p11f14f8f67)">
     <use xlink:href="#m8df571e93e" x="0" y="432" style="fill: #72b6a1; stroke: #595959; stroke-width: 1.25"/>
    </g>
   </g>
   <g id="PolyCollection_2">
    <defs>
     <path id="m224d1e231d" d="M 291.374057 -74.302074 
L 291.069943 -74.302074 
L 290.9593 -74.459137 
L 290.780879 -74.616201 
L 290.500975 -74.773264 
L 290.073394 -74.930327 
L 289.437151 -75.08739 
L 288.515194 -75.244454 
L 287.215283 -75.401517 
L 285.434306 -75.55858 
L 283.067193 -75.715644 
L 280.020919 -75.872707 
L 276.232845 -76.02977 
L 271.69105 -76.186834 
L 266.452804 -76.343897 
L 260.656479 -76.50096 
L 254.522528 -76.658024 
L 248.340866 -76.815087 
L 242.444764 -76.97215 
L 237.174466 -77.129214 
L 232.836366 -77.286277 
L 229.664881 -77.44334 
L 227.793891 -77.600403 
L 227.2428 -77.757467 
L 227.919511 -77.91453 
L 229.639399 -78.071593 
L 232.15649 -78.228657 
L 235.200965 -78.38572 
L 238.516176 -78.542783 
L 241.888832 -78.699847 
L 245.167745 -78.85691 
L 248.269102 -79.013973 
L 251.169144 -79.171037 
L 253.887609 -79.3281 
L 256.466737 -79.485163 
L 258.950906 -79.642227 
L 261.370965 -79.79929 
L 263.735585 -79.956353 
L 266.029963 -80.113416 
L 268.220519 -80.27048 
L 270.263255 -80.427543 
L 272.113209 -80.584606 
L 273.732944 -80.74167 
L 275.098725 -80.898733 
L 276.203887 -81.055796 
L 277.059367 -81.21286 
L 277.691743 -81.369923 
L 278.139255 -81.526986 
L 278.44649 -81.68405 
L 278.658608 -81.841113 
L 278.81614 -81.998176 
L 278.951301 -82.15524 
L 279.086402 -82.312303 
L 279.234354 -82.469366 
L 279.400693 -82.62643 
L 279.586255 -82.783493 
L 279.789698 -82.940556 
L 280.009425 -83.097619 
L 280.244843 -83.254683 
L 280.497122 -83.411746 
L 280.769543 -83.568809 
L 281.067375 -83.725873 
L 281.397079 -83.882936 
L 281.764771 -84.039999 
L 282.174197 -84.197063 
L 282.6248 -84.354126 
L 283.11059 -84.511189 
L 283.620339 -84.668253 
L 284.139198 -84.825316 
L 284.651339 -84.982379 
L 285.142917 -85.139443 
L 285.604552 -85.296506 
L 286.032722 -85.453569 
L 286.429761 -85.610632 
L 286.802525 -85.767696 
L 287.160091 -85.924759 
L 287.511069 -86.081822 
L 287.861186 -86.238886 
L 288.211713 -86.395949 
L 288.559074 -86.553012 
L 288.895678 -86.710076 
L 289.211703 -86.867139 
L 289.497328 -87.024202 
L 289.744892 -87.181266 
L 289.950474 -87.338329 
L 290.114623 -87.495392 
L 290.242129 -87.652456 
L 290.340977 -87.809519 
L 290.420736 -87.966582 
L 290.490785 -88.123645 
L 290.558741 -88.280709 
L 290.629419 -88.437772 
L 290.704495 -88.594835 
L 290.782865 -88.751899 
L 290.861517 -88.908962 
L 290.936638 -89.066025 
L 291.004657 -89.223089 
L 291.062989 -89.380152 
L 291.110384 -89.537215 
L 291.146897 -89.694279 
L 291.17359 -89.851342 
L 291.27041 -89.851342 
L 291.27041 -89.851342 
L 291.297103 -89.694279 
L 291.333616 -89.537215 
L 291.381011 -89.380152 
L 291.439343 -89.223089 
L 291.507362 -89.066025 
L 291.582483 -88.908962 
L 291.661135 -88.751899 
L 291.739505 -88.594835 
L 291.814581 -88.437772 
L 291.885259 -88.280709 
L 291.953215 -88.123645 
L 292.023264 -87.966582 
L 292.103023 -87.809519 
L 292.201871 -87.652456 
L 292.329377 -87.495392 
L 292.493526 -87.338329 
L 292.699108 -87.181266 
L 292.946672 -87.024202 
L 293.232297 -86.867139 
L 293.548322 -86.710076 
L 293.884926 -86.553012 
L 294.232287 -86.395949 
L 294.582814 -86.238886 
L 294.932931 -86.081822 
L 295.283909 -85.924759 
L 295.641475 -85.767696 
L 296.014239 -85.610632 
L 296.411278 -85.453569 
L 296.839448 -85.296506 
L 297.301083 -85.139443 
L 297.792661 -84.982379 
L 298.304802 -84.825316 
L 298.823661 -84.668253 
L 299.33341 -84.511189 
L 299.8192 -84.354126 
L 300.269803 -84.197063 
L 300.679229 -84.039999 
L 301.046921 -83.882936 
L 301.376625 -83.725873 
L 301.674457 -83.568809 
L 301.946878 -83.411746 
L 302.199157 -83.254683 
L 302.434575 -83.097619 
L 302.654302 -82.940556 
L 302.857745 -82.783493 
L 303.043307 -82.62643 
L 303.209646 -82.469366 
L 303.357598 -82.312303 
L 303.492699 -82.15524 
L 303.62786 -81.998176 
L 303.785392 -81.841113 
L 303.99751 -81.68405 
L 304.304745 -81.526986 
L 304.752257 -81.369923 
L 305.384633 -81.21286 
L 306.240113 -81.055796 
L 307.345275 -80.898733 
L 308.711056 -80.74167 
L 310.330791 -80.584606 
L 312.180745 -80.427543 
L 314.223481 -80.27048 
L 316.414037 -80.113416 
L 318.708415 -79.956353 
L 321.073035 -79.79929 
L 323.493094 -79.642227 
L 325.977263 -79.485163 
L 328.556391 -79.3281 
L 331.274856 -79.171037 
L 334.174898 -79.013973 
L 337.276255 -78.85691 
L 340.555168 -78.699847 
L 343.927824 -78.542783 
L 347.243035 -78.38572 
L 350.28751 -78.228657 
L 352.804601 -78.071593 
L 354.524489 -77.91453 
L 355.2012 -77.757467 
L 354.650109 -77.600403 
L 352.779119 -77.44334 
L 349.607634 -77.286277 
L 345.269534 -77.129214 
L 339.999236 -76.97215 
L 334.103134 -76.815087 
L 327.921472 -76.658024 
L 321.787521 -76.50096 
L 315.991196 -76.343897 
L 310.75295 -76.186834 
L 306.211155 -76.02977 
L 302.423081 -75.872707 
L 299.376807 -75.715644 
L 297.009694 -75.55858 
L 295.228717 -75.401517 
L 293.928806 -75.244454 
L 293.006849 -75.08739 
L 292.370606 -74.930327 
L 291.943025 -74.773264 
L 291.663121 -74.616201 
L 291.4847 -74.459137 
L 291.374057 -74.302074 
z
" style="stroke: #595959; stroke-width: 1.25"/>
    </defs>
    <g clip-path="url(#p11f14f8f67)">
     <use xlink:href="#m224d1e231d" x="0" y="432" style="fill: #e99675; stroke: #595959; stroke-width: 1.25"/>
    </g>
   </g>
   <g id="PolyCollection_3">
    <defs>
     <path id="m7eb93fe9a8" d="M 453.651747 -188.739815 
L 448.688253 -188.739815 
L 447.374588 -189.895181 
L 445.537857 -191.050547 
L 443.059849 -192.205913 
L 439.836744 -193.361279 
L 435.799656 -194.516645 
L 430.937398 -195.672011 
L 425.317699 -196.827377 
L 419.102079 -197.982743 
L 412.549566 -199.138109 
L 406.00561 -200.293475 
L 399.875013 -201.448841 
L 394.580926 -202.604207 
L 390.51537 -203.759573 
L 387.98925 -204.914939 
L 387.1908 -206.070305 
L 388.160265 -207.225671 
L 390.785698 -208.381037 
L 394.820553 -209.536403 
L 399.919458 -210.691769 
L 405.685173 -211.847135 
L 411.718069 -213.002501 
L 417.659804 -214.157868 
L 423.224942 -215.313234 
L 428.217356 -216.4686 
L 432.531558 -217.623966 
L 436.141774 -218.779332 
L 439.083161 -219.934698 
L 441.429976 -221.090064 
L 443.274769 -222.24543 
L 444.711446 -223.400796 
L 445.823499 -224.556162 
L 446.677445 -225.711528 
L 447.320596 -226.866894 
L 447.78194 -228.02226 
L 448.074902 -229.177626 
L 448.201069 -230.332992 
L 448.154334 -231.488358 
L 447.925222 -232.643724 
L 447.505327 -233.79909 
L 446.891748 -234.954456 
L 446.091244 -236.109822 
L 445.123638 -237.265188 
L 444.023812 -238.420554 
L 442.841651 -239.57592 
L 441.63952 -240.731286 
L 440.487212 -241.886652 
L 439.454854 -243.042018 
L 438.604753 -244.197384 
L 437.983503 -245.35275 
L 437.615794 -246.508116 
L 437.501145 -247.663482 
L 437.614308 -248.818848 
L 437.909407 -249.974214 
L 438.327216 -251.12958 
L 438.804356 -252.284946 
L 439.282858 -253.440312 
L 439.718468 -254.595678 
L 440.086323 -255.751044 
L 440.383107 -256.90641 
L 440.625467 -258.061776 
L 440.845115 -259.217142 
L 441.081654 -260.372509 
L 441.374532 -261.527875 
L 441.755605 -262.683241 
L 442.243605 -263.838607 
L 442.841341 -264.993973 
L 443.535884 -266.149339 
L 444.301374 -267.304705 
L 445.103647 -268.460071 
L 445.905627 -269.615437 
L 446.672425 -270.770803 
L 447.375352 -271.926169 
L 447.994361 -273.081535 
L 448.518855 -274.236901 
L 448.947086 -275.392267 
L 449.284581 -276.547633 
L 449.542066 -277.702999 
L 449.733317 -278.858365 
L 449.873245 -280.013731 
L 449.976367 -281.169097 
L 450.05572 -282.324463 
L 450.122175 -283.479829 
L 450.1841 -284.635195 
L 450.247285 -285.790561 
L 450.315086 -286.945927 
L 450.388723 -288.101293 
L 450.467696 -289.256659 
L 450.550267 -290.412025 
L 450.633966 -291.567391 
L 450.716057 -292.722757 
L 450.793944 -293.878123 
L 450.865463 -295.033489 
L 450.929061 -296.188855 
L 450.983869 -297.344221 
L 451.029668 -298.499587 
L 451.066792 -299.654953 
L 451.095992 -300.810319 
L 451.118282 -301.965685 
L 451.134795 -303.121051 
L 451.205205 -303.121051 
L 451.205205 -303.121051 
L 451.221718 -301.965685 
L 451.244008 -300.810319 
L 451.273208 -299.654953 
L 451.310332 -298.499587 
L 451.356131 -297.344221 
L 451.410939 -296.188855 
L 451.474537 -295.033489 
L 451.546056 -293.878123 
L 451.623943 -292.722757 
L 451.706034 -291.567391 
L 451.789733 -290.412025 
L 451.872304 -289.256659 
L 451.951277 -288.101293 
L 452.024914 -286.945927 
L 452.092715 -285.790561 
L 452.1559 -284.635195 
L 452.217825 -283.479829 
L 452.28428 -282.324463 
L 452.363633 -281.169097 
L 452.466755 -280.013731 
L 452.606683 -278.858365 
L 452.797934 -277.702999 
L 453.055419 -276.547633 
L 453.392914 -275.392267 
L 453.821145 -274.236901 
L 454.345639 -273.081535 
L 454.964648 -271.926169 
L 455.667575 -270.770803 
L 456.434373 -269.615437 
L 457.236353 -268.460071 
L 458.038626 -267.304705 
L 458.804116 -266.149339 
L 459.498659 -264.993973 
L 460.096395 -263.838607 
L 460.584395 -262.683241 
L 460.965468 -261.527875 
L 461.258346 -260.372509 
L 461.494885 -259.217142 
L 461.714533 -258.061776 
L 461.956893 -256.90641 
L 462.253677 -255.751044 
L 462.621532 -254.595678 
L 463.057142 -253.440312 
L 463.535644 -252.284946 
L 464.012784 -251.12958 
L 464.430593 -249.974214 
L 464.725692 -248.818848 
L 464.838855 -247.663482 
L 464.724206 -246.508116 
L 464.356497 -245.35275 
L 463.735247 -244.197384 
L 462.885146 -243.042018 
L 461.852788 -241.886652 
L 460.70048 -240.731286 
L 459.498349 -239.57592 
L 458.316188 -238.420554 
L 457.216362 -237.265188 
L 456.248756 -236.109822 
L 455.448252 -234.954456 
L 454.834673 -233.79909 
L 454.414778 -232.643724 
L 454.185666 -231.488358 
L 454.138931 -230.332992 
L 454.265098 -229.177626 
L 454.55806 -228.02226 
L 455.019404 -226.866894 
L 455.662555 -225.711528 
L 456.516501 -224.556162 
L 457.628554 -223.400796 
L 459.065231 -222.24543 
L 460.910024 -221.090064 
L 463.256839 -219.934698 
L 466.198226 -218.779332 
L 469.808442 -217.623966 
L 474.122644 -216.4686 
L 479.115058 -215.313234 
L 484.680196 -214.157868 
L 490.621931 -213.002501 
L 496.654827 -211.847135 
L 502.420542 -210.691769 
L 507.519447 -209.536403 
L 511.554302 -208.381037 
L 514.179735 -207.225671 
L 515.1492 -206.070305 
L 514.35075 -204.914939 
L 511.82463 -203.759573 
L 507.759074 -202.604207 
L 502.464987 -201.448841 
L 496.33439 -200.293475 
L 489.790434 -199.138109 
L 483.237921 -197.982743 
L 477.022301 -196.827377 
L 471.402602 -195.672011 
L 466.540344 -194.516645 
L 462.503256 -193.361279 
L 459.280151 -192.205913 
L 456.802143 -191.050547 
L 454.965412 -189.895181 
L 453.651747 -188.739815 
z
" style="stroke: #595959; stroke-width: 1.25"/>
    </defs>
    <g clip-path="url(#p11f14f8f67)">
     <use xlink:href="#m7eb93fe9a8" x="0" y="432" style="fill: #95a3c3; stroke: #595959; stroke-width: 1.25"/>
    </g>
   </g>
   <g id="PolyCollection_4">
    <defs>
     <path id="m1eb91a861c" d="M 612.932307 -241.25035 
L 609.303693 -241.25035 
L 608.494392 -242.739549 
L 607.402055 -244.228748 
L 605.962656 -245.717947 
L 604.111479 -247.207146 
L 601.788802 -248.696345 
L 598.946991 -250.185544 
L 595.558511 -251.674743 
L 591.624061 -253.163942 
L 587.179799 -254.653141 
L 582.302473 -256.14234 
L 577.111349 -257.631539 
L 571.76605 -259.120738 
L 566.45985 -260.609937 
L 561.408586 -262.099136 
L 556.835965 -263.588335 
L 552.956649 -265.077534 
L 549.95894 -266.566733 
L 547.989046 -268.055932 
L 547.1388 -269.545131 
L 547.438286 -271.03433 
L 548.854186 -272.523529 
L 551.293914 -274.012728 
L 554.614863 -275.501927 
L 558.637474 -276.991126 
L 563.160485 -278.480325 
L 567.976539 -279.969524 
L 572.886549 -281.458723 
L 577.711493 -282.947922 
L 582.300841 -284.437121 
L 586.537307 -285.92632 
L 590.338099 -287.415519 
L 593.653227 -288.904718 
L 596.461639 -290.393917 
L 598.766071 -291.883116 
L 600.587464 -293.372315 
L 601.959628 -294.861514 
L 602.92469 -296.350713 
L 603.529572 -297.839912 
L 603.823581 -299.329111 
L 603.85697 -300.81831 
L 603.680218 -302.307509 
L 603.34369 -303.796708 
L 602.897374 -305.285907 
L 602.390407 -306.775106 
L 601.870226 -308.264305 
L 601.381314 -309.753504 
L 600.963608 -311.242703 
L 600.650754 -312.731902 
L 600.468453 -314.221101 
L 600.433158 -315.7103 
L 600.551332 -317.199499 
L 600.819436 -318.688698 
L 601.224672 -320.177897 
L 601.746441 -321.667096 
L 602.358345 -323.156295 
L 603.030518 -324.645494 
L 603.732017 -326.134693 
L 604.433012 -327.623892 
L 605.106554 -329.113091 
L 605.729767 -330.60229 
L 606.284389 -332.091489 
L 606.756697 -333.580688 
L 607.136897 -335.069887 
L 607.418179 -336.559086 
L 607.595638 -338.048285 
L 607.665311 -339.537484 
L 607.623528 -341.026683 
L 607.46676 -342.515882 
L 607.192052 -344.005081 
L 606.798024 -345.49428 
L 606.286337 -346.983479 
L 605.663394 -348.472678 
L 604.942 -349.961877 
L 604.142614 -351.451076 
L 603.293887 -352.940275 
L 602.43222 -354.429474 
L 601.60019 -355.918673 
L 600.843909 -357.407872 
L 600.209492 -358.897071 
L 599.739052 -360.38627 
L 599.466692 -361.875469 
L 599.41507 -363.364668 
L 599.59299 -364.853867 
L 599.994423 -366.343066 
L 600.599068 -367.832265 
L 601.374417 -369.321464 
L 602.279008 -370.810663 
L 603.266415 -372.299862 
L 604.289452 -373.789061 
L 605.30405 -375.27826 
L 606.272381 -376.767459 
L 607.164962 -378.256658 
L 607.961613 -379.745857 
L 608.651368 -381.235056 
L 609.231514 -382.724255 
L 609.706044 -384.213454 
L 610.08383 -385.702653 
L 610.37677 -387.191852 
L 610.598133 -388.681051 
L 611.637867 -388.681051 
L 611.637867 -388.681051 
L 611.85923 -387.191852 
L 612.15217 -385.702653 
L 612.529956 -384.213454 
L 613.004486 -382.724255 
L 613.584632 -381.235056 
L 614.274387 -379.745857 
L 615.071038 -378.256658 
L 615.963619 -376.767459 
L 616.93195 -375.27826 
L 617.946548 -373.789061 
L 618.969585 -372.299862 
L 619.956992 -370.810663 
L 620.861583 -369.321464 
L 621.636932 -367.832265 
L 622.241577 -366.343066 
L 622.64301 -364.853867 
L 622.82093 -363.364668 
L 622.769308 -361.875469 
L 622.496948 -360.38627 
L 622.026508 -358.897071 
L 621.392091 -357.407872 
L 620.63581 -355.918673 
L 619.80378 -354.429474 
L 618.942113 -352.940275 
L 618.093386 -351.451076 
L 617.294 -349.961877 
L 616.572606 -348.472678 
L 615.949663 -346.983479 
L 615.437976 -345.49428 
L 615.043948 -344.005081 
L 614.76924 -342.515882 
L 614.612472 -341.026683 
L 614.570689 -339.537484 
L 614.640362 -338.048285 
L 614.817821 -336.559086 
L 615.099103 -335.069887 
L 615.479303 -333.580688 
L 615.951611 -332.091489 
L 616.506233 -330.60229 
L 617.129446 -329.113091 
L 617.802988 -327.623892 
L 618.503983 -326.134693 
L 619.205482 -324.645494 
L 619.877655 -323.156295 
L 620.489559 -321.667096 
L 621.011328 -320.177897 
L 621.416564 -318.688698 
L 621.684668 -317.199499 
L 621.802842 -315.7103 
L 621.767547 -314.221101 
L 621.585246 -312.731902 
L 621.272392 -311.242703 
L 620.854686 -309.753504 
L 620.365774 -308.264305 
L 619.845593 -306.775106 
L 619.338626 -305.285907 
L 618.89231 -303.796708 
L 618.555782 -302.307509 
L 618.37903 -300.81831 
L 618.412419 -299.329111 
L 618.706428 -297.839912 
L 619.31131 -296.350713 
L 620.276372 -294.861514 
L 621.648536 -293.372315 
L 623.469929 -291.883116 
L 625.774361 -290.393917 
L 628.582773 -288.904718 
L 631.897901 -287.415519 
L 635.698693 -285.92632 
L 639.935159 -284.437121 
L 644.524507 -282.947922 
L 649.349451 -281.458723 
L 654.259461 -279.969524 
L 659.075515 -278.480325 
L 663.598526 -276.991126 
L 667.621137 -275.501927 
L 670.942086 -274.012728 
L 673.381814 -272.523529 
L 674.797714 -271.03433 
L 675.0972 -269.545131 
L 674.246954 -268.055932 
L 672.27706 -266.566733 
L 669.279351 -265.077534 
L 665.400035 -263.588335 
L 660.827414 -262.099136 
L 655.77615 -260.609937 
L 650.46995 -259.120738 
L 645.124651 -257.631539 
L 639.933527 -256.14234 
L 635.056201 -254.653141 
L 630.611939 -253.163942 
L 626.677489 -251.674743 
L 623.289009 -250.185544 
L 620.447198 -248.696345 
L 618.124521 -247.207146 
L 616.273344 -245.717947 
L 614.833945 -244.228748 
L 613.741608 -242.739549 
L 612.932307 -241.25035 
z
" style="stroke: #595959; stroke-width: 1.25"/>
    </defs>
    <g clip-path="url(#p11f14f8f67)">
     <use xlink:href="#m1eb91a861c" x="0" y="432" style="fill: #db96c0; stroke: #595959; stroke-width: 1.25"/>
    </g>
   </g>
   <g id="PolyCollection_5">
    <defs>
     <path id="m5c1b1ba440" d="M 772.697381 -200.245207 
L 769.434619 -200.245207 
L 768.318048 -201.648809 
L 766.622256 -203.052411 
L 764.166176 -204.456013 
L 760.777608 -205.859615 
L 756.330729 -207.263216 
L 750.790955 -208.666818 
L 744.258051 -210.07042 
L 736.995073 -211.474022 
L 729.430667 -212.877624 
L 722.126498 -214.281226 
L 715.709815 -215.684827 
L 710.781308 -217.088429 
L 707.817014 -218.492031 
L 707.0868 -219.895633 
L 708.609115 -221.299235 
L 712.152674 -222.702836 
L 717.283619 -224.106438 
L 723.445384 -225.51004 
L 730.051555 -226.913642 
L 736.571234 -228.317244 
L 742.591091 -229.720846 
L 747.846281 -231.124447 
L 752.22065 -232.528049 
L 755.723032 -233.931651 
L 758.449608 -235.335253 
L 760.542509 -236.738855 
L 762.152819 -238.142457 
L 763.413097 -239.546058 
L 764.421411 -240.94966 
L 765.236314 -242.353262 
L 765.880542 -243.756864 
L 766.350457 -245.160466 
L 766.628248 -246.564068 
L 766.694441 -247.967669 
L 766.53886 -249.371271 
L 766.168812 -250.774873 
L 765.613675 -252.178475 
L 764.925363 -253.582077 
L 764.174542 -254.985679 
L 763.442938 -256.38928 
L 762.81278 -257.792882 
L 762.355024 -259.196484 
L 762.118436 -260.600086 
L 762.121571 -262.003688 
L 762.349207 -263.40729 
L 762.75396 -264.810891 
L 763.262882 -266.214493 
L 763.788032 -267.618095 
L 764.239467 -269.021697 
L 764.538811 -270.425299 
L 764.631526 -271.828901 
L 764.49608 -273.232502 
L 764.148492 -274.636104 
L 763.641215 -276.039706 
L 763.0561 -277.443308 
L 762.492207 -278.84691 
L 762.05032 -280.250511 
L 761.816906 -281.654113 
L 761.850562 -283.057715 
L 762.173592 -284.461317 
L 762.770281 -285.864919 
L 763.591875 -287.268521 
L 764.566831 -288.672122 
L 765.613794 -290.075724 
L 766.654454 -291.479326 
L 767.623803 -292.882928 
L 768.476308 -294.28653 
L 769.187637 -295.690132 
L 769.75263 -297.093733 
L 770.180812 -298.497335 
L 770.490946 -299.900937 
L 770.705873 -301.304539 
L 770.848448 -302.708141 
L 770.938907 -304.111743 
L 770.993563 -305.515344 
L 771.024556 -306.918946 
L 771.040243 -308.322548 
L 771.045918 -309.72615 
L 771.044613 -311.129752 
L 771.037844 -312.533354 
L 771.026273 -313.936955 
L 771.010246 -315.340557 
L 770.990238 -316.744159 
L 770.967163 -318.147761 
L 770.94253 -319.551363 
L 770.918415 -320.954965 
L 770.897245 -322.358566 
L 770.881426 -323.762168 
L 770.872901 -325.16577 
L 770.872769 -326.569372 
L 770.881046 -327.972974 
L 770.896668 -329.376576 
L 770.917712 -330.780177 
L 770.94179 -332.183779 
L 770.966482 -333.587381 
L 770.989734 -334.990983 
L 771.010095 -336.394585 
L 771.026803 -337.798186 
L 771.039712 -339.201788 
L 771.092288 -339.201788 
L 771.092288 -339.201788 
L 771.105197 -337.798186 
L 771.121905 -336.394585 
L 771.142266 -334.990983 
L 771.165518 -333.587381 
L 771.19021 -332.183779 
L 771.214288 -330.780177 
L 771.235332 -329.376576 
L 771.250954 -327.972974 
L 771.259231 -326.569372 
L 771.259099 -325.16577 
L 771.250574 -323.762168 
L 771.234755 -322.358566 
L 771.213585 -320.954965 
L 771.18947 -319.551363 
L 771.164837 -318.147761 
L 771.141762 -316.744159 
L 771.121754 -315.340557 
L 771.105727 -313.936955 
L 771.094156 -312.533354 
L 771.087387 -311.129752 
L 771.086082 -309.72615 
L 771.091757 -308.322548 
L 771.107444 -306.918946 
L 771.138437 -305.515344 
L 771.193093 -304.111743 
L 771.283552 -302.708141 
L 771.426127 -301.304539 
L 771.641054 -299.900937 
L 771.951188 -298.497335 
L 772.37937 -297.093733 
L 772.944363 -295.690132 
L 773.655692 -294.28653 
L 774.508197 -292.882928 
L 775.477546 -291.479326 
L 776.518206 -290.075724 
L 777.565169 -288.672122 
L 778.540125 -287.268521 
L 779.361719 -285.864919 
L 779.958408 -284.461317 
L 780.281438 -283.057715 
L 780.315094 -281.654113 
L 780.08168 -280.250511 
L 779.639793 -278.84691 
L 779.0759 -277.443308 
L 778.490785 -276.039706 
L 777.983508 -274.636104 
L 777.63592 -273.232502 
L 777.500474 -271.828901 
L 777.593189 -270.425299 
L 777.892533 -269.021697 
L 778.343968 -267.618095 
L 778.869118 -266.214493 
L 779.37804 -264.810891 
L 779.782793 -263.40729 
L 780.010429 -262.003688 
L 780.013564 -260.600086 
L 779.776976 -259.196484 
L 779.31922 -257.792882 
L 778.689062 -256.38928 
L 777.957458 -254.985679 
L 777.206637 -253.582077 
L 776.518325 -252.178475 
L 775.963188 -250.774873 
L 775.59314 -249.371271 
L 775.437559 -247.967669 
L 775.503752 -246.564068 
L 775.781543 -245.160466 
L 776.251458 -243.756864 
L 776.895686 -242.353262 
L 777.710589 -240.94966 
L 778.718903 -239.546058 
L 779.979181 -238.142457 
L 781.589491 -236.738855 
L 783.682392 -235.335253 
L 786.408968 -233.931651 
L 789.91135 -232.528049 
L 794.285719 -231.124447 
L 799.540909 -229.720846 
L 805.560766 -228.317244 
L 812.080445 -226.913642 
L 818.686616 -225.51004 
L 824.848381 -224.106438 
L 829.979326 -222.702836 
L 833.522885 -221.299235 
L 835.0452 -219.895633 
L 834.314986 -218.492031 
L 831.350692 -217.088429 
L 826.422185 -215.684827 
L 820.005502 -214.281226 
L 812.701333 -212.877624 
L 805.136927 -211.474022 
L 797.873949 -210.07042 
L 791.341045 -208.666818 
L 785.801271 -207.263216 
L 781.354392 -205.859615 
L 777.965824 -204.456013 
L 775.509744 -203.052411 
L 773.813952 -201.648809 
L 772.697381 -200.245207 
z
" style="stroke: #595959; stroke-width: 1.25"/>
    </defs>
    <g clip-path="url(#p11f14f8f67)">
     <use xlink:href="#m5c1b1ba440" x="0" y="432" style="fill: #a2c865; stroke: #595959; stroke-width: 1.25"/>
    </g>
   </g>
   <g id="line2d_9">
    <path d="M 131.274 352.709469 
L 131.274 354.47847 
" clip-path="url(#p11f14f8f67)" style="fill: none; stroke: #000000"/>
   </g>
   <g id="line2d_10">
    <path d="M 131.274 349.436817 
L 131.274 344.572064 
" clip-path="url(#p11f14f8f67)" style="fill: none; stroke: #000000"/>
   </g>
   <g id="line2d_11">
    <path d="M 125.27595 354.47847 
L 137.27205 354.47847 
" clip-path="url(#p11f14f8f67)" style="fill: none; stroke: #000000; stroke-linecap: round"/>
   </g>
   <g id="line2d_12">
    <path d="M 125.27595 344.572064 
L 137.27205 344.572064 
" clip-path="url(#p11f14f8f67)" style="fill: none; stroke: #000000; stroke-linecap: round"/>
   </g>
   <g id="line2d_13">
    <path d="M 291.222 354.47847 
L 291.222 356.247471 
" clip-path="url(#p11f14f8f67)" style="fill: none; stroke: #000000"/>
   </g>
   <g id="line2d_14">
    <path d="M 291.222 351.824968 
L 291.222 347.844716 
" clip-path="url(#p11f14f8f67)" style="fill: none; stroke: #000000"/>
   </g>
   <g id="line2d_15">
    <path d="M 285.22395 356.247471 
L 297.22005 356.247471 
" clip-path="url(#p11f14f8f67)" style="fill: none; stroke: #000000; stroke-linecap: round"/>
   </g>
   <g id="line2d_16">
    <path d="M 285.22395 347.844716 
L 297.22005 347.844716 
" clip-path="url(#p11f14f8f67)" style="fill: none; stroke: #000000; stroke-linecap: round"/>
   </g>
   <g id="line2d_17">
    <path d="M 451.17 227.110392 
L 451.17 230.294594 
" clip-path="url(#p11f14f8f67)" style="fill: none; stroke: #000000"/>
   </g>
   <g id="line2d_18">
    <path d="M 451.17 189.740244 
L 451.17 141.84454 
" clip-path="url(#p11f14f8f67)" style="fill: none; stroke: #000000"/>
   </g>
   <g id="line2d_19">
    <path d="M 445.17195 230.294594 
L 457.16805 230.294594 
" clip-path="url(#p11f14f8f67)" style="fill: none; stroke: #000000; stroke-linecap: round"/>
   </g>
   <g id="line2d_20">
    <path d="M 445.17195 141.84454 
L 457.16805 141.84454 
" clip-path="url(#p11f14f8f67)" style="fill: none; stroke: #000000; stroke-linecap: round"/>
   </g>
   <g id="line2d_21">
    <path d="M 611.118 164.509866 
L 611.118 171.033058 
" clip-path="url(#p11f14f8f67)" style="fill: none; stroke: #000000"/>
   </g>
   <g id="line2d_22">
    <path d="M 611.118 124.176641 
L 611.118 63.743142 
" clip-path="url(#p11f14f8f67)" style="fill: none; stroke: #000000"/>
   </g>
   <g id="line2d_23">
    <path d="M 605.11995 171.033058 
L 617.11605 171.033058 
" clip-path="url(#p11f14f8f67)" style="fill: none; stroke: #000000; stroke-linecap: round"/>
   </g>
   <g id="line2d_24">
    <path d="M 605.11995 63.743142 
L 617.11605 63.743142 
" clip-path="url(#p11f14f8f67)" style="fill: none; stroke: #000000; stroke-linecap: round"/>
   </g>
   <g id="line2d_25">
    <path d="M 771.066 213.931334 
L 771.066 218.442287 
" clip-path="url(#p11f14f8f67)" style="fill: none; stroke: #000000"/>
   </g>
   <g id="line2d_26">
    <path d="M 771.066 194.89246 
L 771.066 166.345205 
" clip-path="url(#p11f14f8f67)" style="fill: none; stroke: #000000"/>
   </g>
   <g id="line2d_27">
    <path d="M 765.06795 218.442287 
L 777.06405 218.442287 
" clip-path="url(#p11f14f8f67)" style="fill: none; stroke: #000000; stroke-linecap: round"/>
   </g>
   <g id="line2d_28">
    <path d="M 765.06795 166.345205 
L 777.06405 166.345205 
" clip-path="url(#p11f14f8f67)" style="fill: none; stroke: #000000; stroke-linecap: round"/>
   </g>
   <g id="line2d_29">
    <path d="M 119.2779 351.559618 
L 143.2701 351.559618 
" clip-path="url(#p11f14f8f67)" style="fill: none; stroke: #ff0000; stroke-width: 2"/>
   </g>
   <g id="line2d_30">
    <path d="M 279.2259 353.593969 
L 303.2181 353.593969 
" clip-path="url(#p11f14f8f67)" style="fill: none; stroke: #ff0000; stroke-width: 2"/>
   </g>
   <g id="line2d_31">
    <path d="M 439.1739 225.031816 
L 463.1661 225.031816 
" clip-path="url(#p11f14f8f67)" style="fill: none; stroke: #ff0000; stroke-width: 2"/>
   </g>
   <g id="line2d_32">
    <path d="M 599.1219 159.623001 
L 623.1141 159.623001 
" clip-path="url(#p11f14f8f67)" style="fill: none; stroke: #ff0000; stroke-width: 2"/>
   </g>
   <g id="line2d_33">
    <path d="M 759.0699 211.145157 
L 783.0621 211.145157 
" clip-path="url(#p11f14f8f67)" style="fill: none; stroke: #ff0000; stroke-width: 2"/>
   </g>
   <g id="patch_3">
    <path d="M 51.3 373.416875 
L 51.3 27.6 
" style="fill: none; stroke: #cccccc; stroke-width: 1.25; stroke-linejoin: miter; stroke-linecap: square"/>
   </g>
   <g id="patch_4">
    <path d="M 851.04 373.416875 
L 851.04 27.6 
" style="fill: none; stroke: #cccccc; stroke-width: 1.25; stroke-linejoin: miter; stroke-linecap: square"/>
   </g>
   <g id="patch_5">
    <path d="M 51.3 373.416875 
L 851.04 373.416875 
" style="fill: none; stroke: #cccccc; stroke-width: 1.25; stroke-linejoin: miter; stroke-linecap: square"/>
   </g>
   <g id="patch_6">
    <path d="M 51.3 27.6 
L 851.04 27.6 
" style="fill: none; stroke: #cccccc; stroke-width: 1.25; stroke-linejoin: miter; stroke-linecap: square"/>
   </g>
   <g id="text_15">
    <!-- Handshake duration on QUIC with mldsa44 signature algorithm — ideal conditions -->
    <g style="fill: #262626" transform="translate(203.870625 21.6) scale(0.12 -0.12)">
     <defs>
      <path id="DejaVuSans-51" d="M 2522 4238 
Q 1834 4238 1429 3725 
Q 1025 3213 1025 2328 
Q 1025 1447 1429 934 
Q 1834 422 2522 422 
Q 3209 422 3611 934 
Q 4013 1447 4013 2328 
Q 4013 3213 3611 3725 
Q 3209 4238 2522 4238 
z
M 3406 84 
L 4238 -825 
L 3475 -825 
L 2784 -78 
Q 2681 -84 2626 -87 
Q 2572 -91 2522 -91 
Q 1538 -91 948 567 
Q 359 1225 359 2328 
Q 359 3434 948 4092 
Q 1538 4750 2522 4750 
Q 3503 4750 4090 4092 
Q 4678 3434 4678 2328 
Q 4678 1516 4351 937 
Q 4025 359 3406 84 
z
" transform="scale(0.015625)"/>
      <path id="DejaVuSans-55" d="M 556 4666 
L 1191 4666 
L 1191 1831 
Q 1191 1081 1462 751 
Q 1734 422 2344 422 
Q 2950 422 3222 751 
Q 3494 1081 3494 1831 
L 3494 4666 
L 4128 4666 
L 4128 1753 
Q 4128 841 3676 375 
Q 3225 -91 2344 -91 
Q 1459 -91 1007 375 
Q 556 841 556 1753 
L 556 4666 
z
" transform="scale(0.015625)"/>
      <path id="DejaVuSans-49" d="M 628 4666 
L 1259 4666 
L 1259 0 
L 628 0 
L 628 4666 
z
" transform="scale(0.015625)"/>
      <path id="DejaVuSans-43" d="M 4122 4306 
L 4122 3641 
Q 3803 3938 3442 4084 
Q 3081 4231 2675 4231 
Q 1875 4231 1450 3742 
Q 1025 3253 1025 2328 
Q 1025 1406 1450 917 
Q 1875 428 2675 428 
Q 3081 428 3442 575 
Q 3803 722 4122 1019 
L 4122 359 
Q 3791 134 3420 21 
Q 3050 -91 2638 -91 
Q 1578 -91 968 557 
Q 359 1206 359 2328 
Q 359 3453 968 4101 
Q 1578 4750 2638 4750 
Q 3056 4750 3426 4639 
Q 3797 4528 4122 4306 
z
" transform="scale(0.015625)"/>
      <path id="DejaVuSans-77" d="M 269 3500 
L 844 3500 
L 1563 769 
L 2278 3500 
L 2956 3500 
L 3675 769 
L 4391 3500 
L 4966 3500 
L 4050 0 
L 3372 0 
L 2619 2869 
L 1863 0 
L 1184 0 
L 269 3500 
z
" transform="scale(0.015625)"/>
      <path id="DejaVuSans-6c" d="M 603 4863 
L 1178 4863 
L 1178 0 
L 603 0 
L 603 4863 
z
" transform="scale(0.015625)"/>
      <path id="DejaVuSans-34" d="M 2419 4116 
L 825 1625 
L 2419 1625 
L 2419 4116 
z
M 2253 4666 
L 3047 4666 
L 3047 1625 
L 3713 1625 
L 3713 1100 
L 3047 1100 
L 3047 0 
L 2419 0 
L 2419 1100 
L 313 1100 
L 313 1709 
L 2253 4666 
z
" transform="scale(0.015625)"/>
      <path id="DejaVuSans-67" d="M 2906 1791 
Q 2906 2416 2648 2759 
Q 2391 3103 1925 3103 
Q 1463 3103 1205 2759 
Q 947 2416 947 1791 
Q 947 1169 1205 825 
Q 1463 481 1925 481 
Q 2391 481 2648 825 
Q 2906 1169 2906 1791 
z
M 3481 434 
Q 3481 -459 3084 -895 
Q 2688 -1331 1869 -1331 
Q 1566 -1331 1297 -1286 
Q 1028 -1241 775 -1147 
L 775 -588 
Q 1028 -725 1275 -790 
Q 1522 -856 1778 -856 
Q 2344 -856 2625 -561 
Q 2906 -266 2906 331 
L 2906 616 
Q 2728 306 2450 153 
Q 2172 0 1784 0 
Q 1141 0 747 490 
Q 353 981 353 1791 
Q 353 2603 747 3093 
Q 1141 3584 1784 3584 
Q 2172 3584 2450 3431 
Q 2728 3278 2906 2969 
L 2906 3500 
L 3481 3500 
L 3481 434 
z
" transform="scale(0.015625)"/>
      <path id="DejaVuSans-2014" d="M 313 1978 
L 6088 1978 
L 6088 1528 
L 313 1528 
L 313 1978 
z
" transform="scale(0.015625)"/>
     </defs>
     <use xlink:href="#DejaVuSans-48"/>
     <use xlink:href="#DejaVuSans-61" x="75.195312"/>
     <use xlink:href="#DejaVuSans-6e" x="136.474609"/>
     <use xlink:href="#DejaVuSans-64" x="199.853516"/>
     <use xlink:href="#DejaVuSans-73" x="263.330078"/>
     <use xlink:href="#DejaVuSans-68" x="315.429688"/>
     <use xlink:href="#DejaVuSans-61" x="378.808594"/>
     <use xlink:href="#DejaVuSans-6b" x="440.087891"/>
     <use xlink:href="#DejaVuSans-65" x="494.373047"/>
     <use xlink:href="#DejaVuSans-20" x="555.896484"/>
     <use xlink:href="#DejaVuSans-64" x="587.683594"/>
     <use xlink:href="#DejaVuSans-75" x="651.160156"/>
     <use xlink:href="#DejaVuSans-72" x="714.539062"/>
     <use xlink:href="#DejaVuSans-61" x="755.652344"/>
     <use xlink:href="#DejaVuSans-74" x="816.931641"/>
     <use xlink:href="#DejaVuSans-69" x="856.140625"/>
     <use xlink:href="#DejaVuSans-6f" x="883.923828"/>
     <use xlink:href="#DejaVuSans-6e" x="945.105469"/>
     <use xlink:href="#DejaVuSans-20" x="1008.484375"/>
     <use xlink:href="#DejaVuSans-6f" x="1040.271484"/>
     <use xlink:href="#DejaVuSans-6e" x="1101.453125"/>
     <use xlink:href="#DejaVuSans-20" x="1164.832031"/>
     <use xlink:href="#DejaVuSans-51" x="1196.619141"/>
     <use xlink:href="#DejaVuSans-55" x="1275.330078"/>
     <use xlink:href="#DejaVuSans-49" x="1348.523438"/>
     <use xlink:href="#DejaVuSans-43" x="1378.015625"/>
     <use xlink:href="#DejaVuSans-20" x="1447.839844"/>
     <use xlink:href="#DejaVuSans-77" x="1479.626953"/>
     <use xlink:href="#DejaVuSans-69" x="1561.414062"/>
     <use xlink:href="#DejaVuSans-74" x="1589.197266"/>
     <use xlink:href="#DejaVuSans-68" x="1628.40625"/>
     <use xlink:href="#DejaVuSans-20" x="1691.785156"/>
     <use xlink:href="#DejaVuSans-6d" x="1723.572266"/>
     <use xlink:href="#DejaVuSans-6c" x="1820.984375"/>
     <use xlink:href="#DejaVuSans-64" x="1848.767578"/>
     <use xlink:href="#DejaVuSans-73" x="1912.244141"/>
     <use xlink:href="#DejaVuSans-61" x="1964.34375"/>
     <use xlink:href="#DejaVuSans-34" x="2025.623047"/>
     <use xlink:href="#DejaVuSans-34" x="2089.246094"/>
     <use xlink:href="#DejaVuSans-20" x="2152.869141"/>
     <use xlink:href="#DejaVuSans-73" x="2184.65625"/>
     <use xlink:href="#DejaVuSans-69" x="2236.755859"/>
     <use xlink:href="#DejaVuSans-67" x="2264.539062"/>
     <use xlink:href="#DejaVuSans-6e" x="2328.015625"/>
     <use xlink:href="#DejaVuSans-61" x="2391.394531"/>
     <use xlink:href="#DejaVuSans-74" x="2452.673828"/>
     <use xlink:href="#DejaVuSans-75" x="2491.882812"/>
     <use xlink:href="#DejaVuSans-72" x="2555.261719"/>
     <use xlink:href="#DejaVuSans-65" x="2594.125"/>
     <use xlink:href="#DejaVuSans-20" x="2655.648438"/>
     <use xlink:href="#DejaVuSans-61" x="2687.435547"/>
     <use xlink:href="#DejaVuSans-6c" x="2748.714844"/>
     <use xlink:href="#DejaVuSans-67" x="2776.498047"/>
     <use xlink:href="#DejaVuSans-6f" x="2839.974609"/>
     <use xlink:href="#DejaVuSans-72" x="2901.15625"/>
     <use xlink:href="#DejaVuSans-69" x="2942.269531"/>
     <use xlink:href="#DejaVuSans-74" x="2970.052734"/>
     <use xlink:href="#DejaVuSans-68" x="3009.261719"/>
     <use xlink:href="#DejaVuSans-6d" x="3072.640625"/>
     <use xlink:href="#DejaVuSans-20" x="3170.052734"/>
     <use xlink:href="#DejaVuSans-2014" x="3201.839844"/>
     <use xlink:href="#DejaVuSans-20" x="3301.839844"/>
     <use xlink:href="#DejaVuSans-69" x="3333.626953"/>
     <use xlink:href="#DejaVuSans-64" x="3361.410156"/>
     <use xlink:href="#DejaVuSans-65" x="3424.886719"/>
     <use xlink:href="#DejaVuSans-61" x="3486.410156"/>
     <use xlink:href="#DejaVuSans-6c" x="3547.689453"/>
     <use xlink:href="#DejaVuSans-20" x="3575.472656"/>
     <use xlink:href="#DejaVuSans-63" x="3607.259766"/>
     <use xlink:href="#DejaVuSans-6f" x="3662.240234"/>
     <use xlink:href="#DejaVuSans-6e" x="3723.421875"/>
     <use xlink:href="#DejaVuSans-64" x="3786.800781"/>
     <use xlink:href="#DejaVuSans-69" x="3850.277344"/>
     <use xlink:href="#DejaVuSans-74" x="3878.060547"/>
     <use xlink:href="#DejaVuSans-69" x="3917.269531"/>
     <use xlink:href="#DejaVuSans-6f" x="3945.052734"/>
     <use xlink:href="#DejaVuSans-6e" x="4006.234375"/>
     <use xlink:href="#DejaVuSans-73" x="4069.613281"/>
    </g>
   </g>
  </g>
 </g>
 <defs>
  <clipPath id="p11f14f8f67">
   <rect x="51.3" y="27.6" width="799.74" height="345.816875"/>
  </clipPath>
 </defs>
</svg>
