<?xml version="1.0" encoding="utf-8" standalone="no"?>
<!DOCTYPE svg PUBLIC "-//W3C//DTD SVG 1.1//EN"
  "http://www.w3.org/Graphics/SVG/1.1/DTD/svg11.dtd">
<svg xmlns:xlink="http://www.w3.org/1999/xlink" width="864pt" height="432pt" viewBox="0 0 864 432" xmlns="http://www.w3.org/2000/svg" version="1.1">
 <metadata>
  <rdf:RDF xmlns:dc="http://purl.org/dc/elements/1.1/" xmlns:cc="http://creativecommons.org/ns#" xmlns:rdf="http://www.w3.org/1999/02/22-rdf-syntax-ns#">
   <cc:Work>
    <dc:type rdf:resource="http://purl.org/dc/dcmitype/StillImage"/>
    <dc:date>2026-03-21T14:06:29.462921</dc:date>
    <dc:format>image/svg+xml</dc:format>
    <dc:creator>
     <cc:Agent>
      <dc:title>Matplotlib v3.6.3, https://matplotlib.org/</dc:title>
     </cc:Agent>
    </dc:creator>
   </cc:Work>
  </rdf:RDF>
 </metadata>
 <defs>
  <style type="text/css">*{stroke-linejoin: round; stroke-linecap: butt}</style>
 </defs>
 <g id="figure_1">
  <g id="patch_1">
   <path d="M 0 432 
L 864 432 
L 864 0 
L 0 0 
z
" style="fill: #ffffff"/>
  </g>
  <g id="axes_1">
   <g id="patch_2">
    <path d="M 58.32 377.237044 
L 851.04 377.237044 
L 851.04 27.6 
L 58.32 27.6 
z
" style="fill: #ffffff"/>
   </g>
   <g id="matplotlib.axis_1">
    <g id="xtick_1">
     <g id="text_1">
      <!-- P-384 -->
      <g style="fill: #262626" transform="translate(103.911421 404.396088) rotate(-15) scale(0.12 -0.12)">
       <defs>
        <path id="DejaVuSans-50" d="M 1259 4147 
L 1259 2394 
L 2053 2394 
Q 2494 2394 2734 2622 
Q 2975 2850 2975 3272 
Q 2975 3691 2734 3919 
Q 2494 4147 2053 4147 
L 1259 4147 
z
M 628 4666 
L 2053 4666 
Q 2838 4666 3239 4311 
Q 3641 3956 3641 3272 
Q 3641 2581 3239 2228 
Q 2838 1875 2053 1875 
L 1259 1875 
L 1259 0 
L 628 0 
L 628 4666 
z
" transform="scale(0.015625)"/>
        <path id="DejaVuSans-2d" d="M 313 2009 
L 1997 2009 
L 1997 1497 
L 313 1497 
L 313 2009 
z
" transform="scale(0.015625)"/>
        <path id="DejaVuSans-33" d="M 2597 2516 
Q 3050 2419 3304 2112 
Q 3559 1806 3559 1356 
Q 3559 666 3084 287 
Q 2609 -91 1734 -91 
Q 1441 -91 1130 -33 
Q 819 25 488 141 
L 488 750 
Q 750 597 1062 519 
Q 1375 441 1716 441 
Q 2309 441 2620 675 
Q 2931 909 2931 1356 
Q 2931 1769 2642 2001 
Q 2353 2234 1838 2234 
L 1294 2234 
L 1294 2753 
L 1863 2753 
Q 2328 2753 2575 2939 
Q 2822 3125 2822 3475 
Q 2822 3834 2567 4026 
Q 2313 4219 1838 4219 
Q 1578 4219 1281 4162 
Q 984 4106 628 3988 
L 628 4550 
Q 988 4650 1302 4700 
Q 1616 4750 1894 4750 
Q 2613 4750 3031 4423 
Q 3450 4097 3450 3541 
Q 3450 3153 3228 2886 
Q 3006 2619 2597 2516 
z
" transform="scale(0.015625)"/>
        <path id="DejaVuSans-38" d="M 2034 2216 
Q 1584 2216 1326 1975 
Q 1069 1734 1069 1313 
Q 1069 891 1326 650 
Q 1584 409 2034 409 
Q 2484 409 2743 651 
Q 3003 894 3003 1313 
Q 3003 1734 2745 1975 
Q 2488 2216 2034 2216 
z
M 1403 2484 
Q 997 2584 770 2862 
Q 544 3141 544 3541 
Q 544 4100 942 4425 
Q 1341 4750 2034 4750 
Q 2731 4750 3128 4425 
Q 3525 4100 3525 3541 
Q 3525 3141 3298 2862 
Q 3072 2584 2669 2484 
Q 3125 2378 3379 2068 
Q 3634 1759 3634 1313 
Q 3634 634 3220 271 
Q 2806 -91 2034 -91 
Q 1263 -91 848 271 
Q 434 634 434 1313 
Q 434 1759 690 2068 
Q 947 2378 1403 2484 
z
M 1172 3481 
Q 1172 3119 1398 2916 
Q 1625 2713 2034 2713 
Q 2441 2713 2670 2916 
Q 2900 3119 2900 3481 
Q 2900 3844 2670 4047 
Q 2441 4250 2034 4250 
Q 1625 4250 1398 4047 
Q 1172 3844 1172 3481 
z
" transform="scale(0.015625)"/>
        <path id="DejaVuSans-34" d="M 2419 4116 
L 825 1625 
L 2419 1625 
L 2419 4116 
z
M 2253 4666 
L 3047 4666 
L 3047 1625 
L 3713 1625 
L 3713 1100 
L 3047 1100 
L 3047 0 
L 2419 0 
L 2419 1100 
L 313 1100 
L 313 1709 
L 2253 4666 
z
" transform="scale(0.015625)"/>
       </defs>
       <use xlink:href="#DejaVuSans-50"/>
       <use xlink:href="#DejaVuSans-2d" x="58.052734"/>
       <use xlink:href="#DejaVuSans-33" x="94.136719"/>
       <use xlink:href="#DejaVuSans-38" x="157.759766"/>
       <use xlink:href="#DejaVuSans-34" x="221.382812"/>
      </g>
     </g>
    </g>
    <g id="xtick_2">
     <g id="text_2">
      <!-- x448 -->
      <g style="fill: #262626" transform="translate(266.505065 403.310989) rotate(-15) scale(0.12 -0.12)">
       <defs>
        <path id="DejaVuSans-78" d="M 3513 3500 
L 2247 1797 
L 3578 0 
L 2900 0 
L 1881 1375 
L 863 0 
L 184 0 
L 1544 1831 
L 300 3500 
L 978 3500 
L 1906 2253 
L 2834 3500 
L 3513 3500 
z
" transform="scale(0.015625)"/>
       </defs>
       <use xlink:href="#DejaVuSans-78"/>
       <use xlink:href="#DejaVuSans-34" x="59.179688"/>
       <use xlink:href="#DejaVuSans-34" x="122.802734"/>
       <use xlink:href="#DejaVuSans-38" x="186.425781"/>
      </g>
     </g>
    </g>
    <g id="xtick_3">
     <g id="text_3">
      <!-- hqc192 -->
      <g style="fill: #262626" transform="translate(410.831845 407.120482) rotate(-15) scale(0.12 -0.12)">
       <defs>
        <path id="DejaVuSans-68" d="M 3513 2113 
L 3513 0 
L 2938 0 
L 2938 2094 
Q 2938 2591 2744 2837 
Q 2550 3084 2163 3084 
Q 1697 3084 1428 2787 
Q 1159 2491 1159 1978 
L 1159 0 
L 581 0 
L 581 4863 
L 1159 4863 
L 1159 2956 
Q 1366 3272 1645 3428 
Q 1925 3584 2291 3584 
Q 2894 3584 3203 3211 
Q 3513 2838 3513 2113 
z
" transform="scale(0.015625)"/>
        <path id="DejaVuSans-71" d="M 947 1747 
Q 947 1113 1208 752 
Q 1469 391 1925 391 
Q 2381 391 2643 752 
Q 2906 1113 2906 1747 
Q 2906 2381 2643 2742 
Q 2381 3103 1925 3103 
Q 1469 3103 1208 2742 
Q 947 2381 947 1747 
z
M 2906 525 
Q 2725 213 2448 61 
Q 2172 -91 1784 -91 
Q 1150 -91 751 415 
Q 353 922 353 1747 
Q 353 2572 751 3078 
Q 1150 3584 1784 3584 
Q 2172 3584 2448 3432 
Q 2725 3281 2906 2969 
L 2906 3500 
L 3481 3500 
L 3481 -1331 
L 2906 -1331 
L 2906 525 
z
" transform="scale(0.015625)"/>
        <path id="DejaVuSans-63" d="M 3122 3366 
L 3122 2828 
Q 2878 2963 2633 3030 
Q 2388 3097 2138 3097 
Q 1578 3097 1268 2742 
Q 959 2388 959 1747 
Q 959 1106 1268 751 
Q 1578 397 2138 397 
Q 2388 397 2633 464 
Q 2878 531 3122 666 
L 3122 134 
Q 2881 22 2623 -34 
Q 2366 -91 2075 -91 
Q 1284 -91 818 406 
Q 353 903 353 1747 
Q 353 2603 823 3093 
Q 1294 3584 2113 3584 
Q 2378 3584 2631 3529 
Q 2884 3475 3122 3366 
z
" transform="scale(0.015625)"/>
        <path id="DejaVuSans-31" d="M 794 531 
L 1825 531 
L 1825 4091 
L 703 3866 
L 703 4441 
L 1819 4666 
L 2450 4666 
L 2450 531 
L 3481 531 
L 3481 0 
L 794 0 
L 794 531 
z
" transform="scale(0.015625)"/>
        <path id="DejaVuSans-39" d="M 703 97 
L 703 672 
Q 941 559 1184 500 
Q 1428 441 1663 441 
Q 2288 441 2617 861 
Q 2947 1281 2994 2138 
Q 2813 1869 2534 1725 
Q 2256 1581 1919 1581 
Q 1219 1581 811 2004 
Q 403 2428 403 3163 
Q 403 3881 828 4315 
Q 1253 4750 1959 4750 
Q 2769 4750 3195 4129 
Q 3622 3509 3622 2328 
Q 3622 1225 3098 567 
Q 2575 -91 1691 -91 
Q 1453 -91 1209 -44 
Q 966 3 703 97 
z
M 1959 2075 
Q 2384 2075 2632 2365 
Q 2881 2656 2881 3163 
Q 2881 3666 2632 3958 
Q 2384 4250 1959 4250 
Q 1534 4250 1286 3958 
Q 1038 3666 1038 3163 
Q 1038 2656 1286 2365 
Q 1534 2075 1959 2075 
z
" transform="scale(0.015625)"/>
        <path id="DejaVuSans-32" d="M 1228 531 
L 3431 531 
L 3431 0 
L 469 0 
L 469 531 
Q 828 903 1448 1529 
Q 2069 2156 2228 2338 
Q 2531 2678 2651 2914 
Q 2772 3150 2772 3378 
Q 2772 3750 2511 3984 
Q 2250 4219 1831 4219 
Q 1534 4219 1204 4116 
Q 875 4013 500 3803 
L 500 4441 
Q 881 4594 1212 4672 
Q 1544 4750 1819 4750 
Q 2544 4750 2975 4387 
Q 3406 4025 3406 3419 
Q 3406 3131 3298 2873 
Q 3191 2616 2906 2266 
Q 2828 2175 2409 1742 
Q 1991 1309 1228 531 
z
" transform="scale(0.015625)"/>
       </defs>
       <use xlink:href="#DejaVuSans-68"/>
       <use xlink:href="#DejaVuSans-71" x="63.378906"/>
       <use xlink:href="#DejaVuSans-63" x="126.855469"/>
       <use xlink:href="#DejaVuSans-31" x="181.835938"/>
       <use xlink:href="#DejaVuSans-39" x="245.458984"/>
       <use xlink:href="#DejaVuSans-32" x="309.082031"/>
      </g>
     </g>
    </g>
    <g id="xtick_4">
     <g id="text_4">
      <!-- p384_hqc192 -->
      <g style="fill: #262626" transform="translate(534.010834 416.573362) rotate(-15) scale(0.12 -0.12)">
       <defs>
        <path id="DejaVuSans-70" d="M 1159 525 
L 1159 -1331 
L 581 -1331 
L 581 3500 
L 1159 3500 
L 1159 2969 
Q 1341 3281 1617 3432 
Q 1894 3584 2278 3584 
Q 2916 3584 3314 3078 
Q 3713 2572 3713 1747 
Q 3713 922 3314 415 
Q 2916 -91 2278 -91 
Q 1894 -91 1617 61 
Q 1341 213 1159 525 
z
M 3116 1747 
Q 3116 2381 2855 2742 
Q 2594 3103 2138 3103 
Q 1681 3103 1420 2742 
Q 1159 2381 1159 1747 
Q 1159 1113 1420 752 
Q 1681 391 2138 391 
Q 2594 391 2855 752 
Q 3116 1113 3116 1747 
z
" transform="scale(0.015625)"/>
        <path id="DejaVuSans-5f" d="M 3263 -1063 
L 3263 -1509 
L -63 -1509 
L -63 -1063 
L 3263 -1063 
z
" transform="scale(0.015625)"/>
       </defs>
       <use xlink:href="#DejaVuSans-70"/>
       <use xlink:href="#DejaVuSans-33" x="63.476562"/>
       <use xlink:href="#DejaVuSans-38" x="127.099609"/>
       <use xlink:href="#DejaVuSans-34" x="190.722656"/>
       <use xlink:href="#DejaVuSans-5f" x="254.345703"/>
       <use xlink:href="#DejaVuSans-68" x="304.345703"/>
       <use xlink:href="#DejaVuSans-71" x="367.724609"/>
       <use xlink:href="#DejaVuSans-63" x="431.201172"/>
       <use xlink:href="#DejaVuSans-31" x="486.181641"/>
       <use xlink:href="#DejaVuSans-39" x="549.804688"/>
       <use xlink:href="#DejaVuSans-32" x="613.427734"/>
      </g>
     </g>
    </g>
    <g id="xtick_5">
     <g id="text_5">
      <!-- x448_hqc192 -->
      <g style="fill: #262626" transform="translate(693.05289 416.439909) rotate(-15) scale(0.12 -0.12)">
       <use xlink:href="#DejaVuSans-78"/>
       <use xlink:href="#DejaVuSans-34" x="59.179688"/>
       <use xlink:href="#DejaVuSans-34" x="122.802734"/>
       <use xlink:href="#DejaVuSans-38" x="186.425781"/>
       <use xlink:href="#DejaVuSans-5f" x="250.048828"/>
       <use xlink:href="#DejaVuSans-68" x="300.048828"/>
       <use xlink:href="#DejaVuSans-71" x="363.427734"/>
       <use xlink:href="#DejaVuSans-63" x="426.904297"/>
       <use xlink:href="#DejaVuSans-31" x="481.884766"/>
       <use xlink:href="#DejaVuSans-39" x="545.507812"/>
       <use xlink:href="#DejaVuSans-32" x="609.130859"/>
      </g>
     </g>
    </g>
   </g>
   <g id="matplotlib.axis_2">
    <g id="ytick_1">
     <g id="line2d_1">
      <path d="M 58.32 369.880866 
L 851.04 369.880866 
" clip-path="url(#p9af5c3242a)" style="fill: none; stroke: #cccccc; stroke-linecap: round"/>
     </g>
     <g id="text_6">
      <!-- 800 -->
      <g style="fill: #262626" transform="translate(27.82375 374.060007) scale(0.11 -0.11)">
       <defs>
        <path id="DejaVuSans-30" d="M 2034 4250 
Q 1547 4250 1301 3770 
Q 1056 3291 1056 2328 
Q 1056 1369 1301 889 
Q 1547 409 2034 409 
Q 2525 409 2770 889 
Q 3016 1369 3016 2328 
Q 3016 3291 2770 3770 
Q 2525 4250 2034 4250 
z
M 2034 4750 
Q 2819 4750 3233 4129 
Q 3647 3509 3647 2328 
Q 3647 1150 3233 529 
Q 2819 -91 2034 -91 
Q 1250 -91 836 529 
Q 422 1150 422 2328 
Q 422 3509 836 4129 
Q 1250 4750 2034 4750 
z
" transform="scale(0.015625)"/>
       </defs>
       <use xlink:href="#DejaVuSans-38"/>
       <use xlink:href="#DejaVuSans-30" x="63.623047"/>
       <use xlink:href="#DejaVuSans-30" x="127.246094"/>
      </g>
     </g>
    </g>
    <g id="ytick_2">
     <g id="line2d_2">
      <path d="M 58.32 306.731315 
L 851.04 306.731315 
" clip-path="url(#p9af5c3242a)" style="fill: none; stroke: #cccccc; stroke-linecap: round"/>
     </g>
     <g id="text_7">
      <!-- 820 -->
      <g style="fill: #262626" transform="translate(27.82375 310.910455) scale(0.11 -0.11)">
       <use xlink:href="#DejaVuSans-38"/>
       <use xlink:href="#DejaVuSans-32" x="63.623047"/>
       <use xlink:href="#DejaVuSans-30" x="127.246094"/>
      </g>
     </g>
    </g>
    <g id="ytick_3">
     <g id="line2d_3">
      <path d="M 58.32 243.581763 
L 851.04 243.581763 
" clip-path="url(#p9af5c3242a)" style="fill: none; stroke: #cccccc; stroke-linecap: round"/>
     </g>
     <g id="text_8">
      <!-- 840 -->
      <g style="fill: #262626" transform="translate(27.82375 247.760904) scale(0.11 -0.11)">
       <use xlink:href="#DejaVuSans-38"/>
       <use xlink:href="#DejaVuSans-34" x="63.623047"/>
       <use xlink:href="#DejaVuSans-30" x="127.246094"/>
      </g>
     </g>
    </g>
    <g id="ytick_4">
     <g id="line2d_4">
      <path d="M 58.32 180.432212 
L 851.04 180.432212 
" clip-path="url(#p9af5c3242a)" style="fill: none; stroke: #cccccc; stroke-linecap: round"/>
     </g>
     <g id="text_9">
      <!-- 860 -->
      <g style="fill: #262626" transform="translate(27.82375 184.611352) scale(0.11 -0.11)">
       <defs>
        <path id="DejaVuSans-36" d="M 2113 2584 
Q 1688 2584 1439 2293 
Q 1191 2003 1191 1497 
Q 1191 994 1439 701 
Q 1688 409 2113 409 
Q 2538 409 2786 701 
Q 3034 994 3034 1497 
Q 3034 2003 2786 2293 
Q 2538 2584 2113 2584 
z
M 3366 4563 
L 3366 3988 
Q 3128 4100 2886 4159 
Q 2644 4219 2406 4219 
Q 1781 4219 1451 3797 
Q 1122 3375 1075 2522 
Q 1259 2794 1537 2939 
Q 1816 3084 2150 3084 
Q 2853 3084 3261 2657 
Q 3669 2231 3669 1497 
Q 3669 778 3244 343 
Q 2819 -91 2113 -91 
Q 1303 -91 875 529 
Q 447 1150 447 2328 
Q 447 3434 972 4092 
Q 1497 4750 2381 4750 
Q 2619 4750 2861 4703 
Q 3103 4656 3366 4563 
z
" transform="scale(0.015625)"/>
       </defs>
       <use xlink:href="#DejaVuSans-38"/>
       <use xlink:href="#DejaVuSans-36" x="63.623047"/>
       <use xlink:href="#DejaVuSans-30" x="127.246094"/>
      </g>
     </g>
    </g>
    <g id="ytick_5">
     <g id="line2d_5">
      <path d="M 58.32 117.28266 
L 851.04 117.28266 
" clip-path="url(#p9af5c3242a)" style="fill: none; stroke: #cccccc; stroke-linecap: round"/>
     </g>
     <g id="text_10">
      <!-- 880 -->
      <g style="fill: #262626" transform="translate(27.82375 121.461801) scale(0.11 -0.11)">
       <use xlink:href="#DejaVuSans-38"/>
       <use xlink:href="#DejaVuSans-38" x="63.623047"/>
       <use xlink:href="#DejaVuSans-30" x="127.246094"/>
      </g>
     </g>
    </g>
    <g id="ytick_6">
     <g id="line2d_6">
      <path d="M 58.32 54.133109 
L 851.04 54.133109 
" clip-path="url(#p9af5c3242a)" style="fill: none; stroke: #cccccc; stroke-linecap: round"/>
     </g>
     <g id="text_11">
      <!-- 900 -->
      <g style="fill: #262626" transform="translate(27.82375 58.312249) scale(0.11 -0.11)">
       <use xlink:href="#DejaVuSans-39"/>
       <use xlink:href="#DejaVuSans-30" x="63.623047"/>
       <use xlink:href="#DejaVuSans-30" x="127.246094"/>
      </g>
     </g>
    </g>
    <g id="text_12">
     <!-- Handshake duration (ms) -->
     <g style="fill: #262626" transform="translate(21.328125 278.486335) rotate(-90) scale(0.12 -0.12)">
      <defs>
       <path id="DejaVuSans-48" d="M 628 4666 
L 1259 4666 
L 1259 2753 
L 3553 2753 
L 3553 4666 
L 4184 4666 
L 4184 0 
L 3553 0 
L 3553 2222 
L 1259 2222 
L 1259 0 
L 628 0 
L 628 4666 
z
" transform="scale(0.015625)"/>
       <path id="DejaVuSans-61" d="M 2194 1759 
Q 1497 1759 1228 1600 
Q 959 1441 959 1056 
Q 959 750 1161 570 
Q 1363 391 1709 391 
Q 2188 391 2477 730 
Q 2766 1069 2766 1631 
L 2766 1759 
L 2194 1759 
z
M 3341 1997 
L 3341 0 
L 2766 0 
L 2766 531 
Q 2569 213 2275 61 
Q 1981 -91 1556 -91 
Q 1019 -91 701 211 
Q 384 513 384 1019 
Q 384 1609 779 1909 
Q 1175 2209 1959 2209 
L 2766 2209 
L 2766 2266 
Q 2766 2663 2505 2880 
Q 2244 3097 1772 3097 
Q 1472 3097 1187 3025 
Q 903 2953 641 2809 
L 641 3341 
Q 956 3463 1253 3523 
Q 1550 3584 1831 3584 
Q 2591 3584 2966 3190 
Q 3341 2797 3341 1997 
z
" transform="scale(0.015625)"/>
       <path id="DejaVuSans-6e" d="M 3513 2113 
L 3513 0 
L 2938 0 
L 2938 2094 
Q 2938 2591 2744 2837 
Q 2550 3084 2163 3084 
Q 1697 3084 1428 2787 
Q 1159 2491 1159 1978 
L 1159 0 
L 581 0 
L 581 3500 
L 1159 3500 
L 1159 2956 
Q 1366 3272 1645 3428 
Q 1925 3584 2291 3584 
Q 2894 3584 3203 3211 
Q 3513 2838 3513 2113 
z
" transform="scale(0.015625)"/>
       <path id="DejaVuSans-64" d="M 2906 2969 
L 2906 4863 
L 3481 4863 
L 3481 0 
L 2906 0 
L 2906 525 
Q 2725 213 2448 61 
Q 2172 -91 1784 -91 
Q 1150 -91 751 415 
Q 353 922 353 1747 
Q 353 2572 751 3078 
Q 1150 3584 1784 3584 
Q 2172 3584 2448 3432 
Q 2725 3281 2906 2969 
z
M 947 1747 
Q 947 1113 1208 752 
Q 1469 391 1925 391 
Q 2381 391 2643 752 
Q 2906 1113 2906 1747 
Q 2906 2381 2643 2742 
Q 2381 3103 1925 3103 
Q 1469 3103 1208 2742 
Q 947 2381 947 1747 
z
" transform="scale(0.015625)"/>
       <path id="DejaVuSans-73" d="M 2834 3397 
L 2834 2853 
Q 2591 2978 2328 3040 
Q 2066 3103 1784 3103 
Q 1356 3103 1142 2972 
Q 928 2841 928 2578 
Q 928 2378 1081 2264 
Q 1234 2150 1697 2047 
L 1894 2003 
Q 2506 1872 2764 1633 
Q 3022 1394 3022 966 
Q 3022 478 2636 193 
Q 2250 -91 1575 -91 
Q 1294 -91 989 -36 
Q 684 19 347 128 
L 347 722 
Q 666 556 975 473 
Q 1284 391 1588 391 
Q 1994 391 2212 530 
Q 2431 669 2431 922 
Q 2431 1156 2273 1281 
Q 2116 1406 1581 1522 
L 1381 1569 
Q 847 1681 609 1914 
Q 372 2147 372 2553 
Q 372 3047 722 3315 
Q 1072 3584 1716 3584 
Q 2034 3584 2315 3537 
Q 2597 3491 2834 3397 
z
" transform="scale(0.015625)"/>
       <path id="DejaVuSans-6b" d="M 581 4863 
L 1159 4863 
L 1159 1991 
L 2875 3500 
L 3609 3500 
L 1753 1863 
L 3688 0 
L 2938 0 
L 1159 1709 
L 1159 0 
L 581 0 
L 581 4863 
z
" transform="scale(0.015625)"/>
       <path id="DejaVuSans-65" d="M 3597 1894 
L 3597 1613 
L 953 1613 
Q 991 1019 1311 708 
Q 1631 397 2203 397 
Q 2534 397 2845 478 
Q 3156 559 3463 722 
L 3463 178 
Q 3153 47 2828 -22 
Q 2503 -91 2169 -91 
Q 1331 -91 842 396 
Q 353 884 353 1716 
Q 353 2575 817 3079 
Q 1281 3584 2069 3584 
Q 2775 3584 3186 3129 
Q 3597 2675 3597 1894 
z
M 3022 2063 
Q 3016 2534 2758 2815 
Q 2500 3097 2075 3097 
Q 1594 3097 1305 2825 
Q 1016 2553 972 2059 
L 3022 2063 
z
" transform="scale(0.015625)"/>
       <path id="DejaVuSans-20" transform="scale(0.015625)"/>
       <path id="DejaVuSans-75" d="M 544 1381 
L 544 3500 
L 1119 3500 
L 1119 1403 
Q 1119 906 1312 657 
Q 1506 409 1894 409 
Q 2359 409 2629 706 
Q 2900 1003 2900 1516 
L 2900 3500 
L 3475 3500 
L 3475 0 
L 2900 0 
L 2900 538 
Q 2691 219 2414 64 
Q 2138 -91 1772 -91 
Q 1169 -91 856 284 
Q 544 659 544 1381 
z
M 1991 3584 
L 1991 3584 
z
" transform="scale(0.015625)"/>
       <path id="DejaVuSans-72" d="M 2631 2963 
Q 2534 3019 2420 3045 
Q 2306 3072 2169 3072 
Q 1681 3072 1420 2755 
Q 1159 2438 1159 1844 
L 1159 0 
L 581 0 
L 581 3500 
L 1159 3500 
L 1159 2956 
Q 1341 3275 1631 3429 
Q 1922 3584 2338 3584 
Q 2397 3584 2469 3576 
Q 2541 3569 2628 3553 
L 2631 2963 
z
" transform="scale(0.015625)"/>
       <path id="DejaVuSans-74" d="M 1172 4494 
L 1172 3500 
L 2356 3500 
L 2356 3053 
L 1172 3053 
L 1172 1153 
Q 1172 725 1289 603 
Q 1406 481 1766 481 
L 2356 481 
L 2356 0 
L 1766 0 
Q 1100 0 847 248 
Q 594 497 594 1153 
L 594 3053 
L 172 3053 
L 172 3500 
L 594 3500 
L 594 4494 
L 1172 4494 
z
" transform="scale(0.015625)"/>
       <path id="DejaVuSans-69" d="M 603 3500 
L 1178 3500 
L 1178 0 
L 603 0 
L 603 3500 
z
M 603 4863 
L 1178 4863 
L 1178 4134 
L 603 4134 
L 603 4863 
z
" transform="scale(0.015625)"/>
       <path id="DejaVuSans-6f" d="M 1959 3097 
Q 1497 3097 1228 2736 
Q 959 2375 959 1747 
Q 959 1119 1226 758 
Q 1494 397 1959 397 
Q 2419 397 2687 759 
Q 2956 1122 2956 1747 
Q 2956 2369 2687 2733 
Q 2419 3097 1959 3097 
z
M 1959 3584 
Q 2709 3584 3137 3096 
Q 3566 2609 3566 1747 
Q 3566 888 3137 398 
Q 2709 -91 1959 -91 
Q 1206 -91 779 398 
Q 353 888 353 1747 
Q 353 2609 779 3096 
Q 1206 3584 1959 3584 
z
" transform="scale(0.015625)"/>
       <path id="DejaVuSans-28" d="M 1984 4856 
Q 1566 4138 1362 3434 
Q 1159 2731 1159 2009 
Q 1159 1288 1364 580 
Q 1569 -128 1984 -844 
L 1484 -844 
Q 1016 -109 783 600 
Q 550 1309 550 2009 
Q 550 2706 781 3412 
Q 1013 4119 1484 4856 
L 1984 4856 
z
" transform="scale(0.015625)"/>
       <path id="DejaVuSans-6d" d="M 3328 2828 
Q 3544 3216 3844 3400 
Q 4144 3584 4550 3584 
Q 5097 3584 5394 3201 
Q 5691 2819 5691 2113 
L 5691 0 
L 5113 0 
L 5113 2094 
Q 5113 2597 4934 2840 
Q 4756 3084 4391 3084 
Q 3944 3084 3684 2787 
Q 3425 2491 3425 1978 
L 3425 0 
L 2847 0 
L 2847 2094 
Q 2847 2600 2669 2842 
Q 2491 3084 2119 3084 
Q 1678 3084 1418 2786 
Q 1159 2488 1159 1978 
L 1159 0 
L 581 0 
L 581 3500 
L 1159 3500 
L 1159 2956 
Q 1356 3278 1631 3431 
Q 1906 3584 2284 3584 
Q 2666 3584 2933 3390 
Q 3200 3197 3328 2828 
z
" transform="scale(0.015625)"/>
       <path id="DejaVuSans-29" d="M 513 4856 
L 1013 4856 
Q 1481 4119 1714 3412 
Q 1947 2706 1947 2009 
Q 1947 1309 1714 600 
Q 1481 -109 1013 -844 
L 513 -844 
Q 928 -128 1133 580 
Q 1338 1288 1338 2009 
Q 1338 2731 1133 3434 
Q 928 4138 513 4856 
z
" transform="scale(0.015625)"/>
      </defs>
      <use xlink:href="#DejaVuSans-48"/>
      <use xlink:href="#DejaVuSans-61" x="75.195312"/>
      <use xlink:href="#DejaVuSans-6e" x="136.474609"/>
      <use xlink:href="#DejaVuSans-64" x="199.853516"/>
      <use xlink:href="#DejaVuSans-73" x="263.330078"/>
      <use xlink:href="#DejaVuSans-68" x="315.429688"/>
      <use xlink:href="#DejaVuSans-61" x="378.808594"/>
      <use xlink:href="#DejaVuSans-6b" x="440.087891"/>
      <use xlink:href="#DejaVuSans-65" x="494.373047"/>
      <use xlink:href="#DejaVuSans-20" x="555.896484"/>
      <use xlink:href="#DejaVuSans-64" x="587.683594"/>
      <use xlink:href="#DejaVuSans-75" x="651.160156"/>
      <use xlink:href="#DejaVuSans-72" x="714.539062"/>
      <use xlink:href="#DejaVuSans-61" x="755.652344"/>
      <use xlink:href="#DejaVuSans-74" x="816.931641"/>
      <use xlink:href="#DejaVuSans-69" x="856.140625"/>
      <use xlink:href="#DejaVuSans-6f" x="883.923828"/>
      <use xlink:href="#DejaVuSans-6e" x="945.105469"/>
      <use xlink:href="#DejaVuSans-20" x="1008.484375"/>
      <use xlink:href="#DejaVuSans-28" x="1040.271484"/>
      <use xlink:href="#DejaVuSans-6d" x="1079.285156"/>
      <use xlink:href="#DejaVuSans-73" x="1176.697266"/>
      <use xlink:href="#DejaVuSans-29" x="1228.796875"/>
     </g>
    </g>
   </g>
   <g id="PolyCollection_1">
    <defs>
     <path id="m6d1d295098" d="M 137.687704 -74.200118 
L 137.496296 -74.200118 
L 137.417416 -74.31231 
L 137.281506 -74.424503 
L 137.053803 -74.536695 
L 136.68343 -74.648888 
L 136.099595 -74.76108 
L 135.209327 -74.873273 
L 133.898468 -74.985465 
L 132.03781 -75.097658 
L 129.495869 -75.20985 
L 126.158655 -75.322043 
L 121.955005 -75.434235 
L 116.883856 -75.546428 
L 111.037922 -75.65862 
L 104.61732 -75.770813 
L 97.92739 -75.883005 
L 91.357551 -75.995198 
L 85.34211 -76.10739 
L 80.308526 -76.219583 
L 76.622298 -76.331775 
L 74.53922 -76.443968 
L 74.1744 -76.55616 
L 75.493615 -76.668353 
L 78.327271 -76.780545 
L 82.402296 -76.892738 
L 87.384011 -77.00493 
L 92.919249 -77.117123 
L 98.673527 -77.229315 
L 104.357914 -77.341508 
L 109.744325 -77.4537 
L 114.670337 -77.565893 
L 119.035909 -77.678085 
L 122.794755 -77.790278 
L 125.94288 -77.90247 
L 128.506284 -78.014662 
L 130.529342 -78.126855 
L 132.064847 -78.239047 
L 133.166231 -78.35124 
L 133.882182 -78.463432 
L 134.253622 -78.575625 
L 134.313013 -78.687817 
L 134.08588 -78.80001 
L 133.594415 -78.912202 
L 132.862662 -79.024395 
L 131.922396 -79.136587 
L 130.818349 -79.24878 
L 129.611243 -79.360972 
L 128.377362 -79.473165 
L 127.204095 -79.585357 
L 126.181919 -79.69755 
L 125.394283 -79.809742 
L 124.907446 -79.921935 
L 124.762356 -80.034127 
L 124.97007 -80.14632 
L 125.511338 -80.258512 
L 126.34008 -80.370705 
L 127.389856 -80.482897 
L 128.582162 -80.59509 
L 129.835316 -80.707282 
L 131.072863 -80.819475 
L 132.230505 -80.931667 
L 133.2608 -81.04386 
L 134.135138 -81.156052 
L 134.842985 -81.268245 
L 135.388868 -81.380437 
L 135.788005 -81.49263 
L 136.061678 -81.604822 
L 136.233259 -81.717015 
L 136.325438 -81.829207 
L 136.358672 -81.9414 
L 136.350518 -82.053592 
L 136.315379 -82.165785 
L 136.264328 -82.277977 
L 136.204988 -82.39017 
L 136.141656 -82.502362 
L 136.075987 -82.614555 
L 136.008303 -82.726747 
L 135.939311 -82.83894 
L 135.871682 -82.951132 
L 135.810862 -83.063325 
L 135.764685 -83.175517 
L 135.741861 -83.28771 
L 135.749808 -83.399902 
L 135.792679 -83.512095 
L 135.870278 -83.624287 
L 135.978248 -83.73648 
L 136.109351 -83.848672 
L 136.25528 -83.960865 
L 136.408307 -84.073057 
L 136.562248 -84.18525 
L 136.712623 -84.297442 
L 136.856223 -84.409635 
L 136.990502 -84.521827 
L 137.11316 -84.63402 
L 137.222088 -84.746212 
L 137.315615 -84.858405 
L 137.392863 -84.970597 
L 137.453984 -85.08279 
L 137.500176 -85.194982 
L 137.533448 -85.307175 
L 137.650552 -85.307175 
L 137.650552 -85.307175 
L 137.683824 -85.194982 
L 137.730016 -85.08279 
L 137.791137 -84.970597 
L 137.868385 -84.858405 
L 137.961912 -84.746212 
L 138.07084 -84.63402 
L 138.193498 -84.521827 
L 138.327777 -84.409635 
L 138.471377 -84.297442 
L 138.621752 -84.18525 
L 138.775693 -84.073057 
L 138.92872 -83.960865 
L 139.074649 -83.848672 
L 139.205752 -83.73648 
L 139.313722 -83.624287 
L 139.391321 -83.512095 
L 139.434192 -83.399902 
L 139.442139 -83.28771 
L 139.419315 -83.175517 
L 139.373138 -83.063325 
L 139.312318 -82.951132 
L 139.244689 -82.83894 
L 139.175697 -82.726747 
L 139.108013 -82.614555 
L 139.042344 -82.502362 
L 138.979012 -82.39017 
L 138.919672 -82.277977 
L 138.868621 -82.165785 
L 138.833482 -82.053592 
L 138.825328 -81.9414 
L 138.858562 -81.829207 
L 138.950741 -81.717015 
L 139.122322 -81.604822 
L 139.395995 -81.49263 
L 139.795132 -81.380437 
L 140.341015 -81.268245 
L 141.048862 -81.156052 
L 141.9232 -81.04386 
L 142.953495 -80.931667 
L 144.111137 -80.819475 
L 145.348684 -80.707282 
L 146.601838 -80.59509 
L 147.794144 -80.482897 
L 148.84392 -80.370705 
L 149.672662 -80.258512 
L 150.21393 -80.14632 
L 150.421644 -80.034127 
L 150.276554 -79.921935 
L 149.789717 -79.809742 
L 149.002081 -79.69755 
L 147.979905 -79.585357 
L 146.806638 -79.473165 
L 145.572757 -79.360972 
L 144.365651 -79.24878 
L 143.261604 -79.136587 
L 142.321338 -79.024395 
L 141.589585 -78.912202 
L 141.09812 -78.80001 
L 140.870987 -78.687817 
L 140.930378 -78.575625 
L 141.301818 -78.463432 
L 142.017769 -78.35124 
L 143.119153 -78.239047 
L 144.654658 -78.126855 
L 146.677716 -78.014662 
L 149.24112 -77.90247 
L 152.389245 -77.790278 
L 156.148091 -77.678085 
L 160.513663 -77.565893 
L 165.439675 -77.4537 
L 170.826086 -77.341508 
L 176.510473 -77.229315 
L 182.264751 -77.117123 
L 187.799989 -77.00493 
L 192.781704 -76.892738 
L 196.856729 -76.780545 
L 199.690385 -76.668353 
L 201.0096 -76.55616 
L 200.64478 -76.443968 
L 198.561702 -76.331775 
L 194.875474 -76.219583 
L 189.84189 -76.10739 
L 183.826449 -75.995198 
L 177.25661 -75.883005 
L 170.56668 -75.770813 
L 164.146078 -75.65862 
L 158.300144 -75.546428 
L 153.228995 -75.434235 
L 149.025345 -75.322043 
L 145.688131 -75.20985 
L 143.14619 -75.097658 
L 141.285532 -74.985465 
L 139.974673 -74.873273 
L 139.084405 -74.76108 
L 138.50057 -74.648888 
L 138.130197 -74.536695 
L 137.902494 -74.424503 
L 137.766584 -74.31231 
L 137.687704 -74.200118 
z
" style="stroke: #595959; stroke-width: 1.25"/>
    </defs>
    <g clip-path="url(#p9af5c3242a)">
     <use xlink:href="#m6d1d295098" x="0" y="432" style="fill: #72b6a1; stroke: #595959; stroke-width: 1.25"/>
    </g>
   </g>
   <g id="PolyCollection_2">
    <defs>
     <path id="m3d989dceeb" d="M 296.534366 -70.655549 
L 295.737634 -70.655549 
L 295.449149 -70.73091 
L 294.994606 -70.806272 
L 294.306378 -70.881633 
L 293.304482 -70.956994 
L 291.901394 -71.032355 
L 290.010008 -71.107717 
L 287.554195 -71.183078 
L 284.480613 -71.258439 
L 280.769873 -71.333801 
L 276.445141 -71.409162 
L 271.576748 -71.484523 
L 266.282357 -71.559885 
L 260.723159 -71.635246 
L 255.097023 -71.710607 
L 249.629289 -71.785969 
L 244.561197 -71.86133 
L 240.135405 -71.936691 
L 236.578248 -72.012053 
L 234.079568 -72.087414 
L 232.772688 -72.162775 
L 232.7184 -72.238137 
L 233.896875 -72.313498 
L 236.209853 -72.388859 
L 239.492931 -72.464221 
L 243.535246 -72.539582 
L 248.102439 -72.614943 
L 252.958804 -72.690305 
L 257.885657 -72.765666 
L 262.694473 -72.841027 
L 267.234531 -72.916389 
L 271.395464 -72.99175 
L 275.10544 -73.067111 
L 278.325924 -73.142472 
L 281.044277 -73.217834 
L 283.265807 -73.293195 
L 285.006924 -73.368556 
L 286.290746 -73.443918 
L 287.145709 -73.519279 
L 287.606784 -73.59464 
L 287.718029 -73.670002 
L 287.534816 -73.745363 
L 287.124237 -73.820724 
L 286.562922 -73.896086 
L 285.932417 -73.971447 
L 285.313088 -74.046808 
L 284.777872 -74.12217 
L 284.387038 -74.197531 
L 284.184618 -74.272892 
L 284.196574 -74.348254 
L 284.430397 -74.423615 
L 284.875849 -74.498976 
L 285.50674 -74.574338 
L 286.28385 -74.649699 
L 287.159048 -74.72506 
L 288.080327 -74.800422 
L 288.997039 -74.875783 
L 289.86434 -74.951144 
L 290.646012 -75.026505 
L 291.315401 -75.101867 
L 291.854901 -75.177228 
L 292.254966 -75.252589 
L 292.513656 -75.327951 
L 292.63719 -75.403312 
L 292.64121 -75.478673 
L 292.551708 -75.554035 
L 292.404395 -75.629396 
L 292.241656 -75.704757 
L 292.107193 -75.780119 
L 292.039423 -75.85548 
L 292.065383 -75.930841 
L 292.196827 -76.006203 
L 292.429521 -76.081564 
L 292.745726 -76.156925 
L 293.118841 -76.232287 
L 293.518768 -76.307648 
L 293.916598 -76.383009 
L 294.287808 -76.458371 
L 294.61385 -76.533732 
L 294.882494 -76.609093 
L 295.087523 -76.684455 
L 295.228249 -76.759816 
L 295.30903 -76.835177 
L 295.338739 -76.910539 
L 295.329993 -76.9859 
L 295.297974 -77.061261 
L 295.258806 -77.136622 
L 295.227649 -77.211984 
L 295.216784 -77.287345 
L 295.23408 -77.362706 
L 295.282162 -77.438068 
L 295.358489 -77.513429 
L 295.456332 -77.58879 
L 295.566421 -77.664152 
L 295.678865 -77.739513 
L 295.7849 -77.814874 
L 295.878107 -77.890236 
L 295.954933 -77.965597 
L 296.01454 -78.040958 
L 296.058188 -78.11632 
L 296.213812 -78.11632 
L 296.213812 -78.11632 
L 296.25746 -78.040958 
L 296.317067 -77.965597 
L 296.393893 -77.890236 
L 296.4871 -77.814874 
L 296.593135 -77.739513 
L 296.705579 -77.664152 
L 296.815668 -77.58879 
L 296.913511 -77.513429 
L 296.989838 -77.438068 
L 297.03792 -77.362706 
L 297.055216 -77.287345 
L 297.044351 -77.211984 
L 297.013194 -77.136622 
L 296.974026 -77.061261 
L 296.942007 -76.9859 
L 296.933261 -76.910539 
L 296.96297 -76.835177 
L 297.043751 -76.759816 
L 297.184477 -76.684455 
L 297.389506 -76.609093 
L 297.65815 -76.533732 
L 297.984192 -76.458371 
L 298.355402 -76.383009 
L 298.753232 -76.307648 
L 299.153159 -76.232287 
L 299.526274 -76.156925 
L 299.842479 -76.081564 
L 300.075173 -76.006203 
L 300.206617 -75.930841 
L 300.232577 -75.85548 
L 300.164807 -75.780119 
L 300.030344 -75.704757 
L 299.867605 -75.629396 
L 299.720292 -75.554035 
L 299.63079 -75.478673 
L 299.63481 -75.403312 
L 299.758344 -75.327951 
L 300.017034 -75.252589 
L 300.417099 -75.177228 
L 300.956599 -75.101867 
L 301.625988 -75.026505 
L 302.40766 -74.951144 
L 303.274961 -74.875783 
L 304.191673 -74.800422 
L 305.112952 -74.72506 
L 305.98815 -74.649699 
L 306.76526 -74.574338 
L 307.396151 -74.498976 
L 307.841603 -74.423615 
L 308.075426 -74.348254 
L 308.087382 -74.272892 
L 307.884962 -74.197531 
L 307.494128 -74.12217 
L 306.958912 -74.046808 
L 306.339583 -73.971447 
L 305.709078 -73.896086 
L 305.147763 -73.820724 
L 304.737184 -73.745363 
L 304.553971 -73.670002 
L 304.665216 -73.59464 
L 305.126291 -73.519279 
L 305.981254 -73.443918 
L 307.265076 -73.368556 
L 309.006193 -73.293195 
L 311.227723 -73.217834 
L 313.946076 -73.142472 
L 317.16656 -73.067111 
L 320.876536 -72.99175 
L 325.037469 -72.916389 
L 329.577527 -72.841027 
L 334.386343 -72.765666 
L 339.313196 -72.690305 
L 344.169561 -72.614943 
L 348.736754 -72.539582 
L 352.779069 -72.464221 
L 356.062147 -72.388859 
L 358.375125 -72.313498 
L 359.5536 -72.238137 
L 359.499312 -72.162775 
L 358.192432 -72.087414 
L 355.693752 -72.012053 
L 352.136595 -71.936691 
L 347.710803 -71.86133 
L 342.642711 -71.785969 
L 337.174977 -71.710607 
L 331.548841 -71.635246 
L 325.989643 -71.559885 
L 320.695252 -71.484523 
L 315.826859 -71.409162 
L 311.502127 -71.333801 
L 307.791387 -71.258439 
L 304.717805 -71.183078 
L 302.261992 -71.107717 
L 300.370606 -71.032355 
L 298.967518 -70.956994 
L 297.965622 -70.881633 
L 297.277394 -70.806272 
L 296.822851 -70.73091 
L 296.534366 -70.655549 
z
" style="stroke: #595959; stroke-width: 1.25"/>
    </defs>
    <g clip-path="url(#p9af5c3242a)">
     <use xlink:href="#m3d989dceeb" x="0" y="432" style="fill: #e99675; stroke: #595959; stroke-width: 1.25"/>
    </g>
   </g>
   <g id="PolyCollection_3">
    <defs>
     <path id="m997b0293ce" d="M 459.055826 -205.601544 
L 450.304174 -205.601544 
L 447.973663 -206.755005 
L 444.780497 -207.908467 
L 440.603691 -209.061929 
L 435.397669 -210.21539 
L 429.230625 -211.368852 
L 422.31342 -212.522314 
L 415.008575 -213.675775 
L 407.811219 -214.829237 
L 401.299492 -215.982699 
L 396.059611 -217.13616 
L 392.598564 -218.289622 
L 391.2624 -219.443084 
L 392.178446 -220.596545 
L 395.234867 -221.750007 
L 400.102086 -222.903469 
L 406.290441 -224.056931 
L 413.23015 -225.210392 
L 420.355631 -226.363854 
L 427.177243 -227.517316 
L 433.328783 -228.670777 
L 438.58638 -229.824239 
L 442.86147 -230.977701 
L 446.175375 -232.131162 
L 448.624911 -233.284624 
L 450.347607 -234.438086 
L 451.492533 -235.591547 
L 452.199657 -236.745009 
L 452.587919 -237.898471 
L 452.750542 -239.051932 
L 452.755393 -240.205394 
L 452.648349 -241.358856 
L 452.458129 -242.512317 
L 452.20162 -243.665779 
L 451.889119 -244.819241 
L 451.52903 -245.972702 
L 451.131566 -247.126164 
L 450.710974 -248.279626 
L 450.285895 -249.433088 
L 449.877791 -250.586549 
L 449.507822 -251.740011 
L 449.193032 -252.893473 
L 448.943004 -254.046934 
L 448.758118 -255.200396 
L 448.630126 -256.353858 
L 448.545069 -257.507319 
L 448.487781 -258.660781 
L 448.44668 -259.814243 
L 448.417396 -260.967704 
L 448.404137 -262.121166 
L 448.418425 -263.274628 
L 448.475677 -264.428089 
L 448.590774 -265.581551 
L 448.773967 -266.735013 
L 449.02828 -267.888474 
L 449.34891 -269.041936 
L 449.724492 -270.195398 
L 450.139487 -271.348859 
L 450.57681 -272.502321 
L 451.019929 -273.655783 
L 451.454083 -274.809245 
L 451.866684 -275.962706 
L 452.247266 -277.116168 
L 452.587396 -278.26963 
L 452.880802 -279.423091 
L 453.123745 -280.576553 
L 453.315402 -281.730015 
L 453.45799 -282.883476 
L 453.556409 -284.036938 
L 453.617369 -285.1904 
L 453.648228 -286.343861 
L 453.655842 -287.497323 
L 453.645806 -288.650785 
L 453.62227 -289.804246 
L 453.588338 -290.957708 
L 453.546813 -292.11117 
L 453.500936 -293.264631 
L 453.454783 -294.418093 
L 453.413115 -295.571555 
L 453.380748 -296.725016 
L 453.361668 -297.878478 
L 453.358278 -299.03194 
L 453.37106 -300.185402 
L 453.398811 -301.338863 
L 453.439349 -302.492325 
L 453.490397 -303.645787 
L 453.550312 -304.799248 
L 453.618384 -305.95271 
L 453.694627 -307.106172 
L 453.779184 -308.259633 
L 453.871622 -309.413095 
L 453.970402 -310.566557 
L 454.072724 -311.720018 
L 454.174803 -312.87348 
L 454.272464 -314.026942 
L 454.361843 -315.180403 
L 454.439999 -316.333865 
L 454.505272 -317.487327 
L 454.557341 -318.640788 
L 454.597027 -319.79425 
L 454.762973 -319.79425 
L 454.762973 -319.79425 
L 454.802659 -318.640788 
L 454.854728 -317.487327 
L 454.920001 -316.333865 
L 454.998157 -315.180403 
L 455.087536 -314.026942 
L 455.185197 -312.87348 
L 455.287276 -311.720018 
L 455.389598 -310.566557 
L 455.488378 -309.413095 
L 455.580816 -308.259633 
L 455.665373 -307.106172 
L 455.741616 -305.95271 
L 455.809688 -304.799248 
L 455.869603 -303.645787 
L 455.920651 -302.492325 
L 455.961189 -301.338863 
L 455.98894 -300.185402 
L 456.001722 -299.03194 
L 455.998332 -297.878478 
L 455.979252 -296.725016 
L 455.946885 -295.571555 
L 455.905217 -294.418093 
L 455.859064 -293.264631 
L 455.813187 -292.11117 
L 455.771662 -290.957708 
L 455.73773 -289.804246 
L 455.714194 -288.650785 
L 455.704158 -287.497323 
L 455.711772 -286.343861 
L 455.742631 -285.1904 
L 455.803591 -284.036938 
L 455.90201 -282.883476 
L 456.044598 -281.730015 
L 456.236255 -280.576553 
L 456.479198 -279.423091 
L 456.772604 -278.26963 
L 457.112734 -277.116168 
L 457.493316 -275.962706 
L 457.905917 -274.809245 
L 458.340071 -273.655783 
L 458.78319 -272.502321 
L 459.220513 -271.348859 
L 459.635508 -270.195398 
L 460.01109 -269.041936 
L 460.33172 -267.888474 
L 460.586033 -266.735013 
L 460.769226 -265.581551 
L 460.884323 -264.428089 
L 460.941575 -263.274628 
L 460.955863 -262.121166 
L 460.942604 -260.967704 
L 460.91332 -259.814243 
L 460.872219 -258.660781 
L 460.814931 -257.507319 
L 460.729874 -256.353858 
L 460.601882 -255.200396 
L 460.416996 -254.046934 
L 460.166968 -252.893473 
L 459.852178 -251.740011 
L 459.482209 -250.586549 
L 459.074105 -249.433088 
L 458.649026 -248.279626 
L 458.228434 -247.126164 
L 457.83097 -245.972702 
L 457.470881 -244.819241 
L 457.15838 -243.665779 
L 456.901871 -242.512317 
L 456.711651 -241.358856 
L 456.604607 -240.205394 
L 456.609458 -239.051932 
L 456.772081 -237.898471 
L 457.160343 -236.745009 
L 457.867467 -235.591547 
L 459.012393 -234.438086 
L 460.735089 -233.284624 
L 463.184625 -232.131162 
L 466.49853 -230.977701 
L 470.77362 -229.824239 
L 476.031217 -228.670777 
L 482.182757 -227.517316 
L 489.004369 -226.363854 
L 496.12985 -225.210392 
L 503.069559 -224.056931 
L 509.257914 -222.903469 
L 514.125133 -221.750007 
L 517.181554 -220.596545 
L 518.0976 -219.443084 
L 516.761436 -218.289622 
L 513.300389 -217.13616 
L 508.060508 -215.982699 
L 501.548781 -214.829237 
L 494.351425 -213.675775 
L 487.04658 -212.522314 
L 480.129375 -211.368852 
L 473.962331 -210.21539 
L 468.756309 -209.061929 
L 464.579503 -207.908467 
L 461.386337 -206.755005 
L 459.055826 -205.601544 
z
" style="stroke: #595959; stroke-width: 1.25"/>
    </defs>
    <g clip-path="url(#p9af5c3242a)">
     <use xlink:href="#m997b0293ce" x="0" y="432" style="fill: #95a3c3; stroke: #595959; stroke-width: 1.25"/>
    </g>
   </g>
   <g id="PolyCollection_4">
    <defs>
     <path id="m51b7b2dcc1" d="M 617.285047 -234.328145 
L 609.162953 -234.328145 
L 605.929551 -235.885511 
L 601.023275 -237.442877 
L 594.214096 -239.000243 
L 585.620114 -240.55761 
L 575.84805 -242.114976 
L 566.003243 -243.672342 
L 557.512621 -245.229709 
L 551.783052 -246.787075 
L 549.8064 -248.344441 
L 551.867215 -249.901807 
L 557.474498 -251.459174 
L 565.539445 -253.01654 
L 574.712833 -254.573906 
L 583.739306 -256.131273 
L 591.704929 -257.688639 
L 598.125493 -259.246005 
L 602.89809 -260.803371 
L 606.180147 -262.360738 
L 608.259974 -263.918104 
L 609.457292 -265.47547 
L 610.063397 -267.032837 
L 610.313075 -268.590203 
L 610.376192 -270.147569 
L 610.360675 -271.704936 
L 610.323406 -273.262302 
L 610.287128 -274.819668 
L 610.259785 -276.377034 
L 610.250454 -277.934401 
L 610.276353 -279.491767 
L 610.35925 -281.049133 
L 610.514943 -282.6065 
L 610.742855 -284.163866 
L 611.021882 -285.721232 
L 611.314321 -287.278598 
L 611.574961 -288.835965 
L 611.760444 -290.393331 
L 611.835567 -291.950697 
L 611.776657 -293.508064 
L 611.574522 -295.06543 
L 611.239091 -296.622796 
L 610.804759 -298.180162 
L 610.332213 -299.737529 
L 609.901776 -301.294895 
L 609.596625 -302.852261 
L 609.480064 -304.409628 
L 609.575821 -305.966994 
L 609.860526 -307.52436 
L 610.272327 -309.081726 
L 610.731968 -310.639093 
L 611.167124 -312.196459 
L 611.530302 -313.753825 
L 611.804899 -315.311192 
L 611.999905 -316.868558 
L 612.138129 -318.425924 
L 612.244007 -319.98329 
L 612.335515 -321.540657 
L 612.421775 -323.098023 
L 612.505216 -324.655389 
L 612.585564 -326.212756 
L 612.66295 -327.770122 
L 612.738744 -329.327488 
L 612.814433 -330.884854 
L 612.889936 -332.442221 
L 612.962757 -333.999587 
L 613.028465 -335.556953 
L 613.08205 -337.11432 
L 613.119263 -338.671686 
L 613.137388 -340.229052 
L 613.135459 -341.786418 
L 613.114333 -343.343785 
L 613.076973 -344.901151 
L 613.028841 -346.458517 
L 612.977907 -348.015884 
L 612.933701 -349.57325 
L 612.905343 -351.130616 
L 612.89908 -352.687982 
L 612.916391 -354.245349 
L 612.953563 -355.802715 
L 613.002955 -357.360081 
L 613.05536 -358.917448 
L 613.102383 -360.474814 
L 613.137906 -362.03218 
L 613.158356 -363.589546 
L 613.162149 -365.146913 
L 613.149033 -366.704279 
L 613.119937 -368.261645 
L 613.077452 -369.819012 
L 613.026529 -371.376378 
L 612.974657 -372.933744 
L 612.930939 -374.491111 
L 612.904048 -376.048477 
L 612.899733 -377.605843 
L 612.918981 -379.163209 
L 612.957723 -380.720576 
L 613.008269 -382.277942 
L 613.061795 -383.835308 
L 613.110816 -385.392675 
L 613.150704 -386.950041 
L 613.179951 -388.507407 
L 613.268049 -388.507407 
L 613.268049 -388.507407 
L 613.297296 -386.950041 
L 613.337184 -385.392675 
L 613.386205 -383.835308 
L 613.439731 -382.277942 
L 613.490277 -380.720576 
L 613.529019 -379.163209 
L 613.548267 -377.605843 
L 613.543952 -376.048477 
L 613.517061 -374.491111 
L 613.473343 -372.933744 
L 613.421471 -371.376378 
L 613.370548 -369.819012 
L 613.328063 -368.261645 
L 613.298967 -366.704279 
L 613.285851 -365.146913 
L 613.289644 -363.589546 
L 613.310094 -362.03218 
L 613.345617 -360.474814 
L 613.39264 -358.917448 
L 613.445045 -357.360081 
L 613.494437 -355.802715 
L 613.531609 -354.245349 
L 613.54892 -352.687982 
L 613.542657 -351.130616 
L 613.514299 -349.57325 
L 613.470093 -348.015884 
L 613.419159 -346.458517 
L 613.371027 -344.901151 
L 613.333667 -343.343785 
L 613.312541 -341.786418 
L 613.310612 -340.229052 
L 613.328737 -338.671686 
L 613.36595 -337.11432 
L 613.419535 -335.556953 
L 613.485243 -333.999587 
L 613.558064 -332.442221 
L 613.633567 -330.884854 
L 613.709256 -329.327488 
L 613.78505 -327.770122 
L 613.862436 -326.212756 
L 613.942784 -324.655389 
L 614.026225 -323.098023 
L 614.112485 -321.540657 
L 614.203993 -319.98329 
L 614.309871 -318.425924 
L 614.448095 -316.868558 
L 614.643101 -315.311192 
L 614.917698 -313.753825 
L 615.280876 -312.196459 
L 615.716032 -310.639093 
L 616.175673 -309.081726 
L 616.587474 -307.52436 
L 616.872179 -305.966994 
L 616.967936 -304.409628 
L 616.851375 -302.852261 
L 616.546224 -301.294895 
L 616.115787 -299.737529 
L 615.643241 -298.180162 
L 615.208909 -296.622796 
L 614.873478 -295.06543 
L 614.671343 -293.508064 
L 614.612433 -291.950697 
L 614.687556 -290.393331 
L 614.873039 -288.835965 
L 615.133679 -287.278598 
L 615.426118 -285.721232 
L 615.705145 -284.163866 
L 615.933057 -282.6065 
L 616.08875 -281.049133 
L 616.171647 -279.491767 
L 616.197546 -277.934401 
L 616.188215 -276.377034 
L 616.160872 -274.819668 
L 616.124594 -273.262302 
L 616.087325 -271.704936 
L 616.071808 -270.147569 
L 616.134925 -268.590203 
L 616.384603 -267.032837 
L 616.990708 -265.47547 
L 618.188026 -263.918104 
L 620.267853 -262.360738 
L 623.54991 -260.803371 
L 628.322507 -259.246005 
L 634.743071 -257.688639 
L 642.708694 -256.131273 
L 651.735167 -254.573906 
L 660.908555 -253.01654 
L 668.973502 -251.459174 
L 674.580785 -249.901807 
L 676.6416 -248.344441 
L 674.664948 -246.787075 
L 668.935379 -245.229709 
L 660.444757 -243.672342 
L 650.59995 -242.114976 
L 640.827886 -240.55761 
L 632.233904 -239.000243 
L 625.424725 -237.442877 
L 620.518449 -235.885511 
L 617.285047 -234.328145 
z
" style="stroke: #595959; stroke-width: 1.25"/>
    </defs>
    <g clip-path="url(#p9af5c3242a)">
     <use xlink:href="#m51b7b2dcc1" x="0" y="432" style="fill: #db96c0; stroke: #595959; stroke-width: 1.25"/>
    </g>
   </g>
   <g id="PolyCollection_5">
    <defs>
     <path id="mf4824f0a92" d="M 776.440172 -213.465264 
L 767.095828 -213.465264 
L 764.668609 -214.656009 
L 761.37365 -215.846754 
L 757.102244 -217.037499 
L 751.824291 -218.228244 
L 745.623969 -219.418989 
L 738.724695 -220.609734 
L 731.49376 -221.800479 
L 724.419778 -222.991224 
L 718.061793 -224.181969 
L 712.976251 -225.372714 
L 709.634866 -226.563459 
L 708.3504 -227.754204 
L 709.226766 -228.944949 
L 712.144627 -230.135694 
L 716.785157 -231.326439 
L 722.685582 -232.517184 
L 729.313146 -233.707929 
L 736.141343 -234.898674 
L 742.713798 -236.089419 
L 748.686221 -237.280164 
L 753.843279 -238.470909 
L 758.093041 -239.661654 
L 761.445509 -240.852399 
L 763.98303 -242.043144 
L 765.829616 -243.233889 
L 767.124162 -244.424634 
L 768.000204 -245.615379 
L 768.572889 -246.806124 
L 768.93251 -247.996868 
L 769.143325 -249.187613 
L 769.246184 -250.378358 
L 769.263586 -251.569103 
L 769.20588 -252.759848 
L 769.077525 -253.950593 
L 768.882458 -255.141338 
L 768.627826 -256.332083 
L 768.325629 -257.522828 
L 767.992169 -258.713573 
L 767.645645 -259.904318 
L 767.302595 -261.095063 
L 766.97422 -262.285808 
L 766.663739 -263.476553 
L 766.365743 -264.667298 
L 766.068101 -265.858043 
L 765.756258 -267.048788 
L 765.419023 -268.239533 
L 765.054353 -269.430278 
L 764.673398 -270.621023 
L 764.301382 -271.811768 
L 763.974729 -273.002513 
L 763.734875 -274.193258 
L 763.620259 -275.384003 
L 763.658568 -276.574748 
L 763.861246 -277.765493 
L 764.221588 -278.956238 
L 764.716667 -280.146983 
L 765.31223 -281.337728 
L 765.969027 -282.528473 
L 766.648835 -283.719218 
L 767.318901 -284.909963 
L 767.954212 -286.100708 
L 768.537776 -287.291453 
L 769.059567 -288.482198 
L 769.514947 -289.672942 
L 769.903167 -290.863687 
L 770.226251 -292.054432 
L 770.488225 -293.245177 
L 770.694521 -294.435922 
L 770.851383 -295.626667 
L 770.965242 -296.817412 
L 771.042133 -298.008157 
L 771.087324 -299.198902 
L 771.105273 -300.389647 
L 771.099901 -301.580392 
L 771.075052 -302.771137 
L 771.034927 -303.961882 
L 770.984276 -305.152627 
L 770.928246 -306.343372 
L 770.871937 -307.534117 
L 770.819828 -308.724862 
L 770.775318 -309.915607 
L 770.740574 -311.106352 
L 770.716744 -312.297097 
L 770.704448 -313.487842 
L 770.704314 -314.678587 
L 770.717338 -315.869332 
L 770.74487 -317.060077 
L 770.788223 -318.250822 
L 770.84804 -319.441567 
L 770.923665 -320.632312 
L 771.012765 -321.823057 
L 771.111369 -323.013802 
L 771.214325 -324.204547 
L 771.316061 -325.395292 
L 771.411419 -326.586037 
L 771.496362 -327.776782 
L 771.568384 -328.967527 
L 771.626589 -330.158272 
L 771.671477 -331.349017 
L 771.864523 -331.349017 
L 771.864523 -331.349017 
L 771.909411 -330.158272 
L 771.967616 -328.967527 
L 772.039638 -327.776782 
L 772.124581 -326.586037 
L 772.219939 -325.395292 
L 772.321675 -324.204547 
L 772.424631 -323.013802 
L 772.523235 -321.823057 
L 772.612335 -320.632312 
L 772.68796 -319.441567 
L 772.747777 -318.250822 
L 772.79113 -317.060077 
L 772.818662 -315.869332 
L 772.831686 -314.678587 
L 772.831552 -313.487842 
L 772.819256 -312.297097 
L 772.795426 -311.106352 
L 772.760682 -309.915607 
L 772.716172 -308.724862 
L 772.664063 -307.534117 
L 772.607754 -306.343372 
L 772.551724 -305.152627 
L 772.501073 -303.961882 
L 772.460948 -302.771137 
L 772.436099 -301.580392 
L 772.430727 -300.389647 
L 772.448676 -299.198902 
L 772.493867 -298.008157 
L 772.570758 -296.817412 
L 772.684617 -295.626667 
L 772.841479 -294.435922 
L 773.047775 -293.245177 
L 773.309749 -292.054432 
L 773.632833 -290.863687 
L 774.021053 -289.672942 
L 774.476433 -288.482198 
L 774.998224 -287.291453 
L 775.581788 -286.100708 
L 776.217099 -284.909963 
L 776.887165 -283.719218 
L 777.566973 -282.528473 
L 778.22377 -281.337728 
L 778.819333 -280.146983 
L 779.314412 -278.956238 
L 779.674754 -277.765493 
L 779.877432 -276.574748 
L 779.915741 -275.384003 
L 779.801125 -274.193258 
L 779.561271 -273.002513 
L 779.234618 -271.811768 
L 778.862602 -270.621023 
L 778.481647 -269.430278 
L 778.116977 -268.239533 
L 777.779742 -267.048788 
L 777.467899 -265.858043 
L 777.170257 -264.667298 
L 776.872261 -263.476553 
L 776.56178 -262.285808 
L 776.233405 -261.095063 
L 775.890355 -259.904318 
L 775.543831 -258.713573 
L 775.210371 -257.522828 
L 774.908174 -256.332083 
L 774.653542 -255.141338 
L 774.458475 -253.950593 
L 774.33012 -252.759848 
L 774.272414 -251.569103 
L 774.289816 -250.378358 
L 774.392675 -249.187613 
L 774.60349 -247.996868 
L 774.963111 -246.806124 
L 775.535796 -245.615379 
L 776.411838 -244.424634 
L 777.706384 -243.233889 
L 779.55297 -242.043144 
L 782.090491 -240.852399 
L 785.442959 -239.661654 
L 789.692721 -238.470909 
L 794.849779 -237.280164 
L 800.822202 -236.089419 
L 807.394657 -234.898674 
L 814.222854 -233.707929 
L 820.850418 -232.517184 
L 826.750843 -231.326439 
L 831.391373 -230.135694 
L 834.309234 -228.944949 
L 835.1856 -227.754204 
L 833.901134 -226.563459 
L 830.559749 -225.372714 
L 825.474207 -224.181969 
L 819.116222 -222.991224 
L 812.04224 -221.800479 
L 804.811305 -220.609734 
L 797.912031 -219.418989 
L 791.711709 -218.228244 
L 786.433756 -217.037499 
L 782.16235 -215.846754 
L 778.867391 -214.656009 
L 776.440172 -213.465264 
z
" style="stroke: #595959; stroke-width: 1.25"/>
    </defs>
    <g clip-path="url(#p9af5c3242a)">
     <use xlink:href="#mf4824f0a92" x="0" y="432" style="fill: #a2c865; stroke: #595959; stroke-width: 1.25"/>
    </g>
   </g>
   <g id="line2d_7">
    <path d="M 137.592 355.672217 
L 137.592 356.777334 
" clip-path="url(#p9af5c3242a)" style="fill: none; stroke: #000000"/>
   </g>
   <g id="line2d_8">
    <path d="M 137.592 354.638143 
L 137.592 353.398833 
" clip-path="url(#p9af5c3242a)" style="fill: none; stroke: #000000"/>
   </g>
   <g id="line2d_9">
    <path d="M 131.6466 356.777334 
L 143.5374 356.777334 
" clip-path="url(#p9af5c3242a)" style="fill: none; stroke: #000000; stroke-linecap: round"/>
   </g>
   <g id="line2d_10">
    <path d="M 131.6466 353.398833 
L 143.5374 353.398833 
" clip-path="url(#p9af5c3242a)" style="fill: none; stroke: #000000; stroke-linecap: round"/>
   </g>
   <g id="line2d_11">
    <path d="M 296.136 359.966387 
L 296.136 360.661032 
" clip-path="url(#p9af5c3242a)" style="fill: none; stroke: #000000"/>
   </g>
   <g id="line2d_12">
    <path d="M 296.136 359.050718 
L 296.136 357.724577 
" clip-path="url(#p9af5c3242a)" style="fill: none; stroke: #000000"/>
   </g>
   <g id="line2d_13">
    <path d="M 290.1906 360.661032 
L 302.0814 360.661032 
" clip-path="url(#p9af5c3242a)" style="fill: none; stroke: #000000; stroke-linecap: round"/>
   </g>
   <g id="line2d_14">
    <path d="M 290.1906 357.724577 
L 302.0814 357.724577 
" clip-path="url(#p9af5c3242a)" style="fill: none; stroke: #000000; stroke-linecap: round"/>
   </g>
   <g id="line2d_15">
    <path d="M 454.68 213.522577 
L 454.68 214.722418 
" clip-path="url(#p9af5c3242a)" style="fill: none; stroke: #000000"/>
   </g>
   <g id="line2d_16">
    <path d="M 454.68 209.481005 
L 454.68 203.608097 
" clip-path="url(#p9af5c3242a)" style="fill: none; stroke: #000000"/>
   </g>
   <g id="line2d_17">
    <path d="M 448.7346 214.722418 
L 460.6254 214.722418 
" clip-path="url(#p9af5c3242a)" style="fill: none; stroke: #000000; stroke-linecap: round"/>
   </g>
   <g id="line2d_18">
    <path d="M 448.7346 203.608097 
L 460.6254 203.608097 
" clip-path="url(#p9af5c3242a)" style="fill: none; stroke: #000000; stroke-linecap: round"/>
   </g>
   <g id="line2d_19">
    <path d="M 613.224 184.91583 
L 613.224 186.273545 
" clip-path="url(#p9af5c3242a)" style="fill: none; stroke: #000000"/>
   </g>
   <g id="line2d_20">
    <path d="M 613.224 180.716385 
L 613.224 175.411822 
" clip-path="url(#p9af5c3242a)" style="fill: none; stroke: #000000"/>
   </g>
   <g id="line2d_21">
    <path d="M 607.2786 186.273545 
L 619.1694 186.273545 
" clip-path="url(#p9af5c3242a)" style="fill: none; stroke: #000000; stroke-linecap: round"/>
   </g>
   <g id="line2d_22">
    <path d="M 607.2786 175.411822 
L 619.1694 175.411822 
" clip-path="url(#p9af5c3242a)" style="fill: none; stroke: #000000; stroke-linecap: round"/>
   </g>
   <g id="line2d_23">
    <path d="M 771.768 205.407859 
L 771.768 206.418252 
" clip-path="url(#p9af5c3242a)" style="fill: none; stroke: #000000"/>
   </g>
   <g id="line2d_24">
    <path d="M 771.768 199.377077 
L 771.768 194.009365 
" clip-path="url(#p9af5c3242a)" style="fill: none; stroke: #000000"/>
   </g>
   <g id="line2d_25">
    <path d="M 765.8226 206.418252 
L 777.7134 206.418252 
" clip-path="url(#p9af5c3242a)" style="fill: none; stroke: #000000; stroke-linecap: round"/>
   </g>
   <g id="line2d_26">
    <path d="M 765.8226 194.009365 
L 777.7134 194.009365 
" clip-path="url(#p9af5c3242a)" style="fill: none; stroke: #000000; stroke-linecap: round"/>
   </g>
   <g id="line2d_27">
    <path d="M 125.7012 355.324894 
L 149.4828 355.324894 
" clip-path="url(#p9af5c3242a)" style="fill: none; stroke: #ff0000; stroke-width: 2"/>
   </g>
   <g id="line2d_28">
    <path d="M 284.2452 359.682214 
L 308.0268 359.682214 
" clip-path="url(#p9af5c3242a)" style="fill: none; stroke: #ff0000; stroke-width: 2"/>
   </g>
   <g id="line2d_29">
    <path d="M 442.7892 212.480609 
L 466.5708 212.480609 
" clip-path="url(#p9af5c3242a)" style="fill: none; stroke: #ff0000; stroke-width: 2"/>
   </g>
   <g id="line2d_30">
    <path d="M 601.3332 183.842287 
L 625.1148 183.842287 
" clip-path="url(#p9af5c3242a)" style="fill: none; stroke: #ff0000; stroke-width: 2"/>
   </g>
   <g id="line2d_31">
    <path d="M 759.8772 204.176443 
L 783.6588 204.176443 
" clip-path="url(#p9af5c3242a)" style="fill: none; stroke: #ff0000; stroke-width: 2"/>
   </g>
   <g id="patch_3">
    <path d="M 58.32 377.237044 
L 58.32 27.6 
" style="fill: none; stroke: #cccccc; stroke-width: 1.25; stroke-linejoin: miter; stroke-linecap: square"/>
   </g>
   <g id="patch_4">
    <path d="M 851.04 377.237044 
L 851.04 27.6 
" style="fill: none; stroke: #cccccc; stroke-width: 1.25; stroke-linejoin: miter; stroke-linecap: square"/>
   </g>
   <g id="patch_5">
    <path d="M 58.32 377.237044 
L 851.04 377.237044 
" style="fill: none; stroke: #cccccc; stroke-width: 1.25; stroke-linejoin: miter; stroke-linecap: square"/>
   </g>
   <g id="patch_6">
    <path d="M 58.32 27.6 
L 851.04 27.6 
" style="fill: none; stroke: #cccccc; stroke-width: 1.25; stroke-linejoin: miter; stroke-linecap: square"/>
   </g>
   <g id="text_13">
    <!-- Handshake duration on QUIC with mldsa65 signature algorithm — Degraded (200ms/10%) -->
    <g style="fill: #262626" transform="translate(182.723437 21.6) scale(0.12 -0.12)">
     <defs>
      <path id="DejaVuSans-51" d="M 2522 4238 
Q 1834 4238 1429 3725 
Q 1025 3213 1025 2328 
Q 1025 1447 1429 934 
Q 1834 422 2522 422 
Q 3209 422 3611 934 
Q 4013 1447 4013 2328 
Q 4013 3213 3611 3725 
Q 3209 4238 2522 4238 
z
M 3406 84 
L 4238 -825 
L 3475 -825 
L 2784 -78 
Q 2681 -84 2626 -87 
Q 2572 -91 2522 -91 
Q 1538 -91 948 567 
Q 359 1225 359 2328 
Q 359 3434 948 4092 
Q 1538 4750 2522 4750 
Q 3503 4750 4090 4092 
Q 4678 3434 4678 2328 
Q 4678 1516 4351 937 
Q 4025 359 3406 84 
z
" transform="scale(0.015625)"/>
      <path id="DejaVuSans-55" d="M 556 4666 
L 1191 4666 
L 1191 1831 
Q 1191 1081 1462 751 
Q 1734 422 2344 422 
Q 2950 422 3222 751 
Q 3494 1081 3494 1831 
L 3494 4666 
L 4128 4666 
L 4128 1753 
Q 4128 841 3676 375 
Q 3225 -91 2344 -91 
Q 1459 -91 1007 375 
Q 556 841 556 1753 
L 556 4666 
z
" transform="scale(0.015625)"/>
      <path id="DejaVuSans-49" d="M 628 4666 
L 1259 4666 
L 1259 0 
L 628 0 
L 628 4666 
z
" transform="scale(0.015625)"/>
      <path id="DejaVuSans-43" d="M 4122 4306 
L 4122 3641 
Q 3803 3938 3442 4084 
Q 3081 4231 2675 4231 
Q 1875 4231 1450 3742 
Q 1025 3253 1025 2328 
Q 1025 1406 1450 917 
Q 1875 428 2675 428 
Q 3081 428 3442 575 
Q 3803 722 4122 1019 
L 4122 359 
Q 3791 134 3420 21 
Q 3050 -91 2638 -91 
Q 1578 -91 968 557 
Q 359 1206 359 2328 
Q 359 3453 968 4101 
Q 1578 4750 2638 4750 
Q 3056 4750 3426 4639 
Q 3797 4528 4122 4306 
z
" transform="scale(0.015625)"/>
      <path id="DejaVuSans-77" d="M 269 3500 
L 844 3500 
L 1563 769 
L 2278 3500 
L 2956 3500 
L 3675 769 
L 4391 3500 
L 4966 3500 
L 4050 0 
L 3372 0 
L 2619 2869 
L 1863 0 
L 1184 0 
L 269 3500 
z
" transform="scale(0.015625)"/>
      <path id="DejaVuSans-6c" d="M 603 4863 
L 1178 4863 
L 1178 0 
L 603 0 
L 603 4863 
z
" transform="scale(0.015625)"/>
      <path id="DejaVuSans-35" d="M 691 4666 
L 3169 4666 
L 3169 4134 
L 1269 4134 
L 1269 2991 
Q 1406 3038 1543 3061 
Q 1681 3084 1819 3084 
Q 2600 3084 3056 2656 
Q 3513 2228 3513 1497 
Q 3513 744 3044 326 
Q 2575 -91 1722 -91 
Q 1428 -91 1123 -41 
Q 819 9 494 109 
L 494 744 
Q 775 591 1075 516 
Q 1375 441 1709 441 
Q 2250 441 2565 725 
Q 2881 1009 2881 1497 
Q 2881 1984 2565 2268 
Q 2250 2553 1709 2553 
Q 1456 2553 1204 2497 
Q 953 2441 691 2322 
L 691 4666 
z
" transform="scale(0.015625)"/>
      <path id="DejaVuSans-67" d="M 2906 1791 
Q 2906 2416 2648 2759 
Q 2391 3103 1925 3103 
Q 1463 3103 1205 2759 
Q 947 2416 947 1791 
Q 947 1169 1205 825 
Q 1463 481 1925 481 
Q 2391 481 2648 825 
Q 2906 1169 2906 1791 
z
M 3481 434 
Q 3481 -459 3084 -895 
Q 2688 -1331 1869 -1331 
Q 1566 -1331 1297 -1286 
Q 1028 -1241 775 -1147 
L 775 -588 
Q 1028 -725 1275 -790 
Q 1522 -856 1778 -856 
Q 2344 -856 2625 -561 
Q 2906 -266 2906 331 
L 2906 616 
Q 2728 306 2450 153 
Q 2172 0 1784 0 
Q 1141 0 747 490 
Q 353 981 353 1791 
Q 353 2603 747 3093 
Q 1141 3584 1784 3584 
Q 2172 3584 2450 3431 
Q 2728 3278 2906 2969 
L 2906 3500 
L 3481 3500 
L 3481 434 
z
" transform="scale(0.015625)"/>
      <path id="DejaVuSans-2014" d="M 313 1978 
L 6088 1978 
L 6088 1528 
L 313 1528 
L 313 1978 
z
" transform="scale(0.015625)"/>
      <path id="DejaVuSans-44" d="M 1259 4147 
L 1259 519 
L 2022 519 
Q 2988 519 3436 956 
Q 3884 1394 3884 2338 
Q 3884 3275 3436 3711 
Q 2988 4147 2022 4147 
L 1259 4147 
z
M 628 4666 
L 1925 4666 
Q 3281 4666 3915 4102 
Q 4550 3538 4550 2338 
Q 4550 1131 3912 565 
Q 3275 0 1925 0 
L 628 0 
L 628 4666 
z
" transform="scale(0.015625)"/>
      <path id="DejaVuSans-2f" d="M 1625 4666 
L 2156 4666 
L 531 -594 
L 0 -594 
L 1625 4666 
z
" transform="scale(0.015625)"/>
      <path id="DejaVuSans-25" d="M 4653 2053 
Q 4381 2053 4226 1822 
Q 4072 1591 4072 1178 
Q 4072 772 4226 539 
Q 4381 306 4653 306 
Q 4919 306 5073 539 
Q 5228 772 5228 1178 
Q 5228 1588 5073 1820 
Q 4919 2053 4653 2053 
z
M 4653 2450 
Q 5147 2450 5437 2106 
Q 5728 1763 5728 1178 
Q 5728 594 5436 251 
Q 5144 -91 4653 -91 
Q 4153 -91 3862 251 
Q 3572 594 3572 1178 
Q 3572 1766 3864 2108 
Q 4156 2450 4653 2450 
z
M 1428 4353 
Q 1159 4353 1004 4120 
Q 850 3888 850 3481 
Q 850 3069 1003 2837 
Q 1156 2606 1428 2606 
Q 1700 2606 1854 2837 
Q 2009 3069 2009 3481 
Q 2009 3884 1853 4118 
Q 1697 4353 1428 4353 
z
M 4250 4750 
L 4750 4750 
L 1831 -91 
L 1331 -91 
L 4250 4750 
z
M 1428 4750 
Q 1922 4750 2215 4408 
Q 2509 4066 2509 3481 
Q 2509 2891 2217 2550 
Q 1925 2209 1428 2209 
Q 931 2209 642 2551 
Q 353 2894 353 3481 
Q 353 4063 643 4406 
Q 934 4750 1428 4750 
z
" transform="scale(0.015625)"/>
     </defs>
     <use xlink:href="#DejaVuSans-48"/>
     <use xlink:href="#DejaVuSans-61" x="75.195312"/>
     <use xlink:href="#DejaVuSans-6e" x="136.474609"/>
     <use xlink:href="#DejaVuSans-64" x="199.853516"/>
     <use xlink:href="#DejaVuSans-73" x="263.330078"/>
     <use xlink:href="#DejaVuSans-68" x="315.429688"/>
     <use xlink:href="#DejaVuSans-61" x="378.808594"/>
     <use xlink:href="#DejaVuSans-6b" x="440.087891"/>
     <use xlink:href="#DejaVuSans-65" x="494.373047"/>
     <use xlink:href="#DejaVuSans-20" x="555.896484"/>
     <use xlink:href="#DejaVuSans-64" x="587.683594"/>
     <use xlink:href="#DejaVuSans-75" x="651.160156"/>
     <use xlink:href="#DejaVuSans-72" x="714.539062"/>
     <use xlink:href="#DejaVuSans-61" x="755.652344"/>
     <use xlink:href="#DejaVuSans-74" x="816.931641"/>
     <use xlink:href="#DejaVuSans-69" x="856.140625"/>
     <use xlink:href="#DejaVuSans-6f" x="883.923828"/>
     <use xlink:href="#DejaVuSans-6e" x="945.105469"/>
     <use xlink:href="#DejaVuSans-20" x="1008.484375"/>
     <use xlink:href="#DejaVuSans-6f" x="1040.271484"/>
     <use xlink:href="#DejaVuSans-6e" x="1101.453125"/>
     <use xlink:href="#DejaVuSans-20" x="1164.832031"/>
     <use xlink:href="#DejaVuSans-51" x="1196.619141"/>
     <use xlink:href="#DejaVuSans-55" x="1275.330078"/>
     <use xlink:href="#DejaVuSans-49" x="1348.523438"/>
     <use xlink:href="#DejaVuSans-43" x="1378.015625"/>
     <use xlink:href="#DejaVuSans-20" x="1447.839844"/>
     <use xlink:href="#DejaVuSans-77" x="1479.626953"/>
     <use xlink:href="#DejaVuSans-69" x="1561.414062"/>
     <use xlink:href="#DejaVuSans-74" x="1589.197266"/>
     <use xlink:href="#DejaVuSans-68" x="1628.40625"/>
     <use xlink:href="#DejaVuSans-20" x="1691.785156"/>
     <use xlink:href="#DejaVuSans-6d" x="1723.572266"/>
     <use xlink:href="#DejaVuSans-6c" x="1820.984375"/>
     <use xlink:href="#DejaVuSans-64" x="1848.767578"/>
     <use xlink:href="#DejaVuSans-73" x="1912.244141"/>
     <use xlink:href="#DejaVuSans-61" x="1964.34375"/>
     <use xlink:href="#DejaVuSans-36" x="2025.623047"/>
     <use xlink:href="#DejaVuSans-35" x="2089.246094"/>
     <use xlink:href="#DejaVuSans-20" x="2152.869141"/>
     <use xlink:href="#DejaVuSans-73" x="2184.65625"/>
     <use xlink:href="#DejaVuSans-69" x="2236.755859"/>
     <use xlink:href="#DejaVuSans-67" x="2264.539062"/>
     <use xlink:href="#DejaVuSans-6e" x="2328.015625"/>
     <use xlink:href="#DejaVuSans-61" x="2391.394531"/>
     <use xlink:href="#DejaVuSans-74" x="2452.673828"/>
     <use xlink:href="#DejaVuSans-75" x="2491.882812"/>
     <use xlink:href="#DejaVuSans-72" x="2555.261719"/>
     <use xlink:href="#DejaVuSans-65" x="2594.125"/>
     <use xlink:href="#DejaVuSans-20" x="2655.648438"/>
     <use xlink:href="#DejaVuSans-61" x="2687.435547"/>
     <use xlink:href="#DejaVuSans-6c" x="2748.714844"/>
     <use xlink:href="#DejaVuSans-67" x="2776.498047"/>
     <use xlink:href="#DejaVuSans-6f" x="2839.974609"/>
     <use xlink:href="#DejaVuSans-72" x="2901.15625"/>
     <use xlink:href="#DejaVuSans-69" x="2942.269531"/>
     <use xlink:href="#DejaVuSans-74" x="2970.052734"/>
     <use xlink:href="#DejaVuSans-68" x="3009.261719"/>
     <use xlink:href="#DejaVuSans-6d" x="3072.640625"/>
     <use xlink:href="#DejaVuSans-20" x="3170.052734"/>
     <use xlink:href="#DejaVuSans-2014" x="3201.839844"/>
     <use xlink:href="#DejaVuSans-20" x="3301.839844"/>
     <use xlink:href="#DejaVuSans-44" x="3333.626953"/>
     <use xlink:href="#DejaVuSans-65" x="3410.628906"/>
     <use xlink:href="#DejaVuSans-67" x="3472.152344"/>
     <use xlink:href="#DejaVuSans-72" x="3535.628906"/>
     <use xlink:href="#DejaVuSans-61" x="3576.742188"/>
     <use xlink:href="#DejaVuSans-64" x="3638.021484"/>
     <use xlink:href="#DejaVuSans-65" x="3701.498047"/>
     <use xlink:href="#DejaVuSans-64" x="3763.021484"/>
     <use xlink:href="#DejaVuSans-20" x="3826.498047"/>
     <use xlink:href="#DejaVuSans-28" x="3858.285156"/>
     <use xlink:href="#DejaVuSans-32" x="3897.298828"/>
     <use xlink:href="#DejaVuSans-30" x="3960.921875"/>
     <use xlink:href="#DejaVuSans-30" x="4024.544922"/>
     <use xlink:href="#DejaVuSans-6d" x="4088.167969"/>
     <use xlink:href="#DejaVuSans-73" x="4185.580078"/>
     <use xlink:href="#DejaVuSans-2f" x="4237.679688"/>
     <use xlink:href="#DejaVuSans-31" x="4271.371094"/>
     <use xlink:href="#DejaVuSans-30" x="4334.994141"/>
     <use xlink:href="#DejaVuSans-25" x="4398.617188"/>
     <use xlink:href="#DejaVuSans-29" x="4493.636719"/>
    </g>
   </g>
  </g>
 </g>
 <defs>
  <clipPath id="p9af5c3242a">
   <rect x="58.32" y="27.6" width="792.72" height="349.637044"/>
  </clipPath>
 </defs>
</svg>
