<?xml version="1.0" encoding="utf-8" standalone="no"?>
<!DOCTYPE svg PUBLIC "-//W3C//DTD SVG 1.1//EN"
  "http://www.w3.org/Graphics/SVG/1.1/DTD/svg11.dtd">
<svg xmlns:xlink="http://www.w3.org/1999/xlink" width="864pt" height="432pt" viewBox="0 0 864 432" xmlns="http://www.w3.org/2000/svg" version="1.1">
 <metadata>
  <rdf:RDF xmlns:dc="http://purl.org/dc/elements/1.1/" xmlns:cc="http://creativecommons.org/ns#" xmlns:rdf="http://www.w3.org/1999/02/22-rdf-syntax-ns#">
   <cc:Work>
    <dc:type rdf:resource="http://purl.org/dc/dcmitype/StillImage"/>
    <dc:date>2026-03-21T14:06:25.302842</dc:date>
    <dc:format>image/svg+xml</dc:format>
    <dc:creator>
     <cc:Agent>
      <dc:title>Matplotlib v3.6.3, https://matplotlib.org/</dc:title>
     </cc:Agent>
    </dc:creator>
   </cc:Work>
  </rdf:RDF>
 </metadata>
 <defs>
  <style type="text/css">*{stroke-linejoin: round; stroke-linecap: butt}</style>
 </defs>
 <g id="figure_1">
  <g id="patch_1">
   <path d="M 0 432 
L 864 432 
L 864 0 
L 0 0 
z
" style="fill: #ffffff"/>
  </g>
  <g id="axes_1">
   <g id="patch_2">
    <path d="M 58.32 377.237044 
L 851.04 377.237044 
L 851.04 27.6 
L 58.32 27.6 
z
" style="fill: #ffffff"/>
   </g>
   <g id="matplotlib.axis_1">
    <g id="xtick_1">
     <g id="text_1">
      <!-- P-521 -->
      <g style="fill: #262626" transform="translate(156.759421 404.396088) rotate(-15) scale(0.12 -0.12)">
       <defs>
        <path id="DejaVuSans-50" d="M 1259 4147 
L 1259 2394 
L 2053 2394 
Q 2494 2394 2734 2622 
Q 2975 2850 2975 3272 
Q 2975 3691 2734 3919 
Q 2494 4147 2053 4147 
L 1259 4147 
z
M 628 4666 
L 2053 4666 
Q 2838 4666 3239 4311 
Q 3641 3956 3641 3272 
Q 3641 2581 3239 2228 
Q 2838 1875 2053 1875 
L 1259 1875 
L 1259 0 
L 628 0 
L 628 4666 
z
" transform="scale(0.015625)"/>
        <path id="DejaVuSans-2d" d="M 313 2009 
L 1997 2009 
L 1997 1497 
L 313 1497 
L 313 2009 
z
" transform="scale(0.015625)"/>
        <path id="DejaVuSans-35" d="M 691 4666 
L 3169 4666 
L 3169 4134 
L 1269 4134 
L 1269 2991 
Q 1406 3038 1543 3061 
Q 1681 3084 1819 3084 
Q 2600 3084 3056 2656 
Q 3513 2228 3513 1497 
Q 3513 744 3044 326 
Q 2575 -91 1722 -91 
Q 1428 -91 1123 -41 
Q 819 9 494 109 
L 494 744 
Q 775 591 1075 516 
Q 1375 441 1709 441 
Q 2250 441 2565 725 
Q 2881 1009 2881 1497 
Q 2881 1984 2565 2268 
Q 2250 2553 1709 2553 
Q 1456 2553 1204 2497 
Q 953 2441 691 2322 
L 691 4666 
z
" transform="scale(0.015625)"/>
        <path id="DejaVuSans-32" d="M 1228 531 
L 3431 531 
L 3431 0 
L 469 0 
L 469 531 
Q 828 903 1448 1529 
Q 2069 2156 2228 2338 
Q 2531 2678 2651 2914 
Q 2772 3150 2772 3378 
Q 2772 3750 2511 3984 
Q 2250 4219 1831 4219 
Q 1534 4219 1204 4116 
Q 875 4013 500 3803 
L 500 4441 
Q 881 4594 1212 4672 
Q 1544 4750 1819 4750 
Q 2544 4750 2975 4387 
Q 3406 4025 3406 3419 
Q 3406 3131 3298 2873 
Q 3191 2616 2906 2266 
Q 2828 2175 2409 1742 
Q 1991 1309 1228 531 
z
" transform="scale(0.015625)"/>
        <path id="DejaVuSans-31" d="M 794 531 
L 1825 531 
L 1825 4091 
L 703 3866 
L 703 4441 
L 1819 4666 
L 2450 4666 
L 2450 531 
L 3481 531 
L 3481 0 
L 794 0 
L 794 531 
z
" transform="scale(0.015625)"/>
       </defs>
       <use xlink:href="#DejaVuSans-50"/>
       <use xlink:href="#DejaVuSans-2d" x="58.052734"/>
       <use xlink:href="#DejaVuSans-35" x="94.136719"/>
       <use xlink:href="#DejaVuSans-32" x="157.759766"/>
       <use xlink:href="#DejaVuSans-31" x="221.382812"/>
      </g>
     </g>
    </g>
    <g id="xtick_2">
     <g id="text_2">
      <!-- hqc256 -->
      <g style="fill: #262626" transform="translate(410.831845 407.120482) rotate(-15) scale(0.12 -0.12)">
       <defs>
        <path id="DejaVuSans-68" d="M 3513 2113 
L 3513 0 
L 2938 0 
L 2938 2094 
Q 2938 2591 2744 2837 
Q 2550 3084 2163 3084 
Q 1697 3084 1428 2787 
Q 1159 2491 1159 1978 
L 1159 0 
L 581 0 
L 581 4863 
L 1159 4863 
L 1159 2956 
Q 1366 3272 1645 3428 
Q 1925 3584 2291 3584 
Q 2894 3584 3203 3211 
Q 3513 2838 3513 2113 
z
" transform="scale(0.015625)"/>
        <path id="DejaVuSans-71" d="M 947 1747 
Q 947 1113 1208 752 
Q 1469 391 1925 391 
Q 2381 391 2643 752 
Q 2906 1113 2906 1747 
Q 2906 2381 2643 2742 
Q 2381 3103 1925 3103 
Q 1469 3103 1208 2742 
Q 947 2381 947 1747 
z
M 2906 525 
Q 2725 213 2448 61 
Q 2172 -91 1784 -91 
Q 1150 -91 751 415 
Q 353 922 353 1747 
Q 353 2572 751 3078 
Q 1150 3584 1784 3584 
Q 2172 3584 2448 3432 
Q 2725 3281 2906 2969 
L 2906 3500 
L 3481 3500 
L 3481 -1331 
L 2906 -1331 
L 2906 525 
z
" transform="scale(0.015625)"/>
        <path id="DejaVuSans-63" d="M 3122 3366 
L 3122 2828 
Q 2878 2963 2633 3030 
Q 2388 3097 2138 3097 
Q 1578 3097 1268 2742 
Q 959 2388 959 1747 
Q 959 1106 1268 751 
Q 1578 397 2138 397 
Q 2388 397 2633 464 
Q 2878 531 3122 666 
L 3122 134 
Q 2881 22 2623 -34 
Q 2366 -91 2075 -91 
Q 1284 -91 818 406 
Q 353 903 353 1747 
Q 353 2603 823 3093 
Q 1294 3584 2113 3584 
Q 2378 3584 2631 3529 
Q 2884 3475 3122 3366 
z
" transform="scale(0.015625)"/>
        <path id="DejaVuSans-36" d="M 2113 2584 
Q 1688 2584 1439 2293 
Q 1191 2003 1191 1497 
Q 1191 994 1439 701 
Q 1688 409 2113 409 
Q 2538 409 2786 701 
Q 3034 994 3034 1497 
Q 3034 2003 2786 2293 
Q 2538 2584 2113 2584 
z
M 3366 4563 
L 3366 3988 
Q 3128 4100 2886 4159 
Q 2644 4219 2406 4219 
Q 1781 4219 1451 3797 
Q 1122 3375 1075 2522 
Q 1259 2794 1537 2939 
Q 1816 3084 2150 3084 
Q 2853 3084 3261 2657 
Q 3669 2231 3669 1497 
Q 3669 778 3244 343 
Q 2819 -91 2113 -91 
Q 1303 -91 875 529 
Q 447 1150 447 2328 
Q 447 3434 972 4092 
Q 1497 4750 2381 4750 
Q 2619 4750 2861 4703 
Q 3103 4656 3366 4563 
z
" transform="scale(0.015625)"/>
       </defs>
       <use xlink:href="#DejaVuSans-68"/>
       <use xlink:href="#DejaVuSans-71" x="63.378906"/>
       <use xlink:href="#DejaVuSans-63" x="126.855469"/>
       <use xlink:href="#DejaVuSans-32" x="181.835938"/>
       <use xlink:href="#DejaVuSans-35" x="245.458984"/>
       <use xlink:href="#DejaVuSans-36" x="309.082031"/>
      </g>
     </g>
    </g>
    <g id="xtick_3">
     <g id="text_3">
      <!-- p521_hqc256 -->
      <g style="fill: #262626" transform="translate(639.706834 416.573362) rotate(-15) scale(0.12 -0.12)">
       <defs>
        <path id="DejaVuSans-70" d="M 1159 525 
L 1159 -1331 
L 581 -1331 
L 581 3500 
L 1159 3500 
L 1159 2969 
Q 1341 3281 1617 3432 
Q 1894 3584 2278 3584 
Q 2916 3584 3314 3078 
Q 3713 2572 3713 1747 
Q 3713 922 3314 415 
Q 2916 -91 2278 -91 
Q 1894 -91 1617 61 
Q 1341 213 1159 525 
z
M 3116 1747 
Q 3116 2381 2855 2742 
Q 2594 3103 2138 3103 
Q 1681 3103 1420 2742 
Q 1159 2381 1159 1747 
Q 1159 1113 1420 752 
Q 1681 391 2138 391 
Q 2594 391 2855 752 
Q 3116 1113 3116 1747 
z
" transform="scale(0.015625)"/>
        <path id="DejaVuSans-5f" d="M 3263 -1063 
L 3263 -1509 
L -63 -1509 
L -63 -1063 
L 3263 -1063 
z
" transform="scale(0.015625)"/>
       </defs>
       <use xlink:href="#DejaVuSans-70"/>
       <use xlink:href="#DejaVuSans-35" x="63.476562"/>
       <use xlink:href="#DejaVuSans-32" x="127.099609"/>
       <use xlink:href="#DejaVuSans-31" x="190.722656"/>
       <use xlink:href="#DejaVuSans-5f" x="254.345703"/>
       <use xlink:href="#DejaVuSans-68" x="304.345703"/>
       <use xlink:href="#DejaVuSans-71" x="367.724609"/>
       <use xlink:href="#DejaVuSans-63" x="431.201172"/>
       <use xlink:href="#DejaVuSans-32" x="486.181641"/>
       <use xlink:href="#DejaVuSans-35" x="549.804688"/>
       <use xlink:href="#DejaVuSans-36" x="613.427734"/>
      </g>
     </g>
    </g>
   </g>
   <g id="matplotlib.axis_2">
    <g id="ytick_1">
     <g id="line2d_1">
      <path d="M 58.32 369.471783 
L 851.04 369.471783 
" clip-path="url(#p2ef6a44b82)" style="fill: none; stroke: #cccccc; stroke-linecap: round"/>
     </g>
     <g id="text_4">
      <!-- 0 -->
      <g style="fill: #262626" transform="translate(41.82125 373.650923) scale(0.11 -0.11)">
       <defs>
        <path id="DejaVuSans-30" d="M 2034 4250 
Q 1547 4250 1301 3770 
Q 1056 3291 1056 2328 
Q 1056 1369 1301 889 
Q 1547 409 2034 409 
Q 2525 409 2770 889 
Q 3016 1369 3016 2328 
Q 3016 3291 2770 3770 
Q 2525 4250 2034 4250 
z
M 2034 4750 
Q 2819 4750 3233 4129 
Q 3647 3509 3647 2328 
Q 3647 1150 3233 529 
Q 2819 -91 2034 -91 
Q 1250 -91 836 529 
Q 422 1150 422 2328 
Q 422 3509 836 4129 
Q 1250 4750 2034 4750 
z
" transform="scale(0.015625)"/>
       </defs>
       <use xlink:href="#DejaVuSans-30"/>
      </g>
     </g>
    </g>
    <g id="ytick_2">
     <g id="line2d_2">
      <path d="M 58.32 320.45292 
L 851.04 320.45292 
" clip-path="url(#p2ef6a44b82)" style="fill: none; stroke: #cccccc; stroke-linecap: round"/>
     </g>
     <g id="text_5">
      <!-- 20 -->
      <g style="fill: #262626" transform="translate(34.8225 324.632061) scale(0.11 -0.11)">
       <use xlink:href="#DejaVuSans-32"/>
       <use xlink:href="#DejaVuSans-30" x="63.623047"/>
      </g>
     </g>
    </g>
    <g id="ytick_3">
     <g id="line2d_3">
      <path d="M 58.32 271.434058 
L 851.04 271.434058 
" clip-path="url(#p2ef6a44b82)" style="fill: none; stroke: #cccccc; stroke-linecap: round"/>
     </g>
     <g id="text_6">
      <!-- 40 -->
      <g style="fill: #262626" transform="translate(34.8225 275.613199) scale(0.11 -0.11)">
       <defs>
        <path id="DejaVuSans-34" d="M 2419 4116 
L 825 1625 
L 2419 1625 
L 2419 4116 
z
M 2253 4666 
L 3047 4666 
L 3047 1625 
L 3713 1625 
L 3713 1100 
L 3047 1100 
L 3047 0 
L 2419 0 
L 2419 1100 
L 313 1100 
L 313 1709 
L 2253 4666 
z
" transform="scale(0.015625)"/>
       </defs>
       <use xlink:href="#DejaVuSans-34"/>
       <use xlink:href="#DejaVuSans-30" x="63.623047"/>
      </g>
     </g>
    </g>
    <g id="ytick_4">
     <g id="line2d_4">
      <path d="M 58.32 222.415195 
L 851.04 222.415195 
" clip-path="url(#p2ef6a44b82)" style="fill: none; stroke: #cccccc; stroke-linecap: round"/>
     </g>
     <g id="text_7">
      <!-- 60 -->
      <g style="fill: #262626" transform="translate(34.8225 226.594336) scale(0.11 -0.11)">
       <use xlink:href="#DejaVuSans-36"/>
       <use xlink:href="#DejaVuSans-30" x="63.623047"/>
      </g>
     </g>
    </g>
    <g id="ytick_5">
     <g id="line2d_5">
      <path d="M 58.32 173.396333 
L 851.04 173.396333 
" clip-path="url(#p2ef6a44b82)" style="fill: none; stroke: #cccccc; stroke-linecap: round"/>
     </g>
     <g id="text_8">
      <!-- 80 -->
      <g style="fill: #262626" transform="translate(34.8225 177.575474) scale(0.11 -0.11)">
       <defs>
        <path id="DejaVuSans-38" d="M 2034 2216 
Q 1584 2216 1326 1975 
Q 1069 1734 1069 1313 
Q 1069 891 1326 650 
Q 1584 409 2034 409 
Q 2484 409 2743 651 
Q 3003 894 3003 1313 
Q 3003 1734 2745 1975 
Q 2488 2216 2034 2216 
z
M 1403 2484 
Q 997 2584 770 2862 
Q 544 3141 544 3541 
Q 544 4100 942 4425 
Q 1341 4750 2034 4750 
Q 2731 4750 3128 4425 
Q 3525 4100 3525 3541 
Q 3525 3141 3298 2862 
Q 3072 2584 2669 2484 
Q 3125 2378 3379 2068 
Q 3634 1759 3634 1313 
Q 3634 634 3220 271 
Q 2806 -91 2034 -91 
Q 1263 -91 848 271 
Q 434 634 434 1313 
Q 434 1759 690 2068 
Q 947 2378 1403 2484 
z
M 1172 3481 
Q 1172 3119 1398 2916 
Q 1625 2713 2034 2713 
Q 2441 2713 2670 2916 
Q 2900 3119 2900 3481 
Q 2900 3844 2670 4047 
Q 2441 4250 2034 4250 
Q 1625 4250 1398 4047 
Q 1172 3844 1172 3481 
z
" transform="scale(0.015625)"/>
       </defs>
       <use xlink:href="#DejaVuSans-38"/>
       <use xlink:href="#DejaVuSans-30" x="63.623047"/>
      </g>
     </g>
    </g>
    <g id="ytick_6">
     <g id="line2d_6">
      <path d="M 58.32 124.377471 
L 851.04 124.377471 
" clip-path="url(#p2ef6a44b82)" style="fill: none; stroke: #cccccc; stroke-linecap: round"/>
     </g>
     <g id="text_9">
      <!-- 100 -->
      <g style="fill: #262626" transform="translate(27.82375 128.556611) scale(0.11 -0.11)">
       <use xlink:href="#DejaVuSans-31"/>
       <use xlink:href="#DejaVuSans-30" x="63.623047"/>
       <use xlink:href="#DejaVuSans-30" x="127.246094"/>
      </g>
     </g>
    </g>
    <g id="ytick_7">
     <g id="line2d_7">
      <path d="M 58.32 75.358608 
L 851.04 75.358608 
" clip-path="url(#p2ef6a44b82)" style="fill: none; stroke: #cccccc; stroke-linecap: round"/>
     </g>
     <g id="text_10">
      <!-- 120 -->
      <g style="fill: #262626" transform="translate(27.82375 79.537749) scale(0.11 -0.11)">
       <use xlink:href="#DejaVuSans-31"/>
       <use xlink:href="#DejaVuSans-32" x="63.623047"/>
       <use xlink:href="#DejaVuSans-30" x="127.246094"/>
      </g>
     </g>
    </g>
    <g id="text_11">
     <!-- Handshake duration (ms) -->
     <g style="fill: #262626" transform="translate(21.328125 278.486335) rotate(-90) scale(0.12 -0.12)">
      <defs>
       <path id="DejaVuSans-48" d="M 628 4666 
L 1259 4666 
L 1259 2753 
L 3553 2753 
L 3553 4666 
L 4184 4666 
L 4184 0 
L 3553 0 
L 3553 2222 
L 1259 2222 
L 1259 0 
L 628 0 
L 628 4666 
z
" transform="scale(0.015625)"/>
       <path id="DejaVuSans-61" d="M 2194 1759 
Q 1497 1759 1228 1600 
Q 959 1441 959 1056 
Q 959 750 1161 570 
Q 1363 391 1709 391 
Q 2188 391 2477 730 
Q 2766 1069 2766 1631 
L 2766 1759 
L 2194 1759 
z
M 3341 1997 
L 3341 0 
L 2766 0 
L 2766 531 
Q 2569 213 2275 61 
Q 1981 -91 1556 -91 
Q 1019 -91 701 211 
Q 384 513 384 1019 
Q 384 1609 779 1909 
Q 1175 2209 1959 2209 
L 2766 2209 
L 2766 2266 
Q 2766 2663 2505 2880 
Q 2244 3097 1772 3097 
Q 1472 3097 1187 3025 
Q 903 2953 641 2809 
L 641 3341 
Q 956 3463 1253 3523 
Q 1550 3584 1831 3584 
Q 2591 3584 2966 3190 
Q 3341 2797 3341 1997 
z
" transform="scale(0.015625)"/>
       <path id="DejaVuSans-6e" d="M 3513 2113 
L 3513 0 
L 2938 0 
L 2938 2094 
Q 2938 2591 2744 2837 
Q 2550 3084 2163 3084 
Q 1697 3084 1428 2787 
Q 1159 2491 1159 1978 
L 1159 0 
L 581 0 
L 581 3500 
L 1159 3500 
L 1159 2956 
Q 1366 3272 1645 3428 
Q 1925 3584 2291 3584 
Q 2894 3584 3203 3211 
Q 3513 2838 3513 2113 
z
" transform="scale(0.015625)"/>
       <path id="DejaVuSans-64" d="M 2906 2969 
L 2906 4863 
L 3481 4863 
L 3481 0 
L 2906 0 
L 2906 525 
Q 2725 213 2448 61 
Q 2172 -91 1784 -91 
Q 1150 -91 751 415 
Q 353 922 353 1747 
Q 353 2572 751 3078 
Q 1150 3584 1784 3584 
Q 2172 3584 2448 3432 
Q 2725 3281 2906 2969 
z
M 947 1747 
Q 947 1113 1208 752 
Q 1469 391 1925 391 
Q 2381 391 2643 752 
Q 2906 1113 2906 1747 
Q 2906 2381 2643 2742 
Q 2381 3103 1925 3103 
Q 1469 3103 1208 2742 
Q 947 2381 947 1747 
z
" transform="scale(0.015625)"/>
       <path id="DejaVuSans-73" d="M 2834 3397 
L 2834 2853 
Q 2591 2978 2328 3040 
Q 2066 3103 1784 3103 
Q 1356 3103 1142 2972 
Q 928 2841 928 2578 
Q 928 2378 1081 2264 
Q 1234 2150 1697 2047 
L 1894 2003 
Q 2506 1872 2764 1633 
Q 3022 1394 3022 966 
Q 3022 478 2636 193 
Q 2250 -91 1575 -91 
Q 1294 -91 989 -36 
Q 684 19 347 128 
L 347 722 
Q 666 556 975 473 
Q 1284 391 1588 391 
Q 1994 391 2212 530 
Q 2431 669 2431 922 
Q 2431 1156 2273 1281 
Q 2116 1406 1581 1522 
L 1381 1569 
Q 847 1681 609 1914 
Q 372 2147 372 2553 
Q 372 3047 722 3315 
Q 1072 3584 1716 3584 
Q 2034 3584 2315 3537 
Q 2597 3491 2834 3397 
z
" transform="scale(0.015625)"/>
       <path id="DejaVuSans-6b" d="M 581 4863 
L 1159 4863 
L 1159 1991 
L 2875 3500 
L 3609 3500 
L 1753 1863 
L 3688 0 
L 2938 0 
L 1159 1709 
L 1159 0 
L 581 0 
L 581 4863 
z
" transform="scale(0.015625)"/>
       <path id="DejaVuSans-65" d="M 3597 1894 
L 3597 1613 
L 953 1613 
Q 991 1019 1311 708 
Q 1631 397 2203 397 
Q 2534 397 2845 478 
Q 3156 559 3463 722 
L 3463 178 
Q 3153 47 2828 -22 
Q 2503 -91 2169 -91 
Q 1331 -91 842 396 
Q 353 884 353 1716 
Q 353 2575 817 3079 
Q 1281 3584 2069 3584 
Q 2775 3584 3186 3129 
Q 3597 2675 3597 1894 
z
M 3022 2063 
Q 3016 2534 2758 2815 
Q 2500 3097 2075 3097 
Q 1594 3097 1305 2825 
Q 1016 2553 972 2059 
L 3022 2063 
z
" transform="scale(0.015625)"/>
       <path id="DejaVuSans-20" transform="scale(0.015625)"/>
       <path id="DejaVuSans-75" d="M 544 1381 
L 544 3500 
L 1119 3500 
L 1119 1403 
Q 1119 906 1312 657 
Q 1506 409 1894 409 
Q 2359 409 2629 706 
Q 2900 1003 2900 1516 
L 2900 3500 
L 3475 3500 
L 3475 0 
L 2900 0 
L 2900 538 
Q 2691 219 2414 64 
Q 2138 -91 1772 -91 
Q 1169 -91 856 284 
Q 544 659 544 1381 
z
M 1991 3584 
L 1991 3584 
z
" transform="scale(0.015625)"/>
       <path id="DejaVuSans-72" d="M 2631 2963 
Q 2534 3019 2420 3045 
Q 2306 3072 2169 3072 
Q 1681 3072 1420 2755 
Q 1159 2438 1159 1844 
L 1159 0 
L 581 0 
L 581 3500 
L 1159 3500 
L 1159 2956 
Q 1341 3275 1631 3429 
Q 1922 3584 2338 3584 
Q 2397 3584 2469 3576 
Q 2541 3569 2628 3553 
L 2631 2963 
z
" transform="scale(0.015625)"/>
       <path id="DejaVuSans-74" d="M 1172 4494 
L 1172 3500 
L 2356 3500 
L 2356 3053 
L 1172 3053 
L 1172 1153 
Q 1172 725 1289 603 
Q 1406 481 1766 481 
L 2356 481 
L 2356 0 
L 1766 0 
Q 1100 0 847 248 
Q 594 497 594 1153 
L 594 3053 
L 172 3053 
L 172 3500 
L 594 3500 
L 594 4494 
L 1172 4494 
z
" transform="scale(0.015625)"/>
       <path id="DejaVuSans-69" d="M 603 3500 
L 1178 3500 
L 1178 0 
L 603 0 
L 603 3500 
z
M 603 4863 
L 1178 4863 
L 1178 4134 
L 603 4134 
L 603 4863 
z
" transform="scale(0.015625)"/>
       <path id="DejaVuSans-6f" d="M 1959 3097 
Q 1497 3097 1228 2736 
Q 959 2375 959 1747 
Q 959 1119 1226 758 
Q 1494 397 1959 397 
Q 2419 397 2687 759 
Q 2956 1122 2956 1747 
Q 2956 2369 2687 2733 
Q 2419 3097 1959 3097 
z
M 1959 3584 
Q 2709 3584 3137 3096 
Q 3566 2609 3566 1747 
Q 3566 888 3137 398 
Q 2709 -91 1959 -91 
Q 1206 -91 779 398 
Q 353 888 353 1747 
Q 353 2609 779 3096 
Q 1206 3584 1959 3584 
z
" transform="scale(0.015625)"/>
       <path id="DejaVuSans-28" d="M 1984 4856 
Q 1566 4138 1362 3434 
Q 1159 2731 1159 2009 
Q 1159 1288 1364 580 
Q 1569 -128 1984 -844 
L 1484 -844 
Q 1016 -109 783 600 
Q 550 1309 550 2009 
Q 550 2706 781 3412 
Q 1013 4119 1484 4856 
L 1984 4856 
z
" transform="scale(0.015625)"/>
       <path id="DejaVuSans-6d" d="M 3328 2828 
Q 3544 3216 3844 3400 
Q 4144 3584 4550 3584 
Q 5097 3584 5394 3201 
Q 5691 2819 5691 2113 
L 5691 0 
L 5113 0 
L 5113 2094 
Q 5113 2597 4934 2840 
Q 4756 3084 4391 3084 
Q 3944 3084 3684 2787 
Q 3425 2491 3425 1978 
L 3425 0 
L 2847 0 
L 2847 2094 
Q 2847 2600 2669 2842 
Q 2491 3084 2119 3084 
Q 1678 3084 1418 2786 
Q 1159 2488 1159 1978 
L 1159 0 
L 581 0 
L 581 3500 
L 1159 3500 
L 1159 2956 
Q 1356 3278 1631 3431 
Q 1906 3584 2284 3584 
Q 2666 3584 2933 3390 
Q 3200 3197 3328 2828 
z
" transform="scale(0.015625)"/>
       <path id="DejaVuSans-29" d="M 513 4856 
L 1013 4856 
Q 1481 4119 1714 3412 
Q 1947 2706 1947 2009 
Q 1947 1309 1714 600 
Q 1481 -109 1013 -844 
L 513 -844 
Q 928 -128 1133 580 
Q 1338 1288 1338 2009 
Q 1338 2731 1133 3434 
Q 928 4138 513 4856 
z
" transform="scale(0.015625)"/>
      </defs>
      <use xlink:href="#DejaVuSans-48"/>
      <use xlink:href="#DejaVuSans-61" x="75.195312"/>
      <use xlink:href="#DejaVuSans-6e" x="136.474609"/>
      <use xlink:href="#DejaVuSans-64" x="199.853516"/>
      <use xlink:href="#DejaVuSans-73" x="263.330078"/>
      <use xlink:href="#DejaVuSans-68" x="315.429688"/>
      <use xlink:href="#DejaVuSans-61" x="378.808594"/>
      <use xlink:href="#DejaVuSans-6b" x="440.087891"/>
      <use xlink:href="#DejaVuSans-65" x="494.373047"/>
      <use xlink:href="#DejaVuSans-20" x="555.896484"/>
      <use xlink:href="#DejaVuSans-64" x="587.683594"/>
      <use xlink:href="#DejaVuSans-75" x="651.160156"/>
      <use xlink:href="#DejaVuSans-72" x="714.539062"/>
      <use xlink:href="#DejaVuSans-61" x="755.652344"/>
      <use xlink:href="#DejaVuSans-74" x="816.931641"/>
      <use xlink:href="#DejaVuSans-69" x="856.140625"/>
      <use xlink:href="#DejaVuSans-6f" x="883.923828"/>
      <use xlink:href="#DejaVuSans-6e" x="945.105469"/>
      <use xlink:href="#DejaVuSans-20" x="1008.484375"/>
      <use xlink:href="#DejaVuSans-28" x="1040.271484"/>
      <use xlink:href="#DejaVuSans-6d" x="1079.285156"/>
      <use xlink:href="#DejaVuSans-73" x="1176.697266"/>
      <use xlink:href="#DejaVuSans-29" x="1228.796875"/>
     </g>
    </g>
   </g>
   <g id="PolyCollection_1">
    <defs>
     <path id="m75e3d4d5f5" d="M 191.566626 -70.655549 
L 189.313374 -70.655549 
L 188.127929 -70.785474 
L 185.982917 -70.915398 
L 182.368298 -71.045323 
L 176.706958 -71.175247 
L 168.487687 -71.305172 
L 157.467373 -71.435097 
L 143.894001 -71.565021 
L 128.660881 -71.694946 
L 113.291645 -71.824871 
L 99.697924 -71.954795 
L 89.742866 -72.08472 
L 84.744 -72.214645 
L 85.100494 -72.344569 
L 90.194199 -72.474494 
L 98.602065 -72.604419 
L 108.527508 -72.734343 
L 118.278783 -72.864268 
L 126.628848 -72.994193 
L 132.967593 -73.124117 
L 137.2532 -73.254042 
L 139.835907 -73.383967 
L 141.244321 -73.513891 
L 142.002774 -73.643816 
L 142.513608 -73.773741 
L 143.010606 -73.903665 
L 143.574341 -74.03359 
L 144.19139 -74.163515 
L 144.83172 -74.293439 
L 145.513521 -74.423364 
L 146.328819 -74.553289 
L 147.419944 -74.683213 
L 148.920703 -74.813138 
L 150.893909 -74.943062 
L 153.297647 -75.072987 
L 155.995973 -75.202912 
L 158.806306 -75.332836 
L 161.559459 -75.462761 
L 164.146355 -75.592686 
L 166.535587 -75.72261 
L 168.760364 -75.852535 
L 170.885093 -75.98246 
L 172.967562 -76.112384 
L 175.031722 -76.242309 
L 177.059623 -76.372234 
L 179.001653 -76.502158 
L 180.796537 -76.632083 
L 182.390316 -76.762008 
L 183.747398 -76.891932 
L 184.85326 -77.021857 
L 185.712688 -77.151782 
L 186.347366 -77.281706 
L 186.793584 -77.411631 
L 187.098399 -77.541556 
L 187.312839 -77.67148 
L 187.483129 -77.801405 
L 187.643047 -77.93133 
L 187.810573 -78.061254 
L 187.989967 -78.191179 
L 188.177691 -78.321104 
L 188.368937 -78.451028 
L 188.561642 -78.580953 
L 188.756587 -78.710877 
L 188.954356 -78.840802 
L 189.15166 -78.970727 
L 189.339702 -79.100651 
L 189.506057 -79.230576 
L 189.639434 -79.360501 
L 189.734925 -79.490425 
L 189.796881 -79.62035 
L 189.837739 -79.750275 
L 189.873169 -79.880199 
L 189.915806 -80.010124 
L 189.970439 -80.140049 
L 190.032656 -80.269973 
L 190.091203 -80.399898 
L 190.132764 -80.529823 
L 190.14715 -80.659747 
L 190.131147 -80.789672 
L 190.089953 -80.919597 
L 190.035882 -81.049521 
L 189.984666 -81.179446 
L 189.950391 -81.309371 
L 189.940692 -81.439295 
L 189.954098 -81.56922 
L 189.980753 -81.699145 
L 190.006488 -81.829069 
L 190.018693 -81.958994 
L 190.011584 -82.088919 
L 189.988663 -82.218843 
L 189.961362 -82.348768 
L 189.944485 -82.478692 
L 189.950452 -82.608617 
L 189.984789 -82.738542 
L 190.044632 -82.868466 
L 190.120528 -82.998391 
L 190.20032 -83.128316 
L 190.273215 -83.25824 
L 190.332405 -83.388165 
L 190.375668 -83.51809 
L 190.504332 -83.51809 
L 190.504332 -83.51809 
L 190.547595 -83.388165 
L 190.606785 -83.25824 
L 190.67968 -83.128316 
L 190.759472 -82.998391 
L 190.835368 -82.868466 
L 190.895211 -82.738542 
L 190.929548 -82.608617 
L 190.935515 -82.478692 
L 190.918638 -82.348768 
L 190.891337 -82.218843 
L 190.868416 -82.088919 
L 190.861307 -81.958994 
L 190.873512 -81.829069 
L 190.899247 -81.699145 
L 190.925902 -81.56922 
L 190.939308 -81.439295 
L 190.929609 -81.309371 
L 190.895334 -81.179446 
L 190.844118 -81.049521 
L 190.790047 -80.919597 
L 190.748853 -80.789672 
L 190.73285 -80.659747 
L 190.747236 -80.529823 
L 190.788797 -80.399898 
L 190.847344 -80.269973 
L 190.909561 -80.140049 
L 190.964194 -80.010124 
L 191.006831 -79.880199 
L 191.042261 -79.750275 
L 191.083119 -79.62035 
L 191.145075 -79.490425 
L 191.240566 -79.360501 
L 191.373943 -79.230576 
L 191.540298 -79.100651 
L 191.72834 -78.970727 
L 191.925644 -78.840802 
L 192.123413 -78.710877 
L 192.318358 -78.580953 
L 192.511063 -78.451028 
L 192.702309 -78.321104 
L 192.890033 -78.191179 
L 193.069427 -78.061254 
L 193.236953 -77.93133 
L 193.396871 -77.801405 
L 193.567161 -77.67148 
L 193.781601 -77.541556 
L 194.086416 -77.411631 
L 194.532634 -77.281706 
L 195.167312 -77.151782 
L 196.02674 -77.021857 
L 197.132602 -76.891932 
L 198.489684 -76.762008 
L 200.083463 -76.632083 
L 201.878347 -76.502158 
L 203.820377 -76.372234 
L 205.848278 -76.242309 
L 207.912438 -76.112384 
L 209.994907 -75.98246 
L 212.119636 -75.852535 
L 214.344413 -75.72261 
L 216.733645 -75.592686 
L 219.320541 -75.462761 
L 222.073694 -75.332836 
L 224.884027 -75.202912 
L 227.582353 -75.072987 
L 229.986091 -74.943062 
L 231.959297 -74.813138 
L 233.460056 -74.683213 
L 234.551181 -74.553289 
L 235.366479 -74.423364 
L 236.04828 -74.293439 
L 236.68861 -74.163515 
L 237.305659 -74.03359 
L 237.869394 -73.903665 
L 238.366392 -73.773741 
L 238.877226 -73.643816 
L 239.635679 -73.513891 
L 241.044093 -73.383967 
L 243.6268 -73.254042 
L 247.912407 -73.124117 
L 254.251152 -72.994193 
L 262.601217 -72.864268 
L 272.352492 -72.734343 
L 282.277935 -72.604419 
L 290.685801 -72.474494 
L 295.779506 -72.344569 
L 296.136 -72.214645 
L 291.137134 -72.08472 
L 281.182076 -71.954795 
L 267.588355 -71.824871 
L 252.219119 -71.694946 
L 236.985999 -71.565021 
L 223.412627 -71.435097 
L 212.392313 -71.305172 
L 204.173042 -71.175247 
L 198.511702 -71.045323 
L 194.897083 -70.915398 
L 192.752071 -70.785474 
L 191.566626 -70.655549 
z
" style="stroke: #595959; stroke-width: 1.25"/>
    </defs>
    <g clip-path="url(#p2ef6a44b82)">
     <use xlink:href="#m75e3d4d5f5" x="0" y="432" style="fill: #72b6a1; stroke: #595959; stroke-width: 1.25"/>
    </g>
   </g>
   <g id="PolyCollection_2">
    <defs>
     <path id="m97daec1185" d="M 456.969842 -249.750217 
L 452.390158 -249.750217 
L 450.825277 -250.545029 
L 448.444754 -251.339841 
L 444.983799 -252.134653 
L 440.177087 -252.929464 
L 433.804735 -253.724276 
L 425.750227 -254.519088 
L 416.061214 -255.3139 
L 404.999727 -256.108712 
L 393.066579 -256.903523 
L 380.986883 -257.698335 
L 369.650145 -258.493147 
L 360.008295 -259.287959 
L 352.946089 -260.08277 
L 349.147276 -260.877582 
L 348.984 -261.672394 
L 352.454016 -262.467206 
L 359.180631 -263.262017 
L 368.476079 -264.056829 
L 379.454203 -264.851641 
L 391.167241 -265.646453 
L 402.737471 -266.441264 
L 413.458321 -267.236076 
L 422.849715 -268.030888 
L 430.665265 -268.8257 
L 436.860251 -269.620511 
L 441.536328 -270.415323 
L 444.880228 -271.210135 
L 447.110454 -272.004947 
L 448.440034 -272.799758 
L 449.057237 -273.59457 
L 449.121388 -274.389382 
L 448.768256 -275.184194 
L 448.119015 -275.979005 
L 447.287695 -276.773817 
L 446.384015 -277.568629 
L 445.510626 -278.363441 
L 444.755899 -279.158252 
L 444.184941 -279.953064 
L 443.832202 -280.747876 
L 443.698682 -281.542688 
L 443.755469 -282.3375 
L 443.953331 -283.132311 
L 444.236209 -283.927123 
L 444.555115 -284.721935 
L 444.878776 -285.516747 
L 445.198346 -286.311558 
L 445.525318 -287.10637 
L 445.883757 -287.901182 
L 446.299577 -288.695994 
L 446.790158 -289.490805 
L 447.357236 -290.285617 
L 447.984704 -291.080429 
L 448.641392 -291.875241 
L 449.287445 -292.670052 
L 449.882123 -293.464864 
L 450.390818 -294.259676 
L 450.789757 -295.054488 
L 451.067859 -295.849299 
L 451.226193 -296.644111 
L 451.275998 -297.438923 
L 451.236289 -298.233735 
L 451.131675 -299.028546 
L 450.990416 -299.823358 
L 450.842399 -300.61817 
L 450.716578 -301.412982 
L 450.637788 -302.207793 
L 450.623321 -303.002605 
L 450.680102 -303.797417 
L 450.803453 -304.592229 
L 450.978083 -305.38704 
L 451.181373 -306.181852 
L 451.388269 -306.976664 
L 451.576654 -307.771476 
L 451.731887 -308.566287 
L 451.849473 -309.361099 
L 451.93534 -310.155911 
L 452.003766 -310.950723 
L 452.073539 -311.745535 
L 452.163278 -312.540346 
L 452.287022 -313.335158 
L 452.451103 -314.12997 
L 452.653015 -314.924782 
L 452.882457 -315.719593 
L 453.124178 -316.514405 
L 453.361722 -317.309217 
L 453.581014 -318.104029 
L 453.77284 -318.89884 
L 453.933711 -319.693652 
L 454.065165 -320.488464 
L 454.172001 -321.283276 
L 454.260193 -322.078087 
L 454.33512 -322.872899 
L 454.400551 -323.667711 
L 454.458429 -324.462523 
L 454.50927 -325.257334 
L 454.552843 -326.052146 
L 454.588828 -326.846958 
L 454.617244 -327.64177 
L 454.638613 -328.436581 
L 454.721387 -328.436581 
L 454.721387 -328.436581 
L 454.742756 -327.64177 
L 454.771172 -326.846958 
L 454.807157 -326.052146 
L 454.85073 -325.257334 
L 454.901571 -324.462523 
L 454.959449 -323.667711 
L 455.02488 -322.872899 
L 455.099807 -322.078087 
L 455.187999 -321.283276 
L 455.294835 -320.488464 
L 455.426289 -319.693652 
L 455.58716 -318.89884 
L 455.778986 -318.104029 
L 455.998278 -317.309217 
L 456.235822 -316.514405 
L 456.477543 -315.719593 
L 456.706985 -314.924782 
L 456.908897 -314.12997 
L 457.072978 -313.335158 
L 457.196722 -312.540346 
L 457.286461 -311.745535 
L 457.356234 -310.950723 
L 457.42466 -310.155911 
L 457.510527 -309.361099 
L 457.628113 -308.566287 
L 457.783346 -307.771476 
L 457.971731 -306.976664 
L 458.178627 -306.181852 
L 458.381917 -305.38704 
L 458.556547 -304.592229 
L 458.679898 -303.797417 
L 458.736679 -303.002605 
L 458.722212 -302.207793 
L 458.643422 -301.412982 
L 458.517601 -300.61817 
L 458.369584 -299.823358 
L 458.228325 -299.028546 
L 458.123711 -298.233735 
L 458.084002 -297.438923 
L 458.133807 -296.644111 
L 458.292141 -295.849299 
L 458.570243 -295.054488 
L 458.969182 -294.259676 
L 459.477877 -293.464864 
L 460.072555 -292.670052 
L 460.718608 -291.875241 
L 461.375296 -291.080429 
L 462.002764 -290.285617 
L 462.569842 -289.490805 
L 463.060423 -288.695994 
L 463.476243 -287.901182 
L 463.834682 -287.10637 
L 464.161654 -286.311558 
L 464.481224 -285.516747 
L 464.804885 -284.721935 
L 465.123791 -283.927123 
L 465.406669 -283.132311 
L 465.604531 -282.3375 
L 465.661318 -281.542688 
L 465.527798 -280.747876 
L 465.175059 -279.953064 
L 464.604101 -279.158252 
L 463.849374 -278.363441 
L 462.975985 -277.568629 
L 462.072305 -276.773817 
L 461.240985 -275.979005 
L 460.591744 -275.184194 
L 460.238612 -274.389382 
L 460.302763 -273.59457 
L 460.919966 -272.799758 
L 462.249546 -272.004947 
L 464.479772 -271.210135 
L 467.823672 -270.415323 
L 472.499749 -269.620511 
L 478.694735 -268.8257 
L 486.510285 -268.030888 
L 495.901679 -267.236076 
L 506.622529 -266.441264 
L 518.192759 -265.646453 
L 529.905797 -264.851641 
L 540.883921 -264.056829 
L 550.179369 -263.262017 
L 556.905984 -262.467206 
L 560.376 -261.672394 
L 560.212724 -260.877582 
L 556.413911 -260.08277 
L 549.351705 -259.287959 
L 539.709855 -258.493147 
L 528.373117 -257.698335 
L 516.293421 -256.903523 
L 504.360273 -256.108712 
L 493.298786 -255.3139 
L 483.609773 -254.519088 
L 475.555265 -253.724276 
L 469.182913 -252.929464 
L 464.376201 -252.134653 
L 460.915246 -251.339841 
L 458.534723 -250.545029 
L 456.969842 -249.750217 
z
" style="stroke: #595959; stroke-width: 1.25"/>
    </defs>
    <g clip-path="url(#p2ef6a44b82)">
     <use xlink:href="#m97daec1185" x="0" y="432" style="fill: #e99675; stroke: #595959; stroke-width: 1.25"/>
    </g>
   </g>
   <g id="PolyCollection_3">
    <defs>
     <path id="m59dc16f9a0" d="M 721.319331 -269.089949 
L 716.520669 -269.089949 
L 714.524682 -270.296186 
L 711.291149 -271.502423 
L 706.369113 -272.70866 
L 699.340154 -273.914897 
L 689.944546 -275.121134 
L 678.229306 -276.327371 
L 664.676022 -277.533608 
L 650.254784 -278.739845 
L 636.358288 -279.946082 
L 624.601162 -281.152318 
L 616.516237 -282.358555 
L 613.224 -283.564792 
L 615.172928 -284.771029 
L 622.033465 -285.977266 
L 632.780123 -287.183503 
L 645.933571 -288.38974 
L 659.88394 -289.595977 
L 673.198208 -290.802214 
L 684.832817 -292.008451 
L 694.215601 -293.214688 
L 701.20777 -294.420925 
L 705.988817 -295.627162 
L 708.916584 -296.833399 
L 710.404604 -298.039636 
L 710.839119 -299.245873 
L 710.539122 -300.45211 
L 709.750364 -301.658347 
L 708.659617 -302.864584 
L 707.41617 -304.070821 
L 706.150795 -305.277057 
L 704.98632 -306.483294 
L 704.037816 -307.689531 
L 703.404052 -308.895768 
L 703.154719 -310.102005 
L 703.319212 -311.308242 
L 703.881853 -312.514479 
L 704.785788 -313.720716 
L 705.944453 -314.926953 
L 707.257071 -316.13319 
L 708.62392 -317.339427 
L 709.958115 -318.545664 
L 711.192439 -319.751901 
L 712.28147 -320.958138 
L 713.200149 -322.164375 
L 713.940195 -323.370612 
L 714.505613 -324.576849 
L 714.908375 -325.783086 
L 715.165182 -326.989323 
L 715.295888 -328.19556 
L 715.323551 -329.401797 
L 715.275331 -330.608033 
L 715.182885 -331.81427 
L 715.081012 -333.020507 
L 715.004075 -334.226744 
L 714.980916 -335.432981 
L 715.029944 -336.639218 
L 715.156246 -337.845455 
L 715.351837 -339.051692 
L 715.598925 -340.257929 
L 715.874919 -341.464166 
L 716.157476 -342.670403 
L 716.428197 -343.87664 
L 716.674388 -345.082877 
L 716.889034 -346.289114 
L 717.069639 -347.495351 
L 717.216703 -348.701588 
L 717.332478 -349.907825 
L 717.420428 -351.114062 
L 717.4854 -352.320299 
L 717.534113 -353.526536 
L 717.575252 -354.732772 
L 717.618589 -355.939009 
L 717.673062 -357.145246 
L 717.744469 -358.351483 
L 717.833865 -359.55772 
L 717.937532 -360.763957 
L 718.048603 -361.970194 
L 718.159568 -363.176431 
L 718.264454 -364.382668 
L 718.35974 -365.588905 
L 718.443878 -366.795142 
L 718.516029 -368.001379 
L 718.574957 -369.207616 
L 718.618806 -370.413853 
L 718.645865 -371.62009 
L 718.655878 -372.826327 
L 718.65116 -374.032564 
L 718.636889 -375.238801 
L 718.620319 -376.445038 
L 718.60913 -377.651275 
L 718.609488 -378.857511 
L 718.624521 -380.063748 
L 718.653739 -381.269985 
L 718.693534 -382.476222 
L 718.738508 -383.682459 
L 718.783078 -384.888696 
L 718.822805 -386.094933 
L 718.855098 -387.30117 
L 718.879238 -388.507407 
L 718.960762 -388.507407 
L 718.960762 -388.507407 
L 718.984902 -387.30117 
L 719.017195 -386.094933 
L 719.056922 -384.888696 
L 719.101492 -383.682459 
L 719.146466 -382.476222 
L 719.186261 -381.269985 
L 719.215479 -380.063748 
L 719.230512 -378.857511 
L 719.23087 -377.651275 
L 719.219681 -376.445038 
L 719.203111 -375.238801 
L 719.18884 -374.032564 
L 719.184122 -372.826327 
L 719.194135 -371.62009 
L 719.221194 -370.413853 
L 719.265043 -369.207616 
L 719.323971 -368.001379 
L 719.396122 -366.795142 
L 719.48026 -365.588905 
L 719.575546 -364.382668 
L 719.680432 -363.176431 
L 719.791397 -361.970194 
L 719.902468 -360.763957 
L 720.006135 -359.55772 
L 720.095531 -358.351483 
L 720.166938 -357.145246 
L 720.221411 -355.939009 
L 720.264748 -354.732772 
L 720.305887 -353.526536 
L 720.3546 -352.320299 
L 720.419572 -351.114062 
L 720.507522 -349.907825 
L 720.623297 -348.701588 
L 720.770361 -347.495351 
L 720.950966 -346.289114 
L 721.165612 -345.082877 
L 721.411803 -343.87664 
L 721.682524 -342.670403 
L 721.965081 -341.464166 
L 722.241075 -340.257929 
L 722.488163 -339.051692 
L 722.683754 -337.845455 
L 722.810056 -336.639218 
L 722.859084 -335.432981 
L 722.835925 -334.226744 
L 722.758988 -333.020507 
L 722.657115 -331.81427 
L 722.564669 -330.608033 
L 722.516449 -329.401797 
L 722.544112 -328.19556 
L 722.674818 -326.989323 
L 722.931625 -325.783086 
L 723.334387 -324.576849 
L 723.899805 -323.370612 
L 724.639851 -322.164375 
L 725.55853 -320.958138 
L 726.647561 -319.751901 
L 727.881885 -318.545664 
L 729.21608 -317.339427 
L 730.582929 -316.13319 
L 731.895547 -314.926953 
L 733.054212 -313.720716 
L 733.958147 -312.514479 
L 734.520788 -311.308242 
L 734.685281 -310.102005 
L 734.435948 -308.895768 
L 733.802184 -307.689531 
L 732.85368 -306.483294 
L 731.689205 -305.277057 
L 730.42383 -304.070821 
L 729.180383 -302.864584 
L 728.089636 -301.658347 
L 727.300878 -300.45211 
L 727.000881 -299.245873 
L 727.435396 -298.039636 
L 728.923416 -296.833399 
L 731.851183 -295.627162 
L 736.63223 -294.420925 
L 743.624399 -293.214688 
L 753.007183 -292.008451 
L 764.641792 -290.802214 
L 777.95606 -289.595977 
L 791.906429 -288.38974 
L 805.059877 -287.183503 
L 815.806535 -285.977266 
L 822.667072 -284.771029 
L 824.616 -283.564792 
L 821.323763 -282.358555 
L 813.238838 -281.152318 
L 801.481712 -279.946082 
L 787.585216 -278.739845 
L 773.163978 -277.533608 
L 759.610694 -276.327371 
L 747.895454 -275.121134 
L 738.499846 -273.914897 
L 731.470887 -272.70866 
L 726.548851 -271.502423 
L 723.315318 -270.296186 
L 721.319331 -269.089949 
z
" style="stroke: #595959; stroke-width: 1.25"/>
    </defs>
    <g clip-path="url(#p2ef6a44b82)">
     <use xlink:href="#m59dc16f9a0" x="0" y="432" style="fill: #95a3c3; stroke: #595959; stroke-width: 1.25"/>
    </g>
   </g>
   <g id="line2d_8">
    <path d="M 190.44 359.790558 
L 190.44 360.403293 
" clip-path="url(#p2ef6a44b82)" style="fill: none; stroke: #000000"/>
   </g>
   <g id="line2d_9">
    <path d="M 190.44 357.505053 
L 190.44 354.300445 
" clip-path="url(#p2ef6a44b82)" style="fill: none; stroke: #000000"/>
   </g>
   <g id="line2d_10">
    <path d="M 180.531 360.403293 
L 200.349 360.403293 
" clip-path="url(#p2ef6a44b82)" style="fill: none; stroke: #000000; stroke-linecap: round"/>
   </g>
   <g id="line2d_11">
    <path d="M 180.531 354.300445 
L 200.349 354.300445 
" clip-path="url(#p2ef6a44b82)" style="fill: none; stroke: #000000; stroke-linecap: round"/>
   </g>
   <g id="line2d_12">
    <path d="M 454.68 171.766456 
L 454.68 174.891408 
" clip-path="url(#p2ef6a44b82)" style="fill: none; stroke: #000000"/>
   </g>
   <g id="line2d_13">
    <path d="M 454.68 167.887838 
L 454.68 162.269051 
" clip-path="url(#p2ef6a44b82)" style="fill: none; stroke: #000000"/>
   </g>
   <g id="line2d_14">
    <path d="M 444.771 174.891408 
L 464.589 174.891408 
" clip-path="url(#p2ef6a44b82)" style="fill: none; stroke: #000000; stroke-linecap: round"/>
   </g>
   <g id="line2d_15">
    <path d="M 444.771 162.269051 
L 464.589 162.269051 
" clip-path="url(#p2ef6a44b82)" style="fill: none; stroke: #000000; stroke-linecap: round"/>
   </g>
   <g id="line2d_16">
    <path d="M 718.92 149.254543 
L 718.92 153.176052 
" clip-path="url(#p2ef6a44b82)" style="fill: none; stroke: #000000"/>
   </g>
   <g id="line2d_17">
    <path d="M 718.92 143.568355 
L 718.92 135.700828 
" clip-path="url(#p2ef6a44b82)" style="fill: none; stroke: #000000"/>
   </g>
   <g id="line2d_18">
    <path d="M 709.011 153.176052 
L 728.829 153.176052 
" clip-path="url(#p2ef6a44b82)" style="fill: none; stroke: #000000; stroke-linecap: round"/>
   </g>
   <g id="line2d_19">
    <path d="M 709.011 135.700828 
L 728.829 135.700828 
" clip-path="url(#p2ef6a44b82)" style="fill: none; stroke: #000000; stroke-linecap: round"/>
   </g>
   <g id="line2d_20">
    <path d="M 170.622 359.030765 
L 210.258 359.030765 
" clip-path="url(#p2ef6a44b82)" style="fill: none; stroke: #ff0000; stroke-width: 2"/>
   </g>
   <g id="line2d_21">
    <path d="M 434.862 169.891484 
L 474.498 169.891484 
" clip-path="url(#p2ef6a44b82)" style="fill: none; stroke: #ff0000; stroke-width: 2"/>
   </g>
   <g id="line2d_22">
    <path d="M 699.102 147.514374 
L 738.738 147.514374 
" clip-path="url(#p2ef6a44b82)" style="fill: none; stroke: #ff0000; stroke-width: 2"/>
   </g>
   <g id="patch_3">
    <path d="M 58.32 377.237044 
L 58.32 27.6 
" style="fill: none; stroke: #cccccc; stroke-width: 1.25; stroke-linejoin: miter; stroke-linecap: square"/>
   </g>
   <g id="patch_4">
    <path d="M 851.04 377.237044 
L 851.04 27.6 
" style="fill: none; stroke: #cccccc; stroke-width: 1.25; stroke-linejoin: miter; stroke-linecap: square"/>
   </g>
   <g id="patch_5">
    <path d="M 58.32 377.237044 
L 851.04 377.237044 
" style="fill: none; stroke: #cccccc; stroke-width: 1.25; stroke-linejoin: miter; stroke-linecap: square"/>
   </g>
   <g id="patch_6">
    <path d="M 58.32 27.6 
L 851.04 27.6 
" style="fill: none; stroke: #cccccc; stroke-width: 1.25; stroke-linejoin: miter; stroke-linecap: square"/>
   </g>
   <g id="text_12">
    <!-- Handshake duration on QUIC with mldsa87 signature algorithm — ideal conditions -->
    <g style="fill: #262626" transform="translate(207.380625 21.6) scale(0.12 -0.12)">
     <defs>
      <path id="DejaVuSans-51" d="M 2522 4238 
Q 1834 4238 1429 3725 
Q 1025 3213 1025 2328 
Q 1025 1447 1429 934 
Q 1834 422 2522 422 
Q 3209 422 3611 934 
Q 4013 1447 4013 2328 
Q 4013 3213 3611 3725 
Q 3209 4238 2522 4238 
z
M 3406 84 
L 4238 -825 
L 3475 -825 
L 2784 -78 
Q 2681 -84 2626 -87 
Q 2572 -91 2522 -91 
Q 1538 -91 948 567 
Q 359 1225 359 2328 
Q 359 3434 948 4092 
Q 1538 4750 2522 4750 
Q 3503 4750 4090 4092 
Q 4678 3434 4678 2328 
Q 4678 1516 4351 937 
Q 4025 359 3406 84 
z
" transform="scale(0.015625)"/>
      <path id="DejaVuSans-55" d="M 556 4666 
L 1191 4666 
L 1191 1831 
Q 1191 1081 1462 751 
Q 1734 422 2344 422 
Q 2950 422 3222 751 
Q 3494 1081 3494 1831 
L 3494 4666 
L 4128 4666 
L 4128 1753 
Q 4128 841 3676 375 
Q 3225 -91 2344 -91 
Q 1459 -91 1007 375 
Q 556 841 556 1753 
L 556 4666 
z
" transform="scale(0.015625)"/>
      <path id="DejaVuSans-49" d="M 628 4666 
L 1259 4666 
L 1259 0 
L 628 0 
L 628 4666 
z
" transform="scale(0.015625)"/>
      <path id="DejaVuSans-43" d="M 4122 4306 
L 4122 3641 
Q 3803 3938 3442 4084 
Q 3081 4231 2675 4231 
Q 1875 4231 1450 3742 
Q 1025 3253 1025 2328 
Q 1025 1406 1450 917 
Q 1875 428 2675 428 
Q 3081 428 3442 575 
Q 3803 722 4122 1019 
L 4122 359 
Q 3791 134 3420 21 
Q 3050 -91 2638 -91 
Q 1578 -91 968 557 
Q 359 1206 359 2328 
Q 359 3453 968 4101 
Q 1578 4750 2638 4750 
Q 3056 4750 3426 4639 
Q 3797 4528 4122 4306 
z
" transform="scale(0.015625)"/>
      <path id="DejaVuSans-77" d="M 269 3500 
L 844 3500 
L 1563 769 
L 2278 3500 
L 2956 3500 
L 3675 769 
L 4391 3500 
L 4966 3500 
L 4050 0 
L 3372 0 
L 2619 2869 
L 1863 0 
L 1184 0 
L 269 3500 
z
" transform="scale(0.015625)"/>
      <path id="DejaVuSans-6c" d="M 603 4863 
L 1178 4863 
L 1178 0 
L 603 0 
L 603 4863 
z
" transform="scale(0.015625)"/>
      <path id="DejaVuSans-37" d="M 525 4666 
L 3525 4666 
L 3525 4397 
L 1831 0 
L 1172 0 
L 2766 4134 
L 525 4134 
L 525 4666 
z
" transform="scale(0.015625)"/>
      <path id="DejaVuSans-67" d="M 2906 1791 
Q 2906 2416 2648 2759 
Q 2391 3103 1925 3103 
Q 1463 3103 1205 2759 
Q 947 2416 947 1791 
Q 947 1169 1205 825 
Q 1463 481 1925 481 
Q 2391 481 2648 825 
Q 2906 1169 2906 1791 
z
M 3481 434 
Q 3481 -459 3084 -895 
Q 2688 -1331 1869 -1331 
Q 1566 -1331 1297 -1286 
Q 1028 -1241 775 -1147 
L 775 -588 
Q 1028 -725 1275 -790 
Q 1522 -856 1778 -856 
Q 2344 -856 2625 -561 
Q 2906 -266 2906 331 
L 2906 616 
Q 2728 306 2450 153 
Q 2172 0 1784 0 
Q 1141 0 747 490 
Q 353 981 353 1791 
Q 353 2603 747 3093 
Q 1141 3584 1784 3584 
Q 2172 3584 2450 3431 
Q 2728 3278 2906 2969 
L 2906 3500 
L 3481 3500 
L 3481 434 
z
" transform="scale(0.015625)"/>
      <path id="DejaVuSans-2014" d="M 313 1978 
L 6088 1978 
L 6088 1528 
L 313 1528 
L 313 1978 
z
" transform="scale(0.015625)"/>
     </defs>
     <use xlink:href="#DejaVuSans-48"/>
     <use xlink:href="#DejaVuSans-61" x="75.195312"/>
     <use xlink:href="#DejaVuSans-6e" x="136.474609"/>
     <use xlink:href="#DejaVuSans-64" x="199.853516"/>
     <use xlink:href="#DejaVuSans-73" x="263.330078"/>
     <use xlink:href="#DejaVuSans-68" x="315.429688"/>
     <use xlink:href="#DejaVuSans-61" x="378.808594"/>
     <use xlink:href="#DejaVuSans-6b" x="440.087891"/>
     <use xlink:href="#DejaVuSans-65" x="494.373047"/>
     <use xlink:href="#DejaVuSans-20" x="555.896484"/>
     <use xlink:href="#DejaVuSans-64" x="587.683594"/>
     <use xlink:href="#DejaVuSans-75" x="651.160156"/>
     <use xlink:href="#DejaVuSans-72" x="714.539062"/>
     <use xlink:href="#DejaVuSans-61" x="755.652344"/>
     <use xlink:href="#DejaVuSans-74" x="816.931641"/>
     <use xlink:href="#DejaVuSans-69" x="856.140625"/>
     <use xlink:href="#DejaVuSans-6f" x="883.923828"/>
     <use xlink:href="#DejaVuSans-6e" x="945.105469"/>
     <use xlink:href="#DejaVuSans-20" x="1008.484375"/>
     <use xlink:href="#DejaVuSans-6f" x="1040.271484"/>
     <use xlink:href="#DejaVuSans-6e" x="1101.453125"/>
     <use xlink:href="#DejaVuSans-20" x="1164.832031"/>
     <use xlink:href="#DejaVuSans-51" x="1196.619141"/>
     <use xlink:href="#DejaVuSans-55" x="1275.330078"/>
     <use xlink:href="#DejaVuSans-49" x="1348.523438"/>
     <use xlink:href="#DejaVuSans-43" x="1378.015625"/>
     <use xlink:href="#DejaVuSans-20" x="1447.839844"/>
     <use xlink:href="#DejaVuSans-77" x="1479.626953"/>
     <use xlink:href="#DejaVuSans-69" x="1561.414062"/>
     <use xlink:href="#DejaVuSans-74" x="1589.197266"/>
     <use xlink:href="#DejaVuSans-68" x="1628.40625"/>
     <use xlink:href="#DejaVuSans-20" x="1691.785156"/>
     <use xlink:href="#DejaVuSans-6d" x="1723.572266"/>
     <use xlink:href="#DejaVuSans-6c" x="1820.984375"/>
     <use xlink:href="#DejaVuSans-64" x="1848.767578"/>
     <use xlink:href="#DejaVuSans-73" x="1912.244141"/>
     <use xlink:href="#DejaVuSans-61" x="1964.34375"/>
     <use xlink:href="#DejaVuSans-38" x="2025.623047"/>
     <use xlink:href="#DejaVuSans-37" x="2089.246094"/>
     <use xlink:href="#DejaVuSans-20" x="2152.869141"/>
     <use xlink:href="#DejaVuSans-73" x="2184.65625"/>
     <use xlink:href="#DejaVuSans-69" x="2236.755859"/>
     <use xlink:href="#DejaVuSans-67" x="2264.539062"/>
     <use xlink:href="#DejaVuSans-6e" x="2328.015625"/>
     <use xlink:href="#DejaVuSans-61" x="2391.394531"/>
     <use xlink:href="#DejaVuSans-74" x="2452.673828"/>
     <use xlink:href="#DejaVuSans-75" x="2491.882812"/>
     <use xlink:href="#DejaVuSans-72" x="2555.261719"/>
     <use xlink:href="#DejaVuSans-65" x="2594.125"/>
     <use xlink:href="#DejaVuSans-20" x="2655.648438"/>
     <use xlink:href="#DejaVuSans-61" x="2687.435547"/>
     <use xlink:href="#DejaVuSans-6c" x="2748.714844"/>
     <use xlink:href="#DejaVuSans-67" x="2776.498047"/>
     <use xlink:href="#DejaVuSans-6f" x="2839.974609"/>
     <use xlink:href="#DejaVuSans-72" x="2901.15625"/>
     <use xlink:href="#DejaVuSans-69" x="2942.269531"/>
     <use xlink:href="#DejaVuSans-74" x="2970.052734"/>
     <use xlink:href="#DejaVuSans-68" x="3009.261719"/>
     <use xlink:href="#DejaVuSans-6d" x="3072.640625"/>
     <use xlink:href="#DejaVuSans-20" x="3170.052734"/>
     <use xlink:href="#DejaVuSans-2014" x="3201.839844"/>
     <use xlink:href="#DejaVuSans-20" x="3301.839844"/>
     <use xlink:href="#DejaVuSans-69" x="3333.626953"/>
     <use xlink:href="#DejaVuSans-64" x="3361.410156"/>
     <use xlink:href="#DejaVuSans-65" x="3424.886719"/>
     <use xlink:href="#DejaVuSans-61" x="3486.410156"/>
     <use xlink:href="#DejaVuSans-6c" x="3547.689453"/>
     <use xlink:href="#DejaVuSans-20" x="3575.472656"/>
     <use xlink:href="#DejaVuSans-63" x="3607.259766"/>
     <use xlink:href="#DejaVuSans-6f" x="3662.240234"/>
     <use xlink:href="#DejaVuSans-6e" x="3723.421875"/>
     <use xlink:href="#DejaVuSans-64" x="3786.800781"/>
     <use xlink:href="#DejaVuSans-69" x="3850.277344"/>
     <use xlink:href="#DejaVuSans-74" x="3878.060547"/>
     <use xlink:href="#DejaVuSans-69" x="3917.269531"/>
     <use xlink:href="#DejaVuSans-6f" x="3945.052734"/>
     <use xlink:href="#DejaVuSans-6e" x="4006.234375"/>
     <use xlink:href="#DejaVuSans-73" x="4069.613281"/>
    </g>
   </g>
  </g>
 </g>
 <defs>
  <clipPath id="p2ef6a44b82">
   <rect x="58.32" y="27.6" width="792.72" height="349.637044"/>
  </clipPath>
 </defs>
</svg>
