<?xml version="1.0" encoding="utf-8" standalone="no"?>
<!DOCTYPE svg PUBLIC "-//W3C//DTD SVG 1.1//EN"
  "http://www.w3.org/Graphics/SVG/1.1/DTD/svg11.dtd">
<svg xmlns:xlink="http://www.w3.org/1999/xlink" width="864pt" height="432pt" viewBox="0 0 864 432" xmlns="http://www.w3.org/2000/svg" version="1.1">
 <metadata>
  <rdf:RDF xmlns:dc="http://purl.org/dc/elements/1.1/" xmlns:cc="http://creativecommons.org/ns#" xmlns:rdf="http://www.w3.org/1999/02/22-rdf-syntax-ns#">
   <cc:Work>
    <dc:type rdf:resource="http://purl.org/dc/dcmitype/StillImage"/>
    <dc:date>2026-03-21T14:06:25.775744</dc:date>
    <dc:format>image/svg+xml</dc:format>
    <dc:creator>
     <cc:Agent>
      <dc:title>Matplotlib v3.6.3, https://matplotlib.org/</dc:title>
     </cc:Agent>
    </dc:creator>
   </cc:Work>
  </rdf:RDF>
 </metadata>
 <defs>
  <style type="text/css">*{stroke-linejoin: round; stroke-linecap: butt}</style>
 </defs>
 <g id="figure_1">
  <g id="patch_1">
   <path d="M 0 432 
L 864 432 
L 864 0 
L 0 0 
z
" style="fill: #ffffff"/>
  </g>
  <g id="axes_1">
   <g id="patch_2">
    <path d="M 58.32 377.237044 
L 851.04 377.237044 
L 851.04 27.6 
L 58.32 27.6 
z
" style="fill: #ffffff"/>
   </g>
   <g id="matplotlib.axis_1">
    <g id="xtick_1">
     <g id="text_1">
      <!-- P-521 -->
      <g style="fill: #262626" transform="translate(156.759421 404.396088) rotate(-15) scale(0.12 -0.12)">
       <defs>
        <path id="DejaVuSans-50" d="M 1259 4147 
L 1259 2394 
L 2053 2394 
Q 2494 2394 2734 2622 
Q 2975 2850 2975 3272 
Q 2975 3691 2734 3919 
Q 2494 4147 2053 4147 
L 1259 4147 
z
M 628 4666 
L 2053 4666 
Q 2838 4666 3239 4311 
Q 3641 3956 3641 3272 
Q 3641 2581 3239 2228 
Q 2838 1875 2053 1875 
L 1259 1875 
L 1259 0 
L 628 0 
L 628 4666 
z
" transform="scale(0.015625)"/>
        <path id="DejaVuSans-2d" d="M 313 2009 
L 1997 2009 
L 1997 1497 
L 313 1497 
L 313 2009 
z
" transform="scale(0.015625)"/>
        <path id="DejaVuSans-35" d="M 691 4666 
L 3169 4666 
L 3169 4134 
L 1269 4134 
L 1269 2991 
Q 1406 3038 1543 3061 
Q 1681 3084 1819 3084 
Q 2600 3084 3056 2656 
Q 3513 2228 3513 1497 
Q 3513 744 3044 326 
Q 2575 -91 1722 -91 
Q 1428 -91 1123 -41 
Q 819 9 494 109 
L 494 744 
Q 775 591 1075 516 
Q 1375 441 1709 441 
Q 2250 441 2565 725 
Q 2881 1009 2881 1497 
Q 2881 1984 2565 2268 
Q 2250 2553 1709 2553 
Q 1456 2553 1204 2497 
Q 953 2441 691 2322 
L 691 4666 
z
" transform="scale(0.015625)"/>
        <path id="DejaVuSans-32" d="M 1228 531 
L 3431 531 
L 3431 0 
L 469 0 
L 469 531 
Q 828 903 1448 1529 
Q 2069 2156 2228 2338 
Q 2531 2678 2651 2914 
Q 2772 3150 2772 3378 
Q 2772 3750 2511 3984 
Q 2250 4219 1831 4219 
Q 1534 4219 1204 4116 
Q 875 4013 500 3803 
L 500 4441 
Q 881 4594 1212 4672 
Q 1544 4750 1819 4750 
Q 2544 4750 2975 4387 
Q 3406 4025 3406 3419 
Q 3406 3131 3298 2873 
Q 3191 2616 2906 2266 
Q 2828 2175 2409 1742 
Q 1991 1309 1228 531 
z
" transform="scale(0.015625)"/>
        <path id="DejaVuSans-31" d="M 794 531 
L 1825 531 
L 1825 4091 
L 703 3866 
L 703 4441 
L 1819 4666 
L 2450 4666 
L 2450 531 
L 3481 531 
L 3481 0 
L 794 0 
L 794 531 
z
" transform="scale(0.015625)"/>
       </defs>
       <use xlink:href="#DejaVuSans-50"/>
       <use xlink:href="#DejaVuSans-2d" x="58.052734"/>
       <use xlink:href="#DejaVuSans-35" x="94.136719"/>
       <use xlink:href="#DejaVuSans-32" x="157.759766"/>
       <use xlink:href="#DejaVuSans-31" x="221.382812"/>
      </g>
     </g>
    </g>
    <g id="xtick_2">
     <g id="text_2">
      <!-- hqc256 -->
      <g style="fill: #262626" transform="translate(410.831845 407.120482) rotate(-15) scale(0.12 -0.12)">
       <defs>
        <path id="DejaVuSans-68" d="M 3513 2113 
L 3513 0 
L 2938 0 
L 2938 2094 
Q 2938 2591 2744 2837 
Q 2550 3084 2163 3084 
Q 1697 3084 1428 2787 
Q 1159 2491 1159 1978 
L 1159 0 
L 581 0 
L 581 4863 
L 1159 4863 
L 1159 2956 
Q 1366 3272 1645 3428 
Q 1925 3584 2291 3584 
Q 2894 3584 3203 3211 
Q 3513 2838 3513 2113 
z
" transform="scale(0.015625)"/>
        <path id="DejaVuSans-71" d="M 947 1747 
Q 947 1113 1208 752 
Q 1469 391 1925 391 
Q 2381 391 2643 752 
Q 2906 1113 2906 1747 
Q 2906 2381 2643 2742 
Q 2381 3103 1925 3103 
Q 1469 3103 1208 2742 
Q 947 2381 947 1747 
z
M 2906 525 
Q 2725 213 2448 61 
Q 2172 -91 1784 -91 
Q 1150 -91 751 415 
Q 353 922 353 1747 
Q 353 2572 751 3078 
Q 1150 3584 1784 3584 
Q 2172 3584 2448 3432 
Q 2725 3281 2906 2969 
L 2906 3500 
L 3481 3500 
L 3481 -1331 
L 2906 -1331 
L 2906 525 
z
" transform="scale(0.015625)"/>
        <path id="DejaVuSans-63" d="M 3122 3366 
L 3122 2828 
Q 2878 2963 2633 3030 
Q 2388 3097 2138 3097 
Q 1578 3097 1268 2742 
Q 959 2388 959 1747 
Q 959 1106 1268 751 
Q 1578 397 2138 397 
Q 2388 397 2633 464 
Q 2878 531 3122 666 
L 3122 134 
Q 2881 22 2623 -34 
Q 2366 -91 2075 -91 
Q 1284 -91 818 406 
Q 353 903 353 1747 
Q 353 2603 823 3093 
Q 1294 3584 2113 3584 
Q 2378 3584 2631 3529 
Q 2884 3475 3122 3366 
z
" transform="scale(0.015625)"/>
        <path id="DejaVuSans-36" d="M 2113 2584 
Q 1688 2584 1439 2293 
Q 1191 2003 1191 1497 
Q 1191 994 1439 701 
Q 1688 409 2113 409 
Q 2538 409 2786 701 
Q 3034 994 3034 1497 
Q 3034 2003 2786 2293 
Q 2538 2584 2113 2584 
z
M 3366 4563 
L 3366 3988 
Q 3128 4100 2886 4159 
Q 2644 4219 2406 4219 
Q 1781 4219 1451 3797 
Q 1122 3375 1075 2522 
Q 1259 2794 1537 2939 
Q 1816 3084 2150 3084 
Q 2853 3084 3261 2657 
Q 3669 2231 3669 1497 
Q 3669 778 3244 343 
Q 2819 -91 2113 -91 
Q 1303 -91 875 529 
Q 447 1150 447 2328 
Q 447 3434 972 4092 
Q 1497 4750 2381 4750 
Q 2619 4750 2861 4703 
Q 3103 4656 3366 4563 
z
" transform="scale(0.015625)"/>
       </defs>
       <use xlink:href="#DejaVuSans-68"/>
       <use xlink:href="#DejaVuSans-71" x="63.378906"/>
       <use xlink:href="#DejaVuSans-63" x="126.855469"/>
       <use xlink:href="#DejaVuSans-32" x="181.835938"/>
       <use xlink:href="#DejaVuSans-35" x="245.458984"/>
       <use xlink:href="#DejaVuSans-36" x="309.082031"/>
      </g>
     </g>
    </g>
    <g id="xtick_3">
     <g id="text_3">
      <!-- p521_hqc256 -->
      <g style="fill: #262626" transform="translate(639.706834 416.573362) rotate(-15) scale(0.12 -0.12)">
       <defs>
        <path id="DejaVuSans-70" d="M 1159 525 
L 1159 -1331 
L 581 -1331 
L 581 3500 
L 1159 3500 
L 1159 2969 
Q 1341 3281 1617 3432 
Q 1894 3584 2278 3584 
Q 2916 3584 3314 3078 
Q 3713 2572 3713 1747 
Q 3713 922 3314 415 
Q 2916 -91 2278 -91 
Q 1894 -91 1617 61 
Q 1341 213 1159 525 
z
M 3116 1747 
Q 3116 2381 2855 2742 
Q 2594 3103 2138 3103 
Q 1681 3103 1420 2742 
Q 1159 2381 1159 1747 
Q 1159 1113 1420 752 
Q 1681 391 2138 391 
Q 2594 391 2855 752 
Q 3116 1113 3116 1747 
z
" transform="scale(0.015625)"/>
        <path id="DejaVuSans-5f" d="M 3263 -1063 
L 3263 -1509 
L -63 -1509 
L -63 -1063 
L 3263 -1063 
z
" transform="scale(0.015625)"/>
       </defs>
       <use xlink:href="#DejaVuSans-70"/>
       <use xlink:href="#DejaVuSans-35" x="63.476562"/>
       <use xlink:href="#DejaVuSans-32" x="127.099609"/>
       <use xlink:href="#DejaVuSans-31" x="190.722656"/>
       <use xlink:href="#DejaVuSans-5f" x="254.345703"/>
       <use xlink:href="#DejaVuSans-68" x="304.345703"/>
       <use xlink:href="#DejaVuSans-71" x="367.724609"/>
       <use xlink:href="#DejaVuSans-63" x="431.201172"/>
       <use xlink:href="#DejaVuSans-32" x="486.181641"/>
       <use xlink:href="#DejaVuSans-35" x="549.804688"/>
       <use xlink:href="#DejaVuSans-36" x="613.427734"/>
      </g>
     </g>
    </g>
   </g>
   <g id="matplotlib.axis_2">
    <g id="ytick_1">
     <g id="line2d_1">
      <path d="M 58.32 372.973412 
L 851.04 372.973412 
" clip-path="url(#pbda7dc979a)" style="fill: none; stroke: #cccccc; stroke-linecap: round"/>
     </g>
     <g id="text_4">
      <!-- 0 -->
      <g style="fill: #262626" transform="translate(41.82125 377.152552) scale(0.11 -0.11)">
       <defs>
        <path id="DejaVuSans-30" d="M 2034 4250 
Q 1547 4250 1301 3770 
Q 1056 3291 1056 2328 
Q 1056 1369 1301 889 
Q 1547 409 2034 409 
Q 2525 409 2770 889 
Q 3016 1369 3016 2328 
Q 3016 3291 2770 3770 
Q 2525 4250 2034 4250 
z
M 2034 4750 
Q 2819 4750 3233 4129 
Q 3647 3509 3647 2328 
Q 3647 1150 3233 529 
Q 2819 -91 2034 -91 
Q 1250 -91 836 529 
Q 422 1150 422 2328 
Q 422 3509 836 4129 
Q 1250 4750 2034 4750 
z
" transform="scale(0.015625)"/>
       </defs>
       <use xlink:href="#DejaVuSans-30"/>
      </g>
     </g>
    </g>
    <g id="ytick_2">
     <g id="line2d_2">
      <path d="M 58.32 319.369725 
L 851.04 319.369725 
" clip-path="url(#pbda7dc979a)" style="fill: none; stroke: #cccccc; stroke-linecap: round"/>
     </g>
     <g id="text_5">
      <!-- 20 -->
      <g style="fill: #262626" transform="translate(34.8225 323.548865) scale(0.11 -0.11)">
       <use xlink:href="#DejaVuSans-32"/>
       <use xlink:href="#DejaVuSans-30" x="63.623047"/>
      </g>
     </g>
    </g>
    <g id="ytick_3">
     <g id="line2d_3">
      <path d="M 58.32 265.766038 
L 851.04 265.766038 
" clip-path="url(#pbda7dc979a)" style="fill: none; stroke: #cccccc; stroke-linecap: round"/>
     </g>
     <g id="text_6">
      <!-- 40 -->
      <g style="fill: #262626" transform="translate(34.8225 269.945178) scale(0.11 -0.11)">
       <defs>
        <path id="DejaVuSans-34" d="M 2419 4116 
L 825 1625 
L 2419 1625 
L 2419 4116 
z
M 2253 4666 
L 3047 4666 
L 3047 1625 
L 3713 1625 
L 3713 1100 
L 3047 1100 
L 3047 0 
L 2419 0 
L 2419 1100 
L 313 1100 
L 313 1709 
L 2253 4666 
z
" transform="scale(0.015625)"/>
       </defs>
       <use xlink:href="#DejaVuSans-34"/>
       <use xlink:href="#DejaVuSans-30" x="63.623047"/>
      </g>
     </g>
    </g>
    <g id="ytick_4">
     <g id="line2d_4">
      <path d="M 58.32 212.162351 
L 851.04 212.162351 
" clip-path="url(#pbda7dc979a)" style="fill: none; stroke: #cccccc; stroke-linecap: round"/>
     </g>
     <g id="text_7">
      <!-- 60 -->
      <g style="fill: #262626" transform="translate(34.8225 216.341491) scale(0.11 -0.11)">
       <use xlink:href="#DejaVuSans-36"/>
       <use xlink:href="#DejaVuSans-30" x="63.623047"/>
      </g>
     </g>
    </g>
    <g id="ytick_5">
     <g id="line2d_5">
      <path d="M 58.32 158.558664 
L 851.04 158.558664 
" clip-path="url(#pbda7dc979a)" style="fill: none; stroke: #cccccc; stroke-linecap: round"/>
     </g>
     <g id="text_8">
      <!-- 80 -->
      <g style="fill: #262626" transform="translate(34.8225 162.737804) scale(0.11 -0.11)">
       <defs>
        <path id="DejaVuSans-38" d="M 2034 2216 
Q 1584 2216 1326 1975 
Q 1069 1734 1069 1313 
Q 1069 891 1326 650 
Q 1584 409 2034 409 
Q 2484 409 2743 651 
Q 3003 894 3003 1313 
Q 3003 1734 2745 1975 
Q 2488 2216 2034 2216 
z
M 1403 2484 
Q 997 2584 770 2862 
Q 544 3141 544 3541 
Q 544 4100 942 4425 
Q 1341 4750 2034 4750 
Q 2731 4750 3128 4425 
Q 3525 4100 3525 3541 
Q 3525 3141 3298 2862 
Q 3072 2584 2669 2484 
Q 3125 2378 3379 2068 
Q 3634 1759 3634 1313 
Q 3634 634 3220 271 
Q 2806 -91 2034 -91 
Q 1263 -91 848 271 
Q 434 634 434 1313 
Q 434 1759 690 2068 
Q 947 2378 1403 2484 
z
M 1172 3481 
Q 1172 3119 1398 2916 
Q 1625 2713 2034 2713 
Q 2441 2713 2670 2916 
Q 2900 3119 2900 3481 
Q 2900 3844 2670 4047 
Q 2441 4250 2034 4250 
Q 1625 4250 1398 4047 
Q 1172 3844 1172 3481 
z
" transform="scale(0.015625)"/>
       </defs>
       <use xlink:href="#DejaVuSans-38"/>
       <use xlink:href="#DejaVuSans-30" x="63.623047"/>
      </g>
     </g>
    </g>
    <g id="ytick_6">
     <g id="line2d_6">
      <path d="M 58.32 104.954977 
L 851.04 104.954977 
" clip-path="url(#pbda7dc979a)" style="fill: none; stroke: #cccccc; stroke-linecap: round"/>
     </g>
     <g id="text_9">
      <!-- 100 -->
      <g style="fill: #262626" transform="translate(27.82375 109.134117) scale(0.11 -0.11)">
       <use xlink:href="#DejaVuSans-31"/>
       <use xlink:href="#DejaVuSans-30" x="63.623047"/>
       <use xlink:href="#DejaVuSans-30" x="127.246094"/>
      </g>
     </g>
    </g>
    <g id="ytick_7">
     <g id="line2d_7">
      <path d="M 58.32 51.35129 
L 851.04 51.35129 
" clip-path="url(#pbda7dc979a)" style="fill: none; stroke: #cccccc; stroke-linecap: round"/>
     </g>
     <g id="text_10">
      <!-- 120 -->
      <g style="fill: #262626" transform="translate(27.82375 55.53043) scale(0.11 -0.11)">
       <use xlink:href="#DejaVuSans-31"/>
       <use xlink:href="#DejaVuSans-32" x="63.623047"/>
       <use xlink:href="#DejaVuSans-30" x="127.246094"/>
      </g>
     </g>
    </g>
    <g id="text_11">
     <!-- Handshake duration (ms) -->
     <g style="fill: #262626" transform="translate(21.328125 278.486335) rotate(-90) scale(0.12 -0.12)">
      <defs>
       <path id="DejaVuSans-48" d="M 628 4666 
L 1259 4666 
L 1259 2753 
L 3553 2753 
L 3553 4666 
L 4184 4666 
L 4184 0 
L 3553 0 
L 3553 2222 
L 1259 2222 
L 1259 0 
L 628 0 
L 628 4666 
z
" transform="scale(0.015625)"/>
       <path id="DejaVuSans-61" d="M 2194 1759 
Q 1497 1759 1228 1600 
Q 959 1441 959 1056 
Q 959 750 1161 570 
Q 1363 391 1709 391 
Q 2188 391 2477 730 
Q 2766 1069 2766 1631 
L 2766 1759 
L 2194 1759 
z
M 3341 1997 
L 3341 0 
L 2766 0 
L 2766 531 
Q 2569 213 2275 61 
Q 1981 -91 1556 -91 
Q 1019 -91 701 211 
Q 384 513 384 1019 
Q 384 1609 779 1909 
Q 1175 2209 1959 2209 
L 2766 2209 
L 2766 2266 
Q 2766 2663 2505 2880 
Q 2244 3097 1772 3097 
Q 1472 3097 1187 3025 
Q 903 2953 641 2809 
L 641 3341 
Q 956 3463 1253 3523 
Q 1550 3584 1831 3584 
Q 2591 3584 2966 3190 
Q 3341 2797 3341 1997 
z
" transform="scale(0.015625)"/>
       <path id="DejaVuSans-6e" d="M 3513 2113 
L 3513 0 
L 2938 0 
L 2938 2094 
Q 2938 2591 2744 2837 
Q 2550 3084 2163 3084 
Q 1697 3084 1428 2787 
Q 1159 2491 1159 1978 
L 1159 0 
L 581 0 
L 581 3500 
L 1159 3500 
L 1159 2956 
Q 1366 3272 1645 3428 
Q 1925 3584 2291 3584 
Q 2894 3584 3203 3211 
Q 3513 2838 3513 2113 
z
" transform="scale(0.015625)"/>
       <path id="DejaVuSans-64" d="M 2906 2969 
L 2906 4863 
L 3481 4863 
L 3481 0 
L 2906 0 
L 2906 525 
Q 2725 213 2448 61 
Q 2172 -91 1784 -91 
Q 1150 -91 751 415 
Q 353 922 353 1747 
Q 353 2572 751 3078 
Q 1150 3584 1784 3584 
Q 2172 3584 2448 3432 
Q 2725 3281 2906 2969 
z
M 947 1747 
Q 947 1113 1208 752 
Q 1469 391 1925 391 
Q 2381 391 2643 752 
Q 2906 1113 2906 1747 
Q 2906 2381 2643 2742 
Q 2381 3103 1925 3103 
Q 1469 3103 1208 2742 
Q 947 2381 947 1747 
z
" transform="scale(0.015625)"/>
       <path id="DejaVuSans-73" d="M 2834 3397 
L 2834 2853 
Q 2591 2978 2328 3040 
Q 2066 3103 1784 3103 
Q 1356 3103 1142 2972 
Q 928 2841 928 2578 
Q 928 2378 1081 2264 
Q 1234 2150 1697 2047 
L 1894 2003 
Q 2506 1872 2764 1633 
Q 3022 1394 3022 966 
Q 3022 478 2636 193 
Q 2250 -91 1575 -91 
Q 1294 -91 989 -36 
Q 684 19 347 128 
L 347 722 
Q 666 556 975 473 
Q 1284 391 1588 391 
Q 1994 391 2212 530 
Q 2431 669 2431 922 
Q 2431 1156 2273 1281 
Q 2116 1406 1581 1522 
L 1381 1569 
Q 847 1681 609 1914 
Q 372 2147 372 2553 
Q 372 3047 722 3315 
Q 1072 3584 1716 3584 
Q 2034 3584 2315 3537 
Q 2597 3491 2834 3397 
z
" transform="scale(0.015625)"/>
       <path id="DejaVuSans-6b" d="M 581 4863 
L 1159 4863 
L 1159 1991 
L 2875 3500 
L 3609 3500 
L 1753 1863 
L 3688 0 
L 2938 0 
L 1159 1709 
L 1159 0 
L 581 0 
L 581 4863 
z
" transform="scale(0.015625)"/>
       <path id="DejaVuSans-65" d="M 3597 1894 
L 3597 1613 
L 953 1613 
Q 991 1019 1311 708 
Q 1631 397 2203 397 
Q 2534 397 2845 478 
Q 3156 559 3463 722 
L 3463 178 
Q 3153 47 2828 -22 
Q 2503 -91 2169 -91 
Q 1331 -91 842 396 
Q 353 884 353 1716 
Q 353 2575 817 3079 
Q 1281 3584 2069 3584 
Q 2775 3584 3186 3129 
Q 3597 2675 3597 1894 
z
M 3022 2063 
Q 3016 2534 2758 2815 
Q 2500 3097 2075 3097 
Q 1594 3097 1305 2825 
Q 1016 2553 972 2059 
L 3022 2063 
z
" transform="scale(0.015625)"/>
       <path id="DejaVuSans-20" transform="scale(0.015625)"/>
       <path id="DejaVuSans-75" d="M 544 1381 
L 544 3500 
L 1119 3500 
L 1119 1403 
Q 1119 906 1312 657 
Q 1506 409 1894 409 
Q 2359 409 2629 706 
Q 2900 1003 2900 1516 
L 2900 3500 
L 3475 3500 
L 3475 0 
L 2900 0 
L 2900 538 
Q 2691 219 2414 64 
Q 2138 -91 1772 -91 
Q 1169 -91 856 284 
Q 544 659 544 1381 
z
M 1991 3584 
L 1991 3584 
z
" transform="scale(0.015625)"/>
       <path id="DejaVuSans-72" d="M 2631 2963 
Q 2534 3019 2420 3045 
Q 2306 3072 2169 3072 
Q 1681 3072 1420 2755 
Q 1159 2438 1159 1844 
L 1159 0 
L 581 0 
L 581 3500 
L 1159 3500 
L 1159 2956 
Q 1341 3275 1631 3429 
Q 1922 3584 2338 3584 
Q 2397 3584 2469 3576 
Q 2541 3569 2628 3553 
L 2631 2963 
z
" transform="scale(0.015625)"/>
       <path id="DejaVuSans-74" d="M 1172 4494 
L 1172 3500 
L 2356 3500 
L 2356 3053 
L 1172 3053 
L 1172 1153 
Q 1172 725 1289 603 
Q 1406 481 1766 481 
L 2356 481 
L 2356 0 
L 1766 0 
Q 1100 0 847 248 
Q 594 497 594 1153 
L 594 3053 
L 172 3053 
L 172 3500 
L 594 3500 
L 594 4494 
L 1172 4494 
z
" transform="scale(0.015625)"/>
       <path id="DejaVuSans-69" d="M 603 3500 
L 1178 3500 
L 1178 0 
L 603 0 
L 603 3500 
z
M 603 4863 
L 1178 4863 
L 1178 4134 
L 603 4134 
L 603 4863 
z
" transform="scale(0.015625)"/>
       <path id="DejaVuSans-6f" d="M 1959 3097 
Q 1497 3097 1228 2736 
Q 959 2375 959 1747 
Q 959 1119 1226 758 
Q 1494 397 1959 397 
Q 2419 397 2687 759 
Q 2956 1122 2956 1747 
Q 2956 2369 2687 2733 
Q 2419 3097 1959 3097 
z
M 1959 3584 
Q 2709 3584 3137 3096 
Q 3566 2609 3566 1747 
Q 3566 888 3137 398 
Q 2709 -91 1959 -91 
Q 1206 -91 779 398 
Q 353 888 353 1747 
Q 353 2609 779 3096 
Q 1206 3584 1959 3584 
z
" transform="scale(0.015625)"/>
       <path id="DejaVuSans-28" d="M 1984 4856 
Q 1566 4138 1362 3434 
Q 1159 2731 1159 2009 
Q 1159 1288 1364 580 
Q 1569 -128 1984 -844 
L 1484 -844 
Q 1016 -109 783 600 
Q 550 1309 550 2009 
Q 550 2706 781 3412 
Q 1013 4119 1484 4856 
L 1984 4856 
z
" transform="scale(0.015625)"/>
       <path id="DejaVuSans-6d" d="M 3328 2828 
Q 3544 3216 3844 3400 
Q 4144 3584 4550 3584 
Q 5097 3584 5394 3201 
Q 5691 2819 5691 2113 
L 5691 0 
L 5113 0 
L 5113 2094 
Q 5113 2597 4934 2840 
Q 4756 3084 4391 3084 
Q 3944 3084 3684 2787 
Q 3425 2491 3425 1978 
L 3425 0 
L 2847 0 
L 2847 2094 
Q 2847 2600 2669 2842 
Q 2491 3084 2119 3084 
Q 1678 3084 1418 2786 
Q 1159 2488 1159 1978 
L 1159 0 
L 581 0 
L 581 3500 
L 1159 3500 
L 1159 2956 
Q 1356 3278 1631 3431 
Q 1906 3584 2284 3584 
Q 2666 3584 2933 3390 
Q 3200 3197 3328 2828 
z
" transform="scale(0.015625)"/>
       <path id="DejaVuSans-29" d="M 513 4856 
L 1013 4856 
Q 1481 4119 1714 3412 
Q 1947 2706 1947 2009 
Q 1947 1309 1714 600 
Q 1481 -109 1013 -844 
L 513 -844 
Q 928 -128 1133 580 
Q 1338 1288 1338 2009 
Q 1338 2731 1133 3434 
Q 928 4138 513 4856 
z
" transform="scale(0.015625)"/>
      </defs>
      <use xlink:href="#DejaVuSans-48"/>
      <use xlink:href="#DejaVuSans-61" x="75.195312"/>
      <use xlink:href="#DejaVuSans-6e" x="136.474609"/>
      <use xlink:href="#DejaVuSans-64" x="199.853516"/>
      <use xlink:href="#DejaVuSans-73" x="263.330078"/>
      <use xlink:href="#DejaVuSans-68" x="315.429688"/>
      <use xlink:href="#DejaVuSans-61" x="378.808594"/>
      <use xlink:href="#DejaVuSans-6b" x="440.087891"/>
      <use xlink:href="#DejaVuSans-65" x="494.373047"/>
      <use xlink:href="#DejaVuSans-20" x="555.896484"/>
      <use xlink:href="#DejaVuSans-64" x="587.683594"/>
      <use xlink:href="#DejaVuSans-75" x="651.160156"/>
      <use xlink:href="#DejaVuSans-72" x="714.539062"/>
      <use xlink:href="#DejaVuSans-61" x="755.652344"/>
      <use xlink:href="#DejaVuSans-74" x="816.931641"/>
      <use xlink:href="#DejaVuSans-69" x="856.140625"/>
      <use xlink:href="#DejaVuSans-6f" x="883.923828"/>
      <use xlink:href="#DejaVuSans-6e" x="945.105469"/>
      <use xlink:href="#DejaVuSans-20" x="1008.484375"/>
      <use xlink:href="#DejaVuSans-28" x="1040.271484"/>
      <use xlink:href="#DejaVuSans-6d" x="1079.285156"/>
      <use xlink:href="#DejaVuSans-73" x="1176.697266"/>
      <use xlink:href="#DejaVuSans-29" x="1228.796875"/>
     </g>
    </g>
   </g>
   <g id="PolyCollection_1">
    <defs>
     <path id="m9f50cde285" d="M 193.917138 -70.655549 
L 186.962862 -70.655549 
L 184.674662 -70.793951 
L 181.272177 -70.932353 
L 176.456187 -71.070756 
L 169.975599 -71.209158 
L 161.698891 -71.34756 
L 151.68903 -71.485962 
L 140.261961 -71.624364 
L 128.00636 -71.762767 
L 115.747337 -71.901169 
L 104.449498 -72.039571 
L 95.072276 -72.177973 
L 88.407137 -72.316376 
L 84.935513 -72.454778 
L 84.744 -72.59318 
L 87.519173 -72.731582 
L 92.622981 -72.869985 
L 99.228185 -73.008387 
L 106.478819 -73.146789 
L 113.637189 -73.285191 
L 120.186369 -73.423593 
L 125.871833 -73.561996 
L 130.682558 -73.700398 
L 134.785829 -73.8388 
L 138.438115 -73.977202 
L 141.895933 -74.115605 
L 145.346565 -74.254007 
L 148.87071 -74.392409 
L 152.439954 -74.530811 
L 155.943531 -74.669214 
L 159.232805 -74.807616 
L 162.169326 -74.946018 
L 164.663406 -75.08442 
L 166.69425 -75.222822 
L 168.308628 -75.361225 
L 169.601116 -75.499627 
L 170.683572 -75.638029 
L 171.653521 -75.776431 
L 172.570207 -75.914834 
L 173.443803 -76.053236 
L 174.23885 -76.191638 
L 174.888996 -76.33004 
L 175.31769 -76.468443 
L 175.459064 -76.606845 
L 175.274543 -76.745247 
L 174.762824 -76.883649 
L 173.962802 -77.022051 
L 172.95023 -77.160454 
L 171.829291 -77.298856 
L 170.720283 -77.437258 
L 169.744723 -77.57566 
L 169.009685 -77.714063 
L 168.593786 -77.852465 
L 168.537617 -77.990867 
L 168.840894 -78.129269 
L 169.467205 -78.267672 
L 170.35525 -78.406074 
L 171.433562 -78.544476 
L 172.634804 -78.682878 
L 173.905999 -78.82128 
L 175.212637 -78.959683 
L 176.536615 -79.098085 
L 177.869896 -79.236487 
L 179.206759 -79.374889 
L 180.537442 -79.513292 
L 181.845043 -79.651694 
L 183.106081 -79.790096 
L 184.293911 -79.928498 
L 185.383399 -80.066901 
L 186.355187 -80.205303 
L 187.19836 -80.343705 
L 187.911039 -80.482107 
L 188.499172 -80.620509 
L 188.974199 -80.758912 
L 189.350423 -80.897314 
L 189.642737 -81.035716 
L 189.865052 -81.174118 
L 190.029469 -81.312521 
L 190.146037 -81.450923 
L 190.222895 -81.589325 
L 190.26661 -81.727727 
L 190.282624 -81.86613 
L 190.275745 -82.004532 
L 190.250656 -82.142934 
L 190.212349 -82.281336 
L 190.166387 -82.419738 
L 190.118882 -82.558141 
L 190.076123 -82.696543 
L 190.043915 -82.834945 
L 190.026778 -82.973347 
L 190.027228 -83.11175 
L 190.045379 -83.250152 
L 190.078997 -83.388554 
L 190.124016 -83.526956 
L 190.175376 -83.665358 
L 190.227972 -83.803761 
L 190.277462 -83.942163 
L 190.32079 -84.080565 
L 190.356349 -84.218967 
L 190.383841 -84.35737 
L 190.496159 -84.35737 
L 190.496159 -84.35737 
L 190.523651 -84.218967 
L 190.55921 -84.080565 
L 190.602538 -83.942163 
L 190.652028 -83.803761 
L 190.704624 -83.665358 
L 190.755984 -83.526956 
L 190.801003 -83.388554 
L 190.834621 -83.250152 
L 190.852772 -83.11175 
L 190.853222 -82.973347 
L 190.836085 -82.834945 
L 190.803877 -82.696543 
L 190.761118 -82.558141 
L 190.713613 -82.419738 
L 190.667651 -82.281336 
L 190.629344 -82.142934 
L 190.604255 -82.004532 
L 190.597376 -81.86613 
L 190.61339 -81.727727 
L 190.657105 -81.589325 
L 190.733963 -81.450923 
L 190.850531 -81.312521 
L 191.014948 -81.174118 
L 191.237263 -81.035716 
L 191.529577 -80.897314 
L 191.905801 -80.758912 
L 192.380828 -80.620509 
L 192.968961 -80.482107 
L 193.68164 -80.343705 
L 194.524813 -80.205303 
L 195.496601 -80.066901 
L 196.586089 -79.928498 
L 197.773919 -79.790096 
L 199.034957 -79.651694 
L 200.342558 -79.513292 
L 201.673241 -79.374889 
L 203.010104 -79.236487 
L 204.343385 -79.098085 
L 205.667363 -78.959683 
L 206.974001 -78.82128 
L 208.245196 -78.682878 
L 209.446438 -78.544476 
L 210.52475 -78.406074 
L 211.412795 -78.267672 
L 212.039106 -78.129269 
L 212.342383 -77.990867 
L 212.286214 -77.852465 
L 211.870315 -77.714063 
L 211.135277 -77.57566 
L 210.159717 -77.437258 
L 209.050709 -77.298856 
L 207.92977 -77.160454 
L 206.917198 -77.022051 
L 206.117176 -76.883649 
L 205.605457 -76.745247 
L 205.420936 -76.606845 
L 205.56231 -76.468443 
L 205.991004 -76.33004 
L 206.64115 -76.191638 
L 207.436197 -76.053236 
L 208.309793 -75.914834 
L 209.226479 -75.776431 
L 210.196428 -75.638029 
L 211.278884 -75.499627 
L 212.571372 -75.361225 
L 214.18575 -75.222822 
L 216.216594 -75.08442 
L 218.710674 -74.946018 
L 221.647195 -74.807616 
L 224.936469 -74.669214 
L 228.440046 -74.530811 
L 232.00929 -74.392409 
L 235.533435 -74.254007 
L 238.984067 -74.115605 
L 242.441885 -73.977202 
L 246.094171 -73.8388 
L 250.197442 -73.700398 
L 255.008167 -73.561996 
L 260.693631 -73.423593 
L 267.242811 -73.285191 
L 274.401181 -73.146789 
L 281.651815 -73.008387 
L 288.257019 -72.869985 
L 293.360827 -72.731582 
L 296.136 -72.59318 
L 295.944487 -72.454778 
L 292.472863 -72.316376 
L 285.807724 -72.177973 
L 276.430502 -72.039571 
L 265.132663 -71.901169 
L 252.87364 -71.762767 
L 240.618039 -71.624364 
L 229.19097 -71.485962 
L 219.181109 -71.34756 
L 210.904401 -71.209158 
L 204.423813 -71.070756 
L 199.607823 -70.932353 
L 196.205338 -70.793951 
L 193.917138 -70.655549 
z
" style="stroke: #595959; stroke-width: 1.25"/>
    </defs>
    <g clip-path="url(#pbda7dc979a)">
     <use xlink:href="#m9f50cde285" x="0" y="432" style="fill: #72b6a1; stroke: #595959; stroke-width: 1.25"/>
    </g>
   </g>
   <g id="PolyCollection_2">
    <defs>
     <path id="m3d5f92c17f" d="M 457.786198 -265.695141 
L 451.573802 -265.695141 
L 449.231787 -266.861707 
L 445.588637 -268.028273 
L 440.242318 -269.19484 
L 432.85252 -270.361406 
L 423.253818 -271.527973 
L 411.577122 -272.694539 
L 398.342953 -273.861105 
L 384.485056 -275.027672 
L 371.273349 -276.194238 
L 360.131949 -277.360804 
L 352.38374 -278.527371 
L 348.984 -279.693937 
L 350.317685 -280.860503 
L 356.120481 -282.02707 
L 365.546368 -283.193636 
L 377.358573 -284.360202 
L 390.184616 -285.526769 
L 402.763275 -286.693335 
L 414.124167 -287.859901 
L 423.670879 -289.026468 
L 431.171817 -290.193034 
L 436.686754 -291.359601 
L 440.465421 -292.526167 
L 442.849395 -293.692733 
L 444.196125 -294.8593 
L 444.831059 -296.025866 
L 445.024623 -297.192432 
L 444.986558 -298.358999 
L 444.869752 -299.525565 
L 444.777647 -300.692131 
L 444.771993 -301.858698 
L 444.880084 -303.025264 
L 445.102026 -304.19183 
L 445.418818 -305.358397 
L 445.801281 -306.524963 
L 446.218847 -307.691529 
L 446.646564 -308.858096 
L 447.068872 -310.024662 
L 447.479648 -311.191229 
L 447.879251 -312.357795 
L 448.27016 -313.524361 
L 448.652963 -314.690928 
L 449.02395 -315.857494 
L 449.37474 -317.02406 
L 449.693627 -318.190627 
L 449.967986 -319.357193 
L 450.18704 -320.523759 
L 450.344503 -321.690326 
L 450.440662 -322.856892 
L 450.483531 -324.023458 
L 450.488598 -325.190025 
L 450.476842 -326.356591 
L 450.471084 -327.523157 
L 450.491312 -328.689724 
L 450.550228 -329.85629 
L 450.650432 -331.022857 
L 450.784325 -332.189423 
L 450.936961 -333.355989 
L 451.091091 -334.522556 
L 451.232789 -335.689122 
L 451.355829 -336.855688 
L 451.463335 -338.022255 
L 451.566149 -339.188821 
L 451.678497 -340.355387 
L 451.812497 -341.521954 
L 451.97351 -342.68852 
L 452.15802 -343.855086 
L 452.354769 -345.021653 
L 452.548625 -346.188219 
L 452.725569 -347.354785 
L 452.876899 -348.521352 
L 453.001207 -349.687918 
L 453.103743 -350.854484 
L 453.19383 -352.021051 
L 453.281563 -353.187617 
L 453.374939 -354.354184 
L 453.478086 -355.52075 
L 453.590683 -356.687316 
L 453.708347 -357.853883 
L 453.823735 -359.020449 
L 453.92816 -360.187015 
L 454.013522 -361.353582 
L 454.07425 -362.520148 
L 454.108817 -363.686714 
L 454.120363 -364.853281 
L 454.116198 -366.019847 
L 454.106246 -367.186413 
L 454.100844 -368.35298 
L 454.108512 -369.519546 
L 454.134278 -370.686112 
L 454.178957 -371.852679 
L 454.239474 -373.019245 
L 454.310028 -374.185812 
L 454.383686 -375.352378 
L 454.453941 -376.518944 
L 454.51587 -377.685511 
L 454.566674 -378.852077 
L 454.605636 -380.018643 
L 454.633651 -381.18521 
L 454.726349 -381.18521 
L 454.726349 -381.18521 
L 454.754364 -380.018643 
L 454.793326 -378.852077 
L 454.84413 -377.685511 
L 454.906059 -376.518944 
L 454.976314 -375.352378 
L 455.049972 -374.185812 
L 455.120526 -373.019245 
L 455.181043 -371.852679 
L 455.225722 -370.686112 
L 455.251488 -369.519546 
L 455.259156 -368.35298 
L 455.253754 -367.186413 
L 455.243802 -366.019847 
L 455.239637 -364.853281 
L 455.251183 -363.686714 
L 455.28575 -362.520148 
L 455.346478 -361.353582 
L 455.43184 -360.187015 
L 455.536265 -359.020449 
L 455.651653 -357.853883 
L 455.769317 -356.687316 
L 455.881914 -355.52075 
L 455.985061 -354.354184 
L 456.078437 -353.187617 
L 456.16617 -352.021051 
L 456.256257 -350.854484 
L 456.358793 -349.687918 
L 456.483101 -348.521352 
L 456.634431 -347.354785 
L 456.811375 -346.188219 
L 457.005231 -345.021653 
L 457.20198 -343.855086 
L 457.38649 -342.68852 
L 457.547503 -341.521954 
L 457.681503 -340.355387 
L 457.793851 -339.188821 
L 457.896665 -338.022255 
L 458.004171 -336.855688 
L 458.127211 -335.689122 
L 458.268909 -334.522556 
L 458.423039 -333.355989 
L 458.575675 -332.189423 
L 458.709568 -331.022857 
L 458.809772 -329.85629 
L 458.868688 -328.689724 
L 458.888916 -327.523157 
L 458.883158 -326.356591 
L 458.871402 -325.190025 
L 458.876469 -324.023458 
L 458.919338 -322.856892 
L 459.015497 -321.690326 
L 459.17296 -320.523759 
L 459.392014 -319.357193 
L 459.666373 -318.190627 
L 459.98526 -317.02406 
L 460.33605 -315.857494 
L 460.707037 -314.690928 
L 461.08984 -313.524361 
L 461.480749 -312.357795 
L 461.880352 -311.191229 
L 462.291128 -310.024662 
L 462.713436 -308.858096 
L 463.141153 -307.691529 
L 463.558719 -306.524963 
L 463.941182 -305.358397 
L 464.257974 -304.19183 
L 464.479916 -303.025264 
L 464.588007 -301.858698 
L 464.582353 -300.692131 
L 464.490248 -299.525565 
L 464.373442 -298.358999 
L 464.335377 -297.192432 
L 464.528941 -296.025866 
L 465.163875 -294.8593 
L 466.510605 -293.692733 
L 468.894579 -292.526167 
L 472.673246 -291.359601 
L 478.188183 -290.193034 
L 485.689121 -289.026468 
L 495.235833 -287.859901 
L 506.596725 -286.693335 
L 519.175384 -285.526769 
L 532.001427 -284.360202 
L 543.813632 -283.193636 
L 553.239519 -282.02707 
L 559.042315 -280.860503 
L 560.376 -279.693937 
L 556.97626 -278.527371 
L 549.228051 -277.360804 
L 538.086651 -276.194238 
L 524.874944 -275.027672 
L 511.017047 -273.861105 
L 497.782878 -272.694539 
L 486.106182 -271.527973 
L 476.50748 -270.361406 
L 469.117682 -269.19484 
L 463.771363 -268.028273 
L 460.128213 -266.861707 
L 457.786198 -265.695141 
z
" style="stroke: #595959; stroke-width: 1.25"/>
    </defs>
    <g clip-path="url(#pbda7dc979a)">
     <use xlink:href="#m3d5f92c17f" x="0" y="432" style="fill: #e99675; stroke: #595959; stroke-width: 1.25"/>
    </g>
   </g>
   <g id="PolyCollection_3">
    <defs>
     <path id="mb11b370d41" d="M 721.356451 -290.803174 
L 716.483549 -290.803174 
L 714.726168 -291.790085 
L 712.011207 -292.776997 
L 708.022677 -293.763908 
L 702.455299 -294.75082 
L 695.080616 -295.737731 
L 685.827162 -296.724643 
L 674.85827 -297.711554 
L 662.625089 -298.698466 
L 649.872056 -299.685377 
L 637.579733 -300.672288 
L 626.844989 -301.6592 
L 618.716908 -302.646111 
L 614.022627 -303.633023 
L 613.224 -304.619934 
L 616.340355 -305.606846 
L 622.955603 -306.593757 
L 632.305253 -307.580669 
L 643.418353 -308.56758 
L 655.277805 -309.554491 
L 666.962918 -310.541403 
L 677.748665 -311.528314 
L 687.151792 -312.515226 
L 694.928583 -313.502137 
L 701.038519 -314.489049 
L 705.590859 -315.47596 
L 708.78868 -316.462872 
L 710.879716 -317.449783 
L 712.118056 -318.436694 
L 712.736997 -319.423606 
L 712.931529 -320.410517 
L 712.848803 -321.397429 
L 712.585546 -322.38434 
L 712.192054 -323.371252 
L 711.682425 -324.358163 
L 711.049918 -325.345075 
L 710.285029 -326.331986 
L 709.392623 -327.318897 
L 708.404009 -328.305809 
L 707.380611 -329.29272 
L 706.407953 -330.279632 
L 705.581425 -331.266543 
L 704.987853 -332.253455 
L 704.688312 -333.240366 
L 704.707249 -334.227278 
L 705.030852 -335.214189 
L 705.614526 -336.2011 
L 706.396311 -337.188012 
L 707.31146 -338.174923 
L 708.303558 -339.161835 
L 709.329501 -340.148746 
L 710.358309 -341.135658 
L 711.366065 -342.122569 
L 712.330248 -343.109481 
L 713.226317 -344.096392 
L 714.02788 -345.083303 
L 714.710104 -346.070215 
L 715.254811 -347.057126 
L 715.655263 -348.044038 
L 715.918976 -349.030949 
L 716.067577 -350.017861 
L 716.133604 -351.004772 
L 716.154881 -351.991684 
L 716.167752 -352.978595 
L 716.200773 -353.965506 
L 716.270404 -354.952418 
L 716.379746 -355.939329 
L 716.520491 -356.926241 
L 716.67735 -357.913152 
L 716.833515 -358.900064 
L 716.975564 -359.886975 
L 717.096528 -360.873887 
L 717.196542 -361.860798 
L 717.281262 -362.84771 
L 717.358869 -363.834621 
L 717.436742 -364.821532 
L 717.518864 -365.808444 
L 717.60465 -366.795355 
L 717.689402 -367.782267 
L 717.766061 -368.769178 
L 717.827613 -369.75609 
L 717.869376 -370.743001 
L 717.89056 -371.729913 
L 717.894744 -372.716824 
L 717.88926 -373.703735 
L 717.883711 -374.690647 
L 717.888022 -375.677558 
L 717.910481 -376.66447 
L 717.956194 -377.651381 
L 718.026263 -378.638293 
L 718.117817 -379.625204 
L 718.224813 -380.612116 
L 718.339376 -381.599027 
L 718.4533 -382.585938 
L 718.559404 -383.57285 
L 718.652454 -384.559761 
L 718.729557 -385.546673 
L 718.790063 -386.533584 
L 718.835095 -387.520496 
L 718.866911 -388.507407 
L 718.973089 -388.507407 
L 718.973089 -388.507407 
L 719.004905 -387.520496 
L 719.049937 -386.533584 
L 719.110443 -385.546673 
L 719.187546 -384.559761 
L 719.280596 -383.57285 
L 719.3867 -382.585938 
L 719.500624 -381.599027 
L 719.615187 -380.612116 
L 719.722183 -379.625204 
L 719.813737 -378.638293 
L 719.883806 -377.651381 
L 719.929519 -376.66447 
L 719.951978 -375.677558 
L 719.956289 -374.690647 
L 719.95074 -373.703735 
L 719.945256 -372.716824 
L 719.94944 -371.729913 
L 719.970624 -370.743001 
L 720.012387 -369.75609 
L 720.073939 -368.769178 
L 720.150598 -367.782267 
L 720.23535 -366.795355 
L 720.321136 -365.808444 
L 720.403258 -364.821532 
L 720.481131 -363.834621 
L 720.558738 -362.84771 
L 720.643458 -361.860798 
L 720.743472 -360.873887 
L 720.864436 -359.886975 
L 721.006485 -358.900064 
L 721.16265 -357.913152 
L 721.319509 -356.926241 
L 721.460254 -355.939329 
L 721.569596 -354.952418 
L 721.639227 -353.965506 
L 721.672248 -352.978595 
L 721.685119 -351.991684 
L 721.706396 -351.004772 
L 721.772423 -350.017861 
L 721.921024 -349.030949 
L 722.184737 -348.044038 
L 722.585189 -347.057126 
L 723.129896 -346.070215 
L 723.81212 -345.083303 
L 724.613683 -344.096392 
L 725.509752 -343.109481 
L 726.473935 -342.122569 
L 727.481691 -341.135658 
L 728.510499 -340.148746 
L 729.536442 -339.161835 
L 730.52854 -338.174923 
L 731.443689 -337.188012 
L 732.225474 -336.2011 
L 732.809148 -335.214189 
L 733.132751 -334.227278 
L 733.151688 -333.240366 
L 732.852147 -332.253455 
L 732.258575 -331.266543 
L 731.432047 -330.279632 
L 730.459389 -329.29272 
L 729.435991 -328.305809 
L 728.447377 -327.318897 
L 727.554971 -326.331986 
L 726.790082 -325.345075 
L 726.157575 -324.358163 
L 725.647946 -323.371252 
L 725.254454 -322.38434 
L 724.991197 -321.397429 
L 724.908471 -320.410517 
L 725.103003 -319.423606 
L 725.721944 -318.436694 
L 726.960284 -317.449783 
L 729.05132 -316.462872 
L 732.249141 -315.47596 
L 736.801481 -314.489049 
L 742.911417 -313.502137 
L 750.688208 -312.515226 
L 760.091335 -311.528314 
L 770.877082 -310.541403 
L 782.562195 -309.554491 
L 794.421647 -308.56758 
L 805.534747 -307.580669 
L 814.884397 -306.593757 
L 821.499645 -305.606846 
L 824.616 -304.619934 
L 823.817373 -303.633023 
L 819.123092 -302.646111 
L 810.995011 -301.6592 
L 800.260267 -300.672288 
L 787.967944 -299.685377 
L 775.214911 -298.698466 
L 762.98173 -297.711554 
L 752.012838 -296.724643 
L 742.759384 -295.737731 
L 735.384701 -294.75082 
L 729.817323 -293.763908 
L 725.828793 -292.776997 
L 723.113832 -291.790085 
L 721.356451 -290.803174 
z
" style="stroke: #595959; stroke-width: 1.25"/>
    </defs>
    <g clip-path="url(#pbda7dc979a)">
     <use xlink:href="#mb11b370d41" x="0" y="432" style="fill: #95a3c3; stroke: #595959; stroke-width: 1.25"/>
    </g>
   </g>
   <g id="line2d_8">
    <path d="M 190.44 359.626094 
L 190.44 360.028121 
" clip-path="url(#pbda7dc979a)" style="fill: none; stroke: #000000"/>
   </g>
   <g id="line2d_9">
    <path d="M 190.44 357.033015 
L 190.44 353.193651 
" clip-path="url(#pbda7dc979a)" style="fill: none; stroke: #000000"/>
   </g>
   <g id="line2d_10">
    <path d="M 180.531 360.028121 
L 200.349 360.028121 
" clip-path="url(#pbda7dc979a)" style="fill: none; stroke: #000000; stroke-linecap: round"/>
   </g>
   <g id="line2d_11">
    <path d="M 180.531 353.193651 
L 200.349 353.193651 
" clip-path="url(#pbda7dc979a)" style="fill: none; stroke: #000000; stroke-linecap: round"/>
   </g>
   <g id="line2d_12">
    <path d="M 454.68 153.225097 
L 454.68 156.441318 
" clip-path="url(#pbda7dc979a)" style="fill: none; stroke: #000000"/>
   </g>
   <g id="line2d_13">
    <path d="M 454.68 147.971936 
L 454.68 141.298277 
" clip-path="url(#pbda7dc979a)" style="fill: none; stroke: #000000"/>
   </g>
   <g id="line2d_14">
    <path d="M 444.771 156.441318 
L 464.589 156.441318 
" clip-path="url(#pbda7dc979a)" style="fill: none; stroke: #000000; stroke-linecap: round"/>
   </g>
   <g id="line2d_15">
    <path d="M 444.771 141.298277 
L 464.589 141.298277 
" clip-path="url(#pbda7dc979a)" style="fill: none; stroke: #000000; stroke-linecap: round"/>
   </g>
   <g id="line2d_16">
    <path d="M 718.92 128.835419 
L 718.92 132.453668 
" clip-path="url(#pbda7dc979a)" style="fill: none; stroke: #000000"/>
   </g>
   <g id="line2d_17">
    <path d="M 718.92 122.805005 
L 718.92 114.978866 
" clip-path="url(#pbda7dc979a)" style="fill: none; stroke: #000000"/>
   </g>
   <g id="line2d_18">
    <path d="M 709.011 132.453668 
L 728.829 132.453668 
" clip-path="url(#pbda7dc979a)" style="fill: none; stroke: #000000; stroke-linecap: round"/>
   </g>
   <g id="line2d_19">
    <path d="M 709.011 114.978866 
L 728.829 114.978866 
" clip-path="url(#pbda7dc979a)" style="fill: none; stroke: #000000; stroke-linecap: round"/>
   </g>
   <g id="line2d_20">
    <path d="M 170.622 358.929246 
L 210.258 358.929246 
" clip-path="url(#pbda7dc979a)" style="fill: none; stroke: #ff0000; stroke-width: 2"/>
   </g>
   <g id="line2d_21">
    <path d="M 434.862 151.362369 
L 474.498 151.362369 
" clip-path="url(#pbda7dc979a)" style="fill: none; stroke: #ff0000; stroke-width: 2"/>
   </g>
   <g id="line2d_22">
    <path d="M 699.102 126.892286 
L 738.738 126.892286 
" clip-path="url(#pbda7dc979a)" style="fill: none; stroke: #ff0000; stroke-width: 2"/>
   </g>
   <g id="patch_3">
    <path d="M 58.32 377.237044 
L 58.32 27.6 
" style="fill: none; stroke: #cccccc; stroke-width: 1.25; stroke-linejoin: miter; stroke-linecap: square"/>
   </g>
   <g id="patch_4">
    <path d="M 851.04 377.237044 
L 851.04 27.6 
" style="fill: none; stroke: #cccccc; stroke-width: 1.25; stroke-linejoin: miter; stroke-linecap: square"/>
   </g>
   <g id="patch_5">
    <path d="M 58.32 377.237044 
L 851.04 377.237044 
" style="fill: none; stroke: #cccccc; stroke-width: 1.25; stroke-linejoin: miter; stroke-linecap: square"/>
   </g>
   <g id="patch_6">
    <path d="M 58.32 27.6 
L 851.04 27.6 
" style="fill: none; stroke: #cccccc; stroke-width: 1.25; stroke-linejoin: miter; stroke-linecap: square"/>
   </g>
   <g id="text_12">
    <!-- Handshake duration on QUIC with secp521r1 signature algorithm — ideal conditions -->
    <g style="fill: #262626" transform="translate(201.47625 21.6) scale(0.12 -0.12)">
     <defs>
      <path id="DejaVuSans-51" d="M 2522 4238 
Q 1834 4238 1429 3725 
Q 1025 3213 1025 2328 
Q 1025 1447 1429 934 
Q 1834 422 2522 422 
Q 3209 422 3611 934 
Q 4013 1447 4013 2328 
Q 4013 3213 3611 3725 
Q 3209 4238 2522 4238 
z
M 3406 84 
L 4238 -825 
L 3475 -825 
L 2784 -78 
Q 2681 -84 2626 -87 
Q 2572 -91 2522 -91 
Q 1538 -91 948 567 
Q 359 1225 359 2328 
Q 359 3434 948 4092 
Q 1538 4750 2522 4750 
Q 3503 4750 4090 4092 
Q 4678 3434 4678 2328 
Q 4678 1516 4351 937 
Q 4025 359 3406 84 
z
" transform="scale(0.015625)"/>
      <path id="DejaVuSans-55" d="M 556 4666 
L 1191 4666 
L 1191 1831 
Q 1191 1081 1462 751 
Q 1734 422 2344 422 
Q 2950 422 3222 751 
Q 3494 1081 3494 1831 
L 3494 4666 
L 4128 4666 
L 4128 1753 
Q 4128 841 3676 375 
Q 3225 -91 2344 -91 
Q 1459 -91 1007 375 
Q 556 841 556 1753 
L 556 4666 
z
" transform="scale(0.015625)"/>
      <path id="DejaVuSans-49" d="M 628 4666 
L 1259 4666 
L 1259 0 
L 628 0 
L 628 4666 
z
" transform="scale(0.015625)"/>
      <path id="DejaVuSans-43" d="M 4122 4306 
L 4122 3641 
Q 3803 3938 3442 4084 
Q 3081 4231 2675 4231 
Q 1875 4231 1450 3742 
Q 1025 3253 1025 2328 
Q 1025 1406 1450 917 
Q 1875 428 2675 428 
Q 3081 428 3442 575 
Q 3803 722 4122 1019 
L 4122 359 
Q 3791 134 3420 21 
Q 3050 -91 2638 -91 
Q 1578 -91 968 557 
Q 359 1206 359 2328 
Q 359 3453 968 4101 
Q 1578 4750 2638 4750 
Q 3056 4750 3426 4639 
Q 3797 4528 4122 4306 
z
" transform="scale(0.015625)"/>
      <path id="DejaVuSans-77" d="M 269 3500 
L 844 3500 
L 1563 769 
L 2278 3500 
L 2956 3500 
L 3675 769 
L 4391 3500 
L 4966 3500 
L 4050 0 
L 3372 0 
L 2619 2869 
L 1863 0 
L 1184 0 
L 269 3500 
z
" transform="scale(0.015625)"/>
      <path id="DejaVuSans-67" d="M 2906 1791 
Q 2906 2416 2648 2759 
Q 2391 3103 1925 3103 
Q 1463 3103 1205 2759 
Q 947 2416 947 1791 
Q 947 1169 1205 825 
Q 1463 481 1925 481 
Q 2391 481 2648 825 
Q 2906 1169 2906 1791 
z
M 3481 434 
Q 3481 -459 3084 -895 
Q 2688 -1331 1869 -1331 
Q 1566 -1331 1297 -1286 
Q 1028 -1241 775 -1147 
L 775 -588 
Q 1028 -725 1275 -790 
Q 1522 -856 1778 -856 
Q 2344 -856 2625 -561 
Q 2906 -266 2906 331 
L 2906 616 
Q 2728 306 2450 153 
Q 2172 0 1784 0 
Q 1141 0 747 490 
Q 353 981 353 1791 
Q 353 2603 747 3093 
Q 1141 3584 1784 3584 
Q 2172 3584 2450 3431 
Q 2728 3278 2906 2969 
L 2906 3500 
L 3481 3500 
L 3481 434 
z
" transform="scale(0.015625)"/>
      <path id="DejaVuSans-6c" d="M 603 4863 
L 1178 4863 
L 1178 0 
L 603 0 
L 603 4863 
z
" transform="scale(0.015625)"/>
      <path id="DejaVuSans-2014" d="M 313 1978 
L 6088 1978 
L 6088 1528 
L 313 1528 
L 313 1978 
z
" transform="scale(0.015625)"/>
     </defs>
     <use xlink:href="#DejaVuSans-48"/>
     <use xlink:href="#DejaVuSans-61" x="75.195312"/>
     <use xlink:href="#DejaVuSans-6e" x="136.474609"/>
     <use xlink:href="#DejaVuSans-64" x="199.853516"/>
     <use xlink:href="#DejaVuSans-73" x="263.330078"/>
     <use xlink:href="#DejaVuSans-68" x="315.429688"/>
     <use xlink:href="#DejaVuSans-61" x="378.808594"/>
     <use xlink:href="#DejaVuSans-6b" x="440.087891"/>
     <use xlink:href="#DejaVuSans-65" x="494.373047"/>
     <use xlink:href="#DejaVuSans-20" x="555.896484"/>
     <use xlink:href="#DejaVuSans-64" x="587.683594"/>
     <use xlink:href="#DejaVuSans-75" x="651.160156"/>
     <use xlink:href="#DejaVuSans-72" x="714.539062"/>
     <use xlink:href="#DejaVuSans-61" x="755.652344"/>
     <use xlink:href="#DejaVuSans-74" x="816.931641"/>
     <use xlink:href="#DejaVuSans-69" x="856.140625"/>
     <use xlink:href="#DejaVuSans-6f" x="883.923828"/>
     <use xlink:href="#DejaVuSans-6e" x="945.105469"/>
     <use xlink:href="#DejaVuSans-20" x="1008.484375"/>
     <use xlink:href="#DejaVuSans-6f" x="1040.271484"/>
     <use xlink:href="#DejaVuSans-6e" x="1101.453125"/>
     <use xlink:href="#DejaVuSans-20" x="1164.832031"/>
     <use xlink:href="#DejaVuSans-51" x="1196.619141"/>
     <use xlink:href="#DejaVuSans-55" x="1275.330078"/>
     <use xlink:href="#DejaVuSans-49" x="1348.523438"/>
     <use xlink:href="#DejaVuSans-43" x="1378.015625"/>
     <use xlink:href="#DejaVuSans-20" x="1447.839844"/>
     <use xlink:href="#DejaVuSans-77" x="1479.626953"/>
     <use xlink:href="#DejaVuSans-69" x="1561.414062"/>
     <use xlink:href="#DejaVuSans-74" x="1589.197266"/>
     <use xlink:href="#DejaVuSans-68" x="1628.40625"/>
     <use xlink:href="#DejaVuSans-20" x="1691.785156"/>
     <use xlink:href="#DejaVuSans-73" x="1723.572266"/>
     <use xlink:href="#DejaVuSans-65" x="1775.671875"/>
     <use xlink:href="#DejaVuSans-63" x="1837.195312"/>
     <use xlink:href="#DejaVuSans-70" x="1892.175781"/>
     <use xlink:href="#DejaVuSans-35" x="1955.652344"/>
     <use xlink:href="#DejaVuSans-32" x="2019.275391"/>
     <use xlink:href="#DejaVuSans-31" x="2082.898438"/>
     <use xlink:href="#DejaVuSans-72" x="2146.521484"/>
     <use xlink:href="#DejaVuSans-31" x="2187.634766"/>
     <use xlink:href="#DejaVuSans-20" x="2251.257812"/>
     <use xlink:href="#DejaVuSans-73" x="2283.044922"/>
     <use xlink:href="#DejaVuSans-69" x="2335.144531"/>
     <use xlink:href="#DejaVuSans-67" x="2362.927734"/>
     <use xlink:href="#DejaVuSans-6e" x="2426.404297"/>
     <use xlink:href="#DejaVuSans-61" x="2489.783203"/>
     <use xlink:href="#DejaVuSans-74" x="2551.0625"/>
     <use xlink:href="#DejaVuSans-75" x="2590.271484"/>
     <use xlink:href="#DejaVuSans-72" x="2653.650391"/>
     <use xlink:href="#DejaVuSans-65" x="2692.513672"/>
     <use xlink:href="#DejaVuSans-20" x="2754.037109"/>
     <use xlink:href="#DejaVuSans-61" x="2785.824219"/>
     <use xlink:href="#DejaVuSans-6c" x="2847.103516"/>
     <use xlink:href="#DejaVuSans-67" x="2874.886719"/>
     <use xlink:href="#DejaVuSans-6f" x="2938.363281"/>
     <use xlink:href="#DejaVuSans-72" x="2999.544922"/>
     <use xlink:href="#DejaVuSans-69" x="3040.658203"/>
     <use xlink:href="#DejaVuSans-74" x="3068.441406"/>
     <use xlink:href="#DejaVuSans-68" x="3107.650391"/>
     <use xlink:href="#DejaVuSans-6d" x="3171.029297"/>
     <use xlink:href="#DejaVuSans-20" x="3268.441406"/>
     <use xlink:href="#DejaVuSans-2014" x="3300.228516"/>
     <use xlink:href="#DejaVuSans-20" x="3400.228516"/>
     <use xlink:href="#DejaVuSans-69" x="3432.015625"/>
     <use xlink:href="#DejaVuSans-64" x="3459.798828"/>
     <use xlink:href="#DejaVuSans-65" x="3523.275391"/>
     <use xlink:href="#DejaVuSans-61" x="3584.798828"/>
     <use xlink:href="#DejaVuSans-6c" x="3646.078125"/>
     <use xlink:href="#DejaVuSans-20" x="3673.861328"/>
     <use xlink:href="#DejaVuSans-63" x="3705.648438"/>
     <use xlink:href="#DejaVuSans-6f" x="3760.628906"/>
     <use xlink:href="#DejaVuSans-6e" x="3821.810547"/>
     <use xlink:href="#DejaVuSans-64" x="3885.189453"/>
     <use xlink:href="#DejaVuSans-69" x="3948.666016"/>
     <use xlink:href="#DejaVuSans-74" x="3976.449219"/>
     <use xlink:href="#DejaVuSans-69" x="4015.658203"/>
     <use xlink:href="#DejaVuSans-6f" x="4043.441406"/>
     <use xlink:href="#DejaVuSans-6e" x="4104.623047"/>
     <use xlink:href="#DejaVuSans-73" x="4168.001953"/>
    </g>
   </g>
  </g>
 </g>
 <defs>
  <clipPath id="pbda7dc979a">
   <rect x="58.32" y="27.6" width="792.72" height="349.637044"/>
  </clipPath>
 </defs>
</svg>
