<?xml version="1.0" encoding="utf-8" standalone="no"?>
<!DOCTYPE svg PUBLIC "-//W3C//DTD SVG 1.1//EN"
  "http://www.w3.org/Graphics/SVG/1.1/DTD/svg11.dtd">
<svg xmlns:xlink="http://www.w3.org/1999/xlink" width="864pt" height="432pt" viewBox="0 0 864 432" xmlns="http://www.w3.org/2000/svg" version="1.1">
 <metadata>
  <rdf:RDF xmlns:dc="http://purl.org/dc/elements/1.1/" xmlns:cc="http://creativecommons.org/ns#" xmlns:rdf="http://www.w3.org/1999/02/22-rdf-syntax-ns#">
   <cc:Work>
    <dc:type rdf:resource="http://purl.org/dc/dcmitype/StillImage"/>
    <dc:date>2026-03-21T14:06:25.547524</dc:date>
    <dc:format>image/svg+xml</dc:format>
    <dc:creator>
     <cc:Agent>
      <dc:title>Matplotlib v3.6.3, https://matplotlib.org/</dc:title>
     </cc:Agent>
    </dc:creator>
   </cc:Work>
  </rdf:RDF>
 </metadata>
 <defs>
  <style type="text/css">*{stroke-linejoin: round; stroke-linecap: butt}</style>
 </defs>
 <g id="figure_1">
  <g id="patch_1">
   <path d="M 0 432 
L 864 432 
L 864 0 
L 0 0 
z
" style="fill: #ffffff"/>
  </g>
  <g id="axes_1">
   <g id="patch_2">
    <path d="M 51.3 377.237044 
L 851.04 377.237044 
L 851.04 27.6 
L 51.3 27.6 
z
" style="fill: #ffffff"/>
   </g>
   <g id="matplotlib.axis_1">
    <g id="xtick_1">
     <g id="text_1">
      <!-- P-384 -->
      <g style="fill: #262626" transform="translate(97.593421 404.396088) rotate(-15) scale(0.12 -0.12)">
       <defs>
        <path id="DejaVuSans-50" d="M 1259 4147 
L 1259 2394 
L 2053 2394 
Q 2494 2394 2734 2622 
Q 2975 2850 2975 3272 
Q 2975 3691 2734 3919 
Q 2494 4147 2053 4147 
L 1259 4147 
z
M 628 4666 
L 2053 4666 
Q 2838 4666 3239 4311 
Q 3641 3956 3641 3272 
Q 3641 2581 3239 2228 
Q 2838 1875 2053 1875 
L 1259 1875 
L 1259 0 
L 628 0 
L 628 4666 
z
" transform="scale(0.015625)"/>
        <path id="DejaVuSans-2d" d="M 313 2009 
L 1997 2009 
L 1997 1497 
L 313 1497 
L 313 2009 
z
" transform="scale(0.015625)"/>
        <path id="DejaVuSans-33" d="M 2597 2516 
Q 3050 2419 3304 2112 
Q 3559 1806 3559 1356 
Q 3559 666 3084 287 
Q 2609 -91 1734 -91 
Q 1441 -91 1130 -33 
Q 819 25 488 141 
L 488 750 
Q 750 597 1062 519 
Q 1375 441 1716 441 
Q 2309 441 2620 675 
Q 2931 909 2931 1356 
Q 2931 1769 2642 2001 
Q 2353 2234 1838 2234 
L 1294 2234 
L 1294 2753 
L 1863 2753 
Q 2328 2753 2575 2939 
Q 2822 3125 2822 3475 
Q 2822 3834 2567 4026 
Q 2313 4219 1838 4219 
Q 1578 4219 1281 4162 
Q 984 4106 628 3988 
L 628 4550 
Q 988 4650 1302 4700 
Q 1616 4750 1894 4750 
Q 2613 4750 3031 4423 
Q 3450 4097 3450 3541 
Q 3450 3153 3228 2886 
Q 3006 2619 2597 2516 
z
" transform="scale(0.015625)"/>
        <path id="DejaVuSans-38" d="M 2034 2216 
Q 1584 2216 1326 1975 
Q 1069 1734 1069 1313 
Q 1069 891 1326 650 
Q 1584 409 2034 409 
Q 2484 409 2743 651 
Q 3003 894 3003 1313 
Q 3003 1734 2745 1975 
Q 2488 2216 2034 2216 
z
M 1403 2484 
Q 997 2584 770 2862 
Q 544 3141 544 3541 
Q 544 4100 942 4425 
Q 1341 4750 2034 4750 
Q 2731 4750 3128 4425 
Q 3525 4100 3525 3541 
Q 3525 3141 3298 2862 
Q 3072 2584 2669 2484 
Q 3125 2378 3379 2068 
Q 3634 1759 3634 1313 
Q 3634 634 3220 271 
Q 2806 -91 2034 -91 
Q 1263 -91 848 271 
Q 434 634 434 1313 
Q 434 1759 690 2068 
Q 947 2378 1403 2484 
z
M 1172 3481 
Q 1172 3119 1398 2916 
Q 1625 2713 2034 2713 
Q 2441 2713 2670 2916 
Q 2900 3119 2900 3481 
Q 2900 3844 2670 4047 
Q 2441 4250 2034 4250 
Q 1625 4250 1398 4047 
Q 1172 3844 1172 3481 
z
" transform="scale(0.015625)"/>
        <path id="DejaVuSans-34" d="M 2419 4116 
L 825 1625 
L 2419 1625 
L 2419 4116 
z
M 2253 4666 
L 3047 4666 
L 3047 1625 
L 3713 1625 
L 3713 1100 
L 3047 1100 
L 3047 0 
L 2419 0 
L 2419 1100 
L 313 1100 
L 313 1709 
L 2253 4666 
z
" transform="scale(0.015625)"/>
       </defs>
       <use xlink:href="#DejaVuSans-50"/>
       <use xlink:href="#DejaVuSans-2d" x="58.052734"/>
       <use xlink:href="#DejaVuSans-33" x="94.136719"/>
       <use xlink:href="#DejaVuSans-38" x="157.759766"/>
       <use xlink:href="#DejaVuSans-34" x="221.382812"/>
      </g>
     </g>
    </g>
    <g id="xtick_2">
     <g id="text_2">
      <!-- x448 -->
      <g style="fill: #262626" transform="translate(261.591065 403.310989) rotate(-15) scale(0.12 -0.12)">
       <defs>
        <path id="DejaVuSans-78" d="M 3513 3500 
L 2247 1797 
L 3578 0 
L 2900 0 
L 1881 1375 
L 863 0 
L 184 0 
L 1544 1831 
L 300 3500 
L 978 3500 
L 1906 2253 
L 2834 3500 
L 3513 3500 
z
" transform="scale(0.015625)"/>
       </defs>
       <use xlink:href="#DejaVuSans-78"/>
       <use xlink:href="#DejaVuSans-34" x="59.179688"/>
       <use xlink:href="#DejaVuSans-34" x="122.802734"/>
       <use xlink:href="#DejaVuSans-38" x="186.425781"/>
      </g>
     </g>
    </g>
    <g id="xtick_3">
     <g id="text_3">
      <!-- hqc192 -->
      <g style="fill: #262626" transform="translate(407.321845 407.120482) rotate(-15) scale(0.12 -0.12)">
       <defs>
        <path id="DejaVuSans-68" d="M 3513 2113 
L 3513 0 
L 2938 0 
L 2938 2094 
Q 2938 2591 2744 2837 
Q 2550 3084 2163 3084 
Q 1697 3084 1428 2787 
Q 1159 2491 1159 1978 
L 1159 0 
L 581 0 
L 581 4863 
L 1159 4863 
L 1159 2956 
Q 1366 3272 1645 3428 
Q 1925 3584 2291 3584 
Q 2894 3584 3203 3211 
Q 3513 2838 3513 2113 
z
" transform="scale(0.015625)"/>
        <path id="DejaVuSans-71" d="M 947 1747 
Q 947 1113 1208 752 
Q 1469 391 1925 391 
Q 2381 391 2643 752 
Q 2906 1113 2906 1747 
Q 2906 2381 2643 2742 
Q 2381 3103 1925 3103 
Q 1469 3103 1208 2742 
Q 947 2381 947 1747 
z
M 2906 525 
Q 2725 213 2448 61 
Q 2172 -91 1784 -91 
Q 1150 -91 751 415 
Q 353 922 353 1747 
Q 353 2572 751 3078 
Q 1150 3584 1784 3584 
Q 2172 3584 2448 3432 
Q 2725 3281 2906 2969 
L 2906 3500 
L 3481 3500 
L 3481 -1331 
L 2906 -1331 
L 2906 525 
z
" transform="scale(0.015625)"/>
        <path id="DejaVuSans-63" d="M 3122 3366 
L 3122 2828 
Q 2878 2963 2633 3030 
Q 2388 3097 2138 3097 
Q 1578 3097 1268 2742 
Q 959 2388 959 1747 
Q 959 1106 1268 751 
Q 1578 397 2138 397 
Q 2388 397 2633 464 
Q 2878 531 3122 666 
L 3122 134 
Q 2881 22 2623 -34 
Q 2366 -91 2075 -91 
Q 1284 -91 818 406 
Q 353 903 353 1747 
Q 353 2603 823 3093 
Q 1294 3584 2113 3584 
Q 2378 3584 2631 3529 
Q 2884 3475 3122 3366 
z
" transform="scale(0.015625)"/>
        <path id="DejaVuSans-31" d="M 794 531 
L 1825 531 
L 1825 4091 
L 703 3866 
L 703 4441 
L 1819 4666 
L 2450 4666 
L 2450 531 
L 3481 531 
L 3481 0 
L 794 0 
L 794 531 
z
" transform="scale(0.015625)"/>
        <path id="DejaVuSans-39" d="M 703 97 
L 703 672 
Q 941 559 1184 500 
Q 1428 441 1663 441 
Q 2288 441 2617 861 
Q 2947 1281 2994 2138 
Q 2813 1869 2534 1725 
Q 2256 1581 1919 1581 
Q 1219 1581 811 2004 
Q 403 2428 403 3163 
Q 403 3881 828 4315 
Q 1253 4750 1959 4750 
Q 2769 4750 3195 4129 
Q 3622 3509 3622 2328 
Q 3622 1225 3098 567 
Q 2575 -91 1691 -91 
Q 1453 -91 1209 -44 
Q 966 3 703 97 
z
M 1959 2075 
Q 2384 2075 2632 2365 
Q 2881 2656 2881 3163 
Q 2881 3666 2632 3958 
Q 2384 4250 1959 4250 
Q 1534 4250 1286 3958 
Q 1038 3666 1038 3163 
Q 1038 2656 1286 2365 
Q 1534 2075 1959 2075 
z
" transform="scale(0.015625)"/>
        <path id="DejaVuSans-32" d="M 1228 531 
L 3431 531 
L 3431 0 
L 469 0 
L 469 531 
Q 828 903 1448 1529 
Q 2069 2156 2228 2338 
Q 2531 2678 2651 2914 
Q 2772 3150 2772 3378 
Q 2772 3750 2511 3984 
Q 2250 4219 1831 4219 
Q 1534 4219 1204 4116 
Q 875 4013 500 3803 
L 500 4441 
Q 881 4594 1212 4672 
Q 1544 4750 1819 4750 
Q 2544 4750 2975 4387 
Q 3406 4025 3406 3419 
Q 3406 3131 3298 2873 
Q 3191 2616 2906 2266 
Q 2828 2175 2409 1742 
Q 1991 1309 1228 531 
z
" transform="scale(0.015625)"/>
       </defs>
       <use xlink:href="#DejaVuSans-68"/>
       <use xlink:href="#DejaVuSans-71" x="63.378906"/>
       <use xlink:href="#DejaVuSans-63" x="126.855469"/>
       <use xlink:href="#DejaVuSans-31" x="181.835938"/>
       <use xlink:href="#DejaVuSans-39" x="245.458984"/>
       <use xlink:href="#DejaVuSans-32" x="309.082031"/>
      </g>
     </g>
    </g>
    <g id="xtick_4">
     <g id="text_4">
      <!-- p384_hqc192 -->
      <g style="fill: #262626" transform="translate(531.904834 416.573362) rotate(-15) scale(0.12 -0.12)">
       <defs>
        <path id="DejaVuSans-70" d="M 1159 525 
L 1159 -1331 
L 581 -1331 
L 581 3500 
L 1159 3500 
L 1159 2969 
Q 1341 3281 1617 3432 
Q 1894 3584 2278 3584 
Q 2916 3584 3314 3078 
Q 3713 2572 3713 1747 
Q 3713 922 3314 415 
Q 2916 -91 2278 -91 
Q 1894 -91 1617 61 
Q 1341 213 1159 525 
z
M 3116 1747 
Q 3116 2381 2855 2742 
Q 2594 3103 2138 3103 
Q 1681 3103 1420 2742 
Q 1159 2381 1159 1747 
Q 1159 1113 1420 752 
Q 1681 391 2138 391 
Q 2594 391 2855 752 
Q 3116 1113 3116 1747 
z
" transform="scale(0.015625)"/>
        <path id="DejaVuSans-5f" d="M 3263 -1063 
L 3263 -1509 
L -63 -1509 
L -63 -1063 
L 3263 -1063 
z
" transform="scale(0.015625)"/>
       </defs>
       <use xlink:href="#DejaVuSans-70"/>
       <use xlink:href="#DejaVuSans-33" x="63.476562"/>
       <use xlink:href="#DejaVuSans-38" x="127.099609"/>
       <use xlink:href="#DejaVuSans-34" x="190.722656"/>
       <use xlink:href="#DejaVuSans-5f" x="254.345703"/>
       <use xlink:href="#DejaVuSans-68" x="304.345703"/>
       <use xlink:href="#DejaVuSans-71" x="367.724609"/>
       <use xlink:href="#DejaVuSans-63" x="431.201172"/>
       <use xlink:href="#DejaVuSans-31" x="486.181641"/>
       <use xlink:href="#DejaVuSans-39" x="549.804688"/>
       <use xlink:href="#DejaVuSans-32" x="613.427734"/>
      </g>
     </g>
    </g>
    <g id="xtick_5">
     <g id="text_5">
      <!-- x448_hqc192 -->
      <g style="fill: #262626" transform="translate(692.35089 416.439909) rotate(-15) scale(0.12 -0.12)">
       <use xlink:href="#DejaVuSans-78"/>
       <use xlink:href="#DejaVuSans-34" x="59.179688"/>
       <use xlink:href="#DejaVuSans-34" x="122.802734"/>
       <use xlink:href="#DejaVuSans-38" x="186.425781"/>
       <use xlink:href="#DejaVuSans-5f" x="250.048828"/>
       <use xlink:href="#DejaVuSans-68" x="300.048828"/>
       <use xlink:href="#DejaVuSans-71" x="363.427734"/>
       <use xlink:href="#DejaVuSans-63" x="426.904297"/>
       <use xlink:href="#DejaVuSans-31" x="481.884766"/>
       <use xlink:href="#DejaVuSans-39" x="545.507812"/>
       <use xlink:href="#DejaVuSans-32" x="609.130859"/>
      </g>
     </g>
    </g>
   </g>
   <g id="matplotlib.axis_2">
    <g id="ytick_1">
     <g id="line2d_1">
      <path d="M 51.3 372.778913 
L 851.04 372.778913 
" clip-path="url(#p3919a3d600)" style="fill: none; stroke: #cccccc; stroke-linecap: round"/>
     </g>
     <g id="text_6">
      <!-- 0 -->
      <g style="fill: #262626" transform="translate(34.80125 376.958053) scale(0.11 -0.11)">
       <defs>
        <path id="DejaVuSans-30" d="M 2034 4250 
Q 1547 4250 1301 3770 
Q 1056 3291 1056 2328 
Q 1056 1369 1301 889 
Q 1547 409 2034 409 
Q 2525 409 2770 889 
Q 3016 1369 3016 2328 
Q 3016 3291 2770 3770 
Q 2525 4250 2034 4250 
z
M 2034 4750 
Q 2819 4750 3233 4129 
Q 3647 3509 3647 2328 
Q 3647 1150 3233 529 
Q 2819 -91 2034 -91 
Q 1250 -91 836 529 
Q 422 1150 422 2328 
Q 422 3509 836 4129 
Q 1250 4750 2034 4750 
z
" transform="scale(0.015625)"/>
       </defs>
       <use xlink:href="#DejaVuSans-30"/>
      </g>
     </g>
    </g>
    <g id="ytick_2">
     <g id="line2d_2">
      <path d="M 51.3 302.266037 
L 851.04 302.266037 
" clip-path="url(#p3919a3d600)" style="fill: none; stroke: #cccccc; stroke-linecap: round"/>
     </g>
     <g id="text_7">
      <!-- 20 -->
      <g style="fill: #262626" transform="translate(27.8025 306.445178) scale(0.11 -0.11)">
       <use xlink:href="#DejaVuSans-32"/>
       <use xlink:href="#DejaVuSans-30" x="63.623047"/>
      </g>
     </g>
    </g>
    <g id="ytick_3">
     <g id="line2d_3">
      <path d="M 51.3 231.753162 
L 851.04 231.753162 
" clip-path="url(#p3919a3d600)" style="fill: none; stroke: #cccccc; stroke-linecap: round"/>
     </g>
     <g id="text_8">
      <!-- 40 -->
      <g style="fill: #262626" transform="translate(27.8025 235.932303) scale(0.11 -0.11)">
       <use xlink:href="#DejaVuSans-34"/>
       <use xlink:href="#DejaVuSans-30" x="63.623047"/>
      </g>
     </g>
    </g>
    <g id="ytick_4">
     <g id="line2d_4">
      <path d="M 51.3 161.240287 
L 851.04 161.240287 
" clip-path="url(#p3919a3d600)" style="fill: none; stroke: #cccccc; stroke-linecap: round"/>
     </g>
     <g id="text_9">
      <!-- 60 -->
      <g style="fill: #262626" transform="translate(27.8025 165.419428) scale(0.11 -0.11)">
       <defs>
        <path id="DejaVuSans-36" d="M 2113 2584 
Q 1688 2584 1439 2293 
Q 1191 2003 1191 1497 
Q 1191 994 1439 701 
Q 1688 409 2113 409 
Q 2538 409 2786 701 
Q 3034 994 3034 1497 
Q 3034 2003 2786 2293 
Q 2538 2584 2113 2584 
z
M 3366 4563 
L 3366 3988 
Q 3128 4100 2886 4159 
Q 2644 4219 2406 4219 
Q 1781 4219 1451 3797 
Q 1122 3375 1075 2522 
Q 1259 2794 1537 2939 
Q 1816 3084 2150 3084 
Q 2853 3084 3261 2657 
Q 3669 2231 3669 1497 
Q 3669 778 3244 343 
Q 2819 -91 2113 -91 
Q 1303 -91 875 529 
Q 447 1150 447 2328 
Q 447 3434 972 4092 
Q 1497 4750 2381 4750 
Q 2619 4750 2861 4703 
Q 3103 4656 3366 4563 
z
" transform="scale(0.015625)"/>
       </defs>
       <use xlink:href="#DejaVuSans-36"/>
       <use xlink:href="#DejaVuSans-30" x="63.623047"/>
      </g>
     </g>
    </g>
    <g id="ytick_5">
     <g id="line2d_5">
      <path d="M 51.3 90.727412 
L 851.04 90.727412 
" clip-path="url(#p3919a3d600)" style="fill: none; stroke: #cccccc; stroke-linecap: round"/>
     </g>
     <g id="text_10">
      <!-- 80 -->
      <g style="fill: #262626" transform="translate(27.8025 94.906552) scale(0.11 -0.11)">
       <use xlink:href="#DejaVuSans-38"/>
       <use xlink:href="#DejaVuSans-30" x="63.623047"/>
      </g>
     </g>
    </g>
    <g id="text_11">
     <!-- Handshake duration (ms) -->
     <g style="fill: #262626" transform="translate(21.306875 278.486335) rotate(-90) scale(0.12 -0.12)">
      <defs>
       <path id="DejaVuSans-48" d="M 628 4666 
L 1259 4666 
L 1259 2753 
L 3553 2753 
L 3553 4666 
L 4184 4666 
L 4184 0 
L 3553 0 
L 3553 2222 
L 1259 2222 
L 1259 0 
L 628 0 
L 628 4666 
z
" transform="scale(0.015625)"/>
       <path id="DejaVuSans-61" d="M 2194 1759 
Q 1497 1759 1228 1600 
Q 959 1441 959 1056 
Q 959 750 1161 570 
Q 1363 391 1709 391 
Q 2188 391 2477 730 
Q 2766 1069 2766 1631 
L 2766 1759 
L 2194 1759 
z
M 3341 1997 
L 3341 0 
L 2766 0 
L 2766 531 
Q 2569 213 2275 61 
Q 1981 -91 1556 -91 
Q 1019 -91 701 211 
Q 384 513 384 1019 
Q 384 1609 779 1909 
Q 1175 2209 1959 2209 
L 2766 2209 
L 2766 2266 
Q 2766 2663 2505 2880 
Q 2244 3097 1772 3097 
Q 1472 3097 1187 3025 
Q 903 2953 641 2809 
L 641 3341 
Q 956 3463 1253 3523 
Q 1550 3584 1831 3584 
Q 2591 3584 2966 3190 
Q 3341 2797 3341 1997 
z
" transform="scale(0.015625)"/>
       <path id="DejaVuSans-6e" d="M 3513 2113 
L 3513 0 
L 2938 0 
L 2938 2094 
Q 2938 2591 2744 2837 
Q 2550 3084 2163 3084 
Q 1697 3084 1428 2787 
Q 1159 2491 1159 1978 
L 1159 0 
L 581 0 
L 581 3500 
L 1159 3500 
L 1159 2956 
Q 1366 3272 1645 3428 
Q 1925 3584 2291 3584 
Q 2894 3584 3203 3211 
Q 3513 2838 3513 2113 
z
" transform="scale(0.015625)"/>
       <path id="DejaVuSans-64" d="M 2906 2969 
L 2906 4863 
L 3481 4863 
L 3481 0 
L 2906 0 
L 2906 525 
Q 2725 213 2448 61 
Q 2172 -91 1784 -91 
Q 1150 -91 751 415 
Q 353 922 353 1747 
Q 353 2572 751 3078 
Q 1150 3584 1784 3584 
Q 2172 3584 2448 3432 
Q 2725 3281 2906 2969 
z
M 947 1747 
Q 947 1113 1208 752 
Q 1469 391 1925 391 
Q 2381 391 2643 752 
Q 2906 1113 2906 1747 
Q 2906 2381 2643 2742 
Q 2381 3103 1925 3103 
Q 1469 3103 1208 2742 
Q 947 2381 947 1747 
z
" transform="scale(0.015625)"/>
       <path id="DejaVuSans-73" d="M 2834 3397 
L 2834 2853 
Q 2591 2978 2328 3040 
Q 2066 3103 1784 3103 
Q 1356 3103 1142 2972 
Q 928 2841 928 2578 
Q 928 2378 1081 2264 
Q 1234 2150 1697 2047 
L 1894 2003 
Q 2506 1872 2764 1633 
Q 3022 1394 3022 966 
Q 3022 478 2636 193 
Q 2250 -91 1575 -91 
Q 1294 -91 989 -36 
Q 684 19 347 128 
L 347 722 
Q 666 556 975 473 
Q 1284 391 1588 391 
Q 1994 391 2212 530 
Q 2431 669 2431 922 
Q 2431 1156 2273 1281 
Q 2116 1406 1581 1522 
L 1381 1569 
Q 847 1681 609 1914 
Q 372 2147 372 2553 
Q 372 3047 722 3315 
Q 1072 3584 1716 3584 
Q 2034 3584 2315 3537 
Q 2597 3491 2834 3397 
z
" transform="scale(0.015625)"/>
       <path id="DejaVuSans-6b" d="M 581 4863 
L 1159 4863 
L 1159 1991 
L 2875 3500 
L 3609 3500 
L 1753 1863 
L 3688 0 
L 2938 0 
L 1159 1709 
L 1159 0 
L 581 0 
L 581 4863 
z
" transform="scale(0.015625)"/>
       <path id="DejaVuSans-65" d="M 3597 1894 
L 3597 1613 
L 953 1613 
Q 991 1019 1311 708 
Q 1631 397 2203 397 
Q 2534 397 2845 478 
Q 3156 559 3463 722 
L 3463 178 
Q 3153 47 2828 -22 
Q 2503 -91 2169 -91 
Q 1331 -91 842 396 
Q 353 884 353 1716 
Q 353 2575 817 3079 
Q 1281 3584 2069 3584 
Q 2775 3584 3186 3129 
Q 3597 2675 3597 1894 
z
M 3022 2063 
Q 3016 2534 2758 2815 
Q 2500 3097 2075 3097 
Q 1594 3097 1305 2825 
Q 1016 2553 972 2059 
L 3022 2063 
z
" transform="scale(0.015625)"/>
       <path id="DejaVuSans-20" transform="scale(0.015625)"/>
       <path id="DejaVuSans-75" d="M 544 1381 
L 544 3500 
L 1119 3500 
L 1119 1403 
Q 1119 906 1312 657 
Q 1506 409 1894 409 
Q 2359 409 2629 706 
Q 2900 1003 2900 1516 
L 2900 3500 
L 3475 3500 
L 3475 0 
L 2900 0 
L 2900 538 
Q 2691 219 2414 64 
Q 2138 -91 1772 -91 
Q 1169 -91 856 284 
Q 544 659 544 1381 
z
M 1991 3584 
L 1991 3584 
z
" transform="scale(0.015625)"/>
       <path id="DejaVuSans-72" d="M 2631 2963 
Q 2534 3019 2420 3045 
Q 2306 3072 2169 3072 
Q 1681 3072 1420 2755 
Q 1159 2438 1159 1844 
L 1159 0 
L 581 0 
L 581 3500 
L 1159 3500 
L 1159 2956 
Q 1341 3275 1631 3429 
Q 1922 3584 2338 3584 
Q 2397 3584 2469 3576 
Q 2541 3569 2628 3553 
L 2631 2963 
z
" transform="scale(0.015625)"/>
       <path id="DejaVuSans-74" d="M 1172 4494 
L 1172 3500 
L 2356 3500 
L 2356 3053 
L 1172 3053 
L 1172 1153 
Q 1172 725 1289 603 
Q 1406 481 1766 481 
L 2356 481 
L 2356 0 
L 1766 0 
Q 1100 0 847 248 
Q 594 497 594 1153 
L 594 3053 
L 172 3053 
L 172 3500 
L 594 3500 
L 594 4494 
L 1172 4494 
z
" transform="scale(0.015625)"/>
       <path id="DejaVuSans-69" d="M 603 3500 
L 1178 3500 
L 1178 0 
L 603 0 
L 603 3500 
z
M 603 4863 
L 1178 4863 
L 1178 4134 
L 603 4134 
L 603 4863 
z
" transform="scale(0.015625)"/>
       <path id="DejaVuSans-6f" d="M 1959 3097 
Q 1497 3097 1228 2736 
Q 959 2375 959 1747 
Q 959 1119 1226 758 
Q 1494 397 1959 397 
Q 2419 397 2687 759 
Q 2956 1122 2956 1747 
Q 2956 2369 2687 2733 
Q 2419 3097 1959 3097 
z
M 1959 3584 
Q 2709 3584 3137 3096 
Q 3566 2609 3566 1747 
Q 3566 888 3137 398 
Q 2709 -91 1959 -91 
Q 1206 -91 779 398 
Q 353 888 353 1747 
Q 353 2609 779 3096 
Q 1206 3584 1959 3584 
z
" transform="scale(0.015625)"/>
       <path id="DejaVuSans-28" d="M 1984 4856 
Q 1566 4138 1362 3434 
Q 1159 2731 1159 2009 
Q 1159 1288 1364 580 
Q 1569 -128 1984 -844 
L 1484 -844 
Q 1016 -109 783 600 
Q 550 1309 550 2009 
Q 550 2706 781 3412 
Q 1013 4119 1484 4856 
L 1984 4856 
z
" transform="scale(0.015625)"/>
       <path id="DejaVuSans-6d" d="M 3328 2828 
Q 3544 3216 3844 3400 
Q 4144 3584 4550 3584 
Q 5097 3584 5394 3201 
Q 5691 2819 5691 2113 
L 5691 0 
L 5113 0 
L 5113 2094 
Q 5113 2597 4934 2840 
Q 4756 3084 4391 3084 
Q 3944 3084 3684 2787 
Q 3425 2491 3425 1978 
L 3425 0 
L 2847 0 
L 2847 2094 
Q 2847 2600 2669 2842 
Q 2491 3084 2119 3084 
Q 1678 3084 1418 2786 
Q 1159 2488 1159 1978 
L 1159 0 
L 581 0 
L 581 3500 
L 1159 3500 
L 1159 2956 
Q 1356 3278 1631 3431 
Q 1906 3584 2284 3584 
Q 2666 3584 2933 3390 
Q 3200 3197 3328 2828 
z
" transform="scale(0.015625)"/>
       <path id="DejaVuSans-29" d="M 513 4856 
L 1013 4856 
Q 1481 4119 1714 3412 
Q 1947 2706 1947 2009 
Q 1947 1309 1714 600 
Q 1481 -109 1013 -844 
L 513 -844 
Q 928 -128 1133 580 
Q 1338 1288 1338 2009 
Q 1338 2731 1133 3434 
Q 928 4138 513 4856 
z
" transform="scale(0.015625)"/>
      </defs>
      <use xlink:href="#DejaVuSans-48"/>
      <use xlink:href="#DejaVuSans-61" x="75.195312"/>
      <use xlink:href="#DejaVuSans-6e" x="136.474609"/>
      <use xlink:href="#DejaVuSans-64" x="199.853516"/>
      <use xlink:href="#DejaVuSans-73" x="263.330078"/>
      <use xlink:href="#DejaVuSans-68" x="315.429688"/>
      <use xlink:href="#DejaVuSans-61" x="378.808594"/>
      <use xlink:href="#DejaVuSans-6b" x="440.087891"/>
      <use xlink:href="#DejaVuSans-65" x="494.373047"/>
      <use xlink:href="#DejaVuSans-20" x="555.896484"/>
      <use xlink:href="#DejaVuSans-64" x="587.683594"/>
      <use xlink:href="#DejaVuSans-75" x="651.160156"/>
      <use xlink:href="#DejaVuSans-72" x="714.539062"/>
      <use xlink:href="#DejaVuSans-61" x="755.652344"/>
      <use xlink:href="#DejaVuSans-74" x="816.931641"/>
      <use xlink:href="#DejaVuSans-69" x="856.140625"/>
      <use xlink:href="#DejaVuSans-6f" x="883.923828"/>
      <use xlink:href="#DejaVuSans-6e" x="945.105469"/>
      <use xlink:href="#DejaVuSans-20" x="1008.484375"/>
      <use xlink:href="#DejaVuSans-28" x="1040.271484"/>
      <use xlink:href="#DejaVuSans-6d" x="1079.285156"/>
      <use xlink:href="#DejaVuSans-73" x="1176.697266"/>
      <use xlink:href="#DejaVuSans-29" x="1228.796875"/>
     </g>
    </g>
   </g>
   <g id="PolyCollection_1">
    <defs>
     <path id="mcce0cbaddf" d="M 133.039143 -74.84798 
L 129.508857 -74.84798 
L 128.549255 -75.002015 
L 127.187612 -75.15605 
L 125.319352 -75.310085 
L 122.842263 -75.46412 
L 119.67094 -75.618155 
L 115.754317 -75.77219 
L 111.094013 -75.926224 
L 105.760184 -76.080259 
L 99.901061 -76.234294 
L 93.742624 -76.388329 
L 87.576157 -76.542364 
L 81.733505 -76.696399 
L 76.552502 -76.850434 
L 72.33744 -77.004469 
L 69.321119 -77.158504 
L 67.635253 -77.312539 
L 67.2948 -77.466574 
L 68.199183 -77.620608 
L 70.150107 -77.774643 
L 72.882514 -77.928678 
L 76.102832 -78.082713 
L 79.527731 -78.236748 
L 82.917017 -78.390783 
L 86.09601 -78.544818 
L 88.96509 -78.698853 
L 91.496622 -78.852888 
L 93.721503 -79.006923 
L 95.708993 -79.160958 
L 97.544013 -79.314992 
L 99.305895 -79.469027 
L 101.051833 -79.623062 
L 102.807111 -79.777097 
L 104.562944 -79.931132 
L 106.281441 -80.085167 
L 107.906121 -80.239202 
L 109.375566 -80.393237 
L 110.63742 -80.547272 
L 111.659976 -80.701307 
L 112.43918 -80.855341 
L 112.999823 -81.009376 
L 113.390846 -81.163411 
L 113.675922 -81.317446 
L 113.921354 -81.471481 
L 114.183845 -81.625516 
L 114.50061 -81.779551 
L 114.883699 -81.933586 
L 115.31943 -82.087621 
L 115.772722 -82.241656 
L 116.19515 -82.395691 
L 116.53492 -82.549725 
L 116.74679 -82.70376 
L 116.800204 -82.857795 
L 116.684474 -83.01183 
L 116.41053 -83.165865 
L 116.009392 -83.3199 
L 115.528012 -83.473935 
L 115.023375 -83.62797 
L 114.555844 -83.782005 
L 114.182619 -83.93604 
L 113.952048 -84.090075 
L 113.899302 -84.244109 
L 114.043764 -84.398144 
L 114.388246 -84.552179 
L 114.919978 -84.706214 
L 115.613135 -84.860249 
L 116.432517 -85.014284 
L 117.337872 -85.168319 
L 118.288327 -85.322354 
L 119.246396 -85.476389 
L 120.181133 -85.630424 
L 121.070119 -85.784459 
L 121.900176 -85.938493 
L 122.66684 -86.092528 
L 123.372837 -86.246563 
L 124.025879 -86.400598 
L 124.636194 -86.554633 
L 125.21418 -86.708668 
L 125.768525 -86.862703 
L 126.304985 -87.016738 
L 126.825914 -87.170773 
L 127.330462 -87.324808 
L 127.815294 -87.478842 
L 128.275593 -87.632877 
L 128.706127 -87.786912 
L 129.102185 -87.940947 
L 129.460254 -88.094982 
L 129.778388 -88.249017 
L 130.056282 -88.403052 
L 130.295105 -88.557087 
L 130.497199 -88.711122 
L 130.665704 -88.865157 
L 130.804206 -89.019192 
L 130.91644 -89.173226 
L 131.006076 -89.327261 
L 131.076575 -89.481296 
L 131.13112 -89.635331 
L 131.172573 -89.789366 
L 131.20347 -89.943401 
L 131.226017 -90.097436 
L 131.321983 -90.097436 
L 131.321983 -90.097436 
L 131.34453 -89.943401 
L 131.375427 -89.789366 
L 131.41688 -89.635331 
L 131.471425 -89.481296 
L 131.541924 -89.327261 
L 131.63156 -89.173226 
L 131.743794 -89.019192 
L 131.882296 -88.865157 
L 132.050801 -88.711122 
L 132.252895 -88.557087 
L 132.491718 -88.403052 
L 132.769612 -88.249017 
L 133.087746 -88.094982 
L 133.445815 -87.940947 
L 133.841873 -87.786912 
L 134.272407 -87.632877 
L 134.732706 -87.478842 
L 135.217538 -87.324808 
L 135.722086 -87.170773 
L 136.243015 -87.016738 
L 136.779475 -86.862703 
L 137.33382 -86.708668 
L 137.911806 -86.554633 
L 138.522121 -86.400598 
L 139.175163 -86.246563 
L 139.88116 -86.092528 
L 140.647824 -85.938493 
L 141.477881 -85.784459 
L 142.366867 -85.630424 
L 143.301604 -85.476389 
L 144.259673 -85.322354 
L 145.210128 -85.168319 
L 146.115483 -85.014284 
L 146.934865 -84.860249 
L 147.628022 -84.706214 
L 148.159754 -84.552179 
L 148.504236 -84.398144 
L 148.648698 -84.244109 
L 148.595952 -84.090075 
L 148.365381 -83.93604 
L 147.992156 -83.782005 
L 147.524625 -83.62797 
L 147.019988 -83.473935 
L 146.538608 -83.3199 
L 146.13747 -83.165865 
L 145.863526 -83.01183 
L 145.747796 -82.857795 
L 145.80121 -82.70376 
L 146.01308 -82.549725 
L 146.35285 -82.395691 
L 146.775278 -82.241656 
L 147.22857 -82.087621 
L 147.664301 -81.933586 
L 148.04739 -81.779551 
L 148.364155 -81.625516 
L 148.626646 -81.471481 
L 148.872078 -81.317446 
L 149.157154 -81.163411 
L 149.548177 -81.009376 
L 150.10882 -80.855341 
L 150.888024 -80.701307 
L 151.91058 -80.547272 
L 153.172434 -80.393237 
L 154.641879 -80.239202 
L 156.266559 -80.085167 
L 157.985056 -79.931132 
L 159.740889 -79.777097 
L 161.496167 -79.623062 
L 163.242105 -79.469027 
L 165.003987 -79.314992 
L 166.839007 -79.160958 
L 168.826497 -79.006923 
L 171.051378 -78.852888 
L 173.58291 -78.698853 
L 176.45199 -78.544818 
L 179.630983 -78.390783 
L 183.020269 -78.236748 
L 186.445168 -78.082713 
L 189.665486 -77.928678 
L 192.397893 -77.774643 
L 194.348817 -77.620608 
L 195.2532 -77.466574 
L 194.912747 -77.312539 
L 193.226881 -77.158504 
L 190.21056 -77.004469 
L 185.995498 -76.850434 
L 180.814495 -76.696399 
L 174.971843 -76.542364 
L 168.805376 -76.388329 
L 162.646939 -76.234294 
L 156.787816 -76.080259 
L 151.453987 -75.926224 
L 146.793683 -75.77219 
L 142.87706 -75.618155 
L 139.705737 -75.46412 
L 137.228648 -75.310085 
L 135.360388 -75.15605 
L 133.998745 -75.002015 
L 133.039143 -74.84798 
z
" style="stroke: #595959; stroke-width: 1.25"/>
    </defs>
    <g clip-path="url(#p3919a3d600)">
     <use xlink:href="#mcce0cbaddf" x="0" y="432" style="fill: #72b6a1; stroke: #595959; stroke-width: 1.25"/>
    </g>
   </g>
   <g id="PolyCollection_2">
    <defs>
     <path id="m4ba0e2aa89" d="M 293.349052 -70.655549 
L 289.094948 -70.655549 
L 287.917781 -70.773553 
L 286.247678 -70.891557 
L 283.963987 -71.009561 
L 280.956687 -71.127564 
L 277.146656 -71.245568 
L 272.50865 -71.363572 
L 267.093084 -71.481576 
L 261.041665 -71.59958 
L 254.591794 -71.717584 
L 248.065957 -71.835588 
L 241.844959 -71.953592 
L 236.327369 -72.071596 
L 231.881078 -72.1896 
L 228.795405 -72.307603 
L 227.2428 -72.425607 
L 227.257642 -72.543611 
L 228.736074 -72.661615 
L 231.456324 -72.779619 
L 235.114646 -72.897623 
L 239.369118 -73.015627 
L 243.882704 -73.133631 
L 248.358279 -73.251635 
L 252.561166 -73.369639 
L 256.328145 -73.487642 
L 259.564947 -73.605646 
L 262.236139 -73.72365 
L 264.351802 -73.841654 
L 265.954693 -73.959658 
L 267.110069 -74.077662 
L 267.89867 -74.195666 
L 268.412049 -74.31367 
L 268.748708 -74.431674 
L 269.009598 -74.549678 
L 269.292118 -74.667681 
L 269.682698 -74.785685 
L 270.248926 -74.903689 
L 271.03275 -75.021693 
L 272.046325 -75.139697 
L 273.271653 -75.257701 
L 274.664337 -75.375705 
L 276.160827 -75.493709 
L 277.687788 -75.611713 
L 279.171769 -75.729717 
L 280.547463 -75.84772 
L 281.763278 -75.965724 
L 282.783721 -76.083728 
L 283.588827 -76.201732 
L 284.171507 -76.319736 
L 284.53398 -76.43774 
L 284.684468 -76.555744 
L 284.635012 -76.673748 
L 284.400847 -76.791752 
L 284.001211 -76.909755 
L 283.461043 -77.027759 
L 282.812714 -77.145763 
L 282.096878 -77.263767 
L 281.361709 -77.381771 
L 280.660166 -77.499775 
L 280.0455 -77.617779 
L 279.565696 -77.735783 
L 279.257944 -77.853787 
L 279.144315 -77.971791 
L 279.229599 -78.089794 
L 279.501767 -78.207798 
L 279.93491 -78.325802 
L 280.493936 -78.443806 
L 281.140002 -78.56181 
L 281.835575 -78.679814 
L 282.548294 -78.797818 
L 283.253189 -78.915822 
L 283.933259 -79.033826 
L 284.578741 -79.15183 
L 285.185571 -79.269833 
L 285.753535 -79.387837 
L 286.284508 -79.505841 
L 286.781027 -79.623845 
L 287.2453 -79.741849 
L 287.678677 -79.859853 
L 288.081523 -79.977857 
L 288.45343 -80.095861 
L 288.793641 -80.213865 
L 289.101576 -80.331869 
L 289.377316 -80.449872 
L 289.621916 -80.567876 
L 289.837494 -80.68588 
L 290.027049 -80.803884 
L 290.194088 -80.921888 
L 290.342155 -81.039892 
L 290.474378 -81.157896 
L 290.593155 -81.2759 
L 290.70003 -81.393904 
L 290.795765 -81.511908 
L 290.880567 -81.629911 
L 290.95439 -81.747915 
L 291.017218 -81.865919 
L 291.069285 -81.983923 
L 291.111176 -82.101927 
L 291.143832 -82.219931 
L 291.168462 -82.337935 
L 291.275538 -82.337935 
L 291.275538 -82.337935 
L 291.300168 -82.219931 
L 291.332824 -82.101927 
L 291.374715 -81.983923 
L 291.426782 -81.865919 
L 291.48961 -81.747915 
L 291.563433 -81.629911 
L 291.648235 -81.511908 
L 291.74397 -81.393904 
L 291.850845 -81.2759 
L 291.969622 -81.157896 
L 292.101845 -81.039892 
L 292.249912 -80.921888 
L 292.416951 -80.803884 
L 292.606506 -80.68588 
L 292.822084 -80.567876 
L 293.066684 -80.449872 
L 293.342424 -80.331869 
L 293.650359 -80.213865 
L 293.99057 -80.095861 
L 294.362477 -79.977857 
L 294.765323 -79.859853 
L 295.1987 -79.741849 
L 295.662973 -79.623845 
L 296.159492 -79.505841 
L 296.690465 -79.387837 
L 297.258429 -79.269833 
L 297.865259 -79.15183 
L 298.510741 -79.033826 
L 299.190811 -78.915822 
L 299.895706 -78.797818 
L 300.608425 -78.679814 
L 301.303998 -78.56181 
L 301.950064 -78.443806 
L 302.50909 -78.325802 
L 302.942233 -78.207798 
L 303.214401 -78.089794 
L 303.299685 -77.971791 
L 303.186056 -77.853787 
L 302.878304 -77.735783 
L 302.3985 -77.617779 
L 301.783834 -77.499775 
L 301.082291 -77.381771 
L 300.347122 -77.263767 
L 299.631286 -77.145763 
L 298.982957 -77.027759 
L 298.442789 -76.909755 
L 298.043153 -76.791752 
L 297.808988 -76.673748 
L 297.759532 -76.555744 
L 297.91002 -76.43774 
L 298.272493 -76.319736 
L 298.855173 -76.201732 
L 299.660279 -76.083728 
L 300.680722 -75.965724 
L 301.896537 -75.84772 
L 303.272231 -75.729717 
L 304.756212 -75.611713 
L 306.283173 -75.493709 
L 307.779663 -75.375705 
L 309.172347 -75.257701 
L 310.397675 -75.139697 
L 311.41125 -75.021693 
L 312.195074 -74.903689 
L 312.761302 -74.785685 
L 313.151882 -74.667681 
L 313.434402 -74.549678 
L 313.695292 -74.431674 
L 314.031951 -74.31367 
L 314.54533 -74.195666 
L 315.333931 -74.077662 
L 316.489307 -73.959658 
L 318.092198 -73.841654 
L 320.207861 -73.72365 
L 322.879053 -73.605646 
L 326.115855 -73.487642 
L 329.882834 -73.369639 
L 334.085721 -73.251635 
L 338.561296 -73.133631 
L 343.074882 -73.015627 
L 347.329354 -72.897623 
L 350.987676 -72.779619 
L 353.707926 -72.661615 
L 355.186358 -72.543611 
L 355.2012 -72.425607 
L 353.648595 -72.307603 
L 350.562922 -72.1896 
L 346.116631 -72.071596 
L 340.599041 -71.953592 
L 334.378043 -71.835588 
L 327.852206 -71.717584 
L 321.402335 -71.59958 
L 315.350916 -71.481576 
L 309.93535 -71.363572 
L 305.297344 -71.245568 
L 301.487313 -71.127564 
L 298.480013 -71.009561 
L 296.196322 -70.891557 
L 294.526219 -70.773553 
L 293.349052 -70.655549 
z
" style="stroke: #595959; stroke-width: 1.25"/>
    </defs>
    <g clip-path="url(#p3919a3d600)">
     <use xlink:href="#m4ba0e2aa89" x="0" y="432" style="fill: #e99675; stroke: #595959; stroke-width: 1.25"/>
    </g>
   </g>
   <g id="PolyCollection_3">
    <defs>
     <path id="m4578c2a9e8" d="M 452.599661 -209.383769 
L 449.740339 -209.383769 
L 448.769118 -210.30531 
L 447.290625 -211.226852 
L 445.137758 -212.148394 
L 442.142019 -213.069936 
L 438.163434 -213.991477 
L 433.129207 -214.913019 
L 427.075046 -215.834561 
L 420.179639 -216.756103 
L 412.781023 -217.677644 
L 405.364975 -218.599186 
L 398.520541 -219.520728 
L 392.865807 -220.44227 
L 388.955748 -221.363811 
L 387.1908 -222.285353 
L 387.74689 -223.206895 
L 390.543836 -224.128437 
L 395.260035 -225.049978 
L 401.389799 -225.97152 
L 408.329325 -226.893062 
L 415.471193 -227.814604 
L 422.287228 -228.736145 
L 428.384848 -229.657687 
L 433.530568 -230.579229 
L 437.642936 -231.500771 
L 440.763475 -232.422312 
L 443.016826 -233.343854 
L 444.570413 -234.265396 
L 445.600825 -235.186938 
L 446.270276 -236.108479 
L 446.713242 -237.030021 
L 447.031405 -237.951563 
L 447.29433 -238.873105 
L 447.543497 -239.794646 
L 447.797962 -240.716188 
L 448.060489 -241.63773 
L 448.323483 -242.559272 
L 448.574219 -243.480813 
L 448.799076 -244.402355 
L 448.986519 -245.323897 
L 449.128825 -246.245439 
L 449.22266 -247.16698 
L 449.268805 -248.088522 
L 449.271328 -249.010064 
L 449.23652 -249.931606 
L 449.171767 -250.853147 
L 449.084522 -251.774689 
L 448.98146 -252.696231 
L 448.867968 -253.617773 
L 448.748061 -254.539315 
L 448.624789 -255.460856 
L 448.501039 -256.382398 
L 448.380467 -257.30394 
L 448.268183 -258.225482 
L 448.170852 -259.147023 
L 448.095999 -260.068565 
L 448.050612 -260.990107 
L 448.039397 -261.911649 
L 448.063185 -262.83319 
L 448.118022 -263.754732 
L 448.195291 -264.676274 
L 448.282952 -265.597816 
L 448.367696 -266.519357 
L 448.437583 -267.440899 
L 448.484562 -268.362441 
L 448.50631 -269.283983 
L 448.5069 -270.205524 
L 448.496091 -271.127066 
L 448.487327 -272.048608 
L 448.494858 -272.97015 
L 448.530663 -273.891691 
L 448.601895 -274.813233 
L 448.709462 -275.734775 
L 448.848051 -276.656317 
L 449.007492 -277.577858 
L 449.175052 -278.4994 
L 449.338033 -279.420942 
L 449.486059 -280.342484 
L 449.612603 -281.264025 
L 449.71555 -282.185567 
L 449.796852 -283.107109 
L 449.861512 -284.028651 
L 449.91622 -284.950192 
L 449.967971 -285.871734 
L 450.022913 -286.793276 
L 450.085562 -287.714818 
L 450.158434 -288.636359 
L 450.242027 -289.557901 
L 450.335067 -290.479443 
L 450.43491 -291.400985 
L 450.538017 -292.322526 
L 450.640444 -293.244068 
L 450.738322 -294.16561 
L 450.828268 -295.087152 
L 450.907726 -296.008693 
L 450.975156 -296.930235 
L 451.030091 -297.851777 
L 451.073024 -298.773319 
L 451.105191 -299.69486 
L 451.128283 -300.616402 
L 451.211717 -300.616402 
L 451.211717 -300.616402 
L 451.234809 -299.69486 
L 451.266976 -298.773319 
L 451.309909 -297.851777 
L 451.364844 -296.930235 
L 451.432274 -296.008693 
L 451.511732 -295.087152 
L 451.601678 -294.16561 
L 451.699556 -293.244068 
L 451.801983 -292.322526 
L 451.90509 -291.400985 
L 452.004933 -290.479443 
L 452.097973 -289.557901 
L 452.181566 -288.636359 
L 452.254438 -287.714818 
L 452.317087 -286.793276 
L 452.372029 -285.871734 
L 452.42378 -284.950192 
L 452.478488 -284.028651 
L 452.543148 -283.107109 
L 452.62445 -282.185567 
L 452.727397 -281.264025 
L 452.853941 -280.342484 
L 453.001967 -279.420942 
L 453.164948 -278.4994 
L 453.332508 -277.577858 
L 453.491949 -276.656317 
L 453.630538 -275.734775 
L 453.738105 -274.813233 
L 453.809337 -273.891691 
L 453.845142 -272.97015 
L 453.852673 -272.048608 
L 453.843909 -271.127066 
L 453.8331 -270.205524 
L 453.83369 -269.283983 
L 453.855438 -268.362441 
L 453.902417 -267.440899 
L 453.972304 -266.519357 
L 454.057048 -265.597816 
L 454.144709 -264.676274 
L 454.221978 -263.754732 
L 454.276815 -262.83319 
L 454.300603 -261.911649 
L 454.289388 -260.990107 
L 454.244001 -260.068565 
L 454.169148 -259.147023 
L 454.071817 -258.225482 
L 453.959533 -257.30394 
L 453.838961 -256.382398 
L 453.715211 -255.460856 
L 453.591939 -254.539315 
L 453.472032 -253.617773 
L 453.35854 -252.696231 
L 453.255478 -251.774689 
L 453.168233 -250.853147 
L 453.10348 -249.931606 
L 453.068672 -249.010064 
L 453.071195 -248.088522 
L 453.11734 -247.16698 
L 453.211175 -246.245439 
L 453.353481 -245.323897 
L 453.540924 -244.402355 
L 453.765781 -243.480813 
L 454.016517 -242.559272 
L 454.279511 -241.63773 
L 454.542038 -240.716188 
L 454.796503 -239.794646 
L 455.04567 -238.873105 
L 455.308595 -237.951563 
L 455.626758 -237.030021 
L 456.069724 -236.108479 
L 456.739175 -235.186938 
L 457.769587 -234.265396 
L 459.323174 -233.343854 
L 461.576525 -232.422312 
L 464.697064 -231.500771 
L 468.809432 -230.579229 
L 473.955152 -229.657687 
L 480.052772 -228.736145 
L 486.868807 -227.814604 
L 494.010675 -226.893062 
L 500.950201 -225.97152 
L 507.079965 -225.049978 
L 511.796164 -224.128437 
L 514.59311 -223.206895 
L 515.1492 -222.285353 
L 513.384252 -221.363811 
L 509.474193 -220.44227 
L 503.819459 -219.520728 
L 496.975025 -218.599186 
L 489.558977 -217.677644 
L 482.160361 -216.756103 
L 475.264954 -215.834561 
L 469.210793 -214.913019 
L 464.176566 -213.991477 
L 460.197981 -213.069936 
L 457.202242 -212.148394 
L 455.049375 -211.226852 
L 453.570882 -210.30531 
L 452.599661 -209.383769 
z
" style="stroke: #595959; stroke-width: 1.25"/>
    </defs>
    <g clip-path="url(#p3919a3d600)">
     <use xlink:href="#m4578c2a9e8" x="0" y="432" style="fill: #95a3c3; stroke: #595959; stroke-width: 1.25"/>
    </g>
   </g>
   <g id="PolyCollection_4">
    <defs>
     <path id="m9b768e195a" d="M 612.6797 -239.167325 
L 609.5563 -239.167325 
L 608.445857 -240.410969 
L 606.736711 -241.654612 
L 604.233024 -242.898256 
L 600.746494 -244.1419 
L 596.138331 -245.385543 
L 590.370365 -246.629187 
L 583.554823 -247.872831 
L 575.988081 -249.116474 
L 568.15336 -250.360118 
L 560.682256 -251.603762 
L 554.275009 -252.847405 
L 549.591894 -254.091049 
L 547.1388 -255.334692 
L 547.174646 -256.578336 
L 549.664366 -257.82198 
L 554.289442 -259.065623 
L 560.51234 -260.309267 
L 567.677023 -261.552911 
L 575.119721 -262.796554 
L 582.26455 -264.040198 
L 588.686129 -265.283841 
L 594.13278 -266.527485 
L 598.514678 -267.771129 
L 601.868587 -269.014772 
L 604.312963 -270.258416 
L 606.005265 -271.50206 
L 607.108908 -272.745703 
L 607.772521 -273.989347 
L 608.120525 -275.232991 
L 608.251902 -276.476634 
L 608.24353 -277.720278 
L 608.154931 -278.963921 
L 608.032313 -280.207565 
L 607.910975 -281.451209 
L 607.816157 -282.694852 
L 607.763088 -283.938496 
L 607.75723 -285.18214 
L 607.795471 -286.425783 
L 607.868525 -287.669427 
L 607.964147 -288.91307 
L 608.070373 -290.156714 
L 608.177943 -291.400358 
L 608.28137 -292.644001 
L 608.378664 -293.887645 
L 608.470154 -295.131289 
L 608.557064 -296.374932 
L 608.640398 -297.618576 
L 608.720327 -298.86222 
L 608.796007 -300.105863 
L 608.865537 -301.349507 
L 608.925875 -302.59315 
L 608.972701 -303.836794 
L 609.000398 -305.080438 
L 609.002433 -306.324081 
L 608.972253 -307.567725 
L 608.90463 -308.811369 
L 608.797181 -310.055012 
L 608.651641 -311.298656 
L 608.474536 -312.542299 
L 608.277031 -313.785943 
L 608.073958 -315.029587 
L 607.882224 -316.27323 
L 607.718909 -317.516874 
L 607.599422 -318.760518 
L 607.535981 -320.004161 
L 607.536592 -321.247805 
L 607.604535 -322.491448 
L 607.738291 -323.735092 
L 607.931805 -324.978736 
L 608.174997 -326.222379 
L 608.454535 -327.466023 
L 608.754904 -328.709667 
L 609.059783 -329.95331 
L 609.353656 -331.196954 
L 609.623456 -332.440598 
L 609.859934 -333.684241 
L 610.058447 -334.927885 
L 610.218959 -336.171528 
L 610.345253 -337.415172 
L 610.443552 -338.658816 
L 610.520908 -339.902459 
L 610.583767 -341.146103 
L 610.637042 -342.389747 
L 610.683819 -343.63339 
L 610.725664 -344.877034 
L 610.763255 -346.120677 
L 610.797064 -347.364321 
L 610.8278 -348.607965 
L 610.856516 -349.851608 
L 610.884391 -351.095252 
L 610.91237 -352.338896 
L 610.940852 -353.582539 
L 610.969558 -354.826183 
L 610.99764 -356.069827 
L 611.023957 -357.31347 
L 611.047411 -358.557114 
L 611.067216 -359.800757 
L 611.083037 -361.044401 
L 611.094992 -362.288045 
L 611.141008 -362.288045 
L 611.141008 -362.288045 
L 611.152963 -361.044401 
L 611.168784 -359.800757 
L 611.188589 -358.557114 
L 611.212043 -357.31347 
L 611.23836 -356.069827 
L 611.266442 -354.826183 
L 611.295148 -353.582539 
L 611.32363 -352.338896 
L 611.351609 -351.095252 
L 611.379484 -349.851608 
L 611.4082 -348.607965 
L 611.438936 -347.364321 
L 611.472745 -346.120677 
L 611.510336 -344.877034 
L 611.552181 -343.63339 
L 611.598958 -342.389747 
L 611.652233 -341.146103 
L 611.715092 -339.902459 
L 611.792448 -338.658816 
L 611.890747 -337.415172 
L 612.017041 -336.171528 
L 612.177553 -334.927885 
L 612.376066 -333.684241 
L 612.612544 -332.440598 
L 612.882344 -331.196954 
L 613.176217 -329.95331 
L 613.481096 -328.709667 
L 613.781465 -327.466023 
L 614.061003 -326.222379 
L 614.304195 -324.978736 
L 614.497709 -323.735092 
L 614.631465 -322.491448 
L 614.699408 -321.247805 
L 614.700019 -320.004161 
L 614.636578 -318.760518 
L 614.517091 -317.516874 
L 614.353776 -316.27323 
L 614.162042 -315.029587 
L 613.958969 -313.785943 
L 613.761464 -312.542299 
L 613.584359 -311.298656 
L 613.438819 -310.055012 
L 613.33137 -308.811369 
L 613.263747 -307.567725 
L 613.233567 -306.324081 
L 613.235602 -305.080438 
L 613.263299 -303.836794 
L 613.310125 -302.59315 
L 613.370463 -301.349507 
L 613.439993 -300.105863 
L 613.515673 -298.86222 
L 613.595602 -297.618576 
L 613.678936 -296.374932 
L 613.765846 -295.131289 
L 613.857336 -293.887645 
L 613.95463 -292.644001 
L 614.058057 -291.400358 
L 614.165627 -290.156714 
L 614.271853 -288.91307 
L 614.367475 -287.669427 
L 614.440529 -286.425783 
L 614.47877 -285.18214 
L 614.472912 -283.938496 
L 614.419843 -282.694852 
L 614.325025 -281.451209 
L 614.203687 -280.207565 
L 614.081069 -278.963921 
L 613.99247 -277.720278 
L 613.984098 -276.476634 
L 614.115475 -275.232991 
L 614.463479 -273.989347 
L 615.127092 -272.745703 
L 616.230735 -271.50206 
L 617.923037 -270.258416 
L 620.367413 -269.014772 
L 623.721322 -267.771129 
L 628.10322 -266.527485 
L 633.549871 -265.283841 
L 639.97145 -264.040198 
L 647.116279 -262.796554 
L 654.558977 -261.552911 
L 661.72366 -260.309267 
L 667.946558 -259.065623 
L 672.571634 -257.82198 
L 675.061354 -256.578336 
L 675.0972 -255.334692 
L 672.644106 -254.091049 
L 667.960991 -252.847405 
L 661.553744 -251.603762 
L 654.08264 -250.360118 
L 646.247919 -249.116474 
L 638.681177 -247.872831 
L 631.865635 -246.629187 
L 626.097669 -245.385543 
L 621.489506 -244.1419 
L 618.002976 -242.898256 
L 615.499289 -241.654612 
L 613.790143 -240.410969 
L 612.6797 -239.167325 
z
" style="stroke: #595959; stroke-width: 1.25"/>
    </defs>
    <g clip-path="url(#p3919a3d600)">
     <use xlink:href="#m9b768e195a" x="0" y="432" style="fill: #db96c0; stroke: #595959; stroke-width: 1.25"/>
    </g>
   </g>
   <g id="PolyCollection_5">
    <defs>
     <path id="m81c6f40059" d="M 773.176206 -216.93194 
L 768.955794 -216.93194 
L 766.747943 -218.665026 
L 762.950659 -220.398111 
L 757.053156 -222.131197 
L 748.828262 -223.864282 
L 738.621151 -225.597368 
L 727.529875 -227.330453 
L 717.314727 -229.063539 
L 709.971222 -230.796624 
L 707.0868 -232.52971 
L 709.261602 -234.262795 
L 715.882989 -235.995881 
L 725.370828 -237.728967 
L 735.761584 -239.462052 
L 745.339472 -241.195138 
L 753.045872 -242.928223 
L 758.560702 -244.661309 
L 762.124299 -246.394394 
L 764.254095 -248.12748 
L 765.492967 -249.860565 
L 766.257401 -251.593651 
L 766.790238 -253.326736 
L 767.188556 -255.059822 
L 767.467296 -256.792907 
L 767.622233 -258.525993 
L 767.666877 -260.259078 
L 767.635283 -261.992164 
L 767.561345 -263.725249 
L 767.456206 -265.458335 
L 767.302712 -267.19142 
L 767.071869 -268.924506 
L 766.750568 -270.657591 
L 766.362647 -272.390677 
L 765.970267 -274.123763 
L 765.654945 -275.856848 
L 765.488972 -277.589934 
L 765.511717 -279.323019 
L 765.720791 -281.056105 
L 766.079311 -282.78919 
L 766.532891 -284.522276 
L 767.027105 -286.255361 
L 767.518409 -287.988447 
L 767.976603 -289.721532 
L 768.381845 -291.454618 
L 768.72121 -293.187703 
L 768.98826 -294.920789 
L 769.185598 -296.653874 
L 769.327397 -298.38696 
L 769.438415 -300.120045 
L 769.548073 -301.853131 
L 769.681398 -303.586216 
L 769.850858 -305.319302 
L 770.052939 -307.052387 
L 770.270937 -308.785473 
L 770.48231 -310.518559 
L 770.666915 -312.251644 
L 770.812679 -313.98473 
L 770.91708 -315.717815 
L 770.985076 -317.450901 
L 771.025418 -319.183986 
L 771.047244 -320.917072 
L 771.058021 -322.650157 
L 771.062876 -324.383243 
L 771.064865 -326.116328 
L 771.065579 -327.849414 
L 771.065719 -329.582499 
L 771.065466 -331.315585 
L 771.064629 -333.04867 
L 771.062635 -334.781756 
L 771.058438 -336.514841 
L 771.050516 -338.247927 
L 771.037119 -339.981012 
L 771.016931 -341.714098 
L 770.990065 -343.447183 
L 770.958964 -345.180269 
L 770.928572 -346.913355 
L 770.90528 -348.64644 
L 770.894794 -350.379526 
L 770.899874 -352.112611 
L 770.919152 -353.845697 
L 770.947692 -355.578782 
L 770.978966 -357.311868 
L 771.007078 -359.044953 
L 771.028147 -360.778039 
L 771.040394 -362.511124 
L 771.043343 -364.24421 
L 771.036954 -365.977295 
L 771.021353 -367.710381 
L 770.997381 -369.443466 
L 770.96753 -371.176552 
L 770.936502 -372.909637 
L 770.910649 -374.642723 
L 770.896186 -376.375808 
L 770.896909 -378.108894 
L 770.912635 -379.841979 
L 770.939296 -381.575065 
L 770.970654 -383.308151 
L 771.000646 -385.041236 
L 771.025197 -386.774322 
L 771.042796 -388.507407 
L 771.089204 -388.507407 
L 771.089204 -388.507407 
L 771.106803 -386.774322 
L 771.131354 -385.041236 
L 771.161346 -383.308151 
L 771.192704 -381.575065 
L 771.219365 -379.841979 
L 771.235091 -378.108894 
L 771.235814 -376.375808 
L 771.221351 -374.642723 
L 771.195498 -372.909637 
L 771.16447 -371.176552 
L 771.134619 -369.443466 
L 771.110647 -367.710381 
L 771.095046 -365.977295 
L 771.088657 -364.24421 
L 771.091606 -362.511124 
L 771.103853 -360.778039 
L 771.124922 -359.044953 
L 771.153034 -357.311868 
L 771.184308 -355.578782 
L 771.212848 -353.845697 
L 771.232126 -352.112611 
L 771.237206 -350.379526 
L 771.22672 -348.64644 
L 771.203428 -346.913355 
L 771.173036 -345.180269 
L 771.141935 -343.447183 
L 771.115069 -341.714098 
L 771.094881 -339.981012 
L 771.081484 -338.247927 
L 771.073562 -336.514841 
L 771.069365 -334.781756 
L 771.067371 -333.04867 
L 771.066534 -331.315585 
L 771.066281 -329.582499 
L 771.066421 -327.849414 
L 771.067135 -326.116328 
L 771.069124 -324.383243 
L 771.073979 -322.650157 
L 771.084756 -320.917072 
L 771.106582 -319.183986 
L 771.146924 -317.450901 
L 771.21492 -315.717815 
L 771.319321 -313.98473 
L 771.465085 -312.251644 
L 771.64969 -310.518559 
L 771.861063 -308.785473 
L 772.079061 -307.052387 
L 772.281142 -305.319302 
L 772.450602 -303.586216 
L 772.583927 -301.853131 
L 772.693585 -300.120045 
L 772.804603 -298.38696 
L 772.946402 -296.653874 
L 773.14374 -294.920789 
L 773.41079 -293.187703 
L 773.750155 -291.454618 
L 774.155397 -289.721532 
L 774.613591 -287.988447 
L 775.104895 -286.255361 
L 775.599109 -284.522276 
L 776.052689 -282.78919 
L 776.411209 -281.056105 
L 776.620283 -279.323019 
L 776.643028 -277.589934 
L 776.477055 -275.856848 
L 776.161733 -274.123763 
L 775.769353 -272.390677 
L 775.381432 -270.657591 
L 775.060131 -268.924506 
L 774.829288 -267.19142 
L 774.675794 -265.458335 
L 774.570655 -263.725249 
L 774.496717 -261.992164 
L 774.465123 -260.259078 
L 774.509767 -258.525993 
L 774.664704 -256.792907 
L 774.943444 -255.059822 
L 775.341762 -253.326736 
L 775.874599 -251.593651 
L 776.639033 -249.860565 
L 777.877905 -248.12748 
L 780.007701 -246.394394 
L 783.571298 -244.661309 
L 789.086128 -242.928223 
L 796.792528 -241.195138 
L 806.370416 -239.462052 
L 816.761172 -237.728967 
L 826.249011 -235.995881 
L 832.870398 -234.262795 
L 835.0452 -232.52971 
L 832.160778 -230.796624 
L 824.817273 -229.063539 
L 814.602125 -227.330453 
L 803.510849 -225.597368 
L 793.303738 -223.864282 
L 785.078844 -222.131197 
L 779.181341 -220.398111 
L 775.384057 -218.665026 
L 773.176206 -216.93194 
z
" style="stroke: #595959; stroke-width: 1.25"/>
    </defs>
    <g clip-path="url(#p3919a3d600)">
     <use xlink:href="#m81c6f40059" x="0" y="432" style="fill: #a2c865; stroke: #595959; stroke-width: 1.25"/>
    </g>
   </g>
   <g id="line2d_6">
    <path d="M 131.274 354.727617 
L 131.274 355.397489 
" clip-path="url(#p3919a3d600)" style="fill: none; stroke: #000000"/>
   </g>
   <g id="line2d_7">
    <path d="M 131.274 350.355818 
L 131.274 344.50325 
" clip-path="url(#p3919a3d600)" style="fill: none; stroke: #000000"/>
   </g>
   <g id="line2d_8">
    <path d="M 125.27595 355.397489 
L 137.27205 355.397489 
" clip-path="url(#p3919a3d600)" style="fill: none; stroke: #000000; stroke-linecap: round"/>
   </g>
   <g id="line2d_9">
    <path d="M 125.27595 344.50325 
L 137.27205 344.50325 
" clip-path="url(#p3919a3d600)" style="fill: none; stroke: #000000; stroke-linecap: round"/>
   </g>
   <g id="line2d_10">
    <path d="M 291.222 359.628261 
L 291.222 360.051339 
" clip-path="url(#p3919a3d600)" style="fill: none; stroke: #000000"/>
   </g>
   <g id="line2d_11">
    <path d="M 291.222 356.984029 
L 291.222 353.070564 
" clip-path="url(#p3919a3d600)" style="fill: none; stroke: #000000"/>
   </g>
   <g id="line2d_12">
    <path d="M 285.22395 360.051339 
L 297.22005 360.051339 
" clip-path="url(#p3919a3d600)" style="fill: none; stroke: #000000; stroke-linecap: round"/>
   </g>
   <g id="line2d_13">
    <path d="M 285.22395 353.070564 
L 297.22005 353.070564 
" clip-path="url(#p3919a3d600)" style="fill: none; stroke: #000000; stroke-linecap: round"/>
   </g>
   <g id="line2d_14">
    <path d="M 451.17 210.352505 
L 451.17 213.772379 
" clip-path="url(#p3919a3d600)" style="fill: none; stroke: #000000"/>
   </g>
   <g id="line2d_15">
    <path d="M 451.17 207.179425 
L 451.17 202.807627 
" clip-path="url(#p3919a3d600)" style="fill: none; stroke: #000000"/>
   </g>
   <g id="line2d_16">
    <path d="M 445.17195 213.772379 
L 457.16805 213.772379 
" clip-path="url(#p3919a3d600)" style="fill: none; stroke: #000000; stroke-linecap: round"/>
   </g>
   <g id="line2d_17">
    <path d="M 445.17195 202.807627 
L 457.16805 202.807627 
" clip-path="url(#p3919a3d600)" style="fill: none; stroke: #000000; stroke-linecap: round"/>
   </g>
   <g id="line2d_18">
    <path d="M 611.118 177.467062 
L 611.118 181.442226 
" clip-path="url(#p3919a3d600)" style="fill: none; stroke: #000000"/>
   </g>
   <g id="line2d_19">
    <path d="M 611.118 172.751514 
L 611.118 165.894137 
" clip-path="url(#p3919a3d600)" style="fill: none; stroke: #000000"/>
   </g>
   <g id="line2d_20">
    <path d="M 605.11995 181.442226 
L 617.11605 181.442226 
" clip-path="url(#p3919a3d600)" style="fill: none; stroke: #000000; stroke-linecap: round"/>
   </g>
   <g id="line2d_21">
    <path d="M 605.11995 165.894137 
L 617.11605 165.894137 
" clip-path="url(#p3919a3d600)" style="fill: none; stroke: #000000; stroke-linecap: round"/>
   </g>
   <g id="line2d_22">
    <path d="M 771.066 200.339676 
L 771.066 203.724294 
" clip-path="url(#p3919a3d600)" style="fill: none; stroke: #000000"/>
   </g>
   <g id="line2d_23">
    <path d="M 771.066 196.038391 
L 771.066 189.868514 
" clip-path="url(#p3919a3d600)" style="fill: none; stroke: #000000"/>
   </g>
   <g id="line2d_24">
    <path d="M 765.06795 203.724294 
L 777.06405 203.724294 
" clip-path="url(#p3919a3d600)" style="fill: none; stroke: #000000; stroke-linecap: round"/>
   </g>
   <g id="line2d_25">
    <path d="M 765.06795 189.868514 
L 777.06405 189.868514 
" clip-path="url(#p3919a3d600)" style="fill: none; stroke: #000000; stroke-linecap: round"/>
   </g>
   <g id="line2d_26">
    <path d="M 119.2779 353.317359 
L 143.2701 353.317359 
" clip-path="url(#p3919a3d600)" style="fill: none; stroke: #ff0000; stroke-width: 2"/>
   </g>
   <g id="line2d_27">
    <path d="M 279.2259 359.099415 
L 303.2181 359.099415 
" clip-path="url(#p3919a3d600)" style="fill: none; stroke: #ff0000; stroke-width: 2"/>
   </g>
   <g id="line2d_28">
    <path d="M 439.1739 209.083273 
L 463.1661 209.083273 
" clip-path="url(#p3919a3d600)" style="fill: none; stroke: #ff0000; stroke-width: 2"/>
   </g>
   <g id="line2d_29">
    <path d="M 599.1219 175.642542 
L 623.1141 175.642542 
" clip-path="url(#p3919a3d600)" style="fill: none; stroke: #ff0000; stroke-width: 2"/>
   </g>
   <g id="line2d_30">
    <path d="M 759.0699 198.806021 
L 783.0621 198.806021 
" clip-path="url(#p3919a3d600)" style="fill: none; stroke: #ff0000; stroke-width: 2"/>
   </g>
   <g id="patch_3">
    <path d="M 51.3 377.237044 
L 51.3 27.6 
" style="fill: none; stroke: #cccccc; stroke-width: 1.25; stroke-linejoin: miter; stroke-linecap: square"/>
   </g>
   <g id="patch_4">
    <path d="M 851.04 377.237044 
L 851.04 27.6 
" style="fill: none; stroke: #cccccc; stroke-width: 1.25; stroke-linejoin: miter; stroke-linecap: square"/>
   </g>
   <g id="patch_5">
    <path d="M 51.3 377.237044 
L 851.04 377.237044 
" style="fill: none; stroke: #cccccc; stroke-width: 1.25; stroke-linejoin: miter; stroke-linecap: square"/>
   </g>
   <g id="patch_6">
    <path d="M 51.3 27.6 
L 851.04 27.6 
" style="fill: none; stroke: #cccccc; stroke-width: 1.25; stroke-linejoin: miter; stroke-linecap: square"/>
   </g>
   <g id="text_12">
    <!-- Handshake duration on QUIC with secp384r1 signature algorithm — ideal conditions -->
    <g style="fill: #262626" transform="translate(197.96625 21.6) scale(0.12 -0.12)">
     <defs>
      <path id="DejaVuSans-51" d="M 2522 4238 
Q 1834 4238 1429 3725 
Q 1025 3213 1025 2328 
Q 1025 1447 1429 934 
Q 1834 422 2522 422 
Q 3209 422 3611 934 
Q 4013 1447 4013 2328 
Q 4013 3213 3611 3725 
Q 3209 4238 2522 4238 
z
M 3406 84 
L 4238 -825 
L 3475 -825 
L 2784 -78 
Q 2681 -84 2626 -87 
Q 2572 -91 2522 -91 
Q 1538 -91 948 567 
Q 359 1225 359 2328 
Q 359 3434 948 4092 
Q 1538 4750 2522 4750 
Q 3503 4750 4090 4092 
Q 4678 3434 4678 2328 
Q 4678 1516 4351 937 
Q 4025 359 3406 84 
z
" transform="scale(0.015625)"/>
      <path id="DejaVuSans-55" d="M 556 4666 
L 1191 4666 
L 1191 1831 
Q 1191 1081 1462 751 
Q 1734 422 2344 422 
Q 2950 422 3222 751 
Q 3494 1081 3494 1831 
L 3494 4666 
L 4128 4666 
L 4128 1753 
Q 4128 841 3676 375 
Q 3225 -91 2344 -91 
Q 1459 -91 1007 375 
Q 556 841 556 1753 
L 556 4666 
z
" transform="scale(0.015625)"/>
      <path id="DejaVuSans-49" d="M 628 4666 
L 1259 4666 
L 1259 0 
L 628 0 
L 628 4666 
z
" transform="scale(0.015625)"/>
      <path id="DejaVuSans-43" d="M 4122 4306 
L 4122 3641 
Q 3803 3938 3442 4084 
Q 3081 4231 2675 4231 
Q 1875 4231 1450 3742 
Q 1025 3253 1025 2328 
Q 1025 1406 1450 917 
Q 1875 428 2675 428 
Q 3081 428 3442 575 
Q 3803 722 4122 1019 
L 4122 359 
Q 3791 134 3420 21 
Q 3050 -91 2638 -91 
Q 1578 -91 968 557 
Q 359 1206 359 2328 
Q 359 3453 968 4101 
Q 1578 4750 2638 4750 
Q 3056 4750 3426 4639 
Q 3797 4528 4122 4306 
z
" transform="scale(0.015625)"/>
      <path id="DejaVuSans-77" d="M 269 3500 
L 844 3500 
L 1563 769 
L 2278 3500 
L 2956 3500 
L 3675 769 
L 4391 3500 
L 4966 3500 
L 4050 0 
L 3372 0 
L 2619 2869 
L 1863 0 
L 1184 0 
L 269 3500 
z
" transform="scale(0.015625)"/>
      <path id="DejaVuSans-67" d="M 2906 1791 
Q 2906 2416 2648 2759 
Q 2391 3103 1925 3103 
Q 1463 3103 1205 2759 
Q 947 2416 947 1791 
Q 947 1169 1205 825 
Q 1463 481 1925 481 
Q 2391 481 2648 825 
Q 2906 1169 2906 1791 
z
M 3481 434 
Q 3481 -459 3084 -895 
Q 2688 -1331 1869 -1331 
Q 1566 -1331 1297 -1286 
Q 1028 -1241 775 -1147 
L 775 -588 
Q 1028 -725 1275 -790 
Q 1522 -856 1778 -856 
Q 2344 -856 2625 -561 
Q 2906 -266 2906 331 
L 2906 616 
Q 2728 306 2450 153 
Q 2172 0 1784 0 
Q 1141 0 747 490 
Q 353 981 353 1791 
Q 353 2603 747 3093 
Q 1141 3584 1784 3584 
Q 2172 3584 2450 3431 
Q 2728 3278 2906 2969 
L 2906 3500 
L 3481 3500 
L 3481 434 
z
" transform="scale(0.015625)"/>
      <path id="DejaVuSans-6c" d="M 603 4863 
L 1178 4863 
L 1178 0 
L 603 0 
L 603 4863 
z
" transform="scale(0.015625)"/>
      <path id="DejaVuSans-2014" d="M 313 1978 
L 6088 1978 
L 6088 1528 
L 313 1528 
L 313 1978 
z
" transform="scale(0.015625)"/>
     </defs>
     <use xlink:href="#DejaVuSans-48"/>
     <use xlink:href="#DejaVuSans-61" x="75.195312"/>
     <use xlink:href="#DejaVuSans-6e" x="136.474609"/>
     <use xlink:href="#DejaVuSans-64" x="199.853516"/>
     <use xlink:href="#DejaVuSans-73" x="263.330078"/>
     <use xlink:href="#DejaVuSans-68" x="315.429688"/>
     <use xlink:href="#DejaVuSans-61" x="378.808594"/>
     <use xlink:href="#DejaVuSans-6b" x="440.087891"/>
     <use xlink:href="#DejaVuSans-65" x="494.373047"/>
     <use xlink:href="#DejaVuSans-20" x="555.896484"/>
     <use xlink:href="#DejaVuSans-64" x="587.683594"/>
     <use xlink:href="#DejaVuSans-75" x="651.160156"/>
     <use xlink:href="#DejaVuSans-72" x="714.539062"/>
     <use xlink:href="#DejaVuSans-61" x="755.652344"/>
     <use xlink:href="#DejaVuSans-74" x="816.931641"/>
     <use xlink:href="#DejaVuSans-69" x="856.140625"/>
     <use xlink:href="#DejaVuSans-6f" x="883.923828"/>
     <use xlink:href="#DejaVuSans-6e" x="945.105469"/>
     <use xlink:href="#DejaVuSans-20" x="1008.484375"/>
     <use xlink:href="#DejaVuSans-6f" x="1040.271484"/>
     <use xlink:href="#DejaVuSans-6e" x="1101.453125"/>
     <use xlink:href="#DejaVuSans-20" x="1164.832031"/>
     <use xlink:href="#DejaVuSans-51" x="1196.619141"/>
     <use xlink:href="#DejaVuSans-55" x="1275.330078"/>
     <use xlink:href="#DejaVuSans-49" x="1348.523438"/>
     <use xlink:href="#DejaVuSans-43" x="1378.015625"/>
     <use xlink:href="#DejaVuSans-20" x="1447.839844"/>
     <use xlink:href="#DejaVuSans-77" x="1479.626953"/>
     <use xlink:href="#DejaVuSans-69" x="1561.414062"/>
     <use xlink:href="#DejaVuSans-74" x="1589.197266"/>
     <use xlink:href="#DejaVuSans-68" x="1628.40625"/>
     <use xlink:href="#DejaVuSans-20" x="1691.785156"/>
     <use xlink:href="#DejaVuSans-73" x="1723.572266"/>
     <use xlink:href="#DejaVuSans-65" x="1775.671875"/>
     <use xlink:href="#DejaVuSans-63" x="1837.195312"/>
     <use xlink:href="#DejaVuSans-70" x="1892.175781"/>
     <use xlink:href="#DejaVuSans-33" x="1955.652344"/>
     <use xlink:href="#DejaVuSans-38" x="2019.275391"/>
     <use xlink:href="#DejaVuSans-34" x="2082.898438"/>
     <use xlink:href="#DejaVuSans-72" x="2146.521484"/>
     <use xlink:href="#DejaVuSans-31" x="2187.634766"/>
     <use xlink:href="#DejaVuSans-20" x="2251.257812"/>
     <use xlink:href="#DejaVuSans-73" x="2283.044922"/>
     <use xlink:href="#DejaVuSans-69" x="2335.144531"/>
     <use xlink:href="#DejaVuSans-67" x="2362.927734"/>
     <use xlink:href="#DejaVuSans-6e" x="2426.404297"/>
     <use xlink:href="#DejaVuSans-61" x="2489.783203"/>
     <use xlink:href="#DejaVuSans-74" x="2551.0625"/>
     <use xlink:href="#DejaVuSans-75" x="2590.271484"/>
     <use xlink:href="#DejaVuSans-72" x="2653.650391"/>
     <use xlink:href="#DejaVuSans-65" x="2692.513672"/>
     <use xlink:href="#DejaVuSans-20" x="2754.037109"/>
     <use xlink:href="#DejaVuSans-61" x="2785.824219"/>
     <use xlink:href="#DejaVuSans-6c" x="2847.103516"/>
     <use xlink:href="#DejaVuSans-67" x="2874.886719"/>
     <use xlink:href="#DejaVuSans-6f" x="2938.363281"/>
     <use xlink:href="#DejaVuSans-72" x="2999.544922"/>
     <use xlink:href="#DejaVuSans-69" x="3040.658203"/>
     <use xlink:href="#DejaVuSans-74" x="3068.441406"/>
     <use xlink:href="#DejaVuSans-68" x="3107.650391"/>
     <use xlink:href="#DejaVuSans-6d" x="3171.029297"/>
     <use xlink:href="#DejaVuSans-20" x="3268.441406"/>
     <use xlink:href="#DejaVuSans-2014" x="3300.228516"/>
     <use xlink:href="#DejaVuSans-20" x="3400.228516"/>
     <use xlink:href="#DejaVuSans-69" x="3432.015625"/>
     <use xlink:href="#DejaVuSans-64" x="3459.798828"/>
     <use xlink:href="#DejaVuSans-65" x="3523.275391"/>
     <use xlink:href="#DejaVuSans-61" x="3584.798828"/>
     <use xlink:href="#DejaVuSans-6c" x="3646.078125"/>
     <use xlink:href="#DejaVuSans-20" x="3673.861328"/>
     <use xlink:href="#DejaVuSans-63" x="3705.648438"/>
     <use xlink:href="#DejaVuSans-6f" x="3760.628906"/>
     <use xlink:href="#DejaVuSans-6e" x="3821.810547"/>
     <use xlink:href="#DejaVuSans-64" x="3885.189453"/>
     <use xlink:href="#DejaVuSans-69" x="3948.666016"/>
     <use xlink:href="#DejaVuSans-74" x="3976.449219"/>
     <use xlink:href="#DejaVuSans-69" x="4015.658203"/>
     <use xlink:href="#DejaVuSans-6f" x="4043.441406"/>
     <use xlink:href="#DejaVuSans-6e" x="4104.623047"/>
     <use xlink:href="#DejaVuSans-73" x="4168.001953"/>
    </g>
   </g>
  </g>
 </g>
 <defs>
  <clipPath id="p3919a3d600">
   <rect x="51.3" y="27.6" width="799.74" height="349.637044"/>
  </clipPath>
 </defs>
</svg>
