<?xml version="1.0" encoding="utf-8" standalone="no"?>
<!DOCTYPE svg PUBLIC "-//W3C//DTD SVG 1.1//EN"
  "http://www.w3.org/Graphics/SVG/1.1/DTD/svg11.dtd">
<svg xmlns:xlink="http://www.w3.org/1999/xlink" width="864pt" height="432pt" viewBox="0 0 864 432" xmlns="http://www.w3.org/2000/svg" version="1.1">
 <metadata>
  <rdf:RDF xmlns:dc="http://purl.org/dc/elements/1.1/" xmlns:cc="http://creativecommons.org/ns#" xmlns:rdf="http://www.w3.org/1999/02/22-rdf-syntax-ns#">
   <cc:Work>
    <dc:type rdf:resource="http://purl.org/dc/dcmitype/StillImage"/>
    <dc:date>2026-03-21T14:06:29.914778</dc:date>
    <dc:format>image/svg+xml</dc:format>
    <dc:creator>
     <cc:Agent>
      <dc:title>Matplotlib v3.6.3, https://matplotlib.org/</dc:title>
     </cc:Agent>
    </dc:creator>
   </cc:Work>
  </rdf:RDF>
 </metadata>
 <defs>
  <style type="text/css">*{stroke-linejoin: round; stroke-linecap: butt}</style>
 </defs>
 <g id="figure_1">
  <g id="patch_1">
   <path d="M 0 432 
L 864 432 
L 864 0 
L 0 0 
z
" style="fill: #ffffff"/>
  </g>
  <g id="axes_1">
   <g id="patch_2">
    <path d="M 58.32 377.237044 
L 851.04 377.237044 
L 851.04 27.6 
L 58.32 27.6 
z
" style="fill: #ffffff"/>
   </g>
   <g id="matplotlib.axis_1">
    <g id="xtick_1">
     <g id="text_1">
      <!-- P-384 -->
      <g style="fill: #262626" transform="translate(103.911421 404.396088) rotate(-15) scale(0.12 -0.12)">
       <defs>
        <path id="DejaVuSans-50" d="M 1259 4147 
L 1259 2394 
L 2053 2394 
Q 2494 2394 2734 2622 
Q 2975 2850 2975 3272 
Q 2975 3691 2734 3919 
Q 2494 4147 2053 4147 
L 1259 4147 
z
M 628 4666 
L 2053 4666 
Q 2838 4666 3239 4311 
Q 3641 3956 3641 3272 
Q 3641 2581 3239 2228 
Q 2838 1875 2053 1875 
L 1259 1875 
L 1259 0 
L 628 0 
L 628 4666 
z
" transform="scale(0.015625)"/>
        <path id="DejaVuSans-2d" d="M 313 2009 
L 1997 2009 
L 1997 1497 
L 313 1497 
L 313 2009 
z
" transform="scale(0.015625)"/>
        <path id="DejaVuSans-33" d="M 2597 2516 
Q 3050 2419 3304 2112 
Q 3559 1806 3559 1356 
Q 3559 666 3084 287 
Q 2609 -91 1734 -91 
Q 1441 -91 1130 -33 
Q 819 25 488 141 
L 488 750 
Q 750 597 1062 519 
Q 1375 441 1716 441 
Q 2309 441 2620 675 
Q 2931 909 2931 1356 
Q 2931 1769 2642 2001 
Q 2353 2234 1838 2234 
L 1294 2234 
L 1294 2753 
L 1863 2753 
Q 2328 2753 2575 2939 
Q 2822 3125 2822 3475 
Q 2822 3834 2567 4026 
Q 2313 4219 1838 4219 
Q 1578 4219 1281 4162 
Q 984 4106 628 3988 
L 628 4550 
Q 988 4650 1302 4700 
Q 1616 4750 1894 4750 
Q 2613 4750 3031 4423 
Q 3450 4097 3450 3541 
Q 3450 3153 3228 2886 
Q 3006 2619 2597 2516 
z
" transform="scale(0.015625)"/>
        <path id="DejaVuSans-38" d="M 2034 2216 
Q 1584 2216 1326 1975 
Q 1069 1734 1069 1313 
Q 1069 891 1326 650 
Q 1584 409 2034 409 
Q 2484 409 2743 651 
Q 3003 894 3003 1313 
Q 3003 1734 2745 1975 
Q 2488 2216 2034 2216 
z
M 1403 2484 
Q 997 2584 770 2862 
Q 544 3141 544 3541 
Q 544 4100 942 4425 
Q 1341 4750 2034 4750 
Q 2731 4750 3128 4425 
Q 3525 4100 3525 3541 
Q 3525 3141 3298 2862 
Q 3072 2584 2669 2484 
Q 3125 2378 3379 2068 
Q 3634 1759 3634 1313 
Q 3634 634 3220 271 
Q 2806 -91 2034 -91 
Q 1263 -91 848 271 
Q 434 634 434 1313 
Q 434 1759 690 2068 
Q 947 2378 1403 2484 
z
M 1172 3481 
Q 1172 3119 1398 2916 
Q 1625 2713 2034 2713 
Q 2441 2713 2670 2916 
Q 2900 3119 2900 3481 
Q 2900 3844 2670 4047 
Q 2441 4250 2034 4250 
Q 1625 4250 1398 4047 
Q 1172 3844 1172 3481 
z
" transform="scale(0.015625)"/>
        <path id="DejaVuSans-34" d="M 2419 4116 
L 825 1625 
L 2419 1625 
L 2419 4116 
z
M 2253 4666 
L 3047 4666 
L 3047 1625 
L 3713 1625 
L 3713 1100 
L 3047 1100 
L 3047 0 
L 2419 0 
L 2419 1100 
L 313 1100 
L 313 1709 
L 2253 4666 
z
" transform="scale(0.015625)"/>
       </defs>
       <use xlink:href="#DejaVuSans-50"/>
       <use xlink:href="#DejaVuSans-2d" x="58.052734"/>
       <use xlink:href="#DejaVuSans-33" x="94.136719"/>
       <use xlink:href="#DejaVuSans-38" x="157.759766"/>
       <use xlink:href="#DejaVuSans-34" x="221.382812"/>
      </g>
     </g>
    </g>
    <g id="xtick_2">
     <g id="text_2">
      <!-- x448 -->
      <g style="fill: #262626" transform="translate(266.505065 403.310989) rotate(-15) scale(0.12 -0.12)">
       <defs>
        <path id="DejaVuSans-78" d="M 3513 3500 
L 2247 1797 
L 3578 0 
L 2900 0 
L 1881 1375 
L 863 0 
L 184 0 
L 1544 1831 
L 300 3500 
L 978 3500 
L 1906 2253 
L 2834 3500 
L 3513 3500 
z
" transform="scale(0.015625)"/>
       </defs>
       <use xlink:href="#DejaVuSans-78"/>
       <use xlink:href="#DejaVuSans-34" x="59.179688"/>
       <use xlink:href="#DejaVuSans-34" x="122.802734"/>
       <use xlink:href="#DejaVuSans-38" x="186.425781"/>
      </g>
     </g>
    </g>
    <g id="xtick_3">
     <g id="text_3">
      <!-- hqc192 -->
      <g style="fill: #262626" transform="translate(410.831845 407.120482) rotate(-15) scale(0.12 -0.12)">
       <defs>
        <path id="DejaVuSans-68" d="M 3513 2113 
L 3513 0 
L 2938 0 
L 2938 2094 
Q 2938 2591 2744 2837 
Q 2550 3084 2163 3084 
Q 1697 3084 1428 2787 
Q 1159 2491 1159 1978 
L 1159 0 
L 581 0 
L 581 4863 
L 1159 4863 
L 1159 2956 
Q 1366 3272 1645 3428 
Q 1925 3584 2291 3584 
Q 2894 3584 3203 3211 
Q 3513 2838 3513 2113 
z
" transform="scale(0.015625)"/>
        <path id="DejaVuSans-71" d="M 947 1747 
Q 947 1113 1208 752 
Q 1469 391 1925 391 
Q 2381 391 2643 752 
Q 2906 1113 2906 1747 
Q 2906 2381 2643 2742 
Q 2381 3103 1925 3103 
Q 1469 3103 1208 2742 
Q 947 2381 947 1747 
z
M 2906 525 
Q 2725 213 2448 61 
Q 2172 -91 1784 -91 
Q 1150 -91 751 415 
Q 353 922 353 1747 
Q 353 2572 751 3078 
Q 1150 3584 1784 3584 
Q 2172 3584 2448 3432 
Q 2725 3281 2906 2969 
L 2906 3500 
L 3481 3500 
L 3481 -1331 
L 2906 -1331 
L 2906 525 
z
" transform="scale(0.015625)"/>
        <path id="DejaVuSans-63" d="M 3122 3366 
L 3122 2828 
Q 2878 2963 2633 3030 
Q 2388 3097 2138 3097 
Q 1578 3097 1268 2742 
Q 959 2388 959 1747 
Q 959 1106 1268 751 
Q 1578 397 2138 397 
Q 2388 397 2633 464 
Q 2878 531 3122 666 
L 3122 134 
Q 2881 22 2623 -34 
Q 2366 -91 2075 -91 
Q 1284 -91 818 406 
Q 353 903 353 1747 
Q 353 2603 823 3093 
Q 1294 3584 2113 3584 
Q 2378 3584 2631 3529 
Q 2884 3475 3122 3366 
z
" transform="scale(0.015625)"/>
        <path id="DejaVuSans-31" d="M 794 531 
L 1825 531 
L 1825 4091 
L 703 3866 
L 703 4441 
L 1819 4666 
L 2450 4666 
L 2450 531 
L 3481 531 
L 3481 0 
L 794 0 
L 794 531 
z
" transform="scale(0.015625)"/>
        <path id="DejaVuSans-39" d="M 703 97 
L 703 672 
Q 941 559 1184 500 
Q 1428 441 1663 441 
Q 2288 441 2617 861 
Q 2947 1281 2994 2138 
Q 2813 1869 2534 1725 
Q 2256 1581 1919 1581 
Q 1219 1581 811 2004 
Q 403 2428 403 3163 
Q 403 3881 828 4315 
Q 1253 4750 1959 4750 
Q 2769 4750 3195 4129 
Q 3622 3509 3622 2328 
Q 3622 1225 3098 567 
Q 2575 -91 1691 -91 
Q 1453 -91 1209 -44 
Q 966 3 703 97 
z
M 1959 2075 
Q 2384 2075 2632 2365 
Q 2881 2656 2881 3163 
Q 2881 3666 2632 3958 
Q 2384 4250 1959 4250 
Q 1534 4250 1286 3958 
Q 1038 3666 1038 3163 
Q 1038 2656 1286 2365 
Q 1534 2075 1959 2075 
z
" transform="scale(0.015625)"/>
        <path id="DejaVuSans-32" d="M 1228 531 
L 3431 531 
L 3431 0 
L 469 0 
L 469 531 
Q 828 903 1448 1529 
Q 2069 2156 2228 2338 
Q 2531 2678 2651 2914 
Q 2772 3150 2772 3378 
Q 2772 3750 2511 3984 
Q 2250 4219 1831 4219 
Q 1534 4219 1204 4116 
Q 875 4013 500 3803 
L 500 4441 
Q 881 4594 1212 4672 
Q 1544 4750 1819 4750 
Q 2544 4750 2975 4387 
Q 3406 4025 3406 3419 
Q 3406 3131 3298 2873 
Q 3191 2616 2906 2266 
Q 2828 2175 2409 1742 
Q 1991 1309 1228 531 
z
" transform="scale(0.015625)"/>
       </defs>
       <use xlink:href="#DejaVuSans-68"/>
       <use xlink:href="#DejaVuSans-71" x="63.378906"/>
       <use xlink:href="#DejaVuSans-63" x="126.855469"/>
       <use xlink:href="#DejaVuSans-31" x="181.835938"/>
       <use xlink:href="#DejaVuSans-39" x="245.458984"/>
       <use xlink:href="#DejaVuSans-32" x="309.082031"/>
      </g>
     </g>
    </g>
    <g id="xtick_4">
     <g id="text_4">
      <!-- p384_hqc192 -->
      <g style="fill: #262626" transform="translate(534.010834 416.573362) rotate(-15) scale(0.12 -0.12)">
       <defs>
        <path id="DejaVuSans-70" d="M 1159 525 
L 1159 -1331 
L 581 -1331 
L 581 3500 
L 1159 3500 
L 1159 2969 
Q 1341 3281 1617 3432 
Q 1894 3584 2278 3584 
Q 2916 3584 3314 3078 
Q 3713 2572 3713 1747 
Q 3713 922 3314 415 
Q 2916 -91 2278 -91 
Q 1894 -91 1617 61 
Q 1341 213 1159 525 
z
M 3116 1747 
Q 3116 2381 2855 2742 
Q 2594 3103 2138 3103 
Q 1681 3103 1420 2742 
Q 1159 2381 1159 1747 
Q 1159 1113 1420 752 
Q 1681 391 2138 391 
Q 2594 391 2855 752 
Q 3116 1113 3116 1747 
z
" transform="scale(0.015625)"/>
        <path id="DejaVuSans-5f" d="M 3263 -1063 
L 3263 -1509 
L -63 -1509 
L -63 -1063 
L 3263 -1063 
z
" transform="scale(0.015625)"/>
       </defs>
       <use xlink:href="#DejaVuSans-70"/>
       <use xlink:href="#DejaVuSans-33" x="63.476562"/>
       <use xlink:href="#DejaVuSans-38" x="127.099609"/>
       <use xlink:href="#DejaVuSans-34" x="190.722656"/>
       <use xlink:href="#DejaVuSans-5f" x="254.345703"/>
       <use xlink:href="#DejaVuSans-68" x="304.345703"/>
       <use xlink:href="#DejaVuSans-71" x="367.724609"/>
       <use xlink:href="#DejaVuSans-63" x="431.201172"/>
       <use xlink:href="#DejaVuSans-31" x="486.181641"/>
       <use xlink:href="#DejaVuSans-39" x="549.804688"/>
       <use xlink:href="#DejaVuSans-32" x="613.427734"/>
      </g>
     </g>
    </g>
    <g id="xtick_5">
     <g id="text_5">
      <!-- x448_hqc192 -->
      <g style="fill: #262626" transform="translate(693.05289 416.439909) rotate(-15) scale(0.12 -0.12)">
       <use xlink:href="#DejaVuSans-78"/>
       <use xlink:href="#DejaVuSans-34" x="59.179688"/>
       <use xlink:href="#DejaVuSans-34" x="122.802734"/>
       <use xlink:href="#DejaVuSans-38" x="186.425781"/>
       <use xlink:href="#DejaVuSans-5f" x="250.048828"/>
       <use xlink:href="#DejaVuSans-68" x="300.048828"/>
       <use xlink:href="#DejaVuSans-71" x="363.427734"/>
       <use xlink:href="#DejaVuSans-63" x="426.904297"/>
       <use xlink:href="#DejaVuSans-31" x="481.884766"/>
       <use xlink:href="#DejaVuSans-39" x="545.507812"/>
       <use xlink:href="#DejaVuSans-32" x="609.130859"/>
      </g>
     </g>
    </g>
   </g>
   <g id="matplotlib.axis_2">
    <g id="ytick_1">
     <g id="line2d_1">
      <path d="M 58.32 356.358344 
L 851.04 356.358344 
" clip-path="url(#p8e62b20e7b)" style="fill: none; stroke: #cccccc; stroke-linecap: round"/>
     </g>
     <g id="text_6">
      <!-- 400 -->
      <g style="fill: #262626" transform="translate(27.82375 360.537485) scale(0.11 -0.11)">
       <defs>
        <path id="DejaVuSans-30" d="M 2034 4250 
Q 1547 4250 1301 3770 
Q 1056 3291 1056 2328 
Q 1056 1369 1301 889 
Q 1547 409 2034 409 
Q 2525 409 2770 889 
Q 3016 1369 3016 2328 
Q 3016 3291 2770 3770 
Q 2525 4250 2034 4250 
z
M 2034 4750 
Q 2819 4750 3233 4129 
Q 3647 3509 3647 2328 
Q 3647 1150 3233 529 
Q 2819 -91 2034 -91 
Q 1250 -91 836 529 
Q 422 1150 422 2328 
Q 422 3509 836 4129 
Q 1250 4750 2034 4750 
z
" transform="scale(0.015625)"/>
       </defs>
       <use xlink:href="#DejaVuSans-34"/>
       <use xlink:href="#DejaVuSans-30" x="63.623047"/>
       <use xlink:href="#DejaVuSans-30" x="127.246094"/>
      </g>
     </g>
    </g>
    <g id="ytick_2">
     <g id="line2d_2">
      <path d="M 58.32 289.867823 
L 851.04 289.867823 
" clip-path="url(#p8e62b20e7b)" style="fill: none; stroke: #cccccc; stroke-linecap: round"/>
     </g>
     <g id="text_7">
      <!-- 500 -->
      <g style="fill: #262626" transform="translate(27.82375 294.046964) scale(0.11 -0.11)">
       <defs>
        <path id="DejaVuSans-35" d="M 691 4666 
L 3169 4666 
L 3169 4134 
L 1269 4134 
L 1269 2991 
Q 1406 3038 1543 3061 
Q 1681 3084 1819 3084 
Q 2600 3084 3056 2656 
Q 3513 2228 3513 1497 
Q 3513 744 3044 326 
Q 2575 -91 1722 -91 
Q 1428 -91 1123 -41 
Q 819 9 494 109 
L 494 744 
Q 775 591 1075 516 
Q 1375 441 1709 441 
Q 2250 441 2565 725 
Q 2881 1009 2881 1497 
Q 2881 1984 2565 2268 
Q 2250 2553 1709 2553 
Q 1456 2553 1204 2497 
Q 953 2441 691 2322 
L 691 4666 
z
" transform="scale(0.015625)"/>
       </defs>
       <use xlink:href="#DejaVuSans-35"/>
       <use xlink:href="#DejaVuSans-30" x="63.623047"/>
       <use xlink:href="#DejaVuSans-30" x="127.246094"/>
      </g>
     </g>
    </g>
    <g id="ytick_3">
     <g id="line2d_3">
      <path d="M 58.32 223.377301 
L 851.04 223.377301 
" clip-path="url(#p8e62b20e7b)" style="fill: none; stroke: #cccccc; stroke-linecap: round"/>
     </g>
     <g id="text_8">
      <!-- 600 -->
      <g style="fill: #262626" transform="translate(27.82375 227.556442) scale(0.11 -0.11)">
       <defs>
        <path id="DejaVuSans-36" d="M 2113 2584 
Q 1688 2584 1439 2293 
Q 1191 2003 1191 1497 
Q 1191 994 1439 701 
Q 1688 409 2113 409 
Q 2538 409 2786 701 
Q 3034 994 3034 1497 
Q 3034 2003 2786 2293 
Q 2538 2584 2113 2584 
z
M 3366 4563 
L 3366 3988 
Q 3128 4100 2886 4159 
Q 2644 4219 2406 4219 
Q 1781 4219 1451 3797 
Q 1122 3375 1075 2522 
Q 1259 2794 1537 2939 
Q 1816 3084 2150 3084 
Q 2853 3084 3261 2657 
Q 3669 2231 3669 1497 
Q 3669 778 3244 343 
Q 2819 -91 2113 -91 
Q 1303 -91 875 529 
Q 447 1150 447 2328 
Q 447 3434 972 4092 
Q 1497 4750 2381 4750 
Q 2619 4750 2861 4703 
Q 3103 4656 3366 4563 
z
" transform="scale(0.015625)"/>
       </defs>
       <use xlink:href="#DejaVuSans-36"/>
       <use xlink:href="#DejaVuSans-30" x="63.623047"/>
       <use xlink:href="#DejaVuSans-30" x="127.246094"/>
      </g>
     </g>
    </g>
    <g id="ytick_4">
     <g id="line2d_4">
      <path d="M 58.32 156.88678 
L 851.04 156.88678 
" clip-path="url(#p8e62b20e7b)" style="fill: none; stroke: #cccccc; stroke-linecap: round"/>
     </g>
     <g id="text_9">
      <!-- 700 -->
      <g style="fill: #262626" transform="translate(27.82375 161.065921) scale(0.11 -0.11)">
       <defs>
        <path id="DejaVuSans-37" d="M 525 4666 
L 3525 4666 
L 3525 4397 
L 1831 0 
L 1172 0 
L 2766 4134 
L 525 4134 
L 525 4666 
z
" transform="scale(0.015625)"/>
       </defs>
       <use xlink:href="#DejaVuSans-37"/>
       <use xlink:href="#DejaVuSans-30" x="63.623047"/>
       <use xlink:href="#DejaVuSans-30" x="127.246094"/>
      </g>
     </g>
    </g>
    <g id="ytick_5">
     <g id="line2d_5">
      <path d="M 58.32 90.396258 
L 851.04 90.396258 
" clip-path="url(#p8e62b20e7b)" style="fill: none; stroke: #cccccc; stroke-linecap: round"/>
     </g>
     <g id="text_10">
      <!-- 800 -->
      <g style="fill: #262626" transform="translate(27.82375 94.575399) scale(0.11 -0.11)">
       <use xlink:href="#DejaVuSans-38"/>
       <use xlink:href="#DejaVuSans-30" x="63.623047"/>
       <use xlink:href="#DejaVuSans-30" x="127.246094"/>
      </g>
     </g>
    </g>
    <g id="text_11">
     <!-- Handshake duration (ms) -->
     <g style="fill: #262626" transform="translate(21.328125 278.486335) rotate(-90) scale(0.12 -0.12)">
      <defs>
       <path id="DejaVuSans-48" d="M 628 4666 
L 1259 4666 
L 1259 2753 
L 3553 2753 
L 3553 4666 
L 4184 4666 
L 4184 0 
L 3553 0 
L 3553 2222 
L 1259 2222 
L 1259 0 
L 628 0 
L 628 4666 
z
" transform="scale(0.015625)"/>
       <path id="DejaVuSans-61" d="M 2194 1759 
Q 1497 1759 1228 1600 
Q 959 1441 959 1056 
Q 959 750 1161 570 
Q 1363 391 1709 391 
Q 2188 391 2477 730 
Q 2766 1069 2766 1631 
L 2766 1759 
L 2194 1759 
z
M 3341 1997 
L 3341 0 
L 2766 0 
L 2766 531 
Q 2569 213 2275 61 
Q 1981 -91 1556 -91 
Q 1019 -91 701 211 
Q 384 513 384 1019 
Q 384 1609 779 1909 
Q 1175 2209 1959 2209 
L 2766 2209 
L 2766 2266 
Q 2766 2663 2505 2880 
Q 2244 3097 1772 3097 
Q 1472 3097 1187 3025 
Q 903 2953 641 2809 
L 641 3341 
Q 956 3463 1253 3523 
Q 1550 3584 1831 3584 
Q 2591 3584 2966 3190 
Q 3341 2797 3341 1997 
z
" transform="scale(0.015625)"/>
       <path id="DejaVuSans-6e" d="M 3513 2113 
L 3513 0 
L 2938 0 
L 2938 2094 
Q 2938 2591 2744 2837 
Q 2550 3084 2163 3084 
Q 1697 3084 1428 2787 
Q 1159 2491 1159 1978 
L 1159 0 
L 581 0 
L 581 3500 
L 1159 3500 
L 1159 2956 
Q 1366 3272 1645 3428 
Q 1925 3584 2291 3584 
Q 2894 3584 3203 3211 
Q 3513 2838 3513 2113 
z
" transform="scale(0.015625)"/>
       <path id="DejaVuSans-64" d="M 2906 2969 
L 2906 4863 
L 3481 4863 
L 3481 0 
L 2906 0 
L 2906 525 
Q 2725 213 2448 61 
Q 2172 -91 1784 -91 
Q 1150 -91 751 415 
Q 353 922 353 1747 
Q 353 2572 751 3078 
Q 1150 3584 1784 3584 
Q 2172 3584 2448 3432 
Q 2725 3281 2906 2969 
z
M 947 1747 
Q 947 1113 1208 752 
Q 1469 391 1925 391 
Q 2381 391 2643 752 
Q 2906 1113 2906 1747 
Q 2906 2381 2643 2742 
Q 2381 3103 1925 3103 
Q 1469 3103 1208 2742 
Q 947 2381 947 1747 
z
" transform="scale(0.015625)"/>
       <path id="DejaVuSans-73" d="M 2834 3397 
L 2834 2853 
Q 2591 2978 2328 3040 
Q 2066 3103 1784 3103 
Q 1356 3103 1142 2972 
Q 928 2841 928 2578 
Q 928 2378 1081 2264 
Q 1234 2150 1697 2047 
L 1894 2003 
Q 2506 1872 2764 1633 
Q 3022 1394 3022 966 
Q 3022 478 2636 193 
Q 2250 -91 1575 -91 
Q 1294 -91 989 -36 
Q 684 19 347 128 
L 347 722 
Q 666 556 975 473 
Q 1284 391 1588 391 
Q 1994 391 2212 530 
Q 2431 669 2431 922 
Q 2431 1156 2273 1281 
Q 2116 1406 1581 1522 
L 1381 1569 
Q 847 1681 609 1914 
Q 372 2147 372 2553 
Q 372 3047 722 3315 
Q 1072 3584 1716 3584 
Q 2034 3584 2315 3537 
Q 2597 3491 2834 3397 
z
" transform="scale(0.015625)"/>
       <path id="DejaVuSans-6b" d="M 581 4863 
L 1159 4863 
L 1159 1991 
L 2875 3500 
L 3609 3500 
L 1753 1863 
L 3688 0 
L 2938 0 
L 1159 1709 
L 1159 0 
L 581 0 
L 581 4863 
z
" transform="scale(0.015625)"/>
       <path id="DejaVuSans-65" d="M 3597 1894 
L 3597 1613 
L 953 1613 
Q 991 1019 1311 708 
Q 1631 397 2203 397 
Q 2534 397 2845 478 
Q 3156 559 3463 722 
L 3463 178 
Q 3153 47 2828 -22 
Q 2503 -91 2169 -91 
Q 1331 -91 842 396 
Q 353 884 353 1716 
Q 353 2575 817 3079 
Q 1281 3584 2069 3584 
Q 2775 3584 3186 3129 
Q 3597 2675 3597 1894 
z
M 3022 2063 
Q 3016 2534 2758 2815 
Q 2500 3097 2075 3097 
Q 1594 3097 1305 2825 
Q 1016 2553 972 2059 
L 3022 2063 
z
" transform="scale(0.015625)"/>
       <path id="DejaVuSans-20" transform="scale(0.015625)"/>
       <path id="DejaVuSans-75" d="M 544 1381 
L 544 3500 
L 1119 3500 
L 1119 1403 
Q 1119 906 1312 657 
Q 1506 409 1894 409 
Q 2359 409 2629 706 
Q 2900 1003 2900 1516 
L 2900 3500 
L 3475 3500 
L 3475 0 
L 2900 0 
L 2900 538 
Q 2691 219 2414 64 
Q 2138 -91 1772 -91 
Q 1169 -91 856 284 
Q 544 659 544 1381 
z
M 1991 3584 
L 1991 3584 
z
" transform="scale(0.015625)"/>
       <path id="DejaVuSans-72" d="M 2631 2963 
Q 2534 3019 2420 3045 
Q 2306 3072 2169 3072 
Q 1681 3072 1420 2755 
Q 1159 2438 1159 1844 
L 1159 0 
L 581 0 
L 581 3500 
L 1159 3500 
L 1159 2956 
Q 1341 3275 1631 3429 
Q 1922 3584 2338 3584 
Q 2397 3584 2469 3576 
Q 2541 3569 2628 3553 
L 2631 2963 
z
" transform="scale(0.015625)"/>
       <path id="DejaVuSans-74" d="M 1172 4494 
L 1172 3500 
L 2356 3500 
L 2356 3053 
L 1172 3053 
L 1172 1153 
Q 1172 725 1289 603 
Q 1406 481 1766 481 
L 2356 481 
L 2356 0 
L 1766 0 
Q 1100 0 847 248 
Q 594 497 594 1153 
L 594 3053 
L 172 3053 
L 172 3500 
L 594 3500 
L 594 4494 
L 1172 4494 
z
" transform="scale(0.015625)"/>
       <path id="DejaVuSans-69" d="M 603 3500 
L 1178 3500 
L 1178 0 
L 603 0 
L 603 3500 
z
M 603 4863 
L 1178 4863 
L 1178 4134 
L 603 4134 
L 603 4863 
z
" transform="scale(0.015625)"/>
       <path id="DejaVuSans-6f" d="M 1959 3097 
Q 1497 3097 1228 2736 
Q 959 2375 959 1747 
Q 959 1119 1226 758 
Q 1494 397 1959 397 
Q 2419 397 2687 759 
Q 2956 1122 2956 1747 
Q 2956 2369 2687 2733 
Q 2419 3097 1959 3097 
z
M 1959 3584 
Q 2709 3584 3137 3096 
Q 3566 2609 3566 1747 
Q 3566 888 3137 398 
Q 2709 -91 1959 -91 
Q 1206 -91 779 398 
Q 353 888 353 1747 
Q 353 2609 779 3096 
Q 1206 3584 1959 3584 
z
" transform="scale(0.015625)"/>
       <path id="DejaVuSans-28" d="M 1984 4856 
Q 1566 4138 1362 3434 
Q 1159 2731 1159 2009 
Q 1159 1288 1364 580 
Q 1569 -128 1984 -844 
L 1484 -844 
Q 1016 -109 783 600 
Q 550 1309 550 2009 
Q 550 2706 781 3412 
Q 1013 4119 1484 4856 
L 1984 4856 
z
" transform="scale(0.015625)"/>
       <path id="DejaVuSans-6d" d="M 3328 2828 
Q 3544 3216 3844 3400 
Q 4144 3584 4550 3584 
Q 5097 3584 5394 3201 
Q 5691 2819 5691 2113 
L 5691 0 
L 5113 0 
L 5113 2094 
Q 5113 2597 4934 2840 
Q 4756 3084 4391 3084 
Q 3944 3084 3684 2787 
Q 3425 2491 3425 1978 
L 3425 0 
L 2847 0 
L 2847 2094 
Q 2847 2600 2669 2842 
Q 2491 3084 2119 3084 
Q 1678 3084 1418 2786 
Q 1159 2488 1159 1978 
L 1159 0 
L 581 0 
L 581 3500 
L 1159 3500 
L 1159 2956 
Q 1356 3278 1631 3431 
Q 1906 3584 2284 3584 
Q 2666 3584 2933 3390 
Q 3200 3197 3328 2828 
z
" transform="scale(0.015625)"/>
       <path id="DejaVuSans-29" d="M 513 4856 
L 1013 4856 
Q 1481 4119 1714 3412 
Q 1947 2706 1947 2009 
Q 1947 1309 1714 600 
Q 1481 -109 1013 -844 
L 513 -844 
Q 928 -128 1133 580 
Q 1338 1288 1338 2009 
Q 1338 2731 1133 3434 
Q 928 4138 513 4856 
z
" transform="scale(0.015625)"/>
      </defs>
      <use xlink:href="#DejaVuSans-48"/>
      <use xlink:href="#DejaVuSans-61" x="75.195312"/>
      <use xlink:href="#DejaVuSans-6e" x="136.474609"/>
      <use xlink:href="#DejaVuSans-64" x="199.853516"/>
      <use xlink:href="#DejaVuSans-73" x="263.330078"/>
      <use xlink:href="#DejaVuSans-68" x="315.429688"/>
      <use xlink:href="#DejaVuSans-61" x="378.808594"/>
      <use xlink:href="#DejaVuSans-6b" x="440.087891"/>
      <use xlink:href="#DejaVuSans-65" x="494.373047"/>
      <use xlink:href="#DejaVuSans-20" x="555.896484"/>
      <use xlink:href="#DejaVuSans-64" x="587.683594"/>
      <use xlink:href="#DejaVuSans-75" x="651.160156"/>
      <use xlink:href="#DejaVuSans-72" x="714.539062"/>
      <use xlink:href="#DejaVuSans-61" x="755.652344"/>
      <use xlink:href="#DejaVuSans-74" x="816.931641"/>
      <use xlink:href="#DejaVuSans-69" x="856.140625"/>
      <use xlink:href="#DejaVuSans-6f" x="883.923828"/>
      <use xlink:href="#DejaVuSans-6e" x="945.105469"/>
      <use xlink:href="#DejaVuSans-20" x="1008.484375"/>
      <use xlink:href="#DejaVuSans-28" x="1040.271484"/>
      <use xlink:href="#DejaVuSans-6d" x="1079.285156"/>
      <use xlink:href="#DejaVuSans-73" x="1176.697266"/>
      <use xlink:href="#DejaVuSans-29" x="1228.796875"/>
     </g>
    </g>
   </g>
   <g id="PolyCollection_1">
    <defs>
     <path id="me30e315202" d="M 139.543164 -78.714675 
L 135.640836 -78.714675 
L 134.199035 -78.753471 
L 131.971055 -78.792268 
L 128.719425 -78.831064 
L 124.24539 -78.86986 
L 118.456074 -78.908657 
L 111.436153 -78.947453 
L 103.502396 -78.986249 
L 95.216561 -79.025046 
L 87.338515 -79.063842 
L 80.717447 -79.102638 
L 76.140259 -79.141435 
L 74.1744 -79.180231 
L 75.049125 -79.219027 
L 78.610141 -79.257824 
L 84.360271 -79.29662 
L 91.571967 -79.335416 
L 99.436715 -79.374213 
L 107.209342 -79.413009 
L 114.312977 -79.451806 
L 120.387884 -79.490602 
L 125.286483 -79.529398 
L 129.030527 -79.568195 
L 131.751487 -79.606991 
L 133.632563 -79.645787 
L 134.863885 -79.684584 
L 135.614998 -79.72338 
L 136.023139 -79.762176 
L 136.192891 -79.800973 
L 136.202089 -79.839769 
L 136.109562 -79.878565 
L 135.961662 -79.917362 
L 135.796002 -79.956158 
L 135.642225 -79.994954 
L 135.520664 -80.033751 
L 135.440308 -80.072547 
L 135.397516 -80.111343 
L 135.376465 -80.15014 
L 135.351702 -80.188936 
L 135.29256 -80.227732 
L 135.168854 -80.266529 
L 134.957116 -80.305325 
L 134.646511 -80.344121 
L 134.243461 -80.382918 
L 133.773855 -80.421714 
L 133.28176 -80.46051 
L 132.824074 -80.499307 
L 132.461501 -80.538103 
L 132.247484 -80.576899 
L 132.21768 -80.615696 
L 132.382782 -80.654492 
L 132.726669 -80.693288 
L 133.210315 -80.732085 
L 133.780097 -80.770881 
L 134.377936 -80.809677 
L 134.950451 -80.848474 
L 135.455065 -80.88727 
L 135.862383 -80.926066 
L 136.155504 -80.964863 
L 136.327814 -81.003659 
L 136.380863 -81.042455 
L 136.323394 -81.081252 
L 136.171611 -81.120048 
L 135.949898 -81.158844 
L 135.69072 -81.197641 
L 135.43258 -81.236437 
L 135.215636 -81.275233 
L 135.075611 -81.31403 
L 135.037514 -81.352826 
L 135.111042 -81.391622 
L 135.289127 -81.430419 
L 135.550129 -81.469215 
L 135.863004 -81.508011 
L 136.193904 -81.546808 
L 136.512371 -81.585604 
L 136.795698 -81.6244 
L 137.030759 -81.663197 
L 137.213488 -81.701993 
L 137.346734 -81.740789 
L 137.437481 -81.779586 
L 137.494237 -81.818382 
L 137.525139 -81.857178 
L 137.536946 -81.895975 
L 137.534816 -81.934771 
L 137.522631 -81.973567 
L 137.503576 -82.012364 
L 137.480675 -82.05116 
L 137.457101 -82.089956 
L 137.436147 -82.128753 
L 137.420887 -82.167549 
L 137.413674 -82.206345 
L 137.415663 -82.245142 
L 137.426573 -82.283938 
L 137.444773 -82.322735 
L 137.467699 -82.361531 
L 137.492443 -82.400327 
L 137.516356 -82.439124 
L 137.537477 -82.47792 
L 137.554719 -82.516716 
L 137.567817 -82.555513 
L 137.616183 -82.555513 
L 137.616183 -82.555513 
L 137.629281 -82.516716 
L 137.646523 -82.47792 
L 137.667644 -82.439124 
L 137.691557 -82.400327 
L 137.716301 -82.361531 
L 137.739227 -82.322735 
L 137.757427 -82.283938 
L 137.768337 -82.245142 
L 137.770326 -82.206345 
L 137.763113 -82.167549 
L 137.747853 -82.128753 
L 137.726899 -82.089956 
L 137.703325 -82.05116 
L 137.680424 -82.012364 
L 137.661369 -81.973567 
L 137.649184 -81.934771 
L 137.647054 -81.895975 
L 137.658861 -81.857178 
L 137.689763 -81.818382 
L 137.746519 -81.779586 
L 137.837266 -81.740789 
L 137.970512 -81.701993 
L 138.153241 -81.663197 
L 138.388302 -81.6244 
L 138.671629 -81.585604 
L 138.990096 -81.546808 
L 139.320996 -81.508011 
L 139.633871 -81.469215 
L 139.894873 -81.430419 
L 140.072958 -81.391622 
L 140.146486 -81.352826 
L 140.108389 -81.31403 
L 139.968364 -81.275233 
L 139.75142 -81.236437 
L 139.49328 -81.197641 
L 139.234102 -81.158844 
L 139.012389 -81.120048 
L 138.860606 -81.081252 
L 138.803137 -81.042455 
L 138.856186 -81.003659 
L 139.028496 -80.964863 
L 139.321617 -80.926066 
L 139.728935 -80.88727 
L 140.233549 -80.848474 
L 140.806064 -80.809677 
L 141.403903 -80.770881 
L 141.973685 -80.732085 
L 142.457331 -80.693288 
L 142.801218 -80.654492 
L 142.96632 -80.615696 
L 142.936516 -80.576899 
L 142.722499 -80.538103 
L 142.359926 -80.499307 
L 141.90224 -80.46051 
L 141.410145 -80.421714 
L 140.940539 -80.382918 
L 140.537489 -80.344121 
L 140.226884 -80.305325 
L 140.015146 -80.266529 
L 139.89144 -80.227732 
L 139.832298 -80.188936 
L 139.807535 -80.15014 
L 139.786484 -80.111343 
L 139.743692 -80.072547 
L 139.663336 -80.033751 
L 139.541775 -79.994954 
L 139.387998 -79.956158 
L 139.222338 -79.917362 
L 139.074438 -79.878565 
L 138.981911 -79.839769 
L 138.991109 -79.800973 
L 139.160861 -79.762176 
L 139.569002 -79.72338 
L 140.320115 -79.684584 
L 141.551437 -79.645787 
L 143.432513 -79.606991 
L 146.153473 -79.568195 
L 149.897517 -79.529398 
L 154.796116 -79.490602 
L 160.871023 -79.451806 
L 167.974658 -79.413009 
L 175.747285 -79.374213 
L 183.612033 -79.335416 
L 190.823729 -79.29662 
L 196.573859 -79.257824 
L 200.134875 -79.219027 
L 201.0096 -79.180231 
L 199.043741 -79.141435 
L 194.466553 -79.102638 
L 187.845485 -79.063842 
L 179.967439 -79.025046 
L 171.681604 -78.986249 
L 163.747847 -78.947453 
L 156.727926 -78.908657 
L 150.93861 -78.86986 
L 146.464575 -78.831064 
L 143.212945 -78.792268 
L 140.984965 -78.753471 
L 139.543164 -78.714675 
z
" style="stroke: #595959; stroke-width: 1.25"/>
    </defs>
    <g clip-path="url(#p8e62b20e7b)">
     <use xlink:href="#me30e315202" x="0" y="432" style="fill: #72b6a1; stroke: #595959; stroke-width: 1.25"/>
    </g>
   </g>
   <g id="PolyCollection_2">
    <defs>
     <path id="m2e7d8cb003" d="M 303.737104 -70.655549 
L 288.534896 -70.655549 
L 268.883409 -73.49871 
L 240.882265 -76.341871 
L 232.7184 -79.185033 
L 254.875165 -82.028194 
L 280.89274 -84.871355 
L 292.931576 -87.714516 
L 295.751654 -90.557677 
L 296.109607 -93.400839 
L 296.134958 -96.244 
L 296.135976 -99.087161 
L 296.136 -101.930322 
L 296.136 -104.773483 
L 296.136 -107.616645 
L 296.136 -110.459806 
L 296.136 -113.302967 
L 296.136 -116.146128 
L 296.136 -118.989289 
L 296.136 -121.832451 
L 296.136 -124.675612 
L 296.136 -127.518773 
L 296.136 -130.361934 
L 296.136 -133.205096 
L 296.136 -136.048257 
L 296.136 -138.891418 
L 296.136 -141.734579 
L 296.136 -144.57774 
L 296.136 -147.420902 
L 296.136 -150.264063 
L 296.136 -153.107224 
L 296.136 -155.950385 
L 296.136 -158.793546 
L 296.136 -161.636708 
L 296.136 -164.479869 
L 296.136 -167.32303 
L 296.136 -170.166191 
L 296.136 -173.009352 
L 296.136 -175.852514 
L 296.136 -178.695675 
L 296.136 -181.538836 
L 296.136 -184.381997 
L 296.136 -187.225159 
L 296.136 -190.06832 
L 296.136 -192.911481 
L 296.136 -195.754642 
L 296.136 -198.597803 
L 296.136 -201.440965 
L 296.136 -204.284126 
L 296.136 -207.127287 
L 296.136 -209.970448 
L 296.136 -212.813609 
L 296.136 -215.656771 
L 296.136 -218.499932 
L 296.136 -221.343093 
L 296.136 -224.186254 
L 296.136 -227.029415 
L 296.136 -229.872577 
L 296.136 -232.715738 
L 296.136 -235.558899 
L 296.136 -238.40206 
L 296.136 -241.245222 
L 296.136 -244.088383 
L 296.136 -246.931544 
L 296.136 -249.774705 
L 296.136 -252.617866 
L 296.136 -255.461028 
L 296.136 -258.304189 
L 296.136 -261.14735 
L 296.136 -263.990511 
L 296.136 -266.833672 
L 296.136 -269.676834 
L 296.136 -272.519995 
L 296.136 -275.363156 
L 296.136 -278.206317 
L 296.136 -281.049478 
L 296.136 -283.89264 
L 296.136 -286.735801 
L 296.136 -289.578962 
L 296.136 -292.422123 
L 296.136 -295.265285 
L 296.136 -298.108446 
L 296.136 -300.951607 
L 296.136 -303.794768 
L 296.136 -306.637929 
L 296.136 -309.481091 
L 296.136 -312.324252 
L 296.136 -315.167413 
L 296.136 -318.010574 
L 296.136 -320.853735 
L 296.136 -323.696897 
L 296.135999 -326.540058 
L 296.135963 -329.383219 
L 296.135396 -332.22638 
L 296.130433 -335.069541 
L 296.10714 -337.912703 
L 296.051806 -340.755864 
L 295.997778 -343.599025 
L 296.0083 -346.442186 
L 296.069607 -349.285348 
L 296.116574 -352.128509 
L 296.155426 -352.128509 
L 296.155426 -352.128509 
L 296.202393 -349.285348 
L 296.2637 -346.442186 
L 296.274222 -343.599025 
L 296.220194 -340.755864 
L 296.16486 -337.912703 
L 296.141567 -335.069541 
L 296.136604 -332.22638 
L 296.136037 -329.383219 
L 296.136001 -326.540058 
L 296.136 -323.696897 
L 296.136 -320.853735 
L 296.136 -318.010574 
L 296.136 -315.167413 
L 296.136 -312.324252 
L 296.136 -309.481091 
L 296.136 -306.637929 
L 296.136 -303.794768 
L 296.136 -300.951607 
L 296.136 -298.108446 
L 296.136 -295.265285 
L 296.136 -292.422123 
L 296.136 -289.578962 
L 296.136 -286.735801 
L 296.136 -283.89264 
L 296.136 -281.049478 
L 296.136 -278.206317 
L 296.136 -275.363156 
L 296.136 -272.519995 
L 296.136 -269.676834 
L 296.136 -266.833672 
L 296.136 -263.990511 
L 296.136 -261.14735 
L 296.136 -258.304189 
L 296.136 -255.461028 
L 296.136 -252.617866 
L 296.136 -249.774705 
L 296.136 -246.931544 
L 296.136 -244.088383 
L 296.136 -241.245222 
L 296.136 -238.40206 
L 296.136 -235.558899 
L 296.136 -232.715738 
L 296.136 -229.872577 
L 296.136 -227.029415 
L 296.136 -224.186254 
L 296.136 -221.343093 
L 296.136 -218.499932 
L 296.136 -215.656771 
L 296.136 -212.813609 
L 296.136 -209.970448 
L 296.136 -207.127287 
L 296.136 -204.284126 
L 296.136 -201.440965 
L 296.136 -198.597803 
L 296.136 -195.754642 
L 296.136 -192.911481 
L 296.136 -190.06832 
L 296.136 -187.225159 
L 296.136 -184.381997 
L 296.136 -181.538836 
L 296.136 -178.695675 
L 296.136 -175.852514 
L 296.136 -173.009352 
L 296.136 -170.166191 
L 296.136 -167.32303 
L 296.136 -164.479869 
L 296.136 -161.636708 
L 296.136 -158.793546 
L 296.136 -155.950385 
L 296.136 -153.107224 
L 296.136 -150.264063 
L 296.136 -147.420902 
L 296.136 -144.57774 
L 296.136 -141.734579 
L 296.136 -138.891418 
L 296.136 -136.048257 
L 296.136 -133.205096 
L 296.136 -130.361934 
L 296.136 -127.518773 
L 296.136 -124.675612 
L 296.136 -121.832451 
L 296.136 -118.989289 
L 296.136 -116.146128 
L 296.136 -113.302967 
L 296.136 -110.459806 
L 296.136 -107.616645 
L 296.136 -104.773483 
L 296.136 -101.930322 
L 296.136024 -99.087161 
L 296.137042 -96.244 
L 296.162393 -93.400839 
L 296.520346 -90.557677 
L 299.340424 -87.714516 
L 311.37926 -84.871355 
L 337.396835 -82.028194 
L 359.5536 -79.185033 
L 351.389735 -76.341871 
L 323.388591 -73.49871 
L 303.737104 -70.655549 
z
" style="stroke: #595959; stroke-width: 1.25"/>
    </defs>
    <g clip-path="url(#p8e62b20e7b)">
     <use xlink:href="#m2e7d8cb003" x="0" y="432" style="fill: #e99675; stroke: #595959; stroke-width: 1.25"/>
    </g>
   </g>
   <g id="PolyCollection_3">
    <defs>
     <path id="m1f36e24339" d="M 461.809408 -97.61176 
L 447.550592 -97.61176 
L 430.233781 -100.465178 
L 404.253684 -103.318595 
L 391.2624 -106.172013 
L 403.728249 -109.025431 
L 424.165183 -111.878849 
L 436.367411 -114.732266 
L 442.768935 -117.585684 
L 447.752386 -120.439102 
L 451.136758 -123.29252 
L 452.959068 -126.145937 
L 453.967212 -128.999355 
L 454.469897 -131.852773 
L 454.640044 -134.706191 
L 454.675275 -137.559608 
L 454.679657 -140.413026 
L 454.679985 -143.266444 
L 454.68 -146.119862 
L 454.68 -148.973279 
L 454.68 -151.826697 
L 454.68 -154.680115 
L 454.68 -157.533533 
L 454.68 -160.38695 
L 454.68 -163.240368 
L 454.68 -166.093786 
L 454.68 -168.947204 
L 454.68 -171.800621 
L 454.68 -174.654039 
L 454.68 -177.507457 
L 454.68 -180.360875 
L 454.68 -183.214292 
L 454.68 -186.06771 
L 454.68 -188.921128 
L 454.68 -191.774546 
L 454.68 -194.627964 
L 454.68 -197.481381 
L 454.68 -200.334799 
L 454.68 -203.188217 
L 454.68 -206.041635 
L 454.68 -208.895052 
L 454.68 -211.74847 
L 454.68 -214.601888 
L 454.68 -217.455306 
L 454.68 -220.308723 
L 454.68 -223.162141 
L 454.68 -226.015559 
L 454.68 -228.868977 
L 454.68 -231.722394 
L 454.68 -234.575812 
L 454.68 -237.42923 
L 454.68 -240.282648 
L 454.68 -243.136065 
L 454.68 -245.989483 
L 454.68 -248.842901 
L 454.68 -251.696319 
L 454.68 -254.549736 
L 454.68 -257.403154 
L 454.68 -260.256572 
L 454.68 -263.10999 
L 454.68 -265.963407 
L 454.68 -268.816825 
L 454.68 -271.670243 
L 454.68 -274.523661 
L 454.68 -277.377078 
L 454.68 -280.230496 
L 454.68 -283.083914 
L 454.68 -285.937332 
L 454.68 -288.790749 
L 454.68 -291.644167 
L 454.68 -294.497585 
L 454.68 -297.351003 
L 454.68 -300.20442 
L 454.68 -303.057838 
L 454.68 -305.911256 
L 454.68 -308.764674 
L 454.68 -311.618091 
L 454.68 -314.471509 
L 454.68 -317.324927 
L 454.68 -320.178345 
L 454.68 -323.031762 
L 454.68 -325.88518 
L 454.68 -328.738598 
L 454.68 -331.592016 
L 454.68 -334.445433 
L 454.68 -337.298851 
L 454.68 -340.152269 
L 454.68 -343.005687 
L 454.68 -345.859104 
L 454.68 -348.712522 
L 454.68 -351.56594 
L 454.679992 -354.419358 
L 454.679849 -357.272775 
L 454.678256 -360.126193 
L 454.668023 -362.979611 
L 454.631005 -365.833029 
L 454.560575 -368.686446 
L 454.506559 -371.539864 
L 454.529918 -374.393282 
L 454.602621 -377.2467 
L 454.65623 -380.100117 
L 454.70377 -380.100117 
L 454.70377 -380.100117 
L 454.757379 -377.2467 
L 454.830082 -374.393282 
L 454.853441 -371.539864 
L 454.799425 -368.686446 
L 454.728995 -365.833029 
L 454.691977 -362.979611 
L 454.681744 -360.126193 
L 454.680151 -357.272775 
L 454.680008 -354.419358 
L 454.68 -351.56594 
L 454.68 -348.712522 
L 454.68 -345.859104 
L 454.68 -343.005687 
L 454.68 -340.152269 
L 454.68 -337.298851 
L 454.68 -334.445433 
L 454.68 -331.592016 
L 454.68 -328.738598 
L 454.68 -325.88518 
L 454.68 -323.031762 
L 454.68 -320.178345 
L 454.68 -317.324927 
L 454.68 -314.471509 
L 454.68 -311.618091 
L 454.68 -308.764674 
L 454.68 -305.911256 
L 454.68 -303.057838 
L 454.68 -300.20442 
L 454.68 -297.351003 
L 454.68 -294.497585 
L 454.68 -291.644167 
L 454.68 -288.790749 
L 454.68 -285.937332 
L 454.68 -283.083914 
L 454.68 -280.230496 
L 454.68 -277.377078 
L 454.68 -274.523661 
L 454.68 -271.670243 
L 454.68 -268.816825 
L 454.68 -265.963407 
L 454.68 -263.10999 
L 454.68 -260.256572 
L 454.68 -257.403154 
L 454.68 -254.549736 
L 454.68 -251.696319 
L 454.68 -248.842901 
L 454.68 -245.989483 
L 454.68 -243.136065 
L 454.68 -240.282648 
L 454.68 -237.42923 
L 454.68 -234.575812 
L 454.68 -231.722394 
L 454.68 -228.868977 
L 454.68 -226.015559 
L 454.68 -223.162141 
L 454.68 -220.308723 
L 454.68 -217.455306 
L 454.68 -214.601888 
L 454.68 -211.74847 
L 454.68 -208.895052 
L 454.68 -206.041635 
L 454.68 -203.188217 
L 454.68 -200.334799 
L 454.68 -197.481381 
L 454.68 -194.627964 
L 454.68 -191.774546 
L 454.68 -188.921128 
L 454.68 -186.06771 
L 454.68 -183.214292 
L 454.68 -180.360875 
L 454.68 -177.507457 
L 454.68 -174.654039 
L 454.68 -171.800621 
L 454.68 -168.947204 
L 454.68 -166.093786 
L 454.68 -163.240368 
L 454.68 -160.38695 
L 454.68 -157.533533 
L 454.68 -154.680115 
L 454.68 -151.826697 
L 454.68 -148.973279 
L 454.68 -146.119862 
L 454.680015 -143.266444 
L 454.680343 -140.413026 
L 454.684725 -137.559608 
L 454.719956 -134.706191 
L 454.890103 -131.852773 
L 455.392788 -128.999355 
L 456.400932 -126.145937 
L 458.223242 -123.29252 
L 461.607614 -120.439102 
L 466.591065 -117.585684 
L 472.992589 -114.732266 
L 485.194817 -111.878849 
L 505.631751 -109.025431 
L 518.0976 -106.172013 
L 505.106316 -103.318595 
L 479.126219 -100.465178 
L 461.809408 -97.61176 
z
" style="stroke: #595959; stroke-width: 1.25"/>
    </defs>
    <g clip-path="url(#p8e62b20e7b)">
     <use xlink:href="#m1f36e24339" x="0" y="432" style="fill: #95a3c3; stroke: #595959; stroke-width: 1.25"/>
    </g>
   </g>
   <g id="PolyCollection_4">
    <defs>
     <path id="m1f17523a5a" d="M 619.680212 -103.433442 
L 606.767788 -103.433442 
L 590.534457 -106.312977 
L 564.775062 -109.192512 
L 549.8064 -112.072047 
L 561.081694 -114.951582 
L 583.847226 -117.831117 
L 598.069158 -120.710652 
L 602.910436 -123.590187 
L 605.657033 -126.469722 
L 608.727681 -129.349257 
L 611.089118 -132.228792 
L 612.382001 -135.108327 
L 612.956865 -137.987862 
L 613.125097 -140.867397 
L 613.105111 -143.746932 
L 613.057117 -146.626467 
L 613.075421 -149.506002 
L 613.144418 -152.385537 
L 613.198435 -155.265072 
L 613.219075 -158.144607 
L 613.223431 -161.024142 
L 613.223961 -163.903677 
L 613.223998 -166.783212 
L 613.224 -169.662747 
L 613.224 -172.542282 
L 613.224 -175.421817 
L 613.224 -178.301352 
L 613.224 -181.180887 
L 613.224 -184.060422 
L 613.224 -186.939957 
L 613.224 -189.819492 
L 613.224 -192.699027 
L 613.224 -195.578562 
L 613.224 -198.458097 
L 613.224 -201.337632 
L 613.224 -204.217167 
L 613.224 -207.096702 
L 613.224 -209.976237 
L 613.224 -212.855772 
L 613.224 -215.735307 
L 613.224 -218.614842 
L 613.224 -221.494377 
L 613.224 -224.373912 
L 613.224 -227.253447 
L 613.224 -230.132982 
L 613.224 -233.012517 
L 613.224 -235.892052 
L 613.224 -238.771587 
L 613.224 -241.651122 
L 613.224 -244.530657 
L 613.224 -247.410192 
L 613.224 -250.289727 
L 613.224 -253.169262 
L 613.224 -256.048797 
L 613.224 -258.928332 
L 613.224 -261.807867 
L 613.224 -264.687402 
L 613.224 -267.566937 
L 613.224 -270.446472 
L 613.224 -273.326007 
L 613.224 -276.205542 
L 613.224 -279.085077 
L 613.224 -281.964612 
L 613.224 -284.844147 
L 613.224 -287.723682 
L 613.224 -290.603217 
L 613.224 -293.482752 
L 613.224 -296.362287 
L 613.224 -299.241822 
L 613.224 -302.121357 
L 613.224 -305.000892 
L 613.224 -307.880427 
L 613.224 -310.759962 
L 613.224 -313.639497 
L 613.224 -316.519032 
L 613.224 -319.398567 
L 613.224 -322.278102 
L 613.224 -325.157637 
L 613.224 -328.037172 
L 613.224 -330.916707 
L 613.224 -333.796242 
L 613.224 -336.675777 
L 613.224 -339.555312 
L 613.224 -342.434847 
L 613.224 -345.314382 
L 613.224 -348.193917 
L 613.224 -351.073452 
L 613.224 -353.952987 
L 613.224 -356.832522 
L 613.224 -359.712057 
L 613.223991 -362.591592 
L 613.223833 -365.471127 
L 613.222148 -368.350662 
L 613.211697 -371.230197 
L 613.174974 -374.109732 
L 613.106856 -376.989267 
L 613.056152 -379.868802 
L 613.079783 -382.748337 
L 613.149695 -385.627872 
L 613.201043 -388.507407 
L 613.246957 -388.507407 
L 613.246957 -388.507407 
L 613.298305 -385.627872 
L 613.368217 -382.748337 
L 613.391848 -379.868802 
L 613.341144 -376.989267 
L 613.273026 -374.109732 
L 613.236303 -371.230197 
L 613.225852 -368.350662 
L 613.224167 -365.471127 
L 613.224009 -362.591592 
L 613.224 -359.712057 
L 613.224 -356.832522 
L 613.224 -353.952987 
L 613.224 -351.073452 
L 613.224 -348.193917 
L 613.224 -345.314382 
L 613.224 -342.434847 
L 613.224 -339.555312 
L 613.224 -336.675777 
L 613.224 -333.796242 
L 613.224 -330.916707 
L 613.224 -328.037172 
L 613.224 -325.157637 
L 613.224 -322.278102 
L 613.224 -319.398567 
L 613.224 -316.519032 
L 613.224 -313.639497 
L 613.224 -310.759962 
L 613.224 -307.880427 
L 613.224 -305.000892 
L 613.224 -302.121357 
L 613.224 -299.241822 
L 613.224 -296.362287 
L 613.224 -293.482752 
L 613.224 -290.603217 
L 613.224 -287.723682 
L 613.224 -284.844147 
L 613.224 -281.964612 
L 613.224 -279.085077 
L 613.224 -276.205542 
L 613.224 -273.326007 
L 613.224 -270.446472 
L 613.224 -267.566937 
L 613.224 -264.687402 
L 613.224 -261.807867 
L 613.224 -258.928332 
L 613.224 -256.048797 
L 613.224 -253.169262 
L 613.224 -250.289727 
L 613.224 -247.410192 
L 613.224 -244.530657 
L 613.224 -241.651122 
L 613.224 -238.771587 
L 613.224 -235.892052 
L 613.224 -233.012517 
L 613.224 -230.132982 
L 613.224 -227.253447 
L 613.224 -224.373912 
L 613.224 -221.494377 
L 613.224 -218.614842 
L 613.224 -215.735307 
L 613.224 -212.855772 
L 613.224 -209.976237 
L 613.224 -207.096702 
L 613.224 -204.217167 
L 613.224 -201.337632 
L 613.224 -198.458097 
L 613.224 -195.578562 
L 613.224 -192.699027 
L 613.224 -189.819492 
L 613.224 -186.939957 
L 613.224 -184.060422 
L 613.224 -181.180887 
L 613.224 -178.301352 
L 613.224 -175.421817 
L 613.224 -172.542282 
L 613.224 -169.662747 
L 613.224002 -166.783212 
L 613.224039 -163.903677 
L 613.224569 -161.024142 
L 613.228925 -158.144607 
L 613.249565 -155.265072 
L 613.303582 -152.385537 
L 613.372579 -149.506002 
L 613.390883 -146.626467 
L 613.342889 -143.746932 
L 613.322903 -140.867397 
L 613.491135 -137.987862 
L 614.065999 -135.108327 
L 615.358882 -132.228792 
L 617.720319 -129.349257 
L 620.790967 -126.469722 
L 623.537564 -123.590187 
L 628.378842 -120.710652 
L 642.600774 -117.831117 
L 665.366306 -114.951582 
L 676.6416 -112.072047 
L 661.672938 -109.192512 
L 635.913543 -106.312977 
L 619.680212 -103.433442 
z
" style="stroke: #595959; stroke-width: 1.25"/>
    </defs>
    <g clip-path="url(#p8e62b20e7b)">
     <use xlink:href="#m1f17523a5a" x="0" y="432" style="fill: #db96c0; stroke: #595959; stroke-width: 1.25"/>
    </g>
   </g>
   <g id="PolyCollection_5">
    <defs>
     <path id="m581a95aa41" d="M 778.262961 -99.473374 
L 765.273039 -99.473374 
L 748.632646 -102.334249 
L 722.556504 -105.195124 
L 708.3504 -108.055999 
L 720.105738 -110.916874 
L 741.410929 -113.77775 
L 754.742964 -116.638625 
L 761.231097 -119.4995 
L 765.73275 -122.360375 
L 768.77196 -125.22125 
L 770.365572 -128.082126 
L 771.182605 -130.943001 
L 771.586144 -133.803876 
L 771.730783 -136.664751 
L 771.763243 -139.525626 
L 771.767629 -142.386501 
L 771.767983 -145.247377 
L 771.768 -148.108252 
L 771.768 -150.969127 
L 771.768 -153.830002 
L 771.768 -156.690877 
L 771.768 -159.551753 
L 771.768 -162.412628 
L 771.768 -165.273503 
L 771.768 -168.134378 
L 771.768 -170.995253 
L 771.768 -173.856129 
L 771.768 -176.717004 
L 771.768 -179.577879 
L 771.768 -182.438754 
L 771.768 -185.299629 
L 771.768 -188.160505 
L 771.768 -191.02138 
L 771.768 -193.882255 
L 771.768 -196.74313 
L 771.768 -199.604005 
L 771.768 -202.464881 
L 771.768 -205.325756 
L 771.768 -208.186631 
L 771.768 -211.047506 
L 771.768 -213.908381 
L 771.768 -216.769257 
L 771.768 -219.630132 
L 771.768 -222.491007 
L 771.768 -225.351882 
L 771.768 -228.212757 
L 771.768 -231.073633 
L 771.768 -233.934508 
L 771.768 -236.795383 
L 771.768 -239.656258 
L 771.768 -242.517133 
L 771.768 -245.378008 
L 771.768 -248.238884 
L 771.768 -251.099759 
L 771.768 -253.960634 
L 771.768 -256.821509 
L 771.768 -259.682384 
L 771.768 -262.54326 
L 771.768 -265.404135 
L 771.768 -268.26501 
L 771.768 -271.125885 
L 771.768 -273.98676 
L 771.768 -276.847636 
L 771.768 -279.708511 
L 771.768 -282.569386 
L 771.768 -285.430261 
L 771.768 -288.291136 
L 771.768 -291.152012 
L 771.768 -294.012887 
L 771.768 -296.873762 
L 771.768 -299.734637 
L 771.768 -302.595512 
L 771.768 -305.456388 
L 771.768 -308.317263 
L 771.768 -311.178138 
L 771.768 -314.039013 
L 771.768 -316.899888 
L 771.768 -319.760764 
L 771.768 -322.621639 
L 771.768 -325.482514 
L 771.768 -328.343389 
L 771.768 -331.204264 
L 771.768 -334.06514 
L 771.768 -336.926015 
L 771.768 -339.78689 
L 771.768 -342.647765 
L 771.768 -345.50864 
L 771.768 -348.369515 
L 771.768 -351.230391 
L 771.768 -354.091266 
L 771.767995 -356.952141 
L 771.767887 -359.813016 
L 771.766594 -362.673891 
L 771.757712 -365.534767 
L 771.723703 -368.395642 
L 771.655761 -371.256517 
L 771.600645 -374.117392 
L 771.621157 -376.978267 
L 771.692179 -379.839143 
L 771.744962 -382.700018 
L 771.791038 -382.700018 
L 771.791038 -382.700018 
L 771.843821 -379.839143 
L 771.914843 -376.978267 
L 771.935355 -374.117392 
L 771.880239 -371.256517 
L 771.812297 -368.395642 
L 771.778288 -365.534767 
L 771.769406 -362.673891 
L 771.768113 -359.813016 
L 771.768005 -356.952141 
L 771.768 -354.091266 
L 771.768 -351.230391 
L 771.768 -348.369515 
L 771.768 -345.50864 
L 771.768 -342.647765 
L 771.768 -339.78689 
L 771.768 -336.926015 
L 771.768 -334.06514 
L 771.768 -331.204264 
L 771.768 -328.343389 
L 771.768 -325.482514 
L 771.768 -322.621639 
L 771.768 -319.760764 
L 771.768 -316.899888 
L 771.768 -314.039013 
L 771.768 -311.178138 
L 771.768 -308.317263 
L 771.768 -305.456388 
L 771.768 -302.595512 
L 771.768 -299.734637 
L 771.768 -296.873762 
L 771.768 -294.012887 
L 771.768 -291.152012 
L 771.768 -288.291136 
L 771.768 -285.430261 
L 771.768 -282.569386 
L 771.768 -279.708511 
L 771.768 -276.847636 
L 771.768 -273.98676 
L 771.768 -271.125885 
L 771.768 -268.26501 
L 771.768 -265.404135 
L 771.768 -262.54326 
L 771.768 -259.682384 
L 771.768 -256.821509 
L 771.768 -253.960634 
L 771.768 -251.099759 
L 771.768 -248.238884 
L 771.768 -245.378008 
L 771.768 -242.517133 
L 771.768 -239.656258 
L 771.768 -236.795383 
L 771.768 -233.934508 
L 771.768 -231.073633 
L 771.768 -228.212757 
L 771.768 -225.351882 
L 771.768 -222.491007 
L 771.768 -219.630132 
L 771.768 -216.769257 
L 771.768 -213.908381 
L 771.768 -211.047506 
L 771.768 -208.186631 
L 771.768 -205.325756 
L 771.768 -202.464881 
L 771.768 -199.604005 
L 771.768 -196.74313 
L 771.768 -193.882255 
L 771.768 -191.02138 
L 771.768 -188.160505 
L 771.768 -185.299629 
L 771.768 -182.438754 
L 771.768 -179.577879 
L 771.768 -176.717004 
L 771.768 -173.856129 
L 771.768 -170.995253 
L 771.768 -168.134378 
L 771.768 -165.273503 
L 771.768 -162.412628 
L 771.768 -159.551753 
L 771.768 -156.690877 
L 771.768 -153.830002 
L 771.768 -150.969127 
L 771.768 -148.108252 
L 771.768017 -145.247377 
L 771.768371 -142.386501 
L 771.772757 -139.525626 
L 771.805217 -136.664751 
L 771.949856 -133.803876 
L 772.353395 -130.943001 
L 773.170428 -128.082126 
L 774.76404 -125.22125 
L 777.80325 -122.360375 
L 782.304903 -119.4995 
L 788.793036 -116.638625 
L 802.125071 -113.77775 
L 823.430262 -110.916874 
L 835.1856 -108.055999 
L 820.979496 -105.195124 
L 794.903354 -102.334249 
L 778.262961 -99.473374 
z
" style="stroke: #595959; stroke-width: 1.25"/>
    </defs>
    <g clip-path="url(#p8e62b20e7b)">
     <use xlink:href="#m581a95aa41" x="0" y="432" style="fill: #a2c865; stroke: #595959; stroke-width: 1.25"/>
    </g>
   </g>
   <g id="line2d_6">
    <path d="M 137.592 352.847645 
L 137.592 352.947381 
" clip-path="url(#p8e62b20e7b)" style="fill: none; stroke: #000000"/>
   </g>
   <g id="line2d_7">
    <path d="M 137.592 352.732949 
L 137.592 352.561736 
" clip-path="url(#p8e62b20e7b)" style="fill: none; stroke: #000000"/>
   </g>
   <g id="line2d_8">
    <path d="M 131.6466 352.947381 
L 143.5374 352.947381 
" clip-path="url(#p8e62b20e7b)" style="fill: none; stroke: #000000; stroke-linecap: round"/>
   </g>
   <g id="line2d_9">
    <path d="M 131.6466 352.561736 
L 143.5374 352.561736 
" clip-path="url(#p8e62b20e7b)" style="fill: none; stroke: #000000; stroke-linecap: round"/>
   </g>
   <g id="line2d_10">
    <path d="M 296.136 353.745267 
L 296.136 353.845003 
" clip-path="url(#p8e62b20e7b)" style="fill: none; stroke: #000000"/>
   </g>
   <g id="line2d_11">
    <path d="M 296.136 353.645531 
L 296.136 353.499252 
" clip-path="url(#p8e62b20e7b)" style="fill: none; stroke: #000000"/>
   </g>
   <g id="line2d_12">
    <path d="M 290.1906 353.845003 
L 302.0814 353.845003 
" clip-path="url(#p8e62b20e7b)" style="fill: none; stroke: #000000; stroke-linecap: round"/>
   </g>
   <g id="line2d_13">
    <path d="M 290.1906 353.499252 
L 302.0814 353.499252 
" clip-path="url(#p8e62b20e7b)" style="fill: none; stroke: #000000; stroke-linecap: round"/>
   </g>
   <g id="line2d_14">
    <path d="M 454.68 326.304629 
L 454.68 326.457557 
" clip-path="url(#p8e62b20e7b)" style="fill: none; stroke: #000000"/>
   </g>
   <g id="line2d_15">
    <path d="M 454.68 324.742101 
L 454.68 322.946857 
" clip-path="url(#p8e62b20e7b)" style="fill: none; stroke: #000000"/>
   </g>
   <g id="line2d_16">
    <path d="M 448.7346 326.457557 
L 460.6254 326.457557 
" clip-path="url(#p8e62b20e7b)" style="fill: none; stroke: #000000; stroke-linecap: round"/>
   </g>
   <g id="line2d_17">
    <path d="M 448.7346 322.946857 
L 460.6254 322.946857 
" clip-path="url(#p8e62b20e7b)" style="fill: none; stroke: #000000; stroke-linecap: round"/>
   </g>
   <g id="line2d_18">
    <path d="M 613.224 320.307184 
L 613.224 320.513304 
" clip-path="url(#p8e62b20e7b)" style="fill: none; stroke: #000000"/>
   </g>
   <g id="line2d_19">
    <path d="M 613.224 318.694788 
L 613.224 316.377594 
" clip-path="url(#p8e62b20e7b)" style="fill: none; stroke: #000000"/>
   </g>
   <g id="line2d_20">
    <path d="M 607.2786 320.513304 
L 619.1694 320.513304 
" clip-path="url(#p8e62b20e7b)" style="fill: none; stroke: #000000; stroke-linecap: round"/>
   </g>
   <g id="line2d_21">
    <path d="M 607.2786 316.377594 
L 619.1694 316.377594 
" clip-path="url(#p8e62b20e7b)" style="fill: none; stroke: #000000; stroke-linecap: round"/>
   </g>
   <g id="line2d_22">
    <path d="M 771.768 324.449543 
L 771.768 324.668962 
" clip-path="url(#p8e62b20e7b)" style="fill: none; stroke: #000000"/>
   </g>
   <g id="line2d_23">
    <path d="M 771.768 322.770657 
L 771.768 320.287236 
" clip-path="url(#p8e62b20e7b)" style="fill: none; stroke: #000000"/>
   </g>
   <g id="line2d_24">
    <path d="M 765.8226 324.668962 
L 777.7134 324.668962 
" clip-path="url(#p8e62b20e7b)" style="fill: none; stroke: #000000; stroke-linecap: round"/>
   </g>
   <g id="line2d_25">
    <path d="M 765.8226 320.287236 
L 777.7134 320.287236 
" clip-path="url(#p8e62b20e7b)" style="fill: none; stroke: #000000; stroke-linecap: round"/>
   </g>
   <g id="line2d_26">
    <path d="M 125.7012 352.801101 
L 149.4828 352.801101 
" clip-path="url(#p8e62b20e7b)" style="fill: none; stroke: #ff0000; stroke-width: 2"/>
   </g>
   <g id="line2d_27">
    <path d="M 284.2452 353.712022 
L 308.0268 353.712022 
" clip-path="url(#p8e62b20e7b)" style="fill: none; stroke: #ff0000; stroke-width: 2"/>
   </g>
   <g id="line2d_28">
    <path d="M 442.7892 326.218191 
L 466.5708 326.218191 
" clip-path="url(#p8e62b20e7b)" style="fill: none; stroke: #ff0000; stroke-width: 2"/>
   </g>
   <g id="line2d_29">
    <path d="M 601.3332 320.094414 
L 625.1148 320.094414 
" clip-path="url(#p8e62b20e7b)" style="fill: none; stroke: #ff0000; stroke-width: 2"/>
   </g>
   <g id="line2d_30">
    <path d="M 759.8772 324.319887 
L 783.6588 324.319887 
" clip-path="url(#p8e62b20e7b)" style="fill: none; stroke: #ff0000; stroke-width: 2"/>
   </g>
   <g id="patch_3">
    <path d="M 58.32 377.237044 
L 58.32 27.6 
" style="fill: none; stroke: #cccccc; stroke-width: 1.25; stroke-linejoin: miter; stroke-linecap: square"/>
   </g>
   <g id="patch_4">
    <path d="M 851.04 377.237044 
L 851.04 27.6 
" style="fill: none; stroke: #cccccc; stroke-width: 1.25; stroke-linejoin: miter; stroke-linecap: square"/>
   </g>
   <g id="patch_5">
    <path d="M 58.32 377.237044 
L 851.04 377.237044 
" style="fill: none; stroke: #cccccc; stroke-width: 1.25; stroke-linejoin: miter; stroke-linecap: square"/>
   </g>
   <g id="patch_6">
    <path d="M 58.32 27.6 
L 851.04 27.6 
" style="fill: none; stroke: #cccccc; stroke-width: 1.25; stroke-linejoin: miter; stroke-linecap: square"/>
   </g>
   <g id="text_12">
    <!-- Handshake duration on QUIC with secp384r1 signature algorithm — Degraded (200ms/10%) -->
    <g style="fill: #262626" transform="translate(176.819062 21.6) scale(0.12 -0.12)">
     <defs>
      <path id="DejaVuSans-51" d="M 2522 4238 
Q 1834 4238 1429 3725 
Q 1025 3213 1025 2328 
Q 1025 1447 1429 934 
Q 1834 422 2522 422 
Q 3209 422 3611 934 
Q 4013 1447 4013 2328 
Q 4013 3213 3611 3725 
Q 3209 4238 2522 4238 
z
M 3406 84 
L 4238 -825 
L 3475 -825 
L 2784 -78 
Q 2681 -84 2626 -87 
Q 2572 -91 2522 -91 
Q 1538 -91 948 567 
Q 359 1225 359 2328 
Q 359 3434 948 4092 
Q 1538 4750 2522 4750 
Q 3503 4750 4090 4092 
Q 4678 3434 4678 2328 
Q 4678 1516 4351 937 
Q 4025 359 3406 84 
z
" transform="scale(0.015625)"/>
      <path id="DejaVuSans-55" d="M 556 4666 
L 1191 4666 
L 1191 1831 
Q 1191 1081 1462 751 
Q 1734 422 2344 422 
Q 2950 422 3222 751 
Q 3494 1081 3494 1831 
L 3494 4666 
L 4128 4666 
L 4128 1753 
Q 4128 841 3676 375 
Q 3225 -91 2344 -91 
Q 1459 -91 1007 375 
Q 556 841 556 1753 
L 556 4666 
z
" transform="scale(0.015625)"/>
      <path id="DejaVuSans-49" d="M 628 4666 
L 1259 4666 
L 1259 0 
L 628 0 
L 628 4666 
z
" transform="scale(0.015625)"/>
      <path id="DejaVuSans-43" d="M 4122 4306 
L 4122 3641 
Q 3803 3938 3442 4084 
Q 3081 4231 2675 4231 
Q 1875 4231 1450 3742 
Q 1025 3253 1025 2328 
Q 1025 1406 1450 917 
Q 1875 428 2675 428 
Q 3081 428 3442 575 
Q 3803 722 4122 1019 
L 4122 359 
Q 3791 134 3420 21 
Q 3050 -91 2638 -91 
Q 1578 -91 968 557 
Q 359 1206 359 2328 
Q 359 3453 968 4101 
Q 1578 4750 2638 4750 
Q 3056 4750 3426 4639 
Q 3797 4528 4122 4306 
z
" transform="scale(0.015625)"/>
      <path id="DejaVuSans-77" d="M 269 3500 
L 844 3500 
L 1563 769 
L 2278 3500 
L 2956 3500 
L 3675 769 
L 4391 3500 
L 4966 3500 
L 4050 0 
L 3372 0 
L 2619 2869 
L 1863 0 
L 1184 0 
L 269 3500 
z
" transform="scale(0.015625)"/>
      <path id="DejaVuSans-67" d="M 2906 1791 
Q 2906 2416 2648 2759 
Q 2391 3103 1925 3103 
Q 1463 3103 1205 2759 
Q 947 2416 947 1791 
Q 947 1169 1205 825 
Q 1463 481 1925 481 
Q 2391 481 2648 825 
Q 2906 1169 2906 1791 
z
M 3481 434 
Q 3481 -459 3084 -895 
Q 2688 -1331 1869 -1331 
Q 1566 -1331 1297 -1286 
Q 1028 -1241 775 -1147 
L 775 -588 
Q 1028 -725 1275 -790 
Q 1522 -856 1778 -856 
Q 2344 -856 2625 -561 
Q 2906 -266 2906 331 
L 2906 616 
Q 2728 306 2450 153 
Q 2172 0 1784 0 
Q 1141 0 747 490 
Q 353 981 353 1791 
Q 353 2603 747 3093 
Q 1141 3584 1784 3584 
Q 2172 3584 2450 3431 
Q 2728 3278 2906 2969 
L 2906 3500 
L 3481 3500 
L 3481 434 
z
" transform="scale(0.015625)"/>
      <path id="DejaVuSans-6c" d="M 603 4863 
L 1178 4863 
L 1178 0 
L 603 0 
L 603 4863 
z
" transform="scale(0.015625)"/>
      <path id="DejaVuSans-2014" d="M 313 1978 
L 6088 1978 
L 6088 1528 
L 313 1528 
L 313 1978 
z
" transform="scale(0.015625)"/>
      <path id="DejaVuSans-44" d="M 1259 4147 
L 1259 519 
L 2022 519 
Q 2988 519 3436 956 
Q 3884 1394 3884 2338 
Q 3884 3275 3436 3711 
Q 2988 4147 2022 4147 
L 1259 4147 
z
M 628 4666 
L 1925 4666 
Q 3281 4666 3915 4102 
Q 4550 3538 4550 2338 
Q 4550 1131 3912 565 
Q 3275 0 1925 0 
L 628 0 
L 628 4666 
z
" transform="scale(0.015625)"/>
      <path id="DejaVuSans-2f" d="M 1625 4666 
L 2156 4666 
L 531 -594 
L 0 -594 
L 1625 4666 
z
" transform="scale(0.015625)"/>
      <path id="DejaVuSans-25" d="M 4653 2053 
Q 4381 2053 4226 1822 
Q 4072 1591 4072 1178 
Q 4072 772 4226 539 
Q 4381 306 4653 306 
Q 4919 306 5073 539 
Q 5228 772 5228 1178 
Q 5228 1588 5073 1820 
Q 4919 2053 4653 2053 
z
M 4653 2450 
Q 5147 2450 5437 2106 
Q 5728 1763 5728 1178 
Q 5728 594 5436 251 
Q 5144 -91 4653 -91 
Q 4153 -91 3862 251 
Q 3572 594 3572 1178 
Q 3572 1766 3864 2108 
Q 4156 2450 4653 2450 
z
M 1428 4353 
Q 1159 4353 1004 4120 
Q 850 3888 850 3481 
Q 850 3069 1003 2837 
Q 1156 2606 1428 2606 
Q 1700 2606 1854 2837 
Q 2009 3069 2009 3481 
Q 2009 3884 1853 4118 
Q 1697 4353 1428 4353 
z
M 4250 4750 
L 4750 4750 
L 1831 -91 
L 1331 -91 
L 4250 4750 
z
M 1428 4750 
Q 1922 4750 2215 4408 
Q 2509 4066 2509 3481 
Q 2509 2891 2217 2550 
Q 1925 2209 1428 2209 
Q 931 2209 642 2551 
Q 353 2894 353 3481 
Q 353 4063 643 4406 
Q 934 4750 1428 4750 
z
" transform="scale(0.015625)"/>
     </defs>
     <use xlink:href="#DejaVuSans-48"/>
     <use xlink:href="#DejaVuSans-61" x="75.195312"/>
     <use xlink:href="#DejaVuSans-6e" x="136.474609"/>
     <use xlink:href="#DejaVuSans-64" x="199.853516"/>
     <use xlink:href="#DejaVuSans-73" x="263.330078"/>
     <use xlink:href="#DejaVuSans-68" x="315.429688"/>
     <use xlink:href="#DejaVuSans-61" x="378.808594"/>
     <use xlink:href="#DejaVuSans-6b" x="440.087891"/>
     <use xlink:href="#DejaVuSans-65" x="494.373047"/>
     <use xlink:href="#DejaVuSans-20" x="555.896484"/>
     <use xlink:href="#DejaVuSans-64" x="587.683594"/>
     <use xlink:href="#DejaVuSans-75" x="651.160156"/>
     <use xlink:href="#DejaVuSans-72" x="714.539062"/>
     <use xlink:href="#DejaVuSans-61" x="755.652344"/>
     <use xlink:href="#DejaVuSans-74" x="816.931641"/>
     <use xlink:href="#DejaVuSans-69" x="856.140625"/>
     <use xlink:href="#DejaVuSans-6f" x="883.923828"/>
     <use xlink:href="#DejaVuSans-6e" x="945.105469"/>
     <use xlink:href="#DejaVuSans-20" x="1008.484375"/>
     <use xlink:href="#DejaVuSans-6f" x="1040.271484"/>
     <use xlink:href="#DejaVuSans-6e" x="1101.453125"/>
     <use xlink:href="#DejaVuSans-20" x="1164.832031"/>
     <use xlink:href="#DejaVuSans-51" x="1196.619141"/>
     <use xlink:href="#DejaVuSans-55" x="1275.330078"/>
     <use xlink:href="#DejaVuSans-49" x="1348.523438"/>
     <use xlink:href="#DejaVuSans-43" x="1378.015625"/>
     <use xlink:href="#DejaVuSans-20" x="1447.839844"/>
     <use xlink:href="#DejaVuSans-77" x="1479.626953"/>
     <use xlink:href="#DejaVuSans-69" x="1561.414062"/>
     <use xlink:href="#DejaVuSans-74" x="1589.197266"/>
     <use xlink:href="#DejaVuSans-68" x="1628.40625"/>
     <use xlink:href="#DejaVuSans-20" x="1691.785156"/>
     <use xlink:href="#DejaVuSans-73" x="1723.572266"/>
     <use xlink:href="#DejaVuSans-65" x="1775.671875"/>
     <use xlink:href="#DejaVuSans-63" x="1837.195312"/>
     <use xlink:href="#DejaVuSans-70" x="1892.175781"/>
     <use xlink:href="#DejaVuSans-33" x="1955.652344"/>
     <use xlink:href="#DejaVuSans-38" x="2019.275391"/>
     <use xlink:href="#DejaVuSans-34" x="2082.898438"/>
     <use xlink:href="#DejaVuSans-72" x="2146.521484"/>
     <use xlink:href="#DejaVuSans-31" x="2187.634766"/>
     <use xlink:href="#DejaVuSans-20" x="2251.257812"/>
     <use xlink:href="#DejaVuSans-73" x="2283.044922"/>
     <use xlink:href="#DejaVuSans-69" x="2335.144531"/>
     <use xlink:href="#DejaVuSans-67" x="2362.927734"/>
     <use xlink:href="#DejaVuSans-6e" x="2426.404297"/>
     <use xlink:href="#DejaVuSans-61" x="2489.783203"/>
     <use xlink:href="#DejaVuSans-74" x="2551.0625"/>
     <use xlink:href="#DejaVuSans-75" x="2590.271484"/>
     <use xlink:href="#DejaVuSans-72" x="2653.650391"/>
     <use xlink:href="#DejaVuSans-65" x="2692.513672"/>
     <use xlink:href="#DejaVuSans-20" x="2754.037109"/>
     <use xlink:href="#DejaVuSans-61" x="2785.824219"/>
     <use xlink:href="#DejaVuSans-6c" x="2847.103516"/>
     <use xlink:href="#DejaVuSans-67" x="2874.886719"/>
     <use xlink:href="#DejaVuSans-6f" x="2938.363281"/>
     <use xlink:href="#DejaVuSans-72" x="2999.544922"/>
     <use xlink:href="#DejaVuSans-69" x="3040.658203"/>
     <use xlink:href="#DejaVuSans-74" x="3068.441406"/>
     <use xlink:href="#DejaVuSans-68" x="3107.650391"/>
     <use xlink:href="#DejaVuSans-6d" x="3171.029297"/>
     <use xlink:href="#DejaVuSans-20" x="3268.441406"/>
     <use xlink:href="#DejaVuSans-2014" x="3300.228516"/>
     <use xlink:href="#DejaVuSans-20" x="3400.228516"/>
     <use xlink:href="#DejaVuSans-44" x="3432.015625"/>
     <use xlink:href="#DejaVuSans-65" x="3509.017578"/>
     <use xlink:href="#DejaVuSans-67" x="3570.541016"/>
     <use xlink:href="#DejaVuSans-72" x="3634.017578"/>
     <use xlink:href="#DejaVuSans-61" x="3675.130859"/>
     <use xlink:href="#DejaVuSans-64" x="3736.410156"/>
     <use xlink:href="#DejaVuSans-65" x="3799.886719"/>
     <use xlink:href="#DejaVuSans-64" x="3861.410156"/>
     <use xlink:href="#DejaVuSans-20" x="3924.886719"/>
     <use xlink:href="#DejaVuSans-28" x="3956.673828"/>
     <use xlink:href="#DejaVuSans-32" x="3995.6875"/>
     <use xlink:href="#DejaVuSans-30" x="4059.310547"/>
     <use xlink:href="#DejaVuSans-30" x="4122.933594"/>
     <use xlink:href="#DejaVuSans-6d" x="4186.556641"/>
     <use xlink:href="#DejaVuSans-73" x="4283.96875"/>
     <use xlink:href="#DejaVuSans-2f" x="4336.068359"/>
     <use xlink:href="#DejaVuSans-31" x="4369.759766"/>
     <use xlink:href="#DejaVuSans-30" x="4433.382812"/>
     <use xlink:href="#DejaVuSans-25" x="4497.005859"/>
     <use xlink:href="#DejaVuSans-29" x="4592.025391"/>
    </g>
   </g>
  </g>
 </g>
 <defs>
  <clipPath id="p8e62b20e7b">
   <rect x="58.32" y="27.6" width="792.72" height="349.637044"/>
  </clipPath>
 </defs>
</svg>
