<?xml version="1.0" encoding="utf-8" standalone="no"?>
<!DOCTYPE svg PUBLIC "-//W3C//DTD SVG 1.1//EN"
  "http://www.w3.org/Graphics/SVG/1.1/DTD/svg11.dtd">
<svg xmlns:xlink="http://www.w3.org/1999/xlink" width="864pt" height="432pt" viewBox="0 0 864 432" xmlns="http://www.w3.org/2000/svg" version="1.1">
 <metadata>
  <rdf:RDF xmlns:dc="http://purl.org/dc/elements/1.1/" xmlns:cc="http://creativecommons.org/ns#" xmlns:rdf="http://www.w3.org/1999/02/22-rdf-syntax-ns#">
   <cc:Work>
    <dc:type rdf:resource="http://purl.org/dc/dcmitype/StillImage"/>
    <dc:date>2026-03-21T14:06:27.364932</dc:date>
    <dc:format>image/svg+xml</dc:format>
    <dc:creator>
     <cc:Agent>
      <dc:title>Matplotlib v3.6.3, https://matplotlib.org/</dc:title>
     </cc:Agent>
    </dc:creator>
   </cc:Work>
  </rdf:RDF>
 </metadata>
 <defs>
  <style type="text/css">*{stroke-linejoin: round; stroke-linecap: butt}</style>
 </defs>
 <g id="figure_1">
  <g id="patch_1">
   <path d="M 0 432 
L 864 432 
L 864 0 
L 0 0 
z
" style="fill: #ffffff"/>
  </g>
  <g id="axes_1">
   <g id="patch_2">
    <path d="M 65.34 377.237044 
L 851.04 377.237044 
L 851.04 27.6 
L 65.34 27.6 
z
" style="fill: #ffffff"/>
   </g>
   <g id="matplotlib.axis_1">
    <g id="xtick_1">
     <g id="text_1">
      <!-- P-521 -->
      <g style="fill: #262626" transform="translate(162.609421 404.396088) rotate(-15) scale(0.12 -0.12)">
       <defs>
        <path id="DejaVuSans-50" d="M 1259 4147 
L 1259 2394 
L 2053 2394 
Q 2494 2394 2734 2622 
Q 2975 2850 2975 3272 
Q 2975 3691 2734 3919 
Q 2494 4147 2053 4147 
L 1259 4147 
z
M 628 4666 
L 2053 4666 
Q 2838 4666 3239 4311 
Q 3641 3956 3641 3272 
Q 3641 2581 3239 2228 
Q 2838 1875 2053 1875 
L 1259 1875 
L 1259 0 
L 628 0 
L 628 4666 
z
" transform="scale(0.015625)"/>
        <path id="DejaVuSans-2d" d="M 313 2009 
L 1997 2009 
L 1997 1497 
L 313 1497 
L 313 2009 
z
" transform="scale(0.015625)"/>
        <path id="DejaVuSans-35" d="M 691 4666 
L 3169 4666 
L 3169 4134 
L 1269 4134 
L 1269 2991 
Q 1406 3038 1543 3061 
Q 1681 3084 1819 3084 
Q 2600 3084 3056 2656 
Q 3513 2228 3513 1497 
Q 3513 744 3044 326 
Q 2575 -91 1722 -91 
Q 1428 -91 1123 -41 
Q 819 9 494 109 
L 494 744 
Q 775 591 1075 516 
Q 1375 441 1709 441 
Q 2250 441 2565 725 
Q 2881 1009 2881 1497 
Q 2881 1984 2565 2268 
Q 2250 2553 1709 2553 
Q 1456 2553 1204 2497 
Q 953 2441 691 2322 
L 691 4666 
z
" transform="scale(0.015625)"/>
        <path id="DejaVuSans-32" d="M 1228 531 
L 3431 531 
L 3431 0 
L 469 0 
L 469 531 
Q 828 903 1448 1529 
Q 2069 2156 2228 2338 
Q 2531 2678 2651 2914 
Q 2772 3150 2772 3378 
Q 2772 3750 2511 3984 
Q 2250 4219 1831 4219 
Q 1534 4219 1204 4116 
Q 875 4013 500 3803 
L 500 4441 
Q 881 4594 1212 4672 
Q 1544 4750 1819 4750 
Q 2544 4750 2975 4387 
Q 3406 4025 3406 3419 
Q 3406 3131 3298 2873 
Q 3191 2616 2906 2266 
Q 2828 2175 2409 1742 
Q 1991 1309 1228 531 
z
" transform="scale(0.015625)"/>
        <path id="DejaVuSans-31" d="M 794 531 
L 1825 531 
L 1825 4091 
L 703 3866 
L 703 4441 
L 1819 4666 
L 2450 4666 
L 2450 531 
L 3481 531 
L 3481 0 
L 794 0 
L 794 531 
z
" transform="scale(0.015625)"/>
       </defs>
       <use xlink:href="#DejaVuSans-50"/>
       <use xlink:href="#DejaVuSans-2d" x="58.052734"/>
       <use xlink:href="#DejaVuSans-35" x="94.136719"/>
       <use xlink:href="#DejaVuSans-32" x="157.759766"/>
       <use xlink:href="#DejaVuSans-31" x="221.382812"/>
      </g>
     </g>
    </g>
    <g id="xtick_2">
     <g id="text_2">
      <!-- hqc256 -->
      <g style="fill: #262626" transform="translate(414.341845 407.120482) rotate(-15) scale(0.12 -0.12)">
       <defs>
        <path id="DejaVuSans-68" d="M 3513 2113 
L 3513 0 
L 2938 0 
L 2938 2094 
Q 2938 2591 2744 2837 
Q 2550 3084 2163 3084 
Q 1697 3084 1428 2787 
Q 1159 2491 1159 1978 
L 1159 0 
L 581 0 
L 581 4863 
L 1159 4863 
L 1159 2956 
Q 1366 3272 1645 3428 
Q 1925 3584 2291 3584 
Q 2894 3584 3203 3211 
Q 3513 2838 3513 2113 
z
" transform="scale(0.015625)"/>
        <path id="DejaVuSans-71" d="M 947 1747 
Q 947 1113 1208 752 
Q 1469 391 1925 391 
Q 2381 391 2643 752 
Q 2906 1113 2906 1747 
Q 2906 2381 2643 2742 
Q 2381 3103 1925 3103 
Q 1469 3103 1208 2742 
Q 947 2381 947 1747 
z
M 2906 525 
Q 2725 213 2448 61 
Q 2172 -91 1784 -91 
Q 1150 -91 751 415 
Q 353 922 353 1747 
Q 353 2572 751 3078 
Q 1150 3584 1784 3584 
Q 2172 3584 2448 3432 
Q 2725 3281 2906 2969 
L 2906 3500 
L 3481 3500 
L 3481 -1331 
L 2906 -1331 
L 2906 525 
z
" transform="scale(0.015625)"/>
        <path id="DejaVuSans-63" d="M 3122 3366 
L 3122 2828 
Q 2878 2963 2633 3030 
Q 2388 3097 2138 3097 
Q 1578 3097 1268 2742 
Q 959 2388 959 1747 
Q 959 1106 1268 751 
Q 1578 397 2138 397 
Q 2388 397 2633 464 
Q 2878 531 3122 666 
L 3122 134 
Q 2881 22 2623 -34 
Q 2366 -91 2075 -91 
Q 1284 -91 818 406 
Q 353 903 353 1747 
Q 353 2603 823 3093 
Q 1294 3584 2113 3584 
Q 2378 3584 2631 3529 
Q 2884 3475 3122 3366 
z
" transform="scale(0.015625)"/>
        <path id="DejaVuSans-36" d="M 2113 2584 
Q 1688 2584 1439 2293 
Q 1191 2003 1191 1497 
Q 1191 994 1439 701 
Q 1688 409 2113 409 
Q 2538 409 2786 701 
Q 3034 994 3034 1497 
Q 3034 2003 2786 2293 
Q 2538 2584 2113 2584 
z
M 3366 4563 
L 3366 3988 
Q 3128 4100 2886 4159 
Q 2644 4219 2406 4219 
Q 1781 4219 1451 3797 
Q 1122 3375 1075 2522 
Q 1259 2794 1537 2939 
Q 1816 3084 2150 3084 
Q 2853 3084 3261 2657 
Q 3669 2231 3669 1497 
Q 3669 778 3244 343 
Q 2819 -91 2113 -91 
Q 1303 -91 875 529 
Q 447 1150 447 2328 
Q 447 3434 972 4092 
Q 1497 4750 2381 4750 
Q 2619 4750 2861 4703 
Q 3103 4656 3366 4563 
z
" transform="scale(0.015625)"/>
       </defs>
       <use xlink:href="#DejaVuSans-68"/>
       <use xlink:href="#DejaVuSans-71" x="63.378906"/>
       <use xlink:href="#DejaVuSans-63" x="126.855469"/>
       <use xlink:href="#DejaVuSans-32" x="181.835938"/>
       <use xlink:href="#DejaVuSans-35" x="245.458984"/>
       <use xlink:href="#DejaVuSans-36" x="309.082031"/>
      </g>
     </g>
    </g>
    <g id="xtick_3">
     <g id="text_3">
      <!-- p521_hqc256 -->
      <g style="fill: #262626" transform="translate(640.876834 416.573362) rotate(-15) scale(0.12 -0.12)">
       <defs>
        <path id="DejaVuSans-70" d="M 1159 525 
L 1159 -1331 
L 581 -1331 
L 581 3500 
L 1159 3500 
L 1159 2969 
Q 1341 3281 1617 3432 
Q 1894 3584 2278 3584 
Q 2916 3584 3314 3078 
Q 3713 2572 3713 1747 
Q 3713 922 3314 415 
Q 2916 -91 2278 -91 
Q 1894 -91 1617 61 
Q 1341 213 1159 525 
z
M 3116 1747 
Q 3116 2381 2855 2742 
Q 2594 3103 2138 3103 
Q 1681 3103 1420 2742 
Q 1159 2381 1159 1747 
Q 1159 1113 1420 752 
Q 1681 391 2138 391 
Q 2594 391 2855 752 
Q 3116 1113 3116 1747 
z
" transform="scale(0.015625)"/>
        <path id="DejaVuSans-5f" d="M 3263 -1063 
L 3263 -1509 
L -63 -1509 
L -63 -1063 
L 3263 -1063 
z
" transform="scale(0.015625)"/>
       </defs>
       <use xlink:href="#DejaVuSans-70"/>
       <use xlink:href="#DejaVuSans-35" x="63.476562"/>
       <use xlink:href="#DejaVuSans-32" x="127.099609"/>
       <use xlink:href="#DejaVuSans-31" x="190.722656"/>
       <use xlink:href="#DejaVuSans-5f" x="254.345703"/>
       <use xlink:href="#DejaVuSans-68" x="304.345703"/>
       <use xlink:href="#DejaVuSans-71" x="367.724609"/>
       <use xlink:href="#DejaVuSans-63" x="431.201172"/>
       <use xlink:href="#DejaVuSans-32" x="486.181641"/>
       <use xlink:href="#DejaVuSans-35" x="549.804688"/>
       <use xlink:href="#DejaVuSans-36" x="613.427734"/>
      </g>
     </g>
    </g>
   </g>
   <g id="matplotlib.axis_2">
    <g id="ytick_1">
     <g id="line2d_1">
      <path d="M 65.34 317.789521 
L 851.04 317.789521 
" clip-path="url(#pc6b599fad6)" style="fill: none; stroke: #cccccc; stroke-linecap: round"/>
     </g>
     <g id="text_4">
      <!-- 200 -->
      <g style="fill: #262626" transform="translate(34.84375 321.968662) scale(0.11 -0.11)">
       <defs>
        <path id="DejaVuSans-30" d="M 2034 4250 
Q 1547 4250 1301 3770 
Q 1056 3291 1056 2328 
Q 1056 1369 1301 889 
Q 1547 409 2034 409 
Q 2525 409 2770 889 
Q 3016 1369 3016 2328 
Q 3016 3291 2770 3770 
Q 2525 4250 2034 4250 
z
M 2034 4750 
Q 2819 4750 3233 4129 
Q 3647 3509 3647 2328 
Q 3647 1150 3233 529 
Q 2819 -91 2034 -91 
Q 1250 -91 836 529 
Q 422 1150 422 2328 
Q 422 3509 836 4129 
Q 1250 4750 2034 4750 
z
" transform="scale(0.015625)"/>
       </defs>
       <use xlink:href="#DejaVuSans-32"/>
       <use xlink:href="#DejaVuSans-30" x="63.623047"/>
       <use xlink:href="#DejaVuSans-30" x="127.246094"/>
      </g>
     </g>
    </g>
    <g id="ytick_2">
     <g id="line2d_2">
      <path d="M 65.34 249.238058 
L 851.04 249.238058 
" clip-path="url(#pc6b599fad6)" style="fill: none; stroke: #cccccc; stroke-linecap: round"/>
     </g>
     <g id="text_5">
      <!-- 400 -->
      <g style="fill: #262626" transform="translate(34.84375 253.417198) scale(0.11 -0.11)">
       <defs>
        <path id="DejaVuSans-34" d="M 2419 4116 
L 825 1625 
L 2419 1625 
L 2419 4116 
z
M 2253 4666 
L 3047 4666 
L 3047 1625 
L 3713 1625 
L 3713 1100 
L 3047 1100 
L 3047 0 
L 2419 0 
L 2419 1100 
L 313 1100 
L 313 1709 
L 2253 4666 
z
" transform="scale(0.015625)"/>
       </defs>
       <use xlink:href="#DejaVuSans-34"/>
       <use xlink:href="#DejaVuSans-30" x="63.623047"/>
       <use xlink:href="#DejaVuSans-30" x="127.246094"/>
      </g>
     </g>
    </g>
    <g id="ytick_3">
     <g id="line2d_3">
      <path d="M 65.34 180.686594 
L 851.04 180.686594 
" clip-path="url(#pc6b599fad6)" style="fill: none; stroke: #cccccc; stroke-linecap: round"/>
     </g>
     <g id="text_6">
      <!-- 600 -->
      <g style="fill: #262626" transform="translate(34.84375 184.865735) scale(0.11 -0.11)">
       <use xlink:href="#DejaVuSans-36"/>
       <use xlink:href="#DejaVuSans-30" x="63.623047"/>
       <use xlink:href="#DejaVuSans-30" x="127.246094"/>
      </g>
     </g>
    </g>
    <g id="ytick_4">
     <g id="line2d_4">
      <path d="M 65.34 112.13513 
L 851.04 112.13513 
" clip-path="url(#pc6b599fad6)" style="fill: none; stroke: #cccccc; stroke-linecap: round"/>
     </g>
     <g id="text_7">
      <!-- 800 -->
      <g style="fill: #262626" transform="translate(34.84375 116.314271) scale(0.11 -0.11)">
       <defs>
        <path id="DejaVuSans-38" d="M 2034 2216 
Q 1584 2216 1326 1975 
Q 1069 1734 1069 1313 
Q 1069 891 1326 650 
Q 1584 409 2034 409 
Q 2484 409 2743 651 
Q 3003 894 3003 1313 
Q 3003 1734 2745 1975 
Q 2488 2216 2034 2216 
z
M 1403 2484 
Q 997 2584 770 2862 
Q 544 3141 544 3541 
Q 544 4100 942 4425 
Q 1341 4750 2034 4750 
Q 2731 4750 3128 4425 
Q 3525 4100 3525 3541 
Q 3525 3141 3298 2862 
Q 3072 2584 2669 2484 
Q 3125 2378 3379 2068 
Q 3634 1759 3634 1313 
Q 3634 634 3220 271 
Q 2806 -91 2034 -91 
Q 1263 -91 848 271 
Q 434 634 434 1313 
Q 434 1759 690 2068 
Q 947 2378 1403 2484 
z
M 1172 3481 
Q 1172 3119 1398 2916 
Q 1625 2713 2034 2713 
Q 2441 2713 2670 2916 
Q 2900 3119 2900 3481 
Q 2900 3844 2670 4047 
Q 2441 4250 2034 4250 
Q 1625 4250 1398 4047 
Q 1172 3844 1172 3481 
z
" transform="scale(0.015625)"/>
       </defs>
       <use xlink:href="#DejaVuSans-38"/>
       <use xlink:href="#DejaVuSans-30" x="63.623047"/>
       <use xlink:href="#DejaVuSans-30" x="127.246094"/>
      </g>
     </g>
    </g>
    <g id="ytick_5">
     <g id="line2d_5">
      <path d="M 65.34 43.583667 
L 851.04 43.583667 
" clip-path="url(#pc6b599fad6)" style="fill: none; stroke: #cccccc; stroke-linecap: round"/>
     </g>
     <g id="text_8">
      <!-- 1000 -->
      <g style="fill: #262626" transform="translate(27.845 47.762807) scale(0.11 -0.11)">
       <use xlink:href="#DejaVuSans-31"/>
       <use xlink:href="#DejaVuSans-30" x="63.623047"/>
       <use xlink:href="#DejaVuSans-30" x="127.246094"/>
       <use xlink:href="#DejaVuSans-30" x="190.869141"/>
      </g>
     </g>
    </g>
    <g id="text_9">
     <!-- Handshake duration (ms) -->
     <g style="fill: #262626" transform="translate(21.349375 278.486335) rotate(-90) scale(0.12 -0.12)">
      <defs>
       <path id="DejaVuSans-48" d="M 628 4666 
L 1259 4666 
L 1259 2753 
L 3553 2753 
L 3553 4666 
L 4184 4666 
L 4184 0 
L 3553 0 
L 3553 2222 
L 1259 2222 
L 1259 0 
L 628 0 
L 628 4666 
z
" transform="scale(0.015625)"/>
       <path id="DejaVuSans-61" d="M 2194 1759 
Q 1497 1759 1228 1600 
Q 959 1441 959 1056 
Q 959 750 1161 570 
Q 1363 391 1709 391 
Q 2188 391 2477 730 
Q 2766 1069 2766 1631 
L 2766 1759 
L 2194 1759 
z
M 3341 1997 
L 3341 0 
L 2766 0 
L 2766 531 
Q 2569 213 2275 61 
Q 1981 -91 1556 -91 
Q 1019 -91 701 211 
Q 384 513 384 1019 
Q 384 1609 779 1909 
Q 1175 2209 1959 2209 
L 2766 2209 
L 2766 2266 
Q 2766 2663 2505 2880 
Q 2244 3097 1772 3097 
Q 1472 3097 1187 3025 
Q 903 2953 641 2809 
L 641 3341 
Q 956 3463 1253 3523 
Q 1550 3584 1831 3584 
Q 2591 3584 2966 3190 
Q 3341 2797 3341 1997 
z
" transform="scale(0.015625)"/>
       <path id="DejaVuSans-6e" d="M 3513 2113 
L 3513 0 
L 2938 0 
L 2938 2094 
Q 2938 2591 2744 2837 
Q 2550 3084 2163 3084 
Q 1697 3084 1428 2787 
Q 1159 2491 1159 1978 
L 1159 0 
L 581 0 
L 581 3500 
L 1159 3500 
L 1159 2956 
Q 1366 3272 1645 3428 
Q 1925 3584 2291 3584 
Q 2894 3584 3203 3211 
Q 3513 2838 3513 2113 
z
" transform="scale(0.015625)"/>
       <path id="DejaVuSans-64" d="M 2906 2969 
L 2906 4863 
L 3481 4863 
L 3481 0 
L 2906 0 
L 2906 525 
Q 2725 213 2448 61 
Q 2172 -91 1784 -91 
Q 1150 -91 751 415 
Q 353 922 353 1747 
Q 353 2572 751 3078 
Q 1150 3584 1784 3584 
Q 2172 3584 2448 3432 
Q 2725 3281 2906 2969 
z
M 947 1747 
Q 947 1113 1208 752 
Q 1469 391 1925 391 
Q 2381 391 2643 752 
Q 2906 1113 2906 1747 
Q 2906 2381 2643 2742 
Q 2381 3103 1925 3103 
Q 1469 3103 1208 2742 
Q 947 2381 947 1747 
z
" transform="scale(0.015625)"/>
       <path id="DejaVuSans-73" d="M 2834 3397 
L 2834 2853 
Q 2591 2978 2328 3040 
Q 2066 3103 1784 3103 
Q 1356 3103 1142 2972 
Q 928 2841 928 2578 
Q 928 2378 1081 2264 
Q 1234 2150 1697 2047 
L 1894 2003 
Q 2506 1872 2764 1633 
Q 3022 1394 3022 966 
Q 3022 478 2636 193 
Q 2250 -91 1575 -91 
Q 1294 -91 989 -36 
Q 684 19 347 128 
L 347 722 
Q 666 556 975 473 
Q 1284 391 1588 391 
Q 1994 391 2212 530 
Q 2431 669 2431 922 
Q 2431 1156 2273 1281 
Q 2116 1406 1581 1522 
L 1381 1569 
Q 847 1681 609 1914 
Q 372 2147 372 2553 
Q 372 3047 722 3315 
Q 1072 3584 1716 3584 
Q 2034 3584 2315 3537 
Q 2597 3491 2834 3397 
z
" transform="scale(0.015625)"/>
       <path id="DejaVuSans-6b" d="M 581 4863 
L 1159 4863 
L 1159 1991 
L 2875 3500 
L 3609 3500 
L 1753 1863 
L 3688 0 
L 2938 0 
L 1159 1709 
L 1159 0 
L 581 0 
L 581 4863 
z
" transform="scale(0.015625)"/>
       <path id="DejaVuSans-65" d="M 3597 1894 
L 3597 1613 
L 953 1613 
Q 991 1019 1311 708 
Q 1631 397 2203 397 
Q 2534 397 2845 478 
Q 3156 559 3463 722 
L 3463 178 
Q 3153 47 2828 -22 
Q 2503 -91 2169 -91 
Q 1331 -91 842 396 
Q 353 884 353 1716 
Q 353 2575 817 3079 
Q 1281 3584 2069 3584 
Q 2775 3584 3186 3129 
Q 3597 2675 3597 1894 
z
M 3022 2063 
Q 3016 2534 2758 2815 
Q 2500 3097 2075 3097 
Q 1594 3097 1305 2825 
Q 1016 2553 972 2059 
L 3022 2063 
z
" transform="scale(0.015625)"/>
       <path id="DejaVuSans-20" transform="scale(0.015625)"/>
       <path id="DejaVuSans-75" d="M 544 1381 
L 544 3500 
L 1119 3500 
L 1119 1403 
Q 1119 906 1312 657 
Q 1506 409 1894 409 
Q 2359 409 2629 706 
Q 2900 1003 2900 1516 
L 2900 3500 
L 3475 3500 
L 3475 0 
L 2900 0 
L 2900 538 
Q 2691 219 2414 64 
Q 2138 -91 1772 -91 
Q 1169 -91 856 284 
Q 544 659 544 1381 
z
M 1991 3584 
L 1991 3584 
z
" transform="scale(0.015625)"/>
       <path id="DejaVuSans-72" d="M 2631 2963 
Q 2534 3019 2420 3045 
Q 2306 3072 2169 3072 
Q 1681 3072 1420 2755 
Q 1159 2438 1159 1844 
L 1159 0 
L 581 0 
L 581 3500 
L 1159 3500 
L 1159 2956 
Q 1341 3275 1631 3429 
Q 1922 3584 2338 3584 
Q 2397 3584 2469 3576 
Q 2541 3569 2628 3553 
L 2631 2963 
z
" transform="scale(0.015625)"/>
       <path id="DejaVuSans-74" d="M 1172 4494 
L 1172 3500 
L 2356 3500 
L 2356 3053 
L 1172 3053 
L 1172 1153 
Q 1172 725 1289 603 
Q 1406 481 1766 481 
L 2356 481 
L 2356 0 
L 1766 0 
Q 1100 0 847 248 
Q 594 497 594 1153 
L 594 3053 
L 172 3053 
L 172 3500 
L 594 3500 
L 594 4494 
L 1172 4494 
z
" transform="scale(0.015625)"/>
       <path id="DejaVuSans-69" d="M 603 3500 
L 1178 3500 
L 1178 0 
L 603 0 
L 603 3500 
z
M 603 4863 
L 1178 4863 
L 1178 4134 
L 603 4134 
L 603 4863 
z
" transform="scale(0.015625)"/>
       <path id="DejaVuSans-6f" d="M 1959 3097 
Q 1497 3097 1228 2736 
Q 959 2375 959 1747 
Q 959 1119 1226 758 
Q 1494 397 1959 397 
Q 2419 397 2687 759 
Q 2956 1122 2956 1747 
Q 2956 2369 2687 2733 
Q 2419 3097 1959 3097 
z
M 1959 3584 
Q 2709 3584 3137 3096 
Q 3566 2609 3566 1747 
Q 3566 888 3137 398 
Q 2709 -91 1959 -91 
Q 1206 -91 779 398 
Q 353 888 353 1747 
Q 353 2609 779 3096 
Q 1206 3584 1959 3584 
z
" transform="scale(0.015625)"/>
       <path id="DejaVuSans-28" d="M 1984 4856 
Q 1566 4138 1362 3434 
Q 1159 2731 1159 2009 
Q 1159 1288 1364 580 
Q 1569 -128 1984 -844 
L 1484 -844 
Q 1016 -109 783 600 
Q 550 1309 550 2009 
Q 550 2706 781 3412 
Q 1013 4119 1484 4856 
L 1984 4856 
z
" transform="scale(0.015625)"/>
       <path id="DejaVuSans-6d" d="M 3328 2828 
Q 3544 3216 3844 3400 
Q 4144 3584 4550 3584 
Q 5097 3584 5394 3201 
Q 5691 2819 5691 2113 
L 5691 0 
L 5113 0 
L 5113 2094 
Q 5113 2597 4934 2840 
Q 4756 3084 4391 3084 
Q 3944 3084 3684 2787 
Q 3425 2491 3425 1978 
L 3425 0 
L 2847 0 
L 2847 2094 
Q 2847 2600 2669 2842 
Q 2491 3084 2119 3084 
Q 1678 3084 1418 2786 
Q 1159 2488 1159 1978 
L 1159 0 
L 581 0 
L 581 3500 
L 1159 3500 
L 1159 2956 
Q 1356 3278 1631 3431 
Q 1906 3584 2284 3584 
Q 2666 3584 2933 3390 
Q 3200 3197 3328 2828 
z
" transform="scale(0.015625)"/>
       <path id="DejaVuSans-29" d="M 513 4856 
L 1013 4856 
Q 1481 4119 1714 3412 
Q 1947 2706 1947 2009 
Q 1947 1309 1714 600 
Q 1481 -109 1013 -844 
L 513 -844 
Q 928 -128 1133 580 
Q 1338 1288 1338 2009 
Q 1338 2731 1133 3434 
Q 928 4138 513 4856 
z
" transform="scale(0.015625)"/>
      </defs>
      <use xlink:href="#DejaVuSans-48"/>
      <use xlink:href="#DejaVuSans-61" x="75.195312"/>
      <use xlink:href="#DejaVuSans-6e" x="136.474609"/>
      <use xlink:href="#DejaVuSans-64" x="199.853516"/>
      <use xlink:href="#DejaVuSans-73" x="263.330078"/>
      <use xlink:href="#DejaVuSans-68" x="315.429688"/>
      <use xlink:href="#DejaVuSans-61" x="378.808594"/>
      <use xlink:href="#DejaVuSans-6b" x="440.087891"/>
      <use xlink:href="#DejaVuSans-65" x="494.373047"/>
      <use xlink:href="#DejaVuSans-20" x="555.896484"/>
      <use xlink:href="#DejaVuSans-64" x="587.683594"/>
      <use xlink:href="#DejaVuSans-75" x="651.160156"/>
      <use xlink:href="#DejaVuSans-72" x="714.539062"/>
      <use xlink:href="#DejaVuSans-61" x="755.652344"/>
      <use xlink:href="#DejaVuSans-74" x="816.931641"/>
      <use xlink:href="#DejaVuSans-69" x="856.140625"/>
      <use xlink:href="#DejaVuSans-6f" x="883.923828"/>
      <use xlink:href="#DejaVuSans-6e" x="945.105469"/>
      <use xlink:href="#DejaVuSans-20" x="1008.484375"/>
      <use xlink:href="#DejaVuSans-28" x="1040.271484"/>
      <use xlink:href="#DejaVuSans-6d" x="1079.285156"/>
      <use xlink:href="#DejaVuSans-73" x="1176.697266"/>
      <use xlink:href="#DejaVuSans-29" x="1228.796875"/>
     </g>
    </g>
   </g>
   <g id="PolyCollection_1">
    <defs>
     <path id="mb7626aaaeb" d="M 204.955774 -70.655549 
L 187.624226 -70.655549 
L 161.699464 -70.919383 
L 117.313399 -71.183218 
L 91.53 -71.447053 
L 111.537225 -71.710887 
L 147.867044 -71.974722 
L 169.968137 -72.238556 
L 180.094539 -72.502391 
L 186.833302 -72.766225 
L 191.973161 -73.03006 
L 194.773627 -73.293895 
L 195.771024 -73.557729 
L 196.089494 -73.821564 
L 196.226548 -74.085398 
L 196.277387 -74.349233 
L 196.28855 -74.613067 
L 196.289905 -74.876902 
L 196.289997 -75.140737 
L 196.29 -75.404571 
L 196.29 -75.668406 
L 196.29 -75.93224 
L 196.29 -76.196075 
L 196.29 -76.459909 
L 196.29 -76.723744 
L 196.29 -76.987578 
L 196.29 -77.251413 
L 196.29 -77.515248 
L 196.29 -77.779082 
L 196.29 -78.042917 
L 196.29 -78.306751 
L 196.29 -78.570586 
L 196.29 -78.83442 
L 196.29 -79.098255 
L 196.29 -79.36209 
L 196.29 -79.625924 
L 196.29 -79.889759 
L 196.29 -80.153593 
L 196.29 -80.417428 
L 196.29 -80.681262 
L 196.29 -80.945097 
L 196.29 -81.208932 
L 196.29 -81.472766 
L 196.29 -81.736601 
L 196.29 -82.000435 
L 196.29 -82.26427 
L 196.29 -82.528104 
L 196.29 -82.791939 
L 196.29 -83.055773 
L 196.29 -83.319608 
L 196.29 -83.583443 
L 196.29 -83.847277 
L 196.29 -84.111112 
L 196.29 -84.374946 
L 196.29 -84.638781 
L 196.29 -84.902615 
L 196.29 -85.16645 
L 196.29 -85.430285 
L 196.29 -85.694119 
L 196.29 -85.957954 
L 196.29 -86.221788 
L 196.29 -86.485623 
L 196.29 -86.749457 
L 196.29 -87.013292 
L 196.29 -87.277127 
L 196.29 -87.540961 
L 196.29 -87.804796 
L 196.29 -88.06863 
L 196.29 -88.332465 
L 196.29 -88.596299 
L 196.29 -88.860134 
L 196.29 -89.123969 
L 196.29 -89.387803 
L 196.29 -89.651638 
L 196.29 -89.915472 
L 196.29 -90.179307 
L 196.29 -90.443141 
L 196.29 -90.706976 
L 196.29 -90.97081 
L 196.29 -91.234645 
L 196.29 -91.49848 
L 196.29 -91.762314 
L 196.29 -92.026149 
L 196.29 -92.289983 
L 196.29 -92.553818 
L 196.29 -92.817652 
L 196.29 -93.081487 
L 196.29 -93.345322 
L 196.29 -93.609156 
L 196.29 -93.872991 
L 196.29 -94.136825 
L 196.289998 -94.40066 
L 196.289932 -94.664494 
L 196.288889 -94.928329 
L 196.279823 -95.192164 
L 196.237472 -95.455998 
L 196.137269 -95.719833 
L 196.039831 -95.983667 
L 196.059159 -96.247502 
L 196.170005 -96.511336 
L 196.254861 -96.775171 
L 196.325139 -96.775171 
L 196.325139 -96.775171 
L 196.409995 -96.511336 
L 196.520841 -96.247502 
L 196.540169 -95.983667 
L 196.442731 -95.719833 
L 196.342528 -95.455998 
L 196.300177 -95.192164 
L 196.291111 -94.928329 
L 196.290068 -94.664494 
L 196.290002 -94.40066 
L 196.29 -94.136825 
L 196.29 -93.872991 
L 196.29 -93.609156 
L 196.29 -93.345322 
L 196.29 -93.081487 
L 196.29 -92.817652 
L 196.29 -92.553818 
L 196.29 -92.289983 
L 196.29 -92.026149 
L 196.29 -91.762314 
L 196.29 -91.49848 
L 196.29 -91.234645 
L 196.29 -90.97081 
L 196.29 -90.706976 
L 196.29 -90.443141 
L 196.29 -90.179307 
L 196.29 -89.915472 
L 196.29 -89.651638 
L 196.29 -89.387803 
L 196.29 -89.123969 
L 196.29 -88.860134 
L 196.29 -88.596299 
L 196.29 -88.332465 
L 196.29 -88.06863 
L 196.29 -87.804796 
L 196.29 -87.540961 
L 196.29 -87.277127 
L 196.29 -87.013292 
L 196.29 -86.749457 
L 196.29 -86.485623 
L 196.29 -86.221788 
L 196.29 -85.957954 
L 196.29 -85.694119 
L 196.29 -85.430285 
L 196.29 -85.16645 
L 196.29 -84.902615 
L 196.29 -84.638781 
L 196.29 -84.374946 
L 196.29 -84.111112 
L 196.29 -83.847277 
L 196.29 -83.583443 
L 196.29 -83.319608 
L 196.29 -83.055773 
L 196.29 -82.791939 
L 196.29 -82.528104 
L 196.29 -82.26427 
L 196.29 -82.000435 
L 196.29 -81.736601 
L 196.29 -81.472766 
L 196.29 -81.208932 
L 196.29 -80.945097 
L 196.29 -80.681262 
L 196.29 -80.417428 
L 196.29 -80.153593 
L 196.29 -79.889759 
L 196.29 -79.625924 
L 196.29 -79.36209 
L 196.29 -79.098255 
L 196.29 -78.83442 
L 196.29 -78.570586 
L 196.29 -78.306751 
L 196.29 -78.042917 
L 196.29 -77.779082 
L 196.29 -77.515248 
L 196.29 -77.251413 
L 196.29 -76.987578 
L 196.29 -76.723744 
L 196.29 -76.459909 
L 196.29 -76.196075 
L 196.29 -75.93224 
L 196.29 -75.668406 
L 196.29 -75.404571 
L 196.290003 -75.140737 
L 196.290095 -74.876902 
L 196.29145 -74.613067 
L 196.302613 -74.349233 
L 196.353452 -74.085398 
L 196.490506 -73.821564 
L 196.808976 -73.557729 
L 197.806373 -73.293895 
L 200.606839 -73.03006 
L 205.746698 -72.766225 
L 212.485461 -72.502391 
L 222.611863 -72.238556 
L 244.712956 -71.974722 
L 281.042775 -71.710887 
L 301.05 -71.447053 
L 275.266601 -71.183218 
L 230.880536 -70.919383 
L 204.955774 -70.655549 
z
" style="stroke: #595959; stroke-width: 1.25"/>
    </defs>
    <g clip-path="url(#pc6b599fad6)">
     <use xlink:href="#mb7626aaaeb" x="0" y="432" style="fill: #72b6a1; stroke: #595959; stroke-width: 1.25"/>
    </g>
   </g>
   <g id="PolyCollection_2">
    <defs>
     <path id="m9050ef7e27" d="M 458.497513 -169.200759 
L 457.882487 -169.200759 
L 457.46947 -171.195329 
L 456.563908 -173.1899 
L 454.670929 -175.18447 
L 450.969679 -177.179041 
L 444.336238 -179.173611 
L 433.635041 -181.168182 
L 418.351031 -183.162752 
L 399.37512 -185.157322 
L 379.449408 -187.151893 
L 362.737973 -189.146463 
L 353.43 -191.141034 
L 353.992986 -193.135604 
L 364.087006 -195.130174 
L 380.802989 -197.124745 
L 400.026325 -199.119315 
L 418.057672 -201.113886 
L 432.640709 -203.108456 
L 443.104116 -205.103026 
L 449.886406 -207.097597 
L 453.905417 -209.092167 
L 456.090309 -211.086738 
L 457.158235 -213.081308 
L 457.57267 -215.075879 
L 457.591873 -217.070449 
L 457.345388 -219.065019 
L 456.908403 -221.05959 
L 456.358273 -223.05416 
L 455.800992 -225.048731 
L 455.361589 -227.043301 
L 455.147237 -229.037871 
L 455.207186 -231.032442 
L 455.515639 -233.027012 
L 455.987806 -235.021583 
L 456.517566 -237.016153 
L 457.014397 -239.010724 
L 457.423345 -241.005294 
L 457.725921 -242.999864 
L 457.929618 -244.994435 
L 458.055009 -246.989005 
L 458.125603 -248.983576 
L 458.161859 -250.978146 
L 458.178784 -252.972716 
L 458.185939 -254.967287 
L 458.188668 -256.961857 
L 458.189605 -258.956428 
L 458.189895 -260.950998 
L 458.189975 -262.945568 
L 458.189995 -264.940139 
L 458.189999 -266.934709 
L 458.19 -268.92928 
L 458.19 -270.92385 
L 458.189998 -272.918421 
L 458.189992 -274.912991 
L 458.189967 -276.907561 
L 458.189871 -278.902132 
L 458.189544 -280.896702 
L 458.188548 -282.891273 
L 458.185823 -284.885843 
L 458.179148 -286.880413 
L 458.164495 -288.874984 
L 458.135662 -290.869554 
L 458.084786 -292.864125 
L 458.004162 -294.858695 
L 457.888973 -296.853265 
L 457.739352 -298.847836 
L 457.559838 -300.842406 
L 457.355921 -302.836977 
L 457.130585 -304.831547 
L 456.885711 -306.826118 
L 456.630408 -308.820688 
L 456.391354 -310.815258 
L 456.214783 -312.809829 
L 456.15303 -314.804399 
L 456.240183 -316.79897 
L 456.471918 -318.79354 
L 456.803626 -320.78811 
L 457.168457 -322.782681 
L 457.503577 -324.777251 
L 457.769562 -326.771822 
L 457.955245 -328.766392 
L 458.070433 -330.760962 
L 458.134225 -332.755533 
L 458.165474 -334.750103 
L 458.177914 -336.744674 
L 458.179149 -338.739244 
L 458.171688 -340.733815 
L 458.154789 -342.728385 
L 458.126736 -344.722955 
L 458.087452 -346.717526 
L 458.040806 -348.712096 
L 457.995329 -350.706667 
L 457.962213 -352.701237 
L 457.950983 -354.695807 
L 457.965094 -356.690378 
L 458.000223 -358.684948 
L 458.046399 -360.679519 
L 458.092559 -362.674089 
L 458.130708 -364.668659 
L 458.157647 -366.66323 
L 458.222353 -366.66323 
L 458.222353 -366.66323 
L 458.249292 -364.668659 
L 458.287441 -362.674089 
L 458.333601 -360.679519 
L 458.379777 -358.684948 
L 458.414906 -356.690378 
L 458.429017 -354.695807 
L 458.417787 -352.701237 
L 458.384671 -350.706667 
L 458.339194 -348.712096 
L 458.292548 -346.717526 
L 458.253264 -344.722955 
L 458.225211 -342.728385 
L 458.208312 -340.733815 
L 458.200851 -338.739244 
L 458.202086 -336.744674 
L 458.214526 -334.750103 
L 458.245775 -332.755533 
L 458.309567 -330.760962 
L 458.424755 -328.766392 
L 458.610438 -326.771822 
L 458.876423 -324.777251 
L 459.211543 -322.782681 
L 459.576374 -320.78811 
L 459.908082 -318.79354 
L 460.139817 -316.79897 
L 460.22697 -314.804399 
L 460.165217 -312.809829 
L 459.988646 -310.815258 
L 459.749592 -308.820688 
L 459.494289 -306.826118 
L 459.249415 -304.831547 
L 459.024079 -302.836977 
L 458.820162 -300.842406 
L 458.640648 -298.847836 
L 458.491027 -296.853265 
L 458.375838 -294.858695 
L 458.295214 -292.864125 
L 458.244338 -290.869554 
L 458.215505 -288.874984 
L 458.200852 -286.880413 
L 458.194177 -284.885843 
L 458.191452 -282.891273 
L 458.190456 -280.896702 
L 458.190129 -278.902132 
L 458.190033 -276.907561 
L 458.190008 -274.912991 
L 458.190002 -272.918421 
L 458.19 -270.92385 
L 458.19 -268.92928 
L 458.190001 -266.934709 
L 458.190005 -264.940139 
L 458.190025 -262.945568 
L 458.190105 -260.950998 
L 458.190395 -258.956428 
L 458.191332 -256.961857 
L 458.194061 -254.967287 
L 458.201216 -252.972716 
L 458.218141 -250.978146 
L 458.254397 -248.983576 
L 458.324991 -246.989005 
L 458.450382 -244.994435 
L 458.654079 -242.999864 
L 458.956655 -241.005294 
L 459.365603 -239.010724 
L 459.862434 -237.016153 
L 460.392194 -235.021583 
L 460.864361 -233.027012 
L 461.172814 -231.032442 
L 461.232763 -229.037871 
L 461.018411 -227.043301 
L 460.579008 -225.048731 
L 460.021727 -223.05416 
L 459.471597 -221.05959 
L 459.034612 -219.065019 
L 458.788127 -217.070449 
L 458.80733 -215.075879 
L 459.221765 -213.081308 
L 460.289691 -211.086738 
L 462.474583 -209.092167 
L 466.493594 -207.097597 
L 473.275884 -205.103026 
L 483.739291 -203.108456 
L 498.322328 -201.113886 
L 516.353675 -199.119315 
L 535.577011 -197.124745 
L 552.292994 -195.130174 
L 562.387014 -193.135604 
L 562.95 -191.141034 
L 553.642027 -189.146463 
L 536.930592 -187.151893 
L 517.00488 -185.157322 
L 498.028969 -183.162752 
L 482.744959 -181.168182 
L 472.043762 -179.173611 
L 465.410321 -177.179041 
L 461.709071 -175.18447 
L 459.816092 -173.1899 
L 458.91053 -171.195329 
L 458.497513 -169.200759 
z
" style="stroke: #595959; stroke-width: 1.25"/>
    </defs>
    <g clip-path="url(#pc6b599fad6)">
     <use xlink:href="#m9050ef7e27" x="0" y="432" style="fill: #e99675; stroke: #595959; stroke-width: 1.25"/>
    </g>
   </g>
   <g id="PolyCollection_3">
    <defs>
     <path id="m268d4fd895" d="M 720.367515 -171.589524 
L 719.812485 -171.589524 
L 719.362571 -173.780614 
L 718.287284 -175.971704 
L 715.911749 -178.162793 
L 711.147172 -180.353883 
L 702.614232 -182.544973 
L 689.177203 -184.736063 
L 670.8807 -186.927152 
L 649.846827 -189.118242 
L 630.354008 -191.309332 
L 617.569944 -193.500422 
L 615.33 -195.691511 
L 624.255507 -197.882601 
L 641.474981 -200.073691 
L 662.117485 -202.26478 
L 681.525851 -204.45587 
L 696.836605 -206.64696 
L 707.29115 -208.83805 
L 713.582217 -211.029139 
L 716.948469 -213.220229 
L 718.535097 -215.411319 
L 719.142345 -217.602409 
L 719.236965 -219.793498 
L 719.06501 -221.984588 
L 718.766344 -224.175678 
L 718.449874 -226.366767 
L 718.218634 -228.557857 
L 718.153136 -230.748947 
L 718.279862 -232.940037 
L 718.558244 -235.131126 
L 718.902597 -237.322216 
L 719.226117 -239.513306 
L 719.477536 -241.704395 
L 719.650078 -243.895485 
L 719.765219 -246.086575 
L 719.849102 -248.277665 
L 719.917767 -250.468754 
L 719.975515 -252.659844 
L 720.020848 -254.850934 
L 720.052508 -257.042024 
L 720.071866 -259.233113 
L 720.082198 -261.424203 
L 720.087018 -263.615293 
L 720.088988 -265.806382 
L 720.089695 -267.997472 
L 720.089915 -270.188562 
L 720.089963 -272.379652 
L 720.08992 -274.570741 
L 720.089708 -276.761831 
L 720.089013 -278.952921 
L 720.087013 -281.144011 
L 720.081907 -283.3351 
L 720.07032 -285.52619 
L 720.04687 -287.71728 
L 720.004385 -289.908369 
L 719.935149 -292.099459 
L 719.833089 -294.290549 
L 719.696113 -296.481639 
L 719.527253 -298.672728 
L 719.333223 -300.863818 
L 719.120167 -303.054908 
L 718.889198 -305.245998 
L 718.637417 -307.437087 
L 718.368674 -309.628177 
L 718.109471 -311.819267 
L 717.915179 -314.010356 
L 717.853418 -316.201446 
L 717.969178 -318.392536 
L 718.255193 -320.583626 
L 718.650517 -322.774715 
L 719.068705 -324.965805 
L 719.435129 -327.156895 
L 719.710264 -329.347985 
L 719.890654 -331.539074 
L 719.995162 -333.730164 
L 720.049088 -335.921254 
L 720.073999 -338.112343 
L 720.084332 -340.303433 
L 720.088184 -342.494523 
L 720.089474 -344.685613 
L 720.089857 -346.876702 
L 720.089937 -349.067792 
L 720.089868 -351.258882 
L 720.089549 -353.449971 
L 720.088561 -355.641061 
L 720.085917 -357.832151 
L 720.079722 -360.023241 
L 720.067045 -362.21433 
L 720.044511 -364.40542 
L 720.010021 -366.59651 
L 719.965234 -368.7876 
L 719.91731 -370.978689 
L 719.877927 -373.169779 
L 719.858925 -375.360869 
L 719.866606 -377.551958 
L 719.898382 -379.743048 
L 719.944168 -381.934138 
L 719.991527 -384.125228 
L 720.031003 -386.316317 
L 720.058639 -388.507407 
L 720.121361 -388.507407 
L 720.121361 -388.507407 
L 720.148997 -386.316317 
L 720.188473 -384.125228 
L 720.235832 -381.934138 
L 720.281618 -379.743048 
L 720.313394 -377.551958 
L 720.321075 -375.360869 
L 720.302073 -373.169779 
L 720.26269 -370.978689 
L 720.214766 -368.7876 
L 720.169979 -366.59651 
L 720.135489 -364.40542 
L 720.112955 -362.21433 
L 720.100278 -360.023241 
L 720.094083 -357.832151 
L 720.091439 -355.641061 
L 720.090451 -353.449971 
L 720.090132 -351.258882 
L 720.090063 -349.067792 
L 720.090143 -346.876702 
L 720.090526 -344.685613 
L 720.091816 -342.494523 
L 720.095668 -340.303433 
L 720.106001 -338.112343 
L 720.130912 -335.921254 
L 720.184838 -333.730164 
L 720.289346 -331.539074 
L 720.469736 -329.347985 
L 720.744871 -327.156895 
L 721.111295 -324.965805 
L 721.529483 -322.774715 
L 721.924807 -320.583626 
L 722.210822 -318.392536 
L 722.326582 -316.201446 
L 722.264821 -314.010356 
L 722.070529 -311.819267 
L 721.811326 -309.628177 
L 721.542583 -307.437087 
L 721.290802 -305.245998 
L 721.059833 -303.054908 
L 720.846777 -300.863818 
L 720.652747 -298.672728 
L 720.483887 -296.481639 
L 720.346911 -294.290549 
L 720.244851 -292.099459 
L 720.175615 -289.908369 
L 720.13313 -287.71728 
L 720.10968 -285.52619 
L 720.098093 -283.3351 
L 720.092987 -281.144011 
L 720.090987 -278.952921 
L 720.090292 -276.761831 
L 720.09008 -274.570741 
L 720.090037 -272.379652 
L 720.090085 -270.188562 
L 720.090305 -267.997472 
L 720.091012 -265.806382 
L 720.092982 -263.615293 
L 720.097802 -261.424203 
L 720.108134 -259.233113 
L 720.127492 -257.042024 
L 720.159152 -254.850934 
L 720.204485 -252.659844 
L 720.262233 -250.468754 
L 720.330898 -248.277665 
L 720.414781 -246.086575 
L 720.529922 -243.895485 
L 720.702464 -241.704395 
L 720.953883 -239.513306 
L 721.277403 -237.322216 
L 721.621756 -235.131126 
L 721.900138 -232.940037 
L 722.026864 -230.748947 
L 721.961366 -228.557857 
L 721.730126 -226.366767 
L 721.413656 -224.175678 
L 721.11499 -221.984588 
L 720.943035 -219.793498 
L 721.037655 -217.602409 
L 721.644903 -215.411319 
L 723.231531 -213.220229 
L 726.597783 -211.029139 
L 732.88885 -208.83805 
L 743.343395 -206.64696 
L 758.654149 -204.45587 
L 778.062515 -202.26478 
L 798.705019 -200.073691 
L 815.924493 -197.882601 
L 824.85 -195.691511 
L 822.610056 -193.500422 
L 809.825992 -191.309332 
L 790.333173 -189.118242 
L 769.2993 -186.927152 
L 751.002797 -184.736063 
L 737.565768 -182.544973 
L 729.032828 -180.353883 
L 724.268251 -178.162793 
L 721.892716 -175.971704 
L 720.817429 -173.780614 
L 720.367515 -171.589524 
z
" style="stroke: #595959; stroke-width: 1.25"/>
    </defs>
    <g clip-path="url(#pc6b599fad6)">
     <use xlink:href="#m268d4fd895" x="0" y="432" style="fill: #95a3c3; stroke: #595959; stroke-width: 1.25"/>
    </g>
   </g>
   <g id="line2d_6">
    <path d="M 196.29 360.593055 
L 196.29 360.647897 
" clip-path="url(#pc6b599fad6)" style="fill: none; stroke: #000000"/>
   </g>
   <g id="line2d_7">
    <path d="M 196.29 360.477375 
L 196.29 360.339415 
" clip-path="url(#pc6b599fad6)" style="fill: none; stroke: #000000"/>
   </g>
   <g id="line2d_8">
    <path d="M 186.46875 360.647897 
L 206.11125 360.647897 
" clip-path="url(#pc6b599fad6)" style="fill: none; stroke: #000000; stroke-linecap: round"/>
   </g>
   <g id="line2d_9">
    <path d="M 186.46875 360.339415 
L 206.11125 360.339415 
" clip-path="url(#pc6b599fad6)" style="fill: none; stroke: #000000; stroke-linecap: round"/>
   </g>
   <g id="line2d_10">
    <path d="M 458.19 240.947615 
L 458.19 241.310081 
" clip-path="url(#pc6b599fad6)" style="fill: none; stroke: #000000"/>
   </g>
   <g id="line2d_11">
    <path d="M 458.19 238.716265 
L 458.19 235.479779 
" clip-path="url(#pc6b599fad6)" style="fill: none; stroke: #000000"/>
   </g>
   <g id="line2d_12">
    <path d="M 448.36875 241.310081 
L 468.01125 241.310081 
" clip-path="url(#pc6b599fad6)" style="fill: none; stroke: #000000; stroke-linecap: round"/>
   </g>
   <g id="line2d_13">
    <path d="M 448.36875 235.479779 
L 468.01125 235.479779 
" clip-path="url(#pc6b599fad6)" style="fill: none; stroke: #000000; stroke-linecap: round"/>
   </g>
   <g id="line2d_14">
    <path d="M 720.09 237.813956 
L 720.09 238.259541 
" clip-path="url(#pc6b599fad6)" style="fill: none; stroke: #000000"/>
   </g>
   <g id="line2d_15">
    <path d="M 720.09 235.982775 
L 720.09 233.299842 
" clip-path="url(#pc6b599fad6)" style="fill: none; stroke: #000000"/>
   </g>
   <g id="line2d_16">
    <path d="M 710.26875 238.259541 
L 729.91125 238.259541 
" clip-path="url(#pc6b599fad6)" style="fill: none; stroke: #000000; stroke-linecap: round"/>
   </g>
   <g id="line2d_17">
    <path d="M 710.26875 233.299842 
L 729.91125 233.299842 
" clip-path="url(#pc6b599fad6)" style="fill: none; stroke: #000000; stroke-linecap: round"/>
   </g>
   <g id="line2d_18">
    <path d="M 176.6475 360.565635 
L 215.9325 360.565635 
" clip-path="url(#pc6b599fad6)" style="fill: none; stroke: #ff0000; stroke-width: 2"/>
   </g>
   <g id="line2d_19">
    <path d="M 438.5475 240.629708 
L 477.8325 240.629708 
" clip-path="url(#pc6b599fad6)" style="fill: none; stroke: #ff0000; stroke-width: 2"/>
   </g>
   <g id="line2d_20">
    <path d="M 700.4475 237.538037 
L 739.7325 237.538037 
" clip-path="url(#pc6b599fad6)" style="fill: none; stroke: #ff0000; stroke-width: 2"/>
   </g>
   <g id="patch_3">
    <path d="M 65.34 377.237044 
L 65.34 27.6 
" style="fill: none; stroke: #cccccc; stroke-width: 1.25; stroke-linejoin: miter; stroke-linecap: square"/>
   </g>
   <g id="patch_4">
    <path d="M 851.04 377.237044 
L 851.04 27.6 
" style="fill: none; stroke: #cccccc; stroke-width: 1.25; stroke-linejoin: miter; stroke-linecap: square"/>
   </g>
   <g id="patch_5">
    <path d="M 65.34 377.237044 
L 851.04 377.237044 
" style="fill: none; stroke: #cccccc; stroke-width: 1.25; stroke-linejoin: miter; stroke-linecap: square"/>
   </g>
   <g id="patch_6">
    <path d="M 65.34 27.6 
L 851.04 27.6 
" style="fill: none; stroke: #cccccc; stroke-width: 1.25; stroke-linejoin: miter; stroke-linecap: square"/>
   </g>
   <g id="text_10">
    <!-- Handshake duration on QUIC with secp521r1 signature algorithm — Local YDE (35ms/2%) -->
    <g style="fill: #262626" transform="translate(188.003438 21.6) scale(0.12 -0.12)">
     <defs>
      <path id="DejaVuSans-51" d="M 2522 4238 
Q 1834 4238 1429 3725 
Q 1025 3213 1025 2328 
Q 1025 1447 1429 934 
Q 1834 422 2522 422 
Q 3209 422 3611 934 
Q 4013 1447 4013 2328 
Q 4013 3213 3611 3725 
Q 3209 4238 2522 4238 
z
M 3406 84 
L 4238 -825 
L 3475 -825 
L 2784 -78 
Q 2681 -84 2626 -87 
Q 2572 -91 2522 -91 
Q 1538 -91 948 567 
Q 359 1225 359 2328 
Q 359 3434 948 4092 
Q 1538 4750 2522 4750 
Q 3503 4750 4090 4092 
Q 4678 3434 4678 2328 
Q 4678 1516 4351 937 
Q 4025 359 3406 84 
z
" transform="scale(0.015625)"/>
      <path id="DejaVuSans-55" d="M 556 4666 
L 1191 4666 
L 1191 1831 
Q 1191 1081 1462 751 
Q 1734 422 2344 422 
Q 2950 422 3222 751 
Q 3494 1081 3494 1831 
L 3494 4666 
L 4128 4666 
L 4128 1753 
Q 4128 841 3676 375 
Q 3225 -91 2344 -91 
Q 1459 -91 1007 375 
Q 556 841 556 1753 
L 556 4666 
z
" transform="scale(0.015625)"/>
      <path id="DejaVuSans-49" d="M 628 4666 
L 1259 4666 
L 1259 0 
L 628 0 
L 628 4666 
z
" transform="scale(0.015625)"/>
      <path id="DejaVuSans-43" d="M 4122 4306 
L 4122 3641 
Q 3803 3938 3442 4084 
Q 3081 4231 2675 4231 
Q 1875 4231 1450 3742 
Q 1025 3253 1025 2328 
Q 1025 1406 1450 917 
Q 1875 428 2675 428 
Q 3081 428 3442 575 
Q 3803 722 4122 1019 
L 4122 359 
Q 3791 134 3420 21 
Q 3050 -91 2638 -91 
Q 1578 -91 968 557 
Q 359 1206 359 2328 
Q 359 3453 968 4101 
Q 1578 4750 2638 4750 
Q 3056 4750 3426 4639 
Q 3797 4528 4122 4306 
z
" transform="scale(0.015625)"/>
      <path id="DejaVuSans-77" d="M 269 3500 
L 844 3500 
L 1563 769 
L 2278 3500 
L 2956 3500 
L 3675 769 
L 4391 3500 
L 4966 3500 
L 4050 0 
L 3372 0 
L 2619 2869 
L 1863 0 
L 1184 0 
L 269 3500 
z
" transform="scale(0.015625)"/>
      <path id="DejaVuSans-67" d="M 2906 1791 
Q 2906 2416 2648 2759 
Q 2391 3103 1925 3103 
Q 1463 3103 1205 2759 
Q 947 2416 947 1791 
Q 947 1169 1205 825 
Q 1463 481 1925 481 
Q 2391 481 2648 825 
Q 2906 1169 2906 1791 
z
M 3481 434 
Q 3481 -459 3084 -895 
Q 2688 -1331 1869 -1331 
Q 1566 -1331 1297 -1286 
Q 1028 -1241 775 -1147 
L 775 -588 
Q 1028 -725 1275 -790 
Q 1522 -856 1778 -856 
Q 2344 -856 2625 -561 
Q 2906 -266 2906 331 
L 2906 616 
Q 2728 306 2450 153 
Q 2172 0 1784 0 
Q 1141 0 747 490 
Q 353 981 353 1791 
Q 353 2603 747 3093 
Q 1141 3584 1784 3584 
Q 2172 3584 2450 3431 
Q 2728 3278 2906 2969 
L 2906 3500 
L 3481 3500 
L 3481 434 
z
" transform="scale(0.015625)"/>
      <path id="DejaVuSans-6c" d="M 603 4863 
L 1178 4863 
L 1178 0 
L 603 0 
L 603 4863 
z
" transform="scale(0.015625)"/>
      <path id="DejaVuSans-2014" d="M 313 1978 
L 6088 1978 
L 6088 1528 
L 313 1528 
L 313 1978 
z
" transform="scale(0.015625)"/>
      <path id="DejaVuSans-4c" d="M 628 4666 
L 1259 4666 
L 1259 531 
L 3531 531 
L 3531 0 
L 628 0 
L 628 4666 
z
" transform="scale(0.015625)"/>
      <path id="DejaVuSans-59" d="M -13 4666 
L 666 4666 
L 1959 2747 
L 3244 4666 
L 3922 4666 
L 2272 2222 
L 2272 0 
L 1638 0 
L 1638 2222 
L -13 4666 
z
" transform="scale(0.015625)"/>
      <path id="DejaVuSans-44" d="M 1259 4147 
L 1259 519 
L 2022 519 
Q 2988 519 3436 956 
Q 3884 1394 3884 2338 
Q 3884 3275 3436 3711 
Q 2988 4147 2022 4147 
L 1259 4147 
z
M 628 4666 
L 1925 4666 
Q 3281 4666 3915 4102 
Q 4550 3538 4550 2338 
Q 4550 1131 3912 565 
Q 3275 0 1925 0 
L 628 0 
L 628 4666 
z
" transform="scale(0.015625)"/>
      <path id="DejaVuSans-45" d="M 628 4666 
L 3578 4666 
L 3578 4134 
L 1259 4134 
L 1259 2753 
L 3481 2753 
L 3481 2222 
L 1259 2222 
L 1259 531 
L 3634 531 
L 3634 0 
L 628 0 
L 628 4666 
z
" transform="scale(0.015625)"/>
      <path id="DejaVuSans-33" d="M 2597 2516 
Q 3050 2419 3304 2112 
Q 3559 1806 3559 1356 
Q 3559 666 3084 287 
Q 2609 -91 1734 -91 
Q 1441 -91 1130 -33 
Q 819 25 488 141 
L 488 750 
Q 750 597 1062 519 
Q 1375 441 1716 441 
Q 2309 441 2620 675 
Q 2931 909 2931 1356 
Q 2931 1769 2642 2001 
Q 2353 2234 1838 2234 
L 1294 2234 
L 1294 2753 
L 1863 2753 
Q 2328 2753 2575 2939 
Q 2822 3125 2822 3475 
Q 2822 3834 2567 4026 
Q 2313 4219 1838 4219 
Q 1578 4219 1281 4162 
Q 984 4106 628 3988 
L 628 4550 
Q 988 4650 1302 4700 
Q 1616 4750 1894 4750 
Q 2613 4750 3031 4423 
Q 3450 4097 3450 3541 
Q 3450 3153 3228 2886 
Q 3006 2619 2597 2516 
z
" transform="scale(0.015625)"/>
      <path id="DejaVuSans-2f" d="M 1625 4666 
L 2156 4666 
L 531 -594 
L 0 -594 
L 1625 4666 
z
" transform="scale(0.015625)"/>
      <path id="DejaVuSans-25" d="M 4653 2053 
Q 4381 2053 4226 1822 
Q 4072 1591 4072 1178 
Q 4072 772 4226 539 
Q 4381 306 4653 306 
Q 4919 306 5073 539 
Q 5228 772 5228 1178 
Q 5228 1588 5073 1820 
Q 4919 2053 4653 2053 
z
M 4653 2450 
Q 5147 2450 5437 2106 
Q 5728 1763 5728 1178 
Q 5728 594 5436 251 
Q 5144 -91 4653 -91 
Q 4153 -91 3862 251 
Q 3572 594 3572 1178 
Q 3572 1766 3864 2108 
Q 4156 2450 4653 2450 
z
M 1428 4353 
Q 1159 4353 1004 4120 
Q 850 3888 850 3481 
Q 850 3069 1003 2837 
Q 1156 2606 1428 2606 
Q 1700 2606 1854 2837 
Q 2009 3069 2009 3481 
Q 2009 3884 1853 4118 
Q 1697 4353 1428 4353 
z
M 4250 4750 
L 4750 4750 
L 1831 -91 
L 1331 -91 
L 4250 4750 
z
M 1428 4750 
Q 1922 4750 2215 4408 
Q 2509 4066 2509 3481 
Q 2509 2891 2217 2550 
Q 1925 2209 1428 2209 
Q 931 2209 642 2551 
Q 353 2894 353 3481 
Q 353 4063 643 4406 
Q 934 4750 1428 4750 
z
" transform="scale(0.015625)"/>
     </defs>
     <use xlink:href="#DejaVuSans-48"/>
     <use xlink:href="#DejaVuSans-61" x="75.195312"/>
     <use xlink:href="#DejaVuSans-6e" x="136.474609"/>
     <use xlink:href="#DejaVuSans-64" x="199.853516"/>
     <use xlink:href="#DejaVuSans-73" x="263.330078"/>
     <use xlink:href="#DejaVuSans-68" x="315.429688"/>
     <use xlink:href="#DejaVuSans-61" x="378.808594"/>
     <use xlink:href="#DejaVuSans-6b" x="440.087891"/>
     <use xlink:href="#DejaVuSans-65" x="494.373047"/>
     <use xlink:href="#DejaVuSans-20" x="555.896484"/>
     <use xlink:href="#DejaVuSans-64" x="587.683594"/>
     <use xlink:href="#DejaVuSans-75" x="651.160156"/>
     <use xlink:href="#DejaVuSans-72" x="714.539062"/>
     <use xlink:href="#DejaVuSans-61" x="755.652344"/>
     <use xlink:href="#DejaVuSans-74" x="816.931641"/>
     <use xlink:href="#DejaVuSans-69" x="856.140625"/>
     <use xlink:href="#DejaVuSans-6f" x="883.923828"/>
     <use xlink:href="#DejaVuSans-6e" x="945.105469"/>
     <use xlink:href="#DejaVuSans-20" x="1008.484375"/>
     <use xlink:href="#DejaVuSans-6f" x="1040.271484"/>
     <use xlink:href="#DejaVuSans-6e" x="1101.453125"/>
     <use xlink:href="#DejaVuSans-20" x="1164.832031"/>
     <use xlink:href="#DejaVuSans-51" x="1196.619141"/>
     <use xlink:href="#DejaVuSans-55" x="1275.330078"/>
     <use xlink:href="#DejaVuSans-49" x="1348.523438"/>
     <use xlink:href="#DejaVuSans-43" x="1378.015625"/>
     <use xlink:href="#DejaVuSans-20" x="1447.839844"/>
     <use xlink:href="#DejaVuSans-77" x="1479.626953"/>
     <use xlink:href="#DejaVuSans-69" x="1561.414062"/>
     <use xlink:href="#DejaVuSans-74" x="1589.197266"/>
     <use xlink:href="#DejaVuSans-68" x="1628.40625"/>
     <use xlink:href="#DejaVuSans-20" x="1691.785156"/>
     <use xlink:href="#DejaVuSans-73" x="1723.572266"/>
     <use xlink:href="#DejaVuSans-65" x="1775.671875"/>
     <use xlink:href="#DejaVuSans-63" x="1837.195312"/>
     <use xlink:href="#DejaVuSans-70" x="1892.175781"/>
     <use xlink:href="#DejaVuSans-35" x="1955.652344"/>
     <use xlink:href="#DejaVuSans-32" x="2019.275391"/>
     <use xlink:href="#DejaVuSans-31" x="2082.898438"/>
     <use xlink:href="#DejaVuSans-72" x="2146.521484"/>
     <use xlink:href="#DejaVuSans-31" x="2187.634766"/>
     <use xlink:href="#DejaVuSans-20" x="2251.257812"/>
     <use xlink:href="#DejaVuSans-73" x="2283.044922"/>
     <use xlink:href="#DejaVuSans-69" x="2335.144531"/>
     <use xlink:href="#DejaVuSans-67" x="2362.927734"/>
     <use xlink:href="#DejaVuSans-6e" x="2426.404297"/>
     <use xlink:href="#DejaVuSans-61" x="2489.783203"/>
     <use xlink:href="#DejaVuSans-74" x="2551.0625"/>
     <use xlink:href="#DejaVuSans-75" x="2590.271484"/>
     <use xlink:href="#DejaVuSans-72" x="2653.650391"/>
     <use xlink:href="#DejaVuSans-65" x="2692.513672"/>
     <use xlink:href="#DejaVuSans-20" x="2754.037109"/>
     <use xlink:href="#DejaVuSans-61" x="2785.824219"/>
     <use xlink:href="#DejaVuSans-6c" x="2847.103516"/>
     <use xlink:href="#DejaVuSans-67" x="2874.886719"/>
     <use xlink:href="#DejaVuSans-6f" x="2938.363281"/>
     <use xlink:href="#DejaVuSans-72" x="2999.544922"/>
     <use xlink:href="#DejaVuSans-69" x="3040.658203"/>
     <use xlink:href="#DejaVuSans-74" x="3068.441406"/>
     <use xlink:href="#DejaVuSans-68" x="3107.650391"/>
     <use xlink:href="#DejaVuSans-6d" x="3171.029297"/>
     <use xlink:href="#DejaVuSans-20" x="3268.441406"/>
     <use xlink:href="#DejaVuSans-2014" x="3300.228516"/>
     <use xlink:href="#DejaVuSans-20" x="3400.228516"/>
     <use xlink:href="#DejaVuSans-4c" x="3432.015625"/>
     <use xlink:href="#DejaVuSans-6f" x="3485.978516"/>
     <use xlink:href="#DejaVuSans-63" x="3547.160156"/>
     <use xlink:href="#DejaVuSans-61" x="3602.140625"/>
     <use xlink:href="#DejaVuSans-6c" x="3663.419922"/>
     <use xlink:href="#DejaVuSans-20" x="3691.203125"/>
     <use xlink:href="#DejaVuSans-59" x="3722.990234"/>
     <use xlink:href="#DejaVuSans-44" x="3784.074219"/>
     <use xlink:href="#DejaVuSans-45" x="3861.076172"/>
     <use xlink:href="#DejaVuSans-20" x="3924.259766"/>
     <use xlink:href="#DejaVuSans-28" x="3956.046875"/>
     <use xlink:href="#DejaVuSans-33" x="3995.060547"/>
     <use xlink:href="#DejaVuSans-35" x="4058.683594"/>
     <use xlink:href="#DejaVuSans-6d" x="4122.306641"/>
     <use xlink:href="#DejaVuSans-73" x="4219.71875"/>
     <use xlink:href="#DejaVuSans-2f" x="4271.818359"/>
     <use xlink:href="#DejaVuSans-32" x="4305.509766"/>
     <use xlink:href="#DejaVuSans-25" x="4369.132812"/>
     <use xlink:href="#DejaVuSans-29" x="4464.152344"/>
    </g>
   </g>
  </g>
 </g>
 <defs>
  <clipPath id="pc6b599fad6">
   <rect x="65.34" y="27.6" width="785.7" height="349.637044"/>
  </clipPath>
 </defs>
</svg>
