<?xml version="1.0" encoding="utf-8" standalone="no"?>
<!DOCTYPE svg PUBLIC "-//W3C//DTD SVG 1.1//EN"
  "http://www.w3.org/Graphics/SVG/1.1/DTD/svg11.dtd">
<svg xmlns:xlink="http://www.w3.org/1999/xlink" width="864pt" height="432pt" viewBox="0 0 864 432" xmlns="http://www.w3.org/2000/svg" version="1.1">
 <metadata>
  <rdf:RDF xmlns:dc="http://purl.org/dc/elements/1.1/" xmlns:cc="http://creativecommons.org/ns#" xmlns:rdf="http://www.w3.org/1999/02/22-rdf-syntax-ns#">
   <cc:Work>
    <dc:type rdf:resource="http://purl.org/dc/dcmitype/StillImage"/>
    <dc:date>2026-03-21T14:06:27.151450</dc:date>
    <dc:format>image/svg+xml</dc:format>
    <dc:creator>
     <cc:Agent>
      <dc:title>Matplotlib v3.6.3, https://matplotlib.org/</dc:title>
     </cc:Agent>
    </dc:creator>
   </cc:Work>
  </rdf:RDF>
 </metadata>
 <defs>
  <style type="text/css">*{stroke-linejoin: round; stroke-linecap: butt}</style>
 </defs>
 <g id="figure_1">
  <g id="patch_1">
   <path d="M 0 432 
L 864 432 
L 864 0 
L 0 0 
z
" style="fill: #ffffff"/>
  </g>
  <g id="axes_1">
   <g id="patch_2">
    <path d="M 58.32 377.237044 
L 851.04 377.237044 
L 851.04 27.6 
L 58.32 27.6 
z
" style="fill: #ffffff"/>
   </g>
   <g id="matplotlib.axis_1">
    <g id="xtick_1">
     <g id="text_1">
      <!-- P-384 -->
      <g style="fill: #262626" transform="translate(103.911421 404.396088) rotate(-15) scale(0.12 -0.12)">
       <defs>
        <path id="DejaVuSans-50" d="M 1259 4147 
L 1259 2394 
L 2053 2394 
Q 2494 2394 2734 2622 
Q 2975 2850 2975 3272 
Q 2975 3691 2734 3919 
Q 2494 4147 2053 4147 
L 1259 4147 
z
M 628 4666 
L 2053 4666 
Q 2838 4666 3239 4311 
Q 3641 3956 3641 3272 
Q 3641 2581 3239 2228 
Q 2838 1875 2053 1875 
L 1259 1875 
L 1259 0 
L 628 0 
L 628 4666 
z
" transform="scale(0.015625)"/>
        <path id="DejaVuSans-2d" d="M 313 2009 
L 1997 2009 
L 1997 1497 
L 313 1497 
L 313 2009 
z
" transform="scale(0.015625)"/>
        <path id="DejaVuSans-33" d="M 2597 2516 
Q 3050 2419 3304 2112 
Q 3559 1806 3559 1356 
Q 3559 666 3084 287 
Q 2609 -91 1734 -91 
Q 1441 -91 1130 -33 
Q 819 25 488 141 
L 488 750 
Q 750 597 1062 519 
Q 1375 441 1716 441 
Q 2309 441 2620 675 
Q 2931 909 2931 1356 
Q 2931 1769 2642 2001 
Q 2353 2234 1838 2234 
L 1294 2234 
L 1294 2753 
L 1863 2753 
Q 2328 2753 2575 2939 
Q 2822 3125 2822 3475 
Q 2822 3834 2567 4026 
Q 2313 4219 1838 4219 
Q 1578 4219 1281 4162 
Q 984 4106 628 3988 
L 628 4550 
Q 988 4650 1302 4700 
Q 1616 4750 1894 4750 
Q 2613 4750 3031 4423 
Q 3450 4097 3450 3541 
Q 3450 3153 3228 2886 
Q 3006 2619 2597 2516 
z
" transform="scale(0.015625)"/>
        <path id="DejaVuSans-38" d="M 2034 2216 
Q 1584 2216 1326 1975 
Q 1069 1734 1069 1313 
Q 1069 891 1326 650 
Q 1584 409 2034 409 
Q 2484 409 2743 651 
Q 3003 894 3003 1313 
Q 3003 1734 2745 1975 
Q 2488 2216 2034 2216 
z
M 1403 2484 
Q 997 2584 770 2862 
Q 544 3141 544 3541 
Q 544 4100 942 4425 
Q 1341 4750 2034 4750 
Q 2731 4750 3128 4425 
Q 3525 4100 3525 3541 
Q 3525 3141 3298 2862 
Q 3072 2584 2669 2484 
Q 3125 2378 3379 2068 
Q 3634 1759 3634 1313 
Q 3634 634 3220 271 
Q 2806 -91 2034 -91 
Q 1263 -91 848 271 
Q 434 634 434 1313 
Q 434 1759 690 2068 
Q 947 2378 1403 2484 
z
M 1172 3481 
Q 1172 3119 1398 2916 
Q 1625 2713 2034 2713 
Q 2441 2713 2670 2916 
Q 2900 3119 2900 3481 
Q 2900 3844 2670 4047 
Q 2441 4250 2034 4250 
Q 1625 4250 1398 4047 
Q 1172 3844 1172 3481 
z
" transform="scale(0.015625)"/>
        <path id="DejaVuSans-34" d="M 2419 4116 
L 825 1625 
L 2419 1625 
L 2419 4116 
z
M 2253 4666 
L 3047 4666 
L 3047 1625 
L 3713 1625 
L 3713 1100 
L 3047 1100 
L 3047 0 
L 2419 0 
L 2419 1100 
L 313 1100 
L 313 1709 
L 2253 4666 
z
" transform="scale(0.015625)"/>
       </defs>
       <use xlink:href="#DejaVuSans-50"/>
       <use xlink:href="#DejaVuSans-2d" x="58.052734"/>
       <use xlink:href="#DejaVuSans-33" x="94.136719"/>
       <use xlink:href="#DejaVuSans-38" x="157.759766"/>
       <use xlink:href="#DejaVuSans-34" x="221.382812"/>
      </g>
     </g>
    </g>
    <g id="xtick_2">
     <g id="text_2">
      <!-- x448 -->
      <g style="fill: #262626" transform="translate(266.505065 403.310989) rotate(-15) scale(0.12 -0.12)">
       <defs>
        <path id="DejaVuSans-78" d="M 3513 3500 
L 2247 1797 
L 3578 0 
L 2900 0 
L 1881 1375 
L 863 0 
L 184 0 
L 1544 1831 
L 300 3500 
L 978 3500 
L 1906 2253 
L 2834 3500 
L 3513 3500 
z
" transform="scale(0.015625)"/>
       </defs>
       <use xlink:href="#DejaVuSans-78"/>
       <use xlink:href="#DejaVuSans-34" x="59.179688"/>
       <use xlink:href="#DejaVuSans-34" x="122.802734"/>
       <use xlink:href="#DejaVuSans-38" x="186.425781"/>
      </g>
     </g>
    </g>
    <g id="xtick_3">
     <g id="text_3">
      <!-- hqc192 -->
      <g style="fill: #262626" transform="translate(410.831845 407.120482) rotate(-15) scale(0.12 -0.12)">
       <defs>
        <path id="DejaVuSans-68" d="M 3513 2113 
L 3513 0 
L 2938 0 
L 2938 2094 
Q 2938 2591 2744 2837 
Q 2550 3084 2163 3084 
Q 1697 3084 1428 2787 
Q 1159 2491 1159 1978 
L 1159 0 
L 581 0 
L 581 4863 
L 1159 4863 
L 1159 2956 
Q 1366 3272 1645 3428 
Q 1925 3584 2291 3584 
Q 2894 3584 3203 3211 
Q 3513 2838 3513 2113 
z
" transform="scale(0.015625)"/>
        <path id="DejaVuSans-71" d="M 947 1747 
Q 947 1113 1208 752 
Q 1469 391 1925 391 
Q 2381 391 2643 752 
Q 2906 1113 2906 1747 
Q 2906 2381 2643 2742 
Q 2381 3103 1925 3103 
Q 1469 3103 1208 2742 
Q 947 2381 947 1747 
z
M 2906 525 
Q 2725 213 2448 61 
Q 2172 -91 1784 -91 
Q 1150 -91 751 415 
Q 353 922 353 1747 
Q 353 2572 751 3078 
Q 1150 3584 1784 3584 
Q 2172 3584 2448 3432 
Q 2725 3281 2906 2969 
L 2906 3500 
L 3481 3500 
L 3481 -1331 
L 2906 -1331 
L 2906 525 
z
" transform="scale(0.015625)"/>
        <path id="DejaVuSans-63" d="M 3122 3366 
L 3122 2828 
Q 2878 2963 2633 3030 
Q 2388 3097 2138 3097 
Q 1578 3097 1268 2742 
Q 959 2388 959 1747 
Q 959 1106 1268 751 
Q 1578 397 2138 397 
Q 2388 397 2633 464 
Q 2878 531 3122 666 
L 3122 134 
Q 2881 22 2623 -34 
Q 2366 -91 2075 -91 
Q 1284 -91 818 406 
Q 353 903 353 1747 
Q 353 2603 823 3093 
Q 1294 3584 2113 3584 
Q 2378 3584 2631 3529 
Q 2884 3475 3122 3366 
z
" transform="scale(0.015625)"/>
        <path id="DejaVuSans-31" d="M 794 531 
L 1825 531 
L 1825 4091 
L 703 3866 
L 703 4441 
L 1819 4666 
L 2450 4666 
L 2450 531 
L 3481 531 
L 3481 0 
L 794 0 
L 794 531 
z
" transform="scale(0.015625)"/>
        <path id="DejaVuSans-39" d="M 703 97 
L 703 672 
Q 941 559 1184 500 
Q 1428 441 1663 441 
Q 2288 441 2617 861 
Q 2947 1281 2994 2138 
Q 2813 1869 2534 1725 
Q 2256 1581 1919 1581 
Q 1219 1581 811 2004 
Q 403 2428 403 3163 
Q 403 3881 828 4315 
Q 1253 4750 1959 4750 
Q 2769 4750 3195 4129 
Q 3622 3509 3622 2328 
Q 3622 1225 3098 567 
Q 2575 -91 1691 -91 
Q 1453 -91 1209 -44 
Q 966 3 703 97 
z
M 1959 2075 
Q 2384 2075 2632 2365 
Q 2881 2656 2881 3163 
Q 2881 3666 2632 3958 
Q 2384 4250 1959 4250 
Q 1534 4250 1286 3958 
Q 1038 3666 1038 3163 
Q 1038 2656 1286 2365 
Q 1534 2075 1959 2075 
z
" transform="scale(0.015625)"/>
        <path id="DejaVuSans-32" d="M 1228 531 
L 3431 531 
L 3431 0 
L 469 0 
L 469 531 
Q 828 903 1448 1529 
Q 2069 2156 2228 2338 
Q 2531 2678 2651 2914 
Q 2772 3150 2772 3378 
Q 2772 3750 2511 3984 
Q 2250 4219 1831 4219 
Q 1534 4219 1204 4116 
Q 875 4013 500 3803 
L 500 4441 
Q 881 4594 1212 4672 
Q 1544 4750 1819 4750 
Q 2544 4750 2975 4387 
Q 3406 4025 3406 3419 
Q 3406 3131 3298 2873 
Q 3191 2616 2906 2266 
Q 2828 2175 2409 1742 
Q 1991 1309 1228 531 
z
" transform="scale(0.015625)"/>
       </defs>
       <use xlink:href="#DejaVuSans-68"/>
       <use xlink:href="#DejaVuSans-71" x="63.378906"/>
       <use xlink:href="#DejaVuSans-63" x="126.855469"/>
       <use xlink:href="#DejaVuSans-31" x="181.835938"/>
       <use xlink:href="#DejaVuSans-39" x="245.458984"/>
       <use xlink:href="#DejaVuSans-32" x="309.082031"/>
      </g>
     </g>
    </g>
    <g id="xtick_4">
     <g id="text_4">
      <!-- p384_hqc192 -->
      <g style="fill: #262626" transform="translate(534.010834 416.573362) rotate(-15) scale(0.12 -0.12)">
       <defs>
        <path id="DejaVuSans-70" d="M 1159 525 
L 1159 -1331 
L 581 -1331 
L 581 3500 
L 1159 3500 
L 1159 2969 
Q 1341 3281 1617 3432 
Q 1894 3584 2278 3584 
Q 2916 3584 3314 3078 
Q 3713 2572 3713 1747 
Q 3713 922 3314 415 
Q 2916 -91 2278 -91 
Q 1894 -91 1617 61 
Q 1341 213 1159 525 
z
M 3116 1747 
Q 3116 2381 2855 2742 
Q 2594 3103 2138 3103 
Q 1681 3103 1420 2742 
Q 1159 2381 1159 1747 
Q 1159 1113 1420 752 
Q 1681 391 2138 391 
Q 2594 391 2855 752 
Q 3116 1113 3116 1747 
z
" transform="scale(0.015625)"/>
        <path id="DejaVuSans-5f" d="M 3263 -1063 
L 3263 -1509 
L -63 -1509 
L -63 -1063 
L 3263 -1063 
z
" transform="scale(0.015625)"/>
       </defs>
       <use xlink:href="#DejaVuSans-70"/>
       <use xlink:href="#DejaVuSans-33" x="63.476562"/>
       <use xlink:href="#DejaVuSans-38" x="127.099609"/>
       <use xlink:href="#DejaVuSans-34" x="190.722656"/>
       <use xlink:href="#DejaVuSans-5f" x="254.345703"/>
       <use xlink:href="#DejaVuSans-68" x="304.345703"/>
       <use xlink:href="#DejaVuSans-71" x="367.724609"/>
       <use xlink:href="#DejaVuSans-63" x="431.201172"/>
       <use xlink:href="#DejaVuSans-31" x="486.181641"/>
       <use xlink:href="#DejaVuSans-39" x="549.804688"/>
       <use xlink:href="#DejaVuSans-32" x="613.427734"/>
      </g>
     </g>
    </g>
    <g id="xtick_5">
     <g id="text_5">
      <!-- x448_hqc192 -->
      <g style="fill: #262626" transform="translate(693.05289 416.439909) rotate(-15) scale(0.12 -0.12)">
       <use xlink:href="#DejaVuSans-78"/>
       <use xlink:href="#DejaVuSans-34" x="59.179688"/>
       <use xlink:href="#DejaVuSans-34" x="122.802734"/>
       <use xlink:href="#DejaVuSans-38" x="186.425781"/>
       <use xlink:href="#DejaVuSans-5f" x="250.048828"/>
       <use xlink:href="#DejaVuSans-68" x="300.048828"/>
       <use xlink:href="#DejaVuSans-71" x="363.427734"/>
       <use xlink:href="#DejaVuSans-63" x="426.904297"/>
       <use xlink:href="#DejaVuSans-31" x="481.884766"/>
       <use xlink:href="#DejaVuSans-39" x="545.507812"/>
       <use xlink:href="#DejaVuSans-32" x="609.130859"/>
      </g>
     </g>
    </g>
   </g>
   <g id="matplotlib.axis_2">
    <g id="ytick_1">
     <g id="line2d_1">
      <path d="M 58.32 302.589165 
L 851.04 302.589165 
" clip-path="url(#p6e11b7b2b6)" style="fill: none; stroke: #cccccc; stroke-linecap: round"/>
     </g>
     <g id="text_6">
      <!-- 200 -->
      <g style="fill: #262626" transform="translate(27.82375 306.768306) scale(0.11 -0.11)">
       <defs>
        <path id="DejaVuSans-30" d="M 2034 4250 
Q 1547 4250 1301 3770 
Q 1056 3291 1056 2328 
Q 1056 1369 1301 889 
Q 1547 409 2034 409 
Q 2525 409 2770 889 
Q 3016 1369 3016 2328 
Q 3016 3291 2770 3770 
Q 2525 4250 2034 4250 
z
M 2034 4750 
Q 2819 4750 3233 4129 
Q 3647 3509 3647 2328 
Q 3647 1150 3233 529 
Q 2819 -91 2034 -91 
Q 1250 -91 836 529 
Q 422 1150 422 2328 
Q 422 3509 836 4129 
Q 1250 4750 2034 4750 
z
" transform="scale(0.015625)"/>
       </defs>
       <use xlink:href="#DejaVuSans-32"/>
       <use xlink:href="#DejaVuSans-30" x="63.623047"/>
       <use xlink:href="#DejaVuSans-30" x="127.246094"/>
      </g>
     </g>
    </g>
    <g id="ytick_2">
     <g id="line2d_2">
      <path d="M 58.32 225.844754 
L 851.04 225.844754 
" clip-path="url(#p6e11b7b2b6)" style="fill: none; stroke: #cccccc; stroke-linecap: round"/>
     </g>
     <g id="text_7">
      <!-- 400 -->
      <g style="fill: #262626" transform="translate(27.82375 230.023894) scale(0.11 -0.11)">
       <use xlink:href="#DejaVuSans-34"/>
       <use xlink:href="#DejaVuSans-30" x="63.623047"/>
       <use xlink:href="#DejaVuSans-30" x="127.246094"/>
      </g>
     </g>
    </g>
    <g id="ytick_3">
     <g id="line2d_3">
      <path d="M 58.32 149.100342 
L 851.04 149.100342 
" clip-path="url(#p6e11b7b2b6)" style="fill: none; stroke: #cccccc; stroke-linecap: round"/>
     </g>
     <g id="text_8">
      <!-- 600 -->
      <g style="fill: #262626" transform="translate(27.82375 153.279483) scale(0.11 -0.11)">
       <defs>
        <path id="DejaVuSans-36" d="M 2113 2584 
Q 1688 2584 1439 2293 
Q 1191 2003 1191 1497 
Q 1191 994 1439 701 
Q 1688 409 2113 409 
Q 2538 409 2786 701 
Q 3034 994 3034 1497 
Q 3034 2003 2786 2293 
Q 2538 2584 2113 2584 
z
M 3366 4563 
L 3366 3988 
Q 3128 4100 2886 4159 
Q 2644 4219 2406 4219 
Q 1781 4219 1451 3797 
Q 1122 3375 1075 2522 
Q 1259 2794 1537 2939 
Q 1816 3084 2150 3084 
Q 2853 3084 3261 2657 
Q 3669 2231 3669 1497 
Q 3669 778 3244 343 
Q 2819 -91 2113 -91 
Q 1303 -91 875 529 
Q 447 1150 447 2328 
Q 447 3434 972 4092 
Q 1497 4750 2381 4750 
Q 2619 4750 2861 4703 
Q 3103 4656 3366 4563 
z
" transform="scale(0.015625)"/>
       </defs>
       <use xlink:href="#DejaVuSans-36"/>
       <use xlink:href="#DejaVuSans-30" x="63.623047"/>
       <use xlink:href="#DejaVuSans-30" x="127.246094"/>
      </g>
     </g>
    </g>
    <g id="ytick_4">
     <g id="line2d_4">
      <path d="M 58.32 72.355931 
L 851.04 72.355931 
" clip-path="url(#p6e11b7b2b6)" style="fill: none; stroke: #cccccc; stroke-linecap: round"/>
     </g>
     <g id="text_9">
      <!-- 800 -->
      <g style="fill: #262626" transform="translate(27.82375 76.535071) scale(0.11 -0.11)">
       <use xlink:href="#DejaVuSans-38"/>
       <use xlink:href="#DejaVuSans-30" x="63.623047"/>
       <use xlink:href="#DejaVuSans-30" x="127.246094"/>
      </g>
     </g>
    </g>
    <g id="text_10">
     <!-- Handshake duration (ms) -->
     <g style="fill: #262626" transform="translate(21.328125 278.486335) rotate(-90) scale(0.12 -0.12)">
      <defs>
       <path id="DejaVuSans-48" d="M 628 4666 
L 1259 4666 
L 1259 2753 
L 3553 2753 
L 3553 4666 
L 4184 4666 
L 4184 0 
L 3553 0 
L 3553 2222 
L 1259 2222 
L 1259 0 
L 628 0 
L 628 4666 
z
" transform="scale(0.015625)"/>
       <path id="DejaVuSans-61" d="M 2194 1759 
Q 1497 1759 1228 1600 
Q 959 1441 959 1056 
Q 959 750 1161 570 
Q 1363 391 1709 391 
Q 2188 391 2477 730 
Q 2766 1069 2766 1631 
L 2766 1759 
L 2194 1759 
z
M 3341 1997 
L 3341 0 
L 2766 0 
L 2766 531 
Q 2569 213 2275 61 
Q 1981 -91 1556 -91 
Q 1019 -91 701 211 
Q 384 513 384 1019 
Q 384 1609 779 1909 
Q 1175 2209 1959 2209 
L 2766 2209 
L 2766 2266 
Q 2766 2663 2505 2880 
Q 2244 3097 1772 3097 
Q 1472 3097 1187 3025 
Q 903 2953 641 2809 
L 641 3341 
Q 956 3463 1253 3523 
Q 1550 3584 1831 3584 
Q 2591 3584 2966 3190 
Q 3341 2797 3341 1997 
z
" transform="scale(0.015625)"/>
       <path id="DejaVuSans-6e" d="M 3513 2113 
L 3513 0 
L 2938 0 
L 2938 2094 
Q 2938 2591 2744 2837 
Q 2550 3084 2163 3084 
Q 1697 3084 1428 2787 
Q 1159 2491 1159 1978 
L 1159 0 
L 581 0 
L 581 3500 
L 1159 3500 
L 1159 2956 
Q 1366 3272 1645 3428 
Q 1925 3584 2291 3584 
Q 2894 3584 3203 3211 
Q 3513 2838 3513 2113 
z
" transform="scale(0.015625)"/>
       <path id="DejaVuSans-64" d="M 2906 2969 
L 2906 4863 
L 3481 4863 
L 3481 0 
L 2906 0 
L 2906 525 
Q 2725 213 2448 61 
Q 2172 -91 1784 -91 
Q 1150 -91 751 415 
Q 353 922 353 1747 
Q 353 2572 751 3078 
Q 1150 3584 1784 3584 
Q 2172 3584 2448 3432 
Q 2725 3281 2906 2969 
z
M 947 1747 
Q 947 1113 1208 752 
Q 1469 391 1925 391 
Q 2381 391 2643 752 
Q 2906 1113 2906 1747 
Q 2906 2381 2643 2742 
Q 2381 3103 1925 3103 
Q 1469 3103 1208 2742 
Q 947 2381 947 1747 
z
" transform="scale(0.015625)"/>
       <path id="DejaVuSans-73" d="M 2834 3397 
L 2834 2853 
Q 2591 2978 2328 3040 
Q 2066 3103 1784 3103 
Q 1356 3103 1142 2972 
Q 928 2841 928 2578 
Q 928 2378 1081 2264 
Q 1234 2150 1697 2047 
L 1894 2003 
Q 2506 1872 2764 1633 
Q 3022 1394 3022 966 
Q 3022 478 2636 193 
Q 2250 -91 1575 -91 
Q 1294 -91 989 -36 
Q 684 19 347 128 
L 347 722 
Q 666 556 975 473 
Q 1284 391 1588 391 
Q 1994 391 2212 530 
Q 2431 669 2431 922 
Q 2431 1156 2273 1281 
Q 2116 1406 1581 1522 
L 1381 1569 
Q 847 1681 609 1914 
Q 372 2147 372 2553 
Q 372 3047 722 3315 
Q 1072 3584 1716 3584 
Q 2034 3584 2315 3537 
Q 2597 3491 2834 3397 
z
" transform="scale(0.015625)"/>
       <path id="DejaVuSans-6b" d="M 581 4863 
L 1159 4863 
L 1159 1991 
L 2875 3500 
L 3609 3500 
L 1753 1863 
L 3688 0 
L 2938 0 
L 1159 1709 
L 1159 0 
L 581 0 
L 581 4863 
z
" transform="scale(0.015625)"/>
       <path id="DejaVuSans-65" d="M 3597 1894 
L 3597 1613 
L 953 1613 
Q 991 1019 1311 708 
Q 1631 397 2203 397 
Q 2534 397 2845 478 
Q 3156 559 3463 722 
L 3463 178 
Q 3153 47 2828 -22 
Q 2503 -91 2169 -91 
Q 1331 -91 842 396 
Q 353 884 353 1716 
Q 353 2575 817 3079 
Q 1281 3584 2069 3584 
Q 2775 3584 3186 3129 
Q 3597 2675 3597 1894 
z
M 3022 2063 
Q 3016 2534 2758 2815 
Q 2500 3097 2075 3097 
Q 1594 3097 1305 2825 
Q 1016 2553 972 2059 
L 3022 2063 
z
" transform="scale(0.015625)"/>
       <path id="DejaVuSans-20" transform="scale(0.015625)"/>
       <path id="DejaVuSans-75" d="M 544 1381 
L 544 3500 
L 1119 3500 
L 1119 1403 
Q 1119 906 1312 657 
Q 1506 409 1894 409 
Q 2359 409 2629 706 
Q 2900 1003 2900 1516 
L 2900 3500 
L 3475 3500 
L 3475 0 
L 2900 0 
L 2900 538 
Q 2691 219 2414 64 
Q 2138 -91 1772 -91 
Q 1169 -91 856 284 
Q 544 659 544 1381 
z
M 1991 3584 
L 1991 3584 
z
" transform="scale(0.015625)"/>
       <path id="DejaVuSans-72" d="M 2631 2963 
Q 2534 3019 2420 3045 
Q 2306 3072 2169 3072 
Q 1681 3072 1420 2755 
Q 1159 2438 1159 1844 
L 1159 0 
L 581 0 
L 581 3500 
L 1159 3500 
L 1159 2956 
Q 1341 3275 1631 3429 
Q 1922 3584 2338 3584 
Q 2397 3584 2469 3576 
Q 2541 3569 2628 3553 
L 2631 2963 
z
" transform="scale(0.015625)"/>
       <path id="DejaVuSans-74" d="M 1172 4494 
L 1172 3500 
L 2356 3500 
L 2356 3053 
L 1172 3053 
L 1172 1153 
Q 1172 725 1289 603 
Q 1406 481 1766 481 
L 2356 481 
L 2356 0 
L 1766 0 
Q 1100 0 847 248 
Q 594 497 594 1153 
L 594 3053 
L 172 3053 
L 172 3500 
L 594 3500 
L 594 4494 
L 1172 4494 
z
" transform="scale(0.015625)"/>
       <path id="DejaVuSans-69" d="M 603 3500 
L 1178 3500 
L 1178 0 
L 603 0 
L 603 3500 
z
M 603 4863 
L 1178 4863 
L 1178 4134 
L 603 4134 
L 603 4863 
z
" transform="scale(0.015625)"/>
       <path id="DejaVuSans-6f" d="M 1959 3097 
Q 1497 3097 1228 2736 
Q 959 2375 959 1747 
Q 959 1119 1226 758 
Q 1494 397 1959 397 
Q 2419 397 2687 759 
Q 2956 1122 2956 1747 
Q 2956 2369 2687 2733 
Q 2419 3097 1959 3097 
z
M 1959 3584 
Q 2709 3584 3137 3096 
Q 3566 2609 3566 1747 
Q 3566 888 3137 398 
Q 2709 -91 1959 -91 
Q 1206 -91 779 398 
Q 353 888 353 1747 
Q 353 2609 779 3096 
Q 1206 3584 1959 3584 
z
" transform="scale(0.015625)"/>
       <path id="DejaVuSans-28" d="M 1984 4856 
Q 1566 4138 1362 3434 
Q 1159 2731 1159 2009 
Q 1159 1288 1364 580 
Q 1569 -128 1984 -844 
L 1484 -844 
Q 1016 -109 783 600 
Q 550 1309 550 2009 
Q 550 2706 781 3412 
Q 1013 4119 1484 4856 
L 1984 4856 
z
" transform="scale(0.015625)"/>
       <path id="DejaVuSans-6d" d="M 3328 2828 
Q 3544 3216 3844 3400 
Q 4144 3584 4550 3584 
Q 5097 3584 5394 3201 
Q 5691 2819 5691 2113 
L 5691 0 
L 5113 0 
L 5113 2094 
Q 5113 2597 4934 2840 
Q 4756 3084 4391 3084 
Q 3944 3084 3684 2787 
Q 3425 2491 3425 1978 
L 3425 0 
L 2847 0 
L 2847 2094 
Q 2847 2600 2669 2842 
Q 2491 3084 2119 3084 
Q 1678 3084 1418 2786 
Q 1159 2488 1159 1978 
L 1159 0 
L 581 0 
L 581 3500 
L 1159 3500 
L 1159 2956 
Q 1356 3278 1631 3431 
Q 1906 3584 2284 3584 
Q 2666 3584 2933 3390 
Q 3200 3197 3328 2828 
z
" transform="scale(0.015625)"/>
       <path id="DejaVuSans-29" d="M 513 4856 
L 1013 4856 
Q 1481 4119 1714 3412 
Q 1947 2706 1947 2009 
Q 1947 1309 1714 600 
Q 1481 -109 1013 -844 
L 513 -844 
Q 928 -128 1133 580 
Q 1338 1288 1338 2009 
Q 1338 2731 1133 3434 
Q 928 4138 513 4856 
z
" transform="scale(0.015625)"/>
      </defs>
      <use xlink:href="#DejaVuSans-48"/>
      <use xlink:href="#DejaVuSans-61" x="75.195312"/>
      <use xlink:href="#DejaVuSans-6e" x="136.474609"/>
      <use xlink:href="#DejaVuSans-64" x="199.853516"/>
      <use xlink:href="#DejaVuSans-73" x="263.330078"/>
      <use xlink:href="#DejaVuSans-68" x="315.429688"/>
      <use xlink:href="#DejaVuSans-61" x="378.808594"/>
      <use xlink:href="#DejaVuSans-6b" x="440.087891"/>
      <use xlink:href="#DejaVuSans-65" x="494.373047"/>
      <use xlink:href="#DejaVuSans-20" x="555.896484"/>
      <use xlink:href="#DejaVuSans-64" x="587.683594"/>
      <use xlink:href="#DejaVuSans-75" x="651.160156"/>
      <use xlink:href="#DejaVuSans-72" x="714.539062"/>
      <use xlink:href="#DejaVuSans-61" x="755.652344"/>
      <use xlink:href="#DejaVuSans-74" x="816.931641"/>
      <use xlink:href="#DejaVuSans-69" x="856.140625"/>
      <use xlink:href="#DejaVuSans-6f" x="883.923828"/>
      <use xlink:href="#DejaVuSans-6e" x="945.105469"/>
      <use xlink:href="#DejaVuSans-20" x="1008.484375"/>
      <use xlink:href="#DejaVuSans-28" x="1040.271484"/>
      <use xlink:href="#DejaVuSans-6d" x="1079.285156"/>
      <use xlink:href="#DejaVuSans-73" x="1176.697266"/>
      <use xlink:href="#DejaVuSans-29" x="1228.796875"/>
     </g>
    </g>
   </g>
   <g id="PolyCollection_1">
    <defs>
     <path id="m0136484b1f" d="M 142.485443 -80.702275 
L 132.698557 -80.702275 
L 117.717994 -80.992215 
L 91.150148 -81.282154 
L 74.1744 -81.572094 
L 84.233036 -81.862033 
L 105.103137 -82.151973 
L 118.661506 -82.441912 
L 126.012724 -82.731852 
L 131.191827 -83.021791 
L 134.792531 -83.311731 
L 136.714045 -83.60167 
L 137.406493 -83.89161 
L 137.56605 -84.181549 
L 137.587676 -84.471489 
L 137.577893 -84.761428 
L 137.536389 -85.051368 
L 137.466466 -85.341307 
L 137.431232 -85.631247 
L 137.475203 -85.921186 
L 137.543865 -86.211126 
L 137.580746 -86.501065 
L 137.590508 -86.791005 
L 137.591888 -87.080944 
L 137.591995 -87.370884 
L 137.592 -87.660823 
L 137.592 -87.950763 
L 137.592 -88.240702 
L 137.592 -88.530642 
L 137.592 -88.820581 
L 137.592 -89.110521 
L 137.592 -89.40046 
L 137.592 -89.6904 
L 137.592 -89.980339 
L 137.592 -90.270279 
L 137.592 -90.560218 
L 137.592 -90.850158 
L 137.592 -91.140097 
L 137.592 -91.430037 
L 137.592 -91.719976 
L 137.592 -92.009916 
L 137.592 -92.299855 
L 137.592 -92.589795 
L 137.592 -92.879734 
L 137.592 -93.169674 
L 137.592 -93.459613 
L 137.592 -93.749553 
L 137.592 -94.039492 
L 137.592 -94.329432 
L 137.592 -94.619371 
L 137.592 -94.909311 
L 137.592 -95.19925 
L 137.592 -95.48919 
L 137.592 -95.779129 
L 137.592 -96.069069 
L 137.592 -96.359008 
L 137.592 -96.648948 
L 137.592 -96.938887 
L 137.592 -97.228827 
L 137.592 -97.518766 
L 137.592 -97.808706 
L 137.592 -98.098645 
L 137.592 -98.388585 
L 137.592 -98.678524 
L 137.592 -98.968464 
L 137.592 -99.258403 
L 137.592 -99.548343 
L 137.592 -99.838282 
L 137.592 -100.128222 
L 137.592 -100.418161 
L 137.592 -100.708101 
L 137.592 -100.99804 
L 137.592 -101.28798 
L 137.592 -101.577919 
L 137.592 -101.867859 
L 137.592 -102.157798 
L 137.592 -102.447738 
L 137.592 -102.737677 
L 137.592 -103.027617 
L 137.592 -103.317556 
L 137.592 -103.607496 
L 137.592 -103.897435 
L 137.592 -104.187375 
L 137.592 -104.477314 
L 137.592 -104.767254 
L 137.592 -105.057193 
L 137.592 -105.347133 
L 137.592 -105.637072 
L 137.592 -105.927012 
L 137.592 -106.216951 
L 137.592 -106.506891 
L 137.591998 -106.79683 
L 137.591951 -107.08677 
L 137.591234 -107.376709 
L 137.585233 -107.666649 
L 137.558076 -107.956588 
L 137.495522 -108.246528 
L 137.436348 -108.536467 
L 137.449546 -108.826407 
L 137.518041 -109.116346 
L 137.570217 -109.406286 
L 137.613783 -109.406286 
L 137.613783 -109.406286 
L 137.665959 -109.116346 
L 137.734454 -108.826407 
L 137.747652 -108.536467 
L 137.688478 -108.246528 
L 137.625924 -107.956588 
L 137.598767 -107.666649 
L 137.592766 -107.376709 
L 137.592049 -107.08677 
L 137.592002 -106.79683 
L 137.592 -106.506891 
L 137.592 -106.216951 
L 137.592 -105.927012 
L 137.592 -105.637072 
L 137.592 -105.347133 
L 137.592 -105.057193 
L 137.592 -104.767254 
L 137.592 -104.477314 
L 137.592 -104.187375 
L 137.592 -103.897435 
L 137.592 -103.607496 
L 137.592 -103.317556 
L 137.592 -103.027617 
L 137.592 -102.737677 
L 137.592 -102.447738 
L 137.592 -102.157798 
L 137.592 -101.867859 
L 137.592 -101.577919 
L 137.592 -101.28798 
L 137.592 -100.99804 
L 137.592 -100.708101 
L 137.592 -100.418161 
L 137.592 -100.128222 
L 137.592 -99.838282 
L 137.592 -99.548343 
L 137.592 -99.258403 
L 137.592 -98.968464 
L 137.592 -98.678524 
L 137.592 -98.388585 
L 137.592 -98.098645 
L 137.592 -97.808706 
L 137.592 -97.518766 
L 137.592 -97.228827 
L 137.592 -96.938887 
L 137.592 -96.648948 
L 137.592 -96.359008 
L 137.592 -96.069069 
L 137.592 -95.779129 
L 137.592 -95.48919 
L 137.592 -95.19925 
L 137.592 -94.909311 
L 137.592 -94.619371 
L 137.592 -94.329432 
L 137.592 -94.039492 
L 137.592 -93.749553 
L 137.592 -93.459613 
L 137.592 -93.169674 
L 137.592 -92.879734 
L 137.592 -92.589795 
L 137.592 -92.299855 
L 137.592 -92.009916 
L 137.592 -91.719976 
L 137.592 -91.430037 
L 137.592 -91.140097 
L 137.592 -90.850158 
L 137.592 -90.560218 
L 137.592 -90.270279 
L 137.592 -89.980339 
L 137.592 -89.6904 
L 137.592 -89.40046 
L 137.592 -89.110521 
L 137.592 -88.820581 
L 137.592 -88.530642 
L 137.592 -88.240702 
L 137.592 -87.950763 
L 137.592 -87.660823 
L 137.592005 -87.370884 
L 137.592112 -87.080944 
L 137.593492 -86.791005 
L 137.603254 -86.501065 
L 137.640135 -86.211126 
L 137.708797 -85.921186 
L 137.752768 -85.631247 
L 137.717534 -85.341307 
L 137.647611 -85.051368 
L 137.606107 -84.761428 
L 137.596324 -84.471489 
L 137.61795 -84.181549 
L 137.777507 -83.89161 
L 138.469955 -83.60167 
L 140.391469 -83.311731 
L 143.992173 -83.021791 
L 149.171276 -82.731852 
L 156.522494 -82.441912 
L 170.080863 -82.151973 
L 190.950964 -81.862033 
L 201.0096 -81.572094 
L 184.033852 -81.282154 
L 157.466006 -80.992215 
L 142.485443 -80.702275 
z
" style="stroke: #595959; stroke-width: 1.25"/>
    </defs>
    <g clip-path="url(#p6e11b7b2b6)">
     <use xlink:href="#m0136484b1f" x="0" y="432" style="fill: #72b6a1; stroke: #595959; stroke-width: 1.25"/>
    </g>
   </g>
   <g id="PolyCollection_2">
    <defs>
     <path id="ma0afb5cb82" d="M 301.188885 -80.213449 
L 291.083115 -80.213449 
L 275.269957 -80.502915 
L 247.961654 -80.792381 
L 232.7184 -81.081847 
L 245.659374 -81.371313 
L 267.899473 -81.660779 
L 282.377987 -81.950245 
L 290.170512 -82.239711 
L 294.207492 -82.529177 
L 295.726924 -82.818642 
L 296.081828 -83.108108 
L 296.131605 -83.397574 
L 296.135784 -83.68704 
L 296.135994 -83.976506 
L 296.136 -84.265972 
L 296.136 -84.555438 
L 296.136 -84.844904 
L 296.136 -85.13437 
L 296.136 -85.423836 
L 296.136 -85.713302 
L 296.136 -86.002767 
L 296.136 -86.292233 
L 296.136 -86.581699 
L 296.136 -86.871165 
L 296.136 -87.160631 
L 296.136 -87.450097 
L 296.136 -87.739563 
L 296.136 -88.029029 
L 296.136 -88.318495 
L 296.136 -88.607961 
L 296.136 -88.897426 
L 296.136 -89.186892 
L 296.136 -89.476358 
L 296.136 -89.765824 
L 296.136 -90.05529 
L 296.136 -90.344756 
L 296.136 -90.634222 
L 296.136 -90.923688 
L 296.136 -91.213154 
L 296.136 -91.50262 
L 296.136 -91.792085 
L 296.136 -92.081551 
L 296.136 -92.371017 
L 296.136 -92.660483 
L 296.136 -92.949949 
L 296.136 -93.239415 
L 296.136 -93.528881 
L 296.136 -93.818347 
L 296.136 -94.107813 
L 296.136 -94.397279 
L 296.136 -94.686745 
L 296.136 -94.97621 
L 296.136 -95.265676 
L 296.136 -95.555142 
L 296.136 -95.844608 
L 296.136 -96.134074 
L 296.136 -96.42354 
L 296.136 -96.713006 
L 296.136 -97.002472 
L 296.136 -97.291938 
L 296.136 -97.581404 
L 296.136 -97.870869 
L 296.136 -98.160335 
L 296.136 -98.449801 
L 296.136 -98.739267 
L 296.136 -99.028733 
L 296.136 -99.318199 
L 296.136 -99.607665 
L 296.136 -99.897131 
L 296.136 -100.186597 
L 296.136 -100.476063 
L 296.136 -100.765528 
L 296.136 -101.054994 
L 296.136 -101.34446 
L 296.136 -101.633926 
L 296.136 -101.923392 
L 296.136 -102.212858 
L 296.136 -102.502324 
L 296.136 -102.79179 
L 296.136 -103.081256 
L 296.136 -103.370722 
L 296.136 -103.660188 
L 296.136 -103.949653 
L 296.136 -104.239119 
L 296.136 -104.528585 
L 296.136 -104.818051 
L 296.136 -105.107517 
L 296.136 -105.396983 
L 296.136 -105.686449 
L 296.136 -105.975915 
L 296.135999 -106.265381 
L 296.135976 -106.554847 
L 296.135555 -106.844312 
L 296.131374 -107.133778 
L 296.10958 -107.423244 
L 296.053023 -107.71271 
L 295.992694 -108.002176 
L 295.9999 -108.291642 
L 296.064922 -108.581108 
L 296.115587 -108.870574 
L 296.156413 -108.870574 
L 296.156413 -108.870574 
L 296.207078 -108.581108 
L 296.2721 -108.291642 
L 296.279306 -108.002176 
L 296.218977 -107.71271 
L 296.16242 -107.423244 
L 296.140626 -107.133778 
L 296.136445 -106.844312 
L 296.136024 -106.554847 
L 296.136001 -106.265381 
L 296.136 -105.975915 
L 296.136 -105.686449 
L 296.136 -105.396983 
L 296.136 -105.107517 
L 296.136 -104.818051 
L 296.136 -104.528585 
L 296.136 -104.239119 
L 296.136 -103.949653 
L 296.136 -103.660188 
L 296.136 -103.370722 
L 296.136 -103.081256 
L 296.136 -102.79179 
L 296.136 -102.502324 
L 296.136 -102.212858 
L 296.136 -101.923392 
L 296.136 -101.633926 
L 296.136 -101.34446 
L 296.136 -101.054994 
L 296.136 -100.765528 
L 296.136 -100.476063 
L 296.136 -100.186597 
L 296.136 -99.897131 
L 296.136 -99.607665 
L 296.136 -99.318199 
L 296.136 -99.028733 
L 296.136 -98.739267 
L 296.136 -98.449801 
L 296.136 -98.160335 
L 296.136 -97.870869 
L 296.136 -97.581404 
L 296.136 -97.291938 
L 296.136 -97.002472 
L 296.136 -96.713006 
L 296.136 -96.42354 
L 296.136 -96.134074 
L 296.136 -95.844608 
L 296.136 -95.555142 
L 296.136 -95.265676 
L 296.136 -94.97621 
L 296.136 -94.686745 
L 296.136 -94.397279 
L 296.136 -94.107813 
L 296.136 -93.818347 
L 296.136 -93.528881 
L 296.136 -93.239415 
L 296.136 -92.949949 
L 296.136 -92.660483 
L 296.136 -92.371017 
L 296.136 -92.081551 
L 296.136 -91.792085 
L 296.136 -91.50262 
L 296.136 -91.213154 
L 296.136 -90.923688 
L 296.136 -90.634222 
L 296.136 -90.344756 
L 296.136 -90.05529 
L 296.136 -89.765824 
L 296.136 -89.476358 
L 296.136 -89.186892 
L 296.136 -88.897426 
L 296.136 -88.607961 
L 296.136 -88.318495 
L 296.136 -88.029029 
L 296.136 -87.739563 
L 296.136 -87.450097 
L 296.136 -87.160631 
L 296.136 -86.871165 
L 296.136 -86.581699 
L 296.136 -86.292233 
L 296.136 -86.002767 
L 296.136 -85.713302 
L 296.136 -85.423836 
L 296.136 -85.13437 
L 296.136 -84.844904 
L 296.136 -84.555438 
L 296.136 -84.265972 
L 296.136006 -83.976506 
L 296.136216 -83.68704 
L 296.140395 -83.397574 
L 296.190172 -83.108108 
L 296.545076 -82.818642 
L 298.064508 -82.529177 
L 302.101488 -82.239711 
L 309.894013 -81.950245 
L 324.372527 -81.660779 
L 346.612626 -81.371313 
L 359.5536 -81.081847 
L 344.310346 -80.792381 
L 317.002043 -80.502915 
L 301.188885 -80.213449 
z
" style="stroke: #595959; stroke-width: 1.25"/>
    </defs>
    <g clip-path="url(#p6e11b7b2b6)">
     <use xlink:href="#ma0afb5cb82" x="0" y="432" style="fill: #e99675; stroke: #595959; stroke-width: 1.25"/>
    </g>
   </g>
   <g id="PolyCollection_3">
    <defs>
     <path id="mf10fde1b59" d="M 462.220139 -70.655549 
L 447.139861 -70.655549 
L 442.557529 -73.866174 
L 436.321156 -77.076799 
L 428.48778 -80.287423 
L 419.474893 -83.498048 
L 410.095644 -86.708673 
L 401.476043 -89.919298 
L 394.847682 -93.129923 
L 391.2624 -96.340548 
L 391.318604 -99.551172 
L 394.997189 -102.761797 
L 401.669021 -105.972422 
L 410.270346 -109.183047 
L 419.579048 -112.393672 
L 428.493558 -115.604297 
L 436.229003 -118.814921 
L 442.389886 -122.025546 
L 446.929735 -125.236171 
L 450.042366 -128.446796 
L 452.037238 -131.657421 
L 453.237872 -134.868045 
L 453.920265 -138.07867 
L 454.289331 -141.289295 
L 454.481349 -144.49992 
L 454.578883 -147.710545 
L 454.6281 -150.92117 
L 454.653164 -154.131794 
L 454.666144 -157.342419 
L 454.672948 -160.553044 
L 454.676508 -163.763669 
L 454.678336 -166.974294 
L 454.679243 -170.184919 
L 454.679673 -173.395543 
L 454.679866 -176.606168 
L 454.679948 -179.816793 
L 454.679981 -183.027418 
L 454.679994 -186.238043 
L 454.679998 -189.448668 
L 454.679999 -192.659292 
L 454.68 -195.869917 
L 454.68 -199.080542 
L 454.68 -202.291167 
L 454.68 -205.501792 
L 454.68 -208.712417 
L 454.68 -211.923041 
L 454.68 -215.133666 
L 454.68 -218.344291 
L 454.68 -221.554916 
L 454.68 -224.765541 
L 454.68 -227.976166 
L 454.68 -231.18679 
L 454.68 -234.397415 
L 454.68 -237.60804 
L 454.68 -240.818665 
L 454.68 -244.02929 
L 454.68 -247.239915 
L 454.68 -250.450539 
L 454.68 -253.661164 
L 454.68 -256.871789 
L 454.68 -260.082414 
L 454.68 -263.293039 
L 454.68 -266.503664 
L 454.68 -269.714288 
L 454.68 -272.924913 
L 454.68 -276.135538 
L 454.68 -279.346163 
L 454.68 -282.556788 
L 454.68 -285.767413 
L 454.68 -288.978037 
L 454.679998 -292.188662 
L 454.679994 -295.399287 
L 454.679979 -298.609912 
L 454.679936 -301.820537 
L 454.679809 -305.031161 
L 454.67947 -308.241786 
L 454.678611 -311.452411 
L 454.676576 -314.663036 
L 454.672054 -317.873661 
L 454.662637 -321.084286 
L 454.644284 -324.29491 
L 454.610837 -327.505535 
L 454.553915 -330.71616 
L 454.463614 -333.926785 
L 454.3304 -337.13741 
L 454.148266 -340.348035 
L 453.918628 -343.558659 
L 453.653684 -346.769284 
L 453.377593 -349.979909 
L 453.12405 -353.190534 
L 452.93004 -356.401159 
L 452.827129 -359.611784 
L 452.833081 -362.822408 
L 452.946847 -366.033033 
L 453.148865 -369.243658 
L 453.406561 -372.454283 
L 453.682916 -375.664908 
L 453.94502 -378.875533 
L 454.169954 -382.086157 
L 454.346776 -385.296782 
L 454.475047 -388.507407 
L 454.884953 -388.507407 
L 454.884953 -388.507407 
L 455.013224 -385.296782 
L 455.190046 -382.086157 
L 455.41498 -378.875533 
L 455.677084 -375.664908 
L 455.953439 -372.454283 
L 456.211135 -369.243658 
L 456.413153 -366.033033 
L 456.526919 -362.822408 
L 456.532871 -359.611784 
L 456.42996 -356.401159 
L 456.23595 -353.190534 
L 455.982407 -349.979909 
L 455.706316 -346.769284 
L 455.441372 -343.558659 
L 455.211734 -340.348035 
L 455.0296 -337.13741 
L 454.896386 -333.926785 
L 454.806085 -330.71616 
L 454.749163 -327.505535 
L 454.715716 -324.29491 
L 454.697363 -321.084286 
L 454.687946 -317.873661 
L 454.683424 -314.663036 
L 454.681389 -311.452411 
L 454.68053 -308.241786 
L 454.680191 -305.031161 
L 454.680064 -301.820537 
L 454.680021 -298.609912 
L 454.680006 -295.399287 
L 454.680002 -292.188662 
L 454.68 -288.978037 
L 454.68 -285.767413 
L 454.68 -282.556788 
L 454.68 -279.346163 
L 454.68 -276.135538 
L 454.68 -272.924913 
L 454.68 -269.714288 
L 454.68 -266.503664 
L 454.68 -263.293039 
L 454.68 -260.082414 
L 454.68 -256.871789 
L 454.68 -253.661164 
L 454.68 -250.450539 
L 454.68 -247.239915 
L 454.68 -244.02929 
L 454.68 -240.818665 
L 454.68 -237.60804 
L 454.68 -234.397415 
L 454.68 -231.18679 
L 454.68 -227.976166 
L 454.68 -224.765541 
L 454.68 -221.554916 
L 454.68 -218.344291 
L 454.68 -215.133666 
L 454.68 -211.923041 
L 454.68 -208.712417 
L 454.68 -205.501792 
L 454.68 -202.291167 
L 454.68 -199.080542 
L 454.68 -195.869917 
L 454.680001 -192.659292 
L 454.680002 -189.448668 
L 454.680006 -186.238043 
L 454.680019 -183.027418 
L 454.680052 -179.816793 
L 454.680134 -176.606168 
L 454.680327 -173.395543 
L 454.680757 -170.184919 
L 454.681664 -166.974294 
L 454.683492 -163.763669 
L 454.687052 -160.553044 
L 454.693856 -157.342419 
L 454.706836 -154.131794 
L 454.7319 -150.92117 
L 454.781117 -147.710545 
L 454.878651 -144.49992 
L 455.070669 -141.289295 
L 455.439735 -138.07867 
L 456.122128 -134.868045 
L 457.322762 -131.657421 
L 459.317634 -128.446796 
L 462.430265 -125.236171 
L 466.970114 -122.025546 
L 473.130997 -118.814921 
L 480.866442 -115.604297 
L 489.780952 -112.393672 
L 499.089654 -109.183047 
L 507.690979 -105.972422 
L 514.362811 -102.761797 
L 518.041396 -99.551172 
L 518.0976 -96.340548 
L 514.512318 -93.129923 
L 507.883957 -89.919298 
L 499.264356 -86.708673 
L 489.885107 -83.498048 
L 480.87222 -80.287423 
L 473.038844 -77.076799 
L 466.802471 -73.866174 
L 462.220139 -70.655549 
z
" style="stroke: #595959; stroke-width: 1.25"/>
    </defs>
    <g clip-path="url(#p6e11b7b2b6)">
     <use xlink:href="#mf10fde1b59" x="0" y="432" style="fill: #95a3c3; stroke: #595959; stroke-width: 1.25"/>
    </g>
   </g>
   <g id="PolyCollection_4">
    <defs>
     <path id="mb3fe55c34b" d="M 620.225611 -83.069375 
L 606.222389 -83.069375 
L 599.617179 -86.068518 
L 589.767757 -89.067661 
L 577.333876 -92.066804 
L 564.443713 -95.065947 
L 554.273839 -98.06509 
L 549.8064 -101.064233 
L 552.404824 -104.063376 
L 561.137917 -107.062519 
L 573.308893 -110.061661 
L 585.786459 -113.060804 
L 596.254193 -116.059947 
L 603.739106 -119.05909 
L 608.39695 -122.058233 
L 610.953176 -125.057376 
L 612.205341 -128.056519 
L 612.763652 -131.055662 
L 613.000493 -134.054805 
L 613.104848 -137.053948 
L 613.15745 -140.05309 
L 613.187702 -143.052233 
L 613.20562 -146.051376 
L 613.215586 -149.050519 
L 613.22056 -152.049662 
L 613.222751 -155.048805 
L 613.223598 -158.047948 
L 613.223885 -161.047091 
L 613.223971 -164.046234 
L 613.223994 -167.045376 
L 613.223999 -170.044519 
L 613.224 -173.043662 
L 613.224 -176.042805 
L 613.224 -179.041948 
L 613.224 -182.041091 
L 613.224 -185.040234 
L 613.224 -188.039377 
L 613.224 -191.03852 
L 613.224 -194.037663 
L 613.224 -197.036805 
L 613.224 -200.035948 
L 613.224 -203.035091 
L 613.224 -206.034234 
L 613.224 -209.033377 
L 613.224 -212.03252 
L 613.224 -215.031663 
L 613.224 -218.030806 
L 613.224 -221.029949 
L 613.224 -224.029092 
L 613.224 -227.028234 
L 613.224 -230.027377 
L 613.224 -233.02652 
L 613.224 -236.025663 
L 613.224 -239.024806 
L 613.224 -242.023949 
L 613.224 -245.023092 
L 613.224 -248.022235 
L 613.224 -251.021378 
L 613.224 -254.020521 
L 613.224 -257.019663 
L 613.224 -260.018806 
L 613.224 -263.017949 
L 613.224 -266.017092 
L 613.224 -269.016235 
L 613.224 -272.015378 
L 613.224 -275.014521 
L 613.224 -278.013664 
L 613.224 -281.012807 
L 613.224 -284.01195 
L 613.224 -287.011092 
L 613.224 -290.010235 
L 613.224 -293.009378 
L 613.224 -296.008521 
L 613.224 -299.007664 
L 613.224 -302.006807 
L 613.224 -305.00595 
L 613.224 -308.005093 
L 613.224 -311.004236 
L 613.224 -314.003379 
L 613.223999 -317.002521 
L 613.223996 -320.001664 
L 613.22398 -323.000807 
L 613.223906 -325.99995 
L 613.223608 -328.999093 
L 613.222554 -331.998236 
L 613.21928 -334.997379 
L 613.210372 -337.996522 
L 613.189188 -340.995665 
L 613.14533 -343.994808 
L 613.066718 -346.99395 
L 612.945818 -349.993093 
L 612.788723 -352.992236 
L 612.621457 -355.991379 
L 612.486104 -358.990522 
L 612.424557 -361.989665 
L 612.457759 -364.988808 
L 612.574276 -367.987951 
L 612.736608 -370.987094 
L 612.900546 -373.986237 
L 613.034096 -376.985379 
L 613.125363 -379.984522 
L 613.322637 -379.984522 
L 613.322637 -379.984522 
L 613.413904 -376.985379 
L 613.547454 -373.986237 
L 613.711392 -370.987094 
L 613.873724 -367.987951 
L 613.990241 -364.988808 
L 614.023443 -361.989665 
L 613.961896 -358.990522 
L 613.826543 -355.991379 
L 613.659277 -352.992236 
L 613.502182 -349.993093 
L 613.381282 -346.99395 
L 613.30267 -343.994808 
L 613.258812 -340.995665 
L 613.237628 -337.996522 
L 613.22872 -334.997379 
L 613.225446 -331.998236 
L 613.224392 -328.999093 
L 613.224094 -325.99995 
L 613.22402 -323.000807 
L 613.224004 -320.001664 
L 613.224001 -317.002521 
L 613.224 -314.003379 
L 613.224 -311.004236 
L 613.224 -308.005093 
L 613.224 -305.00595 
L 613.224 -302.006807 
L 613.224 -299.007664 
L 613.224 -296.008521 
L 613.224 -293.009378 
L 613.224 -290.010235 
L 613.224 -287.011092 
L 613.224 -284.01195 
L 613.224 -281.012807 
L 613.224 -278.013664 
L 613.224 -275.014521 
L 613.224 -272.015378 
L 613.224 -269.016235 
L 613.224 -266.017092 
L 613.224 -263.017949 
L 613.224 -260.018806 
L 613.224 -257.019663 
L 613.224 -254.020521 
L 613.224 -251.021378 
L 613.224 -248.022235 
L 613.224 -245.023092 
L 613.224 -242.023949 
L 613.224 -239.024806 
L 613.224 -236.025663 
L 613.224 -233.02652 
L 613.224 -230.027377 
L 613.224 -227.028234 
L 613.224 -224.029092 
L 613.224 -221.029949 
L 613.224 -218.030806 
L 613.224 -215.031663 
L 613.224 -212.03252 
L 613.224 -209.033377 
L 613.224 -206.034234 
L 613.224 -203.035091 
L 613.224 -200.035948 
L 613.224 -197.036805 
L 613.224 -194.037663 
L 613.224 -191.03852 
L 613.224 -188.039377 
L 613.224 -185.040234 
L 613.224 -182.041091 
L 613.224 -179.041948 
L 613.224 -176.042805 
L 613.224 -173.043662 
L 613.224001 -170.044519 
L 613.224006 -167.045376 
L 613.224029 -164.046234 
L 613.224115 -161.047091 
L 613.224402 -158.047948 
L 613.225249 -155.048805 
L 613.22744 -152.049662 
L 613.232414 -149.050519 
L 613.24238 -146.051376 
L 613.260298 -143.052233 
L 613.29055 -140.05309 
L 613.343152 -137.053948 
L 613.447507 -134.054805 
L 613.684348 -131.055662 
L 614.242659 -128.056519 
L 615.494824 -125.057376 
L 618.05105 -122.058233 
L 622.708894 -119.05909 
L 630.193807 -116.059947 
L 640.661541 -113.060804 
L 653.139107 -110.061661 
L 665.310083 -107.062519 
L 674.043176 -104.063376 
L 676.6416 -101.064233 
L 672.174161 -98.06509 
L 662.004287 -95.065947 
L 649.114124 -92.066804 
L 636.680243 -89.067661 
L 626.830821 -86.068518 
L 620.225611 -83.069375 
z
" style="stroke: #595959; stroke-width: 1.25"/>
    </defs>
    <g clip-path="url(#p6e11b7b2b6)">
     <use xlink:href="#mb3fe55c34b" x="0" y="432" style="fill: #db96c0; stroke: #595959; stroke-width: 1.25"/>
    </g>
   </g>
   <g id="PolyCollection_5">
    <defs>
     <path id="mef88899952" d="M 778.878362 -85.471262 
L 764.657638 -85.471262 
L 754.725748 -88.40351 
L 739.036095 -91.335758 
L 721.262394 -94.268006 
L 708.920742 -97.200253 
L 708.3504 -100.132501 
L 719.475402 -103.064749 
L 736.181595 -105.996997 
L 751.550128 -108.929245 
L 762.066511 -111.861492 
L 767.788943 -114.79374 
L 770.335655 -117.725988 
L 771.26358 -120.658236 
L 771.53664 -123.590484 
L 771.611191 -126.522731 
L 771.652153 -129.454979 
L 771.693717 -132.387227 
L 771.72933 -135.319475 
L 771.751897 -138.251722 
L 771.762653 -141.18397 
L 771.766585 -144.116218 
L 771.767702 -147.048466 
L 771.76795 -149.980714 
L 771.767993 -152.912961 
L 771.767999 -155.845209 
L 771.768 -158.777457 
L 771.768 -161.709705 
L 771.768 -164.641952 
L 771.768 -167.5742 
L 771.768 -170.506448 
L 771.768 -173.438696 
L 771.768 -176.370944 
L 771.768 -179.303191 
L 771.768 -182.235439 
L 771.768 -185.167687 
L 771.768 -188.099935 
L 771.768 -191.032182 
L 771.768 -193.96443 
L 771.768 -196.896678 
L 771.768 -199.828926 
L 771.768 -202.761174 
L 771.768 -205.693421 
L 771.768 -208.625669 
L 771.768 -211.557917 
L 771.768 -214.490165 
L 771.768 -217.422413 
L 771.768 -220.35466 
L 771.768 -223.286908 
L 771.768 -226.219156 
L 771.768 -229.151404 
L 771.768 -232.083651 
L 771.768 -235.015899 
L 771.768 -237.948147 
L 771.768 -240.880395 
L 771.768 -243.812643 
L 771.768 -246.74489 
L 771.768 -249.677138 
L 771.768 -252.609386 
L 771.768 -255.541634 
L 771.768 -258.473881 
L 771.768 -261.406129 
L 771.768 -264.338377 
L 771.768 -267.270625 
L 771.768 -270.202873 
L 771.768 -273.13512 
L 771.768 -276.067368 
L 771.768 -278.999616 
L 771.768 -281.931864 
L 771.768 -284.864111 
L 771.768 -287.796359 
L 771.768 -290.728607 
L 771.768 -293.660855 
L 771.768 -296.593103 
L 771.768 -299.52535 
L 771.768 -302.457598 
L 771.768 -305.389846 
L 771.768 -308.322094 
L 771.768 -311.254342 
L 771.768 -314.186589 
L 771.768 -317.118837 
L 771.768 -320.051085 
L 771.768 -322.983333 
L 771.768 -325.91558 
L 771.768 -328.847828 
L 771.767998 -331.780076 
L 771.767979 -334.712324 
L 771.767844 -337.644572 
L 771.767091 -340.576819 
L 771.763766 -343.509067 
L 771.752214 -346.441315 
L 771.720909 -349.373563 
L 771.655578 -352.30581 
L 771.553177 -355.238058 
L 771.439388 -358.170306 
L 771.365555 -361.102554 
L 771.373375 -364.034802 
L 771.458165 -366.967049 
L 771.573219 -369.899297 
L 771.669958 -372.831545 
L 771.72849 -375.763793 
L 771.80751 -375.763793 
L 771.80751 -375.763793 
L 771.866042 -372.831545 
L 771.962781 -369.899297 
L 772.077835 -366.967049 
L 772.162625 -364.034802 
L 772.170445 -361.102554 
L 772.096612 -358.170306 
L 771.982823 -355.238058 
L 771.880422 -352.30581 
L 771.815091 -349.373563 
L 771.783786 -346.441315 
L 771.772234 -343.509067 
L 771.768909 -340.576819 
L 771.768156 -337.644572 
L 771.768021 -334.712324 
L 771.768002 -331.780076 
L 771.768 -328.847828 
L 771.768 -325.91558 
L 771.768 -322.983333 
L 771.768 -320.051085 
L 771.768 -317.118837 
L 771.768 -314.186589 
L 771.768 -311.254342 
L 771.768 -308.322094 
L 771.768 -305.389846 
L 771.768 -302.457598 
L 771.768 -299.52535 
L 771.768 -296.593103 
L 771.768 -293.660855 
L 771.768 -290.728607 
L 771.768 -287.796359 
L 771.768 -284.864111 
L 771.768 -281.931864 
L 771.768 -278.999616 
L 771.768 -276.067368 
L 771.768 -273.13512 
L 771.768 -270.202873 
L 771.768 -267.270625 
L 771.768 -264.338377 
L 771.768 -261.406129 
L 771.768 -258.473881 
L 771.768 -255.541634 
L 771.768 -252.609386 
L 771.768 -249.677138 
L 771.768 -246.74489 
L 771.768 -243.812643 
L 771.768 -240.880395 
L 771.768 -237.948147 
L 771.768 -235.015899 
L 771.768 -232.083651 
L 771.768 -229.151404 
L 771.768 -226.219156 
L 771.768 -223.286908 
L 771.768 -220.35466 
L 771.768 -217.422413 
L 771.768 -214.490165 
L 771.768 -211.557917 
L 771.768 -208.625669 
L 771.768 -205.693421 
L 771.768 -202.761174 
L 771.768 -199.828926 
L 771.768 -196.896678 
L 771.768 -193.96443 
L 771.768 -191.032182 
L 771.768 -188.099935 
L 771.768 -185.167687 
L 771.768 -182.235439 
L 771.768 -179.303191 
L 771.768 -176.370944 
L 771.768 -173.438696 
L 771.768 -170.506448 
L 771.768 -167.5742 
L 771.768 -164.641952 
L 771.768 -161.709705 
L 771.768 -158.777457 
L 771.768001 -155.845209 
L 771.768007 -152.912961 
L 771.76805 -149.980714 
L 771.768298 -147.048466 
L 771.769415 -144.116218 
L 771.773347 -141.18397 
L 771.784103 -138.251722 
L 771.80667 -135.319475 
L 771.842283 -132.387227 
L 771.883847 -129.454979 
L 771.924809 -126.522731 
L 771.99936 -123.590484 
L 772.27242 -120.658236 
L 773.200345 -117.725988 
L 775.747057 -114.79374 
L 781.469489 -111.861492 
L 791.985872 -108.929245 
L 807.354405 -105.996997 
L 824.060598 -103.064749 
L 835.1856 -100.132501 
L 834.615258 -97.200253 
L 822.273606 -94.268006 
L 804.499905 -91.335758 
L 788.810252 -88.40351 
L 778.878362 -85.471262 
z
" style="stroke: #595959; stroke-width: 1.25"/>
    </defs>
    <g clip-path="url(#p6e11b7b2b6)">
     <use xlink:href="#mef88899952" x="0" y="432" style="fill: #a2c865; stroke: #595959; stroke-width: 1.25"/>
    </g>
   </g>
   <g id="line2d_5">
    <path d="M 137.592 350.450817 
L 137.592 350.527562 
" clip-path="url(#p6e11b7b2b6)" style="fill: none; stroke: #000000"/>
   </g>
   <g id="line2d_6">
    <path d="M 137.592 350.287735 
L 137.592 350.044072 
" clip-path="url(#p6e11b7b2b6)" style="fill: none; stroke: #000000"/>
   </g>
   <g id="line2d_7">
    <path d="M 131.6466 350.527562 
L 143.5374 350.527562 
" clip-path="url(#p6e11b7b2b6)" style="fill: none; stroke: #000000; stroke-linecap: round"/>
   </g>
   <g id="line2d_8">
    <path d="M 131.6466 350.044072 
L 143.5374 350.044072 
" clip-path="url(#p6e11b7b2b6)" style="fill: none; stroke: #000000; stroke-linecap: round"/>
   </g>
   <g id="line2d_9">
    <path d="M 296.136 350.972679 
L 296.136 351.037912 
" clip-path="url(#p6e11b7b2b6)" style="fill: none; stroke: #000000"/>
   </g>
   <g id="line2d_10">
    <path d="M 296.136 350.88922 
L 296.136 350.780818 
" clip-path="url(#p6e11b7b2b6)" style="fill: none; stroke: #000000"/>
   </g>
   <g id="line2d_11">
    <path d="M 290.1906 351.037912 
L 302.0814 351.037912 
" clip-path="url(#p6e11b7b2b6)" style="fill: none; stroke: #000000; stroke-linecap: round"/>
   </g>
   <g id="line2d_12">
    <path d="M 290.1906 350.780818 
L 302.0814 350.780818 
" clip-path="url(#p6e11b7b2b6)" style="fill: none; stroke: #000000; stroke-linecap: round"/>
   </g>
   <g id="line2d_13">
    <path d="M 454.68 335.101935 
L 454.68 335.240075 
" clip-path="url(#p6e11b7b2b6)" style="fill: none; stroke: #000000"/>
   </g>
   <g id="line2d_14">
    <path d="M 454.68 334.104258 
L 454.68 332.611579 
" clip-path="url(#p6e11b7b2b6)" style="fill: none; stroke: #000000"/>
   </g>
   <g id="line2d_15">
    <path d="M 448.7346 335.240075 
L 460.6254 335.240075 
" clip-path="url(#p6e11b7b2b6)" style="fill: none; stroke: #000000; stroke-linecap: round"/>
   </g>
   <g id="line2d_16">
    <path d="M 448.7346 332.611579 
L 460.6254 332.611579 
" clip-path="url(#p6e11b7b2b6)" style="fill: none; stroke: #000000; stroke-linecap: round"/>
   </g>
   <g id="line2d_17">
    <path d="M 613.224 331.648436 
L 613.224 331.801925 
" clip-path="url(#p6e11b7b2b6)" style="fill: none; stroke: #000000"/>
   </g>
   <g id="line2d_18">
    <path d="M 613.224 330.451224 
L 613.224 328.693777 
" clip-path="url(#p6e11b7b2b6)" style="fill: none; stroke: #000000"/>
   </g>
   <g id="line2d_19">
    <path d="M 607.2786 331.801925 
L 619.1694 331.801925 
" clip-path="url(#p6e11b7b2b6)" style="fill: none; stroke: #000000; stroke-linecap: round"/>
   </g>
   <g id="line2d_20">
    <path d="M 607.2786 328.693777 
L 619.1694 328.693777 
" clip-path="url(#p6e11b7b2b6)" style="fill: none; stroke: #000000; stroke-linecap: round"/>
   </g>
   <g id="line2d_21">
    <path d="M 771.768 334.092746 
L 771.768 334.227049 
" clip-path="url(#p6e11b7b2b6)" style="fill: none; stroke: #000000"/>
   </g>
   <g id="line2d_22">
    <path d="M 771.768 333.247598 
L 771.768 332.093554 
" clip-path="url(#p6e11b7b2b6)" style="fill: none; stroke: #000000"/>
   </g>
   <g id="line2d_23">
    <path d="M 765.8226 334.227049 
L 777.7134 334.227049 
" clip-path="url(#p6e11b7b2b6)" style="fill: none; stroke: #000000; stroke-linecap: round"/>
   </g>
   <g id="line2d_24">
    <path d="M 765.8226 332.093554 
L 777.7134 332.093554 
" clip-path="url(#p6e11b7b2b6)" style="fill: none; stroke: #000000; stroke-linecap: round"/>
   </g>
   <g id="line2d_25">
    <path d="M 125.7012 350.416282 
L 149.4828 350.416282 
" clip-path="url(#p6e11b7b2b6)" style="fill: none; stroke: #ff0000; stroke-width: 2"/>
   </g>
   <g id="line2d_26">
    <path d="M 284.2452 350.941982 
L 308.0268 350.941982 
" clip-path="url(#p6e11b7b2b6)" style="fill: none; stroke: #ff0000; stroke-width: 2"/>
   </g>
   <g id="line2d_27">
    <path d="M 442.7892 335.006004 
L 466.5708 335.006004 
" clip-path="url(#p6e11b7b2b6)" style="fill: none; stroke: #ff0000; stroke-width: 2"/>
   </g>
   <g id="line2d_28">
    <path d="M 601.3332 331.529483 
L 625.1148 331.529483 
" clip-path="url(#p6e11b7b2b6)" style="fill: none; stroke: #ff0000; stroke-width: 2"/>
   </g>
   <g id="line2d_29">
    <path d="M 759.8772 333.99106 
L 783.6588 333.99106 
" clip-path="url(#p6e11b7b2b6)" style="fill: none; stroke: #ff0000; stroke-width: 2"/>
   </g>
   <g id="patch_3">
    <path d="M 58.32 377.237044 
L 58.32 27.6 
" style="fill: none; stroke: #cccccc; stroke-width: 1.25; stroke-linejoin: miter; stroke-linecap: square"/>
   </g>
   <g id="patch_4">
    <path d="M 851.04 377.237044 
L 851.04 27.6 
" style="fill: none; stroke: #cccccc; stroke-width: 1.25; stroke-linejoin: miter; stroke-linecap: square"/>
   </g>
   <g id="patch_5">
    <path d="M 58.32 377.237044 
L 851.04 377.237044 
" style="fill: none; stroke: #cccccc; stroke-width: 1.25; stroke-linejoin: miter; stroke-linecap: square"/>
   </g>
   <g id="patch_6">
    <path d="M 58.32 27.6 
L 851.04 27.6 
" style="fill: none; stroke: #cccccc; stroke-width: 1.25; stroke-linejoin: miter; stroke-linecap: square"/>
   </g>
   <g id="text_11">
    <!-- Handshake duration on QUIC with secp384r1 signature algorithm — Local YDE (35ms/2%) -->
    <g style="fill: #262626" transform="translate(184.493437 21.6) scale(0.12 -0.12)">
     <defs>
      <path id="DejaVuSans-51" d="M 2522 4238 
Q 1834 4238 1429 3725 
Q 1025 3213 1025 2328 
Q 1025 1447 1429 934 
Q 1834 422 2522 422 
Q 3209 422 3611 934 
Q 4013 1447 4013 2328 
Q 4013 3213 3611 3725 
Q 3209 4238 2522 4238 
z
M 3406 84 
L 4238 -825 
L 3475 -825 
L 2784 -78 
Q 2681 -84 2626 -87 
Q 2572 -91 2522 -91 
Q 1538 -91 948 567 
Q 359 1225 359 2328 
Q 359 3434 948 4092 
Q 1538 4750 2522 4750 
Q 3503 4750 4090 4092 
Q 4678 3434 4678 2328 
Q 4678 1516 4351 937 
Q 4025 359 3406 84 
z
" transform="scale(0.015625)"/>
      <path id="DejaVuSans-55" d="M 556 4666 
L 1191 4666 
L 1191 1831 
Q 1191 1081 1462 751 
Q 1734 422 2344 422 
Q 2950 422 3222 751 
Q 3494 1081 3494 1831 
L 3494 4666 
L 4128 4666 
L 4128 1753 
Q 4128 841 3676 375 
Q 3225 -91 2344 -91 
Q 1459 -91 1007 375 
Q 556 841 556 1753 
L 556 4666 
z
" transform="scale(0.015625)"/>
      <path id="DejaVuSans-49" d="M 628 4666 
L 1259 4666 
L 1259 0 
L 628 0 
L 628 4666 
z
" transform="scale(0.015625)"/>
      <path id="DejaVuSans-43" d="M 4122 4306 
L 4122 3641 
Q 3803 3938 3442 4084 
Q 3081 4231 2675 4231 
Q 1875 4231 1450 3742 
Q 1025 3253 1025 2328 
Q 1025 1406 1450 917 
Q 1875 428 2675 428 
Q 3081 428 3442 575 
Q 3803 722 4122 1019 
L 4122 359 
Q 3791 134 3420 21 
Q 3050 -91 2638 -91 
Q 1578 -91 968 557 
Q 359 1206 359 2328 
Q 359 3453 968 4101 
Q 1578 4750 2638 4750 
Q 3056 4750 3426 4639 
Q 3797 4528 4122 4306 
z
" transform="scale(0.015625)"/>
      <path id="DejaVuSans-77" d="M 269 3500 
L 844 3500 
L 1563 769 
L 2278 3500 
L 2956 3500 
L 3675 769 
L 4391 3500 
L 4966 3500 
L 4050 0 
L 3372 0 
L 2619 2869 
L 1863 0 
L 1184 0 
L 269 3500 
z
" transform="scale(0.015625)"/>
      <path id="DejaVuSans-67" d="M 2906 1791 
Q 2906 2416 2648 2759 
Q 2391 3103 1925 3103 
Q 1463 3103 1205 2759 
Q 947 2416 947 1791 
Q 947 1169 1205 825 
Q 1463 481 1925 481 
Q 2391 481 2648 825 
Q 2906 1169 2906 1791 
z
M 3481 434 
Q 3481 -459 3084 -895 
Q 2688 -1331 1869 -1331 
Q 1566 -1331 1297 -1286 
Q 1028 -1241 775 -1147 
L 775 -588 
Q 1028 -725 1275 -790 
Q 1522 -856 1778 -856 
Q 2344 -856 2625 -561 
Q 2906 -266 2906 331 
L 2906 616 
Q 2728 306 2450 153 
Q 2172 0 1784 0 
Q 1141 0 747 490 
Q 353 981 353 1791 
Q 353 2603 747 3093 
Q 1141 3584 1784 3584 
Q 2172 3584 2450 3431 
Q 2728 3278 2906 2969 
L 2906 3500 
L 3481 3500 
L 3481 434 
z
" transform="scale(0.015625)"/>
      <path id="DejaVuSans-6c" d="M 603 4863 
L 1178 4863 
L 1178 0 
L 603 0 
L 603 4863 
z
" transform="scale(0.015625)"/>
      <path id="DejaVuSans-2014" d="M 313 1978 
L 6088 1978 
L 6088 1528 
L 313 1528 
L 313 1978 
z
" transform="scale(0.015625)"/>
      <path id="DejaVuSans-4c" d="M 628 4666 
L 1259 4666 
L 1259 531 
L 3531 531 
L 3531 0 
L 628 0 
L 628 4666 
z
" transform="scale(0.015625)"/>
      <path id="DejaVuSans-59" d="M -13 4666 
L 666 4666 
L 1959 2747 
L 3244 4666 
L 3922 4666 
L 2272 2222 
L 2272 0 
L 1638 0 
L 1638 2222 
L -13 4666 
z
" transform="scale(0.015625)"/>
      <path id="DejaVuSans-44" d="M 1259 4147 
L 1259 519 
L 2022 519 
Q 2988 519 3436 956 
Q 3884 1394 3884 2338 
Q 3884 3275 3436 3711 
Q 2988 4147 2022 4147 
L 1259 4147 
z
M 628 4666 
L 1925 4666 
Q 3281 4666 3915 4102 
Q 4550 3538 4550 2338 
Q 4550 1131 3912 565 
Q 3275 0 1925 0 
L 628 0 
L 628 4666 
z
" transform="scale(0.015625)"/>
      <path id="DejaVuSans-45" d="M 628 4666 
L 3578 4666 
L 3578 4134 
L 1259 4134 
L 1259 2753 
L 3481 2753 
L 3481 2222 
L 1259 2222 
L 1259 531 
L 3634 531 
L 3634 0 
L 628 0 
L 628 4666 
z
" transform="scale(0.015625)"/>
      <path id="DejaVuSans-35" d="M 691 4666 
L 3169 4666 
L 3169 4134 
L 1269 4134 
L 1269 2991 
Q 1406 3038 1543 3061 
Q 1681 3084 1819 3084 
Q 2600 3084 3056 2656 
Q 3513 2228 3513 1497 
Q 3513 744 3044 326 
Q 2575 -91 1722 -91 
Q 1428 -91 1123 -41 
Q 819 9 494 109 
L 494 744 
Q 775 591 1075 516 
Q 1375 441 1709 441 
Q 2250 441 2565 725 
Q 2881 1009 2881 1497 
Q 2881 1984 2565 2268 
Q 2250 2553 1709 2553 
Q 1456 2553 1204 2497 
Q 953 2441 691 2322 
L 691 4666 
z
" transform="scale(0.015625)"/>
      <path id="DejaVuSans-2f" d="M 1625 4666 
L 2156 4666 
L 531 -594 
L 0 -594 
L 1625 4666 
z
" transform="scale(0.015625)"/>
      <path id="DejaVuSans-25" d="M 4653 2053 
Q 4381 2053 4226 1822 
Q 4072 1591 4072 1178 
Q 4072 772 4226 539 
Q 4381 306 4653 306 
Q 4919 306 5073 539 
Q 5228 772 5228 1178 
Q 5228 1588 5073 1820 
Q 4919 2053 4653 2053 
z
M 4653 2450 
Q 5147 2450 5437 2106 
Q 5728 1763 5728 1178 
Q 5728 594 5436 251 
Q 5144 -91 4653 -91 
Q 4153 -91 3862 251 
Q 3572 594 3572 1178 
Q 3572 1766 3864 2108 
Q 4156 2450 4653 2450 
z
M 1428 4353 
Q 1159 4353 1004 4120 
Q 850 3888 850 3481 
Q 850 3069 1003 2837 
Q 1156 2606 1428 2606 
Q 1700 2606 1854 2837 
Q 2009 3069 2009 3481 
Q 2009 3884 1853 4118 
Q 1697 4353 1428 4353 
z
M 4250 4750 
L 4750 4750 
L 1831 -91 
L 1331 -91 
L 4250 4750 
z
M 1428 4750 
Q 1922 4750 2215 4408 
Q 2509 4066 2509 3481 
Q 2509 2891 2217 2550 
Q 1925 2209 1428 2209 
Q 931 2209 642 2551 
Q 353 2894 353 3481 
Q 353 4063 643 4406 
Q 934 4750 1428 4750 
z
" transform="scale(0.015625)"/>
     </defs>
     <use xlink:href="#DejaVuSans-48"/>
     <use xlink:href="#DejaVuSans-61" x="75.195312"/>
     <use xlink:href="#DejaVuSans-6e" x="136.474609"/>
     <use xlink:href="#DejaVuSans-64" x="199.853516"/>
     <use xlink:href="#DejaVuSans-73" x="263.330078"/>
     <use xlink:href="#DejaVuSans-68" x="315.429688"/>
     <use xlink:href="#DejaVuSans-61" x="378.808594"/>
     <use xlink:href="#DejaVuSans-6b" x="440.087891"/>
     <use xlink:href="#DejaVuSans-65" x="494.373047"/>
     <use xlink:href="#DejaVuSans-20" x="555.896484"/>
     <use xlink:href="#DejaVuSans-64" x="587.683594"/>
     <use xlink:href="#DejaVuSans-75" x="651.160156"/>
     <use xlink:href="#DejaVuSans-72" x="714.539062"/>
     <use xlink:href="#DejaVuSans-61" x="755.652344"/>
     <use xlink:href="#DejaVuSans-74" x="816.931641"/>
     <use xlink:href="#DejaVuSans-69" x="856.140625"/>
     <use xlink:href="#DejaVuSans-6f" x="883.923828"/>
     <use xlink:href="#DejaVuSans-6e" x="945.105469"/>
     <use xlink:href="#DejaVuSans-20" x="1008.484375"/>
     <use xlink:href="#DejaVuSans-6f" x="1040.271484"/>
     <use xlink:href="#DejaVuSans-6e" x="1101.453125"/>
     <use xlink:href="#DejaVuSans-20" x="1164.832031"/>
     <use xlink:href="#DejaVuSans-51" x="1196.619141"/>
     <use xlink:href="#DejaVuSans-55" x="1275.330078"/>
     <use xlink:href="#DejaVuSans-49" x="1348.523438"/>
     <use xlink:href="#DejaVuSans-43" x="1378.015625"/>
     <use xlink:href="#DejaVuSans-20" x="1447.839844"/>
     <use xlink:href="#DejaVuSans-77" x="1479.626953"/>
     <use xlink:href="#DejaVuSans-69" x="1561.414062"/>
     <use xlink:href="#DejaVuSans-74" x="1589.197266"/>
     <use xlink:href="#DejaVuSans-68" x="1628.40625"/>
     <use xlink:href="#DejaVuSans-20" x="1691.785156"/>
     <use xlink:href="#DejaVuSans-73" x="1723.572266"/>
     <use xlink:href="#DejaVuSans-65" x="1775.671875"/>
     <use xlink:href="#DejaVuSans-63" x="1837.195312"/>
     <use xlink:href="#DejaVuSans-70" x="1892.175781"/>
     <use xlink:href="#DejaVuSans-33" x="1955.652344"/>
     <use xlink:href="#DejaVuSans-38" x="2019.275391"/>
     <use xlink:href="#DejaVuSans-34" x="2082.898438"/>
     <use xlink:href="#DejaVuSans-72" x="2146.521484"/>
     <use xlink:href="#DejaVuSans-31" x="2187.634766"/>
     <use xlink:href="#DejaVuSans-20" x="2251.257812"/>
     <use xlink:href="#DejaVuSans-73" x="2283.044922"/>
     <use xlink:href="#DejaVuSans-69" x="2335.144531"/>
     <use xlink:href="#DejaVuSans-67" x="2362.927734"/>
     <use xlink:href="#DejaVuSans-6e" x="2426.404297"/>
     <use xlink:href="#DejaVuSans-61" x="2489.783203"/>
     <use xlink:href="#DejaVuSans-74" x="2551.0625"/>
     <use xlink:href="#DejaVuSans-75" x="2590.271484"/>
     <use xlink:href="#DejaVuSans-72" x="2653.650391"/>
     <use xlink:href="#DejaVuSans-65" x="2692.513672"/>
     <use xlink:href="#DejaVuSans-20" x="2754.037109"/>
     <use xlink:href="#DejaVuSans-61" x="2785.824219"/>
     <use xlink:href="#DejaVuSans-6c" x="2847.103516"/>
     <use xlink:href="#DejaVuSans-67" x="2874.886719"/>
     <use xlink:href="#DejaVuSans-6f" x="2938.363281"/>
     <use xlink:href="#DejaVuSans-72" x="2999.544922"/>
     <use xlink:href="#DejaVuSans-69" x="3040.658203"/>
     <use xlink:href="#DejaVuSans-74" x="3068.441406"/>
     <use xlink:href="#DejaVuSans-68" x="3107.650391"/>
     <use xlink:href="#DejaVuSans-6d" x="3171.029297"/>
     <use xlink:href="#DejaVuSans-20" x="3268.441406"/>
     <use xlink:href="#DejaVuSans-2014" x="3300.228516"/>
     <use xlink:href="#DejaVuSans-20" x="3400.228516"/>
     <use xlink:href="#DejaVuSans-4c" x="3432.015625"/>
     <use xlink:href="#DejaVuSans-6f" x="3485.978516"/>
     <use xlink:href="#DejaVuSans-63" x="3547.160156"/>
     <use xlink:href="#DejaVuSans-61" x="3602.140625"/>
     <use xlink:href="#DejaVuSans-6c" x="3663.419922"/>
     <use xlink:href="#DejaVuSans-20" x="3691.203125"/>
     <use xlink:href="#DejaVuSans-59" x="3722.990234"/>
     <use xlink:href="#DejaVuSans-44" x="3784.074219"/>
     <use xlink:href="#DejaVuSans-45" x="3861.076172"/>
     <use xlink:href="#DejaVuSans-20" x="3924.259766"/>
     <use xlink:href="#DejaVuSans-28" x="3956.046875"/>
     <use xlink:href="#DejaVuSans-33" x="3995.060547"/>
     <use xlink:href="#DejaVuSans-35" x="4058.683594"/>
     <use xlink:href="#DejaVuSans-6d" x="4122.306641"/>
     <use xlink:href="#DejaVuSans-73" x="4219.71875"/>
     <use xlink:href="#DejaVuSans-2f" x="4271.818359"/>
     <use xlink:href="#DejaVuSans-32" x="4305.509766"/>
     <use xlink:href="#DejaVuSans-25" x="4369.132812"/>
     <use xlink:href="#DejaVuSans-29" x="4464.152344"/>
    </g>
   </g>
  </g>
 </g>
 <defs>
  <clipPath id="p6e11b7b2b6">
   <rect x="58.32" y="27.6" width="792.72" height="349.637044"/>
  </clipPath>
 </defs>
</svg>
