<?xml version="1.0" encoding="utf-8" standalone="no"?>
<!DOCTYPE svg PUBLIC "-//W3C//DTD SVG 1.1//EN"
  "http://www.w3.org/Graphics/SVG/1.1/DTD/svg11.dtd">
<svg xmlns:xlink="http://www.w3.org/1999/xlink" width="864pt" height="432pt" viewBox="0 0 864 432" xmlns="http://www.w3.org/2000/svg" version="1.1">
 <metadata>
  <rdf:RDF xmlns:dc="http://purl.org/dc/elements/1.1/" xmlns:cc="http://creativecommons.org/ns#" xmlns:rdf="http://www.w3.org/1999/02/22-rdf-syntax-ns#">
   <cc:Work>
    <dc:type rdf:resource="http://purl.org/dc/dcmitype/StillImage"/>
    <dc:date>2026-03-21T14:06:28.545663</dc:date>
    <dc:format>image/svg+xml</dc:format>
    <dc:creator>
     <cc:Agent>
      <dc:title>Matplotlib v3.6.3, https://matplotlib.org/</dc:title>
     </cc:Agent>
    </dc:creator>
   </cc:Work>
  </rdf:RDF>
 </metadata>
 <defs>
  <style type="text/css">*{stroke-linejoin: round; stroke-linecap: butt}</style>
 </defs>
 <g id="figure_1">
  <g id="patch_1">
   <path d="M 0 432 
L 864 432 
L 864 0 
L 0 0 
z
" style="fill: #ffffff"/>
  </g>
  <g id="axes_1">
   <g id="patch_2">
    <path d="M 58.32 377.237044 
L 851.04 377.237044 
L 851.04 27.6 
L 58.32 27.6 
z
" style="fill: #ffffff"/>
   </g>
   <g id="matplotlib.axis_1">
    <g id="xtick_1">
     <g id="text_1">
      <!-- P-384 -->
      <g style="fill: #262626" transform="translate(103.911421 404.396088) rotate(-15) scale(0.12 -0.12)">
       <defs>
        <path id="DejaVuSans-50" d="M 1259 4147 
L 1259 2394 
L 2053 2394 
Q 2494 2394 2734 2622 
Q 2975 2850 2975 3272 
Q 2975 3691 2734 3919 
Q 2494 4147 2053 4147 
L 1259 4147 
z
M 628 4666 
L 2053 4666 
Q 2838 4666 3239 4311 
Q 3641 3956 3641 3272 
Q 3641 2581 3239 2228 
Q 2838 1875 2053 1875 
L 1259 1875 
L 1259 0 
L 628 0 
L 628 4666 
z
" transform="scale(0.015625)"/>
        <path id="DejaVuSans-2d" d="M 313 2009 
L 1997 2009 
L 1997 1497 
L 313 1497 
L 313 2009 
z
" transform="scale(0.015625)"/>
        <path id="DejaVuSans-33" d="M 2597 2516 
Q 3050 2419 3304 2112 
Q 3559 1806 3559 1356 
Q 3559 666 3084 287 
Q 2609 -91 1734 -91 
Q 1441 -91 1130 -33 
Q 819 25 488 141 
L 488 750 
Q 750 597 1062 519 
Q 1375 441 1716 441 
Q 2309 441 2620 675 
Q 2931 909 2931 1356 
Q 2931 1769 2642 2001 
Q 2353 2234 1838 2234 
L 1294 2234 
L 1294 2753 
L 1863 2753 
Q 2328 2753 2575 2939 
Q 2822 3125 2822 3475 
Q 2822 3834 2567 4026 
Q 2313 4219 1838 4219 
Q 1578 4219 1281 4162 
Q 984 4106 628 3988 
L 628 4550 
Q 988 4650 1302 4700 
Q 1616 4750 1894 4750 
Q 2613 4750 3031 4423 
Q 3450 4097 3450 3541 
Q 3450 3153 3228 2886 
Q 3006 2619 2597 2516 
z
" transform="scale(0.015625)"/>
        <path id="DejaVuSans-38" d="M 2034 2216 
Q 1584 2216 1326 1975 
Q 1069 1734 1069 1313 
Q 1069 891 1326 650 
Q 1584 409 2034 409 
Q 2484 409 2743 651 
Q 3003 894 3003 1313 
Q 3003 1734 2745 1975 
Q 2488 2216 2034 2216 
z
M 1403 2484 
Q 997 2584 770 2862 
Q 544 3141 544 3541 
Q 544 4100 942 4425 
Q 1341 4750 2034 4750 
Q 2731 4750 3128 4425 
Q 3525 4100 3525 3541 
Q 3525 3141 3298 2862 
Q 3072 2584 2669 2484 
Q 3125 2378 3379 2068 
Q 3634 1759 3634 1313 
Q 3634 634 3220 271 
Q 2806 -91 2034 -91 
Q 1263 -91 848 271 
Q 434 634 434 1313 
Q 434 1759 690 2068 
Q 947 2378 1403 2484 
z
M 1172 3481 
Q 1172 3119 1398 2916 
Q 1625 2713 2034 2713 
Q 2441 2713 2670 2916 
Q 2900 3119 2900 3481 
Q 2900 3844 2670 4047 
Q 2441 4250 2034 4250 
Q 1625 4250 1398 4047 
Q 1172 3844 1172 3481 
z
" transform="scale(0.015625)"/>
        <path id="DejaVuSans-34" d="M 2419 4116 
L 825 1625 
L 2419 1625 
L 2419 4116 
z
M 2253 4666 
L 3047 4666 
L 3047 1625 
L 3713 1625 
L 3713 1100 
L 3047 1100 
L 3047 0 
L 2419 0 
L 2419 1100 
L 313 1100 
L 313 1709 
L 2253 4666 
z
" transform="scale(0.015625)"/>
       </defs>
       <use xlink:href="#DejaVuSans-50"/>
       <use xlink:href="#DejaVuSans-2d" x="58.052734"/>
       <use xlink:href="#DejaVuSans-33" x="94.136719"/>
       <use xlink:href="#DejaVuSans-38" x="157.759766"/>
       <use xlink:href="#DejaVuSans-34" x="221.382812"/>
      </g>
     </g>
    </g>
    <g id="xtick_2">
     <g id="text_2">
      <!-- x448 -->
      <g style="fill: #262626" transform="translate(266.505065 403.310989) rotate(-15) scale(0.12 -0.12)">
       <defs>
        <path id="DejaVuSans-78" d="M 3513 3500 
L 2247 1797 
L 3578 0 
L 2900 0 
L 1881 1375 
L 863 0 
L 184 0 
L 1544 1831 
L 300 3500 
L 978 3500 
L 1906 2253 
L 2834 3500 
L 3513 3500 
z
" transform="scale(0.015625)"/>
       </defs>
       <use xlink:href="#DejaVuSans-78"/>
       <use xlink:href="#DejaVuSans-34" x="59.179688"/>
       <use xlink:href="#DejaVuSans-34" x="122.802734"/>
       <use xlink:href="#DejaVuSans-38" x="186.425781"/>
      </g>
     </g>
    </g>
    <g id="xtick_3">
     <g id="text_3">
      <!-- hqc192 -->
      <g style="fill: #262626" transform="translate(410.831845 407.120482) rotate(-15) scale(0.12 -0.12)">
       <defs>
        <path id="DejaVuSans-68" d="M 3513 2113 
L 3513 0 
L 2938 0 
L 2938 2094 
Q 2938 2591 2744 2837 
Q 2550 3084 2163 3084 
Q 1697 3084 1428 2787 
Q 1159 2491 1159 1978 
L 1159 0 
L 581 0 
L 581 4863 
L 1159 4863 
L 1159 2956 
Q 1366 3272 1645 3428 
Q 1925 3584 2291 3584 
Q 2894 3584 3203 3211 
Q 3513 2838 3513 2113 
z
" transform="scale(0.015625)"/>
        <path id="DejaVuSans-71" d="M 947 1747 
Q 947 1113 1208 752 
Q 1469 391 1925 391 
Q 2381 391 2643 752 
Q 2906 1113 2906 1747 
Q 2906 2381 2643 2742 
Q 2381 3103 1925 3103 
Q 1469 3103 1208 2742 
Q 947 2381 947 1747 
z
M 2906 525 
Q 2725 213 2448 61 
Q 2172 -91 1784 -91 
Q 1150 -91 751 415 
Q 353 922 353 1747 
Q 353 2572 751 3078 
Q 1150 3584 1784 3584 
Q 2172 3584 2448 3432 
Q 2725 3281 2906 2969 
L 2906 3500 
L 3481 3500 
L 3481 -1331 
L 2906 -1331 
L 2906 525 
z
" transform="scale(0.015625)"/>
        <path id="DejaVuSans-63" d="M 3122 3366 
L 3122 2828 
Q 2878 2963 2633 3030 
Q 2388 3097 2138 3097 
Q 1578 3097 1268 2742 
Q 959 2388 959 1747 
Q 959 1106 1268 751 
Q 1578 397 2138 397 
Q 2388 397 2633 464 
Q 2878 531 3122 666 
L 3122 134 
Q 2881 22 2623 -34 
Q 2366 -91 2075 -91 
Q 1284 -91 818 406 
Q 353 903 353 1747 
Q 353 2603 823 3093 
Q 1294 3584 2113 3584 
Q 2378 3584 2631 3529 
Q 2884 3475 3122 3366 
z
" transform="scale(0.015625)"/>
        <path id="DejaVuSans-31" d="M 794 531 
L 1825 531 
L 1825 4091 
L 703 3866 
L 703 4441 
L 1819 4666 
L 2450 4666 
L 2450 531 
L 3481 531 
L 3481 0 
L 794 0 
L 794 531 
z
" transform="scale(0.015625)"/>
        <path id="DejaVuSans-39" d="M 703 97 
L 703 672 
Q 941 559 1184 500 
Q 1428 441 1663 441 
Q 2288 441 2617 861 
Q 2947 1281 2994 2138 
Q 2813 1869 2534 1725 
Q 2256 1581 1919 1581 
Q 1219 1581 811 2004 
Q 403 2428 403 3163 
Q 403 3881 828 4315 
Q 1253 4750 1959 4750 
Q 2769 4750 3195 4129 
Q 3622 3509 3622 2328 
Q 3622 1225 3098 567 
Q 2575 -91 1691 -91 
Q 1453 -91 1209 -44 
Q 966 3 703 97 
z
M 1959 2075 
Q 2384 2075 2632 2365 
Q 2881 2656 2881 3163 
Q 2881 3666 2632 3958 
Q 2384 4250 1959 4250 
Q 1534 4250 1286 3958 
Q 1038 3666 1038 3163 
Q 1038 2656 1286 2365 
Q 1534 2075 1959 2075 
z
" transform="scale(0.015625)"/>
        <path id="DejaVuSans-32" d="M 1228 531 
L 3431 531 
L 3431 0 
L 469 0 
L 469 531 
Q 828 903 1448 1529 
Q 2069 2156 2228 2338 
Q 2531 2678 2651 2914 
Q 2772 3150 2772 3378 
Q 2772 3750 2511 3984 
Q 2250 4219 1831 4219 
Q 1534 4219 1204 4116 
Q 875 4013 500 3803 
L 500 4441 
Q 881 4594 1212 4672 
Q 1544 4750 1819 4750 
Q 2544 4750 2975 4387 
Q 3406 4025 3406 3419 
Q 3406 3131 3298 2873 
Q 3191 2616 2906 2266 
Q 2828 2175 2409 1742 
Q 1991 1309 1228 531 
z
" transform="scale(0.015625)"/>
       </defs>
       <use xlink:href="#DejaVuSans-68"/>
       <use xlink:href="#DejaVuSans-71" x="63.378906"/>
       <use xlink:href="#DejaVuSans-63" x="126.855469"/>
       <use xlink:href="#DejaVuSans-31" x="181.835938"/>
       <use xlink:href="#DejaVuSans-39" x="245.458984"/>
       <use xlink:href="#DejaVuSans-32" x="309.082031"/>
      </g>
     </g>
    </g>
    <g id="xtick_4">
     <g id="text_4">
      <!-- p384_hqc192 -->
      <g style="fill: #262626" transform="translate(534.010834 416.573362) rotate(-15) scale(0.12 -0.12)">
       <defs>
        <path id="DejaVuSans-70" d="M 1159 525 
L 1159 -1331 
L 581 -1331 
L 581 3500 
L 1159 3500 
L 1159 2969 
Q 1341 3281 1617 3432 
Q 1894 3584 2278 3584 
Q 2916 3584 3314 3078 
Q 3713 2572 3713 1747 
Q 3713 922 3314 415 
Q 2916 -91 2278 -91 
Q 1894 -91 1617 61 
Q 1341 213 1159 525 
z
M 3116 1747 
Q 3116 2381 2855 2742 
Q 2594 3103 2138 3103 
Q 1681 3103 1420 2742 
Q 1159 2381 1159 1747 
Q 1159 1113 1420 752 
Q 1681 391 2138 391 
Q 2594 391 2855 752 
Q 3116 1113 3116 1747 
z
" transform="scale(0.015625)"/>
        <path id="DejaVuSans-5f" d="M 3263 -1063 
L 3263 -1509 
L -63 -1509 
L -63 -1063 
L 3263 -1063 
z
" transform="scale(0.015625)"/>
       </defs>
       <use xlink:href="#DejaVuSans-70"/>
       <use xlink:href="#DejaVuSans-33" x="63.476562"/>
       <use xlink:href="#DejaVuSans-38" x="127.099609"/>
       <use xlink:href="#DejaVuSans-34" x="190.722656"/>
       <use xlink:href="#DejaVuSans-5f" x="254.345703"/>
       <use xlink:href="#DejaVuSans-68" x="304.345703"/>
       <use xlink:href="#DejaVuSans-71" x="367.724609"/>
       <use xlink:href="#DejaVuSans-63" x="431.201172"/>
       <use xlink:href="#DejaVuSans-31" x="486.181641"/>
       <use xlink:href="#DejaVuSans-39" x="549.804688"/>
       <use xlink:href="#DejaVuSans-32" x="613.427734"/>
      </g>
     </g>
    </g>
    <g id="xtick_5">
     <g id="text_5">
      <!-- x448_hqc192 -->
      <g style="fill: #262626" transform="translate(693.05289 416.439909) rotate(-15) scale(0.12 -0.12)">
       <use xlink:href="#DejaVuSans-78"/>
       <use xlink:href="#DejaVuSans-34" x="59.179688"/>
       <use xlink:href="#DejaVuSans-34" x="122.802734"/>
       <use xlink:href="#DejaVuSans-38" x="186.425781"/>
       <use xlink:href="#DejaVuSans-5f" x="250.048828"/>
       <use xlink:href="#DejaVuSans-68" x="300.048828"/>
       <use xlink:href="#DejaVuSans-71" x="363.427734"/>
       <use xlink:href="#DejaVuSans-63" x="426.904297"/>
       <use xlink:href="#DejaVuSans-31" x="481.884766"/>
       <use xlink:href="#DejaVuSans-39" x="545.507812"/>
       <use xlink:href="#DejaVuSans-32" x="609.130859"/>
      </g>
     </g>
    </g>
   </g>
   <g id="matplotlib.axis_2">
    <g id="ytick_1">
     <g id="line2d_1">
      <path d="M 58.32 356.619969 
L 851.04 356.619969 
" clip-path="url(#p10d9873d65)" style="fill: none; stroke: #cccccc; stroke-linecap: round"/>
     </g>
     <g id="text_6">
      <!-- 400 -->
      <g style="fill: #262626" transform="translate(27.82375 360.79911) scale(0.11 -0.11)">
       <defs>
        <path id="DejaVuSans-30" d="M 2034 4250 
Q 1547 4250 1301 3770 
Q 1056 3291 1056 2328 
Q 1056 1369 1301 889 
Q 1547 409 2034 409 
Q 2525 409 2770 889 
Q 3016 1369 3016 2328 
Q 3016 3291 2770 3770 
Q 2525 4250 2034 4250 
z
M 2034 4750 
Q 2819 4750 3233 4129 
Q 3647 3509 3647 2328 
Q 3647 1150 3233 529 
Q 2819 -91 2034 -91 
Q 1250 -91 836 529 
Q 422 1150 422 2328 
Q 422 3509 836 4129 
Q 1250 4750 2034 4750 
z
" transform="scale(0.015625)"/>
       </defs>
       <use xlink:href="#DejaVuSans-34"/>
       <use xlink:href="#DejaVuSans-30" x="63.623047"/>
       <use xlink:href="#DejaVuSans-30" x="127.246094"/>
      </g>
     </g>
    </g>
    <g id="ytick_2">
     <g id="line2d_2">
      <path d="M 58.32 290.291525 
L 851.04 290.291525 
" clip-path="url(#p10d9873d65)" style="fill: none; stroke: #cccccc; stroke-linecap: round"/>
     </g>
     <g id="text_7">
      <!-- 500 -->
      <g style="fill: #262626" transform="translate(27.82375 294.470665) scale(0.11 -0.11)">
       <defs>
        <path id="DejaVuSans-35" d="M 691 4666 
L 3169 4666 
L 3169 4134 
L 1269 4134 
L 1269 2991 
Q 1406 3038 1543 3061 
Q 1681 3084 1819 3084 
Q 2600 3084 3056 2656 
Q 3513 2228 3513 1497 
Q 3513 744 3044 326 
Q 2575 -91 1722 -91 
Q 1428 -91 1123 -41 
Q 819 9 494 109 
L 494 744 
Q 775 591 1075 516 
Q 1375 441 1709 441 
Q 2250 441 2565 725 
Q 2881 1009 2881 1497 
Q 2881 1984 2565 2268 
Q 2250 2553 1709 2553 
Q 1456 2553 1204 2497 
Q 953 2441 691 2322 
L 691 4666 
z
" transform="scale(0.015625)"/>
       </defs>
       <use xlink:href="#DejaVuSans-35"/>
       <use xlink:href="#DejaVuSans-30" x="63.623047"/>
       <use xlink:href="#DejaVuSans-30" x="127.246094"/>
      </g>
     </g>
    </g>
    <g id="ytick_3">
     <g id="line2d_3">
      <path d="M 58.32 223.96308 
L 851.04 223.96308 
" clip-path="url(#p10d9873d65)" style="fill: none; stroke: #cccccc; stroke-linecap: round"/>
     </g>
     <g id="text_8">
      <!-- 600 -->
      <g style="fill: #262626" transform="translate(27.82375 228.142221) scale(0.11 -0.11)">
       <defs>
        <path id="DejaVuSans-36" d="M 2113 2584 
Q 1688 2584 1439 2293 
Q 1191 2003 1191 1497 
Q 1191 994 1439 701 
Q 1688 409 2113 409 
Q 2538 409 2786 701 
Q 3034 994 3034 1497 
Q 3034 2003 2786 2293 
Q 2538 2584 2113 2584 
z
M 3366 4563 
L 3366 3988 
Q 3128 4100 2886 4159 
Q 2644 4219 2406 4219 
Q 1781 4219 1451 3797 
Q 1122 3375 1075 2522 
Q 1259 2794 1537 2939 
Q 1816 3084 2150 3084 
Q 2853 3084 3261 2657 
Q 3669 2231 3669 1497 
Q 3669 778 3244 343 
Q 2819 -91 2113 -91 
Q 1303 -91 875 529 
Q 447 1150 447 2328 
Q 447 3434 972 4092 
Q 1497 4750 2381 4750 
Q 2619 4750 2861 4703 
Q 3103 4656 3366 4563 
z
" transform="scale(0.015625)"/>
       </defs>
       <use xlink:href="#DejaVuSans-36"/>
       <use xlink:href="#DejaVuSans-30" x="63.623047"/>
       <use xlink:href="#DejaVuSans-30" x="127.246094"/>
      </g>
     </g>
    </g>
    <g id="ytick_4">
     <g id="line2d_4">
      <path d="M 58.32 157.634636 
L 851.04 157.634636 
" clip-path="url(#p10d9873d65)" style="fill: none; stroke: #cccccc; stroke-linecap: round"/>
     </g>
     <g id="text_9">
      <!-- 700 -->
      <g style="fill: #262626" transform="translate(27.82375 161.813776) scale(0.11 -0.11)">
       <defs>
        <path id="DejaVuSans-37" d="M 525 4666 
L 3525 4666 
L 3525 4397 
L 1831 0 
L 1172 0 
L 2766 4134 
L 525 4134 
L 525 4666 
z
" transform="scale(0.015625)"/>
       </defs>
       <use xlink:href="#DejaVuSans-37"/>
       <use xlink:href="#DejaVuSans-30" x="63.623047"/>
       <use xlink:href="#DejaVuSans-30" x="127.246094"/>
      </g>
     </g>
    </g>
    <g id="ytick_5">
     <g id="line2d_5">
      <path d="M 58.32 91.306191 
L 851.04 91.306191 
" clip-path="url(#p10d9873d65)" style="fill: none; stroke: #cccccc; stroke-linecap: round"/>
     </g>
     <g id="text_10">
      <!-- 800 -->
      <g style="fill: #262626" transform="translate(27.82375 95.485332) scale(0.11 -0.11)">
       <use xlink:href="#DejaVuSans-38"/>
       <use xlink:href="#DejaVuSans-30" x="63.623047"/>
       <use xlink:href="#DejaVuSans-30" x="127.246094"/>
      </g>
     </g>
    </g>
    <g id="text_11">
     <!-- Handshake duration (ms) -->
     <g style="fill: #262626" transform="translate(21.328125 278.486335) rotate(-90) scale(0.12 -0.12)">
      <defs>
       <path id="DejaVuSans-48" d="M 628 4666 
L 1259 4666 
L 1259 2753 
L 3553 2753 
L 3553 4666 
L 4184 4666 
L 4184 0 
L 3553 0 
L 3553 2222 
L 1259 2222 
L 1259 0 
L 628 0 
L 628 4666 
z
" transform="scale(0.015625)"/>
       <path id="DejaVuSans-61" d="M 2194 1759 
Q 1497 1759 1228 1600 
Q 959 1441 959 1056 
Q 959 750 1161 570 
Q 1363 391 1709 391 
Q 2188 391 2477 730 
Q 2766 1069 2766 1631 
L 2766 1759 
L 2194 1759 
z
M 3341 1997 
L 3341 0 
L 2766 0 
L 2766 531 
Q 2569 213 2275 61 
Q 1981 -91 1556 -91 
Q 1019 -91 701 211 
Q 384 513 384 1019 
Q 384 1609 779 1909 
Q 1175 2209 1959 2209 
L 2766 2209 
L 2766 2266 
Q 2766 2663 2505 2880 
Q 2244 3097 1772 3097 
Q 1472 3097 1187 3025 
Q 903 2953 641 2809 
L 641 3341 
Q 956 3463 1253 3523 
Q 1550 3584 1831 3584 
Q 2591 3584 2966 3190 
Q 3341 2797 3341 1997 
z
" transform="scale(0.015625)"/>
       <path id="DejaVuSans-6e" d="M 3513 2113 
L 3513 0 
L 2938 0 
L 2938 2094 
Q 2938 2591 2744 2837 
Q 2550 3084 2163 3084 
Q 1697 3084 1428 2787 
Q 1159 2491 1159 1978 
L 1159 0 
L 581 0 
L 581 3500 
L 1159 3500 
L 1159 2956 
Q 1366 3272 1645 3428 
Q 1925 3584 2291 3584 
Q 2894 3584 3203 3211 
Q 3513 2838 3513 2113 
z
" transform="scale(0.015625)"/>
       <path id="DejaVuSans-64" d="M 2906 2969 
L 2906 4863 
L 3481 4863 
L 3481 0 
L 2906 0 
L 2906 525 
Q 2725 213 2448 61 
Q 2172 -91 1784 -91 
Q 1150 -91 751 415 
Q 353 922 353 1747 
Q 353 2572 751 3078 
Q 1150 3584 1784 3584 
Q 2172 3584 2448 3432 
Q 2725 3281 2906 2969 
z
M 947 1747 
Q 947 1113 1208 752 
Q 1469 391 1925 391 
Q 2381 391 2643 752 
Q 2906 1113 2906 1747 
Q 2906 2381 2643 2742 
Q 2381 3103 1925 3103 
Q 1469 3103 1208 2742 
Q 947 2381 947 1747 
z
" transform="scale(0.015625)"/>
       <path id="DejaVuSans-73" d="M 2834 3397 
L 2834 2853 
Q 2591 2978 2328 3040 
Q 2066 3103 1784 3103 
Q 1356 3103 1142 2972 
Q 928 2841 928 2578 
Q 928 2378 1081 2264 
Q 1234 2150 1697 2047 
L 1894 2003 
Q 2506 1872 2764 1633 
Q 3022 1394 3022 966 
Q 3022 478 2636 193 
Q 2250 -91 1575 -91 
Q 1294 -91 989 -36 
Q 684 19 347 128 
L 347 722 
Q 666 556 975 473 
Q 1284 391 1588 391 
Q 1994 391 2212 530 
Q 2431 669 2431 922 
Q 2431 1156 2273 1281 
Q 2116 1406 1581 1522 
L 1381 1569 
Q 847 1681 609 1914 
Q 372 2147 372 2553 
Q 372 3047 722 3315 
Q 1072 3584 1716 3584 
Q 2034 3584 2315 3537 
Q 2597 3491 2834 3397 
z
" transform="scale(0.015625)"/>
       <path id="DejaVuSans-6b" d="M 581 4863 
L 1159 4863 
L 1159 1991 
L 2875 3500 
L 3609 3500 
L 1753 1863 
L 3688 0 
L 2938 0 
L 1159 1709 
L 1159 0 
L 581 0 
L 581 4863 
z
" transform="scale(0.015625)"/>
       <path id="DejaVuSans-65" d="M 3597 1894 
L 3597 1613 
L 953 1613 
Q 991 1019 1311 708 
Q 1631 397 2203 397 
Q 2534 397 2845 478 
Q 3156 559 3463 722 
L 3463 178 
Q 3153 47 2828 -22 
Q 2503 -91 2169 -91 
Q 1331 -91 842 396 
Q 353 884 353 1716 
Q 353 2575 817 3079 
Q 1281 3584 2069 3584 
Q 2775 3584 3186 3129 
Q 3597 2675 3597 1894 
z
M 3022 2063 
Q 3016 2534 2758 2815 
Q 2500 3097 2075 3097 
Q 1594 3097 1305 2825 
Q 1016 2553 972 2059 
L 3022 2063 
z
" transform="scale(0.015625)"/>
       <path id="DejaVuSans-20" transform="scale(0.015625)"/>
       <path id="DejaVuSans-75" d="M 544 1381 
L 544 3500 
L 1119 3500 
L 1119 1403 
Q 1119 906 1312 657 
Q 1506 409 1894 409 
Q 2359 409 2629 706 
Q 2900 1003 2900 1516 
L 2900 3500 
L 3475 3500 
L 3475 0 
L 2900 0 
L 2900 538 
Q 2691 219 2414 64 
Q 2138 -91 1772 -91 
Q 1169 -91 856 284 
Q 544 659 544 1381 
z
M 1991 3584 
L 1991 3584 
z
" transform="scale(0.015625)"/>
       <path id="DejaVuSans-72" d="M 2631 2963 
Q 2534 3019 2420 3045 
Q 2306 3072 2169 3072 
Q 1681 3072 1420 2755 
Q 1159 2438 1159 1844 
L 1159 0 
L 581 0 
L 581 3500 
L 1159 3500 
L 1159 2956 
Q 1341 3275 1631 3429 
Q 1922 3584 2338 3584 
Q 2397 3584 2469 3576 
Q 2541 3569 2628 3553 
L 2631 2963 
z
" transform="scale(0.015625)"/>
       <path id="DejaVuSans-74" d="M 1172 4494 
L 1172 3500 
L 2356 3500 
L 2356 3053 
L 1172 3053 
L 1172 1153 
Q 1172 725 1289 603 
Q 1406 481 1766 481 
L 2356 481 
L 2356 0 
L 1766 0 
Q 1100 0 847 248 
Q 594 497 594 1153 
L 594 3053 
L 172 3053 
L 172 3500 
L 594 3500 
L 594 4494 
L 1172 4494 
z
" transform="scale(0.015625)"/>
       <path id="DejaVuSans-69" d="M 603 3500 
L 1178 3500 
L 1178 0 
L 603 0 
L 603 3500 
z
M 603 4863 
L 1178 4863 
L 1178 4134 
L 603 4134 
L 603 4863 
z
" transform="scale(0.015625)"/>
       <path id="DejaVuSans-6f" d="M 1959 3097 
Q 1497 3097 1228 2736 
Q 959 2375 959 1747 
Q 959 1119 1226 758 
Q 1494 397 1959 397 
Q 2419 397 2687 759 
Q 2956 1122 2956 1747 
Q 2956 2369 2687 2733 
Q 2419 3097 1959 3097 
z
M 1959 3584 
Q 2709 3584 3137 3096 
Q 3566 2609 3566 1747 
Q 3566 888 3137 398 
Q 2709 -91 1959 -91 
Q 1206 -91 779 398 
Q 353 888 353 1747 
Q 353 2609 779 3096 
Q 1206 3584 1959 3584 
z
" transform="scale(0.015625)"/>
       <path id="DejaVuSans-28" d="M 1984 4856 
Q 1566 4138 1362 3434 
Q 1159 2731 1159 2009 
Q 1159 1288 1364 580 
Q 1569 -128 1984 -844 
L 1484 -844 
Q 1016 -109 783 600 
Q 550 1309 550 2009 
Q 550 2706 781 3412 
Q 1013 4119 1484 4856 
L 1984 4856 
z
" transform="scale(0.015625)"/>
       <path id="DejaVuSans-6d" d="M 3328 2828 
Q 3544 3216 3844 3400 
Q 4144 3584 4550 3584 
Q 5097 3584 5394 3201 
Q 5691 2819 5691 2113 
L 5691 0 
L 5113 0 
L 5113 2094 
Q 5113 2597 4934 2840 
Q 4756 3084 4391 3084 
Q 3944 3084 3684 2787 
Q 3425 2491 3425 1978 
L 3425 0 
L 2847 0 
L 2847 2094 
Q 2847 2600 2669 2842 
Q 2491 3084 2119 3084 
Q 1678 3084 1418 2786 
Q 1159 2488 1159 1978 
L 1159 0 
L 581 0 
L 581 3500 
L 1159 3500 
L 1159 2956 
Q 1356 3278 1631 3431 
Q 1906 3584 2284 3584 
Q 2666 3584 2933 3390 
Q 3200 3197 3328 2828 
z
" transform="scale(0.015625)"/>
       <path id="DejaVuSans-29" d="M 513 4856 
L 1013 4856 
Q 1481 4119 1714 3412 
Q 1947 2706 1947 2009 
Q 1947 1309 1714 600 
Q 1481 -109 1013 -844 
L 513 -844 
Q 928 -128 1133 580 
Q 1338 1288 1338 2009 
Q 1338 2731 1133 3434 
Q 928 4138 513 4856 
z
" transform="scale(0.015625)"/>
      </defs>
      <use xlink:href="#DejaVuSans-48"/>
      <use xlink:href="#DejaVuSans-61" x="75.195312"/>
      <use xlink:href="#DejaVuSans-6e" x="136.474609"/>
      <use xlink:href="#DejaVuSans-64" x="199.853516"/>
      <use xlink:href="#DejaVuSans-73" x="263.330078"/>
      <use xlink:href="#DejaVuSans-68" x="315.429688"/>
      <use xlink:href="#DejaVuSans-61" x="378.808594"/>
      <use xlink:href="#DejaVuSans-6b" x="440.087891"/>
      <use xlink:href="#DejaVuSans-65" x="494.373047"/>
      <use xlink:href="#DejaVuSans-20" x="555.896484"/>
      <use xlink:href="#DejaVuSans-64" x="587.683594"/>
      <use xlink:href="#DejaVuSans-75" x="651.160156"/>
      <use xlink:href="#DejaVuSans-72" x="714.539062"/>
      <use xlink:href="#DejaVuSans-61" x="755.652344"/>
      <use xlink:href="#DejaVuSans-74" x="816.931641"/>
      <use xlink:href="#DejaVuSans-69" x="856.140625"/>
      <use xlink:href="#DejaVuSans-6f" x="883.923828"/>
      <use xlink:href="#DejaVuSans-6e" x="945.105469"/>
      <use xlink:href="#DejaVuSans-20" x="1008.484375"/>
      <use xlink:href="#DejaVuSans-28" x="1040.271484"/>
      <use xlink:href="#DejaVuSans-6d" x="1079.285156"/>
      <use xlink:href="#DejaVuSans-73" x="1176.697266"/>
      <use xlink:href="#DejaVuSans-29" x="1228.796875"/>
     </g>
    </g>
   </g>
   <g id="PolyCollection_1">
    <defs>
     <path id="m5f7d9c5fe0" d="M 144.942963 -71.470959 
L 130.241037 -71.470959 
L 110.213902 -74.316832 
L 81.496034 -77.162704 
L 74.1744 -80.008576 
L 97.895655 -82.854448 
L 123.780411 -85.700321 
L 134.910149 -88.546193 
L 137.300302 -91.392065 
L 137.574177 -94.237937 
L 137.591387 -97.08381 
L 137.591988 -99.929682 
L 137.592 -102.775554 
L 137.592 -105.621426 
L 137.592 -108.467299 
L 137.592 -111.313171 
L 137.592 -114.159043 
L 137.592 -117.004915 
L 137.592 -119.850788 
L 137.592 -122.69666 
L 137.592 -125.542532 
L 137.592 -128.388404 
L 137.592 -131.234277 
L 137.592 -134.080149 
L 137.592 -136.926021 
L 137.592 -139.771893 
L 137.592 -142.617766 
L 137.592 -145.463638 
L 137.592 -148.30951 
L 137.592 -151.155382 
L 137.592 -154.001255 
L 137.592 -156.847127 
L 137.592 -159.692999 
L 137.592 -162.538871 
L 137.592 -165.384744 
L 137.592 -168.230616 
L 137.592 -171.076488 
L 137.592 -173.92236 
L 137.592 -176.768233 
L 137.592 -179.614105 
L 137.592 -182.459977 
L 137.592 -185.30585 
L 137.592 -188.151722 
L 137.592 -190.997594 
L 137.592 -193.843466 
L 137.592 -196.689339 
L 137.592 -199.535211 
L 137.592 -202.381083 
L 137.592 -205.226955 
L 137.592 -208.072828 
L 137.592 -210.9187 
L 137.592 -213.764572 
L 137.592 -216.610444 
L 137.592 -219.456317 
L 137.592 -222.302189 
L 137.592 -225.148061 
L 137.592 -227.993933 
L 137.592 -230.839806 
L 137.592 -233.685678 
L 137.592 -236.53155 
L 137.592 -239.377422 
L 137.592 -242.223295 
L 137.592 -245.069167 
L 137.592 -247.915039 
L 137.592 -250.760911 
L 137.592 -253.606784 
L 137.592 -256.452656 
L 137.592 -259.298528 
L 137.592 -262.1444 
L 137.592 -264.990273 
L 137.592 -267.836145 
L 137.592 -270.682017 
L 137.592 -273.527889 
L 137.592 -276.373762 
L 137.592 -279.219634 
L 137.592 -282.065506 
L 137.592 -284.911378 
L 137.592 -287.757251 
L 137.592 -290.603123 
L 137.592 -293.448995 
L 137.592 -296.294867 
L 137.592 -299.14074 
L 137.592 -301.986612 
L 137.592 -304.832484 
L 137.592 -307.678356 
L 137.592 -310.524229 
L 137.592 -313.370101 
L 137.592 -316.215973 
L 137.592 -319.061845 
L 137.592 -321.907718 
L 137.592 -324.75359 
L 137.592 -327.599462 
L 137.591983 -330.445334 
L 137.591654 -333.291207 
L 137.588213 -336.137079 
L 137.569424 -338.982951 
L 137.518745 -341.828823 
L 137.462608 -344.674696 
L 137.467591 -347.520568 
L 137.526887 -350.36644 
L 137.573449 -353.212313 
L 137.610551 -353.212313 
L 137.610551 -353.212313 
L 137.657113 -350.36644 
L 137.716409 -347.520568 
L 137.721392 -344.674696 
L 137.665255 -341.828823 
L 137.614576 -338.982951 
L 137.595787 -336.137079 
L 137.592346 -333.291207 
L 137.592017 -330.445334 
L 137.592 -327.599462 
L 137.592 -324.75359 
L 137.592 -321.907718 
L 137.592 -319.061845 
L 137.592 -316.215973 
L 137.592 -313.370101 
L 137.592 -310.524229 
L 137.592 -307.678356 
L 137.592 -304.832484 
L 137.592 -301.986612 
L 137.592 -299.14074 
L 137.592 -296.294867 
L 137.592 -293.448995 
L 137.592 -290.603123 
L 137.592 -287.757251 
L 137.592 -284.911378 
L 137.592 -282.065506 
L 137.592 -279.219634 
L 137.592 -276.373762 
L 137.592 -273.527889 
L 137.592 -270.682017 
L 137.592 -267.836145 
L 137.592 -264.990273 
L 137.592 -262.1444 
L 137.592 -259.298528 
L 137.592 -256.452656 
L 137.592 -253.606784 
L 137.592 -250.760911 
L 137.592 -247.915039 
L 137.592 -245.069167 
L 137.592 -242.223295 
L 137.592 -239.377422 
L 137.592 -236.53155 
L 137.592 -233.685678 
L 137.592 -230.839806 
L 137.592 -227.993933 
L 137.592 -225.148061 
L 137.592 -222.302189 
L 137.592 -219.456317 
L 137.592 -216.610444 
L 137.592 -213.764572 
L 137.592 -210.9187 
L 137.592 -208.072828 
L 137.592 -205.226955 
L 137.592 -202.381083 
L 137.592 -199.535211 
L 137.592 -196.689339 
L 137.592 -193.843466 
L 137.592 -190.997594 
L 137.592 -188.151722 
L 137.592 -185.30585 
L 137.592 -182.459977 
L 137.592 -179.614105 
L 137.592 -176.768233 
L 137.592 -173.92236 
L 137.592 -171.076488 
L 137.592 -168.230616 
L 137.592 -165.384744 
L 137.592 -162.538871 
L 137.592 -159.692999 
L 137.592 -156.847127 
L 137.592 -154.001255 
L 137.592 -151.155382 
L 137.592 -148.30951 
L 137.592 -145.463638 
L 137.592 -142.617766 
L 137.592 -139.771893 
L 137.592 -136.926021 
L 137.592 -134.080149 
L 137.592 -131.234277 
L 137.592 -128.388404 
L 137.592 -125.542532 
L 137.592 -122.69666 
L 137.592 -119.850788 
L 137.592 -117.004915 
L 137.592 -114.159043 
L 137.592 -111.313171 
L 137.592 -108.467299 
L 137.592 -105.621426 
L 137.592 -102.775554 
L 137.592012 -99.929682 
L 137.592613 -97.08381 
L 137.609823 -94.237937 
L 137.883698 -91.392065 
L 140.273851 -88.546193 
L 151.403589 -85.700321 
L 177.288345 -82.854448 
L 201.0096 -80.008576 
L 193.687966 -77.162704 
L 164.970098 -74.316832 
L 144.942963 -71.470959 
z
" style="stroke: #595959; stroke-width: 1.25"/>
    </defs>
    <g clip-path="url(#p10d9873d65)">
     <use xlink:href="#m5f7d9c5fe0" x="0" y="432" style="fill: #72b6a1; stroke: #595959; stroke-width: 1.25"/>
    </g>
   </g>
   <g id="PolyCollection_2">
    <defs>
     <path id="mab493fcc20" d="M 303.694511 -70.655549 
L 288.577489 -70.655549 
L 267.970867 -73.487142 
L 238.934704 -76.318735 
L 232.7184 -79.150328 
L 257.685529 -81.981921 
L 283.36217 -84.813513 
L 293.806162 -87.645106 
L 295.902263 -90.476699 
L 296.123081 -93.308292 
L 296.135606 -96.139885 
L 296.135993 -98.971478 
L 296.136 -101.803071 
L 296.136 -104.634664 
L 296.136 -107.466257 
L 296.136 -110.29785 
L 296.136 -113.129443 
L 296.136 -115.961036 
L 296.136 -118.792628 
L 296.136 -121.624221 
L 296.136 -124.455814 
L 296.136 -127.287407 
L 296.136 -130.119 
L 296.136 -132.950593 
L 296.136 -135.782186 
L 296.136 -138.613779 
L 296.136 -141.445372 
L 296.136 -144.276965 
L 296.136 -147.108558 
L 296.136 -149.94015 
L 296.136 -152.771743 
L 296.136 -155.603336 
L 296.136 -158.434929 
L 296.136 -161.266522 
L 296.136 -164.098115 
L 296.136 -166.929708 
L 296.136 -169.761301 
L 296.136 -172.592894 
L 296.136 -175.424487 
L 296.136 -178.25608 
L 296.136 -181.087673 
L 296.136 -183.919265 
L 296.136 -186.750858 
L 296.136 -189.582451 
L 296.136 -192.414044 
L 296.136 -195.245637 
L 296.136 -198.07723 
L 296.136 -200.908823 
L 296.136 -203.740416 
L 296.136 -206.572009 
L 296.136 -209.403602 
L 296.136 -212.235195 
L 296.136 -215.066787 
L 296.136 -217.89838 
L 296.136 -220.729973 
L 296.136 -223.561566 
L 296.136 -226.393159 
L 296.136 -229.224752 
L 296.136 -232.056345 
L 296.136 -234.887938 
L 296.136 -237.719531 
L 296.136 -240.551124 
L 296.136 -243.382717 
L 296.136 -246.21431 
L 296.136 -249.045902 
L 296.136 -251.877495 
L 296.136 -254.709088 
L 296.136 -257.540681 
L 296.136 -260.372274 
L 296.136 -263.203867 
L 296.136 -266.03546 
L 296.136 -268.867053 
L 296.136 -271.698646 
L 296.136 -274.530239 
L 296.136 -277.361832 
L 296.136 -280.193425 
L 296.136 -283.025017 
L 296.136 -285.85661 
L 296.136 -288.688203 
L 296.136 -291.519796 
L 296.136 -294.351389 
L 296.136 -297.182982 
L 296.136 -300.014575 
L 296.136 -302.846168 
L 296.136 -305.677761 
L 296.136 -308.509354 
L 296.136 -311.340947 
L 296.136 -314.172539 
L 296.136 -317.004132 
L 296.136 -319.835725 
L 296.136 -322.667318 
L 296.136 -325.498911 
L 296.135985 -328.330504 
L 296.135688 -331.162097 
L 296.132476 -333.99369 
L 296.114437 -336.825283 
L 296.064618 -339.656876 
L 296.008166 -342.488469 
L 296.012154 -345.320062 
L 296.071093 -348.151654 
L 296.117597 -350.983247 
L 296.154403 -350.983247 
L 296.154403 -350.983247 
L 296.200907 -348.151654 
L 296.259846 -345.320062 
L 296.263834 -342.488469 
L 296.207382 -339.656876 
L 296.157563 -336.825283 
L 296.139524 -333.99369 
L 296.136312 -331.162097 
L 296.136015 -328.330504 
L 296.136 -325.498911 
L 296.136 -322.667318 
L 296.136 -319.835725 
L 296.136 -317.004132 
L 296.136 -314.172539 
L 296.136 -311.340947 
L 296.136 -308.509354 
L 296.136 -305.677761 
L 296.136 -302.846168 
L 296.136 -300.014575 
L 296.136 -297.182982 
L 296.136 -294.351389 
L 296.136 -291.519796 
L 296.136 -288.688203 
L 296.136 -285.85661 
L 296.136 -283.025017 
L 296.136 -280.193425 
L 296.136 -277.361832 
L 296.136 -274.530239 
L 296.136 -271.698646 
L 296.136 -268.867053 
L 296.136 -266.03546 
L 296.136 -263.203867 
L 296.136 -260.372274 
L 296.136 -257.540681 
L 296.136 -254.709088 
L 296.136 -251.877495 
L 296.136 -249.045902 
L 296.136 -246.21431 
L 296.136 -243.382717 
L 296.136 -240.551124 
L 296.136 -237.719531 
L 296.136 -234.887938 
L 296.136 -232.056345 
L 296.136 -229.224752 
L 296.136 -226.393159 
L 296.136 -223.561566 
L 296.136 -220.729973 
L 296.136 -217.89838 
L 296.136 -215.066787 
L 296.136 -212.235195 
L 296.136 -209.403602 
L 296.136 -206.572009 
L 296.136 -203.740416 
L 296.136 -200.908823 
L 296.136 -198.07723 
L 296.136 -195.245637 
L 296.136 -192.414044 
L 296.136 -189.582451 
L 296.136 -186.750858 
L 296.136 -183.919265 
L 296.136 -181.087673 
L 296.136 -178.25608 
L 296.136 -175.424487 
L 296.136 -172.592894 
L 296.136 -169.761301 
L 296.136 -166.929708 
L 296.136 -164.098115 
L 296.136 -161.266522 
L 296.136 -158.434929 
L 296.136 -155.603336 
L 296.136 -152.771743 
L 296.136 -149.94015 
L 296.136 -147.108558 
L 296.136 -144.276965 
L 296.136 -141.445372 
L 296.136 -138.613779 
L 296.136 -135.782186 
L 296.136 -132.950593 
L 296.136 -130.119 
L 296.136 -127.287407 
L 296.136 -124.455814 
L 296.136 -121.624221 
L 296.136 -118.792628 
L 296.136 -115.961036 
L 296.136 -113.129443 
L 296.136 -110.29785 
L 296.136 -107.466257 
L 296.136 -104.634664 
L 296.136 -101.803071 
L 296.136007 -98.971478 
L 296.136394 -96.139885 
L 296.148919 -93.308292 
L 296.369737 -90.476699 
L 298.465838 -87.645106 
L 308.90983 -84.813513 
L 334.586471 -81.981921 
L 359.5536 -79.150328 
L 353.337296 -76.318735 
L 324.301133 -73.487142 
L 303.694511 -70.655549 
z
" style="stroke: #595959; stroke-width: 1.25"/>
    </defs>
    <g clip-path="url(#p10d9873d65)">
     <use xlink:href="#mab493fcc20" x="0" y="432" style="fill: #e99675; stroke: #595959; stroke-width: 1.25"/>
    </g>
   </g>
   <g id="PolyCollection_3">
    <defs>
     <path id="m9fc0f7ad91" d="M 462.107872 -97.357222 
L 447.252128 -97.357222 
L 428.209837 -100.298133 
L 400.800963 -103.239044 
L 391.2624 -106.179955 
L 409.200847 -109.120866 
L 430.252687 -112.061777 
L 440.162502 -115.002688 
L 445.370335 -117.943599 
L 449.840816 -120.88451 
L 452.587173 -123.825421 
L 453.825842 -126.766331 
L 454.38643 -129.707242 
L 454.610655 -132.648153 
L 454.669885 -135.589064 
L 454.679126 -138.529975 
L 454.679956 -141.470886 
L 454.679999 -144.411797 
L 454.68 -147.352708 
L 454.68 -150.293619 
L 454.68 -153.23453 
L 454.68 -156.175441 
L 454.68 -159.116352 
L 454.68 -162.057263 
L 454.68 -164.998174 
L 454.68 -167.939085 
L 454.68 -170.879996 
L 454.68 -173.820907 
L 454.68 -176.761818 
L 454.68 -179.702729 
L 454.68 -182.64364 
L 454.68 -185.584551 
L 454.68 -188.525462 
L 454.68 -191.466373 
L 454.68 -194.407284 
L 454.68 -197.348195 
L 454.68 -200.289106 
L 454.68 -203.230016 
L 454.68 -206.170927 
L 454.68 -209.111838 
L 454.68 -212.052749 
L 454.68 -214.99366 
L 454.68 -217.934571 
L 454.68 -220.875482 
L 454.68 -223.816393 
L 454.68 -226.757304 
L 454.68 -229.698215 
L 454.68 -232.639126 
L 454.68 -235.580037 
L 454.68 -238.520948 
L 454.68 -241.461859 
L 454.68 -244.40277 
L 454.68 -247.343681 
L 454.68 -250.284592 
L 454.68 -253.225503 
L 454.68 -256.166414 
L 454.68 -259.107325 
L 454.68 -262.048236 
L 454.68 -264.989147 
L 454.68 -267.930058 
L 454.68 -270.870969 
L 454.68 -273.81188 
L 454.68 -276.752791 
L 454.68 -279.693701 
L 454.68 -282.634612 
L 454.68 -285.575523 
L 454.68 -288.516434 
L 454.68 -291.457345 
L 454.68 -294.398256 
L 454.68 -297.339167 
L 454.68 -300.280078 
L 454.68 -303.220989 
L 454.68 -306.1619 
L 454.68 -309.102811 
L 454.68 -312.043722 
L 454.68 -314.984633 
L 454.68 -317.925544 
L 454.68 -320.866455 
L 454.68 -323.807366 
L 454.68 -326.748277 
L 454.68 -329.689188 
L 454.68 -332.630099 
L 454.68 -335.57101 
L 454.68 -338.511921 
L 454.68 -341.452832 
L 454.68 -344.393743 
L 454.68 -347.334654 
L 454.68 -350.275565 
L 454.68 -353.216476 
L 454.68 -356.157387 
L 454.68 -359.098297 
L 454.679998 -362.039208 
L 454.679953 -364.980119 
L 454.679264 -367.92103 
L 454.673457 -370.861941 
L 454.647044 -373.802852 
L 454.585944 -376.743763 
L 454.52789 -379.684674 
L 454.540606 -382.625585 
L 454.607616 -385.566496 
L 454.658701 -388.507407 
L 454.701299 -388.507407 
L 454.701299 -388.507407 
L 454.752384 -385.566496 
L 454.819394 -382.625585 
L 454.83211 -379.684674 
L 454.774056 -376.743763 
L 454.712956 -373.802852 
L 454.686543 -370.861941 
L 454.680736 -367.92103 
L 454.680047 -364.980119 
L 454.680002 -362.039208 
L 454.68 -359.098297 
L 454.68 -356.157387 
L 454.68 -353.216476 
L 454.68 -350.275565 
L 454.68 -347.334654 
L 454.68 -344.393743 
L 454.68 -341.452832 
L 454.68 -338.511921 
L 454.68 -335.57101 
L 454.68 -332.630099 
L 454.68 -329.689188 
L 454.68 -326.748277 
L 454.68 -323.807366 
L 454.68 -320.866455 
L 454.68 -317.925544 
L 454.68 -314.984633 
L 454.68 -312.043722 
L 454.68 -309.102811 
L 454.68 -306.1619 
L 454.68 -303.220989 
L 454.68 -300.280078 
L 454.68 -297.339167 
L 454.68 -294.398256 
L 454.68 -291.457345 
L 454.68 -288.516434 
L 454.68 -285.575523 
L 454.68 -282.634612 
L 454.68 -279.693701 
L 454.68 -276.752791 
L 454.68 -273.81188 
L 454.68 -270.870969 
L 454.68 -267.930058 
L 454.68 -264.989147 
L 454.68 -262.048236 
L 454.68 -259.107325 
L 454.68 -256.166414 
L 454.68 -253.225503 
L 454.68 -250.284592 
L 454.68 -247.343681 
L 454.68 -244.40277 
L 454.68 -241.461859 
L 454.68 -238.520948 
L 454.68 -235.580037 
L 454.68 -232.639126 
L 454.68 -229.698215 
L 454.68 -226.757304 
L 454.68 -223.816393 
L 454.68 -220.875482 
L 454.68 -217.934571 
L 454.68 -214.99366 
L 454.68 -212.052749 
L 454.68 -209.111838 
L 454.68 -206.170927 
L 454.68 -203.230016 
L 454.68 -200.289106 
L 454.68 -197.348195 
L 454.68 -194.407284 
L 454.68 -191.466373 
L 454.68 -188.525462 
L 454.68 -185.584551 
L 454.68 -182.64364 
L 454.68 -179.702729 
L 454.68 -176.761818 
L 454.68 -173.820907 
L 454.68 -170.879996 
L 454.68 -167.939085 
L 454.68 -164.998174 
L 454.68 -162.057263 
L 454.68 -159.116352 
L 454.68 -156.175441 
L 454.68 -153.23453 
L 454.68 -150.293619 
L 454.68 -147.352708 
L 454.680001 -144.411797 
L 454.680044 -141.470886 
L 454.680874 -138.529975 
L 454.690115 -135.589064 
L 454.749345 -132.648153 
L 454.97357 -129.707242 
L 455.534158 -126.766331 
L 456.772827 -123.825421 
L 459.519184 -120.88451 
L 463.989665 -117.943599 
L 469.197498 -115.002688 
L 479.107313 -112.061777 
L 500.159153 -109.120866 
L 518.0976 -106.179955 
L 508.559037 -103.239044 
L 481.150163 -100.298133 
L 462.107872 -97.357222 
z
" style="stroke: #595959; stroke-width: 1.25"/>
    </defs>
    <g clip-path="url(#p10d9873d65)">
     <use xlink:href="#m9fc0f7ad91" x="0" y="432" style="fill: #95a3c3; stroke: #595959; stroke-width: 1.25"/>
    </g>
   </g>
   <g id="PolyCollection_4">
    <defs>
     <path id="m9e5b83fbb5" d="M 620.443994 -103.267779 
L 606.004006 -103.267779 
L 587.74224 -106.148377 
L 560.755694 -109.028975 
L 549.8064 -111.909574 
L 567.173541 -114.790172 
L 590.689327 -117.670771 
L 601.686983 -120.551369 
L 604.249814 -123.431967 
L 606.299827 -126.312566 
L 609.026485 -129.193164 
L 611.134791 -132.073763 
L 612.371255 -134.954361 
L 612.969254 -137.834959 
L 613.174069 -140.715558 
L 613.21794 -143.596156 
L 613.223556 -146.476755 
L 613.223981 -149.357353 
L 613.223999 -152.237951 
L 613.224 -155.11855 
L 613.224 -157.999148 
L 613.224 -160.879746 
L 613.224 -163.760345 
L 613.224 -166.640943 
L 613.224 -169.521542 
L 613.224 -172.40214 
L 613.224 -175.282738 
L 613.224 -178.163337 
L 613.224 -181.043935 
L 613.224 -183.924534 
L 613.224 -186.805132 
L 613.224 -189.68573 
L 613.224 -192.566329 
L 613.224 -195.446927 
L 613.224 -198.327525 
L 613.224 -201.208124 
L 613.224 -204.088722 
L 613.224 -206.969321 
L 613.224 -209.849919 
L 613.224 -212.730517 
L 613.224 -215.611116 
L 613.224 -218.491714 
L 613.224 -221.372313 
L 613.224 -224.252911 
L 613.224 -227.133509 
L 613.224 -230.014108 
L 613.224 -232.894706 
L 613.224 -235.775305 
L 613.224 -238.655903 
L 613.224 -241.536501 
L 613.224 -244.4171 
L 613.224 -247.297698 
L 613.224 -250.178296 
L 613.224 -253.058895 
L 613.224 -255.939493 
L 613.224 -258.820092 
L 613.224 -261.70069 
L 613.224 -264.581288 
L 613.224 -267.461887 
L 613.224 -270.342485 
L 613.224 -273.223084 
L 613.224 -276.103682 
L 613.224 -278.98428 
L 613.224 -281.864879 
L 613.224 -284.745477 
L 613.224 -287.626075 
L 613.224 -290.506674 
L 613.224 -293.387272 
L 613.224 -296.267871 
L 613.224 -299.148469 
L 613.224 -302.029067 
L 613.224 -304.909666 
L 613.224 -307.790264 
L 613.224 -310.670863 
L 613.224 -313.551461 
L 613.224 -316.432059 
L 613.224 -319.312658 
L 613.224 -322.193256 
L 613.224 -325.073855 
L 613.224 -327.954453 
L 613.224 -330.835051 
L 613.224 -333.71565 
L 613.224 -336.596248 
L 613.224 -339.476846 
L 613.224 -342.357445 
L 613.224 -345.238043 
L 613.224 -348.118642 
L 613.224 -350.99924 
L 613.224 -353.879838 
L 613.224 -356.760437 
L 613.224 -359.641035 
L 613.223997 -362.521634 
L 613.223926 -365.402232 
L 613.222984 -368.28283 
L 613.215943 -371.163429 
L 613.186975 -374.044027 
L 613.125437 -376.924625 
L 613.07201 -379.805224 
L 613.088231 -382.685822 
L 613.153746 -385.566421 
L 613.202942 -388.447019 
L 613.245058 -388.447019 
L 613.245058 -388.447019 
L 613.294254 -385.566421 
L 613.359769 -382.685822 
L 613.37599 -379.805224 
L 613.322563 -376.924625 
L 613.261025 -374.044027 
L 613.232057 -371.163429 
L 613.225016 -368.28283 
L 613.224074 -365.402232 
L 613.224003 -362.521634 
L 613.224 -359.641035 
L 613.224 -356.760437 
L 613.224 -353.879838 
L 613.224 -350.99924 
L 613.224 -348.118642 
L 613.224 -345.238043 
L 613.224 -342.357445 
L 613.224 -339.476846 
L 613.224 -336.596248 
L 613.224 -333.71565 
L 613.224 -330.835051 
L 613.224 -327.954453 
L 613.224 -325.073855 
L 613.224 -322.193256 
L 613.224 -319.312658 
L 613.224 -316.432059 
L 613.224 -313.551461 
L 613.224 -310.670863 
L 613.224 -307.790264 
L 613.224 -304.909666 
L 613.224 -302.029067 
L 613.224 -299.148469 
L 613.224 -296.267871 
L 613.224 -293.387272 
L 613.224 -290.506674 
L 613.224 -287.626075 
L 613.224 -284.745477 
L 613.224 -281.864879 
L 613.224 -278.98428 
L 613.224 -276.103682 
L 613.224 -273.223084 
L 613.224 -270.342485 
L 613.224 -267.461887 
L 613.224 -264.581288 
L 613.224 -261.70069 
L 613.224 -258.820092 
L 613.224 -255.939493 
L 613.224 -253.058895 
L 613.224 -250.178296 
L 613.224 -247.297698 
L 613.224 -244.4171 
L 613.224 -241.536501 
L 613.224 -238.655903 
L 613.224 -235.775305 
L 613.224 -232.894706 
L 613.224 -230.014108 
L 613.224 -227.133509 
L 613.224 -224.252911 
L 613.224 -221.372313 
L 613.224 -218.491714 
L 613.224 -215.611116 
L 613.224 -212.730517 
L 613.224 -209.849919 
L 613.224 -206.969321 
L 613.224 -204.088722 
L 613.224 -201.208124 
L 613.224 -198.327525 
L 613.224 -195.446927 
L 613.224 -192.566329 
L 613.224 -189.68573 
L 613.224 -186.805132 
L 613.224 -183.924534 
L 613.224 -181.043935 
L 613.224 -178.163337 
L 613.224 -175.282738 
L 613.224 -172.40214 
L 613.224 -169.521542 
L 613.224 -166.640943 
L 613.224 -163.760345 
L 613.224 -160.879746 
L 613.224 -157.999148 
L 613.224 -155.11855 
L 613.224001 -152.237951 
L 613.224019 -149.357353 
L 613.224444 -146.476755 
L 613.23006 -143.596156 
L 613.273931 -140.715558 
L 613.478746 -137.834959 
L 614.076745 -134.954361 
L 615.313209 -132.073763 
L 617.421515 -129.193164 
L 620.148173 -126.312566 
L 622.198186 -123.431967 
L 624.761017 -120.551369 
L 635.758673 -117.670771 
L 659.274459 -114.790172 
L 676.6416 -111.909574 
L 665.692306 -109.028975 
L 638.70576 -106.148377 
L 620.443994 -103.267779 
z
" style="stroke: #595959; stroke-width: 1.25"/>
    </defs>
    <g clip-path="url(#p10d9873d65)">
     <use xlink:href="#m9e5b83fbb5" x="0" y="432" style="fill: #db96c0; stroke: #595959; stroke-width: 1.25"/>
    </g>
   </g>
   <g id="PolyCollection_5">
    <defs>
     <path id="mb02c2e60a1" d="M 779.039234 -99.188788 
L 764.496766 -99.188788 
L 746.091545 -102.039702 
L 719.116887 -104.890615 
L 708.3504 -107.741529 
L 724.665056 -110.592443 
L 745.55683 -113.443357 
L 755.512551 -116.294271 
L 760.361039 -119.145185 
L 765.160439 -121.996099 
L 768.83619 -124.847013 
L 770.731771 -127.697926 
L 771.487328 -130.54884 
L 771.715628 -133.399754 
L 771.761817 -136.250668 
L 771.767558 -139.101582 
L 771.767981 -141.952496 
L 771.768 -144.80341 
L 771.768 -147.654324 
L 771.768 -150.505237 
L 771.768 -153.356151 
L 771.768 -156.207065 
L 771.768 -159.057979 
L 771.768 -161.908893 
L 771.768 -164.759807 
L 771.768 -167.610721 
L 771.768 -170.461635 
L 771.768 -173.312548 
L 771.768 -176.163462 
L 771.768 -179.014376 
L 771.768 -181.86529 
L 771.768 -184.716204 
L 771.768 -187.567118 
L 771.768 -190.418032 
L 771.768 -193.268946 
L 771.768 -196.119859 
L 771.768 -198.970773 
L 771.768 -201.821687 
L 771.768 -204.672601 
L 771.768 -207.523515 
L 771.768 -210.374429 
L 771.768 -213.225343 
L 771.768 -216.076257 
L 771.768 -218.92717 
L 771.768 -221.778084 
L 771.768 -224.628998 
L 771.768 -227.479912 
L 771.768 -230.330826 
L 771.768 -233.18174 
L 771.768 -236.032654 
L 771.768 -238.883568 
L 771.768 -241.734481 
L 771.768 -244.585395 
L 771.768 -247.436309 
L 771.768 -250.287223 
L 771.768 -253.138137 
L 771.768 -255.989051 
L 771.768 -258.839965 
L 771.768 -261.690879 
L 771.768 -264.541792 
L 771.768 -267.392706 
L 771.768 -270.24362 
L 771.768 -273.094534 
L 771.768 -275.945448 
L 771.768 -278.796362 
L 771.768 -281.647276 
L 771.768 -284.49819 
L 771.768 -287.349103 
L 771.768 -290.200017 
L 771.768 -293.050931 
L 771.768 -295.901845 
L 771.768 -298.752759 
L 771.768 -301.603673 
L 771.768 -304.454587 
L 771.768 -307.305501 
L 771.768 -310.156414 
L 771.768 -313.007328 
L 771.768 -315.858242 
L 771.768 -318.709156 
L 771.768 -321.56007 
L 771.768 -324.410984 
L 771.768 -327.261898 
L 771.768 -330.112812 
L 771.768 -332.963725 
L 771.768 -335.814639 
L 771.768 -338.665553 
L 771.768 -341.516467 
L 771.768 -344.367381 
L 771.768 -347.218295 
L 771.768 -350.069209 
L 771.768 -352.920123 
L 771.767997 -355.771036 
L 771.767929 -358.62195 
L 771.767003 -361.472864 
L 771.759901 -364.323778 
L 771.730058 -367.174692 
L 771.665509 -370.025606 
L 771.608368 -372.87652 
L 771.624641 -375.727434 
L 771.693767 -378.578347 
L 771.745837 -381.429261 
L 771.790163 -381.429261 
L 771.790163 -381.429261 
L 771.842233 -378.578347 
L 771.911359 -375.727434 
L 771.927632 -372.87652 
L 771.870491 -370.025606 
L 771.805942 -367.174692 
L 771.776099 -364.323778 
L 771.768997 -361.472864 
L 771.768071 -358.62195 
L 771.768003 -355.771036 
L 771.768 -352.920123 
L 771.768 -350.069209 
L 771.768 -347.218295 
L 771.768 -344.367381 
L 771.768 -341.516467 
L 771.768 -338.665553 
L 771.768 -335.814639 
L 771.768 -332.963725 
L 771.768 -330.112812 
L 771.768 -327.261898 
L 771.768 -324.410984 
L 771.768 -321.56007 
L 771.768 -318.709156 
L 771.768 -315.858242 
L 771.768 -313.007328 
L 771.768 -310.156414 
L 771.768 -307.305501 
L 771.768 -304.454587 
L 771.768 -301.603673 
L 771.768 -298.752759 
L 771.768 -295.901845 
L 771.768 -293.050931 
L 771.768 -290.200017 
L 771.768 -287.349103 
L 771.768 -284.49819 
L 771.768 -281.647276 
L 771.768 -278.796362 
L 771.768 -275.945448 
L 771.768 -273.094534 
L 771.768 -270.24362 
L 771.768 -267.392706 
L 771.768 -264.541792 
L 771.768 -261.690879 
L 771.768 -258.839965 
L 771.768 -255.989051 
L 771.768 -253.138137 
L 771.768 -250.287223 
L 771.768 -247.436309 
L 771.768 -244.585395 
L 771.768 -241.734481 
L 771.768 -238.883568 
L 771.768 -236.032654 
L 771.768 -233.18174 
L 771.768 -230.330826 
L 771.768 -227.479912 
L 771.768 -224.628998 
L 771.768 -221.778084 
L 771.768 -218.92717 
L 771.768 -216.076257 
L 771.768 -213.225343 
L 771.768 -210.374429 
L 771.768 -207.523515 
L 771.768 -204.672601 
L 771.768 -201.821687 
L 771.768 -198.970773 
L 771.768 -196.119859 
L 771.768 -193.268946 
L 771.768 -190.418032 
L 771.768 -187.567118 
L 771.768 -184.716204 
L 771.768 -181.86529 
L 771.768 -179.014376 
L 771.768 -176.163462 
L 771.768 -173.312548 
L 771.768 -170.461635 
L 771.768 -167.610721 
L 771.768 -164.759807 
L 771.768 -161.908893 
L 771.768 -159.057979 
L 771.768 -156.207065 
L 771.768 -153.356151 
L 771.768 -150.505237 
L 771.768 -147.654324 
L 771.768 -144.80341 
L 771.768019 -141.952496 
L 771.768442 -139.101582 
L 771.774183 -136.250668 
L 771.820372 -133.399754 
L 772.048672 -130.54884 
L 772.804229 -127.697926 
L 774.69981 -124.847013 
L 778.375561 -121.996099 
L 783.174961 -119.145185 
L 788.023449 -116.294271 
L 797.97917 -113.443357 
L 818.870944 -110.592443 
L 835.1856 -107.741529 
L 824.419113 -104.890615 
L 797.444455 -102.039702 
L 779.039234 -99.188788 
z
" style="stroke: #595959; stroke-width: 1.25"/>
    </defs>
    <g clip-path="url(#p10d9873d65)">
     <use xlink:href="#mb02c2e60a1" x="0" y="432" style="fill: #a2c865; stroke: #595959; stroke-width: 1.25"/>
    </g>
   </g>
   <g id="line2d_6">
    <path d="M 137.592 353.1427 
L 137.592 353.230585 
" clip-path="url(#p10d9873d65)" style="fill: none; stroke: #000000"/>
   </g>
   <g id="line2d_7">
    <path d="M 137.592 352.986828 
L 137.592 352.812716 
" clip-path="url(#p10d9873d65)" style="fill: none; stroke: #000000"/>
   </g>
   <g id="line2d_8">
    <path d="M 131.6466 353.230585 
L 143.5374 353.230585 
" clip-path="url(#p10d9873d65)" style="fill: none; stroke: #000000; stroke-linecap: round"/>
   </g>
   <g id="line2d_9">
    <path d="M 131.6466 352.812716 
L 143.5374 352.812716 
" clip-path="url(#p10d9873d65)" style="fill: none; stroke: #000000; stroke-linecap: round"/>
   </g>
   <g id="line2d_10">
    <path d="M 296.136 354.03316 
L 296.136 354.119387 
" clip-path="url(#p10d9873d65)" style="fill: none; stroke: #000000"/>
   </g>
   <g id="line2d_11">
    <path d="M 296.136 353.910452 
L 296.136 353.794377 
" clip-path="url(#p10d9873d65)" style="fill: none; stroke: #000000"/>
   </g>
   <g id="line2d_12">
    <path d="M 290.1906 354.119387 
L 302.0814 354.119387 
" clip-path="url(#p10d9873d65)" style="fill: none; stroke: #000000; stroke-linecap: round"/>
   </g>
   <g id="line2d_13">
    <path d="M 290.1906 353.794377 
L 302.0814 353.794377 
" clip-path="url(#p10d9873d65)" style="fill: none; stroke: #000000; stroke-linecap: round"/>
   </g>
   <g id="line2d_14">
    <path d="M 454.68 326.712473 
L 454.68 326.838497 
" clip-path="url(#p10d9873d65)" style="fill: none; stroke: #000000"/>
   </g>
   <g id="line2d_15">
    <path d="M 454.68 326.218326 
L 454.68 325.591523 
" clip-path="url(#p10d9873d65)" style="fill: none; stroke: #000000"/>
   </g>
   <g id="line2d_16">
    <path d="M 448.7346 326.838497 
L 460.6254 326.838497 
" clip-path="url(#p10d9873d65)" style="fill: none; stroke: #000000; stroke-linecap: round"/>
   </g>
   <g id="line2d_17">
    <path d="M 448.7346 325.591523 
L 460.6254 325.591523 
" clip-path="url(#p10d9873d65)" style="fill: none; stroke: #000000; stroke-linecap: round"/>
   </g>
   <g id="line2d_18">
    <path d="M 613.224 320.802609 
L 613.224 320.935266 
" clip-path="url(#p10d9873d65)" style="fill: none; stroke: #000000"/>
   </g>
   <g id="line2d_19">
    <path d="M 613.224 320.192387 
L 613.224 319.283688 
" clip-path="url(#p10d9873d65)" style="fill: none; stroke: #000000"/>
   </g>
   <g id="line2d_20">
    <path d="M 607.2786 320.935266 
L 619.1694 320.935266 
" clip-path="url(#p10d9873d65)" style="fill: none; stroke: #000000; stroke-linecap: round"/>
   </g>
   <g id="line2d_21">
    <path d="M 607.2786 319.283688 
L 619.1694 319.283688 
" clip-path="url(#p10d9873d65)" style="fill: none; stroke: #000000; stroke-linecap: round"/>
   </g>
   <g id="line2d_22">
    <path d="M 771.768 324.981301 
L 771.768 325.127224 
" clip-path="url(#p10d9873d65)" style="fill: none; stroke: #000000"/>
   </g>
   <g id="line2d_23">
    <path d="M 771.768 324.351181 
L 771.768 323.435848 
" clip-path="url(#p10d9873d65)" style="fill: none; stroke: #000000"/>
   </g>
   <g id="line2d_24">
    <path d="M 765.8226 325.127224 
L 777.7134 325.127224 
" clip-path="url(#p10d9873d65)" style="fill: none; stroke: #000000; stroke-linecap: round"/>
   </g>
   <g id="line2d_25">
    <path d="M 765.8226 323.435848 
L 777.7134 323.435848 
" clip-path="url(#p10d9873d65)" style="fill: none; stroke: #000000; stroke-linecap: round"/>
   </g>
   <g id="line2d_26">
    <path d="M 125.7012 353.097929 
L 149.4828 353.097929 
" clip-path="url(#p10d9873d65)" style="fill: none; stroke: #ff0000; stroke-width: 2"/>
   </g>
   <g id="line2d_27">
    <path d="M 284.2452 353.98673 
L 308.0268 353.98673 
" clip-path="url(#p10d9873d65)" style="fill: none; stroke: #ff0000; stroke-width: 2"/>
   </g>
   <g id="line2d_28">
    <path d="M 442.7892 326.632879 
L 466.5708 326.632879 
" clip-path="url(#p10d9873d65)" style="fill: none; stroke: #ff0000; stroke-width: 2"/>
   </g>
   <g id="line2d_29">
    <path d="M 601.3332 320.696483 
L 625.1148 320.696483 
" clip-path="url(#p10d9873d65)" style="fill: none; stroke: #ff0000; stroke-width: 2"/>
   </g>
   <g id="line2d_30">
    <path d="M 759.8772 324.888441 
L 783.6588 324.888441 
" clip-path="url(#p10d9873d65)" style="fill: none; stroke: #ff0000; stroke-width: 2"/>
   </g>
   <g id="patch_3">
    <path d="M 58.32 377.237044 
L 58.32 27.6 
" style="fill: none; stroke: #cccccc; stroke-width: 1.25; stroke-linejoin: miter; stroke-linecap: square"/>
   </g>
   <g id="patch_4">
    <path d="M 851.04 377.237044 
L 851.04 27.6 
" style="fill: none; stroke: #cccccc; stroke-width: 1.25; stroke-linejoin: miter; stroke-linecap: square"/>
   </g>
   <g id="patch_5">
    <path d="M 58.32 377.237044 
L 851.04 377.237044 
" style="fill: none; stroke: #cccccc; stroke-width: 1.25; stroke-linejoin: miter; stroke-linecap: square"/>
   </g>
   <g id="patch_6">
    <path d="M 58.32 27.6 
L 851.04 27.6 
" style="fill: none; stroke: #cccccc; stroke-width: 1.25; stroke-linejoin: miter; stroke-linecap: square"/>
   </g>
   <g id="text_12">
    <!-- Handshake duration on QUIC with secp384r1 signature algorithm — Backbone (200ms/4%) -->
    <g style="fill: #262626" transform="translate(180.669375 21.6) scale(0.12 -0.12)">
     <defs>
      <path id="DejaVuSans-51" d="M 2522 4238 
Q 1834 4238 1429 3725 
Q 1025 3213 1025 2328 
Q 1025 1447 1429 934 
Q 1834 422 2522 422 
Q 3209 422 3611 934 
Q 4013 1447 4013 2328 
Q 4013 3213 3611 3725 
Q 3209 4238 2522 4238 
z
M 3406 84 
L 4238 -825 
L 3475 -825 
L 2784 -78 
Q 2681 -84 2626 -87 
Q 2572 -91 2522 -91 
Q 1538 -91 948 567 
Q 359 1225 359 2328 
Q 359 3434 948 4092 
Q 1538 4750 2522 4750 
Q 3503 4750 4090 4092 
Q 4678 3434 4678 2328 
Q 4678 1516 4351 937 
Q 4025 359 3406 84 
z
" transform="scale(0.015625)"/>
      <path id="DejaVuSans-55" d="M 556 4666 
L 1191 4666 
L 1191 1831 
Q 1191 1081 1462 751 
Q 1734 422 2344 422 
Q 2950 422 3222 751 
Q 3494 1081 3494 1831 
L 3494 4666 
L 4128 4666 
L 4128 1753 
Q 4128 841 3676 375 
Q 3225 -91 2344 -91 
Q 1459 -91 1007 375 
Q 556 841 556 1753 
L 556 4666 
z
" transform="scale(0.015625)"/>
      <path id="DejaVuSans-49" d="M 628 4666 
L 1259 4666 
L 1259 0 
L 628 0 
L 628 4666 
z
" transform="scale(0.015625)"/>
      <path id="DejaVuSans-43" d="M 4122 4306 
L 4122 3641 
Q 3803 3938 3442 4084 
Q 3081 4231 2675 4231 
Q 1875 4231 1450 3742 
Q 1025 3253 1025 2328 
Q 1025 1406 1450 917 
Q 1875 428 2675 428 
Q 3081 428 3442 575 
Q 3803 722 4122 1019 
L 4122 359 
Q 3791 134 3420 21 
Q 3050 -91 2638 -91 
Q 1578 -91 968 557 
Q 359 1206 359 2328 
Q 359 3453 968 4101 
Q 1578 4750 2638 4750 
Q 3056 4750 3426 4639 
Q 3797 4528 4122 4306 
z
" transform="scale(0.015625)"/>
      <path id="DejaVuSans-77" d="M 269 3500 
L 844 3500 
L 1563 769 
L 2278 3500 
L 2956 3500 
L 3675 769 
L 4391 3500 
L 4966 3500 
L 4050 0 
L 3372 0 
L 2619 2869 
L 1863 0 
L 1184 0 
L 269 3500 
z
" transform="scale(0.015625)"/>
      <path id="DejaVuSans-67" d="M 2906 1791 
Q 2906 2416 2648 2759 
Q 2391 3103 1925 3103 
Q 1463 3103 1205 2759 
Q 947 2416 947 1791 
Q 947 1169 1205 825 
Q 1463 481 1925 481 
Q 2391 481 2648 825 
Q 2906 1169 2906 1791 
z
M 3481 434 
Q 3481 -459 3084 -895 
Q 2688 -1331 1869 -1331 
Q 1566 -1331 1297 -1286 
Q 1028 -1241 775 -1147 
L 775 -588 
Q 1028 -725 1275 -790 
Q 1522 -856 1778 -856 
Q 2344 -856 2625 -561 
Q 2906 -266 2906 331 
L 2906 616 
Q 2728 306 2450 153 
Q 2172 0 1784 0 
Q 1141 0 747 490 
Q 353 981 353 1791 
Q 353 2603 747 3093 
Q 1141 3584 1784 3584 
Q 2172 3584 2450 3431 
Q 2728 3278 2906 2969 
L 2906 3500 
L 3481 3500 
L 3481 434 
z
" transform="scale(0.015625)"/>
      <path id="DejaVuSans-6c" d="M 603 4863 
L 1178 4863 
L 1178 0 
L 603 0 
L 603 4863 
z
" transform="scale(0.015625)"/>
      <path id="DejaVuSans-2014" d="M 313 1978 
L 6088 1978 
L 6088 1528 
L 313 1528 
L 313 1978 
z
" transform="scale(0.015625)"/>
      <path id="DejaVuSans-42" d="M 1259 2228 
L 1259 519 
L 2272 519 
Q 2781 519 3026 730 
Q 3272 941 3272 1375 
Q 3272 1813 3026 2020 
Q 2781 2228 2272 2228 
L 1259 2228 
z
M 1259 4147 
L 1259 2741 
L 2194 2741 
Q 2656 2741 2882 2914 
Q 3109 3088 3109 3444 
Q 3109 3797 2882 3972 
Q 2656 4147 2194 4147 
L 1259 4147 
z
M 628 4666 
L 2241 4666 
Q 2963 4666 3353 4366 
Q 3744 4066 3744 3513 
Q 3744 3084 3544 2831 
Q 3344 2578 2956 2516 
Q 3422 2416 3680 2098 
Q 3938 1781 3938 1306 
Q 3938 681 3513 340 
Q 3088 0 2303 0 
L 628 0 
L 628 4666 
z
" transform="scale(0.015625)"/>
      <path id="DejaVuSans-62" d="M 3116 1747 
Q 3116 2381 2855 2742 
Q 2594 3103 2138 3103 
Q 1681 3103 1420 2742 
Q 1159 2381 1159 1747 
Q 1159 1113 1420 752 
Q 1681 391 2138 391 
Q 2594 391 2855 752 
Q 3116 1113 3116 1747 
z
M 1159 2969 
Q 1341 3281 1617 3432 
Q 1894 3584 2278 3584 
Q 2916 3584 3314 3078 
Q 3713 2572 3713 1747 
Q 3713 922 3314 415 
Q 2916 -91 2278 -91 
Q 1894 -91 1617 61 
Q 1341 213 1159 525 
L 1159 0 
L 581 0 
L 581 4863 
L 1159 4863 
L 1159 2969 
z
" transform="scale(0.015625)"/>
      <path id="DejaVuSans-2f" d="M 1625 4666 
L 2156 4666 
L 531 -594 
L 0 -594 
L 1625 4666 
z
" transform="scale(0.015625)"/>
      <path id="DejaVuSans-25" d="M 4653 2053 
Q 4381 2053 4226 1822 
Q 4072 1591 4072 1178 
Q 4072 772 4226 539 
Q 4381 306 4653 306 
Q 4919 306 5073 539 
Q 5228 772 5228 1178 
Q 5228 1588 5073 1820 
Q 4919 2053 4653 2053 
z
M 4653 2450 
Q 5147 2450 5437 2106 
Q 5728 1763 5728 1178 
Q 5728 594 5436 251 
Q 5144 -91 4653 -91 
Q 4153 -91 3862 251 
Q 3572 594 3572 1178 
Q 3572 1766 3864 2108 
Q 4156 2450 4653 2450 
z
M 1428 4353 
Q 1159 4353 1004 4120 
Q 850 3888 850 3481 
Q 850 3069 1003 2837 
Q 1156 2606 1428 2606 
Q 1700 2606 1854 2837 
Q 2009 3069 2009 3481 
Q 2009 3884 1853 4118 
Q 1697 4353 1428 4353 
z
M 4250 4750 
L 4750 4750 
L 1831 -91 
L 1331 -91 
L 4250 4750 
z
M 1428 4750 
Q 1922 4750 2215 4408 
Q 2509 4066 2509 3481 
Q 2509 2891 2217 2550 
Q 1925 2209 1428 2209 
Q 931 2209 642 2551 
Q 353 2894 353 3481 
Q 353 4063 643 4406 
Q 934 4750 1428 4750 
z
" transform="scale(0.015625)"/>
     </defs>
     <use xlink:href="#DejaVuSans-48"/>
     <use xlink:href="#DejaVuSans-61" x="75.195312"/>
     <use xlink:href="#DejaVuSans-6e" x="136.474609"/>
     <use xlink:href="#DejaVuSans-64" x="199.853516"/>
     <use xlink:href="#DejaVuSans-73" x="263.330078"/>
     <use xlink:href="#DejaVuSans-68" x="315.429688"/>
     <use xlink:href="#DejaVuSans-61" x="378.808594"/>
     <use xlink:href="#DejaVuSans-6b" x="440.087891"/>
     <use xlink:href="#DejaVuSans-65" x="494.373047"/>
     <use xlink:href="#DejaVuSans-20" x="555.896484"/>
     <use xlink:href="#DejaVuSans-64" x="587.683594"/>
     <use xlink:href="#DejaVuSans-75" x="651.160156"/>
     <use xlink:href="#DejaVuSans-72" x="714.539062"/>
     <use xlink:href="#DejaVuSans-61" x="755.652344"/>
     <use xlink:href="#DejaVuSans-74" x="816.931641"/>
     <use xlink:href="#DejaVuSans-69" x="856.140625"/>
     <use xlink:href="#DejaVuSans-6f" x="883.923828"/>
     <use xlink:href="#DejaVuSans-6e" x="945.105469"/>
     <use xlink:href="#DejaVuSans-20" x="1008.484375"/>
     <use xlink:href="#DejaVuSans-6f" x="1040.271484"/>
     <use xlink:href="#DejaVuSans-6e" x="1101.453125"/>
     <use xlink:href="#DejaVuSans-20" x="1164.832031"/>
     <use xlink:href="#DejaVuSans-51" x="1196.619141"/>
     <use xlink:href="#DejaVuSans-55" x="1275.330078"/>
     <use xlink:href="#DejaVuSans-49" x="1348.523438"/>
     <use xlink:href="#DejaVuSans-43" x="1378.015625"/>
     <use xlink:href="#DejaVuSans-20" x="1447.839844"/>
     <use xlink:href="#DejaVuSans-77" x="1479.626953"/>
     <use xlink:href="#DejaVuSans-69" x="1561.414062"/>
     <use xlink:href="#DejaVuSans-74" x="1589.197266"/>
     <use xlink:href="#DejaVuSans-68" x="1628.40625"/>
     <use xlink:href="#DejaVuSans-20" x="1691.785156"/>
     <use xlink:href="#DejaVuSans-73" x="1723.572266"/>
     <use xlink:href="#DejaVuSans-65" x="1775.671875"/>
     <use xlink:href="#DejaVuSans-63" x="1837.195312"/>
     <use xlink:href="#DejaVuSans-70" x="1892.175781"/>
     <use xlink:href="#DejaVuSans-33" x="1955.652344"/>
     <use xlink:href="#DejaVuSans-38" x="2019.275391"/>
     <use xlink:href="#DejaVuSans-34" x="2082.898438"/>
     <use xlink:href="#DejaVuSans-72" x="2146.521484"/>
     <use xlink:href="#DejaVuSans-31" x="2187.634766"/>
     <use xlink:href="#DejaVuSans-20" x="2251.257812"/>
     <use xlink:href="#DejaVuSans-73" x="2283.044922"/>
     <use xlink:href="#DejaVuSans-69" x="2335.144531"/>
     <use xlink:href="#DejaVuSans-67" x="2362.927734"/>
     <use xlink:href="#DejaVuSans-6e" x="2426.404297"/>
     <use xlink:href="#DejaVuSans-61" x="2489.783203"/>
     <use xlink:href="#DejaVuSans-74" x="2551.0625"/>
     <use xlink:href="#DejaVuSans-75" x="2590.271484"/>
     <use xlink:href="#DejaVuSans-72" x="2653.650391"/>
     <use xlink:href="#DejaVuSans-65" x="2692.513672"/>
     <use xlink:href="#DejaVuSans-20" x="2754.037109"/>
     <use xlink:href="#DejaVuSans-61" x="2785.824219"/>
     <use xlink:href="#DejaVuSans-6c" x="2847.103516"/>
     <use xlink:href="#DejaVuSans-67" x="2874.886719"/>
     <use xlink:href="#DejaVuSans-6f" x="2938.363281"/>
     <use xlink:href="#DejaVuSans-72" x="2999.544922"/>
     <use xlink:href="#DejaVuSans-69" x="3040.658203"/>
     <use xlink:href="#DejaVuSans-74" x="3068.441406"/>
     <use xlink:href="#DejaVuSans-68" x="3107.650391"/>
     <use xlink:href="#DejaVuSans-6d" x="3171.029297"/>
     <use xlink:href="#DejaVuSans-20" x="3268.441406"/>
     <use xlink:href="#DejaVuSans-2014" x="3300.228516"/>
     <use xlink:href="#DejaVuSans-20" x="3400.228516"/>
     <use xlink:href="#DejaVuSans-42" x="3432.015625"/>
     <use xlink:href="#DejaVuSans-61" x="3500.619141"/>
     <use xlink:href="#DejaVuSans-63" x="3561.898438"/>
     <use xlink:href="#DejaVuSans-6b" x="3616.878906"/>
     <use xlink:href="#DejaVuSans-62" x="3674.789062"/>
     <use xlink:href="#DejaVuSans-6f" x="3738.265625"/>
     <use xlink:href="#DejaVuSans-6e" x="3799.447266"/>
     <use xlink:href="#DejaVuSans-65" x="3862.826172"/>
     <use xlink:href="#DejaVuSans-20" x="3924.349609"/>
     <use xlink:href="#DejaVuSans-28" x="3956.136719"/>
     <use xlink:href="#DejaVuSans-32" x="3995.150391"/>
     <use xlink:href="#DejaVuSans-30" x="4058.773438"/>
     <use xlink:href="#DejaVuSans-30" x="4122.396484"/>
     <use xlink:href="#DejaVuSans-6d" x="4186.019531"/>
     <use xlink:href="#DejaVuSans-73" x="4283.431641"/>
     <use xlink:href="#DejaVuSans-2f" x="4335.53125"/>
     <use xlink:href="#DejaVuSans-34" x="4369.222656"/>
     <use xlink:href="#DejaVuSans-25" x="4432.845703"/>
     <use xlink:href="#DejaVuSans-29" x="4527.865234"/>
    </g>
   </g>
  </g>
 </g>
 <defs>
  <clipPath id="p10d9873d65">
   <rect x="58.32" y="27.6" width="792.72" height="349.637044"/>
  </clipPath>
 </defs>
</svg>
